<?xml version="1.0" encoding="UTF-8"?>
<!DOCTYPE xmeml>
<xmeml version="1">
<sequence id="2013-FF-Ep1-Jenny-MASTER Nedklipp 2012 ">
	<name>2013-FF-Ep1-Jenny-MASTER Nedklipp 2012</name>
	<duration>36229</duration>
	<rate>
		<ntsc>FALSE</ntsc>
		<timebase>25</timebase>
	</rate>
	<timecode>
		<rate>
			<ntsc>FALSE</ntsc>
			<timebase>25</timebase>
		</rate>
		<string>00:00:00:00</string>
		<frame>0</frame>
		<source>source</source>
		<displayformat>NDF</displayformat>
	</timecode>
	<in>-1</in>
	<out>-1</out>
	<media>
		<video>
			<format>
				<samplecharacteristics>
					<width>1920</width>
					<height>1080</height>
					<anamorphic>FALSE</anamorphic>
					<pixelaspectratio>Square</pixelaspectratio>
					<fielddominance>upper</fielddominance>
					<rate>
						<ntsc>FALSE</ntsc>
						<timebase>25</timebase>
					</rate>
					<colordepth>24</colordepth>
					<codec>
						<name>Apple XDCAM 422 1080i50 (50 Mb/s CBR)</name>
						<appspecificdata>
							<appname>Final Cut Pro</appname>
							<appmanufacturer>Apple Inc.</appmanufacturer>
							<appversion>7.0</appversion>
							<data>
								<qtcodec>
									<codecname>Apple XDCAM 422 1080i50 (50 Mb/s CBR)</codecname>
									<codectypename>XDCAM 422 1080i50 (50 Mb/s CBR)</codectypename>
									<codectypecode>xd5c</codectypecode>
									<codecvendorcode>appl</codecvendorcode>
									<spatialquality>1023</spatialquality>
									<temporalquality>0</temporalquality>
									<keyframerate>0</keyframerate>
									<datarate>0</datarate>
								</qtcodec>
							</data>
						</appspecificdata>
					</codec>
				</samplecharacteristics>
				<appspecificdata>
					<appname>Final Cut Pro</appname>
					<appmanufacturer>Apple Inc.</appmanufacturer>
					<appversion>7.0</appversion>
					<data>
						<fcpimageprocessing>
							<useyuv>TRUE</useyuv>
							<usesuperwhite>FALSE</usesuperwhite>
							<rendermode>YUV8BPP</rendermode>
						</fcpimageprocessing>
					</data>
				</appspecificdata>
			</format>
			<track>
				<clipitem id="msub200012-3011-k1d1-006 ">
					<name>msub200012-3011-k1d1-006</name>
					<duration>583</duration>
					<rate>
						<ntsc>FALSE</ntsc>
						<timebase>25</timebase>
					</rate>
					<in>72</in>
					<out>488</out>
					<start>0</start>
					<end>416</end>
					<pixelaspectratio>Square</pixelaspectratio>
					<enabled>TRUE</enabled>
					<anamorphic>FALSE</anamorphic>
					<alphatype>none</alphatype>
					<masterclipid>msub200012-3011-k1d1-006 1</masterclipid>
					<logginginfo>
						<description>msub200012-3011-k1d1-006</description>
						<scene/>
						<shottake/>
						<lognote/>
						<good>FALSE</good>
					</logginginfo>
					<labels>
						<label2/>
					</labels>
					<comments>
						<mastercomment1>RÃ…STOFF. BR_FINFREDAG_MSUA_OPRO</mastercomment1>
						<mastercomment2/>
						<mastercomment3/>
						<mastercomment4/>
						<clipcommenta/>
					</comments>
					<file id="msub200012-3011-k1d1-006 2">
						<name>msub200012-3011-k1d1-006.mxf</name>
						<pathurl>file://localhost/omfs/clip.dir/MXF/1080i/msub200012-3011-k1d1-006.mxf</pathurl>
						<rate>
							<timebase>25</timebase>
						</rate>
						<duration>583</duration>
						<timecode>
							<rate>
								<timebase>25</timebase>
							</rate>
							<string>01:02:23:05</string>
							<frame>93580</frame>
							<displayformat>NDF</displayformat>
							<source>source</source>
						</timecode>
						<media>
							<video>
								<duration>583</duration>
								<samplecharacteristics>
									<width>1920</width>
									<height>1080</height>
								</samplecharacteristics>
							</video>
							<audio>
								<rate>
									<timebase>48000</timebase>
								</rate>
								<trackcount>1</trackcount>
								<samplecharacteristics>
									<depth>24</depth>
								</samplecharacteristics>
							</audio>
						</media>
					</file>
					<sourcetrack>
						<mediatype>video</mediatype>
					</sourcetrack>
					<fielddominance>upper</fielddominance>
				</clipitem>
				<generatoritem id="One Color Ray">
					<name>One Color Ray</name>
					<duration>3000</duration>
					<rate>
						<ntsc>FALSE</ntsc>
						<timebase>25</timebase>
					</rate>
					<in>1375</in>
					<out>1631</out>
					<start>910</start>
					<end>1166</end>
					<enabled>TRUE</enabled>
					<anamorphic>FALSE</anamorphic>
					<alphatype>straight</alphatype>
					<logginginfo>
						<scene/>
						<shottake/>
						<lognote/>
						<good>FALSE</good>
					</logginginfo>
					<labels>
						<label2/>
					</labels>
					<comments>
						<mastercomment1/>
						<mastercomment2/>
						<mastercomment3/>
						<mastercomment4/>
					</comments>
					<effect>
						<name>One Color Ray</name>
						<effecttype>generator</effecttype>
						<mediatype>video</mediatype>
						<parameter>
							<parameterid>input_6</parameterid>
							<name>Color Space</name>
							<valuelist>
								<valueentry>
									<name>YIQ</name>
									<value>1</value>
								</valueentry>
								<valueentry>
									<name>YUV</name>
									<value>2</value>
								</valueentry>
							</valuelist>
							<value>1</value>
						</parameter>
						<parameter>
							<parameterid>input_4_X</parameterid>
							<name>Offset</name>
							<value>
								<horiz>0</horiz>
								<vert>0</vert>
							</value>
						</parameter>
						<parameter>
							<parameterid>input_1</parameterid>
							<name>Color</name>
							<value>
								<alpha>255</alpha>
								<red>135</red>
								<green>100</green>
								<blue>44</blue>
							</value>
						</parameter>
						<parameter>
							<parameterid>input_2</parameterid>
							<name>Color Variance</name>
							<valuemin>0</valuemin>
							<valuemax>1</valuemax>
							<value>0.5</value>
						</parameter>
						<parameter>
							<parameterid>input_3</parameterid>
							<name>Divisions</name>
							<valuemin>1</valuemin>
							<valuemax>256</valuemax>
							<value>8</value>
						</parameter>
						<parameter>
							<parameterid>input_5</parameterid>
							<name>Rotation</name>
							<valuemin>-206265</valuemin>
							<valuemax>206265</valuemax>
							<keyframe>
								<when>1374</when>
								<value>0</value>
							</keyframe>
							<keyframe>
								<when>1375</when>
								<value>0</value>
							</keyframe>
							<keyframe>
								<when>1677</when>
								<value>20</value>
							</keyframe>
							<interpolation>
								<name>FCPCurve</name>
							</interpolation>
							<value>0</value>
						</parameter>
						<parameter>
							<parameterid>input_7</parameterid>
							<name>Sharpness</name>
							<valuemin>0.25</valuemin>
							<valuemax>1</valuemax>
							<value>0.96</value>
						</parameter>
						<parameter>
							<parameterid>input_8</parameterid>
							<name>Waviness</name>
							<valuemin>-10</valuemin>
							<valuemax>10</valuemax>
							<keyframe>
								<when>1375</when>
								<value>0</value>
							</keyframe>
							<keyframe>
								<when>1677</when>
								<value>0</value>
							</keyframe>
							<interpolation>
								<name>FCPCurve</name>
							</interpolation>
							<value>0</value>
						</parameter>
						<parameter>
							<parameterid>input_9</parameterid>
							<name>Frequency</name>
							<valuemin>0</valuemin>
							<valuemax>100</valuemax>
							<keyframe>
								<when>1375</when>
								<value>5</value>
							</keyframe>
							<keyframe>
								<when>1677</when>
								<value>5</value>
							</keyframe>
							<interpolation>
								<name>FCPCurve</name>
							</interpolation>
							<value>5</value>
						</parameter>
						<parameter>
							<parameterid>input_10</parameterid>
							<name>Phase</name>
							<valuemin>-300</valuemin>
							<valuemax>300</valuemax>
							<keyframe>
								<when>1375</when>
								<value>0</value>
							</keyframe>
							<interpolation>
								<name>FCPCurve</name>
							</interpolation>
							<value>0</value>
						</parameter>
						<parameter>
							<parameterid>input_11</parameterid>
							<name>Inner Cutoff</name>
							<valuemin>0</valuemin>
							<valuemax>2250</valuemax>
							<value>0</value>
						</parameter>
						<parameter>
							<parameterid>input_12</parameterid>
							<name>Outer Cutoff</name>
							<valuemin>0</valuemin>
							<valuemax>2250</valuemax>
							<value>2250</value>
						</parameter>
					</effect>
					<filter>
						<enabled>TRUE</enabled>
						<start>-1</start>
						<end>-1</end>
						<effect>
							<name>Gaussian Blur</name>
							<effectid>Gaussian Blur</effectid>
							<effectcategory>Blur</effectcategory>
							<effecttype>filter</effecttype>
							<mediatype>video</mediatype>
							<parameter>
								<parameterid>channel</parameterid>
								<name>Channel</name>
								<valuemin>1</valuemin>
								<valuemax>7</valuemax>
								<valuelist>
									<valueentry>
										<name>Alpha+RGB</name>
										<value>1</value>
									</valueentry>
									<valueentry>
										<name>Alpha</name>
										<value>2</value>
									</valueentry>
									<valueentry>
										<name>RGB</name>
										<value>3</value>
									</valueentry>
									<valueentry>
										<name>Red</name>
										<value>4</value>
									</valueentry>
									<valueentry>
										<name>Green</name>
										<value>5</value>
									</valueentry>
									<valueentry>
										<name>Blue</name>
										<value>6</value>
									</valueentry>
									<valueentry>
										<name>Luminance</name>
										<value>7</value>
									</valueentry>
								</valuelist>
								<value>1</value>
							</parameter>
							<parameter>
								<parameterid>radius</parameterid>
								<name>Radius</name>
								<valuemin>0</valuemin>
								<valuemax>100</valuemax>
								<value>10</value>
							</parameter>
						</effect>
					</filter>
					<filter>
						<effect>
							<name>Basic Motion</name>
							<effectid>basic</effectid>
							<effectcategory>motion</effectcategory>
							<effecttype>motion</effecttype>
							<mediatype>video</mediatype>
							<parameter>
								<parameterid>scale</parameterid>
								<name>Scale</name>
								<valuemin>0</valuemin>
								<valuemax>1000</valuemax>
								<value>100</value>
							</parameter>
							<parameter>
								<parameterid>rotation</parameterid>
								<name>Rotation</name>
								<valuemin>-8640</valuemin>
								<valuemax>8640</valuemax>
								<value>0</value>
							</parameter>
							<parameter>
								<parameterid>center</parameterid>
								<name>Center</name>
								<value>
									<horiz>0</horiz>
									<vert>0</vert>
								</value>
							</parameter>
							<parameter>
								<parameterid>centerOffset</parameterid>
								<name>Anchor Point</name>
								<value>
									<horiz>0</horiz>
									<vert>0</vert>
								</value>
							</parameter>
						</effect>
					</filter>
					<filter>
						<enabled>FALSE</enabled>
						<effect>
							<name>Drop Shadow</name>
							<effectid>dropshadow</effectid>
							<effectcategory>motion</effectcategory>
							<effecttype>motion</effecttype>
							<mediatype>video</mediatype>
							<parameter>
								<parameterid>offset</parameterid>
								<name>offset</name>
								<valuemin>-100</valuemin>
								<valuemax>100</valuemax>
								<value>2</value>
							</parameter>
							<parameter>
								<parameterid>angle</parameterid>
								<name>angle</name>
								<valuemin>-720</valuemin>
								<valuemax>720</valuemax>
								<value>135</value>
							</parameter>
							<parameter>
								<parameterid>color</parameterid>
								<name>color</name>
								<value>
									<alpha>0</alpha>
									<red>0</red>
									<green>0</green>
									<blue>0</blue>
								</value>
							</parameter>
							<parameter>
								<parameterid>softness</parameterid>
								<name>softness</name>
								<valuemin>0</valuemin>
								<valuemax>100</valuemax>
								<value>10</value>
							</parameter>
							<parameter>
								<parameterid>opacity</parameterid>
								<name>opacity</name>
								<valuemin>0</valuemin>
								<valuemax>100</valuemax>
								<value>50</value>
							</parameter>
						</effect>
					</filter>
					<filter>
						<enabled>FALSE</enabled>
						<effect>
							<name>Motion Blur</name>
							<effectid>motionblur</effectid>
							<effectcategory>motion</effectcategory>
							<effecttype>motion</effecttype>
							<mediatype>video</mediatype>
							<parameter>
								<parameterid>duration</parameterid>
								<name>% Blur</name>
								<valuemin>0</valuemin>
								<valuemax>1000</valuemax>
								<value>500</value>
							</parameter>
							<parameter>
								<parameterid>samples</parameterid>
								<name>Samples</name>
								<valuemin>1</valuemin>
								<valuemax>16</valuemax>
								<value>4</value>
							</parameter>
						</effect>
					</filter>
					<filter>
						<effect>
							<name>Crop</name>
							<effectid>crop</effectid>
							<effectcategory>motion</effectcategory>
							<effecttype>motion</effecttype>
							<mediatype>video</mediatype>
							<parameter>
								<parameterid>left</parameterid>
								<name>left</name>
								<valuemin>0</valuemin>
								<valuemax>100</valuemax>
								<value>0</value>
							</parameter>
							<parameter>
								<parameterid>right</parameterid>
								<name>right</name>
								<valuemin>0</valuemin>
								<valuemax>100</valuemax>
								<value>0</value>
							</parameter>
							<parameter>
								<parameterid>top</parameterid>
								<name>top</name>
								<valuemin>0</valuemin>
								<valuemax>100</valuemax>
								<value>0</value>
							</parameter>
							<parameter>
								<parameterid>bottom</parameterid>
								<name>bottom</name>
								<valuemin>0</valuemin>
								<valuemax>100</valuemax>
								<value>0</value>
							</parameter>
							<parameter>
								<parameterid>edgefeather</parameterid>
								<name>edgefeather</name>
								<valuemin>0</valuemin>
								<valuemax>100</valuemax>
								<value>0</value>
							</parameter>
						</effect>
					</filter>
					<filter>
						<effect>
							<name>Distort</name>
							<effectid>deformation</effectid>
							<effectcategory>motion</effectcategory>
							<effecttype>motion</effecttype>
							<mediatype>video</mediatype>
							<parameter>
								<parameterid>ulcorner</parameterid>
								<name>Upper Left</name>
								<value>
									<horiz>-0.5</horiz>
									<vert>-0.5</vert>
								</value>
							</parameter>
							<parameter>
								<parameterid>urcorner</parameterid>
								<name>Upper Right</name>
								<value>
									<horiz>0.5</horiz>
									<vert>-0.5</vert>
								</value>
							</parameter>
							<parameter>
								<parameterid>lrcorner</parameterid>
								<name>Lower Right</name>
								<value>
									<horiz>0.5</horiz>
									<vert>0.5</vert>
								</value>
							</parameter>
							<parameter>
								<parameterid>llcorner</parameterid>
								<name>Lower Left</name>
								<value>
									<horiz>-0.5</horiz>
									<vert>0.5</vert>
								</value>
							</parameter>
							<parameter>
								<parameterid>aspect</parameterid>
								<name>Aspect</name>
								<valuemin>-10000</valuemin>
								<valuemax>10000</valuemax>
								<value>0</value>
							</parameter>
						</effect>
					</filter>
					<filter>
						<effect>
							<name>Opacity</name>
							<effectid>opacity</effectid>
							<effectcategory>motion</effectcategory>
							<effecttype>motion</effecttype>
							<mediatype>video</mediatype>
							<parameter>
								<parameterid>opacity</parameterid>
								<name>opacity</name>
								<valuemin>0</valuemin>
								<valuemax>100</valuemax>
								<value>100</value>
							</parameter>
						</effect>
					</filter>
					<sourcetrack>
						<mediatype>video</mediatype>
					</sourcetrack>
				</generatoritem>
				<clipitem id="msub200012-3011-k2d1-003 ">
					<name>msub200012-3011-k2d1-003</name>
					<duration>2155</duration>
					<rate>
						<ntsc>FALSE</ntsc>
						<timebase>25</timebase>
					</rate>
					<in>441</in>
					<out>1197</out>
					<start>1312</start>
					<end>2068</end>
					<pixelaspectratio>Square</pixelaspectratio>
					<enabled>TRUE</enabled>
					<anamorphic>FALSE</anamorphic>
					<alphatype>none</alphatype>
					<masterclipid>msub200012-3011-k2d1-003 1</masterclipid>
					<syncoffset>0</syncoffset>
					<logginginfo>
						<description>msub200012-3011-k2d1-003</description>
						<scene/>
						<shottake/>
						<lognote/>
						<good>FALSE</good>
					</logginginfo>
					<labels>
						<label>Good Take</label>
						<label2/>
					</labels>
					<comments>
						<mastercomment1>RÃ…STOFF. BR_FINFREDAG_MSUA_OPRO</mastercomment1>
						<mastercomment2/>
						<mastercomment3/>
						<mastercomment4/>
						<clipcommenta/>
					</comments>
					<file id="msub200012-3011-k2d1-003 2">
						<name>msub200012-3011-k2d1-003.mxf</name>
						<pathurl>file://localhost/omfs/clip.dir/MXF/1080i/msub200012-3011-k2d1-003.mxf</pathurl>
						<rate>
							<timebase>25</timebase>
						</rate>
						<duration>2148</duration>
						<timecode>
							<rate>
								<timebase>25</timebase>
							</rate>
							<string>01:01:56:17</string>
							<frame>92917</frame>
							<displayformat>NDF</displayformat>
							<source>source</source>
						</timecode>
						<media>
							<video>
								<duration>2148</duration>
								<samplecharacteristics>
									<width>1920</width>
									<height>1080</height>
								</samplecharacteristics>
							</video>
							<audio>
								<rate>
									<timebase>48000</timebase>
								</rate>
								<trackcount>1</trackcount>
								<samplecharacteristics>
									<depth>24</depth>
								</samplecharacteristics>
							</audio>
						</media>
					</file>
					<sourcetrack>
						<mediatype>video</mediatype>
					</sourcetrack>
					<fielddominance>upper</fielddominance>
				</clipitem>
				<clipitem id="msub200012-3011-k1d1-009 ">
					<name>msub200012-3011-k1d1-009</name>
					<duration>2155</duration>
					<rate>
						<ntsc>FALSE</ntsc>
						<timebase>25</timebase>
					</rate>
					<in>1197</in>
					<out>1341</out>
					<start>2068</start>
					<end>2212</end>
					<pixelaspectratio>Square</pixelaspectratio>
					<enabled>TRUE</enabled>
					<anamorphic>FALSE</anamorphic>
					<alphatype>none</alphatype>
					<masterclipid>msub200012-3011-k1d1-009 1</masterclipid>
					<syncoffset>0</syncoffset>
					<logginginfo>
						<description>msub200012-3011-k1d1-009</description>
						<scene/>
						<shottake/>
						<lognote/>
						<good>FALSE</good>
					</logginginfo>
					<labels>
						<label>Good Take</label>
						<label2/>
					</labels>
					<comments>
						<mastercomment1>RÃ…STOFF. BR_FINFREDAG_MSUA_OPRO</mastercomment1>
						<mastercomment2/>
						<mastercomment3/>
						<mastercomment4/>
						<clipcommenta/>
					</comments>
					<file id="msub200012-3011-k1d1-009 2">
						<name>msub200012-3011-k1d1-009.mxf</name>
						<pathurl>file://localhost/omfs/clip.dir/MXF/1080i/msub200012-3011-k1d1-009.mxf</pathurl>
						<rate>
							<timebase>25</timebase>
						</rate>
						<duration>2121</duration>
						<timecode>
							<rate>
								<timebase>25</timebase>
							</rate>
							<string>01:05:01:13</string>
							<frame>97538</frame>
							<displayformat>NDF</displayformat>
							<source>source</source>
						</timecode>
						<media>
							<video>
								<duration>2121</duration>
								<samplecharacteristics>
									<width>1920</width>
									<height>1080</height>
								</samplecharacteristics>
							</video>
							<audio>
								<rate>
									<timebase>48000</timebase>
								</rate>
								<trackcount>1</trackcount>
								<samplecharacteristics>
									<depth>24</depth>
								</samplecharacteristics>
							</audio>
						</media>
					</file>
					<sourcetrack>
						<mediatype>video</mediatype>
					</sourcetrack>
					<fielddominance>upper</fielddominance>
				</clipitem>
				<clipitem id="msub200012-3011-k2d1-003 3">
					<name>msub200012-3011-k2d1-003</name>
					<duration>2155</duration>
					<rate>
						<ntsc>FALSE</ntsc>
						<timebase>25</timebase>
					</rate>
					<in>1341</in>
					<out>1429</out>
					<start>2212</start>
					<end>2300</end>
					<pixelaspectratio>Square</pixelaspectratio>
					<enabled>TRUE</enabled>
					<anamorphic>FALSE</anamorphic>
					<alphatype>none</alphatype>
					<masterclipid>msub200012-3011-k2d1-003 1</masterclipid>
					<syncoffset>0</syncoffset>
					<logginginfo>
						<description>msub200012-3011-k2d1-003</description>
						<scene/>
						<shottake/>
						<lognote/>
						<good>FALSE</good>
					</logginginfo>
					<labels>
						<label>Good Take</label>
						<label2/>
					</labels>
					<comments>
						<mastercomment1>RÃ…STOFF. BR_FINFREDAG_MSUA_OPRO</mastercomment1>
						<mastercomment2/>
						<mastercomment3/>
						<mastercomment4/>
						<clipcommenta/>
					</comments>
					<file id="msub200012-3011-k2d1-003 2"/>
					<sourcetrack>
						<mediatype>video</mediatype>
					</sourcetrack>
					<fielddominance>upper</fielddominance>
				</clipitem>
				<clipitem id="msub200012-3011-k1d1-009 3">
					<name>msub200012-3011-k1d1-009</name>
					<duration>2155</duration>
					<rate>
						<ntsc>FALSE</ntsc>
						<timebase>25</timebase>
					</rate>
					<in>1429</in>
					<out>1493</out>
					<start>2300</start>
					<end>2364</end>
					<pixelaspectratio>Square</pixelaspectratio>
					<enabled>TRUE</enabled>
					<anamorphic>FALSE</anamorphic>
					<alphatype>none</alphatype>
					<masterclipid>msub200012-3011-k1d1-009 1</masterclipid>
					<syncoffset>0</syncoffset>
					<logginginfo>
						<description>msub200012-3011-k1d1-009</description>
						<scene/>
						<shottake/>
						<lognote/>
						<good>FALSE</good>
					</logginginfo>
					<labels>
						<label>Good Take</label>
						<label2/>
					</labels>
					<comments>
						<mastercomment1>RÃ…STOFF. BR_FINFREDAG_MSUA_OPRO</mastercomment1>
						<mastercomment2/>
						<mastercomment3/>
						<mastercomment4/>
						<clipcommenta/>
					</comments>
					<file id="msub200012-3011-k1d1-009 2"/>
					<sourcetrack>
						<mediatype>video</mediatype>
					</sourcetrack>
					<fielddominance>upper</fielddominance>
				</clipitem>
				<clipitem id="TACO 1 START ">
					<name>TACO 1 START </name>
					<duration>618</duration>
					<rate>
						<ntsc>FALSE</ntsc>
						<timebase>25</timebase>
					</rate>
					<in>0</in>
					<out>605</out>
					<start>2527</start>
					<end>-1</end>
					<labels>
						<label>Best Take</label>
					</labels>
					<sequence id="TACO 1 START 1">
						<name>TACO 1 START </name>
						<duration>618</duration>
						<rate>
							<ntsc>FALSE</ntsc>
							<timebase>25</timebase>
						</rate>
						<timecode>
							<rate>
								<ntsc>FALSE</ntsc>
								<timebase>25</timebase>
							</rate>
							<string>00:00:00:00</string>
							<frame>0</frame>
							<source>source</source>
							<displayformat>NDF</displayformat>
						</timecode>
						<in>-1</in>
						<out>-1</out>
						<media>
							<video>
								<format>
									<samplecharacteristics>
										<width>1920</width>
										<height>1080</height>
										<anamorphic>FALSE</anamorphic>
										<pixelaspectratio>Square</pixelaspectratio>
										<fielddominance>upper</fielddominance>
										<rate>
											<ntsc>FALSE</ntsc>
											<timebase>25</timebase>
										</rate>
										<colordepth>24</colordepth>
										<codec>
											<name>Apple XDCAM 422 1080i50 (50 Mb/s CBR)</name>
											<appspecificdata>
												<appname>Final Cut Pro</appname>
												<appmanufacturer>Apple Inc.</appmanufacturer>
												<appversion>7.0</appversion>
												<data>
													<qtcodec>
														<codecname>Apple XDCAM 422 1080i50 (50 Mb/s CBR)</codecname>
														<codectypename>XDCAM 422 1080i50 (50 Mb/s CBR)</codectypename>
														<codectypecode>xd5c</codectypecode>
														<codecvendorcode>appl</codecvendorcode>
														<spatialquality>1023</spatialquality>
														<temporalquality>0</temporalquality>
														<keyframerate>0</keyframerate>
														<datarate>0</datarate>
													</qtcodec>
												</data>
											</appspecificdata>
										</codec>
									</samplecharacteristics>
									<appspecificdata>
										<appname>Final Cut Pro</appname>
										<appmanufacturer>Apple Inc.</appmanufacturer>
										<appversion>7.0</appversion>
										<data>
											<fcpimageprocessing>
												<useyuv>TRUE</useyuv>
												<usesuperwhite>FALSE</usesuperwhite>
												<rendermode>YUV8BPP</rendermode>
											</fcpimageprocessing>
										</data>
									</appspecificdata>
								</format>
								<track>
									<clipitem id="msub200012-2211003 ">
										<name>msub200012-2211003</name>
										<duration>312</duration>
										<rate>
											<ntsc>FALSE</ntsc>
											<timebase>25</timebase>
										</rate>
										<in>70</in>
										<out>134</out>
										<start>0</start>
										<end>64</end>
										<pixelaspectratio>Square</pixelaspectratio>
										<enabled>TRUE</enabled>
										<anamorphic>FALSE</anamorphic>
										<alphatype>none</alphatype>
										<alphareverse>FALSE</alphareverse>
										<masterclipid>msub200012-2211003 1</masterclipid>
										<logginginfo>
											<description>msub200012-2211003</description>
											<scene/>
											<shottake/>
											<lognote/>
											<good>FALSE</good>
										</logginginfo>
										<labels>
											<label2/>
										</labels>
										<comments>
											<mastercomment1>BARN OG UNGDOM. BR_FINFREDAG_MSUA_OPRO</mastercomment1>
											<mastercomment2/>
											<mastercomment3/>
											<mastercomment4/>
											<clipcommenta/>
										</comments>
										<file id="msub200012-2211003 2">
											<name>msub200012-2211003.MXF</name>
											<pathurl>file://localhost/omfs/clip.dir/MXF/1080i/msub200012-2211003.MXF</pathurl>
											<rate>
												<timebase>25</timebase>
											</rate>
											<duration>312</duration>
											<timecode>
												<rate>
													<timebase>25</timebase>
												</rate>
												<string>01:00:15:21</string>
												<frame>90396</frame>
												<displayformat>NDF</displayformat>
												<source>source</source>
											</timecode>
											<media>
												<video>
													<duration>312</duration>
													<samplecharacteristics>
														<width>1920</width>
														<height>1080</height>
													</samplecharacteristics>
												</video>
												<audio>
													<rate>
														<timebase>48000</timebase>
													</rate>
													<trackcount>1</trackcount>
													<samplecharacteristics>
														<depth>24</depth>
													</samplecharacteristics>
												</audio>
											</media>
										</file>
										<sourcetrack>
											<mediatype>video</mediatype>
										</sourcetrack>
										<link>
											<linkclipref>msub200012-2211003 </linkclipref>
											<mediatype>video</mediatype>
											<trackindex>1</trackindex>
											<clipindex>1</clipindex>
										</link>
										<link>
											<linkclipref>msub200012-2211003 3</linkclipref>
											<mediatype>audio</mediatype>
											<trackindex>2</trackindex>
											<clipindex>1</clipindex>
										</link>
										<fielddominance>upper</fielddominance>
									</clipitem>
									<clipitem id="msub200012-2211070 ">
										<name>msub200012-2211070</name>
										<duration>1512</duration>
										<rate>
											<ntsc>FALSE</ntsc>
											<timebase>25</timebase>
										</rate>
										<in>85</in>
										<out>139</out>
										<start>64</start>
										<end>118</end>
										<pixelaspectratio>Square</pixelaspectratio>
										<enabled>TRUE</enabled>
										<anamorphic>FALSE</anamorphic>
										<alphatype>none</alphatype>
										<alphareverse>FALSE</alphareverse>
										<masterclipid>msub200012-2211070 1</masterclipid>
										<logginginfo>
											<description>msub200012-2211070</description>
											<scene/>
											<shottake/>
											<lognote/>
											<good>FALSE</good>
										</logginginfo>
										<labels>
											<label2/>
										</labels>
										<comments>
											<mastercomment1>BARN OG UNGDOM. BR_FINFREDAG_MSUA_OPRO</mastercomment1>
											<mastercomment2/>
											<mastercomment3/>
											<mastercomment4/>
											<clipcommenta/>
										</comments>
										<file id="msub200012-2211070 2">
											<name>msub200012-2211070.MXF</name>
											<pathurl>file://localhost/omfs/clip.dir/MXF/1080i/msub200012-2211070.MXF</pathurl>
											<rate>
												<timebase>25</timebase>
											</rate>
											<duration>1512</duration>
											<timecode>
												<rate>
													<timebase>25</timebase>
												</rate>
												<string>01:37:13:11</string>
												<frame>145836</frame>
												<displayformat>NDF</displayformat>
												<source>source</source>
											</timecode>
											<media>
												<video>
													<duration>1512</duration>
													<samplecharacteristics>
														<width>1920</width>
														<height>1080</height>
													</samplecharacteristics>
												</video>
												<audio>
													<rate>
														<timebase>48000</timebase>
													</rate>
													<trackcount>1</trackcount>
													<samplecharacteristics>
														<depth>24</depth>
													</samplecharacteristics>
												</audio>
											</media>
										</file>
										<sourcetrack>
											<mediatype>video</mediatype>
										</sourcetrack>
										<link>
											<linkclipref>msub200012-2211070 </linkclipref>
											<mediatype>video</mediatype>
											<trackindex>1</trackindex>
											<clipindex>2</clipindex>
										</link>
										<fielddominance>upper</fielddominance>
									</clipitem>
									<clipitem id="msub200012-2211072 ">
										<name>msub200012-2211072</name>
										<duration>4008</duration>
										<rate>
											<ntsc>FALSE</ntsc>
											<timebase>25</timebase>
										</rate>
										<in>748</in>
										<out>837</out>
										<start>118</start>
										<end>207</end>
										<pixelaspectratio>Square</pixelaspectratio>
										<enabled>TRUE</enabled>
										<anamorphic>FALSE</anamorphic>
										<alphatype>none</alphatype>
										<alphareverse>FALSE</alphareverse>
										<masterclipid>msub200012-2211072 1</masterclipid>
										<logginginfo>
											<description>msub200012-2211072</description>
											<scene/>
											<shottake/>
											<lognote/>
											<good>FALSE</good>
										</logginginfo>
										<labels>
											<label2/>
										</labels>
										<comments>
											<mastercomment1>BARN OG UNGDOM. BR_FINFREDAG_MSUA_OPRO</mastercomment1>
											<mastercomment2/>
											<mastercomment3/>
											<mastercomment4/>
											<clipcommenta/>
										</comments>
										<file id="msub200012-2211072 2">
											<name>msub200012-2211072.MXF</name>
											<pathurl>file://localhost/omfs/clip.dir/MXF/1080i/msub200012-2211072.MXF</pathurl>
											<rate>
												<timebase>25</timebase>
											</rate>
											<duration>4008</duration>
											<timecode>
												<rate>
													<timebase>25</timebase>
												</rate>
												<string>01:39:22:02</string>
												<frame>149052</frame>
												<displayformat>NDF</displayformat>
												<source>source</source>
											</timecode>
											<media>
												<video>
													<duration>4008</duration>
													<samplecharacteristics>
														<width>1920</width>
														<height>1080</height>
													</samplecharacteristics>
												</video>
												<audio>
													<rate>
														<timebase>48000</timebase>
													</rate>
													<trackcount>1</trackcount>
													<samplecharacteristics>
														<depth>24</depth>
													</samplecharacteristics>
												</audio>
											</media>
										</file>
										<sourcetrack>
											<mediatype>video</mediatype>
										</sourcetrack>
										<fielddominance>upper</fielddominance>
									</clipitem>
									<clipitem id="msub200012-2211072 3">
										<name>msub200012-2211072</name>
										<duration>4008</duration>
										<rate>
											<ntsc>FALSE</ntsc>
											<timebase>25</timebase>
										</rate>
										<in>587</in>
										<out>717</out>
										<start>207</start>
										<end>337</end>
										<pixelaspectratio>Square</pixelaspectratio>
										<enabled>TRUE</enabled>
										<anamorphic>FALSE</anamorphic>
										<alphatype>none</alphatype>
										<alphareverse>FALSE</alphareverse>
										<masterclipid>msub200012-2211072 1</masterclipid>
										<logginginfo>
											<description>msub200012-2211072</description>
											<scene/>
											<shottake/>
											<lognote/>
											<good>FALSE</good>
										</logginginfo>
										<labels>
											<label2/>
										</labels>
										<comments>
											<mastercomment1>BARN OG UNGDOM. BR_FINFREDAG_MSUA_OPRO</mastercomment1>
											<mastercomment2/>
											<mastercomment3/>
											<mastercomment4/>
											<clipcommenta/>
										</comments>
										<file id="msub200012-2211072 2"/>
										<sourcetrack>
											<mediatype>video</mediatype>
										</sourcetrack>
										<fielddominance>upper</fielddominance>
									</clipitem>
									<clipitem id="msub200012-2211071 ">
										<name>msub200012-2211071</name>
										<duration>1704</duration>
										<rate>
											<ntsc>FALSE</ntsc>
											<timebase>25</timebase>
										</rate>
										<in>958</in>
										<out>1059</out>
										<start>337</start>
										<end>438</end>
										<pixelaspectratio>Square</pixelaspectratio>
										<enabled>TRUE</enabled>
										<anamorphic>FALSE</anamorphic>
										<alphatype>none</alphatype>
										<alphareverse>FALSE</alphareverse>
										<masterclipid>msub200012-2211071 1</masterclipid>
										<logginginfo>
											<description>msub200012-2211071</description>
											<scene/>
											<shottake/>
											<lognote/>
											<good>FALSE</good>
										</logginginfo>
										<labels>
											<label2/>
										</labels>
										<comments>
											<mastercomment1>BARN OG UNGDOM. BR_FINFREDAG_MSUA_OPRO</mastercomment1>
											<mastercomment2/>
											<mastercomment3/>
											<mastercomment4/>
											<clipcommenta/>
										</comments>
										<file id="msub200012-2211071 2">
											<name>msub200012-2211071.MXF</name>
											<pathurl>file://localhost/omfs/clip.dir/MXF/1080i/msub200012-2211071.MXF</pathurl>
											<rate>
												<timebase>25</timebase>
											</rate>
											<duration>1704</duration>
											<timecode>
												<rate>
													<timebase>25</timebase>
												</rate>
												<string>01:38:13:23</string>
												<frame>147348</frame>
												<displayformat>NDF</displayformat>
												<source>source</source>
											</timecode>
											<media>
												<video>
													<duration>1704</duration>
													<samplecharacteristics>
														<width>1920</width>
														<height>1080</height>
													</samplecharacteristics>
												</video>
												<audio>
													<rate>
														<timebase>48000</timebase>
													</rate>
													<trackcount>1</trackcount>
													<samplecharacteristics>
														<depth>24</depth>
													</samplecharacteristics>
												</audio>
											</media>
										</file>
										<sourcetrack>
											<mediatype>video</mediatype>
										</sourcetrack>
										<link>
											<linkclipref>msub200012-2211071 </linkclipref>
											<mediatype>video</mediatype>
											<trackindex>1</trackindex>
											<clipindex>5</clipindex>
										</link>
										<link>
											<linkclipref>msub200012-2211071 3</linkclipref>
											<mediatype>audio</mediatype>
											<trackindex>1</trackindex>
											<clipindex>4</clipindex>
										</link>
										<fielddominance>upper</fielddominance>
									</clipitem>
									<clipitem id="msub200012-2211046 ">
										<name>msub200012-2211046</name>
										<duration>528</duration>
										<rate>
											<ntsc>FALSE</ntsc>
											<timebase>25</timebase>
										</rate>
										<in>145</in>
										<out>285</out>
										<start>438</start>
										<end>578</end>
										<pixelaspectratio>Square</pixelaspectratio>
										<enabled>TRUE</enabled>
										<anamorphic>FALSE</anamorphic>
										<alphatype>none</alphatype>
										<alphareverse>FALSE</alphareverse>
										<masterclipid>msub200012-2211046 1</masterclipid>
										<logginginfo>
											<description>msub200012-2211046</description>
											<scene/>
											<shottake/>
											<lognote/>
											<good>FALSE</good>
										</logginginfo>
										<labels>
											<label2/>
										</labels>
										<comments>
											<mastercomment1>BARN OG UNGDOM. BR_FINFREDAG_MSUA_OPRO</mastercomment1>
											<mastercomment2/>
											<mastercomment3/>
											<mastercomment4/>
											<clipcommenta/>
										</comments>
										<file id="msub200012-2211046 2">
											<name>msub200012-2211046.MXF</name>
											<pathurl>file://localhost/omfs/clip.dir/MXF/1080i/msub200012-2211046.MXF</pathurl>
											<rate>
												<timebase>25</timebase>
											</rate>
											<duration>528</duration>
											<timecode>
												<rate>
													<timebase>25</timebase>
												</rate>
												<string>01:24:04:08</string>
												<frame>126108</frame>
												<displayformat>NDF</displayformat>
												<source>source</source>
											</timecode>
											<media>
												<video>
													<duration>528</duration>
													<samplecharacteristics>
														<width>1920</width>
														<height>1080</height>
													</samplecharacteristics>
												</video>
												<audio>
													<rate>
														<timebase>48000</timebase>
													</rate>
													<trackcount>1</trackcount>
													<samplecharacteristics>
														<depth>24</depth>
													</samplecharacteristics>
												</audio>
											</media>
										</file>
										<sourcetrack>
											<mediatype>video</mediatype>
										</sourcetrack>
										<fielddominance>upper</fielddominance>
									</clipitem>
									<clipitem id="msub200012-2211046 3">
										<name>msub200012-2211046</name>
										<duration>528</duration>
										<rate>
											<ntsc>FALSE</ntsc>
											<timebase>25</timebase>
										</rate>
										<in>412</in>
										<out>452</out>
										<start>578</start>
										<end>618</end>
										<pixelaspectratio>Square</pixelaspectratio>
										<enabled>TRUE</enabled>
										<anamorphic>FALSE</anamorphic>
										<alphatype>none</alphatype>
										<alphareverse>FALSE</alphareverse>
										<masterclipid>msub200012-2211046 1</masterclipid>
										<logginginfo>
											<description>msub200012-2211046</description>
											<scene/>
											<shottake/>
											<lognote/>
											<good>FALSE</good>
										</logginginfo>
										<labels>
											<label2/>
										</labels>
										<comments>
											<mastercomment1>BARN OG UNGDOM. BR_FINFREDAG_MSUA_OPRO</mastercomment1>
											<mastercomment2/>
											<mastercomment3/>
											<mastercomment4/>
											<clipcommenta/>
										</comments>
										<file id="msub200012-2211046 2"/>
										<sourcetrack>
											<mediatype>video</mediatype>
										</sourcetrack>
										<fielddominance>upper</fielddominance>
									</clipitem>
									<enabled>TRUE</enabled>
									<locked>FALSE</locked>
								</track>
								<track>
									<enabled>TRUE</enabled>
									<locked>FALSE</locked>
								</track>
							</video>
							<audio>
								<format>
									<samplecharacteristics>
										<depth>24</depth>
										<samplerate>48000</samplerate>
									</samplecharacteristics>
								</format>
								<outputs>
									<group>
										<index>1</index>
										<numchannels>2</numchannels>
										<downmix>0</downmix>
										<channel>
											<index>1</index>
										</channel>
										<channel>
											<index>2</index>
										</channel>
									</group>
								</outputs>
								<in>-1</in>
								<out>-1</out>
								<track>
									<transitionitem id="65844276 ">
										<rate>
											<ntsc>FALSE</ntsc>
											<timebase>25</timebase>
										</rate>
										<start>110</start>
										<end>116</end>
										<alignment>center</alignment>
										<effect>
											<name>Cross Fade (+3dB)</name>
											<effecttype>transition</effecttype>
											<mediatype>audio</mediatype>
										</effect>
									</transitionitem>
									<clipitem id="msub200012-2211035 ">
										<name>msub200012-2211035</name>
										<duration>852</duration>
										<rate>
											<ntsc>FALSE</ntsc>
											<timebase>25</timebase>
										</rate>
										<in>331</in>
										<out>556</out>
										<start>-1</start>
										<end>-1</end>
										<subframeoffset>0</subframeoffset>
										<anamorphic>FALSE</anamorphic>
										<alphareverse>FALSE</alphareverse>
										<masterclipid>msub200012-2211035 1</masterclipid>
										<logginginfo>
											<description>msub200012-2211035</description>
											<scene/>
											<shottake/>
											<lognote/>
											<good>FALSE</good>
										</logginginfo>
										<labels>
											<label2/>
										</labels>
										<comments>
											<mastercomment1>BARN OG UNGDOM. BR_FINFREDAG_MSUA_OPRO</mastercomment1>
											<mastercomment2/>
											<mastercomment3/>
											<mastercomment4/>
											<clipcommenta/>
										</comments>
										<file id="msub200012-2211035 2">
											<name>msub200012-2211035.MXF</name>
											<pathurl>file://localhost/omfs/clip.dir/MXF/1080i/msub200012-2211035.MXF</pathurl>
											<rate>
												<timebase>25</timebase>
											</rate>
											<duration>852</duration>
											<timecode>
												<rate>
													<timebase>25</timebase>
												</rate>
												<string>01:17:50:22</string>
												<frame>116772</frame>
												<displayformat>NDF</displayformat>
												<source>source</source>
											</timecode>
											<media>
												<video>
													<duration>852</duration>
													<samplecharacteristics>
														<width>1920</width>
														<height>1080</height>
													</samplecharacteristics>
												</video>
												<audio>
													<rate>
														<timebase>48000</timebase>
													</rate>
													<trackcount>1</trackcount>
													<samplecharacteristics>
														<depth>24</depth>
													</samplecharacteristics>
												</audio>
											</media>
										</file>
										<filter>
											<effect>
												<name>Audio Levels</name>
												<effectid>audiolevels</effectid>
												<effectcategory>audiolevels</effectcategory>
												<effecttype>audiolevels</effecttype>
												<mediatype>audio</mediatype>
												<parameter>
													<name>Level</name>
													<parameterid>level</parameterid>
													<valuemin>0</valuemin>
													<valuemax>3.98109</valuemax>
													<value>1</value>
												</parameter>
											</effect>
										</filter>
										<filter>
											<effect>
												<name>Audio Pan</name>
												<effectid>audiopan</effectid>
												<effectcategory>audiopan</effectcategory>
												<effecttype>audiopan</effecttype>
												<mediatype>audio</mediatype>
												<parameter>
													<name>Pan</name>
													<parameterid>pan</parameterid>
													<valuemin>-1</valuemin>
													<valuemax>1</valuemax>
													<value>0</value>
												</parameter>
											</effect>
										</filter>
										<sourcetrack>
											<mediatype>audio</mediatype>
											<trackindex>1</trackindex>
										</sourcetrack>
									</clipitem>
									<transitionitem id="65845092 ">
										<rate>
											<ntsc>FALSE</ntsc>
											<timebase>25</timebase>
										</rate>
										<start>329</start>
										<end>335</end>
										<alignment>center</alignment>
										<effect>
											<name>Cross Fade (+3dB)</name>
											<effecttype>transition</effecttype>
											<mediatype>audio</mediatype>
										</effect>
									</transitionitem>
									<clipitem id="msub200012-2211071 3">
										<name>msub200012-2211071</name>
										<duration>1704</duration>
										<rate>
											<ntsc>FALSE</ntsc>
											<timebase>25</timebase>
										</rate>
										<in>950</in>
										<out>1207</out>
										<start>-1</start>
										<end>-1</end>
										<subframeoffset>0</subframeoffset>
										<anamorphic>FALSE</anamorphic>
										<alphareverse>FALSE</alphareverse>
										<masterclipid>msub200012-2211071 1</masterclipid>
										<logginginfo>
											<description>msub200012-2211071</description>
											<scene/>
											<shottake/>
											<lognote/>
											<good>FALSE</good>
										</logginginfo>
										<labels>
											<label2/>
										</labels>
										<comments>
											<mastercomment1>BARN OG UNGDOM. BR_FINFREDAG_MSUA_OPRO</mastercomment1>
											<mastercomment2/>
											<mastercomment3/>
											<mastercomment4/>
											<clipcommenta/>
										</comments>
										<file id="msub200012-2211071 2"/>
										<filter>
											<effect>
												<name>Audio Levels</name>
												<effectid>audiolevels</effectid>
												<effectcategory>audiolevels</effectcategory>
												<effecttype>audiolevels</effecttype>
												<mediatype>audio</mediatype>
												<parameter>
													<name>Level</name>
													<parameterid>level</parameterid>
													<valuemin>0</valuemin>
													<valuemax>3.98109</valuemax>
													<keyframe>
														<when>1051.77</when>
														<value>0.891251</value>
													</keyframe>
													<keyframe>
														<when>1091.7</when>
														<value>0.199526</value>
													</keyframe>
													<interpolation>
														<name>FCPCurve</name>
													</interpolation>
													<value>0.891251</value>
												</parameter>
											</effect>
										</filter>
										<filter>
											<effect>
												<name>Audio Pan</name>
												<effectid>audiopan</effectid>
												<effectcategory>audiopan</effectcategory>
												<effecttype>audiopan</effecttype>
												<mediatype>audio</mediatype>
												<parameter>
													<name>Pan</name>
													<parameterid>pan</parameterid>
													<valuemin>-1</valuemin>
													<valuemax>1</valuemax>
													<value>0</value>
												</parameter>
											</effect>
										</filter>
										<sourcetrack>
											<mediatype>audio</mediatype>
											<trackindex>1</trackindex>
										</sourcetrack>
										<link>
											<linkclipref>msub200012-2211071 </linkclipref>
											<mediatype>video</mediatype>
											<trackindex>1</trackindex>
											<clipindex>5</clipindex>
										</link>
										<link>
											<linkclipref>msub200012-2211071 3</linkclipref>
											<mediatype>audio</mediatype>
											<trackindex>1</trackindex>
											<clipindex>4</clipindex>
										</link>
									</clipitem>
									<transitionitem id="65846044 ">
										<rate>
											<ntsc>FALSE</ntsc>
											<timebase>25</timebase>
										</rate>
										<start>561</start>
										<end>586</end>
										<alignment>end-black</alignment>
										<effect>
											<name>Cross Fade (+3dB)</name>
											<effecttype>transition</effecttype>
											<mediatype>audio</mediatype>
										</effect>
									</transitionitem>
									<enabled>TRUE</enabled>
									<locked>FALSE</locked>
									<outputchannelindex>1</outputchannelindex>
								</track>
								<track>
									<clipitem id="msub200012-2211003 3">
										<name>msub200012-2211003</name>
										<duration>312</duration>
										<rate>
											<ntsc>FALSE</ntsc>
											<timebase>25</timebase>
										</rate>
										<in>70</in>
										<out>186</out>
										<start>0</start>
										<end>-1</end>
										<subframeoffset>0</subframeoffset>
										<anamorphic>FALSE</anamorphic>
										<alphareverse>FALSE</alphareverse>
										<masterclipid>msub200012-2211003 1</masterclipid>
										<logginginfo>
											<description>msub200012-2211003</description>
											<scene/>
											<shottake/>
											<lognote/>
											<good>FALSE</good>
										</logginginfo>
										<labels>
											<label2/>
										</labels>
										<comments>
											<mastercomment1>BARN OG UNGDOM. BR_FINFREDAG_MSUA_OPRO</mastercomment1>
											<mastercomment2/>
											<mastercomment3/>
											<mastercomment4/>
											<clipcommenta/>
										</comments>
										<file id="msub200012-2211003 2"/>
										<filter>
											<effect>
												<name>Audio Levels</name>
												<effectid>audiolevels</effectid>
												<effectcategory>audiolevels</effectcategory>
												<effecttype>audiolevels</effecttype>
												<mediatype>audio</mediatype>
												<parameter>
													<name>Level</name>
													<parameterid>level</parameterid>
													<valuemin>0</valuemin>
													<valuemax>3.98109</valuemax>
													<keyframe>
														<when>113.768</when>
														<value>1.25893</value>
													</keyframe>
													<keyframe>
														<when>117.991</when>
														<value>0.891251</value>
													</keyframe>
													<interpolation>
														<name>FCPCurve</name>
													</interpolation>
													<value>1</value>
												</parameter>
											</effect>
										</filter>
										<filter>
											<effect>
												<name>Audio Pan</name>
												<effectid>audiopan</effectid>
												<effectcategory>audiopan</effectcategory>
												<effecttype>audiopan</effecttype>
												<mediatype>audio</mediatype>
												<parameter>
													<name>Pan</name>
													<parameterid>pan</parameterid>
													<valuemin>-1</valuemin>
													<valuemax>1</valuemax>
													<value>0</value>
												</parameter>
											</effect>
										</filter>
										<sourcetrack>
											<mediatype>audio</mediatype>
											<trackindex>2</trackindex>
										</sourcetrack>
										<link>
											<linkclipref>msub200012-2211003 </linkclipref>
											<mediatype>video</mediatype>
											<trackindex>1</trackindex>
											<clipindex>1</clipindex>
										</link>
										<link>
											<linkclipref>msub200012-2211003 3</linkclipref>
											<mediatype>audio</mediatype>
											<trackindex>2</trackindex>
											<clipindex>1</clipindex>
										</link>
									</clipitem>
									<transitionitem id="65847064 ">
										<rate>
											<ntsc>FALSE</ntsc>
											<timebase>25</timebase>
										</rate>
										<start>110</start>
										<end>116</end>
										<alignment>end-black</alignment>
										<effect>
											<name>Cross Fade (+3dB)</name>
											<effecttype>transition</effecttype>
											<mediatype>audio</mediatype>
										</effect>
									</transitionitem>
									<enabled>TRUE</enabled>
									<locked>FALSE</locked>
									<outputchannelindex>2</outputchannelindex>
								</track>
								<track>
									<enabled>TRUE</enabled>
									<locked>FALSE</locked>
									<outputchannelindex>1</outputchannelindex>
								</track>
								<track>
									<clipitem id="msub200012-1708k1d2046.mxf">
										<name>msub200012-1708k1d2046.mxf</name>
										<duration>1455</duration>
										<rate>
											<ntsc>FALSE</ntsc>
											<timebase>25</timebase>
										</rate>
										<in>551</in>
										<out>658</out>
										<start>61</start>
										<end>168</end>
										<subframeoffset>0</subframeoffset>
										<enabled>TRUE</enabled>
										<anamorphic>FALSE</anamorphic>
										<alphareverse>FALSE</alphareverse>
										<masterclipid>msub200012-1708k1d2046.mxf1</masterclipid>
										<logginginfo>
											<scene/>
											<shottake/>
											<lognote/>
											<good>FALSE</good>
										</logginginfo>
										<labels>
											<label2/>
										</labels>
										<comments>
											<mastercomment1/>
											<mastercomment2/>
											<mastercomment3/>
											<mastercomment4/>
										</comments>
										<file id="msub200012-1708k1d2046 ">
											<name>msub200012-1708k1d2046.mxf</name>
											<pathurl>file://localhost/Volumes/Prosjekter_SuperSAN1-1/MSUB20000012%20FIN%20FREDAG/FCP-PROSJEKTER,%20sesong%202/Tante%20Taco%20Karl%20Johan/msub200012-1708k1d2046.mxf</pathurl>
											<rate>
												<timebase>25</timebase>
											</rate>
											<duration>1455</duration>
											<timecode>
												<rate>
													<timebase>25</timebase>
												</rate>
												<string>01:56:53:04</string>
												<frame>175329</frame>
												<displayformat>NDF</displayformat>
												<source>source</source>
											</timecode>
											<media>
												<video>
													<duration>1455</duration>
													<samplecharacteristics>
														<width>1920</width>
														<height>1080</height>
													</samplecharacteristics>
												</video>
												<audio>
													<rate>
														<timebase>48000</timebase>
													</rate>
													<trackcount>1</trackcount>
													<samplecharacteristics>
														<depth>24</depth>
													</samplecharacteristics>
												</audio>
											</media>
										</file>
										<filter>
											<enabled>TRUE</enabled>
											<start>-1</start>
											<end>-1</end>
											<effect>
												<name>3 Band Equalizer Copy</name>
												<effecttype>filter</effecttype>
												<mediatype>audio</mediatype>
												<parameter>
													<parameterid>Low Frequency</parameterid>
													<name>Low Frequency</name>
													<valuemin>80</valuemin>
													<valuemax>2000</valuemax>
													<value>100</value>
												</parameter>
												<parameter>
													<parameterid>Low Gain(dB)</parameterid>
													<name>Low Gain(dB)</name>
													<valuemin>-20</valuemin>
													<valuemax>20</valuemax>
													<value>-4</value>
												</parameter>
												<parameter>
													<parameterid>Mid Frequency</parameterid>
													<name>Mid Frequency</name>
													<valuemin>400</valuemin>
													<valuemax>8000</valuemax>
													<value>3250</value>
												</parameter>
												<parameter>
													<parameterid>Mid Gain(dB)</parameterid>
													<name>Mid Gain(dB)</name>
													<valuemin>-20</valuemin>
													<valuemax>20</valuemax>
													<value>3</value>
												</parameter>
												<parameter>
													<parameterid>High Frequency</parameterid>
													<name>High Frequency</name>
													<valuemin>5000</valuemin>
													<valuemax>20000</valuemax>
													<value>10000</value>
												</parameter>
												<parameter>
													<parameterid>High Gain(dB)</parameterid>
													<name>High Gain(dB)</name>
													<valuemin>-20</valuemin>
													<valuemax>20</valuemax>
													<value>0</value>
												</parameter>
											</effect>
										</filter>
										<filter>
											<enabled>TRUE</enabled>
											<start>-1</start>
											<end>-1</end>
											<effect>
												<name>Reverberation</name>
												<effecttype>filter</effecttype>
												<mediatype>audio</mediatype>
												<parameter>
													<parameterid>Effect Mix</parameterid>
													<name>Effect Mix</name>
													<valuemin>0</valuemin>
													<valuemax>100</valuemax>
													<value>16</value>
												</parameter>
												<parameter>
													<parameterid>Effect Level (dB)</parameterid>
													<name>Effect Level (dB)</name>
													<valuemin>-20</valuemin>
													<valuemax>20</valuemax>
													<value>-6</value>
												</parameter>
												<parameter>
													<parameterid>Brightness</parameterid>
													<name>Brightness</name>
													<valuemin>-100</valuemin>
													<valuemax>100</valuemax>
													<value>0</value>
												</parameter>
												<parameter>
													<parameterid>Type</parameterid>
													<name>Type</name>
													<valuemin>1</valuemin>
													<valuemax>16</valuemax>
													<valuelist>
														<valueentry>
															<name>Room (Small)</name>
															<value>1</value>
														</valueentry>
														<valueentry>
															<name>Room (Medium)</name>
															<value>2</value>
														</valueentry>
														<valueentry>
															<name>Room (Large)</name>
															<value>3</value>
														</valueentry>
														<valueentry>
															<name>Ambient Room</name>
															<value>4</value>
														</valueentry>
														<valueentry>
															<name>Hall (Small)</name>
															<value>5</value>
														</valueentry>
														<valueentry>
															<name>Hall (Medium)</name>
															<value>6</value>
														</valueentry>
														<valueentry>
															<name>Hall (Large)</name>
															<value>7</value>
														</valueentry>
														<valueentry>
															<name>Tunnel</name>
															<value>8</value>
														</valueentry>
														<valueentry>
															<name>Thin Plate (Short)</name>
															<value>9</value>
														</valueentry>
														<valueentry>
															<name>Thin Plate (Medium)</name>
															<value>10</value>
														</valueentry>
														<valueentry>
															<name>Thin Plate (Long)</name>
															<value>11</value>
														</valueentry>
														<valueentry>
															<name>Delayed Plate (Short)</name>
															<value>12</value>
														</valueentry>
														<valueentry>
															<name>Delayed Plate (Medium)</name>
															<value>13</value>
														</valueentry>
														<valueentry>
															<name>Delayed Plate (Long)</name>
															<value>14</value>
														</valueentry>
														<valueentry>
															<name>Fat Plate (Medium)</name>
															<value>15</value>
														</valueentry>
														<valueentry>
															<name>Fat Plate (Long)</name>
															<value>16</value>
														</valueentry>
													</valuelist>
													<value>1</value>
												</parameter>
											</effect>
										</filter>
										<filter>
											<effect>
												<name>Audio Levels</name>
												<effectid>audiolevels</effectid>
												<effectcategory>audiolevels</effectcategory>
												<effecttype>audiolevels</effecttype>
												<mediatype>audio</mediatype>
												<parameter>
													<name>Level</name>
													<parameterid>level</parameterid>
													<valuemin>0</valuemin>
													<valuemax>3.98109</valuemax>
													<keyframe>
														<when>599.804</when>
														<value>0.446684</value>
													</keyframe>
													<keyframe>
														<when>623.607</when>
														<value>0.281838</value>
													</keyframe>
													<interpolation>
														<name>FCPCurve</name>
													</interpolation>
													<value>0.281838</value>
												</parameter>
											</effect>
										</filter>
										<filter>
											<effect>
												<name>Audio Pan</name>
												<effectid>audiopan</effectid>
												<effectcategory>audiopan</effectcategory>
												<effecttype>audiopan</effecttype>
												<mediatype>audio</mediatype>
												<parameter>
													<name>Pan</name>
													<parameterid>pan</parameterid>
													<valuemin>-1</valuemin>
													<valuemax>1</valuemax>
													<value>0</value>
												</parameter>
											</effect>
										</filter>
										<sourcetrack>
											<mediatype>audio</mediatype>
											<trackindex>4</trackindex>
										</sourcetrack>
										<link>
											<linkclipref>msub200012-1708k1d2046.mxf</linkclipref>
											<mediatype>audio</mediatype>
											<trackindex>4</trackindex>
											<clipindex>1</clipindex>
										</link>
									</clipitem>
									<enabled>TRUE</enabled>
									<locked>FALSE</locked>
									<outputchannelindex>2</outputchannelindex>
								</track>
								<track>
									<clipitem id="02 MEXICAN SUNSHINE --- lively guaracha featuring     trombone.aif">
										<name>02 MEXICAN SUNSHINE --- lively guaracha featuring     trombone.aif</name>
										<duration>3905</duration>
										<rate>
											<ntsc>FALSE</ntsc>
											<timebase>25</timebase>
										</rate>
										<in>1527</in>
										<out>2133</out>
										<start>0</start>
										<end>-1</end>
										<subframeoffset>0</subframeoffset>
										<enabled>TRUE</enabled>
										<anamorphic>FALSE</anamorphic>
										<alphareverse>FALSE</alphareverse>
										<masterclipid>02 MEXICAN SUNSHINE --- lively guaracha featuring     trombone.aif1</masterclipid>
										<logginginfo>
											<scene/>
											<shottake/>
											<lognote/>
											<good>FALSE</good>
										</logginginfo>
										<labels>
											<label2/>
										</labels>
										<comments>
											<mastercomment1/>
											<mastercomment2/>
											<mastercomment3/>
											<mastercomment4/>
										</comments>
										<file id="02 MEXICAN SUNSHINE --- lively guaracha featuring     trombone">
											<name>02 MEXICAN SUNSHINE --- lively guaracha featuring     trombone.aif</name>
											<pathurl>file://localhost/Volumes/Prosjekter_SuperSAN1-1/MSUB20000012%20FIN%20FREDAG/MUSIKK/Ny%20Tante%20Taco/02%20MEXICAN%20SUNSHINE%20---%20lively%20guaracha%20featuring%20%20%20%20%20trombone.aif</pathurl>
											<rate>
												<timebase>25</timebase>
											</rate>
											<duration>3905</duration>
											<media>
												<audio>
													<rate>
														<timebase>44100</timebase>
													</rate>
													<trackcount>2</trackcount>
													<samplecharacteristics>
														<depth>16</depth>
													</samplecharacteristics>
												</audio>
											</media>
										</file>
										<filter>
											<enabled>TRUE</enabled>
											<start>-1</start>
											<end>-1</end>
											<effect>
												<name>AULowpass</name>
												<effecttype>filter</effecttype>
												<mediatype>audio</mediatype>
												<parameter>
													<parameterid>cutoff frequency</parameterid>
													<name>cutoff frequency</name>
													<valuemin>10</valuemin>
													<valuemax>21829.5</valuemax>
													<value>4566</value>
												</parameter>
												<parameter>
													<parameterid>resonance</parameterid>
													<name>resonance</name>
													<valuemin>-20</valuemin>
													<valuemax>40</valuemax>
													<value>-6</value>
												</parameter>
											</effect>
										</filter>
										<filter>
											<effect>
												<name>Audio Levels</name>
												<effectid>audiolevels</effectid>
												<effectcategory>audiolevels</effectcategory>
												<effecttype>audiolevels</effecttype>
												<mediatype>audio</mediatype>
												<parameter>
													<name>Level</name>
													<parameterid>level</parameterid>
													<valuemin>0</valuemin>
													<valuemax>3.98109</valuemax>
													<keyframe>
														<when>1531.22</when>
														<value>0.141254</value>
													</keyframe>
													<keyframe>
														<when>1537.37</when>
														<value>0.251189</value>
													</keyframe>
													<keyframe>
														<when>2118.25</when>
														<value>0.251189</value>
													</keyframe>
													<keyframe>
														<when>2135.91</when>
														<value>0.0891251</value>
													</keyframe>
													<interpolation>
														<name>FCPCurve</name>
													</interpolation>
													<value>0.251189</value>
												</parameter>
											</effect>
										</filter>
										<filter>
											<effect>
												<name>Audio Pan</name>
												<effectid>audiopan</effectid>
												<effectcategory>audiopan</effectcategory>
												<effecttype>audiopan</effecttype>
												<mediatype>audio</mediatype>
												<parameter>
													<name>Pan</name>
													<parameterid>pan</parameterid>
													<valuemin>-1</valuemin>
													<valuemax>1</valuemax>
													<value>-1</value>
												</parameter>
											</effect>
										</filter>
										<sourcetrack>
											<mediatype>audio</mediatype>
											<trackindex>1</trackindex>
										</sourcetrack>
										<link>
											<linkclipref>02 MEXICAN SUNSHINE --- lively guaracha featuring     trombone.aif</linkclipref>
											<mediatype>audio</mediatype>
											<trackindex>5</trackindex>
											<clipindex>1</clipindex>
											<groupindex>1</groupindex>
										</link>
										<link>
											<linkclipref>02 MEXICAN SUNSHINE --- lively guaracha featuring     trombone.aif2</linkclipref>
											<mediatype>audio</mediatype>
											<trackindex>6</trackindex>
											<clipindex>1</clipindex>
											<groupindex>1</groupindex>
										</link>
									</clipitem>
									<transitionitem id="">
										<rate>
											<ntsc>FALSE</ntsc>
											<timebase>25</timebase>
										</rate>
										<start>581</start>
										<end>606</end>
										<alignment>end-black</alignment>
										<effect>
											<name>Cross Fade (+3dB) Copy</name>
											<effecttype>transition</effecttype>
											<mediatype>audio</mediatype>
										</effect>
									</transitionitem>
									<enabled>TRUE</enabled>
									<locked>FALSE</locked>
									<outputchannelindex>1</outputchannelindex>
								</track>
								<track>
									<clipitem id="02 MEXICAN SUNSHINE --- lively guaracha featuring     trombone.aif2">
										<name>02 MEXICAN SUNSHINE --- lively guaracha featuring     trombone.aif</name>
										<duration>3905</duration>
										<rate>
											<ntsc>FALSE</ntsc>
											<timebase>25</timebase>
										</rate>
										<in>1527</in>
										<out>2133</out>
										<start>0</start>
										<end>-1</end>
										<subframeoffset>0</subframeoffset>
										<enabled>TRUE</enabled>
										<anamorphic>FALSE</anamorphic>
										<alphareverse>FALSE</alphareverse>
										<masterclipid>02 MEXICAN SUNSHINE --- lively guaracha featuring     trombone.aif1</masterclipid>
										<logginginfo>
											<scene/>
											<shottake/>
											<lognote/>
											<good>FALSE</good>
										</logginginfo>
										<labels>
											<label2/>
										</labels>
										<comments>
											<mastercomment1/>
											<mastercomment2/>
											<mastercomment3/>
											<mastercomment4/>
										</comments>
										<file id="02 MEXICAN SUNSHINE --- lively guaracha featuring     trombone"/>
										<filter>
											<enabled>TRUE</enabled>
											<start>-1</start>
											<end>-1</end>
											<effect>
												<name>AULowpass</name>
												<effecttype>filter</effecttype>
												<mediatype>audio</mediatype>
												<parameter>
													<parameterid>cutoff frequency</parameterid>
													<name>cutoff frequency</name>
													<valuemin>10</valuemin>
													<valuemax>21829.5</valuemax>
													<value>4566</value>
												</parameter>
												<parameter>
													<parameterid>resonance</parameterid>
													<name>resonance</name>
													<valuemin>-20</valuemin>
													<valuemax>40</valuemax>
													<value>-6</value>
												</parameter>
											</effect>
										</filter>
										<filter>
											<effect>
												<name>Audio Levels</name>
												<effectid>audiolevels</effectid>
												<effectcategory>audiolevels</effectcategory>
												<effecttype>audiolevels</effecttype>
												<mediatype>audio</mediatype>
												<parameter>
													<name>Level</name>
													<parameterid>level</parameterid>
													<valuemin>0</valuemin>
													<valuemax>3.98109</valuemax>
													<keyframe>
														<when>1531.22</when>
														<value>0.141254</value>
													</keyframe>
													<keyframe>
														<when>1537.37</when>
														<value>0.251189</value>
													</keyframe>
													<keyframe>
														<when>2118.25</when>
														<value>0.251189</value>
													</keyframe>
													<keyframe>
														<when>2135.91</when>
														<value>0.0891251</value>
													</keyframe>
													<interpolation>
														<name>FCPCurve</name>
													</interpolation>
													<value>0.251189</value>
												</parameter>
											</effect>
										</filter>
										<filter>
											<effect>
												<name>Audio Pan</name>
												<effectid>audiopan</effectid>
												<effectcategory>audiopan</effectcategory>
												<effecttype>audiopan</effecttype>
												<mediatype>audio</mediatype>
												<parameter>
													<name>Pan</name>
													<parameterid>pan</parameterid>
													<valuemin>-1</valuemin>
													<valuemax>1</valuemax>
													<value>1</value>
												</parameter>
											</effect>
										</filter>
										<sourcetrack>
											<mediatype>audio</mediatype>
											<trackindex>2</trackindex>
										</sourcetrack>
										<link>
											<linkclipref>02 MEXICAN SUNSHINE --- lively guaracha featuring     trombone.aif</linkclipref>
											<mediatype>audio</mediatype>
											<trackindex>5</trackindex>
											<clipindex>1</clipindex>
											<groupindex>1</groupindex>
										</link>
										<link>
											<linkclipref>02 MEXICAN SUNSHINE --- lively guaracha featuring     trombone.aif2</linkclipref>
											<mediatype>audio</mediatype>
											<trackindex>6</trackindex>
											<clipindex>1</clipindex>
											<groupindex>1</groupindex>
										</link>
									</clipitem>
									<transitionitem id="1">
										<rate>
											<ntsc>FALSE</ntsc>
											<timebase>25</timebase>
										</rate>
										<start>581</start>
										<end>606</end>
										<alignment>end-black</alignment>
										<effect>
											<name>Cross Fade (+3dB) Copy</name>
											<effecttype>transition</effecttype>
											<mediatype>audio</mediatype>
										</effect>
									</transitionitem>
									<enabled>TRUE</enabled>
									<locked>FALSE</locked>
									<outputchannelindex>2</outputchannelindex>
								</track>
								<track>
									<enabled>TRUE</enabled>
									<locked>FALSE</locked>
									<outputchannelindex>1</outputchannelindex>
								</track>
								<track>
									<enabled>TRUE</enabled>
									<locked>FALSE</locked>
									<outputchannelindex>2</outputchannelindex>
								</track>
							</audio>
						</media>
					</sequence>
					<sourcetrack>
						<mediatype>video</mediatype>
					</sourcetrack>
					<link>
						<linkclipref>TACO 1 START </linkclipref>
						<mediatype>video</mediatype>
						<trackindex>1</trackindex>
						<clipindex>7</clipindex>
					</link>
					<link>
						<linkclipref>TACO 1 START 2</linkclipref>
						<mediatype>audio</mediatype>
						<trackindex>3</trackindex>
						<clipindex>4</clipindex>
						<groupindex>1</groupindex>
					</link>
					<link>
						<linkclipref>TACO 1 START 3</linkclipref>
						<mediatype>audio</mediatype>
						<trackindex>4</trackindex>
						<clipindex>4</clipindex>
						<groupindex>1</groupindex>
					</link>
					<ismasterclip>FALSE</ismasterclip>
				</clipitem>
				<transitionitem id="65999428 ">
					<rate>
						<ntsc>FALSE</ntsc>
						<timebase>25</timebase>
					</rate>
					<start>3124</start>
					<end>3132</end>
					<alignment>center</alignment>
					<effect>
						<name>Push Slide</name>
						<effectid>Push Slide</effectid>
						<effectcategory>Slide</effectcategory>
						<effecttype>transition</effecttype>
						<mediatype>video</mediatype>
						<wipecode>1</wipecode>
						<wipeaccuracy>100</wipeaccuracy>
						<startratio>0</startratio>
						<endratio>1</endratio>
						<reverse>FALSE</reverse>
						<parameter>
							<parameterid>angleofpush</parameterid>
							<name>Angle</name>
							<valuemin>-360</valuemin>
							<valuemax>360</valuemax>
							<value>0</value>
						</parameter>
						<parameter>
							<parameterid>borderwidth</parameterid>
							<name>Border</name>
							<valuemin>0</valuemin>
							<valuemax>10</valuemax>
							<value>0</value>
						</parameter>
						<parameter>
							<parameterid>bordercolor</parameterid>
							<name>Color</name>
							<value>
								<alpha>255</alpha>
								<red>0</red>
								<green>0</green>
								<blue>0</blue>
							</value>
						</parameter>
					</effect>
				</transitionitem>
				<clipitem id="msub200012-3011-k1d1-010 ">
					<name>msub200012-3011-k1d1-010</name>
					<duration>10013</duration>
					<rate>
						<ntsc>FALSE</ntsc>
						<timebase>25</timebase>
					</rate>
					<in>455</in>
					<out>614</out>
					<start>-1</start>
					<end>3283</end>
					<pixelaspectratio>Square</pixelaspectratio>
					<enabled>TRUE</enabled>
					<anamorphic>FALSE</anamorphic>
					<alphatype>none</alphatype>
					<masterclipid>msub200012-3011-k1d1-010 1</masterclipid>
					<logginginfo>
						<description>msub200012-3011-k1d1-010</description>
						<scene/>
						<shottake/>
						<lognote/>
						<good>FALSE</good>
					</logginginfo>
					<labels>
						<label2/>
					</labels>
					<comments>
						<mastercomment1>RÃ…STOFF. BR_FINFREDAG_MSUA_OPRO</mastercomment1>
						<mastercomment2/>
						<mastercomment3/>
						<mastercomment4/>
						<clipcommenta/>
					</comments>
					<file id="msub200012-3011-k1d1-010 2">
						<name>msub200012-3011-k1d1-010.mxf</name>
						<pathurl>file://localhost/omfs/clip.dir/MXF/1080i/msub200012-3011-k1d1-010.mxf</pathurl>
						<rate>
							<timebase>25</timebase>
						</rate>
						<duration>10013</duration>
						<timecode>
							<rate>
								<timebase>25</timebase>
							</rate>
							<string>01:06:26:09</string>
							<frame>99659</frame>
							<displayformat>NDF</displayformat>
							<source>source</source>
						</timecode>
						<media>
							<video>
								<duration>10013</duration>
								<samplecharacteristics>
									<width>1920</width>
									<height>1080</height>
								</samplecharacteristics>
							</video>
							<audio>
								<rate>
									<timebase>48000</timebase>
								</rate>
								<trackcount>1</trackcount>
								<samplecharacteristics>
									<depth>24</depth>
								</samplecharacteristics>
							</audio>
						</media>
					</file>
					<sourcetrack>
						<mediatype>video</mediatype>
					</sourcetrack>
					<link>
						<linkclipref>msub200012-3011-k1d1-010 </linkclipref>
						<mediatype>video</mediatype>
						<trackindex>1</trackindex>
						<clipindex>9</clipindex>
					</link>
					<link>
						<linkclipref>msub200012-3011-k1d1-010 3</linkclipref>
						<mediatype>audio</mediatype>
						<trackindex>1</trackindex>
						<clipindex>18</clipindex>
					</link>
					<link>
						<linkclipref>msub200012-3011-k1d1-010 4</linkclipref>
						<mediatype>audio</mediatype>
						<trackindex>2</trackindex>
						<clipindex>12</clipindex>
					</link>
					<fielddominance>upper</fielddominance>
				</clipitem>
				<clipitem id="msub200012-3011-k1d1-010 5">
					<name>msub200012-3011-k1d1-010</name>
					<duration>10013</duration>
					<rate>
						<ntsc>FALSE</ntsc>
						<timebase>25</timebase>
					</rate>
					<in>1596</in>
					<out>2017</out>
					<start>3283</start>
					<end>3704</end>
					<pixelaspectratio>Square</pixelaspectratio>
					<enabled>TRUE</enabled>
					<anamorphic>FALSE</anamorphic>
					<alphatype>none</alphatype>
					<masterclipid>msub200012-3011-k1d1-010 1</masterclipid>
					<logginginfo>
						<description>msub200012-3011-k1d1-010</description>
						<scene/>
						<shottake/>
						<lognote/>
						<good>FALSE</good>
					</logginginfo>
					<labels>
						<label2/>
					</labels>
					<comments>
						<mastercomment1>RÃ…STOFF. BR_FINFREDAG_MSUA_OPRO</mastercomment1>
						<mastercomment2/>
						<mastercomment3/>
						<mastercomment4/>
						<clipcommenta/>
					</comments>
					<file id="msub200012-3011-k1d1-010 2"/>
					<sourcetrack>
						<mediatype>video</mediatype>
					</sourcetrack>
					<link>
						<linkclipref>msub200012-3011-k1d1-010 5</linkclipref>
						<mediatype>video</mediatype>
						<trackindex>1</trackindex>
						<clipindex>10</clipindex>
					</link>
					<link>
						<linkclipref>msub200012-3011-k1d1-010 6</linkclipref>
						<mediatype>audio</mediatype>
						<trackindex>1</trackindex>
						<clipindex>20</clipindex>
					</link>
					<link>
						<linkclipref>msub200012-3011-k1d1-010 7</linkclipref>
						<mediatype>audio</mediatype>
						<trackindex>2</trackindex>
						<clipindex>14</clipindex>
					</link>
					<fielddominance>upper</fielddominance>
				</clipitem>
				<clipitem id="msub200012-3011-k2d1-006 ">
					<name>msub200012-3011-k2d1-006</name>
					<duration>390</duration>
					<rate>
						<ntsc>FALSE</ntsc>
						<timebase>25</timebase>
					</rate>
					<in>87</in>
					<out>184</out>
					<start>3764</start>
					<end>3861</end>
					<pixelaspectratio>Square</pixelaspectratio>
					<enabled>TRUE</enabled>
					<anamorphic>FALSE</anamorphic>
					<alphatype>none</alphatype>
					<masterclipid>msub200012-3011-k2d1-006 1</masterclipid>
					<logginginfo>
						<description>msub200012-3011-k2d1-006</description>
						<scene/>
						<shottake/>
						<lognote/>
						<good>FALSE</good>
					</logginginfo>
					<labels>
						<label2/>
					</labels>
					<comments>
						<mastercomment1>RÃ…STOFF. BR_FINFREDAG_MSUA_OPRO</mastercomment1>
						<mastercomment2/>
						<mastercomment3/>
						<mastercomment4/>
						<clipcommenta/>
					</comments>
					<file id="msub200012-3011-k2d1-006 2">
						<name>msub200012-3011-k2d1-006.mxf</name>
						<pathurl>file://localhost/omfs/clip.dir/MXF/1080i/msub200012-3011-k2d1-006.mxf</pathurl>
						<rate>
							<timebase>25</timebase>
						</rate>
						<duration>390</duration>
						<timecode>
							<rate>
								<timebase>25</timebase>
							</rate>
							<string>01:04:04:23</string>
							<frame>96123</frame>
							<displayformat>NDF</displayformat>
							<source>source</source>
						</timecode>
						<media>
							<video>
								<duration>390</duration>
								<samplecharacteristics>
									<width>1920</width>
									<height>1080</height>
								</samplecharacteristics>
							</video>
							<audio>
								<rate>
									<timebase>48000</timebase>
								</rate>
								<trackcount>1</trackcount>
								<samplecharacteristics>
									<depth>24</depth>
								</samplecharacteristics>
							</audio>
						</media>
					</file>
					<filter>
						<enabled>TRUE</enabled>
						<start>-1</start>
						<end>-1</end>
						<effect>
							<name>Color Corrector 3-way Copy</name>
							<effectid>Color Corrector 3-way</effectid>
							<effectcategory>Color Correction</effectcategory>
							<effecttype>filter</effecttype>
							<mediatype>video</mediatype>
							<parameter>
								<parameterid>dispmode</parameterid>
								<name>Display Mode</name>
								<valuemin>1</valuemin>
								<valuemax>3</valuemax>
								<valuelist>
									<valueentry>
										<name>Final</name>
										<value>1</value>
									</valueentry>
									<valueentry>
										<name>Matte</name>
										<value>2</value>
									</valueentry>
									<valueentry>
										<name>Source</name>
										<value>3</value>
									</valueentry>
								</valuelist>
								<value>1</value>
							</parameter>
							<parameter>
								<parameterid>label1</parameterid>
								<name>Blacks Controls</name>
								<value/>
							</parameter>
							<parameter>
								<parameterid>blacklevel</parameterid>
								<name>Level</name>
								<valuemin>-196</valuemin>
								<valuemax>254</valuemax>
								<value>-9</value>
							</parameter>
							<parameter>
								<parameterid>b_hue</parameterid>
								<name>Angle</name>
								<valuemin>-180</valuemin>
								<valuemax>180</valuemax>
								<value>90</value>
							</parameter>
							<parameter>
								<parameterid>b_mag</parameterid>
								<name>Magnitude</name>
								<valuemin>0</valuemin>
								<valuemax>200</valuemax>
								<value>0.855244</value>
							</parameter>
							<parameter>
								<parameterid>label2</parameterid>
								<name>Midrange Controls</name>
								<value/>
							</parameter>
							<parameter>
								<parameterid>mids</parameterid>
								<name>Level</name>
								<valuemin>0</valuemin>
								<valuemax>200</valuemax>
								<value>100</value>
							</parameter>
							<parameter>
								<parameterid>m_hue</parameterid>
								<name>Angle</name>
								<valuemin>-180</valuemin>
								<valuemax>180</valuemax>
								<value>-33</value>
							</parameter>
							<parameter>
								<parameterid>m_mag</parameterid>
								<name>Magnitude</name>
								<valuemin>0</valuemin>
								<valuemax>200</valuemax>
								<value>0</value>
							</parameter>
							<parameter>
								<parameterid>label3</parameterid>
								<name>Highlight Controls</name>
								<value/>
							</parameter>
							<parameter>
								<parameterid>highlights</parameterid>
								<name>Level</name>
								<valuemin>64</valuemin>
								<valuemax>509</valuemax>
								<value>242</value>
							</parameter>
							<parameter>
								<parameterid>h_hue</parameterid>
								<name>Angle</name>
								<valuemin>-180</valuemin>
								<valuemax>180</valuemax>
								<value>-33</value>
							</parameter>
							<parameter>
								<parameterid>h_mag</parameterid>
								<name>Magnitude</name>
								<valuemin>0</valuemin>
								<valuemax>200</valuemax>
								<value>0</value>
							</parameter>
							<parameter>
								<parameterid>label4</parameterid>
								<name>Color Controls</name>
								<value/>
							</parameter>
							<parameter>
								<parameterid>chroma</parameterid>
								<name>Saturation</name>
								<valuemin>0</valuemin>
								<valuemax>200</valuemax>
								<value>100</value>
							</parameter>
							<parameter>
								<parameterid>label5</parameterid>
								<name>Limit Effect Controls</name>
								<value/>
							</parameter>
							<parameter>
								<parameterid>dochroma</parameterid>
								<name>Limit on Chroma</name>
								<value>FALSE</value>
							</parameter>
							<parameter>
								<parameterid>centerang</parameterid>
								<name>Chroma Center</name>
								<valuemin>-760</valuemin>
								<valuemax>760</valuemax>
								<value>-110</value>
							</parameter>
							<parameter>
								<parameterid>chromawidth</parameterid>
								<name>Chroma Width</name>
								<valuemin>0</valuemin>
								<valuemax>360</valuemax>
								<value>15</value>
							</parameter>
							<parameter>
								<parameterid>chromasoft</parameterid>
								<name>Chroma Softness</name>
								<valuemin>0</valuemin>
								<valuemax>180</valuemax>
								<value>10</value>
							</parameter>
							<parameter>
								<parameterid>dosat</parameterid>
								<name>Limit on Saturation</name>
								<value>FALSE</value>
							</parameter>
							<parameter>
								<parameterid>satmin</parameterid>
								<name>Sat. Minimum</name>
								<valuemin>0</valuemin>
								<valuemax>125</valuemax>
								<value>35</value>
							</parameter>
							<parameter>
								<parameterid>satwidth</parameterid>
								<name>Sat. Width</name>
								<valuemin>0</valuemin>
								<valuemax>125</valuemax>
								<value>40</value>
							</parameter>
							<parameter>
								<parameterid>satsoft</parameterid>
								<name>Sat. Softness</name>
								<valuemin>0</valuemin>
								<valuemax>125</valuemax>
								<value>20</value>
							</parameter>
							<parameter>
								<parameterid>doluma</parameterid>
								<name>Limit on Luma</name>
								<value>FALSE</value>
							</parameter>
							<parameter>
								<parameterid>lumamin</parameterid>
								<name>Luma Minimum</name>
								<valuemin>0</valuemin>
								<valuemax>120</valuemax>
								<value>0</value>
							</parameter>
							<parameter>
								<parameterid>lumawidth</parameterid>
								<name>Luma Width</name>
								<valuemin>0</valuemin>
								<valuemax>120</valuemax>
								<value>40</value>
							</parameter>
							<parameter>
								<parameterid>lumasoft</parameterid>
								<name>Luma Softness</name>
								<valuemin>0</valuemin>
								<valuemax>120</valuemax>
								<value>20</value>
							</parameter>
							<parameter>
								<parameterid>label6</parameterid>
								<name>Edge Control</name>
								<value/>
							</parameter>
							<parameter>
								<parameterid>edgethin</parameterid>
								<name>Thin/Spread</name>
								<valuemin>-100</valuemin>
								<valuemax>100</valuemax>
								<value>0</value>
							</parameter>
							<parameter>
								<parameterid>edgefeather</parameterid>
								<name>Softening</name>
								<valuemin>0</valuemin>
								<valuemax>100</valuemax>
								<value>0</value>
							</parameter>
							<parameter>
								<parameterid>label7</parameterid>
								<name>Mask Control</name>
								<value/>
							</parameter>
							<parameter>
								<parameterid>invertsel</parameterid>
								<name>Invert</name>
								<value>FALSE</value>
							</parameter>
							<parameter>
								<parameterid>debugshow</parameterid>
								<name>Show Stats</name>
								<value>FALSE</value>
							</parameter>
						</effect>
					</filter>
					<sourcetrack>
						<mediatype>video</mediatype>
					</sourcetrack>
					<fielddominance>upper</fielddominance>
				</clipitem>
				<clipitem id="msub200012-3011-k2d1-019 ">
					<name>msub200012-3011-k2d1-019</name>
					<duration>133</duration>
					<rate>
						<ntsc>FALSE</ntsc>
						<timebase>25</timebase>
					</rate>
					<in>15</in>
					<out>44</out>
					<start>3899</start>
					<end>3928</end>
					<pixelaspectratio>Square</pixelaspectratio>
					<enabled>TRUE</enabled>
					<anamorphic>FALSE</anamorphic>
					<alphatype>none</alphatype>
					<masterclipid>msub200012-3011-k2d1-019 1</masterclipid>
					<logginginfo>
						<description>msub200012-3011-k2d1-019</description>
						<scene/>
						<shottake/>
						<lognote/>
						<good>FALSE</good>
					</logginginfo>
					<labels>
						<label2/>
					</labels>
					<comments>
						<mastercomment1>RÃ…STOFF. BR_FINFREDAG_MSUA_OPRO</mastercomment1>
						<mastercomment2/>
						<mastercomment3/>
						<mastercomment4/>
						<clipcommenta/>
					</comments>
					<file id="msub200012-3011-k2d1-019 2">
						<name>msub200012-3011-k2d1-019.mxf</name>
						<pathurl>file://localhost/omfs/clip.dir/MXF/1080i/msub200012-3011-k2d1-019.mxf</pathurl>
						<rate>
							<timebase>25</timebase>
						</rate>
						<duration>133</duration>
						<timecode>
							<rate>
								<timebase>25</timebase>
							</rate>
							<string>01:07:01:24</string>
							<frame>100549</frame>
							<displayformat>NDF</displayformat>
							<source>source</source>
						</timecode>
						<media>
							<video>
								<duration>133</duration>
								<samplecharacteristics>
									<width>1920</width>
									<height>1080</height>
								</samplecharacteristics>
							</video>
							<audio>
								<rate>
									<timebase>48000</timebase>
								</rate>
								<trackcount>1</trackcount>
								<samplecharacteristics>
									<depth>24</depth>
								</samplecharacteristics>
							</audio>
						</media>
					</file>
					<sourcetrack>
						<mediatype>video</mediatype>
					</sourcetrack>
					<fielddominance>upper</fielddominance>
				</clipitem>
				<clipitem id="msub200012-3011-k1d1-020 ">
					<name>msub200012-3011-k1d1-020</name>
					<duration>783</duration>
					<rate>
						<ntsc>FALSE</ntsc>
						<timebase>25</timebase>
					</rate>
					<in>177</in>
					<out>257</out>
					<start>3928</start>
					<end>4008</end>
					<pixelaspectratio>Square</pixelaspectratio>
					<enabled>TRUE</enabled>
					<anamorphic>FALSE</anamorphic>
					<alphatype>none</alphatype>
					<masterclipid>msub200012-3011-k1d1-020 1</masterclipid>
					<logginginfo>
						<description>msub200012-3011-k1d1-020</description>
						<scene/>
						<shottake/>
						<lognote/>
						<good>FALSE</good>
					</logginginfo>
					<labels>
						<label2/>
					</labels>
					<comments>
						<mastercomment1>RÃ…STOFF. BR_FINFREDAG_MSUA_OPRO</mastercomment1>
						<mastercomment2/>
						<mastercomment3/>
						<mastercomment4/>
						<clipcommenta/>
					</comments>
					<file id="msub200012-3011-k1d1-020 2">
						<name>msub200012-3011-k1d1-020.mxf</name>
						<pathurl>file://localhost/omfs/clip.dir/MXF/1080i/msub200012-3011-k1d1-020.mxf</pathurl>
						<rate>
							<timebase>25</timebase>
						</rate>
						<duration>783</duration>
						<timecode>
							<rate>
								<timebase>25</timebase>
							</rate>
							<string>01:18:14:02</string>
							<frame>117352</frame>
							<displayformat>NDF</displayformat>
							<source>source</source>
						</timecode>
						<media>
							<video>
								<duration>783</duration>
								<samplecharacteristics>
									<width>1920</width>
									<height>1080</height>
								</samplecharacteristics>
							</video>
							<audio>
								<rate>
									<timebase>48000</timebase>
								</rate>
								<trackcount>1</trackcount>
								<samplecharacteristics>
									<depth>24</depth>
								</samplecharacteristics>
							</audio>
						</media>
					</file>
					<sourcetrack>
						<mediatype>video</mediatype>
					</sourcetrack>
					<fielddominance>upper</fielddominance>
				</clipitem>
				<clipitem id="msub200012-3011-k1d1-014 ">
					<name>msub200012-3011-k1d1-014</name>
					<duration>2327</duration>
					<rate>
						<ntsc>FALSE</ntsc>
						<timebase>25</timebase>
					</rate>
					<in>685</in>
					<out>811</out>
					<start>4008</start>
					<end>4134</end>
					<pixelaspectratio>Square</pixelaspectratio>
					<enabled>TRUE</enabled>
					<anamorphic>FALSE</anamorphic>
					<alphatype>none</alphatype>
					<masterclipid>msub200012-3011-k1d1-014 1</masterclipid>
					<logginginfo>
						<description>msub200012-3011-k1d1-014</description>
						<scene/>
						<shottake/>
						<lognote/>
						<good>FALSE</good>
					</logginginfo>
					<labels>
						<label2/>
					</labels>
					<comments>
						<mastercomment1>RÃ…STOFF. BR_FINFREDAG_MSUA_OPRO</mastercomment1>
						<mastercomment2/>
						<mastercomment3/>
						<mastercomment4/>
						<clipcommenta/>
					</comments>
					<file id="msub200012-3011-k1d1-014 2">
						<name>msub200012-3011-k1d1-014.mxf</name>
						<pathurl>file://localhost/omfs/clip.dir/MXF/1080i/msub200012-3011-k1d1-014.mxf</pathurl>
						<rate>
							<timebase>25</timebase>
						</rate>
						<duration>2327</duration>
						<timecode>
							<rate>
								<timebase>25</timebase>
							</rate>
							<string>01:14:35:19</string>
							<frame>111894</frame>
							<displayformat>NDF</displayformat>
							<source>source</source>
						</timecode>
						<media>
							<video>
								<duration>2327</duration>
								<samplecharacteristics>
									<width>1920</width>
									<height>1080</height>
								</samplecharacteristics>
							</video>
							<audio>
								<rate>
									<timebase>48000</timebase>
								</rate>
								<trackcount>1</trackcount>
								<samplecharacteristics>
									<depth>24</depth>
								</samplecharacteristics>
							</audio>
						</media>
					</file>
					<sourcetrack>
						<mediatype>video</mediatype>
					</sourcetrack>
					<fielddominance>upper</fielddominance>
				</clipitem>
				<clipitem id="msub200012-3011-k1d1-017 ">
					<name>msub200012-3011-k1d1-017</name>
					<duration>628</duration>
					<rate>
						<ntsc>FALSE</ntsc>
						<timebase>25</timebase>
					</rate>
					<in>155</in>
					<out>214</out>
					<start>4134</start>
					<end>4193</end>
					<pixelaspectratio>Square</pixelaspectratio>
					<enabled>TRUE</enabled>
					<anamorphic>FALSE</anamorphic>
					<alphatype>none</alphatype>
					<masterclipid>msub200012-3011-k1d1-017 1</masterclipid>
					<logginginfo>
						<description>msub200012-3011-k1d1-017</description>
						<scene/>
						<shottake/>
						<lognote/>
						<good>FALSE</good>
					</logginginfo>
					<labels>
						<label2/>
					</labels>
					<comments>
						<mastercomment1>RÃ…STOFF. BR_FINFREDAG_MSUA_OPRO</mastercomment1>
						<mastercomment2/>
						<mastercomment3/>
						<mastercomment4/>
						<clipcommenta/>
					</comments>
					<file id="msub200012-3011-k1d1-017 2">
						<name>msub200012-3011-k1d1-017.mxf</name>
						<pathurl>file://localhost/omfs/clip.dir/MXF/1080i/msub200012-3011-k1d1-017.mxf</pathurl>
						<rate>
							<timebase>25</timebase>
						</rate>
						<duration>628</duration>
						<timecode>
							<rate>
								<timebase>25</timebase>
							</rate>
							<string>01:17:10:16</string>
							<frame>115766</frame>
							<displayformat>NDF</displayformat>
							<source>source</source>
						</timecode>
						<media>
							<video>
								<duration>628</duration>
								<samplecharacteristics>
									<width>1920</width>
									<height>1080</height>
								</samplecharacteristics>
							</video>
							<audio>
								<rate>
									<timebase>48000</timebase>
								</rate>
								<trackcount>1</trackcount>
								<samplecharacteristics>
									<depth>24</depth>
								</samplecharacteristics>
							</audio>
						</media>
					</file>
					<sourcetrack>
						<mediatype>video</mediatype>
					</sourcetrack>
					<fielddominance>upper</fielddominance>
				</clipitem>
				<clipitem id="msub200012-3011-k1d1-010 8">
					<name>msub200012-3011-k1d1-010</name>
					<duration>10013</duration>
					<rate>
						<ntsc>FALSE</ntsc>
						<timebase>25</timebase>
					</rate>
					<in>2601</in>
					<out>2806</out>
					<start>4193</start>
					<end>4398</end>
					<pixelaspectratio>Square</pixelaspectratio>
					<enabled>TRUE</enabled>
					<anamorphic>FALSE</anamorphic>
					<alphatype>none</alphatype>
					<masterclipid>msub200012-3011-k1d1-010 1</masterclipid>
					<logginginfo>
						<description>msub200012-3011-k1d1-010</description>
						<scene/>
						<shottake/>
						<lognote/>
						<good>FALSE</good>
					</logginginfo>
					<labels>
						<label2/>
					</labels>
					<comments>
						<mastercomment1>RÃ…STOFF. BR_FINFREDAG_MSUA_OPRO</mastercomment1>
						<mastercomment2/>
						<mastercomment3/>
						<mastercomment4/>
						<clipcommenta/>
					</comments>
					<file id="msub200012-3011-k1d1-010 2"/>
					<sourcetrack>
						<mediatype>video</mediatype>
					</sourcetrack>
					<link>
						<linkclipref>msub200012-3011-k1d1-010 8</linkclipref>
						<mediatype>video</mediatype>
						<trackindex>1</trackindex>
						<clipindex>16</clipindex>
					</link>
					<link>
						<linkclipref>msub200012-3011-k1d1-010 9</linkclipref>
						<mediatype>audio</mediatype>
						<trackindex>1</trackindex>
						<clipindex>23</clipindex>
					</link>
					<link>
						<linkclipref>msub200012-3011-k1d1-010 10</linkclipref>
						<mediatype>audio</mediatype>
						<trackindex>2</trackindex>
						<clipindex>17</clipindex>
					</link>
					<fielddominance>upper</fielddominance>
				</clipitem>
				<clipitem id="msub200012-3011-k1d1-010 11">
					<name>msub200012-3011-k1d1-010</name>
					<duration>10013</duration>
					<rate>
						<ntsc>FALSE</ntsc>
						<timebase>25</timebase>
					</rate>
					<in>3588</in>
					<out>3743</out>
					<start>4398</start>
					<end>4553</end>
					<pixelaspectratio>Square</pixelaspectratio>
					<enabled>TRUE</enabled>
					<anamorphic>FALSE</anamorphic>
					<alphatype>none</alphatype>
					<masterclipid>msub200012-3011-k1d1-010 1</masterclipid>
					<logginginfo>
						<description>msub200012-3011-k1d1-010</description>
						<scene/>
						<shottake/>
						<lognote/>
						<good>FALSE</good>
					</logginginfo>
					<labels>
						<label2/>
					</labels>
					<comments>
						<mastercomment1>RÃ…STOFF. BR_FINFREDAG_MSUA_OPRO</mastercomment1>
						<mastercomment2/>
						<mastercomment3/>
						<mastercomment4/>
						<clipcommenta/>
					</comments>
					<file id="msub200012-3011-k1d1-010 2"/>
					<sourcetrack>
						<mediatype>video</mediatype>
					</sourcetrack>
					<link>
						<linkclipref>msub200012-3011-k1d1-010 11</linkclipref>
						<mediatype>video</mediatype>
						<trackindex>1</trackindex>
						<clipindex>17</clipindex>
					</link>
					<link>
						<linkclipref>msub200012-3011-k1d1-010 12</linkclipref>
						<mediatype>audio</mediatype>
						<trackindex>1</trackindex>
						<clipindex>25</clipindex>
					</link>
					<link>
						<linkclipref>msub200012-3011-k1d1-010 13</linkclipref>
						<mediatype>audio</mediatype>
						<trackindex>2</trackindex>
						<clipindex>19</clipindex>
					</link>
					<fielddominance>upper</fielddominance>
				</clipitem>
				<clipitem id="msub200012-3011-k1d1-010 14">
					<name>msub200012-3011-k1d1-010</name>
					<duration>10013</duration>
					<rate>
						<ntsc>FALSE</ntsc>
						<timebase>25</timebase>
					</rate>
					<in>7093</in>
					<out>7503</out>
					<start>4553</start>
					<end>4963</end>
					<pixelaspectratio>Square</pixelaspectratio>
					<enabled>TRUE</enabled>
					<anamorphic>FALSE</anamorphic>
					<alphatype>none</alphatype>
					<masterclipid>msub200012-3011-k1d1-010 1</masterclipid>
					<logginginfo>
						<description>msub200012-3011-k1d1-010</description>
						<scene/>
						<shottake/>
						<lognote/>
						<good>FALSE</good>
					</logginginfo>
					<labels>
						<label2/>
					</labels>
					<comments>
						<mastercomment1>RÃ…STOFF. BR_FINFREDAG_MSUA_OPRO</mastercomment1>
						<mastercomment2/>
						<mastercomment3/>
						<mastercomment4/>
						<clipcommenta/>
					</comments>
					<file id="msub200012-3011-k1d1-010 2"/>
					<sourcetrack>
						<mediatype>video</mediatype>
					</sourcetrack>
					<link>
						<linkclipref>msub200012-3011-k1d1-010 14</linkclipref>
						<mediatype>video</mediatype>
						<trackindex>1</trackindex>
						<clipindex>18</clipindex>
					</link>
					<link>
						<linkclipref>msub200012-3011-k1d1-010 15</linkclipref>
						<mediatype>audio</mediatype>
						<trackindex>1</trackindex>
						<clipindex>27</clipindex>
					</link>
					<link>
						<linkclipref>msub200012-3011-k1d1-010 16</linkclipref>
						<mediatype>audio</mediatype>
						<trackindex>2</trackindex>
						<clipindex>21</clipindex>
					</link>
					<fielddominance>upper</fielddominance>
				</clipitem>
				<clipitem id="msub200012-3011-k1d1-010 17">
					<name>msub200012-3011-k1d1-010</name>
					<duration>10013</duration>
					<rate>
						<ntsc>FALSE</ntsc>
						<timebase>25</timebase>
					</rate>
					<in>7832</in>
					<out>7943</out>
					<start>4963</start>
					<end>5074</end>
					<pixelaspectratio>Square</pixelaspectratio>
					<enabled>TRUE</enabled>
					<anamorphic>FALSE</anamorphic>
					<alphatype>none</alphatype>
					<masterclipid>msub200012-3011-k1d1-010 1</masterclipid>
					<logginginfo>
						<description>msub200012-3011-k1d1-010</description>
						<scene/>
						<shottake/>
						<lognote/>
						<good>FALSE</good>
					</logginginfo>
					<labels>
						<label2/>
					</labels>
					<comments>
						<mastercomment1>RÃ…STOFF. BR_FINFREDAG_MSUA_OPRO</mastercomment1>
						<mastercomment2/>
						<mastercomment3/>
						<mastercomment4/>
						<clipcommenta/>
					</comments>
					<file id="msub200012-3011-k1d1-010 2"/>
					<sourcetrack>
						<mediatype>video</mediatype>
					</sourcetrack>
					<fielddominance>upper</fielddominance>
				</clipitem>
				<clipitem id="msub200012-3011-k1d1-013 ">
					<name>msub200012-3011-k1d1-013</name>
					<duration>1292</duration>
					<rate>
						<ntsc>FALSE</ntsc>
						<timebase>25</timebase>
					</rate>
					<in>728</in>
					<out>774</out>
					<start>5074</start>
					<end>5120</end>
					<pixelaspectratio>Square</pixelaspectratio>
					<enabled>TRUE</enabled>
					<anamorphic>FALSE</anamorphic>
					<alphatype>none</alphatype>
					<masterclipid>msub200012-3011-k1d1-013 1</masterclipid>
					<logginginfo>
						<description>msub200012-3011-k1d1-013</description>
						<scene/>
						<shottake/>
						<lognote/>
						<good>FALSE</good>
					</logginginfo>
					<labels>
						<label2/>
					</labels>
					<comments>
						<mastercomment1>RÃ…STOFF. BR_FINFREDAG_MSUA_OPRO</mastercomment1>
						<mastercomment2/>
						<mastercomment3/>
						<mastercomment4/>
						<clipcommenta/>
					</comments>
					<file id="msub200012-3011-k1d1-013 2">
						<name>msub200012-3011-k1d1-013.mxf</name>
						<pathurl>file://localhost/omfs/clip.dir/MXF/1080i/msub200012-3011-k1d1-013.mxf</pathurl>
						<rate>
							<timebase>25</timebase>
						</rate>
						<duration>1292</duration>
						<timecode>
							<rate>
								<timebase>25</timebase>
							</rate>
							<string>01:13:44:02</string>
							<frame>110602</frame>
							<displayformat>NDF</displayformat>
							<source>source</source>
						</timecode>
						<media>
							<video>
								<duration>1292</duration>
								<samplecharacteristics>
									<width>1920</width>
									<height>1080</height>
								</samplecharacteristics>
							</video>
							<audio>
								<rate>
									<timebase>48000</timebase>
								</rate>
								<trackcount>1</trackcount>
								<samplecharacteristics>
									<depth>24</depth>
								</samplecharacteristics>
							</audio>
						</media>
					</file>
					<sourcetrack>
						<mediatype>video</mediatype>
					</sourcetrack>
					<fielddominance>upper</fielddominance>
				</clipitem>
				<clipitem id="msub200012-3011-k1d1-010 18">
					<name>msub200012-3011-k1d1-010</name>
					<duration>10013</duration>
					<rate>
						<ntsc>FALSE</ntsc>
						<timebase>25</timebase>
					</rate>
					<in>8288</in>
					<out>8677</out>
					<start>5120</start>
					<end>5509</end>
					<pixelaspectratio>Square</pixelaspectratio>
					<enabled>TRUE</enabled>
					<anamorphic>FALSE</anamorphic>
					<alphatype>none</alphatype>
					<masterclipid>msub200012-3011-k1d1-010 1</masterclipid>
					<logginginfo>
						<description>msub200012-3011-k1d1-010</description>
						<scene/>
						<shottake/>
						<lognote/>
						<good>FALSE</good>
					</logginginfo>
					<labels>
						<label2/>
					</labels>
					<comments>
						<mastercomment1>RÃ…STOFF. BR_FINFREDAG_MSUA_OPRO</mastercomment1>
						<mastercomment2/>
						<mastercomment3/>
						<mastercomment4/>
						<clipcommenta/>
					</comments>
					<file id="msub200012-3011-k1d1-010 2"/>
					<sourcetrack>
						<mediatype>video</mediatype>
					</sourcetrack>
					<fielddominance>upper</fielddominance>
				</clipitem>
				<clipitem id="msub200012-3011-k1d1-026 ">
					<name>msub200012-3011-k1d1-026</name>
					<duration>1553</duration>
					<rate>
						<ntsc>FALSE</ntsc>
						<timebase>25</timebase>
					</rate>
					<in>406</in>
					<out>492</out>
					<start>5563</start>
					<end>5649</end>
					<pixelaspectratio>Square</pixelaspectratio>
					<enabled>TRUE</enabled>
					<anamorphic>FALSE</anamorphic>
					<alphatype>none</alphatype>
					<masterclipid>msub200012-3011-k1d1-026 1</masterclipid>
					<syncoffset>0</syncoffset>
					<logginginfo>
						<description>msub200012-3011-k1d1-026</description>
						<scene/>
						<shottake/>
						<lognote/>
						<good>FALSE</good>
					</logginginfo>
					<labels>
						<label>Best Take</label>
						<label2/>
					</labels>
					<comments>
						<mastercomment1>RÃ…STOFF. BR_FINFREDAG_MSUA_OPRO</mastercomment1>
						<mastercomment2/>
						<mastercomment3/>
						<mastercomment4/>
						<clipcommenta/>
					</comments>
					<file id="msub200012-3011-k1d1-026 2">
						<name>msub200012-3011-k1d1-026.mxf</name>
						<pathurl>file://localhost/omfs/clip.dir/MXF/1080i/msub200012-3011-k1d1-026.mxf</pathurl>
						<rate>
							<timebase>25</timebase>
						</rate>
						<duration>1468</duration>
						<timecode>
							<rate>
								<timebase>25</timebase>
							</rate>
							<string>01:22:27:24</string>
							<frame>123699</frame>
							<displayformat>NDF</displayformat>
							<source>source</source>
						</timecode>
						<media>
							<video>
								<duration>1468</duration>
								<samplecharacteristics>
									<width>1920</width>
									<height>1080</height>
								</samplecharacteristics>
							</video>
							<audio>
								<rate>
									<timebase>48000</timebase>
								</rate>
								<trackcount>1</trackcount>
								<samplecharacteristics>
									<depth>24</depth>
								</samplecharacteristics>
							</audio>
						</media>
					</file>
					<sourcetrack>
						<mediatype>video</mediatype>
					</sourcetrack>
					<link>
						<linkclipref>msub200012-3011-k1d1-026 </linkclipref>
						<mediatype>video</mediatype>
						<trackindex>1</trackindex>
						<clipindex>22</clipindex>
					</link>
					<link>
						<linkclipref>msub200012-3011-k1d1-026 3</linkclipref>
						<mediatype>audio</mediatype>
						<trackindex>1</trackindex>
						<clipindex>31</clipindex>
					</link>
					<link>
						<linkclipref>msub200012-3011-k1d1-026 4</linkclipref>
						<mediatype>audio</mediatype>
						<trackindex>2</trackindex>
						<clipindex>28</clipindex>
					</link>
					<fielddominance>upper</fielddominance>
				</clipitem>
				<clipitem id="msub200012-3011-k2d1-028 ">
					<name>msub200012-3011-k2d1-028</name>
					<duration>1553</duration>
					<rate>
						<ntsc>FALSE</ntsc>
						<timebase>25</timebase>
					</rate>
					<in>492</in>
					<out>646</out>
					<start>5649</start>
					<end>5803</end>
					<pixelaspectratio>Square</pixelaspectratio>
					<anamorphic>FALSE</anamorphic>
					<alphatype>none</alphatype>
					<masterclipid>msub200012-3011-k2d1-028 1</masterclipid>
					<syncoffset>0</syncoffset>
					<logginginfo>
						<description>msub200012-3011-k2d1-028</description>
						<scene/>
						<shottake/>
						<lognote/>
						<good>FALSE</good>
					</logginginfo>
					<labels>
						<label>Best Take</label>
						<label2/>
					</labels>
					<comments>
						<mastercomment1>RÃ…STOFF. BR_FINFREDAG_MSUA_OPRO</mastercomment1>
						<mastercomment2/>
						<mastercomment3/>
						<mastercomment4/>
						<clipcommenta/>
					</comments>
					<file id="msub200012-3011-k2d1-028 2">
						<name>msub200012-3011-k2d1-028.mxf</name>
						<pathurl>file://localhost/omfs/clip.dir/MXF/1080i/msub200012-3011-k2d1-028.mxf</pathurl>
						<rate>
							<timebase>25</timebase>
						</rate>
						<duration>1204</duration>
						<timecode>
							<rate>
								<timebase>25</timebase>
							</rate>
							<string>01:08:45:22</string>
							<frame>103147</frame>
							<displayformat>NDF</displayformat>
							<source>source</source>
						</timecode>
						<media>
							<video>
								<duration>1204</duration>
								<samplecharacteristics>
									<width>1920</width>
									<height>1080</height>
								</samplecharacteristics>
							</video>
							<audio>
								<rate>
									<timebase>48000</timebase>
								</rate>
								<trackcount>1</trackcount>
								<samplecharacteristics>
									<depth>24</depth>
								</samplecharacteristics>
							</audio>
						</media>
					</file>
					<sourcetrack>
						<mediatype>video</mediatype>
					</sourcetrack>
					<fielddominance>upper</fielddominance>
				</clipitem>
				<clipitem id="msub200012-3011-k1d1-026 5">
					<name>msub200012-3011-k1d1-026</name>
					<duration>1553</duration>
					<rate>
						<ntsc>FALSE</ntsc>
						<timebase>25</timebase>
					</rate>
					<in>646</in>
					<out>731</out>
					<start>5803</start>
					<end>5888</end>
					<pixelaspectratio>Square</pixelaspectratio>
					<anamorphic>FALSE</anamorphic>
					<alphatype>none</alphatype>
					<masterclipid>msub200012-3011-k1d1-026 1</masterclipid>
					<syncoffset>0</syncoffset>
					<logginginfo>
						<description>msub200012-3011-k1d1-026</description>
						<scene/>
						<shottake/>
						<lognote/>
						<good>FALSE</good>
					</logginginfo>
					<labels>
						<label>Best Take</label>
						<label2/>
					</labels>
					<comments>
						<mastercomment1>RÃ…STOFF. BR_FINFREDAG_MSUA_OPRO</mastercomment1>
						<mastercomment2/>
						<mastercomment3/>
						<mastercomment4/>
						<clipcommenta/>
					</comments>
					<file id="msub200012-3011-k1d1-026 2"/>
					<sourcetrack>
						<mediatype>video</mediatype>
					</sourcetrack>
					<fielddominance>upper</fielddominance>
				</clipitem>
				<clipitem id="msub200012-3011-k2d1-028 3">
					<name>msub200012-3011-k2d1-028</name>
					<duration>1553</duration>
					<rate>
						<ntsc>FALSE</ntsc>
						<timebase>25</timebase>
					</rate>
					<in>824</in>
					<out>1021</out>
					<start>5888</start>
					<end>6085</end>
					<pixelaspectratio>Square</pixelaspectratio>
					<enabled>TRUE</enabled>
					<anamorphic>FALSE</anamorphic>
					<alphatype>none</alphatype>
					<masterclipid>msub200012-3011-k2d1-028 1</masterclipid>
					<syncoffset>0</syncoffset>
					<logginginfo>
						<description>msub200012-3011-k2d1-028</description>
						<scene/>
						<shottake/>
						<lognote/>
						<good>FALSE</good>
					</logginginfo>
					<labels>
						<label>Best Take</label>
						<label2/>
					</labels>
					<comments>
						<mastercomment1>RÃ…STOFF. BR_FINFREDAG_MSUA_OPRO</mastercomment1>
						<mastercomment2/>
						<mastercomment3/>
						<mastercomment4/>
						<clipcommenta/>
					</comments>
					<file id="msub200012-3011-k2d1-028 2"/>
					<sourcetrack>
						<mediatype>video</mediatype>
					</sourcetrack>
					<fielddominance>upper</fielddominance>
				</clipitem>
				<clipitem id="KOIF43001507AA">
					<name>KOIF43001507AA</name>
					<duration>131201</duration>
					<rate>
						<ntsc>FALSE</ntsc>
						<timebase>25</timebase>
					</rate>
					<in>44635</in>
					<out>45214</out>
					<start>6085</start>
					<end>6664</end>
					<pixelaspectratio>PAL-601</pixelaspectratio>
					<enabled>TRUE</enabled>
					<anamorphic>TRUE</anamorphic>
					<alphatype>none</alphatype>
					<masterclipid>KOIF43001507AA1</masterclipid>
					<logginginfo>
						<description>Jakten pÃ¥ nyresteinen</description>
						<scene/>
						<shottake/>
						<lognote/>
						<good>FALSE</good>
					</logginginfo>
					<labels>
						<label2/>
					</labels>
					<comments>
						<mastercomment1>ARKIVSTOFF. BR_FINFREDAG_MSUA_OPRO</mastercomment1>
						<mastercomment2>. Filmkameratene AS. </mastercomment2>
						<mastercomment3>Sendt: 1999-12-20. FILMKAMERATENE; Norge.</mastercomment3>
						<mastercomment4>Norsk spillefilm fra 1996. Bestefar har smerter, men Ã¥tteÃ¥rige Simen vet rÃ¥d. Han tryller seg liten og klatrer inn i bestefars kropp for Ã¥ finne ut hva som er i veien ... Regi: Vibeke IdsÃ¸e. Manus: Vibeke IdsÃ¸e. Musikk: Ragnar Bjerkreim. I rollene: Fru Galle ................ Kjersti HOLMEN (mv) Galle Junior ............. Lage FOSHEIM (mv) Sekr??t Service agent ..... Morten M. FALDAAS (mv) StemmebÃ¥ndsoperatÃ¸ren .... Sigve BÃ˜E (mv) TÃ¥retankoperatÃ¸rene ...... Harald EIA (mv), Gard EIDSVOLD (mv) A. Pendixrud ............. BjÃ¸rn JENSEG (mv) Hvitt punkerblodlegeme ... Jan "Devo" KORNSTAD (mv) / Jan KORNSTAD (mv) Hjerteharpen ............. Tone HULBÃ†KMO (mv) HjernesentraloperatÃ¸ren .. Leif DUBARD (mv) RÃ¸de kjÃ¦rlighetsvakter ... Herborg KRÃ…KEVIK (mv), Helen VIKSTVEDT (mv) Bestefar ................. Terje STRÃ˜MDAHL (mv) Bestemor ................. CÃ¦cilie NORDBY (mv) Bamsens stemme ........... Toralv Maurstad Ã˜vrige medvirkende: Tina HARTVIG (mv), Tinken LAURANTZON (mv), Ã˜ystein SELENIUS (mv), Adolf E. BJERKE (mv), Rune HEKKELSTRAND (mv), Rikke SANDLI (mv), Unn SANDVIG (mv), Celine SAASTAD (mv), Anne STRAY (mv), Arild SÃ˜GAARD (mv), Ruth GURHOLT (mv), Kjetil OLSEN (mv), Ine SANDVIG (mv), Aslaug GUTTORMSGÃ…RD (mv), Kjersti Borchgrevink MAAGERÃ˜ (mv), Kiran SHAH (mv), Camilla HARTVIG (mv), Raymond WIIK (mv).</mastercomment4>
						<clipcommenta/>
						<clipcommentb>1:F-mix venstre 2:F-mix hÃ¸yre 3:-- 4:--.4x3 PAL.</clipcommentb>
					</comments>
					<file id="KOIF43001507AA2">
						<name>KOIF43001507AA.mxf</name>
						<pathurl>file://localhost/omfs/clip.dir/MXF/576i/KOIF43001507AA.mxf</pathurl>
						<rate>
							<timebase>25</timebase>
						</rate>
						<duration>131201</duration>
						<timecode>
							<rate>
								<timebase>25</timebase>
							</rate>
							<string>00:01:10:00</string>
							<frame>1750</frame>
							<displayformat>NDF</displayformat>
							<source>source</source>
						</timecode>
						<media>
							<video>
								<duration>131201</duration>
								<samplecharacteristics>
									<width>720</width>
									<height>576</height>
								</samplecharacteristics>
							</video>
							<audio>
								<rate>
									<timebase>48000</timebase>
								</rate>
								<trackcount>4</trackcount>
								<samplecharacteristics>
									<depth>24</depth>
								</samplecharacteristics>
							</audio>
						</media>
					</file>
					<filter>
						<effect>
							<name>Distort</name>
							<effectid>deformation</effectid>
							<effectcategory>motion</effectcategory>
							<effecttype>motion</effecttype>
							<mediatype>video</mediatype>
							<parameter>
								<parameterid>aspect</parameterid>
								<name>Aspect</name>
								<valuemin>-10000</valuemin>
								<valuemax>10000</valuemax>
								<value>-42.2222</value>
							</parameter>
						</effect>
					</filter>
					<filter>
						<effect>
							<name>Basic Motion</name>
							<effectid>basic</effectid>
							<effectcategory>motion</effectcategory>
							<effecttype>motion</effecttype>
							<mediatype>video</mediatype>
							<parameter>
								<parameterid>scale</parameterid>
								<name>Scale</name>
								<value>266.667</value>
							</parameter>
						</effect>
					</filter>
					<sourcetrack>
						<mediatype>video</mediatype>
					</sourcetrack>
					<link>
						<linkclipref>KOIF43001507AA</linkclipref>
						<mediatype>video</mediatype>
						<trackindex>1</trackindex>
						<clipindex>26</clipindex>
					</link>
					<fielddominance>upper</fielddominance>
				</clipitem>
				<clipitem id="msub200012-3011-k2d1-030 ">
					<name>msub200012-3011-k2d1-030</name>
					<duration>5957</duration>
					<rate>
						<ntsc>FALSE</ntsc>
						<timebase>25</timebase>
					</rate>
					<in>262</in>
					<out>413</out>
					<start>6664</start>
					<end>6815</end>
					<pixelaspectratio>Square</pixelaspectratio>
					<enabled>TRUE</enabled>
					<anamorphic>FALSE</anamorphic>
					<alphatype>none</alphatype>
					<masterclipid>msub200012-3011-k2d1-030 1</masterclipid>
					<syncoffset>0</syncoffset>
					<logginginfo>
						<description>msub200012-3011-k2d1-030</description>
						<scene/>
						<shottake/>
						<lognote/>
						<good>FALSE</good>
					</logginginfo>
					<labels>
						<label>Alternate Shots</label>
						<label2/>
					</labels>
					<comments>
						<mastercomment1>RÃ…STOFF. BR_FINFREDAG_MSUA_OPRO</mastercomment1>
						<mastercomment2/>
						<mastercomment3/>
						<mastercomment4/>
						<clipcommenta/>
					</comments>
					<file id="msub200012-3011-k2d1-030 2">
						<name>msub200012-3011-k2d1-030.mxf</name>
						<pathurl>file://localhost/omfs/clip.dir/MXF/1080i/msub200012-3011-k2d1-030.mxf</pathurl>
						<rate>
							<timebase>25</timebase>
						</rate>
						<duration>5957</duration>
						<timecode>
							<rate>
								<timebase>25</timebase>
							</rate>
							<string>01:09:37:06</string>
							<frame>104431</frame>
							<displayformat>NDF</displayformat>
							<source>source</source>
						</timecode>
						<media>
							<video>
								<duration>5957</duration>
								<samplecharacteristics>
									<width>1920</width>
									<height>1080</height>
								</samplecharacteristics>
							</video>
							<audio>
								<rate>
									<timebase>48000</timebase>
								</rate>
								<trackcount>1</trackcount>
								<samplecharacteristics>
									<depth>24</depth>
								</samplecharacteristics>
							</audio>
						</media>
					</file>
					<sourcetrack>
						<mediatype>video</mediatype>
					</sourcetrack>
					<fielddominance>upper</fielddominance>
				</clipitem>
				<clipitem id="msub200012-3011-k1d1-027 ">
					<name>msub200012-3011-k1d1-027</name>
					<duration>5957</duration>
					<rate>
						<ntsc>FALSE</ntsc>
						<timebase>25</timebase>
					</rate>
					<in>632</in>
					<out>768</out>
					<start>6815</start>
					<end>6951</end>
					<pixelaspectratio>Square</pixelaspectratio>
					<enabled>TRUE</enabled>
					<anamorphic>FALSE</anamorphic>
					<alphatype>none</alphatype>
					<masterclipid>msub200012-3011-k1d1-027 1</masterclipid>
					<syncoffset>0</syncoffset>
					<logginginfo>
						<description>msub200012-3011-k1d1-027</description>
						<scene/>
						<shottake/>
						<lognote/>
						<good>FALSE</good>
					</logginginfo>
					<labels>
						<label>Alternate Shots</label>
						<label2/>
					</labels>
					<comments>
						<mastercomment1>RÃ…STOFF. BR_FINFREDAG_MSUA_OPRO</mastercomment1>
						<mastercomment2/>
						<mastercomment3/>
						<mastercomment4/>
						<clipcommenta/>
					</comments>
					<file id="msub200012-3011-k1d1-027 2">
						<name>msub200012-3011-k1d1-027.mxf</name>
						<pathurl>file://localhost/omfs/clip.dir/MXF/1080i/msub200012-3011-k1d1-027.mxf</pathurl>
						<rate>
							<timebase>25</timebase>
						</rate>
						<duration>5603</duration>
						<timecode>
							<rate>
								<timebase>25</timebase>
							</rate>
							<string>01:23:26:17</string>
							<frame>125167</frame>
							<displayformat>NDF</displayformat>
							<source>source</source>
						</timecode>
						<media>
							<video>
								<duration>5603</duration>
								<samplecharacteristics>
									<width>1920</width>
									<height>1080</height>
								</samplecharacteristics>
							</video>
							<audio>
								<rate>
									<timebase>48000</timebase>
								</rate>
								<trackcount>1</trackcount>
								<samplecharacteristics>
									<depth>24</depth>
								</samplecharacteristics>
							</audio>
						</media>
					</file>
					<sourcetrack>
						<mediatype>video</mediatype>
					</sourcetrack>
					<fielddominance>upper</fielddominance>
				</clipitem>
				<clipitem id="msub200012-3011-k2d1-030 3">
					<name>msub200012-3011-k2d1-030</name>
					<duration>5957</duration>
					<rate>
						<ntsc>FALSE</ntsc>
						<timebase>25</timebase>
					</rate>
					<in>768</in>
					<out>992</out>
					<start>6951</start>
					<end>7175</end>
					<pixelaspectratio>Square</pixelaspectratio>
					<anamorphic>FALSE</anamorphic>
					<alphatype>none</alphatype>
					<masterclipid>msub200012-3011-k2d1-030 1</masterclipid>
					<syncoffset>0</syncoffset>
					<logginginfo>
						<description>msub200012-3011-k2d1-030</description>
						<scene/>
						<shottake/>
						<lognote/>
						<good>FALSE</good>
					</logginginfo>
					<labels>
						<label>Alternate Shots</label>
						<label2/>
					</labels>
					<comments>
						<mastercomment1>RÃ…STOFF. BR_FINFREDAG_MSUA_OPRO</mastercomment1>
						<mastercomment2/>
						<mastercomment3/>
						<mastercomment4/>
						<clipcommenta/>
					</comments>
					<file id="msub200012-3011-k2d1-030 2"/>
					<sourcetrack>
						<mediatype>video</mediatype>
					</sourcetrack>
					<fielddominance>upper</fielddominance>
				</clipitem>
				<clipitem id="msub200012-3011-k1d1-027 3">
					<name>msub200012-3011-k1d1-027</name>
					<duration>5957</duration>
					<rate>
						<ntsc>FALSE</ntsc>
						<timebase>25</timebase>
					</rate>
					<in>992</in>
					<out>1263</out>
					<start>7175</start>
					<end>7446</end>
					<pixelaspectratio>Square</pixelaspectratio>
					<enabled>TRUE</enabled>
					<anamorphic>FALSE</anamorphic>
					<alphatype>none</alphatype>
					<masterclipid>msub200012-3011-k1d1-027 1</masterclipid>
					<syncoffset>0</syncoffset>
					<logginginfo>
						<description>msub200012-3011-k1d1-027</description>
						<scene/>
						<shottake/>
						<lognote/>
						<good>FALSE</good>
					</logginginfo>
					<labels>
						<label>Alternate Shots</label>
						<label2/>
					</labels>
					<comments>
						<mastercomment1>RÃ…STOFF. BR_FINFREDAG_MSUA_OPRO</mastercomment1>
						<mastercomment2/>
						<mastercomment3/>
						<mastercomment4/>
						<clipcommenta/>
					</comments>
					<file id="msub200012-3011-k1d1-027 2"/>
					<sourcetrack>
						<mediatype>video</mediatype>
					</sourcetrack>
					<fielddominance>upper</fielddominance>
				</clipitem>
				<clipitem id="msub200012-3011-k2d1-030 4">
					<name>msub200012-3011-k2d1-030</name>
					<duration>5957</duration>
					<rate>
						<ntsc>FALSE</ntsc>
						<timebase>25</timebase>
					</rate>
					<in>1263</in>
					<out>1480</out>
					<start>7446</start>
					<end>7663</end>
					<pixelaspectratio>Square</pixelaspectratio>
					<enabled>TRUE</enabled>
					<anamorphic>FALSE</anamorphic>
					<alphatype>none</alphatype>
					<masterclipid>msub200012-3011-k2d1-030 1</masterclipid>
					<syncoffset>0</syncoffset>
					<logginginfo>
						<description>msub200012-3011-k2d1-030</description>
						<scene/>
						<shottake/>
						<lognote/>
						<good>FALSE</good>
					</logginginfo>
					<labels>
						<label>Alternate Shots</label>
						<label2/>
					</labels>
					<comments>
						<mastercomment1>RÃ…STOFF. BR_FINFREDAG_MSUA_OPRO</mastercomment1>
						<mastercomment2/>
						<mastercomment3/>
						<mastercomment4/>
						<clipcommenta/>
					</comments>
					<file id="msub200012-3011-k2d1-030 2"/>
					<sourcetrack>
						<mediatype>video</mediatype>
					</sourcetrack>
					<fielddominance>upper</fielddominance>
				</clipitem>
				<clipitem id="msub200012-3011-k1d1-027 4">
					<name>msub200012-3011-k1d1-027</name>
					<duration>5957</duration>
					<rate>
						<ntsc>FALSE</ntsc>
						<timebase>25</timebase>
					</rate>
					<in>2055</in>
					<out>2227</out>
					<start>7663</start>
					<end>7835</end>
					<pixelaspectratio>Square</pixelaspectratio>
					<enabled>TRUE</enabled>
					<anamorphic>FALSE</anamorphic>
					<alphatype>none</alphatype>
					<masterclipid>msub200012-3011-k1d1-027 1</masterclipid>
					<syncoffset>0</syncoffset>
					<logginginfo>
						<description>msub200012-3011-k1d1-027</description>
						<scene/>
						<shottake/>
						<lognote/>
						<good>FALSE</good>
					</logginginfo>
					<labels>
						<label>Alternate Shots</label>
						<label2/>
					</labels>
					<comments>
						<mastercomment1>RÃ…STOFF. BR_FINFREDAG_MSUA_OPRO</mastercomment1>
						<mastercomment2/>
						<mastercomment3/>
						<mastercomment4/>
						<clipcommenta/>
					</comments>
					<file id="msub200012-3011-k1d1-027 2"/>
					<sourcetrack>
						<mediatype>video</mediatype>
					</sourcetrack>
					<fielddominance>upper</fielddominance>
				</clipitem>
				<clipitem id="msub200012-3011-k2d1-030 5">
					<name>msub200012-3011-k2d1-030</name>
					<duration>5957</duration>
					<rate>
						<ntsc>FALSE</ntsc>
						<timebase>25</timebase>
					</rate>
					<in>2227</in>
					<out>2443</out>
					<start>7835</start>
					<end>8051</end>
					<pixelaspectratio>Square</pixelaspectratio>
					<anamorphic>FALSE</anamorphic>
					<alphatype>none</alphatype>
					<masterclipid>msub200012-3011-k2d1-030 1</masterclipid>
					<syncoffset>0</syncoffset>
					<logginginfo>
						<description>msub200012-3011-k2d1-030</description>
						<scene/>
						<shottake/>
						<lognote/>
						<good>FALSE</good>
					</logginginfo>
					<labels>
						<label>Alternate Shots</label>
						<label2/>
					</labels>
					<comments>
						<mastercomment1>RÃ…STOFF. BR_FINFREDAG_MSUA_OPRO</mastercomment1>
						<mastercomment2/>
						<mastercomment3/>
						<mastercomment4/>
						<clipcommenta/>
					</comments>
					<file id="msub200012-3011-k2d1-030 2"/>
					<sourcetrack>
						<mediatype>video</mediatype>
					</sourcetrack>
					<fielddominance>upper</fielddominance>
				</clipitem>
				<clipitem id="msub200012-3011-k1d1-027 5">
					<name>msub200012-3011-k1d1-027</name>
					<duration>5957</duration>
					<rate>
						<ntsc>FALSE</ntsc>
						<timebase>25</timebase>
					</rate>
					<in>2443</in>
					<out>2514</out>
					<start>8051</start>
					<end>8122</end>
					<pixelaspectratio>Square</pixelaspectratio>
					<anamorphic>FALSE</anamorphic>
					<alphatype>none</alphatype>
					<masterclipid>msub200012-3011-k1d1-027 1</masterclipid>
					<syncoffset>0</syncoffset>
					<logginginfo>
						<description>msub200012-3011-k1d1-027</description>
						<scene/>
						<shottake/>
						<lognote/>
						<good>FALSE</good>
					</logginginfo>
					<labels>
						<label>Alternate Shots</label>
						<label2/>
					</labels>
					<comments>
						<mastercomment1>RÃ…STOFF. BR_FINFREDAG_MSUA_OPRO</mastercomment1>
						<mastercomment2/>
						<mastercomment3/>
						<mastercomment4/>
						<clipcommenta/>
					</comments>
					<file id="msub200012-3011-k1d1-027 2"/>
					<sourcetrack>
						<mediatype>video</mediatype>
					</sourcetrack>
					<fielddominance>upper</fielddominance>
				</clipitem>
				<clipitem id="msub200012-3011-k2d1-030 6">
					<name>msub200012-3011-k2d1-030</name>
					<duration>5957</duration>
					<rate>
						<ntsc>FALSE</ntsc>
						<timebase>25</timebase>
					</rate>
					<in>2514</in>
					<out>2682</out>
					<start>8122</start>
					<end>8290</end>
					<pixelaspectratio>Square</pixelaspectratio>
					<anamorphic>FALSE</anamorphic>
					<alphatype>none</alphatype>
					<masterclipid>msub200012-3011-k2d1-030 1</masterclipid>
					<syncoffset>0</syncoffset>
					<logginginfo>
						<description>msub200012-3011-k2d1-030</description>
						<scene/>
						<shottake/>
						<lognote/>
						<good>FALSE</good>
					</logginginfo>
					<labels>
						<label>Alternate Shots</label>
						<label2/>
					</labels>
					<comments>
						<mastercomment1>RÃ…STOFF. BR_FINFREDAG_MSUA_OPRO</mastercomment1>
						<mastercomment2/>
						<mastercomment3/>
						<mastercomment4/>
						<clipcommenta/>
					</comments>
					<file id="msub200012-3011-k2d1-030 2"/>
					<sourcetrack>
						<mediatype>video</mediatype>
					</sourcetrack>
					<fielddominance>upper</fielddominance>
				</clipitem>
				<clipitem id="msub200012-3011-k1d1-027 6">
					<name>msub200012-3011-k1d1-027</name>
					<duration>5957</duration>
					<rate>
						<ntsc>FALSE</ntsc>
						<timebase>25</timebase>
					</rate>
					<in>2682</in>
					<out>2758</out>
					<start>8290</start>
					<end>8366</end>
					<pixelaspectratio>Square</pixelaspectratio>
					<anamorphic>FALSE</anamorphic>
					<alphatype>none</alphatype>
					<masterclipid>msub200012-3011-k1d1-027 1</masterclipid>
					<syncoffset>0</syncoffset>
					<logginginfo>
						<description>msub200012-3011-k1d1-027</description>
						<scene/>
						<shottake/>
						<lognote/>
						<good>FALSE</good>
					</logginginfo>
					<labels>
						<label>Alternate Shots</label>
						<label2/>
					</labels>
					<comments>
						<mastercomment1>RÃ…STOFF. BR_FINFREDAG_MSUA_OPRO</mastercomment1>
						<mastercomment2/>
						<mastercomment3/>
						<mastercomment4/>
						<clipcommenta/>
					</comments>
					<file id="msub200012-3011-k1d1-027 2"/>
					<sourcetrack>
						<mediatype>video</mediatype>
					</sourcetrack>
					<fielddominance>upper</fielddominance>
				</clipitem>
				<clipitem id="msub200012-3011-k2d1-030 7">
					<name>msub200012-3011-k2d1-030</name>
					<duration>5957</duration>
					<rate>
						<ntsc>FALSE</ntsc>
						<timebase>25</timebase>
					</rate>
					<in>2758</in>
					<out>2924</out>
					<start>8366</start>
					<end>8532</end>
					<pixelaspectratio>Square</pixelaspectratio>
					<anamorphic>FALSE</anamorphic>
					<alphatype>none</alphatype>
					<masterclipid>msub200012-3011-k2d1-030 1</masterclipid>
					<syncoffset>0</syncoffset>
					<logginginfo>
						<description>msub200012-3011-k2d1-030</description>
						<scene/>
						<shottake/>
						<lognote/>
						<good>FALSE</good>
					</logginginfo>
					<labels>
						<label>Alternate Shots</label>
						<label2/>
					</labels>
					<comments>
						<mastercomment1>RÃ…STOFF. BR_FINFREDAG_MSUA_OPRO</mastercomment1>
						<mastercomment2/>
						<mastercomment3/>
						<mastercomment4/>
						<clipcommenta/>
					</comments>
					<file id="msub200012-3011-k2d1-030 2"/>
					<sourcetrack>
						<mediatype>video</mediatype>
					</sourcetrack>
					<fielddominance>upper</fielddominance>
				</clipitem>
				<clipitem id="msub200012-3011-k1d1-027 7">
					<name>msub200012-3011-k1d1-027</name>
					<duration>5957</duration>
					<rate>
						<ntsc>FALSE</ntsc>
						<timebase>25</timebase>
					</rate>
					<in>2924</in>
					<out>3012</out>
					<start>8532</start>
					<end>8620</end>
					<pixelaspectratio>Square</pixelaspectratio>
					<enabled>TRUE</enabled>
					<anamorphic>FALSE</anamorphic>
					<alphatype>none</alphatype>
					<masterclipid>msub200012-3011-k1d1-027 1</masterclipid>
					<syncoffset>0</syncoffset>
					<logginginfo>
						<description>msub200012-3011-k1d1-027</description>
						<scene/>
						<shottake/>
						<lognote/>
						<good>FALSE</good>
					</logginginfo>
					<labels>
						<label>Alternate Shots</label>
						<label2/>
					</labels>
					<comments>
						<mastercomment1>RÃ…STOFF. BR_FINFREDAG_MSUA_OPRO</mastercomment1>
						<mastercomment2/>
						<mastercomment3/>
						<mastercomment4/>
						<clipcommenta/>
					</comments>
					<file id="msub200012-3011-k1d1-027 2"/>
					<sourcetrack>
						<mediatype>video</mediatype>
					</sourcetrack>
					<fielddominance>upper</fielddominance>
				</clipitem>
				<clipitem id="msub200012-3011-k1d1-027 8">
					<name>msub200012-3011-k1d1-027</name>
					<duration>5957</duration>
					<rate>
						<ntsc>FALSE</ntsc>
						<timebase>25</timebase>
					</rate>
					<in>5332</in>
					<out>5428</out>
					<start>8678</start>
					<end>8774</end>
					<pixelaspectratio>Square</pixelaspectratio>
					<enabled>TRUE</enabled>
					<anamorphic>FALSE</anamorphic>
					<alphatype>none</alphatype>
					<masterclipid>msub200012-3011-k1d1-027 1</masterclipid>
					<syncoffset>0</syncoffset>
					<logginginfo>
						<description>msub200012-3011-k1d1-027</description>
						<scene/>
						<shottake/>
						<lognote/>
						<good>FALSE</good>
					</logginginfo>
					<labels>
						<label>Alternate Shots</label>
						<label2/>
					</labels>
					<comments>
						<mastercomment1>RÃ…STOFF. BR_FINFREDAG_MSUA_OPRO</mastercomment1>
						<mastercomment2/>
						<mastercomment3/>
						<mastercomment4/>
						<clipcommenta/>
					</comments>
					<file id="msub200012-3011-k1d1-027 2"/>
					<sourcetrack>
						<mediatype>video</mediatype>
					</sourcetrack>
					<fielddominance>upper</fielddominance>
				</clipitem>
				<clipitem id="msub200012-3011-k2d1-031 ">
					<name>msub200012-3011-k2d1-031</name>
					<duration>4553</duration>
					<rate>
						<ntsc>FALSE</ntsc>
						<timebase>25</timebase>
					</rate>
					<in>304</in>
					<out>522</out>
					<start>8774</start>
					<end>8992</end>
					<pixelaspectratio>Square</pixelaspectratio>
					<enabled>TRUE</enabled>
					<anamorphic>FALSE</anamorphic>
					<alphatype>none</alphatype>
					<masterclipid>msub200012-3011-k2d1-031 1</masterclipid>
					<syncoffset>0</syncoffset>
					<logginginfo>
						<description>msub200012-3011-k2d1-031</description>
						<scene/>
						<shottake/>
						<lognote/>
						<good>FALSE</good>
					</logginginfo>
					<labels>
						<label>Interviews</label>
						<label2/>
					</labels>
					<comments>
						<mastercomment1>RÃ…STOFF. BR_FINFREDAG_MSUA_OPRO</mastercomment1>
						<mastercomment2/>
						<mastercomment3/>
						<mastercomment4/>
						<clipcommenta/>
					</comments>
					<file id="msub200012-3011-k2d1-031 2">
						<name>msub200012-3011-k2d1-031.mxf</name>
						<pathurl>file://localhost/omfs/clip.dir/MXF/1080i/msub200012-3011-k2d1-031.mxf</pathurl>
						<rate>
							<timebase>25</timebase>
						</rate>
						<duration>4553</duration>
						<timecode>
							<rate>
								<timebase>25</timebase>
							</rate>
							<string>01:13:35:13</string>
							<frame>110388</frame>
							<displayformat>NDF</displayformat>
							<source>source</source>
						</timecode>
						<media>
							<video>
								<duration>4553</duration>
								<samplecharacteristics>
									<width>1920</width>
									<height>1080</height>
								</samplecharacteristics>
							</video>
							<audio>
								<rate>
									<timebase>48000</timebase>
								</rate>
								<trackcount>1</trackcount>
								<samplecharacteristics>
									<depth>24</depth>
								</samplecharacteristics>
							</audio>
						</media>
					</file>
					<sourcetrack>
						<mediatype>video</mediatype>
					</sourcetrack>
					<fielddominance>upper</fielddominance>
				</clipitem>
				<clipitem id="msub200012-3011-k1d1-028 ">
					<name>msub200012-3011-k1d1-028</name>
					<duration>4553</duration>
					<rate>
						<ntsc>FALSE</ntsc>
						<timebase>25</timebase>
					</rate>
					<in>522</in>
					<out>793</out>
					<start>8992</start>
					<end>9263</end>
					<pixelaspectratio>Square</pixelaspectratio>
					<enabled>TRUE</enabled>
					<anamorphic>FALSE</anamorphic>
					<alphatype>none</alphatype>
					<masterclipid>msub200012-3011-k1d1-028 1</masterclipid>
					<syncoffset>0</syncoffset>
					<logginginfo>
						<description>msub200012-3011-k1d1-028</description>
						<scene/>
						<shottake/>
						<lognote/>
						<good>FALSE</good>
					</logginginfo>
					<labels>
						<label>Interviews</label>
						<label2/>
					</labels>
					<comments>
						<mastercomment1>RÃ…STOFF. BR_FINFREDAG_MSUA_OPRO</mastercomment1>
						<mastercomment2/>
						<mastercomment3/>
						<mastercomment4/>
						<clipcommenta/>
					</comments>
					<file id="msub200012-3011-k1d1-028 2">
						<name>msub200012-3011-k1d1-028.mxf</name>
						<pathurl>file://localhost/omfs/clip.dir/MXF/1080i/msub200012-3011-k1d1-028.mxf</pathurl>
						<rate>
							<timebase>25</timebase>
						</rate>
						<duration>4487</duration>
						<timecode>
							<rate>
								<timebase>25</timebase>
							</rate>
							<string>01:27:10:20</string>
							<frame>130770</frame>
							<displayformat>NDF</displayformat>
							<source>source</source>
						</timecode>
						<media>
							<video>
								<duration>4487</duration>
								<samplecharacteristics>
									<width>1920</width>
									<height>1080</height>
								</samplecharacteristics>
							</video>
							<audio>
								<rate>
									<timebase>48000</timebase>
								</rate>
								<trackcount>1</trackcount>
								<samplecharacteristics>
									<depth>24</depth>
								</samplecharacteristics>
							</audio>
						</media>
					</file>
					<sourcetrack>
						<mediatype>video</mediatype>
					</sourcetrack>
					<fielddominance>upper</fielddominance>
				</clipitem>
				<clipitem id="msub200012-3011-k2d1-031 3">
					<name>msub200012-3011-k2d1-031</name>
					<duration>4553</duration>
					<rate>
						<ntsc>FALSE</ntsc>
						<timebase>25</timebase>
					</rate>
					<in>959</in>
					<out>1451</out>
					<start>9263</start>
					<end>9755</end>
					<pixelaspectratio>Square</pixelaspectratio>
					<enabled>TRUE</enabled>
					<anamorphic>FALSE</anamorphic>
					<alphatype>none</alphatype>
					<masterclipid>msub200012-3011-k2d1-031 1</masterclipid>
					<syncoffset>0</syncoffset>
					<logginginfo>
						<description>msub200012-3011-k2d1-031</description>
						<scene/>
						<shottake/>
						<lognote/>
						<good>FALSE</good>
					</logginginfo>
					<labels>
						<label>Interviews</label>
						<label2/>
					</labels>
					<comments>
						<mastercomment1>RÃ…STOFF. BR_FINFREDAG_MSUA_OPRO</mastercomment1>
						<mastercomment2/>
						<mastercomment3/>
						<mastercomment4/>
						<clipcommenta/>
					</comments>
					<file id="msub200012-3011-k2d1-031 2"/>
					<sourcetrack>
						<mediatype>video</mediatype>
					</sourcetrack>
					<fielddominance>upper</fielddominance>
				</clipitem>
				<clipitem id="msub200012-3011-k1d1-028 3">
					<name>msub200012-3011-k1d1-028</name>
					<duration>4553</duration>
					<rate>
						<ntsc>FALSE</ntsc>
						<timebase>25</timebase>
					</rate>
					<in>1451</in>
					<out>1619</out>
					<start>9755</start>
					<end>9923</end>
					<pixelaspectratio>Square</pixelaspectratio>
					<enabled>TRUE</enabled>
					<anamorphic>FALSE</anamorphic>
					<alphatype>none</alphatype>
					<masterclipid>msub200012-3011-k1d1-028 1</masterclipid>
					<syncoffset>0</syncoffset>
					<logginginfo>
						<description>msub200012-3011-k1d1-028</description>
						<scene/>
						<shottake/>
						<lognote/>
						<good>FALSE</good>
					</logginginfo>
					<labels>
						<label>Interviews</label>
						<label2/>
					</labels>
					<comments>
						<mastercomment1>RÃ…STOFF. BR_FINFREDAG_MSUA_OPRO</mastercomment1>
						<mastercomment2/>
						<mastercomment3/>
						<mastercomment4/>
						<clipcommenta/>
					</comments>
					<file id="msub200012-3011-k1d1-028 2"/>
					<sourcetrack>
						<mediatype>video</mediatype>
					</sourcetrack>
					<fielddominance>upper</fielddominance>
				</clipitem>
				<clipitem id="msub200012-3011-k2d1-031 4">
					<name>msub200012-3011-k2d1-031</name>
					<duration>4553</duration>
					<rate>
						<ntsc>FALSE</ntsc>
						<timebase>25</timebase>
					</rate>
					<in>1963</in>
					<out>2297</out>
					<start>9923</start>
					<end>10257</end>
					<pixelaspectratio>Square</pixelaspectratio>
					<enabled>TRUE</enabled>
					<anamorphic>FALSE</anamorphic>
					<alphatype>none</alphatype>
					<masterclipid>msub200012-3011-k2d1-031 1</masterclipid>
					<syncoffset>0</syncoffset>
					<logginginfo>
						<description>msub200012-3011-k2d1-031</description>
						<scene/>
						<shottake/>
						<lognote/>
						<good>FALSE</good>
					</logginginfo>
					<labels>
						<label>Interviews</label>
						<label2/>
					</labels>
					<comments>
						<mastercomment1>RÃ…STOFF. BR_FINFREDAG_MSUA_OPRO</mastercomment1>
						<mastercomment2/>
						<mastercomment3/>
						<mastercomment4/>
						<clipcommenta/>
					</comments>
					<file id="msub200012-3011-k2d1-031 2"/>
					<sourcetrack>
						<mediatype>video</mediatype>
					</sourcetrack>
					<fielddominance>upper</fielddominance>
				</clipitem>
				<clipitem id="msub200012-3011-k1d1-028 4">
					<name>msub200012-3011-k1d1-028</name>
					<duration>4553</duration>
					<rate>
						<ntsc>FALSE</ntsc>
						<timebase>25</timebase>
					</rate>
					<in>2297</in>
					<out>2463</out>
					<start>10257</start>
					<end>10423</end>
					<pixelaspectratio>Square</pixelaspectratio>
					<enabled>TRUE</enabled>
					<anamorphic>FALSE</anamorphic>
					<alphatype>none</alphatype>
					<masterclipid>msub200012-3011-k1d1-028 1</masterclipid>
					<syncoffset>0</syncoffset>
					<logginginfo>
						<description>msub200012-3011-k1d1-028</description>
						<scene/>
						<shottake/>
						<lognote/>
						<good>FALSE</good>
					</logginginfo>
					<labels>
						<label>Interviews</label>
						<label2/>
					</labels>
					<comments>
						<mastercomment1>RÃ…STOFF. BR_FINFREDAG_MSUA_OPRO</mastercomment1>
						<mastercomment2/>
						<mastercomment3/>
						<mastercomment4/>
						<clipcommenta/>
					</comments>
					<file id="msub200012-3011-k1d1-028 2"/>
					<sourcetrack>
						<mediatype>video</mediatype>
					</sourcetrack>
					<fielddominance>upper</fielddominance>
				</clipitem>
				<clipitem id="msub200012-3011-k1d1-028 5">
					<name>msub200012-3011-k1d1-028</name>
					<duration>4553</duration>
					<rate>
						<ntsc>FALSE</ntsc>
						<timebase>25</timebase>
					</rate>
					<in>2956</in>
					<out>3019</out>
					<start>10423</start>
					<end>10486</end>
					<pixelaspectratio>Square</pixelaspectratio>
					<enabled>TRUE</enabled>
					<anamorphic>FALSE</anamorphic>
					<alphatype>none</alphatype>
					<masterclipid>msub200012-3011-k1d1-028 1</masterclipid>
					<syncoffset>0</syncoffset>
					<logginginfo>
						<description>msub200012-3011-k1d1-028</description>
						<scene/>
						<shottake/>
						<lognote/>
						<good>FALSE</good>
					</logginginfo>
					<labels>
						<label>Interviews</label>
						<label2/>
					</labels>
					<comments>
						<mastercomment1>RÃ…STOFF. BR_FINFREDAG_MSUA_OPRO</mastercomment1>
						<mastercomment2/>
						<mastercomment3/>
						<mastercomment4/>
						<clipcommenta/>
					</comments>
					<file id="msub200012-3011-k1d1-028 2"/>
					<sourcetrack>
						<mediatype>video</mediatype>
					</sourcetrack>
					<fielddominance>upper</fielddominance>
				</clipitem>
				<clipitem id="msub200012-3011-k2d1-031 5">
					<name>msub200012-3011-k2d1-031</name>
					<duration>4553</duration>
					<rate>
						<ntsc>FALSE</ntsc>
						<timebase>25</timebase>
					</rate>
					<in>2985</in>
					<out>3081</out>
					<start>10486</start>
					<end>10582</end>
					<pixelaspectratio>Square</pixelaspectratio>
					<enabled>TRUE</enabled>
					<anamorphic>FALSE</anamorphic>
					<alphatype>none</alphatype>
					<masterclipid>msub200012-3011-k2d1-031 1</masterclipid>
					<syncoffset>0</syncoffset>
					<logginginfo>
						<description>msub200012-3011-k2d1-031</description>
						<scene/>
						<shottake/>
						<lognote/>
						<good>FALSE</good>
					</logginginfo>
					<labels>
						<label>Interviews</label>
						<label2/>
					</labels>
					<comments>
						<mastercomment1>RÃ…STOFF. BR_FINFREDAG_MSUA_OPRO</mastercomment1>
						<mastercomment2/>
						<mastercomment3/>
						<mastercomment4/>
						<clipcommenta/>
					</comments>
					<file id="msub200012-3011-k2d1-031 2"/>
					<sourcetrack>
						<mediatype>video</mediatype>
					</sourcetrack>
					<fielddominance>upper</fielddominance>
				</clipitem>
				<clipitem id="msub200012-3011-k1d1-029 ">
					<name>msub200012-3011-k1d1-029</name>
					<duration>1050</duration>
					<rate>
						<ntsc>FALSE</ntsc>
						<timebase>25</timebase>
					</rate>
					<in>733</in>
					<out>952</out>
					<start>10963</start>
					<end>11182</end>
					<pixelaspectratio>Square</pixelaspectratio>
					<enabled>TRUE</enabled>
					<anamorphic>FALSE</anamorphic>
					<alphatype>none</alphatype>
					<masterclipid>msub200012-3011-k1d1-029 1</masterclipid>
					<syncoffset>0</syncoffset>
					<logginginfo>
						<description>msub200012-3011-k1d1-029</description>
						<scene/>
						<shottake/>
						<lognote/>
						<good>FALSE</good>
					</logginginfo>
					<labels>
						<label>B Roll</label>
						<label2/>
					</labels>
					<comments>
						<mastercomment1>RÃ…STOFF. BR_FINFREDAG_MSUA_OPRO</mastercomment1>
						<mastercomment2/>
						<mastercomment3/>
						<mastercomment4/>
						<clipcommenta/>
					</comments>
					<file id="msub200012-3011-k1d1-029 2">
						<name>msub200012-3011-k1d1-029.mxf</name>
						<pathurl>file://localhost/omfs/clip.dir/MXF/1080i/msub200012-3011-k1d1-029.mxf</pathurl>
						<rate>
							<timebase>25</timebase>
						</rate>
						<duration>1045</duration>
						<timecode>
							<rate>
								<timebase>25</timebase>
							</rate>
							<string>01:30:10:07</string>
							<frame>135257</frame>
							<displayformat>NDF</displayformat>
							<source>source</source>
						</timecode>
						<media>
							<video>
								<duration>1045</duration>
								<samplecharacteristics>
									<width>1920</width>
									<height>1080</height>
								</samplecharacteristics>
							</video>
							<audio>
								<rate>
									<timebase>48000</timebase>
								</rate>
								<trackcount>1</trackcount>
								<samplecharacteristics>
									<depth>24</depth>
								</samplecharacteristics>
							</audio>
						</media>
					</file>
					<sourcetrack>
						<mediatype>video</mediatype>
					</sourcetrack>
					<link>
						<linkclipref>msub200012-3011-k1d1-029 </linkclipref>
						<mediatype>video</mediatype>
						<trackindex>1</trackindex>
						<clipindex>48</clipindex>
					</link>
					<fielddominance>upper</fielddominance>
				</clipitem>
				<clipitem id="msub200012-3011-k1d2-002 ">
					<name>msub200012-3011-k1d2-002</name>
					<duration>5918</duration>
					<rate>
						<ntsc>FALSE</ntsc>
						<timebase>25</timebase>
					</rate>
					<in>2405</in>
					<out>2619</out>
					<start>15223</start>
					<end>15437</end>
					<pixelaspectratio>Square</pixelaspectratio>
					<enabled>TRUE</enabled>
					<anamorphic>FALSE</anamorphic>
					<alphatype>none</alphatype>
					<masterclipid>msub200012-3011-k1d2-002 1</masterclipid>
					<syncoffset>0</syncoffset>
					<logginginfo>
						<description>msub200012-3011-k1d2-002</description>
						<scene/>
						<shottake/>
						<lognote/>
						<good>FALSE</good>
					</logginginfo>
					<labels>
						<label>Good Take</label>
						<label2/>
					</labels>
					<comments>
						<mastercomment1>RÃ…STOFF. BR_FINFREDAG_MSUA_OPRO</mastercomment1>
						<mastercomment2/>
						<mastercomment3/>
						<mastercomment4/>
						<clipcommenta/>
					</comments>
					<file id="msub200012-3011-k1d2-002 2">
						<name>msub200012-3011-k1d2-002.mxf</name>
						<pathurl>file://localhost/omfs/clip.dir/MXF/1080i/msub200012-3011-k1d2-002.mxf</pathurl>
						<rate>
							<timebase>25</timebase>
						</rate>
						<duration>5918</duration>
						<timecode>
							<rate>
								<timebase>25</timebase>
							</rate>
							<string>01:30:58:05</string>
							<frame>136455</frame>
							<displayformat>NDF</displayformat>
							<source>source</source>
						</timecode>
						<media>
							<video>
								<duration>5918</duration>
								<samplecharacteristics>
									<width>1920</width>
									<height>1080</height>
								</samplecharacteristics>
							</video>
							<audio>
								<rate>
									<timebase>48000</timebase>
								</rate>
								<trackcount>1</trackcount>
								<samplecharacteristics>
									<depth>24</depth>
								</samplecharacteristics>
							</audio>
						</media>
					</file>
					<sourcetrack>
						<mediatype>video</mediatype>
					</sourcetrack>
					<link>
						<linkclipref>msub200012-3011-k1d2-002 </linkclipref>
						<mediatype>video</mediatype>
						<trackindex>1</trackindex>
						<clipindex>49</clipindex>
					</link>
					<link>
						<linkclipref>msub200012-3011-k1d2-002 3</linkclipref>
						<mediatype>audio</mediatype>
						<trackindex>1</trackindex>
						<clipindex>47</clipindex>
					</link>
					<link>
						<linkclipref>msub200012-3011-k1d2-002 4</linkclipref>
						<mediatype>audio</mediatype>
						<trackindex>2</trackindex>
						<clipindex>55</clipindex>
					</link>
					<fielddominance>upper</fielddominance>
				</clipitem>
				<clipitem id="msub200012-3011-k2d2-001 ">
					<name>msub200012-3011-k2d2-001</name>
					<duration>5918</duration>
					<rate>
						<ntsc>FALSE</ntsc>
						<timebase>25</timebase>
					</rate>
					<in>2619</in>
					<out>2958</out>
					<start>15437</start>
					<end>15776</end>
					<pixelaspectratio>Square</pixelaspectratio>
					<enabled>TRUE</enabled>
					<anamorphic>FALSE</anamorphic>
					<alphatype>none</alphatype>
					<masterclipid>msub200012-3011-k2d2-001 1</masterclipid>
					<syncoffset>0</syncoffset>
					<logginginfo>
						<description>msub200012-3011-k2d2-001</description>
						<scene/>
						<shottake/>
						<lognote/>
						<good>FALSE</good>
					</logginginfo>
					<labels>
						<label>Good Take</label>
						<label2/>
					</labels>
					<comments>
						<mastercomment1>RÃ…STOFF. BR_FINFREDAG_MSUA_OPRO</mastercomment1>
						<mastercomment2/>
						<mastercomment3/>
						<mastercomment4/>
						<clipcommenta/>
					</comments>
					<file id="msub200012-3011-k2d2-001 2">
						<name>msub200012-3011-k2d2-001.mxf</name>
						<pathurl>file://localhost/omfs/clip.dir/MXF/1080i/msub200012-3011-k2d2-001.mxf</pathurl>
						<rate>
							<timebase>25</timebase>
						</rate>
						<duration>5825</duration>
						<timecode>
							<rate>
								<timebase>25</timebase>
							</rate>
							<string>01:17:15:11</string>
							<frame>115886</frame>
							<displayformat>NDF</displayformat>
							<source>source</source>
						</timecode>
						<media>
							<video>
								<duration>5825</duration>
								<samplecharacteristics>
									<width>1920</width>
									<height>1080</height>
								</samplecharacteristics>
							</video>
							<audio>
								<rate>
									<timebase>48000</timebase>
								</rate>
								<trackcount>1</trackcount>
								<samplecharacteristics>
									<depth>24</depth>
								</samplecharacteristics>
							</audio>
						</media>
					</file>
					<sourcetrack>
						<mediatype>video</mediatype>
					</sourcetrack>
					<fielddominance>upper</fielddominance>
				</clipitem>
				<clipitem id="msub200012-3011-k1d2-002 5">
					<name>msub200012-3011-k1d2-002</name>
					<duration>5918</duration>
					<rate>
						<ntsc>FALSE</ntsc>
						<timebase>25</timebase>
					</rate>
					<in>2958</in>
					<out>3301</out>
					<start>15776</start>
					<end>16119</end>
					<pixelaspectratio>Square</pixelaspectratio>
					<enabled>TRUE</enabled>
					<anamorphic>FALSE</anamorphic>
					<alphatype>none</alphatype>
					<masterclipid>msub200012-3011-k1d2-002 1</masterclipid>
					<syncoffset>0</syncoffset>
					<logginginfo>
						<description>msub200012-3011-k1d2-002</description>
						<scene/>
						<shottake/>
						<lognote/>
						<good>FALSE</good>
					</logginginfo>
					<labels>
						<label>Good Take</label>
						<label2/>
					</labels>
					<comments>
						<mastercomment1>RÃ…STOFF. BR_FINFREDAG_MSUA_OPRO</mastercomment1>
						<mastercomment2/>
						<mastercomment3/>
						<mastercomment4/>
						<clipcommenta/>
					</comments>
					<file id="msub200012-3011-k1d2-002 2"/>
					<filter>
						<effect>
							<name>Basic Motion</name>
							<effectid>basic</effectid>
							<effectcategory>motion</effectcategory>
							<effecttype>motion</effecttype>
							<mediatype>video</mediatype>
							<parameter>
								<parameterid>center</parameterid>
								<name>Center</name>
								<value>
									<horiz>0</horiz>
									<vert>0</vert>
								</value>
							</parameter>
							<parameter>
								<parameterid>scale</parameterid>
								<name>Scale</name>
								<valuemin>0</valuemin>
								<valuemax>1000</valuemax>
								<value>100</value>
							</parameter>
							<parameter>
								<parameterid>rotation</parameterid>
								<name>Rotation</name>
								<valuemin>-8640</valuemin>
								<valuemax>8640</valuemax>
								<value>0</value>
							</parameter>
							<parameter>
								<parameterid>centerOffset</parameterid>
								<name>Anchor Point</name>
								<value>
									<horiz>0</horiz>
									<vert>0</vert>
								</value>
							</parameter>
						</effect>
					</filter>
					<filter>
						<enabled>FALSE</enabled>
						<effect>
							<name>Drop Shadow</name>
							<effectid>dropshadow</effectid>
							<effectcategory>motion</effectcategory>
							<effecttype>motion</effecttype>
							<mediatype>video</mediatype>
							<parameter>
								<parameterid>offset</parameterid>
								<name>offset</name>
								<valuemin>-100</valuemin>
								<valuemax>100</valuemax>
								<value>2</value>
							</parameter>
							<parameter>
								<parameterid>angle</parameterid>
								<name>angle</name>
								<valuemin>-720</valuemin>
								<valuemax>720</valuemax>
								<value>135</value>
							</parameter>
							<parameter>
								<parameterid>color</parameterid>
								<name>color</name>
								<value>
									<alpha>0</alpha>
									<red>0</red>
									<green>0</green>
									<blue>0</blue>
								</value>
							</parameter>
							<parameter>
								<parameterid>softness</parameterid>
								<name>softness</name>
								<valuemin>0</valuemin>
								<valuemax>100</valuemax>
								<value>10</value>
							</parameter>
							<parameter>
								<parameterid>opacity</parameterid>
								<name>opacity</name>
								<valuemin>0</valuemin>
								<valuemax>100</valuemax>
								<value>50</value>
							</parameter>
						</effect>
					</filter>
					<filter>
						<enabled>FALSE</enabled>
						<effect>
							<name>Motion Blur</name>
							<effectid>motionblur</effectid>
							<effectcategory>motion</effectcategory>
							<effecttype>motion</effecttype>
							<mediatype>video</mediatype>
							<parameter>
								<parameterid>duration</parameterid>
								<name>% Blur</name>
								<valuemin>0</valuemin>
								<valuemax>1000</valuemax>
								<value>500</value>
							</parameter>
							<parameter>
								<parameterid>samples</parameterid>
								<name>Samples</name>
								<valuemin>1</valuemin>
								<valuemax>16</valuemax>
								<value>4</value>
							</parameter>
						</effect>
					</filter>
					<filter>
						<effect>
							<name>Crop</name>
							<effectid>crop</effectid>
							<effectcategory>motion</effectcategory>
							<effecttype>motion</effecttype>
							<mediatype>video</mediatype>
							<parameter>
								<parameterid>left</parameterid>
								<name>left</name>
								<valuemin>0</valuemin>
								<valuemax>100</valuemax>
								<value>0</value>
							</parameter>
							<parameter>
								<parameterid>right</parameterid>
								<name>right</name>
								<valuemin>0</valuemin>
								<valuemax>100</valuemax>
								<value>0</value>
							</parameter>
							<parameter>
								<parameterid>top</parameterid>
								<name>top</name>
								<valuemin>0</valuemin>
								<valuemax>100</valuemax>
								<value>0</value>
							</parameter>
							<parameter>
								<parameterid>bottom</parameterid>
								<name>bottom</name>
								<valuemin>0</valuemin>
								<valuemax>100</valuemax>
								<value>0</value>
							</parameter>
							<parameter>
								<parameterid>edgefeather</parameterid>
								<name>edgefeather</name>
								<valuemin>0</valuemin>
								<valuemax>100</valuemax>
								<value>0</value>
							</parameter>
						</effect>
					</filter>
					<filter>
						<effect>
							<name>Distort</name>
							<effectid>deformation</effectid>
							<effectcategory>motion</effectcategory>
							<effecttype>motion</effecttype>
							<mediatype>video</mediatype>
							<parameter>
								<parameterid>ulcorner</parameterid>
								<name>Upper Left</name>
								<value>
									<horiz>-0.5</horiz>
									<vert>-0.5</vert>
								</value>
							</parameter>
							<parameter>
								<parameterid>urcorner</parameterid>
								<name>Upper Right</name>
								<value>
									<horiz>0.5</horiz>
									<vert>-0.5</vert>
								</value>
							</parameter>
							<parameter>
								<parameterid>lrcorner</parameterid>
								<name>Lower Right</name>
								<value>
									<horiz>0.5</horiz>
									<vert>0.5</vert>
								</value>
							</parameter>
							<parameter>
								<parameterid>llcorner</parameterid>
								<name>Lower Left</name>
								<value>
									<horiz>-0.5</horiz>
									<vert>0.5</vert>
								</value>
							</parameter>
							<parameter>
								<parameterid>aspect</parameterid>
								<name>Aspect</name>
								<valuemin>-10000</valuemin>
								<valuemax>10000</valuemax>
								<value>0</value>
							</parameter>
						</effect>
					</filter>
					<filter>
						<effect>
							<name>Opacity</name>
							<effectid>opacity</effectid>
							<effectcategory>motion</effectcategory>
							<effecttype>motion</effecttype>
							<mediatype>video</mediatype>
							<parameter>
								<parameterid>opacity</parameterid>
								<name>opacity</name>
								<valuemin>0</valuemin>
								<valuemax>100</valuemax>
								<value>100</value>
							</parameter>
						</effect>
					</filter>
					<sourcetrack>
						<mediatype>video</mediatype>
					</sourcetrack>
					<fielddominance>upper</fielddominance>
				</clipitem>
				<clipitem id="msub200012-3011-k2d2-001 3">
					<name>msub200012-3011-k2d2-001</name>
					<duration>5918</duration>
					<rate>
						<ntsc>FALSE</ntsc>
						<timebase>25</timebase>
					</rate>
					<in>3301</in>
					<out>3463</out>
					<start>16119</start>
					<end>16281</end>
					<pixelaspectratio>Square</pixelaspectratio>
					<enabled>TRUE</enabled>
					<anamorphic>FALSE</anamorphic>
					<alphatype>none</alphatype>
					<masterclipid>msub200012-3011-k2d2-001 1</masterclipid>
					<syncoffset>0</syncoffset>
					<logginginfo>
						<description>msub200012-3011-k2d2-001</description>
						<scene/>
						<shottake/>
						<lognote/>
						<good>FALSE</good>
					</logginginfo>
					<labels>
						<label>Good Take</label>
						<label2/>
					</labels>
					<comments>
						<mastercomment1>RÃ…STOFF. BR_FINFREDAG_MSUA_OPRO</mastercomment1>
						<mastercomment2/>
						<mastercomment3/>
						<mastercomment4/>
						<clipcommenta/>
					</comments>
					<file id="msub200012-3011-k2d2-001 2"/>
					<sourcetrack>
						<mediatype>video</mediatype>
					</sourcetrack>
					<fielddominance>upper</fielddominance>
				</clipitem>
				<clipitem id="msub200012-3011-k1d2-004 ">
					<name>msub200012-3011-k1d2-004</name>
					<duration>6412</duration>
					<rate>
						<ntsc>FALSE</ntsc>
						<timebase>25</timebase>
					</rate>
					<in>2749</in>
					<out>2869</out>
					<start>16281</start>
					<end>16401</end>
					<pixelaspectratio>Square</pixelaspectratio>
					<enabled>TRUE</enabled>
					<anamorphic>FALSE</anamorphic>
					<alphatype>none</alphatype>
					<masterclipid>msub200012-3011-k1d2-004 1</masterclipid>
					<logginginfo>
						<description>msub200012-3011-k1d2-004</description>
						<scene/>
						<shottake/>
						<lognote/>
						<good>FALSE</good>
					</logginginfo>
					<labels>
						<label2/>
					</labels>
					<comments>
						<mastercomment1>RÃ…STOFF. BR_FINFREDAG_MSUA_OPRO</mastercomment1>
						<mastercomment2/>
						<mastercomment3/>
						<mastercomment4/>
						<clipcommenta/>
					</comments>
					<file id="msub200012-3011-k1d2-004 2">
						<name>msub200012-3011-k1d2-004.mxf</name>
						<pathurl>file://localhost/omfs/clip.dir/MXF/1080i/msub200012-3011-k1d2-004.mxf</pathurl>
						<rate>
							<timebase>25</timebase>
						</rate>
						<duration>6412</duration>
						<timecode>
							<rate>
								<timebase>25</timebase>
							</rate>
							<string>01:45:42:11</string>
							<frame>158561</frame>
							<displayformat>NDF</displayformat>
							<source>source</source>
						</timecode>
						<media>
							<video>
								<duration>6412</duration>
								<samplecharacteristics>
									<width>1920</width>
									<height>1080</height>
								</samplecharacteristics>
							</video>
							<audio>
								<rate>
									<timebase>48000</timebase>
								</rate>
								<trackcount>1</trackcount>
								<samplecharacteristics>
									<depth>24</depth>
								</samplecharacteristics>
							</audio>
						</media>
					</file>
					<sourcetrack>
						<mediatype>video</mediatype>
					</sourcetrack>
					<link>
						<linkclipref>msub200012-3011-k1d2-004 </linkclipref>
						<mediatype>video</mediatype>
						<trackindex>1</trackindex>
						<clipindex>53</clipindex>
					</link>
					<link>
						<linkclipref>msub200012-3011-k1d2-004 3</linkclipref>
						<mediatype>audio</mediatype>
						<trackindex>1</trackindex>
						<clipindex>49</clipindex>
					</link>
					<link>
						<linkclipref>msub200012-3011-k1d2-004 4</linkclipref>
						<mediatype>audio</mediatype>
						<trackindex>2</trackindex>
						<clipindex>56</clipindex>
					</link>
					<fielddominance>upper</fielddominance>
				</clipitem>
				<clipitem id="msub200012-3011-k1d2-003 ">
					<name>msub200012-3011-k1d2-003</name>
					<duration>16188</duration>
					<rate>
						<ntsc>FALSE</ntsc>
						<timebase>25</timebase>
					</rate>
					<in>4326</in>
					<out>4431</out>
					<start>16401</start>
					<end>16506</end>
					<pixelaspectratio>Square</pixelaspectratio>
					<enabled>TRUE</enabled>
					<anamorphic>FALSE</anamorphic>
					<alphatype>none</alphatype>
					<masterclipid>msub200012-3011-k1d2-003 1</masterclipid>
					<syncoffset>0</syncoffset>
					<logginginfo>
						<description>msub200012-3011-k1d2-003</description>
						<scene/>
						<shottake/>
						<lognote/>
						<good>FALSE</good>
					</logginginfo>
					<labels>
						<label>Best Take</label>
						<label2/>
					</labels>
					<comments>
						<mastercomment1>RÃ…STOFF. BR_FINFREDAG_MSUA_OPRO</mastercomment1>
						<mastercomment2/>
						<mastercomment3/>
						<mastercomment4/>
						<clipcommenta/>
					</comments>
					<file id="msub200012-3011-k1d2-003 2">
						<name>msub200012-3011-k1d2-003.mxf</name>
						<pathurl>file://localhost/omfs/clip.dir/MXF/1080i/msub200012-3011-k1d2-003.mxf</pathurl>
						<rate>
							<timebase>25</timebase>
						</rate>
						<duration>16188</duration>
						<timecode>
							<rate>
								<timebase>25</timebase>
							</rate>
							<string>01:34:54:23</string>
							<frame>142373</frame>
							<displayformat>NDF</displayformat>
							<source>source</source>
						</timecode>
						<media>
							<video>
								<duration>16188</duration>
								<samplecharacteristics>
									<width>1920</width>
									<height>1080</height>
								</samplecharacteristics>
							</video>
							<audio>
								<rate>
									<timebase>48000</timebase>
								</rate>
								<trackcount>1</trackcount>
								<samplecharacteristics>
									<depth>24</depth>
								</samplecharacteristics>
							</audio>
						</media>
					</file>
					<sourcetrack>
						<mediatype>video</mediatype>
					</sourcetrack>
					<link>
						<linkclipref>msub200012-3011-k1d2-003 </linkclipref>
						<mediatype>video</mediatype>
						<trackindex>1</trackindex>
						<clipindex>54</clipindex>
					</link>
					<link>
						<linkclipref>msub200012-3011-k1d2-003 3</linkclipref>
						<mediatype>audio</mediatype>
						<trackindex>1</trackindex>
						<clipindex>51</clipindex>
					</link>
					<link>
						<linkclipref>msub200012-3011-k1d2-003 4</linkclipref>
						<mediatype>audio</mediatype>
						<trackindex>2</trackindex>
						<clipindex>58</clipindex>
					</link>
					<fielddominance>upper</fielddominance>
				</clipitem>
				<clipitem id="msub200012-3011-k2d2-002 ">
					<name>msub200012-3011-k2d2-002</name>
					<duration>16188</duration>
					<rate>
						<ntsc>FALSE</ntsc>
						<timebase>25</timebase>
					</rate>
					<in>4431</in>
					<out>4939</out>
					<start>16506</start>
					<end>17014</end>
					<pixelaspectratio>Square</pixelaspectratio>
					<enabled>TRUE</enabled>
					<anamorphic>FALSE</anamorphic>
					<alphatype>none</alphatype>
					<masterclipid>msub200012-3011-k2d2-002 1</masterclipid>
					<syncoffset>0</syncoffset>
					<logginginfo>
						<description>msub200012-3011-k2d2-002</description>
						<scene/>
						<shottake/>
						<lognote/>
						<good>FALSE</good>
					</logginginfo>
					<labels>
						<label>Best Take</label>
						<label2/>
					</labels>
					<comments>
						<mastercomment1>RÃ…STOFF. BR_FINFREDAG_MSUA_OPRO</mastercomment1>
						<mastercomment2/>
						<mastercomment3/>
						<mastercomment4/>
						<clipcommenta/>
					</comments>
					<file id="msub200012-3011-k2d2-002 2">
						<name>msub200012-3011-k2d2-002.mxf</name>
						<pathurl>file://localhost/omfs/clip.dir/MXF/1080i/msub200012-3011-k2d2-002.mxf</pathurl>
						<rate>
							<timebase>25</timebase>
						</rate>
						<duration>15107</duration>
						<timecode>
							<rate>
								<timebase>25</timebase>
							</rate>
							<string>01:21:08:11</string>
							<frame>121711</frame>
							<displayformat>NDF</displayformat>
							<source>source</source>
						</timecode>
						<media>
							<video>
								<duration>15107</duration>
								<samplecharacteristics>
									<width>1920</width>
									<height>1080</height>
								</samplecharacteristics>
							</video>
							<audio>
								<rate>
									<timebase>48000</timebase>
								</rate>
								<trackcount>1</trackcount>
								<samplecharacteristics>
									<depth>24</depth>
								</samplecharacteristics>
							</audio>
						</media>
					</file>
					<sourcetrack>
						<mediatype>video</mediatype>
					</sourcetrack>
					<fielddominance>upper</fielddominance>
				</clipitem>
				<clipitem id="msub200012-3011-k1d2-003 5">
					<name>msub200012-3011-k1d2-003</name>
					<duration>16188</duration>
					<rate>
						<ntsc>FALSE</ntsc>
						<timebase>25</timebase>
					</rate>
					<in>4939</in>
					<out>5185</out>
					<start>17014</start>
					<end>17260</end>
					<pixelaspectratio>Square</pixelaspectratio>
					<anamorphic>FALSE</anamorphic>
					<alphatype>none</alphatype>
					<masterclipid>msub200012-3011-k1d2-003 1</masterclipid>
					<syncoffset>0</syncoffset>
					<logginginfo>
						<description>msub200012-3011-k1d2-003</description>
						<scene/>
						<shottake/>
						<lognote/>
						<good>FALSE</good>
					</logginginfo>
					<labels>
						<label>Best Take</label>
						<label2/>
					</labels>
					<comments>
						<mastercomment1>RÃ…STOFF. BR_FINFREDAG_MSUA_OPRO</mastercomment1>
						<mastercomment2/>
						<mastercomment3/>
						<mastercomment4/>
						<clipcommenta/>
					</comments>
					<file id="msub200012-3011-k1d2-003 2"/>
					<sourcetrack>
						<mediatype>video</mediatype>
					</sourcetrack>
					<fielddominance>upper</fielddominance>
				</clipitem>
				<clipitem id="msub200012-3011-k2d2-002 3">
					<name>msub200012-3011-k2d2-002</name>
					<duration>16188</duration>
					<rate>
						<ntsc>FALSE</ntsc>
						<timebase>25</timebase>
					</rate>
					<in>5185</in>
					<out>5419</out>
					<start>17260</start>
					<end>17494</end>
					<pixelaspectratio>Square</pixelaspectratio>
					<enabled>TRUE</enabled>
					<anamorphic>FALSE</anamorphic>
					<alphatype>none</alphatype>
					<masterclipid>msub200012-3011-k2d2-002 1</masterclipid>
					<syncoffset>0</syncoffset>
					<logginginfo>
						<description>msub200012-3011-k2d2-002</description>
						<scene/>
						<shottake/>
						<lognote/>
						<good>FALSE</good>
					</logginginfo>
					<labels>
						<label>Best Take</label>
						<label2/>
					</labels>
					<comments>
						<mastercomment1>RÃ…STOFF. BR_FINFREDAG_MSUA_OPRO</mastercomment1>
						<mastercomment2/>
						<mastercomment3/>
						<mastercomment4/>
						<clipcommenta/>
					</comments>
					<file id="msub200012-3011-k2d2-002 2"/>
					<sourcetrack>
						<mediatype>video</mediatype>
					</sourcetrack>
					<fielddominance>upper</fielddominance>
				</clipitem>
				<clipitem id="msub200012-3011-k1d2-004 5">
					<name>msub200012-3011-k1d2-004</name>
					<duration>6412</duration>
					<rate>
						<ntsc>FALSE</ntsc>
						<timebase>25</timebase>
					</rate>
					<in>4954</in>
					<out>5040</out>
					<start>17494</start>
					<end>17580</end>
					<pixelaspectratio>Square</pixelaspectratio>
					<enabled>TRUE</enabled>
					<anamorphic>FALSE</anamorphic>
					<alphatype>none</alphatype>
					<masterclipid>msub200012-3011-k1d2-004 1</masterclipid>
					<logginginfo>
						<description>msub200012-3011-k1d2-004</description>
						<scene/>
						<shottake/>
						<lognote/>
						<good>FALSE</good>
					</logginginfo>
					<labels>
						<label2/>
					</labels>
					<comments>
						<mastercomment1>RÃ…STOFF. BR_FINFREDAG_MSUA_OPRO</mastercomment1>
						<mastercomment2/>
						<mastercomment3/>
						<mastercomment4/>
						<clipcommenta/>
					</comments>
					<file id="msub200012-3011-k1d2-004 2"/>
					<sourcetrack>
						<mediatype>video</mediatype>
					</sourcetrack>
					<link>
						<linkclipref>msub200012-3011-k1d2-004 5</linkclipref>
						<mediatype>video</mediatype>
						<trackindex>1</trackindex>
						<clipindex>58</clipindex>
					</link>
					<link>
						<linkclipref>msub200012-3011-k1d2-004 6</linkclipref>
						<mediatype>audio</mediatype>
						<trackindex>1</trackindex>
						<clipindex>53</clipindex>
					</link>
					<link>
						<linkclipref>msub200012-3011-k1d2-004 7</linkclipref>
						<mediatype>audio</mediatype>
						<trackindex>2</trackindex>
						<clipindex>59</clipindex>
					</link>
					<fielddominance>upper</fielddominance>
				</clipitem>
				<clipitem id="msub200012-3011-k2d2-002 4">
					<name>msub200012-3011-k2d2-002</name>
					<duration>16188</duration>
					<rate>
						<ntsc>FALSE</ntsc>
						<timebase>25</timebase>
					</rate>
					<in>14557</in>
					<out>14881</out>
					<start>17580</start>
					<end>17904</end>
					<pixelaspectratio>Square</pixelaspectratio>
					<enabled>TRUE</enabled>
					<anamorphic>FALSE</anamorphic>
					<alphatype>none</alphatype>
					<masterclipid>msub200012-3011-k2d2-002 1</masterclipid>
					<syncoffset>0</syncoffset>
					<logginginfo>
						<description>msub200012-3011-k2d2-002</description>
						<scene/>
						<shottake/>
						<lognote/>
						<good>FALSE</good>
					</logginginfo>
					<labels>
						<label>Best Take</label>
						<label2/>
					</labels>
					<comments>
						<mastercomment1>RÃ…STOFF. BR_FINFREDAG_MSUA_OPRO</mastercomment1>
						<mastercomment2/>
						<mastercomment3/>
						<mastercomment4/>
						<clipcommenta/>
					</comments>
					<file id="msub200012-3011-k2d2-002 2"/>
					<sourcetrack>
						<mediatype>video</mediatype>
					</sourcetrack>
					<fielddominance>upper</fielddominance>
				</clipitem>
				<clipitem id="msub200012-3011-k1d2-003 6">
					<name>msub200012-3011-k1d2-003</name>
					<duration>16188</duration>
					<rate>
						<ntsc>FALSE</ntsc>
						<timebase>25</timebase>
					</rate>
					<in>14881</in>
					<out>15093</out>
					<start>17904</start>
					<end>18116</end>
					<pixelaspectratio>Square</pixelaspectratio>
					<anamorphic>FALSE</anamorphic>
					<alphatype>none</alphatype>
					<masterclipid>msub200012-3011-k1d2-003 1</masterclipid>
					<syncoffset>0</syncoffset>
					<logginginfo>
						<description>msub200012-3011-k1d2-003</description>
						<scene/>
						<shottake/>
						<lognote/>
						<good>FALSE</good>
					</logginginfo>
					<labels>
						<label>Best Take</label>
						<label2/>
					</labels>
					<comments>
						<mastercomment1>RÃ…STOFF. BR_FINFREDAG_MSUA_OPRO</mastercomment1>
						<mastercomment2/>
						<mastercomment3/>
						<mastercomment4/>
						<clipcommenta/>
					</comments>
					<file id="msub200012-3011-k1d2-003 2"/>
					<sourcetrack>
						<mediatype>video</mediatype>
					</sourcetrack>
					<fielddominance>upper</fielddominance>
				</clipitem>
				<clipitem id="msub200012-3011-k2d2-002 5">
					<name>msub200012-3011-k2d2-002</name>
					<duration>16188</duration>
					<rate>
						<ntsc>FALSE</ntsc>
						<timebase>25</timebase>
					</rate>
					<in>15093</in>
					<out>15162</out>
					<start>18116</start>
					<end>18185</end>
					<pixelaspectratio>Square</pixelaspectratio>
					<enabled>TRUE</enabled>
					<anamorphic>FALSE</anamorphic>
					<alphatype>none</alphatype>
					<masterclipid>msub200012-3011-k2d2-002 1</masterclipid>
					<syncoffset>0</syncoffset>
					<logginginfo>
						<description>msub200012-3011-k2d2-002</description>
						<scene/>
						<shottake/>
						<lognote/>
						<good>FALSE</good>
					</logginginfo>
					<labels>
						<label>Best Take</label>
						<label2/>
					</labels>
					<comments>
						<mastercomment1>RÃ…STOFF. BR_FINFREDAG_MSUA_OPRO</mastercomment1>
						<mastercomment2/>
						<mastercomment3/>
						<mastercomment4/>
						<clipcommenta/>
					</comments>
					<file id="msub200012-3011-k2d2-002 2"/>
					<sourcetrack>
						<mediatype>video</mediatype>
					</sourcetrack>
					<fielddominance>upper</fielddominance>
				</clipitem>
				<clipitem id="msub200012-3011-k1d2-004 8">
					<name>msub200012-3011-k1d2-004</name>
					<duration>6412</duration>
					<rate>
						<ntsc>FALSE</ntsc>
						<timebase>25</timebase>
					</rate>
					<in>6007</in>
					<out>6265</out>
					<start>18185</start>
					<end>18443</end>
					<pixelaspectratio>Square</pixelaspectratio>
					<enabled>TRUE</enabled>
					<anamorphic>FALSE</anamorphic>
					<alphatype>none</alphatype>
					<masterclipid>msub200012-3011-k1d2-004 1</masterclipid>
					<logginginfo>
						<description>msub200012-3011-k1d2-004</description>
						<scene/>
						<shottake/>
						<lognote/>
						<good>FALSE</good>
					</logginginfo>
					<labels>
						<label2/>
					</labels>
					<comments>
						<mastercomment1>RÃ…STOFF. BR_FINFREDAG_MSUA_OPRO</mastercomment1>
						<mastercomment2/>
						<mastercomment3/>
						<mastercomment4/>
						<clipcommenta/>
					</comments>
					<file id="msub200012-3011-k1d2-004 2"/>
					<sourcetrack>
						<mediatype>video</mediatype>
					</sourcetrack>
					<link>
						<linkclipref>msub200012-3011-k1d2-004 8</linkclipref>
						<mediatype>video</mediatype>
						<trackindex>1</trackindex>
						<clipindex>62</clipindex>
					</link>
					<link>
						<linkclipref>msub200012-3011-k1d2-004 9</linkclipref>
						<mediatype>audio</mediatype>
						<trackindex>1</trackindex>
						<clipindex>57</clipindex>
					</link>
					<link>
						<linkclipref>msub200012-3011-k1d2-004 10</linkclipref>
						<mediatype>audio</mediatype>
						<trackindex>2</trackindex>
						<clipindex>63</clipindex>
					</link>
					<fielddominance>upper</fielddominance>
				</clipitem>
				<clipitem id="msub200012-3011-k1d2-006 ">
					<name>msub200012-3011-k1d2-006</name>
					<duration>2909</duration>
					<rate>
						<ntsc>FALSE</ntsc>
						<timebase>25</timebase>
					</rate>
					<in>2017</in>
					<out>2205</out>
					<start>21512</start>
					<end>21700</end>
					<pixelaspectratio>Square</pixelaspectratio>
					<enabled>TRUE</enabled>
					<anamorphic>FALSE</anamorphic>
					<alphatype>none</alphatype>
					<masterclipid>msub200012-3011-k1d2-006 1</masterclipid>
					<syncoffset>0</syncoffset>
					<logginginfo>
						<description>msub200012-3011-k1d2-006</description>
						<scene/>
						<shottake/>
						<lognote/>
						<good>FALSE</good>
					</logginginfo>
					<labels>
						<label>Alternate Shots</label>
						<label2/>
					</labels>
					<comments>
						<mastercomment1>RÃ…STOFF. BR_FINFREDAG_MSUA_OPRO</mastercomment1>
						<mastercomment2/>
						<mastercomment3/>
						<mastercomment4/>
						<clipcommenta/>
					</comments>
					<file id="msub200012-3011-k1d2-006 2">
						<name>msub200012-3011-k1d2-006.mxf</name>
						<pathurl>file://localhost/omfs/clip.dir/MXF/1080i/msub200012-3011-k1d2-006.mxf</pathurl>
						<rate>
							<timebase>25</timebase>
						</rate>
						<duration>2646</duration>
						<timecode>
							<rate>
								<timebase>25</timebase>
							</rate>
							<string>01:50:00:23</string>
							<frame>165023</frame>
							<displayformat>NDF</displayformat>
							<source>source</source>
						</timecode>
						<media>
							<video>
								<duration>2646</duration>
								<samplecharacteristics>
									<width>1920</width>
									<height>1080</height>
								</samplecharacteristics>
							</video>
							<audio>
								<rate>
									<timebase>48000</timebase>
								</rate>
								<trackcount>1</trackcount>
								<samplecharacteristics>
									<depth>24</depth>
								</samplecharacteristics>
							</audio>
						</media>
					</file>
					<sourcetrack>
						<mediatype>video</mediatype>
					</sourcetrack>
					<link>
						<linkclipref>msub200012-3011-k1d2-006 </linkclipref>
						<mediatype>video</mediatype>
						<trackindex>1</trackindex>
						<clipindex>63</clipindex>
					</link>
					<link>
						<linkclipref>msub200012-3011-k1d2-006 3</linkclipref>
						<mediatype>audio</mediatype>
						<trackindex>1</trackindex>
						<clipindex>59</clipindex>
					</link>
					<link>
						<linkclipref>msub200012-3011-k1d2-006 4</linkclipref>
						<mediatype>audio</mediatype>
						<trackindex>2</trackindex>
						<clipindex>65</clipindex>
					</link>
					<fielddominance>upper</fielddominance>
				</clipitem>
				<clipitem id="msub200012-3011-k1d2-007 ">
					<name>msub200012-3011-k1d2-007</name>
					<duration>5622</duration>
					<rate>
						<ntsc>FALSE</ntsc>
						<timebase>25</timebase>
					</rate>
					<in>251</in>
					<out>767</out>
					<start>22602</start>
					<end>-1</end>
					<pixelaspectratio>Square</pixelaspectratio>
					<enabled>TRUE</enabled>
					<anamorphic>FALSE</anamorphic>
					<alphatype>none</alphatype>
					<masterclipid>msub200012-3011-k1d2-007 1</masterclipid>
					<syncoffset>0</syncoffset>
					<logginginfo>
						<description>msub200012-3011-k1d2-007</description>
						<scene/>
						<shottake/>
						<lognote/>
						<good>FALSE</good>
					</logginginfo>
					<labels>
						<label>Interviews</label>
						<label2/>
					</labels>
					<comments>
						<mastercomment1>RÃ…STOFF. BR_FINFREDAG_MSUA_OPRO</mastercomment1>
						<mastercomment2/>
						<mastercomment3/>
						<mastercomment4/>
						<clipcommenta/>
					</comments>
					<file id="msub200012-3011-k1d2-007 2">
						<name>msub200012-3011-k1d2-007.mxf</name>
						<pathurl>file://localhost/omfs/clip.dir/MXF/1080i/msub200012-3011-k1d2-007.mxf</pathurl>
						<rate>
							<timebase>25</timebase>
						</rate>
						<duration>5622</duration>
						<timecode>
							<rate>
								<timebase>25</timebase>
							</rate>
							<string>01:51:52:10</string>
							<frame>167810</frame>
							<displayformat>NDF</displayformat>
							<source>source</source>
						</timecode>
						<media>
							<video>
								<duration>5622</duration>
								<samplecharacteristics>
									<width>1920</width>
									<height>1080</height>
								</samplecharacteristics>
							</video>
							<audio>
								<rate>
									<timebase>48000</timebase>
								</rate>
								<trackcount>1</trackcount>
								<samplecharacteristics>
									<depth>24</depth>
								</samplecharacteristics>
							</audio>
						</media>
					</file>
					<sourcetrack>
						<mediatype>video</mediatype>
					</sourcetrack>
					<link>
						<linkclipref>msub200012-3011-k1d2-007 </linkclipref>
						<mediatype>video</mediatype>
						<trackindex>1</trackindex>
						<clipindex>64</clipindex>
					</link>
					<link>
						<linkclipref>msub200012-3011-k1d2-007 3</linkclipref>
						<mediatype>audio</mediatype>
						<trackindex>1</trackindex>
						<clipindex>62</clipindex>
					</link>
					<link>
						<linkclipref>msub200012-3011-k1d2-007 4</linkclipref>
						<mediatype>audio</mediatype>
						<trackindex>2</trackindex>
						<clipindex>66</clipindex>
					</link>
					<fielddominance>upper</fielddominance>
				</clipitem>
				<transitionitem id="66026628 ">
					<rate>
						<ntsc>FALSE</ntsc>
						<timebase>25</timebase>
					</rate>
					<start>23112</start>
					<end>23118</end>
					<alignment>end</alignment>
					<effect>
						<name>Dip to Color Dissolve</name>
						<effectid>Dip to Color Dissolve</effectid>
						<effectcategory>Dissolve</effectcategory>
						<effecttype>transition</effecttype>
						<mediatype>video</mediatype>
						<wipecode>0</wipecode>
						<wipeaccuracy>100</wipeaccuracy>
						<startratio>0</startratio>
						<endratio>1</endratio>
						<reverse>FALSE</reverse>
						<parameter>
							<parameterid>threshold</parameterid>
							<name>Threshold</name>
							<valuemin>0</valuemin>
							<valuemax>100</valuemax>
							<value>50</value>
						</parameter>
						<parameter>
							<parameterid>soft</parameterid>
							<name>Soft</name>
							<valuemin>0</valuemin>
							<valuemax>100</valuemax>
							<value>100</value>
						</parameter>
						<parameter>
							<parameterid>dipcolor</parameterid>
							<name>Color</name>
							<value>
								<alpha>255</alpha>
								<red>255</red>
								<green>255</green>
								<blue>255</blue>
							</value>
						</parameter>
					</effect>
				</transitionitem>
				<clipitem id="msub200012-2308-k1d1-009 ">
					<name>msub200012-2308-k1d1-009</name>
					<duration>2094</duration>
					<rate>
						<ntsc>FALSE</ntsc>
						<timebase>25</timebase>
					</rate>
					<in>981</in>
					<out>1064</out>
					<start>-1</start>
					<end>23195</end>
					<pixelaspectratio>Square</pixelaspectratio>
					<enabled>TRUE</enabled>
					<anamorphic>FALSE</anamorphic>
					<alphatype>none</alphatype>
					<masterclipid>msub200012-2308-k1d1-009 1</masterclipid>
					<logginginfo>
						<description>msub200012-2308-k1d1-009</description>
						<scene/>
						<shottake/>
						<lognote/>
						<good>FALSE</good>
					</logginginfo>
					<labels>
						<label2/>
					</labels>
					<comments>
						<mastercomment1>RÃ…STOFF. BR_FINFREDAG_MSUA_OPRO</mastercomment1>
						<mastercomment2/>
						<mastercomment3/>
						<mastercomment4/>
					</comments>
					<file id="msub200012-2308-k1d1-009 2">
						<name>msub200012-2308-k1d1-009.mxf</name>
						<pathurl>file://localhost/omfs/clip.dir/MXF/1080i/msub200012-2308-k1d1-009.mxf</pathurl>
						<rate>
							<timebase>25</timebase>
						</rate>
						<duration>2094</duration>
						<timecode>
							<rate>
								<timebase>25</timebase>
							</rate>
							<string>07:36:21:02</string>
							<frame>684527</frame>
							<displayformat>NDF</displayformat>
							<source>source</source>
						</timecode>
						<media>
							<video>
								<duration>2094</duration>
								<samplecharacteristics>
									<width>1920</width>
									<height>1080</height>
								</samplecharacteristics>
							</video>
							<audio>
								<rate>
									<timebase>48000</timebase>
								</rate>
								<trackcount>1</trackcount>
								<samplecharacteristics>
									<depth>24</depth>
								</samplecharacteristics>
							</audio>
						</media>
					</file>
					<filter>
						<enabled>TRUE</enabled>
						<start>-1</start>
						<end>-1</end>
						<effect>
							<name>Color Corrector 3-way Copy</name>
							<effectid>Color Corrector 3-way</effectid>
							<effectcategory>Color Correction</effectcategory>
							<effecttype>filter</effecttype>
							<mediatype>video</mediatype>
							<parameter>
								<parameterid>dispmode</parameterid>
								<name>Display Mode</name>
								<valuemin>1</valuemin>
								<valuemax>3</valuemax>
								<valuelist>
									<valueentry>
										<name>Final</name>
										<value>1</value>
									</valueentry>
									<valueentry>
										<name>Matte</name>
										<value>2</value>
									</valueentry>
									<valueentry>
										<name>Source</name>
										<value>3</value>
									</valueentry>
								</valuelist>
								<value>1</value>
							</parameter>
							<parameter>
								<parameterid>label1</parameterid>
								<name>Blacks Controls</name>
								<value/>
							</parameter>
							<parameter>
								<parameterid>blacklevel</parameterid>
								<name>Level</name>
								<valuemin>-196</valuemin>
								<valuemax>254</valuemax>
								<value>-12</value>
							</parameter>
							<parameter>
								<parameterid>b_hue</parameterid>
								<name>Angle</name>
								<valuemin>-180</valuemin>
								<valuemax>180</valuemax>
								<value>95.2391</value>
							</parameter>
							<parameter>
								<parameterid>b_mag</parameterid>
								<name>Magnitude</name>
								<valuemin>0</valuemin>
								<valuemax>200</valuemax>
								<value>2.06734</value>
							</parameter>
							<parameter>
								<parameterid>label2</parameterid>
								<name>Midrange Controls</name>
								<value/>
							</parameter>
							<parameter>
								<parameterid>mids</parameterid>
								<name>Level</name>
								<valuemin>0</valuemin>
								<valuemax>200</valuemax>
								<value>100</value>
							</parameter>
							<parameter>
								<parameterid>m_hue</parameterid>
								<name>Angle</name>
								<valuemin>-180</valuemin>
								<valuemax>180</valuemax>
								<value>-124.192</value>
							</parameter>
							<parameter>
								<parameterid>m_mag</parameterid>
								<name>Magnitude</name>
								<valuemin>0</valuemin>
								<valuemax>200</valuemax>
								<value>1.1458</value>
							</parameter>
							<parameter>
								<parameterid>label3</parameterid>
								<name>Highlight Controls</name>
								<value/>
							</parameter>
							<parameter>
								<parameterid>highlights</parameterid>
								<name>Level</name>
								<valuemin>64</valuemin>
								<valuemax>509</valuemax>
								<value>280</value>
							</parameter>
							<parameter>
								<parameterid>h_hue</parameterid>
								<name>Angle</name>
								<valuemin>-180</valuemin>
								<valuemax>180</valuemax>
								<value>-125.959</value>
							</parameter>
							<parameter>
								<parameterid>h_mag</parameterid>
								<name>Magnitude</name>
								<valuemin>0</valuemin>
								<valuemax>200</valuemax>
								<value>2.63304</value>
							</parameter>
							<parameter>
								<parameterid>label4</parameterid>
								<name>Color Controls</name>
								<value/>
							</parameter>
							<parameter>
								<parameterid>chroma</parameterid>
								<name>Saturation</name>
								<valuemin>0</valuemin>
								<valuemax>200</valuemax>
								<value>109</value>
							</parameter>
							<parameter>
								<parameterid>label5</parameterid>
								<name>Limit Effect Controls</name>
								<value/>
							</parameter>
							<parameter>
								<parameterid>dochroma</parameterid>
								<name>Limit on Chroma</name>
								<value>FALSE</value>
							</parameter>
							<parameter>
								<parameterid>centerang</parameterid>
								<name>Chroma Center</name>
								<valuemin>-760</valuemin>
								<valuemax>760</valuemax>
								<value>-110</value>
							</parameter>
							<parameter>
								<parameterid>chromawidth</parameterid>
								<name>Chroma Width</name>
								<valuemin>0</valuemin>
								<valuemax>360</valuemax>
								<value>15</value>
							</parameter>
							<parameter>
								<parameterid>chromasoft</parameterid>
								<name>Chroma Softness</name>
								<valuemin>0</valuemin>
								<valuemax>180</valuemax>
								<value>10</value>
							</parameter>
							<parameter>
								<parameterid>dosat</parameterid>
								<name>Limit on Saturation</name>
								<value>FALSE</value>
							</parameter>
							<parameter>
								<parameterid>satmin</parameterid>
								<name>Sat. Minimum</name>
								<valuemin>0</valuemin>
								<valuemax>125</valuemax>
								<value>35</value>
							</parameter>
							<parameter>
								<parameterid>satwidth</parameterid>
								<name>Sat. Width</name>
								<valuemin>0</valuemin>
								<valuemax>125</valuemax>
								<value>40</value>
							</parameter>
							<parameter>
								<parameterid>satsoft</parameterid>
								<name>Sat. Softness</name>
								<valuemin>0</valuemin>
								<valuemax>125</valuemax>
								<value>20</value>
							</parameter>
							<parameter>
								<parameterid>doluma</parameterid>
								<name>Limit on Luma</name>
								<value>FALSE</value>
							</parameter>
							<parameter>
								<parameterid>lumamin</parameterid>
								<name>Luma Minimum</name>
								<valuemin>0</valuemin>
								<valuemax>120</valuemax>
								<value>0</value>
							</parameter>
							<parameter>
								<parameterid>lumawidth</parameterid>
								<name>Luma Width</name>
								<valuemin>0</valuemin>
								<valuemax>120</valuemax>
								<value>40</value>
							</parameter>
							<parameter>
								<parameterid>lumasoft</parameterid>
								<name>Luma Softness</name>
								<valuemin>0</valuemin>
								<valuemax>120</valuemax>
								<value>20</value>
							</parameter>
							<parameter>
								<parameterid>label6</parameterid>
								<name>Edge Control</name>
								<value/>
							</parameter>
							<parameter>
								<parameterid>edgethin</parameterid>
								<name>Thin/Spread</name>
								<valuemin>-100</valuemin>
								<valuemax>100</valuemax>
								<value>0</value>
							</parameter>
							<parameter>
								<parameterid>edgefeather</parameterid>
								<name>Softening</name>
								<valuemin>0</valuemin>
								<valuemax>100</valuemax>
								<value>0</value>
							</parameter>
							<parameter>
								<parameterid>label7</parameterid>
								<name>Mask Control</name>
								<value/>
							</parameter>
							<parameter>
								<parameterid>invertsel</parameterid>
								<name>Invert</name>
								<value>FALSE</value>
							</parameter>
							<parameter>
								<parameterid>debugshow</parameterid>
								<name>Show Stats</name>
								<value>FALSE</value>
							</parameter>
						</effect>
					</filter>
					<sourcetrack>
						<mediatype>video</mediatype>
					</sourcetrack>
					<link>
						<linkclipref>msub200012-2308-k1d1-009 </linkclipref>
						<mediatype>video</mediatype>
						<trackindex>1</trackindex>
						<clipindex>66</clipindex>
					</link>
					<link>
						<linkclipref>msub200012-2308-k1d1-009 3</linkclipref>
						<mediatype>audio</mediatype>
						<trackindex>5</trackindex>
						<clipindex>15</clipindex>
					</link>
					<fielddominance>upper</fielddominance>
				</clipitem>
				<clipitem id="msub200012-2308-k1d1-009 4">
					<name>msub200012-2308-k1d1-009</name>
					<duration>2094</duration>
					<rate>
						<ntsc>FALSE</ntsc>
						<timebase>25</timebase>
					</rate>
					<in>1403</in>
					<out>1431</out>
					<start>23195</start>
					<end>23223</end>
					<pixelaspectratio>Square</pixelaspectratio>
					<enabled>TRUE</enabled>
					<anamorphic>FALSE</anamorphic>
					<alphatype>none</alphatype>
					<masterclipid>msub200012-2308-k1d1-009 1</masterclipid>
					<logginginfo>
						<description>msub200012-2308-k1d1-009</description>
						<scene/>
						<shottake/>
						<lognote/>
						<good>FALSE</good>
					</logginginfo>
					<labels>
						<label2/>
					</labels>
					<comments>
						<mastercomment1>RÃ…STOFF. BR_FINFREDAG_MSUA_OPRO</mastercomment1>
						<mastercomment2/>
						<mastercomment3/>
						<mastercomment4/>
					</comments>
					<file id="msub200012-2308-k1d1-009 2"/>
					<filter>
						<enabled>TRUE</enabled>
						<start>-1</start>
						<end>-1</end>
						<effect>
							<name>Color Corrector 3-way Copy</name>
							<effectid>Color Corrector 3-way</effectid>
							<effectcategory>Color Correction</effectcategory>
							<effecttype>filter</effecttype>
							<mediatype>video</mediatype>
							<parameter>
								<parameterid>dispmode</parameterid>
								<name>Display Mode</name>
								<valuemin>1</valuemin>
								<valuemax>3</valuemax>
								<valuelist>
									<valueentry>
										<name>Final</name>
										<value>1</value>
									</valueentry>
									<valueentry>
										<name>Matte</name>
										<value>2</value>
									</valueentry>
									<valueentry>
										<name>Source</name>
										<value>3</value>
									</valueentry>
								</valuelist>
								<value>1</value>
							</parameter>
							<parameter>
								<parameterid>label1</parameterid>
								<name>Blacks Controls</name>
								<value/>
							</parameter>
							<parameter>
								<parameterid>blacklevel</parameterid>
								<name>Level</name>
								<valuemin>-196</valuemin>
								<valuemax>254</valuemax>
								<value>-12</value>
							</parameter>
							<parameter>
								<parameterid>b_hue</parameterid>
								<name>Angle</name>
								<valuemin>-180</valuemin>
								<valuemax>180</valuemax>
								<value>95.2391</value>
							</parameter>
							<parameter>
								<parameterid>b_mag</parameterid>
								<name>Magnitude</name>
								<valuemin>0</valuemin>
								<valuemax>200</valuemax>
								<value>2.06734</value>
							</parameter>
							<parameter>
								<parameterid>label2</parameterid>
								<name>Midrange Controls</name>
								<value/>
							</parameter>
							<parameter>
								<parameterid>mids</parameterid>
								<name>Level</name>
								<valuemin>0</valuemin>
								<valuemax>200</valuemax>
								<value>100</value>
							</parameter>
							<parameter>
								<parameterid>m_hue</parameterid>
								<name>Angle</name>
								<valuemin>-180</valuemin>
								<valuemax>180</valuemax>
								<value>-124.192</value>
							</parameter>
							<parameter>
								<parameterid>m_mag</parameterid>
								<name>Magnitude</name>
								<valuemin>0</valuemin>
								<valuemax>200</valuemax>
								<value>1.1458</value>
							</parameter>
							<parameter>
								<parameterid>label3</parameterid>
								<name>Highlight Controls</name>
								<value/>
							</parameter>
							<parameter>
								<parameterid>highlights</parameterid>
								<name>Level</name>
								<valuemin>64</valuemin>
								<valuemax>509</valuemax>
								<value>280</value>
							</parameter>
							<parameter>
								<parameterid>h_hue</parameterid>
								<name>Angle</name>
								<valuemin>-180</valuemin>
								<valuemax>180</valuemax>
								<value>-125.959</value>
							</parameter>
							<parameter>
								<parameterid>h_mag</parameterid>
								<name>Magnitude</name>
								<valuemin>0</valuemin>
								<valuemax>200</valuemax>
								<value>2.63304</value>
							</parameter>
							<parameter>
								<parameterid>label4</parameterid>
								<name>Color Controls</name>
								<value/>
							</parameter>
							<parameter>
								<parameterid>chroma</parameterid>
								<name>Saturation</name>
								<valuemin>0</valuemin>
								<valuemax>200</valuemax>
								<value>109</value>
							</parameter>
							<parameter>
								<parameterid>label5</parameterid>
								<name>Limit Effect Controls</name>
								<value/>
							</parameter>
							<parameter>
								<parameterid>dochroma</parameterid>
								<name>Limit on Chroma</name>
								<value>FALSE</value>
							</parameter>
							<parameter>
								<parameterid>centerang</parameterid>
								<name>Chroma Center</name>
								<valuemin>-760</valuemin>
								<valuemax>760</valuemax>
								<value>-110</value>
							</parameter>
							<parameter>
								<parameterid>chromawidth</parameterid>
								<name>Chroma Width</name>
								<valuemin>0</valuemin>
								<valuemax>360</valuemax>
								<value>15</value>
							</parameter>
							<parameter>
								<parameterid>chromasoft</parameterid>
								<name>Chroma Softness</name>
								<valuemin>0</valuemin>
								<valuemax>180</valuemax>
								<value>10</value>
							</parameter>
							<parameter>
								<parameterid>dosat</parameterid>
								<name>Limit on Saturation</name>
								<value>FALSE</value>
							</parameter>
							<parameter>
								<parameterid>satmin</parameterid>
								<name>Sat. Minimum</name>
								<valuemin>0</valuemin>
								<valuemax>125</valuemax>
								<value>35</value>
							</parameter>
							<parameter>
								<parameterid>satwidth</parameterid>
								<name>Sat. Width</name>
								<valuemin>0</valuemin>
								<valuemax>125</valuemax>
								<value>40</value>
							</parameter>
							<parameter>
								<parameterid>satsoft</parameterid>
								<name>Sat. Softness</name>
								<valuemin>0</valuemin>
								<valuemax>125</valuemax>
								<value>20</value>
							</parameter>
							<parameter>
								<parameterid>doluma</parameterid>
								<name>Limit on Luma</name>
								<value>FALSE</value>
							</parameter>
							<parameter>
								<parameterid>lumamin</parameterid>
								<name>Luma Minimum</name>
								<valuemin>0</valuemin>
								<valuemax>120</valuemax>
								<value>0</value>
							</parameter>
							<parameter>
								<parameterid>lumawidth</parameterid>
								<name>Luma Width</name>
								<valuemin>0</valuemin>
								<valuemax>120</valuemax>
								<value>40</value>
							</parameter>
							<parameter>
								<parameterid>lumasoft</parameterid>
								<name>Luma Softness</name>
								<valuemin>0</valuemin>
								<valuemax>120</valuemax>
								<value>20</value>
							</parameter>
							<parameter>
								<parameterid>label6</parameterid>
								<name>Edge Control</name>
								<value/>
							</parameter>
							<parameter>
								<parameterid>edgethin</parameterid>
								<name>Thin/Spread</name>
								<valuemin>-100</valuemin>
								<valuemax>100</valuemax>
								<value>0</value>
							</parameter>
							<parameter>
								<parameterid>edgefeather</parameterid>
								<name>Softening</name>
								<valuemin>0</valuemin>
								<valuemax>100</valuemax>
								<value>0</value>
							</parameter>
							<parameter>
								<parameterid>label7</parameterid>
								<name>Mask Control</name>
								<value/>
							</parameter>
							<parameter>
								<parameterid>invertsel</parameterid>
								<name>Invert</name>
								<value>FALSE</value>
							</parameter>
							<parameter>
								<parameterid>debugshow</parameterid>
								<name>Show Stats</name>
								<value>FALSE</value>
							</parameter>
						</effect>
					</filter>
					<sourcetrack>
						<mediatype>video</mediatype>
					</sourcetrack>
					<link>
						<linkclipref>msub200012-2308-k1d1-009 4</linkclipref>
						<mediatype>video</mediatype>
						<trackindex>1</trackindex>
						<clipindex>67</clipindex>
					</link>
					<link>
						<linkclipref>msub200012-2308-k1d1-009 5</linkclipref>
						<mediatype>audio</mediatype>
						<trackindex>1</trackindex>
						<clipindex>64</clipindex>
					</link>
					<fielddominance>upper</fielddominance>
				</clipitem>
				<clipitem id="msub200012-2108kid1-005 ">
					<name>msub200012-2108kid1-005</name>
					<duration>674</duration>
					<rate>
						<ntsc>FALSE</ntsc>
						<timebase>25</timebase>
					</rate>
					<in>391</in>
					<out>510</out>
					<start>23223</start>
					<end>23342</end>
					<pixelaspectratio>Square</pixelaspectratio>
					<enabled>TRUE</enabled>
					<anamorphic>FALSE</anamorphic>
					<alphatype>none</alphatype>
					<masterclipid>msub200012-2108kid1-005 1</masterclipid>
					<logginginfo>
						<description>msub200012-2108kid1-005</description>
						<scene/>
						<shottake/>
						<lognote/>
						<good>FALSE</good>
					</logginginfo>
					<labels>
						<label2/>
					</labels>
					<comments>
						<mastercomment1>RÃ…STOFF. BR_FINFREDAG_MSUA_OPRO</mastercomment1>
						<mastercomment2/>
						<mastercomment3/>
						<mastercomment4/>
					</comments>
					<file id="msub200012-2108kid1-005 2">
						<name>msub200012-2108kid1-005.mxf</name>
						<pathurl>file://localhost/omfs/clip.dir/MXF/1080i/msub200012-2108kid1-005.mxf</pathurl>
						<rate>
							<timebase>25</timebase>
						</rate>
						<duration>674</duration>
						<timecode>
							<rate>
								<timebase>25</timebase>
							</rate>
							<string>02:02:18:19</string>
							<frame>183469</frame>
							<displayformat>NDF</displayformat>
							<source>source</source>
						</timecode>
						<media>
							<video>
								<duration>674</duration>
								<samplecharacteristics>
									<width>1920</width>
									<height>1080</height>
								</samplecharacteristics>
							</video>
							<audio>
								<rate>
									<timebase>48000</timebase>
								</rate>
								<trackcount>1</trackcount>
								<samplecharacteristics>
									<depth>24</depth>
								</samplecharacteristics>
							</audio>
						</media>
					</file>
					<filter>
						<enabled>TRUE</enabled>
						<start>-1</start>
						<end>-1</end>
						<effect>
							<name>Color Corrector 3-way Copy</name>
							<effectid>Color Corrector 3-way</effectid>
							<effectcategory>Color Correction</effectcategory>
							<effecttype>filter</effecttype>
							<mediatype>video</mediatype>
							<parameter>
								<parameterid>dispmode</parameterid>
								<name>Display Mode</name>
								<valuemin>1</valuemin>
								<valuemax>3</valuemax>
								<valuelist>
									<valueentry>
										<name>Final</name>
										<value>1</value>
									</valueentry>
									<valueentry>
										<name>Matte</name>
										<value>2</value>
									</valueentry>
									<valueentry>
										<name>Source</name>
										<value>3</value>
									</valueentry>
								</valuelist>
								<value>1</value>
							</parameter>
							<parameter>
								<parameterid>label1</parameterid>
								<name>Blacks Controls</name>
								<value/>
							</parameter>
							<parameter>
								<parameterid>blacklevel</parameterid>
								<name>Level</name>
								<valuemin>-196</valuemin>
								<valuemax>254</valuemax>
								<value>-7</value>
							</parameter>
							<parameter>
								<parameterid>b_hue</parameterid>
								<name>Angle</name>
								<valuemin>-180</valuemin>
								<valuemax>180</valuemax>
								<value>-33</value>
							</parameter>
							<parameter>
								<parameterid>b_mag</parameterid>
								<name>Magnitude</name>
								<valuemin>0</valuemin>
								<valuemax>200</valuemax>
								<value>0</value>
							</parameter>
							<parameter>
								<parameterid>label2</parameterid>
								<name>Midrange Controls</name>
								<value/>
							</parameter>
							<parameter>
								<parameterid>mids</parameterid>
								<name>Level</name>
								<valuemin>0</valuemin>
								<valuemax>200</valuemax>
								<value>100</value>
							</parameter>
							<parameter>
								<parameterid>m_hue</parameterid>
								<name>Angle</name>
								<valuemin>-180</valuemin>
								<valuemax>180</valuemax>
								<value>-33</value>
							</parameter>
							<parameter>
								<parameterid>m_mag</parameterid>
								<name>Magnitude</name>
								<valuemin>0</valuemin>
								<valuemax>200</valuemax>
								<value>0</value>
							</parameter>
							<parameter>
								<parameterid>label3</parameterid>
								<name>Highlight Controls</name>
								<value/>
							</parameter>
							<parameter>
								<parameterid>highlights</parameterid>
								<name>Level</name>
								<valuemin>64</valuemin>
								<valuemax>509</valuemax>
								<value>286</value>
							</parameter>
							<parameter>
								<parameterid>h_hue</parameterid>
								<name>Angle</name>
								<valuemin>-180</valuemin>
								<valuemax>180</valuemax>
								<value>-33</value>
							</parameter>
							<parameter>
								<parameterid>h_mag</parameterid>
								<name>Magnitude</name>
								<valuemin>0</valuemin>
								<valuemax>200</valuemax>
								<value>0</value>
							</parameter>
							<parameter>
								<parameterid>label4</parameterid>
								<name>Color Controls</name>
								<value/>
							</parameter>
							<parameter>
								<parameterid>chroma</parameterid>
								<name>Saturation</name>
								<valuemin>0</valuemin>
								<valuemax>200</valuemax>
								<value>100</value>
							</parameter>
							<parameter>
								<parameterid>label5</parameterid>
								<name>Limit Effect Controls</name>
								<value/>
							</parameter>
							<parameter>
								<parameterid>dochroma</parameterid>
								<name>Limit on Chroma</name>
								<value>FALSE</value>
							</parameter>
							<parameter>
								<parameterid>centerang</parameterid>
								<name>Chroma Center</name>
								<valuemin>-760</valuemin>
								<valuemax>760</valuemax>
								<value>-110</value>
							</parameter>
							<parameter>
								<parameterid>chromawidth</parameterid>
								<name>Chroma Width</name>
								<valuemin>0</valuemin>
								<valuemax>360</valuemax>
								<value>15</value>
							</parameter>
							<parameter>
								<parameterid>chromasoft</parameterid>
								<name>Chroma Softness</name>
								<valuemin>0</valuemin>
								<valuemax>180</valuemax>
								<value>10</value>
							</parameter>
							<parameter>
								<parameterid>dosat</parameterid>
								<name>Limit on Saturation</name>
								<value>FALSE</value>
							</parameter>
							<parameter>
								<parameterid>satmin</parameterid>
								<name>Sat. Minimum</name>
								<valuemin>0</valuemin>
								<valuemax>125</valuemax>
								<value>35</value>
							</parameter>
							<parameter>
								<parameterid>satwidth</parameterid>
								<name>Sat. Width</name>
								<valuemin>0</valuemin>
								<valuemax>125</valuemax>
								<value>40</value>
							</parameter>
							<parameter>
								<parameterid>satsoft</parameterid>
								<name>Sat. Softness</name>
								<valuemin>0</valuemin>
								<valuemax>125</valuemax>
								<value>20</value>
							</parameter>
							<parameter>
								<parameterid>doluma</parameterid>
								<name>Limit on Luma</name>
								<value>FALSE</value>
							</parameter>
							<parameter>
								<parameterid>lumamin</parameterid>
								<name>Luma Minimum</name>
								<valuemin>0</valuemin>
								<valuemax>120</valuemax>
								<value>0</value>
							</parameter>
							<parameter>
								<parameterid>lumawidth</parameterid>
								<name>Luma Width</name>
								<valuemin>0</valuemin>
								<valuemax>120</valuemax>
								<value>40</value>
							</parameter>
							<parameter>
								<parameterid>lumasoft</parameterid>
								<name>Luma Softness</name>
								<valuemin>0</valuemin>
								<valuemax>120</valuemax>
								<value>20</value>
							</parameter>
							<parameter>
								<parameterid>label6</parameterid>
								<name>Edge Control</name>
								<value/>
							</parameter>
							<parameter>
								<parameterid>edgethin</parameterid>
								<name>Thin/Spread</name>
								<valuemin>-100</valuemin>
								<valuemax>100</valuemax>
								<value>0</value>
							</parameter>
							<parameter>
								<parameterid>edgefeather</parameterid>
								<name>Softening</name>
								<valuemin>0</valuemin>
								<valuemax>100</valuemax>
								<value>0</value>
							</parameter>
							<parameter>
								<parameterid>label7</parameterid>
								<name>Mask Control</name>
								<value/>
							</parameter>
							<parameter>
								<parameterid>invertsel</parameterid>
								<name>Invert</name>
								<value>FALSE</value>
							</parameter>
							<parameter>
								<parameterid>debugshow</parameterid>
								<name>Show Stats</name>
								<value>FALSE</value>
							</parameter>
						</effect>
					</filter>
					<sourcetrack>
						<mediatype>video</mediatype>
					</sourcetrack>
					<fielddominance>upper</fielddominance>
				</clipitem>
				<clipitem id="msub200012-2108kid1-026 ">
					<name>msub200012-2108kid1-026</name>
					<duration>2145</duration>
					<rate>
						<ntsc>FALSE</ntsc>
						<timebase>25</timebase>
					</rate>
					<in>242</in>
					<out>269</out>
					<start>23342</start>
					<end>23369</end>
					<pixelaspectratio>Square</pixelaspectratio>
					<enabled>TRUE</enabled>
					<anamorphic>FALSE</anamorphic>
					<alphatype>none</alphatype>
					<masterclipid>msub200012-2108kid1-026 1</masterclipid>
					<logginginfo>
						<description>msub200012-2108kid1-026</description>
						<scene/>
						<shottake/>
						<lognote/>
						<good>FALSE</good>
					</logginginfo>
					<labels>
						<label2/>
					</labels>
					<comments>
						<mastercomment1>RÃ…STOFF. BR_FINFREDAG_MSUA_OPRO</mastercomment1>
						<mastercomment2/>
						<mastercomment3/>
						<mastercomment4/>
					</comments>
					<file id="msub200012-2108kid1-026 2">
						<name>msub200012-2108kid1-026.mxf</name>
						<pathurl>file://localhost/omfs/clip.dir/MXF/1080i/msub200012-2108kid1-026.mxf</pathurl>
						<rate>
							<timebase>25</timebase>
						</rate>
						<duration>2145</duration>
						<timecode>
							<rate>
								<timebase>25</timebase>
							</rate>
							<string>02:21:09:01</string>
							<frame>211726</frame>
							<displayformat>NDF</displayformat>
							<source>source</source>
						</timecode>
						<media>
							<video>
								<duration>2145</duration>
								<samplecharacteristics>
									<width>1920</width>
									<height>1080</height>
								</samplecharacteristics>
							</video>
							<audio>
								<rate>
									<timebase>48000</timebase>
								</rate>
								<trackcount>1</trackcount>
								<samplecharacteristics>
									<depth>24</depth>
								</samplecharacteristics>
							</audio>
						</media>
					</file>
					<filter>
						<enabled>TRUE</enabled>
						<start>-1</start>
						<end>-1</end>
						<effect>
							<name>Color Corrector 3-way Copy</name>
							<effectid>Color Corrector 3-way</effectid>
							<effectcategory>Color Correction</effectcategory>
							<effecttype>filter</effecttype>
							<mediatype>video</mediatype>
							<parameter>
								<parameterid>dispmode</parameterid>
								<name>Display Mode</name>
								<valuemin>1</valuemin>
								<valuemax>3</valuemax>
								<valuelist>
									<valueentry>
										<name>Final</name>
										<value>1</value>
									</valueentry>
									<valueentry>
										<name>Matte</name>
										<value>2</value>
									</valueentry>
									<valueentry>
										<name>Source</name>
										<value>3</value>
									</valueentry>
								</valuelist>
								<value>1</value>
							</parameter>
							<parameter>
								<parameterid>label1</parameterid>
								<name>Blacks Controls</name>
								<value/>
							</parameter>
							<parameter>
								<parameterid>blacklevel</parameterid>
								<name>Level</name>
								<valuemin>-196</valuemin>
								<valuemax>254</valuemax>
								<value>-14</value>
							</parameter>
							<parameter>
								<parameterid>b_hue</parameterid>
								<name>Angle</name>
								<valuemin>-180</valuemin>
								<valuemax>180</valuemax>
								<value>-6.94418</value>
							</parameter>
							<parameter>
								<parameterid>b_mag</parameterid>
								<name>Magnitude</name>
								<valuemin>0</valuemin>
								<valuemax>200</valuemax>
								<value>4.24058</value>
							</parameter>
							<parameter>
								<parameterid>label2</parameterid>
								<name>Midrange Controls</name>
								<value/>
							</parameter>
							<parameter>
								<parameterid>mids</parameterid>
								<name>Level</name>
								<valuemin>0</valuemin>
								<valuemax>200</valuemax>
								<value>105</value>
							</parameter>
							<parameter>
								<parameterid>m_hue</parameterid>
								<name>Angle</name>
								<valuemin>-180</valuemin>
								<valuemax>180</valuemax>
								<value>-33</value>
							</parameter>
							<parameter>
								<parameterid>m_mag</parameterid>
								<name>Magnitude</name>
								<valuemin>0</valuemin>
								<valuemax>200</valuemax>
								<value>0</value>
							</parameter>
							<parameter>
								<parameterid>label3</parameterid>
								<name>Highlight Controls</name>
								<value/>
							</parameter>
							<parameter>
								<parameterid>highlights</parameterid>
								<name>Level</name>
								<valuemin>64</valuemin>
								<valuemax>509</valuemax>
								<value>242</value>
							</parameter>
							<parameter>
								<parameterid>h_hue</parameterid>
								<name>Angle</name>
								<valuemin>-180</valuemin>
								<valuemax>180</valuemax>
								<value>143.663</value>
							</parameter>
							<parameter>
								<parameterid>h_mag</parameterid>
								<name>Magnitude</name>
								<valuemin>0</valuemin>
								<valuemax>200</valuemax>
								<value>5.59088</value>
							</parameter>
							<parameter>
								<parameterid>label4</parameterid>
								<name>Color Controls</name>
								<value/>
							</parameter>
							<parameter>
								<parameterid>chroma</parameterid>
								<name>Saturation</name>
								<valuemin>0</valuemin>
								<valuemax>200</valuemax>
								<value>100</value>
							</parameter>
							<parameter>
								<parameterid>label5</parameterid>
								<name>Limit Effect Controls</name>
								<value/>
							</parameter>
							<parameter>
								<parameterid>dochroma</parameterid>
								<name>Limit on Chroma</name>
								<value>FALSE</value>
							</parameter>
							<parameter>
								<parameterid>centerang</parameterid>
								<name>Chroma Center</name>
								<valuemin>-760</valuemin>
								<valuemax>760</valuemax>
								<value>-110</value>
							</parameter>
							<parameter>
								<parameterid>chromawidth</parameterid>
								<name>Chroma Width</name>
								<valuemin>0</valuemin>
								<valuemax>360</valuemax>
								<value>15</value>
							</parameter>
							<parameter>
								<parameterid>chromasoft</parameterid>
								<name>Chroma Softness</name>
								<valuemin>0</valuemin>
								<valuemax>180</valuemax>
								<value>10</value>
							</parameter>
							<parameter>
								<parameterid>dosat</parameterid>
								<name>Limit on Saturation</name>
								<value>FALSE</value>
							</parameter>
							<parameter>
								<parameterid>satmin</parameterid>
								<name>Sat. Minimum</name>
								<valuemin>0</valuemin>
								<valuemax>125</valuemax>
								<value>35</value>
							</parameter>
							<parameter>
								<parameterid>satwidth</parameterid>
								<name>Sat. Width</name>
								<valuemin>0</valuemin>
								<valuemax>125</valuemax>
								<value>40</value>
							</parameter>
							<parameter>
								<parameterid>satsoft</parameterid>
								<name>Sat. Softness</name>
								<valuemin>0</valuemin>
								<valuemax>125</valuemax>
								<value>20</value>
							</parameter>
							<parameter>
								<parameterid>doluma</parameterid>
								<name>Limit on Luma</name>
								<value>FALSE</value>
							</parameter>
							<parameter>
								<parameterid>lumamin</parameterid>
								<name>Luma Minimum</name>
								<valuemin>0</valuemin>
								<valuemax>120</valuemax>
								<value>0</value>
							</parameter>
							<parameter>
								<parameterid>lumawidth</parameterid>
								<name>Luma Width</name>
								<valuemin>0</valuemin>
								<valuemax>120</valuemax>
								<value>40</value>
							</parameter>
							<parameter>
								<parameterid>lumasoft</parameterid>
								<name>Luma Softness</name>
								<valuemin>0</valuemin>
								<valuemax>120</valuemax>
								<value>20</value>
							</parameter>
							<parameter>
								<parameterid>label6</parameterid>
								<name>Edge Control</name>
								<value/>
							</parameter>
							<parameter>
								<parameterid>edgethin</parameterid>
								<name>Thin/Spread</name>
								<valuemin>-100</valuemin>
								<valuemax>100</valuemax>
								<value>0</value>
							</parameter>
							<parameter>
								<parameterid>edgefeather</parameterid>
								<name>Softening</name>
								<valuemin>0</valuemin>
								<valuemax>100</valuemax>
								<value>0</value>
							</parameter>
							<parameter>
								<parameterid>label7</parameterid>
								<name>Mask Control</name>
								<value/>
							</parameter>
							<parameter>
								<parameterid>invertsel</parameterid>
								<name>Invert</name>
								<value>FALSE</value>
							</parameter>
							<parameter>
								<parameterid>debugshow</parameterid>
								<name>Show Stats</name>
								<value>FALSE</value>
							</parameter>
						</effect>
					</filter>
					<sourcetrack>
						<mediatype>video</mediatype>
					</sourcetrack>
					<fielddominance>upper</fielddominance>
				</clipitem>
				<clipitem id="msub200012-2108kid1-026 3">
					<name>msub200012-2108kid1-026</name>
					<duration>2145</duration>
					<rate>
						<ntsc>FALSE</ntsc>
						<timebase>25</timebase>
					</rate>
					<in>359</in>
					<out>423</out>
					<start>23369</start>
					<end>23433</end>
					<pixelaspectratio>Square</pixelaspectratio>
					<enabled>TRUE</enabled>
					<anamorphic>FALSE</anamorphic>
					<alphatype>none</alphatype>
					<masterclipid>msub200012-2108kid1-026 1</masterclipid>
					<logginginfo>
						<description>msub200012-2108kid1-026</description>
						<scene/>
						<shottake/>
						<lognote/>
						<good>FALSE</good>
					</logginginfo>
					<labels>
						<label2/>
					</labels>
					<comments>
						<mastercomment1>RÃ…STOFF. BR_FINFREDAG_MSUA_OPRO</mastercomment1>
						<mastercomment2/>
						<mastercomment3/>
						<mastercomment4/>
					</comments>
					<file id="msub200012-2108kid1-026 2"/>
					<filter>
						<enabled>TRUE</enabled>
						<start>-1</start>
						<end>-1</end>
						<effect>
							<name>Color Corrector 3-way Copy</name>
							<effectid>Color Corrector 3-way</effectid>
							<effectcategory>Color Correction</effectcategory>
							<effecttype>filter</effecttype>
							<mediatype>video</mediatype>
							<parameter>
								<parameterid>dispmode</parameterid>
								<name>Display Mode</name>
								<valuemin>1</valuemin>
								<valuemax>3</valuemax>
								<valuelist>
									<valueentry>
										<name>Final</name>
										<value>1</value>
									</valueentry>
									<valueentry>
										<name>Matte</name>
										<value>2</value>
									</valueentry>
									<valueentry>
										<name>Source</name>
										<value>3</value>
									</valueentry>
								</valuelist>
								<value>1</value>
							</parameter>
							<parameter>
								<parameterid>label1</parameterid>
								<name>Blacks Controls</name>
								<value/>
							</parameter>
							<parameter>
								<parameterid>blacklevel</parameterid>
								<name>Level</name>
								<valuemin>-196</valuemin>
								<valuemax>254</valuemax>
								<value>-14</value>
							</parameter>
							<parameter>
								<parameterid>b_hue</parameterid>
								<name>Angle</name>
								<valuemin>-180</valuemin>
								<valuemax>180</valuemax>
								<value>-6.94418</value>
							</parameter>
							<parameter>
								<parameterid>b_mag</parameterid>
								<name>Magnitude</name>
								<valuemin>0</valuemin>
								<valuemax>200</valuemax>
								<value>4.24058</value>
							</parameter>
							<parameter>
								<parameterid>label2</parameterid>
								<name>Midrange Controls</name>
								<value/>
							</parameter>
							<parameter>
								<parameterid>mids</parameterid>
								<name>Level</name>
								<valuemin>0</valuemin>
								<valuemax>200</valuemax>
								<value>105</value>
							</parameter>
							<parameter>
								<parameterid>m_hue</parameterid>
								<name>Angle</name>
								<valuemin>-180</valuemin>
								<valuemax>180</valuemax>
								<value>-33</value>
							</parameter>
							<parameter>
								<parameterid>m_mag</parameterid>
								<name>Magnitude</name>
								<valuemin>0</valuemin>
								<valuemax>200</valuemax>
								<value>0</value>
							</parameter>
							<parameter>
								<parameterid>label3</parameterid>
								<name>Highlight Controls</name>
								<value/>
							</parameter>
							<parameter>
								<parameterid>highlights</parameterid>
								<name>Level</name>
								<valuemin>64</valuemin>
								<valuemax>509</valuemax>
								<value>242</value>
							</parameter>
							<parameter>
								<parameterid>h_hue</parameterid>
								<name>Angle</name>
								<valuemin>-180</valuemin>
								<valuemax>180</valuemax>
								<value>143.663</value>
							</parameter>
							<parameter>
								<parameterid>h_mag</parameterid>
								<name>Magnitude</name>
								<valuemin>0</valuemin>
								<valuemax>200</valuemax>
								<value>5.59088</value>
							</parameter>
							<parameter>
								<parameterid>label4</parameterid>
								<name>Color Controls</name>
								<value/>
							</parameter>
							<parameter>
								<parameterid>chroma</parameterid>
								<name>Saturation</name>
								<valuemin>0</valuemin>
								<valuemax>200</valuemax>
								<value>100</value>
							</parameter>
							<parameter>
								<parameterid>label5</parameterid>
								<name>Limit Effect Controls</name>
								<value/>
							</parameter>
							<parameter>
								<parameterid>dochroma</parameterid>
								<name>Limit on Chroma</name>
								<value>FALSE</value>
							</parameter>
							<parameter>
								<parameterid>centerang</parameterid>
								<name>Chroma Center</name>
								<valuemin>-760</valuemin>
								<valuemax>760</valuemax>
								<value>-110</value>
							</parameter>
							<parameter>
								<parameterid>chromawidth</parameterid>
								<name>Chroma Width</name>
								<valuemin>0</valuemin>
								<valuemax>360</valuemax>
								<value>15</value>
							</parameter>
							<parameter>
								<parameterid>chromasoft</parameterid>
								<name>Chroma Softness</name>
								<valuemin>0</valuemin>
								<valuemax>180</valuemax>
								<value>10</value>
							</parameter>
							<parameter>
								<parameterid>dosat</parameterid>
								<name>Limit on Saturation</name>
								<value>FALSE</value>
							</parameter>
							<parameter>
								<parameterid>satmin</parameterid>
								<name>Sat. Minimum</name>
								<valuemin>0</valuemin>
								<valuemax>125</valuemax>
								<value>35</value>
							</parameter>
							<parameter>
								<parameterid>satwidth</parameterid>
								<name>Sat. Width</name>
								<valuemin>0</valuemin>
								<valuemax>125</valuemax>
								<value>40</value>
							</parameter>
							<parameter>
								<parameterid>satsoft</parameterid>
								<name>Sat. Softness</name>
								<valuemin>0</valuemin>
								<valuemax>125</valuemax>
								<value>20</value>
							</parameter>
							<parameter>
								<parameterid>doluma</parameterid>
								<name>Limit on Luma</name>
								<value>FALSE</value>
							</parameter>
							<parameter>
								<parameterid>lumamin</parameterid>
								<name>Luma Minimum</name>
								<valuemin>0</valuemin>
								<valuemax>120</valuemax>
								<value>0</value>
							</parameter>
							<parameter>
								<parameterid>lumawidth</parameterid>
								<name>Luma Width</name>
								<valuemin>0</valuemin>
								<valuemax>120</valuemax>
								<value>40</value>
							</parameter>
							<parameter>
								<parameterid>lumasoft</parameterid>
								<name>Luma Softness</name>
								<valuemin>0</valuemin>
								<valuemax>120</valuemax>
								<value>20</value>
							</parameter>
							<parameter>
								<parameterid>label6</parameterid>
								<name>Edge Control</name>
								<value/>
							</parameter>
							<parameter>
								<parameterid>edgethin</parameterid>
								<name>Thin/Spread</name>
								<valuemin>-100</valuemin>
								<valuemax>100</valuemax>
								<value>0</value>
							</parameter>
							<parameter>
								<parameterid>edgefeather</parameterid>
								<name>Softening</name>
								<valuemin>0</valuemin>
								<valuemax>100</valuemax>
								<value>0</value>
							</parameter>
							<parameter>
								<parameterid>label7</parameterid>
								<name>Mask Control</name>
								<value/>
							</parameter>
							<parameter>
								<parameterid>invertsel</parameterid>
								<name>Invert</name>
								<value>FALSE</value>
							</parameter>
							<parameter>
								<parameterid>debugshow</parameterid>
								<name>Show Stats</name>
								<value>FALSE</value>
							</parameter>
						</effect>
					</filter>
					<sourcetrack>
						<mediatype>video</mediatype>
					</sourcetrack>
					<fielddominance>upper</fielddominance>
				</clipitem>
				<clipitem id="msub200012-2108kid1-017 ">
					<name>msub200012-2108kid1-017</name>
					<duration>2619</duration>
					<rate>
						<ntsc>FALSE</ntsc>
						<timebase>25</timebase>
					</rate>
					<in>1618</in>
					<out>1670</out>
					<start>23433</start>
					<end>23485</end>
					<pixelaspectratio>Square</pixelaspectratio>
					<enabled>TRUE</enabled>
					<anamorphic>FALSE</anamorphic>
					<alphatype>none</alphatype>
					<masterclipid>msub200012-2108kid1-017 1</masterclipid>
					<logginginfo>
						<description>msub200012-2108kid1-017</description>
						<scene/>
						<shottake/>
						<lognote/>
						<good>FALSE</good>
					</logginginfo>
					<labels>
						<label2/>
					</labels>
					<comments>
						<mastercomment1>RÃ…STOFF. BR_FINFREDAG_MSUA_OPRO</mastercomment1>
						<mastercomment2/>
						<mastercomment3/>
						<mastercomment4/>
					</comments>
					<file id="msub200012-2108kid1-017 2">
						<name>msub200012-2108kid1-017.mxf</name>
						<pathurl>file://localhost/omfs/clip.dir/MXF/1080i/msub200012-2108kid1-017.mxf</pathurl>
						<rate>
							<timebase>25</timebase>
						</rate>
						<duration>2619</duration>
						<timecode>
							<rate>
								<timebase>25</timebase>
							</rate>
							<string>02:08:17:21</string>
							<frame>192446</frame>
							<displayformat>NDF</displayformat>
							<source>source</source>
						</timecode>
						<media>
							<video>
								<duration>2619</duration>
								<samplecharacteristics>
									<width>1920</width>
									<height>1080</height>
								</samplecharacteristics>
							</video>
							<audio>
								<rate>
									<timebase>48000</timebase>
								</rate>
								<trackcount>1</trackcount>
								<samplecharacteristics>
									<depth>24</depth>
								</samplecharacteristics>
							</audio>
						</media>
					</file>
					<filter>
						<start>-1</start>
						<end>-1</end>
						<effect>
							<name>Color Corrector 3-way Copy</name>
							<effectid>Color Corrector 3-way</effectid>
							<effectcategory>Color Correction</effectcategory>
							<effecttype>filter</effecttype>
							<mediatype>video</mediatype>
							<parameter>
								<parameterid>dispmode</parameterid>
								<name>Display Mode</name>
								<valuemin>1</valuemin>
								<valuemax>3</valuemax>
								<valuelist>
									<valueentry>
										<name>Final</name>
										<value>1</value>
									</valueentry>
									<valueentry>
										<name>Matte</name>
										<value>2</value>
									</valueentry>
									<valueentry>
										<name>Source</name>
										<value>3</value>
									</valueentry>
								</valuelist>
								<value>1</value>
							</parameter>
							<parameter>
								<parameterid>label1</parameterid>
								<name>Blacks Controls</name>
								<value/>
							</parameter>
							<parameter>
								<parameterid>blacklevel</parameterid>
								<name>Level</name>
								<valuemin>-196</valuemin>
								<valuemax>254</valuemax>
								<value>-5</value>
							</parameter>
							<parameter>
								<parameterid>b_hue</parameterid>
								<name>Angle</name>
								<valuemin>-180</valuemin>
								<valuemax>180</valuemax>
								<value>-33</value>
							</parameter>
							<parameter>
								<parameterid>b_mag</parameterid>
								<name>Magnitude</name>
								<valuemin>0</valuemin>
								<valuemax>200</valuemax>
								<value>0</value>
							</parameter>
							<parameter>
								<parameterid>label2</parameterid>
								<name>Midrange Controls</name>
								<value/>
							</parameter>
							<parameter>
								<parameterid>mids</parameterid>
								<name>Level</name>
								<valuemin>0</valuemin>
								<valuemax>200</valuemax>
								<value>109</value>
							</parameter>
							<parameter>
								<parameterid>m_hue</parameterid>
								<name>Angle</name>
								<valuemin>-180</valuemin>
								<valuemax>180</valuemax>
								<value>-33</value>
							</parameter>
							<parameter>
								<parameterid>m_mag</parameterid>
								<name>Magnitude</name>
								<valuemin>0</valuemin>
								<valuemax>200</valuemax>
								<value>0</value>
							</parameter>
							<parameter>
								<parameterid>label3</parameterid>
								<name>Highlight Controls</name>
								<value/>
							</parameter>
							<parameter>
								<parameterid>highlights</parameterid>
								<name>Level</name>
								<valuemin>64</valuemin>
								<valuemax>509</valuemax>
								<value>310</value>
							</parameter>
							<parameter>
								<parameterid>h_hue</parameterid>
								<name>Angle</name>
								<valuemin>-180</valuemin>
								<valuemax>180</valuemax>
								<value>126.766</value>
							</parameter>
							<parameter>
								<parameterid>h_mag</parameterid>
								<name>Magnitude</name>
								<valuemin>0</valuemin>
								<valuemax>200</valuemax>
								<value>7.49176</value>
							</parameter>
							<parameter>
								<parameterid>label4</parameterid>
								<name>Color Controls</name>
								<value/>
							</parameter>
							<parameter>
								<parameterid>chroma</parameterid>
								<name>Saturation</name>
								<valuemin>0</valuemin>
								<valuemax>200</valuemax>
								<value>107</value>
							</parameter>
							<parameter>
								<parameterid>label5</parameterid>
								<name>Limit Effect Controls</name>
								<value/>
							</parameter>
							<parameter>
								<parameterid>dochroma</parameterid>
								<name>Limit on Chroma</name>
								<value>FALSE</value>
							</parameter>
							<parameter>
								<parameterid>centerang</parameterid>
								<name>Chroma Center</name>
								<valuemin>-760</valuemin>
								<valuemax>760</valuemax>
								<value>-110</value>
							</parameter>
							<parameter>
								<parameterid>chromawidth</parameterid>
								<name>Chroma Width</name>
								<valuemin>0</valuemin>
								<valuemax>360</valuemax>
								<value>15</value>
							</parameter>
							<parameter>
								<parameterid>chromasoft</parameterid>
								<name>Chroma Softness</name>
								<valuemin>0</valuemin>
								<valuemax>180</valuemax>
								<value>10</value>
							</parameter>
							<parameter>
								<parameterid>dosat</parameterid>
								<name>Limit on Saturation</name>
								<value>FALSE</value>
							</parameter>
							<parameter>
								<parameterid>satmin</parameterid>
								<name>Sat. Minimum</name>
								<valuemin>0</valuemin>
								<valuemax>125</valuemax>
								<value>35</value>
							</parameter>
							<parameter>
								<parameterid>satwidth</parameterid>
								<name>Sat. Width</name>
								<valuemin>0</valuemin>
								<valuemax>125</valuemax>
								<value>40</value>
							</parameter>
							<parameter>
								<parameterid>satsoft</parameterid>
								<name>Sat. Softness</name>
								<valuemin>0</valuemin>
								<valuemax>125</valuemax>
								<value>20</value>
							</parameter>
							<parameter>
								<parameterid>doluma</parameterid>
								<name>Limit on Luma</name>
								<value>FALSE</value>
							</parameter>
							<parameter>
								<parameterid>lumamin</parameterid>
								<name>Luma Minimum</name>
								<valuemin>0</valuemin>
								<valuemax>120</valuemax>
								<value>0</value>
							</parameter>
							<parameter>
								<parameterid>lumawidth</parameterid>
								<name>Luma Width</name>
								<valuemin>0</valuemin>
								<valuemax>120</valuemax>
								<value>40</value>
							</parameter>
							<parameter>
								<parameterid>lumasoft</parameterid>
								<name>Luma Softness</name>
								<valuemin>0</valuemin>
								<valuemax>120</valuemax>
								<value>20</value>
							</parameter>
							<parameter>
								<parameterid>label6</parameterid>
								<name>Edge Control</name>
								<value/>
							</parameter>
							<parameter>
								<parameterid>edgethin</parameterid>
								<name>Thin/Spread</name>
								<valuemin>-100</valuemin>
								<valuemax>100</valuemax>
								<value>0</value>
							</parameter>
							<parameter>
								<parameterid>edgefeather</parameterid>
								<name>Softening</name>
								<valuemin>0</valuemin>
								<valuemax>100</valuemax>
								<value>0</value>
							</parameter>
							<parameter>
								<parameterid>label7</parameterid>
								<name>Mask Control</name>
								<value/>
							</parameter>
							<parameter>
								<parameterid>invertsel</parameterid>
								<name>Invert</name>
								<value>FALSE</value>
							</parameter>
							<parameter>
								<parameterid>debugshow</parameterid>
								<name>Show Stats</name>
								<value>FALSE</value>
							</parameter>
						</effect>
					</filter>
					<filter>
						<effect>
							<name>Basic Motion</name>
							<effectid>basic</effectid>
							<effectcategory>motion</effectcategory>
							<effecttype>motion</effecttype>
							<mediatype>video</mediatype>
							<parameter>
								<parameterid>scale</parameterid>
								<name>Scale</name>
								<valuemin>0</valuemin>
								<valuemax>1000</valuemax>
								<value>100</value>
							</parameter>
							<parameter>
								<parameterid>rotation</parameterid>
								<name>Rotation</name>
								<valuemin>-8640</valuemin>
								<valuemax>8640</valuemax>
								<value>0</value>
							</parameter>
							<parameter>
								<parameterid>center</parameterid>
								<name>Center</name>
								<value>
									<horiz>0</horiz>
									<vert>0</vert>
								</value>
							</parameter>
							<parameter>
								<parameterid>centerOffset</parameterid>
								<name>Anchor Point</name>
								<value>
									<horiz>0</horiz>
									<vert>0</vert>
								</value>
							</parameter>
						</effect>
					</filter>
					<filter>
						<enabled>FALSE</enabled>
						<effect>
							<name>Drop Shadow</name>
							<effectid>dropshadow</effectid>
							<effectcategory>motion</effectcategory>
							<effecttype>motion</effecttype>
							<mediatype>video</mediatype>
							<parameter>
								<parameterid>offset</parameterid>
								<name>offset</name>
								<valuemin>-100</valuemin>
								<valuemax>100</valuemax>
								<value>2</value>
							</parameter>
							<parameter>
								<parameterid>angle</parameterid>
								<name>angle</name>
								<valuemin>-720</valuemin>
								<valuemax>720</valuemax>
								<value>135</value>
							</parameter>
							<parameter>
								<parameterid>color</parameterid>
								<name>color</name>
								<value>
									<alpha>0</alpha>
									<red>0</red>
									<green>0</green>
									<blue>0</blue>
								</value>
							</parameter>
							<parameter>
								<parameterid>softness</parameterid>
								<name>softness</name>
								<valuemin>0</valuemin>
								<valuemax>100</valuemax>
								<value>10</value>
							</parameter>
							<parameter>
								<parameterid>opacity</parameterid>
								<name>opacity</name>
								<valuemin>0</valuemin>
								<valuemax>100</valuemax>
								<value>50</value>
							</parameter>
						</effect>
					</filter>
					<filter>
						<enabled>FALSE</enabled>
						<effect>
							<name>Motion Blur</name>
							<effectid>motionblur</effectid>
							<effectcategory>motion</effectcategory>
							<effecttype>motion</effecttype>
							<mediatype>video</mediatype>
							<parameter>
								<parameterid>duration</parameterid>
								<name>% Blur</name>
								<valuemin>0</valuemin>
								<valuemax>1000</valuemax>
								<value>500</value>
							</parameter>
							<parameter>
								<parameterid>samples</parameterid>
								<name>Samples</name>
								<valuemin>1</valuemin>
								<valuemax>16</valuemax>
								<value>4</value>
							</parameter>
						</effect>
					</filter>
					<filter>
						<effect>
							<name>Crop</name>
							<effectid>crop</effectid>
							<effectcategory>motion</effectcategory>
							<effecttype>motion</effecttype>
							<mediatype>video</mediatype>
							<parameter>
								<parameterid>left</parameterid>
								<name>left</name>
								<valuemin>0</valuemin>
								<valuemax>100</valuemax>
								<value>0</value>
							</parameter>
							<parameter>
								<parameterid>right</parameterid>
								<name>right</name>
								<valuemin>0</valuemin>
								<valuemax>100</valuemax>
								<value>0</value>
							</parameter>
							<parameter>
								<parameterid>top</parameterid>
								<name>top</name>
								<valuemin>0</valuemin>
								<valuemax>100</valuemax>
								<value>0</value>
							</parameter>
							<parameter>
								<parameterid>bottom</parameterid>
								<name>bottom</name>
								<valuemin>0</valuemin>
								<valuemax>100</valuemax>
								<value>0</value>
							</parameter>
							<parameter>
								<parameterid>edgefeather</parameterid>
								<name>edgefeather</name>
								<valuemin>0</valuemin>
								<valuemax>100</valuemax>
								<value>0</value>
							</parameter>
						</effect>
					</filter>
					<filter>
						<effect>
							<name>Distort</name>
							<effectid>deformation</effectid>
							<effectcategory>motion</effectcategory>
							<effecttype>motion</effecttype>
							<mediatype>video</mediatype>
							<parameter>
								<parameterid>ulcorner</parameterid>
								<name>Upper Left</name>
								<value>
									<horiz>-0.5</horiz>
									<vert>-0.5</vert>
								</value>
							</parameter>
							<parameter>
								<parameterid>urcorner</parameterid>
								<name>Upper Right</name>
								<value>
									<horiz>0.5</horiz>
									<vert>-0.5</vert>
								</value>
							</parameter>
							<parameter>
								<parameterid>lrcorner</parameterid>
								<name>Lower Right</name>
								<value>
									<horiz>0.5</horiz>
									<vert>0.5</vert>
								</value>
							</parameter>
							<parameter>
								<parameterid>llcorner</parameterid>
								<name>Lower Left</name>
								<value>
									<horiz>-0.5</horiz>
									<vert>0.5</vert>
								</value>
							</parameter>
							<parameter>
								<parameterid>aspect</parameterid>
								<name>Aspect</name>
								<valuemin>-10000</valuemin>
								<valuemax>10000</valuemax>
								<value>0</value>
							</parameter>
						</effect>
					</filter>
					<filter>
						<effect>
							<name>Opacity</name>
							<effectid>opacity</effectid>
							<effectcategory>motion</effectcategory>
							<effecttype>motion</effecttype>
							<mediatype>video</mediatype>
							<parameter>
								<parameterid>opacity</parameterid>
								<name>opacity</name>
								<valuemin>0</valuemin>
								<valuemax>100</valuemax>
								<value>100</value>
							</parameter>
						</effect>
					</filter>
					<sourcetrack>
						<mediatype>video</mediatype>
					</sourcetrack>
					<link>
						<linkclipref>msub200012-2108kid1-017 </linkclipref>
						<mediatype>video</mediatype>
						<trackindex>1</trackindex>
						<clipindex>71</clipindex>
					</link>
					<link>
						<linkclipref>msub200012-2108kid1-017 3</linkclipref>
						<mediatype>audio</mediatype>
						<trackindex>1</trackindex>
						<clipindex>71</clipindex>
					</link>
					<fielddominance>upper</fielddominance>
				</clipitem>
				<clipitem id="msub200012-2108kid1-023 ">
					<name>msub200012-2108kid1-023</name>
					<duration>3689</duration>
					<rate>
						<ntsc>FALSE</ntsc>
						<timebase>25</timebase>
					</rate>
					<in>191</in>
					<out>238</out>
					<start>23485</start>
					<end>23532</end>
					<pixelaspectratio>Square</pixelaspectratio>
					<enabled>TRUE</enabled>
					<anamorphic>FALSE</anamorphic>
					<alphatype>none</alphatype>
					<masterclipid>msub200012-2108kid1-023 1</masterclipid>
					<logginginfo>
						<description>msub200012-2108kid1-023</description>
						<scene/>
						<shottake/>
						<lognote/>
						<good>FALSE</good>
					</logginginfo>
					<labels>
						<label2/>
					</labels>
					<comments>
						<mastercomment1>RÃ…STOFF. BR_FINFREDAG_MSUA_OPRO</mastercomment1>
						<mastercomment2/>
						<mastercomment3/>
						<mastercomment4/>
					</comments>
					<file id="msub200012-2108kid1-023 2">
						<name>msub200012-2108kid1-023.mxf</name>
						<pathurl>file://localhost/omfs/clip.dir/MXF/1080i/msub200012-2108kid1-023.mxf</pathurl>
						<rate>
							<timebase>25</timebase>
						</rate>
						<duration>3689</duration>
						<timecode>
							<rate>
								<timebase>25</timebase>
							</rate>
							<string>02:16:35:03</string>
							<frame>204878</frame>
							<displayformat>NDF</displayformat>
							<source>source</source>
						</timecode>
						<media>
							<video>
								<duration>3689</duration>
								<samplecharacteristics>
									<width>1920</width>
									<height>1080</height>
								</samplecharacteristics>
							</video>
							<audio>
								<rate>
									<timebase>48000</timebase>
								</rate>
								<trackcount>1</trackcount>
								<samplecharacteristics>
									<depth>24</depth>
								</samplecharacteristics>
							</audio>
						</media>
					</file>
					<sourcetrack>
						<mediatype>video</mediatype>
					</sourcetrack>
					<fielddominance>upper</fielddominance>
				</clipitem>
				<clipitem id="msub200012-2108kid1-021 ">
					<name>msub200012-2108kid1-021</name>
					<duration>4310</duration>
					<rate>
						<ntsc>FALSE</ntsc>
						<timebase>25</timebase>
					</rate>
					<in>103</in>
					<out>138</out>
					<start>23532</start>
					<end>23567</end>
					<pixelaspectratio>Square</pixelaspectratio>
					<enabled>TRUE</enabled>
					<anamorphic>FALSE</anamorphic>
					<alphatype>none</alphatype>
					<masterclipid>msub200012-2108kid1-021 1</masterclipid>
					<logginginfo>
						<description>msub200012-2108kid1-021</description>
						<scene/>
						<shottake/>
						<lognote/>
						<good>FALSE</good>
					</logginginfo>
					<labels>
						<label2/>
					</labels>
					<comments>
						<mastercomment1>RÃ…STOFF. BR_FINFREDAG_MSUA_OPRO</mastercomment1>
						<mastercomment2/>
						<mastercomment3/>
						<mastercomment4/>
					</comments>
					<file id="msub200012-2108kid1-021 2">
						<name>msub200012-2108kid1-021.mxf</name>
						<pathurl>file://localhost/omfs/clip.dir/MXF/1080i/msub200012-2108kid1-021.mxf</pathurl>
						<rate>
							<timebase>25</timebase>
						</rate>
						<duration>4310</duration>
						<timecode>
							<rate>
								<timebase>25</timebase>
							</rate>
							<string>02:13:32:10</string>
							<frame>200310</frame>
							<displayformat>NDF</displayformat>
							<source>source</source>
						</timecode>
						<media>
							<video>
								<duration>4310</duration>
								<samplecharacteristics>
									<width>1920</width>
									<height>1080</height>
								</samplecharacteristics>
							</video>
							<audio>
								<rate>
									<timebase>48000</timebase>
								</rate>
								<trackcount>1</trackcount>
								<samplecharacteristics>
									<depth>24</depth>
								</samplecharacteristics>
							</audio>
						</media>
					</file>
					<sourcetrack>
						<mediatype>video</mediatype>
					</sourcetrack>
					<fielddominance>upper</fielddominance>
				</clipitem>
				<clipitem id="msub200012-2308-k1d1-005 ">
					<name>msub200012-2308-k1d1-005</name>
					<duration>6527</duration>
					<rate>
						<ntsc>FALSE</ntsc>
						<timebase>25</timebase>
					</rate>
					<in>1951</in>
					<out>2169</out>
					<start>23567</start>
					<end>23785</end>
					<pixelaspectratio>Square</pixelaspectratio>
					<enabled>TRUE</enabled>
					<anamorphic>FALSE</anamorphic>
					<alphatype>none</alphatype>
					<masterclipid>msub200012-2308-k1d1-005 1</masterclipid>
					<logginginfo>
						<description>msub200012-2308-k1d1-005</description>
						<scene/>
						<shottake/>
						<lognote/>
						<good>FALSE</good>
					</logginginfo>
					<labels>
						<label2/>
					</labels>
					<comments>
						<mastercomment1>RÃ…STOFF. BR_FINFREDAG_MSUA_OPRO</mastercomment1>
						<mastercomment2/>
						<mastercomment3/>
						<mastercomment4/>
					</comments>
					<file id="msub200012-2308-k1d1-005 2">
						<name>msub200012-2308-k1d1-005.mxf</name>
						<pathurl>file://localhost/omfs/clip.dir/MXF/1080i/msub200012-2308-k1d1-005.mxf</pathurl>
						<rate>
							<timebase>25</timebase>
						</rate>
						<duration>6527</duration>
						<timecode>
							<rate>
								<timebase>25</timebase>
							</rate>
							<string>07:27:48:18</string>
							<frame>671718</frame>
							<displayformat>NDF</displayformat>
							<source>source</source>
						</timecode>
						<media>
							<video>
								<duration>6527</duration>
								<samplecharacteristics>
									<width>1920</width>
									<height>1080</height>
								</samplecharacteristics>
							</video>
							<audio>
								<rate>
									<timebase>48000</timebase>
								</rate>
								<trackcount>1</trackcount>
								<samplecharacteristics>
									<depth>24</depth>
								</samplecharacteristics>
							</audio>
						</media>
					</file>
					<filter>
						<enabled>TRUE</enabled>
						<start>-1</start>
						<end>-1</end>
						<effect>
							<name>Color Corrector 3-way Copy</name>
							<effectid>Color Corrector 3-way</effectid>
							<effectcategory>Color Correction</effectcategory>
							<effecttype>filter</effecttype>
							<mediatype>video</mediatype>
							<parameter>
								<parameterid>dispmode</parameterid>
								<name>Display Mode</name>
								<valuemin>1</valuemin>
								<valuemax>3</valuemax>
								<valuelist>
									<valueentry>
										<name>Final</name>
										<value>1</value>
									</valueentry>
									<valueentry>
										<name>Matte</name>
										<value>2</value>
									</valueentry>
									<valueentry>
										<name>Source</name>
										<value>3</value>
									</valueentry>
								</valuelist>
								<value>1</value>
							</parameter>
							<parameter>
								<parameterid>label1</parameterid>
								<name>Blacks Controls</name>
								<value/>
							</parameter>
							<parameter>
								<parameterid>blacklevel</parameterid>
								<name>Level</name>
								<valuemin>-196</valuemin>
								<valuemax>254</valuemax>
								<value>-11</value>
							</parameter>
							<parameter>
								<parameterid>b_hue</parameterid>
								<name>Angle</name>
								<valuemin>-180</valuemin>
								<valuemax>180</valuemax>
								<value>-33</value>
							</parameter>
							<parameter>
								<parameterid>b_mag</parameterid>
								<name>Magnitude</name>
								<valuemin>0</valuemin>
								<valuemax>200</valuemax>
								<value>0</value>
							</parameter>
							<parameter>
								<parameterid>label2</parameterid>
								<name>Midrange Controls</name>
								<value/>
							</parameter>
							<parameter>
								<parameterid>mids</parameterid>
								<name>Level</name>
								<valuemin>0</valuemin>
								<valuemax>200</valuemax>
								<value>100</value>
							</parameter>
							<parameter>
								<parameterid>m_hue</parameterid>
								<name>Angle</name>
								<valuemin>-180</valuemin>
								<valuemax>180</valuemax>
								<value>-33</value>
							</parameter>
							<parameter>
								<parameterid>m_mag</parameterid>
								<name>Magnitude</name>
								<valuemin>0</valuemin>
								<valuemax>200</valuemax>
								<value>0</value>
							</parameter>
							<parameter>
								<parameterid>label3</parameterid>
								<name>Highlight Controls</name>
								<value/>
							</parameter>
							<parameter>
								<parameterid>highlights</parameterid>
								<name>Level</name>
								<valuemin>64</valuemin>
								<valuemax>509</valuemax>
								<value>270</value>
							</parameter>
							<parameter>
								<parameterid>h_hue</parameterid>
								<name>Angle</name>
								<valuemin>-180</valuemin>
								<valuemax>180</valuemax>
								<value>129.261</value>
							</parameter>
							<parameter>
								<parameterid>h_mag</parameterid>
								<name>Magnitude</name>
								<valuemin>0</valuemin>
								<valuemax>200</valuemax>
								<value>5.15364</value>
							</parameter>
							<parameter>
								<parameterid>label4</parameterid>
								<name>Color Controls</name>
								<value/>
							</parameter>
							<parameter>
								<parameterid>chroma</parameterid>
								<name>Saturation</name>
								<valuemin>0</valuemin>
								<valuemax>200</valuemax>
								<value>100</value>
							</parameter>
							<parameter>
								<parameterid>label5</parameterid>
								<name>Limit Effect Controls</name>
								<value/>
							</parameter>
							<parameter>
								<parameterid>dochroma</parameterid>
								<name>Limit on Chroma</name>
								<value>FALSE</value>
							</parameter>
							<parameter>
								<parameterid>centerang</parameterid>
								<name>Chroma Center</name>
								<valuemin>-760</valuemin>
								<valuemax>760</valuemax>
								<value>-110</value>
							</parameter>
							<parameter>
								<parameterid>chromawidth</parameterid>
								<name>Chroma Width</name>
								<valuemin>0</valuemin>
								<valuemax>360</valuemax>
								<value>15</value>
							</parameter>
							<parameter>
								<parameterid>chromasoft</parameterid>
								<name>Chroma Softness</name>
								<valuemin>0</valuemin>
								<valuemax>180</valuemax>
								<value>10</value>
							</parameter>
							<parameter>
								<parameterid>dosat</parameterid>
								<name>Limit on Saturation</name>
								<value>FALSE</value>
							</parameter>
							<parameter>
								<parameterid>satmin</parameterid>
								<name>Sat. Minimum</name>
								<valuemin>0</valuemin>
								<valuemax>125</valuemax>
								<value>35</value>
							</parameter>
							<parameter>
								<parameterid>satwidth</parameterid>
								<name>Sat. Width</name>
								<valuemin>0</valuemin>
								<valuemax>125</valuemax>
								<value>40</value>
							</parameter>
							<parameter>
								<parameterid>satsoft</parameterid>
								<name>Sat. Softness</name>
								<valuemin>0</valuemin>
								<valuemax>125</valuemax>
								<value>20</value>
							</parameter>
							<parameter>
								<parameterid>doluma</parameterid>
								<name>Limit on Luma</name>
								<value>FALSE</value>
							</parameter>
							<parameter>
								<parameterid>lumamin</parameterid>
								<name>Luma Minimum</name>
								<valuemin>0</valuemin>
								<valuemax>120</valuemax>
								<value>0</value>
							</parameter>
							<parameter>
								<parameterid>lumawidth</parameterid>
								<name>Luma Width</name>
								<valuemin>0</valuemin>
								<valuemax>120</valuemax>
								<value>40</value>
							</parameter>
							<parameter>
								<parameterid>lumasoft</parameterid>
								<name>Luma Softness</name>
								<valuemin>0</valuemin>
								<valuemax>120</valuemax>
								<value>20</value>
							</parameter>
							<parameter>
								<parameterid>label6</parameterid>
								<name>Edge Control</name>
								<value/>
							</parameter>
							<parameter>
								<parameterid>edgethin</parameterid>
								<name>Thin/Spread</name>
								<valuemin>-100</valuemin>
								<valuemax>100</valuemax>
								<value>0</value>
							</parameter>
							<parameter>
								<parameterid>edgefeather</parameterid>
								<name>Softening</name>
								<valuemin>0</valuemin>
								<valuemax>100</valuemax>
								<value>0</value>
							</parameter>
							<parameter>
								<parameterid>label7</parameterid>
								<name>Mask Control</name>
								<value/>
							</parameter>
							<parameter>
								<parameterid>invertsel</parameterid>
								<name>Invert</name>
								<value>FALSE</value>
							</parameter>
							<parameter>
								<parameterid>debugshow</parameterid>
								<name>Show Stats</name>
								<value>FALSE</value>
							</parameter>
						</effect>
					</filter>
					<sourcetrack>
						<mediatype>video</mediatype>
					</sourcetrack>
					<link>
						<linkclipref>msub200012-2308-k1d1-005 </linkclipref>
						<mediatype>video</mediatype>
						<trackindex>1</trackindex>
						<clipindex>74</clipindex>
					</link>
					<link>
						<linkclipref>msub200012-2308-k1d1-005 3</linkclipref>
						<mediatype>audio</mediatype>
						<trackindex>2</trackindex>
						<clipindex>71</clipindex>
					</link>
					<fielddominance>upper</fielddominance>
				</clipitem>
				<clipitem id="msub200012-2208k1d1-012 ">
					<name>msub200012-2208k1d1-012</name>
					<duration>5578</duration>
					<rate>
						<ntsc>FALSE</ntsc>
						<timebase>25</timebase>
					</rate>
					<in>4650</in>
					<out>4675</out>
					<start>23785</start>
					<end>23810</end>
					<pixelaspectratio>Square</pixelaspectratio>
					<enabled>TRUE</enabled>
					<anamorphic>FALSE</anamorphic>
					<alphatype>none</alphatype>
					<logginginfo>
						<description>msub200012-2208k1d1-012</description>
						<scene/>
						<shottake/>
						<lognote/>
						<good>FALSE</good>
					</logginginfo>
					<labels>
						<label2/>
					</labels>
					<comments>
						<mastercomment1>RÃ…STOFF. BR_FINFREDAG_MSUA_OPRO</mastercomment1>
						<mastercomment2/>
						<mastercomment3/>
						<mastercomment4/>
					</comments>
					<file id="msub200012-2208k1d1-012 1">
						<name>msub200012-2208k1d1-012.mxf</name>
						<pathurl>file://localhost/omfs/clip.dir/MXF/1080i/msub200012-2208k1d1-012.mxf</pathurl>
						<rate>
							<timebase>25</timebase>
						</rate>
						<duration>5578</duration>
						<timecode>
							<rate>
								<timebase>25</timebase>
							</rate>
							<string>04:19:48:22</string>
							<frame>389722</frame>
							<displayformat>NDF</displayformat>
							<source>source</source>
						</timecode>
						<media>
							<video>
								<duration>5578</duration>
								<samplecharacteristics>
									<width>1920</width>
									<height>1080</height>
								</samplecharacteristics>
							</video>
							<audio>
								<rate>
									<timebase>48000</timebase>
								</rate>
								<trackcount>1</trackcount>
								<samplecharacteristics>
									<depth>24</depth>
								</samplecharacteristics>
							</audio>
						</media>
					</file>
					<sourcetrack>
						<mediatype>video</mediatype>
					</sourcetrack>
					<link>
						<linkclipref>msub200012-2208k1d1-012 </linkclipref>
						<mediatype>video</mediatype>
						<trackindex>1</trackindex>
						<clipindex>75</clipindex>
					</link>
					<link>
						<linkclipref>msub200012-2208k1d1-012 2</linkclipref>
						<mediatype>audio</mediatype>
						<trackindex>1</trackindex>
						<clipindex>77</clipindex>
					</link>
					<link>
						<linkclipref>msub200012-2208k1d1-012 3</linkclipref>
						<mediatype>audio</mediatype>
						<trackindex>2</trackindex>
						<clipindex>74</clipindex>
					</link>
					<fielddominance>upper</fielddominance>
				</clipitem>
				<clipitem id="msub200012-2208k1d1-012 4">
					<name>msub200012-2208k1d1-012</name>
					<duration>5578</duration>
					<rate>
						<ntsc>FALSE</ntsc>
						<timebase>25</timebase>
					</rate>
					<in>4758</in>
					<out>4795</out>
					<start>23810</start>
					<end>23847</end>
					<pixelaspectratio>Square</pixelaspectratio>
					<enabled>TRUE</enabled>
					<anamorphic>FALSE</anamorphic>
					<alphatype>none</alphatype>
					<logginginfo>
						<description>msub200012-2208k1d1-012</description>
						<scene/>
						<shottake/>
						<lognote/>
						<good>FALSE</good>
					</logginginfo>
					<labels>
						<label2/>
					</labels>
					<comments>
						<mastercomment1>RÃ…STOFF. BR_FINFREDAG_MSUA_OPRO</mastercomment1>
						<mastercomment2/>
						<mastercomment3/>
						<mastercomment4/>
					</comments>
					<file id="msub200012-2208k1d1-012 1"/>
					<sourcetrack>
						<mediatype>video</mediatype>
					</sourcetrack>
					<link>
						<linkclipref>msub200012-2208k1d1-012 4</linkclipref>
						<mediatype>video</mediatype>
						<trackindex>1</trackindex>
						<clipindex>76</clipindex>
					</link>
					<link>
						<linkclipref>msub200012-2208k1d1-012 5</linkclipref>
						<mediatype>audio</mediatype>
						<trackindex>1</trackindex>
						<clipindex>78</clipindex>
					</link>
					<link>
						<linkclipref>msub200012-2208k1d1-012 6</linkclipref>
						<mediatype>audio</mediatype>
						<trackindex>2</trackindex>
						<clipindex>75</clipindex>
					</link>
					<fielddominance>upper</fielddominance>
				</clipitem>
				<clipitem id="msub200012-2208k1d1-014 ">
					<name>msub200012-2208k1d1-014</name>
					<duration>2719</duration>
					<rate>
						<ntsc>FALSE</ntsc>
						<timebase>25</timebase>
					</rate>
					<in>916</in>
					<out>985</out>
					<start>23847</start>
					<end>23916</end>
					<pixelaspectratio>Square</pixelaspectratio>
					<enabled>TRUE</enabled>
					<anamorphic>FALSE</anamorphic>
					<alphatype>none</alphatype>
					<logginginfo>
						<description>msub200012-2208k1d1-014</description>
						<scene/>
						<shottake/>
						<lognote/>
						<good>FALSE</good>
					</logginginfo>
					<labels>
						<label2/>
					</labels>
					<comments>
						<mastercomment1>RÃ…STOFF. BR_FINFREDAG_MSUA_OPRO</mastercomment1>
						<mastercomment2/>
						<mastercomment3/>
						<mastercomment4/>
					</comments>
					<file id="msub200012-2208k1d1-014 1">
						<name>msub200012-2208k1d1-014.mxf</name>
						<pathurl>file://localhost/omfs/clip.dir/MXF/1080i/msub200012-2208k1d1-014.mxf</pathurl>
						<rate>
							<timebase>25</timebase>
						</rate>
						<duration>2719</duration>
						<timecode>
							<rate>
								<timebase>25</timebase>
							</rate>
							<string>04:23:50:15</string>
							<frame>395765</frame>
							<displayformat>NDF</displayformat>
							<source>source</source>
						</timecode>
						<media>
							<video>
								<duration>2719</duration>
								<samplecharacteristics>
									<width>1920</width>
									<height>1080</height>
								</samplecharacteristics>
							</video>
							<audio>
								<rate>
									<timebase>48000</timebase>
								</rate>
								<trackcount>1</trackcount>
								<samplecharacteristics>
									<depth>24</depth>
								</samplecharacteristics>
							</audio>
						</media>
					</file>
					<sourcetrack>
						<mediatype>video</mediatype>
					</sourcetrack>
					<fielddominance>upper</fielddominance>
				</clipitem>
				<clipitem id="msub200012-2208k1d1-024 ">
					<name>msub200012-2208k1d1-024</name>
					<duration>233</duration>
					<rate>
						<ntsc>FALSE</ntsc>
						<timebase>25</timebase>
					</rate>
					<in>117</in>
					<out>191</out>
					<start>23916</start>
					<end>23990</end>
					<pixelaspectratio>Square</pixelaspectratio>
					<enabled>TRUE</enabled>
					<anamorphic>FALSE</anamorphic>
					<alphatype>none</alphatype>
					<masterclipid>msub200012-2208k1d1-024 1</masterclipid>
					<logginginfo>
						<description>msub200012-2208k1d1-024</description>
						<scene/>
						<shottake/>
						<lognote/>
						<good>FALSE</good>
					</logginginfo>
					<labels>
						<label2/>
					</labels>
					<comments>
						<mastercomment1>RÃ…STOFF. BR_FINFREDAG_MSUA_OPRO</mastercomment1>
						<mastercomment2/>
						<mastercomment3/>
						<mastercomment4/>
					</comments>
					<file id="msub200012-2208k1d1-024 2">
						<name>msub200012-2208k1d1-024.mxf</name>
						<pathurl>file://localhost/omfs/clip.dir/MXF/1080i/msub200012-2208k1d1-024.mxf</pathurl>
						<rate>
							<timebase>25</timebase>
						</rate>
						<duration>1161</duration>
						<timecode>
							<rate>
								<timebase>25</timebase>
							</rate>
							<string>04:35:43:14</string>
							<frame>413589</frame>
							<displayformat>NDF</displayformat>
							<source>source</source>
						</timecode>
						<media>
							<video>
								<duration>1161</duration>
								<samplecharacteristics>
									<width>1920</width>
									<height>1080</height>
								</samplecharacteristics>
							</video>
							<audio>
								<rate>
									<timebase>48000</timebase>
								</rate>
								<trackcount>1</trackcount>
								<samplecharacteristics>
									<depth>24</depth>
								</samplecharacteristics>
							</audio>
						</media>
					</file>
					<filter>
						<enabled>TRUE</enabled>
						<start>-1</start>
						<end>-1</end>
						<effect>
							<name>Color Corrector 3-way Copy</name>
							<effectid>Color Corrector 3-way</effectid>
							<effectcategory>Color Correction</effectcategory>
							<effecttype>filter</effecttype>
							<mediatype>video</mediatype>
							<parameter>
								<parameterid>dispmode</parameterid>
								<name>Display Mode</name>
								<valuemin>1</valuemin>
								<valuemax>3</valuemax>
								<valuelist>
									<valueentry>
										<name>Final</name>
										<value>1</value>
									</valueentry>
									<valueentry>
										<name>Matte</name>
										<value>2</value>
									</valueentry>
									<valueentry>
										<name>Source</name>
										<value>3</value>
									</valueentry>
								</valuelist>
								<value>1</value>
							</parameter>
							<parameter>
								<parameterid>label1</parameterid>
								<name>Blacks Controls</name>
								<value/>
							</parameter>
							<parameter>
								<parameterid>blacklevel</parameterid>
								<name>Level</name>
								<valuemin>-196</valuemin>
								<valuemax>254</valuemax>
								<value>-6</value>
							</parameter>
							<parameter>
								<parameterid>b_hue</parameterid>
								<name>Angle</name>
								<valuemin>-180</valuemin>
								<valuemax>180</valuemax>
								<value>-21.062</value>
							</parameter>
							<parameter>
								<parameterid>b_mag</parameterid>
								<name>Magnitude</name>
								<valuemin>0</valuemin>
								<valuemax>200</valuemax>
								<value>0.613001</value>
							</parameter>
							<parameter>
								<parameterid>label2</parameterid>
								<name>Midrange Controls</name>
								<value/>
							</parameter>
							<parameter>
								<parameterid>mids</parameterid>
								<name>Level</name>
								<valuemin>0</valuemin>
								<valuemax>200</valuemax>
								<value>105</value>
							</parameter>
							<parameter>
								<parameterid>m_hue</parameterid>
								<name>Angle</name>
								<valuemin>-180</valuemin>
								<valuemax>180</valuemax>
								<value>78.3554</value>
							</parameter>
							<parameter>
								<parameterid>m_mag</parameterid>
								<name>Magnitude</name>
								<valuemin>0</valuemin>
								<valuemax>200</valuemax>
								<value>2.56792</value>
							</parameter>
							<parameter>
								<parameterid>label3</parameterid>
								<name>Highlight Controls</name>
								<value/>
							</parameter>
							<parameter>
								<parameterid>highlights</parameterid>
								<name>Level</name>
								<valuemin>64</valuemin>
								<valuemax>509</valuemax>
								<value>266</value>
							</parameter>
							<parameter>
								<parameterid>h_hue</parameterid>
								<name>Angle</name>
								<valuemin>-180</valuemin>
								<valuemax>180</valuemax>
								<value>-62.3647</value>
							</parameter>
							<parameter>
								<parameterid>h_mag</parameterid>
								<name>Magnitude</name>
								<valuemin>0</valuemin>
								<valuemax>200</valuemax>
								<value>3.14615</value>
							</parameter>
							<parameter>
								<parameterid>label4</parameterid>
								<name>Color Controls</name>
								<value/>
							</parameter>
							<parameter>
								<parameterid>chroma</parameterid>
								<name>Saturation</name>
								<valuemin>0</valuemin>
								<valuemax>200</valuemax>
								<value>107</value>
							</parameter>
							<parameter>
								<parameterid>label5</parameterid>
								<name>Limit Effect Controls</name>
								<value/>
							</parameter>
							<parameter>
								<parameterid>dochroma</parameterid>
								<name>Limit on Chroma</name>
								<value>FALSE</value>
							</parameter>
							<parameter>
								<parameterid>centerang</parameterid>
								<name>Chroma Center</name>
								<valuemin>-760</valuemin>
								<valuemax>760</valuemax>
								<value>-110</value>
							</parameter>
							<parameter>
								<parameterid>chromawidth</parameterid>
								<name>Chroma Width</name>
								<valuemin>0</valuemin>
								<valuemax>360</valuemax>
								<value>15</value>
							</parameter>
							<parameter>
								<parameterid>chromasoft</parameterid>
								<name>Chroma Softness</name>
								<valuemin>0</valuemin>
								<valuemax>180</valuemax>
								<value>10</value>
							</parameter>
							<parameter>
								<parameterid>dosat</parameterid>
								<name>Limit on Saturation</name>
								<value>FALSE</value>
							</parameter>
							<parameter>
								<parameterid>satmin</parameterid>
								<name>Sat. Minimum</name>
								<valuemin>0</valuemin>
								<valuemax>125</valuemax>
								<value>35</value>
							</parameter>
							<parameter>
								<parameterid>satwidth</parameterid>
								<name>Sat. Width</name>
								<valuemin>0</valuemin>
								<valuemax>125</valuemax>
								<value>40</value>
							</parameter>
							<parameter>
								<parameterid>satsoft</parameterid>
								<name>Sat. Softness</name>
								<valuemin>0</valuemin>
								<valuemax>125</valuemax>
								<value>20</value>
							</parameter>
							<parameter>
								<parameterid>doluma</parameterid>
								<name>Limit on Luma</name>
								<value>FALSE</value>
							</parameter>
							<parameter>
								<parameterid>lumamin</parameterid>
								<name>Luma Minimum</name>
								<valuemin>0</valuemin>
								<valuemax>120</valuemax>
								<value>0</value>
							</parameter>
							<parameter>
								<parameterid>lumawidth</parameterid>
								<name>Luma Width</name>
								<valuemin>0</valuemin>
								<valuemax>120</valuemax>
								<value>40</value>
							</parameter>
							<parameter>
								<parameterid>lumasoft</parameterid>
								<name>Luma Softness</name>
								<valuemin>0</valuemin>
								<valuemax>120</valuemax>
								<value>20</value>
							</parameter>
							<parameter>
								<parameterid>label6</parameterid>
								<name>Edge Control</name>
								<value/>
							</parameter>
							<parameter>
								<parameterid>edgethin</parameterid>
								<name>Thin/Spread</name>
								<valuemin>-100</valuemin>
								<valuemax>100</valuemax>
								<value>0</value>
							</parameter>
							<parameter>
								<parameterid>edgefeather</parameterid>
								<name>Softening</name>
								<valuemin>0</valuemin>
								<valuemax>100</valuemax>
								<value>0</value>
							</parameter>
							<parameter>
								<parameterid>label7</parameterid>
								<name>Mask Control</name>
								<value/>
							</parameter>
							<parameter>
								<parameterid>invertsel</parameterid>
								<name>Invert</name>
								<value>FALSE</value>
							</parameter>
							<parameter>
								<parameterid>debugshow</parameterid>
								<name>Show Stats</name>
								<value>FALSE</value>
							</parameter>
						</effect>
					</filter>
					<sourcetrack>
						<mediatype>video</mediatype>
					</sourcetrack>
					<fielddominance>upper</fielddominance>
					<filter>
						<effect>
							<name>Time Remap</name>
							<effectid>timeremap</effectid>
							<effectcategory>motion</effectcategory>
							<effecttype>motion</effecttype>
							<mediatype>video</mediatype>
							<parameter>
								<parameterid>variablespeed</parameterid>
								<name>variablespeed</name>
								<valuemin>0</valuemin>
								<valuemax>1</valuemax>
								<value>0</value>
							</parameter>
							<parameter>
								<parameterid>mappedduration</parameterid>
								<name>mappedduration</name>
								<value>
									<timecode>
										<rate>
											<timebase>0</timebase>
										</rate>
										<string>0</string>
										<frame>0</frame>
										<displayformat>NDF</displayformat>
									</timecode>
								</value>
							</parameter>
							<parameter>
								<parameterid>speed</parameterid>
								<name>speed</name>
								<valuemin>-10000</valuemin>
								<valuemax>10000</valuemax>
								<value>500</value>
							</parameter>
							<parameter>
								<parameterid>reverse</parameterid>
								<name>reverse</name>
								<value>FALSE</value>
							</parameter>
							<parameter>
								<parameterid>frameblending</parameterid>
								<name>frameblending</name>
								<value>TRUE</value>
							</parameter>
							<parameter>
								<parameterid>graphdict</parameterid>
								<name>graphdict</name>
								<valuemin>0</valuemin>
								<valuemax>1160</valuemax>
								<keyframe>
									<when>0</when>
									<value>4.9999</value>
									<speedkfstart>TRUE</speedkfstart>
									<speedvirtualkf>TRUE</speedvirtualkf>
								</keyframe>
								<keyframe>
									<when>117</when>
									<value>590</value>
									<speedkfin>TRUE</speedkfin>
									<speedvirtualkf>TRUE</speedvirtualkf>
								</keyframe>
								<keyframe>
									<when>191</when>
									<value>960</value>
									<speedkfout>TRUE</speedkfout>
									<speedvirtualkf>TRUE</speedvirtualkf>
								</keyframe>
								<keyframe>
									<when>233</when>
									<value>1166</value>
									<speedkfend>TRUE</speedkfend>
									<speedvirtualkf>TRUE</speedvirtualkf>
								</keyframe>
								<interpolation>
									<name>FCPCurve</name>
								</interpolation>
								<value>590</value>
							</parameter>
						</effect>
					</filter>
				</clipitem>
				<clipitem id="msub200012-2208k1d1-024 3">
					<name>msub200012-2208k1d1-024</name>
					<duration>1161</duration>
					<rate>
						<ntsc>FALSE</ntsc>
						<timebase>25</timebase>
					</rate>
					<in>960</in>
					<out>994</out>
					<start>23990</start>
					<end>24024</end>
					<pixelaspectratio>Square</pixelaspectratio>
					<enabled>TRUE</enabled>
					<anamorphic>FALSE</anamorphic>
					<alphatype>none</alphatype>
					<masterclipid>msub200012-2208k1d1-024 1</masterclipid>
					<logginginfo>
						<description>msub200012-2208k1d1-024</description>
						<scene/>
						<shottake/>
						<lognote/>
						<good>FALSE</good>
					</logginginfo>
					<labels>
						<label2/>
					</labels>
					<comments>
						<mastercomment1>RÃ…STOFF. BR_FINFREDAG_MSUA_OPRO</mastercomment1>
						<mastercomment2/>
						<mastercomment3/>
						<mastercomment4/>
					</comments>
					<file id="msub200012-2208k1d1-024 2"/>
					<filter>
						<enabled>TRUE</enabled>
						<start>-1</start>
						<end>-1</end>
						<effect>
							<name>Color Corrector 3-way Copy</name>
							<effectid>Color Corrector 3-way</effectid>
							<effectcategory>Color Correction</effectcategory>
							<effecttype>filter</effecttype>
							<mediatype>video</mediatype>
							<parameter>
								<parameterid>dispmode</parameterid>
								<name>Display Mode</name>
								<valuemin>1</valuemin>
								<valuemax>3</valuemax>
								<valuelist>
									<valueentry>
										<name>Final</name>
										<value>1</value>
									</valueentry>
									<valueentry>
										<name>Matte</name>
										<value>2</value>
									</valueentry>
									<valueentry>
										<name>Source</name>
										<value>3</value>
									</valueentry>
								</valuelist>
								<value>1</value>
							</parameter>
							<parameter>
								<parameterid>label1</parameterid>
								<name>Blacks Controls</name>
								<value/>
							</parameter>
							<parameter>
								<parameterid>blacklevel</parameterid>
								<name>Level</name>
								<valuemin>-196</valuemin>
								<valuemax>254</valuemax>
								<value>-6</value>
							</parameter>
							<parameter>
								<parameterid>b_hue</parameterid>
								<name>Angle</name>
								<valuemin>-180</valuemin>
								<valuemax>180</valuemax>
								<value>-21.062</value>
							</parameter>
							<parameter>
								<parameterid>b_mag</parameterid>
								<name>Magnitude</name>
								<valuemin>0</valuemin>
								<valuemax>200</valuemax>
								<value>0.613001</value>
							</parameter>
							<parameter>
								<parameterid>label2</parameterid>
								<name>Midrange Controls</name>
								<value/>
							</parameter>
							<parameter>
								<parameterid>mids</parameterid>
								<name>Level</name>
								<valuemin>0</valuemin>
								<valuemax>200</valuemax>
								<value>105</value>
							</parameter>
							<parameter>
								<parameterid>m_hue</parameterid>
								<name>Angle</name>
								<valuemin>-180</valuemin>
								<valuemax>180</valuemax>
								<value>78.3554</value>
							</parameter>
							<parameter>
								<parameterid>m_mag</parameterid>
								<name>Magnitude</name>
								<valuemin>0</valuemin>
								<valuemax>200</valuemax>
								<value>2.56792</value>
							</parameter>
							<parameter>
								<parameterid>label3</parameterid>
								<name>Highlight Controls</name>
								<value/>
							</parameter>
							<parameter>
								<parameterid>highlights</parameterid>
								<name>Level</name>
								<valuemin>64</valuemin>
								<valuemax>509</valuemax>
								<value>266</value>
							</parameter>
							<parameter>
								<parameterid>h_hue</parameterid>
								<name>Angle</name>
								<valuemin>-180</valuemin>
								<valuemax>180</valuemax>
								<value>-62.3647</value>
							</parameter>
							<parameter>
								<parameterid>h_mag</parameterid>
								<name>Magnitude</name>
								<valuemin>0</valuemin>
								<valuemax>200</valuemax>
								<value>3.14615</value>
							</parameter>
							<parameter>
								<parameterid>label4</parameterid>
								<name>Color Controls</name>
								<value/>
							</parameter>
							<parameter>
								<parameterid>chroma</parameterid>
								<name>Saturation</name>
								<valuemin>0</valuemin>
								<valuemax>200</valuemax>
								<value>107</value>
							</parameter>
							<parameter>
								<parameterid>label5</parameterid>
								<name>Limit Effect Controls</name>
								<value/>
							</parameter>
							<parameter>
								<parameterid>dochroma</parameterid>
								<name>Limit on Chroma</name>
								<value>FALSE</value>
							</parameter>
							<parameter>
								<parameterid>centerang</parameterid>
								<name>Chroma Center</name>
								<valuemin>-760</valuemin>
								<valuemax>760</valuemax>
								<value>-110</value>
							</parameter>
							<parameter>
								<parameterid>chromawidth</parameterid>
								<name>Chroma Width</name>
								<valuemin>0</valuemin>
								<valuemax>360</valuemax>
								<value>15</value>
							</parameter>
							<parameter>
								<parameterid>chromasoft</parameterid>
								<name>Chroma Softness</name>
								<valuemin>0</valuemin>
								<valuemax>180</valuemax>
								<value>10</value>
							</parameter>
							<parameter>
								<parameterid>dosat</parameterid>
								<name>Limit on Saturation</name>
								<value>FALSE</value>
							</parameter>
							<parameter>
								<parameterid>satmin</parameterid>
								<name>Sat. Minimum</name>
								<valuemin>0</valuemin>
								<valuemax>125</valuemax>
								<value>35</value>
							</parameter>
							<parameter>
								<parameterid>satwidth</parameterid>
								<name>Sat. Width</name>
								<valuemin>0</valuemin>
								<valuemax>125</valuemax>
								<value>40</value>
							</parameter>
							<parameter>
								<parameterid>satsoft</parameterid>
								<name>Sat. Softness</name>
								<valuemin>0</valuemin>
								<valuemax>125</valuemax>
								<value>20</value>
							</parameter>
							<parameter>
								<parameterid>doluma</parameterid>
								<name>Limit on Luma</name>
								<value>FALSE</value>
							</parameter>
							<parameter>
								<parameterid>lumamin</parameterid>
								<name>Luma Minimum</name>
								<valuemin>0</valuemin>
								<valuemax>120</valuemax>
								<value>0</value>
							</parameter>
							<parameter>
								<parameterid>lumawidth</parameterid>
								<name>Luma Width</name>
								<valuemin>0</valuemin>
								<valuemax>120</valuemax>
								<value>40</value>
							</parameter>
							<parameter>
								<parameterid>lumasoft</parameterid>
								<name>Luma Softness</name>
								<valuemin>0</valuemin>
								<valuemax>120</valuemax>
								<value>20</value>
							</parameter>
							<parameter>
								<parameterid>label6</parameterid>
								<name>Edge Control</name>
								<value/>
							</parameter>
							<parameter>
								<parameterid>edgethin</parameterid>
								<name>Thin/Spread</name>
								<valuemin>-100</valuemin>
								<valuemax>100</valuemax>
								<value>0</value>
							</parameter>
							<parameter>
								<parameterid>edgefeather</parameterid>
								<name>Softening</name>
								<valuemin>0</valuemin>
								<valuemax>100</valuemax>
								<value>0</value>
							</parameter>
							<parameter>
								<parameterid>label7</parameterid>
								<name>Mask Control</name>
								<value/>
							</parameter>
							<parameter>
								<parameterid>invertsel</parameterid>
								<name>Invert</name>
								<value>FALSE</value>
							</parameter>
							<parameter>
								<parameterid>debugshow</parameterid>
								<name>Show Stats</name>
								<value>FALSE</value>
							</parameter>
						</effect>
					</filter>
					<sourcetrack>
						<mediatype>video</mediatype>
					</sourcetrack>
					<fielddominance>upper</fielddominance>
				</clipitem>
				<clipitem id="msub200012-2408-k1d2-004 ">
					<name>msub200012-2408-k1d2-004</name>
					<duration>4238</duration>
					<rate>
						<ntsc>FALSE</ntsc>
						<timebase>25</timebase>
					</rate>
					<in>1782</in>
					<out>1802</out>
					<start>24024</start>
					<end>24044</end>
					<pixelaspectratio>Square</pixelaspectratio>
					<enabled>TRUE</enabled>
					<anamorphic>FALSE</anamorphic>
					<alphatype>none</alphatype>
					<masterclipid>msub200012-2408-k1d2-004 1</masterclipid>
					<logginginfo>
						<description>msub200012-2408-k1d2-004</description>
						<scene/>
						<shottake/>
						<lognote/>
						<good>FALSE</good>
					</logginginfo>
					<labels>
						<label2/>
					</labels>
					<comments>
						<mastercomment1>RÃ…STOFF. BR_FINFREDAG_MSUA_OPRO</mastercomment1>
						<mastercomment2/>
						<mastercomment3/>
						<mastercomment4/>
					</comments>
					<file id="msub200012-2408-k1d2-004 2">
						<name>msub200012-2408-k1d2-004.mxf</name>
						<pathurl>file://localhost/omfs/clip.dir/MXF/1080i/msub200012-2408-k1d2-004.mxf</pathurl>
						<rate>
							<timebase>25</timebase>
						</rate>
						<duration>4238</duration>
						<timecode>
							<rate>
								<timebase>25</timebase>
							</rate>
							<string>08:05:52:07</string>
							<frame>728807</frame>
							<displayformat>NDF</displayformat>
							<source>source</source>
						</timecode>
						<media>
							<video>
								<duration>4238</duration>
								<samplecharacteristics>
									<width>1920</width>
									<height>1080</height>
								</samplecharacteristics>
							</video>
							<audio>
								<rate>
									<timebase>48000</timebase>
								</rate>
								<trackcount>1</trackcount>
								<samplecharacteristics>
									<depth>24</depth>
								</samplecharacteristics>
							</audio>
						</media>
					</file>
					<filter>
						<enabled>TRUE</enabled>
						<start>-1</start>
						<end>-1</end>
						<effect>
							<name>Color Corrector 3-way Copy</name>
							<effectid>Color Corrector 3-way</effectid>
							<effectcategory>Color Correction</effectcategory>
							<effecttype>filter</effecttype>
							<mediatype>video</mediatype>
							<parameter>
								<parameterid>dispmode</parameterid>
								<name>Display Mode</name>
								<valuemin>1</valuemin>
								<valuemax>3</valuemax>
								<valuelist>
									<valueentry>
										<name>Final</name>
										<value>1</value>
									</valueentry>
									<valueentry>
										<name>Matte</name>
										<value>2</value>
									</valueentry>
									<valueentry>
										<name>Source</name>
										<value>3</value>
									</valueentry>
								</valuelist>
								<value>1</value>
							</parameter>
							<parameter>
								<parameterid>label1</parameterid>
								<name>Blacks Controls</name>
								<value/>
							</parameter>
							<parameter>
								<parameterid>blacklevel</parameterid>
								<name>Level</name>
								<valuemin>-196</valuemin>
								<valuemax>254</valuemax>
								<value>-6</value>
							</parameter>
							<parameter>
								<parameterid>b_hue</parameterid>
								<name>Angle</name>
								<valuemin>-180</valuemin>
								<valuemax>180</valuemax>
								<value>-21.062</value>
							</parameter>
							<parameter>
								<parameterid>b_mag</parameterid>
								<name>Magnitude</name>
								<valuemin>0</valuemin>
								<valuemax>200</valuemax>
								<value>0.613001</value>
							</parameter>
							<parameter>
								<parameterid>label2</parameterid>
								<name>Midrange Controls</name>
								<value/>
							</parameter>
							<parameter>
								<parameterid>mids</parameterid>
								<name>Level</name>
								<valuemin>0</valuemin>
								<valuemax>200</valuemax>
								<value>105</value>
							</parameter>
							<parameter>
								<parameterid>m_hue</parameterid>
								<name>Angle</name>
								<valuemin>-180</valuemin>
								<valuemax>180</valuemax>
								<value>78.3554</value>
							</parameter>
							<parameter>
								<parameterid>m_mag</parameterid>
								<name>Magnitude</name>
								<valuemin>0</valuemin>
								<valuemax>200</valuemax>
								<value>2.56792</value>
							</parameter>
							<parameter>
								<parameterid>label3</parameterid>
								<name>Highlight Controls</name>
								<value/>
							</parameter>
							<parameter>
								<parameterid>highlights</parameterid>
								<name>Level</name>
								<valuemin>64</valuemin>
								<valuemax>509</valuemax>
								<value>266</value>
							</parameter>
							<parameter>
								<parameterid>h_hue</parameterid>
								<name>Angle</name>
								<valuemin>-180</valuemin>
								<valuemax>180</valuemax>
								<value>-62.3647</value>
							</parameter>
							<parameter>
								<parameterid>h_mag</parameterid>
								<name>Magnitude</name>
								<valuemin>0</valuemin>
								<valuemax>200</valuemax>
								<value>3.14615</value>
							</parameter>
							<parameter>
								<parameterid>label4</parameterid>
								<name>Color Controls</name>
								<value/>
							</parameter>
							<parameter>
								<parameterid>chroma</parameterid>
								<name>Saturation</name>
								<valuemin>0</valuemin>
								<valuemax>200</valuemax>
								<value>107</value>
							</parameter>
							<parameter>
								<parameterid>label5</parameterid>
								<name>Limit Effect Controls</name>
								<value/>
							</parameter>
							<parameter>
								<parameterid>dochroma</parameterid>
								<name>Limit on Chroma</name>
								<value>FALSE</value>
							</parameter>
							<parameter>
								<parameterid>centerang</parameterid>
								<name>Chroma Center</name>
								<valuemin>-760</valuemin>
								<valuemax>760</valuemax>
								<value>-110</value>
							</parameter>
							<parameter>
								<parameterid>chromawidth</parameterid>
								<name>Chroma Width</name>
								<valuemin>0</valuemin>
								<valuemax>360</valuemax>
								<value>15</value>
							</parameter>
							<parameter>
								<parameterid>chromasoft</parameterid>
								<name>Chroma Softness</name>
								<valuemin>0</valuemin>
								<valuemax>180</valuemax>
								<value>10</value>
							</parameter>
							<parameter>
								<parameterid>dosat</parameterid>
								<name>Limit on Saturation</name>
								<value>FALSE</value>
							</parameter>
							<parameter>
								<parameterid>satmin</parameterid>
								<name>Sat. Minimum</name>
								<valuemin>0</valuemin>
								<valuemax>125</valuemax>
								<value>35</value>
							</parameter>
							<parameter>
								<parameterid>satwidth</parameterid>
								<name>Sat. Width</name>
								<valuemin>0</valuemin>
								<valuemax>125</valuemax>
								<value>40</value>
							</parameter>
							<parameter>
								<parameterid>satsoft</parameterid>
								<name>Sat. Softness</name>
								<valuemin>0</valuemin>
								<valuemax>125</valuemax>
								<value>20</value>
							</parameter>
							<parameter>
								<parameterid>doluma</parameterid>
								<name>Limit on Luma</name>
								<value>FALSE</value>
							</parameter>
							<parameter>
								<parameterid>lumamin</parameterid>
								<name>Luma Minimum</name>
								<valuemin>0</valuemin>
								<valuemax>120</valuemax>
								<value>0</value>
							</parameter>
							<parameter>
								<parameterid>lumawidth</parameterid>
								<name>Luma Width</name>
								<valuemin>0</valuemin>
								<valuemax>120</valuemax>
								<value>40</value>
							</parameter>
							<parameter>
								<parameterid>lumasoft</parameterid>
								<name>Luma Softness</name>
								<valuemin>0</valuemin>
								<valuemax>120</valuemax>
								<value>20</value>
							</parameter>
							<parameter>
								<parameterid>label6</parameterid>
								<name>Edge Control</name>
								<value/>
							</parameter>
							<parameter>
								<parameterid>edgethin</parameterid>
								<name>Thin/Spread</name>
								<valuemin>-100</valuemin>
								<valuemax>100</valuemax>
								<value>0</value>
							</parameter>
							<parameter>
								<parameterid>edgefeather</parameterid>
								<name>Softening</name>
								<valuemin>0</valuemin>
								<valuemax>100</valuemax>
								<value>0</value>
							</parameter>
							<parameter>
								<parameterid>label7</parameterid>
								<name>Mask Control</name>
								<value/>
							</parameter>
							<parameter>
								<parameterid>invertsel</parameterid>
								<name>Invert</name>
								<value>FALSE</value>
							</parameter>
							<parameter>
								<parameterid>debugshow</parameterid>
								<name>Show Stats</name>
								<value>FALSE</value>
							</parameter>
						</effect>
					</filter>
					<sourcetrack>
						<mediatype>video</mediatype>
					</sourcetrack>
					<fielddominance>upper</fielddominance>
				</clipitem>
				<clipitem id="msub200012-2208k1d1-027 ">
					<name>msub200012-2208k1d1-027</name>
					<duration>629</duration>
					<rate>
						<ntsc>FALSE</ntsc>
						<timebase>25</timebase>
					</rate>
					<in>333</in>
					<out>356</out>
					<start>24044</start>
					<end>24067</end>
					<pixelaspectratio>Square</pixelaspectratio>
					<enabled>TRUE</enabled>
					<anamorphic>FALSE</anamorphic>
					<alphatype>none</alphatype>
					<masterclipid>msub200012-2208k1d1-027 1</masterclipid>
					<logginginfo>
						<description>msub200012-2208k1d1-027</description>
						<scene/>
						<shottake/>
						<lognote/>
						<good>FALSE</good>
					</logginginfo>
					<labels>
						<label2/>
					</labels>
					<comments>
						<mastercomment1>RÃ…STOFF. BR_FINFREDAG_MSUA_OPRO</mastercomment1>
						<mastercomment2/>
						<mastercomment3/>
						<mastercomment4/>
					</comments>
					<file id="msub200012-2208k1d1-027 2">
						<name>msub200012-2208k1d1-027.mxf</name>
						<pathurl>file://localhost/omfs/clip.dir/MXF/1080i/msub200012-2208k1d1-027.mxf</pathurl>
						<rate>
							<timebase>25</timebase>
						</rate>
						<duration>629</duration>
						<timecode>
							<rate>
								<timebase>25</timebase>
							</rate>
							<string>04:38:45:18</string>
							<frame>418143</frame>
							<displayformat>NDF</displayformat>
							<source>source</source>
						</timecode>
						<media>
							<video>
								<duration>629</duration>
								<samplecharacteristics>
									<width>1920</width>
									<height>1080</height>
								</samplecharacteristics>
							</video>
							<audio>
								<rate>
									<timebase>48000</timebase>
								</rate>
								<trackcount>1</trackcount>
								<samplecharacteristics>
									<depth>24</depth>
								</samplecharacteristics>
							</audio>
						</media>
					</file>
					<filter>
						<start>-1</start>
						<end>-1</end>
						<effect>
							<name>Color Corrector 3-way Copy</name>
							<effectid>Color Corrector 3-way</effectid>
							<effectcategory>Color Correction</effectcategory>
							<effecttype>filter</effecttype>
							<mediatype>video</mediatype>
							<parameter>
								<parameterid>dispmode</parameterid>
								<name>Display Mode</name>
								<valuemin>1</valuemin>
								<valuemax>3</valuemax>
								<valuelist>
									<valueentry>
										<name>Final</name>
										<value>1</value>
									</valueentry>
									<valueentry>
										<name>Matte</name>
										<value>2</value>
									</valueentry>
									<valueentry>
										<name>Source</name>
										<value>3</value>
									</valueentry>
								</valuelist>
								<value>1</value>
							</parameter>
							<parameter>
								<parameterid>label1</parameterid>
								<name>Blacks Controls</name>
								<value/>
							</parameter>
							<parameter>
								<parameterid>blacklevel</parameterid>
								<name>Level</name>
								<valuemin>-196</valuemin>
								<valuemax>254</valuemax>
								<value>-6</value>
							</parameter>
							<parameter>
								<parameterid>b_hue</parameterid>
								<name>Angle</name>
								<valuemin>-180</valuemin>
								<valuemax>180</valuemax>
								<value>-21.062</value>
							</parameter>
							<parameter>
								<parameterid>b_mag</parameterid>
								<name>Magnitude</name>
								<valuemin>0</valuemin>
								<valuemax>200</valuemax>
								<value>0.613001</value>
							</parameter>
							<parameter>
								<parameterid>label2</parameterid>
								<name>Midrange Controls</name>
								<value/>
							</parameter>
							<parameter>
								<parameterid>mids</parameterid>
								<name>Level</name>
								<valuemin>0</valuemin>
								<valuemax>200</valuemax>
								<value>105</value>
							</parameter>
							<parameter>
								<parameterid>m_hue</parameterid>
								<name>Angle</name>
								<valuemin>-180</valuemin>
								<valuemax>180</valuemax>
								<value>78.3554</value>
							</parameter>
							<parameter>
								<parameterid>m_mag</parameterid>
								<name>Magnitude</name>
								<valuemin>0</valuemin>
								<valuemax>200</valuemax>
								<value>2.56792</value>
							</parameter>
							<parameter>
								<parameterid>label3</parameterid>
								<name>Highlight Controls</name>
								<value/>
							</parameter>
							<parameter>
								<parameterid>highlights</parameterid>
								<name>Level</name>
								<valuemin>64</valuemin>
								<valuemax>509</valuemax>
								<value>266</value>
							</parameter>
							<parameter>
								<parameterid>h_hue</parameterid>
								<name>Angle</name>
								<valuemin>-180</valuemin>
								<valuemax>180</valuemax>
								<value>-62.3647</value>
							</parameter>
							<parameter>
								<parameterid>h_mag</parameterid>
								<name>Magnitude</name>
								<valuemin>0</valuemin>
								<valuemax>200</valuemax>
								<value>3.14615</value>
							</parameter>
							<parameter>
								<parameterid>label4</parameterid>
								<name>Color Controls</name>
								<value/>
							</parameter>
							<parameter>
								<parameterid>chroma</parameterid>
								<name>Saturation</name>
								<valuemin>0</valuemin>
								<valuemax>200</valuemax>
								<value>107</value>
							</parameter>
							<parameter>
								<parameterid>label5</parameterid>
								<name>Limit Effect Controls</name>
								<value/>
							</parameter>
							<parameter>
								<parameterid>dochroma</parameterid>
								<name>Limit on Chroma</name>
								<value>FALSE</value>
							</parameter>
							<parameter>
								<parameterid>centerang</parameterid>
								<name>Chroma Center</name>
								<valuemin>-760</valuemin>
								<valuemax>760</valuemax>
								<value>-110</value>
							</parameter>
							<parameter>
								<parameterid>chromawidth</parameterid>
								<name>Chroma Width</name>
								<valuemin>0</valuemin>
								<valuemax>360</valuemax>
								<value>15</value>
							</parameter>
							<parameter>
								<parameterid>chromasoft</parameterid>
								<name>Chroma Softness</name>
								<valuemin>0</valuemin>
								<valuemax>180</valuemax>
								<value>10</value>
							</parameter>
							<parameter>
								<parameterid>dosat</parameterid>
								<name>Limit on Saturation</name>
								<value>FALSE</value>
							</parameter>
							<parameter>
								<parameterid>satmin</parameterid>
								<name>Sat. Minimum</name>
								<valuemin>0</valuemin>
								<valuemax>125</valuemax>
								<value>35</value>
							</parameter>
							<parameter>
								<parameterid>satwidth</parameterid>
								<name>Sat. Width</name>
								<valuemin>0</valuemin>
								<valuemax>125</valuemax>
								<value>40</value>
							</parameter>
							<parameter>
								<parameterid>satsoft</parameterid>
								<name>Sat. Softness</name>
								<valuemin>0</valuemin>
								<valuemax>125</valuemax>
								<value>20</value>
							</parameter>
							<parameter>
								<parameterid>doluma</parameterid>
								<name>Limit on Luma</name>
								<value>FALSE</value>
							</parameter>
							<parameter>
								<parameterid>lumamin</parameterid>
								<name>Luma Minimum</name>
								<valuemin>0</valuemin>
								<valuemax>120</valuemax>
								<value>0</value>
							</parameter>
							<parameter>
								<parameterid>lumawidth</parameterid>
								<name>Luma Width</name>
								<valuemin>0</valuemin>
								<valuemax>120</valuemax>
								<value>40</value>
							</parameter>
							<parameter>
								<parameterid>lumasoft</parameterid>
								<name>Luma Softness</name>
								<valuemin>0</valuemin>
								<valuemax>120</valuemax>
								<value>20</value>
							</parameter>
							<parameter>
								<parameterid>label6</parameterid>
								<name>Edge Control</name>
								<value/>
							</parameter>
							<parameter>
								<parameterid>edgethin</parameterid>
								<name>Thin/Spread</name>
								<valuemin>-100</valuemin>
								<valuemax>100</valuemax>
								<value>0</value>
							</parameter>
							<parameter>
								<parameterid>edgefeather</parameterid>
								<name>Softening</name>
								<valuemin>0</valuemin>
								<valuemax>100</valuemax>
								<value>0</value>
							</parameter>
							<parameter>
								<parameterid>label7</parameterid>
								<name>Mask Control</name>
								<value/>
							</parameter>
							<parameter>
								<parameterid>invertsel</parameterid>
								<name>Invert</name>
								<value>FALSE</value>
							</parameter>
							<parameter>
								<parameterid>debugshow</parameterid>
								<name>Show Stats</name>
								<value>FALSE</value>
							</parameter>
						</effect>
					</filter>
					<sourcetrack>
						<mediatype>video</mediatype>
					</sourcetrack>
					<link>
						<linkclipref>msub200012-2208k1d1-027 </linkclipref>
						<mediatype>video</mediatype>
						<trackindex>1</trackindex>
						<clipindex>81</clipindex>
					</link>
					<link>
						<linkclipref>msub200012-2208k1d1-027 3</linkclipref>
						<mediatype>audio</mediatype>
						<trackindex>1</trackindex>
						<clipindex>82</clipindex>
					</link>
					<link>
						<linkclipref>msub200012-2208k1d1-027 4</linkclipref>
						<mediatype>audio</mediatype>
						<trackindex>2</trackindex>
						<clipindex>79</clipindex>
					</link>
					<fielddominance>upper</fielddominance>
				</clipitem>
				<clipitem id="msub200012-2408-k1d2-002 ">
					<name>msub200012-2408-k1d2-002</name>
					<duration>2657</duration>
					<rate>
						<ntsc>FALSE</ntsc>
						<timebase>25</timebase>
					</rate>
					<in>1520</in>
					<out>1541</out>
					<start>24067</start>
					<end>24088</end>
					<pixelaspectratio>Square</pixelaspectratio>
					<enabled>TRUE</enabled>
					<anamorphic>FALSE</anamorphic>
					<alphatype>none</alphatype>
					<masterclipid>msub200012-2408-k1d2-002 1</masterclipid>
					<logginginfo>
						<description>msub200012-2408-k1d2-002</description>
						<scene/>
						<shottake/>
						<lognote/>
						<good>FALSE</good>
					</logginginfo>
					<labels>
						<label2/>
					</labels>
					<comments>
						<mastercomment1>RÃ…STOFF. BR_FINFREDAG_MSUA_OPRO</mastercomment1>
						<mastercomment2/>
						<mastercomment3/>
						<mastercomment4/>
					</comments>
					<file id="msub200012-2408-k1d2-002 2">
						<name>msub200012-2408-k1d2-002.mxf</name>
						<pathurl>file://localhost/omfs/clip.dir/MXF/1080i/msub200012-2408-k1d2-002.mxf</pathurl>
						<rate>
							<timebase>25</timebase>
						</rate>
						<duration>2657</duration>
						<timecode>
							<rate>
								<timebase>25</timebase>
							</rate>
							<string>08:02:57:24</string>
							<frame>724449</frame>
							<displayformat>NDF</displayformat>
							<source>source</source>
						</timecode>
						<media>
							<video>
								<duration>2657</duration>
								<samplecharacteristics>
									<width>1920</width>
									<height>1080</height>
								</samplecharacteristics>
							</video>
							<audio>
								<rate>
									<timebase>48000</timebase>
								</rate>
								<trackcount>1</trackcount>
								<samplecharacteristics>
									<depth>24</depth>
								</samplecharacteristics>
							</audio>
						</media>
					</file>
					<filter>
						<enabled>TRUE</enabled>
						<start>-1</start>
						<end>-1</end>
						<effect>
							<name>Color Corrector 3-way Copy</name>
							<effectid>Color Corrector 3-way</effectid>
							<effectcategory>Color Correction</effectcategory>
							<effecttype>filter</effecttype>
							<mediatype>video</mediatype>
							<parameter>
								<parameterid>dispmode</parameterid>
								<name>Display Mode</name>
								<valuemin>1</valuemin>
								<valuemax>3</valuemax>
								<valuelist>
									<valueentry>
										<name>Final</name>
										<value>1</value>
									</valueentry>
									<valueentry>
										<name>Matte</name>
										<value>2</value>
									</valueentry>
									<valueentry>
										<name>Source</name>
										<value>3</value>
									</valueentry>
								</valuelist>
								<value>1</value>
							</parameter>
							<parameter>
								<parameterid>label1</parameterid>
								<name>Blacks Controls</name>
								<value/>
							</parameter>
							<parameter>
								<parameterid>blacklevel</parameterid>
								<name>Level</name>
								<valuemin>-196</valuemin>
								<valuemax>254</valuemax>
								<value>-6</value>
							</parameter>
							<parameter>
								<parameterid>b_hue</parameterid>
								<name>Angle</name>
								<valuemin>-180</valuemin>
								<valuemax>180</valuemax>
								<value>-21.062</value>
							</parameter>
							<parameter>
								<parameterid>b_mag</parameterid>
								<name>Magnitude</name>
								<valuemin>0</valuemin>
								<valuemax>200</valuemax>
								<value>0.613001</value>
							</parameter>
							<parameter>
								<parameterid>label2</parameterid>
								<name>Midrange Controls</name>
								<value/>
							</parameter>
							<parameter>
								<parameterid>mids</parameterid>
								<name>Level</name>
								<valuemin>0</valuemin>
								<valuemax>200</valuemax>
								<value>105</value>
							</parameter>
							<parameter>
								<parameterid>m_hue</parameterid>
								<name>Angle</name>
								<valuemin>-180</valuemin>
								<valuemax>180</valuemax>
								<value>78.3554</value>
							</parameter>
							<parameter>
								<parameterid>m_mag</parameterid>
								<name>Magnitude</name>
								<valuemin>0</valuemin>
								<valuemax>200</valuemax>
								<value>2.56792</value>
							</parameter>
							<parameter>
								<parameterid>label3</parameterid>
								<name>Highlight Controls</name>
								<value/>
							</parameter>
							<parameter>
								<parameterid>highlights</parameterid>
								<name>Level</name>
								<valuemin>64</valuemin>
								<valuemax>509</valuemax>
								<value>266</value>
							</parameter>
							<parameter>
								<parameterid>h_hue</parameterid>
								<name>Angle</name>
								<valuemin>-180</valuemin>
								<valuemax>180</valuemax>
								<value>-62.3647</value>
							</parameter>
							<parameter>
								<parameterid>h_mag</parameterid>
								<name>Magnitude</name>
								<valuemin>0</valuemin>
								<valuemax>200</valuemax>
								<value>3.14615</value>
							</parameter>
							<parameter>
								<parameterid>label4</parameterid>
								<name>Color Controls</name>
								<value/>
							</parameter>
							<parameter>
								<parameterid>chroma</parameterid>
								<name>Saturation</name>
								<valuemin>0</valuemin>
								<valuemax>200</valuemax>
								<value>107</value>
							</parameter>
							<parameter>
								<parameterid>label5</parameterid>
								<name>Limit Effect Controls</name>
								<value/>
							</parameter>
							<parameter>
								<parameterid>dochroma</parameterid>
								<name>Limit on Chroma</name>
								<value>FALSE</value>
							</parameter>
							<parameter>
								<parameterid>centerang</parameterid>
								<name>Chroma Center</name>
								<valuemin>-760</valuemin>
								<valuemax>760</valuemax>
								<value>-110</value>
							</parameter>
							<parameter>
								<parameterid>chromawidth</parameterid>
								<name>Chroma Width</name>
								<valuemin>0</valuemin>
								<valuemax>360</valuemax>
								<value>15</value>
							</parameter>
							<parameter>
								<parameterid>chromasoft</parameterid>
								<name>Chroma Softness</name>
								<valuemin>0</valuemin>
								<valuemax>180</valuemax>
								<value>10</value>
							</parameter>
							<parameter>
								<parameterid>dosat</parameterid>
								<name>Limit on Saturation</name>
								<value>FALSE</value>
							</parameter>
							<parameter>
								<parameterid>satmin</parameterid>
								<name>Sat. Minimum</name>
								<valuemin>0</valuemin>
								<valuemax>125</valuemax>
								<value>35</value>
							</parameter>
							<parameter>
								<parameterid>satwidth</parameterid>
								<name>Sat. Width</name>
								<valuemin>0</valuemin>
								<valuemax>125</valuemax>
								<value>40</value>
							</parameter>
							<parameter>
								<parameterid>satsoft</parameterid>
								<name>Sat. Softness</name>
								<valuemin>0</valuemin>
								<valuemax>125</valuemax>
								<value>20</value>
							</parameter>
							<parameter>
								<parameterid>doluma</parameterid>
								<name>Limit on Luma</name>
								<value>FALSE</value>
							</parameter>
							<parameter>
								<parameterid>lumamin</parameterid>
								<name>Luma Minimum</name>
								<valuemin>0</valuemin>
								<valuemax>120</valuemax>
								<value>0</value>
							</parameter>
							<parameter>
								<parameterid>lumawidth</parameterid>
								<name>Luma Width</name>
								<valuemin>0</valuemin>
								<valuemax>120</valuemax>
								<value>40</value>
							</parameter>
							<parameter>
								<parameterid>lumasoft</parameterid>
								<name>Luma Softness</name>
								<valuemin>0</valuemin>
								<valuemax>120</valuemax>
								<value>20</value>
							</parameter>
							<parameter>
								<parameterid>label6</parameterid>
								<name>Edge Control</name>
								<value/>
							</parameter>
							<parameter>
								<parameterid>edgethin</parameterid>
								<name>Thin/Spread</name>
								<valuemin>-100</valuemin>
								<valuemax>100</valuemax>
								<value>0</value>
							</parameter>
							<parameter>
								<parameterid>edgefeather</parameterid>
								<name>Softening</name>
								<valuemin>0</valuemin>
								<valuemax>100</valuemax>
								<value>0</value>
							</parameter>
							<parameter>
								<parameterid>label7</parameterid>
								<name>Mask Control</name>
								<value/>
							</parameter>
							<parameter>
								<parameterid>invertsel</parameterid>
								<name>Invert</name>
								<value>FALSE</value>
							</parameter>
							<parameter>
								<parameterid>debugshow</parameterid>
								<name>Show Stats</name>
								<value>FALSE</value>
							</parameter>
						</effect>
					</filter>
					<sourcetrack>
						<mediatype>video</mediatype>
					</sourcetrack>
					<link>
						<linkclipref>msub200012-2408-k1d2-002 </linkclipref>
						<mediatype>video</mediatype>
						<trackindex>1</trackindex>
						<clipindex>82</clipindex>
					</link>
					<link>
						<linkclipref>msub200012-2408-k1d2-002 3</linkclipref>
						<mediatype>audio</mediatype>
						<trackindex>1</trackindex>
						<clipindex>83</clipindex>
					</link>
					<link>
						<linkclipref>msub200012-2408-k1d2-002 4</linkclipref>
						<mediatype>audio</mediatype>
						<trackindex>2</trackindex>
						<clipindex>80</clipindex>
					</link>
					<fielddominance>upper</fielddominance>
				</clipitem>
				<clipitem id="msub200012-2308-k1d1-003 ">
					<name>msub200012-2308-k1d1-003</name>
					<duration>4520</duration>
					<rate>
						<ntsc>FALSE</ntsc>
						<timebase>25</timebase>
					</rate>
					<in>776</in>
					<out>908</out>
					<start>24088</start>
					<end>24220</end>
					<pixelaspectratio>Square</pixelaspectratio>
					<enabled>TRUE</enabled>
					<anamorphic>FALSE</anamorphic>
					<alphatype>none</alphatype>
					<masterclipid>msub200012-2308-k1d1-003 1</masterclipid>
					<logginginfo>
						<description>msub200012-2308-k1d1-003</description>
						<scene/>
						<shottake/>
						<lognote/>
						<good>FALSE</good>
					</logginginfo>
					<labels>
						<label2/>
					</labels>
					<comments>
						<mastercomment1>RÃ…STOFF. BR_FINFREDAG_MSUA_OPRO</mastercomment1>
						<mastercomment2/>
						<mastercomment3/>
						<mastercomment4/>
					</comments>
					<file id="msub200012-2308-k1d1-003 2">
						<name>msub200012-2308-k1d1-003.mxf</name>
						<pathurl>file://localhost/omfs/clip.dir/MXF/1080i/msub200012-2308-k1d1-003.mxf</pathurl>
						<rate>
							<timebase>25</timebase>
						</rate>
						<duration>4520</duration>
						<timecode>
							<rate>
								<timebase>25</timebase>
							</rate>
							<string>07:21:37:10</string>
							<frame>662435</frame>
							<displayformat>NDF</displayformat>
							<source>source</source>
						</timecode>
						<media>
							<video>
								<duration>4520</duration>
								<samplecharacteristics>
									<width>1920</width>
									<height>1080</height>
								</samplecharacteristics>
							</video>
							<audio>
								<rate>
									<timebase>48000</timebase>
								</rate>
								<trackcount>1</trackcount>
								<samplecharacteristics>
									<depth>24</depth>
								</samplecharacteristics>
							</audio>
						</media>
					</file>
					<filter>
						<enabled>TRUE</enabled>
						<start>-1</start>
						<end>-1</end>
						<effect>
							<name>Color Corrector 3-way Copy</name>
							<effectid>Color Corrector 3-way</effectid>
							<effectcategory>Color Correction</effectcategory>
							<effecttype>filter</effecttype>
							<mediatype>video</mediatype>
							<parameter>
								<parameterid>dispmode</parameterid>
								<name>Display Mode</name>
								<valuemin>1</valuemin>
								<valuemax>3</valuemax>
								<valuelist>
									<valueentry>
										<name>Final</name>
										<value>1</value>
									</valueentry>
									<valueentry>
										<name>Matte</name>
										<value>2</value>
									</valueentry>
									<valueentry>
										<name>Source</name>
										<value>3</value>
									</valueentry>
								</valuelist>
								<value>1</value>
							</parameter>
							<parameter>
								<parameterid>label1</parameterid>
								<name>Blacks Controls</name>
								<value/>
							</parameter>
							<parameter>
								<parameterid>blacklevel</parameterid>
								<name>Level</name>
								<valuemin>-196</valuemin>
								<valuemax>254</valuemax>
								<value>-15</value>
							</parameter>
							<parameter>
								<parameterid>b_hue</parameterid>
								<name>Angle</name>
								<valuemin>-180</valuemin>
								<valuemax>180</valuemax>
								<value>-33</value>
							</parameter>
							<parameter>
								<parameterid>b_mag</parameterid>
								<name>Magnitude</name>
								<valuemin>0</valuemin>
								<valuemax>200</valuemax>
								<value>0</value>
							</parameter>
							<parameter>
								<parameterid>label2</parameterid>
								<name>Midrange Controls</name>
								<value/>
							</parameter>
							<parameter>
								<parameterid>mids</parameterid>
								<name>Level</name>
								<valuemin>0</valuemin>
								<valuemax>200</valuemax>
								<value>108</value>
							</parameter>
							<parameter>
								<parameterid>m_hue</parameterid>
								<name>Angle</name>
								<valuemin>-180</valuemin>
								<valuemax>180</valuemax>
								<value>-33</value>
							</parameter>
							<parameter>
								<parameterid>m_mag</parameterid>
								<name>Magnitude</name>
								<valuemin>0</valuemin>
								<valuemax>200</valuemax>
								<value>0</value>
							</parameter>
							<parameter>
								<parameterid>label3</parameterid>
								<name>Highlight Controls</name>
								<value/>
							</parameter>
							<parameter>
								<parameterid>highlights</parameterid>
								<name>Level</name>
								<valuemin>64</valuemin>
								<valuemax>509</valuemax>
								<value>270</value>
							</parameter>
							<parameter>
								<parameterid>h_hue</parameterid>
								<name>Angle</name>
								<valuemin>-180</valuemin>
								<valuemax>180</valuemax>
								<value>135.237</value>
							</parameter>
							<parameter>
								<parameterid>h_mag</parameterid>
								<name>Magnitude</name>
								<valuemin>0</valuemin>
								<valuemax>200</valuemax>
								<value>5.98902</value>
							</parameter>
							<parameter>
								<parameterid>label4</parameterid>
								<name>Color Controls</name>
								<value/>
							</parameter>
							<parameter>
								<parameterid>chroma</parameterid>
								<name>Saturation</name>
								<valuemin>0</valuemin>
								<valuemax>200</valuemax>
								<value>106</value>
							</parameter>
							<parameter>
								<parameterid>label5</parameterid>
								<name>Limit Effect Controls</name>
								<value/>
							</parameter>
							<parameter>
								<parameterid>dochroma</parameterid>
								<name>Limit on Chroma</name>
								<value>FALSE</value>
							</parameter>
							<parameter>
								<parameterid>centerang</parameterid>
								<name>Chroma Center</name>
								<valuemin>-760</valuemin>
								<valuemax>760</valuemax>
								<value>-110</value>
							</parameter>
							<parameter>
								<parameterid>chromawidth</parameterid>
								<name>Chroma Width</name>
								<valuemin>0</valuemin>
								<valuemax>360</valuemax>
								<value>15</value>
							</parameter>
							<parameter>
								<parameterid>chromasoft</parameterid>
								<name>Chroma Softness</name>
								<valuemin>0</valuemin>
								<valuemax>180</valuemax>
								<value>10</value>
							</parameter>
							<parameter>
								<parameterid>dosat</parameterid>
								<name>Limit on Saturation</name>
								<value>FALSE</value>
							</parameter>
							<parameter>
								<parameterid>satmin</parameterid>
								<name>Sat. Minimum</name>
								<valuemin>0</valuemin>
								<valuemax>125</valuemax>
								<value>35</value>
							</parameter>
							<parameter>
								<parameterid>satwidth</parameterid>
								<name>Sat. Width</name>
								<valuemin>0</valuemin>
								<valuemax>125</valuemax>
								<value>40</value>
							</parameter>
							<parameter>
								<parameterid>satsoft</parameterid>
								<name>Sat. Softness</name>
								<valuemin>0</valuemin>
								<valuemax>125</valuemax>
								<value>20</value>
							</parameter>
							<parameter>
								<parameterid>doluma</parameterid>
								<name>Limit on Luma</name>
								<value>FALSE</value>
							</parameter>
							<parameter>
								<parameterid>lumamin</parameterid>
								<name>Luma Minimum</name>
								<valuemin>0</valuemin>
								<valuemax>120</valuemax>
								<value>0</value>
							</parameter>
							<parameter>
								<parameterid>lumawidth</parameterid>
								<name>Luma Width</name>
								<valuemin>0</valuemin>
								<valuemax>120</valuemax>
								<value>40</value>
							</parameter>
							<parameter>
								<parameterid>lumasoft</parameterid>
								<name>Luma Softness</name>
								<valuemin>0</valuemin>
								<valuemax>120</valuemax>
								<value>20</value>
							</parameter>
							<parameter>
								<parameterid>label6</parameterid>
								<name>Edge Control</name>
								<value/>
							</parameter>
							<parameter>
								<parameterid>edgethin</parameterid>
								<name>Thin/Spread</name>
								<valuemin>-100</valuemin>
								<valuemax>100</valuemax>
								<value>0</value>
							</parameter>
							<parameter>
								<parameterid>edgefeather</parameterid>
								<name>Softening</name>
								<valuemin>0</valuemin>
								<valuemax>100</valuemax>
								<value>0</value>
							</parameter>
							<parameter>
								<parameterid>label7</parameterid>
								<name>Mask Control</name>
								<value/>
							</parameter>
							<parameter>
								<parameterid>invertsel</parameterid>
								<name>Invert</name>
								<value>FALSE</value>
							</parameter>
							<parameter>
								<parameterid>debugshow</parameterid>
								<name>Show Stats</name>
								<value>FALSE</value>
							</parameter>
						</effect>
					</filter>
					<sourcetrack>
						<mediatype>video</mediatype>
					</sourcetrack>
					<fielddominance>upper</fielddominance>
				</clipitem>
				<clipitem id="msub200012-2308-k1d1-003 3">
					<name>msub200012-2308-k1d1-003</name>
					<duration>4520</duration>
					<rate>
						<ntsc>FALSE</ntsc>
						<timebase>25</timebase>
					</rate>
					<in>990</in>
					<out>1047</out>
					<start>24220</start>
					<end>24277</end>
					<pixelaspectratio>Square</pixelaspectratio>
					<enabled>TRUE</enabled>
					<anamorphic>FALSE</anamorphic>
					<alphatype>none</alphatype>
					<masterclipid>msub200012-2308-k1d1-003 1</masterclipid>
					<logginginfo>
						<description>msub200012-2308-k1d1-003</description>
						<scene/>
						<shottake/>
						<lognote/>
						<good>FALSE</good>
					</logginginfo>
					<labels>
						<label2/>
					</labels>
					<comments>
						<mastercomment1>RÃ…STOFF. BR_FINFREDAG_MSUA_OPRO</mastercomment1>
						<mastercomment2/>
						<mastercomment3/>
						<mastercomment4/>
					</comments>
					<file id="msub200012-2308-k1d1-003 2"/>
					<filter>
						<enabled>TRUE</enabled>
						<start>-1</start>
						<end>-1</end>
						<effect>
							<name>Color Corrector 3-way Copy</name>
							<effectid>Color Corrector 3-way</effectid>
							<effectcategory>Color Correction</effectcategory>
							<effecttype>filter</effecttype>
							<mediatype>video</mediatype>
							<parameter>
								<parameterid>dispmode</parameterid>
								<name>Display Mode</name>
								<valuemin>1</valuemin>
								<valuemax>3</valuemax>
								<valuelist>
									<valueentry>
										<name>Final</name>
										<value>1</value>
									</valueentry>
									<valueentry>
										<name>Matte</name>
										<value>2</value>
									</valueentry>
									<valueentry>
										<name>Source</name>
										<value>3</value>
									</valueentry>
								</valuelist>
								<value>1</value>
							</parameter>
							<parameter>
								<parameterid>label1</parameterid>
								<name>Blacks Controls</name>
								<value/>
							</parameter>
							<parameter>
								<parameterid>blacklevel</parameterid>
								<name>Level</name>
								<valuemin>-196</valuemin>
								<valuemax>254</valuemax>
								<value>-15</value>
							</parameter>
							<parameter>
								<parameterid>b_hue</parameterid>
								<name>Angle</name>
								<valuemin>-180</valuemin>
								<valuemax>180</valuemax>
								<value>-33</value>
							</parameter>
							<parameter>
								<parameterid>b_mag</parameterid>
								<name>Magnitude</name>
								<valuemin>0</valuemin>
								<valuemax>200</valuemax>
								<value>0</value>
							</parameter>
							<parameter>
								<parameterid>label2</parameterid>
								<name>Midrange Controls</name>
								<value/>
							</parameter>
							<parameter>
								<parameterid>mids</parameterid>
								<name>Level</name>
								<valuemin>0</valuemin>
								<valuemax>200</valuemax>
								<value>108</value>
							</parameter>
							<parameter>
								<parameterid>m_hue</parameterid>
								<name>Angle</name>
								<valuemin>-180</valuemin>
								<valuemax>180</valuemax>
								<value>-33</value>
							</parameter>
							<parameter>
								<parameterid>m_mag</parameterid>
								<name>Magnitude</name>
								<valuemin>0</valuemin>
								<valuemax>200</valuemax>
								<value>0</value>
							</parameter>
							<parameter>
								<parameterid>label3</parameterid>
								<name>Highlight Controls</name>
								<value/>
							</parameter>
							<parameter>
								<parameterid>highlights</parameterid>
								<name>Level</name>
								<valuemin>64</valuemin>
								<valuemax>509</valuemax>
								<value>270</value>
							</parameter>
							<parameter>
								<parameterid>h_hue</parameterid>
								<name>Angle</name>
								<valuemin>-180</valuemin>
								<valuemax>180</valuemax>
								<value>135.237</value>
							</parameter>
							<parameter>
								<parameterid>h_mag</parameterid>
								<name>Magnitude</name>
								<valuemin>0</valuemin>
								<valuemax>200</valuemax>
								<value>5.98902</value>
							</parameter>
							<parameter>
								<parameterid>label4</parameterid>
								<name>Color Controls</name>
								<value/>
							</parameter>
							<parameter>
								<parameterid>chroma</parameterid>
								<name>Saturation</name>
								<valuemin>0</valuemin>
								<valuemax>200</valuemax>
								<value>106</value>
							</parameter>
							<parameter>
								<parameterid>label5</parameterid>
								<name>Limit Effect Controls</name>
								<value/>
							</parameter>
							<parameter>
								<parameterid>dochroma</parameterid>
								<name>Limit on Chroma</name>
								<value>FALSE</value>
							</parameter>
							<parameter>
								<parameterid>centerang</parameterid>
								<name>Chroma Center</name>
								<valuemin>-760</valuemin>
								<valuemax>760</valuemax>
								<value>-110</value>
							</parameter>
							<parameter>
								<parameterid>chromawidth</parameterid>
								<name>Chroma Width</name>
								<valuemin>0</valuemin>
								<valuemax>360</valuemax>
								<value>15</value>
							</parameter>
							<parameter>
								<parameterid>chromasoft</parameterid>
								<name>Chroma Softness</name>
								<valuemin>0</valuemin>
								<valuemax>180</valuemax>
								<value>10</value>
							</parameter>
							<parameter>
								<parameterid>dosat</parameterid>
								<name>Limit on Saturation</name>
								<value>FALSE</value>
							</parameter>
							<parameter>
								<parameterid>satmin</parameterid>
								<name>Sat. Minimum</name>
								<valuemin>0</valuemin>
								<valuemax>125</valuemax>
								<value>35</value>
							</parameter>
							<parameter>
								<parameterid>satwidth</parameterid>
								<name>Sat. Width</name>
								<valuemin>0</valuemin>
								<valuemax>125</valuemax>
								<value>40</value>
							</parameter>
							<parameter>
								<parameterid>satsoft</parameterid>
								<name>Sat. Softness</name>
								<valuemin>0</valuemin>
								<valuemax>125</valuemax>
								<value>20</value>
							</parameter>
							<parameter>
								<parameterid>doluma</parameterid>
								<name>Limit on Luma</name>
								<value>FALSE</value>
							</parameter>
							<parameter>
								<parameterid>lumamin</parameterid>
								<name>Luma Minimum</name>
								<valuemin>0</valuemin>
								<valuemax>120</valuemax>
								<value>0</value>
							</parameter>
							<parameter>
								<parameterid>lumawidth</parameterid>
								<name>Luma Width</name>
								<valuemin>0</valuemin>
								<valuemax>120</valuemax>
								<value>40</value>
							</parameter>
							<parameter>
								<parameterid>lumasoft</parameterid>
								<name>Luma Softness</name>
								<valuemin>0</valuemin>
								<valuemax>120</valuemax>
								<value>20</value>
							</parameter>
							<parameter>
								<parameterid>label6</parameterid>
								<name>Edge Control</name>
								<value/>
							</parameter>
							<parameter>
								<parameterid>edgethin</parameterid>
								<name>Thin/Spread</name>
								<valuemin>-100</valuemin>
								<valuemax>100</valuemax>
								<value>0</value>
							</parameter>
							<parameter>
								<parameterid>edgefeather</parameterid>
								<name>Softening</name>
								<valuemin>0</valuemin>
								<valuemax>100</valuemax>
								<value>0</value>
							</parameter>
							<parameter>
								<parameterid>label7</parameterid>
								<name>Mask Control</name>
								<value/>
							</parameter>
							<parameter>
								<parameterid>invertsel</parameterid>
								<name>Invert</name>
								<value>FALSE</value>
							</parameter>
							<parameter>
								<parameterid>debugshow</parameterid>
								<name>Show Stats</name>
								<value>FALSE</value>
							</parameter>
						</effect>
					</filter>
					<sourcetrack>
						<mediatype>video</mediatype>
					</sourcetrack>
					<fielddominance>upper</fielddominance>
				</clipitem>
				<clipitem id="msub20000012r-k1-d1-17025 ">
					<name>msub20000012r-k1-d1-17025</name>
					<duration>7583</duration>
					<rate>
						<ntsc>FALSE</ntsc>
						<timebase>25</timebase>
					</rate>
					<in>3060</in>
					<out>3141</out>
					<start>24277</start>
					<end>24358</end>
					<pixelaspectratio>Square</pixelaspectratio>
					<enabled>TRUE</enabled>
					<anamorphic>FALSE</anamorphic>
					<alphatype>none</alphatype>
					<masterclipid>msub20000012r-k1-d1-17025 1</masterclipid>
					<logginginfo>
						<description>msub20000012r-k1-d1-17025</description>
						<scene/>
						<shottake/>
						<lognote/>
						<good>FALSE</good>
					</logginginfo>
					<labels>
						<label2/>
					</labels>
					<comments>
						<mastercomment1>RÃ…STOFF</mastercomment1>
						<mastercomment2/>
						<mastercomment3/>
						<mastercomment4/>
					</comments>
					<file id="msub20000012r-k1-d1-17025 2">
						<name>msub20000012r-k1-d1-17025.mxf</name>
						<pathurl>file://localhost/omfs/clip.dir/MXF/1080i/msub20000012r-k1-d1-17025.mxf</pathurl>
						<rate>
							<timebase>25</timebase>
						</rate>
						<duration>7583</duration>
						<timecode>
							<rate>
								<timebase>25</timebase>
							</rate>
							<string>01:13:39:12</string>
							<frame>110487</frame>
							<displayformat>NDF</displayformat>
							<source>source</source>
						</timecode>
						<media>
							<video>
								<duration>7583</duration>
								<samplecharacteristics>
									<width>1920</width>
									<height>1080</height>
								</samplecharacteristics>
							</video>
							<audio>
								<rate>
									<timebase>48000</timebase>
								</rate>
								<trackcount>1</trackcount>
								<samplecharacteristics>
									<depth>24</depth>
								</samplecharacteristics>
							</audio>
						</media>
					</file>
					<filter>
						<enabled>TRUE</enabled>
						<start>-1</start>
						<end>-1</end>
						<effect>
							<name>Color Corrector 3-way Copy</name>
							<effectid>Color Corrector 3-way</effectid>
							<effectcategory>Color Correction</effectcategory>
							<effecttype>filter</effecttype>
							<mediatype>video</mediatype>
							<parameter>
								<parameterid>dispmode</parameterid>
								<name>Display Mode</name>
								<valuemin>1</valuemin>
								<valuemax>3</valuemax>
								<valuelist>
									<valueentry>
										<name>Final</name>
										<value>1</value>
									</valueentry>
									<valueentry>
										<name>Matte</name>
										<value>2</value>
									</valueentry>
									<valueentry>
										<name>Source</name>
										<value>3</value>
									</valueentry>
								</valuelist>
								<value>1</value>
							</parameter>
							<parameter>
								<parameterid>label1</parameterid>
								<name>Blacks Controls</name>
								<value/>
							</parameter>
							<parameter>
								<parameterid>blacklevel</parameterid>
								<name>Level</name>
								<valuemin>-196</valuemin>
								<valuemax>254</valuemax>
								<value>-13</value>
							</parameter>
							<parameter>
								<parameterid>b_hue</parameterid>
								<name>Angle</name>
								<valuemin>-180</valuemin>
								<valuemax>180</valuemax>
								<value>-33</value>
							</parameter>
							<parameter>
								<parameterid>b_mag</parameterid>
								<name>Magnitude</name>
								<valuemin>0</valuemin>
								<valuemax>200</valuemax>
								<value>0</value>
							</parameter>
							<parameter>
								<parameterid>label2</parameterid>
								<name>Midrange Controls</name>
								<value/>
							</parameter>
							<parameter>
								<parameterid>mids</parameterid>
								<name>Level</name>
								<valuemin>0</valuemin>
								<valuemax>200</valuemax>
								<value>118</value>
							</parameter>
							<parameter>
								<parameterid>m_hue</parameterid>
								<name>Angle</name>
								<valuemin>-180</valuemin>
								<valuemax>180</valuemax>
								<value>-29.2484</value>
							</parameter>
							<parameter>
								<parameterid>m_mag</parameterid>
								<name>Magnitude</name>
								<valuemin>0</valuemin>
								<valuemax>200</valuemax>
								<value>1.93656</value>
							</parameter>
							<parameter>
								<parameterid>label3</parameterid>
								<name>Highlight Controls</name>
								<value/>
							</parameter>
							<parameter>
								<parameterid>highlights</parameterid>
								<name>Level</name>
								<valuemin>64</valuemin>
								<valuemax>509</valuemax>
								<value>294</value>
							</parameter>
							<parameter>
								<parameterid>h_hue</parameterid>
								<name>Angle</name>
								<valuemin>-180</valuemin>
								<valuemax>180</valuemax>
								<value>174.702</value>
							</parameter>
							<parameter>
								<parameterid>h_mag</parameterid>
								<name>Magnitude</name>
								<valuemin>0</valuemin>
								<valuemax>200</valuemax>
								<value>1.92281</value>
							</parameter>
							<parameter>
								<parameterid>label4</parameterid>
								<name>Color Controls</name>
								<value/>
							</parameter>
							<parameter>
								<parameterid>chroma</parameterid>
								<name>Saturation</name>
								<valuemin>0</valuemin>
								<valuemax>200</valuemax>
								<value>131</value>
							</parameter>
							<parameter>
								<parameterid>label5</parameterid>
								<name>Limit Effect Controls</name>
								<value/>
							</parameter>
							<parameter>
								<parameterid>dochroma</parameterid>
								<name>Limit on Chroma</name>
								<value>FALSE</value>
							</parameter>
							<parameter>
								<parameterid>centerang</parameterid>
								<name>Chroma Center</name>
								<valuemin>-760</valuemin>
								<valuemax>760</valuemax>
								<value>-110</value>
							</parameter>
							<parameter>
								<parameterid>chromawidth</parameterid>
								<name>Chroma Width</name>
								<valuemin>0</valuemin>
								<valuemax>360</valuemax>
								<value>15</value>
							</parameter>
							<parameter>
								<parameterid>chromasoft</parameterid>
								<name>Chroma Softness</name>
								<valuemin>0</valuemin>
								<valuemax>180</valuemax>
								<value>10</value>
							</parameter>
							<parameter>
								<parameterid>dosat</parameterid>
								<name>Limit on Saturation</name>
								<value>FALSE</value>
							</parameter>
							<parameter>
								<parameterid>satmin</parameterid>
								<name>Sat. Minimum</name>
								<valuemin>0</valuemin>
								<valuemax>125</valuemax>
								<value>35</value>
							</parameter>
							<parameter>
								<parameterid>satwidth</parameterid>
								<name>Sat. Width</name>
								<valuemin>0</valuemin>
								<valuemax>125</valuemax>
								<value>40</value>
							</parameter>
							<parameter>
								<parameterid>satsoft</parameterid>
								<name>Sat. Softness</name>
								<valuemin>0</valuemin>
								<valuemax>125</valuemax>
								<value>20</value>
							</parameter>
							<parameter>
								<parameterid>doluma</parameterid>
								<name>Limit on Luma</name>
								<value>FALSE</value>
							</parameter>
							<parameter>
								<parameterid>lumamin</parameterid>
								<name>Luma Minimum</name>
								<valuemin>0</valuemin>
								<valuemax>120</valuemax>
								<value>0</value>
							</parameter>
							<parameter>
								<parameterid>lumawidth</parameterid>
								<name>Luma Width</name>
								<valuemin>0</valuemin>
								<valuemax>120</valuemax>
								<value>40</value>
							</parameter>
							<parameter>
								<parameterid>lumasoft</parameterid>
								<name>Luma Softness</name>
								<valuemin>0</valuemin>
								<valuemax>120</valuemax>
								<value>20</value>
							</parameter>
							<parameter>
								<parameterid>label6</parameterid>
								<name>Edge Control</name>
								<value/>
							</parameter>
							<parameter>
								<parameterid>edgethin</parameterid>
								<name>Thin/Spread</name>
								<valuemin>-100</valuemin>
								<valuemax>100</valuemax>
								<value>0</value>
							</parameter>
							<parameter>
								<parameterid>edgefeather</parameterid>
								<name>Softening</name>
								<valuemin>0</valuemin>
								<valuemax>100</valuemax>
								<value>0</value>
							</parameter>
							<parameter>
								<parameterid>label7</parameterid>
								<name>Mask Control</name>
								<value/>
							</parameter>
							<parameter>
								<parameterid>invertsel</parameterid>
								<name>Invert</name>
								<value>FALSE</value>
							</parameter>
							<parameter>
								<parameterid>debugshow</parameterid>
								<name>Show Stats</name>
								<value>FALSE</value>
							</parameter>
						</effect>
					</filter>
					<sourcetrack>
						<mediatype>video</mediatype>
					</sourcetrack>
					<fielddominance>upper</fielddominance>
				</clipitem>
				<clipitem id="msub20000012r-k1-d1-17006 ">
					<name>msub20000012r-k1-d1-17006</name>
					<duration>2072</duration>
					<rate>
						<ntsc>FALSE</ntsc>
						<timebase>25</timebase>
					</rate>
					<in>1698</in>
					<out>1763</out>
					<start>24358</start>
					<end>24423</end>
					<pixelaspectratio>Square</pixelaspectratio>
					<enabled>TRUE</enabled>
					<anamorphic>FALSE</anamorphic>
					<alphatype>none</alphatype>
					<masterclipid>msub20000012r-k1-d1-17006 1</masterclipid>
					<logginginfo>
						<description>msub20000012r-k1-d1-17006</description>
						<scene/>
						<shottake/>
						<lognote/>
						<good>FALSE</good>
					</logginginfo>
					<labels>
						<label2/>
					</labels>
					<comments>
						<mastercomment1>RÃ…STOFF</mastercomment1>
						<mastercomment2/>
						<mastercomment3/>
						<mastercomment4/>
					</comments>
					<file id="msub20000012r-k1-d1-17006 2">
						<name>msub20000012r-k1-d1-17006.mxf</name>
						<pathurl>file://localhost/omfs/clip.dir/MXF/1080i/msub20000012r-k1-d1-17006.mxf</pathurl>
						<rate>
							<timebase>25</timebase>
						</rate>
						<duration>2072</duration>
						<timecode>
							<rate>
								<timebase>25</timebase>
							</rate>
							<string>01:03:26:23</string>
							<frame>95173</frame>
							<displayformat>NDF</displayformat>
							<source>source</source>
						</timecode>
						<media>
							<video>
								<duration>2072</duration>
								<samplecharacteristics>
									<width>1920</width>
									<height>1080</height>
								</samplecharacteristics>
							</video>
							<audio>
								<rate>
									<timebase>48000</timebase>
								</rate>
								<trackcount>1</trackcount>
								<samplecharacteristics>
									<depth>24</depth>
								</samplecharacteristics>
							</audio>
						</media>
					</file>
					<filter>
						<start>-1</start>
						<end>-1</end>
						<effect>
							<name>Color Corrector 3-way Copy</name>
							<effectid>Color Corrector 3-way</effectid>
							<effectcategory>Color Correction</effectcategory>
							<effecttype>filter</effecttype>
							<mediatype>video</mediatype>
							<parameter>
								<parameterid>dispmode</parameterid>
								<name>Display Mode</name>
								<valuemin>1</valuemin>
								<valuemax>3</valuemax>
								<valuelist>
									<valueentry>
										<name>Final</name>
										<value>1</value>
									</valueentry>
									<valueentry>
										<name>Matte</name>
										<value>2</value>
									</valueentry>
									<valueentry>
										<name>Source</name>
										<value>3</value>
									</valueentry>
								</valuelist>
								<value>1</value>
							</parameter>
							<parameter>
								<parameterid>label1</parameterid>
								<name>Blacks Controls</name>
								<value/>
							</parameter>
							<parameter>
								<parameterid>blacklevel</parameterid>
								<name>Level</name>
								<valuemin>-196</valuemin>
								<valuemax>254</valuemax>
								<value>-14</value>
							</parameter>
							<parameter>
								<parameterid>b_hue</parameterid>
								<name>Angle</name>
								<valuemin>-180</valuemin>
								<valuemax>180</valuemax>
								<value>-33</value>
							</parameter>
							<parameter>
								<parameterid>b_mag</parameterid>
								<name>Magnitude</name>
								<valuemin>0</valuemin>
								<valuemax>200</valuemax>
								<value>0</value>
							</parameter>
							<parameter>
								<parameterid>label2</parameterid>
								<name>Midrange Controls</name>
								<value/>
							</parameter>
							<parameter>
								<parameterid>mids</parameterid>
								<name>Level</name>
								<valuemin>0</valuemin>
								<valuemax>200</valuemax>
								<value>118</value>
							</parameter>
							<parameter>
								<parameterid>m_hue</parameterid>
								<name>Angle</name>
								<valuemin>-180</valuemin>
								<valuemax>180</valuemax>
								<value>-29.2484</value>
							</parameter>
							<parameter>
								<parameterid>m_mag</parameterid>
								<name>Magnitude</name>
								<valuemin>0</valuemin>
								<valuemax>200</valuemax>
								<value>1.93656</value>
							</parameter>
							<parameter>
								<parameterid>label3</parameterid>
								<name>Highlight Controls</name>
								<value/>
							</parameter>
							<parameter>
								<parameterid>highlights</parameterid>
								<name>Level</name>
								<valuemin>64</valuemin>
								<valuemax>509</valuemax>
								<value>294</value>
							</parameter>
							<parameter>
								<parameterid>h_hue</parameterid>
								<name>Angle</name>
								<valuemin>-180</valuemin>
								<valuemax>180</valuemax>
								<value>174.702</value>
							</parameter>
							<parameter>
								<parameterid>h_mag</parameterid>
								<name>Magnitude</name>
								<valuemin>0</valuemin>
								<valuemax>200</valuemax>
								<value>1.92281</value>
							</parameter>
							<parameter>
								<parameterid>label4</parameterid>
								<name>Color Controls</name>
								<value/>
							</parameter>
							<parameter>
								<parameterid>chroma</parameterid>
								<name>Saturation</name>
								<valuemin>0</valuemin>
								<valuemax>200</valuemax>
								<value>131</value>
							</parameter>
							<parameter>
								<parameterid>label5</parameterid>
								<name>Limit Effect Controls</name>
								<value/>
							</parameter>
							<parameter>
								<parameterid>dochroma</parameterid>
								<name>Limit on Chroma</name>
								<value>FALSE</value>
							</parameter>
							<parameter>
								<parameterid>centerang</parameterid>
								<name>Chroma Center</name>
								<valuemin>-760</valuemin>
								<valuemax>760</valuemax>
								<value>-110</value>
							</parameter>
							<parameter>
								<parameterid>chromawidth</parameterid>
								<name>Chroma Width</name>
								<valuemin>0</valuemin>
								<valuemax>360</valuemax>
								<value>15</value>
							</parameter>
							<parameter>
								<parameterid>chromasoft</parameterid>
								<name>Chroma Softness</name>
								<valuemin>0</valuemin>
								<valuemax>180</valuemax>
								<value>10</value>
							</parameter>
							<parameter>
								<parameterid>dosat</parameterid>
								<name>Limit on Saturation</name>
								<value>FALSE</value>
							</parameter>
							<parameter>
								<parameterid>satmin</parameterid>
								<name>Sat. Minimum</name>
								<valuemin>0</valuemin>
								<valuemax>125</valuemax>
								<value>35</value>
							</parameter>
							<parameter>
								<parameterid>satwidth</parameterid>
								<name>Sat. Width</name>
								<valuemin>0</valuemin>
								<valuemax>125</valuemax>
								<value>40</value>
							</parameter>
							<parameter>
								<parameterid>satsoft</parameterid>
								<name>Sat. Softness</name>
								<valuemin>0</valuemin>
								<valuemax>125</valuemax>
								<value>20</value>
							</parameter>
							<parameter>
								<parameterid>doluma</parameterid>
								<name>Limit on Luma</name>
								<value>FALSE</value>
							</parameter>
							<parameter>
								<parameterid>lumamin</parameterid>
								<name>Luma Minimum</name>
								<valuemin>0</valuemin>
								<valuemax>120</valuemax>
								<value>0</value>
							</parameter>
							<parameter>
								<parameterid>lumawidth</parameterid>
								<name>Luma Width</name>
								<valuemin>0</valuemin>
								<valuemax>120</valuemax>
								<value>40</value>
							</parameter>
							<parameter>
								<parameterid>lumasoft</parameterid>
								<name>Luma Softness</name>
								<valuemin>0</valuemin>
								<valuemax>120</valuemax>
								<value>20</value>
							</parameter>
							<parameter>
								<parameterid>label6</parameterid>
								<name>Edge Control</name>
								<value/>
							</parameter>
							<parameter>
								<parameterid>edgethin</parameterid>
								<name>Thin/Spread</name>
								<valuemin>-100</valuemin>
								<valuemax>100</valuemax>
								<value>0</value>
							</parameter>
							<parameter>
								<parameterid>edgefeather</parameterid>
								<name>Softening</name>
								<valuemin>0</valuemin>
								<valuemax>100</valuemax>
								<value>0</value>
							</parameter>
							<parameter>
								<parameterid>label7</parameterid>
								<name>Mask Control</name>
								<value/>
							</parameter>
							<parameter>
								<parameterid>invertsel</parameterid>
								<name>Invert</name>
								<value>FALSE</value>
							</parameter>
							<parameter>
								<parameterid>debugshow</parameterid>
								<name>Show Stats</name>
								<value>FALSE</value>
							</parameter>
						</effect>
					</filter>
					<sourcetrack>
						<mediatype>video</mediatype>
					</sourcetrack>
					<link>
						<linkclipref>msub20000012r-k1-d1-17006 </linkclipref>
						<mediatype>video</mediatype>
						<trackindex>1</trackindex>
						<clipindex>86</clipindex>
					</link>
					<link>
						<linkclipref>msub20000012r-k1-d1-17006 3</linkclipref>
						<mediatype>audio</mediatype>
						<trackindex>5</trackindex>
						<clipindex>16</clipindex>
					</link>
					<link>
						<linkclipref>msub20000012r-k1-d1-17006 4</linkclipref>
						<mediatype>audio</mediatype>
						<trackindex>6</trackindex>
						<clipindex>21</clipindex>
					</link>
					<fielddominance>upper</fielddominance>
				</clipitem>
				<clipitem id="msub200012-2308-k1d3005 ">
					<name>msub200012-2308-k1d3005</name>
					<duration>4531</duration>
					<rate>
						<ntsc>FALSE</ntsc>
						<timebase>25</timebase>
					</rate>
					<in>2664</in>
					<out>2696</out>
					<start>24423</start>
					<end>24455</end>
					<pixelaspectratio>Square</pixelaspectratio>
					<enabled>TRUE</enabled>
					<anamorphic>FALSE</anamorphic>
					<alphatype>none</alphatype>
					<logginginfo>
						<description>msub200012-2308-k1d3005</description>
						<scene/>
						<shottake/>
						<lognote/>
						<good>FALSE</good>
					</logginginfo>
					<labels>
						<label2/>
					</labels>
					<comments>
						<mastercomment1>RÃ…STOFF. BR_FINFREDAG_MSUA_OPRO</mastercomment1>
						<mastercomment2/>
						<mastercomment3/>
						<mastercomment4/>
					</comments>
					<file id="msub200012-2308-k1d3005 1">
						<name>msub200012-2308-k1d3005.mxf</name>
						<pathurl>file://localhost/omfs/clip.dir/MXF/1080i/msub200012-2308-k1d3005.mxf</pathurl>
						<rate>
							<timebase>25</timebase>
						</rate>
						<duration>3165</duration>
						<timecode>
							<rate>
								<timebase>25</timebase>
							</rate>
							<string>07:17:38:02</string>
							<frame>656452</frame>
							<displayformat>NDF</displayformat>
							<source>source</source>
						</timecode>
						<media>
							<video>
								<duration>3165</duration>
								<samplecharacteristics>
									<width>1920</width>
									<height>1080</height>
								</samplecharacteristics>
							</video>
							<audio>
								<rate>
									<timebase>48000</timebase>
								</rate>
								<trackcount>1</trackcount>
								<samplecharacteristics>
									<depth>24</depth>
								</samplecharacteristics>
							</audio>
						</media>
					</file>
					<sourcetrack>
						<mediatype>video</mediatype>
					</sourcetrack>
					<fielddominance>upper</fielddominance>
					<filter>
						<effect>
							<name>Time Remap</name>
							<effectid>timeremap</effectid>
							<effectcategory>motion</effectcategory>
							<effecttype>motion</effecttype>
							<mediatype>video</mediatype>
							<parameter>
								<parameterid>variablespeed</parameterid>
								<name>variablespeed</name>
								<valuemin>0</valuemin>
								<valuemax>1</valuemax>
								<value>0</value>
							</parameter>
							<parameter>
								<parameterid>mappedduration</parameterid>
								<name>mappedduration</name>
								<value>
									<timecode>
										<rate>
											<timebase>0</timebase>
										</rate>
										<string>0</string>
										<frame>0</frame>
										<displayformat>NDF</displayformat>
									</timecode>
								</value>
							</parameter>
							<parameter>
								<parameterid>speed</parameterid>
								<name>speed</name>
								<valuemin>-10000</valuemin>
								<valuemax>10000</valuemax>
								<value>69</value>
							</parameter>
							<parameter>
								<parameterid>reverse</parameterid>
								<name>reverse</name>
								<value>FALSE</value>
							</parameter>
							<parameter>
								<parameterid>frameblending</parameterid>
								<name>frameblending</name>
								<value>TRUE</value>
							</parameter>
							<parameter>
								<parameterid>graphdict</parameterid>
								<name>graphdict</name>
								<valuemin>0</valuemin>
								<valuemax>3164</valuemax>
								<keyframe>
									<when>0</when>
									<value>0.3165</value>
									<speedkfstart>TRUE</speedkfstart>
									<speedvirtualkf>TRUE</speedvirtualkf>
								</keyframe>
								<keyframe>
									<when>2664</when>
									<value>1861</value>
									<speedkfin>TRUE</speedkfin>
									<speedvirtualkf>TRUE</speedvirtualkf>
								</keyframe>
								<keyframe>
									<when>2696</when>
									<value>1883.35</value>
									<speedkfout>TRUE</speedkfout>
									<speedvirtualkf>TRUE</speedvirtualkf>
								</keyframe>
								<keyframe>
									<when>4531</when>
									<value>3165.32</value>
									<speedkfend>TRUE</speedkfend>
									<speedvirtualkf>TRUE</speedvirtualkf>
								</keyframe>
								<interpolation>
									<name>FCPCurve</name>
								</interpolation>
								<value>1861</value>
							</parameter>
						</effect>
					</filter>
				</clipitem>
				<clipitem id="msub200012-2108kid2018 ">
					<name>msub200012-2108kid2018</name>
					<duration>9844</duration>
					<rate>
						<ntsc>FALSE</ntsc>
						<timebase>25</timebase>
					</rate>
					<in>5157</in>
					<out>5183</out>
					<start>24455</start>
					<end>24481</end>
					<pixelaspectratio>Square</pixelaspectratio>
					<enabled>TRUE</enabled>
					<anamorphic>FALSE</anamorphic>
					<alphatype>none</alphatype>
					<masterclipid>msub200012-2108kid2018 1</masterclipid>
					<logginginfo>
						<description>msub200012-2108kid2018</description>
						<scene/>
						<shottake/>
						<lognote/>
						<good>FALSE</good>
					</logginginfo>
					<labels>
						<label2/>
					</labels>
					<comments>
						<mastercomment1>RÃ…STOFF. BR_FINFREDAG_MSUA_OPRO</mastercomment1>
						<mastercomment2/>
						<mastercomment3/>
						<mastercomment4/>
					</comments>
					<file id="msub200012-2108kid2018 2">
						<name>msub200012-2108kid2018.mxf</name>
						<pathurl>file://localhost/omfs/clip.dir/MXF/1080i/msub200012-2108kid2018.mxf</pathurl>
						<rate>
							<timebase>25</timebase>
						</rate>
						<duration>6874</duration>
						<timecode>
							<rate>
								<timebase>25</timebase>
							</rate>
							<string>02:57:15:10</string>
							<frame>265885</frame>
							<displayformat>NDF</displayformat>
							<source>source</source>
						</timecode>
						<media>
							<video>
								<duration>6874</duration>
								<samplecharacteristics>
									<width>1920</width>
									<height>1080</height>
								</samplecharacteristics>
							</video>
							<audio>
								<rate>
									<timebase>48000</timebase>
								</rate>
								<trackcount>1</trackcount>
								<samplecharacteristics>
									<depth>24</depth>
								</samplecharacteristics>
							</audio>
						</media>
					</file>
					<sourcetrack>
						<mediatype>video</mediatype>
					</sourcetrack>
					<fielddominance>upper</fielddominance>
					<filter>
						<effect>
							<name>Time Remap</name>
							<effectid>timeremap</effectid>
							<effectcategory>motion</effectcategory>
							<effecttype>motion</effecttype>
							<mediatype>video</mediatype>
							<parameter>
								<parameterid>variablespeed</parameterid>
								<name>variablespeed</name>
								<valuemin>0</valuemin>
								<valuemax>1</valuemax>
								<value>0</value>
							</parameter>
							<parameter>
								<parameterid>mappedduration</parameterid>
								<name>mappedduration</name>
								<value>
									<timecode>
										<rate>
											<timebase>0</timebase>
										</rate>
										<string>0</string>
										<frame>0</frame>
										<displayformat>NDF</displayformat>
									</timecode>
								</value>
							</parameter>
							<parameter>
								<parameterid>speed</parameterid>
								<name>speed</name>
								<valuemin>-10000</valuemin>
								<valuemax>10000</valuemax>
								<value>69</value>
							</parameter>
							<parameter>
								<parameterid>reverse</parameterid>
								<name>reverse</name>
								<value>FALSE</value>
							</parameter>
							<parameter>
								<parameterid>frameblending</parameterid>
								<name>frameblending</name>
								<value>TRUE</value>
							</parameter>
							<parameter>
								<parameterid>graphdict</parameterid>
								<name>graphdict</name>
								<valuemin>0</valuemin>
								<valuemax>6873</valuemax>
								<keyframe>
									<when>0</when>
									<value>0.0589</value>
									<speedkfstart>TRUE</speedkfstart>
									<speedvirtualkf>TRUE</speedvirtualkf>
								</keyframe>
								<keyframe>
									<when>5157</when>
									<value>3601</value>
									<speedkfin>TRUE</speedkfin>
									<speedvirtualkf>TRUE</speedvirtualkf>
								</keyframe>
								<keyframe>
									<when>5183</when>
									<value>3619.15</value>
									<speedkfout>TRUE</speedkfout>
									<speedvirtualkf>TRUE</speedvirtualkf>
								</keyframe>
								<keyframe>
									<when>9844</when>
									<value>6874.06</value>
									<speedkfend>TRUE</speedkfend>
									<speedvirtualkf>TRUE</speedvirtualkf>
								</keyframe>
								<interpolation>
									<name>FCPCurve</name>
								</interpolation>
								<value>3601</value>
							</parameter>
						</effect>
					</filter>
				</clipitem>
				<clipitem id="msub200012-2108kid2010 ">
					<name>msub200012-2108kid2010</name>
					<duration>7737</duration>
					<rate>
						<ntsc>FALSE</ntsc>
						<timebase>25</timebase>
					</rate>
					<in>4271</in>
					<out>4291</out>
					<start>24481</start>
					<end>24501</end>
					<pixelaspectratio>Square</pixelaspectratio>
					<enabled>TRUE</enabled>
					<anamorphic>FALSE</anamorphic>
					<alphatype>none</alphatype>
					<logginginfo>
						<description>msub200012-2108kid2010</description>
						<scene/>
						<shottake/>
						<lognote/>
						<good>FALSE</good>
					</logginginfo>
					<labels>
						<label2/>
					</labels>
					<comments>
						<mastercomment1>RÃ…STOFF. BR_FINFREDAG_MSUA_OPRO</mastercomment1>
						<mastercomment2/>
						<mastercomment3/>
						<mastercomment4/>
					</comments>
					<file id="msub200012-2108kid2010 1">
						<name>msub200012-2108kid2010.mxf</name>
						<pathurl>file://localhost/omfs/clip.dir/MXF/1080i/msub200012-2108kid2010.mxf</pathurl>
						<rate>
							<timebase>25</timebase>
						</rate>
						<duration>5481</duration>
						<timecode>
							<rate>
								<timebase>25</timebase>
							</rate>
							<string>02:39:43:00</string>
							<frame>239575</frame>
							<displayformat>NDF</displayformat>
							<source>source</source>
						</timecode>
						<media>
							<video>
								<duration>5481</duration>
								<samplecharacteristics>
									<width>1920</width>
									<height>1080</height>
								</samplecharacteristics>
							</video>
							<audio>
								<rate>
									<timebase>48000</timebase>
								</rate>
								<trackcount>1</trackcount>
								<samplecharacteristics>
									<depth>24</depth>
								</samplecharacteristics>
							</audio>
						</media>
					</file>
					<sourcetrack>
						<mediatype>video</mediatype>
					</sourcetrack>
					<fielddominance>upper</fielddominance>
					<filter>
						<effect>
							<name>Time Remap</name>
							<effectid>timeremap</effectid>
							<effectcategory>motion</effectcategory>
							<effecttype>motion</effecttype>
							<mediatype>video</mediatype>
							<parameter>
								<parameterid>variablespeed</parameterid>
								<name>variablespeed</name>
								<valuemin>0</valuemin>
								<valuemax>1</valuemax>
								<value>0</value>
							</parameter>
							<parameter>
								<parameterid>mappedduration</parameterid>
								<name>mappedduration</name>
								<value>
									<timecode>
										<rate>
											<timebase>0</timebase>
										</rate>
										<string>0</string>
										<frame>0</frame>
										<displayformat>NDF</displayformat>
									</timecode>
								</value>
							</parameter>
							<parameter>
								<parameterid>speed</parameterid>
								<name>speed</name>
								<valuemin>-10000</valuemin>
								<valuemax>10000</valuemax>
								<value>70</value>
							</parameter>
							<parameter>
								<parameterid>reverse</parameterid>
								<name>reverse</name>
								<value>FALSE</value>
							</parameter>
							<parameter>
								<parameterid>frameblending</parameterid>
								<name>frameblending</name>
								<value>TRUE</value>
							</parameter>
							<parameter>
								<parameterid>graphdict</parameterid>
								<name>graphdict</name>
								<valuemin>0</valuemin>
								<valuemax>5480</valuemax>
								<keyframe>
									<when>0</when>
									<value>0.5243</value>
									<speedkfstart>TRUE</speedkfstart>
									<speedvirtualkf>TRUE</speedvirtualkf>
								</keyframe>
								<keyframe>
									<when>4271</when>
									<value>3026</value>
									<speedkfin>TRUE</speedkfin>
									<speedvirtualkf>TRUE</speedvirtualkf>
								</keyframe>
								<keyframe>
									<when>4291</when>
									<value>3040.17</value>
									<speedkfout>TRUE</speedkfout>
									<speedvirtualkf>TRUE</speedvirtualkf>
								</keyframe>
								<keyframe>
									<when>7737</when>
									<value>5481.52</value>
									<speedkfend>TRUE</speedkfend>
									<speedvirtualkf>TRUE</speedvirtualkf>
								</keyframe>
								<interpolation>
									<name>FCPCurve</name>
								</interpolation>
								<value>3026</value>
							</parameter>
						</effect>
					</filter>
				</clipitem>
				<clipitem id="msub200012-2308-k1d2016.mxf">
					<name>msub200012-2308-k1d2016.mxf</name>
					<duration>15795</duration>
					<rate>
						<ntsc>FALSE</ntsc>
						<timebase>25</timebase>
					</rate>
					<in>13008</in>
					<out>13066</out>
					<start>24501</start>
					<end>24559</end>
					<pixelaspectratio>Square</pixelaspectratio>
					<enabled>TRUE</enabled>
					<anamorphic>FALSE</anamorphic>
					<alphatype>none</alphatype>
					<masterclipid>msub200012-2308-k1d2016.mxf1</masterclipid>
					<logginginfo>
						<scene/>
						<shottake/>
						<lognote/>
						<good>FALSE</good>
					</logginginfo>
					<labels>
						<label2/>
					</labels>
					<comments>
						<mastercomment1/>
						<mastercomment2/>
						<mastercomment3/>
						<mastercomment4/>
					</comments>
					<file id="msub200012-2308-k1d2016 ">
						<name>msub200012-2308-k1d2016.mxf</name>
						<pathurl>file://localhost/omfs/clip.dir/MXF/1080i/msub200012-2308-k1d2016.mxf</pathurl>
						<rate>
							<timebase>25</timebase>
						</rate>
						<duration>15795</duration>
						<timecode>
							<rate>
								<timebase>25</timebase>
							</rate>
							<string>06:41:01:05</string>
							<frame>601530</frame>
							<displayformat>NDF</displayformat>
							<source>source</source>
						</timecode>
						<media>
							<video>
								<duration>15795</duration>
								<samplecharacteristics>
									<width>1920</width>
									<height>1080</height>
								</samplecharacteristics>
							</video>
							<audio>
								<rate>
									<timebase>48000</timebase>
								</rate>
								<trackcount>1</trackcount>
								<samplecharacteristics>
									<depth>24</depth>
								</samplecharacteristics>
							</audio>
						</media>
					</file>
					<sourcetrack>
						<mediatype>video</mediatype>
					</sourcetrack>
					<link>
						<linkclipref>msub200012-2308-k1d2016.mxf</linkclipref>
						<mediatype>video</mediatype>
						<trackindex>1</trackindex>
						<clipindex>90</clipindex>
					</link>
					<link>
						<linkclipref>msub200012-2308-k1d2016.mxf2</linkclipref>
						<mediatype>audio</mediatype>
						<trackindex>1</trackindex>
						<clipindex>87</clipindex>
					</link>
					<link>
						<linkclipref>msub200012-2308-k1d2016.mxf3</linkclipref>
						<mediatype>audio</mediatype>
						<trackindex>2</trackindex>
						<clipindex>84</clipindex>
					</link>
					<fielddominance>upper</fielddominance>
				</clipitem>
				<clipitem id="msub200012-2308-k1d2016.mxf4">
					<name>msub200012-2308-k1d2016.mxf</name>
					<duration>15795</duration>
					<rate>
						<ntsc>FALSE</ntsc>
						<timebase>25</timebase>
					</rate>
					<in>8404</in>
					<out>8437</out>
					<start>24559</start>
					<end>24592</end>
					<pixelaspectratio>Square</pixelaspectratio>
					<enabled>TRUE</enabled>
					<anamorphic>FALSE</anamorphic>
					<alphatype>none</alphatype>
					<masterclipid>msub200012-2308-k1d2016.mxf1</masterclipid>
					<logginginfo>
						<scene/>
						<shottake/>
						<lognote/>
						<good>FALSE</good>
					</logginginfo>
					<labels>
						<label2/>
					</labels>
					<comments>
						<mastercomment1/>
						<mastercomment2/>
						<mastercomment3/>
						<mastercomment4/>
					</comments>
					<file id="msub200012-2308-k1d2016 "/>
					<sourcetrack>
						<mediatype>video</mediatype>
					</sourcetrack>
					<link>
						<linkclipref>msub200012-2308-k1d2016.mxf4</linkclipref>
						<mediatype>video</mediatype>
						<trackindex>1</trackindex>
						<clipindex>91</clipindex>
					</link>
					<link>
						<linkclipref>msub200012-2308-k1d2016.mxf5</linkclipref>
						<mediatype>audio</mediatype>
						<trackindex>1</trackindex>
						<clipindex>88</clipindex>
					</link>
					<link>
						<linkclipref>msub200012-2308-k1d2016.mxf6</linkclipref>
						<mediatype>audio</mediatype>
						<trackindex>2</trackindex>
						<clipindex>85</clipindex>
					</link>
					<fielddominance>upper</fielddominance>
				</clipitem>
				<clipitem id="msub200012-2308-k1d2003.mxf">
					<name>msub200012-2308-k1d2003.mxf</name>
					<duration>860</duration>
					<rate>
						<ntsc>FALSE</ntsc>
						<timebase>25</timebase>
					</rate>
					<in>472</in>
					<out>509</out>
					<start>24592</start>
					<end>24629</end>
					<pixelaspectratio>Square</pixelaspectratio>
					<enabled>TRUE</enabled>
					<anamorphic>FALSE</anamorphic>
					<alphatype>none</alphatype>
					<masterclipid>msub200012-2308-k1d2003.mxf1</masterclipid>
					<logginginfo>
						<scene/>
						<shottake/>
						<lognote/>
						<good>FALSE</good>
					</logginginfo>
					<labels>
						<label2/>
					</labels>
					<comments>
						<mastercomment1/>
						<mastercomment2/>
						<mastercomment3/>
						<mastercomment4/>
					</comments>
					<file id="msub200012-2308-k1d2003 ">
						<name>msub200012-2308-k1d2003.mxf</name>
						<pathurl>file://localhost/omfs/clip.dir/MXF/1080i/msub200012-2308-k1d2003.mxf</pathurl>
						<rate>
							<timebase>25</timebase>
						</rate>
						<duration>860</duration>
						<timecode>
							<rate>
								<timebase>25</timebase>
							</rate>
							<string>06:29:59:20</string>
							<frame>584995</frame>
							<displayformat>NDF</displayformat>
							<source>source</source>
						</timecode>
						<media>
							<video>
								<duration>860</duration>
								<samplecharacteristics>
									<width>1920</width>
									<height>1080</height>
								</samplecharacteristics>
							</video>
							<audio>
								<rate>
									<timebase>48000</timebase>
								</rate>
								<trackcount>1</trackcount>
								<samplecharacteristics>
									<depth>24</depth>
								</samplecharacteristics>
							</audio>
						</media>
					</file>
					<sourcetrack>
						<mediatype>video</mediatype>
					</sourcetrack>
					<fielddominance>upper</fielddominance>
				</clipitem>
				<clipitem id="msub200012-2308-k1d2003.mxf2">
					<name>msub200012-2308-k1d2003.mxf</name>
					<duration>860</duration>
					<rate>
						<ntsc>FALSE</ntsc>
						<timebase>25</timebase>
					</rate>
					<in>530</in>
					<out>575</out>
					<start>24675</start>
					<end>24720</end>
					<pixelaspectratio>Square</pixelaspectratio>
					<enabled>TRUE</enabled>
					<anamorphic>FALSE</anamorphic>
					<alphatype>none</alphatype>
					<masterclipid>msub200012-2308-k1d2003.mxf1</masterclipid>
					<logginginfo>
						<scene/>
						<shottake/>
						<lognote/>
						<good>FALSE</good>
					</logginginfo>
					<labels>
						<label2/>
					</labels>
					<comments>
						<mastercomment1/>
						<mastercomment2/>
						<mastercomment3/>
						<mastercomment4/>
					</comments>
					<file id="msub200012-2308-k1d2003 "/>
					<sourcetrack>
						<mediatype>video</mediatype>
					</sourcetrack>
					<fielddominance>upper</fielddominance>
				</clipitem>
				<clipitem id="msub200012-2308-k1d1-005 4">
					<name>msub200012-2308-k1d1-005</name>
					<duration>6527</duration>
					<rate>
						<ntsc>FALSE</ntsc>
						<timebase>25</timebase>
					</rate>
					<in>3066</in>
					<out>3264</out>
					<start>24720</start>
					<end>24918</end>
					<pixelaspectratio>Square</pixelaspectratio>
					<enabled>TRUE</enabled>
					<anamorphic>FALSE</anamorphic>
					<alphatype>none</alphatype>
					<masterclipid>msub200012-2308-k1d1-005 1</masterclipid>
					<logginginfo>
						<description>msub200012-2308-k1d1-005</description>
						<scene/>
						<shottake/>
						<lognote/>
						<good>FALSE</good>
					</logginginfo>
					<labels>
						<label2/>
					</labels>
					<comments>
						<mastercomment1>RÃ…STOFF. BR_FINFREDAG_MSUA_OPRO</mastercomment1>
						<mastercomment2/>
						<mastercomment3/>
						<mastercomment4/>
					</comments>
					<file id="msub200012-2308-k1d1-005 2"/>
					<filter>
						<start>-1</start>
						<end>-1</end>
						<effect>
							<name>Color Corrector 3-way Copy</name>
							<effectid>Color Corrector 3-way</effectid>
							<effectcategory>Color Correction</effectcategory>
							<effecttype>filter</effecttype>
							<mediatype>video</mediatype>
							<parameter>
								<parameterid>dispmode</parameterid>
								<name>Display Mode</name>
								<valuemin>1</valuemin>
								<valuemax>3</valuemax>
								<valuelist>
									<valueentry>
										<name>Final</name>
										<value>1</value>
									</valueentry>
									<valueentry>
										<name>Matte</name>
										<value>2</value>
									</valueentry>
									<valueentry>
										<name>Source</name>
										<value>3</value>
									</valueentry>
								</valuelist>
								<value>1</value>
							</parameter>
							<parameter>
								<parameterid>label1</parameterid>
								<name>Blacks Controls</name>
								<value/>
							</parameter>
							<parameter>
								<parameterid>blacklevel</parameterid>
								<name>Level</name>
								<valuemin>-196</valuemin>
								<valuemax>254</valuemax>
								<value>-11</value>
							</parameter>
							<parameter>
								<parameterid>b_hue</parameterid>
								<name>Angle</name>
								<valuemin>-180</valuemin>
								<valuemax>180</valuemax>
								<value>-33</value>
							</parameter>
							<parameter>
								<parameterid>b_mag</parameterid>
								<name>Magnitude</name>
								<valuemin>0</valuemin>
								<valuemax>200</valuemax>
								<value>0</value>
							</parameter>
							<parameter>
								<parameterid>label2</parameterid>
								<name>Midrange Controls</name>
								<value/>
							</parameter>
							<parameter>
								<parameterid>mids</parameterid>
								<name>Level</name>
								<valuemin>0</valuemin>
								<valuemax>200</valuemax>
								<value>100</value>
							</parameter>
							<parameter>
								<parameterid>m_hue</parameterid>
								<name>Angle</name>
								<valuemin>-180</valuemin>
								<valuemax>180</valuemax>
								<value>-33</value>
							</parameter>
							<parameter>
								<parameterid>m_mag</parameterid>
								<name>Magnitude</name>
								<valuemin>0</valuemin>
								<valuemax>200</valuemax>
								<value>0</value>
							</parameter>
							<parameter>
								<parameterid>label3</parameterid>
								<name>Highlight Controls</name>
								<value/>
							</parameter>
							<parameter>
								<parameterid>highlights</parameterid>
								<name>Level</name>
								<valuemin>64</valuemin>
								<valuemax>509</valuemax>
								<value>270</value>
							</parameter>
							<parameter>
								<parameterid>h_hue</parameterid>
								<name>Angle</name>
								<valuemin>-180</valuemin>
								<valuemax>180</valuemax>
								<value>129.261</value>
							</parameter>
							<parameter>
								<parameterid>h_mag</parameterid>
								<name>Magnitude</name>
								<valuemin>0</valuemin>
								<valuemax>200</valuemax>
								<value>5.15364</value>
							</parameter>
							<parameter>
								<parameterid>label4</parameterid>
								<name>Color Controls</name>
								<value/>
							</parameter>
							<parameter>
								<parameterid>chroma</parameterid>
								<name>Saturation</name>
								<valuemin>0</valuemin>
								<valuemax>200</valuemax>
								<value>100</value>
							</parameter>
							<parameter>
								<parameterid>label5</parameterid>
								<name>Limit Effect Controls</name>
								<value/>
							</parameter>
							<parameter>
								<parameterid>dochroma</parameterid>
								<name>Limit on Chroma</name>
								<value>FALSE</value>
							</parameter>
							<parameter>
								<parameterid>centerang</parameterid>
								<name>Chroma Center</name>
								<valuemin>-760</valuemin>
								<valuemax>760</valuemax>
								<value>-110</value>
							</parameter>
							<parameter>
								<parameterid>chromawidth</parameterid>
								<name>Chroma Width</name>
								<valuemin>0</valuemin>
								<valuemax>360</valuemax>
								<value>15</value>
							</parameter>
							<parameter>
								<parameterid>chromasoft</parameterid>
								<name>Chroma Softness</name>
								<valuemin>0</valuemin>
								<valuemax>180</valuemax>
								<value>10</value>
							</parameter>
							<parameter>
								<parameterid>dosat</parameterid>
								<name>Limit on Saturation</name>
								<value>FALSE</value>
							</parameter>
							<parameter>
								<parameterid>satmin</parameterid>
								<name>Sat. Minimum</name>
								<valuemin>0</valuemin>
								<valuemax>125</valuemax>
								<value>35</value>
							</parameter>
							<parameter>
								<parameterid>satwidth</parameterid>
								<name>Sat. Width</name>
								<valuemin>0</valuemin>
								<valuemax>125</valuemax>
								<value>40</value>
							</parameter>
							<parameter>
								<parameterid>satsoft</parameterid>
								<name>Sat. Softness</name>
								<valuemin>0</valuemin>
								<valuemax>125</valuemax>
								<value>20</value>
							</parameter>
							<parameter>
								<parameterid>doluma</parameterid>
								<name>Limit on Luma</name>
								<value>FALSE</value>
							</parameter>
							<parameter>
								<parameterid>lumamin</parameterid>
								<name>Luma Minimum</name>
								<valuemin>0</valuemin>
								<valuemax>120</valuemax>
								<value>0</value>
							</parameter>
							<parameter>
								<parameterid>lumawidth</parameterid>
								<name>Luma Width</name>
								<valuemin>0</valuemin>
								<valuemax>120</valuemax>
								<value>40</value>
							</parameter>
							<parameter>
								<parameterid>lumasoft</parameterid>
								<name>Luma Softness</name>
								<valuemin>0</valuemin>
								<valuemax>120</valuemax>
								<value>20</value>
							</parameter>
							<parameter>
								<parameterid>label6</parameterid>
								<name>Edge Control</name>
								<value/>
							</parameter>
							<parameter>
								<parameterid>edgethin</parameterid>
								<name>Thin/Spread</name>
								<valuemin>-100</valuemin>
								<valuemax>100</valuemax>
								<value>0</value>
							</parameter>
							<parameter>
								<parameterid>edgefeather</parameterid>
								<name>Softening</name>
								<valuemin>0</valuemin>
								<valuemax>100</valuemax>
								<value>0</value>
							</parameter>
							<parameter>
								<parameterid>label7</parameterid>
								<name>Mask Control</name>
								<value/>
							</parameter>
							<parameter>
								<parameterid>invertsel</parameterid>
								<name>Invert</name>
								<value>FALSE</value>
							</parameter>
							<parameter>
								<parameterid>debugshow</parameterid>
								<name>Show Stats</name>
								<value>FALSE</value>
							</parameter>
						</effect>
					</filter>
					<sourcetrack>
						<mediatype>video</mediatype>
					</sourcetrack>
					<fielddominance>upper</fielddominance>
				</clipitem>
				<clipitem id="msub200012-2308-k1d1-004 ">
					<name>msub200012-2308-k1d1-004</name>
					<duration>4763</duration>
					<rate>
						<ntsc>FALSE</ntsc>
						<timebase>25</timebase>
					</rate>
					<in>2815</in>
					<out>2926</out>
					<start>24918</start>
					<end>25029</end>
					<pixelaspectratio>Square</pixelaspectratio>
					<enabled>TRUE</enabled>
					<anamorphic>FALSE</anamorphic>
					<alphatype>none</alphatype>
					<masterclipid>msub200012-2308-k1d1-004 1</masterclipid>
					<logginginfo>
						<description>msub200012-2308-k1d1-004</description>
						<scene/>
						<shottake/>
						<lognote/>
						<good>FALSE</good>
					</logginginfo>
					<labels>
						<label2/>
					</labels>
					<comments>
						<mastercomment1>RÃ…STOFF. BR_FINFREDAG_MSUA_OPRO</mastercomment1>
						<mastercomment2/>
						<mastercomment3/>
						<mastercomment4/>
					</comments>
					<file id="msub200012-2308-k1d1-004 2">
						<name>msub200012-2308-k1d1-004.mxf</name>
						<pathurl>file://localhost/omfs/clip.dir/MXF/1080i/msub200012-2308-k1d1-004.mxf</pathurl>
						<rate>
							<timebase>25</timebase>
						</rate>
						<duration>4763</duration>
						<timecode>
							<rate>
								<timebase>25</timebase>
							</rate>
							<string>07:24:38:05</string>
							<frame>666955</frame>
							<displayformat>NDF</displayformat>
							<source>source</source>
						</timecode>
						<media>
							<video>
								<duration>4763</duration>
								<samplecharacteristics>
									<width>1920</width>
									<height>1080</height>
								</samplecharacteristics>
							</video>
							<audio>
								<rate>
									<timebase>48000</timebase>
								</rate>
								<trackcount>1</trackcount>
								<samplecharacteristics>
									<depth>24</depth>
								</samplecharacteristics>
							</audio>
						</media>
					</file>
					<filter>
						<start>-1</start>
						<end>-1</end>
						<effect>
							<name>Color Corrector 3-way Copy</name>
							<effectid>Color Corrector 3-way</effectid>
							<effectcategory>Color Correction</effectcategory>
							<effecttype>filter</effecttype>
							<mediatype>video</mediatype>
							<parameter>
								<parameterid>dispmode</parameterid>
								<name>Display Mode</name>
								<valuemin>1</valuemin>
								<valuemax>3</valuemax>
								<valuelist>
									<valueentry>
										<name>Final</name>
										<value>1</value>
									</valueentry>
									<valueentry>
										<name>Matte</name>
										<value>2</value>
									</valueentry>
									<valueentry>
										<name>Source</name>
										<value>3</value>
									</valueentry>
								</valuelist>
								<value>1</value>
							</parameter>
							<parameter>
								<parameterid>label1</parameterid>
								<name>Blacks Controls</name>
								<value/>
							</parameter>
							<parameter>
								<parameterid>blacklevel</parameterid>
								<name>Level</name>
								<valuemin>-196</valuemin>
								<valuemax>254</valuemax>
								<value>-15</value>
							</parameter>
							<parameter>
								<parameterid>b_hue</parameterid>
								<name>Angle</name>
								<valuemin>-180</valuemin>
								<valuemax>180</valuemax>
								<value>-33</value>
							</parameter>
							<parameter>
								<parameterid>b_mag</parameterid>
								<name>Magnitude</name>
								<valuemin>0</valuemin>
								<valuemax>200</valuemax>
								<value>0</value>
							</parameter>
							<parameter>
								<parameterid>label2</parameterid>
								<name>Midrange Controls</name>
								<value/>
							</parameter>
							<parameter>
								<parameterid>mids</parameterid>
								<name>Level</name>
								<valuemin>0</valuemin>
								<valuemax>200</valuemax>
								<value>108</value>
							</parameter>
							<parameter>
								<parameterid>m_hue</parameterid>
								<name>Angle</name>
								<valuemin>-180</valuemin>
								<valuemax>180</valuemax>
								<value>-33</value>
							</parameter>
							<parameter>
								<parameterid>m_mag</parameterid>
								<name>Magnitude</name>
								<valuemin>0</valuemin>
								<valuemax>200</valuemax>
								<value>0</value>
							</parameter>
							<parameter>
								<parameterid>label3</parameterid>
								<name>Highlight Controls</name>
								<value/>
							</parameter>
							<parameter>
								<parameterid>highlights</parameterid>
								<name>Level</name>
								<valuemin>64</valuemin>
								<valuemax>509</valuemax>
								<value>270</value>
							</parameter>
							<parameter>
								<parameterid>h_hue</parameterid>
								<name>Angle</name>
								<valuemin>-180</valuemin>
								<valuemax>180</valuemax>
								<value>135.237</value>
							</parameter>
							<parameter>
								<parameterid>h_mag</parameterid>
								<name>Magnitude</name>
								<valuemin>0</valuemin>
								<valuemax>200</valuemax>
								<value>5.98902</value>
							</parameter>
							<parameter>
								<parameterid>label4</parameterid>
								<name>Color Controls</name>
								<value/>
							</parameter>
							<parameter>
								<parameterid>chroma</parameterid>
								<name>Saturation</name>
								<valuemin>0</valuemin>
								<valuemax>200</valuemax>
								<value>106</value>
							</parameter>
							<parameter>
								<parameterid>label5</parameterid>
								<name>Limit Effect Controls</name>
								<value/>
							</parameter>
							<parameter>
								<parameterid>dochroma</parameterid>
								<name>Limit on Chroma</name>
								<value>FALSE</value>
							</parameter>
							<parameter>
								<parameterid>centerang</parameterid>
								<name>Chroma Center</name>
								<valuemin>-760</valuemin>
								<valuemax>760</valuemax>
								<value>-110</value>
							</parameter>
							<parameter>
								<parameterid>chromawidth</parameterid>
								<name>Chroma Width</name>
								<valuemin>0</valuemin>
								<valuemax>360</valuemax>
								<value>15</value>
							</parameter>
							<parameter>
								<parameterid>chromasoft</parameterid>
								<name>Chroma Softness</name>
								<valuemin>0</valuemin>
								<valuemax>180</valuemax>
								<value>10</value>
							</parameter>
							<parameter>
								<parameterid>dosat</parameterid>
								<name>Limit on Saturation</name>
								<value>FALSE</value>
							</parameter>
							<parameter>
								<parameterid>satmin</parameterid>
								<name>Sat. Minimum</name>
								<valuemin>0</valuemin>
								<valuemax>125</valuemax>
								<value>35</value>
							</parameter>
							<parameter>
								<parameterid>satwidth</parameterid>
								<name>Sat. Width</name>
								<valuemin>0</valuemin>
								<valuemax>125</valuemax>
								<value>40</value>
							</parameter>
							<parameter>
								<parameterid>satsoft</parameterid>
								<name>Sat. Softness</name>
								<valuemin>0</valuemin>
								<valuemax>125</valuemax>
								<value>20</value>
							</parameter>
							<parameter>
								<parameterid>doluma</parameterid>
								<name>Limit on Luma</name>
								<value>FALSE</value>
							</parameter>
							<parameter>
								<parameterid>lumamin</parameterid>
								<name>Luma Minimum</name>
								<valuemin>0</valuemin>
								<valuemax>120</valuemax>
								<value>0</value>
							</parameter>
							<parameter>
								<parameterid>lumawidth</parameterid>
								<name>Luma Width</name>
								<valuemin>0</valuemin>
								<valuemax>120</valuemax>
								<value>40</value>
							</parameter>
							<parameter>
								<parameterid>lumasoft</parameterid>
								<name>Luma Softness</name>
								<valuemin>0</valuemin>
								<valuemax>120</valuemax>
								<value>20</value>
							</parameter>
							<parameter>
								<parameterid>label6</parameterid>
								<name>Edge Control</name>
								<value/>
							</parameter>
							<parameter>
								<parameterid>edgethin</parameterid>
								<name>Thin/Spread</name>
								<valuemin>-100</valuemin>
								<valuemax>100</valuemax>
								<value>0</value>
							</parameter>
							<parameter>
								<parameterid>edgefeather</parameterid>
								<name>Softening</name>
								<valuemin>0</valuemin>
								<valuemax>100</valuemax>
								<value>0</value>
							</parameter>
							<parameter>
								<parameterid>label7</parameterid>
								<name>Mask Control</name>
								<value/>
							</parameter>
							<parameter>
								<parameterid>invertsel</parameterid>
								<name>Invert</name>
								<value>FALSE</value>
							</parameter>
							<parameter>
								<parameterid>debugshow</parameterid>
								<name>Show Stats</name>
								<value>FALSE</value>
							</parameter>
						</effect>
					</filter>
					<sourcetrack>
						<mediatype>video</mediatype>
					</sourcetrack>
					<fielddominance>upper</fielddominance>
				</clipitem>
				<clipitem id="msub200012-2208k1d2-003 ">
					<name>msub200012-2208k1d2-003</name>
					<duration>2811</duration>
					<rate>
						<ntsc>FALSE</ntsc>
						<timebase>25</timebase>
					</rate>
					<in>2222</in>
					<out>2275</out>
					<start>25029</start>
					<end>25082</end>
					<pixelaspectratio>Square</pixelaspectratio>
					<enabled>TRUE</enabled>
					<anamorphic>FALSE</anamorphic>
					<alphatype>none</alphatype>
					<masterclipid>msub200012-2208k1d2-003 1</masterclipid>
					<logginginfo>
						<description>msub200012-2208k1d2-003</description>
						<scene/>
						<shottake/>
						<lognote/>
						<good>FALSE</good>
					</logginginfo>
					<labels>
						<label2/>
					</labels>
					<comments>
						<mastercomment1>RÃ…STOFF. BR_FINFREDAG_MSUA_OPRO</mastercomment1>
						<mastercomment2/>
						<mastercomment3/>
						<mastercomment4/>
					</comments>
					<file id="msub200012-2208k1d2-003 2">
						<name>msub200012-2208k1d2-003.mxf</name>
						<pathurl>file://localhost/omfs/clip.dir/MXF/1080i/msub200012-2208k1d2-003.mxf</pathurl>
						<rate>
							<timebase>25</timebase>
						</rate>
						<duration>2811</duration>
						<timecode>
							<rate>
								<timebase>25</timebase>
							</rate>
							<string>04:43:39:15</string>
							<frame>425490</frame>
							<displayformat>NDF</displayformat>
							<source>source</source>
						</timecode>
						<media>
							<video>
								<duration>2811</duration>
								<samplecharacteristics>
									<width>1920</width>
									<height>1080</height>
								</samplecharacteristics>
							</video>
							<audio>
								<rate>
									<timebase>48000</timebase>
								</rate>
								<trackcount>1</trackcount>
								<samplecharacteristics>
									<depth>24</depth>
								</samplecharacteristics>
							</audio>
						</media>
					</file>
					<filter>
						<start>-1</start>
						<end>-1</end>
						<effect>
							<name>Color Corrector 3-way Copy</name>
							<effectid>Color Corrector 3-way</effectid>
							<effectcategory>Color Correction</effectcategory>
							<effecttype>filter</effecttype>
							<mediatype>video</mediatype>
							<parameter>
								<parameterid>dispmode</parameterid>
								<name>Display Mode</name>
								<valuemin>1</valuemin>
								<valuemax>3</valuemax>
								<valuelist>
									<valueentry>
										<name>Final</name>
										<value>1</value>
									</valueentry>
									<valueentry>
										<name>Matte</name>
										<value>2</value>
									</valueentry>
									<valueentry>
										<name>Source</name>
										<value>3</value>
									</valueentry>
								</valuelist>
								<value>1</value>
							</parameter>
							<parameter>
								<parameterid>label1</parameterid>
								<name>Blacks Controls</name>
								<value/>
							</parameter>
							<parameter>
								<parameterid>blacklevel</parameterid>
								<name>Level</name>
								<valuemin>-196</valuemin>
								<valuemax>254</valuemax>
								<value>-11</value>
							</parameter>
							<parameter>
								<parameterid>b_hue</parameterid>
								<name>Angle</name>
								<valuemin>-180</valuemin>
								<valuemax>180</valuemax>
								<value>102.833</value>
							</parameter>
							<parameter>
								<parameterid>b_mag</parameterid>
								<name>Magnitude</name>
								<valuemin>0</valuemin>
								<valuemax>200</valuemax>
								<value>2.12407</value>
							</parameter>
							<parameter>
								<parameterid>label2</parameterid>
								<name>Midrange Controls</name>
								<value/>
							</parameter>
							<parameter>
								<parameterid>mids</parameterid>
								<name>Level</name>
								<valuemin>0</valuemin>
								<valuemax>200</valuemax>
								<value>107</value>
							</parameter>
							<parameter>
								<parameterid>m_hue</parameterid>
								<name>Angle</name>
								<valuemin>-180</valuemin>
								<valuemax>180</valuemax>
								<value>-33</value>
							</parameter>
							<parameter>
								<parameterid>m_mag</parameterid>
								<name>Magnitude</name>
								<valuemin>0</valuemin>
								<valuemax>200</valuemax>
								<value>0</value>
							</parameter>
							<parameter>
								<parameterid>label3</parameterid>
								<name>Highlight Controls</name>
								<value/>
							</parameter>
							<parameter>
								<parameterid>highlights</parameterid>
								<name>Level</name>
								<valuemin>64</valuemin>
								<valuemax>509</valuemax>
								<value>280</value>
							</parameter>
							<parameter>
								<parameterid>h_hue</parameterid>
								<name>Angle</name>
								<valuemin>-180</valuemin>
								<valuemax>180</valuemax>
								<value>120.334</value>
							</parameter>
							<parameter>
								<parameterid>h_mag</parameterid>
								<name>Magnitude</name>
								<valuemin>0</valuemin>
								<valuemax>200</valuemax>
								<value>8.12492</value>
							</parameter>
							<parameter>
								<parameterid>label4</parameterid>
								<name>Color Controls</name>
								<value/>
							</parameter>
							<parameter>
								<parameterid>chroma</parameterid>
								<name>Saturation</name>
								<valuemin>0</valuemin>
								<valuemax>200</valuemax>
								<value>113</value>
							</parameter>
							<parameter>
								<parameterid>label5</parameterid>
								<name>Limit Effect Controls</name>
								<value/>
							</parameter>
							<parameter>
								<parameterid>dochroma</parameterid>
								<name>Limit on Chroma</name>
								<value>FALSE</value>
							</parameter>
							<parameter>
								<parameterid>centerang</parameterid>
								<name>Chroma Center</name>
								<valuemin>-760</valuemin>
								<valuemax>760</valuemax>
								<value>-110</value>
							</parameter>
							<parameter>
								<parameterid>chromawidth</parameterid>
								<name>Chroma Width</name>
								<valuemin>0</valuemin>
								<valuemax>360</valuemax>
								<value>15</value>
							</parameter>
							<parameter>
								<parameterid>chromasoft</parameterid>
								<name>Chroma Softness</name>
								<valuemin>0</valuemin>
								<valuemax>180</valuemax>
								<value>10</value>
							</parameter>
							<parameter>
								<parameterid>dosat</parameterid>
								<name>Limit on Saturation</name>
								<value>FALSE</value>
							</parameter>
							<parameter>
								<parameterid>satmin</parameterid>
								<name>Sat. Minimum</name>
								<valuemin>0</valuemin>
								<valuemax>125</valuemax>
								<value>35</value>
							</parameter>
							<parameter>
								<parameterid>satwidth</parameterid>
								<name>Sat. Width</name>
								<valuemin>0</valuemin>
								<valuemax>125</valuemax>
								<value>40</value>
							</parameter>
							<parameter>
								<parameterid>satsoft</parameterid>
								<name>Sat. Softness</name>
								<valuemin>0</valuemin>
								<valuemax>125</valuemax>
								<value>20</value>
							</parameter>
							<parameter>
								<parameterid>doluma</parameterid>
								<name>Limit on Luma</name>
								<value>FALSE</value>
							</parameter>
							<parameter>
								<parameterid>lumamin</parameterid>
								<name>Luma Minimum</name>
								<valuemin>0</valuemin>
								<valuemax>120</valuemax>
								<value>0</value>
							</parameter>
							<parameter>
								<parameterid>lumawidth</parameterid>
								<name>Luma Width</name>
								<valuemin>0</valuemin>
								<valuemax>120</valuemax>
								<value>40</value>
							</parameter>
							<parameter>
								<parameterid>lumasoft</parameterid>
								<name>Luma Softness</name>
								<valuemin>0</valuemin>
								<valuemax>120</valuemax>
								<value>20</value>
							</parameter>
							<parameter>
								<parameterid>label6</parameterid>
								<name>Edge Control</name>
								<value/>
							</parameter>
							<parameter>
								<parameterid>edgethin</parameterid>
								<name>Thin/Spread</name>
								<valuemin>-100</valuemin>
								<valuemax>100</valuemax>
								<value>0</value>
							</parameter>
							<parameter>
								<parameterid>edgefeather</parameterid>
								<name>Softening</name>
								<valuemin>0</valuemin>
								<valuemax>100</valuemax>
								<value>0</value>
							</parameter>
							<parameter>
								<parameterid>label7</parameterid>
								<name>Mask Control</name>
								<value/>
							</parameter>
							<parameter>
								<parameterid>invertsel</parameterid>
								<name>Invert</name>
								<value>FALSE</value>
							</parameter>
							<parameter>
								<parameterid>debugshow</parameterid>
								<name>Show Stats</name>
								<value>FALSE</value>
							</parameter>
						</effect>
					</filter>
					<sourcetrack>
						<mediatype>video</mediatype>
					</sourcetrack>
					<link>
						<linkclipref>msub200012-2208k1d2-003 </linkclipref>
						<mediatype>video</mediatype>
						<trackindex>1</trackindex>
						<clipindex>96</clipindex>
					</link>
					<link>
						<linkclipref>msub200012-2208k1d2-003 3</linkclipref>
						<mediatype>audio</mediatype>
						<trackindex>6</trackindex>
						<clipindex>22</clipindex>
					</link>
					<fielddominance>upper</fielddominance>
				</clipitem>
				<clipitem id="msub200012-2208k1d2-003 4">
					<name>msub200012-2208k1d2-003</name>
					<duration>2811</duration>
					<rate>
						<ntsc>FALSE</ntsc>
						<timebase>25</timebase>
					</rate>
					<in>2308</in>
					<out>2357</out>
					<start>25082</start>
					<end>25131</end>
					<pixelaspectratio>Square</pixelaspectratio>
					<enabled>TRUE</enabled>
					<anamorphic>FALSE</anamorphic>
					<alphatype>none</alphatype>
					<masterclipid>msub200012-2208k1d2-003 1</masterclipid>
					<logginginfo>
						<description>msub200012-2208k1d2-003</description>
						<scene/>
						<shottake/>
						<lognote/>
						<good>FALSE</good>
					</logginginfo>
					<labels>
						<label2/>
					</labels>
					<comments>
						<mastercomment1>RÃ…STOFF. BR_FINFREDAG_MSUA_OPRO</mastercomment1>
						<mastercomment2/>
						<mastercomment3/>
						<mastercomment4/>
					</comments>
					<file id="msub200012-2208k1d2-003 2"/>
					<filter>
						<start>-1</start>
						<end>-1</end>
						<effect>
							<name>Color Corrector 3-way Copy</name>
							<effectid>Color Corrector 3-way</effectid>
							<effectcategory>Color Correction</effectcategory>
							<effecttype>filter</effecttype>
							<mediatype>video</mediatype>
							<parameter>
								<parameterid>dispmode</parameterid>
								<name>Display Mode</name>
								<valuemin>1</valuemin>
								<valuemax>3</valuemax>
								<valuelist>
									<valueentry>
										<name>Final</name>
										<value>1</value>
									</valueentry>
									<valueentry>
										<name>Matte</name>
										<value>2</value>
									</valueentry>
									<valueentry>
										<name>Source</name>
										<value>3</value>
									</valueentry>
								</valuelist>
								<value>1</value>
							</parameter>
							<parameter>
								<parameterid>label1</parameterid>
								<name>Blacks Controls</name>
								<value/>
							</parameter>
							<parameter>
								<parameterid>blacklevel</parameterid>
								<name>Level</name>
								<valuemin>-196</valuemin>
								<valuemax>254</valuemax>
								<value>-11</value>
							</parameter>
							<parameter>
								<parameterid>b_hue</parameterid>
								<name>Angle</name>
								<valuemin>-180</valuemin>
								<valuemax>180</valuemax>
								<value>102.833</value>
							</parameter>
							<parameter>
								<parameterid>b_mag</parameterid>
								<name>Magnitude</name>
								<valuemin>0</valuemin>
								<valuemax>200</valuemax>
								<value>2.12407</value>
							</parameter>
							<parameter>
								<parameterid>label2</parameterid>
								<name>Midrange Controls</name>
								<value/>
							</parameter>
							<parameter>
								<parameterid>mids</parameterid>
								<name>Level</name>
								<valuemin>0</valuemin>
								<valuemax>200</valuemax>
								<value>107</value>
							</parameter>
							<parameter>
								<parameterid>m_hue</parameterid>
								<name>Angle</name>
								<valuemin>-180</valuemin>
								<valuemax>180</valuemax>
								<value>-33</value>
							</parameter>
							<parameter>
								<parameterid>m_mag</parameterid>
								<name>Magnitude</name>
								<valuemin>0</valuemin>
								<valuemax>200</valuemax>
								<value>0</value>
							</parameter>
							<parameter>
								<parameterid>label3</parameterid>
								<name>Highlight Controls</name>
								<value/>
							</parameter>
							<parameter>
								<parameterid>highlights</parameterid>
								<name>Level</name>
								<valuemin>64</valuemin>
								<valuemax>509</valuemax>
								<value>280</value>
							</parameter>
							<parameter>
								<parameterid>h_hue</parameterid>
								<name>Angle</name>
								<valuemin>-180</valuemin>
								<valuemax>180</valuemax>
								<value>120.334</value>
							</parameter>
							<parameter>
								<parameterid>h_mag</parameterid>
								<name>Magnitude</name>
								<valuemin>0</valuemin>
								<valuemax>200</valuemax>
								<value>8.12492</value>
							</parameter>
							<parameter>
								<parameterid>label4</parameterid>
								<name>Color Controls</name>
								<value/>
							</parameter>
							<parameter>
								<parameterid>chroma</parameterid>
								<name>Saturation</name>
								<valuemin>0</valuemin>
								<valuemax>200</valuemax>
								<value>113</value>
							</parameter>
							<parameter>
								<parameterid>label5</parameterid>
								<name>Limit Effect Controls</name>
								<value/>
							</parameter>
							<parameter>
								<parameterid>dochroma</parameterid>
								<name>Limit on Chroma</name>
								<value>FALSE</value>
							</parameter>
							<parameter>
								<parameterid>centerang</parameterid>
								<name>Chroma Center</name>
								<valuemin>-760</valuemin>
								<valuemax>760</valuemax>
								<value>-110</value>
							</parameter>
							<parameter>
								<parameterid>chromawidth</parameterid>
								<name>Chroma Width</name>
								<valuemin>0</valuemin>
								<valuemax>360</valuemax>
								<value>15</value>
							</parameter>
							<parameter>
								<parameterid>chromasoft</parameterid>
								<name>Chroma Softness</name>
								<valuemin>0</valuemin>
								<valuemax>180</valuemax>
								<value>10</value>
							</parameter>
							<parameter>
								<parameterid>dosat</parameterid>
								<name>Limit on Saturation</name>
								<value>FALSE</value>
							</parameter>
							<parameter>
								<parameterid>satmin</parameterid>
								<name>Sat. Minimum</name>
								<valuemin>0</valuemin>
								<valuemax>125</valuemax>
								<value>35</value>
							</parameter>
							<parameter>
								<parameterid>satwidth</parameterid>
								<name>Sat. Width</name>
								<valuemin>0</valuemin>
								<valuemax>125</valuemax>
								<value>40</value>
							</parameter>
							<parameter>
								<parameterid>satsoft</parameterid>
								<name>Sat. Softness</name>
								<valuemin>0</valuemin>
								<valuemax>125</valuemax>
								<value>20</value>
							</parameter>
							<parameter>
								<parameterid>doluma</parameterid>
								<name>Limit on Luma</name>
								<value>FALSE</value>
							</parameter>
							<parameter>
								<parameterid>lumamin</parameterid>
								<name>Luma Minimum</name>
								<valuemin>0</valuemin>
								<valuemax>120</valuemax>
								<value>0</value>
							</parameter>
							<parameter>
								<parameterid>lumawidth</parameterid>
								<name>Luma Width</name>
								<valuemin>0</valuemin>
								<valuemax>120</valuemax>
								<value>40</value>
							</parameter>
							<parameter>
								<parameterid>lumasoft</parameterid>
								<name>Luma Softness</name>
								<valuemin>0</valuemin>
								<valuemax>120</valuemax>
								<value>20</value>
							</parameter>
							<parameter>
								<parameterid>label6</parameterid>
								<name>Edge Control</name>
								<value/>
							</parameter>
							<parameter>
								<parameterid>edgethin</parameterid>
								<name>Thin/Spread</name>
								<valuemin>-100</valuemin>
								<valuemax>100</valuemax>
								<value>0</value>
							</parameter>
							<parameter>
								<parameterid>edgefeather</parameterid>
								<name>Softening</name>
								<valuemin>0</valuemin>
								<valuemax>100</valuemax>
								<value>0</value>
							</parameter>
							<parameter>
								<parameterid>label7</parameterid>
								<name>Mask Control</name>
								<value/>
							</parameter>
							<parameter>
								<parameterid>invertsel</parameterid>
								<name>Invert</name>
								<value>FALSE</value>
							</parameter>
							<parameter>
								<parameterid>debugshow</parameterid>
								<name>Show Stats</name>
								<value>FALSE</value>
							</parameter>
						</effect>
					</filter>
					<sourcetrack>
						<mediatype>video</mediatype>
					</sourcetrack>
					<fielddominance>upper</fielddominance>
				</clipitem>
				<clipitem id="msub200012-2208k1d2-003 5">
					<name>msub200012-2208k1d2-003</name>
					<duration>1881</duration>
					<rate>
						<ntsc>FALSE</ntsc>
						<timebase>25</timebase>
					</rate>
					<in>1576</in>
					<out>1672</out>
					<start>25131</start>
					<end>25227</end>
					<pixelaspectratio>Square</pixelaspectratio>
					<enabled>TRUE</enabled>
					<anamorphic>FALSE</anamorphic>
					<alphatype>none</alphatype>
					<masterclipid>msub200012-2208k1d2-003 1</masterclipid>
					<logginginfo>
						<description>msub200012-2208k1d2-003</description>
						<scene/>
						<shottake/>
						<lognote/>
						<good>FALSE</good>
					</logginginfo>
					<labels>
						<label2/>
					</labels>
					<comments>
						<mastercomment1>RÃ…STOFF. BR_FINFREDAG_MSUA_OPRO</mastercomment1>
						<mastercomment2/>
						<mastercomment3/>
						<mastercomment4/>
					</comments>
					<file id="msub200012-2208k1d2-003 2"/>
					<filter>
						<start>-1</start>
						<end>-1</end>
						<effect>
							<name>Color Corrector 3-way Copy</name>
							<effectid>Color Corrector 3-way</effectid>
							<effectcategory>Color Correction</effectcategory>
							<effecttype>filter</effecttype>
							<mediatype>video</mediatype>
							<parameter>
								<parameterid>dispmode</parameterid>
								<name>Display Mode</name>
								<valuemin>1</valuemin>
								<valuemax>3</valuemax>
								<valuelist>
									<valueentry>
										<name>Final</name>
										<value>1</value>
									</valueentry>
									<valueentry>
										<name>Matte</name>
										<value>2</value>
									</valueentry>
									<valueentry>
										<name>Source</name>
										<value>3</value>
									</valueentry>
								</valuelist>
								<value>1</value>
							</parameter>
							<parameter>
								<parameterid>label1</parameterid>
								<name>Blacks Controls</name>
								<value/>
							</parameter>
							<parameter>
								<parameterid>blacklevel</parameterid>
								<name>Level</name>
								<valuemin>-196</valuemin>
								<valuemax>254</valuemax>
								<value>-11</value>
							</parameter>
							<parameter>
								<parameterid>b_hue</parameterid>
								<name>Angle</name>
								<valuemin>-180</valuemin>
								<valuemax>180</valuemax>
								<value>102.833</value>
							</parameter>
							<parameter>
								<parameterid>b_mag</parameterid>
								<name>Magnitude</name>
								<valuemin>0</valuemin>
								<valuemax>200</valuemax>
								<value>2.12407</value>
							</parameter>
							<parameter>
								<parameterid>label2</parameterid>
								<name>Midrange Controls</name>
								<value/>
							</parameter>
							<parameter>
								<parameterid>mids</parameterid>
								<name>Level</name>
								<valuemin>0</valuemin>
								<valuemax>200</valuemax>
								<value>107</value>
							</parameter>
							<parameter>
								<parameterid>m_hue</parameterid>
								<name>Angle</name>
								<valuemin>-180</valuemin>
								<valuemax>180</valuemax>
								<value>-33</value>
							</parameter>
							<parameter>
								<parameterid>m_mag</parameterid>
								<name>Magnitude</name>
								<valuemin>0</valuemin>
								<valuemax>200</valuemax>
								<value>0</value>
							</parameter>
							<parameter>
								<parameterid>label3</parameterid>
								<name>Highlight Controls</name>
								<value/>
							</parameter>
							<parameter>
								<parameterid>highlights</parameterid>
								<name>Level</name>
								<valuemin>64</valuemin>
								<valuemax>509</valuemax>
								<value>280</value>
							</parameter>
							<parameter>
								<parameterid>h_hue</parameterid>
								<name>Angle</name>
								<valuemin>-180</valuemin>
								<valuemax>180</valuemax>
								<value>120.334</value>
							</parameter>
							<parameter>
								<parameterid>h_mag</parameterid>
								<name>Magnitude</name>
								<valuemin>0</valuemin>
								<valuemax>200</valuemax>
								<value>8.12492</value>
							</parameter>
							<parameter>
								<parameterid>label4</parameterid>
								<name>Color Controls</name>
								<value/>
							</parameter>
							<parameter>
								<parameterid>chroma</parameterid>
								<name>Saturation</name>
								<valuemin>0</valuemin>
								<valuemax>200</valuemax>
								<value>113</value>
							</parameter>
							<parameter>
								<parameterid>label5</parameterid>
								<name>Limit Effect Controls</name>
								<value/>
							</parameter>
							<parameter>
								<parameterid>dochroma</parameterid>
								<name>Limit on Chroma</name>
								<value>FALSE</value>
							</parameter>
							<parameter>
								<parameterid>centerang</parameterid>
								<name>Chroma Center</name>
								<valuemin>-760</valuemin>
								<valuemax>760</valuemax>
								<value>-110</value>
							</parameter>
							<parameter>
								<parameterid>chromawidth</parameterid>
								<name>Chroma Width</name>
								<valuemin>0</valuemin>
								<valuemax>360</valuemax>
								<value>15</value>
							</parameter>
							<parameter>
								<parameterid>chromasoft</parameterid>
								<name>Chroma Softness</name>
								<valuemin>0</valuemin>
								<valuemax>180</valuemax>
								<value>10</value>
							</parameter>
							<parameter>
								<parameterid>dosat</parameterid>
								<name>Limit on Saturation</name>
								<value>FALSE</value>
							</parameter>
							<parameter>
								<parameterid>satmin</parameterid>
								<name>Sat. Minimum</name>
								<valuemin>0</valuemin>
								<valuemax>125</valuemax>
								<value>35</value>
							</parameter>
							<parameter>
								<parameterid>satwidth</parameterid>
								<name>Sat. Width</name>
								<valuemin>0</valuemin>
								<valuemax>125</valuemax>
								<value>40</value>
							</parameter>
							<parameter>
								<parameterid>satsoft</parameterid>
								<name>Sat. Softness</name>
								<valuemin>0</valuemin>
								<valuemax>125</valuemax>
								<value>20</value>
							</parameter>
							<parameter>
								<parameterid>doluma</parameterid>
								<name>Limit on Luma</name>
								<value>FALSE</value>
							</parameter>
							<parameter>
								<parameterid>lumamin</parameterid>
								<name>Luma Minimum</name>
								<valuemin>0</valuemin>
								<valuemax>120</valuemax>
								<value>0</value>
							</parameter>
							<parameter>
								<parameterid>lumawidth</parameterid>
								<name>Luma Width</name>
								<valuemin>0</valuemin>
								<valuemax>120</valuemax>
								<value>40</value>
							</parameter>
							<parameter>
								<parameterid>lumasoft</parameterid>
								<name>Luma Softness</name>
								<valuemin>0</valuemin>
								<valuemax>120</valuemax>
								<value>20</value>
							</parameter>
							<parameter>
								<parameterid>label6</parameterid>
								<name>Edge Control</name>
								<value/>
							</parameter>
							<parameter>
								<parameterid>edgethin</parameterid>
								<name>Thin/Spread</name>
								<valuemin>-100</valuemin>
								<valuemax>100</valuemax>
								<value>0</value>
							</parameter>
							<parameter>
								<parameterid>edgefeather</parameterid>
								<name>Softening</name>
								<valuemin>0</valuemin>
								<valuemax>100</valuemax>
								<value>0</value>
							</parameter>
							<parameter>
								<parameterid>label7</parameterid>
								<name>Mask Control</name>
								<value/>
							</parameter>
							<parameter>
								<parameterid>invertsel</parameterid>
								<name>Invert</name>
								<value>FALSE</value>
							</parameter>
							<parameter>
								<parameterid>debugshow</parameterid>
								<name>Show Stats</name>
								<value>FALSE</value>
							</parameter>
						</effect>
					</filter>
					<sourcetrack>
						<mediatype>video</mediatype>
					</sourcetrack>
					<fielddominance>upper</fielddominance>
					<filter>
						<effect>
							<name>Time Remap</name>
							<effectid>timeremap</effectid>
							<effectcategory>motion</effectcategory>
							<effecttype>motion</effecttype>
							<mediatype>video</mediatype>
							<parameter>
								<parameterid>variablespeed</parameterid>
								<name>variablespeed</name>
								<valuemin>0</valuemin>
								<valuemax>1</valuemax>
								<value>0</value>
							</parameter>
							<parameter>
								<parameterid>mappedduration</parameterid>
								<name>mappedduration</name>
								<value>
									<timecode>
										<rate>
											<timebase>0</timebase>
										</rate>
										<string>0</string>
										<frame>0</frame>
										<displayformat>NDF</displayformat>
									</timecode>
								</value>
							</parameter>
							<parameter>
								<parameterid>speed</parameterid>
								<name>speed</name>
								<valuemin>-10000</valuemin>
								<valuemax>10000</valuemax>
								<value>149</value>
							</parameter>
							<parameter>
								<parameterid>reverse</parameterid>
								<name>reverse</name>
								<value>FALSE</value>
							</parameter>
							<parameter>
								<parameterid>frameblending</parameterid>
								<name>frameblending</name>
								<value>TRUE</value>
							</parameter>
							<parameter>
								<parameterid>graphdict</parameterid>
								<name>graphdict</name>
								<valuemin>0</valuemin>
								<valuemax>2810</valuemax>
								<keyframe>
									<when>0</when>
									<value>1.3829</value>
									<speedkfstart>TRUE</speedkfstart>
									<speedvirtualkf>TRUE</speedvirtualkf>
								</keyframe>
								<keyframe>
									<when>1576</when>
									<value>2357</value>
									<speedkfin>TRUE</speedkfin>
									<speedvirtualkf>TRUE</speedvirtualkf>
								</keyframe>
								<keyframe>
									<when>1672</when>
									<value>2500.49</value>
									<speedkfout>TRUE</speedkfout>
									<speedvirtualkf>TRUE</speedvirtualkf>
								</keyframe>
								<keyframe>
									<when>1881</when>
									<value>2812.38</value>
									<speedkfend>TRUE</speedkfend>
									<speedvirtualkf>TRUE</speedvirtualkf>
								</keyframe>
								<interpolation>
									<name>FCPCurve</name>
								</interpolation>
								<value>2357</value>
							</parameter>
						</effect>
					</filter>
				</clipitem>
				<clipitem id="msub200012-2208k1d2-007 ">
					<name>msub200012-2208k1d2-007</name>
					<duration>9283</duration>
					<rate>
						<ntsc>FALSE</ntsc>
						<timebase>25</timebase>
					</rate>
					<in>394</in>
					<out>520</out>
					<start>25227</start>
					<end>25353</end>
					<pixelaspectratio>Square</pixelaspectratio>
					<enabled>TRUE</enabled>
					<anamorphic>FALSE</anamorphic>
					<alphatype>none</alphatype>
					<masterclipid>msub200012-2208k1d2-007 1</masterclipid>
					<logginginfo>
						<description>msub200012-2208k1d2-007</description>
						<scene/>
						<shottake/>
						<lognote/>
						<good>FALSE</good>
					</logginginfo>
					<labels>
						<label2/>
					</labels>
					<comments>
						<mastercomment1>RÃ…STOFF. BR_FINFREDAG_MSUA_OPRO</mastercomment1>
						<mastercomment2/>
						<mastercomment3/>
						<mastercomment4/>
					</comments>
					<file id="msub200012-2208k1d2-007 2">
						<name>msub200012-2208k1d2-007.mxf</name>
						<pathurl>file://localhost/omfs/clip.dir/MXF/1080i/msub200012-2208k1d2-007.mxf</pathurl>
						<rate>
							<timebase>25</timebase>
						</rate>
						<duration>9283</duration>
						<timecode>
							<rate>
								<timebase>25</timebase>
							</rate>
							<string>04:47:58:04</string>
							<frame>431954</frame>
							<displayformat>NDF</displayformat>
							<source>source</source>
						</timecode>
						<media>
							<video>
								<duration>9283</duration>
								<samplecharacteristics>
									<width>1920</width>
									<height>1080</height>
								</samplecharacteristics>
							</video>
							<audio>
								<rate>
									<timebase>48000</timebase>
								</rate>
								<trackcount>1</trackcount>
								<samplecharacteristics>
									<depth>24</depth>
								</samplecharacteristics>
							</audio>
						</media>
					</file>
					<filter>
						<enabled>TRUE</enabled>
						<start>-1</start>
						<end>-1</end>
						<effect>
							<name>Color Corrector 3-way Copy</name>
							<effectid>Color Corrector 3-way</effectid>
							<effectcategory>Color Correction</effectcategory>
							<effecttype>filter</effecttype>
							<mediatype>video</mediatype>
							<parameter>
								<parameterid>dispmode</parameterid>
								<name>Display Mode</name>
								<valuemin>1</valuemin>
								<valuemax>3</valuemax>
								<valuelist>
									<valueentry>
										<name>Final</name>
										<value>1</value>
									</valueentry>
									<valueentry>
										<name>Matte</name>
										<value>2</value>
									</valueentry>
									<valueentry>
										<name>Source</name>
										<value>3</value>
									</valueentry>
								</valuelist>
								<value>1</value>
							</parameter>
							<parameter>
								<parameterid>label1</parameterid>
								<name>Blacks Controls</name>
								<value/>
							</parameter>
							<parameter>
								<parameterid>blacklevel</parameterid>
								<name>Level</name>
								<valuemin>-196</valuemin>
								<valuemax>254</valuemax>
								<value>-16</value>
							</parameter>
							<parameter>
								<parameterid>b_hue</parameterid>
								<name>Angle</name>
								<valuemin>-180</valuemin>
								<valuemax>180</valuemax>
								<value>-33</value>
							</parameter>
							<parameter>
								<parameterid>b_mag</parameterid>
								<name>Magnitude</name>
								<valuemin>0</valuemin>
								<valuemax>200</valuemax>
								<value>0</value>
							</parameter>
							<parameter>
								<parameterid>label2</parameterid>
								<name>Midrange Controls</name>
								<value/>
							</parameter>
							<parameter>
								<parameterid>mids</parameterid>
								<name>Level</name>
								<valuemin>0</valuemin>
								<valuemax>200</valuemax>
								<value>112</value>
							</parameter>
							<parameter>
								<parameterid>m_hue</parameterid>
								<name>Angle</name>
								<valuemin>-180</valuemin>
								<valuemax>180</valuemax>
								<value>-33</value>
							</parameter>
							<parameter>
								<parameterid>m_mag</parameterid>
								<name>Magnitude</name>
								<valuemin>0</valuemin>
								<valuemax>200</valuemax>
								<value>0</value>
							</parameter>
							<parameter>
								<parameterid>label3</parameterid>
								<name>Highlight Controls</name>
								<value/>
							</parameter>
							<parameter>
								<parameterid>highlights</parameterid>
								<name>Level</name>
								<valuemin>64</valuemin>
								<valuemax>509</valuemax>
								<value>284</value>
							</parameter>
							<parameter>
								<parameterid>h_hue</parameterid>
								<name>Angle</name>
								<valuemin>-180</valuemin>
								<valuemax>180</valuemax>
								<value>-33</value>
							</parameter>
							<parameter>
								<parameterid>h_mag</parameterid>
								<name>Magnitude</name>
								<valuemin>0</valuemin>
								<valuemax>200</valuemax>
								<value>0</value>
							</parameter>
							<parameter>
								<parameterid>label4</parameterid>
								<name>Color Controls</name>
								<value/>
							</parameter>
							<parameter>
								<parameterid>chroma</parameterid>
								<name>Saturation</name>
								<valuemin>0</valuemin>
								<valuemax>200</valuemax>
								<value>121</value>
							</parameter>
							<parameter>
								<parameterid>label5</parameterid>
								<name>Limit Effect Controls</name>
								<value/>
							</parameter>
							<parameter>
								<parameterid>dochroma</parameterid>
								<name>Limit on Chroma</name>
								<value>FALSE</value>
							</parameter>
							<parameter>
								<parameterid>centerang</parameterid>
								<name>Chroma Center</name>
								<valuemin>-760</valuemin>
								<valuemax>760</valuemax>
								<value>-110</value>
							</parameter>
							<parameter>
								<parameterid>chromawidth</parameterid>
								<name>Chroma Width</name>
								<valuemin>0</valuemin>
								<valuemax>360</valuemax>
								<value>15</value>
							</parameter>
							<parameter>
								<parameterid>chromasoft</parameterid>
								<name>Chroma Softness</name>
								<valuemin>0</valuemin>
								<valuemax>180</valuemax>
								<value>10</value>
							</parameter>
							<parameter>
								<parameterid>dosat</parameterid>
								<name>Limit on Saturation</name>
								<value>FALSE</value>
							</parameter>
							<parameter>
								<parameterid>satmin</parameterid>
								<name>Sat. Minimum</name>
								<valuemin>0</valuemin>
								<valuemax>125</valuemax>
								<value>35</value>
							</parameter>
							<parameter>
								<parameterid>satwidth</parameterid>
								<name>Sat. Width</name>
								<valuemin>0</valuemin>
								<valuemax>125</valuemax>
								<value>40</value>
							</parameter>
							<parameter>
								<parameterid>satsoft</parameterid>
								<name>Sat. Softness</name>
								<valuemin>0</valuemin>
								<valuemax>125</valuemax>
								<value>20</value>
							</parameter>
							<parameter>
								<parameterid>doluma</parameterid>
								<name>Limit on Luma</name>
								<value>FALSE</value>
							</parameter>
							<parameter>
								<parameterid>lumamin</parameterid>
								<name>Luma Minimum</name>
								<valuemin>0</valuemin>
								<valuemax>120</valuemax>
								<value>0</value>
							</parameter>
							<parameter>
								<parameterid>lumawidth</parameterid>
								<name>Luma Width</name>
								<valuemin>0</valuemin>
								<valuemax>120</valuemax>
								<value>40</value>
							</parameter>
							<parameter>
								<parameterid>lumasoft</parameterid>
								<name>Luma Softness</name>
								<valuemin>0</valuemin>
								<valuemax>120</valuemax>
								<value>20</value>
							</parameter>
							<parameter>
								<parameterid>label6</parameterid>
								<name>Edge Control</name>
								<value/>
							</parameter>
							<parameter>
								<parameterid>edgethin</parameterid>
								<name>Thin/Spread</name>
								<valuemin>-100</valuemin>
								<valuemax>100</valuemax>
								<value>0</value>
							</parameter>
							<parameter>
								<parameterid>edgefeather</parameterid>
								<name>Softening</name>
								<valuemin>0</valuemin>
								<valuemax>100</valuemax>
								<value>0</value>
							</parameter>
							<parameter>
								<parameterid>label7</parameterid>
								<name>Mask Control</name>
								<value/>
							</parameter>
							<parameter>
								<parameterid>invertsel</parameterid>
								<name>Invert</name>
								<value>FALSE</value>
							</parameter>
							<parameter>
								<parameterid>debugshow</parameterid>
								<name>Show Stats</name>
								<value>FALSE</value>
							</parameter>
						</effect>
					</filter>
					<sourcetrack>
						<mediatype>video</mediatype>
					</sourcetrack>
					<link>
						<linkclipref>msub200012-2208k1d2-007 </linkclipref>
						<mediatype>video</mediatype>
						<trackindex>1</trackindex>
						<clipindex>99</clipindex>
					</link>
					<link>
						<linkclipref>msub200012-2208k1d2-007 3</linkclipref>
						<mediatype>audio</mediatype>
						<trackindex>1</trackindex>
						<clipindex>96</clipindex>
					</link>
					<link>
						<linkclipref>msub200012-2208k1d2-007 4</linkclipref>
						<mediatype>audio</mediatype>
						<trackindex>2</trackindex>
						<clipindex>96</clipindex>
					</link>
					<fielddominance>upper</fielddominance>
				</clipitem>
				<clipitem id="msub200012-2208k1d2-007 5">
					<name>msub200012-2208k1d2-007</name>
					<duration>9283</duration>
					<rate>
						<ntsc>FALSE</ntsc>
						<timebase>25</timebase>
					</rate>
					<in>622</in>
					<out>711</out>
					<start>25353</start>
					<end>25442</end>
					<pixelaspectratio>Square</pixelaspectratio>
					<enabled>TRUE</enabled>
					<anamorphic>FALSE</anamorphic>
					<alphatype>none</alphatype>
					<masterclipid>msub200012-2208k1d2-007 1</masterclipid>
					<logginginfo>
						<description>msub200012-2208k1d2-007</description>
						<scene/>
						<shottake/>
						<lognote/>
						<good>FALSE</good>
					</logginginfo>
					<labels>
						<label2/>
					</labels>
					<comments>
						<mastercomment1>RÃ…STOFF. BR_FINFREDAG_MSUA_OPRO</mastercomment1>
						<mastercomment2/>
						<mastercomment3/>
						<mastercomment4/>
					</comments>
					<file id="msub200012-2208k1d2-007 2"/>
					<filter>
						<enabled>TRUE</enabled>
						<start>-1</start>
						<end>-1</end>
						<effect>
							<name>Color Corrector 3-way Copy</name>
							<effectid>Color Corrector 3-way</effectid>
							<effectcategory>Color Correction</effectcategory>
							<effecttype>filter</effecttype>
							<mediatype>video</mediatype>
							<parameter>
								<parameterid>dispmode</parameterid>
								<name>Display Mode</name>
								<valuemin>1</valuemin>
								<valuemax>3</valuemax>
								<valuelist>
									<valueentry>
										<name>Final</name>
										<value>1</value>
									</valueentry>
									<valueentry>
										<name>Matte</name>
										<value>2</value>
									</valueentry>
									<valueentry>
										<name>Source</name>
										<value>3</value>
									</valueentry>
								</valuelist>
								<value>1</value>
							</parameter>
							<parameter>
								<parameterid>label1</parameterid>
								<name>Blacks Controls</name>
								<value/>
							</parameter>
							<parameter>
								<parameterid>blacklevel</parameterid>
								<name>Level</name>
								<valuemin>-196</valuemin>
								<valuemax>254</valuemax>
								<value>-16</value>
							</parameter>
							<parameter>
								<parameterid>b_hue</parameterid>
								<name>Angle</name>
								<valuemin>-180</valuemin>
								<valuemax>180</valuemax>
								<value>-33</value>
							</parameter>
							<parameter>
								<parameterid>b_mag</parameterid>
								<name>Magnitude</name>
								<valuemin>0</valuemin>
								<valuemax>200</valuemax>
								<value>0</value>
							</parameter>
							<parameter>
								<parameterid>label2</parameterid>
								<name>Midrange Controls</name>
								<value/>
							</parameter>
							<parameter>
								<parameterid>mids</parameterid>
								<name>Level</name>
								<valuemin>0</valuemin>
								<valuemax>200</valuemax>
								<value>112</value>
							</parameter>
							<parameter>
								<parameterid>m_hue</parameterid>
								<name>Angle</name>
								<valuemin>-180</valuemin>
								<valuemax>180</valuemax>
								<value>-33</value>
							</parameter>
							<parameter>
								<parameterid>m_mag</parameterid>
								<name>Magnitude</name>
								<valuemin>0</valuemin>
								<valuemax>200</valuemax>
								<value>0</value>
							</parameter>
							<parameter>
								<parameterid>label3</parameterid>
								<name>Highlight Controls</name>
								<value/>
							</parameter>
							<parameter>
								<parameterid>highlights</parameterid>
								<name>Level</name>
								<valuemin>64</valuemin>
								<valuemax>509</valuemax>
								<value>284</value>
							</parameter>
							<parameter>
								<parameterid>h_hue</parameterid>
								<name>Angle</name>
								<valuemin>-180</valuemin>
								<valuemax>180</valuemax>
								<value>-33</value>
							</parameter>
							<parameter>
								<parameterid>h_mag</parameterid>
								<name>Magnitude</name>
								<valuemin>0</valuemin>
								<valuemax>200</valuemax>
								<value>0</value>
							</parameter>
							<parameter>
								<parameterid>label4</parameterid>
								<name>Color Controls</name>
								<value/>
							</parameter>
							<parameter>
								<parameterid>chroma</parameterid>
								<name>Saturation</name>
								<valuemin>0</valuemin>
								<valuemax>200</valuemax>
								<value>121</value>
							</parameter>
							<parameter>
								<parameterid>label5</parameterid>
								<name>Limit Effect Controls</name>
								<value/>
							</parameter>
							<parameter>
								<parameterid>dochroma</parameterid>
								<name>Limit on Chroma</name>
								<value>FALSE</value>
							</parameter>
							<parameter>
								<parameterid>centerang</parameterid>
								<name>Chroma Center</name>
								<valuemin>-760</valuemin>
								<valuemax>760</valuemax>
								<value>-110</value>
							</parameter>
							<parameter>
								<parameterid>chromawidth</parameterid>
								<name>Chroma Width</name>
								<valuemin>0</valuemin>
								<valuemax>360</valuemax>
								<value>15</value>
							</parameter>
							<parameter>
								<parameterid>chromasoft</parameterid>
								<name>Chroma Softness</name>
								<valuemin>0</valuemin>
								<valuemax>180</valuemax>
								<value>10</value>
							</parameter>
							<parameter>
								<parameterid>dosat</parameterid>
								<name>Limit on Saturation</name>
								<value>FALSE</value>
							</parameter>
							<parameter>
								<parameterid>satmin</parameterid>
								<name>Sat. Minimum</name>
								<valuemin>0</valuemin>
								<valuemax>125</valuemax>
								<value>35</value>
							</parameter>
							<parameter>
								<parameterid>satwidth</parameterid>
								<name>Sat. Width</name>
								<valuemin>0</valuemin>
								<valuemax>125</valuemax>
								<value>40</value>
							</parameter>
							<parameter>
								<parameterid>satsoft</parameterid>
								<name>Sat. Softness</name>
								<valuemin>0</valuemin>
								<valuemax>125</valuemax>
								<value>20</value>
							</parameter>
							<parameter>
								<parameterid>doluma</parameterid>
								<name>Limit on Luma</name>
								<value>FALSE</value>
							</parameter>
							<parameter>
								<parameterid>lumamin</parameterid>
								<name>Luma Minimum</name>
								<valuemin>0</valuemin>
								<valuemax>120</valuemax>
								<value>0</value>
							</parameter>
							<parameter>
								<parameterid>lumawidth</parameterid>
								<name>Luma Width</name>
								<valuemin>0</valuemin>
								<valuemax>120</valuemax>
								<value>40</value>
							</parameter>
							<parameter>
								<parameterid>lumasoft</parameterid>
								<name>Luma Softness</name>
								<valuemin>0</valuemin>
								<valuemax>120</valuemax>
								<value>20</value>
							</parameter>
							<parameter>
								<parameterid>label6</parameterid>
								<name>Edge Control</name>
								<value/>
							</parameter>
							<parameter>
								<parameterid>edgethin</parameterid>
								<name>Thin/Spread</name>
								<valuemin>-100</valuemin>
								<valuemax>100</valuemax>
								<value>0</value>
							</parameter>
							<parameter>
								<parameterid>edgefeather</parameterid>
								<name>Softening</name>
								<valuemin>0</valuemin>
								<valuemax>100</valuemax>
								<value>0</value>
							</parameter>
							<parameter>
								<parameterid>label7</parameterid>
								<name>Mask Control</name>
								<value/>
							</parameter>
							<parameter>
								<parameterid>invertsel</parameterid>
								<name>Invert</name>
								<value>FALSE</value>
							</parameter>
							<parameter>
								<parameterid>debugshow</parameterid>
								<name>Show Stats</name>
								<value>FALSE</value>
							</parameter>
						</effect>
					</filter>
					<sourcetrack>
						<mediatype>video</mediatype>
					</sourcetrack>
					<link>
						<linkclipref>msub200012-2208k1d2-007 5</linkclipref>
						<mediatype>video</mediatype>
						<trackindex>1</trackindex>
						<clipindex>100</clipindex>
					</link>
					<link>
						<linkclipref>msub200012-2208k1d2-007 6</linkclipref>
						<mediatype>audio</mediatype>
						<trackindex>2</trackindex>
						<clipindex>98</clipindex>
					</link>
					<fielddominance>upper</fielddominance>
				</clipitem>
				<clipitem id="msub200012-2208k1d2-007 7">
					<name>msub200012-2208k1d2-007</name>
					<duration>9283</duration>
					<rate>
						<ntsc>FALSE</ntsc>
						<timebase>25</timebase>
					</rate>
					<in>1420</in>
					<out>1477</out>
					<start>25442</start>
					<end>25499</end>
					<pixelaspectratio>Square</pixelaspectratio>
					<enabled>TRUE</enabled>
					<anamorphic>FALSE</anamorphic>
					<alphatype>none</alphatype>
					<masterclipid>msub200012-2208k1d2-007 1</masterclipid>
					<logginginfo>
						<description>msub200012-2208k1d2-007</description>
						<scene/>
						<shottake/>
						<lognote/>
						<good>FALSE</good>
					</logginginfo>
					<labels>
						<label2/>
					</labels>
					<comments>
						<mastercomment1>RÃ…STOFF. BR_FINFREDAG_MSUA_OPRO</mastercomment1>
						<mastercomment2/>
						<mastercomment3/>
						<mastercomment4/>
					</comments>
					<file id="msub200012-2208k1d2-007 2"/>
					<filter>
						<enabled>TRUE</enabled>
						<start>-1</start>
						<end>-1</end>
						<effect>
							<name>Color Corrector 3-way Copy</name>
							<effectid>Color Corrector 3-way</effectid>
							<effectcategory>Color Correction</effectcategory>
							<effecttype>filter</effecttype>
							<mediatype>video</mediatype>
							<parameter>
								<parameterid>dispmode</parameterid>
								<name>Display Mode</name>
								<valuemin>1</valuemin>
								<valuemax>3</valuemax>
								<valuelist>
									<valueentry>
										<name>Final</name>
										<value>1</value>
									</valueentry>
									<valueentry>
										<name>Matte</name>
										<value>2</value>
									</valueentry>
									<valueentry>
										<name>Source</name>
										<value>3</value>
									</valueentry>
								</valuelist>
								<value>1</value>
							</parameter>
							<parameter>
								<parameterid>label1</parameterid>
								<name>Blacks Controls</name>
								<value/>
							</parameter>
							<parameter>
								<parameterid>blacklevel</parameterid>
								<name>Level</name>
								<valuemin>-196</valuemin>
								<valuemax>254</valuemax>
								<value>-14</value>
							</parameter>
							<parameter>
								<parameterid>b_hue</parameterid>
								<name>Angle</name>
								<valuemin>-180</valuemin>
								<valuemax>180</valuemax>
								<value>118.338</value>
							</parameter>
							<parameter>
								<parameterid>b_mag</parameterid>
								<name>Magnitude</name>
								<valuemin>0</valuemin>
								<valuemax>200</valuemax>
								<value>2.24844</value>
							</parameter>
							<parameter>
								<parameterid>label2</parameterid>
								<name>Midrange Controls</name>
								<value/>
							</parameter>
							<parameter>
								<parameterid>mids</parameterid>
								<name>Level</name>
								<valuemin>0</valuemin>
								<valuemax>200</valuemax>
								<value>111</value>
							</parameter>
							<parameter>
								<parameterid>m_hue</parameterid>
								<name>Angle</name>
								<valuemin>-180</valuemin>
								<valuemax>180</valuemax>
								<value>15.6881</value>
							</parameter>
							<parameter>
								<parameterid>m_mag</parameterid>
								<name>Magnitude</name>
								<valuemin>0</valuemin>
								<valuemax>200</valuemax>
								<value>2.56072</value>
							</parameter>
							<parameter>
								<parameterid>label3</parameterid>
								<name>Highlight Controls</name>
								<value/>
							</parameter>
							<parameter>
								<parameterid>highlights</parameterid>
								<name>Level</name>
								<valuemin>64</valuemin>
								<valuemax>509</valuemax>
								<value>284</value>
							</parameter>
							<parameter>
								<parameterid>h_hue</parameterid>
								<name>Angle</name>
								<valuemin>-180</valuemin>
								<valuemax>180</valuemax>
								<value>98.9697</value>
							</parameter>
							<parameter>
								<parameterid>h_mag</parameterid>
								<name>Magnitude</name>
								<valuemin>0</valuemin>
								<valuemax>200</valuemax>
								<value>3.81104</value>
							</parameter>
							<parameter>
								<parameterid>label4</parameterid>
								<name>Color Controls</name>
								<value/>
							</parameter>
							<parameter>
								<parameterid>chroma</parameterid>
								<name>Saturation</name>
								<valuemin>0</valuemin>
								<valuemax>200</valuemax>
								<value>115</value>
							</parameter>
							<parameter>
								<parameterid>label5</parameterid>
								<name>Limit Effect Controls</name>
								<value/>
							</parameter>
							<parameter>
								<parameterid>dochroma</parameterid>
								<name>Limit on Chroma</name>
								<value>FALSE</value>
							</parameter>
							<parameter>
								<parameterid>centerang</parameterid>
								<name>Chroma Center</name>
								<valuemin>-760</valuemin>
								<valuemax>760</valuemax>
								<value>-110</value>
							</parameter>
							<parameter>
								<parameterid>chromawidth</parameterid>
								<name>Chroma Width</name>
								<valuemin>0</valuemin>
								<valuemax>360</valuemax>
								<value>15</value>
							</parameter>
							<parameter>
								<parameterid>chromasoft</parameterid>
								<name>Chroma Softness</name>
								<valuemin>0</valuemin>
								<valuemax>180</valuemax>
								<value>10</value>
							</parameter>
							<parameter>
								<parameterid>dosat</parameterid>
								<name>Limit on Saturation</name>
								<value>FALSE</value>
							</parameter>
							<parameter>
								<parameterid>satmin</parameterid>
								<name>Sat. Minimum</name>
								<valuemin>0</valuemin>
								<valuemax>125</valuemax>
								<value>35</value>
							</parameter>
							<parameter>
								<parameterid>satwidth</parameterid>
								<name>Sat. Width</name>
								<valuemin>0</valuemin>
								<valuemax>125</valuemax>
								<value>40</value>
							</parameter>
							<parameter>
								<parameterid>satsoft</parameterid>
								<name>Sat. Softness</name>
								<valuemin>0</valuemin>
								<valuemax>125</valuemax>
								<value>20</value>
							</parameter>
							<parameter>
								<parameterid>doluma</parameterid>
								<name>Limit on Luma</name>
								<value>FALSE</value>
							</parameter>
							<parameter>
								<parameterid>lumamin</parameterid>
								<name>Luma Minimum</name>
								<valuemin>0</valuemin>
								<valuemax>120</valuemax>
								<value>0</value>
							</parameter>
							<parameter>
								<parameterid>lumawidth</parameterid>
								<name>Luma Width</name>
								<valuemin>0</valuemin>
								<valuemax>120</valuemax>
								<value>40</value>
							</parameter>
							<parameter>
								<parameterid>lumasoft</parameterid>
								<name>Luma Softness</name>
								<valuemin>0</valuemin>
								<valuemax>120</valuemax>
								<value>20</value>
							</parameter>
							<parameter>
								<parameterid>label6</parameterid>
								<name>Edge Control</name>
								<value/>
							</parameter>
							<parameter>
								<parameterid>edgethin</parameterid>
								<name>Thin/Spread</name>
								<valuemin>-100</valuemin>
								<valuemax>100</valuemax>
								<value>0</value>
							</parameter>
							<parameter>
								<parameterid>edgefeather</parameterid>
								<name>Softening</name>
								<valuemin>0</valuemin>
								<valuemax>100</valuemax>
								<value>0</value>
							</parameter>
							<parameter>
								<parameterid>label7</parameterid>
								<name>Mask Control</name>
								<value/>
							</parameter>
							<parameter>
								<parameterid>invertsel</parameterid>
								<name>Invert</name>
								<value>FALSE</value>
							</parameter>
							<parameter>
								<parameterid>debugshow</parameterid>
								<name>Show Stats</name>
								<value>FALSE</value>
							</parameter>
						</effect>
					</filter>
					<sourcetrack>
						<mediatype>video</mediatype>
					</sourcetrack>
					<link>
						<linkclipref>msub200012-2208k1d2-007 7</linkclipref>
						<mediatype>video</mediatype>
						<trackindex>1</trackindex>
						<clipindex>101</clipindex>
					</link>
					<link>
						<linkclipref>msub200012-2208k1d2-007 8</linkclipref>
						<mediatype>audio</mediatype>
						<trackindex>2</trackindex>
						<clipindex>100</clipindex>
					</link>
					<fielddominance>upper</fielddominance>
				</clipitem>
				<clipitem id="msub200012-2208k1d2-010 ">
					<name>msub200012-2208k1d2-010</name>
					<duration>10049</duration>
					<rate>
						<ntsc>FALSE</ntsc>
						<timebase>25</timebase>
					</rate>
					<in>1470</in>
					<out>1506</out>
					<start>25499</start>
					<end>25535</end>
					<pixelaspectratio>Square</pixelaspectratio>
					<enabled>TRUE</enabled>
					<anamorphic>FALSE</anamorphic>
					<alphatype>none</alphatype>
					<masterclipid>msub200012-2208k1d2-010 1</masterclipid>
					<logginginfo>
						<description>msub200012-2208k1d2-010</description>
						<scene/>
						<shottake/>
						<lognote/>
						<good>FALSE</good>
					</logginginfo>
					<labels>
						<label2/>
					</labels>
					<comments>
						<mastercomment1>RÃ…STOFF. BR_FINFREDAG_MSUA_OPRO</mastercomment1>
						<mastercomment2/>
						<mastercomment3/>
						<mastercomment4/>
					</comments>
					<file id="msub200012-2208k1d2-010 2">
						<name>msub200012-2208k1d2-010.mxf</name>
						<pathurl>file://localhost/omfs/clip.dir/MXF/1080i/msub200012-2208k1d2-010.mxf</pathurl>
						<rate>
							<timebase>25</timebase>
						</rate>
						<duration>10049</duration>
						<timecode>
							<rate>
								<timebase>25</timebase>
							</rate>
							<string>05:00:52:18</string>
							<frame>451318</frame>
							<displayformat>NDF</displayformat>
							<source>source</source>
						</timecode>
						<media>
							<video>
								<duration>10049</duration>
								<samplecharacteristics>
									<width>1920</width>
									<height>1080</height>
								</samplecharacteristics>
							</video>
							<audio>
								<rate>
									<timebase>48000</timebase>
								</rate>
								<trackcount>1</trackcount>
								<samplecharacteristics>
									<depth>24</depth>
								</samplecharacteristics>
							</audio>
						</media>
					</file>
					<filter>
						<enabled>TRUE</enabled>
						<start>-1</start>
						<end>-1</end>
						<effect>
							<name>Color Corrector 3-way Copy</name>
							<effectid>Color Corrector 3-way</effectid>
							<effectcategory>Color Correction</effectcategory>
							<effecttype>filter</effecttype>
							<mediatype>video</mediatype>
							<parameter>
								<parameterid>dispmode</parameterid>
								<name>Display Mode</name>
								<valuemin>1</valuemin>
								<valuemax>3</valuemax>
								<valuelist>
									<valueentry>
										<name>Final</name>
										<value>1</value>
									</valueentry>
									<valueentry>
										<name>Matte</name>
										<value>2</value>
									</valueentry>
									<valueentry>
										<name>Source</name>
										<value>3</value>
									</valueentry>
								</valuelist>
								<value>1</value>
							</parameter>
							<parameter>
								<parameterid>label1</parameterid>
								<name>Blacks Controls</name>
								<value/>
							</parameter>
							<parameter>
								<parameterid>blacklevel</parameterid>
								<name>Level</name>
								<valuemin>-196</valuemin>
								<valuemax>254</valuemax>
								<value>-14</value>
							</parameter>
							<parameter>
								<parameterid>b_hue</parameterid>
								<name>Angle</name>
								<valuemin>-180</valuemin>
								<valuemax>180</valuemax>
								<value>-33</value>
							</parameter>
							<parameter>
								<parameterid>b_mag</parameterid>
								<name>Magnitude</name>
								<valuemin>0</valuemin>
								<valuemax>200</valuemax>
								<value>0</value>
							</parameter>
							<parameter>
								<parameterid>label2</parameterid>
								<name>Midrange Controls</name>
								<value/>
							</parameter>
							<parameter>
								<parameterid>mids</parameterid>
								<name>Level</name>
								<valuemin>0</valuemin>
								<valuemax>200</valuemax>
								<value>107</value>
							</parameter>
							<parameter>
								<parameterid>m_hue</parameterid>
								<name>Angle</name>
								<valuemin>-180</valuemin>
								<valuemax>180</valuemax>
								<value>15.6881</value>
							</parameter>
							<parameter>
								<parameterid>m_mag</parameterid>
								<name>Magnitude</name>
								<valuemin>0</valuemin>
								<valuemax>200</valuemax>
								<value>2.56072</value>
							</parameter>
							<parameter>
								<parameterid>label3</parameterid>
								<name>Highlight Controls</name>
								<value/>
							</parameter>
							<parameter>
								<parameterid>highlights</parameterid>
								<name>Level</name>
								<valuemin>64</valuemin>
								<valuemax>509</valuemax>
								<value>284</value>
							</parameter>
							<parameter>
								<parameterid>h_hue</parameterid>
								<name>Angle</name>
								<valuemin>-180</valuemin>
								<valuemax>180</valuemax>
								<value>98.9697</value>
							</parameter>
							<parameter>
								<parameterid>h_mag</parameterid>
								<name>Magnitude</name>
								<valuemin>0</valuemin>
								<valuemax>200</valuemax>
								<value>3.81104</value>
							</parameter>
							<parameter>
								<parameterid>label4</parameterid>
								<name>Color Controls</name>
								<value/>
							</parameter>
							<parameter>
								<parameterid>chroma</parameterid>
								<name>Saturation</name>
								<valuemin>0</valuemin>
								<valuemax>200</valuemax>
								<value>112</value>
							</parameter>
							<parameter>
								<parameterid>label5</parameterid>
								<name>Limit Effect Controls</name>
								<value/>
							</parameter>
							<parameter>
								<parameterid>dochroma</parameterid>
								<name>Limit on Chroma</name>
								<value>FALSE</value>
							</parameter>
							<parameter>
								<parameterid>centerang</parameterid>
								<name>Chroma Center</name>
								<valuemin>-760</valuemin>
								<valuemax>760</valuemax>
								<value>-110</value>
							</parameter>
							<parameter>
								<parameterid>chromawidth</parameterid>
								<name>Chroma Width</name>
								<valuemin>0</valuemin>
								<valuemax>360</valuemax>
								<value>15</value>
							</parameter>
							<parameter>
								<parameterid>chromasoft</parameterid>
								<name>Chroma Softness</name>
								<valuemin>0</valuemin>
								<valuemax>180</valuemax>
								<value>10</value>
							</parameter>
							<parameter>
								<parameterid>dosat</parameterid>
								<name>Limit on Saturation</name>
								<value>FALSE</value>
							</parameter>
							<parameter>
								<parameterid>satmin</parameterid>
								<name>Sat. Minimum</name>
								<valuemin>0</valuemin>
								<valuemax>125</valuemax>
								<value>35</value>
							</parameter>
							<parameter>
								<parameterid>satwidth</parameterid>
								<name>Sat. Width</name>
								<valuemin>0</valuemin>
								<valuemax>125</valuemax>
								<value>40</value>
							</parameter>
							<parameter>
								<parameterid>satsoft</parameterid>
								<name>Sat. Softness</name>
								<valuemin>0</valuemin>
								<valuemax>125</valuemax>
								<value>20</value>
							</parameter>
							<parameter>
								<parameterid>doluma</parameterid>
								<name>Limit on Luma</name>
								<value>FALSE</value>
							</parameter>
							<parameter>
								<parameterid>lumamin</parameterid>
								<name>Luma Minimum</name>
								<valuemin>0</valuemin>
								<valuemax>120</valuemax>
								<value>0</value>
							</parameter>
							<parameter>
								<parameterid>lumawidth</parameterid>
								<name>Luma Width</name>
								<valuemin>0</valuemin>
								<valuemax>120</valuemax>
								<value>40</value>
							</parameter>
							<parameter>
								<parameterid>lumasoft</parameterid>
								<name>Luma Softness</name>
								<valuemin>0</valuemin>
								<valuemax>120</valuemax>
								<value>20</value>
							</parameter>
							<parameter>
								<parameterid>label6</parameterid>
								<name>Edge Control</name>
								<value/>
							</parameter>
							<parameter>
								<parameterid>edgethin</parameterid>
								<name>Thin/Spread</name>
								<valuemin>-100</valuemin>
								<valuemax>100</valuemax>
								<value>0</value>
							</parameter>
							<parameter>
								<parameterid>edgefeather</parameterid>
								<name>Softening</name>
								<valuemin>0</valuemin>
								<valuemax>100</valuemax>
								<value>0</value>
							</parameter>
							<parameter>
								<parameterid>label7</parameterid>
								<name>Mask Control</name>
								<value/>
							</parameter>
							<parameter>
								<parameterid>invertsel</parameterid>
								<name>Invert</name>
								<value>FALSE</value>
							</parameter>
							<parameter>
								<parameterid>debugshow</parameterid>
								<name>Show Stats</name>
								<value>FALSE</value>
							</parameter>
						</effect>
					</filter>
					<sourcetrack>
						<mediatype>video</mediatype>
					</sourcetrack>
					<link>
						<linkclipref>msub200012-2208k1d2-010 </linkclipref>
						<mediatype>video</mediatype>
						<trackindex>1</trackindex>
						<clipindex>102</clipindex>
					</link>
					<link>
						<linkclipref>msub200012-2208k1d2-010 3</linkclipref>
						<mediatype>audio</mediatype>
						<trackindex>2</trackindex>
						<clipindex>102</clipindex>
					</link>
					<fielddominance>upper</fielddominance>
				</clipitem>
				<clipitem id="msub200012-2208k1d2-010 4">
					<name>msub200012-2208k1d2-010</name>
					<duration>10049</duration>
					<rate>
						<ntsc>FALSE</ntsc>
						<timebase>25</timebase>
					</rate>
					<in>5559</in>
					<out>5631</out>
					<start>25535</start>
					<end>25607</end>
					<pixelaspectratio>Square</pixelaspectratio>
					<enabled>TRUE</enabled>
					<anamorphic>FALSE</anamorphic>
					<alphatype>none</alphatype>
					<masterclipid>msub200012-2208k1d2-010 1</masterclipid>
					<logginginfo>
						<description>msub200012-2208k1d2-010</description>
						<scene/>
						<shottake/>
						<lognote/>
						<good>FALSE</good>
					</logginginfo>
					<labels>
						<label2/>
					</labels>
					<comments>
						<mastercomment1>RÃ…STOFF. BR_FINFREDAG_MSUA_OPRO</mastercomment1>
						<mastercomment2/>
						<mastercomment3/>
						<mastercomment4/>
					</comments>
					<file id="msub200012-2208k1d2-010 2"/>
					<filter>
						<enabled>TRUE</enabled>
						<start>-1</start>
						<end>-1</end>
						<effect>
							<name>Color Corrector 3-way Copy</name>
							<effectid>Color Corrector 3-way</effectid>
							<effectcategory>Color Correction</effectcategory>
							<effecttype>filter</effecttype>
							<mediatype>video</mediatype>
							<parameter>
								<parameterid>dispmode</parameterid>
								<name>Display Mode</name>
								<valuemin>1</valuemin>
								<valuemax>3</valuemax>
								<valuelist>
									<valueentry>
										<name>Final</name>
										<value>1</value>
									</valueentry>
									<valueentry>
										<name>Matte</name>
										<value>2</value>
									</valueentry>
									<valueentry>
										<name>Source</name>
										<value>3</value>
									</valueentry>
								</valuelist>
								<value>1</value>
							</parameter>
							<parameter>
								<parameterid>label1</parameterid>
								<name>Blacks Controls</name>
								<value/>
							</parameter>
							<parameter>
								<parameterid>blacklevel</parameterid>
								<name>Level</name>
								<valuemin>-196</valuemin>
								<valuemax>254</valuemax>
								<value>-16</value>
							</parameter>
							<parameter>
								<parameterid>b_hue</parameterid>
								<name>Angle</name>
								<valuemin>-180</valuemin>
								<valuemax>180</valuemax>
								<value>-33</value>
							</parameter>
							<parameter>
								<parameterid>b_mag</parameterid>
								<name>Magnitude</name>
								<valuemin>0</valuemin>
								<valuemax>200</valuemax>
								<value>0</value>
							</parameter>
							<parameter>
								<parameterid>label2</parameterid>
								<name>Midrange Controls</name>
								<value/>
							</parameter>
							<parameter>
								<parameterid>mids</parameterid>
								<name>Level</name>
								<valuemin>0</valuemin>
								<valuemax>200</valuemax>
								<value>104</value>
							</parameter>
							<parameter>
								<parameterid>m_hue</parameterid>
								<name>Angle</name>
								<valuemin>-180</valuemin>
								<valuemax>180</valuemax>
								<value>15.6881</value>
							</parameter>
							<parameter>
								<parameterid>m_mag</parameterid>
								<name>Magnitude</name>
								<valuemin>0</valuemin>
								<valuemax>200</valuemax>
								<value>2.56072</value>
							</parameter>
							<parameter>
								<parameterid>label3</parameterid>
								<name>Highlight Controls</name>
								<value/>
							</parameter>
							<parameter>
								<parameterid>highlights</parameterid>
								<name>Level</name>
								<valuemin>64</valuemin>
								<valuemax>509</valuemax>
								<value>280</value>
							</parameter>
							<parameter>
								<parameterid>h_hue</parameterid>
								<name>Angle</name>
								<valuemin>-180</valuemin>
								<valuemax>180</valuemax>
								<value>98.9697</value>
							</parameter>
							<parameter>
								<parameterid>h_mag</parameterid>
								<name>Magnitude</name>
								<valuemin>0</valuemin>
								<valuemax>200</valuemax>
								<value>3.81104</value>
							</parameter>
							<parameter>
								<parameterid>label4</parameterid>
								<name>Color Controls</name>
								<value/>
							</parameter>
							<parameter>
								<parameterid>chroma</parameterid>
								<name>Saturation</name>
								<valuemin>0</valuemin>
								<valuemax>200</valuemax>
								<value>109</value>
							</parameter>
							<parameter>
								<parameterid>label5</parameterid>
								<name>Limit Effect Controls</name>
								<value/>
							</parameter>
							<parameter>
								<parameterid>dochroma</parameterid>
								<name>Limit on Chroma</name>
								<value>FALSE</value>
							</parameter>
							<parameter>
								<parameterid>centerang</parameterid>
								<name>Chroma Center</name>
								<valuemin>-760</valuemin>
								<valuemax>760</valuemax>
								<value>-110</value>
							</parameter>
							<parameter>
								<parameterid>chromawidth</parameterid>
								<name>Chroma Width</name>
								<valuemin>0</valuemin>
								<valuemax>360</valuemax>
								<value>15</value>
							</parameter>
							<parameter>
								<parameterid>chromasoft</parameterid>
								<name>Chroma Softness</name>
								<valuemin>0</valuemin>
								<valuemax>180</valuemax>
								<value>10</value>
							</parameter>
							<parameter>
								<parameterid>dosat</parameterid>
								<name>Limit on Saturation</name>
								<value>FALSE</value>
							</parameter>
							<parameter>
								<parameterid>satmin</parameterid>
								<name>Sat. Minimum</name>
								<valuemin>0</valuemin>
								<valuemax>125</valuemax>
								<value>35</value>
							</parameter>
							<parameter>
								<parameterid>satwidth</parameterid>
								<name>Sat. Width</name>
								<valuemin>0</valuemin>
								<valuemax>125</valuemax>
								<value>40</value>
							</parameter>
							<parameter>
								<parameterid>satsoft</parameterid>
								<name>Sat. Softness</name>
								<valuemin>0</valuemin>
								<valuemax>125</valuemax>
								<value>20</value>
							</parameter>
							<parameter>
								<parameterid>doluma</parameterid>
								<name>Limit on Luma</name>
								<value>FALSE</value>
							</parameter>
							<parameter>
								<parameterid>lumamin</parameterid>
								<name>Luma Minimum</name>
								<valuemin>0</valuemin>
								<valuemax>120</valuemax>
								<value>0</value>
							</parameter>
							<parameter>
								<parameterid>lumawidth</parameterid>
								<name>Luma Width</name>
								<valuemin>0</valuemin>
								<valuemax>120</valuemax>
								<value>40</value>
							</parameter>
							<parameter>
								<parameterid>lumasoft</parameterid>
								<name>Luma Softness</name>
								<valuemin>0</valuemin>
								<valuemax>120</valuemax>
								<value>20</value>
							</parameter>
							<parameter>
								<parameterid>label6</parameterid>
								<name>Edge Control</name>
								<value/>
							</parameter>
							<parameter>
								<parameterid>edgethin</parameterid>
								<name>Thin/Spread</name>
								<valuemin>-100</valuemin>
								<valuemax>100</valuemax>
								<value>0</value>
							</parameter>
							<parameter>
								<parameterid>edgefeather</parameterid>
								<name>Softening</name>
								<valuemin>0</valuemin>
								<valuemax>100</valuemax>
								<value>0</value>
							</parameter>
							<parameter>
								<parameterid>label7</parameterid>
								<name>Mask Control</name>
								<value/>
							</parameter>
							<parameter>
								<parameterid>invertsel</parameterid>
								<name>Invert</name>
								<value>FALSE</value>
							</parameter>
							<parameter>
								<parameterid>debugshow</parameterid>
								<name>Show Stats</name>
								<value>FALSE</value>
							</parameter>
						</effect>
					</filter>
					<sourcetrack>
						<mediatype>video</mediatype>
					</sourcetrack>
					<link>
						<linkclipref>msub200012-2208k1d2-010 4</linkclipref>
						<mediatype>video</mediatype>
						<trackindex>1</trackindex>
						<clipindex>103</clipindex>
					</link>
					<link>
						<linkclipref>msub200012-2208k1d2-010 5</linkclipref>
						<mediatype>audio</mediatype>
						<trackindex>2</trackindex>
						<clipindex>104</clipindex>
					</link>
					<fielddominance>upper</fielddominance>
				</clipitem>
				<clipitem id="msub200012-2208k1d2-011 ">
					<name>msub200012-2208k1d2-011</name>
					<duration>6859</duration>
					<rate>
						<ntsc>FALSE</ntsc>
						<timebase>25</timebase>
					</rate>
					<in>714</in>
					<out>750</out>
					<start>25607</start>
					<end>25643</end>
					<pixelaspectratio>Square</pixelaspectratio>
					<enabled>TRUE</enabled>
					<anamorphic>FALSE</anamorphic>
					<alphatype>none</alphatype>
					<logginginfo>
						<description>msub200012-2208k1d2-011</description>
						<scene/>
						<shottake/>
						<lognote/>
						<good>FALSE</good>
					</logginginfo>
					<labels>
						<label2/>
					</labels>
					<comments>
						<mastercomment1>RÃ…STOFF. BR_FINFREDAG_MSUA_OPRO</mastercomment1>
						<mastercomment2/>
						<mastercomment3/>
						<mastercomment4/>
					</comments>
					<file id="msub200012-2208k1d2-011 1">
						<name>msub200012-2208k1d2-011.mxf</name>
						<pathurl>file://localhost/omfs/clip.dir/MXF/1080i/msub200012-2208k1d2-011.mxf</pathurl>
						<rate>
							<timebase>25</timebase>
						</rate>
						<duration>6859</duration>
						<timecode>
							<rate>
								<timebase>25</timebase>
							</rate>
							<string>05:07:34:17</string>
							<frame>461367</frame>
							<displayformat>NDF</displayformat>
							<source>source</source>
						</timecode>
						<media>
							<video>
								<duration>6859</duration>
								<samplecharacteristics>
									<width>1920</width>
									<height>1080</height>
								</samplecharacteristics>
							</video>
							<audio>
								<rate>
									<timebase>48000</timebase>
								</rate>
								<trackcount>1</trackcount>
								<samplecharacteristics>
									<depth>24</depth>
								</samplecharacteristics>
							</audio>
						</media>
					</file>
					<filter>
						<enabled>TRUE</enabled>
						<start>-1</start>
						<end>-1</end>
						<effect>
							<name>Color Corrector 3-way Copy</name>
							<effectid>Color Corrector 3-way</effectid>
							<effectcategory>Color Correction</effectcategory>
							<effecttype>filter</effecttype>
							<mediatype>video</mediatype>
							<parameter>
								<parameterid>dispmode</parameterid>
								<name>Display Mode</name>
								<valuemin>1</valuemin>
								<valuemax>3</valuemax>
								<valuelist>
									<valueentry>
										<name>Final</name>
										<value>1</value>
									</valueentry>
									<valueentry>
										<name>Matte</name>
										<value>2</value>
									</valueentry>
									<valueentry>
										<name>Source</name>
										<value>3</value>
									</valueentry>
								</valuelist>
								<value>1</value>
							</parameter>
							<parameter>
								<parameterid>label1</parameterid>
								<name>Blacks Controls</name>
								<value/>
							</parameter>
							<parameter>
								<parameterid>blacklevel</parameterid>
								<name>Level</name>
								<valuemin>-196</valuemin>
								<valuemax>254</valuemax>
								<value>-14</value>
							</parameter>
							<parameter>
								<parameterid>b_hue</parameterid>
								<name>Angle</name>
								<valuemin>-180</valuemin>
								<valuemax>180</valuemax>
								<value>24.9188</value>
							</parameter>
							<parameter>
								<parameterid>b_mag</parameterid>
								<name>Magnitude</name>
								<valuemin>0</valuemin>
								<valuemax>200</valuemax>
								<value>1.35283</value>
							</parameter>
							<parameter>
								<parameterid>label2</parameterid>
								<name>Midrange Controls</name>
								<value/>
							</parameter>
							<parameter>
								<parameterid>mids</parameterid>
								<name>Level</name>
								<valuemin>0</valuemin>
								<valuemax>200</valuemax>
								<value>102</value>
							</parameter>
							<parameter>
								<parameterid>m_hue</parameterid>
								<name>Angle</name>
								<valuemin>-180</valuemin>
								<valuemax>180</valuemax>
								<value>-33</value>
							</parameter>
							<parameter>
								<parameterid>m_mag</parameterid>
								<name>Magnitude</name>
								<valuemin>0</valuemin>
								<valuemax>200</valuemax>
								<value>0</value>
							</parameter>
							<parameter>
								<parameterid>label3</parameterid>
								<name>Highlight Controls</name>
								<value/>
							</parameter>
							<parameter>
								<parameterid>highlights</parameterid>
								<name>Level</name>
								<valuemin>64</valuemin>
								<valuemax>509</valuemax>
								<value>275</value>
							</parameter>
							<parameter>
								<parameterid>h_hue</parameterid>
								<name>Angle</name>
								<valuemin>-180</valuemin>
								<valuemax>180</valuemax>
								<value>113.093</value>
							</parameter>
							<parameter>
								<parameterid>h_mag</parameterid>
								<name>Magnitude</name>
								<valuemin>0</valuemin>
								<valuemax>200</valuemax>
								<value>6.61613</value>
							</parameter>
							<parameter>
								<parameterid>label4</parameterid>
								<name>Color Controls</name>
								<value/>
							</parameter>
							<parameter>
								<parameterid>chroma</parameterid>
								<name>Saturation</name>
								<valuemin>0</valuemin>
								<valuemax>200</valuemax>
								<value>112</value>
							</parameter>
							<parameter>
								<parameterid>label5</parameterid>
								<name>Limit Effect Controls</name>
								<value/>
							</parameter>
							<parameter>
								<parameterid>dochroma</parameterid>
								<name>Limit on Chroma</name>
								<value>FALSE</value>
							</parameter>
							<parameter>
								<parameterid>centerang</parameterid>
								<name>Chroma Center</name>
								<valuemin>-760</valuemin>
								<valuemax>760</valuemax>
								<value>-110</value>
							</parameter>
							<parameter>
								<parameterid>chromawidth</parameterid>
								<name>Chroma Width</name>
								<valuemin>0</valuemin>
								<valuemax>360</valuemax>
								<value>15</value>
							</parameter>
							<parameter>
								<parameterid>chromasoft</parameterid>
								<name>Chroma Softness</name>
								<valuemin>0</valuemin>
								<valuemax>180</valuemax>
								<value>10</value>
							</parameter>
							<parameter>
								<parameterid>dosat</parameterid>
								<name>Limit on Saturation</name>
								<value>FALSE</value>
							</parameter>
							<parameter>
								<parameterid>satmin</parameterid>
								<name>Sat. Minimum</name>
								<valuemin>0</valuemin>
								<valuemax>125</valuemax>
								<value>35</value>
							</parameter>
							<parameter>
								<parameterid>satwidth</parameterid>
								<name>Sat. Width</name>
								<valuemin>0</valuemin>
								<valuemax>125</valuemax>
								<value>40</value>
							</parameter>
							<parameter>
								<parameterid>satsoft</parameterid>
								<name>Sat. Softness</name>
								<valuemin>0</valuemin>
								<valuemax>125</valuemax>
								<value>20</value>
							</parameter>
							<parameter>
								<parameterid>doluma</parameterid>
								<name>Limit on Luma</name>
								<value>FALSE</value>
							</parameter>
							<parameter>
								<parameterid>lumamin</parameterid>
								<name>Luma Minimum</name>
								<valuemin>0</valuemin>
								<valuemax>120</valuemax>
								<value>0</value>
							</parameter>
							<parameter>
								<parameterid>lumawidth</parameterid>
								<name>Luma Width</name>
								<valuemin>0</valuemin>
								<valuemax>120</valuemax>
								<value>40</value>
							</parameter>
							<parameter>
								<parameterid>lumasoft</parameterid>
								<name>Luma Softness</name>
								<valuemin>0</valuemin>
								<valuemax>120</valuemax>
								<value>20</value>
							</parameter>
							<parameter>
								<parameterid>label6</parameterid>
								<name>Edge Control</name>
								<value/>
							</parameter>
							<parameter>
								<parameterid>edgethin</parameterid>
								<name>Thin/Spread</name>
								<valuemin>-100</valuemin>
								<valuemax>100</valuemax>
								<value>0</value>
							</parameter>
							<parameter>
								<parameterid>edgefeather</parameterid>
								<name>Softening</name>
								<valuemin>0</valuemin>
								<valuemax>100</valuemax>
								<value>0</value>
							</parameter>
							<parameter>
								<parameterid>label7</parameterid>
								<name>Mask Control</name>
								<value/>
							</parameter>
							<parameter>
								<parameterid>invertsel</parameterid>
								<name>Invert</name>
								<value>FALSE</value>
							</parameter>
							<parameter>
								<parameterid>debugshow</parameterid>
								<name>Show Stats</name>
								<value>FALSE</value>
							</parameter>
						</effect>
					</filter>
					<sourcetrack>
						<mediatype>video</mediatype>
					</sourcetrack>
					<link>
						<linkclipref>msub200012-2208k1d2-011 </linkclipref>
						<mediatype>video</mediatype>
						<trackindex>1</trackindex>
						<clipindex>104</clipindex>
					</link>
					<link>
						<linkclipref>msub200012-2208k1d2-011 2</linkclipref>
						<mediatype>audio</mediatype>
						<trackindex>4</trackindex>
						<clipindex>66</clipindex>
					</link>
					<fielddominance>upper</fielddominance>
				</clipitem>
				<clipitem id="msub200012-2208k1d2-010 6">
					<name>msub200012-2208k1d2-010</name>
					<duration>10049</duration>
					<rate>
						<ntsc>FALSE</ntsc>
						<timebase>25</timebase>
					</rate>
					<in>8762</in>
					<out>8789</out>
					<start>25643</start>
					<end>25670</end>
					<pixelaspectratio>Square</pixelaspectratio>
					<enabled>TRUE</enabled>
					<anamorphic>FALSE</anamorphic>
					<alphatype>none</alphatype>
					<masterclipid>msub200012-2208k1d2-010 1</masterclipid>
					<logginginfo>
						<description>msub200012-2208k1d2-010</description>
						<scene/>
						<shottake/>
						<lognote/>
						<good>FALSE</good>
					</logginginfo>
					<labels>
						<label2/>
					</labels>
					<comments>
						<mastercomment1>RÃ…STOFF. BR_FINFREDAG_MSUA_OPRO</mastercomment1>
						<mastercomment2/>
						<mastercomment3/>
						<mastercomment4/>
					</comments>
					<file id="msub200012-2208k1d2-010 2"/>
					<filter>
						<enabled>FALSE</enabled>
						<start>-1</start>
						<end>-1</end>
						<effect>
							<name>Color Corrector 3-way Copy</name>
							<effectid>Color Corrector 3-way</effectid>
							<effectcategory>Color Correction</effectcategory>
							<effecttype>filter</effecttype>
							<mediatype>video</mediatype>
							<parameter>
								<parameterid>dispmode</parameterid>
								<name>Display Mode</name>
								<valuemin>1</valuemin>
								<valuemax>3</valuemax>
								<valuelist>
									<valueentry>
										<name>Final</name>
										<value>1</value>
									</valueentry>
									<valueentry>
										<name>Matte</name>
										<value>2</value>
									</valueentry>
									<valueentry>
										<name>Source</name>
										<value>3</value>
									</valueentry>
								</valuelist>
								<value>1</value>
							</parameter>
							<parameter>
								<parameterid>label1</parameterid>
								<name>Blacks Controls</name>
								<value/>
							</parameter>
							<parameter>
								<parameterid>blacklevel</parameterid>
								<name>Level</name>
								<valuemin>-196</valuemin>
								<valuemax>254</valuemax>
								<value>-14</value>
							</parameter>
							<parameter>
								<parameterid>b_hue</parameterid>
								<name>Angle</name>
								<valuemin>-180</valuemin>
								<valuemax>180</valuemax>
								<value>24.9188</value>
							</parameter>
							<parameter>
								<parameterid>b_mag</parameterid>
								<name>Magnitude</name>
								<valuemin>0</valuemin>
								<valuemax>200</valuemax>
								<value>1.35283</value>
							</parameter>
							<parameter>
								<parameterid>label2</parameterid>
								<name>Midrange Controls</name>
								<value/>
							</parameter>
							<parameter>
								<parameterid>mids</parameterid>
								<name>Level</name>
								<valuemin>0</valuemin>
								<valuemax>200</valuemax>
								<value>102</value>
							</parameter>
							<parameter>
								<parameterid>m_hue</parameterid>
								<name>Angle</name>
								<valuemin>-180</valuemin>
								<valuemax>180</valuemax>
								<value>-33</value>
							</parameter>
							<parameter>
								<parameterid>m_mag</parameterid>
								<name>Magnitude</name>
								<valuemin>0</valuemin>
								<valuemax>200</valuemax>
								<value>0</value>
							</parameter>
							<parameter>
								<parameterid>label3</parameterid>
								<name>Highlight Controls</name>
								<value/>
							</parameter>
							<parameter>
								<parameterid>highlights</parameterid>
								<name>Level</name>
								<valuemin>64</valuemin>
								<valuemax>509</valuemax>
								<value>275</value>
							</parameter>
							<parameter>
								<parameterid>h_hue</parameterid>
								<name>Angle</name>
								<valuemin>-180</valuemin>
								<valuemax>180</valuemax>
								<value>113.093</value>
							</parameter>
							<parameter>
								<parameterid>h_mag</parameterid>
								<name>Magnitude</name>
								<valuemin>0</valuemin>
								<valuemax>200</valuemax>
								<value>6.61613</value>
							</parameter>
							<parameter>
								<parameterid>label4</parameterid>
								<name>Color Controls</name>
								<value/>
							</parameter>
							<parameter>
								<parameterid>chroma</parameterid>
								<name>Saturation</name>
								<valuemin>0</valuemin>
								<valuemax>200</valuemax>
								<value>112</value>
							</parameter>
							<parameter>
								<parameterid>label5</parameterid>
								<name>Limit Effect Controls</name>
								<value/>
							</parameter>
							<parameter>
								<parameterid>dochroma</parameterid>
								<name>Limit on Chroma</name>
								<value>FALSE</value>
							</parameter>
							<parameter>
								<parameterid>centerang</parameterid>
								<name>Chroma Center</name>
								<valuemin>-760</valuemin>
								<valuemax>760</valuemax>
								<value>-110</value>
							</parameter>
							<parameter>
								<parameterid>chromawidth</parameterid>
								<name>Chroma Width</name>
								<valuemin>0</valuemin>
								<valuemax>360</valuemax>
								<value>15</value>
							</parameter>
							<parameter>
								<parameterid>chromasoft</parameterid>
								<name>Chroma Softness</name>
								<valuemin>0</valuemin>
								<valuemax>180</valuemax>
								<value>10</value>
							</parameter>
							<parameter>
								<parameterid>dosat</parameterid>
								<name>Limit on Saturation</name>
								<value>FALSE</value>
							</parameter>
							<parameter>
								<parameterid>satmin</parameterid>
								<name>Sat. Minimum</name>
								<valuemin>0</valuemin>
								<valuemax>125</valuemax>
								<value>35</value>
							</parameter>
							<parameter>
								<parameterid>satwidth</parameterid>
								<name>Sat. Width</name>
								<valuemin>0</valuemin>
								<valuemax>125</valuemax>
								<value>40</value>
							</parameter>
							<parameter>
								<parameterid>satsoft</parameterid>
								<name>Sat. Softness</name>
								<valuemin>0</valuemin>
								<valuemax>125</valuemax>
								<value>20</value>
							</parameter>
							<parameter>
								<parameterid>doluma</parameterid>
								<name>Limit on Luma</name>
								<value>FALSE</value>
							</parameter>
							<parameter>
								<parameterid>lumamin</parameterid>
								<name>Luma Minimum</name>
								<valuemin>0</valuemin>
								<valuemax>120</valuemax>
								<value>0</value>
							</parameter>
							<parameter>
								<parameterid>lumawidth</parameterid>
								<name>Luma Width</name>
								<valuemin>0</valuemin>
								<valuemax>120</valuemax>
								<value>40</value>
							</parameter>
							<parameter>
								<parameterid>lumasoft</parameterid>
								<name>Luma Softness</name>
								<valuemin>0</valuemin>
								<valuemax>120</valuemax>
								<value>20</value>
							</parameter>
							<parameter>
								<parameterid>label6</parameterid>
								<name>Edge Control</name>
								<value/>
							</parameter>
							<parameter>
								<parameterid>edgethin</parameterid>
								<name>Thin/Spread</name>
								<valuemin>-100</valuemin>
								<valuemax>100</valuemax>
								<value>0</value>
							</parameter>
							<parameter>
								<parameterid>edgefeather</parameterid>
								<name>Softening</name>
								<valuemin>0</valuemin>
								<valuemax>100</valuemax>
								<value>0</value>
							</parameter>
							<parameter>
								<parameterid>label7</parameterid>
								<name>Mask Control</name>
								<value/>
							</parameter>
							<parameter>
								<parameterid>invertsel</parameterid>
								<name>Invert</name>
								<value>FALSE</value>
							</parameter>
							<parameter>
								<parameterid>debugshow</parameterid>
								<name>Show Stats</name>
								<value>FALSE</value>
							</parameter>
						</effect>
					</filter>
					<filter>
						<enabled>TRUE</enabled>
						<start>-1</start>
						<end>-1</end>
						<effect>
							<name>Color Corrector 3-way Copy - 2</name>
							<effectid>Color Corrector 3-way</effectid>
							<effectcategory>Color Correction</effectcategory>
							<effecttype>filter</effecttype>
							<mediatype>video</mediatype>
							<parameter>
								<parameterid>dispmode</parameterid>
								<name>Display Mode</name>
								<valuemin>1</valuemin>
								<valuemax>3</valuemax>
								<valuelist>
									<valueentry>
										<name>Final</name>
										<value>1</value>
									</valueentry>
									<valueentry>
										<name>Matte</name>
										<value>2</value>
									</valueentry>
									<valueentry>
										<name>Source</name>
										<value>3</value>
									</valueentry>
								</valuelist>
								<value>1</value>
							</parameter>
							<parameter>
								<parameterid>label1</parameterid>
								<name>Blacks Controls</name>
								<value/>
							</parameter>
							<parameter>
								<parameterid>blacklevel</parameterid>
								<name>Level</name>
								<valuemin>-196</valuemin>
								<valuemax>254</valuemax>
								<value>-17</value>
							</parameter>
							<parameter>
								<parameterid>b_hue</parameterid>
								<name>Angle</name>
								<valuemin>-180</valuemin>
								<valuemax>180</valuemax>
								<value>-33</value>
							</parameter>
							<parameter>
								<parameterid>b_mag</parameterid>
								<name>Magnitude</name>
								<valuemin>0</valuemin>
								<valuemax>200</valuemax>
								<value>0</value>
							</parameter>
							<parameter>
								<parameterid>label2</parameterid>
								<name>Midrange Controls</name>
								<value/>
							</parameter>
							<parameter>
								<parameterid>mids</parameterid>
								<name>Level</name>
								<valuemin>0</valuemin>
								<valuemax>200</valuemax>
								<value>108</value>
							</parameter>
							<parameter>
								<parameterid>m_hue</parameterid>
								<name>Angle</name>
								<valuemin>-180</valuemin>
								<valuemax>180</valuemax>
								<value>15.6881</value>
							</parameter>
							<parameter>
								<parameterid>m_mag</parameterid>
								<name>Magnitude</name>
								<valuemin>0</valuemin>
								<valuemax>200</valuemax>
								<value>2.56072</value>
							</parameter>
							<parameter>
								<parameterid>label3</parameterid>
								<name>Highlight Controls</name>
								<value/>
							</parameter>
							<parameter>
								<parameterid>highlights</parameterid>
								<name>Level</name>
								<valuemin>64</valuemin>
								<valuemax>509</valuemax>
								<value>280</value>
							</parameter>
							<parameter>
								<parameterid>h_hue</parameterid>
								<name>Angle</name>
								<valuemin>-180</valuemin>
								<valuemax>180</valuemax>
								<value>98.9697</value>
							</parameter>
							<parameter>
								<parameterid>h_mag</parameterid>
								<name>Magnitude</name>
								<valuemin>0</valuemin>
								<valuemax>200</valuemax>
								<value>3.81104</value>
							</parameter>
							<parameter>
								<parameterid>label4</parameterid>
								<name>Color Controls</name>
								<value/>
							</parameter>
							<parameter>
								<parameterid>chroma</parameterid>
								<name>Saturation</name>
								<valuemin>0</valuemin>
								<valuemax>200</valuemax>
								<value>109</value>
							</parameter>
							<parameter>
								<parameterid>label5</parameterid>
								<name>Limit Effect Controls</name>
								<value/>
							</parameter>
							<parameter>
								<parameterid>dochroma</parameterid>
								<name>Limit on Chroma</name>
								<value>FALSE</value>
							</parameter>
							<parameter>
								<parameterid>centerang</parameterid>
								<name>Chroma Center</name>
								<valuemin>-760</valuemin>
								<valuemax>760</valuemax>
								<value>-110</value>
							</parameter>
							<parameter>
								<parameterid>chromawidth</parameterid>
								<name>Chroma Width</name>
								<valuemin>0</valuemin>
								<valuemax>360</valuemax>
								<value>15</value>
							</parameter>
							<parameter>
								<parameterid>chromasoft</parameterid>
								<name>Chroma Softness</name>
								<valuemin>0</valuemin>
								<valuemax>180</valuemax>
								<value>10</value>
							</parameter>
							<parameter>
								<parameterid>dosat</parameterid>
								<name>Limit on Saturation</name>
								<value>FALSE</value>
							</parameter>
							<parameter>
								<parameterid>satmin</parameterid>
								<name>Sat. Minimum</name>
								<valuemin>0</valuemin>
								<valuemax>125</valuemax>
								<value>35</value>
							</parameter>
							<parameter>
								<parameterid>satwidth</parameterid>
								<name>Sat. Width</name>
								<valuemin>0</valuemin>
								<valuemax>125</valuemax>
								<value>40</value>
							</parameter>
							<parameter>
								<parameterid>satsoft</parameterid>
								<name>Sat. Softness</name>
								<valuemin>0</valuemin>
								<valuemax>125</valuemax>
								<value>20</value>
							</parameter>
							<parameter>
								<parameterid>doluma</parameterid>
								<name>Limit on Luma</name>
								<value>FALSE</value>
							</parameter>
							<parameter>
								<parameterid>lumamin</parameterid>
								<name>Luma Minimum</name>
								<valuemin>0</valuemin>
								<valuemax>120</valuemax>
								<value>0</value>
							</parameter>
							<parameter>
								<parameterid>lumawidth</parameterid>
								<name>Luma Width</name>
								<valuemin>0</valuemin>
								<valuemax>120</valuemax>
								<value>40</value>
							</parameter>
							<parameter>
								<parameterid>lumasoft</parameterid>
								<name>Luma Softness</name>
								<valuemin>0</valuemin>
								<valuemax>120</valuemax>
								<value>20</value>
							</parameter>
							<parameter>
								<parameterid>label6</parameterid>
								<name>Edge Control</name>
								<value/>
							</parameter>
							<parameter>
								<parameterid>edgethin</parameterid>
								<name>Thin/Spread</name>
								<valuemin>-100</valuemin>
								<valuemax>100</valuemax>
								<value>0</value>
							</parameter>
							<parameter>
								<parameterid>edgefeather</parameterid>
								<name>Softening</name>
								<valuemin>0</valuemin>
								<valuemax>100</valuemax>
								<value>0</value>
							</parameter>
							<parameter>
								<parameterid>label7</parameterid>
								<name>Mask Control</name>
								<value/>
							</parameter>
							<parameter>
								<parameterid>invertsel</parameterid>
								<name>Invert</name>
								<value>FALSE</value>
							</parameter>
							<parameter>
								<parameterid>debugshow</parameterid>
								<name>Show Stats</name>
								<value>FALSE</value>
							</parameter>
						</effect>
					</filter>
					<sourcetrack>
						<mediatype>video</mediatype>
					</sourcetrack>
					<fielddominance>upper</fielddominance>
				</clipitem>
				<generatoritem id="Text">
					<name>Text</name>
					<duration>3000</duration>
					<rate>
						<ntsc>FALSE</ntsc>
						<timebase>25</timebase>
					</rate>
					<in>1375</in>
					<out>1438</out>
					<start>25906</start>
					<end>25969</end>
					<enabled>TRUE</enabled>
					<anamorphic>FALSE</anamorphic>
					<alphatype>black</alphatype>
					<logginginfo>
						<scene/>
						<shottake/>
						<lognote/>
						<good>FALSE</good>
					</logginginfo>
					<labels>
						<label2/>
					</labels>
					<comments>
						<mastercomment1/>
						<mastercomment2/>
						<mastercomment3/>
						<mastercomment4/>
					</comments>
					<effect>
						<name>Text</name>
						<effectid>Text</effectid>
						<effectcategory>Text</effectcategory>
						<effecttype>generator</effecttype>
						<mediatype>video</mediatype>
						<parameter>
							<parameterid>str</parameterid>
							<name>Text</name>
							<value>Fin Fredag-bumper</value>
						</parameter>
						<parameter>
							<parameterid>fontname</parameterid>
							<name>Font</name>
							<value>Lucida Grande</value>
						</parameter>
						<parameter>
							<parameterid>fontsize</parameterid>
							<name>Size</name>
							<valuemin>0</valuemin>
							<valuemax>1000</valuemax>
							<value>36</value>
						</parameter>
						<parameter>
							<parameterid>fontstyle</parameterid>
							<name>Style</name>
							<valuemin>1</valuemin>
							<valuemax>4</valuemax>
							<valuelist>
								<valueentry>
									<name>Plain</name>
									<value>1</value>
								</valueentry>
								<valueentry>
									<name>Bold</name>
									<value>2</value>
								</valueentry>
								<valueentry>
									<name>Italic</name>
									<value>3</value>
								</valueentry>
								<valueentry>
									<name>Bold/Italic</name>
									<value>4</value>
								</valueentry>
							</valuelist>
							<value>1</value>
						</parameter>
						<parameter>
							<parameterid>fontalign</parameterid>
							<name>Alignment</name>
							<valuemin>1</valuemin>
							<valuemax>3</valuemax>
							<valuelist>
								<valueentry>
									<name>Left</name>
									<value>1</value>
								</valueentry>
								<valueentry>
									<name>Center</name>
									<value>2</value>
								</valueentry>
								<valueentry>
									<name>Right</name>
									<value>3</value>
								</valueentry>
							</valuelist>
							<value>2</value>
						</parameter>
						<parameter>
							<parameterid>fontcolor</parameterid>
							<name>Font Color</name>
							<value>
								<alpha>255</alpha>
								<red>255</red>
								<green>255</green>
								<blue>255</blue>
							</value>
						</parameter>
						<parameter>
							<parameterid>origin</parameterid>
							<name>Origin</name>
							<value>
								<horiz>0</horiz>
								<vert>0</vert>
							</value>
						</parameter>
						<parameter>
							<parameterid>fonttrack</parameterid>
							<name>Tracking</name>
							<valuemin>-200</valuemin>
							<valuemax>200</valuemax>
							<value>1</value>
						</parameter>
						<parameter>
							<parameterid>leading</parameterid>
							<name>Leading</name>
							<valuemin>-100</valuemin>
							<valuemax>100</valuemax>
							<value>0</value>
						</parameter>
						<parameter>
							<parameterid>aspect</parameterid>
							<name>Aspect</name>
							<valuemin>0.1</valuemin>
							<valuemax>5</valuemax>
							<value>1</value>
						</parameter>
						<parameter>
							<parameterid>autokern</parameterid>
							<name>Auto Kerning</name>
							<value>TRUE</value>
						</parameter>
						<parameter>
							<parameterid>subpixel</parameterid>
							<name>Use Subpixel</name>
							<value>TRUE</value>
						</parameter>
					</effect>
					<sourcetrack>
						<mediatype>video</mediatype>
					</sourcetrack>
				</generatoritem>
				<clipitem id="msub200012-3011-k1d2-007 5">
					<name>msub200012-3011-k1d2-007</name>
					<duration>5622</duration>
					<rate>
						<ntsc>FALSE</ntsc>
						<timebase>25</timebase>
					</rate>
					<in>1075</in>
					<out>1219</out>
					<start>25969</start>
					<end>26113</end>
					<pixelaspectratio>Square</pixelaspectratio>
					<enabled>TRUE</enabled>
					<anamorphic>FALSE</anamorphic>
					<alphatype>none</alphatype>
					<masterclipid>msub200012-3011-k1d2-007 1</masterclipid>
					<syncoffset>0</syncoffset>
					<logginginfo>
						<description>msub200012-3011-k1d2-007</description>
						<scene/>
						<shottake/>
						<lognote/>
						<good>FALSE</good>
					</logginginfo>
					<labels>
						<label>Interviews</label>
						<label2/>
					</labels>
					<comments>
						<mastercomment1>RÃ…STOFF. BR_FINFREDAG_MSUA_OPRO</mastercomment1>
						<mastercomment2/>
						<mastercomment3/>
						<mastercomment4/>
						<clipcommenta/>
					</comments>
					<file id="msub200012-3011-k1d2-007 2"/>
					<sourcetrack>
						<mediatype>video</mediatype>
					</sourcetrack>
					<link>
						<linkclipref>msub200012-3011-k1d2-007 5</linkclipref>
						<mediatype>video</mediatype>
						<trackindex>1</trackindex>
						<clipindex>107</clipindex>
					</link>
					<link>
						<linkclipref>msub200012-3011-k1d2-007 6</linkclipref>
						<mediatype>audio</mediatype>
						<trackindex>1</trackindex>
						<clipindex>102</clipindex>
					</link>
					<link>
						<linkclipref>msub200012-3011-k1d2-007 7</linkclipref>
						<mediatype>audio</mediatype>
						<trackindex>2</trackindex>
						<clipindex>109</clipindex>
					</link>
					<fielddominance>upper</fielddominance>
				</clipitem>
				<clipitem id="msub200012-3011-k2d2-005 ">
					<name>msub200012-3011-k2d2-005</name>
					<duration>5622</duration>
					<rate>
						<ntsc>FALSE</ntsc>
						<timebase>25</timebase>
					</rate>
					<in>1219</in>
					<out>1292</out>
					<start>26113</start>
					<end>26186</end>
					<pixelaspectratio>Square</pixelaspectratio>
					<enabled>TRUE</enabled>
					<anamorphic>FALSE</anamorphic>
					<alphatype>none</alphatype>
					<masterclipid>msub200012-3011-k2d2-005 1</masterclipid>
					<syncoffset>0</syncoffset>
					<logginginfo>
						<description>msub200012-3011-k2d2-005</description>
						<scene/>
						<shottake/>
						<lognote/>
						<good>FALSE</good>
					</logginginfo>
					<labels>
						<label>Interviews</label>
						<label2/>
					</labels>
					<comments>
						<mastercomment1>RÃ…STOFF. BR_FINFREDAG_MSUA_OPRO</mastercomment1>
						<mastercomment2/>
						<mastercomment3/>
						<mastercomment4/>
						<clipcommenta/>
					</comments>
					<file id="msub200012-3011-k2d2-005 2">
						<name>msub200012-3011-k2d2-005.mxf</name>
						<pathurl>file://localhost/omfs/clip.dir/MXF/1080i/msub200012-3011-k2d2-005.mxf</pathurl>
						<rate>
							<timebase>25</timebase>
						</rate>
						<duration>5503</duration>
						<timecode>
							<rate>
								<timebase>25</timebase>
							</rate>
							<string>01:37:25:20</string>
							<frame>146145</frame>
							<displayformat>NDF</displayformat>
							<source>source</source>
						</timecode>
						<media>
							<video>
								<duration>5503</duration>
								<samplecharacteristics>
									<width>1920</width>
									<height>1080</height>
								</samplecharacteristics>
							</video>
							<audio>
								<rate>
									<timebase>48000</timebase>
								</rate>
								<trackcount>1</trackcount>
								<samplecharacteristics>
									<depth>24</depth>
								</samplecharacteristics>
							</audio>
						</media>
					</file>
					<sourcetrack>
						<mediatype>video</mediatype>
					</sourcetrack>
					<fielddominance>upper</fielddominance>
				</clipitem>
				<clipitem id="msub200012-3011-k1d2-007 8">
					<name>msub200012-3011-k1d2-007</name>
					<duration>5622</duration>
					<rate>
						<ntsc>FALSE</ntsc>
						<timebase>25</timebase>
					</rate>
					<in>1292</in>
					<out>1586</out>
					<start>26186</start>
					<end>26480</end>
					<pixelaspectratio>Square</pixelaspectratio>
					<anamorphic>FALSE</anamorphic>
					<alphatype>none</alphatype>
					<masterclipid>msub200012-3011-k1d2-007 1</masterclipid>
					<syncoffset>0</syncoffset>
					<logginginfo>
						<description>msub200012-3011-k1d2-007</description>
						<scene/>
						<shottake/>
						<lognote/>
						<good>FALSE</good>
					</logginginfo>
					<labels>
						<label>Interviews</label>
						<label2/>
					</labels>
					<comments>
						<mastercomment1>RÃ…STOFF. BR_FINFREDAG_MSUA_OPRO</mastercomment1>
						<mastercomment2/>
						<mastercomment3/>
						<mastercomment4/>
						<clipcommenta/>
					</comments>
					<file id="msub200012-3011-k1d2-007 2"/>
					<sourcetrack>
						<mediatype>video</mediatype>
					</sourcetrack>
					<fielddominance>upper</fielddominance>
				</clipitem>
				<clipitem id="msub200012-3011-k2d2-005 3">
					<name>msub200012-3011-k2d2-005</name>
					<duration>5622</duration>
					<rate>
						<ntsc>FALSE</ntsc>
						<timebase>25</timebase>
					</rate>
					<in>1586</in>
					<out>1743</out>
					<start>26480</start>
					<end>26637</end>
					<pixelaspectratio>Square</pixelaspectratio>
					<anamorphic>FALSE</anamorphic>
					<alphatype>none</alphatype>
					<masterclipid>msub200012-3011-k2d2-005 1</masterclipid>
					<syncoffset>0</syncoffset>
					<logginginfo>
						<description>msub200012-3011-k2d2-005</description>
						<scene/>
						<shottake/>
						<lognote/>
						<good>FALSE</good>
					</logginginfo>
					<labels>
						<label>Interviews</label>
						<label2/>
					</labels>
					<comments>
						<mastercomment1>RÃ…STOFF. BR_FINFREDAG_MSUA_OPRO</mastercomment1>
						<mastercomment2/>
						<mastercomment3/>
						<mastercomment4/>
						<clipcommenta/>
					</comments>
					<file id="msub200012-3011-k2d2-005 2"/>
					<sourcetrack>
						<mediatype>video</mediatype>
					</sourcetrack>
					<fielddominance>upper</fielddominance>
				</clipitem>
				<clipitem id="msub200012-3011-k1d2-007 9">
					<name>msub200012-3011-k1d2-007</name>
					<duration>5622</duration>
					<rate>
						<ntsc>FALSE</ntsc>
						<timebase>25</timebase>
					</rate>
					<in>2076</in>
					<out>2143</out>
					<start>26637</start>
					<end>26704</end>
					<pixelaspectratio>Square</pixelaspectratio>
					<enabled>TRUE</enabled>
					<anamorphic>FALSE</anamorphic>
					<alphatype>none</alphatype>
					<masterclipid>msub200012-3011-k1d2-007 1</masterclipid>
					<syncoffset>0</syncoffset>
					<logginginfo>
						<description>msub200012-3011-k1d2-007</description>
						<scene/>
						<shottake/>
						<lognote/>
						<good>FALSE</good>
					</logginginfo>
					<labels>
						<label>Interviews</label>
						<label2/>
					</labels>
					<comments>
						<mastercomment1>RÃ…STOFF. BR_FINFREDAG_MSUA_OPRO</mastercomment1>
						<mastercomment2/>
						<mastercomment3/>
						<mastercomment4/>
						<clipcommenta/>
					</comments>
					<file id="msub200012-3011-k1d2-007 2"/>
					<sourcetrack>
						<mediatype>video</mediatype>
					</sourcetrack>
					<link>
						<linkclipref>msub200012-3011-k1d2-007 9</linkclipref>
						<mediatype>video</mediatype>
						<trackindex>1</trackindex>
						<clipindex>111</clipindex>
					</link>
					<link>
						<linkclipref>msub200012-3011-k1d2-007 10</linkclipref>
						<mediatype>audio</mediatype>
						<trackindex>1</trackindex>
						<clipindex>104</clipindex>
					</link>
					<link>
						<linkclipref>msub200012-3011-k1d2-007 11</linkclipref>
						<mediatype>audio</mediatype>
						<trackindex>2</trackindex>
						<clipindex>111</clipindex>
					</link>
					<fielddominance>upper</fielddominance>
				</clipitem>
				<clipitem id="msub200012-3011-k2d2-005 4">
					<name>msub200012-3011-k2d2-005</name>
					<duration>5622</duration>
					<rate>
						<ntsc>FALSE</ntsc>
						<timebase>25</timebase>
					</rate>
					<in>2143</in>
					<out>2203</out>
					<start>26704</start>
					<end>26764</end>
					<pixelaspectratio>Square</pixelaspectratio>
					<enabled>TRUE</enabled>
					<anamorphic>FALSE</anamorphic>
					<alphatype>none</alphatype>
					<masterclipid>msub200012-3011-k2d2-005 1</masterclipid>
					<syncoffset>0</syncoffset>
					<logginginfo>
						<description>msub200012-3011-k2d2-005</description>
						<scene/>
						<shottake/>
						<lognote/>
						<good>FALSE</good>
					</logginginfo>
					<labels>
						<label>Interviews</label>
						<label2/>
					</labels>
					<comments>
						<mastercomment1>RÃ…STOFF. BR_FINFREDAG_MSUA_OPRO</mastercomment1>
						<mastercomment2/>
						<mastercomment3/>
						<mastercomment4/>
						<clipcommenta/>
					</comments>
					<file id="msub200012-3011-k2d2-005 2"/>
					<sourcetrack>
						<mediatype>video</mediatype>
					</sourcetrack>
					<fielddominance>upper</fielddominance>
				</clipitem>
				<clipitem id="msub200012-3011-k1d2-007 12">
					<name>msub200012-3011-k1d2-007</name>
					<duration>5622</duration>
					<rate>
						<ntsc>FALSE</ntsc>
						<timebase>25</timebase>
					</rate>
					<in>2446</in>
					<out>3066</out>
					<start>26764</start>
					<end>27384</end>
					<pixelaspectratio>Square</pixelaspectratio>
					<enabled>TRUE</enabled>
					<anamorphic>FALSE</anamorphic>
					<alphatype>none</alphatype>
					<masterclipid>msub200012-3011-k1d2-007 1</masterclipid>
					<syncoffset>0</syncoffset>
					<logginginfo>
						<description>msub200012-3011-k1d2-007</description>
						<scene/>
						<shottake/>
						<lognote/>
						<good>FALSE</good>
					</logginginfo>
					<labels>
						<label>Interviews</label>
						<label2/>
					</labels>
					<comments>
						<mastercomment1>RÃ…STOFF. BR_FINFREDAG_MSUA_OPRO</mastercomment1>
						<mastercomment2/>
						<mastercomment3/>
						<mastercomment4/>
						<clipcommenta/>
					</comments>
					<file id="msub200012-3011-k1d2-007 2"/>
					<sourcetrack>
						<mediatype>video</mediatype>
					</sourcetrack>
					<link>
						<linkclipref>msub200012-3011-k1d2-007 12</linkclipref>
						<mediatype>video</mediatype>
						<trackindex>1</trackindex>
						<clipindex>113</clipindex>
					</link>
					<link>
						<linkclipref>msub200012-3011-k1d2-007 13</linkclipref>
						<mediatype>audio</mediatype>
						<trackindex>1</trackindex>
						<clipindex>106</clipindex>
					</link>
					<link>
						<linkclipref>msub200012-3011-k1d2-007 14</linkclipref>
						<mediatype>audio</mediatype>
						<trackindex>2</trackindex>
						<clipindex>113</clipindex>
					</link>
					<fielddominance>upper</fielddominance>
				</clipitem>
				<clipitem id="msub200012-3011-k1d2-007 15">
					<name>msub200012-3011-k1d2-007</name>
					<duration>5622</duration>
					<rate>
						<ntsc>FALSE</ntsc>
						<timebase>25</timebase>
					</rate>
					<in>3515</in>
					<out>3692</out>
					<start>27384</start>
					<end>27561</end>
					<pixelaspectratio>Square</pixelaspectratio>
					<anamorphic>FALSE</anamorphic>
					<alphatype>none</alphatype>
					<masterclipid>msub200012-3011-k1d2-007 1</masterclipid>
					<syncoffset>0</syncoffset>
					<logginginfo>
						<description>msub200012-3011-k1d2-007</description>
						<scene/>
						<shottake/>
						<lognote/>
						<good>FALSE</good>
					</logginginfo>
					<labels>
						<label>Interviews</label>
						<label2/>
					</labels>
					<comments>
						<mastercomment1>RÃ…STOFF. BR_FINFREDAG_MSUA_OPRO</mastercomment1>
						<mastercomment2/>
						<mastercomment3/>
						<mastercomment4/>
						<clipcommenta/>
					</comments>
					<file id="msub200012-3011-k1d2-007 2"/>
					<sourcetrack>
						<mediatype>video</mediatype>
					</sourcetrack>
					<fielddominance>upper</fielddominance>
				</clipitem>
				<clipitem id="msub200012-3011-k2d2-005 5">
					<name>msub200012-3011-k2d2-005</name>
					<duration>5622</duration>
					<rate>
						<ntsc>FALSE</ntsc>
						<timebase>25</timebase>
					</rate>
					<in>3692</in>
					<out>3766</out>
					<start>27561</start>
					<end>27635</end>
					<pixelaspectratio>Square</pixelaspectratio>
					<enabled>TRUE</enabled>
					<anamorphic>FALSE</anamorphic>
					<alphatype>none</alphatype>
					<masterclipid>msub200012-3011-k2d2-005 1</masterclipid>
					<syncoffset>0</syncoffset>
					<logginginfo>
						<description>msub200012-3011-k2d2-005</description>
						<scene/>
						<shottake/>
						<lognote/>
						<good>FALSE</good>
					</logginginfo>
					<labels>
						<label>Interviews</label>
						<label2/>
					</labels>
					<comments>
						<mastercomment1>RÃ…STOFF. BR_FINFREDAG_MSUA_OPRO</mastercomment1>
						<mastercomment2/>
						<mastercomment3/>
						<mastercomment4/>
						<clipcommenta/>
					</comments>
					<file id="msub200012-3011-k2d2-005 2"/>
					<sourcetrack>
						<mediatype>video</mediatype>
					</sourcetrack>
					<fielddominance>upper</fielddominance>
				</clipitem>
				<clipitem id="msub200012-3011-k1d2-007 16">
					<name>msub200012-3011-k1d2-007</name>
					<duration>5622</duration>
					<rate>
						<ntsc>FALSE</ntsc>
						<timebase>25</timebase>
					</rate>
					<in>4385</in>
					<out>4800</out>
					<start>27635</start>
					<end>28050</end>
					<pixelaspectratio>Square</pixelaspectratio>
					<enabled>TRUE</enabled>
					<anamorphic>FALSE</anamorphic>
					<alphatype>none</alphatype>
					<masterclipid>msub200012-3011-k1d2-007 1</masterclipid>
					<syncoffset>0</syncoffset>
					<logginginfo>
						<description>msub200012-3011-k1d2-007</description>
						<scene/>
						<shottake/>
						<lognote/>
						<good>FALSE</good>
					</logginginfo>
					<labels>
						<label>Interviews</label>
						<label2/>
					</labels>
					<comments>
						<mastercomment1>RÃ…STOFF. BR_FINFREDAG_MSUA_OPRO</mastercomment1>
						<mastercomment2/>
						<mastercomment3/>
						<mastercomment4/>
						<clipcommenta/>
					</comments>
					<file id="msub200012-3011-k1d2-007 2"/>
					<sourcetrack>
						<mediatype>video</mediatype>
					</sourcetrack>
					<fielddominance>upper</fielddominance>
				</clipitem>
				<clipitem id="msub200012-3011-k2d2-005 6">
					<name>msub200012-3011-k2d2-005</name>
					<duration>5622</duration>
					<rate>
						<ntsc>FALSE</ntsc>
						<timebase>25</timebase>
					</rate>
					<in>4800</in>
					<out>4897</out>
					<start>28050</start>
					<end>28147</end>
					<pixelaspectratio>Square</pixelaspectratio>
					<anamorphic>FALSE</anamorphic>
					<alphatype>none</alphatype>
					<masterclipid>msub200012-3011-k2d2-005 1</masterclipid>
					<syncoffset>0</syncoffset>
					<logginginfo>
						<description>msub200012-3011-k2d2-005</description>
						<scene/>
						<shottake/>
						<lognote/>
						<good>FALSE</good>
					</logginginfo>
					<labels>
						<label>Interviews</label>
						<label2/>
					</labels>
					<comments>
						<mastercomment1>RÃ…STOFF. BR_FINFREDAG_MSUA_OPRO</mastercomment1>
						<mastercomment2/>
						<mastercomment3/>
						<mastercomment4/>
						<clipcommenta/>
					</comments>
					<file id="msub200012-3011-k2d2-005 2"/>
					<sourcetrack>
						<mediatype>video</mediatype>
					</sourcetrack>
					<fielddominance>upper</fielddominance>
				</clipitem>
				<clipitem id="msub200012-3011-k1d2-007 17">
					<name>msub200012-3011-k1d2-007</name>
					<duration>5622</duration>
					<rate>
						<ntsc>FALSE</ntsc>
						<timebase>25</timebase>
					</rate>
					<in>4897</in>
					<out>5089</out>
					<start>28147</start>
					<end>28339</end>
					<pixelaspectratio>Square</pixelaspectratio>
					<enabled>TRUE</enabled>
					<anamorphic>FALSE</anamorphic>
					<alphatype>none</alphatype>
					<masterclipid>msub200012-3011-k1d2-007 1</masterclipid>
					<syncoffset>0</syncoffset>
					<logginginfo>
						<description>msub200012-3011-k1d2-007</description>
						<scene/>
						<shottake/>
						<lognote/>
						<good>FALSE</good>
					</logginginfo>
					<labels>
						<label>Interviews</label>
						<label2/>
					</labels>
					<comments>
						<mastercomment1>RÃ…STOFF. BR_FINFREDAG_MSUA_OPRO</mastercomment1>
						<mastercomment2/>
						<mastercomment3/>
						<mastercomment4/>
						<clipcommenta/>
					</comments>
					<file id="msub200012-3011-k1d2-007 2"/>
					<sourcetrack>
						<mediatype>video</mediatype>
					</sourcetrack>
					<fielddominance>upper</fielddominance>
				</clipitem>
				<clipitem id="msub200012-3011-k1d2-008 ">
					<name>msub200012-3011-k1d2-008</name>
					<duration>9650</duration>
					<rate>
						<ntsc>FALSE</ntsc>
						<timebase>25</timebase>
					</rate>
					<in>204</in>
					<out>423</out>
					<start>28755</start>
					<end>28974</end>
					<pixelaspectratio>Square</pixelaspectratio>
					<enabled>TRUE</enabled>
					<anamorphic>FALSE</anamorphic>
					<alphatype>none</alphatype>
					<masterclipid>msub200012-3011-k1d2-008 1</masterclipid>
					<syncoffset>0</syncoffset>
					<logginginfo>
						<description>msub200012-3011-k1d2-008</description>
						<scene/>
						<shottake/>
						<lognote/>
						<good>FALSE</good>
					</logginginfo>
					<labels>
						<label>Good Take</label>
						<label2/>
					</labels>
					<comments>
						<mastercomment1>RÃ…STOFF. BR_FINFREDAG_MSUA_OPRO</mastercomment1>
						<mastercomment2/>
						<mastercomment3/>
						<mastercomment4/>
						<clipcommenta/>
					</comments>
					<file id="msub200012-3011-k1d2-008 2">
						<name>msub200012-3011-k1d2-008.mxf</name>
						<pathurl>file://localhost/omfs/clip.dir/MXF/1080i/msub200012-3011-k1d2-008.mxf</pathurl>
						<rate>
							<timebase>25</timebase>
						</rate>
						<duration>9606</duration>
						<timecode>
							<rate>
								<timebase>25</timebase>
							</rate>
							<string>01:55:37:07</string>
							<frame>173432</frame>
							<displayformat>NDF</displayformat>
							<source>source</source>
						</timecode>
						<media>
							<video>
								<duration>9606</duration>
								<samplecharacteristics>
									<width>1920</width>
									<height>1080</height>
								</samplecharacteristics>
							</video>
							<audio>
								<rate>
									<timebase>48000</timebase>
								</rate>
								<trackcount>1</trackcount>
								<samplecharacteristics>
									<depth>24</depth>
								</samplecharacteristics>
							</audio>
						</media>
					</file>
					<sourcetrack>
						<mediatype>video</mediatype>
					</sourcetrack>
					<fielddominance>upper</fielddominance>
				</clipitem>
				<clipitem id="msub200012-3011-k2d2-007 ">
					<name>msub200012-3011-k2d2-007</name>
					<duration>9650</duration>
					<rate>
						<ntsc>FALSE</ntsc>
						<timebase>25</timebase>
					</rate>
					<in>727</in>
					<out>852</out>
					<start>28974</start>
					<end>29099</end>
					<pixelaspectratio>Square</pixelaspectratio>
					<enabled>TRUE</enabled>
					<anamorphic>FALSE</anamorphic>
					<alphatype>none</alphatype>
					<masterclipid>msub200012-3011-k2d2-007 1</masterclipid>
					<syncoffset>0</syncoffset>
					<logginginfo>
						<description>msub200012-3011-k2d2-007</description>
						<scene/>
						<shottake/>
						<lognote/>
						<good>FALSE</good>
					</logginginfo>
					<labels>
						<label>Good Take</label>
						<label2/>
					</labels>
					<comments>
						<mastercomment1>RÃ…STOFF. BR_FINFREDAG_MSUA_OPRO</mastercomment1>
						<mastercomment2/>
						<mastercomment3/>
						<mastercomment4/>
						<clipcommenta/>
					</comments>
					<file id="msub200012-3011-k2d2-007 2">
						<name>msub200012-3011-k2d2-007.mxf</name>
						<pathurl>file://localhost/omfs/clip.dir/MXF/1080i/msub200012-3011-k2d2-007.mxf</pathurl>
						<rate>
							<timebase>25</timebase>
						</rate>
						<duration>9638</duration>
						<timecode>
							<rate>
								<timebase>25</timebase>
							</rate>
							<string>01:41:10:05</string>
							<frame>151755</frame>
							<displayformat>NDF</displayformat>
							<source>source</source>
						</timecode>
						<media>
							<video>
								<duration>9638</duration>
								<samplecharacteristics>
									<width>1920</width>
									<height>1080</height>
								</samplecharacteristics>
							</video>
							<audio>
								<rate>
									<timebase>48000</timebase>
								</rate>
								<trackcount>1</trackcount>
								<samplecharacteristics>
									<depth>24</depth>
								</samplecharacteristics>
							</audio>
						</media>
					</file>
					<sourcetrack>
						<mediatype>video</mediatype>
					</sourcetrack>
					<fielddominance>upper</fielddominance>
				</clipitem>
				<clipitem id="msub200012-3011-k1d2-008 3">
					<name>msub200012-3011-k1d2-008</name>
					<duration>9650</duration>
					<rate>
						<ntsc>FALSE</ntsc>
						<timebase>25</timebase>
					</rate>
					<in>852</in>
					<out>1279</out>
					<start>29099</start>
					<end>29526</end>
					<pixelaspectratio>Square</pixelaspectratio>
					<enabled>TRUE</enabled>
					<anamorphic>FALSE</anamorphic>
					<alphatype>none</alphatype>
					<masterclipid>msub200012-3011-k1d2-008 1</masterclipid>
					<syncoffset>0</syncoffset>
					<logginginfo>
						<description>msub200012-3011-k1d2-008</description>
						<scene/>
						<shottake/>
						<lognote/>
						<good>FALSE</good>
					</logginginfo>
					<labels>
						<label>Good Take</label>
						<label2/>
					</labels>
					<comments>
						<mastercomment1>RÃ…STOFF. BR_FINFREDAG_MSUA_OPRO</mastercomment1>
						<mastercomment2/>
						<mastercomment3/>
						<mastercomment4/>
						<clipcommenta/>
					</comments>
					<file id="msub200012-3011-k1d2-008 2"/>
					<filter>
						<effect>
							<name>Opacity</name>
							<effectid>opacity</effectid>
							<effectcategory>motion</effectcategory>
							<effecttype>motion</effecttype>
							<mediatype>video</mediatype>
							<parameter>
								<parameterid>opacity</parameterid>
								<name>opacity</name>
								<valuemin>0</valuemin>
								<valuemax>100</valuemax>
								<value>100</value>
							</parameter>
						</effect>
					</filter>
					<sourcetrack>
						<mediatype>video</mediatype>
					</sourcetrack>
					<fielddominance>upper</fielddominance>
				</clipitem>
				<clipitem id="msub200012-3011-k2d2-007 3">
					<name>msub200012-3011-k2d2-007</name>
					<duration>9650</duration>
					<rate>
						<ntsc>FALSE</ntsc>
						<timebase>25</timebase>
					</rate>
					<in>1279</in>
					<out>1379</out>
					<start>29526</start>
					<end>29626</end>
					<pixelaspectratio>Square</pixelaspectratio>
					<enabled>TRUE</enabled>
					<anamorphic>FALSE</anamorphic>
					<alphatype>none</alphatype>
					<masterclipid>msub200012-3011-k2d2-007 1</masterclipid>
					<syncoffset>0</syncoffset>
					<logginginfo>
						<description>msub200012-3011-k2d2-007</description>
						<scene/>
						<shottake/>
						<lognote/>
						<good>FALSE</good>
					</logginginfo>
					<labels>
						<label>Good Take</label>
						<label2/>
					</labels>
					<comments>
						<mastercomment1>RÃ…STOFF. BR_FINFREDAG_MSUA_OPRO</mastercomment1>
						<mastercomment2/>
						<mastercomment3/>
						<mastercomment4/>
						<clipcommenta/>
					</comments>
					<file id="msub200012-3011-k2d2-007 2"/>
					<sourcetrack>
						<mediatype>video</mediatype>
					</sourcetrack>
					<fielddominance>upper</fielddominance>
				</clipitem>
				<clipitem id="msub200012-3011-k1d2-008 4">
					<name>msub200012-3011-k1d2-008</name>
					<duration>9650</duration>
					<rate>
						<ntsc>FALSE</ntsc>
						<timebase>25</timebase>
					</rate>
					<in>2154</in>
					<out>2260</out>
					<start>29626</start>
					<end>29732</end>
					<pixelaspectratio>Square</pixelaspectratio>
					<enabled>TRUE</enabled>
					<anamorphic>FALSE</anamorphic>
					<alphatype>none</alphatype>
					<masterclipid>msub200012-3011-k1d2-008 1</masterclipid>
					<syncoffset>0</syncoffset>
					<logginginfo>
						<description>msub200012-3011-k1d2-008</description>
						<scene/>
						<shottake/>
						<lognote/>
						<good>FALSE</good>
					</logginginfo>
					<labels>
						<label>Good Take</label>
						<label2/>
					</labels>
					<comments>
						<mastercomment1>RÃ…STOFF. BR_FINFREDAG_MSUA_OPRO</mastercomment1>
						<mastercomment2/>
						<mastercomment3/>
						<mastercomment4/>
						<clipcommenta/>
					</comments>
					<file id="msub200012-3011-k1d2-008 2"/>
					<sourcetrack>
						<mediatype>video</mediatype>
					</sourcetrack>
					<fielddominance>upper</fielddominance>
				</clipitem>
				<clipitem id="msub200012-3011-k2d2-007 4">
					<name>msub200012-3011-k2d2-007</name>
					<duration>9650</duration>
					<rate>
						<ntsc>FALSE</ntsc>
						<timebase>25</timebase>
					</rate>
					<in>2260</in>
					<out>2353</out>
					<start>29732</start>
					<end>29825</end>
					<pixelaspectratio>Square</pixelaspectratio>
					<enabled>TRUE</enabled>
					<anamorphic>FALSE</anamorphic>
					<alphatype>none</alphatype>
					<masterclipid>msub200012-3011-k2d2-007 1</masterclipid>
					<syncoffset>0</syncoffset>
					<logginginfo>
						<description>msub200012-3011-k2d2-007</description>
						<scene/>
						<shottake/>
						<lognote/>
						<good>FALSE</good>
					</logginginfo>
					<labels>
						<label>Good Take</label>
						<label2/>
					</labels>
					<comments>
						<mastercomment1>RÃ…STOFF. BR_FINFREDAG_MSUA_OPRO</mastercomment1>
						<mastercomment2/>
						<mastercomment3/>
						<mastercomment4/>
						<clipcommenta/>
					</comments>
					<file id="msub200012-3011-k2d2-007 2"/>
					<sourcetrack>
						<mediatype>video</mediatype>
					</sourcetrack>
					<fielddominance>upper</fielddominance>
				</clipitem>
				<clipitem id="FUHA06001785 ">
					<name>FUHA06001785</name>
					<duration>113650</duration>
					<rate>
						<ntsc>FALSE</ntsc>
						<timebase>25</timebase>
					</rate>
					<in>106367</in>
					<out>106700</out>
					<start>29825</start>
					<end>30158</end>
					<pixelaspectratio>PAL-601</pixelaspectratio>
					<enabled>TRUE</enabled>
					<anamorphic>FALSE</anamorphic>
					<alphatype>none</alphatype>
					<masterclipid>FUHA06001785 1</masterclipid>
					<logginginfo>
						<description>Melodi Grand Prix 1985 - Internasjonal finale</description>
						<scene/>
						<shottake/>
						<lognote>ALLE rettigheter mÃ¥ sjekkes FÃ˜R ethvert bruk - uansett lengde!!!!!</lognote>
						<good>FALSE</good>
					</logginginfo>
					<labels>
						<label2/>
					</labels>
					<comments>
						<mastercomment1>ARKIVSTOFF. BR_FINFREDAG_MSUA_OPRO</mastercomment1>
						<mastercomment2>SVT1 / EBU. </mastercomment2>
						<mastercomment3>Sendt: 1985-05-04. </mastercomment3>
						<mastercomment4>Den internasjonale finalen i GÃ–teborg. Konferansier: Lill Lindfors. Norsk kommentar VeslemÃ¸y Kjendsli. Ã…pningsvignett. Presentasjon GÃ–teborg. Ekstr. Scandinavium. Lill LINDFORS synger "My house is built of music". Orkesterleder Curt-Eric HOLMQUIST. Den fÃ¸rste MGP-vinneren, Lys ASSIA fra Sveits i salen. 1) Irland. "Wait until the weekend comes". Sang: Maria CHRISTIAN. Komponist: Brendan GRAHAM. Dirigent: Noel KELEHAN. 2) Finland. "ElÃ¤kÃ¶Ã¶n elÃ¤mÃ¤". S: Sonja LUMME. K/T: Petri LAAKSONEN / Veli-Pekka LEHTO. D: Ossi RUNNE. 3) Kypros. "To katalava arga". S/K/T: Lia VISSI. D: Charis ANDDREADIS. 4) Danmark. "Sku' du spÃ¶r' fra noen". S: Hot Eyes. K/T: SÃ¸ren BUNDGAARD / Keld HEICK. D: Wolfgang KÃ„FER. 5) Spania. "La fiesta termino". S: Paloma San BASILIO. K/T/D: Juan-Carlos CALDERON. 6) Frankrike. "Femme dans ses reves aussi". S: Roger BENS. K/T: Didier PASCALIS. D: Michel BERNHOLE. 7) Tyrkia. "Didai didai dai". S: Gruppen MFO:, ogsÃ¥ K/T: Fuat GÃœNER, Ã¶zkan UGUR, Mazhar ALANSON. D: Garo MAFYAN. 8) Belgia. "Laat me nu gaan". S: Linda LEPOMME. K/T: Pieter VERLINDEN, Bert VIVIER. D: Curt-Eric HOLMQUIST. 9) Portugal. "Penso em ti, eu sei". S: ADELAIDE. K/T: Toze BRITO / Adelaide FERREIRA / Luis FERNANDO. D: Jose CALVARIO. 10) Vest-Tyskland. "FÃ¼r alle". S: WIND. K/T: Hanne HALLER. D: Rainer PIETSCH. 11) Israel. "Ole, ole". S: Yizhar COHEN. K/D: Kobi OSHRAT. 12) Italia. "Magic, oh magic". S: Al BANO, Romina POWER. K: Dario FARINA, Michael HOFMAN. D: Fiorenzo ZANOTTI. 13) Norge. "La det swinge". S: Bobbysocks ( Elizabeth ANDREASSON / Hanne KROGH ). K/T: Rolf LÃ˜VLAND. D: Terje FJÃ†RN. 14) Storbritannia. "Love is". S: Vikki WATSON. K/T: James KALETH / Vikki WATSON. D: John COLEMAN. 15) Sveits. "Piano, piano". S: Mariella FARRE, Pino CASPARINI. K/T: Anita KERR / Trudi MÃœLLER-BOSSHARD. D: Anita KERR. 16) Sverige. "Bra vibrationer". S: Kikki DANIELSSON. K/T: Lasse HOLM / Ingela FORSMAN. D: Curt-Eric HOLMQUIST. 17) Ã˜sterrike. "Kinder dieser Welt". S: Gary LUX. K/T: Mick JACKSON, Geoff BASTOW / Michael KUNZE. D: Richard OESTERREICHER. 18) Luxembourg. "Children, Kinder, enfants". S: MARGO / F. OLIVIER / C. ROBERTS / M. ROBERTS / I. SHEER / D. SOLOMON. K/T: Ralph SIEGEL / Jean- Michelk BERIAT, Bernd MEINUNGER. D: Norbert DAUM. 19) Hellas. "Miazoume". S: Takis BINIARIS. K/T: Takis BINIARIS / Maro BIZANI. D: Charis ANDREADIS.. Gruppen Guitars Unlimited ( Peter ALMQUIST, Ulf WAKENIUS ) spiller. Lill LINDFORS "mister" underdelen pÃ¥ kjolen. Kveldens overdommer Frank NEFF. Stemmegivning. Ellevill stemning bak scenen, Norge og BOBBYSOCKS vinner! FjorÃ¥rets vinner, gruppen Herreys kÃ¥rer Ã¥rets vinner. Rolf LÃ˜VLAND, tekst og melodi, fram pÃ¥ scenen. Deretter Hanne KROGH og Elisabeth ANDREASSON fremfÃ¸rer vinnermelodien "La det swinge". (Publikumsglimt Lisbeth Larness RoÃ¥s og Hans Kristian RoÃ¥s)..</mastercomment4>
						<clipcommenta/>
						<clipcommentb>1:F-miks 2:F-miks.4x3 PAL.</clipcommentb>
					</comments>
					<file id="FUHA06001785 2">
						<name>FUHA06001785.mxf</name>
						<pathurl>file://localhost/omfs/clip.dir/MXF/576i/FUHA06001785.mxf</pathurl>
						<rate>
							<timebase>25</timebase>
						</rate>
						<duration>113650</duration>
						<timecode>
							<rate>
								<timebase>25</timebase>
							</rate>
							<string>22:30:38:00</string>
							<frame>2025950</frame>
							<displayformat>NDF</displayformat>
							<source>source</source>
						</timecode>
						<media>
							<video>
								<duration>113650</duration>
								<samplecharacteristics>
									<width>720</width>
									<height>576</height>
								</samplecharacteristics>
							</video>
							<audio>
								<rate>
									<timebase>48000</timebase>
								</rate>
								<trackcount>4</trackcount>
								<samplecharacteristics>
									<depth>24</depth>
								</samplecharacteristics>
							</audio>
						</media>
					</file>
					<filter>
						<effect>
							<name>Distort</name>
							<effectid>deformation</effectid>
							<effectcategory>motion</effectcategory>
							<effecttype>motion</effecttype>
							<mediatype>video</mediatype>
							<parameter>
								<parameterid>aspect</parameterid>
								<name>Aspect</name>
								<valuemin>-10000</valuemin>
								<valuemax>10000</valuemax>
								<value>-6.66667</value>
							</parameter>
						</effect>
					</filter>
					<filter>
						<effect>
							<name>Basic Motion</name>
							<effectid>basic</effectid>
							<effectcategory>motion</effectcategory>
							<effecttype>motion</effecttype>
							<mediatype>video</mediatype>
							<parameter>
								<parameterid>scale</parameterid>
								<name>Scale</name>
								<value>200</value>
							</parameter>
						</effect>
					</filter>
					<sourcetrack>
						<mediatype>video</mediatype>
					</sourcetrack>
					<fielddominance>upper</fielddominance>
				</clipitem>
				<clipitem id="msub200012-3011-k2d2-007 5">
					<name>msub200012-3011-k2d2-007</name>
					<duration>9650</duration>
					<rate>
						<ntsc>FALSE</ntsc>
						<timebase>25</timebase>
					</rate>
					<in>3076</in>
					<out>3150</out>
					<start>30158</start>
					<end>30232</end>
					<pixelaspectratio>Square</pixelaspectratio>
					<enabled>TRUE</enabled>
					<anamorphic>FALSE</anamorphic>
					<alphatype>none</alphatype>
					<masterclipid>msub200012-3011-k2d2-007 1</masterclipid>
					<syncoffset>0</syncoffset>
					<logginginfo>
						<description>msub200012-3011-k2d2-007</description>
						<scene/>
						<shottake/>
						<lognote/>
						<good>FALSE</good>
					</logginginfo>
					<labels>
						<label>Good Take</label>
						<label2/>
					</labels>
					<comments>
						<mastercomment1>RÃ…STOFF. BR_FINFREDAG_MSUA_OPRO</mastercomment1>
						<mastercomment2/>
						<mastercomment3/>
						<mastercomment4/>
						<clipcommenta/>
					</comments>
					<file id="msub200012-3011-k2d2-007 2"/>
					<sourcetrack>
						<mediatype>video</mediatype>
					</sourcetrack>
					<fielddominance>upper</fielddominance>
				</clipitem>
				<clipitem id="msub200012-3011-k1d2-008 5">
					<name>msub200012-3011-k1d2-008</name>
					<duration>9650</duration>
					<rate>
						<ntsc>FALSE</ntsc>
						<timebase>25</timebase>
					</rate>
					<in>3764</in>
					<out>3844</out>
					<start>30232</start>
					<end>30312</end>
					<pixelaspectratio>Square</pixelaspectratio>
					<enabled>TRUE</enabled>
					<anamorphic>FALSE</anamorphic>
					<alphatype>none</alphatype>
					<masterclipid>msub200012-3011-k1d2-008 1</masterclipid>
					<syncoffset>0</syncoffset>
					<logginginfo>
						<description>msub200012-3011-k1d2-008</description>
						<scene/>
						<shottake/>
						<lognote/>
						<good>FALSE</good>
					</logginginfo>
					<labels>
						<label>Good Take</label>
						<label2/>
					</labels>
					<comments>
						<mastercomment1>RÃ…STOFF. BR_FINFREDAG_MSUA_OPRO</mastercomment1>
						<mastercomment2/>
						<mastercomment3/>
						<mastercomment4/>
						<clipcommenta/>
					</comments>
					<file id="msub200012-3011-k1d2-008 2"/>
					<sourcetrack>
						<mediatype>video</mediatype>
					</sourcetrack>
					<fielddominance>upper</fielddominance>
				</clipitem>
				<clipitem id="msub200012-3011-k2d2-007 6">
					<name>msub200012-3011-k2d2-007</name>
					<duration>9650</duration>
					<rate>
						<ntsc>FALSE</ntsc>
						<timebase>25</timebase>
					</rate>
					<in>6038</in>
					<out>6082</out>
					<start>30312</start>
					<end>30356</end>
					<pixelaspectratio>Square</pixelaspectratio>
					<enabled>TRUE</enabled>
					<anamorphic>FALSE</anamorphic>
					<alphatype>none</alphatype>
					<masterclipid>msub200012-3011-k2d2-007 1</masterclipid>
					<syncoffset>0</syncoffset>
					<logginginfo>
						<description>msub200012-3011-k2d2-007</description>
						<scene/>
						<shottake/>
						<lognote/>
						<good>FALSE</good>
					</logginginfo>
					<labels>
						<label>Good Take</label>
						<label2/>
					</labels>
					<comments>
						<mastercomment1>RÃ…STOFF. BR_FINFREDAG_MSUA_OPRO</mastercomment1>
						<mastercomment2/>
						<mastercomment3/>
						<mastercomment4/>
						<clipcommenta/>
					</comments>
					<file id="msub200012-3011-k2d2-007 2"/>
					<sourcetrack>
						<mediatype>video</mediatype>
					</sourcetrack>
					<fielddominance>upper</fielddominance>
				</clipitem>
				<clipitem id="msub200012-3011-k1d2-008 6">
					<name>msub200012-3011-k1d2-008</name>
					<duration>9650</duration>
					<rate>
						<ntsc>FALSE</ntsc>
						<timebase>25</timebase>
					</rate>
					<in>6082</in>
					<out>6361</out>
					<start>30356</start>
					<end>30635</end>
					<pixelaspectratio>Square</pixelaspectratio>
					<anamorphic>FALSE</anamorphic>
					<alphatype>none</alphatype>
					<masterclipid>msub200012-3011-k1d2-008 1</masterclipid>
					<syncoffset>0</syncoffset>
					<logginginfo>
						<description>msub200012-3011-k1d2-008</description>
						<scene/>
						<shottake/>
						<lognote/>
						<good>FALSE</good>
					</logginginfo>
					<labels>
						<label>Good Take</label>
						<label2/>
					</labels>
					<comments>
						<mastercomment1>RÃ…STOFF. BR_FINFREDAG_MSUA_OPRO</mastercomment1>
						<mastercomment2/>
						<mastercomment3/>
						<mastercomment4/>
						<clipcommenta/>
					</comments>
					<file id="msub200012-3011-k1d2-008 2"/>
					<sourcetrack>
						<mediatype>video</mediatype>
					</sourcetrack>
					<fielddominance>upper</fielddominance>
				</clipitem>
				<clipitem id="msub200012-3011-k2d2-007 7">
					<name>msub200012-3011-k2d2-007</name>
					<duration>9650</duration>
					<rate>
						<ntsc>FALSE</ntsc>
						<timebase>25</timebase>
					</rate>
					<in>6361</in>
					<out>6454</out>
					<start>30635</start>
					<end>30728</end>
					<pixelaspectratio>Square</pixelaspectratio>
					<anamorphic>FALSE</anamorphic>
					<alphatype>none</alphatype>
					<masterclipid>msub200012-3011-k2d2-007 1</masterclipid>
					<syncoffset>0</syncoffset>
					<logginginfo>
						<description>msub200012-3011-k2d2-007</description>
						<scene/>
						<shottake/>
						<lognote/>
						<good>FALSE</good>
					</logginginfo>
					<labels>
						<label>Good Take</label>
						<label2/>
					</labels>
					<comments>
						<mastercomment1>RÃ…STOFF. BR_FINFREDAG_MSUA_OPRO</mastercomment1>
						<mastercomment2/>
						<mastercomment3/>
						<mastercomment4/>
						<clipcommenta/>
					</comments>
					<file id="msub200012-3011-k2d2-007 2"/>
					<sourcetrack>
						<mediatype>video</mediatype>
					</sourcetrack>
					<fielddominance>upper</fielddominance>
				</clipitem>
				<clipitem id="msub200012-3011-k1d2-008 7">
					<name>msub200012-3011-k1d2-008</name>
					<duration>9650</duration>
					<rate>
						<ntsc>FALSE</ntsc>
						<timebase>25</timebase>
					</rate>
					<in>6558</in>
					<out>6830</out>
					<start>30728</start>
					<end>31000</end>
					<pixelaspectratio>Square</pixelaspectratio>
					<anamorphic>FALSE</anamorphic>
					<alphatype>none</alphatype>
					<masterclipid>msub200012-3011-k1d2-008 1</masterclipid>
					<syncoffset>0</syncoffset>
					<logginginfo>
						<description>msub200012-3011-k1d2-008</description>
						<scene/>
						<shottake/>
						<lognote/>
						<good>FALSE</good>
					</logginginfo>
					<labels>
						<label>Good Take</label>
						<label2/>
					</labels>
					<comments>
						<mastercomment1>RÃ…STOFF. BR_FINFREDAG_MSUA_OPRO</mastercomment1>
						<mastercomment2/>
						<mastercomment3/>
						<mastercomment4/>
						<clipcommenta/>
					</comments>
					<file id="msub200012-3011-k1d2-008 2"/>
					<sourcetrack>
						<mediatype>video</mediatype>
					</sourcetrack>
					<fielddominance>upper</fielddominance>
				</clipitem>
				<clipitem id="msub200012-3011-k2d2-007 8">
					<name>msub200012-3011-k2d2-007</name>
					<duration>9650</duration>
					<rate>
						<ntsc>FALSE</ntsc>
						<timebase>25</timebase>
					</rate>
					<in>8989</in>
					<out>9080</out>
					<start>31000</start>
					<end>31091</end>
					<pixelaspectratio>Square</pixelaspectratio>
					<enabled>TRUE</enabled>
					<anamorphic>FALSE</anamorphic>
					<alphatype>none</alphatype>
					<masterclipid>msub200012-3011-k2d2-007 1</masterclipid>
					<syncoffset>0</syncoffset>
					<logginginfo>
						<description>msub200012-3011-k2d2-007</description>
						<scene/>
						<shottake/>
						<lognote/>
						<good>FALSE</good>
					</logginginfo>
					<labels>
						<label>Good Take</label>
						<label2/>
					</labels>
					<comments>
						<mastercomment1>RÃ…STOFF. BR_FINFREDAG_MSUA_OPRO</mastercomment1>
						<mastercomment2/>
						<mastercomment3/>
						<mastercomment4/>
						<clipcommenta/>
					</comments>
					<file id="msub200012-3011-k2d2-007 2"/>
					<sourcetrack>
						<mediatype>video</mediatype>
					</sourcetrack>
					<fielddominance>upper</fielddominance>
				</clipitem>
				<clipitem id="msub200012-3011-k1d2-008 8">
					<name>msub200012-3011-k1d2-008</name>
					<duration>9650</duration>
					<rate>
						<ntsc>FALSE</ntsc>
						<timebase>25</timebase>
					</rate>
					<in>9080</in>
					<out>9247</out>
					<start>31091</start>
					<end>31258</end>
					<pixelaspectratio>Square</pixelaspectratio>
					<enabled>TRUE</enabled>
					<anamorphic>FALSE</anamorphic>
					<alphatype>none</alphatype>
					<masterclipid>msub200012-3011-k1d2-008 1</masterclipid>
					<syncoffset>0</syncoffset>
					<logginginfo>
						<description>msub200012-3011-k1d2-008</description>
						<scene/>
						<shottake/>
						<lognote/>
						<good>FALSE</good>
					</logginginfo>
					<labels>
						<label>Good Take</label>
						<label2/>
					</labels>
					<comments>
						<mastercomment1>RÃ…STOFF. BR_FINFREDAG_MSUA_OPRO</mastercomment1>
						<mastercomment2/>
						<mastercomment3/>
						<mastercomment4/>
						<clipcommenta/>
					</comments>
					<file id="msub200012-3011-k1d2-008 2"/>
					<sourcetrack>
						<mediatype>video</mediatype>
					</sourcetrack>
					<fielddominance>upper</fielddominance>
				</clipitem>
				<clipitem id="msub200012-3011-k2d2-007 9">
					<name>msub200012-3011-k2d2-007</name>
					<duration>9650</duration>
					<rate>
						<ntsc>FALSE</ntsc>
						<timebase>25</timebase>
					</rate>
					<in>9247</in>
					<out>9304</out>
					<start>31258</start>
					<end>31315</end>
					<pixelaspectratio>Square</pixelaspectratio>
					<anamorphic>FALSE</anamorphic>
					<alphatype>none</alphatype>
					<masterclipid>msub200012-3011-k2d2-007 1</masterclipid>
					<syncoffset>0</syncoffset>
					<logginginfo>
						<description>msub200012-3011-k2d2-007</description>
						<scene/>
						<shottake/>
						<lognote/>
						<good>FALSE</good>
					</logginginfo>
					<labels>
						<label>Good Take</label>
						<label2/>
					</labels>
					<comments>
						<mastercomment1>RÃ…STOFF. BR_FINFREDAG_MSUA_OPRO</mastercomment1>
						<mastercomment2/>
						<mastercomment3/>
						<mastercomment4/>
						<clipcommenta/>
					</comments>
					<file id="msub200012-3011-k2d2-007 2"/>
					<sourcetrack>
						<mediatype>video</mediatype>
					</sourcetrack>
					<fielddominance>upper</fielddominance>
				</clipitem>
				<clipitem id="msub200012-3011-k1d2-010 ">
					<name>msub200012-3011-k1d2-010</name>
					<duration>719</duration>
					<rate>
						<ntsc>FALSE</ntsc>
						<timebase>25</timebase>
					</rate>
					<in>520</in>
					<out>610</out>
					<start>31315</start>
					<end>-1</end>
					<pixelaspectratio>Square</pixelaspectratio>
					<enabled>TRUE</enabled>
					<anamorphic>FALSE</anamorphic>
					<alphatype>none</alphatype>
					<masterclipid>msub200012-3011-k1d2-010 1</masterclipid>
					<logginginfo>
						<description>msub200012-3011-k1d2-010</description>
						<scene/>
						<shottake/>
						<lognote/>
						<good>FALSE</good>
					</logginginfo>
					<labels>
						<label2/>
					</labels>
					<comments>
						<mastercomment1>RÃ…STOFF. BR_FINFREDAG_MSUA_OPRO</mastercomment1>
						<mastercomment2/>
						<mastercomment3/>
						<mastercomment4/>
						<clipcommenta/>
					</comments>
					<file id="msub200012-3011-k1d2-010 2">
						<name>msub200012-3011-k1d2-010.mxf</name>
						<pathurl>file://localhost/omfs/clip.dir/MXF/1080i/msub200012-3011-k1d2-010.mxf</pathurl>
						<rate>
							<timebase>25</timebase>
						</rate>
						<duration>719</duration>
						<timecode>
							<rate>
								<timebase>25</timebase>
							</rate>
							<string>02:02:09:22</string>
							<frame>183247</frame>
							<displayformat>NDF</displayformat>
							<source>source</source>
						</timecode>
						<media>
							<video>
								<duration>719</duration>
								<samplecharacteristics>
									<width>1920</width>
									<height>1080</height>
								</samplecharacteristics>
							</video>
							<audio>
								<rate>
									<timebase>48000</timebase>
								</rate>
								<trackcount>1</trackcount>
								<samplecharacteristics>
									<depth>24</depth>
								</samplecharacteristics>
							</audio>
						</media>
					</file>
					<sourcetrack>
						<mediatype>video</mediatype>
					</sourcetrack>
					<link>
						<linkclipref>msub200012-3011-k1d2-010 </linkclipref>
						<mediatype>video</mediatype>
						<trackindex>1</trackindex>
						<clipindex>135</clipindex>
					</link>
					<link>
						<linkclipref>msub200012-3011-k1d2-010 3</linkclipref>
						<mediatype>audio</mediatype>
						<trackindex>1</trackindex>
						<clipindex>123</clipindex>
					</link>
					<link>
						<linkclipref>msub200012-3011-k1d2-010 4</linkclipref>
						<mediatype>audio</mediatype>
						<trackindex>2</trackindex>
						<clipindex>133</clipindex>
					</link>
					<fielddominance>upper</fielddominance>
				</clipitem>
				<transitionitem id="66544540 ">
					<rate>
						<ntsc>FALSE</ntsc>
						<timebase>25</timebase>
					</rate>
					<start>31393</start>
					<end>31405</end>
					<alignment>center</alignment>
					<effect>
						<name>Push Slide</name>
						<effectid>Push Slide</effectid>
						<effectcategory>Slide</effectcategory>
						<effecttype>transition</effecttype>
						<mediatype>video</mediatype>
						<wipecode>1</wipecode>
						<wipeaccuracy>100</wipeaccuracy>
						<startratio>0</startratio>
						<endratio>1</endratio>
						<reverse>FALSE</reverse>
						<parameter>
							<parameterid>angleofpush</parameterid>
							<name>Angle</name>
							<valuemin>-360</valuemin>
							<valuemax>360</valuemax>
							<value>180</value>
						</parameter>
						<parameter>
							<parameterid>borderwidth</parameterid>
							<name>Border</name>
							<valuemin>0</valuemin>
							<valuemax>10</valuemax>
							<value>0</value>
						</parameter>
						<parameter>
							<parameterid>bordercolor</parameterid>
							<name>Color</name>
							<value>
								<alpha>255</alpha>
								<red>0</red>
								<green>0</green>
								<blue>0</blue>
							</value>
						</parameter>
					</effect>
				</transitionitem>
				<clipitem id="msub200012-3011-k1d2-011 ">
					<name>msub200012-3011-k1d2-011</name>
					<duration>1378</duration>
					<rate>
						<ntsc>FALSE</ntsc>
						<timebase>25</timebase>
					</rate>
					<in>913</in>
					<out>1286</out>
					<start>-1</start>
					<end>31766</end>
					<pixelaspectratio>Square</pixelaspectratio>
					<enabled>TRUE</enabled>
					<anamorphic>FALSE</anamorphic>
					<alphatype>none</alphatype>
					<masterclipid>msub200012-3011-k1d2-011 1</masterclipid>
					<logginginfo>
						<description>msub200012-3011-k1d2-011</description>
						<scene/>
						<shottake/>
						<lognote/>
						<good>FALSE</good>
					</logginginfo>
					<labels>
						<label2/>
					</labels>
					<comments>
						<mastercomment1>RÃ…STOFF. BR_FINFREDAG_MSUA_OPRO</mastercomment1>
						<mastercomment2/>
						<mastercomment3/>
						<mastercomment4/>
						<clipcommenta/>
					</comments>
					<file id="msub200012-3011-k1d2-011 2">
						<name>msub200012-3011-k1d2-011.mxf</name>
						<pathurl>file://localhost/omfs/clip.dir/MXF/1080i/msub200012-3011-k1d2-011.mxf</pathurl>
						<rate>
							<timebase>25</timebase>
						</rate>
						<duration>1378</duration>
						<timecode>
							<rate>
								<timebase>25</timebase>
							</rate>
							<string>02:02:38:16</string>
							<frame>183966</frame>
							<displayformat>NDF</displayformat>
							<source>source</source>
						</timecode>
						<media>
							<video>
								<duration>1378</duration>
								<samplecharacteristics>
									<width>1920</width>
									<height>1080</height>
								</samplecharacteristics>
							</video>
							<audio>
								<rate>
									<timebase>48000</timebase>
								</rate>
								<trackcount>1</trackcount>
								<samplecharacteristics>
									<depth>24</depth>
								</samplecharacteristics>
							</audio>
						</media>
					</file>
					<sourcetrack>
						<mediatype>video</mediatype>
					</sourcetrack>
					<link>
						<linkclipref>msub200012-3011-k1d2-011 </linkclipref>
						<mediatype>video</mediatype>
						<trackindex>1</trackindex>
						<clipindex>137</clipindex>
					</link>
					<link>
						<linkclipref>msub200012-3011-k1d2-011 3</linkclipref>
						<mediatype>audio</mediatype>
						<trackindex>1</trackindex>
						<clipindex>125</clipindex>
					</link>
					<link>
						<linkclipref>msub200012-3011-k1d2-011 4</linkclipref>
						<mediatype>audio</mediatype>
						<trackindex>2</trackindex>
						<clipindex>135</clipindex>
					</link>
					<fielddominance>upper</fielddominance>
				</clipitem>
				<clipitem id="KristineVSRoekla-TEST.png">
					<name>KristineVSRoekla-TEST.png</name>
					<duration>3026</duration>
					<rate>
						<ntsc>FALSE</ntsc>
						<timebase>25</timebase>
					</rate>
					<in>1500</in>
					<out>1678</out>
					<start>31766</start>
					<end>31944</end>
					<pixelaspectratio>Square</pixelaspectratio>
					<stillframe>TRUE</stillframe>
					<enabled>TRUE</enabled>
					<anamorphic>FALSE</anamorphic>
					<alphatype>none</alphatype>
					<masterclipid>KristineVSRoekla-TEST.png1</masterclipid>
					<logginginfo>
						<scene/>
						<shottake/>
						<lognote/>
						<good>FALSE</good>
					</logginginfo>
					<labels>
						<label2/>
					</labels>
					<comments>
						<mastercomment1/>
						<mastercomment2/>
						<mastercomment3/>
						<mastercomment4/>
					</comments>
					<file id="KristineVSRoekla-Bakgrunn">
						<name>KristineVSRoekla-Bakgrunn.png</name>
						<pathurl>file://localhost/SuperSAN1/Prosjekter/MSUB20000012%20FIN%20FREDAG/FCP-PROSJEKTER,%20sesong%202/program%201%20Jenny/Vignette-Kristine_VS_Roekla-2013/01MASTER-KvsR-2013/Faste_Elementer/KristineVSRoekla-Bakgrunn.png</pathurl>
						<rate>
							<timebase>25</timebase>
						</rate>
						<duration>2</duration>
						<width>1920</width>
						<height>1080</height>
						<media>
							<video>
								<duration>2</duration>
								<stillframe>TRUE</stillframe>
								<samplecharacteristics>
									<width>1920</width>
									<height>1080</height>
								</samplecharacteristics>
							</video>
						</media>
					</file>
					<sourcetrack>
						<mediatype>video</mediatype>
					</sourcetrack>
					<fielddominance>none</fielddominance>
				</clipitem>
				<clipitem id="KristineVSRoekla-TEST.png2">
					<name>KristineVSRoekla-TEST.png</name>
					<duration>3026</duration>
					<rate>
						<ntsc>FALSE</ntsc>
						<timebase>25</timebase>
					</rate>
					<in>1693</in>
					<out>1829</out>
					<start>31944</start>
					<end>32080</end>
					<pixelaspectratio>Square</pixelaspectratio>
					<stillframe>TRUE</stillframe>
					<enabled>TRUE</enabled>
					<anamorphic>FALSE</anamorphic>
					<alphatype>none</alphatype>
					<masterclipid>KristineVSRoekla-TEST.png1</masterclipid>
					<logginginfo>
						<scene/>
						<shottake/>
						<lognote/>
						<good>FALSE</good>
					</logginginfo>
					<labels>
						<label2/>
					</labels>
					<comments>
						<mastercomment1/>
						<mastercomment2/>
						<mastercomment3/>
						<mastercomment4/>
					</comments>
					<file id="KristineVSRoekla-Bakgrunn"/>
					<filter>
						<enabled>TRUE</enabled>
						<start>-1</start>
						<end>-1</end>
						<effect>
							<name>Tint</name>
							<effecttype>filter</effecttype>
							<mediatype>video</mediatype>
							<parameter>
								<parameterid>input_1</parameterid>
								<name>Color</name>
								<value>
									<alpha>255</alpha>
									<red>102</red>
									<green>204</green>
									<blue>255</blue>
								</value>
							</parameter>
							<parameter>
								<parameterid>input_2</parameterid>
								<name>Intensity</name>
								<valuemin>0</valuemin>
								<valuemax>1</valuemax>
								<value>0.454545</value>
							</parameter>
							<parameter>
								<parameterid>FCP_FilterMix</parameterid>
								<name>Mix</name>
								<valuemin>0</valuemin>
								<valuemax>100</valuemax>
								<value>100</value>
							</parameter>
						</effect>
					</filter>
					<sourcetrack>
						<mediatype>video</mediatype>
					</sourcetrack>
					<fielddominance>none</fielddominance>
				</clipitem>
				<clipitem id="KristineVSRoekla-TEST.png3">
					<name>KristineVSRoekla-TEST.png</name>
					<duration>3026</duration>
					<rate>
						<ntsc>FALSE</ntsc>
						<timebase>25</timebase>
					</rate>
					<in>1696</in>
					<out>1829</out>
					<start>34488</start>
					<end>34621</end>
					<pixelaspectratio>Square</pixelaspectratio>
					<stillframe>TRUE</stillframe>
					<enabled>TRUE</enabled>
					<anamorphic>FALSE</anamorphic>
					<alphatype>none</alphatype>
					<masterclipid>KristineVSRoekla-TEST.png1</masterclipid>
					<logginginfo>
						<scene/>
						<shottake/>
						<lognote/>
						<good>FALSE</good>
					</logginginfo>
					<labels>
						<label2/>
					</labels>
					<comments>
						<mastercomment1/>
						<mastercomment2/>
						<mastercomment3/>
						<mastercomment4/>
					</comments>
					<file id="KristineVSRoekla-Bakgrunn"/>
					<filter>
						<effect>
							<name>Basic Motion</name>
							<effectid>basic</effectid>
							<effectcategory>motion</effectcategory>
							<effecttype>motion</effecttype>
							<mediatype>video</mediatype>
							<parameter>
								<parameterid>scale</parameterid>
								<name>Scale</name>
								<valuemin>0</valuemin>
								<valuemax>1000</valuemax>
								<value>138</value>
							</parameter>
							<parameter>
								<parameterid>rotation</parameterid>
								<name>Rotation</name>
								<valuemin>-8640</valuemin>
								<valuemax>8640</valuemax>
								<value>0</value>
							</parameter>
							<parameter>
								<parameterid>center</parameterid>
								<name>Center</name>
								<value>
									<horiz>0</horiz>
									<vert>0.0627615</vert>
								</value>
							</parameter>
							<parameter>
								<parameterid>centerOffset</parameterid>
								<name>Anchor Point</name>
								<value>
									<horiz>0</horiz>
									<vert>0</vert>
								</value>
							</parameter>
						</effect>
					</filter>
					<filter>
						<enabled>FALSE</enabled>
						<effect>
							<name>Drop Shadow</name>
							<effectid>dropshadow</effectid>
							<effectcategory>motion</effectcategory>
							<effecttype>motion</effecttype>
							<mediatype>video</mediatype>
							<parameter>
								<parameterid>offset</parameterid>
								<name>offset</name>
								<valuemin>-100</valuemin>
								<valuemax>100</valuemax>
								<value>2</value>
							</parameter>
							<parameter>
								<parameterid>angle</parameterid>
								<name>angle</name>
								<valuemin>-720</valuemin>
								<valuemax>720</valuemax>
								<value>135</value>
							</parameter>
							<parameter>
								<parameterid>color</parameterid>
								<name>color</name>
								<value>
									<alpha>0</alpha>
									<red>0</red>
									<green>0</green>
									<blue>0</blue>
								</value>
							</parameter>
							<parameter>
								<parameterid>softness</parameterid>
								<name>softness</name>
								<valuemin>0</valuemin>
								<valuemax>100</valuemax>
								<value>10</value>
							</parameter>
							<parameter>
								<parameterid>opacity</parameterid>
								<name>opacity</name>
								<valuemin>0</valuemin>
								<valuemax>100</valuemax>
								<value>50</value>
							</parameter>
						</effect>
					</filter>
					<filter>
						<enabled>FALSE</enabled>
						<effect>
							<name>Motion Blur</name>
							<effectid>motionblur</effectid>
							<effectcategory>motion</effectcategory>
							<effecttype>motion</effecttype>
							<mediatype>video</mediatype>
							<parameter>
								<parameterid>duration</parameterid>
								<name>% Blur</name>
								<valuemin>0</valuemin>
								<valuemax>1000</valuemax>
								<value>500</value>
							</parameter>
							<parameter>
								<parameterid>samples</parameterid>
								<name>Samples</name>
								<valuemin>1</valuemin>
								<valuemax>16</valuemax>
								<value>4</value>
							</parameter>
						</effect>
					</filter>
					<filter>
						<effect>
							<name>Crop</name>
							<effectid>crop</effectid>
							<effectcategory>motion</effectcategory>
							<effecttype>motion</effecttype>
							<mediatype>video</mediatype>
							<parameter>
								<parameterid>left</parameterid>
								<name>left</name>
								<valuemin>0</valuemin>
								<valuemax>100</valuemax>
								<value>0</value>
							</parameter>
							<parameter>
								<parameterid>right</parameterid>
								<name>right</name>
								<valuemin>0</valuemin>
								<valuemax>100</valuemax>
								<value>0</value>
							</parameter>
							<parameter>
								<parameterid>top</parameterid>
								<name>top</name>
								<valuemin>0</valuemin>
								<valuemax>100</valuemax>
								<value>0</value>
							</parameter>
							<parameter>
								<parameterid>bottom</parameterid>
								<name>bottom</name>
								<valuemin>0</valuemin>
								<valuemax>100</valuemax>
								<value>0</value>
							</parameter>
							<parameter>
								<parameterid>edgefeather</parameterid>
								<name>edgefeather</name>
								<valuemin>0</valuemin>
								<valuemax>100</valuemax>
								<value>0</value>
							</parameter>
						</effect>
					</filter>
					<filter>
						<effect>
							<name>Distort</name>
							<effectid>deformation</effectid>
							<effectcategory>motion</effectcategory>
							<effecttype>motion</effecttype>
							<mediatype>video</mediatype>
							<parameter>
								<parameterid>ulcorner</parameterid>
								<name>Upper Left</name>
								<value>
									<horiz>-0.5</horiz>
									<vert>-0.5</vert>
								</value>
							</parameter>
							<parameter>
								<parameterid>urcorner</parameterid>
								<name>Upper Right</name>
								<value>
									<horiz>0.5</horiz>
									<vert>-0.5</vert>
								</value>
							</parameter>
							<parameter>
								<parameterid>lrcorner</parameterid>
								<name>Lower Right</name>
								<value>
									<horiz>0.5</horiz>
									<vert>0.5</vert>
								</value>
							</parameter>
							<parameter>
								<parameterid>llcorner</parameterid>
								<name>Lower Left</name>
								<value>
									<horiz>-0.5</horiz>
									<vert>0.5</vert>
								</value>
							</parameter>
							<parameter>
								<parameterid>aspect</parameterid>
								<name>Aspect</name>
								<valuemin>-10000</valuemin>
								<valuemax>10000</valuemax>
								<value>0</value>
							</parameter>
						</effect>
					</filter>
					<filter>
						<effect>
							<name>Opacity</name>
							<effectid>opacity</effectid>
							<effectcategory>motion</effectcategory>
							<effecttype>motion</effecttype>
							<mediatype>video</mediatype>
							<parameter>
								<parameterid>opacity</parameterid>
								<name>opacity</name>
								<valuemin>0</valuemin>
								<valuemax>100</valuemax>
								<value>100</value>
							</parameter>
						</effect>
					</filter>
					<sourcetrack>
						<mediatype>video</mediatype>
					</sourcetrack>
					<fielddominance>none</fielddominance>
				</clipitem>
				<clipitem id="msub200012-3011-k2d3-006 ">
					<name>msub200012-3011-k2d3-006</name>
					<duration>1497</duration>
					<rate>
						<ntsc>FALSE</ntsc>
						<timebase>25</timebase>
					</rate>
					<in>694</in>
					<out>736</out>
					<start>34989</start>
					<end>35031</end>
					<pixelaspectratio>Square</pixelaspectratio>
					<enabled>TRUE</enabled>
					<anamorphic>FALSE</anamorphic>
					<alphatype>none</alphatype>
					<masterclipid>msub200012-3011-k2d3-006 1</masterclipid>
					<syncoffset>0</syncoffset>
					<logginginfo>
						<description>msub200012-3011-k2d3-006</description>
						<scene/>
						<shottake/>
						<lognote/>
						<good>FALSE</good>
					</logginginfo>
					<labels>
						<label>B Roll</label>
						<label2/>
					</labels>
					<comments>
						<mastercomment1>RÃ…STOFF. BR_FINFREDAG_MSUA_OPRO</mastercomment1>
						<mastercomment2/>
						<mastercomment3/>
						<mastercomment4/>
						<clipcommenta/>
					</comments>
					<file id="msub200012-3011-k2d3-006 2">
						<name>msub200012-3011-k2d3-006.mxf</name>
						<pathurl>file://localhost/omfs/clip.dir/MXF/1080i/msub200012-3011-k2d3-006.mxf</pathurl>
						<rate>
							<timebase>25</timebase>
						</rate>
						<duration>1497</duration>
						<timecode>
							<rate>
								<timebase>25</timebase>
							</rate>
							<string>01:54:18:13</string>
							<frame>171463</frame>
							<displayformat>NDF</displayformat>
							<source>source</source>
						</timecode>
						<media>
							<video>
								<duration>1497</duration>
								<samplecharacteristics>
									<width>1920</width>
									<height>1080</height>
								</samplecharacteristics>
							</video>
							<audio>
								<rate>
									<timebase>48000</timebase>
								</rate>
								<trackcount>1</trackcount>
								<samplecharacteristics>
									<depth>24</depth>
								</samplecharacteristics>
							</audio>
						</media>
					</file>
					<sourcetrack>
						<mediatype>video</mediatype>
					</sourcetrack>
					<link>
						<linkclipref>msub200012-3011-k2d3-006 </linkclipref>
						<mediatype>video</mediatype>
						<trackindex>1</trackindex>
						<clipindex>141</clipindex>
					</link>
					<link>
						<linkclipref>msub200012-3011-k1d3-003 </linkclipref>
						<mediatype>audio</mediatype>
						<trackindex>1</trackindex>
						<clipindex>158</clipindex>
					</link>
					<link>
						<linkclipref>msub200012-3011-k1d3-003 1</linkclipref>
						<mediatype>audio</mediatype>
						<trackindex>2</trackindex>
						<clipindex>145</clipindex>
					</link>
					<fielddominance>upper</fielddominance>
				</clipitem>
				<clipitem id="msub200012-3011-k1d3-003 2">
					<name>msub200012-3011-k1d3-003</name>
					<duration>1497</duration>
					<rate>
						<ntsc>FALSE</ntsc>
						<timebase>25</timebase>
					</rate>
					<in>736</in>
					<out>1391</out>
					<start>35031</start>
					<end>35686</end>
					<pixelaspectratio>Square</pixelaspectratio>
					<enabled>TRUE</enabled>
					<anamorphic>FALSE</anamorphic>
					<alphatype>none</alphatype>
					<masterclipid>msub200012-3011-k1d3-003 3</masterclipid>
					<syncoffset>0</syncoffset>
					<logginginfo>
						<description>msub200012-3011-k1d3-003</description>
						<scene/>
						<shottake/>
						<lognote/>
						<good>FALSE</good>
					</logginginfo>
					<labels>
						<label>B Roll</label>
						<label2/>
					</labels>
					<comments>
						<mastercomment1>RÃ…STOFF. BR_FINFREDAG_MSUA_OPRO</mastercomment1>
						<mastercomment2/>
						<mastercomment3/>
						<mastercomment4/>
						<clipcommenta/>
					</comments>
					<file id="msub200012-3011-k1d3-003 4">
						<name>msub200012-3011-k1d3-003.mxf</name>
						<pathurl>file://localhost/omfs/clip.dir/MXF/1080i/msub200012-3011-k1d3-003.mxf</pathurl>
						<rate>
							<timebase>25</timebase>
						</rate>
						<duration>1302</duration>
						<timecode>
							<rate>
								<timebase>25</timebase>
							</rate>
							<string>02:09:30:21</string>
							<frame>194271</frame>
							<displayformat>NDF</displayformat>
							<source>source</source>
						</timecode>
						<media>
							<video>
								<duration>1302</duration>
								<samplecharacteristics>
									<width>1920</width>
									<height>1080</height>
								</samplecharacteristics>
							</video>
							<audio>
								<rate>
									<timebase>48000</timebase>
								</rate>
								<trackcount>1</trackcount>
								<samplecharacteristics>
									<depth>24</depth>
								</samplecharacteristics>
							</audio>
						</media>
					</file>
					<sourcetrack>
						<mediatype>video</mediatype>
					</sourcetrack>
					<fielddominance>upper</fielddominance>
				</clipitem>
				<enabled>TRUE</enabled>
				<locked>FALSE</locked>
			</track>
			<track>
				<clipitem id="Naerum_0004 ">
					<name>Naerum_0004</name>
					<duration>3026</duration>
					<rate>
						<ntsc>FALSE</ntsc>
						<timebase>25</timebase>
					</rate>
					<in>1500</in>
					<out>1756</out>
					<start>910</start>
					<end>-1</end>
					<pixelaspectratio>Square</pixelaspectratio>
					<stillframe>TRUE</stillframe>
					<enabled>TRUE</enabled>
					<anamorphic>FALSE</anamorphic>
					<alphatype>none</alphatype>
					<masterclipid>Naerum_0004 1</masterclipid>
					<logginginfo>
						<scene/>
						<shottake/>
						<lognote/>
						<good>FALSE</good>
					</logginginfo>
					<labels>
						<label2/>
					</labels>
					<comments>
						<mastercomment1/>
						<mastercomment2/>
						<mastercomment3/>
						<mastercomment4/>
					</comments>
					<file id="Naerum_0004 2">
						<name>Naerum_0004.jpg</name>
						<pathurl>file://localhost/Volumes/Prosjekter_SuperSAN1-1/MSUB20000012%20FIN%20FREDAG/FCP-PROSJEKTER,%20sesong%202/program%201%20Jenny/Ukas_fjortis_Naerum/40_Graphics/fra%20anne%20wisl%C3%B8ff/Naerum_0004.jpg</pathurl>
						<rate>
							<timebase>25</timebase>
						</rate>
						<duration>2</duration>
						<width>2128</width>
						<height>3264</height>
						<media>
							<video>
								<duration>2</duration>
								<stillframe>TRUE</stillframe>
								<samplecharacteristics>
									<width>2128</width>
									<height>3264</height>
								</samplecharacteristics>
							</video>
						</media>
					</file>
					<filter>
						<effect>
							<name>Basic Motion</name>
							<effectid>basic</effectid>
							<effectcategory>motion</effectcategory>
							<effecttype>motion</effecttype>
							<mediatype>video</mediatype>
							<parameter>
								<parameterid>scale</parameterid>
								<name>Scale</name>
								<valuemin>0</valuemin>
								<valuemax>1000</valuemax>
								<keyframe>
									<when>1500</when>
									<value>80</value>
								</keyframe>
								<keyframe>
									<when>1776</when>
									<value>86</value>
									<inscale>0</inscale>
									<inbez>
										<horiz>69</horiz>
										<vert>-3.14159</vert>
									</inbez>
								</keyframe>
								<interpolation>
									<name>FCPCurve</name>
								</interpolation>
								<value>86</value>
							</parameter>
							<parameter>
								<parameterid>rotation</parameterid>
								<name>Rotation</name>
								<valuemin>-8640</valuemin>
								<valuemax>8640</valuemax>
								<value>0</value>
							</parameter>
							<parameter>
								<parameterid>center</parameterid>
								<name>Center</name>
								<keyframe>
									<when>1500</when>
									<value>
										<horiz>0</horiz>
										<vert>-0.198616</vert>
									</value>
								</keyframe>
								<keyframe>
									<when>1720</when>
									<value>
										<horiz>0</horiz>
										<vert>-0.0276817</vert>
									</value>
								</keyframe>
								<interpolation>
									<name>FCPCurve</name>
								</interpolation>
							</parameter>
							<parameter>
								<parameterid>centerOffset</parameterid>
								<name>Anchor Point</name>
								<value>
									<horiz>0</horiz>
									<vert>0</vert>
								</value>
							</parameter>
						</effect>
					</filter>
					<filter>
						<enabled>FALSE</enabled>
						<effect>
							<name>Drop Shadow</name>
							<effectid>dropshadow</effectid>
							<effectcategory>motion</effectcategory>
							<effecttype>motion</effecttype>
							<mediatype>video</mediatype>
							<parameter>
								<parameterid>offset</parameterid>
								<name>offset</name>
								<valuemin>-100</valuemin>
								<valuemax>100</valuemax>
								<value>2</value>
							</parameter>
							<parameter>
								<parameterid>angle</parameterid>
								<name>angle</name>
								<valuemin>-720</valuemin>
								<valuemax>720</valuemax>
								<value>135</value>
							</parameter>
							<parameter>
								<parameterid>color</parameterid>
								<name>color</name>
								<value>
									<alpha>0</alpha>
									<red>0</red>
									<green>0</green>
									<blue>0</blue>
								</value>
							</parameter>
							<parameter>
								<parameterid>softness</parameterid>
								<name>softness</name>
								<valuemin>0</valuemin>
								<valuemax>100</valuemax>
								<value>10</value>
							</parameter>
							<parameter>
								<parameterid>opacity</parameterid>
								<name>opacity</name>
								<valuemin>0</valuemin>
								<valuemax>100</valuemax>
								<value>50</value>
							</parameter>
						</effect>
					</filter>
					<filter>
						<enabled>FALSE</enabled>
						<effect>
							<name>Motion Blur</name>
							<effectid>motionblur</effectid>
							<effectcategory>motion</effectcategory>
							<effecttype>motion</effecttype>
							<mediatype>video</mediatype>
							<parameter>
								<parameterid>duration</parameterid>
								<name>% Blur</name>
								<valuemin>0</valuemin>
								<valuemax>1000</valuemax>
								<value>500</value>
							</parameter>
							<parameter>
								<parameterid>samples</parameterid>
								<name>Samples</name>
								<valuemin>1</valuemin>
								<valuemax>16</valuemax>
								<value>4</value>
							</parameter>
						</effect>
					</filter>
					<filter>
						<effect>
							<name>Crop</name>
							<effectid>crop</effectid>
							<effectcategory>motion</effectcategory>
							<effecttype>motion</effecttype>
							<mediatype>video</mediatype>
							<parameter>
								<parameterid>left</parameterid>
								<name>left</name>
								<valuemin>0</valuemin>
								<valuemax>100</valuemax>
								<value>0</value>
							</parameter>
							<parameter>
								<parameterid>right</parameterid>
								<name>right</name>
								<valuemin>0</valuemin>
								<valuemax>100</valuemax>
								<value>0</value>
							</parameter>
							<parameter>
								<parameterid>top</parameterid>
								<name>top</name>
								<valuemin>0</valuemin>
								<valuemax>100</valuemax>
								<value>0</value>
							</parameter>
							<parameter>
								<parameterid>bottom</parameterid>
								<name>bottom</name>
								<valuemin>0</valuemin>
								<valuemax>100</valuemax>
								<value>0</value>
							</parameter>
							<parameter>
								<parameterid>edgefeather</parameterid>
								<name>edgefeather</name>
								<valuemin>0</valuemin>
								<valuemax>100</valuemax>
								<value>0</value>
							</parameter>
						</effect>
					</filter>
					<filter>
						<effect>
							<name>Distort</name>
							<effectid>deformation</effectid>
							<effectcategory>motion</effectcategory>
							<effecttype>motion</effecttype>
							<mediatype>video</mediatype>
							<parameter>
								<parameterid>ulcorner</parameterid>
								<name>Upper Left</name>
								<value>
									<horiz>-0.5</horiz>
									<vert>-0.5</vert>
								</value>
							</parameter>
							<parameter>
								<parameterid>urcorner</parameterid>
								<name>Upper Right</name>
								<value>
									<horiz>0.5</horiz>
									<vert>-0.5</vert>
								</value>
							</parameter>
							<parameter>
								<parameterid>lrcorner</parameterid>
								<name>Lower Right</name>
								<value>
									<horiz>0.5</horiz>
									<vert>0.5</vert>
								</value>
							</parameter>
							<parameter>
								<parameterid>llcorner</parameterid>
								<name>Lower Left</name>
								<value>
									<horiz>-0.5</horiz>
									<vert>0.5</vert>
								</value>
							</parameter>
							<parameter>
								<parameterid>aspect</parameterid>
								<name>Aspect</name>
								<valuemin>-10000</valuemin>
								<valuemax>10000</valuemax>
								<value>0</value>
							</parameter>
						</effect>
					</filter>
					<filter>
						<effect>
							<name>Opacity</name>
							<effectid>opacity</effectid>
							<effectcategory>motion</effectcategory>
							<effecttype>motion</effecttype>
							<mediatype>video</mediatype>
							<parameter>
								<parameterid>opacity</parameterid>
								<name>opacity</name>
								<valuemin>0</valuemin>
								<valuemax>100</valuemax>
								<value>100</value>
							</parameter>
						</effect>
					</filter>
					<sourcetrack>
						<mediatype>video</mediatype>
					</sourcetrack>
					<fielddominance>none</fielddominance>
				</clipitem>
				<transitionitem id="66675000 ">
					<rate>
						<ntsc>FALSE</ntsc>
						<timebase>25</timebase>
					</rate>
					<start>1158</start>
					<end>1166</end>
					<alignment>center</alignment>
					<effect>
						<name>Push Slide Copy</name>
						<effectid>Push Slide</effectid>
						<effectcategory>Slide</effectcategory>
						<effecttype>transition</effecttype>
						<mediatype>video</mediatype>
						<wipecode>1</wipecode>
						<wipeaccuracy>100</wipeaccuracy>
						<startratio>0</startratio>
						<endratio>1</endratio>
						<reverse>FALSE</reverse>
						<parameter>
							<parameterid>angleofpush</parameterid>
							<name>Angle</name>
							<valuemin>-360</valuemin>
							<valuemax>360</valuemax>
							<value>90</value>
						</parameter>
						<parameter>
							<parameterid>borderwidth</parameterid>
							<name>Border</name>
							<valuemin>0</valuemin>
							<valuemax>10</valuemax>
							<value>0</value>
						</parameter>
						<parameter>
							<parameterid>bordercolor</parameterid>
							<name>Color</name>
							<value>
								<alpha>255</alpha>
								<red>0</red>
								<green>0</green>
								<blue>0</blue>
							</value>
						</parameter>
					</effect>
				</transitionitem>
				<clipitem id="msub200012-3011-k2d3-005 ">
					<name>msub200012-3011-k2d3-005</name>
					<duration>8740</duration>
					<rate>
						<ntsc>FALSE</ntsc>
						<timebase>25</timebase>
					</rate>
					<in>3362</in>
					<out>3397</out>
					<start>-1</start>
					<end>1193</end>
					<pixelaspectratio>Square</pixelaspectratio>
					<enabled>TRUE</enabled>
					<anamorphic>FALSE</anamorphic>
					<alphatype>none</alphatype>
					<masterclipid>msub200012-3011-k2d3-005 1</masterclipid>
					<syncoffset>0</syncoffset>
					<logginginfo>
						<description>msub200012-3011-k2d3-005</description>
						<scene/>
						<shottake/>
						<lognote/>
						<good>FALSE</good>
					</logginginfo>
					<labels>
						<label>Good Take</label>
						<label2/>
					</labels>
					<comments>
						<mastercomment1>RÃ…STOFF. BR_FINFREDAG_MSUA_OPRO</mastercomment1>
						<mastercomment2/>
						<mastercomment3/>
						<mastercomment4/>
						<clipcommenta/>
					</comments>
					<file id="msub200012-3011-k2d3-005 2">
						<name>msub200012-3011-k2d3-005.mxf</name>
						<pathurl>file://localhost/omfs/clip.dir/MXF/1080i/msub200012-3011-k2d3-005.mxf</pathurl>
						<rate>
							<timebase>25</timebase>
						</rate>
						<duration>8453</duration>
						<timecode>
							<rate>
								<timebase>25</timebase>
							</rate>
							<string>01:48:40:10</string>
							<frame>163010</frame>
							<displayformat>NDF</displayformat>
							<source>source</source>
						</timecode>
						<media>
							<video>
								<duration>8453</duration>
								<samplecharacteristics>
									<width>1920</width>
									<height>1080</height>
								</samplecharacteristics>
							</video>
							<audio>
								<rate>
									<timebase>48000</timebase>
								</rate>
								<trackcount>1</trackcount>
								<samplecharacteristics>
									<depth>24</depth>
								</samplecharacteristics>
							</audio>
						</media>
					</file>
					<sourcetrack>
						<mediatype>video</mediatype>
					</sourcetrack>
					<fielddominance>upper</fielddominance>
				</clipitem>
				<clipitem id="msub200012-3011-k1d3-002 ">
					<name>msub200012-3011-k1d3-002</name>
					<duration>8740</duration>
					<rate>
						<ntsc>FALSE</ntsc>
						<timebase>25</timebase>
					</rate>
					<in>3393</in>
					<out>3435</out>
					<start>1193</start>
					<end>1235</end>
					<pixelaspectratio>Square</pixelaspectratio>
					<enabled>TRUE</enabled>
					<anamorphic>FALSE</anamorphic>
					<alphatype>none</alphatype>
					<masterclipid>msub200012-3011-k1d3-002 1</masterclipid>
					<syncoffset>0</syncoffset>
					<logginginfo>
						<description>msub200012-3011-k1d3-002</description>
						<scene/>
						<shottake/>
						<lognote/>
						<good>FALSE</good>
					</logginginfo>
					<labels>
						<label>Good Take</label>
						<label2/>
					</labels>
					<comments>
						<mastercomment1>RÃ…STOFF. BR_FINFREDAG_MSUA_OPRO</mastercomment1>
						<mastercomment2/>
						<mastercomment3/>
						<mastercomment4/>
						<clipcommenta/>
					</comments>
					<file id="msub200012-3011-k1d3-002 2">
						<name>msub200012-3011-k1d3-002.mxf</name>
						<pathurl>file://localhost/omfs/clip.dir/MXF/1080i/msub200012-3011-k1d3-002.mxf</pathurl>
						<rate>
							<timebase>25</timebase>
						</rate>
						<duration>8683</duration>
						<timecode>
							<rate>
								<timebase>25</timebase>
							</rate>
							<string>02:03:43:13</string>
							<frame>185588</frame>
							<displayformat>NDF</displayformat>
							<source>source</source>
						</timecode>
						<media>
							<video>
								<duration>8683</duration>
								<samplecharacteristics>
									<width>1920</width>
									<height>1080</height>
								</samplecharacteristics>
							</video>
							<audio>
								<rate>
									<timebase>48000</timebase>
								</rate>
								<trackcount>1</trackcount>
								<samplecharacteristics>
									<depth>24</depth>
								</samplecharacteristics>
							</audio>
						</media>
					</file>
					<sourcetrack>
						<mediatype>video</mediatype>
					</sourcetrack>
					<fielddominance>upper</fielddominance>
				</clipitem>
				<clipitem id="msub200012-3011-k2d3-005 3">
					<name>msub200012-3011-k2d3-005</name>
					<duration>8740</duration>
					<rate>
						<ntsc>FALSE</ntsc>
						<timebase>25</timebase>
					</rate>
					<in>1998</in>
					<out>2018</out>
					<start>1235</start>
					<end>1255</end>
					<pixelaspectratio>Square</pixelaspectratio>
					<enabled>TRUE</enabled>
					<anamorphic>FALSE</anamorphic>
					<alphatype>none</alphatype>
					<masterclipid>msub200012-3011-k2d3-005 1</masterclipid>
					<syncoffset>0</syncoffset>
					<logginginfo>
						<description>msub200012-3011-k2d3-005</description>
						<scene/>
						<shottake/>
						<lognote/>
						<good>FALSE</good>
					</logginginfo>
					<labels>
						<label>Good Take</label>
						<label2/>
					</labels>
					<comments>
						<mastercomment1>RÃ…STOFF. BR_FINFREDAG_MSUA_OPRO</mastercomment1>
						<mastercomment2/>
						<mastercomment3/>
						<mastercomment4/>
						<clipcommenta/>
					</comments>
					<file id="msub200012-3011-k2d3-005 2"/>
					<sourcetrack>
						<mediatype>video</mediatype>
					</sourcetrack>
					<fielddominance>upper</fielddominance>
				</clipitem>
				<clipitem id="msub200012-3011-k1d3-002 3">
					<name>msub200012-3011-k1d3-002</name>
					<duration>8740</duration>
					<rate>
						<ntsc>FALSE</ntsc>
						<timebase>25</timebase>
					</rate>
					<in>2013</in>
					<out>2075</out>
					<start>1255</start>
					<end>1317</end>
					<pixelaspectratio>Square</pixelaspectratio>
					<enabled>TRUE</enabled>
					<anamorphic>FALSE</anamorphic>
					<alphatype>none</alphatype>
					<masterclipid>msub200012-3011-k1d3-002 1</masterclipid>
					<syncoffset>0</syncoffset>
					<logginginfo>
						<description>msub200012-3011-k1d3-002</description>
						<scene/>
						<shottake/>
						<lognote/>
						<good>FALSE</good>
					</logginginfo>
					<labels>
						<label>Good Take</label>
						<label2/>
					</labels>
					<comments>
						<mastercomment1>RÃ…STOFF. BR_FINFREDAG_MSUA_OPRO</mastercomment1>
						<mastercomment2/>
						<mastercomment3/>
						<mastercomment4/>
						<clipcommenta/>
					</comments>
					<file id="msub200012-3011-k1d3-002 2"/>
					<sourcetrack>
						<mediatype>video</mediatype>
					</sourcetrack>
					<fielddominance>upper</fielddominance>
				</clipitem>
				<clipitem id="msub200012-3011-k2d1-003 4">
					<name>msub200012-3011-k2d1-003</name>
					<duration>2155</duration>
					<rate>
						<ntsc>FALSE</ntsc>
						<timebase>25</timebase>
					</rate>
					<in>1844</in>
					<out>2016</out>
					<start>2364</start>
					<end>-1</end>
					<pixelaspectratio>Square</pixelaspectratio>
					<enabled>TRUE</enabled>
					<anamorphic>FALSE</anamorphic>
					<alphatype>none</alphatype>
					<masterclipid>msub200012-3011-k2d1-003 1</masterclipid>
					<syncoffset>0</syncoffset>
					<logginginfo>
						<description>msub200012-3011-k2d1-003</description>
						<scene/>
						<shottake/>
						<lognote/>
						<good>FALSE</good>
					</logginginfo>
					<labels>
						<label>Good Take</label>
						<label2/>
					</labels>
					<comments>
						<mastercomment1>RÃ…STOFF. BR_FINFREDAG_MSUA_OPRO</mastercomment1>
						<mastercomment2/>
						<mastercomment3/>
						<mastercomment4/>
						<clipcommenta/>
					</comments>
					<file id="msub200012-3011-k2d1-003 2"/>
					<sourcetrack>
						<mediatype>video</mediatype>
					</sourcetrack>
					<fielddominance>upper</fielddominance>
				</clipitem>
				<transitionitem id="66685948 ">
					<rate>
						<ntsc>FALSE</ntsc>
						<timebase>25</timebase>
					</rate>
					<start>2526</start>
					<end>2536</end>
					<alignment>center</alignment>
					<effect>
						<name>Push Slide</name>
						<effectid>Push Slide</effectid>
						<effectcategory>Slide</effectcategory>
						<effecttype>transition</effecttype>
						<mediatype>video</mediatype>
						<wipecode>1</wipecode>
						<wipeaccuracy>100</wipeaccuracy>
						<startratio>0</startratio>
						<endratio>1</endratio>
						<reverse>FALSE</reverse>
						<parameter>
							<parameterid>angleofpush</parameterid>
							<name>Angle</name>
							<valuemin>-360</valuemin>
							<valuemax>360</valuemax>
							<value>180</value>
						</parameter>
						<parameter>
							<parameterid>borderwidth</parameterid>
							<name>Border</name>
							<valuemin>0</valuemin>
							<valuemax>10</valuemax>
							<value>0</value>
						</parameter>
						<parameter>
							<parameterid>bordercolor</parameterid>
							<name>Color</name>
							<value>
								<alpha>255</alpha>
								<red>0</red>
								<green>0</green>
								<blue>0</blue>
							</value>
						</parameter>
					</effect>
				</transitionitem>
				<transitionitem id="66686832 ">
					<rate>
						<ntsc>FALSE</ntsc>
						<timebase>25</timebase>
					</rate>
					<start>3672</start>
					<end>3684</end>
					<alignment>start-black</alignment>
					<effect>
						<name>Cross Dissolve</name>
						<effectid>Cross Dissolve</effectid>
						<effectcategory>Dissolve</effectcategory>
						<effecttype>transition</effecttype>
						<mediatype>video</mediatype>
						<wipecode>0</wipecode>
						<wipeaccuracy>100</wipeaccuracy>
						<startratio>0</startratio>
						<endratio>1</endratio>
						<reverse>FALSE</reverse>
					</effect>
				</transitionitem>
				<clipitem id="msub200012-3011-k1d1-024 ">
					<name>msub200012-3011-k1d1-024</name>
					<duration>1915</duration>
					<rate>
						<ntsc>FALSE</ntsc>
						<timebase>25</timebase>
					</rate>
					<in>1638</in>
					<out>1733</out>
					<start>-1</start>
					<end>3767</end>
					<pixelaspectratio>Square</pixelaspectratio>
					<enabled>TRUE</enabled>
					<anamorphic>FALSE</anamorphic>
					<alphatype>none</alphatype>
					<masterclipid>msub200012-3011-k1d1-024 1</masterclipid>
					<logginginfo>
						<description>msub200012-3011-k1d1-024</description>
						<scene/>
						<shottake/>
						<lognote/>
						<good>FALSE</good>
					</logginginfo>
					<labels>
						<label2/>
					</labels>
					<comments>
						<mastercomment1>RÃ…STOFF. BR_FINFREDAG_MSUA_OPRO</mastercomment1>
						<mastercomment2/>
						<mastercomment3/>
						<mastercomment4/>
						<clipcommenta/>
					</comments>
					<file id="msub200012-3011-k1d1-024 2">
						<name>msub200012-3011-k1d1-024.mxf</name>
						<pathurl>file://localhost/omfs/clip.dir/MXF/1080i/msub200012-3011-k1d1-024.mxf</pathurl>
						<rate>
							<timebase>25</timebase>
						</rate>
						<duration>1440</duration>
						<timecode>
							<rate>
								<timebase>25</timebase>
							</rate>
							<string>01:20:11:20</string>
							<frame>120295</frame>
							<displayformat>NDF</displayformat>
							<source>source</source>
						</timecode>
						<media>
							<video>
								<duration>1440</duration>
								<samplecharacteristics>
									<width>1920</width>
									<height>1080</height>
								</samplecharacteristics>
							</video>
							<audio>
								<rate>
									<timebase>48000</timebase>
								</rate>
								<trackcount>1</trackcount>
								<samplecharacteristics>
									<depth>24</depth>
								</samplecharacteristics>
							</audio>
						</media>
					</file>
					<sourcetrack>
						<mediatype>video</mediatype>
					</sourcetrack>
					<fielddominance>upper</fielddominance>
					<filter>
						<effect>
							<name>Time Remap</name>
							<effectid>timeremap</effectid>
							<effectcategory>motion</effectcategory>
							<effecttype>motion</effecttype>
							<mediatype>video</mediatype>
							<parameter>
								<parameterid>variablespeed</parameterid>
								<name>variablespeed</name>
								<valuemin>0</valuemin>
								<valuemax>1</valuemax>
								<value>0</value>
							</parameter>
							<parameter>
								<parameterid>mappedduration</parameterid>
								<name>mappedduration</name>
								<value>
									<timecode>
										<rate>
											<timebase>0</timebase>
										</rate>
										<string>0</string>
										<frame>0</frame>
										<displayformat>NDF</displayformat>
									</timecode>
								</value>
							</parameter>
							<parameter>
								<parameterid>speed</parameterid>
								<name>speed</name>
								<valuemin>-10000</valuemin>
								<valuemax>10000</valuemax>
								<value>75</value>
							</parameter>
							<parameter>
								<parameterid>reverse</parameterid>
								<name>reverse</name>
								<value>FALSE</value>
							</parameter>
							<parameter>
								<parameterid>frameblending</parameterid>
								<name>frameblending</name>
								<value>TRUE</value>
							</parameter>
							<parameter>
								<parameterid>graphdict</parameterid>
								<name>graphdict</name>
								<valuemin>0</valuemin>
								<valuemax>1439</valuemax>
								<keyframe>
									<when>0</when>
									<value>0.5413</value>
									<speedkfstart>TRUE</speedkfstart>
									<speedvirtualkf>TRUE</speedvirtualkf>
								</keyframe>
								<keyframe>
									<when>1638</when>
									<value>1232.04</value>
									<speedkfin>TRUE</speedkfin>
									<speedvirtualkf>TRUE</speedvirtualkf>
								</keyframe>
								<keyframe>
									<when>1733</when>
									<value>1303.46</value>
									<speedkfout>TRUE</speedkfout>
									<speedvirtualkf>TRUE</speedvirtualkf>
								</keyframe>
								<keyframe>
									<when>1915</when>
									<value>1440.54</value>
									<speedkfend>TRUE</speedkfend>
									<speedvirtualkf>TRUE</speedvirtualkf>
								</keyframe>
								<interpolation>
									<name>FCPCurve</name>
								</interpolation>
								<value>1232.04</value>
							</parameter>
						</effect>
					</filter>
				</clipitem>
				<clipitem id="msub200012-3011-k1d1-013 3">
					<name>msub200012-3011-k1d1-013</name>
					<duration>1292</duration>
					<rate>
						<ntsc>FALSE</ntsc>
						<timebase>25</timebase>
					</rate>
					<in>226</in>
					<out>285</out>
					<start>4553</start>
					<end>4612</end>
					<pixelaspectratio>Square</pixelaspectratio>
					<enabled>TRUE</enabled>
					<anamorphic>FALSE</anamorphic>
					<alphatype>none</alphatype>
					<masterclipid>msub200012-3011-k1d1-013 1</masterclipid>
					<logginginfo>
						<description>msub200012-3011-k1d1-013</description>
						<scene/>
						<shottake/>
						<lognote/>
						<good>FALSE</good>
					</logginginfo>
					<labels>
						<label2/>
					</labels>
					<comments>
						<mastercomment1>RÃ…STOFF. BR_FINFREDAG_MSUA_OPRO</mastercomment1>
						<mastercomment2/>
						<mastercomment3/>
						<mastercomment4/>
						<clipcommenta/>
					</comments>
					<file id="msub200012-3011-k1d1-013 2"/>
					<sourcetrack>
						<mediatype>video</mediatype>
					</sourcetrack>
					<fielddominance>upper</fielddominance>
				</clipitem>
				<clipitem id="KOIF43001507AA3">
					<name>KOIF43001507AA</name>
					<duration>131201</duration>
					<rate>
						<ntsc>FALSE</ntsc>
						<timebase>25</timebase>
					</rate>
					<in>112927</in>
					<out>113310</out>
					<start>10582</start>
					<end>10965</end>
					<pixelaspectratio>PAL-601</pixelaspectratio>
					<enabled>TRUE</enabled>
					<anamorphic>TRUE</anamorphic>
					<alphatype>none</alphatype>
					<masterclipid>KOIF43001507AA1</masterclipid>
					<logginginfo>
						<description>Jakten pÃ¥ nyresteinen</description>
						<scene/>
						<shottake/>
						<lognote/>
						<good>FALSE</good>
					</logginginfo>
					<labels>
						<label2/>
					</labels>
					<comments>
						<mastercomment1>ARKIVSTOFF. BR_FINFREDAG_MSUA_OPRO</mastercomment1>
						<mastercomment2>. Filmkameratene AS. </mastercomment2>
						<mastercomment3>Sendt: 1999-12-20. FILMKAMERATENE; Norge.</mastercomment3>
						<mastercomment4>Norsk spillefilm fra 1996. Bestefar har smerter, men Ã¥tteÃ¥rige Simen vet rÃ¥d. Han tryller seg liten og klatrer inn i bestefars kropp for Ã¥ finne ut hva som er i veien ... Regi: Vibeke IdsÃ¸e. Manus: Vibeke IdsÃ¸e. Musikk: Ragnar Bjerkreim. I rollene: Fru Galle ................ Kjersti HOLMEN (mv) Galle Junior ............. Lage FOSHEIM (mv) Sekr??t Service agent ..... Morten M. FALDAAS (mv) StemmebÃ¥ndsoperatÃ¸ren .... Sigve BÃ˜E (mv) TÃ¥retankoperatÃ¸rene ...... Harald EIA (mv), Gard EIDSVOLD (mv) A. Pendixrud ............. BjÃ¸rn JENSEG (mv) Hvitt punkerblodlegeme ... Jan "Devo" KORNSTAD (mv) / Jan KORNSTAD (mv) Hjerteharpen ............. Tone HULBÃ†KMO (mv) HjernesentraloperatÃ¸ren .. Leif DUBARD (mv) RÃ¸de kjÃ¦rlighetsvakter ... Herborg KRÃ…KEVIK (mv), Helen VIKSTVEDT (mv) Bestefar ................. Terje STRÃ˜MDAHL (mv) Bestemor ................. CÃ¦cilie NORDBY (mv) Bamsens stemme ........... Toralv Maurstad Ã˜vrige medvirkende: Tina HARTVIG (mv), Tinken LAURANTZON (mv), Ã˜ystein SELENIUS (mv), Adolf E. BJERKE (mv), Rune HEKKELSTRAND (mv), Rikke SANDLI (mv), Unn SANDVIG (mv), Celine SAASTAD (mv), Anne STRAY (mv), Arild SÃ˜GAARD (mv), Ruth GURHOLT (mv), Kjetil OLSEN (mv), Ine SANDVIG (mv), Aslaug GUTTORMSGÃ…RD (mv), Kjersti Borchgrevink MAAGERÃ˜ (mv), Kiran SHAH (mv), Camilla HARTVIG (mv), Raymond WIIK (mv).</mastercomment4>
						<clipcommenta/>
						<clipcommentb>1:F-mix venstre 2:F-mix hÃ¸yre 3:-- 4:--.4x3 PAL.</clipcommentb>
					</comments>
					<file id="KOIF43001507AA2"/>
					<filter>
						<effect>
							<name>Distort</name>
							<effectid>deformation</effectid>
							<effectcategory>motion</effectcategory>
							<effecttype>motion</effecttype>
							<mediatype>video</mediatype>
							<parameter>
								<parameterid>aspect</parameterid>
								<name>Aspect</name>
								<valuemin>-10000</valuemin>
								<valuemax>10000</valuemax>
								<value>-42.2222</value>
							</parameter>
						</effect>
					</filter>
					<filter>
						<effect>
							<name>Basic Motion</name>
							<effectid>basic</effectid>
							<effectcategory>motion</effectcategory>
							<effecttype>motion</effecttype>
							<mediatype>video</mediatype>
							<parameter>
								<parameterid>scale</parameterid>
								<name>Scale</name>
								<value>266.667</value>
							</parameter>
						</effect>
					</filter>
					<sourcetrack>
						<mediatype>video</mediatype>
					</sourcetrack>
					<link>
						<linkclipref>KOIF43001507AA3</linkclipref>
						<mediatype>video</mediatype>
						<trackindex>2</trackindex>
						<clipindex>12</clipindex>
					</link>
					<link>
						<linkclipref>KOIF43001507AA4</linkclipref>
						<mediatype>audio</mediatype>
						<trackindex>3</trackindex>
						<clipindex>13</clipindex>
					</link>
					<link>
						<linkclipref>KOIF43001507AA5</linkclipref>
						<mediatype>audio</mediatype>
						<trackindex>4</trackindex>
						<clipindex>16</clipindex>
					</link>
					<fielddominance>upper</fielddominance>
				</clipitem>
				<clipitem id="Ukas Fjortis, bare Knut">
					<name>Ukas Fjortis, bare Knut</name>
					<duration>4041</duration>
					<rate>
						<ntsc>FALSE</ntsc>
						<timebase>25</timebase>
					</rate>
					<in>0</in>
					<out>4041</out>
					<start>11182</start>
					<end>15223</end>
					<labels>
						<label>Best Take</label>
					</labels>
					<sequence id="Ukas Fjortis, bare Knut1">
						<name>Ukas Fjortis, bare Knut</name>
						<duration>4041</duration>
						<rate>
							<ntsc>FALSE</ntsc>
							<timebase>25</timebase>
						</rate>
						<timecode>
							<rate>
								<ntsc>FALSE</ntsc>
								<timebase>25</timebase>
							</rate>
							<string>00:00:00:00</string>
							<frame>0</frame>
							<source>source</source>
							<displayformat>NDF</displayformat>
						</timecode>
						<in>-1</in>
						<out>-1</out>
						<media>
							<video>
								<format>
									<samplecharacteristics>
										<width>1920</width>
										<height>1080</height>
										<anamorphic>FALSE</anamorphic>
										<pixelaspectratio>Square</pixelaspectratio>
										<fielddominance>upper</fielddominance>
										<rate>
											<ntsc>FALSE</ntsc>
											<timebase>25</timebase>
										</rate>
										<colordepth>24</colordepth>
										<codec>
											<name>Apple XDCAM 422 1080i50 (50 Mb/s CBR)</name>
											<appspecificdata>
												<appname>Final Cut Pro</appname>
												<appmanufacturer>Apple Inc.</appmanufacturer>
												<appversion>7.0</appversion>
												<data>
													<qtcodec>
														<codecname>Apple XDCAM 422 1080i50 (50 Mb/s CBR)</codecname>
														<codectypename>XDCAM 422 1080i50 (50 Mb/s CBR)</codectypename>
														<codectypecode>xd5c</codectypecode>
														<codecvendorcode>appl</codecvendorcode>
														<spatialquality>1023</spatialquality>
														<temporalquality>0</temporalquality>
														<keyframerate>0</keyframerate>
														<datarate>0</datarate>
													</qtcodec>
												</data>
											</appspecificdata>
										</codec>
									</samplecharacteristics>
									<appspecificdata>
										<appname>Final Cut Pro</appname>
										<appmanufacturer>Apple Inc.</appmanufacturer>
										<appversion>7.0</appversion>
										<data>
											<fcpimageprocessing>
												<useyuv>TRUE</useyuv>
												<usesuperwhite>FALSE</usesuperwhite>
												<rendermode>YUV8BPP</rendermode>
											</fcpimageprocessing>
										</data>
									</appspecificdata>
								</format>
								<track>
									<clipitem id="msub200012-2511-001 ">
										<name>msub200012-2511-001</name>
										<duration>27694</duration>
										<rate>
											<ntsc>FALSE</ntsc>
											<timebase>25</timebase>
										</rate>
										<in>257</in>
										<out>432</out>
										<start>160</start>
										<end>-1</end>
										<pixelaspectratio>Square</pixelaspectratio>
										<enabled>TRUE</enabled>
										<anamorphic>FALSE</anamorphic>
										<alphatype>none</alphatype>
										<alphareverse>FALSE</alphareverse>
										<masterclipid>msub200012-2511-001 1</masterclipid>
										<logginginfo>
											<description>msub200012-2511-001</description>
											<scene/>
											<shottake/>
											<lognote/>
											<good>FALSE</good>
										</logginginfo>
										<labels>
											<label2/>
										</labels>
										<comments>
											<mastercomment1>RÃ…STOFF. BR_FINFREDAG_MSUA_OPRO</mastercomment1>
											<mastercomment2/>
											<mastercomment3/>
											<mastercomment4/>
											<clipcommenta/>
										</comments>
										<file id="msub200012-2511-001 2">
											<name>msub200012-2511-001.mxf</name>
											<pathurl>file://localhost/omfs/clip.dir/MXF/1080i/msub200012-2511-001.mxf</pathurl>
											<rate>
												<timebase>25</timebase>
											</rate>
											<duration>27694</duration>
											<timecode>
												<rate>
													<timebase>25</timebase>
												</rate>
												<string>01:00:00:00</string>
												<frame>90000</frame>
												<displayformat>NDF</displayformat>
												<source>source</source>
											</timecode>
											<media>
												<video>
													<duration>27694</duration>
													<samplecharacteristics>
														<width>1920</width>
														<height>1080</height>
													</samplecharacteristics>
												</video>
												<audio>
													<rate>
														<timebase>48000</timebase>
													</rate>
													<trackcount>1</trackcount>
													<samplecharacteristics>
														<depth>24</depth>
													</samplecharacteristics>
												</audio>
											</media>
										</file>
										<filter>
											<effect>
												<name>Basic Motion</name>
												<effectid>basic</effectid>
												<effectcategory>motion</effectcategory>
												<effecttype>motion</effecttype>
												<mediatype>video</mediatype>
												<parameter>
													<parameterid>scale</parameterid>
													<name>Scale</name>
													<valuemin>0</valuemin>
													<valuemax>1000</valuemax>
													<value>100</value>
												</parameter>
												<parameter>
													<parameterid>rotation</parameterid>
													<name>Rotation</name>
													<valuemin>-8640</valuemin>
													<valuemax>8640</valuemax>
													<value>0</value>
												</parameter>
												<parameter>
													<parameterid>center</parameterid>
													<name>Center</name>
													<value>
														<horiz>0</horiz>
														<vert>0</vert>
													</value>
												</parameter>
												<parameter>
													<parameterid>centerOffset</parameterid>
													<name>Anchor Point</name>
													<value>
														<horiz>0</horiz>
														<vert>0</vert>
													</value>
												</parameter>
											</effect>
										</filter>
										<filter>
											<enabled>FALSE</enabled>
											<effect>
												<name>Drop Shadow</name>
												<effectid>dropshadow</effectid>
												<effectcategory>motion</effectcategory>
												<effecttype>motion</effecttype>
												<mediatype>video</mediatype>
												<parameter>
													<parameterid>offset</parameterid>
													<name>offset</name>
													<valuemin>-100</valuemin>
													<valuemax>100</valuemax>
													<value>2</value>
												</parameter>
												<parameter>
													<parameterid>angle</parameterid>
													<name>angle</name>
													<valuemin>-720</valuemin>
													<valuemax>720</valuemax>
													<value>135</value>
												</parameter>
												<parameter>
													<parameterid>color</parameterid>
													<name>color</name>
													<value>
														<alpha>0</alpha>
														<red>0</red>
														<green>0</green>
														<blue>0</blue>
													</value>
												</parameter>
												<parameter>
													<parameterid>softness</parameterid>
													<name>softness</name>
													<valuemin>0</valuemin>
													<valuemax>100</valuemax>
													<value>10</value>
												</parameter>
												<parameter>
													<parameterid>opacity</parameterid>
													<name>opacity</name>
													<valuemin>0</valuemin>
													<valuemax>100</valuemax>
													<value>50</value>
												</parameter>
											</effect>
										</filter>
										<filter>
											<enabled>FALSE</enabled>
											<effect>
												<name>Motion Blur</name>
												<effectid>motionblur</effectid>
												<effectcategory>motion</effectcategory>
												<effecttype>motion</effecttype>
												<mediatype>video</mediatype>
												<parameter>
													<parameterid>duration</parameterid>
													<name>% Blur</name>
													<valuemin>0</valuemin>
													<valuemax>1000</valuemax>
													<value>500</value>
												</parameter>
												<parameter>
													<parameterid>samples</parameterid>
													<name>Samples</name>
													<valuemin>1</valuemin>
													<valuemax>16</valuemax>
													<value>4</value>
												</parameter>
											</effect>
										</filter>
										<filter>
											<effect>
												<name>Crop</name>
												<effectid>crop</effectid>
												<effectcategory>motion</effectcategory>
												<effecttype>motion</effecttype>
												<mediatype>video</mediatype>
												<parameter>
													<parameterid>left</parameterid>
													<name>left</name>
													<valuemin>0</valuemin>
													<valuemax>100</valuemax>
													<value>0</value>
												</parameter>
												<parameter>
													<parameterid>right</parameterid>
													<name>right</name>
													<valuemin>0</valuemin>
													<valuemax>100</valuemax>
													<value>0</value>
												</parameter>
												<parameter>
													<parameterid>top</parameterid>
													<name>top</name>
													<valuemin>0</valuemin>
													<valuemax>100</valuemax>
													<value>0</value>
												</parameter>
												<parameter>
													<parameterid>bottom</parameterid>
													<name>bottom</name>
													<valuemin>0</valuemin>
													<valuemax>100</valuemax>
													<value>0</value>
												</parameter>
												<parameter>
													<parameterid>edgefeather</parameterid>
													<name>edgefeather</name>
													<valuemin>0</valuemin>
													<valuemax>100</valuemax>
													<value>0</value>
												</parameter>
											</effect>
										</filter>
										<filter>
											<effect>
												<name>Distort</name>
												<effectid>deformation</effectid>
												<effectcategory>motion</effectcategory>
												<effecttype>motion</effecttype>
												<mediatype>video</mediatype>
												<parameter>
													<parameterid>ulcorner</parameterid>
													<name>Upper Left</name>
													<value>
														<horiz>-0.5</horiz>
														<vert>-0.5</vert>
													</value>
												</parameter>
												<parameter>
													<parameterid>urcorner</parameterid>
													<name>Upper Right</name>
													<value>
														<horiz>0.5</horiz>
														<vert>-0.5</vert>
													</value>
												</parameter>
												<parameter>
													<parameterid>lrcorner</parameterid>
													<name>Lower Right</name>
													<value>
														<horiz>0.5</horiz>
														<vert>0.5</vert>
													</value>
												</parameter>
												<parameter>
													<parameterid>llcorner</parameterid>
													<name>Lower Left</name>
													<value>
														<horiz>-0.5</horiz>
														<vert>0.5</vert>
													</value>
												</parameter>
												<parameter>
													<parameterid>aspect</parameterid>
													<name>Aspect</name>
													<valuemin>-10000</valuemin>
													<valuemax>10000</valuemax>
													<value>0</value>
												</parameter>
											</effect>
										</filter>
										<filter>
											<effect>
												<name>Opacity</name>
												<effectid>opacity</effectid>
												<effectcategory>motion</effectcategory>
												<effecttype>motion</effecttype>
												<mediatype>video</mediatype>
												<parameter>
													<parameterid>opacity</parameterid>
													<name>opacity</name>
													<valuemin>0</valuemin>
													<valuemax>100</valuemax>
													<value>100</value>
												</parameter>
											</effect>
										</filter>
										<sourcetrack>
											<mediatype>video</mediatype>
										</sourcetrack>
										<link>
											<linkclipref>msub200012-2511-001 </linkclipref>
											<mediatype>video</mediatype>
											<trackindex>1</trackindex>
											<clipindex>1</clipindex>
										</link>
										<link>
											<linkclipref>msub200012-2511-001 3</linkclipref>
											<mediatype>audio</mediatype>
											<trackindex>1</trackindex>
											<clipindex>1</clipindex>
										</link>
										<link>
											<linkclipref>msub200012-2511-001 4</linkclipref>
											<mediatype>audio</mediatype>
											<trackindex>2</trackindex>
											<clipindex>1</clipindex>
										</link>
										<fielddominance>upper</fielddominance>
									</clipitem>
									<transitionitem id="2">
										<rate>
											<ntsc>FALSE</ntsc>
											<timebase>25</timebase>
										</rate>
										<start>329</start>
										<end>335</end>
										<alignment>center</alignment>
										<effect>
											<name>Cross Dissolve</name>
											<effectid>Cross Dissolve</effectid>
											<effectcategory>Dissolve</effectcategory>
											<effecttype>transition</effecttype>
											<mediatype>video</mediatype>
											<wipecode>0</wipecode>
											<wipeaccuracy>100</wipeaccuracy>
											<startratio>0</startratio>
											<endratio>1</endratio>
											<reverse>FALSE</reverse>
										</effect>
									</transitionitem>
									<clipitem id="msub200012-2511-001 5">
										<name>msub200012-2511-001</name>
										<duration>27694</duration>
										<rate>
											<ntsc>FALSE</ntsc>
											<timebase>25</timebase>
										</rate>
										<in>1341</in>
										<out>1575</out>
										<start>-1</start>
										<end>563</end>
										<pixelaspectratio>Square</pixelaspectratio>
										<enabled>TRUE</enabled>
										<anamorphic>FALSE</anamorphic>
										<alphatype>none</alphatype>
										<alphareverse>FALSE</alphareverse>
										<masterclipid>msub200012-2511-001 1</masterclipid>
										<logginginfo>
											<description>msub200012-2511-001</description>
											<scene/>
											<shottake/>
											<lognote/>
											<good>FALSE</good>
										</logginginfo>
										<labels>
											<label2/>
										</labels>
										<comments>
											<mastercomment1>RÃ…STOFF. BR_FINFREDAG_MSUA_OPRO</mastercomment1>
											<mastercomment2/>
											<mastercomment3/>
											<mastercomment4/>
											<clipcommenta/>
										</comments>
										<file id="msub200012-2511-001 2"/>
										<filter>
											<effect>
												<name>Basic Motion</name>
												<effectid>basic</effectid>
												<effectcategory>motion</effectcategory>
												<effecttype>motion</effecttype>
												<mediatype>video</mediatype>
												<parameter>
													<parameterid>scale</parameterid>
													<name>Scale</name>
													<valuemin>0</valuemin>
													<valuemax>1000</valuemax>
													<value>100</value>
												</parameter>
												<parameter>
													<parameterid>rotation</parameterid>
													<name>Rotation</name>
													<valuemin>-8640</valuemin>
													<valuemax>8640</valuemax>
													<value>0</value>
												</parameter>
												<parameter>
													<parameterid>center</parameterid>
													<name>Center</name>
													<value>
														<horiz>0</horiz>
														<vert>0</vert>
													</value>
												</parameter>
												<parameter>
													<parameterid>centerOffset</parameterid>
													<name>Anchor Point</name>
													<value>
														<horiz>0</horiz>
														<vert>0</vert>
													</value>
												</parameter>
											</effect>
										</filter>
										<filter>
											<effect>
												<name>Crop</name>
												<effectid>crop</effectid>
												<effectcategory>motion</effectcategory>
												<effecttype>motion</effecttype>
												<mediatype>video</mediatype>
												<parameter>
													<parameterid>left</parameterid>
													<name>left</name>
													<valuemin>0</valuemin>
													<valuemax>100</valuemax>
													<value>0</value>
												</parameter>
												<parameter>
													<parameterid>right</parameterid>
													<name>right</name>
													<valuemin>0</valuemin>
													<valuemax>100</valuemax>
													<value>0</value>
												</parameter>
												<parameter>
													<parameterid>top</parameterid>
													<name>top</name>
													<valuemin>0</valuemin>
													<valuemax>100</valuemax>
													<value>0</value>
												</parameter>
												<parameter>
													<parameterid>bottom</parameterid>
													<name>bottom</name>
													<valuemin>0</valuemin>
													<valuemax>100</valuemax>
													<value>0</value>
												</parameter>
												<parameter>
													<parameterid>edgefeather</parameterid>
													<name>edgefeather</name>
													<valuemin>0</valuemin>
													<valuemax>100</valuemax>
													<value>0</value>
												</parameter>
											</effect>
										</filter>
										<filter>
											<effect>
												<name>Distort</name>
												<effectid>deformation</effectid>
												<effectcategory>motion</effectcategory>
												<effecttype>motion</effecttype>
												<mediatype>video</mediatype>
												<parameter>
													<parameterid>ulcorner</parameterid>
													<name>Upper Left</name>
													<value>
														<horiz>-0.5</horiz>
														<vert>-0.5</vert>
													</value>
												</parameter>
												<parameter>
													<parameterid>urcorner</parameterid>
													<name>Upper Right</name>
													<value>
														<horiz>0.5</horiz>
														<vert>-0.5</vert>
													</value>
												</parameter>
												<parameter>
													<parameterid>lrcorner</parameterid>
													<name>Lower Right</name>
													<value>
														<horiz>0.5</horiz>
														<vert>0.5</vert>
													</value>
												</parameter>
												<parameter>
													<parameterid>llcorner</parameterid>
													<name>Lower Left</name>
													<value>
														<horiz>-0.5</horiz>
														<vert>0.5</vert>
													</value>
												</parameter>
												<parameter>
													<parameterid>aspect</parameterid>
													<name>Aspect</name>
													<valuemin>-10000</valuemin>
													<valuemax>10000</valuemax>
													<value>0</value>
												</parameter>
											</effect>
										</filter>
										<sourcetrack>
											<mediatype>video</mediatype>
										</sourcetrack>
										<link>
											<linkclipref>msub200012-2511-001 5</linkclipref>
											<mediatype>video</mediatype>
											<trackindex>1</trackindex>
											<clipindex>3</clipindex>
										</link>
										<link>
											<linkclipref>msub200012-2511-001 6</linkclipref>
											<mediatype>audio</mediatype>
											<trackindex>1</trackindex>
											<clipindex>3</clipindex>
										</link>
										<link>
											<linkclipref>msub200012-2511-001 7</linkclipref>
											<mediatype>audio</mediatype>
											<trackindex>2</trackindex>
											<clipindex>3</clipindex>
										</link>
										<fielddominance>upper</fielddominance>
									</clipitem>
									<clipitem id="msub200012-2511-001 8">
										<name>msub200012-2511-001</name>
										<duration>230223</duration>
										<rate>
											<ntsc>FALSE</ntsc>
											<timebase>25</timebase>
										</rate>
										<in>31166</in>
										<out>31318</out>
										<start>563</start>
										<end>-1</end>
										<pixelaspectratio>Square</pixelaspectratio>
										<enabled>TRUE</enabled>
										<anamorphic>FALSE</anamorphic>
										<alphatype>none</alphatype>
										<alphareverse>FALSE</alphareverse>
										<masterclipid>msub200012-2511-001 1</masterclipid>
										<logginginfo>
											<description>msub200012-2511-001</description>
											<scene/>
											<shottake/>
											<lognote/>
											<good>FALSE</good>
										</logginginfo>
										<labels>
											<label2/>
										</labels>
										<comments>
											<mastercomment1>RÃ…STOFF. BR_FINFREDAG_MSUA_OPRO</mastercomment1>
											<mastercomment2/>
											<mastercomment3/>
											<mastercomment4/>
											<clipcommenta/>
										</comments>
										<file id="msub200012-2511-001 2"/>
										<sourcetrack>
											<mediatype>video</mediatype>
										</sourcetrack>
										<fielddominance>upper</fielddominance>
										<filter>
											<effect>
												<name>Time Remap</name>
												<effectid>timeremap</effectid>
												<effectcategory>motion</effectcategory>
												<effecttype>motion</effecttype>
												<mediatype>video</mediatype>
												<parameter>
													<parameterid>variablespeed</parameterid>
													<name>variablespeed</name>
													<valuemin>0</valuemin>
													<valuemax>1</valuemax>
													<value>0</value>
												</parameter>
												<parameter>
													<parameterid>mappedduration</parameterid>
													<name>mappedduration</name>
													<value>
														<timecode>
															<rate>
																<timebase>0</timebase>
															</rate>
															<string>0</string>
															<frame>0</frame>
															<displayformat>NDF</displayformat>
														</timecode>
													</value>
												</parameter>
												<parameter>
													<parameterid>speed</parameterid>
													<name>speed</name>
													<valuemin>-10000</valuemin>
													<valuemax>10000</valuemax>
													<value>12</value>
												</parameter>
												<parameter>
													<parameterid>reverse</parameterid>
													<name>reverse</name>
													<value>FALSE</value>
												</parameter>
												<parameter>
													<parameterid>frameblending</parameterid>
													<name>frameblending</name>
													<value>TRUE</value>
												</parameter>
												<parameter>
													<parameterid>graphdict</parameterid>
													<name>graphdict</name>
													<valuemin>0</valuemin>
													<valuemax>27693</valuemax>
													<keyframe>
														<when>0</when>
														<value>0.115</value>
														<speedkfstart>TRUE</speedkfstart>
														<speedvirtualkf>TRUE</speedvirtualkf>
													</keyframe>
													<keyframe>
														<when>31166</when>
														<value>3749.02</value>
														<speedkfin>TRUE</speedkfin>
														<speedvirtualkf>TRUE</speedvirtualkf>
													</keyframe>
													<keyframe>
														<when>31318</when>
														<value>3767.3</value>
														<speedkfout>TRUE</speedkfout>
														<speedvirtualkf>TRUE</speedvirtualkf>
													</keyframe>
													<keyframe>
														<when>230223</when>
														<value>27694.1</value>
														<speedkfend>TRUE</speedkfend>
														<speedvirtualkf>TRUE</speedvirtualkf>
													</keyframe>
													<interpolation>
														<name>FCPCurve</name>
													</interpolation>
													<value>3749.02</value>
												</parameter>
											</effect>
										</filter>
									</clipitem>
									<transitionitem id="66693428 ">
										<rate>
											<ntsc>FALSE</ntsc>
											<timebase>25</timebase>
										</rate>
										<start>705</start>
										<end>715</end>
										<alignment>center</alignment>
										<effect>
											<name>Dip to Color Dissolve</name>
											<effectid>Dip to Color Dissolve</effectid>
											<effectcategory>Dissolve</effectcategory>
											<effecttype>transition</effecttype>
											<mediatype>video</mediatype>
											<wipecode>0</wipecode>
											<wipeaccuracy>100</wipeaccuracy>
											<startratio>0</startratio>
											<endratio>1</endratio>
											<reverse>FALSE</reverse>
											<parameter>
												<parameterid>threshold</parameterid>
												<name>Threshold</name>
												<valuemin>0</valuemin>
												<valuemax>100</valuemax>
												<value>50</value>
											</parameter>
											<parameter>
												<parameterid>soft</parameterid>
												<name>Soft</name>
												<valuemin>0</valuemin>
												<valuemax>100</valuemax>
												<value>100</value>
											</parameter>
											<parameter>
												<parameterid>dipcolor</parameterid>
												<name>Color</name>
												<value>
													<alpha>255</alpha>
													<red>255</red>
													<green>255</green>
													<blue>255</blue>
												</value>
											</parameter>
										</effect>
									</transitionitem>
									<clipitem id="msub200012-2511-001 9">
										<name>msub200012-2511-001</name>
										<duration>55218</duration>
										<rate>
											<ntsc>FALSE</ntsc>
											<timebase>25</timebase>
										</rate>
										<in>36226</in>
										<out>36302</out>
										<start>-1</start>
										<end>781</end>
										<pixelaspectratio>Square</pixelaspectratio>
										<enabled>TRUE</enabled>
										<anamorphic>FALSE</anamorphic>
										<alphatype>none</alphatype>
										<alphareverse>FALSE</alphareverse>
										<masterclipid>msub200012-2511-001 1</masterclipid>
										<logginginfo>
											<description>msub200012-2511-001</description>
											<scene/>
											<shottake/>
											<lognote/>
											<good>FALSE</good>
										</logginginfo>
										<labels>
											<label2/>
										</labels>
										<comments>
											<mastercomment1>RÃ…STOFF. BR_FINFREDAG_MSUA_OPRO</mastercomment1>
											<mastercomment2/>
											<mastercomment3/>
											<mastercomment4/>
											<clipcommenta/>
										</comments>
										<file id="msub200012-2511-001 2"/>
										<filter>
											<effect>
												<name>Basic Motion</name>
												<effectid>basic</effectid>
												<effectcategory>motion</effectcategory>
												<effecttype>motion</effecttype>
												<mediatype>video</mediatype>
												<parameter>
													<parameterid>scale</parameterid>
													<name>Scale</name>
													<valuemin>0</valuemin>
													<valuemax>1000</valuemax>
													<value>100</value>
												</parameter>
												<parameter>
													<parameterid>rotation</parameterid>
													<name>Rotation</name>
													<valuemin>-8640</valuemin>
													<valuemax>8640</valuemax>
													<value>0</value>
												</parameter>
												<parameter>
													<parameterid>center</parameterid>
													<name>Center</name>
													<value>
														<horiz>0</horiz>
														<vert>0</vert>
													</value>
												</parameter>
												<parameter>
													<parameterid>centerOffset</parameterid>
													<name>Anchor Point</name>
													<value>
														<horiz>0</horiz>
														<vert>0</vert>
													</value>
												</parameter>
											</effect>
										</filter>
										<filter>
											<effect>
												<name>Crop</name>
												<effectid>crop</effectid>
												<effectcategory>motion</effectcategory>
												<effecttype>motion</effecttype>
												<mediatype>video</mediatype>
												<parameter>
													<parameterid>left</parameterid>
													<name>left</name>
													<valuemin>0</valuemin>
													<valuemax>100</valuemax>
													<value>0</value>
												</parameter>
												<parameter>
													<parameterid>right</parameterid>
													<name>right</name>
													<valuemin>0</valuemin>
													<valuemax>100</valuemax>
													<value>0</value>
												</parameter>
												<parameter>
													<parameterid>top</parameterid>
													<name>top</name>
													<valuemin>0</valuemin>
													<valuemax>100</valuemax>
													<value>0</value>
												</parameter>
												<parameter>
													<parameterid>bottom</parameterid>
													<name>bottom</name>
													<valuemin>0</valuemin>
													<valuemax>100</valuemax>
													<value>0</value>
												</parameter>
												<parameter>
													<parameterid>edgefeather</parameterid>
													<name>edgefeather</name>
													<valuemin>0</valuemin>
													<valuemax>100</valuemax>
													<value>0</value>
												</parameter>
											</effect>
										</filter>
										<filter>
											<effect>
												<name>Distort</name>
												<effectid>deformation</effectid>
												<effectcategory>motion</effectcategory>
												<effecttype>motion</effecttype>
												<mediatype>video</mediatype>
												<parameter>
													<parameterid>ulcorner</parameterid>
													<name>Upper Left</name>
													<value>
														<horiz>-0.5</horiz>
														<vert>-0.5</vert>
													</value>
												</parameter>
												<parameter>
													<parameterid>urcorner</parameterid>
													<name>Upper Right</name>
													<value>
														<horiz>0.5</horiz>
														<vert>-0.5</vert>
													</value>
												</parameter>
												<parameter>
													<parameterid>lrcorner</parameterid>
													<name>Lower Right</name>
													<value>
														<horiz>0.5</horiz>
														<vert>0.5</vert>
													</value>
												</parameter>
												<parameter>
													<parameterid>llcorner</parameterid>
													<name>Lower Left</name>
													<value>
														<horiz>-0.5</horiz>
														<vert>0.5</vert>
													</value>
												</parameter>
												<parameter>
													<parameterid>aspect</parameterid>
													<name>Aspect</name>
													<valuemin>-10000</valuemin>
													<valuemax>10000</valuemax>
													<value>0</value>
												</parameter>
											</effect>
										</filter>
										<sourcetrack>
											<mediatype>video</mediatype>
										</sourcetrack>
										<fielddominance>upper</fielddominance>
										<filter>
											<effect>
												<name>Time Remap</name>
												<effectid>timeremap</effectid>
												<effectcategory>motion</effectcategory>
												<effecttype>motion</effecttype>
												<mediatype>video</mediatype>
												<parameter>
													<parameterid>variablespeed</parameterid>
													<name>variablespeed</name>
													<valuemin>0</valuemin>
													<valuemax>1</valuemax>
													<value>0</value>
												</parameter>
												<parameter>
													<parameterid>mappedduration</parameterid>
													<name>mappedduration</name>
													<value>
														<timecode>
															<rate>
																<timebase>0</timebase>
															</rate>
															<string>0</string>
															<frame>0</frame>
															<displayformat>NDF</displayformat>
														</timecode>
													</value>
												</parameter>
												<parameter>
													<parameterid>speed</parameterid>
													<name>speed</name>
													<valuemin>-10000</valuemin>
													<valuemax>10000</valuemax>
													<value>50</value>
												</parameter>
												<parameter>
													<parameterid>reverse</parameterid>
													<name>reverse</name>
													<value>FALSE</value>
												</parameter>
												<parameter>
													<parameterid>frameblending</parameterid>
													<name>frameblending</name>
													<value>TRUE</value>
												</parameter>
												<parameter>
													<parameterid>graphdict</parameterid>
													<name>graphdict</name>
													<valuemin>0</valuemin>
													<valuemax>27693</valuemax>
													<keyframe>
														<when>0</when>
														<value>0.0477</value>
														<speedkfstart>TRUE</speedkfstart>
														<speedvirtualkf>TRUE</speedvirtualkf>
													</keyframe>
													<keyframe>
														<when>36226</when>
														<value>18168.5</value>
														<speedkfin>TRUE</speedkfin>
														<speedvirtualkf>TRUE</speedvirtualkf>
													</keyframe>
													<keyframe>
														<when>36302</when>
														<value>18206.6</value>
														<speedkfout>TRUE</speedkfout>
														<speedvirtualkf>TRUE</speedvirtualkf>
													</keyframe>
													<keyframe>
														<when>55218</when>
														<value>27694</value>
														<speedkfend>TRUE</speedkfend>
														<speedvirtualkf>TRUE</speedvirtualkf>
													</keyframe>
													<interpolation>
														<name>FCPCurve</name>
													</interpolation>
													<value>18168.5</value>
												</parameter>
											</effect>
										</filter>
									</clipitem>
									<clipitem id="msub200012-2511-001 10">
										<name>msub200012-2511-001</name>
										<duration>27694</duration>
										<rate>
											<ntsc>FALSE</ntsc>
											<timebase>25</timebase>
										</rate>
										<in>18207</in>
										<out>18726</out>
										<start>781</start>
										<end>-1</end>
										<pixelaspectratio>Square</pixelaspectratio>
										<enabled>TRUE</enabled>
										<anamorphic>FALSE</anamorphic>
										<alphatype>none</alphatype>
										<alphareverse>FALSE</alphareverse>
										<masterclipid>msub200012-2511-001 1</masterclipid>
										<logginginfo>
											<description>msub200012-2511-001</description>
											<scene/>
											<shottake/>
											<lognote/>
											<good>FALSE</good>
										</logginginfo>
										<labels>
											<label2/>
										</labels>
										<comments>
											<mastercomment1>RÃ…STOFF. BR_FINFREDAG_MSUA_OPRO</mastercomment1>
											<mastercomment2/>
											<mastercomment3/>
											<mastercomment4/>
											<clipcommenta/>
										</comments>
										<file id="msub200012-2511-001 2"/>
										<filter>
											<effect>
												<name>Basic Motion</name>
												<effectid>basic</effectid>
												<effectcategory>motion</effectcategory>
												<effecttype>motion</effecttype>
												<mediatype>video</mediatype>
												<parameter>
													<parameterid>scale</parameterid>
													<name>Scale</name>
													<valuemin>0</valuemin>
													<valuemax>1000</valuemax>
													<value>100</value>
												</parameter>
												<parameter>
													<parameterid>rotation</parameterid>
													<name>Rotation</name>
													<valuemin>-8640</valuemin>
													<valuemax>8640</valuemax>
													<value>0</value>
												</parameter>
												<parameter>
													<parameterid>center</parameterid>
													<name>Center</name>
													<value>
														<horiz>0</horiz>
														<vert>0</vert>
													</value>
												</parameter>
												<parameter>
													<parameterid>centerOffset</parameterid>
													<name>Anchor Point</name>
													<value>
														<horiz>0</horiz>
														<vert>0</vert>
													</value>
												</parameter>
											</effect>
										</filter>
										<filter>
											<effect>
												<name>Crop</name>
												<effectid>crop</effectid>
												<effectcategory>motion</effectcategory>
												<effecttype>motion</effecttype>
												<mediatype>video</mediatype>
												<parameter>
													<parameterid>left</parameterid>
													<name>left</name>
													<valuemin>0</valuemin>
													<valuemax>100</valuemax>
													<value>0</value>
												</parameter>
												<parameter>
													<parameterid>right</parameterid>
													<name>right</name>
													<valuemin>0</valuemin>
													<valuemax>100</valuemax>
													<value>0</value>
												</parameter>
												<parameter>
													<parameterid>top</parameterid>
													<name>top</name>
													<valuemin>0</valuemin>
													<valuemax>100</valuemax>
													<value>0</value>
												</parameter>
												<parameter>
													<parameterid>bottom</parameterid>
													<name>bottom</name>
													<valuemin>0</valuemin>
													<valuemax>100</valuemax>
													<value>0</value>
												</parameter>
												<parameter>
													<parameterid>edgefeather</parameterid>
													<name>edgefeather</name>
													<valuemin>0</valuemin>
													<valuemax>100</valuemax>
													<value>0</value>
												</parameter>
											</effect>
										</filter>
										<filter>
											<effect>
												<name>Distort</name>
												<effectid>deformation</effectid>
												<effectcategory>motion</effectcategory>
												<effecttype>motion</effecttype>
												<mediatype>video</mediatype>
												<parameter>
													<parameterid>ulcorner</parameterid>
													<name>Upper Left</name>
													<value>
														<horiz>-0.5</horiz>
														<vert>-0.5</vert>
													</value>
												</parameter>
												<parameter>
													<parameterid>urcorner</parameterid>
													<name>Upper Right</name>
													<value>
														<horiz>0.5</horiz>
														<vert>-0.5</vert>
													</value>
												</parameter>
												<parameter>
													<parameterid>lrcorner</parameterid>
													<name>Lower Right</name>
													<value>
														<horiz>0.5</horiz>
														<vert>0.5</vert>
													</value>
												</parameter>
												<parameter>
													<parameterid>llcorner</parameterid>
													<name>Lower Left</name>
													<value>
														<horiz>-0.5</horiz>
														<vert>0.5</vert>
													</value>
												</parameter>
												<parameter>
													<parameterid>aspect</parameterid>
													<name>Aspect</name>
													<valuemin>-10000</valuemin>
													<valuemax>10000</valuemax>
													<value>0</value>
												</parameter>
											</effect>
										</filter>
										<sourcetrack>
											<mediatype>video</mediatype>
										</sourcetrack>
										<fielddominance>upper</fielddominance>
									</clipitem>
									<transitionitem id="3">
										<rate>
											<ntsc>FALSE</ntsc>
											<timebase>25</timebase>
										</rate>
										<start>1290</start>
										<end>1300</end>
										<alignment>center</alignment>
										<effect>
											<name>Dip to Color Dissolve</name>
											<effectid>Dip to Color Dissolve</effectid>
											<effectcategory>Dissolve</effectcategory>
											<effecttype>transition</effecttype>
											<mediatype>video</mediatype>
											<wipecode>0</wipecode>
											<wipeaccuracy>100</wipeaccuracy>
											<startratio>0</startratio>
											<endratio>1</endratio>
											<reverse>FALSE</reverse>
											<parameter>
												<parameterid>threshold</parameterid>
												<name>Threshold</name>
												<valuemin>0</valuemin>
												<valuemax>100</valuemax>
												<value>50</value>
											</parameter>
											<parameter>
												<parameterid>soft</parameterid>
												<name>Soft</name>
												<valuemin>0</valuemin>
												<valuemax>100</valuemax>
												<value>100</value>
											</parameter>
											<parameter>
												<parameterid>dipcolor</parameterid>
												<name>Color</name>
												<value>
													<alpha>255</alpha>
													<red>255</red>
													<green>255</green>
													<blue>255</blue>
												</value>
											</parameter>
										</effect>
									</transitionitem>
									<clipitem id="msub200012-2511-001 11">
										<name>msub200012-2511-001</name>
										<duration>27694</duration>
										<rate>
											<ntsc>FALSE</ntsc>
											<timebase>25</timebase>
										</rate>
										<in>8154</in>
										<out>8461</out>
										<start>-1</start>
										<end>-1</end>
										<pixelaspectratio>Square</pixelaspectratio>
										<enabled>TRUE</enabled>
										<anamorphic>FALSE</anamorphic>
										<alphatype>none</alphatype>
										<alphareverse>FALSE</alphareverse>
										<masterclipid>msub200012-2511-001 1</masterclipid>
										<logginginfo>
											<description>msub200012-2511-001</description>
											<scene/>
											<shottake/>
											<lognote/>
											<good>FALSE</good>
										</logginginfo>
										<labels>
											<label2/>
										</labels>
										<comments>
											<mastercomment1>RÃ…STOFF. BR_FINFREDAG_MSUA_OPRO</mastercomment1>
											<mastercomment2/>
											<mastercomment3/>
											<mastercomment4/>
											<clipcommenta/>
										</comments>
										<file id="msub200012-2511-001 2"/>
										<filter>
											<effect>
												<name>Basic Motion</name>
												<effectid>basic</effectid>
												<effectcategory>motion</effectcategory>
												<effecttype>motion</effecttype>
												<mediatype>video</mediatype>
												<parameter>
													<parameterid>scale</parameterid>
													<name>Scale</name>
													<valuemin>0</valuemin>
													<valuemax>1000</valuemax>
													<value>100</value>
												</parameter>
												<parameter>
													<parameterid>rotation</parameterid>
													<name>Rotation</name>
													<valuemin>-8640</valuemin>
													<valuemax>8640</valuemax>
													<value>0</value>
												</parameter>
												<parameter>
													<parameterid>center</parameterid>
													<name>Center</name>
													<value>
														<horiz>0</horiz>
														<vert>0</vert>
													</value>
												</parameter>
												<parameter>
													<parameterid>centerOffset</parameterid>
													<name>Anchor Point</name>
													<value>
														<horiz>0</horiz>
														<vert>0</vert>
													</value>
												</parameter>
											</effect>
										</filter>
										<filter>
											<effect>
												<name>Crop</name>
												<effectid>crop</effectid>
												<effectcategory>motion</effectcategory>
												<effecttype>motion</effecttype>
												<mediatype>video</mediatype>
												<parameter>
													<parameterid>left</parameterid>
													<name>left</name>
													<valuemin>0</valuemin>
													<valuemax>100</valuemax>
													<value>0</value>
												</parameter>
												<parameter>
													<parameterid>right</parameterid>
													<name>right</name>
													<valuemin>0</valuemin>
													<valuemax>100</valuemax>
													<value>0</value>
												</parameter>
												<parameter>
													<parameterid>top</parameterid>
													<name>top</name>
													<valuemin>0</valuemin>
													<valuemax>100</valuemax>
													<value>0</value>
												</parameter>
												<parameter>
													<parameterid>bottom</parameterid>
													<name>bottom</name>
													<valuemin>0</valuemin>
													<valuemax>100</valuemax>
													<value>0</value>
												</parameter>
												<parameter>
													<parameterid>edgefeather</parameterid>
													<name>edgefeather</name>
													<valuemin>0</valuemin>
													<valuemax>100</valuemax>
													<value>0</value>
												</parameter>
											</effect>
										</filter>
										<filter>
											<effect>
												<name>Distort</name>
												<effectid>deformation</effectid>
												<effectcategory>motion</effectcategory>
												<effecttype>motion</effecttype>
												<mediatype>video</mediatype>
												<parameter>
													<parameterid>ulcorner</parameterid>
													<name>Upper Left</name>
													<value>
														<horiz>-0.5</horiz>
														<vert>-0.5</vert>
													</value>
												</parameter>
												<parameter>
													<parameterid>urcorner</parameterid>
													<name>Upper Right</name>
													<value>
														<horiz>0.5</horiz>
														<vert>-0.5</vert>
													</value>
												</parameter>
												<parameter>
													<parameterid>lrcorner</parameterid>
													<name>Lower Right</name>
													<value>
														<horiz>0.5</horiz>
														<vert>0.5</vert>
													</value>
												</parameter>
												<parameter>
													<parameterid>llcorner</parameterid>
													<name>Lower Left</name>
													<value>
														<horiz>-0.5</horiz>
														<vert>0.5</vert>
													</value>
												</parameter>
												<parameter>
													<parameterid>aspect</parameterid>
													<name>Aspect</name>
													<valuemin>-10000</valuemin>
													<valuemax>10000</valuemax>
													<value>0</value>
												</parameter>
											</effect>
										</filter>
										<sourcetrack>
											<mediatype>video</mediatype>
										</sourcetrack>
										<link>
											<linkclipref>msub200012-2511-001 11</linkclipref>
											<mediatype>video</mediatype>
											<trackindex>1</trackindex>
											<clipindex>9</clipindex>
										</link>
										<link>
											<linkclipref>msub200012-2511-001 12</linkclipref>
											<mediatype>audio</mediatype>
											<trackindex>1</trackindex>
											<clipindex>6</clipindex>
										</link>
										<link>
											<linkclipref>msub200012-2511-001 13</linkclipref>
											<mediatype>audio</mediatype>
											<trackindex>2</trackindex>
											<clipindex>6</clipindex>
										</link>
										<fielddominance>upper</fielddominance>
									</clipitem>
									<transitionitem id="66699752 ">
										<rate>
											<ntsc>FALSE</ntsc>
											<timebase>25</timebase>
										</rate>
										<start>1587</start>
										<end>1597</end>
										<alignment>center</alignment>
										<effect>
											<name>Dip to Color Dissolve</name>
											<effectid>Dip to Color Dissolve</effectid>
											<effectcategory>Dissolve</effectcategory>
											<effecttype>transition</effecttype>
											<mediatype>video</mediatype>
											<wipecode>0</wipecode>
											<wipeaccuracy>100</wipeaccuracy>
											<startratio>0</startratio>
											<endratio>1</endratio>
											<reverse>FALSE</reverse>
											<parameter>
												<parameterid>threshold</parameterid>
												<name>Threshold</name>
												<valuemin>0</valuemin>
												<valuemax>100</valuemax>
												<value>50</value>
											</parameter>
											<parameter>
												<parameterid>soft</parameterid>
												<name>Soft</name>
												<valuemin>0</valuemin>
												<valuemax>100</valuemax>
												<value>100</value>
											</parameter>
											<parameter>
												<parameterid>dipcolor</parameterid>
												<name>Color</name>
												<value>
													<alpha>255</alpha>
													<red>255</red>
													<green>255</green>
													<blue>255</blue>
												</value>
											</parameter>
										</effect>
									</transitionitem>
									<clipitem id="msub200012-2511-001 14">
										<name>msub200012-2511-001</name>
										<duration>27694</duration>
										<rate>
											<ntsc>FALSE</ntsc>
											<timebase>25</timebase>
										</rate>
										<in>2445</in>
										<out>2674</out>
										<start>-1</start>
										<end>-1</end>
										<pixelaspectratio>Square</pixelaspectratio>
										<enabled>TRUE</enabled>
										<anamorphic>FALSE</anamorphic>
										<alphatype>none</alphatype>
										<alphareverse>FALSE</alphareverse>
										<masterclipid>msub200012-2511-001 1</masterclipid>
										<logginginfo>
											<description>msub200012-2511-001</description>
											<scene/>
											<shottake/>
											<lognote/>
											<good>FALSE</good>
										</logginginfo>
										<labels>
											<label2/>
										</labels>
										<comments>
											<mastercomment1>RÃ…STOFF. BR_FINFREDAG_MSUA_OPRO</mastercomment1>
											<mastercomment2/>
											<mastercomment3/>
											<mastercomment4/>
											<clipcommenta/>
										</comments>
										<file id="msub200012-2511-001 2"/>
										<sourcetrack>
											<mediatype>video</mediatype>
										</sourcetrack>
										<link>
											<linkclipref>msub200012-2511-001 14</linkclipref>
											<mediatype>video</mediatype>
											<trackindex>1</trackindex>
											<clipindex>11</clipindex>
										</link>
										<link>
											<linkclipref>msub200012-2511-001 15</linkclipref>
											<mediatype>audio</mediatype>
											<trackindex>1</trackindex>
											<clipindex>8</clipindex>
										</link>
										<link>
											<linkclipref>msub200012-2511-001 16</linkclipref>
											<mediatype>audio</mediatype>
											<trackindex>2</trackindex>
											<clipindex>8</clipindex>
										</link>
										<fielddominance>upper</fielddominance>
									</clipitem>
									<transitionitem id="4">
										<rate>
											<ntsc>FALSE</ntsc>
											<timebase>25</timebase>
										</rate>
										<start>1810</start>
										<end>1816</end>
										<alignment>center</alignment>
										<effect>
											<name>Cross Dissolve</name>
											<effectid>Cross Dissolve</effectid>
											<effectcategory>Dissolve</effectcategory>
											<effecttype>transition</effecttype>
											<mediatype>video</mediatype>
											<wipecode>0</wipecode>
											<wipeaccuracy>100</wipeaccuracy>
											<startratio>0</startratio>
											<endratio>1</endratio>
											<reverse>FALSE</reverse>
										</effect>
									</transitionitem>
									<clipitem id="msub200012-2511-001 17">
										<name>msub200012-2511-001</name>
										<duration>27694</duration>
										<rate>
											<ntsc>FALSE</ntsc>
											<timebase>25</timebase>
										</rate>
										<in>2710</in>
										<out>2915</out>
										<start>-1</start>
										<end>-1</end>
										<pixelaspectratio>Square</pixelaspectratio>
										<enabled>TRUE</enabled>
										<anamorphic>FALSE</anamorphic>
										<alphatype>none</alphatype>
										<alphareverse>FALSE</alphareverse>
										<masterclipid>msub200012-2511-001 1</masterclipid>
										<logginginfo>
											<description>msub200012-2511-001</description>
											<scene/>
											<shottake/>
											<lognote/>
											<good>FALSE</good>
										</logginginfo>
										<labels>
											<label2/>
										</labels>
										<comments>
											<mastercomment1>RÃ…STOFF. BR_FINFREDAG_MSUA_OPRO</mastercomment1>
											<mastercomment2/>
											<mastercomment3/>
											<mastercomment4/>
											<clipcommenta/>
										</comments>
										<file id="msub200012-2511-001 2"/>
										<sourcetrack>
											<mediatype>video</mediatype>
										</sourcetrack>
										<link>
											<linkclipref>msub200012-2511-001 17</linkclipref>
											<mediatype>video</mediatype>
											<trackindex>1</trackindex>
											<clipindex>13</clipindex>
										</link>
										<link>
											<linkclipref>msub200012-2511-001 18</linkclipref>
											<mediatype>audio</mediatype>
											<trackindex>1</trackindex>
											<clipindex>9</clipindex>
										</link>
										<link>
											<linkclipref>msub200012-2511-001 19</linkclipref>
											<mediatype>audio</mediatype>
											<trackindex>2</trackindex>
											<clipindex>9</clipindex>
										</link>
										<fielddominance>upper</fielddominance>
									</clipitem>
									<transitionitem id="66701452 ">
										<rate>
											<ntsc>FALSE</ntsc>
											<timebase>25</timebase>
										</rate>
										<start>1965</start>
										<end>2015</end>
										<alignment>center</alignment>
										<effect>
											<name>Ripple Dissolve</name>
											<effectid>Ripple Dissolve</effectid>
											<effectcategory>Dissolve</effectcategory>
											<effecttype>transition</effecttype>
											<mediatype>video</mediatype>
											<wipecode>0</wipecode>
											<wipeaccuracy>100</wipeaccuracy>
											<startratio>0</startratio>
											<endratio>1</endratio>
											<reverse>FALSE</reverse>
											<parameter>
												<parameterid>nripple</parameterid>
												<name>Ripple</name>
												<valuemin>1</valuemin>
												<valuemax>12</valuemax>
												<value>5</value>
											</parameter>
											<parameter>
												<parameterid>amplitude</parameterid>
												<name>Amplitude</name>
												<valuemin>0</valuemin>
												<valuemax>100</valuemax>
												<value>20</value>
											</parameter>
											<parameter>
												<parameterid>accelerate</parameterid>
												<name>Acceleration</name>
												<valuemin>0</valuemin>
												<valuemax>10</valuemax>
												<value>1</value>
											</parameter>
											<parameter>
												<parameterid>center</parameterid>
												<name>Center</name>
												<value>
													<horiz>0.11543</horiz>
													<vert>-0.112971</vert>
												</value>
											</parameter>
											<parameter>
												<parameterid>hilite</parameterid>
												<name>Highlight</name>
												<valuemin>0</valuemin>
												<valuemax>100</valuemax>
												<value>0</value>
											</parameter>
										</effect>
									</transitionitem>
									<clipitem id="FOLA008871-AR-199205497 ">
										<name>FOLA008871-AR-199205497</name>
										<duration>39675</duration>
										<rate>
											<ntsc>FALSE</ntsc>
											<timebase>25</timebase>
										</rate>
										<in>38221</in>
										<out>38467</out>
										<start>-1</start>
										<end>2211</end>
										<pixelaspectratio>PAL-601</pixelaspectratio>
										<enabled>TRUE</enabled>
										<anamorphic>FALSE</anamorphic>
										<alphatype>none</alphatype>
										<alphareverse>FALSE</alphareverse>
										<masterclipid>FOLA008871-AR-199205497 1</masterclipid>
										<logginginfo>
											<description>Gulost - meir enn gouda  (Gulost - mer enn gouda)</description>
											<scene/>
											<shottake/>
											<lognote/>
											<good>FALSE</good>
										</logginginfo>
										<labels>
											<label2/>
										</labels>
										<comments>
											<mastercomment1>ARKIVSTOFF</mastercomment1>
											<mastercomment2>. </mastercomment2>
											<mastercomment3>Sendt: 1971-09-27. NRK P: Ingrid Espelid (Hovig), Olav Aasmundtveit. </mastercomment3>
											<mastercomment4>Filmprogram. Tegning av kokk med to fat, tekst, "Gulost - meir enn gouda". Mann Ã¥pner matboks og ser pÃ¥ innholdet. Melk ned i ystekar. Den blir blandet i moderne maskiner. Fra laboratoriet. LÃ¸ype blir blandet i melken. LÃ¸ypa gjÃ¸r sÃ¥ melken koagulerer og virker som gele. Den geleaktige massen blir hakket til smÃ¥biter. Vi ser prosessen inntil osten kan lagres. Skorpefri gouda, jarlsberg og sveitser blir stemplet. Osten blir senktet i saltlake. Blir trillet inn pÃ¥ lagringsrommet. Goudaen blir satt inn med et plastlignende stoff sÃ¥ den ikke skal mugne. Osten blir sÃ¥ snudd hver dag i en spesialkonstruert maskin. Etter en mÃ¥neds lagring blir osten dyppet i smeltet parafinvoks, som skal verne osten mot unÃ¸dig uttÃ¸rking. NÃ¦rt lagret gouda og jarlsberg. Ingrid ESPELID (HOVIG) lager ostekake. Vi ser det ferdige resultatet. Hun lager ostesmÃ¸rbrÃ¸d og fiskerett med ost. Vi ser det ferdiglaget. Shot fra havnen og innfarten til Haugesund. Normannaystereiet i Ã˜len i Sunnhordland. Mann undersÃ¸ker ost. Det uferdige produktet blir gjort ferdig til lagring. En ferdig lagret Normannaost. Bilder fra sjÃ¸en ved JÃ¦ren, div. naturshot. Ostelageret ved Klepp pÃ¥ JÃ¦ren. Ost pÃ¥ samlebÃ¥nd. Ost i lagringshall. Skorpefri gouda blir pakket med moderne maskiner. Framstilling av Cheddar. De forskjellige fasene inntil det ferdige produktet. Ingrid ESPELID (HOVIG) lager ostesuffle av Cheddar, og pizza..</mastercomment4>
											<clipcommenta/>
											<clipcommentb>1:F-miks 2:F-miks.16x9 PAL.</clipcommentb>
										</comments>
										<file id="FOLA008871-AR-199205497 2">
											<name>FOLA008871-AR-199205497.mxf</name>
											<pathurl>file://localhost/omfs/clip.dir/MXF/576i/FOLA008871-AR-199205497.mxf</pathurl>
											<rate>
												<timebase>25</timebase>
											</rate>
											<duration>39675</duration>
											<timecode>
												<rate>
													<timebase>25</timebase>
												</rate>
												<string>09:59:58:00</string>
												<frame>899950</frame>
												<displayformat>NDF</displayformat>
												<source>source</source>
											</timecode>
											<media>
												<video>
													<duration>39675</duration>
													<samplecharacteristics>
														<width>720</width>
														<height>576</height>
													</samplecharacteristics>
												</video>
												<audio>
													<rate>
														<timebase>48000</timebase>
													</rate>
													<trackcount>8</trackcount>
													<samplecharacteristics>
														<depth>24</depth>
													</samplecharacteristics>
												</audio>
											</media>
										</file>
										<marker>
											<name>intro. 0</name>
											<comment>Gul ost mer enn gouda</comment>
											<in>0</in>
											<out>819</out>
										</marker>
										<marker>
											<name/>
											<comment/>
											<in>21630</in>
											<out>22255</out>
										</marker>
										<marker>
											<name>ostesuffle. 0</name>
											<comment/>
											<in>32883</in>
											<out>36477</out>
										</marker>
										<marker>
											<name>pizza anno 1971. 0</name>
											<comment>tomater, ansjos, ost, oregano</comment>
											<in>36349</in>
											<out>39458</out>
										</marker>
										<filter>
											<effect>
												<name>Distort</name>
												<effectid>deformation</effectid>
												<effectcategory>motion</effectcategory>
												<effecttype>motion</effecttype>
												<mediatype>video</mediatype>
												<parameter>
													<parameterid>aspect</parameterid>
													<name>Aspect</name>
													<valuemin>-10000</valuemin>
													<valuemax>10000</valuemax>
													<value>-6.66667</value>
												</parameter>
											</effect>
										</filter>
										<filter>
											<effect>
												<name>Basic Motion</name>
												<effectid>basic</effectid>
												<effectcategory>motion</effectcategory>
												<effecttype>motion</effecttype>
												<mediatype>video</mediatype>
												<parameter>
													<parameterid>scale</parameterid>
													<name>Scale</name>
													<value>200</value>
												</parameter>
											</effect>
										</filter>
										<sourcetrack>
											<mediatype>video</mediatype>
										</sourcetrack>
										<fielddominance>upper</fielddominance>
									</clipitem>
									<clipitem id="FOLA008871-AR-199205497 3">
										<name>FOLA008871-AR-199205497</name>
										<duration>39675</duration>
										<rate>
											<ntsc>FALSE</ntsc>
											<timebase>25</timebase>
										</rate>
										<in>39326</in>
										<out>39474</out>
										<start>2211</start>
										<end>-1</end>
										<pixelaspectratio>PAL-601</pixelaspectratio>
										<enabled>TRUE</enabled>
										<anamorphic>FALSE</anamorphic>
										<alphatype>none</alphatype>
										<alphareverse>FALSE</alphareverse>
										<masterclipid>FOLA008871-AR-199205497 1</masterclipid>
										<logginginfo>
											<description>Gulost - meir enn gouda  (Gulost - mer enn gouda)</description>
											<scene/>
											<shottake/>
											<lognote/>
											<good>FALSE</good>
										</logginginfo>
										<labels>
											<label2/>
										</labels>
										<comments>
											<mastercomment1>ARKIVSTOFF</mastercomment1>
											<mastercomment2>. </mastercomment2>
											<mastercomment3>Sendt: 1971-09-27. NRK P: Ingrid Espelid (Hovig), Olav Aasmundtveit. </mastercomment3>
											<mastercomment4>Filmprogram. Tegning av kokk med to fat, tekst, "Gulost - meir enn gouda". Mann Ã¥pner matboks og ser pÃ¥ innholdet. Melk ned i ystekar. Den blir blandet i moderne maskiner. Fra laboratoriet. LÃ¸ype blir blandet i melken. LÃ¸ypa gjÃ¸r sÃ¥ melken koagulerer og virker som gele. Den geleaktige massen blir hakket til smÃ¥biter. Vi ser prosessen inntil osten kan lagres. Skorpefri gouda, jarlsberg og sveitser blir stemplet. Osten blir senktet i saltlake. Blir trillet inn pÃ¥ lagringsrommet. Goudaen blir satt inn med et plastlignende stoff sÃ¥ den ikke skal mugne. Osten blir sÃ¥ snudd hver dag i en spesialkonstruert maskin. Etter en mÃ¥neds lagring blir osten dyppet i smeltet parafinvoks, som skal verne osten mot unÃ¸dig uttÃ¸rking. NÃ¦rt lagret gouda og jarlsberg. Ingrid ESPELID (HOVIG) lager ostekake. Vi ser det ferdige resultatet. Hun lager ostesmÃ¸rbrÃ¸d og fiskerett med ost. Vi ser det ferdiglaget. Shot fra havnen og innfarten til Haugesund. Normannaystereiet i Ã˜len i Sunnhordland. Mann undersÃ¸ker ost. Det uferdige produktet blir gjort ferdig til lagring. En ferdig lagret Normannaost. Bilder fra sjÃ¸en ved JÃ¦ren, div. naturshot. Ostelageret ved Klepp pÃ¥ JÃ¦ren. Ost pÃ¥ samlebÃ¥nd. Ost i lagringshall. Skorpefri gouda blir pakket med moderne maskiner. Framstilling av Cheddar. De forskjellige fasene inntil det ferdige produktet. Ingrid ESPELID (HOVIG) lager ostesuffle av Cheddar, og pizza..</mastercomment4>
											<clipcommenta/>
											<clipcommentb>1:F-miks 2:F-miks.16x9 PAL.</clipcommentb>
										</comments>
										<file id="FOLA008871-AR-199205497 2"/>
										<marker>
											<name>intro. 0</name>
											<comment>Gul ost mer enn gouda</comment>
											<in>0</in>
											<out>819</out>
										</marker>
										<marker>
											<name/>
											<comment/>
											<in>21630</in>
											<out>22255</out>
										</marker>
										<marker>
											<name>ostesuffle. 0</name>
											<comment/>
											<in>32883</in>
											<out>36477</out>
										</marker>
										<marker>
											<name>pizza anno 1971. 0</name>
											<comment>tomater, ansjos, ost, oregano</comment>
											<in>36349</in>
											<out>39458</out>
										</marker>
										<filter>
											<effect>
												<name>Distort</name>
												<effectid>deformation</effectid>
												<effectcategory>motion</effectcategory>
												<effecttype>motion</effecttype>
												<mediatype>video</mediatype>
												<parameter>
													<parameterid>aspect</parameterid>
													<name>Aspect</name>
													<valuemin>-10000</valuemin>
													<valuemax>10000</valuemax>
													<value>-6.66667</value>
												</parameter>
											</effect>
										</filter>
										<filter>
											<effect>
												<name>Basic Motion</name>
												<effectid>basic</effectid>
												<effectcategory>motion</effectcategory>
												<effecttype>motion</effecttype>
												<mediatype>video</mediatype>
												<parameter>
													<parameterid>scale</parameterid>
													<name>Scale</name>
													<value>200</value>
												</parameter>
											</effect>
										</filter>
										<sourcetrack>
											<mediatype>video</mediatype>
										</sourcetrack>
										<fielddominance>upper</fielddominance>
									</clipitem>
									<transitionitem id="66705056 ">
										<rate>
											<ntsc>FALSE</ntsc>
											<timebase>25</timebase>
										</rate>
										<start>2349</start>
										<end>2359</end>
										<alignment>center</alignment>
										<effect>
											<name>Dip to Color Dissolve</name>
											<effectid>Dip to Color Dissolve</effectid>
											<effectcategory>Dissolve</effectcategory>
											<effecttype>transition</effecttype>
											<mediatype>video</mediatype>
											<wipecode>0</wipecode>
											<wipeaccuracy>100</wipeaccuracy>
											<startratio>0</startratio>
											<endratio>1</endratio>
											<reverse>FALSE</reverse>
											<parameter>
												<parameterid>threshold</parameterid>
												<name>Threshold</name>
												<valuemin>0</valuemin>
												<valuemax>100</valuemax>
												<value>50</value>
											</parameter>
											<parameter>
												<parameterid>soft</parameterid>
												<name>Soft</name>
												<valuemin>0</valuemin>
												<valuemax>100</valuemax>
												<value>100</value>
											</parameter>
											<parameter>
												<parameterid>dipcolor</parameterid>
												<name>Color</name>
												<value>
													<alpha>255</alpha>
													<red>255</red>
													<green>255</green>
													<blue>255</blue>
												</value>
											</parameter>
										</effect>
									</transitionitem>
									<clipitem id="msub200012-2511-001 20">
										<name>msub200012-2511-001</name>
										<duration>27694</duration>
										<rate>
											<ntsc>FALSE</ntsc>
											<timebase>25</timebase>
										</rate>
										<in>16232</in>
										<out>16317</out>
										<start>-1</start>
										<end>-1</end>
										<pixelaspectratio>Square</pixelaspectratio>
										<enabled>TRUE</enabled>
										<anamorphic>FALSE</anamorphic>
										<alphatype>none</alphatype>
										<alphareverse>FALSE</alphareverse>
										<masterclipid>msub200012-2511-001 1</masterclipid>
										<logginginfo>
											<description>msub200012-2511-001</description>
											<scene/>
											<shottake/>
											<lognote/>
											<good>FALSE</good>
										</logginginfo>
										<labels>
											<label2/>
										</labels>
										<comments>
											<mastercomment1>RÃ…STOFF. BR_FINFREDAG_MSUA_OPRO</mastercomment1>
											<mastercomment2/>
											<mastercomment3/>
											<mastercomment4/>
											<clipcommenta/>
										</comments>
										<file id="msub200012-2511-001 2"/>
										<filter>
											<effect>
												<name>Basic Motion</name>
												<effectid>basic</effectid>
												<effectcategory>motion</effectcategory>
												<effecttype>motion</effecttype>
												<mediatype>video</mediatype>
												<parameter>
													<parameterid>scale</parameterid>
													<name>Scale</name>
													<valuemin>0</valuemin>
													<valuemax>1000</valuemax>
													<value>100</value>
												</parameter>
												<parameter>
													<parameterid>rotation</parameterid>
													<name>Rotation</name>
													<valuemin>-8640</valuemin>
													<valuemax>8640</valuemax>
													<value>0</value>
												</parameter>
												<parameter>
													<parameterid>center</parameterid>
													<name>Center</name>
													<value>
														<horiz>0</horiz>
														<vert>0</vert>
													</value>
												</parameter>
												<parameter>
													<parameterid>centerOffset</parameterid>
													<name>Anchor Point</name>
													<value>
														<horiz>0</horiz>
														<vert>0</vert>
													</value>
												</parameter>
											</effect>
										</filter>
										<filter>
											<effect>
												<name>Crop</name>
												<effectid>crop</effectid>
												<effectcategory>motion</effectcategory>
												<effecttype>motion</effecttype>
												<mediatype>video</mediatype>
												<parameter>
													<parameterid>left</parameterid>
													<name>left</name>
													<valuemin>0</valuemin>
													<valuemax>100</valuemax>
													<value>0</value>
												</parameter>
												<parameter>
													<parameterid>right</parameterid>
													<name>right</name>
													<valuemin>0</valuemin>
													<valuemax>100</valuemax>
													<value>0</value>
												</parameter>
												<parameter>
													<parameterid>top</parameterid>
													<name>top</name>
													<valuemin>0</valuemin>
													<valuemax>100</valuemax>
													<value>0</value>
												</parameter>
												<parameter>
													<parameterid>bottom</parameterid>
													<name>bottom</name>
													<valuemin>0</valuemin>
													<valuemax>100</valuemax>
													<value>0</value>
												</parameter>
												<parameter>
													<parameterid>edgefeather</parameterid>
													<name>edgefeather</name>
													<valuemin>0</valuemin>
													<valuemax>100</valuemax>
													<value>0</value>
												</parameter>
											</effect>
										</filter>
										<filter>
											<effect>
												<name>Distort</name>
												<effectid>deformation</effectid>
												<effectcategory>motion</effectcategory>
												<effecttype>motion</effecttype>
												<mediatype>video</mediatype>
												<parameter>
													<parameterid>ulcorner</parameterid>
													<name>Upper Left</name>
													<value>
														<horiz>-0.5</horiz>
														<vert>-0.5</vert>
													</value>
												</parameter>
												<parameter>
													<parameterid>urcorner</parameterid>
													<name>Upper Right</name>
													<value>
														<horiz>0.5</horiz>
														<vert>-0.5</vert>
													</value>
												</parameter>
												<parameter>
													<parameterid>lrcorner</parameterid>
													<name>Lower Right</name>
													<value>
														<horiz>0.5</horiz>
														<vert>0.5</vert>
													</value>
												</parameter>
												<parameter>
													<parameterid>llcorner</parameterid>
													<name>Lower Left</name>
													<value>
														<horiz>-0.5</horiz>
														<vert>0.5</vert>
													</value>
												</parameter>
												<parameter>
													<parameterid>aspect</parameterid>
													<name>Aspect</name>
													<valuemin>-10000</valuemin>
													<valuemax>10000</valuemax>
													<value>0</value>
												</parameter>
											</effect>
										</filter>
										<sourcetrack>
											<mediatype>video</mediatype>
										</sourcetrack>
										<fielddominance>upper</fielddominance>
									</clipitem>
									<transitionitem id="5">
										<rate>
											<ntsc>FALSE</ntsc>
											<timebase>25</timebase>
										</rate>
										<start>2428</start>
										<end>2434</end>
										<alignment>center</alignment>
										<effect>
											<name>Cross Dissolve</name>
											<effectid>Cross Dissolve</effectid>
											<effectcategory>Dissolve</effectcategory>
											<effecttype>transition</effecttype>
											<mediatype>video</mediatype>
											<wipecode>0</wipecode>
											<wipeaccuracy>100</wipeaccuracy>
											<startratio>0</startratio>
											<endratio>1</endratio>
											<reverse>FALSE</reverse>
										</effect>
									</transitionitem>
									<clipitem id="msub200012-2511-001 21">
										<name>msub200012-2511-001</name>
										<duration>27694</duration>
										<rate>
											<ntsc>FALSE</ntsc>
											<timebase>25</timebase>
										</rate>
										<in>16385</in>
										<out>16798</out>
										<start>-1</start>
										<end>-1</end>
										<pixelaspectratio>Square</pixelaspectratio>
										<enabled>TRUE</enabled>
										<anamorphic>FALSE</anamorphic>
										<alphatype>none</alphatype>
										<alphareverse>FALSE</alphareverse>
										<masterclipid>msub200012-2511-001 1</masterclipid>
										<logginginfo>
											<description>msub200012-2511-001</description>
											<scene/>
											<shottake/>
											<lognote/>
											<good>FALSE</good>
										</logginginfo>
										<labels>
											<label2/>
										</labels>
										<comments>
											<mastercomment1>RÃ…STOFF. BR_FINFREDAG_MSUA_OPRO</mastercomment1>
											<mastercomment2/>
											<mastercomment3/>
											<mastercomment4/>
											<clipcommenta/>
										</comments>
										<file id="msub200012-2511-001 2"/>
										<filter>
											<effect>
												<name>Basic Motion</name>
												<effectid>basic</effectid>
												<effectcategory>motion</effectcategory>
												<effecttype>motion</effecttype>
												<mediatype>video</mediatype>
												<parameter>
													<parameterid>scale</parameterid>
													<name>Scale</name>
													<valuemin>0</valuemin>
													<valuemax>1000</valuemax>
													<value>100</value>
												</parameter>
												<parameter>
													<parameterid>rotation</parameterid>
													<name>Rotation</name>
													<valuemin>-8640</valuemin>
													<valuemax>8640</valuemax>
													<value>0</value>
												</parameter>
												<parameter>
													<parameterid>center</parameterid>
													<name>Center</name>
													<value>
														<horiz>0</horiz>
														<vert>0</vert>
													</value>
												</parameter>
												<parameter>
													<parameterid>centerOffset</parameterid>
													<name>Anchor Point</name>
													<value>
														<horiz>0</horiz>
														<vert>0</vert>
													</value>
												</parameter>
											</effect>
										</filter>
										<filter>
											<effect>
												<name>Crop</name>
												<effectid>crop</effectid>
												<effectcategory>motion</effectcategory>
												<effecttype>motion</effecttype>
												<mediatype>video</mediatype>
												<parameter>
													<parameterid>left</parameterid>
													<name>left</name>
													<valuemin>0</valuemin>
													<valuemax>100</valuemax>
													<value>0</value>
												</parameter>
												<parameter>
													<parameterid>right</parameterid>
													<name>right</name>
													<valuemin>0</valuemin>
													<valuemax>100</valuemax>
													<value>0</value>
												</parameter>
												<parameter>
													<parameterid>top</parameterid>
													<name>top</name>
													<valuemin>0</valuemin>
													<valuemax>100</valuemax>
													<value>0</value>
												</parameter>
												<parameter>
													<parameterid>bottom</parameterid>
													<name>bottom</name>
													<valuemin>0</valuemin>
													<valuemax>100</valuemax>
													<value>0</value>
												</parameter>
												<parameter>
													<parameterid>edgefeather</parameterid>
													<name>edgefeather</name>
													<valuemin>0</valuemin>
													<valuemax>100</valuemax>
													<value>0</value>
												</parameter>
											</effect>
										</filter>
										<filter>
											<effect>
												<name>Distort</name>
												<effectid>deformation</effectid>
												<effectcategory>motion</effectcategory>
												<effecttype>motion</effecttype>
												<mediatype>video</mediatype>
												<parameter>
													<parameterid>ulcorner</parameterid>
													<name>Upper Left</name>
													<value>
														<horiz>-0.5</horiz>
														<vert>-0.5</vert>
													</value>
												</parameter>
												<parameter>
													<parameterid>urcorner</parameterid>
													<name>Upper Right</name>
													<value>
														<horiz>0.5</horiz>
														<vert>-0.5</vert>
													</value>
												</parameter>
												<parameter>
													<parameterid>lrcorner</parameterid>
													<name>Lower Right</name>
													<value>
														<horiz>0.5</horiz>
														<vert>0.5</vert>
													</value>
												</parameter>
												<parameter>
													<parameterid>llcorner</parameterid>
													<name>Lower Left</name>
													<value>
														<horiz>-0.5</horiz>
														<vert>0.5</vert>
													</value>
												</parameter>
												<parameter>
													<parameterid>aspect</parameterid>
													<name>Aspect</name>
													<valuemin>-10000</valuemin>
													<valuemax>10000</valuemax>
													<value>0</value>
												</parameter>
											</effect>
										</filter>
										<sourcetrack>
											<mediatype>video</mediatype>
										</sourcetrack>
										<link>
											<linkclipref>msub200012-2511-001 21</linkclipref>
											<mediatype>video</mediatype>
											<trackindex>1</trackindex>
											<clipindex>20</clipindex>
										</link>
										<link>
											<linkclipref>msub200012-2511-001 22</linkclipref>
											<mediatype>audio</mediatype>
											<trackindex>1</trackindex>
											<clipindex>11</clipindex>
										</link>
										<link>
											<linkclipref>msub200012-2511-001 23</linkclipref>
											<mediatype>audio</mediatype>
											<trackindex>2</trackindex>
											<clipindex>11</clipindex>
										</link>
										<fielddominance>upper</fielddominance>
									</clipitem>
									<transitionitem id="6">
										<rate>
											<ntsc>FALSE</ntsc>
											<timebase>25</timebase>
										</rate>
										<start>2831</start>
										<end>2841</end>
										<alignment>center</alignment>
										<effect>
											<name>Dip to Color Dissolve</name>
											<effectid>Dip to Color Dissolve</effectid>
											<effectcategory>Dissolve</effectcategory>
											<effecttype>transition</effecttype>
											<mediatype>video</mediatype>
											<wipecode>0</wipecode>
											<wipeaccuracy>100</wipeaccuracy>
											<startratio>0</startratio>
											<endratio>1</endratio>
											<reverse>FALSE</reverse>
											<parameter>
												<parameterid>threshold</parameterid>
												<name>Threshold</name>
												<valuemin>0</valuemin>
												<valuemax>100</valuemax>
												<value>50</value>
											</parameter>
											<parameter>
												<parameterid>soft</parameterid>
												<name>Soft</name>
												<valuemin>0</valuemin>
												<valuemax>100</valuemax>
												<value>100</value>
											</parameter>
											<parameter>
												<parameterid>dipcolor</parameterid>
												<name>Color</name>
												<value>
													<alpha>255</alpha>
													<red>255</red>
													<green>255</green>
													<blue>255</blue>
												</value>
											</parameter>
										</effect>
									</transitionitem>
									<clipitem id="msub200012-2511-001 24">
										<name>msub200012-2511-001</name>
										<duration>27694</duration>
										<rate>
											<ntsc>FALSE</ntsc>
											<timebase>25</timebase>
										</rate>
										<in>16101</in>
										<out>16163</out>
										<start>-1</start>
										<end>-1</end>
										<pixelaspectratio>Square</pixelaspectratio>
										<enabled>TRUE</enabled>
										<anamorphic>FALSE</anamorphic>
										<alphatype>none</alphatype>
										<alphareverse>FALSE</alphareverse>
										<masterclipid>msub200012-2511-001 1</masterclipid>
										<logginginfo>
											<description>msub200012-2511-001</description>
											<scene/>
											<shottake/>
											<lognote/>
											<good>FALSE</good>
										</logginginfo>
										<labels>
											<label2/>
										</labels>
										<comments>
											<mastercomment1>RÃ…STOFF. BR_FINFREDAG_MSUA_OPRO</mastercomment1>
											<mastercomment2/>
											<mastercomment3/>
											<mastercomment4/>
											<clipcommenta/>
										</comments>
										<file id="msub200012-2511-001 2"/>
										<filter>
											<effect>
												<name>Basic Motion</name>
												<effectid>basic</effectid>
												<effectcategory>motion</effectcategory>
												<effecttype>motion</effecttype>
												<mediatype>video</mediatype>
												<parameter>
													<parameterid>scale</parameterid>
													<name>Scale</name>
													<valuemin>0</valuemin>
													<valuemax>1000</valuemax>
													<value>100</value>
												</parameter>
												<parameter>
													<parameterid>rotation</parameterid>
													<name>Rotation</name>
													<valuemin>-8640</valuemin>
													<valuemax>8640</valuemax>
													<value>0</value>
												</parameter>
												<parameter>
													<parameterid>center</parameterid>
													<name>Center</name>
													<value>
														<horiz>0</horiz>
														<vert>0</vert>
													</value>
												</parameter>
												<parameter>
													<parameterid>centerOffset</parameterid>
													<name>Anchor Point</name>
													<value>
														<horiz>0</horiz>
														<vert>0</vert>
													</value>
												</parameter>
											</effect>
										</filter>
										<filter>
											<effect>
												<name>Crop</name>
												<effectid>crop</effectid>
												<effectcategory>motion</effectcategory>
												<effecttype>motion</effecttype>
												<mediatype>video</mediatype>
												<parameter>
													<parameterid>left</parameterid>
													<name>left</name>
													<valuemin>0</valuemin>
													<valuemax>100</valuemax>
													<value>0</value>
												</parameter>
												<parameter>
													<parameterid>right</parameterid>
													<name>right</name>
													<valuemin>0</valuemin>
													<valuemax>100</valuemax>
													<value>0</value>
												</parameter>
												<parameter>
													<parameterid>top</parameterid>
													<name>top</name>
													<valuemin>0</valuemin>
													<valuemax>100</valuemax>
													<value>0</value>
												</parameter>
												<parameter>
													<parameterid>bottom</parameterid>
													<name>bottom</name>
													<valuemin>0</valuemin>
													<valuemax>100</valuemax>
													<value>0</value>
												</parameter>
												<parameter>
													<parameterid>edgefeather</parameterid>
													<name>edgefeather</name>
													<valuemin>0</valuemin>
													<valuemax>100</valuemax>
													<value>0</value>
												</parameter>
											</effect>
										</filter>
										<filter>
											<effect>
												<name>Distort</name>
												<effectid>deformation</effectid>
												<effectcategory>motion</effectcategory>
												<effecttype>motion</effecttype>
												<mediatype>video</mediatype>
												<parameter>
													<parameterid>ulcorner</parameterid>
													<name>Upper Left</name>
													<value>
														<horiz>-0.5</horiz>
														<vert>-0.5</vert>
													</value>
												</parameter>
												<parameter>
													<parameterid>urcorner</parameterid>
													<name>Upper Right</name>
													<value>
														<horiz>0.5</horiz>
														<vert>-0.5</vert>
													</value>
												</parameter>
												<parameter>
													<parameterid>lrcorner</parameterid>
													<name>Lower Right</name>
													<value>
														<horiz>0.5</horiz>
														<vert>0.5</vert>
													</value>
												</parameter>
												<parameter>
													<parameterid>llcorner</parameterid>
													<name>Lower Left</name>
													<value>
														<horiz>-0.5</horiz>
														<vert>0.5</vert>
													</value>
												</parameter>
												<parameter>
													<parameterid>aspect</parameterid>
													<name>Aspect</name>
													<valuemin>-10000</valuemin>
													<valuemax>10000</valuemax>
													<value>0</value>
												</parameter>
											</effect>
										</filter>
										<sourcetrack>
											<mediatype>video</mediatype>
										</sourcetrack>
										<fielddominance>upper</fielddominance>
									</clipitem>
									<transitionitem id="7">
										<rate>
											<ntsc>FALSE</ntsc>
											<timebase>25</timebase>
										</rate>
										<start>2887</start>
										<end>2893</end>
										<alignment>center</alignment>
										<effect>
											<name>Cross Dissolve</name>
											<effectid>Cross Dissolve</effectid>
											<effectcategory>Dissolve</effectcategory>
											<effecttype>transition</effecttype>
											<mediatype>video</mediatype>
											<wipecode>0</wipecode>
											<wipeaccuracy>100</wipeaccuracy>
											<startratio>0</startratio>
											<endratio>1</endratio>
											<reverse>FALSE</reverse>
										</effect>
									</transitionitem>
									<clipitem id="msub200012-2511-001 25">
										<name>msub200012-2511-001</name>
										<duration>27694</duration>
										<rate>
											<ntsc>FALSE</ntsc>
											<timebase>25</timebase>
										</rate>
										<in>20902</in>
										<out>21190</out>
										<start>-1</start>
										<end>-1</end>
										<pixelaspectratio>Square</pixelaspectratio>
										<enabled>TRUE</enabled>
										<anamorphic>FALSE</anamorphic>
										<alphatype>none</alphatype>
										<alphareverse>FALSE</alphareverse>
										<masterclipid>msub200012-2511-001 1</masterclipid>
										<logginginfo>
											<description>msub200012-2511-001</description>
											<scene/>
											<shottake/>
											<lognote/>
											<good>FALSE</good>
										</logginginfo>
										<labels>
											<label2/>
										</labels>
										<comments>
											<mastercomment1>RÃ…STOFF. BR_FINFREDAG_MSUA_OPRO</mastercomment1>
											<mastercomment2/>
											<mastercomment3/>
											<mastercomment4/>
											<clipcommenta/>
										</comments>
										<file id="msub200012-2511-001 2"/>
										<filter>
											<effect>
												<name>Basic Motion</name>
												<effectid>basic</effectid>
												<effectcategory>motion</effectcategory>
												<effecttype>motion</effecttype>
												<mediatype>video</mediatype>
												<parameter>
													<parameterid>scale</parameterid>
													<name>Scale</name>
													<valuemin>0</valuemin>
													<valuemax>1000</valuemax>
													<value>100</value>
												</parameter>
												<parameter>
													<parameterid>rotation</parameterid>
													<name>Rotation</name>
													<valuemin>-8640</valuemin>
													<valuemax>8640</valuemax>
													<value>0</value>
												</parameter>
												<parameter>
													<parameterid>center</parameterid>
													<name>Center</name>
													<value>
														<horiz>0</horiz>
														<vert>0</vert>
													</value>
												</parameter>
												<parameter>
													<parameterid>centerOffset</parameterid>
													<name>Anchor Point</name>
													<value>
														<horiz>0</horiz>
														<vert>0</vert>
													</value>
												</parameter>
											</effect>
										</filter>
										<filter>
											<effect>
												<name>Crop</name>
												<effectid>crop</effectid>
												<effectcategory>motion</effectcategory>
												<effecttype>motion</effecttype>
												<mediatype>video</mediatype>
												<parameter>
													<parameterid>left</parameterid>
													<name>left</name>
													<valuemin>0</valuemin>
													<valuemax>100</valuemax>
													<value>0</value>
												</parameter>
												<parameter>
													<parameterid>right</parameterid>
													<name>right</name>
													<valuemin>0</valuemin>
													<valuemax>100</valuemax>
													<value>0</value>
												</parameter>
												<parameter>
													<parameterid>top</parameterid>
													<name>top</name>
													<valuemin>0</valuemin>
													<valuemax>100</valuemax>
													<value>0</value>
												</parameter>
												<parameter>
													<parameterid>bottom</parameterid>
													<name>bottom</name>
													<valuemin>0</valuemin>
													<valuemax>100</valuemax>
													<value>0</value>
												</parameter>
												<parameter>
													<parameterid>edgefeather</parameterid>
													<name>edgefeather</name>
													<valuemin>0</valuemin>
													<valuemax>100</valuemax>
													<value>0</value>
												</parameter>
											</effect>
										</filter>
										<filter>
											<effect>
												<name>Distort</name>
												<effectid>deformation</effectid>
												<effectcategory>motion</effectcategory>
												<effecttype>motion</effecttype>
												<mediatype>video</mediatype>
												<parameter>
													<parameterid>ulcorner</parameterid>
													<name>Upper Left</name>
													<value>
														<horiz>-0.5</horiz>
														<vert>-0.5</vert>
													</value>
												</parameter>
												<parameter>
													<parameterid>urcorner</parameterid>
													<name>Upper Right</name>
													<value>
														<horiz>0.5</horiz>
														<vert>-0.5</vert>
													</value>
												</parameter>
												<parameter>
													<parameterid>lrcorner</parameterid>
													<name>Lower Right</name>
													<value>
														<horiz>0.5</horiz>
														<vert>0.5</vert>
													</value>
												</parameter>
												<parameter>
													<parameterid>llcorner</parameterid>
													<name>Lower Left</name>
													<value>
														<horiz>-0.5</horiz>
														<vert>0.5</vert>
													</value>
												</parameter>
												<parameter>
													<parameterid>aspect</parameterid>
													<name>Aspect</name>
													<valuemin>-10000</valuemin>
													<valuemax>10000</valuemax>
													<value>0</value>
												</parameter>
											</effect>
										</filter>
										<sourcetrack>
											<mediatype>video</mediatype>
										</sourcetrack>
										<fielddominance>upper</fielddominance>
									</clipitem>
									<transitionitem id="8">
										<rate>
											<ntsc>FALSE</ntsc>
											<timebase>25</timebase>
										</rate>
										<start>3165</start>
										<end>3175</end>
										<alignment>center</alignment>
										<effect>
											<name>Dip to Color Dissolve</name>
											<effectid>Dip to Color Dissolve</effectid>
											<effectcategory>Dissolve</effectcategory>
											<effecttype>transition</effecttype>
											<mediatype>video</mediatype>
											<wipecode>0</wipecode>
											<wipeaccuracy>100</wipeaccuracy>
											<startratio>0</startratio>
											<endratio>1</endratio>
											<reverse>FALSE</reverse>
											<parameter>
												<parameterid>threshold</parameterid>
												<name>Threshold</name>
												<valuemin>0</valuemin>
												<valuemax>100</valuemax>
												<value>50</value>
											</parameter>
											<parameter>
												<parameterid>soft</parameterid>
												<name>Soft</name>
												<valuemin>0</valuemin>
												<valuemax>100</valuemax>
												<value>100</value>
											</parameter>
											<parameter>
												<parameterid>dipcolor</parameterid>
												<name>Color</name>
												<value>
													<alpha>255</alpha>
													<red>255</red>
													<green>255</green>
													<blue>255</blue>
												</value>
											</parameter>
										</effect>
									</transitionitem>
									<clipitem id="msub200012-2511-001 26">
										<name>msub200012-2511-001</name>
										<duration>27694</duration>
										<rate>
											<ntsc>FALSE</ntsc>
											<timebase>25</timebase>
										</rate>
										<in>25718</in>
										<out>26273</out>
										<start>-1</start>
										<end>-1</end>
										<pixelaspectratio>Square</pixelaspectratio>
										<enabled>TRUE</enabled>
										<anamorphic>FALSE</anamorphic>
										<alphatype>none</alphatype>
										<alphareverse>FALSE</alphareverse>
										<masterclipid>msub200012-2511-001 1</masterclipid>
										<logginginfo>
											<description>msub200012-2511-001</description>
											<scene/>
											<shottake/>
											<lognote/>
											<good>FALSE</good>
										</logginginfo>
										<labels>
											<label2/>
										</labels>
										<comments>
											<mastercomment1>RÃ…STOFF. BR_FINFREDAG_MSUA_OPRO</mastercomment1>
											<mastercomment2/>
											<mastercomment3/>
											<mastercomment4/>
											<clipcommenta/>
										</comments>
										<file id="msub200012-2511-001 2"/>
										<filter>
											<effect>
												<name>Basic Motion</name>
												<effectid>basic</effectid>
												<effectcategory>motion</effectcategory>
												<effecttype>motion</effecttype>
												<mediatype>video</mediatype>
												<parameter>
													<parameterid>scale</parameterid>
													<name>Scale</name>
													<valuemin>0</valuemin>
													<valuemax>1000</valuemax>
													<value>100</value>
												</parameter>
												<parameter>
													<parameterid>rotation</parameterid>
													<name>Rotation</name>
													<valuemin>-8640</valuemin>
													<valuemax>8640</valuemax>
													<value>0</value>
												</parameter>
												<parameter>
													<parameterid>center</parameterid>
													<name>Center</name>
													<value>
														<horiz>0</horiz>
														<vert>0</vert>
													</value>
												</parameter>
												<parameter>
													<parameterid>centerOffset</parameterid>
													<name>Anchor Point</name>
													<value>
														<horiz>0</horiz>
														<vert>0</vert>
													</value>
												</parameter>
											</effect>
										</filter>
										<filter>
											<effect>
												<name>Crop</name>
												<effectid>crop</effectid>
												<effectcategory>motion</effectcategory>
												<effecttype>motion</effecttype>
												<mediatype>video</mediatype>
												<parameter>
													<parameterid>left</parameterid>
													<name>left</name>
													<valuemin>0</valuemin>
													<valuemax>100</valuemax>
													<value>0</value>
												</parameter>
												<parameter>
													<parameterid>right</parameterid>
													<name>right</name>
													<valuemin>0</valuemin>
													<valuemax>100</valuemax>
													<value>0</value>
												</parameter>
												<parameter>
													<parameterid>top</parameterid>
													<name>top</name>
													<valuemin>0</valuemin>
													<valuemax>100</valuemax>
													<value>0</value>
												</parameter>
												<parameter>
													<parameterid>bottom</parameterid>
													<name>bottom</name>
													<valuemin>0</valuemin>
													<valuemax>100</valuemax>
													<value>0</value>
												</parameter>
												<parameter>
													<parameterid>edgefeather</parameterid>
													<name>edgefeather</name>
													<valuemin>0</valuemin>
													<valuemax>100</valuemax>
													<value>0</value>
												</parameter>
											</effect>
										</filter>
										<filter>
											<effect>
												<name>Distort</name>
												<effectid>deformation</effectid>
												<effectcategory>motion</effectcategory>
												<effecttype>motion</effecttype>
												<mediatype>video</mediatype>
												<parameter>
													<parameterid>ulcorner</parameterid>
													<name>Upper Left</name>
													<value>
														<horiz>-0.5</horiz>
														<vert>-0.5</vert>
													</value>
												</parameter>
												<parameter>
													<parameterid>urcorner</parameterid>
													<name>Upper Right</name>
													<value>
														<horiz>0.5</horiz>
														<vert>-0.5</vert>
													</value>
												</parameter>
												<parameter>
													<parameterid>lrcorner</parameterid>
													<name>Lower Right</name>
													<value>
														<horiz>0.5</horiz>
														<vert>0.5</vert>
													</value>
												</parameter>
												<parameter>
													<parameterid>llcorner</parameterid>
													<name>Lower Left</name>
													<value>
														<horiz>-0.5</horiz>
														<vert>0.5</vert>
													</value>
												</parameter>
												<parameter>
													<parameterid>aspect</parameterid>
													<name>Aspect</name>
													<valuemin>-10000</valuemin>
													<valuemax>10000</valuemax>
													<value>0</value>
												</parameter>
											</effect>
										</filter>
										<sourcetrack>
											<mediatype>video</mediatype>
										</sourcetrack>
										<link>
											<linkclipref>msub200012-2511-001 26</linkclipref>
											<mediatype>video</mediatype>
											<trackindex>1</trackindex>
											<clipindex>26</clipindex>
										</link>
										<link>
											<linkclipref>msub200012-2511-001 27</linkclipref>
											<mediatype>audio</mediatype>
											<trackindex>1</trackindex>
											<clipindex>13</clipindex>
										</link>
										<link>
											<linkclipref>msub200012-2511-001 28</linkclipref>
											<mediatype>audio</mediatype>
											<trackindex>2</trackindex>
											<clipindex>13</clipindex>
										</link>
										<fielddominance>upper</fielddominance>
									</clipitem>
									<transitionitem id="9">
										<rate>
											<ntsc>FALSE</ntsc>
											<timebase>25</timebase>
										</rate>
										<start>3710</start>
										<end>3720</end>
										<alignment>center</alignment>
										<effect>
											<name>Dip to Color Dissolve</name>
											<effectid>Dip to Color Dissolve</effectid>
											<effectcategory>Dissolve</effectcategory>
											<effecttype>transition</effecttype>
											<mediatype>video</mediatype>
											<wipecode>0</wipecode>
											<wipeaccuracy>100</wipeaccuracy>
											<startratio>0</startratio>
											<endratio>1</endratio>
											<reverse>FALSE</reverse>
											<parameter>
												<parameterid>threshold</parameterid>
												<name>Threshold</name>
												<valuemin>0</valuemin>
												<valuemax>100</valuemax>
												<value>50</value>
											</parameter>
											<parameter>
												<parameterid>soft</parameterid>
												<name>Soft</name>
												<valuemin>0</valuemin>
												<valuemax>100</valuemax>
												<value>100</value>
											</parameter>
											<parameter>
												<parameterid>dipcolor</parameterid>
												<name>Color</name>
												<value>
													<alpha>255</alpha>
													<red>255</red>
													<green>255</green>
													<blue>255</blue>
												</value>
											</parameter>
										</effect>
									</transitionitem>
									<clipitem id="msub200012-2511-001 29">
										<name>msub200012-2511-001</name>
										<duration>27694</duration>
										<rate>
											<ntsc>FALSE</ntsc>
											<timebase>25</timebase>
										</rate>
										<in>19810</in>
										<out>20141</out>
										<start>-1</start>
										<end>4041</end>
										<pixelaspectratio>Square</pixelaspectratio>
										<enabled>TRUE</enabled>
										<anamorphic>FALSE</anamorphic>
										<alphatype>none</alphatype>
										<alphareverse>FALSE</alphareverse>
										<masterclipid>msub200012-2511-001 1</masterclipid>
										<logginginfo>
											<description>msub200012-2511-001</description>
											<scene/>
											<shottake/>
											<lognote/>
											<good>FALSE</good>
										</logginginfo>
										<labels>
											<label2/>
										</labels>
										<comments>
											<mastercomment1>RÃ…STOFF. BR_FINFREDAG_MSUA_OPRO</mastercomment1>
											<mastercomment2/>
											<mastercomment3/>
											<mastercomment4/>
											<clipcommenta/>
										</comments>
										<file id="msub200012-2511-001 2"/>
										<filter>
											<effect>
												<name>Basic Motion</name>
												<effectid>basic</effectid>
												<effectcategory>motion</effectcategory>
												<effecttype>motion</effecttype>
												<mediatype>video</mediatype>
												<parameter>
													<parameterid>scale</parameterid>
													<name>Scale</name>
													<valuemin>0</valuemin>
													<valuemax>1000</valuemax>
													<value>100</value>
												</parameter>
												<parameter>
													<parameterid>rotation</parameterid>
													<name>Rotation</name>
													<valuemin>-8640</valuemin>
													<valuemax>8640</valuemax>
													<value>0</value>
												</parameter>
												<parameter>
													<parameterid>center</parameterid>
													<name>Center</name>
													<value>
														<horiz>0</horiz>
														<vert>0</vert>
													</value>
												</parameter>
												<parameter>
													<parameterid>centerOffset</parameterid>
													<name>Anchor Point</name>
													<value>
														<horiz>0</horiz>
														<vert>0</vert>
													</value>
												</parameter>
											</effect>
										</filter>
										<filter>
											<effect>
												<name>Crop</name>
												<effectid>crop</effectid>
												<effectcategory>motion</effectcategory>
												<effecttype>motion</effecttype>
												<mediatype>video</mediatype>
												<parameter>
													<parameterid>left</parameterid>
													<name>left</name>
													<valuemin>0</valuemin>
													<valuemax>100</valuemax>
													<value>0</value>
												</parameter>
												<parameter>
													<parameterid>right</parameterid>
													<name>right</name>
													<valuemin>0</valuemin>
													<valuemax>100</valuemax>
													<value>0</value>
												</parameter>
												<parameter>
													<parameterid>top</parameterid>
													<name>top</name>
													<valuemin>0</valuemin>
													<valuemax>100</valuemax>
													<value>0</value>
												</parameter>
												<parameter>
													<parameterid>bottom</parameterid>
													<name>bottom</name>
													<valuemin>0</valuemin>
													<valuemax>100</valuemax>
													<value>0</value>
												</parameter>
												<parameter>
													<parameterid>edgefeather</parameterid>
													<name>edgefeather</name>
													<valuemin>0</valuemin>
													<valuemax>100</valuemax>
													<value>0</value>
												</parameter>
											</effect>
										</filter>
										<filter>
											<effect>
												<name>Distort</name>
												<effectid>deformation</effectid>
												<effectcategory>motion</effectcategory>
												<effecttype>motion</effecttype>
												<mediatype>video</mediatype>
												<parameter>
													<parameterid>ulcorner</parameterid>
													<name>Upper Left</name>
													<value>
														<horiz>-0.5</horiz>
														<vert>-0.5</vert>
													</value>
												</parameter>
												<parameter>
													<parameterid>urcorner</parameterid>
													<name>Upper Right</name>
													<value>
														<horiz>0.5</horiz>
														<vert>-0.5</vert>
													</value>
												</parameter>
												<parameter>
													<parameterid>lrcorner</parameterid>
													<name>Lower Right</name>
													<value>
														<horiz>0.5</horiz>
														<vert>0.5</vert>
													</value>
												</parameter>
												<parameter>
													<parameterid>llcorner</parameterid>
													<name>Lower Left</name>
													<value>
														<horiz>-0.5</horiz>
														<vert>0.5</vert>
													</value>
												</parameter>
												<parameter>
													<parameterid>aspect</parameterid>
													<name>Aspect</name>
													<valuemin>-10000</valuemin>
													<valuemax>10000</valuemax>
													<value>0</value>
												</parameter>
											</effect>
										</filter>
										<sourcetrack>
											<mediatype>video</mediatype>
										</sourcetrack>
										<link>
											<linkclipref>msub200012-2511-001 29</linkclipref>
											<mediatype>video</mediatype>
											<trackindex>1</trackindex>
											<clipindex>28</clipindex>
										</link>
										<link>
											<linkclipref>msub200012-2511-001 30</linkclipref>
											<mediatype>audio</mediatype>
											<trackindex>1</trackindex>
											<clipindex>14</clipindex>
										</link>
										<link>
											<linkclipref>msub200012-2511-001 31</linkclipref>
											<mediatype>audio</mediatype>
											<trackindex>2</trackindex>
											<clipindex>14</clipindex>
										</link>
										<fielddominance>upper</fielddominance>
									</clipitem>
									<enabled>TRUE</enabled>
									<locked>FALSE</locked>
								</track>
								<track>
									<transitionitem id="919998468 ">
										<rate>
											<ntsc>FALSE</ntsc>
											<timebase>25</timebase>
										</rate>
										<start>1997</start>
										<end>2007</end>
										<alignment>center</alignment>
										<effect>
											<name>Cross Dissolve</name>
											<effectid>Cross Dissolve</effectid>
											<effectcategory>Dissolve</effectcategory>
											<effecttype>transition</effecttype>
											<mediatype>video</mediatype>
											<wipecode>0</wipecode>
											<wipeaccuracy>100</wipeaccuracy>
											<startratio>0</startratio>
											<endratio>1</endratio>
											<reverse>FALSE</reverse>
										</effect>
									</transitionitem>
									<generatoritem id="Text1">
										<name>Text</name>
										<duration>3000</duration>
										<rate>
											<ntsc>FALSE</ntsc>
											<timebase>25</timebase>
										</rate>
										<in>1370</in>
										<out>1732</out>
										<start>-1</start>
										<end>-1</end>
										<enabled>TRUE</enabled>
										<anamorphic>FALSE</anamorphic>
										<alphatype>black</alphatype>
										<alphareverse>FALSE</alphareverse>
										<effect>
											<name>Text</name>
											<effectid>Text</effectid>
											<effectcategory>Text</effectcategory>
											<effecttype>generator</effecttype>
											<mediatype>video</mediatype>
											<parameter>
												<parameterid>str</parameterid>
												<name>Text</name>
												<value>fra programmet&#13;"Gulost - meir enn gouda"&#13;sendt i 1971</value>
											</parameter>
											<parameter>
												<parameterid>fontname</parameterid>
												<name>Font</name>
												<value>Lucida Grande</value>
											</parameter>
											<parameter>
												<parameterid>fontsize</parameterid>
												<name>Size</name>
												<valuemin>0</valuemin>
												<valuemax>1000</valuemax>
												<value>15</value>
											</parameter>
											<parameter>
												<parameterid>fontstyle</parameterid>
												<name>Style</name>
												<valuemin>1</valuemin>
												<valuemax>4</valuemax>
												<valuelist>
													<valueentry>
														<name>Plain</name>
														<value>1</value>
													</valueentry>
													<valueentry>
														<name>Bold</name>
														<value>2</value>
													</valueentry>
													<valueentry>
														<name>Italic</name>
														<value>3</value>
													</valueentry>
													<valueentry>
														<name>Bold/Italic</name>
														<value>4</value>
													</valueentry>
												</valuelist>
												<value>2</value>
											</parameter>
											<parameter>
												<parameterid>fontalign</parameterid>
												<name>Alignment</name>
												<valuemin>1</valuemin>
												<valuemax>3</valuemax>
												<valuelist>
													<valueentry>
														<name>Left</name>
														<value>1</value>
													</valueentry>
													<valueentry>
														<name>Center</name>
														<value>2</value>
													</valueentry>
													<valueentry>
														<name>Right</name>
														<value>3</value>
													</valueentry>
												</valuelist>
												<value>2</value>
											</parameter>
											<parameter>
												<parameterid>fontcolor</parameterid>
												<name>Font Color</name>
												<value>
													<alpha>255</alpha>
													<red>171</red>
													<green>4</green>
													<blue>0</blue>
												</value>
											</parameter>
											<parameter>
												<parameterid>origin</parameterid>
												<name>Origin</name>
												<value>
													<horiz>0</horiz>
													<vert>0</vert>
												</value>
											</parameter>
											<parameter>
												<parameterid>fonttrack</parameterid>
												<name>Tracking</name>
												<valuemin>-200</valuemin>
												<valuemax>200</valuemax>
												<value>1</value>
											</parameter>
											<parameter>
												<parameterid>leading</parameterid>
												<name>Leading</name>
												<valuemin>-100</valuemin>
												<valuemax>100</valuemax>
												<value>0</value>
											</parameter>
											<parameter>
												<parameterid>aspect</parameterid>
												<name>Aspect</name>
												<valuemin>0.1</valuemin>
												<valuemax>5</valuemax>
												<value>1</value>
											</parameter>
											<parameter>
												<parameterid>autokern</parameterid>
												<name>Auto Kerning</name>
												<value>TRUE</value>
											</parameter>
											<parameter>
												<parameterid>subpixel</parameterid>
												<name>Use Subpixel</name>
												<value>TRUE</value>
											</parameter>
										</effect>
										<filter>
											<effect>
												<name>Basic Motion</name>
												<effectid>basic</effectid>
												<effectcategory>motion</effectcategory>
												<effecttype>motion</effecttype>
												<mediatype>video</mediatype>
												<parameter>
													<parameterid>center</parameterid>
													<name>Center</name>
													<value>
														<horiz>-0.207303</horiz>
														<vert>-0.384937</vert>
													</value>
												</parameter>
												<parameter>
													<parameterid>scale</parameterid>
													<name>Scale</name>
													<valuemin>0</valuemin>
													<valuemax>1000</valuemax>
													<value>100</value>
												</parameter>
												<parameter>
													<parameterid>rotation</parameterid>
													<name>Rotation</name>
													<valuemin>-8640</valuemin>
													<valuemax>8640</valuemax>
													<value>0</value>
												</parameter>
												<parameter>
													<parameterid>centerOffset</parameterid>
													<name>Anchor Point</name>
													<value>
														<horiz>0</horiz>
														<vert>0</vert>
													</value>
												</parameter>
											</effect>
										</filter>
										<filter>
											<enabled>TRUE</enabled>
											<effect>
												<name>Drop Shadow</name>
												<effectid>dropshadow</effectid>
												<effectcategory>motion</effectcategory>
												<effecttype>motion</effecttype>
												<mediatype>video</mediatype>
												<parameter>
													<parameterid>offset</parameterid>
													<name>offset</name>
													<valuemin>-100</valuemin>
													<valuemax>100</valuemax>
													<value>0.5</value>
												</parameter>
												<parameter>
													<parameterid>angle</parameterid>
													<name>angle</name>
													<valuemin>-720</valuemin>
													<valuemax>720</valuemax>
													<value>135</value>
												</parameter>
												<parameter>
													<parameterid>color</parameterid>
													<name>color</name>
													<value>
														<alpha>0</alpha>
														<red>0</red>
														<green>0</green>
														<blue>0</blue>
													</value>
												</parameter>
												<parameter>
													<parameterid>softness</parameterid>
													<name>softness</name>
													<valuemin>0</valuemin>
													<valuemax>100</valuemax>
													<value>10</value>
												</parameter>
												<parameter>
													<parameterid>opacity</parameterid>
													<name>opacity</name>
													<valuemin>0</valuemin>
													<valuemax>100</valuemax>
													<value>100</value>
												</parameter>
											</effect>
										</filter>
										<filter>
											<enabled>FALSE</enabled>
											<effect>
												<name>Motion Blur</name>
												<effectid>motionblur</effectid>
												<effectcategory>motion</effectcategory>
												<effecttype>motion</effecttype>
												<mediatype>video</mediatype>
												<parameter>
													<parameterid>duration</parameterid>
													<name>% Blur</name>
													<valuemin>0</valuemin>
													<valuemax>1000</valuemax>
													<value>500</value>
												</parameter>
												<parameter>
													<parameterid>samples</parameterid>
													<name>Samples</name>
													<valuemin>1</valuemin>
													<valuemax>16</valuemax>
													<value>4</value>
												</parameter>
											</effect>
										</filter>
										<filter>
											<effect>
												<name>Crop</name>
												<effectid>crop</effectid>
												<effectcategory>motion</effectcategory>
												<effecttype>motion</effecttype>
												<mediatype>video</mediatype>
												<parameter>
													<parameterid>left</parameterid>
													<name>left</name>
													<valuemin>0</valuemin>
													<valuemax>100</valuemax>
													<value>0</value>
												</parameter>
												<parameter>
													<parameterid>right</parameterid>
													<name>right</name>
													<valuemin>0</valuemin>
													<valuemax>100</valuemax>
													<value>0</value>
												</parameter>
												<parameter>
													<parameterid>top</parameterid>
													<name>top</name>
													<valuemin>0</valuemin>
													<valuemax>100</valuemax>
													<value>0</value>
												</parameter>
												<parameter>
													<parameterid>bottom</parameterid>
													<name>bottom</name>
													<valuemin>0</valuemin>
													<valuemax>100</valuemax>
													<value>0</value>
												</parameter>
												<parameter>
													<parameterid>edgefeather</parameterid>
													<name>edgefeather</name>
													<valuemin>0</valuemin>
													<valuemax>100</valuemax>
													<value>0</value>
												</parameter>
											</effect>
										</filter>
										<filter>
											<effect>
												<name>Distort</name>
												<effectid>deformation</effectid>
												<effectcategory>motion</effectcategory>
												<effecttype>motion</effecttype>
												<mediatype>video</mediatype>
												<parameter>
													<parameterid>ulcorner</parameterid>
													<name>Upper Left</name>
													<value>
														<horiz>-0.5</horiz>
														<vert>-0.5</vert>
													</value>
												</parameter>
												<parameter>
													<parameterid>urcorner</parameterid>
													<name>Upper Right</name>
													<value>
														<horiz>0.5</horiz>
														<vert>-0.5</vert>
													</value>
												</parameter>
												<parameter>
													<parameterid>lrcorner</parameterid>
													<name>Lower Right</name>
													<value>
														<horiz>0.5</horiz>
														<vert>0.5</vert>
													</value>
												</parameter>
												<parameter>
													<parameterid>llcorner</parameterid>
													<name>Lower Left</name>
													<value>
														<horiz>-0.5</horiz>
														<vert>0.5</vert>
													</value>
												</parameter>
												<parameter>
													<parameterid>aspect</parameterid>
													<name>Aspect</name>
													<valuemin>-10000</valuemin>
													<valuemax>10000</valuemax>
													<value>0</value>
												</parameter>
											</effect>
										</filter>
										<filter>
											<effect>
												<name>Opacity</name>
												<effectid>opacity</effectid>
												<effectcategory>motion</effectcategory>
												<effecttype>motion</effecttype>
												<mediatype>video</mediatype>
												<parameter>
													<parameterid>opacity</parameterid>
													<name>opacity</name>
													<valuemin>0</valuemin>
													<valuemax>100</valuemax>
													<value>100</value>
												</parameter>
											</effect>
										</filter>
										<sourcetrack>
											<mediatype>video</mediatype>
										</sourcetrack>
									</generatoritem>
									<transitionitem id="920002616 ">
										<rate>
											<ntsc>FALSE</ntsc>
											<timebase>25</timebase>
										</rate>
										<start>2349</start>
										<end>2359</end>
										<alignment>center</alignment>
										<effect>
											<name>Dip to Color Dissolve</name>
											<effectid>Dip to Color Dissolve</effectid>
											<effectcategory>Dissolve</effectcategory>
											<effecttype>transition</effecttype>
											<mediatype>video</mediatype>
											<wipecode>0</wipecode>
											<wipeaccuracy>100</wipeaccuracy>
											<startratio>0</startratio>
											<endratio>1</endratio>
											<reverse>FALSE</reverse>
											<parameter>
												<parameterid>threshold</parameterid>
												<name>Threshold</name>
												<valuemin>0</valuemin>
												<valuemax>100</valuemax>
												<value>50</value>
											</parameter>
											<parameter>
												<parameterid>soft</parameterid>
												<name>Soft</name>
												<valuemin>0</valuemin>
												<valuemax>100</valuemax>
												<value>100</value>
											</parameter>
											<parameter>
												<parameterid>dipcolor</parameterid>
												<name>Color</name>
												<value>
													<alpha>255</alpha>
													<red>255</red>
													<green>255</green>
													<blue>255</blue>
												</value>
											</parameter>
										</effect>
									</transitionitem>
									<enabled>TRUE</enabled>
									<locked>FALSE</locked>
								</track>
								<track>
									<enabled>TRUE</enabled>
									<locked>FALSE</locked>
								</track>
								<track>
									<enabled>TRUE</enabled>
									<locked>FALSE</locked>
								</track>
								<track>
									<enabled>TRUE</enabled>
									<locked>FALSE</locked>
								</track>
								<track>
									<enabled>TRUE</enabled>
									<locked>FALSE</locked>
								</track>
								<track>
									<enabled>TRUE</enabled>
									<locked>FALSE</locked>
								</track>
								<track>
									<enabled>TRUE</enabled>
									<locked>FALSE</locked>
								</track>
								<track>
									<enabled>TRUE</enabled>
									<locked>FALSE</locked>
								</track>
								<track>
									<enabled>TRUE</enabled>
									<locked>FALSE</locked>
								</track>
								<track>
									<enabled>TRUE</enabled>
									<locked>FALSE</locked>
								</track>
								<track>
									<enabled>TRUE</enabled>
									<locked>FALSE</locked>
								</track>
								<track>
									<enabled>TRUE</enabled>
									<locked>FALSE</locked>
								</track>
								<track>
									<enabled>TRUE</enabled>
									<locked>FALSE</locked>
								</track>
								<track>
									<enabled>TRUE</enabled>
									<locked>FALSE</locked>
								</track>
								<track>
									<enabled>TRUE</enabled>
									<locked>FALSE</locked>
								</track>
								<track>
									<enabled>TRUE</enabled>
									<locked>FALSE</locked>
								</track>
								<track>
									<enabled>TRUE</enabled>
									<locked>FALSE</locked>
								</track>
								<track>
									<enabled>TRUE</enabled>
									<locked>FALSE</locked>
								</track>
								<track>
									<enabled>TRUE</enabled>
									<locked>FALSE</locked>
								</track>
								<track>
									<enabled>TRUE</enabled>
									<locked>FALSE</locked>
								</track>
								<track>
									<enabled>TRUE</enabled>
									<locked>FALSE</locked>
								</track>
								<track>
									<enabled>TRUE</enabled>
									<locked>FALSE</locked>
								</track>
								<track>
									<enabled>TRUE</enabled>
									<locked>FALSE</locked>
								</track>
								<track>
									<enabled>TRUE</enabled>
									<locked>FALSE</locked>
								</track>
								<track>
									<enabled>TRUE</enabled>
									<locked>FALSE</locked>
								</track>
								<track>
									<enabled>TRUE</enabled>
									<locked>FALSE</locked>
								</track>
								<track>
									<enabled>TRUE</enabled>
									<locked>FALSE</locked>
								</track>
								<track>
									<enabled>TRUE</enabled>
									<locked>FALSE</locked>
								</track>
								<track>
									<enabled>TRUE</enabled>
									<locked>FALSE</locked>
								</track>
								<track>
									<enabled>TRUE</enabled>
									<locked>FALSE</locked>
								</track>
								<track>
									<enabled>TRUE</enabled>
									<locked>FALSE</locked>
								</track>
								<track>
									<enabled>TRUE</enabled>
									<locked>FALSE</locked>
								</track>
								<track>
									<enabled>TRUE</enabled>
									<locked>FALSE</locked>
								</track>
							</video>
							<audio>
								<format>
									<samplecharacteristics>
										<depth>24</depth>
										<samplerate>48000</samplerate>
									</samplecharacteristics>
								</format>
								<outputs>
									<group>
										<index>1</index>
										<numchannels>2</numchannels>
										<downmix>0</downmix>
										<channel>
											<index>1</index>
										</channel>
										<channel>
											<index>2</index>
										</channel>
									</group>
								</outputs>
								<in>-1</in>
								<out>-1</out>
								<track>
									<clipitem id="msub200012-2511-001 3">
										<name>msub200012-2511-001</name>
										<duration>27694</duration>
										<rate>
											<ntsc>FALSE</ntsc>
											<timebase>25</timebase>
										</rate>
										<in>257</in>
										<out>430</out>
										<start>160</start>
										<end>-1</end>
										<subframeoffset>0</subframeoffset>
										<alphareverse>FALSE</alphareverse>
										<masterclipid>msub200012-2511-001 1</masterclipid>
										<logginginfo>
											<description>msub200012-2511-001</description>
											<scene/>
											<shottake/>
											<lognote/>
											<good>FALSE</good>
										</logginginfo>
										<labels>
											<label2/>
										</labels>
										<comments>
											<mastercomment1>RÃ…STOFF. BR_FINFREDAG_MSUA_OPRO</mastercomment1>
											<mastercomment2/>
											<mastercomment3/>
											<mastercomment4/>
											<clipcommenta/>
										</comments>
										<file id="msub200012-2511-001 2"/>
										<filter>
											<effect>
												<name>Audio Levels</name>
												<effectid>audiolevels</effectid>
												<effectcategory>audiolevels</effectcategory>
												<effecttype>audiolevels</effecttype>
												<mediatype>audio</mediatype>
												<parameter>
													<name>Level</name>
													<parameterid>level</parameterid>
													<valuemin>0</valuemin>
													<valuemax>3.98109</valuemax>
													<value>1</value>
												</parameter>
											</effect>
										</filter>
										<filter>
											<effect>
												<name>Audio Pan</name>
												<effectid>audiopan</effectid>
												<effectcategory>audiopan</effectcategory>
												<effecttype>audiopan</effecttype>
												<mediatype>audio</mediatype>
												<parameter>
													<name>Pan</name>
													<parameterid>pan</parameterid>
													<valuemin>-1</valuemin>
													<valuemax>1</valuemax>
													<value>0</value>
												</parameter>
											</effect>
										</filter>
										<sourcetrack>
											<mediatype>audio</mediatype>
											<trackindex>2</trackindex>
										</sourcetrack>
										<link>
											<linkclipref>msub200012-2511-001 </linkclipref>
											<mediatype>video</mediatype>
											<trackindex>1</trackindex>
											<clipindex>1</clipindex>
										</link>
										<link>
											<linkclipref>msub200012-2511-001 3</linkclipref>
											<mediatype>audio</mediatype>
											<trackindex>1</trackindex>
											<clipindex>1</clipindex>
										</link>
										<link>
											<linkclipref>msub200012-2511-001 4</linkclipref>
											<mediatype>audio</mediatype>
											<trackindex>2</trackindex>
											<clipindex>1</clipindex>
										</link>
									</clipitem>
									<transitionitem id="10">
										<rate>
											<ntsc>FALSE</ntsc>
											<timebase>25</timebase>
										</rate>
										<start>331</start>
										<end>333</end>
										<alignment>center</alignment>
										<effect>
											<name>Cross Fade ( 0dB)</name>
											<effecttype>transition</effecttype>
											<mediatype>audio</mediatype>
										</effect>
									</transitionitem>
									<clipitem id="msub200012-2511-001 6">
										<name>msub200012-2511-001</name>
										<duration>27694</duration>
										<rate>
											<ntsc>FALSE</ntsc>
											<timebase>25</timebase>
										</rate>
										<in>1343</in>
										<out>1575</out>
										<start>-1</start>
										<end>563</end>
										<subframeoffset>0</subframeoffset>
										<alphareverse>FALSE</alphareverse>
										<masterclipid>msub200012-2511-001 1</masterclipid>
										<logginginfo>
											<description>msub200012-2511-001</description>
											<scene/>
											<shottake/>
											<lognote/>
											<good>FALSE</good>
										</logginginfo>
										<labels>
											<label2/>
										</labels>
										<comments>
											<mastercomment1>RÃ…STOFF. BR_FINFREDAG_MSUA_OPRO</mastercomment1>
											<mastercomment2/>
											<mastercomment3/>
											<mastercomment4/>
											<clipcommenta/>
										</comments>
										<file id="msub200012-2511-001 2"/>
										<filter>
											<effect>
												<name>Audio Levels</name>
												<effectid>audiolevels</effectid>
												<effectcategory>audiolevels</effectcategory>
												<effecttype>audiolevels</effecttype>
												<mediatype>audio</mediatype>
												<parameter>
													<name>Level</name>
													<parameterid>level</parameterid>
													<valuemin>0</valuemin>
													<valuemax>3.98109</valuemax>
													<value>1</value>
												</parameter>
											</effect>
										</filter>
										<filter>
											<effect>
												<name>Audio Pan</name>
												<effectid>audiopan</effectid>
												<effectcategory>audiopan</effectcategory>
												<effecttype>audiopan</effecttype>
												<mediatype>audio</mediatype>
												<parameter>
													<name>Pan</name>
													<parameterid>pan</parameterid>
													<valuemin>-1</valuemin>
													<valuemax>1</valuemax>
													<value>0</value>
												</parameter>
											</effect>
										</filter>
										<sourcetrack>
											<mediatype>audio</mediatype>
											<trackindex>2</trackindex>
										</sourcetrack>
										<link>
											<linkclipref>msub200012-2511-001 5</linkclipref>
											<mediatype>video</mediatype>
											<trackindex>1</trackindex>
											<clipindex>3</clipindex>
										</link>
										<link>
											<linkclipref>msub200012-2511-001 6</linkclipref>
											<mediatype>audio</mediatype>
											<trackindex>1</trackindex>
											<clipindex>3</clipindex>
										</link>
										<link>
											<linkclipref>msub200012-2511-001 7</linkclipref>
											<mediatype>audio</mediatype>
											<trackindex>2</trackindex>
											<clipindex>3</clipindex>
										</link>
									</clipitem>
									<clipitem id="Fotografering kamera -">
										<name>Fotografering kamera -</name>
										<duration>361</duration>
										<rate>
											<ntsc>FALSE</ntsc>
											<timebase>25</timebase>
										</rate>
										<in>0</in>
										<out>22</out>
										<start>706</start>
										<end>728</end>
										<alphareverse>FALSE</alphareverse>
										<masterclipid>Fotografering kamera -1</masterclipid>
										<logginginfo>
											<scene/>
											<shottake/>
											<lognote/>
											<good>FALSE</good>
										</logginginfo>
										<labels>
											<label2/>
										</labels>
										<comments>
											<mastercomment1/>
											<mastercomment2/>
											<mastercomment3/>
											<mastercomment4/>
										</comments>
										<file id="Fotografering kamera -2">
											<name>Fotografering kamera -.aif</name>
											<pathurl>file://localhost/SuperSAN1/Prosjekter/MSUB20000012%20FIN%20FREDAG/FCP-PROSJEKTER,%20sesong%202/program%201%20Jenny/musikk/Fotografering%20kamera%20-.aif</pathurl>
											<rate>
												<timebase>25</timebase>
											</rate>
											<duration>361</duration>
											<media>
												<audio>
													<rate>
														<timebase>48000</timebase>
													</rate>
													<trackcount>2</trackcount>
													<samplecharacteristics>
														<depth>16</depth>
													</samplecharacteristics>
												</audio>
											</media>
										</file>
										<filter>
											<effect>
												<name>Audio Levels</name>
												<effectid>audiolevels</effectid>
												<effectcategory>audiolevels</effectcategory>
												<effecttype>audiolevels</effecttype>
												<mediatype>audio</mediatype>
												<parameter>
													<name>Level</name>
													<parameterid>level</parameterid>
													<valuemin>0</valuemin>
													<valuemax>3.98109</valuemax>
													<value>1</value>
												</parameter>
											</effect>
										</filter>
										<filter>
											<effect>
												<name>Audio Pan</name>
												<effectid>audiopan</effectid>
												<effectcategory>audiopan</effectcategory>
												<effecttype>audiopan</effecttype>
												<mediatype>audio</mediatype>
												<parameter>
													<name>Pan</name>
													<parameterid>pan</parameterid>
													<valuemin>-1</valuemin>
													<valuemax>1</valuemax>
													<value>-1</value>
												</parameter>
											</effect>
										</filter>
										<sourcetrack>
											<mediatype>audio</mediatype>
											<trackindex>1</trackindex>
										</sourcetrack>
										<link>
											<linkclipref>Fotografering kamera -</linkclipref>
											<mediatype>audio</mediatype>
											<trackindex>1</trackindex>
											<clipindex>4</clipindex>
											<groupindex>1</groupindex>
										</link>
										<link>
											<linkclipref>Fotografering kamera -3</linkclipref>
											<mediatype>audio</mediatype>
											<trackindex>2</trackindex>
											<clipindex>4</clipindex>
											<groupindex>1</groupindex>
										</link>
									</clipitem>
									<clipitem id="msub200012-2511-001 32">
										<name>msub200012-2511-001</name>
										<duration>27694</duration>
										<rate>
											<ntsc>FALSE</ntsc>
											<timebase>25</timebase>
										</rate>
										<in>18201</in>
										<out>18686</out>
										<start>775</start>
										<end>1260</end>
										<subframeoffset>0</subframeoffset>
										<alphareverse>FALSE</alphareverse>
										<masterclipid>msub200012-2511-001 1</masterclipid>
										<logginginfo>
											<description>msub200012-2511-001</description>
											<scene/>
											<shottake/>
											<lognote/>
											<good>FALSE</good>
										</logginginfo>
										<labels>
											<label2/>
										</labels>
										<comments>
											<mastercomment1>RÃ…STOFF. BR_FINFREDAG_MSUA_OPRO</mastercomment1>
											<mastercomment2/>
											<mastercomment3/>
											<mastercomment4/>
											<clipcommenta/>
										</comments>
										<file id="msub200012-2511-001 2"/>
										<filter>
											<effect>
												<name>Audio Levels</name>
												<effectid>audiolevels</effectid>
												<effectcategory>audiolevels</effectcategory>
												<effecttype>audiolevels</effecttype>
												<mediatype>audio</mediatype>
												<parameter>
													<name>Level</name>
													<parameterid>level</parameterid>
													<valuemin>0</valuemin>
													<valuemax>3.98109</valuemax>
													<value>1</value>
												</parameter>
											</effect>
										</filter>
										<filter>
											<effect>
												<name>Audio Pan</name>
												<effectid>audiopan</effectid>
												<effectcategory>audiopan</effectcategory>
												<effecttype>audiopan</effecttype>
												<mediatype>audio</mediatype>
												<parameter>
													<name>Pan</name>
													<parameterid>pan</parameterid>
													<valuemin>-1</valuemin>
													<valuemax>1</valuemax>
													<value>0</value>
												</parameter>
											</effect>
										</filter>
										<sourcetrack>
											<mediatype>audio</mediatype>
											<trackindex>2</trackindex>
										</sourcetrack>
										<link>
											<linkclipref>msub200012-2511-001 32</linkclipref>
											<mediatype>audio</mediatype>
											<trackindex>1</trackindex>
											<clipindex>5</clipindex>
										</link>
										<link>
											<linkclipref>msub200012-2511-001 33</linkclipref>
											<mediatype>audio</mediatype>
											<trackindex>2</trackindex>
											<clipindex>5</clipindex>
										</link>
									</clipitem>
									<clipitem id="msub200012-2511-001 12">
										<name>msub200012-2511-001</name>
										<duration>27694</duration>
										<rate>
											<ntsc>FALSE</ntsc>
											<timebase>25</timebase>
										</rate>
										<in>8159</in>
										<out>8458</out>
										<start>1295</start>
										<end>-1</end>
										<subframeoffset>0</subframeoffset>
										<alphareverse>FALSE</alphareverse>
										<masterclipid>msub200012-2511-001 1</masterclipid>
										<logginginfo>
											<description>msub200012-2511-001</description>
											<scene/>
											<shottake/>
											<lognote/>
											<good>FALSE</good>
										</logginginfo>
										<labels>
											<label2/>
										</labels>
										<comments>
											<mastercomment1>RÃ…STOFF. BR_FINFREDAG_MSUA_OPRO</mastercomment1>
											<mastercomment2/>
											<mastercomment3/>
											<mastercomment4/>
											<clipcommenta/>
										</comments>
										<file id="msub200012-2511-001 2"/>
										<filter>
											<effect>
												<name>Audio Levels</name>
												<effectid>audiolevels</effectid>
												<effectcategory>audiolevels</effectcategory>
												<effecttype>audiolevels</effecttype>
												<mediatype>audio</mediatype>
												<parameter>
													<name>Level</name>
													<parameterid>level</parameterid>
													<valuemin>0</valuemin>
													<valuemax>3.98109</valuemax>
													<value>1</value>
												</parameter>
											</effect>
										</filter>
										<filter>
											<effect>
												<name>Audio Pan</name>
												<effectid>audiopan</effectid>
												<effectcategory>audiopan</effectcategory>
												<effecttype>audiopan</effecttype>
												<mediatype>audio</mediatype>
												<parameter>
													<name>Pan</name>
													<parameterid>pan</parameterid>
													<valuemin>-1</valuemin>
													<valuemax>1</valuemax>
													<value>0</value>
												</parameter>
											</effect>
										</filter>
										<sourcetrack>
											<mediatype>audio</mediatype>
											<trackindex>2</trackindex>
										</sourcetrack>
										<link>
											<linkclipref>msub200012-2511-001 11</linkclipref>
											<mediatype>video</mediatype>
											<trackindex>1</trackindex>
											<clipindex>9</clipindex>
										</link>
										<link>
											<linkclipref>msub200012-2511-001 12</linkclipref>
											<mediatype>audio</mediatype>
											<trackindex>1</trackindex>
											<clipindex>6</clipindex>
										</link>
										<link>
											<linkclipref>msub200012-2511-001 13</linkclipref>
											<mediatype>audio</mediatype>
											<trackindex>2</trackindex>
											<clipindex>6</clipindex>
										</link>
									</clipitem>
									<transitionitem id="920008124 ">
										<rate>
											<ntsc>FALSE</ntsc>
											<timebase>25</timebase>
										</rate>
										<start>1590</start>
										<end>1594</end>
										<alignment>center</alignment>
										<effect>
											<name>Cross Fade ( 0dB)</name>
											<effecttype>transition</effecttype>
											<mediatype>audio</mediatype>
										</effect>
									</transitionitem>
									<clipitem id="msub200012-2511-001 15">
										<name>msub200012-2511-001</name>
										<duration>27694</duration>
										<rate>
											<ntsc>FALSE</ntsc>
											<timebase>25</timebase>
										</rate>
										<in>2448</in>
										<out>2671</out>
										<start>-1</start>
										<end>1813</end>
										<subframeoffset>0</subframeoffset>
										<alphareverse>FALSE</alphareverse>
										<masterclipid>msub200012-2511-001 1</masterclipid>
										<logginginfo>
											<description>msub200012-2511-001</description>
											<scene/>
											<shottake/>
											<lognote/>
											<good>FALSE</good>
										</logginginfo>
										<labels>
											<label2/>
										</labels>
										<comments>
											<mastercomment1>RÃ…STOFF. BR_FINFREDAG_MSUA_OPRO</mastercomment1>
											<mastercomment2/>
											<mastercomment3/>
											<mastercomment4/>
											<clipcommenta/>
										</comments>
										<file id="msub200012-2511-001 2"/>
										<filter>
											<effect>
												<name>Audio Levels</name>
												<effectid>audiolevels</effectid>
												<effectcategory>audiolevels</effectcategory>
												<effecttype>audiolevels</effecttype>
												<mediatype>audio</mediatype>
												<parameter>
													<name>Level</name>
													<parameterid>level</parameterid>
													<valuemin>0</valuemin>
													<valuemax>3.98109</valuemax>
													<value>1</value>
												</parameter>
											</effect>
										</filter>
										<filter>
											<effect>
												<name>Audio Pan</name>
												<effectid>audiopan</effectid>
												<effectcategory>audiopan</effectcategory>
												<effecttype>audiopan</effecttype>
												<mediatype>audio</mediatype>
												<parameter>
													<name>Pan</name>
													<parameterid>pan</parameterid>
													<valuemin>-1</valuemin>
													<valuemax>1</valuemax>
													<value>0</value>
												</parameter>
											</effect>
										</filter>
										<sourcetrack>
											<mediatype>audio</mediatype>
											<trackindex>1</trackindex>
										</sourcetrack>
										<link>
											<linkclipref>msub200012-2511-001 14</linkclipref>
											<mediatype>video</mediatype>
											<trackindex>1</trackindex>
											<clipindex>11</clipindex>
										</link>
										<link>
											<linkclipref>msub200012-2511-001 15</linkclipref>
											<mediatype>audio</mediatype>
											<trackindex>1</trackindex>
											<clipindex>8</clipindex>
										</link>
										<link>
											<linkclipref>msub200012-2511-001 16</linkclipref>
											<mediatype>audio</mediatype>
											<trackindex>2</trackindex>
											<clipindex>8</clipindex>
										</link>
									</clipitem>
									<clipitem id="msub200012-2511-001 18">
										<name>msub200012-2511-001</name>
										<duration>27694</duration>
										<rate>
											<ntsc>FALSE</ntsc>
											<timebase>25</timebase>
										</rate>
										<in>2713</in>
										<out>2875</out>
										<start>1813</start>
										<end>1975</end>
										<subframeoffset>0</subframeoffset>
										<alphareverse>FALSE</alphareverse>
										<masterclipid>msub200012-2511-001 1</masterclipid>
										<logginginfo>
											<description>msub200012-2511-001</description>
											<scene/>
											<shottake/>
											<lognote/>
											<good>FALSE</good>
										</logginginfo>
										<labels>
											<label2/>
										</labels>
										<comments>
											<mastercomment1>RÃ…STOFF. BR_FINFREDAG_MSUA_OPRO</mastercomment1>
											<mastercomment2/>
											<mastercomment3/>
											<mastercomment4/>
											<clipcommenta/>
										</comments>
										<file id="msub200012-2511-001 2"/>
										<filter>
											<effect>
												<name>Audio Levels</name>
												<effectid>audiolevels</effectid>
												<effectcategory>audiolevels</effectcategory>
												<effecttype>audiolevels</effecttype>
												<mediatype>audio</mediatype>
												<parameter>
													<name>Level</name>
													<parameterid>level</parameterid>
													<valuemin>0</valuemin>
													<valuemax>3.98109</valuemax>
													<value>1</value>
												</parameter>
											</effect>
										</filter>
										<filter>
											<effect>
												<name>Audio Pan</name>
												<effectid>audiopan</effectid>
												<effectcategory>audiopan</effectcategory>
												<effecttype>audiopan</effecttype>
												<mediatype>audio</mediatype>
												<parameter>
													<name>Pan</name>
													<parameterid>pan</parameterid>
													<valuemin>-1</valuemin>
													<valuemax>1</valuemax>
													<value>0</value>
												</parameter>
											</effect>
										</filter>
										<sourcetrack>
											<mediatype>audio</mediatype>
											<trackindex>1</trackindex>
										</sourcetrack>
										<link>
											<linkclipref>msub200012-2511-001 17</linkclipref>
											<mediatype>video</mediatype>
											<trackindex>1</trackindex>
											<clipindex>13</clipindex>
										</link>
										<link>
											<linkclipref>msub200012-2511-001 18</linkclipref>
											<mediatype>audio</mediatype>
											<trackindex>1</trackindex>
											<clipindex>9</clipindex>
										</link>
										<link>
											<linkclipref>msub200012-2511-001 19</linkclipref>
											<mediatype>audio</mediatype>
											<trackindex>2</trackindex>
											<clipindex>9</clipindex>
										</link>
									</clipitem>
									<clipitem id="msub200012-2511-001 34">
										<name>msub200012-2511-001</name>
										<duration>27694</duration>
										<rate>
											<ntsc>FALSE</ntsc>
											<timebase>25</timebase>
										</rate>
										<in>16237</in>
										<out>16314</out>
										<start>2354</start>
										<end>2431</end>
										<subframeoffset>0</subframeoffset>
										<alphareverse>FALSE</alphareverse>
										<masterclipid>msub200012-2511-001 1</masterclipid>
										<logginginfo>
											<description>msub200012-2511-001</description>
											<scene/>
											<shottake/>
											<lognote/>
											<good>FALSE</good>
										</logginginfo>
										<labels>
											<label2/>
										</labels>
										<comments>
											<mastercomment1>RÃ…STOFF. BR_FINFREDAG_MSUA_OPRO</mastercomment1>
											<mastercomment2/>
											<mastercomment3/>
											<mastercomment4/>
											<clipcommenta/>
										</comments>
										<file id="msub200012-2511-001 2"/>
										<filter>
											<effect>
												<name>Audio Levels</name>
												<effectid>audiolevels</effectid>
												<effectcategory>audiolevels</effectcategory>
												<effecttype>audiolevels</effecttype>
												<mediatype>audio</mediatype>
												<parameter>
													<name>Level</name>
													<parameterid>level</parameterid>
													<valuemin>0</valuemin>
													<valuemax>3.98109</valuemax>
													<value>1</value>
												</parameter>
											</effect>
										</filter>
										<filter>
											<effect>
												<name>Audio Pan</name>
												<effectid>audiopan</effectid>
												<effectcategory>audiopan</effectcategory>
												<effecttype>audiopan</effecttype>
												<mediatype>audio</mediatype>
												<parameter>
													<name>Pan</name>
													<parameterid>pan</parameterid>
													<valuemin>-1</valuemin>
													<valuemax>1</valuemax>
													<value>0</value>
												</parameter>
											</effect>
										</filter>
										<sourcetrack>
											<mediatype>audio</mediatype>
											<trackindex>2</trackindex>
										</sourcetrack>
									</clipitem>
									<clipitem id="msub200012-2511-001 22">
										<name>msub200012-2511-001</name>
										<duration>27694</duration>
										<rate>
											<ntsc>FALSE</ntsc>
											<timebase>25</timebase>
										</rate>
										<in>16388</in>
										<out>16793</out>
										<start>2431</start>
										<end>2836</end>
										<subframeoffset>0</subframeoffset>
										<alphareverse>FALSE</alphareverse>
										<masterclipid>msub200012-2511-001 1</masterclipid>
										<logginginfo>
											<description>msub200012-2511-001</description>
											<scene/>
											<shottake/>
											<lognote/>
											<good>FALSE</good>
										</logginginfo>
										<labels>
											<label2/>
										</labels>
										<comments>
											<mastercomment1>RÃ…STOFF. BR_FINFREDAG_MSUA_OPRO</mastercomment1>
											<mastercomment2/>
											<mastercomment3/>
											<mastercomment4/>
											<clipcommenta/>
										</comments>
										<file id="msub200012-2511-001 2"/>
										<filter>
											<effect>
												<name>Audio Levels</name>
												<effectid>audiolevels</effectid>
												<effectcategory>audiolevels</effectcategory>
												<effecttype>audiolevels</effecttype>
												<mediatype>audio</mediatype>
												<parameter>
													<name>Level</name>
													<parameterid>level</parameterid>
													<valuemin>0</valuemin>
													<valuemax>3.98109</valuemax>
													<value>1</value>
												</parameter>
											</effect>
										</filter>
										<filter>
											<effect>
												<name>Audio Pan</name>
												<effectid>audiopan</effectid>
												<effectcategory>audiopan</effectcategory>
												<effecttype>audiopan</effecttype>
												<mediatype>audio</mediatype>
												<parameter>
													<name>Pan</name>
													<parameterid>pan</parameterid>
													<valuemin>-1</valuemin>
													<valuemax>1</valuemax>
													<value>0</value>
												</parameter>
											</effect>
										</filter>
										<sourcetrack>
											<mediatype>audio</mediatype>
											<trackindex>2</trackindex>
										</sourcetrack>
										<link>
											<linkclipref>msub200012-2511-001 21</linkclipref>
											<mediatype>video</mediatype>
											<trackindex>1</trackindex>
											<clipindex>20</clipindex>
										</link>
										<link>
											<linkclipref>msub200012-2511-001 22</linkclipref>
											<mediatype>audio</mediatype>
											<trackindex>1</trackindex>
											<clipindex>11</clipindex>
										</link>
										<link>
											<linkclipref>msub200012-2511-001 23</linkclipref>
											<mediatype>audio</mediatype>
											<trackindex>2</trackindex>
											<clipindex>11</clipindex>
										</link>
									</clipitem>
									<clipitem id="msub200012-2511-001 35">
										<name>msub200012-2511-001</name>
										<duration>27694</duration>
										<rate>
											<ntsc>FALSE</ntsc>
											<timebase>25</timebase>
										</rate>
										<in>20905</in>
										<out>21145</out>
										<start>2890</start>
										<end>3130</end>
										<subframeoffset>0</subframeoffset>
										<alphareverse>FALSE</alphareverse>
										<masterclipid>msub200012-2511-001 1</masterclipid>
										<logginginfo>
											<description>msub200012-2511-001</description>
											<scene/>
											<shottake/>
											<lognote/>
											<good>FALSE</good>
										</logginginfo>
										<labels>
											<label2/>
										</labels>
										<comments>
											<mastercomment1>RÃ…STOFF. BR_FINFREDAG_MSUA_OPRO</mastercomment1>
											<mastercomment2/>
											<mastercomment3/>
											<mastercomment4/>
											<clipcommenta/>
										</comments>
										<file id="msub200012-2511-001 2"/>
										<filter>
											<effect>
												<name>Audio Levels</name>
												<effectid>audiolevels</effectid>
												<effectcategory>audiolevels</effectcategory>
												<effecttype>audiolevels</effecttype>
												<mediatype>audio</mediatype>
												<parameter>
													<name>Level</name>
													<parameterid>level</parameterid>
													<valuemin>0</valuemin>
													<valuemax>3.98109</valuemax>
													<value>1</value>
												</parameter>
											</effect>
										</filter>
										<filter>
											<effect>
												<name>Audio Pan</name>
												<effectid>audiopan</effectid>
												<effectcategory>audiopan</effectcategory>
												<effecttype>audiopan</effecttype>
												<mediatype>audio</mediatype>
												<parameter>
													<name>Pan</name>
													<parameterid>pan</parameterid>
													<valuemin>-1</valuemin>
													<valuemax>1</valuemax>
													<value>0</value>
												</parameter>
											</effect>
										</filter>
										<sourcetrack>
											<mediatype>audio</mediatype>
											<trackindex>2</trackindex>
										</sourcetrack>
										<link>
											<linkclipref>msub200012-2511-001 35</linkclipref>
											<mediatype>audio</mediatype>
											<trackindex>1</trackindex>
											<clipindex>12</clipindex>
										</link>
										<link>
											<linkclipref>msub200012-2511-001 36</linkclipref>
											<mediatype>audio</mediatype>
											<trackindex>2</trackindex>
											<clipindex>12</clipindex>
										</link>
									</clipitem>
									<clipitem id="msub200012-2511-001 27">
										<name>msub200012-2511-001</name>
										<duration>27694</duration>
										<rate>
											<ntsc>FALSE</ntsc>
											<timebase>25</timebase>
										</rate>
										<in>25786</in>
										<out>26268</out>
										<start>3233</start>
										<end>3715</end>
										<subframeoffset>0</subframeoffset>
										<alphareverse>FALSE</alphareverse>
										<masterclipid>msub200012-2511-001 1</masterclipid>
										<logginginfo>
											<description>msub200012-2511-001</description>
											<scene/>
											<shottake/>
											<lognote/>
											<good>FALSE</good>
										</logginginfo>
										<labels>
											<label2/>
										</labels>
										<comments>
											<mastercomment1>RÃ…STOFF. BR_FINFREDAG_MSUA_OPRO</mastercomment1>
											<mastercomment2/>
											<mastercomment3/>
											<mastercomment4/>
											<clipcommenta/>
										</comments>
										<file id="msub200012-2511-001 2"/>
										<filter>
											<effect>
												<name>Audio Levels</name>
												<effectid>audiolevels</effectid>
												<effectcategory>audiolevels</effectcategory>
												<effecttype>audiolevels</effecttype>
												<mediatype>audio</mediatype>
												<parameter>
													<name>Level</name>
													<parameterid>level</parameterid>
													<valuemin>0</valuemin>
													<valuemax>3.98109</valuemax>
													<value>1</value>
												</parameter>
											</effect>
										</filter>
										<filter>
											<effect>
												<name>Audio Pan</name>
												<effectid>audiopan</effectid>
												<effectcategory>audiopan</effectcategory>
												<effecttype>audiopan</effecttype>
												<mediatype>audio</mediatype>
												<parameter>
													<name>Pan</name>
													<parameterid>pan</parameterid>
													<valuemin>-1</valuemin>
													<valuemax>1</valuemax>
													<value>0</value>
												</parameter>
											</effect>
										</filter>
										<sourcetrack>
											<mediatype>audio</mediatype>
											<trackindex>2</trackindex>
										</sourcetrack>
										<link>
											<linkclipref>msub200012-2511-001 26</linkclipref>
											<mediatype>video</mediatype>
											<trackindex>1</trackindex>
											<clipindex>26</clipindex>
										</link>
										<link>
											<linkclipref>msub200012-2511-001 27</linkclipref>
											<mediatype>audio</mediatype>
											<trackindex>1</trackindex>
											<clipindex>13</clipindex>
										</link>
										<link>
											<linkclipref>msub200012-2511-001 28</linkclipref>
											<mediatype>audio</mediatype>
											<trackindex>2</trackindex>
											<clipindex>13</clipindex>
										</link>
									</clipitem>
									<clipitem id="msub200012-2511-001 30">
										<name>msub200012-2511-001</name>
										<duration>27694</duration>
										<rate>
											<ntsc>FALSE</ntsc>
											<timebase>25</timebase>
										</rate>
										<in>19815</in>
										<out>20141</out>
										<start>3715</start>
										<end>4041</end>
										<subframeoffset>0</subframeoffset>
										<alphareverse>FALSE</alphareverse>
										<masterclipid>msub200012-2511-001 1</masterclipid>
										<logginginfo>
											<description>msub200012-2511-001</description>
											<scene/>
											<shottake/>
											<lognote/>
											<good>FALSE</good>
										</logginginfo>
										<labels>
											<label2/>
										</labels>
										<comments>
											<mastercomment1>RÃ…STOFF. BR_FINFREDAG_MSUA_OPRO</mastercomment1>
											<mastercomment2/>
											<mastercomment3/>
											<mastercomment4/>
											<clipcommenta/>
										</comments>
										<file id="msub200012-2511-001 2"/>
										<filter>
											<effect>
												<name>Audio Levels</name>
												<effectid>audiolevels</effectid>
												<effectcategory>audiolevels</effectcategory>
												<effecttype>audiolevels</effecttype>
												<mediatype>audio</mediatype>
												<parameter>
													<name>Level</name>
													<parameterid>level</parameterid>
													<valuemin>0</valuemin>
													<valuemax>3.98109</valuemax>
													<value>1</value>
												</parameter>
											</effect>
										</filter>
										<filter>
											<effect>
												<name>Audio Pan</name>
												<effectid>audiopan</effectid>
												<effectcategory>audiopan</effectcategory>
												<effecttype>audiopan</effecttype>
												<mediatype>audio</mediatype>
												<parameter>
													<name>Pan</name>
													<parameterid>pan</parameterid>
													<valuemin>-1</valuemin>
													<valuemax>1</valuemax>
													<value>0</value>
												</parameter>
											</effect>
										</filter>
										<sourcetrack>
											<mediatype>audio</mediatype>
											<trackindex>2</trackindex>
										</sourcetrack>
										<link>
											<linkclipref>msub200012-2511-001 29</linkclipref>
											<mediatype>video</mediatype>
											<trackindex>1</trackindex>
											<clipindex>28</clipindex>
										</link>
										<link>
											<linkclipref>msub200012-2511-001 30</linkclipref>
											<mediatype>audio</mediatype>
											<trackindex>1</trackindex>
											<clipindex>14</clipindex>
										</link>
										<link>
											<linkclipref>msub200012-2511-001 31</linkclipref>
											<mediatype>audio</mediatype>
											<trackindex>2</trackindex>
											<clipindex>14</clipindex>
										</link>
									</clipitem>
									<enabled>TRUE</enabled>
									<locked>FALSE</locked>
									<outputchannelindex>1</outputchannelindex>
								</track>
								<track>
									<clipitem id="msub200012-2511-001 4">
										<name>msub200012-2511-001</name>
										<duration>27694</duration>
										<rate>
											<ntsc>FALSE</ntsc>
											<timebase>25</timebase>
										</rate>
										<in>257</in>
										<out>430</out>
										<start>160</start>
										<end>-1</end>
										<subframeoffset>0</subframeoffset>
										<alphareverse>FALSE</alphareverse>
										<masterclipid>msub200012-2511-001 1</masterclipid>
										<logginginfo>
											<description>msub200012-2511-001</description>
											<scene/>
											<shottake/>
											<lognote/>
											<good>FALSE</good>
										</logginginfo>
										<labels>
											<label2/>
										</labels>
										<comments>
											<mastercomment1>RÃ…STOFF. BR_FINFREDAG_MSUA_OPRO</mastercomment1>
											<mastercomment2/>
											<mastercomment3/>
											<mastercomment4/>
											<clipcommenta/>
										</comments>
										<file id="msub200012-2511-001 2"/>
										<filter>
											<effect>
												<name>Audio Levels</name>
												<effectid>audiolevels</effectid>
												<effectcategory>audiolevels</effectcategory>
												<effecttype>audiolevels</effecttype>
												<mediatype>audio</mediatype>
												<parameter>
													<name>Level</name>
													<parameterid>level</parameterid>
													<valuemin>0</valuemin>
													<valuemax>3.98109</valuemax>
													<value>1</value>
												</parameter>
											</effect>
										</filter>
										<filter>
											<effect>
												<name>Audio Pan</name>
												<effectid>audiopan</effectid>
												<effectcategory>audiopan</effectcategory>
												<effecttype>audiopan</effecttype>
												<mediatype>audio</mediatype>
												<parameter>
													<name>Pan</name>
													<parameterid>pan</parameterid>
													<valuemin>-1</valuemin>
													<valuemax>1</valuemax>
													<value>0</value>
												</parameter>
											</effect>
										</filter>
										<sourcetrack>
											<mediatype>audio</mediatype>
											<trackindex>1</trackindex>
										</sourcetrack>
										<link>
											<linkclipref>msub200012-2511-001 </linkclipref>
											<mediatype>video</mediatype>
											<trackindex>1</trackindex>
											<clipindex>1</clipindex>
										</link>
										<link>
											<linkclipref>msub200012-2511-001 3</linkclipref>
											<mediatype>audio</mediatype>
											<trackindex>1</trackindex>
											<clipindex>1</clipindex>
										</link>
										<link>
											<linkclipref>msub200012-2511-001 4</linkclipref>
											<mediatype>audio</mediatype>
											<trackindex>2</trackindex>
											<clipindex>1</clipindex>
										</link>
									</clipitem>
									<transitionitem id="11">
										<rate>
											<ntsc>FALSE</ntsc>
											<timebase>25</timebase>
										</rate>
										<start>331</start>
										<end>333</end>
										<alignment>center</alignment>
										<effect>
											<name>Cross Fade ( 0dB)</name>
											<effecttype>transition</effecttype>
											<mediatype>audio</mediatype>
										</effect>
									</transitionitem>
									<clipitem id="msub200012-2511-001 7">
										<name>msub200012-2511-001</name>
										<duration>27694</duration>
										<rate>
											<ntsc>FALSE</ntsc>
											<timebase>25</timebase>
										</rate>
										<in>1343</in>
										<out>1575</out>
										<start>-1</start>
										<end>563</end>
										<subframeoffset>0</subframeoffset>
										<alphareverse>FALSE</alphareverse>
										<masterclipid>msub200012-2511-001 1</masterclipid>
										<logginginfo>
											<description>msub200012-2511-001</description>
											<scene/>
											<shottake/>
											<lognote/>
											<good>FALSE</good>
										</logginginfo>
										<labels>
											<label2/>
										</labels>
										<comments>
											<mastercomment1>RÃ…STOFF. BR_FINFREDAG_MSUA_OPRO</mastercomment1>
											<mastercomment2/>
											<mastercomment3/>
											<mastercomment4/>
											<clipcommenta/>
										</comments>
										<file id="msub200012-2511-001 2"/>
										<filter>
											<effect>
												<name>Audio Levels</name>
												<effectid>audiolevels</effectid>
												<effectcategory>audiolevels</effectcategory>
												<effecttype>audiolevels</effecttype>
												<mediatype>audio</mediatype>
												<parameter>
													<name>Level</name>
													<parameterid>level</parameterid>
													<valuemin>0</valuemin>
													<valuemax>3.98109</valuemax>
													<value>1</value>
												</parameter>
											</effect>
										</filter>
										<filter>
											<effect>
												<name>Audio Pan</name>
												<effectid>audiopan</effectid>
												<effectcategory>audiopan</effectcategory>
												<effecttype>audiopan</effecttype>
												<mediatype>audio</mediatype>
												<parameter>
													<name>Pan</name>
													<parameterid>pan</parameterid>
													<valuemin>-1</valuemin>
													<valuemax>1</valuemax>
													<value>0</value>
												</parameter>
											</effect>
										</filter>
										<sourcetrack>
											<mediatype>audio</mediatype>
											<trackindex>1</trackindex>
										</sourcetrack>
										<link>
											<linkclipref>msub200012-2511-001 5</linkclipref>
											<mediatype>video</mediatype>
											<trackindex>1</trackindex>
											<clipindex>3</clipindex>
										</link>
										<link>
											<linkclipref>msub200012-2511-001 6</linkclipref>
											<mediatype>audio</mediatype>
											<trackindex>1</trackindex>
											<clipindex>3</clipindex>
										</link>
										<link>
											<linkclipref>msub200012-2511-001 7</linkclipref>
											<mediatype>audio</mediatype>
											<trackindex>2</trackindex>
											<clipindex>3</clipindex>
										</link>
									</clipitem>
									<clipitem id="Fotografering kamera -3">
										<name>Fotografering kamera -</name>
										<duration>361</duration>
										<rate>
											<ntsc>FALSE</ntsc>
											<timebase>25</timebase>
										</rate>
										<in>0</in>
										<out>22</out>
										<start>706</start>
										<end>728</end>
										<alphareverse>FALSE</alphareverse>
										<masterclipid>Fotografering kamera -1</masterclipid>
										<logginginfo>
											<scene/>
											<shottake/>
											<lognote/>
											<good>FALSE</good>
										</logginginfo>
										<labels>
											<label2/>
										</labels>
										<comments>
											<mastercomment1/>
											<mastercomment2/>
											<mastercomment3/>
											<mastercomment4/>
										</comments>
										<file id="Fotografering kamera -2"/>
										<filter>
											<effect>
												<name>Audio Levels</name>
												<effectid>audiolevels</effectid>
												<effectcategory>audiolevels</effectcategory>
												<effecttype>audiolevels</effecttype>
												<mediatype>audio</mediatype>
												<parameter>
													<name>Level</name>
													<parameterid>level</parameterid>
													<valuemin>0</valuemin>
													<valuemax>3.98109</valuemax>
													<value>1</value>
												</parameter>
											</effect>
										</filter>
										<filter>
											<effect>
												<name>Audio Pan</name>
												<effectid>audiopan</effectid>
												<effectcategory>audiopan</effectcategory>
												<effecttype>audiopan</effecttype>
												<mediatype>audio</mediatype>
												<parameter>
													<name>Pan</name>
													<parameterid>pan</parameterid>
													<valuemin>-1</valuemin>
													<valuemax>1</valuemax>
													<value>1</value>
												</parameter>
											</effect>
										</filter>
										<sourcetrack>
											<mediatype>audio</mediatype>
											<trackindex>2</trackindex>
										</sourcetrack>
										<link>
											<linkclipref>Fotografering kamera -</linkclipref>
											<mediatype>audio</mediatype>
											<trackindex>1</trackindex>
											<clipindex>4</clipindex>
											<groupindex>1</groupindex>
										</link>
										<link>
											<linkclipref>Fotografering kamera -3</linkclipref>
											<mediatype>audio</mediatype>
											<trackindex>2</trackindex>
											<clipindex>4</clipindex>
											<groupindex>1</groupindex>
										</link>
									</clipitem>
									<clipitem id="msub200012-2511-001 33">
										<name>msub200012-2511-001</name>
										<duration>27694</duration>
										<rate>
											<ntsc>FALSE</ntsc>
											<timebase>25</timebase>
										</rate>
										<in>18201</in>
										<out>18686</out>
										<start>775</start>
										<end>1260</end>
										<subframeoffset>0</subframeoffset>
										<alphareverse>FALSE</alphareverse>
										<masterclipid>msub200012-2511-001 1</masterclipid>
										<logginginfo>
											<description>msub200012-2511-001</description>
											<scene/>
											<shottake/>
											<lognote/>
											<good>FALSE</good>
										</logginginfo>
										<labels>
											<label2/>
										</labels>
										<comments>
											<mastercomment1>RÃ…STOFF. BR_FINFREDAG_MSUA_OPRO</mastercomment1>
											<mastercomment2/>
											<mastercomment3/>
											<mastercomment4/>
											<clipcommenta/>
										</comments>
										<file id="msub200012-2511-001 2"/>
										<filter>
											<effect>
												<name>Audio Levels</name>
												<effectid>audiolevels</effectid>
												<effectcategory>audiolevels</effectcategory>
												<effecttype>audiolevels</effecttype>
												<mediatype>audio</mediatype>
												<parameter>
													<name>Level</name>
													<parameterid>level</parameterid>
													<valuemin>0</valuemin>
													<valuemax>3.98109</valuemax>
													<value>1</value>
												</parameter>
											</effect>
										</filter>
										<filter>
											<effect>
												<name>Audio Pan</name>
												<effectid>audiopan</effectid>
												<effectcategory>audiopan</effectcategory>
												<effecttype>audiopan</effecttype>
												<mediatype>audio</mediatype>
												<parameter>
													<name>Pan</name>
													<parameterid>pan</parameterid>
													<valuemin>-1</valuemin>
													<valuemax>1</valuemax>
													<value>0</value>
												</parameter>
											</effect>
										</filter>
										<sourcetrack>
											<mediatype>audio</mediatype>
											<trackindex>1</trackindex>
										</sourcetrack>
										<link>
											<linkclipref>msub200012-2511-001 32</linkclipref>
											<mediatype>audio</mediatype>
											<trackindex>1</trackindex>
											<clipindex>5</clipindex>
										</link>
										<link>
											<linkclipref>msub200012-2511-001 33</linkclipref>
											<mediatype>audio</mediatype>
											<trackindex>2</trackindex>
											<clipindex>5</clipindex>
										</link>
									</clipitem>
									<clipitem id="msub200012-2511-001 13">
										<name>msub200012-2511-001</name>
										<duration>27694</duration>
										<rate>
											<ntsc>FALSE</ntsc>
											<timebase>25</timebase>
										</rate>
										<in>8159</in>
										<out>8458</out>
										<start>1295</start>
										<end>-1</end>
										<subframeoffset>0</subframeoffset>
										<alphareverse>FALSE</alphareverse>
										<masterclipid>msub200012-2511-001 1</masterclipid>
										<logginginfo>
											<description>msub200012-2511-001</description>
											<scene/>
											<shottake/>
											<lognote/>
											<good>FALSE</good>
										</logginginfo>
										<labels>
											<label2/>
										</labels>
										<comments>
											<mastercomment1>RÃ…STOFF. BR_FINFREDAG_MSUA_OPRO</mastercomment1>
											<mastercomment2/>
											<mastercomment3/>
											<mastercomment4/>
											<clipcommenta/>
										</comments>
										<file id="msub200012-2511-001 2"/>
										<filter>
											<effect>
												<name>Audio Levels</name>
												<effectid>audiolevels</effectid>
												<effectcategory>audiolevels</effectcategory>
												<effecttype>audiolevels</effecttype>
												<mediatype>audio</mediatype>
												<parameter>
													<name>Level</name>
													<parameterid>level</parameterid>
													<valuemin>0</valuemin>
													<valuemax>3.98109</valuemax>
													<value>1</value>
												</parameter>
											</effect>
										</filter>
										<filter>
											<effect>
												<name>Audio Pan</name>
												<effectid>audiopan</effectid>
												<effectcategory>audiopan</effectcategory>
												<effecttype>audiopan</effecttype>
												<mediatype>audio</mediatype>
												<parameter>
													<name>Pan</name>
													<parameterid>pan</parameterid>
													<valuemin>-1</valuemin>
													<valuemax>1</valuemax>
													<value>0</value>
												</parameter>
											</effect>
										</filter>
										<sourcetrack>
											<mediatype>audio</mediatype>
											<trackindex>1</trackindex>
										</sourcetrack>
										<link>
											<linkclipref>msub200012-2511-001 11</linkclipref>
											<mediatype>video</mediatype>
											<trackindex>1</trackindex>
											<clipindex>9</clipindex>
										</link>
										<link>
											<linkclipref>msub200012-2511-001 12</linkclipref>
											<mediatype>audio</mediatype>
											<trackindex>1</trackindex>
											<clipindex>6</clipindex>
										</link>
										<link>
											<linkclipref>msub200012-2511-001 13</linkclipref>
											<mediatype>audio</mediatype>
											<trackindex>2</trackindex>
											<clipindex>6</clipindex>
										</link>
									</clipitem>
									<transitionitem id="920012952 ">
										<rate>
											<ntsc>FALSE</ntsc>
											<timebase>25</timebase>
										</rate>
										<start>1590</start>
										<end>1594</end>
										<alignment>center</alignment>
										<effect>
											<name>Cross Fade ( 0dB)</name>
											<effecttype>transition</effecttype>
											<mediatype>audio</mediatype>
										</effect>
									</transitionitem>
									<clipitem id="msub200012-2511-001 16">
										<name>msub200012-2511-001</name>
										<duration>27694</duration>
										<rate>
											<ntsc>FALSE</ntsc>
											<timebase>25</timebase>
										</rate>
										<in>2448</in>
										<out>2671</out>
										<start>-1</start>
										<end>1813</end>
										<subframeoffset>0</subframeoffset>
										<alphareverse>FALSE</alphareverse>
										<masterclipid>msub200012-2511-001 1</masterclipid>
										<logginginfo>
											<description>msub200012-2511-001</description>
											<scene/>
											<shottake/>
											<lognote/>
											<good>FALSE</good>
										</logginginfo>
										<labels>
											<label2/>
										</labels>
										<comments>
											<mastercomment1>RÃ…STOFF. BR_FINFREDAG_MSUA_OPRO</mastercomment1>
											<mastercomment2/>
											<mastercomment3/>
											<mastercomment4/>
											<clipcommenta/>
										</comments>
										<file id="msub200012-2511-001 2"/>
										<filter>
											<effect>
												<name>Audio Levels</name>
												<effectid>audiolevels</effectid>
												<effectcategory>audiolevels</effectcategory>
												<effecttype>audiolevels</effecttype>
												<mediatype>audio</mediatype>
												<parameter>
													<name>Level</name>
													<parameterid>level</parameterid>
													<valuemin>0</valuemin>
													<valuemax>3.98109</valuemax>
													<value>1</value>
												</parameter>
											</effect>
										</filter>
										<filter>
											<effect>
												<name>Audio Pan</name>
												<effectid>audiopan</effectid>
												<effectcategory>audiopan</effectcategory>
												<effecttype>audiopan</effecttype>
												<mediatype>audio</mediatype>
												<parameter>
													<name>Pan</name>
													<parameterid>pan</parameterid>
													<valuemin>-1</valuemin>
													<valuemax>1</valuemax>
													<value>0</value>
												</parameter>
											</effect>
										</filter>
										<sourcetrack>
											<mediatype>audio</mediatype>
											<trackindex>2</trackindex>
										</sourcetrack>
										<link>
											<linkclipref>msub200012-2511-001 14</linkclipref>
											<mediatype>video</mediatype>
											<trackindex>1</trackindex>
											<clipindex>11</clipindex>
										</link>
										<link>
											<linkclipref>msub200012-2511-001 15</linkclipref>
											<mediatype>audio</mediatype>
											<trackindex>1</trackindex>
											<clipindex>8</clipindex>
										</link>
										<link>
											<linkclipref>msub200012-2511-001 16</linkclipref>
											<mediatype>audio</mediatype>
											<trackindex>2</trackindex>
											<clipindex>8</clipindex>
										</link>
									</clipitem>
									<clipitem id="msub200012-2511-001 19">
										<name>msub200012-2511-001</name>
										<duration>27694</duration>
										<rate>
											<ntsc>FALSE</ntsc>
											<timebase>25</timebase>
										</rate>
										<in>2713</in>
										<out>2875</out>
										<start>1813</start>
										<end>1975</end>
										<subframeoffset>0</subframeoffset>
										<alphareverse>FALSE</alphareverse>
										<masterclipid>msub200012-2511-001 1</masterclipid>
										<logginginfo>
											<description>msub200012-2511-001</description>
											<scene/>
											<shottake/>
											<lognote/>
											<good>FALSE</good>
										</logginginfo>
										<labels>
											<label2/>
										</labels>
										<comments>
											<mastercomment1>RÃ…STOFF. BR_FINFREDAG_MSUA_OPRO</mastercomment1>
											<mastercomment2/>
											<mastercomment3/>
											<mastercomment4/>
											<clipcommenta/>
										</comments>
										<file id="msub200012-2511-001 2"/>
										<filter>
											<effect>
												<name>Audio Levels</name>
												<effectid>audiolevels</effectid>
												<effectcategory>audiolevels</effectcategory>
												<effecttype>audiolevels</effecttype>
												<mediatype>audio</mediatype>
												<parameter>
													<name>Level</name>
													<parameterid>level</parameterid>
													<valuemin>0</valuemin>
													<valuemax>3.98109</valuemax>
													<value>1</value>
												</parameter>
											</effect>
										</filter>
										<filter>
											<effect>
												<name>Audio Pan</name>
												<effectid>audiopan</effectid>
												<effectcategory>audiopan</effectcategory>
												<effecttype>audiopan</effecttype>
												<mediatype>audio</mediatype>
												<parameter>
													<name>Pan</name>
													<parameterid>pan</parameterid>
													<valuemin>-1</valuemin>
													<valuemax>1</valuemax>
													<value>0</value>
												</parameter>
											</effect>
										</filter>
										<sourcetrack>
											<mediatype>audio</mediatype>
											<trackindex>2</trackindex>
										</sourcetrack>
										<link>
											<linkclipref>msub200012-2511-001 17</linkclipref>
											<mediatype>video</mediatype>
											<trackindex>1</trackindex>
											<clipindex>13</clipindex>
										</link>
										<link>
											<linkclipref>msub200012-2511-001 18</linkclipref>
											<mediatype>audio</mediatype>
											<trackindex>1</trackindex>
											<clipindex>9</clipindex>
										</link>
										<link>
											<linkclipref>msub200012-2511-001 19</linkclipref>
											<mediatype>audio</mediatype>
											<trackindex>2</trackindex>
											<clipindex>9</clipindex>
										</link>
									</clipitem>
									<clipitem id="msub200012-2511-001 37">
										<name>msub200012-2511-001</name>
										<duration>27694</duration>
										<rate>
											<ntsc>FALSE</ntsc>
											<timebase>25</timebase>
										</rate>
										<in>16237</in>
										<out>16314</out>
										<start>2354</start>
										<end>2431</end>
										<subframeoffset>0</subframeoffset>
										<alphareverse>FALSE</alphareverse>
										<masterclipid>msub200012-2511-001 1</masterclipid>
										<logginginfo>
											<description>msub200012-2511-001</description>
											<scene/>
											<shottake/>
											<lognote/>
											<good>FALSE</good>
										</logginginfo>
										<labels>
											<label2/>
										</labels>
										<comments>
											<mastercomment1>RÃ…STOFF. BR_FINFREDAG_MSUA_OPRO</mastercomment1>
											<mastercomment2/>
											<mastercomment3/>
											<mastercomment4/>
											<clipcommenta/>
										</comments>
										<file id="msub200012-2511-001 2"/>
										<filter>
											<effect>
												<name>Audio Levels</name>
												<effectid>audiolevels</effectid>
												<effectcategory>audiolevels</effectcategory>
												<effecttype>audiolevels</effecttype>
												<mediatype>audio</mediatype>
												<parameter>
													<name>Level</name>
													<parameterid>level</parameterid>
													<valuemin>0</valuemin>
													<valuemax>3.98109</valuemax>
													<value>1</value>
												</parameter>
											</effect>
										</filter>
										<filter>
											<effect>
												<name>Audio Pan</name>
												<effectid>audiopan</effectid>
												<effectcategory>audiopan</effectcategory>
												<effecttype>audiopan</effecttype>
												<mediatype>audio</mediatype>
												<parameter>
													<name>Pan</name>
													<parameterid>pan</parameterid>
													<valuemin>-1</valuemin>
													<valuemax>1</valuemax>
													<value>0</value>
												</parameter>
											</effect>
										</filter>
										<sourcetrack>
											<mediatype>audio</mediatype>
											<trackindex>1</trackindex>
										</sourcetrack>
									</clipitem>
									<clipitem id="msub200012-2511-001 23">
										<name>msub200012-2511-001</name>
										<duration>27694</duration>
										<rate>
											<ntsc>FALSE</ntsc>
											<timebase>25</timebase>
										</rate>
										<in>16388</in>
										<out>16793</out>
										<start>2431</start>
										<end>2836</end>
										<subframeoffset>0</subframeoffset>
										<alphareverse>FALSE</alphareverse>
										<masterclipid>msub200012-2511-001 1</masterclipid>
										<logginginfo>
											<description>msub200012-2511-001</description>
											<scene/>
											<shottake/>
											<lognote/>
											<good>FALSE</good>
										</logginginfo>
										<labels>
											<label2/>
										</labels>
										<comments>
											<mastercomment1>RÃ…STOFF. BR_FINFREDAG_MSUA_OPRO</mastercomment1>
											<mastercomment2/>
											<mastercomment3/>
											<mastercomment4/>
											<clipcommenta/>
										</comments>
										<file id="msub200012-2511-001 2"/>
										<filter>
											<effect>
												<name>Audio Levels</name>
												<effectid>audiolevels</effectid>
												<effectcategory>audiolevels</effectcategory>
												<effecttype>audiolevels</effecttype>
												<mediatype>audio</mediatype>
												<parameter>
													<name>Level</name>
													<parameterid>level</parameterid>
													<valuemin>0</valuemin>
													<valuemax>3.98109</valuemax>
													<value>1</value>
												</parameter>
											</effect>
										</filter>
										<filter>
											<effect>
												<name>Audio Pan</name>
												<effectid>audiopan</effectid>
												<effectcategory>audiopan</effectcategory>
												<effecttype>audiopan</effecttype>
												<mediatype>audio</mediatype>
												<parameter>
													<name>Pan</name>
													<parameterid>pan</parameterid>
													<valuemin>-1</valuemin>
													<valuemax>1</valuemax>
													<value>0</value>
												</parameter>
											</effect>
										</filter>
										<sourcetrack>
											<mediatype>audio</mediatype>
											<trackindex>1</trackindex>
										</sourcetrack>
										<link>
											<linkclipref>msub200012-2511-001 21</linkclipref>
											<mediatype>video</mediatype>
											<trackindex>1</trackindex>
											<clipindex>20</clipindex>
										</link>
										<link>
											<linkclipref>msub200012-2511-001 22</linkclipref>
											<mediatype>audio</mediatype>
											<trackindex>1</trackindex>
											<clipindex>11</clipindex>
										</link>
										<link>
											<linkclipref>msub200012-2511-001 23</linkclipref>
											<mediatype>audio</mediatype>
											<trackindex>2</trackindex>
											<clipindex>11</clipindex>
										</link>
									</clipitem>
									<clipitem id="msub200012-2511-001 36">
										<name>msub200012-2511-001</name>
										<duration>27694</duration>
										<rate>
											<ntsc>FALSE</ntsc>
											<timebase>25</timebase>
										</rate>
										<in>20905</in>
										<out>21145</out>
										<start>2890</start>
										<end>3130</end>
										<subframeoffset>0</subframeoffset>
										<alphareverse>FALSE</alphareverse>
										<masterclipid>msub200012-2511-001 1</masterclipid>
										<logginginfo>
											<description>msub200012-2511-001</description>
											<scene/>
											<shottake/>
											<lognote/>
											<good>FALSE</good>
										</logginginfo>
										<labels>
											<label2/>
										</labels>
										<comments>
											<mastercomment1>RÃ…STOFF. BR_FINFREDAG_MSUA_OPRO</mastercomment1>
											<mastercomment2/>
											<mastercomment3/>
											<mastercomment4/>
											<clipcommenta/>
										</comments>
										<file id="msub200012-2511-001 2"/>
										<filter>
											<effect>
												<name>Audio Levels</name>
												<effectid>audiolevels</effectid>
												<effectcategory>audiolevels</effectcategory>
												<effecttype>audiolevels</effecttype>
												<mediatype>audio</mediatype>
												<parameter>
													<name>Level</name>
													<parameterid>level</parameterid>
													<valuemin>0</valuemin>
													<valuemax>3.98109</valuemax>
													<value>1</value>
												</parameter>
											</effect>
										</filter>
										<filter>
											<effect>
												<name>Audio Pan</name>
												<effectid>audiopan</effectid>
												<effectcategory>audiopan</effectcategory>
												<effecttype>audiopan</effecttype>
												<mediatype>audio</mediatype>
												<parameter>
													<name>Pan</name>
													<parameterid>pan</parameterid>
													<valuemin>-1</valuemin>
													<valuemax>1</valuemax>
													<value>0</value>
												</parameter>
											</effect>
										</filter>
										<sourcetrack>
											<mediatype>audio</mediatype>
											<trackindex>1</trackindex>
										</sourcetrack>
										<link>
											<linkclipref>msub200012-2511-001 35</linkclipref>
											<mediatype>audio</mediatype>
											<trackindex>1</trackindex>
											<clipindex>12</clipindex>
										</link>
										<link>
											<linkclipref>msub200012-2511-001 36</linkclipref>
											<mediatype>audio</mediatype>
											<trackindex>2</trackindex>
											<clipindex>12</clipindex>
										</link>
									</clipitem>
									<clipitem id="msub200012-2511-001 28">
										<name>msub200012-2511-001</name>
										<duration>27694</duration>
										<rate>
											<ntsc>FALSE</ntsc>
											<timebase>25</timebase>
										</rate>
										<in>25786</in>
										<out>26268</out>
										<start>3233</start>
										<end>3715</end>
										<subframeoffset>0</subframeoffset>
										<alphareverse>FALSE</alphareverse>
										<masterclipid>msub200012-2511-001 1</masterclipid>
										<logginginfo>
											<description>msub200012-2511-001</description>
											<scene/>
											<shottake/>
											<lognote/>
											<good>FALSE</good>
										</logginginfo>
										<labels>
											<label2/>
										</labels>
										<comments>
											<mastercomment1>RÃ…STOFF. BR_FINFREDAG_MSUA_OPRO</mastercomment1>
											<mastercomment2/>
											<mastercomment3/>
											<mastercomment4/>
											<clipcommenta/>
										</comments>
										<file id="msub200012-2511-001 2"/>
										<filter>
											<effect>
												<name>Audio Levels</name>
												<effectid>audiolevels</effectid>
												<effectcategory>audiolevels</effectcategory>
												<effecttype>audiolevels</effecttype>
												<mediatype>audio</mediatype>
												<parameter>
													<name>Level</name>
													<parameterid>level</parameterid>
													<valuemin>0</valuemin>
													<valuemax>3.98109</valuemax>
													<value>1</value>
												</parameter>
											</effect>
										</filter>
										<filter>
											<effect>
												<name>Audio Pan</name>
												<effectid>audiopan</effectid>
												<effectcategory>audiopan</effectcategory>
												<effecttype>audiopan</effecttype>
												<mediatype>audio</mediatype>
												<parameter>
													<name>Pan</name>
													<parameterid>pan</parameterid>
													<valuemin>-1</valuemin>
													<valuemax>1</valuemax>
													<value>0</value>
												</parameter>
											</effect>
										</filter>
										<sourcetrack>
											<mediatype>audio</mediatype>
											<trackindex>1</trackindex>
										</sourcetrack>
										<link>
											<linkclipref>msub200012-2511-001 26</linkclipref>
											<mediatype>video</mediatype>
											<trackindex>1</trackindex>
											<clipindex>26</clipindex>
										</link>
										<link>
											<linkclipref>msub200012-2511-001 27</linkclipref>
											<mediatype>audio</mediatype>
											<trackindex>1</trackindex>
											<clipindex>13</clipindex>
										</link>
										<link>
											<linkclipref>msub200012-2511-001 28</linkclipref>
											<mediatype>audio</mediatype>
											<trackindex>2</trackindex>
											<clipindex>13</clipindex>
										</link>
									</clipitem>
									<clipitem id="msub200012-2511-001 31">
										<name>msub200012-2511-001</name>
										<duration>27694</duration>
										<rate>
											<ntsc>FALSE</ntsc>
											<timebase>25</timebase>
										</rate>
										<in>19815</in>
										<out>20141</out>
										<start>3715</start>
										<end>4041</end>
										<subframeoffset>0</subframeoffset>
										<alphareverse>FALSE</alphareverse>
										<masterclipid>msub200012-2511-001 1</masterclipid>
										<logginginfo>
											<description>msub200012-2511-001</description>
											<scene/>
											<shottake/>
											<lognote/>
											<good>FALSE</good>
										</logginginfo>
										<labels>
											<label2/>
										</labels>
										<comments>
											<mastercomment1>RÃ…STOFF. BR_FINFREDAG_MSUA_OPRO</mastercomment1>
											<mastercomment2/>
											<mastercomment3/>
											<mastercomment4/>
											<clipcommenta/>
										</comments>
										<file id="msub200012-2511-001 2"/>
										<filter>
											<effect>
												<name>Audio Levels</name>
												<effectid>audiolevels</effectid>
												<effectcategory>audiolevels</effectcategory>
												<effecttype>audiolevels</effecttype>
												<mediatype>audio</mediatype>
												<parameter>
													<name>Level</name>
													<parameterid>level</parameterid>
													<valuemin>0</valuemin>
													<valuemax>3.98109</valuemax>
													<value>1</value>
												</parameter>
											</effect>
										</filter>
										<filter>
											<effect>
												<name>Audio Pan</name>
												<effectid>audiopan</effectid>
												<effectcategory>audiopan</effectcategory>
												<effecttype>audiopan</effecttype>
												<mediatype>audio</mediatype>
												<parameter>
													<name>Pan</name>
													<parameterid>pan</parameterid>
													<valuemin>-1</valuemin>
													<valuemax>1</valuemax>
													<value>0</value>
												</parameter>
											</effect>
										</filter>
										<sourcetrack>
											<mediatype>audio</mediatype>
											<trackindex>1</trackindex>
										</sourcetrack>
										<link>
											<linkclipref>msub200012-2511-001 29</linkclipref>
											<mediatype>video</mediatype>
											<trackindex>1</trackindex>
											<clipindex>28</clipindex>
										</link>
										<link>
											<linkclipref>msub200012-2511-001 30</linkclipref>
											<mediatype>audio</mediatype>
											<trackindex>1</trackindex>
											<clipindex>14</clipindex>
										</link>
										<link>
											<linkclipref>msub200012-2511-001 31</linkclipref>
											<mediatype>audio</mediatype>
											<trackindex>2</trackindex>
											<clipindex>14</clipindex>
										</link>
									</clipitem>
									<enabled>TRUE</enabled>
									<locked>FALSE</locked>
									<outputchannelindex>2</outputchannelindex>
								</track>
								<track>
									<clipitem id="24 THE SILENT WAY --- Suspense-filled guitar and dulcimer, full of anticipation; 140 bpm">
										<name>24 THE SILENT WAY --- Suspense-filled guitar and dulcimer, full of anticipation; 140 bpm</name>
										<duration>1716</duration>
										<rate>
											<ntsc>FALSE</ntsc>
											<timebase>25</timebase>
										</rate>
										<in>1372</in>
										<out>1716</out>
										<start>0</start>
										<end>344</end>
										<alphareverse>FALSE</alphareverse>
										<masterclipid>24 THE SILENT WAY --- Suspense-filled guitar and dulcimer, full of anticipation; 140 bpm1</masterclipid>
										<logginginfo>
											<scene/>
											<shottake/>
											<lognote/>
											<good>FALSE</good>
										</logginginfo>
										<labels>
											<label2/>
										</labels>
										<comments>
											<mastercomment1/>
											<mastercomment2/>
											<mastercomment3/>
											<mastercomment4/>
										</comments>
										<file id="24 THE SILENT WAY --- Suspense-filled guitar and dulcimer, full of anticipation; 140 bpm2">
											<name>24 THE SILENT WAY --- Suspense-filled guitar and dulcimer, full of anticipation; 140 bpm.aif</name>
											<pathurl>file://localhost/Volumes/Prosjekter_SuperSAN1-1/MSUB20000012%20FIN%20FREDAG/FCP-PROSJEKTER,%20sesong%202/program%201%20Jenny/musikk/24%20THE%20SILENT%20WAY%20---%20Suspense-filled%20guitar%20and%20dulcimer,%20full%20of%20anticipation%3B%20140%20bpm.aif</pathurl>
											<rate>
												<timebase>25</timebase>
											</rate>
											<duration>1716</duration>
											<media>
												<audio>
													<rate>
														<timebase>44100</timebase>
													</rate>
													<trackcount>2</trackcount>
													<samplecharacteristics>
														<depth>16</depth>
													</samplecharacteristics>
												</audio>
											</media>
										</file>
										<filter>
											<effect>
												<name>Audio Levels</name>
												<effectid>audiolevels</effectid>
												<effectcategory>audiolevels</effectcategory>
												<effecttype>audiolevels</effecttype>
												<mediatype>audio</mediatype>
												<parameter>
													<name>Level</name>
													<parameterid>level</parameterid>
													<valuemin>0</valuemin>
													<valuemax>3.98109</valuemax>
													<value>1</value>
												</parameter>
											</effect>
										</filter>
										<filter>
											<effect>
												<name>Audio Pan</name>
												<effectid>audiopan</effectid>
												<effectcategory>audiopan</effectcategory>
												<effecttype>audiopan</effecttype>
												<mediatype>audio</mediatype>
												<parameter>
													<name>Pan</name>
													<parameterid>pan</parameterid>
													<valuemin>-1</valuemin>
													<valuemax>1</valuemax>
													<value>-1</value>
												</parameter>
											</effect>
										</filter>
										<sourcetrack>
											<mediatype>audio</mediatype>
											<trackindex>1</trackindex>
										</sourcetrack>
										<link>
											<linkclipref>24 THE SILENT WAY --- Suspense-filled guitar and dulcimer, full of anticipation; 140 bpm</linkclipref>
											<mediatype>audio</mediatype>
											<trackindex>3</trackindex>
											<clipindex>1</clipindex>
											<groupindex>1</groupindex>
										</link>
										<link>
											<linkclipref>24 THE SILENT WAY --- Suspense-filled guitar and dulcimer, full of anticipation; 140 bpm3</linkclipref>
											<mediatype>audio</mediatype>
											<trackindex>4</trackindex>
											<clipindex>1</clipindex>
											<groupindex>1</groupindex>
										</link>
									</clipitem>
									<clipitem id="Haugestad Plopp">
										<name>Haugestad Plopp</name>
										<duration>13</duration>
										<rate>
											<ntsc>FALSE</ntsc>
											<timebase>25</timebase>
										</rate>
										<in>0</in>
										<out>13</out>
										<start>385</start>
										<end>398</end>
										<alphareverse>FALSE</alphareverse>
										<masterclipid>Haugestad Plopp1</masterclipid>
										<logginginfo>
											<scene/>
											<shottake/>
											<lognote/>
											<good>FALSE</good>
										</logginginfo>
										<labels>
											<label2/>
										</labels>
										<comments>
											<mastercomment1/>
											<mastercomment2/>
											<mastercomment3/>
											<mastercomment4/>
										</comments>
										<file id="Haugestad Plopp2">
											<name>Haugestad Plopp.WAV</name>
											<pathurl>file://localhost/Lekeplassen/Musikk%20og%20Lyd/Lydeffekter/Div%20lydeffekter/Haugestad%20Plopp.WAV</pathurl>
											<rate>
												<timebase>25</timebase>
											</rate>
											<duration>13</duration>
											<media>
												<audio>
													<rate>
														<timebase>48000</timebase>
													</rate>
													<trackcount>2</trackcount>
													<samplecharacteristics>
														<depth>16</depth>
													</samplecharacteristics>
												</audio>
											</media>
										</file>
										<filter>
											<effect>
												<name>Audio Levels</name>
												<effectid>audiolevels</effectid>
												<effectcategory>audiolevels</effectcategory>
												<effecttype>audiolevels</effecttype>
												<mediatype>audio</mediatype>
												<parameter>
													<name>Level</name>
													<parameterid>level</parameterid>
													<valuemin>0</valuemin>
													<valuemax>3.98109</valuemax>
													<value>1</value>
												</parameter>
											</effect>
										</filter>
										<filter>
											<effect>
												<name>Audio Pan</name>
												<effectid>audiopan</effectid>
												<effectcategory>audiopan</effectcategory>
												<effecttype>audiopan</effecttype>
												<mediatype>audio</mediatype>
												<parameter>
													<name>Pan</name>
													<parameterid>pan</parameterid>
													<valuemin>-1</valuemin>
													<valuemax>1</valuemax>
													<value>-1</value>
												</parameter>
											</effect>
										</filter>
										<sourcetrack>
											<mediatype>audio</mediatype>
											<trackindex>1</trackindex>
										</sourcetrack>
										<link>
											<linkclipref>Haugestad Plopp</linkclipref>
											<mediatype>audio</mediatype>
											<trackindex>3</trackindex>
											<clipindex>2</clipindex>
											<groupindex>1</groupindex>
										</link>
										<link>
											<linkclipref>Haugestad Plopp3</linkclipref>
											<mediatype>audio</mediatype>
											<trackindex>4</trackindex>
											<clipindex>2</clipindex>
											<groupindex>1</groupindex>
										</link>
									</clipitem>
									<clipitem id="Haugestad Plopp4">
										<name>Haugestad Plopp</name>
										<duration>13</duration>
										<rate>
											<ntsc>FALSE</ntsc>
											<timebase>25</timebase>
										</rate>
										<in>0</in>
										<out>13</out>
										<start>426</start>
										<end>439</end>
										<alphareverse>FALSE</alphareverse>
										<masterclipid>Haugestad Plopp1</masterclipid>
										<logginginfo>
											<scene/>
											<shottake/>
											<lognote/>
											<good>FALSE</good>
										</logginginfo>
										<labels>
											<label2/>
										</labels>
										<comments>
											<mastercomment1/>
											<mastercomment2/>
											<mastercomment3/>
											<mastercomment4/>
										</comments>
										<file id="Haugestad Plopp2"/>
										<filter>
											<effect>
												<name>Audio Levels</name>
												<effectid>audiolevels</effectid>
												<effectcategory>audiolevels</effectcategory>
												<effecttype>audiolevels</effecttype>
												<mediatype>audio</mediatype>
												<parameter>
													<name>Level</name>
													<parameterid>level</parameterid>
													<valuemin>0</valuemin>
													<valuemax>3.98109</valuemax>
													<value>1</value>
												</parameter>
											</effect>
										</filter>
										<filter>
											<effect>
												<name>Audio Pan</name>
												<effectid>audiopan</effectid>
												<effectcategory>audiopan</effectcategory>
												<effecttype>audiopan</effecttype>
												<mediatype>audio</mediatype>
												<parameter>
													<name>Pan</name>
													<parameterid>pan</parameterid>
													<valuemin>-1</valuemin>
													<valuemax>1</valuemax>
													<value>-1</value>
												</parameter>
											</effect>
										</filter>
										<sourcetrack>
											<mediatype>audio</mediatype>
											<trackindex>1</trackindex>
										</sourcetrack>
										<link>
											<linkclipref>Haugestad Plopp4</linkclipref>
											<mediatype>audio</mediatype>
											<trackindex>3</trackindex>
											<clipindex>3</clipindex>
											<groupindex>1</groupindex>
										</link>
										<link>
											<linkclipref>Haugestad Plopp5</linkclipref>
											<mediatype>audio</mediatype>
											<trackindex>4</trackindex>
											<clipindex>3</clipindex>
											<groupindex>1</groupindex>
										</link>
									</clipitem>
									<clipitem id="Haugestad Plopp6">
										<name>Haugestad Plopp</name>
										<duration>13</duration>
										<rate>
											<ntsc>FALSE</ntsc>
											<timebase>25</timebase>
										</rate>
										<in>0</in>
										<out>13</out>
										<start>459</start>
										<end>472</end>
										<alphareverse>FALSE</alphareverse>
										<masterclipid>Haugestad Plopp1</masterclipid>
										<logginginfo>
											<scene/>
											<shottake/>
											<lognote/>
											<good>FALSE</good>
										</logginginfo>
										<labels>
											<label2/>
										</labels>
										<comments>
											<mastercomment1/>
											<mastercomment2/>
											<mastercomment3/>
											<mastercomment4/>
										</comments>
										<file id="Haugestad Plopp2"/>
										<filter>
											<effect>
												<name>Audio Levels</name>
												<effectid>audiolevels</effectid>
												<effectcategory>audiolevels</effectcategory>
												<effecttype>audiolevels</effecttype>
												<mediatype>audio</mediatype>
												<parameter>
													<name>Level</name>
													<parameterid>level</parameterid>
													<valuemin>0</valuemin>
													<valuemax>3.98109</valuemax>
													<value>1</value>
												</parameter>
											</effect>
										</filter>
										<filter>
											<effect>
												<name>Audio Pan</name>
												<effectid>audiopan</effectid>
												<effectcategory>audiopan</effectcategory>
												<effecttype>audiopan</effecttype>
												<mediatype>audio</mediatype>
												<parameter>
													<name>Pan</name>
													<parameterid>pan</parameterid>
													<valuemin>-1</valuemin>
													<valuemax>1</valuemax>
													<value>-1</value>
												</parameter>
											</effect>
										</filter>
										<sourcetrack>
											<mediatype>audio</mediatype>
											<trackindex>1</trackindex>
										</sourcetrack>
										<link>
											<linkclipref>Haugestad Plopp6</linkclipref>
											<mediatype>audio</mediatype>
											<trackindex>3</trackindex>
											<clipindex>4</clipindex>
											<groupindex>1</groupindex>
										</link>
										<link>
											<linkclipref>Haugestad Plopp7</linkclipref>
											<mediatype>audio</mediatype>
											<trackindex>4</trackindex>
											<clipindex>4</clipindex>
											<groupindex>1</groupindex>
										</link>
									</clipitem>
									<clipitem id="Spolelyd bakover">
										<name>Spolelyd bakover</name>
										<duration>75</duration>
										<rate>
											<ntsc>FALSE</ntsc>
											<timebase>25</timebase>
										</rate>
										<in>43</in>
										<out>75</out>
										<start>838</start>
										<end>870</end>
										<alphareverse>FALSE</alphareverse>
										<masterclipid>Spolelyd bakover1</masterclipid>
										<logginginfo>
											<scene/>
											<shottake/>
											<lognote/>
											<good>FALSE</good>
										</logginginfo>
										<labels>
											<label2/>
										</labels>
										<comments>
											<mastercomment1/>
											<mastercomment2/>
											<mastercomment3/>
											<mastercomment4/>
										</comments>
										<file id="Spolelyd bakover2">
											<name>Spolelyd bakover.aif</name>
											<pathurl>file://localhost/Lekeplassen/Musikk%20og%20Lyd/Lydeffekter/OBUB01000007%20Fabrikken%20(alle%20programmer)%20LYD%20FX%20Ragnar/Svisj%20Svosj%20overganger%20m.m./Spolelyd%20bakover.aif</pathurl>
											<rate>
												<timebase>25</timebase>
											</rate>
											<duration>75</duration>
											<media>
												<audio>
													<rate>
														<timebase>48000</timebase>
													</rate>
													<trackcount>2</trackcount>
													<samplecharacteristics>
														<depth>16</depth>
													</samplecharacteristics>
												</audio>
											</media>
										</file>
										<filter>
											<effect>
												<name>Audio Levels</name>
												<effectid>audiolevels</effectid>
												<effectcategory>audiolevels</effectcategory>
												<effecttype>audiolevels</effecttype>
												<mediatype>audio</mediatype>
												<parameter>
													<name>Level</name>
													<parameterid>level</parameterid>
													<valuemin>0</valuemin>
													<valuemax>3.98109</valuemax>
													<value>1</value>
												</parameter>
											</effect>
										</filter>
										<filter>
											<effect>
												<name>Audio Pan</name>
												<effectid>audiopan</effectid>
												<effectcategory>audiopan</effectcategory>
												<effecttype>audiopan</effecttype>
												<mediatype>audio</mediatype>
												<parameter>
													<name>Pan</name>
													<parameterid>pan</parameterid>
													<valuemin>-1</valuemin>
													<valuemax>1</valuemax>
													<value>-1</value>
												</parameter>
											</effect>
										</filter>
										<sourcetrack>
											<mediatype>audio</mediatype>
											<trackindex>1</trackindex>
										</sourcetrack>
										<link>
											<linkclipref>Spolelyd bakover</linkclipref>
											<mediatype>audio</mediatype>
											<trackindex>3</trackindex>
											<clipindex>5</clipindex>
											<groupindex>1</groupindex>
										</link>
										<link>
											<linkclipref>Spolelyd bakover3</linkclipref>
											<mediatype>audio</mediatype>
											<trackindex>4</trackindex>
											<clipindex>8</clipindex>
											<groupindex>1</groupindex>
										</link>
									</clipitem>
									<clipitem id="Voice Over 6.aif">
										<name>Voice Over 6.aif</name>
										<duration>353</duration>
										<rate>
											<ntsc>FALSE</ntsc>
											<timebase>25</timebase>
										</rate>
										<in>258</in>
										<out>293</out>
										<start>1260</start>
										<end>1295</end>
										<alphareverse>FALSE</alphareverse>
										<masterclipid>Voice Over 6.aif1</masterclipid>
										<logginginfo>
											<scene/>
											<shottake/>
											<lognote/>
											<good>FALSE</good>
										</logginginfo>
										<labels>
											<label>Best Take</label>
											<label2/>
										</labels>
										<comments>
											<mastercomment1/>
											<mastercomment2/>
											<mastercomment3/>
											<mastercomment4/>
										</comments>
										<file id="Voice Over 6 ">
											<name>Voice Over 6.aif</name>
											<pathurl>file://localhost/SuperSAN1/Prosjekter/MSUB20000012%20FIN%20FREDAG/FCP-PROSJEKTER,%20sesong%202/program%201%20Jenny/voice/Voice%20Over%206.aif</pathurl>
											<rate>
												<timebase>25</timebase>
											</rate>
											<duration>353</duration>
											<media>
												<audio>
													<rate>
														<timebase>48000</timebase>
													</rate>
													<trackcount>2</trackcount>
													<samplecharacteristics>
														<depth>16</depth>
													</samplecharacteristics>
												</audio>
											</media>
										</file>
										<filter>
											<effect>
												<name>Audio Levels</name>
												<effectid>audiolevels</effectid>
												<effectcategory>audiolevels</effectcategory>
												<effecttype>audiolevels</effecttype>
												<mediatype>audio</mediatype>
												<parameter>
													<name>Level</name>
													<parameterid>level</parameterid>
													<valuemin>0</valuemin>
													<valuemax>3.98109</valuemax>
													<value>1</value>
												</parameter>
											</effect>
										</filter>
										<filter>
											<effect>
												<name>Audio Pan</name>
												<effectid>audiopan</effectid>
												<effectcategory>audiopan</effectcategory>
												<effecttype>audiopan</effecttype>
												<mediatype>audio</mediatype>
												<parameter>
													<name>Pan</name>
													<parameterid>pan</parameterid>
													<valuemin>-1</valuemin>
													<valuemax>1</valuemax>
													<value>0</value>
												</parameter>
											</effect>
										</filter>
										<sourcetrack>
											<mediatype>audio</mediatype>
											<trackindex>1</trackindex>
										</sourcetrack>
									</clipitem>
									<clipitem id="Haugestad Plopp8">
										<name>Haugestad Plopp</name>
										<duration>13</duration>
										<rate>
											<ntsc>FALSE</ntsc>
											<timebase>25</timebase>
										</rate>
										<in>0</in>
										<out>13</out>
										<start>1339</start>
										<end>1352</end>
										<alphareverse>FALSE</alphareverse>
										<masterclipid>Haugestad Plopp1</masterclipid>
										<logginginfo>
											<scene/>
											<shottake/>
											<lognote/>
											<good>FALSE</good>
										</logginginfo>
										<labels>
											<label2/>
										</labels>
										<comments>
											<mastercomment1/>
											<mastercomment2/>
											<mastercomment3/>
											<mastercomment4/>
										</comments>
										<file id="Haugestad Plopp2"/>
										<filter>
											<effect>
												<name>Audio Levels</name>
												<effectid>audiolevels</effectid>
												<effectcategory>audiolevels</effectcategory>
												<effecttype>audiolevels</effecttype>
												<mediatype>audio</mediatype>
												<parameter>
													<name>Level</name>
													<parameterid>level</parameterid>
													<valuemin>0</valuemin>
													<valuemax>3.98109</valuemax>
													<value>1</value>
												</parameter>
											</effect>
										</filter>
										<filter>
											<effect>
												<name>Audio Pan</name>
												<effectid>audiopan</effectid>
												<effectcategory>audiopan</effectcategory>
												<effecttype>audiopan</effecttype>
												<mediatype>audio</mediatype>
												<parameter>
													<name>Pan</name>
													<parameterid>pan</parameterid>
													<valuemin>-1</valuemin>
													<valuemax>1</valuemax>
													<value>-1</value>
												</parameter>
											</effect>
										</filter>
										<sourcetrack>
											<mediatype>audio</mediatype>
											<trackindex>1</trackindex>
										</sourcetrack>
										<link>
											<linkclipref>Haugestad Plopp8</linkclipref>
											<mediatype>audio</mediatype>
											<trackindex>3</trackindex>
											<clipindex>7</clipindex>
											<groupindex>1</groupindex>
										</link>
										<link>
											<linkclipref>Haugestad Plopp9</linkclipref>
											<mediatype>audio</mediatype>
											<trackindex>4</trackindex>
											<clipindex>10</clipindex>
											<groupindex>1</groupindex>
										</link>
									</clipitem>
									<transitionitem id="920018460 ">
										<rate>
											<ntsc>FALSE</ntsc>
											<timebase>25</timebase>
										</rate>
										<start>1941</start>
										<end>1991</end>
										<alignment>start-black</alignment>
										<effect>
											<name>Cross Fade ( 0dB)</name>
											<effecttype>transition</effecttype>
											<mediatype>audio</mediatype>
										</effect>
									</transitionitem>
									<clipitem id="FOLA008871-AR-199205497 4">
										<name>FOLA008871-AR-199205497</name>
										<duration>39675</duration>
										<rate>
											<ntsc>FALSE</ntsc>
											<timebase>25</timebase>
										</rate>
										<in>37366</in>
										<out>37637</out>
										<start>-1</start>
										<end>2212</end>
										<subframeoffset>0</subframeoffset>
										<alphareverse>FALSE</alphareverse>
										<masterclipid>FOLA008871-AR-199205497 1</masterclipid>
										<logginginfo>
											<description>Gulost - meir enn gouda  (Gulost - mer enn gouda)</description>
											<scene/>
											<shottake/>
											<lognote/>
											<good>FALSE</good>
										</logginginfo>
										<labels>
											<label2/>
										</labels>
										<comments>
											<mastercomment1>ARKIVSTOFF</mastercomment1>
											<mastercomment2>. </mastercomment2>
											<mastercomment3>Sendt: 1971-09-27. NRK P: Ingrid Espelid (Hovig), Olav Aasmundtveit. </mastercomment3>
											<mastercomment4>Filmprogram. Tegning av kokk med to fat, tekst, "Gulost - meir enn gouda". Mann Ã¥pner matboks og ser pÃ¥ innholdet. Melk ned i ystekar. Den blir blandet i moderne maskiner. Fra laboratoriet. LÃ¸ype blir blandet i melken. LÃ¸ypa gjÃ¸r sÃ¥ melken koagulerer og virker som gele. Den geleaktige massen blir hakket til smÃ¥biter. Vi ser prosessen inntil osten kan lagres. Skorpefri gouda, jarlsberg og sveitser blir stemplet. Osten blir senktet i saltlake. Blir trillet inn pÃ¥ lagringsrommet. Goudaen blir satt inn med et plastlignende stoff sÃ¥ den ikke skal mugne. Osten blir sÃ¥ snudd hver dag i en spesialkonstruert maskin. Etter en mÃ¥neds lagring blir osten dyppet i smeltet parafinvoks, som skal verne osten mot unÃ¸dig uttÃ¸rking. NÃ¦rt lagret gouda og jarlsberg. Ingrid ESPELID (HOVIG) lager ostekake. Vi ser det ferdige resultatet. Hun lager ostesmÃ¸rbrÃ¸d og fiskerett med ost. Vi ser det ferdiglaget. Shot fra havnen og innfarten til Haugesund. Normannaystereiet i Ã˜len i Sunnhordland. Mann undersÃ¸ker ost. Det uferdige produktet blir gjort ferdig til lagring. En ferdig lagret Normannaost. Bilder fra sjÃ¸en ved JÃ¦ren, div. naturshot. Ostelageret ved Klepp pÃ¥ JÃ¦ren. Ost pÃ¥ samlebÃ¥nd. Ost i lagringshall. Skorpefri gouda blir pakket med moderne maskiner. Framstilling av Cheddar. De forskjellige fasene inntil det ferdige produktet. Ingrid ESPELID (HOVIG) lager ostesuffle av Cheddar, og pizza..</mastercomment4>
											<clipcommenta/>
											<clipcommentb>1:F-miks 2:F-miks.16x9 PAL.</clipcommentb>
										</comments>
										<file id="FOLA008871-AR-199205497 2"/>
										<marker>
											<name>intro. 0</name>
											<comment>Gul ost mer enn gouda</comment>
											<in>0</in>
											<out>819</out>
										</marker>
										<marker>
											<name/>
											<comment/>
											<in>21630</in>
											<out>22255</out>
										</marker>
										<marker>
											<name>ostesuffle. 0</name>
											<comment/>
											<in>32883</in>
											<out>36477</out>
										</marker>
										<marker>
											<name>pizza anno 1971. 0</name>
											<comment>tomater, ansjos, ost, oregano</comment>
											<in>36349</in>
											<out>39458</out>
										</marker>
										<filter>
											<effect>
												<name>Audio Levels</name>
												<effectid>audiolevels</effectid>
												<effectcategory>audiolevels</effectcategory>
												<effecttype>audiolevels</effecttype>
												<mediatype>audio</mediatype>
												<parameter>
													<name>Level</name>
													<parameterid>level</parameterid>
													<valuemin>0</valuemin>
													<valuemax>3.98109</valuemax>
													<value>1</value>
												</parameter>
											</effect>
										</filter>
										<filter>
											<effect>
												<name>Audio Pan</name>
												<effectid>audiopan</effectid>
												<effectcategory>audiopan</effectcategory>
												<effecttype>audiopan</effecttype>
												<mediatype>audio</mediatype>
												<parameter>
													<name>Pan</name>
													<parameterid>pan</parameterid>
													<valuemin>-1</valuemin>
													<valuemax>1</valuemax>
													<value>0</value>
												</parameter>
											</effect>
										</filter>
										<sourcetrack>
											<mediatype>audio</mediatype>
											<trackindex>1</trackindex>
										</sourcetrack>
										<link>
											<linkclipref>FOLA008871-AR-199205497 4</linkclipref>
											<mediatype>audio</mediatype>
											<trackindex>3</trackindex>
											<clipindex>9</clipindex>
										</link>
										<link>
											<linkclipref>FOLA008871-AR-199205497 5</linkclipref>
											<mediatype>audio</mediatype>
											<trackindex>4</trackindex>
											<clipindex>13</clipindex>
										</link>
									</clipitem>
									<clipitem id="FOLA008871-AR-199205497 6">
										<name>FOLA008871-AR-199205497</name>
										<duration>39675</duration>
										<rate>
											<ntsc>FALSE</ntsc>
											<timebase>25</timebase>
										</rate>
										<in>39347</in>
										<out>39502</out>
										<start>2212</start>
										<end>2367</end>
										<subframeoffset>0</subframeoffset>
										<alphareverse>FALSE</alphareverse>
										<masterclipid>FOLA008871-AR-199205497 1</masterclipid>
										<logginginfo>
											<description>Gulost - meir enn gouda  (Gulost - mer enn gouda)</description>
											<scene/>
											<shottake/>
											<lognote/>
											<good>FALSE</good>
										</logginginfo>
										<labels>
											<label2/>
										</labels>
										<comments>
											<mastercomment1>ARKIVSTOFF</mastercomment1>
											<mastercomment2>. </mastercomment2>
											<mastercomment3>Sendt: 1971-09-27. NRK P: Ingrid Espelid (Hovig), Olav Aasmundtveit. </mastercomment3>
											<mastercomment4>Filmprogram. Tegning av kokk med to fat, tekst, "Gulost - meir enn gouda". Mann Ã¥pner matboks og ser pÃ¥ innholdet. Melk ned i ystekar. Den blir blandet i moderne maskiner. Fra laboratoriet. LÃ¸ype blir blandet i melken. LÃ¸ypa gjÃ¸r sÃ¥ melken koagulerer og virker som gele. Den geleaktige massen blir hakket til smÃ¥biter. Vi ser prosessen inntil osten kan lagres. Skorpefri gouda, jarlsberg og sveitser blir stemplet. Osten blir senktet i saltlake. Blir trillet inn pÃ¥ lagringsrommet. Goudaen blir satt inn med et plastlignende stoff sÃ¥ den ikke skal mugne. Osten blir sÃ¥ snudd hver dag i en spesialkonstruert maskin. Etter en mÃ¥neds lagring blir osten dyppet i smeltet parafinvoks, som skal verne osten mot unÃ¸dig uttÃ¸rking. NÃ¦rt lagret gouda og jarlsberg. Ingrid ESPELID (HOVIG) lager ostekake. Vi ser det ferdige resultatet. Hun lager ostesmÃ¸rbrÃ¸d og fiskerett med ost. Vi ser det ferdiglaget. Shot fra havnen og innfarten til Haugesund. Normannaystereiet i Ã˜len i Sunnhordland. Mann undersÃ¸ker ost. Det uferdige produktet blir gjort ferdig til lagring. En ferdig lagret Normannaost. Bilder fra sjÃ¸en ved JÃ¦ren, div. naturshot. Ostelageret ved Klepp pÃ¥ JÃ¦ren. Ost pÃ¥ samlebÃ¥nd. Ost i lagringshall. Skorpefri gouda blir pakket med moderne maskiner. Framstilling av Cheddar. De forskjellige fasene inntil det ferdige produktet. Ingrid ESPELID (HOVIG) lager ostesuffle av Cheddar, og pizza..</mastercomment4>
											<clipcommenta/>
											<clipcommentb>1:F-miks 2:F-miks.16x9 PAL.</clipcommentb>
										</comments>
										<file id="FOLA008871-AR-199205497 2"/>
										<marker>
											<name>intro. 0</name>
											<comment>Gul ost mer enn gouda</comment>
											<in>0</in>
											<out>819</out>
										</marker>
										<marker>
											<name/>
											<comment/>
											<in>21630</in>
											<out>22255</out>
										</marker>
										<marker>
											<name>ostesuffle. 0</name>
											<comment/>
											<in>32883</in>
											<out>36477</out>
										</marker>
										<marker>
											<name>pizza anno 1971. 0</name>
											<comment>tomater, ansjos, ost, oregano</comment>
											<in>36349</in>
											<out>39458</out>
										</marker>
										<filter>
											<effect>
												<name>Audio Levels</name>
												<effectid>audiolevels</effectid>
												<effectcategory>audiolevels</effectcategory>
												<effecttype>audiolevels</effecttype>
												<mediatype>audio</mediatype>
												<parameter>
													<name>Level</name>
													<parameterid>level</parameterid>
													<valuemin>0</valuemin>
													<valuemax>3.98109</valuemax>
													<value>1</value>
												</parameter>
											</effect>
										</filter>
										<filter>
											<effect>
												<name>Audio Pan</name>
												<effectid>audiopan</effectid>
												<effectcategory>audiopan</effectcategory>
												<effecttype>audiopan</effecttype>
												<mediatype>audio</mediatype>
												<parameter>
													<name>Pan</name>
													<parameterid>pan</parameterid>
													<valuemin>-1</valuemin>
													<valuemax>1</valuemax>
													<value>0</value>
												</parameter>
											</effect>
										</filter>
										<sourcetrack>
											<mediatype>audio</mediatype>
											<trackindex>1</trackindex>
										</sourcetrack>
									</clipitem>
									<clipitem id="Voice Over 1.aif">
										<name>Voice Over 1.aif</name>
										<duration>477</duration>
										<rate>
											<ntsc>FALSE</ntsc>
											<timebase>25</timebase>
										</rate>
										<in>361</in>
										<out>378</out>
										<start>2375</start>
										<end>2392</end>
										<alphareverse>FALSE</alphareverse>
										<masterclipid>Voice Over 1.aif1</masterclipid>
										<logginginfo>
											<scene/>
											<shottake/>
											<lognote/>
											<good>FALSE</good>
										</logginginfo>
										<labels>
											<label>Best Take</label>
											<label2/>
										</labels>
										<comments>
											<mastercomment1/>
											<mastercomment2/>
											<mastercomment3/>
											<mastercomment4/>
										</comments>
										<file id="Voice Over 1 ">
											<name>Voice Over 1.aif</name>
											<pathurl>file://localhost/Volumes/Prosjekter_SuperSAN1-1/MSUB20000012%20FIN%20FREDAG/FCP-PROSJEKTER,%20sesong%202/program%201%20Jenny/voice/Voice%20Over%201.aif</pathurl>
											<rate>
												<timebase>25</timebase>
											</rate>
											<duration>477</duration>
											<media>
												<audio>
													<rate>
														<timebase>48000</timebase>
													</rate>
													<trackcount>2</trackcount>
													<samplecharacteristics>
														<depth>16</depth>
													</samplecharacteristics>
												</audio>
											</media>
										</file>
										<filter>
											<effect>
												<name>Audio Levels</name>
												<effectid>audiolevels</effectid>
												<effectcategory>audiolevels</effectcategory>
												<effecttype>audiolevels</effecttype>
												<mediatype>audio</mediatype>
												<parameter>
													<name>Level</name>
													<parameterid>level</parameterid>
													<valuemin>0</valuemin>
													<valuemax>3.98109</valuemax>
													<value>1</value>
												</parameter>
											</effect>
										</filter>
										<filter>
											<effect>
												<name>Audio Pan</name>
												<effectid>audiopan</effectid>
												<effectcategory>audiopan</effectcategory>
												<effecttype>audiopan</effecttype>
												<mediatype>audio</mediatype>
												<parameter>
													<name>Pan</name>
													<parameterid>pan</parameterid>
													<valuemin>-1</valuemin>
													<valuemax>1</valuemax>
													<value>0</value>
												</parameter>
											</effect>
										</filter>
										<sourcetrack>
											<mediatype>audio</mediatype>
											<trackindex>1</trackindex>
										</sourcetrack>
									</clipitem>
									<clipitem id="Fotografering kamera -4">
										<name>Fotografering kamera -</name>
										<duration>361</duration>
										<rate>
											<ntsc>FALSE</ntsc>
											<timebase>25</timebase>
										</rate>
										<in>0</in>
										<out>22</out>
										<start>2824</start>
										<end>2846</end>
										<alphareverse>FALSE</alphareverse>
										<masterclipid>Fotografering kamera -1</masterclipid>
										<logginginfo>
											<scene/>
											<shottake/>
											<lognote/>
											<good>FALSE</good>
										</logginginfo>
										<labels>
											<label2/>
										</labels>
										<comments>
											<mastercomment1/>
											<mastercomment2/>
											<mastercomment3/>
											<mastercomment4/>
										</comments>
										<file id="Fotografering kamera -2"/>
										<filter>
											<effect>
												<name>Audio Levels</name>
												<effectid>audiolevels</effectid>
												<effectcategory>audiolevels</effectcategory>
												<effecttype>audiolevels</effecttype>
												<mediatype>audio</mediatype>
												<parameter>
													<name>Level</name>
													<parameterid>level</parameterid>
													<valuemin>0</valuemin>
													<valuemax>3.98109</valuemax>
													<value>1</value>
												</parameter>
											</effect>
										</filter>
										<filter>
											<effect>
												<name>Audio Pan</name>
												<effectid>audiopan</effectid>
												<effectcategory>audiopan</effectcategory>
												<effecttype>audiopan</effecttype>
												<mediatype>audio</mediatype>
												<parameter>
													<name>Pan</name>
													<parameterid>pan</parameterid>
													<valuemin>-1</valuemin>
													<valuemax>1</valuemax>
													<value>-1</value>
												</parameter>
											</effect>
										</filter>
										<sourcetrack>
											<mediatype>audio</mediatype>
											<trackindex>1</trackindex>
										</sourcetrack>
										<link>
											<linkclipref>Fotografering kamera -4</linkclipref>
											<mediatype>audio</mediatype>
											<trackindex>3</trackindex>
											<clipindex>12</clipindex>
											<groupindex>1</groupindex>
										</link>
										<link>
											<linkclipref>Fotografering kamera -5</linkclipref>
											<mediatype>audio</mediatype>
											<trackindex>4</trackindex>
											<clipindex>15</clipindex>
											<groupindex>1</groupindex>
										</link>
									</clipitem>
									<clipitem id="Fotografering kamera -6">
										<name>Fotografering kamera -</name>
										<duration>361</duration>
										<rate>
											<ntsc>FALSE</ntsc>
											<timebase>25</timebase>
										</rate>
										<in>0</in>
										<out>22</out>
										<start>3157</start>
										<end>3179</end>
										<alphareverse>FALSE</alphareverse>
										<masterclipid>Fotografering kamera -1</masterclipid>
										<logginginfo>
											<scene/>
											<shottake/>
											<lognote/>
											<good>FALSE</good>
										</logginginfo>
										<labels>
											<label2/>
										</labels>
										<comments>
											<mastercomment1/>
											<mastercomment2/>
											<mastercomment3/>
											<mastercomment4/>
										</comments>
										<file id="Fotografering kamera -2"/>
										<filter>
											<effect>
												<name>Audio Levels</name>
												<effectid>audiolevels</effectid>
												<effectcategory>audiolevels</effectcategory>
												<effecttype>audiolevels</effecttype>
												<mediatype>audio</mediatype>
												<parameter>
													<name>Level</name>
													<parameterid>level</parameterid>
													<valuemin>0</valuemin>
													<valuemax>3.98109</valuemax>
													<value>1</value>
												</parameter>
											</effect>
										</filter>
										<filter>
											<effect>
												<name>Audio Pan</name>
												<effectid>audiopan</effectid>
												<effectcategory>audiopan</effectcategory>
												<effecttype>audiopan</effecttype>
												<mediatype>audio</mediatype>
												<parameter>
													<name>Pan</name>
													<parameterid>pan</parameterid>
													<valuemin>-1</valuemin>
													<valuemax>1</valuemax>
													<value>-1</value>
												</parameter>
											</effect>
										</filter>
										<sourcetrack>
											<mediatype>audio</mediatype>
											<trackindex>1</trackindex>
										</sourcetrack>
										<link>
											<linkclipref>Fotografering kamera -6</linkclipref>
											<mediatype>audio</mediatype>
											<trackindex>3</trackindex>
											<clipindex>13</clipindex>
											<groupindex>1</groupindex>
										</link>
										<link>
											<linkclipref>Fotografering kamera -7</linkclipref>
											<mediatype>audio</mediatype>
											<trackindex>4</trackindex>
											<clipindex>16</clipindex>
											<groupindex>1</groupindex>
										</link>
									</clipitem>
									<clipitem id="Fotografering kamera -8">
										<name>Fotografering kamera -</name>
										<duration>361</duration>
										<rate>
											<ntsc>FALSE</ntsc>
											<timebase>25</timebase>
										</rate>
										<in>0</in>
										<out>22</out>
										<start>3703</start>
										<end>3725</end>
										<alphareverse>FALSE</alphareverse>
										<masterclipid>Fotografering kamera -1</masterclipid>
										<logginginfo>
											<scene/>
											<shottake/>
											<lognote/>
											<good>FALSE</good>
										</logginginfo>
										<labels>
											<label2/>
										</labels>
										<comments>
											<mastercomment1/>
											<mastercomment2/>
											<mastercomment3/>
											<mastercomment4/>
										</comments>
										<file id="Fotografering kamera -2"/>
										<filter>
											<effect>
												<name>Audio Levels</name>
												<effectid>audiolevels</effectid>
												<effectcategory>audiolevels</effectcategory>
												<effecttype>audiolevels</effecttype>
												<mediatype>audio</mediatype>
												<parameter>
													<name>Level</name>
													<parameterid>level</parameterid>
													<valuemin>0</valuemin>
													<valuemax>3.98109</valuemax>
													<value>1</value>
												</parameter>
											</effect>
										</filter>
										<filter>
											<effect>
												<name>Audio Pan</name>
												<effectid>audiopan</effectid>
												<effectcategory>audiopan</effectcategory>
												<effecttype>audiopan</effecttype>
												<mediatype>audio</mediatype>
												<parameter>
													<name>Pan</name>
													<parameterid>pan</parameterid>
													<valuemin>-1</valuemin>
													<valuemax>1</valuemax>
													<value>-1</value>
												</parameter>
											</effect>
										</filter>
										<sourcetrack>
											<mediatype>audio</mediatype>
											<trackindex>1</trackindex>
										</sourcetrack>
										<link>
											<linkclipref>Fotografering kamera -8</linkclipref>
											<mediatype>audio</mediatype>
											<trackindex>3</trackindex>
											<clipindex>14</clipindex>
											<groupindex>1</groupindex>
										</link>
										<link>
											<linkclipref>Fotografering kamera -9</linkclipref>
											<mediatype>audio</mediatype>
											<trackindex>4</trackindex>
											<clipindex>17</clipindex>
											<groupindex>1</groupindex>
										</link>
									</clipitem>
									<enabled>TRUE</enabled>
									<locked>FALSE</locked>
									<outputchannelindex>1</outputchannelindex>
								</track>
								<track>
									<clipitem id="24 THE SILENT WAY --- Suspense-filled guitar and dulcimer, full of anticipation; 140 bpm3">
										<name>24 THE SILENT WAY --- Suspense-filled guitar and dulcimer, full of anticipation; 140 bpm</name>
										<duration>1716</duration>
										<rate>
											<ntsc>FALSE</ntsc>
											<timebase>25</timebase>
										</rate>
										<in>1372</in>
										<out>1716</out>
										<start>0</start>
										<end>344</end>
										<alphareverse>FALSE</alphareverse>
										<masterclipid>24 THE SILENT WAY --- Suspense-filled guitar and dulcimer, full of anticipation; 140 bpm1</masterclipid>
										<logginginfo>
											<scene/>
											<shottake/>
											<lognote/>
											<good>FALSE</good>
										</logginginfo>
										<labels>
											<label2/>
										</labels>
										<comments>
											<mastercomment1/>
											<mastercomment2/>
											<mastercomment3/>
											<mastercomment4/>
										</comments>
										<file id="24 THE SILENT WAY --- Suspense-filled guitar and dulcimer, full of anticipation; 140 bpm2"/>
										<filter>
											<effect>
												<name>Audio Levels</name>
												<effectid>audiolevels</effectid>
												<effectcategory>audiolevels</effectcategory>
												<effecttype>audiolevels</effecttype>
												<mediatype>audio</mediatype>
												<parameter>
													<name>Level</name>
													<parameterid>level</parameterid>
													<valuemin>0</valuemin>
													<valuemax>3.98109</valuemax>
													<value>1</value>
												</parameter>
											</effect>
										</filter>
										<filter>
											<effect>
												<name>Audio Pan</name>
												<effectid>audiopan</effectid>
												<effectcategory>audiopan</effectcategory>
												<effecttype>audiopan</effecttype>
												<mediatype>audio</mediatype>
												<parameter>
													<name>Pan</name>
													<parameterid>pan</parameterid>
													<valuemin>-1</valuemin>
													<valuemax>1</valuemax>
													<value>1</value>
												</parameter>
											</effect>
										</filter>
										<sourcetrack>
											<mediatype>audio</mediatype>
											<trackindex>2</trackindex>
										</sourcetrack>
										<link>
											<linkclipref>24 THE SILENT WAY --- Suspense-filled guitar and dulcimer, full of anticipation; 140 bpm</linkclipref>
											<mediatype>audio</mediatype>
											<trackindex>3</trackindex>
											<clipindex>1</clipindex>
											<groupindex>1</groupindex>
										</link>
										<link>
											<linkclipref>24 THE SILENT WAY --- Suspense-filled guitar and dulcimer, full of anticipation; 140 bpm3</linkclipref>
											<mediatype>audio</mediatype>
											<trackindex>4</trackindex>
											<clipindex>1</clipindex>
											<groupindex>1</groupindex>
										</link>
									</clipitem>
									<clipitem id="Haugestad Plopp3">
										<name>Haugestad Plopp</name>
										<duration>13</duration>
										<rate>
											<ntsc>FALSE</ntsc>
											<timebase>25</timebase>
										</rate>
										<in>0</in>
										<out>13</out>
										<start>385</start>
										<end>398</end>
										<alphareverse>FALSE</alphareverse>
										<masterclipid>Haugestad Plopp1</masterclipid>
										<logginginfo>
											<scene/>
											<shottake/>
											<lognote/>
											<good>FALSE</good>
										</logginginfo>
										<labels>
											<label2/>
										</labels>
										<comments>
											<mastercomment1/>
											<mastercomment2/>
											<mastercomment3/>
											<mastercomment4/>
										</comments>
										<file id="Haugestad Plopp2"/>
										<filter>
											<effect>
												<name>Audio Levels</name>
												<effectid>audiolevels</effectid>
												<effectcategory>audiolevels</effectcategory>
												<effecttype>audiolevels</effecttype>
												<mediatype>audio</mediatype>
												<parameter>
													<name>Level</name>
													<parameterid>level</parameterid>
													<valuemin>0</valuemin>
													<valuemax>3.98109</valuemax>
													<value>1</value>
												</parameter>
											</effect>
										</filter>
										<filter>
											<effect>
												<name>Audio Pan</name>
												<effectid>audiopan</effectid>
												<effectcategory>audiopan</effectcategory>
												<effecttype>audiopan</effecttype>
												<mediatype>audio</mediatype>
												<parameter>
													<name>Pan</name>
													<parameterid>pan</parameterid>
													<valuemin>-1</valuemin>
													<valuemax>1</valuemax>
													<value>1</value>
												</parameter>
											</effect>
										</filter>
										<sourcetrack>
											<mediatype>audio</mediatype>
											<trackindex>2</trackindex>
										</sourcetrack>
										<link>
											<linkclipref>Haugestad Plopp</linkclipref>
											<mediatype>audio</mediatype>
											<trackindex>3</trackindex>
											<clipindex>2</clipindex>
											<groupindex>1</groupindex>
										</link>
										<link>
											<linkclipref>Haugestad Plopp3</linkclipref>
											<mediatype>audio</mediatype>
											<trackindex>4</trackindex>
											<clipindex>2</clipindex>
											<groupindex>1</groupindex>
										</link>
									</clipitem>
									<clipitem id="Haugestad Plopp5">
										<name>Haugestad Plopp</name>
										<duration>13</duration>
										<rate>
											<ntsc>FALSE</ntsc>
											<timebase>25</timebase>
										</rate>
										<in>0</in>
										<out>13</out>
										<start>426</start>
										<end>439</end>
										<alphareverse>FALSE</alphareverse>
										<masterclipid>Haugestad Plopp1</masterclipid>
										<logginginfo>
											<scene/>
											<shottake/>
											<lognote/>
											<good>FALSE</good>
										</logginginfo>
										<labels>
											<label2/>
										</labels>
										<comments>
											<mastercomment1/>
											<mastercomment2/>
											<mastercomment3/>
											<mastercomment4/>
										</comments>
										<file id="Haugestad Plopp2"/>
										<filter>
											<effect>
												<name>Audio Levels</name>
												<effectid>audiolevels</effectid>
												<effectcategory>audiolevels</effectcategory>
												<effecttype>audiolevels</effecttype>
												<mediatype>audio</mediatype>
												<parameter>
													<name>Level</name>
													<parameterid>level</parameterid>
													<valuemin>0</valuemin>
													<valuemax>3.98109</valuemax>
													<value>1</value>
												</parameter>
											</effect>
										</filter>
										<filter>
											<effect>
												<name>Audio Pan</name>
												<effectid>audiopan</effectid>
												<effectcategory>audiopan</effectcategory>
												<effecttype>audiopan</effecttype>
												<mediatype>audio</mediatype>
												<parameter>
													<name>Pan</name>
													<parameterid>pan</parameterid>
													<valuemin>-1</valuemin>
													<valuemax>1</valuemax>
													<value>1</value>
												</parameter>
											</effect>
										</filter>
										<sourcetrack>
											<mediatype>audio</mediatype>
											<trackindex>2</trackindex>
										</sourcetrack>
										<link>
											<linkclipref>Haugestad Plopp4</linkclipref>
											<mediatype>audio</mediatype>
											<trackindex>3</trackindex>
											<clipindex>3</clipindex>
											<groupindex>1</groupindex>
										</link>
										<link>
											<linkclipref>Haugestad Plopp5</linkclipref>
											<mediatype>audio</mediatype>
											<trackindex>4</trackindex>
											<clipindex>3</clipindex>
											<groupindex>1</groupindex>
										</link>
									</clipitem>
									<clipitem id="Haugestad Plopp7">
										<name>Haugestad Plopp</name>
										<duration>13</duration>
										<rate>
											<ntsc>FALSE</ntsc>
											<timebase>25</timebase>
										</rate>
										<in>0</in>
										<out>13</out>
										<start>459</start>
										<end>472</end>
										<alphareverse>FALSE</alphareverse>
										<masterclipid>Haugestad Plopp1</masterclipid>
										<logginginfo>
											<scene/>
											<shottake/>
											<lognote/>
											<good>FALSE</good>
										</logginginfo>
										<labels>
											<label2/>
										</labels>
										<comments>
											<mastercomment1/>
											<mastercomment2/>
											<mastercomment3/>
											<mastercomment4/>
										</comments>
										<file id="Haugestad Plopp2"/>
										<filter>
											<effect>
												<name>Audio Levels</name>
												<effectid>audiolevels</effectid>
												<effectcategory>audiolevels</effectcategory>
												<effecttype>audiolevels</effecttype>
												<mediatype>audio</mediatype>
												<parameter>
													<name>Level</name>
													<parameterid>level</parameterid>
													<valuemin>0</valuemin>
													<valuemax>3.98109</valuemax>
													<value>1</value>
												</parameter>
											</effect>
										</filter>
										<filter>
											<effect>
												<name>Audio Pan</name>
												<effectid>audiopan</effectid>
												<effectcategory>audiopan</effectcategory>
												<effecttype>audiopan</effecttype>
												<mediatype>audio</mediatype>
												<parameter>
													<name>Pan</name>
													<parameterid>pan</parameterid>
													<valuemin>-1</valuemin>
													<valuemax>1</valuemax>
													<value>1</value>
												</parameter>
											</effect>
										</filter>
										<sourcetrack>
											<mediatype>audio</mediatype>
											<trackindex>2</trackindex>
										</sourcetrack>
										<link>
											<linkclipref>Haugestad Plopp6</linkclipref>
											<mediatype>audio</mediatype>
											<trackindex>3</trackindex>
											<clipindex>4</clipindex>
											<groupindex>1</groupindex>
										</link>
										<link>
											<linkclipref>Haugestad Plopp7</linkclipref>
											<mediatype>audio</mediatype>
											<trackindex>4</trackindex>
											<clipindex>4</clipindex>
											<groupindex>1</groupindex>
										</link>
									</clipitem>
									<clipitem id="Haugestad Plopp10">
										<name>Haugestad Plopp</name>
										<duration>13</duration>
										<rate>
											<ntsc>FALSE</ntsc>
											<timebase>25</timebase>
										</rate>
										<in>0</in>
										<out>13</out>
										<start>731</start>
										<end>744</end>
										<alphareverse>FALSE</alphareverse>
										<masterclipid>Haugestad Plopp1</masterclipid>
										<logginginfo>
											<scene/>
											<shottake/>
											<lognote/>
											<good>FALSE</good>
										</logginginfo>
										<labels>
											<label2/>
										</labels>
										<comments>
											<mastercomment1/>
											<mastercomment2/>
											<mastercomment3/>
											<mastercomment4/>
										</comments>
										<file id="Haugestad Plopp2"/>
										<filter>
											<effect>
												<name>Audio Levels</name>
												<effectid>audiolevels</effectid>
												<effectcategory>audiolevels</effectcategory>
												<effecttype>audiolevels</effecttype>
												<mediatype>audio</mediatype>
												<parameter>
													<name>Level</name>
													<parameterid>level</parameterid>
													<valuemin>0</valuemin>
													<valuemax>3.98109</valuemax>
													<value>1</value>
												</parameter>
											</effect>
										</filter>
										<filter>
											<effect>
												<name>Audio Pan</name>
												<effectid>audiopan</effectid>
												<effectcategory>audiopan</effectcategory>
												<effecttype>audiopan</effecttype>
												<mediatype>audio</mediatype>
												<parameter>
													<name>Pan</name>
													<parameterid>pan</parameterid>
													<valuemin>-1</valuemin>
													<valuemax>1</valuemax>
													<value>-1</value>
												</parameter>
											</effect>
										</filter>
										<sourcetrack>
											<mediatype>audio</mediatype>
											<trackindex>1</trackindex>
										</sourcetrack>
										<link>
											<linkclipref>Haugestad Plopp10</linkclipref>
											<mediatype>audio</mediatype>
											<trackindex>4</trackindex>
											<clipindex>5</clipindex>
											<groupindex>1</groupindex>
										</link>
										<link>
											<linkclipref>Haugestad Plopp11</linkclipref>
											<mediatype>audio</mediatype>
											<trackindex>5</trackindex>
											<clipindex>1</clipindex>
											<groupindex>1</groupindex>
										</link>
									</clipitem>
									<clipitem id="Haugestad Plopp12">
										<name>Haugestad Plopp</name>
										<duration>13</duration>
										<rate>
											<ntsc>FALSE</ntsc>
											<timebase>25</timebase>
										</rate>
										<in>0</in>
										<out>13</out>
										<start>744</start>
										<end>757</end>
										<alphareverse>FALSE</alphareverse>
										<masterclipid>Haugestad Plopp1</masterclipid>
										<logginginfo>
											<scene/>
											<shottake/>
											<lognote/>
											<good>FALSE</good>
										</logginginfo>
										<labels>
											<label2/>
										</labels>
										<comments>
											<mastercomment1/>
											<mastercomment2/>
											<mastercomment3/>
											<mastercomment4/>
										</comments>
										<file id="Haugestad Plopp2"/>
										<filter>
											<effect>
												<name>Audio Levels</name>
												<effectid>audiolevels</effectid>
												<effectcategory>audiolevels</effectcategory>
												<effecttype>audiolevels</effecttype>
												<mediatype>audio</mediatype>
												<parameter>
													<name>Level</name>
													<parameterid>level</parameterid>
													<valuemin>0</valuemin>
													<valuemax>3.98109</valuemax>
													<value>1</value>
												</parameter>
											</effect>
										</filter>
										<filter>
											<effect>
												<name>Audio Pan</name>
												<effectid>audiopan</effectid>
												<effectcategory>audiopan</effectcategory>
												<effecttype>audiopan</effecttype>
												<mediatype>audio</mediatype>
												<parameter>
													<name>Pan</name>
													<parameterid>pan</parameterid>
													<valuemin>-1</valuemin>
													<valuemax>1</valuemax>
													<value>-1</value>
												</parameter>
											</effect>
										</filter>
										<sourcetrack>
											<mediatype>audio</mediatype>
											<trackindex>1</trackindex>
										</sourcetrack>
										<link>
											<linkclipref>Haugestad Plopp12</linkclipref>
											<mediatype>audio</mediatype>
											<trackindex>4</trackindex>
											<clipindex>6</clipindex>
											<groupindex>1</groupindex>
										</link>
										<link>
											<linkclipref>Haugestad Plopp13</linkclipref>
											<mediatype>audio</mediatype>
											<trackindex>5</trackindex>
											<clipindex>2</clipindex>
											<groupindex>1</groupindex>
										</link>
									</clipitem>
									<clipitem id="56 Bicycle Bell">
										<name>56 Bicycle Bell</name>
										<duration>241</duration>
										<rate>
											<ntsc>FALSE</ntsc>
											<timebase>25</timebase>
										</rate>
										<in>13</in>
										<out>60</out>
										<start>757</start>
										<end>804</end>
										<alphareverse>FALSE</alphareverse>
										<masterclipid>56 Bicycle Bell1</masterclipid>
										<logginginfo>
											<scene/>
											<shottake/>
											<lognote/>
											<good>FALSE</good>
										</logginginfo>
										<labels>
											<label2/>
										</labels>
										<comments>
											<mastercomment1/>
											<mastercomment2/>
											<mastercomment3/>
											<mastercomment4/>
										</comments>
										<file id="56 Bicycle Bell2">
											<name>56 Bicycle Bell.aiff</name>
											<pathurl>file://localhost/Lekeplassen/Musikk%20og%20Lyd/Lydeffekter/SUPERPROMO/Lydeffekter/DIGIG2%20-%20Leisure/56%20Bicycle%20Bell.aiff</pathurl>
											<rate>
												<timebase>25</timebase>
											</rate>
											<duration>241</duration>
											<media>
												<audio>
													<rate>
														<timebase>44100</timebase>
													</rate>
													<trackcount>2</trackcount>
													<samplecharacteristics>
														<depth>16</depth>
													</samplecharacteristics>
												</audio>
											</media>
										</file>
										<filter>
											<effect>
												<name>Audio Levels</name>
												<effectid>audiolevels</effectid>
												<effectcategory>audiolevels</effectcategory>
												<effecttype>audiolevels</effecttype>
												<mediatype>audio</mediatype>
												<parameter>
													<name>Level</name>
													<parameterid>level</parameterid>
													<valuemin>0</valuemin>
													<valuemax>3.98109</valuemax>
													<value>1</value>
												</parameter>
											</effect>
										</filter>
										<filter>
											<effect>
												<name>Audio Pan</name>
												<effectid>audiopan</effectid>
												<effectcategory>audiopan</effectcategory>
												<effecttype>audiopan</effecttype>
												<mediatype>audio</mediatype>
												<parameter>
													<name>Pan</name>
													<parameterid>pan</parameterid>
													<valuemin>-1</valuemin>
													<valuemax>1</valuemax>
													<value>-1</value>
												</parameter>
											</effect>
										</filter>
										<sourcetrack>
											<mediatype>audio</mediatype>
											<trackindex>1</trackindex>
										</sourcetrack>
										<link>
											<linkclipref>56 Bicycle Bell</linkclipref>
											<mediatype>audio</mediatype>
											<trackindex>4</trackindex>
											<clipindex>7</clipindex>
											<groupindex>1</groupindex>
										</link>
										<link>
											<linkclipref>56 Bicycle Bell3</linkclipref>
											<mediatype>audio</mediatype>
											<trackindex>5</trackindex>
											<clipindex>3</clipindex>
											<groupindex>1</groupindex>
										</link>
									</clipitem>
									<clipitem id="Spolelyd bakover3">
										<name>Spolelyd bakover</name>
										<duration>75</duration>
										<rate>
											<ntsc>FALSE</ntsc>
											<timebase>25</timebase>
										</rate>
										<in>43</in>
										<out>75</out>
										<start>838</start>
										<end>870</end>
										<alphareverse>FALSE</alphareverse>
										<masterclipid>Spolelyd bakover1</masterclipid>
										<logginginfo>
											<scene/>
											<shottake/>
											<lognote/>
											<good>FALSE</good>
										</logginginfo>
										<labels>
											<label2/>
										</labels>
										<comments>
											<mastercomment1/>
											<mastercomment2/>
											<mastercomment3/>
											<mastercomment4/>
										</comments>
										<file id="Spolelyd bakover2"/>
										<filter>
											<effect>
												<name>Audio Levels</name>
												<effectid>audiolevels</effectid>
												<effectcategory>audiolevels</effectcategory>
												<effecttype>audiolevels</effecttype>
												<mediatype>audio</mediatype>
												<parameter>
													<name>Level</name>
													<parameterid>level</parameterid>
													<valuemin>0</valuemin>
													<valuemax>3.98109</valuemax>
													<value>1</value>
												</parameter>
											</effect>
										</filter>
										<filter>
											<effect>
												<name>Audio Pan</name>
												<effectid>audiopan</effectid>
												<effectcategory>audiopan</effectcategory>
												<effecttype>audiopan</effecttype>
												<mediatype>audio</mediatype>
												<parameter>
													<name>Pan</name>
													<parameterid>pan</parameterid>
													<valuemin>-1</valuemin>
													<valuemax>1</valuemax>
													<value>1</value>
												</parameter>
											</effect>
										</filter>
										<sourcetrack>
											<mediatype>audio</mediatype>
											<trackindex>2</trackindex>
										</sourcetrack>
										<link>
											<linkclipref>Spolelyd bakover</linkclipref>
											<mediatype>audio</mediatype>
											<trackindex>3</trackindex>
											<clipindex>5</clipindex>
											<groupindex>1</groupindex>
										</link>
										<link>
											<linkclipref>Spolelyd bakover3</linkclipref>
											<mediatype>audio</mediatype>
											<trackindex>4</trackindex>
											<clipindex>8</clipindex>
											<groupindex>1</groupindex>
										</link>
									</clipitem>
									<clipitem id="Fotografering kamera -10">
										<name>Fotografering kamera -</name>
										<duration>361</duration>
										<rate>
											<ntsc>FALSE</ntsc>
											<timebase>25</timebase>
										</rate>
										<in>0</in>
										<out>22</out>
										<start>1287</start>
										<end>1309</end>
										<alphareverse>FALSE</alphareverse>
										<masterclipid>Fotografering kamera -1</masterclipid>
										<logginginfo>
											<scene/>
											<shottake/>
											<lognote/>
											<good>FALSE</good>
										</logginginfo>
										<labels>
											<label2/>
										</labels>
										<comments>
											<mastercomment1/>
											<mastercomment2/>
											<mastercomment3/>
											<mastercomment4/>
										</comments>
										<file id="Fotografering kamera -2"/>
										<filter>
											<effect>
												<name>Audio Levels</name>
												<effectid>audiolevels</effectid>
												<effectcategory>audiolevels</effectcategory>
												<effecttype>audiolevels</effecttype>
												<mediatype>audio</mediatype>
												<parameter>
													<name>Level</name>
													<parameterid>level</parameterid>
													<valuemin>0</valuemin>
													<valuemax>3.98109</valuemax>
													<value>1</value>
												</parameter>
											</effect>
										</filter>
										<filter>
											<effect>
												<name>Audio Pan</name>
												<effectid>audiopan</effectid>
												<effectcategory>audiopan</effectcategory>
												<effecttype>audiopan</effecttype>
												<mediatype>audio</mediatype>
												<parameter>
													<name>Pan</name>
													<parameterid>pan</parameterid>
													<valuemin>-1</valuemin>
													<valuemax>1</valuemax>
													<value>-1</value>
												</parameter>
											</effect>
										</filter>
										<sourcetrack>
											<mediatype>audio</mediatype>
											<trackindex>1</trackindex>
										</sourcetrack>
										<link>
											<linkclipref>Fotografering kamera -10</linkclipref>
											<mediatype>audio</mediatype>
											<trackindex>4</trackindex>
											<clipindex>9</clipindex>
											<groupindex>1</groupindex>
										</link>
										<link>
											<linkclipref>Fotografering kamera -11</linkclipref>
											<mediatype>audio</mediatype>
											<trackindex>5</trackindex>
											<clipindex>4</clipindex>
											<groupindex>1</groupindex>
										</link>
									</clipitem>
									<clipitem id="Haugestad Plopp9">
										<name>Haugestad Plopp</name>
										<duration>13</duration>
										<rate>
											<ntsc>FALSE</ntsc>
											<timebase>25</timebase>
										</rate>
										<in>0</in>
										<out>13</out>
										<start>1339</start>
										<end>1352</end>
										<alphareverse>FALSE</alphareverse>
										<masterclipid>Haugestad Plopp1</masterclipid>
										<logginginfo>
											<scene/>
											<shottake/>
											<lognote/>
											<good>FALSE</good>
										</logginginfo>
										<labels>
											<label2/>
										</labels>
										<comments>
											<mastercomment1/>
											<mastercomment2/>
											<mastercomment3/>
											<mastercomment4/>
										</comments>
										<file id="Haugestad Plopp2"/>
										<filter>
											<effect>
												<name>Audio Levels</name>
												<effectid>audiolevels</effectid>
												<effectcategory>audiolevels</effectcategory>
												<effecttype>audiolevels</effecttype>
												<mediatype>audio</mediatype>
												<parameter>
													<name>Level</name>
													<parameterid>level</parameterid>
													<valuemin>0</valuemin>
													<valuemax>3.98109</valuemax>
													<value>1</value>
												</parameter>
											</effect>
										</filter>
										<filter>
											<effect>
												<name>Audio Pan</name>
												<effectid>audiopan</effectid>
												<effectcategory>audiopan</effectcategory>
												<effecttype>audiopan</effecttype>
												<mediatype>audio</mediatype>
												<parameter>
													<name>Pan</name>
													<parameterid>pan</parameterid>
													<valuemin>-1</valuemin>
													<valuemax>1</valuemax>
													<value>1</value>
												</parameter>
											</effect>
										</filter>
										<sourcetrack>
											<mediatype>audio</mediatype>
											<trackindex>2</trackindex>
										</sourcetrack>
										<link>
											<linkclipref>Haugestad Plopp8</linkclipref>
											<mediatype>audio</mediatype>
											<trackindex>3</trackindex>
											<clipindex>7</clipindex>
											<groupindex>1</groupindex>
										</link>
										<link>
											<linkclipref>Haugestad Plopp9</linkclipref>
											<mediatype>audio</mediatype>
											<trackindex>4</trackindex>
											<clipindex>10</clipindex>
											<groupindex>1</groupindex>
										</link>
									</clipitem>
									<clipitem id="Fotografering kamera -12">
										<name>Fotografering kamera -</name>
										<duration>361</duration>
										<rate>
											<ntsc>FALSE</ntsc>
											<timebase>25</timebase>
										</rate>
										<in>0</in>
										<out>22</out>
										<start>1581</start>
										<end>1603</end>
										<alphareverse>FALSE</alphareverse>
										<masterclipid>Fotografering kamera -1</masterclipid>
										<logginginfo>
											<scene/>
											<shottake/>
											<lognote/>
											<good>FALSE</good>
										</logginginfo>
										<labels>
											<label2/>
										</labels>
										<comments>
											<mastercomment1/>
											<mastercomment2/>
											<mastercomment3/>
											<mastercomment4/>
										</comments>
										<file id="Fotografering kamera -2"/>
										<filter>
											<effect>
												<name>Audio Levels</name>
												<effectid>audiolevels</effectid>
												<effectcategory>audiolevels</effectcategory>
												<effecttype>audiolevels</effecttype>
												<mediatype>audio</mediatype>
												<parameter>
													<name>Level</name>
													<parameterid>level</parameterid>
													<valuemin>0</valuemin>
													<valuemax>3.98109</valuemax>
													<value>1</value>
												</parameter>
											</effect>
										</filter>
										<filter>
											<effect>
												<name>Audio Pan</name>
												<effectid>audiopan</effectid>
												<effectcategory>audiopan</effectcategory>
												<effecttype>audiopan</effecttype>
												<mediatype>audio</mediatype>
												<parameter>
													<name>Pan</name>
													<parameterid>pan</parameterid>
													<valuemin>-1</valuemin>
													<valuemax>1</valuemax>
													<value>-1</value>
												</parameter>
											</effect>
										</filter>
										<sourcetrack>
											<mediatype>audio</mediatype>
											<trackindex>1</trackindex>
										</sourcetrack>
										<link>
											<linkclipref>Fotografering kamera -12</linkclipref>
											<mediatype>audio</mediatype>
											<trackindex>4</trackindex>
											<clipindex>11</clipindex>
											<groupindex>1</groupindex>
										</link>
										<link>
											<linkclipref>Fotografering kamera -13</linkclipref>
											<mediatype>audio</mediatype>
											<trackindex>5</trackindex>
											<clipindex>5</clipindex>
											<groupindex>1</groupindex>
										</link>
									</clipitem>
									<transitionitem id="920158380 ">
										<rate>
											<ntsc>FALSE</ntsc>
											<timebase>25</timebase>
										</rate>
										<start>1941</start>
										<end>1991</end>
										<alignment>start-black</alignment>
										<effect>
											<name>Cross Fade ( 0dB)</name>
											<effecttype>transition</effecttype>
											<mediatype>audio</mediatype>
										</effect>
									</transitionitem>
									<clipitem id="FOLA008871-AR-199205497 5">
										<name>FOLA008871-AR-199205497</name>
										<duration>39675</duration>
										<rate>
											<ntsc>FALSE</ntsc>
											<timebase>25</timebase>
										</rate>
										<in>37366</in>
										<out>37637</out>
										<start>-1</start>
										<end>2212</end>
										<subframeoffset>0</subframeoffset>
										<alphareverse>FALSE</alphareverse>
										<masterclipid>FOLA008871-AR-199205497 1</masterclipid>
										<logginginfo>
											<description>Gulost - meir enn gouda  (Gulost - mer enn gouda)</description>
											<scene/>
											<shottake/>
											<lognote/>
											<good>FALSE</good>
										</logginginfo>
										<labels>
											<label2/>
										</labels>
										<comments>
											<mastercomment1>ARKIVSTOFF</mastercomment1>
											<mastercomment2>. </mastercomment2>
											<mastercomment3>Sendt: 1971-09-27. NRK P: Ingrid Espelid (Hovig), Olav Aasmundtveit. </mastercomment3>
											<mastercomment4>Filmprogram. Tegning av kokk med to fat, tekst, "Gulost - meir enn gouda". Mann Ã¥pner matboks og ser pÃ¥ innholdet. Melk ned i ystekar. Den blir blandet i moderne maskiner. Fra laboratoriet. LÃ¸ype blir blandet i melken. LÃ¸ypa gjÃ¸r sÃ¥ melken koagulerer og virker som gele. Den geleaktige massen blir hakket til smÃ¥biter. Vi ser prosessen inntil osten kan lagres. Skorpefri gouda, jarlsberg og sveitser blir stemplet. Osten blir senktet i saltlake. Blir trillet inn pÃ¥ lagringsrommet. Goudaen blir satt inn med et plastlignende stoff sÃ¥ den ikke skal mugne. Osten blir sÃ¥ snudd hver dag i en spesialkonstruert maskin. Etter en mÃ¥neds lagring blir osten dyppet i smeltet parafinvoks, som skal verne osten mot unÃ¸dig uttÃ¸rking. NÃ¦rt lagret gouda og jarlsberg. Ingrid ESPELID (HOVIG) lager ostekake. Vi ser det ferdige resultatet. Hun lager ostesmÃ¸rbrÃ¸d og fiskerett med ost. Vi ser det ferdiglaget. Shot fra havnen og innfarten til Haugesund. Normannaystereiet i Ã˜len i Sunnhordland. Mann undersÃ¸ker ost. Det uferdige produktet blir gjort ferdig til lagring. En ferdig lagret Normannaost. Bilder fra sjÃ¸en ved JÃ¦ren, div. naturshot. Ostelageret ved Klepp pÃ¥ JÃ¦ren. Ost pÃ¥ samlebÃ¥nd. Ost i lagringshall. Skorpefri gouda blir pakket med moderne maskiner. Framstilling av Cheddar. De forskjellige fasene inntil det ferdige produktet. Ingrid ESPELID (HOVIG) lager ostesuffle av Cheddar, og pizza..</mastercomment4>
											<clipcommenta/>
											<clipcommentb>1:F-miks 2:F-miks.16x9 PAL.</clipcommentb>
										</comments>
										<file id="FOLA008871-AR-199205497 2"/>
										<marker>
											<name>intro. 0</name>
											<comment>Gul ost mer enn gouda</comment>
											<in>0</in>
											<out>819</out>
										</marker>
										<marker>
											<name/>
											<comment/>
											<in>21630</in>
											<out>22255</out>
										</marker>
										<marker>
											<name>ostesuffle. 0</name>
											<comment/>
											<in>32883</in>
											<out>36477</out>
										</marker>
										<marker>
											<name>pizza anno 1971. 0</name>
											<comment>tomater, ansjos, ost, oregano</comment>
											<in>36349</in>
											<out>39458</out>
										</marker>
										<filter>
											<effect>
												<name>Audio Levels</name>
												<effectid>audiolevels</effectid>
												<effectcategory>audiolevels</effectcategory>
												<effecttype>audiolevels</effecttype>
												<mediatype>audio</mediatype>
												<parameter>
													<name>Level</name>
													<parameterid>level</parameterid>
													<valuemin>0</valuemin>
													<valuemax>3.98109</valuemax>
													<value>1</value>
												</parameter>
											</effect>
										</filter>
										<filter>
											<effect>
												<name>Audio Pan</name>
												<effectid>audiopan</effectid>
												<effectcategory>audiopan</effectcategory>
												<effecttype>audiopan</effecttype>
												<mediatype>audio</mediatype>
												<parameter>
													<name>Pan</name>
													<parameterid>pan</parameterid>
													<valuemin>-1</valuemin>
													<valuemax>1</valuemax>
													<value>0</value>
												</parameter>
											</effect>
										</filter>
										<sourcetrack>
											<mediatype>audio</mediatype>
											<trackindex>2</trackindex>
										</sourcetrack>
										<link>
											<linkclipref>FOLA008871-AR-199205497 4</linkclipref>
											<mediatype>audio</mediatype>
											<trackindex>3</trackindex>
											<clipindex>9</clipindex>
										</link>
										<link>
											<linkclipref>FOLA008871-AR-199205497 5</linkclipref>
											<mediatype>audio</mediatype>
											<trackindex>4</trackindex>
											<clipindex>13</clipindex>
										</link>
									</clipitem>
									<clipitem id="FOLA008871-AR-199205497 7">
										<name>FOLA008871-AR-199205497</name>
										<duration>39675</duration>
										<rate>
											<ntsc>FALSE</ntsc>
											<timebase>25</timebase>
										</rate>
										<in>39347</in>
										<out>39497</out>
										<start>2212</start>
										<end>2362</end>
										<subframeoffset>0</subframeoffset>
										<alphareverse>FALSE</alphareverse>
										<masterclipid>FOLA008871-AR-199205497 1</masterclipid>
										<logginginfo>
											<description>Gulost - meir enn gouda  (Gulost - mer enn gouda)</description>
											<scene/>
											<shottake/>
											<lognote/>
											<good>FALSE</good>
										</logginginfo>
										<labels>
											<label2/>
										</labels>
										<comments>
											<mastercomment1>ARKIVSTOFF</mastercomment1>
											<mastercomment2>. </mastercomment2>
											<mastercomment3>Sendt: 1971-09-27. NRK P: Ingrid Espelid (Hovig), Olav Aasmundtveit. </mastercomment3>
											<mastercomment4>Filmprogram. Tegning av kokk med to fat, tekst, "Gulost - meir enn gouda". Mann Ã¥pner matboks og ser pÃ¥ innholdet. Melk ned i ystekar. Den blir blandet i moderne maskiner. Fra laboratoriet. LÃ¸ype blir blandet i melken. LÃ¸ypa gjÃ¸r sÃ¥ melken koagulerer og virker som gele. Den geleaktige massen blir hakket til smÃ¥biter. Vi ser prosessen inntil osten kan lagres. Skorpefri gouda, jarlsberg og sveitser blir stemplet. Osten blir senktet i saltlake. Blir trillet inn pÃ¥ lagringsrommet. Goudaen blir satt inn med et plastlignende stoff sÃ¥ den ikke skal mugne. Osten blir sÃ¥ snudd hver dag i en spesialkonstruert maskin. Etter en mÃ¥neds lagring blir osten dyppet i smeltet parafinvoks, som skal verne osten mot unÃ¸dig uttÃ¸rking. NÃ¦rt lagret gouda og jarlsberg. Ingrid ESPELID (HOVIG) lager ostekake. Vi ser det ferdige resultatet. Hun lager ostesmÃ¸rbrÃ¸d og fiskerett med ost. Vi ser det ferdiglaget. Shot fra havnen og innfarten til Haugesund. Normannaystereiet i Ã˜len i Sunnhordland. Mann undersÃ¸ker ost. Det uferdige produktet blir gjort ferdig til lagring. En ferdig lagret Normannaost. Bilder fra sjÃ¸en ved JÃ¦ren, div. naturshot. Ostelageret ved Klepp pÃ¥ JÃ¦ren. Ost pÃ¥ samlebÃ¥nd. Ost i lagringshall. Skorpefri gouda blir pakket med moderne maskiner. Framstilling av Cheddar. De forskjellige fasene inntil det ferdige produktet. Ingrid ESPELID (HOVIG) lager ostesuffle av Cheddar, og pizza..</mastercomment4>
											<clipcommenta/>
											<clipcommentb>1:F-miks 2:F-miks.16x9 PAL.</clipcommentb>
										</comments>
										<file id="FOLA008871-AR-199205497 2"/>
										<marker>
											<name>intro. 0</name>
											<comment>Gul ost mer enn gouda</comment>
											<in>0</in>
											<out>819</out>
										</marker>
										<marker>
											<name/>
											<comment/>
											<in>21630</in>
											<out>22255</out>
										</marker>
										<marker>
											<name>ostesuffle. 0</name>
											<comment/>
											<in>32883</in>
											<out>36477</out>
										</marker>
										<marker>
											<name>pizza anno 1971. 0</name>
											<comment>tomater, ansjos, ost, oregano</comment>
											<in>36349</in>
											<out>39458</out>
										</marker>
										<filter>
											<effect>
												<name>Audio Levels</name>
												<effectid>audiolevels</effectid>
												<effectcategory>audiolevels</effectcategory>
												<effecttype>audiolevels</effecttype>
												<mediatype>audio</mediatype>
												<parameter>
													<name>Level</name>
													<parameterid>level</parameterid>
													<valuemin>0</valuemin>
													<valuemax>3.98109</valuemax>
													<value>1</value>
												</parameter>
											</effect>
										</filter>
										<filter>
											<effect>
												<name>Audio Pan</name>
												<effectid>audiopan</effectid>
												<effectcategory>audiopan</effectcategory>
												<effecttype>audiopan</effecttype>
												<mediatype>audio</mediatype>
												<parameter>
													<name>Pan</name>
													<parameterid>pan</parameterid>
													<valuemin>-1</valuemin>
													<valuemax>1</valuemax>
													<value>0</value>
												</parameter>
											</effect>
										</filter>
										<sourcetrack>
											<mediatype>audio</mediatype>
											<trackindex>2</trackindex>
										</sourcetrack>
									</clipitem>
									<clipitem id="Fotografering kamera -5">
										<name>Fotografering kamera -</name>
										<duration>361</duration>
										<rate>
											<ntsc>FALSE</ntsc>
											<timebase>25</timebase>
										</rate>
										<in>0</in>
										<out>22</out>
										<start>2824</start>
										<end>2846</end>
										<alphareverse>FALSE</alphareverse>
										<masterclipid>Fotografering kamera -1</masterclipid>
										<logginginfo>
											<scene/>
											<shottake/>
											<lognote/>
											<good>FALSE</good>
										</logginginfo>
										<labels>
											<label2/>
										</labels>
										<comments>
											<mastercomment1/>
											<mastercomment2/>
											<mastercomment3/>
											<mastercomment4/>
										</comments>
										<file id="Fotografering kamera -2"/>
										<filter>
											<effect>
												<name>Audio Levels</name>
												<effectid>audiolevels</effectid>
												<effectcategory>audiolevels</effectcategory>
												<effecttype>audiolevels</effecttype>
												<mediatype>audio</mediatype>
												<parameter>
													<name>Level</name>
													<parameterid>level</parameterid>
													<valuemin>0</valuemin>
													<valuemax>3.98109</valuemax>
													<value>1</value>
												</parameter>
											</effect>
										</filter>
										<filter>
											<effect>
												<name>Audio Pan</name>
												<effectid>audiopan</effectid>
												<effectcategory>audiopan</effectcategory>
												<effecttype>audiopan</effecttype>
												<mediatype>audio</mediatype>
												<parameter>
													<name>Pan</name>
													<parameterid>pan</parameterid>
													<valuemin>-1</valuemin>
													<valuemax>1</valuemax>
													<value>1</value>
												</parameter>
											</effect>
										</filter>
										<sourcetrack>
											<mediatype>audio</mediatype>
											<trackindex>2</trackindex>
										</sourcetrack>
										<link>
											<linkclipref>Fotografering kamera -4</linkclipref>
											<mediatype>audio</mediatype>
											<trackindex>3</trackindex>
											<clipindex>12</clipindex>
											<groupindex>1</groupindex>
										</link>
										<link>
											<linkclipref>Fotografering kamera -5</linkclipref>
											<mediatype>audio</mediatype>
											<trackindex>4</trackindex>
											<clipindex>15</clipindex>
											<groupindex>1</groupindex>
										</link>
									</clipitem>
									<clipitem id="Fotografering kamera -7">
										<name>Fotografering kamera -</name>
										<duration>361</duration>
										<rate>
											<ntsc>FALSE</ntsc>
											<timebase>25</timebase>
										</rate>
										<in>0</in>
										<out>22</out>
										<start>3157</start>
										<end>3179</end>
										<alphareverse>FALSE</alphareverse>
										<masterclipid>Fotografering kamera -1</masterclipid>
										<logginginfo>
											<scene/>
											<shottake/>
											<lognote/>
											<good>FALSE</good>
										</logginginfo>
										<labels>
											<label2/>
										</labels>
										<comments>
											<mastercomment1/>
											<mastercomment2/>
											<mastercomment3/>
											<mastercomment4/>
										</comments>
										<file id="Fotografering kamera -2"/>
										<filter>
											<effect>
												<name>Audio Levels</name>
												<effectid>audiolevels</effectid>
												<effectcategory>audiolevels</effectcategory>
												<effecttype>audiolevels</effecttype>
												<mediatype>audio</mediatype>
												<parameter>
													<name>Level</name>
													<parameterid>level</parameterid>
													<valuemin>0</valuemin>
													<valuemax>3.98109</valuemax>
													<value>1</value>
												</parameter>
											</effect>
										</filter>
										<filter>
											<effect>
												<name>Audio Pan</name>
												<effectid>audiopan</effectid>
												<effectcategory>audiopan</effectcategory>
												<effecttype>audiopan</effecttype>
												<mediatype>audio</mediatype>
												<parameter>
													<name>Pan</name>
													<parameterid>pan</parameterid>
													<valuemin>-1</valuemin>
													<valuemax>1</valuemax>
													<value>1</value>
												</parameter>
											</effect>
										</filter>
										<sourcetrack>
											<mediatype>audio</mediatype>
											<trackindex>2</trackindex>
										</sourcetrack>
										<link>
											<linkclipref>Fotografering kamera -6</linkclipref>
											<mediatype>audio</mediatype>
											<trackindex>3</trackindex>
											<clipindex>13</clipindex>
											<groupindex>1</groupindex>
										</link>
										<link>
											<linkclipref>Fotografering kamera -7</linkclipref>
											<mediatype>audio</mediatype>
											<trackindex>4</trackindex>
											<clipindex>16</clipindex>
											<groupindex>1</groupindex>
										</link>
									</clipitem>
									<clipitem id="Fotografering kamera -9">
										<name>Fotografering kamera -</name>
										<duration>361</duration>
										<rate>
											<ntsc>FALSE</ntsc>
											<timebase>25</timebase>
										</rate>
										<in>0</in>
										<out>22</out>
										<start>3703</start>
										<end>3725</end>
										<alphareverse>FALSE</alphareverse>
										<masterclipid>Fotografering kamera -1</masterclipid>
										<logginginfo>
											<scene/>
											<shottake/>
											<lognote/>
											<good>FALSE</good>
										</logginginfo>
										<labels>
											<label2/>
										</labels>
										<comments>
											<mastercomment1/>
											<mastercomment2/>
											<mastercomment3/>
											<mastercomment4/>
										</comments>
										<file id="Fotografering kamera -2"/>
										<filter>
											<effect>
												<name>Audio Levels</name>
												<effectid>audiolevels</effectid>
												<effectcategory>audiolevels</effectcategory>
												<effecttype>audiolevels</effecttype>
												<mediatype>audio</mediatype>
												<parameter>
													<name>Level</name>
													<parameterid>level</parameterid>
													<valuemin>0</valuemin>
													<valuemax>3.98109</valuemax>
													<value>1</value>
												</parameter>
											</effect>
										</filter>
										<filter>
											<effect>
												<name>Audio Pan</name>
												<effectid>audiopan</effectid>
												<effectcategory>audiopan</effectcategory>
												<effecttype>audiopan</effecttype>
												<mediatype>audio</mediatype>
												<parameter>
													<name>Pan</name>
													<parameterid>pan</parameterid>
													<valuemin>-1</valuemin>
													<valuemax>1</valuemax>
													<value>1</value>
												</parameter>
											</effect>
										</filter>
										<sourcetrack>
											<mediatype>audio</mediatype>
											<trackindex>2</trackindex>
										</sourcetrack>
										<link>
											<linkclipref>Fotografering kamera -8</linkclipref>
											<mediatype>audio</mediatype>
											<trackindex>3</trackindex>
											<clipindex>14</clipindex>
											<groupindex>1</groupindex>
										</link>
										<link>
											<linkclipref>Fotografering kamera -9</linkclipref>
											<mediatype>audio</mediatype>
											<trackindex>4</trackindex>
											<clipindex>17</clipindex>
											<groupindex>1</groupindex>
										</link>
									</clipitem>
									<enabled>TRUE</enabled>
									<locked>FALSE</locked>
									<outputchannelindex>2</outputchannelindex>
								</track>
								<track>
									<clipitem id="Haugestad Plopp11">
										<name>Haugestad Plopp</name>
										<duration>13</duration>
										<rate>
											<ntsc>FALSE</ntsc>
											<timebase>25</timebase>
										</rate>
										<in>0</in>
										<out>13</out>
										<start>731</start>
										<end>744</end>
										<alphareverse>FALSE</alphareverse>
										<masterclipid>Haugestad Plopp1</masterclipid>
										<logginginfo>
											<scene/>
											<shottake/>
											<lognote/>
											<good>FALSE</good>
										</logginginfo>
										<labels>
											<label2/>
										</labels>
										<comments>
											<mastercomment1/>
											<mastercomment2/>
											<mastercomment3/>
											<mastercomment4/>
										</comments>
										<file id="Haugestad Plopp2"/>
										<filter>
											<effect>
												<name>Audio Levels</name>
												<effectid>audiolevels</effectid>
												<effectcategory>audiolevels</effectcategory>
												<effecttype>audiolevels</effecttype>
												<mediatype>audio</mediatype>
												<parameter>
													<name>Level</name>
													<parameterid>level</parameterid>
													<valuemin>0</valuemin>
													<valuemax>3.98109</valuemax>
													<value>1</value>
												</parameter>
											</effect>
										</filter>
										<filter>
											<effect>
												<name>Audio Pan</name>
												<effectid>audiopan</effectid>
												<effectcategory>audiopan</effectcategory>
												<effecttype>audiopan</effecttype>
												<mediatype>audio</mediatype>
												<parameter>
													<name>Pan</name>
													<parameterid>pan</parameterid>
													<valuemin>-1</valuemin>
													<valuemax>1</valuemax>
													<value>1</value>
												</parameter>
											</effect>
										</filter>
										<sourcetrack>
											<mediatype>audio</mediatype>
											<trackindex>2</trackindex>
										</sourcetrack>
										<link>
											<linkclipref>Haugestad Plopp10</linkclipref>
											<mediatype>audio</mediatype>
											<trackindex>4</trackindex>
											<clipindex>5</clipindex>
											<groupindex>1</groupindex>
										</link>
										<link>
											<linkclipref>Haugestad Plopp11</linkclipref>
											<mediatype>audio</mediatype>
											<trackindex>5</trackindex>
											<clipindex>1</clipindex>
											<groupindex>1</groupindex>
										</link>
									</clipitem>
									<clipitem id="Haugestad Plopp13">
										<name>Haugestad Plopp</name>
										<duration>13</duration>
										<rate>
											<ntsc>FALSE</ntsc>
											<timebase>25</timebase>
										</rate>
										<in>0</in>
										<out>13</out>
										<start>744</start>
										<end>757</end>
										<alphareverse>FALSE</alphareverse>
										<masterclipid>Haugestad Plopp1</masterclipid>
										<logginginfo>
											<scene/>
											<shottake/>
											<lognote/>
											<good>FALSE</good>
										</logginginfo>
										<labels>
											<label2/>
										</labels>
										<comments>
											<mastercomment1/>
											<mastercomment2/>
											<mastercomment3/>
											<mastercomment4/>
										</comments>
										<file id="Haugestad Plopp2"/>
										<filter>
											<effect>
												<name>Audio Levels</name>
												<effectid>audiolevels</effectid>
												<effectcategory>audiolevels</effectcategory>
												<effecttype>audiolevels</effecttype>
												<mediatype>audio</mediatype>
												<parameter>
													<name>Level</name>
													<parameterid>level</parameterid>
													<valuemin>0</valuemin>
													<valuemax>3.98109</valuemax>
													<value>1</value>
												</parameter>
											</effect>
										</filter>
										<filter>
											<effect>
												<name>Audio Pan</name>
												<effectid>audiopan</effectid>
												<effectcategory>audiopan</effectcategory>
												<effecttype>audiopan</effecttype>
												<mediatype>audio</mediatype>
												<parameter>
													<name>Pan</name>
													<parameterid>pan</parameterid>
													<valuemin>-1</valuemin>
													<valuemax>1</valuemax>
													<value>1</value>
												</parameter>
											</effect>
										</filter>
										<sourcetrack>
											<mediatype>audio</mediatype>
											<trackindex>2</trackindex>
										</sourcetrack>
										<link>
											<linkclipref>Haugestad Plopp12</linkclipref>
											<mediatype>audio</mediatype>
											<trackindex>4</trackindex>
											<clipindex>6</clipindex>
											<groupindex>1</groupindex>
										</link>
										<link>
											<linkclipref>Haugestad Plopp13</linkclipref>
											<mediatype>audio</mediatype>
											<trackindex>5</trackindex>
											<clipindex>2</clipindex>
											<groupindex>1</groupindex>
										</link>
									</clipitem>
									<clipitem id="56 Bicycle Bell3">
										<name>56 Bicycle Bell</name>
										<duration>241</duration>
										<rate>
											<ntsc>FALSE</ntsc>
											<timebase>25</timebase>
										</rate>
										<in>13</in>
										<out>60</out>
										<start>757</start>
										<end>804</end>
										<alphareverse>FALSE</alphareverse>
										<masterclipid>56 Bicycle Bell1</masterclipid>
										<logginginfo>
											<scene/>
											<shottake/>
											<lognote/>
											<good>FALSE</good>
										</logginginfo>
										<labels>
											<label2/>
										</labels>
										<comments>
											<mastercomment1/>
											<mastercomment2/>
											<mastercomment3/>
											<mastercomment4/>
										</comments>
										<file id="56 Bicycle Bell2"/>
										<filter>
											<effect>
												<name>Audio Levels</name>
												<effectid>audiolevels</effectid>
												<effectcategory>audiolevels</effectcategory>
												<effecttype>audiolevels</effecttype>
												<mediatype>audio</mediatype>
												<parameter>
													<name>Level</name>
													<parameterid>level</parameterid>
													<valuemin>0</valuemin>
													<valuemax>3.98109</valuemax>
													<value>1.77828</value>
												</parameter>
											</effect>
										</filter>
										<filter>
											<effect>
												<name>Audio Pan</name>
												<effectid>audiopan</effectid>
												<effectcategory>audiopan</effectcategory>
												<effecttype>audiopan</effecttype>
												<mediatype>audio</mediatype>
												<parameter>
													<name>Pan</name>
													<parameterid>pan</parameterid>
													<valuemin>-1</valuemin>
													<valuemax>1</valuemax>
													<value>-1</value>
												</parameter>
											</effect>
										</filter>
										<sourcetrack>
											<mediatype>audio</mediatype>
											<trackindex>2</trackindex>
										</sourcetrack>
										<link>
											<linkclipref>56 Bicycle Bell</linkclipref>
											<mediatype>audio</mediatype>
											<trackindex>4</trackindex>
											<clipindex>7</clipindex>
											<groupindex>1</groupindex>
										</link>
										<link>
											<linkclipref>56 Bicycle Bell3</linkclipref>
											<mediatype>audio</mediatype>
											<trackindex>5</trackindex>
											<clipindex>3</clipindex>
											<groupindex>1</groupindex>
										</link>
									</clipitem>
									<clipitem id="Fotografering kamera -11">
										<name>Fotografering kamera -</name>
										<duration>361</duration>
										<rate>
											<ntsc>FALSE</ntsc>
											<timebase>25</timebase>
										</rate>
										<in>0</in>
										<out>22</out>
										<start>1287</start>
										<end>1309</end>
										<alphareverse>FALSE</alphareverse>
										<masterclipid>Fotografering kamera -1</masterclipid>
										<logginginfo>
											<scene/>
											<shottake/>
											<lognote/>
											<good>FALSE</good>
										</logginginfo>
										<labels>
											<label2/>
										</labels>
										<comments>
											<mastercomment1/>
											<mastercomment2/>
											<mastercomment3/>
											<mastercomment4/>
										</comments>
										<file id="Fotografering kamera -2"/>
										<filter>
											<effect>
												<name>Audio Levels</name>
												<effectid>audiolevels</effectid>
												<effectcategory>audiolevels</effectcategory>
												<effecttype>audiolevels</effecttype>
												<mediatype>audio</mediatype>
												<parameter>
													<name>Level</name>
													<parameterid>level</parameterid>
													<valuemin>0</valuemin>
													<valuemax>3.98109</valuemax>
													<value>1</value>
												</parameter>
											</effect>
										</filter>
										<filter>
											<effect>
												<name>Audio Pan</name>
												<effectid>audiopan</effectid>
												<effectcategory>audiopan</effectcategory>
												<effecttype>audiopan</effecttype>
												<mediatype>audio</mediatype>
												<parameter>
													<name>Pan</name>
													<parameterid>pan</parameterid>
													<valuemin>-1</valuemin>
													<valuemax>1</valuemax>
													<value>1</value>
												</parameter>
											</effect>
										</filter>
										<sourcetrack>
											<mediatype>audio</mediatype>
											<trackindex>2</trackindex>
										</sourcetrack>
										<link>
											<linkclipref>Fotografering kamera -10</linkclipref>
											<mediatype>audio</mediatype>
											<trackindex>4</trackindex>
											<clipindex>9</clipindex>
											<groupindex>1</groupindex>
										</link>
										<link>
											<linkclipref>Fotografering kamera -11</linkclipref>
											<mediatype>audio</mediatype>
											<trackindex>5</trackindex>
											<clipindex>4</clipindex>
											<groupindex>1</groupindex>
										</link>
									</clipitem>
									<clipitem id="Fotografering kamera -13">
										<name>Fotografering kamera -</name>
										<duration>361</duration>
										<rate>
											<ntsc>FALSE</ntsc>
											<timebase>25</timebase>
										</rate>
										<in>0</in>
										<out>22</out>
										<start>1581</start>
										<end>1603</end>
										<alphareverse>FALSE</alphareverse>
										<masterclipid>Fotografering kamera -1</masterclipid>
										<logginginfo>
											<scene/>
											<shottake/>
											<lognote/>
											<good>FALSE</good>
										</logginginfo>
										<labels>
											<label2/>
										</labels>
										<comments>
											<mastercomment1/>
											<mastercomment2/>
											<mastercomment3/>
											<mastercomment4/>
										</comments>
										<file id="Fotografering kamera -2"/>
										<filter>
											<effect>
												<name>Audio Levels</name>
												<effectid>audiolevels</effectid>
												<effectcategory>audiolevels</effectcategory>
												<effecttype>audiolevels</effecttype>
												<mediatype>audio</mediatype>
												<parameter>
													<name>Level</name>
													<parameterid>level</parameterid>
													<valuemin>0</valuemin>
													<valuemax>3.98109</valuemax>
													<value>1</value>
												</parameter>
											</effect>
										</filter>
										<filter>
											<effect>
												<name>Audio Pan</name>
												<effectid>audiopan</effectid>
												<effectcategory>audiopan</effectcategory>
												<effecttype>audiopan</effecttype>
												<mediatype>audio</mediatype>
												<parameter>
													<name>Pan</name>
													<parameterid>pan</parameterid>
													<valuemin>-1</valuemin>
													<valuemax>1</valuemax>
													<value>1</value>
												</parameter>
											</effect>
										</filter>
										<sourcetrack>
											<mediatype>audio</mediatype>
											<trackindex>2</trackindex>
										</sourcetrack>
										<link>
											<linkclipref>Fotografering kamera -12</linkclipref>
											<mediatype>audio</mediatype>
											<trackindex>4</trackindex>
											<clipindex>11</clipindex>
											<groupindex>1</groupindex>
										</link>
										<link>
											<linkclipref>Fotografering kamera -13</linkclipref>
											<mediatype>audio</mediatype>
											<trackindex>5</trackindex>
											<clipindex>5</clipindex>
											<groupindex>1</groupindex>
										</link>
									</clipitem>
									<clipitem id="Fotografering kamera -14">
										<name>Fotografering kamera -</name>
										<duration>361</duration>
										<rate>
											<ntsc>FALSE</ntsc>
											<timebase>25</timebase>
										</rate>
										<in>0</in>
										<out>22</out>
										<start>2343</start>
										<end>2365</end>
										<alphareverse>FALSE</alphareverse>
										<masterclipid>Fotografering kamera -1</masterclipid>
										<logginginfo>
											<scene/>
											<shottake/>
											<lognote/>
											<good>FALSE</good>
										</logginginfo>
										<labels>
											<label2/>
										</labels>
										<comments>
											<mastercomment1/>
											<mastercomment2/>
											<mastercomment3/>
											<mastercomment4/>
										</comments>
										<file id="Fotografering kamera -2"/>
										<filter>
											<effect>
												<name>Audio Levels</name>
												<effectid>audiolevels</effectid>
												<effectcategory>audiolevels</effectcategory>
												<effecttype>audiolevels</effecttype>
												<mediatype>audio</mediatype>
												<parameter>
													<name>Level</name>
													<parameterid>level</parameterid>
													<valuemin>0</valuemin>
													<valuemax>3.98109</valuemax>
													<value>1</value>
												</parameter>
											</effect>
										</filter>
										<filter>
											<effect>
												<name>Audio Pan</name>
												<effectid>audiopan</effectid>
												<effectcategory>audiopan</effectcategory>
												<effecttype>audiopan</effecttype>
												<mediatype>audio</mediatype>
												<parameter>
													<name>Pan</name>
													<parameterid>pan</parameterid>
													<valuemin>-1</valuemin>
													<valuemax>1</valuemax>
													<value>-1</value>
												</parameter>
											</effect>
										</filter>
										<sourcetrack>
											<mediatype>audio</mediatype>
											<trackindex>1</trackindex>
										</sourcetrack>
										<link>
											<linkclipref>Fotografering kamera -14</linkclipref>
											<mediatype>audio</mediatype>
											<trackindex>5</trackindex>
											<clipindex>6</clipindex>
											<groupindex>1</groupindex>
										</link>
										<link>
											<linkclipref>Fotografering kamera -15</linkclipref>
											<mediatype>audio</mediatype>
											<trackindex>6</trackindex>
											<clipindex>2</clipindex>
											<groupindex>1</groupindex>
										</link>
									</clipitem>
									<clipitem id="Fotball-gong">
										<name>Fotball-gong</name>
										<duration>122</duration>
										<rate>
											<ntsc>FALSE</ntsc>
											<timebase>25</timebase>
										</rate>
										<in>0</in>
										<out>122</out>
										<start>2846</start>
										<end>2968</end>
										<alphareverse>FALSE</alphareverse>
										<masterclipid>Fotball-gong1</masterclipid>
										<logginginfo>
											<scene/>
											<shottake/>
											<lognote/>
											<good>FALSE</good>
										</logginginfo>
										<labels>
											<label2/>
										</labels>
										<comments>
											<mastercomment1/>
											<mastercomment2/>
											<mastercomment3/>
											<mastercomment4/>
										</comments>
										<file id="Fotball-gong2">
											<name>Fotball-gong.WAV</name>
											<pathurl>file://localhost/Volumes/Prosjekter_SuperSAN1-1/MSUB20000012%20FIN%20FREDAG/FCP-PROSJEKTER,%20sesong%202/program%201%20Jenny/musikk/Fotball-gong.WAV</pathurl>
											<rate>
												<timebase>25</timebase>
											</rate>
											<duration>122</duration>
											<timecode>
												<rate>
													<timebase>25</timebase>
												</rate>
												<string>00:00:00:00</string>
												<frame>0</frame>
												<displayformat>NDF</displayformat>
												<source>source</source>
											</timecode>
											<media>
												<audio>
													<rate>
														<timebase>48000</timebase>
													</rate>
													<trackcount>2</trackcount>
													<samplecharacteristics>
														<depth>16</depth>
													</samplecharacteristics>
												</audio>
											</media>
										</file>
										<filter>
											<effect>
												<name>Audio Levels</name>
												<effectid>audiolevels</effectid>
												<effectcategory>audiolevels</effectcategory>
												<effecttype>audiolevels</effecttype>
												<mediatype>audio</mediatype>
												<parameter>
													<name>Level</name>
													<parameterid>level</parameterid>
													<valuemin>0</valuemin>
													<valuemax>3.98109</valuemax>
													<value>0.630957</value>
												</parameter>
											</effect>
										</filter>
										<filter>
											<effect>
												<name>Audio Pan</name>
												<effectid>audiopan</effectid>
												<effectcategory>audiopan</effectcategory>
												<effecttype>audiopan</effecttype>
												<mediatype>audio</mediatype>
												<parameter>
													<name>Pan</name>
													<parameterid>pan</parameterid>
													<valuemin>-1</valuemin>
													<valuemax>1</valuemax>
													<value>-1</value>
												</parameter>
											</effect>
										</filter>
										<sourcetrack>
											<mediatype>audio</mediatype>
											<trackindex>1</trackindex>
										</sourcetrack>
										<link>
											<linkclipref>Fotball-gong</linkclipref>
											<mediatype>audio</mediatype>
											<trackindex>5</trackindex>
											<clipindex>7</clipindex>
											<groupindex>1</groupindex>
										</link>
										<link>
											<linkclipref>Fotball-gong3</linkclipref>
											<mediatype>audio</mediatype>
											<trackindex>6</trackindex>
											<clipindex>3</clipindex>
											<groupindex>1</groupindex>
										</link>
									</clipitem>
									<clipitem id="Fotball-gong4">
										<name>Fotball-gong</name>
										<duration>122</duration>
										<rate>
											<ntsc>FALSE</ntsc>
											<timebase>25</timebase>
										</rate>
										<in>0</in>
										<out>96</out>
										<start>3133</start>
										<end>3229</end>
										<alphareverse>FALSE</alphareverse>
										<masterclipid>Fotball-gong1</masterclipid>
										<logginginfo>
											<scene/>
											<shottake/>
											<lognote/>
											<good>FALSE</good>
										</logginginfo>
										<labels>
											<label2/>
										</labels>
										<comments>
											<mastercomment1/>
											<mastercomment2/>
											<mastercomment3/>
											<mastercomment4/>
										</comments>
										<file id="Fotball-gong2"/>
										<filter>
											<effect>
												<name>Audio Levels</name>
												<effectid>audiolevels</effectid>
												<effectcategory>audiolevels</effectcategory>
												<effecttype>audiolevels</effecttype>
												<mediatype>audio</mediatype>
												<parameter>
													<name>Level</name>
													<parameterid>level</parameterid>
													<valuemin>0</valuemin>
													<valuemax>3.98109</valuemax>
													<value>0.630957</value>
												</parameter>
											</effect>
										</filter>
										<filter>
											<effect>
												<name>Audio Pan</name>
												<effectid>audiopan</effectid>
												<effectcategory>audiopan</effectcategory>
												<effecttype>audiopan</effecttype>
												<mediatype>audio</mediatype>
												<parameter>
													<name>Pan</name>
													<parameterid>pan</parameterid>
													<valuemin>-1</valuemin>
													<valuemax>1</valuemax>
													<value>-1</value>
												</parameter>
											</effect>
										</filter>
										<sourcetrack>
											<mediatype>audio</mediatype>
											<trackindex>1</trackindex>
										</sourcetrack>
										<link>
											<linkclipref>Fotball-gong4</linkclipref>
											<mediatype>audio</mediatype>
											<trackindex>5</trackindex>
											<clipindex>8</clipindex>
											<groupindex>1</groupindex>
										</link>
										<link>
											<linkclipref>Fotball-gong5</linkclipref>
											<mediatype>audio</mediatype>
											<trackindex>6</trackindex>
											<clipindex>4</clipindex>
											<groupindex>1</groupindex>
										</link>
									</clipitem>
									<enabled>TRUE</enabled>
									<locked>FALSE</locked>
									<outputchannelindex>1</outputchannelindex>
								</track>
								<track>
									<clipitem id="57 AMEN --- Vocal group with piano sting. (D)">
										<name>57 AMEN --- Vocal group with piano sting. (D)</name>
										<duration>231</duration>
										<rate>
											<ntsc>FALSE</ntsc>
											<timebase>25</timebase>
										</rate>
										<in>0</in>
										<out>231</out>
										<start>563</start>
										<end>794</end>
										<alphareverse>FALSE</alphareverse>
										<masterclipid>57 AMEN --- Vocal group with piano sting. (D)1</masterclipid>
										<logginginfo>
											<scene/>
											<shottake/>
											<lognote/>
											<good>FALSE</good>
										</logginginfo>
										<labels>
											<label2/>
										</labels>
										<comments>
											<mastercomment1/>
											<mastercomment2/>
											<mastercomment3/>
											<mastercomment4/>
										</comments>
										<file id="57 AMEN --- Vocal group with piano sting. (D)2">
											<name>57 AMEN --- Vocal group with piano sting. (D).aif</name>
											<pathurl>file://localhost/Volumes/Prosjekter_SuperSAN1-1/MSUB20000012%20FIN%20FREDAG/FCP-PROSJEKTER,%20sesong%202/program%201%20Jenny/musikk/57%20AMEN%20---%20Vocal%20group%20with%20piano%20sting.%20(D).aif</pathurl>
											<rate>
												<timebase>25</timebase>
											</rate>
											<duration>231</duration>
											<media>
												<audio>
													<rate>
														<timebase>44100</timebase>
													</rate>
													<trackcount>2</trackcount>
													<samplecharacteristics>
														<depth>16</depth>
													</samplecharacteristics>
												</audio>
											</media>
										</file>
										<filter>
											<effect>
												<name>Audio Levels</name>
												<effectid>audiolevels</effectid>
												<effectcategory>audiolevels</effectcategory>
												<effecttype>audiolevels</effecttype>
												<mediatype>audio</mediatype>
												<parameter>
													<name>Level</name>
													<parameterid>level</parameterid>
													<valuemin>0</valuemin>
													<valuemax>3.98109</valuemax>
													<value>1</value>
												</parameter>
											</effect>
										</filter>
										<filter>
											<effect>
												<name>Audio Pan</name>
												<effectid>audiopan</effectid>
												<effectcategory>audiopan</effectcategory>
												<effecttype>audiopan</effecttype>
												<mediatype>audio</mediatype>
												<parameter>
													<name>Pan</name>
													<parameterid>pan</parameterid>
													<valuemin>-1</valuemin>
													<valuemax>1</valuemax>
													<value>-1</value>
												</parameter>
											</effect>
										</filter>
										<sourcetrack>
											<mediatype>audio</mediatype>
											<trackindex>1</trackindex>
										</sourcetrack>
										<link>
											<linkclipref>57 AMEN --- Vocal group with piano sting. (D)</linkclipref>
											<mediatype>audio</mediatype>
											<trackindex>6</trackindex>
											<clipindex>1</clipindex>
											<groupindex>1</groupindex>
										</link>
										<link>
											<linkclipref>57 AMEN --- Vocal group with piano sting. (D)3</linkclipref>
											<mediatype>audio</mediatype>
											<trackindex>7</trackindex>
											<clipindex>1</clipindex>
											<groupindex>1</groupindex>
										</link>
									</clipitem>
									<clipitem id="Fotografering kamera -15">
										<name>Fotografering kamera -</name>
										<duration>361</duration>
										<rate>
											<ntsc>FALSE</ntsc>
											<timebase>25</timebase>
										</rate>
										<in>0</in>
										<out>22</out>
										<start>2343</start>
										<end>2365</end>
										<alphareverse>FALSE</alphareverse>
										<masterclipid>Fotografering kamera -1</masterclipid>
										<logginginfo>
											<scene/>
											<shottake/>
											<lognote/>
											<good>FALSE</good>
										</logginginfo>
										<labels>
											<label2/>
										</labels>
										<comments>
											<mastercomment1/>
											<mastercomment2/>
											<mastercomment3/>
											<mastercomment4/>
										</comments>
										<file id="Fotografering kamera -2"/>
										<filter>
											<effect>
												<name>Audio Levels</name>
												<effectid>audiolevels</effectid>
												<effectcategory>audiolevels</effectcategory>
												<effecttype>audiolevels</effecttype>
												<mediatype>audio</mediatype>
												<parameter>
													<name>Level</name>
													<parameterid>level</parameterid>
													<valuemin>0</valuemin>
													<valuemax>3.98109</valuemax>
													<value>1</value>
												</parameter>
											</effect>
										</filter>
										<filter>
											<effect>
												<name>Audio Pan</name>
												<effectid>audiopan</effectid>
												<effectcategory>audiopan</effectcategory>
												<effecttype>audiopan</effecttype>
												<mediatype>audio</mediatype>
												<parameter>
													<name>Pan</name>
													<parameterid>pan</parameterid>
													<valuemin>-1</valuemin>
													<valuemax>1</valuemax>
													<value>1</value>
												</parameter>
											</effect>
										</filter>
										<sourcetrack>
											<mediatype>audio</mediatype>
											<trackindex>2</trackindex>
										</sourcetrack>
										<link>
											<linkclipref>Fotografering kamera -14</linkclipref>
											<mediatype>audio</mediatype>
											<trackindex>5</trackindex>
											<clipindex>6</clipindex>
											<groupindex>1</groupindex>
										</link>
										<link>
											<linkclipref>Fotografering kamera -15</linkclipref>
											<mediatype>audio</mediatype>
											<trackindex>6</trackindex>
											<clipindex>2</clipindex>
											<groupindex>1</groupindex>
										</link>
									</clipitem>
									<clipitem id="Fotball-gong3">
										<name>Fotball-gong</name>
										<duration>122</duration>
										<rate>
											<ntsc>FALSE</ntsc>
											<timebase>25</timebase>
										</rate>
										<in>0</in>
										<out>122</out>
										<start>2846</start>
										<end>2968</end>
										<alphareverse>FALSE</alphareverse>
										<masterclipid>Fotball-gong1</masterclipid>
										<logginginfo>
											<scene/>
											<shottake/>
											<lognote/>
											<good>FALSE</good>
										</logginginfo>
										<labels>
											<label2/>
										</labels>
										<comments>
											<mastercomment1/>
											<mastercomment2/>
											<mastercomment3/>
											<mastercomment4/>
										</comments>
										<file id="Fotball-gong2"/>
										<filter>
											<effect>
												<name>Audio Levels</name>
												<effectid>audiolevels</effectid>
												<effectcategory>audiolevels</effectcategory>
												<effecttype>audiolevels</effecttype>
												<mediatype>audio</mediatype>
												<parameter>
													<name>Level</name>
													<parameterid>level</parameterid>
													<valuemin>0</valuemin>
													<valuemax>3.98109</valuemax>
													<value>0.630957</value>
												</parameter>
											</effect>
										</filter>
										<filter>
											<effect>
												<name>Audio Pan</name>
												<effectid>audiopan</effectid>
												<effectcategory>audiopan</effectcategory>
												<effecttype>audiopan</effecttype>
												<mediatype>audio</mediatype>
												<parameter>
													<name>Pan</name>
													<parameterid>pan</parameterid>
													<valuemin>-1</valuemin>
													<valuemax>1</valuemax>
													<value>1</value>
												</parameter>
											</effect>
										</filter>
										<sourcetrack>
											<mediatype>audio</mediatype>
											<trackindex>2</trackindex>
										</sourcetrack>
										<link>
											<linkclipref>Fotball-gong</linkclipref>
											<mediatype>audio</mediatype>
											<trackindex>5</trackindex>
											<clipindex>7</clipindex>
											<groupindex>1</groupindex>
										</link>
										<link>
											<linkclipref>Fotball-gong3</linkclipref>
											<mediatype>audio</mediatype>
											<trackindex>6</trackindex>
											<clipindex>3</clipindex>
											<groupindex>1</groupindex>
										</link>
									</clipitem>
									<clipitem id="Fotball-gong5">
										<name>Fotball-gong</name>
										<duration>122</duration>
										<rate>
											<ntsc>FALSE</ntsc>
											<timebase>25</timebase>
										</rate>
										<in>0</in>
										<out>96</out>
										<start>3133</start>
										<end>3229</end>
										<alphareverse>FALSE</alphareverse>
										<masterclipid>Fotball-gong1</masterclipid>
										<logginginfo>
											<scene/>
											<shottake/>
											<lognote/>
											<good>FALSE</good>
										</logginginfo>
										<labels>
											<label2/>
										</labels>
										<comments>
											<mastercomment1/>
											<mastercomment2/>
											<mastercomment3/>
											<mastercomment4/>
										</comments>
										<file id="Fotball-gong2"/>
										<filter>
											<effect>
												<name>Audio Levels</name>
												<effectid>audiolevels</effectid>
												<effectcategory>audiolevels</effectcategory>
												<effecttype>audiolevels</effecttype>
												<mediatype>audio</mediatype>
												<parameter>
													<name>Level</name>
													<parameterid>level</parameterid>
													<valuemin>0</valuemin>
													<valuemax>3.98109</valuemax>
													<value>0.630957</value>
												</parameter>
											</effect>
										</filter>
										<filter>
											<effect>
												<name>Audio Pan</name>
												<effectid>audiopan</effectid>
												<effectcategory>audiopan</effectcategory>
												<effecttype>audiopan</effecttype>
												<mediatype>audio</mediatype>
												<parameter>
													<name>Pan</name>
													<parameterid>pan</parameterid>
													<valuemin>-1</valuemin>
													<valuemax>1</valuemax>
													<value>1</value>
												</parameter>
											</effect>
										</filter>
										<sourcetrack>
											<mediatype>audio</mediatype>
											<trackindex>2</trackindex>
										</sourcetrack>
										<link>
											<linkclipref>Fotball-gong4</linkclipref>
											<mediatype>audio</mediatype>
											<trackindex>5</trackindex>
											<clipindex>8</clipindex>
											<groupindex>1</groupindex>
										</link>
										<link>
											<linkclipref>Fotball-gong5</linkclipref>
											<mediatype>audio</mediatype>
											<trackindex>6</trackindex>
											<clipindex>4</clipindex>
											<groupindex>1</groupindex>
										</link>
									</clipitem>
									<enabled>TRUE</enabled>
									<locked>FALSE</locked>
									<outputchannelindex>2</outputchannelindex>
								</track>
								<track>
									<clipitem id="57 AMEN --- Vocal group with piano sting. (D)3">
										<name>57 AMEN --- Vocal group with piano sting. (D)</name>
										<duration>231</duration>
										<rate>
											<ntsc>FALSE</ntsc>
											<timebase>25</timebase>
										</rate>
										<in>0</in>
										<out>231</out>
										<start>563</start>
										<end>794</end>
										<alphareverse>FALSE</alphareverse>
										<masterclipid>57 AMEN --- Vocal group with piano sting. (D)1</masterclipid>
										<logginginfo>
											<scene/>
											<shottake/>
											<lognote/>
											<good>FALSE</good>
										</logginginfo>
										<labels>
											<label2/>
										</labels>
										<comments>
											<mastercomment1/>
											<mastercomment2/>
											<mastercomment3/>
											<mastercomment4/>
										</comments>
										<file id="57 AMEN --- Vocal group with piano sting. (D)2"/>
										<filter>
											<effect>
												<name>Audio Levels</name>
												<effectid>audiolevels</effectid>
												<effectcategory>audiolevels</effectcategory>
												<effecttype>audiolevels</effecttype>
												<mediatype>audio</mediatype>
												<parameter>
													<name>Level</name>
													<parameterid>level</parameterid>
													<valuemin>0</valuemin>
													<valuemax>3.98109</valuemax>
													<value>1</value>
												</parameter>
											</effect>
										</filter>
										<filter>
											<effect>
												<name>Audio Pan</name>
												<effectid>audiopan</effectid>
												<effectcategory>audiopan</effectcategory>
												<effecttype>audiopan</effecttype>
												<mediatype>audio</mediatype>
												<parameter>
													<name>Pan</name>
													<parameterid>pan</parameterid>
													<valuemin>-1</valuemin>
													<valuemax>1</valuemax>
													<value>1</value>
												</parameter>
											</effect>
										</filter>
										<sourcetrack>
											<mediatype>audio</mediatype>
											<trackindex>2</trackindex>
										</sourcetrack>
										<link>
											<linkclipref>57 AMEN --- Vocal group with piano sting. (D)</linkclipref>
											<mediatype>audio</mediatype>
											<trackindex>6</trackindex>
											<clipindex>1</clipindex>
											<groupindex>1</groupindex>
										</link>
										<link>
											<linkclipref>57 AMEN --- Vocal group with piano sting. (D)3</linkclipref>
											<mediatype>audio</mediatype>
											<trackindex>7</trackindex>
											<clipindex>1</clipindex>
											<groupindex>1</groupindex>
										</link>
									</clipitem>
									<clipitem id="Haugestad Plopp14">
										<name>Haugestad Plopp</name>
										<duration>13</duration>
										<rate>
											<ntsc>FALSE</ntsc>
											<timebase>25</timebase>
										</rate>
										<in>0</in>
										<out>13</out>
										<start>3203</start>
										<end>3216</end>
										<alphareverse>FALSE</alphareverse>
										<masterclipid>Haugestad Plopp1</masterclipid>
										<logginginfo>
											<scene/>
											<shottake/>
											<lognote/>
											<good>FALSE</good>
										</logginginfo>
										<labels>
											<label2/>
										</labels>
										<comments>
											<mastercomment1/>
											<mastercomment2/>
											<mastercomment3/>
											<mastercomment4/>
										</comments>
										<file id="Haugestad Plopp2"/>
										<filter>
											<effect>
												<name>Audio Levels</name>
												<effectid>audiolevels</effectid>
												<effectcategory>audiolevels</effectcategory>
												<effecttype>audiolevels</effecttype>
												<mediatype>audio</mediatype>
												<parameter>
													<name>Level</name>
													<parameterid>level</parameterid>
													<valuemin>0</valuemin>
													<valuemax>3.98109</valuemax>
													<value>1</value>
												</parameter>
											</effect>
										</filter>
										<filter>
											<effect>
												<name>Audio Pan</name>
												<effectid>audiopan</effectid>
												<effectcategory>audiopan</effectcategory>
												<effecttype>audiopan</effecttype>
												<mediatype>audio</mediatype>
												<parameter>
													<name>Pan</name>
													<parameterid>pan</parameterid>
													<valuemin>-1</valuemin>
													<valuemax>1</valuemax>
													<value>-1</value>
												</parameter>
											</effect>
										</filter>
										<sourcetrack>
											<mediatype>audio</mediatype>
											<trackindex>1</trackindex>
										</sourcetrack>
										<link>
											<linkclipref>Haugestad Plopp14</linkclipref>
											<mediatype>audio</mediatype>
											<trackindex>7</trackindex>
											<clipindex>2</clipindex>
											<groupindex>1</groupindex>
										</link>
										<link>
											<linkclipref>Haugestad Plopp15</linkclipref>
											<mediatype>audio</mediatype>
											<trackindex>8</trackindex>
											<clipindex>1</clipindex>
											<groupindex>1</groupindex>
										</link>
									</clipitem>
									<clipitem id="Haugestad Plopp16">
										<name>Haugestad Plopp</name>
										<duration>13</duration>
										<rate>
											<ntsc>FALSE</ntsc>
											<timebase>25</timebase>
										</rate>
										<in>0</in>
										<out>13</out>
										<start>3216</start>
										<end>3229</end>
										<alphareverse>FALSE</alphareverse>
										<masterclipid>Haugestad Plopp1</masterclipid>
										<logginginfo>
											<scene/>
											<shottake/>
											<lognote/>
											<good>FALSE</good>
										</logginginfo>
										<labels>
											<label2/>
										</labels>
										<comments>
											<mastercomment1/>
											<mastercomment2/>
											<mastercomment3/>
											<mastercomment4/>
										</comments>
										<file id="Haugestad Plopp2"/>
										<filter>
											<effect>
												<name>Audio Levels</name>
												<effectid>audiolevels</effectid>
												<effectcategory>audiolevels</effectcategory>
												<effecttype>audiolevels</effecttype>
												<mediatype>audio</mediatype>
												<parameter>
													<name>Level</name>
													<parameterid>level</parameterid>
													<valuemin>0</valuemin>
													<valuemax>3.98109</valuemax>
													<value>1</value>
												</parameter>
											</effect>
										</filter>
										<filter>
											<effect>
												<name>Audio Pan</name>
												<effectid>audiopan</effectid>
												<effectcategory>audiopan</effectcategory>
												<effecttype>audiopan</effecttype>
												<mediatype>audio</mediatype>
												<parameter>
													<name>Pan</name>
													<parameterid>pan</parameterid>
													<valuemin>-1</valuemin>
													<valuemax>1</valuemax>
													<value>-1</value>
												</parameter>
											</effect>
										</filter>
										<sourcetrack>
											<mediatype>audio</mediatype>
											<trackindex>1</trackindex>
										</sourcetrack>
										<link>
											<linkclipref>Haugestad Plopp16</linkclipref>
											<mediatype>audio</mediatype>
											<trackindex>7</trackindex>
											<clipindex>3</clipindex>
											<groupindex>1</groupindex>
										</link>
										<link>
											<linkclipref>Haugestad Plopp17</linkclipref>
											<mediatype>audio</mediatype>
											<trackindex>8</trackindex>
											<clipindex>2</clipindex>
											<groupindex>1</groupindex>
										</link>
									</clipitem>
									<clipitem id="Haugestad Plopp18">
										<name>Haugestad Plopp</name>
										<duration>13</duration>
										<rate>
											<ntsc>FALSE</ntsc>
											<timebase>25</timebase>
										</rate>
										<in>0</in>
										<out>13</out>
										<start>3229</start>
										<end>3242</end>
										<alphareverse>FALSE</alphareverse>
										<masterclipid>Haugestad Plopp1</masterclipid>
										<logginginfo>
											<scene/>
											<shottake/>
											<lognote/>
											<good>FALSE</good>
										</logginginfo>
										<labels>
											<label2/>
										</labels>
										<comments>
											<mastercomment1/>
											<mastercomment2/>
											<mastercomment3/>
											<mastercomment4/>
										</comments>
										<file id="Haugestad Plopp2"/>
										<filter>
											<effect>
												<name>Audio Levels</name>
												<effectid>audiolevels</effectid>
												<effectcategory>audiolevels</effectcategory>
												<effecttype>audiolevels</effecttype>
												<mediatype>audio</mediatype>
												<parameter>
													<name>Level</name>
													<parameterid>level</parameterid>
													<valuemin>0</valuemin>
													<valuemax>3.98109</valuemax>
													<value>1</value>
												</parameter>
											</effect>
										</filter>
										<filter>
											<effect>
												<name>Audio Pan</name>
												<effectid>audiopan</effectid>
												<effectcategory>audiopan</effectcategory>
												<effecttype>audiopan</effecttype>
												<mediatype>audio</mediatype>
												<parameter>
													<name>Pan</name>
													<parameterid>pan</parameterid>
													<valuemin>-1</valuemin>
													<valuemax>1</valuemax>
													<value>-1</value>
												</parameter>
											</effect>
										</filter>
										<sourcetrack>
											<mediatype>audio</mediatype>
											<trackindex>1</trackindex>
										</sourcetrack>
										<link>
											<linkclipref>Haugestad Plopp18</linkclipref>
											<mediatype>audio</mediatype>
											<trackindex>7</trackindex>
											<clipindex>4</clipindex>
											<groupindex>1</groupindex>
										</link>
										<link>
											<linkclipref>Haugestad Plopp19</linkclipref>
											<mediatype>audio</mediatype>
											<trackindex>8</trackindex>
											<clipindex>3</clipindex>
											<groupindex>1</groupindex>
										</link>
									</clipitem>
									<clipitem id="56 Bicycle Bell4">
										<name>56 Bicycle Bell</name>
										<duration>241</duration>
										<rate>
											<ntsc>FALSE</ntsc>
											<timebase>25</timebase>
										</rate>
										<in>13</in>
										<out>41</out>
										<start>3242</start>
										<end>3270</end>
										<alphareverse>FALSE</alphareverse>
										<masterclipid>56 Bicycle Bell1</masterclipid>
										<logginginfo>
											<scene/>
											<shottake/>
											<lognote/>
											<good>FALSE</good>
										</logginginfo>
										<labels>
											<label2/>
										</labels>
										<comments>
											<mastercomment1/>
											<mastercomment2/>
											<mastercomment3/>
											<mastercomment4/>
										</comments>
										<file id="56 Bicycle Bell2"/>
										<filter>
											<effect>
												<name>Audio Levels</name>
												<effectid>audiolevels</effectid>
												<effectcategory>audiolevels</effectcategory>
												<effecttype>audiolevels</effecttype>
												<mediatype>audio</mediatype>
												<parameter>
													<name>Level</name>
													<parameterid>level</parameterid>
													<valuemin>0</valuemin>
													<valuemax>3.98109</valuemax>
													<value>1</value>
												</parameter>
											</effect>
										</filter>
										<filter>
											<effect>
												<name>Audio Pan</name>
												<effectid>audiopan</effectid>
												<effectcategory>audiopan</effectcategory>
												<effecttype>audiopan</effecttype>
												<mediatype>audio</mediatype>
												<parameter>
													<name>Pan</name>
													<parameterid>pan</parameterid>
													<valuemin>-1</valuemin>
													<valuemax>1</valuemax>
													<value>-1</value>
												</parameter>
											</effect>
										</filter>
										<sourcetrack>
											<mediatype>audio</mediatype>
											<trackindex>1</trackindex>
										</sourcetrack>
										<link>
											<linkclipref>56 Bicycle Bell4</linkclipref>
											<mediatype>audio</mediatype>
											<trackindex>7</trackindex>
											<clipindex>5</clipindex>
											<groupindex>1</groupindex>
										</link>
										<link>
											<linkclipref>56 Bicycle Bell5</linkclipref>
											<mediatype>audio</mediatype>
											<trackindex>8</trackindex>
											<clipindex>4</clipindex>
											<groupindex>1</groupindex>
										</link>
									</clipitem>
									<enabled>TRUE</enabled>
									<locked>FALSE</locked>
									<outputchannelindex>1</outputchannelindex>
								</track>
								<track>
									<clipitem id="Haugestad Plopp15">
										<name>Haugestad Plopp</name>
										<duration>13</duration>
										<rate>
											<ntsc>FALSE</ntsc>
											<timebase>25</timebase>
										</rate>
										<in>0</in>
										<out>13</out>
										<start>3203</start>
										<end>3216</end>
										<alphareverse>FALSE</alphareverse>
										<masterclipid>Haugestad Plopp1</masterclipid>
										<logginginfo>
											<scene/>
											<shottake/>
											<lognote/>
											<good>FALSE</good>
										</logginginfo>
										<labels>
											<label2/>
										</labels>
										<comments>
											<mastercomment1/>
											<mastercomment2/>
											<mastercomment3/>
											<mastercomment4/>
										</comments>
										<file id="Haugestad Plopp2"/>
										<filter>
											<effect>
												<name>Audio Levels</name>
												<effectid>audiolevels</effectid>
												<effectcategory>audiolevels</effectcategory>
												<effecttype>audiolevels</effecttype>
												<mediatype>audio</mediatype>
												<parameter>
													<name>Level</name>
													<parameterid>level</parameterid>
													<valuemin>0</valuemin>
													<valuemax>3.98109</valuemax>
													<value>1</value>
												</parameter>
											</effect>
										</filter>
										<filter>
											<effect>
												<name>Audio Pan</name>
												<effectid>audiopan</effectid>
												<effectcategory>audiopan</effectcategory>
												<effecttype>audiopan</effecttype>
												<mediatype>audio</mediatype>
												<parameter>
													<name>Pan</name>
													<parameterid>pan</parameterid>
													<valuemin>-1</valuemin>
													<valuemax>1</valuemax>
													<value>1</value>
												</parameter>
											</effect>
										</filter>
										<sourcetrack>
											<mediatype>audio</mediatype>
											<trackindex>2</trackindex>
										</sourcetrack>
										<link>
											<linkclipref>Haugestad Plopp14</linkclipref>
											<mediatype>audio</mediatype>
											<trackindex>7</trackindex>
											<clipindex>2</clipindex>
											<groupindex>1</groupindex>
										</link>
										<link>
											<linkclipref>Haugestad Plopp15</linkclipref>
											<mediatype>audio</mediatype>
											<trackindex>8</trackindex>
											<clipindex>1</clipindex>
											<groupindex>1</groupindex>
										</link>
									</clipitem>
									<clipitem id="Haugestad Plopp17">
										<name>Haugestad Plopp</name>
										<duration>13</duration>
										<rate>
											<ntsc>FALSE</ntsc>
											<timebase>25</timebase>
										</rate>
										<in>0</in>
										<out>13</out>
										<start>3216</start>
										<end>3229</end>
										<alphareverse>FALSE</alphareverse>
										<masterclipid>Haugestad Plopp1</masterclipid>
										<logginginfo>
											<scene/>
											<shottake/>
											<lognote/>
											<good>FALSE</good>
										</logginginfo>
										<labels>
											<label2/>
										</labels>
										<comments>
											<mastercomment1/>
											<mastercomment2/>
											<mastercomment3/>
											<mastercomment4/>
										</comments>
										<file id="Haugestad Plopp2"/>
										<filter>
											<effect>
												<name>Audio Levels</name>
												<effectid>audiolevels</effectid>
												<effectcategory>audiolevels</effectcategory>
												<effecttype>audiolevels</effecttype>
												<mediatype>audio</mediatype>
												<parameter>
													<name>Level</name>
													<parameterid>level</parameterid>
													<valuemin>0</valuemin>
													<valuemax>3.98109</valuemax>
													<value>1</value>
												</parameter>
											</effect>
										</filter>
										<filter>
											<effect>
												<name>Audio Pan</name>
												<effectid>audiopan</effectid>
												<effectcategory>audiopan</effectcategory>
												<effecttype>audiopan</effecttype>
												<mediatype>audio</mediatype>
												<parameter>
													<name>Pan</name>
													<parameterid>pan</parameterid>
													<valuemin>-1</valuemin>
													<valuemax>1</valuemax>
													<value>1</value>
												</parameter>
											</effect>
										</filter>
										<sourcetrack>
											<mediatype>audio</mediatype>
											<trackindex>2</trackindex>
										</sourcetrack>
										<link>
											<linkclipref>Haugestad Plopp16</linkclipref>
											<mediatype>audio</mediatype>
											<trackindex>7</trackindex>
											<clipindex>3</clipindex>
											<groupindex>1</groupindex>
										</link>
										<link>
											<linkclipref>Haugestad Plopp17</linkclipref>
											<mediatype>audio</mediatype>
											<trackindex>8</trackindex>
											<clipindex>2</clipindex>
											<groupindex>1</groupindex>
										</link>
									</clipitem>
									<clipitem id="Haugestad Plopp19">
										<name>Haugestad Plopp</name>
										<duration>13</duration>
										<rate>
											<ntsc>FALSE</ntsc>
											<timebase>25</timebase>
										</rate>
										<in>0</in>
										<out>13</out>
										<start>3229</start>
										<end>3242</end>
										<alphareverse>FALSE</alphareverse>
										<masterclipid>Haugestad Plopp1</masterclipid>
										<logginginfo>
											<scene/>
											<shottake/>
											<lognote/>
											<good>FALSE</good>
										</logginginfo>
										<labels>
											<label2/>
										</labels>
										<comments>
											<mastercomment1/>
											<mastercomment2/>
											<mastercomment3/>
											<mastercomment4/>
										</comments>
										<file id="Haugestad Plopp2"/>
										<filter>
											<effect>
												<name>Audio Levels</name>
												<effectid>audiolevels</effectid>
												<effectcategory>audiolevels</effectcategory>
												<effecttype>audiolevels</effecttype>
												<mediatype>audio</mediatype>
												<parameter>
													<name>Level</name>
													<parameterid>level</parameterid>
													<valuemin>0</valuemin>
													<valuemax>3.98109</valuemax>
													<value>1</value>
												</parameter>
											</effect>
										</filter>
										<filter>
											<effect>
												<name>Audio Pan</name>
												<effectid>audiopan</effectid>
												<effectcategory>audiopan</effectcategory>
												<effecttype>audiopan</effecttype>
												<mediatype>audio</mediatype>
												<parameter>
													<name>Pan</name>
													<parameterid>pan</parameterid>
													<valuemin>-1</valuemin>
													<valuemax>1</valuemax>
													<value>1</value>
												</parameter>
											</effect>
										</filter>
										<sourcetrack>
											<mediatype>audio</mediatype>
											<trackindex>2</trackindex>
										</sourcetrack>
										<link>
											<linkclipref>Haugestad Plopp18</linkclipref>
											<mediatype>audio</mediatype>
											<trackindex>7</trackindex>
											<clipindex>4</clipindex>
											<groupindex>1</groupindex>
										</link>
										<link>
											<linkclipref>Haugestad Plopp19</linkclipref>
											<mediatype>audio</mediatype>
											<trackindex>8</trackindex>
											<clipindex>3</clipindex>
											<groupindex>1</groupindex>
										</link>
									</clipitem>
									<clipitem id="56 Bicycle Bell5">
										<name>56 Bicycle Bell</name>
										<duration>241</duration>
										<rate>
											<ntsc>FALSE</ntsc>
											<timebase>25</timebase>
										</rate>
										<in>13</in>
										<out>41</out>
										<start>3242</start>
										<end>3270</end>
										<alphareverse>FALSE</alphareverse>
										<masterclipid>56 Bicycle Bell1</masterclipid>
										<logginginfo>
											<scene/>
											<shottake/>
											<lognote/>
											<good>FALSE</good>
										</logginginfo>
										<labels>
											<label2/>
										</labels>
										<comments>
											<mastercomment1/>
											<mastercomment2/>
											<mastercomment3/>
											<mastercomment4/>
										</comments>
										<file id="56 Bicycle Bell2"/>
										<filter>
											<effect>
												<name>Audio Levels</name>
												<effectid>audiolevels</effectid>
												<effectcategory>audiolevels</effectcategory>
												<effecttype>audiolevels</effecttype>
												<mediatype>audio</mediatype>
												<parameter>
													<name>Level</name>
													<parameterid>level</parameterid>
													<valuemin>0</valuemin>
													<valuemax>3.98109</valuemax>
													<value>1</value>
												</parameter>
											</effect>
										</filter>
										<filter>
											<effect>
												<name>Audio Pan</name>
												<effectid>audiopan</effectid>
												<effectcategory>audiopan</effectcategory>
												<effecttype>audiopan</effecttype>
												<mediatype>audio</mediatype>
												<parameter>
													<name>Pan</name>
													<parameterid>pan</parameterid>
													<valuemin>-1</valuemin>
													<valuemax>1</valuemax>
													<value>1</value>
												</parameter>
											</effect>
										</filter>
										<sourcetrack>
											<mediatype>audio</mediatype>
											<trackindex>2</trackindex>
										</sourcetrack>
										<link>
											<linkclipref>56 Bicycle Bell4</linkclipref>
											<mediatype>audio</mediatype>
											<trackindex>7</trackindex>
											<clipindex>5</clipindex>
											<groupindex>1</groupindex>
										</link>
										<link>
											<linkclipref>56 Bicycle Bell5</linkclipref>
											<mediatype>audio</mediatype>
											<trackindex>8</trackindex>
											<clipindex>4</clipindex>
											<groupindex>1</groupindex>
										</link>
									</clipitem>
									<enabled>TRUE</enabled>
									<locked>FALSE</locked>
									<outputchannelindex>2</outputchannelindex>
								</track>
								<track>
									<enabled>TRUE</enabled>
									<locked>FALSE</locked>
									<outputchannelindex>1</outputchannelindex>
								</track>
								<track>
									<enabled>TRUE</enabled>
									<locked>FALSE</locked>
									<outputchannelindex>2</outputchannelindex>
								</track>
								<track>
									<enabled>TRUE</enabled>
									<locked>FALSE</locked>
									<outputchannelindex>1</outputchannelindex>
								</track>
								<track>
									<enabled>TRUE</enabled>
									<locked>FALSE</locked>
									<outputchannelindex>2</outputchannelindex>
								</track>
							</audio>
						</media>
					</sequence>
					<sourcetrack>
						<mediatype>video</mediatype>
					</sourcetrack>
					<link>
						<linkclipref>Ukas Fjortis, bare Knut</linkclipref>
						<mediatype>video</mediatype>
						<trackindex>2</trackindex>
						<clipindex>13</clipindex>
					</link>
					<link>
						<linkclipref>Ukas Fjortis, bare Knut2</linkclipref>
						<mediatype>audio</mediatype>
						<trackindex>5</trackindex>
						<clipindex>13</clipindex>
						<groupindex>1</groupindex>
					</link>
					<link>
						<linkclipref>Ukas Fjortis, bare Knut3</linkclipref>
						<mediatype>audio</mediatype>
						<trackindex>6</trackindex>
						<clipindex>12</clipindex>
						<groupindex>1</groupindex>
					</link>
					<ismasterclip>FALSE</ismasterclip>
				</clipitem>
				<clipitem id="msub200012-3011-k1d2-004 11">
					<name>msub200012-3011-k1d2-004</name>
					<duration>6412</duration>
					<rate>
						<ntsc>FALSE</ntsc>
						<timebase>25</timebase>
					</rate>
					<in>869</in>
					<out>905</out>
					<start>16845</start>
					<end>16881</end>
					<pixelaspectratio>Square</pixelaspectratio>
					<enabled>TRUE</enabled>
					<anamorphic>FALSE</anamorphic>
					<alphatype>none</alphatype>
					<masterclipid>msub200012-3011-k1d2-004 1</masterclipid>
					<logginginfo>
						<description>msub200012-3011-k1d2-004</description>
						<scene/>
						<shottake/>
						<lognote/>
						<good>FALSE</good>
					</logginginfo>
					<labels>
						<label2/>
					</labels>
					<comments>
						<mastercomment1>RÃ…STOFF. BR_FINFREDAG_MSUA_OPRO</mastercomment1>
						<mastercomment2/>
						<mastercomment3/>
						<mastercomment4/>
						<clipcommenta/>
					</comments>
					<file id="msub200012-3011-k1d2-004 2"/>
					<sourcetrack>
						<mediatype>video</mediatype>
					</sourcetrack>
					<fielddominance>upper</fielddominance>
				</clipitem>
				<transitionitem id="920173000 ">
					<rate>
						<ntsc>FALSE</ntsc>
						<timebase>25</timebase>
					</rate>
					<start>18435</start>
					<end>18443</end>
					<alignment>start-black</alignment>
					<effect>
						<name>Push Slide</name>
						<effectid>Push Slide</effectid>
						<effectcategory>Slide</effectcategory>
						<effecttype>transition</effecttype>
						<mediatype>video</mediatype>
						<wipecode>1</wipecode>
						<wipeaccuracy>100</wipeaccuracy>
						<startratio>0</startratio>
						<endratio>1</endratio>
						<reverse>FALSE</reverse>
						<parameter>
							<parameterid>angleofpush</parameterid>
							<name>Angle</name>
							<valuemin>-360</valuemin>
							<valuemax>360</valuemax>
							<value>90</value>
						</parameter>
						<parameter>
							<parameterid>borderwidth</parameterid>
							<name>Border</name>
							<valuemin>0</valuemin>
							<valuemax>10</valuemax>
							<value>0</value>
						</parameter>
						<parameter>
							<parameterid>bordercolor</parameterid>
							<name>Color</name>
							<value>
								<alpha>255</alpha>
								<red>0</red>
								<green>0</green>
								<blue>0</blue>
							</value>
						</parameter>
					</effect>
				</transitionitem>
				<clipitem id="msub200012-hjelp02008.MXF">
					<name>msub200012-hjelp02008.MXF</name>
					<duration>6396</duration>
					<rate>
						<ntsc>FALSE</ntsc>
						<timebase>25</timebase>
					</rate>
					<in>512</in>
					<out>746</out>
					<start>-1</start>
					<end>18669</end>
					<pixelaspectratio>Square</pixelaspectratio>
					<enabled>TRUE</enabled>
					<anamorphic>FALSE</anamorphic>
					<alphatype>none</alphatype>
					<masterclipid>msub200012-hjelp02008.MXF1</masterclipid>
					<logginginfo>
						<scene/>
						<shottake/>
						<lognote/>
						<good>FALSE</good>
					</logginginfo>
					<labels>
						<label2/>
					</labels>
					<comments>
						<mastercomment1/>
						<mastercomment2/>
						<mastercomment3/>
						<mastercomment4/>
					</comments>
					<file id="msub200012-hjelp02008 ">
						<name>msub200012-hjelp02008.MXF</name>
						<pathurl>file://localhost/Volumes/Prosjekter_SuperSAN1-1/MSUB20000012%20FIN%20FREDAG/FCP-PROSJEKTER,%20sesong%202/Fredagshjelpen/msub200012-hjelp02008.MXF</pathurl>
						<rate>
							<timebase>25</timebase>
						</rate>
						<duration>6396</duration>
						<timecode>
							<rate>
								<timebase>25</timebase>
							</rate>
							<string>03:42:49:23</string>
							<frame>334248</frame>
							<displayformat>NDF</displayformat>
							<source>source</source>
						</timecode>
						<media>
							<video>
								<duration>6396</duration>
								<samplecharacteristics>
									<width>1920</width>
									<height>1080</height>
								</samplecharacteristics>
							</video>
							<audio>
								<rate>
									<timebase>48000</timebase>
								</rate>
								<trackcount>1</trackcount>
								<samplecharacteristics>
									<depth>24</depth>
								</samplecharacteristics>
							</audio>
						</media>
					</file>
					<sourcetrack>
						<mediatype>video</mediatype>
					</sourcetrack>
					<link>
						<linkclipref>msub200012-hjelp02008.MXF</linkclipref>
						<mediatype>video</mediatype>
						<trackindex>2</trackindex>
						<clipindex>16</clipindex>
					</link>
					<link>
						<linkclipref>msub200012-hjelp02008.MXF2</linkclipref>
						<mediatype>audio</mediatype>
						<trackindex>4</trackindex>
						<clipindex>19</clipindex>
					</link>
					<fielddominance>upper</fielddominance>
				</clipitem>
				<clipitem id="msub200012-hjelp01007.MXF">
					<name>msub200012-hjelp01007.MXF</name>
					<duration>3660</duration>
					<rate>
						<ntsc>FALSE</ntsc>
						<timebase>25</timebase>
					</rate>
					<in>3524</in>
					<out>3583</out>
					<start>18669</start>
					<end>18728</end>
					<pixelaspectratio>Square</pixelaspectratio>
					<enabled>TRUE</enabled>
					<anamorphic>FALSE</anamorphic>
					<alphatype>none</alphatype>
					<masterclipid>msub200012-hjelp01007.MXF1</masterclipid>
					<logginginfo>
						<scene/>
						<shottake/>
						<lognote/>
						<good>FALSE</good>
					</logginginfo>
					<labels>
						<label2/>
					</labels>
					<comments>
						<mastercomment1/>
						<mastercomment2/>
						<mastercomment3/>
						<mastercomment4/>
					</comments>
					<file id="msub200012-hjelp01007 ">
						<name>msub200012-hjelp01007.MXF</name>
						<pathurl>file://localhost/Volumes/Prosjekter_SuperSAN1-1/MSUB20000012%20FIN%20FREDAG/FCP-PROSJEKTER,%20sesong%202/Fredagshjelpen/msub200012-hjelp01007.MXF</pathurl>
						<rate>
							<timebase>25</timebase>
						</rate>
						<duration>3660</duration>
						<timecode>
							<rate>
								<timebase>25</timebase>
							</rate>
							<string>02:02:08:04</string>
							<frame>183204</frame>
							<displayformat>NDF</displayformat>
							<source>source</source>
						</timecode>
						<media>
							<video>
								<duration>3660</duration>
								<samplecharacteristics>
									<width>1920</width>
									<height>1080</height>
								</samplecharacteristics>
							</video>
							<audio>
								<rate>
									<timebase>48000</timebase>
								</rate>
								<trackcount>1</trackcount>
								<samplecharacteristics>
									<depth>24</depth>
								</samplecharacteristics>
							</audio>
						</media>
					</file>
					<sourcetrack>
						<mediatype>video</mediatype>
					</sourcetrack>
					<link>
						<linkclipref>msub200012-hjelp01007.MXF</linkclipref>
						<mediatype>video</mediatype>
						<trackindex>2</trackindex>
						<clipindex>17</clipindex>
					</link>
					<link>
						<linkclipref>msub200012-hjelp01007.MXF2</linkclipref>
						<mediatype>audio</mediatype>
						<trackindex>4</trackindex>
						<clipindex>21</clipindex>
					</link>
					<fielddominance>upper</fielddominance>
				</clipitem>
				<clipitem id="msub200012-hjelp02012.MXF">
					<name>msub200012-hjelp02012.MXF</name>
					<duration>7404</duration>
					<rate>
						<ntsc>FALSE</ntsc>
						<timebase>25</timebase>
					</rate>
					<in>329</in>
					<out>349</out>
					<start>18728</start>
					<end>18748</end>
					<pixelaspectratio>Square</pixelaspectratio>
					<enabled>TRUE</enabled>
					<anamorphic>FALSE</anamorphic>
					<alphatype>none</alphatype>
					<masterclipid>msub200012-hjelp02012.MXF1</masterclipid>
					<logginginfo>
						<scene/>
						<shottake/>
						<lognote/>
						<good>FALSE</good>
					</logginginfo>
					<labels>
						<label2/>
					</labels>
					<comments>
						<mastercomment1/>
						<mastercomment2/>
						<mastercomment3/>
						<mastercomment4/>
					</comments>
					<file id="msub200012-hjelp02012 ">
						<name>msub200012-hjelp02012.MXF</name>
						<pathurl>file://localhost/Volumes/Prosjekter_SuperSAN1-1/MSUB20000012%20FIN%20FREDAG/FCP-PROSJEKTER,%20sesong%202/Fredagshjelpen/msub200012-hjelp02012.MXF</pathurl>
						<rate>
							<timebase>25</timebase>
						</rate>
						<duration>7404</duration>
						<timecode>
							<rate>
								<timebase>25</timebase>
							</rate>
							<string>03:54:04:08</string>
							<frame>351108</frame>
							<displayformat>NDF</displayformat>
							<source>source</source>
						</timecode>
						<media>
							<video>
								<duration>7404</duration>
								<samplecharacteristics>
									<width>1920</width>
									<height>1080</height>
								</samplecharacteristics>
							</video>
							<audio>
								<rate>
									<timebase>48000</timebase>
								</rate>
								<trackcount>1</trackcount>
								<samplecharacteristics>
									<depth>24</depth>
								</samplecharacteristics>
							</audio>
						</media>
					</file>
					<sourcetrack>
						<mediatype>video</mediatype>
					</sourcetrack>
					<link>
						<linkclipref>msub200012-hjelp02012.MXF</linkclipref>
						<mediatype>video</mediatype>
						<trackindex>2</trackindex>
						<clipindex>18</clipindex>
					</link>
					<link>
						<linkclipref>msub200012-hjelp02012.MXF2</linkclipref>
						<mediatype>audio</mediatype>
						<trackindex>4</trackindex>
						<clipindex>23</clipindex>
					</link>
					<fielddominance>upper</fielddominance>
				</clipitem>
				<clipitem id="msub200012-hjelp01022.MXF">
					<name>msub200012-hjelp01022.MXF</name>
					<duration>12300</duration>
					<rate>
						<ntsc>FALSE</ntsc>
						<timebase>25</timebase>
					</rate>
					<in>1212</in>
					<out>1232</out>
					<start>18748</start>
					<end>18768</end>
					<pixelaspectratio>Square</pixelaspectratio>
					<enabled>TRUE</enabled>
					<anamorphic>FALSE</anamorphic>
					<alphatype>none</alphatype>
					<masterclipid>msub200012-hjelp01022.MXF1</masterclipid>
					<logginginfo>
						<scene/>
						<shottake/>
						<lognote/>
						<good>FALSE</good>
					</logginginfo>
					<labels>
						<label2/>
					</labels>
					<comments>
						<mastercomment1/>
						<mastercomment2/>
						<mastercomment3/>
						<mastercomment4/>
					</comments>
					<file id="msub200012-hjelp01022 ">
						<name>msub200012-hjelp01022.MXF</name>
						<pathurl>file://localhost/Volumes/Prosjekter_SuperSAN1-1/MSUB20000012%20FIN%20FREDAG/FCP-PROSJEKTER,%20sesong%202/Fredagshjelpen/msub200012-hjelp01022.MXF</pathurl>
						<rate>
							<timebase>25</timebase>
						</rate>
						<duration>12300</duration>
						<timecode>
							<rate>
								<timebase>25</timebase>
							</rate>
							<string>02:37:58:14</string>
							<frame>236964</frame>
							<displayformat>NDF</displayformat>
							<source>source</source>
						</timecode>
						<media>
							<video>
								<duration>12300</duration>
								<samplecharacteristics>
									<width>1920</width>
									<height>1080</height>
								</samplecharacteristics>
							</video>
							<audio>
								<rate>
									<timebase>48000</timebase>
								</rate>
								<trackcount>1</trackcount>
								<samplecharacteristics>
									<depth>24</depth>
								</samplecharacteristics>
							</audio>
						</media>
					</file>
					<sourcetrack>
						<mediatype>video</mediatype>
					</sourcetrack>
					<link>
						<linkclipref>msub200012-hjelp01022.MXF</linkclipref>
						<mediatype>video</mediatype>
						<trackindex>2</trackindex>
						<clipindex>19</clipindex>
					</link>
					<link>
						<linkclipref>msub200012-hjelp01022.MXF2</linkclipref>
						<mediatype>audio</mediatype>
						<trackindex>4</trackindex>
						<clipindex>25</clipindex>
					</link>
					<fielddominance>upper</fielddominance>
				</clipitem>
				<clipitem id="msub200012-hjelp01023.MXF">
					<name>msub200012-hjelp01023.MXF</name>
					<duration>2580</duration>
					<rate>
						<ntsc>FALSE</ntsc>
						<timebase>25</timebase>
					</rate>
					<in>672</in>
					<out>943</out>
					<start>18768</start>
					<end>19039</end>
					<pixelaspectratio>Square</pixelaspectratio>
					<enabled>TRUE</enabled>
					<anamorphic>FALSE</anamorphic>
					<alphatype>none</alphatype>
					<masterclipid>msub200012-hjelp01023.MXF1</masterclipid>
					<logginginfo>
						<scene/>
						<shottake/>
						<lognote/>
						<good>FALSE</good>
					</logginginfo>
					<labels>
						<label2/>
					</labels>
					<comments>
						<mastercomment1/>
						<mastercomment2/>
						<mastercomment3/>
						<mastercomment4/>
					</comments>
					<file id="msub200012-hjelp01023 ">
						<name>msub200012-hjelp01023.MXF</name>
						<pathurl>file://localhost/Volumes/Prosjekter_SuperSAN1-1/MSUB20000012%20FIN%20FREDAG/FCP-PROSJEKTER,%20sesong%202/Fredagshjelpen/msub200012-hjelp01023.MXF</pathurl>
						<rate>
							<timebase>25</timebase>
						</rate>
						<duration>2580</duration>
						<timecode>
							<rate>
								<timebase>25</timebase>
							</rate>
							<string>02:46:10:14</string>
							<frame>249264</frame>
							<displayformat>NDF</displayformat>
							<source>source</source>
						</timecode>
						<media>
							<video>
								<duration>2580</duration>
								<samplecharacteristics>
									<width>1920</width>
									<height>1080</height>
								</samplecharacteristics>
							</video>
							<audio>
								<rate>
									<timebase>48000</timebase>
								</rate>
								<trackcount>1</trackcount>
								<samplecharacteristics>
									<depth>24</depth>
								</samplecharacteristics>
							</audio>
						</media>
					</file>
					<sourcetrack>
						<mediatype>video</mediatype>
					</sourcetrack>
					<link>
						<linkclipref>msub200012-hjelp01023.MXF</linkclipref>
						<mediatype>video</mediatype>
						<trackindex>2</trackindex>
						<clipindex>20</clipindex>
					</link>
					<link>
						<linkclipref>msub200012-hjelp01023.MXF2</linkclipref>
						<mediatype>audio</mediatype>
						<trackindex>4</trackindex>
						<clipindex>27</clipindex>
					</link>
					<fielddominance>upper</fielddominance>
				</clipitem>
				<clipitem id="msub200012-hjelp02008.MXF3">
					<name>msub200012-hjelp02008.MXF</name>
					<duration>6396</duration>
					<rate>
						<ntsc>FALSE</ntsc>
						<timebase>25</timebase>
					</rate>
					<in>758</in>
					<out>900</out>
					<start>19039</start>
					<end>19181</end>
					<pixelaspectratio>Square</pixelaspectratio>
					<enabled>TRUE</enabled>
					<anamorphic>FALSE</anamorphic>
					<alphatype>none</alphatype>
					<masterclipid>msub200012-hjelp02008.MXF1</masterclipid>
					<logginginfo>
						<scene/>
						<shottake/>
						<lognote/>
						<good>FALSE</good>
					</logginginfo>
					<labels>
						<label2/>
					</labels>
					<comments>
						<mastercomment1/>
						<mastercomment2/>
						<mastercomment3/>
						<mastercomment4/>
					</comments>
					<file id="msub200012-hjelp02008 "/>
					<sourcetrack>
						<mediatype>video</mediatype>
					</sourcetrack>
					<link>
						<linkclipref>msub200012-hjelp02008.MXF3</linkclipref>
						<mediatype>video</mediatype>
						<trackindex>2</trackindex>
						<clipindex>21</clipindex>
					</link>
					<link>
						<linkclipref>msub200012-hjelp02008.MXF4</linkclipref>
						<mediatype>audio</mediatype>
						<trackindex>4</trackindex>
						<clipindex>29</clipindex>
					</link>
					<fielddominance>upper</fielddominance>
				</clipitem>
				<clipitem id="msub200012-hjelp02012.MXF3">
					<name>msub200012-hjelp02012.MXF</name>
					<duration>7404</duration>
					<rate>
						<ntsc>FALSE</ntsc>
						<timebase>25</timebase>
					</rate>
					<in>425</in>
					<out>626</out>
					<start>19181</start>
					<end>19382</end>
					<pixelaspectratio>Square</pixelaspectratio>
					<anamorphic>FALSE</anamorphic>
					<alphatype>none</alphatype>
					<masterclipid>msub200012-hjelp02012.MXF1</masterclipid>
					<logginginfo>
						<scene/>
						<shottake/>
						<lognote/>
						<good>FALSE</good>
					</logginginfo>
					<labels>
						<label2/>
					</labels>
					<comments>
						<mastercomment1/>
						<mastercomment2/>
						<mastercomment3/>
						<mastercomment4/>
					</comments>
					<file id="msub200012-hjelp02012 "/>
					<sourcetrack>
						<mediatype>video</mediatype>
					</sourcetrack>
					<link>
						<linkclipref>msub200012-hjelp02012.MXF3</linkclipref>
						<mediatype>video</mediatype>
						<trackindex>2</trackindex>
						<clipindex>22</clipindex>
					</link>
					<link>
						<linkclipref>msub200012-hjelp02012.MXF4</linkclipref>
						<mediatype>audio</mediatype>
						<trackindex>4</trackindex>
						<clipindex>31</clipindex>
					</link>
					<fielddominance>upper</fielddominance>
				</clipitem>
				<clipitem id="msub200012-hjelp01007.MXF3">
					<name>msub200012-hjelp01007.MXF</name>
					<duration>3660</duration>
					<rate>
						<ntsc>FALSE</ntsc>
						<timebase>25</timebase>
					</rate>
					<in>855</in>
					<out>913</out>
					<start>19382</start>
					<end>19440</end>
					<pixelaspectratio>Square</pixelaspectratio>
					<enabled>TRUE</enabled>
					<anamorphic>FALSE</anamorphic>
					<alphatype>none</alphatype>
					<masterclipid>msub200012-hjelp01007.MXF1</masterclipid>
					<logginginfo>
						<scene/>
						<shottake/>
						<lognote/>
						<good>FALSE</good>
					</logginginfo>
					<labels>
						<label2/>
					</labels>
					<comments>
						<mastercomment1/>
						<mastercomment2/>
						<mastercomment3/>
						<mastercomment4/>
					</comments>
					<file id="msub200012-hjelp01007 "/>
					<sourcetrack>
						<mediatype>video</mediatype>
					</sourcetrack>
					<link>
						<linkclipref>msub200012-hjelp01007.MXF3</linkclipref>
						<mediatype>video</mediatype>
						<trackindex>2</trackindex>
						<clipindex>23</clipindex>
					</link>
					<link>
						<linkclipref>msub200012-hjelp01007.MXF4</linkclipref>
						<mediatype>audio</mediatype>
						<trackindex>4</trackindex>
						<clipindex>33</clipindex>
					</link>
					<fielddominance>upper</fielddominance>
				</clipitem>
				<clipitem id="msub200012-hjelp02001.MXF">
					<name>msub200012-hjelp02001.MXF</name>
					<duration>2592</duration>
					<rate>
						<ntsc>FALSE</ntsc>
						<timebase>25</timebase>
					</rate>
					<in>352</in>
					<out>562</out>
					<start>19440</start>
					<end>19650</end>
					<pixelaspectratio>Square</pixelaspectratio>
					<enabled>TRUE</enabled>
					<anamorphic>FALSE</anamorphic>
					<alphatype>none</alphatype>
					<masterclipid>msub200012-hjelp02001.MXF1</masterclipid>
					<logginginfo>
						<scene/>
						<shottake/>
						<lognote/>
						<good>FALSE</good>
					</logginginfo>
					<labels>
						<label2/>
					</labels>
					<comments>
						<mastercomment1/>
						<mastercomment2/>
						<mastercomment3/>
						<mastercomment4/>
					</comments>
					<file id="msub200012-hjelp02001 ">
						<name>msub200012-hjelp02001.MXF</name>
						<pathurl>file://localhost/Volumes/Prosjekter_SuperSAN1-1/MSUB20000012%20FIN%20FREDAG/FCP-PROSJEKTER,%20sesong%202/Fredagshjelpen/msub200012-hjelp02001.MXF</pathurl>
						<rate>
							<timebase>25</timebase>
						</rate>
						<duration>2592</duration>
						<timecode>
							<rate>
								<timebase>25</timebase>
							</rate>
							<string>03:10:34:02</string>
							<frame>285852</frame>
							<displayformat>NDF</displayformat>
							<source>source</source>
						</timecode>
						<media>
							<video>
								<duration>2592</duration>
								<samplecharacteristics>
									<width>1920</width>
									<height>1080</height>
								</samplecharacteristics>
							</video>
							<audio>
								<rate>
									<timebase>48000</timebase>
								</rate>
								<trackcount>1</trackcount>
								<samplecharacteristics>
									<depth>24</depth>
								</samplecharacteristics>
							</audio>
						</media>
					</file>
					<sourcetrack>
						<mediatype>video</mediatype>
					</sourcetrack>
					<link>
						<linkclipref>msub200012-hjelp02001.MXF</linkclipref>
						<mediatype>video</mediatype>
						<trackindex>2</trackindex>
						<clipindex>24</clipindex>
					</link>
					<link>
						<linkclipref>msub200012-hjelp02001.MXF2</linkclipref>
						<mediatype>audio</mediatype>
						<trackindex>4</trackindex>
						<clipindex>35</clipindex>
					</link>
					<fielddominance>upper</fielddominance>
				</clipitem>
				<clipitem id="msub200012-hjelp02016.MXF">
					<name>msub200012-hjelp02016.MXF</name>
					<duration>4080</duration>
					<rate>
						<ntsc>FALSE</ntsc>
						<timebase>25</timebase>
					</rate>
					<in>3151</in>
					<out>3223</out>
					<start>19650</start>
					<end>19722</end>
					<pixelaspectratio>Square</pixelaspectratio>
					<anamorphic>FALSE</anamorphic>
					<alphatype>none</alphatype>
					<masterclipid>msub200012-hjelp02016.MXF1</masterclipid>
					<logginginfo>
						<scene/>
						<shottake/>
						<lognote/>
						<good>FALSE</good>
					</logginginfo>
					<labels>
						<label2/>
					</labels>
					<comments>
						<mastercomment1/>
						<mastercomment2/>
						<mastercomment3/>
						<mastercomment4/>
					</comments>
					<file id="msub200012-hjelp02016 ">
						<name>msub200012-hjelp02016.MXF</name>
						<pathurl>file://localhost/Volumes/Prosjekter_SuperSAN1-1/MSUB20000012%20FIN%20FREDAG/FCP-PROSJEKTER,%20sesong%202/Fredagshjelpen/msub200012-hjelp02016.MXF</pathurl>
						<rate>
							<timebase>25</timebase>
						</rate>
						<duration>4080</duration>
						<timecode>
							<rate>
								<timebase>25</timebase>
							</rate>
							<string>04:06:13:23</string>
							<frame>369348</frame>
							<displayformat>NDF</displayformat>
							<source>source</source>
						</timecode>
						<media>
							<video>
								<duration>4080</duration>
								<samplecharacteristics>
									<width>1920</width>
									<height>1080</height>
								</samplecharacteristics>
							</video>
							<audio>
								<rate>
									<timebase>48000</timebase>
								</rate>
								<trackcount>1</trackcount>
								<samplecharacteristics>
									<depth>24</depth>
								</samplecharacteristics>
							</audio>
						</media>
					</file>
					<sourcetrack>
						<mediatype>video</mediatype>
					</sourcetrack>
					<link>
						<linkclipref>msub200012-hjelp02016.MXF</linkclipref>
						<mediatype>video</mediatype>
						<trackindex>2</trackindex>
						<clipindex>25</clipindex>
					</link>
					<link>
						<linkclipref>msub200012-hjelp02016.MXF2</linkclipref>
						<mediatype>audio</mediatype>
						<trackindex>4</trackindex>
						<clipindex>37</clipindex>
					</link>
					<fielddominance>upper</fielddominance>
				</clipitem>
				<clipitem id="msub200012-hjelp02012.MXF5">
					<name>msub200012-hjelp02012.MXF</name>
					<duration>7404</duration>
					<rate>
						<ntsc>FALSE</ntsc>
						<timebase>25</timebase>
					</rate>
					<in>717</in>
					<out>948</out>
					<start>19722</start>
					<end>19953</end>
					<pixelaspectratio>Square</pixelaspectratio>
					<enabled>TRUE</enabled>
					<anamorphic>FALSE</anamorphic>
					<alphatype>none</alphatype>
					<masterclipid>msub200012-hjelp02012.MXF1</masterclipid>
					<logginginfo>
						<scene/>
						<shottake/>
						<lognote/>
						<good>FALSE</good>
					</logginginfo>
					<labels>
						<label2/>
					</labels>
					<comments>
						<mastercomment1/>
						<mastercomment2/>
						<mastercomment3/>
						<mastercomment4/>
					</comments>
					<file id="msub200012-hjelp02012 "/>
					<sourcetrack>
						<mediatype>video</mediatype>
					</sourcetrack>
					<link>
						<linkclipref>msub200012-hjelp02012.MXF5</linkclipref>
						<mediatype>video</mediatype>
						<trackindex>2</trackindex>
						<clipindex>26</clipindex>
					</link>
					<link>
						<linkclipref>msub200012-hjelp02012.MXF6</linkclipref>
						<mediatype>audio</mediatype>
						<trackindex>4</trackindex>
						<clipindex>39</clipindex>
					</link>
					<fielddominance>upper</fielddominance>
				</clipitem>
				<clipitem id="msub200012-hjelp01031.MXF">
					<name>msub200012-hjelp01031.MXF</name>
					<duration>1872</duration>
					<rate>
						<ntsc>FALSE</ntsc>
						<timebase>25</timebase>
					</rate>
					<in>1418</in>
					<out>1522</out>
					<start>19953</start>
					<end>20057</end>
					<pixelaspectratio>Square</pixelaspectratio>
					<enabled>TRUE</enabled>
					<anamorphic>FALSE</anamorphic>
					<alphatype>none</alphatype>
					<masterclipid>msub200012-hjelp01031.MXF1</masterclipid>
					<logginginfo>
						<scene/>
						<shottake/>
						<lognote/>
						<good>FALSE</good>
					</logginginfo>
					<labels>
						<label2/>
					</labels>
					<comments>
						<mastercomment1/>
						<mastercomment2/>
						<mastercomment3/>
						<mastercomment4/>
					</comments>
					<file id="msub200012-hjelp01031 ">
						<name>msub200012-hjelp01031.MXF</name>
						<pathurl>file://localhost/Volumes/Prosjekter_SuperSAN1-1/MSUB20000012%20FIN%20FREDAG/FCP-PROSJEKTER,%20sesong%202/Fredagshjelpen/msub200012-hjelp01031.MXF</pathurl>
						<rate>
							<timebase>25</timebase>
						</rate>
						<duration>1872</duration>
						<timecode>
							<rate>
								<timebase>25</timebase>
							</rate>
							<string>03:09:19:05</string>
							<frame>283980</frame>
							<displayformat>NDF</displayformat>
							<source>source</source>
						</timecode>
						<media>
							<video>
								<duration>1872</duration>
								<samplecharacteristics>
									<width>1920</width>
									<height>1080</height>
								</samplecharacteristics>
							</video>
							<audio>
								<rate>
									<timebase>48000</timebase>
								</rate>
								<trackcount>1</trackcount>
								<samplecharacteristics>
									<depth>24</depth>
								</samplecharacteristics>
							</audio>
						</media>
					</file>
					<sourcetrack>
						<mediatype>video</mediatype>
					</sourcetrack>
					<link>
						<linkclipref>msub200012-hjelp01031.MXF</linkclipref>
						<mediatype>video</mediatype>
						<trackindex>2</trackindex>
						<clipindex>27</clipindex>
					</link>
					<link>
						<linkclipref>msub200012-hjelp01031.MXF2</linkclipref>
						<mediatype>audio</mediatype>
						<trackindex>4</trackindex>
						<clipindex>41</clipindex>
					</link>
					<fielddominance>upper</fielddominance>
				</clipitem>
				<clipitem id="msub200012-hjelp02007.MXF">
					<name>msub200012-hjelp02007.MXF</name>
					<duration>16680</duration>
					<rate>
						<ntsc>FALSE</ntsc>
						<timebase>25</timebase>
					</rate>
					<in>1914</in>
					<out>2260</out>
					<start>20057</start>
					<end>20403</end>
					<pixelaspectratio>Square</pixelaspectratio>
					<enabled>TRUE</enabled>
					<anamorphic>FALSE</anamorphic>
					<alphatype>none</alphatype>
					<masterclipid>msub200012-hjelp02007.MXF1</masterclipid>
					<logginginfo>
						<scene/>
						<shottake/>
						<lognote/>
						<good>FALSE</good>
					</logginginfo>
					<labels>
						<label2/>
					</labels>
					<comments>
						<mastercomment1/>
						<mastercomment2/>
						<mastercomment3/>
						<mastercomment4/>
					</comments>
					<file id="msub200012-hjelp02007 ">
						<name>msub200012-hjelp02007.MXF</name>
						<pathurl>file://localhost/Volumes/Prosjekter_SuperSAN1-1/MSUB20000012%20FIN%20FREDAG/FCP-PROSJEKTER,%20sesong%202/Fredagshjelpen/msub200012-hjelp02007.MXF</pathurl>
						<rate>
							<timebase>25</timebase>
						</rate>
						<duration>16680</duration>
						<timecode>
							<rate>
								<timebase>25</timebase>
							</rate>
							<string>03:31:42:18</string>
							<frame>317568</frame>
							<displayformat>NDF</displayformat>
							<source>source</source>
						</timecode>
						<media>
							<video>
								<duration>16680</duration>
								<samplecharacteristics>
									<width>1920</width>
									<height>1080</height>
								</samplecharacteristics>
							</video>
							<audio>
								<rate>
									<timebase>48000</timebase>
								</rate>
								<trackcount>1</trackcount>
								<samplecharacteristics>
									<depth>24</depth>
								</samplecharacteristics>
							</audio>
						</media>
					</file>
					<sourcetrack>
						<mediatype>video</mediatype>
					</sourcetrack>
					<link>
						<linkclipref>msub200012-hjelp02007.MXF</linkclipref>
						<mediatype>video</mediatype>
						<trackindex>2</trackindex>
						<clipindex>28</clipindex>
					</link>
					<link>
						<linkclipref>msub200012-hjelp02007.MXF2</linkclipref>
						<mediatype>audio</mediatype>
						<trackindex>4</trackindex>
						<clipindex>43</clipindex>
					</link>
					<fielddominance>upper</fielddominance>
				</clipitem>
				<clipitem id="msub200012-hjelp01007.MXF5">
					<name>msub200012-hjelp01007.MXF</name>
					<duration>3660</duration>
					<rate>
						<ntsc>FALSE</ntsc>
						<timebase>25</timebase>
					</rate>
					<in>2512</in>
					<out>2988</out>
					<start>20403</start>
					<end>20879</end>
					<pixelaspectratio>Square</pixelaspectratio>
					<enabled>TRUE</enabled>
					<anamorphic>FALSE</anamorphic>
					<alphatype>none</alphatype>
					<masterclipid>msub200012-hjelp01007.MXF1</masterclipid>
					<logginginfo>
						<scene/>
						<shottake/>
						<lognote/>
						<good>FALSE</good>
					</logginginfo>
					<labels>
						<label2/>
					</labels>
					<comments>
						<mastercomment1/>
						<mastercomment2/>
						<mastercomment3/>
						<mastercomment4/>
					</comments>
					<file id="msub200012-hjelp01007 "/>
					<sourcetrack>
						<mediatype>video</mediatype>
					</sourcetrack>
					<link>
						<linkclipref>msub200012-hjelp01007.MXF5</linkclipref>
						<mediatype>video</mediatype>
						<trackindex>2</trackindex>
						<clipindex>29</clipindex>
					</link>
					<link>
						<linkclipref>msub200012-hjelp01007.MXF6</linkclipref>
						<mediatype>audio</mediatype>
						<trackindex>4</trackindex>
						<clipindex>45</clipindex>
					</link>
					<fielddominance>upper</fielddominance>
				</clipitem>
				<clipitem id="msub200012-hjelp02007.MXF3">
					<name>msub200012-hjelp02007.MXF</name>
					<duration>16680</duration>
					<rate>
						<ntsc>FALSE</ntsc>
						<timebase>25</timebase>
					</rate>
					<in>1380</in>
					<out>1498</out>
					<start>20879</start>
					<end>20997</end>
					<pixelaspectratio>Square</pixelaspectratio>
					<enabled>TRUE</enabled>
					<anamorphic>FALSE</anamorphic>
					<alphatype>none</alphatype>
					<masterclipid>msub200012-hjelp02007.MXF1</masterclipid>
					<logginginfo>
						<scene/>
						<shottake/>
						<lognote/>
						<good>FALSE</good>
					</logginginfo>
					<labels>
						<label2/>
					</labels>
					<comments>
						<mastercomment1/>
						<mastercomment2/>
						<mastercomment3/>
						<mastercomment4/>
					</comments>
					<file id="msub200012-hjelp02007 "/>
					<sourcetrack>
						<mediatype>video</mediatype>
					</sourcetrack>
					<link>
						<linkclipref>msub200012-hjelp02007.MXF3</linkclipref>
						<mediatype>video</mediatype>
						<trackindex>2</trackindex>
						<clipindex>30</clipindex>
					</link>
					<link>
						<linkclipref>msub200012-hjelp02007.MXF4</linkclipref>
						<mediatype>audio</mediatype>
						<trackindex>4</trackindex>
						<clipindex>47</clipindex>
					</link>
					<fielddominance>upper</fielddominance>
				</clipitem>
				<clipitem id="msub200012-hjelp01007.MXF7">
					<name>msub200012-hjelp01007.MXF</name>
					<duration>3660</duration>
					<rate>
						<ntsc>FALSE</ntsc>
						<timebase>25</timebase>
					</rate>
					<in>3205</in>
					<out>3400</out>
					<start>20997</start>
					<end>21192</end>
					<pixelaspectratio>Square</pixelaspectratio>
					<enabled>TRUE</enabled>
					<anamorphic>FALSE</anamorphic>
					<alphatype>none</alphatype>
					<masterclipid>msub200012-hjelp01007.MXF1</masterclipid>
					<logginginfo>
						<scene/>
						<shottake/>
						<lognote/>
						<good>FALSE</good>
					</logginginfo>
					<labels>
						<label2/>
					</labels>
					<comments>
						<mastercomment1/>
						<mastercomment2/>
						<mastercomment3/>
						<mastercomment4/>
					</comments>
					<file id="msub200012-hjelp01007 "/>
					<sourcetrack>
						<mediatype>video</mediatype>
					</sourcetrack>
					<link>
						<linkclipref>msub200012-hjelp01007.MXF7</linkclipref>
						<mediatype>video</mediatype>
						<trackindex>2</trackindex>
						<clipindex>31</clipindex>
					</link>
					<link>
						<linkclipref>msub200012-hjelp01007.MXF8</linkclipref>
						<mediatype>audio</mediatype>
						<trackindex>4</trackindex>
						<clipindex>49</clipindex>
					</link>
					<fielddominance>upper</fielddominance>
				</clipitem>
				<clipitem id="FB100601.MXF">
					<name>FB100601.MXF</name>
					<duration>696</duration>
					<rate>
						<ntsc>FALSE</ntsc>
						<timebase>25</timebase>
					</rate>
					<in>280</in>
					<out>627</out>
					<start>21192</start>
					<end>-1</end>
					<pixelaspectratio>Square</pixelaspectratio>
					<enabled>TRUE</enabled>
					<anamorphic>FALSE</anamorphic>
					<alphatype>none</alphatype>
					<masterclipid>FB100601.MXF1</masterclipid>
					<logginginfo>
						<scene/>
						<shottake/>
						<lognote/>
						<good>FALSE</good>
					</logginginfo>
					<labels>
						<label2/>
					</labels>
					<comments>
						<mastercomment1/>
						<mastercomment2/>
						<mastercomment3/>
						<mastercomment4/>
					</comments>
					<file id="FB100601 ">
						<name>FB100601.MXF</name>
						<pathurl>file://localhost/Volumes/Prosjekter_SuperSAN1-1/MSUB20000012%20FIN%20FREDAG/FCP-PROSJEKTER,%20sesong%202/Fredagshjelpen/FB100601.MXF</pathurl>
						<rate>
							<timebase>25</timebase>
						</rate>
						<duration>696</duration>
						<timecode>
							<rate>
								<timebase>25</timebase>
							</rate>
							<string>04:37:31:05</string>
							<frame>416280</frame>
							<displayformat>NDF</displayformat>
							<source>source</source>
						</timecode>
						<media>
							<video>
								<duration>696</duration>
								<samplecharacteristics>
									<width>1920</width>
									<height>1080</height>
								</samplecharacteristics>
							</video>
							<audio>
								<rate>
									<timebase>48000</timebase>
								</rate>
								<trackcount>1</trackcount>
								<samplecharacteristics>
									<depth>16</depth>
								</samplecharacteristics>
							</audio>
						</media>
					</file>
					<sourcetrack>
						<mediatype>video</mediatype>
					</sourcetrack>
					<link>
						<linkclipref>FB100601.MXF</linkclipref>
						<mediatype>video</mediatype>
						<trackindex>2</trackindex>
						<clipindex>32</clipindex>
					</link>
					<link>
						<linkclipref>FB100601.MXF2</linkclipref>
						<mediatype>audio</mediatype>
						<trackindex>4</trackindex>
						<clipindex>50</clipindex>
					</link>
					<fielddominance>upper</fielddominance>
				</clipitem>
				<transitionitem id="920177352 ">
					<rate>
						<ntsc>FALSE</ntsc>
						<timebase>25</timebase>
					</rate>
					<start>21527</start>
					<end>21539</end>
					<alignment>center</alignment>
					<effect>
						<name>Push Slide</name>
						<effectid>Push Slide</effectid>
						<effectcategory>Slide</effectcategory>
						<effecttype>transition</effecttype>
						<mediatype>video</mediatype>
						<wipecode>1</wipecode>
						<wipeaccuracy>100</wipeaccuracy>
						<startratio>0</startratio>
						<endratio>1</endratio>
						<reverse>FALSE</reverse>
						<parameter>
							<parameterid>angleofpush</parameterid>
							<name>Angle</name>
							<valuemin>-360</valuemin>
							<valuemax>360</valuemax>
							<value>90</value>
						</parameter>
						<parameter>
							<parameterid>borderwidth</parameterid>
							<name>Border</name>
							<valuemin>0</valuemin>
							<valuemax>10</valuemax>
							<value>0</value>
						</parameter>
						<parameter>
							<parameterid>bordercolor</parameterid>
							<name>Color</name>
							<value>
								<alpha>255</alpha>
								<red>0</red>
								<green>0</green>
								<blue>0</blue>
							</value>
						</parameter>
					</effect>
				</transitionitem>
				<clipitem id="msub200012-2308-k1d2004.mxf">
					<name>msub200012-2308-k1d2004.mxf</name>
					<duration>345</duration>
					<rate>
						<ntsc>FALSE</ntsc>
						<timebase>25</timebase>
					</rate>
					<in>126</in>
					<out>192</out>
					<start>24611</start>
					<end>24677</end>
					<pixelaspectratio>Square</pixelaspectratio>
					<enabled>TRUE</enabled>
					<anamorphic>FALSE</anamorphic>
					<alphatype>none</alphatype>
					<masterclipid>msub200012-2308-k1d2004.mxf1</masterclipid>
					<logginginfo>
						<scene/>
						<shottake/>
						<lognote/>
						<good>FALSE</good>
					</logginginfo>
					<labels>
						<label2/>
					</labels>
					<comments>
						<mastercomment1/>
						<mastercomment2/>
						<mastercomment3/>
						<mastercomment4/>
					</comments>
					<file id="msub200012-2308-k1d2004 ">
						<name>msub200012-2308-k1d2004.mxf</name>
						<pathurl>file://localhost/omfs/clip.dir/MXF/1080i/msub200012-2308-k1d2004.mxf</pathurl>
						<rate>
							<timebase>25</timebase>
						</rate>
						<duration>345</duration>
						<timecode>
							<rate>
								<timebase>25</timebase>
							</rate>
							<string>06:30:34:05</string>
							<frame>585855</frame>
							<displayformat>NDF</displayformat>
							<source>source</source>
						</timecode>
						<media>
							<video>
								<duration>345</duration>
								<samplecharacteristics>
									<width>1920</width>
									<height>1080</height>
								</samplecharacteristics>
							</video>
							<audio>
								<rate>
									<timebase>48000</timebase>
								</rate>
								<trackcount>1</trackcount>
								<samplecharacteristics>
									<depth>24</depth>
								</samplecharacteristics>
							</audio>
						</media>
					</file>
					<sourcetrack>
						<mediatype>video</mediatype>
					</sourcetrack>
					<fielddominance>upper</fielddominance>
				</clipitem>
				<clipitem id="msub200012-2408-k1d2-012 ">
					<name>msub200012-2408-k1d2-012</name>
					<duration>1623</duration>
					<rate>
						<ntsc>FALSE</ntsc>
						<timebase>25</timebase>
					</rate>
					<in>867</in>
					<out>1103</out>
					<start>25670</start>
					<end>25906</end>
					<pixelaspectratio>Square</pixelaspectratio>
					<enabled>TRUE</enabled>
					<anamorphic>FALSE</anamorphic>
					<alphatype>none</alphatype>
					<masterclipid>msub200012-2408-k1d2-012 1</masterclipid>
					<logginginfo>
						<description>msub200012-2408-k1d2-012</description>
						<scene/>
						<shottake/>
						<lognote/>
						<good>FALSE</good>
					</logginginfo>
					<labels>
						<label2/>
					</labels>
					<comments>
						<mastercomment1>RÃ…STOFF. BR_FINFREDAG_MSUA_OPRO</mastercomment1>
						<mastercomment2/>
						<mastercomment3/>
						<mastercomment4/>
					</comments>
					<file id="msub200012-2408-k1d2-012 2">
						<name>msub200012-2408-k1d2-012.mxf</name>
						<pathurl>file://localhost/omfs/clip.dir/MXF/1080i/msub200012-2408-k1d2-012.mxf</pathurl>
						<rate>
							<timebase>25</timebase>
						</rate>
						<duration>1623</duration>
						<timecode>
							<rate>
								<timebase>25</timebase>
							</rate>
							<string>08:20:35:09</string>
							<frame>750884</frame>
							<displayformat>NDF</displayformat>
							<source>source</source>
						</timecode>
						<media>
							<video>
								<duration>1623</duration>
								<samplecharacteristics>
									<width>1920</width>
									<height>1080</height>
								</samplecharacteristics>
							</video>
							<audio>
								<rate>
									<timebase>48000</timebase>
								</rate>
								<trackcount>1</trackcount>
								<samplecharacteristics>
									<depth>24</depth>
								</samplecharacteristics>
							</audio>
						</media>
					</file>
					<sourcetrack>
						<mediatype>video</mediatype>
					</sourcetrack>
					<link>
						<linkclipref>msub200012-2408-k1d2-012 </linkclipref>
						<mediatype>video</mediatype>
						<trackindex>2</trackindex>
						<clipindex>35</clipindex>
					</link>
					<link>
						<linkclipref>msub200012-2408-k1d2-012 3</linkclipref>
						<mediatype>audio</mediatype>
						<trackindex>1</trackindex>
						<clipindex>100</clipindex>
					</link>
					<link>
						<linkclipref>msub200012-2408-k1d2-012 4</linkclipref>
						<mediatype>audio</mediatype>
						<trackindex>2</trackindex>
						<clipindex>107</clipindex>
					</link>
					<fielddominance>upper</fielddominance>
				</clipitem>
				<transitionitem id="12">
					<rate>
						<ntsc>FALSE</ntsc>
						<timebase>25</timebase>
					</rate>
					<start>28326</start>
					<end>28338</end>
					<alignment>center</alignment>
					<effect>
						<name>Push Slide</name>
						<effectid>Push Slide</effectid>
						<effectcategory>Slide</effectcategory>
						<effecttype>transition</effecttype>
						<mediatype>video</mediatype>
						<wipecode>1</wipecode>
						<wipeaccuracy>100</wipeaccuracy>
						<startratio>0</startratio>
						<endratio>1</endratio>
						<reverse>FALSE</reverse>
						<parameter>
							<parameterid>angleofpush</parameterid>
							<name>Angle</name>
							<valuemin>-360</valuemin>
							<valuemax>360</valuemax>
							<value>270</value>
						</parameter>
						<parameter>
							<parameterid>borderwidth</parameterid>
							<name>Border</name>
							<valuemin>0</valuemin>
							<valuemax>10</valuemax>
							<value>0</value>
						</parameter>
						<parameter>
							<parameterid>bordercolor</parameterid>
							<name>Color</name>
							<value>
								<alpha>255</alpha>
								<red>0</red>
								<green>0</green>
								<blue>0</blue>
							</value>
						</parameter>
					</effect>
				</transitionitem>
				<clipitem id="msub200012-2211058 ">
					<name>msub200012-2211058</name>
					<duration>1644</duration>
					<rate>
						<ntsc>FALSE</ntsc>
						<timebase>25</timebase>
					</rate>
					<in>1137</in>
					<out>1190</out>
					<start>-1</start>
					<end>28379</end>
					<pixelaspectratio>Square</pixelaspectratio>
					<enabled>TRUE</enabled>
					<anamorphic>FALSE</anamorphic>
					<alphatype>none</alphatype>
					<masterclipid>msub200012-2211058 1</masterclipid>
					<logginginfo>
						<description>msub200012-2211058</description>
						<scene/>
						<shottake/>
						<lognote/>
						<good>FALSE</good>
					</logginginfo>
					<labels>
						<label2/>
					</labels>
					<comments>
						<mastercomment1>BARN OG UNGDOM. BR_FINFREDAG_MSUA_OPRO</mastercomment1>
						<mastercomment2/>
						<mastercomment3/>
						<mastercomment4/>
						<clipcommenta/>
					</comments>
					<file id="msub200012-2211058 2">
						<name>msub200012-2211058.MXF</name>
						<pathurl>file://localhost/omfs/clip.dir/MXF/1080i/msub200012-2211058.MXF</pathurl>
						<rate>
							<timebase>25</timebase>
						</rate>
						<duration>1644</duration>
						<timecode>
							<rate>
								<timebase>25</timebase>
							</rate>
							<string>01:29:41:07</string>
							<frame>134532</frame>
							<displayformat>NDF</displayformat>
							<source>source</source>
						</timecode>
						<media>
							<video>
								<duration>1644</duration>
								<samplecharacteristics>
									<width>1920</width>
									<height>1080</height>
								</samplecharacteristics>
							</video>
							<audio>
								<rate>
									<timebase>48000</timebase>
								</rate>
								<trackcount>1</trackcount>
								<samplecharacteristics>
									<depth>24</depth>
								</samplecharacteristics>
							</audio>
						</media>
					</file>
					<sourcetrack>
						<mediatype>video</mediatype>
					</sourcetrack>
					<link>
						<linkclipref>msub200012-2211058 </linkclipref>
						<mediatype>video</mediatype>
						<trackindex>2</trackindex>
						<clipindex>37</clipindex>
					</link>
					<link>
						<linkclipref>msub200012-2211058 3</linkclipref>
						<mediatype>audio</mediatype>
						<trackindex>3</trackindex>
						<clipindex>30</clipindex>
					</link>
					<fielddominance>upper</fielddominance>
				</clipitem>
				<clipitem id="msub200012-2211058 4">
					<name>msub200012-2211058</name>
					<duration>1644</duration>
					<rate>
						<ntsc>FALSE</ntsc>
						<timebase>25</timebase>
					</rate>
					<in>1389</in>
					<out>1420</out>
					<start>28379</start>
					<end>28410</end>
					<pixelaspectratio>Square</pixelaspectratio>
					<enabled>TRUE</enabled>
					<anamorphic>FALSE</anamorphic>
					<alphatype>none</alphatype>
					<masterclipid>msub200012-2211058 1</masterclipid>
					<logginginfo>
						<description>msub200012-2211058</description>
						<scene/>
						<shottake/>
						<lognote/>
						<good>FALSE</good>
					</logginginfo>
					<labels>
						<label2/>
					</labels>
					<comments>
						<mastercomment1>BARN OG UNGDOM. BR_FINFREDAG_MSUA_OPRO</mastercomment1>
						<mastercomment2/>
						<mastercomment3/>
						<mastercomment4/>
						<clipcommenta/>
					</comments>
					<file id="msub200012-2211058 2"/>
					<sourcetrack>
						<mediatype>video</mediatype>
					</sourcetrack>
					<fielddominance>upper</fielddominance>
				</clipitem>
				<clipitem id="msub200012-2211059 ">
					<name>msub200012-2211059</name>
					<duration>603</duration>
					<rate>
						<ntsc>FALSE</ntsc>
						<timebase>25</timebase>
					</rate>
					<in>440</in>
					<out>450</out>
					<start>28410</start>
					<end>28420</end>
					<pixelaspectratio>Square</pixelaspectratio>
					<enabled>TRUE</enabled>
					<anamorphic>FALSE</anamorphic>
					<alphatype>none</alphatype>
					<masterclipid>msub200012-2211059 1</masterclipid>
					<logginginfo>
						<description>msub200012-2211059</description>
						<scene/>
						<shottake/>
						<lognote/>
						<good>FALSE</good>
					</logginginfo>
					<labels>
						<label2/>
					</labels>
					<comments>
						<mastercomment1>BARN OG UNGDOM. BR_FINFREDAG_MSUA_OPRO</mastercomment1>
						<mastercomment2/>
						<mastercomment3/>
						<mastercomment4/>
						<clipcommenta/>
					</comments>
					<file id="msub200012-2211059 2">
						<name>msub200012-2211059.MXF</name>
						<pathurl>file://localhost/omfs/clip.dir/MXF/1080i/msub200012-2211059.MXF</pathurl>
						<rate>
							<timebase>25</timebase>
						</rate>
						<duration>1272</duration>
						<timecode>
							<rate>
								<timebase>25</timebase>
							</rate>
							<string>01:30:47:01</string>
							<frame>136176</frame>
							<displayformat>NDF</displayformat>
							<source>source</source>
						</timecode>
						<media>
							<video>
								<duration>1272</duration>
								<samplecharacteristics>
									<width>1920</width>
									<height>1080</height>
								</samplecharacteristics>
							</video>
							<audio>
								<rate>
									<timebase>48000</timebase>
								</rate>
								<trackcount>1</trackcount>
								<samplecharacteristics>
									<depth>24</depth>
								</samplecharacteristics>
							</audio>
						</media>
					</file>
					<sourcetrack>
						<mediatype>video</mediatype>
					</sourcetrack>
					<fielddominance>upper</fielddominance>
					<filter>
						<effect>
							<name>Time Remap</name>
							<effectid>timeremap</effectid>
							<effectcategory>motion</effectcategory>
							<effecttype>motion</effecttype>
							<mediatype>video</mediatype>
							<parameter>
								<parameterid>variablespeed</parameterid>
								<name>variablespeed</name>
								<valuemin>0</valuemin>
								<valuemax>1</valuemax>
								<value>0</value>
							</parameter>
							<parameter>
								<parameterid>mappedduration</parameterid>
								<name>mappedduration</name>
								<value>
									<timecode>
										<rate>
											<timebase>0</timebase>
										</rate>
										<string>0</string>
										<frame>0</frame>
										<displayformat>NDF</displayformat>
									</timecode>
								</value>
							</parameter>
							<parameter>
								<parameterid>speed</parameterid>
								<name>speed</name>
								<valuemin>-10000</valuemin>
								<valuemax>10000</valuemax>
								<value>211</value>
							</parameter>
							<parameter>
								<parameterid>reverse</parameterid>
								<name>reverse</name>
								<value>FALSE</value>
							</parameter>
							<parameter>
								<parameterid>frameblending</parameterid>
								<name>frameblending</name>
								<value>TRUE</value>
							</parameter>
							<parameter>
								<parameterid>graphdict</parameterid>
								<name>graphdict</name>
								<valuemin>0</valuemin>
								<valuemax>1271</valuemax>
								<keyframe>
									<when>0</when>
									<value>1.0298</value>
									<speedkfstart>TRUE</speedkfstart>
									<speedvirtualkf>TRUE</speedvirtualkf>
								</keyframe>
								<keyframe>
									<when>440</when>
									<value>930</value>
									<speedkfin>TRUE</speedkfin>
									<speedvirtualkf>TRUE</speedvirtualkf>
								</keyframe>
								<keyframe>
									<when>450</when>
									<value>951.113</value>
									<speedkfout>TRUE</speedkfout>
									<speedvirtualkf>TRUE</speedvirtualkf>
								</keyframe>
								<keyframe>
									<when>603</when>
									<value>1273.03</value>
									<speedkfend>TRUE</speedkfend>
									<speedvirtualkf>TRUE</speedvirtualkf>
								</keyframe>
								<interpolation>
									<name>FCPCurve</name>
								</interpolation>
								<value>930</value>
							</parameter>
						</effect>
					</filter>
				</clipitem>
				<clipitem id="msub200012-2211059 3">
					<name>msub200012-2211059</name>
					<duration>1272</duration>
					<rate>
						<ntsc>FALSE</ntsc>
						<timebase>25</timebase>
					</rate>
					<in>950</in>
					<out>990</out>
					<start>28420</start>
					<end>28460</end>
					<pixelaspectratio>Square</pixelaspectratio>
					<enabled>TRUE</enabled>
					<anamorphic>FALSE</anamorphic>
					<alphatype>none</alphatype>
					<masterclipid>msub200012-2211059 1</masterclipid>
					<logginginfo>
						<description>msub200012-2211059</description>
						<scene/>
						<shottake/>
						<lognote/>
						<good>FALSE</good>
					</logginginfo>
					<labels>
						<label2/>
					</labels>
					<comments>
						<mastercomment1>BARN OG UNGDOM. BR_FINFREDAG_MSUA_OPRO</mastercomment1>
						<mastercomment2/>
						<mastercomment3/>
						<mastercomment4/>
						<clipcommenta/>
					</comments>
					<file id="msub200012-2211059 2"/>
					<sourcetrack>
						<mediatype>video</mediatype>
					</sourcetrack>
					<fielddominance>upper</fielddominance>
				</clipitem>
				<clipitem id="msub200012-2211059 4">
					<name>msub200012-2211059</name>
					<duration>611</duration>
					<rate>
						<ntsc>FALSE</ntsc>
						<timebase>25</timebase>
					</rate>
					<in>475</in>
					<out>488</out>
					<start>28460</start>
					<end>28473</end>
					<pixelaspectratio>Square</pixelaspectratio>
					<enabled>TRUE</enabled>
					<anamorphic>FALSE</anamorphic>
					<alphatype>none</alphatype>
					<masterclipid>msub200012-2211059 1</masterclipid>
					<logginginfo>
						<description>msub200012-2211059</description>
						<scene/>
						<shottake/>
						<lognote/>
						<good>FALSE</good>
					</logginginfo>
					<labels>
						<label2/>
					</labels>
					<comments>
						<mastercomment1>BARN OG UNGDOM. BR_FINFREDAG_MSUA_OPRO</mastercomment1>
						<mastercomment2/>
						<mastercomment3/>
						<mastercomment4/>
						<clipcommenta/>
					</comments>
					<file id="msub200012-2211059 2"/>
					<sourcetrack>
						<mediatype>video</mediatype>
					</sourcetrack>
					<fielddominance>upper</fielddominance>
					<filter>
						<effect>
							<name>Time Remap</name>
							<effectid>timeremap</effectid>
							<effectcategory>motion</effectcategory>
							<effecttype>motion</effecttype>
							<mediatype>video</mediatype>
							<parameter>
								<parameterid>variablespeed</parameterid>
								<name>variablespeed</name>
								<valuemin>0</valuemin>
								<valuemax>1</valuemax>
								<value>0</value>
							</parameter>
							<parameter>
								<parameterid>mappedduration</parameterid>
								<name>mappedduration</name>
								<value>
									<timecode>
										<rate>
											<timebase>0</timebase>
										</rate>
										<string>0</string>
										<frame>0</frame>
										<displayformat>NDF</displayformat>
									</timecode>
								</value>
							</parameter>
							<parameter>
								<parameterid>speed</parameterid>
								<name>speed</name>
								<valuemin>-10000</valuemin>
								<valuemax>10000</valuemax>
								<value>208</value>
							</parameter>
							<parameter>
								<parameterid>reverse</parameterid>
								<name>reverse</name>
								<value>FALSE</value>
							</parameter>
							<parameter>
								<parameterid>frameblending</parameterid>
								<name>frameblending</name>
								<value>TRUE</value>
							</parameter>
							<parameter>
								<parameterid>graphdict</parameterid>
								<name>graphdict</name>
								<valuemin>0</valuemin>
								<valuemax>1271</valuemax>
								<keyframe>
									<when>0</when>
									<value>0.2869</value>
									<speedkfstart>TRUE</speedkfstart>
									<speedvirtualkf>TRUE</speedvirtualkf>
								</keyframe>
								<keyframe>
									<when>475</when>
									<value>990</value>
									<speedkfin>TRUE</speedkfin>
									<speedvirtualkf>TRUE</speedvirtualkf>
								</keyframe>
								<keyframe>
									<when>488</when>
									<value>1017.09</value>
									<speedkfout>TRUE</speedkfout>
									<speedvirtualkf>TRUE</speedvirtualkf>
								</keyframe>
								<keyframe>
									<when>611</when>
									<value>1272.29</value>
									<speedkfend>TRUE</speedkfend>
									<speedvirtualkf>TRUE</speedvirtualkf>
								</keyframe>
								<interpolation>
									<name>FCPCurve</name>
								</interpolation>
								<value>990</value>
							</parameter>
						</effect>
					</filter>
				</clipitem>
				<clipitem id="msub200012-2211059 5">
					<name>msub200012-2211059</name>
					<duration>1272</duration>
					<rate>
						<ntsc>FALSE</ntsc>
						<timebase>25</timebase>
					</rate>
					<in>1016</in>
					<out>1028</out>
					<start>28473</start>
					<end>28485</end>
					<pixelaspectratio>Square</pixelaspectratio>
					<enabled>TRUE</enabled>
					<anamorphic>FALSE</anamorphic>
					<alphatype>none</alphatype>
					<masterclipid>msub200012-2211059 1</masterclipid>
					<logginginfo>
						<description>msub200012-2211059</description>
						<scene/>
						<shottake/>
						<lognote/>
						<good>FALSE</good>
					</logginginfo>
					<labels>
						<label2/>
					</labels>
					<comments>
						<mastercomment1>BARN OG UNGDOM. BR_FINFREDAG_MSUA_OPRO</mastercomment1>
						<mastercomment2/>
						<mastercomment3/>
						<mastercomment4/>
						<clipcommenta/>
					</comments>
					<file id="msub200012-2211059 2"/>
					<sourcetrack>
						<mediatype>video</mediatype>
					</sourcetrack>
					<fielddominance>upper</fielddominance>
				</clipitem>
				<clipitem id="msub200012-2211055 ">
					<name>msub200012-2211055</name>
					<duration>468</duration>
					<rate>
						<ntsc>FALSE</ntsc>
						<timebase>25</timebase>
					</rate>
					<in>131</in>
					<out>166</out>
					<start>28485</start>
					<end>28520</end>
					<pixelaspectratio>Square</pixelaspectratio>
					<enabled>TRUE</enabled>
					<anamorphic>FALSE</anamorphic>
					<alphatype>none</alphatype>
					<masterclipid>msub200012-2211055 1</masterclipid>
					<logginginfo>
						<description>msub200012-2211055</description>
						<scene/>
						<shottake/>
						<lognote/>
						<good>FALSE</good>
					</logginginfo>
					<labels>
						<label2/>
					</labels>
					<comments>
						<mastercomment1>BARN OG UNGDOM. BR_FINFREDAG_MSUA_OPRO</mastercomment1>
						<mastercomment2/>
						<mastercomment3/>
						<mastercomment4/>
						<clipcommenta/>
					</comments>
					<file id="msub200012-2211055 2">
						<name>msub200012-2211055.MXF</name>
						<pathurl>file://localhost/omfs/clip.dir/MXF/1080i/msub200012-2211055.MXF</pathurl>
						<rate>
							<timebase>25</timebase>
						</rate>
						<duration>468</duration>
						<timecode>
							<rate>
								<timebase>25</timebase>
							</rate>
							<string>01:29:04:08</string>
							<frame>133608</frame>
							<displayformat>NDF</displayformat>
							<source>source</source>
						</timecode>
						<media>
							<video>
								<duration>468</duration>
								<samplecharacteristics>
									<width>1920</width>
									<height>1080</height>
								</samplecharacteristics>
							</video>
							<audio>
								<rate>
									<timebase>48000</timebase>
								</rate>
								<trackcount>1</trackcount>
								<samplecharacteristics>
									<depth>24</depth>
								</samplecharacteristics>
							</audio>
						</media>
					</file>
					<sourcetrack>
						<mediatype>video</mediatype>
					</sourcetrack>
					<link>
						<linkclipref>msub200012-2211055 </linkclipref>
						<mediatype>video</mediatype>
						<trackindex>2</trackindex>
						<clipindex>43</clipindex>
					</link>
					<link>
						<linkclipref>msub200012-2211055 3</linkclipref>
						<mediatype>audio</mediatype>
						<trackindex>3</trackindex>
						<clipindex>32</clipindex>
					</link>
					<fielddominance>upper</fielddominance>
				</clipitem>
				<clipitem id="msub200012-2211055 4">
					<name>msub200012-2211055</name>
					<duration>230</duration>
					<rate>
						<ntsc>FALSE</ntsc>
						<timebase>25</timebase>
					</rate>
					<in>81</in>
					<out>108</out>
					<start>28520</start>
					<end>28547</end>
					<pixelaspectratio>Square</pixelaspectratio>
					<enabled>TRUE</enabled>
					<anamorphic>FALSE</anamorphic>
					<alphatype>none</alphatype>
					<masterclipid>msub200012-2211055 1</masterclipid>
					<logginginfo>
						<description>msub200012-2211055</description>
						<scene/>
						<shottake/>
						<lognote/>
						<good>FALSE</good>
					</logginginfo>
					<labels>
						<label2/>
					</labels>
					<comments>
						<mastercomment1>BARN OG UNGDOM. BR_FINFREDAG_MSUA_OPRO</mastercomment1>
						<mastercomment2/>
						<mastercomment3/>
						<mastercomment4/>
						<clipcommenta/>
					</comments>
					<file id="msub200012-2211055 2"/>
					<sourcetrack>
						<mediatype>video</mediatype>
					</sourcetrack>
					<fielddominance>upper</fielddominance>
					<filter>
						<effect>
							<name>Time Remap</name>
							<effectid>timeremap</effectid>
							<effectcategory>motion</effectcategory>
							<effecttype>motion</effecttype>
							<mediatype>video</mediatype>
							<parameter>
								<parameterid>variablespeed</parameterid>
								<name>variablespeed</name>
								<valuemin>0</valuemin>
								<valuemax>1</valuemax>
								<value>0</value>
							</parameter>
							<parameter>
								<parameterid>mappedduration</parameterid>
								<name>mappedduration</name>
								<value>
									<timecode>
										<rate>
											<timebase>0</timebase>
										</rate>
										<string>0</string>
										<frame>0</frame>
										<displayformat>NDF</displayformat>
									</timecode>
								</value>
							</parameter>
							<parameter>
								<parameterid>speed</parameterid>
								<name>speed</name>
								<valuemin>-10000</valuemin>
								<valuemax>10000</valuemax>
								<value>203</value>
							</parameter>
							<parameter>
								<parameterid>reverse</parameterid>
								<name>reverse</name>
								<value>FALSE</value>
							</parameter>
							<parameter>
								<parameterid>frameblending</parameterid>
								<name>frameblending</name>
								<value>TRUE</value>
							</parameter>
							<parameter>
								<parameterid>graphdict</parameterid>
								<name>graphdict</name>
								<valuemin>0</valuemin>
								<valuemax>467</valuemax>
								<keyframe>
									<when>0</when>
									<value>0.8165</value>
									<speedkfstart>TRUE</speedkfstart>
									<speedvirtualkf>TRUE</speedvirtualkf>
								</keyframe>
								<keyframe>
									<when>81</when>
									<value>166</value>
									<speedkfin>TRUE</speedkfin>
									<speedvirtualkf>TRUE</speedvirtualkf>
								</keyframe>
								<keyframe>
									<when>108</when>
									<value>221.061</value>
									<speedkfout>TRUE</speedkfout>
									<speedvirtualkf>TRUE</speedvirtualkf>
								</keyframe>
								<keyframe>
									<when>230</when>
									<value>468.816</value>
									<speedkfend>TRUE</speedkfend>
									<speedvirtualkf>TRUE</speedvirtualkf>
								</keyframe>
								<interpolation>
									<name>FCPCurve</name>
								</interpolation>
								<value>166</value>
							</parameter>
						</effect>
					</filter>
				</clipitem>
				<clipitem id="msub200012-2211055 5">
					<name>msub200012-2211055</name>
					<duration>468</duration>
					<rate>
						<ntsc>FALSE</ntsc>
						<timebase>25</timebase>
					</rate>
					<in>220</in>
					<out>268</out>
					<start>28547</start>
					<end>28595</end>
					<pixelaspectratio>Square</pixelaspectratio>
					<enabled>TRUE</enabled>
					<anamorphic>FALSE</anamorphic>
					<alphatype>none</alphatype>
					<masterclipid>msub200012-2211055 1</masterclipid>
					<logginginfo>
						<description>msub200012-2211055</description>
						<scene/>
						<shottake/>
						<lognote/>
						<good>FALSE</good>
					</logginginfo>
					<labels>
						<label2/>
					</labels>
					<comments>
						<mastercomment1>BARN OG UNGDOM. BR_FINFREDAG_MSUA_OPRO</mastercomment1>
						<mastercomment2/>
						<mastercomment3/>
						<mastercomment4/>
						<clipcommenta/>
					</comments>
					<file id="msub200012-2211055 2"/>
					<sourcetrack>
						<mediatype>video</mediatype>
					</sourcetrack>
					<fielddominance>upper</fielddominance>
				</clipitem>
				<clipitem id="msub200012-2211066 ">
					<name>msub200012-2211066</name>
					<duration>342</duration>
					<rate>
						<ntsc>FALSE</ntsc>
						<timebase>25</timebase>
					</rate>
					<in>192</in>
					<out>220</out>
					<start>28595</start>
					<end>28623</end>
					<pixelaspectratio>Square</pixelaspectratio>
					<enabled>TRUE</enabled>
					<anamorphic>FALSE</anamorphic>
					<alphatype>none</alphatype>
					<masterclipid>msub200012-2211066 1</masterclipid>
					<logginginfo>
						<description>msub200012-2211066</description>
						<scene/>
						<shottake/>
						<lognote/>
						<good>FALSE</good>
					</logginginfo>
					<labels>
						<label2/>
					</labels>
					<comments>
						<mastercomment1>BARN OG UNGDOM. BR_FINFREDAG_MSUA_OPRO</mastercomment1>
						<mastercomment2/>
						<mastercomment3/>
						<mastercomment4/>
						<clipcommenta/>
					</comments>
					<file id="msub200012-2211066 2">
						<name>msub200012-2211066.MXF</name>
						<pathurl>file://localhost/omfs/clip.dir/MXF/1080i/msub200012-2211066.MXF</pathurl>
						<rate>
							<timebase>25</timebase>
						</rate>
						<duration>696</duration>
						<timecode>
							<rate>
								<timebase>25</timebase>
							</rate>
							<string>01:35:12:12</string>
							<frame>142812</frame>
							<displayformat>NDF</displayformat>
							<source>source</source>
						</timecode>
						<media>
							<video>
								<duration>696</duration>
								<samplecharacteristics>
									<width>1920</width>
									<height>1080</height>
								</samplecharacteristics>
							</video>
							<audio>
								<rate>
									<timebase>48000</timebase>
								</rate>
								<trackcount>1</trackcount>
								<samplecharacteristics>
									<depth>24</depth>
								</samplecharacteristics>
							</audio>
						</media>
					</file>
					<sourcetrack>
						<mediatype>video</mediatype>
					</sourcetrack>
					<fielddominance>upper</fielddominance>
					<filter>
						<effect>
							<name>Time Remap</name>
							<effectid>timeremap</effectid>
							<effectcategory>motion</effectcategory>
							<effecttype>motion</effecttype>
							<mediatype>video</mediatype>
							<parameter>
								<parameterid>variablespeed</parameterid>
								<name>variablespeed</name>
								<valuemin>0</valuemin>
								<valuemax>1</valuemax>
								<value>0</value>
							</parameter>
							<parameter>
								<parameterid>mappedduration</parameterid>
								<name>mappedduration</name>
								<value>
									<timecode>
										<rate>
											<timebase>0</timebase>
										</rate>
										<string>0</string>
										<frame>0</frame>
										<displayformat>NDF</displayformat>
									</timecode>
								</value>
							</parameter>
							<parameter>
								<parameterid>speed</parameterid>
								<name>speed</name>
								<valuemin>-10000</valuemin>
								<valuemax>10000</valuemax>
								<value>203</value>
							</parameter>
							<parameter>
								<parameterid>reverse</parameterid>
								<name>reverse</name>
								<value>FALSE</value>
							</parameter>
							<parameter>
								<parameterid>frameblending</parameterid>
								<name>frameblending</name>
								<value>TRUE</value>
							</parameter>
							<parameter>
								<parameterid>graphdict</parameterid>
								<name>graphdict</name>
								<valuemin>0</valuemin>
								<valuemax>695</valuemax>
								<keyframe>
									<when>0</when>
									<value>0.6803</value>
									<speedkfstart>TRUE</speedkfstart>
									<speedvirtualkf>TRUE</speedvirtualkf>
								</keyframe>
								<keyframe>
									<when>192</when>
									<value>392</value>
									<speedkfin>TRUE</speedkfin>
									<speedvirtualkf>TRUE</speedvirtualkf>
								</keyframe>
								<keyframe>
									<when>220</when>
									<value>449.067</value>
									<speedkfout>TRUE</speedkfout>
									<speedvirtualkf>TRUE</speedvirtualkf>
								</keyframe>
								<keyframe>
									<when>342</when>
									<value>696.68</value>
									<speedkfend>TRUE</speedkfend>
									<speedvirtualkf>TRUE</speedvirtualkf>
								</keyframe>
								<interpolation>
									<name>FCPCurve</name>
								</interpolation>
								<value>392</value>
							</parameter>
						</effect>
					</filter>
				</clipitem>
				<clipitem id="msub200012-2211066 3">
					<name>msub200012-2211066</name>
					<duration>696</duration>
					<rate>
						<ntsc>FALSE</ntsc>
						<timebase>25</timebase>
					</rate>
					<in>448</in>
					<out>489</out>
					<start>28623</start>
					<end>28664</end>
					<pixelaspectratio>Square</pixelaspectratio>
					<enabled>TRUE</enabled>
					<anamorphic>FALSE</anamorphic>
					<alphatype>none</alphatype>
					<masterclipid>msub200012-2211066 1</masterclipid>
					<logginginfo>
						<description>msub200012-2211066</description>
						<scene/>
						<shottake/>
						<lognote/>
						<good>FALSE</good>
					</logginginfo>
					<labels>
						<label2/>
					</labels>
					<comments>
						<mastercomment1>BARN OG UNGDOM. BR_FINFREDAG_MSUA_OPRO</mastercomment1>
						<mastercomment2/>
						<mastercomment3/>
						<mastercomment4/>
						<clipcommenta/>
					</comments>
					<file id="msub200012-2211066 2"/>
					<sourcetrack>
						<mediatype>video</mediatype>
					</sourcetrack>
					<fielddominance>upper</fielddominance>
				</clipitem>
				<clipitem id="msub200012-2211066 4">
					<name>msub200012-2211066</name>
					<duration>1391</duration>
					<rate>
						<ntsc>FALSE</ntsc>
						<timebase>25</timebase>
					</rate>
					<in>978</in>
					<out>1036</out>
					<start>28664</start>
					<end>28722</end>
					<pixelaspectratio>Square</pixelaspectratio>
					<enabled>TRUE</enabled>
					<anamorphic>FALSE</anamorphic>
					<alphatype>none</alphatype>
					<masterclipid>msub200012-2211066 1</masterclipid>
					<logginginfo>
						<description>msub200012-2211066</description>
						<scene/>
						<shottake/>
						<lognote/>
						<good>FALSE</good>
					</logginginfo>
					<labels>
						<label2/>
					</labels>
					<comments>
						<mastercomment1>BARN OG UNGDOM. BR_FINFREDAG_MSUA_OPRO</mastercomment1>
						<mastercomment2/>
						<mastercomment3/>
						<mastercomment4/>
						<clipcommenta/>
					</comments>
					<file id="msub200012-2211066 2"/>
					<sourcetrack>
						<mediatype>video</mediatype>
					</sourcetrack>
					<fielddominance>upper</fielddominance>
					<filter>
						<effect>
							<name>Time Remap</name>
							<effectid>timeremap</effectid>
							<effectcategory>motion</effectcategory>
							<effecttype>motion</effecttype>
							<mediatype>video</mediatype>
							<parameter>
								<parameterid>variablespeed</parameterid>
								<name>variablespeed</name>
								<valuemin>0</valuemin>
								<valuemax>1</valuemax>
								<value>0</value>
							</parameter>
							<parameter>
								<parameterid>mappedduration</parameterid>
								<name>mappedduration</name>
								<value>
									<timecode>
										<rate>
											<timebase>0</timebase>
										</rate>
										<string>0</string>
										<frame>0</frame>
										<displayformat>NDF</displayformat>
									</timecode>
								</value>
							</parameter>
							<parameter>
								<parameterid>speed</parameterid>
								<name>speed</name>
								<valuemin>-10000</valuemin>
								<valuemax>10000</valuemax>
								<value>50</value>
							</parameter>
							<parameter>
								<parameterid>reverse</parameterid>
								<name>reverse</name>
								<value>FALSE</value>
							</parameter>
							<parameter>
								<parameterid>frameblending</parameterid>
								<name>frameblending</name>
								<value>TRUE</value>
							</parameter>
							<parameter>
								<parameterid>graphdict</parameterid>
								<name>graphdict</name>
								<valuemin>0</valuemin>
								<valuemax>695</valuemax>
								<keyframe>
									<when>0</when>
									<value>0</value>
									<speedkfstart>TRUE</speedkfstart>
									<speedvirtualkf>TRUE</speedvirtualkf>
								</keyframe>
								<keyframe>
									<when>978</when>
									<value>489</value>
									<speedkfin>TRUE</speedkfin>
									<speedvirtualkf>TRUE</speedvirtualkf>
								</keyframe>
								<keyframe>
									<when>1036</when>
									<value>518</value>
									<speedkfout>TRUE</speedkfout>
									<speedvirtualkf>TRUE</speedvirtualkf>
								</keyframe>
								<keyframe>
									<when>1391</when>
									<value>696</value>
									<speedkfend>TRUE</speedkfend>
									<speedvirtualkf>TRUE</speedvirtualkf>
								</keyframe>
								<interpolation>
									<name>FCPCurve</name>
								</interpolation>
								<value>489</value>
							</parameter>
						</effect>
					</filter>
				</clipitem>
				<clipitem id="msub200012-2211066 5">
					<name>msub200012-2211066</name>
					<duration>342</duration>
					<rate>
						<ntsc>FALSE</ntsc>
						<timebase>25</timebase>
					</rate>
					<in>254</in>
					<out>269</out>
					<start>28722</start>
					<end>28737</end>
					<pixelaspectratio>Square</pixelaspectratio>
					<enabled>TRUE</enabled>
					<anamorphic>FALSE</anamorphic>
					<alphatype>none</alphatype>
					<masterclipid>msub200012-2211066 1</masterclipid>
					<logginginfo>
						<description>msub200012-2211066</description>
						<scene/>
						<shottake/>
						<lognote/>
						<good>FALSE</good>
					</logginginfo>
					<labels>
						<label2/>
					</labels>
					<comments>
						<mastercomment1>BARN OG UNGDOM. BR_FINFREDAG_MSUA_OPRO</mastercomment1>
						<mastercomment2/>
						<mastercomment3/>
						<mastercomment4/>
						<clipcommenta/>
					</comments>
					<file id="msub200012-2211066 2"/>
					<sourcetrack>
						<mediatype>video</mediatype>
					</sourcetrack>
					<fielddominance>upper</fielddominance>
					<filter>
						<effect>
							<name>Time Remap</name>
							<effectid>timeremap</effectid>
							<effectcategory>motion</effectcategory>
							<effecttype>motion</effecttype>
							<mediatype>video</mediatype>
							<parameter>
								<parameterid>variablespeed</parameterid>
								<name>variablespeed</name>
								<valuemin>0</valuemin>
								<valuemax>1</valuemax>
								<value>0</value>
							</parameter>
							<parameter>
								<parameterid>mappedduration</parameterid>
								<name>mappedduration</name>
								<value>
									<timecode>
										<rate>
											<timebase>0</timebase>
										</rate>
										<string>0</string>
										<frame>0</frame>
										<displayformat>NDF</displayformat>
									</timecode>
								</value>
							</parameter>
							<parameter>
								<parameterid>speed</parameterid>
								<name>speed</name>
								<valuemin>-10000</valuemin>
								<valuemax>10000</valuemax>
								<value>203</value>
							</parameter>
							<parameter>
								<parameterid>reverse</parameterid>
								<name>reverse</name>
								<value>FALSE</value>
							</parameter>
							<parameter>
								<parameterid>frameblending</parameterid>
								<name>frameblending</name>
								<value>TRUE</value>
							</parameter>
							<parameter>
								<parameterid>graphdict</parameterid>
								<name>graphdict</name>
								<valuemin>0</valuemin>
								<valuemax>695</valuemax>
								<keyframe>
									<when>0</when>
									<value>0.3167</value>
									<speedkfstart>TRUE</speedkfstart>
									<speedvirtualkf>TRUE</speedvirtualkf>
								</keyframe>
								<keyframe>
									<when>254</when>
									<value>518</value>
									<speedkfin>TRUE</speedkfin>
									<speedvirtualkf>TRUE</speedvirtualkf>
								</keyframe>
								<keyframe>
									<when>269</when>
									<value>548.572</value>
									<speedkfout>TRUE</speedkfout>
									<speedvirtualkf>TRUE</speedvirtualkf>
								</keyframe>
								<keyframe>
									<when>342</when>
									<value>696.317</value>
									<speedkfend>TRUE</speedkfend>
									<speedvirtualkf>TRUE</speedvirtualkf>
								</keyframe>
								<interpolation>
									<name>FCPCurve</name>
								</interpolation>
								<value>518</value>
							</parameter>
						</effect>
					</filter>
				</clipitem>
				<clipitem id="msub200012-2211066 6">
					<name>msub200012-2211066</name>
					<duration>1391</duration>
					<rate>
						<ntsc>FALSE</ntsc>
						<timebase>25</timebase>
					</rate>
					<in>1096</in>
					<out>1130</out>
					<start>28737</start>
					<end>-1</end>
					<pixelaspectratio>Square</pixelaspectratio>
					<enabled>TRUE</enabled>
					<anamorphic>FALSE</anamorphic>
					<alphatype>none</alphatype>
					<masterclipid>msub200012-2211066 1</masterclipid>
					<logginginfo>
						<description>msub200012-2211066</description>
						<scene/>
						<shottake/>
						<lognote/>
						<good>FALSE</good>
					</logginginfo>
					<labels>
						<label2/>
					</labels>
					<comments>
						<mastercomment1>BARN OG UNGDOM. BR_FINFREDAG_MSUA_OPRO</mastercomment1>
						<mastercomment2/>
						<mastercomment3/>
						<mastercomment4/>
						<clipcommenta/>
					</comments>
					<file id="msub200012-2211066 2"/>
					<sourcetrack>
						<mediatype>video</mediatype>
					</sourcetrack>
					<fielddominance>upper</fielddominance>
					<filter>
						<effect>
							<name>Time Remap</name>
							<effectid>timeremap</effectid>
							<effectcategory>motion</effectcategory>
							<effecttype>motion</effecttype>
							<mediatype>video</mediatype>
							<parameter>
								<parameterid>variablespeed</parameterid>
								<name>variablespeed</name>
								<valuemin>0</valuemin>
								<valuemax>1</valuemax>
								<value>0</value>
							</parameter>
							<parameter>
								<parameterid>mappedduration</parameterid>
								<name>mappedduration</name>
								<value>
									<timecode>
										<rate>
											<timebase>0</timebase>
										</rate>
										<string>0</string>
										<frame>0</frame>
										<displayformat>NDF</displayformat>
									</timecode>
								</value>
							</parameter>
							<parameter>
								<parameterid>speed</parameterid>
								<name>speed</name>
								<valuemin>-10000</valuemin>
								<valuemax>10000</valuemax>
								<value>50</value>
							</parameter>
							<parameter>
								<parameterid>reverse</parameterid>
								<name>reverse</name>
								<value>FALSE</value>
							</parameter>
							<parameter>
								<parameterid>frameblending</parameterid>
								<name>frameblending</name>
								<value>TRUE</value>
							</parameter>
							<parameter>
								<parameterid>graphdict</parameterid>
								<name>graphdict</name>
								<valuemin>0</valuemin>
								<valuemax>695</valuemax>
								<keyframe>
									<when>0</when>
									<value>0</value>
									<speedkfstart>TRUE</speedkfstart>
									<speedvirtualkf>TRUE</speedvirtualkf>
								</keyframe>
								<keyframe>
									<when>1096</when>
									<value>548</value>
									<speedkfin>TRUE</speedkfin>
									<speedvirtualkf>TRUE</speedvirtualkf>
								</keyframe>
								<keyframe>
									<when>1130</when>
									<value>565</value>
									<speedkfout>TRUE</speedkfout>
									<speedvirtualkf>TRUE</speedvirtualkf>
								</keyframe>
								<keyframe>
									<when>1391</when>
									<value>696</value>
									<speedkfend>TRUE</speedkfend>
									<speedvirtualkf>TRUE</speedvirtualkf>
								</keyframe>
								<interpolation>
									<name>FCPCurve</name>
								</interpolation>
								<value>548</value>
							</parameter>
						</effect>
					</filter>
				</clipitem>
				<transitionitem id="920184084 ">
					<rate>
						<ntsc>FALSE</ntsc>
						<timebase>25</timebase>
					</rate>
					<start>28759</start>
					<end>28771</end>
					<alignment>center</alignment>
					<effect>
						<name>Push Slide</name>
						<effectid>Push Slide</effectid>
						<effectcategory>Slide</effectcategory>
						<effecttype>transition</effecttype>
						<mediatype>video</mediatype>
						<wipecode>1</wipecode>
						<wipeaccuracy>100</wipeaccuracy>
						<startratio>0</startratio>
						<endratio>1</endratio>
						<reverse>FALSE</reverse>
						<parameter>
							<parameterid>angleofpush</parameterid>
							<name>Angle</name>
							<valuemin>-360</valuemin>
							<valuemax>360</valuemax>
							<value>90</value>
						</parameter>
						<parameter>
							<parameterid>borderwidth</parameterid>
							<name>Border</name>
							<valuemin>0</valuemin>
							<valuemax>10</valuemax>
							<value>0</value>
						</parameter>
						<parameter>
							<parameterid>bordercolor</parameterid>
							<name>Color</name>
							<value>
								<alpha>255</alpha>
								<red>0</red>
								<green>0</green>
								<blue>0</blue>
							</value>
						</parameter>
					</effect>
				</transitionitem>
				<generatoritem id="Text2">
					<name>Text</name>
					<duration>3000</duration>
					<rate>
						<ntsc>FALSE</ntsc>
						<timebase>25</timebase>
					</rate>
					<in>1329</in>
					<out>1658</out>
					<start>29829</start>
					<end>30158</end>
					<enabled>FALSE</enabled>
					<anamorphic>FALSE</anamorphic>
					<alphatype>black</alphatype>
					<logginginfo>
						<scene/>
						<shottake/>
						<lognote/>
						<good>FALSE</good>
					</logginginfo>
					<labels>
						<label2/>
					</labels>
					<comments>
						<mastercomment1/>
						<mastercomment2/>
						<mastercomment3/>
						<mastercomment4/>
					</comments>
					<effect>
						<name>Text</name>
						<effectid>Text</effectid>
						<effectcategory>Text</effectcategory>
						<effecttype>generator</effecttype>
						<mediatype>video</mediatype>
						<parameter>
							<parameterid>str</parameterid>
							<name>Text</name>
							<value>"La det swinge"&#13;Bobbysocks&#13;Grand Prix 1985</value>
						</parameter>
						<parameter>
							<parameterid>fontname</parameterid>
							<name>Font</name>
							<value>Lucida Grande</value>
						</parameter>
						<parameter>
							<parameterid>fontsize</parameterid>
							<name>Size</name>
							<valuemin>0</valuemin>
							<valuemax>1000</valuemax>
							<value>15</value>
						</parameter>
						<parameter>
							<parameterid>fontstyle</parameterid>
							<name>Style</name>
							<valuemin>1</valuemin>
							<valuemax>4</valuemax>
							<valuelist>
								<valueentry>
									<name>Plain</name>
									<value>1</value>
								</valueentry>
								<valueentry>
									<name>Bold</name>
									<value>2</value>
								</valueentry>
								<valueentry>
									<name>Italic</name>
									<value>3</value>
								</valueentry>
								<valueentry>
									<name>Bold/Italic</name>
									<value>4</value>
								</valueentry>
							</valuelist>
							<value>1</value>
						</parameter>
						<parameter>
							<parameterid>fontalign</parameterid>
							<name>Alignment</name>
							<valuemin>1</valuemin>
							<valuemax>3</valuemax>
							<valuelist>
								<valueentry>
									<name>Left</name>
									<value>1</value>
								</valueentry>
								<valueentry>
									<name>Center</name>
									<value>2</value>
								</valueentry>
								<valueentry>
									<name>Right</name>
									<value>3</value>
								</valueentry>
							</valuelist>
							<value>2</value>
						</parameter>
						<parameter>
							<parameterid>fontcolor</parameterid>
							<name>Font Color</name>
							<value>
								<alpha>255</alpha>
								<red>255</red>
								<green>255</green>
								<blue>255</blue>
							</value>
						</parameter>
						<parameter>
							<parameterid>origin</parameterid>
							<name>Origin</name>
							<value>
								<horiz>0</horiz>
								<vert>0</vert>
							</value>
						</parameter>
						<parameter>
							<parameterid>fonttrack</parameterid>
							<name>Tracking</name>
							<valuemin>-200</valuemin>
							<valuemax>200</valuemax>
							<value>1</value>
						</parameter>
						<parameter>
							<parameterid>leading</parameterid>
							<name>Leading</name>
							<valuemin>-100</valuemin>
							<valuemax>100</valuemax>
							<value>0</value>
						</parameter>
						<parameter>
							<parameterid>aspect</parameterid>
							<name>Aspect</name>
							<valuemin>0.1</valuemin>
							<valuemax>5</valuemax>
							<value>1</value>
						</parameter>
						<parameter>
							<parameterid>autokern</parameterid>
							<name>Auto Kerning</name>
							<value>TRUE</value>
						</parameter>
						<parameter>
							<parameterid>subpixel</parameterid>
							<name>Use Subpixel</name>
							<value>TRUE</value>
						</parameter>
					</effect>
					<filter>
						<effect>
							<name>Basic Motion</name>
							<effectid>basic</effectid>
							<effectcategory>motion</effectcategory>
							<effecttype>motion</effecttype>
							<mediatype>video</mediatype>
							<parameter>
								<parameterid>center</parameterid>
								<name>Center</name>
								<value>
									<horiz>-0.233216</horiz>
									<vert>-0.399582</vert>
								</value>
							</parameter>
						</effect>
					</filter>
					<sourcetrack>
						<mediatype>video</mediatype>
					</sourcetrack>
				</generatoritem>
				<clipitem id="msub200012-3011-k1d3-001 ">
					<name>msub200012-3011-k1d3-001</name>
					<duration>244</duration>
					<rate>
						<ntsc>FALSE</ntsc>
						<timebase>25</timebase>
					</rate>
					<in>98</in>
					<out>159</out>
					<start>32085</start>
					<end>32146</end>
					<pixelaspectratio>Square</pixelaspectratio>
					<enabled>TRUE</enabled>
					<anamorphic>FALSE</anamorphic>
					<alphatype>none</alphatype>
					<masterclipid>msub200012-3011-k1d3-001 1</masterclipid>
					<logginginfo>
						<description>msub200012-3011-k1d3-001</description>
						<scene/>
						<shottake/>
						<lognote/>
						<good>FALSE</good>
					</logginginfo>
					<labels>
						<label2/>
					</labels>
					<comments>
						<mastercomment1>RÃ…STOFF. BR_FINFREDAG_MSUA_OPRO</mastercomment1>
						<mastercomment2/>
						<mastercomment3/>
						<mastercomment4/>
						<clipcommenta/>
					</comments>
					<file id="msub200012-3011-k1d3-001 2">
						<name>msub200012-3011-k1d3-001.mxf</name>
						<pathurl>file://localhost/omfs/clip.dir/MXF/1080i/msub200012-3011-k1d3-001.mxf</pathurl>
						<rate>
							<timebase>25</timebase>
						</rate>
						<duration>244</duration>
						<timecode>
							<rate>
								<timebase>25</timebase>
							</rate>
							<string>02:03:33:19</string>
							<frame>185344</frame>
							<displayformat>NDF</displayformat>
							<source>source</source>
						</timecode>
						<media>
							<video>
								<duration>244</duration>
								<samplecharacteristics>
									<width>1920</width>
									<height>1080</height>
								</samplecharacteristics>
							</video>
							<audio>
								<rate>
									<timebase>48000</timebase>
								</rate>
								<trackcount>1</trackcount>
								<samplecharacteristics>
									<depth>24</depth>
								</samplecharacteristics>
							</audio>
						</media>
					</file>
					<sourcetrack>
						<mediatype>video</mediatype>
					</sourcetrack>
					<link>
						<linkclipref>msub200012-3011-k1d3-001 </linkclipref>
						<mediatype>video</mediatype>
						<trackindex>2</trackindex>
						<clipindex>53</clipindex>
					</link>
					<link>
						<linkclipref>msub200012-3011-k1d3-001 3</linkclipref>
						<mediatype>audio</mediatype>
						<trackindex>1</trackindex>
						<clipindex>128</clipindex>
					</link>
					<fielddominance>upper</fielddominance>
				</clipitem>
				<clipitem id="msub200012-3011-k1d3-002 4">
					<name>msub200012-3011-k1d3-002</name>
					<duration>8740</duration>
					<rate>
						<ntsc>FALSE</ntsc>
						<timebase>25</timebase>
					</rate>
					<in>536</in>
					<out>621</out>
					<start>32146</start>
					<end>32231</end>
					<pixelaspectratio>Square</pixelaspectratio>
					<anamorphic>FALSE</anamorphic>
					<alphatype>none</alphatype>
					<masterclipid>msub200012-3011-k1d3-002 1</masterclipid>
					<syncoffset>0</syncoffset>
					<logginginfo>
						<description>msub200012-3011-k1d3-002</description>
						<scene/>
						<shottake/>
						<lognote/>
						<good>FALSE</good>
					</logginginfo>
					<labels>
						<label>Good Take</label>
						<label2/>
					</labels>
					<comments>
						<mastercomment1>RÃ…STOFF. BR_FINFREDAG_MSUA_OPRO</mastercomment1>
						<mastercomment2/>
						<mastercomment3/>
						<mastercomment4/>
						<clipcommenta/>
					</comments>
					<file id="msub200012-3011-k1d3-002 2"/>
					<sourcetrack>
						<mediatype>video</mediatype>
					</sourcetrack>
					<fielddominance>upper</fielddominance>
				</clipitem>
				<clipitem id="msub200012-3011-k2d3-005 4">
					<name>msub200012-3011-k2d3-005</name>
					<duration>8740</duration>
					<rate>
						<ntsc>FALSE</ntsc>
						<timebase>25</timebase>
					</rate>
					<in>621</in>
					<out>673</out>
					<start>32231</start>
					<end>32283</end>
					<pixelaspectratio>Square</pixelaspectratio>
					<anamorphic>FALSE</anamorphic>
					<alphatype>none</alphatype>
					<masterclipid>msub200012-3011-k2d3-005 1</masterclipid>
					<syncoffset>0</syncoffset>
					<logginginfo>
						<description>msub200012-3011-k2d3-005</description>
						<scene/>
						<shottake/>
						<lognote/>
						<good>FALSE</good>
					</logginginfo>
					<labels>
						<label>Good Take</label>
						<label2/>
					</labels>
					<comments>
						<mastercomment1>RÃ…STOFF. BR_FINFREDAG_MSUA_OPRO</mastercomment1>
						<mastercomment2/>
						<mastercomment3/>
						<mastercomment4/>
						<clipcommenta/>
					</comments>
					<file id="msub200012-3011-k2d3-005 2"/>
					<sourcetrack>
						<mediatype>video</mediatype>
					</sourcetrack>
					<fielddominance>upper</fielddominance>
				</clipitem>
				<clipitem id="msub200012-3011-k1d3-002 5">
					<name>msub200012-3011-k1d3-002</name>
					<duration>8740</duration>
					<rate>
						<ntsc>FALSE</ntsc>
						<timebase>25</timebase>
					</rate>
					<in>673</in>
					<out>846</out>
					<start>32283</start>
					<end>32456</end>
					<pixelaspectratio>Square</pixelaspectratio>
					<enabled>TRUE</enabled>
					<anamorphic>FALSE</anamorphic>
					<alphatype>none</alphatype>
					<masterclipid>msub200012-3011-k1d3-002 1</masterclipid>
					<syncoffset>0</syncoffset>
					<logginginfo>
						<description>msub200012-3011-k1d3-002</description>
						<scene/>
						<shottake/>
						<lognote/>
						<good>FALSE</good>
					</logginginfo>
					<labels>
						<label>Good Take</label>
						<label2/>
					</labels>
					<comments>
						<mastercomment1>RÃ…STOFF. BR_FINFREDAG_MSUA_OPRO</mastercomment1>
						<mastercomment2/>
						<mastercomment3/>
						<mastercomment4/>
						<clipcommenta/>
					</comments>
					<file id="msub200012-3011-k1d3-002 2"/>
					<sourcetrack>
						<mediatype>video</mediatype>
					</sourcetrack>
					<fielddominance>upper</fielddominance>
				</clipitem>
				<clipitem id="msub200012-3011-k2d3-005 5">
					<name>msub200012-3011-k2d3-005</name>
					<duration>8740</duration>
					<rate>
						<ntsc>FALSE</ntsc>
						<timebase>25</timebase>
					</rate>
					<in>904</in>
					<out>1008</out>
					<start>32456</start>
					<end>32560</end>
					<pixelaspectratio>Square</pixelaspectratio>
					<anamorphic>FALSE</anamorphic>
					<alphatype>none</alphatype>
					<masterclipid>msub200012-3011-k2d3-005 1</masterclipid>
					<syncoffset>0</syncoffset>
					<logginginfo>
						<description>msub200012-3011-k2d3-005</description>
						<scene/>
						<shottake/>
						<lognote/>
						<good>FALSE</good>
					</logginginfo>
					<labels>
						<label>Good Take</label>
						<label2/>
					</labels>
					<comments>
						<mastercomment1>RÃ…STOFF. BR_FINFREDAG_MSUA_OPRO</mastercomment1>
						<mastercomment2/>
						<mastercomment3/>
						<mastercomment4/>
						<clipcommenta/>
					</comments>
					<file id="msub200012-3011-k2d3-005 2"/>
					<sourcetrack>
						<mediatype>video</mediatype>
					</sourcetrack>
					<fielddominance>upper</fielddominance>
				</clipitem>
				<clipitem id="msub200012-3011-k1d3-002 6">
					<name>msub200012-3011-k1d3-002</name>
					<duration>8740</duration>
					<rate>
						<ntsc>FALSE</ntsc>
						<timebase>25</timebase>
					</rate>
					<in>1008</in>
					<out>1066</out>
					<start>32560</start>
					<end>32618</end>
					<pixelaspectratio>Square</pixelaspectratio>
					<anamorphic>FALSE</anamorphic>
					<alphatype>none</alphatype>
					<masterclipid>msub200012-3011-k1d3-002 1</masterclipid>
					<syncoffset>0</syncoffset>
					<logginginfo>
						<description>msub200012-3011-k1d3-002</description>
						<scene/>
						<shottake/>
						<lognote/>
						<good>FALSE</good>
					</logginginfo>
					<labels>
						<label>Good Take</label>
						<label2/>
					</labels>
					<comments>
						<mastercomment1>RÃ…STOFF. BR_FINFREDAG_MSUA_OPRO</mastercomment1>
						<mastercomment2/>
						<mastercomment3/>
						<mastercomment4/>
						<clipcommenta/>
					</comments>
					<file id="msub200012-3011-k1d3-002 2"/>
					<sourcetrack>
						<mediatype>video</mediatype>
					</sourcetrack>
					<fielddominance>upper</fielddominance>
				</clipitem>
				<clipitem id="msub200012-3011-k2d3-005 6">
					<name>msub200012-3011-k2d3-005</name>
					<duration>8740</duration>
					<rate>
						<ntsc>FALSE</ntsc>
						<timebase>25</timebase>
					</rate>
					<in>1066</in>
					<out>1107</out>
					<start>32618</start>
					<end>32659</end>
					<pixelaspectratio>Square</pixelaspectratio>
					<anamorphic>FALSE</anamorphic>
					<alphatype>none</alphatype>
					<masterclipid>msub200012-3011-k2d3-005 1</masterclipid>
					<syncoffset>0</syncoffset>
					<logginginfo>
						<description>msub200012-3011-k2d3-005</description>
						<scene/>
						<shottake/>
						<lognote/>
						<good>FALSE</good>
					</logginginfo>
					<labels>
						<label>Good Take</label>
						<label2/>
					</labels>
					<comments>
						<mastercomment1>RÃ…STOFF. BR_FINFREDAG_MSUA_OPRO</mastercomment1>
						<mastercomment2/>
						<mastercomment3/>
						<mastercomment4/>
						<clipcommenta/>
					</comments>
					<file id="msub200012-3011-k2d3-005 2"/>
					<sourcetrack>
						<mediatype>video</mediatype>
					</sourcetrack>
					<fielddominance>upper</fielddominance>
				</clipitem>
				<clipitem id="msub200012-3011-k1d3-002 7">
					<name>msub200012-3011-k1d3-002</name>
					<duration>8740</duration>
					<rate>
						<ntsc>FALSE</ntsc>
						<timebase>25</timebase>
					</rate>
					<in>1107</in>
					<out>1124</out>
					<start>32659</start>
					<end>-1</end>
					<pixelaspectratio>Square</pixelaspectratio>
					<enabled>TRUE</enabled>
					<anamorphic>FALSE</anamorphic>
					<alphatype>none</alphatype>
					<masterclipid>msub200012-3011-k1d3-002 1</masterclipid>
					<syncoffset>0</syncoffset>
					<logginginfo>
						<description>msub200012-3011-k1d3-002</description>
						<scene/>
						<shottake/>
						<lognote/>
						<good>FALSE</good>
					</logginginfo>
					<labels>
						<label>Good Take</label>
						<label2/>
					</labels>
					<comments>
						<mastercomment1>RÃ…STOFF. BR_FINFREDAG_MSUA_OPRO</mastercomment1>
						<mastercomment2/>
						<mastercomment3/>
						<mastercomment4/>
						<clipcommenta/>
					</comments>
					<file id="msub200012-3011-k1d3-002 2"/>
					<sourcetrack>
						<mediatype>video</mediatype>
					</sourcetrack>
					<fielddominance>upper</fielddominance>
				</clipitem>
				<transitionitem id="920329744 ">
					<rate>
						<ntsc>FALSE</ntsc>
						<timebase>25</timebase>
					</rate>
					<start>32672</start>
					<end>32676</end>
					<alignment>center</alignment>
					<effect>
						<name>Wind Blur Cross</name>
						<effectid>Wind Blur Cross</effectid>
						<effectcategory>Too Much Too Soon</effectcategory>
						<effecttype>transition</effecttype>
						<mediatype>video</mediatype>
						<wipecode>0</wipecode>
						<wipeaccuracy>100</wipeaccuracy>
						<startratio>0</startratio>
						<endratio>1</endratio>
						<reverse>FALSE</reverse>
						<parameter>
							<parameterid>dir</parameterid>
							<name>Direction</name>
							<valuemin>1</valuemin>
							<valuemax>2</valuemax>
							<valuelist>
								<valueentry>
									<name>Vertical</name>
									<value>1</value>
								</valueentry>
								<valueentry>
									<name>Horizontal</name>
									<value>2</value>
								</valueentry>
							</valuelist>
							<value>2</value>
						</parameter>
					</effect>
				</transitionitem>
				<clipitem id="msub200012-3011-k1d3-002 8">
					<name>msub200012-3011-k1d3-002</name>
					<duration>8740</duration>
					<rate>
						<ntsc>FALSE</ntsc>
						<timebase>25</timebase>
					</rate>
					<in>1136</in>
					<out>1183</out>
					<start>-1</start>
					<end>32719</end>
					<pixelaspectratio>Square</pixelaspectratio>
					<anamorphic>FALSE</anamorphic>
					<alphatype>none</alphatype>
					<masterclipid>msub200012-3011-k1d3-002 1</masterclipid>
					<syncoffset>0</syncoffset>
					<logginginfo>
						<description>msub200012-3011-k1d3-002</description>
						<scene/>
						<shottake/>
						<lognote/>
						<good>FALSE</good>
					</logginginfo>
					<labels>
						<label>Good Take</label>
						<label2/>
					</labels>
					<comments>
						<mastercomment1>RÃ…STOFF. BR_FINFREDAG_MSUA_OPRO</mastercomment1>
						<mastercomment2/>
						<mastercomment3/>
						<mastercomment4/>
						<clipcommenta/>
					</comments>
					<file id="msub200012-3011-k1d3-002 2"/>
					<sourcetrack>
						<mediatype>video</mediatype>
					</sourcetrack>
					<fielddominance>upper</fielddominance>
				</clipitem>
				<clipitem id="msub200012-3011-k2d3-005 7">
					<name>msub200012-3011-k2d3-005</name>
					<duration>8740</duration>
					<rate>
						<ntsc>FALSE</ntsc>
						<timebase>25</timebase>
					</rate>
					<in>1183</in>
					<out>1205</out>
					<start>32719</start>
					<end>32741</end>
					<pixelaspectratio>Square</pixelaspectratio>
					<enabled>TRUE</enabled>
					<anamorphic>FALSE</anamorphic>
					<alphatype>none</alphatype>
					<masterclipid>msub200012-3011-k2d3-005 1</masterclipid>
					<syncoffset>0</syncoffset>
					<logginginfo>
						<description>msub200012-3011-k2d3-005</description>
						<scene/>
						<shottake/>
						<lognote/>
						<good>FALSE</good>
					</logginginfo>
					<labels>
						<label>Good Take</label>
						<label2/>
					</labels>
					<comments>
						<mastercomment1>RÃ…STOFF. BR_FINFREDAG_MSUA_OPRO</mastercomment1>
						<mastercomment2/>
						<mastercomment3/>
						<mastercomment4/>
						<clipcommenta/>
					</comments>
					<file id="msub200012-3011-k2d3-005 2"/>
					<sourcetrack>
						<mediatype>video</mediatype>
					</sourcetrack>
					<fielddominance>upper</fielddominance>
				</clipitem>
				<clipitem id="msub200012-3011-k1d3-002 9">
					<name>msub200012-3011-k1d3-002</name>
					<duration>8740</duration>
					<rate>
						<ntsc>FALSE</ntsc>
						<timebase>25</timebase>
					</rate>
					<in>1372</in>
					<out>1398</out>
					<start>32770</start>
					<end>32796</end>
					<pixelaspectratio>Square</pixelaspectratio>
					<anamorphic>FALSE</anamorphic>
					<alphatype>none</alphatype>
					<masterclipid>msub200012-3011-k1d3-002 1</masterclipid>
					<syncoffset>0</syncoffset>
					<logginginfo>
						<description>msub200012-3011-k1d3-002</description>
						<scene/>
						<shottake/>
						<lognote/>
						<good>FALSE</good>
					</logginginfo>
					<labels>
						<label>Good Take</label>
						<label2/>
					</labels>
					<comments>
						<mastercomment1>RÃ…STOFF. BR_FINFREDAG_MSUA_OPRO</mastercomment1>
						<mastercomment2/>
						<mastercomment3/>
						<mastercomment4/>
						<clipcommenta/>
					</comments>
					<file id="msub200012-3011-k1d3-002 2"/>
					<sourcetrack>
						<mediatype>video</mediatype>
					</sourcetrack>
					<fielddominance>upper</fielddominance>
				</clipitem>
				<clipitem id="msub200012-3011-k2d3-005 8">
					<name>msub200012-3011-k2d3-005</name>
					<duration>8740</duration>
					<rate>
						<ntsc>FALSE</ntsc>
						<timebase>25</timebase>
					</rate>
					<in>1398</in>
					<out>1449</out>
					<start>32796</start>
					<end>32847</end>
					<pixelaspectratio>Square</pixelaspectratio>
					<anamorphic>FALSE</anamorphic>
					<alphatype>none</alphatype>
					<masterclipid>msub200012-3011-k2d3-005 1</masterclipid>
					<syncoffset>0</syncoffset>
					<logginginfo>
						<description>msub200012-3011-k2d3-005</description>
						<scene/>
						<shottake/>
						<lognote/>
						<good>FALSE</good>
					</logginginfo>
					<labels>
						<label>Good Take</label>
						<label2/>
					</labels>
					<comments>
						<mastercomment1>RÃ…STOFF. BR_FINFREDAG_MSUA_OPRO</mastercomment1>
						<mastercomment2/>
						<mastercomment3/>
						<mastercomment4/>
						<clipcommenta/>
					</comments>
					<file id="msub200012-3011-k2d3-005 2"/>
					<sourcetrack>
						<mediatype>video</mediatype>
					</sourcetrack>
					<fielddominance>upper</fielddominance>
				</clipitem>
				<clipitem id="msub200012-3011-k1d3-002 10">
					<name>msub200012-3011-k1d3-002</name>
					<duration>8740</duration>
					<rate>
						<ntsc>FALSE</ntsc>
						<timebase>25</timebase>
					</rate>
					<in>1449</in>
					<out>1514</out>
					<start>32847</start>
					<end>32912</end>
					<pixelaspectratio>Square</pixelaspectratio>
					<anamorphic>FALSE</anamorphic>
					<alphatype>none</alphatype>
					<masterclipid>msub200012-3011-k1d3-002 1</masterclipid>
					<syncoffset>0</syncoffset>
					<logginginfo>
						<description>msub200012-3011-k1d3-002</description>
						<scene/>
						<shottake/>
						<lognote/>
						<good>FALSE</good>
					</logginginfo>
					<labels>
						<label>Good Take</label>
						<label2/>
					</labels>
					<comments>
						<mastercomment1>RÃ…STOFF. BR_FINFREDAG_MSUA_OPRO</mastercomment1>
						<mastercomment2/>
						<mastercomment3/>
						<mastercomment4/>
						<clipcommenta/>
					</comments>
					<file id="msub200012-3011-k1d3-002 2"/>
					<sourcetrack>
						<mediatype>video</mediatype>
					</sourcetrack>
					<fielddominance>upper</fielddominance>
				</clipitem>
				<clipitem id="msub200012-3011-k1d3-002 11">
					<name>msub200012-3011-k1d3-002</name>
					<duration>8740</duration>
					<rate>
						<ntsc>FALSE</ntsc>
						<timebase>25</timebase>
					</rate>
					<in>3125</in>
					<out>3177</out>
					<start>32924</start>
					<end>32976</end>
					<pixelaspectratio>Square</pixelaspectratio>
					<enabled>TRUE</enabled>
					<anamorphic>FALSE</anamorphic>
					<alphatype>none</alphatype>
					<masterclipid>msub200012-3011-k1d3-002 1</masterclipid>
					<syncoffset>0</syncoffset>
					<logginginfo>
						<description>msub200012-3011-k1d3-002</description>
						<scene/>
						<shottake/>
						<lognote/>
						<good>FALSE</good>
					</logginginfo>
					<labels>
						<label>Good Take</label>
						<label2/>
					</labels>
					<comments>
						<mastercomment1>RÃ…STOFF. BR_FINFREDAG_MSUA_OPRO</mastercomment1>
						<mastercomment2/>
						<mastercomment3/>
						<mastercomment4/>
						<clipcommenta/>
					</comments>
					<file id="msub200012-3011-k1d3-002 2"/>
					<sourcetrack>
						<mediatype>video</mediatype>
					</sourcetrack>
					<fielddominance>upper</fielddominance>
				</clipitem>
				<clipitem id="msub200012-3011-k2d3-005 9">
					<name>msub200012-3011-k2d3-005</name>
					<duration>8740</duration>
					<rate>
						<ntsc>FALSE</ntsc>
						<timebase>25</timebase>
					</rate>
					<in>3177</in>
					<out>3190</out>
					<start>32976</start>
					<end>32989</end>
					<pixelaspectratio>Square</pixelaspectratio>
					<enabled>TRUE</enabled>
					<anamorphic>FALSE</anamorphic>
					<alphatype>none</alphatype>
					<masterclipid>msub200012-3011-k2d3-005 1</masterclipid>
					<syncoffset>0</syncoffset>
					<logginginfo>
						<description>msub200012-3011-k2d3-005</description>
						<scene/>
						<shottake/>
						<lognote/>
						<good>FALSE</good>
					</logginginfo>
					<labels>
						<label>Good Take</label>
						<label2/>
					</labels>
					<comments>
						<mastercomment1>RÃ…STOFF. BR_FINFREDAG_MSUA_OPRO</mastercomment1>
						<mastercomment2/>
						<mastercomment3/>
						<mastercomment4/>
						<clipcommenta/>
					</comments>
					<file id="msub200012-3011-k2d3-005 2"/>
					<sourcetrack>
						<mediatype>video</mediatype>
					</sourcetrack>
					<fielddominance>upper</fielddominance>
				</clipitem>
				<clipitem id="msub200012-3011-k2d3-005 10">
					<name>msub200012-3011-k2d3-005</name>
					<duration>8740</duration>
					<rate>
						<ntsc>FALSE</ntsc>
						<timebase>25</timebase>
					</rate>
					<in>3218</in>
					<out>3237</out>
					<start>32989</start>
					<end>33008</end>
					<pixelaspectratio>Square</pixelaspectratio>
					<enabled>TRUE</enabled>
					<anamorphic>FALSE</anamorphic>
					<alphatype>none</alphatype>
					<masterclipid>msub200012-3011-k2d3-005 1</masterclipid>
					<syncoffset>0</syncoffset>
					<logginginfo>
						<description>msub200012-3011-k2d3-005</description>
						<scene/>
						<shottake/>
						<lognote/>
						<good>FALSE</good>
					</logginginfo>
					<labels>
						<label>Good Take</label>
						<label2/>
					</labels>
					<comments>
						<mastercomment1>RÃ…STOFF. BR_FINFREDAG_MSUA_OPRO</mastercomment1>
						<mastercomment2/>
						<mastercomment3/>
						<mastercomment4/>
						<clipcommenta/>
					</comments>
					<file id="msub200012-3011-k2d3-005 2"/>
					<sourcetrack>
						<mediatype>video</mediatype>
					</sourcetrack>
					<fielddominance>upper</fielddominance>
				</clipitem>
				<clipitem id="msub200012-3011-k1d3-002 12">
					<name>msub200012-3011-k1d3-002</name>
					<duration>8740</duration>
					<rate>
						<ntsc>FALSE</ntsc>
						<timebase>25</timebase>
					</rate>
					<in>3237</in>
					<out>3252</out>
					<start>33008</start>
					<end>-1</end>
					<pixelaspectratio>Square</pixelaspectratio>
					<enabled>TRUE</enabled>
					<anamorphic>FALSE</anamorphic>
					<alphatype>none</alphatype>
					<masterclipid>msub200012-3011-k1d3-002 1</masterclipid>
					<syncoffset>0</syncoffset>
					<logginginfo>
						<description>msub200012-3011-k1d3-002</description>
						<scene/>
						<shottake/>
						<lognote/>
						<good>FALSE</good>
					</logginginfo>
					<labels>
						<label>Good Take</label>
						<label2/>
					</labels>
					<comments>
						<mastercomment1>RÃ…STOFF. BR_FINFREDAG_MSUA_OPRO</mastercomment1>
						<mastercomment2/>
						<mastercomment3/>
						<mastercomment4/>
						<clipcommenta/>
					</comments>
					<file id="msub200012-3011-k1d3-002 2"/>
					<sourcetrack>
						<mediatype>video</mediatype>
					</sourcetrack>
					<fielddominance>upper</fielddominance>
				</clipitem>
				<transitionitem id="920332192 ">
					<rate>
						<ntsc>FALSE</ntsc>
						<timebase>25</timebase>
					</rate>
					<start>33019</start>
					<end>33023</end>
					<alignment>center</alignment>
					<effect>
						<name>Wind Blur Cross</name>
						<effectid>Wind Blur Cross</effectid>
						<effectcategory>Too Much Too Soon</effectcategory>
						<effecttype>transition</effecttype>
						<mediatype>video</mediatype>
						<wipecode>0</wipecode>
						<wipeaccuracy>100</wipeaccuracy>
						<startratio>0</startratio>
						<endratio>1</endratio>
						<reverse>FALSE</reverse>
						<parameter>
							<parameterid>dir</parameterid>
							<name>Direction</name>
							<valuemin>1</valuemin>
							<valuemax>2</valuemax>
							<valuelist>
								<valueentry>
									<name>Vertical</name>
									<value>1</value>
								</valueentry>
								<valueentry>
									<name>Horizontal</name>
									<value>2</value>
								</valueentry>
							</valuelist>
							<value>2</value>
						</parameter>
					</effect>
				</transitionitem>
				<clipitem id="msub200012-3011-k1d3-002 13">
					<name>msub200012-3011-k1d3-002</name>
					<duration>8740</duration>
					<rate>
						<ntsc>FALSE</ntsc>
						<timebase>25</timebase>
					</rate>
					<in>3271</in>
					<out>3366</out>
					<start>-1</start>
					<end>33114</end>
					<pixelaspectratio>Square</pixelaspectratio>
					<anamorphic>FALSE</anamorphic>
					<alphatype>none</alphatype>
					<masterclipid>msub200012-3011-k1d3-002 1</masterclipid>
					<syncoffset>0</syncoffset>
					<logginginfo>
						<description>msub200012-3011-k1d3-002</description>
						<scene/>
						<shottake/>
						<lognote/>
						<good>FALSE</good>
					</logginginfo>
					<labels>
						<label>Good Take</label>
						<label2/>
					</labels>
					<comments>
						<mastercomment1>RÃ…STOFF. BR_FINFREDAG_MSUA_OPRO</mastercomment1>
						<mastercomment2/>
						<mastercomment3/>
						<mastercomment4/>
						<clipcommenta/>
					</comments>
					<file id="msub200012-3011-k1d3-002 2"/>
					<sourcetrack>
						<mediatype>video</mediatype>
					</sourcetrack>
					<fielddominance>upper</fielddominance>
				</clipitem>
				<clipitem id="msub200012-3011-k2d3-005 11">
					<name>msub200012-3011-k2d3-005</name>
					<duration>8740</duration>
					<rate>
						<ntsc>FALSE</ntsc>
						<timebase>25</timebase>
					</rate>
					<in>3366</in>
					<out>3393</out>
					<start>33114</start>
					<end>33141</end>
					<pixelaspectratio>Square</pixelaspectratio>
					<enabled>TRUE</enabled>
					<anamorphic>FALSE</anamorphic>
					<alphatype>none</alphatype>
					<masterclipid>msub200012-3011-k2d3-005 1</masterclipid>
					<syncoffset>0</syncoffset>
					<logginginfo>
						<description>msub200012-3011-k2d3-005</description>
						<scene/>
						<shottake/>
						<lognote/>
						<good>FALSE</good>
					</logginginfo>
					<labels>
						<label>Good Take</label>
						<label2/>
					</labels>
					<comments>
						<mastercomment1>RÃ…STOFF. BR_FINFREDAG_MSUA_OPRO</mastercomment1>
						<mastercomment2/>
						<mastercomment3/>
						<mastercomment4/>
						<clipcommenta/>
					</comments>
					<file id="msub200012-3011-k2d3-005 2"/>
					<sourcetrack>
						<mediatype>video</mediatype>
					</sourcetrack>
					<fielddominance>upper</fielddominance>
				</clipitem>
				<clipitem id="msub200012-3011-k1d3-002 14">
					<name>msub200012-3011-k1d3-002</name>
					<duration>8740</duration>
					<rate>
						<ntsc>FALSE</ntsc>
						<timebase>25</timebase>
					</rate>
					<in>3393</in>
					<out>3453</out>
					<start>33141</start>
					<end>33201</end>
					<pixelaspectratio>Square</pixelaspectratio>
					<enabled>TRUE</enabled>
					<anamorphic>FALSE</anamorphic>
					<alphatype>none</alphatype>
					<masterclipid>msub200012-3011-k1d3-002 1</masterclipid>
					<syncoffset>0</syncoffset>
					<logginginfo>
						<description>msub200012-3011-k1d3-002</description>
						<scene/>
						<shottake/>
						<lognote/>
						<good>FALSE</good>
					</logginginfo>
					<labels>
						<label>Good Take</label>
						<label2/>
					</labels>
					<comments>
						<mastercomment1>RÃ…STOFF. BR_FINFREDAG_MSUA_OPRO</mastercomment1>
						<mastercomment2/>
						<mastercomment3/>
						<mastercomment4/>
						<clipcommenta/>
					</comments>
					<file id="msub200012-3011-k1d3-002 2"/>
					<sourcetrack>
						<mediatype>video</mediatype>
					</sourcetrack>
					<fielddominance>upper</fielddominance>
				</clipitem>
				<clipitem id="msub200012-3011-k1d3-002 15">
					<name>msub200012-3011-k1d3-002</name>
					<duration>8740</duration>
					<rate>
						<ntsc>FALSE</ntsc>
						<timebase>25</timebase>
					</rate>
					<in>1614</in>
					<out>1725</out>
					<start>33229</start>
					<end>33340</end>
					<pixelaspectratio>Square</pixelaspectratio>
					<enabled>TRUE</enabled>
					<anamorphic>FALSE</anamorphic>
					<alphatype>none</alphatype>
					<masterclipid>msub200012-3011-k1d3-002 1</masterclipid>
					<syncoffset>0</syncoffset>
					<logginginfo>
						<description>msub200012-3011-k1d3-002</description>
						<scene/>
						<shottake/>
						<lognote/>
						<good>FALSE</good>
					</logginginfo>
					<labels>
						<label>Good Take</label>
						<label2/>
					</labels>
					<comments>
						<mastercomment1>RÃ…STOFF. BR_FINFREDAG_MSUA_OPRO</mastercomment1>
						<mastercomment2/>
						<mastercomment3/>
						<mastercomment4/>
						<clipcommenta/>
					</comments>
					<file id="msub200012-3011-k1d3-002 2"/>
					<sourcetrack>
						<mediatype>video</mediatype>
					</sourcetrack>
					<fielddominance>upper</fielddominance>
				</clipitem>
				<clipitem id="msub200012-3011-k1d3-002 16">
					<name>msub200012-3011-k1d3-002</name>
					<duration>8740</duration>
					<rate>
						<ntsc>FALSE</ntsc>
						<timebase>25</timebase>
					</rate>
					<in>1725</in>
					<out>1824</out>
					<start>33340</start>
					<end>33439</end>
					<pixelaspectratio>Square</pixelaspectratio>
					<enabled>TRUE</enabled>
					<anamorphic>FALSE</anamorphic>
					<alphatype>none</alphatype>
					<masterclipid>msub200012-3011-k1d3-002 1</masterclipid>
					<syncoffset>0</syncoffset>
					<logginginfo>
						<description>msub200012-3011-k1d3-002</description>
						<scene/>
						<shottake/>
						<lognote/>
						<good>FALSE</good>
					</logginginfo>
					<labels>
						<label>Good Take</label>
						<label2/>
					</labels>
					<comments>
						<mastercomment1>RÃ…STOFF. BR_FINFREDAG_MSUA_OPRO</mastercomment1>
						<mastercomment2/>
						<mastercomment3/>
						<mastercomment4/>
						<clipcommenta/>
					</comments>
					<file id="msub200012-3011-k1d3-002 2"/>
					<sourcetrack>
						<mediatype>video</mediatype>
					</sourcetrack>
					<fielddominance>upper</fielddominance>
				</clipitem>
				<clipitem id="msub200012-3011-k2d3-005 12">
					<name>msub200012-3011-k2d3-005</name>
					<duration>8740</duration>
					<rate>
						<ntsc>FALSE</ntsc>
						<timebase>25</timebase>
					</rate>
					<in>1824</in>
					<out>1931</out>
					<start>33439</start>
					<end>33546</end>
					<pixelaspectratio>Square</pixelaspectratio>
					<anamorphic>FALSE</anamorphic>
					<alphatype>none</alphatype>
					<masterclipid>msub200012-3011-k2d3-005 1</masterclipid>
					<syncoffset>0</syncoffset>
					<logginginfo>
						<description>msub200012-3011-k2d3-005</description>
						<scene/>
						<shottake/>
						<lognote/>
						<good>FALSE</good>
					</logginginfo>
					<labels>
						<label>Good Take</label>
						<label2/>
					</labels>
					<comments>
						<mastercomment1>RÃ…STOFF. BR_FINFREDAG_MSUA_OPRO</mastercomment1>
						<mastercomment2/>
						<mastercomment3/>
						<mastercomment4/>
						<clipcommenta/>
					</comments>
					<file id="msub200012-3011-k2d3-005 2"/>
					<sourcetrack>
						<mediatype>video</mediatype>
					</sourcetrack>
					<fielddominance>upper</fielddominance>
				</clipitem>
				<clipitem id="msub200012-3011-k2d3-005 13">
					<name>msub200012-3011-k2d3-005</name>
					<duration>8740</duration>
					<rate>
						<ntsc>FALSE</ntsc>
						<timebase>25</timebase>
					</rate>
					<in>1931</in>
					<out>1969</out>
					<start>33567</start>
					<end>33605</end>
					<pixelaspectratio>Square</pixelaspectratio>
					<anamorphic>FALSE</anamorphic>
					<alphatype>none</alphatype>
					<masterclipid>msub200012-3011-k2d3-005 1</masterclipid>
					<syncoffset>0</syncoffset>
					<logginginfo>
						<description>msub200012-3011-k2d3-005</description>
						<scene/>
						<shottake/>
						<lognote/>
						<good>FALSE</good>
					</logginginfo>
					<labels>
						<label>Good Take</label>
						<label2/>
					</labels>
					<comments>
						<mastercomment1>RÃ…STOFF. BR_FINFREDAG_MSUA_OPRO</mastercomment1>
						<mastercomment2/>
						<mastercomment3/>
						<mastercomment4/>
						<clipcommenta/>
					</comments>
					<file id="msub200012-3011-k2d3-005 2"/>
					<sourcetrack>
						<mediatype>video</mediatype>
					</sourcetrack>
					<fielddominance>upper</fielddominance>
				</clipitem>
				<clipitem id="msub200012-3011-k1d3-002 17">
					<name>msub200012-3011-k1d3-002</name>
					<duration>8740</duration>
					<rate>
						<ntsc>FALSE</ntsc>
						<timebase>25</timebase>
					</rate>
					<in>1969</in>
					<out>1998</out>
					<start>33605</start>
					<end>33634</end>
					<pixelaspectratio>Square</pixelaspectratio>
					<anamorphic>FALSE</anamorphic>
					<alphatype>none</alphatype>
					<masterclipid>msub200012-3011-k1d3-002 1</masterclipid>
					<syncoffset>0</syncoffset>
					<logginginfo>
						<description>msub200012-3011-k1d3-002</description>
						<scene/>
						<shottake/>
						<lognote/>
						<good>FALSE</good>
					</logginginfo>
					<labels>
						<label>Good Take</label>
						<label2/>
					</labels>
					<comments>
						<mastercomment1>RÃ…STOFF. BR_FINFREDAG_MSUA_OPRO</mastercomment1>
						<mastercomment2/>
						<mastercomment3/>
						<mastercomment4/>
						<clipcommenta/>
					</comments>
					<file id="msub200012-3011-k1d3-002 2"/>
					<sourcetrack>
						<mediatype>video</mediatype>
					</sourcetrack>
					<fielddominance>upper</fielddominance>
				</clipitem>
				<clipitem id="msub200012-3011-k2d3-005 14">
					<name>msub200012-3011-k2d3-005</name>
					<duration>8740</duration>
					<rate>
						<ntsc>FALSE</ntsc>
						<timebase>25</timebase>
					</rate>
					<in>1998</in>
					<out>2019</out>
					<start>33634</start>
					<end>33655</end>
					<pixelaspectratio>Square</pixelaspectratio>
					<anamorphic>FALSE</anamorphic>
					<alphatype>none</alphatype>
					<masterclipid>msub200012-3011-k2d3-005 1</masterclipid>
					<syncoffset>0</syncoffset>
					<logginginfo>
						<description>msub200012-3011-k2d3-005</description>
						<scene/>
						<shottake/>
						<lognote/>
						<good>FALSE</good>
					</logginginfo>
					<labels>
						<label>Good Take</label>
						<label2/>
					</labels>
					<comments>
						<mastercomment1>RÃ…STOFF. BR_FINFREDAG_MSUA_OPRO</mastercomment1>
						<mastercomment2/>
						<mastercomment3/>
						<mastercomment4/>
						<clipcommenta/>
					</comments>
					<file id="msub200012-3011-k2d3-005 2"/>
					<sourcetrack>
						<mediatype>video</mediatype>
					</sourcetrack>
					<fielddominance>upper</fielddominance>
				</clipitem>
				<clipitem id="msub200012-3011-k1d3-002 18">
					<name>msub200012-3011-k1d3-002</name>
					<duration>8740</duration>
					<rate>
						<ntsc>FALSE</ntsc>
						<timebase>25</timebase>
					</rate>
					<in>2019</in>
					<out>2075</out>
					<start>33655</start>
					<end>33711</end>
					<pixelaspectratio>Square</pixelaspectratio>
					<enabled>TRUE</enabled>
					<anamorphic>FALSE</anamorphic>
					<alphatype>none</alphatype>
					<masterclipid>msub200012-3011-k1d3-002 1</masterclipid>
					<syncoffset>0</syncoffset>
					<logginginfo>
						<description>msub200012-3011-k1d3-002</description>
						<scene/>
						<shottake/>
						<lognote/>
						<good>FALSE</good>
					</logginginfo>
					<labels>
						<label>Good Take</label>
						<label2/>
					</labels>
					<comments>
						<mastercomment1>RÃ…STOFF. BR_FINFREDAG_MSUA_OPRO</mastercomment1>
						<mastercomment2/>
						<mastercomment3/>
						<mastercomment4/>
						<clipcommenta/>
					</comments>
					<file id="msub200012-3011-k1d3-002 2"/>
					<sourcetrack>
						<mediatype>video</mediatype>
					</sourcetrack>
					<fielddominance>upper</fielddominance>
				</clipitem>
				<clipitem id="msub200012-3011-k2d3-005 15">
					<name>msub200012-3011-k2d3-005</name>
					<duration>8740</duration>
					<rate>
						<ntsc>FALSE</ntsc>
						<timebase>25</timebase>
					</rate>
					<in>6667</in>
					<out>6694</out>
					<start>33711</start>
					<end>33738</end>
					<pixelaspectratio>Square</pixelaspectratio>
					<enabled>TRUE</enabled>
					<anamorphic>FALSE</anamorphic>
					<alphatype>none</alphatype>
					<masterclipid>msub200012-3011-k2d3-005 1</masterclipid>
					<syncoffset>0</syncoffset>
					<logginginfo>
						<description>msub200012-3011-k2d3-005</description>
						<scene/>
						<shottake/>
						<lognote/>
						<good>FALSE</good>
					</logginginfo>
					<labels>
						<label>Good Take</label>
						<label2/>
					</labels>
					<comments>
						<mastercomment1>RÃ…STOFF. BR_FINFREDAG_MSUA_OPRO</mastercomment1>
						<mastercomment2/>
						<mastercomment3/>
						<mastercomment4/>
						<clipcommenta/>
					</comments>
					<file id="msub200012-3011-k2d3-005 2"/>
					<sourcetrack>
						<mediatype>video</mediatype>
					</sourcetrack>
					<fielddominance>upper</fielddominance>
				</clipitem>
				<clipitem id="msub200012-3011-k1d3-002 19">
					<name>msub200012-3011-k1d3-002</name>
					<duration>8740</duration>
					<rate>
						<ntsc>FALSE</ntsc>
						<timebase>25</timebase>
					</rate>
					<in>6714</in>
					<out>6760</out>
					<start>33738</start>
					<end>33784</end>
					<pixelaspectratio>Square</pixelaspectratio>
					<anamorphic>FALSE</anamorphic>
					<alphatype>none</alphatype>
					<masterclipid>msub200012-3011-k1d3-002 1</masterclipid>
					<syncoffset>0</syncoffset>
					<logginginfo>
						<description>msub200012-3011-k1d3-002</description>
						<scene/>
						<shottake/>
						<lognote/>
						<good>FALSE</good>
					</logginginfo>
					<labels>
						<label>Good Take</label>
						<label2/>
					</labels>
					<comments>
						<mastercomment1>RÃ…STOFF. BR_FINFREDAG_MSUA_OPRO</mastercomment1>
						<mastercomment2/>
						<mastercomment3/>
						<mastercomment4/>
						<clipcommenta/>
					</comments>
					<file id="msub200012-3011-k1d3-002 2"/>
					<sourcetrack>
						<mediatype>video</mediatype>
					</sourcetrack>
					<fielddominance>upper</fielddominance>
				</clipitem>
				<clipitem id="msub200012-3011-k2d3-005 16">
					<name>msub200012-3011-k2d3-005</name>
					<duration>8740</duration>
					<rate>
						<ntsc>FALSE</ntsc>
						<timebase>25</timebase>
					</rate>
					<in>6771</in>
					<out>6783</out>
					<start>33784</start>
					<end>33796</end>
					<pixelaspectratio>Square</pixelaspectratio>
					<enabled>TRUE</enabled>
					<anamorphic>FALSE</anamorphic>
					<alphatype>none</alphatype>
					<masterclipid>msub200012-3011-k2d3-005 1</masterclipid>
					<syncoffset>0</syncoffset>
					<logginginfo>
						<description>msub200012-3011-k2d3-005</description>
						<scene/>
						<shottake/>
						<lognote/>
						<good>FALSE</good>
					</logginginfo>
					<labels>
						<label>Good Take</label>
						<label2/>
					</labels>
					<comments>
						<mastercomment1>RÃ…STOFF. BR_FINFREDAG_MSUA_OPRO</mastercomment1>
						<mastercomment2/>
						<mastercomment3/>
						<mastercomment4/>
						<clipcommenta/>
					</comments>
					<file id="msub200012-3011-k2d3-005 2"/>
					<sourcetrack>
						<mediatype>video</mediatype>
					</sourcetrack>
					<fielddominance>upper</fielddominance>
				</clipitem>
				<clipitem id="msub200012-3011-k2d3-005 17">
					<name>msub200012-3011-k2d3-005</name>
					<duration>8740</duration>
					<rate>
						<ntsc>FALSE</ntsc>
						<timebase>25</timebase>
					</rate>
					<in>6774</in>
					<out>6787</out>
					<start>33796</start>
					<end>33809</end>
					<pixelaspectratio>Square</pixelaspectratio>
					<enabled>TRUE</enabled>
					<anamorphic>FALSE</anamorphic>
					<alphatype>none</alphatype>
					<masterclipid>msub200012-3011-k2d3-005 1</masterclipid>
					<syncoffset>0</syncoffset>
					<logginginfo>
						<description>msub200012-3011-k2d3-005</description>
						<scene/>
						<shottake/>
						<lognote/>
						<good>FALSE</good>
					</logginginfo>
					<labels>
						<label>Good Take</label>
						<label2/>
					</labels>
					<comments>
						<mastercomment1>RÃ…STOFF. BR_FINFREDAG_MSUA_OPRO</mastercomment1>
						<mastercomment2/>
						<mastercomment3/>
						<mastercomment4/>
						<clipcommenta/>
					</comments>
					<file id="msub200012-3011-k2d3-005 2"/>
					<sourcetrack>
						<mediatype>video</mediatype>
					</sourcetrack>
					<fielddominance>upper</fielddominance>
				</clipitem>
				<clipitem id="msub200012-3011-k2d3-005 18">
					<name>msub200012-3011-k2d3-005</name>
					<duration>8740</duration>
					<rate>
						<ntsc>FALSE</ntsc>
						<timebase>25</timebase>
					</rate>
					<in>6785</in>
					<out>6891</out>
					<start>33809</start>
					<end>33915</end>
					<pixelaspectratio>Square</pixelaspectratio>
					<enabled>TRUE</enabled>
					<anamorphic>FALSE</anamorphic>
					<alphatype>none</alphatype>
					<masterclipid>msub200012-3011-k2d3-005 1</masterclipid>
					<syncoffset>0</syncoffset>
					<logginginfo>
						<description>msub200012-3011-k2d3-005</description>
						<scene/>
						<shottake/>
						<lognote/>
						<good>FALSE</good>
					</logginginfo>
					<labels>
						<label>Good Take</label>
						<label2/>
					</labels>
					<comments>
						<mastercomment1>RÃ…STOFF. BR_FINFREDAG_MSUA_OPRO</mastercomment1>
						<mastercomment2/>
						<mastercomment3/>
						<mastercomment4/>
						<clipcommenta/>
					</comments>
					<file id="msub200012-3011-k2d3-005 2"/>
					<sourcetrack>
						<mediatype>video</mediatype>
					</sourcetrack>
					<fielddominance>upper</fielddominance>
				</clipitem>
				<clipitem id="msub200012-3011-k2d3-005 19">
					<name>msub200012-3011-k2d3-005</name>
					<duration>8453</duration>
					<rate>
						<ntsc>FALSE</ntsc>
						<timebase>25</timebase>
					</rate>
					<in>7076</in>
					<out>7099</out>
					<start>33915</start>
					<end>33938</end>
					<pixelaspectratio>Square</pixelaspectratio>
					<enabled>TRUE</enabled>
					<anamorphic>FALSE</anamorphic>
					<alphatype>none</alphatype>
					<masterclipid>msub200012-3011-k2d3-005 1</masterclipid>
					<logginginfo>
						<description>msub200012-3011-k2d3-005</description>
						<scene/>
						<shottake/>
						<lognote/>
						<good>FALSE</good>
					</logginginfo>
					<labels>
						<label>Good Take</label>
						<label2/>
					</labels>
					<comments>
						<mastercomment1>RÃ…STOFF. BR_FINFREDAG_MSUA_OPRO</mastercomment1>
						<mastercomment2/>
						<mastercomment3/>
						<mastercomment4/>
						<clipcommenta/>
					</comments>
					<file id="msub200012-3011-k2d3-005 2"/>
					<sourcetrack>
						<mediatype>video</mediatype>
					</sourcetrack>
					<link>
						<linkclipref>msub200012-3011-k2d3-005 19</linkclipref>
						<mediatype>video</mediatype>
						<trackindex>2</trackindex>
						<clipindex>87</clipindex>
					</link>
					<link>
						<linkclipref>msub200012-3011-k2d3-005 20</linkclipref>
						<mediatype>audio</mediatype>
						<trackindex>1</trackindex>
						<clipindex>147</clipindex>
					</link>
					<fielddominance>upper</fielddominance>
				</clipitem>
				<clipitem id="msub200012-3011-k2d3-009 ">
					<name>msub200012-3011-k2d3-009</name>
					<duration>394</duration>
					<rate>
						<ntsc>FALSE</ntsc>
						<timebase>25</timebase>
					</rate>
					<in>297</in>
					<out>321</out>
					<start>33938</start>
					<end>33962</end>
					<pixelaspectratio>Square</pixelaspectratio>
					<anamorphic>FALSE</anamorphic>
					<alphatype>none</alphatype>
					<masterclipid>msub200012-3011-k2d3-009 1</masterclipid>
					<logginginfo>
						<description>msub200012-3011-k2d3-009</description>
						<scene/>
						<shottake/>
						<lognote/>
						<good>FALSE</good>
					</logginginfo>
					<labels>
						<label2/>
					</labels>
					<comments>
						<mastercomment1>RÃ…STOFF. BR_FINFREDAG_MSUA_OPRO</mastercomment1>
						<mastercomment2/>
						<mastercomment3/>
						<mastercomment4/>
						<clipcommenta/>
					</comments>
					<file id="msub200012-3011-k2d3-009 2">
						<name>msub200012-3011-k2d3-009.mxf</name>
						<pathurl>file://localhost/omfs/clip.dir/MXF/1080i/msub200012-3011-k2d3-009.mxf</pathurl>
						<rate>
							<timebase>25</timebase>
						</rate>
						<duration>394</duration>
						<timecode>
							<rate>
								<timebase>25</timebase>
							</rate>
							<string>01:55:38:09</string>
							<frame>173459</frame>
							<displayformat>NDF</displayformat>
							<source>source</source>
						</timecode>
						<media>
							<video>
								<duration>394</duration>
								<samplecharacteristics>
									<width>1920</width>
									<height>1080</height>
								</samplecharacteristics>
							</video>
							<audio>
								<rate>
									<timebase>48000</timebase>
								</rate>
								<trackcount>1</trackcount>
								<samplecharacteristics>
									<depth>24</depth>
								</samplecharacteristics>
							</audio>
						</media>
					</file>
					<sourcetrack>
						<mediatype>video</mediatype>
					</sourcetrack>
					<link>
						<linkclipref>msub200012-3011-k2d3-009 </linkclipref>
						<mediatype>video</mediatype>
						<trackindex>2</trackindex>
						<clipindex>88</clipindex>
					</link>
					<link>
						<linkclipref>msub200012-3011-k2d3-009 3</linkclipref>
						<mediatype>audio</mediatype>
						<trackindex>1</trackindex>
						<clipindex>148</clipindex>
					</link>
					<fielddominance>upper</fielddominance>
				</clipitem>
				<clipitem id="msub200012-3011-k1d3-002 20">
					<name>msub200012-3011-k1d3-002</name>
					<duration>8683</duration>
					<rate>
						<ntsc>FALSE</ntsc>
						<timebase>25</timebase>
					</rate>
					<in>7054</in>
					<out>7107</out>
					<start>33962</start>
					<end>34015</end>
					<pixelaspectratio>Square</pixelaspectratio>
					<enabled>TRUE</enabled>
					<anamorphic>FALSE</anamorphic>
					<alphatype>none</alphatype>
					<masterclipid>msub200012-3011-k1d3-002 1</masterclipid>
					<logginginfo>
						<description>msub200012-3011-k1d3-002</description>
						<scene/>
						<shottake/>
						<lognote/>
						<good>FALSE</good>
					</logginginfo>
					<labels>
						<label>Good Take</label>
						<label2/>
					</labels>
					<comments>
						<mastercomment1>RÃ…STOFF. BR_FINFREDAG_MSUA_OPRO</mastercomment1>
						<mastercomment2/>
						<mastercomment3/>
						<mastercomment4/>
						<clipcommenta/>
					</comments>
					<file id="msub200012-3011-k1d3-002 2"/>
					<sourcetrack>
						<mediatype>video</mediatype>
					</sourcetrack>
					<link>
						<linkclipref>msub200012-3011-k1d3-002 20</linkclipref>
						<mediatype>video</mediatype>
						<trackindex>2</trackindex>
						<clipindex>89</clipindex>
					</link>
					<link>
						<linkclipref>msub200012-3011-k1d3-002 21</linkclipref>
						<mediatype>audio</mediatype>
						<trackindex>1</trackindex>
						<clipindex>149</clipindex>
					</link>
					<link>
						<linkclipref>msub200012-3011-k1d3-002 22</linkclipref>
						<mediatype>audio</mediatype>
						<trackindex>2</trackindex>
						<clipindex>142</clipindex>
					</link>
					<fielddominance>upper</fielddominance>
				</clipitem>
				<clipitem id="msub200012-3011-k2d3-005 21">
					<name>msub200012-3011-k2d3-005</name>
					<duration>8740</duration>
					<rate>
						<ntsc>FALSE</ntsc>
						<timebase>25</timebase>
					</rate>
					<in>2325</in>
					<out>2407</out>
					<start>34015</start>
					<end>34097</end>
					<pixelaspectratio>Square</pixelaspectratio>
					<enabled>TRUE</enabled>
					<anamorphic>FALSE</anamorphic>
					<alphatype>none</alphatype>
					<masterclipid>msub200012-3011-k2d3-005 1</masterclipid>
					<syncoffset>0</syncoffset>
					<logginginfo>
						<description>msub200012-3011-k2d3-005</description>
						<scene/>
						<shottake/>
						<lognote/>
						<good>FALSE</good>
					</logginginfo>
					<labels>
						<label>Good Take</label>
						<label2/>
					</labels>
					<comments>
						<mastercomment1>RÃ…STOFF. BR_FINFREDAG_MSUA_OPRO</mastercomment1>
						<mastercomment2/>
						<mastercomment3/>
						<mastercomment4/>
						<clipcommenta/>
					</comments>
					<file id="msub200012-3011-k2d3-005 2"/>
					<sourcetrack>
						<mediatype>video</mediatype>
					</sourcetrack>
					<fielddominance>upper</fielddominance>
				</clipitem>
				<clipitem id="msub200012-3011-k2d3-005 22">
					<name>msub200012-3011-k2d3-005</name>
					<duration>8740</duration>
					<rate>
						<ntsc>FALSE</ntsc>
						<timebase>25</timebase>
					</rate>
					<in>2415</in>
					<out>2436</out>
					<start>34121</start>
					<end>34142</end>
					<pixelaspectratio>Square</pixelaspectratio>
					<enabled>TRUE</enabled>
					<anamorphic>FALSE</anamorphic>
					<alphatype>none</alphatype>
					<masterclipid>msub200012-3011-k2d3-005 1</masterclipid>
					<syncoffset>0</syncoffset>
					<logginginfo>
						<description>msub200012-3011-k2d3-005</description>
						<scene/>
						<shottake/>
						<lognote/>
						<good>FALSE</good>
					</logginginfo>
					<labels>
						<label>Good Take</label>
						<label2/>
					</labels>
					<comments>
						<mastercomment1>RÃ…STOFF. BR_FINFREDAG_MSUA_OPRO</mastercomment1>
						<mastercomment2/>
						<mastercomment3/>
						<mastercomment4/>
						<clipcommenta/>
					</comments>
					<file id="msub200012-3011-k2d3-005 2"/>
					<sourcetrack>
						<mediatype>video</mediatype>
					</sourcetrack>
					<fielddominance>upper</fielddominance>
				</clipitem>
				<clipitem id="msub200012-3011-k2d3-005 23">
					<name>msub200012-3011-k2d3-005</name>
					<duration>8740</duration>
					<rate>
						<ntsc>FALSE</ntsc>
						<timebase>25</timebase>
					</rate>
					<in>2436</in>
					<out>2499</out>
					<start>34142</start>
					<end>34205</end>
					<pixelaspectratio>Square</pixelaspectratio>
					<enabled>TRUE</enabled>
					<anamorphic>FALSE</anamorphic>
					<alphatype>none</alphatype>
					<masterclipid>msub200012-3011-k2d3-005 1</masterclipid>
					<syncoffset>0</syncoffset>
					<logginginfo>
						<description>msub200012-3011-k2d3-005</description>
						<scene/>
						<shottake/>
						<lognote/>
						<good>FALSE</good>
					</logginginfo>
					<labels>
						<label>Good Take</label>
						<label2/>
					</labels>
					<comments>
						<mastercomment1>RÃ…STOFF. BR_FINFREDAG_MSUA_OPRO</mastercomment1>
						<mastercomment2/>
						<mastercomment3/>
						<mastercomment4/>
						<clipcommenta/>
					</comments>
					<file id="msub200012-3011-k2d3-005 2"/>
					<sourcetrack>
						<mediatype>video</mediatype>
					</sourcetrack>
					<fielddominance>upper</fielddominance>
				</clipitem>
				<clipitem id="msub200012-3011-k1d3-002 23">
					<name>msub200012-3011-k1d3-002</name>
					<duration>8740</duration>
					<rate>
						<ntsc>FALSE</ntsc>
						<timebase>25</timebase>
					</rate>
					<in>2563</in>
					<out>2588</out>
					<start>34205</start>
					<end>34230</end>
					<pixelaspectratio>Square</pixelaspectratio>
					<enabled>TRUE</enabled>
					<anamorphic>FALSE</anamorphic>
					<alphatype>none</alphatype>
					<masterclipid>msub200012-3011-k1d3-002 1</masterclipid>
					<syncoffset>0</syncoffset>
					<logginginfo>
						<description>msub200012-3011-k1d3-002</description>
						<scene/>
						<shottake/>
						<lognote/>
						<good>FALSE</good>
					</logginginfo>
					<labels>
						<label>Good Take</label>
						<label2/>
					</labels>
					<comments>
						<mastercomment1>RÃ…STOFF. BR_FINFREDAG_MSUA_OPRO</mastercomment1>
						<mastercomment2/>
						<mastercomment3/>
						<mastercomment4/>
						<clipcommenta/>
					</comments>
					<file id="msub200012-3011-k1d3-002 2"/>
					<sourcetrack>
						<mediatype>video</mediatype>
					</sourcetrack>
					<fielddominance>upper</fielddominance>
				</clipitem>
				<clipitem id="msub200012-3011-k2d3-005 24">
					<name>msub200012-3011-k2d3-005</name>
					<duration>8740</duration>
					<rate>
						<ntsc>FALSE</ntsc>
						<timebase>25</timebase>
					</rate>
					<in>3800</in>
					<out>3840</out>
					<start>34230</start>
					<end>34270</end>
					<pixelaspectratio>Square</pixelaspectratio>
					<enabled>TRUE</enabled>
					<anamorphic>FALSE</anamorphic>
					<alphatype>none</alphatype>
					<masterclipid>msub200012-3011-k2d3-005 1</masterclipid>
					<syncoffset>0</syncoffset>
					<logginginfo>
						<description>msub200012-3011-k2d3-005</description>
						<scene/>
						<shottake/>
						<lognote/>
						<good>FALSE</good>
					</logginginfo>
					<labels>
						<label>Good Take</label>
						<label2/>
					</labels>
					<comments>
						<mastercomment1>RÃ…STOFF. BR_FINFREDAG_MSUA_OPRO</mastercomment1>
						<mastercomment2/>
						<mastercomment3/>
						<mastercomment4/>
						<clipcommenta/>
					</comments>
					<file id="msub200012-3011-k2d3-005 2"/>
					<sourcetrack>
						<mediatype>video</mediatype>
					</sourcetrack>
					<fielddominance>upper</fielddominance>
				</clipitem>
				<clipitem id="msub200012-3011-k1d3-002 24">
					<name>msub200012-3011-k1d3-002</name>
					<duration>8740</duration>
					<rate>
						<ntsc>FALSE</ntsc>
						<timebase>25</timebase>
					</rate>
					<in>3840</in>
					<out>3909</out>
					<start>34270</start>
					<end>34339</end>
					<pixelaspectratio>Square</pixelaspectratio>
					<enabled>TRUE</enabled>
					<anamorphic>FALSE</anamorphic>
					<alphatype>none</alphatype>
					<masterclipid>msub200012-3011-k1d3-002 1</masterclipid>
					<syncoffset>0</syncoffset>
					<logginginfo>
						<description>msub200012-3011-k1d3-002</description>
						<scene/>
						<shottake/>
						<lognote/>
						<good>FALSE</good>
					</logginginfo>
					<labels>
						<label>Good Take</label>
						<label2/>
					</labels>
					<comments>
						<mastercomment1>RÃ…STOFF. BR_FINFREDAG_MSUA_OPRO</mastercomment1>
						<mastercomment2/>
						<mastercomment3/>
						<mastercomment4/>
						<clipcommenta/>
					</comments>
					<file id="msub200012-3011-k1d3-002 2"/>
					<sourcetrack>
						<mediatype>video</mediatype>
					</sourcetrack>
					<fielddominance>upper</fielddominance>
				</clipitem>
				<clipitem id="msub200012-3011-k1d3-002 25">
					<name>msub200012-3011-k1d3-002</name>
					<duration>8740</duration>
					<rate>
						<ntsc>FALSE</ntsc>
						<timebase>25</timebase>
					</rate>
					<in>4256</in>
					<out>4353</out>
					<start>34339</start>
					<end>34436</end>
					<pixelaspectratio>Square</pixelaspectratio>
					<anamorphic>FALSE</anamorphic>
					<alphatype>none</alphatype>
					<masterclipid>msub200012-3011-k1d3-002 1</masterclipid>
					<syncoffset>0</syncoffset>
					<logginginfo>
						<description>msub200012-3011-k1d3-002</description>
						<scene/>
						<shottake/>
						<lognote/>
						<good>FALSE</good>
					</logginginfo>
					<labels>
						<label>Good Take</label>
						<label2/>
					</labels>
					<comments>
						<mastercomment1>RÃ…STOFF. BR_FINFREDAG_MSUA_OPRO</mastercomment1>
						<mastercomment2/>
						<mastercomment3/>
						<mastercomment4/>
						<clipcommenta/>
					</comments>
					<file id="msub200012-3011-k1d3-002 2"/>
					<sourcetrack>
						<mediatype>video</mediatype>
					</sourcetrack>
					<fielddominance>upper</fielddominance>
				</clipitem>
				<clipitem id="msub200012-3011-k2d3-005 25">
					<name>msub200012-3011-k2d3-005</name>
					<duration>8740</duration>
					<rate>
						<ntsc>FALSE</ntsc>
						<timebase>25</timebase>
					</rate>
					<in>4353</in>
					<out>4412</out>
					<start>34436</start>
					<end>34495</end>
					<pixelaspectratio>Square</pixelaspectratio>
					<enabled>TRUE</enabled>
					<anamorphic>FALSE</anamorphic>
					<alphatype>none</alphatype>
					<masterclipid>msub200012-3011-k2d3-005 1</masterclipid>
					<syncoffset>0</syncoffset>
					<logginginfo>
						<description>msub200012-3011-k2d3-005</description>
						<scene/>
						<shottake/>
						<lognote/>
						<good>FALSE</good>
					</logginginfo>
					<labels>
						<label>Good Take</label>
						<label2/>
					</labels>
					<comments>
						<mastercomment1>RÃ…STOFF. BR_FINFREDAG_MSUA_OPRO</mastercomment1>
						<mastercomment2/>
						<mastercomment3/>
						<mastercomment4/>
						<clipcommenta/>
					</comments>
					<file id="msub200012-3011-k2d3-005 2"/>
					<sourcetrack>
						<mediatype>video</mediatype>
					</sourcetrack>
					<fielddominance>upper</fielddominance>
				</clipitem>
				<clipitem id="msub200012-3011-k1d3-002 26">
					<name>msub200012-3011-k1d3-002</name>
					<duration>8740</duration>
					<rate>
						<ntsc>FALSE</ntsc>
						<timebase>25</timebase>
					</rate>
					<in>7308</in>
					<out>7358</out>
					<start>34614</start>
					<end>34664</end>
					<pixelaspectratio>Square</pixelaspectratio>
					<anamorphic>FALSE</anamorphic>
					<alphatype>none</alphatype>
					<masterclipid>msub200012-3011-k1d3-002 1</masterclipid>
					<syncoffset>0</syncoffset>
					<logginginfo>
						<description>msub200012-3011-k1d3-002</description>
						<scene/>
						<shottake/>
						<lognote/>
						<good>FALSE</good>
					</logginginfo>
					<labels>
						<label>Good Take</label>
						<label2/>
					</labels>
					<comments>
						<mastercomment1>RÃ…STOFF. BR_FINFREDAG_MSUA_OPRO</mastercomment1>
						<mastercomment2/>
						<mastercomment3/>
						<mastercomment4/>
						<clipcommenta/>
					</comments>
					<file id="msub200012-3011-k1d3-002 2"/>
					<sourcetrack>
						<mediatype>video</mediatype>
					</sourcetrack>
					<fielddominance>upper</fielddominance>
				</clipitem>
				<clipitem id="msub200012-3011-k2d3-005 26">
					<name>msub200012-3011-k2d3-005</name>
					<duration>8740</duration>
					<rate>
						<ntsc>FALSE</ntsc>
						<timebase>25</timebase>
					</rate>
					<in>7358</in>
					<out>7465</out>
					<start>34664</start>
					<end>34771</end>
					<pixelaspectratio>Square</pixelaspectratio>
					<anamorphic>FALSE</anamorphic>
					<alphatype>none</alphatype>
					<masterclipid>msub200012-3011-k2d3-005 1</masterclipid>
					<syncoffset>0</syncoffset>
					<logginginfo>
						<description>msub200012-3011-k2d3-005</description>
						<scene/>
						<shottake/>
						<lognote/>
						<good>FALSE</good>
					</logginginfo>
					<labels>
						<label>Good Take</label>
						<label2/>
					</labels>
					<comments>
						<mastercomment1>RÃ…STOFF. BR_FINFREDAG_MSUA_OPRO</mastercomment1>
						<mastercomment2/>
						<mastercomment3/>
						<mastercomment4/>
						<clipcommenta/>
					</comments>
					<file id="msub200012-3011-k2d3-005 2"/>
					<sourcetrack>
						<mediatype>video</mediatype>
					</sourcetrack>
					<fielddominance>upper</fielddominance>
				</clipitem>
				<clipitem id="msub200012-3011-k1d3-002 27">
					<name>msub200012-3011-k1d3-002</name>
					<duration>8740</duration>
					<rate>
						<ntsc>FALSE</ntsc>
						<timebase>25</timebase>
					</rate>
					<in>7465</in>
					<out>7688</out>
					<start>34771</start>
					<end>34994</end>
					<pixelaspectratio>Square</pixelaspectratio>
					<enabled>TRUE</enabled>
					<anamorphic>FALSE</anamorphic>
					<alphatype>none</alphatype>
					<masterclipid>msub200012-3011-k1d3-002 1</masterclipid>
					<syncoffset>0</syncoffset>
					<logginginfo>
						<description>msub200012-3011-k1d3-002</description>
						<scene/>
						<shottake/>
						<lognote/>
						<good>FALSE</good>
					</logginginfo>
					<labels>
						<label>Good Take</label>
						<label2/>
					</labels>
					<comments>
						<mastercomment1>RÃ…STOFF. BR_FINFREDAG_MSUA_OPRO</mastercomment1>
						<mastercomment2/>
						<mastercomment3/>
						<mastercomment4/>
						<clipcommenta/>
					</comments>
					<file id="msub200012-3011-k1d3-002 2"/>
					<sourcetrack>
						<mediatype>video</mediatype>
					</sourcetrack>
					<fielddominance>upper</fielddominance>
				</clipitem>
				<clipitem id="KreditPlakaterBK">
					<name>KreditPlakaterBK</name>
					<duration>667</duration>
					<rate>
						<ntsc>FALSE</ntsc>
						<timebase>25</timebase>
					</rate>
					<in>0</in>
					<out>377</out>
					<start>35659</start>
					<end>36036</end>
					<pixelaspectratio>Square</pixelaspectratio>
					<enabled>TRUE</enabled>
					<anamorphic>FALSE</anamorphic>
					<alphatype>none</alphatype>
					<masterclipid>KreditPlakaterBK1</masterclipid>
					<logginginfo>
						<scene/>
						<shottake/>
						<lognote/>
						<good>FALSE</good>
					</logginginfo>
					<labels>
						<label2/>
					</labels>
					<comments>
						<mastercomment1/>
						<mastercomment2/>
						<mastercomment3/>
						<mastercomment4/>
					</comments>
					<file id="KreditPlakaterBK2">
						<name>KreditPlakaterBK.mov</name>
						<pathurl>file://localhost/Volumes/Prosjekter_SuperSAN1-1/MSUB20000012%20FIN%20FREDAG/SFX/Profil-grafikk/01_MASTER/Bakgrunenr/KreditPlakaterBK.mov</pathurl>
						<rate>
							<timebase>25</timebase>
						</rate>
						<duration>667</duration>
						<timecode>
							<rate>
								<timebase>25</timebase>
							</rate>
							<string>00:00:00:00</string>
							<frame>0</frame>
							<displayformat>NDF</displayformat>
							<source>source</source>
						</timecode>
						<media>
							<video>
								<duration>667</duration>
								<samplecharacteristics>
									<width>1920</width>
									<height>1080</height>
								</samplecharacteristics>
							</video>
						</media>
					</file>
					<sourcetrack>
						<mediatype>video</mediatype>
					</sourcetrack>
					<fielddominance>upper</fielddominance>
				</clipitem>
				<clipitem id="sluttplak_2012_1920x1080_HD">
					<name>sluttplak_2012_1920x1080_HD</name>
					<duration>3026</duration>
					<rate>
						<ntsc>FALSE</ntsc>
						<timebase>25</timebase>
					</rate>
					<in>1500</in>
					<out>1567</out>
					<start>36036</start>
					<end>36103</end>
					<pixelaspectratio>Square</pixelaspectratio>
					<stillframe>TRUE</stillframe>
					<enabled>TRUE</enabled>
					<anamorphic>FALSE</anamorphic>
					<alphatype>none</alphatype>
					<masterclipid>sluttplak_2012_1920x1080_HD1</masterclipid>
					<logginginfo>
						<scene/>
						<shottake/>
						<lognote/>
						<good>FALSE</good>
					</logginginfo>
					<labels>
						<label2/>
					</labels>
					<comments>
						<mastercomment1/>
						<mastercomment2/>
						<mastercomment3/>
						<mastercomment4/>
					</comments>
					<file id="sluttplak_2012_1920x1080_HD2">
						<name>sluttplak_2012_1920x1080_HD.mov</name>
						<pathurl>file://localhost/SuperSAN1/Prosjekter/MSUB20000012%20FIN%20FREDAG/SFX/Profil-grafikk/sluttplak_2012_1920x1080_HD.mov</pathurl>
						<rate>
							<timebase>25</timebase>
						</rate>
						<duration>2</duration>
						<width>1920</width>
						<height>1080</height>
						<media>
							<video>
								<duration>2</duration>
								<stillframe>TRUE</stillframe>
								<samplecharacteristics>
									<width>1920</width>
									<height>1080</height>
								</samplecharacteristics>
							</video>
						</media>
					</file>
					<sourcetrack>
						<mediatype>video</mediatype>
					</sourcetrack>
					<fielddominance>none</fielddominance>
				</clipitem>
				<enabled>TRUE</enabled>
				<locked>FALSE</locked>
			</track>
			<track>
				<clipitem id="Vignett_m_NyDisco-XDCAM">
					<name>Vignett_m_NyDisco-XDCAM</name>
					<duration>650</duration>
					<rate>
						<ntsc>FALSE</ntsc>
						<timebase>25</timebase>
					</rate>
					<in>9</in>
					<out>520</out>
					<start>399</start>
					<end>910</end>
					<pixelaspectratio>Square</pixelaspectratio>
					<enabled>TRUE</enabled>
					<anamorphic>FALSE</anamorphic>
					<alphatype>none</alphatype>
					<masterclipid>Vignett_m_NyDisco-XDCAM1</masterclipid>
					<logginginfo>
						<scene/>
						<shottake/>
						<lognote/>
						<good>FALSE</good>
					</logginginfo>
					<labels>
						<label2/>
					</labels>
					<comments>
						<mastercomment1/>
						<mastercomment2/>
						<mastercomment3/>
						<mastercomment4/>
					</comments>
					<file id="Vignett_m_NyDisco-XDCAM2">
						<name>Vignett_m_NyDisco-XDCAM.mov</name>
						<pathurl>file://localhost/Volumes/Prosjekter_SuperSAN1-1/MSUB20000012%20FIN%20FREDAG/SFX/Profil-grafikk/01_MASTER/Vignett/Vignett_m_NyDisco-XDCAM.mov</pathurl>
						<rate>
							<timebase>25</timebase>
						</rate>
						<duration>650</duration>
						<media>
							<video>
								<duration>650</duration>
								<samplecharacteristics>
									<width>1920</width>
									<height>1080</height>
								</samplecharacteristics>
							</video>
							<audio>
								<rate>
									<timebase>48000</timebase>
								</rate>
								<trackcount>2</trackcount>
								<samplecharacteristics>
									<depth>16</depth>
								</samplecharacteristics>
							</audio>
						</media>
					</file>
					<sourcetrack>
						<mediatype>video</mediatype>
					</sourcetrack>
					<fielddominance>upper</fielddominance>
				</clipitem>
				<transitionitem id="920339400 ">
					<rate>
						<ntsc>FALSE</ntsc>
						<timebase>25</timebase>
					</rate>
					<start>3730</start>
					<end>3746</end>
					<alignment>start-black</alignment>
					<effect>
						<name>Cross Dissolve</name>
						<effectid>Cross Dissolve</effectid>
						<effectcategory>Dissolve</effectcategory>
						<effecttype>transition</effecttype>
						<mediatype>video</mediatype>
						<wipecode>0</wipecode>
						<wipeaccuracy>100</wipeaccuracy>
						<startratio>0</startratio>
						<endratio>1</endratio>
						<reverse>FALSE</reverse>
					</effect>
				</transitionitem>
				<clipitem id="msub200012-3011-k1d1-024 3">
					<name>msub200012-3011-k1d1-024</name>
					<duration>1440</duration>
					<rate>
						<ntsc>FALSE</ntsc>
						<timebase>25</timebase>
					</rate>
					<in>560</in>
					<out>627</out>
					<start>-1</start>
					<end>-1</end>
					<pixelaspectratio>Square</pixelaspectratio>
					<enabled>TRUE</enabled>
					<anamorphic>FALSE</anamorphic>
					<alphatype>none</alphatype>
					<masterclipid>msub200012-3011-k1d1-024 1</masterclipid>
					<logginginfo>
						<description>msub200012-3011-k1d1-024</description>
						<scene/>
						<shottake/>
						<lognote/>
						<good>FALSE</good>
					</logginginfo>
					<labels>
						<label2/>
					</labels>
					<comments>
						<mastercomment1>RÃ…STOFF. BR_FINFREDAG_MSUA_OPRO</mastercomment1>
						<mastercomment2/>
						<mastercomment3/>
						<mastercomment4/>
						<clipcommenta/>
					</comments>
					<file id="msub200012-3011-k1d1-024 2"/>
					<sourcetrack>
						<mediatype>video</mediatype>
					</sourcetrack>
					<link>
						<linkclipref>msub200012-3011-k1d1-024 3</linkclipref>
						<mediatype>video</mediatype>
						<trackindex>3</trackindex>
						<clipindex>3</clipindex>
					</link>
					<fielddominance>upper</fielddominance>
				</clipitem>
				<transitionitem id="920340148 ">
					<rate>
						<ntsc>FALSE</ntsc>
						<timebase>25</timebase>
					</rate>
					<start>3781</start>
					<end>3797</end>
					<alignment>center</alignment>
					<effect>
						<name>Cross Dissolve</name>
						<effectid>Cross Dissolve</effectid>
						<effectcategory>Dissolve</effectcategory>
						<effecttype>transition</effecttype>
						<mediatype>video</mediatype>
						<wipecode>0</wipecode>
						<wipeaccuracy>100</wipeaccuracy>
						<startratio>0</startratio>
						<endratio>1</endratio>
						<reverse>FALSE</reverse>
					</effect>
				</transitionitem>
				<transitionitem id="920340692 ">
					<rate>
						<ntsc>FALSE</ntsc>
						<timebase>25</timebase>
					</rate>
					<start>3830</start>
					<end>3855</end>
					<alignment>center</alignment>
					<effect>
						<name>Cross Dissolve</name>
						<effectid>Cross Dissolve</effectid>
						<effectcategory>Dissolve</effectcategory>
						<effecttype>transition</effecttype>
						<mediatype>video</mediatype>
						<wipecode>0</wipecode>
						<wipeaccuracy>100</wipeaccuracy>
						<startratio>0</startratio>
						<endratio>1</endratio>
						<reverse>FALSE</reverse>
					</effect>
				</transitionitem>
				<clipitem id="msub200012-3011-k2d1-013 ">
					<name>msub200012-3011-k2d1-013</name>
					<duration>407</duration>
					<rate>
						<ntsc>FALSE</ntsc>
						<timebase>25</timebase>
					</rate>
					<in>192</in>
					<out>261</out>
					<start>-1</start>
					<end>3899</end>
					<pixelaspectratio>Square</pixelaspectratio>
					<anamorphic>FALSE</anamorphic>
					<alphatype>none</alphatype>
					<masterclipid>msub200012-3011-k2d1-013 1</masterclipid>
					<logginginfo>
						<description>msub200012-3011-k2d1-013</description>
						<scene/>
						<shottake/>
						<lognote/>
						<good>FALSE</good>
					</logginginfo>
					<labels>
						<label2/>
					</labels>
					<comments>
						<mastercomment1>RÃ…STOFF. BR_FINFREDAG_MSUA_OPRO</mastercomment1>
						<mastercomment2/>
						<mastercomment3/>
						<mastercomment4/>
						<clipcommenta/>
					</comments>
					<file id="msub200012-3011-k2d1-013 2">
						<name>msub200012-3011-k2d1-013.mxf</name>
						<pathurl>file://localhost/omfs/clip.dir/MXF/1080i/msub200012-3011-k2d1-013.mxf</pathurl>
						<rate>
							<timebase>25</timebase>
						</rate>
						<duration>407</duration>
						<timecode>
							<rate>
								<timebase>25</timebase>
							</rate>
							<string>01:05:44:09</string>
							<frame>98609</frame>
							<displayformat>NDF</displayformat>
							<source>source</source>
						</timecode>
						<media>
							<video>
								<duration>407</duration>
								<samplecharacteristics>
									<width>1920</width>
									<height>1080</height>
								</samplecharacteristics>
							</video>
							<audio>
								<rate>
									<timebase>48000</timebase>
								</rate>
								<trackcount>1</trackcount>
								<samplecharacteristics>
									<depth>24</depth>
								</samplecharacteristics>
							</audio>
						</media>
					</file>
					<sourcetrack>
						<mediatype>video</mediatype>
					</sourcetrack>
					<link>
						<linkclipref>msub200012-3011-k2d1-013 </linkclipref>
						<mediatype>video</mediatype>
						<trackindex>3</trackindex>
						<clipindex>6</clipindex>
					</link>
					<fielddominance>upper</fielddominance>
				</clipitem>
				<clipitem id="msub200012-3011-k1d1-021 ">
					<name>msub200012-3011-k1d1-021</name>
					<duration>820</duration>
					<rate>
						<ntsc>FALSE</ntsc>
						<timebase>25</timebase>
					</rate>
					<in>25</in>
					<out>74</out>
					<start>3959</start>
					<end>4008</end>
					<pixelaspectratio>Square</pixelaspectratio>
					<enabled>TRUE</enabled>
					<anamorphic>FALSE</anamorphic>
					<alphatype>none</alphatype>
					<masterclipid>msub200012-3011-k1d1-021 1</masterclipid>
					<logginginfo>
						<description>msub200012-3011-k1d1-021</description>
						<scene/>
						<shottake/>
						<lognote/>
						<good>FALSE</good>
					</logginginfo>
					<labels>
						<label2/>
					</labels>
					<comments>
						<mastercomment1>RÃ…STOFF. BR_FINFREDAG_MSUA_OPRO</mastercomment1>
						<mastercomment2/>
						<mastercomment3/>
						<mastercomment4/>
						<clipcommenta/>
					</comments>
					<file id="msub200012-3011-k1d1-021 2">
						<name>msub200012-3011-k1d1-021.mxf</name>
						<pathurl>file://localhost/omfs/clip.dir/MXF/1080i/msub200012-3011-k1d1-021.mxf</pathurl>
						<rate>
							<timebase>25</timebase>
						</rate>
						<duration>820</duration>
						<timecode>
							<rate>
								<timebase>25</timebase>
							</rate>
							<string>01:18:45:10</string>
							<frame>118135</frame>
							<displayformat>NDF</displayformat>
							<source>source</source>
						</timecode>
						<media>
							<video>
								<duration>820</duration>
								<samplecharacteristics>
									<width>1920</width>
									<height>1080</height>
								</samplecharacteristics>
							</video>
							<audio>
								<rate>
									<timebase>48000</timebase>
								</rate>
								<trackcount>1</trackcount>
								<samplecharacteristics>
									<depth>24</depth>
								</samplecharacteristics>
							</audio>
						</media>
					</file>
					<filter>
						<start>-1</start>
						<end>-1</end>
						<effect>
							<name>Shift Fields</name>
							<effectid>Shift Fields</effectid>
							<effectcategory>Video</effectcategory>
							<effecttype>filter</effecttype>
							<mediatype>video</mediatype>
							<parameter>
								<parameterid>dir</parameterid>
								<name>Shift Direction</name>
								<valuemin>1</valuemin>
								<valuemax>3</valuemax>
								<valuelist>
									<valueentry>
										<name> +1</name>
										<value>1</value>
									</valueentry>
									<valueentry>
										<name>none</name>
										<value>2</value>
									</valueentry>
									<valueentry>
										<name> -1</name>
										<value>3</value>
									</valueentry>
								</valuelist>
								<value>1</value>
							</parameter>
						</effect>
					</filter>
					<sourcetrack>
						<mediatype>video</mediatype>
					</sourcetrack>
					<fielddominance>upper</fielddominance>
					<filter>
						<effect>
							<name>Time Remap</name>
							<effectid>timeremap</effectid>
							<effectcategory>motion</effectcategory>
							<effecttype>motion</effecttype>
							<mediatype>video</mediatype>
							<parameter>
								<parameterid>variablespeed</parameterid>
								<name>variablespeed</name>
								<valuemin>0</valuemin>
								<valuemax>1</valuemax>
								<value>0</value>
							</parameter>
							<parameter>
								<parameterid>mappedduration</parameterid>
								<name>mappedduration</name>
								<value>
									<timecode>
										<rate>
											<timebase>0</timebase>
										</rate>
										<string>0</string>
										<frame>0</frame>
										<displayformat>NDF</displayformat>
									</timecode>
								</value>
							</parameter>
							<parameter>
								<parameterid>speed</parameterid>
								<name>speed</name>
								<valuemin>-10000</valuemin>
								<valuemax>10000</valuemax>
								<value>100</value>
							</parameter>
							<parameter>
								<parameterid>reverse</parameterid>
								<name>reverse</name>
								<value>TRUE</value>
							</parameter>
							<parameter>
								<parameterid>frameblending</parameterid>
								<name>frameblending</name>
								<value>TRUE</value>
							</parameter>
							<parameter>
								<parameterid>graphdict</parameterid>
								<name>graphdict</name>
								<valuemin>0</valuemin>
								<valuemax>819</valuemax>
								<keyframe>
									<when>0</when>
									<value>821</value>
									<speedkfstart>TRUE</speedkfstart>
									<speedvirtualkf>TRUE</speedvirtualkf>
								</keyframe>
								<keyframe>
									<when>25</when>
									<value>795</value>
									<speedkfin>TRUE</speedkfin>
									<speedvirtualkf>TRUE</speedvirtualkf>
								</keyframe>
								<keyframe>
									<when>74</when>
									<value>746</value>
									<speedkfout>TRUE</speedkfout>
									<speedvirtualkf>TRUE</speedvirtualkf>
								</keyframe>
								<keyframe>
									<when>820</when>
									<value>1</value>
									<speedkfend>TRUE</speedkfend>
									<speedvirtualkf>TRUE</speedvirtualkf>
								</keyframe>
								<interpolation>
									<name>FCPCurve</name>
								</interpolation>
								<value>794</value>
							</parameter>
						</effect>
					</filter>
				</clipitem>
				<clipitem id="msub200012-3011-k1d1-010 19">
					<name>msub200012-3011-k1d1-010</name>
					<duration>10013</duration>
					<rate>
						<ntsc>FALSE</ntsc>
						<timebase>25</timebase>
					</rate>
					<in>5312</in>
					<out>5389</out>
					<start>4116</start>
					<end>4193</end>
					<pixelaspectratio>Square</pixelaspectratio>
					<enabled>TRUE</enabled>
					<anamorphic>FALSE</anamorphic>
					<alphatype>none</alphatype>
					<masterclipid>msub200012-3011-k1d1-010 1</masterclipid>
					<logginginfo>
						<description>msub200012-3011-k1d1-010</description>
						<scene/>
						<shottake/>
						<lognote/>
						<good>FALSE</good>
					</logginginfo>
					<labels>
						<label2/>
					</labels>
					<comments>
						<mastercomment1>RÃ…STOFF. BR_FINFREDAG_MSUA_OPRO</mastercomment1>
						<mastercomment2/>
						<mastercomment3/>
						<mastercomment4/>
						<clipcommenta/>
					</comments>
					<file id="msub200012-3011-k1d1-010 2"/>
					<sourcetrack>
						<mediatype>video</mediatype>
					</sourcetrack>
					<fielddominance>upper</fielddominance>
				</clipitem>
				<clipitem id="KOIF43001507AA6">
					<name>KOIF43001507AA</name>
					<duration>131201</duration>
					<rate>
						<ntsc>FALSE</ntsc>
						<timebase>25</timebase>
					</rate>
					<in>111651</in>
					<out>111759</out>
					<start>8366</start>
					<end>8474</end>
					<pixelaspectratio>PAL-601</pixelaspectratio>
					<enabled>TRUE</enabled>
					<anamorphic>TRUE</anamorphic>
					<alphatype>none</alphatype>
					<masterclipid>KOIF43001507AA1</masterclipid>
					<logginginfo>
						<description>Jakten pÃ¥ nyresteinen</description>
						<scene/>
						<shottake/>
						<lognote/>
						<good>FALSE</good>
					</logginginfo>
					<labels>
						<label2/>
					</labels>
					<comments>
						<mastercomment1>ARKIVSTOFF. BR_FINFREDAG_MSUA_OPRO</mastercomment1>
						<mastercomment2>. Filmkameratene AS. </mastercomment2>
						<mastercomment3>Sendt: 1999-12-20. FILMKAMERATENE; Norge.</mastercomment3>
						<mastercomment4>Norsk spillefilm fra 1996. Bestefar har smerter, men Ã¥tteÃ¥rige Simen vet rÃ¥d. Han tryller seg liten og klatrer inn i bestefars kropp for Ã¥ finne ut hva som er i veien ... Regi: Vibeke IdsÃ¸e. Manus: Vibeke IdsÃ¸e. Musikk: Ragnar Bjerkreim. I rollene: Fru Galle ................ Kjersti HOLMEN (mv) Galle Junior ............. Lage FOSHEIM (mv) Sekr??t Service agent ..... Morten M. FALDAAS (mv) StemmebÃ¥ndsoperatÃ¸ren .... Sigve BÃ˜E (mv) TÃ¥retankoperatÃ¸rene ...... Harald EIA (mv), Gard EIDSVOLD (mv) A. Pendixrud ............. BjÃ¸rn JENSEG (mv) Hvitt punkerblodlegeme ... Jan "Devo" KORNSTAD (mv) / Jan KORNSTAD (mv) Hjerteharpen ............. Tone HULBÃ†KMO (mv) HjernesentraloperatÃ¸ren .. Leif DUBARD (mv) RÃ¸de kjÃ¦rlighetsvakter ... Herborg KRÃ…KEVIK (mv), Helen VIKSTVEDT (mv) Bestefar ................. Terje STRÃ˜MDAHL (mv) Bestemor ................. CÃ¦cilie NORDBY (mv) Bamsens stemme ........... Toralv Maurstad Ã˜vrige medvirkende: Tina HARTVIG (mv), Tinken LAURANTZON (mv), Ã˜ystein SELENIUS (mv), Adolf E. BJERKE (mv), Rune HEKKELSTRAND (mv), Rikke SANDLI (mv), Unn SANDVIG (mv), Celine SAASTAD (mv), Anne STRAY (mv), Arild SÃ˜GAARD (mv), Ruth GURHOLT (mv), Kjetil OLSEN (mv), Ine SANDVIG (mv), Aslaug GUTTORMSGÃ…RD (mv), Kjersti Borchgrevink MAAGERÃ˜ (mv), Kiran SHAH (mv), Camilla HARTVIG (mv), Raymond WIIK (mv).</mastercomment4>
						<clipcommenta/>
						<clipcommentb>1:F-mix venstre 2:F-mix hÃ¸yre 3:-- 4:--.4x3 PAL.</clipcommentb>
					</comments>
					<file id="KOIF43001507AA2"/>
					<filter>
						<effect>
							<name>Distort</name>
							<effectid>deformation</effectid>
							<effectcategory>motion</effectcategory>
							<effecttype>motion</effecttype>
							<mediatype>video</mediatype>
							<parameter>
								<parameterid>aspect</parameterid>
								<name>Aspect</name>
								<valuemin>-10000</valuemin>
								<valuemax>10000</valuemax>
								<value>-42.2222</value>
							</parameter>
						</effect>
					</filter>
					<filter>
						<effect>
							<name>Basic Motion</name>
							<effectid>basic</effectid>
							<effectcategory>motion</effectcategory>
							<effecttype>motion</effecttype>
							<mediatype>video</mediatype>
							<parameter>
								<parameterid>scale</parameterid>
								<name>Scale</name>
								<value>266.667</value>
							</parameter>
						</effect>
					</filter>
					<sourcetrack>
						<mediatype>video</mediatype>
					</sourcetrack>
					<link>
						<linkclipref>KOIF43001507AA6</linkclipref>
						<mediatype>video</mediatype>
						<trackindex>3</trackindex>
						<clipindex>9</clipindex>
					</link>
					<link>
						<linkclipref>KOIF43001507AA7</linkclipref>
						<mediatype>audio</mediatype>
						<trackindex>3</trackindex>
						<clipindex>6</clipindex>
					</link>
					<link>
						<linkclipref>KOIF43001507AA8</linkclipref>
						<mediatype>audio</mediatype>
						<trackindex>4</trackindex>
						<clipindex>9</clipindex>
					</link>
					<fielddominance>upper</fielddominance>
				</clipitem>
				<clipitem id="KOIF43001507AA9">
					<name>KOIF43001507AA</name>
					<duration>131201</duration>
					<rate>
						<ntsc>FALSE</ntsc>
						<timebase>25</timebase>
					</rate>
					<in>111787</in>
					<out>111827</out>
					<start>8474</start>
					<end>8514</end>
					<pixelaspectratio>PAL-601</pixelaspectratio>
					<enabled>TRUE</enabled>
					<anamorphic>TRUE</anamorphic>
					<alphatype>none</alphatype>
					<masterclipid>KOIF43001507AA1</masterclipid>
					<logginginfo>
						<description>Jakten pÃ¥ nyresteinen</description>
						<scene/>
						<shottake/>
						<lognote/>
						<good>FALSE</good>
					</logginginfo>
					<labels>
						<label2/>
					</labels>
					<comments>
						<mastercomment1>ARKIVSTOFF. BR_FINFREDAG_MSUA_OPRO</mastercomment1>
						<mastercomment2>. Filmkameratene AS. </mastercomment2>
						<mastercomment3>Sendt: 1999-12-20. FILMKAMERATENE; Norge.</mastercomment3>
						<mastercomment4>Norsk spillefilm fra 1996. Bestefar har smerter, men Ã¥tteÃ¥rige Simen vet rÃ¥d. Han tryller seg liten og klatrer inn i bestefars kropp for Ã¥ finne ut hva som er i veien ... Regi: Vibeke IdsÃ¸e. Manus: Vibeke IdsÃ¸e. Musikk: Ragnar Bjerkreim. I rollene: Fru Galle ................ Kjersti HOLMEN (mv) Galle Junior ............. Lage FOSHEIM (mv) Sekr??t Service agent ..... Morten M. FALDAAS (mv) StemmebÃ¥ndsoperatÃ¸ren .... Sigve BÃ˜E (mv) TÃ¥retankoperatÃ¸rene ...... Harald EIA (mv), Gard EIDSVOLD (mv) A. Pendixrud ............. BjÃ¸rn JENSEG (mv) Hvitt punkerblodlegeme ... Jan "Devo" KORNSTAD (mv) / Jan KORNSTAD (mv) Hjerteharpen ............. Tone HULBÃ†KMO (mv) HjernesentraloperatÃ¸ren .. Leif DUBARD (mv) RÃ¸de kjÃ¦rlighetsvakter ... Herborg KRÃ…KEVIK (mv), Helen VIKSTVEDT (mv) Bestefar ................. Terje STRÃ˜MDAHL (mv) Bestemor ................. CÃ¦cilie NORDBY (mv) Bamsens stemme ........... Toralv Maurstad Ã˜vrige medvirkende: Tina HARTVIG (mv), Tinken LAURANTZON (mv), Ã˜ystein SELENIUS (mv), Adolf E. BJERKE (mv), Rune HEKKELSTRAND (mv), Rikke SANDLI (mv), Unn SANDVIG (mv), Celine SAASTAD (mv), Anne STRAY (mv), Arild SÃ˜GAARD (mv), Ruth GURHOLT (mv), Kjetil OLSEN (mv), Ine SANDVIG (mv), Aslaug GUTTORMSGÃ…RD (mv), Kjersti Borchgrevink MAAGERÃ˜ (mv), Kiran SHAH (mv), Camilla HARTVIG (mv), Raymond WIIK (mv).</mastercomment4>
						<clipcommenta/>
						<clipcommentb>1:F-mix venstre 2:F-mix hÃ¸yre 3:-- 4:--.4x3 PAL.</clipcommentb>
					</comments>
					<file id="KOIF43001507AA2"/>
					<filter>
						<effect>
							<name>Distort</name>
							<effectid>deformation</effectid>
							<effectcategory>motion</effectcategory>
							<effecttype>motion</effecttype>
							<mediatype>video</mediatype>
							<parameter>
								<parameterid>aspect</parameterid>
								<name>Aspect</name>
								<valuemin>-10000</valuemin>
								<valuemax>10000</valuemax>
								<value>-42.2222</value>
							</parameter>
						</effect>
					</filter>
					<filter>
						<effect>
							<name>Basic Motion</name>
							<effectid>basic</effectid>
							<effectcategory>motion</effectcategory>
							<effecttype>motion</effecttype>
							<mediatype>video</mediatype>
							<parameter>
								<parameterid>scale</parameterid>
								<name>Scale</name>
								<value>266.667</value>
							</parameter>
						</effect>
					</filter>
					<sourcetrack>
						<mediatype>video</mediatype>
					</sourcetrack>
					<fielddominance>upper</fielddominance>
				</clipitem>
				<clipitem id="KOIF43001507AA10">
					<name>KOIF43001507AA</name>
					<duration>131201</duration>
					<rate>
						<ntsc>FALSE</ntsc>
						<timebase>25</timebase>
					</rate>
					<in>112576</in>
					<out>112664</out>
					<start>8514</start>
					<end>8602</end>
					<pixelaspectratio>PAL-601</pixelaspectratio>
					<enabled>TRUE</enabled>
					<anamorphic>TRUE</anamorphic>
					<alphatype>none</alphatype>
					<masterclipid>KOIF43001507AA1</masterclipid>
					<logginginfo>
						<description>Jakten pÃ¥ nyresteinen</description>
						<scene/>
						<shottake/>
						<lognote/>
						<good>FALSE</good>
					</logginginfo>
					<labels>
						<label2/>
					</labels>
					<comments>
						<mastercomment1>ARKIVSTOFF. BR_FINFREDAG_MSUA_OPRO</mastercomment1>
						<mastercomment2>. Filmkameratene AS. </mastercomment2>
						<mastercomment3>Sendt: 1999-12-20. FILMKAMERATENE; Norge.</mastercomment3>
						<mastercomment4>Norsk spillefilm fra 1996. Bestefar har smerter, men Ã¥tteÃ¥rige Simen vet rÃ¥d. Han tryller seg liten og klatrer inn i bestefars kropp for Ã¥ finne ut hva som er i veien ... Regi: Vibeke IdsÃ¸e. Manus: Vibeke IdsÃ¸e. Musikk: Ragnar Bjerkreim. I rollene: Fru Galle ................ Kjersti HOLMEN (mv) Galle Junior ............. Lage FOSHEIM (mv) Sekr??t Service agent ..... Morten M. FALDAAS (mv) StemmebÃ¥ndsoperatÃ¸ren .... Sigve BÃ˜E (mv) TÃ¥retankoperatÃ¸rene ...... Harald EIA (mv), Gard EIDSVOLD (mv) A. Pendixrud ............. BjÃ¸rn JENSEG (mv) Hvitt punkerblodlegeme ... Jan "Devo" KORNSTAD (mv) / Jan KORNSTAD (mv) Hjerteharpen ............. Tone HULBÃ†KMO (mv) HjernesentraloperatÃ¸ren .. Leif DUBARD (mv) RÃ¸de kjÃ¦rlighetsvakter ... Herborg KRÃ…KEVIK (mv), Helen VIKSTVEDT (mv) Bestefar ................. Terje STRÃ˜MDAHL (mv) Bestemor ................. CÃ¦cilie NORDBY (mv) Bamsens stemme ........... Toralv Maurstad Ã˜vrige medvirkende: Tina HARTVIG (mv), Tinken LAURANTZON (mv), Ã˜ystein SELENIUS (mv), Adolf E. BJERKE (mv), Rune HEKKELSTRAND (mv), Rikke SANDLI (mv), Unn SANDVIG (mv), Celine SAASTAD (mv), Anne STRAY (mv), Arild SÃ˜GAARD (mv), Ruth GURHOLT (mv), Kjetil OLSEN (mv), Ine SANDVIG (mv), Aslaug GUTTORMSGÃ…RD (mv), Kjersti Borchgrevink MAAGERÃ˜ (mv), Kiran SHAH (mv), Camilla HARTVIG (mv), Raymond WIIK (mv).</mastercomment4>
						<clipcommenta/>
						<clipcommentb>1:F-mix venstre 2:F-mix hÃ¸yre 3:-- 4:--.4x3 PAL.</clipcommentb>
					</comments>
					<file id="KOIF43001507AA2"/>
					<filter>
						<effect>
							<name>Distort</name>
							<effectid>deformation</effectid>
							<effectcategory>motion</effectcategory>
							<effecttype>motion</effecttype>
							<mediatype>video</mediatype>
							<parameter>
								<parameterid>aspect</parameterid>
								<name>Aspect</name>
								<valuemin>-10000</valuemin>
								<valuemax>10000</valuemax>
								<value>-42.2222</value>
							</parameter>
						</effect>
					</filter>
					<filter>
						<effect>
							<name>Basic Motion</name>
							<effectid>basic</effectid>
							<effectcategory>motion</effectcategory>
							<effecttype>motion</effecttype>
							<mediatype>video</mediatype>
							<parameter>
								<parameterid>scale</parameterid>
								<name>Scale</name>
								<value>266.667</value>
							</parameter>
						</effect>
					</filter>
					<sourcetrack>
						<mediatype>video</mediatype>
					</sourcetrack>
					<link>
						<linkclipref>KOIF43001507AA10</linkclipref>
						<mediatype>video</mediatype>
						<trackindex>3</trackindex>
						<clipindex>11</clipindex>
					</link>
					<link>
						<linkclipref>KOIF43001507AA11</linkclipref>
						<mediatype>audio</mediatype>
						<trackindex>3</trackindex>
						<clipindex>8</clipindex>
					</link>
					<link>
						<linkclipref>KOIF43001507AA12</linkclipref>
						<mediatype>audio</mediatype>
						<trackindex>4</trackindex>
						<clipindex>11</clipindex>
					</link>
					<fielddominance>upper</fielddominance>
				</clipitem>
				<clipitem id="KOIF43001507AA13">
					<name>KOIF43001507AA</name>
					<duration>131201</duration>
					<rate>
						<ntsc>FALSE</ntsc>
						<timebase>25</timebase>
					</rate>
					<in>112790</in>
					<out>112844</out>
					<start>8602</start>
					<end>8656</end>
					<pixelaspectratio>PAL-601</pixelaspectratio>
					<enabled>TRUE</enabled>
					<anamorphic>TRUE</anamorphic>
					<alphatype>none</alphatype>
					<masterclipid>KOIF43001507AA1</masterclipid>
					<logginginfo>
						<description>Jakten pÃ¥ nyresteinen</description>
						<scene/>
						<shottake/>
						<lognote/>
						<good>FALSE</good>
					</logginginfo>
					<labels>
						<label2/>
					</labels>
					<comments>
						<mastercomment1>ARKIVSTOFF. BR_FINFREDAG_MSUA_OPRO</mastercomment1>
						<mastercomment2>. Filmkameratene AS. </mastercomment2>
						<mastercomment3>Sendt: 1999-12-20. FILMKAMERATENE; Norge.</mastercomment3>
						<mastercomment4>Norsk spillefilm fra 1996. Bestefar har smerter, men Ã¥tteÃ¥rige Simen vet rÃ¥d. Han tryller seg liten og klatrer inn i bestefars kropp for Ã¥ finne ut hva som er i veien ... Regi: Vibeke IdsÃ¸e. Manus: Vibeke IdsÃ¸e. Musikk: Ragnar Bjerkreim. I rollene: Fru Galle ................ Kjersti HOLMEN (mv) Galle Junior ............. Lage FOSHEIM (mv) Sekr??t Service agent ..... Morten M. FALDAAS (mv) StemmebÃ¥ndsoperatÃ¸ren .... Sigve BÃ˜E (mv) TÃ¥retankoperatÃ¸rene ...... Harald EIA (mv), Gard EIDSVOLD (mv) A. Pendixrud ............. BjÃ¸rn JENSEG (mv) Hvitt punkerblodlegeme ... Jan "Devo" KORNSTAD (mv) / Jan KORNSTAD (mv) Hjerteharpen ............. Tone HULBÃ†KMO (mv) HjernesentraloperatÃ¸ren .. Leif DUBARD (mv) RÃ¸de kjÃ¦rlighetsvakter ... Herborg KRÃ…KEVIK (mv), Helen VIKSTVEDT (mv) Bestefar ................. Terje STRÃ˜MDAHL (mv) Bestemor ................. CÃ¦cilie NORDBY (mv) Bamsens stemme ........... Toralv Maurstad Ã˜vrige medvirkende: Tina HARTVIG (mv), Tinken LAURANTZON (mv), Ã˜ystein SELENIUS (mv), Adolf E. BJERKE (mv), Rune HEKKELSTRAND (mv), Rikke SANDLI (mv), Unn SANDVIG (mv), Celine SAASTAD (mv), Anne STRAY (mv), Arild SÃ˜GAARD (mv), Ruth GURHOLT (mv), Kjetil OLSEN (mv), Ine SANDVIG (mv), Aslaug GUTTORMSGÃ…RD (mv), Kjersti Borchgrevink MAAGERÃ˜ (mv), Kiran SHAH (mv), Camilla HARTVIG (mv), Raymond WIIK (mv).</mastercomment4>
						<clipcommenta/>
						<clipcommentb>1:F-mix venstre 2:F-mix hÃ¸yre 3:-- 4:--.4x3 PAL.</clipcommentb>
					</comments>
					<file id="KOIF43001507AA2"/>
					<filter>
						<effect>
							<name>Distort</name>
							<effectid>deformation</effectid>
							<effectcategory>motion</effectcategory>
							<effecttype>motion</effecttype>
							<mediatype>video</mediatype>
							<parameter>
								<parameterid>aspect</parameterid>
								<name>Aspect</name>
								<valuemin>-10000</valuemin>
								<valuemax>10000</valuemax>
								<value>-42.2222</value>
							</parameter>
						</effect>
					</filter>
					<filter>
						<effect>
							<name>Basic Motion</name>
							<effectid>basic</effectid>
							<effectcategory>motion</effectcategory>
							<effecttype>motion</effecttype>
							<mediatype>video</mediatype>
							<parameter>
								<parameterid>scale</parameterid>
								<name>Scale</name>
								<value>266.667</value>
							</parameter>
						</effect>
					</filter>
					<sourcetrack>
						<mediatype>video</mediatype>
					</sourcetrack>
					<link>
						<linkclipref>KOIF43001507AA13</linkclipref>
						<mediatype>video</mediatype>
						<trackindex>3</trackindex>
						<clipindex>12</clipindex>
					</link>
					<link>
						<linkclipref>KOIF43001507AA14</linkclipref>
						<mediatype>audio</mediatype>
						<trackindex>3</trackindex>
						<clipindex>10</clipindex>
					</link>
					<link>
						<linkclipref>KOIF43001507AA15</linkclipref>
						<mediatype>audio</mediatype>
						<trackindex>4</trackindex>
						<clipindex>13</clipindex>
					</link>
					<fielddominance>upper</fielddominance>
				</clipitem>
				<clipitem id="KOIF43001507AA16">
					<name>KOIF43001507AA</name>
					<duration>131201</duration>
					<rate>
						<ntsc>FALSE</ntsc>
						<timebase>25</timebase>
					</rate>
					<in>113426</in>
					<out>113559</out>
					<start>8656</start>
					<end>8789</end>
					<pixelaspectratio>PAL-601</pixelaspectratio>
					<anamorphic>TRUE</anamorphic>
					<alphatype>none</alphatype>
					<masterclipid>KOIF43001507AA1</masterclipid>
					<logginginfo>
						<description>Jakten pÃ¥ nyresteinen</description>
						<scene/>
						<shottake/>
						<lognote/>
						<good>FALSE</good>
					</logginginfo>
					<labels>
						<label2/>
					</labels>
					<comments>
						<mastercomment1>ARKIVSTOFF. BR_FINFREDAG_MSUA_OPRO</mastercomment1>
						<mastercomment2>. Filmkameratene AS. </mastercomment2>
						<mastercomment3>Sendt: 1999-12-20. FILMKAMERATENE; Norge.</mastercomment3>
						<mastercomment4>Norsk spillefilm fra 1996. Bestefar har smerter, men Ã¥tteÃ¥rige Simen vet rÃ¥d. Han tryller seg liten og klatrer inn i bestefars kropp for Ã¥ finne ut hva som er i veien ... Regi: Vibeke IdsÃ¸e. Manus: Vibeke IdsÃ¸e. Musikk: Ragnar Bjerkreim. I rollene: Fru Galle ................ Kjersti HOLMEN (mv) Galle Junior ............. Lage FOSHEIM (mv) Sekr??t Service agent ..... Morten M. FALDAAS (mv) StemmebÃ¥ndsoperatÃ¸ren .... Sigve BÃ˜E (mv) TÃ¥retankoperatÃ¸rene ...... Harald EIA (mv), Gard EIDSVOLD (mv) A. Pendixrud ............. BjÃ¸rn JENSEG (mv) Hvitt punkerblodlegeme ... Jan "Devo" KORNSTAD (mv) / Jan KORNSTAD (mv) Hjerteharpen ............. Tone HULBÃ†KMO (mv) HjernesentraloperatÃ¸ren .. Leif DUBARD (mv) RÃ¸de kjÃ¦rlighetsvakter ... Herborg KRÃ…KEVIK (mv), Helen VIKSTVEDT (mv) Bestefar ................. Terje STRÃ˜MDAHL (mv) Bestemor ................. CÃ¦cilie NORDBY (mv) Bamsens stemme ........... Toralv Maurstad Ã˜vrige medvirkende: Tina HARTVIG (mv), Tinken LAURANTZON (mv), Ã˜ystein SELENIUS (mv), Adolf E. BJERKE (mv), Rune HEKKELSTRAND (mv), Rikke SANDLI (mv), Unn SANDVIG (mv), Celine SAASTAD (mv), Anne STRAY (mv), Arild SÃ˜GAARD (mv), Ruth GURHOLT (mv), Kjetil OLSEN (mv), Ine SANDVIG (mv), Aslaug GUTTORMSGÃ…RD (mv), Kjersti Borchgrevink MAAGERÃ˜ (mv), Kiran SHAH (mv), Camilla HARTVIG (mv), Raymond WIIK (mv).</mastercomment4>
						<clipcommenta/>
						<clipcommentb>1:F-mix venstre 2:F-mix hÃ¸yre 3:-- 4:--.4x3 PAL.</clipcommentb>
					</comments>
					<file id="KOIF43001507AA2"/>
					<filter>
						<effect>
							<name>Distort</name>
							<effectid>deformation</effectid>
							<effectcategory>motion</effectcategory>
							<effecttype>motion</effecttype>
							<mediatype>video</mediatype>
							<parameter>
								<parameterid>aspect</parameterid>
								<name>Aspect</name>
								<valuemin>-10000</valuemin>
								<valuemax>10000</valuemax>
								<value>-42.2222</value>
							</parameter>
						</effect>
					</filter>
					<filter>
						<effect>
							<name>Basic Motion</name>
							<effectid>basic</effectid>
							<effectcategory>motion</effectcategory>
							<effecttype>motion</effecttype>
							<mediatype>video</mediatype>
							<parameter>
								<parameterid>scale</parameterid>
								<name>Scale</name>
								<value>266.667</value>
							</parameter>
						</effect>
					</filter>
					<sourcetrack>
						<mediatype>video</mediatype>
					</sourcetrack>
					<link>
						<linkclipref>KOIF43001507AA16</linkclipref>
						<mediatype>video</mediatype>
						<trackindex>3</trackindex>
						<clipindex>13</clipindex>
					</link>
					<link>
						<linkclipref>KOIF43001507AA17</linkclipref>
						<mediatype>audio</mediatype>
						<trackindex>5</trackindex>
						<clipindex>11</clipindex>
					</link>
					<link>
						<linkclipref>KOIF43001507AA18</linkclipref>
						<mediatype>audio</mediatype>
						<trackindex>6</trackindex>
						<clipindex>10</clipindex>
					</link>
					<fielddominance>upper</fielddominance>
				</clipitem>
				<transitionitem id="920347560 ">
					<rate>
						<ntsc>FALSE</ntsc>
						<timebase>25</timebase>
					</rate>
					<start>21694</start>
					<end>21702</end>
					<alignment>start-black</alignment>
					<effect>
						<name>Push Slide</name>
						<effectid>Push Slide</effectid>
						<effectcategory>Slide</effectcategory>
						<effecttype>transition</effecttype>
						<mediatype>video</mediatype>
						<wipecode>1</wipecode>
						<wipeaccuracy>100</wipeaccuracy>
						<startratio>0</startratio>
						<endratio>1</endratio>
						<reverse>FALSE</reverse>
						<parameter>
							<parameterid>angleofpush</parameterid>
							<name>Angle</name>
							<valuemin>-360</valuemin>
							<valuemax>360</valuemax>
							<value>180</value>
						</parameter>
						<parameter>
							<parameterid>borderwidth</parameterid>
							<name>Border</name>
							<valuemin>0</valuemin>
							<valuemax>10</valuemax>
							<value>0</value>
						</parameter>
						<parameter>
							<parameterid>bordercolor</parameterid>
							<name>Color</name>
							<value>
								<alpha>255</alpha>
								<red>0</red>
								<green>0</green>
								<blue>0</blue>
							</value>
						</parameter>
					</effect>
				</transitionitem>
				<clipitem id="TACO 2 Dare dance versjon1 ">
					<name>TACO 2 Dare dance versjon1</name>
					<duration>932</duration>
					<rate>
						<ntsc>FALSE</ntsc>
						<timebase>25</timebase>
					</rate>
					<in>0</in>
					<out>919</out>
					<start>-1</start>
					<end>-1</end>
					<labels>
						<label>Best Take</label>
					</labels>
					<sequence id="TACO 2 Dare dance versjon1 1">
						<name>TACO 2 Dare dance versjon1</name>
						<duration>932</duration>
						<rate>
							<ntsc>FALSE</ntsc>
							<timebase>25</timebase>
						</rate>
						<timecode>
							<rate>
								<ntsc>FALSE</ntsc>
								<timebase>25</timebase>
							</rate>
							<string>00:00:00:00</string>
							<frame>0</frame>
							<source>source</source>
							<displayformat>NDF</displayformat>
						</timecode>
						<in>-1</in>
						<out>-1</out>
						<media>
							<video>
								<format>
									<samplecharacteristics>
										<width>1920</width>
										<height>1080</height>
										<anamorphic>FALSE</anamorphic>
										<pixelaspectratio>Square</pixelaspectratio>
										<fielddominance>upper</fielddominance>
										<rate>
											<ntsc>FALSE</ntsc>
											<timebase>25</timebase>
										</rate>
										<colordepth>24</colordepth>
										<codec>
											<name>Apple XDCAM 422 1080i50 (50 Mb/s CBR)</name>
											<appspecificdata>
												<appname>Final Cut Pro</appname>
												<appmanufacturer>Apple Inc.</appmanufacturer>
												<appversion>7.0</appversion>
												<data>
													<qtcodec>
														<codecname>Apple XDCAM 422 1080i50 (50 Mb/s CBR)</codecname>
														<codectypename>XDCAM 422 1080i50 (50 Mb/s CBR)</codectypename>
														<codectypecode>xd5c</codectypecode>
														<codecvendorcode>appl</codecvendorcode>
														<spatialquality>1023</spatialquality>
														<temporalquality>0</temporalquality>
														<keyframerate>0</keyframerate>
														<datarate>0</datarate>
													</qtcodec>
												</data>
											</appspecificdata>
										</codec>
									</samplecharacteristics>
									<appspecificdata>
										<appname>Final Cut Pro</appname>
										<appmanufacturer>Apple Inc.</appmanufacturer>
										<appversion>7.0</appversion>
										<data>
											<fcpimageprocessing>
												<useyuv>TRUE</useyuv>
												<usesuperwhite>FALSE</usesuperwhite>
												<rendermode>YUV8BPP</rendermode>
											</fcpimageprocessing>
										</data>
									</appspecificdata>
								</format>
								<track>
									<clipitem id="msub200012-2211084 ">
										<name>msub200012-2211084</name>
										<duration>2364</duration>
										<rate>
											<ntsc>FALSE</ntsc>
											<timebase>25</timebase>
										</rate>
										<in>298</in>
										<out>420</out>
										<start>0</start>
										<end>122</end>
										<pixelaspectratio>Square</pixelaspectratio>
										<enabled>TRUE</enabled>
										<anamorphic>FALSE</anamorphic>
										<alphatype>none</alphatype>
										<alphareverse>FALSE</alphareverse>
										<masterclipid>msub200012-2211084 1</masterclipid>
										<logginginfo>
											<description>msub200012-2211084</description>
											<scene/>
											<shottake/>
											<lognote/>
											<good>FALSE</good>
										</logginginfo>
										<labels>
											<label2/>
										</labels>
										<comments>
											<mastercomment1>BARN OG UNGDOM. BR_FINFREDAG_MSUA_OPRO</mastercomment1>
											<mastercomment2/>
											<mastercomment3/>
											<mastercomment4/>
											<clipcommenta/>
										</comments>
										<file id="msub200012-2211084 2">
											<name>msub200012-2211084.MXF</name>
											<pathurl>file://localhost/omfs/clip.dir/MXF/1080i/msub200012-2211084.MXF</pathurl>
											<rate>
												<timebase>25</timebase>
											</rate>
											<duration>2364</duration>
											<timecode>
												<rate>
													<timebase>25</timebase>
												</rate>
												<string>01:49:06:06</string>
												<frame>163656</frame>
												<displayformat>NDF</displayformat>
												<source>source</source>
											</timecode>
											<media>
												<video>
													<duration>2364</duration>
													<samplecharacteristics>
														<width>1920</width>
														<height>1080</height>
													</samplecharacteristics>
												</video>
												<audio>
													<rate>
														<timebase>48000</timebase>
													</rate>
													<trackcount>1</trackcount>
													<samplecharacteristics>
														<depth>24</depth>
													</samplecharacteristics>
												</audio>
											</media>
										</file>
										<sourcetrack>
											<mediatype>video</mediatype>
										</sourcetrack>
										<link>
											<linkclipref>msub200012-2211084 </linkclipref>
											<mediatype>video</mediatype>
											<trackindex>1</trackindex>
											<clipindex>1</clipindex>
										</link>
										<link>
											<linkclipref>msub200012-2211084 3</linkclipref>
											<mediatype>audio</mediatype>
											<trackindex>1</trackindex>
											<clipindex>1</clipindex>
										</link>
										<fielddominance>upper</fielddominance>
									</clipitem>
									<clipitem id="msub200012-2211084 4">
										<name>msub200012-2211084</name>
										<duration>2364</duration>
										<rate>
											<ntsc>FALSE</ntsc>
											<timebase>25</timebase>
										</rate>
										<in>420</in>
										<out>466</out>
										<start>122</start>
										<end>168</end>
										<pixelaspectratio>Square</pixelaspectratio>
										<enabled>TRUE</enabled>
										<anamorphic>FALSE</anamorphic>
										<alphatype>none</alphatype>
										<alphareverse>FALSE</alphareverse>
										<masterclipid>msub200012-2211084 1</masterclipid>
										<logginginfo>
											<description>msub200012-2211084</description>
											<scene/>
											<shottake/>
											<lognote/>
											<good>FALSE</good>
										</logginginfo>
										<labels>
											<label2/>
										</labels>
										<comments>
											<mastercomment1>BARN OG UNGDOM. BR_FINFREDAG_MSUA_OPRO</mastercomment1>
											<mastercomment2/>
											<mastercomment3/>
											<mastercomment4/>
											<clipcommenta/>
										</comments>
										<file id="msub200012-2211084 2"/>
										<sourcetrack>
											<mediatype>video</mediatype>
										</sourcetrack>
										<fielddominance>upper</fielddominance>
									</clipitem>
									<clipitem id="msub200012-2211013 ">
										<name>msub200012-2211013</name>
										<duration>660</duration>
										<rate>
											<ntsc>FALSE</ntsc>
											<timebase>25</timebase>
										</rate>
										<in>190</in>
										<out>287</out>
										<start>168</start>
										<end>265</end>
										<pixelaspectratio>Square</pixelaspectratio>
										<enabled>TRUE</enabled>
										<anamorphic>FALSE</anamorphic>
										<alphatype>none</alphatype>
										<alphareverse>FALSE</alphareverse>
										<masterclipid>msub200012-2211013 1</masterclipid>
										<logginginfo>
											<description>msub200012-2211013</description>
											<scene/>
											<shottake/>
											<lognote/>
											<good>FALSE</good>
										</logginginfo>
										<labels>
											<label2/>
										</labels>
										<comments>
											<mastercomment1>BARN OG UNGDOM. BR_FINFREDAG_MSUA_OPRO</mastercomment1>
											<mastercomment2/>
											<mastercomment3/>
											<mastercomment4/>
											<clipcommenta/>
										</comments>
										<file id="msub200012-2211013 2">
											<name>msub200012-2211013.MXF</name>
											<pathurl>file://localhost/omfs/clip.dir/MXF/1080i/msub200012-2211013.MXF</pathurl>
											<rate>
												<timebase>25</timebase>
											</rate>
											<duration>660</duration>
											<timecode>
												<rate>
													<timebase>25</timebase>
												</rate>
												<string>01:06:36:00</string>
												<frame>99900</frame>
												<displayformat>NDF</displayformat>
												<source>source</source>
											</timecode>
											<media>
												<video>
													<duration>660</duration>
													<samplecharacteristics>
														<width>1920</width>
														<height>1080</height>
													</samplecharacteristics>
												</video>
												<audio>
													<rate>
														<timebase>48000</timebase>
													</rate>
													<trackcount>1</trackcount>
													<samplecharacteristics>
														<depth>24</depth>
													</samplecharacteristics>
												</audio>
											</media>
										</file>
										<sourcetrack>
											<mediatype>video</mediatype>
										</sourcetrack>
										<link>
											<linkclipref>msub200012-2211013 </linkclipref>
											<mediatype>video</mediatype>
											<trackindex>1</trackindex>
											<clipindex>3</clipindex>
										</link>
										<link>
											<linkclipref>msub200012-2211013 3</linkclipref>
											<mediatype>audio</mediatype>
											<trackindex>1</trackindex>
											<clipindex>3</clipindex>
										</link>
										<fielddominance>upper</fielddominance>
									</clipitem>
									<clipitem id="msub200012-2211053 ">
										<name>msub200012-2211053</name>
										<duration>1644</duration>
										<rate>
											<ntsc>FALSE</ntsc>
											<timebase>25</timebase>
										</rate>
										<in>153</in>
										<out>246</out>
										<start>265</start>
										<end>358</end>
										<pixelaspectratio>Square</pixelaspectratio>
										<enabled>TRUE</enabled>
										<anamorphic>FALSE</anamorphic>
										<alphatype>none</alphatype>
										<alphareverse>FALSE</alphareverse>
										<masterclipid>msub200012-2211053 1</masterclipid>
										<logginginfo>
											<description>msub200012-2211053</description>
											<scene/>
											<shottake/>
											<lognote/>
											<good>FALSE</good>
										</logginginfo>
										<labels>
											<label2/>
										</labels>
										<comments>
											<mastercomment1>BARN OG UNGDOM. BR_FINFREDAG_MSUA_OPRO</mastercomment1>
											<mastercomment2/>
											<mastercomment3/>
											<mastercomment4/>
											<clipcommenta/>
										</comments>
										<file id="msub200012-2211053 2">
											<name>msub200012-2211053.MXF</name>
											<pathurl>file://localhost/omfs/clip.dir/MXF/1080i/msub200012-2211053.MXF</pathurl>
											<rate>
												<timebase>25</timebase>
											</rate>
											<duration>1644</duration>
											<timecode>
												<rate>
													<timebase>25</timebase>
												</rate>
												<string>01:27:09:03</string>
												<frame>130728</frame>
												<displayformat>NDF</displayformat>
												<source>source</source>
											</timecode>
											<media>
												<video>
													<duration>1644</duration>
													<samplecharacteristics>
														<width>1920</width>
														<height>1080</height>
													</samplecharacteristics>
												</video>
												<audio>
													<rate>
														<timebase>48000</timebase>
													</rate>
													<trackcount>1</trackcount>
													<samplecharacteristics>
														<depth>24</depth>
													</samplecharacteristics>
												</audio>
											</media>
										</file>
										<sourcetrack>
											<mediatype>video</mediatype>
										</sourcetrack>
										<link>
											<linkclipref>msub200012-2211053 </linkclipref>
											<mediatype>video</mediatype>
											<trackindex>1</trackindex>
											<clipindex>4</clipindex>
										</link>
										<link>
											<linkclipref>msub200012-2211053 3</linkclipref>
											<mediatype>audio</mediatype>
											<trackindex>1</trackindex>
											<clipindex>5</clipindex>
										</link>
										<fielddominance>upper</fielddominance>
									</clipitem>
									<clipitem id="msub200012-2211039 ">
										<name>msub200012-2211039</name>
										<duration>1824</duration>
										<rate>
											<ntsc>FALSE</ntsc>
											<timebase>25</timebase>
										</rate>
										<in>1106</in>
										<out>1195</out>
										<start>358</start>
										<end>447</end>
										<pixelaspectratio>Square</pixelaspectratio>
										<enabled>TRUE</enabled>
										<anamorphic>FALSE</anamorphic>
										<alphatype>none</alphatype>
										<alphareverse>FALSE</alphareverse>
										<masterclipid>msub200012-2211039 1</masterclipid>
										<logginginfo>
											<description>msub200012-2211039</description>
											<scene/>
											<shottake/>
											<lognote/>
											<good>FALSE</good>
										</logginginfo>
										<labels>
											<label2/>
										</labels>
										<comments>
											<mastercomment1>BARN OG UNGDOM. BR_FINFREDAG_MSUA_OPRO</mastercomment1>
											<mastercomment2/>
											<mastercomment3/>
											<mastercomment4/>
											<clipcommenta/>
										</comments>
										<file id="msub200012-2211039 2">
											<name>msub200012-2211039.MXF</name>
											<pathurl>file://localhost/omfs/clip.dir/MXF/1080i/msub200012-2211039.MXF</pathurl>
											<rate>
												<timebase>25</timebase>
											</rate>
											<duration>1824</duration>
											<timecode>
												<rate>
													<timebase>25</timebase>
												</rate>
												<string>01:19:43:17</string>
												<frame>119592</frame>
												<displayformat>NDF</displayformat>
												<source>source</source>
											</timecode>
											<media>
												<video>
													<duration>1824</duration>
													<samplecharacteristics>
														<width>1920</width>
														<height>1080</height>
													</samplecharacteristics>
												</video>
												<audio>
													<rate>
														<timebase>48000</timebase>
													</rate>
													<trackcount>1</trackcount>
													<samplecharacteristics>
														<depth>24</depth>
													</samplecharacteristics>
												</audio>
											</media>
										</file>
										<sourcetrack>
											<mediatype>video</mediatype>
										</sourcetrack>
										<link>
											<linkclipref>msub200012-2211039 </linkclipref>
											<mediatype>video</mediatype>
											<trackindex>1</trackindex>
											<clipindex>5</clipindex>
										</link>
										<link>
											<linkclipref>msub200012-2211039 3</linkclipref>
											<mediatype>audio</mediatype>
											<trackindex>1</trackindex>
											<clipindex>7</clipindex>
										</link>
										<fielddominance>upper</fielddominance>
									</clipitem>
									<clipitem id="msub200012-2211045 ">
										<name>msub200012-2211045</name>
										<duration>552</duration>
										<rate>
											<ntsc>FALSE</ntsc>
											<timebase>25</timebase>
										</rate>
										<in>262</in>
										<out>400</out>
										<start>447</start>
										<end>585</end>
										<pixelaspectratio>Square</pixelaspectratio>
										<enabled>TRUE</enabled>
										<anamorphic>FALSE</anamorphic>
										<alphatype>none</alphatype>
										<alphareverse>FALSE</alphareverse>
										<masterclipid>msub200012-2211045 1</masterclipid>
										<logginginfo>
											<description>msub200012-2211045</description>
											<scene/>
											<shottake/>
											<lognote/>
											<good>FALSE</good>
										</logginginfo>
										<labels>
											<label2/>
										</labels>
										<comments>
											<mastercomment1>BARN OG UNGDOM. BR_FINFREDAG_MSUA_OPRO</mastercomment1>
											<mastercomment2/>
											<mastercomment3/>
											<mastercomment4/>
											<clipcommenta/>
										</comments>
										<file id="msub200012-2211045 2">
											<name>msub200012-2211045.MXF</name>
											<pathurl>file://localhost/omfs/clip.dir/MXF/1080i/msub200012-2211045.MXF</pathurl>
											<rate>
												<timebase>25</timebase>
											</rate>
											<duration>552</duration>
											<timecode>
												<rate>
													<timebase>25</timebase>
												</rate>
												<string>01:23:42:06</string>
												<frame>125556</frame>
												<displayformat>NDF</displayformat>
												<source>source</source>
											</timecode>
											<media>
												<video>
													<duration>552</duration>
													<samplecharacteristics>
														<width>1920</width>
														<height>1080</height>
													</samplecharacteristics>
												</video>
												<audio>
													<rate>
														<timebase>48000</timebase>
													</rate>
													<trackcount>1</trackcount>
													<samplecharacteristics>
														<depth>24</depth>
													</samplecharacteristics>
												</audio>
											</media>
										</file>
										<sourcetrack>
											<mediatype>video</mediatype>
										</sourcetrack>
										<link>
											<linkclipref>msub200012-2211045 </linkclipref>
											<mediatype>video</mediatype>
											<trackindex>1</trackindex>
											<clipindex>6</clipindex>
										</link>
										<link>
											<linkclipref>msub200012-2211045 3</linkclipref>
											<mediatype>audio</mediatype>
											<trackindex>1</trackindex>
											<clipindex>9</clipindex>
										</link>
										<fielddominance>upper</fielddominance>
									</clipitem>
									<clipitem id="msub200012-2211035 3">
										<name>msub200012-2211035</name>
										<duration>852</duration>
										<rate>
											<ntsc>FALSE</ntsc>
											<timebase>25</timebase>
										</rate>
										<in>139</in>
										<out>281</out>
										<start>585</start>
										<end>727</end>
										<pixelaspectratio>Square</pixelaspectratio>
										<enabled>TRUE</enabled>
										<anamorphic>FALSE</anamorphic>
										<alphatype>none</alphatype>
										<alphareverse>FALSE</alphareverse>
										<masterclipid>msub200012-2211035 1</masterclipid>
										<logginginfo>
											<description>msub200012-2211035</description>
											<scene/>
											<shottake/>
											<lognote/>
											<good>FALSE</good>
										</logginginfo>
										<labels>
											<label2/>
										</labels>
										<comments>
											<mastercomment1>BARN OG UNGDOM. BR_FINFREDAG_MSUA_OPRO</mastercomment1>
											<mastercomment2/>
											<mastercomment3/>
											<mastercomment4/>
											<clipcommenta/>
										</comments>
										<file id="msub200012-2211035 2"/>
										<sourcetrack>
											<mediatype>video</mediatype>
										</sourcetrack>
										<link>
											<linkclipref>msub200012-2211035 3</linkclipref>
											<mediatype>video</mediatype>
											<trackindex>1</trackindex>
											<clipindex>7</clipindex>
										</link>
										<link>
											<linkclipref>msub200012-2211035 4</linkclipref>
											<mediatype>audio</mediatype>
											<trackindex>1</trackindex>
											<clipindex>11</clipindex>
										</link>
										<fielddominance>upper</fielddominance>
									</clipitem>
									<clipitem id="msub200012-2211053 4">
										<name>msub200012-2211053</name>
										<duration>1644</duration>
										<rate>
											<ntsc>FALSE</ntsc>
											<timebase>25</timebase>
										</rate>
										<in>1039</in>
										<out>1217</out>
										<start>754</start>
										<end>932</end>
										<pixelaspectratio>Square</pixelaspectratio>
										<enabled>TRUE</enabled>
										<anamorphic>FALSE</anamorphic>
										<alphatype>none</alphatype>
										<alphareverse>FALSE</alphareverse>
										<masterclipid>msub200012-2211053 1</masterclipid>
										<logginginfo>
											<description>msub200012-2211053</description>
											<scene/>
											<shottake/>
											<lognote/>
											<good>FALSE</good>
										</logginginfo>
										<labels>
											<label2/>
										</labels>
										<comments>
											<mastercomment1>BARN OG UNGDOM. BR_FINFREDAG_MSUA_OPRO</mastercomment1>
											<mastercomment2/>
											<mastercomment3/>
											<mastercomment4/>
											<clipcommenta/>
										</comments>
										<file id="msub200012-2211053 2"/>
										<sourcetrack>
											<mediatype>video</mediatype>
										</sourcetrack>
										<link>
											<linkclipref>msub200012-2211053 4</linkclipref>
											<mediatype>video</mediatype>
											<trackindex>1</trackindex>
											<clipindex>8</clipindex>
										</link>
										<link>
											<linkclipref>msub200012-2211053 5</linkclipref>
											<mediatype>audio</mediatype>
											<trackindex>1</trackindex>
											<clipindex>12</clipindex>
										</link>
										<fielddominance>upper</fielddominance>
									</clipitem>
									<enabled>TRUE</enabled>
									<locked>FALSE</locked>
								</track>
								<track>
									<clipitem id="msub200012-2211078 ">
										<name>msub200012-2211078</name>
										<duration>2496</duration>
										<rate>
											<ntsc>FALSE</ntsc>
											<timebase>25</timebase>
										</rate>
										<in>771</in>
										<out>815</out>
										<start>726</start>
										<end>770</end>
										<pixelaspectratio>Square</pixelaspectratio>
										<enabled>TRUE</enabled>
										<anamorphic>FALSE</anamorphic>
										<alphatype>none</alphatype>
										<alphareverse>FALSE</alphareverse>
										<masterclipid>msub200012-2211078 1</masterclipid>
										<logginginfo>
											<description>msub200012-2211078</description>
											<scene/>
											<shottake/>
											<lognote/>
											<good>FALSE</good>
										</logginginfo>
										<labels>
											<label2/>
										</labels>
										<comments>
											<mastercomment1>BARN OG UNGDOM. BR_FINFREDAG_MSUA_OPRO</mastercomment1>
											<mastercomment2/>
											<mastercomment3/>
											<mastercomment4/>
											<clipcommenta/>
										</comments>
										<file id="msub200012-2211078 2">
											<name>msub200012-2211078.MXF</name>
											<pathurl>file://localhost/omfs/clip.dir/MXF/1080i/msub200012-2211078.MXF</pathurl>
											<rate>
												<timebase>25</timebase>
											</rate>
											<duration>2496</duration>
											<timecode>
												<rate>
													<timebase>25</timebase>
												</rate>
												<string>01:43:43:05</string>
												<frame>155580</frame>
												<displayformat>NDF</displayformat>
												<source>source</source>
											</timecode>
											<media>
												<video>
													<duration>2496</duration>
													<samplecharacteristics>
														<width>1920</width>
														<height>1080</height>
													</samplecharacteristics>
												</video>
												<audio>
													<rate>
														<timebase>48000</timebase>
													</rate>
													<trackcount>1</trackcount>
													<samplecharacteristics>
														<depth>24</depth>
													</samplecharacteristics>
												</audio>
											</media>
										</file>
										<sourcetrack>
											<mediatype>video</mediatype>
										</sourcetrack>
										<link>
											<linkclipref>msub200012-2211078 </linkclipref>
											<mediatype>video</mediatype>
											<trackindex>2</trackindex>
											<clipindex>1</clipindex>
										</link>
										<link>
											<linkclipref>msub200012-2211078 3</linkclipref>
											<mediatype>audio</mediatype>
											<trackindex>3</trackindex>
											<clipindex>3</clipindex>
										</link>
										<fielddominance>upper</fielddominance>
									</clipitem>
									<enabled>TRUE</enabled>
									<locked>FALSE</locked>
								</track>
							</video>
							<audio>
								<format>
									<samplecharacteristics>
										<depth>24</depth>
										<samplerate>48000</samplerate>
									</samplecharacteristics>
								</format>
								<outputs>
									<group>
										<index>1</index>
										<numchannels>2</numchannels>
										<downmix>0</downmix>
										<channel>
											<index>1</index>
										</channel>
										<channel>
											<index>2</index>
										</channel>
									</group>
								</outputs>
								<in>-1</in>
								<out>-1</out>
								<track>
									<clipitem id="msub200012-2211084 3">
										<name>msub200012-2211084</name>
										<duration>2364</duration>
										<rate>
											<ntsc>FALSE</ntsc>
											<timebase>25</timebase>
										</rate>
										<in>298</in>
										<out>469</out>
										<start>0</start>
										<end>-1</end>
										<subframeoffset>0</subframeoffset>
										<anamorphic>FALSE</anamorphic>
										<alphareverse>FALSE</alphareverse>
										<masterclipid>msub200012-2211084 1</masterclipid>
										<logginginfo>
											<description>msub200012-2211084</description>
											<scene/>
											<shottake/>
											<lognote/>
											<good>FALSE</good>
										</logginginfo>
										<labels>
											<label2/>
										</labels>
										<comments>
											<mastercomment1>BARN OG UNGDOM. BR_FINFREDAG_MSUA_OPRO</mastercomment1>
											<mastercomment2/>
											<mastercomment3/>
											<mastercomment4/>
											<clipcommenta/>
										</comments>
										<file id="msub200012-2211084 2"/>
										<filter>
											<effect>
												<name>Audio Levels</name>
												<effectid>audiolevels</effectid>
												<effectcategory>audiolevels</effectcategory>
												<effecttype>audiolevels</effecttype>
												<mediatype>audio</mediatype>
												<parameter>
													<name>Level</name>
													<parameterid>level</parameterid>
													<valuemin>0</valuemin>
													<valuemax>3.98109</valuemax>
													<keyframe>
														<when>299.821</when>
														<value>0.0630957</value>
													</keyframe>
													<keyframe>
														<when>312.571</when>
														<value>1</value>
													</keyframe>
													<keyframe>
														<when>346.571</when>
														<value>1</value>
													</keyframe>
													<keyframe>
														<when>355.679</when>
														<value>1.77828</value>
													</keyframe>
													<interpolation>
														<name>FCPCurve</name>
													</interpolation>
													<value>1</value>
												</parameter>
											</effect>
										</filter>
										<filter>
											<effect>
												<name>Audio Pan</name>
												<effectid>audiopan</effectid>
												<effectcategory>audiopan</effectcategory>
												<effecttype>audiopan</effecttype>
												<mediatype>audio</mediatype>
												<parameter>
													<name>Pan</name>
													<parameterid>pan</parameterid>
													<valuemin>-1</valuemin>
													<valuemax>1</valuemax>
													<value>0</value>
												</parameter>
											</effect>
										</filter>
										<sourcetrack>
											<mediatype>audio</mediatype>
											<trackindex>1</trackindex>
										</sourcetrack>
										<link>
											<linkclipref>msub200012-2211084 </linkclipref>
											<mediatype>video</mediatype>
											<trackindex>1</trackindex>
											<clipindex>1</clipindex>
										</link>
										<link>
											<linkclipref>msub200012-2211084 3</linkclipref>
											<mediatype>audio</mediatype>
											<trackindex>1</trackindex>
											<clipindex>1</clipindex>
										</link>
									</clipitem>
									<transitionitem id="920351504 ">
										<rate>
											<ntsc>FALSE</ntsc>
											<timebase>25</timebase>
										</rate>
										<start>165</start>
										<end>171</end>
										<alignment>center</alignment>
										<effect>
											<name>Cross Fade (+3dB)</name>
											<effecttype>transition</effecttype>
											<mediatype>audio</mediatype>
										</effect>
									</transitionitem>
									<clipitem id="msub200012-2211013 3">
										<name>msub200012-2211013</name>
										<duration>660</duration>
										<rate>
											<ntsc>FALSE</ntsc>
											<timebase>25</timebase>
										</rate>
										<in>187</in>
										<out>283</out>
										<start>-1</start>
										<end>-1</end>
										<subframeoffset>0</subframeoffset>
										<anamorphic>FALSE</anamorphic>
										<alphareverse>FALSE</alphareverse>
										<masterclipid>msub200012-2211013 1</masterclipid>
										<logginginfo>
											<description>msub200012-2211013</description>
											<scene/>
											<shottake/>
											<lognote/>
											<good>FALSE</good>
										</logginginfo>
										<labels>
											<label2/>
										</labels>
										<comments>
											<mastercomment1>BARN OG UNGDOM. BR_FINFREDAG_MSUA_OPRO</mastercomment1>
											<mastercomment2/>
											<mastercomment3/>
											<mastercomment4/>
											<clipcommenta/>
										</comments>
										<file id="msub200012-2211013 2"/>
										<filter>
											<effect>
												<name>Audio Levels</name>
												<effectid>audiolevels</effectid>
												<effectcategory>audiolevels</effectcategory>
												<effecttype>audiolevels</effecttype>
												<mediatype>audio</mediatype>
												<parameter>
													<name>Level</name>
													<parameterid>level</parameterid>
													<valuemin>0</valuemin>
													<valuemax>3.98109</valuemax>
													<value>1</value>
												</parameter>
											</effect>
										</filter>
										<filter>
											<effect>
												<name>Audio Pan</name>
												<effectid>audiopan</effectid>
												<effectcategory>audiopan</effectcategory>
												<effecttype>audiopan</effecttype>
												<mediatype>audio</mediatype>
												<parameter>
													<name>Pan</name>
													<parameterid>pan</parameterid>
													<valuemin>-1</valuemin>
													<valuemax>1</valuemax>
													<value>0</value>
												</parameter>
											</effect>
										</filter>
										<sourcetrack>
											<mediatype>audio</mediatype>
											<trackindex>1</trackindex>
										</sourcetrack>
										<link>
											<linkclipref>msub200012-2211013 </linkclipref>
											<mediatype>video</mediatype>
											<trackindex>1</trackindex>
											<clipindex>3</clipindex>
										</link>
										<link>
											<linkclipref>msub200012-2211013 3</linkclipref>
											<mediatype>audio</mediatype>
											<trackindex>1</trackindex>
											<clipindex>3</clipindex>
										</link>
									</clipitem>
									<transitionitem id="13">
										<rate>
											<ntsc>FALSE</ntsc>
											<timebase>25</timebase>
										</rate>
										<start>255</start>
										<end>261</end>
										<alignment>center</alignment>
										<effect>
											<name>Cross Fade (+3dB) Copy</name>
											<effecttype>transition</effecttype>
											<mediatype>audio</mediatype>
										</effect>
									</transitionitem>
									<clipitem id="msub200012-2211053 3">
										<name>msub200012-2211053</name>
										<duration>1644</duration>
										<rate>
											<ntsc>FALSE</ntsc>
											<timebase>25</timebase>
										</rate>
										<in>143</in>
										<out>249</out>
										<start>-1</start>
										<end>-1</end>
										<subframeoffset>0</subframeoffset>
										<anamorphic>FALSE</anamorphic>
										<alphareverse>FALSE</alphareverse>
										<masterclipid>msub200012-2211053 1</masterclipid>
										<logginginfo>
											<description>msub200012-2211053</description>
											<scene/>
											<shottake/>
											<lognote/>
											<good>FALSE</good>
										</logginginfo>
										<labels>
											<label2/>
										</labels>
										<comments>
											<mastercomment1>BARN OG UNGDOM. BR_FINFREDAG_MSUA_OPRO</mastercomment1>
											<mastercomment2/>
											<mastercomment3/>
											<mastercomment4/>
											<clipcommenta/>
										</comments>
										<file id="msub200012-2211053 2"/>
										<filter>
											<effect>
												<name>Audio Levels</name>
												<effectid>audiolevels</effectid>
												<effectcategory>audiolevels</effectcategory>
												<effecttype>audiolevels</effecttype>
												<mediatype>audio</mediatype>
												<parameter>
													<name>Level</name>
													<parameterid>level</parameterid>
													<valuemin>0</valuemin>
													<valuemax>3.98109</valuemax>
													<value>1</value>
												</parameter>
											</effect>
										</filter>
										<filter>
											<effect>
												<name>Audio Pan</name>
												<effectid>audiopan</effectid>
												<effectcategory>audiopan</effectcategory>
												<effecttype>audiopan</effecttype>
												<mediatype>audio</mediatype>
												<parameter>
													<name>Pan</name>
													<parameterid>pan</parameterid>
													<valuemin>-1</valuemin>
													<valuemax>1</valuemax>
													<value>0</value>
												</parameter>
											</effect>
										</filter>
										<sourcetrack>
											<mediatype>audio</mediatype>
											<trackindex>1</trackindex>
										</sourcetrack>
										<link>
											<linkclipref>msub200012-2211053 </linkclipref>
											<mediatype>video</mediatype>
											<trackindex>1</trackindex>
											<clipindex>4</clipindex>
										</link>
										<link>
											<linkclipref>msub200012-2211053 3</linkclipref>
											<mediatype>audio</mediatype>
											<trackindex>1</trackindex>
											<clipindex>5</clipindex>
										</link>
									</clipitem>
									<transitionitem id="920353204 ">
										<rate>
											<ntsc>FALSE</ntsc>
											<timebase>25</timebase>
										</rate>
										<start>355</start>
										<end>361</end>
										<alignment>center</alignment>
										<effect>
											<name>Cross Fade (+3dB)</name>
											<effecttype>transition</effecttype>
											<mediatype>audio</mediatype>
										</effect>
									</transitionitem>
									<clipitem id="msub200012-2211039 3">
										<name>msub200012-2211039</name>
										<duration>1824</duration>
										<rate>
											<ntsc>FALSE</ntsc>
											<timebase>25</timebase>
										</rate>
										<in>1103</in>
										<out>1198</out>
										<start>-1</start>
										<end>-1</end>
										<subframeoffset>0</subframeoffset>
										<enabled>TRUE</enabled>
										<anamorphic>FALSE</anamorphic>
										<alphareverse>FALSE</alphareverse>
										<masterclipid>msub200012-2211039 1</masterclipid>
										<logginginfo>
											<description>msub200012-2211039</description>
											<scene/>
											<shottake/>
											<lognote/>
											<good>FALSE</good>
										</logginginfo>
										<labels>
											<label2/>
										</labels>
										<comments>
											<mastercomment1>BARN OG UNGDOM. BR_FINFREDAG_MSUA_OPRO</mastercomment1>
											<mastercomment2/>
											<mastercomment3/>
											<mastercomment4/>
											<clipcommenta/>
										</comments>
										<file id="msub200012-2211039 2"/>
										<filter>
											<effect>
												<name>Audio Levels</name>
												<effectid>audiolevels</effectid>
												<effectcategory>audiolevels</effectcategory>
												<effecttype>audiolevels</effecttype>
												<mediatype>audio</mediatype>
												<parameter>
													<name>Level</name>
													<parameterid>level</parameterid>
													<valuemin>0</valuemin>
													<valuemax>3.98109</valuemax>
													<value>0.446684</value>
												</parameter>
											</effect>
										</filter>
										<filter>
											<effect>
												<name>Audio Pan</name>
												<effectid>audiopan</effectid>
												<effectcategory>audiopan</effectcategory>
												<effecttype>audiopan</effecttype>
												<mediatype>audio</mediatype>
												<parameter>
													<name>Pan</name>
													<parameterid>pan</parameterid>
													<valuemin>-1</valuemin>
													<valuemax>1</valuemax>
													<value>0</value>
												</parameter>
											</effect>
										</filter>
										<sourcetrack>
											<mediatype>audio</mediatype>
											<trackindex>1</trackindex>
										</sourcetrack>
										<link>
											<linkclipref>msub200012-2211039 </linkclipref>
											<mediatype>video</mediatype>
											<trackindex>1</trackindex>
											<clipindex>5</clipindex>
										</link>
										<link>
											<linkclipref>msub200012-2211039 3</linkclipref>
											<mediatype>audio</mediatype>
											<trackindex>1</trackindex>
											<clipindex>7</clipindex>
										</link>
									</clipitem>
									<transitionitem id="920354088 ">
										<rate>
											<ntsc>FALSE</ntsc>
											<timebase>25</timebase>
										</rate>
										<start>444</start>
										<end>450</end>
										<alignment>center</alignment>
										<effect>
											<name>Cross Fade (+3dB)</name>
											<effecttype>transition</effecttype>
											<mediatype>audio</mediatype>
										</effect>
									</transitionitem>
									<clipitem id="msub200012-2211045 3">
										<name>msub200012-2211045</name>
										<duration>552</duration>
										<rate>
											<ntsc>FALSE</ntsc>
											<timebase>25</timebase>
										</rate>
										<in>259</in>
										<out>403</out>
										<start>-1</start>
										<end>-1</end>
										<subframeoffset>0</subframeoffset>
										<anamorphic>FALSE</anamorphic>
										<alphareverse>FALSE</alphareverse>
										<masterclipid>msub200012-2211045 1</masterclipid>
										<logginginfo>
											<description>msub200012-2211045</description>
											<scene/>
											<shottake/>
											<lognote/>
											<good>FALSE</good>
										</logginginfo>
										<labels>
											<label2/>
										</labels>
										<comments>
											<mastercomment1>BARN OG UNGDOM. BR_FINFREDAG_MSUA_OPRO</mastercomment1>
											<mastercomment2/>
											<mastercomment3/>
											<mastercomment4/>
											<clipcommenta/>
										</comments>
										<file id="msub200012-2211045 2"/>
										<filter>
											<effect>
												<name>Audio Levels</name>
												<effectid>audiolevels</effectid>
												<effectcategory>audiolevels</effectcategory>
												<effecttype>audiolevels</effecttype>
												<mediatype>audio</mediatype>
												<parameter>
													<name>Level</name>
													<parameterid>level</parameterid>
													<valuemin>0</valuemin>
													<valuemax>3.98109</valuemax>
													<keyframe>
														<when>294.036</when>
														<value>1</value>
													</keyframe>
													<keyframe>
														<when>326.214</when>
														<value>1.58489</value>
													</keyframe>
													<keyframe>
														<when>348.679</when>
														<value>1.58489</value>
													</keyframe>
													<keyframe>
														<when>355.357</when>
														<value>0.199526</value>
													</keyframe>
													<keyframe>
														<when>377.821</when>
														<value>0.199526</value>
													</keyframe>
													<keyframe>
														<when>386.321</when>
														<value>0.501187</value>
													</keyframe>
													<interpolation>
														<name>FCPCurve</name>
													</interpolation>
													<value>1</value>
												</parameter>
											</effect>
										</filter>
										<filter>
											<effect>
												<name>Audio Pan</name>
												<effectid>audiopan</effectid>
												<effectcategory>audiopan</effectcategory>
												<effecttype>audiopan</effecttype>
												<mediatype>audio</mediatype>
												<parameter>
													<name>Pan</name>
													<parameterid>pan</parameterid>
													<valuemin>-1</valuemin>
													<valuemax>1</valuemax>
													<value>0</value>
												</parameter>
											</effect>
										</filter>
										<sourcetrack>
											<mediatype>audio</mediatype>
											<trackindex>1</trackindex>
										</sourcetrack>
										<link>
											<linkclipref>msub200012-2211045 </linkclipref>
											<mediatype>video</mediatype>
											<trackindex>1</trackindex>
											<clipindex>6</clipindex>
										</link>
										<link>
											<linkclipref>msub200012-2211045 3</linkclipref>
											<mediatype>audio</mediatype>
											<trackindex>1</trackindex>
											<clipindex>9</clipindex>
										</link>
									</clipitem>
									<transitionitem id="920355312 ">
										<rate>
											<ntsc>FALSE</ntsc>
											<timebase>25</timebase>
										</rate>
										<start>582</start>
										<end>588</end>
										<alignment>center</alignment>
										<effect>
											<name>Cross Fade (+3dB)</name>
											<effecttype>transition</effecttype>
											<mediatype>audio</mediatype>
										</effect>
									</transitionitem>
									<clipitem id="msub200012-2211035 4">
										<name>msub200012-2211035</name>
										<duration>852</duration>
										<rate>
											<ntsc>FALSE</ntsc>
											<timebase>25</timebase>
										</rate>
										<in>136</in>
										<out>278</out>
										<start>-1</start>
										<end>724</end>
										<subframeoffset>0</subframeoffset>
										<anamorphic>FALSE</anamorphic>
										<alphareverse>FALSE</alphareverse>
										<masterclipid>msub200012-2211035 1</masterclipid>
										<logginginfo>
											<description>msub200012-2211035</description>
											<scene/>
											<shottake/>
											<lognote/>
											<good>FALSE</good>
										</logginginfo>
										<labels>
											<label2/>
										</labels>
										<comments>
											<mastercomment1>BARN OG UNGDOM. BR_FINFREDAG_MSUA_OPRO</mastercomment1>
											<mastercomment2/>
											<mastercomment3/>
											<mastercomment4/>
											<clipcommenta/>
										</comments>
										<file id="msub200012-2211035 2"/>
										<filter>
											<effect>
												<name>Audio Levels</name>
												<effectid>audiolevels</effectid>
												<effectcategory>audiolevels</effectcategory>
												<effecttype>audiolevels</effecttype>
												<mediatype>audio</mediatype>
												<parameter>
													<name>Level</name>
													<parameterid>level</parameterid>
													<valuemin>0</valuemin>
													<valuemax>3.98109</valuemax>
													<value>1</value>
												</parameter>
											</effect>
										</filter>
										<filter>
											<effect>
												<name>Audio Pan</name>
												<effectid>audiopan</effectid>
												<effectcategory>audiopan</effectcategory>
												<effecttype>audiopan</effecttype>
												<mediatype>audio</mediatype>
												<parameter>
													<name>Pan</name>
													<parameterid>pan</parameterid>
													<valuemin>-1</valuemin>
													<valuemax>1</valuemax>
													<value>0</value>
												</parameter>
											</effect>
										</filter>
										<sourcetrack>
											<mediatype>audio</mediatype>
											<trackindex>1</trackindex>
										</sourcetrack>
										<link>
											<linkclipref>msub200012-2211035 3</linkclipref>
											<mediatype>video</mediatype>
											<trackindex>1</trackindex>
											<clipindex>7</clipindex>
										</link>
										<link>
											<linkclipref>msub200012-2211035 4</linkclipref>
											<mediatype>audio</mediatype>
											<trackindex>1</trackindex>
											<clipindex>11</clipindex>
										</link>
									</clipitem>
									<clipitem id="msub200012-2211053 5">
										<name>msub200012-2211053</name>
										<duration>1644</duration>
										<rate>
											<ntsc>FALSE</ntsc>
											<timebase>25</timebase>
										</rate>
										<in>1036</in>
										<out>1217</out>
										<start>751</start>
										<end>932</end>
										<subframeoffset>0</subframeoffset>
										<anamorphic>FALSE</anamorphic>
										<alphareverse>FALSE</alphareverse>
										<masterclipid>msub200012-2211053 1</masterclipid>
										<logginginfo>
											<description>msub200012-2211053</description>
											<scene/>
											<shottake/>
											<lognote/>
											<good>FALSE</good>
										</logginginfo>
										<labels>
											<label2/>
										</labels>
										<comments>
											<mastercomment1>BARN OG UNGDOM. BR_FINFREDAG_MSUA_OPRO</mastercomment1>
											<mastercomment2/>
											<mastercomment3/>
											<mastercomment4/>
											<clipcommenta/>
										</comments>
										<file id="msub200012-2211053 2"/>
										<filter>
											<effect>
												<name>Audio Levels</name>
												<effectid>audiolevels</effectid>
												<effectcategory>audiolevels</effectcategory>
												<effecttype>audiolevels</effecttype>
												<mediatype>audio</mediatype>
												<parameter>
													<name>Level</name>
													<parameterid>level</parameterid>
													<valuemin>0</valuemin>
													<valuemax>3.98109</valuemax>
													<keyframe>
														<when>1170.21</when>
														<value>0.0501187</value>
													</keyframe>
													<keyframe>
														<when>1179.32</when>
														<value>0.630957</value>
													</keyframe>
													<keyframe>
														<when>1189.64</when>
														<value>0.630957</value>
													</keyframe>
													<keyframe>
														<when>1199.36</when>
														<value>0.0177828</value>
													</keyframe>
													<interpolation>
														<name>FCPCurve</name>
													</interpolation>
													<value>0.0630957</value>
												</parameter>
											</effect>
										</filter>
										<filter>
											<effect>
												<name>Audio Pan</name>
												<effectid>audiopan</effectid>
												<effectcategory>audiopan</effectcategory>
												<effecttype>audiopan</effecttype>
												<mediatype>audio</mediatype>
												<parameter>
													<name>Pan</name>
													<parameterid>pan</parameterid>
													<valuemin>-1</valuemin>
													<valuemax>1</valuemax>
													<value>0</value>
												</parameter>
											</effect>
										</filter>
										<sourcetrack>
											<mediatype>audio</mediatype>
											<trackindex>1</trackindex>
										</sourcetrack>
										<link>
											<linkclipref>msub200012-2211053 4</linkclipref>
											<mediatype>video</mediatype>
											<trackindex>1</trackindex>
											<clipindex>8</clipindex>
										</link>
										<link>
											<linkclipref>msub200012-2211053 5</linkclipref>
											<mediatype>audio</mediatype>
											<trackindex>1</trackindex>
											<clipindex>12</clipindex>
										</link>
									</clipitem>
									<enabled>TRUE</enabled>
									<locked>FALSE</locked>
									<outputchannelindex>1</outputchannelindex>
								</track>
								<track>
									<enabled>TRUE</enabled>
									<locked>FALSE</locked>
									<outputchannelindex>2</outputchannelindex>
								</track>
								<track>
									<clipitem id="01 JARABE TAPATIO  A --- authentic Mariachi street band, instrumental.aif">
										<name>01 JARABE TAPATIO  A --- authentic Mariachi street band, instrumental.aif</name>
										<duration>3756</duration>
										<rate>
											<ntsc>FALSE</ntsc>
											<timebase>25</timebase>
										</rate>
										<in>0</in>
										<out>646</out>
										<start>0</start>
										<end>646</end>
										<subframeoffset>0</subframeoffset>
										<anamorphic>FALSE</anamorphic>
										<alphareverse>FALSE</alphareverse>
										<masterclipid>01 JARABE TAPATIO  A --- authentic Mariachi street band, instrumental.aif1</masterclipid>
										<logginginfo>
											<scene/>
											<shottake/>
											<lognote/>
											<good>FALSE</good>
										</logginginfo>
										<labels>
											<label2/>
										</labels>
										<comments>
											<mastercomment1/>
											<mastercomment2/>
											<mastercomment3/>
											<mastercomment4/>
										</comments>
										<file id="01 JARABE TAPATIO  A --- authentic Mariachi street band, instrumental">
											<name>01 JARABE TAPATIO  A --- authentic Mariachi street band, instrumental.aif</name>
											<pathurl>file://localhost/Volumes/Prosjekter_SuperSAN1-1/MSUB20000012%20FIN%20FREDAG/MUSIKK/Ny%20Tante%20Taco/01%20JARABE%20TAPATIO%20%20A%20---%20authentic%20Mariachi%20street%20band,%20instrumental.aif</pathurl>
											<rate>
												<timebase>25</timebase>
											</rate>
											<duration>3756</duration>
											<media>
												<audio>
													<rate>
														<timebase>44100</timebase>
													</rate>
													<trackcount>2</trackcount>
													<samplecharacteristics>
														<depth>16</depth>
													</samplecharacteristics>
												</audio>
											</media>
										</file>
										<filter>
											<effect>
												<name>Audio Levels</name>
												<effectid>audiolevels</effectid>
												<effectcategory>audiolevels</effectcategory>
												<effecttype>audiolevels</effecttype>
												<mediatype>audio</mediatype>
												<parameter>
													<name>Level</name>
													<parameterid>level</parameterid>
													<valuemin>0</valuemin>
													<valuemax>3.98109</valuemax>
													<keyframe>
														<when>5.46429</when>
														<value>0.112202</value>
													</keyframe>
													<keyframe>
														<when>35.8214</when>
														<value>0.354813</value>
													</keyframe>
													<keyframe>
														<when>343.643</when>
														<value>0.354813</value>
													</keyframe>
													<keyframe>
														<when>440.179</when>
														<value>0.354813</value>
													</keyframe>
													<interpolation>
														<name>FCPCurve</name>
													</interpolation>
													<value>0.354813</value>
												</parameter>
											</effect>
										</filter>
										<filter>
											<effect>
												<name>Audio Pan</name>
												<effectid>audiopan</effectid>
												<effectcategory>audiopan</effectcategory>
												<effecttype>audiopan</effecttype>
												<mediatype>audio</mediatype>
												<parameter>
													<name>Pan</name>
													<parameterid>pan</parameterid>
													<valuemin>-1</valuemin>
													<valuemax>1</valuemax>
													<value>-1</value>
												</parameter>
											</effect>
										</filter>
										<sourcetrack>
											<mediatype>audio</mediatype>
											<trackindex>1</trackindex>
										</sourcetrack>
										<link>
											<linkclipref>01 JARABE TAPATIO  A --- authentic Mariachi street band, instrumental.aif</linkclipref>
											<mediatype>audio</mediatype>
											<trackindex>3</trackindex>
											<clipindex>1</clipindex>
											<groupindex>1</groupindex>
										</link>
										<link>
											<linkclipref>01 JARABE TAPATIO  A --- authentic Mariachi street band, instrumental.aif2</linkclipref>
											<mediatype>audio</mediatype>
											<trackindex>4</trackindex>
											<clipindex>1</clipindex>
											<groupindex>1</groupindex>
										</link>
									</clipitem>
									<transitionitem id="14">
										<rate>
											<ntsc>FALSE</ntsc>
											<timebase>25</timebase>
										</rate>
										<start>726</start>
										<end>732</end>
										<alignment>start-black</alignment>
										<effect>
											<name>Cross Fade (+3dB) Copy</name>
											<effecttype>transition</effecttype>
											<mediatype>audio</mediatype>
										</effect>
									</transitionitem>
									<clipitem id="msub200012-2211078 3">
										<name>msub200012-2211078</name>
										<duration>2496</duration>
										<rate>
											<ntsc>FALSE</ntsc>
											<timebase>25</timebase>
										</rate>
										<in>771</in>
										<out>815</out>
										<start>-1</start>
										<end>-1</end>
										<subframeoffset>0</subframeoffset>
										<anamorphic>FALSE</anamorphic>
										<alphareverse>FALSE</alphareverse>
										<masterclipid>msub200012-2211078 1</masterclipid>
										<logginginfo>
											<description>msub200012-2211078</description>
											<scene/>
											<shottake/>
											<lognote/>
											<good>FALSE</good>
										</logginginfo>
										<labels>
											<label2/>
										</labels>
										<comments>
											<mastercomment1>BARN OG UNGDOM. BR_FINFREDAG_MSUA_OPRO</mastercomment1>
											<mastercomment2/>
											<mastercomment3/>
											<mastercomment4/>
											<clipcommenta/>
										</comments>
										<file id="msub200012-2211078 2"/>
										<filter>
											<effect>
												<name>Audio Levels</name>
												<effectid>audiolevels</effectid>
												<effectcategory>audiolevels</effectcategory>
												<effecttype>audiolevels</effecttype>
												<mediatype>audio</mediatype>
												<parameter>
													<name>Level</name>
													<parameterid>level</parameterid>
													<valuemin>0</valuemin>
													<valuemax>3.98109</valuemax>
													<value>0.158489</value>
												</parameter>
											</effect>
										</filter>
										<filter>
											<effect>
												<name>Audio Pan</name>
												<effectid>audiopan</effectid>
												<effectcategory>audiopan</effectcategory>
												<effecttype>audiopan</effecttype>
												<mediatype>audio</mediatype>
												<parameter>
													<name>Pan</name>
													<parameterid>pan</parameterid>
													<valuemin>-1</valuemin>
													<valuemax>1</valuemax>
													<value>0</value>
												</parameter>
											</effect>
										</filter>
										<sourcetrack>
											<mediatype>audio</mediatype>
											<trackindex>1</trackindex>
										</sourcetrack>
										<link>
											<linkclipref>msub200012-2211078 </linkclipref>
											<mediatype>video</mediatype>
											<trackindex>2</trackindex>
											<clipindex>1</clipindex>
										</link>
										<link>
											<linkclipref>msub200012-2211078 3</linkclipref>
											<mediatype>audio</mediatype>
											<trackindex>3</trackindex>
											<clipindex>3</clipindex>
										</link>
									</clipitem>
									<transitionitem id="15">
										<rate>
											<ntsc>FALSE</ntsc>
											<timebase>25</timebase>
										</rate>
										<start>764</start>
										<end>770</end>
										<alignment>end-black</alignment>
										<effect>
											<name>Cross Fade (+3dB) Copy</name>
											<effecttype>transition</effecttype>
											<mediatype>audio</mediatype>
										</effect>
									</transitionitem>
									<enabled>TRUE</enabled>
									<locked>FALSE</locked>
									<outputchannelindex>1</outputchannelindex>
								</track>
								<track>
									<clipitem id="01 JARABE TAPATIO  A --- authentic Mariachi street band, instrumental.aif2">
										<name>01 JARABE TAPATIO  A --- authentic Mariachi street band, instrumental.aif</name>
										<duration>3756</duration>
										<rate>
											<ntsc>FALSE</ntsc>
											<timebase>25</timebase>
										</rate>
										<in>0</in>
										<out>646</out>
										<start>0</start>
										<end>646</end>
										<subframeoffset>0</subframeoffset>
										<anamorphic>FALSE</anamorphic>
										<alphareverse>FALSE</alphareverse>
										<masterclipid>01 JARABE TAPATIO  A --- authentic Mariachi street band, instrumental.aif1</masterclipid>
										<logginginfo>
											<scene/>
											<shottake/>
											<lognote/>
											<good>FALSE</good>
										</logginginfo>
										<labels>
											<label2/>
										</labels>
										<comments>
											<mastercomment1/>
											<mastercomment2/>
											<mastercomment3/>
											<mastercomment4/>
										</comments>
										<file id="01 JARABE TAPATIO  A --- authentic Mariachi street band, instrumental"/>
										<filter>
											<effect>
												<name>Audio Levels</name>
												<effectid>audiolevels</effectid>
												<effectcategory>audiolevels</effectcategory>
												<effecttype>audiolevels</effecttype>
												<mediatype>audio</mediatype>
												<parameter>
													<name>Level</name>
													<parameterid>level</parameterid>
													<valuemin>0</valuemin>
													<valuemax>3.98109</valuemax>
													<keyframe>
														<when>5.46429</when>
														<value>0.112202</value>
													</keyframe>
													<keyframe>
														<when>35.8214</when>
														<value>0.354813</value>
													</keyframe>
													<keyframe>
														<when>343.643</when>
														<value>0.354813</value>
													</keyframe>
													<keyframe>
														<when>440.179</when>
														<value>0.354813</value>
													</keyframe>
													<interpolation>
														<name>FCPCurve</name>
													</interpolation>
													<value>0.354813</value>
												</parameter>
											</effect>
										</filter>
										<filter>
											<effect>
												<name>Audio Pan</name>
												<effectid>audiopan</effectid>
												<effectcategory>audiopan</effectcategory>
												<effecttype>audiopan</effecttype>
												<mediatype>audio</mediatype>
												<parameter>
													<name>Pan</name>
													<parameterid>pan</parameterid>
													<valuemin>-1</valuemin>
													<valuemax>1</valuemax>
													<value>1</value>
												</parameter>
											</effect>
										</filter>
										<sourcetrack>
											<mediatype>audio</mediatype>
											<trackindex>2</trackindex>
										</sourcetrack>
										<link>
											<linkclipref>01 JARABE TAPATIO  A --- authentic Mariachi street band, instrumental.aif</linkclipref>
											<mediatype>audio</mediatype>
											<trackindex>3</trackindex>
											<clipindex>1</clipindex>
											<groupindex>1</groupindex>
										</link>
										<link>
											<linkclipref>01 JARABE TAPATIO  A --- authentic Mariachi street band, instrumental.aif2</linkclipref>
											<mediatype>audio</mediatype>
											<trackindex>4</trackindex>
											<clipindex>1</clipindex>
											<groupindex>1</groupindex>
										</link>
									</clipitem>
									<enabled>TRUE</enabled>
									<locked>FALSE</locked>
									<outputchannelindex>2</outputchannelindex>
								</track>
								<track>
									<clipitem id="Voice Over 2.aif">
										<name>Voice Over 2.aif</name>
										<duration>534</duration>
										<rate>
											<ntsc>FALSE</ntsc>
											<timebase>25</timebase>
										</rate>
										<in>168</in>
										<out>228</out>
										<start>669</start>
										<end>729</end>
										<anamorphic>FALSE</anamorphic>
										<alphareverse>FALSE</alphareverse>
										<masterclipid>Voice Over 2.aif1</masterclipid>
										<logginginfo>
											<scene/>
											<shottake/>
											<lognote/>
											<good>FALSE</good>
										</logginginfo>
										<labels>
											<label>Best Take</label>
											<label2/>
										</labels>
										<comments>
											<mastercomment1/>
											<mastercomment2/>
											<mastercomment3/>
											<mastercomment4/>
										</comments>
										<file id="Voice Over 2 ">
											<name>Voice Over 2.aif</name>
											<pathurl>file://localhost/Volumes/Prosjekter_SuperSAN1-1/MSUB20000012%20FIN%20FREDAG/FCP-PROSJEKTER,%20sesong%202/program%201%20Jenny/voice/Voice%20Over%202.aif</pathurl>
											<rate>
												<timebase>25</timebase>
											</rate>
											<duration>534</duration>
											<media>
												<audio>
													<rate>
														<timebase>48000</timebase>
													</rate>
													<trackcount>2</trackcount>
													<samplecharacteristics>
														<depth>16</depth>
													</samplecharacteristics>
												</audio>
											</media>
										</file>
										<filter>
											<effect>
												<name>Audio Levels</name>
												<effectid>audiolevels</effectid>
												<effectcategory>audiolevels</effectcategory>
												<effecttype>audiolevels</effecttype>
												<mediatype>audio</mediatype>
												<parameter>
													<name>Level</name>
													<parameterid>level</parameterid>
													<valuemin>0</valuemin>
													<valuemax>3.98109</valuemax>
													<value>1.99526</value>
												</parameter>
											</effect>
										</filter>
										<filter>
											<effect>
												<name>Audio Pan</name>
												<effectid>audiopan</effectid>
												<effectcategory>audiopan</effectcategory>
												<effecttype>audiopan</effecttype>
												<mediatype>audio</mediatype>
												<parameter>
													<name>Pan</name>
													<parameterid>pan</parameterid>
													<valuemin>-1</valuemin>
													<valuemax>1</valuemax>
													<value>0</value>
												</parameter>
											</effect>
										</filter>
										<sourcetrack>
											<mediatype>audio</mediatype>
											<trackindex>1</trackindex>
										</sourcetrack>
									</clipitem>
									<enabled>TRUE</enabled>
									<locked>FALSE</locked>
									<outputchannelindex>1</outputchannelindex>
								</track>
								<track>
									<clipitem id="01 JARABE TAPATIO  A --- authentic Mariachi street band, instrumental.aif3">
										<name>01 JARABE TAPATIO  A --- authentic Mariachi street band, instrumental.aif</name>
										<duration>3756</duration>
										<rate>
											<ntsc>FALSE</ntsc>
											<timebase>25</timebase>
										</rate>
										<in>739</in>
										<out>1008</out>
										<start>646</start>
										<end>-1</end>
										<subframeoffset>0</subframeoffset>
										<anamorphic>FALSE</anamorphic>
										<alphareverse>FALSE</alphareverse>
										<masterclipid>01 JARABE TAPATIO  A --- authentic Mariachi street band, instrumental.aif1</masterclipid>
										<logginginfo>
											<scene/>
											<shottake/>
											<lognote/>
											<good>FALSE</good>
										</logginginfo>
										<labels>
											<label2/>
										</labels>
										<comments>
											<mastercomment1/>
											<mastercomment2/>
											<mastercomment3/>
											<mastercomment4/>
										</comments>
										<file id="01 JARABE TAPATIO  A --- authentic Mariachi street band, instrumental"/>
										<filter>
											<effect>
												<name>Audio Levels</name>
												<effectid>audiolevels</effectid>
												<effectcategory>audiolevels</effectcategory>
												<effecttype>audiolevels</effecttype>
												<mediatype>audio</mediatype>
												<parameter>
													<name>Level</name>
													<parameterid>level</parameterid>
													<valuemin>0</valuemin>
													<valuemax>3.98109</valuemax>
													<value>0.354813</value>
												</parameter>
											</effect>
										</filter>
										<filter>
											<effect>
												<name>Audio Pan</name>
												<effectid>audiopan</effectid>
												<effectcategory>audiopan</effectcategory>
												<effecttype>audiopan</effecttype>
												<mediatype>audio</mediatype>
												<parameter>
													<name>Pan</name>
													<parameterid>pan</parameterid>
													<valuemin>-1</valuemin>
													<valuemax>1</valuemax>
													<value>-1</value>
												</parameter>
											</effect>
										</filter>
										<sourcetrack>
											<mediatype>audio</mediatype>
											<trackindex>1</trackindex>
										</sourcetrack>
										<link>
											<linkclipref>01 JARABE TAPATIO  A --- authentic Mariachi street band, instrumental.aif3</linkclipref>
											<mediatype>audio</mediatype>
											<trackindex>6</trackindex>
											<clipindex>1</clipindex>
											<groupindex>1</groupindex>
										</link>
										<link>
											<linkclipref>01 JARABE TAPATIO  A --- authentic Mariachi street band, instrumental.aif4</linkclipref>
											<mediatype>audio</mediatype>
											<trackindex>7</trackindex>
											<clipindex>1</clipindex>
											<groupindex>1</groupindex>
										</link>
									</clipitem>
									<transitionitem id="16">
										<rate>
											<ntsc>FALSE</ntsc>
											<timebase>25</timebase>
										</rate>
										<start>909</start>
										<end>915</end>
										<alignment>end-black</alignment>
										<effect>
											<name>Cross Fade (+3dB) Copy</name>
											<effecttype>transition</effecttype>
											<mediatype>audio</mediatype>
										</effect>
									</transitionitem>
									<enabled>TRUE</enabled>
									<locked>FALSE</locked>
									<outputchannelindex>2</outputchannelindex>
								</track>
								<track>
									<clipitem id="01 JARABE TAPATIO  A --- authentic Mariachi street band, instrumental.aif4">
										<name>01 JARABE TAPATIO  A --- authentic Mariachi street band, instrumental.aif</name>
										<duration>3756</duration>
										<rate>
											<ntsc>FALSE</ntsc>
											<timebase>25</timebase>
										</rate>
										<in>739</in>
										<out>1008</out>
										<start>646</start>
										<end>-1</end>
										<subframeoffset>0</subframeoffset>
										<anamorphic>FALSE</anamorphic>
										<alphareverse>FALSE</alphareverse>
										<masterclipid>01 JARABE TAPATIO  A --- authentic Mariachi street band, instrumental.aif1</masterclipid>
										<logginginfo>
											<scene/>
											<shottake/>
											<lognote/>
											<good>FALSE</good>
										</logginginfo>
										<labels>
											<label2/>
										</labels>
										<comments>
											<mastercomment1/>
											<mastercomment2/>
											<mastercomment3/>
											<mastercomment4/>
										</comments>
										<file id="01 JARABE TAPATIO  A --- authentic Mariachi street band, instrumental"/>
										<filter>
											<effect>
												<name>Audio Levels</name>
												<effectid>audiolevels</effectid>
												<effectcategory>audiolevels</effectcategory>
												<effecttype>audiolevels</effecttype>
												<mediatype>audio</mediatype>
												<parameter>
													<name>Level</name>
													<parameterid>level</parameterid>
													<valuemin>0</valuemin>
													<valuemax>3.98109</valuemax>
													<value>0.354813</value>
												</parameter>
											</effect>
										</filter>
										<filter>
											<effect>
												<name>Audio Pan</name>
												<effectid>audiopan</effectid>
												<effectcategory>audiopan</effectcategory>
												<effecttype>audiopan</effecttype>
												<mediatype>audio</mediatype>
												<parameter>
													<name>Pan</name>
													<parameterid>pan</parameterid>
													<valuemin>-1</valuemin>
													<valuemax>1</valuemax>
													<value>1</value>
												</parameter>
											</effect>
										</filter>
										<sourcetrack>
											<mediatype>audio</mediatype>
											<trackindex>2</trackindex>
										</sourcetrack>
										<link>
											<linkclipref>01 JARABE TAPATIO  A --- authentic Mariachi street band, instrumental.aif3</linkclipref>
											<mediatype>audio</mediatype>
											<trackindex>6</trackindex>
											<clipindex>1</clipindex>
											<groupindex>1</groupindex>
										</link>
										<link>
											<linkclipref>01 JARABE TAPATIO  A --- authentic Mariachi street band, instrumental.aif4</linkclipref>
											<mediatype>audio</mediatype>
											<trackindex>7</trackindex>
											<clipindex>1</clipindex>
											<groupindex>1</groupindex>
										</link>
									</clipitem>
									<transitionitem id="17">
										<rate>
											<ntsc>FALSE</ntsc>
											<timebase>25</timebase>
										</rate>
										<start>909</start>
										<end>915</end>
										<alignment>end-black</alignment>
										<effect>
											<name>Cross Fade (+3dB) Copy</name>
											<effecttype>transition</effecttype>
											<mediatype>audio</mediatype>
										</effect>
									</transitionitem>
									<enabled>TRUE</enabled>
									<locked>FALSE</locked>
									<outputchannelindex>1</outputchannelindex>
								</track>
								<track>
									<enabled>TRUE</enabled>
									<locked>FALSE</locked>
									<outputchannelindex>2</outputchannelindex>
								</track>
							</audio>
						</media>
					</sequence>
					<sourcetrack>
						<mediatype>video</mediatype>
					</sourcetrack>
					<link>
						<linkclipref>TACO 2 Dare dance versjon1 </linkclipref>
						<mediatype>video</mediatype>
						<trackindex>3</trackindex>
						<clipindex>15</clipindex>
					</link>
					<link>
						<linkclipref>TACO 2 Dare dance versjon1 2</linkclipref>
						<mediatype>audio</mediatype>
						<trackindex>5</trackindex>
						<clipindex>14</clipindex>
						<groupindex>1</groupindex>
					</link>
					<link>
						<linkclipref>TACO 2 Dare dance versjon1 3</linkclipref>
						<mediatype>audio</mediatype>
						<trackindex>6</trackindex>
						<clipindex>19</clipindex>
						<groupindex>1</groupindex>
					</link>
					<ismasterclip>FALSE</ismasterclip>
				</clipitem>
				<transitionitem id="66942580 ">
					<rate>
						<ntsc>FALSE</ntsc>
						<timebase>25</timebase>
					</rate>
					<start>22605</start>
					<end>22613</end>
					<alignment>end-black</alignment>
					<effect>
						<name>Push Slide</name>
						<effectid>Push Slide</effectid>
						<effectcategory>Slide</effectcategory>
						<effecttype>transition</effecttype>
						<mediatype>video</mediatype>
						<wipecode>1</wipecode>
						<wipeaccuracy>100</wipeaccuracy>
						<startratio>0</startratio>
						<endratio>1</endratio>
						<reverse>FALSE</reverse>
						<parameter>
							<parameterid>angleofpush</parameterid>
							<name>Angle</name>
							<valuemin>-360</valuemin>
							<valuemax>360</valuemax>
							<value>0</value>
						</parameter>
						<parameter>
							<parameterid>borderwidth</parameterid>
							<name>Border</name>
							<valuemin>0</valuemin>
							<valuemax>10</valuemax>
							<value>0</value>
						</parameter>
						<parameter>
							<parameterid>bordercolor</parameterid>
							<name>Color</name>
							<value>
								<alpha>255</alpha>
								<red>0</red>
								<green>0</green>
								<blue>0</blue>
							</value>
						</parameter>
					</effect>
				</transitionitem>
				<clipitem id="Bieber-recap-vid">
					<name>Bieber-recap-vid</name>
					<duration>2790</duration>
					<rate>
						<ntsc>FALSE</ntsc>
						<timebase>25</timebase>
					</rate>
					<in>0</in>
					<out>2790</out>
					<start>23116</start>
					<end>25906</end>
					<pixelaspectratio>Square</pixelaspectratio>
					<enabled>TRUE</enabled>
					<anamorphic>FALSE</anamorphic>
					<alphatype>none</alphatype>
					<masterclipid>Bieber-recap-vid1</masterclipid>
					<logginginfo>
						<scene/>
						<shottake/>
						<lognote/>
						<good>FALSE</good>
					</logginginfo>
					<labels>
						<label2/>
					</labels>
					<comments>
						<mastercomment1/>
						<mastercomment2/>
						<mastercomment3/>
						<mastercomment4/>
					</comments>
					<file id="Bieber-recap-vid2">
						<name>Bieber-recap-vid.mov</name>
						<pathurl>file://localhost/SuperSAN1/Prosjekter/MSUB20000012%20FIN%20FREDAG/Hallvard/Bieber-recap-vid.mov</pathurl>
						<rate>
							<timebase>25</timebase>
						</rate>
						<duration>2790</duration>
						<timecode>
							<rate>
								<timebase>25</timebase>
							</rate>
							<string>00:00:00:00</string>
							<frame>0</frame>
							<displayformat>NDF</displayformat>
							<source>source</source>
						</timecode>
						<media>
							<video>
								<duration>2790</duration>
								<samplecharacteristics>
									<width>1920</width>
									<height>1080</height>
								</samplecharacteristics>
							</video>
							<audio>
								<rate>
									<timebase>48000</timebase>
								</rate>
								<trackcount>2</trackcount>
								<samplecharacteristics>
									<depth>24</depth>
								</samplecharacteristics>
							</audio>
						</media>
					</file>
					<filter>
						<enabled>TRUE</enabled>
						<start>-1</start>
						<end>-1</end>
						<effect>
							<name>Color Corrector 3-way Copy</name>
							<effectid>Color Corrector 3-way</effectid>
							<effectcategory>Color Correction</effectcategory>
							<effecttype>filter</effecttype>
							<mediatype>video</mediatype>
							<parameter>
								<parameterid>dispmode</parameterid>
								<name>Display Mode</name>
								<valuemin>1</valuemin>
								<valuemax>3</valuemax>
								<valuelist>
									<valueentry>
										<name>Final</name>
										<value>1</value>
									</valueentry>
									<valueentry>
										<name>Matte</name>
										<value>2</value>
									</valueentry>
									<valueentry>
										<name>Source</name>
										<value>3</value>
									</valueentry>
								</valuelist>
								<value>1</value>
							</parameter>
							<parameter>
								<parameterid>label1</parameterid>
								<name>Blacks Controls</name>
								<value/>
							</parameter>
							<parameter>
								<parameterid>blacklevel</parameterid>
								<name>Level</name>
								<valuemin>-196</valuemin>
								<valuemax>254</valuemax>
								<value>-14</value>
							</parameter>
							<parameter>
								<parameterid>b_hue</parameterid>
								<name>Angle</name>
								<valuemin>-180</valuemin>
								<valuemax>180</valuemax>
								<value>-33</value>
							</parameter>
							<parameter>
								<parameterid>b_mag</parameterid>
								<name>Magnitude</name>
								<valuemin>0</valuemin>
								<valuemax>200</valuemax>
								<value>0</value>
							</parameter>
							<parameter>
								<parameterid>label2</parameterid>
								<name>Midrange Controls</name>
								<value/>
							</parameter>
							<parameter>
								<parameterid>mids</parameterid>
								<name>Level</name>
								<valuemin>0</valuemin>
								<valuemax>200</valuemax>
								<value>100</value>
							</parameter>
							<parameter>
								<parameterid>m_hue</parameterid>
								<name>Angle</name>
								<valuemin>-180</valuemin>
								<valuemax>180</valuemax>
								<value>-33</value>
							</parameter>
							<parameter>
								<parameterid>m_mag</parameterid>
								<name>Magnitude</name>
								<valuemin>0</valuemin>
								<valuemax>200</valuemax>
								<value>0</value>
							</parameter>
							<parameter>
								<parameterid>label3</parameterid>
								<name>Highlight Controls</name>
								<value/>
							</parameter>
							<parameter>
								<parameterid>highlights</parameterid>
								<name>Level</name>
								<valuemin>64</valuemin>
								<valuemax>509</valuemax>
								<value>259</value>
							</parameter>
							<parameter>
								<parameterid>h_hue</parameterid>
								<name>Angle</name>
								<valuemin>-180</valuemin>
								<valuemax>180</valuemax>
								<value>-33</value>
							</parameter>
							<parameter>
								<parameterid>h_mag</parameterid>
								<name>Magnitude</name>
								<valuemin>0</valuemin>
								<valuemax>200</valuemax>
								<value>0</value>
							</parameter>
							<parameter>
								<parameterid>label4</parameterid>
								<name>Color Controls</name>
								<value/>
							</parameter>
							<parameter>
								<parameterid>chroma</parameterid>
								<name>Saturation</name>
								<valuemin>0</valuemin>
								<valuemax>200</valuemax>
								<value>107</value>
							</parameter>
							<parameter>
								<parameterid>label5</parameterid>
								<name>Limit Effect Controls</name>
								<value/>
							</parameter>
							<parameter>
								<parameterid>dochroma</parameterid>
								<name>Limit on Chroma</name>
								<value>FALSE</value>
							</parameter>
							<parameter>
								<parameterid>centerang</parameterid>
								<name>Chroma Center</name>
								<valuemin>-760</valuemin>
								<valuemax>760</valuemax>
								<value>-110</value>
							</parameter>
							<parameter>
								<parameterid>chromawidth</parameterid>
								<name>Chroma Width</name>
								<valuemin>0</valuemin>
								<valuemax>360</valuemax>
								<value>15</value>
							</parameter>
							<parameter>
								<parameterid>chromasoft</parameterid>
								<name>Chroma Softness</name>
								<valuemin>0</valuemin>
								<valuemax>180</valuemax>
								<value>10</value>
							</parameter>
							<parameter>
								<parameterid>dosat</parameterid>
								<name>Limit on Saturation</name>
								<value>FALSE</value>
							</parameter>
							<parameter>
								<parameterid>satmin</parameterid>
								<name>Sat. Minimum</name>
								<valuemin>0</valuemin>
								<valuemax>125</valuemax>
								<value>35</value>
							</parameter>
							<parameter>
								<parameterid>satwidth</parameterid>
								<name>Sat. Width</name>
								<valuemin>0</valuemin>
								<valuemax>125</valuemax>
								<value>40</value>
							</parameter>
							<parameter>
								<parameterid>satsoft</parameterid>
								<name>Sat. Softness</name>
								<valuemin>0</valuemin>
								<valuemax>125</valuemax>
								<value>20</value>
							</parameter>
							<parameter>
								<parameterid>doluma</parameterid>
								<name>Limit on Luma</name>
								<value>FALSE</value>
							</parameter>
							<parameter>
								<parameterid>lumamin</parameterid>
								<name>Luma Minimum</name>
								<valuemin>0</valuemin>
								<valuemax>120</valuemax>
								<value>0</value>
							</parameter>
							<parameter>
								<parameterid>lumawidth</parameterid>
								<name>Luma Width</name>
								<valuemin>0</valuemin>
								<valuemax>120</valuemax>
								<value>40</value>
							</parameter>
							<parameter>
								<parameterid>lumasoft</parameterid>
								<name>Luma Softness</name>
								<valuemin>0</valuemin>
								<valuemax>120</valuemax>
								<value>20</value>
							</parameter>
							<parameter>
								<parameterid>label6</parameterid>
								<name>Edge Control</name>
								<value/>
							</parameter>
							<parameter>
								<parameterid>edgethin</parameterid>
								<name>Thin/Spread</name>
								<valuemin>-100</valuemin>
								<valuemax>100</valuemax>
								<value>0</value>
							</parameter>
							<parameter>
								<parameterid>edgefeather</parameterid>
								<name>Softening</name>
								<valuemin>0</valuemin>
								<valuemax>100</valuemax>
								<value>0</value>
							</parameter>
							<parameter>
								<parameterid>label7</parameterid>
								<name>Mask Control</name>
								<value/>
							</parameter>
							<parameter>
								<parameterid>invertsel</parameterid>
								<name>Invert</name>
								<value>FALSE</value>
							</parameter>
							<parameter>
								<parameterid>debugshow</parameterid>
								<name>Show Stats</name>
								<value>FALSE</value>
							</parameter>
						</effect>
					</filter>
					<filter>
						<effect>
							<name>Opacity</name>
							<effectid>opacity</effectid>
							<effectcategory>motion</effectcategory>
							<effecttype>motion</effecttype>
							<mediatype>video</mediatype>
							<parameter>
								<parameterid>opacity</parameterid>
								<name>opacity</name>
								<valuemin>0</valuemin>
								<valuemax>100</valuemax>
								<value>100</value>
							</parameter>
						</effect>
					</filter>
					<sourcetrack>
						<mediatype>video</mediatype>
					</sourcetrack>
					<fielddominance>upper</fielddominance>
				</clipitem>
				<clipitem id="msub200012-3011-k2d2-005 7">
					<name>msub200012-3011-k2d2-005</name>
					<duration>5503</duration>
					<rate>
						<ntsc>FALSE</ntsc>
						<timebase>25</timebase>
					</rate>
					<in>2635</in>
					<out>2709</out>
					<start>27350</start>
					<end>27424</end>
					<pixelaspectratio>Square</pixelaspectratio>
					<enabled>TRUE</enabled>
					<anamorphic>FALSE</anamorphic>
					<alphatype>none</alphatype>
					<masterclipid>msub200012-3011-k2d2-005 1</masterclipid>
					<logginginfo>
						<description>msub200012-3011-k2d2-005</description>
						<scene/>
						<shottake/>
						<lognote/>
						<good>FALSE</good>
					</logginginfo>
					<labels>
						<label>Interviews</label>
						<label2/>
					</labels>
					<comments>
						<mastercomment1>RÃ…STOFF. BR_FINFREDAG_MSUA_OPRO</mastercomment1>
						<mastercomment2/>
						<mastercomment3/>
						<mastercomment4/>
						<clipcommenta/>
					</comments>
					<file id="msub200012-3011-k2d2-005 2"/>
					<sourcetrack>
						<mediatype>video</mediatype>
					</sourcetrack>
					<fielddominance>upper</fielddominance>
				</clipitem>
				<clipitem id="KristineVSRoekla-TEST.png4">
					<name>KristineVSRoekla-TEST.png</name>
					<duration>3026</duration>
					<rate>
						<ntsc>FALSE</ntsc>
						<timebase>25</timebase>
					</rate>
					<in>1829</in>
					<out>1840</out>
					<start>32080</start>
					<end>-1</end>
					<pixelaspectratio>Square</pixelaspectratio>
					<stillframe>TRUE</stillframe>
					<enabled>TRUE</enabled>
					<anamorphic>FALSE</anamorphic>
					<alphatype>none</alphatype>
					<masterclipid>KristineVSRoekla-TEST.png1</masterclipid>
					<logginginfo>
						<scene/>
						<shottake/>
						<lognote/>
						<good>FALSE</good>
					</logginginfo>
					<labels>
						<label2/>
					</labels>
					<comments>
						<mastercomment1/>
						<mastercomment2/>
						<mastercomment3/>
						<mastercomment4/>
					</comments>
					<file id="KristineVSRoekla-Bakgrunn"/>
					<filter>
						<enabled>TRUE</enabled>
						<start>-1</start>
						<end>-1</end>
						<effect>
							<name>Tint</name>
							<effecttype>filter</effecttype>
							<mediatype>video</mediatype>
							<parameter>
								<parameterid>input_1</parameterid>
								<name>Color</name>
								<value>
									<alpha>255</alpha>
									<red>102</red>
									<green>204</green>
									<blue>255</blue>
								</value>
							</parameter>
							<parameter>
								<parameterid>input_2</parameterid>
								<name>Intensity</name>
								<valuemin>0</valuemin>
								<valuemax>1</valuemax>
								<value>0.454545</value>
							</parameter>
							<parameter>
								<parameterid>FCP_FilterMix</parameterid>
								<name>Mix</name>
								<valuemin>0</valuemin>
								<valuemax>100</valuemax>
								<value>100</value>
							</parameter>
						</effect>
					</filter>
					<sourcetrack>
						<mediatype>video</mediatype>
					</sourcetrack>
					<fielddominance>none</fielddominance>
				</clipitem>
				<transitionitem id="66949380 ">
					<rate>
						<ntsc>FALSE</ntsc>
						<timebase>25</timebase>
					</rate>
					<start>32085</start>
					<end>32091</end>
					<alignment>end-black</alignment>
					<effect>
						<name>Push Slide</name>
						<effectid>Push Slide</effectid>
						<effectcategory>Slide</effectcategory>
						<effecttype>transition</effecttype>
						<mediatype>video</mediatype>
						<wipecode>1</wipecode>
						<wipeaccuracy>100</wipeaccuracy>
						<startratio>0</startratio>
						<endratio>1</endratio>
						<reverse>FALSE</reverse>
						<parameter>
							<parameterid>angleofpush</parameterid>
							<name>Angle</name>
							<valuemin>-360</valuemin>
							<valuemax>360</valuemax>
							<value>0</value>
						</parameter>
						<parameter>
							<parameterid>borderwidth</parameterid>
							<name>Border</name>
							<valuemin>0</valuemin>
							<valuemax>10</valuemax>
							<value>0</value>
						</parameter>
						<parameter>
							<parameterid>bordercolor</parameterid>
							<name>Color</name>
							<value>
								<alpha>255</alpha>
								<red>0</red>
								<green>0</green>
								<blue>0</blue>
							</value>
						</parameter>
					</effect>
				</transitionitem>
				<clipitem id="Vignett test kvsR 00:00:39:20 ">
					<name>Vignett test kvsR 00:00:39:20</name>
					<duration>3000</duration>
					<rate>
						<ntsc>FALSE</ntsc>
						<timebase>25</timebase>
					</rate>
					<in>1488</in>
					<out>1504</out>
					<start>32703</start>
					<end>32719</end>
					<labels>
						<label>Best Take</label>
						<label2/>
					</labels>
					<comments>
						<mastercomment1/>
						<mastercomment2/>
						<mastercomment3/>
						<mastercomment4/>
					</comments>
					<logginginfo>
						<scene/>
						<shottake/>
						<lognote/>
						<good>FALSE</good>
					</logginginfo>
					<filter>
						<enabled>TRUE</enabled>
						<start>-1</start>
						<end>-1</end>
						<effect>
							<name>De-interlace</name>
							<effectid>De-interlace</effectid>
							<effectcategory>Video</effectcategory>
							<effecttype>filter</effecttype>
							<mediatype>video</mediatype>
							<parameter>
								<parameterid>field</parameterid>
								<name>Field</name>
								<valuemin>1</valuemin>
								<valuemax>5</valuemax>
								<valuelist>
									<valueentry>
										<name>Upper (Odd)</name>
										<value>1</value>
									</valueentry>
									<valueentry>
										<name>Lower (Even)</name>
										<value>2</value>
									</valueentry>
									<valueentry>
										<name>Flicker Filter (minimal)</name>
										<value>3</value>
									</valueentry>
									<valueentry>
										<name>Flicker Filter (medium)</name>
										<value>4</value>
									</valueentry>
									<valueentry>
										<name>Flicker Filter (max)</name>
										<value>5</value>
									</valueentry>
								</valuelist>
								<value>2</value>
							</parameter>
						</effect>
					</filter>
					<sequence id="Vignett test kvsR 00:00:39:20 1">
						<name>Vignett test kvsR 00:00:39:20</name>
						<duration>3000</duration>
						<rate>
							<ntsc>FALSE</ntsc>
							<timebase>25</timebase>
						</rate>
						<in>0</in>
						<out>3000</out>
						<media>
							<video>
								<format>
									<samplecharacteristics>
										<width>1920</width>
										<height>1080</height>
										<anamorphic>FALSE</anamorphic>
										<pixelaspectratio>Square</pixelaspectratio>
										<fielddominance>upper</fielddominance>
										<rate>
											<ntsc>FALSE</ntsc>
											<timebase>25</timebase>
										</rate>
										<colordepth>24</colordepth>
										<codec>
											<name>Apple XDCAM 422 1080i50 (50 Mb/s CBR)</name>
											<appspecificdata>
												<appname>Final Cut Pro</appname>
												<appmanufacturer>Apple Inc.</appmanufacturer>
												<appversion>7.0</appversion>
												<data>
													<qtcodec>
														<codecname>Apple XDCAM 422 1080i50 (50 Mb/s CBR)</codecname>
														<codectypename>XDCAM 422 1080i50 (50 Mb/s CBR)</codectypename>
														<codectypecode>xd5c</codectypecode>
														<codecvendorcode>appl</codecvendorcode>
														<spatialquality>1023</spatialquality>
														<temporalquality>0</temporalquality>
														<keyframerate>0</keyframerate>
														<datarate>0</datarate>
													</qtcodec>
												</data>
											</appspecificdata>
										</codec>
									</samplecharacteristics>
									<appspecificdata>
										<appname>Final Cut Pro</appname>
										<appmanufacturer>Apple Inc.</appmanufacturer>
										<appversion>7.0</appversion>
										<data>
											<fcpimageprocessing>
												<useyuv>TRUE</useyuv>
												<usesuperwhite>FALSE</usesuperwhite>
												<rendermode>YUV8BPP</rendermode>
											</fcpimageprocessing>
										</data>
									</appspecificdata>
								</format>
								<track>
									<clipitem id="Vignett test kvsR 00:00:39:20 2">
										<name>Vignett test kvsR 00:00:39:20</name>
										<duration>3000</duration>
										<rate>
											<ntsc>FALSE</ntsc>
											<timebase>25</timebase>
										</rate>
										<in>0</in>
										<out>3000</out>
										<start>0</start>
										<end>3000</end>
										<stillframeoffset>1110</stillframeoffset>
										<pixelaspectratio>Square</pixelaspectratio>
										<anamorphic>FALSE</anamorphic>
										<alphatype>none</alphatype>
										<alphareverse>FALSE</alphareverse>
										<syncoffset>0</syncoffset>
										<logginginfo>
											<description>msub200012-3011-k1d3-002</description>
											<scene/>
											<shottake/>
											<lognote/>
											<good>FALSE</good>
										</logginginfo>
										<labels>
											<label>Good Take</label>
											<label2/>
										</labels>
										<comments>
											<mastercomment1>RÃ…STOFF. BR_FINFREDAG_MSUA_OPRO</mastercomment1>
											<mastercomment2/>
											<mastercomment3/>
											<mastercomment4/>
											<clipcommenta/>
										</comments>
										<file id="msub200012-3011-k1d3-002 2"/>
										<sourcetrack>
											<mediatype>video</mediatype>
										</sourcetrack>
										<fielddominance>upper</fielddominance>
									</clipitem>
									<enabled>TRUE</enabled>
									<locked>FALSE</locked>
								</track>
							</video>
						</media>
					</sequence>
					<sourcetrack>
						<mediatype>video</mediatype>
					</sourcetrack>
					<ismasterclip>FALSE</ismasterclip>
				</clipitem>
				<clipitem id="msub200012-3011-k2d3-005 27">
					<name>msub200012-3011-k2d3-005</name>
					<duration>8453</duration>
					<rate>
						<ntsc>FALSE</ntsc>
						<timebase>25</timebase>
					</rate>
					<in>1351</in>
					<out>1373</out>
					<start>32719</start>
					<end>32741</end>
					<pixelaspectratio>Square</pixelaspectratio>
					<enabled>TRUE</enabled>
					<anamorphic>FALSE</anamorphic>
					<alphatype>none</alphatype>
					<masterclipid>msub200012-3011-k2d3-005 1</masterclipid>
					<logginginfo>
						<description>msub200012-3011-k2d3-005</description>
						<scene/>
						<shottake/>
						<lognote/>
						<good>FALSE</good>
					</logginginfo>
					<labels>
						<label>Good Take</label>
						<label2/>
					</labels>
					<comments>
						<mastercomment1>RÃ…STOFF. BR_FINFREDAG_MSUA_OPRO</mastercomment1>
						<mastercomment2/>
						<mastercomment3/>
						<mastercomment4/>
						<clipcommenta/>
					</comments>
					<file id="msub200012-3011-k2d3-005 2"/>
					<sourcetrack>
						<mediatype>video</mediatype>
					</sourcetrack>
					<fielddominance>upper</fielddominance>
				</clipitem>
				<clipitem id="msub200012-3011-k2d3-005 28">
					<name>msub200012-3011-k2d3-005</name>
					<duration>8453</duration>
					<rate>
						<ntsc>FALSE</ntsc>
						<timebase>25</timebase>
					</rate>
					<in>1372</in>
					<out>1379</out>
					<start>32763</start>
					<end>32770</end>
					<pixelaspectratio>Square</pixelaspectratio>
					<enabled>TRUE</enabled>
					<anamorphic>FALSE</anamorphic>
					<alphatype>none</alphatype>
					<masterclipid>msub200012-3011-k2d3-005 1</masterclipid>
					<logginginfo>
						<description>msub200012-3011-k2d3-005</description>
						<scene/>
						<shottake/>
						<lognote/>
						<good>FALSE</good>
					</logginginfo>
					<labels>
						<label>Good Take</label>
						<label2/>
					</labels>
					<comments>
						<mastercomment1>RÃ…STOFF. BR_FINFREDAG_MSUA_OPRO</mastercomment1>
						<mastercomment2/>
						<mastercomment3/>
						<mastercomment4/>
						<clipcommenta/>
					</comments>
					<file id="msub200012-3011-k2d3-005 2"/>
					<sourcetrack>
						<mediatype>video</mediatype>
					</sourcetrack>
					<fielddominance>upper</fielddominance>
				</clipitem>
				<clipitem id="msub200012-3011-k2d3-005 29">
					<name>msub200012-3011-k2d3-005</name>
					<duration>8453</duration>
					<rate>
						<ntsc>FALSE</ntsc>
						<timebase>25</timebase>
					</rate>
					<in>3117</in>
					<out>3142</out>
					<start>32900</start>
					<end>32925</end>
					<pixelaspectratio>Square</pixelaspectratio>
					<enabled>TRUE</enabled>
					<anamorphic>FALSE</anamorphic>
					<alphatype>none</alphatype>
					<masterclipid>msub200012-3011-k2d3-005 1</masterclipid>
					<logginginfo>
						<description>msub200012-3011-k2d3-005</description>
						<scene/>
						<shottake/>
						<lognote/>
						<good>FALSE</good>
					</logginginfo>
					<labels>
						<label>Good Take</label>
						<label2/>
					</labels>
					<comments>
						<mastercomment1>RÃ…STOFF. BR_FINFREDAG_MSUA_OPRO</mastercomment1>
						<mastercomment2/>
						<mastercomment3/>
						<mastercomment4/>
						<clipcommenta/>
					</comments>
					<file id="msub200012-3011-k2d3-005 2"/>
					<sourcetrack>
						<mediatype>video</mediatype>
					</sourcetrack>
					<link>
						<linkclipref>msub200012-3011-k2d3-005 29</linkclipref>
						<mediatype>video</mediatype>
						<trackindex>3</trackindex>
						<clipindex>24</clipindex>
					</link>
					<link>
						<linkclipref>msub200012-3011-k2d3-005 30</linkclipref>
						<mediatype>audio</mediatype>
						<trackindex>3</trackindex>
						<clipindex>50</clipindex>
					</link>
					<fielddominance>upper</fielddominance>
				</clipitem>
				<clipitem id="msub200012-3011-k2d3-005 31">
					<name>msub200012-3011-k2d3-005</name>
					<duration>8740</duration>
					<rate>
						<ntsc>FALSE</ntsc>
						<timebase>25</timebase>
					</rate>
					<in>3173</in>
					<out>3186</out>
					<start>32976</start>
					<end>32989</end>
					<pixelaspectratio>Square</pixelaspectratio>
					<enabled>TRUE</enabled>
					<anamorphic>FALSE</anamorphic>
					<alphatype>none</alphatype>
					<masterclipid>msub200012-3011-k2d3-005 1</masterclipid>
					<syncoffset>0</syncoffset>
					<logginginfo>
						<description>msub200012-3011-k2d3-005</description>
						<scene/>
						<shottake/>
						<lognote/>
						<good>FALSE</good>
					</logginginfo>
					<labels>
						<label>Good Take</label>
						<label2/>
					</labels>
					<comments>
						<mastercomment1>RÃ…STOFF. BR_FINFREDAG_MSUA_OPRO</mastercomment1>
						<mastercomment2/>
						<mastercomment3/>
						<mastercomment4/>
						<clipcommenta/>
					</comments>
					<file id="msub200012-3011-k2d3-005 2"/>
					<sourcetrack>
						<mediatype>video</mediatype>
					</sourcetrack>
					<fielddominance>upper</fielddominance>
				</clipitem>
				<clipitem id="msub200012-3011-k2d3-005 32">
					<name>msub200012-3011-k2d3-005</name>
					<duration>8740</duration>
					<rate>
						<ntsc>FALSE</ntsc>
						<timebase>25</timebase>
					</rate>
					<in>1603</in>
					<out>1634</out>
					<start>33201</start>
					<end>33232</end>
					<pixelaspectratio>Square</pixelaspectratio>
					<enabled>TRUE</enabled>
					<anamorphic>FALSE</anamorphic>
					<alphatype>none</alphatype>
					<masterclipid>msub200012-3011-k2d3-005 1</masterclipid>
					<syncoffset>0</syncoffset>
					<logginginfo>
						<description>msub200012-3011-k2d3-005</description>
						<scene/>
						<shottake/>
						<lognote/>
						<good>FALSE</good>
					</logginginfo>
					<labels>
						<label>Good Take</label>
						<label2/>
					</labels>
					<comments>
						<mastercomment1>RÃ…STOFF. BR_FINFREDAG_MSUA_OPRO</mastercomment1>
						<mastercomment2/>
						<mastercomment3/>
						<mastercomment4/>
						<clipcommenta/>
					</comments>
					<file id="msub200012-3011-k2d3-005 2"/>
					<sourcetrack>
						<mediatype>video</mediatype>
					</sourcetrack>
					<fielddominance>upper</fielddominance>
				</clipitem>
				<clipitem id="msub200012-3011-k1d3-002 28">
					<name>msub200012-3011-k1d3-002</name>
					<duration>21845</duration>
					<rate>
						<ntsc>FALSE</ntsc>
						<timebase>25</timebase>
					</rate>
					<in>4093</in>
					<out>4207</out>
					<start>33432</start>
					<end>33546</end>
					<pixelaspectratio>Square</pixelaspectratio>
					<enabled>TRUE</enabled>
					<anamorphic>FALSE</anamorphic>
					<alphatype>none</alphatype>
					<masterclipid>msub200012-3011-k1d3-002 1</masterclipid>
					<syncoffset>0</syncoffset>
					<logginginfo>
						<description>msub200012-3011-k1d3-002</description>
						<scene/>
						<shottake/>
						<lognote/>
						<good>FALSE</good>
					</logginginfo>
					<labels>
						<label>Good Take</label>
						<label2/>
					</labels>
					<comments>
						<mastercomment1>RÃ…STOFF. BR_FINFREDAG_MSUA_OPRO</mastercomment1>
						<mastercomment2/>
						<mastercomment3/>
						<mastercomment4/>
						<clipcommenta/>
					</comments>
					<file id="msub200012-3011-k1d3-002 2"/>
					<sourcetrack>
						<mediatype>video</mediatype>
					</sourcetrack>
					<fielddominance>upper</fielddominance>
					<filter>
						<effect>
							<name>Time Remap</name>
							<effectid>timeremap</effectid>
							<effectcategory>motion</effectcategory>
							<effecttype>motion</effecttype>
							<mediatype>video</mediatype>
							<parameter>
								<parameterid>variablespeed</parameterid>
								<name>variablespeed</name>
								<valuemin>0</valuemin>
								<valuemax>1</valuemax>
								<value>0</value>
							</parameter>
							<parameter>
								<parameterid>mappedduration</parameterid>
								<name>mappedduration</name>
								<value>
									<timecode>
										<rate>
											<timebase>0</timebase>
										</rate>
										<string>0</string>
										<frame>0</frame>
										<displayformat>NDF</displayformat>
									</timecode>
								</value>
							</parameter>
							<parameter>
								<parameterid>speed</parameterid>
								<name>speed</name>
								<valuemin>-10000</valuemin>
								<valuemax>10000</valuemax>
								<value>40</value>
							</parameter>
							<parameter>
								<parameterid>reverse</parameterid>
								<name>reverse</name>
								<value>FALSE</value>
							</parameter>
							<parameter>
								<parameterid>frameblending</parameterid>
								<name>frameblending</name>
								<value>TRUE</value>
							</parameter>
							<parameter>
								<parameterid>graphdict</parameterid>
								<name>graphdict</name>
								<valuemin>0</valuemin>
								<valuemax>8682</valuemax>
								<keyframe>
									<when>142</when>
									<value>0.3814</value>
									<speedkfstart>TRUE</speedkfstart>
									<speedvirtualkf>TRUE</speedvirtualkf>
								</keyframe>
								<keyframe>
									<when>4093</when>
									<value>1581</value>
									<speedkfin>TRUE</speedkfin>
									<speedvirtualkf>TRUE</speedvirtualkf>
								</keyframe>
								<keyframe>
									<when>4207</when>
									<value>1626.61</value>
									<speedkfout>TRUE</speedkfout>
									<speedvirtualkf>TRUE</speedvirtualkf>
								</keyframe>
								<keyframe>
									<when>21845</when>
									<value>8683.38</value>
									<speedkfend>TRUE</speedkfend>
									<speedvirtualkf>TRUE</speedvirtualkf>
								</keyframe>
								<interpolation>
									<name>FCPCurve</name>
								</interpolation>
								<value>1581</value>
							</parameter>
						</effect>
					</filter>
				</clipitem>
				<clipitem id="msub200012-3011-k1d3-002 29">
					<name>msub200012-3011-k1d3-002</name>
					<duration>2941</duration>
					<rate>
						<ntsc>FALSE</ntsc>
						<timebase>25</timebase>
					</rate>
					<in>2374</in>
					<out>2395</out>
					<start>33546</start>
					<end>33567</end>
					<pixelaspectratio>Square</pixelaspectratio>
					<enabled>TRUE</enabled>
					<anamorphic>FALSE</anamorphic>
					<alphatype>none</alphatype>
					<masterclipid>msub200012-3011-k1d3-002 1</masterclipid>
					<syncoffset>0</syncoffset>
					<logginginfo>
						<description>msub200012-3011-k1d3-002</description>
						<scene/>
						<shottake/>
						<lognote/>
						<good>FALSE</good>
					</logginginfo>
					<labels>
						<label>Good Take</label>
						<label2/>
					</labels>
					<comments>
						<mastercomment1>RÃ…STOFF. BR_FINFREDAG_MSUA_OPRO</mastercomment1>
						<mastercomment2/>
						<mastercomment3/>
						<mastercomment4/>
						<clipcommenta/>
					</comments>
					<file id="msub200012-3011-k1d3-002 2"/>
					<sourcetrack>
						<mediatype>video</mediatype>
					</sourcetrack>
					<fielddominance>upper</fielddominance>
					<filter>
						<effect>
							<name>Time Remap</name>
							<effectid>timeremap</effectid>
							<effectcategory>motion</effectcategory>
							<effecttype>motion</effecttype>
							<mediatype>video</mediatype>
							<parameter>
								<parameterid>variablespeed</parameterid>
								<name>variablespeed</name>
								<valuemin>0</valuemin>
								<valuemax>1</valuemax>
								<value>0</value>
							</parameter>
							<parameter>
								<parameterid>mappedduration</parameterid>
								<name>mappedduration</name>
								<value>
									<timecode>
										<rate>
											<timebase>0</timebase>
										</rate>
										<string>0</string>
										<frame>0</frame>
										<displayformat>NDF</displayformat>
									</timecode>
								</value>
							</parameter>
							<parameter>
								<parameterid>speed</parameterid>
								<name>speed</name>
								<valuemin>-10000</valuemin>
								<valuemax>10000</valuemax>
								<value>297</value>
							</parameter>
							<parameter>
								<parameterid>reverse</parameterid>
								<name>reverse</name>
								<value>TRUE</value>
							</parameter>
							<parameter>
								<parameterid>frameblending</parameterid>
								<name>frameblending</name>
								<value>TRUE</value>
							</parameter>
							<parameter>
								<parameterid>graphdict</parameterid>
								<name>graphdict</name>
								<valuemin>0</valuemin>
								<valuemax>8682</valuemax>
								<keyframe>
									<when>0</when>
									<value>8684.38</value>
									<speedkfstart>TRUE</speedkfstart>
									<speedvirtualkf>TRUE</speedvirtualkf>
								</keyframe>
								<keyframe>
									<when>2374</when>
									<value>1627.21</value>
									<speedkfin>TRUE</speedkfin>
									<speedvirtualkf>TRUE</speedvirtualkf>
								</keyframe>
								<keyframe>
									<when>2395</when>
									<value>1564.79</value>
									<speedkfout>TRUE</speedkfout>
									<speedvirtualkf>TRUE</speedvirtualkf>
								</keyframe>
								<keyframe>
									<when>2922</when>
									<value>1.3746</value>
									<speedkfend>TRUE</speedkfend>
									<speedvirtualkf>TRUE</speedvirtualkf>
								</keyframe>
								<interpolation>
									<name>FCPCurve</name>
								</interpolation>
								<value>1626.21</value>
							</parameter>
						</effect>
					</filter>
				</clipitem>
				<clipitem id="msub200012-3011-k1d3-002 30">
					<name>msub200012-3011-k1d3-002</name>
					<duration>8740</duration>
					<rate>
						<ntsc>FALSE</ntsc>
						<timebase>25</timebase>
					</rate>
					<in>6785</in>
					<out>6815</out>
					<start>33809</start>
					<end>33839</end>
					<pixelaspectratio>Square</pixelaspectratio>
					<enabled>TRUE</enabled>
					<anamorphic>FALSE</anamorphic>
					<alphatype>none</alphatype>
					<masterclipid>msub200012-3011-k1d3-002 1</masterclipid>
					<syncoffset>0</syncoffset>
					<logginginfo>
						<description>msub200012-3011-k1d3-002</description>
						<scene/>
						<shottake/>
						<lognote/>
						<good>FALSE</good>
					</logginginfo>
					<labels>
						<label>Good Take</label>
						<label2/>
					</labels>
					<comments>
						<mastercomment1>RÃ…STOFF. BR_FINFREDAG_MSUA_OPRO</mastercomment1>
						<mastercomment2/>
						<mastercomment3/>
						<mastercomment4/>
						<clipcommenta/>
					</comments>
					<file id="msub200012-3011-k1d3-002 2"/>
					<sourcetrack>
						<mediatype>video</mediatype>
					</sourcetrack>
					<fielddominance>upper</fielddominance>
				</clipitem>
				<clipitem id="msub200012-3011-k1d3-002 31">
					<name>msub200012-3011-k1d3-002</name>
					<duration>8740</duration>
					<rate>
						<ntsc>FALSE</ntsc>
						<timebase>25</timebase>
					</rate>
					<in>6846</in>
					<out>6876</out>
					<start>33870</start>
					<end>33900</end>
					<pixelaspectratio>Square</pixelaspectratio>
					<enabled>TRUE</enabled>
					<anamorphic>FALSE</anamorphic>
					<alphatype>none</alphatype>
					<masterclipid>msub200012-3011-k1d3-002 1</masterclipid>
					<syncoffset>0</syncoffset>
					<logginginfo>
						<description>msub200012-3011-k1d3-002</description>
						<scene/>
						<shottake/>
						<lognote/>
						<good>FALSE</good>
					</logginginfo>
					<labels>
						<label>Good Take</label>
						<label2/>
					</labels>
					<comments>
						<mastercomment1>RÃ…STOFF. BR_FINFREDAG_MSUA_OPRO</mastercomment1>
						<mastercomment2/>
						<mastercomment3/>
						<mastercomment4/>
						<clipcommenta/>
					</comments>
					<file id="msub200012-3011-k1d3-002 2"/>
					<sourcetrack>
						<mediatype>video</mediatype>
					</sourcetrack>
					<fielddominance>upper</fielddominance>
				</clipitem>
				<clipitem id="msub200012-3011-k1d3-002 32">
					<name>msub200012-3011-k1d3-002</name>
					<duration>8740</duration>
					<rate>
						<ntsc>FALSE</ntsc>
						<timebase>25</timebase>
					</rate>
					<in>2361</in>
					<out>2431</out>
					<start>34051</start>
					<end>34121</end>
					<pixelaspectratio>Square</pixelaspectratio>
					<enabled>TRUE</enabled>
					<anamorphic>FALSE</anamorphic>
					<alphatype>none</alphatype>
					<masterclipid>msub200012-3011-k1d3-002 1</masterclipid>
					<syncoffset>0</syncoffset>
					<logginginfo>
						<description>msub200012-3011-k1d3-002</description>
						<scene/>
						<shottake/>
						<lognote/>
						<good>FALSE</good>
					</logginginfo>
					<labels>
						<label>Good Take</label>
						<label2/>
					</labels>
					<comments>
						<mastercomment1>RÃ…STOFF. BR_FINFREDAG_MSUA_OPRO</mastercomment1>
						<mastercomment2/>
						<mastercomment3/>
						<mastercomment4/>
						<clipcommenta/>
					</comments>
					<file id="msub200012-3011-k1d3-002 2"/>
					<sourcetrack>
						<mediatype>video</mediatype>
					</sourcetrack>
					<fielddominance>upper</fielddominance>
				</clipitem>
				<clipitem id="msub200012-3011-k2d3-005 33">
					<name>msub200012-3011-k2d3-005</name>
					<duration>8740</duration>
					<rate>
						<ntsc>FALSE</ntsc>
						<timebase>25</timebase>
					</rate>
					<in>3880</in>
					<out>3909</out>
					<start>34310</start>
					<end>34339</end>
					<pixelaspectratio>Square</pixelaspectratio>
					<enabled>TRUE</enabled>
					<anamorphic>FALSE</anamorphic>
					<alphatype>none</alphatype>
					<masterclipid>msub200012-3011-k2d3-005 1</masterclipid>
					<syncoffset>0</syncoffset>
					<logginginfo>
						<description>msub200012-3011-k2d3-005</description>
						<scene/>
						<shottake/>
						<lognote/>
						<good>FALSE</good>
					</logginginfo>
					<labels>
						<label>Good Take</label>
						<label2/>
					</labels>
					<comments>
						<mastercomment1>RÃ…STOFF. BR_FINFREDAG_MSUA_OPRO</mastercomment1>
						<mastercomment2/>
						<mastercomment3/>
						<mastercomment4/>
						<clipcommenta/>
					</comments>
					<file id="msub200012-3011-k2d3-005 2"/>
					<sourcetrack>
						<mediatype>video</mediatype>
					</sourcetrack>
					<fielddominance>upper</fielddominance>
				</clipitem>
				<clipitem id="Jenny-Skavland-cuyout-70.png">
					<name>Jenny-Skavland-cuyout-70.png</name>
					<duration>3026</duration>
					<rate>
						<ntsc>FALSE</ntsc>
						<timebase>25</timebase>
					</rate>
					<in>1554</in>
					<out>1590</out>
					<start>34495</start>
					<end>-1</end>
					<pixelaspectratio>Square</pixelaspectratio>
					<stillframe>TRUE</stillframe>
					<enabled>TRUE</enabled>
					<anamorphic>FALSE</anamorphic>
					<alphatype>straight</alphatype>
					<masterclipid>Jenny-Skavland-cuyout-70.png1</masterclipid>
					<logginginfo>
						<scene/>
						<shottake/>
						<lognote/>
						<good>FALSE</good>
					</logginginfo>
					<labels>
						<label2/>
					</labels>
					<comments>
						<mastercomment1/>
						<mastercomment2/>
						<mastercomment3/>
						<mastercomment4/>
					</comments>
					<file id="Jenny-Skavland-cuyout-70 ">
						<name>Jenny-Skavland-cuyout-70.png</name>
						<pathurl>file://localhost/SuperSAN1/Prosjekter/MSUB20000012%20FIN%20FREDAG/FCP-PROSJEKTER,%20sesong%202/program%201%20Jenny/Vignette-Kristine_VS_Roekla-2013/Kristine_VS_Jenny/Stills_Elementer-Kristine_VS_Jenny/Cut-out%20bilder%20Kristine_VS_Jenny/Jenny-Skavland-cuyout-70.png</pathurl>
						<rate>
							<timebase>25</timebase>
						</rate>
						<duration>2</duration>
						<width>3937</width>
						<height>2990</height>
						<media>
							<video>
								<duration>2</duration>
								<stillframe>TRUE</stillframe>
								<samplecharacteristics>
									<width>3937</width>
									<height>2990</height>
								</samplecharacteristics>
							</video>
						</media>
					</file>
					<filter>
						<effect>
							<name>Basic Motion</name>
							<effectid>basic</effectid>
							<effectcategory>motion</effectcategory>
							<effecttype>motion</effecttype>
							<mediatype>video</mediatype>
							<parameter>
								<parameterid>scale</parameterid>
								<name>Scale</name>
								<valuemin>0</valuemin>
								<valuemax>1000</valuemax>
								<value>70</value>
							</parameter>
							<parameter>
								<parameterid>center</parameterid>
								<name>Center</name>
								<value>
									<horiz>0.169947</horiz>
									<vert>0.130606</vert>
								</value>
							</parameter>
							<parameter>
								<parameterid>rotation</parameterid>
								<name>Rotation</name>
								<valuemin>-8640</valuemin>
								<valuemax>8640</valuemax>
								<value>0</value>
							</parameter>
							<parameter>
								<parameterid>centerOffset</parameterid>
								<name>Anchor Point</name>
								<value>
									<horiz>0</horiz>
									<vert>0</vert>
								</value>
							</parameter>
						</effect>
					</filter>
					<filter>
						<enabled>FALSE</enabled>
						<effect>
							<name>Drop Shadow</name>
							<effectid>dropshadow</effectid>
							<effectcategory>motion</effectcategory>
							<effecttype>motion</effecttype>
							<mediatype>video</mediatype>
							<parameter>
								<parameterid>offset</parameterid>
								<name>offset</name>
								<valuemin>-100</valuemin>
								<valuemax>100</valuemax>
								<value>2</value>
							</parameter>
							<parameter>
								<parameterid>angle</parameterid>
								<name>angle</name>
								<valuemin>-720</valuemin>
								<valuemax>720</valuemax>
								<value>135</value>
							</parameter>
							<parameter>
								<parameterid>color</parameterid>
								<name>color</name>
								<value>
									<alpha>0</alpha>
									<red>0</red>
									<green>0</green>
									<blue>0</blue>
								</value>
							</parameter>
							<parameter>
								<parameterid>softness</parameterid>
								<name>softness</name>
								<valuemin>0</valuemin>
								<valuemax>100</valuemax>
								<value>10</value>
							</parameter>
							<parameter>
								<parameterid>opacity</parameterid>
								<name>opacity</name>
								<valuemin>0</valuemin>
								<valuemax>100</valuemax>
								<value>50</value>
							</parameter>
						</effect>
					</filter>
					<filter>
						<enabled>FALSE</enabled>
						<effect>
							<name>Motion Blur</name>
							<effectid>motionblur</effectid>
							<effectcategory>motion</effectcategory>
							<effecttype>motion</effecttype>
							<mediatype>video</mediatype>
							<parameter>
								<parameterid>duration</parameterid>
								<name>% Blur</name>
								<valuemin>0</valuemin>
								<valuemax>1000</valuemax>
								<value>500</value>
							</parameter>
							<parameter>
								<parameterid>samples</parameterid>
								<name>Samples</name>
								<valuemin>1</valuemin>
								<valuemax>16</valuemax>
								<value>4</value>
							</parameter>
						</effect>
					</filter>
					<filter>
						<effect>
							<name>Crop</name>
							<effectid>crop</effectid>
							<effectcategory>motion</effectcategory>
							<effecttype>motion</effecttype>
							<mediatype>video</mediatype>
							<parameter>
								<parameterid>left</parameterid>
								<name>left</name>
								<valuemin>0</valuemin>
								<valuemax>100</valuemax>
								<value>0</value>
							</parameter>
							<parameter>
								<parameterid>right</parameterid>
								<name>right</name>
								<valuemin>0</valuemin>
								<valuemax>100</valuemax>
								<value>0</value>
							</parameter>
							<parameter>
								<parameterid>top</parameterid>
								<name>top</name>
								<valuemin>0</valuemin>
								<valuemax>100</valuemax>
								<value>0</value>
							</parameter>
							<parameter>
								<parameterid>bottom</parameterid>
								<name>bottom</name>
								<valuemin>0</valuemin>
								<valuemax>100</valuemax>
								<value>0</value>
							</parameter>
							<parameter>
								<parameterid>edgefeather</parameterid>
								<name>edgefeather</name>
								<valuemin>0</valuemin>
								<valuemax>100</valuemax>
								<value>0</value>
							</parameter>
						</effect>
					</filter>
					<filter>
						<effect>
							<name>Distort</name>
							<effectid>deformation</effectid>
							<effectcategory>motion</effectcategory>
							<effecttype>motion</effecttype>
							<mediatype>video</mediatype>
							<parameter>
								<parameterid>ulcorner</parameterid>
								<name>Upper Left</name>
								<value>
									<horiz>-0.5</horiz>
									<vert>-0.5</vert>
								</value>
							</parameter>
							<parameter>
								<parameterid>urcorner</parameterid>
								<name>Upper Right</name>
								<value>
									<horiz>0.5</horiz>
									<vert>-0.5</vert>
								</value>
							</parameter>
							<parameter>
								<parameterid>lrcorner</parameterid>
								<name>Lower Right</name>
								<value>
									<horiz>0.5</horiz>
									<vert>0.5</vert>
								</value>
							</parameter>
							<parameter>
								<parameterid>llcorner</parameterid>
								<name>Lower Left</name>
								<value>
									<horiz>-0.5</horiz>
									<vert>0.5</vert>
								</value>
							</parameter>
							<parameter>
								<parameterid>aspect</parameterid>
								<name>Aspect</name>
								<valuemin>-10000</valuemin>
								<valuemax>10000</valuemax>
								<value>0</value>
							</parameter>
						</effect>
					</filter>
					<filter>
						<effect>
							<name>Opacity</name>
							<effectid>opacity</effectid>
							<effectcategory>motion</effectcategory>
							<effecttype>motion</effecttype>
							<mediatype>video</mediatype>
							<parameter>
								<parameterid>opacity</parameterid>
								<name>opacity</name>
								<valuemin>0</valuemin>
								<valuemax>100</valuemax>
								<value>100</value>
							</parameter>
						</effect>
					</filter>
					<sourcetrack>
						<mediatype>video</mediatype>
					</sourcetrack>
					<fielddominance>none</fielddominance>
				</clipitem>
				<transitionitem id="66958492 ">
					<rate>
						<ntsc>FALSE</ntsc>
						<timebase>25</timebase>
					</rate>
					<start>34525</start>
					<end>34531</end>
					<alignment>end-black</alignment>
					<effect>
						<name>Push Slide</name>
						<effectid>Push Slide</effectid>
						<effectcategory>Slide</effectcategory>
						<effecttype>transition</effecttype>
						<mediatype>video</mediatype>
						<wipecode>1</wipecode>
						<wipeaccuracy>100</wipeaccuracy>
						<startratio>0</startratio>
						<endratio>1</endratio>
						<reverse>FALSE</reverse>
						<parameter>
							<parameterid>angleofpush</parameterid>
							<name>Angle</name>
							<valuemin>-360</valuemin>
							<valuemax>360</valuemax>
							<value>180</value>
						</parameter>
						<parameter>
							<parameterid>borderwidth</parameterid>
							<name>Border</name>
							<valuemin>0</valuemin>
							<valuemax>10</valuemax>
							<value>0</value>
						</parameter>
						<parameter>
							<parameterid>bordercolor</parameterid>
							<name>Color</name>
							<value>
								<alpha>255</alpha>
								<red>0</red>
								<green>0</green>
								<blue>0</blue>
							</value>
						</parameter>
					</effect>
				</transitionitem>
				<clipitem id="CreditPlakater_2013_01.png">
					<name>CreditPlakater_2013_01.png</name>
					<duration>3026</duration>
					<rate>
						<ntsc>FALSE</ntsc>
						<timebase>25</timebase>
					</rate>
					<in>808</in>
					<out>866</out>
					<start>35659</start>
					<end>35717</end>
					<pixelaspectratio>Square</pixelaspectratio>
					<stillframe>TRUE</stillframe>
					<anamorphic>FALSE</anamorphic>
					<alphatype>straight</alphatype>
					<masterclipid>CreditPlakater_2013_01.png1</masterclipid>
					<syncoffset>0</syncoffset>
					<logginginfo>
						<scene/>
						<shottake/>
						<lognote/>
						<good>FALSE</good>
					</logginginfo>
					<labels>
						<label2/>
					</labels>
					<comments>
						<mastercomment1/>
						<mastercomment2/>
						<mastercomment3/>
						<mastercomment4/>
					</comments>
					<file id="CreditPlakater_2013_01 ">
						<name>CreditPlakater_2013_01.png</name>
						<pathurl>file://localhost/SuperSAN1/Prosjekter/MSUB20000012%20FIN%20FREDAG/FCP-PROSJEKTER,%20sesong%202/program%201%20Jenny/Cred-plakat/CreditPlakater_2013_01.png</pathurl>
						<rate>
							<timebase>25</timebase>
						</rate>
						<duration>2</duration>
						<width>1920</width>
						<height>1080</height>
						<media>
							<video>
								<duration>2</duration>
								<stillframe>TRUE</stillframe>
								<samplecharacteristics>
									<width>1920</width>
									<height>1080</height>
								</samplecharacteristics>
							</video>
						</media>
					</file>
					<sourcetrack>
						<mediatype>video</mediatype>
					</sourcetrack>
					<fielddominance>none</fielddominance>
				</clipitem>
				<clipitem id="CreditPlakater_2013_02.png">
					<name>CreditPlakater_2013_02.png</name>
					<duration>3026</duration>
					<rate>
						<ntsc>FALSE</ntsc>
						<timebase>25</timebase>
					</rate>
					<in>1821</in>
					<out>1873</out>
					<start>35720</start>
					<end>35772</end>
					<pixelaspectratio>Square</pixelaspectratio>
					<stillframe>TRUE</stillframe>
					<anamorphic>FALSE</anamorphic>
					<alphatype>straight</alphatype>
					<masterclipid>CreditPlakater_2013_02.png1</masterclipid>
					<syncoffset>0</syncoffset>
					<logginginfo>
						<scene/>
						<shottake/>
						<lognote/>
						<good>FALSE</good>
					</logginginfo>
					<labels>
						<label2/>
					</labels>
					<comments>
						<mastercomment1/>
						<mastercomment2/>
						<mastercomment3/>
						<mastercomment4/>
					</comments>
					<file id="CreditPlakater_2013_02 ">
						<name>CreditPlakater_2013_02.png</name>
						<pathurl>file://localhost/SuperSAN1/Prosjekter/MSUB20000012%20FIN%20FREDAG/FCP-PROSJEKTER,%20sesong%202/program%201%20Jenny/Cred-plakat/CreditPlakater_2013_02.png</pathurl>
						<rate>
							<timebase>25</timebase>
						</rate>
						<duration>2</duration>
						<width>1920</width>
						<height>1080</height>
						<media>
							<video>
								<duration>2</duration>
								<stillframe>TRUE</stillframe>
								<samplecharacteristics>
									<width>1920</width>
									<height>1080</height>
								</samplecharacteristics>
							</video>
						</media>
					</file>
					<sourcetrack>
						<mediatype>video</mediatype>
					</sourcetrack>
					<fielddominance>none</fielddominance>
				</clipitem>
				<clipitem id="CreditPlakater_2013_03.png">
					<name>CreditPlakater_2013_03.png</name>
					<duration>3026</duration>
					<rate>
						<ntsc>FALSE</ntsc>
						<timebase>25</timebase>
					</rate>
					<in>1582</in>
					<out>1643</out>
					<start>35775</start>
					<end>35836</end>
					<pixelaspectratio>Square</pixelaspectratio>
					<stillframe>TRUE</stillframe>
					<anamorphic>FALSE</anamorphic>
					<alphatype>straight</alphatype>
					<masterclipid>CreditPlakater_2013_03.png1</masterclipid>
					<syncoffset>0</syncoffset>
					<logginginfo>
						<scene/>
						<shottake/>
						<lognote/>
						<good>FALSE</good>
					</logginginfo>
					<labels>
						<label2/>
					</labels>
					<comments>
						<mastercomment1/>
						<mastercomment2/>
						<mastercomment3/>
						<mastercomment4/>
					</comments>
					<file id="CreditPlakater_2013_03 ">
						<name>CreditPlakater_2013_03.png</name>
						<pathurl>file://localhost/SuperSAN1/Prosjekter/MSUB20000012%20FIN%20FREDAG/FCP-PROSJEKTER,%20sesong%202/program%201%20Jenny/Cred-plakat/CreditPlakater_2013_03.png</pathurl>
						<rate>
							<timebase>25</timebase>
						</rate>
						<duration>2</duration>
						<width>1920</width>
						<height>1080</height>
						<media>
							<video>
								<duration>2</duration>
								<stillframe>TRUE</stillframe>
								<samplecharacteristics>
									<width>1920</width>
									<height>1080</height>
								</samplecharacteristics>
							</video>
						</media>
					</file>
					<sourcetrack>
						<mediatype>video</mediatype>
					</sourcetrack>
					<fielddominance>none</fielddominance>
				</clipitem>
				<clipitem id="CreditPlakater_2013_04.png">
					<name>CreditPlakater_2013_04.png</name>
					<duration>3026</duration>
					<rate>
						<ntsc>FALSE</ntsc>
						<timebase>25</timebase>
					</rate>
					<in>1528</in>
					<out>1594</out>
					<start>35838</start>
					<end>35904</end>
					<pixelaspectratio>Square</pixelaspectratio>
					<stillframe>TRUE</stillframe>
					<anamorphic>FALSE</anamorphic>
					<alphatype>straight</alphatype>
					<masterclipid>CreditPlakater_2013_04.png1</masterclipid>
					<syncoffset>0</syncoffset>
					<logginginfo>
						<scene/>
						<shottake/>
						<lognote/>
						<good>FALSE</good>
					</logginginfo>
					<labels>
						<label2/>
					</labels>
					<comments>
						<mastercomment1/>
						<mastercomment2/>
						<mastercomment3/>
						<mastercomment4/>
					</comments>
					<file id="CreditPlakater_2013_04 ">
						<name>CreditPlakater_2013_04.png</name>
						<pathurl>file://localhost/SuperSAN1/Prosjekter/MSUB20000012%20FIN%20FREDAG/FCP-PROSJEKTER,%20sesong%202/program%201%20Jenny/Cred-plakat/CreditPlakater_2013_04.png</pathurl>
						<rate>
							<timebase>25</timebase>
						</rate>
						<duration>2</duration>
						<width>1920</width>
						<height>1080</height>
						<media>
							<video>
								<duration>2</duration>
								<stillframe>TRUE</stillframe>
								<samplecharacteristics>
									<width>1920</width>
									<height>1080</height>
								</samplecharacteristics>
							</video>
						</media>
					</file>
					<sourcetrack>
						<mediatype>video</mediatype>
					</sourcetrack>
					<fielddominance>none</fielddominance>
				</clipitem>
				<clipitem id="CreditPlakater_2013_05.png">
					<name>CreditPlakater_2013_05.png</name>
					<duration>3026</duration>
					<rate>
						<ntsc>FALSE</ntsc>
						<timebase>25</timebase>
					</rate>
					<in>1515</in>
					<out>1571</out>
					<start>35907</start>
					<end>35963</end>
					<pixelaspectratio>Square</pixelaspectratio>
					<stillframe>TRUE</stillframe>
					<enabled>TRUE</enabled>
					<anamorphic>FALSE</anamorphic>
					<alphatype>straight</alphatype>
					<masterclipid>CreditPlakater_2013_05.png1</masterclipid>
					<syncoffset>0</syncoffset>
					<logginginfo>
						<scene/>
						<shottake/>
						<lognote/>
						<good>FALSE</good>
					</logginginfo>
					<labels>
						<label2/>
					</labels>
					<comments>
						<mastercomment1/>
						<mastercomment2/>
						<mastercomment3/>
						<mastercomment4/>
					</comments>
					<file id="CreditPlakater_2013_05 ">
						<name>CreditPlakater_2013_05.png</name>
						<pathurl>file://localhost/SuperSAN1/Prosjekter/MSUB20000012%20FIN%20FREDAG/FCP-PROSJEKTER,%20sesong%202/program%201%20Jenny/Cred-plakat/CreditPlakater_2013_05.png</pathurl>
						<rate>
							<timebase>25</timebase>
						</rate>
						<duration>2</duration>
						<width>1920</width>
						<height>1080</height>
						<media>
							<video>
								<duration>2</duration>
								<stillframe>TRUE</stillframe>
								<samplecharacteristics>
									<width>1920</width>
									<height>1080</height>
								</samplecharacteristics>
							</video>
						</media>
					</file>
					<filter>
						<effect>
							<name>Basic Motion</name>
							<effectid>basic</effectid>
							<effectcategory>motion</effectcategory>
							<effecttype>motion</effecttype>
							<mediatype>video</mediatype>
							<parameter>
								<parameterid>scale</parameterid>
								<name>Scale</name>
								<valuemin>0</valuemin>
								<valuemax>1000</valuemax>
								<value>94</value>
							</parameter>
							<parameter>
								<parameterid>rotation</parameterid>
								<name>Rotation</name>
								<valuemin>-8640</valuemin>
								<valuemax>8640</valuemax>
								<value>0</value>
							</parameter>
							<parameter>
								<parameterid>center</parameterid>
								<name>Center</name>
								<value>
									<horiz>0</horiz>
									<vert>0</vert>
								</value>
							</parameter>
							<parameter>
								<parameterid>centerOffset</parameterid>
								<name>Anchor Point</name>
								<value>
									<horiz>0</horiz>
									<vert>0</vert>
								</value>
							</parameter>
						</effect>
					</filter>
					<filter>
						<enabled>FALSE</enabled>
						<effect>
							<name>Drop Shadow</name>
							<effectid>dropshadow</effectid>
							<effectcategory>motion</effectcategory>
							<effecttype>motion</effecttype>
							<mediatype>video</mediatype>
							<parameter>
								<parameterid>offset</parameterid>
								<name>offset</name>
								<valuemin>-100</valuemin>
								<valuemax>100</valuemax>
								<value>2</value>
							</parameter>
							<parameter>
								<parameterid>angle</parameterid>
								<name>angle</name>
								<valuemin>-720</valuemin>
								<valuemax>720</valuemax>
								<value>135</value>
							</parameter>
							<parameter>
								<parameterid>color</parameterid>
								<name>color</name>
								<value>
									<alpha>0</alpha>
									<red>0</red>
									<green>0</green>
									<blue>0</blue>
								</value>
							</parameter>
							<parameter>
								<parameterid>softness</parameterid>
								<name>softness</name>
								<valuemin>0</valuemin>
								<valuemax>100</valuemax>
								<value>10</value>
							</parameter>
							<parameter>
								<parameterid>opacity</parameterid>
								<name>opacity</name>
								<valuemin>0</valuemin>
								<valuemax>100</valuemax>
								<value>50</value>
							</parameter>
						</effect>
					</filter>
					<filter>
						<enabled>FALSE</enabled>
						<effect>
							<name>Motion Blur</name>
							<effectid>motionblur</effectid>
							<effectcategory>motion</effectcategory>
							<effecttype>motion</effecttype>
							<mediatype>video</mediatype>
							<parameter>
								<parameterid>duration</parameterid>
								<name>% Blur</name>
								<valuemin>0</valuemin>
								<valuemax>1000</valuemax>
								<value>500</value>
							</parameter>
							<parameter>
								<parameterid>samples</parameterid>
								<name>Samples</name>
								<valuemin>1</valuemin>
								<valuemax>16</valuemax>
								<value>4</value>
							</parameter>
						</effect>
					</filter>
					<filter>
						<effect>
							<name>Crop</name>
							<effectid>crop</effectid>
							<effectcategory>motion</effectcategory>
							<effecttype>motion</effecttype>
							<mediatype>video</mediatype>
							<parameter>
								<parameterid>left</parameterid>
								<name>left</name>
								<valuemin>0</valuemin>
								<valuemax>100</valuemax>
								<value>0</value>
							</parameter>
							<parameter>
								<parameterid>right</parameterid>
								<name>right</name>
								<valuemin>0</valuemin>
								<valuemax>100</valuemax>
								<value>0</value>
							</parameter>
							<parameter>
								<parameterid>top</parameterid>
								<name>top</name>
								<valuemin>0</valuemin>
								<valuemax>100</valuemax>
								<value>0</value>
							</parameter>
							<parameter>
								<parameterid>bottom</parameterid>
								<name>bottom</name>
								<valuemin>0</valuemin>
								<valuemax>100</valuemax>
								<value>0</value>
							</parameter>
							<parameter>
								<parameterid>edgefeather</parameterid>
								<name>edgefeather</name>
								<valuemin>0</valuemin>
								<valuemax>100</valuemax>
								<value>0</value>
							</parameter>
						</effect>
					</filter>
					<filter>
						<effect>
							<name>Distort</name>
							<effectid>deformation</effectid>
							<effectcategory>motion</effectcategory>
							<effecttype>motion</effecttype>
							<mediatype>video</mediatype>
							<parameter>
								<parameterid>ulcorner</parameterid>
								<name>Upper Left</name>
								<value>
									<horiz>-0.5</horiz>
									<vert>-0.5</vert>
								</value>
							</parameter>
							<parameter>
								<parameterid>urcorner</parameterid>
								<name>Upper Right</name>
								<value>
									<horiz>0.5</horiz>
									<vert>-0.5</vert>
								</value>
							</parameter>
							<parameter>
								<parameterid>lrcorner</parameterid>
								<name>Lower Right</name>
								<value>
									<horiz>0.5</horiz>
									<vert>0.5</vert>
								</value>
							</parameter>
							<parameter>
								<parameterid>llcorner</parameterid>
								<name>Lower Left</name>
								<value>
									<horiz>-0.5</horiz>
									<vert>0.5</vert>
								</value>
							</parameter>
							<parameter>
								<parameterid>aspect</parameterid>
								<name>Aspect</name>
								<valuemin>-10000</valuemin>
								<valuemax>10000</valuemax>
								<value>0</value>
							</parameter>
						</effect>
					</filter>
					<filter>
						<effect>
							<name>Opacity</name>
							<effectid>opacity</effectid>
							<effectcategory>motion</effectcategory>
							<effecttype>motion</effecttype>
							<mediatype>video</mediatype>
							<parameter>
								<parameterid>opacity</parameterid>
								<name>opacity</name>
								<valuemin>0</valuemin>
								<valuemax>100</valuemax>
								<value>100</value>
							</parameter>
						</effect>
					</filter>
					<sourcetrack>
						<mediatype>video</mediatype>
					</sourcetrack>
					<fielddominance>none</fielddominance>
				</clipitem>
				<clipitem id="CreditPlakater_2013_06.png">
					<name>CreditPlakater_2013_06.png</name>
					<duration>3026</duration>
					<rate>
						<ntsc>FALSE</ntsc>
						<timebase>25</timebase>
					</rate>
					<in>1378</in>
					<out>1439</out>
					<start>35966</start>
					<end>36027</end>
					<pixelaspectratio>Square</pixelaspectratio>
					<stillframe>TRUE</stillframe>
					<enabled>TRUE</enabled>
					<anamorphic>FALSE</anamorphic>
					<alphatype>straight</alphatype>
					<masterclipid>CreditPlakater_2013_06.png1</masterclipid>
					<syncoffset>0</syncoffset>
					<logginginfo>
						<scene/>
						<shottake/>
						<lognote/>
						<good>FALSE</good>
					</logginginfo>
					<labels>
						<label2/>
					</labels>
					<comments>
						<mastercomment1/>
						<mastercomment2/>
						<mastercomment3/>
						<mastercomment4/>
					</comments>
					<file id="CreditPlakater_2013_06 ">
						<name>CreditPlakater_2013_06.png</name>
						<pathurl>file://localhost/SuperSAN1/Prosjekter/MSUB20000012%20FIN%20FREDAG/FCP-PROSJEKTER,%20sesong%202/program%201%20Jenny/Cred-plakat/CreditPlakater_2013_06.png</pathurl>
						<rate>
							<timebase>25</timebase>
						</rate>
						<duration>2</duration>
						<width>1920</width>
						<height>1080</height>
						<media>
							<video>
								<duration>2</duration>
								<stillframe>TRUE</stillframe>
								<samplecharacteristics>
									<width>1920</width>
									<height>1080</height>
								</samplecharacteristics>
							</video>
						</media>
					</file>
					<filter>
						<effect>
							<name>Basic Motion</name>
							<effectid>basic</effectid>
							<effectcategory>motion</effectcategory>
							<effecttype>motion</effecttype>
							<mediatype>video</mediatype>
							<parameter>
								<parameterid>scale</parameterid>
								<name>Scale</name>
								<valuemin>0</valuemin>
								<valuemax>1000</valuemax>
								<value>100</value>
							</parameter>
							<parameter>
								<parameterid>rotation</parameterid>
								<name>Rotation</name>
								<valuemin>-8640</valuemin>
								<valuemax>8640</valuemax>
								<value>5</value>
							</parameter>
							<parameter>
								<parameterid>center</parameterid>
								<name>Center</name>
								<value>
									<horiz>0</horiz>
									<vert>0</vert>
								</value>
							</parameter>
							<parameter>
								<parameterid>centerOffset</parameterid>
								<name>Anchor Point</name>
								<value>
									<horiz>0</horiz>
									<vert>0</vert>
								</value>
							</parameter>
						</effect>
					</filter>
					<filter>
						<enabled>FALSE</enabled>
						<effect>
							<name>Drop Shadow</name>
							<effectid>dropshadow</effectid>
							<effectcategory>motion</effectcategory>
							<effecttype>motion</effecttype>
							<mediatype>video</mediatype>
							<parameter>
								<parameterid>offset</parameterid>
								<name>offset</name>
								<valuemin>-100</valuemin>
								<valuemax>100</valuemax>
								<value>2</value>
							</parameter>
							<parameter>
								<parameterid>angle</parameterid>
								<name>angle</name>
								<valuemin>-720</valuemin>
								<valuemax>720</valuemax>
								<value>135</value>
							</parameter>
							<parameter>
								<parameterid>color</parameterid>
								<name>color</name>
								<value>
									<alpha>0</alpha>
									<red>0</red>
									<green>0</green>
									<blue>0</blue>
								</value>
							</parameter>
							<parameter>
								<parameterid>softness</parameterid>
								<name>softness</name>
								<valuemin>0</valuemin>
								<valuemax>100</valuemax>
								<value>10</value>
							</parameter>
							<parameter>
								<parameterid>opacity</parameterid>
								<name>opacity</name>
								<valuemin>0</valuemin>
								<valuemax>100</valuemax>
								<value>50</value>
							</parameter>
						</effect>
					</filter>
					<filter>
						<enabled>FALSE</enabled>
						<effect>
							<name>Motion Blur</name>
							<effectid>motionblur</effectid>
							<effectcategory>motion</effectcategory>
							<effecttype>motion</effecttype>
							<mediatype>video</mediatype>
							<parameter>
								<parameterid>duration</parameterid>
								<name>% Blur</name>
								<valuemin>0</valuemin>
								<valuemax>1000</valuemax>
								<value>500</value>
							</parameter>
							<parameter>
								<parameterid>samples</parameterid>
								<name>Samples</name>
								<valuemin>1</valuemin>
								<valuemax>16</valuemax>
								<value>4</value>
							</parameter>
						</effect>
					</filter>
					<filter>
						<effect>
							<name>Crop</name>
							<effectid>crop</effectid>
							<effectcategory>motion</effectcategory>
							<effecttype>motion</effecttype>
							<mediatype>video</mediatype>
							<parameter>
								<parameterid>left</parameterid>
								<name>left</name>
								<valuemin>0</valuemin>
								<valuemax>100</valuemax>
								<value>0</value>
							</parameter>
							<parameter>
								<parameterid>right</parameterid>
								<name>right</name>
								<valuemin>0</valuemin>
								<valuemax>100</valuemax>
								<value>0</value>
							</parameter>
							<parameter>
								<parameterid>top</parameterid>
								<name>top</name>
								<valuemin>0</valuemin>
								<valuemax>100</valuemax>
								<value>0</value>
							</parameter>
							<parameter>
								<parameterid>bottom</parameterid>
								<name>bottom</name>
								<valuemin>0</valuemin>
								<valuemax>100</valuemax>
								<value>0</value>
							</parameter>
							<parameter>
								<parameterid>edgefeather</parameterid>
								<name>edgefeather</name>
								<valuemin>0</valuemin>
								<valuemax>100</valuemax>
								<value>0</value>
							</parameter>
						</effect>
					</filter>
					<filter>
						<effect>
							<name>Distort</name>
							<effectid>deformation</effectid>
							<effectcategory>motion</effectcategory>
							<effecttype>motion</effecttype>
							<mediatype>video</mediatype>
							<parameter>
								<parameterid>ulcorner</parameterid>
								<name>Upper Left</name>
								<value>
									<horiz>-0.5</horiz>
									<vert>-0.5</vert>
								</value>
							</parameter>
							<parameter>
								<parameterid>urcorner</parameterid>
								<name>Upper Right</name>
								<value>
									<horiz>0.5</horiz>
									<vert>-0.5</vert>
								</value>
							</parameter>
							<parameter>
								<parameterid>lrcorner</parameterid>
								<name>Lower Right</name>
								<value>
									<horiz>0.5</horiz>
									<vert>0.5</vert>
								</value>
							</parameter>
							<parameter>
								<parameterid>llcorner</parameterid>
								<name>Lower Left</name>
								<value>
									<horiz>-0.5</horiz>
									<vert>0.5</vert>
								</value>
							</parameter>
							<parameter>
								<parameterid>aspect</parameterid>
								<name>Aspect</name>
								<valuemin>-10000</valuemin>
								<valuemax>10000</valuemax>
								<value>0</value>
							</parameter>
						</effect>
					</filter>
					<filter>
						<effect>
							<name>Opacity</name>
							<effectid>opacity</effectid>
							<effectcategory>motion</effectcategory>
							<effecttype>motion</effecttype>
							<mediatype>video</mediatype>
							<parameter>
								<parameterid>opacity</parameterid>
								<name>opacity</name>
								<valuemin>0</valuemin>
								<valuemax>100</valuemax>
								<value>100</value>
							</parameter>
						</effect>
					</filter>
					<sourcetrack>
						<mediatype>video</mediatype>
					</sourcetrack>
					<fielddominance>none</fielddominance>
				</clipitem>
				<enabled>TRUE</enabled>
				<locked>FALSE</locked>
			</track>
			<track>
				<transitionitem id="66966992 ">
					<rate>
						<ntsc>FALSE</ntsc>
						<timebase>25</timebase>
					</rate>
					<start>23108</start>
					<end>23114</end>
					<alignment>start</alignment>
					<effect>
						<name>Push Slide</name>
						<effectid>Push Slide</effectid>
						<effectcategory>Slide</effectcategory>
						<effecttype>transition</effecttype>
						<mediatype>video</mediatype>
						<wipecode>1</wipecode>
						<wipeaccuracy>100</wipeaccuracy>
						<startratio>0</startratio>
						<endratio>1</endratio>
						<reverse>FALSE</reverse>
						<parameter>
							<parameterid>angleofpush</parameterid>
							<name>Angle</name>
							<valuemin>-360</valuemin>
							<valuemax>360</valuemax>
							<value>90</value>
						</parameter>
						<parameter>
							<parameterid>borderwidth</parameterid>
							<name>Border</name>
							<valuemin>0</valuemin>
							<valuemax>10</valuemax>
							<value>0</value>
						</parameter>
						<parameter>
							<parameterid>bordercolor</parameterid>
							<name>Color</name>
							<value>
								<alpha>255</alpha>
								<red>0</red>
								<green>0</green>
								<blue>0</blue>
							</value>
						</parameter>
					</effect>
				</transitionitem>
				<clipitem id="Black Frame.png">
					<name>Black Frame.png</name>
					<duration>3026</duration>
					<rate>
						<ntsc>FALSE</ntsc>
						<timebase>25</timebase>
					</rate>
					<in>1500</in>
					<out>1508</out>
					<start>-1</start>
					<end>23116</end>
					<pixelaspectratio>Square</pixelaspectratio>
					<stillframe>TRUE</stillframe>
					<enabled>TRUE</enabled>
					<anamorphic>FALSE</anamorphic>
					<alphatype>straight</alphatype>
					<masterclipid>Black Frame.png1</masterclipid>
					<logginginfo>
						<scene/>
						<shottake/>
						<lognote/>
						<good>FALSE</good>
					</logginginfo>
					<labels>
						<label2/>
					</labels>
					<comments>
						<mastercomment1/>
						<mastercomment2/>
						<mastercomment3/>
						<mastercomment4/>
					</comments>
					<file id="Black Frame">
						<name>Black Frame.png</name>
						<pathurl>file://localhost/SuperSAN1/Prosjekter/MSUB20000012%20FIN%20FREDAG/FCP-PROSJEKTER,%20sesong%202/program%201%20Jenny/Div%20filer/Black%20Frame.png</pathurl>
						<rate>
							<timebase>25</timebase>
						</rate>
						<duration>2</duration>
						<width>1920</width>
						<height>1080</height>
						<media>
							<video>
								<duration>2</duration>
								<stillframe>TRUE</stillframe>
								<samplecharacteristics>
									<width>1920</width>
									<height>1080</height>
								</samplecharacteristics>
							</video>
						</media>
					</file>
					<filter>
						<enabled>TRUE</enabled>
						<start>-1</start>
						<end>-1</end>
						<effect>
							<name>Flop</name>
							<effectid>Flop</effectid>
							<effectcategory>Perspective</effectcategory>
							<effecttype>filter</effecttype>
							<mediatype>video</mediatype>
							<parameter>
								<parameterid>flop</parameterid>
								<name>Flop</name>
								<valuemin>1</valuemin>
								<valuemax>3</valuemax>
								<valuelist>
									<valueentry>
										<name>Horizontal</name>
										<value>1</value>
									</valueentry>
									<valueentry>
										<name>Vertical</name>
										<value>2</value>
									</valueentry>
									<valueentry>
										<name>Both</name>
										<value>3</value>
									</valueentry>
								</valuelist>
								<value>1</value>
							</parameter>
						</effect>
					</filter>
					<filter>
						<enabled>TRUE</enabled>
						<start>-1</start>
						<end>-1</end>
						<effect>
							<name>Gaussian Blur</name>
							<effectid>Gaussian Blur</effectid>
							<effectcategory>Blur</effectcategory>
							<effecttype>filter</effecttype>
							<mediatype>video</mediatype>
							<parameter>
								<parameterid>channel</parameterid>
								<name>Channel</name>
								<valuemin>1</valuemin>
								<valuemax>7</valuemax>
								<valuelist>
									<valueentry>
										<name>Alpha+RGB</name>
										<value>1</value>
									</valueentry>
									<valueentry>
										<name>Alpha</name>
										<value>2</value>
									</valueentry>
									<valueentry>
										<name>RGB</name>
										<value>3</value>
									</valueentry>
									<valueentry>
										<name>Red</name>
										<value>4</value>
									</valueentry>
									<valueentry>
										<name>Green</name>
										<value>5</value>
									</valueentry>
									<valueentry>
										<name>Blue</name>
										<value>6</value>
									</valueentry>
									<valueentry>
										<name>Luminance</name>
										<value>7</value>
									</valueentry>
								</valuelist>
								<value>1</value>
							</parameter>
							<parameter>
								<parameterid>radius</parameterid>
								<name>Radius</name>
								<valuemin>0</valuemin>
								<valuemax>100</valuemax>
								<value>9</value>
							</parameter>
						</effect>
					</filter>
					<filter>
						<effect>
							<name>Basic Motion</name>
							<effectid>basic</effectid>
							<effectcategory>motion</effectcategory>
							<effecttype>motion</effecttype>
							<mediatype>video</mediatype>
							<parameter>
								<parameterid>scale</parameterid>
								<name>Scale</name>
								<valuemin>0</valuemin>
								<valuemax>1000</valuemax>
								<value>106.044</value>
							</parameter>
							<parameter>
								<parameterid>rotation</parameterid>
								<name>Rotation</name>
								<valuemin>-8640</valuemin>
								<valuemax>8640</valuemax>
								<value>0</value>
							</parameter>
							<parameter>
								<parameterid>center</parameterid>
								<name>Center</name>
								<value>
									<horiz>0.00416667</horiz>
									<vert>0.0037037</vert>
								</value>
							</parameter>
							<parameter>
								<parameterid>centerOffset</parameterid>
								<name>Anchor Point</name>
								<value>
									<horiz>0</horiz>
									<vert>0</vert>
								</value>
							</parameter>
						</effect>
					</filter>
					<sourcetrack>
						<mediatype>video</mediatype>
					</sourcetrack>
					<fielddominance>none</fielddominance>
				</clipitem>
				<clipitem id="Bieber-recap-anne Copy">
					<name>Bieber-recap-anne Copy</name>
					<duration>129</duration>
					<rate>
						<ntsc>FALSE</ntsc>
						<timebase>25</timebase>
					</rate>
					<in>0</in>
					<out>129</out>
					<start>24592</start>
					<end>24721</end>
					<labels>
						<label>Best Take</label>
					</labels>
					<filter>
						<effect>
							<name>Opacity</name>
							<effectid>opacity</effectid>
							<effectcategory>motion</effectcategory>
							<effecttype>motion</effecttype>
							<mediatype>video</mediatype>
							<parameter>
								<parameterid>opacity</parameterid>
								<name>opacity</name>
								<valuemin>0</valuemin>
								<valuemax>100</valuemax>
								<value>100</value>
							</parameter>
						</effect>
					</filter>
					<sequence id="Bieber-recap-anne Copy1">
						<name>Bieber-recap-anne Copy</name>
						<duration>129</duration>
						<rate>
							<ntsc>FALSE</ntsc>
							<timebase>25</timebase>
						</rate>
						<timecode>
							<rate>
								<ntsc>FALSE</ntsc>
								<timebase>25</timebase>
							</rate>
							<string>00:00:00:00</string>
							<frame>0</frame>
							<source>source</source>
							<displayformat>NDF</displayformat>
						</timecode>
						<in>-1</in>
						<out>-1</out>
						<media>
							<video>
								<format>
									<samplecharacteristics>
										<width>1920</width>
										<height>1080</height>
										<anamorphic>FALSE</anamorphic>
										<pixelaspectratio>Square</pixelaspectratio>
										<fielddominance>upper</fielddominance>
										<rate>
											<ntsc>FALSE</ntsc>
											<timebase>25</timebase>
										</rate>
										<colordepth>24</colordepth>
										<codec>
											<name>Apple XDCAM 422 1080i50 (50 Mb/s CBR)</name>
											<appspecificdata>
												<appname>Final Cut Pro</appname>
												<appmanufacturer>Apple Inc.</appmanufacturer>
												<appversion>7.0</appversion>
												<data>
													<qtcodec>
														<codecname>Apple XDCAM 422 1080i50 (50 Mb/s CBR)</codecname>
														<codectypename>XDCAM 422 1080i50 (50 Mb/s CBR)</codectypename>
														<codectypecode>xd5c</codectypecode>
														<codecvendorcode>appl</codecvendorcode>
														<spatialquality>1023</spatialquality>
														<temporalquality>0</temporalquality>
														<keyframerate>0</keyframerate>
														<datarate>0</datarate>
													</qtcodec>
												</data>
											</appspecificdata>
										</codec>
									</samplecharacteristics>
									<appspecificdata>
										<appname>Final Cut Pro</appname>
										<appmanufacturer>Apple Inc.</appmanufacturer>
										<appversion>7.0</appversion>
										<data>
											<fcpimageprocessing>
												<useyuv>TRUE</useyuv>
												<usesuperwhite>FALSE</usesuperwhite>
												<rendermode>YUV8BPP</rendermode>
											</fcpimageprocessing>
										</data>
									</appspecificdata>
								</format>
								<track>
									<clipitem id="msub200012-2308-k1d2003.mxf3">
										<name>msub200012-2308-k1d2003.mxf</name>
										<duration>860</duration>
										<rate>
											<ntsc>FALSE</ntsc>
											<timebase>25</timebase>
										</rate>
										<in>472</in>
										<out>509</out>
										<start>0</start>
										<end>37</end>
										<pixelaspectratio>Square</pixelaspectratio>
										<enabled>TRUE</enabled>
										<anamorphic>FALSE</anamorphic>
										<alphatype>none</alphatype>
										<alphareverse>FALSE</alphareverse>
										<masterclipid>msub200012-2308-k1d2003.mxf1</masterclipid>
										<logginginfo>
											<scene/>
											<shottake/>
											<lognote/>
											<good>FALSE</good>
										</logginginfo>
										<labels>
											<label2/>
										</labels>
										<comments>
											<mastercomment1/>
											<mastercomment2/>
											<mastercomment3/>
											<mastercomment4/>
										</comments>
										<file id="msub200012-2308-k1d2003 "/>
										<filter>
											<enabled>TRUE</enabled>
											<start>-1</start>
											<end>-1</end>
											<effect>
												<name>Color Corrector 3-way Copy</name>
												<effectid>Color Corrector 3-way</effectid>
												<effectcategory>Color Correction</effectcategory>
												<effecttype>filter</effecttype>
												<mediatype>video</mediatype>
												<parameter>
													<parameterid>dispmode</parameterid>
													<name>Display Mode</name>
													<valuemin>1</valuemin>
													<valuemax>3</valuemax>
													<valuelist>
														<valueentry>
															<name>Final</name>
															<value>1</value>
														</valueentry>
														<valueentry>
															<name>Matte</name>
															<value>2</value>
														</valueentry>
														<valueentry>
															<name>Source</name>
															<value>3</value>
														</valueentry>
													</valuelist>
													<value>1</value>
												</parameter>
												<parameter>
													<parameterid>label1</parameterid>
													<name>Blacks Controls</name>
													<value/>
												</parameter>
												<parameter>
													<parameterid>blacklevel</parameterid>
													<name>Level</name>
													<valuemin>-196</valuemin>
													<valuemax>254</valuemax>
													<value>-7</value>
												</parameter>
												<parameter>
													<parameterid>b_hue</parameterid>
													<name>Angle</name>
													<valuemin>-180</valuemin>
													<valuemax>180</valuemax>
													<value>155.207</value>
												</parameter>
												<parameter>
													<parameterid>b_mag</parameterid>
													<name>Magnitude</name>
													<valuemin>0</valuemin>
													<valuemax>200</valuemax>
													<value>9.11081</value>
												</parameter>
												<parameter>
													<parameterid>label2</parameterid>
													<name>Midrange Controls</name>
													<value/>
												</parameter>
												<parameter>
													<parameterid>mids</parameterid>
													<name>Level</name>
													<valuemin>0</valuemin>
													<valuemax>200</valuemax>
													<value>100</value>
												</parameter>
												<parameter>
													<parameterid>m_hue</parameterid>
													<name>Angle</name>
													<valuemin>-180</valuemin>
													<valuemax>180</valuemax>
													<value>-83.6798</value>
												</parameter>
												<parameter>
													<parameterid>m_mag</parameterid>
													<name>Magnitude</name>
													<valuemin>0</valuemin>
													<valuemax>200</valuemax>
													<value>8.89836</value>
												</parameter>
												<parameter>
													<parameterid>label3</parameterid>
													<name>Highlight Controls</name>
													<value/>
												</parameter>
												<parameter>
													<parameterid>highlights</parameterid>
													<name>Level</name>
													<valuemin>64</valuemin>
													<valuemax>509</valuemax>
													<value>277</value>
												</parameter>
												<parameter>
													<parameterid>h_hue</parameterid>
													<name>Angle</name>
													<valuemin>-180</valuemin>
													<valuemax>180</valuemax>
													<value>133.224</value>
												</parameter>
												<parameter>
													<parameterid>h_mag</parameterid>
													<name>Magnitude</name>
													<valuemin>0</valuemin>
													<valuemax>200</valuemax>
													<value>55.8397</value>
												</parameter>
												<parameter>
													<parameterid>label4</parameterid>
													<name>Color Controls</name>
													<value/>
												</parameter>
												<parameter>
													<parameterid>chroma</parameterid>
													<name>Saturation</name>
													<valuemin>0</valuemin>
													<valuemax>200</valuemax>
													<value>98</value>
												</parameter>
												<parameter>
													<parameterid>label5</parameterid>
													<name>Limit Effect Controls</name>
													<value/>
												</parameter>
												<parameter>
													<parameterid>dochroma</parameterid>
													<name>Limit on Chroma</name>
													<value>FALSE</value>
												</parameter>
												<parameter>
													<parameterid>centerang</parameterid>
													<name>Chroma Center</name>
													<valuemin>-760</valuemin>
													<valuemax>760</valuemax>
													<value>-110</value>
												</parameter>
												<parameter>
													<parameterid>chromawidth</parameterid>
													<name>Chroma Width</name>
													<valuemin>0</valuemin>
													<valuemax>360</valuemax>
													<value>15</value>
												</parameter>
												<parameter>
													<parameterid>chromasoft</parameterid>
													<name>Chroma Softness</name>
													<valuemin>0</valuemin>
													<valuemax>180</valuemax>
													<value>10</value>
												</parameter>
												<parameter>
													<parameterid>dosat</parameterid>
													<name>Limit on Saturation</name>
													<value>FALSE</value>
												</parameter>
												<parameter>
													<parameterid>satmin</parameterid>
													<name>Sat. Minimum</name>
													<valuemin>0</valuemin>
													<valuemax>125</valuemax>
													<value>35</value>
												</parameter>
												<parameter>
													<parameterid>satwidth</parameterid>
													<name>Sat. Width</name>
													<valuemin>0</valuemin>
													<valuemax>125</valuemax>
													<value>40</value>
												</parameter>
												<parameter>
													<parameterid>satsoft</parameterid>
													<name>Sat. Softness</name>
													<valuemin>0</valuemin>
													<valuemax>125</valuemax>
													<value>20</value>
												</parameter>
												<parameter>
													<parameterid>doluma</parameterid>
													<name>Limit on Luma</name>
													<value>FALSE</value>
												</parameter>
												<parameter>
													<parameterid>lumamin</parameterid>
													<name>Luma Minimum</name>
													<valuemin>0</valuemin>
													<valuemax>120</valuemax>
													<value>0</value>
												</parameter>
												<parameter>
													<parameterid>lumawidth</parameterid>
													<name>Luma Width</name>
													<valuemin>0</valuemin>
													<valuemax>120</valuemax>
													<value>40</value>
												</parameter>
												<parameter>
													<parameterid>lumasoft</parameterid>
													<name>Luma Softness</name>
													<valuemin>0</valuemin>
													<valuemax>120</valuemax>
													<value>20</value>
												</parameter>
												<parameter>
													<parameterid>label6</parameterid>
													<name>Edge Control</name>
													<value/>
												</parameter>
												<parameter>
													<parameterid>edgethin</parameterid>
													<name>Thin/Spread</name>
													<valuemin>-100</valuemin>
													<valuemax>100</valuemax>
													<value>0</value>
												</parameter>
												<parameter>
													<parameterid>edgefeather</parameterid>
													<name>Softening</name>
													<valuemin>0</valuemin>
													<valuemax>100</valuemax>
													<value>0</value>
												</parameter>
												<parameter>
													<parameterid>label7</parameterid>
													<name>Mask Control</name>
													<value/>
												</parameter>
												<parameter>
													<parameterid>invertsel</parameterid>
													<name>Invert</name>
													<value>FALSE</value>
												</parameter>
												<parameter>
													<parameterid>debugshow</parameterid>
													<name>Show Stats</name>
													<value>FALSE</value>
												</parameter>
											</effect>
										</filter>
										<filter>
											<enabled>TRUE</enabled>
											<start>-1</start>
											<end>-1</end>
											<effect>
												<name>Color Corrector 3-way Copy - 2</name>
												<effectid>Color Corrector 3-way</effectid>
												<effectcategory>Color Correction</effectcategory>
												<effecttype>filter</effecttype>
												<mediatype>video</mediatype>
												<parameter>
													<parameterid>dispmode</parameterid>
													<name>Display Mode</name>
													<valuemin>1</valuemin>
													<valuemax>3</valuemax>
													<valuelist>
														<valueentry>
															<name>Final</name>
															<value>1</value>
														</valueentry>
														<valueentry>
															<name>Matte</name>
															<value>2</value>
														</valueentry>
														<valueentry>
															<name>Source</name>
															<value>3</value>
														</valueentry>
													</valuelist>
													<value>1</value>
												</parameter>
												<parameter>
													<parameterid>label1</parameterid>
													<name>Blacks Controls</name>
													<value/>
												</parameter>
												<parameter>
													<parameterid>blacklevel</parameterid>
													<name>Level</name>
													<valuemin>-196</valuemin>
													<valuemax>254</valuemax>
													<value>-4</value>
												</parameter>
												<parameter>
													<parameterid>b_hue</parameterid>
													<name>Angle</name>
													<valuemin>-180</valuemin>
													<valuemax>180</valuemax>
													<value>77.2756</value>
												</parameter>
												<parameter>
													<parameterid>b_mag</parameterid>
													<name>Magnitude</name>
													<valuemin>0</valuemin>
													<valuemax>200</valuemax>
													<value>1.43114</value>
												</parameter>
												<parameter>
													<parameterid>label2</parameterid>
													<name>Midrange Controls</name>
													<value/>
												</parameter>
												<parameter>
													<parameterid>mids</parameterid>
													<name>Level</name>
													<valuemin>0</valuemin>
													<valuemax>200</valuemax>
													<value>100</value>
												</parameter>
												<parameter>
													<parameterid>m_hue</parameterid>
													<name>Angle</name>
													<valuemin>-180</valuemin>
													<valuemax>180</valuemax>
													<value>-27.4916</value>
												</parameter>
												<parameter>
													<parameterid>m_mag</parameterid>
													<name>Magnitude</name>
													<valuemin>0</valuemin>
													<valuemax>200</valuemax>
													<value>8.27218</value>
												</parameter>
												<parameter>
													<parameterid>label3</parameterid>
													<name>Highlight Controls</name>
													<value/>
												</parameter>
												<parameter>
													<parameterid>highlights</parameterid>
													<name>Level</name>
													<valuemin>64</valuemin>
													<valuemax>509</valuemax>
													<value>261</value>
												</parameter>
												<parameter>
													<parameterid>h_hue</parameterid>
													<name>Angle</name>
													<valuemin>-180</valuemin>
													<valuemax>180</valuemax>
													<value>121.811</value>
												</parameter>
												<parameter>
													<parameterid>h_mag</parameterid>
													<name>Magnitude</name>
													<valuemin>0</valuemin>
													<valuemax>200</valuemax>
													<value>12.4541</value>
												</parameter>
												<parameter>
													<parameterid>label4</parameterid>
													<name>Color Controls</name>
													<value/>
												</parameter>
												<parameter>
													<parameterid>chroma</parameterid>
													<name>Saturation</name>
													<valuemin>0</valuemin>
													<valuemax>200</valuemax>
													<value>110</value>
												</parameter>
												<parameter>
													<parameterid>label5</parameterid>
													<name>Limit Effect Controls</name>
													<value/>
												</parameter>
												<parameter>
													<parameterid>dochroma</parameterid>
													<name>Limit on Chroma</name>
													<value>FALSE</value>
												</parameter>
												<parameter>
													<parameterid>centerang</parameterid>
													<name>Chroma Center</name>
													<valuemin>-760</valuemin>
													<valuemax>760</valuemax>
													<value>-110</value>
												</parameter>
												<parameter>
													<parameterid>chromawidth</parameterid>
													<name>Chroma Width</name>
													<valuemin>0</valuemin>
													<valuemax>360</valuemax>
													<value>15</value>
												</parameter>
												<parameter>
													<parameterid>chromasoft</parameterid>
													<name>Chroma Softness</name>
													<valuemin>0</valuemin>
													<valuemax>180</valuemax>
													<value>10</value>
												</parameter>
												<parameter>
													<parameterid>dosat</parameterid>
													<name>Limit on Saturation</name>
													<value>FALSE</value>
												</parameter>
												<parameter>
													<parameterid>satmin</parameterid>
													<name>Sat. Minimum</name>
													<valuemin>0</valuemin>
													<valuemax>125</valuemax>
													<value>35</value>
												</parameter>
												<parameter>
													<parameterid>satwidth</parameterid>
													<name>Sat. Width</name>
													<valuemin>0</valuemin>
													<valuemax>125</valuemax>
													<value>40</value>
												</parameter>
												<parameter>
													<parameterid>satsoft</parameterid>
													<name>Sat. Softness</name>
													<valuemin>0</valuemin>
													<valuemax>125</valuemax>
													<value>20</value>
												</parameter>
												<parameter>
													<parameterid>doluma</parameterid>
													<name>Limit on Luma</name>
													<value>FALSE</value>
												</parameter>
												<parameter>
													<parameterid>lumamin</parameterid>
													<name>Luma Minimum</name>
													<valuemin>0</valuemin>
													<valuemax>120</valuemax>
													<value>0</value>
												</parameter>
												<parameter>
													<parameterid>lumawidth</parameterid>
													<name>Luma Width</name>
													<valuemin>0</valuemin>
													<valuemax>120</valuemax>
													<value>40</value>
												</parameter>
												<parameter>
													<parameterid>lumasoft</parameterid>
													<name>Luma Softness</name>
													<valuemin>0</valuemin>
													<valuemax>120</valuemax>
													<value>20</value>
												</parameter>
												<parameter>
													<parameterid>label6</parameterid>
													<name>Edge Control</name>
													<value/>
												</parameter>
												<parameter>
													<parameterid>edgethin</parameterid>
													<name>Thin/Spread</name>
													<valuemin>-100</valuemin>
													<valuemax>100</valuemax>
													<value>0</value>
												</parameter>
												<parameter>
													<parameterid>edgefeather</parameterid>
													<name>Softening</name>
													<valuemin>0</valuemin>
													<valuemax>100</valuemax>
													<value>0</value>
												</parameter>
												<parameter>
													<parameterid>label7</parameterid>
													<name>Mask Control</name>
													<value/>
												</parameter>
												<parameter>
													<parameterid>invertsel</parameterid>
													<name>Invert</name>
													<value>FALSE</value>
												</parameter>
												<parameter>
													<parameterid>debugshow</parameterid>
													<name>Show Stats</name>
													<value>FALSE</value>
												</parameter>
											</effect>
										</filter>
										<filter>
											<start>-1</start>
											<end>-1</end>
											<effect>
												<name>Hatched Screen</name>
												<effecttype>filter</effecttype>
												<mediatype>video</mediatype>
												<parameter>
													<parameterid>input_1_X</parameterid>
													<name>Center</name>
													<value>
														<horiz>0</horiz>
														<vert>0</vert>
													</value>
												</parameter>
												<parameter>
													<parameterid>input_2</parameterid>
													<name>Angle</name>
													<valuemin>0</valuemin>
													<valuemax>20626.5</valuemax>
													<value>28.6</value>
												</parameter>
												<parameter>
													<parameterid>input_3</parameterid>
													<name>Scale</name>
													<valuemin>1</valuemin>
													<valuemax>100</valuemax>
													<value>5</value>
												</parameter>
												<parameter>
													<parameterid>input_4</parameterid>
													<name>Skew</name>
													<valuemin>-3</valuemin>
													<valuemax>3</valuemax>
													<value>0</value>
												</parameter>
												<parameter>
													<parameterid>input_5</parameterid>
													<name>Stretch</name>
													<valuemin>-2</valuemin>
													<valuemax>2</valuemax>
													<value>0</value>
												</parameter>
												<parameter>
													<parameterid>input_6</parameterid>
													<name>Contrast</name>
													<valuemin>0</valuemin>
													<valuemax>0.99</valuemax>
													<value>0.257143</value>
												</parameter>
												<parameter>
													<parameterid>FCP_FilterMix</parameterid>
													<name>Mix</name>
													<valuemin>0</valuemin>
													<valuemax>100</valuemax>
													<value>13</value>
												</parameter>
											</effect>
										</filter>
										<filter>
											<start>-1</start>
											<end>-1</end>
											<effect>
												<name>Vignette</name>
												<effecttype>filter</effecttype>
												<mediatype>video</mediatype>
												<parameter>
													<parameterid>input_1</parameterid>
													<name>Size</name>
													<valuemin>0</valuemin>
													<valuemax>1.5</valuemax>
													<value>0.6</value>
												</parameter>
												<parameter>
													<parameterid>input_5</parameterid>
													<name>Falloff</name>
													<valuemin>0.001</valuemin>
													<valuemax>1</valuemax>
													<value>0.5</value>
												</parameter>
												<parameter>
													<parameterid>input_2</parameterid>
													<name>Blur Amount</name>
													<valuemin>0</valuemin>
													<valuemax>16</valuemax>
													<value>4</value>
												</parameter>
												<parameter>
													<parameterid>input_3</parameterid>
													<name>Darken</name>
													<valuemin>0</valuemin>
													<valuemax>1</valuemax>
													<value>0.3</value>
												</parameter>
												<parameter>
													<parameterid>input_4</parameterid>
													<name>Saturation</name>
													<valuemin>-1</valuemin>
													<valuemax>1</valuemax>
													<value>0.3</value>
												</parameter>
												<parameter>
													<parameterid>FCP_FilterMix</parameterid>
													<name>Mix</name>
													<valuemin>0</valuemin>
													<valuemax>100</valuemax>
													<value>100</value>
												</parameter>
											</effect>
										</filter>
										<sourcetrack>
											<mediatype>video</mediatype>
										</sourcetrack>
										<fielddominance>upper</fielddominance>
									</clipitem>
									<clipitem id="msub200012-2308-k1d2003.mxf4">
										<name>msub200012-2308-k1d2003.mxf</name>
										<duration>860</duration>
										<rate>
											<ntsc>FALSE</ntsc>
											<timebase>25</timebase>
										</rate>
										<in>530</in>
										<out>575</out>
										<start>84</start>
										<end>129</end>
										<pixelaspectratio>Square</pixelaspectratio>
										<enabled>TRUE</enabled>
										<anamorphic>FALSE</anamorphic>
										<alphatype>none</alphatype>
										<alphareverse>FALSE</alphareverse>
										<masterclipid>msub200012-2308-k1d2003.mxf1</masterclipid>
										<logginginfo>
											<scene/>
											<shottake/>
											<lognote/>
											<good>FALSE</good>
										</logginginfo>
										<labels>
											<label2/>
										</labels>
										<comments>
											<mastercomment1/>
											<mastercomment2/>
											<mastercomment3/>
											<mastercomment4/>
										</comments>
										<file id="msub200012-2308-k1d2003 "/>
										<filter>
											<start>-1</start>
											<end>-1</end>
											<effect>
												<name>Color Corrector 3-way Copy</name>
												<effectid>Color Corrector 3-way</effectid>
												<effectcategory>Color Correction</effectcategory>
												<effecttype>filter</effecttype>
												<mediatype>video</mediatype>
												<parameter>
													<parameterid>dispmode</parameterid>
													<name>Display Mode</name>
													<valuemin>1</valuemin>
													<valuemax>3</valuemax>
													<valuelist>
														<valueentry>
															<name>Final</name>
															<value>1</value>
														</valueentry>
														<valueentry>
															<name>Matte</name>
															<value>2</value>
														</valueentry>
														<valueentry>
															<name>Source</name>
															<value>3</value>
														</valueentry>
													</valuelist>
													<value>1</value>
												</parameter>
												<parameter>
													<parameterid>label1</parameterid>
													<name>Blacks Controls</name>
													<value/>
												</parameter>
												<parameter>
													<parameterid>blacklevel</parameterid>
													<name>Level</name>
													<valuemin>-196</valuemin>
													<valuemax>254</valuemax>
													<value>-7</value>
												</parameter>
												<parameter>
													<parameterid>b_hue</parameterid>
													<name>Angle</name>
													<valuemin>-180</valuemin>
													<valuemax>180</valuemax>
													<value>155.207</value>
												</parameter>
												<parameter>
													<parameterid>b_mag</parameterid>
													<name>Magnitude</name>
													<valuemin>0</valuemin>
													<valuemax>200</valuemax>
													<value>9.11081</value>
												</parameter>
												<parameter>
													<parameterid>label2</parameterid>
													<name>Midrange Controls</name>
													<value/>
												</parameter>
												<parameter>
													<parameterid>mids</parameterid>
													<name>Level</name>
													<valuemin>0</valuemin>
													<valuemax>200</valuemax>
													<value>100</value>
												</parameter>
												<parameter>
													<parameterid>m_hue</parameterid>
													<name>Angle</name>
													<valuemin>-180</valuemin>
													<valuemax>180</valuemax>
													<value>-83.6798</value>
												</parameter>
												<parameter>
													<parameterid>m_mag</parameterid>
													<name>Magnitude</name>
													<valuemin>0</valuemin>
													<valuemax>200</valuemax>
													<value>8.89836</value>
												</parameter>
												<parameter>
													<parameterid>label3</parameterid>
													<name>Highlight Controls</name>
													<value/>
												</parameter>
												<parameter>
													<parameterid>highlights</parameterid>
													<name>Level</name>
													<valuemin>64</valuemin>
													<valuemax>509</valuemax>
													<value>277</value>
												</parameter>
												<parameter>
													<parameterid>h_hue</parameterid>
													<name>Angle</name>
													<valuemin>-180</valuemin>
													<valuemax>180</valuemax>
													<value>133.224</value>
												</parameter>
												<parameter>
													<parameterid>h_mag</parameterid>
													<name>Magnitude</name>
													<valuemin>0</valuemin>
													<valuemax>200</valuemax>
													<value>55.8397</value>
												</parameter>
												<parameter>
													<parameterid>label4</parameterid>
													<name>Color Controls</name>
													<value/>
												</parameter>
												<parameter>
													<parameterid>chroma</parameterid>
													<name>Saturation</name>
													<valuemin>0</valuemin>
													<valuemax>200</valuemax>
													<value>98</value>
												</parameter>
												<parameter>
													<parameterid>label5</parameterid>
													<name>Limit Effect Controls</name>
													<value/>
												</parameter>
												<parameter>
													<parameterid>dochroma</parameterid>
													<name>Limit on Chroma</name>
													<value>FALSE</value>
												</parameter>
												<parameter>
													<parameterid>centerang</parameterid>
													<name>Chroma Center</name>
													<valuemin>-760</valuemin>
													<valuemax>760</valuemax>
													<value>-110</value>
												</parameter>
												<parameter>
													<parameterid>chromawidth</parameterid>
													<name>Chroma Width</name>
													<valuemin>0</valuemin>
													<valuemax>360</valuemax>
													<value>15</value>
												</parameter>
												<parameter>
													<parameterid>chromasoft</parameterid>
													<name>Chroma Softness</name>
													<valuemin>0</valuemin>
													<valuemax>180</valuemax>
													<value>10</value>
												</parameter>
												<parameter>
													<parameterid>dosat</parameterid>
													<name>Limit on Saturation</name>
													<value>FALSE</value>
												</parameter>
												<parameter>
													<parameterid>satmin</parameterid>
													<name>Sat. Minimum</name>
													<valuemin>0</valuemin>
													<valuemax>125</valuemax>
													<value>35</value>
												</parameter>
												<parameter>
													<parameterid>satwidth</parameterid>
													<name>Sat. Width</name>
													<valuemin>0</valuemin>
													<valuemax>125</valuemax>
													<value>40</value>
												</parameter>
												<parameter>
													<parameterid>satsoft</parameterid>
													<name>Sat. Softness</name>
													<valuemin>0</valuemin>
													<valuemax>125</valuemax>
													<value>20</value>
												</parameter>
												<parameter>
													<parameterid>doluma</parameterid>
													<name>Limit on Luma</name>
													<value>FALSE</value>
												</parameter>
												<parameter>
													<parameterid>lumamin</parameterid>
													<name>Luma Minimum</name>
													<valuemin>0</valuemin>
													<valuemax>120</valuemax>
													<value>0</value>
												</parameter>
												<parameter>
													<parameterid>lumawidth</parameterid>
													<name>Luma Width</name>
													<valuemin>0</valuemin>
													<valuemax>120</valuemax>
													<value>40</value>
												</parameter>
												<parameter>
													<parameterid>lumasoft</parameterid>
													<name>Luma Softness</name>
													<valuemin>0</valuemin>
													<valuemax>120</valuemax>
													<value>20</value>
												</parameter>
												<parameter>
													<parameterid>label6</parameterid>
													<name>Edge Control</name>
													<value/>
												</parameter>
												<parameter>
													<parameterid>edgethin</parameterid>
													<name>Thin/Spread</name>
													<valuemin>-100</valuemin>
													<valuemax>100</valuemax>
													<value>0</value>
												</parameter>
												<parameter>
													<parameterid>edgefeather</parameterid>
													<name>Softening</name>
													<valuemin>0</valuemin>
													<valuemax>100</valuemax>
													<value>0</value>
												</parameter>
												<parameter>
													<parameterid>label7</parameterid>
													<name>Mask Control</name>
													<value/>
												</parameter>
												<parameter>
													<parameterid>invertsel</parameterid>
													<name>Invert</name>
													<value>FALSE</value>
												</parameter>
												<parameter>
													<parameterid>debugshow</parameterid>
													<name>Show Stats</name>
													<value>FALSE</value>
												</parameter>
											</effect>
										</filter>
										<filter>
											<start>-1</start>
											<end>-1</end>
											<effect>
												<name>Color Corrector 3-way Copy - 2</name>
												<effectid>Color Corrector 3-way</effectid>
												<effectcategory>Color Correction</effectcategory>
												<effecttype>filter</effecttype>
												<mediatype>video</mediatype>
												<parameter>
													<parameterid>dispmode</parameterid>
													<name>Display Mode</name>
													<valuemin>1</valuemin>
													<valuemax>3</valuemax>
													<valuelist>
														<valueentry>
															<name>Final</name>
															<value>1</value>
														</valueentry>
														<valueentry>
															<name>Matte</name>
															<value>2</value>
														</valueentry>
														<valueentry>
															<name>Source</name>
															<value>3</value>
														</valueentry>
													</valuelist>
													<value>1</value>
												</parameter>
												<parameter>
													<parameterid>label1</parameterid>
													<name>Blacks Controls</name>
													<value/>
												</parameter>
												<parameter>
													<parameterid>blacklevel</parameterid>
													<name>Level</name>
													<valuemin>-196</valuemin>
													<valuemax>254</valuemax>
													<value>-4</value>
												</parameter>
												<parameter>
													<parameterid>b_hue</parameterid>
													<name>Angle</name>
													<valuemin>-180</valuemin>
													<valuemax>180</valuemax>
													<value>77.2756</value>
												</parameter>
												<parameter>
													<parameterid>b_mag</parameterid>
													<name>Magnitude</name>
													<valuemin>0</valuemin>
													<valuemax>200</valuemax>
													<value>1.43114</value>
												</parameter>
												<parameter>
													<parameterid>label2</parameterid>
													<name>Midrange Controls</name>
													<value/>
												</parameter>
												<parameter>
													<parameterid>mids</parameterid>
													<name>Level</name>
													<valuemin>0</valuemin>
													<valuemax>200</valuemax>
													<value>100</value>
												</parameter>
												<parameter>
													<parameterid>m_hue</parameterid>
													<name>Angle</name>
													<valuemin>-180</valuemin>
													<valuemax>180</valuemax>
													<value>-27.4916</value>
												</parameter>
												<parameter>
													<parameterid>m_mag</parameterid>
													<name>Magnitude</name>
													<valuemin>0</valuemin>
													<valuemax>200</valuemax>
													<value>8.27218</value>
												</parameter>
												<parameter>
													<parameterid>label3</parameterid>
													<name>Highlight Controls</name>
													<value/>
												</parameter>
												<parameter>
													<parameterid>highlights</parameterid>
													<name>Level</name>
													<valuemin>64</valuemin>
													<valuemax>509</valuemax>
													<value>261</value>
												</parameter>
												<parameter>
													<parameterid>h_hue</parameterid>
													<name>Angle</name>
													<valuemin>-180</valuemin>
													<valuemax>180</valuemax>
													<value>121.811</value>
												</parameter>
												<parameter>
													<parameterid>h_mag</parameterid>
													<name>Magnitude</name>
													<valuemin>0</valuemin>
													<valuemax>200</valuemax>
													<value>12.4541</value>
												</parameter>
												<parameter>
													<parameterid>label4</parameterid>
													<name>Color Controls</name>
													<value/>
												</parameter>
												<parameter>
													<parameterid>chroma</parameterid>
													<name>Saturation</name>
													<valuemin>0</valuemin>
													<valuemax>200</valuemax>
													<value>110</value>
												</parameter>
												<parameter>
													<parameterid>label5</parameterid>
													<name>Limit Effect Controls</name>
													<value/>
												</parameter>
												<parameter>
													<parameterid>dochroma</parameterid>
													<name>Limit on Chroma</name>
													<value>FALSE</value>
												</parameter>
												<parameter>
													<parameterid>centerang</parameterid>
													<name>Chroma Center</name>
													<valuemin>-760</valuemin>
													<valuemax>760</valuemax>
													<value>-110</value>
												</parameter>
												<parameter>
													<parameterid>chromawidth</parameterid>
													<name>Chroma Width</name>
													<valuemin>0</valuemin>
													<valuemax>360</valuemax>
													<value>15</value>
												</parameter>
												<parameter>
													<parameterid>chromasoft</parameterid>
													<name>Chroma Softness</name>
													<valuemin>0</valuemin>
													<valuemax>180</valuemax>
													<value>10</value>
												</parameter>
												<parameter>
													<parameterid>dosat</parameterid>
													<name>Limit on Saturation</name>
													<value>FALSE</value>
												</parameter>
												<parameter>
													<parameterid>satmin</parameterid>
													<name>Sat. Minimum</name>
													<valuemin>0</valuemin>
													<valuemax>125</valuemax>
													<value>35</value>
												</parameter>
												<parameter>
													<parameterid>satwidth</parameterid>
													<name>Sat. Width</name>
													<valuemin>0</valuemin>
													<valuemax>125</valuemax>
													<value>40</value>
												</parameter>
												<parameter>
													<parameterid>satsoft</parameterid>
													<name>Sat. Softness</name>
													<valuemin>0</valuemin>
													<valuemax>125</valuemax>
													<value>20</value>
												</parameter>
												<parameter>
													<parameterid>doluma</parameterid>
													<name>Limit on Luma</name>
													<value>FALSE</value>
												</parameter>
												<parameter>
													<parameterid>lumamin</parameterid>
													<name>Luma Minimum</name>
													<valuemin>0</valuemin>
													<valuemax>120</valuemax>
													<value>0</value>
												</parameter>
												<parameter>
													<parameterid>lumawidth</parameterid>
													<name>Luma Width</name>
													<valuemin>0</valuemin>
													<valuemax>120</valuemax>
													<value>40</value>
												</parameter>
												<parameter>
													<parameterid>lumasoft</parameterid>
													<name>Luma Softness</name>
													<valuemin>0</valuemin>
													<valuemax>120</valuemax>
													<value>20</value>
												</parameter>
												<parameter>
													<parameterid>label6</parameterid>
													<name>Edge Control</name>
													<value/>
												</parameter>
												<parameter>
													<parameterid>edgethin</parameterid>
													<name>Thin/Spread</name>
													<valuemin>-100</valuemin>
													<valuemax>100</valuemax>
													<value>0</value>
												</parameter>
												<parameter>
													<parameterid>edgefeather</parameterid>
													<name>Softening</name>
													<valuemin>0</valuemin>
													<valuemax>100</valuemax>
													<value>0</value>
												</parameter>
												<parameter>
													<parameterid>label7</parameterid>
													<name>Mask Control</name>
													<value/>
												</parameter>
												<parameter>
													<parameterid>invertsel</parameterid>
													<name>Invert</name>
													<value>FALSE</value>
												</parameter>
												<parameter>
													<parameterid>debugshow</parameterid>
													<name>Show Stats</name>
													<value>FALSE</value>
												</parameter>
											</effect>
										</filter>
										<filter>
											<start>-1</start>
											<end>-1</end>
											<effect>
												<name>Hatched Screen</name>
												<effecttype>filter</effecttype>
												<mediatype>video</mediatype>
												<parameter>
													<parameterid>input_1_X</parameterid>
													<name>Center</name>
													<value>
														<horiz>0</horiz>
														<vert>0</vert>
													</value>
												</parameter>
												<parameter>
													<parameterid>input_2</parameterid>
													<name>Angle</name>
													<valuemin>0</valuemin>
													<valuemax>20626.5</valuemax>
													<value>28.6</value>
												</parameter>
												<parameter>
													<parameterid>input_3</parameterid>
													<name>Scale</name>
													<valuemin>1</valuemin>
													<valuemax>100</valuemax>
													<value>5</value>
												</parameter>
												<parameter>
													<parameterid>input_4</parameterid>
													<name>Skew</name>
													<valuemin>-3</valuemin>
													<valuemax>3</valuemax>
													<value>0</value>
												</parameter>
												<parameter>
													<parameterid>input_5</parameterid>
													<name>Stretch</name>
													<valuemin>-2</valuemin>
													<valuemax>2</valuemax>
													<value>0</value>
												</parameter>
												<parameter>
													<parameterid>input_6</parameterid>
													<name>Contrast</name>
													<valuemin>0</valuemin>
													<valuemax>0.99</valuemax>
													<value>0.257143</value>
												</parameter>
												<parameter>
													<parameterid>FCP_FilterMix</parameterid>
													<name>Mix</name>
													<valuemin>0</valuemin>
													<valuemax>100</valuemax>
													<value>13</value>
												</parameter>
											</effect>
										</filter>
										<filter>
											<start>-1</start>
											<end>-1</end>
											<effect>
												<name>Vignette</name>
												<effecttype>filter</effecttype>
												<mediatype>video</mediatype>
												<parameter>
													<parameterid>input_1</parameterid>
													<name>Size</name>
													<valuemin>0</valuemin>
													<valuemax>1.5</valuemax>
													<value>0.6</value>
												</parameter>
												<parameter>
													<parameterid>input_5</parameterid>
													<name>Falloff</name>
													<valuemin>0.001</valuemin>
													<valuemax>1</valuemax>
													<value>0.5</value>
												</parameter>
												<parameter>
													<parameterid>input_2</parameterid>
													<name>Blur Amount</name>
													<valuemin>0</valuemin>
													<valuemax>16</valuemax>
													<value>4</value>
												</parameter>
												<parameter>
													<parameterid>input_3</parameterid>
													<name>Darken</name>
													<valuemin>0</valuemin>
													<valuemax>1</valuemax>
													<value>0.3</value>
												</parameter>
												<parameter>
													<parameterid>input_4</parameterid>
													<name>Saturation</name>
													<valuemin>-1</valuemin>
													<valuemax>1</valuemax>
													<value>0.3</value>
												</parameter>
												<parameter>
													<parameterid>FCP_FilterMix</parameterid>
													<name>Mix</name>
													<valuemin>0</valuemin>
													<valuemax>100</valuemax>
													<value>100</value>
												</parameter>
											</effect>
										</filter>
										<sourcetrack>
											<mediatype>video</mediatype>
										</sourcetrack>
										<fielddominance>upper</fielddominance>
									</clipitem>
									<enabled>TRUE</enabled>
									<locked>FALSE</locked>
								</track>
								<track>
									<clipitem id="msub200012-2308-k1d2004.mxf2">
										<name>msub200012-2308-k1d2004.mxf</name>
										<duration>345</duration>
										<rate>
											<ntsc>FALSE</ntsc>
											<timebase>25</timebase>
										</rate>
										<in>126</in>
										<out>190</out>
										<start>20</start>
										<end>84</end>
										<pixelaspectratio>Square</pixelaspectratio>
										<enabled>TRUE</enabled>
										<anamorphic>FALSE</anamorphic>
										<alphatype>none</alphatype>
										<alphareverse>FALSE</alphareverse>
										<masterclipid>msub200012-2308-k1d2004.mxf1</masterclipid>
										<logginginfo>
											<scene/>
											<shottake/>
											<lognote/>
											<good>FALSE</good>
										</logginginfo>
										<labels>
											<label2/>
										</labels>
										<comments>
											<mastercomment1/>
											<mastercomment2/>
											<mastercomment3/>
											<mastercomment4/>
										</comments>
										<file id="msub200012-2308-k1d2004 "/>
										<filter>
											<start>-1</start>
											<end>-1</end>
											<effect>
												<name>Hatched Screen</name>
												<effecttype>filter</effecttype>
												<mediatype>video</mediatype>
												<parameter>
													<parameterid>input_1_X</parameterid>
													<name>Center</name>
													<value>
														<horiz>0</horiz>
														<vert>0</vert>
													</value>
												</parameter>
												<parameter>
													<parameterid>input_2</parameterid>
													<name>Angle</name>
													<valuemin>0</valuemin>
													<valuemax>20626.5</valuemax>
													<value>28.6</value>
												</parameter>
												<parameter>
													<parameterid>input_3</parameterid>
													<name>Scale</name>
													<valuemin>1</valuemin>
													<valuemax>100</valuemax>
													<value>5</value>
												</parameter>
												<parameter>
													<parameterid>input_4</parameterid>
													<name>Skew</name>
													<valuemin>-3</valuemin>
													<valuemax>3</valuemax>
													<value>0</value>
												</parameter>
												<parameter>
													<parameterid>input_5</parameterid>
													<name>Stretch</name>
													<valuemin>-2</valuemin>
													<valuemax>2</valuemax>
													<value>0</value>
												</parameter>
												<parameter>
													<parameterid>input_6</parameterid>
													<name>Contrast</name>
													<valuemin>0</valuemin>
													<valuemax>0.99</valuemax>
													<value>0.257143</value>
												</parameter>
												<parameter>
													<parameterid>FCP_FilterMix</parameterid>
													<name>Mix</name>
													<valuemin>0</valuemin>
													<valuemax>100</valuemax>
													<value>13</value>
												</parameter>
											</effect>
										</filter>
										<filter>
											<start>-1</start>
											<end>-1</end>
											<effect>
												<name>Vignette</name>
												<effecttype>filter</effecttype>
												<mediatype>video</mediatype>
												<parameter>
													<parameterid>input_1</parameterid>
													<name>Size</name>
													<valuemin>0</valuemin>
													<valuemax>1.5</valuemax>
													<value>0.6</value>
												</parameter>
												<parameter>
													<parameterid>input_5</parameterid>
													<name>Falloff</name>
													<valuemin>0.001</valuemin>
													<valuemax>1</valuemax>
													<value>0.5</value>
												</parameter>
												<parameter>
													<parameterid>input_2</parameterid>
													<name>Blur Amount</name>
													<valuemin>0</valuemin>
													<valuemax>16</valuemax>
													<value>4</value>
												</parameter>
												<parameter>
													<parameterid>input_3</parameterid>
													<name>Darken</name>
													<valuemin>0</valuemin>
													<valuemax>1</valuemax>
													<value>0.3</value>
												</parameter>
												<parameter>
													<parameterid>input_4</parameterid>
													<name>Saturation</name>
													<valuemin>-1</valuemin>
													<valuemax>1</valuemax>
													<value>0.3</value>
												</parameter>
												<parameter>
													<parameterid>FCP_FilterMix</parameterid>
													<name>Mix</name>
													<valuemin>0</valuemin>
													<valuemax>100</valuemax>
													<value>100</value>
												</parameter>
											</effect>
										</filter>
										<sourcetrack>
											<mediatype>video</mediatype>
										</sourcetrack>
										<fielddominance>upper</fielddominance>
									</clipitem>
									<enabled>TRUE</enabled>
									<locked>FALSE</locked>
								</track>
								<track>
									<clipitem id="msub200012-2308-k1d2003.mxf5">
										<name>msub200012-2308-k1d2003.mxf</name>
										<duration>860</duration>
										<rate>
											<ntsc>FALSE</ntsc>
											<timebase>25</timebase>
										</rate>
										<in>472</in>
										<out>492</out>
										<start>0</start>
										<end>20</end>
										<pixelaspectratio>Square</pixelaspectratio>
										<enabled>TRUE</enabled>
										<anamorphic>FALSE</anamorphic>
										<alphatype>none</alphatype>
										<alphareverse>FALSE</alphareverse>
										<compositemode>screen</compositemode>
										<masterclipid>msub200012-2308-k1d2003.mxf1</masterclipid>
										<logginginfo>
											<scene/>
											<shottake/>
											<lognote/>
											<good>FALSE</good>
										</logginginfo>
										<labels>
											<label2/>
										</labels>
										<comments>
											<mastercomment1/>
											<mastercomment2/>
											<mastercomment3/>
											<mastercomment4/>
										</comments>
										<file id="msub200012-2308-k1d2003 "/>
										<filter>
											<enabled>TRUE</enabled>
											<start>-1</start>
											<end>-1</end>
											<effect>
												<name>Color Corrector 3-way Copy</name>
												<effectid>Color Corrector 3-way</effectid>
												<effectcategory>Color Correction</effectcategory>
												<effecttype>filter</effecttype>
												<mediatype>video</mediatype>
												<parameter>
													<parameterid>dispmode</parameterid>
													<name>Display Mode</name>
													<valuemin>1</valuemin>
													<valuemax>3</valuemax>
													<valuelist>
														<valueentry>
															<name>Final</name>
															<value>1</value>
														</valueentry>
														<valueentry>
															<name>Matte</name>
															<value>2</value>
														</valueentry>
														<valueentry>
															<name>Source</name>
															<value>3</value>
														</valueentry>
													</valuelist>
													<value>1</value>
												</parameter>
												<parameter>
													<parameterid>label1</parameterid>
													<name>Blacks Controls</name>
													<value/>
												</parameter>
												<parameter>
													<parameterid>blacklevel</parameterid>
													<name>Level</name>
													<valuemin>-196</valuemin>
													<valuemax>254</valuemax>
													<value>-7</value>
												</parameter>
												<parameter>
													<parameterid>b_hue</parameterid>
													<name>Angle</name>
													<valuemin>-180</valuemin>
													<valuemax>180</valuemax>
													<value>155.207</value>
												</parameter>
												<parameter>
													<parameterid>b_mag</parameterid>
													<name>Magnitude</name>
													<valuemin>0</valuemin>
													<valuemax>200</valuemax>
													<value>9.11081</value>
												</parameter>
												<parameter>
													<parameterid>label2</parameterid>
													<name>Midrange Controls</name>
													<value/>
												</parameter>
												<parameter>
													<parameterid>mids</parameterid>
													<name>Level</name>
													<valuemin>0</valuemin>
													<valuemax>200</valuemax>
													<value>100</value>
												</parameter>
												<parameter>
													<parameterid>m_hue</parameterid>
													<name>Angle</name>
													<valuemin>-180</valuemin>
													<valuemax>180</valuemax>
													<value>-83.6798</value>
												</parameter>
												<parameter>
													<parameterid>m_mag</parameterid>
													<name>Magnitude</name>
													<valuemin>0</valuemin>
													<valuemax>200</valuemax>
													<value>8.89836</value>
												</parameter>
												<parameter>
													<parameterid>label3</parameterid>
													<name>Highlight Controls</name>
													<value/>
												</parameter>
												<parameter>
													<parameterid>highlights</parameterid>
													<name>Level</name>
													<valuemin>64</valuemin>
													<valuemax>509</valuemax>
													<value>277</value>
												</parameter>
												<parameter>
													<parameterid>h_hue</parameterid>
													<name>Angle</name>
													<valuemin>-180</valuemin>
													<valuemax>180</valuemax>
													<value>133.224</value>
												</parameter>
												<parameter>
													<parameterid>h_mag</parameterid>
													<name>Magnitude</name>
													<valuemin>0</valuemin>
													<valuemax>200</valuemax>
													<value>55.8397</value>
												</parameter>
												<parameter>
													<parameterid>label4</parameterid>
													<name>Color Controls</name>
													<value/>
												</parameter>
												<parameter>
													<parameterid>chroma</parameterid>
													<name>Saturation</name>
													<valuemin>0</valuemin>
													<valuemax>200</valuemax>
													<value>98</value>
												</parameter>
												<parameter>
													<parameterid>label5</parameterid>
													<name>Limit Effect Controls</name>
													<value/>
												</parameter>
												<parameter>
													<parameterid>dochroma</parameterid>
													<name>Limit on Chroma</name>
													<value>FALSE</value>
												</parameter>
												<parameter>
													<parameterid>centerang</parameterid>
													<name>Chroma Center</name>
													<valuemin>-760</valuemin>
													<valuemax>760</valuemax>
													<value>-110</value>
												</parameter>
												<parameter>
													<parameterid>chromawidth</parameterid>
													<name>Chroma Width</name>
													<valuemin>0</valuemin>
													<valuemax>360</valuemax>
													<value>15</value>
												</parameter>
												<parameter>
													<parameterid>chromasoft</parameterid>
													<name>Chroma Softness</name>
													<valuemin>0</valuemin>
													<valuemax>180</valuemax>
													<value>10</value>
												</parameter>
												<parameter>
													<parameterid>dosat</parameterid>
													<name>Limit on Saturation</name>
													<value>FALSE</value>
												</parameter>
												<parameter>
													<parameterid>satmin</parameterid>
													<name>Sat. Minimum</name>
													<valuemin>0</valuemin>
													<valuemax>125</valuemax>
													<value>35</value>
												</parameter>
												<parameter>
													<parameterid>satwidth</parameterid>
													<name>Sat. Width</name>
													<valuemin>0</valuemin>
													<valuemax>125</valuemax>
													<value>40</value>
												</parameter>
												<parameter>
													<parameterid>satsoft</parameterid>
													<name>Sat. Softness</name>
													<valuemin>0</valuemin>
													<valuemax>125</valuemax>
													<value>20</value>
												</parameter>
												<parameter>
													<parameterid>doluma</parameterid>
													<name>Limit on Luma</name>
													<value>FALSE</value>
												</parameter>
												<parameter>
													<parameterid>lumamin</parameterid>
													<name>Luma Minimum</name>
													<valuemin>0</valuemin>
													<valuemax>120</valuemax>
													<value>0</value>
												</parameter>
												<parameter>
													<parameterid>lumawidth</parameterid>
													<name>Luma Width</name>
													<valuemin>0</valuemin>
													<valuemax>120</valuemax>
													<value>40</value>
												</parameter>
												<parameter>
													<parameterid>lumasoft</parameterid>
													<name>Luma Softness</name>
													<valuemin>0</valuemin>
													<valuemax>120</valuemax>
													<value>20</value>
												</parameter>
												<parameter>
													<parameterid>label6</parameterid>
													<name>Edge Control</name>
													<value/>
												</parameter>
												<parameter>
													<parameterid>edgethin</parameterid>
													<name>Thin/Spread</name>
													<valuemin>-100</valuemin>
													<valuemax>100</valuemax>
													<value>0</value>
												</parameter>
												<parameter>
													<parameterid>edgefeather</parameterid>
													<name>Softening</name>
													<valuemin>0</valuemin>
													<valuemax>100</valuemax>
													<value>0</value>
												</parameter>
												<parameter>
													<parameterid>label7</parameterid>
													<name>Mask Control</name>
													<value/>
												</parameter>
												<parameter>
													<parameterid>invertsel</parameterid>
													<name>Invert</name>
													<value>FALSE</value>
												</parameter>
												<parameter>
													<parameterid>debugshow</parameterid>
													<name>Show Stats</name>
													<value>FALSE</value>
												</parameter>
											</effect>
										</filter>
										<filter>
											<enabled>TRUE</enabled>
											<start>-1</start>
											<end>-1</end>
											<effect>
												<name>Color Corrector 3-way Copy - 2</name>
												<effectid>Color Corrector 3-way</effectid>
												<effectcategory>Color Correction</effectcategory>
												<effecttype>filter</effecttype>
												<mediatype>video</mediatype>
												<parameter>
													<parameterid>dispmode</parameterid>
													<name>Display Mode</name>
													<valuemin>1</valuemin>
													<valuemax>3</valuemax>
													<valuelist>
														<valueentry>
															<name>Final</name>
															<value>1</value>
														</valueentry>
														<valueentry>
															<name>Matte</name>
															<value>2</value>
														</valueentry>
														<valueentry>
															<name>Source</name>
															<value>3</value>
														</valueentry>
													</valuelist>
													<value>1</value>
												</parameter>
												<parameter>
													<parameterid>label1</parameterid>
													<name>Blacks Controls</name>
													<value/>
												</parameter>
												<parameter>
													<parameterid>blacklevel</parameterid>
													<name>Level</name>
													<valuemin>-196</valuemin>
													<valuemax>254</valuemax>
													<value>-4</value>
												</parameter>
												<parameter>
													<parameterid>b_hue</parameterid>
													<name>Angle</name>
													<valuemin>-180</valuemin>
													<valuemax>180</valuemax>
													<value>77.2756</value>
												</parameter>
												<parameter>
													<parameterid>b_mag</parameterid>
													<name>Magnitude</name>
													<valuemin>0</valuemin>
													<valuemax>200</valuemax>
													<value>1.43114</value>
												</parameter>
												<parameter>
													<parameterid>label2</parameterid>
													<name>Midrange Controls</name>
													<value/>
												</parameter>
												<parameter>
													<parameterid>mids</parameterid>
													<name>Level</name>
													<valuemin>0</valuemin>
													<valuemax>200</valuemax>
													<value>100</value>
												</parameter>
												<parameter>
													<parameterid>m_hue</parameterid>
													<name>Angle</name>
													<valuemin>-180</valuemin>
													<valuemax>180</valuemax>
													<value>-27.4916</value>
												</parameter>
												<parameter>
													<parameterid>m_mag</parameterid>
													<name>Magnitude</name>
													<valuemin>0</valuemin>
													<valuemax>200</valuemax>
													<value>8.27218</value>
												</parameter>
												<parameter>
													<parameterid>label3</parameterid>
													<name>Highlight Controls</name>
													<value/>
												</parameter>
												<parameter>
													<parameterid>highlights</parameterid>
													<name>Level</name>
													<valuemin>64</valuemin>
													<valuemax>509</valuemax>
													<value>261</value>
												</parameter>
												<parameter>
													<parameterid>h_hue</parameterid>
													<name>Angle</name>
													<valuemin>-180</valuemin>
													<valuemax>180</valuemax>
													<value>121.811</value>
												</parameter>
												<parameter>
													<parameterid>h_mag</parameterid>
													<name>Magnitude</name>
													<valuemin>0</valuemin>
													<valuemax>200</valuemax>
													<value>12.4541</value>
												</parameter>
												<parameter>
													<parameterid>label4</parameterid>
													<name>Color Controls</name>
													<value/>
												</parameter>
												<parameter>
													<parameterid>chroma</parameterid>
													<name>Saturation</name>
													<valuemin>0</valuemin>
													<valuemax>200</valuemax>
													<value>110</value>
												</parameter>
												<parameter>
													<parameterid>label5</parameterid>
													<name>Limit Effect Controls</name>
													<value/>
												</parameter>
												<parameter>
													<parameterid>dochroma</parameterid>
													<name>Limit on Chroma</name>
													<value>FALSE</value>
												</parameter>
												<parameter>
													<parameterid>centerang</parameterid>
													<name>Chroma Center</name>
													<valuemin>-760</valuemin>
													<valuemax>760</valuemax>
													<value>-110</value>
												</parameter>
												<parameter>
													<parameterid>chromawidth</parameterid>
													<name>Chroma Width</name>
													<valuemin>0</valuemin>
													<valuemax>360</valuemax>
													<value>15</value>
												</parameter>
												<parameter>
													<parameterid>chromasoft</parameterid>
													<name>Chroma Softness</name>
													<valuemin>0</valuemin>
													<valuemax>180</valuemax>
													<value>10</value>
												</parameter>
												<parameter>
													<parameterid>dosat</parameterid>
													<name>Limit on Saturation</name>
													<value>FALSE</value>
												</parameter>
												<parameter>
													<parameterid>satmin</parameterid>
													<name>Sat. Minimum</name>
													<valuemin>0</valuemin>
													<valuemax>125</valuemax>
													<value>35</value>
												</parameter>
												<parameter>
													<parameterid>satwidth</parameterid>
													<name>Sat. Width</name>
													<valuemin>0</valuemin>
													<valuemax>125</valuemax>
													<value>40</value>
												</parameter>
												<parameter>
													<parameterid>satsoft</parameterid>
													<name>Sat. Softness</name>
													<valuemin>0</valuemin>
													<valuemax>125</valuemax>
													<value>20</value>
												</parameter>
												<parameter>
													<parameterid>doluma</parameterid>
													<name>Limit on Luma</name>
													<value>FALSE</value>
												</parameter>
												<parameter>
													<parameterid>lumamin</parameterid>
													<name>Luma Minimum</name>
													<valuemin>0</valuemin>
													<valuemax>120</valuemax>
													<value>0</value>
												</parameter>
												<parameter>
													<parameterid>lumawidth</parameterid>
													<name>Luma Width</name>
													<valuemin>0</valuemin>
													<valuemax>120</valuemax>
													<value>40</value>
												</parameter>
												<parameter>
													<parameterid>lumasoft</parameterid>
													<name>Luma Softness</name>
													<valuemin>0</valuemin>
													<valuemax>120</valuemax>
													<value>20</value>
												</parameter>
												<parameter>
													<parameterid>label6</parameterid>
													<name>Edge Control</name>
													<value/>
												</parameter>
												<parameter>
													<parameterid>edgethin</parameterid>
													<name>Thin/Spread</name>
													<valuemin>-100</valuemin>
													<valuemax>100</valuemax>
													<value>0</value>
												</parameter>
												<parameter>
													<parameterid>edgefeather</parameterid>
													<name>Softening</name>
													<valuemin>0</valuemin>
													<valuemax>100</valuemax>
													<value>0</value>
												</parameter>
												<parameter>
													<parameterid>label7</parameterid>
													<name>Mask Control</name>
													<value/>
												</parameter>
												<parameter>
													<parameterid>invertsel</parameterid>
													<name>Invert</name>
													<value>FALSE</value>
												</parameter>
												<parameter>
													<parameterid>debugshow</parameterid>
													<name>Show Stats</name>
													<value>FALSE</value>
												</parameter>
											</effect>
										</filter>
										<filter>
											<start>-1</start>
											<end>-1</end>
											<effect>
												<name>Hatched Screen</name>
												<effecttype>filter</effecttype>
												<mediatype>video</mediatype>
												<parameter>
													<parameterid>input_1_X</parameterid>
													<name>Center</name>
													<value>
														<horiz>0</horiz>
														<vert>0</vert>
													</value>
												</parameter>
												<parameter>
													<parameterid>input_2</parameterid>
													<name>Angle</name>
													<valuemin>0</valuemin>
													<valuemax>20626.5</valuemax>
													<value>28.6</value>
												</parameter>
												<parameter>
													<parameterid>input_3</parameterid>
													<name>Scale</name>
													<valuemin>1</valuemin>
													<valuemax>100</valuemax>
													<value>5</value>
												</parameter>
												<parameter>
													<parameterid>input_4</parameterid>
													<name>Skew</name>
													<valuemin>-3</valuemin>
													<valuemax>3</valuemax>
													<value>0</value>
												</parameter>
												<parameter>
													<parameterid>input_5</parameterid>
													<name>Stretch</name>
													<valuemin>-2</valuemin>
													<valuemax>2</valuemax>
													<value>0</value>
												</parameter>
												<parameter>
													<parameterid>input_6</parameterid>
													<name>Contrast</name>
													<valuemin>0</valuemin>
													<valuemax>0.99</valuemax>
													<value>0.257143</value>
												</parameter>
												<parameter>
													<parameterid>FCP_FilterMix</parameterid>
													<name>Mix</name>
													<valuemin>0</valuemin>
													<valuemax>100</valuemax>
													<value>13</value>
												</parameter>
											</effect>
										</filter>
										<filter>
											<start>-1</start>
											<end>-1</end>
											<effect>
												<name>Vignette</name>
												<effecttype>filter</effecttype>
												<mediatype>video</mediatype>
												<parameter>
													<parameterid>input_1</parameterid>
													<name>Size</name>
													<valuemin>0</valuemin>
													<valuemax>1.5</valuemax>
													<value>0.6</value>
												</parameter>
												<parameter>
													<parameterid>input_5</parameterid>
													<name>Falloff</name>
													<valuemin>0.001</valuemin>
													<valuemax>1</valuemax>
													<value>0.5</value>
												</parameter>
												<parameter>
													<parameterid>input_2</parameterid>
													<name>Blur Amount</name>
													<valuemin>0</valuemin>
													<valuemax>16</valuemax>
													<value>4</value>
												</parameter>
												<parameter>
													<parameterid>input_3</parameterid>
													<name>Darken</name>
													<valuemin>0</valuemin>
													<valuemax>1</valuemax>
													<value>0.3</value>
												</parameter>
												<parameter>
													<parameterid>input_4</parameterid>
													<name>Saturation</name>
													<valuemin>-1</valuemin>
													<valuemax>1</valuemax>
													<value>0.3</value>
												</parameter>
												<parameter>
													<parameterid>FCP_FilterMix</parameterid>
													<name>Mix</name>
													<valuemin>0</valuemin>
													<valuemax>100</valuemax>
													<value>100</value>
												</parameter>
											</effect>
										</filter>
										<filter>
											<effect>
												<name>Opacity</name>
												<effectid>opacity</effectid>
												<effectcategory>motion</effectcategory>
												<effecttype>motion</effecttype>
												<mediatype>video</mediatype>
												<parameter>
													<parameterid>opacity</parameterid>
													<name>opacity</name>
													<valuemin>0</valuemin>
													<valuemax>100</valuemax>
													<value>68</value>
												</parameter>
											</effect>
										</filter>
										<sourcetrack>
											<mediatype>video</mediatype>
										</sourcetrack>
										<fielddominance>upper</fielddominance>
									</clipitem>
									<clipitem id="msub200012-2308-k1d2003.mxf6">
										<name>msub200012-2308-k1d2003.mxf</name>
										<duration>860</duration>
										<rate>
											<ntsc>FALSE</ntsc>
											<timebase>25</timebase>
										</rate>
										<in>530</in>
										<out>575</out>
										<start>84</start>
										<end>129</end>
										<pixelaspectratio>Square</pixelaspectratio>
										<enabled>TRUE</enabled>
										<anamorphic>FALSE</anamorphic>
										<alphatype>none</alphatype>
										<alphareverse>FALSE</alphareverse>
										<compositemode>screen</compositemode>
										<masterclipid>msub200012-2308-k1d2003.mxf1</masterclipid>
										<logginginfo>
											<scene/>
											<shottake/>
											<lognote/>
											<good>FALSE</good>
										</logginginfo>
										<labels>
											<label2/>
										</labels>
										<comments>
											<mastercomment1/>
											<mastercomment2/>
											<mastercomment3/>
											<mastercomment4/>
										</comments>
										<file id="msub200012-2308-k1d2003 "/>
										<filter>
											<start>-1</start>
											<end>-1</end>
											<effect>
												<name>Color Corrector 3-way Copy</name>
												<effectid>Color Corrector 3-way</effectid>
												<effectcategory>Color Correction</effectcategory>
												<effecttype>filter</effecttype>
												<mediatype>video</mediatype>
												<parameter>
													<parameterid>dispmode</parameterid>
													<name>Display Mode</name>
													<valuemin>1</valuemin>
													<valuemax>3</valuemax>
													<valuelist>
														<valueentry>
															<name>Final</name>
															<value>1</value>
														</valueentry>
														<valueentry>
															<name>Matte</name>
															<value>2</value>
														</valueentry>
														<valueentry>
															<name>Source</name>
															<value>3</value>
														</valueentry>
													</valuelist>
													<value>1</value>
												</parameter>
												<parameter>
													<parameterid>label1</parameterid>
													<name>Blacks Controls</name>
													<value/>
												</parameter>
												<parameter>
													<parameterid>blacklevel</parameterid>
													<name>Level</name>
													<valuemin>-196</valuemin>
													<valuemax>254</valuemax>
													<value>-7</value>
												</parameter>
												<parameter>
													<parameterid>b_hue</parameterid>
													<name>Angle</name>
													<valuemin>-180</valuemin>
													<valuemax>180</valuemax>
													<value>155.207</value>
												</parameter>
												<parameter>
													<parameterid>b_mag</parameterid>
													<name>Magnitude</name>
													<valuemin>0</valuemin>
													<valuemax>200</valuemax>
													<value>9.11081</value>
												</parameter>
												<parameter>
													<parameterid>label2</parameterid>
													<name>Midrange Controls</name>
													<value/>
												</parameter>
												<parameter>
													<parameterid>mids</parameterid>
													<name>Level</name>
													<valuemin>0</valuemin>
													<valuemax>200</valuemax>
													<value>100</value>
												</parameter>
												<parameter>
													<parameterid>m_hue</parameterid>
													<name>Angle</name>
													<valuemin>-180</valuemin>
													<valuemax>180</valuemax>
													<value>-83.6798</value>
												</parameter>
												<parameter>
													<parameterid>m_mag</parameterid>
													<name>Magnitude</name>
													<valuemin>0</valuemin>
													<valuemax>200</valuemax>
													<value>8.89836</value>
												</parameter>
												<parameter>
													<parameterid>label3</parameterid>
													<name>Highlight Controls</name>
													<value/>
												</parameter>
												<parameter>
													<parameterid>highlights</parameterid>
													<name>Level</name>
													<valuemin>64</valuemin>
													<valuemax>509</valuemax>
													<value>277</value>
												</parameter>
												<parameter>
													<parameterid>h_hue</parameterid>
													<name>Angle</name>
													<valuemin>-180</valuemin>
													<valuemax>180</valuemax>
													<value>133.224</value>
												</parameter>
												<parameter>
													<parameterid>h_mag</parameterid>
													<name>Magnitude</name>
													<valuemin>0</valuemin>
													<valuemax>200</valuemax>
													<value>55.8397</value>
												</parameter>
												<parameter>
													<parameterid>label4</parameterid>
													<name>Color Controls</name>
													<value/>
												</parameter>
												<parameter>
													<parameterid>chroma</parameterid>
													<name>Saturation</name>
													<valuemin>0</valuemin>
													<valuemax>200</valuemax>
													<value>98</value>
												</parameter>
												<parameter>
													<parameterid>label5</parameterid>
													<name>Limit Effect Controls</name>
													<value/>
												</parameter>
												<parameter>
													<parameterid>dochroma</parameterid>
													<name>Limit on Chroma</name>
													<value>FALSE</value>
												</parameter>
												<parameter>
													<parameterid>centerang</parameterid>
													<name>Chroma Center</name>
													<valuemin>-760</valuemin>
													<valuemax>760</valuemax>
													<value>-110</value>
												</parameter>
												<parameter>
													<parameterid>chromawidth</parameterid>
													<name>Chroma Width</name>
													<valuemin>0</valuemin>
													<valuemax>360</valuemax>
													<value>15</value>
												</parameter>
												<parameter>
													<parameterid>chromasoft</parameterid>
													<name>Chroma Softness</name>
													<valuemin>0</valuemin>
													<valuemax>180</valuemax>
													<value>10</value>
												</parameter>
												<parameter>
													<parameterid>dosat</parameterid>
													<name>Limit on Saturation</name>
													<value>FALSE</value>
												</parameter>
												<parameter>
													<parameterid>satmin</parameterid>
													<name>Sat. Minimum</name>
													<valuemin>0</valuemin>
													<valuemax>125</valuemax>
													<value>35</value>
												</parameter>
												<parameter>
													<parameterid>satwidth</parameterid>
													<name>Sat. Width</name>
													<valuemin>0</valuemin>
													<valuemax>125</valuemax>
													<value>40</value>
												</parameter>
												<parameter>
													<parameterid>satsoft</parameterid>
													<name>Sat. Softness</name>
													<valuemin>0</valuemin>
													<valuemax>125</valuemax>
													<value>20</value>
												</parameter>
												<parameter>
													<parameterid>doluma</parameterid>
													<name>Limit on Luma</name>
													<value>FALSE</value>
												</parameter>
												<parameter>
													<parameterid>lumamin</parameterid>
													<name>Luma Minimum</name>
													<valuemin>0</valuemin>
													<valuemax>120</valuemax>
													<value>0</value>
												</parameter>
												<parameter>
													<parameterid>lumawidth</parameterid>
													<name>Luma Width</name>
													<valuemin>0</valuemin>
													<valuemax>120</valuemax>
													<value>40</value>
												</parameter>
												<parameter>
													<parameterid>lumasoft</parameterid>
													<name>Luma Softness</name>
													<valuemin>0</valuemin>
													<valuemax>120</valuemax>
													<value>20</value>
												</parameter>
												<parameter>
													<parameterid>label6</parameterid>
													<name>Edge Control</name>
													<value/>
												</parameter>
												<parameter>
													<parameterid>edgethin</parameterid>
													<name>Thin/Spread</name>
													<valuemin>-100</valuemin>
													<valuemax>100</valuemax>
													<value>0</value>
												</parameter>
												<parameter>
													<parameterid>edgefeather</parameterid>
													<name>Softening</name>
													<valuemin>0</valuemin>
													<valuemax>100</valuemax>
													<value>0</value>
												</parameter>
												<parameter>
													<parameterid>label7</parameterid>
													<name>Mask Control</name>
													<value/>
												</parameter>
												<parameter>
													<parameterid>invertsel</parameterid>
													<name>Invert</name>
													<value>FALSE</value>
												</parameter>
												<parameter>
													<parameterid>debugshow</parameterid>
													<name>Show Stats</name>
													<value>FALSE</value>
												</parameter>
											</effect>
										</filter>
										<filter>
											<start>-1</start>
											<end>-1</end>
											<effect>
												<name>Color Corrector 3-way Copy - 2</name>
												<effectid>Color Corrector 3-way</effectid>
												<effectcategory>Color Correction</effectcategory>
												<effecttype>filter</effecttype>
												<mediatype>video</mediatype>
												<parameter>
													<parameterid>dispmode</parameterid>
													<name>Display Mode</name>
													<valuemin>1</valuemin>
													<valuemax>3</valuemax>
													<valuelist>
														<valueentry>
															<name>Final</name>
															<value>1</value>
														</valueentry>
														<valueentry>
															<name>Matte</name>
															<value>2</value>
														</valueentry>
														<valueentry>
															<name>Source</name>
															<value>3</value>
														</valueentry>
													</valuelist>
													<value>1</value>
												</parameter>
												<parameter>
													<parameterid>label1</parameterid>
													<name>Blacks Controls</name>
													<value/>
												</parameter>
												<parameter>
													<parameterid>blacklevel</parameterid>
													<name>Level</name>
													<valuemin>-196</valuemin>
													<valuemax>254</valuemax>
													<value>-4</value>
												</parameter>
												<parameter>
													<parameterid>b_hue</parameterid>
													<name>Angle</name>
													<valuemin>-180</valuemin>
													<valuemax>180</valuemax>
													<value>77.2756</value>
												</parameter>
												<parameter>
													<parameterid>b_mag</parameterid>
													<name>Magnitude</name>
													<valuemin>0</valuemin>
													<valuemax>200</valuemax>
													<value>1.43114</value>
												</parameter>
												<parameter>
													<parameterid>label2</parameterid>
													<name>Midrange Controls</name>
													<value/>
												</parameter>
												<parameter>
													<parameterid>mids</parameterid>
													<name>Level</name>
													<valuemin>0</valuemin>
													<valuemax>200</valuemax>
													<value>100</value>
												</parameter>
												<parameter>
													<parameterid>m_hue</parameterid>
													<name>Angle</name>
													<valuemin>-180</valuemin>
													<valuemax>180</valuemax>
													<value>-27.4916</value>
												</parameter>
												<parameter>
													<parameterid>m_mag</parameterid>
													<name>Magnitude</name>
													<valuemin>0</valuemin>
													<valuemax>200</valuemax>
													<value>8.27218</value>
												</parameter>
												<parameter>
													<parameterid>label3</parameterid>
													<name>Highlight Controls</name>
													<value/>
												</parameter>
												<parameter>
													<parameterid>highlights</parameterid>
													<name>Level</name>
													<valuemin>64</valuemin>
													<valuemax>509</valuemax>
													<value>261</value>
												</parameter>
												<parameter>
													<parameterid>h_hue</parameterid>
													<name>Angle</name>
													<valuemin>-180</valuemin>
													<valuemax>180</valuemax>
													<value>121.811</value>
												</parameter>
												<parameter>
													<parameterid>h_mag</parameterid>
													<name>Magnitude</name>
													<valuemin>0</valuemin>
													<valuemax>200</valuemax>
													<value>12.4541</value>
												</parameter>
												<parameter>
													<parameterid>label4</parameterid>
													<name>Color Controls</name>
													<value/>
												</parameter>
												<parameter>
													<parameterid>chroma</parameterid>
													<name>Saturation</name>
													<valuemin>0</valuemin>
													<valuemax>200</valuemax>
													<value>110</value>
												</parameter>
												<parameter>
													<parameterid>label5</parameterid>
													<name>Limit Effect Controls</name>
													<value/>
												</parameter>
												<parameter>
													<parameterid>dochroma</parameterid>
													<name>Limit on Chroma</name>
													<value>FALSE</value>
												</parameter>
												<parameter>
													<parameterid>centerang</parameterid>
													<name>Chroma Center</name>
													<valuemin>-760</valuemin>
													<valuemax>760</valuemax>
													<value>-110</value>
												</parameter>
												<parameter>
													<parameterid>chromawidth</parameterid>
													<name>Chroma Width</name>
													<valuemin>0</valuemin>
													<valuemax>360</valuemax>
													<value>15</value>
												</parameter>
												<parameter>
													<parameterid>chromasoft</parameterid>
													<name>Chroma Softness</name>
													<valuemin>0</valuemin>
													<valuemax>180</valuemax>
													<value>10</value>
												</parameter>
												<parameter>
													<parameterid>dosat</parameterid>
													<name>Limit on Saturation</name>
													<value>FALSE</value>
												</parameter>
												<parameter>
													<parameterid>satmin</parameterid>
													<name>Sat. Minimum</name>
													<valuemin>0</valuemin>
													<valuemax>125</valuemax>
													<value>35</value>
												</parameter>
												<parameter>
													<parameterid>satwidth</parameterid>
													<name>Sat. Width</name>
													<valuemin>0</valuemin>
													<valuemax>125</valuemax>
													<value>40</value>
												</parameter>
												<parameter>
													<parameterid>satsoft</parameterid>
													<name>Sat. Softness</name>
													<valuemin>0</valuemin>
													<valuemax>125</valuemax>
													<value>20</value>
												</parameter>
												<parameter>
													<parameterid>doluma</parameterid>
													<name>Limit on Luma</name>
													<value>FALSE</value>
												</parameter>
												<parameter>
													<parameterid>lumamin</parameterid>
													<name>Luma Minimum</name>
													<valuemin>0</valuemin>
													<valuemax>120</valuemax>
													<value>0</value>
												</parameter>
												<parameter>
													<parameterid>lumawidth</parameterid>
													<name>Luma Width</name>
													<valuemin>0</valuemin>
													<valuemax>120</valuemax>
													<value>40</value>
												</parameter>
												<parameter>
													<parameterid>lumasoft</parameterid>
													<name>Luma Softness</name>
													<valuemin>0</valuemin>
													<valuemax>120</valuemax>
													<value>20</value>
												</parameter>
												<parameter>
													<parameterid>label6</parameterid>
													<name>Edge Control</name>
													<value/>
												</parameter>
												<parameter>
													<parameterid>edgethin</parameterid>
													<name>Thin/Spread</name>
													<valuemin>-100</valuemin>
													<valuemax>100</valuemax>
													<value>0</value>
												</parameter>
												<parameter>
													<parameterid>edgefeather</parameterid>
													<name>Softening</name>
													<valuemin>0</valuemin>
													<valuemax>100</valuemax>
													<value>0</value>
												</parameter>
												<parameter>
													<parameterid>label7</parameterid>
													<name>Mask Control</name>
													<value/>
												</parameter>
												<parameter>
													<parameterid>invertsel</parameterid>
													<name>Invert</name>
													<value>FALSE</value>
												</parameter>
												<parameter>
													<parameterid>debugshow</parameterid>
													<name>Show Stats</name>
													<value>FALSE</value>
												</parameter>
											</effect>
										</filter>
										<filter>
											<start>-1</start>
											<end>-1</end>
											<effect>
												<name>Hatched Screen</name>
												<effecttype>filter</effecttype>
												<mediatype>video</mediatype>
												<parameter>
													<parameterid>input_1_X</parameterid>
													<name>Center</name>
													<value>
														<horiz>0</horiz>
														<vert>0</vert>
													</value>
												</parameter>
												<parameter>
													<parameterid>input_2</parameterid>
													<name>Angle</name>
													<valuemin>0</valuemin>
													<valuemax>20626.5</valuemax>
													<value>28.6</value>
												</parameter>
												<parameter>
													<parameterid>input_3</parameterid>
													<name>Scale</name>
													<valuemin>1</valuemin>
													<valuemax>100</valuemax>
													<value>5</value>
												</parameter>
												<parameter>
													<parameterid>input_4</parameterid>
													<name>Skew</name>
													<valuemin>-3</valuemin>
													<valuemax>3</valuemax>
													<value>0</value>
												</parameter>
												<parameter>
													<parameterid>input_5</parameterid>
													<name>Stretch</name>
													<valuemin>-2</valuemin>
													<valuemax>2</valuemax>
													<value>0</value>
												</parameter>
												<parameter>
													<parameterid>input_6</parameterid>
													<name>Contrast</name>
													<valuemin>0</valuemin>
													<valuemax>0.99</valuemax>
													<value>0.257143</value>
												</parameter>
												<parameter>
													<parameterid>FCP_FilterMix</parameterid>
													<name>Mix</name>
													<valuemin>0</valuemin>
													<valuemax>100</valuemax>
													<value>13</value>
												</parameter>
											</effect>
										</filter>
										<filter>
											<start>-1</start>
											<end>-1</end>
											<effect>
												<name>Vignette</name>
												<effecttype>filter</effecttype>
												<mediatype>video</mediatype>
												<parameter>
													<parameterid>input_1</parameterid>
													<name>Size</name>
													<valuemin>0</valuemin>
													<valuemax>1.5</valuemax>
													<value>0.6</value>
												</parameter>
												<parameter>
													<parameterid>input_5</parameterid>
													<name>Falloff</name>
													<valuemin>0.001</valuemin>
													<valuemax>1</valuemax>
													<value>0.5</value>
												</parameter>
												<parameter>
													<parameterid>input_2</parameterid>
													<name>Blur Amount</name>
													<valuemin>0</valuemin>
													<valuemax>16</valuemax>
													<value>4</value>
												</parameter>
												<parameter>
													<parameterid>input_3</parameterid>
													<name>Darken</name>
													<valuemin>0</valuemin>
													<valuemax>1</valuemax>
													<value>0.3</value>
												</parameter>
												<parameter>
													<parameterid>input_4</parameterid>
													<name>Saturation</name>
													<valuemin>-1</valuemin>
													<valuemax>1</valuemax>
													<value>0.3</value>
												</parameter>
												<parameter>
													<parameterid>FCP_FilterMix</parameterid>
													<name>Mix</name>
													<valuemin>0</valuemin>
													<valuemax>100</valuemax>
													<value>100</value>
												</parameter>
											</effect>
										</filter>
										<filter>
											<effect>
												<name>Opacity</name>
												<effectid>opacity</effectid>
												<effectcategory>motion</effectcategory>
												<effecttype>motion</effecttype>
												<mediatype>video</mediatype>
												<parameter>
													<parameterid>opacity</parameterid>
													<name>opacity</name>
													<valuemin>0</valuemin>
													<valuemax>100</valuemax>
													<value>68</value>
												</parameter>
											</effect>
										</filter>
										<sourcetrack>
											<mediatype>video</mediatype>
										</sourcetrack>
										<fielddominance>upper</fielddominance>
									</clipitem>
									<enabled>TRUE</enabled>
									<locked>FALSE</locked>
								</track>
								<track>
									<clipitem id="msub200012-2308-k1d2004.mxf3">
										<name>msub200012-2308-k1d2004.mxf</name>
										<duration>345</duration>
										<rate>
											<ntsc>FALSE</ntsc>
											<timebase>25</timebase>
										</rate>
										<in>126</in>
										<out>190</out>
										<start>20</start>
										<end>84</end>
										<pixelaspectratio>Square</pixelaspectratio>
										<enabled>TRUE</enabled>
										<anamorphic>FALSE</anamorphic>
										<alphatype>none</alphatype>
										<alphareverse>FALSE</alphareverse>
										<compositemode>screen</compositemode>
										<masterclipid>msub200012-2308-k1d2004.mxf1</masterclipid>
										<logginginfo>
											<scene/>
											<shottake/>
											<lognote/>
											<good>FALSE</good>
										</logginginfo>
										<labels>
											<label2/>
										</labels>
										<comments>
											<mastercomment1/>
											<mastercomment2/>
											<mastercomment3/>
											<mastercomment4/>
										</comments>
										<file id="msub200012-2308-k1d2004 "/>
										<filter>
											<start>-1</start>
											<end>-1</end>
											<effect>
												<name>Hatched Screen</name>
												<effecttype>filter</effecttype>
												<mediatype>video</mediatype>
												<parameter>
													<parameterid>input_1_X</parameterid>
													<name>Center</name>
													<value>
														<horiz>0</horiz>
														<vert>0</vert>
													</value>
												</parameter>
												<parameter>
													<parameterid>input_2</parameterid>
													<name>Angle</name>
													<valuemin>0</valuemin>
													<valuemax>20626.5</valuemax>
													<value>28.6</value>
												</parameter>
												<parameter>
													<parameterid>input_3</parameterid>
													<name>Scale</name>
													<valuemin>1</valuemin>
													<valuemax>100</valuemax>
													<value>5</value>
												</parameter>
												<parameter>
													<parameterid>input_4</parameterid>
													<name>Skew</name>
													<valuemin>-3</valuemin>
													<valuemax>3</valuemax>
													<value>0</value>
												</parameter>
												<parameter>
													<parameterid>input_5</parameterid>
													<name>Stretch</name>
													<valuemin>-2</valuemin>
													<valuemax>2</valuemax>
													<value>0</value>
												</parameter>
												<parameter>
													<parameterid>input_6</parameterid>
													<name>Contrast</name>
													<valuemin>0</valuemin>
													<valuemax>0.99</valuemax>
													<value>0.257143</value>
												</parameter>
												<parameter>
													<parameterid>FCP_FilterMix</parameterid>
													<name>Mix</name>
													<valuemin>0</valuemin>
													<valuemax>100</valuemax>
													<value>13</value>
												</parameter>
											</effect>
										</filter>
										<filter>
											<start>-1</start>
											<end>-1</end>
											<effect>
												<name>Vignette</name>
												<effecttype>filter</effecttype>
												<mediatype>video</mediatype>
												<parameter>
													<parameterid>input_1</parameterid>
													<name>Size</name>
													<valuemin>0</valuemin>
													<valuemax>1.5</valuemax>
													<value>0.6</value>
												</parameter>
												<parameter>
													<parameterid>input_5</parameterid>
													<name>Falloff</name>
													<valuemin>0.001</valuemin>
													<valuemax>1</valuemax>
													<value>0.5</value>
												</parameter>
												<parameter>
													<parameterid>input_2</parameterid>
													<name>Blur Amount</name>
													<valuemin>0</valuemin>
													<valuemax>16</valuemax>
													<value>4</value>
												</parameter>
												<parameter>
													<parameterid>input_3</parameterid>
													<name>Darken</name>
													<valuemin>0</valuemin>
													<valuemax>1</valuemax>
													<value>0.3</value>
												</parameter>
												<parameter>
													<parameterid>input_4</parameterid>
													<name>Saturation</name>
													<valuemin>-1</valuemin>
													<valuemax>1</valuemax>
													<value>0.3</value>
												</parameter>
												<parameter>
													<parameterid>FCP_FilterMix</parameterid>
													<name>Mix</name>
													<valuemin>0</valuemin>
													<valuemax>100</valuemax>
													<value>100</value>
												</parameter>
											</effect>
										</filter>
										<filter>
											<effect>
												<name>Opacity</name>
												<effectid>opacity</effectid>
												<effectcategory>motion</effectcategory>
												<effecttype>motion</effecttype>
												<mediatype>video</mediatype>
												<parameter>
													<parameterid>opacity</parameterid>
													<name>opacity</name>
													<valuemin>0</valuemin>
													<valuemax>100</valuemax>
													<value>68</value>
												</parameter>
											</effect>
										</filter>
										<sourcetrack>
											<mediatype>video</mediatype>
										</sourcetrack>
										<fielddominance>upper</fielddominance>
									</clipitem>
									<enabled>TRUE</enabled>
									<locked>FALSE</locked>
								</track>
								<track>
									<clipitem id="Black Frame.png2">
										<name>Black Frame.png</name>
										<duration>6000</duration>
										<rate>
											<ntsc>FALSE</ntsc>
											<timebase>25</timebase>
										</rate>
										<in>2975</in>
										<out>3104</out>
										<start>0</start>
										<end>129</end>
										<pixelaspectratio>Square</pixelaspectratio>
										<stillframe>TRUE</stillframe>
										<enabled>TRUE</enabled>
										<anamorphic>FALSE</anamorphic>
										<alphatype>straight</alphatype>
										<alphareverse>FALSE</alphareverse>
										<masterclipid>Black Frame.png1</masterclipid>
										<logginginfo>
											<scene/>
											<shottake/>
											<lognote/>
											<good>FALSE</good>
										</logginginfo>
										<labels>
											<label2/>
										</labels>
										<comments>
											<mastercomment1/>
											<mastercomment2/>
											<mastercomment3/>
											<mastercomment4/>
										</comments>
										<file id="Black Frame"/>
										<filter>
											<enabled>TRUE</enabled>
											<start>-1</start>
											<end>-1</end>
											<effect>
												<name>Flop</name>
												<effectid>Flop</effectid>
												<effectcategory>Perspective</effectcategory>
												<effecttype>filter</effecttype>
												<mediatype>video</mediatype>
												<parameter>
													<parameterid>flop</parameterid>
													<name>Flop</name>
													<valuemin>1</valuemin>
													<valuemax>3</valuemax>
													<valuelist>
														<valueentry>
															<name>Horizontal</name>
															<value>1</value>
														</valueentry>
														<valueentry>
															<name>Vertical</name>
															<value>2</value>
														</valueentry>
														<valueentry>
															<name>Both</name>
															<value>3</value>
														</valueentry>
													</valuelist>
													<value>1</value>
												</parameter>
											</effect>
										</filter>
										<filter>
											<enabled>TRUE</enabled>
											<start>-1</start>
											<end>-1</end>
											<effect>
												<name>Gaussian Blur</name>
												<effectid>Gaussian Blur</effectid>
												<effectcategory>Blur</effectcategory>
												<effecttype>filter</effecttype>
												<mediatype>video</mediatype>
												<parameter>
													<parameterid>channel</parameterid>
													<name>Channel</name>
													<valuemin>1</valuemin>
													<valuemax>7</valuemax>
													<valuelist>
														<valueentry>
															<name>Alpha+RGB</name>
															<value>1</value>
														</valueentry>
														<valueentry>
															<name>Alpha</name>
															<value>2</value>
														</valueentry>
														<valueentry>
															<name>RGB</name>
															<value>3</value>
														</valueentry>
														<valueentry>
															<name>Red</name>
															<value>4</value>
														</valueentry>
														<valueentry>
															<name>Green</name>
															<value>5</value>
														</valueentry>
														<valueentry>
															<name>Blue</name>
															<value>6</value>
														</valueentry>
														<valueentry>
															<name>Luminance</name>
															<value>7</value>
														</valueentry>
													</valuelist>
													<value>1</value>
												</parameter>
												<parameter>
													<parameterid>radius</parameterid>
													<name>Radius</name>
													<valuemin>0</valuemin>
													<valuemax>100</valuemax>
													<value>9</value>
												</parameter>
											</effect>
										</filter>
										<filter>
											<effect>
												<name>Basic Motion</name>
												<effectid>basic</effectid>
												<effectcategory>motion</effectcategory>
												<effecttype>motion</effecttype>
												<mediatype>video</mediatype>
												<parameter>
													<parameterid>scale</parameterid>
													<name>Scale</name>
													<valuemin>0</valuemin>
													<valuemax>1000</valuemax>
													<value>106.044</value>
												</parameter>
												<parameter>
													<parameterid>rotation</parameterid>
													<name>Rotation</name>
													<valuemin>-8640</valuemin>
													<valuemax>8640</valuemax>
													<value>0</value>
												</parameter>
												<parameter>
													<parameterid>center</parameterid>
													<name>Center</name>
													<value>
														<horiz>0.00416667</horiz>
														<vert>0.0037037</vert>
													</value>
												</parameter>
												<parameter>
													<parameterid>centerOffset</parameterid>
													<name>Anchor Point</name>
													<value>
														<horiz>0</horiz>
														<vert>0</vert>
													</value>
												</parameter>
											</effect>
										</filter>
										<filter>
											<enabled>FALSE</enabled>
											<effect>
												<name>Drop Shadow</name>
												<effectid>dropshadow</effectid>
												<effectcategory>motion</effectcategory>
												<effecttype>motion</effecttype>
												<mediatype>video</mediatype>
												<parameter>
													<parameterid>offset</parameterid>
													<name>offset</name>
													<valuemin>-100</valuemin>
													<valuemax>100</valuemax>
													<value>2</value>
												</parameter>
												<parameter>
													<parameterid>angle</parameterid>
													<name>angle</name>
													<valuemin>-720</valuemin>
													<valuemax>720</valuemax>
													<value>135</value>
												</parameter>
												<parameter>
													<parameterid>color</parameterid>
													<name>color</name>
													<value>
														<alpha>0</alpha>
														<red>0</red>
														<green>0</green>
														<blue>0</blue>
													</value>
												</parameter>
												<parameter>
													<parameterid>softness</parameterid>
													<name>softness</name>
													<valuemin>0</valuemin>
													<valuemax>100</valuemax>
													<value>10</value>
												</parameter>
												<parameter>
													<parameterid>opacity</parameterid>
													<name>opacity</name>
													<valuemin>0</valuemin>
													<valuemax>100</valuemax>
													<value>50</value>
												</parameter>
											</effect>
										</filter>
										<filter>
											<enabled>FALSE</enabled>
											<effect>
												<name>Motion Blur</name>
												<effectid>motionblur</effectid>
												<effectcategory>motion</effectcategory>
												<effecttype>motion</effecttype>
												<mediatype>video</mediatype>
												<parameter>
													<parameterid>duration</parameterid>
													<name>% Blur</name>
													<valuemin>0</valuemin>
													<valuemax>1000</valuemax>
													<value>500</value>
												</parameter>
												<parameter>
													<parameterid>samples</parameterid>
													<name>Samples</name>
													<valuemin>1</valuemin>
													<valuemax>16</valuemax>
													<value>4</value>
												</parameter>
											</effect>
										</filter>
										<filter>
											<effect>
												<name>Crop</name>
												<effectid>crop</effectid>
												<effectcategory>motion</effectcategory>
												<effecttype>motion</effecttype>
												<mediatype>video</mediatype>
												<parameter>
													<parameterid>left</parameterid>
													<name>left</name>
													<valuemin>0</valuemin>
													<valuemax>100</valuemax>
													<value>0</value>
												</parameter>
												<parameter>
													<parameterid>right</parameterid>
													<name>right</name>
													<valuemin>0</valuemin>
													<valuemax>100</valuemax>
													<value>0</value>
												</parameter>
												<parameter>
													<parameterid>top</parameterid>
													<name>top</name>
													<valuemin>0</valuemin>
													<valuemax>100</valuemax>
													<value>0</value>
												</parameter>
												<parameter>
													<parameterid>bottom</parameterid>
													<name>bottom</name>
													<valuemin>0</valuemin>
													<valuemax>100</valuemax>
													<value>0</value>
												</parameter>
												<parameter>
													<parameterid>edgefeather</parameterid>
													<name>edgefeather</name>
													<valuemin>0</valuemin>
													<valuemax>100</valuemax>
													<value>0</value>
												</parameter>
											</effect>
										</filter>
										<filter>
											<effect>
												<name>Distort</name>
												<effectid>deformation</effectid>
												<effectcategory>motion</effectcategory>
												<effecttype>motion</effecttype>
												<mediatype>video</mediatype>
												<parameter>
													<parameterid>ulcorner</parameterid>
													<name>Upper Left</name>
													<value>
														<horiz>-0.5</horiz>
														<vert>-0.5</vert>
													</value>
												</parameter>
												<parameter>
													<parameterid>urcorner</parameterid>
													<name>Upper Right</name>
													<value>
														<horiz>0.5</horiz>
														<vert>-0.5</vert>
													</value>
												</parameter>
												<parameter>
													<parameterid>lrcorner</parameterid>
													<name>Lower Right</name>
													<value>
														<horiz>0.5</horiz>
														<vert>0.5</vert>
													</value>
												</parameter>
												<parameter>
													<parameterid>llcorner</parameterid>
													<name>Lower Left</name>
													<value>
														<horiz>-0.5</horiz>
														<vert>0.5</vert>
													</value>
												</parameter>
												<parameter>
													<parameterid>aspect</parameterid>
													<name>Aspect</name>
													<valuemin>-10000</valuemin>
													<valuemax>10000</valuemax>
													<value>0</value>
												</parameter>
											</effect>
										</filter>
										<filter>
											<effect>
												<name>Opacity</name>
												<effectid>opacity</effectid>
												<effectcategory>motion</effectcategory>
												<effecttype>motion</effecttype>
												<mediatype>video</mediatype>
												<parameter>
													<parameterid>opacity</parameterid>
													<name>opacity</name>
													<valuemin>0</valuemin>
													<valuemax>100</valuemax>
													<value>100</value>
												</parameter>
											</effect>
										</filter>
										<sourcetrack>
											<mediatype>video</mediatype>
										</sourcetrack>
										<fielddominance>none</fielddominance>
									</clipitem>
									<enabled>TRUE</enabled>
									<locked>FALSE</locked>
								</track>
							</video>
							<audio>
								<format>
									<samplecharacteristics>
										<depth>24</depth>
										<samplerate>48000</samplerate>
									</samplecharacteristics>
								</format>
								<outputs>
									<group>
										<index>1</index>
										<numchannels>2</numchannels>
										<downmix>0</downmix>
										<channel>
											<index>1</index>
										</channel>
										<channel>
											<index>2</index>
										</channel>
									</group>
								</outputs>
								<in>-1</in>
								<out>-1</out>
								<track>
									<enabled>TRUE</enabled>
									<locked>FALSE</locked>
									<outputchannelindex>1</outputchannelindex>
								</track>
								<track>
									<enabled>TRUE</enabled>
									<locked>FALSE</locked>
									<outputchannelindex>2</outputchannelindex>
								</track>
								<track>
									<enabled>TRUE</enabled>
									<locked>FALSE</locked>
									<outputchannelindex>1</outputchannelindex>
								</track>
								<track>
									<enabled>TRUE</enabled>
									<locked>FALSE</locked>
									<outputchannelindex>2</outputchannelindex>
								</track>
								<track>
									<enabled>TRUE</enabled>
									<locked>FALSE</locked>
									<outputchannelindex>1</outputchannelindex>
								</track>
								<track>
									<enabled>TRUE</enabled>
									<locked>FALSE</locked>
									<outputchannelindex>2</outputchannelindex>
								</track>
								<track>
									<enabled>TRUE</enabled>
									<locked>FALSE</locked>
									<outputchannelindex>1</outputchannelindex>
								</track>
								<track>
									<enabled>TRUE</enabled>
									<locked>FALSE</locked>
									<outputchannelindex>2</outputchannelindex>
								</track>
								<track>
									<enabled>TRUE</enabled>
									<locked>FALSE</locked>
									<outputchannelindex>1</outputchannelindex>
								</track>
								<track>
									<enabled>TRUE</enabled>
									<locked>FALSE</locked>
									<outputchannelindex>2</outputchannelindex>
								</track>
								<track>
									<enabled>TRUE</enabled>
									<locked>FALSE</locked>
									<outputchannelindex>1</outputchannelindex>
								</track>
							</audio>
						</media>
					</sequence>
					<sourcetrack>
						<mediatype>video</mediatype>
					</sourcetrack>
					<ismasterclip>FALSE</ismasterclip>
				</clipitem>
				<transitionitem id="920534692 ">
					<rate>
						<ntsc>FALSE</ntsc>
						<timebase>25</timebase>
					</rate>
					<start>29829</start>
					<end>29835</end>
					<alignment>start-black</alignment>
					<effect>
						<name>Push Slide Copy</name>
						<effectid>Push Slide</effectid>
						<effectcategory>Slide</effectcategory>
						<effecttype>transition</effecttype>
						<mediatype>video</mediatype>
						<wipecode>1</wipecode>
						<wipeaccuracy>100</wipeaccuracy>
						<startratio>0</startratio>
						<endratio>1</endratio>
						<reverse>FALSE</reverse>
						<parameter>
							<parameterid>angleofpush</parameterid>
							<name>Angle</name>
							<valuemin>-360</valuemin>
							<valuemax>360</valuemax>
							<value>0</value>
						</parameter>
						<parameter>
							<parameterid>borderwidth</parameterid>
							<name>Border</name>
							<valuemin>0</valuemin>
							<valuemax>10</valuemax>
							<value>0</value>
						</parameter>
						<parameter>
							<parameterid>bordercolor</parameterid>
							<name>Color</name>
							<value>
								<alpha>255</alpha>
								<red>0</red>
								<green>0</green>
								<blue>0</blue>
							</value>
						</parameter>
					</effect>
				</transitionitem>
				<clipitem id="Grand Prix 1985.png">
					<name>Grand Prix 1985.png</name>
					<duration>3026</duration>
					<rate>
						<ntsc>FALSE</ntsc>
						<timebase>25</timebase>
					</rate>
					<in>1500</in>
					<out>1610</out>
					<start>-1</start>
					<end>29939</end>
					<pixelaspectratio>Square</pixelaspectratio>
					<stillframe>TRUE</stillframe>
					<enabled>TRUE</enabled>
					<anamorphic>FALSE</anamorphic>
					<alphatype>straight</alphatype>
					<masterclipid>Grand Prix 1985.png1</masterclipid>
					<logginginfo>
						<scene/>
						<shottake/>
						<lognote/>
						<good>FALSE</good>
					</logginginfo>
					<labels>
						<label2/>
					</labels>
					<comments>
						<mastercomment1/>
						<mastercomment2/>
						<mastercomment3/>
						<mastercomment4/>
					</comments>
					<file id="Grand Prix 1985 ">
						<name>Grand Prix 1985.png</name>
						<pathurl>file://localhost/SuperSAN1/Prosjekter/MSUB20000012%20FIN%20FREDAG/FCP-PROSJEKTER,%20sesong%202/program%201%20Jenny/Supere/Grand%20Prix%201985.png</pathurl>
						<rate>
							<timebase>25</timebase>
						</rate>
						<duration>2</duration>
						<width>1463</width>
						<height>393</height>
						<media>
							<video>
								<duration>2</duration>
								<stillframe>TRUE</stillframe>
								<samplecharacteristics>
									<width>1463</width>
									<height>393</height>
								</samplecharacteristics>
							</video>
						</media>
					</file>
					<filter>
						<effect>
							<name>Basic Motion</name>
							<effectid>basic</effectid>
							<effectcategory>motion</effectcategory>
							<effecttype>motion</effecttype>
							<mediatype>video</mediatype>
							<parameter>
								<parameterid>scale</parameterid>
								<name>Scale</name>
								<valuemin>0</valuemin>
								<valuemax>1000</valuemax>
								<value>37</value>
							</parameter>
							<parameter>
								<parameterid>rotation</parameterid>
								<name>Rotation</name>
								<valuemin>-8640</valuemin>
								<valuemax>8640</valuemax>
								<value>0</value>
							</parameter>
							<parameter>
								<parameterid>center</parameterid>
								<name>Center</name>
								<value>
									<horiz>-0.331148</horiz>
									<vert>1.08537</vert>
								</value>
							</parameter>
							<parameter>
								<parameterid>centerOffset</parameterid>
								<name>Anchor Point</name>
								<value>
									<horiz>0</horiz>
									<vert>0</vert>
								</value>
							</parameter>
						</effect>
					</filter>
					<filter>
						<enabled>FALSE</enabled>
						<effect>
							<name>Drop Shadow</name>
							<effectid>dropshadow</effectid>
							<effectcategory>motion</effectcategory>
							<effecttype>motion</effecttype>
							<mediatype>video</mediatype>
							<parameter>
								<parameterid>offset</parameterid>
								<name>offset</name>
								<valuemin>-100</valuemin>
								<valuemax>100</valuemax>
								<value>2</value>
							</parameter>
							<parameter>
								<parameterid>angle</parameterid>
								<name>angle</name>
								<valuemin>-720</valuemin>
								<valuemax>720</valuemax>
								<value>135</value>
							</parameter>
							<parameter>
								<parameterid>color</parameterid>
								<name>color</name>
								<value>
									<alpha>0</alpha>
									<red>0</red>
									<green>0</green>
									<blue>0</blue>
								</value>
							</parameter>
							<parameter>
								<parameterid>softness</parameterid>
								<name>softness</name>
								<valuemin>0</valuemin>
								<valuemax>100</valuemax>
								<value>10</value>
							</parameter>
							<parameter>
								<parameterid>opacity</parameterid>
								<name>opacity</name>
								<valuemin>0</valuemin>
								<valuemax>100</valuemax>
								<value>50</value>
							</parameter>
						</effect>
					</filter>
					<filter>
						<enabled>FALSE</enabled>
						<effect>
							<name>Motion Blur</name>
							<effectid>motionblur</effectid>
							<effectcategory>motion</effectcategory>
							<effecttype>motion</effecttype>
							<mediatype>video</mediatype>
							<parameter>
								<parameterid>duration</parameterid>
								<name>% Blur</name>
								<valuemin>0</valuemin>
								<valuemax>1000</valuemax>
								<value>500</value>
							</parameter>
							<parameter>
								<parameterid>samples</parameterid>
								<name>Samples</name>
								<valuemin>1</valuemin>
								<valuemax>16</valuemax>
								<value>4</value>
							</parameter>
						</effect>
					</filter>
					<filter>
						<effect>
							<name>Crop</name>
							<effectid>crop</effectid>
							<effectcategory>motion</effectcategory>
							<effecttype>motion</effecttype>
							<mediatype>video</mediatype>
							<parameter>
								<parameterid>left</parameterid>
								<name>left</name>
								<valuemin>0</valuemin>
								<valuemax>100</valuemax>
								<value>0</value>
							</parameter>
							<parameter>
								<parameterid>right</parameterid>
								<name>right</name>
								<valuemin>0</valuemin>
								<valuemax>100</valuemax>
								<value>0</value>
							</parameter>
							<parameter>
								<parameterid>top</parameterid>
								<name>top</name>
								<valuemin>0</valuemin>
								<valuemax>100</valuemax>
								<value>0</value>
							</parameter>
							<parameter>
								<parameterid>bottom</parameterid>
								<name>bottom</name>
								<valuemin>0</valuemin>
								<valuemax>100</valuemax>
								<value>0</value>
							</parameter>
							<parameter>
								<parameterid>edgefeather</parameterid>
								<name>edgefeather</name>
								<valuemin>0</valuemin>
								<valuemax>100</valuemax>
								<value>0</value>
							</parameter>
						</effect>
					</filter>
					<filter>
						<effect>
							<name>Distort</name>
							<effectid>deformation</effectid>
							<effectcategory>motion</effectcategory>
							<effecttype>motion</effecttype>
							<mediatype>video</mediatype>
							<parameter>
								<parameterid>ulcorner</parameterid>
								<name>Upper Left</name>
								<value>
									<horiz>-0.5</horiz>
									<vert>-0.5</vert>
								</value>
							</parameter>
							<parameter>
								<parameterid>urcorner</parameterid>
								<name>Upper Right</name>
								<value>
									<horiz>0.5</horiz>
									<vert>-0.5</vert>
								</value>
							</parameter>
							<parameter>
								<parameterid>lrcorner</parameterid>
								<name>Lower Right</name>
								<value>
									<horiz>0.5</horiz>
									<vert>0.5</vert>
								</value>
							</parameter>
							<parameter>
								<parameterid>llcorner</parameterid>
								<name>Lower Left</name>
								<value>
									<horiz>-0.5</horiz>
									<vert>0.5</vert>
								</value>
							</parameter>
							<parameter>
								<parameterid>aspect</parameterid>
								<name>Aspect</name>
								<valuemin>-10000</valuemin>
								<valuemax>10000</valuemax>
								<value>0</value>
							</parameter>
						</effect>
					</filter>
					<filter>
						<effect>
							<name>Opacity</name>
							<effectid>opacity</effectid>
							<effectcategory>motion</effectcategory>
							<effecttype>motion</effecttype>
							<mediatype>video</mediatype>
							<parameter>
								<parameterid>opacity</parameterid>
								<name>opacity</name>
								<valuemin>0</valuemin>
								<valuemax>100</valuemax>
								<value>100</value>
							</parameter>
						</effect>
					</filter>
					<sourcetrack>
						<mediatype>video</mediatype>
					</sourcetrack>
					<fielddominance>none</fielddominance>
				</clipitem>
				<clipitem id="Jenny-Skavland-cuyout-70.png2">
					<name>Jenny-Skavland-cuyout-70.png</name>
					<duration>3026</duration>
					<rate>
						<ntsc>FALSE</ntsc>
						<timebase>25</timebase>
					</rate>
					<in>1582</in>
					<out>1591</out>
					<start>31945</start>
					<end>31954</end>
					<pixelaspectratio>Square</pixelaspectratio>
					<stillframe>TRUE</stillframe>
					<enabled>TRUE</enabled>
					<anamorphic>FALSE</anamorphic>
					<alphatype>straight</alphatype>
					<masterclipid>Jenny-Skavland-cuyout-70.png1</masterclipid>
					<logginginfo>
						<scene/>
						<shottake/>
						<lognote/>
						<good>FALSE</good>
					</logginginfo>
					<labels>
						<label2/>
					</labels>
					<comments>
						<mastercomment1/>
						<mastercomment2/>
						<mastercomment3/>
						<mastercomment4/>
					</comments>
					<file id="Jenny-Skavland-cuyout-70 "/>
					<filter>
						<enabled>TRUE</enabled>
						<start>-1</start>
						<end>-1</end>
						<effect>
							<name>Colorize</name>
							<effecttype>filter</effecttype>
							<mediatype>video</mediatype>
							<parameter>
								<parameterid>input_1</parameterid>
								<name>Remap Black To</name>
								<value>
									<alpha>255</alpha>
									<red>23</red>
									<green>0</green>
									<blue>0</blue>
								</value>
							</parameter>
							<parameter>
								<parameterid>input_2</parameterid>
								<name>Remap White To</name>
								<value>
									<alpha>255</alpha>
									<red>0</red>
									<green>0</green>
									<blue>0</blue>
								</value>
							</parameter>
							<parameter>
								<parameterid>input_3</parameterid>
								<name>Intensity</name>
								<valuemin>0</valuemin>
								<valuemax>1</valuemax>
								<value>1</value>
							</parameter>
							<parameter>
								<parameterid>FCP_FilterMix</parameterid>
								<name>Mix</name>
								<valuemin>0</valuemin>
								<valuemax>100</valuemax>
								<value>100</value>
							</parameter>
						</effect>
					</filter>
					<filter>
						<effect>
							<name>Basic Motion</name>
							<effectid>basic</effectid>
							<effectcategory>motion</effectcategory>
							<effecttype>motion</effecttype>
							<mediatype>video</mediatype>
							<parameter>
								<parameterid>scale</parameterid>
								<name>Scale</name>
								<valuemin>0</valuemin>
								<valuemax>1000</valuemax>
								<value>39</value>
							</parameter>
							<parameter>
								<parameterid>center</parameterid>
								<name>Center</name>
								<value>
									<horiz>-0.0136058</horiz>
									<vert>-0.00226756</vert>
								</value>
							</parameter>
							<parameter>
								<parameterid>rotation</parameterid>
								<name>Rotation</name>
								<valuemin>-8640</valuemin>
								<valuemax>8640</valuemax>
								<value>0</value>
							</parameter>
							<parameter>
								<parameterid>centerOffset</parameterid>
								<name>Anchor Point</name>
								<value>
									<horiz>0</horiz>
									<vert>0</vert>
								</value>
							</parameter>
						</effect>
					</filter>
					<filter>
						<enabled>FALSE</enabled>
						<effect>
							<name>Drop Shadow</name>
							<effectid>dropshadow</effectid>
							<effectcategory>motion</effectcategory>
							<effecttype>motion</effecttype>
							<mediatype>video</mediatype>
							<parameter>
								<parameterid>offset</parameterid>
								<name>offset</name>
								<valuemin>-100</valuemin>
								<valuemax>100</valuemax>
								<value>2</value>
							</parameter>
							<parameter>
								<parameterid>angle</parameterid>
								<name>angle</name>
								<valuemin>-720</valuemin>
								<valuemax>720</valuemax>
								<value>135</value>
							</parameter>
							<parameter>
								<parameterid>color</parameterid>
								<name>color</name>
								<value>
									<alpha>0</alpha>
									<red>0</red>
									<green>0</green>
									<blue>0</blue>
								</value>
							</parameter>
							<parameter>
								<parameterid>softness</parameterid>
								<name>softness</name>
								<valuemin>0</valuemin>
								<valuemax>100</valuemax>
								<value>10</value>
							</parameter>
							<parameter>
								<parameterid>opacity</parameterid>
								<name>opacity</name>
								<valuemin>0</valuemin>
								<valuemax>100</valuemax>
								<value>50</value>
							</parameter>
						</effect>
					</filter>
					<filter>
						<enabled>FALSE</enabled>
						<effect>
							<name>Motion Blur</name>
							<effectid>motionblur</effectid>
							<effectcategory>motion</effectcategory>
							<effecttype>motion</effecttype>
							<mediatype>video</mediatype>
							<parameter>
								<parameterid>duration</parameterid>
								<name>% Blur</name>
								<valuemin>0</valuemin>
								<valuemax>1000</valuemax>
								<value>500</value>
							</parameter>
							<parameter>
								<parameterid>samples</parameterid>
								<name>Samples</name>
								<valuemin>1</valuemin>
								<valuemax>16</valuemax>
								<value>4</value>
							</parameter>
						</effect>
					</filter>
					<filter>
						<effect>
							<name>Crop</name>
							<effectid>crop</effectid>
							<effectcategory>motion</effectcategory>
							<effecttype>motion</effecttype>
							<mediatype>video</mediatype>
							<parameter>
								<parameterid>left</parameterid>
								<name>left</name>
								<valuemin>0</valuemin>
								<valuemax>100</valuemax>
								<value>0</value>
							</parameter>
							<parameter>
								<parameterid>right</parameterid>
								<name>right</name>
								<valuemin>0</valuemin>
								<valuemax>100</valuemax>
								<value>0</value>
							</parameter>
							<parameter>
								<parameterid>top</parameterid>
								<name>top</name>
								<valuemin>0</valuemin>
								<valuemax>100</valuemax>
								<value>0</value>
							</parameter>
							<parameter>
								<parameterid>bottom</parameterid>
								<name>bottom</name>
								<valuemin>0</valuemin>
								<valuemax>100</valuemax>
								<value>0</value>
							</parameter>
							<parameter>
								<parameterid>edgefeather</parameterid>
								<name>edgefeather</name>
								<valuemin>0</valuemin>
								<valuemax>100</valuemax>
								<value>0</value>
							</parameter>
						</effect>
					</filter>
					<filter>
						<effect>
							<name>Distort</name>
							<effectid>deformation</effectid>
							<effectcategory>motion</effectcategory>
							<effecttype>motion</effecttype>
							<mediatype>video</mediatype>
							<parameter>
								<parameterid>ulcorner</parameterid>
								<name>Upper Left</name>
								<value>
									<horiz>-0.5</horiz>
									<vert>-0.5</vert>
								</value>
							</parameter>
							<parameter>
								<parameterid>urcorner</parameterid>
								<name>Upper Right</name>
								<value>
									<horiz>0.5</horiz>
									<vert>-0.5</vert>
								</value>
							</parameter>
							<parameter>
								<parameterid>lrcorner</parameterid>
								<name>Lower Right</name>
								<value>
									<horiz>0.5</horiz>
									<vert>0.5</vert>
								</value>
							</parameter>
							<parameter>
								<parameterid>llcorner</parameterid>
								<name>Lower Left</name>
								<value>
									<horiz>-0.5</horiz>
									<vert>0.5</vert>
								</value>
							</parameter>
							<parameter>
								<parameterid>aspect</parameterid>
								<name>Aspect</name>
								<valuemin>-10000</valuemin>
								<valuemax>10000</valuemax>
								<value>0</value>
							</parameter>
						</effect>
					</filter>
					<filter>
						<effect>
							<name>Opacity</name>
							<effectid>opacity</effectid>
							<effectcategory>motion</effectcategory>
							<effecttype>motion</effecttype>
							<mediatype>video</mediatype>
							<parameter>
								<parameterid>opacity</parameterid>
								<name>opacity</name>
								<valuemin>0</valuemin>
								<valuemax>100</valuemax>
								<value>100</value>
							</parameter>
						</effect>
					</filter>
					<sourcetrack>
						<mediatype>video</mediatype>
					</sourcetrack>
					<fielddominance>none</fielddominance>
				</clipitem>
				<clipitem id="Jenny-Skavland-cuyout-70.png3">
					<name>Jenny-Skavland-cuyout-70.png</name>
					<duration>3026</duration>
					<rate>
						<ntsc>FALSE</ntsc>
						<timebase>25</timebase>
					</rate>
					<in>1591</in>
					<out>1613</out>
					<start>31954</start>
					<end>-1</end>
					<pixelaspectratio>Square</pixelaspectratio>
					<stillframe>TRUE</stillframe>
					<enabled>TRUE</enabled>
					<anamorphic>FALSE</anamorphic>
					<alphatype>straight</alphatype>
					<masterclipid>Jenny-Skavland-cuyout-70.png1</masterclipid>
					<logginginfo>
						<scene/>
						<shottake/>
						<lognote/>
						<good>FALSE</good>
					</logginginfo>
					<labels>
						<label2/>
					</labels>
					<comments>
						<mastercomment1/>
						<mastercomment2/>
						<mastercomment3/>
						<mastercomment4/>
					</comments>
					<file id="Jenny-Skavland-cuyout-70 "/>
					<filter>
						<enabled>TRUE</enabled>
						<start>-1</start>
						<end>-1</end>
						<effect>
							<name>Colorize</name>
							<effecttype>filter</effecttype>
							<mediatype>video</mediatype>
							<parameter>
								<parameterid>input_1</parameterid>
								<name>Remap Black To</name>
								<value>
									<alpha>255</alpha>
									<red>23</red>
									<green>0</green>
									<blue>0</blue>
								</value>
							</parameter>
							<parameter>
								<parameterid>input_2</parameterid>
								<name>Remap White To</name>
								<value>
									<alpha>255</alpha>
									<red>0</red>
									<green>0</green>
									<blue>0</blue>
								</value>
							</parameter>
							<parameter>
								<parameterid>input_3</parameterid>
								<name>Intensity</name>
								<valuemin>0</valuemin>
								<valuemax>1</valuemax>
								<value>1</value>
							</parameter>
							<parameter>
								<parameterid>FCP_FilterMix</parameterid>
								<name>Mix</name>
								<valuemin>0</valuemin>
								<valuemax>100</valuemax>
								<value>100</value>
							</parameter>
						</effect>
					</filter>
					<filter>
						<enabled>TRUE</enabled>
						<start>-1</start>
						<end>-1</end>
						<effect>
							<name>G Earthquaker</name>
							<effectcategory>Nattress Big Box of Tricks - Extra Touches</effectcategory>
							<effecttype>filter</effecttype>
							<mediatype>video</mediatype>
							<parameter>
								<parameterid>mode</parameterid>
								<name>Mode</name>
								<valuemin>1</valuemin>
								<valuemax>2</valuemax>
								<valuelist>
									<valueentry>
										<name>Shake</name>
										<value>1</value>
									</valueentry>
									<valueentry>
										<name>Quake</name>
										<value>2</value>
									</valueentry>
								</valuelist>
								<value>2</value>
							</parameter>
							<parameter>
								<parameterid>amount</parameterid>
								<name>Amount</name>
								<valuemin>0</valuemin>
								<valuemax>100</valuemax>
								<keyframe>
									<when>1586.62</when>
									<value>0</value>
								</keyframe>
								<keyframe>
									<when>1605.64</when>
									<value>100</value>
									<inscale>0</inscale>
									<inbez>
										<horiz>2.5</horiz>
										<vert>-3.14159</vert>
									</inbez>
								</keyframe>
								<interpolation>
									<name>FCPCurve</name>
								</interpolation>
								<value>100</value>
							</parameter>
							<parameter>
								<parameterid>strength</parameterid>
								<name>Strength</name>
								<valuemin>1</valuemin>
								<valuemax>10</valuemax>
								<value>5</value>
							</parameter>
							<parameter>
								<parameterid>mass</parameterid>
								<name>Mass</name>
								<valuemin>0.5</valuemin>
								<valuemax>10</valuemax>
								<value>1</value>
							</parameter>
							<parameter>
								<parameterid>k</parameterid>
								<name>Spring</name>
								<valuemin>0</valuemin>
								<valuemax>1</valuemax>
								<value>0.3</value>
							</parameter>
							<parameter>
								<parameterid>l</parameterid>
								<name>Length</name>
								<valuemin>0</valuemin>
								<valuemax>10</valuemax>
								<value>0</value>
							</parameter>
							<parameter>
								<parameterid>friction</parameterid>
								<name>Friction</name>
								<valuemin>0</valuemin>
								<valuemax>1</valuemax>
								<value>0.73</value>
							</parameter>
							<parameter>
								<parameterid>diagnostic</parameterid>
								<name>Show Diagnostics</name>
								<value>FALSE</value>
							</parameter>
							<parameter>
								<parameterid>copyright</parameterid>
								<name>Â© www.nattress.com</name>
								<value>string</value>
							</parameter>
						</effect>
					</filter>
					<filter>
						<effect>
							<name>Basic Motion</name>
							<effectid>basic</effectid>
							<effectcategory>motion</effectcategory>
							<effecttype>motion</effecttype>
							<mediatype>video</mediatype>
							<parameter>
								<parameterid>scale</parameterid>
								<name>Scale</name>
								<valuemin>0</valuemin>
								<valuemax>1000</valuemax>
								<value>39</value>
							</parameter>
							<parameter>
								<parameterid>center</parameterid>
								<name>Center</name>
								<value>
									<horiz>-0.0136058</horiz>
									<vert>-0.00226756</vert>
								</value>
							</parameter>
							<parameter>
								<parameterid>rotation</parameterid>
								<name>Rotation</name>
								<valuemin>-8640</valuemin>
								<valuemax>8640</valuemax>
								<value>0</value>
							</parameter>
							<parameter>
								<parameterid>centerOffset</parameterid>
								<name>Anchor Point</name>
								<value>
									<horiz>0</horiz>
									<vert>0</vert>
								</value>
							</parameter>
						</effect>
					</filter>
					<filter>
						<enabled>FALSE</enabled>
						<effect>
							<name>Drop Shadow</name>
							<effectid>dropshadow</effectid>
							<effectcategory>motion</effectcategory>
							<effecttype>motion</effecttype>
							<mediatype>video</mediatype>
							<parameter>
								<parameterid>offset</parameterid>
								<name>offset</name>
								<valuemin>-100</valuemin>
								<valuemax>100</valuemax>
								<value>2</value>
							</parameter>
							<parameter>
								<parameterid>angle</parameterid>
								<name>angle</name>
								<valuemin>-720</valuemin>
								<valuemax>720</valuemax>
								<value>135</value>
							</parameter>
							<parameter>
								<parameterid>color</parameterid>
								<name>color</name>
								<value>
									<alpha>0</alpha>
									<red>0</red>
									<green>0</green>
									<blue>0</blue>
								</value>
							</parameter>
							<parameter>
								<parameterid>softness</parameterid>
								<name>softness</name>
								<valuemin>0</valuemin>
								<valuemax>100</valuemax>
								<value>10</value>
							</parameter>
							<parameter>
								<parameterid>opacity</parameterid>
								<name>opacity</name>
								<valuemin>0</valuemin>
								<valuemax>100</valuemax>
								<value>50</value>
							</parameter>
						</effect>
					</filter>
					<filter>
						<enabled>FALSE</enabled>
						<effect>
							<name>Motion Blur</name>
							<effectid>motionblur</effectid>
							<effectcategory>motion</effectcategory>
							<effecttype>motion</effecttype>
							<mediatype>video</mediatype>
							<parameter>
								<parameterid>duration</parameterid>
								<name>% Blur</name>
								<valuemin>0</valuemin>
								<valuemax>1000</valuemax>
								<value>500</value>
							</parameter>
							<parameter>
								<parameterid>samples</parameterid>
								<name>Samples</name>
								<valuemin>1</valuemin>
								<valuemax>16</valuemax>
								<value>4</value>
							</parameter>
						</effect>
					</filter>
					<filter>
						<effect>
							<name>Crop</name>
							<effectid>crop</effectid>
							<effectcategory>motion</effectcategory>
							<effecttype>motion</effecttype>
							<mediatype>video</mediatype>
							<parameter>
								<parameterid>left</parameterid>
								<name>left</name>
								<valuemin>0</valuemin>
								<valuemax>100</valuemax>
								<value>0</value>
							</parameter>
							<parameter>
								<parameterid>right</parameterid>
								<name>right</name>
								<valuemin>0</valuemin>
								<valuemax>100</valuemax>
								<value>0</value>
							</parameter>
							<parameter>
								<parameterid>top</parameterid>
								<name>top</name>
								<valuemin>0</valuemin>
								<valuemax>100</valuemax>
								<value>0</value>
							</parameter>
							<parameter>
								<parameterid>bottom</parameterid>
								<name>bottom</name>
								<valuemin>0</valuemin>
								<valuemax>100</valuemax>
								<value>0</value>
							</parameter>
							<parameter>
								<parameterid>edgefeather</parameterid>
								<name>edgefeather</name>
								<valuemin>0</valuemin>
								<valuemax>100</valuemax>
								<value>0</value>
							</parameter>
						</effect>
					</filter>
					<filter>
						<effect>
							<name>Distort</name>
							<effectid>deformation</effectid>
							<effectcategory>motion</effectcategory>
							<effecttype>motion</effecttype>
							<mediatype>video</mediatype>
							<parameter>
								<parameterid>ulcorner</parameterid>
								<name>Upper Left</name>
								<value>
									<horiz>-0.5</horiz>
									<vert>-0.5</vert>
								</value>
							</parameter>
							<parameter>
								<parameterid>urcorner</parameterid>
								<name>Upper Right</name>
								<value>
									<horiz>0.5</horiz>
									<vert>-0.5</vert>
								</value>
							</parameter>
							<parameter>
								<parameterid>lrcorner</parameterid>
								<name>Lower Right</name>
								<value>
									<horiz>0.5</horiz>
									<vert>0.5</vert>
								</value>
							</parameter>
							<parameter>
								<parameterid>llcorner</parameterid>
								<name>Lower Left</name>
								<value>
									<horiz>-0.5</horiz>
									<vert>0.5</vert>
								</value>
							</parameter>
							<parameter>
								<parameterid>aspect</parameterid>
								<name>Aspect</name>
								<valuemin>-10000</valuemin>
								<valuemax>10000</valuemax>
								<value>0</value>
							</parameter>
						</effect>
					</filter>
					<filter>
						<effect>
							<name>Opacity</name>
							<effectid>opacity</effectid>
							<effectcategory>motion</effectcategory>
							<effecttype>motion</effecttype>
							<mediatype>video</mediatype>
							<parameter>
								<parameterid>opacity</parameterid>
								<name>opacity</name>
								<valuemin>0</valuemin>
								<valuemax>100</valuemax>
								<value>100</value>
							</parameter>
						</effect>
					</filter>
					<sourcetrack>
						<mediatype>video</mediatype>
					</sourcetrack>
					<fielddominance>none</fielddominance>
				</clipitem>
				<transitionitem id="18">
					<rate>
						<ntsc>FALSE</ntsc>
						<timebase>25</timebase>
					</rate>
					<start>31970</start>
					<end>31976</end>
					<alignment>center</alignment>
					<effect>
						<name>Flashframe</name>
						<effectid>Flashframe</effectid>
						<effectcategory>Too Much Too Soon</effectcategory>
						<effecttype>transition</effecttype>
						<mediatype>video</mediatype>
						<startratio>0</startratio>
						<endratio>1</endratio>
						<reverse>FALSE</reverse>
						<parameter>
							<parameterid>bl</parameterid>
							<name>Blur Amount</name>
							<valuemin>0</valuemin>
							<valuemax>100</valuemax>
							<value>50</value>
						</parameter>
						<parameter>
							<parameterid>bt</parameterid>
							<name>Blur Type</name>
							<valuemin>1</valuemin>
							<valuemax>4</valuemax>
							<valuelist>
								<valueentry>
									<name>Post blur</name>
									<value>1</value>
								</valueentry>
								<valueentry>
									<name>Pre Blur</name>
									<value>2</value>
								</valueentry>
								<valueentry>
									<name>Both Blurs</name>
									<value>3</value>
								</valueentry>
								<valueentry>
									<name>No Blur</name>
									<value>4</value>
								</valueentry>
							</valuelist>
							<value>3</value>
						</parameter>
						<parameter>
							<parameterid>ml</parameterid>
							<name>Max Luma</name>
							<valuemin>0</valuemin>
							<valuemax>120</valuemax>
							<value>100</value>
						</parameter>
					</effect>
				</transitionitem>
				<clipitem id="Jenny-Skavland-cuyout-70.png4">
					<name>Jenny-Skavland-cuyout-70.png</name>
					<duration>3026</duration>
					<rate>
						<ntsc>FALSE</ntsc>
						<timebase>25</timebase>
					</rate>
					<in>1498</in>
					<out>1545</out>
					<start>-1</start>
					<end>32017</end>
					<pixelaspectratio>Square</pixelaspectratio>
					<stillframe>TRUE</stillframe>
					<enabled>TRUE</enabled>
					<anamorphic>FALSE</anamorphic>
					<alphatype>straight</alphatype>
					<masterclipid>Jenny-Skavland-cuyout-70.png1</masterclipid>
					<logginginfo>
						<scene/>
						<shottake/>
						<lognote/>
						<good>FALSE</good>
					</logginginfo>
					<labels>
						<label2/>
					</labels>
					<comments>
						<mastercomment1/>
						<mastercomment2/>
						<mastercomment3/>
						<mastercomment4/>
					</comments>
					<file id="Jenny-Skavland-cuyout-70 "/>
					<filter>
						<effect>
							<name>Basic Motion</name>
							<effectid>basic</effectid>
							<effectcategory>motion</effectcategory>
							<effecttype>motion</effecttype>
							<mediatype>video</mediatype>
							<parameter>
								<parameterid>scale</parameterid>
								<name>Scale</name>
								<valuemin>0</valuemin>
								<valuemax>1000</valuemax>
								<keyframe>
									<when>1499</when>
									<value>36.1204</value>
								</keyframe>
								<keyframe>
									<when>1503</when>
									<value>36.1204</value>
									<inscale>0</inscale>
									<inbez>
										<horiz>1.25</horiz>
										<vert>-3.14159</vert>
									</inbez>
									<outscale>0</outscale>
									<outbez>
										<horiz>15.25</horiz>
										<vert>0</vert>
									</outbez>
								</keyframe>
								<keyframe>
									<when>1565</when>
									<value>39</value>
									<inscale>0</inscale>
									<inbez>
										<horiz>12.5</horiz>
										<vert>-3.14159</vert>
									</inbez>
								</keyframe>
								<interpolation>
									<name>FCPCurve</name>
								</interpolation>
								<value>39</value>
							</parameter>
							<parameter>
								<parameterid>center</parameterid>
								<name>Center</name>
								<value>
									<horiz>-0.0136054</horiz>
									<vert>-0.00226757</vert>
								</value>
							</parameter>
							<parameter>
								<parameterid>rotation</parameterid>
								<name>Rotation</name>
								<valuemin>-8640</valuemin>
								<valuemax>8640</valuemax>
								<value>0</value>
							</parameter>
							<parameter>
								<parameterid>centerOffset</parameterid>
								<name>Anchor Point</name>
								<value>
									<horiz>0</horiz>
									<vert>0</vert>
								</value>
							</parameter>
						</effect>
					</filter>
					<filter>
						<enabled>FALSE</enabled>
						<effect>
							<name>Drop Shadow</name>
							<effectid>dropshadow</effectid>
							<effectcategory>motion</effectcategory>
							<effecttype>motion</effecttype>
							<mediatype>video</mediatype>
							<parameter>
								<parameterid>offset</parameterid>
								<name>offset</name>
								<valuemin>-100</valuemin>
								<valuemax>100</valuemax>
								<value>2</value>
							</parameter>
							<parameter>
								<parameterid>angle</parameterid>
								<name>angle</name>
								<valuemin>-720</valuemin>
								<valuemax>720</valuemax>
								<value>135</value>
							</parameter>
							<parameter>
								<parameterid>color</parameterid>
								<name>color</name>
								<value>
									<alpha>0</alpha>
									<red>0</red>
									<green>0</green>
									<blue>0</blue>
								</value>
							</parameter>
							<parameter>
								<parameterid>softness</parameterid>
								<name>softness</name>
								<valuemin>0</valuemin>
								<valuemax>100</valuemax>
								<value>10</value>
							</parameter>
							<parameter>
								<parameterid>opacity</parameterid>
								<name>opacity</name>
								<valuemin>0</valuemin>
								<valuemax>100</valuemax>
								<value>50</value>
							</parameter>
						</effect>
					</filter>
					<filter>
						<enabled>FALSE</enabled>
						<effect>
							<name>Motion Blur</name>
							<effectid>motionblur</effectid>
							<effectcategory>motion</effectcategory>
							<effecttype>motion</effecttype>
							<mediatype>video</mediatype>
							<parameter>
								<parameterid>duration</parameterid>
								<name>% Blur</name>
								<valuemin>0</valuemin>
								<valuemax>1000</valuemax>
								<value>500</value>
							</parameter>
							<parameter>
								<parameterid>samples</parameterid>
								<name>Samples</name>
								<valuemin>1</valuemin>
								<valuemax>16</valuemax>
								<value>4</value>
							</parameter>
						</effect>
					</filter>
					<filter>
						<effect>
							<name>Crop</name>
							<effectid>crop</effectid>
							<effectcategory>motion</effectcategory>
							<effecttype>motion</effecttype>
							<mediatype>video</mediatype>
							<parameter>
								<parameterid>left</parameterid>
								<name>left</name>
								<valuemin>0</valuemin>
								<valuemax>100</valuemax>
								<value>0</value>
							</parameter>
							<parameter>
								<parameterid>right</parameterid>
								<name>right</name>
								<valuemin>0</valuemin>
								<valuemax>100</valuemax>
								<value>0</value>
							</parameter>
							<parameter>
								<parameterid>top</parameterid>
								<name>top</name>
								<valuemin>0</valuemin>
								<valuemax>100</valuemax>
								<value>0</value>
							</parameter>
							<parameter>
								<parameterid>bottom</parameterid>
								<name>bottom</name>
								<valuemin>0</valuemin>
								<valuemax>100</valuemax>
								<value>0</value>
							</parameter>
							<parameter>
								<parameterid>edgefeather</parameterid>
								<name>edgefeather</name>
								<valuemin>0</valuemin>
								<valuemax>100</valuemax>
								<value>0</value>
							</parameter>
						</effect>
					</filter>
					<filter>
						<effect>
							<name>Distort</name>
							<effectid>deformation</effectid>
							<effectcategory>motion</effectcategory>
							<effecttype>motion</effecttype>
							<mediatype>video</mediatype>
							<parameter>
								<parameterid>ulcorner</parameterid>
								<name>Upper Left</name>
								<value>
									<horiz>-0.5</horiz>
									<vert>-0.5</vert>
								</value>
							</parameter>
							<parameter>
								<parameterid>urcorner</parameterid>
								<name>Upper Right</name>
								<value>
									<horiz>0.5</horiz>
									<vert>-0.5</vert>
								</value>
							</parameter>
							<parameter>
								<parameterid>lrcorner</parameterid>
								<name>Lower Right</name>
								<value>
									<horiz>0.5</horiz>
									<vert>0.5</vert>
								</value>
							</parameter>
							<parameter>
								<parameterid>llcorner</parameterid>
								<name>Lower Left</name>
								<value>
									<horiz>-0.5</horiz>
									<vert>0.5</vert>
								</value>
							</parameter>
							<parameter>
								<parameterid>aspect</parameterid>
								<name>Aspect</name>
								<valuemin>-10000</valuemin>
								<valuemax>10000</valuemax>
								<value>0</value>
							</parameter>
						</effect>
					</filter>
					<filter>
						<effect>
							<name>Opacity</name>
							<effectid>opacity</effectid>
							<effectcategory>motion</effectcategory>
							<effecttype>motion</effecttype>
							<mediatype>video</mediatype>
							<parameter>
								<parameterid>opacity</parameterid>
								<name>opacity</name>
								<valuemin>0</valuemin>
								<valuemax>100</valuemax>
								<value>100</value>
							</parameter>
						</effect>
					</filter>
					<sourcetrack>
						<mediatype>video</mediatype>
					</sourcetrack>
					<fielddominance>none</fielddominance>
				</clipitem>
				<clipitem id="Vignett test kvsR 00:00:41:11 ">
					<name>Vignett test kvsR 00:00:41:11</name>
					<duration>3000</duration>
					<rate>
						<ntsc>FALSE</ntsc>
						<timebase>25</timebase>
					</rate>
					<in>1488</in>
					<out>1508</out>
					<start>32741</start>
					<end>32761</end>
					<labels>
						<label>Best Take</label>
						<label2/>
					</labels>
					<comments>
						<mastercomment1/>
						<mastercomment2/>
						<mastercomment3/>
						<mastercomment4/>
					</comments>
					<logginginfo>
						<scene/>
						<shottake/>
						<lognote/>
						<good>FALSE</good>
					</logginginfo>
					<filter>
						<start>-1</start>
						<end>-1</end>
						<effect>
							<name>De-interlace</name>
							<effectid>De-interlace</effectid>
							<effectcategory>Video</effectcategory>
							<effecttype>filter</effecttype>
							<mediatype>video</mediatype>
							<parameter>
								<parameterid>field</parameterid>
								<name>Field</name>
								<valuemin>1</valuemin>
								<valuemax>5</valuemax>
								<valuelist>
									<valueentry>
										<name>Upper (Odd)</name>
										<value>1</value>
									</valueentry>
									<valueentry>
										<name>Lower (Even)</name>
										<value>2</value>
									</valueentry>
									<valueentry>
										<name>Flicker Filter (minimal)</name>
										<value>3</value>
									</valueentry>
									<valueentry>
										<name>Flicker Filter (medium)</name>
										<value>4</value>
									</valueentry>
									<valueentry>
										<name>Flicker Filter (max)</name>
										<value>5</value>
									</valueentry>
								</valuelist>
								<value>1</value>
							</parameter>
						</effect>
					</filter>
					<sequence id="Vignett test kvsR 00:00:41:11 1">
						<name>Vignett test kvsR 00:00:41:11</name>
						<duration>3000</duration>
						<rate>
							<ntsc>FALSE</ntsc>
							<timebase>25</timebase>
						</rate>
						<in>0</in>
						<out>3000</out>
						<media>
							<video>
								<format>
									<samplecharacteristics>
										<width>1920</width>
										<height>1080</height>
										<anamorphic>FALSE</anamorphic>
										<pixelaspectratio>Square</pixelaspectratio>
										<fielddominance>upper</fielddominance>
										<rate>
											<ntsc>FALSE</ntsc>
											<timebase>25</timebase>
										</rate>
										<colordepth>24</colordepth>
										<codec>
											<name>Apple XDCAM 422 1080i50 (50 Mb/s CBR)</name>
											<appspecificdata>
												<appname>Final Cut Pro</appname>
												<appmanufacturer>Apple Inc.</appmanufacturer>
												<appversion>7.0</appversion>
												<data>
													<qtcodec>
														<codecname>Apple XDCAM 422 1080i50 (50 Mb/s CBR)</codecname>
														<codectypename>XDCAM 422 1080i50 (50 Mb/s CBR)</codectypename>
														<codectypecode>xd5c</codectypecode>
														<codecvendorcode>appl</codecvendorcode>
														<spatialquality>1023</spatialquality>
														<temporalquality>0</temporalquality>
														<keyframerate>0</keyframerate>
														<datarate>0</datarate>
													</qtcodec>
												</data>
											</appspecificdata>
										</codec>
									</samplecharacteristics>
									<appspecificdata>
										<appname>Final Cut Pro</appname>
										<appmanufacturer>Apple Inc.</appmanufacturer>
										<appversion>7.0</appversion>
										<data>
											<fcpimageprocessing>
												<useyuv>TRUE</useyuv>
												<usesuperwhite>FALSE</usesuperwhite>
												<rendermode>YUV8BPP</rendermode>
											</fcpimageprocessing>
										</data>
									</appspecificdata>
								</format>
								<track>
									<clipitem id="Vignett test kvsR 00:00:41:11 2">
										<name>Vignett test kvsR 00:00:41:11</name>
										<duration>3000</duration>
										<rate>
											<ntsc>FALSE</ntsc>
											<timebase>25</timebase>
										</rate>
										<in>0</in>
										<out>3000</out>
										<start>0</start>
										<end>3000</end>
										<stillframeoffset>1199</stillframeoffset>
										<pixelaspectratio>Square</pixelaspectratio>
										<anamorphic>FALSE</anamorphic>
										<alphatype>none</alphatype>
										<alphareverse>FALSE</alphareverse>
										<syncoffset>0</syncoffset>
										<logginginfo>
											<description>msub200012-3011-k1d3-002</description>
											<scene/>
											<shottake/>
											<lognote/>
											<good>FALSE</good>
										</logginginfo>
										<labels>
											<label>Good Take</label>
											<label2/>
										</labels>
										<comments>
											<mastercomment1>RÃ…STOFF. BR_FINFREDAG_MSUA_OPRO</mastercomment1>
											<mastercomment2/>
											<mastercomment3/>
											<mastercomment4/>
											<clipcommenta/>
										</comments>
										<file id="msub200012-3011-k1d3-002 2"/>
										<sourcetrack>
											<mediatype>video</mediatype>
										</sourcetrack>
										<fielddominance>upper</fielddominance>
									</clipitem>
									<enabled>TRUE</enabled>
									<locked>FALSE</locked>
								</track>
								<track>
									<clipitem id="Vignett test kvsR 00:00:41:11 3">
										<name>Vignett test kvsR 00:00:41:11</name>
										<duration>3000</duration>
										<rate>
											<ntsc>FALSE</ntsc>
											<timebase>25</timebase>
										</rate>
										<in>0</in>
										<out>3000</out>
										<start>0</start>
										<end>3000</end>
										<stillframeoffset>1373</stillframeoffset>
										<pixelaspectratio>Square</pixelaspectratio>
										<enabled>TRUE</enabled>
										<anamorphic>FALSE</anamorphic>
										<alphatype>none</alphatype>
										<alphareverse>FALSE</alphareverse>
										<logginginfo>
											<description>msub200012-3011-k2d3-005</description>
											<scene/>
											<shottake/>
											<lognote/>
											<good>FALSE</good>
										</logginginfo>
										<labels>
											<label>Good Take</label>
											<label2/>
										</labels>
										<comments>
											<mastercomment1>RÃ…STOFF. BR_FINFREDAG_MSUA_OPRO</mastercomment1>
											<mastercomment2/>
											<mastercomment3/>
											<mastercomment4/>
											<clipcommenta/>
										</comments>
										<file id="msub200012-3011-k2d3-005 2"/>
										<sourcetrack>
											<mediatype>video</mediatype>
										</sourcetrack>
										<fielddominance>upper</fielddominance>
									</clipitem>
									<enabled>TRUE</enabled>
									<locked>FALSE</locked>
								</track>
							</video>
						</media>
					</sequence>
					<sourcetrack>
						<mediatype>video</mediatype>
					</sourcetrack>
					<ismasterclip>FALSE</ismasterclip>
				</clipitem>
				<clipitem id="Vignett test kvsR MASTER 00:01:26:18 ">
					<name>Vignett test kvsR MASTER 00:01:26:18</name>
					<duration>3000</duration>
					<rate>
						<ntsc>FALSE</ntsc>
						<timebase>25</timebase>
					</rate>
					<in>1488</in>
					<out>1492</out>
					<start>33817</start>
					<end>33821</end>
					<labels>
						<label>Best Take</label>
						<label2/>
					</labels>
					<comments>
						<mastercomment1/>
						<mastercomment2/>
						<mastercomment3/>
						<mastercomment4/>
					</comments>
					<logginginfo>
						<scene/>
						<shottake/>
						<lognote/>
						<good>FALSE</good>
					</logginginfo>
					<filter>
						<enabled>TRUE</enabled>
						<start>-1</start>
						<end>-1</end>
						<effect>
							<name>De-interlace</name>
							<effectid>De-interlace</effectid>
							<effectcategory>Video</effectcategory>
							<effecttype>filter</effecttype>
							<mediatype>video</mediatype>
							<parameter>
								<parameterid>field</parameterid>
								<name>Field</name>
								<valuemin>1</valuemin>
								<valuemax>5</valuemax>
								<valuelist>
									<valueentry>
										<name>Upper (Odd)</name>
										<value>1</value>
									</valueentry>
									<valueentry>
										<name>Lower (Even)</name>
										<value>2</value>
									</valueentry>
									<valueentry>
										<name>Flicker Filter (minimal)</name>
										<value>3</value>
									</valueentry>
									<valueentry>
										<name>Flicker Filter (medium)</name>
										<value>4</value>
									</valueentry>
									<valueentry>
										<name>Flicker Filter (max)</name>
										<value>5</value>
									</valueentry>
								</valuelist>
								<value>2</value>
							</parameter>
						</effect>
					</filter>
					<sequence id="Vignett test kvsR MASTER 00:01:26:18 1">
						<name>Vignett test kvsR MASTER 00:01:26:18</name>
						<duration>3000</duration>
						<rate>
							<ntsc>FALSE</ntsc>
							<timebase>25</timebase>
						</rate>
						<in>0</in>
						<out>3000</out>
						<media>
							<video>
								<format>
									<samplecharacteristics>
										<width>1920</width>
										<height>1080</height>
										<anamorphic>FALSE</anamorphic>
										<pixelaspectratio>Square</pixelaspectratio>
										<fielddominance>upper</fielddominance>
										<rate>
											<ntsc>FALSE</ntsc>
											<timebase>25</timebase>
										</rate>
										<colordepth>24</colordepth>
										<codec>
											<name>Apple XDCAM 422 1080i50 (50 Mb/s CBR)</name>
											<appspecificdata>
												<appname>Final Cut Pro</appname>
												<appmanufacturer>Apple Inc.</appmanufacturer>
												<appversion>7.0</appversion>
												<data>
													<qtcodec>
														<codecname>Apple XDCAM 422 1080i50 (50 Mb/s CBR)</codecname>
														<codectypename>XDCAM 422 1080i50 (50 Mb/s CBR)</codectypename>
														<codectypecode>xd5c</codectypecode>
														<codecvendorcode>appl</codecvendorcode>
														<spatialquality>1023</spatialquality>
														<temporalquality>0</temporalquality>
														<keyframerate>0</keyframerate>
														<datarate>0</datarate>
													</qtcodec>
												</data>
											</appspecificdata>
										</codec>
									</samplecharacteristics>
									<appspecificdata>
										<appname>Final Cut Pro</appname>
										<appmanufacturer>Apple Inc.</appmanufacturer>
										<appversion>7.0</appversion>
										<data>
											<fcpimageprocessing>
												<useyuv>TRUE</useyuv>
												<usesuperwhite>FALSE</usesuperwhite>
												<rendermode>YUV8BPP</rendermode>
											</fcpimageprocessing>
										</data>
									</appspecificdata>
								</format>
								<track>
									<clipitem id="Vignett test kvsR MASTER 00:01:26:18 2">
										<name>Vignett test kvsR MASTER 00:01:26:18</name>
										<duration>3000</duration>
										<rate>
											<ntsc>FALSE</ntsc>
											<timebase>25</timebase>
										</rate>
										<in>0</in>
										<out>3000</out>
										<start>0</start>
										<end>3000</end>
										<stillframeoffset>6793</stillframeoffset>
										<pixelaspectratio>Square</pixelaspectratio>
										<enabled>TRUE</enabled>
										<anamorphic>FALSE</anamorphic>
										<alphatype>none</alphatype>
										<alphareverse>FALSE</alphareverse>
										<syncoffset>0</syncoffset>
										<logginginfo>
											<description>msub200012-3011-k2d3-005</description>
											<scene/>
											<shottake/>
											<lognote/>
											<good>FALSE</good>
										</logginginfo>
										<labels>
											<label>Good Take</label>
											<label2/>
										</labels>
										<comments>
											<mastercomment1>RÃ…STOFF. BR_FINFREDAG_MSUA_OPRO</mastercomment1>
											<mastercomment2/>
											<mastercomment3/>
											<mastercomment4/>
											<clipcommenta/>
										</comments>
										<file id="msub200012-3011-k2d3-005 2"/>
										<sourcetrack>
											<mediatype>video</mediatype>
										</sourcetrack>
										<fielddominance>upper</fielddominance>
									</clipitem>
									<enabled>TRUE</enabled>
									<locked>FALSE</locked>
								</track>
								<track>
									<clipitem id="Vignett test kvsR MASTER 00:01:26:18 3">
										<name>Vignett test kvsR MASTER 00:01:26:18</name>
										<duration>3000</duration>
										<rate>
											<ntsc>FALSE</ntsc>
											<timebase>25</timebase>
										</rate>
										<in>0</in>
										<out>3000</out>
										<start>0</start>
										<end>3000</end>
										<stillframeoffset>6736</stillframeoffset>
										<pixelaspectratio>Square</pixelaspectratio>
										<enabled>TRUE</enabled>
										<anamorphic>FALSE</anamorphic>
										<alphatype>none</alphatype>
										<alphareverse>FALSE</alphareverse>
										<syncoffset>0</syncoffset>
										<logginginfo>
											<description>msub200012-3011-k1d3-002</description>
											<scene/>
											<shottake/>
											<lognote/>
											<good>FALSE</good>
										</logginginfo>
										<labels>
											<label>Good Take</label>
											<label2/>
										</labels>
										<comments>
											<mastercomment1>RÃ…STOFF. BR_FINFREDAG_MSUA_OPRO</mastercomment1>
											<mastercomment2/>
											<mastercomment3/>
											<mastercomment4/>
											<clipcommenta/>
										</comments>
										<file id="msub200012-3011-k1d3-002 2"/>
										<sourcetrack>
											<mediatype>video</mediatype>
										</sourcetrack>
										<fielddominance>upper</fielddominance>
									</clipitem>
									<enabled>TRUE</enabled>
									<locked>FALSE</locked>
								</track>
							</video>
						</media>
					</sequence>
					<sourcetrack>
						<mediatype>video</mediatype>
					</sourcetrack>
					<ismasterclip>FALSE</ismasterclip>
				</clipitem>
				<clipitem id="Vignett test kvsR MASTER 00:01:26:18 4">
					<name>Vignett test kvsR MASTER 00:01:26:18</name>
					<duration>3000</duration>
					<rate>
						<ntsc>FALSE</ntsc>
						<timebase>25</timebase>
					</rate>
					<in>1492</in>
					<out>1497</out>
					<start>33821</start>
					<end>33826</end>
					<labels>
						<label>Best Take</label>
						<label2/>
					</labels>
					<comments>
						<mastercomment1/>
						<mastercomment2/>
						<mastercomment3/>
						<mastercomment4/>
					</comments>
					<logginginfo>
						<scene/>
						<shottake/>
						<lognote/>
						<good>FALSE</good>
					</logginginfo>
					<filter>
						<enabled>TRUE</enabled>
						<start>-1</start>
						<end>-1</end>
						<effect>
							<name>De-interlace</name>
							<effectid>De-interlace</effectid>
							<effectcategory>Video</effectcategory>
							<effecttype>filter</effecttype>
							<mediatype>video</mediatype>
							<parameter>
								<parameterid>field</parameterid>
								<name>Field</name>
								<valuemin>1</valuemin>
								<valuemax>5</valuemax>
								<valuelist>
									<valueentry>
										<name>Upper (Odd)</name>
										<value>1</value>
									</valueentry>
									<valueentry>
										<name>Lower (Even)</name>
										<value>2</value>
									</valueentry>
									<valueentry>
										<name>Flicker Filter (minimal)</name>
										<value>3</value>
									</valueentry>
									<valueentry>
										<name>Flicker Filter (medium)</name>
										<value>4</value>
									</valueentry>
									<valueentry>
										<name>Flicker Filter (max)</name>
										<value>5</value>
									</valueentry>
								</valuelist>
								<value>2</value>
							</parameter>
						</effect>
					</filter>
					<sequence id="Vignett test kvsR MASTER 00:01:26:18 1"/>
					<sourcetrack>
						<mediatype>video</mediatype>
					</sourcetrack>
					<ismasterclip>FALSE</ismasterclip>
				</clipitem>
				<clipitem id="msub200012-3011-k2d3-010 ">
					<name>msub200012-3011-k2d3-010</name>
					<duration>139</duration>
					<rate>
						<ntsc>FALSE</ntsc>
						<timebase>25</timebase>
					</rate>
					<in>94</in>
					<out>107</out>
					<start>33826</start>
					<end>33839</end>
					<pixelaspectratio>Square</pixelaspectratio>
					<enabled>TRUE</enabled>
					<anamorphic>FALSE</anamorphic>
					<alphatype>none</alphatype>
					<masterclipid>msub200012-3011-k2d3-010 1</masterclipid>
					<logginginfo>
						<description>msub200012-3011-k2d3-010</description>
						<scene/>
						<shottake/>
						<lognote/>
						<good>FALSE</good>
					</logginginfo>
					<labels>
						<label2/>
					</labels>
					<comments>
						<mastercomment1>RÃ…STOFF. BR_FINFREDAG_MSUA_OPRO</mastercomment1>
						<mastercomment2/>
						<mastercomment3/>
						<mastercomment4/>
						<clipcommenta/>
					</comments>
					<file id="msub200012-3011-k2d3-010 2">
						<name>msub200012-3011-k2d3-010.mxf</name>
						<pathurl>file://localhost/omfs/clip.dir/MXF/1080i/msub200012-3011-k2d3-010.mxf</pathurl>
						<rate>
							<timebase>25</timebase>
						</rate>
						<duration>139</duration>
						<timecode>
							<rate>
								<timebase>25</timebase>
							</rate>
							<string>01:55:54:03</string>
							<frame>173853</frame>
							<displayformat>NDF</displayformat>
							<source>source</source>
						</timecode>
						<media>
							<video>
								<duration>139</duration>
								<samplecharacteristics>
									<width>1920</width>
									<height>1080</height>
								</samplecharacteristics>
							</video>
							<audio>
								<rate>
									<timebase>48000</timebase>
								</rate>
								<trackcount>1</trackcount>
								<samplecharacteristics>
									<depth>24</depth>
								</samplecharacteristics>
							</audio>
						</media>
					</file>
					<sourcetrack>
						<mediatype>video</mediatype>
					</sourcetrack>
					<link>
						<linkclipref>msub200012-3011-k2d3-010 </linkclipref>
						<mediatype>video</mediatype>
						<trackindex>4</trackindex>
						<clipindex>13</clipindex>
					</link>
					<link>
						<linkclipref>msub200012-3011-k2d3-010 3</linkclipref>
						<mediatype>audio</mediatype>
						<trackindex>3</trackindex>
						<clipindex>54</clipindex>
					</link>
					<fielddominance>upper</fielddominance>
				</clipitem>
				<clipitem id="Kristine-fotballkjole-70.png">
					<name>Kristine-fotballkjole-70.png</name>
					<duration>3026</duration>
					<rate>
						<ntsc>FALSE</ntsc>
						<timebase>25</timebase>
					</rate>
					<in>1583</in>
					<out>1627</out>
					<start>34495</start>
					<end>-1</end>
					<pixelaspectratio>Square</pixelaspectratio>
					<stillframe>TRUE</stillframe>
					<enabled>TRUE</enabled>
					<anamorphic>FALSE</anamorphic>
					<alphatype>straight</alphatype>
					<masterclipid>Kristine-fotballkjole-70.png1</masterclipid>
					<logginginfo>
						<scene/>
						<shottake/>
						<lognote/>
						<good>FALSE</good>
					</logginginfo>
					<labels>
						<label2/>
					</labels>
					<comments>
						<mastercomment1/>
						<mastercomment2/>
						<mastercomment3/>
						<mastercomment4/>
					</comments>
					<file id="Kristine-fotballkjole-70 ">
						<name>Kristine-fotballkjole-70.png</name>
						<pathurl>file://localhost/SuperSAN1/Prosjekter/MSUB20000012%20FIN%20FREDAG/FCP-PROSJEKTER,%20sesong%202/program%201%20Jenny/Vignette-Kristine_VS_Roekla-2013/Kristine_VS_Jenny/Stills_Elementer-Kristine_VS_Jenny/Cut-out%20bilder%20Kristine_VS_Jenny/Kristine-fotballkjole-70.png</pathurl>
						<rate>
							<timebase>25</timebase>
						</rate>
						<duration>2</duration>
						<width>3969</width>
						<height>2990</height>
						<media>
							<video>
								<duration>2</duration>
								<stillframe>TRUE</stillframe>
								<samplecharacteristics>
									<width>3969</width>
									<height>2990</height>
								</samplecharacteristics>
							</video>
						</media>
					</file>
					<filter>
						<effect>
							<name>Basic Motion</name>
							<effectid>basic</effectid>
							<effectcategory>motion</effectcategory>
							<effecttype>motion</effecttype>
							<mediatype>video</mediatype>
							<parameter>
								<parameterid>scale</parameterid>
								<name>Scale</name>
								<valuemin>0</valuemin>
								<valuemax>1000</valuemax>
								<value>70</value>
							</parameter>
							<parameter>
								<parameterid>center</parameterid>
								<name>Center</name>
								<value>
									<horiz>-0.127914</horiz>
									<vert>0.135578</vert>
								</value>
							</parameter>
							<parameter>
								<parameterid>rotation</parameterid>
								<name>Rotation</name>
								<valuemin>-8640</valuemin>
								<valuemax>8640</valuemax>
								<value>0</value>
							</parameter>
							<parameter>
								<parameterid>centerOffset</parameterid>
								<name>Anchor Point</name>
								<value>
									<horiz>0</horiz>
									<vert>0</vert>
								</value>
							</parameter>
						</effect>
					</filter>
					<filter>
						<effect>
							<name>Distort</name>
							<effectid>deformation</effectid>
							<effectcategory>motion</effectcategory>
							<effecttype>motion</effecttype>
							<mediatype>video</mediatype>
							<parameter>
								<parameterid>aspect</parameterid>
								<name>Aspect</name>
								<valuemin>-10000</valuemin>
								<valuemax>10000</valuemax>
								<value>0</value>
							</parameter>
							<parameter>
								<parameterid>ulcorner</parameterid>
								<name>Upper Left</name>
								<value>
									<horiz>-0.5</horiz>
									<vert>-0.5</vert>
								</value>
							</parameter>
							<parameter>
								<parameterid>urcorner</parameterid>
								<name>Upper Right</name>
								<value>
									<horiz>0.5</horiz>
									<vert>-0.5</vert>
								</value>
							</parameter>
							<parameter>
								<parameterid>lrcorner</parameterid>
								<name>Lower Right</name>
								<value>
									<horiz>0.5</horiz>
									<vert>0.5</vert>
								</value>
							</parameter>
							<parameter>
								<parameterid>llcorner</parameterid>
								<name>Lower Left</name>
								<value>
									<horiz>-0.5</horiz>
									<vert>0.5</vert>
								</value>
							</parameter>
						</effect>
					</filter>
					<filter>
						<enabled>FALSE</enabled>
						<effect>
							<name>Drop Shadow</name>
							<effectid>dropshadow</effectid>
							<effectcategory>motion</effectcategory>
							<effecttype>motion</effecttype>
							<mediatype>video</mediatype>
							<parameter>
								<parameterid>offset</parameterid>
								<name>offset</name>
								<valuemin>-100</valuemin>
								<valuemax>100</valuemax>
								<value>2</value>
							</parameter>
							<parameter>
								<parameterid>angle</parameterid>
								<name>angle</name>
								<valuemin>-720</valuemin>
								<valuemax>720</valuemax>
								<value>135</value>
							</parameter>
							<parameter>
								<parameterid>color</parameterid>
								<name>color</name>
								<value>
									<alpha>0</alpha>
									<red>0</red>
									<green>0</green>
									<blue>0</blue>
								</value>
							</parameter>
							<parameter>
								<parameterid>softness</parameterid>
								<name>softness</name>
								<valuemin>0</valuemin>
								<valuemax>100</valuemax>
								<value>10</value>
							</parameter>
							<parameter>
								<parameterid>opacity</parameterid>
								<name>opacity</name>
								<valuemin>0</valuemin>
								<valuemax>100</valuemax>
								<value>50</value>
							</parameter>
						</effect>
					</filter>
					<filter>
						<enabled>FALSE</enabled>
						<effect>
							<name>Motion Blur</name>
							<effectid>motionblur</effectid>
							<effectcategory>motion</effectcategory>
							<effecttype>motion</effecttype>
							<mediatype>video</mediatype>
							<parameter>
								<parameterid>duration</parameterid>
								<name>% Blur</name>
								<valuemin>0</valuemin>
								<valuemax>1000</valuemax>
								<value>500</value>
							</parameter>
							<parameter>
								<parameterid>samples</parameterid>
								<name>Samples</name>
								<valuemin>1</valuemin>
								<valuemax>16</valuemax>
								<value>4</value>
							</parameter>
						</effect>
					</filter>
					<filter>
						<effect>
							<name>Crop</name>
							<effectid>crop</effectid>
							<effectcategory>motion</effectcategory>
							<effecttype>motion</effecttype>
							<mediatype>video</mediatype>
							<parameter>
								<parameterid>left</parameterid>
								<name>left</name>
								<valuemin>0</valuemin>
								<valuemax>100</valuemax>
								<value>0</value>
							</parameter>
							<parameter>
								<parameterid>right</parameterid>
								<name>right</name>
								<valuemin>0</valuemin>
								<valuemax>100</valuemax>
								<value>0</value>
							</parameter>
							<parameter>
								<parameterid>top</parameterid>
								<name>top</name>
								<valuemin>0</valuemin>
								<valuemax>100</valuemax>
								<value>0</value>
							</parameter>
							<parameter>
								<parameterid>bottom</parameterid>
								<name>bottom</name>
								<valuemin>0</valuemin>
								<valuemax>100</valuemax>
								<value>0</value>
							</parameter>
							<parameter>
								<parameterid>edgefeather</parameterid>
								<name>edgefeather</name>
								<valuemin>0</valuemin>
								<valuemax>100</valuemax>
								<value>0</value>
							</parameter>
						</effect>
					</filter>
					<filter>
						<effect>
							<name>Opacity</name>
							<effectid>opacity</effectid>
							<effectcategory>motion</effectcategory>
							<effecttype>motion</effecttype>
							<mediatype>video</mediatype>
							<parameter>
								<parameterid>opacity</parameterid>
								<name>opacity</name>
								<valuemin>0</valuemin>
								<valuemax>100</valuemax>
								<value>100</value>
							</parameter>
						</effect>
					</filter>
					<sourcetrack>
						<mediatype>video</mediatype>
					</sourcetrack>
					<fielddominance>none</fielddominance>
				</clipitem>
				<transitionitem id="38267968 ">
					<rate>
						<ntsc>FALSE</ntsc>
						<timebase>25</timebase>
					</rate>
					<start>34533</start>
					<end>34539</end>
					<alignment>end-black</alignment>
					<effect>
						<name>Push Slide</name>
						<effectid>Push Slide</effectid>
						<effectcategory>Slide</effectcategory>
						<effecttype>transition</effecttype>
						<mediatype>video</mediatype>
						<wipecode>1</wipecode>
						<wipeaccuracy>100</wipeaccuracy>
						<startratio>0</startratio>
						<endratio>1</endratio>
						<reverse>FALSE</reverse>
						<parameter>
							<parameterid>angleofpush</parameterid>
							<name>Angle</name>
							<valuemin>-360</valuemin>
							<valuemax>360</valuemax>
							<value>270</value>
						</parameter>
						<parameter>
							<parameterid>borderwidth</parameterid>
							<name>Border</name>
							<valuemin>0</valuemin>
							<valuemax>10</valuemax>
							<value>0</value>
						</parameter>
						<parameter>
							<parameterid>bordercolor</parameterid>
							<name>Color</name>
							<value>
								<alpha>255</alpha>
								<red>0</red>
								<green>0</green>
								<blue>0</blue>
							</value>
						</parameter>
					</effect>
				</transitionitem>
				<enabled>TRUE</enabled>
				<locked>FALSE</locked>
			</track>
			<track>
				<clipitem id="STJERNE_wipe">
					<name>STJERNE_wipe</name>
					<duration>55</duration>
					<rate>
						<ntsc>FALSE</ntsc>
						<timebase>25</timebase>
					</rate>
					<in>0</in>
					<out>55</out>
					<start>1300</start>
					<end>1355</end>
					<pixelaspectratio>Square</pixelaspectratio>
					<enabled>TRUE</enabled>
					<anamorphic>FALSE</anamorphic>
					<alphatype>straight</alphatype>
					<masterclipid>STJERNE_wipe1</masterclipid>
					<logginginfo>
						<scene/>
						<shottake/>
						<lognote/>
						<good>FALSE</good>
					</logginginfo>
					<labels>
						<label2/>
					</labels>
					<comments>
						<mastercomment1/>
						<mastercomment2/>
						<mastercomment3/>
						<mastercomment4/>
					</comments>
					<file id="STJERNE_wipe2">
						<name>STJERNE_wipe.mov</name>
						<pathurl>file://localhost/Volumes/Prosjekter_SuperSAN1-1/MSUB20000012%20FIN%20FREDAG/SFX/Profil-grafikk/01_MASTER/Wipes/STJERNE_wipe.mov</pathurl>
						<rate>
							<timebase>25</timebase>
						</rate>
						<duration>55</duration>
						<timecode>
							<rate>
								<timebase>25</timebase>
							</rate>
							<string>00:00:00:00</string>
							<frame>0</frame>
							<displayformat>NDF</displayformat>
							<source>source</source>
						</timecode>
						<media>
							<video>
								<duration>55</duration>
								<samplecharacteristics>
									<width>1920</width>
									<height>1080</height>
								</samplecharacteristics>
							</video>
						</media>
					</file>
					<sourcetrack>
						<mediatype>video</mediatype>
					</sourcetrack>
					<fielddominance>upper</fielddominance>
				</clipitem>
				<clipitem id="SUPER_INN_stjernen">
					<name>SUPER_INN_stjernen</name>
					<duration>42</duration>
					<rate>
						<ntsc>FALSE</ntsc>
						<timebase>25</timebase>
					</rate>
					<in>0</in>
					<out>29</out>
					<start>1450</start>
					<end>1479</end>
					<pixelaspectratio>Square</pixelaspectratio>
					<anamorphic>FALSE</anamorphic>
					<alphatype>straight</alphatype>
					<masterclipid>SUPER_INN_stjernen1</masterclipid>
					<logginginfo>
						<scene/>
						<shottake/>
						<lognote/>
						<good>FALSE</good>
					</logginginfo>
					<labels>
						<label2/>
					</labels>
					<comments>
						<mastercomment1/>
						<mastercomment2/>
						<mastercomment3/>
						<mastercomment4/>
					</comments>
					<file id="SUPER_INN_stjernen2">
						<name>SUPER_INN_stjernen.mov</name>
						<pathurl>file://localhost/SuperSAN1/Prosjekter/MSUB20000013%20FIN%20FREDAG/Profil-grafikk/01_MASTER/06Super_FF_Font/SUPER_INN_stjernen.mov</pathurl>
						<rate>
							<timebase>25</timebase>
						</rate>
						<duration>42</duration>
						<timecode>
							<rate>
								<timebase>25</timebase>
							</rate>
							<string>01:01:00:18</string>
							<frame>91518</frame>
							<displayformat>NDF</displayformat>
							<source>source</source>
						</timecode>
						<media>
							<video>
								<duration>42</duration>
								<samplecharacteristics>
									<width>800</width>
									<height>600</height>
								</samplecharacteristics>
							</video>
						</media>
					</file>
					<filter>
						<effect>
							<name>Basic Motion</name>
							<effectid>basic</effectid>
							<effectcategory>motion</effectcategory>
							<effecttype>motion</effecttype>
							<mediatype>video</mediatype>
							<parameter>
								<parameterid>scale</parameterid>
								<name>Scale</name>
								<value>180</value>
							</parameter>
							<parameter>
								<parameterid>center</parameterid>
								<name>Center</name>
								<value>
									<horiz>0.298193</horiz>
									<vert>-0.399194</vert>
								</value>
							</parameter>
						</effect>
					</filter>
					<sourcetrack>
						<mediatype>video</mediatype>
					</sourcetrack>
					<fielddominance>none</fielddominance>
				</clipitem>
				<clipitem id="SUPER_INN_stjernen3">
					<name>SUPER_INN_stjernen</name>
					<duration>42</duration>
					<rate>
						<ntsc>FALSE</ntsc>
						<timebase>25</timebase>
					</rate>
					<in>0</in>
					<out>29</out>
					<start>1870</start>
					<end>1899</end>
					<pixelaspectratio>Square</pixelaspectratio>
					<anamorphic>FALSE</anamorphic>
					<alphatype>straight</alphatype>
					<masterclipid>SUPER_INN_stjernen1</masterclipid>
					<logginginfo>
						<scene/>
						<shottake/>
						<lognote/>
						<good>FALSE</good>
					</logginginfo>
					<labels>
						<label2/>
					</labels>
					<comments>
						<mastercomment1/>
						<mastercomment2/>
						<mastercomment3/>
						<mastercomment4/>
					</comments>
					<file id="SUPER_INN_stjernen2"/>
					<filter>
						<effect>
							<name>Basic Motion</name>
							<effectid>basic</effectid>
							<effectcategory>motion</effectcategory>
							<effecttype>motion</effecttype>
							<mediatype>video</mediatype>
							<parameter>
								<parameterid>scale</parameterid>
								<name>Scale</name>
								<value>180</value>
							</parameter>
							<parameter>
								<parameterid>center</parameterid>
								<name>Center</name>
								<value>
									<horiz>-0.454819</horiz>
									<vert>0.225806</vert>
								</value>
							</parameter>
						</effect>
					</filter>
					<sourcetrack>
						<mediatype>video</mediatype>
					</sourcetrack>
					<fielddominance>none</fielddominance>
				</clipitem>
				<transitionitem id="38270552 ">
					<rate>
						<ntsc>FALSE</ntsc>
						<timebase>25</timebase>
					</rate>
					<start>1901</start>
					<end>1905</end>
					<alignment>start-black</alignment>
					<effect>
						<name>Push Slide Copy</name>
						<effectid>Push Slide</effectid>
						<effectcategory>Slide</effectcategory>
						<effecttype>transition</effecttype>
						<mediatype>video</mediatype>
						<wipecode>1</wipecode>
						<wipeaccuracy>100</wipeaccuracy>
						<startratio>0</startratio>
						<endratio>1</endratio>
						<reverse>FALSE</reverse>
						<parameter>
							<parameterid>angleofpush</parameterid>
							<name>Angle</name>
							<valuemin>-360</valuemin>
							<valuemax>360</valuemax>
							<value>90</value>
						</parameter>
						<parameter>
							<parameterid>borderwidth</parameterid>
							<name>Border</name>
							<valuemin>0</valuemin>
							<valuemax>10</valuemax>
							<value>0</value>
						</parameter>
						<parameter>
							<parameterid>bordercolor</parameterid>
							<name>Color</name>
							<value>
								<alpha>255</alpha>
								<red>0</red>
								<green>0</green>
								<blue>0</blue>
							</value>
						</parameter>
					</effect>
				</transitionitem>
				<clipitem id="pil_pink_bend.png">
					<name>pil_pink_bend.png</name>
					<duration>3026</duration>
					<rate>
						<ntsc>FALSE</ntsc>
						<timebase>25</timebase>
					</rate>
					<in>1500</in>
					<out>1558</out>
					<start>-1</start>
					<end>-1</end>
					<pixelaspectratio>Square</pixelaspectratio>
					<stillframe>TRUE</stillframe>
					<enabled>TRUE</enabled>
					<anamorphic>FALSE</anamorphic>
					<alphatype>straight</alphatype>
					<masterclipid>pil_pink_bend.png1</masterclipid>
					<logginginfo>
						<scene/>
						<shottake/>
						<lognote/>
						<good>FALSE</good>
					</logginginfo>
					<labels>
						<label2/>
					</labels>
					<comments>
						<mastercomment1/>
						<mastercomment2/>
						<mastercomment3/>
						<mastercomment4/>
					</comments>
					<file id="pil_pink_bend">
						<name>pil_pink_bend.png</name>
						<pathurl>file://localhost/Volumes/Prosjekter_SuperSAN1-1/MSUB20000013%20FIN%20FREDAG/Profil-grafikk/01_MASTER/07Piler/Div%20Piler/pil_pink_bend.png</pathurl>
						<rate>
							<timebase>25</timebase>
						</rate>
						<duration>2</duration>
						<width>600</width>
						<height>600</height>
						<media>
							<video>
								<duration>2</duration>
								<stillframe>TRUE</stillframe>
								<samplecharacteristics>
									<width>600</width>
									<height>600</height>
								</samplecharacteristics>
							</video>
						</media>
					</file>
					<filter>
						<start>-1</start>
						<end>-1</end>
						<effect>
							<name>Flop</name>
							<effectid>Flop</effectid>
							<effectcategory>Perspective</effectcategory>
							<effecttype>filter</effecttype>
							<mediatype>video</mediatype>
							<parameter>
								<parameterid>flop</parameterid>
								<name>Flop</name>
								<valuemin>1</valuemin>
								<valuemax>3</valuemax>
								<valuelist>
									<valueentry>
										<name>Horizontal</name>
										<value>1</value>
									</valueentry>
									<valueentry>
										<name>Vertical</name>
										<value>2</value>
									</valueentry>
									<valueentry>
										<name>Both</name>
										<value>3</value>
									</valueentry>
								</valuelist>
								<value>1</value>
							</parameter>
						</effect>
					</filter>
					<filter>
						<effect>
							<name>Basic Motion</name>
							<effectid>basic</effectid>
							<effectcategory>motion</effectcategory>
							<effecttype>motion</effecttype>
							<mediatype>video</mediatype>
							<parameter>
								<parameterid>scale</parameterid>
								<name>Scale</name>
								<valuemin>0</valuemin>
								<valuemax>1000</valuemax>
								<value>58.0345</value>
							</parameter>
							<parameter>
								<parameterid>rotation</parameterid>
								<name>Rotation</name>
								<valuemin>-8640</valuemin>
								<valuemax>8640</valuemax>
								<value>-157.501</value>
							</parameter>
							<parameter>
								<parameterid>center</parameterid>
								<name>Center</name>
								<value>
									<horiz>0.0466667</horiz>
									<vert>0.42</vert>
								</value>
							</parameter>
							<parameter>
								<parameterid>centerOffset</parameterid>
								<name>Anchor Point</name>
								<value>
									<horiz>0</horiz>
									<vert>0</vert>
								</value>
							</parameter>
						</effect>
					</filter>
					<filter>
						<enabled>FALSE</enabled>
						<effect>
							<name>Drop Shadow</name>
							<effectid>dropshadow</effectid>
							<effectcategory>motion</effectcategory>
							<effecttype>motion</effecttype>
							<mediatype>video</mediatype>
							<parameter>
								<parameterid>offset</parameterid>
								<name>offset</name>
								<valuemin>-100</valuemin>
								<valuemax>100</valuemax>
								<value>2</value>
							</parameter>
							<parameter>
								<parameterid>angle</parameterid>
								<name>angle</name>
								<valuemin>-720</valuemin>
								<valuemax>720</valuemax>
								<value>135</value>
							</parameter>
							<parameter>
								<parameterid>color</parameterid>
								<name>color</name>
								<value>
									<alpha>0</alpha>
									<red>0</red>
									<green>0</green>
									<blue>0</blue>
								</value>
							</parameter>
							<parameter>
								<parameterid>softness</parameterid>
								<name>softness</name>
								<valuemin>0</valuemin>
								<valuemax>100</valuemax>
								<value>10</value>
							</parameter>
							<parameter>
								<parameterid>opacity</parameterid>
								<name>opacity</name>
								<valuemin>0</valuemin>
								<valuemax>100</valuemax>
								<value>50</value>
							</parameter>
						</effect>
					</filter>
					<filter>
						<enabled>FALSE</enabled>
						<effect>
							<name>Motion Blur</name>
							<effectid>motionblur</effectid>
							<effectcategory>motion</effectcategory>
							<effecttype>motion</effecttype>
							<mediatype>video</mediatype>
							<parameter>
								<parameterid>duration</parameterid>
								<name>% Blur</name>
								<valuemin>0</valuemin>
								<valuemax>1000</valuemax>
								<value>500</value>
							</parameter>
							<parameter>
								<parameterid>samples</parameterid>
								<name>Samples</name>
								<valuemin>1</valuemin>
								<valuemax>16</valuemax>
								<value>4</value>
							</parameter>
						</effect>
					</filter>
					<filter>
						<effect>
							<name>Crop</name>
							<effectid>crop</effectid>
							<effectcategory>motion</effectcategory>
							<effecttype>motion</effecttype>
							<mediatype>video</mediatype>
							<parameter>
								<parameterid>left</parameterid>
								<name>left</name>
								<valuemin>0</valuemin>
								<valuemax>100</valuemax>
								<value>0</value>
							</parameter>
							<parameter>
								<parameterid>right</parameterid>
								<name>right</name>
								<valuemin>0</valuemin>
								<valuemax>100</valuemax>
								<value>0</value>
							</parameter>
							<parameter>
								<parameterid>top</parameterid>
								<name>top</name>
								<valuemin>0</valuemin>
								<valuemax>100</valuemax>
								<value>0</value>
							</parameter>
							<parameter>
								<parameterid>bottom</parameterid>
								<name>bottom</name>
								<valuemin>0</valuemin>
								<valuemax>100</valuemax>
								<value>0</value>
							</parameter>
							<parameter>
								<parameterid>edgefeather</parameterid>
								<name>edgefeather</name>
								<valuemin>0</valuemin>
								<valuemax>100</valuemax>
								<value>0</value>
							</parameter>
						</effect>
					</filter>
					<filter>
						<effect>
							<name>Distort</name>
							<effectid>deformation</effectid>
							<effectcategory>motion</effectcategory>
							<effecttype>motion</effecttype>
							<mediatype>video</mediatype>
							<parameter>
								<parameterid>ulcorner</parameterid>
								<name>Upper Left</name>
								<value>
									<horiz>-0.5</horiz>
									<vert>-0.5</vert>
								</value>
							</parameter>
							<parameter>
								<parameterid>urcorner</parameterid>
								<name>Upper Right</name>
								<value>
									<horiz>0.5</horiz>
									<vert>-0.5</vert>
								</value>
							</parameter>
							<parameter>
								<parameterid>lrcorner</parameterid>
								<name>Lower Right</name>
								<value>
									<horiz>0.5</horiz>
									<vert>0.5</vert>
								</value>
							</parameter>
							<parameter>
								<parameterid>llcorner</parameterid>
								<name>Lower Left</name>
								<value>
									<horiz>-0.5</horiz>
									<vert>0.5</vert>
								</value>
							</parameter>
							<parameter>
								<parameterid>aspect</parameterid>
								<name>Aspect</name>
								<valuemin>-10000</valuemin>
								<valuemax>10000</valuemax>
								<value>0</value>
							</parameter>
						</effect>
					</filter>
					<filter>
						<effect>
							<name>Opacity</name>
							<effectid>opacity</effectid>
							<effectcategory>motion</effectcategory>
							<effecttype>motion</effecttype>
							<mediatype>video</mediatype>
							<parameter>
								<parameterid>opacity</parameterid>
								<name>opacity</name>
								<valuemin>0</valuemin>
								<valuemax>100</valuemax>
								<value>100</value>
							</parameter>
						</effect>
					</filter>
					<sourcetrack>
						<mediatype>video</mediatype>
					</sourcetrack>
					<fielddominance>none</fielddominance>
				</clipitem>
				<transitionitem id="38274156 ">
					<rate>
						<ntsc>FALSE</ntsc>
						<timebase>25</timebase>
					</rate>
					<start>1955</start>
					<end>1959</end>
					<alignment>end-black</alignment>
					<effect>
						<name>Push Slide Copy</name>
						<effectid>Push Slide</effectid>
						<effectcategory>Slide</effectcategory>
						<effecttype>transition</effecttype>
						<mediatype>video</mediatype>
						<wipecode>1</wipecode>
						<wipeaccuracy>100</wipeaccuracy>
						<startratio>0</startratio>
						<endratio>1</endratio>
						<reverse>FALSE</reverse>
						<parameter>
							<parameterid>angleofpush</parameterid>
							<name>Angle</name>
							<valuemin>-360</valuemin>
							<valuemax>360</valuemax>
							<value>180</value>
						</parameter>
						<parameter>
							<parameterid>borderwidth</parameterid>
							<name>Border</name>
							<valuemin>0</valuemin>
							<valuemax>10</valuemax>
							<value>0</value>
						</parameter>
						<parameter>
							<parameterid>bordercolor</parameterid>
							<name>Color</name>
							<value>
								<alpha>255</alpha>
								<red>0</red>
								<green>0</green>
								<blue>0</blue>
							</value>
						</parameter>
					</effect>
				</transitionitem>
				<clipitem id="msub200012-3011-k1d1-024 4">
					<name>msub200012-3011-k1d1-024</name>
					<duration>1440</duration>
					<rate>
						<ntsc>FALSE</ntsc>
						<timebase>25</timebase>
					</rate>
					<in>1123</in>
					<out>1213</out>
					<start>3672</start>
					<end>3762</end>
					<pixelaspectratio>Square</pixelaspectratio>
					<enabled>FALSE</enabled>
					<anamorphic>FALSE</anamorphic>
					<alphatype>none</alphatype>
					<masterclipid>msub200012-3011-k1d1-024 1</masterclipid>
					<logginginfo>
						<description>msub200012-3011-k1d1-024</description>
						<scene/>
						<shottake/>
						<lognote/>
						<good>FALSE</good>
					</logginginfo>
					<labels>
						<label2/>
					</labels>
					<comments>
						<mastercomment1>RÃ…STOFF. BR_FINFREDAG_MSUA_OPRO</mastercomment1>
						<mastercomment2/>
						<mastercomment3/>
						<mastercomment4/>
						<clipcommenta/>
					</comments>
					<file id="msub200012-3011-k1d1-024 2"/>
					<sourcetrack>
						<mediatype>video</mediatype>
					</sourcetrack>
					<fielddominance>upper</fielddominance>
				</clipitem>
				<clipitem id="Boble_Bumper_5sek">
					<name>Boble_Bumper_5sek</name>
					<duration>125</duration>
					<rate>
						<ntsc>FALSE</ntsc>
						<timebase>25</timebase>
					</rate>
					<in>0</in>
					<out>117</out>
					<start>5460</start>
					<end>-1</end>
					<pixelaspectratio>Square</pixelaspectratio>
					<enabled>TRUE</enabled>
					<anamorphic>FALSE</anamorphic>
					<alphatype>straight</alphatype>
					<masterclipid>Boble_Bumper_5sek1</masterclipid>
					<logginginfo>
						<scene/>
						<shottake/>
						<lognote/>
						<good>FALSE</good>
					</logginginfo>
					<labels>
						<label2/>
					</labels>
					<comments>
						<mastercomment1/>
						<mastercomment2/>
						<mastercomment3/>
						<mastercomment4/>
					</comments>
					<file id="Boble_Bumper_5sek2">
						<name>Boble_Bumper_5sek.mov</name>
						<pathurl>file://localhost/Volumes/Prosjekter_SuperSAN1-1/MSUB20000012%20FIN%20FREDAG/SFX/Profil-grafikk/01_MASTER/BUMPERE/Boble_Bumper_5sek.mov</pathurl>
						<rate>
							<timebase>25</timebase>
						</rate>
						<duration>125</duration>
						<timecode>
							<rate>
								<timebase>25</timebase>
							</rate>
							<string>00:00:00:00</string>
							<frame>0</frame>
							<displayformat>NDF</displayformat>
							<source>source</source>
						</timecode>
						<media>
							<video>
								<duration>125</duration>
								<samplecharacteristics>
									<width>1920</width>
									<height>1080</height>
								</samplecharacteristics>
							</video>
							<audio>
								<rate>
									<timebase>48000</timebase>
								</rate>
								<trackcount>2</trackcount>
								<samplecharacteristics>
									<depth>16</depth>
								</samplecharacteristics>
							</audio>
						</media>
					</file>
					<filter>
						<effect>
							<name>Opacity</name>
							<effectid>opacity</effectid>
							<effectcategory>motion</effectcategory>
							<effecttype>motion</effecttype>
							<mediatype>video</mediatype>
							<parameter>
								<parameterid>opacity</parameterid>
								<name>opacity</name>
								<valuemin>0</valuemin>
								<valuemax>100</valuemax>
								<value>100</value>
							</parameter>
						</effect>
					</filter>
					<sourcetrack>
						<mediatype>video</mediatype>
					</sourcetrack>
					<link>
						<linkclipref>Boble_Bumper_5sek</linkclipref>
						<mediatype>video</mediatype>
						<trackindex>5</trackindex>
						<clipindex>8</clipindex>
					</link>
					<fielddominance>upper</fielddominance>
				</clipitem>
				<transitionitem id="38275652 ">
					<rate>
						<ntsc>FALSE</ntsc>
						<timebase>25</timebase>
					</rate>
					<start>5567</start>
					<end>5577</end>
					<alignment>end-black</alignment>
					<effect>
						<name>Push Slide Copy</name>
						<effectid>Push Slide</effectid>
						<effectcategory>Slide</effectcategory>
						<effecttype>transition</effecttype>
						<mediatype>video</mediatype>
						<wipecode>1</wipecode>
						<wipeaccuracy>100</wipeaccuracy>
						<startratio>0</startratio>
						<endratio>1</endratio>
						<reverse>FALSE</reverse>
						<parameter>
							<parameterid>angleofpush</parameterid>
							<name>Angle</name>
							<valuemin>-360</valuemin>
							<valuemax>360</valuemax>
							<value>0</value>
						</parameter>
						<parameter>
							<parameterid>borderwidth</parameterid>
							<name>Border</name>
							<valuemin>0</valuemin>
							<valuemax>10</valuemax>
							<value>0</value>
						</parameter>
						<parameter>
							<parameterid>bordercolor</parameterid>
							<name>Color</name>
							<value>
								<alpha>255</alpha>
								<red>0</red>
								<green>0</green>
								<blue>0</blue>
							</value>
						</parameter>
					</effect>
				</transitionitem>
				<transitionitem id="38276536 ">
					<rate>
						<ntsc>FALSE</ntsc>
						<timebase>25</timebase>
					</rate>
					<start>23108</start>
					<end>23114</end>
					<alignment>start-black</alignment>
					<effect>
						<name>Push Slide</name>
						<effectid>Push Slide</effectid>
						<effectcategory>Slide</effectcategory>
						<effecttype>transition</effecttype>
						<mediatype>video</mediatype>
						<wipecode>1</wipecode>
						<wipeaccuracy>100</wipeaccuracy>
						<startratio>0</startratio>
						<endratio>1</endratio>
						<reverse>FALSE</reverse>
						<parameter>
							<parameterid>angleofpush</parameterid>
							<name>Angle</name>
							<valuemin>-360</valuemin>
							<valuemax>360</valuemax>
							<value>90</value>
						</parameter>
						<parameter>
							<parameterid>borderwidth</parameterid>
							<name>Border</name>
							<valuemin>0</valuemin>
							<valuemax>10</valuemax>
							<value>0</value>
						</parameter>
						<parameter>
							<parameterid>bordercolor</parameterid>
							<name>Color</name>
							<value>
								<alpha>255</alpha>
								<red>0</red>
								<green>0</green>
								<blue>0</blue>
							</value>
						</parameter>
					</effect>
				</transitionitem>
				<clipitem id="Black Frame.png3">
					<name>Black Frame.png</name>
					<duration>6000</duration>
					<rate>
						<ntsc>FALSE</ntsc>
						<timebase>25</timebase>
					</rate>
					<in>4278</in>
					<out>4286</out>
					<start>-1</start>
					<end>23116</end>
					<pixelaspectratio>Square</pixelaspectratio>
					<stillframe>TRUE</stillframe>
					<enabled>TRUE</enabled>
					<anamorphic>FALSE</anamorphic>
					<alphatype>straight</alphatype>
					<masterclipid>Black Frame.png1</masterclipid>
					<logginginfo>
						<scene/>
						<shottake/>
						<lognote/>
						<good>FALSE</good>
					</logginginfo>
					<labels>
						<label2/>
					</labels>
					<comments>
						<mastercomment1/>
						<mastercomment2/>
						<mastercomment3/>
						<mastercomment4/>
					</comments>
					<file id="Black Frame"/>
					<filter>
						<enabled>TRUE</enabled>
						<start>-1</start>
						<end>-1</end>
						<effect>
							<name>Flop</name>
							<effectid>Flop</effectid>
							<effectcategory>Perspective</effectcategory>
							<effecttype>filter</effecttype>
							<mediatype>video</mediatype>
							<parameter>
								<parameterid>flop</parameterid>
								<name>Flop</name>
								<valuemin>1</valuemin>
								<valuemax>3</valuemax>
								<valuelist>
									<valueentry>
										<name>Horizontal</name>
										<value>1</value>
									</valueentry>
									<valueentry>
										<name>Vertical</name>
										<value>2</value>
									</valueentry>
									<valueentry>
										<name>Both</name>
										<value>3</value>
									</valueentry>
								</valuelist>
								<value>1</value>
							</parameter>
						</effect>
					</filter>
					<filter>
						<enabled>TRUE</enabled>
						<start>-1</start>
						<end>-1</end>
						<effect>
							<name>Gaussian Blur</name>
							<effectid>Gaussian Blur</effectid>
							<effectcategory>Blur</effectcategory>
							<effecttype>filter</effecttype>
							<mediatype>video</mediatype>
							<parameter>
								<parameterid>channel</parameterid>
								<name>Channel</name>
								<valuemin>1</valuemin>
								<valuemax>7</valuemax>
								<valuelist>
									<valueentry>
										<name>Alpha+RGB</name>
										<value>1</value>
									</valueentry>
									<valueentry>
										<name>Alpha</name>
										<value>2</value>
									</valueentry>
									<valueentry>
										<name>RGB</name>
										<value>3</value>
									</valueentry>
									<valueentry>
										<name>Red</name>
										<value>4</value>
									</valueentry>
									<valueentry>
										<name>Green</name>
										<value>5</value>
									</valueentry>
									<valueentry>
										<name>Blue</name>
										<value>6</value>
									</valueentry>
									<valueentry>
										<name>Luminance</name>
										<value>7</value>
									</valueentry>
								</valuelist>
								<value>1</value>
							</parameter>
							<parameter>
								<parameterid>radius</parameterid>
								<name>Radius</name>
								<valuemin>0</valuemin>
								<valuemax>100</valuemax>
								<value>9</value>
							</parameter>
						</effect>
					</filter>
					<filter>
						<effect>
							<name>Basic Motion</name>
							<effectid>basic</effectid>
							<effectcategory>motion</effectcategory>
							<effecttype>motion</effecttype>
							<mediatype>video</mediatype>
							<parameter>
								<parameterid>scale</parameterid>
								<name>Scale</name>
								<valuemin>0</valuemin>
								<valuemax>1000</valuemax>
								<value>106.044</value>
							</parameter>
							<parameter>
								<parameterid>rotation</parameterid>
								<name>Rotation</name>
								<valuemin>-8640</valuemin>
								<valuemax>8640</valuemax>
								<value>0</value>
							</parameter>
							<parameter>
								<parameterid>center</parameterid>
								<name>Center</name>
								<value>
									<horiz>0.00416667</horiz>
									<vert>0.0037037</vert>
								</value>
							</parameter>
							<parameter>
								<parameterid>centerOffset</parameterid>
								<name>Anchor Point</name>
								<value>
									<horiz>0</horiz>
									<vert>0</vert>
								</value>
							</parameter>
						</effect>
					</filter>
					<filter>
						<enabled>FALSE</enabled>
						<effect>
							<name>Drop Shadow</name>
							<effectid>dropshadow</effectid>
							<effectcategory>motion</effectcategory>
							<effecttype>motion</effecttype>
							<mediatype>video</mediatype>
							<parameter>
								<parameterid>offset</parameterid>
								<name>offset</name>
								<valuemin>-100</valuemin>
								<valuemax>100</valuemax>
								<value>2</value>
							</parameter>
							<parameter>
								<parameterid>angle</parameterid>
								<name>angle</name>
								<valuemin>-720</valuemin>
								<valuemax>720</valuemax>
								<value>135</value>
							</parameter>
							<parameter>
								<parameterid>color</parameterid>
								<name>color</name>
								<value>
									<alpha>0</alpha>
									<red>0</red>
									<green>0</green>
									<blue>0</blue>
								</value>
							</parameter>
							<parameter>
								<parameterid>softness</parameterid>
								<name>softness</name>
								<valuemin>0</valuemin>
								<valuemax>100</valuemax>
								<value>10</value>
							</parameter>
							<parameter>
								<parameterid>opacity</parameterid>
								<name>opacity</name>
								<valuemin>0</valuemin>
								<valuemax>100</valuemax>
								<value>50</value>
							</parameter>
						</effect>
					</filter>
					<filter>
						<enabled>FALSE</enabled>
						<effect>
							<name>Motion Blur</name>
							<effectid>motionblur</effectid>
							<effectcategory>motion</effectcategory>
							<effecttype>motion</effecttype>
							<mediatype>video</mediatype>
							<parameter>
								<parameterid>duration</parameterid>
								<name>% Blur</name>
								<valuemin>0</valuemin>
								<valuemax>1000</valuemax>
								<value>500</value>
							</parameter>
							<parameter>
								<parameterid>samples</parameterid>
								<name>Samples</name>
								<valuemin>1</valuemin>
								<valuemax>16</valuemax>
								<value>4</value>
							</parameter>
						</effect>
					</filter>
					<filter>
						<effect>
							<name>Crop</name>
							<effectid>crop</effectid>
							<effectcategory>motion</effectcategory>
							<effecttype>motion</effecttype>
							<mediatype>video</mediatype>
							<parameter>
								<parameterid>left</parameterid>
								<name>left</name>
								<valuemin>0</valuemin>
								<valuemax>100</valuemax>
								<value>0</value>
							</parameter>
							<parameter>
								<parameterid>right</parameterid>
								<name>right</name>
								<valuemin>0</valuemin>
								<valuemax>100</valuemax>
								<value>0</value>
							</parameter>
							<parameter>
								<parameterid>top</parameterid>
								<name>top</name>
								<valuemin>0</valuemin>
								<valuemax>100</valuemax>
								<value>0</value>
							</parameter>
							<parameter>
								<parameterid>bottom</parameterid>
								<name>bottom</name>
								<valuemin>0</valuemin>
								<valuemax>100</valuemax>
								<value>0</value>
							</parameter>
							<parameter>
								<parameterid>edgefeather</parameterid>
								<name>edgefeather</name>
								<valuemin>0</valuemin>
								<valuemax>100</valuemax>
								<value>0</value>
							</parameter>
						</effect>
					</filter>
					<filter>
						<effect>
							<name>Distort</name>
							<effectid>deformation</effectid>
							<effectcategory>motion</effectcategory>
							<effecttype>motion</effecttype>
							<mediatype>video</mediatype>
							<parameter>
								<parameterid>ulcorner</parameterid>
								<name>Upper Left</name>
								<value>
									<horiz>-0.5</horiz>
									<vert>-0.5</vert>
								</value>
							</parameter>
							<parameter>
								<parameterid>urcorner</parameterid>
								<name>Upper Right</name>
								<value>
									<horiz>0.5</horiz>
									<vert>-0.5</vert>
								</value>
							</parameter>
							<parameter>
								<parameterid>lrcorner</parameterid>
								<name>Lower Right</name>
								<value>
									<horiz>0.5</horiz>
									<vert>0.5</vert>
								</value>
							</parameter>
							<parameter>
								<parameterid>llcorner</parameterid>
								<name>Lower Left</name>
								<value>
									<horiz>-0.5</horiz>
									<vert>0.5</vert>
								</value>
							</parameter>
							<parameter>
								<parameterid>aspect</parameterid>
								<name>Aspect</name>
								<valuemin>-10000</valuemin>
								<valuemax>10000</valuemax>
								<value>0</value>
							</parameter>
						</effect>
					</filter>
					<filter>
						<effect>
							<name>Opacity</name>
							<effectid>opacity</effectid>
							<effectcategory>motion</effectcategory>
							<effecttype>motion</effecttype>
							<mediatype>video</mediatype>
							<parameter>
								<parameterid>opacity</parameterid>
								<name>opacity</name>
								<valuemin>0</valuemin>
								<valuemax>100</valuemax>
								<value>100</value>
							</parameter>
						</effect>
					</filter>
					<sourcetrack>
						<mediatype>video</mediatype>
					</sourcetrack>
					<fielddominance>none</fielddominance>
				</clipitem>
				<clipitem id="Black Frame.png4">
					<name>Black Frame.png</name>
					<duration>6000</duration>
					<rate>
						<ntsc>FALSE</ntsc>
						<timebase>25</timebase>
					</rate>
					<in>4278</in>
					<out>4407</out>
					<start>24592</start>
					<end>24721</end>
					<pixelaspectratio>Square</pixelaspectratio>
					<stillframe>TRUE</stillframe>
					<enabled>TRUE</enabled>
					<anamorphic>FALSE</anamorphic>
					<alphatype>straight</alphatype>
					<masterclipid>Black Frame.png1</masterclipid>
					<logginginfo>
						<scene/>
						<shottake/>
						<lognote/>
						<good>FALSE</good>
					</logginginfo>
					<labels>
						<label2/>
					</labels>
					<comments>
						<mastercomment1/>
						<mastercomment2/>
						<mastercomment3/>
						<mastercomment4/>
					</comments>
					<file id="Black Frame"/>
					<filter>
						<enabled>TRUE</enabled>
						<start>-1</start>
						<end>-1</end>
						<effect>
							<name>Flop</name>
							<effectid>Flop</effectid>
							<effectcategory>Perspective</effectcategory>
							<effecttype>filter</effecttype>
							<mediatype>video</mediatype>
							<parameter>
								<parameterid>flop</parameterid>
								<name>Flop</name>
								<valuemin>1</valuemin>
								<valuemax>3</valuemax>
								<valuelist>
									<valueentry>
										<name>Horizontal</name>
										<value>1</value>
									</valueentry>
									<valueentry>
										<name>Vertical</name>
										<value>2</value>
									</valueentry>
									<valueentry>
										<name>Both</name>
										<value>3</value>
									</valueentry>
								</valuelist>
								<value>1</value>
							</parameter>
						</effect>
					</filter>
					<filter>
						<enabled>TRUE</enabled>
						<start>-1</start>
						<end>-1</end>
						<effect>
							<name>Gaussian Blur</name>
							<effectid>Gaussian Blur</effectid>
							<effectcategory>Blur</effectcategory>
							<effecttype>filter</effecttype>
							<mediatype>video</mediatype>
							<parameter>
								<parameterid>channel</parameterid>
								<name>Channel</name>
								<valuemin>1</valuemin>
								<valuemax>7</valuemax>
								<valuelist>
									<valueentry>
										<name>Alpha+RGB</name>
										<value>1</value>
									</valueentry>
									<valueentry>
										<name>Alpha</name>
										<value>2</value>
									</valueentry>
									<valueentry>
										<name>RGB</name>
										<value>3</value>
									</valueentry>
									<valueentry>
										<name>Red</name>
										<value>4</value>
									</valueentry>
									<valueentry>
										<name>Green</name>
										<value>5</value>
									</valueentry>
									<valueentry>
										<name>Blue</name>
										<value>6</value>
									</valueentry>
									<valueentry>
										<name>Luminance</name>
										<value>7</value>
									</valueentry>
								</valuelist>
								<value>1</value>
							</parameter>
							<parameter>
								<parameterid>radius</parameterid>
								<name>Radius</name>
								<valuemin>0</valuemin>
								<valuemax>100</valuemax>
								<value>9</value>
							</parameter>
						</effect>
					</filter>
					<filter>
						<effect>
							<name>Basic Motion</name>
							<effectid>basic</effectid>
							<effectcategory>motion</effectcategory>
							<effecttype>motion</effecttype>
							<mediatype>video</mediatype>
							<parameter>
								<parameterid>scale</parameterid>
								<name>Scale</name>
								<valuemin>0</valuemin>
								<valuemax>1000</valuemax>
								<value>106.044</value>
							</parameter>
							<parameter>
								<parameterid>rotation</parameterid>
								<name>Rotation</name>
								<valuemin>-8640</valuemin>
								<valuemax>8640</valuemax>
								<value>0</value>
							</parameter>
							<parameter>
								<parameterid>center</parameterid>
								<name>Center</name>
								<value>
									<horiz>0.00416667</horiz>
									<vert>0.0037037</vert>
								</value>
							</parameter>
							<parameter>
								<parameterid>centerOffset</parameterid>
								<name>Anchor Point</name>
								<value>
									<horiz>0</horiz>
									<vert>0</vert>
								</value>
							</parameter>
						</effect>
					</filter>
					<filter>
						<enabled>FALSE</enabled>
						<effect>
							<name>Drop Shadow</name>
							<effectid>dropshadow</effectid>
							<effectcategory>motion</effectcategory>
							<effecttype>motion</effecttype>
							<mediatype>video</mediatype>
							<parameter>
								<parameterid>offset</parameterid>
								<name>offset</name>
								<valuemin>-100</valuemin>
								<valuemax>100</valuemax>
								<value>2</value>
							</parameter>
							<parameter>
								<parameterid>angle</parameterid>
								<name>angle</name>
								<valuemin>-720</valuemin>
								<valuemax>720</valuemax>
								<value>135</value>
							</parameter>
							<parameter>
								<parameterid>color</parameterid>
								<name>color</name>
								<value>
									<alpha>0</alpha>
									<red>0</red>
									<green>0</green>
									<blue>0</blue>
								</value>
							</parameter>
							<parameter>
								<parameterid>softness</parameterid>
								<name>softness</name>
								<valuemin>0</valuemin>
								<valuemax>100</valuemax>
								<value>10</value>
							</parameter>
							<parameter>
								<parameterid>opacity</parameterid>
								<name>opacity</name>
								<valuemin>0</valuemin>
								<valuemax>100</valuemax>
								<value>50</value>
							</parameter>
						</effect>
					</filter>
					<filter>
						<enabled>FALSE</enabled>
						<effect>
							<name>Motion Blur</name>
							<effectid>motionblur</effectid>
							<effectcategory>motion</effectcategory>
							<effecttype>motion</effecttype>
							<mediatype>video</mediatype>
							<parameter>
								<parameterid>duration</parameterid>
								<name>% Blur</name>
								<valuemin>0</valuemin>
								<valuemax>1000</valuemax>
								<value>500</value>
							</parameter>
							<parameter>
								<parameterid>samples</parameterid>
								<name>Samples</name>
								<valuemin>1</valuemin>
								<valuemax>16</valuemax>
								<value>4</value>
							</parameter>
						</effect>
					</filter>
					<filter>
						<effect>
							<name>Crop</name>
							<effectid>crop</effectid>
							<effectcategory>motion</effectcategory>
							<effecttype>motion</effecttype>
							<mediatype>video</mediatype>
							<parameter>
								<parameterid>left</parameterid>
								<name>left</name>
								<valuemin>0</valuemin>
								<valuemax>100</valuemax>
								<value>0</value>
							</parameter>
							<parameter>
								<parameterid>right</parameterid>
								<name>right</name>
								<valuemin>0</valuemin>
								<valuemax>100</valuemax>
								<value>0</value>
							</parameter>
							<parameter>
								<parameterid>top</parameterid>
								<name>top</name>
								<valuemin>0</valuemin>
								<valuemax>100</valuemax>
								<value>0</value>
							</parameter>
							<parameter>
								<parameterid>bottom</parameterid>
								<name>bottom</name>
								<valuemin>0</valuemin>
								<valuemax>100</valuemax>
								<value>0</value>
							</parameter>
							<parameter>
								<parameterid>edgefeather</parameterid>
								<name>edgefeather</name>
								<valuemin>0</valuemin>
								<valuemax>100</valuemax>
								<value>0</value>
							</parameter>
						</effect>
					</filter>
					<filter>
						<effect>
							<name>Distort</name>
							<effectid>deformation</effectid>
							<effectcategory>motion</effectcategory>
							<effecttype>motion</effecttype>
							<mediatype>video</mediatype>
							<parameter>
								<parameterid>ulcorner</parameterid>
								<name>Upper Left</name>
								<value>
									<horiz>-0.5</horiz>
									<vert>-0.5</vert>
								</value>
							</parameter>
							<parameter>
								<parameterid>urcorner</parameterid>
								<name>Upper Right</name>
								<value>
									<horiz>0.5</horiz>
									<vert>-0.5</vert>
								</value>
							</parameter>
							<parameter>
								<parameterid>lrcorner</parameterid>
								<name>Lower Right</name>
								<value>
									<horiz>0.5</horiz>
									<vert>0.5</vert>
								</value>
							</parameter>
							<parameter>
								<parameterid>llcorner</parameterid>
								<name>Lower Left</name>
								<value>
									<horiz>-0.5</horiz>
									<vert>0.5</vert>
								</value>
							</parameter>
							<parameter>
								<parameterid>aspect</parameterid>
								<name>Aspect</name>
								<valuemin>-10000</valuemin>
								<valuemax>10000</valuemax>
								<value>0</value>
							</parameter>
						</effect>
					</filter>
					<filter>
						<effect>
							<name>Opacity</name>
							<effectid>opacity</effectid>
							<effectcategory>motion</effectcategory>
							<effecttype>motion</effecttype>
							<mediatype>video</mediatype>
							<parameter>
								<parameterid>opacity</parameterid>
								<name>opacity</name>
								<valuemin>0</valuemin>
								<valuemax>100</valuemax>
								<value>100</value>
							</parameter>
						</effect>
					</filter>
					<sourcetrack>
						<mediatype>video</mediatype>
					</sourcetrack>
					<fielddominance>none</fielddominance>
				</clipitem>
				<clipitem id="Logo Bumper_m.lydhale">
					<name>Logo Bumper_m.lydhale</name>
					<duration>102</duration>
					<rate>
						<ntsc>FALSE</ntsc>
						<timebase>25</timebase>
					</rate>
					<in>2</in>
					<out>63</out>
					<start>25906</start>
					<end>25967</end>
					<pixelaspectratio>Square</pixelaspectratio>
					<enabled>TRUE</enabled>
					<anamorphic>FALSE</anamorphic>
					<alphatype>straight</alphatype>
					<masterclipid>Logo Bumper_m.lydhale1</masterclipid>
					<logginginfo>
						<scene/>
						<shottake/>
						<lognote/>
						<good>FALSE</good>
					</logginginfo>
					<labels>
						<label2/>
					</labels>
					<comments>
						<mastercomment1/>
						<mastercomment2/>
						<mastercomment3/>
						<mastercomment4/>
					</comments>
					<file id="Logo Bumper_m.lydhale2">
						<name>Logo Bumper_m.lydhale.mov</name>
						<pathurl>file://localhost/Volumes/Prosjekter_SuperSAN1-1/MSUB20000012%20FIN%20FREDAG/SFX/Profil-grafikk/01_MASTER/BUMPERE/Logo%20Bumper_m.lydhale.mov</pathurl>
						<rate>
							<timebase>25</timebase>
						</rate>
						<duration>102</duration>
						<timecode>
							<rate>
								<timebase>25</timebase>
							</rate>
							<string>00:00:00:00</string>
							<frame>0</frame>
							<displayformat>NDF</displayformat>
							<source>source</source>
						</timecode>
						<media>
							<video>
								<duration>102</duration>
								<samplecharacteristics>
									<width>1920</width>
									<height>1080</height>
								</samplecharacteristics>
							</video>
							<audio>
								<rate>
									<timebase>48000</timebase>
								</rate>
								<trackcount>2</trackcount>
								<samplecharacteristics>
									<depth>16</depth>
								</samplecharacteristics>
							</audio>
						</media>
					</file>
					<sourcetrack>
						<mediatype>video</mediatype>
					</sourcetrack>
					<fielddominance>upper</fielddominance>
				</clipitem>
				<transitionitem id="38284424 ">
					<rate>
						<ntsc>FALSE</ntsc>
						<timebase>25</timebase>
					</rate>
					<start>29829</start>
					<end>29835</end>
					<alignment>start-black</alignment>
					<effect>
						<name>Push Slide Copy</name>
						<effectid>Push Slide</effectid>
						<effectcategory>Slide</effectcategory>
						<effecttype>transition</effecttype>
						<mediatype>video</mediatype>
						<wipecode>1</wipecode>
						<wipeaccuracy>100</wipeaccuracy>
						<startratio>0</startratio>
						<endratio>1</endratio>
						<reverse>FALSE</reverse>
						<parameter>
							<parameterid>angleofpush</parameterid>
							<name>Angle</name>
							<valuemin>-360</valuemin>
							<valuemax>360</valuemax>
							<value>0</value>
						</parameter>
						<parameter>
							<parameterid>borderwidth</parameterid>
							<name>Border</name>
							<valuemin>0</valuemin>
							<valuemax>10</valuemax>
							<value>0</value>
						</parameter>
						<parameter>
							<parameterid>bordercolor</parameterid>
							<name>Color</name>
							<value>
								<alpha>255</alpha>
								<red>0</red>
								<green>0</green>
								<blue>0</blue>
							</value>
						</parameter>
					</effect>
				</transitionitem>
				<clipitem id="bobbysocks.png">
					<name>bobbysocks.png</name>
					<duration>3026</duration>
					<rate>
						<ntsc>FALSE</ntsc>
						<timebase>25</timebase>
					</rate>
					<in>1500</in>
					<out>1610</out>
					<start>-1</start>
					<end>29939</end>
					<pixelaspectratio>Square</pixelaspectratio>
					<stillframe>TRUE</stillframe>
					<enabled>TRUE</enabled>
					<anamorphic>FALSE</anamorphic>
					<alphatype>straight</alphatype>
					<masterclipid>bobbysocks.png1</masterclipid>
					<logginginfo>
						<scene/>
						<shottake/>
						<lognote/>
						<good>FALSE</good>
					</logginginfo>
					<labels>
						<label2/>
					</labels>
					<comments>
						<mastercomment1/>
						<mastercomment2/>
						<mastercomment3/>
						<mastercomment4/>
					</comments>
					<file id="bobbysocks">
						<name>bobbysocks.png</name>
						<pathurl>file://localhost/SuperSAN1/Prosjekter/MSUB20000012%20FIN%20FREDAG/FCP-PROSJEKTER,%20sesong%202/program%201%20Jenny/Supere/bobbysocks.png</pathurl>
						<rate>
							<timebase>25</timebase>
						</rate>
						<duration>2</duration>
						<width>1463</width>
						<height>393</height>
						<media>
							<video>
								<duration>2</duration>
								<stillframe>TRUE</stillframe>
								<samplecharacteristics>
									<width>1463</width>
									<height>393</height>
								</samplecharacteristics>
							</video>
						</media>
					</file>
					<filter>
						<effect>
							<name>Basic Motion</name>
							<effectid>basic</effectid>
							<effectcategory>motion</effectcategory>
							<effecttype>motion</effecttype>
							<mediatype>video</mediatype>
							<parameter>
								<parameterid>scale</parameterid>
								<name>Scale</name>
								<valuemin>0</valuemin>
								<valuemax>1000</valuemax>
								<value>45</value>
							</parameter>
							<parameter>
								<parameterid>center</parameterid>
								<name>Center</name>
								<value>
									<horiz>-0.354098</horiz>
									<vert>0.792683</vert>
								</value>
							</parameter>
							<parameter>
								<parameterid>rotation</parameterid>
								<name>Rotation</name>
								<valuemin>-8640</valuemin>
								<valuemax>8640</valuemax>
								<value>0</value>
							</parameter>
							<parameter>
								<parameterid>centerOffset</parameterid>
								<name>Anchor Point</name>
								<value>
									<horiz>0</horiz>
									<vert>0</vert>
								</value>
							</parameter>
						</effect>
					</filter>
					<filter>
						<enabled>FALSE</enabled>
						<effect>
							<name>Drop Shadow</name>
							<effectid>dropshadow</effectid>
							<effectcategory>motion</effectcategory>
							<effecttype>motion</effecttype>
							<mediatype>video</mediatype>
							<parameter>
								<parameterid>offset</parameterid>
								<name>offset</name>
								<valuemin>-100</valuemin>
								<valuemax>100</valuemax>
								<value>2</value>
							</parameter>
							<parameter>
								<parameterid>angle</parameterid>
								<name>angle</name>
								<valuemin>-720</valuemin>
								<valuemax>720</valuemax>
								<value>135</value>
							</parameter>
							<parameter>
								<parameterid>color</parameterid>
								<name>color</name>
								<value>
									<alpha>0</alpha>
									<red>0</red>
									<green>0</green>
									<blue>0</blue>
								</value>
							</parameter>
							<parameter>
								<parameterid>softness</parameterid>
								<name>softness</name>
								<valuemin>0</valuemin>
								<valuemax>100</valuemax>
								<value>10</value>
							</parameter>
							<parameter>
								<parameterid>opacity</parameterid>
								<name>opacity</name>
								<valuemin>0</valuemin>
								<valuemax>100</valuemax>
								<value>50</value>
							</parameter>
						</effect>
					</filter>
					<filter>
						<enabled>FALSE</enabled>
						<effect>
							<name>Motion Blur</name>
							<effectid>motionblur</effectid>
							<effectcategory>motion</effectcategory>
							<effecttype>motion</effecttype>
							<mediatype>video</mediatype>
							<parameter>
								<parameterid>duration</parameterid>
								<name>% Blur</name>
								<valuemin>0</valuemin>
								<valuemax>1000</valuemax>
								<value>500</value>
							</parameter>
							<parameter>
								<parameterid>samples</parameterid>
								<name>Samples</name>
								<valuemin>1</valuemin>
								<valuemax>16</valuemax>
								<value>4</value>
							</parameter>
						</effect>
					</filter>
					<filter>
						<effect>
							<name>Crop</name>
							<effectid>crop</effectid>
							<effectcategory>motion</effectcategory>
							<effecttype>motion</effecttype>
							<mediatype>video</mediatype>
							<parameter>
								<parameterid>left</parameterid>
								<name>left</name>
								<valuemin>0</valuemin>
								<valuemax>100</valuemax>
								<value>0</value>
							</parameter>
							<parameter>
								<parameterid>right</parameterid>
								<name>right</name>
								<valuemin>0</valuemin>
								<valuemax>100</valuemax>
								<value>0</value>
							</parameter>
							<parameter>
								<parameterid>top</parameterid>
								<name>top</name>
								<valuemin>0</valuemin>
								<valuemax>100</valuemax>
								<value>0</value>
							</parameter>
							<parameter>
								<parameterid>bottom</parameterid>
								<name>bottom</name>
								<valuemin>0</valuemin>
								<valuemax>100</valuemax>
								<value>0</value>
							</parameter>
							<parameter>
								<parameterid>edgefeather</parameterid>
								<name>edgefeather</name>
								<valuemin>0</valuemin>
								<valuemax>100</valuemax>
								<value>0</value>
							</parameter>
						</effect>
					</filter>
					<filter>
						<effect>
							<name>Distort</name>
							<effectid>deformation</effectid>
							<effectcategory>motion</effectcategory>
							<effecttype>motion</effecttype>
							<mediatype>video</mediatype>
							<parameter>
								<parameterid>ulcorner</parameterid>
								<name>Upper Left</name>
								<value>
									<horiz>-0.5</horiz>
									<vert>-0.5</vert>
								</value>
							</parameter>
							<parameter>
								<parameterid>urcorner</parameterid>
								<name>Upper Right</name>
								<value>
									<horiz>0.5</horiz>
									<vert>-0.5</vert>
								</value>
							</parameter>
							<parameter>
								<parameterid>lrcorner</parameterid>
								<name>Lower Right</name>
								<value>
									<horiz>0.5</horiz>
									<vert>0.5</vert>
								</value>
							</parameter>
							<parameter>
								<parameterid>llcorner</parameterid>
								<name>Lower Left</name>
								<value>
									<horiz>-0.5</horiz>
									<vert>0.5</vert>
								</value>
							</parameter>
							<parameter>
								<parameterid>aspect</parameterid>
								<name>Aspect</name>
								<valuemin>-10000</valuemin>
								<valuemax>10000</valuemax>
								<value>0</value>
							</parameter>
						</effect>
					</filter>
					<filter>
						<effect>
							<name>Opacity</name>
							<effectid>opacity</effectid>
							<effectcategory>motion</effectcategory>
							<effecttype>motion</effecttype>
							<mediatype>video</mediatype>
							<parameter>
								<parameterid>opacity</parameterid>
								<name>opacity</name>
								<valuemin>0</valuemin>
								<valuemax>100</valuemax>
								<value>100</value>
							</parameter>
						</effect>
					</filter>
					<sourcetrack>
						<mediatype>video</mediatype>
					</sourcetrack>
					<fielddominance>none</fielddominance>
				</clipitem>
				<transitionitem id="38287892 ">
					<rate>
						<ntsc>FALSE</ntsc>
						<timebase>25</timebase>
					</rate>
					<start>31840</start>
					<end>31844</end>
					<alignment>center</alignment>
					<effect>
						<name>Push Slide</name>
						<effectid>Push Slide</effectid>
						<effectcategory>Slide</effectcategory>
						<effecttype>transition</effecttype>
						<mediatype>video</mediatype>
						<wipecode>1</wipecode>
						<wipeaccuracy>100</wipeaccuracy>
						<startratio>0</startratio>
						<endratio>1</endratio>
						<reverse>FALSE</reverse>
						<parameter>
							<parameterid>angleofpush</parameterid>
							<name>Angle</name>
							<valuemin>-360</valuemin>
							<valuemax>360</valuemax>
							<value>270</value>
						</parameter>
						<parameter>
							<parameterid>borderwidth</parameterid>
							<name>Border</name>
							<valuemin>0</valuemin>
							<valuemax>10</valuemax>
							<value>0</value>
						</parameter>
						<parameter>
							<parameterid>bordercolor</parameterid>
							<name>Color</name>
							<value>
								<alpha>255</alpha>
								<red>0</red>
								<green>0</green>
								<blue>0</blue>
							</value>
						</parameter>
					</effect>
				</transitionitem>
				<clipitem id="Kristine-fotballkjole-70.png2">
					<name>Kristine-fotballkjole-70.png</name>
					<duration>3026</duration>
					<rate>
						<ntsc>FALSE</ntsc>
						<timebase>25</timebase>
					</rate>
					<in>1489</in>
					<out>1505</out>
					<start>-1</start>
					<end>31856</end>
					<pixelaspectratio>Square</pixelaspectratio>
					<stillframe>TRUE</stillframe>
					<enabled>TRUE</enabled>
					<anamorphic>FALSE</anamorphic>
					<alphatype>straight</alphatype>
					<masterclipid>Kristine-fotballkjole-70.png1</masterclipid>
					<logginginfo>
						<scene/>
						<shottake/>
						<lognote/>
						<good>FALSE</good>
					</logginginfo>
					<labels>
						<label2/>
					</labels>
					<comments>
						<mastercomment1/>
						<mastercomment2/>
						<mastercomment3/>
						<mastercomment4/>
					</comments>
					<file id="Kristine-fotballkjole-70 "/>
					<filter>
						<enabled>TRUE</enabled>
						<start>-1</start>
						<end>-1</end>
						<effect>
							<name>Colorize</name>
							<effecttype>filter</effecttype>
							<mediatype>video</mediatype>
							<parameter>
								<parameterid>input_1</parameterid>
								<name>Remap Black To</name>
								<value>
									<alpha>255</alpha>
									<red>23</red>
									<green>0</green>
									<blue>0</blue>
								</value>
							</parameter>
							<parameter>
								<parameterid>input_2</parameterid>
								<name>Remap White To</name>
								<value>
									<alpha>255</alpha>
									<red>0</red>
									<green>0</green>
									<blue>0</blue>
								</value>
							</parameter>
							<parameter>
								<parameterid>input_3</parameterid>
								<name>Intensity</name>
								<valuemin>0</valuemin>
								<valuemax>1</valuemax>
								<value>1</value>
							</parameter>
							<parameter>
								<parameterid>FCP_FilterMix</parameterid>
								<name>Mix</name>
								<valuemin>0</valuemin>
								<valuemax>100</valuemax>
								<value>100</value>
							</parameter>
						</effect>
					</filter>
					<filter>
						<effect>
							<name>Basic Motion</name>
							<effectid>basic</effectid>
							<effectcategory>motion</effectcategory>
							<effecttype>motion</effecttype>
							<mediatype>video</mediatype>
							<parameter>
								<parameterid>scale</parameterid>
								<name>Scale</name>
								<valuemin>0</valuemin>
								<valuemax>1000</valuemax>
								<value>39</value>
							</parameter>
							<parameter>
								<parameterid>center</parameterid>
								<name>Center</name>
								<value>
									<horiz>-0.0918367</horiz>
									<vert>0.00301003</vert>
								</value>
							</parameter>
							<parameter>
								<parameterid>rotation</parameterid>
								<name>Rotation</name>
								<valuemin>-8640</valuemin>
								<valuemax>8640</valuemax>
								<value>0</value>
							</parameter>
							<parameter>
								<parameterid>centerOffset</parameterid>
								<name>Anchor Point</name>
								<value>
									<horiz>0</horiz>
									<vert>0</vert>
								</value>
							</parameter>
						</effect>
					</filter>
					<filter>
						<effect>
							<name>Distort</name>
							<effectid>deformation</effectid>
							<effectcategory>motion</effectcategory>
							<effecttype>motion</effecttype>
							<mediatype>video</mediatype>
							<parameter>
								<parameterid>aspect</parameterid>
								<name>Aspect</name>
								<valuemin>-10000</valuemin>
								<valuemax>10000</valuemax>
								<value>0.704925</value>
							</parameter>
							<parameter>
								<parameterid>ulcorner</parameterid>
								<name>Upper Left</name>
								<value>
									<horiz>-0.5</horiz>
									<vert>-0.5</vert>
								</value>
							</parameter>
							<parameter>
								<parameterid>urcorner</parameterid>
								<name>Upper Right</name>
								<value>
									<horiz>0.5</horiz>
									<vert>-0.5</vert>
								</value>
							</parameter>
							<parameter>
								<parameterid>lrcorner</parameterid>
								<name>Lower Right</name>
								<value>
									<horiz>0.5</horiz>
									<vert>0.5</vert>
								</value>
							</parameter>
							<parameter>
								<parameterid>llcorner</parameterid>
								<name>Lower Left</name>
								<value>
									<horiz>-0.5</horiz>
									<vert>0.5</vert>
								</value>
							</parameter>
						</effect>
					</filter>
					<filter>
						<enabled>FALSE</enabled>
						<effect>
							<name>Drop Shadow</name>
							<effectid>dropshadow</effectid>
							<effectcategory>motion</effectcategory>
							<effecttype>motion</effecttype>
							<mediatype>video</mediatype>
							<parameter>
								<parameterid>offset</parameterid>
								<name>offset</name>
								<valuemin>-100</valuemin>
								<valuemax>100</valuemax>
								<value>2</value>
							</parameter>
							<parameter>
								<parameterid>angle</parameterid>
								<name>angle</name>
								<valuemin>-720</valuemin>
								<valuemax>720</valuemax>
								<value>135</value>
							</parameter>
							<parameter>
								<parameterid>color</parameterid>
								<name>color</name>
								<value>
									<alpha>0</alpha>
									<red>0</red>
									<green>0</green>
									<blue>0</blue>
								</value>
							</parameter>
							<parameter>
								<parameterid>softness</parameterid>
								<name>softness</name>
								<valuemin>0</valuemin>
								<valuemax>100</valuemax>
								<value>10</value>
							</parameter>
							<parameter>
								<parameterid>opacity</parameterid>
								<name>opacity</name>
								<valuemin>0</valuemin>
								<valuemax>100</valuemax>
								<value>50</value>
							</parameter>
						</effect>
					</filter>
					<filter>
						<enabled>FALSE</enabled>
						<effect>
							<name>Motion Blur</name>
							<effectid>motionblur</effectid>
							<effectcategory>motion</effectcategory>
							<effecttype>motion</effecttype>
							<mediatype>video</mediatype>
							<parameter>
								<parameterid>duration</parameterid>
								<name>% Blur</name>
								<valuemin>0</valuemin>
								<valuemax>1000</valuemax>
								<value>500</value>
							</parameter>
							<parameter>
								<parameterid>samples</parameterid>
								<name>Samples</name>
								<valuemin>1</valuemin>
								<valuemax>16</valuemax>
								<value>4</value>
							</parameter>
						</effect>
					</filter>
					<filter>
						<effect>
							<name>Crop</name>
							<effectid>crop</effectid>
							<effectcategory>motion</effectcategory>
							<effecttype>motion</effecttype>
							<mediatype>video</mediatype>
							<parameter>
								<parameterid>left</parameterid>
								<name>left</name>
								<valuemin>0</valuemin>
								<valuemax>100</valuemax>
								<value>0</value>
							</parameter>
							<parameter>
								<parameterid>right</parameterid>
								<name>right</name>
								<valuemin>0</valuemin>
								<valuemax>100</valuemax>
								<value>0</value>
							</parameter>
							<parameter>
								<parameterid>top</parameterid>
								<name>top</name>
								<valuemin>0</valuemin>
								<valuemax>100</valuemax>
								<value>0</value>
							</parameter>
							<parameter>
								<parameterid>bottom</parameterid>
								<name>bottom</name>
								<valuemin>0</valuemin>
								<valuemax>100</valuemax>
								<value>0</value>
							</parameter>
							<parameter>
								<parameterid>edgefeather</parameterid>
								<name>edgefeather</name>
								<valuemin>0</valuemin>
								<valuemax>100</valuemax>
								<value>0</value>
							</parameter>
						</effect>
					</filter>
					<filter>
						<effect>
							<name>Opacity</name>
							<effectid>opacity</effectid>
							<effectcategory>motion</effectcategory>
							<effecttype>motion</effecttype>
							<mediatype>video</mediatype>
							<parameter>
								<parameterid>opacity</parameterid>
								<name>opacity</name>
								<valuemin>0</valuemin>
								<valuemax>100</valuemax>
								<value>100</value>
							</parameter>
						</effect>
					</filter>
					<sourcetrack>
						<mediatype>video</mediatype>
					</sourcetrack>
					<fielddominance>none</fielddominance>
				</clipitem>
				<clipitem id="Kristine-fotballkjole-70.png3">
					<name>Kristine-fotballkjole-70.png</name>
					<duration>3026</duration>
					<rate>
						<ntsc>FALSE</ntsc>
						<timebase>25</timebase>
					</rate>
					<in>1505</in>
					<out>1527</out>
					<start>31856</start>
					<end>-1</end>
					<pixelaspectratio>Square</pixelaspectratio>
					<stillframe>TRUE</stillframe>
					<enabled>TRUE</enabled>
					<anamorphic>FALSE</anamorphic>
					<alphatype>straight</alphatype>
					<masterclipid>Kristine-fotballkjole-70.png1</masterclipid>
					<logginginfo>
						<scene/>
						<shottake/>
						<lognote/>
						<good>FALSE</good>
					</logginginfo>
					<labels>
						<label2/>
					</labels>
					<comments>
						<mastercomment1/>
						<mastercomment2/>
						<mastercomment3/>
						<mastercomment4/>
					</comments>
					<file id="Kristine-fotballkjole-70 "/>
					<filter>
						<enabled>TRUE</enabled>
						<start>-1</start>
						<end>-1</end>
						<effect>
							<name>Colorize</name>
							<effecttype>filter</effecttype>
							<mediatype>video</mediatype>
							<parameter>
								<parameterid>input_1</parameterid>
								<name>Remap Black To</name>
								<value>
									<alpha>255</alpha>
									<red>23</red>
									<green>0</green>
									<blue>0</blue>
								</value>
							</parameter>
							<parameter>
								<parameterid>input_2</parameterid>
								<name>Remap White To</name>
								<value>
									<alpha>255</alpha>
									<red>0</red>
									<green>0</green>
									<blue>0</blue>
								</value>
							</parameter>
							<parameter>
								<parameterid>input_3</parameterid>
								<name>Intensity</name>
								<valuemin>0</valuemin>
								<valuemax>1</valuemax>
								<value>1</value>
							</parameter>
							<parameter>
								<parameterid>FCP_FilterMix</parameterid>
								<name>Mix</name>
								<valuemin>0</valuemin>
								<valuemax>100</valuemax>
								<value>100</value>
							</parameter>
						</effect>
					</filter>
					<filter>
						<enabled>TRUE</enabled>
						<start>-1</start>
						<end>-1</end>
						<effect>
							<name>G Earthquaker</name>
							<effectcategory>Nattress Big Box of Tricks - Extra Touches</effectcategory>
							<effecttype>filter</effecttype>
							<mediatype>video</mediatype>
							<parameter>
								<parameterid>mode</parameterid>
								<name>Mode</name>
								<valuemin>1</valuemin>
								<valuemax>2</valuemax>
								<valuelist>
									<valueentry>
										<name>Shake</name>
										<value>1</value>
									</valueentry>
									<valueentry>
										<name>Quake</name>
										<value>2</value>
									</valueentry>
								</valuelist>
								<value>2</value>
							</parameter>
							<parameter>
								<parameterid>amount</parameterid>
								<name>Amount</name>
								<valuemin>0</valuemin>
								<valuemax>100</valuemax>
								<keyframe>
									<when>1506.16</when>
									<value>0</value>
								</keyframe>
								<keyframe>
									<when>1517.74</when>
									<value>100</value>
									<inscale>0</inscale>
									<inbez>
										<horiz>2.5</horiz>
										<vert>-3.14159</vert>
									</inbez>
								</keyframe>
								<interpolation>
									<name>FCPCurve</name>
								</interpolation>
								<value>100</value>
							</parameter>
							<parameter>
								<parameterid>strength</parameterid>
								<name>Strength</name>
								<valuemin>1</valuemin>
								<valuemax>10</valuemax>
								<value>5</value>
							</parameter>
							<parameter>
								<parameterid>mass</parameterid>
								<name>Mass</name>
								<valuemin>0.5</valuemin>
								<valuemax>10</valuemax>
								<value>1</value>
							</parameter>
							<parameter>
								<parameterid>k</parameterid>
								<name>Spring</name>
								<valuemin>0</valuemin>
								<valuemax>1</valuemax>
								<value>0.3</value>
							</parameter>
							<parameter>
								<parameterid>l</parameterid>
								<name>Length</name>
								<valuemin>0</valuemin>
								<valuemax>10</valuemax>
								<value>0</value>
							</parameter>
							<parameter>
								<parameterid>friction</parameterid>
								<name>Friction</name>
								<valuemin>0</valuemin>
								<valuemax>1</valuemax>
								<value>0.701299</value>
							</parameter>
							<parameter>
								<parameterid>diagnostic</parameterid>
								<name>Show Diagnostics</name>
								<value>FALSE</value>
							</parameter>
							<parameter>
								<parameterid>copyright</parameterid>
								<name>Â© www.nattress.com</name>
								<value>string</value>
							</parameter>
						</effect>
					</filter>
					<filter>
						<effect>
							<name>Basic Motion</name>
							<effectid>basic</effectid>
							<effectcategory>motion</effectcategory>
							<effecttype>motion</effecttype>
							<mediatype>video</mediatype>
							<parameter>
								<parameterid>scale</parameterid>
								<name>Scale</name>
								<valuemin>0</valuemin>
								<valuemax>1000</valuemax>
								<value>36.1204</value>
							</parameter>
							<parameter>
								<parameterid>center</parameterid>
								<name>Center</name>
								<value>
									<horiz>-0.0918355</horiz>
									<vert>0.00301003</vert>
								</value>
							</parameter>
							<parameter>
								<parameterid>rotation</parameterid>
								<name>Rotation</name>
								<valuemin>-8640</valuemin>
								<valuemax>8640</valuemax>
								<value>0</value>
							</parameter>
							<parameter>
								<parameterid>centerOffset</parameterid>
								<name>Anchor Point</name>
								<value>
									<horiz>0</horiz>
									<vert>0</vert>
								</value>
							</parameter>
						</effect>
					</filter>
					<filter>
						<effect>
							<name>Distort</name>
							<effectid>deformation</effectid>
							<effectcategory>motion</effectcategory>
							<effecttype>motion</effecttype>
							<mediatype>video</mediatype>
							<parameter>
								<parameterid>aspect</parameterid>
								<name>Aspect</name>
								<valuemin>-10000</valuemin>
								<valuemax>10000</valuemax>
								<value>0.704925</value>
							</parameter>
							<parameter>
								<parameterid>ulcorner</parameterid>
								<name>Upper Left</name>
								<value>
									<horiz>-0.5</horiz>
									<vert>-0.5</vert>
								</value>
							</parameter>
							<parameter>
								<parameterid>urcorner</parameterid>
								<name>Upper Right</name>
								<value>
									<horiz>0.5</horiz>
									<vert>-0.5</vert>
								</value>
							</parameter>
							<parameter>
								<parameterid>lrcorner</parameterid>
								<name>Lower Right</name>
								<value>
									<horiz>0.5</horiz>
									<vert>0.5</vert>
								</value>
							</parameter>
							<parameter>
								<parameterid>llcorner</parameterid>
								<name>Lower Left</name>
								<value>
									<horiz>-0.5</horiz>
									<vert>0.5</vert>
								</value>
							</parameter>
						</effect>
					</filter>
					<filter>
						<enabled>FALSE</enabled>
						<effect>
							<name>Drop Shadow</name>
							<effectid>dropshadow</effectid>
							<effectcategory>motion</effectcategory>
							<effecttype>motion</effecttype>
							<mediatype>video</mediatype>
							<parameter>
								<parameterid>offset</parameterid>
								<name>offset</name>
								<valuemin>-100</valuemin>
								<valuemax>100</valuemax>
								<value>2</value>
							</parameter>
							<parameter>
								<parameterid>angle</parameterid>
								<name>angle</name>
								<valuemin>-720</valuemin>
								<valuemax>720</valuemax>
								<value>135</value>
							</parameter>
							<parameter>
								<parameterid>color</parameterid>
								<name>color</name>
								<value>
									<alpha>0</alpha>
									<red>0</red>
									<green>0</green>
									<blue>0</blue>
								</value>
							</parameter>
							<parameter>
								<parameterid>softness</parameterid>
								<name>softness</name>
								<valuemin>0</valuemin>
								<valuemax>100</valuemax>
								<value>10</value>
							</parameter>
							<parameter>
								<parameterid>opacity</parameterid>
								<name>opacity</name>
								<valuemin>0</valuemin>
								<valuemax>100</valuemax>
								<value>50</value>
							</parameter>
						</effect>
					</filter>
					<filter>
						<enabled>FALSE</enabled>
						<effect>
							<name>Motion Blur</name>
							<effectid>motionblur</effectid>
							<effectcategory>motion</effectcategory>
							<effecttype>motion</effecttype>
							<mediatype>video</mediatype>
							<parameter>
								<parameterid>duration</parameterid>
								<name>% Blur</name>
								<valuemin>0</valuemin>
								<valuemax>1000</valuemax>
								<value>500</value>
							</parameter>
							<parameter>
								<parameterid>samples</parameterid>
								<name>Samples</name>
								<valuemin>1</valuemin>
								<valuemax>16</valuemax>
								<value>4</value>
							</parameter>
						</effect>
					</filter>
					<filter>
						<effect>
							<name>Crop</name>
							<effectid>crop</effectid>
							<effectcategory>motion</effectcategory>
							<effecttype>motion</effecttype>
							<mediatype>video</mediatype>
							<parameter>
								<parameterid>left</parameterid>
								<name>left</name>
								<valuemin>0</valuemin>
								<valuemax>100</valuemax>
								<value>0</value>
							</parameter>
							<parameter>
								<parameterid>right</parameterid>
								<name>right</name>
								<valuemin>0</valuemin>
								<valuemax>100</valuemax>
								<value>0</value>
							</parameter>
							<parameter>
								<parameterid>top</parameterid>
								<name>top</name>
								<valuemin>0</valuemin>
								<valuemax>100</valuemax>
								<value>0</value>
							</parameter>
							<parameter>
								<parameterid>bottom</parameterid>
								<name>bottom</name>
								<valuemin>0</valuemin>
								<valuemax>100</valuemax>
								<value>0</value>
							</parameter>
							<parameter>
								<parameterid>edgefeather</parameterid>
								<name>edgefeather</name>
								<valuemin>0</valuemin>
								<valuemax>100</valuemax>
								<value>0</value>
							</parameter>
						</effect>
					</filter>
					<filter>
						<effect>
							<name>Opacity</name>
							<effectid>opacity</effectid>
							<effectcategory>motion</effectcategory>
							<effecttype>motion</effecttype>
							<mediatype>video</mediatype>
							<parameter>
								<parameterid>opacity</parameterid>
								<name>opacity</name>
								<valuemin>0</valuemin>
								<valuemax>100</valuemax>
								<value>100</value>
							</parameter>
						</effect>
					</filter>
					<sourcetrack>
						<mediatype>video</mediatype>
					</sourcetrack>
					<fielddominance>none</fielddominance>
				</clipitem>
				<transitionitem id="19">
					<rate>
						<ntsc>FALSE</ntsc>
						<timebase>25</timebase>
					</rate>
					<start>31872</start>
					<end>31878</end>
					<alignment>center</alignment>
					<effect>
						<name>Flashframe</name>
						<effectid>Flashframe</effectid>
						<effectcategory>Too Much Too Soon</effectcategory>
						<effecttype>transition</effecttype>
						<mediatype>video</mediatype>
						<startratio>0</startratio>
						<endratio>1</endratio>
						<reverse>FALSE</reverse>
						<parameter>
							<parameterid>bl</parameterid>
							<name>Blur Amount</name>
							<valuemin>0</valuemin>
							<valuemax>100</valuemax>
							<value>50</value>
						</parameter>
						<parameter>
							<parameterid>bt</parameterid>
							<name>Blur Type</name>
							<valuemin>1</valuemin>
							<valuemax>4</valuemax>
							<valuelist>
								<valueentry>
									<name>Post blur</name>
									<value>1</value>
								</valueentry>
								<valueentry>
									<name>Pre Blur</name>
									<value>2</value>
								</valueentry>
								<valueentry>
									<name>Both Blurs</name>
									<value>3</value>
								</valueentry>
								<valueentry>
									<name>No Blur</name>
									<value>4</value>
								</valueentry>
							</valuelist>
							<value>3</value>
						</parameter>
						<parameter>
							<parameterid>ml</parameterid>
							<name>Max Luma</name>
							<valuemin>0</valuemin>
							<valuemax>120</valuemax>
							<value>100</value>
						</parameter>
					</effect>
				</transitionitem>
				<clipitem id="Kristine-fotballkjole-70.png4">
					<name>Kristine-fotballkjole-70.png</name>
					<duration>3026</duration>
					<rate>
						<ntsc>FALSE</ntsc>
						<timebase>25</timebase>
					</rate>
					<in>1521</in>
					<out>1600</out>
					<start>-1</start>
					<end>-1</end>
					<pixelaspectratio>Square</pixelaspectratio>
					<stillframe>TRUE</stillframe>
					<enabled>TRUE</enabled>
					<anamorphic>FALSE</anamorphic>
					<alphatype>straight</alphatype>
					<masterclipid>Kristine-fotballkjole-70.png1</masterclipid>
					<logginginfo>
						<scene/>
						<shottake/>
						<lognote/>
						<good>FALSE</good>
					</logginginfo>
					<labels>
						<label2/>
					</labels>
					<comments>
						<mastercomment1/>
						<mastercomment2/>
						<mastercomment3/>
						<mastercomment4/>
					</comments>
					<file id="Kristine-fotballkjole-70 "/>
					<filter>
						<effect>
							<name>Basic Motion</name>
							<effectid>basic</effectid>
							<effectcategory>motion</effectcategory>
							<effecttype>motion</effecttype>
							<mediatype>video</mediatype>
							<parameter>
								<parameterid>scale</parameterid>
								<name>Scale</name>
								<valuemin>0</valuemin>
								<valuemax>1000</valuemax>
								<keyframe>
									<when>1529</when>
									<value>39</value>
								</keyframe>
								<keyframe>
									<when>1531</when>
									<value>39</value>
								</keyframe>
								<keyframe>
									<when>1575</when>
									<value>42</value>
									<inscale>0</inscale>
									<inbez>
										<horiz>11</horiz>
										<vert>-3.14159</vert>
									</inbez>
								</keyframe>
								<interpolation>
									<name>FCPCurve</name>
								</interpolation>
								<value>42</value>
							</parameter>
							<parameter>
								<parameterid>center</parameterid>
								<name>Center</name>
								<value>
									<horiz>-0.0918355</horiz>
									<vert>0.00301003</vert>
								</value>
							</parameter>
							<parameter>
								<parameterid>rotation</parameterid>
								<name>Rotation</name>
								<valuemin>-8640</valuemin>
								<valuemax>8640</valuemax>
								<value>0</value>
							</parameter>
							<parameter>
								<parameterid>centerOffset</parameterid>
								<name>Anchor Point</name>
								<value>
									<horiz>0</horiz>
									<vert>0</vert>
								</value>
							</parameter>
						</effect>
					</filter>
					<filter>
						<effect>
							<name>Distort</name>
							<effectid>deformation</effectid>
							<effectcategory>motion</effectcategory>
							<effecttype>motion</effecttype>
							<mediatype>video</mediatype>
							<parameter>
								<parameterid>aspect</parameterid>
								<name>Aspect</name>
								<valuemin>-10000</valuemin>
								<valuemax>10000</valuemax>
								<value>0.704925</value>
							</parameter>
							<parameter>
								<parameterid>ulcorner</parameterid>
								<name>Upper Left</name>
								<value>
									<horiz>-0.5</horiz>
									<vert>-0.5</vert>
								</value>
							</parameter>
							<parameter>
								<parameterid>urcorner</parameterid>
								<name>Upper Right</name>
								<value>
									<horiz>0.5</horiz>
									<vert>-0.5</vert>
								</value>
							</parameter>
							<parameter>
								<parameterid>lrcorner</parameterid>
								<name>Lower Right</name>
								<value>
									<horiz>0.5</horiz>
									<vert>0.5</vert>
								</value>
							</parameter>
							<parameter>
								<parameterid>llcorner</parameterid>
								<name>Lower Left</name>
								<value>
									<horiz>-0.5</horiz>
									<vert>0.5</vert>
								</value>
							</parameter>
						</effect>
					</filter>
					<filter>
						<enabled>FALSE</enabled>
						<effect>
							<name>Drop Shadow</name>
							<effectid>dropshadow</effectid>
							<effectcategory>motion</effectcategory>
							<effecttype>motion</effecttype>
							<mediatype>video</mediatype>
							<parameter>
								<parameterid>offset</parameterid>
								<name>offset</name>
								<valuemin>-100</valuemin>
								<valuemax>100</valuemax>
								<value>2</value>
							</parameter>
							<parameter>
								<parameterid>angle</parameterid>
								<name>angle</name>
								<valuemin>-720</valuemin>
								<valuemax>720</valuemax>
								<value>135</value>
							</parameter>
							<parameter>
								<parameterid>color</parameterid>
								<name>color</name>
								<value>
									<alpha>0</alpha>
									<red>0</red>
									<green>0</green>
									<blue>0</blue>
								</value>
							</parameter>
							<parameter>
								<parameterid>softness</parameterid>
								<name>softness</name>
								<valuemin>0</valuemin>
								<valuemax>100</valuemax>
								<value>10</value>
							</parameter>
							<parameter>
								<parameterid>opacity</parameterid>
								<name>opacity</name>
								<valuemin>0</valuemin>
								<valuemax>100</valuemax>
								<value>50</value>
							</parameter>
						</effect>
					</filter>
					<filter>
						<enabled>FALSE</enabled>
						<effect>
							<name>Motion Blur</name>
							<effectid>motionblur</effectid>
							<effectcategory>motion</effectcategory>
							<effecttype>motion</effecttype>
							<mediatype>video</mediatype>
							<parameter>
								<parameterid>duration</parameterid>
								<name>% Blur</name>
								<valuemin>0</valuemin>
								<valuemax>1000</valuemax>
								<value>500</value>
							</parameter>
							<parameter>
								<parameterid>samples</parameterid>
								<name>Samples</name>
								<valuemin>1</valuemin>
								<valuemax>16</valuemax>
								<value>4</value>
							</parameter>
						</effect>
					</filter>
					<filter>
						<effect>
							<name>Crop</name>
							<effectid>crop</effectid>
							<effectcategory>motion</effectcategory>
							<effecttype>motion</effecttype>
							<mediatype>video</mediatype>
							<parameter>
								<parameterid>left</parameterid>
								<name>left</name>
								<valuemin>0</valuemin>
								<valuemax>100</valuemax>
								<value>0</value>
							</parameter>
							<parameter>
								<parameterid>right</parameterid>
								<name>right</name>
								<valuemin>0</valuemin>
								<valuemax>100</valuemax>
								<value>0</value>
							</parameter>
							<parameter>
								<parameterid>top</parameterid>
								<name>top</name>
								<valuemin>0</valuemin>
								<valuemax>100</valuemax>
								<value>0</value>
							</parameter>
							<parameter>
								<parameterid>bottom</parameterid>
								<name>bottom</name>
								<valuemin>0</valuemin>
								<valuemax>100</valuemax>
								<value>0</value>
							</parameter>
							<parameter>
								<parameterid>edgefeather</parameterid>
								<name>edgefeather</name>
								<valuemin>0</valuemin>
								<valuemax>100</valuemax>
								<value>0</value>
							</parameter>
						</effect>
					</filter>
					<filter>
						<effect>
							<name>Opacity</name>
							<effectid>opacity</effectid>
							<effectcategory>motion</effectcategory>
							<effecttype>motion</effecttype>
							<mediatype>video</mediatype>
							<parameter>
								<parameterid>opacity</parameterid>
								<name>opacity</name>
								<valuemin>0</valuemin>
								<valuemax>100</valuemax>
								<value>100</value>
							</parameter>
						</effect>
					</filter>
					<sourcetrack>
						<mediatype>video</mediatype>
					</sourcetrack>
					<fielddominance>none</fielddominance>
				</clipitem>
				<transitionitem id="67043572 ">
					<rate>
						<ntsc>FALSE</ntsc>
						<timebase>25</timebase>
					</rate>
					<start>31939</start>
					<end>31951</end>
					<alignment>center</alignment>
					<effect>
						<name>Cross Zoom</name>
						<effectid>Cross Zoom</effectid>
						<effectcategory>3D Simulation</effectcategory>
						<effecttype>transition</effecttype>
						<mediatype>video</mediatype>
						<wipecode>17</wipecode>
						<wipeaccuracy>100</wipeaccuracy>
						<startratio>0</startratio>
						<endratio>1</endratio>
						<reverse>FALSE</reverse>
						<parameter>
							<parameterid>center</parameterid>
							<name>Center</name>
							<value>
								<horiz>-0.146054</horiz>
								<vert>0.182008</vert>
							</value>
						</parameter>
						<parameter>
							<parameterid>zoom</parameterid>
							<name>Zoom</name>
							<valuemin>0</valuemin>
							<valuemax>100</valuemax>
							<value>100</value>
						</parameter>
						<parameter>
							<parameterid>radius</parameterid>
							<name>Blur</name>
							<valuemin>0</valuemin>
							<valuemax>20</valuemax>
							<value>15</value>
						</parameter>
					</effect>
				</transitionitem>
				<clipitem id="Jenny-Skavland-cuyout-70.png5">
					<name>Jenny-Skavland-cuyout-70.png</name>
					<duration>3026</duration>
					<rate>
						<ntsc>FALSE</ntsc>
						<timebase>25</timebase>
					</rate>
					<in>1554</in>
					<out>1628</out>
					<start>32017</start>
					<end>-1</end>
					<pixelaspectratio>Square</pixelaspectratio>
					<stillframe>TRUE</stillframe>
					<enabled>TRUE</enabled>
					<anamorphic>FALSE</anamorphic>
					<alphatype>straight</alphatype>
					<masterclipid>Jenny-Skavland-cuyout-70.png1</masterclipid>
					<logginginfo>
						<scene/>
						<shottake/>
						<lognote/>
						<good>FALSE</good>
					</logginginfo>
					<labels>
						<label2/>
					</labels>
					<comments>
						<mastercomment1/>
						<mastercomment2/>
						<mastercomment3/>
						<mastercomment4/>
					</comments>
					<file id="Jenny-Skavland-cuyout-70 "/>
					<filter>
						<effect>
							<name>Basic Motion</name>
							<effectid>basic</effectid>
							<effectcategory>motion</effectcategory>
							<effecttype>motion</effecttype>
							<mediatype>video</mediatype>
							<parameter>
								<parameterid>scale</parameterid>
								<name>Scale</name>
								<valuemin>0</valuemin>
								<valuemax>1000</valuemax>
								<value>70</value>
							</parameter>
							<parameter>
								<parameterid>center</parameterid>
								<name>Center</name>
								<value>
									<horiz>0.169947</horiz>
									<vert>0.130606</vert>
								</value>
							</parameter>
							<parameter>
								<parameterid>rotation</parameterid>
								<name>Rotation</name>
								<valuemin>-8640</valuemin>
								<valuemax>8640</valuemax>
								<value>0</value>
							</parameter>
							<parameter>
								<parameterid>centerOffset</parameterid>
								<name>Anchor Point</name>
								<value>
									<horiz>0</horiz>
									<vert>0</vert>
								</value>
							</parameter>
						</effect>
					</filter>
					<filter>
						<enabled>FALSE</enabled>
						<effect>
							<name>Drop Shadow</name>
							<effectid>dropshadow</effectid>
							<effectcategory>motion</effectcategory>
							<effecttype>motion</effecttype>
							<mediatype>video</mediatype>
							<parameter>
								<parameterid>offset</parameterid>
								<name>offset</name>
								<valuemin>-100</valuemin>
								<valuemax>100</valuemax>
								<value>2</value>
							</parameter>
							<parameter>
								<parameterid>angle</parameterid>
								<name>angle</name>
								<valuemin>-720</valuemin>
								<valuemax>720</valuemax>
								<value>135</value>
							</parameter>
							<parameter>
								<parameterid>color</parameterid>
								<name>color</name>
								<value>
									<alpha>0</alpha>
									<red>0</red>
									<green>0</green>
									<blue>0</blue>
								</value>
							</parameter>
							<parameter>
								<parameterid>softness</parameterid>
								<name>softness</name>
								<valuemin>0</valuemin>
								<valuemax>100</valuemax>
								<value>10</value>
							</parameter>
							<parameter>
								<parameterid>opacity</parameterid>
								<name>opacity</name>
								<valuemin>0</valuemin>
								<valuemax>100</valuemax>
								<value>50</value>
							</parameter>
						</effect>
					</filter>
					<filter>
						<enabled>FALSE</enabled>
						<effect>
							<name>Motion Blur</name>
							<effectid>motionblur</effectid>
							<effectcategory>motion</effectcategory>
							<effecttype>motion</effecttype>
							<mediatype>video</mediatype>
							<parameter>
								<parameterid>duration</parameterid>
								<name>% Blur</name>
								<valuemin>0</valuemin>
								<valuemax>1000</valuemax>
								<value>500</value>
							</parameter>
							<parameter>
								<parameterid>samples</parameterid>
								<name>Samples</name>
								<valuemin>1</valuemin>
								<valuemax>16</valuemax>
								<value>4</value>
							</parameter>
						</effect>
					</filter>
					<filter>
						<effect>
							<name>Crop</name>
							<effectid>crop</effectid>
							<effectcategory>motion</effectcategory>
							<effecttype>motion</effecttype>
							<mediatype>video</mediatype>
							<parameter>
								<parameterid>left</parameterid>
								<name>left</name>
								<valuemin>0</valuemin>
								<valuemax>100</valuemax>
								<value>0</value>
							</parameter>
							<parameter>
								<parameterid>right</parameterid>
								<name>right</name>
								<valuemin>0</valuemin>
								<valuemax>100</valuemax>
								<value>0</value>
							</parameter>
							<parameter>
								<parameterid>top</parameterid>
								<name>top</name>
								<valuemin>0</valuemin>
								<valuemax>100</valuemax>
								<value>0</value>
							</parameter>
							<parameter>
								<parameterid>bottom</parameterid>
								<name>bottom</name>
								<valuemin>0</valuemin>
								<valuemax>100</valuemax>
								<value>0</value>
							</parameter>
							<parameter>
								<parameterid>edgefeather</parameterid>
								<name>edgefeather</name>
								<valuemin>0</valuemin>
								<valuemax>100</valuemax>
								<value>0</value>
							</parameter>
						</effect>
					</filter>
					<filter>
						<effect>
							<name>Distort</name>
							<effectid>deformation</effectid>
							<effectcategory>motion</effectcategory>
							<effecttype>motion</effecttype>
							<mediatype>video</mediatype>
							<parameter>
								<parameterid>ulcorner</parameterid>
								<name>Upper Left</name>
								<value>
									<horiz>-0.5</horiz>
									<vert>-0.5</vert>
								</value>
							</parameter>
							<parameter>
								<parameterid>urcorner</parameterid>
								<name>Upper Right</name>
								<value>
									<horiz>0.5</horiz>
									<vert>-0.5</vert>
								</value>
							</parameter>
							<parameter>
								<parameterid>lrcorner</parameterid>
								<name>Lower Right</name>
								<value>
									<horiz>0.5</horiz>
									<vert>0.5</vert>
								</value>
							</parameter>
							<parameter>
								<parameterid>llcorner</parameterid>
								<name>Lower Left</name>
								<value>
									<horiz>-0.5</horiz>
									<vert>0.5</vert>
								</value>
							</parameter>
							<parameter>
								<parameterid>aspect</parameterid>
								<name>Aspect</name>
								<valuemin>-10000</valuemin>
								<valuemax>10000</valuemax>
								<value>0</value>
							</parameter>
						</effect>
					</filter>
					<filter>
						<effect>
							<name>Opacity</name>
							<effectid>opacity</effectid>
							<effectcategory>motion</effectcategory>
							<effecttype>motion</effecttype>
							<mediatype>video</mediatype>
							<parameter>
								<parameterid>opacity</parameterid>
								<name>opacity</name>
								<valuemin>0</valuemin>
								<valuemax>100</valuemax>
								<value>100</value>
							</parameter>
						</effect>
					</filter>
					<sourcetrack>
						<mediatype>video</mediatype>
					</sourcetrack>
					<fielddominance>none</fielddominance>
				</clipitem>
				<transitionitem id="67046564 ">
					<rate>
						<ntsc>FALSE</ntsc>
						<timebase>25</timebase>
					</rate>
					<start>32085</start>
					<end>32091</end>
					<alignment>end-black</alignment>
					<effect>
						<name>Push Slide</name>
						<effectid>Push Slide</effectid>
						<effectcategory>Slide</effectcategory>
						<effecttype>transition</effecttype>
						<mediatype>video</mediatype>
						<wipecode>1</wipecode>
						<wipeaccuracy>100</wipeaccuracy>
						<startratio>0</startratio>
						<endratio>1</endratio>
						<reverse>FALSE</reverse>
						<parameter>
							<parameterid>angleofpush</parameterid>
							<name>Angle</name>
							<valuemin>-360</valuemin>
							<valuemax>360</valuemax>
							<value>0</value>
						</parameter>
						<parameter>
							<parameterid>borderwidth</parameterid>
							<name>Border</name>
							<valuemin>0</valuemin>
							<valuemax>10</valuemax>
							<value>0</value>
						</parameter>
						<parameter>
							<parameterid>bordercolor</parameterid>
							<name>Color</name>
							<value>
								<alpha>255</alpha>
								<red>0</red>
								<green>0</green>
								<blue>0</blue>
							</value>
						</parameter>
					</effect>
				</transitionitem>
				<clipitem id="Vignett test kvsR 00:00:41:12 ">
					<name>Vignett test kvsR 00:00:41:12</name>
					<duration>3000</duration>
					<rate>
						<ntsc>FALSE</ntsc>
						<timebase>25</timebase>
					</rate>
					<in>1488</in>
					<out>1503</out>
					<start>32745</start>
					<end>32760</end>
					<labels>
						<label>Best Take</label>
						<label2/>
					</labels>
					<comments>
						<mastercomment1/>
						<mastercomment2/>
						<mastercomment3/>
						<mastercomment4/>
					</comments>
					<logginginfo>
						<scene/>
						<shottake/>
						<lognote/>
						<good>FALSE</good>
					</logginginfo>
					<filter>
						<start>-1</start>
						<end>-1</end>
						<effect>
							<name>De-interlace</name>
							<effectid>De-interlace</effectid>
							<effectcategory>Video</effectcategory>
							<effecttype>filter</effecttype>
							<mediatype>video</mediatype>
							<parameter>
								<parameterid>field</parameterid>
								<name>Field</name>
								<valuemin>1</valuemin>
								<valuemax>5</valuemax>
								<valuelist>
									<valueentry>
										<name>Upper (Odd)</name>
										<value>1</value>
									</valueentry>
									<valueentry>
										<name>Lower (Even)</name>
										<value>2</value>
									</valueentry>
									<valueentry>
										<name>Flicker Filter (minimal)</name>
										<value>3</value>
									</valueentry>
									<valueentry>
										<name>Flicker Filter (medium)</name>
										<value>4</value>
									</valueentry>
									<valueentry>
										<name>Flicker Filter (max)</name>
										<value>5</value>
									</valueentry>
								</valuelist>
								<value>1</value>
							</parameter>
						</effect>
					</filter>
					<sequence id="Vignett test kvsR 00:00:41:12 1">
						<name>Vignett test kvsR 00:00:41:12</name>
						<duration>3000</duration>
						<rate>
							<ntsc>FALSE</ntsc>
							<timebase>25</timebase>
						</rate>
						<in>0</in>
						<out>3000</out>
						<media>
							<video>
								<format>
									<samplecharacteristics>
										<width>1920</width>
										<height>1080</height>
										<anamorphic>FALSE</anamorphic>
										<pixelaspectratio>Square</pixelaspectratio>
										<fielddominance>upper</fielddominance>
										<rate>
											<ntsc>FALSE</ntsc>
											<timebase>25</timebase>
										</rate>
										<colordepth>24</colordepth>
										<codec>
											<name>Apple XDCAM 422 1080i50 (50 Mb/s CBR)</name>
											<appspecificdata>
												<appname>Final Cut Pro</appname>
												<appmanufacturer>Apple Inc.</appmanufacturer>
												<appversion>7.0</appversion>
												<data>
													<qtcodec>
														<codecname>Apple XDCAM 422 1080i50 (50 Mb/s CBR)</codecname>
														<codectypename>XDCAM 422 1080i50 (50 Mb/s CBR)</codectypename>
														<codectypecode>xd5c</codectypecode>
														<codecvendorcode>appl</codecvendorcode>
														<spatialquality>1023</spatialquality>
														<temporalquality>0</temporalquality>
														<keyframerate>0</keyframerate>
														<datarate>0</datarate>
													</qtcodec>
												</data>
											</appspecificdata>
										</codec>
									</samplecharacteristics>
									<appspecificdata>
										<appname>Final Cut Pro</appname>
										<appmanufacturer>Apple Inc.</appmanufacturer>
										<appversion>7.0</appversion>
										<data>
											<fcpimageprocessing>
												<useyuv>TRUE</useyuv>
												<usesuperwhite>FALSE</usesuperwhite>
												<rendermode>YUV8BPP</rendermode>
											</fcpimageprocessing>
										</data>
									</appspecificdata>
								</format>
								<track>
									<clipitem id="Vignett test kvsR 00:00:41:12 2">
										<name>Vignett test kvsR 00:00:41:12</name>
										<duration>3000</duration>
										<rate>
											<ntsc>FALSE</ntsc>
											<timebase>25</timebase>
										</rate>
										<in>0</in>
										<out>3000</out>
										<start>0</start>
										<end>3000</end>
										<stillframeoffset>1200</stillframeoffset>
										<pixelaspectratio>Square</pixelaspectratio>
										<anamorphic>FALSE</anamorphic>
										<alphatype>none</alphatype>
										<alphareverse>FALSE</alphareverse>
										<syncoffset>0</syncoffset>
										<logginginfo>
											<description>msub200012-3011-k1d3-002</description>
											<scene/>
											<shottake/>
											<lognote/>
											<good>FALSE</good>
										</logginginfo>
										<labels>
											<label>Good Take</label>
											<label2/>
										</labels>
										<comments>
											<mastercomment1>RÃ…STOFF. BR_FINFREDAG_MSUA_OPRO</mastercomment1>
											<mastercomment2/>
											<mastercomment3/>
											<mastercomment4/>
											<clipcommenta/>
										</comments>
										<file id="msub200012-3011-k1d3-002 2"/>
										<sourcetrack>
											<mediatype>video</mediatype>
										</sourcetrack>
										<fielddominance>upper</fielddominance>
									</clipitem>
									<enabled>TRUE</enabled>
									<locked>FALSE</locked>
								</track>
								<track>
									<clipitem id="Vignett test kvsR 00:00:41:12 3">
										<name>Vignett test kvsR 00:00:41:12</name>
										<duration>3000</duration>
										<rate>
											<ntsc>FALSE</ntsc>
											<timebase>25</timebase>
										</rate>
										<in>0</in>
										<out>3000</out>
										<start>0</start>
										<end>3000</end>
										<stillframeoffset>1374</stillframeoffset>
										<pixelaspectratio>Square</pixelaspectratio>
										<enabled>TRUE</enabled>
										<anamorphic>FALSE</anamorphic>
										<alphatype>none</alphatype>
										<alphareverse>FALSE</alphareverse>
										<logginginfo>
											<description>msub200012-3011-k2d3-005</description>
											<scene/>
											<shottake/>
											<lognote/>
											<good>FALSE</good>
										</logginginfo>
										<labels>
											<label>Good Take</label>
											<label2/>
										</labels>
										<comments>
											<mastercomment1>RÃ…STOFF. BR_FINFREDAG_MSUA_OPRO</mastercomment1>
											<mastercomment2/>
											<mastercomment3/>
											<mastercomment4/>
											<clipcommenta/>
										</comments>
										<file id="msub200012-3011-k2d3-005 2"/>
										<sourcetrack>
											<mediatype>video</mediatype>
										</sourcetrack>
										<fielddominance>upper</fielddominance>
									</clipitem>
									<enabled>TRUE</enabled>
									<locked>FALSE</locked>
								</track>
								<track>
									<clipitem id="Vignett test kvsR 00:00:41:12 4">
										<name>Vignett test kvsR 00:00:41:12</name>
										<duration>3000</duration>
										<rate>
											<ntsc>FALSE</ntsc>
											<timebase>25</timebase>
										</rate>
										<in>0</in>
										<out>3000</out>
										<start>0</start>
										<end>3000</end>
										<labels>
											<label>Best Take</label>
											<label2/>
										</labels>
										<sequence id="Vignett test kvsR 00:00:41:11 4">
											<name>Vignett test kvsR 00:00:41:11</name>
											<duration>3000</duration>
											<rate>
												<ntsc>FALSE</ntsc>
												<timebase>25</timebase>
											</rate>
											<in>0</in>
											<out>3000</out>
											<media>
												<video>
													<format>
														<samplecharacteristics>
															<width>1920</width>
															<height>1080</height>
															<anamorphic>FALSE</anamorphic>
															<pixelaspectratio>Square</pixelaspectratio>
															<fielddominance>upper</fielddominance>
															<rate>
																<ntsc>FALSE</ntsc>
																<timebase>25</timebase>
															</rate>
															<colordepth>24</colordepth>
															<codec>
																<name>Apple XDCAM 422 1080i50 (50 Mb/s CBR)</name>
																<appspecificdata>
																	<appname>Final Cut Pro</appname>
																	<appmanufacturer>Apple Inc.</appmanufacturer>
																	<appversion>7.0</appversion>
																	<data>
																		<qtcodec>
																			<codecname>Apple XDCAM 422 1080i50 (50 Mb/s CBR)</codecname>
																			<codectypename>XDCAM 422 1080i50 (50 Mb/s CBR)</codectypename>
																			<codectypecode>xd5c</codectypecode>
																			<codecvendorcode>appl</codecvendorcode>
																			<spatialquality>1023</spatialquality>
																			<temporalquality>0</temporalquality>
																			<keyframerate>0</keyframerate>
																			<datarate>0</datarate>
																		</qtcodec>
																	</data>
																</appspecificdata>
															</codec>
														</samplecharacteristics>
														<appspecificdata>
															<appname>Final Cut Pro</appname>
															<appmanufacturer>Apple Inc.</appmanufacturer>
															<appversion>7.0</appversion>
															<data>
																<fcpimageprocessing>
																	<useyuv>TRUE</useyuv>
																	<usesuperwhite>FALSE</usesuperwhite>
																	<rendermode>YUV8BPP</rendermode>
																</fcpimageprocessing>
															</data>
														</appspecificdata>
													</format>
													<track>
														<clipitem id="Vignett test kvsR 00:00:41:11 5">
															<name>Vignett test kvsR 00:00:41:11</name>
															<duration>3000</duration>
															<rate>
																<ntsc>FALSE</ntsc>
																<timebase>25</timebase>
															</rate>
															<in>0</in>
															<out>3000</out>
															<start>0</start>
															<end>3000</end>
															<stillframeoffset>1199</stillframeoffset>
															<pixelaspectratio>Square</pixelaspectratio>
															<anamorphic>FALSE</anamorphic>
															<alphatype>none</alphatype>
															<alphareverse>FALSE</alphareverse>
															<syncoffset>0</syncoffset>
															<logginginfo>
																<description>msub200012-3011-k1d3-002</description>
																<scene/>
																<shottake/>
																<lognote/>
																<good>FALSE</good>
															</logginginfo>
															<labels>
																<label>Good Take</label>
																<label2/>
															</labels>
															<comments>
																<mastercomment1>RÃ…STOFF. BR_FINFREDAG_MSUA_OPRO</mastercomment1>
																<mastercomment2/>
																<mastercomment3/>
																<mastercomment4/>
																<clipcommenta/>
															</comments>
															<file id="msub200012-3011-k1d3-002 2"/>
															<sourcetrack>
																<mediatype>video</mediatype>
															</sourcetrack>
															<fielddominance>upper</fielddominance>
														</clipitem>
														<enabled>TRUE</enabled>
														<locked>FALSE</locked>
													</track>
													<track>
														<clipitem id="Vignett test kvsR 00:00:41:11 6">
															<name>Vignett test kvsR 00:00:41:11</name>
															<duration>3000</duration>
															<rate>
																<ntsc>FALSE</ntsc>
																<timebase>25</timebase>
															</rate>
															<in>0</in>
															<out>3000</out>
															<start>0</start>
															<end>3000</end>
															<stillframeoffset>1373</stillframeoffset>
															<pixelaspectratio>Square</pixelaspectratio>
															<enabled>TRUE</enabled>
															<anamorphic>FALSE</anamorphic>
															<alphatype>none</alphatype>
															<alphareverse>FALSE</alphareverse>
															<logginginfo>
																<description>msub200012-3011-k2d3-005</description>
																<scene/>
																<shottake/>
																<lognote/>
																<good>FALSE</good>
															</logginginfo>
															<labels>
																<label>Good Take</label>
																<label2/>
															</labels>
															<comments>
																<mastercomment1>RÃ…STOFF. BR_FINFREDAG_MSUA_OPRO</mastercomment1>
																<mastercomment2/>
																<mastercomment3/>
																<mastercomment4/>
																<clipcommenta/>
															</comments>
															<file id="msub200012-3011-k2d3-005 2"/>
															<sourcetrack>
																<mediatype>video</mediatype>
															</sourcetrack>
															<fielddominance>upper</fielddominance>
														</clipitem>
														<enabled>TRUE</enabled>
														<locked>FALSE</locked>
													</track>
												</video>
											</media>
										</sequence>
										<sourcetrack>
											<mediatype>video</mediatype>
										</sourcetrack>
										<ismasterclip>FALSE</ismasterclip>
									</clipitem>
									<enabled>TRUE</enabled>
									<locked>FALSE</locked>
								</track>
							</video>
						</media>
					</sequence>
					<sourcetrack>
						<mediatype>video</mediatype>
					</sourcetrack>
					<ismasterclip>FALSE</ismasterclip>
				</clipitem>
				<clipitem id="Jenny.png">
					<name>Jenny.png</name>
					<duration>3026</duration>
					<rate>
						<ntsc>FALSE</ntsc>
						<timebase>25</timebase>
					</rate>
					<in>1500</in>
					<out>1526</out>
					<start>34495</start>
					<end>-1</end>
					<pixelaspectratio>Square</pixelaspectratio>
					<stillframe>TRUE</stillframe>
					<enabled>TRUE</enabled>
					<anamorphic>FALSE</anamorphic>
					<alphatype>straight</alphatype>
					<masterclipid>Jenny.png1</masterclipid>
					<logginginfo>
						<scene/>
						<shottake/>
						<lognote/>
						<good>FALSE</good>
					</logginginfo>
					<labels>
						<label2/>
					</labels>
					<comments>
						<mastercomment1/>
						<mastercomment2/>
						<mastercomment3/>
						<mastercomment4/>
					</comments>
					<file id="Jenny">
						<name>Jenny.png</name>
						<pathurl>file://localhost/SuperSAN1/Prosjekter/MSUB20000012%20FIN%20FREDAG/test%20av%20Kristine%20og%20r%C3%B8kla/Jenny.png</pathurl>
						<rate>
							<timebase>25</timebase>
						</rate>
						<duration>2</duration>
						<width>2478</width>
						<height>393</height>
						<media>
							<video>
								<duration>2</duration>
								<stillframe>TRUE</stillframe>
								<samplecharacteristics>
									<width>2478</width>
									<height>393</height>
								</samplecharacteristics>
							</video>
						</media>
					</file>
					<filter>
						<effect>
							<name>Basic Motion</name>
							<effectid>basic</effectid>
							<effectcategory>motion</effectcategory>
							<effecttype>motion</effecttype>
							<mediatype>video</mediatype>
							<parameter>
								<parameterid>scale</parameterid>
								<name>Scale</name>
								<valuemin>0</valuemin>
								<valuemax>1000</valuemax>
								<value>100</value>
							</parameter>
							<parameter>
								<parameterid>center</parameterid>
								<name>Center</name>
								<value>
									<horiz>-0.0191606</horiz>
									<vert>0.87931</vert>
								</value>
							</parameter>
							<parameter>
								<parameterid>rotation</parameterid>
								<name>Rotation</name>
								<valuemin>-8640</valuemin>
								<valuemax>8640</valuemax>
								<value>-6</value>
							</parameter>
							<parameter>
								<parameterid>centerOffset</parameterid>
								<name>Anchor Point</name>
								<value>
									<horiz>0</horiz>
									<vert>0</vert>
								</value>
							</parameter>
						</effect>
					</filter>
					<filter>
						<enabled>FALSE</enabled>
						<effect>
							<name>Drop Shadow</name>
							<effectid>dropshadow</effectid>
							<effectcategory>motion</effectcategory>
							<effecttype>motion</effecttype>
							<mediatype>video</mediatype>
							<parameter>
								<parameterid>offset</parameterid>
								<name>offset</name>
								<valuemin>-100</valuemin>
								<valuemax>100</valuemax>
								<value>2</value>
							</parameter>
							<parameter>
								<parameterid>angle</parameterid>
								<name>angle</name>
								<valuemin>-720</valuemin>
								<valuemax>720</valuemax>
								<value>135</value>
							</parameter>
							<parameter>
								<parameterid>color</parameterid>
								<name>color</name>
								<value>
									<alpha>0</alpha>
									<red>0</red>
									<green>0</green>
									<blue>0</blue>
								</value>
							</parameter>
							<parameter>
								<parameterid>softness</parameterid>
								<name>softness</name>
								<valuemin>0</valuemin>
								<valuemax>100</valuemax>
								<value>10</value>
							</parameter>
							<parameter>
								<parameterid>opacity</parameterid>
								<name>opacity</name>
								<valuemin>0</valuemin>
								<valuemax>100</valuemax>
								<value>50</value>
							</parameter>
						</effect>
					</filter>
					<filter>
						<enabled>FALSE</enabled>
						<effect>
							<name>Motion Blur</name>
							<effectid>motionblur</effectid>
							<effectcategory>motion</effectcategory>
							<effecttype>motion</effecttype>
							<mediatype>video</mediatype>
							<parameter>
								<parameterid>duration</parameterid>
								<name>% Blur</name>
								<valuemin>0</valuemin>
								<valuemax>1000</valuemax>
								<value>500</value>
							</parameter>
							<parameter>
								<parameterid>samples</parameterid>
								<name>Samples</name>
								<valuemin>1</valuemin>
								<valuemax>16</valuemax>
								<value>4</value>
							</parameter>
						</effect>
					</filter>
					<filter>
						<effect>
							<name>Crop</name>
							<effectid>crop</effectid>
							<effectcategory>motion</effectcategory>
							<effecttype>motion</effecttype>
							<mediatype>video</mediatype>
							<parameter>
								<parameterid>left</parameterid>
								<name>left</name>
								<valuemin>0</valuemin>
								<valuemax>100</valuemax>
								<value>0</value>
							</parameter>
							<parameter>
								<parameterid>right</parameterid>
								<name>right</name>
								<valuemin>0</valuemin>
								<valuemax>100</valuemax>
								<value>0</value>
							</parameter>
							<parameter>
								<parameterid>top</parameterid>
								<name>top</name>
								<valuemin>0</valuemin>
								<valuemax>100</valuemax>
								<value>0</value>
							</parameter>
							<parameter>
								<parameterid>bottom</parameterid>
								<name>bottom</name>
								<valuemin>0</valuemin>
								<valuemax>100</valuemax>
								<value>0</value>
							</parameter>
							<parameter>
								<parameterid>edgefeather</parameterid>
								<name>edgefeather</name>
								<valuemin>0</valuemin>
								<valuemax>100</valuemax>
								<value>0</value>
							</parameter>
						</effect>
					</filter>
					<filter>
						<effect>
							<name>Distort</name>
							<effectid>deformation</effectid>
							<effectcategory>motion</effectcategory>
							<effecttype>motion</effecttype>
							<mediatype>video</mediatype>
							<parameter>
								<parameterid>ulcorner</parameterid>
								<name>Upper Left</name>
								<value>
									<horiz>-0.5</horiz>
									<vert>-0.5</vert>
								</value>
							</parameter>
							<parameter>
								<parameterid>urcorner</parameterid>
								<name>Upper Right</name>
								<value>
									<horiz>0.5</horiz>
									<vert>-0.5</vert>
								</value>
							</parameter>
							<parameter>
								<parameterid>lrcorner</parameterid>
								<name>Lower Right</name>
								<value>
									<horiz>0.5</horiz>
									<vert>0.5</vert>
								</value>
							</parameter>
							<parameter>
								<parameterid>llcorner</parameterid>
								<name>Lower Left</name>
								<value>
									<horiz>-0.5</horiz>
									<vert>0.5</vert>
								</value>
							</parameter>
							<parameter>
								<parameterid>aspect</parameterid>
								<name>Aspect</name>
								<valuemin>-10000</valuemin>
								<valuemax>10000</valuemax>
								<value>0</value>
							</parameter>
						</effect>
					</filter>
					<filter>
						<effect>
							<name>Opacity</name>
							<effectid>opacity</effectid>
							<effectcategory>motion</effectcategory>
							<effecttype>motion</effecttype>
							<mediatype>video</mediatype>
							<parameter>
								<parameterid>opacity</parameterid>
								<name>opacity</name>
								<valuemin>0</valuemin>
								<valuemax>100</valuemax>
								<value>100</value>
							</parameter>
						</effect>
					</filter>
					<sourcetrack>
						<mediatype>video</mediatype>
					</sourcetrack>
					<fielddominance>none</fielddominance>
				</clipitem>
				<transitionitem id="67056220 ">
					<rate>
						<ntsc>FALSE</ntsc>
						<timebase>25</timebase>
					</rate>
					<start>34515</start>
					<end>34521</end>
					<alignment>end-black</alignment>
					<effect>
						<name>Push Slide</name>
						<effectid>Push Slide</effectid>
						<effectcategory>Slide</effectcategory>
						<effecttype>transition</effecttype>
						<mediatype>video</mediatype>
						<wipecode>1</wipecode>
						<wipeaccuracy>100</wipeaccuracy>
						<startratio>0</startratio>
						<endratio>1</endratio>
						<reverse>FALSE</reverse>
						<parameter>
							<parameterid>angleofpush</parameterid>
							<name>Angle</name>
							<valuemin>-360</valuemin>
							<valuemax>360</valuemax>
							<value>90</value>
						</parameter>
						<parameter>
							<parameterid>borderwidth</parameterid>
							<name>Border</name>
							<valuemin>0</valuemin>
							<valuemax>10</valuemax>
							<value>0</value>
						</parameter>
						<parameter>
							<parameterid>bordercolor</parameterid>
							<name>Color</name>
							<value>
								<alpha>255</alpha>
								<red>0</red>
								<green>0</green>
								<blue>0</blue>
							</value>
						</parameter>
					</effect>
				</transitionitem>
				<enabled>TRUE</enabled>
				<locked>FALSE</locked>
			</track>
			<track>
				<clipitem id="Kristine.png">
					<name>Kristine.png</name>
					<duration>3026</duration>
					<rate>
						<ntsc>FALSE</ntsc>
						<timebase>25</timebase>
					</rate>
					<in>1500</in>
					<out>1575</out>
					<start>1478</start>
					<end>1553</end>
					<pixelaspectratio>Square</pixelaspectratio>
					<stillframe>TRUE</stillframe>
					<enabled>TRUE</enabled>
					<anamorphic>FALSE</anamorphic>
					<alphatype>straight</alphatype>
					<masterclipid>Kristine.png1</masterclipid>
					<logginginfo>
						<scene/>
						<shottake/>
						<lognote/>
						<good>FALSE</good>
					</logginginfo>
					<labels>
						<label2/>
					</labels>
					<comments>
						<mastercomment1/>
						<mastercomment2/>
						<mastercomment3/>
						<mastercomment4/>
					</comments>
					<file id="Kristine">
						<name>Kristine.png</name>
						<pathurl>file://localhost/SuperSAN1/Prosjekter/MSUB20000012%20FIN%20FREDAG/FCP-PROSJEKTER,%20sesong%202/program%201%20Jenny/Supere/Kristine.png</pathurl>
						<rate>
							<timebase>25</timebase>
						</rate>
						<duration>2</duration>
						<width>1243</width>
						<height>393</height>
						<media>
							<video>
								<duration>2</duration>
								<stillframe>TRUE</stillframe>
								<samplecharacteristics>
									<width>1243</width>
									<height>393</height>
								</samplecharacteristics>
							</video>
						</media>
					</file>
					<filter>
						<effect>
							<name>Basic Motion</name>
							<effectid>basic</effectid>
							<effectcategory>motion</effectcategory>
							<effecttype>motion</effecttype>
							<mediatype>video</mediatype>
							<parameter>
								<parameterid>scale</parameterid>
								<name>Scale</name>
								<valuemin>0</valuemin>
								<valuemax>1000</valuemax>
								<value>100</value>
							</parameter>
							<parameter>
								<parameterid>rotation</parameterid>
								<name>Rotation</name>
								<valuemin>-8640</valuemin>
								<valuemax>8640</valuemax>
								<value>7</value>
							</parameter>
							<parameter>
								<parameterid>center</parameterid>
								<name>Center</name>
								<value>
									<horiz>0.398058</horiz>
									<vert>-0.576687</vert>
								</value>
							</parameter>
							<parameter>
								<parameterid>centerOffset</parameterid>
								<name>Anchor Point</name>
								<value>
									<horiz>0</horiz>
									<vert>0</vert>
								</value>
							</parameter>
						</effect>
					</filter>
					<filter>
						<enabled>FALSE</enabled>
						<effect>
							<name>Drop Shadow</name>
							<effectid>dropshadow</effectid>
							<effectcategory>motion</effectcategory>
							<effecttype>motion</effecttype>
							<mediatype>video</mediatype>
							<parameter>
								<parameterid>offset</parameterid>
								<name>offset</name>
								<valuemin>-100</valuemin>
								<valuemax>100</valuemax>
								<value>2</value>
							</parameter>
							<parameter>
								<parameterid>angle</parameterid>
								<name>angle</name>
								<valuemin>-720</valuemin>
								<valuemax>720</valuemax>
								<value>135</value>
							</parameter>
							<parameter>
								<parameterid>color</parameterid>
								<name>color</name>
								<value>
									<alpha>0</alpha>
									<red>0</red>
									<green>0</green>
									<blue>0</blue>
								</value>
							</parameter>
							<parameter>
								<parameterid>softness</parameterid>
								<name>softness</name>
								<valuemin>0</valuemin>
								<valuemax>100</valuemax>
								<value>10</value>
							</parameter>
							<parameter>
								<parameterid>opacity</parameterid>
								<name>opacity</name>
								<valuemin>0</valuemin>
								<valuemax>100</valuemax>
								<value>50</value>
							</parameter>
						</effect>
					</filter>
					<filter>
						<enabled>FALSE</enabled>
						<effect>
							<name>Motion Blur</name>
							<effectid>motionblur</effectid>
							<effectcategory>motion</effectcategory>
							<effecttype>motion</effecttype>
							<mediatype>video</mediatype>
							<parameter>
								<parameterid>duration</parameterid>
								<name>% Blur</name>
								<valuemin>0</valuemin>
								<valuemax>1000</valuemax>
								<value>500</value>
							</parameter>
							<parameter>
								<parameterid>samples</parameterid>
								<name>Samples</name>
								<valuemin>1</valuemin>
								<valuemax>16</valuemax>
								<value>4</value>
							</parameter>
						</effect>
					</filter>
					<filter>
						<effect>
							<name>Crop</name>
							<effectid>crop</effectid>
							<effectcategory>motion</effectcategory>
							<effecttype>motion</effecttype>
							<mediatype>video</mediatype>
							<parameter>
								<parameterid>left</parameterid>
								<name>left</name>
								<valuemin>0</valuemin>
								<valuemax>100</valuemax>
								<value>0</value>
							</parameter>
							<parameter>
								<parameterid>right</parameterid>
								<name>right</name>
								<valuemin>0</valuemin>
								<valuemax>100</valuemax>
								<value>0</value>
							</parameter>
							<parameter>
								<parameterid>top</parameterid>
								<name>top</name>
								<valuemin>0</valuemin>
								<valuemax>100</valuemax>
								<value>0</value>
							</parameter>
							<parameter>
								<parameterid>bottom</parameterid>
								<name>bottom</name>
								<valuemin>0</valuemin>
								<valuemax>100</valuemax>
								<value>0</value>
							</parameter>
							<parameter>
								<parameterid>edgefeather</parameterid>
								<name>edgefeather</name>
								<valuemin>0</valuemin>
								<valuemax>100</valuemax>
								<value>0</value>
							</parameter>
						</effect>
					</filter>
					<filter>
						<effect>
							<name>Distort</name>
							<effectid>deformation</effectid>
							<effectcategory>motion</effectcategory>
							<effecttype>motion</effecttype>
							<mediatype>video</mediatype>
							<parameter>
								<parameterid>ulcorner</parameterid>
								<name>Upper Left</name>
								<value>
									<horiz>-0.5</horiz>
									<vert>-0.5</vert>
								</value>
							</parameter>
							<parameter>
								<parameterid>urcorner</parameterid>
								<name>Upper Right</name>
								<value>
									<horiz>0.5</horiz>
									<vert>-0.5</vert>
								</value>
							</parameter>
							<parameter>
								<parameterid>lrcorner</parameterid>
								<name>Lower Right</name>
								<value>
									<horiz>0.5</horiz>
									<vert>0.5</vert>
								</value>
							</parameter>
							<parameter>
								<parameterid>llcorner</parameterid>
								<name>Lower Left</name>
								<value>
									<horiz>-0.5</horiz>
									<vert>0.5</vert>
								</value>
							</parameter>
							<parameter>
								<parameterid>aspect</parameterid>
								<name>Aspect</name>
								<valuemin>-10000</valuemin>
								<valuemax>10000</valuemax>
								<value>0</value>
							</parameter>
						</effect>
					</filter>
					<filter>
						<effect>
							<name>Opacity</name>
							<effectid>opacity</effectid>
							<effectcategory>motion</effectcategory>
							<effecttype>motion</effecttype>
							<mediatype>video</mediatype>
							<parameter>
								<parameterid>opacity</parameterid>
								<name>opacity</name>
								<valuemin>0</valuemin>
								<valuemax>100</valuemax>
								<value>100</value>
							</parameter>
						</effect>
					</filter>
					<sourcetrack>
						<mediatype>video</mediatype>
					</sourcetrack>
					<fielddominance>none</fielddominance>
				</clipitem>
				<clipitem id="Jenny.png2">
					<name>Jenny.png</name>
					<duration>3026</duration>
					<rate>
						<ntsc>FALSE</ntsc>
						<timebase>25</timebase>
					</rate>
					<in>1500</in>
					<out>1575</out>
					<start>1898</start>
					<end>1973</end>
					<pixelaspectratio>Square</pixelaspectratio>
					<stillframe>TRUE</stillframe>
					<enabled>TRUE</enabled>
					<anamorphic>FALSE</anamorphic>
					<alphatype>straight</alphatype>
					<masterclipid>Jenny.png3</masterclipid>
					<logginginfo>
						<scene/>
						<shottake/>
						<lognote/>
						<good>FALSE</good>
					</logginginfo>
					<labels>
						<label2/>
					</labels>
					<comments>
						<mastercomment1/>
						<mastercomment2/>
						<mastercomment3/>
						<mastercomment4/>
					</comments>
					<file id="Jenny1">
						<name>Jenny.png</name>
						<pathurl>file://localhost/SuperSAN1/Prosjekter/MSUB20000012%20FIN%20FREDAG/FCP-PROSJEKTER,%20sesong%202/program%201%20Jenny/Supere/Jenny.png</pathurl>
						<rate>
							<timebase>25</timebase>
						</rate>
						<duration>2</duration>
						<width>1243</width>
						<height>393</height>
						<media>
							<video>
								<duration>2</duration>
								<stillframe>TRUE</stillframe>
								<samplecharacteristics>
									<width>1243</width>
									<height>393</height>
								</samplecharacteristics>
							</video>
						</media>
					</file>
					<filter>
						<effect>
							<name>Basic Motion</name>
							<effectid>basic</effectid>
							<effectcategory>motion</effectcategory>
							<effecttype>motion</effecttype>
							<mediatype>video</mediatype>
							<parameter>
								<parameterid>scale</parameterid>
								<name>Scale</name>
								<valuemin>0</valuemin>
								<valuemax>1000</valuemax>
								<value>100</value>
							</parameter>
							<parameter>
								<parameterid>rotation</parameterid>
								<name>Rotation</name>
								<valuemin>-8640</valuemin>
								<valuemax>8640</valuemax>
								<value>-7</value>
							</parameter>
							<parameter>
								<parameterid>center</parameterid>
								<name>Center</name>
								<value>
									<horiz>-0.046602</horiz>
									<vert>0.159509</vert>
								</value>
							</parameter>
							<parameter>
								<parameterid>centerOffset</parameterid>
								<name>Anchor Point</name>
								<value>
									<horiz>0</horiz>
									<vert>0</vert>
								</value>
							</parameter>
						</effect>
					</filter>
					<filter>
						<enabled>FALSE</enabled>
						<effect>
							<name>Drop Shadow</name>
							<effectid>dropshadow</effectid>
							<effectcategory>motion</effectcategory>
							<effecttype>motion</effecttype>
							<mediatype>video</mediatype>
							<parameter>
								<parameterid>offset</parameterid>
								<name>offset</name>
								<valuemin>-100</valuemin>
								<valuemax>100</valuemax>
								<value>2</value>
							</parameter>
							<parameter>
								<parameterid>angle</parameterid>
								<name>angle</name>
								<valuemin>-720</valuemin>
								<valuemax>720</valuemax>
								<value>135</value>
							</parameter>
							<parameter>
								<parameterid>color</parameterid>
								<name>color</name>
								<value>
									<alpha>0</alpha>
									<red>0</red>
									<green>0</green>
									<blue>0</blue>
								</value>
							</parameter>
							<parameter>
								<parameterid>softness</parameterid>
								<name>softness</name>
								<valuemin>0</valuemin>
								<valuemax>100</valuemax>
								<value>10</value>
							</parameter>
							<parameter>
								<parameterid>opacity</parameterid>
								<name>opacity</name>
								<valuemin>0</valuemin>
								<valuemax>100</valuemax>
								<value>50</value>
							</parameter>
						</effect>
					</filter>
					<filter>
						<enabled>FALSE</enabled>
						<effect>
							<name>Motion Blur</name>
							<effectid>motionblur</effectid>
							<effectcategory>motion</effectcategory>
							<effecttype>motion</effecttype>
							<mediatype>video</mediatype>
							<parameter>
								<parameterid>duration</parameterid>
								<name>% Blur</name>
								<valuemin>0</valuemin>
								<valuemax>1000</valuemax>
								<value>500</value>
							</parameter>
							<parameter>
								<parameterid>samples</parameterid>
								<name>Samples</name>
								<valuemin>1</valuemin>
								<valuemax>16</valuemax>
								<value>4</value>
							</parameter>
						</effect>
					</filter>
					<filter>
						<effect>
							<name>Crop</name>
							<effectid>crop</effectid>
							<effectcategory>motion</effectcategory>
							<effecttype>motion</effecttype>
							<mediatype>video</mediatype>
							<parameter>
								<parameterid>left</parameterid>
								<name>left</name>
								<valuemin>0</valuemin>
								<valuemax>100</valuemax>
								<value>0</value>
							</parameter>
							<parameter>
								<parameterid>right</parameterid>
								<name>right</name>
								<valuemin>0</valuemin>
								<valuemax>100</valuemax>
								<value>0</value>
							</parameter>
							<parameter>
								<parameterid>top</parameterid>
								<name>top</name>
								<valuemin>0</valuemin>
								<valuemax>100</valuemax>
								<value>0</value>
							</parameter>
							<parameter>
								<parameterid>bottom</parameterid>
								<name>bottom</name>
								<valuemin>0</valuemin>
								<valuemax>100</valuemax>
								<value>0</value>
							</parameter>
							<parameter>
								<parameterid>edgefeather</parameterid>
								<name>edgefeather</name>
								<valuemin>0</valuemin>
								<valuemax>100</valuemax>
								<value>0</value>
							</parameter>
						</effect>
					</filter>
					<filter>
						<effect>
							<name>Distort</name>
							<effectid>deformation</effectid>
							<effectcategory>motion</effectcategory>
							<effecttype>motion</effecttype>
							<mediatype>video</mediatype>
							<parameter>
								<parameterid>ulcorner</parameterid>
								<name>Upper Left</name>
								<value>
									<horiz>-0.5</horiz>
									<vert>-0.5</vert>
								</value>
							</parameter>
							<parameter>
								<parameterid>urcorner</parameterid>
								<name>Upper Right</name>
								<value>
									<horiz>0.5</horiz>
									<vert>-0.5</vert>
								</value>
							</parameter>
							<parameter>
								<parameterid>lrcorner</parameterid>
								<name>Lower Right</name>
								<value>
									<horiz>0.5</horiz>
									<vert>0.5</vert>
								</value>
							</parameter>
							<parameter>
								<parameterid>llcorner</parameterid>
								<name>Lower Left</name>
								<value>
									<horiz>-0.5</horiz>
									<vert>0.5</vert>
								</value>
							</parameter>
							<parameter>
								<parameterid>aspect</parameterid>
								<name>Aspect</name>
								<valuemin>-10000</valuemin>
								<valuemax>10000</valuemax>
								<value>0</value>
							</parameter>
						</effect>
					</filter>
					<filter>
						<effect>
							<name>Opacity</name>
							<effectid>opacity</effectid>
							<effectcategory>motion</effectcategory>
							<effecttype>motion</effecttype>
							<mediatype>video</mediatype>
							<parameter>
								<parameterid>opacity</parameterid>
								<name>opacity</name>
								<valuemin>0</valuemin>
								<valuemax>100</valuemax>
								<value>100</value>
							</parameter>
						</effect>
					</filter>
					<sourcetrack>
						<mediatype>video</mediatype>
					</sourcetrack>
					<fielddominance>none</fielddominance>
				</clipitem>
				<transitionitem id="67062272 ">
					<rate>
						<ntsc>FALSE</ntsc>
						<timebase>25</timebase>
					</rate>
					<start>6086</start>
					<end>6094</end>
					<alignment>start-black</alignment>
					<effect>
						<name>Push Slide Copy</name>
						<effectid>Push Slide</effectid>
						<effectcategory>Slide</effectcategory>
						<effecttype>transition</effecttype>
						<mediatype>video</mediatype>
						<wipecode>1</wipecode>
						<wipeaccuracy>100</wipeaccuracy>
						<startratio>0</startratio>
						<endratio>1</endratio>
						<reverse>FALSE</reverse>
						<parameter>
							<parameterid>angleofpush</parameterid>
							<name>Angle</name>
							<valuemin>-360</valuemin>
							<valuemax>360</valuemax>
							<value>180</value>
						</parameter>
						<parameter>
							<parameterid>borderwidth</parameterid>
							<name>Border</name>
							<valuemin>0</valuemin>
							<valuemax>10</valuemax>
							<value>0</value>
						</parameter>
						<parameter>
							<parameterid>bordercolor</parameterid>
							<name>Color</name>
							<value>
								<alpha>255</alpha>
								<red>0</red>
								<green>0</green>
								<blue>0</blue>
							</value>
						</parameter>
					</effect>
				</transitionitem>
				<clipitem id="SF NORGE 1996.png">
					<name>SF NORGE 1996.png</name>
					<duration>3026</duration>
					<rate>
						<ntsc>FALSE</ntsc>
						<timebase>25</timebase>
					</rate>
					<in>1488</in>
					<out>1707</out>
					<start>-1</start>
					<end>6305</end>
					<pixelaspectratio>Square</pixelaspectratio>
					<stillframe>TRUE</stillframe>
					<enabled>TRUE</enabled>
					<anamorphic>FALSE</anamorphic>
					<alphatype>straight</alphatype>
					<masterclipid>SF NORGE 1996.png1</masterclipid>
					<logginginfo>
						<scene/>
						<shottake/>
						<lognote/>
						<good>FALSE</good>
					</logginginfo>
					<labels>
						<label2/>
					</labels>
					<comments>
						<mastercomment1/>
						<mastercomment2/>
						<mastercomment3/>
						<mastercomment4/>
					</comments>
					<file id="SF NORGE 1996 ">
						<name>SF NORGE 1996.png</name>
						<pathurl>file://localhost/SuperSAN1/Prosjekter/MSUB20000012%20FIN%20FREDAG/FCP-PROSJEKTER,%20sesong%202/program%201%20Jenny/Supere/SF%20NORGE%201996.png</pathurl>
						<rate>
							<timebase>25</timebase>
						</rate>
						<duration>2</duration>
						<width>2373</width>
						<height>393</height>
						<media>
							<video>
								<duration>2</duration>
								<stillframe>TRUE</stillframe>
								<samplecharacteristics>
									<width>2373</width>
									<height>393</height>
								</samplecharacteristics>
							</video>
						</media>
					</file>
					<filter>
						<effect>
							<name>Basic Motion</name>
							<effectid>basic</effectid>
							<effectcategory>motion</effectcategory>
							<effecttype>motion</effecttype>
							<mediatype>video</mediatype>
							<parameter>
								<parameterid>scale</parameterid>
								<name>Scale</name>
								<value>29.1868</value>
							</parameter>
							<parameter>
								<parameterid>center</parameterid>
								<name>Center</name>
								<value>
									<horiz>-0.253792</horiz>
									<vert>-0.756098</vert>
								</value>
							</parameter>
						</effect>
					</filter>
					<sourcetrack>
						<mediatype>video</mediatype>
					</sourcetrack>
					<fielddominance>none</fielddominance>
				</clipitem>
				<clipitem id="SF NORGE 1996.png2">
					<name>SF NORGE 1996.png</name>
					<duration>3026</duration>
					<rate>
						<ntsc>FALSE</ntsc>
						<timebase>25</timebase>
					</rate>
					<in>1488</in>
					<out>1724</out>
					<start>8366</start>
					<end>8602</end>
					<pixelaspectratio>Square</pixelaspectratio>
					<stillframe>TRUE</stillframe>
					<enabled>TRUE</enabled>
					<anamorphic>FALSE</anamorphic>
					<alphatype>straight</alphatype>
					<masterclipid>SF NORGE 1996.png1</masterclipid>
					<logginginfo>
						<scene/>
						<shottake/>
						<lognote/>
						<good>FALSE</good>
					</logginginfo>
					<labels>
						<label2/>
					</labels>
					<comments>
						<mastercomment1/>
						<mastercomment2/>
						<mastercomment3/>
						<mastercomment4/>
					</comments>
					<file id="SF NORGE 1996 "/>
					<filter>
						<effect>
							<name>Basic Motion</name>
							<effectid>basic</effectid>
							<effectcategory>motion</effectcategory>
							<effecttype>motion</effecttype>
							<mediatype>video</mediatype>
							<parameter>
								<parameterid>scale</parameterid>
								<name>Scale</name>
								<value>18.1091</value>
							</parameter>
							<parameter>
								<parameterid>center</parameterid>
								<name>Center</name>
								<value>
									<horiz>-0.26997</horiz>
									<vert>1.15854</vert>
								</value>
							</parameter>
						</effect>
					</filter>
					<sourcetrack>
						<mediatype>video</mediatype>
					</sourcetrack>
					<fielddominance>none</fielddominance>
				</clipitem>
				<clipitem id="SF NORGE 1996.png3">
					<name>SF NORGE 1996.png</name>
					<duration>3026</duration>
					<rate>
						<ntsc>FALSE</ntsc>
						<timebase>25</timebase>
					</rate>
					<in>1488</in>
					<out>1722</out>
					<start>10582</start>
					<end>10816</end>
					<pixelaspectratio>Square</pixelaspectratio>
					<stillframe>TRUE</stillframe>
					<enabled>TRUE</enabled>
					<anamorphic>FALSE</anamorphic>
					<alphatype>straight</alphatype>
					<masterclipid>SF NORGE 1996.png1</masterclipid>
					<logginginfo>
						<scene/>
						<shottake/>
						<lognote/>
						<good>FALSE</good>
					</logginginfo>
					<labels>
						<label2/>
					</labels>
					<comments>
						<mastercomment1/>
						<mastercomment2/>
						<mastercomment3/>
						<mastercomment4/>
					</comments>
					<file id="SF NORGE 1996 "/>
					<filter>
						<effect>
							<name>Basic Motion</name>
							<effectid>basic</effectid>
							<effectcategory>motion</effectcategory>
							<effecttype>motion</effecttype>
							<mediatype>video</mediatype>
							<parameter>
								<parameterid>scale</parameterid>
								<name>Scale</name>
								<value>18.1091</value>
							</parameter>
							<parameter>
								<parameterid>center</parameterid>
								<name>Center</name>
								<value>
									<horiz>-0.26997</horiz>
									<vert>1.15854</vert>
								</value>
							</parameter>
						</effect>
					</filter>
					<sourcetrack>
						<mediatype>video</mediatype>
					</sourcetrack>
					<fielddominance>none</fielddominance>
				</clipitem>
				<clipitem id="Logo Bumper_m.lydhale3">
					<name>Logo Bumper_m.lydhale</name>
					<duration>102</duration>
					<rate>
						<ntsc>FALSE</ntsc>
						<timebase>25</timebase>
					</rate>
					<in>92</in>
					<out>99</out>
					<start>25964</start>
					<end>25971</end>
					<pixelaspectratio>Square</pixelaspectratio>
					<enabled>TRUE</enabled>
					<anamorphic>FALSE</anamorphic>
					<alphatype>straight</alphatype>
					<masterclipid>Logo Bumper_m.lydhale1</masterclipid>
					<logginginfo>
						<scene/>
						<shottake/>
						<lognote/>
						<good>FALSE</good>
					</logginginfo>
					<labels>
						<label2/>
					</labels>
					<comments>
						<mastercomment1/>
						<mastercomment2/>
						<mastercomment3/>
						<mastercomment4/>
					</comments>
					<file id="Logo Bumper_m.lydhale2"/>
					<sourcetrack>
						<mediatype>video</mediatype>
					</sourcetrack>
					<fielddominance>upper</fielddominance>
					<filter>
						<effect>
							<name>Time Remap</name>
							<effectid>timeremap</effectid>
							<effectcategory>motion</effectcategory>
							<effecttype>motion</effecttype>
							<mediatype>video</mediatype>
							<parameter>
								<parameterid>variablespeed</parameterid>
								<name>variablespeed</name>
								<valuemin>0</valuemin>
								<valuemax>1</valuemax>
								<value>0</value>
							</parameter>
							<parameter>
								<parameterid>mappedduration</parameterid>
								<name>mappedduration</name>
								<value>
									<timecode>
										<rate>
											<timebase>0</timebase>
										</rate>
										<string>0</string>
										<frame>0</frame>
										<displayformat>NDF</displayformat>
									</timecode>
								</value>
							</parameter>
							<parameter>
								<parameterid>speed</parameterid>
								<name>speed</name>
								<valuemin>-10000</valuemin>
								<valuemax>10000</valuemax>
								<value>100</value>
							</parameter>
							<parameter>
								<parameterid>reverse</parameterid>
								<name>reverse</name>
								<value>TRUE</value>
							</parameter>
							<parameter>
								<parameterid>frameblending</parameterid>
								<name>frameblending</name>
								<value>TRUE</value>
							</parameter>
							<parameter>
								<parameterid>graphdict</parameterid>
								<name>graphdict</name>
								<valuemin>0</valuemin>
								<valuemax>101</valuemax>
								<keyframe>
									<when>0</when>
									<value>103</value>
									<speedkfstart>TRUE</speedkfstart>
									<speedvirtualkf>TRUE</speedvirtualkf>
								</keyframe>
								<keyframe>
									<when>92</when>
									<value>10</value>
									<speedkfin>TRUE</speedkfin>
									<speedvirtualkf>TRUE</speedvirtualkf>
								</keyframe>
								<keyframe>
									<when>99</when>
									<value>3</value>
									<speedkfout>TRUE</speedkfout>
									<speedvirtualkf>TRUE</speedvirtualkf>
								</keyframe>
								<keyframe>
									<when>102</when>
									<value>1</value>
									<speedkfend>TRUE</speedkfend>
									<speedvirtualkf>TRUE</speedvirtualkf>
								</keyframe>
								<interpolation>
									<name>FCPCurve</name>
								</interpolation>
								<value>9</value>
							</parameter>
						</effect>
					</filter>
				</clipitem>
				<transitionitem id="67065264 ">
					<rate>
						<ntsc>FALSE</ntsc>
						<timebase>25</timebase>
					</rate>
					<start>29828</start>
					<end>29834</end>
					<alignment>start-black</alignment>
					<effect>
						<name>Push Slide Copy</name>
						<effectid>Push Slide</effectid>
						<effectcategory>Slide</effectcategory>
						<effecttype>transition</effecttype>
						<mediatype>video</mediatype>
						<wipecode>1</wipecode>
						<wipeaccuracy>100</wipeaccuracy>
						<startratio>0</startratio>
						<endratio>1</endratio>
						<reverse>FALSE</reverse>
						<parameter>
							<parameterid>angleofpush</parameterid>
							<name>Angle</name>
							<valuemin>-360</valuemin>
							<valuemax>360</valuemax>
							<value>90</value>
						</parameter>
						<parameter>
							<parameterid>borderwidth</parameterid>
							<name>Border</name>
							<valuemin>0</valuemin>
							<valuemax>10</valuemax>
							<value>0</value>
						</parameter>
						<parameter>
							<parameterid>bordercolor</parameterid>
							<name>Color</name>
							<value>
								<alpha>255</alpha>
								<red>0</red>
								<green>0</green>
								<blue>0</blue>
							</value>
						</parameter>
					</effect>
				</transitionitem>
				<clipitem id="La det swinge.png">
					<name>La det swinge.png</name>
					<duration>3026</duration>
					<rate>
						<ntsc>FALSE</ntsc>
						<timebase>25</timebase>
					</rate>
					<in>1499</in>
					<out>1610</out>
					<start>-1</start>
					<end>29939</end>
					<pixelaspectratio>Square</pixelaspectratio>
					<stillframe>TRUE</stillframe>
					<enabled>TRUE</enabled>
					<anamorphic>FALSE</anamorphic>
					<alphatype>straight</alphatype>
					<masterclipid>La det swinge.png1</masterclipid>
					<logginginfo>
						<scene/>
						<shottake/>
						<lognote/>
						<good>FALSE</good>
					</logginginfo>
					<labels>
						<label2/>
					</labels>
					<comments>
						<mastercomment1/>
						<mastercomment2/>
						<mastercomment3/>
						<mastercomment4/>
					</comments>
					<file id="La det swinge">
						<name>La det swinge.png</name>
						<pathurl>file://localhost/SuperSAN1/Prosjekter/MSUB20000012%20FIN%20FREDAG/FCP-PROSJEKTER,%20sesong%202/program%201%20Jenny/Supere/La%20det%20swinge.png</pathurl>
						<rate>
							<timebase>25</timebase>
						</rate>
						<duration>2</duration>
						<width>1463</width>
						<height>393</height>
						<media>
							<video>
								<duration>2</duration>
								<stillframe>TRUE</stillframe>
								<samplecharacteristics>
									<width>1463</width>
									<height>393</height>
								</samplecharacteristics>
							</video>
						</media>
					</file>
					<filter>
						<effect>
							<name>Basic Motion</name>
							<effectid>basic</effectid>
							<effectcategory>motion</effectcategory>
							<effecttype>motion</effecttype>
							<mediatype>video</mediatype>
							<parameter>
								<parameterid>scale</parameterid>
								<name>Scale</name>
								<valuemin>0</valuemin>
								<valuemax>1000</valuemax>
								<value>45</value>
							</parameter>
							<parameter>
								<parameterid>center</parameterid>
								<name>Center</name>
								<value>
									<horiz>-0.306557</horiz>
									<vert>0.506097</vert>
								</value>
							</parameter>
							<parameter>
								<parameterid>rotation</parameterid>
								<name>Rotation</name>
								<valuemin>-8640</valuemin>
								<valuemax>8640</valuemax>
								<value>0</value>
							</parameter>
							<parameter>
								<parameterid>centerOffset</parameterid>
								<name>Anchor Point</name>
								<value>
									<horiz>0</horiz>
									<vert>0</vert>
								</value>
							</parameter>
						</effect>
					</filter>
					<filter>
						<enabled>FALSE</enabled>
						<effect>
							<name>Drop Shadow</name>
							<effectid>dropshadow</effectid>
							<effectcategory>motion</effectcategory>
							<effecttype>motion</effecttype>
							<mediatype>video</mediatype>
							<parameter>
								<parameterid>offset</parameterid>
								<name>offset</name>
								<valuemin>-100</valuemin>
								<valuemax>100</valuemax>
								<value>2</value>
							</parameter>
							<parameter>
								<parameterid>angle</parameterid>
								<name>angle</name>
								<valuemin>-720</valuemin>
								<valuemax>720</valuemax>
								<value>135</value>
							</parameter>
							<parameter>
								<parameterid>color</parameterid>
								<name>color</name>
								<value>
									<alpha>0</alpha>
									<red>0</red>
									<green>0</green>
									<blue>0</blue>
								</value>
							</parameter>
							<parameter>
								<parameterid>softness</parameterid>
								<name>softness</name>
								<valuemin>0</valuemin>
								<valuemax>100</valuemax>
								<value>10</value>
							</parameter>
							<parameter>
								<parameterid>opacity</parameterid>
								<name>opacity</name>
								<valuemin>0</valuemin>
								<valuemax>100</valuemax>
								<value>50</value>
							</parameter>
						</effect>
					</filter>
					<filter>
						<enabled>FALSE</enabled>
						<effect>
							<name>Motion Blur</name>
							<effectid>motionblur</effectid>
							<effectcategory>motion</effectcategory>
							<effecttype>motion</effecttype>
							<mediatype>video</mediatype>
							<parameter>
								<parameterid>duration</parameterid>
								<name>% Blur</name>
								<valuemin>0</valuemin>
								<valuemax>1000</valuemax>
								<value>500</value>
							</parameter>
							<parameter>
								<parameterid>samples</parameterid>
								<name>Samples</name>
								<valuemin>1</valuemin>
								<valuemax>16</valuemax>
								<value>4</value>
							</parameter>
						</effect>
					</filter>
					<filter>
						<effect>
							<name>Crop</name>
							<effectid>crop</effectid>
							<effectcategory>motion</effectcategory>
							<effecttype>motion</effecttype>
							<mediatype>video</mediatype>
							<parameter>
								<parameterid>left</parameterid>
								<name>left</name>
								<valuemin>0</valuemin>
								<valuemax>100</valuemax>
								<value>0</value>
							</parameter>
							<parameter>
								<parameterid>right</parameterid>
								<name>right</name>
								<valuemin>0</valuemin>
								<valuemax>100</valuemax>
								<value>0</value>
							</parameter>
							<parameter>
								<parameterid>top</parameterid>
								<name>top</name>
								<valuemin>0</valuemin>
								<valuemax>100</valuemax>
								<value>0</value>
							</parameter>
							<parameter>
								<parameterid>bottom</parameterid>
								<name>bottom</name>
								<valuemin>0</valuemin>
								<valuemax>100</valuemax>
								<value>0</value>
							</parameter>
							<parameter>
								<parameterid>edgefeather</parameterid>
								<name>edgefeather</name>
								<valuemin>0</valuemin>
								<valuemax>100</valuemax>
								<value>0</value>
							</parameter>
						</effect>
					</filter>
					<filter>
						<effect>
							<name>Distort</name>
							<effectid>deformation</effectid>
							<effectcategory>motion</effectcategory>
							<effecttype>motion</effecttype>
							<mediatype>video</mediatype>
							<parameter>
								<parameterid>ulcorner</parameterid>
								<name>Upper Left</name>
								<value>
									<horiz>-0.5</horiz>
									<vert>-0.5</vert>
								</value>
							</parameter>
							<parameter>
								<parameterid>urcorner</parameterid>
								<name>Upper Right</name>
								<value>
									<horiz>0.5</horiz>
									<vert>-0.5</vert>
								</value>
							</parameter>
							<parameter>
								<parameterid>lrcorner</parameterid>
								<name>Lower Right</name>
								<value>
									<horiz>0.5</horiz>
									<vert>0.5</vert>
								</value>
							</parameter>
							<parameter>
								<parameterid>llcorner</parameterid>
								<name>Lower Left</name>
								<value>
									<horiz>-0.5</horiz>
									<vert>0.5</vert>
								</value>
							</parameter>
							<parameter>
								<parameterid>aspect</parameterid>
								<name>Aspect</name>
								<valuemin>-10000</valuemin>
								<valuemax>10000</valuemax>
								<value>0</value>
							</parameter>
						</effect>
					</filter>
					<filter>
						<effect>
							<name>Opacity</name>
							<effectid>opacity</effectid>
							<effectcategory>motion</effectcategory>
							<effecttype>motion</effecttype>
							<mediatype>video</mediatype>
							<parameter>
								<parameterid>opacity</parameterid>
								<name>opacity</name>
								<valuemin>0</valuemin>
								<valuemax>100</valuemax>
								<value>100</value>
							</parameter>
						</effect>
					</filter>
					<sourcetrack>
						<mediatype>video</mediatype>
					</sourcetrack>
					<fielddominance>none</fielddominance>
				</clipitem>
				<clipitem id="Kristine-fotballkjole-70.png5">
					<name>Kristine-fotballkjole-70.png</name>
					<duration>3026</duration>
					<rate>
						<ntsc>FALSE</ntsc>
						<timebase>25</timebase>
					</rate>
					<in>1583</in>
					<out>1657</out>
					<start>32017</start>
					<end>-1</end>
					<pixelaspectratio>Square</pixelaspectratio>
					<stillframe>TRUE</stillframe>
					<enabled>TRUE</enabled>
					<anamorphic>FALSE</anamorphic>
					<alphatype>straight</alphatype>
					<masterclipid>Kristine-fotballkjole-70.png1</masterclipid>
					<logginginfo>
						<scene/>
						<shottake/>
						<lognote/>
						<good>FALSE</good>
					</logginginfo>
					<labels>
						<label2/>
					</labels>
					<comments>
						<mastercomment1/>
						<mastercomment2/>
						<mastercomment3/>
						<mastercomment4/>
					</comments>
					<file id="Kristine-fotballkjole-70 "/>
					<filter>
						<effect>
							<name>Basic Motion</name>
							<effectid>basic</effectid>
							<effectcategory>motion</effectcategory>
							<effecttype>motion</effecttype>
							<mediatype>video</mediatype>
							<parameter>
								<parameterid>scale</parameterid>
								<name>Scale</name>
								<valuemin>0</valuemin>
								<valuemax>1000</valuemax>
								<value>70</value>
							</parameter>
							<parameter>
								<parameterid>center</parameterid>
								<name>Center</name>
								<value>
									<horiz>-0.127914</horiz>
									<vert>0.135578</vert>
								</value>
							</parameter>
							<parameter>
								<parameterid>rotation</parameterid>
								<name>Rotation</name>
								<valuemin>-8640</valuemin>
								<valuemax>8640</valuemax>
								<value>0</value>
							</parameter>
							<parameter>
								<parameterid>centerOffset</parameterid>
								<name>Anchor Point</name>
								<value>
									<horiz>0</horiz>
									<vert>0</vert>
								</value>
							</parameter>
						</effect>
					</filter>
					<filter>
						<effect>
							<name>Distort</name>
							<effectid>deformation</effectid>
							<effectcategory>motion</effectcategory>
							<effecttype>motion</effecttype>
							<mediatype>video</mediatype>
							<parameter>
								<parameterid>aspect</parameterid>
								<name>Aspect</name>
								<valuemin>-10000</valuemin>
								<valuemax>10000</valuemax>
								<value>0</value>
							</parameter>
							<parameter>
								<parameterid>ulcorner</parameterid>
								<name>Upper Left</name>
								<value>
									<horiz>-0.5</horiz>
									<vert>-0.5</vert>
								</value>
							</parameter>
							<parameter>
								<parameterid>urcorner</parameterid>
								<name>Upper Right</name>
								<value>
									<horiz>0.5</horiz>
									<vert>-0.5</vert>
								</value>
							</parameter>
							<parameter>
								<parameterid>lrcorner</parameterid>
								<name>Lower Right</name>
								<value>
									<horiz>0.5</horiz>
									<vert>0.5</vert>
								</value>
							</parameter>
							<parameter>
								<parameterid>llcorner</parameterid>
								<name>Lower Left</name>
								<value>
									<horiz>-0.5</horiz>
									<vert>0.5</vert>
								</value>
							</parameter>
						</effect>
					</filter>
					<filter>
						<enabled>FALSE</enabled>
						<effect>
							<name>Drop Shadow</name>
							<effectid>dropshadow</effectid>
							<effectcategory>motion</effectcategory>
							<effecttype>motion</effecttype>
							<mediatype>video</mediatype>
							<parameter>
								<parameterid>offset</parameterid>
								<name>offset</name>
								<valuemin>-100</valuemin>
								<valuemax>100</valuemax>
								<value>2</value>
							</parameter>
							<parameter>
								<parameterid>angle</parameterid>
								<name>angle</name>
								<valuemin>-720</valuemin>
								<valuemax>720</valuemax>
								<value>135</value>
							</parameter>
							<parameter>
								<parameterid>color</parameterid>
								<name>color</name>
								<value>
									<alpha>0</alpha>
									<red>0</red>
									<green>0</green>
									<blue>0</blue>
								</value>
							</parameter>
							<parameter>
								<parameterid>softness</parameterid>
								<name>softness</name>
								<valuemin>0</valuemin>
								<valuemax>100</valuemax>
								<value>10</value>
							</parameter>
							<parameter>
								<parameterid>opacity</parameterid>
								<name>opacity</name>
								<valuemin>0</valuemin>
								<valuemax>100</valuemax>
								<value>50</value>
							</parameter>
						</effect>
					</filter>
					<filter>
						<enabled>FALSE</enabled>
						<effect>
							<name>Motion Blur</name>
							<effectid>motionblur</effectid>
							<effectcategory>motion</effectcategory>
							<effecttype>motion</effecttype>
							<mediatype>video</mediatype>
							<parameter>
								<parameterid>duration</parameterid>
								<name>% Blur</name>
								<valuemin>0</valuemin>
								<valuemax>1000</valuemax>
								<value>500</value>
							</parameter>
							<parameter>
								<parameterid>samples</parameterid>
								<name>Samples</name>
								<valuemin>1</valuemin>
								<valuemax>16</valuemax>
								<value>4</value>
							</parameter>
						</effect>
					</filter>
					<filter>
						<effect>
							<name>Crop</name>
							<effectid>crop</effectid>
							<effectcategory>motion</effectcategory>
							<effecttype>motion</effecttype>
							<mediatype>video</mediatype>
							<parameter>
								<parameterid>left</parameterid>
								<name>left</name>
								<valuemin>0</valuemin>
								<valuemax>100</valuemax>
								<value>0</value>
							</parameter>
							<parameter>
								<parameterid>right</parameterid>
								<name>right</name>
								<valuemin>0</valuemin>
								<valuemax>100</valuemax>
								<value>0</value>
							</parameter>
							<parameter>
								<parameterid>top</parameterid>
								<name>top</name>
								<valuemin>0</valuemin>
								<valuemax>100</valuemax>
								<value>0</value>
							</parameter>
							<parameter>
								<parameterid>bottom</parameterid>
								<name>bottom</name>
								<valuemin>0</valuemin>
								<valuemax>100</valuemax>
								<value>0</value>
							</parameter>
							<parameter>
								<parameterid>edgefeather</parameterid>
								<name>edgefeather</name>
								<valuemin>0</valuemin>
								<valuemax>100</valuemax>
								<value>0</value>
							</parameter>
						</effect>
					</filter>
					<filter>
						<effect>
							<name>Opacity</name>
							<effectid>opacity</effectid>
							<effectcategory>motion</effectcategory>
							<effecttype>motion</effecttype>
							<mediatype>video</mediatype>
							<parameter>
								<parameterid>opacity</parameterid>
								<name>opacity</name>
								<valuemin>0</valuemin>
								<valuemax>100</valuemax>
								<value>100</value>
							</parameter>
						</effect>
					</filter>
					<sourcetrack>
						<mediatype>video</mediatype>
					</sourcetrack>
					<fielddominance>none</fielddominance>
				</clipitem>
				<transitionitem id="67071044 ">
					<rate>
						<ntsc>FALSE</ntsc>
						<timebase>25</timebase>
					</rate>
					<start>32085</start>
					<end>32091</end>
					<alignment>end-black</alignment>
					<effect>
						<name>Push Slide</name>
						<effectid>Push Slide</effectid>
						<effectcategory>Slide</effectcategory>
						<effecttype>transition</effecttype>
						<mediatype>video</mediatype>
						<wipecode>1</wipecode>
						<wipeaccuracy>100</wipeaccuracy>
						<startratio>0</startratio>
						<endratio>1</endratio>
						<reverse>FALSE</reverse>
						<parameter>
							<parameterid>angleofpush</parameterid>
							<name>Angle</name>
							<valuemin>-360</valuemin>
							<valuemax>360</valuemax>
							<value>0</value>
						</parameter>
						<parameter>
							<parameterid>borderwidth</parameterid>
							<name>Border</name>
							<valuemin>0</valuemin>
							<valuemax>10</valuemax>
							<value>0</value>
						</parameter>
						<parameter>
							<parameterid>bordercolor</parameterid>
							<name>Color</name>
							<value>
								<alpha>255</alpha>
								<red>0</red>
								<green>0</green>
								<blue>0</blue>
							</value>
						</parameter>
					</effect>
				</transitionitem>
				<clipitem id="Vignett test kvsR 00:00:41:13 ">
					<name>Vignett test kvsR 00:00:41:13</name>
					<duration>3000</duration>
					<rate>
						<ntsc>FALSE</ntsc>
						<timebase>25</timebase>
					</rate>
					<in>1489</in>
					<out>1499</out>
					<start>32749</start>
					<end>32759</end>
					<labels>
						<label>Best Take</label>
						<label2/>
					</labels>
					<comments>
						<mastercomment1/>
						<mastercomment2/>
						<mastercomment3/>
						<mastercomment4/>
					</comments>
					<logginginfo>
						<scene/>
						<shottake/>
						<lognote/>
						<good>FALSE</good>
					</logginginfo>
					<filter>
						<start>-1</start>
						<end>-1</end>
						<effect>
							<name>De-interlace</name>
							<effectid>De-interlace</effectid>
							<effectcategory>Video</effectcategory>
							<effecttype>filter</effecttype>
							<mediatype>video</mediatype>
							<parameter>
								<parameterid>field</parameterid>
								<name>Field</name>
								<valuemin>1</valuemin>
								<valuemax>5</valuemax>
								<valuelist>
									<valueentry>
										<name>Upper (Odd)</name>
										<value>1</value>
									</valueentry>
									<valueentry>
										<name>Lower (Even)</name>
										<value>2</value>
									</valueentry>
									<valueentry>
										<name>Flicker Filter (minimal)</name>
										<value>3</value>
									</valueentry>
									<valueentry>
										<name>Flicker Filter (medium)</name>
										<value>4</value>
									</valueentry>
									<valueentry>
										<name>Flicker Filter (max)</name>
										<value>5</value>
									</valueentry>
								</valuelist>
								<value>1</value>
							</parameter>
						</effect>
					</filter>
					<sequence id="Vignett test kvsR 00:00:41:13 1">
						<name>Vignett test kvsR 00:00:41:13</name>
						<duration>3000</duration>
						<rate>
							<ntsc>FALSE</ntsc>
							<timebase>25</timebase>
						</rate>
						<in>0</in>
						<out>3000</out>
						<media>
							<video>
								<format>
									<samplecharacteristics>
										<width>1920</width>
										<height>1080</height>
										<anamorphic>FALSE</anamorphic>
										<pixelaspectratio>Square</pixelaspectratio>
										<fielddominance>upper</fielddominance>
										<rate>
											<ntsc>FALSE</ntsc>
											<timebase>25</timebase>
										</rate>
										<colordepth>24</colordepth>
										<codec>
											<name>Apple XDCAM 422 1080i50 (50 Mb/s CBR)</name>
											<appspecificdata>
												<appname>Final Cut Pro</appname>
												<appmanufacturer>Apple Inc.</appmanufacturer>
												<appversion>7.0</appversion>
												<data>
													<qtcodec>
														<codecname>Apple XDCAM 422 1080i50 (50 Mb/s CBR)</codecname>
														<codectypename>XDCAM 422 1080i50 (50 Mb/s CBR)</codectypename>
														<codectypecode>xd5c</codectypecode>
														<codecvendorcode>appl</codecvendorcode>
														<spatialquality>1023</spatialquality>
														<temporalquality>0</temporalquality>
														<keyframerate>0</keyframerate>
														<datarate>0</datarate>
													</qtcodec>
												</data>
											</appspecificdata>
										</codec>
									</samplecharacteristics>
									<appspecificdata>
										<appname>Final Cut Pro</appname>
										<appmanufacturer>Apple Inc.</appmanufacturer>
										<appversion>7.0</appversion>
										<data>
											<fcpimageprocessing>
												<useyuv>TRUE</useyuv>
												<usesuperwhite>FALSE</usesuperwhite>
												<rendermode>YUV8BPP</rendermode>
											</fcpimageprocessing>
										</data>
									</appspecificdata>
								</format>
								<track>
									<clipitem id="Vignett test kvsR 00:00:41:13 2">
										<name>Vignett test kvsR 00:00:41:13</name>
										<duration>3000</duration>
										<rate>
											<ntsc>FALSE</ntsc>
											<timebase>25</timebase>
										</rate>
										<in>0</in>
										<out>3000</out>
										<start>0</start>
										<end>3000</end>
										<stillframeoffset>1201</stillframeoffset>
										<pixelaspectratio>Square</pixelaspectratio>
										<anamorphic>FALSE</anamorphic>
										<alphatype>none</alphatype>
										<alphareverse>FALSE</alphareverse>
										<syncoffset>0</syncoffset>
										<logginginfo>
											<description>msub200012-3011-k1d3-002</description>
											<scene/>
											<shottake/>
											<lognote/>
											<good>FALSE</good>
										</logginginfo>
										<labels>
											<label>Good Take</label>
											<label2/>
										</labels>
										<comments>
											<mastercomment1>RÃ…STOFF. BR_FINFREDAG_MSUA_OPRO</mastercomment1>
											<mastercomment2/>
											<mastercomment3/>
											<mastercomment4/>
											<clipcommenta/>
										</comments>
										<file id="msub200012-3011-k1d3-002 2"/>
										<sourcetrack>
											<mediatype>video</mediatype>
										</sourcetrack>
										<fielddominance>upper</fielddominance>
									</clipitem>
									<enabled>TRUE</enabled>
									<locked>FALSE</locked>
								</track>
								<track>
									<clipitem id="Vignett test kvsR 00:00:41:13 3">
										<name>Vignett test kvsR 00:00:41:13</name>
										<duration>3000</duration>
										<rate>
											<ntsc>FALSE</ntsc>
											<timebase>25</timebase>
										</rate>
										<in>0</in>
										<out>3000</out>
										<start>0</start>
										<end>3000</end>
										<stillframeoffset>1375</stillframeoffset>
										<pixelaspectratio>Square</pixelaspectratio>
										<enabled>TRUE</enabled>
										<anamorphic>FALSE</anamorphic>
										<alphatype>none</alphatype>
										<alphareverse>FALSE</alphareverse>
										<logginginfo>
											<description>msub200012-3011-k2d3-005</description>
											<scene/>
											<shottake/>
											<lognote/>
											<good>FALSE</good>
										</logginginfo>
										<labels>
											<label>Good Take</label>
											<label2/>
										</labels>
										<comments>
											<mastercomment1>RÃ…STOFF. BR_FINFREDAG_MSUA_OPRO</mastercomment1>
											<mastercomment2/>
											<mastercomment3/>
											<mastercomment4/>
											<clipcommenta/>
										</comments>
										<file id="msub200012-3011-k2d3-005 2"/>
										<sourcetrack>
											<mediatype>video</mediatype>
										</sourcetrack>
										<fielddominance>upper</fielddominance>
									</clipitem>
									<enabled>TRUE</enabled>
									<locked>FALSE</locked>
								</track>
								<track>
									<clipitem id="Vignett test kvsR 00:00:41:13 4">
										<name>Vignett test kvsR 00:00:41:13</name>
										<duration>3000</duration>
										<rate>
											<ntsc>FALSE</ntsc>
											<timebase>25</timebase>
										</rate>
										<in>0</in>
										<out>3000</out>
										<start>0</start>
										<end>3000</end>
										<labels>
											<label>Best Take</label>
											<label2/>
										</labels>
										<sequence id="Vignett test kvsR 00:00:41:11 7">
											<name>Vignett test kvsR 00:00:41:11</name>
											<duration>3000</duration>
											<rate>
												<ntsc>FALSE</ntsc>
												<timebase>25</timebase>
											</rate>
											<in>0</in>
											<out>3000</out>
											<media>
												<video>
													<format>
														<samplecharacteristics>
															<width>1920</width>
															<height>1080</height>
															<anamorphic>FALSE</anamorphic>
															<pixelaspectratio>Square</pixelaspectratio>
															<fielddominance>upper</fielddominance>
															<rate>
																<ntsc>FALSE</ntsc>
																<timebase>25</timebase>
															</rate>
															<colordepth>24</colordepth>
															<codec>
																<name>Apple XDCAM 422 1080i50 (50 Mb/s CBR)</name>
																<appspecificdata>
																	<appname>Final Cut Pro</appname>
																	<appmanufacturer>Apple Inc.</appmanufacturer>
																	<appversion>7.0</appversion>
																	<data>
																		<qtcodec>
																			<codecname>Apple XDCAM 422 1080i50 (50 Mb/s CBR)</codecname>
																			<codectypename>XDCAM 422 1080i50 (50 Mb/s CBR)</codectypename>
																			<codectypecode>xd5c</codectypecode>
																			<codecvendorcode>appl</codecvendorcode>
																			<spatialquality>1023</spatialquality>
																			<temporalquality>0</temporalquality>
																			<keyframerate>0</keyframerate>
																			<datarate>0</datarate>
																		</qtcodec>
																	</data>
																</appspecificdata>
															</codec>
														</samplecharacteristics>
														<appspecificdata>
															<appname>Final Cut Pro</appname>
															<appmanufacturer>Apple Inc.</appmanufacturer>
															<appversion>7.0</appversion>
															<data>
																<fcpimageprocessing>
																	<useyuv>TRUE</useyuv>
																	<usesuperwhite>FALSE</usesuperwhite>
																	<rendermode>YUV8BPP</rendermode>
																</fcpimageprocessing>
															</data>
														</appspecificdata>
													</format>
													<track>
														<clipitem id="Vignett test kvsR 00:00:41:11 8">
															<name>Vignett test kvsR 00:00:41:11</name>
															<duration>3000</duration>
															<rate>
																<ntsc>FALSE</ntsc>
																<timebase>25</timebase>
															</rate>
															<in>0</in>
															<out>3000</out>
															<start>0</start>
															<end>3000</end>
															<stillframeoffset>1199</stillframeoffset>
															<pixelaspectratio>Square</pixelaspectratio>
															<anamorphic>FALSE</anamorphic>
															<alphatype>none</alphatype>
															<alphareverse>FALSE</alphareverse>
															<syncoffset>0</syncoffset>
															<logginginfo>
																<description>msub200012-3011-k1d3-002</description>
																<scene/>
																<shottake/>
																<lognote/>
																<good>FALSE</good>
															</logginginfo>
															<labels>
																<label>Good Take</label>
																<label2/>
															</labels>
															<comments>
																<mastercomment1>RÃ…STOFF. BR_FINFREDAG_MSUA_OPRO</mastercomment1>
																<mastercomment2/>
																<mastercomment3/>
																<mastercomment4/>
																<clipcommenta/>
															</comments>
															<file id="msub200012-3011-k1d3-002 2"/>
															<sourcetrack>
																<mediatype>video</mediatype>
															</sourcetrack>
															<fielddominance>upper</fielddominance>
														</clipitem>
														<enabled>TRUE</enabled>
														<locked>FALSE</locked>
													</track>
													<track>
														<clipitem id="Vignett test kvsR 00:00:41:11 9">
															<name>Vignett test kvsR 00:00:41:11</name>
															<duration>3000</duration>
															<rate>
																<ntsc>FALSE</ntsc>
																<timebase>25</timebase>
															</rate>
															<in>0</in>
															<out>3000</out>
															<start>0</start>
															<end>3000</end>
															<stillframeoffset>1373</stillframeoffset>
															<pixelaspectratio>Square</pixelaspectratio>
															<enabled>TRUE</enabled>
															<anamorphic>FALSE</anamorphic>
															<alphatype>none</alphatype>
															<alphareverse>FALSE</alphareverse>
															<logginginfo>
																<description>msub200012-3011-k2d3-005</description>
																<scene/>
																<shottake/>
																<lognote/>
																<good>FALSE</good>
															</logginginfo>
															<labels>
																<label>Good Take</label>
																<label2/>
															</labels>
															<comments>
																<mastercomment1>RÃ…STOFF. BR_FINFREDAG_MSUA_OPRO</mastercomment1>
																<mastercomment2/>
																<mastercomment3/>
																<mastercomment4/>
																<clipcommenta/>
															</comments>
															<file id="msub200012-3011-k2d3-005 2"/>
															<sourcetrack>
																<mediatype>video</mediatype>
															</sourcetrack>
															<fielddominance>upper</fielddominance>
														</clipitem>
														<enabled>TRUE</enabled>
														<locked>FALSE</locked>
													</track>
												</video>
											</media>
										</sequence>
										<sourcetrack>
											<mediatype>video</mediatype>
										</sourcetrack>
										<ismasterclip>FALSE</ismasterclip>
									</clipitem>
									<enabled>TRUE</enabled>
									<locked>FALSE</locked>
								</track>
							</video>
						</media>
					</sequence>
					<sourcetrack>
						<mediatype>video</mediatype>
					</sourcetrack>
					<ismasterclip>FALSE</ismasterclip>
				</clipitem>
				<clipitem id="Kristine2.png">
					<name>Kristine2.png</name>
					<duration>3026</duration>
					<rate>
						<ntsc>FALSE</ntsc>
						<timebase>25</timebase>
					</rate>
					<in>1500</in>
					<out>1619</out>
					<start>34495</start>
					<end>34614</end>
					<pixelaspectratio>Square</pixelaspectratio>
					<stillframe>TRUE</stillframe>
					<enabled>TRUE</enabled>
					<anamorphic>FALSE</anamorphic>
					<alphatype>straight</alphatype>
					<masterclipid>Kristine2.png1</masterclipid>
					<logginginfo>
						<scene/>
						<shottake/>
						<lognote/>
						<good>FALSE</good>
					</logginginfo>
					<labels>
						<label2/>
					</labels>
					<comments>
						<mastercomment1/>
						<mastercomment2/>
						<mastercomment3/>
						<mastercomment4/>
					</comments>
					<file id="Kristine2 ">
						<name>Kristine2.png</name>
						<pathurl>file://localhost/SuperSAN1/Prosjekter/MSUB20000012%20FIN%20FREDAG/test%20av%20Kristine%20og%20r%C3%B8kla/Kristine2.png</pathurl>
						<rate>
							<timebase>25</timebase>
						</rate>
						<duration>2</duration>
						<width>2478</width>
						<height>393</height>
						<media>
							<video>
								<duration>2</duration>
								<stillframe>TRUE</stillframe>
								<samplecharacteristics>
									<width>2478</width>
									<height>393</height>
								</samplecharacteristics>
							</video>
						</media>
					</file>
					<filter>
						<effect>
							<name>Basic Motion</name>
							<effectid>basic</effectid>
							<effectcategory>motion</effectcategory>
							<effecttype>motion</effecttype>
							<mediatype>video</mediatype>
							<parameter>
								<parameterid>scale</parameterid>
								<name>Scale</name>
								<valuemin>0</valuemin>
								<valuemax>1000</valuemax>
								<value>100</value>
							</parameter>
							<parameter>
								<parameterid>center</parameterid>
								<name>Center</name>
								<keyframe>
									<when>1536</when>
									<value>
										<horiz>0.289234</horiz>
										<vert>-0.844828</vert>
									</value>
								</keyframe>
								<keyframe>
									<when>1542</when>
									<value>
										<horiz>0.134124</horiz>
										<vert>-0.739884</vert>
									</value>
								</keyframe>
								<interpolation>
									<name>FCPCurve</name>
								</interpolation>
							</parameter>
							<parameter>
								<parameterid>rotation</parameterid>
								<name>Rotation</name>
								<valuemin>-8640</valuemin>
								<valuemax>8640</valuemax>
								<value>-4</value>
							</parameter>
							<parameter>
								<parameterid>centerOffset</parameterid>
								<name>Anchor Point</name>
								<value>
									<horiz>0</horiz>
									<vert>0</vert>
								</value>
							</parameter>
						</effect>
					</filter>
					<filter>
						<enabled>FALSE</enabled>
						<effect>
							<name>Drop Shadow</name>
							<effectid>dropshadow</effectid>
							<effectcategory>motion</effectcategory>
							<effecttype>motion</effecttype>
							<mediatype>video</mediatype>
							<parameter>
								<parameterid>offset</parameterid>
								<name>offset</name>
								<valuemin>-100</valuemin>
								<valuemax>100</valuemax>
								<value>2</value>
							</parameter>
							<parameter>
								<parameterid>angle</parameterid>
								<name>angle</name>
								<valuemin>-720</valuemin>
								<valuemax>720</valuemax>
								<value>135</value>
							</parameter>
							<parameter>
								<parameterid>color</parameterid>
								<name>color</name>
								<value>
									<alpha>0</alpha>
									<red>0</red>
									<green>0</green>
									<blue>0</blue>
								</value>
							</parameter>
							<parameter>
								<parameterid>softness</parameterid>
								<name>softness</name>
								<valuemin>0</valuemin>
								<valuemax>100</valuemax>
								<value>10</value>
							</parameter>
							<parameter>
								<parameterid>opacity</parameterid>
								<name>opacity</name>
								<valuemin>0</valuemin>
								<valuemax>100</valuemax>
								<value>50</value>
							</parameter>
						</effect>
					</filter>
					<filter>
						<enabled>FALSE</enabled>
						<effect>
							<name>Motion Blur</name>
							<effectid>motionblur</effectid>
							<effectcategory>motion</effectcategory>
							<effecttype>motion</effecttype>
							<mediatype>video</mediatype>
							<parameter>
								<parameterid>duration</parameterid>
								<name>% Blur</name>
								<valuemin>0</valuemin>
								<valuemax>1000</valuemax>
								<value>500</value>
							</parameter>
							<parameter>
								<parameterid>samples</parameterid>
								<name>Samples</name>
								<valuemin>1</valuemin>
								<valuemax>16</valuemax>
								<value>4</value>
							</parameter>
						</effect>
					</filter>
					<filter>
						<effect>
							<name>Crop</name>
							<effectid>crop</effectid>
							<effectcategory>motion</effectcategory>
							<effecttype>motion</effecttype>
							<mediatype>video</mediatype>
							<parameter>
								<parameterid>left</parameterid>
								<name>left</name>
								<valuemin>0</valuemin>
								<valuemax>100</valuemax>
								<value>0</value>
							</parameter>
							<parameter>
								<parameterid>right</parameterid>
								<name>right</name>
								<valuemin>0</valuemin>
								<valuemax>100</valuemax>
								<value>0</value>
							</parameter>
							<parameter>
								<parameterid>top</parameterid>
								<name>top</name>
								<valuemin>0</valuemin>
								<valuemax>100</valuemax>
								<value>0</value>
							</parameter>
							<parameter>
								<parameterid>bottom</parameterid>
								<name>bottom</name>
								<valuemin>0</valuemin>
								<valuemax>100</valuemax>
								<value>0</value>
							</parameter>
							<parameter>
								<parameterid>edgefeather</parameterid>
								<name>edgefeather</name>
								<valuemin>0</valuemin>
								<valuemax>100</valuemax>
								<value>0</value>
							</parameter>
						</effect>
					</filter>
					<filter>
						<effect>
							<name>Distort</name>
							<effectid>deformation</effectid>
							<effectcategory>motion</effectcategory>
							<effecttype>motion</effecttype>
							<mediatype>video</mediatype>
							<parameter>
								<parameterid>ulcorner</parameterid>
								<name>Upper Left</name>
								<value>
									<horiz>-0.5</horiz>
									<vert>-0.5</vert>
								</value>
							</parameter>
							<parameter>
								<parameterid>urcorner</parameterid>
								<name>Upper Right</name>
								<value>
									<horiz>0.5</horiz>
									<vert>-0.5</vert>
								</value>
							</parameter>
							<parameter>
								<parameterid>lrcorner</parameterid>
								<name>Lower Right</name>
								<value>
									<horiz>0.5</horiz>
									<vert>0.5</vert>
								</value>
							</parameter>
							<parameter>
								<parameterid>llcorner</parameterid>
								<name>Lower Left</name>
								<value>
									<horiz>-0.5</horiz>
									<vert>0.5</vert>
								</value>
							</parameter>
							<parameter>
								<parameterid>aspect</parameterid>
								<name>Aspect</name>
								<valuemin>-10000</valuemin>
								<valuemax>10000</valuemax>
								<value>0</value>
							</parameter>
						</effect>
					</filter>
					<filter>
						<effect>
							<name>Opacity</name>
							<effectid>opacity</effectid>
							<effectcategory>motion</effectcategory>
							<effecttype>motion</effecttype>
							<mediatype>video</mediatype>
							<parameter>
								<parameterid>opacity</parameterid>
								<name>opacity</name>
								<valuemin>0</valuemin>
								<valuemax>100</valuemax>
								<value>100</value>
							</parameter>
						</effect>
					</filter>
					<sourcetrack>
						<mediatype>video</mediatype>
					</sourcetrack>
					<fielddominance>none</fielddominance>
				</clipitem>
				<enabled>TRUE</enabled>
				<locked>FALSE</locked>
			</track>
			<track>
				<transitionitem id="1048713208 ">
					<rate>
						<ntsc>FALSE</ntsc>
						<timebase>25</timebase>
					</rate>
					<start>6086</start>
					<end>6094</end>
					<alignment>start</alignment>
					<effect>
						<name>Push Slide Copy</name>
						<effectid>Push Slide</effectid>
						<effectcategory>Slide</effectcategory>
						<effecttype>transition</effecttype>
						<mediatype>video</mediatype>
						<wipecode>1</wipecode>
						<wipeaccuracy>100</wipeaccuracy>
						<startratio>0</startratio>
						<endratio>1</endratio>
						<reverse>FALSE</reverse>
						<parameter>
							<parameterid>angleofpush</parameterid>
							<name>Angle</name>
							<valuemin>-360</valuemin>
							<valuemax>360</valuemax>
							<value>180</value>
						</parameter>
						<parameter>
							<parameterid>borderwidth</parameterid>
							<name>Border</name>
							<valuemin>0</valuemin>
							<valuemax>10</valuemax>
							<value>0</value>
						</parameter>
						<parameter>
							<parameterid>bordercolor</parameterid>
							<name>Color</name>
							<value>
								<alpha>255</alpha>
								<red>0</red>
								<green>0</green>
								<blue>0</blue>
							</value>
						</parameter>
					</effect>
				</transitionitem>
				<clipitem id="Fra Jakten paÌŠ nyresteinen.png">
					<name>Fra Jakten paÌŠ nyresteinen.png</name>
					<duration>3026</duration>
					<rate>
						<ntsc>FALSE</ntsc>
						<timebase>25</timebase>
					</rate>
					<in>1488</in>
					<out>1707</out>
					<start>-1</start>
					<end>6305</end>
					<pixelaspectratio>Square</pixelaspectratio>
					<stillframe>TRUE</stillframe>
					<enabled>TRUE</enabled>
					<anamorphic>FALSE</anamorphic>
					<alphatype>straight</alphatype>
					<masterclipid>Fra Jakten paÌŠ nyresteinen.png1</masterclipid>
					<logginginfo>
						<scene/>
						<shottake/>
						<lognote/>
						<good>FALSE</good>
					</logginginfo>
					<labels>
						<label2/>
					</labels>
					<comments>
						<mastercomment1/>
						<mastercomment2/>
						<mastercomment3/>
						<mastercomment4/>
					</comments>
					<file id="Fra Jakten paÌŠ nyresteinen">
						<name>Fra Jakten paÌŠ nyresteinen.png</name>
						<pathurl>file://localhost/SuperSAN1/Prosjekter/MSUB20000012%20FIN%20FREDAG/FCP-PROSJEKTER,%20sesong%202/program%201%20Jenny/Supere/Fra%20Jakten%20pa%CC%8A%20nyresteinen.png</pathurl>
						<rate>
							<timebase>25</timebase>
						</rate>
						<duration>2</duration>
						<width>2373</width>
						<height>393</height>
						<media>
							<video>
								<duration>2</duration>
								<stillframe>TRUE</stillframe>
								<samplecharacteristics>
									<width>2373</width>
									<height>393</height>
								</samplecharacteristics>
							</video>
						</media>
					</file>
					<filter>
						<effect>
							<name>Basic Motion</name>
							<effectid>basic</effectid>
							<effectcategory>motion</effectcategory>
							<effecttype>motion</effecttype>
							<mediatype>video</mediatype>
							<parameter>
								<parameterid>scale</parameterid>
								<name>Scale</name>
								<value>40.3365</value>
							</parameter>
							<parameter>
								<parameterid>center</parameterid>
								<name>Center</name>
								<value>
									<horiz>-0.146613</horiz>
									<vert>-1.02439</vert>
								</value>
							</parameter>
						</effect>
					</filter>
					<sourcetrack>
						<mediatype>video</mediatype>
					</sourcetrack>
					<fielddominance>none</fielddominance>
				</clipitem>
				<clipitem id="Fra Jakten paÌŠ nyresteinen.png2">
					<name>Fra Jakten paÌŠ nyresteinen.png</name>
					<duration>3026</duration>
					<rate>
						<ntsc>FALSE</ntsc>
						<timebase>25</timebase>
					</rate>
					<in>1488</in>
					<out>1724</out>
					<start>8366</start>
					<end>8602</end>
					<pixelaspectratio>Square</pixelaspectratio>
					<stillframe>TRUE</stillframe>
					<enabled>TRUE</enabled>
					<anamorphic>FALSE</anamorphic>
					<alphatype>straight</alphatype>
					<masterclipid>Fra Jakten paÌŠ nyresteinen.png1</masterclipid>
					<logginginfo>
						<scene/>
						<shottake/>
						<lognote/>
						<good>FALSE</good>
					</logginginfo>
					<labels>
						<label2/>
					</labels>
					<comments>
						<mastercomment1/>
						<mastercomment2/>
						<mastercomment3/>
						<mastercomment4/>
					</comments>
					<file id="Fra Jakten paÌŠ nyresteinen"/>
					<filter>
						<effect>
							<name>Basic Motion</name>
							<effectid>basic</effectid>
							<effectcategory>motion</effectcategory>
							<effecttype>motion</effecttype>
							<mediatype>video</mediatype>
							<parameter>
								<parameterid>scale</parameterid>
								<name>Scale</name>
								<value>26.0257</value>
							</parameter>
							<parameter>
								<parameterid>center</parameterid>
								<name>Center</name>
								<value>
									<horiz>-0.199191</horiz>
									<vert>0.97561</vert>
								</value>
							</parameter>
						</effect>
					</filter>
					<sourcetrack>
						<mediatype>video</mediatype>
					</sourcetrack>
					<fielddominance>none</fielddominance>
				</clipitem>
				<clipitem id="Fra Jakten paÌŠ nyresteinen.png3">
					<name>Fra Jakten paÌŠ nyresteinen.png</name>
					<duration>3026</duration>
					<rate>
						<ntsc>FALSE</ntsc>
						<timebase>25</timebase>
					</rate>
					<in>1488</in>
					<out>1722</out>
					<start>10582</start>
					<end>10816</end>
					<pixelaspectratio>Square</pixelaspectratio>
					<stillframe>TRUE</stillframe>
					<enabled>TRUE</enabled>
					<anamorphic>FALSE</anamorphic>
					<alphatype>straight</alphatype>
					<masterclipid>Fra Jakten paÌŠ nyresteinen.png1</masterclipid>
					<logginginfo>
						<scene/>
						<shottake/>
						<lognote/>
						<good>FALSE</good>
					</logginginfo>
					<labels>
						<label2/>
					</labels>
					<comments>
						<mastercomment1/>
						<mastercomment2/>
						<mastercomment3/>
						<mastercomment4/>
					</comments>
					<file id="Fra Jakten paÌŠ nyresteinen"/>
					<filter>
						<effect>
							<name>Basic Motion</name>
							<effectid>basic</effectid>
							<effectcategory>motion</effectcategory>
							<effecttype>motion</effecttype>
							<mediatype>video</mediatype>
							<parameter>
								<parameterid>scale</parameterid>
								<name>Scale</name>
								<value>26.0257</value>
							</parameter>
							<parameter>
								<parameterid>center</parameterid>
								<name>Center</name>
								<value>
									<horiz>-0.199191</horiz>
									<vert>0.97561</vert>
								</value>
							</parameter>
						</effect>
					</filter>
					<sourcetrack>
						<mediatype>video</mediatype>
					</sourcetrack>
					<fielddominance>none</fielddominance>
				</clipitem>
				<clipitem id="Kristine.png2">
					<name>Kristine.png</name>
					<duration>3026</duration>
					<rate>
						<ntsc>FALSE</ntsc>
						<timebase>25</timebase>
					</rate>
					<in>1500</in>
					<out>1512</out>
					<start>31771</start>
					<end>31783</end>
					<pixelaspectratio>Square</pixelaspectratio>
					<stillframe>TRUE</stillframe>
					<enabled>TRUE</enabled>
					<anamorphic>FALSE</anamorphic>
					<alphatype>straight</alphatype>
					<masterclipid>Kristine.png3</masterclipid>
					<logginginfo>
						<scene/>
						<shottake/>
						<lognote/>
						<good>FALSE</good>
					</logginginfo>
					<labels>
						<label2/>
					</labels>
					<comments>
						<mastercomment1/>
						<mastercomment2/>
						<mastercomment3/>
						<mastercomment4/>
					</comments>
					<file id="Kristine1">
						<name>Kristine.png</name>
						<pathurl>file://localhost/SuperSAN1/Prosjekter/MSUB20000012%20FIN%20FREDAG/test%20av%20Kristine%20og%20r%C3%B8kla/Kristine.png</pathurl>
						<rate>
							<timebase>25</timebase>
						</rate>
						<duration>2</duration>
						<width>2478</width>
						<height>393</height>
						<media>
							<video>
								<duration>2</duration>
								<stillframe>TRUE</stillframe>
								<samplecharacteristics>
									<width>2478</width>
									<height>393</height>
								</samplecharacteristics>
							</video>
						</media>
					</file>
					<filter>
						<effect>
							<name>Basic Motion</name>
							<effectid>basic</effectid>
							<effectcategory>motion</effectcategory>
							<effecttype>motion</effecttype>
							<mediatype>video</mediatype>
							<parameter>
								<parameterid>scale</parameterid>
								<name>Scale</name>
								<valuemin>0</valuemin>
								<valuemax>1000</valuemax>
								<value>77.4818</value>
							</parameter>
							<parameter>
								<parameterid>rotation</parameterid>
								<name>Rotation</name>
								<valuemin>-8640</valuemin>
								<valuemax>8640</valuemax>
								<value>0</value>
							</parameter>
							<parameter>
								<parameterid>center</parameterid>
								<name>Center</name>
								<value>
									<horiz>0.0403551</horiz>
									<vert>0</vert>
								</value>
							</parameter>
							<parameter>
								<parameterid>centerOffset</parameterid>
								<name>Anchor Point</name>
								<value>
									<horiz>0</horiz>
									<vert>0</vert>
								</value>
							</parameter>
						</effect>
					</filter>
					<filter>
						<enabled>FALSE</enabled>
						<effect>
							<name>Drop Shadow</name>
							<effectid>dropshadow</effectid>
							<effectcategory>motion</effectcategory>
							<effecttype>motion</effecttype>
							<mediatype>video</mediatype>
							<parameter>
								<parameterid>offset</parameterid>
								<name>offset</name>
								<valuemin>-100</valuemin>
								<valuemax>100</valuemax>
								<value>2</value>
							</parameter>
							<parameter>
								<parameterid>angle</parameterid>
								<name>angle</name>
								<valuemin>-720</valuemin>
								<valuemax>720</valuemax>
								<value>135</value>
							</parameter>
							<parameter>
								<parameterid>color</parameterid>
								<name>color</name>
								<value>
									<alpha>0</alpha>
									<red>0</red>
									<green>0</green>
									<blue>0</blue>
								</value>
							</parameter>
							<parameter>
								<parameterid>softness</parameterid>
								<name>softness</name>
								<valuemin>0</valuemin>
								<valuemax>100</valuemax>
								<value>10</value>
							</parameter>
							<parameter>
								<parameterid>opacity</parameterid>
								<name>opacity</name>
								<valuemin>0</valuemin>
								<valuemax>100</valuemax>
								<value>50</value>
							</parameter>
						</effect>
					</filter>
					<filter>
						<enabled>FALSE</enabled>
						<effect>
							<name>Motion Blur</name>
							<effectid>motionblur</effectid>
							<effectcategory>motion</effectcategory>
							<effecttype>motion</effecttype>
							<mediatype>video</mediatype>
							<parameter>
								<parameterid>duration</parameterid>
								<name>% Blur</name>
								<valuemin>0</valuemin>
								<valuemax>1000</valuemax>
								<value>500</value>
							</parameter>
							<parameter>
								<parameterid>samples</parameterid>
								<name>Samples</name>
								<valuemin>1</valuemin>
								<valuemax>16</valuemax>
								<value>4</value>
							</parameter>
						</effect>
					</filter>
					<filter>
						<effect>
							<name>Crop</name>
							<effectid>crop</effectid>
							<effectcategory>motion</effectcategory>
							<effecttype>motion</effecttype>
							<mediatype>video</mediatype>
							<parameter>
								<parameterid>left</parameterid>
								<name>left</name>
								<valuemin>0</valuemin>
								<valuemax>100</valuemax>
								<value>0</value>
							</parameter>
							<parameter>
								<parameterid>right</parameterid>
								<name>right</name>
								<valuemin>0</valuemin>
								<valuemax>100</valuemax>
								<value>0</value>
							</parameter>
							<parameter>
								<parameterid>top</parameterid>
								<name>top</name>
								<valuemin>0</valuemin>
								<valuemax>100</valuemax>
								<value>0</value>
							</parameter>
							<parameter>
								<parameterid>bottom</parameterid>
								<name>bottom</name>
								<valuemin>0</valuemin>
								<valuemax>100</valuemax>
								<value>0</value>
							</parameter>
							<parameter>
								<parameterid>edgefeather</parameterid>
								<name>edgefeather</name>
								<valuemin>0</valuemin>
								<valuemax>100</valuemax>
								<value>0</value>
							</parameter>
						</effect>
					</filter>
					<filter>
						<effect>
							<name>Distort</name>
							<effectid>deformation</effectid>
							<effectcategory>motion</effectcategory>
							<effecttype>motion</effecttype>
							<mediatype>video</mediatype>
							<parameter>
								<parameterid>ulcorner</parameterid>
								<name>Upper Left</name>
								<value>
									<horiz>-0.5</horiz>
									<vert>-0.5</vert>
								</value>
							</parameter>
							<parameter>
								<parameterid>urcorner</parameterid>
								<name>Upper Right</name>
								<value>
									<horiz>0.5</horiz>
									<vert>-0.5</vert>
								</value>
							</parameter>
							<parameter>
								<parameterid>lrcorner</parameterid>
								<name>Lower Right</name>
								<value>
									<horiz>0.5</horiz>
									<vert>0.5</vert>
								</value>
							</parameter>
							<parameter>
								<parameterid>llcorner</parameterid>
								<name>Lower Left</name>
								<value>
									<horiz>-0.5</horiz>
									<vert>0.5</vert>
								</value>
							</parameter>
							<parameter>
								<parameterid>aspect</parameterid>
								<name>Aspect</name>
								<valuemin>-10000</valuemin>
								<valuemax>10000</valuemax>
								<value>0</value>
							</parameter>
						</effect>
					</filter>
					<filter>
						<effect>
							<name>Opacity</name>
							<effectid>opacity</effectid>
							<effectcategory>motion</effectcategory>
							<effecttype>motion</effecttype>
							<mediatype>video</mediatype>
							<parameter>
								<parameterid>opacity</parameterid>
								<name>opacity</name>
								<valuemin>0</valuemin>
								<valuemax>100</valuemax>
								<value>100</value>
							</parameter>
						</effect>
					</filter>
					<sourcetrack>
						<mediatype>video</mediatype>
					</sourcetrack>
					<fielddominance>none</fielddominance>
				</clipitem>
				<clipitem id="Kristine.png4">
					<name>Kristine.png</name>
					<duration>3026</duration>
					<rate>
						<ntsc>FALSE</ntsc>
						<timebase>25</timebase>
					</rate>
					<in>1495</in>
					<out>1507</out>
					<start>31803</start>
					<end>31815</end>
					<pixelaspectratio>Square</pixelaspectratio>
					<stillframe>TRUE</stillframe>
					<enabled>TRUE</enabled>
					<anamorphic>FALSE</anamorphic>
					<alphatype>straight</alphatype>
					<masterclipid>Kristine.png3</masterclipid>
					<logginginfo>
						<scene/>
						<shottake/>
						<lognote/>
						<good>FALSE</good>
					</logginginfo>
					<labels>
						<label2/>
					</labels>
					<comments>
						<mastercomment1/>
						<mastercomment2/>
						<mastercomment3/>
						<mastercomment4/>
					</comments>
					<file id="Kristine1"/>
					<filter>
						<effect>
							<name>Basic Motion</name>
							<effectid>basic</effectid>
							<effectcategory>motion</effectcategory>
							<effecttype>motion</effecttype>
							<mediatype>video</mediatype>
							<parameter>
								<parameterid>scale</parameterid>
								<name>Scale</name>
								<valuemin>0</valuemin>
								<valuemax>1000</valuemax>
								<value>77.4818</value>
							</parameter>
							<parameter>
								<parameterid>rotation</parameterid>
								<name>Rotation</name>
								<valuemin>-8640</valuemin>
								<valuemax>8640</valuemax>
								<value>0</value>
							</parameter>
							<parameter>
								<parameterid>center</parameterid>
								<name>Center</name>
								<value>
									<horiz>0.0403551</horiz>
									<vert>0</vert>
								</value>
							</parameter>
							<parameter>
								<parameterid>centerOffset</parameterid>
								<name>Anchor Point</name>
								<value>
									<horiz>0</horiz>
									<vert>0</vert>
								</value>
							</parameter>
						</effect>
					</filter>
					<sourcetrack>
						<mediatype>video</mediatype>
					</sourcetrack>
					<fielddominance>none</fielddominance>
				</clipitem>
				<clipitem id="Kristine.png5">
					<name>Kristine.png</name>
					<duration>3026</duration>
					<rate>
						<ntsc>FALSE</ntsc>
						<timebase>25</timebase>
					</rate>
					<in>1500</in>
					<out>1507</out>
					<start>31826</start>
					<end>31833</end>
					<pixelaspectratio>Square</pixelaspectratio>
					<stillframe>TRUE</stillframe>
					<enabled>TRUE</enabled>
					<anamorphic>FALSE</anamorphic>
					<alphatype>straight</alphatype>
					<masterclipid>Kristine.png3</masterclipid>
					<logginginfo>
						<scene/>
						<shottake/>
						<lognote/>
						<good>FALSE</good>
					</logginginfo>
					<labels>
						<label2/>
					</labels>
					<comments>
						<mastercomment1/>
						<mastercomment2/>
						<mastercomment3/>
						<mastercomment4/>
					</comments>
					<file id="Kristine1"/>
					<filter>
						<effect>
							<name>Basic Motion</name>
							<effectid>basic</effectid>
							<effectcategory>motion</effectcategory>
							<effecttype>motion</effecttype>
							<mediatype>video</mediatype>
							<parameter>
								<parameterid>scale</parameterid>
								<name>Scale</name>
								<valuemin>0</valuemin>
								<valuemax>1000</valuemax>
								<value>77.4818</value>
							</parameter>
							<parameter>
								<parameterid>rotation</parameterid>
								<name>Rotation</name>
								<valuemin>-8640</valuemin>
								<valuemax>8640</valuemax>
								<value>0</value>
							</parameter>
							<parameter>
								<parameterid>center</parameterid>
								<name>Center</name>
								<value>
									<horiz>0.0403551</horiz>
									<vert>0</vert>
								</value>
							</parameter>
							<parameter>
								<parameterid>centerOffset</parameterid>
								<name>Anchor Point</name>
								<value>
									<horiz>0</horiz>
									<vert>0</vert>
								</value>
							</parameter>
						</effect>
					</filter>
					<filter>
						<enabled>FALSE</enabled>
						<effect>
							<name>Drop Shadow</name>
							<effectid>dropshadow</effectid>
							<effectcategory>motion</effectcategory>
							<effecttype>motion</effecttype>
							<mediatype>video</mediatype>
							<parameter>
								<parameterid>offset</parameterid>
								<name>offset</name>
								<valuemin>-100</valuemin>
								<valuemax>100</valuemax>
								<value>2</value>
							</parameter>
							<parameter>
								<parameterid>angle</parameterid>
								<name>angle</name>
								<valuemin>-720</valuemin>
								<valuemax>720</valuemax>
								<value>135</value>
							</parameter>
							<parameter>
								<parameterid>color</parameterid>
								<name>color</name>
								<value>
									<alpha>0</alpha>
									<red>0</red>
									<green>0</green>
									<blue>0</blue>
								</value>
							</parameter>
							<parameter>
								<parameterid>softness</parameterid>
								<name>softness</name>
								<valuemin>0</valuemin>
								<valuemax>100</valuemax>
								<value>10</value>
							</parameter>
							<parameter>
								<parameterid>opacity</parameterid>
								<name>opacity</name>
								<valuemin>0</valuemin>
								<valuemax>100</valuemax>
								<value>50</value>
							</parameter>
						</effect>
					</filter>
					<filter>
						<enabled>FALSE</enabled>
						<effect>
							<name>Motion Blur</name>
							<effectid>motionblur</effectid>
							<effectcategory>motion</effectcategory>
							<effecttype>motion</effecttype>
							<mediatype>video</mediatype>
							<parameter>
								<parameterid>duration</parameterid>
								<name>% Blur</name>
								<valuemin>0</valuemin>
								<valuemax>1000</valuemax>
								<value>500</value>
							</parameter>
							<parameter>
								<parameterid>samples</parameterid>
								<name>Samples</name>
								<valuemin>1</valuemin>
								<valuemax>16</valuemax>
								<value>4</value>
							</parameter>
						</effect>
					</filter>
					<filter>
						<effect>
							<name>Crop</name>
							<effectid>crop</effectid>
							<effectcategory>motion</effectcategory>
							<effecttype>motion</effecttype>
							<mediatype>video</mediatype>
							<parameter>
								<parameterid>left</parameterid>
								<name>left</name>
								<valuemin>0</valuemin>
								<valuemax>100</valuemax>
								<value>0</value>
							</parameter>
							<parameter>
								<parameterid>right</parameterid>
								<name>right</name>
								<valuemin>0</valuemin>
								<valuemax>100</valuemax>
								<value>0</value>
							</parameter>
							<parameter>
								<parameterid>top</parameterid>
								<name>top</name>
								<valuemin>0</valuemin>
								<valuemax>100</valuemax>
								<value>0</value>
							</parameter>
							<parameter>
								<parameterid>bottom</parameterid>
								<name>bottom</name>
								<valuemin>0</valuemin>
								<valuemax>100</valuemax>
								<value>0</value>
							</parameter>
							<parameter>
								<parameterid>edgefeather</parameterid>
								<name>edgefeather</name>
								<valuemin>0</valuemin>
								<valuemax>100</valuemax>
								<value>0</value>
							</parameter>
						</effect>
					</filter>
					<filter>
						<effect>
							<name>Distort</name>
							<effectid>deformation</effectid>
							<effectcategory>motion</effectcategory>
							<effecttype>motion</effecttype>
							<mediatype>video</mediatype>
							<parameter>
								<parameterid>ulcorner</parameterid>
								<name>Upper Left</name>
								<value>
									<horiz>-0.5</horiz>
									<vert>-0.5</vert>
								</value>
							</parameter>
							<parameter>
								<parameterid>urcorner</parameterid>
								<name>Upper Right</name>
								<value>
									<horiz>0.5</horiz>
									<vert>-0.5</vert>
								</value>
							</parameter>
							<parameter>
								<parameterid>lrcorner</parameterid>
								<name>Lower Right</name>
								<value>
									<horiz>0.5</horiz>
									<vert>0.5</vert>
								</value>
							</parameter>
							<parameter>
								<parameterid>llcorner</parameterid>
								<name>Lower Left</name>
								<value>
									<horiz>-0.5</horiz>
									<vert>0.5</vert>
								</value>
							</parameter>
							<parameter>
								<parameterid>aspect</parameterid>
								<name>Aspect</name>
								<valuemin>-10000</valuemin>
								<valuemax>10000</valuemax>
								<value>0</value>
							</parameter>
						</effect>
					</filter>
					<filter>
						<effect>
							<name>Opacity</name>
							<effectid>opacity</effectid>
							<effectcategory>motion</effectcategory>
							<effecttype>motion</effecttype>
							<mediatype>video</mediatype>
							<parameter>
								<parameterid>opacity</parameterid>
								<name>opacity</name>
								<valuemin>0</valuemin>
								<valuemax>100</valuemax>
								<value>100</value>
							</parameter>
						</effect>
					</filter>
					<sourcetrack>
						<mediatype>video</mediatype>
					</sourcetrack>
					<fielddominance>none</fielddominance>
				</clipitem>
				<clipitem id="Kristine.png6">
					<name>Kristine.png</name>
					<duration>3026</duration>
					<rate>
						<ntsc>FALSE</ntsc>
						<timebase>25</timebase>
					</rate>
					<in>1507</in>
					<out>1530</out>
					<start>31833</start>
					<end>31856</end>
					<pixelaspectratio>Square</pixelaspectratio>
					<stillframe>TRUE</stillframe>
					<enabled>TRUE</enabled>
					<anamorphic>FALSE</anamorphic>
					<alphatype>straight</alphatype>
					<masterclipid>Kristine.png3</masterclipid>
					<logginginfo>
						<scene/>
						<shottake/>
						<lognote/>
						<good>FALSE</good>
					</logginginfo>
					<labels>
						<label2/>
					</labels>
					<comments>
						<mastercomment1/>
						<mastercomment2/>
						<mastercomment3/>
						<mastercomment4/>
					</comments>
					<file id="Kristine1"/>
					<filter>
						<effect>
							<name>Basic Motion</name>
							<effectid>basic</effectid>
							<effectcategory>motion</effectcategory>
							<effecttype>motion</effecttype>
							<mediatype>video</mediatype>
							<parameter>
								<parameterid>scale</parameterid>
								<name>Scale</name>
								<valuemin>0</valuemin>
								<valuemax>1000</valuemax>
								<value>81</value>
							</parameter>
							<parameter>
								<parameterid>rotation</parameterid>
								<name>Rotation</name>
								<valuemin>-8640</valuemin>
								<valuemax>8640</valuemax>
								<value>9</value>
							</parameter>
							<parameter>
								<parameterid>center</parameterid>
								<name>Center</name>
								<value>
									<horiz>0.0403551</horiz>
									<vert>0</vert>
								</value>
							</parameter>
							<parameter>
								<parameterid>centerOffset</parameterid>
								<name>Anchor Point</name>
								<value>
									<horiz>0</horiz>
									<vert>0</vert>
								</value>
							</parameter>
						</effect>
					</filter>
					<filter>
						<enabled>FALSE</enabled>
						<effect>
							<name>Drop Shadow</name>
							<effectid>dropshadow</effectid>
							<effectcategory>motion</effectcategory>
							<effecttype>motion</effecttype>
							<mediatype>video</mediatype>
							<parameter>
								<parameterid>offset</parameterid>
								<name>offset</name>
								<valuemin>-100</valuemin>
								<valuemax>100</valuemax>
								<value>2</value>
							</parameter>
							<parameter>
								<parameterid>angle</parameterid>
								<name>angle</name>
								<valuemin>-720</valuemin>
								<valuemax>720</valuemax>
								<value>135</value>
							</parameter>
							<parameter>
								<parameterid>color</parameterid>
								<name>color</name>
								<value>
									<alpha>0</alpha>
									<red>0</red>
									<green>0</green>
									<blue>0</blue>
								</value>
							</parameter>
							<parameter>
								<parameterid>softness</parameterid>
								<name>softness</name>
								<valuemin>0</valuemin>
								<valuemax>100</valuemax>
								<value>10</value>
							</parameter>
							<parameter>
								<parameterid>opacity</parameterid>
								<name>opacity</name>
								<valuemin>0</valuemin>
								<valuemax>100</valuemax>
								<value>50</value>
							</parameter>
						</effect>
					</filter>
					<filter>
						<enabled>FALSE</enabled>
						<effect>
							<name>Motion Blur</name>
							<effectid>motionblur</effectid>
							<effectcategory>motion</effectcategory>
							<effecttype>motion</effecttype>
							<mediatype>video</mediatype>
							<parameter>
								<parameterid>duration</parameterid>
								<name>% Blur</name>
								<valuemin>0</valuemin>
								<valuemax>1000</valuemax>
								<value>500</value>
							</parameter>
							<parameter>
								<parameterid>samples</parameterid>
								<name>Samples</name>
								<valuemin>1</valuemin>
								<valuemax>16</valuemax>
								<value>4</value>
							</parameter>
						</effect>
					</filter>
					<filter>
						<effect>
							<name>Crop</name>
							<effectid>crop</effectid>
							<effectcategory>motion</effectcategory>
							<effecttype>motion</effecttype>
							<mediatype>video</mediatype>
							<parameter>
								<parameterid>left</parameterid>
								<name>left</name>
								<valuemin>0</valuemin>
								<valuemax>100</valuemax>
								<value>0</value>
							</parameter>
							<parameter>
								<parameterid>right</parameterid>
								<name>right</name>
								<valuemin>0</valuemin>
								<valuemax>100</valuemax>
								<value>0</value>
							</parameter>
							<parameter>
								<parameterid>top</parameterid>
								<name>top</name>
								<valuemin>0</valuemin>
								<valuemax>100</valuemax>
								<value>0</value>
							</parameter>
							<parameter>
								<parameterid>bottom</parameterid>
								<name>bottom</name>
								<valuemin>0</valuemin>
								<valuemax>100</valuemax>
								<value>0</value>
							</parameter>
							<parameter>
								<parameterid>edgefeather</parameterid>
								<name>edgefeather</name>
								<valuemin>0</valuemin>
								<valuemax>100</valuemax>
								<value>0</value>
							</parameter>
						</effect>
					</filter>
					<filter>
						<effect>
							<name>Distort</name>
							<effectid>deformation</effectid>
							<effectcategory>motion</effectcategory>
							<effecttype>motion</effecttype>
							<mediatype>video</mediatype>
							<parameter>
								<parameterid>ulcorner</parameterid>
								<name>Upper Left</name>
								<value>
									<horiz>-0.5</horiz>
									<vert>-0.5</vert>
								</value>
							</parameter>
							<parameter>
								<parameterid>urcorner</parameterid>
								<name>Upper Right</name>
								<value>
									<horiz>0.5</horiz>
									<vert>-0.5</vert>
								</value>
							</parameter>
							<parameter>
								<parameterid>lrcorner</parameterid>
								<name>Lower Right</name>
								<value>
									<horiz>0.5</horiz>
									<vert>0.5</vert>
								</value>
							</parameter>
							<parameter>
								<parameterid>llcorner</parameterid>
								<name>Lower Left</name>
								<value>
									<horiz>-0.5</horiz>
									<vert>0.5</vert>
								</value>
							</parameter>
							<parameter>
								<parameterid>aspect</parameterid>
								<name>Aspect</name>
								<valuemin>-10000</valuemin>
								<valuemax>10000</valuemax>
								<value>0</value>
							</parameter>
						</effect>
					</filter>
					<filter>
						<effect>
							<name>Opacity</name>
							<effectid>opacity</effectid>
							<effectcategory>motion</effectcategory>
							<effecttype>motion</effecttype>
							<mediatype>video</mediatype>
							<parameter>
								<parameterid>opacity</parameterid>
								<name>opacity</name>
								<valuemin>0</valuemin>
								<valuemax>100</valuemax>
								<value>100</value>
							</parameter>
						</effect>
					</filter>
					<sourcetrack>
						<mediatype>video</mediatype>
					</sourcetrack>
					<fielddominance>none</fielddominance>
				</clipitem>
				<clipitem id="Jenny.png4">
					<name>Jenny.png</name>
					<duration>3026</duration>
					<rate>
						<ntsc>FALSE</ntsc>
						<timebase>25</timebase>
					</rate>
					<in>1500</in>
					<out>1574</out>
					<start>32017</start>
					<end>-1</end>
					<pixelaspectratio>Square</pixelaspectratio>
					<stillframe>TRUE</stillframe>
					<enabled>TRUE</enabled>
					<anamorphic>FALSE</anamorphic>
					<alphatype>straight</alphatype>
					<masterclipid>Jenny.png1</masterclipid>
					<logginginfo>
						<scene/>
						<shottake/>
						<lognote/>
						<good>FALSE</good>
					</logginginfo>
					<labels>
						<label2/>
					</labels>
					<comments>
						<mastercomment1/>
						<mastercomment2/>
						<mastercomment3/>
						<mastercomment4/>
					</comments>
					<file id="Jenny"/>
					<filter>
						<effect>
							<name>Basic Motion</name>
							<effectid>basic</effectid>
							<effectcategory>motion</effectcategory>
							<effecttype>motion</effecttype>
							<mediatype>video</mediatype>
							<parameter>
								<parameterid>scale</parameterid>
								<name>Scale</name>
								<valuemin>0</valuemin>
								<valuemax>1000</valuemax>
								<value>100</value>
							</parameter>
							<parameter>
								<parameterid>center</parameterid>
								<name>Center</name>
								<value>
									<horiz>-0.0191606</horiz>
									<vert>0.87931</vert>
								</value>
							</parameter>
							<parameter>
								<parameterid>rotation</parameterid>
								<name>Rotation</name>
								<valuemin>-8640</valuemin>
								<valuemax>8640</valuemax>
								<value>-6</value>
							</parameter>
							<parameter>
								<parameterid>centerOffset</parameterid>
								<name>Anchor Point</name>
								<value>
									<horiz>0</horiz>
									<vert>0</vert>
								</value>
							</parameter>
						</effect>
					</filter>
					<filter>
						<enabled>FALSE</enabled>
						<effect>
							<name>Drop Shadow</name>
							<effectid>dropshadow</effectid>
							<effectcategory>motion</effectcategory>
							<effecttype>motion</effecttype>
							<mediatype>video</mediatype>
							<parameter>
								<parameterid>offset</parameterid>
								<name>offset</name>
								<valuemin>-100</valuemin>
								<valuemax>100</valuemax>
								<value>2</value>
							</parameter>
							<parameter>
								<parameterid>angle</parameterid>
								<name>angle</name>
								<valuemin>-720</valuemin>
								<valuemax>720</valuemax>
								<value>135</value>
							</parameter>
							<parameter>
								<parameterid>color</parameterid>
								<name>color</name>
								<value>
									<alpha>0</alpha>
									<red>0</red>
									<green>0</green>
									<blue>0</blue>
								</value>
							</parameter>
							<parameter>
								<parameterid>softness</parameterid>
								<name>softness</name>
								<valuemin>0</valuemin>
								<valuemax>100</valuemax>
								<value>10</value>
							</parameter>
							<parameter>
								<parameterid>opacity</parameterid>
								<name>opacity</name>
								<valuemin>0</valuemin>
								<valuemax>100</valuemax>
								<value>50</value>
							</parameter>
						</effect>
					</filter>
					<filter>
						<enabled>FALSE</enabled>
						<effect>
							<name>Motion Blur</name>
							<effectid>motionblur</effectid>
							<effectcategory>motion</effectcategory>
							<effecttype>motion</effecttype>
							<mediatype>video</mediatype>
							<parameter>
								<parameterid>duration</parameterid>
								<name>% Blur</name>
								<valuemin>0</valuemin>
								<valuemax>1000</valuemax>
								<value>500</value>
							</parameter>
							<parameter>
								<parameterid>samples</parameterid>
								<name>Samples</name>
								<valuemin>1</valuemin>
								<valuemax>16</valuemax>
								<value>4</value>
							</parameter>
						</effect>
					</filter>
					<filter>
						<effect>
							<name>Crop</name>
							<effectid>crop</effectid>
							<effectcategory>motion</effectcategory>
							<effecttype>motion</effecttype>
							<mediatype>video</mediatype>
							<parameter>
								<parameterid>left</parameterid>
								<name>left</name>
								<valuemin>0</valuemin>
								<valuemax>100</valuemax>
								<value>0</value>
							</parameter>
							<parameter>
								<parameterid>right</parameterid>
								<name>right</name>
								<valuemin>0</valuemin>
								<valuemax>100</valuemax>
								<value>0</value>
							</parameter>
							<parameter>
								<parameterid>top</parameterid>
								<name>top</name>
								<valuemin>0</valuemin>
								<valuemax>100</valuemax>
								<value>0</value>
							</parameter>
							<parameter>
								<parameterid>bottom</parameterid>
								<name>bottom</name>
								<valuemin>0</valuemin>
								<valuemax>100</valuemax>
								<value>0</value>
							</parameter>
							<parameter>
								<parameterid>edgefeather</parameterid>
								<name>edgefeather</name>
								<valuemin>0</valuemin>
								<valuemax>100</valuemax>
								<value>0</value>
							</parameter>
						</effect>
					</filter>
					<filter>
						<effect>
							<name>Distort</name>
							<effectid>deformation</effectid>
							<effectcategory>motion</effectcategory>
							<effecttype>motion</effecttype>
							<mediatype>video</mediatype>
							<parameter>
								<parameterid>ulcorner</parameterid>
								<name>Upper Left</name>
								<value>
									<horiz>-0.5</horiz>
									<vert>-0.5</vert>
								</value>
							</parameter>
							<parameter>
								<parameterid>urcorner</parameterid>
								<name>Upper Right</name>
								<value>
									<horiz>0.5</horiz>
									<vert>-0.5</vert>
								</value>
							</parameter>
							<parameter>
								<parameterid>lrcorner</parameterid>
								<name>Lower Right</name>
								<value>
									<horiz>0.5</horiz>
									<vert>0.5</vert>
								</value>
							</parameter>
							<parameter>
								<parameterid>llcorner</parameterid>
								<name>Lower Left</name>
								<value>
									<horiz>-0.5</horiz>
									<vert>0.5</vert>
								</value>
							</parameter>
							<parameter>
								<parameterid>aspect</parameterid>
								<name>Aspect</name>
								<valuemin>-10000</valuemin>
								<valuemax>10000</valuemax>
								<value>0</value>
							</parameter>
						</effect>
					</filter>
					<filter>
						<effect>
							<name>Opacity</name>
							<effectid>opacity</effectid>
							<effectcategory>motion</effectcategory>
							<effecttype>motion</effecttype>
							<mediatype>video</mediatype>
							<parameter>
								<parameterid>opacity</parameterid>
								<name>opacity</name>
								<valuemin>0</valuemin>
								<valuemax>100</valuemax>
								<value>100</value>
							</parameter>
						</effect>
					</filter>
					<sourcetrack>
						<mediatype>video</mediatype>
					</sourcetrack>
					<fielddominance>none</fielddominance>
				</clipitem>
				<transitionitem id="1048725176 ">
					<rate>
						<ntsc>FALSE</ntsc>
						<timebase>25</timebase>
					</rate>
					<start>32085</start>
					<end>32091</end>
					<alignment>end-black</alignment>
					<effect>
						<name>Push Slide</name>
						<effectid>Push Slide</effectid>
						<effectcategory>Slide</effectcategory>
						<effecttype>transition</effecttype>
						<mediatype>video</mediatype>
						<wipecode>1</wipecode>
						<wipeaccuracy>100</wipeaccuracy>
						<startratio>0</startratio>
						<endratio>1</endratio>
						<reverse>FALSE</reverse>
						<parameter>
							<parameterid>angleofpush</parameterid>
							<name>Angle</name>
							<valuemin>-360</valuemin>
							<valuemax>360</valuemax>
							<value>90</value>
						</parameter>
						<parameter>
							<parameterid>borderwidth</parameterid>
							<name>Border</name>
							<valuemin>0</valuemin>
							<valuemax>10</valuemax>
							<value>0</value>
						</parameter>
						<parameter>
							<parameterid>bordercolor</parameterid>
							<name>Color</name>
							<value>
								<alpha>255</alpha>
								<red>0</red>
								<green>0</green>
								<blue>0</blue>
							</value>
						</parameter>
					</effect>
				</transitionitem>
				<clipitem id="Vignett test kvsR 00:00:41:14 ">
					<name>Vignett test kvsR 00:00:41:14</name>
					<duration>3000</duration>
					<rate>
						<ntsc>FALSE</ntsc>
						<timebase>25</timebase>
					</rate>
					<in>1487</in>
					<out>1497</out>
					<start>32753</start>
					<end>32763</end>
					<labels>
						<label>Best Take</label>
						<label2/>
					</labels>
					<comments>
						<mastercomment1/>
						<mastercomment2/>
						<mastercomment3/>
						<mastercomment4/>
					</comments>
					<logginginfo>
						<scene/>
						<shottake/>
						<lognote/>
						<good>FALSE</good>
					</logginginfo>
					<filter>
						<start>-1</start>
						<end>-1</end>
						<effect>
							<name>De-interlace</name>
							<effectid>De-interlace</effectid>
							<effectcategory>Video</effectcategory>
							<effecttype>filter</effecttype>
							<mediatype>video</mediatype>
							<parameter>
								<parameterid>field</parameterid>
								<name>Field</name>
								<valuemin>1</valuemin>
								<valuemax>5</valuemax>
								<valuelist>
									<valueentry>
										<name>Upper (Odd)</name>
										<value>1</value>
									</valueentry>
									<valueentry>
										<name>Lower (Even)</name>
										<value>2</value>
									</valueentry>
									<valueentry>
										<name>Flicker Filter (minimal)</name>
										<value>3</value>
									</valueentry>
									<valueentry>
										<name>Flicker Filter (medium)</name>
										<value>4</value>
									</valueentry>
									<valueentry>
										<name>Flicker Filter (max)</name>
										<value>5</value>
									</valueentry>
								</valuelist>
								<value>1</value>
							</parameter>
						</effect>
					</filter>
					<sequence id="Vignett test kvsR 00:00:41:14 1">
						<name>Vignett test kvsR 00:00:41:14</name>
						<duration>3000</duration>
						<rate>
							<ntsc>FALSE</ntsc>
							<timebase>25</timebase>
						</rate>
						<in>0</in>
						<out>3000</out>
						<media>
							<video>
								<format>
									<samplecharacteristics>
										<width>1920</width>
										<height>1080</height>
										<anamorphic>FALSE</anamorphic>
										<pixelaspectratio>Square</pixelaspectratio>
										<fielddominance>upper</fielddominance>
										<rate>
											<ntsc>FALSE</ntsc>
											<timebase>25</timebase>
										</rate>
										<colordepth>24</colordepth>
										<codec>
											<name>Apple XDCAM 422 1080i50 (50 Mb/s CBR)</name>
											<appspecificdata>
												<appname>Final Cut Pro</appname>
												<appmanufacturer>Apple Inc.</appmanufacturer>
												<appversion>7.0</appversion>
												<data>
													<qtcodec>
														<codecname>Apple XDCAM 422 1080i50 (50 Mb/s CBR)</codecname>
														<codectypename>XDCAM 422 1080i50 (50 Mb/s CBR)</codectypename>
														<codectypecode>xd5c</codectypecode>
														<codecvendorcode>appl</codecvendorcode>
														<spatialquality>1023</spatialquality>
														<temporalquality>0</temporalquality>
														<keyframerate>0</keyframerate>
														<datarate>0</datarate>
													</qtcodec>
												</data>
											</appspecificdata>
										</codec>
									</samplecharacteristics>
									<appspecificdata>
										<appname>Final Cut Pro</appname>
										<appmanufacturer>Apple Inc.</appmanufacturer>
										<appversion>7.0</appversion>
										<data>
											<fcpimageprocessing>
												<useyuv>TRUE</useyuv>
												<usesuperwhite>FALSE</usesuperwhite>
												<rendermode>YUV8BPP</rendermode>
											</fcpimageprocessing>
										</data>
									</appspecificdata>
								</format>
								<track>
									<clipitem id="Vignett test kvsR 00:00:41:14 2">
										<name>Vignett test kvsR 00:00:41:14</name>
										<duration>3000</duration>
										<rate>
											<ntsc>FALSE</ntsc>
											<timebase>25</timebase>
										</rate>
										<in>0</in>
										<out>3000</out>
										<start>0</start>
										<end>3000</end>
										<stillframeoffset>1202</stillframeoffset>
										<pixelaspectratio>Square</pixelaspectratio>
										<anamorphic>FALSE</anamorphic>
										<alphatype>none</alphatype>
										<alphareverse>FALSE</alphareverse>
										<syncoffset>0</syncoffset>
										<logginginfo>
											<description>msub200012-3011-k1d3-002</description>
											<scene/>
											<shottake/>
											<lognote/>
											<good>FALSE</good>
										</logginginfo>
										<labels>
											<label>Good Take</label>
											<label2/>
										</labels>
										<comments>
											<mastercomment1>RÃ…STOFF. BR_FINFREDAG_MSUA_OPRO</mastercomment1>
											<mastercomment2/>
											<mastercomment3/>
											<mastercomment4/>
											<clipcommenta/>
										</comments>
										<file id="msub200012-3011-k1d3-002 2"/>
										<sourcetrack>
											<mediatype>video</mediatype>
										</sourcetrack>
										<fielddominance>upper</fielddominance>
									</clipitem>
									<enabled>TRUE</enabled>
									<locked>FALSE</locked>
								</track>
								<track>
									<clipitem id="Vignett test kvsR 00:00:41:14 3">
										<name>Vignett test kvsR 00:00:41:14</name>
										<duration>3000</duration>
										<rate>
											<ntsc>FALSE</ntsc>
											<timebase>25</timebase>
										</rate>
										<in>0</in>
										<out>3000</out>
										<start>0</start>
										<end>3000</end>
										<stillframeoffset>1376</stillframeoffset>
										<pixelaspectratio>Square</pixelaspectratio>
										<enabled>TRUE</enabled>
										<anamorphic>FALSE</anamorphic>
										<alphatype>none</alphatype>
										<alphareverse>FALSE</alphareverse>
										<logginginfo>
											<description>msub200012-3011-k2d3-005</description>
											<scene/>
											<shottake/>
											<lognote/>
											<good>FALSE</good>
										</logginginfo>
										<labels>
											<label>Good Take</label>
											<label2/>
										</labels>
										<comments>
											<mastercomment1>RÃ…STOFF. BR_FINFREDAG_MSUA_OPRO</mastercomment1>
											<mastercomment2/>
											<mastercomment3/>
											<mastercomment4/>
											<clipcommenta/>
										</comments>
										<file id="msub200012-3011-k2d3-005 2"/>
										<sourcetrack>
											<mediatype>video</mediatype>
										</sourcetrack>
										<fielddominance>upper</fielddominance>
									</clipitem>
									<enabled>TRUE</enabled>
									<locked>FALSE</locked>
								</track>
								<track>
									<clipitem id="Vignett test kvsR 00:00:41:14 4">
										<name>Vignett test kvsR 00:00:41:14</name>
										<duration>3000</duration>
										<rate>
											<ntsc>FALSE</ntsc>
											<timebase>25</timebase>
										</rate>
										<in>0</in>
										<out>3000</out>
										<start>0</start>
										<end>3000</end>
										<labels>
											<label>Best Take</label>
											<label2/>
										</labels>
										<sequence id="Vignett test kvsR 00:00:41:11 10">
											<name>Vignett test kvsR 00:00:41:11</name>
											<duration>3000</duration>
											<rate>
												<ntsc>FALSE</ntsc>
												<timebase>25</timebase>
											</rate>
											<in>0</in>
											<out>3000</out>
											<media>
												<video>
													<format>
														<samplecharacteristics>
															<width>1920</width>
															<height>1080</height>
															<anamorphic>FALSE</anamorphic>
															<pixelaspectratio>Square</pixelaspectratio>
															<fielddominance>upper</fielddominance>
															<rate>
																<ntsc>FALSE</ntsc>
																<timebase>25</timebase>
															</rate>
															<colordepth>24</colordepth>
															<codec>
																<name>Apple XDCAM 422 1080i50 (50 Mb/s CBR)</name>
																<appspecificdata>
																	<appname>Final Cut Pro</appname>
																	<appmanufacturer>Apple Inc.</appmanufacturer>
																	<appversion>7.0</appversion>
																	<data>
																		<qtcodec>
																			<codecname>Apple XDCAM 422 1080i50 (50 Mb/s CBR)</codecname>
																			<codectypename>XDCAM 422 1080i50 (50 Mb/s CBR)</codectypename>
																			<codectypecode>xd5c</codectypecode>
																			<codecvendorcode>appl</codecvendorcode>
																			<spatialquality>1023</spatialquality>
																			<temporalquality>0</temporalquality>
																			<keyframerate>0</keyframerate>
																			<datarate>0</datarate>
																		</qtcodec>
																	</data>
																</appspecificdata>
															</codec>
														</samplecharacteristics>
														<appspecificdata>
															<appname>Final Cut Pro</appname>
															<appmanufacturer>Apple Inc.</appmanufacturer>
															<appversion>7.0</appversion>
															<data>
																<fcpimageprocessing>
																	<useyuv>TRUE</useyuv>
																	<usesuperwhite>FALSE</usesuperwhite>
																	<rendermode>YUV8BPP</rendermode>
																</fcpimageprocessing>
															</data>
														</appspecificdata>
													</format>
													<track>
														<clipitem id="Vignett test kvsR 00:00:41:11 11">
															<name>Vignett test kvsR 00:00:41:11</name>
															<duration>3000</duration>
															<rate>
																<ntsc>FALSE</ntsc>
																<timebase>25</timebase>
															</rate>
															<in>0</in>
															<out>3000</out>
															<start>0</start>
															<end>3000</end>
															<stillframeoffset>1199</stillframeoffset>
															<pixelaspectratio>Square</pixelaspectratio>
															<anamorphic>FALSE</anamorphic>
															<alphatype>none</alphatype>
															<alphareverse>FALSE</alphareverse>
															<syncoffset>0</syncoffset>
															<logginginfo>
																<description>msub200012-3011-k1d3-002</description>
																<scene/>
																<shottake/>
																<lognote/>
																<good>FALSE</good>
															</logginginfo>
															<labels>
																<label>Good Take</label>
																<label2/>
															</labels>
															<comments>
																<mastercomment1>RÃ…STOFF. BR_FINFREDAG_MSUA_OPRO</mastercomment1>
																<mastercomment2/>
																<mastercomment3/>
																<mastercomment4/>
																<clipcommenta/>
															</comments>
															<file id="msub200012-3011-k1d3-002 2"/>
															<sourcetrack>
																<mediatype>video</mediatype>
															</sourcetrack>
															<fielddominance>upper</fielddominance>
														</clipitem>
														<enabled>TRUE</enabled>
														<locked>FALSE</locked>
													</track>
													<track>
														<clipitem id="Vignett test kvsR 00:00:41:11 12">
															<name>Vignett test kvsR 00:00:41:11</name>
															<duration>3000</duration>
															<rate>
																<ntsc>FALSE</ntsc>
																<timebase>25</timebase>
															</rate>
															<in>0</in>
															<out>3000</out>
															<start>0</start>
															<end>3000</end>
															<stillframeoffset>1373</stillframeoffset>
															<pixelaspectratio>Square</pixelaspectratio>
															<enabled>TRUE</enabled>
															<anamorphic>FALSE</anamorphic>
															<alphatype>none</alphatype>
															<alphareverse>FALSE</alphareverse>
															<logginginfo>
																<description>msub200012-3011-k2d3-005</description>
																<scene/>
																<shottake/>
																<lognote/>
																<good>FALSE</good>
															</logginginfo>
															<labels>
																<label>Good Take</label>
																<label2/>
															</labels>
															<comments>
																<mastercomment1>RÃ…STOFF. BR_FINFREDAG_MSUA_OPRO</mastercomment1>
																<mastercomment2/>
																<mastercomment3/>
																<mastercomment4/>
																<clipcommenta/>
															</comments>
															<file id="msub200012-3011-k2d3-005 2"/>
															<sourcetrack>
																<mediatype>video</mediatype>
															</sourcetrack>
															<fielddominance>upper</fielddominance>
														</clipitem>
														<enabled>TRUE</enabled>
														<locked>FALSE</locked>
													</track>
												</video>
											</media>
										</sequence>
										<sourcetrack>
											<mediatype>video</mediatype>
										</sourcetrack>
										<ismasterclip>FALSE</ismasterclip>
									</clipitem>
									<enabled>TRUE</enabled>
									<locked>FALSE</locked>
								</track>
								<track>
									<clipitem id="Vignett test kvsR 00:00:41:14 5">
										<name>Vignett test kvsR 00:00:41:14</name>
										<duration>3000</duration>
										<rate>
											<ntsc>FALSE</ntsc>
											<timebase>25</timebase>
										</rate>
										<in>0</in>
										<out>3000</out>
										<start>0</start>
										<end>3000</end>
										<labels>
											<label>Best Take</label>
											<label2/>
										</labels>
										<sequence id="Vignett test kvsR 00:00:41:13 5">
											<name>Vignett test kvsR 00:00:41:13</name>
											<duration>3000</duration>
											<rate>
												<ntsc>FALSE</ntsc>
												<timebase>25</timebase>
											</rate>
											<in>0</in>
											<out>3000</out>
											<media>
												<video>
													<format>
														<samplecharacteristics>
															<width>1920</width>
															<height>1080</height>
															<anamorphic>FALSE</anamorphic>
															<pixelaspectratio>Square</pixelaspectratio>
															<fielddominance>upper</fielddominance>
															<rate>
																<ntsc>FALSE</ntsc>
																<timebase>25</timebase>
															</rate>
															<colordepth>24</colordepth>
															<codec>
																<name>Apple XDCAM 422 1080i50 (50 Mb/s CBR)</name>
																<appspecificdata>
																	<appname>Final Cut Pro</appname>
																	<appmanufacturer>Apple Inc.</appmanufacturer>
																	<appversion>7.0</appversion>
																	<data>
																		<qtcodec>
																			<codecname>Apple XDCAM 422 1080i50 (50 Mb/s CBR)</codecname>
																			<codectypename>XDCAM 422 1080i50 (50 Mb/s CBR)</codectypename>
																			<codectypecode>xd5c</codectypecode>
																			<codecvendorcode>appl</codecvendorcode>
																			<spatialquality>1023</spatialquality>
																			<temporalquality>0</temporalquality>
																			<keyframerate>0</keyframerate>
																			<datarate>0</datarate>
																		</qtcodec>
																	</data>
																</appspecificdata>
															</codec>
														</samplecharacteristics>
														<appspecificdata>
															<appname>Final Cut Pro</appname>
															<appmanufacturer>Apple Inc.</appmanufacturer>
															<appversion>7.0</appversion>
															<data>
																<fcpimageprocessing>
																	<useyuv>TRUE</useyuv>
																	<usesuperwhite>FALSE</usesuperwhite>
																	<rendermode>YUV8BPP</rendermode>
																</fcpimageprocessing>
															</data>
														</appspecificdata>
													</format>
													<track>
														<clipitem id="Vignett test kvsR 00:00:41:13 6">
															<name>Vignett test kvsR 00:00:41:13</name>
															<duration>3000</duration>
															<rate>
																<ntsc>FALSE</ntsc>
																<timebase>25</timebase>
															</rate>
															<in>0</in>
															<out>3000</out>
															<start>0</start>
															<end>3000</end>
															<stillframeoffset>1201</stillframeoffset>
															<pixelaspectratio>Square</pixelaspectratio>
															<anamorphic>FALSE</anamorphic>
															<alphatype>none</alphatype>
															<alphareverse>FALSE</alphareverse>
															<syncoffset>0</syncoffset>
															<logginginfo>
																<description>msub200012-3011-k1d3-002</description>
																<scene/>
																<shottake/>
																<lognote/>
																<good>FALSE</good>
															</logginginfo>
															<labels>
																<label>Good Take</label>
																<label2/>
															</labels>
															<comments>
																<mastercomment1>RÃ…STOFF. BR_FINFREDAG_MSUA_OPRO</mastercomment1>
																<mastercomment2/>
																<mastercomment3/>
																<mastercomment4/>
																<clipcommenta/>
															</comments>
															<file id="msub200012-3011-k1d3-002 2"/>
															<sourcetrack>
																<mediatype>video</mediatype>
															</sourcetrack>
															<fielddominance>upper</fielddominance>
														</clipitem>
														<enabled>TRUE</enabled>
														<locked>FALSE</locked>
													</track>
													<track>
														<clipitem id="Vignett test kvsR 00:00:41:13 7">
															<name>Vignett test kvsR 00:00:41:13</name>
															<duration>3000</duration>
															<rate>
																<ntsc>FALSE</ntsc>
																<timebase>25</timebase>
															</rate>
															<in>0</in>
															<out>3000</out>
															<start>0</start>
															<end>3000</end>
															<stillframeoffset>1375</stillframeoffset>
															<pixelaspectratio>Square</pixelaspectratio>
															<enabled>TRUE</enabled>
															<anamorphic>FALSE</anamorphic>
															<alphatype>none</alphatype>
															<alphareverse>FALSE</alphareverse>
															<logginginfo>
																<description>msub200012-3011-k2d3-005</description>
																<scene/>
																<shottake/>
																<lognote/>
																<good>FALSE</good>
															</logginginfo>
															<labels>
																<label>Good Take</label>
																<label2/>
															</labels>
															<comments>
																<mastercomment1>RÃ…STOFF. BR_FINFREDAG_MSUA_OPRO</mastercomment1>
																<mastercomment2/>
																<mastercomment3/>
																<mastercomment4/>
																<clipcommenta/>
															</comments>
															<file id="msub200012-3011-k2d3-005 2"/>
															<sourcetrack>
																<mediatype>video</mediatype>
															</sourcetrack>
															<fielddominance>upper</fielddominance>
														</clipitem>
														<enabled>TRUE</enabled>
														<locked>FALSE</locked>
													</track>
													<track>
														<clipitem id="Vignett test kvsR 00:00:41:13 8">
															<name>Vignett test kvsR 00:00:41:13</name>
															<duration>3000</duration>
															<rate>
																<ntsc>FALSE</ntsc>
																<timebase>25</timebase>
															</rate>
															<in>0</in>
															<out>3000</out>
															<start>0</start>
															<end>3000</end>
															<labels>
																<label>Best Take</label>
																<label2/>
															</labels>
															<sequence id="Vignett test kvsR 00:00:41:11 13">
																<name>Vignett test kvsR 00:00:41:11</name>
																<duration>3000</duration>
																<rate>
																	<ntsc>FALSE</ntsc>
																	<timebase>25</timebase>
																</rate>
																<in>0</in>
																<out>3000</out>
																<media>
																	<video>
																		<format>
																			<samplecharacteristics>
																				<width>1920</width>
																				<height>1080</height>
																				<anamorphic>FALSE</anamorphic>
																				<pixelaspectratio>Square</pixelaspectratio>
																				<fielddominance>upper</fielddominance>
																				<rate>
																					<ntsc>FALSE</ntsc>
																					<timebase>25</timebase>
																				</rate>
																				<colordepth>24</colordepth>
																				<codec>
																					<name>Apple XDCAM 422 1080i50 (50 Mb/s CBR)</name>
																					<appspecificdata>
																						<appname>Final Cut Pro</appname>
																						<appmanufacturer>Apple Inc.</appmanufacturer>
																						<appversion>7.0</appversion>
																						<data>
																							<qtcodec>
																								<codecname>Apple XDCAM 422 1080i50 (50 Mb/s CBR)</codecname>
																								<codectypename>XDCAM 422 1080i50 (50 Mb/s CBR)</codectypename>
																								<codectypecode>xd5c</codectypecode>
																								<codecvendorcode>appl</codecvendorcode>
																								<spatialquality>1023</spatialquality>
																								<temporalquality>0</temporalquality>
																								<keyframerate>0</keyframerate>
																								<datarate>0</datarate>
																							</qtcodec>
																						</data>
																					</appspecificdata>
																				</codec>
																			</samplecharacteristics>
																			<appspecificdata>
																				<appname>Final Cut Pro</appname>
																				<appmanufacturer>Apple Inc.</appmanufacturer>
																				<appversion>7.0</appversion>
																				<data>
																					<fcpimageprocessing>
																						<useyuv>TRUE</useyuv>
																						<usesuperwhite>FALSE</usesuperwhite>
																						<rendermode>YUV8BPP</rendermode>
																					</fcpimageprocessing>
																				</data>
																			</appspecificdata>
																		</format>
																		<track>
																			<clipitem id="Vignett test kvsR 00:00:41:11 14">
																				<name>Vignett test kvsR 00:00:41:11</name>
																				<duration>3000</duration>
																				<rate>
																					<ntsc>FALSE</ntsc>
																					<timebase>25</timebase>
																				</rate>
																				<in>0</in>
																				<out>3000</out>
																				<start>0</start>
																				<end>3000</end>
																				<stillframeoffset>1199</stillframeoffset>
																				<pixelaspectratio>Square</pixelaspectratio>
																				<anamorphic>FALSE</anamorphic>
																				<alphatype>none</alphatype>
																				<alphareverse>FALSE</alphareverse>
																				<syncoffset>0</syncoffset>
																				<logginginfo>
																					<description>msub200012-3011-k1d3-002</description>
																					<scene/>
																					<shottake/>
																					<lognote/>
																					<good>FALSE</good>
																				</logginginfo>
																				<labels>
																					<label>Good Take</label>
																					<label2/>
																				</labels>
																				<comments>
																					<mastercomment1>RÃ…STOFF. BR_FINFREDAG_MSUA_OPRO</mastercomment1>
																					<mastercomment2/>
																					<mastercomment3/>
																					<mastercomment4/>
																					<clipcommenta/>
																				</comments>
																				<file id="msub200012-3011-k1d3-002 2"/>
																				<sourcetrack>
																					<mediatype>video</mediatype>
																				</sourcetrack>
																				<fielddominance>upper</fielddominance>
																			</clipitem>
																			<enabled>TRUE</enabled>
																			<locked>FALSE</locked>
																		</track>
																		<track>
																			<clipitem id="Vignett test kvsR 00:00:41:11 15">
																				<name>Vignett test kvsR 00:00:41:11</name>
																				<duration>3000</duration>
																				<rate>
																					<ntsc>FALSE</ntsc>
																					<timebase>25</timebase>
																				</rate>
																				<in>0</in>
																				<out>3000</out>
																				<start>0</start>
																				<end>3000</end>
																				<stillframeoffset>1373</stillframeoffset>
																				<pixelaspectratio>Square</pixelaspectratio>
																				<enabled>TRUE</enabled>
																				<anamorphic>FALSE</anamorphic>
																				<alphatype>none</alphatype>
																				<alphareverse>FALSE</alphareverse>
																				<logginginfo>
																					<description>msub200012-3011-k2d3-005</description>
																					<scene/>
																					<shottake/>
																					<lognote/>
																					<good>FALSE</good>
																				</logginginfo>
																				<labels>
																					<label>Good Take</label>
																					<label2/>
																				</labels>
																				<comments>
																					<mastercomment1>RÃ…STOFF. BR_FINFREDAG_MSUA_OPRO</mastercomment1>
																					<mastercomment2/>
																					<mastercomment3/>
																					<mastercomment4/>
																					<clipcommenta/>
																				</comments>
																				<file id="msub200012-3011-k2d3-005 2"/>
																				<sourcetrack>
																					<mediatype>video</mediatype>
																				</sourcetrack>
																				<fielddominance>upper</fielddominance>
																			</clipitem>
																			<enabled>TRUE</enabled>
																			<locked>FALSE</locked>
																		</track>
																	</video>
																</media>
															</sequence>
															<sourcetrack>
																<mediatype>video</mediatype>
															</sourcetrack>
															<ismasterclip>FALSE</ismasterclip>
														</clipitem>
														<enabled>TRUE</enabled>
														<locked>FALSE</locked>
													</track>
												</video>
											</media>
										</sequence>
										<sourcetrack>
											<mediatype>video</mediatype>
										</sourcetrack>
										<ismasterclip>FALSE</ismasterclip>
									</clipitem>
									<enabled>TRUE</enabled>
									<locked>FALSE</locked>
								</track>
							</video>
						</media>
					</sequence>
					<sourcetrack>
						<mediatype>video</mediatype>
					</sourcetrack>
					<ismasterclip>FALSE</ismasterclip>
				</clipitem>
				<clipitem id="VS.png">
					<name>VS.png</name>
					<duration>3026</duration>
					<rate>
						<ntsc>FALSE</ntsc>
						<timebase>25</timebase>
					</rate>
					<in>1500</in>
					<out>1619</out>
					<start>34495</start>
					<end>34614</end>
					<pixelaspectratio>Square</pixelaspectratio>
					<stillframe>TRUE</stillframe>
					<enabled>TRUE</enabled>
					<anamorphic>FALSE</anamorphic>
					<alphatype>straight</alphatype>
					<masterclipid>VS.png1</masterclipid>
					<logginginfo>
						<scene/>
						<shottake/>
						<lognote/>
						<good>FALSE</good>
					</logginginfo>
					<labels>
						<label2/>
					</labels>
					<comments>
						<mastercomment1/>
						<mastercomment2/>
						<mastercomment3/>
						<mastercomment4/>
					</comments>
					<file id="VS">
						<name>VS.png</name>
						<pathurl>file://localhost/SuperSAN1/Prosjekter/MSUB20000012%20FIN%20FREDAG/test%20av%20Kristine%20og%20r%C3%B8kla/VS.png</pathurl>
						<rate>
							<timebase>25</timebase>
						</rate>
						<duration>2</duration>
						<width>2478</width>
						<height>393</height>
						<media>
							<video>
								<duration>2</duration>
								<stillframe>TRUE</stillframe>
								<samplecharacteristics>
									<width>2478</width>
									<height>393</height>
								</samplecharacteristics>
							</video>
						</media>
					</file>
					<filter>
						<effect>
							<name>Basic Motion</name>
							<effectid>basic</effectid>
							<effectcategory>motion</effectcategory>
							<effecttype>motion</effecttype>
							<mediatype>video</mediatype>
							<parameter>
								<parameterid>scale</parameterid>
								<name>Scale</name>
								<valuemin>0</valuemin>
								<valuemax>1000</valuemax>
								<keyframe>
									<when>1537</when>
									<value>87</value>
								</keyframe>
								<keyframe>
									<when>1543</when>
									<value>74</value>
								</keyframe>
								<interpolation>
									<name>FCPCurve</name>
								</interpolation>
								<value>74</value>
							</parameter>
							<parameter>
								<parameterid>center</parameterid>
								<name>Center</name>
								<keyframe>
									<when>1537</when>
									<value>
										<horiz>0.0319343</horiz>
										<vert>0.189655</vert>
									</value>
								</keyframe>
								<keyframe>
									<when>1543</when>
									<value>
										<horiz>-0.0985401</horiz>
										<vert>0.138728</vert>
									</value>
								</keyframe>
								<interpolation>
									<name>FCPCurve</name>
								</interpolation>
							</parameter>
							<parameter>
								<parameterid>rotation</parameterid>
								<name>Rotation</name>
								<valuemin>-8640</valuemin>
								<valuemax>8640</valuemax>
								<value>4</value>
							</parameter>
							<parameter>
								<parameterid>centerOffset</parameterid>
								<name>Anchor Point</name>
								<value>
									<horiz>0</horiz>
									<vert>0</vert>
								</value>
							</parameter>
						</effect>
					</filter>
					<filter>
						<enabled>FALSE</enabled>
						<effect>
							<name>Drop Shadow</name>
							<effectid>dropshadow</effectid>
							<effectcategory>motion</effectcategory>
							<effecttype>motion</effecttype>
							<mediatype>video</mediatype>
							<parameter>
								<parameterid>offset</parameterid>
								<name>offset</name>
								<valuemin>-100</valuemin>
								<valuemax>100</valuemax>
								<value>2</value>
							</parameter>
							<parameter>
								<parameterid>angle</parameterid>
								<name>angle</name>
								<valuemin>-720</valuemin>
								<valuemax>720</valuemax>
								<value>135</value>
							</parameter>
							<parameter>
								<parameterid>color</parameterid>
								<name>color</name>
								<value>
									<alpha>0</alpha>
									<red>0</red>
									<green>0</green>
									<blue>0</blue>
								</value>
							</parameter>
							<parameter>
								<parameterid>softness</parameterid>
								<name>softness</name>
								<valuemin>0</valuemin>
								<valuemax>100</valuemax>
								<value>10</value>
							</parameter>
							<parameter>
								<parameterid>opacity</parameterid>
								<name>opacity</name>
								<valuemin>0</valuemin>
								<valuemax>100</valuemax>
								<value>50</value>
							</parameter>
						</effect>
					</filter>
					<filter>
						<enabled>FALSE</enabled>
						<effect>
							<name>Motion Blur</name>
							<effectid>motionblur</effectid>
							<effectcategory>motion</effectcategory>
							<effecttype>motion</effecttype>
							<mediatype>video</mediatype>
							<parameter>
								<parameterid>duration</parameterid>
								<name>% Blur</name>
								<valuemin>0</valuemin>
								<valuemax>1000</valuemax>
								<value>500</value>
							</parameter>
							<parameter>
								<parameterid>samples</parameterid>
								<name>Samples</name>
								<valuemin>1</valuemin>
								<valuemax>16</valuemax>
								<value>4</value>
							</parameter>
						</effect>
					</filter>
					<filter>
						<effect>
							<name>Crop</name>
							<effectid>crop</effectid>
							<effectcategory>motion</effectcategory>
							<effecttype>motion</effecttype>
							<mediatype>video</mediatype>
							<parameter>
								<parameterid>left</parameterid>
								<name>left</name>
								<valuemin>0</valuemin>
								<valuemax>100</valuemax>
								<value>0</value>
							</parameter>
							<parameter>
								<parameterid>right</parameterid>
								<name>right</name>
								<valuemin>0</valuemin>
								<valuemax>100</valuemax>
								<value>0</value>
							</parameter>
							<parameter>
								<parameterid>top</parameterid>
								<name>top</name>
								<valuemin>0</valuemin>
								<valuemax>100</valuemax>
								<value>0</value>
							</parameter>
							<parameter>
								<parameterid>bottom</parameterid>
								<name>bottom</name>
								<valuemin>0</valuemin>
								<valuemax>100</valuemax>
								<value>0</value>
							</parameter>
							<parameter>
								<parameterid>edgefeather</parameterid>
								<name>edgefeather</name>
								<valuemin>0</valuemin>
								<valuemax>100</valuemax>
								<value>0</value>
							</parameter>
						</effect>
					</filter>
					<filter>
						<effect>
							<name>Distort</name>
							<effectid>deformation</effectid>
							<effectcategory>motion</effectcategory>
							<effecttype>motion</effecttype>
							<mediatype>video</mediatype>
							<parameter>
								<parameterid>ulcorner</parameterid>
								<name>Upper Left</name>
								<value>
									<horiz>-0.5</horiz>
									<vert>-0.5</vert>
								</value>
							</parameter>
							<parameter>
								<parameterid>urcorner</parameterid>
								<name>Upper Right</name>
								<value>
									<horiz>0.5</horiz>
									<vert>-0.5</vert>
								</value>
							</parameter>
							<parameter>
								<parameterid>lrcorner</parameterid>
								<name>Lower Right</name>
								<value>
									<horiz>0.5</horiz>
									<vert>0.5</vert>
								</value>
							</parameter>
							<parameter>
								<parameterid>llcorner</parameterid>
								<name>Lower Left</name>
								<value>
									<horiz>-0.5</horiz>
									<vert>0.5</vert>
								</value>
							</parameter>
							<parameter>
								<parameterid>aspect</parameterid>
								<name>Aspect</name>
								<valuemin>-10000</valuemin>
								<valuemax>10000</valuemax>
								<value>0</value>
							</parameter>
						</effect>
					</filter>
					<filter>
						<effect>
							<name>Opacity</name>
							<effectid>opacity</effectid>
							<effectcategory>motion</effectcategory>
							<effecttype>motion</effecttype>
							<mediatype>video</mediatype>
							<parameter>
								<parameterid>opacity</parameterid>
								<name>opacity</name>
								<valuemin>0</valuemin>
								<valuemax>100</valuemax>
								<value>100</value>
							</parameter>
						</effect>
					</filter>
					<sourcetrack>
						<mediatype>video</mediatype>
					</sourcetrack>
					<fielddominance>none</fielddominance>
				</clipitem>
				<enabled>TRUE</enabled>
				<locked>FALSE</locked>
			</track>
			<track>
				<clipitem id="mot.png">
					<name>mot.png</name>
					<duration>3026</duration>
					<rate>
						<ntsc>FALSE</ntsc>
						<timebase>25</timebase>
					</rate>
					<in>1588</in>
					<out>1597</out>
					<start>31783</start>
					<end>31792</end>
					<pixelaspectratio>Square</pixelaspectratio>
					<stillframe>TRUE</stillframe>
					<anamorphic>FALSE</anamorphic>
					<alphatype>straight</alphatype>
					<masterclipid>mot.png1</masterclipid>
					<syncoffset>0</syncoffset>
					<logginginfo>
						<scene/>
						<shottake/>
						<lognote/>
						<good>FALSE</good>
					</logginginfo>
					<labels>
						<label2/>
					</labels>
					<comments>
						<mastercomment1/>
						<mastercomment2/>
						<mastercomment3/>
						<mastercomment4/>
					</comments>
					<file id="mot">
						<name>mot.png</name>
						<pathurl>file://localhost/SuperSAN1/Prosjekter/MSUB20000012%20FIN%20FREDAG/FCP-PROSJEKTER,%20sesong%202/program%202%20Terje%20/Kristine%20mot%20r%C3%B8kla%20-%20sporsem/01MASTER-KvsR-2013/Faste_Elementer/mot.png</pathurl>
						<rate>
							<timebase>25</timebase>
						</rate>
						<duration>2</duration>
						<width>2478</width>
						<height>393</height>
						<media>
							<video>
								<duration>2</duration>
								<stillframe>TRUE</stillframe>
								<samplecharacteristics>
									<width>2478</width>
									<height>393</height>
								</samplecharacteristics>
							</video>
						</media>
					</file>
					<filter>
						<effect>
							<name>Basic Motion</name>
							<effectid>basic</effectid>
							<effectcategory>motion</effectcategory>
							<effecttype>motion</effecttype>
							<mediatype>video</mediatype>
							<parameter>
								<parameterid>scale</parameterid>
								<name>Scale</name>
								<valuemin>0</valuemin>
								<valuemax>1000</valuemax>
								<value>77.4818</value>
							</parameter>
							<parameter>
								<parameterid>rotation</parameterid>
								<name>Rotation</name>
								<valuemin>-8640</valuemin>
								<valuemax>8640</valuemax>
								<value>0</value>
							</parameter>
							<parameter>
								<parameterid>center</parameterid>
								<name>Center</name>
								<value>
									<horiz>0.0403551</horiz>
									<vert>0</vert>
								</value>
							</parameter>
							<parameter>
								<parameterid>centerOffset</parameterid>
								<name>Anchor Point</name>
								<value>
									<horiz>0</horiz>
									<vert>0</vert>
								</value>
							</parameter>
						</effect>
					</filter>
					<sourcetrack>
						<mediatype>video</mediatype>
					</sourcetrack>
					<fielddominance>none</fielddominance>
				</clipitem>
				<clipitem id="mot.png2">
					<name>mot.png</name>
					<duration>3026</duration>
					<rate>
						<ntsc>FALSE</ntsc>
						<timebase>25</timebase>
					</rate>
					<in>1590</in>
					<out>1595</out>
					<start>31798</start>
					<end>31803</end>
					<pixelaspectratio>Square</pixelaspectratio>
					<stillframe>TRUE</stillframe>
					<anamorphic>FALSE</anamorphic>
					<alphatype>straight</alphatype>
					<masterclipid>mot.png1</masterclipid>
					<syncoffset>0</syncoffset>
					<logginginfo>
						<scene/>
						<shottake/>
						<lognote/>
						<good>FALSE</good>
					</logginginfo>
					<labels>
						<label2/>
					</labels>
					<comments>
						<mastercomment1/>
						<mastercomment2/>
						<mastercomment3/>
						<mastercomment4/>
					</comments>
					<file id="mot"/>
					<filter>
						<effect>
							<name>Basic Motion</name>
							<effectid>basic</effectid>
							<effectcategory>motion</effectcategory>
							<effecttype>motion</effecttype>
							<mediatype>video</mediatype>
							<parameter>
								<parameterid>scale</parameterid>
								<name>Scale</name>
								<valuemin>0</valuemin>
								<valuemax>1000</valuemax>
								<value>77.4818</value>
							</parameter>
							<parameter>
								<parameterid>rotation</parameterid>
								<name>Rotation</name>
								<valuemin>-8640</valuemin>
								<valuemax>8640</valuemax>
								<value>0</value>
							</parameter>
							<parameter>
								<parameterid>center</parameterid>
								<name>Center</name>
								<value>
									<horiz>0.0403551</horiz>
									<vert>0</vert>
								</value>
							</parameter>
							<parameter>
								<parameterid>centerOffset</parameterid>
								<name>Anchor Point</name>
								<value>
									<horiz>0</horiz>
									<vert>0</vert>
								</value>
							</parameter>
						</effect>
					</filter>
					<sourcetrack>
						<mediatype>video</mediatype>
					</sourcetrack>
					<fielddominance>none</fielddominance>
				</clipitem>
				<clipitem id="mot.png3">
					<name>mot.png</name>
					<duration>3026</duration>
					<rate>
						<ntsc>FALSE</ntsc>
						<timebase>25</timebase>
					</rate>
					<in>1590</in>
					<out>1600</out>
					<start>31819</start>
					<end>31829</end>
					<pixelaspectratio>Square</pixelaspectratio>
					<stillframe>TRUE</stillframe>
					<anamorphic>FALSE</anamorphic>
					<alphatype>straight</alphatype>
					<masterclipid>mot.png1</masterclipid>
					<syncoffset>0</syncoffset>
					<logginginfo>
						<scene/>
						<shottake/>
						<lognote/>
						<good>FALSE</good>
					</logginginfo>
					<labels>
						<label2/>
					</labels>
					<comments>
						<mastercomment1/>
						<mastercomment2/>
						<mastercomment3/>
						<mastercomment4/>
					</comments>
					<file id="mot"/>
					<filter>
						<effect>
							<name>Basic Motion</name>
							<effectid>basic</effectid>
							<effectcategory>motion</effectcategory>
							<effecttype>motion</effecttype>
							<mediatype>video</mediatype>
							<parameter>
								<parameterid>scale</parameterid>
								<name>Scale</name>
								<valuemin>0</valuemin>
								<valuemax>1000</valuemax>
								<value>77.4818</value>
							</parameter>
							<parameter>
								<parameterid>rotation</parameterid>
								<name>Rotation</name>
								<valuemin>-8640</valuemin>
								<valuemax>8640</valuemax>
								<value>0</value>
							</parameter>
							<parameter>
								<parameterid>center</parameterid>
								<name>Center</name>
								<value>
									<horiz>0.0403551</horiz>
									<vert>0</vert>
								</value>
							</parameter>
							<parameter>
								<parameterid>centerOffset</parameterid>
								<name>Anchor Point</name>
								<value>
									<horiz>0</horiz>
									<vert>0</vert>
								</value>
							</parameter>
						</effect>
					</filter>
					<sourcetrack>
						<mediatype>video</mediatype>
					</sourcetrack>
					<fielddominance>none</fielddominance>
				</clipitem>
				<clipitem id="mot.png4">
					<name>mot.png</name>
					<duration>3026</duration>
					<rate>
						<ntsc>FALSE</ntsc>
						<timebase>25</timebase>
					</rate>
					<in>1592</in>
					<out>1619</out>
					<start>31829</start>
					<end>31856</end>
					<pixelaspectratio>Square</pixelaspectratio>
					<stillframe>TRUE</stillframe>
					<anamorphic>FALSE</anamorphic>
					<alphatype>straight</alphatype>
					<masterclipid>mot.png1</masterclipid>
					<syncoffset>0</syncoffset>
					<logginginfo>
						<scene/>
						<shottake/>
						<lognote/>
						<good>FALSE</good>
					</logginginfo>
					<labels>
						<label2/>
					</labels>
					<comments>
						<mastercomment1/>
						<mastercomment2/>
						<mastercomment3/>
						<mastercomment4/>
					</comments>
					<file id="mot"/>
					<filter>
						<effect>
							<name>Basic Motion</name>
							<effectid>basic</effectid>
							<effectcategory>motion</effectcategory>
							<effecttype>motion</effecttype>
							<mediatype>video</mediatype>
							<parameter>
								<parameterid>scale</parameterid>
								<name>Scale</name>
								<valuemin>0</valuemin>
								<valuemax>1000</valuemax>
								<value>83</value>
							</parameter>
							<parameter>
								<parameterid>rotation</parameterid>
								<name>Rotation</name>
								<valuemin>-8640</valuemin>
								<valuemax>8640</valuemax>
								<value>0</value>
							</parameter>
							<parameter>
								<parameterid>center</parameterid>
								<name>Center</name>
								<value>
									<horiz>0.0403551</horiz>
									<vert>0</vert>
								</value>
							</parameter>
							<parameter>
								<parameterid>centerOffset</parameterid>
								<name>Anchor Point</name>
								<value>
									<horiz>0</horiz>
									<vert>0</vert>
								</value>
							</parameter>
						</effect>
					</filter>
					<sourcetrack>
						<mediatype>video</mediatype>
					</sourcetrack>
					<fielddominance>none</fielddominance>
				</clipitem>
				<clipitem id="Kristine2.png2">
					<name>Kristine2.png</name>
					<duration>3026</duration>
					<rate>
						<ntsc>FALSE</ntsc>
						<timebase>25</timebase>
					</rate>
					<in>1500</in>
					<out>1574</out>
					<start>32017</start>
					<end>-1</end>
					<pixelaspectratio>Square</pixelaspectratio>
					<stillframe>TRUE</stillframe>
					<enabled>TRUE</enabled>
					<anamorphic>FALSE</anamorphic>
					<alphatype>straight</alphatype>
					<masterclipid>Kristine2.png1</masterclipid>
					<logginginfo>
						<scene/>
						<shottake/>
						<lognote/>
						<good>FALSE</good>
					</logginginfo>
					<labels>
						<label2/>
					</labels>
					<comments>
						<mastercomment1/>
						<mastercomment2/>
						<mastercomment3/>
						<mastercomment4/>
					</comments>
					<file id="Kristine2 "/>
					<filter>
						<effect>
							<name>Basic Motion</name>
							<effectid>basic</effectid>
							<effectcategory>motion</effectcategory>
							<effecttype>motion</effecttype>
							<mediatype>video</mediatype>
							<parameter>
								<parameterid>scale</parameterid>
								<name>Scale</name>
								<valuemin>0</valuemin>
								<valuemax>1000</valuemax>
								<value>100</value>
							</parameter>
							<parameter>
								<parameterid>center</parameterid>
								<name>Center</name>
								<value>
									<horiz>0.289234</horiz>
									<vert>-0.844828</vert>
								</value>
							</parameter>
							<parameter>
								<parameterid>rotation</parameterid>
								<name>Rotation</name>
								<valuemin>-8640</valuemin>
								<valuemax>8640</valuemax>
								<value>-4</value>
							</parameter>
							<parameter>
								<parameterid>centerOffset</parameterid>
								<name>Anchor Point</name>
								<value>
									<horiz>0</horiz>
									<vert>0</vert>
								</value>
							</parameter>
						</effect>
					</filter>
					<filter>
						<enabled>FALSE</enabled>
						<effect>
							<name>Drop Shadow</name>
							<effectid>dropshadow</effectid>
							<effectcategory>motion</effectcategory>
							<effecttype>motion</effecttype>
							<mediatype>video</mediatype>
							<parameter>
								<parameterid>offset</parameterid>
								<name>offset</name>
								<valuemin>-100</valuemin>
								<valuemax>100</valuemax>
								<value>2</value>
							</parameter>
							<parameter>
								<parameterid>angle</parameterid>
								<name>angle</name>
								<valuemin>-720</valuemin>
								<valuemax>720</valuemax>
								<value>135</value>
							</parameter>
							<parameter>
								<parameterid>color</parameterid>
								<name>color</name>
								<value>
									<alpha>0</alpha>
									<red>0</red>
									<green>0</green>
									<blue>0</blue>
								</value>
							</parameter>
							<parameter>
								<parameterid>softness</parameterid>
								<name>softness</name>
								<valuemin>0</valuemin>
								<valuemax>100</valuemax>
								<value>10</value>
							</parameter>
							<parameter>
								<parameterid>opacity</parameterid>
								<name>opacity</name>
								<valuemin>0</valuemin>
								<valuemax>100</valuemax>
								<value>50</value>
							</parameter>
						</effect>
					</filter>
					<filter>
						<enabled>FALSE</enabled>
						<effect>
							<name>Motion Blur</name>
							<effectid>motionblur</effectid>
							<effectcategory>motion</effectcategory>
							<effecttype>motion</effecttype>
							<mediatype>video</mediatype>
							<parameter>
								<parameterid>duration</parameterid>
								<name>% Blur</name>
								<valuemin>0</valuemin>
								<valuemax>1000</valuemax>
								<value>500</value>
							</parameter>
							<parameter>
								<parameterid>samples</parameterid>
								<name>Samples</name>
								<valuemin>1</valuemin>
								<valuemax>16</valuemax>
								<value>4</value>
							</parameter>
						</effect>
					</filter>
					<filter>
						<effect>
							<name>Crop</name>
							<effectid>crop</effectid>
							<effectcategory>motion</effectcategory>
							<effecttype>motion</effecttype>
							<mediatype>video</mediatype>
							<parameter>
								<parameterid>left</parameterid>
								<name>left</name>
								<valuemin>0</valuemin>
								<valuemax>100</valuemax>
								<value>0</value>
							</parameter>
							<parameter>
								<parameterid>right</parameterid>
								<name>right</name>
								<valuemin>0</valuemin>
								<valuemax>100</valuemax>
								<value>0</value>
							</parameter>
							<parameter>
								<parameterid>top</parameterid>
								<name>top</name>
								<valuemin>0</valuemin>
								<valuemax>100</valuemax>
								<value>0</value>
							</parameter>
							<parameter>
								<parameterid>bottom</parameterid>
								<name>bottom</name>
								<valuemin>0</valuemin>
								<valuemax>100</valuemax>
								<value>0</value>
							</parameter>
							<parameter>
								<parameterid>edgefeather</parameterid>
								<name>edgefeather</name>
								<valuemin>0</valuemin>
								<valuemax>100</valuemax>
								<value>0</value>
							</parameter>
						</effect>
					</filter>
					<filter>
						<effect>
							<name>Distort</name>
							<effectid>deformation</effectid>
							<effectcategory>motion</effectcategory>
							<effecttype>motion</effecttype>
							<mediatype>video</mediatype>
							<parameter>
								<parameterid>ulcorner</parameterid>
								<name>Upper Left</name>
								<value>
									<horiz>-0.5</horiz>
									<vert>-0.5</vert>
								</value>
							</parameter>
							<parameter>
								<parameterid>urcorner</parameterid>
								<name>Upper Right</name>
								<value>
									<horiz>0.5</horiz>
									<vert>-0.5</vert>
								</value>
							</parameter>
							<parameter>
								<parameterid>lrcorner</parameterid>
								<name>Lower Right</name>
								<value>
									<horiz>0.5</horiz>
									<vert>0.5</vert>
								</value>
							</parameter>
							<parameter>
								<parameterid>llcorner</parameterid>
								<name>Lower Left</name>
								<value>
									<horiz>-0.5</horiz>
									<vert>0.5</vert>
								</value>
							</parameter>
							<parameter>
								<parameterid>aspect</parameterid>
								<name>Aspect</name>
								<valuemin>-10000</valuemin>
								<valuemax>10000</valuemax>
								<value>0</value>
							</parameter>
						</effect>
					</filter>
					<filter>
						<effect>
							<name>Opacity</name>
							<effectid>opacity</effectid>
							<effectcategory>motion</effectcategory>
							<effecttype>motion</effecttype>
							<mediatype>video</mediatype>
							<parameter>
								<parameterid>opacity</parameterid>
								<name>opacity</name>
								<valuemin>0</valuemin>
								<valuemax>100</valuemax>
								<value>100</value>
							</parameter>
						</effect>
					</filter>
					<sourcetrack>
						<mediatype>video</mediatype>
					</sourcetrack>
					<fielddominance>none</fielddominance>
				</clipitem>
				<transitionitem id="38361732 ">
					<rate>
						<ntsc>FALSE</ntsc>
						<timebase>25</timebase>
					</rate>
					<start>32085</start>
					<end>32091</end>
					<alignment>end-black</alignment>
					<effect>
						<name>Push Slide</name>
						<effectid>Push Slide</effectid>
						<effectcategory>Slide</effectcategory>
						<effecttype>transition</effecttype>
						<mediatype>video</mediatype>
						<wipecode>1</wipecode>
						<wipeaccuracy>100</wipeaccuracy>
						<startratio>0</startratio>
						<endratio>1</endratio>
						<reverse>FALSE</reverse>
						<parameter>
							<parameterid>angleofpush</parameterid>
							<name>Angle</name>
							<valuemin>-360</valuemin>
							<valuemax>360</valuemax>
							<value>270</value>
						</parameter>
						<parameter>
							<parameterid>borderwidth</parameterid>
							<name>Border</name>
							<valuemin>0</valuemin>
							<valuemax>10</valuemax>
							<value>0</value>
						</parameter>
						<parameter>
							<parameterid>bordercolor</parameterid>
							<name>Color</name>
							<value>
								<alpha>255</alpha>
								<red>0</red>
								<green>0</green>
								<blue>0</blue>
							</value>
						</parameter>
					</effect>
				</transitionitem>
				<transitionitem id="38362548 ">
					<rate>
						<ntsc>FALSE</ntsc>
						<timebase>25</timebase>
					</rate>
					<start>32530</start>
					<end>32538</end>
					<alignment>center</alignment>
					<effect>
						<name>Push Slide</name>
						<effectid>Push Slide</effectid>
						<effectcategory>Slide</effectcategory>
						<effecttype>transition</effecttype>
						<mediatype>video</mediatype>
						<wipecode>1</wipecode>
						<wipeaccuracy>100</wipeaccuracy>
						<startratio>0</startratio>
						<endratio>1</endratio>
						<reverse>FALSE</reverse>
						<parameter>
							<parameterid>angleofpush</parameterid>
							<name>Angle</name>
							<valuemin>-360</valuemin>
							<valuemax>360</valuemax>
							<value>270</value>
						</parameter>
						<parameter>
							<parameterid>borderwidth</parameterid>
							<name>Border</name>
							<valuemin>0</valuemin>
							<valuemax>10</valuemax>
							<value>0</value>
						</parameter>
						<parameter>
							<parameterid>bordercolor</parameterid>
							<name>Color</name>
							<value>
								<alpha>255</alpha>
								<red>0</red>
								<green>0</green>
								<blue>0</blue>
							</value>
						</parameter>
					</effect>
				</transitionitem>
				<clipitem id="Jenny.png5">
					<name>Jenny.png</name>
					<duration>4500</duration>
					<rate>
						<ntsc>FALSE</ntsc>
						<timebase>25</timebase>
					</rate>
					<in>1496</in>
					<out>2397</out>
					<start>-1</start>
					<end>-1</end>
					<pixelaspectratio>Square</pixelaspectratio>
					<stillframe>TRUE</stillframe>
					<enabled>TRUE</enabled>
					<anamorphic>FALSE</anamorphic>
					<alphatype>straight</alphatype>
					<masterclipid>Jenny.png1</masterclipid>
					<logginginfo>
						<scene/>
						<shottake/>
						<lognote/>
						<good>FALSE</good>
					</logginginfo>
					<labels>
						<label2/>
					</labels>
					<comments>
						<mastercomment1/>
						<mastercomment2/>
						<mastercomment3/>
						<mastercomment4/>
					</comments>
					<file id="Jenny"/>
					<filter>
						<effect>
							<name>Basic Motion</name>
							<effectid>basic</effectid>
							<effectcategory>motion</effectcategory>
							<effecttype>motion</effecttype>
							<mediatype>video</mediatype>
							<parameter>
								<parameterid>scale</parameterid>
								<name>Scale</name>
								<valuemin>0</valuemin>
								<valuemax>1000</valuemax>
								<value>50</value>
							</parameter>
							<parameter>
								<parameterid>center</parameterid>
								<name>Center</name>
								<value>
									<horiz>0.139599</horiz>
									<vert>0.902299</vert>
								</value>
							</parameter>
							<parameter>
								<parameterid>rotation</parameterid>
								<name>Rotation</name>
								<valuemin>-8640</valuemin>
								<valuemax>8640</valuemax>
								<value>0</value>
							</parameter>
							<parameter>
								<parameterid>centerOffset</parameterid>
								<name>Anchor Point</name>
								<value>
									<horiz>0</horiz>
									<vert>0</vert>
								</value>
							</parameter>
						</effect>
					</filter>
					<filter>
						<enabled>FALSE</enabled>
						<effect>
							<name>Drop Shadow</name>
							<effectid>dropshadow</effectid>
							<effectcategory>motion</effectcategory>
							<effecttype>motion</effecttype>
							<mediatype>video</mediatype>
							<parameter>
								<parameterid>offset</parameterid>
								<name>offset</name>
								<valuemin>-100</valuemin>
								<valuemax>100</valuemax>
								<value>2</value>
							</parameter>
							<parameter>
								<parameterid>angle</parameterid>
								<name>angle</name>
								<valuemin>-720</valuemin>
								<valuemax>720</valuemax>
								<value>135</value>
							</parameter>
							<parameter>
								<parameterid>color</parameterid>
								<name>color</name>
								<value>
									<alpha>0</alpha>
									<red>0</red>
									<green>0</green>
									<blue>0</blue>
								</value>
							</parameter>
							<parameter>
								<parameterid>softness</parameterid>
								<name>softness</name>
								<valuemin>0</valuemin>
								<valuemax>100</valuemax>
								<value>10</value>
							</parameter>
							<parameter>
								<parameterid>opacity</parameterid>
								<name>opacity</name>
								<valuemin>0</valuemin>
								<valuemax>100</valuemax>
								<value>50</value>
							</parameter>
						</effect>
					</filter>
					<filter>
						<enabled>FALSE</enabled>
						<effect>
							<name>Motion Blur</name>
							<effectid>motionblur</effectid>
							<effectcategory>motion</effectcategory>
							<effecttype>motion</effecttype>
							<mediatype>video</mediatype>
							<parameter>
								<parameterid>duration</parameterid>
								<name>% Blur</name>
								<valuemin>0</valuemin>
								<valuemax>1000</valuemax>
								<value>500</value>
							</parameter>
							<parameter>
								<parameterid>samples</parameterid>
								<name>Samples</name>
								<valuemin>1</valuemin>
								<valuemax>16</valuemax>
								<value>4</value>
							</parameter>
						</effect>
					</filter>
					<filter>
						<effect>
							<name>Crop</name>
							<effectid>crop</effectid>
							<effectcategory>motion</effectcategory>
							<effecttype>motion</effecttype>
							<mediatype>video</mediatype>
							<parameter>
								<parameterid>left</parameterid>
								<name>left</name>
								<valuemin>0</valuemin>
								<valuemax>100</valuemax>
								<value>0</value>
							</parameter>
							<parameter>
								<parameterid>right</parameterid>
								<name>right</name>
								<valuemin>0</valuemin>
								<valuemax>100</valuemax>
								<value>0</value>
							</parameter>
							<parameter>
								<parameterid>top</parameterid>
								<name>top</name>
								<valuemin>0</valuemin>
								<valuemax>100</valuemax>
								<value>0</value>
							</parameter>
							<parameter>
								<parameterid>bottom</parameterid>
								<name>bottom</name>
								<valuemin>0</valuemin>
								<valuemax>100</valuemax>
								<value>0</value>
							</parameter>
							<parameter>
								<parameterid>edgefeather</parameterid>
								<name>edgefeather</name>
								<valuemin>0</valuemin>
								<valuemax>100</valuemax>
								<value>0</value>
							</parameter>
						</effect>
					</filter>
					<filter>
						<effect>
							<name>Distort</name>
							<effectid>deformation</effectid>
							<effectcategory>motion</effectcategory>
							<effecttype>motion</effecttype>
							<mediatype>video</mediatype>
							<parameter>
								<parameterid>ulcorner</parameterid>
								<name>Upper Left</name>
								<value>
									<horiz>-0.5</horiz>
									<vert>-0.5</vert>
								</value>
							</parameter>
							<parameter>
								<parameterid>urcorner</parameterid>
								<name>Upper Right</name>
								<value>
									<horiz>0.5</horiz>
									<vert>-0.5</vert>
								</value>
							</parameter>
							<parameter>
								<parameterid>lrcorner</parameterid>
								<name>Lower Right</name>
								<value>
									<horiz>0.5</horiz>
									<vert>0.5</vert>
								</value>
							</parameter>
							<parameter>
								<parameterid>llcorner</parameterid>
								<name>Lower Left</name>
								<value>
									<horiz>-0.5</horiz>
									<vert>0.5</vert>
								</value>
							</parameter>
							<parameter>
								<parameterid>aspect</parameterid>
								<name>Aspect</name>
								<valuemin>-10000</valuemin>
								<valuemax>10000</valuemax>
								<value>0</value>
							</parameter>
						</effect>
					</filter>
					<filter>
						<effect>
							<name>Opacity</name>
							<effectid>opacity</effectid>
							<effectcategory>motion</effectcategory>
							<effecttype>motion</effecttype>
							<mediatype>video</mediatype>
							<parameter>
								<parameterid>opacity</parameterid>
								<name>opacity</name>
								<valuemin>0</valuemin>
								<valuemax>100</valuemax>
								<value>100</value>
							</parameter>
						</effect>
					</filter>
					<sourcetrack>
						<mediatype>video</mediatype>
					</sourcetrack>
					<fielddominance>none</fielddominance>
				</clipitem>
				<transitionitem id="38365540 ">
					<rate>
						<ntsc>FALSE</ntsc>
						<timebase>25</timebase>
					</rate>
					<start>33423</start>
					<end>33431</end>
					<alignment>center</alignment>
					<effect>
						<name>Push Slide</name>
						<effectid>Push Slide</effectid>
						<effectcategory>Slide</effectcategory>
						<effecttype>transition</effecttype>
						<mediatype>video</mediatype>
						<wipecode>1</wipecode>
						<wipeaccuracy>100</wipeaccuracy>
						<startratio>0</startratio>
						<endratio>1</endratio>
						<reverse>FALSE</reverse>
						<parameter>
							<parameterid>angleofpush</parameterid>
							<name>Angle</name>
							<valuemin>-360</valuemin>
							<valuemax>360</valuemax>
							<value>180</value>
						</parameter>
						<parameter>
							<parameterid>borderwidth</parameterid>
							<name>Border</name>
							<valuemin>0</valuemin>
							<valuemax>10</valuemax>
							<value>0</value>
						</parameter>
						<parameter>
							<parameterid>bordercolor</parameterid>
							<name>Color</name>
							<value>
								<alpha>255</alpha>
								<red>0</red>
								<green>0</green>
								<blue>0</blue>
							</value>
						</parameter>
					</effect>
				</transitionitem>
				<transitionitem id="38366356 ">
					<rate>
						<ntsc>FALSE</ntsc>
						<timebase>25</timebase>
					</rate>
					<start>33560</start>
					<end>33568</end>
					<alignment>center</alignment>
					<effect>
						<name>Push Slide</name>
						<effectid>Push Slide</effectid>
						<effectcategory>Slide</effectcategory>
						<effecttype>transition</effecttype>
						<mediatype>video</mediatype>
						<wipecode>1</wipecode>
						<wipeaccuracy>100</wipeaccuracy>
						<startratio>0</startratio>
						<endratio>1</endratio>
						<reverse>FALSE</reverse>
						<parameter>
							<parameterid>angleofpush</parameterid>
							<name>Angle</name>
							<valuemin>-360</valuemin>
							<valuemax>360</valuemax>
							<value>0</value>
						</parameter>
						<parameter>
							<parameterid>borderwidth</parameterid>
							<name>Border</name>
							<valuemin>0</valuemin>
							<valuemax>10</valuemax>
							<value>0</value>
						</parameter>
						<parameter>
							<parameterid>bordercolor</parameterid>
							<name>Color</name>
							<value>
								<alpha>255</alpha>
								<red>0</red>
								<green>0</green>
								<blue>0</blue>
							</value>
						</parameter>
					</effect>
				</transitionitem>
				<clipitem id="Jenny.png6">
					<name>Jenny.png</name>
					<duration>4500</duration>
					<rate>
						<ntsc>FALSE</ntsc>
						<timebase>25</timebase>
					</rate>
					<in>2526</in>
					<out>3461</out>
					<start>-1</start>
					<end>34495</end>
					<pixelaspectratio>Square</pixelaspectratio>
					<stillframe>TRUE</stillframe>
					<enabled>TRUE</enabled>
					<anamorphic>FALSE</anamorphic>
					<alphatype>straight</alphatype>
					<masterclipid>Jenny.png1</masterclipid>
					<logginginfo>
						<scene/>
						<shottake/>
						<lognote/>
						<good>FALSE</good>
					</logginginfo>
					<labels>
						<label2/>
					</labels>
					<comments>
						<mastercomment1/>
						<mastercomment2/>
						<mastercomment3/>
						<mastercomment4/>
					</comments>
					<file id="Jenny"/>
					<filter>
						<effect>
							<name>Basic Motion</name>
							<effectid>basic</effectid>
							<effectcategory>motion</effectcategory>
							<effecttype>motion</effecttype>
							<mediatype>video</mediatype>
							<parameter>
								<parameterid>scale</parameterid>
								<name>Scale</name>
								<valuemin>0</valuemin>
								<valuemax>1000</valuemax>
								<value>50</value>
							</parameter>
							<parameter>
								<parameterid>center</parameterid>
								<name>Center</name>
								<value>
									<horiz>0.139599</horiz>
									<vert>0.902299</vert>
								</value>
							</parameter>
							<parameter>
								<parameterid>rotation</parameterid>
								<name>Rotation</name>
								<valuemin>-8640</valuemin>
								<valuemax>8640</valuemax>
								<value>0</value>
							</parameter>
							<parameter>
								<parameterid>centerOffset</parameterid>
								<name>Anchor Point</name>
								<value>
									<horiz>0</horiz>
									<vert>0</vert>
								</value>
							</parameter>
						</effect>
					</filter>
					<filter>
						<enabled>FALSE</enabled>
						<effect>
							<name>Drop Shadow</name>
							<effectid>dropshadow</effectid>
							<effectcategory>motion</effectcategory>
							<effecttype>motion</effecttype>
							<mediatype>video</mediatype>
							<parameter>
								<parameterid>offset</parameterid>
								<name>offset</name>
								<valuemin>-100</valuemin>
								<valuemax>100</valuemax>
								<value>2</value>
							</parameter>
							<parameter>
								<parameterid>angle</parameterid>
								<name>angle</name>
								<valuemin>-720</valuemin>
								<valuemax>720</valuemax>
								<value>135</value>
							</parameter>
							<parameter>
								<parameterid>color</parameterid>
								<name>color</name>
								<value>
									<alpha>0</alpha>
									<red>0</red>
									<green>0</green>
									<blue>0</blue>
								</value>
							</parameter>
							<parameter>
								<parameterid>softness</parameterid>
								<name>softness</name>
								<valuemin>0</valuemin>
								<valuemax>100</valuemax>
								<value>10</value>
							</parameter>
							<parameter>
								<parameterid>opacity</parameterid>
								<name>opacity</name>
								<valuemin>0</valuemin>
								<valuemax>100</valuemax>
								<value>50</value>
							</parameter>
						</effect>
					</filter>
					<filter>
						<enabled>FALSE</enabled>
						<effect>
							<name>Motion Blur</name>
							<effectid>motionblur</effectid>
							<effectcategory>motion</effectcategory>
							<effecttype>motion</effecttype>
							<mediatype>video</mediatype>
							<parameter>
								<parameterid>duration</parameterid>
								<name>% Blur</name>
								<valuemin>0</valuemin>
								<valuemax>1000</valuemax>
								<value>500</value>
							</parameter>
							<parameter>
								<parameterid>samples</parameterid>
								<name>Samples</name>
								<valuemin>1</valuemin>
								<valuemax>16</valuemax>
								<value>4</value>
							</parameter>
						</effect>
					</filter>
					<filter>
						<effect>
							<name>Crop</name>
							<effectid>crop</effectid>
							<effectcategory>motion</effectcategory>
							<effecttype>motion</effecttype>
							<mediatype>video</mediatype>
							<parameter>
								<parameterid>left</parameterid>
								<name>left</name>
								<valuemin>0</valuemin>
								<valuemax>100</valuemax>
								<value>0</value>
							</parameter>
							<parameter>
								<parameterid>right</parameterid>
								<name>right</name>
								<valuemin>0</valuemin>
								<valuemax>100</valuemax>
								<value>0</value>
							</parameter>
							<parameter>
								<parameterid>top</parameterid>
								<name>top</name>
								<valuemin>0</valuemin>
								<valuemax>100</valuemax>
								<value>0</value>
							</parameter>
							<parameter>
								<parameterid>bottom</parameterid>
								<name>bottom</name>
								<valuemin>0</valuemin>
								<valuemax>100</valuemax>
								<value>0</value>
							</parameter>
							<parameter>
								<parameterid>edgefeather</parameterid>
								<name>edgefeather</name>
								<valuemin>0</valuemin>
								<valuemax>100</valuemax>
								<value>0</value>
							</parameter>
						</effect>
					</filter>
					<filter>
						<effect>
							<name>Distort</name>
							<effectid>deformation</effectid>
							<effectcategory>motion</effectcategory>
							<effecttype>motion</effecttype>
							<mediatype>video</mediatype>
							<parameter>
								<parameterid>ulcorner</parameterid>
								<name>Upper Left</name>
								<value>
									<horiz>-0.5</horiz>
									<vert>-0.5</vert>
								</value>
							</parameter>
							<parameter>
								<parameterid>urcorner</parameterid>
								<name>Upper Right</name>
								<value>
									<horiz>0.5</horiz>
									<vert>-0.5</vert>
								</value>
							</parameter>
							<parameter>
								<parameterid>lrcorner</parameterid>
								<name>Lower Right</name>
								<value>
									<horiz>0.5</horiz>
									<vert>0.5</vert>
								</value>
							</parameter>
							<parameter>
								<parameterid>llcorner</parameterid>
								<name>Lower Left</name>
								<value>
									<horiz>-0.5</horiz>
									<vert>0.5</vert>
								</value>
							</parameter>
							<parameter>
								<parameterid>aspect</parameterid>
								<name>Aspect</name>
								<valuemin>-10000</valuemin>
								<valuemax>10000</valuemax>
								<value>0</value>
							</parameter>
						</effect>
					</filter>
					<filter>
						<effect>
							<name>Opacity</name>
							<effectid>opacity</effectid>
							<effectcategory>motion</effectcategory>
							<effecttype>motion</effecttype>
							<mediatype>video</mediatype>
							<parameter>
								<parameterid>opacity</parameterid>
								<name>opacity</name>
								<valuemin>0</valuemin>
								<valuemax>100</valuemax>
								<value>100</value>
							</parameter>
						</effect>
					</filter>
					<sourcetrack>
						<mediatype>video</mediatype>
					</sourcetrack>
					<fielddominance>none</fielddominance>
				</clipitem>
				<transitionitem id="38369348 ">
					<rate>
						<ntsc>FALSE</ntsc>
						<timebase>25</timebase>
					</rate>
					<start>34530</start>
					<end>34538</end>
					<alignment>center</alignment>
					<effect>
						<name>Push Slide</name>
						<effectid>Push Slide</effectid>
						<effectcategory>Slide</effectcategory>
						<effecttype>transition</effecttype>
						<mediatype>video</mediatype>
						<wipecode>1</wipecode>
						<wipeaccuracy>100</wipeaccuracy>
						<startratio>0</startratio>
						<endratio>1</endratio>
						<reverse>FALSE</reverse>
						<parameter>
							<parameterid>angleofpush</parameterid>
							<name>Angle</name>
							<valuemin>-360</valuemin>
							<valuemax>360</valuemax>
							<value>0</value>
						</parameter>
						<parameter>
							<parameterid>borderwidth</parameterid>
							<name>Border</name>
							<valuemin>0</valuemin>
							<valuemax>10</valuemax>
							<value>0</value>
						</parameter>
						<parameter>
							<parameterid>bordercolor</parameterid>
							<name>Color</name>
							<value>
								<alpha>255</alpha>
								<red>0</red>
								<green>0</green>
								<blue>0</blue>
							</value>
						</parameter>
					</effect>
				</transitionitem>
				<clipitem id="RÃ¸kla.png">
					<name>RÃ¸kla.png</name>
					<duration>3026</duration>
					<rate>
						<ntsc>FALSE</ntsc>
						<timebase>25</timebase>
					</rate>
					<in>1499</in>
					<out>1583</out>
					<start>-1</start>
					<end>34614</end>
					<pixelaspectratio>Square</pixelaspectratio>
					<stillframe>TRUE</stillframe>
					<enabled>TRUE</enabled>
					<anamorphic>FALSE</anamorphic>
					<alphatype>straight</alphatype>
					<masterclipid>RÃ¸kla.png1</masterclipid>
					<logginginfo>
						<scene/>
						<shottake/>
						<lognote/>
						<good>FALSE</good>
					</logginginfo>
					<labels>
						<label2/>
					</labels>
					<comments>
						<mastercomment1/>
						<mastercomment2/>
						<mastercomment3/>
						<mastercomment4/>
					</comments>
					<file id="RÃ¸kla">
						<name>RÃ¸kla.png</name>
						<pathurl>file://localhost/SuperSAN1/Prosjekter/MSUB20000012%20FIN%20FREDAG/test%20av%20Kristine%20og%20r%C3%B8kla/R%C3%B8kla.png</pathurl>
						<rate>
							<timebase>25</timebase>
						</rate>
						<duration>2</duration>
						<width>2478</width>
						<height>393</height>
						<media>
							<video>
								<duration>2</duration>
								<stillframe>TRUE</stillframe>
								<samplecharacteristics>
									<width>2478</width>
									<height>393</height>
								</samplecharacteristics>
							</video>
						</media>
					</file>
					<filter>
						<effect>
							<name>Basic Motion</name>
							<effectid>basic</effectid>
							<effectcategory>motion</effectcategory>
							<effecttype>motion</effecttype>
							<mediatype>video</mediatype>
							<parameter>
								<parameterid>scale</parameterid>
								<name>Scale</name>
								<valuemin>0</valuemin>
								<valuemax>1000</valuemax>
								<value>102.009</value>
							</parameter>
							<parameter>
								<parameterid>rotation</parameterid>
								<name>Rotation</name>
								<valuemin>-8640</valuemin>
								<valuemax>8640</valuemax>
								<value>-4.63099</value>
							</parameter>
							<parameter>
								<parameterid>center</parameterid>
								<name>Center</name>
								<value>
									<horiz>-0.265302</horiz>
									<vert>0.844828</vert>
								</value>
							</parameter>
							<parameter>
								<parameterid>centerOffset</parameterid>
								<name>Anchor Point</name>
								<value>
									<horiz>0</horiz>
									<vert>0</vert>
								</value>
							</parameter>
						</effect>
					</filter>
					<sourcetrack>
						<mediatype>video</mediatype>
					</sourcetrack>
					<fielddominance>none</fielddominance>
				</clipitem>
				<enabled>TRUE</enabled>
				<locked>FALSE</locked>
			</track>
			<track>
				<clipitem id="RÃ¸kla.png2">
					<name>RÃ¸kla.png</name>
					<duration>3026</duration>
					<rate>
						<ntsc>FALSE</ntsc>
						<timebase>25</timebase>
					</rate>
					<in>1495</in>
					<out>1501</out>
					<start>31792</start>
					<end>31798</end>
					<pixelaspectratio>Square</pixelaspectratio>
					<stillframe>TRUE</stillframe>
					<enabled>TRUE</enabled>
					<anamorphic>FALSE</anamorphic>
					<alphatype>straight</alphatype>
					<masterclipid>RÃ¸kla.png1</masterclipid>
					<logginginfo>
						<scene/>
						<shottake/>
						<lognote/>
						<good>FALSE</good>
					</logginginfo>
					<labels>
						<label2/>
					</labels>
					<comments>
						<mastercomment1/>
						<mastercomment2/>
						<mastercomment3/>
						<mastercomment4/>
					</comments>
					<file id="RÃ¸kla"/>
					<filter>
						<effect>
							<name>Basic Motion</name>
							<effectid>basic</effectid>
							<effectcategory>motion</effectcategory>
							<effecttype>motion</effecttype>
							<mediatype>video</mediatype>
							<parameter>
								<parameterid>scale</parameterid>
								<name>Scale</name>
								<valuemin>0</valuemin>
								<valuemax>1000</valuemax>
								<value>77.4818</value>
							</parameter>
							<parameter>
								<parameterid>rotation</parameterid>
								<name>Rotation</name>
								<valuemin>-8640</valuemin>
								<valuemax>8640</valuemax>
								<value>0</value>
							</parameter>
							<parameter>
								<parameterid>center</parameterid>
								<name>Center</name>
								<value>
									<horiz>0.0403551</horiz>
									<vert>0</vert>
								</value>
							</parameter>
							<parameter>
								<parameterid>centerOffset</parameterid>
								<name>Anchor Point</name>
								<value>
									<horiz>0</horiz>
									<vert>0</vert>
								</value>
							</parameter>
						</effect>
					</filter>
					<filter>
						<enabled>FALSE</enabled>
						<effect>
							<name>Drop Shadow</name>
							<effectid>dropshadow</effectid>
							<effectcategory>motion</effectcategory>
							<effecttype>motion</effecttype>
							<mediatype>video</mediatype>
							<parameter>
								<parameterid>offset</parameterid>
								<name>offset</name>
								<valuemin>-100</valuemin>
								<valuemax>100</valuemax>
								<value>2</value>
							</parameter>
							<parameter>
								<parameterid>angle</parameterid>
								<name>angle</name>
								<valuemin>-720</valuemin>
								<valuemax>720</valuemax>
								<value>135</value>
							</parameter>
							<parameter>
								<parameterid>color</parameterid>
								<name>color</name>
								<value>
									<alpha>0</alpha>
									<red>0</red>
									<green>0</green>
									<blue>0</blue>
								</value>
							</parameter>
							<parameter>
								<parameterid>softness</parameterid>
								<name>softness</name>
								<valuemin>0</valuemin>
								<valuemax>100</valuemax>
								<value>10</value>
							</parameter>
							<parameter>
								<parameterid>opacity</parameterid>
								<name>opacity</name>
								<valuemin>0</valuemin>
								<valuemax>100</valuemax>
								<value>50</value>
							</parameter>
						</effect>
					</filter>
					<filter>
						<enabled>FALSE</enabled>
						<effect>
							<name>Motion Blur</name>
							<effectid>motionblur</effectid>
							<effectcategory>motion</effectcategory>
							<effecttype>motion</effecttype>
							<mediatype>video</mediatype>
							<parameter>
								<parameterid>duration</parameterid>
								<name>% Blur</name>
								<valuemin>0</valuemin>
								<valuemax>1000</valuemax>
								<value>500</value>
							</parameter>
							<parameter>
								<parameterid>samples</parameterid>
								<name>Samples</name>
								<valuemin>1</valuemin>
								<valuemax>16</valuemax>
								<value>4</value>
							</parameter>
						</effect>
					</filter>
					<filter>
						<effect>
							<name>Crop</name>
							<effectid>crop</effectid>
							<effectcategory>motion</effectcategory>
							<effecttype>motion</effecttype>
							<mediatype>video</mediatype>
							<parameter>
								<parameterid>left</parameterid>
								<name>left</name>
								<valuemin>0</valuemin>
								<valuemax>100</valuemax>
								<value>0</value>
							</parameter>
							<parameter>
								<parameterid>right</parameterid>
								<name>right</name>
								<valuemin>0</valuemin>
								<valuemax>100</valuemax>
								<value>0</value>
							</parameter>
							<parameter>
								<parameterid>top</parameterid>
								<name>top</name>
								<valuemin>0</valuemin>
								<valuemax>100</valuemax>
								<value>0</value>
							</parameter>
							<parameter>
								<parameterid>bottom</parameterid>
								<name>bottom</name>
								<valuemin>0</valuemin>
								<valuemax>100</valuemax>
								<value>0</value>
							</parameter>
							<parameter>
								<parameterid>edgefeather</parameterid>
								<name>edgefeather</name>
								<valuemin>0</valuemin>
								<valuemax>100</valuemax>
								<value>0</value>
							</parameter>
						</effect>
					</filter>
					<filter>
						<effect>
							<name>Distort</name>
							<effectid>deformation</effectid>
							<effectcategory>motion</effectcategory>
							<effecttype>motion</effecttype>
							<mediatype>video</mediatype>
							<parameter>
								<parameterid>ulcorner</parameterid>
								<name>Upper Left</name>
								<value>
									<horiz>-0.5</horiz>
									<vert>-0.5</vert>
								</value>
							</parameter>
							<parameter>
								<parameterid>urcorner</parameterid>
								<name>Upper Right</name>
								<value>
									<horiz>0.5</horiz>
									<vert>-0.5</vert>
								</value>
							</parameter>
							<parameter>
								<parameterid>lrcorner</parameterid>
								<name>Lower Right</name>
								<value>
									<horiz>0.5</horiz>
									<vert>0.5</vert>
								</value>
							</parameter>
							<parameter>
								<parameterid>llcorner</parameterid>
								<name>Lower Left</name>
								<value>
									<horiz>-0.5</horiz>
									<vert>0.5</vert>
								</value>
							</parameter>
							<parameter>
								<parameterid>aspect</parameterid>
								<name>Aspect</name>
								<valuemin>-10000</valuemin>
								<valuemax>10000</valuemax>
								<value>0</value>
							</parameter>
						</effect>
					</filter>
					<filter>
						<effect>
							<name>Opacity</name>
							<effectid>opacity</effectid>
							<effectcategory>motion</effectcategory>
							<effecttype>motion</effecttype>
							<mediatype>video</mediatype>
							<parameter>
								<parameterid>opacity</parameterid>
								<name>opacity</name>
								<valuemin>0</valuemin>
								<valuemax>100</valuemax>
								<value>100</value>
							</parameter>
						</effect>
					</filter>
					<sourcetrack>
						<mediatype>video</mediatype>
					</sourcetrack>
					<fielddominance>none</fielddominance>
				</clipitem>
				<clipitem id="RÃ¸kla.png3">
					<name>RÃ¸kla.png</name>
					<duration>3026</duration>
					<rate>
						<ntsc>FALSE</ntsc>
						<timebase>25</timebase>
					</rate>
					<in>1491</in>
					<out>1495</out>
					<start>31815</start>
					<end>31819</end>
					<pixelaspectratio>Square</pixelaspectratio>
					<stillframe>TRUE</stillframe>
					<anamorphic>FALSE</anamorphic>
					<alphatype>straight</alphatype>
					<masterclipid>RÃ¸kla.png1</masterclipid>
					<logginginfo>
						<scene/>
						<shottake/>
						<lognote/>
						<good>FALSE</good>
					</logginginfo>
					<labels>
						<label2/>
					</labels>
					<comments>
						<mastercomment1/>
						<mastercomment2/>
						<mastercomment3/>
						<mastercomment4/>
					</comments>
					<file id="RÃ¸kla"/>
					<filter>
						<effect>
							<name>Basic Motion</name>
							<effectid>basic</effectid>
							<effectcategory>motion</effectcategory>
							<effecttype>motion</effecttype>
							<mediatype>video</mediatype>
							<parameter>
								<parameterid>scale</parameterid>
								<name>Scale</name>
								<valuemin>0</valuemin>
								<valuemax>1000</valuemax>
								<value>77.4818</value>
							</parameter>
							<parameter>
								<parameterid>rotation</parameterid>
								<name>Rotation</name>
								<valuemin>-8640</valuemin>
								<valuemax>8640</valuemax>
								<value>0</value>
							</parameter>
							<parameter>
								<parameterid>center</parameterid>
								<name>Center</name>
								<value>
									<horiz>0.0403551</horiz>
									<vert>0</vert>
								</value>
							</parameter>
							<parameter>
								<parameterid>centerOffset</parameterid>
								<name>Anchor Point</name>
								<value>
									<horiz>0</horiz>
									<vert>0</vert>
								</value>
							</parameter>
						</effect>
					</filter>
					<sourcetrack>
						<mediatype>video</mediatype>
					</sourcetrack>
					<fielddominance>none</fielddominance>
				</clipitem>
				<clipitem id="RÃ¸kla.png4">
					<name>RÃ¸kla.png</name>
					<duration>3026</duration>
					<rate>
						<ntsc>FALSE</ntsc>
						<timebase>25</timebase>
					</rate>
					<in>1499</in>
					<out>1505</out>
					<start>31823</start>
					<end>31829</end>
					<pixelaspectratio>Square</pixelaspectratio>
					<stillframe>TRUE</stillframe>
					<enabled>TRUE</enabled>
					<anamorphic>FALSE</anamorphic>
					<alphatype>straight</alphatype>
					<masterclipid>RÃ¸kla.png1</masterclipid>
					<logginginfo>
						<scene/>
						<shottake/>
						<lognote/>
						<good>FALSE</good>
					</logginginfo>
					<labels>
						<label2/>
					</labels>
					<comments>
						<mastercomment1/>
						<mastercomment2/>
						<mastercomment3/>
						<mastercomment4/>
					</comments>
					<file id="RÃ¸kla"/>
					<filter>
						<effect>
							<name>Basic Motion</name>
							<effectid>basic</effectid>
							<effectcategory>motion</effectcategory>
							<effecttype>motion</effecttype>
							<mediatype>video</mediatype>
							<parameter>
								<parameterid>scale</parameterid>
								<name>Scale</name>
								<valuemin>0</valuemin>
								<valuemax>1000</valuemax>
								<value>77.4818</value>
							</parameter>
							<parameter>
								<parameterid>rotation</parameterid>
								<name>Rotation</name>
								<valuemin>-8640</valuemin>
								<valuemax>8640</valuemax>
								<value>0</value>
							</parameter>
							<parameter>
								<parameterid>center</parameterid>
								<name>Center</name>
								<value>
									<horiz>0.0403551</horiz>
									<vert>0</vert>
								</value>
							</parameter>
							<parameter>
								<parameterid>centerOffset</parameterid>
								<name>Anchor Point</name>
								<value>
									<horiz>0</horiz>
									<vert>0</vert>
								</value>
							</parameter>
						</effect>
					</filter>
					<sourcetrack>
						<mediatype>video</mediatype>
					</sourcetrack>
					<fielddominance>none</fielddominance>
				</clipitem>
				<clipitem id="RÃ¸kla.png5">
					<name>RÃ¸kla.png</name>
					<duration>3026</duration>
					<rate>
						<ntsc>FALSE</ntsc>
						<timebase>25</timebase>
					</rate>
					<in>1499</in>
					<out>1508</out>
					<start>31829</start>
					<end>31838</end>
					<pixelaspectratio>Square</pixelaspectratio>
					<stillframe>TRUE</stillframe>
					<enabled>TRUE</enabled>
					<anamorphic>FALSE</anamorphic>
					<alphatype>straight</alphatype>
					<masterclipid>RÃ¸kla.png1</masterclipid>
					<logginginfo>
						<scene/>
						<shottake/>
						<lognote/>
						<good>FALSE</good>
					</logginginfo>
					<labels>
						<label2/>
					</labels>
					<comments>
						<mastercomment1/>
						<mastercomment2/>
						<mastercomment3/>
						<mastercomment4/>
					</comments>
					<file id="RÃ¸kla"/>
					<filter>
						<effect>
							<name>Basic Motion</name>
							<effectid>basic</effectid>
							<effectcategory>motion</effectcategory>
							<effecttype>motion</effecttype>
							<mediatype>video</mediatype>
							<parameter>
								<parameterid>scale</parameterid>
								<name>Scale</name>
								<valuemin>0</valuemin>
								<valuemax>1000</valuemax>
								<value>77.4818</value>
							</parameter>
							<parameter>
								<parameterid>rotation</parameterid>
								<name>Rotation</name>
								<valuemin>-8640</valuemin>
								<valuemax>8640</valuemax>
								<value>0</value>
							</parameter>
							<parameter>
								<parameterid>center</parameterid>
								<name>Center</name>
								<value>
									<horiz>0.0403551</horiz>
									<vert>0</vert>
								</value>
							</parameter>
							<parameter>
								<parameterid>centerOffset</parameterid>
								<name>Anchor Point</name>
								<value>
									<horiz>0</horiz>
									<vert>0</vert>
								</value>
							</parameter>
						</effect>
					</filter>
					<sourcetrack>
						<mediatype>video</mediatype>
					</sourcetrack>
					<fielddominance>none</fielddominance>
				</clipitem>
				<clipitem id="RÃ¸kla.png6">
					<name>RÃ¸kla.png</name>
					<duration>3026</duration>
					<rate>
						<ntsc>FALSE</ntsc>
						<timebase>25</timebase>
					</rate>
					<in>1501</in>
					<out>1519</out>
					<start>31838</start>
					<end>31856</end>
					<pixelaspectratio>Square</pixelaspectratio>
					<stillframe>TRUE</stillframe>
					<enabled>TRUE</enabled>
					<anamorphic>FALSE</anamorphic>
					<alphatype>straight</alphatype>
					<masterclipid>RÃ¸kla.png1</masterclipid>
					<logginginfo>
						<scene/>
						<shottake/>
						<lognote/>
						<good>FALSE</good>
					</logginginfo>
					<labels>
						<label2/>
					</labels>
					<comments>
						<mastercomment1/>
						<mastercomment2/>
						<mastercomment3/>
						<mastercomment4/>
					</comments>
					<file id="RÃ¸kla"/>
					<filter>
						<effect>
							<name>Basic Motion</name>
							<effectid>basic</effectid>
							<effectcategory>motion</effectcategory>
							<effecttype>motion</effecttype>
							<mediatype>video</mediatype>
							<parameter>
								<parameterid>scale</parameterid>
								<name>Scale</name>
								<valuemin>0</valuemin>
								<valuemax>1000</valuemax>
								<value>84</value>
							</parameter>
							<parameter>
								<parameterid>rotation</parameterid>
								<name>Rotation</name>
								<valuemin>-8640</valuemin>
								<valuemax>8640</valuemax>
								<value>4</value>
							</parameter>
							<parameter>
								<parameterid>center</parameterid>
								<name>Center</name>
								<value>
									<horiz>0.0403551</horiz>
									<vert>0</vert>
								</value>
							</parameter>
							<parameter>
								<parameterid>centerOffset</parameterid>
								<name>Anchor Point</name>
								<value>
									<horiz>0</horiz>
									<vert>0</vert>
								</value>
							</parameter>
						</effect>
					</filter>
					<filter>
						<enabled>FALSE</enabled>
						<effect>
							<name>Drop Shadow</name>
							<effectid>dropshadow</effectid>
							<effectcategory>motion</effectcategory>
							<effecttype>motion</effecttype>
							<mediatype>video</mediatype>
							<parameter>
								<parameterid>offset</parameterid>
								<name>offset</name>
								<valuemin>-100</valuemin>
								<valuemax>100</valuemax>
								<value>2</value>
							</parameter>
							<parameter>
								<parameterid>angle</parameterid>
								<name>angle</name>
								<valuemin>-720</valuemin>
								<valuemax>720</valuemax>
								<value>135</value>
							</parameter>
							<parameter>
								<parameterid>color</parameterid>
								<name>color</name>
								<value>
									<alpha>0</alpha>
									<red>0</red>
									<green>0</green>
									<blue>0</blue>
								</value>
							</parameter>
							<parameter>
								<parameterid>softness</parameterid>
								<name>softness</name>
								<valuemin>0</valuemin>
								<valuemax>100</valuemax>
								<value>10</value>
							</parameter>
							<parameter>
								<parameterid>opacity</parameterid>
								<name>opacity</name>
								<valuemin>0</valuemin>
								<valuemax>100</valuemax>
								<value>50</value>
							</parameter>
						</effect>
					</filter>
					<filter>
						<enabled>FALSE</enabled>
						<effect>
							<name>Motion Blur</name>
							<effectid>motionblur</effectid>
							<effectcategory>motion</effectcategory>
							<effecttype>motion</effecttype>
							<mediatype>video</mediatype>
							<parameter>
								<parameterid>duration</parameterid>
								<name>% Blur</name>
								<valuemin>0</valuemin>
								<valuemax>1000</valuemax>
								<value>500</value>
							</parameter>
							<parameter>
								<parameterid>samples</parameterid>
								<name>Samples</name>
								<valuemin>1</valuemin>
								<valuemax>16</valuemax>
								<value>4</value>
							</parameter>
						</effect>
					</filter>
					<filter>
						<effect>
							<name>Crop</name>
							<effectid>crop</effectid>
							<effectcategory>motion</effectcategory>
							<effecttype>motion</effecttype>
							<mediatype>video</mediatype>
							<parameter>
								<parameterid>left</parameterid>
								<name>left</name>
								<valuemin>0</valuemin>
								<valuemax>100</valuemax>
								<value>0</value>
							</parameter>
							<parameter>
								<parameterid>right</parameterid>
								<name>right</name>
								<valuemin>0</valuemin>
								<valuemax>100</valuemax>
								<value>0</value>
							</parameter>
							<parameter>
								<parameterid>top</parameterid>
								<name>top</name>
								<valuemin>0</valuemin>
								<valuemax>100</valuemax>
								<value>0</value>
							</parameter>
							<parameter>
								<parameterid>bottom</parameterid>
								<name>bottom</name>
								<valuemin>0</valuemin>
								<valuemax>100</valuemax>
								<value>0</value>
							</parameter>
							<parameter>
								<parameterid>edgefeather</parameterid>
								<name>edgefeather</name>
								<valuemin>0</valuemin>
								<valuemax>100</valuemax>
								<value>0</value>
							</parameter>
						</effect>
					</filter>
					<filter>
						<effect>
							<name>Distort</name>
							<effectid>deformation</effectid>
							<effectcategory>motion</effectcategory>
							<effecttype>motion</effecttype>
							<mediatype>video</mediatype>
							<parameter>
								<parameterid>ulcorner</parameterid>
								<name>Upper Left</name>
								<value>
									<horiz>-0.5</horiz>
									<vert>-0.5</vert>
								</value>
							</parameter>
							<parameter>
								<parameterid>urcorner</parameterid>
								<name>Upper Right</name>
								<value>
									<horiz>0.5</horiz>
									<vert>-0.5</vert>
								</value>
							</parameter>
							<parameter>
								<parameterid>lrcorner</parameterid>
								<name>Lower Right</name>
								<value>
									<horiz>0.5</horiz>
									<vert>0.5</vert>
								</value>
							</parameter>
							<parameter>
								<parameterid>llcorner</parameterid>
								<name>Lower Left</name>
								<value>
									<horiz>-0.5</horiz>
									<vert>0.5</vert>
								</value>
							</parameter>
							<parameter>
								<parameterid>aspect</parameterid>
								<name>Aspect</name>
								<valuemin>-10000</valuemin>
								<valuemax>10000</valuemax>
								<value>0</value>
							</parameter>
						</effect>
					</filter>
					<filter>
						<effect>
							<name>Opacity</name>
							<effectid>opacity</effectid>
							<effectcategory>motion</effectcategory>
							<effecttype>motion</effecttype>
							<mediatype>video</mediatype>
							<parameter>
								<parameterid>opacity</parameterid>
								<name>opacity</name>
								<valuemin>0</valuemin>
								<valuemax>100</valuemax>
								<value>100</value>
							</parameter>
						</effect>
					</filter>
					<sourcetrack>
						<mediatype>video</mediatype>
					</sourcetrack>
					<fielddominance>none</fielddominance>
				</clipitem>
				<clipitem id="mot.png5">
					<name>mot.png</name>
					<duration>3026</duration>
					<rate>
						<ntsc>FALSE</ntsc>
						<timebase>25</timebase>
					</rate>
					<in>1564</in>
					<out>1638</out>
					<start>32017</start>
					<end>-1</end>
					<pixelaspectratio>Square</pixelaspectratio>
					<stillframe>TRUE</stillframe>
					<enabled>TRUE</enabled>
					<anamorphic>FALSE</anamorphic>
					<alphatype>straight</alphatype>
					<masterclipid>mot.png1</masterclipid>
					<syncoffset>0</syncoffset>
					<logginginfo>
						<scene/>
						<shottake/>
						<lognote/>
						<good>FALSE</good>
					</logginginfo>
					<labels>
						<label2/>
					</labels>
					<comments>
						<mastercomment1/>
						<mastercomment2/>
						<mastercomment3/>
						<mastercomment4/>
					</comments>
					<file id="mot"/>
					<filter>
						<effect>
							<name>Basic Motion</name>
							<effectid>basic</effectid>
							<effectcategory>motion</effectcategory>
							<effecttype>motion</effecttype>
							<mediatype>video</mediatype>
							<parameter>
								<parameterid>scale</parameterid>
								<name>Scale</name>
								<valuemin>0</valuemin>
								<valuemax>1000</valuemax>
								<value>100</value>
							</parameter>
							<parameter>
								<parameterid>center</parameterid>
								<name>Center</name>
								<value>
									<horiz>0.070322</horiz>
									<vert>-0.0103447</vert>
								</value>
							</parameter>
							<parameter>
								<parameterid>rotation</parameterid>
								<name>Rotation</name>
								<valuemin>-8640</valuemin>
								<valuemax>8640</valuemax>
								<value>4</value>
							</parameter>
							<parameter>
								<parameterid>centerOffset</parameterid>
								<name>Anchor Point</name>
								<value>
									<horiz>0</horiz>
									<vert>0</vert>
								</value>
							</parameter>
						</effect>
					</filter>
					<filter>
						<enabled>FALSE</enabled>
						<effect>
							<name>Drop Shadow</name>
							<effectid>dropshadow</effectid>
							<effectcategory>motion</effectcategory>
							<effecttype>motion</effecttype>
							<mediatype>video</mediatype>
							<parameter>
								<parameterid>offset</parameterid>
								<name>offset</name>
								<valuemin>-100</valuemin>
								<valuemax>100</valuemax>
								<value>2</value>
							</parameter>
							<parameter>
								<parameterid>angle</parameterid>
								<name>angle</name>
								<valuemin>-720</valuemin>
								<valuemax>720</valuemax>
								<value>135</value>
							</parameter>
							<parameter>
								<parameterid>color</parameterid>
								<name>color</name>
								<value>
									<alpha>0</alpha>
									<red>0</red>
									<green>0</green>
									<blue>0</blue>
								</value>
							</parameter>
							<parameter>
								<parameterid>softness</parameterid>
								<name>softness</name>
								<valuemin>0</valuemin>
								<valuemax>100</valuemax>
								<value>10</value>
							</parameter>
							<parameter>
								<parameterid>opacity</parameterid>
								<name>opacity</name>
								<valuemin>0</valuemin>
								<valuemax>100</valuemax>
								<value>50</value>
							</parameter>
						</effect>
					</filter>
					<filter>
						<enabled>FALSE</enabled>
						<effect>
							<name>Motion Blur</name>
							<effectid>motionblur</effectid>
							<effectcategory>motion</effectcategory>
							<effecttype>motion</effecttype>
							<mediatype>video</mediatype>
							<parameter>
								<parameterid>duration</parameterid>
								<name>% Blur</name>
								<valuemin>0</valuemin>
								<valuemax>1000</valuemax>
								<value>500</value>
							</parameter>
							<parameter>
								<parameterid>samples</parameterid>
								<name>Samples</name>
								<valuemin>1</valuemin>
								<valuemax>16</valuemax>
								<value>4</value>
							</parameter>
						</effect>
					</filter>
					<filter>
						<effect>
							<name>Crop</name>
							<effectid>crop</effectid>
							<effectcategory>motion</effectcategory>
							<effecttype>motion</effecttype>
							<mediatype>video</mediatype>
							<parameter>
								<parameterid>left</parameterid>
								<name>left</name>
								<valuemin>0</valuemin>
								<valuemax>100</valuemax>
								<value>0</value>
							</parameter>
							<parameter>
								<parameterid>right</parameterid>
								<name>right</name>
								<valuemin>0</valuemin>
								<valuemax>100</valuemax>
								<value>0</value>
							</parameter>
							<parameter>
								<parameterid>top</parameterid>
								<name>top</name>
								<valuemin>0</valuemin>
								<valuemax>100</valuemax>
								<value>0</value>
							</parameter>
							<parameter>
								<parameterid>bottom</parameterid>
								<name>bottom</name>
								<valuemin>0</valuemin>
								<valuemax>100</valuemax>
								<value>0</value>
							</parameter>
							<parameter>
								<parameterid>edgefeather</parameterid>
								<name>edgefeather</name>
								<valuemin>0</valuemin>
								<valuemax>100</valuemax>
								<value>0</value>
							</parameter>
						</effect>
					</filter>
					<filter>
						<effect>
							<name>Distort</name>
							<effectid>deformation</effectid>
							<effectcategory>motion</effectcategory>
							<effecttype>motion</effecttype>
							<mediatype>video</mediatype>
							<parameter>
								<parameterid>ulcorner</parameterid>
								<name>Upper Left</name>
								<value>
									<horiz>-0.5</horiz>
									<vert>-0.5</vert>
								</value>
							</parameter>
							<parameter>
								<parameterid>urcorner</parameterid>
								<name>Upper Right</name>
								<value>
									<horiz>0.5</horiz>
									<vert>-0.5</vert>
								</value>
							</parameter>
							<parameter>
								<parameterid>lrcorner</parameterid>
								<name>Lower Right</name>
								<value>
									<horiz>0.5</horiz>
									<vert>0.5</vert>
								</value>
							</parameter>
							<parameter>
								<parameterid>llcorner</parameterid>
								<name>Lower Left</name>
								<value>
									<horiz>-0.5</horiz>
									<vert>0.5</vert>
								</value>
							</parameter>
							<parameter>
								<parameterid>aspect</parameterid>
								<name>Aspect</name>
								<valuemin>-10000</valuemin>
								<valuemax>10000</valuemax>
								<value>0</value>
							</parameter>
						</effect>
					</filter>
					<filter>
						<effect>
							<name>Opacity</name>
							<effectid>opacity</effectid>
							<effectcategory>motion</effectcategory>
							<effecttype>motion</effecttype>
							<mediatype>video</mediatype>
							<parameter>
								<parameterid>opacity</parameterid>
								<name>opacity</name>
								<valuemin>0</valuemin>
								<valuemax>100</valuemax>
								<value>100</value>
							</parameter>
						</effect>
					</filter>
					<sourcetrack>
						<mediatype>video</mediatype>
					</sourcetrack>
					<fielddominance>none</fielddominance>
				</clipitem>
				<transitionitem id="38379208 ">
					<rate>
						<ntsc>FALSE</ntsc>
						<timebase>25</timebase>
					</rate>
					<start>32085</start>
					<end>32091</end>
					<alignment>end-black</alignment>
					<effect>
						<name>Push Slide</name>
						<effectid>Push Slide</effectid>
						<effectcategory>Slide</effectcategory>
						<effecttype>transition</effecttype>
						<mediatype>video</mediatype>
						<wipecode>1</wipecode>
						<wipeaccuracy>100</wipeaccuracy>
						<startratio>0</startratio>
						<endratio>1</endratio>
						<reverse>FALSE</reverse>
						<parameter>
							<parameterid>angleofpush</parameterid>
							<name>Angle</name>
							<valuemin>-360</valuemin>
							<valuemax>360</valuemax>
							<value>180</value>
						</parameter>
						<parameter>
							<parameterid>borderwidth</parameterid>
							<name>Border</name>
							<valuemin>0</valuemin>
							<valuemax>10</valuemax>
							<value>0</value>
						</parameter>
						<parameter>
							<parameterid>bordercolor</parameterid>
							<name>Color</name>
							<value>
								<alpha>255</alpha>
								<red>0</red>
								<green>0</green>
								<blue>0</blue>
							</value>
						</parameter>
					</effect>
				</transitionitem>
				<transitionitem id="38380092 ">
					<rate>
						<ntsc>FALSE</ntsc>
						<timebase>25</timebase>
					</rate>
					<start>32530</start>
					<end>32538</end>
					<alignment>center</alignment>
					<effect>
						<name>Push Slide</name>
						<effectid>Push Slide</effectid>
						<effectcategory>Slide</effectcategory>
						<effecttype>transition</effecttype>
						<mediatype>video</mediatype>
						<wipecode>1</wipecode>
						<wipeaccuracy>100</wipeaccuracy>
						<startratio>0</startratio>
						<endratio>1</endratio>
						<reverse>FALSE</reverse>
						<parameter>
							<parameterid>angleofpush</parameterid>
							<name>Angle</name>
							<valuemin>-360</valuemin>
							<valuemax>360</valuemax>
							<value>90</value>
						</parameter>
						<parameter>
							<parameterid>borderwidth</parameterid>
							<name>Border</name>
							<valuemin>0</valuemin>
							<valuemax>10</valuemax>
							<value>0</value>
						</parameter>
						<parameter>
							<parameterid>bordercolor</parameterid>
							<name>Color</name>
							<value>
								<alpha>255</alpha>
								<red>0</red>
								<green>0</green>
								<blue>0</blue>
							</value>
						</parameter>
					</effect>
				</transitionitem>
				<clipitem id="Kristine2.png3">
					<name>Kristine2.png</name>
					<duration>4500</duration>
					<rate>
						<ntsc>FALSE</ntsc>
						<timebase>25</timebase>
					</rate>
					<in>1496</in>
					<out>2397</out>
					<start>-1</start>
					<end>-1</end>
					<pixelaspectratio>Square</pixelaspectratio>
					<stillframe>TRUE</stillframe>
					<enabled>TRUE</enabled>
					<anamorphic>FALSE</anamorphic>
					<alphatype>straight</alphatype>
					<masterclipid>Kristine2.png1</masterclipid>
					<logginginfo>
						<scene/>
						<shottake/>
						<lognote/>
						<good>FALSE</good>
					</logginginfo>
					<labels>
						<label2/>
					</labels>
					<comments>
						<mastercomment1/>
						<mastercomment2/>
						<mastercomment3/>
						<mastercomment4/>
					</comments>
					<file id="Kristine2 "/>
					<filter>
						<effect>
							<name>Basic Motion</name>
							<effectid>basic</effectid>
							<effectcategory>motion</effectcategory>
							<effecttype>motion</effecttype>
							<mediatype>video</mediatype>
							<parameter>
								<parameterid>scale</parameterid>
								<name>Scale</name>
								<valuemin>0</valuemin>
								<valuemax>1000</valuemax>
								<value>49</value>
							</parameter>
							<parameter>
								<parameterid>center</parameterid>
								<name>Center</name>
								<value>
									<horiz>-0.0912409</horiz>
									<vert>0.948276</vert>
								</value>
							</parameter>
							<parameter>
								<parameterid>rotation</parameterid>
								<name>Rotation</name>
								<valuemin>-8640</valuemin>
								<valuemax>8640</valuemax>
								<value>0</value>
							</parameter>
							<parameter>
								<parameterid>centerOffset</parameterid>
								<name>Anchor Point</name>
								<value>
									<horiz>0</horiz>
									<vert>0</vert>
								</value>
							</parameter>
						</effect>
					</filter>
					<filter>
						<enabled>FALSE</enabled>
						<effect>
							<name>Drop Shadow</name>
							<effectid>dropshadow</effectid>
							<effectcategory>motion</effectcategory>
							<effecttype>motion</effecttype>
							<mediatype>video</mediatype>
							<parameter>
								<parameterid>offset</parameterid>
								<name>offset</name>
								<valuemin>-100</valuemin>
								<valuemax>100</valuemax>
								<value>2</value>
							</parameter>
							<parameter>
								<parameterid>angle</parameterid>
								<name>angle</name>
								<valuemin>-720</valuemin>
								<valuemax>720</valuemax>
								<value>135</value>
							</parameter>
							<parameter>
								<parameterid>color</parameterid>
								<name>color</name>
								<value>
									<alpha>0</alpha>
									<red>0</red>
									<green>0</green>
									<blue>0</blue>
								</value>
							</parameter>
							<parameter>
								<parameterid>softness</parameterid>
								<name>softness</name>
								<valuemin>0</valuemin>
								<valuemax>100</valuemax>
								<value>10</value>
							</parameter>
							<parameter>
								<parameterid>opacity</parameterid>
								<name>opacity</name>
								<valuemin>0</valuemin>
								<valuemax>100</valuemax>
								<value>50</value>
							</parameter>
						</effect>
					</filter>
					<filter>
						<enabled>FALSE</enabled>
						<effect>
							<name>Motion Blur</name>
							<effectid>motionblur</effectid>
							<effectcategory>motion</effectcategory>
							<effecttype>motion</effecttype>
							<mediatype>video</mediatype>
							<parameter>
								<parameterid>duration</parameterid>
								<name>% Blur</name>
								<valuemin>0</valuemin>
								<valuemax>1000</valuemax>
								<value>500</value>
							</parameter>
							<parameter>
								<parameterid>samples</parameterid>
								<name>Samples</name>
								<valuemin>1</valuemin>
								<valuemax>16</valuemax>
								<value>4</value>
							</parameter>
						</effect>
					</filter>
					<filter>
						<effect>
							<name>Crop</name>
							<effectid>crop</effectid>
							<effectcategory>motion</effectcategory>
							<effecttype>motion</effecttype>
							<mediatype>video</mediatype>
							<parameter>
								<parameterid>left</parameterid>
								<name>left</name>
								<valuemin>0</valuemin>
								<valuemax>100</valuemax>
								<value>0</value>
							</parameter>
							<parameter>
								<parameterid>right</parameterid>
								<name>right</name>
								<valuemin>0</valuemin>
								<valuemax>100</valuemax>
								<value>0</value>
							</parameter>
							<parameter>
								<parameterid>top</parameterid>
								<name>top</name>
								<valuemin>0</valuemin>
								<valuemax>100</valuemax>
								<value>0</value>
							</parameter>
							<parameter>
								<parameterid>bottom</parameterid>
								<name>bottom</name>
								<valuemin>0</valuemin>
								<valuemax>100</valuemax>
								<value>0</value>
							</parameter>
							<parameter>
								<parameterid>edgefeather</parameterid>
								<name>edgefeather</name>
								<valuemin>0</valuemin>
								<valuemax>100</valuemax>
								<value>0</value>
							</parameter>
						</effect>
					</filter>
					<filter>
						<effect>
							<name>Distort</name>
							<effectid>deformation</effectid>
							<effectcategory>motion</effectcategory>
							<effecttype>motion</effecttype>
							<mediatype>video</mediatype>
							<parameter>
								<parameterid>ulcorner</parameterid>
								<name>Upper Left</name>
								<value>
									<horiz>-0.5</horiz>
									<vert>-0.5</vert>
								</value>
							</parameter>
							<parameter>
								<parameterid>urcorner</parameterid>
								<name>Upper Right</name>
								<value>
									<horiz>0.5</horiz>
									<vert>-0.5</vert>
								</value>
							</parameter>
							<parameter>
								<parameterid>lrcorner</parameterid>
								<name>Lower Right</name>
								<value>
									<horiz>0.5</horiz>
									<vert>0.5</vert>
								</value>
							</parameter>
							<parameter>
								<parameterid>llcorner</parameterid>
								<name>Lower Left</name>
								<value>
									<horiz>-0.5</horiz>
									<vert>0.5</vert>
								</value>
							</parameter>
							<parameter>
								<parameterid>aspect</parameterid>
								<name>Aspect</name>
								<valuemin>-10000</valuemin>
								<valuemax>10000</valuemax>
								<value>0</value>
							</parameter>
						</effect>
					</filter>
					<filter>
						<effect>
							<name>Opacity</name>
							<effectid>opacity</effectid>
							<effectcategory>motion</effectcategory>
							<effecttype>motion</effecttype>
							<mediatype>video</mediatype>
							<parameter>
								<parameterid>opacity</parameterid>
								<name>opacity</name>
								<valuemin>0</valuemin>
								<valuemax>100</valuemax>
								<value>100</value>
							</parameter>
						</effect>
					</filter>
					<sourcetrack>
						<mediatype>video</mediatype>
					</sourcetrack>
					<fielddominance>none</fielddominance>
				</clipitem>
				<transitionitem id="38383084 ">
					<rate>
						<ntsc>FALSE</ntsc>
						<timebase>25</timebase>
					</rate>
					<start>33423</start>
					<end>33431</end>
					<alignment>center</alignment>
					<effect>
						<name>Push Slide</name>
						<effectid>Push Slide</effectid>
						<effectcategory>Slide</effectcategory>
						<effecttype>transition</effecttype>
						<mediatype>video</mediatype>
						<wipecode>1</wipecode>
						<wipeaccuracy>100</wipeaccuracy>
						<startratio>0</startratio>
						<endratio>1</endratio>
						<reverse>FALSE</reverse>
						<parameter>
							<parameterid>angleofpush</parameterid>
							<name>Angle</name>
							<valuemin>-360</valuemin>
							<valuemax>360</valuemax>
							<value>180</value>
						</parameter>
						<parameter>
							<parameterid>borderwidth</parameterid>
							<name>Border</name>
							<valuemin>0</valuemin>
							<valuemax>10</valuemax>
							<value>0</value>
						</parameter>
						<parameter>
							<parameterid>bordercolor</parameterid>
							<name>Color</name>
							<value>
								<alpha>255</alpha>
								<red>0</red>
								<green>0</green>
								<blue>0</blue>
							</value>
						</parameter>
					</effect>
				</transitionitem>
				<transitionitem id="38383900 ">
					<rate>
						<ntsc>FALSE</ntsc>
						<timebase>25</timebase>
					</rate>
					<start>33560</start>
					<end>33568</end>
					<alignment>center</alignment>
					<effect>
						<name>Push Slide</name>
						<effectid>Push Slide</effectid>
						<effectcategory>Slide</effectcategory>
						<effecttype>transition</effecttype>
						<mediatype>video</mediatype>
						<wipecode>1</wipecode>
						<wipeaccuracy>100</wipeaccuracy>
						<startratio>0</startratio>
						<endratio>1</endratio>
						<reverse>FALSE</reverse>
						<parameter>
							<parameterid>angleofpush</parameterid>
							<name>Angle</name>
							<valuemin>-360</valuemin>
							<valuemax>360</valuemax>
							<value>0</value>
						</parameter>
						<parameter>
							<parameterid>borderwidth</parameterid>
							<name>Border</name>
							<valuemin>0</valuemin>
							<valuemax>10</valuemax>
							<value>0</value>
						</parameter>
						<parameter>
							<parameterid>bordercolor</parameterid>
							<name>Color</name>
							<value>
								<alpha>255</alpha>
								<red>0</red>
								<green>0</green>
								<blue>0</blue>
							</value>
						</parameter>
					</effect>
				</transitionitem>
				<clipitem id="Kristine2.png4">
					<name>Kristine2.png</name>
					<duration>4500</duration>
					<rate>
						<ntsc>FALSE</ntsc>
						<timebase>25</timebase>
					</rate>
					<in>2526</in>
					<out>3461</out>
					<start>-1</start>
					<end>34495</end>
					<pixelaspectratio>Square</pixelaspectratio>
					<stillframe>TRUE</stillframe>
					<enabled>TRUE</enabled>
					<anamorphic>FALSE</anamorphic>
					<alphatype>straight</alphatype>
					<masterclipid>Kristine2.png1</masterclipid>
					<logginginfo>
						<scene/>
						<shottake/>
						<lognote/>
						<good>FALSE</good>
					</logginginfo>
					<labels>
						<label2/>
					</labels>
					<comments>
						<mastercomment1/>
						<mastercomment2/>
						<mastercomment3/>
						<mastercomment4/>
					</comments>
					<file id="Kristine2 "/>
					<filter>
						<effect>
							<name>Basic Motion</name>
							<effectid>basic</effectid>
							<effectcategory>motion</effectcategory>
							<effecttype>motion</effecttype>
							<mediatype>video</mediatype>
							<parameter>
								<parameterid>scale</parameterid>
								<name>Scale</name>
								<valuemin>0</valuemin>
								<valuemax>1000</valuemax>
								<value>49</value>
							</parameter>
							<parameter>
								<parameterid>center</parameterid>
								<name>Center</name>
								<value>
									<horiz>-0.0912409</horiz>
									<vert>0.948276</vert>
								</value>
							</parameter>
							<parameter>
								<parameterid>rotation</parameterid>
								<name>Rotation</name>
								<valuemin>-8640</valuemin>
								<valuemax>8640</valuemax>
								<value>0</value>
							</parameter>
							<parameter>
								<parameterid>centerOffset</parameterid>
								<name>Anchor Point</name>
								<value>
									<horiz>0</horiz>
									<vert>0</vert>
								</value>
							</parameter>
						</effect>
					</filter>
					<filter>
						<enabled>FALSE</enabled>
						<effect>
							<name>Drop Shadow</name>
							<effectid>dropshadow</effectid>
							<effectcategory>motion</effectcategory>
							<effecttype>motion</effecttype>
							<mediatype>video</mediatype>
							<parameter>
								<parameterid>offset</parameterid>
								<name>offset</name>
								<valuemin>-100</valuemin>
								<valuemax>100</valuemax>
								<value>2</value>
							</parameter>
							<parameter>
								<parameterid>angle</parameterid>
								<name>angle</name>
								<valuemin>-720</valuemin>
								<valuemax>720</valuemax>
								<value>135</value>
							</parameter>
							<parameter>
								<parameterid>color</parameterid>
								<name>color</name>
								<value>
									<alpha>0</alpha>
									<red>0</red>
									<green>0</green>
									<blue>0</blue>
								</value>
							</parameter>
							<parameter>
								<parameterid>softness</parameterid>
								<name>softness</name>
								<valuemin>0</valuemin>
								<valuemax>100</valuemax>
								<value>10</value>
							</parameter>
							<parameter>
								<parameterid>opacity</parameterid>
								<name>opacity</name>
								<valuemin>0</valuemin>
								<valuemax>100</valuemax>
								<value>50</value>
							</parameter>
						</effect>
					</filter>
					<filter>
						<enabled>FALSE</enabled>
						<effect>
							<name>Motion Blur</name>
							<effectid>motionblur</effectid>
							<effectcategory>motion</effectcategory>
							<effecttype>motion</effecttype>
							<mediatype>video</mediatype>
							<parameter>
								<parameterid>duration</parameterid>
								<name>% Blur</name>
								<valuemin>0</valuemin>
								<valuemax>1000</valuemax>
								<value>500</value>
							</parameter>
							<parameter>
								<parameterid>samples</parameterid>
								<name>Samples</name>
								<valuemin>1</valuemin>
								<valuemax>16</valuemax>
								<value>4</value>
							</parameter>
						</effect>
					</filter>
					<filter>
						<effect>
							<name>Crop</name>
							<effectid>crop</effectid>
							<effectcategory>motion</effectcategory>
							<effecttype>motion</effecttype>
							<mediatype>video</mediatype>
							<parameter>
								<parameterid>left</parameterid>
								<name>left</name>
								<valuemin>0</valuemin>
								<valuemax>100</valuemax>
								<value>0</value>
							</parameter>
							<parameter>
								<parameterid>right</parameterid>
								<name>right</name>
								<valuemin>0</valuemin>
								<valuemax>100</valuemax>
								<value>0</value>
							</parameter>
							<parameter>
								<parameterid>top</parameterid>
								<name>top</name>
								<valuemin>0</valuemin>
								<valuemax>100</valuemax>
								<value>0</value>
							</parameter>
							<parameter>
								<parameterid>bottom</parameterid>
								<name>bottom</name>
								<valuemin>0</valuemin>
								<valuemax>100</valuemax>
								<value>0</value>
							</parameter>
							<parameter>
								<parameterid>edgefeather</parameterid>
								<name>edgefeather</name>
								<valuemin>0</valuemin>
								<valuemax>100</valuemax>
								<value>0</value>
							</parameter>
						</effect>
					</filter>
					<filter>
						<effect>
							<name>Distort</name>
							<effectid>deformation</effectid>
							<effectcategory>motion</effectcategory>
							<effecttype>motion</effecttype>
							<mediatype>video</mediatype>
							<parameter>
								<parameterid>ulcorner</parameterid>
								<name>Upper Left</name>
								<value>
									<horiz>-0.5</horiz>
									<vert>-0.5</vert>
								</value>
							</parameter>
							<parameter>
								<parameterid>urcorner</parameterid>
								<name>Upper Right</name>
								<value>
									<horiz>0.5</horiz>
									<vert>-0.5</vert>
								</value>
							</parameter>
							<parameter>
								<parameterid>lrcorner</parameterid>
								<name>Lower Right</name>
								<value>
									<horiz>0.5</horiz>
									<vert>0.5</vert>
								</value>
							</parameter>
							<parameter>
								<parameterid>llcorner</parameterid>
								<name>Lower Left</name>
								<value>
									<horiz>-0.5</horiz>
									<vert>0.5</vert>
								</value>
							</parameter>
							<parameter>
								<parameterid>aspect</parameterid>
								<name>Aspect</name>
								<valuemin>-10000</valuemin>
								<valuemax>10000</valuemax>
								<value>0</value>
							</parameter>
						</effect>
					</filter>
					<filter>
						<effect>
							<name>Opacity</name>
							<effectid>opacity</effectid>
							<effectcategory>motion</effectcategory>
							<effecttype>motion</effecttype>
							<mediatype>video</mediatype>
							<parameter>
								<parameterid>opacity</parameterid>
								<name>opacity</name>
								<valuemin>0</valuemin>
								<valuemax>100</valuemax>
								<value>100</value>
							</parameter>
						</effect>
					</filter>
					<sourcetrack>
						<mediatype>video</mediatype>
					</sourcetrack>
					<fielddominance>none</fielddominance>
				</clipitem>
				<clipitem id="1.png">
					<name>1.png</name>
					<duration>3026</duration>
					<rate>
						<ntsc>FALSE</ntsc>
						<timebase>25</timebase>
					</rate>
					<in>1530</in>
					<out>1580</out>
					<start>34564</start>
					<end>34614</end>
					<pixelaspectratio>Square</pixelaspectratio>
					<stillframe>TRUE</stillframe>
					<enabled>TRUE</enabled>
					<anamorphic>FALSE</anamorphic>
					<alphatype>straight</alphatype>
					<masterclipid>1.png1</masterclipid>
					<logginginfo>
						<scene/>
						<shottake/>
						<lognote/>
						<good>FALSE</good>
					</logginginfo>
					<labels>
						<label2/>
					</labels>
					<comments>
						<mastercomment1/>
						<mastercomment2/>
						<mastercomment3/>
						<mastercomment4/>
					</comments>
					<file id="1 ">
						<name>1.png</name>
						<pathurl>file://localhost/SuperSAN1/Prosjekter/MSUB20000012%20FIN%20FREDAG/test%20av%20Kristine%20og%20r%C3%B8kla/1.png</pathurl>
						<rate>
							<timebase>25</timebase>
						</rate>
						<duration>2</duration>
						<width>2478</width>
						<height>393</height>
						<media>
							<video>
								<duration>2</duration>
								<stillframe>TRUE</stillframe>
								<samplecharacteristics>
									<width>2478</width>
									<height>393</height>
								</samplecharacteristics>
							</video>
						</media>
					</file>
					<filter>
						<effect>
							<name>Basic Motion</name>
							<effectid>basic</effectid>
							<effectcategory>motion</effectcategory>
							<effecttype>motion</effecttype>
							<mediatype>video</mediatype>
							<parameter>
								<parameterid>scale</parameterid>
								<name>Scale</name>
								<valuemin>0</valuemin>
								<valuemax>1000</valuemax>
								<value>120</value>
							</parameter>
							<parameter>
								<parameterid>center</parameterid>
								<name>Center</name>
								<value>
									<horiz>0.625912</horiz>
									<vert>-0.54023</vert>
								</value>
							</parameter>
							<parameter>
								<parameterid>rotation</parameterid>
								<name>Rotation</name>
								<valuemin>-8640</valuemin>
								<valuemax>8640</valuemax>
								<value>0</value>
							</parameter>
							<parameter>
								<parameterid>centerOffset</parameterid>
								<name>Anchor Point</name>
								<value>
									<horiz>0</horiz>
									<vert>0</vert>
								</value>
							</parameter>
						</effect>
					</filter>
					<filter>
						<enabled>FALSE</enabled>
						<effect>
							<name>Drop Shadow</name>
							<effectid>dropshadow</effectid>
							<effectcategory>motion</effectcategory>
							<effecttype>motion</effecttype>
							<mediatype>video</mediatype>
							<parameter>
								<parameterid>offset</parameterid>
								<name>offset</name>
								<valuemin>-100</valuemin>
								<valuemax>100</valuemax>
								<value>2</value>
							</parameter>
							<parameter>
								<parameterid>angle</parameterid>
								<name>angle</name>
								<valuemin>-720</valuemin>
								<valuemax>720</valuemax>
								<value>135</value>
							</parameter>
							<parameter>
								<parameterid>color</parameterid>
								<name>color</name>
								<value>
									<alpha>0</alpha>
									<red>0</red>
									<green>0</green>
									<blue>0</blue>
								</value>
							</parameter>
							<parameter>
								<parameterid>softness</parameterid>
								<name>softness</name>
								<valuemin>0</valuemin>
								<valuemax>100</valuemax>
								<value>10</value>
							</parameter>
							<parameter>
								<parameterid>opacity</parameterid>
								<name>opacity</name>
								<valuemin>0</valuemin>
								<valuemax>100</valuemax>
								<value>50</value>
							</parameter>
						</effect>
					</filter>
					<filter>
						<enabled>FALSE</enabled>
						<effect>
							<name>Motion Blur</name>
							<effectid>motionblur</effectid>
							<effectcategory>motion</effectcategory>
							<effecttype>motion</effecttype>
							<mediatype>video</mediatype>
							<parameter>
								<parameterid>duration</parameterid>
								<name>% Blur</name>
								<valuemin>0</valuemin>
								<valuemax>1000</valuemax>
								<value>500</value>
							</parameter>
							<parameter>
								<parameterid>samples</parameterid>
								<name>Samples</name>
								<valuemin>1</valuemin>
								<valuemax>16</valuemax>
								<value>4</value>
							</parameter>
						</effect>
					</filter>
					<filter>
						<effect>
							<name>Crop</name>
							<effectid>crop</effectid>
							<effectcategory>motion</effectcategory>
							<effecttype>motion</effecttype>
							<mediatype>video</mediatype>
							<parameter>
								<parameterid>left</parameterid>
								<name>left</name>
								<valuemin>0</valuemin>
								<valuemax>100</valuemax>
								<value>0</value>
							</parameter>
							<parameter>
								<parameterid>right</parameterid>
								<name>right</name>
								<valuemin>0</valuemin>
								<valuemax>100</valuemax>
								<value>0</value>
							</parameter>
							<parameter>
								<parameterid>top</parameterid>
								<name>top</name>
								<valuemin>0</valuemin>
								<valuemax>100</valuemax>
								<value>0</value>
							</parameter>
							<parameter>
								<parameterid>bottom</parameterid>
								<name>bottom</name>
								<valuemin>0</valuemin>
								<valuemax>100</valuemax>
								<value>0</value>
							</parameter>
							<parameter>
								<parameterid>edgefeather</parameterid>
								<name>edgefeather</name>
								<valuemin>0</valuemin>
								<valuemax>100</valuemax>
								<value>0</value>
							</parameter>
						</effect>
					</filter>
					<filter>
						<effect>
							<name>Distort</name>
							<effectid>deformation</effectid>
							<effectcategory>motion</effectcategory>
							<effecttype>motion</effecttype>
							<mediatype>video</mediatype>
							<parameter>
								<parameterid>ulcorner</parameterid>
								<name>Upper Left</name>
								<value>
									<horiz>-0.5</horiz>
									<vert>-0.5</vert>
								</value>
							</parameter>
							<parameter>
								<parameterid>urcorner</parameterid>
								<name>Upper Right</name>
								<value>
									<horiz>0.5</horiz>
									<vert>-0.5</vert>
								</value>
							</parameter>
							<parameter>
								<parameterid>lrcorner</parameterid>
								<name>Lower Right</name>
								<value>
									<horiz>0.5</horiz>
									<vert>0.5</vert>
								</value>
							</parameter>
							<parameter>
								<parameterid>llcorner</parameterid>
								<name>Lower Left</name>
								<value>
									<horiz>-0.5</horiz>
									<vert>0.5</vert>
								</value>
							</parameter>
							<parameter>
								<parameterid>aspect</parameterid>
								<name>Aspect</name>
								<valuemin>-10000</valuemin>
								<valuemax>10000</valuemax>
								<value>0</value>
							</parameter>
						</effect>
					</filter>
					<filter>
						<effect>
							<name>Opacity</name>
							<effectid>opacity</effectid>
							<effectcategory>motion</effectcategory>
							<effecttype>motion</effecttype>
							<mediatype>video</mediatype>
							<parameter>
								<parameterid>opacity</parameterid>
								<name>opacity</name>
								<valuemin>0</valuemin>
								<valuemax>100</valuemax>
								<value>100</value>
							</parameter>
						</effect>
					</filter>
					<sourcetrack>
						<mediatype>video</mediatype>
					</sourcetrack>
					<fielddominance>none</fielddominance>
				</clipitem>
				<enabled>TRUE</enabled>
				<locked>FALSE</locked>
			</track>
			<track>
				<transitionitem id="38389136 ">
					<rate>
						<ntsc>FALSE</ntsc>
						<timebase>25</timebase>
					</rate>
					<start>32530</start>
					<end>32538</end>
					<alignment>center</alignment>
					<effect>
						<name>Push Slide</name>
						<effectid>Push Slide</effectid>
						<effectcategory>Slide</effectcategory>
						<effecttype>transition</effecttype>
						<mediatype>video</mediatype>
						<wipecode>1</wipecode>
						<wipeaccuracy>100</wipeaccuracy>
						<startratio>0</startratio>
						<endratio>1</endratio>
						<reverse>FALSE</reverse>
						<parameter>
							<parameterid>angleofpush</parameterid>
							<name>Angle</name>
							<valuemin>-360</valuemin>
							<valuemax>360</valuemax>
							<value>180</value>
						</parameter>
						<parameter>
							<parameterid>borderwidth</parameterid>
							<name>Border</name>
							<valuemin>0</valuemin>
							<valuemax>10</valuemax>
							<value>0</value>
						</parameter>
						<parameter>
							<parameterid>bordercolor</parameterid>
							<name>Color</name>
							<value>
								<alpha>255</alpha>
								<red>0</red>
								<green>0</green>
								<blue>0</blue>
							</value>
						</parameter>
					</effect>
				</transitionitem>
				<clipitem id="Vignett test kvsR MASTER-Scoreboard-0.png">
					<name>Vignett test kvsR MASTER-Scoreboard-0.png</name>
					<duration>4500</duration>
					<rate>
						<ntsc>FALSE</ntsc>
						<timebase>25</timebase>
					</rate>
					<in>1496</in>
					<out>1760</out>
					<start>-1</start>
					<end>32794</end>
					<pixelaspectratio>Square</pixelaspectratio>
					<stillframe>TRUE</stillframe>
					<enabled>TRUE</enabled>
					<anamorphic>FALSE</anamorphic>
					<alphatype>straight</alphatype>
					<masterclipid>Vignett test kvsR MASTER-Scoreboard-0.png1</masterclipid>
					<logginginfo>
						<scene/>
						<shottake/>
						<lognote/>
						<good>FALSE</good>
					</logginginfo>
					<labels>
						<label2/>
					</labels>
					<comments>
						<mastercomment1/>
						<mastercomment2/>
						<mastercomment3/>
						<mastercomment4/>
					</comments>
					<file id="Vignett test kvsR MASTER-Scoreboard-0 ">
						<name>Vignett test kvsR MASTER-Scoreboard-0.png</name>
						<pathurl>file://localhost/SuperSAN1/Prosjekter/MSUB20000012%20FIN%20FREDAG/FCP-PROSJEKTER,%20sesong%202/program%201%20Jenny/Vignette-Kristine_VS_Roekla-2013/Kristine_VS_Jenny/Stills_Elementer-Kristine_VS_Jenny/Scoreboard%20grafikk/Vignett%20test%20kvsR%20MASTER-Scoreboard-0.png</pathurl>
						<rate>
							<timebase>25</timebase>
						</rate>
						<duration>2</duration>
						<width>1920</width>
						<height>1080</height>
						<media>
							<video>
								<duration>2</duration>
								<stillframe>TRUE</stillframe>
								<samplecharacteristics>
									<width>1920</width>
									<height>1080</height>
								</samplecharacteristics>
							</video>
						</media>
					</file>
					<filter>
						<effect>
							<name>Basic Motion</name>
							<effectid>basic</effectid>
							<effectcategory>motion</effectcategory>
							<effecttype>motion</effecttype>
							<mediatype>video</mediatype>
							<parameter>
								<parameterid>scale</parameterid>
								<name>Scale</name>
								<valuemin>0</valuemin>
								<valuemax>1000</valuemax>
								<value>100</value>
							</parameter>
							<parameter>
								<parameterid>rotation</parameterid>
								<name>Rotation</name>
								<valuemin>-8640</valuemin>
								<valuemax>8640</valuemax>
								<value>0</value>
							</parameter>
							<parameter>
								<parameterid>center</parameterid>
								<name>Center</name>
								<value>
									<horiz>0</horiz>
									<vert>0</vert>
								</value>
							</parameter>
							<parameter>
								<parameterid>centerOffset</parameterid>
								<name>Anchor Point</name>
								<value>
									<horiz>0</horiz>
									<vert>0</vert>
								</value>
							</parameter>
						</effect>
					</filter>
					<filter>
						<enabled>FALSE</enabled>
						<effect>
							<name>Drop Shadow</name>
							<effectid>dropshadow</effectid>
							<effectcategory>motion</effectcategory>
							<effecttype>motion</effecttype>
							<mediatype>video</mediatype>
							<parameter>
								<parameterid>offset</parameterid>
								<name>offset</name>
								<valuemin>-100</valuemin>
								<valuemax>100</valuemax>
								<value>2</value>
							</parameter>
							<parameter>
								<parameterid>angle</parameterid>
								<name>angle</name>
								<valuemin>-720</valuemin>
								<valuemax>720</valuemax>
								<value>135</value>
							</parameter>
							<parameter>
								<parameterid>color</parameterid>
								<name>color</name>
								<value>
									<alpha>0</alpha>
									<red>0</red>
									<green>0</green>
									<blue>0</blue>
								</value>
							</parameter>
							<parameter>
								<parameterid>softness</parameterid>
								<name>softness</name>
								<valuemin>0</valuemin>
								<valuemax>100</valuemax>
								<value>10</value>
							</parameter>
							<parameter>
								<parameterid>opacity</parameterid>
								<name>opacity</name>
								<valuemin>0</valuemin>
								<valuemax>100</valuemax>
								<value>50</value>
							</parameter>
						</effect>
					</filter>
					<filter>
						<enabled>FALSE</enabled>
						<effect>
							<name>Motion Blur</name>
							<effectid>motionblur</effectid>
							<effectcategory>motion</effectcategory>
							<effecttype>motion</effecttype>
							<mediatype>video</mediatype>
							<parameter>
								<parameterid>duration</parameterid>
								<name>% Blur</name>
								<valuemin>0</valuemin>
								<valuemax>1000</valuemax>
								<value>500</value>
							</parameter>
							<parameter>
								<parameterid>samples</parameterid>
								<name>Samples</name>
								<valuemin>1</valuemin>
								<valuemax>16</valuemax>
								<value>4</value>
							</parameter>
						</effect>
					</filter>
					<filter>
						<effect>
							<name>Crop</name>
							<effectid>crop</effectid>
							<effectcategory>motion</effectcategory>
							<effecttype>motion</effecttype>
							<mediatype>video</mediatype>
							<parameter>
								<parameterid>left</parameterid>
								<name>left</name>
								<valuemin>0</valuemin>
								<valuemax>100</valuemax>
								<value>0</value>
							</parameter>
							<parameter>
								<parameterid>right</parameterid>
								<name>right</name>
								<valuemin>0</valuemin>
								<valuemax>100</valuemax>
								<value>0</value>
							</parameter>
							<parameter>
								<parameterid>top</parameterid>
								<name>top</name>
								<valuemin>0</valuemin>
								<valuemax>100</valuemax>
								<value>0</value>
							</parameter>
							<parameter>
								<parameterid>bottom</parameterid>
								<name>bottom</name>
								<valuemin>0</valuemin>
								<valuemax>100</valuemax>
								<value>0</value>
							</parameter>
							<parameter>
								<parameterid>edgefeather</parameterid>
								<name>edgefeather</name>
								<valuemin>0</valuemin>
								<valuemax>100</valuemax>
								<value>0</value>
							</parameter>
						</effect>
					</filter>
					<filter>
						<effect>
							<name>Distort</name>
							<effectid>deformation</effectid>
							<effectcategory>motion</effectcategory>
							<effecttype>motion</effecttype>
							<mediatype>video</mediatype>
							<parameter>
								<parameterid>ulcorner</parameterid>
								<name>Upper Left</name>
								<value>
									<horiz>-0.5</horiz>
									<vert>-0.5</vert>
								</value>
							</parameter>
							<parameter>
								<parameterid>urcorner</parameterid>
								<name>Upper Right</name>
								<value>
									<horiz>0.5</horiz>
									<vert>-0.5</vert>
								</value>
							</parameter>
							<parameter>
								<parameterid>lrcorner</parameterid>
								<name>Lower Right</name>
								<value>
									<horiz>0.5</horiz>
									<vert>0.5</vert>
								</value>
							</parameter>
							<parameter>
								<parameterid>llcorner</parameterid>
								<name>Lower Left</name>
								<value>
									<horiz>-0.5</horiz>
									<vert>0.5</vert>
								</value>
							</parameter>
							<parameter>
								<parameterid>aspect</parameterid>
								<name>Aspect</name>
								<valuemin>-10000</valuemin>
								<valuemax>10000</valuemax>
								<value>0</value>
							</parameter>
						</effect>
					</filter>
					<filter>
						<effect>
							<name>Opacity</name>
							<effectid>opacity</effectid>
							<effectcategory>motion</effectcategory>
							<effecttype>motion</effecttype>
							<mediatype>video</mediatype>
							<parameter>
								<parameterid>opacity</parameterid>
								<name>opacity</name>
								<valuemin>0</valuemin>
								<valuemax>100</valuemax>
								<value>100</value>
							</parameter>
						</effect>
					</filter>
					<sourcetrack>
						<mediatype>video</mediatype>
					</sourcetrack>
					<fielddominance>none</fielddominance>
				</clipitem>
				<clipitem id="Vignett test kvsR MASTER-Scoreboard-Kg1.png">
					<name>Vignett test kvsR MASTER-Scoreboard-Kg1.png</name>
					<duration>3026</duration>
					<rate>
						<ntsc>FALSE</ntsc>
						<timebase>25</timebase>
					</rate>
					<in>1508</in>
					<out>1872</out>
					<start>32794</start>
					<end>33158</end>
					<pixelaspectratio>Square</pixelaspectratio>
					<stillframe>TRUE</stillframe>
					<anamorphic>FALSE</anamorphic>
					<alphatype>straight</alphatype>
					<masterclipid>Vignett test kvsR MASTER-Scoreboard-Kg1.png1</masterclipid>
					<logginginfo>
						<scene/>
						<shottake/>
						<lognote/>
						<good>FALSE</good>
					</logginginfo>
					<labels>
						<label2/>
					</labels>
					<comments>
						<mastercomment1/>
						<mastercomment2/>
						<mastercomment3/>
						<mastercomment4/>
					</comments>
					<file id="Vignett test kvsR MASTER-Scoreboard-Kg1 ">
						<name>Vignett test kvsR MASTER-Scoreboard-Kg1.png</name>
						<pathurl>file://localhost/SuperSAN1/Prosjekter/MSUB20000012%20FIN%20FREDAG/FCP-PROSJEKTER,%20sesong%202/program%201%20Jenny/Vignette-Kristine_VS_Roekla-2013/Kristine_VS_Jenny/Stills_Elementer-Kristine_VS_Jenny/Scoreboard%20grafikk/Vignett%20test%20kvsR%20MASTER-Scoreboard-Kg1.png</pathurl>
						<rate>
							<timebase>25</timebase>
						</rate>
						<duration>2</duration>
						<width>1920</width>
						<height>1080</height>
						<media>
							<video>
								<duration>2</duration>
								<stillframe>TRUE</stillframe>
								<samplecharacteristics>
									<width>1920</width>
									<height>1080</height>
								</samplecharacteristics>
							</video>
						</media>
					</file>
					<sourcetrack>
						<mediatype>video</mediatype>
					</sourcetrack>
					<fielddominance>none</fielddominance>
				</clipitem>
				<clipitem id="Vignett test kvsR MASTER-Scoreboard-2.png">
					<name>Vignett test kvsR MASTER-Scoreboard-2.png</name>
					<duration>3026</duration>
					<rate>
						<ntsc>FALSE</ntsc>
						<timebase>25</timebase>
					</rate>
					<in>1498</in>
					<out>1642</out>
					<start>33158</start>
					<end>33302</end>
					<pixelaspectratio>Square</pixelaspectratio>
					<stillframe>TRUE</stillframe>
					<enabled>TRUE</enabled>
					<anamorphic>FALSE</anamorphic>
					<alphatype>straight</alphatype>
					<masterclipid>Vignett test kvsR MASTER-Scoreboard-2.png1</masterclipid>
					<logginginfo>
						<scene/>
						<shottake/>
						<lognote/>
						<good>FALSE</good>
					</logginginfo>
					<labels>
						<label2/>
					</labels>
					<comments>
						<mastercomment1/>
						<mastercomment2/>
						<mastercomment3/>
						<mastercomment4/>
					</comments>
					<file id="Vignett test kvsR MASTER-Scoreboard-2 ">
						<name>Vignett test kvsR MASTER-Scoreboard-2.png</name>
						<pathurl>file://localhost/SuperSAN1/Prosjekter/MSUB20000012%20FIN%20FREDAG/FCP-PROSJEKTER,%20sesong%202/program%201%20Jenny/Vignette-Kristine_VS_Roekla-2013/Kristine_VS_Jenny/Stills_Elementer-Kristine_VS_Jenny/Scoreboard%20grafikk/Vignett%20test%20kvsR%20MASTER-Scoreboard-2.png</pathurl>
						<rate>
							<timebase>25</timebase>
						</rate>
						<duration>2</duration>
						<width>1920</width>
						<height>1080</height>
						<media>
							<video>
								<duration>2</duration>
								<stillframe>TRUE</stillframe>
								<samplecharacteristics>
									<width>1920</width>
									<height>1080</height>
								</samplecharacteristics>
							</video>
						</media>
					</file>
					<sourcetrack>
						<mediatype>video</mediatype>
					</sourcetrack>
					<fielddominance>none</fielddominance>
				</clipitem>
				<clipitem id="Vignett test kvsR MASTER-Scoreboard-3.png">
					<name>Vignett test kvsR MASTER-Scoreboard-3.png</name>
					<duration>3026</duration>
					<rate>
						<ntsc>FALSE</ntsc>
						<timebase>25</timebase>
					</rate>
					<in>1500</in>
					<out>1628</out>
					<start>33302</start>
					<end>-1</end>
					<pixelaspectratio>Square</pixelaspectratio>
					<stillframe>TRUE</stillframe>
					<enabled>TRUE</enabled>
					<anamorphic>FALSE</anamorphic>
					<alphatype>straight</alphatype>
					<masterclipid>Vignett test kvsR MASTER-Scoreboard-3.png1</masterclipid>
					<logginginfo>
						<scene/>
						<shottake/>
						<lognote/>
						<good>FALSE</good>
					</logginginfo>
					<labels>
						<label2/>
					</labels>
					<comments>
						<mastercomment1/>
						<mastercomment2/>
						<mastercomment3/>
						<mastercomment4/>
					</comments>
					<file id="Vignett test kvsR MASTER-Scoreboard-3 ">
						<name>Vignett test kvsR MASTER-Scoreboard-3.png</name>
						<pathurl>file://localhost/SuperSAN1/Prosjekter/MSUB20000012%20FIN%20FREDAG/FCP-PROSJEKTER,%20sesong%202/program%201%20Jenny/Vignette-Kristine_VS_Roekla-2013/Kristine_VS_Jenny/Stills_Elementer-Kristine_VS_Jenny/Scoreboard%20grafikk/Vignett%20test%20kvsR%20MASTER-Scoreboard-3.png</pathurl>
						<rate>
							<timebase>25</timebase>
						</rate>
						<duration>2</duration>
						<width>1920</width>
						<height>1080</height>
						<media>
							<video>
								<duration>2</duration>
								<stillframe>TRUE</stillframe>
								<samplecharacteristics>
									<width>1920</width>
									<height>1080</height>
								</samplecharacteristics>
							</video>
						</media>
					</file>
					<sourcetrack>
						<mediatype>video</mediatype>
					</sourcetrack>
					<fielddominance>none</fielddominance>
				</clipitem>
				<transitionitem id="38435028 ">
					<rate>
						<ntsc>FALSE</ntsc>
						<timebase>25</timebase>
					</rate>
					<start>33422</start>
					<end>33430</end>
					<alignment>center</alignment>
					<effect>
						<name>Push Slide</name>
						<effectid>Push Slide</effectid>
						<effectcategory>Slide</effectcategory>
						<effecttype>transition</effecttype>
						<mediatype>video</mediatype>
						<wipecode>1</wipecode>
						<wipeaccuracy>100</wipeaccuracy>
						<startratio>0</startratio>
						<endratio>1</endratio>
						<reverse>FALSE</reverse>
						<parameter>
							<parameterid>angleofpush</parameterid>
							<name>Angle</name>
							<valuemin>-360</valuemin>
							<valuemax>360</valuemax>
							<value>180</value>
						</parameter>
						<parameter>
							<parameterid>borderwidth</parameterid>
							<name>Border</name>
							<valuemin>0</valuemin>
							<valuemax>10</valuemax>
							<value>0</value>
						</parameter>
						<parameter>
							<parameterid>bordercolor</parameterid>
							<name>Color</name>
							<value>
								<alpha>255</alpha>
								<red>0</red>
								<green>0</green>
								<blue>0</blue>
							</value>
						</parameter>
					</effect>
				</transitionitem>
				<transitionitem id="38435844 ">
					<rate>
						<ntsc>FALSE</ntsc>
						<timebase>25</timebase>
					</rate>
					<start>33560</start>
					<end>33568</end>
					<alignment>start-black</alignment>
					<effect>
						<name>Push Slide</name>
						<effectid>Push Slide</effectid>
						<effectcategory>Slide</effectcategory>
						<effecttype>transition</effecttype>
						<mediatype>video</mediatype>
						<wipecode>1</wipecode>
						<wipeaccuracy>100</wipeaccuracy>
						<startratio>0</startratio>
						<endratio>1</endratio>
						<reverse>FALSE</reverse>
						<parameter>
							<parameterid>angleofpush</parameterid>
							<name>Angle</name>
							<valuemin>-360</valuemin>
							<valuemax>360</valuemax>
							<value>0</value>
						</parameter>
						<parameter>
							<parameterid>borderwidth</parameterid>
							<name>Border</name>
							<valuemin>0</valuemin>
							<valuemax>10</valuemax>
							<value>0</value>
						</parameter>
						<parameter>
							<parameterid>bordercolor</parameterid>
							<name>Color</name>
							<value>
								<alpha>255</alpha>
								<red>0</red>
								<green>0</green>
								<blue>0</blue>
							</value>
						</parameter>
					</effect>
				</transitionitem>
				<clipitem id="Vignett test kvsR MASTER-Scoreboard-3.png2">
					<name>Vignett test kvsR MASTER-Scoreboard-3.png</name>
					<duration>3026</duration>
					<rate>
						<ntsc>FALSE</ntsc>
						<timebase>25</timebase>
					</rate>
					<in>1500</in>
					<out>1631</out>
					<start>-1</start>
					<end>33691</end>
					<pixelaspectratio>Square</pixelaspectratio>
					<stillframe>TRUE</stillframe>
					<enabled>TRUE</enabled>
					<anamorphic>FALSE</anamorphic>
					<alphatype>straight</alphatype>
					<masterclipid>Vignett test kvsR MASTER-Scoreboard-3.png1</masterclipid>
					<logginginfo>
						<scene/>
						<shottake/>
						<lognote/>
						<good>FALSE</good>
					</logginginfo>
					<labels>
						<label2/>
					</labels>
					<comments>
						<mastercomment1/>
						<mastercomment2/>
						<mastercomment3/>
						<mastercomment4/>
					</comments>
					<file id="Vignett test kvsR MASTER-Scoreboard-3 "/>
					<sourcetrack>
						<mediatype>video</mediatype>
					</sourcetrack>
					<fielddominance>none</fielddominance>
				</clipitem>
				<clipitem id="Vignett test kvsR MASTER-Scoreboard-3-1 copy.png">
					<name>Vignett test kvsR MASTER-Scoreboard-3-1 copy.png</name>
					<duration>3026</duration>
					<rate>
						<ntsc>FALSE</ntsc>
						<timebase>25</timebase>
					</rate>
					<in>1517</in>
					<out>1665</out>
					<start>33691</start>
					<end>33839</end>
					<pixelaspectratio>Square</pixelaspectratio>
					<stillframe>TRUE</stillframe>
					<enabled>TRUE</enabled>
					<anamorphic>FALSE</anamorphic>
					<alphatype>straight</alphatype>
					<masterclipid>Vignett test kvsR MASTER-Scoreboard-3-1 copy.png1</masterclipid>
					<logginginfo>
						<scene/>
						<shottake/>
						<lognote/>
						<good>FALSE</good>
					</logginginfo>
					<labels>
						<label2/>
					</labels>
					<comments>
						<mastercomment1/>
						<mastercomment2/>
						<mastercomment3/>
						<mastercomment4/>
					</comments>
					<file id="Vignett test kvsR MASTER-Scoreboard-3-1 copy">
						<name>Vignett test kvsR MASTER-Scoreboard-3-1 copy.png</name>
						<pathurl>file://localhost/SuperSAN1/Prosjekter/MSUB20000012%20FIN%20FREDAG/FCP-PROSJEKTER,%20sesong%202/program%201%20Jenny/Vignette-Kristine_VS_Roekla-2013/Kristine_VS_Jenny/Stills_Elementer-Kristine_VS_Jenny/Scoreboard%20grafikk/Vignett%20test%20kvsR%20MASTER-Scoreboard-3-1%20copy.png</pathurl>
						<rate>
							<timebase>25</timebase>
						</rate>
						<duration>2</duration>
						<width>1920</width>
						<height>1080</height>
						<media>
							<video>
								<duration>2</duration>
								<stillframe>TRUE</stillframe>
								<samplecharacteristics>
									<width>1920</width>
									<height>1080</height>
								</samplecharacteristics>
							</video>
						</media>
					</file>
					<sourcetrack>
						<mediatype>video</mediatype>
					</sourcetrack>
					<fielddominance>none</fielddominance>
				</clipitem>
				<clipitem id="Vignett test kvsR MASTER-Scoreboard-3-2.png">
					<name>Vignett test kvsR MASTER-Scoreboard-3-2.png</name>
					<duration>3026</duration>
					<rate>
						<ntsc>FALSE</ntsc>
						<timebase>25</timebase>
					</rate>
					<in>1500</in>
					<out>1648</out>
					<start>33839</start>
					<end>33987</end>
					<pixelaspectratio>Square</pixelaspectratio>
					<stillframe>TRUE</stillframe>
					<enabled>TRUE</enabled>
					<anamorphic>FALSE</anamorphic>
					<alphatype>straight</alphatype>
					<masterclipid>Vignett test kvsR MASTER-Scoreboard-3-2.png1</masterclipid>
					<logginginfo>
						<scene/>
						<shottake/>
						<lognote/>
						<good>FALSE</good>
					</logginginfo>
					<labels>
						<label2/>
					</labels>
					<comments>
						<mastercomment1/>
						<mastercomment2/>
						<mastercomment3/>
						<mastercomment4/>
					</comments>
					<file id="Vignett test kvsR MASTER-Scoreboard-3-2 ">
						<name>Vignett test kvsR MASTER-Scoreboard-3-2.png</name>
						<pathurl>file://localhost/SuperSAN1/Prosjekter/MSUB20000012%20FIN%20FREDAG/FCP-PROSJEKTER,%20sesong%202/program%201%20Jenny/Vignette-Kristine_VS_Roekla-2013/Kristine_VS_Jenny/Stills_Elementer-Kristine_VS_Jenny/Scoreboard%20grafikk/Vignett%20test%20kvsR%20MASTER-Scoreboard-3-2.png</pathurl>
						<rate>
							<timebase>25</timebase>
						</rate>
						<duration>2</duration>
						<width>1920</width>
						<height>1080</height>
						<media>
							<video>
								<duration>2</duration>
								<stillframe>TRUE</stillframe>
								<samplecharacteristics>
									<width>1920</width>
									<height>1080</height>
								</samplecharacteristics>
							</video>
						</media>
					</file>
					<sourcetrack>
						<mediatype>video</mediatype>
					</sourcetrack>
					<fielddominance>none</fielddominance>
				</clipitem>
				<clipitem id="Vignett test kvsR MASTER-Scoreboard-3-3.png">
					<name>Vignett test kvsR MASTER-Scoreboard-3-3.png</name>
					<duration>3026</duration>
					<rate>
						<ntsc>FALSE</ntsc>
						<timebase>25</timebase>
					</rate>
					<in>1525</in>
					<out>1656</out>
					<start>33987</start>
					<end>34118</end>
					<pixelaspectratio>Square</pixelaspectratio>
					<stillframe>TRUE</stillframe>
					<enabled>TRUE</enabled>
					<anamorphic>FALSE</anamorphic>
					<alphatype>straight</alphatype>
					<masterclipid>Vignett test kvsR MASTER-Scoreboard-3-3.png1</masterclipid>
					<logginginfo>
						<scene/>
						<shottake/>
						<lognote/>
						<good>FALSE</good>
					</logginginfo>
					<labels>
						<label2/>
					</labels>
					<comments>
						<mastercomment1/>
						<mastercomment2/>
						<mastercomment3/>
						<mastercomment4/>
					</comments>
					<file id="Vignett test kvsR MASTER-Scoreboard-3-3 ">
						<name>Vignett test kvsR MASTER-Scoreboard-3-3.png</name>
						<pathurl>file://localhost/SuperSAN1/Prosjekter/MSUB20000012%20FIN%20FREDAG/FCP-PROSJEKTER,%20sesong%202/program%201%20Jenny/Vignette-Kristine_VS_Roekla-2013/Kristine_VS_Jenny/Stills_Elementer-Kristine_VS_Jenny/Scoreboard%20grafikk/Vignett%20test%20kvsR%20MASTER-Scoreboard-3-3.png</pathurl>
						<rate>
							<timebase>25</timebase>
						</rate>
						<duration>2</duration>
						<width>1920</width>
						<height>1080</height>
						<media>
							<video>
								<duration>2</duration>
								<stillframe>TRUE</stillframe>
								<samplecharacteristics>
									<width>1920</width>
									<height>1080</height>
								</samplecharacteristics>
							</video>
						</media>
					</file>
					<sourcetrack>
						<mediatype>video</mediatype>
					</sourcetrack>
					<fielddominance>none</fielddominance>
				</clipitem>
				<clipitem id="Vignett test kvsR MASTER-Scoreboard-4-3.png">
					<name>Vignett test kvsR MASTER-Scoreboard-4-3.png</name>
					<duration>3026</duration>
					<rate>
						<ntsc>FALSE</ntsc>
						<timebase>25</timebase>
					</rate>
					<in>1500</in>
					<out>1680</out>
					<start>34118</start>
					<end>34298</end>
					<pixelaspectratio>Square</pixelaspectratio>
					<stillframe>TRUE</stillframe>
					<enabled>TRUE</enabled>
					<anamorphic>FALSE</anamorphic>
					<alphatype>straight</alphatype>
					<masterclipid>Vignett test kvsR MASTER-Scoreboard-4-3.png1</masterclipid>
					<logginginfo>
						<scene/>
						<shottake/>
						<lognote/>
						<good>FALSE</good>
					</logginginfo>
					<labels>
						<label2/>
					</labels>
					<comments>
						<mastercomment1/>
						<mastercomment2/>
						<mastercomment3/>
						<mastercomment4/>
					</comments>
					<file id="Vignett test kvsR MASTER-Scoreboard-4-3 ">
						<name>Vignett test kvsR MASTER-Scoreboard-4-3.png</name>
						<pathurl>file://localhost/SuperSAN1/Prosjekter/MSUB20000012%20FIN%20FREDAG/FCP-PROSJEKTER,%20sesong%202/program%201%20Jenny/Vignette-Kristine_VS_Roekla-2013/Kristine_VS_Jenny/Stills_Elementer-Kristine_VS_Jenny/Scoreboard%20grafikk/Vignett%20test%20kvsR%20MASTER-Scoreboard-4-3.png</pathurl>
						<rate>
							<timebase>25</timebase>
						</rate>
						<duration>2</duration>
						<width>1920</width>
						<height>1080</height>
						<media>
							<video>
								<duration>2</duration>
								<stillframe>TRUE</stillframe>
								<samplecharacteristics>
									<width>1920</width>
									<height>1080</height>
								</samplecharacteristics>
							</video>
						</media>
					</file>
					<sourcetrack>
						<mediatype>video</mediatype>
					</sourcetrack>
					<fielddominance>none</fielddominance>
				</clipitem>
				<clipitem id="Vignett test kvsR MASTER-Scoreboard-4W-4.png">
					<name>Vignett test kvsR MASTER-Scoreboard-4W-4.png</name>
					<duration>3026</duration>
					<rate>
						<ntsc>FALSE</ntsc>
						<timebase>25</timebase>
					</rate>
					<in>1495</in>
					<out>1692</out>
					<start>34298</start>
					<end>34495</end>
					<pixelaspectratio>Square</pixelaspectratio>
					<stillframe>TRUE</stillframe>
					<enabled>TRUE</enabled>
					<anamorphic>FALSE</anamorphic>
					<alphatype>straight</alphatype>
					<masterclipid>Vignett test kvsR MASTER-Scoreboard-4W-4.png1</masterclipid>
					<logginginfo>
						<scene/>
						<shottake/>
						<lognote/>
						<good>FALSE</good>
					</logginginfo>
					<labels>
						<label2/>
					</labels>
					<comments>
						<mastercomment1/>
						<mastercomment2/>
						<mastercomment3/>
						<mastercomment4/>
					</comments>
					<file id="Vignett test kvsR MASTER-Scoreboard-4W-4 ">
						<name>Vignett test kvsR MASTER-Scoreboard-4W-4.png</name>
						<pathurl>file://localhost/SuperSAN1/Prosjekter/MSUB20000012%20FIN%20FREDAG/FCP-PROSJEKTER,%20sesong%202/program%201%20Jenny/Vignette-Kristine_VS_Roekla-2013/Kristine_VS_Jenny/Stills_Elementer-Kristine_VS_Jenny/Scoreboard%20grafikk/Vignett%20test%20kvsR%20MASTER-Scoreboard-4W-4.png</pathurl>
						<rate>
							<timebase>25</timebase>
						</rate>
						<duration>2</duration>
						<width>1920</width>
						<height>1080</height>
						<media>
							<video>
								<duration>2</duration>
								<stillframe>TRUE</stillframe>
								<samplecharacteristics>
									<width>1920</width>
									<height>1080</height>
								</samplecharacteristics>
							</video>
						</media>
					</file>
					<sourcetrack>
						<mediatype>video</mediatype>
					</sourcetrack>
					<fielddominance>none</fielddominance>
				</clipitem>
				<transitionitem id="38437884 ">
					<rate>
						<ntsc>FALSE</ntsc>
						<timebase>25</timebase>
					</rate>
					<start>34544</start>
					<end>34550</end>
					<alignment>start-black</alignment>
					<effect>
						<name>Push Slide</name>
						<effectid>Push Slide</effectid>
						<effectcategory>Slide</effectcategory>
						<effecttype>transition</effecttype>
						<mediatype>video</mediatype>
						<wipecode>1</wipecode>
						<wipeaccuracy>100</wipeaccuracy>
						<startratio>0</startratio>
						<endratio>1</endratio>
						<reverse>FALSE</reverse>
						<parameter>
							<parameterid>angleofpush</parameterid>
							<name>Angle</name>
							<valuemin>-360</valuemin>
							<valuemax>360</valuemax>
							<value>0</value>
						</parameter>
						<parameter>
							<parameterid>borderwidth</parameterid>
							<name>Border</name>
							<valuemin>0</valuemin>
							<valuemax>10</valuemax>
							<value>0</value>
						</parameter>
						<parameter>
							<parameterid>bordercolor</parameterid>
							<name>Color</name>
							<value>
								<alpha>255</alpha>
								<red>0</red>
								<green>0</green>
								<blue>0</blue>
							</value>
						</parameter>
					</effect>
				</transitionitem>
				<clipitem id="0.png">
					<name>0.png</name>
					<duration>3026</duration>
					<rate>
						<ntsc>FALSE</ntsc>
						<timebase>25</timebase>
					</rate>
					<in>1498</in>
					<out>1519</out>
					<start>-1</start>
					<end>34565</end>
					<pixelaspectratio>Square</pixelaspectratio>
					<stillframe>TRUE</stillframe>
					<enabled>TRUE</enabled>
					<anamorphic>FALSE</anamorphic>
					<alphatype>straight</alphatype>
					<masterclipid>0.png1</masterclipid>
					<logginginfo>
						<scene/>
						<shottake/>
						<lognote/>
						<good>FALSE</good>
					</logginginfo>
					<labels>
						<label2/>
					</labels>
					<comments>
						<mastercomment1/>
						<mastercomment2/>
						<mastercomment3/>
						<mastercomment4/>
					</comments>
					<file id="0 ">
						<name>0.png</name>
						<pathurl>file://localhost/SuperSAN1/Prosjekter/MSUB20000012%20FIN%20FREDAG/test%20av%20Kristine%20og%20r%C3%B8kla/0.png</pathurl>
						<rate>
							<timebase>25</timebase>
						</rate>
						<duration>2</duration>
						<width>2478</width>
						<height>393</height>
						<media>
							<video>
								<duration>2</duration>
								<stillframe>TRUE</stillframe>
								<samplecharacteristics>
									<width>2478</width>
									<height>393</height>
								</samplecharacteristics>
							</video>
						</media>
					</file>
					<filter>
						<effect>
							<name>Basic Motion</name>
							<effectid>basic</effectid>
							<effectcategory>motion</effectcategory>
							<effecttype>motion</effecttype>
							<mediatype>video</mediatype>
							<parameter>
								<parameterid>scale</parameterid>
								<name>Scale</name>
								<valuemin>0</valuemin>
								<valuemax>1000</valuemax>
								<value>100</value>
							</parameter>
							<parameter>
								<parameterid>center</parameterid>
								<name>Center</name>
								<value>
									<horiz>0.539234</horiz>
									<vert>0.752874</vert>
								</value>
							</parameter>
							<parameter>
								<parameterid>rotation</parameterid>
								<name>Rotation</name>
								<valuemin>-8640</valuemin>
								<valuemax>8640</valuemax>
								<value>0</value>
							</parameter>
							<parameter>
								<parameterid>centerOffset</parameterid>
								<name>Anchor Point</name>
								<value>
									<horiz>0</horiz>
									<vert>0</vert>
								</value>
							</parameter>
						</effect>
					</filter>
					<filter>
						<enabled>FALSE</enabled>
						<effect>
							<name>Drop Shadow</name>
							<effectid>dropshadow</effectid>
							<effectcategory>motion</effectcategory>
							<effecttype>motion</effecttype>
							<mediatype>video</mediatype>
							<parameter>
								<parameterid>offset</parameterid>
								<name>offset</name>
								<valuemin>-100</valuemin>
								<valuemax>100</valuemax>
								<value>2</value>
							</parameter>
							<parameter>
								<parameterid>angle</parameterid>
								<name>angle</name>
								<valuemin>-720</valuemin>
								<valuemax>720</valuemax>
								<value>135</value>
							</parameter>
							<parameter>
								<parameterid>color</parameterid>
								<name>color</name>
								<value>
									<alpha>0</alpha>
									<red>0</red>
									<green>0</green>
									<blue>0</blue>
								</value>
							</parameter>
							<parameter>
								<parameterid>softness</parameterid>
								<name>softness</name>
								<valuemin>0</valuemin>
								<valuemax>100</valuemax>
								<value>10</value>
							</parameter>
							<parameter>
								<parameterid>opacity</parameterid>
								<name>opacity</name>
								<valuemin>0</valuemin>
								<valuemax>100</valuemax>
								<value>50</value>
							</parameter>
						</effect>
					</filter>
					<filter>
						<enabled>FALSE</enabled>
						<effect>
							<name>Motion Blur</name>
							<effectid>motionblur</effectid>
							<effectcategory>motion</effectcategory>
							<effecttype>motion</effecttype>
							<mediatype>video</mediatype>
							<parameter>
								<parameterid>duration</parameterid>
								<name>% Blur</name>
								<valuemin>0</valuemin>
								<valuemax>1000</valuemax>
								<value>500</value>
							</parameter>
							<parameter>
								<parameterid>samples</parameterid>
								<name>Samples</name>
								<valuemin>1</valuemin>
								<valuemax>16</valuemax>
								<value>4</value>
							</parameter>
						</effect>
					</filter>
					<filter>
						<effect>
							<name>Crop</name>
							<effectid>crop</effectid>
							<effectcategory>motion</effectcategory>
							<effecttype>motion</effecttype>
							<mediatype>video</mediatype>
							<parameter>
								<parameterid>left</parameterid>
								<name>left</name>
								<valuemin>0</valuemin>
								<valuemax>100</valuemax>
								<value>0</value>
							</parameter>
							<parameter>
								<parameterid>right</parameterid>
								<name>right</name>
								<valuemin>0</valuemin>
								<valuemax>100</valuemax>
								<value>0</value>
							</parameter>
							<parameter>
								<parameterid>top</parameterid>
								<name>top</name>
								<valuemin>0</valuemin>
								<valuemax>100</valuemax>
								<value>0</value>
							</parameter>
							<parameter>
								<parameterid>bottom</parameterid>
								<name>bottom</name>
								<valuemin>0</valuemin>
								<valuemax>100</valuemax>
								<value>0</value>
							</parameter>
							<parameter>
								<parameterid>edgefeather</parameterid>
								<name>edgefeather</name>
								<valuemin>0</valuemin>
								<valuemax>100</valuemax>
								<value>0</value>
							</parameter>
						</effect>
					</filter>
					<filter>
						<effect>
							<name>Distort</name>
							<effectid>deformation</effectid>
							<effectcategory>motion</effectcategory>
							<effecttype>motion</effecttype>
							<mediatype>video</mediatype>
							<parameter>
								<parameterid>ulcorner</parameterid>
								<name>Upper Left</name>
								<value>
									<horiz>-0.5</horiz>
									<vert>-0.5</vert>
								</value>
							</parameter>
							<parameter>
								<parameterid>urcorner</parameterid>
								<name>Upper Right</name>
								<value>
									<horiz>0.5</horiz>
									<vert>-0.5</vert>
								</value>
							</parameter>
							<parameter>
								<parameterid>lrcorner</parameterid>
								<name>Lower Right</name>
								<value>
									<horiz>0.5</horiz>
									<vert>0.5</vert>
								</value>
							</parameter>
							<parameter>
								<parameterid>llcorner</parameterid>
								<name>Lower Left</name>
								<value>
									<horiz>-0.5</horiz>
									<vert>0.5</vert>
								</value>
							</parameter>
							<parameter>
								<parameterid>aspect</parameterid>
								<name>Aspect</name>
								<valuemin>-10000</valuemin>
								<valuemax>10000</valuemax>
								<value>0</value>
							</parameter>
						</effect>
					</filter>
					<filter>
						<effect>
							<name>Opacity</name>
							<effectid>opacity</effectid>
							<effectcategory>motion</effectcategory>
							<effecttype>motion</effecttype>
							<mediatype>video</mediatype>
							<parameter>
								<parameterid>opacity</parameterid>
								<name>opacity</name>
								<valuemin>0</valuemin>
								<valuemax>100</valuemax>
								<value>100</value>
							</parameter>
						</effect>
					</filter>
					<sourcetrack>
						<mediatype>video</mediatype>
					</sourcetrack>
					<fielddominance>none</fielddominance>
				</clipitem>
				<clipitem id="0.png2">
					<name>0.png</name>
					<duration>3026</duration>
					<rate>
						<ntsc>FALSE</ntsc>
						<timebase>25</timebase>
					</rate>
					<in>1519</in>
					<out>1568</out>
					<start>34565</start>
					<end>34614</end>
					<pixelaspectratio>Square</pixelaspectratio>
					<stillframe>TRUE</stillframe>
					<enabled>TRUE</enabled>
					<anamorphic>FALSE</anamorphic>
					<alphatype>straight</alphatype>
					<masterclipid>0.png1</masterclipid>
					<logginginfo>
						<scene/>
						<shottake/>
						<lognote/>
						<good>FALSE</good>
					</logginginfo>
					<labels>
						<label2/>
					</labels>
					<comments>
						<mastercomment1/>
						<mastercomment2/>
						<mastercomment3/>
						<mastercomment4/>
					</comments>
					<file id="0 "/>
					<filter>
						<effect>
							<name>Basic Motion</name>
							<effectid>basic</effectid>
							<effectcategory>motion</effectcategory>
							<effecttype>motion</effecttype>
							<mediatype>video</mediatype>
							<parameter>
								<parameterid>scale</parameterid>
								<name>Scale</name>
								<valuemin>0</valuemin>
								<valuemax>1000</valuemax>
								<value>100</value>
							</parameter>
							<parameter>
								<parameterid>center</parameterid>
								<name>Center</name>
								<value>
									<horiz>0.539234</horiz>
									<vert>0.752874</vert>
								</value>
							</parameter>
							<parameter>
								<parameterid>rotation</parameterid>
								<name>Rotation</name>
								<valuemin>-8640</valuemin>
								<valuemax>8640</valuemax>
								<value>0</value>
							</parameter>
							<parameter>
								<parameterid>centerOffset</parameterid>
								<name>Anchor Point</name>
								<value>
									<horiz>0</horiz>
									<vert>0</vert>
								</value>
							</parameter>
						</effect>
					</filter>
					<filter>
						<enabled>FALSE</enabled>
						<effect>
							<name>Drop Shadow</name>
							<effectid>dropshadow</effectid>
							<effectcategory>motion</effectcategory>
							<effecttype>motion</effecttype>
							<mediatype>video</mediatype>
							<parameter>
								<parameterid>offset</parameterid>
								<name>offset</name>
								<valuemin>-100</valuemin>
								<valuemax>100</valuemax>
								<value>2</value>
							</parameter>
							<parameter>
								<parameterid>angle</parameterid>
								<name>angle</name>
								<valuemin>-720</valuemin>
								<valuemax>720</valuemax>
								<value>135</value>
							</parameter>
							<parameter>
								<parameterid>color</parameterid>
								<name>color</name>
								<value>
									<alpha>0</alpha>
									<red>0</red>
									<green>0</green>
									<blue>0</blue>
								</value>
							</parameter>
							<parameter>
								<parameterid>softness</parameterid>
								<name>softness</name>
								<valuemin>0</valuemin>
								<valuemax>100</valuemax>
								<value>10</value>
							</parameter>
							<parameter>
								<parameterid>opacity</parameterid>
								<name>opacity</name>
								<valuemin>0</valuemin>
								<valuemax>100</valuemax>
								<value>50</value>
							</parameter>
						</effect>
					</filter>
					<filter>
						<enabled>FALSE</enabled>
						<effect>
							<name>Motion Blur</name>
							<effectid>motionblur</effectid>
							<effectcategory>motion</effectcategory>
							<effecttype>motion</effecttype>
							<mediatype>video</mediatype>
							<parameter>
								<parameterid>duration</parameterid>
								<name>% Blur</name>
								<valuemin>0</valuemin>
								<valuemax>1000</valuemax>
								<value>500</value>
							</parameter>
							<parameter>
								<parameterid>samples</parameterid>
								<name>Samples</name>
								<valuemin>1</valuemin>
								<valuemax>16</valuemax>
								<value>4</value>
							</parameter>
						</effect>
					</filter>
					<filter>
						<effect>
							<name>Crop</name>
							<effectid>crop</effectid>
							<effectcategory>motion</effectcategory>
							<effecttype>motion</effecttype>
							<mediatype>video</mediatype>
							<parameter>
								<parameterid>left</parameterid>
								<name>left</name>
								<valuemin>0</valuemin>
								<valuemax>100</valuemax>
								<value>0</value>
							</parameter>
							<parameter>
								<parameterid>right</parameterid>
								<name>right</name>
								<valuemin>0</valuemin>
								<valuemax>100</valuemax>
								<value>0</value>
							</parameter>
							<parameter>
								<parameterid>top</parameterid>
								<name>top</name>
								<valuemin>0</valuemin>
								<valuemax>100</valuemax>
								<value>0</value>
							</parameter>
							<parameter>
								<parameterid>bottom</parameterid>
								<name>bottom</name>
								<valuemin>0</valuemin>
								<valuemax>100</valuemax>
								<value>0</value>
							</parameter>
							<parameter>
								<parameterid>edgefeather</parameterid>
								<name>edgefeather</name>
								<valuemin>0</valuemin>
								<valuemax>100</valuemax>
								<value>0</value>
							</parameter>
						</effect>
					</filter>
					<filter>
						<effect>
							<name>Distort</name>
							<effectid>deformation</effectid>
							<effectcategory>motion</effectcategory>
							<effecttype>motion</effecttype>
							<mediatype>video</mediatype>
							<parameter>
								<parameterid>ulcorner</parameterid>
								<name>Upper Left</name>
								<value>
									<horiz>-0.5</horiz>
									<vert>-0.5</vert>
								</value>
							</parameter>
							<parameter>
								<parameterid>urcorner</parameterid>
								<name>Upper Right</name>
								<value>
									<horiz>0.5</horiz>
									<vert>-0.5</vert>
								</value>
							</parameter>
							<parameter>
								<parameterid>lrcorner</parameterid>
								<name>Lower Right</name>
								<value>
									<horiz>0.5</horiz>
									<vert>0.5</vert>
								</value>
							</parameter>
							<parameter>
								<parameterid>llcorner</parameterid>
								<name>Lower Left</name>
								<value>
									<horiz>-0.5</horiz>
									<vert>0.5</vert>
								</value>
							</parameter>
							<parameter>
								<parameterid>aspect</parameterid>
								<name>Aspect</name>
								<valuemin>-10000</valuemin>
								<valuemax>10000</valuemax>
								<value>0</value>
							</parameter>
						</effect>
					</filter>
					<filter>
						<effect>
							<name>Opacity</name>
							<effectid>opacity</effectid>
							<effectcategory>motion</effectcategory>
							<effecttype>motion</effecttype>
							<mediatype>video</mediatype>
							<parameter>
								<parameterid>opacity</parameterid>
								<name>opacity</name>
								<valuemin>0</valuemin>
								<valuemax>100</valuemax>
								<value>100</value>
							</parameter>
						</effect>
					</filter>
					<sourcetrack>
						<mediatype>video</mediatype>
					</sourcetrack>
					<fielddominance>none</fielddominance>
				</clipitem>
				<enabled>TRUE</enabled>
				<locked>FALSE</locked>
			</track>
		</video>
		<audio>
			<format>
				<samplecharacteristics>
					<depth>24</depth>
					<samplerate>48000</samplerate>
				</samplecharacteristics>
			</format>
			<outputs>
				<group>
					<index>1</index>
					<numchannels>2</numchannels>
					<downmix>0</downmix>
					<channel>
						<index>1</index>
					</channel>
					<channel>
						<index>2</index>
					</channel>
				</group>
			</outputs>
			<in>-1</in>
			<out>-1</out>
			<track>
				<clipitem id="msub200012-3011-k1d1-006 3">
					<name>msub200012-3011-k1d1-006</name>
					<duration>583</duration>
					<rate>
						<ntsc>FALSE</ntsc>
						<timebase>25</timebase>
					</rate>
					<in>72</in>
					<out>488</out>
					<start>0</start>
					<end>-1</end>
					<subframeoffset>0</subframeoffset>
					<masterclipid>msub200012-3011-k1d1-006 1</masterclipid>
					<logginginfo>
						<description>msub200012-3011-k1d1-006</description>
						<scene/>
						<shottake/>
						<lognote/>
						<good>FALSE</good>
					</logginginfo>
					<labels>
						<label2/>
					</labels>
					<comments>
						<mastercomment1>RÃ…STOFF. BR_FINFREDAG_MSUA_OPRO</mastercomment1>
						<mastercomment2/>
						<mastercomment3/>
						<mastercomment4/>
						<clipcommenta/>
					</comments>
					<file id="msub200012-3011-k1d1-006 2"/>
					<filter>
						<effect>
							<name>Audio Levels</name>
							<effectid>audiolevels</effectid>
							<effectcategory>audiolevels</effectcategory>
							<effecttype>audiolevels</effecttype>
							<mediatype>audio</mediatype>
							<parameter>
								<name>Level</name>
								<parameterid>level</parameterid>
								<valuemin>0</valuemin>
								<valuemax>3.98109</valuemax>
								<keyframe>
									<when>398.571</when>
									<value>0.0891251</value>
								</keyframe>
								<keyframe>
									<when>405.143</when>
									<value>2.81838</value>
								</keyframe>
								<keyframe>
									<when>435.143</when>
									<value>1.25893</value>
								</keyframe>
								<keyframe>
									<when>437.714</when>
									<value>0.0891251</value>
								</keyframe>
								<interpolation>
									<name>FCPCurve</name>
								</interpolation>
								<value>0.0891251</value>
							</parameter>
						</effect>
					</filter>
					<filter>
						<effect>
							<name>Audio Pan</name>
							<effectid>audiopan</effectid>
							<effectcategory>audiopan</effectcategory>
							<effecttype>audiopan</effecttype>
							<mediatype>audio</mediatype>
							<parameter>
								<name>Pan</name>
								<parameterid>pan</parameterid>
								<valuemin>-1</valuemin>
								<valuemax>1</valuemax>
								<value>0</value>
							</parameter>
						</effect>
					</filter>
					<sourcetrack>
						<mediatype>audio</mediatype>
						<trackindex>1</trackindex>
					</sourcetrack>
				</clipitem>
				<transitionitem id="20">
					<rate>
						<ntsc>FALSE</ntsc>
						<timebase>25</timebase>
					</rate>
					<start>410</start>
					<end>416</end>
					<alignment>end-black</alignment>
					<effect>
						<name>Cross Fade (+3dB) Copy</name>
						<effecttype>transition</effecttype>
						<mediatype>audio</mediatype>
					</effect>
				</transitionitem>
				<transitionitem id="38444344 ">
					<rate>
						<ntsc>FALSE</ntsc>
						<timebase>25</timebase>
					</rate>
					<start>1162</start>
					<end>1168</end>
					<alignment>start-black</alignment>
					<effect>
						<name>Cross Fade (+3dB) Copy</name>
						<effecttype>transition</effecttype>
						<mediatype>audio</mediatype>
					</effect>
				</transitionitem>
				<clipitem id="msub200012-3011-k1d3-002 33">
					<name>msub200012-3011-k1d3-002</name>
					<duration>8740</duration>
					<rate>
						<ntsc>FALSE</ntsc>
						<timebase>25</timebase>
					</rate>
					<in>3366</in>
					<out>3400</out>
					<start>-1</start>
					<end>-1</end>
					<subframeoffset>0</subframeoffset>
					<enabled>TRUE</enabled>
					<masterclipid>msub200012-3011-k1d3-002 1</masterclipid>
					<syncoffset>0</syncoffset>
					<logginginfo>
						<description>msub200012-3011-k1d3-002</description>
						<scene/>
						<shottake/>
						<lognote/>
						<good>FALSE</good>
					</logginginfo>
					<labels>
						<label>Good Take</label>
						<label2/>
					</labels>
					<comments>
						<mastercomment1>RÃ…STOFF. BR_FINFREDAG_MSUA_OPRO</mastercomment1>
						<mastercomment2/>
						<mastercomment3/>
						<mastercomment4/>
						<clipcommenta/>
					</comments>
					<file id="msub200012-3011-k1d3-002 2"/>
					<filter>
						<enabled>TRUE</enabled>
						<start>-1</start>
						<end>-1</end>
						<effect>
							<name>3 Band Equalizer - Kristine</name>
							<effecttype>filter</effecttype>
							<mediatype>audio</mediatype>
							<parameter>
								<parameterid>Low Frequency</parameterid>
								<name>Low Frequency</name>
								<valuemin>80</valuemin>
								<valuemax>2000</valuemax>
								<value>80</value>
							</parameter>
							<parameter>
								<parameterid>Low Gain(dB)</parameterid>
								<name>Low Gain(dB)</name>
								<valuemin>-20</valuemin>
								<valuemax>20</valuemax>
								<value>-4</value>
							</parameter>
							<parameter>
								<parameterid>Mid Frequency</parameterid>
								<name>Mid Frequency</name>
								<valuemin>400</valuemin>
								<valuemax>8000</valuemax>
								<value>3602</value>
							</parameter>
							<parameter>
								<parameterid>Mid Gain(dB)</parameterid>
								<name>Mid Gain(dB)</name>
								<valuemin>-20</valuemin>
								<valuemax>20</valuemax>
								<value>3</value>
							</parameter>
							<parameter>
								<parameterid>High Frequency</parameterid>
								<name>High Frequency</name>
								<valuemin>5000</valuemin>
								<valuemax>20000</valuemax>
								<value>10354</value>
							</parameter>
							<parameter>
								<parameterid>High Gain(dB)</parameterid>
								<name>High Gain(dB)</name>
								<valuemin>-20</valuemin>
								<valuemax>20</valuemax>
								<value>0</value>
							</parameter>
						</effect>
					</filter>
					<filter>
						<enabled>TRUE</enabled>
						<start>-1</start>
						<end>-1</end>
						<effect>
							<name>Compressor/Limiter</name>
							<effecttype>filter</effecttype>
							<mediatype>audio</mediatype>
							<parameter>
								<parameterid>Threshold(dB)</parameterid>
								<name>Threshold(dB)</name>
								<valuemin>-90</valuemin>
								<valuemax>0</valuemax>
								<value>-20</value>
							</parameter>
							<parameter>
								<parameterid>Ratio</parameterid>
								<name>Ratio</name>
								<valuemin>1</valuemin>
								<valuemax>100</valuemax>
								<value>2</value>
							</parameter>
							<parameter>
								<parameterid>Attack Time</parameterid>
								<name>Attack Time</name>
								<valuemin>1</valuemin>
								<valuemax>100</valuemax>
								<value>5</value>
							</parameter>
							<parameter>
								<parameterid>Release Time</parameterid>
								<name>Release Time</name>
								<valuemin>1</valuemin>
								<valuemax>4000</valuemax>
								<value>209</value>
							</parameter>
							<parameter>
								<parameterid>Preserve Volume</parameterid>
								<name>Preserve Volume</name>
								<value>TRUE</value>
							</parameter>
						</effect>
					</filter>
					<filter>
						<effect>
							<name>Audio Levels</name>
							<effectid>audiolevels</effectid>
							<effectcategory>audiolevels</effectcategory>
							<effecttype>audiolevels</effecttype>
							<mediatype>audio</mediatype>
							<parameter>
								<name>Level</name>
								<parameterid>level</parameterid>
								<valuemin>0</valuemin>
								<valuemax>3.98109</valuemax>
								<keyframe>
									<when>1373.84</when>
									<value>0</value>
								</keyframe>
								<keyframe>
									<when>1374.64</when>
									<value>1</value>
								</keyframe>
								<keyframe>
									<when>1425.84</when>
									<value>1</value>
								</keyframe>
								<keyframe>
									<when>1427.61</when>
									<value>1.41254</value>
								</keyframe>
								<keyframe>
									<when>1457.34</when>
									<value>1.41254</value>
								</keyframe>
								<keyframe>
									<when>1462.64</when>
									<value>1.41254</value>
								</keyframe>
								<keyframe>
									<when>3388.21</when>
									<value>1.41254</value>
								</keyframe>
								<keyframe>
									<when>3390.36</when>
									<value>0.446684</value>
								</keyframe>
								<keyframe>
									<when>3391.86</when>
									<value>0.446684</value>
								</keyframe>
								<keyframe>
									<when>3393.57</when>
									<value>1.41254</value>
								</keyframe>
								<interpolation>
									<name>FCPCurve</name>
								</interpolation>
								<value>1.41254</value>
							</parameter>
						</effect>
					</filter>
					<filter>
						<effect>
							<name>Audio Pan</name>
							<effectid>audiopan</effectid>
							<effectcategory>audiopan</effectcategory>
							<effecttype>audiopan</effecttype>
							<mediatype>audio</mediatype>
							<parameter>
								<name>Pan</name>
								<parameterid>pan</parameterid>
								<valuemin>-1</valuemin>
								<valuemax>1</valuemax>
								<value>0</value>
							</parameter>
						</effect>
					</filter>
					<sourcetrack>
						<mediatype>audio</mediatype>
						<trackindex>1</trackindex>
					</sourcetrack>
				</clipitem>
				<transitionitem id="38448560 ">
					<rate>
						<ntsc>FALSE</ntsc>
						<timebase>25</timebase>
					</rate>
					<start>1190</start>
					<end>1196</end>
					<alignment>center</alignment>
					<effect>
						<name>Cross Fade (+3dB) Copy</name>
						<effecttype>transition</effecttype>
						<mediatype>audio</mediatype>
					</effect>
				</transitionitem>
				<clipitem id="msub200012-3011-k1d3-002 34">
					<name>msub200012-3011-k1d3-002</name>
					<duration>8740</duration>
					<rate>
						<ntsc>FALSE</ntsc>
						<timebase>25</timebase>
					</rate>
					<in>3390</in>
					<out>3436</out>
					<start>-1</start>
					<end>-1</end>
					<subframeoffset>0</subframeoffset>
					<enabled>TRUE</enabled>
					<masterclipid>msub200012-3011-k1d3-002 1</masterclipid>
					<syncoffset>0</syncoffset>
					<logginginfo>
						<description>msub200012-3011-k1d3-002</description>
						<scene/>
						<shottake/>
						<lognote/>
						<good>FALSE</good>
					</logginginfo>
					<labels>
						<label>Good Take</label>
						<label2/>
					</labels>
					<comments>
						<mastercomment1>RÃ…STOFF. BR_FINFREDAG_MSUA_OPRO</mastercomment1>
						<mastercomment2/>
						<mastercomment3/>
						<mastercomment4/>
						<clipcommenta/>
					</comments>
					<file id="msub200012-3011-k1d3-002 2"/>
					<filter>
						<enabled>TRUE</enabled>
						<start>-1</start>
						<end>-1</end>
						<effect>
							<name>3 Band Equalizer - Kristine</name>
							<effecttype>filter</effecttype>
							<mediatype>audio</mediatype>
							<parameter>
								<parameterid>Low Frequency</parameterid>
								<name>Low Frequency</name>
								<valuemin>80</valuemin>
								<valuemax>2000</valuemax>
								<value>80</value>
							</parameter>
							<parameter>
								<parameterid>Low Gain(dB)</parameterid>
								<name>Low Gain(dB)</name>
								<valuemin>-20</valuemin>
								<valuemax>20</valuemax>
								<value>-4</value>
							</parameter>
							<parameter>
								<parameterid>Mid Frequency</parameterid>
								<name>Mid Frequency</name>
								<valuemin>400</valuemin>
								<valuemax>8000</valuemax>
								<value>3602</value>
							</parameter>
							<parameter>
								<parameterid>Mid Gain(dB)</parameterid>
								<name>Mid Gain(dB)</name>
								<valuemin>-20</valuemin>
								<valuemax>20</valuemax>
								<value>3</value>
							</parameter>
							<parameter>
								<parameterid>High Frequency</parameterid>
								<name>High Frequency</name>
								<valuemin>5000</valuemin>
								<valuemax>20000</valuemax>
								<value>10354</value>
							</parameter>
							<parameter>
								<parameterid>High Gain(dB)</parameterid>
								<name>High Gain(dB)</name>
								<valuemin>-20</valuemin>
								<valuemax>20</valuemax>
								<value>0</value>
							</parameter>
						</effect>
					</filter>
					<filter>
						<enabled>TRUE</enabled>
						<start>-1</start>
						<end>-1</end>
						<effect>
							<name>Compressor/Limiter</name>
							<effecttype>filter</effecttype>
							<mediatype>audio</mediatype>
							<parameter>
								<parameterid>Threshold(dB)</parameterid>
								<name>Threshold(dB)</name>
								<valuemin>-90</valuemin>
								<valuemax>0</valuemax>
								<value>-20</value>
							</parameter>
							<parameter>
								<parameterid>Ratio</parameterid>
								<name>Ratio</name>
								<valuemin>1</valuemin>
								<valuemax>100</valuemax>
								<value>2</value>
							</parameter>
							<parameter>
								<parameterid>Attack Time</parameterid>
								<name>Attack Time</name>
								<valuemin>1</valuemin>
								<valuemax>100</valuemax>
								<value>5</value>
							</parameter>
							<parameter>
								<parameterid>Release Time</parameterid>
								<name>Release Time</name>
								<valuemin>1</valuemin>
								<valuemax>4000</valuemax>
								<value>209</value>
							</parameter>
							<parameter>
								<parameterid>Preserve Volume</parameterid>
								<name>Preserve Volume</name>
								<value>TRUE</value>
							</parameter>
						</effect>
					</filter>
					<filter>
						<effect>
							<name>Audio Levels</name>
							<effectid>audiolevels</effectid>
							<effectcategory>audiolevels</effectcategory>
							<effecttype>audiolevels</effecttype>
							<mediatype>audio</mediatype>
							<parameter>
								<name>Level</name>
								<parameterid>level</parameterid>
								<valuemin>0</valuemin>
								<valuemax>3.98109</valuemax>
								<keyframe>
									<when>1373.84</when>
									<value>0</value>
								</keyframe>
								<keyframe>
									<when>1374.64</when>
									<value>1</value>
								</keyframe>
								<keyframe>
									<when>1425.84</when>
									<value>1</value>
								</keyframe>
								<keyframe>
									<when>1427.61</when>
									<value>1.41254</value>
								</keyframe>
								<keyframe>
									<when>1457.34</when>
									<value>1.41254</value>
								</keyframe>
								<keyframe>
									<when>1462.64</when>
									<value>1.41254</value>
								</keyframe>
								<keyframe>
									<when>3388.21</when>
									<value>1.41254</value>
								</keyframe>
								<keyframe>
									<when>3390.36</when>
									<value>0.707946</value>
								</keyframe>
								<keyframe>
									<when>3391.86</when>
									<value>0.707946</value>
								</keyframe>
								<keyframe>
									<when>3393.57</when>
									<value>0.707946</value>
								</keyframe>
								<keyframe>
									<when>3414.88</when>
									<value>0.794328</value>
								</keyframe>
								<keyframe>
									<when>3416.62</when>
									<value>0.251189</value>
								</keyframe>
								<keyframe>
									<when>3434.75</when>
									<value>0.158489</value>
								</keyframe>
								<interpolation>
									<name>FCPCurve</name>
								</interpolation>
								<value>1.41254</value>
							</parameter>
						</effect>
					</filter>
					<filter>
						<effect>
							<name>Audio Pan</name>
							<effectid>audiopan</effectid>
							<effectcategory>audiopan</effectcategory>
							<effecttype>audiopan</effecttype>
							<mediatype>audio</mediatype>
							<parameter>
								<name>Pan</name>
								<parameterid>pan</parameterid>
								<valuemin>-1</valuemin>
								<valuemax>1</valuemax>
								<value>0</value>
							</parameter>
						</effect>
					</filter>
					<sourcetrack>
						<mediatype>audio</mediatype>
						<trackindex>1</trackindex>
					</sourcetrack>
				</clipitem>
				<transitionitem id="38452980 ">
					<rate>
						<ntsc>FALSE</ntsc>
						<timebase>25</timebase>
					</rate>
					<start>1234</start>
					<end>1236</end>
					<alignment>center</alignment>
					<effect>
						<name>Cross Fade (+3dB) Copy</name>
						<effecttype>transition</effecttype>
						<mediatype>audio</mediatype>
					</effect>
				</transitionitem>
				<clipitem id="msub200012-3011-k1d3-002 35">
					<name>msub200012-3011-k1d3-002</name>
					<duration>8740</duration>
					<rate>
						<ntsc>FALSE</ntsc>
						<timebase>25</timebase>
					</rate>
					<in>1997</in>
					<out>2021</out>
					<start>-1</start>
					<end>-1</end>
					<subframeoffset>0</subframeoffset>
					<enabled>TRUE</enabled>
					<masterclipid>msub200012-3011-k1d3-002 1</masterclipid>
					<syncoffset>0</syncoffset>
					<logginginfo>
						<description>msub200012-3011-k1d3-002</description>
						<scene/>
						<shottake/>
						<lognote/>
						<good>FALSE</good>
					</logginginfo>
					<labels>
						<label>Good Take</label>
						<label2/>
					</labels>
					<comments>
						<mastercomment1>RÃ…STOFF. BR_FINFREDAG_MSUA_OPRO</mastercomment1>
						<mastercomment2/>
						<mastercomment3/>
						<mastercomment4/>
						<clipcommenta/>
					</comments>
					<file id="msub200012-3011-k1d3-002 2"/>
					<filter>
						<enabled>TRUE</enabled>
						<start>-1</start>
						<end>-1</end>
						<effect>
							<name>3 Band Equalizer - Kristine</name>
							<effecttype>filter</effecttype>
							<mediatype>audio</mediatype>
							<parameter>
								<parameterid>Low Frequency</parameterid>
								<name>Low Frequency</name>
								<valuemin>80</valuemin>
								<valuemax>2000</valuemax>
								<value>80</value>
							</parameter>
							<parameter>
								<parameterid>Low Gain(dB)</parameterid>
								<name>Low Gain(dB)</name>
								<valuemin>-20</valuemin>
								<valuemax>20</valuemax>
								<value>-4</value>
							</parameter>
							<parameter>
								<parameterid>Mid Frequency</parameterid>
								<name>Mid Frequency</name>
								<valuemin>400</valuemin>
								<valuemax>8000</valuemax>
								<value>3602</value>
							</parameter>
							<parameter>
								<parameterid>Mid Gain(dB)</parameterid>
								<name>Mid Gain(dB)</name>
								<valuemin>-20</valuemin>
								<valuemax>20</valuemax>
								<value>3</value>
							</parameter>
							<parameter>
								<parameterid>High Frequency</parameterid>
								<name>High Frequency</name>
								<valuemin>5000</valuemin>
								<valuemax>20000</valuemax>
								<value>10354</value>
							</parameter>
							<parameter>
								<parameterid>High Gain(dB)</parameterid>
								<name>High Gain(dB)</name>
								<valuemin>-20</valuemin>
								<valuemax>20</valuemax>
								<value>0</value>
							</parameter>
						</effect>
					</filter>
					<filter>
						<enabled>TRUE</enabled>
						<start>-1</start>
						<end>-1</end>
						<effect>
							<name>Compressor/Limiter</name>
							<effecttype>filter</effecttype>
							<mediatype>audio</mediatype>
							<parameter>
								<parameterid>Threshold(dB)</parameterid>
								<name>Threshold(dB)</name>
								<valuemin>-90</valuemin>
								<valuemax>0</valuemax>
								<value>-20</value>
							</parameter>
							<parameter>
								<parameterid>Ratio</parameterid>
								<name>Ratio</name>
								<valuemin>1</valuemin>
								<valuemax>100</valuemax>
								<value>2</value>
							</parameter>
							<parameter>
								<parameterid>Attack Time</parameterid>
								<name>Attack Time</name>
								<valuemin>1</valuemin>
								<valuemax>100</valuemax>
								<value>5</value>
							</parameter>
							<parameter>
								<parameterid>Release Time</parameterid>
								<name>Release Time</name>
								<valuemin>1</valuemin>
								<valuemax>4000</valuemax>
								<value>209</value>
							</parameter>
							<parameter>
								<parameterid>Preserve Volume</parameterid>
								<name>Preserve Volume</name>
								<value>TRUE</value>
							</parameter>
						</effect>
					</filter>
					<filter>
						<effect>
							<name>Audio Levels</name>
							<effectid>audiolevels</effectid>
							<effectcategory>audiolevels</effectcategory>
							<effecttype>audiolevels</effecttype>
							<mediatype>audio</mediatype>
							<parameter>
								<name>Level</name>
								<parameterid>level</parameterid>
								<valuemin>0</valuemin>
								<valuemax>3.98109</valuemax>
								<keyframe>
									<when>1373.84</when>
									<value>0</value>
								</keyframe>
								<keyframe>
									<when>1374.64</when>
									<value>1</value>
								</keyframe>
								<keyframe>
									<when>1425.84</when>
									<value>1</value>
								</keyframe>
								<keyframe>
									<when>1427.61</when>
									<value>1.41254</value>
								</keyframe>
								<keyframe>
									<when>1457.34</when>
									<value>1.41254</value>
								</keyframe>
								<keyframe>
									<when>1462.64</when>
									<value>1.41254</value>
								</keyframe>
								<keyframe>
									<when>1887.5</when>
									<value>1.41254</value>
								</keyframe>
								<keyframe>
									<when>1893.93</when>
									<value>1.25893</value>
								</keyframe>
								<keyframe>
									<when>2005.38</when>
									<value>1.25893</value>
								</keyframe>
								<keyframe>
									<when>2006.44</when>
									<value>0.707946</value>
								</keyframe>
								<keyframe>
									<when>2008.31</when>
									<value>0.707946</value>
								</keyframe>
								<keyframe>
									<when>2010.56</when>
									<value>1.25893</value>
								</keyframe>
								<keyframe>
									<when>2062.71</when>
									<value>1.25893</value>
								</keyframe>
								<keyframe>
									<when>2066.14</when>
									<value>0.794328</value>
								</keyframe>
								<keyframe>
									<when>2072.14</when>
									<value>0.794328</value>
								</keyframe>
								<keyframe>
									<when>2074.71</when>
									<value>1.41254</value>
								</keyframe>
								<keyframe>
									<when>2121.79</when>
									<value>1.41254</value>
								</keyframe>
								<keyframe>
									<when>2126.89</when>
									<value>0</value>
								</keyframe>
								<interpolation>
									<name>FCPCurve</name>
								</interpolation>
								<value>1.41254</value>
							</parameter>
						</effect>
					</filter>
					<filter>
						<effect>
							<name>Audio Pan</name>
							<effectid>audiopan</effectid>
							<effectcategory>audiopan</effectcategory>
							<effecttype>audiopan</effecttype>
							<mediatype>audio</mediatype>
							<parameter>
								<name>Pan</name>
								<parameterid>pan</parameterid>
								<valuemin>-1</valuemin>
								<valuemax>1</valuemax>
								<value>0</value>
							</parameter>
						</effect>
					</filter>
					<sourcetrack>
						<mediatype>audio</mediatype>
						<trackindex>1</trackindex>
					</sourcetrack>
				</clipitem>
				<transitionitem id="38457740 ">
					<rate>
						<ntsc>FALSE</ntsc>
						<timebase>25</timebase>
					</rate>
					<start>1252</start>
					<end>1258</end>
					<alignment>center</alignment>
					<effect>
						<name>Cross Fade (+3dB) Copy</name>
						<effecttype>transition</effecttype>
						<mediatype>audio</mediatype>
					</effect>
				</transitionitem>
				<clipitem id="msub200012-3011-k1d3-002 36">
					<name>msub200012-3011-k1d3-002</name>
					<duration>8740</duration>
					<rate>
						<ntsc>FALSE</ntsc>
						<timebase>25</timebase>
					</rate>
					<in>2010</in>
					<out>2073</out>
					<start>-1</start>
					<end>-1</end>
					<subframeoffset>0</subframeoffset>
					<enabled>TRUE</enabled>
					<masterclipid>msub200012-3011-k1d3-002 1</masterclipid>
					<syncoffset>0</syncoffset>
					<logginginfo>
						<description>msub200012-3011-k1d3-002</description>
						<scene/>
						<shottake/>
						<lognote/>
						<good>FALSE</good>
					</logginginfo>
					<labels>
						<label>Good Take</label>
						<label2/>
					</labels>
					<comments>
						<mastercomment1>RÃ…STOFF. BR_FINFREDAG_MSUA_OPRO</mastercomment1>
						<mastercomment2/>
						<mastercomment3/>
						<mastercomment4/>
						<clipcommenta/>
					</comments>
					<file id="msub200012-3011-k1d3-002 2"/>
					<filter>
						<enabled>TRUE</enabled>
						<start>-1</start>
						<end>-1</end>
						<effect>
							<name>3 Band Equalizer - Kristine</name>
							<effecttype>filter</effecttype>
							<mediatype>audio</mediatype>
							<parameter>
								<parameterid>Low Frequency</parameterid>
								<name>Low Frequency</name>
								<valuemin>80</valuemin>
								<valuemax>2000</valuemax>
								<value>80</value>
							</parameter>
							<parameter>
								<parameterid>Low Gain(dB)</parameterid>
								<name>Low Gain(dB)</name>
								<valuemin>-20</valuemin>
								<valuemax>20</valuemax>
								<value>-4</value>
							</parameter>
							<parameter>
								<parameterid>Mid Frequency</parameterid>
								<name>Mid Frequency</name>
								<valuemin>400</valuemin>
								<valuemax>8000</valuemax>
								<value>3602</value>
							</parameter>
							<parameter>
								<parameterid>Mid Gain(dB)</parameterid>
								<name>Mid Gain(dB)</name>
								<valuemin>-20</valuemin>
								<valuemax>20</valuemax>
								<value>3</value>
							</parameter>
							<parameter>
								<parameterid>High Frequency</parameterid>
								<name>High Frequency</name>
								<valuemin>5000</valuemin>
								<valuemax>20000</valuemax>
								<value>10354</value>
							</parameter>
							<parameter>
								<parameterid>High Gain(dB)</parameterid>
								<name>High Gain(dB)</name>
								<valuemin>-20</valuemin>
								<valuemax>20</valuemax>
								<value>0</value>
							</parameter>
						</effect>
					</filter>
					<filter>
						<enabled>TRUE</enabled>
						<start>-1</start>
						<end>-1</end>
						<effect>
							<name>Compressor/Limiter</name>
							<effecttype>filter</effecttype>
							<mediatype>audio</mediatype>
							<parameter>
								<parameterid>Threshold(dB)</parameterid>
								<name>Threshold(dB)</name>
								<valuemin>-90</valuemin>
								<valuemax>0</valuemax>
								<value>-20</value>
							</parameter>
							<parameter>
								<parameterid>Ratio</parameterid>
								<name>Ratio</name>
								<valuemin>1</valuemin>
								<valuemax>100</valuemax>
								<value>2</value>
							</parameter>
							<parameter>
								<parameterid>Attack Time</parameterid>
								<name>Attack Time</name>
								<valuemin>1</valuemin>
								<valuemax>100</valuemax>
								<value>5</value>
							</parameter>
							<parameter>
								<parameterid>Release Time</parameterid>
								<name>Release Time</name>
								<valuemin>1</valuemin>
								<valuemax>4000</valuemax>
								<value>209</value>
							</parameter>
							<parameter>
								<parameterid>Preserve Volume</parameterid>
								<name>Preserve Volume</name>
								<value>TRUE</value>
							</parameter>
						</effect>
					</filter>
					<filter>
						<effect>
							<name>Audio Levels</name>
							<effectid>audiolevels</effectid>
							<effectcategory>audiolevels</effectcategory>
							<effecttype>audiolevels</effecttype>
							<mediatype>audio</mediatype>
							<parameter>
								<name>Level</name>
								<parameterid>level</parameterid>
								<valuemin>0</valuemin>
								<valuemax>3.98109</valuemax>
								<keyframe>
									<when>1373.84</when>
									<value>0</value>
								</keyframe>
								<keyframe>
									<when>1374.64</when>
									<value>1</value>
								</keyframe>
								<keyframe>
									<when>1425.84</when>
									<value>1</value>
								</keyframe>
								<keyframe>
									<when>1427.61</when>
									<value>1.41254</value>
								</keyframe>
								<keyframe>
									<when>1457.34</when>
									<value>1.41254</value>
								</keyframe>
								<keyframe>
									<when>1462.64</when>
									<value>1.41254</value>
								</keyframe>
								<keyframe>
									<when>1887.5</when>
									<value>1.41254</value>
								</keyframe>
								<keyframe>
									<when>1893.93</when>
									<value>1.25893</value>
								</keyframe>
								<keyframe>
									<when>2036.25</when>
									<value>1.25893</value>
								</keyframe>
								<keyframe>
									<when>2038</when>
									<value>0.794328</value>
								</keyframe>
								<keyframe>
									<when>2062.71</when>
									<value>1.25893</value>
								</keyframe>
								<keyframe>
									<when>2066.14</when>
									<value>0</value>
								</keyframe>
								<keyframe>
									<when>2072.14</when>
									<value>0</value>
								</keyframe>
								<keyframe>
									<when>2074.71</when>
									<value>1.41254</value>
								</keyframe>
								<keyframe>
									<when>2121.79</when>
									<value>1.41254</value>
								</keyframe>
								<keyframe>
									<when>2126.89</when>
									<value>0</value>
								</keyframe>
								<interpolation>
									<name>FCPCurve</name>
								</interpolation>
								<value>1.41254</value>
							</parameter>
						</effect>
					</filter>
					<filter>
						<effect>
							<name>Audio Pan</name>
							<effectid>audiopan</effectid>
							<effectcategory>audiopan</effectcategory>
							<effecttype>audiopan</effecttype>
							<mediatype>audio</mediatype>
							<parameter>
								<name>Pan</name>
								<parameterid>pan</parameterid>
								<valuemin>-1</valuemin>
								<valuemax>1</valuemax>
								<value>0</value>
							</parameter>
						</effect>
					</filter>
					<sourcetrack>
						<mediatype>audio</mediatype>
						<trackindex>1</trackindex>
					</sourcetrack>
				</clipitem>
				<transitionitem id="21">
					<rate>
						<ntsc>FALSE</ntsc>
						<timebase>25</timebase>
					</rate>
					<start>1309</start>
					<end>1315</end>
					<alignment>end-black</alignment>
					<effect>
						<name>Cross Fade (+3dB) Copy</name>
						<effecttype>transition</effecttype>
						<mediatype>audio</mediatype>
					</effect>
				</transitionitem>
				<transitionitem id="38462908 ">
					<rate>
						<ntsc>FALSE</ntsc>
						<timebase>25</timebase>
					</rate>
					<start>1329</start>
					<end>1335</end>
					<alignment>start-black</alignment>
					<effect>
						<name>Cross Fade (+3dB)</name>
						<effecttype>transition</effecttype>
						<mediatype>audio</mediatype>
					</effect>
				</transitionitem>
				<clipitem id="msub200012-3011-k1d1-009 4">
					<name>msub200012-3011-k1d1-009</name>
					<duration>2155</duration>
					<rate>
						<ntsc>FALSE</ntsc>
						<timebase>25</timebase>
					</rate>
					<in>458</in>
					<out>1494</out>
					<start>-1</start>
					<end>-1</end>
					<subframeoffset>0</subframeoffset>
					<enabled>TRUE</enabled>
					<masterclipid>msub200012-3011-k1d1-009 1</masterclipid>
					<syncoffset>0</syncoffset>
					<logginginfo>
						<description>msub200012-3011-k1d1-009</description>
						<scene/>
						<shottake/>
						<lognote/>
						<good>FALSE</good>
					</logginginfo>
					<labels>
						<label>Good Take</label>
						<label2/>
					</labels>
					<comments>
						<mastercomment1>RÃ…STOFF. BR_FINFREDAG_MSUA_OPRO</mastercomment1>
						<mastercomment2/>
						<mastercomment3/>
						<mastercomment4/>
						<clipcommenta/>
					</comments>
					<file id="msub200012-3011-k1d1-009 2"/>
					<filter>
						<enabled>TRUE</enabled>
						<start>-1</start>
						<end>-1</end>
						<effect>
							<name>3 Band Equalizer - Kristine</name>
							<effecttype>filter</effecttype>
							<mediatype>audio</mediatype>
							<parameter>
								<parameterid>Low Frequency</parameterid>
								<name>Low Frequency</name>
								<valuemin>80</valuemin>
								<valuemax>2000</valuemax>
								<value>80</value>
							</parameter>
							<parameter>
								<parameterid>Low Gain(dB)</parameterid>
								<name>Low Gain(dB)</name>
								<valuemin>-20</valuemin>
								<valuemax>20</valuemax>
								<value>-4</value>
							</parameter>
							<parameter>
								<parameterid>Mid Frequency</parameterid>
								<name>Mid Frequency</name>
								<valuemin>400</valuemin>
								<valuemax>8000</valuemax>
								<value>3602</value>
							</parameter>
							<parameter>
								<parameterid>Mid Gain(dB)</parameterid>
								<name>Mid Gain(dB)</name>
								<valuemin>-20</valuemin>
								<valuemax>20</valuemax>
								<value>3</value>
							</parameter>
							<parameter>
								<parameterid>High Frequency</parameterid>
								<name>High Frequency</name>
								<valuemin>5000</valuemin>
								<valuemax>20000</valuemax>
								<value>10354</value>
							</parameter>
							<parameter>
								<parameterid>High Gain(dB)</parameterid>
								<name>High Gain(dB)</name>
								<valuemin>-20</valuemin>
								<valuemax>20</valuemax>
								<value>0</value>
							</parameter>
						</effect>
					</filter>
					<filter>
						<enabled>TRUE</enabled>
						<start>-1</start>
						<end>-1</end>
						<effect>
							<name>Compressor/Limiter</name>
							<effecttype>filter</effecttype>
							<mediatype>audio</mediatype>
							<parameter>
								<parameterid>Threshold(dB)</parameterid>
								<name>Threshold(dB)</name>
								<valuemin>-90</valuemin>
								<valuemax>0</valuemax>
								<value>-20</value>
							</parameter>
							<parameter>
								<parameterid>Ratio</parameterid>
								<name>Ratio</name>
								<valuemin>1</valuemin>
								<valuemax>100</valuemax>
								<value>2</value>
							</parameter>
							<parameter>
								<parameterid>Attack Time</parameterid>
								<name>Attack Time</name>
								<valuemin>1</valuemin>
								<valuemax>100</valuemax>
								<value>5</value>
							</parameter>
							<parameter>
								<parameterid>Release Time</parameterid>
								<name>Release Time</name>
								<valuemin>1</valuemin>
								<valuemax>4000</valuemax>
								<value>209</value>
							</parameter>
							<parameter>
								<parameterid>Preserve Volume</parameterid>
								<name>Preserve Volume</name>
								<value>TRUE</value>
							</parameter>
						</effect>
					</filter>
					<filter>
						<effect>
							<name>Audio Levels</name>
							<effectid>audiolevels</effectid>
							<effectcategory>audiolevels</effectcategory>
							<effecttype>audiolevels</effecttype>
							<mediatype>audio</mediatype>
							<parameter>
								<name>Level</name>
								<parameterid>level</parameterid>
								<valuemin>0</valuemin>
								<valuemax>3.98109</valuemax>
								<keyframe>
									<when>482.143</when>
									<value>0</value>
								</keyframe>
								<keyframe>
									<when>491.571</when>
									<value>1.41254</value>
								</keyframe>
								<keyframe>
									<when>537.571</when>
									<value>1.41254</value>
								</keyframe>
								<keyframe>
									<when>544.143</when>
									<value>0.00630957</value>
								</keyframe>
								<keyframe>
									<when>969.714</when>
									<value>0.00630957</value>
								</keyframe>
								<keyframe>
									<when>975.714</when>
									<value>1</value>
								</keyframe>
								<keyframe>
									<when>1194.86</when>
									<value>1</value>
								</keyframe>
								<keyframe>
									<when>1199.43</when>
									<value>1.58489</value>
								</keyframe>
								<keyframe>
									<when>1235.43</when>
									<value>1.58489</value>
								</keyframe>
								<keyframe>
									<when>1237.71</when>
									<value>1.25893</value>
								</keyframe>
								<keyframe>
									<when>1287.14</when>
									<value>1.25893</value>
								</keyframe>
								<keyframe>
									<when>1294</when>
									<value>1.77828</value>
								</keyframe>
								<interpolation>
									<name>FCPCurve</name>
								</interpolation>
								<value>0.00630957</value>
							</parameter>
						</effect>
					</filter>
					<filter>
						<effect>
							<name>Audio Pan</name>
							<effectid>audiopan</effectid>
							<effectcategory>audiopan</effectcategory>
							<effecttype>audiopan</effecttype>
							<mediatype>audio</mediatype>
							<parameter>
								<name>Pan</name>
								<parameterid>pan</parameterid>
								<valuemin>-1</valuemin>
								<valuemax>1</valuemax>
								<value>0</value>
							</parameter>
						</effect>
					</filter>
					<sourcetrack>
						<mediatype>audio</mediatype>
						<trackindex>1</trackindex>
					</sourcetrack>
					<link>
						<linkclipref>msub200012-3011-k1d1-009 4</linkclipref>
						<mediatype>audio</mediatype>
						<trackindex>1</trackindex>
						<clipindex>13</clipindex>
					</link>
					<link>
						<linkclipref>msub200012-3011-k1d1-009 5</linkclipref>
						<mediatype>audio</mediatype>
						<trackindex>2</trackindex>
						<clipindex>7</clipindex>
					</link>
				</clipitem>
				<transitionitem id="22">
					<rate>
						<ntsc>FALSE</ntsc>
						<timebase>25</timebase>
					</rate>
					<start>2363</start>
					<end>2365</end>
					<alignment>center</alignment>
					<effect>
						<name>Cross Fade (+3dB) Copy</name>
						<effecttype>transition</effecttype>
						<mediatype>audio</mediatype>
					</effect>
				</transitionitem>
				<clipitem id="msub200012-3011-k1d1-009 6">
					<name>msub200012-3011-k1d1-009</name>
					<duration>2155</duration>
					<rate>
						<ntsc>FALSE</ntsc>
						<timebase>25</timebase>
					</rate>
					<in>1843</in>
					<out>2014</out>
					<start>-1</start>
					<end>-1</end>
					<subframeoffset>0</subframeoffset>
					<masterclipid>msub200012-3011-k1d1-009 1</masterclipid>
					<syncoffset>0</syncoffset>
					<logginginfo>
						<description>msub200012-3011-k1d1-009</description>
						<scene/>
						<shottake/>
						<lognote/>
						<good>FALSE</good>
					</logginginfo>
					<labels>
						<label>Good Take</label>
						<label2/>
					</labels>
					<comments>
						<mastercomment1>RÃ…STOFF. BR_FINFREDAG_MSUA_OPRO</mastercomment1>
						<mastercomment2/>
						<mastercomment3/>
						<mastercomment4/>
						<clipcommenta/>
					</comments>
					<file id="msub200012-3011-k1d1-009 2"/>
					<filter>
						<enabled>TRUE</enabled>
						<start>-1</start>
						<end>-1</end>
						<effect>
							<name>3 Band Equalizer - Kristine</name>
							<effecttype>filter</effecttype>
							<mediatype>audio</mediatype>
							<parameter>
								<parameterid>Low Frequency</parameterid>
								<name>Low Frequency</name>
								<valuemin>80</valuemin>
								<valuemax>2000</valuemax>
								<value>80</value>
							</parameter>
							<parameter>
								<parameterid>Low Gain(dB)</parameterid>
								<name>Low Gain(dB)</name>
								<valuemin>-20</valuemin>
								<valuemax>20</valuemax>
								<value>-4</value>
							</parameter>
							<parameter>
								<parameterid>Mid Frequency</parameterid>
								<name>Mid Frequency</name>
								<valuemin>400</valuemin>
								<valuemax>8000</valuemax>
								<value>3602</value>
							</parameter>
							<parameter>
								<parameterid>Mid Gain(dB)</parameterid>
								<name>Mid Gain(dB)</name>
								<valuemin>-20</valuemin>
								<valuemax>20</valuemax>
								<value>3</value>
							</parameter>
							<parameter>
								<parameterid>High Frequency</parameterid>
								<name>High Frequency</name>
								<valuemin>5000</valuemin>
								<valuemax>20000</valuemax>
								<value>10354</value>
							</parameter>
							<parameter>
								<parameterid>High Gain(dB)</parameterid>
								<name>High Gain(dB)</name>
								<valuemin>-20</valuemin>
								<valuemax>20</valuemax>
								<value>0</value>
							</parameter>
						</effect>
					</filter>
					<filter>
						<enabled>TRUE</enabled>
						<start>-1</start>
						<end>-1</end>
						<effect>
							<name>Compressor/Limiter</name>
							<effecttype>filter</effecttype>
							<mediatype>audio</mediatype>
							<parameter>
								<parameterid>Threshold(dB)</parameterid>
								<name>Threshold(dB)</name>
								<valuemin>-90</valuemin>
								<valuemax>0</valuemax>
								<value>-20</value>
							</parameter>
							<parameter>
								<parameterid>Ratio</parameterid>
								<name>Ratio</name>
								<valuemin>1</valuemin>
								<valuemax>100</valuemax>
								<value>2</value>
							</parameter>
							<parameter>
								<parameterid>Attack Time</parameterid>
								<name>Attack Time</name>
								<valuemin>1</valuemin>
								<valuemax>100</valuemax>
								<value>5</value>
							</parameter>
							<parameter>
								<parameterid>Release Time</parameterid>
								<name>Release Time</name>
								<valuemin>1</valuemin>
								<valuemax>4000</valuemax>
								<value>209</value>
							</parameter>
							<parameter>
								<parameterid>Preserve Volume</parameterid>
								<name>Preserve Volume</name>
								<value>TRUE</value>
							</parameter>
						</effect>
					</filter>
					<filter>
						<effect>
							<name>Audio Levels</name>
							<effectid>audiolevels</effectid>
							<effectcategory>audiolevels</effectcategory>
							<effecttype>audiolevels</effecttype>
							<mediatype>audio</mediatype>
							<parameter>
								<name>Level</name>
								<parameterid>level</parameterid>
								<valuemin>0</valuemin>
								<valuemax>3.98109</valuemax>
								<keyframe>
									<when>1892</when>
									<value>1</value>
								</keyframe>
								<keyframe>
									<when>1893.43</when>
									<value>1.41254</value>
								</keyframe>
								<keyframe>
									<when>1923.71</when>
									<value>1.41254</value>
								</keyframe>
								<keyframe>
									<when>1924.86</when>
									<value>1.25893</value>
								</keyframe>
								<keyframe>
									<when>1978.43</when>
									<value>1.25893</value>
								</keyframe>
								<keyframe>
									<when>1981.57</when>
									<value>0.891251</value>
								</keyframe>
								<interpolation>
									<name>FCPCurve</name>
								</interpolation>
								<value>1</value>
							</parameter>
						</effect>
					</filter>
					<filter>
						<effect>
							<name>Audio Pan</name>
							<effectid>audiopan</effectid>
							<effectcategory>audiopan</effectcategory>
							<effecttype>audiopan</effecttype>
							<mediatype>audio</mediatype>
							<parameter>
								<name>Pan</name>
								<parameterid>pan</parameterid>
								<valuemin>-1</valuemin>
								<valuemax>1</valuemax>
								<value>0</value>
							</parameter>
						</effect>
					</filter>
					<sourcetrack>
						<mediatype>audio</mediatype>
						<trackindex>1</trackindex>
					</sourcetrack>
					<link>
						<linkclipref>msub200012-3011-k1d1-009 6</linkclipref>
						<mediatype>audio</mediatype>
						<trackindex>1</trackindex>
						<clipindex>15</clipindex>
					</link>
					<link>
						<linkclipref>msub200012-3011-k1d1-009 7</linkclipref>
						<mediatype>audio</mediatype>
						<trackindex>2</trackindex>
						<clipindex>9</clipindex>
					</link>
				</clipitem>
				<transitionitem id="38550324 ">
					<rate>
						<ntsc>FALSE</ntsc>
						<timebase>25</timebase>
					</rate>
					<start>2528</start>
					<end>2534</end>
					<alignment>end-black</alignment>
					<effect>
						<name>Cross Fade (+3dB) Copy</name>
						<effecttype>transition</effecttype>
						<mediatype>audio</mediatype>
					</effect>
				</transitionitem>
				<transitionitem id="38550800 ">
					<rate>
						<ntsc>FALSE</ntsc>
						<timebase>25</timebase>
					</rate>
					<start>3138</start>
					<end>3144</end>
					<alignment>start-black</alignment>
					<effect>
						<name>Cross Fade (+3dB)</name>
						<effecttype>transition</effecttype>
						<mediatype>audio</mediatype>
					</effect>
				</transitionitem>
				<clipitem id="msub200012-3011-k1d1-010 3">
					<name>msub200012-3011-k1d1-010</name>
					<duration>10013</duration>
					<rate>
						<ntsc>FALSE</ntsc>
						<timebase>25</timebase>
					</rate>
					<in>469</in>
					<out>617</out>
					<start>-1</start>
					<end>-1</end>
					<subframeoffset>0</subframeoffset>
					<masterclipid>msub200012-3011-k1d1-010 1</masterclipid>
					<logginginfo>
						<description>msub200012-3011-k1d1-010</description>
						<scene/>
						<shottake/>
						<lognote/>
						<good>FALSE</good>
					</logginginfo>
					<labels>
						<label2/>
					</labels>
					<comments>
						<mastercomment1>RÃ…STOFF. BR_FINFREDAG_MSUA_OPRO</mastercomment1>
						<mastercomment2/>
						<mastercomment3/>
						<mastercomment4/>
						<clipcommenta/>
					</comments>
					<file id="msub200012-3011-k1d1-010 2"/>
					<filter>
						<enabled>TRUE</enabled>
						<start>-1</start>
						<end>-1</end>
						<effect>
							<name>3 Band Equalizer - Kristine</name>
							<effecttype>filter</effecttype>
							<mediatype>audio</mediatype>
							<parameter>
								<parameterid>Low Frequency</parameterid>
								<name>Low Frequency</name>
								<valuemin>80</valuemin>
								<valuemax>2000</valuemax>
								<value>80</value>
							</parameter>
							<parameter>
								<parameterid>Low Gain(dB)</parameterid>
								<name>Low Gain(dB)</name>
								<valuemin>-20</valuemin>
								<valuemax>20</valuemax>
								<value>-4</value>
							</parameter>
							<parameter>
								<parameterid>Mid Frequency</parameterid>
								<name>Mid Frequency</name>
								<valuemin>400</valuemin>
								<valuemax>8000</valuemax>
								<value>3602</value>
							</parameter>
							<parameter>
								<parameterid>Mid Gain(dB)</parameterid>
								<name>Mid Gain(dB)</name>
								<valuemin>-20</valuemin>
								<valuemax>20</valuemax>
								<value>3</value>
							</parameter>
							<parameter>
								<parameterid>High Frequency</parameterid>
								<name>High Frequency</name>
								<valuemin>5000</valuemin>
								<valuemax>20000</valuemax>
								<value>10354</value>
							</parameter>
							<parameter>
								<parameterid>High Gain(dB)</parameterid>
								<name>High Gain(dB)</name>
								<valuemin>-20</valuemin>
								<valuemax>20</valuemax>
								<value>0</value>
							</parameter>
						</effect>
					</filter>
					<filter>
						<enabled>TRUE</enabled>
						<start>-1</start>
						<end>-1</end>
						<effect>
							<name>Compressor/Limiter</name>
							<effecttype>filter</effecttype>
							<mediatype>audio</mediatype>
							<parameter>
								<parameterid>Threshold(dB)</parameterid>
								<name>Threshold(dB)</name>
								<valuemin>-90</valuemin>
								<valuemax>0</valuemax>
								<value>-20</value>
							</parameter>
							<parameter>
								<parameterid>Ratio</parameterid>
								<name>Ratio</name>
								<valuemin>1</valuemin>
								<valuemax>100</valuemax>
								<value>2</value>
							</parameter>
							<parameter>
								<parameterid>Attack Time</parameterid>
								<name>Attack Time</name>
								<valuemin>1</valuemin>
								<valuemax>100</valuemax>
								<value>5</value>
							</parameter>
							<parameter>
								<parameterid>Release Time</parameterid>
								<name>Release Time</name>
								<valuemin>1</valuemin>
								<valuemax>4000</valuemax>
								<value>209</value>
							</parameter>
							<parameter>
								<parameterid>Preserve Volume</parameterid>
								<name>Preserve Volume</name>
								<value>TRUE</value>
							</parameter>
						</effect>
					</filter>
					<filter>
						<effect>
							<name>Audio Levels</name>
							<effectid>audiolevels</effectid>
							<effectcategory>audiolevels</effectcategory>
							<effecttype>audiolevels</effecttype>
							<mediatype>audio</mediatype>
							<parameter>
								<name>Level</name>
								<parameterid>level</parameterid>
								<valuemin>0</valuemin>
								<valuemax>3.98109</valuemax>
								<value>0.0501187</value>
							</parameter>
						</effect>
					</filter>
					<filter>
						<effect>
							<name>Audio Pan</name>
							<effectid>audiopan</effectid>
							<effectcategory>audiopan</effectcategory>
							<effecttype>audiopan</effecttype>
							<mediatype>audio</mediatype>
							<parameter>
								<name>Pan</name>
								<parameterid>pan</parameterid>
								<valuemin>-1</valuemin>
								<valuemax>1</valuemax>
								<value>0</value>
							</parameter>
						</effect>
					</filter>
					<sourcetrack>
						<mediatype>audio</mediatype>
						<trackindex>1</trackindex>
					</sourcetrack>
					<link>
						<linkclipref>msub200012-3011-k1d1-010 </linkclipref>
						<mediatype>video</mediatype>
						<trackindex>1</trackindex>
						<clipindex>9</clipindex>
					</link>
					<link>
						<linkclipref>msub200012-3011-k1d1-010 3</linkclipref>
						<mediatype>audio</mediatype>
						<trackindex>1</trackindex>
						<clipindex>18</clipindex>
					</link>
					<link>
						<linkclipref>msub200012-3011-k1d1-010 4</linkclipref>
						<mediatype>audio</mediatype>
						<trackindex>2</trackindex>
						<clipindex>12</clipindex>
					</link>
				</clipitem>
				<transitionitem id="38554268 ">
					<rate>
						<ntsc>FALSE</ntsc>
						<timebase>25</timebase>
					</rate>
					<start>3280</start>
					<end>3286</end>
					<alignment>center</alignment>
					<effect>
						<name>Cross Fade (+3dB) Copy</name>
						<effecttype>transition</effecttype>
						<mediatype>audio</mediatype>
					</effect>
				</transitionitem>
				<clipitem id="msub200012-3011-k1d1-010 6">
					<name>msub200012-3011-k1d1-010</name>
					<duration>10013</duration>
					<rate>
						<ntsc>FALSE</ntsc>
						<timebase>25</timebase>
					</rate>
					<in>1593</in>
					<out>1990</out>
					<start>-1</start>
					<end>-1</end>
					<subframeoffset>0</subframeoffset>
					<masterclipid>msub200012-3011-k1d1-010 1</masterclipid>
					<logginginfo>
						<description>msub200012-3011-k1d1-010</description>
						<scene/>
						<shottake/>
						<lognote/>
						<good>FALSE</good>
					</logginginfo>
					<labels>
						<label2/>
					</labels>
					<comments>
						<mastercomment1>RÃ…STOFF. BR_FINFREDAG_MSUA_OPRO</mastercomment1>
						<mastercomment2/>
						<mastercomment3/>
						<mastercomment4/>
						<clipcommenta/>
					</comments>
					<file id="msub200012-3011-k1d1-010 2"/>
					<filter>
						<enabled>TRUE</enabled>
						<start>-1</start>
						<end>-1</end>
						<effect>
							<name>3 Band Equalizer - Kristine</name>
							<effecttype>filter</effecttype>
							<mediatype>audio</mediatype>
							<parameter>
								<parameterid>Low Frequency</parameterid>
								<name>Low Frequency</name>
								<valuemin>80</valuemin>
								<valuemax>2000</valuemax>
								<value>80</value>
							</parameter>
							<parameter>
								<parameterid>Low Gain(dB)</parameterid>
								<name>Low Gain(dB)</name>
								<valuemin>-20</valuemin>
								<valuemax>20</valuemax>
								<value>-4</value>
							</parameter>
							<parameter>
								<parameterid>Mid Frequency</parameterid>
								<name>Mid Frequency</name>
								<valuemin>400</valuemin>
								<valuemax>8000</valuemax>
								<value>3602</value>
							</parameter>
							<parameter>
								<parameterid>Mid Gain(dB)</parameterid>
								<name>Mid Gain(dB)</name>
								<valuemin>-20</valuemin>
								<valuemax>20</valuemax>
								<value>3</value>
							</parameter>
							<parameter>
								<parameterid>High Frequency</parameterid>
								<name>High Frequency</name>
								<valuemin>5000</valuemin>
								<valuemax>20000</valuemax>
								<value>10354</value>
							</parameter>
							<parameter>
								<parameterid>High Gain(dB)</parameterid>
								<name>High Gain(dB)</name>
								<valuemin>-20</valuemin>
								<valuemax>20</valuemax>
								<value>0</value>
							</parameter>
						</effect>
					</filter>
					<filter>
						<enabled>TRUE</enabled>
						<start>-1</start>
						<end>-1</end>
						<effect>
							<name>Compressor/Limiter</name>
							<effecttype>filter</effecttype>
							<mediatype>audio</mediatype>
							<parameter>
								<parameterid>Threshold(dB)</parameterid>
								<name>Threshold(dB)</name>
								<valuemin>-90</valuemin>
								<valuemax>0</valuemax>
								<value>-20</value>
							</parameter>
							<parameter>
								<parameterid>Ratio</parameterid>
								<name>Ratio</name>
								<valuemin>1</valuemin>
								<valuemax>100</valuemax>
								<value>2</value>
							</parameter>
							<parameter>
								<parameterid>Attack Time</parameterid>
								<name>Attack Time</name>
								<valuemin>1</valuemin>
								<valuemax>100</valuemax>
								<value>5</value>
							</parameter>
							<parameter>
								<parameterid>Release Time</parameterid>
								<name>Release Time</name>
								<valuemin>1</valuemin>
								<valuemax>4000</valuemax>
								<value>209</value>
							</parameter>
							<parameter>
								<parameterid>Preserve Volume</parameterid>
								<name>Preserve Volume</name>
								<value>TRUE</value>
							</parameter>
						</effect>
					</filter>
					<filter>
						<effect>
							<name>Audio Levels</name>
							<effectid>audiolevels</effectid>
							<effectcategory>audiolevels</effectcategory>
							<effecttype>audiolevels</effecttype>
							<mediatype>audio</mediatype>
							<parameter>
								<name>Level</name>
								<parameterid>level</parameterid>
								<valuemin>0</valuemin>
								<valuemax>3.98109</valuemax>
								<value>0.0354813</value>
							</parameter>
						</effect>
					</filter>
					<filter>
						<effect>
							<name>Audio Pan</name>
							<effectid>audiopan</effectid>
							<effectcategory>audiopan</effectcategory>
							<effecttype>audiopan</effecttype>
							<mediatype>audio</mediatype>
							<parameter>
								<name>Pan</name>
								<parameterid>pan</parameterid>
								<valuemin>-1</valuemin>
								<valuemax>1</valuemax>
								<value>0</value>
							</parameter>
						</effect>
					</filter>
					<sourcetrack>
						<mediatype>audio</mediatype>
						<trackindex>1</trackindex>
					</sourcetrack>
					<link>
						<linkclipref>msub200012-3011-k1d1-010 5</linkclipref>
						<mediatype>video</mediatype>
						<trackindex>1</trackindex>
						<clipindex>10</clipindex>
					</link>
					<link>
						<linkclipref>msub200012-3011-k1d1-010 6</linkclipref>
						<mediatype>audio</mediatype>
						<trackindex>1</trackindex>
						<clipindex>20</clipindex>
					</link>
					<link>
						<linkclipref>msub200012-3011-k1d1-010 7</linkclipref>
						<mediatype>audio</mediatype>
						<trackindex>2</trackindex>
						<clipindex>14</clipindex>
					</link>
				</clipitem>
				<transitionitem id="38557736 ">
					<rate>
						<ntsc>FALSE</ntsc>
						<timebase>25</timebase>
					</rate>
					<start>3671</start>
					<end>3677</end>
					<alignment>center</alignment>
					<effect>
						<name>Cross Fade (+3dB)</name>
						<effecttype>transition</effecttype>
						<mediatype>audio</mediatype>
					</effect>
				</transitionitem>
				<transitionitem id="38558212 ">
					<rate>
						<ntsc>FALSE</ntsc>
						<timebase>25</timebase>
					</rate>
					<start>4177</start>
					<end>4183</end>
					<alignment>start-black</alignment>
					<effect>
						<name>Cross Fade (+3dB)</name>
						<effecttype>transition</effecttype>
						<mediatype>audio</mediatype>
					</effect>
				</transitionitem>
				<clipitem id="msub200012-3011-k1d1-010 9">
					<name>msub200012-3011-k1d1-010</name>
					<duration>10013</duration>
					<rate>
						<ntsc>FALSE</ntsc>
						<timebase>25</timebase>
					</rate>
					<in>2585</in>
					<out>2808</out>
					<start>-1</start>
					<end>-1</end>
					<subframeoffset>0</subframeoffset>
					<masterclipid>msub200012-3011-k1d1-010 1</masterclipid>
					<logginginfo>
						<description>msub200012-3011-k1d1-010</description>
						<scene/>
						<shottake/>
						<lognote/>
						<good>FALSE</good>
					</logginginfo>
					<labels>
						<label2/>
					</labels>
					<comments>
						<mastercomment1>RÃ…STOFF. BR_FINFREDAG_MSUA_OPRO</mastercomment1>
						<mastercomment2/>
						<mastercomment3/>
						<mastercomment4/>
						<clipcommenta/>
					</comments>
					<file id="msub200012-3011-k1d1-010 2"/>
					<filter>
						<effect>
							<name>Audio Levels</name>
							<effectid>audiolevels</effectid>
							<effectcategory>audiolevels</effectcategory>
							<effecttype>audiolevels</effecttype>
							<mediatype>audio</mediatype>
							<parameter>
								<name>Level</name>
								<parameterid>level</parameterid>
								<valuemin>0</valuemin>
								<valuemax>3.98109</valuemax>
								<keyframe>
									<when>2625.27</when>
									<value>0.112202</value>
								</keyframe>
								<interpolation>
									<name>FCPCurve</name>
								</interpolation>
								<value>0.112202</value>
							</parameter>
						</effect>
					</filter>
					<filter>
						<effect>
							<name>Audio Pan</name>
							<effectid>audiopan</effectid>
							<effectcategory>audiopan</effectcategory>
							<effecttype>audiopan</effecttype>
							<mediatype>audio</mediatype>
							<parameter>
								<name>Pan</name>
								<parameterid>pan</parameterid>
								<valuemin>-1</valuemin>
								<valuemax>1</valuemax>
								<value>0</value>
							</parameter>
						</effect>
					</filter>
					<sourcetrack>
						<mediatype>audio</mediatype>
						<trackindex>1</trackindex>
					</sourcetrack>
					<link>
						<linkclipref>msub200012-3011-k1d1-010 8</linkclipref>
						<mediatype>video</mediatype>
						<trackindex>1</trackindex>
						<clipindex>16</clipindex>
					</link>
					<link>
						<linkclipref>msub200012-3011-k1d1-010 9</linkclipref>
						<mediatype>audio</mediatype>
						<trackindex>1</trackindex>
						<clipindex>23</clipindex>
					</link>
					<link>
						<linkclipref>msub200012-3011-k1d1-010 10</linkclipref>
						<mediatype>audio</mediatype>
						<trackindex>2</trackindex>
						<clipindex>17</clipindex>
					</link>
				</clipitem>
				<transitionitem id="23">
					<rate>
						<ntsc>FALSE</ntsc>
						<timebase>25</timebase>
					</rate>
					<start>4396</start>
					<end>4400</end>
					<alignment>center</alignment>
					<effect>
						<name>Cross Fade (+3dB) Copy</name>
						<effecttype>transition</effecttype>
						<mediatype>audio</mediatype>
					</effect>
				</transitionitem>
				<clipitem id="msub200012-3011-k1d1-010 12">
					<name>msub200012-3011-k1d1-010</name>
					<duration>10013</duration>
					<rate>
						<ntsc>FALSE</ntsc>
						<timebase>25</timebase>
					</rate>
					<in>3586</in>
					<out>3746</out>
					<start>-1</start>
					<end>-1</end>
					<subframeoffset>0</subframeoffset>
					<masterclipid>msub200012-3011-k1d1-010 1</masterclipid>
					<logginginfo>
						<description>msub200012-3011-k1d1-010</description>
						<scene/>
						<shottake/>
						<lognote/>
						<good>FALSE</good>
					</logginginfo>
					<labels>
						<label2/>
					</labels>
					<comments>
						<mastercomment1>RÃ…STOFF. BR_FINFREDAG_MSUA_OPRO</mastercomment1>
						<mastercomment2/>
						<mastercomment3/>
						<mastercomment4/>
						<clipcommenta/>
					</comments>
					<file id="msub200012-3011-k1d1-010 2"/>
					<filter>
						<effect>
							<name>Audio Levels</name>
							<effectid>audiolevels</effectid>
							<effectcategory>audiolevels</effectcategory>
							<effecttype>audiolevels</effecttype>
							<mediatype>audio</mediatype>
							<parameter>
								<name>Level</name>
								<parameterid>level</parameterid>
								<valuemin>0</valuemin>
								<valuemax>3.98109</valuemax>
								<value>0.112202</value>
							</parameter>
						</effect>
					</filter>
					<filter>
						<effect>
							<name>Audio Pan</name>
							<effectid>audiopan</effectid>
							<effectcategory>audiopan</effectcategory>
							<effecttype>audiopan</effecttype>
							<mediatype>audio</mediatype>
							<parameter>
								<name>Pan</name>
								<parameterid>pan</parameterid>
								<valuemin>-1</valuemin>
								<valuemax>1</valuemax>
								<value>0</value>
							</parameter>
						</effect>
					</filter>
					<sourcetrack>
						<mediatype>audio</mediatype>
						<trackindex>1</trackindex>
					</sourcetrack>
					<link>
						<linkclipref>msub200012-3011-k1d1-010 11</linkclipref>
						<mediatype>video</mediatype>
						<trackindex>1</trackindex>
						<clipindex>17</clipindex>
					</link>
					<link>
						<linkclipref>msub200012-3011-k1d1-010 12</linkclipref>
						<mediatype>audio</mediatype>
						<trackindex>1</trackindex>
						<clipindex>25</clipindex>
					</link>
					<link>
						<linkclipref>msub200012-3011-k1d1-010 13</linkclipref>
						<mediatype>audio</mediatype>
						<trackindex>2</trackindex>
						<clipindex>19</clipindex>
					</link>
				</clipitem>
				<transitionitem id="38559980 ">
					<rate>
						<ntsc>FALSE</ntsc>
						<timebase>25</timebase>
					</rate>
					<start>4550</start>
					<end>4556</end>
					<alignment>center</alignment>
					<effect>
						<name>Cross Fade (+3dB) Copy</name>
						<effecttype>transition</effecttype>
						<mediatype>audio</mediatype>
					</effect>
				</transitionitem>
				<clipitem id="msub200012-3011-k1d1-010 15">
					<name>msub200012-3011-k1d1-010</name>
					<duration>10013</duration>
					<rate>
						<ntsc>FALSE</ntsc>
						<timebase>25</timebase>
					</rate>
					<in>7090</in>
					<out>7503</out>
					<start>-1</start>
					<end>4963</end>
					<subframeoffset>0</subframeoffset>
					<enabled>TRUE</enabled>
					<masterclipid>msub200012-3011-k1d1-010 1</masterclipid>
					<logginginfo>
						<description>msub200012-3011-k1d1-010</description>
						<scene/>
						<shottake/>
						<lognote/>
						<good>FALSE</good>
					</logginginfo>
					<labels>
						<label2/>
					</labels>
					<comments>
						<mastercomment1>RÃ…STOFF. BR_FINFREDAG_MSUA_OPRO</mastercomment1>
						<mastercomment2/>
						<mastercomment3/>
						<mastercomment4/>
						<clipcommenta/>
					</comments>
					<file id="msub200012-3011-k1d1-010 2"/>
					<filter>
						<enabled>TRUE</enabled>
						<start>-1</start>
						<end>-1</end>
						<effect>
							<name>3 Band Equalizer - Kristine</name>
							<effecttype>filter</effecttype>
							<mediatype>audio</mediatype>
							<parameter>
								<parameterid>Low Frequency</parameterid>
								<name>Low Frequency</name>
								<valuemin>80</valuemin>
								<valuemax>2000</valuemax>
								<value>80</value>
							</parameter>
							<parameter>
								<parameterid>Low Gain(dB)</parameterid>
								<name>Low Gain(dB)</name>
								<valuemin>-20</valuemin>
								<valuemax>20</valuemax>
								<value>-4</value>
							</parameter>
							<parameter>
								<parameterid>Mid Frequency</parameterid>
								<name>Mid Frequency</name>
								<valuemin>400</valuemin>
								<valuemax>8000</valuemax>
								<value>3602</value>
							</parameter>
							<parameter>
								<parameterid>Mid Gain(dB)</parameterid>
								<name>Mid Gain(dB)</name>
								<valuemin>-20</valuemin>
								<valuemax>20</valuemax>
								<value>3</value>
							</parameter>
							<parameter>
								<parameterid>High Frequency</parameterid>
								<name>High Frequency</name>
								<valuemin>5000</valuemin>
								<valuemax>20000</valuemax>
								<value>10354</value>
							</parameter>
							<parameter>
								<parameterid>High Gain(dB)</parameterid>
								<name>High Gain(dB)</name>
								<valuemin>-20</valuemin>
								<valuemax>20</valuemax>
								<value>0</value>
							</parameter>
						</effect>
					</filter>
					<filter>
						<enabled>TRUE</enabled>
						<start>-1</start>
						<end>-1</end>
						<effect>
							<name>Compressor/Limiter</name>
							<effecttype>filter</effecttype>
							<mediatype>audio</mediatype>
							<parameter>
								<parameterid>Threshold(dB)</parameterid>
								<name>Threshold(dB)</name>
								<valuemin>-90</valuemin>
								<valuemax>0</valuemax>
								<value>-20</value>
							</parameter>
							<parameter>
								<parameterid>Ratio</parameterid>
								<name>Ratio</name>
								<valuemin>1</valuemin>
								<valuemax>100</valuemax>
								<value>2</value>
							</parameter>
							<parameter>
								<parameterid>Attack Time</parameterid>
								<name>Attack Time</name>
								<valuemin>1</valuemin>
								<valuemax>100</valuemax>
								<value>5</value>
							</parameter>
							<parameter>
								<parameterid>Release Time</parameterid>
								<name>Release Time</name>
								<valuemin>1</valuemin>
								<valuemax>4000</valuemax>
								<value>209</value>
							</parameter>
							<parameter>
								<parameterid>Preserve Volume</parameterid>
								<name>Preserve Volume</name>
								<value>TRUE</value>
							</parameter>
						</effect>
					</filter>
					<filter>
						<effect>
							<name>Audio Levels</name>
							<effectid>audiolevels</effectid>
							<effectcategory>audiolevels</effectcategory>
							<effecttype>audiolevels</effecttype>
							<mediatype>audio</mediatype>
							<parameter>
								<name>Level</name>
								<parameterid>level</parameterid>
								<valuemin>0</valuemin>
								<valuemax>3.98109</valuemax>
								<keyframe>
									<when>6923.86</when>
									<value>0.0630957</value>
								</keyframe>
								<keyframe>
									<when>6926.14</when>
									<value>0.0630957</value>
								</keyframe>
								<keyframe>
									<when>6930.43</when>
									<value>0.0630957</value>
								</keyframe>
								<keyframe>
									<when>6933</when>
									<value>0.0630957</value>
								</keyframe>
								<interpolation>
									<name>FCPCurve</name>
								</interpolation>
								<value>0.0630957</value>
							</parameter>
						</effect>
					</filter>
					<filter>
						<effect>
							<name>Audio Pan</name>
							<effectid>audiopan</effectid>
							<effectcategory>audiopan</effectcategory>
							<effecttype>audiopan</effecttype>
							<mediatype>audio</mediatype>
							<parameter>
								<name>Pan</name>
								<parameterid>pan</parameterid>
								<valuemin>-1</valuemin>
								<valuemax>1</valuemax>
								<value>0</value>
							</parameter>
						</effect>
					</filter>
					<sourcetrack>
						<mediatype>audio</mediatype>
						<trackindex>1</trackindex>
					</sourcetrack>
					<link>
						<linkclipref>msub200012-3011-k1d1-010 14</linkclipref>
						<mediatype>video</mediatype>
						<trackindex>1</trackindex>
						<clipindex>18</clipindex>
					</link>
					<link>
						<linkclipref>msub200012-3011-k1d1-010 15</linkclipref>
						<mediatype>audio</mediatype>
						<trackindex>1</trackindex>
						<clipindex>27</clipindex>
					</link>
					<link>
						<linkclipref>msub200012-3011-k1d1-010 16</linkclipref>
						<mediatype>audio</mediatype>
						<trackindex>2</trackindex>
						<clipindex>21</clipindex>
					</link>
				</clipitem>
				<clipitem id="msub200012-3011-k1d1-010 20">
					<name>msub200012-3011-k1d1-010</name>
					<duration>10013</duration>
					<rate>
						<ntsc>FALSE</ntsc>
						<timebase>25</timebase>
					</rate>
					<in>7832</in>
					<out>7989</out>
					<start>4963</start>
					<end>5120</end>
					<subframeoffset>0</subframeoffset>
					<masterclipid>msub200012-3011-k1d1-010 1</masterclipid>
					<logginginfo>
						<description>msub200012-3011-k1d1-010</description>
						<scene/>
						<shottake/>
						<lognote/>
						<good>FALSE</good>
					</logginginfo>
					<labels>
						<label2/>
					</labels>
					<comments>
						<mastercomment1>RÃ…STOFF. BR_FINFREDAG_MSUA_OPRO</mastercomment1>
						<mastercomment2/>
						<mastercomment3/>
						<mastercomment4/>
						<clipcommenta/>
					</comments>
					<file id="msub200012-3011-k1d1-010 2"/>
					<filter>
						<effect>
							<name>Audio Levels</name>
							<effectid>audiolevels</effectid>
							<effectcategory>audiolevels</effectcategory>
							<effecttype>audiolevels</effecttype>
							<mediatype>audio</mediatype>
							<parameter>
								<name>Level</name>
								<parameterid>level</parameterid>
								<valuemin>0</valuemin>
								<valuemax>3.98109</valuemax>
								<value>0.0562341</value>
							</parameter>
						</effect>
					</filter>
					<filter>
						<effect>
							<name>Audio Pan</name>
							<effectid>audiopan</effectid>
							<effectcategory>audiopan</effectcategory>
							<effecttype>audiopan</effecttype>
							<mediatype>audio</mediatype>
							<parameter>
								<name>Pan</name>
								<parameterid>pan</parameterid>
								<valuemin>-1</valuemin>
								<valuemax>1</valuemax>
								<value>0</value>
							</parameter>
						</effect>
					</filter>
					<sourcetrack>
						<mediatype>audio</mediatype>
						<trackindex>1</trackindex>
					</sourcetrack>
				</clipitem>
				<clipitem id="msub200012-3011-k1d1-010 21">
					<name>msub200012-3011-k1d1-010</name>
					<duration>10013</duration>
					<rate>
						<ntsc>FALSE</ntsc>
						<timebase>25</timebase>
					</rate>
					<in>8288</in>
					<out>8639</out>
					<start>5120</start>
					<end>5471</end>
					<subframeoffset>0</subframeoffset>
					<masterclipid>msub200012-3011-k1d1-010 1</masterclipid>
					<logginginfo>
						<description>msub200012-3011-k1d1-010</description>
						<scene/>
						<shottake/>
						<lognote/>
						<good>FALSE</good>
					</logginginfo>
					<labels>
						<label2/>
					</labels>
					<comments>
						<mastercomment1>RÃ…STOFF. BR_FINFREDAG_MSUA_OPRO</mastercomment1>
						<mastercomment2/>
						<mastercomment3/>
						<mastercomment4/>
						<clipcommenta/>
					</comments>
					<file id="msub200012-3011-k1d1-010 2"/>
					<filter>
						<effect>
							<name>Audio Levels</name>
							<effectid>audiolevels</effectid>
							<effectcategory>audiolevels</effectcategory>
							<effecttype>audiolevels</effecttype>
							<mediatype>audio</mediatype>
							<parameter>
								<name>Level</name>
								<parameterid>level</parameterid>
								<valuemin>0</valuemin>
								<valuemax>3.98109</valuemax>
								<value>0.0562341</value>
							</parameter>
						</effect>
					</filter>
					<filter>
						<effect>
							<name>Audio Pan</name>
							<effectid>audiopan</effectid>
							<effectcategory>audiopan</effectcategory>
							<effecttype>audiopan</effecttype>
							<mediatype>audio</mediatype>
							<parameter>
								<name>Pan</name>
								<parameterid>pan</parameterid>
								<valuemin>-1</valuemin>
								<valuemax>1</valuemax>
								<value>0</value>
							</parameter>
						</effect>
					</filter>
					<sourcetrack>
						<mediatype>audio</mediatype>
						<trackindex>1</trackindex>
					</sourcetrack>
				</clipitem>
				<transitionitem id="38564196 ">
					<rate>
						<ntsc>FALSE</ntsc>
						<timebase>25</timebase>
					</rate>
					<start>5583</start>
					<end>5589</end>
					<alignment>center</alignment>
					<effect>
						<name>Cross Fade (+3dB)</name>
						<effecttype>transition</effecttype>
						<mediatype>audio</mediatype>
					</effect>
				</transitionitem>
				<clipitem id="msub200012-3011-k1d1-026 3">
					<name>msub200012-3011-k1d1-026</name>
					<duration>1553</duration>
					<rate>
						<ntsc>FALSE</ntsc>
						<timebase>25</timebase>
					</rate>
					<in>426</in>
					<out>731</out>
					<start>-1</start>
					<end>5888</end>
					<subframeoffset>0</subframeoffset>
					<enabled>TRUE</enabled>
					<masterclipid>msub200012-3011-k1d1-026 1</masterclipid>
					<syncoffset>0</syncoffset>
					<logginginfo>
						<description>msub200012-3011-k1d1-026</description>
						<scene/>
						<shottake/>
						<lognote/>
						<good>FALSE</good>
					</logginginfo>
					<labels>
						<label>Best Take</label>
						<label2/>
					</labels>
					<comments>
						<mastercomment1>RÃ…STOFF. BR_FINFREDAG_MSUA_OPRO</mastercomment1>
						<mastercomment2/>
						<mastercomment3/>
						<mastercomment4/>
						<clipcommenta/>
					</comments>
					<file id="msub200012-3011-k1d1-026 2"/>
					<filter>
						<enabled>TRUE</enabled>
						<start>-1</start>
						<end>-1</end>
						<effect>
							<name>3 Band Equalizer - Kristine</name>
							<effecttype>filter</effecttype>
							<mediatype>audio</mediatype>
							<parameter>
								<parameterid>Low Frequency</parameterid>
								<name>Low Frequency</name>
								<valuemin>80</valuemin>
								<valuemax>2000</valuemax>
								<value>80</value>
							</parameter>
							<parameter>
								<parameterid>Low Gain(dB)</parameterid>
								<name>Low Gain(dB)</name>
								<valuemin>-20</valuemin>
								<valuemax>20</valuemax>
								<value>-4</value>
							</parameter>
							<parameter>
								<parameterid>Mid Frequency</parameterid>
								<name>Mid Frequency</name>
								<valuemin>400</valuemin>
								<valuemax>8000</valuemax>
								<value>3602</value>
							</parameter>
							<parameter>
								<parameterid>Mid Gain(dB)</parameterid>
								<name>Mid Gain(dB)</name>
								<valuemin>-20</valuemin>
								<valuemax>20</valuemax>
								<value>3</value>
							</parameter>
							<parameter>
								<parameterid>High Frequency</parameterid>
								<name>High Frequency</name>
								<valuemin>5000</valuemin>
								<valuemax>20000</valuemax>
								<value>10354</value>
							</parameter>
							<parameter>
								<parameterid>High Gain(dB)</parameterid>
								<name>High Gain(dB)</name>
								<valuemin>-20</valuemin>
								<valuemax>20</valuemax>
								<value>0</value>
							</parameter>
						</effect>
					</filter>
					<filter>
						<enabled>TRUE</enabled>
						<start>-1</start>
						<end>-1</end>
						<effect>
							<name>Compressor/Limiter</name>
							<effecttype>filter</effecttype>
							<mediatype>audio</mediatype>
							<parameter>
								<parameterid>Threshold(dB)</parameterid>
								<name>Threshold(dB)</name>
								<valuemin>-90</valuemin>
								<valuemax>0</valuemax>
								<value>-20</value>
							</parameter>
							<parameter>
								<parameterid>Ratio</parameterid>
								<name>Ratio</name>
								<valuemin>1</valuemin>
								<valuemax>100</valuemax>
								<value>2</value>
							</parameter>
							<parameter>
								<parameterid>Attack Time</parameterid>
								<name>Attack Time</name>
								<valuemin>1</valuemin>
								<valuemax>100</valuemax>
								<value>5</value>
							</parameter>
							<parameter>
								<parameterid>Release Time</parameterid>
								<name>Release Time</name>
								<valuemin>1</valuemin>
								<valuemax>4000</valuemax>
								<value>209</value>
							</parameter>
							<parameter>
								<parameterid>Preserve Volume</parameterid>
								<name>Preserve Volume</name>
								<value>TRUE</value>
							</parameter>
						</effect>
					</filter>
					<filter>
						<effect>
							<name>Audio Levels</name>
							<effectid>audiolevels</effectid>
							<effectcategory>audiolevels</effectcategory>
							<effecttype>audiolevels</effecttype>
							<mediatype>audio</mediatype>
							<parameter>
								<name>Level</name>
								<parameterid>level</parameterid>
								<valuemin>0</valuemin>
								<valuemax>3.98109</valuemax>
								<value>0.0354813</value>
							</parameter>
						</effect>
					</filter>
					<filter>
						<effect>
							<name>Audio Pan</name>
							<effectid>audiopan</effectid>
							<effectcategory>audiopan</effectcategory>
							<effecttype>audiopan</effecttype>
							<mediatype>audio</mediatype>
							<parameter>
								<name>Pan</name>
								<parameterid>pan</parameterid>
								<valuemin>-1</valuemin>
								<valuemax>1</valuemax>
								<value>0</value>
							</parameter>
						</effect>
					</filter>
					<sourcetrack>
						<mediatype>audio</mediatype>
						<trackindex>1</trackindex>
					</sourcetrack>
					<link>
						<linkclipref>msub200012-3011-k1d1-026 </linkclipref>
						<mediatype>video</mediatype>
						<trackindex>1</trackindex>
						<clipindex>22</clipindex>
					</link>
					<link>
						<linkclipref>msub200012-3011-k1d1-026 3</linkclipref>
						<mediatype>audio</mediatype>
						<trackindex>1</trackindex>
						<clipindex>31</clipindex>
					</link>
					<link>
						<linkclipref>msub200012-3011-k1d1-026 4</linkclipref>
						<mediatype>audio</mediatype>
						<trackindex>2</trackindex>
						<clipindex>28</clipindex>
					</link>
				</clipitem>
				<clipitem id="msub200012-3011-k1d1-026 6">
					<name>msub200012-3011-k1d1-026</name>
					<duration>1553</duration>
					<rate>
						<ntsc>FALSE</ntsc>
						<timebase>25</timebase>
					</rate>
					<in>824</in>
					<out>1031</out>
					<start>5888</start>
					<end>-1</end>
					<subframeoffset>0</subframeoffset>
					<enabled>TRUE</enabled>
					<masterclipid>msub200012-3011-k1d1-026 1</masterclipid>
					<syncoffset>0</syncoffset>
					<logginginfo>
						<description>msub200012-3011-k1d1-026</description>
						<scene/>
						<shottake/>
						<lognote/>
						<good>FALSE</good>
					</logginginfo>
					<labels>
						<label>Best Take</label>
						<label2/>
					</labels>
					<comments>
						<mastercomment1>RÃ…STOFF. BR_FINFREDAG_MSUA_OPRO</mastercomment1>
						<mastercomment2/>
						<mastercomment3/>
						<mastercomment4/>
						<clipcommenta/>
					</comments>
					<file id="msub200012-3011-k1d1-026 2"/>
					<filter>
						<enabled>TRUE</enabled>
						<start>-1</start>
						<end>-1</end>
						<effect>
							<name>3 Band Equalizer - Kristine</name>
							<effecttype>filter</effecttype>
							<mediatype>audio</mediatype>
							<parameter>
								<parameterid>Low Frequency</parameterid>
								<name>Low Frequency</name>
								<valuemin>80</valuemin>
								<valuemax>2000</valuemax>
								<value>80</value>
							</parameter>
							<parameter>
								<parameterid>Low Gain(dB)</parameterid>
								<name>Low Gain(dB)</name>
								<valuemin>-20</valuemin>
								<valuemax>20</valuemax>
								<value>-4</value>
							</parameter>
							<parameter>
								<parameterid>Mid Frequency</parameterid>
								<name>Mid Frequency</name>
								<valuemin>400</valuemin>
								<valuemax>8000</valuemax>
								<value>3602</value>
							</parameter>
							<parameter>
								<parameterid>Mid Gain(dB)</parameterid>
								<name>Mid Gain(dB)</name>
								<valuemin>-20</valuemin>
								<valuemax>20</valuemax>
								<value>3</value>
							</parameter>
							<parameter>
								<parameterid>High Frequency</parameterid>
								<name>High Frequency</name>
								<valuemin>5000</valuemin>
								<valuemax>20000</valuemax>
								<value>10354</value>
							</parameter>
							<parameter>
								<parameterid>High Gain(dB)</parameterid>
								<name>High Gain(dB)</name>
								<valuemin>-20</valuemin>
								<valuemax>20</valuemax>
								<value>0</value>
							</parameter>
						</effect>
					</filter>
					<filter>
						<enabled>TRUE</enabled>
						<start>-1</start>
						<end>-1</end>
						<effect>
							<name>Compressor/Limiter</name>
							<effecttype>filter</effecttype>
							<mediatype>audio</mediatype>
							<parameter>
								<parameterid>Threshold(dB)</parameterid>
								<name>Threshold(dB)</name>
								<valuemin>-90</valuemin>
								<valuemax>0</valuemax>
								<value>-20</value>
							</parameter>
							<parameter>
								<parameterid>Ratio</parameterid>
								<name>Ratio</name>
								<valuemin>1</valuemin>
								<valuemax>100</valuemax>
								<value>2</value>
							</parameter>
							<parameter>
								<parameterid>Attack Time</parameterid>
								<name>Attack Time</name>
								<valuemin>1</valuemin>
								<valuemax>100</valuemax>
								<value>5</value>
							</parameter>
							<parameter>
								<parameterid>Release Time</parameterid>
								<name>Release Time</name>
								<valuemin>1</valuemin>
								<valuemax>4000</valuemax>
								<value>209</value>
							</parameter>
							<parameter>
								<parameterid>Preserve Volume</parameterid>
								<name>Preserve Volume</name>
								<value>TRUE</value>
							</parameter>
						</effect>
					</filter>
					<filter>
						<effect>
							<name>Audio Levels</name>
							<effectid>audiolevels</effectid>
							<effectcategory>audiolevels</effectcategory>
							<effecttype>audiolevels</effecttype>
							<mediatype>audio</mediatype>
							<parameter>
								<name>Level</name>
								<parameterid>level</parameterid>
								<valuemin>0</valuemin>
								<valuemax>3.98109</valuemax>
								<value>0.0354813</value>
							</parameter>
						</effect>
					</filter>
					<filter>
						<effect>
							<name>Audio Pan</name>
							<effectid>audiopan</effectid>
							<effectcategory>audiopan</effectcategory>
							<effecttype>audiopan</effecttype>
							<mediatype>audio</mediatype>
							<parameter>
								<name>Pan</name>
								<parameterid>pan</parameterid>
								<valuemin>-1</valuemin>
								<valuemax>1</valuemax>
								<value>0</value>
							</parameter>
						</effect>
					</filter>
					<sourcetrack>
						<mediatype>audio</mediatype>
						<trackindex>1</trackindex>
					</sourcetrack>
					<link>
						<linkclipref>msub200012-3011-k1d1-026 6</linkclipref>
						<mediatype>audio</mediatype>
						<trackindex>1</trackindex>
						<clipindex>32</clipindex>
					</link>
					<link>
						<linkclipref>msub200012-3011-k1d1-026 7</linkclipref>
						<mediatype>audio</mediatype>
						<trackindex>2</trackindex>
						<clipindex>30</clipindex>
					</link>
				</clipitem>
				<transitionitem id="38570792 ">
					<rate>
						<ntsc>FALSE</ntsc>
						<timebase>25</timebase>
					</rate>
					<start>6089</start>
					<end>6095</end>
					<alignment>end-black</alignment>
					<effect>
						<name>Cross Fade (+3dB) Copy</name>
						<effecttype>transition</effecttype>
						<mediatype>audio</mediatype>
					</effect>
				</transitionitem>
				<clipitem id="msub200012-3011-k1d1-027 9">
					<name>msub200012-3011-k1d1-027</name>
					<duration>5957</duration>
					<rate>
						<ntsc>FALSE</ntsc>
						<timebase>25</timebase>
					</rate>
					<in>291</in>
					<out>392</out>
					<start>6693</start>
					<end>6794</end>
					<subframeoffset>0</subframeoffset>
					<masterclipid>msub200012-3011-k1d1-027 1</masterclipid>
					<syncoffset>0</syncoffset>
					<logginginfo>
						<description>msub200012-3011-k1d1-027</description>
						<scene/>
						<shottake/>
						<lognote/>
						<good>FALSE</good>
					</logginginfo>
					<labels>
						<label>Alternate Shots</label>
						<label2/>
					</labels>
					<comments>
						<mastercomment1>RÃ…STOFF. BR_FINFREDAG_MSUA_OPRO</mastercomment1>
						<mastercomment2/>
						<mastercomment3/>
						<mastercomment4/>
						<clipcommenta/>
					</comments>
					<file id="msub200012-3011-k1d1-027 2"/>
					<filter>
						<enabled>TRUE</enabled>
						<start>-1</start>
						<end>-1</end>
						<effect>
							<name>3 Band Equalizer - Kristine</name>
							<effecttype>filter</effecttype>
							<mediatype>audio</mediatype>
							<parameter>
								<parameterid>Low Frequency</parameterid>
								<name>Low Frequency</name>
								<valuemin>80</valuemin>
								<valuemax>2000</valuemax>
								<value>80</value>
							</parameter>
							<parameter>
								<parameterid>Low Gain(dB)</parameterid>
								<name>Low Gain(dB)</name>
								<valuemin>-20</valuemin>
								<valuemax>20</valuemax>
								<value>-4</value>
							</parameter>
							<parameter>
								<parameterid>Mid Frequency</parameterid>
								<name>Mid Frequency</name>
								<valuemin>400</valuemin>
								<valuemax>8000</valuemax>
								<value>3602</value>
							</parameter>
							<parameter>
								<parameterid>Mid Gain(dB)</parameterid>
								<name>Mid Gain(dB)</name>
								<valuemin>-20</valuemin>
								<valuemax>20</valuemax>
								<value>3</value>
							</parameter>
							<parameter>
								<parameterid>High Frequency</parameterid>
								<name>High Frequency</name>
								<valuemin>5000</valuemin>
								<valuemax>20000</valuemax>
								<value>10354</value>
							</parameter>
							<parameter>
								<parameterid>High Gain(dB)</parameterid>
								<name>High Gain(dB)</name>
								<valuemin>-20</valuemin>
								<valuemax>20</valuemax>
								<value>0</value>
							</parameter>
						</effect>
					</filter>
					<filter>
						<enabled>TRUE</enabled>
						<start>-1</start>
						<end>-1</end>
						<effect>
							<name>Compressor/Limiter</name>
							<effecttype>filter</effecttype>
							<mediatype>audio</mediatype>
							<parameter>
								<parameterid>Threshold(dB)</parameterid>
								<name>Threshold(dB)</name>
								<valuemin>-90</valuemin>
								<valuemax>0</valuemax>
								<value>-20</value>
							</parameter>
							<parameter>
								<parameterid>Ratio</parameterid>
								<name>Ratio</name>
								<valuemin>1</valuemin>
								<valuemax>100</valuemax>
								<value>2</value>
							</parameter>
							<parameter>
								<parameterid>Attack Time</parameterid>
								<name>Attack Time</name>
								<valuemin>1</valuemin>
								<valuemax>100</valuemax>
								<value>5</value>
							</parameter>
							<parameter>
								<parameterid>Release Time</parameterid>
								<name>Release Time</name>
								<valuemin>1</valuemin>
								<valuemax>4000</valuemax>
								<value>209</value>
							</parameter>
							<parameter>
								<parameterid>Preserve Volume</parameterid>
								<name>Preserve Volume</name>
								<value>TRUE</value>
							</parameter>
						</effect>
					</filter>
					<filter>
						<effect>
							<name>Audio Levels</name>
							<effectid>audiolevels</effectid>
							<effectcategory>audiolevels</effectcategory>
							<effecttype>audiolevels</effecttype>
							<mediatype>audio</mediatype>
							<parameter>
								<name>Level</name>
								<parameterid>level</parameterid>
								<valuemin>0</valuemin>
								<valuemax>3.98109</valuemax>
								<value>0.0891251</value>
							</parameter>
						</effect>
					</filter>
					<filter>
						<effect>
							<name>Audio Pan</name>
							<effectid>audiopan</effectid>
							<effectcategory>audiopan</effectcategory>
							<effecttype>audiopan</effecttype>
							<mediatype>audio</mediatype>
							<parameter>
								<name>Pan</name>
								<parameterid>pan</parameterid>
								<valuemin>-1</valuemin>
								<valuemax>1</valuemax>
								<value>0</value>
							</parameter>
						</effect>
					</filter>
					<sourcetrack>
						<mediatype>audio</mediatype>
						<trackindex>1</trackindex>
					</sourcetrack>
				</clipitem>
				<clipitem id="msub200012-3011-k1d1-027 10">
					<name>msub200012-3011-k1d1-027</name>
					<duration>5957</duration>
					<rate>
						<ntsc>FALSE</ntsc>
						<timebase>25</timebase>
					</rate>
					<in>611</in>
					<out>1480</out>
					<start>6794</start>
					<end>7663</end>
					<subframeoffset>0</subframeoffset>
					<masterclipid>msub200012-3011-k1d1-027 1</masterclipid>
					<syncoffset>0</syncoffset>
					<logginginfo>
						<description>msub200012-3011-k1d1-027</description>
						<scene/>
						<shottake/>
						<lognote/>
						<good>FALSE</good>
					</logginginfo>
					<labels>
						<label>Alternate Shots</label>
						<label2/>
					</labels>
					<comments>
						<mastercomment1>RÃ…STOFF. BR_FINFREDAG_MSUA_OPRO</mastercomment1>
						<mastercomment2/>
						<mastercomment3/>
						<mastercomment4/>
						<clipcommenta/>
					</comments>
					<file id="msub200012-3011-k1d1-027 2"/>
					<filter>
						<enabled>TRUE</enabled>
						<start>-1</start>
						<end>-1</end>
						<effect>
							<name>3 Band Equalizer - Kristine</name>
							<effecttype>filter</effecttype>
							<mediatype>audio</mediatype>
							<parameter>
								<parameterid>Low Frequency</parameterid>
								<name>Low Frequency</name>
								<valuemin>80</valuemin>
								<valuemax>2000</valuemax>
								<value>80</value>
							</parameter>
							<parameter>
								<parameterid>Low Gain(dB)</parameterid>
								<name>Low Gain(dB)</name>
								<valuemin>-20</valuemin>
								<valuemax>20</valuemax>
								<value>-4</value>
							</parameter>
							<parameter>
								<parameterid>Mid Frequency</parameterid>
								<name>Mid Frequency</name>
								<valuemin>400</valuemin>
								<valuemax>8000</valuemax>
								<value>3602</value>
							</parameter>
							<parameter>
								<parameterid>Mid Gain(dB)</parameterid>
								<name>Mid Gain(dB)</name>
								<valuemin>-20</valuemin>
								<valuemax>20</valuemax>
								<value>3</value>
							</parameter>
							<parameter>
								<parameterid>High Frequency</parameterid>
								<name>High Frequency</name>
								<valuemin>5000</valuemin>
								<valuemax>20000</valuemax>
								<value>10354</value>
							</parameter>
							<parameter>
								<parameterid>High Gain(dB)</parameterid>
								<name>High Gain(dB)</name>
								<valuemin>-20</valuemin>
								<valuemax>20</valuemax>
								<value>0</value>
							</parameter>
						</effect>
					</filter>
					<filter>
						<enabled>TRUE</enabled>
						<start>-1</start>
						<end>-1</end>
						<effect>
							<name>Compressor/Limiter</name>
							<effecttype>filter</effecttype>
							<mediatype>audio</mediatype>
							<parameter>
								<parameterid>Threshold(dB)</parameterid>
								<name>Threshold(dB)</name>
								<valuemin>-90</valuemin>
								<valuemax>0</valuemax>
								<value>-20</value>
							</parameter>
							<parameter>
								<parameterid>Ratio</parameterid>
								<name>Ratio</name>
								<valuemin>1</valuemin>
								<valuemax>100</valuemax>
								<value>2</value>
							</parameter>
							<parameter>
								<parameterid>Attack Time</parameterid>
								<name>Attack Time</name>
								<valuemin>1</valuemin>
								<valuemax>100</valuemax>
								<value>5</value>
							</parameter>
							<parameter>
								<parameterid>Release Time</parameterid>
								<name>Release Time</name>
								<valuemin>1</valuemin>
								<valuemax>4000</valuemax>
								<value>209</value>
							</parameter>
							<parameter>
								<parameterid>Preserve Volume</parameterid>
								<name>Preserve Volume</name>
								<value>TRUE</value>
							</parameter>
						</effect>
					</filter>
					<filter>
						<effect>
							<name>Audio Levels</name>
							<effectid>audiolevels</effectid>
							<effectcategory>audiolevels</effectcategory>
							<effecttype>audiolevels</effecttype>
							<mediatype>audio</mediatype>
							<parameter>
								<name>Level</name>
								<parameterid>level</parameterid>
								<valuemin>0</valuemin>
								<valuemax>3.98109</valuemax>
								<value>0.0891251</value>
							</parameter>
						</effect>
					</filter>
					<filter>
						<effect>
							<name>Audio Pan</name>
							<effectid>audiopan</effectid>
							<effectcategory>audiopan</effectcategory>
							<effecttype>audiopan</effecttype>
							<mediatype>audio</mediatype>
							<parameter>
								<name>Pan</name>
								<parameterid>pan</parameterid>
								<valuemin>-1</valuemin>
								<valuemax>1</valuemax>
								<value>0</value>
							</parameter>
						</effect>
					</filter>
					<sourcetrack>
						<mediatype>audio</mediatype>
						<trackindex>1</trackindex>
					</sourcetrack>
				</clipitem>
				<clipitem id="msub200012-3011-k1d1-027 11">
					<name>msub200012-3011-k1d1-027</name>
					<duration>5957</duration>
					<rate>
						<ntsc>FALSE</ntsc>
						<timebase>25</timebase>
					</rate>
					<in>2055</in>
					<out>2929</out>
					<start>7663</start>
					<end>8537</end>
					<subframeoffset>0</subframeoffset>
					<masterclipid>msub200012-3011-k1d1-027 1</masterclipid>
					<syncoffset>0</syncoffset>
					<logginginfo>
						<description>msub200012-3011-k1d1-027</description>
						<scene/>
						<shottake/>
						<lognote/>
						<good>FALSE</good>
					</logginginfo>
					<labels>
						<label>Alternate Shots</label>
						<label2/>
					</labels>
					<comments>
						<mastercomment1>RÃ…STOFF. BR_FINFREDAG_MSUA_OPRO</mastercomment1>
						<mastercomment2/>
						<mastercomment3/>
						<mastercomment4/>
						<clipcommenta/>
					</comments>
					<file id="msub200012-3011-k1d1-027 2"/>
					<filter>
						<enabled>TRUE</enabled>
						<start>-1</start>
						<end>-1</end>
						<effect>
							<name>3 Band Equalizer - Kristine</name>
							<effecttype>filter</effecttype>
							<mediatype>audio</mediatype>
							<parameter>
								<parameterid>Low Frequency</parameterid>
								<name>Low Frequency</name>
								<valuemin>80</valuemin>
								<valuemax>2000</valuemax>
								<value>80</value>
							</parameter>
							<parameter>
								<parameterid>Low Gain(dB)</parameterid>
								<name>Low Gain(dB)</name>
								<valuemin>-20</valuemin>
								<valuemax>20</valuemax>
								<value>-4</value>
							</parameter>
							<parameter>
								<parameterid>Mid Frequency</parameterid>
								<name>Mid Frequency</name>
								<valuemin>400</valuemin>
								<valuemax>8000</valuemax>
								<value>3602</value>
							</parameter>
							<parameter>
								<parameterid>Mid Gain(dB)</parameterid>
								<name>Mid Gain(dB)</name>
								<valuemin>-20</valuemin>
								<valuemax>20</valuemax>
								<value>3</value>
							</parameter>
							<parameter>
								<parameterid>High Frequency</parameterid>
								<name>High Frequency</name>
								<valuemin>5000</valuemin>
								<valuemax>20000</valuemax>
								<value>10354</value>
							</parameter>
							<parameter>
								<parameterid>High Gain(dB)</parameterid>
								<name>High Gain(dB)</name>
								<valuemin>-20</valuemin>
								<valuemax>20</valuemax>
								<value>0</value>
							</parameter>
						</effect>
					</filter>
					<filter>
						<enabled>TRUE</enabled>
						<start>-1</start>
						<end>-1</end>
						<effect>
							<name>Compressor/Limiter</name>
							<effecttype>filter</effecttype>
							<mediatype>audio</mediatype>
							<parameter>
								<parameterid>Threshold(dB)</parameterid>
								<name>Threshold(dB)</name>
								<valuemin>-90</valuemin>
								<valuemax>0</valuemax>
								<value>-20</value>
							</parameter>
							<parameter>
								<parameterid>Ratio</parameterid>
								<name>Ratio</name>
								<valuemin>1</valuemin>
								<valuemax>100</valuemax>
								<value>2</value>
							</parameter>
							<parameter>
								<parameterid>Attack Time</parameterid>
								<name>Attack Time</name>
								<valuemin>1</valuemin>
								<valuemax>100</valuemax>
								<value>5</value>
							</parameter>
							<parameter>
								<parameterid>Release Time</parameterid>
								<name>Release Time</name>
								<valuemin>1</valuemin>
								<valuemax>4000</valuemax>
								<value>209</value>
							</parameter>
							<parameter>
								<parameterid>Preserve Volume</parameterid>
								<name>Preserve Volume</name>
								<value>TRUE</value>
							</parameter>
						</effect>
					</filter>
					<filter>
						<effect>
							<name>Audio Levels</name>
							<effectid>audiolevels</effectid>
							<effectcategory>audiolevels</effectcategory>
							<effecttype>audiolevels</effecttype>
							<mediatype>audio</mediatype>
							<parameter>
								<name>Level</name>
								<parameterid>level</parameterid>
								<valuemin>0</valuemin>
								<valuemax>3.98109</valuemax>
								<value>0.0891251</value>
							</parameter>
						</effect>
					</filter>
					<filter>
						<effect>
							<name>Audio Pan</name>
							<effectid>audiopan</effectid>
							<effectcategory>audiopan</effectcategory>
							<effecttype>audiopan</effecttype>
							<mediatype>audio</mediatype>
							<parameter>
								<name>Pan</name>
								<parameterid>pan</parameterid>
								<valuemin>-1</valuemin>
								<valuemax>1</valuemax>
								<value>0</value>
							</parameter>
						</effect>
					</filter>
					<sourcetrack>
						<mediatype>audio</mediatype>
						<trackindex>1</trackindex>
					</sourcetrack>
				</clipitem>
				<clipitem id="msub200012-3011-k1d1-027 12">
					<name>msub200012-3011-k1d1-027</name>
					<duration>5957</duration>
					<rate>
						<ntsc>FALSE</ntsc>
						<timebase>25</timebase>
					</rate>
					<in>5332</in>
					<out>5432</out>
					<start>8678</start>
					<end>-1</end>
					<subframeoffset>0</subframeoffset>
					<masterclipid>msub200012-3011-k1d1-027 1</masterclipid>
					<syncoffset>0</syncoffset>
					<logginginfo>
						<description>msub200012-3011-k1d1-027</description>
						<scene/>
						<shottake/>
						<lognote/>
						<good>FALSE</good>
					</logginginfo>
					<labels>
						<label>Alternate Shots</label>
						<label2/>
					</labels>
					<comments>
						<mastercomment1>RÃ…STOFF. BR_FINFREDAG_MSUA_OPRO</mastercomment1>
						<mastercomment2/>
						<mastercomment3/>
						<mastercomment4/>
						<clipcommenta/>
					</comments>
					<file id="msub200012-3011-k1d1-027 2"/>
					<filter>
						<effect>
							<name>Audio Levels</name>
							<effectid>audiolevels</effectid>
							<effectcategory>audiolevels</effectcategory>
							<effecttype>audiolevels</effecttype>
							<mediatype>audio</mediatype>
							<parameter>
								<name>Level</name>
								<parameterid>level</parameterid>
								<valuemin>0</valuemin>
								<valuemax>3.98109</valuemax>
								<value>0.0501187</value>
							</parameter>
						</effect>
					</filter>
					<filter>
						<effect>
							<name>Audio Pan</name>
							<effectid>audiopan</effectid>
							<effectcategory>audiopan</effectcategory>
							<effecttype>audiopan</effecttype>
							<mediatype>audio</mediatype>
							<parameter>
								<name>Pan</name>
								<parameterid>pan</parameterid>
								<valuemin>-1</valuemin>
								<valuemax>1</valuemax>
								<value>0</value>
							</parameter>
						</effect>
					</filter>
					<sourcetrack>
						<mediatype>audio</mediatype>
						<trackindex>1</trackindex>
					</sourcetrack>
				</clipitem>
				<transitionitem id="38680456 ">
					<rate>
						<ntsc>FALSE</ntsc>
						<timebase>25</timebase>
					</rate>
					<start>8772</start>
					<end>8778</end>
					<alignment>center</alignment>
					<effect>
						<name>Cross Fade (+3dB) Copy</name>
						<effecttype>transition</effecttype>
						<mediatype>audio</mediatype>
					</effect>
				</transitionitem>
				<clipitem id="msub200012-3011-k1d1-028 6">
					<name>msub200012-3011-k1d1-028</name>
					<duration>4553</duration>
					<rate>
						<ntsc>FALSE</ntsc>
						<timebase>25</timebase>
					</rate>
					<in>302</in>
					<out>793</out>
					<start>-1</start>
					<end>9263</end>
					<subframeoffset>0</subframeoffset>
					<masterclipid>msub200012-3011-k1d1-028 1</masterclipid>
					<syncoffset>0</syncoffset>
					<logginginfo>
						<description>msub200012-3011-k1d1-028</description>
						<scene/>
						<shottake/>
						<lognote/>
						<good>FALSE</good>
					</logginginfo>
					<labels>
						<label>Interviews</label>
						<label2/>
					</labels>
					<comments>
						<mastercomment1>RÃ…STOFF. BR_FINFREDAG_MSUA_OPRO</mastercomment1>
						<mastercomment2/>
						<mastercomment3/>
						<mastercomment4/>
						<clipcommenta/>
					</comments>
					<file id="msub200012-3011-k1d1-028 2"/>
					<filter>
						<effect>
							<name>Audio Levels</name>
							<effectid>audiolevels</effectid>
							<effectcategory>audiolevels</effectcategory>
							<effecttype>audiolevels</effecttype>
							<mediatype>audio</mediatype>
							<parameter>
								<name>Level</name>
								<parameterid>level</parameterid>
								<valuemin>0</valuemin>
								<valuemax>3.98109</valuemax>
								<value>0.0501187</value>
							</parameter>
						</effect>
					</filter>
					<filter>
						<effect>
							<name>Audio Pan</name>
							<effectid>audiopan</effectid>
							<effectcategory>audiopan</effectcategory>
							<effecttype>audiopan</effecttype>
							<mediatype>audio</mediatype>
							<parameter>
								<name>Pan</name>
								<parameterid>pan</parameterid>
								<valuemin>-1</valuemin>
								<valuemax>1</valuemax>
								<value>0</value>
							</parameter>
						</effect>
					</filter>
					<sourcetrack>
						<mediatype>audio</mediatype>
						<trackindex>1</trackindex>
					</sourcetrack>
					<link>
						<linkclipref>msub200012-3011-k1d1-028 6</linkclipref>
						<mediatype>audio</mediatype>
						<trackindex>1</trackindex>
						<clipindex>39</clipindex>
					</link>
					<link>
						<linkclipref>msub200012-3011-k1d1-028 7</linkclipref>
						<mediatype>audio</mediatype>
						<trackindex>2</trackindex>
						<clipindex>44</clipindex>
					</link>
				</clipitem>
				<clipitem id="msub200012-3011-k1d1-028 8">
					<name>msub200012-3011-k1d1-028</name>
					<duration>4553</duration>
					<rate>
						<ntsc>FALSE</ntsc>
						<timebase>25</timebase>
					</rate>
					<in>959</in>
					<out>1621</out>
					<start>9263</start>
					<end>-1</end>
					<subframeoffset>0</subframeoffset>
					<masterclipid>msub200012-3011-k1d1-028 1</masterclipid>
					<syncoffset>0</syncoffset>
					<logginginfo>
						<description>msub200012-3011-k1d1-028</description>
						<scene/>
						<shottake/>
						<lognote/>
						<good>FALSE</good>
					</logginginfo>
					<labels>
						<label>Interviews</label>
						<label2/>
					</labels>
					<comments>
						<mastercomment1>RÃ…STOFF. BR_FINFREDAG_MSUA_OPRO</mastercomment1>
						<mastercomment2/>
						<mastercomment3/>
						<mastercomment4/>
						<clipcommenta/>
					</comments>
					<file id="msub200012-3011-k1d1-028 2"/>
					<filter>
						<effect>
							<name>Audio Levels</name>
							<effectid>audiolevels</effectid>
							<effectcategory>audiolevels</effectcategory>
							<effecttype>audiolevels</effecttype>
							<mediatype>audio</mediatype>
							<parameter>
								<name>Level</name>
								<parameterid>level</parameterid>
								<valuemin>0</valuemin>
								<valuemax>3.98109</valuemax>
								<value>0.0501187</value>
							</parameter>
						</effect>
					</filter>
					<filter>
						<effect>
							<name>Audio Pan</name>
							<effectid>audiopan</effectid>
							<effectcategory>audiopan</effectcategory>
							<effecttype>audiopan</effecttype>
							<mediatype>audio</mediatype>
							<parameter>
								<name>Pan</name>
								<parameterid>pan</parameterid>
								<valuemin>-1</valuemin>
								<valuemax>1</valuemax>
								<value>0</value>
							</parameter>
						</effect>
					</filter>
					<sourcetrack>
						<mediatype>audio</mediatype>
						<trackindex>1</trackindex>
					</sourcetrack>
					<link>
						<linkclipref>msub200012-3011-k1d1-028 8</linkclipref>
						<mediatype>audio</mediatype>
						<trackindex>1</trackindex>
						<clipindex>40</clipindex>
					</link>
					<link>
						<linkclipref>msub200012-3011-k1d1-028 9</linkclipref>
						<mediatype>audio</mediatype>
						<trackindex>2</trackindex>
						<clipindex>46</clipindex>
					</link>
				</clipitem>
				<transitionitem id="38681612 ">
					<rate>
						<ntsc>FALSE</ntsc>
						<timebase>25</timebase>
					</rate>
					<start>9921</start>
					<end>9925</end>
					<alignment>center</alignment>
					<effect>
						<name>Cross Fade (+3dB) Copy</name>
						<effecttype>transition</effecttype>
						<mediatype>audio</mediatype>
					</effect>
				</transitionitem>
				<clipitem id="msub200012-3011-k1d1-028 10">
					<name>msub200012-3011-k1d1-028</name>
					<duration>4553</duration>
					<rate>
						<ntsc>FALSE</ntsc>
						<timebase>25</timebase>
					</rate>
					<in>1961</in>
					<out>2463</out>
					<start>-1</start>
					<end>10423</end>
					<subframeoffset>0</subframeoffset>
					<masterclipid>msub200012-3011-k1d1-028 1</masterclipid>
					<syncoffset>0</syncoffset>
					<logginginfo>
						<description>msub200012-3011-k1d1-028</description>
						<scene/>
						<shottake/>
						<lognote/>
						<good>FALSE</good>
					</logginginfo>
					<labels>
						<label>Interviews</label>
						<label2/>
					</labels>
					<comments>
						<mastercomment1>RÃ…STOFF. BR_FINFREDAG_MSUA_OPRO</mastercomment1>
						<mastercomment2/>
						<mastercomment3/>
						<mastercomment4/>
						<clipcommenta/>
					</comments>
					<file id="msub200012-3011-k1d1-028 2"/>
					<filter>
						<effect>
							<name>Audio Levels</name>
							<effectid>audiolevels</effectid>
							<effectcategory>audiolevels</effectcategory>
							<effecttype>audiolevels</effecttype>
							<mediatype>audio</mediatype>
							<parameter>
								<name>Level</name>
								<parameterid>level</parameterid>
								<valuemin>0</valuemin>
								<valuemax>3.98109</valuemax>
								<value>0.0501187</value>
							</parameter>
						</effect>
					</filter>
					<filter>
						<effect>
							<name>Audio Pan</name>
							<effectid>audiopan</effectid>
							<effectcategory>audiopan</effectcategory>
							<effecttype>audiopan</effecttype>
							<mediatype>audio</mediatype>
							<parameter>
								<name>Pan</name>
								<parameterid>pan</parameterid>
								<valuemin>-1</valuemin>
								<valuemax>1</valuemax>
								<value>0</value>
							</parameter>
						</effect>
					</filter>
					<sourcetrack>
						<mediatype>audio</mediatype>
						<trackindex>1</trackindex>
					</sourcetrack>
					<link>
						<linkclipref>msub200012-3011-k1d1-028 10</linkclipref>
						<mediatype>audio</mediatype>
						<trackindex>1</trackindex>
						<clipindex>42</clipindex>
					</link>
					<link>
						<linkclipref>msub200012-3011-k1d1-028 11</linkclipref>
						<mediatype>audio</mediatype>
						<trackindex>2</trackindex>
						<clipindex>48</clipindex>
					</link>
				</clipitem>
				<clipitem id="msub200012-3011-k1d1-028 12">
					<name>msub200012-3011-k1d1-028</name>
					<duration>4553</duration>
					<rate>
						<ntsc>FALSE</ntsc>
						<timebase>25</timebase>
					</rate>
					<in>2922</in>
					<out>3081</out>
					<start>10423</start>
					<end>-1</end>
					<subframeoffset>0</subframeoffset>
					<masterclipid>msub200012-3011-k1d1-028 1</masterclipid>
					<syncoffset>0</syncoffset>
					<logginginfo>
						<description>msub200012-3011-k1d1-028</description>
						<scene/>
						<shottake/>
						<lognote/>
						<good>FALSE</good>
					</logginginfo>
					<labels>
						<label>Interviews</label>
						<label2/>
					</labels>
					<comments>
						<mastercomment1>RÃ…STOFF. BR_FINFREDAG_MSUA_OPRO</mastercomment1>
						<mastercomment2/>
						<mastercomment3/>
						<mastercomment4/>
						<clipcommenta/>
					</comments>
					<file id="msub200012-3011-k1d1-028 2"/>
					<filter>
						<effect>
							<name>Audio Levels</name>
							<effectid>audiolevels</effectid>
							<effectcategory>audiolevels</effectcategory>
							<effecttype>audiolevels</effecttype>
							<mediatype>audio</mediatype>
							<parameter>
								<name>Level</name>
								<parameterid>level</parameterid>
								<valuemin>0</valuemin>
								<valuemax>3.98109</valuemax>
								<value>0.0501187</value>
							</parameter>
						</effect>
					</filter>
					<filter>
						<effect>
							<name>Audio Pan</name>
							<effectid>audiopan</effectid>
							<effectcategory>audiopan</effectcategory>
							<effecttype>audiopan</effecttype>
							<mediatype>audio</mediatype>
							<parameter>
								<name>Pan</name>
								<parameterid>pan</parameterid>
								<valuemin>-1</valuemin>
								<valuemax>1</valuemax>
								<value>0</value>
							</parameter>
						</effect>
					</filter>
					<sourcetrack>
						<mediatype>audio</mediatype>
						<trackindex>1</trackindex>
					</sourcetrack>
					<link>
						<linkclipref>msub200012-3011-k1d1-028 12</linkclipref>
						<mediatype>audio</mediatype>
						<trackindex>1</trackindex>
						<clipindex>43</clipindex>
					</link>
					<link>
						<linkclipref>msub200012-3011-k1d1-028 13</linkclipref>
						<mediatype>audio</mediatype>
						<trackindex>2</trackindex>
						<clipindex>50</clipindex>
					</link>
				</clipitem>
				<transitionitem id="38682768 ">
					<rate>
						<ntsc>FALSE</ntsc>
						<timebase>25</timebase>
					</rate>
					<start>10576</start>
					<end>10582</end>
					<alignment>end-black</alignment>
					<effect>
						<name>Cross Fade (+3dB) Copy</name>
						<effecttype>transition</effecttype>
						<mediatype>audio</mediatype>
					</effect>
				</transitionitem>
				<clipitem id="msub200012-3011-k1d1-029 3">
					<name>msub200012-3011-k1d1-029</name>
					<duration>1050</duration>
					<rate>
						<ntsc>FALSE</ntsc>
						<timebase>25</timebase>
					</rate>
					<in>722</in>
					<out>950</out>
					<start>10952</start>
					<end>-1</end>
					<subframeoffset>0</subframeoffset>
					<masterclipid>msub200012-3011-k1d1-029 1</masterclipid>
					<syncoffset>0</syncoffset>
					<logginginfo>
						<description>msub200012-3011-k1d1-029</description>
						<scene/>
						<shottake/>
						<lognote/>
						<good>FALSE</good>
					</logginginfo>
					<labels>
						<label>B Roll</label>
						<label2/>
					</labels>
					<comments>
						<mastercomment1>RÃ…STOFF. BR_FINFREDAG_MSUA_OPRO</mastercomment1>
						<mastercomment2/>
						<mastercomment3/>
						<mastercomment4/>
						<clipcommenta/>
					</comments>
					<file id="msub200012-3011-k1d1-029 2"/>
					<filter>
						<effect>
							<name>Audio Levels</name>
							<effectid>audiolevels</effectid>
							<effectcategory>audiolevels</effectcategory>
							<effecttype>audiolevels</effecttype>
							<mediatype>audio</mediatype>
							<parameter>
								<name>Level</name>
								<parameterid>level</parameterid>
								<valuemin>0</valuemin>
								<valuemax>3.98109</valuemax>
								<value>0.0501187</value>
							</parameter>
						</effect>
					</filter>
					<filter>
						<effect>
							<name>Audio Pan</name>
							<effectid>audiopan</effectid>
							<effectcategory>audiopan</effectcategory>
							<effecttype>audiopan</effecttype>
							<mediatype>audio</mediatype>
							<parameter>
								<name>Pan</name>
								<parameterid>pan</parameterid>
								<valuemin>-1</valuemin>
								<valuemax>1</valuemax>
								<value>0</value>
							</parameter>
						</effect>
					</filter>
					<sourcetrack>
						<mediatype>audio</mediatype>
						<trackindex>1</trackindex>
					</sourcetrack>
					<link>
						<linkclipref>msub200012-3011-k1d1-029 3</linkclipref>
						<mediatype>audio</mediatype>
						<trackindex>1</trackindex>
						<clipindex>45</clipindex>
					</link>
					<link>
						<linkclipref>msub200012-3011-k1d1-029 4</linkclipref>
						<mediatype>audio</mediatype>
						<trackindex>2</trackindex>
						<clipindex>53</clipindex>
					</link>
				</clipitem>
				<transitionitem id="38692560 ">
					<rate>
						<ntsc>FALSE</ntsc>
						<timebase>25</timebase>
					</rate>
					<start>11174</start>
					<end>11180</end>
					<alignment>end-black</alignment>
					<effect>
						<name>Cross Fade (+3dB) Copy</name>
						<effecttype>transition</effecttype>
						<mediatype>audio</mediatype>
					</effect>
				</transitionitem>
				<clipitem id="msub200012-3011-k1d2-002 3">
					<name>msub200012-3011-k1d2-002</name>
					<duration>5918</duration>
					<rate>
						<ntsc>FALSE</ntsc>
						<timebase>25</timebase>
					</rate>
					<in>2405</in>
					<out>3466</out>
					<start>15223</start>
					<end>-1</end>
					<subframeoffset>0</subframeoffset>
					<enabled>TRUE</enabled>
					<masterclipid>msub200012-3011-k1d2-002 1</masterclipid>
					<syncoffset>0</syncoffset>
					<logginginfo>
						<description>msub200012-3011-k1d2-002</description>
						<scene/>
						<shottake/>
						<lognote/>
						<good>FALSE</good>
					</logginginfo>
					<labels>
						<label>Good Take</label>
						<label2/>
					</labels>
					<comments>
						<mastercomment1>RÃ…STOFF. BR_FINFREDAG_MSUA_OPRO</mastercomment1>
						<mastercomment2/>
						<mastercomment3/>
						<mastercomment4/>
						<clipcommenta/>
					</comments>
					<file id="msub200012-3011-k1d2-002 2"/>
					<filter>
						<enabled>FALSE</enabled>
						<start>-1</start>
						<end>-1</end>
						<effect>
							<name>3 Band Equalizer - Kristine</name>
							<effecttype>filter</effecttype>
							<mediatype>audio</mediatype>
							<parameter>
								<parameterid>Low Frequency</parameterid>
								<name>Low Frequency</name>
								<valuemin>80</valuemin>
								<valuemax>2000</valuemax>
								<value>80</value>
							</parameter>
							<parameter>
								<parameterid>Low Gain(dB)</parameterid>
								<name>Low Gain(dB)</name>
								<valuemin>-20</valuemin>
								<valuemax>20</valuemax>
								<value>-4</value>
							</parameter>
							<parameter>
								<parameterid>Mid Frequency</parameterid>
								<name>Mid Frequency</name>
								<valuemin>400</valuemin>
								<valuemax>8000</valuemax>
								<value>3602</value>
							</parameter>
							<parameter>
								<parameterid>Mid Gain(dB)</parameterid>
								<name>Mid Gain(dB)</name>
								<valuemin>-20</valuemin>
								<valuemax>20</valuemax>
								<value>3</value>
							</parameter>
							<parameter>
								<parameterid>High Frequency</parameterid>
								<name>High Frequency</name>
								<valuemin>5000</valuemin>
								<valuemax>20000</valuemax>
								<value>10354</value>
							</parameter>
							<parameter>
								<parameterid>High Gain(dB)</parameterid>
								<name>High Gain(dB)</name>
								<valuemin>-20</valuemin>
								<valuemax>20</valuemax>
								<value>0</value>
							</parameter>
						</effect>
					</filter>
					<filter>
						<enabled>TRUE</enabled>
						<start>-1</start>
						<end>-1</end>
						<effect>
							<name>Compressor/Limiter</name>
							<effecttype>filter</effecttype>
							<mediatype>audio</mediatype>
							<parameter>
								<parameterid>Threshold(dB)</parameterid>
								<name>Threshold(dB)</name>
								<valuemin>-90</valuemin>
								<valuemax>0</valuemax>
								<value>-20</value>
							</parameter>
							<parameter>
								<parameterid>Ratio</parameterid>
								<name>Ratio</name>
								<valuemin>1</valuemin>
								<valuemax>100</valuemax>
								<value>2</value>
							</parameter>
							<parameter>
								<parameterid>Attack Time</parameterid>
								<name>Attack Time</name>
								<valuemin>1</valuemin>
								<valuemax>100</valuemax>
								<value>5</value>
							</parameter>
							<parameter>
								<parameterid>Release Time</parameterid>
								<name>Release Time</name>
								<valuemin>1</valuemin>
								<valuemax>4000</valuemax>
								<value>209</value>
							</parameter>
							<parameter>
								<parameterid>Preserve Volume</parameterid>
								<name>Preserve Volume</name>
								<value>TRUE</value>
							</parameter>
						</effect>
					</filter>
					<filter>
						<effect>
							<name>Audio Levels</name>
							<effectid>audiolevels</effectid>
							<effectcategory>audiolevels</effectcategory>
							<effecttype>audiolevels</effecttype>
							<mediatype>audio</mediatype>
							<parameter>
								<name>Level</name>
								<parameterid>level</parameterid>
								<valuemin>0</valuemin>
								<valuemax>3.98109</valuemax>
								<keyframe>
									<when>2603</when>
									<value>1.12202</value>
								</keyframe>
								<keyframe>
									<when>2617.29</when>
									<value>0.0501187</value>
								</keyframe>
								<keyframe>
									<when>3081.86</when>
									<value>0.0501187</value>
								</keyframe>
								<keyframe>
									<when>3390.71</when>
									<value>0.0501187</value>
								</keyframe>
								<keyframe>
									<when>3441.86</when>
									<value>0.0501187</value>
								</keyframe>
								<keyframe>
									<when>3449.29</when>
									<value>1.41254</value>
								</keyframe>
								<interpolation>
									<name>FCPCurve</name>
								</interpolation>
								<value>1.12202</value>
							</parameter>
						</effect>
					</filter>
					<filter>
						<effect>
							<name>Audio Pan</name>
							<effectid>audiopan</effectid>
							<effectcategory>audiopan</effectcategory>
							<effecttype>audiopan</effecttype>
							<mediatype>audio</mediatype>
							<parameter>
								<name>Pan</name>
								<parameterid>pan</parameterid>
								<valuemin>-1</valuemin>
								<valuemax>1</valuemax>
								<value>0</value>
							</parameter>
						</effect>
					</filter>
					<sourcetrack>
						<mediatype>audio</mediatype>
						<trackindex>1</trackindex>
					</sourcetrack>
					<link>
						<linkclipref>msub200012-3011-k1d2-002 </linkclipref>
						<mediatype>video</mediatype>
						<trackindex>1</trackindex>
						<clipindex>49</clipindex>
					</link>
					<link>
						<linkclipref>msub200012-3011-k1d2-002 3</linkclipref>
						<mediatype>audio</mediatype>
						<trackindex>1</trackindex>
						<clipindex>47</clipindex>
					</link>
					<link>
						<linkclipref>msub200012-3011-k1d2-002 4</linkclipref>
						<mediatype>audio</mediatype>
						<trackindex>2</trackindex>
						<clipindex>55</clipindex>
					</link>
				</clipitem>
				<transitionitem id="38696164 ">
					<rate>
						<ntsc>FALSE</ntsc>
						<timebase>25</timebase>
					</rate>
					<start>16278</start>
					<end>16284</end>
					<alignment>center</alignment>
					<effect>
						<name>Cross Fade (+3dB) Copy</name>
						<effecttype>transition</effecttype>
						<mediatype>audio</mediatype>
					</effect>
				</transitionitem>
				<clipitem id="msub200012-3011-k1d2-004 3">
					<name>msub200012-3011-k1d2-004</name>
					<duration>6412</duration>
					<rate>
						<ntsc>FALSE</ntsc>
						<timebase>25</timebase>
					</rate>
					<in>2746</in>
					<out>2861</out>
					<start>-1</start>
					<end>-1</end>
					<subframeoffset>0</subframeoffset>
					<enabled>TRUE</enabled>
					<masterclipid>msub200012-3011-k1d2-004 1</masterclipid>
					<logginginfo>
						<description>msub200012-3011-k1d2-004</description>
						<scene/>
						<shottake/>
						<lognote/>
						<good>FALSE</good>
					</logginginfo>
					<labels>
						<label2/>
					</labels>
					<comments>
						<mastercomment1>RÃ…STOFF. BR_FINFREDAG_MSUA_OPRO</mastercomment1>
						<mastercomment2/>
						<mastercomment3/>
						<mastercomment4/>
						<clipcommenta/>
					</comments>
					<file id="msub200012-3011-k1d2-004 2"/>
					<filter>
						<enabled>TRUE</enabled>
						<start>-1</start>
						<end>-1</end>
						<effect>
							<name>3 Band Equalizer - Kristine</name>
							<effecttype>filter</effecttype>
							<mediatype>audio</mediatype>
							<parameter>
								<parameterid>Low Frequency</parameterid>
								<name>Low Frequency</name>
								<valuemin>80</valuemin>
								<valuemax>2000</valuemax>
								<value>131</value>
							</parameter>
							<parameter>
								<parameterid>Low Gain(dB)</parameterid>
								<name>Low Gain(dB)</name>
								<valuemin>-20</valuemin>
								<valuemax>20</valuemax>
								<value>3</value>
							</parameter>
							<parameter>
								<parameterid>Mid Frequency</parameterid>
								<name>Mid Frequency</name>
								<valuemin>400</valuemin>
								<valuemax>8000</valuemax>
								<value>3602</value>
							</parameter>
							<parameter>
								<parameterid>Mid Gain(dB)</parameterid>
								<name>Mid Gain(dB)</name>
								<valuemin>-20</valuemin>
								<valuemax>20</valuemax>
								<value>0</value>
							</parameter>
							<parameter>
								<parameterid>High Frequency</parameterid>
								<name>High Frequency</name>
								<valuemin>5000</valuemin>
								<valuemax>20000</valuemax>
								<value>10354</value>
							</parameter>
							<parameter>
								<parameterid>High Gain(dB)</parameterid>
								<name>High Gain(dB)</name>
								<valuemin>-20</valuemin>
								<valuemax>20</valuemax>
								<value>0</value>
							</parameter>
						</effect>
					</filter>
					<filter>
						<enabled>TRUE</enabled>
						<start>-1</start>
						<end>-1</end>
						<effect>
							<name>Compressor/Limiter</name>
							<effecttype>filter</effecttype>
							<mediatype>audio</mediatype>
							<parameter>
								<parameterid>Threshold(dB)</parameterid>
								<name>Threshold(dB)</name>
								<valuemin>-90</valuemin>
								<valuemax>0</valuemax>
								<value>-20</value>
							</parameter>
							<parameter>
								<parameterid>Ratio</parameterid>
								<name>Ratio</name>
								<valuemin>1</valuemin>
								<valuemax>100</valuemax>
								<value>2</value>
							</parameter>
							<parameter>
								<parameterid>Attack Time</parameterid>
								<name>Attack Time</name>
								<valuemin>1</valuemin>
								<valuemax>100</valuemax>
								<value>5</value>
							</parameter>
							<parameter>
								<parameterid>Release Time</parameterid>
								<name>Release Time</name>
								<valuemin>1</valuemin>
								<valuemax>4000</valuemax>
								<value>209</value>
							</parameter>
							<parameter>
								<parameterid>Preserve Volume</parameterid>
								<name>Preserve Volume</name>
								<value>TRUE</value>
							</parameter>
						</effect>
					</filter>
					<filter>
						<effect>
							<name>Audio Levels</name>
							<effectid>audiolevels</effectid>
							<effectcategory>audiolevels</effectcategory>
							<effecttype>audiolevels</effecttype>
							<mediatype>audio</mediatype>
							<parameter>
								<name>Level</name>
								<parameterid>level</parameterid>
								<valuemin>0</valuemin>
								<valuemax>3.98109</valuemax>
								<keyframe>
									<when>2841.57</when>
									<value>1.77828</value>
								</keyframe>
								<keyframe>
									<when>2843.57</when>
									<value>1</value>
								</keyframe>
								<interpolation>
									<name>FCPCurve</name>
								</interpolation>
								<value>1.77828</value>
							</parameter>
						</effect>
					</filter>
					<filter>
						<effect>
							<name>Audio Pan</name>
							<effectid>audiopan</effectid>
							<effectcategory>audiopan</effectcategory>
							<effecttype>audiopan</effecttype>
							<mediatype>audio</mediatype>
							<parameter>
								<name>Pan</name>
								<parameterid>pan</parameterid>
								<valuemin>-1</valuemin>
								<valuemax>1</valuemax>
								<value>0</value>
							</parameter>
						</effect>
					</filter>
					<sourcetrack>
						<mediatype>audio</mediatype>
						<trackindex>1</trackindex>
					</sourcetrack>
					<link>
						<linkclipref>msub200012-3011-k1d2-004 </linkclipref>
						<mediatype>video</mediatype>
						<trackindex>1</trackindex>
						<clipindex>53</clipindex>
					</link>
					<link>
						<linkclipref>msub200012-3011-k1d2-004 3</linkclipref>
						<mediatype>audio</mediatype>
						<trackindex>1</trackindex>
						<clipindex>49</clipindex>
					</link>
					<link>
						<linkclipref>msub200012-3011-k1d2-004 4</linkclipref>
						<mediatype>audio</mediatype>
						<trackindex>2</trackindex>
						<clipindex>56</clipindex>
					</link>
				</clipitem>
				<transitionitem id="38699836 ">
					<rate>
						<ntsc>FALSE</ntsc>
						<timebase>25</timebase>
					</rate>
					<start>16387</start>
					<end>16393</end>
					<alignment>center</alignment>
					<effect>
						<name>Cross Fade (+3dB) Copy</name>
						<effecttype>transition</effecttype>
						<mediatype>audio</mediatype>
					</effect>
				</transitionitem>
				<clipitem id="msub200012-3011-k1d2-003 3">
					<name>msub200012-3011-k1d2-003</name>
					<duration>16188</duration>
					<rate>
						<ntsc>FALSE</ntsc>
						<timebase>25</timebase>
					</rate>
					<in>4312</in>
					<out>5420</out>
					<start>-1</start>
					<end>-1</end>
					<subframeoffset>0</subframeoffset>
					<enabled>TRUE</enabled>
					<masterclipid>msub200012-3011-k1d2-003 1</masterclipid>
					<syncoffset>0</syncoffset>
					<logginginfo>
						<description>msub200012-3011-k1d2-003</description>
						<scene/>
						<shottake/>
						<lognote/>
						<good>FALSE</good>
					</logginginfo>
					<labels>
						<label>Best Take</label>
						<label2/>
					</labels>
					<comments>
						<mastercomment1>RÃ…STOFF. BR_FINFREDAG_MSUA_OPRO</mastercomment1>
						<mastercomment2/>
						<mastercomment3/>
						<mastercomment4/>
						<clipcommenta/>
					</comments>
					<file id="msub200012-3011-k1d2-003 2"/>
					<filter>
						<enabled>TRUE</enabled>
						<start>-1</start>
						<end>-1</end>
						<effect>
							<name>3 Band Equalizer - Kristine</name>
							<effecttype>filter</effecttype>
							<mediatype>audio</mediatype>
							<parameter>
								<parameterid>Low Frequency</parameterid>
								<name>Low Frequency</name>
								<valuemin>80</valuemin>
								<valuemax>2000</valuemax>
								<value>162</value>
							</parameter>
							<parameter>
								<parameterid>Low Gain(dB)</parameterid>
								<name>Low Gain(dB)</name>
								<valuemin>-20</valuemin>
								<valuemax>20</valuemax>
								<value>5</value>
							</parameter>
							<parameter>
								<parameterid>Mid Frequency</parameterid>
								<name>Mid Frequency</name>
								<valuemin>400</valuemin>
								<valuemax>8000</valuemax>
								<value>3602</value>
							</parameter>
							<parameter>
								<parameterid>Mid Gain(dB)</parameterid>
								<name>Mid Gain(dB)</name>
								<valuemin>-20</valuemin>
								<valuemax>20</valuemax>
								<value>-3</value>
							</parameter>
							<parameter>
								<parameterid>High Frequency</parameterid>
								<name>High Frequency</name>
								<valuemin>5000</valuemin>
								<valuemax>20000</valuemax>
								<value>10354</value>
							</parameter>
							<parameter>
								<parameterid>High Gain(dB)</parameterid>
								<name>High Gain(dB)</name>
								<valuemin>-20</valuemin>
								<valuemax>20</valuemax>
								<value>0</value>
							</parameter>
						</effect>
					</filter>
					<filter>
						<enabled>TRUE</enabled>
						<start>-1</start>
						<end>-1</end>
						<effect>
							<name>Compressor/Limiter</name>
							<effecttype>filter</effecttype>
							<mediatype>audio</mediatype>
							<parameter>
								<parameterid>Threshold(dB)</parameterid>
								<name>Threshold(dB)</name>
								<valuemin>-90</valuemin>
								<valuemax>0</valuemax>
								<value>-20</value>
							</parameter>
							<parameter>
								<parameterid>Ratio</parameterid>
								<name>Ratio</name>
								<valuemin>1</valuemin>
								<valuemax>100</valuemax>
								<value>2</value>
							</parameter>
							<parameter>
								<parameterid>Attack Time</parameterid>
								<name>Attack Time</name>
								<valuemin>1</valuemin>
								<valuemax>100</valuemax>
								<value>5</value>
							</parameter>
							<parameter>
								<parameterid>Release Time</parameterid>
								<name>Release Time</name>
								<valuemin>1</valuemin>
								<valuemax>4000</valuemax>
								<value>209</value>
							</parameter>
							<parameter>
								<parameterid>Preserve Volume</parameterid>
								<name>Preserve Volume</name>
								<value>TRUE</value>
							</parameter>
						</effect>
					</filter>
					<filter>
						<effect>
							<name>Audio Levels</name>
							<effectid>audiolevels</effectid>
							<effectcategory>audiolevels</effectcategory>
							<effecttype>audiolevels</effecttype>
							<mediatype>audio</mediatype>
							<parameter>
								<name>Level</name>
								<parameterid>level</parameterid>
								<valuemin>0</valuemin>
								<valuemax>3.98109</valuemax>
								<keyframe>
									<when>4910.29</when>
									<value>0.0251189</value>
								</keyframe>
								<keyframe>
									<when>4919.43</when>
									<value>0.799074</value>
								</keyframe>
								<keyframe>
									<when>4944.57</when>
									<value>0.705706</value>
								</keyframe>
								<keyframe>
									<when>4954.29</when>
									<value>0.0630957</value>
								</keyframe>
								<keyframe>
									<when>4985.71</when>
									<value>0.0112202</value>
								</keyframe>
								<interpolation>
									<name>FCPCurve</name>
								</interpolation>
								<value>0.0619166</value>
							</parameter>
						</effect>
					</filter>
					<filter>
						<effect>
							<name>Audio Pan</name>
							<effectid>audiopan</effectid>
							<effectcategory>audiopan</effectcategory>
							<effecttype>audiopan</effecttype>
							<mediatype>audio</mediatype>
							<parameter>
								<name>Pan</name>
								<parameterid>pan</parameterid>
								<valuemin>-1</valuemin>
								<valuemax>1</valuemax>
								<value>0</value>
							</parameter>
						</effect>
					</filter>
					<sourcetrack>
						<mediatype>audio</mediatype>
						<trackindex>1</trackindex>
					</sourcetrack>
					<link>
						<linkclipref>msub200012-3011-k1d2-003 </linkclipref>
						<mediatype>video</mediatype>
						<trackindex>1</trackindex>
						<clipindex>54</clipindex>
					</link>
					<link>
						<linkclipref>msub200012-3011-k1d2-003 3</linkclipref>
						<mediatype>audio</mediatype>
						<trackindex>1</trackindex>
						<clipindex>51</clipindex>
					</link>
					<link>
						<linkclipref>msub200012-3011-k1d2-003 4</linkclipref>
						<mediatype>audio</mediatype>
						<trackindex>2</trackindex>
						<clipindex>58</clipindex>
					</link>
				</clipitem>
				<transitionitem id="38703712 ">
					<rate>
						<ntsc>FALSE</ntsc>
						<timebase>25</timebase>
					</rate>
					<start>17493</start>
					<end>17495</end>
					<alignment>center</alignment>
					<effect>
						<name>Cross Fade (+3dB) Copy</name>
						<effecttype>transition</effecttype>
						<mediatype>audio</mediatype>
					</effect>
				</transitionitem>
				<clipitem id="msub200012-3011-k1d2-004 6">
					<name>msub200012-3011-k1d2-004</name>
					<duration>6412</duration>
					<rate>
						<ntsc>FALSE</ntsc>
						<timebase>25</timebase>
					</rate>
					<in>4953</in>
					<out>5036</out>
					<start>-1</start>
					<end>-1</end>
					<subframeoffset>0</subframeoffset>
					<enabled>TRUE</enabled>
					<masterclipid>msub200012-3011-k1d2-004 1</masterclipid>
					<logginginfo>
						<description>msub200012-3011-k1d2-004</description>
						<scene/>
						<shottake/>
						<lognote/>
						<good>FALSE</good>
					</logginginfo>
					<labels>
						<label2/>
					</labels>
					<comments>
						<mastercomment1>RÃ…STOFF. BR_FINFREDAG_MSUA_OPRO</mastercomment1>
						<mastercomment2/>
						<mastercomment3/>
						<mastercomment4/>
						<clipcommenta/>
					</comments>
					<file id="msub200012-3011-k1d2-004 2"/>
					<filter>
						<enabled>TRUE</enabled>
						<start>-1</start>
						<end>-1</end>
						<effect>
							<name>3 Band Equalizer - Kristine</name>
							<effecttype>filter</effecttype>
							<mediatype>audio</mediatype>
							<parameter>
								<parameterid>Low Frequency</parameterid>
								<name>Low Frequency</name>
								<valuemin>80</valuemin>
								<valuemax>2000</valuemax>
								<value>214</value>
							</parameter>
							<parameter>
								<parameterid>Low Gain(dB)</parameterid>
								<name>Low Gain(dB)</name>
								<valuemin>-20</valuemin>
								<valuemax>20</valuemax>
								<value>6</value>
							</parameter>
							<parameter>
								<parameterid>Mid Frequency</parameterid>
								<name>Mid Frequency</name>
								<valuemin>400</valuemin>
								<valuemax>8000</valuemax>
								<value>3602</value>
							</parameter>
							<parameter>
								<parameterid>Mid Gain(dB)</parameterid>
								<name>Mid Gain(dB)</name>
								<valuemin>-20</valuemin>
								<valuemax>20</valuemax>
								<value>-2</value>
							</parameter>
							<parameter>
								<parameterid>High Frequency</parameterid>
								<name>High Frequency</name>
								<valuemin>5000</valuemin>
								<valuemax>20000</valuemax>
								<value>10354</value>
							</parameter>
							<parameter>
								<parameterid>High Gain(dB)</parameterid>
								<name>High Gain(dB)</name>
								<valuemin>-20</valuemin>
								<valuemax>20</valuemax>
								<value>0</value>
							</parameter>
						</effect>
					</filter>
					<filter>
						<enabled>TRUE</enabled>
						<start>-1</start>
						<end>-1</end>
						<effect>
							<name>Compressor/Limiter</name>
							<effecttype>filter</effecttype>
							<mediatype>audio</mediatype>
							<parameter>
								<parameterid>Threshold(dB)</parameterid>
								<name>Threshold(dB)</name>
								<valuemin>-90</valuemin>
								<valuemax>0</valuemax>
								<value>-20</value>
							</parameter>
							<parameter>
								<parameterid>Ratio</parameterid>
								<name>Ratio</name>
								<valuemin>1</valuemin>
								<valuemax>100</valuemax>
								<value>2</value>
							</parameter>
							<parameter>
								<parameterid>Attack Time</parameterid>
								<name>Attack Time</name>
								<valuemin>1</valuemin>
								<valuemax>100</valuemax>
								<value>5</value>
							</parameter>
							<parameter>
								<parameterid>Release Time</parameterid>
								<name>Release Time</name>
								<valuemin>1</valuemin>
								<valuemax>4000</valuemax>
								<value>209</value>
							</parameter>
							<parameter>
								<parameterid>Preserve Volume</parameterid>
								<name>Preserve Volume</name>
								<value>TRUE</value>
							</parameter>
						</effect>
					</filter>
					<filter>
						<effect>
							<name>Audio Levels</name>
							<effectid>audiolevels</effectid>
							<effectcategory>audiolevels</effectcategory>
							<effecttype>audiolevels</effecttype>
							<mediatype>audio</mediatype>
							<parameter>
								<name>Level</name>
								<parameterid>level</parameterid>
								<valuemin>0</valuemin>
								<valuemax>3.98109</valuemax>
								<keyframe>
									<when>4970.43</when>
									<value>1.25893</value>
								</keyframe>
								<keyframe>
									<when>4975.57</when>
									<value>1.12202</value>
								</keyframe>
								<keyframe>
									<when>4995.57</when>
									<value>1.12202</value>
								</keyframe>
								<keyframe>
									<when>4999</when>
									<value>1.77828</value>
								</keyframe>
								<interpolation>
									<name>FCPCurve</name>
								</interpolation>
								<value>1.12202</value>
							</parameter>
						</effect>
					</filter>
					<filter>
						<effect>
							<name>Audio Pan</name>
							<effectid>audiopan</effectid>
							<effectcategory>audiopan</effectcategory>
							<effecttype>audiopan</effecttype>
							<mediatype>audio</mediatype>
							<parameter>
								<name>Pan</name>
								<parameterid>pan</parameterid>
								<valuemin>-1</valuemin>
								<valuemax>1</valuemax>
								<value>0</value>
							</parameter>
						</effect>
					</filter>
					<sourcetrack>
						<mediatype>audio</mediatype>
						<trackindex>1</trackindex>
					</sourcetrack>
					<link>
						<linkclipref>msub200012-3011-k1d2-004 5</linkclipref>
						<mediatype>video</mediatype>
						<trackindex>1</trackindex>
						<clipindex>58</clipindex>
					</link>
					<link>
						<linkclipref>msub200012-3011-k1d2-004 6</linkclipref>
						<mediatype>audio</mediatype>
						<trackindex>1</trackindex>
						<clipindex>53</clipindex>
					</link>
					<link>
						<linkclipref>msub200012-3011-k1d2-004 7</linkclipref>
						<mediatype>audio</mediatype>
						<trackindex>2</trackindex>
						<clipindex>59</clipindex>
					</link>
				</clipitem>
				<transitionitem id="38707520 ">
					<rate>
						<ntsc>FALSE</ntsc>
						<timebase>25</timebase>
					</rate>
					<start>17570</start>
					<end>17576</end>
					<alignment>center</alignment>
					<effect>
						<name>Cross Fade (+3dB) Copy</name>
						<effecttype>transition</effecttype>
						<mediatype>audio</mediatype>
					</effect>
				</transitionitem>
				<clipitem id="msub200012-3011-k1d2-003 7">
					<name>msub200012-3011-k1d2-003</name>
					<duration>16188</duration>
					<rate>
						<ntsc>FALSE</ntsc>
						<timebase>25</timebase>
					</rate>
					<in>14547</in>
					<out>15153</out>
					<start>-1</start>
					<end>-1</end>
					<subframeoffset>0</subframeoffset>
					<enabled>TRUE</enabled>
					<masterclipid>msub200012-3011-k1d2-003 1</masterclipid>
					<syncoffset>0</syncoffset>
					<logginginfo>
						<description>msub200012-3011-k1d2-003</description>
						<scene/>
						<shottake/>
						<lognote/>
						<good>FALSE</good>
					</logginginfo>
					<labels>
						<label>Best Take</label>
						<label2/>
					</labels>
					<comments>
						<mastercomment1>RÃ…STOFF. BR_FINFREDAG_MSUA_OPRO</mastercomment1>
						<mastercomment2/>
						<mastercomment3/>
						<mastercomment4/>
						<clipcommenta/>
					</comments>
					<file id="msub200012-3011-k1d2-003 2"/>
					<filter>
						<enabled>TRUE</enabled>
						<start>-1</start>
						<end>-1</end>
						<effect>
							<name>3 Band Equalizer - Kristine</name>
							<effecttype>filter</effecttype>
							<mediatype>audio</mediatype>
							<parameter>
								<parameterid>Low Frequency</parameterid>
								<name>Low Frequency</name>
								<valuemin>80</valuemin>
								<valuemax>2000</valuemax>
								<value>152</value>
							</parameter>
							<parameter>
								<parameterid>Low Gain(dB)</parameterid>
								<name>Low Gain(dB)</name>
								<valuemin>-20</valuemin>
								<valuemax>20</valuemax>
								<value>6</value>
							</parameter>
							<parameter>
								<parameterid>Mid Frequency</parameterid>
								<name>Mid Frequency</name>
								<valuemin>400</valuemin>
								<valuemax>8000</valuemax>
								<value>2557</value>
							</parameter>
							<parameter>
								<parameterid>Mid Gain(dB)</parameterid>
								<name>Mid Gain(dB)</name>
								<valuemin>-20</valuemin>
								<valuemax>20</valuemax>
								<value>-4</value>
							</parameter>
							<parameter>
								<parameterid>High Frequency</parameterid>
								<name>High Frequency</name>
								<valuemin>5000</valuemin>
								<valuemax>20000</valuemax>
								<value>8021</value>
							</parameter>
							<parameter>
								<parameterid>High Gain(dB)</parameterid>
								<name>High Gain(dB)</name>
								<valuemin>-20</valuemin>
								<valuemax>20</valuemax>
								<value>0</value>
							</parameter>
						</effect>
					</filter>
					<filter>
						<enabled>TRUE</enabled>
						<start>-1</start>
						<end>-1</end>
						<effect>
							<name>Compressor/Limiter</name>
							<effecttype>filter</effecttype>
							<mediatype>audio</mediatype>
							<parameter>
								<parameterid>Threshold(dB)</parameterid>
								<name>Threshold(dB)</name>
								<valuemin>-90</valuemin>
								<valuemax>0</valuemax>
								<value>-20</value>
							</parameter>
							<parameter>
								<parameterid>Ratio</parameterid>
								<name>Ratio</name>
								<valuemin>1</valuemin>
								<valuemax>100</valuemax>
								<value>2</value>
							</parameter>
							<parameter>
								<parameterid>Attack Time</parameterid>
								<name>Attack Time</name>
								<valuemin>1</valuemin>
								<valuemax>100</valuemax>
								<value>5</value>
							</parameter>
							<parameter>
								<parameterid>Release Time</parameterid>
								<name>Release Time</name>
								<valuemin>1</valuemin>
								<valuemax>4000</valuemax>
								<value>209</value>
							</parameter>
							<parameter>
								<parameterid>Preserve Volume</parameterid>
								<name>Preserve Volume</name>
								<value>TRUE</value>
							</parameter>
						</effect>
					</filter>
					<filter>
						<effect>
							<name>Audio Levels</name>
							<effectid>audiolevels</effectid>
							<effectcategory>audiolevels</effectcategory>
							<effecttype>audiolevels</effecttype>
							<mediatype>audio</mediatype>
							<parameter>
								<name>Level</name>
								<parameterid>level</parameterid>
								<valuemin>0</valuemin>
								<valuemax>3.98109</valuemax>
								<keyframe>
									<when>14625.4</when>
									<value>0.0501187</value>
								</keyframe>
								<keyframe>
									<when>14921.9</when>
									<value>0.0177828</value>
								</keyframe>
								<keyframe>
									<when>14941</when>
									<value>2.29782</value>
								</keyframe>
								<keyframe>
									<when>14993</when>
									<value>2.06768</value>
								</keyframe>
								<keyframe>
									<when>14996</when>
									<value>0.423496</value>
								</keyframe>
								<keyframe>
									<when>15003.6</when>
									<value>0.496064</value>
								</keyframe>
								<keyframe>
									<when>15005.1</when>
									<value>1.28082</value>
								</keyframe>
								<keyframe>
									<when>15057.6</when>
									<value>1.62434</value>
								</keyframe>
								<keyframe>
									<when>15059.6</when>
									<value>0.354813</value>
								</keyframe>
								<keyframe>
									<when>15072.5</when>
									<value>0.354813</value>
								</keyframe>
								<keyframe>
									<when>15073.4</when>
									<value>1.41254</value>
								</keyframe>
								<keyframe>
									<when>15098.9</when>
									<value>1.41254</value>
								</keyframe>
								<keyframe>
									<when>15100.5</when>
									<value>0.0251189</value>
								</keyframe>
								<keyframe>
									<when>15131.4</when>
									<value>0.0323749</value>
								</keyframe>
								<keyframe>
									<when>15134.6</when>
									<value>1.12202</value>
								</keyframe>
								<keyframe>
									<when>15145.7</when>
									<value>1.12202</value>
								</keyframe>
								<interpolation>
									<name>FCPCurve</name>
								</interpolation>
								<value>0.028286</value>
							</parameter>
						</effect>
					</filter>
					<filter>
						<effect>
							<name>Audio Pan</name>
							<effectid>audiopan</effectid>
							<effectcategory>audiopan</effectcategory>
							<effecttype>audiopan</effecttype>
							<mediatype>audio</mediatype>
							<parameter>
								<name>Pan</name>
								<parameterid>pan</parameterid>
								<valuemin>-1</valuemin>
								<valuemax>1</valuemax>
								<value>0</value>
							</parameter>
						</effect>
					</filter>
					<sourcetrack>
						<mediatype>audio</mediatype>
						<trackindex>1</trackindex>
					</sourcetrack>
					<link>
						<linkclipref>msub200012-3011-k1d2-003 7</linkclipref>
						<mediatype>audio</mediatype>
						<trackindex>1</trackindex>
						<clipindex>55</clipindex>
					</link>
					<link>
						<linkclipref>msub200012-3011-k1d2-003 8</linkclipref>
						<mediatype>audio</mediatype>
						<trackindex>2</trackindex>
						<clipindex>61</clipindex>
					</link>
				</clipitem>
				<transitionitem id="38712144 ">
					<rate>
						<ntsc>FALSE</ntsc>
						<timebase>25</timebase>
					</rate>
					<start>18174</start>
					<end>18176</end>
					<alignment>center</alignment>
					<effect>
						<name>Cross Fade (+3dB) Copy</name>
						<effecttype>transition</effecttype>
						<mediatype>audio</mediatype>
					</effect>
				</transitionitem>
				<clipitem id="msub200012-3011-k1d2-004 9">
					<name>msub200012-3011-k1d2-004</name>
					<duration>6412</duration>
					<rate>
						<ntsc>FALSE</ntsc>
						<timebase>25</timebase>
					</rate>
					<in>5996</in>
					<out>6265</out>
					<start>-1</start>
					<end>-1</end>
					<subframeoffset>0</subframeoffset>
					<enabled>TRUE</enabled>
					<masterclipid>msub200012-3011-k1d2-004 1</masterclipid>
					<logginginfo>
						<description>msub200012-3011-k1d2-004</description>
						<scene/>
						<shottake/>
						<lognote/>
						<good>FALSE</good>
					</logginginfo>
					<labels>
						<label2/>
					</labels>
					<comments>
						<mastercomment1>RÃ…STOFF. BR_FINFREDAG_MSUA_OPRO</mastercomment1>
						<mastercomment2/>
						<mastercomment3/>
						<mastercomment4/>
						<clipcommenta/>
					</comments>
					<file id="msub200012-3011-k1d2-004 2"/>
					<filter>
						<enabled>TRUE</enabled>
						<start>-1</start>
						<end>-1</end>
						<effect>
							<name>3 Band Equalizer - Kristine</name>
							<effecttype>filter</effecttype>
							<mediatype>audio</mediatype>
							<parameter>
								<parameterid>Low Frequency</parameterid>
								<name>Low Frequency</name>
								<valuemin>80</valuemin>
								<valuemax>2000</valuemax>
								<value>162</value>
							</parameter>
							<parameter>
								<parameterid>Low Gain(dB)</parameterid>
								<name>Low Gain(dB)</name>
								<valuemin>-20</valuemin>
								<valuemax>20</valuemax>
								<value>6</value>
							</parameter>
							<parameter>
								<parameterid>Mid Frequency</parameterid>
								<name>Mid Frequency</name>
								<valuemin>400</valuemin>
								<valuemax>8000</valuemax>
								<value>3602</value>
							</parameter>
							<parameter>
								<parameterid>Mid Gain(dB)</parameterid>
								<name>Mid Gain(dB)</name>
								<valuemin>-20</valuemin>
								<valuemax>20</valuemax>
								<value>-3</value>
							</parameter>
							<parameter>
								<parameterid>High Frequency</parameterid>
								<name>High Frequency</name>
								<valuemin>5000</valuemin>
								<valuemax>20000</valuemax>
								<value>10354</value>
							</parameter>
							<parameter>
								<parameterid>High Gain(dB)</parameterid>
								<name>High Gain(dB)</name>
								<valuemin>-20</valuemin>
								<valuemax>20</valuemax>
								<value>0</value>
							</parameter>
						</effect>
					</filter>
					<filter>
						<enabled>TRUE</enabled>
						<start>-1</start>
						<end>-1</end>
						<effect>
							<name>Compressor/Limiter</name>
							<effecttype>filter</effecttype>
							<mediatype>audio</mediatype>
							<parameter>
								<parameterid>Threshold(dB)</parameterid>
								<name>Threshold(dB)</name>
								<valuemin>-90</valuemin>
								<valuemax>0</valuemax>
								<value>-20</value>
							</parameter>
							<parameter>
								<parameterid>Ratio</parameterid>
								<name>Ratio</name>
								<valuemin>1</valuemin>
								<valuemax>100</valuemax>
								<value>2</value>
							</parameter>
							<parameter>
								<parameterid>Attack Time</parameterid>
								<name>Attack Time</name>
								<valuemin>1</valuemin>
								<valuemax>100</valuemax>
								<value>5</value>
							</parameter>
							<parameter>
								<parameterid>Release Time</parameterid>
								<name>Release Time</name>
								<valuemin>1</valuemin>
								<valuemax>4000</valuemax>
								<value>209</value>
							</parameter>
							<parameter>
								<parameterid>Preserve Volume</parameterid>
								<name>Preserve Volume</name>
								<value>TRUE</value>
							</parameter>
						</effect>
					</filter>
					<filter>
						<effect>
							<name>Audio Levels</name>
							<effectid>audiolevels</effectid>
							<effectcategory>audiolevels</effectcategory>
							<effecttype>audiolevels</effecttype>
							<mediatype>audio</mediatype>
							<parameter>
								<name>Level</name>
								<parameterid>level</parameterid>
								<valuemin>0</valuemin>
								<valuemax>3.98109</valuemax>
								<keyframe>
									<when>5998.43</when>
									<value>1</value>
								</keyframe>
								<keyframe>
									<when>6037.57</when>
									<value>1</value>
								</keyframe>
								<keyframe>
									<when>6041</when>
									<value>1.25893</value>
								</keyframe>
								<keyframe>
									<when>6089.86</when>
									<value>1.58489</value>
								</keyframe>
								<keyframe>
									<when>6092.71</when>
									<value>1.12202</value>
								</keyframe>
								<keyframe>
									<when>6138.14</when>
									<value>1.12202</value>
								</keyframe>
								<keyframe>
									<when>6143.86</when>
									<value>1.25893</value>
								</keyframe>
								<keyframe>
									<when>6189.29</when>
									<value>1.25893</value>
								</keyframe>
								<keyframe>
									<when>6236.43</when>
									<value>1.41254</value>
								</keyframe>
								<interpolation>
									<name>FCPCurve</name>
								</interpolation>
								<value>1.25893</value>
							</parameter>
						</effect>
					</filter>
					<filter>
						<effect>
							<name>Audio Pan</name>
							<effectid>audiopan</effectid>
							<effectcategory>audiopan</effectcategory>
							<effecttype>audiopan</effecttype>
							<mediatype>audio</mediatype>
							<parameter>
								<name>Pan</name>
								<parameterid>pan</parameterid>
								<valuemin>-1</valuemin>
								<valuemax>1</valuemax>
								<value>0</value>
							</parameter>
						</effect>
					</filter>
					<sourcetrack>
						<mediatype>audio</mediatype>
						<trackindex>1</trackindex>
					</sourcetrack>
					<link>
						<linkclipref>msub200012-3011-k1d2-004 8</linkclipref>
						<mediatype>video</mediatype>
						<trackindex>1</trackindex>
						<clipindex>62</clipindex>
					</link>
					<link>
						<linkclipref>msub200012-3011-k1d2-004 9</linkclipref>
						<mediatype>audio</mediatype>
						<trackindex>1</trackindex>
						<clipindex>57</clipindex>
					</link>
					<link>
						<linkclipref>msub200012-3011-k1d2-004 10</linkclipref>
						<mediatype>audio</mediatype>
						<trackindex>2</trackindex>
						<clipindex>63</clipindex>
					</link>
				</clipitem>
				<transitionitem id="38791860 ">
					<rate>
						<ntsc>FALSE</ntsc>
						<timebase>25</timebase>
					</rate>
					<start>18437</start>
					<end>18443</end>
					<alignment>end-black</alignment>
					<effect>
						<name>Cross Fade (+3dB) Copy</name>
						<effecttype>transition</effecttype>
						<mediatype>audio</mediatype>
					</effect>
				</transitionitem>
				<clipitem id="msub200012-3011-k1d2-006 3">
					<name>msub200012-3011-k1d2-006</name>
					<duration>2909</duration>
					<rate>
						<ntsc>FALSE</ntsc>
						<timebase>25</timebase>
					</rate>
					<in>2038</in>
					<out>2199</out>
					<start>21533</start>
					<end>-1</end>
					<subframeoffset>0</subframeoffset>
					<enabled>TRUE</enabled>
					<masterclipid>msub200012-3011-k1d2-006 1</masterclipid>
					<syncoffset>0</syncoffset>
					<logginginfo>
						<description>msub200012-3011-k1d2-006</description>
						<scene/>
						<shottake/>
						<lognote/>
						<good>FALSE</good>
					</logginginfo>
					<labels>
						<label>Alternate Shots</label>
						<label2/>
					</labels>
					<comments>
						<mastercomment1>RÃ…STOFF. BR_FINFREDAG_MSUA_OPRO</mastercomment1>
						<mastercomment2/>
						<mastercomment3/>
						<mastercomment4/>
						<clipcommenta/>
					</comments>
					<file id="msub200012-3011-k1d2-006 2"/>
					<filter>
						<enabled>TRUE</enabled>
						<start>-1</start>
						<end>-1</end>
						<effect>
							<name>3 Band Equalizer - Kristine</name>
							<effecttype>filter</effecttype>
							<mediatype>audio</mediatype>
							<parameter>
								<parameterid>Low Frequency</parameterid>
								<name>Low Frequency</name>
								<valuemin>80</valuemin>
								<valuemax>2000</valuemax>
								<value>162</value>
							</parameter>
							<parameter>
								<parameterid>Low Gain(dB)</parameterid>
								<name>Low Gain(dB)</name>
								<valuemin>-20</valuemin>
								<valuemax>20</valuemax>
								<value>6</value>
							</parameter>
							<parameter>
								<parameterid>Mid Frequency</parameterid>
								<name>Mid Frequency</name>
								<valuemin>400</valuemin>
								<valuemax>8000</valuemax>
								<value>3602</value>
							</parameter>
							<parameter>
								<parameterid>Mid Gain(dB)</parameterid>
								<name>Mid Gain(dB)</name>
								<valuemin>-20</valuemin>
								<valuemax>20</valuemax>
								<value>-3</value>
							</parameter>
							<parameter>
								<parameterid>High Frequency</parameterid>
								<name>High Frequency</name>
								<valuemin>5000</valuemin>
								<valuemax>20000</valuemax>
								<value>10354</value>
							</parameter>
							<parameter>
								<parameterid>High Gain(dB)</parameterid>
								<name>High Gain(dB)</name>
								<valuemin>-20</valuemin>
								<valuemax>20</valuemax>
								<value>0</value>
							</parameter>
						</effect>
					</filter>
					<filter>
						<enabled>TRUE</enabled>
						<start>-1</start>
						<end>-1</end>
						<effect>
							<name>Compressor/Limiter</name>
							<effecttype>filter</effecttype>
							<mediatype>audio</mediatype>
							<parameter>
								<parameterid>Threshold(dB)</parameterid>
								<name>Threshold(dB)</name>
								<valuemin>-90</valuemin>
								<valuemax>0</valuemax>
								<value>-20</value>
							</parameter>
							<parameter>
								<parameterid>Ratio</parameterid>
								<name>Ratio</name>
								<valuemin>1</valuemin>
								<valuemax>100</valuemax>
								<value>2</value>
							</parameter>
							<parameter>
								<parameterid>Attack Time</parameterid>
								<name>Attack Time</name>
								<valuemin>1</valuemin>
								<valuemax>100</valuemax>
								<value>5</value>
							</parameter>
							<parameter>
								<parameterid>Release Time</parameterid>
								<name>Release Time</name>
								<valuemin>1</valuemin>
								<valuemax>4000</valuemax>
								<value>209</value>
							</parameter>
							<parameter>
								<parameterid>Preserve Volume</parameterid>
								<name>Preserve Volume</name>
								<value>TRUE</value>
							</parameter>
						</effect>
					</filter>
					<filter>
						<effect>
							<name>Audio Levels</name>
							<effectid>audiolevels</effectid>
							<effectcategory>audiolevels</effectcategory>
							<effecttype>audiolevels</effecttype>
							<mediatype>audio</mediatype>
							<parameter>
								<name>Level</name>
								<parameterid>level</parameterid>
								<valuemin>0</valuemin>
								<valuemax>3.98109</valuemax>
								<keyframe>
									<when>2284.29</when>
									<value>1</value>
								</keyframe>
								<keyframe>
									<when>2289.43</when>
									<value>1.25893</value>
								</keyframe>
								<keyframe>
									<when>2298.57</when>
									<value>1.58489</value>
								</keyframe>
								<keyframe>
									<when>2340.29</when>
									<value>1.58489</value>
								</keyframe>
								<keyframe>
									<when>2356.29</when>
									<value>1.25893</value>
								</keyframe>
								<keyframe>
									<when>2363.71</when>
									<value>0.0891251</value>
								</keyframe>
								<keyframe>
									<when>2380.86</when>
									<value>0.112202</value>
								</keyframe>
								<keyframe>
									<when>2387.14</when>
									<value>1.25893</value>
								</keyframe>
								<keyframe>
									<when>2419.71</when>
									<value>1.25893</value>
								</keyframe>
								<keyframe>
									<when>2438.57</when>
									<value>1.77828</value>
								</keyframe>
								<keyframe>
									<when>2457.43</when>
									<value>1.99526</value>
								</keyframe>
								<keyframe>
									<when>2462.57</when>
									<value>1.99526</value>
								</keyframe>
								<keyframe>
									<when>2491.71</when>
									<value>1.77828</value>
								</keyframe>
								<keyframe>
									<when>2503.71</when>
									<value>1.25893</value>
								</keyframe>
								<keyframe>
									<when>2522.57</when>
									<value>1.12202</value>
								</keyframe>
								<keyframe>
									<when>2527.71</when>
									<value>0.891251</value>
								</keyframe>
								<keyframe>
									<when>2559.71</when>
									<value>1.99526</value>
								</keyframe>
								<keyframe>
									<when>2568.86</when>
									<value>0.0630957</value>
								</keyframe>
								<interpolation>
									<name>FCPCurve</name>
								</interpolation>
								<value>1</value>
							</parameter>
						</effect>
					</filter>
					<filter>
						<effect>
							<name>Audio Pan</name>
							<effectid>audiopan</effectid>
							<effectcategory>audiopan</effectcategory>
							<effecttype>audiopan</effecttype>
							<mediatype>audio</mediatype>
							<parameter>
								<name>Pan</name>
								<parameterid>pan</parameterid>
								<valuemin>-1</valuemin>
								<valuemax>1</valuemax>
								<value>0</value>
							</parameter>
						</effect>
					</filter>
					<sourcetrack>
						<mediatype>audio</mediatype>
						<trackindex>1</trackindex>
					</sourcetrack>
					<link>
						<linkclipref>msub200012-3011-k1d2-006 </linkclipref>
						<mediatype>video</mediatype>
						<trackindex>1</trackindex>
						<clipindex>63</clipindex>
					</link>
					<link>
						<linkclipref>msub200012-3011-k1d2-006 3</linkclipref>
						<mediatype>audio</mediatype>
						<trackindex>1</trackindex>
						<clipindex>59</clipindex>
					</link>
					<link>
						<linkclipref>msub200012-3011-k1d2-006 4</linkclipref>
						<mediatype>audio</mediatype>
						<trackindex>2</trackindex>
						<clipindex>65</clipindex>
					</link>
				</clipitem>
				<transitionitem id="38796620 ">
					<rate>
						<ntsc>FALSE</ntsc>
						<timebase>25</timebase>
					</rate>
					<start>21688</start>
					<end>21694</end>
					<alignment>end-black</alignment>
					<effect>
						<name>Cross Fade (+3dB) Copy</name>
						<effecttype>transition</effecttype>
						<mediatype>audio</mediatype>
					</effect>
				</transitionitem>
				<transitionitem id="38797096 ">
					<rate>
						<ntsc>FALSE</ntsc>
						<timebase>25</timebase>
					</rate>
					<start>22602</start>
					<end>22608</end>
					<alignment>start-black</alignment>
					<effect>
						<name>Cross Fade (+3dB) Copy</name>
						<effecttype>transition</effecttype>
						<mediatype>audio</mediatype>
					</effect>
				</transitionitem>
				<clipitem id="msub200012-3011-k1d2-007 3">
					<name>msub200012-3011-k1d2-007</name>
					<duration>5622</duration>
					<rate>
						<ntsc>FALSE</ntsc>
						<timebase>25</timebase>
					</rate>
					<in>251</in>
					<out>767</out>
					<start>-1</start>
					<end>-1</end>
					<subframeoffset>0</subframeoffset>
					<enabled>TRUE</enabled>
					<masterclipid>msub200012-3011-k1d2-007 1</masterclipid>
					<syncoffset>0</syncoffset>
					<logginginfo>
						<description>msub200012-3011-k1d2-007</description>
						<scene/>
						<shottake/>
						<lognote/>
						<good>FALSE</good>
					</logginginfo>
					<labels>
						<label>Interviews</label>
						<label2/>
					</labels>
					<comments>
						<mastercomment1>RÃ…STOFF. BR_FINFREDAG_MSUA_OPRO</mastercomment1>
						<mastercomment2/>
						<mastercomment3/>
						<mastercomment4/>
						<clipcommenta/>
					</comments>
					<file id="msub200012-3011-k1d2-007 2"/>
					<filter>
						<enabled>TRUE</enabled>
						<start>-1</start>
						<end>-1</end>
						<effect>
							<name>3 Band Equalizer - Kristine</name>
							<effecttype>filter</effecttype>
							<mediatype>audio</mediatype>
							<parameter>
								<parameterid>Low Frequency</parameterid>
								<name>Low Frequency</name>
								<valuemin>80</valuemin>
								<valuemax>2000</valuemax>
								<value>162</value>
							</parameter>
							<parameter>
								<parameterid>Low Gain(dB)</parameterid>
								<name>Low Gain(dB)</name>
								<valuemin>-20</valuemin>
								<valuemax>20</valuemax>
								<value>5</value>
							</parameter>
							<parameter>
								<parameterid>Mid Frequency</parameterid>
								<name>Mid Frequency</name>
								<valuemin>400</valuemin>
								<valuemax>8000</valuemax>
								<value>3602</value>
							</parameter>
							<parameter>
								<parameterid>Mid Gain(dB)</parameterid>
								<name>Mid Gain(dB)</name>
								<valuemin>-20</valuemin>
								<valuemax>20</valuemax>
								<value>-3</value>
							</parameter>
							<parameter>
								<parameterid>High Frequency</parameterid>
								<name>High Frequency</name>
								<valuemin>5000</valuemin>
								<valuemax>20000</valuemax>
								<value>10354</value>
							</parameter>
							<parameter>
								<parameterid>High Gain(dB)</parameterid>
								<name>High Gain(dB)</name>
								<valuemin>-20</valuemin>
								<valuemax>20</valuemax>
								<value>0</value>
							</parameter>
						</effect>
					</filter>
					<filter>
						<enabled>TRUE</enabled>
						<start>-1</start>
						<end>-1</end>
						<effect>
							<name>Compressor/Limiter</name>
							<effecttype>filter</effecttype>
							<mediatype>audio</mediatype>
							<parameter>
								<parameterid>Threshold(dB)</parameterid>
								<name>Threshold(dB)</name>
								<valuemin>-90</valuemin>
								<valuemax>0</valuemax>
								<value>-20</value>
							</parameter>
							<parameter>
								<parameterid>Ratio</parameterid>
								<name>Ratio</name>
								<valuemin>1</valuemin>
								<valuemax>100</valuemax>
								<value>2</value>
							</parameter>
							<parameter>
								<parameterid>Attack Time</parameterid>
								<name>Attack Time</name>
								<valuemin>1</valuemin>
								<valuemax>100</valuemax>
								<value>5</value>
							</parameter>
							<parameter>
								<parameterid>Release Time</parameterid>
								<name>Release Time</name>
								<valuemin>1</valuemin>
								<valuemax>4000</valuemax>
								<value>209</value>
							</parameter>
							<parameter>
								<parameterid>Preserve Volume</parameterid>
								<name>Preserve Volume</name>
								<value>TRUE</value>
							</parameter>
						</effect>
					</filter>
					<filter>
						<effect>
							<name>Audio Levels</name>
							<effectid>audiolevels</effectid>
							<effectcategory>audiolevels</effectcategory>
							<effecttype>audiolevels</effecttype>
							<mediatype>audio</mediatype>
							<parameter>
								<name>Level</name>
								<parameterid>level</parameterid>
								<valuemin>0</valuemin>
								<valuemax>3.98109</valuemax>
								<keyframe>
									<when>337.143</when>
									<value>1.99526</value>
								</keyframe>
								<keyframe>
									<when>370.429</when>
									<value>2.23872</value>
								</keyframe>
								<keyframe>
									<when>378.429</when>
									<value>3.16228</value>
								</keyframe>
								<keyframe>
									<when>417.286</when>
									<value>3.16228</value>
								</keyframe>
								<keyframe>
									<when>419.857</when>
									<value>0.794328</value>
								</keyframe>
								<keyframe>
									<when>426.286</when>
									<value>0.794328</value>
								</keyframe>
								<keyframe>
									<when>429</when>
									<value>1.25893</value>
								</keyframe>
								<keyframe>
									<when>536.857</when>
									<value>1.25893</value>
								</keyframe>
								<keyframe>
									<when>541.143</when>
									<value>1.77828</value>
								</keyframe>
								<keyframe>
									<when>560</when>
									<value>1.77828</value>
								</keyframe>
								<keyframe>
									<when>565.714</when>
									<value>1.25893</value>
								</keyframe>
								<keyframe>
									<when>574</when>
									<value>1.25893</value>
								</keyframe>
								<keyframe>
									<when>578.571</when>
									<value>1.99526</value>
								</keyframe>
								<keyframe>
									<when>645.143</when>
									<value>1.99526</value>
								</keyframe>
								<keyframe>
									<when>653.714</when>
									<value>0.891251</value>
								</keyframe>
								<keyframe>
									<when>687.143</when>
									<value>1.25893</value>
								</keyframe>
								<keyframe>
									<when>690.857</when>
									<value>1.77828</value>
								</keyframe>
								<interpolation>
									<name>FCPCurve</name>
								</interpolation>
								<value>1.77828</value>
							</parameter>
						</effect>
					</filter>
					<filter>
						<effect>
							<name>Audio Pan</name>
							<effectid>audiopan</effectid>
							<effectcategory>audiopan</effectcategory>
							<effecttype>audiopan</effecttype>
							<mediatype>audio</mediatype>
							<parameter>
								<name>Pan</name>
								<parameterid>pan</parameterid>
								<valuemin>-1</valuemin>
								<valuemax>1</valuemax>
								<value>0</value>
							</parameter>
						</effect>
					</filter>
					<sourcetrack>
						<mediatype>audio</mediatype>
						<trackindex>1</trackindex>
					</sourcetrack>
					<link>
						<linkclipref>msub200012-3011-k1d2-007 </linkclipref>
						<mediatype>video</mediatype>
						<trackindex>1</trackindex>
						<clipindex>64</clipindex>
					</link>
					<link>
						<linkclipref>msub200012-3011-k1d2-007 3</linkclipref>
						<mediatype>audio</mediatype>
						<trackindex>1</trackindex>
						<clipindex>62</clipindex>
					</link>
					<link>
						<linkclipref>msub200012-3011-k1d2-007 4</linkclipref>
						<mediatype>audio</mediatype>
						<trackindex>2</trackindex>
						<clipindex>66</clipindex>
					</link>
				</clipitem>
				<transitionitem id="38801788 ">
					<rate>
						<ntsc>FALSE</ntsc>
						<timebase>25</timebase>
					</rate>
					<start>23112</start>
					<end>23118</end>
					<alignment>end-black</alignment>
					<effect>
						<name>Cross Fade (+3dB) Copy</name>
						<effecttype>transition</effecttype>
						<mediatype>audio</mediatype>
					</effect>
				</transitionitem>
				<clipitem id="msub200012-2308-k1d1-009 5">
					<name>msub200012-2308-k1d1-009</name>
					<duration>2094</duration>
					<rate>
						<ntsc>FALSE</ntsc>
						<timebase>25</timebase>
					</rate>
					<in>1363</in>
					<out>1419</out>
					<start>23168</start>
					<end>-1</end>
					<subframeoffset>0</subframeoffset>
					<enabled>TRUE</enabled>
					<masterclipid>msub200012-2308-k1d1-009 1</masterclipid>
					<logginginfo>
						<description>msub200012-2308-k1d1-009</description>
						<scene/>
						<shottake/>
						<lognote/>
						<good>FALSE</good>
					</logginginfo>
					<labels>
						<label2/>
					</labels>
					<comments>
						<mastercomment1>RÃ…STOFF. BR_FINFREDAG_MSUA_OPRO</mastercomment1>
						<mastercomment2/>
						<mastercomment3/>
						<mastercomment4/>
					</comments>
					<file id="msub200012-2308-k1d1-009 2"/>
					<filter>
						<enabled>TRUE</enabled>
						<start>-1</start>
						<end>-1</end>
						<effect>
							<name>3 Band Equalizer - Mann</name>
							<effecttype>filter</effecttype>
							<mediatype>audio</mediatype>
							<parameter>
								<parameterid>Low Frequency</parameterid>
								<name>Low Frequency</name>
								<valuemin>80</valuemin>
								<valuemax>2000</valuemax>
								<value>837</value>
							</parameter>
							<parameter>
								<parameterid>Low Gain(dB)</parameterid>
								<name>Low Gain(dB)</name>
								<valuemin>-20</valuemin>
								<valuemax>20</valuemax>
								<value>-18</value>
							</parameter>
							<parameter>
								<parameterid>Mid Frequency</parameterid>
								<name>Mid Frequency</name>
								<valuemin>400</valuemin>
								<valuemax>8000</valuemax>
								<value>3297</value>
							</parameter>
							<parameter>
								<parameterid>Mid Gain(dB)</parameterid>
								<name>Mid Gain(dB)</name>
								<valuemin>-20</valuemin>
								<valuemax>20</valuemax>
								<value>-11</value>
							</parameter>
							<parameter>
								<parameterid>High Frequency</parameterid>
								<name>High Frequency</name>
								<valuemin>5000</valuemin>
								<valuemax>20000</valuemax>
								<value>10354</value>
							</parameter>
							<parameter>
								<parameterid>High Gain(dB)</parameterid>
								<name>High Gain(dB)</name>
								<valuemin>-20</valuemin>
								<valuemax>20</valuemax>
								<value>-20</value>
							</parameter>
						</effect>
					</filter>
					<filter>
						<enabled>TRUE</enabled>
						<start>-1</start>
						<end>-1</end>
						<effect>
							<name>Compressor/Limiter</name>
							<effecttype>filter</effecttype>
							<mediatype>audio</mediatype>
							<parameter>
								<parameterid>Threshold(dB)</parameterid>
								<name>Threshold(dB)</name>
								<valuemin>-90</valuemin>
								<valuemax>0</valuemax>
								<value>-34</value>
							</parameter>
							<parameter>
								<parameterid>Ratio</parameterid>
								<name>Ratio</name>
								<valuemin>1</valuemin>
								<valuemax>100</valuemax>
								<value>2</value>
							</parameter>
							<parameter>
								<parameterid>Attack Time</parameterid>
								<name>Attack Time</name>
								<valuemin>1</valuemin>
								<valuemax>100</valuemax>
								<value>10</value>
							</parameter>
							<parameter>
								<parameterid>Release Time</parameterid>
								<name>Release Time</name>
								<valuemin>1</valuemin>
								<valuemax>4000</valuemax>
								<value>100</value>
							</parameter>
							<parameter>
								<parameterid>Preserve Volume</parameterid>
								<name>Preserve Volume</name>
								<value>TRUE</value>
							</parameter>
						</effect>
					</filter>
					<filter>
						<enabled>TRUE</enabled>
						<start>-1</start>
						<end>-1</end>
						<effect>
							<name>3 Band Equalizer - Mann - 2</name>
							<effecttype>filter</effecttype>
							<mediatype>audio</mediatype>
							<parameter>
								<parameterid>Low Frequency</parameterid>
								<name>Low Frequency</name>
								<valuemin>80</valuemin>
								<valuemax>2000</valuemax>
								<value>837</value>
							</parameter>
							<parameter>
								<parameterid>Low Gain(dB)</parameterid>
								<name>Low Gain(dB)</name>
								<valuemin>-20</valuemin>
								<valuemax>20</valuemax>
								<value>-18</value>
							</parameter>
							<parameter>
								<parameterid>Mid Frequency</parameterid>
								<name>Mid Frequency</name>
								<valuemin>400</valuemin>
								<valuemax>8000</valuemax>
								<value>3297</value>
							</parameter>
							<parameter>
								<parameterid>Mid Gain(dB)</parameterid>
								<name>Mid Gain(dB)</name>
								<valuemin>-20</valuemin>
								<valuemax>20</valuemax>
								<value>-11</value>
							</parameter>
							<parameter>
								<parameterid>High Frequency</parameterid>
								<name>High Frequency</name>
								<valuemin>5000</valuemin>
								<valuemax>20000</valuemax>
								<value>10354</value>
							</parameter>
							<parameter>
								<parameterid>High Gain(dB)</parameterid>
								<name>High Gain(dB)</name>
								<valuemin>-20</valuemin>
								<valuemax>20</valuemax>
								<value>-20</value>
							</parameter>
						</effect>
					</filter>
					<filter>
						<enabled>TRUE</enabled>
						<start>-1</start>
						<end>-1</end>
						<effect>
							<name>Compressor/Limiter - 2</name>
							<effecttype>filter</effecttype>
							<mediatype>audio</mediatype>
							<parameter>
								<parameterid>Threshold(dB)</parameterid>
								<name>Threshold(dB)</name>
								<valuemin>-90</valuemin>
								<valuemax>0</valuemax>
								<value>-34</value>
							</parameter>
							<parameter>
								<parameterid>Ratio</parameterid>
								<name>Ratio</name>
								<valuemin>1</valuemin>
								<valuemax>100</valuemax>
								<value>2</value>
							</parameter>
							<parameter>
								<parameterid>Attack Time</parameterid>
								<name>Attack Time</name>
								<valuemin>1</valuemin>
								<valuemax>100</valuemax>
								<value>10</value>
							</parameter>
							<parameter>
								<parameterid>Release Time</parameterid>
								<name>Release Time</name>
								<valuemin>1</valuemin>
								<valuemax>4000</valuemax>
								<value>100</value>
							</parameter>
							<parameter>
								<parameterid>Preserve Volume</parameterid>
								<name>Preserve Volume</name>
								<value>TRUE</value>
							</parameter>
						</effect>
					</filter>
					<filter>
						<effect>
							<name>Audio Levels</name>
							<effectid>audiolevels</effectid>
							<effectcategory>audiolevels</effectcategory>
							<effecttype>audiolevels</effecttype>
							<mediatype>audio</mediatype>
							<parameter>
								<name>Level</name>
								<parameterid>level</parameterid>
								<valuemin>0</valuemin>
								<valuemax>3.98109</valuemax>
								<keyframe>
									<when>924.116</when>
									<value>0.158489</value>
								</keyframe>
								<keyframe>
									<when>930.143</when>
									<value>0.625532</value>
								</keyframe>
								<keyframe>
									<when>983.571</when>
									<value>0.554755</value>
								</keyframe>
								<keyframe>
									<when>987</when>
									<value>0</value>
								</keyframe>
								<keyframe>
									<when>1032</when>
									<value>0</value>
								</keyframe>
								<keyframe>
									<when>1047.86</when>
									<value>0.794328</value>
								</keyframe>
								<keyframe>
									<when>1077</when>
									<value>0.707946</value>
								</keyframe>
								<keyframe>
									<when>1081.71</when>
									<value>0.0112202</value>
								</keyframe>
								<keyframe>
									<when>1131</when>
									<value>0.0112202</value>
								</keyframe>
								<keyframe>
									<when>1141.29</when>
									<value>0.446684</value>
								</keyframe>
								<keyframe>
									<when>1164.43</when>
									<value>0.446684</value>
								</keyframe>
								<keyframe>
									<when>1173</when>
									<value>0.0177828</value>
								</keyframe>
								<keyframe>
									<when>1343.14</when>
									<value>0.0177828</value>
								</keyframe>
								<keyframe>
									<when>1362.86</when>
									<value>0.398107</value>
								</keyframe>
								<interpolation>
									<name>FCPCurve</name>
								</interpolation>
								<value>0.345726</value>
							</parameter>
						</effect>
					</filter>
					<filter>
						<effect>
							<name>Audio Pan</name>
							<effectid>audiopan</effectid>
							<effectcategory>audiopan</effectcategory>
							<effecttype>audiopan</effecttype>
							<mediatype>audio</mediatype>
							<parameter>
								<name>Pan</name>
								<parameterid>pan</parameterid>
								<valuemin>-1</valuemin>
								<valuemax>1</valuemax>
								<value>0</value>
							</parameter>
						</effect>
					</filter>
					<sourcetrack>
						<mediatype>audio</mediatype>
						<trackindex>1</trackindex>
					</sourcetrack>
					<link>
						<linkclipref>msub200012-2308-k1d1-009 4</linkclipref>
						<mediatype>video</mediatype>
						<trackindex>1</trackindex>
						<clipindex>67</clipindex>
					</link>
					<link>
						<linkclipref>msub200012-2308-k1d1-009 5</linkclipref>
						<mediatype>audio</mediatype>
						<trackindex>1</trackindex>
						<clipindex>64</clipindex>
					</link>
				</clipitem>
				<transitionitem id="38808316 ">
					<rate>
						<ntsc>FALSE</ntsc>
						<timebase>25</timebase>
					</rate>
					<start>23222</start>
					<end>23224</end>
					<alignment>center</alignment>
					<effect>
						<name>Cross Fade (+3dB) Copy</name>
						<effecttype>transition</effecttype>
						<mediatype>audio</mediatype>
					</effect>
				</transitionitem>
				<clipitem id="msub200012-2108kid1-005 3">
					<name>msub200012-2108kid1-005</name>
					<duration>674</duration>
					<rate>
						<ntsc>FALSE</ntsc>
						<timebase>25</timebase>
					</rate>
					<in>390</in>
					<out>510</out>
					<start>-1</start>
					<end>23342</end>
					<subframeoffset>0</subframeoffset>
					<enabled>TRUE</enabled>
					<masterclipid>msub200012-2108kid1-005 1</masterclipid>
					<logginginfo>
						<description>msub200012-2108kid1-005</description>
						<scene/>
						<shottake/>
						<lognote/>
						<good>FALSE</good>
					</logginginfo>
					<labels>
						<label2/>
					</labels>
					<comments>
						<mastercomment1>RÃ…STOFF. BR_FINFREDAG_MSUA_OPRO</mastercomment1>
						<mastercomment2/>
						<mastercomment3/>
						<mastercomment4/>
					</comments>
					<file id="msub200012-2108kid1-005 2"/>
					<filter>
						<enabled>TRUE</enabled>
						<start>-1</start>
						<end>-1</end>
						<effect>
							<name>3 Band Equalizer</name>
							<effecttype>filter</effecttype>
							<mediatype>audio</mediatype>
							<parameter>
								<parameterid>Low Frequency</parameterid>
								<name>Low Frequency</name>
								<valuemin>80</valuemin>
								<valuemax>2000</valuemax>
								<value>80</value>
							</parameter>
							<parameter>
								<parameterid>Low Gain(dB)</parameterid>
								<name>Low Gain(dB)</name>
								<valuemin>-20</valuemin>
								<valuemax>20</valuemax>
								<value>-4</value>
							</parameter>
							<parameter>
								<parameterid>Mid Frequency</parameterid>
								<name>Mid Frequency</name>
								<valuemin>400</valuemin>
								<valuemax>8000</valuemax>
								<value>3602</value>
							</parameter>
							<parameter>
								<parameterid>Mid Gain(dB)</parameterid>
								<name>Mid Gain(dB)</name>
								<valuemin>-20</valuemin>
								<valuemax>20</valuemax>
								<value>3</value>
							</parameter>
							<parameter>
								<parameterid>High Frequency</parameterid>
								<name>High Frequency</name>
								<valuemin>5000</valuemin>
								<valuemax>20000</valuemax>
								<value>10354</value>
							</parameter>
							<parameter>
								<parameterid>High Gain(dB)</parameterid>
								<name>High Gain(dB)</name>
								<valuemin>-20</valuemin>
								<valuemax>20</valuemax>
								<value>0</value>
							</parameter>
						</effect>
					</filter>
					<filter>
						<effect>
							<name>Audio Levels</name>
							<effectid>audiolevels</effectid>
							<effectcategory>audiolevels</effectcategory>
							<effecttype>audiolevels</effecttype>
							<mediatype>audio</mediatype>
							<parameter>
								<name>Level</name>
								<parameterid>level</parameterid>
								<valuemin>0</valuemin>
								<valuemax>3.98109</valuemax>
								<keyframe>
									<when>316.571</when>
									<value>1</value>
								</keyframe>
								<keyframe>
									<when>324</when>
									<value>1.58489</value>
								</keyframe>
								<keyframe>
									<when>376.571</when>
									<value>1.58489</value>
								</keyframe>
								<keyframe>
									<when>385.143</when>
									<value>1.25893</value>
								</keyframe>
								<keyframe>
									<when>393.857</when>
									<value>1.25893</value>
								</keyframe>
								<keyframe>
									<when>428.143</when>
									<value>1.25893</value>
								</keyframe>
								<keyframe>
									<when>433.857</when>
									<value>1.58489</value>
								</keyframe>
								<keyframe>
									<when>472.857</when>
									<value>1.58489</value>
								</keyframe>
								<keyframe>
									<when>474.429</when>
									<value>1.25893</value>
								</keyframe>
								<interpolation>
									<name>FCPCurve</name>
								</interpolation>
								<value>1.58489</value>
							</parameter>
						</effect>
					</filter>
					<filter>
						<effect>
							<name>Audio Pan</name>
							<effectid>audiopan</effectid>
							<effectcategory>audiopan</effectcategory>
							<effecttype>audiopan</effecttype>
							<mediatype>audio</mediatype>
							<parameter>
								<name>Pan</name>
								<parameterid>pan</parameterid>
								<valuemin>-1</valuemin>
								<valuemax>1</valuemax>
								<value>0</value>
							</parameter>
						</effect>
					</filter>
					<sourcetrack>
						<mediatype>audio</mediatype>
						<trackindex>3</trackindex>
					</sourcetrack>
				</clipitem>
				<clipitem id="msub200012-2108kid1-026 4">
					<name>msub200012-2108kid1-026</name>
					<duration>2145</duration>
					<rate>
						<ntsc>FALSE</ntsc>
						<timebase>25</timebase>
					</rate>
					<in>242</in>
					<out>272</out>
					<start>23342</start>
					<end>-1</end>
					<subframeoffset>0</subframeoffset>
					<enabled>TRUE</enabled>
					<masterclipid>msub200012-2108kid1-026 1</masterclipid>
					<logginginfo>
						<description>msub200012-2108kid1-026</description>
						<scene/>
						<shottake/>
						<lognote/>
						<good>FALSE</good>
					</logginginfo>
					<labels>
						<label2/>
					</labels>
					<comments>
						<mastercomment1>RÃ…STOFF. BR_FINFREDAG_MSUA_OPRO</mastercomment1>
						<mastercomment2/>
						<mastercomment3/>
						<mastercomment4/>
					</comments>
					<file id="msub200012-2108kid1-026 2"/>
					<filter>
						<enabled>TRUE</enabled>
						<start>-1</start>
						<end>-1</end>
						<effect>
							<name>3 Band Equalizer - Kristine</name>
							<effecttype>filter</effecttype>
							<mediatype>audio</mediatype>
							<parameter>
								<parameterid>Low Frequency</parameterid>
								<name>Low Frequency</name>
								<valuemin>80</valuemin>
								<valuemax>2000</valuemax>
								<value>80</value>
							</parameter>
							<parameter>
								<parameterid>Low Gain(dB)</parameterid>
								<name>Low Gain(dB)</name>
								<valuemin>-20</valuemin>
								<valuemax>20</valuemax>
								<value>-4</value>
							</parameter>
							<parameter>
								<parameterid>Mid Frequency</parameterid>
								<name>Mid Frequency</name>
								<valuemin>400</valuemin>
								<valuemax>8000</valuemax>
								<value>3602</value>
							</parameter>
							<parameter>
								<parameterid>Mid Gain(dB)</parameterid>
								<name>Mid Gain(dB)</name>
								<valuemin>-20</valuemin>
								<valuemax>20</valuemax>
								<value>3</value>
							</parameter>
							<parameter>
								<parameterid>High Frequency</parameterid>
								<name>High Frequency</name>
								<valuemin>5000</valuemin>
								<valuemax>20000</valuemax>
								<value>10354</value>
							</parameter>
							<parameter>
								<parameterid>High Gain(dB)</parameterid>
								<name>High Gain(dB)</name>
								<valuemin>-20</valuemin>
								<valuemax>20</valuemax>
								<value>0</value>
							</parameter>
						</effect>
					</filter>
					<filter>
						<effect>
							<name>Audio Levels</name>
							<effectid>audiolevels</effectid>
							<effectcategory>audiolevels</effectcategory>
							<effecttype>audiolevels</effecttype>
							<mediatype>audio</mediatype>
							<parameter>
								<name>Level</name>
								<parameterid>level</parameterid>
								<valuemin>0</valuemin>
								<valuemax>3.98109</valuemax>
								<keyframe>
									<when>265.857</when>
									<value>1.12202</value>
								</keyframe>
								<keyframe>
									<when>271.286</when>
									<value>0.446684</value>
								</keyframe>
								<keyframe>
									<when>282.679</when>
									<value>0.446684</value>
								</keyframe>
								<keyframe>
									<when>291.679</when>
									<value>1</value>
								</keyframe>
								<keyframe>
									<when>310.143</when>
									<value>1</value>
								</keyframe>
								<keyframe>
									<when>315.857</when>
									<value>0.354813</value>
								</keyframe>
								<keyframe>
									<when>333</when>
									<value>0.354813</value>
								</keyframe>
								<keyframe>
									<when>336.714</when>
									<value>1</value>
								</keyframe>
								<interpolation>
									<name>FCPCurve</name>
								</interpolation>
								<value>0.354813</value>
							</parameter>
						</effect>
					</filter>
					<filter>
						<effect>
							<name>Audio Pan</name>
							<effectid>audiopan</effectid>
							<effectcategory>audiopan</effectcategory>
							<effecttype>audiopan</effecttype>
							<mediatype>audio</mediatype>
							<parameter>
								<name>Pan</name>
								<parameterid>pan</parameterid>
								<valuemin>-1</valuemin>
								<valuemax>1</valuemax>
								<value>0</value>
							</parameter>
						</effect>
					</filter>
					<sourcetrack>
						<mediatype>audio</mediatype>
						<trackindex>3</trackindex>
					</sourcetrack>
				</clipitem>
				<transitionitem id="38813620 ">
					<rate>
						<ntsc>FALSE</ntsc>
						<timebase>25</timebase>
					</rate>
					<start>23366</start>
					<end>23372</end>
					<alignment>center</alignment>
					<effect>
						<name>Cross Fade (+3dB) Copy</name>
						<effecttype>transition</effecttype>
						<mediatype>audio</mediatype>
					</effect>
				</transitionitem>
				<clipitem id="msub200012-2108kid1-026 5">
					<name>msub200012-2108kid1-026</name>
					<duration>2145</duration>
					<rate>
						<ntsc>FALSE</ntsc>
						<timebase>25</timebase>
					</rate>
					<in>356</in>
					<out>426</out>
					<start>-1</start>
					<end>-1</end>
					<subframeoffset>0</subframeoffset>
					<enabled>TRUE</enabled>
					<masterclipid>msub200012-2108kid1-026 1</masterclipid>
					<logginginfo>
						<description>msub200012-2108kid1-026</description>
						<scene/>
						<shottake/>
						<lognote/>
						<good>FALSE</good>
					</logginginfo>
					<labels>
						<label2/>
					</labels>
					<comments>
						<mastercomment1>RÃ…STOFF. BR_FINFREDAG_MSUA_OPRO</mastercomment1>
						<mastercomment2/>
						<mastercomment3/>
						<mastercomment4/>
					</comments>
					<file id="msub200012-2108kid1-026 2"/>
					<filter>
						<enabled>TRUE</enabled>
						<start>-1</start>
						<end>-1</end>
						<effect>
							<name>3 Band Equalizer - Kristine</name>
							<effecttype>filter</effecttype>
							<mediatype>audio</mediatype>
							<parameter>
								<parameterid>Low Frequency</parameterid>
								<name>Low Frequency</name>
								<valuemin>80</valuemin>
								<valuemax>2000</valuemax>
								<value>80</value>
							</parameter>
							<parameter>
								<parameterid>Low Gain(dB)</parameterid>
								<name>Low Gain(dB)</name>
								<valuemin>-20</valuemin>
								<valuemax>20</valuemax>
								<value>-4</value>
							</parameter>
							<parameter>
								<parameterid>Mid Frequency</parameterid>
								<name>Mid Frequency</name>
								<valuemin>400</valuemin>
								<valuemax>8000</valuemax>
								<value>3602</value>
							</parameter>
							<parameter>
								<parameterid>Mid Gain(dB)</parameterid>
								<name>Mid Gain(dB)</name>
								<valuemin>-20</valuemin>
								<valuemax>20</valuemax>
								<value>3</value>
							</parameter>
							<parameter>
								<parameterid>High Frequency</parameterid>
								<name>High Frequency</name>
								<valuemin>5000</valuemin>
								<valuemax>20000</valuemax>
								<value>10354</value>
							</parameter>
							<parameter>
								<parameterid>High Gain(dB)</parameterid>
								<name>High Gain(dB)</name>
								<valuemin>-20</valuemin>
								<valuemax>20</valuemax>
								<value>0</value>
							</parameter>
						</effect>
					</filter>
					<filter>
						<effect>
							<name>Audio Levels</name>
							<effectid>audiolevels</effectid>
							<effectcategory>audiolevels</effectcategory>
							<effecttype>audiolevels</effecttype>
							<mediatype>audio</mediatype>
							<parameter>
								<name>Level</name>
								<parameterid>level</parameterid>
								<valuemin>0</valuemin>
								<valuemax>3.98109</valuemax>
								<keyframe>
									<when>265.857</when>
									<value>1.25893</value>
								</keyframe>
								<keyframe>
									<when>271.286</when>
									<value>0.446684</value>
								</keyframe>
								<keyframe>
									<when>282.679</when>
									<value>0.446684</value>
								</keyframe>
								<keyframe>
									<when>291.679</when>
									<value>1</value>
								</keyframe>
								<keyframe>
									<when>310.143</when>
									<value>1</value>
								</keyframe>
								<keyframe>
									<when>315.857</when>
									<value>0.354813</value>
								</keyframe>
								<keyframe>
									<when>333</when>
									<value>0.354813</value>
								</keyframe>
								<keyframe>
									<when>336.714</when>
									<value>1</value>
								</keyframe>
								<interpolation>
									<name>FCPCurve</name>
								</interpolation>
								<value>0.354813</value>
							</parameter>
						</effect>
					</filter>
					<filter>
						<effect>
							<name>Audio Pan</name>
							<effectid>audiopan</effectid>
							<effectcategory>audiopan</effectcategory>
							<effecttype>audiopan</effecttype>
							<mediatype>audio</mediatype>
							<parameter>
								<name>Pan</name>
								<parameterid>pan</parameterid>
								<valuemin>-1</valuemin>
								<valuemax>1</valuemax>
								<value>0</value>
							</parameter>
						</effect>
					</filter>
					<sourcetrack>
						<mediatype>audio</mediatype>
						<trackindex>3</trackindex>
					</sourcetrack>
				</clipitem>
				<transitionitem id="38816340 ">
					<rate>
						<ntsc>FALSE</ntsc>
						<timebase>25</timebase>
					</rate>
					<start>23430</start>
					<end>23436</end>
					<alignment>center</alignment>
					<effect>
						<name>Cross Fade (+3dB) Copy</name>
						<effecttype>transition</effecttype>
						<mediatype>audio</mediatype>
					</effect>
				</transitionitem>
				<clipitem id="msub200012-2108kid1-017 3">
					<name>msub200012-2108kid1-017</name>
					<duration>2619</duration>
					<rate>
						<ntsc>FALSE</ntsc>
						<timebase>25</timebase>
					</rate>
					<in>1615</in>
					<out>1670</out>
					<start>-1</start>
					<end>23485</end>
					<subframeoffset>0</subframeoffset>
					<enabled>TRUE</enabled>
					<masterclipid>msub200012-2108kid1-017 1</masterclipid>
					<logginginfo>
						<description>msub200012-2108kid1-017</description>
						<scene/>
						<shottake/>
						<lognote/>
						<good>FALSE</good>
					</logginginfo>
					<labels>
						<label2/>
					</labels>
					<comments>
						<mastercomment1>RÃ…STOFF. BR_FINFREDAG_MSUA_OPRO</mastercomment1>
						<mastercomment2/>
						<mastercomment3/>
						<mastercomment4/>
					</comments>
					<file id="msub200012-2108kid1-017 2"/>
					<filter>
						<enabled>TRUE</enabled>
						<start>-1</start>
						<end>-1</end>
						<effect>
							<name>3 Band Equalizer - Kristine</name>
							<effecttype>filter</effecttype>
							<mediatype>audio</mediatype>
							<parameter>
								<parameterid>Low Frequency</parameterid>
								<name>Low Frequency</name>
								<valuemin>80</valuemin>
								<valuemax>2000</valuemax>
								<value>80</value>
							</parameter>
							<parameter>
								<parameterid>Low Gain(dB)</parameterid>
								<name>Low Gain(dB)</name>
								<valuemin>-20</valuemin>
								<valuemax>20</valuemax>
								<value>-4</value>
							</parameter>
							<parameter>
								<parameterid>Mid Frequency</parameterid>
								<name>Mid Frequency</name>
								<valuemin>400</valuemin>
								<valuemax>8000</valuemax>
								<value>3602</value>
							</parameter>
							<parameter>
								<parameterid>Mid Gain(dB)</parameterid>
								<name>Mid Gain(dB)</name>
								<valuemin>-20</valuemin>
								<valuemax>20</valuemax>
								<value>3</value>
							</parameter>
							<parameter>
								<parameterid>High Frequency</parameterid>
								<name>High Frequency</name>
								<valuemin>5000</valuemin>
								<valuemax>20000</valuemax>
								<value>10354</value>
							</parameter>
							<parameter>
								<parameterid>High Gain(dB)</parameterid>
								<name>High Gain(dB)</name>
								<valuemin>-20</valuemin>
								<valuemax>20</valuemax>
								<value>0</value>
							</parameter>
						</effect>
					</filter>
					<filter>
						<effect>
							<name>Audio Levels</name>
							<effectid>audiolevels</effectid>
							<effectcategory>audiolevels</effectcategory>
							<effecttype>audiolevels</effecttype>
							<mediatype>audio</mediatype>
							<parameter>
								<name>Level</name>
								<parameterid>level</parameterid>
								<valuemin>0</valuemin>
								<valuemax>3.98109</valuemax>
								<keyframe>
									<when>1699</when>
									<value>3.16228</value>
								</keyframe>
								<keyframe>
									<when>1701.14</when>
									<value>0</value>
								</keyframe>
								<keyframe>
									<when>1709.43</when>
									<value>0</value>
								</keyframe>
								<keyframe>
									<when>1712.14</when>
									<value>3.16228</value>
								</keyframe>
								<interpolation>
									<name>FCPCurve</name>
								</interpolation>
								<value>3.16228</value>
							</parameter>
						</effect>
					</filter>
					<filter>
						<effect>
							<name>Audio Pan</name>
							<effectid>audiopan</effectid>
							<effectcategory>audiopan</effectcategory>
							<effecttype>audiopan</effecttype>
							<mediatype>audio</mediatype>
							<parameter>
								<name>Pan</name>
								<parameterid>pan</parameterid>
								<valuemin>-1</valuemin>
								<valuemax>1</valuemax>
								<value>0</value>
							</parameter>
						</effect>
					</filter>
					<sourcetrack>
						<mediatype>audio</mediatype>
						<trackindex>1</trackindex>
					</sourcetrack>
					<link>
						<linkclipref>msub200012-2108kid1-017 </linkclipref>
						<mediatype>video</mediatype>
						<trackindex>1</trackindex>
						<clipindex>71</clipindex>
					</link>
					<link>
						<linkclipref>msub200012-2108kid1-017 3</linkclipref>
						<mediatype>audio</mediatype>
						<trackindex>1</trackindex>
						<clipindex>71</clipindex>
					</link>
				</clipitem>
				<clipitem id="msub200012-2108kid1-023 3">
					<name>msub200012-2108kid1-023</name>
					<duration>3689</duration>
					<rate>
						<ntsc>FALSE</ntsc>
						<timebase>25</timebase>
					</rate>
					<in>195</in>
					<out>244</out>
					<start>23485</start>
					<end>-1</end>
					<subframeoffset>0</subframeoffset>
					<masterclipid>msub200012-2108kid1-023 1</masterclipid>
					<logginginfo>
						<description>msub200012-2108kid1-023</description>
						<scene/>
						<shottake/>
						<lognote/>
						<good>FALSE</good>
					</logginginfo>
					<labels>
						<label2/>
					</labels>
					<comments>
						<mastercomment1>RÃ…STOFF. BR_FINFREDAG_MSUA_OPRO</mastercomment1>
						<mastercomment2/>
						<mastercomment3/>
						<mastercomment4/>
					</comments>
					<file id="msub200012-2108kid1-023 2"/>
					<filter>
						<effect>
							<name>Audio Levels</name>
							<effectid>audiolevels</effectid>
							<effectcategory>audiolevels</effectcategory>
							<effecttype>audiolevels</effecttype>
							<mediatype>audio</mediatype>
							<parameter>
								<name>Level</name>
								<parameterid>level</parameterid>
								<valuemin>0</valuemin>
								<valuemax>3.98109</valuemax>
								<keyframe>
									<when>220.571</when>
									<value>1</value>
								</keyframe>
								<keyframe>
									<when>223.571</when>
									<value>0.354813</value>
								</keyframe>
								<keyframe>
									<when>227</when>
									<value>0.354813</value>
								</keyframe>
								<keyframe>
									<when>230</when>
									<value>1</value>
								</keyframe>
								<keyframe>
									<when>235.75</when>
									<value>1</value>
								</keyframe>
								<keyframe>
									<when>237.321</when>
									<value>0.630957</value>
								</keyframe>
								<interpolation>
									<name>FCPCurve</name>
								</interpolation>
								<value>1</value>
							</parameter>
						</effect>
					</filter>
					<filter>
						<effect>
							<name>Audio Pan</name>
							<effectid>audiopan</effectid>
							<effectcategory>audiopan</effectcategory>
							<effecttype>audiopan</effecttype>
							<mediatype>audio</mediatype>
							<parameter>
								<name>Pan</name>
								<parameterid>pan</parameterid>
								<valuemin>-1</valuemin>
								<valuemax>1</valuemax>
								<value>0</value>
							</parameter>
						</effect>
					</filter>
					<sourcetrack>
						<mediatype>audio</mediatype>
						<trackindex>1</trackindex>
					</sourcetrack>
				</clipitem>
				<transitionitem id="24">
					<rate>
						<ntsc>FALSE</ntsc>
						<timebase>25</timebase>
					</rate>
					<start>23530</start>
					<end>23534</end>
					<alignment>center</alignment>
					<effect>
						<name>Cross Fade (+3dB) Copy</name>
						<effecttype>transition</effecttype>
						<mediatype>audio</mediatype>
					</effect>
				</transitionitem>
				<clipitem id="msub200012-2108kid1-021 3">
					<name>msub200012-2108kid1-021</name>
					<duration>4310</duration>
					<rate>
						<ntsc>FALSE</ntsc>
						<timebase>25</timebase>
					</rate>
					<in>101</in>
					<out>138</out>
					<start>-1</start>
					<end>23567</end>
					<subframeoffset>0</subframeoffset>
					<masterclipid>msub200012-2108kid1-021 1</masterclipid>
					<logginginfo>
						<description>msub200012-2108kid1-021</description>
						<scene/>
						<shottake/>
						<lognote/>
						<good>FALSE</good>
					</logginginfo>
					<labels>
						<label2/>
					</labels>
					<comments>
						<mastercomment1>RÃ…STOFF. BR_FINFREDAG_MSUA_OPRO</mastercomment1>
						<mastercomment2/>
						<mastercomment3/>
						<mastercomment4/>
					</comments>
					<file id="msub200012-2108kid1-021 2"/>
					<filter>
						<start>-1</start>
						<end>-1</end>
						<effect>
							<name>3 Band Equalizer - Mann</name>
							<effecttype>filter</effecttype>
							<mediatype>audio</mediatype>
							<parameter>
								<parameterid>Low Frequency</parameterid>
								<name>Low Frequency</name>
								<valuemin>80</valuemin>
								<valuemax>2000</valuemax>
								<value>100</value>
							</parameter>
							<parameter>
								<parameterid>Low Gain(dB)</parameterid>
								<name>Low Gain(dB)</name>
								<valuemin>-20</valuemin>
								<valuemax>20</valuemax>
								<value>-4</value>
							</parameter>
							<parameter>
								<parameterid>Mid Frequency</parameterid>
								<name>Mid Frequency</name>
								<valuemin>400</valuemin>
								<valuemax>8000</valuemax>
								<value>3602</value>
							</parameter>
							<parameter>
								<parameterid>Mid Gain(dB)</parameterid>
								<name>Mid Gain(dB)</name>
								<valuemin>-20</valuemin>
								<valuemax>20</valuemax>
								<value>3</value>
							</parameter>
							<parameter>
								<parameterid>High Frequency</parameterid>
								<name>High Frequency</name>
								<valuemin>5000</valuemin>
								<valuemax>20000</valuemax>
								<value>10354</value>
							</parameter>
							<parameter>
								<parameterid>High Gain(dB)</parameterid>
								<name>High Gain(dB)</name>
								<valuemin>-20</valuemin>
								<valuemax>20</valuemax>
								<value>0</value>
							</parameter>
						</effect>
					</filter>
					<filter>
						<effect>
							<name>Audio Levels</name>
							<effectid>audiolevels</effectid>
							<effectcategory>audiolevels</effectcategory>
							<effecttype>audiolevels</effecttype>
							<mediatype>audio</mediatype>
							<parameter>
								<name>Level</name>
								<parameterid>level</parameterid>
								<valuemin>0</valuemin>
								<valuemax>3.98109</valuemax>
								<keyframe>
									<when>116.196</when>
									<value>0.707946</value>
								</keyframe>
								<keyframe>
									<when>118.946</when>
									<value>0.248687</value>
								</keyframe>
								<keyframe>
									<when>123.857</when>
									<value>0.273651</value>
								</keyframe>
								<keyframe>
									<when>125.821</when>
									<value>0.501187</value>
								</keyframe>
								<keyframe>
									<when>131.714</when>
									<value>0.501187</value>
								</keyframe>
								<keyframe>
									<when>133.286</when>
									<value>0.141254</value>
								</keyframe>
								<keyframe>
									<when>147.232</when>
									<value>0.707946</value>
								</keyframe>
								<interpolation>
									<name>FCPCurve</name>
								</interpolation>
								<value>0.630957</value>
							</parameter>
						</effect>
					</filter>
					<filter>
						<effect>
							<name>Audio Pan</name>
							<effectid>audiopan</effectid>
							<effectcategory>audiopan</effectcategory>
							<effecttype>audiopan</effecttype>
							<mediatype>audio</mediatype>
							<parameter>
								<name>Pan</name>
								<parameterid>pan</parameterid>
								<valuemin>-1</valuemin>
								<valuemax>1</valuemax>
								<value>0</value>
							</parameter>
						</effect>
					</filter>
					<sourcetrack>
						<mediatype>audio</mediatype>
						<trackindex>1</trackindex>
					</sourcetrack>
				</clipitem>
				<clipitem id="msub200012-2308-k1d1-005 5">
					<name>msub200012-2308-k1d1-005</name>
					<duration>6527</duration>
					<rate>
						<ntsc>FALSE</ntsc>
						<timebase>25</timebase>
					</rate>
					<in>2839</in>
					<out>2881</out>
					<start>23734</start>
					<end>-1</end>
					<subframeoffset>0</subframeoffset>
					<enabled>TRUE</enabled>
					<masterclipid>msub200012-2308-k1d1-005 1</masterclipid>
					<logginginfo>
						<description>msub200012-2308-k1d1-005</description>
						<scene/>
						<shottake/>
						<lognote/>
						<good>FALSE</good>
					</logginginfo>
					<labels>
						<label2/>
					</labels>
					<comments>
						<mastercomment1>RÃ…STOFF. BR_FINFREDAG_MSUA_OPRO</mastercomment1>
						<mastercomment2/>
						<mastercomment3/>
						<mastercomment4/>
					</comments>
					<file id="msub200012-2308-k1d1-005 2"/>
					<filter>
						<enabled>TRUE</enabled>
						<start>-1</start>
						<end>-1</end>
						<effect>
							<name>3 Band Equalizer - tlf</name>
							<effecttype>filter</effecttype>
							<mediatype>audio</mediatype>
							<parameter>
								<parameterid>Low Frequency</parameterid>
								<name>Low Frequency</name>
								<valuemin>80</valuemin>
								<valuemax>2000</valuemax>
								<value>837</value>
							</parameter>
							<parameter>
								<parameterid>Low Gain(dB)</parameterid>
								<name>Low Gain(dB)</name>
								<valuemin>-20</valuemin>
								<valuemax>20</valuemax>
								<value>-18</value>
							</parameter>
							<parameter>
								<parameterid>Mid Frequency</parameterid>
								<name>Mid Frequency</name>
								<valuemin>400</valuemin>
								<valuemax>8000</valuemax>
								<value>3297</value>
							</parameter>
							<parameter>
								<parameterid>Mid Gain(dB)</parameterid>
								<name>Mid Gain(dB)</name>
								<valuemin>-20</valuemin>
								<valuemax>20</valuemax>
								<value>-11</value>
							</parameter>
							<parameter>
								<parameterid>High Frequency</parameterid>
								<name>High Frequency</name>
								<valuemin>5000</valuemin>
								<valuemax>20000</valuemax>
								<value>10354</value>
							</parameter>
							<parameter>
								<parameterid>High Gain(dB)</parameterid>
								<name>High Gain(dB)</name>
								<valuemin>-20</valuemin>
								<valuemax>20</valuemax>
								<value>-20</value>
							</parameter>
						</effect>
					</filter>
					<filter>
						<enabled>TRUE</enabled>
						<start>-1</start>
						<end>-1</end>
						<effect>
							<name>Compressor/Limiter</name>
							<effecttype>filter</effecttype>
							<mediatype>audio</mediatype>
							<parameter>
								<parameterid>Threshold(dB)</parameterid>
								<name>Threshold(dB)</name>
								<valuemin>-90</valuemin>
								<valuemax>0</valuemax>
								<value>-34</value>
							</parameter>
							<parameter>
								<parameterid>Ratio</parameterid>
								<name>Ratio</name>
								<valuemin>1</valuemin>
								<valuemax>100</valuemax>
								<value>2</value>
							</parameter>
							<parameter>
								<parameterid>Attack Time</parameterid>
								<name>Attack Time</name>
								<valuemin>1</valuemin>
								<valuemax>100</valuemax>
								<value>10</value>
							</parameter>
							<parameter>
								<parameterid>Release Time</parameterid>
								<name>Release Time</name>
								<valuemin>1</valuemin>
								<valuemax>4000</valuemax>
								<value>100</value>
							</parameter>
							<parameter>
								<parameterid>Preserve Volume</parameterid>
								<name>Preserve Volume</name>
								<value>TRUE</value>
							</parameter>
						</effect>
					</filter>
					<filter>
						<enabled>TRUE</enabled>
						<start>-1</start>
						<end>-1</end>
						<effect>
							<name>3 Band Equalizer - Mann</name>
							<effecttype>filter</effecttype>
							<mediatype>audio</mediatype>
							<parameter>
								<parameterid>Low Frequency</parameterid>
								<name>Low Frequency</name>
								<valuemin>80</valuemin>
								<valuemax>2000</valuemax>
								<value>837</value>
							</parameter>
							<parameter>
								<parameterid>Low Gain(dB)</parameterid>
								<name>Low Gain(dB)</name>
								<valuemin>-20</valuemin>
								<valuemax>20</valuemax>
								<value>-18</value>
							</parameter>
							<parameter>
								<parameterid>Mid Frequency</parameterid>
								<name>Mid Frequency</name>
								<valuemin>400</valuemin>
								<valuemax>8000</valuemax>
								<value>3297</value>
							</parameter>
							<parameter>
								<parameterid>Mid Gain(dB)</parameterid>
								<name>Mid Gain(dB)</name>
								<valuemin>-20</valuemin>
								<valuemax>20</valuemax>
								<value>-11</value>
							</parameter>
							<parameter>
								<parameterid>High Frequency</parameterid>
								<name>High Frequency</name>
								<valuemin>5000</valuemin>
								<valuemax>20000</valuemax>
								<value>10354</value>
							</parameter>
							<parameter>
								<parameterid>High Gain(dB)</parameterid>
								<name>High Gain(dB)</name>
								<valuemin>-20</valuemin>
								<valuemax>20</valuemax>
								<value>-20</value>
							</parameter>
						</effect>
					</filter>
					<filter>
						<enabled>TRUE</enabled>
						<start>-1</start>
						<end>-1</end>
						<effect>
							<name>Compressor/Limiter - 2</name>
							<effecttype>filter</effecttype>
							<mediatype>audio</mediatype>
							<parameter>
								<parameterid>Threshold(dB)</parameterid>
								<name>Threshold(dB)</name>
								<valuemin>-90</valuemin>
								<valuemax>0</valuemax>
								<value>-34</value>
							</parameter>
							<parameter>
								<parameterid>Ratio</parameterid>
								<name>Ratio</name>
								<valuemin>1</valuemin>
								<valuemax>100</valuemax>
								<value>2</value>
							</parameter>
							<parameter>
								<parameterid>Attack Time</parameterid>
								<name>Attack Time</name>
								<valuemin>1</valuemin>
								<valuemax>100</valuemax>
								<value>10</value>
							</parameter>
							<parameter>
								<parameterid>Release Time</parameterid>
								<name>Release Time</name>
								<valuemin>1</valuemin>
								<valuemax>4000</valuemax>
								<value>100</value>
							</parameter>
							<parameter>
								<parameterid>Preserve Volume</parameterid>
								<name>Preserve Volume</name>
								<value>TRUE</value>
							</parameter>
						</effect>
					</filter>
					<filter>
						<effect>
							<name>Audio Levels</name>
							<effectid>audiolevels</effectid>
							<effectcategory>audiolevels</effectcategory>
							<effecttype>audiolevels</effecttype>
							<mediatype>audio</mediatype>
							<parameter>
								<name>Level</name>
								<parameterid>level</parameterid>
								<valuemin>0</valuemin>
								<valuemax>3.98109</valuemax>
								<keyframe>
									<when>2815.68</when>
									<value>0.0794333</value>
								</keyframe>
								<keyframe>
									<when>2818.57</when>
									<value>0.446686</value>
								</keyframe>
								<keyframe>
									<when>2822.43</when>
									<value>0.0794333</value>
								</keyframe>
								<keyframe>
									<when>2828</when>
									<value>0.0630961</value>
								</keyframe>
								<keyframe>
									<when>2833.14</when>
									<value>0.354815</value>
								</keyframe>
								<keyframe>
									<when>2897.86</when>
									<value>0.354815</value>
								</keyframe>
								<keyframe>
									<when>2903</when>
									<value>0.446686</value>
								</keyframe>
								<interpolation>
									<name>FCPCurve</name>
								</interpolation>
								<value>0.630957</value>
							</parameter>
						</effect>
					</filter>
					<filter>
						<effect>
							<name>Audio Pan</name>
							<effectid>audiopan</effectid>
							<effectcategory>audiopan</effectcategory>
							<effecttype>audiopan</effecttype>
							<mediatype>audio</mediatype>
							<parameter>
								<name>Pan</name>
								<parameterid>pan</parameterid>
								<valuemin>-1</valuemin>
								<valuemax>1</valuemax>
								<value>0</value>
							</parameter>
						</effect>
					</filter>
					<sourcetrack>
						<mediatype>audio</mediatype>
						<trackindex>1</trackindex>
					</sourcetrack>
				</clipitem>
				<transitionitem id="38862612 ">
					<rate>
						<ntsc>FALSE</ntsc>
						<timebase>25</timebase>
					</rate>
					<start>23770</start>
					<end>23776</end>
					<alignment>end-black</alignment>
					<effect>
						<name>Cross Fade (+3dB) Copy</name>
						<effecttype>transition</effecttype>
						<mediatype>audio</mediatype>
					</effect>
				</transitionitem>
				<clipitem id="msub200012-2208k1d1-012 2">
					<name>msub200012-2208k1d1-012</name>
					<duration>5578</duration>
					<rate>
						<ntsc>FALSE</ntsc>
						<timebase>25</timebase>
					</rate>
					<in>4650</in>
					<out>4675</out>
					<start>23785</start>
					<end>23810</end>
					<subframeoffset>0</subframeoffset>
					<logginginfo>
						<description>msub200012-2208k1d1-012</description>
						<scene/>
						<shottake/>
						<lognote/>
						<good>FALSE</good>
					</logginginfo>
					<labels>
						<label2/>
					</labels>
					<comments>
						<mastercomment1>RÃ…STOFF. BR_FINFREDAG_MSUA_OPRO</mastercomment1>
						<mastercomment2/>
						<mastercomment3/>
						<mastercomment4/>
					</comments>
					<file id="msub200012-2208k1d1-012 1"/>
					<filter>
						<effect>
							<name>Audio Levels</name>
							<effectid>audiolevels</effectid>
							<effectcategory>audiolevels</effectcategory>
							<effecttype>audiolevels</effecttype>
							<mediatype>audio</mediatype>
							<parameter>
								<name>Level</name>
								<parameterid>level</parameterid>
								<valuemin>0</valuemin>
								<valuemax>3.98109</valuemax>
								<value>1</value>
							</parameter>
						</effect>
					</filter>
					<filter>
						<effect>
							<name>Audio Pan</name>
							<effectid>audiopan</effectid>
							<effectcategory>audiopan</effectcategory>
							<effecttype>audiopan</effecttype>
							<mediatype>audio</mediatype>
							<parameter>
								<name>Pan</name>
								<parameterid>pan</parameterid>
								<valuemin>-1</valuemin>
								<valuemax>1</valuemax>
								<value>0</value>
							</parameter>
						</effect>
					</filter>
					<sourcetrack>
						<mediatype>audio</mediatype>
						<trackindex>1</trackindex>
					</sourcetrack>
					<link>
						<linkclipref>msub200012-2208k1d1-012 </linkclipref>
						<mediatype>video</mediatype>
						<trackindex>1</trackindex>
						<clipindex>75</clipindex>
					</link>
					<link>
						<linkclipref>msub200012-2208k1d1-012 2</linkclipref>
						<mediatype>audio</mediatype>
						<trackindex>1</trackindex>
						<clipindex>77</clipindex>
					</link>
					<link>
						<linkclipref>msub200012-2208k1d1-012 3</linkclipref>
						<mediatype>audio</mediatype>
						<trackindex>2</trackindex>
						<clipindex>74</clipindex>
					</link>
				</clipitem>
				<clipitem id="msub200012-2208k1d1-012 5">
					<name>msub200012-2208k1d1-012</name>
					<duration>5578</duration>
					<rate>
						<ntsc>FALSE</ntsc>
						<timebase>25</timebase>
					</rate>
					<in>4758</in>
					<out>4795</out>
					<start>23810</start>
					<end>23847</end>
					<subframeoffset>0</subframeoffset>
					<logginginfo>
						<description>msub200012-2208k1d1-012</description>
						<scene/>
						<shottake/>
						<lognote/>
						<good>FALSE</good>
					</logginginfo>
					<labels>
						<label2/>
					</labels>
					<comments>
						<mastercomment1>RÃ…STOFF. BR_FINFREDAG_MSUA_OPRO</mastercomment1>
						<mastercomment2/>
						<mastercomment3/>
						<mastercomment4/>
					</comments>
					<file id="msub200012-2208k1d1-012 1"/>
					<filter>
						<effect>
							<name>Audio Levels</name>
							<effectid>audiolevels</effectid>
							<effectcategory>audiolevels</effectcategory>
							<effecttype>audiolevels</effecttype>
							<mediatype>audio</mediatype>
							<parameter>
								<name>Level</name>
								<parameterid>level</parameterid>
								<valuemin>0</valuemin>
								<valuemax>3.98109</valuemax>
								<value>1</value>
							</parameter>
						</effect>
					</filter>
					<filter>
						<effect>
							<name>Audio Pan</name>
							<effectid>audiopan</effectid>
							<effectcategory>audiopan</effectcategory>
							<effecttype>audiopan</effecttype>
							<mediatype>audio</mediatype>
							<parameter>
								<name>Pan</name>
								<parameterid>pan</parameterid>
								<valuemin>-1</valuemin>
								<valuemax>1</valuemax>
								<value>0</value>
							</parameter>
						</effect>
					</filter>
					<sourcetrack>
						<mediatype>audio</mediatype>
						<trackindex>1</trackindex>
					</sourcetrack>
					<link>
						<linkclipref>msub200012-2208k1d1-012 4</linkclipref>
						<mediatype>video</mediatype>
						<trackindex>1</trackindex>
						<clipindex>76</clipindex>
					</link>
					<link>
						<linkclipref>msub200012-2208k1d1-012 5</linkclipref>
						<mediatype>audio</mediatype>
						<trackindex>1</trackindex>
						<clipindex>78</clipindex>
					</link>
					<link>
						<linkclipref>msub200012-2208k1d1-012 6</linkclipref>
						<mediatype>audio</mediatype>
						<trackindex>2</trackindex>
						<clipindex>75</clipindex>
					</link>
				</clipitem>
				<clipitem id="msub200012-2208k1d1-024 4">
					<name>msub200012-2208k1d1-024</name>
					<duration>233</duration>
					<rate>
						<ntsc>FALSE</ntsc>
						<timebase>25</timebase>
					</rate>
					<in>117</in>
					<out>191</out>
					<start>23916</start>
					<end>23990</end>
					<subframeoffset>0</subframeoffset>
					<masterclipid>msub200012-2208k1d1-024 1</masterclipid>
					<logginginfo>
						<description>msub200012-2208k1d1-024</description>
						<scene/>
						<shottake/>
						<lognote/>
						<good>FALSE</good>
					</logginginfo>
					<labels>
						<label2/>
					</labels>
					<comments>
						<mastercomment1>RÃ…STOFF. BR_FINFREDAG_MSUA_OPRO</mastercomment1>
						<mastercomment2/>
						<mastercomment3/>
						<mastercomment4/>
					</comments>
					<file id="msub200012-2208k1d1-024 2"/>
					<filter>
						<effect>
							<name>Audio Levels</name>
							<effectid>audiolevels</effectid>
							<effectcategory>audiolevels</effectcategory>
							<effecttype>audiolevels</effecttype>
							<mediatype>audio</mediatype>
							<parameter>
								<name>Level</name>
								<parameterid>level</parameterid>
								<valuemin>0</valuemin>
								<valuemax>3.98109</valuemax>
								<value>1</value>
							</parameter>
						</effect>
					</filter>
					<filter>
						<effect>
							<name>Audio Pan</name>
							<effectid>audiopan</effectid>
							<effectcategory>audiopan</effectcategory>
							<effecttype>audiopan</effecttype>
							<mediatype>audio</mediatype>
							<parameter>
								<name>Pan</name>
								<parameterid>pan</parameterid>
								<valuemin>-1</valuemin>
								<valuemax>1</valuemax>
								<value>0</value>
							</parameter>
						</effect>
					</filter>
					<sourcetrack>
						<mediatype>audio</mediatype>
						<trackindex>1</trackindex>
					</sourcetrack>
					<filter>
						<effect>
							<name>Time Remap</name>
							<effectid>timeremap</effectid>
							<effectcategory>motion</effectcategory>
							<effecttype>motion</effecttype>
							<mediatype>audio</mediatype>
							<parameter>
								<parameterid>variablespeed</parameterid>
								<name>variablespeed</name>
								<valuemin>0</valuemin>
								<valuemax>1</valuemax>
								<value>0</value>
							</parameter>
							<parameter>
								<parameterid>mappedduration</parameterid>
								<name>mappedduration</name>
								<value>
									<timecode>
										<rate>
											<timebase>0</timebase>
										</rate>
										<string>0</string>
										<frame>0</frame>
										<displayformat>NDF</displayformat>
									</timecode>
								</value>
							</parameter>
							<parameter>
								<parameterid>speed</parameterid>
								<name>speed</name>
								<valuemin>-10000</valuemin>
								<valuemax>10000</valuemax>
								<value>500</value>
							</parameter>
							<parameter>
								<parameterid>reverse</parameterid>
								<name>reverse</name>
								<value>FALSE</value>
							</parameter>
							<parameter>
								<parameterid>frameblending</parameterid>
								<name>frameblending</name>
								<value>TRUE</value>
							</parameter>
							<parameter>
								<parameterid>graphdict</parameterid>
								<name>graphdict</name>
								<valuemin>0</valuemin>
								<valuemax>1160</valuemax>
								<keyframe>
									<when>0</when>
									<value>4.9999</value>
									<speedkfstart>TRUE</speedkfstart>
									<speedvirtualkf>TRUE</speedvirtualkf>
								</keyframe>
								<keyframe>
									<when>117</when>
									<value>590</value>
									<speedkfin>TRUE</speedkfin>
									<speedvirtualkf>TRUE</speedvirtualkf>
								</keyframe>
								<keyframe>
									<when>191</when>
									<value>960</value>
									<speedkfout>TRUE</speedkfout>
									<speedvirtualkf>TRUE</speedvirtualkf>
								</keyframe>
								<keyframe>
									<when>233</when>
									<value>1166</value>
									<speedkfend>TRUE</speedkfend>
									<speedvirtualkf>TRUE</speedvirtualkf>
								</keyframe>
								<interpolation>
									<name>FCPCurve</name>
								</interpolation>
								<value>590</value>
							</parameter>
						</effect>
					</filter>
				</clipitem>
				<clipitem id="msub200012-2208k1d1-024 5">
					<name>msub200012-2208k1d1-024</name>
					<duration>233</duration>
					<rate>
						<ntsc>FALSE</ntsc>
						<timebase>25</timebase>
					</rate>
					<in>191</in>
					<out>225</out>
					<start>23990</start>
					<end>24024</end>
					<subframeoffset>0</subframeoffset>
					<masterclipid>msub200012-2208k1d1-024 1</masterclipid>
					<logginginfo>
						<description>msub200012-2208k1d1-024</description>
						<scene/>
						<shottake/>
						<lognote/>
						<good>FALSE</good>
					</logginginfo>
					<labels>
						<label2/>
					</labels>
					<comments>
						<mastercomment1>RÃ…STOFF. BR_FINFREDAG_MSUA_OPRO</mastercomment1>
						<mastercomment2/>
						<mastercomment3/>
						<mastercomment4/>
					</comments>
					<file id="msub200012-2208k1d1-024 2"/>
					<filter>
						<effect>
							<name>Audio Levels</name>
							<effectid>audiolevels</effectid>
							<effectcategory>audiolevels</effectcategory>
							<effecttype>audiolevels</effecttype>
							<mediatype>audio</mediatype>
							<parameter>
								<name>Level</name>
								<parameterid>level</parameterid>
								<valuemin>0</valuemin>
								<valuemax>3.98109</valuemax>
								<value>1</value>
							</parameter>
						</effect>
					</filter>
					<filter>
						<effect>
							<name>Audio Pan</name>
							<effectid>audiopan</effectid>
							<effectcategory>audiopan</effectcategory>
							<effecttype>audiopan</effecttype>
							<mediatype>audio</mediatype>
							<parameter>
								<name>Pan</name>
								<parameterid>pan</parameterid>
								<valuemin>-1</valuemin>
								<valuemax>1</valuemax>
								<value>0</value>
							</parameter>
						</effect>
					</filter>
					<sourcetrack>
						<mediatype>audio</mediatype>
						<trackindex>1</trackindex>
					</sourcetrack>
					<filter>
						<effect>
							<name>Time Remap</name>
							<effectid>timeremap</effectid>
							<effectcategory>motion</effectcategory>
							<effecttype>motion</effecttype>
							<mediatype>audio</mediatype>
							<parameter>
								<parameterid>variablespeed</parameterid>
								<name>variablespeed</name>
								<valuemin>0</valuemin>
								<valuemax>1</valuemax>
								<value>0</value>
							</parameter>
							<parameter>
								<parameterid>mappedduration</parameterid>
								<name>mappedduration</name>
								<value>
									<timecode>
										<rate>
											<timebase>0</timebase>
										</rate>
										<string>0</string>
										<frame>0</frame>
										<displayformat>NDF</displayformat>
									</timecode>
								</value>
							</parameter>
							<parameter>
								<parameterid>speed</parameterid>
								<name>speed</name>
								<valuemin>-10000</valuemin>
								<valuemax>10000</valuemax>
								<value>500</value>
							</parameter>
							<parameter>
								<parameterid>reverse</parameterid>
								<name>reverse</name>
								<value>FALSE</value>
							</parameter>
							<parameter>
								<parameterid>frameblending</parameterid>
								<name>frameblending</name>
								<value>TRUE</value>
							</parameter>
							<parameter>
								<parameterid>graphdict</parameterid>
								<name>graphdict</name>
								<valuemin>0</valuemin>
								<valuemax>1160</valuemax>
								<keyframe>
									<when>0</when>
									<value>4.9999</value>
									<speedkfstart>TRUE</speedkfstart>
									<speedvirtualkf>TRUE</speedvirtualkf>
								</keyframe>
								<keyframe>
									<when>191</when>
									<value>960</value>
									<speedkfin>TRUE</speedkfin>
									<speedvirtualkf>TRUE</speedvirtualkf>
								</keyframe>
								<keyframe>
									<when>225</when>
									<value>1130</value>
									<speedkfout>TRUE</speedkfout>
									<speedvirtualkf>TRUE</speedvirtualkf>
								</keyframe>
								<keyframe>
									<when>233</when>
									<value>1166</value>
									<speedkfend>TRUE</speedkfend>
									<speedvirtualkf>TRUE</speedvirtualkf>
								</keyframe>
								<interpolation>
									<name>FCPCurve</name>
								</interpolation>
								<value>960</value>
							</parameter>
						</effect>
					</filter>
				</clipitem>
				<clipitem id="msub200012-2408-k1d2-004 3">
					<name>msub200012-2408-k1d2-004</name>
					<duration>4238</duration>
					<rate>
						<ntsc>FALSE</ntsc>
						<timebase>25</timebase>
					</rate>
					<in>1782</in>
					<out>1802</out>
					<start>24024</start>
					<end>24044</end>
					<subframeoffset>0</subframeoffset>
					<masterclipid>msub200012-2408-k1d2-004 1</masterclipid>
					<logginginfo>
						<description>msub200012-2408-k1d2-004</description>
						<scene/>
						<shottake/>
						<lognote/>
						<good>FALSE</good>
					</logginginfo>
					<labels>
						<label2/>
					</labels>
					<comments>
						<mastercomment1>RÃ…STOFF. BR_FINFREDAG_MSUA_OPRO</mastercomment1>
						<mastercomment2/>
						<mastercomment3/>
						<mastercomment4/>
					</comments>
					<file id="msub200012-2408-k1d2-004 2"/>
					<filter>
						<effect>
							<name>Audio Levels</name>
							<effectid>audiolevels</effectid>
							<effectcategory>audiolevels</effectcategory>
							<effecttype>audiolevels</effecttype>
							<mediatype>audio</mediatype>
							<parameter>
								<name>Level</name>
								<parameterid>level</parameterid>
								<valuemin>0</valuemin>
								<valuemax>3.98109</valuemax>
								<value>0.112202</value>
							</parameter>
						</effect>
					</filter>
					<filter>
						<effect>
							<name>Audio Pan</name>
							<effectid>audiopan</effectid>
							<effectcategory>audiopan</effectcategory>
							<effecttype>audiopan</effecttype>
							<mediatype>audio</mediatype>
							<parameter>
								<name>Pan</name>
								<parameterid>pan</parameterid>
								<valuemin>-1</valuemin>
								<valuemax>1</valuemax>
								<value>0</value>
							</parameter>
						</effect>
					</filter>
					<sourcetrack>
						<mediatype>audio</mediatype>
						<trackindex>1</trackindex>
					</sourcetrack>
				</clipitem>
				<clipitem id="msub200012-2208k1d1-027 3">
					<name>msub200012-2208k1d1-027</name>
					<duration>629</duration>
					<rate>
						<ntsc>FALSE</ntsc>
						<timebase>25</timebase>
					</rate>
					<in>333</in>
					<out>356</out>
					<start>24044</start>
					<end>24067</end>
					<subframeoffset>0</subframeoffset>
					<masterclipid>msub200012-2208k1d1-027 1</masterclipid>
					<logginginfo>
						<description>msub200012-2208k1d1-027</description>
						<scene/>
						<shottake/>
						<lognote/>
						<good>FALSE</good>
					</logginginfo>
					<labels>
						<label2/>
					</labels>
					<comments>
						<mastercomment1>RÃ…STOFF. BR_FINFREDAG_MSUA_OPRO</mastercomment1>
						<mastercomment2/>
						<mastercomment3/>
						<mastercomment4/>
					</comments>
					<file id="msub200012-2208k1d1-027 2"/>
					<filter>
						<effect>
							<name>Audio Levels</name>
							<effectid>audiolevels</effectid>
							<effectcategory>audiolevels</effectcategory>
							<effecttype>audiolevels</effecttype>
							<mediatype>audio</mediatype>
							<parameter>
								<name>Level</name>
								<parameterid>level</parameterid>
								<valuemin>0</valuemin>
								<valuemax>3.98109</valuemax>
								<value>0.112202</value>
							</parameter>
						</effect>
					</filter>
					<filter>
						<effect>
							<name>Audio Pan</name>
							<effectid>audiopan</effectid>
							<effectcategory>audiopan</effectcategory>
							<effecttype>audiopan</effecttype>
							<mediatype>audio</mediatype>
							<parameter>
								<name>Pan</name>
								<parameterid>pan</parameterid>
								<valuemin>-1</valuemin>
								<valuemax>1</valuemax>
								<value>0</value>
							</parameter>
						</effect>
					</filter>
					<sourcetrack>
						<mediatype>audio</mediatype>
						<trackindex>1</trackindex>
					</sourcetrack>
					<link>
						<linkclipref>msub200012-2208k1d1-027 </linkclipref>
						<mediatype>video</mediatype>
						<trackindex>1</trackindex>
						<clipindex>81</clipindex>
					</link>
					<link>
						<linkclipref>msub200012-2208k1d1-027 3</linkclipref>
						<mediatype>audio</mediatype>
						<trackindex>1</trackindex>
						<clipindex>82</clipindex>
					</link>
					<link>
						<linkclipref>msub200012-2208k1d1-027 4</linkclipref>
						<mediatype>audio</mediatype>
						<trackindex>2</trackindex>
						<clipindex>79</clipindex>
					</link>
				</clipitem>
				<clipitem id="msub200012-2408-k1d2-002 3">
					<name>msub200012-2408-k1d2-002</name>
					<duration>2657</duration>
					<rate>
						<ntsc>FALSE</ntsc>
						<timebase>25</timebase>
					</rate>
					<in>1520</in>
					<out>1541</out>
					<start>24067</start>
					<end>24088</end>
					<subframeoffset>0</subframeoffset>
					<enabled>TRUE</enabled>
					<masterclipid>msub200012-2408-k1d2-002 1</masterclipid>
					<logginginfo>
						<description>msub200012-2408-k1d2-002</description>
						<scene/>
						<shottake/>
						<lognote/>
						<good>FALSE</good>
					</logginginfo>
					<labels>
						<label2/>
					</labels>
					<comments>
						<mastercomment1>RÃ…STOFF. BR_FINFREDAG_MSUA_OPRO</mastercomment1>
						<mastercomment2/>
						<mastercomment3/>
						<mastercomment4/>
					</comments>
					<file id="msub200012-2408-k1d2-002 2"/>
					<filter>
						<effect>
							<name>Audio Levels</name>
							<effectid>audiolevels</effectid>
							<effectcategory>audiolevels</effectcategory>
							<effecttype>audiolevels</effecttype>
							<mediatype>audio</mediatype>
							<parameter>
								<name>Level</name>
								<parameterid>level</parameterid>
								<valuemin>0</valuemin>
								<valuemax>3.98109</valuemax>
								<value>0.0891251</value>
							</parameter>
						</effect>
					</filter>
					<filter>
						<effect>
							<name>Audio Pan</name>
							<effectid>audiopan</effectid>
							<effectcategory>audiopan</effectcategory>
							<effecttype>audiopan</effecttype>
							<mediatype>audio</mediatype>
							<parameter>
								<name>Pan</name>
								<parameterid>pan</parameterid>
								<valuemin>-1</valuemin>
								<valuemax>1</valuemax>
								<value>0</value>
							</parameter>
						</effect>
					</filter>
					<sourcetrack>
						<mediatype>audio</mediatype>
						<trackindex>1</trackindex>
					</sourcetrack>
					<link>
						<linkclipref>msub200012-2408-k1d2-002 </linkclipref>
						<mediatype>video</mediatype>
						<trackindex>1</trackindex>
						<clipindex>82</clipindex>
					</link>
					<link>
						<linkclipref>msub200012-2408-k1d2-002 3</linkclipref>
						<mediatype>audio</mediatype>
						<trackindex>1</trackindex>
						<clipindex>83</clipindex>
					</link>
					<link>
						<linkclipref>msub200012-2408-k1d2-002 4</linkclipref>
						<mediatype>audio</mediatype>
						<trackindex>2</trackindex>
						<clipindex>80</clipindex>
					</link>
				</clipitem>
				<clipitem id="msub200012-2308-k1d1-003 4">
					<name>msub200012-2308-k1d1-003</name>
					<duration>4520</duration>
					<rate>
						<ntsc>FALSE</ntsc>
						<timebase>25</timebase>
					</rate>
					<in>976</in>
					<out>1010</out>
					<start>24220</start>
					<end>24254</end>
					<subframeoffset>0</subframeoffset>
					<enabled>TRUE</enabled>
					<masterclipid>msub200012-2308-k1d1-003 1</masterclipid>
					<logginginfo>
						<description>msub200012-2308-k1d1-003</description>
						<scene/>
						<shottake/>
						<lognote/>
						<good>FALSE</good>
					</logginginfo>
					<labels>
						<label2/>
					</labels>
					<comments>
						<mastercomment1>RÃ…STOFF. BR_FINFREDAG_MSUA_OPRO</mastercomment1>
						<mastercomment2/>
						<mastercomment3/>
						<mastercomment4/>
					</comments>
					<file id="msub200012-2308-k1d1-003 2"/>
					<filter>
						<enabled>TRUE</enabled>
						<start>-1</start>
						<end>-1</end>
						<effect>
							<name>3 Band Equalizer - Mann</name>
							<effecttype>filter</effecttype>
							<mediatype>audio</mediatype>
							<parameter>
								<parameterid>Low Frequency</parameterid>
								<name>Low Frequency</name>
								<valuemin>80</valuemin>
								<valuemax>2000</valuemax>
								<value>837</value>
							</parameter>
							<parameter>
								<parameterid>Low Gain(dB)</parameterid>
								<name>Low Gain(dB)</name>
								<valuemin>-20</valuemin>
								<valuemax>20</valuemax>
								<value>-18</value>
							</parameter>
							<parameter>
								<parameterid>Mid Frequency</parameterid>
								<name>Mid Frequency</name>
								<valuemin>400</valuemin>
								<valuemax>8000</valuemax>
								<value>3297</value>
							</parameter>
							<parameter>
								<parameterid>Mid Gain(dB)</parameterid>
								<name>Mid Gain(dB)</name>
								<valuemin>-20</valuemin>
								<valuemax>20</valuemax>
								<value>-15</value>
							</parameter>
							<parameter>
								<parameterid>High Frequency</parameterid>
								<name>High Frequency</name>
								<valuemin>5000</valuemin>
								<valuemax>20000</valuemax>
								<value>10354</value>
							</parameter>
							<parameter>
								<parameterid>High Gain(dB)</parameterid>
								<name>High Gain(dB)</name>
								<valuemin>-20</valuemin>
								<valuemax>20</valuemax>
								<value>-20</value>
							</parameter>
						</effect>
					</filter>
					<filter>
						<enabled>TRUE</enabled>
						<start>-1</start>
						<end>-1</end>
						<effect>
							<name>Compressor/Limiter</name>
							<effecttype>filter</effecttype>
							<mediatype>audio</mediatype>
							<parameter>
								<parameterid>Threshold(dB)</parameterid>
								<name>Threshold(dB)</name>
								<valuemin>-90</valuemin>
								<valuemax>0</valuemax>
								<value>-34</value>
							</parameter>
							<parameter>
								<parameterid>Ratio</parameterid>
								<name>Ratio</name>
								<valuemin>1</valuemin>
								<valuemax>100</valuemax>
								<value>2</value>
							</parameter>
							<parameter>
								<parameterid>Attack Time</parameterid>
								<name>Attack Time</name>
								<valuemin>1</valuemin>
								<valuemax>100</valuemax>
								<value>10</value>
							</parameter>
							<parameter>
								<parameterid>Release Time</parameterid>
								<name>Release Time</name>
								<valuemin>1</valuemin>
								<valuemax>4000</valuemax>
								<value>100</value>
							</parameter>
							<parameter>
								<parameterid>Preserve Volume</parameterid>
								<name>Preserve Volume</name>
								<value>TRUE</value>
							</parameter>
						</effect>
					</filter>
					<filter>
						<start>-1</start>
						<end>-1</end>
						<effect>
							<name>3 Band Equalizer - Mann - 2</name>
							<effecttype>filter</effecttype>
							<mediatype>audio</mediatype>
							<parameter>
								<parameterid>Low Frequency</parameterid>
								<name>Low Frequency</name>
								<valuemin>80</valuemin>
								<valuemax>2000</valuemax>
								<value>837</value>
							</parameter>
							<parameter>
								<parameterid>Low Gain(dB)</parameterid>
								<name>Low Gain(dB)</name>
								<valuemin>-20</valuemin>
								<valuemax>20</valuemax>
								<value>-18</value>
							</parameter>
							<parameter>
								<parameterid>Mid Frequency</parameterid>
								<name>Mid Frequency</name>
								<valuemin>400</valuemin>
								<valuemax>8000</valuemax>
								<value>3297</value>
							</parameter>
							<parameter>
								<parameterid>Mid Gain(dB)</parameterid>
								<name>Mid Gain(dB)</name>
								<valuemin>-20</valuemin>
								<valuemax>20</valuemax>
								<value>-11</value>
							</parameter>
							<parameter>
								<parameterid>High Frequency</parameterid>
								<name>High Frequency</name>
								<valuemin>5000</valuemin>
								<valuemax>20000</valuemax>
								<value>10354</value>
							</parameter>
							<parameter>
								<parameterid>High Gain(dB)</parameterid>
								<name>High Gain(dB)</name>
								<valuemin>-20</valuemin>
								<valuemax>20</valuemax>
								<value>-20</value>
							</parameter>
						</effect>
					</filter>
					<filter>
						<start>-1</start>
						<end>-1</end>
						<effect>
							<name>Compressor/Limiter - 2</name>
							<effecttype>filter</effecttype>
							<mediatype>audio</mediatype>
							<parameter>
								<parameterid>Threshold(dB)</parameterid>
								<name>Threshold(dB)</name>
								<valuemin>-90</valuemin>
								<valuemax>0</valuemax>
								<value>-34</value>
							</parameter>
							<parameter>
								<parameterid>Ratio</parameterid>
								<name>Ratio</name>
								<valuemin>1</valuemin>
								<valuemax>100</valuemax>
								<value>2</value>
							</parameter>
							<parameter>
								<parameterid>Attack Time</parameterid>
								<name>Attack Time</name>
								<valuemin>1</valuemin>
								<valuemax>100</valuemax>
								<value>10</value>
							</parameter>
							<parameter>
								<parameterid>Release Time</parameterid>
								<name>Release Time</name>
								<valuemin>1</valuemin>
								<valuemax>4000</valuemax>
								<value>100</value>
							</parameter>
							<parameter>
								<parameterid>Preserve Volume</parameterid>
								<name>Preserve Volume</name>
								<value>TRUE</value>
							</parameter>
						</effect>
					</filter>
					<filter>
						<effect>
							<name>Audio Levels</name>
							<effectid>audiolevels</effectid>
							<effectcategory>audiolevels</effectcategory>
							<effecttype>audiolevels</effecttype>
							<mediatype>audio</mediatype>
							<parameter>
								<name>Level</name>
								<parameterid>level</parameterid>
								<valuemin>0</valuemin>
								<valuemax>3.98109</valuemax>
								<keyframe>
									<when>967</when>
									<value>0.0891251</value>
								</keyframe>
								<keyframe>
									<when>971</when>
									<value>0.446684</value>
								</keyframe>
								<interpolation>
									<name>FCPCurve</name>
								</interpolation>
								<value>0.707946</value>
							</parameter>
						</effect>
					</filter>
					<filter>
						<effect>
							<name>Audio Pan</name>
							<effectid>audiopan</effectid>
							<effectcategory>audiopan</effectcategory>
							<effecttype>audiopan</effecttype>
							<mediatype>audio</mediatype>
							<parameter>
								<name>Pan</name>
								<parameterid>pan</parameterid>
								<valuemin>-1</valuemin>
								<valuemax>1</valuemax>
								<value>0</value>
							</parameter>
						</effect>
					</filter>
					<sourcetrack>
						<mediatype>audio</mediatype>
						<trackindex>1</trackindex>
					</sourcetrack>
				</clipitem>
				<clipitem id="msub20000012r-k1-d1-17025 3">
					<name>msub20000012r-k1-d1-17025</name>
					<duration>7583</duration>
					<rate>
						<ntsc>FALSE</ntsc>
						<timebase>25</timebase>
					</rate>
					<in>3059</in>
					<out>3146</out>
					<start>24276</start>
					<end>-1</end>
					<subframeoffset>0</subframeoffset>
					<enabled>FALSE</enabled>
					<masterclipid>msub20000012r-k1-d1-17025 1</masterclipid>
					<logginginfo>
						<description>msub20000012r-k1-d1-17025</description>
						<scene/>
						<shottake/>
						<lognote/>
						<good>FALSE</good>
					</logginginfo>
					<labels>
						<label2/>
					</labels>
					<comments>
						<mastercomment1>RÃ…STOFF</mastercomment1>
						<mastercomment2/>
						<mastercomment3/>
						<mastercomment4/>
					</comments>
					<file id="msub20000012r-k1-d1-17025 2"/>
					<filter>
						<effect>
							<name>Audio Levels</name>
							<effectid>audiolevels</effectid>
							<effectcategory>audiolevels</effectcategory>
							<effecttype>audiolevels</effecttype>
							<mediatype>audio</mediatype>
							<parameter>
								<name>Level</name>
								<parameterid>level</parameterid>
								<valuemin>0</valuemin>
								<valuemax>3.98109</valuemax>
								<value>1</value>
							</parameter>
						</effect>
					</filter>
					<filter>
						<effect>
							<name>Audio Pan</name>
							<effectid>audiopan</effectid>
							<effectcategory>audiopan</effectcategory>
							<effecttype>audiopan</effecttype>
							<mediatype>audio</mediatype>
							<parameter>
								<name>Pan</name>
								<parameterid>pan</parameterid>
								<valuemin>-1</valuemin>
								<valuemax>1</valuemax>
								<value>0</value>
							</parameter>
						</effect>
					</filter>
					<sourcetrack>
						<mediatype>audio</mediatype>
						<trackindex>1</trackindex>
					</sourcetrack>
				</clipitem>
				<transitionitem id="25">
					<rate>
						<ntsc>FALSE</ntsc>
						<timebase>25</timebase>
					</rate>
					<start>24358</start>
					<end>24363</end>
					<alignment>end-black</alignment>
					<effect>
						<name>Cross Fade ( 0dB)</name>
						<effecttype>transition</effecttype>
						<mediatype>audio</mediatype>
					</effect>
				</transitionitem>
				<clipitem id="msub200012-2308-k1d2016.mxf2">
					<name>msub200012-2308-k1d2016.mxf</name>
					<duration>15795</duration>
					<rate>
						<ntsc>FALSE</ntsc>
						<timebase>25</timebase>
					</rate>
					<in>13008</in>
					<out>13065</out>
					<start>24501</start>
					<end>24558</end>
					<subframeoffset>0</subframeoffset>
					<enabled>FALSE</enabled>
					<masterclipid>msub200012-2308-k1d2016.mxf1</masterclipid>
					<logginginfo>
						<scene/>
						<shottake/>
						<lognote/>
						<good>FALSE</good>
					</logginginfo>
					<labels>
						<label2/>
					</labels>
					<comments>
						<mastercomment1/>
						<mastercomment2/>
						<mastercomment3/>
						<mastercomment4/>
					</comments>
					<file id="msub200012-2308-k1d2016 "/>
					<filter>
						<enabled>TRUE</enabled>
						<start>-1</start>
						<end>-1</end>
						<effect>
							<name>3 Band Equalizer - Kristine</name>
							<effecttype>filter</effecttype>
							<mediatype>audio</mediatype>
							<parameter>
								<parameterid>Low Frequency</parameterid>
								<name>Low Frequency</name>
								<valuemin>80</valuemin>
								<valuemax>2000</valuemax>
								<value>80</value>
							</parameter>
							<parameter>
								<parameterid>Low Gain(dB)</parameterid>
								<name>Low Gain(dB)</name>
								<valuemin>-20</valuemin>
								<valuemax>20</valuemax>
								<value>-4</value>
							</parameter>
							<parameter>
								<parameterid>Mid Frequency</parameterid>
								<name>Mid Frequency</name>
								<valuemin>400</valuemin>
								<valuemax>8000</valuemax>
								<value>3602</value>
							</parameter>
							<parameter>
								<parameterid>Mid Gain(dB)</parameterid>
								<name>Mid Gain(dB)</name>
								<valuemin>-20</valuemin>
								<valuemax>20</valuemax>
								<value>3</value>
							</parameter>
							<parameter>
								<parameterid>High Frequency</parameterid>
								<name>High Frequency</name>
								<valuemin>5000</valuemin>
								<valuemax>20000</valuemax>
								<value>10354</value>
							</parameter>
							<parameter>
								<parameterid>High Gain(dB)</parameterid>
								<name>High Gain(dB)</name>
								<valuemin>-20</valuemin>
								<valuemax>20</valuemax>
								<value>0</value>
							</parameter>
						</effect>
					</filter>
					<filter>
						<start>-1</start>
						<end>-1</end>
						<effect>
							<name>Compressor/Limiter</name>
							<effecttype>filter</effecttype>
							<mediatype>audio</mediatype>
							<parameter>
								<parameterid>Threshold(dB)</parameterid>
								<name>Threshold(dB)</name>
								<valuemin>-90</valuemin>
								<valuemax>0</valuemax>
								<value>-20</value>
							</parameter>
							<parameter>
								<parameterid>Ratio</parameterid>
								<name>Ratio</name>
								<valuemin>1</valuemin>
								<valuemax>100</valuemax>
								<value>2</value>
							</parameter>
							<parameter>
								<parameterid>Attack Time</parameterid>
								<name>Attack Time</name>
								<valuemin>1</valuemin>
								<valuemax>100</valuemax>
								<value>5</value>
							</parameter>
							<parameter>
								<parameterid>Release Time</parameterid>
								<name>Release Time</name>
								<valuemin>1</valuemin>
								<valuemax>4000</valuemax>
								<value>209</value>
							</parameter>
							<parameter>
								<parameterid>Preserve Volume</parameterid>
								<name>Preserve Volume</name>
								<value>TRUE</value>
							</parameter>
						</effect>
					</filter>
					<filter>
						<effect>
							<name>Audio Levels</name>
							<effectid>audiolevels</effectid>
							<effectcategory>audiolevels</effectcategory>
							<effecttype>audiolevels</effecttype>
							<mediatype>audio</mediatype>
							<parameter>
								<name>Level</name>
								<parameterid>level</parameterid>
								<valuemin>0</valuemin>
								<valuemax>3.98109</valuemax>
								<value>0.281838</value>
							</parameter>
						</effect>
					</filter>
					<filter>
						<effect>
							<name>Audio Pan</name>
							<effectid>audiopan</effectid>
							<effectcategory>audiopan</effectcategory>
							<effecttype>audiopan</effecttype>
							<mediatype>audio</mediatype>
							<parameter>
								<name>Pan</name>
								<parameterid>pan</parameterid>
								<valuemin>-1</valuemin>
								<valuemax>1</valuemax>
								<value>0</value>
							</parameter>
						</effect>
					</filter>
					<sourcetrack>
						<mediatype>audio</mediatype>
						<trackindex>1</trackindex>
					</sourcetrack>
					<link>
						<linkclipref>msub200012-2308-k1d2016.mxf</linkclipref>
						<mediatype>video</mediatype>
						<trackindex>1</trackindex>
						<clipindex>90</clipindex>
					</link>
					<link>
						<linkclipref>msub200012-2308-k1d2016.mxf2</linkclipref>
						<mediatype>audio</mediatype>
						<trackindex>1</trackindex>
						<clipindex>87</clipindex>
					</link>
					<link>
						<linkclipref>msub200012-2308-k1d2016.mxf3</linkclipref>
						<mediatype>audio</mediatype>
						<trackindex>2</trackindex>
						<clipindex>84</clipindex>
					</link>
				</clipitem>
				<clipitem id="msub200012-2308-k1d2016.mxf5">
					<name>msub200012-2308-k1d2016.mxf</name>
					<duration>15795</duration>
					<rate>
						<ntsc>FALSE</ntsc>
						<timebase>25</timebase>
					</rate>
					<in>8404</in>
					<out>8437</out>
					<start>24558</start>
					<end>24591</end>
					<subframeoffset>0</subframeoffset>
					<enabled>TRUE</enabled>
					<masterclipid>msub200012-2308-k1d2016.mxf1</masterclipid>
					<logginginfo>
						<scene/>
						<shottake/>
						<lognote/>
						<good>FALSE</good>
					</logginginfo>
					<labels>
						<label2/>
					</labels>
					<comments>
						<mastercomment1/>
						<mastercomment2/>
						<mastercomment3/>
						<mastercomment4/>
					</comments>
					<file id="msub200012-2308-k1d2016 "/>
					<filter>
						<enabled>TRUE</enabled>
						<start>-1</start>
						<end>-1</end>
						<effect>
							<name>3 Band Equalizer - Kristine</name>
							<effecttype>filter</effecttype>
							<mediatype>audio</mediatype>
							<parameter>
								<parameterid>Low Frequency</parameterid>
								<name>Low Frequency</name>
								<valuemin>80</valuemin>
								<valuemax>2000</valuemax>
								<value>80</value>
							</parameter>
							<parameter>
								<parameterid>Low Gain(dB)</parameterid>
								<name>Low Gain(dB)</name>
								<valuemin>-20</valuemin>
								<valuemax>20</valuemax>
								<value>-4</value>
							</parameter>
							<parameter>
								<parameterid>Mid Frequency</parameterid>
								<name>Mid Frequency</name>
								<valuemin>400</valuemin>
								<valuemax>8000</valuemax>
								<value>3602</value>
							</parameter>
							<parameter>
								<parameterid>Mid Gain(dB)</parameterid>
								<name>Mid Gain(dB)</name>
								<valuemin>-20</valuemin>
								<valuemax>20</valuemax>
								<value>3</value>
							</parameter>
							<parameter>
								<parameterid>High Frequency</parameterid>
								<name>High Frequency</name>
								<valuemin>5000</valuemin>
								<valuemax>20000</valuemax>
								<value>10354</value>
							</parameter>
							<parameter>
								<parameterid>High Gain(dB)</parameterid>
								<name>High Gain(dB)</name>
								<valuemin>-20</valuemin>
								<valuemax>20</valuemax>
								<value>0</value>
							</parameter>
						</effect>
					</filter>
					<filter>
						<start>-1</start>
						<end>-1</end>
						<effect>
							<name>Compressor/Limiter</name>
							<effecttype>filter</effecttype>
							<mediatype>audio</mediatype>
							<parameter>
								<parameterid>Threshold(dB)</parameterid>
								<name>Threshold(dB)</name>
								<valuemin>-90</valuemin>
								<valuemax>0</valuemax>
								<value>-20</value>
							</parameter>
							<parameter>
								<parameterid>Ratio</parameterid>
								<name>Ratio</name>
								<valuemin>1</valuemin>
								<valuemax>100</valuemax>
								<value>2</value>
							</parameter>
							<parameter>
								<parameterid>Attack Time</parameterid>
								<name>Attack Time</name>
								<valuemin>1</valuemin>
								<valuemax>100</valuemax>
								<value>5</value>
							</parameter>
							<parameter>
								<parameterid>Release Time</parameterid>
								<name>Release Time</name>
								<valuemin>1</valuemin>
								<valuemax>4000</valuemax>
								<value>209</value>
							</parameter>
							<parameter>
								<parameterid>Preserve Volume</parameterid>
								<name>Preserve Volume</name>
								<value>TRUE</value>
							</parameter>
						</effect>
					</filter>
					<filter>
						<effect>
							<name>Audio Levels</name>
							<effectid>audiolevels</effectid>
							<effectcategory>audiolevels</effectcategory>
							<effecttype>audiolevels</effecttype>
							<mediatype>audio</mediatype>
							<parameter>
								<name>Level</name>
								<parameterid>level</parameterid>
								<valuemin>0</valuemin>
								<valuemax>3.98109</valuemax>
								<value>0.501187</value>
							</parameter>
						</effect>
					</filter>
					<filter>
						<effect>
							<name>Audio Pan</name>
							<effectid>audiopan</effectid>
							<effectcategory>audiopan</effectcategory>
							<effecttype>audiopan</effecttype>
							<mediatype>audio</mediatype>
							<parameter>
								<name>Pan</name>
								<parameterid>pan</parameterid>
								<valuemin>-1</valuemin>
								<valuemax>1</valuemax>
								<value>0</value>
							</parameter>
						</effect>
					</filter>
					<sourcetrack>
						<mediatype>audio</mediatype>
						<trackindex>1</trackindex>
					</sourcetrack>
					<link>
						<linkclipref>msub200012-2308-k1d2016.mxf4</linkclipref>
						<mediatype>video</mediatype>
						<trackindex>1</trackindex>
						<clipindex>91</clipindex>
					</link>
					<link>
						<linkclipref>msub200012-2308-k1d2016.mxf5</linkclipref>
						<mediatype>audio</mediatype>
						<trackindex>1</trackindex>
						<clipindex>88</clipindex>
					</link>
					<link>
						<linkclipref>msub200012-2308-k1d2016.mxf6</linkclipref>
						<mediatype>audio</mediatype>
						<trackindex>2</trackindex>
						<clipindex>85</clipindex>
					</link>
				</clipitem>
				<transitionitem id="26">
					<rate>
						<ntsc>FALSE</ntsc>
						<timebase>25</timebase>
					</rate>
					<start>24591</start>
					<end>24593</end>
					<alignment>start-black</alignment>
					<effect>
						<name>Cross Fade ( 0dB)</name>
						<effecttype>transition</effecttype>
						<mediatype>audio</mediatype>
					</effect>
				</transitionitem>
				<clipitem id="msub200012-2308-k1d2003.mxf7">
					<name>msub200012-2308-k1d2003.mxf</name>
					<duration>860</duration>
					<rate>
						<ntsc>FALSE</ntsc>
						<timebase>25</timebase>
					</rate>
					<in>472</in>
					<out>512</out>
					<start>-1</start>
					<end>-1</end>
					<subframeoffset>0</subframeoffset>
					<masterclipid>msub200012-2308-k1d2003.mxf1</masterclipid>
					<logginginfo>
						<scene/>
						<shottake/>
						<lognote/>
						<good>FALSE</good>
					</logginginfo>
					<labels>
						<label2/>
					</labels>
					<comments>
						<mastercomment1/>
						<mastercomment2/>
						<mastercomment3/>
						<mastercomment4/>
					</comments>
					<file id="msub200012-2308-k1d2003 "/>
					<filter>
						<start>-1</start>
						<end>-1</end>
						<effect>
							<name>3 Band Equalizer - Kristine</name>
							<effecttype>filter</effecttype>
							<mediatype>audio</mediatype>
							<parameter>
								<parameterid>Low Frequency</parameterid>
								<name>Low Frequency</name>
								<valuemin>80</valuemin>
								<valuemax>2000</valuemax>
								<value>80</value>
							</parameter>
							<parameter>
								<parameterid>Low Gain(dB)</parameterid>
								<name>Low Gain(dB)</name>
								<valuemin>-20</valuemin>
								<valuemax>20</valuemax>
								<value>-4</value>
							</parameter>
							<parameter>
								<parameterid>Mid Frequency</parameterid>
								<name>Mid Frequency</name>
								<valuemin>400</valuemin>
								<valuemax>8000</valuemax>
								<value>3602</value>
							</parameter>
							<parameter>
								<parameterid>Mid Gain(dB)</parameterid>
								<name>Mid Gain(dB)</name>
								<valuemin>-20</valuemin>
								<valuemax>20</valuemax>
								<value>3</value>
							</parameter>
							<parameter>
								<parameterid>High Frequency</parameterid>
								<name>High Frequency</name>
								<valuemin>5000</valuemin>
								<valuemax>20000</valuemax>
								<value>10354</value>
							</parameter>
							<parameter>
								<parameterid>High Gain(dB)</parameterid>
								<name>High Gain(dB)</name>
								<valuemin>-20</valuemin>
								<valuemax>20</valuemax>
								<value>0</value>
							</parameter>
						</effect>
					</filter>
					<filter>
						<start>-1</start>
						<end>-1</end>
						<effect>
							<name>Compressor/Limiter</name>
							<effecttype>filter</effecttype>
							<mediatype>audio</mediatype>
							<parameter>
								<parameterid>Threshold(dB)</parameterid>
								<name>Threshold(dB)</name>
								<valuemin>-90</valuemin>
								<valuemax>0</valuemax>
								<value>-20</value>
							</parameter>
							<parameter>
								<parameterid>Ratio</parameterid>
								<name>Ratio</name>
								<valuemin>1</valuemin>
								<valuemax>100</valuemax>
								<value>2</value>
							</parameter>
							<parameter>
								<parameterid>Attack Time</parameterid>
								<name>Attack Time</name>
								<valuemin>1</valuemin>
								<valuemax>100</valuemax>
								<value>5</value>
							</parameter>
							<parameter>
								<parameterid>Release Time</parameterid>
								<name>Release Time</name>
								<valuemin>1</valuemin>
								<valuemax>4000</valuemax>
								<value>209</value>
							</parameter>
							<parameter>
								<parameterid>Preserve Volume</parameterid>
								<name>Preserve Volume</name>
								<value>TRUE</value>
							</parameter>
						</effect>
					</filter>
					<filter>
						<effect>
							<name>Audio Levels</name>
							<effectid>audiolevels</effectid>
							<effectcategory>audiolevels</effectcategory>
							<effecttype>audiolevels</effecttype>
							<mediatype>audio</mediatype>
							<parameter>
								<name>Level</name>
								<parameterid>level</parameterid>
								<valuemin>0</valuemin>
								<valuemax>3.98109</valuemax>
								<value>0.562341</value>
							</parameter>
						</effect>
					</filter>
					<filter>
						<effect>
							<name>Audio Pan</name>
							<effectid>audiopan</effectid>
							<effectcategory>audiopan</effectcategory>
							<effecttype>audiopan</effecttype>
							<mediatype>audio</mediatype>
							<parameter>
								<name>Pan</name>
								<parameterid>pan</parameterid>
								<valuemin>-1</valuemin>
								<valuemax>1</valuemax>
								<value>0</value>
							</parameter>
						</effect>
					</filter>
					<sourcetrack>
						<mediatype>audio</mediatype>
						<trackindex>3</trackindex>
					</sourcetrack>
				</clipitem>
				<transitionitem id="38880904 ">
					<rate>
						<ntsc>FALSE</ntsc>
						<timebase>25</timebase>
					</rate>
					<start>24625</start>
					<end>24631</end>
					<alignment>center</alignment>
					<effect>
						<name>Cross Fade (+3dB) Copy</name>
						<effecttype>transition</effecttype>
						<mediatype>audio</mediatype>
					</effect>
				</transitionitem>
				<transitionitem id="38881380 ">
					<rate>
						<ntsc>FALSE</ntsc>
						<timebase>25</timebase>
					</rate>
					<start>24672</start>
					<end>24678</end>
					<alignment>center</alignment>
					<effect>
						<name>Cross Fade (+3dB) Copy</name>
						<effecttype>transition</effecttype>
						<mediatype>audio</mediatype>
					</effect>
				</transitionitem>
				<clipitem id="msub200012-2308-k1d2003.mxf8">
					<name>msub200012-2308-k1d2003.mxf</name>
					<duration>860</duration>
					<rate>
						<ntsc>FALSE</ntsc>
						<timebase>25</timebase>
					</rate>
					<in>527</in>
					<out>585</out>
					<start>-1</start>
					<end>-1</end>
					<subframeoffset>0</subframeoffset>
					<masterclipid>msub200012-2308-k1d2003.mxf1</masterclipid>
					<logginginfo>
						<scene/>
						<shottake/>
						<lognote/>
						<good>FALSE</good>
					</logginginfo>
					<labels>
						<label2/>
					</labels>
					<comments>
						<mastercomment1/>
						<mastercomment2/>
						<mastercomment3/>
						<mastercomment4/>
					</comments>
					<file id="msub200012-2308-k1d2003 "/>
					<filter>
						<start>-1</start>
						<end>-1</end>
						<effect>
							<name>3 Band Equalizer - Kristine</name>
							<effecttype>filter</effecttype>
							<mediatype>audio</mediatype>
							<parameter>
								<parameterid>Low Frequency</parameterid>
								<name>Low Frequency</name>
								<valuemin>80</valuemin>
								<valuemax>2000</valuemax>
								<value>80</value>
							</parameter>
							<parameter>
								<parameterid>Low Gain(dB)</parameterid>
								<name>Low Gain(dB)</name>
								<valuemin>-20</valuemin>
								<valuemax>20</valuemax>
								<value>-4</value>
							</parameter>
							<parameter>
								<parameterid>Mid Frequency</parameterid>
								<name>Mid Frequency</name>
								<valuemin>400</valuemin>
								<valuemax>8000</valuemax>
								<value>3602</value>
							</parameter>
							<parameter>
								<parameterid>Mid Gain(dB)</parameterid>
								<name>Mid Gain(dB)</name>
								<valuemin>-20</valuemin>
								<valuemax>20</valuemax>
								<value>3</value>
							</parameter>
							<parameter>
								<parameterid>High Frequency</parameterid>
								<name>High Frequency</name>
								<valuemin>5000</valuemin>
								<valuemax>20000</valuemax>
								<value>10354</value>
							</parameter>
							<parameter>
								<parameterid>High Gain(dB)</parameterid>
								<name>High Gain(dB)</name>
								<valuemin>-20</valuemin>
								<valuemax>20</valuemax>
								<value>0</value>
							</parameter>
						</effect>
					</filter>
					<filter>
						<start>-1</start>
						<end>-1</end>
						<effect>
							<name>Compressor/Limiter</name>
							<effecttype>filter</effecttype>
							<mediatype>audio</mediatype>
							<parameter>
								<parameterid>Threshold(dB)</parameterid>
								<name>Threshold(dB)</name>
								<valuemin>-90</valuemin>
								<valuemax>0</valuemax>
								<value>-20</value>
							</parameter>
							<parameter>
								<parameterid>Ratio</parameterid>
								<name>Ratio</name>
								<valuemin>1</valuemin>
								<valuemax>100</valuemax>
								<value>2</value>
							</parameter>
							<parameter>
								<parameterid>Attack Time</parameterid>
								<name>Attack Time</name>
								<valuemin>1</valuemin>
								<valuemax>100</valuemax>
								<value>5</value>
							</parameter>
							<parameter>
								<parameterid>Release Time</parameterid>
								<name>Release Time</name>
								<valuemin>1</valuemin>
								<valuemax>4000</valuemax>
								<value>209</value>
							</parameter>
							<parameter>
								<parameterid>Preserve Volume</parameterid>
								<name>Preserve Volume</name>
								<value>TRUE</value>
							</parameter>
						</effect>
					</filter>
					<filter>
						<effect>
							<name>Audio Levels</name>
							<effectid>audiolevels</effectid>
							<effectcategory>audiolevels</effectcategory>
							<effecttype>audiolevels</effecttype>
							<mediatype>audio</mediatype>
							<parameter>
								<name>Level</name>
								<parameterid>level</parameterid>
								<valuemin>0</valuemin>
								<valuemax>3.98109</valuemax>
								<value>0.251189</value>
							</parameter>
						</effect>
					</filter>
					<filter>
						<effect>
							<name>Audio Pan</name>
							<effectid>audiopan</effectid>
							<effectcategory>audiopan</effectcategory>
							<effecttype>audiopan</effecttype>
							<mediatype>audio</mediatype>
							<parameter>
								<name>Pan</name>
								<parameterid>pan</parameterid>
								<valuemin>-1</valuemin>
								<valuemax>1</valuemax>
								<value>0</value>
							</parameter>
						</effect>
					</filter>
					<sourcetrack>
						<mediatype>audio</mediatype>
						<trackindex>3</trackindex>
					</sourcetrack>
				</clipitem>
				<transitionitem id="27">
					<rate>
						<ntsc>FALSE</ntsc>
						<timebase>25</timebase>
					</rate>
					<start>24720</start>
					<end>24730</end>
					<alignment>end-black</alignment>
					<effect>
						<name>Cross Fade ( 0dB)</name>
						<effecttype>transition</effecttype>
						<mediatype>audio</mediatype>
					</effect>
				</transitionitem>
				<transitionitem id="38885256 ">
					<rate>
						<ntsc>FALSE</ntsc>
						<timebase>25</timebase>
					</rate>
					<start>25227</start>
					<end>25233</end>
					<alignment>start-black</alignment>
					<effect>
						<name>Cross Fade (+3dB) Copy</name>
						<effecttype>transition</effecttype>
						<mediatype>audio</mediatype>
					</effect>
				</transitionitem>
				<clipitem id="msub200012-2208k1d2-007 3">
					<name>msub200012-2208k1d2-007</name>
					<duration>9283</duration>
					<rate>
						<ntsc>FALSE</ntsc>
						<timebase>25</timebase>
					</rate>
					<in>394</in>
					<out>521</out>
					<start>-1</start>
					<end>-1</end>
					<subframeoffset>0</subframeoffset>
					<masterclipid>msub200012-2208k1d2-007 1</masterclipid>
					<logginginfo>
						<description>msub200012-2208k1d2-007</description>
						<scene/>
						<shottake/>
						<lognote/>
						<good>FALSE</good>
					</logginginfo>
					<labels>
						<label2/>
					</labels>
					<comments>
						<mastercomment1>RÃ…STOFF. BR_FINFREDAG_MSUA_OPRO</mastercomment1>
						<mastercomment2/>
						<mastercomment3/>
						<mastercomment4/>
					</comments>
					<file id="msub200012-2208k1d2-007 2"/>
					<filter>
						<start>-1</start>
						<end>-1</end>
						<effect>
							<name>3 Band Equalizer - Kristine</name>
							<effecttype>filter</effecttype>
							<mediatype>audio</mediatype>
							<parameter>
								<parameterid>Low Frequency</parameterid>
								<name>Low Frequency</name>
								<valuemin>80</valuemin>
								<valuemax>2000</valuemax>
								<value>80</value>
							</parameter>
							<parameter>
								<parameterid>Low Gain(dB)</parameterid>
								<name>Low Gain(dB)</name>
								<valuemin>-20</valuemin>
								<valuemax>20</valuemax>
								<value>-4</value>
							</parameter>
							<parameter>
								<parameterid>Mid Frequency</parameterid>
								<name>Mid Frequency</name>
								<valuemin>400</valuemin>
								<valuemax>8000</valuemax>
								<value>3602</value>
							</parameter>
							<parameter>
								<parameterid>Mid Gain(dB)</parameterid>
								<name>Mid Gain(dB)</name>
								<valuemin>-20</valuemin>
								<valuemax>20</valuemax>
								<value>3</value>
							</parameter>
							<parameter>
								<parameterid>High Frequency</parameterid>
								<name>High Frequency</name>
								<valuemin>5000</valuemin>
								<valuemax>20000</valuemax>
								<value>10354</value>
							</parameter>
							<parameter>
								<parameterid>High Gain(dB)</parameterid>
								<name>High Gain(dB)</name>
								<valuemin>-20</valuemin>
								<valuemax>20</valuemax>
								<value>0</value>
							</parameter>
						</effect>
					</filter>
					<filter>
						<start>-1</start>
						<end>-1</end>
						<effect>
							<name>Compressor/Limiter</name>
							<effecttype>filter</effecttype>
							<mediatype>audio</mediatype>
							<parameter>
								<parameterid>Threshold(dB)</parameterid>
								<name>Threshold(dB)</name>
								<valuemin>-90</valuemin>
								<valuemax>0</valuemax>
								<value>-20</value>
							</parameter>
							<parameter>
								<parameterid>Ratio</parameterid>
								<name>Ratio</name>
								<valuemin>1</valuemin>
								<valuemax>100</valuemax>
								<value>2</value>
							</parameter>
							<parameter>
								<parameterid>Attack Time</parameterid>
								<name>Attack Time</name>
								<valuemin>1</valuemin>
								<valuemax>100</valuemax>
								<value>5</value>
							</parameter>
							<parameter>
								<parameterid>Release Time</parameterid>
								<name>Release Time</name>
								<valuemin>1</valuemin>
								<valuemax>4000</valuemax>
								<value>209</value>
							</parameter>
							<parameter>
								<parameterid>Preserve Volume</parameterid>
								<name>Preserve Volume</name>
								<value>TRUE</value>
							</parameter>
						</effect>
					</filter>
					<filter>
						<effect>
							<name>Audio Levels</name>
							<effectid>audiolevels</effectid>
							<effectcategory>audiolevels</effectcategory>
							<effecttype>audiolevels</effecttype>
							<mediatype>audio</mediatype>
							<parameter>
								<name>Level</name>
								<parameterid>level</parameterid>
								<valuemin>0</valuemin>
								<valuemax>3.98109</valuemax>
								<keyframe>
									<when>492.286</when>
									<value>0.794328</value>
								</keyframe>
								<keyframe>
									<when>497.429</when>
									<value>0.177828</value>
								</keyframe>
								<interpolation>
									<name>FCPCurve</name>
								</interpolation>
								<value>0.891251</value>
							</parameter>
						</effect>
					</filter>
					<filter>
						<effect>
							<name>Audio Pan</name>
							<effectid>audiopan</effectid>
							<effectcategory>audiopan</effectcategory>
							<effecttype>audiopan</effecttype>
							<mediatype>audio</mediatype>
							<parameter>
								<name>Pan</name>
								<parameterid>pan</parameterid>
								<valuemin>-1</valuemin>
								<valuemax>1</valuemax>
								<value>0</value>
							</parameter>
						</effect>
					</filter>
					<sourcetrack>
						<mediatype>audio</mediatype>
						<trackindex>1</trackindex>
					</sourcetrack>
					<link>
						<linkclipref>msub200012-2208k1d2-007 </linkclipref>
						<mediatype>video</mediatype>
						<trackindex>1</trackindex>
						<clipindex>99</clipindex>
					</link>
					<link>
						<linkclipref>msub200012-2208k1d2-007 3</linkclipref>
						<mediatype>audio</mediatype>
						<trackindex>1</trackindex>
						<clipindex>96</clipindex>
					</link>
					<link>
						<linkclipref>msub200012-2208k1d2-007 4</linkclipref>
						<mediatype>audio</mediatype>
						<trackindex>2</trackindex>
						<clipindex>96</clipindex>
					</link>
				</clipitem>
				<transitionitem id="28">
					<rate>
						<ntsc>FALSE</ntsc>
						<timebase>25</timebase>
					</rate>
					<start>25352</start>
					<end>25354</end>
					<alignment>center</alignment>
					<effect>
						<name>Cross Fade ( 0dB)</name>
						<effecttype>transition</effecttype>
						<mediatype>audio</mediatype>
					</effect>
				</transitionitem>
				<clipitem id="msub200012-2208k1d2-007 9">
					<name>msub200012-2208k1d2-007</name>
					<duration>9283</duration>
					<rate>
						<ntsc>FALSE</ntsc>
						<timebase>25</timebase>
					</rate>
					<in>621</in>
					<out>711</out>
					<start>-1</start>
					<end>25442</end>
					<subframeoffset>0</subframeoffset>
					<masterclipid>msub200012-2208k1d2-007 1</masterclipid>
					<logginginfo>
						<description>msub200012-2208k1d2-007</description>
						<scene/>
						<shottake/>
						<lognote/>
						<good>FALSE</good>
					</logginginfo>
					<labels>
						<label2/>
					</labels>
					<comments>
						<mastercomment1>RÃ…STOFF. BR_FINFREDAG_MSUA_OPRO</mastercomment1>
						<mastercomment2/>
						<mastercomment3/>
						<mastercomment4/>
					</comments>
					<file id="msub200012-2208k1d2-007 2"/>
					<filter>
						<start>-1</start>
						<end>-1</end>
						<effect>
							<name>3 Band Equalizer - Kristine</name>
							<effecttype>filter</effecttype>
							<mediatype>audio</mediatype>
							<parameter>
								<parameterid>Low Frequency</parameterid>
								<name>Low Frequency</name>
								<valuemin>80</valuemin>
								<valuemax>2000</valuemax>
								<value>80</value>
							</parameter>
							<parameter>
								<parameterid>Low Gain(dB)</parameterid>
								<name>Low Gain(dB)</name>
								<valuemin>-20</valuemin>
								<valuemax>20</valuemax>
								<value>-4</value>
							</parameter>
							<parameter>
								<parameterid>Mid Frequency</parameterid>
								<name>Mid Frequency</name>
								<valuemin>400</valuemin>
								<valuemax>8000</valuemax>
								<value>3602</value>
							</parameter>
							<parameter>
								<parameterid>Mid Gain(dB)</parameterid>
								<name>Mid Gain(dB)</name>
								<valuemin>-20</valuemin>
								<valuemax>20</valuemax>
								<value>3</value>
							</parameter>
							<parameter>
								<parameterid>High Frequency</parameterid>
								<name>High Frequency</name>
								<valuemin>5000</valuemin>
								<valuemax>20000</valuemax>
								<value>10354</value>
							</parameter>
							<parameter>
								<parameterid>High Gain(dB)</parameterid>
								<name>High Gain(dB)</name>
								<valuemin>-20</valuemin>
								<valuemax>20</valuemax>
								<value>0</value>
							</parameter>
						</effect>
					</filter>
					<filter>
						<start>-1</start>
						<end>-1</end>
						<effect>
							<name>Compressor/Limiter</name>
							<effecttype>filter</effecttype>
							<mediatype>audio</mediatype>
							<parameter>
								<parameterid>Threshold(dB)</parameterid>
								<name>Threshold(dB)</name>
								<valuemin>-90</valuemin>
								<valuemax>0</valuemax>
								<value>-20</value>
							</parameter>
							<parameter>
								<parameterid>Ratio</parameterid>
								<name>Ratio</name>
								<valuemin>1</valuemin>
								<valuemax>100</valuemax>
								<value>2</value>
							</parameter>
							<parameter>
								<parameterid>Attack Time</parameterid>
								<name>Attack Time</name>
								<valuemin>1</valuemin>
								<valuemax>100</valuemax>
								<value>5</value>
							</parameter>
							<parameter>
								<parameterid>Release Time</parameterid>
								<name>Release Time</name>
								<valuemin>1</valuemin>
								<valuemax>4000</valuemax>
								<value>209</value>
							</parameter>
							<parameter>
								<parameterid>Preserve Volume</parameterid>
								<name>Preserve Volume</name>
								<value>TRUE</value>
							</parameter>
						</effect>
					</filter>
					<filter>
						<effect>
							<name>Audio Levels</name>
							<effectid>audiolevels</effectid>
							<effectcategory>audiolevels</effectcategory>
							<effecttype>audiolevels</effecttype>
							<mediatype>audio</mediatype>
							<parameter>
								<name>Level</name>
								<parameterid>level</parameterid>
								<valuemin>0</valuemin>
								<valuemax>3.98109</valuemax>
								<keyframe>
									<when>522.714</when>
									<value>1</value>
								</keyframe>
								<keyframe>
									<when>543.607</when>
									<value>0.891251</value>
								</keyframe>
								<keyframe>
									<when>557.107</when>
									<value>0.891251</value>
								</keyframe>
								<keyframe>
									<when>630.571</when>
									<value>0.891251</value>
								</keyframe>
								<keyframe>
									<when>634</when>
									<value>0.891251</value>
								</keyframe>
								<keyframe>
									<when>683.214</when>
									<value>0.891251</value>
								</keyframe>
								<keyframe>
									<when>690.5</when>
									<value>0.501187</value>
								</keyframe>
								<interpolation>
									<name>FCPCurve</name>
								</interpolation>
								<value>1</value>
							</parameter>
						</effect>
					</filter>
					<filter>
						<effect>
							<name>Audio Pan</name>
							<effectid>audiopan</effectid>
							<effectcategory>audiopan</effectcategory>
							<effecttype>audiopan</effecttype>
							<mediatype>audio</mediatype>
							<parameter>
								<name>Pan</name>
								<parameterid>pan</parameterid>
								<valuemin>-1</valuemin>
								<valuemax>1</valuemax>
								<value>0</value>
							</parameter>
						</effect>
					</filter>
					<sourcetrack>
						<mediatype>audio</mediatype>
						<trackindex>3</trackindex>
					</sourcetrack>
				</clipitem>
				<transitionitem id="38968304 ">
					<rate>
						<ntsc>FALSE</ntsc>
						<timebase>25</timebase>
					</rate>
					<start>25638</start>
					<end>25663</end>
					<alignment>end</alignment>
					<effect>
						<name>Cross Fade (+3dB) Copy</name>
						<effecttype>transition</effecttype>
						<mediatype>audio</mediatype>
					</effect>
				</transitionitem>
				<clipitem id="msub200012-2408-k1d2-012 3">
					<name>msub200012-2408-k1d2-012</name>
					<duration>1623</duration>
					<rate>
						<ntsc>FALSE</ntsc>
						<timebase>25</timebase>
					</rate>
					<in>835</in>
					<out>1103</out>
					<start>-1</start>
					<end>-1</end>
					<subframeoffset>0</subframeoffset>
					<enabled>TRUE</enabled>
					<masterclipid>msub200012-2408-k1d2-012 1</masterclipid>
					<logginginfo>
						<description>msub200012-2408-k1d2-012</description>
						<scene/>
						<shottake/>
						<lognote/>
						<good>FALSE</good>
					</logginginfo>
					<labels>
						<label2/>
					</labels>
					<comments>
						<mastercomment1>RÃ…STOFF. BR_FINFREDAG_MSUA_OPRO</mastercomment1>
						<mastercomment2/>
						<mastercomment3/>
						<mastercomment4/>
					</comments>
					<file id="msub200012-2408-k1d2-012 2"/>
					<filter>
						<enabled>TRUE</enabled>
						<start>-1</start>
						<end>-1</end>
						<effect>
							<name>Compressor/Limiter</name>
							<effecttype>filter</effecttype>
							<mediatype>audio</mediatype>
							<parameter>
								<parameterid>Threshold(dB)</parameterid>
								<name>Threshold(dB)</name>
								<valuemin>-90</valuemin>
								<valuemax>0</valuemax>
								<value>-20</value>
							</parameter>
							<parameter>
								<parameterid>Ratio</parameterid>
								<name>Ratio</name>
								<valuemin>1</valuemin>
								<valuemax>100</valuemax>
								<value>2</value>
							</parameter>
							<parameter>
								<parameterid>Attack Time</parameterid>
								<name>Attack Time</name>
								<valuemin>1</valuemin>
								<valuemax>100</valuemax>
								<value>5</value>
							</parameter>
							<parameter>
								<parameterid>Release Time</parameterid>
								<name>Release Time</name>
								<valuemin>1</valuemin>
								<valuemax>4000</valuemax>
								<value>209</value>
							</parameter>
							<parameter>
								<parameterid>Preserve Volume</parameterid>
								<name>Preserve Volume</name>
								<value>TRUE</value>
							</parameter>
						</effect>
					</filter>
					<filter>
						<enabled>TRUE</enabled>
						<start>-1</start>
						<end>-1</end>
						<effect>
							<name>3 Band Equalizer - Mann</name>
							<effecttype>filter</effecttype>
							<mediatype>audio</mediatype>
							<parameter>
								<parameterid>Low Frequency</parameterid>
								<name>Low Frequency</name>
								<valuemin>80</valuemin>
								<valuemax>2000</valuemax>
								<value>100</value>
							</parameter>
							<parameter>
								<parameterid>Low Gain(dB)</parameterid>
								<name>Low Gain(dB)</name>
								<valuemin>-20</valuemin>
								<valuemax>20</valuemax>
								<value>-4</value>
							</parameter>
							<parameter>
								<parameterid>Mid Frequency</parameterid>
								<name>Mid Frequency</name>
								<valuemin>400</valuemin>
								<valuemax>8000</valuemax>
								<value>3828</value>
							</parameter>
							<parameter>
								<parameterid>Mid Gain(dB)</parameterid>
								<name>Mid Gain(dB)</name>
								<valuemin>-20</valuemin>
								<valuemax>20</valuemax>
								<value>3</value>
							</parameter>
							<parameter>
								<parameterid>High Frequency</parameterid>
								<name>High Frequency</name>
								<valuemin>5000</valuemin>
								<valuemax>20000</valuemax>
								<value>9400</value>
							</parameter>
							<parameter>
								<parameterid>High Gain(dB)</parameterid>
								<name>High Gain(dB)</name>
								<valuemin>-20</valuemin>
								<valuemax>20</valuemax>
								<value>5</value>
							</parameter>
						</effect>
					</filter>
					<filter>
						<effect>
							<name>Audio Levels</name>
							<effectid>audiolevels</effectid>
							<effectcategory>audiolevels</effectcategory>
							<effecttype>audiolevels</effecttype>
							<mediatype>audio</mediatype>
							<parameter>
								<name>Level</name>
								<parameterid>level</parameterid>
								<valuemin>0</valuemin>
								<valuemax>3.98109</valuemax>
								<keyframe>
									<when>863.429</when>
									<value>0.199526</value>
								</keyframe>
								<keyframe>
									<when>875.429</when>
									<value>0.398107</value>
								</keyframe>
								<interpolation>
									<name>FCPCurve</name>
								</interpolation>
								<value>0.199526</value>
							</parameter>
						</effect>
					</filter>
					<filter>
						<effect>
							<name>Audio Pan</name>
							<effectid>audiopan</effectid>
							<effectcategory>audiopan</effectcategory>
							<effecttype>audiopan</effecttype>
							<mediatype>audio</mediatype>
							<parameter>
								<name>Pan</name>
								<parameterid>pan</parameterid>
								<valuemin>-1</valuemin>
								<valuemax>1</valuemax>
								<value>-0.153846</value>
							</parameter>
						</effect>
					</filter>
					<sourcetrack>
						<mediatype>audio</mediatype>
						<trackindex>1</trackindex>
					</sourcetrack>
					<link>
						<linkclipref>msub200012-2408-k1d2-012 </linkclipref>
						<mediatype>video</mediatype>
						<trackindex>2</trackindex>
						<clipindex>35</clipindex>
					</link>
					<link>
						<linkclipref>msub200012-2408-k1d2-012 3</linkclipref>
						<mediatype>audio</mediatype>
						<trackindex>1</trackindex>
						<clipindex>100</clipindex>
					</link>
					<link>
						<linkclipref>msub200012-2408-k1d2-012 4</linkclipref>
						<mediatype>audio</mediatype>
						<trackindex>2</trackindex>
						<clipindex>107</clipindex>
					</link>
				</clipitem>
				<transitionitem id="38971976 ">
					<rate>
						<ntsc>FALSE</ntsc>
						<timebase>25</timebase>
					</rate>
					<start>25881</start>
					<end>25906</end>
					<alignment>end-black</alignment>
					<effect>
						<name>Cross Fade (+3dB) Copy</name>
						<effecttype>transition</effecttype>
						<mediatype>audio</mediatype>
					</effect>
				</transitionitem>
				<clipitem id="msub200012-3011-k1d2-007 6">
					<name>msub200012-3011-k1d2-007</name>
					<duration>5622</duration>
					<rate>
						<ntsc>FALSE</ntsc>
						<timebase>25</timebase>
					</rate>
					<in>1075</in>
					<out>1744</out>
					<start>25969</start>
					<end>-1</end>
					<subframeoffset>0</subframeoffset>
					<enabled>TRUE</enabled>
					<masterclipid>msub200012-3011-k1d2-007 1</masterclipid>
					<syncoffset>0</syncoffset>
					<logginginfo>
						<description>msub200012-3011-k1d2-007</description>
						<scene/>
						<shottake/>
						<lognote/>
						<good>FALSE</good>
					</logginginfo>
					<labels>
						<label>Interviews</label>
						<label2/>
					</labels>
					<comments>
						<mastercomment1>RÃ…STOFF. BR_FINFREDAG_MSUA_OPRO</mastercomment1>
						<mastercomment2/>
						<mastercomment3/>
						<mastercomment4/>
						<clipcommenta/>
					</comments>
					<file id="msub200012-3011-k1d2-007 2"/>
					<filter>
						<enabled>TRUE</enabled>
						<start>-1</start>
						<end>-1</end>
						<effect>
							<name>3 Band Equalizer - Kristine</name>
							<effecttype>filter</effecttype>
							<mediatype>audio</mediatype>
							<parameter>
								<parameterid>Low Frequency</parameterid>
								<name>Low Frequency</name>
								<valuemin>80</valuemin>
								<valuemax>2000</valuemax>
								<value>162</value>
							</parameter>
							<parameter>
								<parameterid>Low Gain(dB)</parameterid>
								<name>Low Gain(dB)</name>
								<valuemin>-20</valuemin>
								<valuemax>20</valuemax>
								<value>5</value>
							</parameter>
							<parameter>
								<parameterid>Mid Frequency</parameterid>
								<name>Mid Frequency</name>
								<valuemin>400</valuemin>
								<valuemax>8000</valuemax>
								<value>3602</value>
							</parameter>
							<parameter>
								<parameterid>Mid Gain(dB)</parameterid>
								<name>Mid Gain(dB)</name>
								<valuemin>-20</valuemin>
								<valuemax>20</valuemax>
								<value>-3</value>
							</parameter>
							<parameter>
								<parameterid>High Frequency</parameterid>
								<name>High Frequency</name>
								<valuemin>5000</valuemin>
								<valuemax>20000</valuemax>
								<value>10354</value>
							</parameter>
							<parameter>
								<parameterid>High Gain(dB)</parameterid>
								<name>High Gain(dB)</name>
								<valuemin>-20</valuemin>
								<valuemax>20</valuemax>
								<value>0</value>
							</parameter>
						</effect>
					</filter>
					<filter>
						<enabled>TRUE</enabled>
						<start>-1</start>
						<end>-1</end>
						<effect>
							<name>Compressor/Limiter</name>
							<effecttype>filter</effecttype>
							<mediatype>audio</mediatype>
							<parameter>
								<parameterid>Threshold(dB)</parameterid>
								<name>Threshold(dB)</name>
								<valuemin>-90</valuemin>
								<valuemax>0</valuemax>
								<value>-20</value>
							</parameter>
							<parameter>
								<parameterid>Ratio</parameterid>
								<name>Ratio</name>
								<valuemin>1</valuemin>
								<valuemax>100</valuemax>
								<value>2</value>
							</parameter>
							<parameter>
								<parameterid>Attack Time</parameterid>
								<name>Attack Time</name>
								<valuemin>1</valuemin>
								<valuemax>100</valuemax>
								<value>5</value>
							</parameter>
							<parameter>
								<parameterid>Release Time</parameterid>
								<name>Release Time</name>
								<valuemin>1</valuemin>
								<valuemax>4000</valuemax>
								<value>209</value>
							</parameter>
							<parameter>
								<parameterid>Preserve Volume</parameterid>
								<name>Preserve Volume</name>
								<value>TRUE</value>
							</parameter>
						</effect>
					</filter>
					<filter>
						<effect>
							<name>Audio Levels</name>
							<effectid>audiolevels</effectid>
							<effectcategory>audiolevels</effectcategory>
							<effecttype>audiolevels</effecttype>
							<mediatype>audio</mediatype>
							<parameter>
								<name>Level</name>
								<parameterid>level</parameterid>
								<valuemin>0</valuemin>
								<valuemax>3.98109</valuemax>
								<keyframe>
									<when>1102.29</when>
									<value>1.41254</value>
								</keyframe>
								<keyframe>
									<when>1108.57</when>
									<value>1.25893</value>
								</keyframe>
								<keyframe>
									<when>1184.57</when>
									<value>1.12202</value>
								</keyframe>
								<keyframe>
									<when>1192.57</when>
									<value>1.77828</value>
								</keyframe>
								<keyframe>
									<when>1224</when>
									<value>1.77828</value>
								</keyframe>
								<keyframe>
									<when>1228.57</when>
									<value>0.0891251</value>
								</keyframe>
								<keyframe>
									<when>1249.68</when>
									<value>0.0891251</value>
								</keyframe>
								<keyframe>
									<when>1259.59</when>
									<value>1</value>
								</keyframe>
								<keyframe>
									<when>1329.5</when>
									<value>1</value>
								</keyframe>
								<keyframe>
									<when>1338.07</when>
									<value>1.41254</value>
								</keyframe>
								<keyframe>
									<when>1449.5</when>
									<value>1.41254</value>
								</keyframe>
								<keyframe>
									<when>1456.2</when>
									<value>1</value>
								</keyframe>
								<keyframe>
									<when>1521.29</when>
									<value>1</value>
								</keyframe>
								<keyframe>
									<when>1525.57</when>
									<value>1.41254</value>
								</keyframe>
								<keyframe>
									<when>1558.25</when>
									<value>1.41254</value>
								</keyframe>
								<keyframe>
									<when>1565.21</when>
									<value>0.251189</value>
								</keyframe>
								<keyframe>
									<when>1659.5</when>
									<value>0.251189</value>
								</keyframe>
								<keyframe>
									<when>1666.46</when>
									<value>1.41254</value>
								</keyframe>
								<keyframe>
									<when>1699.81</when>
									<value>1</value>
								</keyframe>
								<keyframe>
									<when>1707.18</when>
									<value>0</value>
								</keyframe>
								<interpolation>
									<name>FCPCurve</name>
								</interpolation>
								<value>1.77828</value>
							</parameter>
						</effect>
					</filter>
					<filter>
						<effect>
							<name>Audio Pan</name>
							<effectid>audiopan</effectid>
							<effectcategory>audiopan</effectcategory>
							<effecttype>audiopan</effecttype>
							<mediatype>audio</mediatype>
							<parameter>
								<name>Pan</name>
								<parameterid>pan</parameterid>
								<valuemin>-1</valuemin>
								<valuemax>1</valuemax>
								<value>0</value>
							</parameter>
						</effect>
					</filter>
					<sourcetrack>
						<mediatype>audio</mediatype>
						<trackindex>1</trackindex>
					</sourcetrack>
					<link>
						<linkclipref>msub200012-3011-k1d2-007 5</linkclipref>
						<mediatype>video</mediatype>
						<trackindex>1</trackindex>
						<clipindex>107</clipindex>
					</link>
					<link>
						<linkclipref>msub200012-3011-k1d2-007 6</linkclipref>
						<mediatype>audio</mediatype>
						<trackindex>1</trackindex>
						<clipindex>102</clipindex>
					</link>
					<link>
						<linkclipref>msub200012-3011-k1d2-007 7</linkclipref>
						<mediatype>audio</mediatype>
						<trackindex>2</trackindex>
						<clipindex>109</clipindex>
					</link>
				</clipitem>
				<transitionitem id="38976872 ">
					<rate>
						<ntsc>FALSE</ntsc>
						<timebase>25</timebase>
					</rate>
					<start>26636</start>
					<end>26638</end>
					<alignment>center</alignment>
					<effect>
						<name>Cross Fade (+3dB) Copy</name>
						<effecttype>transition</effecttype>
						<mediatype>audio</mediatype>
					</effect>
				</transitionitem>
				<clipitem id="msub200012-3011-k1d2-007 10">
					<name>msub200012-3011-k1d2-007</name>
					<duration>5622</duration>
					<rate>
						<ntsc>FALSE</ntsc>
						<timebase>25</timebase>
					</rate>
					<in>2075</in>
					<out>2208</out>
					<start>-1</start>
					<end>-1</end>
					<subframeoffset>0</subframeoffset>
					<enabled>TRUE</enabled>
					<masterclipid>msub200012-3011-k1d2-007 1</masterclipid>
					<syncoffset>0</syncoffset>
					<logginginfo>
						<description>msub200012-3011-k1d2-007</description>
						<scene/>
						<shottake/>
						<lognote/>
						<good>FALSE</good>
					</logginginfo>
					<labels>
						<label>Interviews</label>
						<label2/>
					</labels>
					<comments>
						<mastercomment1>RÃ…STOFF. BR_FINFREDAG_MSUA_OPRO</mastercomment1>
						<mastercomment2/>
						<mastercomment3/>
						<mastercomment4/>
						<clipcommenta/>
					</comments>
					<file id="msub200012-3011-k1d2-007 2"/>
					<filter>
						<enabled>TRUE</enabled>
						<start>-1</start>
						<end>-1</end>
						<effect>
							<name>3 Band Equalizer - Kristine</name>
							<effecttype>filter</effecttype>
							<mediatype>audio</mediatype>
							<parameter>
								<parameterid>Low Frequency</parameterid>
								<name>Low Frequency</name>
								<valuemin>80</valuemin>
								<valuemax>2000</valuemax>
								<value>162</value>
							</parameter>
							<parameter>
								<parameterid>Low Gain(dB)</parameterid>
								<name>Low Gain(dB)</name>
								<valuemin>-20</valuemin>
								<valuemax>20</valuemax>
								<value>5</value>
							</parameter>
							<parameter>
								<parameterid>Mid Frequency</parameterid>
								<name>Mid Frequency</name>
								<valuemin>400</valuemin>
								<valuemax>8000</valuemax>
								<value>3602</value>
							</parameter>
							<parameter>
								<parameterid>Mid Gain(dB)</parameterid>
								<name>Mid Gain(dB)</name>
								<valuemin>-20</valuemin>
								<valuemax>20</valuemax>
								<value>-3</value>
							</parameter>
							<parameter>
								<parameterid>High Frequency</parameterid>
								<name>High Frequency</name>
								<valuemin>5000</valuemin>
								<valuemax>20000</valuemax>
								<value>10354</value>
							</parameter>
							<parameter>
								<parameterid>High Gain(dB)</parameterid>
								<name>High Gain(dB)</name>
								<valuemin>-20</valuemin>
								<valuemax>20</valuemax>
								<value>0</value>
							</parameter>
						</effect>
					</filter>
					<filter>
						<enabled>TRUE</enabled>
						<start>-1</start>
						<end>-1</end>
						<effect>
							<name>Compressor/Limiter</name>
							<effecttype>filter</effecttype>
							<mediatype>audio</mediatype>
							<parameter>
								<parameterid>Threshold(dB)</parameterid>
								<name>Threshold(dB)</name>
								<valuemin>-90</valuemin>
								<valuemax>0</valuemax>
								<value>-20</value>
							</parameter>
							<parameter>
								<parameterid>Ratio</parameterid>
								<name>Ratio</name>
								<valuemin>1</valuemin>
								<valuemax>100</valuemax>
								<value>2</value>
							</parameter>
							<parameter>
								<parameterid>Attack Time</parameterid>
								<name>Attack Time</name>
								<valuemin>1</valuemin>
								<valuemax>100</valuemax>
								<value>5</value>
							</parameter>
							<parameter>
								<parameterid>Release Time</parameterid>
								<name>Release Time</name>
								<valuemin>1</valuemin>
								<valuemax>4000</valuemax>
								<value>209</value>
							</parameter>
							<parameter>
								<parameterid>Preserve Volume</parameterid>
								<name>Preserve Volume</name>
								<value>TRUE</value>
							</parameter>
						</effect>
					</filter>
					<filter>
						<effect>
							<name>Audio Levels</name>
							<effectid>audiolevels</effectid>
							<effectcategory>audiolevels</effectcategory>
							<effecttype>audiolevels</effecttype>
							<mediatype>audio</mediatype>
							<parameter>
								<name>Level</name>
								<parameterid>level</parameterid>
								<valuemin>0</valuemin>
								<valuemax>3.98109</valuemax>
								<keyframe>
									<when>2144.91</when>
									<value>1.12202</value>
								</keyframe>
								<keyframe>
									<when>2150.67</when>
									<value>0.0630957</value>
								</keyframe>
								<keyframe>
									<when>2190.18</when>
									<value>0.0630957</value>
								</keyframe>
								<keyframe>
									<when>2192.46</when>
									<value>1.58489</value>
								</keyframe>
								<interpolation>
									<name>FCPCurve</name>
								</interpolation>
								<value>1.12202</value>
							</parameter>
						</effect>
					</filter>
					<filter>
						<effect>
							<name>Audio Pan</name>
							<effectid>audiopan</effectid>
							<effectcategory>audiopan</effectcategory>
							<effecttype>audiopan</effecttype>
							<mediatype>audio</mediatype>
							<parameter>
								<name>Pan</name>
								<parameterid>pan</parameterid>
								<valuemin>-1</valuemin>
								<valuemax>1</valuemax>
								<value>0</value>
							</parameter>
						</effect>
					</filter>
					<sourcetrack>
						<mediatype>audio</mediatype>
						<trackindex>1</trackindex>
					</sourcetrack>
					<link>
						<linkclipref>msub200012-3011-k1d2-007 9</linkclipref>
						<mediatype>video</mediatype>
						<trackindex>1</trackindex>
						<clipindex>111</clipindex>
					</link>
					<link>
						<linkclipref>msub200012-3011-k1d2-007 10</linkclipref>
						<mediatype>audio</mediatype>
						<trackindex>1</trackindex>
						<clipindex>104</clipindex>
					</link>
					<link>
						<linkclipref>msub200012-3011-k1d2-007 11</linkclipref>
						<mediatype>audio</mediatype>
						<trackindex>2</trackindex>
						<clipindex>111</clipindex>
					</link>
				</clipitem>
				<transitionitem id="38980680 ">
					<rate>
						<ntsc>FALSE</ntsc>
						<timebase>25</timebase>
					</rate>
					<start>26763</start>
					<end>26769</end>
					<alignment>center</alignment>
					<effect>
						<name>Cross Fade (+3dB) Copy</name>
						<effecttype>transition</effecttype>
						<mediatype>audio</mediatype>
					</effect>
				</transitionitem>
				<clipitem id="msub200012-3011-k1d2-007 13">
					<name>msub200012-3011-k1d2-007</name>
					<duration>5622</duration>
					<rate>
						<ntsc>FALSE</ntsc>
						<timebase>25</timebase>
					</rate>
					<in>2445</in>
					<out>3068</out>
					<start>-1</start>
					<end>-1</end>
					<subframeoffset>0</subframeoffset>
					<masterclipid>msub200012-3011-k1d2-007 1</masterclipid>
					<syncoffset>0</syncoffset>
					<logginginfo>
						<description>msub200012-3011-k1d2-007</description>
						<scene/>
						<shottake/>
						<lognote/>
						<good>FALSE</good>
					</logginginfo>
					<labels>
						<label>Interviews</label>
						<label2/>
					</labels>
					<comments>
						<mastercomment1>RÃ…STOFF. BR_FINFREDAG_MSUA_OPRO</mastercomment1>
						<mastercomment2/>
						<mastercomment3/>
						<mastercomment4/>
						<clipcommenta/>
					</comments>
					<file id="msub200012-3011-k1d2-007 2"/>
					<filter>
						<enabled>TRUE</enabled>
						<start>-1</start>
						<end>-1</end>
						<effect>
							<name>3 Band Equalizer - Kristine</name>
							<effecttype>filter</effecttype>
							<mediatype>audio</mediatype>
							<parameter>
								<parameterid>Low Frequency</parameterid>
								<name>Low Frequency</name>
								<valuemin>80</valuemin>
								<valuemax>2000</valuemax>
								<value>162</value>
							</parameter>
							<parameter>
								<parameterid>Low Gain(dB)</parameterid>
								<name>Low Gain(dB)</name>
								<valuemin>-20</valuemin>
								<valuemax>20</valuemax>
								<value>5</value>
							</parameter>
							<parameter>
								<parameterid>Mid Frequency</parameterid>
								<name>Mid Frequency</name>
								<valuemin>400</valuemin>
								<valuemax>8000</valuemax>
								<value>3602</value>
							</parameter>
							<parameter>
								<parameterid>Mid Gain(dB)</parameterid>
								<name>Mid Gain(dB)</name>
								<valuemin>-20</valuemin>
								<valuemax>20</valuemax>
								<value>-3</value>
							</parameter>
							<parameter>
								<parameterid>High Frequency</parameterid>
								<name>High Frequency</name>
								<valuemin>5000</valuemin>
								<valuemax>20000</valuemax>
								<value>10354</value>
							</parameter>
							<parameter>
								<parameterid>High Gain(dB)</parameterid>
								<name>High Gain(dB)</name>
								<valuemin>-20</valuemin>
								<valuemax>20</valuemax>
								<value>0</value>
							</parameter>
						</effect>
					</filter>
					<filter>
						<enabled>TRUE</enabled>
						<start>-1</start>
						<end>-1</end>
						<effect>
							<name>Compressor/Limiter</name>
							<effecttype>filter</effecttype>
							<mediatype>audio</mediatype>
							<parameter>
								<parameterid>Threshold(dB)</parameterid>
								<name>Threshold(dB)</name>
								<valuemin>-90</valuemin>
								<valuemax>0</valuemax>
								<value>-20</value>
							</parameter>
							<parameter>
								<parameterid>Ratio</parameterid>
								<name>Ratio</name>
								<valuemin>1</valuemin>
								<valuemax>100</valuemax>
								<value>2</value>
							</parameter>
							<parameter>
								<parameterid>Attack Time</parameterid>
								<name>Attack Time</name>
								<valuemin>1</valuemin>
								<valuemax>100</valuemax>
								<value>5</value>
							</parameter>
							<parameter>
								<parameterid>Release Time</parameterid>
								<name>Release Time</name>
								<valuemin>1</valuemin>
								<valuemax>4000</valuemax>
								<value>209</value>
							</parameter>
							<parameter>
								<parameterid>Preserve Volume</parameterid>
								<name>Preserve Volume</name>
								<value>TRUE</value>
							</parameter>
						</effect>
					</filter>
					<filter>
						<effect>
							<name>Audio Levels</name>
							<effectid>audiolevels</effectid>
							<effectcategory>audiolevels</effectcategory>
							<effecttype>audiolevels</effecttype>
							<mediatype>audio</mediatype>
							<parameter>
								<name>Level</name>
								<parameterid>level</parameterid>
								<valuemin>0</valuemin>
								<valuemax>3.98109</valuemax>
								<keyframe>
									<when>2529.07</when>
									<value>3.98107</value>
								</keyframe>
								<keyframe>
									<when>2534.7</when>
									<value>3.16228</value>
								</keyframe>
								<keyframe>
									<when>2545.14</when>
									<value>3.16228</value>
								</keyframe>
								<keyframe>
									<when>2549.43</when>
									<value>1</value>
								</keyframe>
								<keyframe>
									<when>2595</when>
									<value>1</value>
								</keyframe>
								<keyframe>
									<when>2607.96</when>
									<value>3.16228</value>
								</keyframe>
								<keyframe>
									<when>2626.57</when>
									<value>3.16228</value>
								</keyframe>
								<keyframe>
									<when>2628.31</when>
									<value>1</value>
								</keyframe>
								<keyframe>
									<when>2676.53</when>
									<value>1</value>
								</keyframe>
								<keyframe>
									<when>2685.77</when>
									<value>3.98107</value>
								</keyframe>
								<keyframe>
									<when>2701.3</when>
									<value>3.98107</value>
								</keyframe>
								<keyframe>
									<when>2703.58</when>
									<value>1</value>
								</keyframe>
								<keyframe>
									<when>2746.84</when>
									<value>1</value>
								</keyframe>
								<keyframe>
									<when>2754.07</when>
									<value>3.98107</value>
								</keyframe>
								<keyframe>
									<when>2773.62</when>
									<value>3.98107</value>
								</keyframe>
								<keyframe>
									<when>2776.57</when>
									<value>1</value>
								</keyframe>
								<keyframe>
									<when>2841.39</when>
									<value>1</value>
								</keyframe>
								<keyframe>
									<when>2847.02</when>
									<value>3.16529</value>
								</keyframe>
								<keyframe>
									<when>2861.48</when>
									<value>2.93513</value>
								</keyframe>
								<keyframe>
									<when>2864.43</when>
									<value>1</value>
								</keyframe>
								<keyframe>
									<when>3025.41</when>
									<value>1.25893</value>
								</keyframe>
								<keyframe>
									<when>3032.11</when>
									<value>3.98107</value>
								</keyframe>
								<interpolation>
									<name>FCPCurve</name>
								</interpolation>
								<value>1</value>
							</parameter>
						</effect>
					</filter>
					<filter>
						<effect>
							<name>Audio Pan</name>
							<effectid>audiopan</effectid>
							<effectcategory>audiopan</effectcategory>
							<effecttype>audiopan</effecttype>
							<mediatype>audio</mediatype>
							<parameter>
								<name>Pan</name>
								<parameterid>pan</parameterid>
								<valuemin>-1</valuemin>
								<valuemax>1</valuemax>
								<value>0</value>
							</parameter>
						</effect>
					</filter>
					<sourcetrack>
						<mediatype>audio</mediatype>
						<trackindex>1</trackindex>
					</sourcetrack>
					<link>
						<linkclipref>msub200012-3011-k1d2-007 12</linkclipref>
						<mediatype>video</mediatype>
						<trackindex>1</trackindex>
						<clipindex>113</clipindex>
					</link>
					<link>
						<linkclipref>msub200012-3011-k1d2-007 13</linkclipref>
						<mediatype>audio</mediatype>
						<trackindex>1</trackindex>
						<clipindex>106</clipindex>
					</link>
					<link>
						<linkclipref>msub200012-3011-k1d2-007 14</linkclipref>
						<mediatype>audio</mediatype>
						<trackindex>2</trackindex>
						<clipindex>113</clipindex>
					</link>
				</clipitem>
				<transitionitem id="38985644 ">
					<rate>
						<ntsc>FALSE</ntsc>
						<timebase>25</timebase>
					</rate>
					<start>27382</start>
					<end>27386</end>
					<alignment>center</alignment>
					<effect>
						<name>Cross Fade (+3dB) Copy</name>
						<effecttype>transition</effecttype>
						<mediatype>audio</mediatype>
					</effect>
				</transitionitem>
				<clipitem id="msub200012-3011-k1d2-007 18">
					<name>msub200012-3011-k1d2-007</name>
					<duration>5622</duration>
					<rate>
						<ntsc>FALSE</ntsc>
						<timebase>25</timebase>
					</rate>
					<in>3513</in>
					<out>3768</out>
					<start>-1</start>
					<end>-1</end>
					<subframeoffset>0</subframeoffset>
					<enabled>TRUE</enabled>
					<masterclipid>msub200012-3011-k1d2-007 1</masterclipid>
					<syncoffset>0</syncoffset>
					<logginginfo>
						<description>msub200012-3011-k1d2-007</description>
						<scene/>
						<shottake/>
						<lognote/>
						<good>FALSE</good>
					</logginginfo>
					<labels>
						<label>Interviews</label>
						<label2/>
					</labels>
					<comments>
						<mastercomment1>RÃ…STOFF. BR_FINFREDAG_MSUA_OPRO</mastercomment1>
						<mastercomment2/>
						<mastercomment3/>
						<mastercomment4/>
						<clipcommenta/>
					</comments>
					<file id="msub200012-3011-k1d2-007 2"/>
					<filter>
						<enabled>TRUE</enabled>
						<start>-1</start>
						<end>-1</end>
						<effect>
							<name>3 Band Equalizer - Kristine</name>
							<effecttype>filter</effecttype>
							<mediatype>audio</mediatype>
							<parameter>
								<parameterid>Low Frequency</parameterid>
								<name>Low Frequency</name>
								<valuemin>80</valuemin>
								<valuemax>2000</valuemax>
								<value>162</value>
							</parameter>
							<parameter>
								<parameterid>Low Gain(dB)</parameterid>
								<name>Low Gain(dB)</name>
								<valuemin>-20</valuemin>
								<valuemax>20</valuemax>
								<value>5</value>
							</parameter>
							<parameter>
								<parameterid>Mid Frequency</parameterid>
								<name>Mid Frequency</name>
								<valuemin>400</valuemin>
								<valuemax>8000</valuemax>
								<value>3602</value>
							</parameter>
							<parameter>
								<parameterid>Mid Gain(dB)</parameterid>
								<name>Mid Gain(dB)</name>
								<valuemin>-20</valuemin>
								<valuemax>20</valuemax>
								<value>-3</value>
							</parameter>
							<parameter>
								<parameterid>High Frequency</parameterid>
								<name>High Frequency</name>
								<valuemin>5000</valuemin>
								<valuemax>20000</valuemax>
								<value>10354</value>
							</parameter>
							<parameter>
								<parameterid>High Gain(dB)</parameterid>
								<name>High Gain(dB)</name>
								<valuemin>-20</valuemin>
								<valuemax>20</valuemax>
								<value>0</value>
							</parameter>
						</effect>
					</filter>
					<filter>
						<enabled>TRUE</enabled>
						<start>-1</start>
						<end>-1</end>
						<effect>
							<name>Compressor/Limiter</name>
							<effecttype>filter</effecttype>
							<mediatype>audio</mediatype>
							<parameter>
								<parameterid>Threshold(dB)</parameterid>
								<name>Threshold(dB)</name>
								<valuemin>-90</valuemin>
								<valuemax>0</valuemax>
								<value>-20</value>
							</parameter>
							<parameter>
								<parameterid>Ratio</parameterid>
								<name>Ratio</name>
								<valuemin>1</valuemin>
								<valuemax>100</valuemax>
								<value>2</value>
							</parameter>
							<parameter>
								<parameterid>Attack Time</parameterid>
								<name>Attack Time</name>
								<valuemin>1</valuemin>
								<valuemax>100</valuemax>
								<value>5</value>
							</parameter>
							<parameter>
								<parameterid>Release Time</parameterid>
								<name>Release Time</name>
								<valuemin>1</valuemin>
								<valuemax>4000</valuemax>
								<value>209</value>
							</parameter>
							<parameter>
								<parameterid>Preserve Volume</parameterid>
								<name>Preserve Volume</name>
								<value>TRUE</value>
							</parameter>
						</effect>
					</filter>
					<filter>
						<effect>
							<name>Audio Levels</name>
							<effectid>audiolevels</effectid>
							<effectcategory>audiolevels</effectcategory>
							<effecttype>audiolevels</effecttype>
							<mediatype>audio</mediatype>
							<parameter>
								<name>Level</name>
								<parameterid>level</parameterid>
								<valuemin>0</valuemin>
								<valuemax>3.98109</valuemax>
								<keyframe>
									<when>3694.32</when>
									<value>0.0891251</value>
								</keyframe>
								<keyframe>
									<when>3710.39</when>
									<value>1.25893</value>
								</keyframe>
								<interpolation>
									<name>FCPCurve</name>
								</interpolation>
								<value>1.25893</value>
							</parameter>
						</effect>
					</filter>
					<filter>
						<effect>
							<name>Audio Pan</name>
							<effectid>audiopan</effectid>
							<effectcategory>audiopan</effectcategory>
							<effecttype>audiopan</effecttype>
							<mediatype>audio</mediatype>
							<parameter>
								<name>Pan</name>
								<parameterid>pan</parameterid>
								<valuemin>-1</valuemin>
								<valuemax>1</valuemax>
								<value>0</value>
							</parameter>
						</effect>
					</filter>
					<sourcetrack>
						<mediatype>audio</mediatype>
						<trackindex>1</trackindex>
					</sourcetrack>
					<link>
						<linkclipref>msub200012-3011-k1d2-007 18</linkclipref>
						<mediatype>audio</mediatype>
						<trackindex>1</trackindex>
						<clipindex>108</clipindex>
					</link>
					<link>
						<linkclipref>msub200012-3011-k1d2-007 19</linkclipref>
						<mediatype>audio</mediatype>
						<trackindex>2</trackindex>
						<clipindex>115</clipindex>
					</link>
				</clipitem>
				<transitionitem id="38989316 ">
					<rate>
						<ntsc>FALSE</ntsc>
						<timebase>25</timebase>
					</rate>
					<start>27633</start>
					<end>27637</end>
					<alignment>center</alignment>
					<effect>
						<name>Cross Fade (+3dB) Copy</name>
						<effecttype>transition</effecttype>
						<mediatype>audio</mediatype>
					</effect>
				</transitionitem>
				<clipitem id="msub200012-3011-k1d2-007 20">
					<name>msub200012-3011-k1d2-007</name>
					<duration>5622</duration>
					<rate>
						<ntsc>FALSE</ntsc>
						<timebase>25</timebase>
					</rate>
					<in>4383</in>
					<out>5080</out>
					<start>-1</start>
					<end>28330</end>
					<subframeoffset>0</subframeoffset>
					<masterclipid>msub200012-3011-k1d2-007 1</masterclipid>
					<syncoffset>0</syncoffset>
					<logginginfo>
						<description>msub200012-3011-k1d2-007</description>
						<scene/>
						<shottake/>
						<lognote/>
						<good>FALSE</good>
					</logginginfo>
					<labels>
						<label>Interviews</label>
						<label2/>
					</labels>
					<comments>
						<mastercomment1>RÃ…STOFF. BR_FINFREDAG_MSUA_OPRO</mastercomment1>
						<mastercomment2/>
						<mastercomment3/>
						<mastercomment4/>
						<clipcommenta/>
					</comments>
					<file id="msub200012-3011-k1d2-007 2"/>
					<filter>
						<enabled>TRUE</enabled>
						<start>-1</start>
						<end>-1</end>
						<effect>
							<name>3 Band Equalizer - Kristine</name>
							<effecttype>filter</effecttype>
							<mediatype>audio</mediatype>
							<parameter>
								<parameterid>Low Frequency</parameterid>
								<name>Low Frequency</name>
								<valuemin>80</valuemin>
								<valuemax>2000</valuemax>
								<value>162</value>
							</parameter>
							<parameter>
								<parameterid>Low Gain(dB)</parameterid>
								<name>Low Gain(dB)</name>
								<valuemin>-20</valuemin>
								<valuemax>20</valuemax>
								<value>5</value>
							</parameter>
							<parameter>
								<parameterid>Mid Frequency</parameterid>
								<name>Mid Frequency</name>
								<valuemin>400</valuemin>
								<valuemax>8000</valuemax>
								<value>3602</value>
							</parameter>
							<parameter>
								<parameterid>Mid Gain(dB)</parameterid>
								<name>Mid Gain(dB)</name>
								<valuemin>-20</valuemin>
								<valuemax>20</valuemax>
								<value>-3</value>
							</parameter>
							<parameter>
								<parameterid>High Frequency</parameterid>
								<name>High Frequency</name>
								<valuemin>5000</valuemin>
								<valuemax>20000</valuemax>
								<value>10354</value>
							</parameter>
							<parameter>
								<parameterid>High Gain(dB)</parameterid>
								<name>High Gain(dB)</name>
								<valuemin>-20</valuemin>
								<valuemax>20</valuemax>
								<value>0</value>
							</parameter>
						</effect>
					</filter>
					<filter>
						<enabled>TRUE</enabled>
						<start>-1</start>
						<end>-1</end>
						<effect>
							<name>Compressor/Limiter</name>
							<effecttype>filter</effecttype>
							<mediatype>audio</mediatype>
							<parameter>
								<parameterid>Threshold(dB)</parameterid>
								<name>Threshold(dB)</name>
								<valuemin>-90</valuemin>
								<valuemax>0</valuemax>
								<value>-20</value>
							</parameter>
							<parameter>
								<parameterid>Ratio</parameterid>
								<name>Ratio</name>
								<valuemin>1</valuemin>
								<valuemax>100</valuemax>
								<value>2</value>
							</parameter>
							<parameter>
								<parameterid>Attack Time</parameterid>
								<name>Attack Time</name>
								<valuemin>1</valuemin>
								<valuemax>100</valuemax>
								<value>5</value>
							</parameter>
							<parameter>
								<parameterid>Release Time</parameterid>
								<name>Release Time</name>
								<valuemin>1</valuemin>
								<valuemax>4000</valuemax>
								<value>209</value>
							</parameter>
							<parameter>
								<parameterid>Preserve Volume</parameterid>
								<name>Preserve Volume</name>
								<value>TRUE</value>
							</parameter>
						</effect>
					</filter>
					<filter>
						<effect>
							<name>Audio Levels</name>
							<effectid>audiolevels</effectid>
							<effectcategory>audiolevels</effectcategory>
							<effecttype>audiolevels</effecttype>
							<mediatype>audio</mediatype>
							<parameter>
								<name>Level</name>
								<parameterid>level</parameterid>
								<valuemin>0</valuemin>
								<valuemax>3.98109</valuemax>
								<keyframe>
									<when>4423.75</when>
									<value>1</value>
								</keyframe>
								<keyframe>
									<when>4427.25</when>
									<value>2.23872</value>
								</keyframe>
								<keyframe>
									<when>4436.5</when>
									<value>2.23872</value>
								</keyframe>
								<keyframe>
									<when>4439</when>
									<value>1</value>
								</keyframe>
								<keyframe>
									<when>4513</when>
									<value>1</value>
								</keyframe>
								<keyframe>
									<when>4515</when>
									<value>1.99526</value>
								</keyframe>
								<keyframe>
									<when>4526.75</when>
									<value>1.99526</value>
								</keyframe>
								<keyframe>
									<when>4528.38</when>
									<value>1</value>
								</keyframe>
								<keyframe>
									<when>4572.5</when>
									<value>1</value>
								</keyframe>
								<keyframe>
									<when>4577.25</when>
									<value>1.99526</value>
								</keyframe>
								<keyframe>
									<when>4594.81</when>
									<value>1.99526</value>
								</keyframe>
								<keyframe>
									<when>4595.56</when>
									<value>1.25893</value>
								</keyframe>
								<keyframe>
									<when>4597.62</when>
									<value>1.25893</value>
								</keyframe>
								<keyframe>
									<when>4598.38</when>
									<value>1.99526</value>
								</keyframe>
								<keyframe>
									<when>4609.25</when>
									<value>1.99526</value>
								</keyframe>
								<keyframe>
									<when>4611.62</when>
									<value>1.12202</value>
								</keyframe>
								<keyframe>
									<when>4680.75</when>
									<value>1.12202</value>
								</keyframe>
								<keyframe>
									<when>4685.62</when>
									<value>1.77828</value>
								</keyframe>
								<keyframe>
									<when>4692.5</when>
									<value>1.77828</value>
								</keyframe>
								<keyframe>
									<when>4695.5</when>
									<value>1</value>
								</keyframe>
								<keyframe>
									<when>4721.75</when>
									<value>1</value>
								</keyframe>
								<keyframe>
									<when>4724.25</when>
									<value>1.25893</value>
								</keyframe>
								<keyframe>
									<when>4757</when>
									<value>1.25893</value>
								</keyframe>
								<keyframe>
									<when>4763.5</when>
									<value>1</value>
								</keyframe>
								<keyframe>
									<when>4770.75</when>
									<value>2.51189</value>
								</keyframe>
								<keyframe>
									<when>4815.75</when>
									<value>2.51189</value>
								</keyframe>
								<keyframe>
									<when>4817.25</when>
									<value>1.58489</value>
								</keyframe>
								<keyframe>
									<when>4861</when>
									<value>1.58489</value>
								</keyframe>
								<keyframe>
									<when>4868</when>
									<value>2.51189</value>
								</keyframe>
								<keyframe>
									<when>4887</when>
									<value>2.51189</value>
								</keyframe>
								<keyframe>
									<when>4890.75</when>
									<value>1.58489</value>
								</keyframe>
								<keyframe>
									<when>4898.5</when>
									<value>1.77828</value>
								</keyframe>
								<keyframe>
									<when>4900.75</when>
									<value>1.58489</value>
								</keyframe>
								<keyframe>
									<when>4907.5</when>
									<value>1.58489</value>
								</keyframe>
								<keyframe>
									<when>4912.25</when>
									<value>1</value>
								</keyframe>
								<keyframe>
									<when>4951.38</when>
									<value>1</value>
								</keyframe>
								<keyframe>
									<when>4955.38</when>
									<value>1.25893</value>
								</keyframe>
								<keyframe>
									<when>4967.38</when>
									<value>1.25893</value>
								</keyframe>
								<keyframe>
									<when>4969.25</when>
									<value>1.99526</value>
								</keyframe>
								<keyframe>
									<when>4979.12</when>
									<value>1.99526</value>
								</keyframe>
								<keyframe>
									<when>4982.25</when>
									<value>1</value>
								</keyframe>
								<keyframe>
									<when>5010.5</when>
									<value>1</value>
								</keyframe>
								<keyframe>
									<when>5012</when>
									<value>1.77828</value>
								</keyframe>
								<keyframe>
									<when>5023.38</when>
									<value>1.77828</value>
								</keyframe>
								<keyframe>
									<when>5025.25</when>
									<value>1</value>
								</keyframe>
								<keyframe>
									<when>5067</when>
									<value>1</value>
								</keyframe>
								<keyframe>
									<when>5071.75</when>
									<value>0.707946</value>
								</keyframe>
								<interpolation>
									<name>FCPCurve</name>
								</interpolation>
								<value>1</value>
							</parameter>
						</effect>
					</filter>
					<filter>
						<effect>
							<name>Audio Pan</name>
							<effectid>audiopan</effectid>
							<effectcategory>audiopan</effectcategory>
							<effecttype>audiopan</effecttype>
							<mediatype>audio</mediatype>
							<parameter>
								<name>Pan</name>
								<parameterid>pan</parameterid>
								<valuemin>-1</valuemin>
								<valuemax>1</valuemax>
								<value>0</value>
							</parameter>
						</effect>
					</filter>
					<sourcetrack>
						<mediatype>audio</mediatype>
						<trackindex>1</trackindex>
					</sourcetrack>
					<link>
						<linkclipref>msub200012-3011-k1d2-007 20</linkclipref>
						<mediatype>audio</mediatype>
						<trackindex>1</trackindex>
						<clipindex>110</clipindex>
					</link>
					<link>
						<linkclipref>msub200012-3011-k1d2-007 21</linkclipref>
						<mediatype>audio</mediatype>
						<trackindex>2</trackindex>
						<clipindex>117</clipindex>
					</link>
				</clipitem>
				<clipitem id="msub200012-3011-k1d2-008 9">
					<name>msub200012-3011-k1d2-008</name>
					<duration>9650</duration>
					<rate>
						<ntsc>FALSE</ntsc>
						<timebase>25</timebase>
					</rate>
					<in>214</in>
					<out>399</out>
					<start>28765</start>
					<end>-1</end>
					<subframeoffset>0</subframeoffset>
					<enabled>TRUE</enabled>
					<masterclipid>msub200012-3011-k1d2-008 1</masterclipid>
					<syncoffset>0</syncoffset>
					<logginginfo>
						<description>msub200012-3011-k1d2-008</description>
						<scene/>
						<shottake/>
						<lognote/>
						<good>FALSE</good>
					</logginginfo>
					<labels>
						<label>Good Take</label>
						<label2/>
					</labels>
					<comments>
						<mastercomment1>RÃ…STOFF. BR_FINFREDAG_MSUA_OPRO</mastercomment1>
						<mastercomment2/>
						<mastercomment3/>
						<mastercomment4/>
						<clipcommenta/>
					</comments>
					<file id="msub200012-3011-k1d2-008 2"/>
					<filter>
						<enabled>TRUE</enabled>
						<start>-1</start>
						<end>-1</end>
						<effect>
							<name>3 Band Equalizer - Kristine</name>
							<effecttype>filter</effecttype>
							<mediatype>audio</mediatype>
							<parameter>
								<parameterid>Low Frequency</parameterid>
								<name>Low Frequency</name>
								<valuemin>80</valuemin>
								<valuemax>2000</valuemax>
								<value>162</value>
							</parameter>
							<parameter>
								<parameterid>Low Gain(dB)</parameterid>
								<name>Low Gain(dB)</name>
								<valuemin>-20</valuemin>
								<valuemax>20</valuemax>
								<value>5</value>
							</parameter>
							<parameter>
								<parameterid>Mid Frequency</parameterid>
								<name>Mid Frequency</name>
								<valuemin>400</valuemin>
								<valuemax>8000</valuemax>
								<value>3602</value>
							</parameter>
							<parameter>
								<parameterid>Mid Gain(dB)</parameterid>
								<name>Mid Gain(dB)</name>
								<valuemin>-20</valuemin>
								<valuemax>20</valuemax>
								<value>-3</value>
							</parameter>
							<parameter>
								<parameterid>High Frequency</parameterid>
								<name>High Frequency</name>
								<valuemin>5000</valuemin>
								<valuemax>20000</valuemax>
								<value>10354</value>
							</parameter>
							<parameter>
								<parameterid>High Gain(dB)</parameterid>
								<name>High Gain(dB)</name>
								<valuemin>-20</valuemin>
								<valuemax>20</valuemax>
								<value>0</value>
							</parameter>
						</effect>
					</filter>
					<filter>
						<enabled>TRUE</enabled>
						<start>-1</start>
						<end>-1</end>
						<effect>
							<name>Compressor/Limiter</name>
							<effecttype>filter</effecttype>
							<mediatype>audio</mediatype>
							<parameter>
								<parameterid>Threshold(dB)</parameterid>
								<name>Threshold(dB)</name>
								<valuemin>-90</valuemin>
								<valuemax>0</valuemax>
								<value>-20</value>
							</parameter>
							<parameter>
								<parameterid>Ratio</parameterid>
								<name>Ratio</name>
								<valuemin>1</valuemin>
								<valuemax>100</valuemax>
								<value>2</value>
							</parameter>
							<parameter>
								<parameterid>Attack Time</parameterid>
								<name>Attack Time</name>
								<valuemin>1</valuemin>
								<valuemax>100</valuemax>
								<value>5</value>
							</parameter>
							<parameter>
								<parameterid>Release Time</parameterid>
								<name>Release Time</name>
								<valuemin>1</valuemin>
								<valuemax>4000</valuemax>
								<value>209</value>
							</parameter>
							<parameter>
								<parameterid>Preserve Volume</parameterid>
								<name>Preserve Volume</name>
								<value>TRUE</value>
							</parameter>
						</effect>
					</filter>
					<filter>
						<effect>
							<name>Audio Levels</name>
							<effectid>audiolevels</effectid>
							<effectcategory>audiolevels</effectcategory>
							<effecttype>audiolevels</effecttype>
							<mediatype>audio</mediatype>
							<parameter>
								<name>Level</name>
								<parameterid>level</parameterid>
								<valuemin>0</valuemin>
								<valuemax>3.98109</valuemax>
								<keyframe>
									<when>258.25</when>
									<value>0.0177828</value>
								</keyframe>
								<keyframe>
									<when>261</when>
									<value>1.99526</value>
								</keyframe>
								<keyframe>
									<when>347.25</when>
									<value>1.99526</value>
								</keyframe>
								<keyframe>
									<when>349.75</when>
									<value>1.58489</value>
								</keyframe>
								<keyframe>
									<when>397.375</when>
									<value>1.58489</value>
								</keyframe>
								<keyframe>
									<when>398.5</when>
									<value>0.0177828</value>
								</keyframe>
								<interpolation>
									<name>FCPCurve</name>
								</interpolation>
								<value>0.0177828</value>
							</parameter>
						</effect>
					</filter>
					<filter>
						<effect>
							<name>Audio Pan</name>
							<effectid>audiopan</effectid>
							<effectcategory>audiopan</effectcategory>
							<effecttype>audiopan</effecttype>
							<mediatype>audio</mediatype>
							<parameter>
								<name>Pan</name>
								<parameterid>pan</parameterid>
								<valuemin>-1</valuemin>
								<valuemax>1</valuemax>
								<value>0</value>
							</parameter>
						</effect>
					</filter>
					<sourcetrack>
						<mediatype>audio</mediatype>
						<trackindex>1</trackindex>
					</sourcetrack>
				</clipitem>
				<transitionitem id="38999448 ">
					<rate>
						<ntsc>FALSE</ntsc>
						<timebase>25</timebase>
					</rate>
					<start>28948</start>
					<end>28950</end>
					<alignment>center</alignment>
					<effect>
						<name>Cross Fade (+3dB) Copy</name>
						<effecttype>transition</effecttype>
						<mediatype>audio</mediatype>
					</effect>
				</transitionitem>
				<clipitem id="msub200012-3011-k1d2-008 10">
					<name>msub200012-3011-k1d2-008</name>
					<duration>9650</duration>
					<rate>
						<ntsc>FALSE</ntsc>
						<timebase>25</timebase>
					</rate>
					<in>701</in>
					<out>1380</out>
					<start>-1</start>
					<end>-1</end>
					<subframeoffset>0</subframeoffset>
					<enabled>TRUE</enabled>
					<masterclipid>msub200012-3011-k1d2-008 1</masterclipid>
					<syncoffset>0</syncoffset>
					<logginginfo>
						<description>msub200012-3011-k1d2-008</description>
						<scene/>
						<shottake/>
						<lognote/>
						<good>FALSE</good>
					</logginginfo>
					<labels>
						<label>Good Take</label>
						<label2/>
					</labels>
					<comments>
						<mastercomment1>RÃ…STOFF. BR_FINFREDAG_MSUA_OPRO</mastercomment1>
						<mastercomment2/>
						<mastercomment3/>
						<mastercomment4/>
						<clipcommenta/>
					</comments>
					<file id="msub200012-3011-k1d2-008 2"/>
					<filter>
						<enabled>TRUE</enabled>
						<start>-1</start>
						<end>-1</end>
						<effect>
							<name>3 Band Equalizer - Kristine</name>
							<effecttype>filter</effecttype>
							<mediatype>audio</mediatype>
							<parameter>
								<parameterid>Low Frequency</parameterid>
								<name>Low Frequency</name>
								<valuemin>80</valuemin>
								<valuemax>2000</valuemax>
								<value>162</value>
							</parameter>
							<parameter>
								<parameterid>Low Gain(dB)</parameterid>
								<name>Low Gain(dB)</name>
								<valuemin>-20</valuemin>
								<valuemax>20</valuemax>
								<value>5</value>
							</parameter>
							<parameter>
								<parameterid>Mid Frequency</parameterid>
								<name>Mid Frequency</name>
								<valuemin>400</valuemin>
								<valuemax>8000</valuemax>
								<value>3602</value>
							</parameter>
							<parameter>
								<parameterid>Mid Gain(dB)</parameterid>
								<name>Mid Gain(dB)</name>
								<valuemin>-20</valuemin>
								<valuemax>20</valuemax>
								<value>-3</value>
							</parameter>
							<parameter>
								<parameterid>High Frequency</parameterid>
								<name>High Frequency</name>
								<valuemin>5000</valuemin>
								<valuemax>20000</valuemax>
								<value>10354</value>
							</parameter>
							<parameter>
								<parameterid>High Gain(dB)</parameterid>
								<name>High Gain(dB)</name>
								<valuemin>-20</valuemin>
								<valuemax>20</valuemax>
								<value>0</value>
							</parameter>
						</effect>
					</filter>
					<filter>
						<enabled>TRUE</enabled>
						<start>-1</start>
						<end>-1</end>
						<effect>
							<name>Compressor/Limiter</name>
							<effecttype>filter</effecttype>
							<mediatype>audio</mediatype>
							<parameter>
								<parameterid>Threshold(dB)</parameterid>
								<name>Threshold(dB)</name>
								<valuemin>-90</valuemin>
								<valuemax>0</valuemax>
								<value>-20</value>
							</parameter>
							<parameter>
								<parameterid>Ratio</parameterid>
								<name>Ratio</name>
								<valuemin>1</valuemin>
								<valuemax>100</valuemax>
								<value>2</value>
							</parameter>
							<parameter>
								<parameterid>Attack Time</parameterid>
								<name>Attack Time</name>
								<valuemin>1</valuemin>
								<valuemax>100</valuemax>
								<value>5</value>
							</parameter>
							<parameter>
								<parameterid>Release Time</parameterid>
								<name>Release Time</name>
								<valuemin>1</valuemin>
								<valuemax>4000</valuemax>
								<value>209</value>
							</parameter>
							<parameter>
								<parameterid>Preserve Volume</parameterid>
								<name>Preserve Volume</name>
								<value>TRUE</value>
							</parameter>
						</effect>
					</filter>
					<filter>
						<effect>
							<name>Audio Levels</name>
							<effectid>audiolevels</effectid>
							<effectcategory>audiolevels</effectcategory>
							<effecttype>audiolevels</effecttype>
							<mediatype>audio</mediatype>
							<parameter>
								<name>Level</name>
								<parameterid>level</parameterid>
								<valuemin>0</valuemin>
								<valuemax>3.98109</valuemax>
								<keyframe>
									<when>761.25</when>
									<value>1</value>
								</keyframe>
								<keyframe>
									<when>788</when>
									<value>1.58489</value>
								</keyframe>
								<keyframe>
									<when>836</when>
									<value>1.58489</value>
								</keyframe>
								<keyframe>
									<when>838.75</when>
									<value>1.25893</value>
								</keyframe>
								<keyframe>
									<when>954</when>
									<value>1.58489</value>
								</keyframe>
								<keyframe>
									<when>961.5</when>
									<value>1</value>
								</keyframe>
								<interpolation>
									<name>FCPCurve</name>
								</interpolation>
								<value>1</value>
							</parameter>
						</effect>
					</filter>
					<filter>
						<effect>
							<name>Audio Pan</name>
							<effectid>audiopan</effectid>
							<effectcategory>audiopan</effectcategory>
							<effecttype>audiopan</effecttype>
							<mediatype>audio</mediatype>
							<parameter>
								<name>Pan</name>
								<parameterid>pan</parameterid>
								<valuemin>-1</valuemin>
								<valuemax>1</valuemax>
								<value>0</value>
							</parameter>
						</effect>
					</filter>
					<sourcetrack>
						<mediatype>audio</mediatype>
						<trackindex>1</trackindex>
					</sourcetrack>
					<link>
						<linkclipref>msub200012-3011-k1d2-008 10</linkclipref>
						<mediatype>audio</mediatype>
						<trackindex>1</trackindex>
						<clipindex>113</clipindex>
					</link>
					<link>
						<linkclipref>msub200012-3011-k1d2-008 11</linkclipref>
						<mediatype>audio</mediatype>
						<trackindex>2</trackindex>
						<clipindex>121</clipindex>
					</link>
				</clipitem>
				<transitionitem id="39052848 ">
					<rate>
						<ntsc>FALSE</ntsc>
						<timebase>25</timebase>
					</rate>
					<start>29625</start>
					<end>29627</end>
					<alignment>center</alignment>
					<effect>
						<name>Cross Fade ( 0dB)</name>
						<effecttype>transition</effecttype>
						<mediatype>audio</mediatype>
					</effect>
				</transitionitem>
				<clipitem id="msub200012-3011-k1d2-008 12">
					<name>msub200012-3011-k1d2-008</name>
					<duration>9650</duration>
					<rate>
						<ntsc>FALSE</ntsc>
						<timebase>25</timebase>
					</rate>
					<in>2153</in>
					<out>2353</out>
					<start>-1</start>
					<end>29825</end>
					<subframeoffset>0</subframeoffset>
					<masterclipid>msub200012-3011-k1d2-008 1</masterclipid>
					<syncoffset>0</syncoffset>
					<logginginfo>
						<description>msub200012-3011-k1d2-008</description>
						<scene/>
						<shottake/>
						<lognote/>
						<good>FALSE</good>
					</logginginfo>
					<labels>
						<label>Good Take</label>
						<label2/>
					</labels>
					<comments>
						<mastercomment1>RÃ…STOFF. BR_FINFREDAG_MSUA_OPRO</mastercomment1>
						<mastercomment2/>
						<mastercomment3/>
						<mastercomment4/>
						<clipcommenta/>
					</comments>
					<file id="msub200012-3011-k1d2-008 2"/>
					<filter>
						<enabled>TRUE</enabled>
						<start>-1</start>
						<end>-1</end>
						<effect>
							<name>3 Band Equalizer - Kristine</name>
							<effecttype>filter</effecttype>
							<mediatype>audio</mediatype>
							<parameter>
								<parameterid>Low Frequency</parameterid>
								<name>Low Frequency</name>
								<valuemin>80</valuemin>
								<valuemax>2000</valuemax>
								<value>162</value>
							</parameter>
							<parameter>
								<parameterid>Low Gain(dB)</parameterid>
								<name>Low Gain(dB)</name>
								<valuemin>-20</valuemin>
								<valuemax>20</valuemax>
								<value>5</value>
							</parameter>
							<parameter>
								<parameterid>Mid Frequency</parameterid>
								<name>Mid Frequency</name>
								<valuemin>400</valuemin>
								<valuemax>8000</valuemax>
								<value>3602</value>
							</parameter>
							<parameter>
								<parameterid>Mid Gain(dB)</parameterid>
								<name>Mid Gain(dB)</name>
								<valuemin>-20</valuemin>
								<valuemax>20</valuemax>
								<value>-3</value>
							</parameter>
							<parameter>
								<parameterid>High Frequency</parameterid>
								<name>High Frequency</name>
								<valuemin>5000</valuemin>
								<valuemax>20000</valuemax>
								<value>10354</value>
							</parameter>
							<parameter>
								<parameterid>High Gain(dB)</parameterid>
								<name>High Gain(dB)</name>
								<valuemin>-20</valuemin>
								<valuemax>20</valuemax>
								<value>0</value>
							</parameter>
						</effect>
					</filter>
					<filter>
						<enabled>TRUE</enabled>
						<start>-1</start>
						<end>-1</end>
						<effect>
							<name>Compressor/Limiter</name>
							<effecttype>filter</effecttype>
							<mediatype>audio</mediatype>
							<parameter>
								<parameterid>Threshold(dB)</parameterid>
								<name>Threshold(dB)</name>
								<valuemin>-90</valuemin>
								<valuemax>0</valuemax>
								<value>-20</value>
							</parameter>
							<parameter>
								<parameterid>Ratio</parameterid>
								<name>Ratio</name>
								<valuemin>1</valuemin>
								<valuemax>100</valuemax>
								<value>2</value>
							</parameter>
							<parameter>
								<parameterid>Attack Time</parameterid>
								<name>Attack Time</name>
								<valuemin>1</valuemin>
								<valuemax>100</valuemax>
								<value>5</value>
							</parameter>
							<parameter>
								<parameterid>Release Time</parameterid>
								<name>Release Time</name>
								<valuemin>1</valuemin>
								<valuemax>4000</valuemax>
								<value>209</value>
							</parameter>
							<parameter>
								<parameterid>Preserve Volume</parameterid>
								<name>Preserve Volume</name>
								<value>TRUE</value>
							</parameter>
						</effect>
					</filter>
					<filter>
						<effect>
							<name>Audio Levels</name>
							<effectid>audiolevels</effectid>
							<effectcategory>audiolevels</effectcategory>
							<effecttype>audiolevels</effecttype>
							<mediatype>audio</mediatype>
							<parameter>
								<name>Level</name>
								<parameterid>level</parameterid>
								<valuemin>0</valuemin>
								<valuemax>3.98109</valuemax>
								<keyframe>
									<when>2212</when>
									<value>1.25893</value>
								</keyframe>
								<keyframe>
									<when>2222</when>
									<value>1</value>
								</keyframe>
								<keyframe>
									<when>2286.5</when>
									<value>1</value>
								</keyframe>
								<keyframe>
									<when>2292.5</when>
									<value>1.41254</value>
								</keyframe>
								<interpolation>
									<name>FCPCurve</name>
								</interpolation>
								<value>1</value>
							</parameter>
						</effect>
					</filter>
					<filter>
						<effect>
							<name>Audio Pan</name>
							<effectid>audiopan</effectid>
							<effectcategory>audiopan</effectcategory>
							<effecttype>audiopan</effecttype>
							<mediatype>audio</mediatype>
							<parameter>
								<name>Pan</name>
								<parameterid>pan</parameterid>
								<valuemin>-1</valuemin>
								<valuemax>1</valuemax>
								<value>0</value>
							</parameter>
						</effect>
					</filter>
					<sourcetrack>
						<mediatype>audio</mediatype>
						<trackindex>1</trackindex>
					</sourcetrack>
					<link>
						<linkclipref>msub200012-3011-k1d2-008 12</linkclipref>
						<mediatype>audio</mediatype>
						<trackindex>1</trackindex>
						<clipindex>115</clipindex>
					</link>
					<link>
						<linkclipref>msub200012-3011-k1d2-008 13</linkclipref>
						<mediatype>audio</mediatype>
						<trackindex>2</trackindex>
						<clipindex>123</clipindex>
					</link>
				</clipitem>
				<transitionitem id="39056520 ">
					<rate>
						<ntsc>FALSE</ntsc>
						<timebase>25</timebase>
					</rate>
					<start>30181</start>
					<end>30187</end>
					<alignment>start-black</alignment>
					<effect>
						<name>Cross Fade (+3dB) Copy</name>
						<effecttype>transition</effecttype>
						<mediatype>audio</mediatype>
					</effect>
				</transitionitem>
				<clipitem id="msub200012-3011-k1d2-008 14">
					<name>msub200012-3011-k1d2-008</name>
					<duration>9650</duration>
					<rate>
						<ntsc>FALSE</ntsc>
						<timebase>25</timebase>
					</rate>
					<in>3099</in>
					<out>3166</out>
					<start>-1</start>
					<end>-1</end>
					<subframeoffset>0</subframeoffset>
					<enabled>TRUE</enabled>
					<masterclipid>msub200012-3011-k1d2-008 1</masterclipid>
					<syncoffset>0</syncoffset>
					<logginginfo>
						<description>msub200012-3011-k1d2-008</description>
						<scene/>
						<shottake/>
						<lognote/>
						<good>FALSE</good>
					</logginginfo>
					<labels>
						<label>Good Take</label>
						<label2/>
					</labels>
					<comments>
						<mastercomment1>RÃ…STOFF. BR_FINFREDAG_MSUA_OPRO</mastercomment1>
						<mastercomment2/>
						<mastercomment3/>
						<mastercomment4/>
						<clipcommenta/>
					</comments>
					<file id="msub200012-3011-k1d2-008 2"/>
					<filter>
						<enabled>TRUE</enabled>
						<start>-1</start>
						<end>-1</end>
						<effect>
							<name>3 Band Equalizer - Kristine</name>
							<effecttype>filter</effecttype>
							<mediatype>audio</mediatype>
							<parameter>
								<parameterid>Low Frequency</parameterid>
								<name>Low Frequency</name>
								<valuemin>80</valuemin>
								<valuemax>2000</valuemax>
								<value>162</value>
							</parameter>
							<parameter>
								<parameterid>Low Gain(dB)</parameterid>
								<name>Low Gain(dB)</name>
								<valuemin>-20</valuemin>
								<valuemax>20</valuemax>
								<value>5</value>
							</parameter>
							<parameter>
								<parameterid>Mid Frequency</parameterid>
								<name>Mid Frequency</name>
								<valuemin>400</valuemin>
								<valuemax>8000</valuemax>
								<value>3602</value>
							</parameter>
							<parameter>
								<parameterid>Mid Gain(dB)</parameterid>
								<name>Mid Gain(dB)</name>
								<valuemin>-20</valuemin>
								<valuemax>20</valuemax>
								<value>-3</value>
							</parameter>
							<parameter>
								<parameterid>High Frequency</parameterid>
								<name>High Frequency</name>
								<valuemin>5000</valuemin>
								<valuemax>20000</valuemax>
								<value>10354</value>
							</parameter>
							<parameter>
								<parameterid>High Gain(dB)</parameterid>
								<name>High Gain(dB)</name>
								<valuemin>-20</valuemin>
								<valuemax>20</valuemax>
								<value>0</value>
							</parameter>
						</effect>
					</filter>
					<filter>
						<enabled>TRUE</enabled>
						<start>-1</start>
						<end>-1</end>
						<effect>
							<name>Compressor/Limiter</name>
							<effecttype>filter</effecttype>
							<mediatype>audio</mediatype>
							<parameter>
								<parameterid>Threshold(dB)</parameterid>
								<name>Threshold(dB)</name>
								<valuemin>-90</valuemin>
								<valuemax>0</valuemax>
								<value>-20</value>
							</parameter>
							<parameter>
								<parameterid>Ratio</parameterid>
								<name>Ratio</name>
								<valuemin>1</valuemin>
								<valuemax>100</valuemax>
								<value>2</value>
							</parameter>
							<parameter>
								<parameterid>Attack Time</parameterid>
								<name>Attack Time</name>
								<valuemin>1</valuemin>
								<valuemax>100</valuemax>
								<value>5</value>
							</parameter>
							<parameter>
								<parameterid>Release Time</parameterid>
								<name>Release Time</name>
								<valuemin>1</valuemin>
								<valuemax>4000</valuemax>
								<value>209</value>
							</parameter>
							<parameter>
								<parameterid>Preserve Volume</parameterid>
								<name>Preserve Volume</name>
								<value>TRUE</value>
							</parameter>
						</effect>
					</filter>
					<filter>
						<effect>
							<name>Audio Levels</name>
							<effectid>audiolevels</effectid>
							<effectcategory>audiolevels</effectcategory>
							<effecttype>audiolevels</effecttype>
							<mediatype>audio</mediatype>
							<parameter>
								<name>Level</name>
								<parameterid>level</parameterid>
								<valuemin>0</valuemin>
								<valuemax>3.98109</valuemax>
								<value>1.25893</value>
							</parameter>
						</effect>
					</filter>
					<filter>
						<effect>
							<name>Audio Pan</name>
							<effectid>audiopan</effectid>
							<effectcategory>audiopan</effectcategory>
							<effecttype>audiopan</effecttype>
							<mediatype>audio</mediatype>
							<parameter>
								<name>Pan</name>
								<parameterid>pan</parameterid>
								<valuemin>-1</valuemin>
								<valuemax>1</valuemax>
								<value>0</value>
							</parameter>
						</effect>
					</filter>
					<sourcetrack>
						<mediatype>audio</mediatype>
						<trackindex>1</trackindex>
					</sourcetrack>
					<link>
						<linkclipref>msub200012-3011-k1d2-008 14</linkclipref>
						<mediatype>audio</mediatype>
						<trackindex>1</trackindex>
						<clipindex>117</clipindex>
					</link>
					<link>
						<linkclipref>msub200012-3011-k1d2-008 15</linkclipref>
						<mediatype>audio</mediatype>
						<trackindex>2</trackindex>
						<clipindex>124</clipindex>
					</link>
				</clipitem>
				<transitionitem id="39060056 ">
					<rate>
						<ntsc>FALSE</ntsc>
						<timebase>25</timebase>
					</rate>
					<start>30242</start>
					<end>30248</end>
					<alignment>center</alignment>
					<effect>
						<name>Cross Fade (+3dB) Copy</name>
						<effecttype>transition</effecttype>
						<mediatype>audio</mediatype>
					</effect>
				</transitionitem>
				<clipitem id="msub200012-3011-k1d2-008 16">
					<name>msub200012-3011-k1d2-008</name>
					<duration>9650</duration>
					<rate>
						<ntsc>FALSE</ntsc>
						<timebase>25</timebase>
					</rate>
					<in>3774</in>
					<out>3841</out>
					<start>-1</start>
					<end>-1</end>
					<subframeoffset>0</subframeoffset>
					<masterclipid>msub200012-3011-k1d2-008 1</masterclipid>
					<syncoffset>0</syncoffset>
					<logginginfo>
						<description>msub200012-3011-k1d2-008</description>
						<scene/>
						<shottake/>
						<lognote/>
						<good>FALSE</good>
					</logginginfo>
					<labels>
						<label>Good Take</label>
						<label2/>
					</labels>
					<comments>
						<mastercomment1>RÃ…STOFF. BR_FINFREDAG_MSUA_OPRO</mastercomment1>
						<mastercomment2/>
						<mastercomment3/>
						<mastercomment4/>
						<clipcommenta/>
					</comments>
					<file id="msub200012-3011-k1d2-008 2"/>
					<filter>
						<enabled>TRUE</enabled>
						<start>-1</start>
						<end>-1</end>
						<effect>
							<name>3 Band Equalizer - Kristine</name>
							<effecttype>filter</effecttype>
							<mediatype>audio</mediatype>
							<parameter>
								<parameterid>Low Frequency</parameterid>
								<name>Low Frequency</name>
								<valuemin>80</valuemin>
								<valuemax>2000</valuemax>
								<value>162</value>
							</parameter>
							<parameter>
								<parameterid>Low Gain(dB)</parameterid>
								<name>Low Gain(dB)</name>
								<valuemin>-20</valuemin>
								<valuemax>20</valuemax>
								<value>5</value>
							</parameter>
							<parameter>
								<parameterid>Mid Frequency</parameterid>
								<name>Mid Frequency</name>
								<valuemin>400</valuemin>
								<valuemax>8000</valuemax>
								<value>3602</value>
							</parameter>
							<parameter>
								<parameterid>Mid Gain(dB)</parameterid>
								<name>Mid Gain(dB)</name>
								<valuemin>-20</valuemin>
								<valuemax>20</valuemax>
								<value>-3</value>
							</parameter>
							<parameter>
								<parameterid>High Frequency</parameterid>
								<name>High Frequency</name>
								<valuemin>5000</valuemin>
								<valuemax>20000</valuemax>
								<value>10354</value>
							</parameter>
							<parameter>
								<parameterid>High Gain(dB)</parameterid>
								<name>High Gain(dB)</name>
								<valuemin>-20</valuemin>
								<valuemax>20</valuemax>
								<value>0</value>
							</parameter>
						</effect>
					</filter>
					<filter>
						<enabled>TRUE</enabled>
						<start>-1</start>
						<end>-1</end>
						<effect>
							<name>Compressor/Limiter</name>
							<effecttype>filter</effecttype>
							<mediatype>audio</mediatype>
							<parameter>
								<parameterid>Threshold(dB)</parameterid>
								<name>Threshold(dB)</name>
								<valuemin>-90</valuemin>
								<valuemax>0</valuemax>
								<value>-20</value>
							</parameter>
							<parameter>
								<parameterid>Ratio</parameterid>
								<name>Ratio</name>
								<valuemin>1</valuemin>
								<valuemax>100</valuemax>
								<value>2</value>
							</parameter>
							<parameter>
								<parameterid>Attack Time</parameterid>
								<name>Attack Time</name>
								<valuemin>1</valuemin>
								<valuemax>100</valuemax>
								<value>5</value>
							</parameter>
							<parameter>
								<parameterid>Release Time</parameterid>
								<name>Release Time</name>
								<valuemin>1</valuemin>
								<valuemax>4000</valuemax>
								<value>209</value>
							</parameter>
							<parameter>
								<parameterid>Preserve Volume</parameterid>
								<name>Preserve Volume</name>
								<value>TRUE</value>
							</parameter>
						</effect>
					</filter>
					<filter>
						<effect>
							<name>Audio Levels</name>
							<effectid>audiolevels</effectid>
							<effectcategory>audiolevels</effectcategory>
							<effecttype>audiolevels</effecttype>
							<mediatype>audio</mediatype>
							<parameter>
								<name>Level</name>
								<parameterid>level</parameterid>
								<valuemin>0</valuemin>
								<valuemax>3.98109</valuemax>
								<value>1.12316</value>
							</parameter>
						</effect>
					</filter>
					<filter>
						<effect>
							<name>Audio Pan</name>
							<effectid>audiopan</effectid>
							<effectcategory>audiopan</effectcategory>
							<effecttype>audiopan</effecttype>
							<mediatype>audio</mediatype>
							<parameter>
								<name>Pan</name>
								<parameterid>pan</parameterid>
								<valuemin>-1</valuemin>
								<valuemax>1</valuemax>
								<value>0</value>
							</parameter>
						</effect>
					</filter>
					<sourcetrack>
						<mediatype>audio</mediatype>
						<trackindex>1</trackindex>
					</sourcetrack>
					<link>
						<linkclipref>msub200012-3011-k1d2-008 16</linkclipref>
						<mediatype>audio</mediatype>
						<trackindex>1</trackindex>
						<clipindex>119</clipindex>
					</link>
					<link>
						<linkclipref>msub200012-3011-k1d2-008 17</linkclipref>
						<mediatype>audio</mediatype>
						<trackindex>2</trackindex>
						<clipindex>126</clipindex>
					</link>
				</clipitem>
				<transitionitem id="39063524 ">
					<rate>
						<ntsc>FALSE</ntsc>
						<timebase>25</timebase>
					</rate>
					<start>30307</start>
					<end>30309</end>
					<alignment>end-black</alignment>
					<effect>
						<name>Cross Fade (+3dB) Copy</name>
						<effecttype>transition</effecttype>
						<mediatype>audio</mediatype>
					</effect>
				</transitionitem>
				<clipitem id="msub200012-3011-k1d2-008 18">
					<name>msub200012-3011-k1d2-008</name>
					<duration>9650</duration>
					<rate>
						<ntsc>FALSE</ntsc>
						<timebase>25</timebase>
					</rate>
					<in>8989</in>
					<out>9307</out>
					<start>31000</start>
					<end>-1</end>
					<subframeoffset>0</subframeoffset>
					<enabled>TRUE</enabled>
					<masterclipid>msub200012-3011-k1d2-008 1</masterclipid>
					<syncoffset>0</syncoffset>
					<logginginfo>
						<description>msub200012-3011-k1d2-008</description>
						<scene/>
						<shottake/>
						<lognote/>
						<good>FALSE</good>
					</logginginfo>
					<labels>
						<label>Good Take</label>
						<label2/>
					</labels>
					<comments>
						<mastercomment1>RÃ…STOFF. BR_FINFREDAG_MSUA_OPRO</mastercomment1>
						<mastercomment2/>
						<mastercomment3/>
						<mastercomment4/>
						<clipcommenta/>
					</comments>
					<file id="msub200012-3011-k1d2-008 2"/>
					<filter>
						<enabled>TRUE</enabled>
						<start>-1</start>
						<end>-1</end>
						<effect>
							<name>3 Band Equalizer - Kristine</name>
							<effecttype>filter</effecttype>
							<mediatype>audio</mediatype>
							<parameter>
								<parameterid>Low Frequency</parameterid>
								<name>Low Frequency</name>
								<valuemin>80</valuemin>
								<valuemax>2000</valuemax>
								<value>162</value>
							</parameter>
							<parameter>
								<parameterid>Low Gain(dB)</parameterid>
								<name>Low Gain(dB)</name>
								<valuemin>-20</valuemin>
								<valuemax>20</valuemax>
								<value>5</value>
							</parameter>
							<parameter>
								<parameterid>Mid Frequency</parameterid>
								<name>Mid Frequency</name>
								<valuemin>400</valuemin>
								<valuemax>8000</valuemax>
								<value>3602</value>
							</parameter>
							<parameter>
								<parameterid>Mid Gain(dB)</parameterid>
								<name>Mid Gain(dB)</name>
								<valuemin>-20</valuemin>
								<valuemax>20</valuemax>
								<value>-3</value>
							</parameter>
							<parameter>
								<parameterid>High Frequency</parameterid>
								<name>High Frequency</name>
								<valuemin>5000</valuemin>
								<valuemax>20000</valuemax>
								<value>10354</value>
							</parameter>
							<parameter>
								<parameterid>High Gain(dB)</parameterid>
								<name>High Gain(dB)</name>
								<valuemin>-20</valuemin>
								<valuemax>20</valuemax>
								<value>0</value>
							</parameter>
						</effect>
					</filter>
					<filter>
						<enabled>TRUE</enabled>
						<start>-1</start>
						<end>-1</end>
						<effect>
							<name>Compressor/Limiter</name>
							<effecttype>filter</effecttype>
							<mediatype>audio</mediatype>
							<parameter>
								<parameterid>Threshold(dB)</parameterid>
								<name>Threshold(dB)</name>
								<valuemin>-90</valuemin>
								<valuemax>0</valuemax>
								<value>-20</value>
							</parameter>
							<parameter>
								<parameterid>Ratio</parameterid>
								<name>Ratio</name>
								<valuemin>1</valuemin>
								<valuemax>100</valuemax>
								<value>2</value>
							</parameter>
							<parameter>
								<parameterid>Attack Time</parameterid>
								<name>Attack Time</name>
								<valuemin>1</valuemin>
								<valuemax>100</valuemax>
								<value>5</value>
							</parameter>
							<parameter>
								<parameterid>Release Time</parameterid>
								<name>Release Time</name>
								<valuemin>1</valuemin>
								<valuemax>4000</valuemax>
								<value>209</value>
							</parameter>
							<parameter>
								<parameterid>Preserve Volume</parameterid>
								<name>Preserve Volume</name>
								<value>TRUE</value>
							</parameter>
						</effect>
					</filter>
					<filter>
						<effect>
							<name>Audio Levels</name>
							<effectid>audiolevels</effectid>
							<effectcategory>audiolevels</effectcategory>
							<effecttype>audiolevels</effecttype>
							<mediatype>audio</mediatype>
							<parameter>
								<name>Level</name>
								<parameterid>level</parameterid>
								<valuemin>0</valuemin>
								<valuemax>3.98109</valuemax>
								<keyframe>
									<when>9105.57</when>
									<value>1</value>
								</keyframe>
								<keyframe>
									<when>9109.86</when>
									<value>1.25893</value>
								</keyframe>
								<keyframe>
									<when>9183.57</when>
									<value>1</value>
								</keyframe>
								<keyframe>
									<when>9187.43</when>
									<value>1</value>
								</keyframe>
								<interpolation>
									<name>FCPCurve</name>
								</interpolation>
								<value>1.14672</value>
							</parameter>
						</effect>
					</filter>
					<filter>
						<effect>
							<name>Audio Pan</name>
							<effectid>audiopan</effectid>
							<effectcategory>audiopan</effectcategory>
							<effecttype>audiopan</effecttype>
							<mediatype>audio</mediatype>
							<parameter>
								<name>Pan</name>
								<parameterid>pan</parameterid>
								<valuemin>-1</valuemin>
								<valuemax>1</valuemax>
								<value>0</value>
							</parameter>
						</effect>
					</filter>
					<sourcetrack>
						<mediatype>audio</mediatype>
						<trackindex>1</trackindex>
					</sourcetrack>
					<link>
						<linkclipref>msub200012-3011-k1d2-008 18</linkclipref>
						<mediatype>audio</mediatype>
						<trackindex>1</trackindex>
						<clipindex>121</clipindex>
					</link>
					<link>
						<linkclipref>msub200012-3011-k1d2-008 19</linkclipref>
						<mediatype>audio</mediatype>
						<trackindex>2</trackindex>
						<clipindex>131</clipindex>
					</link>
				</clipitem>
				<transitionitem id="39067332 ">
					<rate>
						<ntsc>FALSE</ntsc>
						<timebase>25</timebase>
					</rate>
					<start>31312</start>
					<end>31318</end>
					<alignment>center</alignment>
					<effect>
						<name>Cross Fade (+3dB) Copy</name>
						<effecttype>transition</effecttype>
						<mediatype>audio</mediatype>
					</effect>
				</transitionitem>
				<clipitem id="msub200012-3011-k1d2-010 3">
					<name>msub200012-3011-k1d2-010</name>
					<duration>719</duration>
					<rate>
						<ntsc>FALSE</ntsc>
						<timebase>25</timebase>
					</rate>
					<in>517</in>
					<out>607</out>
					<start>-1</start>
					<end>-1</end>
					<subframeoffset>0</subframeoffset>
					<masterclipid>msub200012-3011-k1d2-010 1</masterclipid>
					<logginginfo>
						<description>msub200012-3011-k1d2-010</description>
						<scene/>
						<shottake/>
						<lognote/>
						<good>FALSE</good>
					</logginginfo>
					<labels>
						<label2/>
					</labels>
					<comments>
						<mastercomment1>RÃ…STOFF. BR_FINFREDAG_MSUA_OPRO</mastercomment1>
						<mastercomment2/>
						<mastercomment3/>
						<mastercomment4/>
						<clipcommenta/>
					</comments>
					<file id="msub200012-3011-k1d2-010 2"/>
					<filter>
						<enabled>TRUE</enabled>
						<start>-1</start>
						<end>-1</end>
						<effect>
							<name>3 Band Equalizer - Kristine</name>
							<effecttype>filter</effecttype>
							<mediatype>audio</mediatype>
							<parameter>
								<parameterid>Low Frequency</parameterid>
								<name>Low Frequency</name>
								<valuemin>80</valuemin>
								<valuemax>2000</valuemax>
								<value>162</value>
							</parameter>
							<parameter>
								<parameterid>Low Gain(dB)</parameterid>
								<name>Low Gain(dB)</name>
								<valuemin>-20</valuemin>
								<valuemax>20</valuemax>
								<value>5</value>
							</parameter>
							<parameter>
								<parameterid>Mid Frequency</parameterid>
								<name>Mid Frequency</name>
								<valuemin>400</valuemin>
								<valuemax>8000</valuemax>
								<value>3602</value>
							</parameter>
							<parameter>
								<parameterid>Mid Gain(dB)</parameterid>
								<name>Mid Gain(dB)</name>
								<valuemin>-20</valuemin>
								<valuemax>20</valuemax>
								<value>-3</value>
							</parameter>
							<parameter>
								<parameterid>High Frequency</parameterid>
								<name>High Frequency</name>
								<valuemin>5000</valuemin>
								<valuemax>20000</valuemax>
								<value>10354</value>
							</parameter>
							<parameter>
								<parameterid>High Gain(dB)</parameterid>
								<name>High Gain(dB)</name>
								<valuemin>-20</valuemin>
								<valuemax>20</valuemax>
								<value>0</value>
							</parameter>
						</effect>
					</filter>
					<filter>
						<enabled>TRUE</enabled>
						<start>-1</start>
						<end>-1</end>
						<effect>
							<name>Compressor/Limiter</name>
							<effecttype>filter</effecttype>
							<mediatype>audio</mediatype>
							<parameter>
								<parameterid>Threshold(dB)</parameterid>
								<name>Threshold(dB)</name>
								<valuemin>-90</valuemin>
								<valuemax>0</valuemax>
								<value>-20</value>
							</parameter>
							<parameter>
								<parameterid>Ratio</parameterid>
								<name>Ratio</name>
								<valuemin>1</valuemin>
								<valuemax>100</valuemax>
								<value>2</value>
							</parameter>
							<parameter>
								<parameterid>Attack Time</parameterid>
								<name>Attack Time</name>
								<valuemin>1</valuemin>
								<valuemax>100</valuemax>
								<value>5</value>
							</parameter>
							<parameter>
								<parameterid>Release Time</parameterid>
								<name>Release Time</name>
								<valuemin>1</valuemin>
								<valuemax>4000</valuemax>
								<value>209</value>
							</parameter>
							<parameter>
								<parameterid>Preserve Volume</parameterid>
								<name>Preserve Volume</name>
								<value>TRUE</value>
							</parameter>
						</effect>
					</filter>
					<filter>
						<effect>
							<name>Audio Levels</name>
							<effectid>audiolevels</effectid>
							<effectcategory>audiolevels</effectcategory>
							<effecttype>audiolevels</effecttype>
							<mediatype>audio</mediatype>
							<parameter>
								<name>Level</name>
								<parameterid>level</parameterid>
								<valuemin>0</valuemin>
								<valuemax>3.98109</valuemax>
								<value>0.501187</value>
							</parameter>
						</effect>
					</filter>
					<filter>
						<effect>
							<name>Audio Pan</name>
							<effectid>audiopan</effectid>
							<effectcategory>audiopan</effectcategory>
							<effecttype>audiopan</effecttype>
							<mediatype>audio</mediatype>
							<parameter>
								<name>Pan</name>
								<parameterid>pan</parameterid>
								<valuemin>-1</valuemin>
								<valuemax>1</valuemax>
								<value>0</value>
							</parameter>
						</effect>
					</filter>
					<sourcetrack>
						<mediatype>audio</mediatype>
						<trackindex>1</trackindex>
					</sourcetrack>
					<link>
						<linkclipref>msub200012-3011-k1d2-010 </linkclipref>
						<mediatype>video</mediatype>
						<trackindex>1</trackindex>
						<clipindex>135</clipindex>
					</link>
					<link>
						<linkclipref>msub200012-3011-k1d2-010 3</linkclipref>
						<mediatype>audio</mediatype>
						<trackindex>1</trackindex>
						<clipindex>123</clipindex>
					</link>
					<link>
						<linkclipref>msub200012-3011-k1d2-010 4</linkclipref>
						<mediatype>audio</mediatype>
						<trackindex>2</trackindex>
						<clipindex>133</clipindex>
					</link>
				</clipitem>
				<transitionitem id="39070800 ">
					<rate>
						<ntsc>FALSE</ntsc>
						<timebase>25</timebase>
					</rate>
					<start>31396</start>
					<end>31402</end>
					<alignment>center</alignment>
					<effect>
						<name>Cross Fade (+3dB) Copy</name>
						<effecttype>transition</effecttype>
						<mediatype>audio</mediatype>
					</effect>
				</transitionitem>
				<clipitem id="msub200012-3011-k1d2-011 3">
					<name>msub200012-3011-k1d2-011</name>
					<duration>1378</duration>
					<rate>
						<ntsc>FALSE</ntsc>
						<timebase>25</timebase>
					</rate>
					<in>916</in>
					<out>1295</out>
					<start>-1</start>
					<end>-1</end>
					<subframeoffset>0</subframeoffset>
					<masterclipid>msub200012-3011-k1d2-011 1</masterclipid>
					<logginginfo>
						<description>msub200012-3011-k1d2-011</description>
						<scene/>
						<shottake/>
						<lognote/>
						<good>FALSE</good>
					</logginginfo>
					<labels>
						<label2/>
					</labels>
					<comments>
						<mastercomment1>RÃ…STOFF. BR_FINFREDAG_MSUA_OPRO</mastercomment1>
						<mastercomment2/>
						<mastercomment3/>
						<mastercomment4/>
						<clipcommenta/>
					</comments>
					<file id="msub200012-3011-k1d2-011 2"/>
					<filter>
						<enabled>TRUE</enabled>
						<start>-1</start>
						<end>-1</end>
						<effect>
							<name>3 Band Equalizer - Kristine</name>
							<effecttype>filter</effecttype>
							<mediatype>audio</mediatype>
							<parameter>
								<parameterid>Low Frequency</parameterid>
								<name>Low Frequency</name>
								<valuemin>80</valuemin>
								<valuemax>2000</valuemax>
								<value>162</value>
							</parameter>
							<parameter>
								<parameterid>Low Gain(dB)</parameterid>
								<name>Low Gain(dB)</name>
								<valuemin>-20</valuemin>
								<valuemax>20</valuemax>
								<value>5</value>
							</parameter>
							<parameter>
								<parameterid>Mid Frequency</parameterid>
								<name>Mid Frequency</name>
								<valuemin>400</valuemin>
								<valuemax>8000</valuemax>
								<value>3602</value>
							</parameter>
							<parameter>
								<parameterid>Mid Gain(dB)</parameterid>
								<name>Mid Gain(dB)</name>
								<valuemin>-20</valuemin>
								<valuemax>20</valuemax>
								<value>-3</value>
							</parameter>
							<parameter>
								<parameterid>High Frequency</parameterid>
								<name>High Frequency</name>
								<valuemin>5000</valuemin>
								<valuemax>20000</valuemax>
								<value>10354</value>
							</parameter>
							<parameter>
								<parameterid>High Gain(dB)</parameterid>
								<name>High Gain(dB)</name>
								<valuemin>-20</valuemin>
								<valuemax>20</valuemax>
								<value>0</value>
							</parameter>
						</effect>
					</filter>
					<filter>
						<enabled>TRUE</enabled>
						<start>-1</start>
						<end>-1</end>
						<effect>
							<name>Compressor/Limiter</name>
							<effecttype>filter</effecttype>
							<mediatype>audio</mediatype>
							<parameter>
								<parameterid>Threshold(dB)</parameterid>
								<name>Threshold(dB)</name>
								<valuemin>-90</valuemin>
								<valuemax>0</valuemax>
								<value>-20</value>
							</parameter>
							<parameter>
								<parameterid>Ratio</parameterid>
								<name>Ratio</name>
								<valuemin>1</valuemin>
								<valuemax>100</valuemax>
								<value>2</value>
							</parameter>
							<parameter>
								<parameterid>Attack Time</parameterid>
								<name>Attack Time</name>
								<valuemin>1</valuemin>
								<valuemax>100</valuemax>
								<value>5</value>
							</parameter>
							<parameter>
								<parameterid>Release Time</parameterid>
								<name>Release Time</name>
								<valuemin>1</valuemin>
								<valuemax>4000</valuemax>
								<value>209</value>
							</parameter>
							<parameter>
								<parameterid>Preserve Volume</parameterid>
								<name>Preserve Volume</name>
								<value>TRUE</value>
							</parameter>
						</effect>
					</filter>
					<filter>
						<effect>
							<name>Audio Levels</name>
							<effectid>audiolevels</effectid>
							<effectcategory>audiolevels</effectcategory>
							<effecttype>audiolevels</effecttype>
							<mediatype>audio</mediatype>
							<parameter>
								<name>Level</name>
								<parameterid>level</parameterid>
								<valuemin>0</valuemin>
								<valuemax>3.98109</valuemax>
								<keyframe>
									<when>1122.79</when>
									<value>1</value>
								</keyframe>
								<keyframe>
									<when>1125.79</when>
									<value>1.25893</value>
								</keyframe>
								<keyframe>
									<when>1205.93</when>
									<value>1.25893</value>
								</keyframe>
								<keyframe>
									<when>1209.36</when>
									<value>1.58489</value>
								</keyframe>
								<interpolation>
									<name>FCPCurve</name>
								</interpolation>
								<value>1</value>
							</parameter>
						</effect>
					</filter>
					<filter>
						<effect>
							<name>Audio Pan</name>
							<effectid>audiopan</effectid>
							<effectcategory>audiopan</effectcategory>
							<effecttype>audiopan</effecttype>
							<mediatype>audio</mediatype>
							<parameter>
								<name>Pan</name>
								<parameterid>pan</parameterid>
								<valuemin>-1</valuemin>
								<valuemax>1</valuemax>
								<value>0</value>
							</parameter>
						</effect>
					</filter>
					<sourcetrack>
						<mediatype>audio</mediatype>
						<trackindex>1</trackindex>
					</sourcetrack>
					<link>
						<linkclipref>msub200012-3011-k1d2-011 </linkclipref>
						<mediatype>video</mediatype>
						<trackindex>1</trackindex>
						<clipindex>137</clipindex>
					</link>
					<link>
						<linkclipref>msub200012-3011-k1d2-011 3</linkclipref>
						<mediatype>audio</mediatype>
						<trackindex>1</trackindex>
						<clipindex>125</clipindex>
					</link>
					<link>
						<linkclipref>msub200012-3011-k1d2-011 4</linkclipref>
						<mediatype>audio</mediatype>
						<trackindex>2</trackindex>
						<clipindex>135</clipindex>
					</link>
				</clipitem>
				<transitionitem id="39074540 ">
					<rate>
						<ntsc>FALSE</ntsc>
						<timebase>25</timebase>
					</rate>
					<start>31769</start>
					<end>31775</end>
					<alignment>center</alignment>
					<effect>
						<name>Cross Fade (+3dB) Copy</name>
						<effecttype>transition</effecttype>
						<mediatype>audio</mediatype>
					</effect>
				</transitionitem>
				<transitionitem id="39075016 ">
					<rate>
						<ntsc>FALSE</ntsc>
						<timebase>25</timebase>
					</rate>
					<start>32063</start>
					<end>32079</end>
					<alignment>center</alignment>
					<effect>
						<name>Cross Fade (+3dB) Copy</name>
						<effecttype>transition</effecttype>
						<mediatype>audio</mediatype>
					</effect>
				</transitionitem>
				<clipitem id="msub200012-3011-k1d3-001 3">
					<name>msub200012-3011-k1d3-001</name>
					<duration>244</duration>
					<rate>
						<ntsc>FALSE</ntsc>
						<timebase>25</timebase>
					</rate>
					<in>76</in>
					<out>133</out>
					<start>-1</start>
					<end>-1</end>
					<subframeoffset>0</subframeoffset>
					<masterclipid>msub200012-3011-k1d3-001 1</masterclipid>
					<logginginfo>
						<description>msub200012-3011-k1d3-001</description>
						<scene/>
						<shottake/>
						<lognote/>
						<good>FALSE</good>
					</logginginfo>
					<labels>
						<label2/>
					</labels>
					<comments>
						<mastercomment1>RÃ…STOFF. BR_FINFREDAG_MSUA_OPRO</mastercomment1>
						<mastercomment2/>
						<mastercomment3/>
						<mastercomment4/>
						<clipcommenta/>
					</comments>
					<file id="msub200012-3011-k1d3-001 2"/>
					<filter>
						<effect>
							<name>Audio Levels</name>
							<effectid>audiolevels</effectid>
							<effectcategory>audiolevels</effectcategory>
							<effecttype>audiolevels</effecttype>
							<mediatype>audio</mediatype>
							<parameter>
								<name>Level</name>
								<parameterid>level</parameterid>
								<valuemin>0</valuemin>
								<valuemax>3.98109</valuemax>
								<value>1</value>
							</parameter>
						</effect>
					</filter>
					<filter>
						<effect>
							<name>Audio Pan</name>
							<effectid>audiopan</effectid>
							<effectcategory>audiopan</effectcategory>
							<effecttype>audiopan</effecttype>
							<mediatype>audio</mediatype>
							<parameter>
								<name>Pan</name>
								<parameterid>pan</parameterid>
								<valuemin>-1</valuemin>
								<valuemax>1</valuemax>
								<value>0</value>
							</parameter>
						</effect>
					</filter>
					<sourcetrack>
						<mediatype>audio</mediatype>
						<trackindex>4</trackindex>
					</sourcetrack>
					<link>
						<linkclipref>msub200012-3011-k1d3-001 </linkclipref>
						<mediatype>video</mediatype>
						<trackindex>2</trackindex>
						<clipindex>53</clipindex>
					</link>
					<link>
						<linkclipref>msub200012-3011-k1d3-001 3</linkclipref>
						<mediatype>audio</mediatype>
						<trackindex>1</trackindex>
						<clipindex>128</clipindex>
					</link>
				</clipitem>
				<transitionitem id="39075764 ">
					<rate>
						<ntsc>FALSE</ntsc>
						<timebase>25</timebase>
					</rate>
					<start>32114</start>
					<end>32120</end>
					<alignment>center</alignment>
					<effect>
						<name>Cross Fade (+3dB)</name>
						<effecttype>transition</effecttype>
						<mediatype>audio</mediatype>
					</effect>
				</transitionitem>
				<clipitem id="msub200012-3011-k1d3-002 37">
					<name>msub200012-3011-k1d3-002</name>
					<duration>8740</duration>
					<rate>
						<ntsc>FALSE</ntsc>
						<timebase>25</timebase>
					</rate>
					<in>504</in>
					<out>849</out>
					<start>-1</start>
					<end>-1</end>
					<subframeoffset>0</subframeoffset>
					<enabled>TRUE</enabled>
					<masterclipid>msub200012-3011-k1d3-002 1</masterclipid>
					<syncoffset>0</syncoffset>
					<logginginfo>
						<description>msub200012-3011-k1d3-002</description>
						<scene/>
						<shottake/>
						<lognote/>
						<good>FALSE</good>
					</logginginfo>
					<labels>
						<label>Good Take</label>
						<label2/>
					</labels>
					<comments>
						<mastercomment1>RÃ…STOFF. BR_FINFREDAG_MSUA_OPRO</mastercomment1>
						<mastercomment2/>
						<mastercomment3/>
						<mastercomment4/>
						<clipcommenta/>
					</comments>
					<file id="msub200012-3011-k1d3-002 2"/>
					<filter>
						<enabled>TRUE</enabled>
						<start>-1</start>
						<end>-1</end>
						<effect>
							<name>3 Band Equalizer - Kristine</name>
							<effecttype>filter</effecttype>
							<mediatype>audio</mediatype>
							<parameter>
								<parameterid>Low Frequency</parameterid>
								<name>Low Frequency</name>
								<valuemin>80</valuemin>
								<valuemax>2000</valuemax>
								<value>80</value>
							</parameter>
							<parameter>
								<parameterid>Low Gain(dB)</parameterid>
								<name>Low Gain(dB)</name>
								<valuemin>-20</valuemin>
								<valuemax>20</valuemax>
								<value>-4</value>
							</parameter>
							<parameter>
								<parameterid>Mid Frequency</parameterid>
								<name>Mid Frequency</name>
								<valuemin>400</valuemin>
								<valuemax>8000</valuemax>
								<value>3602</value>
							</parameter>
							<parameter>
								<parameterid>Mid Gain(dB)</parameterid>
								<name>Mid Gain(dB)</name>
								<valuemin>-20</valuemin>
								<valuemax>20</valuemax>
								<value>3</value>
							</parameter>
							<parameter>
								<parameterid>High Frequency</parameterid>
								<name>High Frequency</name>
								<valuemin>5000</valuemin>
								<valuemax>20000</valuemax>
								<value>10354</value>
							</parameter>
							<parameter>
								<parameterid>High Gain(dB)</parameterid>
								<name>High Gain(dB)</name>
								<valuemin>-20</valuemin>
								<valuemax>20</valuemax>
								<value>0</value>
							</parameter>
						</effect>
					</filter>
					<filter>
						<enabled>TRUE</enabled>
						<start>-1</start>
						<end>-1</end>
						<effect>
							<name>Compressor/Limiter</name>
							<effecttype>filter</effecttype>
							<mediatype>audio</mediatype>
							<parameter>
								<parameterid>Threshold(dB)</parameterid>
								<name>Threshold(dB)</name>
								<valuemin>-90</valuemin>
								<valuemax>0</valuemax>
								<value>-20</value>
							</parameter>
							<parameter>
								<parameterid>Ratio</parameterid>
								<name>Ratio</name>
								<valuemin>1</valuemin>
								<valuemax>100</valuemax>
								<value>2</value>
							</parameter>
							<parameter>
								<parameterid>Attack Time</parameterid>
								<name>Attack Time</name>
								<valuemin>1</valuemin>
								<valuemax>100</valuemax>
								<value>5</value>
							</parameter>
							<parameter>
								<parameterid>Release Time</parameterid>
								<name>Release Time</name>
								<valuemin>1</valuemin>
								<valuemax>4000</valuemax>
								<value>209</value>
							</parameter>
							<parameter>
								<parameterid>Preserve Volume</parameterid>
								<name>Preserve Volume</name>
								<value>TRUE</value>
							</parameter>
						</effect>
					</filter>
					<filter>
						<effect>
							<name>Audio Levels</name>
							<effectid>audiolevels</effectid>
							<effectcategory>audiolevels</effectcategory>
							<effecttype>audiolevels</effecttype>
							<mediatype>audio</mediatype>
							<parameter>
								<name>Level</name>
								<parameterid>level</parameterid>
								<valuemin>0</valuemin>
								<valuemax>3.98109</valuemax>
								<keyframe>
									<when>985.607</when>
									<value>1.12202</value>
								</keyframe>
								<keyframe>
									<when>988.179</when>
									<value>0.0112202</value>
								</keyframe>
								<keyframe>
									<when>1008.43</when>
									<value>0.0112202</value>
								</keyframe>
								<keyframe>
									<when>1018.71</when>
									<value>0.00630957</value>
								</keyframe>
								<keyframe>
									<when>1032.86</when>
									<value>0</value>
								</keyframe>
								<keyframe>
									<when>1041.86</when>
									<value>1.12202</value>
								</keyframe>
								<keyframe>
									<when>1082.04</when>
									<value>1.12202</value>
								</keyframe>
								<keyframe>
									<when>1085.09</when>
									<value>0.0112202</value>
								</keyframe>
								<interpolation>
									<name>FCPCurve</name>
								</interpolation>
								<value>1.12202</value>
							</parameter>
						</effect>
					</filter>
					<filter>
						<effect>
							<name>Audio Pan</name>
							<effectid>audiopan</effectid>
							<effectcategory>audiopan</effectcategory>
							<effecttype>audiopan</effecttype>
							<mediatype>audio</mediatype>
							<parameter>
								<name>Pan</name>
								<parameterid>pan</parameterid>
								<valuemin>-1</valuemin>
								<valuemax>1</valuemax>
								<value>0</value>
							</parameter>
						</effect>
					</filter>
					<sourcetrack>
						<mediatype>audio</mediatype>
						<trackindex>1</trackindex>
					</sourcetrack>
				</clipitem>
				<transitionitem id="39079844 ">
					<rate>
						<ntsc>FALSE</ntsc>
						<timebase>25</timebase>
					</rate>
					<start>32453</start>
					<end>32459</end>
					<alignment>center</alignment>
					<effect>
						<name>Cross Fade (+3dB)</name>
						<effecttype>transition</effecttype>
						<mediatype>audio</mediatype>
					</effect>
				</transitionitem>
				<clipitem id="msub200012-3011-k1d3-002 38">
					<name>msub200012-3011-k1d3-002</name>
					<duration>8740</duration>
					<rate>
						<ntsc>FALSE</ntsc>
						<timebase>25</timebase>
					</rate>
					<in>901</in>
					<out>1122</out>
					<start>-1</start>
					<end>32674</end>
					<subframeoffset>0</subframeoffset>
					<enabled>TRUE</enabled>
					<masterclipid>msub200012-3011-k1d3-002 1</masterclipid>
					<syncoffset>0</syncoffset>
					<logginginfo>
						<description>msub200012-3011-k1d3-002</description>
						<scene/>
						<shottake/>
						<lognote/>
						<good>FALSE</good>
					</logginginfo>
					<labels>
						<label>Good Take</label>
						<label2/>
					</labels>
					<comments>
						<mastercomment1>RÃ…STOFF. BR_FINFREDAG_MSUA_OPRO</mastercomment1>
						<mastercomment2/>
						<mastercomment3/>
						<mastercomment4/>
						<clipcommenta/>
					</comments>
					<file id="msub200012-3011-k1d3-002 2"/>
					<filter>
						<enabled>TRUE</enabled>
						<start>-1</start>
						<end>-1</end>
						<effect>
							<name>3 Band Equalizer - Kristine</name>
							<effecttype>filter</effecttype>
							<mediatype>audio</mediatype>
							<parameter>
								<parameterid>Low Frequency</parameterid>
								<name>Low Frequency</name>
								<valuemin>80</valuemin>
								<valuemax>2000</valuemax>
								<value>80</value>
							</parameter>
							<parameter>
								<parameterid>Low Gain(dB)</parameterid>
								<name>Low Gain(dB)</name>
								<valuemin>-20</valuemin>
								<valuemax>20</valuemax>
								<value>-4</value>
							</parameter>
							<parameter>
								<parameterid>Mid Frequency</parameterid>
								<name>Mid Frequency</name>
								<valuemin>400</valuemin>
								<valuemax>8000</valuemax>
								<value>3602</value>
							</parameter>
							<parameter>
								<parameterid>Mid Gain(dB)</parameterid>
								<name>Mid Gain(dB)</name>
								<valuemin>-20</valuemin>
								<valuemax>20</valuemax>
								<value>3</value>
							</parameter>
							<parameter>
								<parameterid>High Frequency</parameterid>
								<name>High Frequency</name>
								<valuemin>5000</valuemin>
								<valuemax>20000</valuemax>
								<value>10354</value>
							</parameter>
							<parameter>
								<parameterid>High Gain(dB)</parameterid>
								<name>High Gain(dB)</name>
								<valuemin>-20</valuemin>
								<valuemax>20</valuemax>
								<value>0</value>
							</parameter>
						</effect>
					</filter>
					<filter>
						<enabled>TRUE</enabled>
						<start>-1</start>
						<end>-1</end>
						<effect>
							<name>Compressor/Limiter</name>
							<effecttype>filter</effecttype>
							<mediatype>audio</mediatype>
							<parameter>
								<parameterid>Threshold(dB)</parameterid>
								<name>Threshold(dB)</name>
								<valuemin>-90</valuemin>
								<valuemax>0</valuemax>
								<value>-20</value>
							</parameter>
							<parameter>
								<parameterid>Ratio</parameterid>
								<name>Ratio</name>
								<valuemin>1</valuemin>
								<valuemax>100</valuemax>
								<value>2</value>
							</parameter>
							<parameter>
								<parameterid>Attack Time</parameterid>
								<name>Attack Time</name>
								<valuemin>1</valuemin>
								<valuemax>100</valuemax>
								<value>5</value>
							</parameter>
							<parameter>
								<parameterid>Release Time</parameterid>
								<name>Release Time</name>
								<valuemin>1</valuemin>
								<valuemax>4000</valuemax>
								<value>209</value>
							</parameter>
							<parameter>
								<parameterid>Preserve Volume</parameterid>
								<name>Preserve Volume</name>
								<value>TRUE</value>
							</parameter>
						</effect>
					</filter>
					<filter>
						<effect>
							<name>Audio Levels</name>
							<effectid>audiolevels</effectid>
							<effectcategory>audiolevels</effectcategory>
							<effecttype>audiolevels</effecttype>
							<mediatype>audio</mediatype>
							<parameter>
								<name>Level</name>
								<parameterid>level</parameterid>
								<valuemin>0</valuemin>
								<valuemax>3.98109</valuemax>
								<keyframe>
									<when>985.607</when>
									<value>1.12202</value>
								</keyframe>
								<keyframe>
									<when>988.179</when>
									<value>0.0112202</value>
								</keyframe>
								<keyframe>
									<when>1008.43</when>
									<value>0.0112202</value>
								</keyframe>
								<keyframe>
									<when>1018.71</when>
									<value>0.00630957</value>
								</keyframe>
								<keyframe>
									<when>1032.86</when>
									<value>0</value>
								</keyframe>
								<keyframe>
									<when>1041.86</when>
									<value>1.12202</value>
								</keyframe>
								<keyframe>
									<when>1082.04</when>
									<value>1.12202</value>
								</keyframe>
								<keyframe>
									<when>1085.09</when>
									<value>0.0112202</value>
								</keyframe>
								<interpolation>
									<name>FCPCurve</name>
								</interpolation>
								<value>1.12202</value>
							</parameter>
						</effect>
					</filter>
					<filter>
						<effect>
							<name>Audio Pan</name>
							<effectid>audiopan</effectid>
							<effectcategory>audiopan</effectcategory>
							<effecttype>audiopan</effecttype>
							<mediatype>audio</mediatype>
							<parameter>
								<name>Pan</name>
								<parameterid>pan</parameterid>
								<valuemin>-1</valuemin>
								<valuemax>1</valuemax>
								<value>0</value>
							</parameter>
						</effect>
					</filter>
					<sourcetrack>
						<mediatype>audio</mediatype>
						<trackindex>1</trackindex>
					</sourcetrack>
				</clipitem>
				<clipitem id="msub200012-3011-k1d3-002 39">
					<name>msub200012-3011-k1d3-002</name>
					<duration>8740</duration>
					<rate>
						<ntsc>FALSE</ntsc>
						<timebase>25</timebase>
					</rate>
					<in>1138</in>
					<out>1205</out>
					<start>32674</start>
					<end>32741</end>
					<subframeoffset>0</subframeoffset>
					<masterclipid>msub200012-3011-k1d3-002 1</masterclipid>
					<syncoffset>0</syncoffset>
					<logginginfo>
						<description>msub200012-3011-k1d3-002</description>
						<scene/>
						<shottake/>
						<lognote/>
						<good>FALSE</good>
					</logginginfo>
					<labels>
						<label>Good Take</label>
						<label2/>
					</labels>
					<comments>
						<mastercomment1>RÃ…STOFF. BR_FINFREDAG_MSUA_OPRO</mastercomment1>
						<mastercomment2/>
						<mastercomment3/>
						<mastercomment4/>
						<clipcommenta/>
					</comments>
					<file id="msub200012-3011-k1d3-002 2"/>
					<filter>
						<effect>
							<name>Audio Levels</name>
							<effectid>audiolevels</effectid>
							<effectcategory>audiolevels</effectcategory>
							<effecttype>audiolevels</effecttype>
							<mediatype>audio</mediatype>
							<parameter>
								<name>Level</name>
								<parameterid>level</parameterid>
								<valuemin>0</valuemin>
								<valuemax>3.98109</valuemax>
								<keyframe>
									<when>1032.86</when>
									<value>0.707946</value>
								</keyframe>
								<keyframe>
									<when>1041.86</when>
									<value>1.41254</value>
								</keyframe>
								<keyframe>
									<when>1178.39</when>
									<value>0.00141254</value>
								</keyframe>
								<keyframe>
									<when>1207.96</when>
									<value>0</value>
								</keyframe>
								<interpolation>
									<name>FCPCurve</name>
								</interpolation>
								<value>1</value>
							</parameter>
						</effect>
					</filter>
					<filter>
						<effect>
							<name>Audio Pan</name>
							<effectid>audiopan</effectid>
							<effectcategory>audiopan</effectcategory>
							<effecttype>audiopan</effecttype>
							<mediatype>audio</mediatype>
							<parameter>
								<name>Pan</name>
								<parameterid>pan</parameterid>
								<valuemin>-1</valuemin>
								<valuemax>1</valuemax>
								<value>0</value>
							</parameter>
						</effect>
					</filter>
					<sourcetrack>
						<mediatype>audio</mediatype>
						<trackindex>1</trackindex>
					</sourcetrack>
				</clipitem>
				<clipitem id="msub200012-3011-k1d3-002 40">
					<name>msub200012-3011-k1d3-002</name>
					<duration>8740</duration>
					<rate>
						<ntsc>FALSE</ntsc>
						<timebase>25</timebase>
					</rate>
					<in>1372</in>
					<out>1514</out>
					<start>32770</start>
					<end>32912</end>
					<subframeoffset>0</subframeoffset>
					<enabled>TRUE</enabled>
					<masterclipid>msub200012-3011-k1d3-002 1</masterclipid>
					<syncoffset>0</syncoffset>
					<logginginfo>
						<description>msub200012-3011-k1d3-002</description>
						<scene/>
						<shottake/>
						<lognote/>
						<good>FALSE</good>
					</logginginfo>
					<labels>
						<label>Good Take</label>
						<label2/>
					</labels>
					<comments>
						<mastercomment1>RÃ…STOFF. BR_FINFREDAG_MSUA_OPRO</mastercomment1>
						<mastercomment2/>
						<mastercomment3/>
						<mastercomment4/>
						<clipcommenta/>
					</comments>
					<file id="msub200012-3011-k1d3-002 2"/>
					<filter>
						<enabled>TRUE</enabled>
						<start>-1</start>
						<end>-1</end>
						<effect>
							<name>3 Band Equalizer - Kristine</name>
							<effecttype>filter</effecttype>
							<mediatype>audio</mediatype>
							<parameter>
								<parameterid>Low Frequency</parameterid>
								<name>Low Frequency</name>
								<valuemin>80</valuemin>
								<valuemax>2000</valuemax>
								<value>80</value>
							</parameter>
							<parameter>
								<parameterid>Low Gain(dB)</parameterid>
								<name>Low Gain(dB)</name>
								<valuemin>-20</valuemin>
								<valuemax>20</valuemax>
								<value>-4</value>
							</parameter>
							<parameter>
								<parameterid>Mid Frequency</parameterid>
								<name>Mid Frequency</name>
								<valuemin>400</valuemin>
								<valuemax>8000</valuemax>
								<value>3602</value>
							</parameter>
							<parameter>
								<parameterid>Mid Gain(dB)</parameterid>
								<name>Mid Gain(dB)</name>
								<valuemin>-20</valuemin>
								<valuemax>20</valuemax>
								<value>3</value>
							</parameter>
							<parameter>
								<parameterid>High Frequency</parameterid>
								<name>High Frequency</name>
								<valuemin>5000</valuemin>
								<valuemax>20000</valuemax>
								<value>10354</value>
							</parameter>
							<parameter>
								<parameterid>High Gain(dB)</parameterid>
								<name>High Gain(dB)</name>
								<valuemin>-20</valuemin>
								<valuemax>20</valuemax>
								<value>0</value>
							</parameter>
						</effect>
					</filter>
					<filter>
						<enabled>TRUE</enabled>
						<start>-1</start>
						<end>-1</end>
						<effect>
							<name>Compressor/Limiter</name>
							<effecttype>filter</effecttype>
							<mediatype>audio</mediatype>
							<parameter>
								<parameterid>Threshold(dB)</parameterid>
								<name>Threshold(dB)</name>
								<valuemin>-90</valuemin>
								<valuemax>0</valuemax>
								<value>-20</value>
							</parameter>
							<parameter>
								<parameterid>Ratio</parameterid>
								<name>Ratio</name>
								<valuemin>1</valuemin>
								<valuemax>100</valuemax>
								<value>2</value>
							</parameter>
							<parameter>
								<parameterid>Attack Time</parameterid>
								<name>Attack Time</name>
								<valuemin>1</valuemin>
								<valuemax>100</valuemax>
								<value>5</value>
							</parameter>
							<parameter>
								<parameterid>Release Time</parameterid>
								<name>Release Time</name>
								<valuemin>1</valuemin>
								<valuemax>4000</valuemax>
								<value>209</value>
							</parameter>
							<parameter>
								<parameterid>Preserve Volume</parameterid>
								<name>Preserve Volume</name>
								<value>TRUE</value>
							</parameter>
						</effect>
					</filter>
					<filter>
						<effect>
							<name>Audio Levels</name>
							<effectid>audiolevels</effectid>
							<effectcategory>audiolevels</effectcategory>
							<effecttype>audiolevels</effecttype>
							<mediatype>audio</mediatype>
							<parameter>
								<name>Level</name>
								<parameterid>level</parameterid>
								<valuemin>0</valuemin>
								<valuemax>3.98109</valuemax>
								<keyframe>
									<when>1373.84</when>
									<value>0</value>
								</keyframe>
								<keyframe>
									<when>1374.64</when>
									<value>1</value>
								</keyframe>
								<keyframe>
									<when>1425.84</when>
									<value>1</value>
								</keyframe>
								<keyframe>
									<when>1427.61</when>
									<value>1.41254</value>
								</keyframe>
								<keyframe>
									<when>1457.34</when>
									<value>1.41254</value>
								</keyframe>
								<keyframe>
									<when>1462.64</when>
									<value>1.41254</value>
								</keyframe>
								<interpolation>
									<name>FCPCurve</name>
								</interpolation>
								<value>1.41254</value>
							</parameter>
						</effect>
					</filter>
					<filter>
						<effect>
							<name>Audio Pan</name>
							<effectid>audiopan</effectid>
							<effectcategory>audiopan</effectcategory>
							<effecttype>audiopan</effecttype>
							<mediatype>audio</mediatype>
							<parameter>
								<name>Pan</name>
								<parameterid>pan</parameterid>
								<valuemin>-1</valuemin>
								<valuemax>1</valuemax>
								<value>0</value>
							</parameter>
						</effect>
					</filter>
					<sourcetrack>
						<mediatype>audio</mediatype>
						<trackindex>1</trackindex>
					</sourcetrack>
				</clipitem>
				<clipitem id="msub200012-3011-k1d3-002 41">
					<name>msub200012-3011-k1d3-002</name>
					<duration>8740</duration>
					<rate>
						<ntsc>FALSE</ntsc>
						<timebase>25</timebase>
					</rate>
					<in>3125</in>
					<out>3195</out>
					<start>32924</start>
					<end>32994</end>
					<subframeoffset>0</subframeoffset>
					<enabled>TRUE</enabled>
					<masterclipid>msub200012-3011-k1d3-002 1</masterclipid>
					<syncoffset>0</syncoffset>
					<logginginfo>
						<description>msub200012-3011-k1d3-002</description>
						<scene/>
						<shottake/>
						<lognote/>
						<good>FALSE</good>
					</logginginfo>
					<labels>
						<label>Good Take</label>
						<label2/>
					</labels>
					<comments>
						<mastercomment1>RÃ…STOFF. BR_FINFREDAG_MSUA_OPRO</mastercomment1>
						<mastercomment2/>
						<mastercomment3/>
						<mastercomment4/>
						<clipcommenta/>
					</comments>
					<file id="msub200012-3011-k1d3-002 2"/>
					<filter>
						<enabled>TRUE</enabled>
						<start>-1</start>
						<end>-1</end>
						<effect>
							<name>3 Band Equalizer - Kristine</name>
							<effecttype>filter</effecttype>
							<mediatype>audio</mediatype>
							<parameter>
								<parameterid>Low Frequency</parameterid>
								<name>Low Frequency</name>
								<valuemin>80</valuemin>
								<valuemax>2000</valuemax>
								<value>80</value>
							</parameter>
							<parameter>
								<parameterid>Low Gain(dB)</parameterid>
								<name>Low Gain(dB)</name>
								<valuemin>-20</valuemin>
								<valuemax>20</valuemax>
								<value>-4</value>
							</parameter>
							<parameter>
								<parameterid>Mid Frequency</parameterid>
								<name>Mid Frequency</name>
								<valuemin>400</valuemin>
								<valuemax>8000</valuemax>
								<value>3602</value>
							</parameter>
							<parameter>
								<parameterid>Mid Gain(dB)</parameterid>
								<name>Mid Gain(dB)</name>
								<valuemin>-20</valuemin>
								<valuemax>20</valuemax>
								<value>3</value>
							</parameter>
							<parameter>
								<parameterid>High Frequency</parameterid>
								<name>High Frequency</name>
								<valuemin>5000</valuemin>
								<valuemax>20000</valuemax>
								<value>10354</value>
							</parameter>
							<parameter>
								<parameterid>High Gain(dB)</parameterid>
								<name>High Gain(dB)</name>
								<valuemin>-20</valuemin>
								<valuemax>20</valuemax>
								<value>0</value>
							</parameter>
						</effect>
					</filter>
					<filter>
						<enabled>TRUE</enabled>
						<start>-1</start>
						<end>-1</end>
						<effect>
							<name>Compressor/Limiter</name>
							<effecttype>filter</effecttype>
							<mediatype>audio</mediatype>
							<parameter>
								<parameterid>Threshold(dB)</parameterid>
								<name>Threshold(dB)</name>
								<valuemin>-90</valuemin>
								<valuemax>0</valuemax>
								<value>-20</value>
							</parameter>
							<parameter>
								<parameterid>Ratio</parameterid>
								<name>Ratio</name>
								<valuemin>1</valuemin>
								<valuemax>100</valuemax>
								<value>2</value>
							</parameter>
							<parameter>
								<parameterid>Attack Time</parameterid>
								<name>Attack Time</name>
								<valuemin>1</valuemin>
								<valuemax>100</valuemax>
								<value>5</value>
							</parameter>
							<parameter>
								<parameterid>Release Time</parameterid>
								<name>Release Time</name>
								<valuemin>1</valuemin>
								<valuemax>4000</valuemax>
								<value>209</value>
							</parameter>
							<parameter>
								<parameterid>Preserve Volume</parameterid>
								<name>Preserve Volume</name>
								<value>TRUE</value>
							</parameter>
						</effect>
					</filter>
					<filter>
						<effect>
							<name>Audio Levels</name>
							<effectid>audiolevels</effectid>
							<effectcategory>audiolevels</effectcategory>
							<effecttype>audiolevels</effecttype>
							<mediatype>audio</mediatype>
							<parameter>
								<name>Level</name>
								<parameterid>level</parameterid>
								<valuemin>0</valuemin>
								<valuemax>3.98109</valuemax>
								<keyframe>
									<when>1373.84</when>
									<value>0</value>
								</keyframe>
								<keyframe>
									<when>1374.64</when>
									<value>1</value>
								</keyframe>
								<keyframe>
									<when>1425.84</when>
									<value>1</value>
								</keyframe>
								<keyframe>
									<when>1427.61</when>
									<value>1.41254</value>
								</keyframe>
								<keyframe>
									<when>1457.34</when>
									<value>1.41254</value>
								</keyframe>
								<keyframe>
									<when>1462.64</when>
									<value>1.41254</value>
								</keyframe>
								<interpolation>
									<name>FCPCurve</name>
								</interpolation>
								<value>1.41254</value>
							</parameter>
						</effect>
					</filter>
					<filter>
						<effect>
							<name>Audio Pan</name>
							<effectid>audiopan</effectid>
							<effectcategory>audiopan</effectcategory>
							<effecttype>audiopan</effecttype>
							<mediatype>audio</mediatype>
							<parameter>
								<name>Pan</name>
								<parameterid>pan</parameterid>
								<valuemin>-1</valuemin>
								<valuemax>1</valuemax>
								<value>0</value>
							</parameter>
						</effect>
					</filter>
					<sourcetrack>
						<mediatype>audio</mediatype>
						<trackindex>1</trackindex>
					</sourcetrack>
				</clipitem>
				<clipitem id="msub200012-3011-k1d3-002 42">
					<name>msub200012-3011-k1d3-002</name>
					<duration>8740</duration>
					<rate>
						<ntsc>FALSE</ntsc>
						<timebase>25</timebase>
					</rate>
					<in>3223</in>
					<out>3250</out>
					<start>32994</start>
					<end>33021</end>
					<subframeoffset>0</subframeoffset>
					<enabled>TRUE</enabled>
					<masterclipid>msub200012-3011-k1d3-002 1</masterclipid>
					<syncoffset>0</syncoffset>
					<logginginfo>
						<description>msub200012-3011-k1d3-002</description>
						<scene/>
						<shottake/>
						<lognote/>
						<good>FALSE</good>
					</logginginfo>
					<labels>
						<label>Good Take</label>
						<label2/>
					</labels>
					<comments>
						<mastercomment1>RÃ…STOFF. BR_FINFREDAG_MSUA_OPRO</mastercomment1>
						<mastercomment2/>
						<mastercomment3/>
						<mastercomment4/>
						<clipcommenta/>
					</comments>
					<file id="msub200012-3011-k1d3-002 2"/>
					<filter>
						<enabled>TRUE</enabled>
						<start>-1</start>
						<end>-1</end>
						<effect>
							<name>3 Band Equalizer - Kristine</name>
							<effecttype>filter</effecttype>
							<mediatype>audio</mediatype>
							<parameter>
								<parameterid>Low Frequency</parameterid>
								<name>Low Frequency</name>
								<valuemin>80</valuemin>
								<valuemax>2000</valuemax>
								<value>80</value>
							</parameter>
							<parameter>
								<parameterid>Low Gain(dB)</parameterid>
								<name>Low Gain(dB)</name>
								<valuemin>-20</valuemin>
								<valuemax>20</valuemax>
								<value>-4</value>
							</parameter>
							<parameter>
								<parameterid>Mid Frequency</parameterid>
								<name>Mid Frequency</name>
								<valuemin>400</valuemin>
								<valuemax>8000</valuemax>
								<value>3602</value>
							</parameter>
							<parameter>
								<parameterid>Mid Gain(dB)</parameterid>
								<name>Mid Gain(dB)</name>
								<valuemin>-20</valuemin>
								<valuemax>20</valuemax>
								<value>3</value>
							</parameter>
							<parameter>
								<parameterid>High Frequency</parameterid>
								<name>High Frequency</name>
								<valuemin>5000</valuemin>
								<valuemax>20000</valuemax>
								<value>10354</value>
							</parameter>
							<parameter>
								<parameterid>High Gain(dB)</parameterid>
								<name>High Gain(dB)</name>
								<valuemin>-20</valuemin>
								<valuemax>20</valuemax>
								<value>0</value>
							</parameter>
						</effect>
					</filter>
					<filter>
						<enabled>TRUE</enabled>
						<start>-1</start>
						<end>-1</end>
						<effect>
							<name>Compressor/Limiter</name>
							<effecttype>filter</effecttype>
							<mediatype>audio</mediatype>
							<parameter>
								<parameterid>Threshold(dB)</parameterid>
								<name>Threshold(dB)</name>
								<valuemin>-90</valuemin>
								<valuemax>0</valuemax>
								<value>-20</value>
							</parameter>
							<parameter>
								<parameterid>Ratio</parameterid>
								<name>Ratio</name>
								<valuemin>1</valuemin>
								<valuemax>100</valuemax>
								<value>2</value>
							</parameter>
							<parameter>
								<parameterid>Attack Time</parameterid>
								<name>Attack Time</name>
								<valuemin>1</valuemin>
								<valuemax>100</valuemax>
								<value>5</value>
							</parameter>
							<parameter>
								<parameterid>Release Time</parameterid>
								<name>Release Time</name>
								<valuemin>1</valuemin>
								<valuemax>4000</valuemax>
								<value>209</value>
							</parameter>
							<parameter>
								<parameterid>Preserve Volume</parameterid>
								<name>Preserve Volume</name>
								<value>TRUE</value>
							</parameter>
						</effect>
					</filter>
					<filter>
						<effect>
							<name>Audio Levels</name>
							<effectid>audiolevels</effectid>
							<effectcategory>audiolevels</effectcategory>
							<effecttype>audiolevels</effecttype>
							<mediatype>audio</mediatype>
							<parameter>
								<name>Level</name>
								<parameterid>level</parameterid>
								<valuemin>0</valuemin>
								<valuemax>3.98109</valuemax>
								<keyframe>
									<when>1373.84</when>
									<value>0</value>
								</keyframe>
								<keyframe>
									<when>1374.64</when>
									<value>1</value>
								</keyframe>
								<keyframe>
									<when>1425.84</when>
									<value>1</value>
								</keyframe>
								<keyframe>
									<when>1427.61</when>
									<value>1.41254</value>
								</keyframe>
								<keyframe>
									<when>1457.34</when>
									<value>1.41254</value>
								</keyframe>
								<keyframe>
									<when>1462.64</when>
									<value>1.99526</value>
								</keyframe>
								<interpolation>
									<name>FCPCurve</name>
								</interpolation>
								<value>1.41254</value>
							</parameter>
						</effect>
					</filter>
					<filter>
						<effect>
							<name>Audio Pan</name>
							<effectid>audiopan</effectid>
							<effectcategory>audiopan</effectcategory>
							<effecttype>audiopan</effecttype>
							<mediatype>audio</mediatype>
							<parameter>
								<name>Pan</name>
								<parameterid>pan</parameterid>
								<valuemin>-1</valuemin>
								<valuemax>1</valuemax>
								<value>0</value>
							</parameter>
						</effect>
					</filter>
					<sourcetrack>
						<mediatype>audio</mediatype>
						<trackindex>1</trackindex>
					</sourcetrack>
				</clipitem>
				<clipitem id="msub200012-3011-k1d3-002 43">
					<name>msub200012-3011-k1d3-002</name>
					<duration>8740</duration>
					<rate>
						<ntsc>FALSE</ntsc>
						<timebase>25</timebase>
					</rate>
					<in>3273</in>
					<out>3366</out>
					<start>33021</start>
					<end>33114</end>
					<subframeoffset>0</subframeoffset>
					<enabled>TRUE</enabled>
					<masterclipid>msub200012-3011-k1d3-002 1</masterclipid>
					<syncoffset>0</syncoffset>
					<logginginfo>
						<description>msub200012-3011-k1d3-002</description>
						<scene/>
						<shottake/>
						<lognote/>
						<good>FALSE</good>
					</logginginfo>
					<labels>
						<label>Good Take</label>
						<label2/>
					</labels>
					<comments>
						<mastercomment1>RÃ…STOFF. BR_FINFREDAG_MSUA_OPRO</mastercomment1>
						<mastercomment2/>
						<mastercomment3/>
						<mastercomment4/>
						<clipcommenta/>
					</comments>
					<file id="msub200012-3011-k1d3-002 2"/>
					<filter>
						<enabled>TRUE</enabled>
						<start>-1</start>
						<end>-1</end>
						<effect>
							<name>3 Band Equalizer - Kristine</name>
							<effecttype>filter</effecttype>
							<mediatype>audio</mediatype>
							<parameter>
								<parameterid>Low Frequency</parameterid>
								<name>Low Frequency</name>
								<valuemin>80</valuemin>
								<valuemax>2000</valuemax>
								<value>80</value>
							</parameter>
							<parameter>
								<parameterid>Low Gain(dB)</parameterid>
								<name>Low Gain(dB)</name>
								<valuemin>-20</valuemin>
								<valuemax>20</valuemax>
								<value>-4</value>
							</parameter>
							<parameter>
								<parameterid>Mid Frequency</parameterid>
								<name>Mid Frequency</name>
								<valuemin>400</valuemin>
								<valuemax>8000</valuemax>
								<value>3602</value>
							</parameter>
							<parameter>
								<parameterid>Mid Gain(dB)</parameterid>
								<name>Mid Gain(dB)</name>
								<valuemin>-20</valuemin>
								<valuemax>20</valuemax>
								<value>3</value>
							</parameter>
							<parameter>
								<parameterid>High Frequency</parameterid>
								<name>High Frequency</name>
								<valuemin>5000</valuemin>
								<valuemax>20000</valuemax>
								<value>10354</value>
							</parameter>
							<parameter>
								<parameterid>High Gain(dB)</parameterid>
								<name>High Gain(dB)</name>
								<valuemin>-20</valuemin>
								<valuemax>20</valuemax>
								<value>0</value>
							</parameter>
						</effect>
					</filter>
					<filter>
						<enabled>TRUE</enabled>
						<start>-1</start>
						<end>-1</end>
						<effect>
							<name>Compressor/Limiter</name>
							<effecttype>filter</effecttype>
							<mediatype>audio</mediatype>
							<parameter>
								<parameterid>Threshold(dB)</parameterid>
								<name>Threshold(dB)</name>
								<valuemin>-90</valuemin>
								<valuemax>0</valuemax>
								<value>-20</value>
							</parameter>
							<parameter>
								<parameterid>Ratio</parameterid>
								<name>Ratio</name>
								<valuemin>1</valuemin>
								<valuemax>100</valuemax>
								<value>2</value>
							</parameter>
							<parameter>
								<parameterid>Attack Time</parameterid>
								<name>Attack Time</name>
								<valuemin>1</valuemin>
								<valuemax>100</valuemax>
								<value>5</value>
							</parameter>
							<parameter>
								<parameterid>Release Time</parameterid>
								<name>Release Time</name>
								<valuemin>1</valuemin>
								<valuemax>4000</valuemax>
								<value>209</value>
							</parameter>
							<parameter>
								<parameterid>Preserve Volume</parameterid>
								<name>Preserve Volume</name>
								<value>TRUE</value>
							</parameter>
						</effect>
					</filter>
					<filter>
						<effect>
							<name>Audio Levels</name>
							<effectid>audiolevels</effectid>
							<effectcategory>audiolevels</effectcategory>
							<effecttype>audiolevels</effecttype>
							<mediatype>audio</mediatype>
							<parameter>
								<name>Level</name>
								<parameterid>level</parameterid>
								<valuemin>0</valuemin>
								<valuemax>3.98109</valuemax>
								<keyframe>
									<when>1373.84</when>
									<value>0</value>
								</keyframe>
								<keyframe>
									<when>1374.64</when>
									<value>1</value>
								</keyframe>
								<keyframe>
									<when>1425.84</when>
									<value>1</value>
								</keyframe>
								<keyframe>
									<when>1427.61</when>
									<value>1.41254</value>
								</keyframe>
								<keyframe>
									<when>1457.34</when>
									<value>1.41254</value>
								</keyframe>
								<keyframe>
									<when>1462.64</when>
									<value>1.41254</value>
								</keyframe>
								<keyframe>
									<when>3388.21</when>
									<value>1.41254</value>
								</keyframe>
								<keyframe>
									<when>3390.36</when>
									<value>0.707946</value>
								</keyframe>
								<keyframe>
									<when>3391.86</when>
									<value>0.707946</value>
								</keyframe>
								<keyframe>
									<when>3393.57</when>
									<value>1.41254</value>
								</keyframe>
								<interpolation>
									<name>FCPCurve</name>
								</interpolation>
								<value>1.41254</value>
							</parameter>
						</effect>
					</filter>
					<filter>
						<effect>
							<name>Audio Pan</name>
							<effectid>audiopan</effectid>
							<effectcategory>audiopan</effectcategory>
							<effecttype>audiopan</effecttype>
							<mediatype>audio</mediatype>
							<parameter>
								<name>Pan</name>
								<parameterid>pan</parameterid>
								<valuemin>-1</valuemin>
								<valuemax>1</valuemax>
								<value>0</value>
							</parameter>
						</effect>
					</filter>
					<sourcetrack>
						<mediatype>audio</mediatype>
						<trackindex>1</trackindex>
					</sourcetrack>
				</clipitem>
				<clipitem id="msub200012-3011-k1d3-002 44">
					<name>msub200012-3011-k1d3-002</name>
					<duration>8740</duration>
					<rate>
						<ntsc>FALSE</ntsc>
						<timebase>25</timebase>
					</rate>
					<in>3366</in>
					<out>3453</out>
					<start>33114</start>
					<end>33201</end>
					<subframeoffset>0</subframeoffset>
					<enabled>TRUE</enabled>
					<masterclipid>msub200012-3011-k1d3-002 1</masterclipid>
					<syncoffset>0</syncoffset>
					<logginginfo>
						<description>msub200012-3011-k1d3-002</description>
						<scene/>
						<shottake/>
						<lognote/>
						<good>FALSE</good>
					</logginginfo>
					<labels>
						<label>Good Take</label>
						<label2/>
					</labels>
					<comments>
						<mastercomment1>RÃ…STOFF. BR_FINFREDAG_MSUA_OPRO</mastercomment1>
						<mastercomment2/>
						<mastercomment3/>
						<mastercomment4/>
						<clipcommenta/>
					</comments>
					<file id="msub200012-3011-k1d3-002 2"/>
					<filter>
						<enabled>TRUE</enabled>
						<start>-1</start>
						<end>-1</end>
						<effect>
							<name>3 Band Equalizer - Kristine</name>
							<effecttype>filter</effecttype>
							<mediatype>audio</mediatype>
							<parameter>
								<parameterid>Low Frequency</parameterid>
								<name>Low Frequency</name>
								<valuemin>80</valuemin>
								<valuemax>2000</valuemax>
								<value>80</value>
							</parameter>
							<parameter>
								<parameterid>Low Gain(dB)</parameterid>
								<name>Low Gain(dB)</name>
								<valuemin>-20</valuemin>
								<valuemax>20</valuemax>
								<value>-4</value>
							</parameter>
							<parameter>
								<parameterid>Mid Frequency</parameterid>
								<name>Mid Frequency</name>
								<valuemin>400</valuemin>
								<valuemax>8000</valuemax>
								<value>3602</value>
							</parameter>
							<parameter>
								<parameterid>Mid Gain(dB)</parameterid>
								<name>Mid Gain(dB)</name>
								<valuemin>-20</valuemin>
								<valuemax>20</valuemax>
								<value>3</value>
							</parameter>
							<parameter>
								<parameterid>High Frequency</parameterid>
								<name>High Frequency</name>
								<valuemin>5000</valuemin>
								<valuemax>20000</valuemax>
								<value>10354</value>
							</parameter>
							<parameter>
								<parameterid>High Gain(dB)</parameterid>
								<name>High Gain(dB)</name>
								<valuemin>-20</valuemin>
								<valuemax>20</valuemax>
								<value>0</value>
							</parameter>
						</effect>
					</filter>
					<filter>
						<enabled>TRUE</enabled>
						<start>-1</start>
						<end>-1</end>
						<effect>
							<name>Compressor/Limiter</name>
							<effecttype>filter</effecttype>
							<mediatype>audio</mediatype>
							<parameter>
								<parameterid>Threshold(dB)</parameterid>
								<name>Threshold(dB)</name>
								<valuemin>-90</valuemin>
								<valuemax>0</valuemax>
								<value>-20</value>
							</parameter>
							<parameter>
								<parameterid>Ratio</parameterid>
								<name>Ratio</name>
								<valuemin>1</valuemin>
								<valuemax>100</valuemax>
								<value>2</value>
							</parameter>
							<parameter>
								<parameterid>Attack Time</parameterid>
								<name>Attack Time</name>
								<valuemin>1</valuemin>
								<valuemax>100</valuemax>
								<value>5</value>
							</parameter>
							<parameter>
								<parameterid>Release Time</parameterid>
								<name>Release Time</name>
								<valuemin>1</valuemin>
								<valuemax>4000</valuemax>
								<value>209</value>
							</parameter>
							<parameter>
								<parameterid>Preserve Volume</parameterid>
								<name>Preserve Volume</name>
								<value>TRUE</value>
							</parameter>
						</effect>
					</filter>
					<filter>
						<effect>
							<name>Audio Levels</name>
							<effectid>audiolevels</effectid>
							<effectcategory>audiolevels</effectcategory>
							<effecttype>audiolevels</effecttype>
							<mediatype>audio</mediatype>
							<parameter>
								<name>Level</name>
								<parameterid>level</parameterid>
								<valuemin>0</valuemin>
								<valuemax>3.98109</valuemax>
								<keyframe>
									<when>1373.84</when>
									<value>0</value>
								</keyframe>
								<keyframe>
									<when>1374.64</when>
									<value>1</value>
								</keyframe>
								<keyframe>
									<when>1425.84</when>
									<value>1</value>
								</keyframe>
								<keyframe>
									<when>1427.61</when>
									<value>1.41254</value>
								</keyframe>
								<keyframe>
									<when>1457.34</when>
									<value>1.41254</value>
								</keyframe>
								<keyframe>
									<when>1462.64</when>
									<value>1.41254</value>
								</keyframe>
								<keyframe>
									<when>3388.21</when>
									<value>1.41254</value>
								</keyframe>
								<keyframe>
									<when>3390.36</when>
									<value>0.707946</value>
								</keyframe>
								<keyframe>
									<when>3391.86</when>
									<value>0.707946</value>
								</keyframe>
								<keyframe>
									<when>3393.57</when>
									<value>1.41254</value>
								</keyframe>
								<interpolation>
									<name>FCPCurve</name>
								</interpolation>
								<value>1.41254</value>
							</parameter>
						</effect>
					</filter>
					<filter>
						<effect>
							<name>Audio Pan</name>
							<effectid>audiopan</effectid>
							<effectcategory>audiopan</effectcategory>
							<effecttype>audiopan</effecttype>
							<mediatype>audio</mediatype>
							<parameter>
								<name>Pan</name>
								<parameterid>pan</parameterid>
								<valuemin>-1</valuemin>
								<valuemax>1</valuemax>
								<value>0</value>
							</parameter>
						</effect>
					</filter>
					<sourcetrack>
						<mediatype>audio</mediatype>
						<trackindex>1</trackindex>
					</sourcetrack>
				</clipitem>
				<clipitem id="msub200012-3011-k1d3-002 45">
					<name>msub200012-3011-k1d3-002</name>
					<duration>8740</duration>
					<rate>
						<ntsc>FALSE</ntsc>
						<timebase>25</timebase>
					</rate>
					<in>1638</in>
					<out>1687</out>
					<start>33253</start>
					<end>33302</end>
					<subframeoffset>0</subframeoffset>
					<enabled>TRUE</enabled>
					<masterclipid>msub200012-3011-k1d3-002 1</masterclipid>
					<syncoffset>0</syncoffset>
					<logginginfo>
						<description>msub200012-3011-k1d3-002</description>
						<scene/>
						<shottake/>
						<lognote/>
						<good>FALSE</good>
					</logginginfo>
					<labels>
						<label>Good Take</label>
						<label2/>
					</labels>
					<comments>
						<mastercomment1>RÃ…STOFF. BR_FINFREDAG_MSUA_OPRO</mastercomment1>
						<mastercomment2/>
						<mastercomment3/>
						<mastercomment4/>
						<clipcommenta/>
					</comments>
					<file id="msub200012-3011-k1d3-002 2"/>
					<filter>
						<enabled>TRUE</enabled>
						<start>-1</start>
						<end>-1</end>
						<effect>
							<name>3 Band Equalizer - Kristine</name>
							<effecttype>filter</effecttype>
							<mediatype>audio</mediatype>
							<parameter>
								<parameterid>Low Frequency</parameterid>
								<name>Low Frequency</name>
								<valuemin>80</valuemin>
								<valuemax>2000</valuemax>
								<value>80</value>
							</parameter>
							<parameter>
								<parameterid>Low Gain(dB)</parameterid>
								<name>Low Gain(dB)</name>
								<valuemin>-20</valuemin>
								<valuemax>20</valuemax>
								<value>-4</value>
							</parameter>
							<parameter>
								<parameterid>Mid Frequency</parameterid>
								<name>Mid Frequency</name>
								<valuemin>400</valuemin>
								<valuemax>8000</valuemax>
								<value>3602</value>
							</parameter>
							<parameter>
								<parameterid>Mid Gain(dB)</parameterid>
								<name>Mid Gain(dB)</name>
								<valuemin>-20</valuemin>
								<valuemax>20</valuemax>
								<value>3</value>
							</parameter>
							<parameter>
								<parameterid>High Frequency</parameterid>
								<name>High Frequency</name>
								<valuemin>5000</valuemin>
								<valuemax>20000</valuemax>
								<value>10354</value>
							</parameter>
							<parameter>
								<parameterid>High Gain(dB)</parameterid>
								<name>High Gain(dB)</name>
								<valuemin>-20</valuemin>
								<valuemax>20</valuemax>
								<value>0</value>
							</parameter>
						</effect>
					</filter>
					<filter>
						<enabled>TRUE</enabled>
						<start>-1</start>
						<end>-1</end>
						<effect>
							<name>Compressor/Limiter</name>
							<effecttype>filter</effecttype>
							<mediatype>audio</mediatype>
							<parameter>
								<parameterid>Threshold(dB)</parameterid>
								<name>Threshold(dB)</name>
								<valuemin>-90</valuemin>
								<valuemax>0</valuemax>
								<value>-20</value>
							</parameter>
							<parameter>
								<parameterid>Ratio</parameterid>
								<name>Ratio</name>
								<valuemin>1</valuemin>
								<valuemax>100</valuemax>
								<value>2</value>
							</parameter>
							<parameter>
								<parameterid>Attack Time</parameterid>
								<name>Attack Time</name>
								<valuemin>1</valuemin>
								<valuemax>100</valuemax>
								<value>5</value>
							</parameter>
							<parameter>
								<parameterid>Release Time</parameterid>
								<name>Release Time</name>
								<valuemin>1</valuemin>
								<valuemax>4000</valuemax>
								<value>209</value>
							</parameter>
							<parameter>
								<parameterid>Preserve Volume</parameterid>
								<name>Preserve Volume</name>
								<value>TRUE</value>
							</parameter>
						</effect>
					</filter>
					<filter>
						<effect>
							<name>Audio Levels</name>
							<effectid>audiolevels</effectid>
							<effectcategory>audiolevels</effectcategory>
							<effecttype>audiolevels</effecttype>
							<mediatype>audio</mediatype>
							<parameter>
								<name>Level</name>
								<parameterid>level</parameterid>
								<valuemin>0</valuemin>
								<valuemax>3.98109</valuemax>
								<keyframe>
									<when>1373.84</when>
									<value>0</value>
								</keyframe>
								<keyframe>
									<when>1374.64</when>
									<value>1</value>
								</keyframe>
								<keyframe>
									<when>1425.84</when>
									<value>1</value>
								</keyframe>
								<keyframe>
									<when>1427.61</when>
									<value>1.41254</value>
								</keyframe>
								<keyframe>
									<when>1457.34</when>
									<value>1.41254</value>
								</keyframe>
								<keyframe>
									<when>1462.64</when>
									<value>1.41254</value>
								</keyframe>
								<interpolation>
									<name>FCPCurve</name>
								</interpolation>
								<value>1.41254</value>
							</parameter>
						</effect>
					</filter>
					<filter>
						<effect>
							<name>Audio Pan</name>
							<effectid>audiopan</effectid>
							<effectcategory>audiopan</effectcategory>
							<effecttype>audiopan</effecttype>
							<mediatype>audio</mediatype>
							<parameter>
								<name>Pan</name>
								<parameterid>pan</parameterid>
								<valuemin>-1</valuemin>
								<valuemax>1</valuemax>
								<value>0</value>
							</parameter>
						</effect>
					</filter>
					<sourcetrack>
						<mediatype>audio</mediatype>
						<trackindex>1</trackindex>
					</sourcetrack>
				</clipitem>
				<clipitem id="msub200012-3011-k1d3-002 46">
					<name>msub200012-3011-k1d3-002</name>
					<duration>8740</duration>
					<rate>
						<ntsc>FALSE</ntsc>
						<timebase>25</timebase>
					</rate>
					<in>1687</in>
					<out>1725</out>
					<start>33302</start>
					<end>33340</end>
					<subframeoffset>0</subframeoffset>
					<enabled>TRUE</enabled>
					<masterclipid>msub200012-3011-k1d3-002 1</masterclipid>
					<syncoffset>0</syncoffset>
					<logginginfo>
						<description>msub200012-3011-k1d3-002</description>
						<scene/>
						<shottake/>
						<lognote/>
						<good>FALSE</good>
					</logginginfo>
					<labels>
						<label>Good Take</label>
						<label2/>
					</labels>
					<comments>
						<mastercomment1>RÃ…STOFF. BR_FINFREDAG_MSUA_OPRO</mastercomment1>
						<mastercomment2/>
						<mastercomment3/>
						<mastercomment4/>
						<clipcommenta/>
					</comments>
					<file id="msub200012-3011-k1d3-002 2"/>
					<filter>
						<enabled>TRUE</enabled>
						<start>-1</start>
						<end>-1</end>
						<effect>
							<name>3 Band Equalizer - Kristine</name>
							<effecttype>filter</effecttype>
							<mediatype>audio</mediatype>
							<parameter>
								<parameterid>Low Frequency</parameterid>
								<name>Low Frequency</name>
								<valuemin>80</valuemin>
								<valuemax>2000</valuemax>
								<value>80</value>
							</parameter>
							<parameter>
								<parameterid>Low Gain(dB)</parameterid>
								<name>Low Gain(dB)</name>
								<valuemin>-20</valuemin>
								<valuemax>20</valuemax>
								<value>-4</value>
							</parameter>
							<parameter>
								<parameterid>Mid Frequency</parameterid>
								<name>Mid Frequency</name>
								<valuemin>400</valuemin>
								<valuemax>8000</valuemax>
								<value>3602</value>
							</parameter>
							<parameter>
								<parameterid>Mid Gain(dB)</parameterid>
								<name>Mid Gain(dB)</name>
								<valuemin>-20</valuemin>
								<valuemax>20</valuemax>
								<value>3</value>
							</parameter>
							<parameter>
								<parameterid>High Frequency</parameterid>
								<name>High Frequency</name>
								<valuemin>5000</valuemin>
								<valuemax>20000</valuemax>
								<value>10354</value>
							</parameter>
							<parameter>
								<parameterid>High Gain(dB)</parameterid>
								<name>High Gain(dB)</name>
								<valuemin>-20</valuemin>
								<valuemax>20</valuemax>
								<value>0</value>
							</parameter>
						</effect>
					</filter>
					<filter>
						<enabled>TRUE</enabled>
						<start>-1</start>
						<end>-1</end>
						<effect>
							<name>Compressor/Limiter</name>
							<effecttype>filter</effecttype>
							<mediatype>audio</mediatype>
							<parameter>
								<parameterid>Threshold(dB)</parameterid>
								<name>Threshold(dB)</name>
								<valuemin>-90</valuemin>
								<valuemax>0</valuemax>
								<value>-20</value>
							</parameter>
							<parameter>
								<parameterid>Ratio</parameterid>
								<name>Ratio</name>
								<valuemin>1</valuemin>
								<valuemax>100</valuemax>
								<value>2</value>
							</parameter>
							<parameter>
								<parameterid>Attack Time</parameterid>
								<name>Attack Time</name>
								<valuemin>1</valuemin>
								<valuemax>100</valuemax>
								<value>5</value>
							</parameter>
							<parameter>
								<parameterid>Release Time</parameterid>
								<name>Release Time</name>
								<valuemin>1</valuemin>
								<valuemax>4000</valuemax>
								<value>209</value>
							</parameter>
							<parameter>
								<parameterid>Preserve Volume</parameterid>
								<name>Preserve Volume</name>
								<value>TRUE</value>
							</parameter>
						</effect>
					</filter>
					<filter>
						<effect>
							<name>Audio Levels</name>
							<effectid>audiolevels</effectid>
							<effectcategory>audiolevels</effectcategory>
							<effecttype>audiolevels</effecttype>
							<mediatype>audio</mediatype>
							<parameter>
								<name>Level</name>
								<parameterid>level</parameterid>
								<valuemin>0</valuemin>
								<valuemax>3.98109</valuemax>
								<keyframe>
									<when>1373.84</when>
									<value>0</value>
								</keyframe>
								<keyframe>
									<when>1374.64</when>
									<value>1</value>
								</keyframe>
								<keyframe>
									<when>1425.84</when>
									<value>1</value>
								</keyframe>
								<keyframe>
									<when>1427.61</when>
									<value>1.41254</value>
								</keyframe>
								<keyframe>
									<when>1457.34</when>
									<value>1.41254</value>
								</keyframe>
								<keyframe>
									<when>1462.64</when>
									<value>1.41254</value>
								</keyframe>
								<interpolation>
									<name>FCPCurve</name>
								</interpolation>
								<value>1.41254</value>
							</parameter>
						</effect>
					</filter>
					<filter>
						<effect>
							<name>Audio Pan</name>
							<effectid>audiopan</effectid>
							<effectcategory>audiopan</effectcategory>
							<effecttype>audiopan</effecttype>
							<mediatype>audio</mediatype>
							<parameter>
								<name>Pan</name>
								<parameterid>pan</parameterid>
								<valuemin>-1</valuemin>
								<valuemax>1</valuemax>
								<value>0</value>
							</parameter>
						</effect>
					</filter>
					<sourcetrack>
						<mediatype>audio</mediatype>
						<trackindex>1</trackindex>
					</sourcetrack>
				</clipitem>
				<clipitem id="msub200012-3011-k1d3-002 47">
					<name>msub200012-3011-k1d3-002</name>
					<duration>8740</duration>
					<rate>
						<ntsc>FALSE</ntsc>
						<timebase>25</timebase>
					</rate>
					<in>1725</in>
					<out>1931</out>
					<start>33340</start>
					<end>33546</end>
					<subframeoffset>0</subframeoffset>
					<enabled>TRUE</enabled>
					<masterclipid>msub200012-3011-k1d3-002 1</masterclipid>
					<syncoffset>0</syncoffset>
					<logginginfo>
						<description>msub200012-3011-k1d3-002</description>
						<scene/>
						<shottake/>
						<lognote/>
						<good>FALSE</good>
					</logginginfo>
					<labels>
						<label>Good Take</label>
						<label2/>
					</labels>
					<comments>
						<mastercomment1>RÃ…STOFF. BR_FINFREDAG_MSUA_OPRO</mastercomment1>
						<mastercomment2/>
						<mastercomment3/>
						<mastercomment4/>
						<clipcommenta/>
					</comments>
					<file id="msub200012-3011-k1d3-002 2"/>
					<filter>
						<enabled>TRUE</enabled>
						<start>-1</start>
						<end>-1</end>
						<effect>
							<name>3 Band Equalizer - Kristine</name>
							<effecttype>filter</effecttype>
							<mediatype>audio</mediatype>
							<parameter>
								<parameterid>Low Frequency</parameterid>
								<name>Low Frequency</name>
								<valuemin>80</valuemin>
								<valuemax>2000</valuemax>
								<value>80</value>
							</parameter>
							<parameter>
								<parameterid>Low Gain(dB)</parameterid>
								<name>Low Gain(dB)</name>
								<valuemin>-20</valuemin>
								<valuemax>20</valuemax>
								<value>-4</value>
							</parameter>
							<parameter>
								<parameterid>Mid Frequency</parameterid>
								<name>Mid Frequency</name>
								<valuemin>400</valuemin>
								<valuemax>8000</valuemax>
								<value>3602</value>
							</parameter>
							<parameter>
								<parameterid>Mid Gain(dB)</parameterid>
								<name>Mid Gain(dB)</name>
								<valuemin>-20</valuemin>
								<valuemax>20</valuemax>
								<value>3</value>
							</parameter>
							<parameter>
								<parameterid>High Frequency</parameterid>
								<name>High Frequency</name>
								<valuemin>5000</valuemin>
								<valuemax>20000</valuemax>
								<value>10354</value>
							</parameter>
							<parameter>
								<parameterid>High Gain(dB)</parameterid>
								<name>High Gain(dB)</name>
								<valuemin>-20</valuemin>
								<valuemax>20</valuemax>
								<value>0</value>
							</parameter>
						</effect>
					</filter>
					<filter>
						<enabled>TRUE</enabled>
						<start>-1</start>
						<end>-1</end>
						<effect>
							<name>Compressor/Limiter</name>
							<effecttype>filter</effecttype>
							<mediatype>audio</mediatype>
							<parameter>
								<parameterid>Threshold(dB)</parameterid>
								<name>Threshold(dB)</name>
								<valuemin>-90</valuemin>
								<valuemax>0</valuemax>
								<value>-20</value>
							</parameter>
							<parameter>
								<parameterid>Ratio</parameterid>
								<name>Ratio</name>
								<valuemin>1</valuemin>
								<valuemax>100</valuemax>
								<value>2</value>
							</parameter>
							<parameter>
								<parameterid>Attack Time</parameterid>
								<name>Attack Time</name>
								<valuemin>1</valuemin>
								<valuemax>100</valuemax>
								<value>5</value>
							</parameter>
							<parameter>
								<parameterid>Release Time</parameterid>
								<name>Release Time</name>
								<valuemin>1</valuemin>
								<valuemax>4000</valuemax>
								<value>209</value>
							</parameter>
							<parameter>
								<parameterid>Preserve Volume</parameterid>
								<name>Preserve Volume</name>
								<value>TRUE</value>
							</parameter>
						</effect>
					</filter>
					<filter>
						<effect>
							<name>Audio Levels</name>
							<effectid>audiolevels</effectid>
							<effectcategory>audiolevels</effectcategory>
							<effecttype>audiolevels</effecttype>
							<mediatype>audio</mediatype>
							<parameter>
								<name>Level</name>
								<parameterid>level</parameterid>
								<valuemin>0</valuemin>
								<valuemax>3.98109</valuemax>
								<keyframe>
									<when>1373.84</when>
									<value>0</value>
								</keyframe>
								<keyframe>
									<when>1374.64</when>
									<value>1</value>
								</keyframe>
								<keyframe>
									<when>1425.84</when>
									<value>1</value>
								</keyframe>
								<keyframe>
									<when>1427.61</when>
									<value>1.41254</value>
								</keyframe>
								<keyframe>
									<when>1457.34</when>
									<value>1.41254</value>
								</keyframe>
								<keyframe>
									<when>1462.64</when>
									<value>2.51189</value>
								</keyframe>
								<keyframe>
									<when>1755.64</when>
									<value>1.99526</value>
								</keyframe>
								<keyframe>
									<when>1760.36</when>
									<value>3.54813</value>
								</keyframe>
								<keyframe>
									<when>1779.21</when>
									<value>2.51189</value>
								</keyframe>
								<keyframe>
									<when>1823.86</when>
									<value>2.51189</value>
								</keyframe>
								<keyframe>
									<when>1843.14</when>
									<value>0</value>
								</keyframe>
								<interpolation>
									<name>FCPCurve</name>
								</interpolation>
								<value>1.41254</value>
							</parameter>
						</effect>
					</filter>
					<filter>
						<effect>
							<name>Audio Pan</name>
							<effectid>audiopan</effectid>
							<effectcategory>audiopan</effectcategory>
							<effecttype>audiopan</effecttype>
							<mediatype>audio</mediatype>
							<parameter>
								<name>Pan</name>
								<parameterid>pan</parameterid>
								<valuemin>-1</valuemin>
								<valuemax>1</valuemax>
								<value>0</value>
							</parameter>
						</effect>
					</filter>
					<sourcetrack>
						<mediatype>audio</mediatype>
						<trackindex>1</trackindex>
					</sourcetrack>
				</clipitem>
				<transitionitem id="39164780 ">
					<rate>
						<ntsc>FALSE</ntsc>
						<timebase>25</timebase>
					</rate>
					<start>33567</start>
					<end>33573</end>
					<alignment>start-black</alignment>
					<effect>
						<name>Cross Fade (+3dB) Copy</name>
						<effecttype>transition</effecttype>
						<mediatype>audio</mediatype>
					</effect>
				</transitionitem>
				<clipitem id="msub200012-3011-k1d3-002 48">
					<name>msub200012-3011-k1d3-002</name>
					<duration>8740</duration>
					<rate>
						<ntsc>FALSE</ntsc>
						<timebase>25</timebase>
					</rate>
					<in>1931</in>
					<out>1998</out>
					<start>-1</start>
					<end>33634</end>
					<subframeoffset>0</subframeoffset>
					<enabled>TRUE</enabled>
					<masterclipid>msub200012-3011-k1d3-002 1</masterclipid>
					<syncoffset>0</syncoffset>
					<logginginfo>
						<description>msub200012-3011-k1d3-002</description>
						<scene/>
						<shottake/>
						<lognote/>
						<good>FALSE</good>
					</logginginfo>
					<labels>
						<label>Good Take</label>
						<label2/>
					</labels>
					<comments>
						<mastercomment1>RÃ…STOFF. BR_FINFREDAG_MSUA_OPRO</mastercomment1>
						<mastercomment2/>
						<mastercomment3/>
						<mastercomment4/>
						<clipcommenta/>
					</comments>
					<file id="msub200012-3011-k1d3-002 2"/>
					<filter>
						<enabled>TRUE</enabled>
						<start>-1</start>
						<end>-1</end>
						<effect>
							<name>3 Band Equalizer - Kristine</name>
							<effecttype>filter</effecttype>
							<mediatype>audio</mediatype>
							<parameter>
								<parameterid>Low Frequency</parameterid>
								<name>Low Frequency</name>
								<valuemin>80</valuemin>
								<valuemax>2000</valuemax>
								<value>80</value>
							</parameter>
							<parameter>
								<parameterid>Low Gain(dB)</parameterid>
								<name>Low Gain(dB)</name>
								<valuemin>-20</valuemin>
								<valuemax>20</valuemax>
								<value>-4</value>
							</parameter>
							<parameter>
								<parameterid>Mid Frequency</parameterid>
								<name>Mid Frequency</name>
								<valuemin>400</valuemin>
								<valuemax>8000</valuemax>
								<value>3602</value>
							</parameter>
							<parameter>
								<parameterid>Mid Gain(dB)</parameterid>
								<name>Mid Gain(dB)</name>
								<valuemin>-20</valuemin>
								<valuemax>20</valuemax>
								<value>3</value>
							</parameter>
							<parameter>
								<parameterid>High Frequency</parameterid>
								<name>High Frequency</name>
								<valuemin>5000</valuemin>
								<valuemax>20000</valuemax>
								<value>10354</value>
							</parameter>
							<parameter>
								<parameterid>High Gain(dB)</parameterid>
								<name>High Gain(dB)</name>
								<valuemin>-20</valuemin>
								<valuemax>20</valuemax>
								<value>0</value>
							</parameter>
						</effect>
					</filter>
					<filter>
						<enabled>TRUE</enabled>
						<start>-1</start>
						<end>-1</end>
						<effect>
							<name>Compressor/Limiter</name>
							<effecttype>filter</effecttype>
							<mediatype>audio</mediatype>
							<parameter>
								<parameterid>Threshold(dB)</parameterid>
								<name>Threshold(dB)</name>
								<valuemin>-90</valuemin>
								<valuemax>0</valuemax>
								<value>-20</value>
							</parameter>
							<parameter>
								<parameterid>Ratio</parameterid>
								<name>Ratio</name>
								<valuemin>1</valuemin>
								<valuemax>100</valuemax>
								<value>2</value>
							</parameter>
							<parameter>
								<parameterid>Attack Time</parameterid>
								<name>Attack Time</name>
								<valuemin>1</valuemin>
								<valuemax>100</valuemax>
								<value>5</value>
							</parameter>
							<parameter>
								<parameterid>Release Time</parameterid>
								<name>Release Time</name>
								<valuemin>1</valuemin>
								<valuemax>4000</valuemax>
								<value>209</value>
							</parameter>
							<parameter>
								<parameterid>Preserve Volume</parameterid>
								<name>Preserve Volume</name>
								<value>TRUE</value>
							</parameter>
						</effect>
					</filter>
					<filter>
						<effect>
							<name>Audio Levels</name>
							<effectid>audiolevels</effectid>
							<effectcategory>audiolevels</effectcategory>
							<effecttype>audiolevels</effecttype>
							<mediatype>audio</mediatype>
							<parameter>
								<name>Level</name>
								<parameterid>level</parameterid>
								<valuemin>0</valuemin>
								<valuemax>3.98109</valuemax>
								<keyframe>
									<when>1373.84</when>
									<value>0</value>
								</keyframe>
								<keyframe>
									<when>1374.64</when>
									<value>1</value>
								</keyframe>
								<keyframe>
									<when>1425.84</when>
									<value>1</value>
								</keyframe>
								<keyframe>
									<when>1427.61</when>
									<value>1.41254</value>
								</keyframe>
								<keyframe>
									<when>1457.34</when>
									<value>1.41254</value>
								</keyframe>
								<keyframe>
									<when>1462.64</when>
									<value>1.41254</value>
								</keyframe>
								<keyframe>
									<when>1887.5</when>
									<value>1.41254</value>
								</keyframe>
								<keyframe>
									<when>1893.93</when>
									<value>1.25893</value>
								</keyframe>
								<keyframe>
									<when>2062.71</when>
									<value>1.25893</value>
								</keyframe>
								<keyframe>
									<when>2066.14</when>
									<value>0.794328</value>
								</keyframe>
								<keyframe>
									<when>2072.14</when>
									<value>0.794328</value>
								</keyframe>
								<keyframe>
									<when>2074.71</when>
									<value>1.41254</value>
								</keyframe>
								<keyframe>
									<when>2121.79</when>
									<value>1.41254</value>
								</keyframe>
								<keyframe>
									<when>2126.89</when>
									<value>0</value>
								</keyframe>
								<interpolation>
									<name>FCPCurve</name>
								</interpolation>
								<value>1.41254</value>
							</parameter>
						</effect>
					</filter>
					<filter>
						<effect>
							<name>Audio Pan</name>
							<effectid>audiopan</effectid>
							<effectcategory>audiopan</effectcategory>
							<effecttype>audiopan</effecttype>
							<mediatype>audio</mediatype>
							<parameter>
								<name>Pan</name>
								<parameterid>pan</parameterid>
								<valuemin>-1</valuemin>
								<valuemax>1</valuemax>
								<value>0</value>
							</parameter>
						</effect>
					</filter>
					<sourcetrack>
						<mediatype>audio</mediatype>
						<trackindex>1</trackindex>
					</sourcetrack>
				</clipitem>
				<clipitem id="msub200012-3011-k1d3-002 49">
					<name>msub200012-3011-k1d3-002</name>
					<duration>8740</duration>
					<rate>
						<ntsc>FALSE</ntsc>
						<timebase>25</timebase>
					</rate>
					<in>1998</in>
					<out>2073</out>
					<start>33634</start>
					<end>-1</end>
					<subframeoffset>0</subframeoffset>
					<enabled>TRUE</enabled>
					<masterclipid>msub200012-3011-k1d3-002 1</masterclipid>
					<syncoffset>0</syncoffset>
					<logginginfo>
						<description>msub200012-3011-k1d3-002</description>
						<scene/>
						<shottake/>
						<lognote/>
						<good>FALSE</good>
					</logginginfo>
					<labels>
						<label>Good Take</label>
						<label2/>
					</labels>
					<comments>
						<mastercomment1>RÃ…STOFF. BR_FINFREDAG_MSUA_OPRO</mastercomment1>
						<mastercomment2/>
						<mastercomment3/>
						<mastercomment4/>
						<clipcommenta/>
					</comments>
					<file id="msub200012-3011-k1d3-002 2"/>
					<filter>
						<enabled>TRUE</enabled>
						<start>-1</start>
						<end>-1</end>
						<effect>
							<name>3 Band Equalizer - Kristine</name>
							<effecttype>filter</effecttype>
							<mediatype>audio</mediatype>
							<parameter>
								<parameterid>Low Frequency</parameterid>
								<name>Low Frequency</name>
								<valuemin>80</valuemin>
								<valuemax>2000</valuemax>
								<value>80</value>
							</parameter>
							<parameter>
								<parameterid>Low Gain(dB)</parameterid>
								<name>Low Gain(dB)</name>
								<valuemin>-20</valuemin>
								<valuemax>20</valuemax>
								<value>-4</value>
							</parameter>
							<parameter>
								<parameterid>Mid Frequency</parameterid>
								<name>Mid Frequency</name>
								<valuemin>400</valuemin>
								<valuemax>8000</valuemax>
								<value>3602</value>
							</parameter>
							<parameter>
								<parameterid>Mid Gain(dB)</parameterid>
								<name>Mid Gain(dB)</name>
								<valuemin>-20</valuemin>
								<valuemax>20</valuemax>
								<value>3</value>
							</parameter>
							<parameter>
								<parameterid>High Frequency</parameterid>
								<name>High Frequency</name>
								<valuemin>5000</valuemin>
								<valuemax>20000</valuemax>
								<value>10354</value>
							</parameter>
							<parameter>
								<parameterid>High Gain(dB)</parameterid>
								<name>High Gain(dB)</name>
								<valuemin>-20</valuemin>
								<valuemax>20</valuemax>
								<value>0</value>
							</parameter>
						</effect>
					</filter>
					<filter>
						<enabled>TRUE</enabled>
						<start>-1</start>
						<end>-1</end>
						<effect>
							<name>Compressor/Limiter</name>
							<effecttype>filter</effecttype>
							<mediatype>audio</mediatype>
							<parameter>
								<parameterid>Threshold(dB)</parameterid>
								<name>Threshold(dB)</name>
								<valuemin>-90</valuemin>
								<valuemax>0</valuemax>
								<value>-20</value>
							</parameter>
							<parameter>
								<parameterid>Ratio</parameterid>
								<name>Ratio</name>
								<valuemin>1</valuemin>
								<valuemax>100</valuemax>
								<value>2</value>
							</parameter>
							<parameter>
								<parameterid>Attack Time</parameterid>
								<name>Attack Time</name>
								<valuemin>1</valuemin>
								<valuemax>100</valuemax>
								<value>5</value>
							</parameter>
							<parameter>
								<parameterid>Release Time</parameterid>
								<name>Release Time</name>
								<valuemin>1</valuemin>
								<valuemax>4000</valuemax>
								<value>209</value>
							</parameter>
							<parameter>
								<parameterid>Preserve Volume</parameterid>
								<name>Preserve Volume</name>
								<value>TRUE</value>
							</parameter>
						</effect>
					</filter>
					<filter>
						<effect>
							<name>Audio Levels</name>
							<effectid>audiolevels</effectid>
							<effectcategory>audiolevels</effectcategory>
							<effecttype>audiolevels</effecttype>
							<mediatype>audio</mediatype>
							<parameter>
								<name>Level</name>
								<parameterid>level</parameterid>
								<valuemin>0</valuemin>
								<valuemax>3.98109</valuemax>
								<keyframe>
									<when>1373.84</when>
									<value>0</value>
								</keyframe>
								<keyframe>
									<when>1374.64</when>
									<value>1</value>
								</keyframe>
								<keyframe>
									<when>1425.84</when>
									<value>1</value>
								</keyframe>
								<keyframe>
									<when>1427.61</when>
									<value>1.41254</value>
								</keyframe>
								<keyframe>
									<when>1457.34</when>
									<value>1.41254</value>
								</keyframe>
								<keyframe>
									<when>1462.64</when>
									<value>1.41254</value>
								</keyframe>
								<keyframe>
									<when>1887.5</when>
									<value>1.41254</value>
								</keyframe>
								<keyframe>
									<when>1893.93</when>
									<value>1.25893</value>
								</keyframe>
								<keyframe>
									<when>2062.71</when>
									<value>1.25893</value>
								</keyframe>
								<keyframe>
									<when>2066.14</when>
									<value>0.794328</value>
								</keyframe>
								<keyframe>
									<when>2072.14</when>
									<value>0.794328</value>
								</keyframe>
								<keyframe>
									<when>2074.71</when>
									<value>1.41254</value>
								</keyframe>
								<keyframe>
									<when>2121.79</when>
									<value>1.41254</value>
								</keyframe>
								<keyframe>
									<when>2126.89</when>
									<value>0</value>
								</keyframe>
								<interpolation>
									<name>FCPCurve</name>
								</interpolation>
								<value>1.41254</value>
							</parameter>
						</effect>
					</filter>
					<filter>
						<effect>
							<name>Audio Pan</name>
							<effectid>audiopan</effectid>
							<effectcategory>audiopan</effectcategory>
							<effecttype>audiopan</effecttype>
							<mediatype>audio</mediatype>
							<parameter>
								<name>Pan</name>
								<parameterid>pan</parameterid>
								<valuemin>-1</valuemin>
								<valuemax>1</valuemax>
								<value>0</value>
							</parameter>
						</effect>
					</filter>
					<sourcetrack>
						<mediatype>audio</mediatype>
						<trackindex>1</trackindex>
					</sourcetrack>
				</clipitem>
				<transitionitem id="39172668 ">
					<rate>
						<ntsc>FALSE</ntsc>
						<timebase>25</timebase>
					</rate>
					<start>33705</start>
					<end>33709</end>
					<alignment>end-black</alignment>
					<effect>
						<name>Cross Fade (+3dB) Copy</name>
						<effecttype>transition</effecttype>
						<mediatype>audio</mediatype>
					</effect>
				</transitionitem>
				<clipitem id="msub200012-3011-k1d3-002 50">
					<name>msub200012-3011-k1d3-002</name>
					<duration>8740</duration>
					<rate>
						<ntsc>FALSE</ntsc>
						<timebase>25</timebase>
					</rate>
					<in>6723</in>
					<out>6891</out>
					<start>33747</start>
					<end>33915</end>
					<subframeoffset>0</subframeoffset>
					<masterclipid>msub200012-3011-k1d3-002 1</masterclipid>
					<syncoffset>0</syncoffset>
					<logginginfo>
						<description>msub200012-3011-k1d3-002</description>
						<scene/>
						<shottake/>
						<lognote/>
						<good>FALSE</good>
					</logginginfo>
					<labels>
						<label>Good Take</label>
						<label2/>
					</labels>
					<comments>
						<mastercomment1>RÃ…STOFF. BR_FINFREDAG_MSUA_OPRO</mastercomment1>
						<mastercomment2/>
						<mastercomment3/>
						<mastercomment4/>
						<clipcommenta/>
					</comments>
					<file id="msub200012-3011-k1d3-002 2"/>
					<filter>
						<effect>
							<name>Audio Levels</name>
							<effectid>audiolevels</effectid>
							<effectcategory>audiolevels</effectcategory>
							<effecttype>audiolevels</effecttype>
							<mediatype>audio</mediatype>
							<parameter>
								<name>Level</name>
								<parameterid>level</parameterid>
								<valuemin>0</valuemin>
								<valuemax>3.98109</valuemax>
								<value>1.91637</value>
							</parameter>
						</effect>
					</filter>
					<filter>
						<effect>
							<name>Audio Pan</name>
							<effectid>audiopan</effectid>
							<effectcategory>audiopan</effectcategory>
							<effecttype>audiopan</effecttype>
							<mediatype>audio</mediatype>
							<parameter>
								<name>Pan</name>
								<parameterid>pan</parameterid>
								<valuemin>-1</valuemin>
								<valuemax>1</valuemax>
								<value>0</value>
							</parameter>
						</effect>
					</filter>
					<sourcetrack>
						<mediatype>audio</mediatype>
						<trackindex>1</trackindex>
					</sourcetrack>
				</clipitem>
				<clipitem id="msub200012-3011-k2d3-005 20">
					<name>msub200012-3011-k2d3-005</name>
					<duration>8453</duration>
					<rate>
						<ntsc>FALSE</ntsc>
						<timebase>25</timebase>
					</rate>
					<in>7076</in>
					<out>7099</out>
					<start>33915</start>
					<end>33938</end>
					<subframeoffset>0</subframeoffset>
					<masterclipid>msub200012-3011-k2d3-005 1</masterclipid>
					<logginginfo>
						<description>msub200012-3011-k2d3-005</description>
						<scene/>
						<shottake/>
						<lognote/>
						<good>FALSE</good>
					</logginginfo>
					<labels>
						<label>Good Take</label>
						<label2/>
					</labels>
					<comments>
						<mastercomment1>RÃ…STOFF. BR_FINFREDAG_MSUA_OPRO</mastercomment1>
						<mastercomment2/>
						<mastercomment3/>
						<mastercomment4/>
						<clipcommenta/>
					</comments>
					<file id="msub200012-3011-k2d3-005 2"/>
					<filter>
						<effect>
							<name>Audio Levels</name>
							<effectid>audiolevels</effectid>
							<effectcategory>audiolevels</effectcategory>
							<effecttype>audiolevels</effecttype>
							<mediatype>audio</mediatype>
							<parameter>
								<name>Level</name>
								<parameterid>level</parameterid>
								<valuemin>0</valuemin>
								<valuemax>3.98109</valuemax>
								<value>1</value>
							</parameter>
						</effect>
					</filter>
					<filter>
						<effect>
							<name>Audio Pan</name>
							<effectid>audiopan</effectid>
							<effectcategory>audiopan</effectcategory>
							<effecttype>audiopan</effecttype>
							<mediatype>audio</mediatype>
							<parameter>
								<name>Pan</name>
								<parameterid>pan</parameterid>
								<valuemin>-1</valuemin>
								<valuemax>1</valuemax>
								<value>0</value>
							</parameter>
						</effect>
					</filter>
					<sourcetrack>
						<mediatype>audio</mediatype>
						<trackindex>2</trackindex>
					</sourcetrack>
					<link>
						<linkclipref>msub200012-3011-k2d3-005 19</linkclipref>
						<mediatype>video</mediatype>
						<trackindex>2</trackindex>
						<clipindex>87</clipindex>
					</link>
					<link>
						<linkclipref>msub200012-3011-k2d3-005 20</linkclipref>
						<mediatype>audio</mediatype>
						<trackindex>1</trackindex>
						<clipindex>147</clipindex>
					</link>
				</clipitem>
				<clipitem id="msub200012-3011-k2d3-009 3">
					<name>msub200012-3011-k2d3-009</name>
					<duration>394</duration>
					<rate>
						<ntsc>FALSE</ntsc>
						<timebase>25</timebase>
					</rate>
					<in>297</in>
					<out>321</out>
					<start>33938</start>
					<end>33962</end>
					<subframeoffset>0</subframeoffset>
					<masterclipid>msub200012-3011-k2d3-009 1</masterclipid>
					<logginginfo>
						<description>msub200012-3011-k2d3-009</description>
						<scene/>
						<shottake/>
						<lognote/>
						<good>FALSE</good>
					</logginginfo>
					<labels>
						<label2/>
					</labels>
					<comments>
						<mastercomment1>RÃ…STOFF. BR_FINFREDAG_MSUA_OPRO</mastercomment1>
						<mastercomment2/>
						<mastercomment3/>
						<mastercomment4/>
						<clipcommenta/>
					</comments>
					<file id="msub200012-3011-k2d3-009 2"/>
					<filter>
						<effect>
							<name>Audio Levels</name>
							<effectid>audiolevels</effectid>
							<effectcategory>audiolevels</effectcategory>
							<effecttype>audiolevels</effecttype>
							<mediatype>audio</mediatype>
							<parameter>
								<name>Level</name>
								<parameterid>level</parameterid>
								<valuemin>0</valuemin>
								<valuemax>3.98109</valuemax>
								<value>0.707946</value>
							</parameter>
						</effect>
					</filter>
					<filter>
						<effect>
							<name>Audio Pan</name>
							<effectid>audiopan</effectid>
							<effectcategory>audiopan</effectcategory>
							<effecttype>audiopan</effecttype>
							<mediatype>audio</mediatype>
							<parameter>
								<name>Pan</name>
								<parameterid>pan</parameterid>
								<valuemin>-1</valuemin>
								<valuemax>1</valuemax>
								<value>0</value>
							</parameter>
						</effect>
					</filter>
					<sourcetrack>
						<mediatype>audio</mediatype>
						<trackindex>2</trackindex>
					</sourcetrack>
					<link>
						<linkclipref>msub200012-3011-k2d3-009 </linkclipref>
						<mediatype>video</mediatype>
						<trackindex>2</trackindex>
						<clipindex>88</clipindex>
					</link>
					<link>
						<linkclipref>msub200012-3011-k2d3-009 3</linkclipref>
						<mediatype>audio</mediatype>
						<trackindex>1</trackindex>
						<clipindex>148</clipindex>
					</link>
				</clipitem>
				<clipitem id="msub200012-3011-k1d3-002 21">
					<name>msub200012-3011-k1d3-002</name>
					<duration>8683</duration>
					<rate>
						<ntsc>FALSE</ntsc>
						<timebase>25</timebase>
					</rate>
					<in>7054</in>
					<out>7107</out>
					<start>33962</start>
					<end>34015</end>
					<subframeoffset>0</subframeoffset>
					<masterclipid>msub200012-3011-k1d3-002 1</masterclipid>
					<logginginfo>
						<description>msub200012-3011-k1d3-002</description>
						<scene/>
						<shottake/>
						<lognote/>
						<good>FALSE</good>
					</logginginfo>
					<labels>
						<label>Good Take</label>
						<label2/>
					</labels>
					<comments>
						<mastercomment1>RÃ…STOFF. BR_FINFREDAG_MSUA_OPRO</mastercomment1>
						<mastercomment2/>
						<mastercomment3/>
						<mastercomment4/>
						<clipcommenta/>
					</comments>
					<file id="msub200012-3011-k1d3-002 2"/>
					<filter>
						<effect>
							<name>Audio Levels</name>
							<effectid>audiolevels</effectid>
							<effectcategory>audiolevels</effectcategory>
							<effecttype>audiolevels</effecttype>
							<mediatype>audio</mediatype>
							<parameter>
								<name>Level</name>
								<parameterid>level</parameterid>
								<valuemin>0</valuemin>
								<valuemax>3.98109</valuemax>
								<value>1</value>
							</parameter>
						</effect>
					</filter>
					<filter>
						<effect>
							<name>Audio Pan</name>
							<effectid>audiopan</effectid>
							<effectcategory>audiopan</effectcategory>
							<effecttype>audiopan</effecttype>
							<mediatype>audio</mediatype>
							<parameter>
								<name>Pan</name>
								<parameterid>pan</parameterid>
								<valuemin>-1</valuemin>
								<valuemax>1</valuemax>
								<value>0</value>
							</parameter>
						</effect>
					</filter>
					<sourcetrack>
						<mediatype>audio</mediatype>
						<trackindex>1</trackindex>
					</sourcetrack>
					<link>
						<linkclipref>msub200012-3011-k1d3-002 20</linkclipref>
						<mediatype>video</mediatype>
						<trackindex>2</trackindex>
						<clipindex>89</clipindex>
					</link>
					<link>
						<linkclipref>msub200012-3011-k1d3-002 21</linkclipref>
						<mediatype>audio</mediatype>
						<trackindex>1</trackindex>
						<clipindex>149</clipindex>
					</link>
					<link>
						<linkclipref>msub200012-3011-k1d3-002 22</linkclipref>
						<mediatype>audio</mediatype>
						<trackindex>2</trackindex>
						<clipindex>142</clipindex>
					</link>
				</clipitem>
				<clipitem id="msub200012-3011-k1d3-002 51">
					<name>msub200012-3011-k1d3-002</name>
					<duration>8740</duration>
					<rate>
						<ntsc>FALSE</ntsc>
						<timebase>25</timebase>
					</rate>
					<in>2325</in>
					<out>2431</out>
					<start>34015</start>
					<end>34121</end>
					<subframeoffset>0</subframeoffset>
					<enabled>TRUE</enabled>
					<masterclipid>msub200012-3011-k1d3-002 1</masterclipid>
					<syncoffset>0</syncoffset>
					<logginginfo>
						<description>msub200012-3011-k1d3-002</description>
						<scene/>
						<shottake/>
						<lognote/>
						<good>FALSE</good>
					</logginginfo>
					<labels>
						<label>Good Take</label>
						<label2/>
					</labels>
					<comments>
						<mastercomment1>RÃ…STOFF. BR_FINFREDAG_MSUA_OPRO</mastercomment1>
						<mastercomment2/>
						<mastercomment3/>
						<mastercomment4/>
						<clipcommenta/>
					</comments>
					<file id="msub200012-3011-k1d3-002 2"/>
					<filter>
						<enabled>TRUE</enabled>
						<start>-1</start>
						<end>-1</end>
						<effect>
							<name>3 Band Equalizer - Kristine</name>
							<effecttype>filter</effecttype>
							<mediatype>audio</mediatype>
							<parameter>
								<parameterid>Low Frequency</parameterid>
								<name>Low Frequency</name>
								<valuemin>80</valuemin>
								<valuemax>2000</valuemax>
								<value>80</value>
							</parameter>
							<parameter>
								<parameterid>Low Gain(dB)</parameterid>
								<name>Low Gain(dB)</name>
								<valuemin>-20</valuemin>
								<valuemax>20</valuemax>
								<value>-4</value>
							</parameter>
							<parameter>
								<parameterid>Mid Frequency</parameterid>
								<name>Mid Frequency</name>
								<valuemin>400</valuemin>
								<valuemax>8000</valuemax>
								<value>3602</value>
							</parameter>
							<parameter>
								<parameterid>Mid Gain(dB)</parameterid>
								<name>Mid Gain(dB)</name>
								<valuemin>-20</valuemin>
								<valuemax>20</valuemax>
								<value>3</value>
							</parameter>
							<parameter>
								<parameterid>High Frequency</parameterid>
								<name>High Frequency</name>
								<valuemin>5000</valuemin>
								<valuemax>20000</valuemax>
								<value>10354</value>
							</parameter>
							<parameter>
								<parameterid>High Gain(dB)</parameterid>
								<name>High Gain(dB)</name>
								<valuemin>-20</valuemin>
								<valuemax>20</valuemax>
								<value>0</value>
							</parameter>
						</effect>
					</filter>
					<filter>
						<enabled>TRUE</enabled>
						<start>-1</start>
						<end>-1</end>
						<effect>
							<name>Compressor/Limiter</name>
							<effecttype>filter</effecttype>
							<mediatype>audio</mediatype>
							<parameter>
								<parameterid>Threshold(dB)</parameterid>
								<name>Threshold(dB)</name>
								<valuemin>-90</valuemin>
								<valuemax>0</valuemax>
								<value>-20</value>
							</parameter>
							<parameter>
								<parameterid>Ratio</parameterid>
								<name>Ratio</name>
								<valuemin>1</valuemin>
								<valuemax>100</valuemax>
								<value>2</value>
							</parameter>
							<parameter>
								<parameterid>Attack Time</parameterid>
								<name>Attack Time</name>
								<valuemin>1</valuemin>
								<valuemax>100</valuemax>
								<value>5</value>
							</parameter>
							<parameter>
								<parameterid>Release Time</parameterid>
								<name>Release Time</name>
								<valuemin>1</valuemin>
								<valuemax>4000</valuemax>
								<value>209</value>
							</parameter>
							<parameter>
								<parameterid>Preserve Volume</parameterid>
								<name>Preserve Volume</name>
								<value>TRUE</value>
							</parameter>
						</effect>
					</filter>
					<filter>
						<effect>
							<name>Audio Levels</name>
							<effectid>audiolevels</effectid>
							<effectcategory>audiolevels</effectcategory>
							<effecttype>audiolevels</effecttype>
							<mediatype>audio</mediatype>
							<parameter>
								<name>Level</name>
								<parameterid>level</parameterid>
								<valuemin>0</valuemin>
								<valuemax>3.98109</valuemax>
								<keyframe>
									<when>1373.84</when>
									<value>0</value>
								</keyframe>
								<keyframe>
									<when>1374.64</when>
									<value>1</value>
								</keyframe>
								<keyframe>
									<when>1425.84</when>
									<value>1</value>
								</keyframe>
								<keyframe>
									<when>1427.61</when>
									<value>1.41254</value>
								</keyframe>
								<keyframe>
									<when>1457.34</when>
									<value>1.41254</value>
								</keyframe>
								<keyframe>
									<when>1462.64</when>
									<value>1.41254</value>
								</keyframe>
								<keyframe>
									<when>1887.5</when>
									<value>1.41254</value>
								</keyframe>
								<keyframe>
									<when>1893.93</when>
									<value>1.41254</value>
								</keyframe>
								<keyframe>
									<when>2359.66</when>
									<value>1.41254</value>
								</keyframe>
								<keyframe>
									<when>2363.38</when>
									<value>0.707946</value>
								</keyframe>
								<keyframe>
									<when>2367.09</when>
									<value>0.707946</value>
								</keyframe>
								<keyframe>
									<when>2370.34</when>
									<value>1.41254</value>
								</keyframe>
								<keyframe>
									<when>2412.7</when>
									<value>1.41254</value>
								</keyframe>
								<keyframe>
									<when>2416.41</when>
									<value>1.25893</value>
								</keyframe>
								<interpolation>
									<name>FCPCurve</name>
								</interpolation>
								<value>1.41254</value>
							</parameter>
						</effect>
					</filter>
					<filter>
						<effect>
							<name>Audio Pan</name>
							<effectid>audiopan</effectid>
							<effectcategory>audiopan</effectcategory>
							<effecttype>audiopan</effecttype>
							<mediatype>audio</mediatype>
							<parameter>
								<name>Pan</name>
								<parameterid>pan</parameterid>
								<valuemin>-1</valuemin>
								<valuemax>1</valuemax>
								<value>0</value>
							</parameter>
						</effect>
					</filter>
					<sourcetrack>
						<mediatype>audio</mediatype>
						<trackindex>1</trackindex>
					</sourcetrack>
				</clipitem>
				<clipitem id="msub200012-3011-k1d3-002 52">
					<name>msub200012-3011-k1d3-002</name>
					<duration>8740</duration>
					<rate>
						<ntsc>FALSE</ntsc>
						<timebase>25</timebase>
					</rate>
					<in>2415</in>
					<out>2499</out>
					<start>34121</start>
					<end>34205</end>
					<subframeoffset>0</subframeoffset>
					<enabled>TRUE</enabled>
					<masterclipid>msub200012-3011-k1d3-002 1</masterclipid>
					<syncoffset>0</syncoffset>
					<logginginfo>
						<description>msub200012-3011-k1d3-002</description>
						<scene/>
						<shottake/>
						<lognote/>
						<good>FALSE</good>
					</logginginfo>
					<labels>
						<label>Good Take</label>
						<label2/>
					</labels>
					<comments>
						<mastercomment1>RÃ…STOFF. BR_FINFREDAG_MSUA_OPRO</mastercomment1>
						<mastercomment2/>
						<mastercomment3/>
						<mastercomment4/>
						<clipcommenta/>
					</comments>
					<file id="msub200012-3011-k1d3-002 2"/>
					<filter>
						<enabled>TRUE</enabled>
						<start>-1</start>
						<end>-1</end>
						<effect>
							<name>3 Band Equalizer - Kristine</name>
							<effecttype>filter</effecttype>
							<mediatype>audio</mediatype>
							<parameter>
								<parameterid>Low Frequency</parameterid>
								<name>Low Frequency</name>
								<valuemin>80</valuemin>
								<valuemax>2000</valuemax>
								<value>80</value>
							</parameter>
							<parameter>
								<parameterid>Low Gain(dB)</parameterid>
								<name>Low Gain(dB)</name>
								<valuemin>-20</valuemin>
								<valuemax>20</valuemax>
								<value>-4</value>
							</parameter>
							<parameter>
								<parameterid>Mid Frequency</parameterid>
								<name>Mid Frequency</name>
								<valuemin>400</valuemin>
								<valuemax>8000</valuemax>
								<value>3602</value>
							</parameter>
							<parameter>
								<parameterid>Mid Gain(dB)</parameterid>
								<name>Mid Gain(dB)</name>
								<valuemin>-20</valuemin>
								<valuemax>20</valuemax>
								<value>3</value>
							</parameter>
							<parameter>
								<parameterid>High Frequency</parameterid>
								<name>High Frequency</name>
								<valuemin>5000</valuemin>
								<valuemax>20000</valuemax>
								<value>10354</value>
							</parameter>
							<parameter>
								<parameterid>High Gain(dB)</parameterid>
								<name>High Gain(dB)</name>
								<valuemin>-20</valuemin>
								<valuemax>20</valuemax>
								<value>0</value>
							</parameter>
						</effect>
					</filter>
					<filter>
						<enabled>TRUE</enabled>
						<start>-1</start>
						<end>-1</end>
						<effect>
							<name>Compressor/Limiter</name>
							<effecttype>filter</effecttype>
							<mediatype>audio</mediatype>
							<parameter>
								<parameterid>Threshold(dB)</parameterid>
								<name>Threshold(dB)</name>
								<valuemin>-90</valuemin>
								<valuemax>0</valuemax>
								<value>-20</value>
							</parameter>
							<parameter>
								<parameterid>Ratio</parameterid>
								<name>Ratio</name>
								<valuemin>1</valuemin>
								<valuemax>100</valuemax>
								<value>2</value>
							</parameter>
							<parameter>
								<parameterid>Attack Time</parameterid>
								<name>Attack Time</name>
								<valuemin>1</valuemin>
								<valuemax>100</valuemax>
								<value>5</value>
							</parameter>
							<parameter>
								<parameterid>Release Time</parameterid>
								<name>Release Time</name>
								<valuemin>1</valuemin>
								<valuemax>4000</valuemax>
								<value>209</value>
							</parameter>
							<parameter>
								<parameterid>Preserve Volume</parameterid>
								<name>Preserve Volume</name>
								<value>TRUE</value>
							</parameter>
						</effect>
					</filter>
					<filter>
						<effect>
							<name>Audio Levels</name>
							<effectid>audiolevels</effectid>
							<effectcategory>audiolevels</effectcategory>
							<effecttype>audiolevels</effecttype>
							<mediatype>audio</mediatype>
							<parameter>
								<name>Level</name>
								<parameterid>level</parameterid>
								<valuemin>0</valuemin>
								<valuemax>3.98109</valuemax>
								<keyframe>
									<when>1373.84</when>
									<value>0</value>
								</keyframe>
								<keyframe>
									<when>1374.64</when>
									<value>1</value>
								</keyframe>
								<keyframe>
									<when>1425.84</when>
									<value>1</value>
								</keyframe>
								<keyframe>
									<when>1427.61</when>
									<value>1.41254</value>
								</keyframe>
								<keyframe>
									<when>1457.34</when>
									<value>1.41254</value>
								</keyframe>
								<keyframe>
									<when>1462.64</when>
									<value>1.41254</value>
								</keyframe>
								<keyframe>
									<when>1887.5</when>
									<value>1.41254</value>
								</keyframe>
								<keyframe>
									<when>1893.93</when>
									<value>1.41254</value>
								</keyframe>
								<keyframe>
									<when>2416.43</when>
									<value>1.12202</value>
								</keyframe>
								<interpolation>
									<name>FCPCurve</name>
								</interpolation>
								<value>1.41254</value>
							</parameter>
						</effect>
					</filter>
					<filter>
						<effect>
							<name>Audio Pan</name>
							<effectid>audiopan</effectid>
							<effectcategory>audiopan</effectcategory>
							<effecttype>audiopan</effecttype>
							<mediatype>audio</mediatype>
							<parameter>
								<name>Pan</name>
								<parameterid>pan</parameterid>
								<valuemin>-1</valuemin>
								<valuemax>1</valuemax>
								<value>0</value>
							</parameter>
						</effect>
					</filter>
					<sourcetrack>
						<mediatype>audio</mediatype>
						<trackindex>1</trackindex>
					</sourcetrack>
				</clipitem>
				<clipitem id="msub200012-3011-k1d3-002 53">
					<name>msub200012-3011-k1d3-002</name>
					<duration>8740</duration>
					<rate>
						<ntsc>FALSE</ntsc>
						<timebase>25</timebase>
					</rate>
					<in>2563</in>
					<out>2601</out>
					<start>34205</start>
					<end>34243</end>
					<subframeoffset>0</subframeoffset>
					<enabled>TRUE</enabled>
					<masterclipid>msub200012-3011-k1d3-002 1</masterclipid>
					<syncoffset>0</syncoffset>
					<logginginfo>
						<description>msub200012-3011-k1d3-002</description>
						<scene/>
						<shottake/>
						<lognote/>
						<good>FALSE</good>
					</logginginfo>
					<labels>
						<label>Good Take</label>
						<label2/>
					</labels>
					<comments>
						<mastercomment1>RÃ…STOFF. BR_FINFREDAG_MSUA_OPRO</mastercomment1>
						<mastercomment2/>
						<mastercomment3/>
						<mastercomment4/>
						<clipcommenta/>
					</comments>
					<file id="msub200012-3011-k1d3-002 2"/>
					<filter>
						<enabled>TRUE</enabled>
						<start>-1</start>
						<end>-1</end>
						<effect>
							<name>3 Band Equalizer - Kristine</name>
							<effecttype>filter</effecttype>
							<mediatype>audio</mediatype>
							<parameter>
								<parameterid>Low Frequency</parameterid>
								<name>Low Frequency</name>
								<valuemin>80</valuemin>
								<valuemax>2000</valuemax>
								<value>80</value>
							</parameter>
							<parameter>
								<parameterid>Low Gain(dB)</parameterid>
								<name>Low Gain(dB)</name>
								<valuemin>-20</valuemin>
								<valuemax>20</valuemax>
								<value>-4</value>
							</parameter>
							<parameter>
								<parameterid>Mid Frequency</parameterid>
								<name>Mid Frequency</name>
								<valuemin>400</valuemin>
								<valuemax>8000</valuemax>
								<value>3602</value>
							</parameter>
							<parameter>
								<parameterid>Mid Gain(dB)</parameterid>
								<name>Mid Gain(dB)</name>
								<valuemin>-20</valuemin>
								<valuemax>20</valuemax>
								<value>3</value>
							</parameter>
							<parameter>
								<parameterid>High Frequency</parameterid>
								<name>High Frequency</name>
								<valuemin>5000</valuemin>
								<valuemax>20000</valuemax>
								<value>10354</value>
							</parameter>
							<parameter>
								<parameterid>High Gain(dB)</parameterid>
								<name>High Gain(dB)</name>
								<valuemin>-20</valuemin>
								<valuemax>20</valuemax>
								<value>0</value>
							</parameter>
						</effect>
					</filter>
					<filter>
						<enabled>TRUE</enabled>
						<start>-1</start>
						<end>-1</end>
						<effect>
							<name>Compressor/Limiter</name>
							<effecttype>filter</effecttype>
							<mediatype>audio</mediatype>
							<parameter>
								<parameterid>Threshold(dB)</parameterid>
								<name>Threshold(dB)</name>
								<valuemin>-90</valuemin>
								<valuemax>0</valuemax>
								<value>-20</value>
							</parameter>
							<parameter>
								<parameterid>Ratio</parameterid>
								<name>Ratio</name>
								<valuemin>1</valuemin>
								<valuemax>100</valuemax>
								<value>2</value>
							</parameter>
							<parameter>
								<parameterid>Attack Time</parameterid>
								<name>Attack Time</name>
								<valuemin>1</valuemin>
								<valuemax>100</valuemax>
								<value>5</value>
							</parameter>
							<parameter>
								<parameterid>Release Time</parameterid>
								<name>Release Time</name>
								<valuemin>1</valuemin>
								<valuemax>4000</valuemax>
								<value>209</value>
							</parameter>
							<parameter>
								<parameterid>Preserve Volume</parameterid>
								<name>Preserve Volume</name>
								<value>TRUE</value>
							</parameter>
						</effect>
					</filter>
					<filter>
						<effect>
							<name>Audio Levels</name>
							<effectid>audiolevels</effectid>
							<effectcategory>audiolevels</effectcategory>
							<effecttype>audiolevels</effecttype>
							<mediatype>audio</mediatype>
							<parameter>
								<name>Level</name>
								<parameterid>level</parameterid>
								<valuemin>0</valuemin>
								<valuemax>3.98109</valuemax>
								<keyframe>
									<when>1373.84</when>
									<value>0</value>
								</keyframe>
								<keyframe>
									<when>1374.64</when>
									<value>1</value>
								</keyframe>
								<keyframe>
									<when>1425.84</when>
									<value>1</value>
								</keyframe>
								<keyframe>
									<when>1427.61</when>
									<value>1.41254</value>
								</keyframe>
								<keyframe>
									<when>1457.34</when>
									<value>1.41254</value>
								</keyframe>
								<keyframe>
									<when>1462.64</when>
									<value>1.41254</value>
								</keyframe>
								<keyframe>
									<when>1887.5</when>
									<value>1.41254</value>
								</keyframe>
								<keyframe>
									<when>1893.93</when>
									<value>2.51189</value>
								</keyframe>
								<interpolation>
									<name>FCPCurve</name>
								</interpolation>
								<value>1.41254</value>
							</parameter>
						</effect>
					</filter>
					<filter>
						<effect>
							<name>Audio Pan</name>
							<effectid>audiopan</effectid>
							<effectcategory>audiopan</effectcategory>
							<effecttype>audiopan</effecttype>
							<mediatype>audio</mediatype>
							<parameter>
								<name>Pan</name>
								<parameterid>pan</parameterid>
								<valuemin>-1</valuemin>
								<valuemax>1</valuemax>
								<value>0</value>
							</parameter>
						</effect>
					</filter>
					<sourcetrack>
						<mediatype>audio</mediatype>
						<trackindex>1</trackindex>
					</sourcetrack>
				</clipitem>
				<clipitem id="msub200012-3011-k1d3-002 54">
					<name>msub200012-3011-k1d3-002</name>
					<duration>8740</duration>
					<rate>
						<ntsc>FALSE</ntsc>
						<timebase>25</timebase>
					</rate>
					<in>3831</in>
					<out>3909</out>
					<start>34261</start>
					<end>34339</end>
					<subframeoffset>0</subframeoffset>
					<enabled>TRUE</enabled>
					<masterclipid>msub200012-3011-k1d3-002 1</masterclipid>
					<syncoffset>0</syncoffset>
					<logginginfo>
						<description>msub200012-3011-k1d3-002</description>
						<scene/>
						<shottake/>
						<lognote/>
						<good>FALSE</good>
					</logginginfo>
					<labels>
						<label>Good Take</label>
						<label2/>
					</labels>
					<comments>
						<mastercomment1>RÃ…STOFF. BR_FINFREDAG_MSUA_OPRO</mastercomment1>
						<mastercomment2/>
						<mastercomment3/>
						<mastercomment4/>
						<clipcommenta/>
					</comments>
					<file id="msub200012-3011-k1d3-002 2"/>
					<filter>
						<enabled>TRUE</enabled>
						<start>-1</start>
						<end>-1</end>
						<effect>
							<name>3 Band Equalizer - Kristine</name>
							<effecttype>filter</effecttype>
							<mediatype>audio</mediatype>
							<parameter>
								<parameterid>Low Frequency</parameterid>
								<name>Low Frequency</name>
								<valuemin>80</valuemin>
								<valuemax>2000</valuemax>
								<value>80</value>
							</parameter>
							<parameter>
								<parameterid>Low Gain(dB)</parameterid>
								<name>Low Gain(dB)</name>
								<valuemin>-20</valuemin>
								<valuemax>20</valuemax>
								<value>-4</value>
							</parameter>
							<parameter>
								<parameterid>Mid Frequency</parameterid>
								<name>Mid Frequency</name>
								<valuemin>400</valuemin>
								<valuemax>8000</valuemax>
								<value>3602</value>
							</parameter>
							<parameter>
								<parameterid>Mid Gain(dB)</parameterid>
								<name>Mid Gain(dB)</name>
								<valuemin>-20</valuemin>
								<valuemax>20</valuemax>
								<value>3</value>
							</parameter>
							<parameter>
								<parameterid>High Frequency</parameterid>
								<name>High Frequency</name>
								<valuemin>5000</valuemin>
								<valuemax>20000</valuemax>
								<value>10354</value>
							</parameter>
							<parameter>
								<parameterid>High Gain(dB)</parameterid>
								<name>High Gain(dB)</name>
								<valuemin>-20</valuemin>
								<valuemax>20</valuemax>
								<value>0</value>
							</parameter>
						</effect>
					</filter>
					<filter>
						<enabled>TRUE</enabled>
						<start>-1</start>
						<end>-1</end>
						<effect>
							<name>Compressor/Limiter</name>
							<effecttype>filter</effecttype>
							<mediatype>audio</mediatype>
							<parameter>
								<parameterid>Threshold(dB)</parameterid>
								<name>Threshold(dB)</name>
								<valuemin>-90</valuemin>
								<valuemax>0</valuemax>
								<value>-20</value>
							</parameter>
							<parameter>
								<parameterid>Ratio</parameterid>
								<name>Ratio</name>
								<valuemin>1</valuemin>
								<valuemax>100</valuemax>
								<value>2</value>
							</parameter>
							<parameter>
								<parameterid>Attack Time</parameterid>
								<name>Attack Time</name>
								<valuemin>1</valuemin>
								<valuemax>100</valuemax>
								<value>5</value>
							</parameter>
							<parameter>
								<parameterid>Release Time</parameterid>
								<name>Release Time</name>
								<valuemin>1</valuemin>
								<valuemax>4000</valuemax>
								<value>209</value>
							</parameter>
							<parameter>
								<parameterid>Preserve Volume</parameterid>
								<name>Preserve Volume</name>
								<value>TRUE</value>
							</parameter>
						</effect>
					</filter>
					<filter>
						<effect>
							<name>Audio Levels</name>
							<effectid>audiolevels</effectid>
							<effectcategory>audiolevels</effectcategory>
							<effecttype>audiolevels</effecttype>
							<mediatype>audio</mediatype>
							<parameter>
								<name>Level</name>
								<parameterid>level</parameterid>
								<valuemin>0</valuemin>
								<valuemax>3.98109</valuemax>
								<keyframe>
									<when>1373.84</when>
									<value>0</value>
								</keyframe>
								<keyframe>
									<when>1374.64</when>
									<value>1</value>
								</keyframe>
								<keyframe>
									<when>1425.84</when>
									<value>1</value>
								</keyframe>
								<keyframe>
									<when>1427.61</when>
									<value>1.41254</value>
								</keyframe>
								<keyframe>
									<when>1457.34</when>
									<value>1.41254</value>
								</keyframe>
								<keyframe>
									<when>1462.64</when>
									<value>1.41254</value>
								</keyframe>
								<keyframe>
									<when>1887.5</when>
									<value>1.41254</value>
								</keyframe>
								<keyframe>
									<when>1893.93</when>
									<value>1.41254</value>
								</keyframe>
								<keyframe>
									<when>3844.86</when>
									<value>0.891251</value>
								</keyframe>
								<keyframe>
									<when>3847.86</when>
									<value>0.891251</value>
								</keyframe>
								<interpolation>
									<name>FCPCurve</name>
								</interpolation>
								<value>1.41254</value>
							</parameter>
						</effect>
					</filter>
					<filter>
						<effect>
							<name>Audio Pan</name>
							<effectid>audiopan</effectid>
							<effectcategory>audiopan</effectcategory>
							<effecttype>audiopan</effecttype>
							<mediatype>audio</mediatype>
							<parameter>
								<name>Pan</name>
								<parameterid>pan</parameterid>
								<valuemin>-1</valuemin>
								<valuemax>1</valuemax>
								<value>0</value>
							</parameter>
						</effect>
					</filter>
					<sourcetrack>
						<mediatype>audio</mediatype>
						<trackindex>1</trackindex>
					</sourcetrack>
				</clipitem>
				<clipitem id="msub200012-3011-k1d3-002 55">
					<name>msub200012-3011-k1d3-002</name>
					<duration>8740</duration>
					<rate>
						<ntsc>FALSE</ntsc>
						<timebase>25</timebase>
					</rate>
					<in>4256</in>
					<out>4407</out>
					<start>34339</start>
					<end>34490</end>
					<subframeoffset>0</subframeoffset>
					<enabled>TRUE</enabled>
					<masterclipid>msub200012-3011-k1d3-002 1</masterclipid>
					<syncoffset>0</syncoffset>
					<logginginfo>
						<description>msub200012-3011-k1d3-002</description>
						<scene/>
						<shottake/>
						<lognote/>
						<good>FALSE</good>
					</logginginfo>
					<labels>
						<label>Good Take</label>
						<label2/>
					</labels>
					<comments>
						<mastercomment1>RÃ…STOFF. BR_FINFREDAG_MSUA_OPRO</mastercomment1>
						<mastercomment2/>
						<mastercomment3/>
						<mastercomment4/>
						<clipcommenta/>
					</comments>
					<file id="msub200012-3011-k1d3-002 2"/>
					<filter>
						<enabled>TRUE</enabled>
						<start>-1</start>
						<end>-1</end>
						<effect>
							<name>3 Band Equalizer - Kristine</name>
							<effecttype>filter</effecttype>
							<mediatype>audio</mediatype>
							<parameter>
								<parameterid>Low Frequency</parameterid>
								<name>Low Frequency</name>
								<valuemin>80</valuemin>
								<valuemax>2000</valuemax>
								<value>80</value>
							</parameter>
							<parameter>
								<parameterid>Low Gain(dB)</parameterid>
								<name>Low Gain(dB)</name>
								<valuemin>-20</valuemin>
								<valuemax>20</valuemax>
								<value>-4</value>
							</parameter>
							<parameter>
								<parameterid>Mid Frequency</parameterid>
								<name>Mid Frequency</name>
								<valuemin>400</valuemin>
								<valuemax>8000</valuemax>
								<value>3602</value>
							</parameter>
							<parameter>
								<parameterid>Mid Gain(dB)</parameterid>
								<name>Mid Gain(dB)</name>
								<valuemin>-20</valuemin>
								<valuemax>20</valuemax>
								<value>3</value>
							</parameter>
							<parameter>
								<parameterid>High Frequency</parameterid>
								<name>High Frequency</name>
								<valuemin>5000</valuemin>
								<valuemax>20000</valuemax>
								<value>10354</value>
							</parameter>
							<parameter>
								<parameterid>High Gain(dB)</parameterid>
								<name>High Gain(dB)</name>
								<valuemin>-20</valuemin>
								<valuemax>20</valuemax>
								<value>0</value>
							</parameter>
						</effect>
					</filter>
					<filter>
						<enabled>TRUE</enabled>
						<start>-1</start>
						<end>-1</end>
						<effect>
							<name>Compressor/Limiter</name>
							<effecttype>filter</effecttype>
							<mediatype>audio</mediatype>
							<parameter>
								<parameterid>Threshold(dB)</parameterid>
								<name>Threshold(dB)</name>
								<valuemin>-90</valuemin>
								<valuemax>0</valuemax>
								<value>-20</value>
							</parameter>
							<parameter>
								<parameterid>Ratio</parameterid>
								<name>Ratio</name>
								<valuemin>1</valuemin>
								<valuemax>100</valuemax>
								<value>2</value>
							</parameter>
							<parameter>
								<parameterid>Attack Time</parameterid>
								<name>Attack Time</name>
								<valuemin>1</valuemin>
								<valuemax>100</valuemax>
								<value>5</value>
							</parameter>
							<parameter>
								<parameterid>Release Time</parameterid>
								<name>Release Time</name>
								<valuemin>1</valuemin>
								<valuemax>4000</valuemax>
								<value>209</value>
							</parameter>
							<parameter>
								<parameterid>Preserve Volume</parameterid>
								<name>Preserve Volume</name>
								<value>TRUE</value>
							</parameter>
						</effect>
					</filter>
					<filter>
						<effect>
							<name>Audio Levels</name>
							<effectid>audiolevels</effectid>
							<effectcategory>audiolevels</effectcategory>
							<effecttype>audiolevels</effecttype>
							<mediatype>audio</mediatype>
							<parameter>
								<name>Level</name>
								<parameterid>level</parameterid>
								<valuemin>0</valuemin>
								<valuemax>3.98109</valuemax>
								<keyframe>
									<when>1373.84</when>
									<value>0</value>
								</keyframe>
								<keyframe>
									<when>1374.64</when>
									<value>1</value>
								</keyframe>
								<keyframe>
									<when>1425.84</when>
									<value>1</value>
								</keyframe>
								<keyframe>
									<when>1427.61</when>
									<value>1.41254</value>
								</keyframe>
								<keyframe>
									<when>1457.34</when>
									<value>1.41254</value>
								</keyframe>
								<keyframe>
									<when>1462.64</when>
									<value>1.41254</value>
								</keyframe>
								<keyframe>
									<when>1887.5</when>
									<value>1.41254</value>
								</keyframe>
								<keyframe>
									<when>1893.93</when>
									<value>1</value>
								</keyframe>
								<interpolation>
									<name>FCPCurve</name>
								</interpolation>
								<value>1.41254</value>
							</parameter>
						</effect>
					</filter>
					<filter>
						<effect>
							<name>Audio Pan</name>
							<effectid>audiopan</effectid>
							<effectcategory>audiopan</effectcategory>
							<effecttype>audiopan</effecttype>
							<mediatype>audio</mediatype>
							<parameter>
								<name>Pan</name>
								<parameterid>pan</parameterid>
								<valuemin>-1</valuemin>
								<valuemax>1</valuemax>
								<value>0</value>
							</parameter>
						</effect>
					</filter>
					<sourcetrack>
						<mediatype>audio</mediatype>
						<trackindex>1</trackindex>
					</sourcetrack>
				</clipitem>
				<transitionitem id="39258572 ">
					<rate>
						<ntsc>FALSE</ntsc>
						<timebase>25</timebase>
					</rate>
					<start>34614</start>
					<end>34620</end>
					<alignment>start-black</alignment>
					<effect>
						<name>Cross Fade (+3dB) Copy</name>
						<effecttype>transition</effecttype>
						<mediatype>audio</mediatype>
					</effect>
				</transitionitem>
				<clipitem id="msub200012-3011-k1d3-002 56">
					<name>msub200012-3011-k1d3-002</name>
					<duration>8740</duration>
					<rate>
						<ntsc>FALSE</ntsc>
						<timebase>25</timebase>
					</rate>
					<in>7308</in>
					<out>7686</out>
					<start>-1</start>
					<end>-1</end>
					<subframeoffset>0</subframeoffset>
					<enabled>TRUE</enabled>
					<masterclipid>msub200012-3011-k1d3-002 1</masterclipid>
					<syncoffset>0</syncoffset>
					<logginginfo>
						<description>msub200012-3011-k1d3-002</description>
						<scene/>
						<shottake/>
						<lognote/>
						<good>FALSE</good>
					</logginginfo>
					<labels>
						<label>Good Take</label>
						<label2/>
					</labels>
					<comments>
						<mastercomment1>RÃ…STOFF. BR_FINFREDAG_MSUA_OPRO</mastercomment1>
						<mastercomment2/>
						<mastercomment3/>
						<mastercomment4/>
						<clipcommenta/>
					</comments>
					<file id="msub200012-3011-k1d3-002 2"/>
					<filter>
						<enabled>TRUE</enabled>
						<start>-1</start>
						<end>-1</end>
						<effect>
							<name>3 Band Equalizer - Kristine</name>
							<effecttype>filter</effecttype>
							<mediatype>audio</mediatype>
							<parameter>
								<parameterid>Low Frequency</parameterid>
								<name>Low Frequency</name>
								<valuemin>80</valuemin>
								<valuemax>2000</valuemax>
								<value>80</value>
							</parameter>
							<parameter>
								<parameterid>Low Gain(dB)</parameterid>
								<name>Low Gain(dB)</name>
								<valuemin>-20</valuemin>
								<valuemax>20</valuemax>
								<value>-4</value>
							</parameter>
							<parameter>
								<parameterid>Mid Frequency</parameterid>
								<name>Mid Frequency</name>
								<valuemin>400</valuemin>
								<valuemax>8000</valuemax>
								<value>3602</value>
							</parameter>
							<parameter>
								<parameterid>Mid Gain(dB)</parameterid>
								<name>Mid Gain(dB)</name>
								<valuemin>-20</valuemin>
								<valuemax>20</valuemax>
								<value>3</value>
							</parameter>
							<parameter>
								<parameterid>High Frequency</parameterid>
								<name>High Frequency</name>
								<valuemin>5000</valuemin>
								<valuemax>20000</valuemax>
								<value>10354</value>
							</parameter>
							<parameter>
								<parameterid>High Gain(dB)</parameterid>
								<name>High Gain(dB)</name>
								<valuemin>-20</valuemin>
								<valuemax>20</valuemax>
								<value>0</value>
							</parameter>
						</effect>
					</filter>
					<filter>
						<enabled>TRUE</enabled>
						<start>-1</start>
						<end>-1</end>
						<effect>
							<name>Compressor/Limiter</name>
							<effecttype>filter</effecttype>
							<mediatype>audio</mediatype>
							<parameter>
								<parameterid>Threshold(dB)</parameterid>
								<name>Threshold(dB)</name>
								<valuemin>-90</valuemin>
								<valuemax>0</valuemax>
								<value>-20</value>
							</parameter>
							<parameter>
								<parameterid>Ratio</parameterid>
								<name>Ratio</name>
								<valuemin>1</valuemin>
								<valuemax>100</valuemax>
								<value>2</value>
							</parameter>
							<parameter>
								<parameterid>Attack Time</parameterid>
								<name>Attack Time</name>
								<valuemin>1</valuemin>
								<valuemax>100</valuemax>
								<value>5</value>
							</parameter>
							<parameter>
								<parameterid>Release Time</parameterid>
								<name>Release Time</name>
								<valuemin>1</valuemin>
								<valuemax>4000</valuemax>
								<value>209</value>
							</parameter>
							<parameter>
								<parameterid>Preserve Volume</parameterid>
								<name>Preserve Volume</name>
								<value>TRUE</value>
							</parameter>
						</effect>
					</filter>
					<filter>
						<effect>
							<name>Audio Levels</name>
							<effectid>audiolevels</effectid>
							<effectcategory>audiolevels</effectcategory>
							<effecttype>audiolevels</effecttype>
							<mediatype>audio</mediatype>
							<parameter>
								<name>Level</name>
								<parameterid>level</parameterid>
								<valuemin>0</valuemin>
								<valuemax>3.98109</valuemax>
								<keyframe>
									<when>7336</when>
									<value>1.3129</value>
								</keyframe>
								<keyframe>
									<when>7347.14</when>
									<value>1.41254</value>
								</keyframe>
								<keyframe>
									<when>7439.71</when>
									<value>1.77828</value>
								</keyframe>
								<keyframe>
									<when>7449.14</when>
									<value>1.25893</value>
								</keyframe>
								<interpolation>
									<name>FCPCurve</name>
								</interpolation>
								<value>1.3129</value>
							</parameter>
						</effect>
					</filter>
					<filter>
						<effect>
							<name>Audio Pan</name>
							<effectid>audiopan</effectid>
							<effectcategory>audiopan</effectcategory>
							<effecttype>audiopan</effecttype>
							<mediatype>audio</mediatype>
							<parameter>
								<name>Pan</name>
								<parameterid>pan</parameterid>
								<valuemin>-1</valuemin>
								<valuemax>1</valuemax>
								<value>0</value>
							</parameter>
						</effect>
					</filter>
					<sourcetrack>
						<mediatype>audio</mediatype>
						<trackindex>2</trackindex>
					</sourcetrack>
				</clipitem>
				<transitionitem id="39262108 ">
					<rate>
						<ntsc>FALSE</ntsc>
						<timebase>25</timebase>
					</rate>
					<start>34986</start>
					<end>34992</end>
					<alignment>center</alignment>
					<effect>
						<name>Cross Fade (+3dB) Copy</name>
						<effecttype>transition</effecttype>
						<mediatype>audio</mediatype>
					</effect>
				</transitionitem>
				<clipitem id="msub200012-3011-k1d3-003 ">
					<name>msub200012-3011-k1d3-003</name>
					<duration>1497</duration>
					<rate>
						<ntsc>FALSE</ntsc>
						<timebase>25</timebase>
					</rate>
					<in>691</in>
					<out>1391</out>
					<start>-1</start>
					<end>35686</end>
					<subframeoffset>0</subframeoffset>
					<enabled>TRUE</enabled>
					<masterclipid>msub200012-3011-k1d3-003 3</masterclipid>
					<syncoffset>0</syncoffset>
					<logginginfo>
						<description>msub200012-3011-k1d3-003</description>
						<scene/>
						<shottake/>
						<lognote/>
						<good>FALSE</good>
					</logginginfo>
					<labels>
						<label>B Roll</label>
						<label2/>
					</labels>
					<comments>
						<mastercomment1>RÃ…STOFF. BR_FINFREDAG_MSUA_OPRO</mastercomment1>
						<mastercomment2/>
						<mastercomment3/>
						<mastercomment4/>
						<clipcommenta/>
					</comments>
					<file id="msub200012-3011-k1d3-003 4"/>
					<filter>
						<enabled>TRUE</enabled>
						<start>-1</start>
						<end>-1</end>
						<effect>
							<name>3 Band Equalizer - Kristine</name>
							<effecttype>filter</effecttype>
							<mediatype>audio</mediatype>
							<parameter>
								<parameterid>Low Frequency</parameterid>
								<name>Low Frequency</name>
								<valuemin>80</valuemin>
								<valuemax>2000</valuemax>
								<value>80</value>
							</parameter>
							<parameter>
								<parameterid>Low Gain(dB)</parameterid>
								<name>Low Gain(dB)</name>
								<valuemin>-20</valuemin>
								<valuemax>20</valuemax>
								<value>-4</value>
							</parameter>
							<parameter>
								<parameterid>Mid Frequency</parameterid>
								<name>Mid Frequency</name>
								<valuemin>400</valuemin>
								<valuemax>8000</valuemax>
								<value>3602</value>
							</parameter>
							<parameter>
								<parameterid>Mid Gain(dB)</parameterid>
								<name>Mid Gain(dB)</name>
								<valuemin>-20</valuemin>
								<valuemax>20</valuemax>
								<value>3</value>
							</parameter>
							<parameter>
								<parameterid>High Frequency</parameterid>
								<name>High Frequency</name>
								<valuemin>5000</valuemin>
								<valuemax>20000</valuemax>
								<value>10354</value>
							</parameter>
							<parameter>
								<parameterid>High Gain(dB)</parameterid>
								<name>High Gain(dB)</name>
								<valuemin>-20</valuemin>
								<valuemax>20</valuemax>
								<value>0</value>
							</parameter>
						</effect>
					</filter>
					<filter>
						<enabled>TRUE</enabled>
						<start>-1</start>
						<end>-1</end>
						<effect>
							<name>Compressor/Limiter</name>
							<effecttype>filter</effecttype>
							<mediatype>audio</mediatype>
							<parameter>
								<parameterid>Threshold(dB)</parameterid>
								<name>Threshold(dB)</name>
								<valuemin>-90</valuemin>
								<valuemax>0</valuemax>
								<value>-20</value>
							</parameter>
							<parameter>
								<parameterid>Ratio</parameterid>
								<name>Ratio</name>
								<valuemin>1</valuemin>
								<valuemax>100</valuemax>
								<value>2</value>
							</parameter>
							<parameter>
								<parameterid>Attack Time</parameterid>
								<name>Attack Time</name>
								<valuemin>1</valuemin>
								<valuemax>100</valuemax>
								<value>5</value>
							</parameter>
							<parameter>
								<parameterid>Release Time</parameterid>
								<name>Release Time</name>
								<valuemin>1</valuemin>
								<valuemax>4000</valuemax>
								<value>209</value>
							</parameter>
							<parameter>
								<parameterid>Preserve Volume</parameterid>
								<name>Preserve Volume</name>
								<value>TRUE</value>
							</parameter>
						</effect>
					</filter>
					<filter>
						<effect>
							<name>Audio Levels</name>
							<effectid>audiolevels</effectid>
							<effectcategory>audiolevels</effectcategory>
							<effecttype>audiolevels</effecttype>
							<mediatype>audio</mediatype>
							<parameter>
								<name>Level</name>
								<parameterid>level</parameterid>
								<valuemin>0</valuemin>
								<valuemax>3.98109</valuemax>
								<keyframe>
									<when>853.143</when>
									<value>1</value>
								</keyframe>
								<keyframe>
									<when>855.929</when>
									<value>1.41254</value>
								</keyframe>
								<keyframe>
									<when>874.143</when>
									<value>1.41254</value>
								</keyframe>
								<keyframe>
									<when>877.357</when>
									<value>1</value>
								</keyframe>
								<keyframe>
									<when>920.643</when>
									<value>1</value>
								</keyframe>
								<keyframe>
									<when>923</when>
									<value>1.25893</value>
								</keyframe>
								<keyframe>
									<when>972.714</when>
									<value>1.25893</value>
								</keyframe>
								<keyframe>
									<when>975.071</when>
									<value>1.12202</value>
								</keyframe>
								<keyframe>
									<when>1054.14</when>
									<value>1.12202</value>
								</keyframe>
								<keyframe>
									<when>1058.43</when>
									<value>1.25893</value>
								</keyframe>
								<keyframe>
									<when>1090.57</when>
									<value>1.25893</value>
								</keyframe>
								<keyframe>
									<when>1094.86</when>
									<value>1.41254</value>
								</keyframe>
								<keyframe>
									<when>1195.57</when>
									<value>1.41254</value>
								</keyframe>
								<keyframe>
									<when>1202</when>
									<value>1</value>
								</keyframe>
								<keyframe>
									<when>1337</when>
									<value>1</value>
								</keyframe>
								<keyframe>
									<when>1343.43</when>
									<value>0.707946</value>
								</keyframe>
								<interpolation>
									<name>FCPCurve</name>
								</interpolation>
								<value>1</value>
							</parameter>
						</effect>
					</filter>
					<filter>
						<effect>
							<name>Audio Pan</name>
							<effectid>audiopan</effectid>
							<effectcategory>audiopan</effectcategory>
							<effecttype>audiopan</effecttype>
							<mediatype>audio</mediatype>
							<parameter>
								<name>Pan</name>
								<parameterid>pan</parameterid>
								<valuemin>-1</valuemin>
								<valuemax>1</valuemax>
								<value>0</value>
							</parameter>
						</effect>
					</filter>
					<sourcetrack>
						<mediatype>audio</mediatype>
						<trackindex>1</trackindex>
					</sourcetrack>
					<link>
						<linkclipref>msub200012-3011-k2d3-006 </linkclipref>
						<mediatype>video</mediatype>
						<trackindex>1</trackindex>
						<clipindex>141</clipindex>
					</link>
					<link>
						<linkclipref>msub200012-3011-k1d3-003 </linkclipref>
						<mediatype>audio</mediatype>
						<trackindex>1</trackindex>
						<clipindex>158</clipindex>
					</link>
					<link>
						<linkclipref>msub200012-3011-k1d3-003 1</linkclipref>
						<mediatype>audio</mediatype>
						<trackindex>2</trackindex>
						<clipindex>145</clipindex>
					</link>
				</clipitem>
				<enabled>TRUE</enabled>
				<locked>FALSE</locked>
				<outputchannelindex>1</outputchannelindex>
			</track>
			<track>
				<clipitem id="msub200012-3011-k1d1-006 4">
					<name>msub200012-3011-k1d1-006</name>
					<duration>583</duration>
					<rate>
						<ntsc>FALSE</ntsc>
						<timebase>25</timebase>
					</rate>
					<in>72</in>
					<out>488</out>
					<start>0</start>
					<end>-1</end>
					<subframeoffset>0</subframeoffset>
					<masterclipid>msub200012-3011-k1d1-006 1</masterclipid>
					<logginginfo>
						<description>msub200012-3011-k1d1-006</description>
						<scene/>
						<shottake/>
						<lognote/>
						<good>FALSE</good>
					</logginginfo>
					<labels>
						<label2/>
					</labels>
					<comments>
						<mastercomment1>RÃ…STOFF. BR_FINFREDAG_MSUA_OPRO</mastercomment1>
						<mastercomment2/>
						<mastercomment3/>
						<mastercomment4/>
						<clipcommenta/>
					</comments>
					<file id="msub200012-3011-k1d1-006 2"/>
					<filter>
						<start>-1</start>
						<end>-1</end>
						<effect>
							<name>3 Band Equalizer - Kristine</name>
							<effecttype>filter</effecttype>
							<mediatype>audio</mediatype>
							<parameter>
								<parameterid>Low Frequency</parameterid>
								<name>Low Frequency</name>
								<valuemin>80</valuemin>
								<valuemax>2000</valuemax>
								<value>80</value>
							</parameter>
							<parameter>
								<parameterid>Low Gain(dB)</parameterid>
								<name>Low Gain(dB)</name>
								<valuemin>-20</valuemin>
								<valuemax>20</valuemax>
								<value>-4</value>
							</parameter>
							<parameter>
								<parameterid>Mid Frequency</parameterid>
								<name>Mid Frequency</name>
								<valuemin>400</valuemin>
								<valuemax>8000</valuemax>
								<value>3602</value>
							</parameter>
							<parameter>
								<parameterid>Mid Gain(dB)</parameterid>
								<name>Mid Gain(dB)</name>
								<valuemin>-20</valuemin>
								<valuemax>20</valuemax>
								<value>3</value>
							</parameter>
							<parameter>
								<parameterid>High Frequency</parameterid>
								<name>High Frequency</name>
								<valuemin>5000</valuemin>
								<valuemax>20000</valuemax>
								<value>10354</value>
							</parameter>
							<parameter>
								<parameterid>High Gain(dB)</parameterid>
								<name>High Gain(dB)</name>
								<valuemin>-20</valuemin>
								<valuemax>20</valuemax>
								<value>0</value>
							</parameter>
						</effect>
					</filter>
					<filter>
						<start>-1</start>
						<end>-1</end>
						<effect>
							<name>Compressor/Limiter</name>
							<effecttype>filter</effecttype>
							<mediatype>audio</mediatype>
							<parameter>
								<parameterid>Threshold(dB)</parameterid>
								<name>Threshold(dB)</name>
								<valuemin>-90</valuemin>
								<valuemax>0</valuemax>
								<value>-20</value>
							</parameter>
							<parameter>
								<parameterid>Ratio</parameterid>
								<name>Ratio</name>
								<valuemin>1</valuemin>
								<valuemax>100</valuemax>
								<value>2</value>
							</parameter>
							<parameter>
								<parameterid>Attack Time</parameterid>
								<name>Attack Time</name>
								<valuemin>1</valuemin>
								<valuemax>100</valuemax>
								<value>5</value>
							</parameter>
							<parameter>
								<parameterid>Release Time</parameterid>
								<name>Release Time</name>
								<valuemin>1</valuemin>
								<valuemax>4000</valuemax>
								<value>209</value>
							</parameter>
							<parameter>
								<parameterid>Preserve Volume</parameterid>
								<name>Preserve Volume</name>
								<value>TRUE</value>
							</parameter>
						</effect>
					</filter>
					<filter>
						<effect>
							<name>Audio Levels</name>
							<effectid>audiolevels</effectid>
							<effectcategory>audiolevels</effectcategory>
							<effecttype>audiolevels</effecttype>
							<mediatype>audio</mediatype>
							<parameter>
								<name>Level</name>
								<parameterid>level</parameterid>
								<valuemin>0</valuemin>
								<valuemax>3.98109</valuemax>
								<keyframe>
									<when>117.429</when>
									<value>1.25893</value>
								</keyframe>
								<keyframe>
									<when>120</when>
									<value>1</value>
								</keyframe>
								<keyframe>
									<when>135.143</when>
									<value>1</value>
								</keyframe>
								<keyframe>
									<when>139.429</when>
									<value>1.99526</value>
								</keyframe>
								<keyframe>
									<when>195.143</when>
									<value>1.99526</value>
								</keyframe>
								<keyframe>
									<when>200.571</when>
									<value>1</value>
								</keyframe>
								<keyframe>
									<when>241.143</when>
									<value>1</value>
								</keyframe>
								<keyframe>
									<when>245.429</when>
									<value>1.77828</value>
								</keyframe>
								<keyframe>
									<when>314.286</when>
									<value>1.25893</value>
								</keyframe>
								<keyframe>
									<when>317.429</when>
									<value>1</value>
								</keyframe>
								<keyframe>
									<when>368.857</when>
									<value>1.112</value>
								</keyframe>
								<keyframe>
									<when>396</when>
									<value>1.24279</value>
								</keyframe>
								<keyframe>
									<when>402</when>
									<value>1.58489</value>
								</keyframe>
								<keyframe>
									<when>407.714</when>
									<value>0.501187</value>
								</keyframe>
								<keyframe>
									<when>412.857</when>
									<value>0.0891251</value>
								</keyframe>
								<keyframe>
									<when>434.286</when>
									<value>0.0891251</value>
								</keyframe>
								<keyframe>
									<when>437.143</when>
									<value>0.794328</value>
								</keyframe>
								<interpolation>
									<name>FCPCurve</name>
								</interpolation>
								<value>1</value>
							</parameter>
						</effect>
					</filter>
					<filter>
						<effect>
							<name>Audio Pan</name>
							<effectid>audiopan</effectid>
							<effectcategory>audiopan</effectcategory>
							<effecttype>audiopan</effecttype>
							<mediatype>audio</mediatype>
							<parameter>
								<name>Pan</name>
								<parameterid>pan</parameterid>
								<valuemin>-1</valuemin>
								<valuemax>1</valuemax>
								<value>0</value>
							</parameter>
						</effect>
					</filter>
					<sourcetrack>
						<mediatype>audio</mediatype>
						<trackindex>2</trackindex>
					</sourcetrack>
				</clipitem>
				<transitionitem id="29">
					<rate>
						<ntsc>FALSE</ntsc>
						<timebase>25</timebase>
					</rate>
					<start>410</start>
					<end>416</end>
					<alignment>end-black</alignment>
					<effect>
						<name>Cross Fade (+3dB) Copy</name>
						<effecttype>transition</effecttype>
						<mediatype>audio</mediatype>
					</effect>
				</transitionitem>
				<transitionitem id="39270812 ">
					<rate>
						<ntsc>FALSE</ntsc>
						<timebase>25</timebase>
					</rate>
					<start>925</start>
					<end>931</end>
					<alignment>start-black</alignment>
					<effect>
						<name>Cross Fade (+3dB)</name>
						<effecttype>transition</effecttype>
						<mediatype>audio</mediatype>
					</effect>
				</transitionitem>
				<clipitem id="msub200012-2511-001 38">
					<name>msub200012-2511-001</name>
					<duration>27694</duration>
					<rate>
						<ntsc>FALSE</ntsc>
						<timebase>25</timebase>
					</rate>
					<in>18378</in>
					<out>18574</out>
					<start>-1</start>
					<end>-1</end>
					<subframeoffset>0</subframeoffset>
					<enabled>TRUE</enabled>
					<masterclipid>msub200012-2511-001 1</masterclipid>
					<logginginfo>
						<description>msub200012-2511-001</description>
						<scene/>
						<shottake/>
						<lognote/>
						<good>FALSE</good>
					</logginginfo>
					<labels>
						<label2/>
					</labels>
					<comments>
						<mastercomment1>RÃ…STOFF. BR_FINFREDAG_MSUA_OPRO</mastercomment1>
						<mastercomment2/>
						<mastercomment3/>
						<mastercomment4/>
						<clipcommenta/>
					</comments>
					<file id="msub200012-2511-001 2"/>
					<filter>
						<enabled>TRUE</enabled>
						<start>-1</start>
						<end>-1</end>
						<effect>
							<name>3 Band Equalizer - Mann</name>
							<effecttype>filter</effecttype>
							<mediatype>audio</mediatype>
							<parameter>
								<parameterid>Low Frequency</parameterid>
								<name>Low Frequency</name>
								<valuemin>80</valuemin>
								<valuemax>2000</valuemax>
								<value>100</value>
							</parameter>
							<parameter>
								<parameterid>Low Gain(dB)</parameterid>
								<name>Low Gain(dB)</name>
								<valuemin>-20</valuemin>
								<valuemax>20</valuemax>
								<value>-4</value>
							</parameter>
							<parameter>
								<parameterid>Mid Frequency</parameterid>
								<name>Mid Frequency</name>
								<valuemin>400</valuemin>
								<valuemax>8000</valuemax>
								<value>3602</value>
							</parameter>
							<parameter>
								<parameterid>Mid Gain(dB)</parameterid>
								<name>Mid Gain(dB)</name>
								<valuemin>-20</valuemin>
								<valuemax>20</valuemax>
								<value>3</value>
							</parameter>
							<parameter>
								<parameterid>High Frequency</parameterid>
								<name>High Frequency</name>
								<valuemin>5000</valuemin>
								<valuemax>20000</valuemax>
								<value>10354</value>
							</parameter>
							<parameter>
								<parameterid>High Gain(dB)</parameterid>
								<name>High Gain(dB)</name>
								<valuemin>-20</valuemin>
								<valuemax>20</valuemax>
								<value>0</value>
							</parameter>
						</effect>
					</filter>
					<filter>
						<enabled>TRUE</enabled>
						<start>-1</start>
						<end>-1</end>
						<effect>
							<name>Compressor/Limiter</name>
							<effecttype>filter</effecttype>
							<mediatype>audio</mediatype>
							<parameter>
								<parameterid>Threshold(dB)</parameterid>
								<name>Threshold(dB)</name>
								<valuemin>-90</valuemin>
								<valuemax>0</valuemax>
								<value>-20</value>
							</parameter>
							<parameter>
								<parameterid>Ratio</parameterid>
								<name>Ratio</name>
								<valuemin>1</valuemin>
								<valuemax>100</valuemax>
								<value>2</value>
							</parameter>
							<parameter>
								<parameterid>Attack Time</parameterid>
								<name>Attack Time</name>
								<valuemin>1</valuemin>
								<valuemax>100</valuemax>
								<value>5</value>
							</parameter>
							<parameter>
								<parameterid>Release Time</parameterid>
								<name>Release Time</name>
								<valuemin>1</valuemin>
								<valuemax>4000</valuemax>
								<value>209</value>
							</parameter>
							<parameter>
								<parameterid>Preserve Volume</parameterid>
								<name>Preserve Volume</name>
								<value>TRUE</value>
							</parameter>
						</effect>
					</filter>
					<filter>
						<effect>
							<name>Audio Levels</name>
							<effectid>audiolevels</effectid>
							<effectcategory>audiolevels</effectcategory>
							<effecttype>audiolevels</effecttype>
							<mediatype>audio</mediatype>
							<parameter>
								<name>Level</name>
								<parameterid>level</parameterid>
								<valuemin>0</valuemin>
								<valuemax>3.98109</valuemax>
								<keyframe>
									<when>18491</when>
									<value>1.12202</value>
								</keyframe>
								<keyframe>
									<when>18498</when>
									<value>0.0251189</value>
								</keyframe>
								<interpolation>
									<name>FCPCurve</name>
								</interpolation>
								<value>1.12202</value>
							</parameter>
						</effect>
					</filter>
					<filter>
						<effect>
							<name>Audio Pan</name>
							<effectid>audiopan</effectid>
							<effectcategory>audiopan</effectcategory>
							<effecttype>audiopan</effecttype>
							<mediatype>audio</mediatype>
							<parameter>
								<name>Pan</name>
								<parameterid>pan</parameterid>
								<valuemin>-1</valuemin>
								<valuemax>1</valuemax>
								<value>0</value>
							</parameter>
						</effect>
					</filter>
					<sourcetrack>
						<mediatype>audio</mediatype>
						<trackindex>2</trackindex>
					</sourcetrack>
					<link>
						<linkclipref>msub200012-2511-001 38</linkclipref>
						<mediatype>audio</mediatype>
						<trackindex>2</trackindex>
						<clipindex>4</clipindex>
					</link>
				</clipitem>
				<transitionitem id="30">
					<rate>
						<ntsc>FALSE</ntsc>
						<timebase>25</timebase>
					</rate>
					<start>1119</start>
					<end>1121</end>
					<alignment>center</alignment>
					<effect>
						<name>Cross Fade (+3dB) Copy</name>
						<effecttype>transition</effecttype>
						<mediatype>audio</mediatype>
					</effect>
				</transitionitem>
				<transitionitem id="39291376 ">
					<rate>
						<ntsc>FALSE</ntsc>
						<timebase>25</timebase>
					</rate>
					<start>1329</start>
					<end>1335</end>
					<alignment>start-black</alignment>
					<effect>
						<name>Cross Fade (+3dB)</name>
						<effecttype>transition</effecttype>
						<mediatype>audio</mediatype>
					</effect>
				</transitionitem>
				<clipitem id="msub200012-3011-k1d1-009 5">
					<name>msub200012-3011-k1d1-009</name>
					<duration>2155</duration>
					<rate>
						<ntsc>FALSE</ntsc>
						<timebase>25</timebase>
					</rate>
					<in>458</in>
					<out>1494</out>
					<start>-1</start>
					<end>-1</end>
					<subframeoffset>0</subframeoffset>
					<enabled>TRUE</enabled>
					<masterclipid>msub200012-3011-k1d1-009 1</masterclipid>
					<syncoffset>0</syncoffset>
					<logginginfo>
						<description>msub200012-3011-k1d1-009</description>
						<scene/>
						<shottake/>
						<lognote/>
						<good>FALSE</good>
					</logginginfo>
					<labels>
						<label>Good Take</label>
						<label2/>
					</labels>
					<comments>
						<mastercomment1>RÃ…STOFF. BR_FINFREDAG_MSUA_OPRO</mastercomment1>
						<mastercomment2/>
						<mastercomment3/>
						<mastercomment4/>
						<clipcommenta/>
					</comments>
					<file id="msub200012-3011-k1d1-009 2"/>
					<filter>
						<enabled>TRUE</enabled>
						<start>-1</start>
						<end>-1</end>
						<effect>
							<name>Compressor/Limiter</name>
							<effecttype>filter</effecttype>
							<mediatype>audio</mediatype>
							<parameter>
								<parameterid>Threshold(dB)</parameterid>
								<name>Threshold(dB)</name>
								<valuemin>-90</valuemin>
								<valuemax>0</valuemax>
								<value>-20</value>
							</parameter>
							<parameter>
								<parameterid>Ratio</parameterid>
								<name>Ratio</name>
								<valuemin>1</valuemin>
								<valuemax>100</valuemax>
								<value>2</value>
							</parameter>
							<parameter>
								<parameterid>Attack Time</parameterid>
								<name>Attack Time</name>
								<valuemin>1</valuemin>
								<valuemax>100</valuemax>
								<value>5</value>
							</parameter>
							<parameter>
								<parameterid>Release Time</parameterid>
								<name>Release Time</name>
								<valuemin>1</valuemin>
								<valuemax>4000</valuemax>
								<value>209</value>
							</parameter>
							<parameter>
								<parameterid>Preserve Volume</parameterid>
								<name>Preserve Volume</name>
								<value>TRUE</value>
							</parameter>
						</effect>
					</filter>
					<filter>
						<effect>
							<name>Audio Levels</name>
							<effectid>audiolevels</effectid>
							<effectcategory>audiolevels</effectcategory>
							<effecttype>audiolevels</effecttype>
							<mediatype>audio</mediatype>
							<parameter>
								<name>Level</name>
								<parameterid>level</parameterid>
								<valuemin>0</valuemin>
								<valuemax>3.98109</valuemax>
								<keyframe>
									<when>481.857</when>
									<value>0.891251</value>
								</keyframe>
								<keyframe>
									<when>489.571</when>
									<value>0.0177828</value>
								</keyframe>
								<keyframe>
									<when>534.429</when>
									<value>0.0177828</value>
								</keyframe>
								<keyframe>
									<when>541.286</when>
									<value>1</value>
								</keyframe>
								<keyframe>
									<when>970</when>
									<value>1</value>
								</keyframe>
								<keyframe>
									<when>977.143</when>
									<value>0.0891251</value>
								</keyframe>
								<keyframe>
									<when>1041.71</when>
									<value>0.0891251</value>
								</keyframe>
								<interpolation>
									<name>FCPCurve</name>
								</interpolation>
								<value>1</value>
							</parameter>
						</effect>
					</filter>
					<filter>
						<effect>
							<name>Audio Pan</name>
							<effectid>audiopan</effectid>
							<effectcategory>audiopan</effectcategory>
							<effecttype>audiopan</effecttype>
							<mediatype>audio</mediatype>
							<parameter>
								<name>Pan</name>
								<parameterid>pan</parameterid>
								<valuemin>-1</valuemin>
								<valuemax>1</valuemax>
								<value>0</value>
							</parameter>
						</effect>
					</filter>
					<sourcetrack>
						<mediatype>audio</mediatype>
						<trackindex>2</trackindex>
					</sourcetrack>
					<link>
						<linkclipref>msub200012-3011-k1d1-009 4</linkclipref>
						<mediatype>audio</mediatype>
						<trackindex>1</trackindex>
						<clipindex>13</clipindex>
					</link>
					<link>
						<linkclipref>msub200012-3011-k1d1-009 5</linkclipref>
						<mediatype>audio</mediatype>
						<trackindex>2</trackindex>
						<clipindex>7</clipindex>
					</link>
				</clipitem>
				<transitionitem id="31">
					<rate>
						<ntsc>FALSE</ntsc>
						<timebase>25</timebase>
					</rate>
					<start>2363</start>
					<end>2365</end>
					<alignment>center</alignment>
					<effect>
						<name>Cross Fade (+3dB) Copy</name>
						<effecttype>transition</effecttype>
						<mediatype>audio</mediatype>
					</effect>
				</transitionitem>
				<clipitem id="msub200012-3011-k1d1-009 7">
					<name>msub200012-3011-k1d1-009</name>
					<duration>2155</duration>
					<rate>
						<ntsc>FALSE</ntsc>
						<timebase>25</timebase>
					</rate>
					<in>1843</in>
					<out>2009</out>
					<start>-1</start>
					<end>-1</end>
					<subframeoffset>0</subframeoffset>
					<masterclipid>msub200012-3011-k1d1-009 1</masterclipid>
					<syncoffset>0</syncoffset>
					<logginginfo>
						<description>msub200012-3011-k1d1-009</description>
						<scene/>
						<shottake/>
						<lognote/>
						<good>FALSE</good>
					</logginginfo>
					<labels>
						<label>Good Take</label>
						<label2/>
					</labels>
					<comments>
						<mastercomment1>RÃ…STOFF. BR_FINFREDAG_MSUA_OPRO</mastercomment1>
						<mastercomment2/>
						<mastercomment3/>
						<mastercomment4/>
						<clipcommenta/>
					</comments>
					<file id="msub200012-3011-k1d1-009 2"/>
					<filter>
						<enabled>TRUE</enabled>
						<start>-1</start>
						<end>-1</end>
						<effect>
							<name>Compressor/Limiter</name>
							<effecttype>filter</effecttype>
							<mediatype>audio</mediatype>
							<parameter>
								<parameterid>Threshold(dB)</parameterid>
								<name>Threshold(dB)</name>
								<valuemin>-90</valuemin>
								<valuemax>0</valuemax>
								<value>-20</value>
							</parameter>
							<parameter>
								<parameterid>Ratio</parameterid>
								<name>Ratio</name>
								<valuemin>1</valuemin>
								<valuemax>100</valuemax>
								<value>2</value>
							</parameter>
							<parameter>
								<parameterid>Attack Time</parameterid>
								<name>Attack Time</name>
								<valuemin>1</valuemin>
								<valuemax>100</valuemax>
								<value>5</value>
							</parameter>
							<parameter>
								<parameterid>Release Time</parameterid>
								<name>Release Time</name>
								<valuemin>1</valuemin>
								<valuemax>4000</valuemax>
								<value>209</value>
							</parameter>
							<parameter>
								<parameterid>Preserve Volume</parameterid>
								<name>Preserve Volume</name>
								<value>TRUE</value>
							</parameter>
						</effect>
					</filter>
					<filter>
						<effect>
							<name>Audio Levels</name>
							<effectid>audiolevels</effectid>
							<effectcategory>audiolevels</effectcategory>
							<effecttype>audiolevels</effecttype>
							<mediatype>audio</mediatype>
							<parameter>
								<name>Level</name>
								<parameterid>level</parameterid>
								<valuemin>0</valuemin>
								<valuemax>3.98109</valuemax>
								<value>0.0891251</value>
							</parameter>
						</effect>
					</filter>
					<filter>
						<effect>
							<name>Audio Pan</name>
							<effectid>audiopan</effectid>
							<effectcategory>audiopan</effectcategory>
							<effecttype>audiopan</effecttype>
							<mediatype>audio</mediatype>
							<parameter>
								<name>Pan</name>
								<parameterid>pan</parameterid>
								<valuemin>-1</valuemin>
								<valuemax>1</valuemax>
								<value>0</value>
							</parameter>
						</effect>
					</filter>
					<sourcetrack>
						<mediatype>audio</mediatype>
						<trackindex>2</trackindex>
					</sourcetrack>
					<link>
						<linkclipref>msub200012-3011-k1d1-009 6</linkclipref>
						<mediatype>audio</mediatype>
						<trackindex>1</trackindex>
						<clipindex>15</clipindex>
					</link>
					<link>
						<linkclipref>msub200012-3011-k1d1-009 7</linkclipref>
						<mediatype>audio</mediatype>
						<trackindex>2</trackindex>
						<clipindex>9</clipindex>
					</link>
				</clipitem>
				<transitionitem id="39295864 ">
					<rate>
						<ntsc>FALSE</ntsc>
						<timebase>25</timebase>
					</rate>
					<start>2523</start>
					<end>2529</end>
					<alignment>end-black</alignment>
					<effect>
						<name>Cross Fade (+3dB) Copy</name>
						<effecttype>transition</effecttype>
						<mediatype>audio</mediatype>
					</effect>
				</transitionitem>
				<transitionitem id="39296340 ">
					<rate>
						<ntsc>FALSE</ntsc>
						<timebase>25</timebase>
					</rate>
					<start>3138</start>
					<end>3144</end>
					<alignment>start-black</alignment>
					<effect>
						<name>Cross Fade (+3dB)</name>
						<effecttype>transition</effecttype>
						<mediatype>audio</mediatype>
					</effect>
				</transitionitem>
				<clipitem id="msub200012-3011-k1d1-010 4">
					<name>msub200012-3011-k1d1-010</name>
					<duration>10013</duration>
					<rate>
						<ntsc>FALSE</ntsc>
						<timebase>25</timebase>
					</rate>
					<in>469</in>
					<out>617</out>
					<start>-1</start>
					<end>-1</end>
					<subframeoffset>0</subframeoffset>
					<masterclipid>msub200012-3011-k1d1-010 1</masterclipid>
					<logginginfo>
						<description>msub200012-3011-k1d1-010</description>
						<scene/>
						<shottake/>
						<lognote/>
						<good>FALSE</good>
					</logginginfo>
					<labels>
						<label2/>
					</labels>
					<comments>
						<mastercomment1>RÃ…STOFF. BR_FINFREDAG_MSUA_OPRO</mastercomment1>
						<mastercomment2/>
						<mastercomment3/>
						<mastercomment4/>
						<clipcommenta/>
					</comments>
					<file id="msub200012-3011-k1d1-010 2"/>
					<filter>
						<enabled>TRUE</enabled>
						<start>-1</start>
						<end>-1</end>
						<effect>
							<name>3 Band Equalizer - Kristine</name>
							<effecttype>filter</effecttype>
							<mediatype>audio</mediatype>
							<parameter>
								<parameterid>Low Frequency</parameterid>
								<name>Low Frequency</name>
								<valuemin>80</valuemin>
								<valuemax>2000</valuemax>
								<value>80</value>
							</parameter>
							<parameter>
								<parameterid>Low Gain(dB)</parameterid>
								<name>Low Gain(dB)</name>
								<valuemin>-20</valuemin>
								<valuemax>20</valuemax>
								<value>-4</value>
							</parameter>
							<parameter>
								<parameterid>Mid Frequency</parameterid>
								<name>Mid Frequency</name>
								<valuemin>400</valuemin>
								<valuemax>8000</valuemax>
								<value>3602</value>
							</parameter>
							<parameter>
								<parameterid>Mid Gain(dB)</parameterid>
								<name>Mid Gain(dB)</name>
								<valuemin>-20</valuemin>
								<valuemax>20</valuemax>
								<value>3</value>
							</parameter>
							<parameter>
								<parameterid>High Frequency</parameterid>
								<name>High Frequency</name>
								<valuemin>5000</valuemin>
								<valuemax>20000</valuemax>
								<value>10354</value>
							</parameter>
							<parameter>
								<parameterid>High Gain(dB)</parameterid>
								<name>High Gain(dB)</name>
								<valuemin>-20</valuemin>
								<valuemax>20</valuemax>
								<value>0</value>
							</parameter>
						</effect>
					</filter>
					<filter>
						<enabled>TRUE</enabled>
						<start>-1</start>
						<end>-1</end>
						<effect>
							<name>Compressor/Limiter</name>
							<effecttype>filter</effecttype>
							<mediatype>audio</mediatype>
							<parameter>
								<parameterid>Threshold(dB)</parameterid>
								<name>Threshold(dB)</name>
								<valuemin>-90</valuemin>
								<valuemax>0</valuemax>
								<value>-20</value>
							</parameter>
							<parameter>
								<parameterid>Ratio</parameterid>
								<name>Ratio</name>
								<valuemin>1</valuemin>
								<valuemax>100</valuemax>
								<value>2</value>
							</parameter>
							<parameter>
								<parameterid>Attack Time</parameterid>
								<name>Attack Time</name>
								<valuemin>1</valuemin>
								<valuemax>100</valuemax>
								<value>5</value>
							</parameter>
							<parameter>
								<parameterid>Release Time</parameterid>
								<name>Release Time</name>
								<valuemin>1</valuemin>
								<valuemax>4000</valuemax>
								<value>209</value>
							</parameter>
							<parameter>
								<parameterid>Preserve Volume</parameterid>
								<name>Preserve Volume</name>
								<value>TRUE</value>
							</parameter>
						</effect>
					</filter>
					<filter>
						<effect>
							<name>Audio Levels</name>
							<effectid>audiolevels</effectid>
							<effectcategory>audiolevels</effectcategory>
							<effecttype>audiolevels</effecttype>
							<mediatype>audio</mediatype>
							<parameter>
								<name>Level</name>
								<parameterid>level</parameterid>
								<valuemin>0</valuemin>
								<valuemax>3.98109</valuemax>
								<value>0.891251</value>
							</parameter>
						</effect>
					</filter>
					<filter>
						<effect>
							<name>Audio Pan</name>
							<effectid>audiopan</effectid>
							<effectcategory>audiopan</effectcategory>
							<effecttype>audiopan</effecttype>
							<mediatype>audio</mediatype>
							<parameter>
								<name>Pan</name>
								<parameterid>pan</parameterid>
								<valuemin>-1</valuemin>
								<valuemax>1</valuemax>
								<value>0</value>
							</parameter>
						</effect>
					</filter>
					<sourcetrack>
						<mediatype>audio</mediatype>
						<trackindex>2</trackindex>
					</sourcetrack>
					<link>
						<linkclipref>msub200012-3011-k1d1-010 </linkclipref>
						<mediatype>video</mediatype>
						<trackindex>1</trackindex>
						<clipindex>9</clipindex>
					</link>
					<link>
						<linkclipref>msub200012-3011-k1d1-010 3</linkclipref>
						<mediatype>audio</mediatype>
						<trackindex>1</trackindex>
						<clipindex>18</clipindex>
					</link>
					<link>
						<linkclipref>msub200012-3011-k1d1-010 4</linkclipref>
						<mediatype>audio</mediatype>
						<trackindex>2</trackindex>
						<clipindex>12</clipindex>
					</link>
				</clipitem>
				<transitionitem id="39299808 ">
					<rate>
						<ntsc>FALSE</ntsc>
						<timebase>25</timebase>
					</rate>
					<start>3280</start>
					<end>3286</end>
					<alignment>center</alignment>
					<effect>
						<name>Cross Fade (+3dB) Copy</name>
						<effecttype>transition</effecttype>
						<mediatype>audio</mediatype>
					</effect>
				</transitionitem>
				<clipitem id="msub200012-3011-k1d1-010 7">
					<name>msub200012-3011-k1d1-010</name>
					<duration>10013</duration>
					<rate>
						<ntsc>FALSE</ntsc>
						<timebase>25</timebase>
					</rate>
					<in>1593</in>
					<out>1995</out>
					<start>-1</start>
					<end>-1</end>
					<subframeoffset>0</subframeoffset>
					<masterclipid>msub200012-3011-k1d1-010 1</masterclipid>
					<logginginfo>
						<description>msub200012-3011-k1d1-010</description>
						<scene/>
						<shottake/>
						<lognote/>
						<good>FALSE</good>
					</logginginfo>
					<labels>
						<label2/>
					</labels>
					<comments>
						<mastercomment1>RÃ…STOFF. BR_FINFREDAG_MSUA_OPRO</mastercomment1>
						<mastercomment2/>
						<mastercomment3/>
						<mastercomment4/>
						<clipcommenta/>
					</comments>
					<file id="msub200012-3011-k1d1-010 2"/>
					<filter>
						<enabled>TRUE</enabled>
						<start>-1</start>
						<end>-1</end>
						<effect>
							<name>3 Band Equalizer - Kristine</name>
							<effecttype>filter</effecttype>
							<mediatype>audio</mediatype>
							<parameter>
								<parameterid>Low Frequency</parameterid>
								<name>Low Frequency</name>
								<valuemin>80</valuemin>
								<valuemax>2000</valuemax>
								<value>80</value>
							</parameter>
							<parameter>
								<parameterid>Low Gain(dB)</parameterid>
								<name>Low Gain(dB)</name>
								<valuemin>-20</valuemin>
								<valuemax>20</valuemax>
								<value>-4</value>
							</parameter>
							<parameter>
								<parameterid>Mid Frequency</parameterid>
								<name>Mid Frequency</name>
								<valuemin>400</valuemin>
								<valuemax>8000</valuemax>
								<value>3602</value>
							</parameter>
							<parameter>
								<parameterid>Mid Gain(dB)</parameterid>
								<name>Mid Gain(dB)</name>
								<valuemin>-20</valuemin>
								<valuemax>20</valuemax>
								<value>3</value>
							</parameter>
							<parameter>
								<parameterid>High Frequency</parameterid>
								<name>High Frequency</name>
								<valuemin>5000</valuemin>
								<valuemax>20000</valuemax>
								<value>10354</value>
							</parameter>
							<parameter>
								<parameterid>High Gain(dB)</parameterid>
								<name>High Gain(dB)</name>
								<valuemin>-20</valuemin>
								<valuemax>20</valuemax>
								<value>0</value>
							</parameter>
						</effect>
					</filter>
					<filter>
						<enabled>TRUE</enabled>
						<start>-1</start>
						<end>-1</end>
						<effect>
							<name>Compressor/Limiter</name>
							<effecttype>filter</effecttype>
							<mediatype>audio</mediatype>
							<parameter>
								<parameterid>Threshold(dB)</parameterid>
								<name>Threshold(dB)</name>
								<valuemin>-90</valuemin>
								<valuemax>0</valuemax>
								<value>-20</value>
							</parameter>
							<parameter>
								<parameterid>Ratio</parameterid>
								<name>Ratio</name>
								<valuemin>1</valuemin>
								<valuemax>100</valuemax>
								<value>2</value>
							</parameter>
							<parameter>
								<parameterid>Attack Time</parameterid>
								<name>Attack Time</name>
								<valuemin>1</valuemin>
								<valuemax>100</valuemax>
								<value>5</value>
							</parameter>
							<parameter>
								<parameterid>Release Time</parameterid>
								<name>Release Time</name>
								<valuemin>1</valuemin>
								<valuemax>4000</valuemax>
								<value>209</value>
							</parameter>
							<parameter>
								<parameterid>Preserve Volume</parameterid>
								<name>Preserve Volume</name>
								<value>TRUE</value>
							</parameter>
						</effect>
					</filter>
					<filter>
						<effect>
							<name>Audio Levels</name>
							<effectid>audiolevels</effectid>
							<effectcategory>audiolevels</effectcategory>
							<effecttype>audiolevels</effecttype>
							<mediatype>audio</mediatype>
							<parameter>
								<name>Level</name>
								<parameterid>level</parameterid>
								<valuemin>0</valuemin>
								<valuemax>3.98109</valuemax>
								<value>1</value>
							</parameter>
						</effect>
					</filter>
					<filter>
						<effect>
							<name>Audio Pan</name>
							<effectid>audiopan</effectid>
							<effectcategory>audiopan</effectcategory>
							<effecttype>audiopan</effecttype>
							<mediatype>audio</mediatype>
							<parameter>
								<name>Pan</name>
								<parameterid>pan</parameterid>
								<valuemin>-1</valuemin>
								<valuemax>1</valuemax>
								<value>0</value>
							</parameter>
						</effect>
					</filter>
					<sourcetrack>
						<mediatype>audio</mediatype>
						<trackindex>2</trackindex>
					</sourcetrack>
					<link>
						<linkclipref>msub200012-3011-k1d1-010 5</linkclipref>
						<mediatype>video</mediatype>
						<trackindex>1</trackindex>
						<clipindex>10</clipindex>
					</link>
					<link>
						<linkclipref>msub200012-3011-k1d1-010 6</linkclipref>
						<mediatype>audio</mediatype>
						<trackindex>1</trackindex>
						<clipindex>20</clipindex>
					</link>
					<link>
						<linkclipref>msub200012-3011-k1d1-010 7</linkclipref>
						<mediatype>audio</mediatype>
						<trackindex>2</trackindex>
						<clipindex>14</clipindex>
					</link>
				</clipitem>
				<transitionitem id="39303276 ">
					<rate>
						<ntsc>FALSE</ntsc>
						<timebase>25</timebase>
					</rate>
					<start>3676</start>
					<end>3682</end>
					<alignment>center</alignment>
					<effect>
						<name>Cross Fade (+3dB)</name>
						<effecttype>transition</effecttype>
						<mediatype>audio</mediatype>
					</effect>
				</transitionitem>
				<transitionitem id="39303752 ">
					<rate>
						<ntsc>FALSE</ntsc>
						<timebase>25</timebase>
					</rate>
					<start>4177</start>
					<end>4183</end>
					<alignment>start-black</alignment>
					<effect>
						<name>Cross Fade (+3dB)</name>
						<effecttype>transition</effecttype>
						<mediatype>audio</mediatype>
					</effect>
				</transitionitem>
				<clipitem id="msub200012-3011-k1d1-010 10">
					<name>msub200012-3011-k1d1-010</name>
					<duration>10013</duration>
					<rate>
						<ntsc>FALSE</ntsc>
						<timebase>25</timebase>
					</rate>
					<in>2585</in>
					<out>2808</out>
					<start>-1</start>
					<end>-1</end>
					<subframeoffset>0</subframeoffset>
					<masterclipid>msub200012-3011-k1d1-010 1</masterclipid>
					<logginginfo>
						<description>msub200012-3011-k1d1-010</description>
						<scene/>
						<shottake/>
						<lognote/>
						<good>FALSE</good>
					</logginginfo>
					<labels>
						<label2/>
					</labels>
					<comments>
						<mastercomment1>RÃ…STOFF. BR_FINFREDAG_MSUA_OPRO</mastercomment1>
						<mastercomment2/>
						<mastercomment3/>
						<mastercomment4/>
						<clipcommenta/>
					</comments>
					<file id="msub200012-3011-k1d1-010 2"/>
					<filter>
						<enabled>TRUE</enabled>
						<start>-1</start>
						<end>-1</end>
						<effect>
							<name>3 Band Equalizer - Kristine</name>
							<effecttype>filter</effecttype>
							<mediatype>audio</mediatype>
							<parameter>
								<parameterid>Low Frequency</parameterid>
								<name>Low Frequency</name>
								<valuemin>80</valuemin>
								<valuemax>2000</valuemax>
								<value>80</value>
							</parameter>
							<parameter>
								<parameterid>Low Gain(dB)</parameterid>
								<name>Low Gain(dB)</name>
								<valuemin>-20</valuemin>
								<valuemax>20</valuemax>
								<value>-4</value>
							</parameter>
							<parameter>
								<parameterid>Mid Frequency</parameterid>
								<name>Mid Frequency</name>
								<valuemin>400</valuemin>
								<valuemax>8000</valuemax>
								<value>3602</value>
							</parameter>
							<parameter>
								<parameterid>Mid Gain(dB)</parameterid>
								<name>Mid Gain(dB)</name>
								<valuemin>-20</valuemin>
								<valuemax>20</valuemax>
								<value>3</value>
							</parameter>
							<parameter>
								<parameterid>High Frequency</parameterid>
								<name>High Frequency</name>
								<valuemin>5000</valuemin>
								<valuemax>20000</valuemax>
								<value>10354</value>
							</parameter>
							<parameter>
								<parameterid>High Gain(dB)</parameterid>
								<name>High Gain(dB)</name>
								<valuemin>-20</valuemin>
								<valuemax>20</valuemax>
								<value>0</value>
							</parameter>
						</effect>
					</filter>
					<filter>
						<enabled>TRUE</enabled>
						<start>-1</start>
						<end>-1</end>
						<effect>
							<name>Compressor/Limiter</name>
							<effecttype>filter</effecttype>
							<mediatype>audio</mediatype>
							<parameter>
								<parameterid>Threshold(dB)</parameterid>
								<name>Threshold(dB)</name>
								<valuemin>-90</valuemin>
								<valuemax>0</valuemax>
								<value>-20</value>
							</parameter>
							<parameter>
								<parameterid>Ratio</parameterid>
								<name>Ratio</name>
								<valuemin>1</valuemin>
								<valuemax>100</valuemax>
								<value>2</value>
							</parameter>
							<parameter>
								<parameterid>Attack Time</parameterid>
								<name>Attack Time</name>
								<valuemin>1</valuemin>
								<valuemax>100</valuemax>
								<value>5</value>
							</parameter>
							<parameter>
								<parameterid>Release Time</parameterid>
								<name>Release Time</name>
								<valuemin>1</valuemin>
								<valuemax>4000</valuemax>
								<value>209</value>
							</parameter>
							<parameter>
								<parameterid>Preserve Volume</parameterid>
								<name>Preserve Volume</name>
								<value>TRUE</value>
							</parameter>
						</effect>
					</filter>
					<filter>
						<effect>
							<name>Audio Levels</name>
							<effectid>audiolevels</effectid>
							<effectcategory>audiolevels</effectcategory>
							<effecttype>audiolevels</effecttype>
							<mediatype>audio</mediatype>
							<parameter>
								<name>Level</name>
								<parameterid>level</parameterid>
								<valuemin>0</valuemin>
								<valuemax>3.98109</valuemax>
								<keyframe>
									<when>2586.86</when>
									<value>1.25893</value>
								</keyframe>
								<keyframe>
									<when>2607.57</when>
									<value>1.25893</value>
								</keyframe>
								<keyframe>
									<when>2632.34</when>
									<value>2.23872</value>
								</keyframe>
								<keyframe>
									<when>2633.71</when>
									<value>1.41254</value>
								</keyframe>
								<keyframe>
									<when>2637.43</when>
									<value>1.25893</value>
								</keyframe>
								<keyframe>
									<when>2638.71</when>
									<value>1.12202</value>
								</keyframe>
								<keyframe>
									<when>2642.86</when>
									<value>1</value>
								</keyframe>
								<keyframe>
									<when>2694.71</when>
									<value>1</value>
								</keyframe>
								<keyframe>
									<when>2695.07</when>
									<value>0.251189</value>
								</keyframe>
								<keyframe>
									<when>2696.71</when>
									<value>0.251189</value>
								</keyframe>
								<keyframe>
									<when>2698.35</when>
									<value>1.25893</value>
								</keyframe>
								<keyframe>
									<when>2748.29</when>
									<value>1.25893</value>
								</keyframe>
								<keyframe>
									<when>2750.29</when>
									<value>1</value>
								</keyframe>
								<interpolation>
									<name>FCPCurve</name>
								</interpolation>
								<value>1</value>
							</parameter>
						</effect>
					</filter>
					<filter>
						<effect>
							<name>Audio Pan</name>
							<effectid>audiopan</effectid>
							<effectcategory>audiopan</effectcategory>
							<effecttype>audiopan</effecttype>
							<mediatype>audio</mediatype>
							<parameter>
								<name>Pan</name>
								<parameterid>pan</parameterid>
								<valuemin>-1</valuemin>
								<valuemax>1</valuemax>
								<value>0</value>
							</parameter>
						</effect>
					</filter>
					<sourcetrack>
						<mediatype>audio</mediatype>
						<trackindex>2</trackindex>
					</sourcetrack>
					<link>
						<linkclipref>msub200012-3011-k1d1-010 8</linkclipref>
						<mediatype>video</mediatype>
						<trackindex>1</trackindex>
						<clipindex>16</clipindex>
					</link>
					<link>
						<linkclipref>msub200012-3011-k1d1-010 9</linkclipref>
						<mediatype>audio</mediatype>
						<trackindex>1</trackindex>
						<clipindex>23</clipindex>
					</link>
					<link>
						<linkclipref>msub200012-3011-k1d1-010 10</linkclipref>
						<mediatype>audio</mediatype>
						<trackindex>2</trackindex>
						<clipindex>17</clipindex>
					</link>
				</clipitem>
				<transitionitem id="32">
					<rate>
						<ntsc>FALSE</ntsc>
						<timebase>25</timebase>
					</rate>
					<start>4396</start>
					<end>4400</end>
					<alignment>center</alignment>
					<effect>
						<name>Cross Fade (+3dB) Copy</name>
						<effecttype>transition</effecttype>
						<mediatype>audio</mediatype>
					</effect>
				</transitionitem>
				<clipitem id="msub200012-3011-k1d1-010 13">
					<name>msub200012-3011-k1d1-010</name>
					<duration>10013</duration>
					<rate>
						<ntsc>FALSE</ntsc>
						<timebase>25</timebase>
					</rate>
					<in>3586</in>
					<out>3746</out>
					<start>-1</start>
					<end>-1</end>
					<subframeoffset>0</subframeoffset>
					<masterclipid>msub200012-3011-k1d1-010 1</masterclipid>
					<logginginfo>
						<description>msub200012-3011-k1d1-010</description>
						<scene/>
						<shottake/>
						<lognote/>
						<good>FALSE</good>
					</logginginfo>
					<labels>
						<label2/>
					</labels>
					<comments>
						<mastercomment1>RÃ…STOFF. BR_FINFREDAG_MSUA_OPRO</mastercomment1>
						<mastercomment2/>
						<mastercomment3/>
						<mastercomment4/>
						<clipcommenta/>
					</comments>
					<file id="msub200012-3011-k1d1-010 2"/>
					<filter>
						<enabled>TRUE</enabled>
						<start>-1</start>
						<end>-1</end>
						<effect>
							<name>3 Band Equalizer - Kristine</name>
							<effecttype>filter</effecttype>
							<mediatype>audio</mediatype>
							<parameter>
								<parameterid>Low Frequency</parameterid>
								<name>Low Frequency</name>
								<valuemin>80</valuemin>
								<valuemax>2000</valuemax>
								<value>80</value>
							</parameter>
							<parameter>
								<parameterid>Low Gain(dB)</parameterid>
								<name>Low Gain(dB)</name>
								<valuemin>-20</valuemin>
								<valuemax>20</valuemax>
								<value>-4</value>
							</parameter>
							<parameter>
								<parameterid>Mid Frequency</parameterid>
								<name>Mid Frequency</name>
								<valuemin>400</valuemin>
								<valuemax>8000</valuemax>
								<value>3602</value>
							</parameter>
							<parameter>
								<parameterid>Mid Gain(dB)</parameterid>
								<name>Mid Gain(dB)</name>
								<valuemin>-20</valuemin>
								<valuemax>20</valuemax>
								<value>3</value>
							</parameter>
							<parameter>
								<parameterid>High Frequency</parameterid>
								<name>High Frequency</name>
								<valuemin>5000</valuemin>
								<valuemax>20000</valuemax>
								<value>10354</value>
							</parameter>
							<parameter>
								<parameterid>High Gain(dB)</parameterid>
								<name>High Gain(dB)</name>
								<valuemin>-20</valuemin>
								<valuemax>20</valuemax>
								<value>0</value>
							</parameter>
						</effect>
					</filter>
					<filter>
						<enabled>TRUE</enabled>
						<start>-1</start>
						<end>-1</end>
						<effect>
							<name>Compressor/Limiter</name>
							<effecttype>filter</effecttype>
							<mediatype>audio</mediatype>
							<parameter>
								<parameterid>Threshold(dB)</parameterid>
								<name>Threshold(dB)</name>
								<valuemin>-90</valuemin>
								<valuemax>0</valuemax>
								<value>-20</value>
							</parameter>
							<parameter>
								<parameterid>Ratio</parameterid>
								<name>Ratio</name>
								<valuemin>1</valuemin>
								<valuemax>100</valuemax>
								<value>2</value>
							</parameter>
							<parameter>
								<parameterid>Attack Time</parameterid>
								<name>Attack Time</name>
								<valuemin>1</valuemin>
								<valuemax>100</valuemax>
								<value>5</value>
							</parameter>
							<parameter>
								<parameterid>Release Time</parameterid>
								<name>Release Time</name>
								<valuemin>1</valuemin>
								<valuemax>4000</valuemax>
								<value>209</value>
							</parameter>
							<parameter>
								<parameterid>Preserve Volume</parameterid>
								<name>Preserve Volume</name>
								<value>TRUE</value>
							</parameter>
						</effect>
					</filter>
					<filter>
						<effect>
							<name>Audio Levels</name>
							<effectid>audiolevels</effectid>
							<effectcategory>audiolevels</effectcategory>
							<effecttype>audiolevels</effecttype>
							<mediatype>audio</mediatype>
							<parameter>
								<name>Level</name>
								<parameterid>level</parameterid>
								<valuemin>0</valuemin>
								<valuemax>3.98109</valuemax>
								<keyframe>
									<when>3592.86</when>
									<value>0.794328</value>
								</keyframe>
								<keyframe>
									<when>3595.14</when>
									<value>0.891251</value>
								</keyframe>
								<keyframe>
									<when>3633.14</when>
									<value>0.794328</value>
								</keyframe>
								<keyframe>
									<when>3652</when>
									<value>0.891251</value>
								</keyframe>
								<keyframe>
									<when>3654</when>
									<value>1</value>
								</keyframe>
								<keyframe>
									<when>3784.29</when>
									<value>1</value>
								</keyframe>
								<keyframe>
									<when>3786.29</when>
									<value>1</value>
								</keyframe>
								<interpolation>
									<name>FCPCurve</name>
								</interpolation>
								<value>0.794328</value>
							</parameter>
						</effect>
					</filter>
					<filter>
						<effect>
							<name>Audio Pan</name>
							<effectid>audiopan</effectid>
							<effectcategory>audiopan</effectcategory>
							<effecttype>audiopan</effecttype>
							<mediatype>audio</mediatype>
							<parameter>
								<name>Pan</name>
								<parameterid>pan</parameterid>
								<valuemin>-1</valuemin>
								<valuemax>1</valuemax>
								<value>0</value>
							</parameter>
						</effect>
					</filter>
					<sourcetrack>
						<mediatype>audio</mediatype>
						<trackindex>2</trackindex>
					</sourcetrack>
					<link>
						<linkclipref>msub200012-3011-k1d1-010 11</linkclipref>
						<mediatype>video</mediatype>
						<trackindex>1</trackindex>
						<clipindex>17</clipindex>
					</link>
					<link>
						<linkclipref>msub200012-3011-k1d1-010 12</linkclipref>
						<mediatype>audio</mediatype>
						<trackindex>1</trackindex>
						<clipindex>25</clipindex>
					</link>
					<link>
						<linkclipref>msub200012-3011-k1d1-010 13</linkclipref>
						<mediatype>audio</mediatype>
						<trackindex>2</trackindex>
						<clipindex>19</clipindex>
					</link>
				</clipitem>
				<transitionitem id="39311572 ">
					<rate>
						<ntsc>FALSE</ntsc>
						<timebase>25</timebase>
					</rate>
					<start>4550</start>
					<end>4556</end>
					<alignment>center</alignment>
					<effect>
						<name>Cross Fade (+3dB) Copy</name>
						<effecttype>transition</effecttype>
						<mediatype>audio</mediatype>
					</effect>
				</transitionitem>
				<clipitem id="msub200012-3011-k1d1-010 16">
					<name>msub200012-3011-k1d1-010</name>
					<duration>10013</duration>
					<rate>
						<ntsc>FALSE</ntsc>
						<timebase>25</timebase>
					</rate>
					<in>7090</in>
					<out>7504</out>
					<start>-1</start>
					<end>-1</end>
					<subframeoffset>0</subframeoffset>
					<enabled>TRUE</enabled>
					<masterclipid>msub200012-3011-k1d1-010 1</masterclipid>
					<logginginfo>
						<description>msub200012-3011-k1d1-010</description>
						<scene/>
						<shottake/>
						<lognote/>
						<good>FALSE</good>
					</logginginfo>
					<labels>
						<label2/>
					</labels>
					<comments>
						<mastercomment1>RÃ…STOFF. BR_FINFREDAG_MSUA_OPRO</mastercomment1>
						<mastercomment2/>
						<mastercomment3/>
						<mastercomment4/>
						<clipcommenta/>
					</comments>
					<file id="msub200012-3011-k1d1-010 2"/>
					<filter>
						<enabled>TRUE</enabled>
						<start>-1</start>
						<end>-1</end>
						<effect>
							<name>3 Band Equalizer - Kristine</name>
							<effecttype>filter</effecttype>
							<mediatype>audio</mediatype>
							<parameter>
								<parameterid>Low Frequency</parameterid>
								<name>Low Frequency</name>
								<valuemin>80</valuemin>
								<valuemax>2000</valuemax>
								<value>80</value>
							</parameter>
							<parameter>
								<parameterid>Low Gain(dB)</parameterid>
								<name>Low Gain(dB)</name>
								<valuemin>-20</valuemin>
								<valuemax>20</valuemax>
								<value>-4</value>
							</parameter>
							<parameter>
								<parameterid>Mid Frequency</parameterid>
								<name>Mid Frequency</name>
								<valuemin>400</valuemin>
								<valuemax>8000</valuemax>
								<value>3602</value>
							</parameter>
							<parameter>
								<parameterid>Mid Gain(dB)</parameterid>
								<name>Mid Gain(dB)</name>
								<valuemin>-20</valuemin>
								<valuemax>20</valuemax>
								<value>3</value>
							</parameter>
							<parameter>
								<parameterid>High Frequency</parameterid>
								<name>High Frequency</name>
								<valuemin>5000</valuemin>
								<valuemax>20000</valuemax>
								<value>10354</value>
							</parameter>
							<parameter>
								<parameterid>High Gain(dB)</parameterid>
								<name>High Gain(dB)</name>
								<valuemin>-20</valuemin>
								<valuemax>20</valuemax>
								<value>0</value>
							</parameter>
						</effect>
					</filter>
					<filter>
						<enabled>TRUE</enabled>
						<start>-1</start>
						<end>-1</end>
						<effect>
							<name>Compressor/Limiter</name>
							<effecttype>filter</effecttype>
							<mediatype>audio</mediatype>
							<parameter>
								<parameterid>Threshold(dB)</parameterid>
								<name>Threshold(dB)</name>
								<valuemin>-90</valuemin>
								<valuemax>0</valuemax>
								<value>-20</value>
							</parameter>
							<parameter>
								<parameterid>Ratio</parameterid>
								<name>Ratio</name>
								<valuemin>1</valuemin>
								<valuemax>100</valuemax>
								<value>2</value>
							</parameter>
							<parameter>
								<parameterid>Attack Time</parameterid>
								<name>Attack Time</name>
								<valuemin>1</valuemin>
								<valuemax>100</valuemax>
								<value>5</value>
							</parameter>
							<parameter>
								<parameterid>Release Time</parameterid>
								<name>Release Time</name>
								<valuemin>1</valuemin>
								<valuemax>4000</valuemax>
								<value>209</value>
							</parameter>
							<parameter>
								<parameterid>Preserve Volume</parameterid>
								<name>Preserve Volume</name>
								<value>TRUE</value>
							</parameter>
						</effect>
					</filter>
					<filter>
						<effect>
							<name>Audio Levels</name>
							<effectid>audiolevels</effectid>
							<effectcategory>audiolevels</effectcategory>
							<effecttype>audiolevels</effecttype>
							<mediatype>audio</mediatype>
							<parameter>
								<name>Level</name>
								<parameterid>level</parameterid>
								<valuemin>0</valuemin>
								<valuemax>3.98109</valuemax>
								<keyframe>
									<when>6985</when>
									<value>1.12202</value>
								</keyframe>
								<keyframe>
									<when>6987.29</when>
									<value>1</value>
								</keyframe>
								<keyframe>
									<when>7011.57</when>
									<value>1</value>
								</keyframe>
								<keyframe>
									<when>7014.43</when>
									<value>1.12202</value>
								</keyframe>
								<keyframe>
									<when>7072.43</when>
									<value>1.12202</value>
								</keyframe>
								<keyframe>
									<when>7074.14</when>
									<value>1</value>
								</keyframe>
								<keyframe>
									<when>7090.43</when>
									<value>1</value>
								</keyframe>
								<keyframe>
									<when>7092.71</when>
									<value>1.12202</value>
								</keyframe>
								<keyframe>
									<when>7346.14</when>
									<value>1.12202</value>
								</keyframe>
								<keyframe>
									<when>7350.14</when>
									<value>1</value>
								</keyframe>
								<interpolation>
									<name>FCPCurve</name>
								</interpolation>
								<value>1</value>
							</parameter>
						</effect>
					</filter>
					<filter>
						<effect>
							<name>Audio Pan</name>
							<effectid>audiopan</effectid>
							<effectcategory>audiopan</effectcategory>
							<effecttype>audiopan</effecttype>
							<mediatype>audio</mediatype>
							<parameter>
								<name>Pan</name>
								<parameterid>pan</parameterid>
								<valuemin>-1</valuemin>
								<valuemax>1</valuemax>
								<value>0</value>
							</parameter>
						</effect>
					</filter>
					<sourcetrack>
						<mediatype>audio</mediatype>
						<trackindex>2</trackindex>
					</sourcetrack>
					<link>
						<linkclipref>msub200012-3011-k1d1-010 14</linkclipref>
						<mediatype>video</mediatype>
						<trackindex>1</trackindex>
						<clipindex>18</clipindex>
					</link>
					<link>
						<linkclipref>msub200012-3011-k1d1-010 15</linkclipref>
						<mediatype>audio</mediatype>
						<trackindex>1</trackindex>
						<clipindex>27</clipindex>
					</link>
					<link>
						<linkclipref>msub200012-3011-k1d1-010 16</linkclipref>
						<mediatype>audio</mediatype>
						<trackindex>2</trackindex>
						<clipindex>21</clipindex>
					</link>
				</clipitem>
				<transitionitem id="39315448 ">
					<rate>
						<ntsc>FALSE</ntsc>
						<timebase>25</timebase>
					</rate>
					<start>4962</start>
					<end>4964</end>
					<alignment>center</alignment>
					<effect>
						<name>Cross Fade (+3dB) Copy</name>
						<effecttype>transition</effecttype>
						<mediatype>audio</mediatype>
					</effect>
				</transitionitem>
				<clipitem id="msub200012-3011-k1d1-010 22">
					<name>msub200012-3011-k1d1-010</name>
					<duration>10013</duration>
					<rate>
						<ntsc>FALSE</ntsc>
						<timebase>25</timebase>
					</rate>
					<in>7831</in>
					<out>7991</out>
					<start>-1</start>
					<end>-1</end>
					<subframeoffset>0</subframeoffset>
					<masterclipid>msub200012-3011-k1d1-010 1</masterclipid>
					<logginginfo>
						<description>msub200012-3011-k1d1-010</description>
						<scene/>
						<shottake/>
						<lognote/>
						<good>FALSE</good>
					</logginginfo>
					<labels>
						<label2/>
					</labels>
					<comments>
						<mastercomment1>RÃ…STOFF. BR_FINFREDAG_MSUA_OPRO</mastercomment1>
						<mastercomment2/>
						<mastercomment3/>
						<mastercomment4/>
						<clipcommenta/>
					</comments>
					<file id="msub200012-3011-k1d1-010 2"/>
					<filter>
						<enabled>TRUE</enabled>
						<start>-1</start>
						<end>-1</end>
						<effect>
							<name>3 Band Equalizer - Kristine</name>
							<effecttype>filter</effecttype>
							<mediatype>audio</mediatype>
							<parameter>
								<parameterid>Low Frequency</parameterid>
								<name>Low Frequency</name>
								<valuemin>80</valuemin>
								<valuemax>2000</valuemax>
								<value>80</value>
							</parameter>
							<parameter>
								<parameterid>Low Gain(dB)</parameterid>
								<name>Low Gain(dB)</name>
								<valuemin>-20</valuemin>
								<valuemax>20</valuemax>
								<value>-4</value>
							</parameter>
							<parameter>
								<parameterid>Mid Frequency</parameterid>
								<name>Mid Frequency</name>
								<valuemin>400</valuemin>
								<valuemax>8000</valuemax>
								<value>3602</value>
							</parameter>
							<parameter>
								<parameterid>Mid Gain(dB)</parameterid>
								<name>Mid Gain(dB)</name>
								<valuemin>-20</valuemin>
								<valuemax>20</valuemax>
								<value>3</value>
							</parameter>
							<parameter>
								<parameterid>High Frequency</parameterid>
								<name>High Frequency</name>
								<valuemin>5000</valuemin>
								<valuemax>20000</valuemax>
								<value>10354</value>
							</parameter>
							<parameter>
								<parameterid>High Gain(dB)</parameterid>
								<name>High Gain(dB)</name>
								<valuemin>-20</valuemin>
								<valuemax>20</valuemax>
								<value>0</value>
							</parameter>
						</effect>
					</filter>
					<filter>
						<enabled>TRUE</enabled>
						<start>-1</start>
						<end>-1</end>
						<effect>
							<name>Compressor/Limiter</name>
							<effecttype>filter</effecttype>
							<mediatype>audio</mediatype>
							<parameter>
								<parameterid>Threshold(dB)</parameterid>
								<name>Threshold(dB)</name>
								<valuemin>-90</valuemin>
								<valuemax>0</valuemax>
								<value>-20</value>
							</parameter>
							<parameter>
								<parameterid>Ratio</parameterid>
								<name>Ratio</name>
								<valuemin>1</valuemin>
								<valuemax>100</valuemax>
								<value>2</value>
							</parameter>
							<parameter>
								<parameterid>Attack Time</parameterid>
								<name>Attack Time</name>
								<valuemin>1</valuemin>
								<valuemax>100</valuemax>
								<value>5</value>
							</parameter>
							<parameter>
								<parameterid>Release Time</parameterid>
								<name>Release Time</name>
								<valuemin>1</valuemin>
								<valuemax>4000</valuemax>
								<value>209</value>
							</parameter>
							<parameter>
								<parameterid>Preserve Volume</parameterid>
								<name>Preserve Volume</name>
								<value>TRUE</value>
							</parameter>
						</effect>
					</filter>
					<filter>
						<effect>
							<name>Audio Levels</name>
							<effectid>audiolevels</effectid>
							<effectcategory>audiolevels</effectcategory>
							<effecttype>audiolevels</effecttype>
							<mediatype>audio</mediatype>
							<parameter>
								<name>Level</name>
								<parameterid>level</parameterid>
								<valuemin>0</valuemin>
								<valuemax>3.98109</valuemax>
								<keyframe>
									<when>7892.57</when>
									<value>0.891251</value>
								</keyframe>
								<keyframe>
									<when>7896</when>
									<value>1</value>
								</keyframe>
								<keyframe>
									<when>7934.29</when>
									<value>1.12202</value>
								</keyframe>
								<keyframe>
									<when>7938.29</when>
									<value>0.891251</value>
								</keyframe>
								<interpolation>
									<name>FCPCurve</name>
								</interpolation>
								<value>0.891251</value>
							</parameter>
						</effect>
					</filter>
					<filter>
						<effect>
							<name>Audio Pan</name>
							<effectid>audiopan</effectid>
							<effectcategory>audiopan</effectcategory>
							<effecttype>audiopan</effecttype>
							<mediatype>audio</mediatype>
							<parameter>
								<name>Pan</name>
								<parameterid>pan</parameterid>
								<valuemin>-1</valuemin>
								<valuemax>1</valuemax>
								<value>0</value>
							</parameter>
						</effect>
					</filter>
					<sourcetrack>
						<mediatype>audio</mediatype>
						<trackindex>2</trackindex>
					</sourcetrack>
				</clipitem>
				<transitionitem id="39318848 ">
					<rate>
						<ntsc>FALSE</ntsc>
						<timebase>25</timebase>
					</rate>
					<start>5118</start>
					<end>5122</end>
					<alignment>center</alignment>
					<effect>
						<name>Cross Fade (+3dB) Copy</name>
						<effecttype>transition</effecttype>
						<mediatype>audio</mediatype>
					</effect>
				</transitionitem>
				<clipitem id="msub200012-3011-k1d1-010 23">
					<name>msub200012-3011-k1d1-010</name>
					<duration>10013</duration>
					<rate>
						<ntsc>FALSE</ntsc>
						<timebase>25</timebase>
					</rate>
					<in>8286</in>
					<out>8639</out>
					<start>-1</start>
					<end>-1</end>
					<subframeoffset>0</subframeoffset>
					<masterclipid>msub200012-3011-k1d1-010 1</masterclipid>
					<logginginfo>
						<description>msub200012-3011-k1d1-010</description>
						<scene/>
						<shottake/>
						<lognote/>
						<good>FALSE</good>
					</logginginfo>
					<labels>
						<label2/>
					</labels>
					<comments>
						<mastercomment1>RÃ…STOFF. BR_FINFREDAG_MSUA_OPRO</mastercomment1>
						<mastercomment2/>
						<mastercomment3/>
						<mastercomment4/>
						<clipcommenta/>
					</comments>
					<file id="msub200012-3011-k1d1-010 2"/>
					<filter>
						<enabled>TRUE</enabled>
						<start>-1</start>
						<end>-1</end>
						<effect>
							<name>3 Band Equalizer - Kristine</name>
							<effecttype>filter</effecttype>
							<mediatype>audio</mediatype>
							<parameter>
								<parameterid>Low Frequency</parameterid>
								<name>Low Frequency</name>
								<valuemin>80</valuemin>
								<valuemax>2000</valuemax>
								<value>80</value>
							</parameter>
							<parameter>
								<parameterid>Low Gain(dB)</parameterid>
								<name>Low Gain(dB)</name>
								<valuemin>-20</valuemin>
								<valuemax>20</valuemax>
								<value>-4</value>
							</parameter>
							<parameter>
								<parameterid>Mid Frequency</parameterid>
								<name>Mid Frequency</name>
								<valuemin>400</valuemin>
								<valuemax>8000</valuemax>
								<value>3602</value>
							</parameter>
							<parameter>
								<parameterid>Mid Gain(dB)</parameterid>
								<name>Mid Gain(dB)</name>
								<valuemin>-20</valuemin>
								<valuemax>20</valuemax>
								<value>3</value>
							</parameter>
							<parameter>
								<parameterid>High Frequency</parameterid>
								<name>High Frequency</name>
								<valuemin>5000</valuemin>
								<valuemax>20000</valuemax>
								<value>10354</value>
							</parameter>
							<parameter>
								<parameterid>High Gain(dB)</parameterid>
								<name>High Gain(dB)</name>
								<valuemin>-20</valuemin>
								<valuemax>20</valuemax>
								<value>0</value>
							</parameter>
						</effect>
					</filter>
					<filter>
						<enabled>TRUE</enabled>
						<start>-1</start>
						<end>-1</end>
						<effect>
							<name>Compressor/Limiter</name>
							<effecttype>filter</effecttype>
							<mediatype>audio</mediatype>
							<parameter>
								<parameterid>Threshold(dB)</parameterid>
								<name>Threshold(dB)</name>
								<valuemin>-90</valuemin>
								<valuemax>0</valuemax>
								<value>-20</value>
							</parameter>
							<parameter>
								<parameterid>Ratio</parameterid>
								<name>Ratio</name>
								<valuemin>1</valuemin>
								<valuemax>100</valuemax>
								<value>2</value>
							</parameter>
							<parameter>
								<parameterid>Attack Time</parameterid>
								<name>Attack Time</name>
								<valuemin>1</valuemin>
								<valuemax>100</valuemax>
								<value>5</value>
							</parameter>
							<parameter>
								<parameterid>Release Time</parameterid>
								<name>Release Time</name>
								<valuemin>1</valuemin>
								<valuemax>4000</valuemax>
								<value>209</value>
							</parameter>
							<parameter>
								<parameterid>Preserve Volume</parameterid>
								<name>Preserve Volume</name>
								<value>TRUE</value>
							</parameter>
						</effect>
					</filter>
					<filter>
						<effect>
							<name>Audio Levels</name>
							<effectid>audiolevels</effectid>
							<effectcategory>audiolevels</effectcategory>
							<effecttype>audiolevels</effecttype>
							<mediatype>audio</mediatype>
							<parameter>
								<name>Level</name>
								<parameterid>level</parameterid>
								<valuemin>0</valuemin>
								<valuemax>3.98109</valuemax>
								<value>1.12202</value>
							</parameter>
						</effect>
					</filter>
					<filter>
						<effect>
							<name>Audio Pan</name>
							<effectid>audiopan</effectid>
							<effectcategory>audiopan</effectcategory>
							<effecttype>audiopan</effecttype>
							<mediatype>audio</mediatype>
							<parameter>
								<name>Pan</name>
								<parameterid>pan</parameterid>
								<valuemin>-1</valuemin>
								<valuemax>1</valuemax>
								<value>0</value>
							</parameter>
						</effect>
					</filter>
					<sourcetrack>
						<mediatype>audio</mediatype>
						<trackindex>2</trackindex>
					</sourcetrack>
				</clipitem>
				<transitionitem id="39321976 ">
					<rate>
						<ntsc>FALSE</ntsc>
						<timebase>25</timebase>
					</rate>
					<start>5465</start>
					<end>5471</end>
					<alignment>end-black</alignment>
					<effect>
						<name>Cross Fade (+3dB)</name>
						<effecttype>transition</effecttype>
						<mediatype>audio</mediatype>
					</effect>
				</transitionitem>
				<transitionitem id="39322452 ">
					<rate>
						<ntsc>FALSE</ntsc>
						<timebase>25</timebase>
					</rate>
					<start>5583</start>
					<end>5589</end>
					<alignment>center</alignment>
					<effect>
						<name>Cross Fade (+3dB)</name>
						<effecttype>transition</effecttype>
						<mediatype>audio</mediatype>
					</effect>
				</transitionitem>
				<clipitem id="msub200012-3011-k1d1-026 4">
					<name>msub200012-3011-k1d1-026</name>
					<duration>1553</duration>
					<rate>
						<ntsc>FALSE</ntsc>
						<timebase>25</timebase>
					</rate>
					<in>426</in>
					<out>732</out>
					<start>-1</start>
					<end>-1</end>
					<subframeoffset>0</subframeoffset>
					<enabled>TRUE</enabled>
					<masterclipid>msub200012-3011-k1d1-026 1</masterclipid>
					<syncoffset>0</syncoffset>
					<logginginfo>
						<description>msub200012-3011-k1d1-026</description>
						<scene/>
						<shottake/>
						<lognote/>
						<good>FALSE</good>
					</logginginfo>
					<labels>
						<label>Best Take</label>
						<label2/>
					</labels>
					<comments>
						<mastercomment1>RÃ…STOFF. BR_FINFREDAG_MSUA_OPRO</mastercomment1>
						<mastercomment2/>
						<mastercomment3/>
						<mastercomment4/>
						<clipcommenta/>
					</comments>
					<file id="msub200012-3011-k1d1-026 2"/>
					<filter>
						<enabled>TRUE</enabled>
						<start>-1</start>
						<end>-1</end>
						<effect>
							<name>3 Band Equalizer - Kristine</name>
							<effecttype>filter</effecttype>
							<mediatype>audio</mediatype>
							<parameter>
								<parameterid>Low Frequency</parameterid>
								<name>Low Frequency</name>
								<valuemin>80</valuemin>
								<valuemax>2000</valuemax>
								<value>80</value>
							</parameter>
							<parameter>
								<parameterid>Low Gain(dB)</parameterid>
								<name>Low Gain(dB)</name>
								<valuemin>-20</valuemin>
								<valuemax>20</valuemax>
								<value>-4</value>
							</parameter>
							<parameter>
								<parameterid>Mid Frequency</parameterid>
								<name>Mid Frequency</name>
								<valuemin>400</valuemin>
								<valuemax>8000</valuemax>
								<value>3602</value>
							</parameter>
							<parameter>
								<parameterid>Mid Gain(dB)</parameterid>
								<name>Mid Gain(dB)</name>
								<valuemin>-20</valuemin>
								<valuemax>20</valuemax>
								<value>3</value>
							</parameter>
							<parameter>
								<parameterid>High Frequency</parameterid>
								<name>High Frequency</name>
								<valuemin>5000</valuemin>
								<valuemax>20000</valuemax>
								<value>10354</value>
							</parameter>
							<parameter>
								<parameterid>High Gain(dB)</parameterid>
								<name>High Gain(dB)</name>
								<valuemin>-20</valuemin>
								<valuemax>20</valuemax>
								<value>0</value>
							</parameter>
						</effect>
					</filter>
					<filter>
						<enabled>TRUE</enabled>
						<start>-1</start>
						<end>-1</end>
						<effect>
							<name>Compressor/Limiter</name>
							<effecttype>filter</effecttype>
							<mediatype>audio</mediatype>
							<parameter>
								<parameterid>Threshold(dB)</parameterid>
								<name>Threshold(dB)</name>
								<valuemin>-90</valuemin>
								<valuemax>0</valuemax>
								<value>-20</value>
							</parameter>
							<parameter>
								<parameterid>Ratio</parameterid>
								<name>Ratio</name>
								<valuemin>1</valuemin>
								<valuemax>100</valuemax>
								<value>2</value>
							</parameter>
							<parameter>
								<parameterid>Attack Time</parameterid>
								<name>Attack Time</name>
								<valuemin>1</valuemin>
								<valuemax>100</valuemax>
								<value>5</value>
							</parameter>
							<parameter>
								<parameterid>Release Time</parameterid>
								<name>Release Time</name>
								<valuemin>1</valuemin>
								<valuemax>4000</valuemax>
								<value>209</value>
							</parameter>
							<parameter>
								<parameterid>Preserve Volume</parameterid>
								<name>Preserve Volume</name>
								<value>TRUE</value>
							</parameter>
						</effect>
					</filter>
					<filter>
						<effect>
							<name>Audio Levels</name>
							<effectid>audiolevels</effectid>
							<effectcategory>audiolevels</effectcategory>
							<effecttype>audiolevels</effecttype>
							<mediatype>audio</mediatype>
							<parameter>
								<name>Level</name>
								<parameterid>level</parameterid>
								<valuemin>0</valuemin>
								<valuemax>3.98109</valuemax>
								<keyframe>
									<when>538</when>
									<value>1.25893</value>
								</keyframe>
								<keyframe>
									<when>546</when>
									<value>1</value>
								</keyframe>
								<interpolation>
									<name>FCPCurve</name>
								</interpolation>
								<value>1.25893</value>
							</parameter>
						</effect>
					</filter>
					<filter>
						<effect>
							<name>Audio Pan</name>
							<effectid>audiopan</effectid>
							<effectcategory>audiopan</effectcategory>
							<effecttype>audiopan</effecttype>
							<mediatype>audio</mediatype>
							<parameter>
								<name>Pan</name>
								<parameterid>pan</parameterid>
								<valuemin>-1</valuemin>
								<valuemax>1</valuemax>
								<value>0</value>
							</parameter>
						</effect>
					</filter>
					<sourcetrack>
						<mediatype>audio</mediatype>
						<trackindex>2</trackindex>
					</sourcetrack>
					<link>
						<linkclipref>msub200012-3011-k1d1-026 </linkclipref>
						<mediatype>video</mediatype>
						<trackindex>1</trackindex>
						<clipindex>22</clipindex>
					</link>
					<link>
						<linkclipref>msub200012-3011-k1d1-026 3</linkclipref>
						<mediatype>audio</mediatype>
						<trackindex>1</trackindex>
						<clipindex>31</clipindex>
					</link>
					<link>
						<linkclipref>msub200012-3011-k1d1-026 4</linkclipref>
						<mediatype>audio</mediatype>
						<trackindex>2</trackindex>
						<clipindex>28</clipindex>
					</link>
				</clipitem>
				<transitionitem id="1032104088 ">
					<rate>
						<ntsc>FALSE</ntsc>
						<timebase>25</timebase>
					</rate>
					<start>5887</start>
					<end>5889</end>
					<alignment>center</alignment>
					<effect>
						<name>Cross Fade (+3dB) Copy</name>
						<effecttype>transition</effecttype>
						<mediatype>audio</mediatype>
					</effect>
				</transitionitem>
				<clipitem id="msub200012-3011-k1d1-026 7">
					<name>msub200012-3011-k1d1-026</name>
					<duration>1553</duration>
					<rate>
						<ntsc>FALSE</ntsc>
						<timebase>25</timebase>
					</rate>
					<in>823</in>
					<out>1022</out>
					<start>-1</start>
					<end>-1</end>
					<subframeoffset>0</subframeoffset>
					<enabled>TRUE</enabled>
					<masterclipid>msub200012-3011-k1d1-026 1</masterclipid>
					<syncoffset>0</syncoffset>
					<logginginfo>
						<description>msub200012-3011-k1d1-026</description>
						<scene/>
						<shottake/>
						<lognote/>
						<good>FALSE</good>
					</logginginfo>
					<labels>
						<label>Best Take</label>
						<label2/>
					</labels>
					<comments>
						<mastercomment1>RÃ…STOFF. BR_FINFREDAG_MSUA_OPRO</mastercomment1>
						<mastercomment2/>
						<mastercomment3/>
						<mastercomment4/>
						<clipcommenta/>
					</comments>
					<file id="msub200012-3011-k1d1-026 2"/>
					<filter>
						<enabled>TRUE</enabled>
						<start>-1</start>
						<end>-1</end>
						<effect>
							<name>3 Band Equalizer - Kristine</name>
							<effecttype>filter</effecttype>
							<mediatype>audio</mediatype>
							<parameter>
								<parameterid>Low Frequency</parameterid>
								<name>Low Frequency</name>
								<valuemin>80</valuemin>
								<valuemax>2000</valuemax>
								<value>80</value>
							</parameter>
							<parameter>
								<parameterid>Low Gain(dB)</parameterid>
								<name>Low Gain(dB)</name>
								<valuemin>-20</valuemin>
								<valuemax>20</valuemax>
								<value>-4</value>
							</parameter>
							<parameter>
								<parameterid>Mid Frequency</parameterid>
								<name>Mid Frequency</name>
								<valuemin>400</valuemin>
								<valuemax>8000</valuemax>
								<value>3602</value>
							</parameter>
							<parameter>
								<parameterid>Mid Gain(dB)</parameterid>
								<name>Mid Gain(dB)</name>
								<valuemin>-20</valuemin>
								<valuemax>20</valuemax>
								<value>3</value>
							</parameter>
							<parameter>
								<parameterid>High Frequency</parameterid>
								<name>High Frequency</name>
								<valuemin>5000</valuemin>
								<valuemax>20000</valuemax>
								<value>10354</value>
							</parameter>
							<parameter>
								<parameterid>High Gain(dB)</parameterid>
								<name>High Gain(dB)</name>
								<valuemin>-20</valuemin>
								<valuemax>20</valuemax>
								<value>0</value>
							</parameter>
						</effect>
					</filter>
					<filter>
						<enabled>TRUE</enabled>
						<start>-1</start>
						<end>-1</end>
						<effect>
							<name>Compressor/Limiter</name>
							<effecttype>filter</effecttype>
							<mediatype>audio</mediatype>
							<parameter>
								<parameterid>Threshold(dB)</parameterid>
								<name>Threshold(dB)</name>
								<valuemin>-90</valuemin>
								<valuemax>0</valuemax>
								<value>-20</value>
							</parameter>
							<parameter>
								<parameterid>Ratio</parameterid>
								<name>Ratio</name>
								<valuemin>1</valuemin>
								<valuemax>100</valuemax>
								<value>2</value>
							</parameter>
							<parameter>
								<parameterid>Attack Time</parameterid>
								<name>Attack Time</name>
								<valuemin>1</valuemin>
								<valuemax>100</valuemax>
								<value>5</value>
							</parameter>
							<parameter>
								<parameterid>Release Time</parameterid>
								<name>Release Time</name>
								<valuemin>1</valuemin>
								<valuemax>4000</valuemax>
								<value>209</value>
							</parameter>
							<parameter>
								<parameterid>Preserve Volume</parameterid>
								<name>Preserve Volume</name>
								<value>TRUE</value>
							</parameter>
						</effect>
					</filter>
					<filter>
						<effect>
							<name>Audio Levels</name>
							<effectid>audiolevels</effectid>
							<effectcategory>audiolevels</effectcategory>
							<effecttype>audiolevels</effecttype>
							<mediatype>audio</mediatype>
							<parameter>
								<name>Level</name>
								<parameterid>level</parameterid>
								<valuemin>0</valuemin>
								<valuemax>3.98109</valuemax>
								<keyframe>
									<when>1012.5</when>
									<value>1</value>
								</keyframe>
								<keyframe>
									<when>1015.5</when>
									<value>0.630957</value>
								</keyframe>
								<interpolation>
									<name>FCPCurve</name>
								</interpolation>
								<value>1.25893</value>
							</parameter>
						</effect>
					</filter>
					<filter>
						<effect>
							<name>Audio Pan</name>
							<effectid>audiopan</effectid>
							<effectcategory>audiopan</effectcategory>
							<effecttype>audiopan</effecttype>
							<mediatype>audio</mediatype>
							<parameter>
								<name>Pan</name>
								<parameterid>pan</parameterid>
								<valuemin>-1</valuemin>
								<valuemax>1</valuemax>
								<value>0</value>
							</parameter>
						</effect>
					</filter>
					<sourcetrack>
						<mediatype>audio</mediatype>
						<trackindex>2</trackindex>
					</sourcetrack>
					<link>
						<linkclipref>msub200012-3011-k1d1-026 6</linkclipref>
						<mediatype>audio</mediatype>
						<trackindex>1</trackindex>
						<clipindex>32</clipindex>
					</link>
					<link>
						<linkclipref>msub200012-3011-k1d1-026 7</linkclipref>
						<mediatype>audio</mediatype>
						<trackindex>2</trackindex>
						<clipindex>30</clipindex>
					</link>
				</clipitem>
				<transitionitem id="1032107692 ">
					<rate>
						<ntsc>FALSE</ntsc>
						<timebase>25</timebase>
					</rate>
					<start>6080</start>
					<end>6086</end>
					<alignment>end-black</alignment>
					<effect>
						<name>Cross Fade (+3dB) Copy</name>
						<effecttype>transition</effecttype>
						<mediatype>audio</mediatype>
					</effect>
				</transitionitem>
				<transitionitem id="1032108168 ">
					<rate>
						<ntsc>FALSE</ntsc>
						<timebase>25</timebase>
					</rate>
					<start>6690</start>
					<end>6696</end>
					<alignment>center</alignment>
					<effect>
						<name>Cross Fade (+3dB) Copy</name>
						<effecttype>transition</effecttype>
						<mediatype>audio</mediatype>
					</effect>
				</transitionitem>
				<clipitem id="msub200012-3011-k1d1-027 13">
					<name>msub200012-3011-k1d1-027</name>
					<duration>5957</duration>
					<rate>
						<ntsc>FALSE</ntsc>
						<timebase>25</timebase>
					</rate>
					<in>288</in>
					<out>395</out>
					<start>-1</start>
					<end>-1</end>
					<subframeoffset>0</subframeoffset>
					<enabled>TRUE</enabled>
					<masterclipid>msub200012-3011-k1d1-027 1</masterclipid>
					<syncoffset>0</syncoffset>
					<logginginfo>
						<description>msub200012-3011-k1d1-027</description>
						<scene/>
						<shottake/>
						<lognote/>
						<good>FALSE</good>
					</logginginfo>
					<labels>
						<label>Alternate Shots</label>
						<label2/>
					</labels>
					<comments>
						<mastercomment1>RÃ…STOFF. BR_FINFREDAG_MSUA_OPRO</mastercomment1>
						<mastercomment2/>
						<mastercomment3/>
						<mastercomment4/>
						<clipcommenta/>
					</comments>
					<file id="msub200012-3011-k1d1-027 2"/>
					<filter>
						<enabled>TRUE</enabled>
						<start>-1</start>
						<end>-1</end>
						<effect>
							<name>3 Band Equalizer - Kristine</name>
							<effecttype>filter</effecttype>
							<mediatype>audio</mediatype>
							<parameter>
								<parameterid>Low Frequency</parameterid>
								<name>Low Frequency</name>
								<valuemin>80</valuemin>
								<valuemax>2000</valuemax>
								<value>80</value>
							</parameter>
							<parameter>
								<parameterid>Low Gain(dB)</parameterid>
								<name>Low Gain(dB)</name>
								<valuemin>-20</valuemin>
								<valuemax>20</valuemax>
								<value>-4</value>
							</parameter>
							<parameter>
								<parameterid>Mid Frequency</parameterid>
								<name>Mid Frequency</name>
								<valuemin>400</valuemin>
								<valuemax>8000</valuemax>
								<value>3602</value>
							</parameter>
							<parameter>
								<parameterid>Mid Gain(dB)</parameterid>
								<name>Mid Gain(dB)</name>
								<valuemin>-20</valuemin>
								<valuemax>20</valuemax>
								<value>3</value>
							</parameter>
							<parameter>
								<parameterid>High Frequency</parameterid>
								<name>High Frequency</name>
								<valuemin>5000</valuemin>
								<valuemax>20000</valuemax>
								<value>10354</value>
							</parameter>
							<parameter>
								<parameterid>High Gain(dB)</parameterid>
								<name>High Gain(dB)</name>
								<valuemin>-20</valuemin>
								<valuemax>20</valuemax>
								<value>0</value>
							</parameter>
						</effect>
					</filter>
					<filter>
						<enabled>TRUE</enabled>
						<start>-1</start>
						<end>-1</end>
						<effect>
							<name>Compressor/Limiter</name>
							<effecttype>filter</effecttype>
							<mediatype>audio</mediatype>
							<parameter>
								<parameterid>Threshold(dB)</parameterid>
								<name>Threshold(dB)</name>
								<valuemin>-90</valuemin>
								<valuemax>0</valuemax>
								<value>-20</value>
							</parameter>
							<parameter>
								<parameterid>Ratio</parameterid>
								<name>Ratio</name>
								<valuemin>1</valuemin>
								<valuemax>100</valuemax>
								<value>2</value>
							</parameter>
							<parameter>
								<parameterid>Attack Time</parameterid>
								<name>Attack Time</name>
								<valuemin>1</valuemin>
								<valuemax>100</valuemax>
								<value>5</value>
							</parameter>
							<parameter>
								<parameterid>Release Time</parameterid>
								<name>Release Time</name>
								<valuemin>1</valuemin>
								<valuemax>4000</valuemax>
								<value>209</value>
							</parameter>
							<parameter>
								<parameterid>Preserve Volume</parameterid>
								<name>Preserve Volume</name>
								<value>TRUE</value>
							</parameter>
						</effect>
					</filter>
					<filter>
						<effect>
							<name>Audio Levels</name>
							<effectid>audiolevels</effectid>
							<effectcategory>audiolevels</effectcategory>
							<effecttype>audiolevels</effecttype>
							<mediatype>audio</mediatype>
							<parameter>
								<name>Level</name>
								<parameterid>level</parameterid>
								<valuemin>0</valuemin>
								<valuemax>3.98109</valuemax>
								<keyframe>
									<when>301.429</when>
									<value>1.25893</value>
								</keyframe>
								<keyframe>
									<when>304.857</when>
									<value>1.41254</value>
								</keyframe>
								<keyframe>
									<when>364.286</when>
									<value>1.77828</value>
								</keyframe>
								<keyframe>
									<when>368.857</when>
									<value>1.25893</value>
								</keyframe>
								<interpolation>
									<name>FCPCurve</name>
								</interpolation>
								<value>1.70267</value>
							</parameter>
						</effect>
					</filter>
					<filter>
						<effect>
							<name>Audio Pan</name>
							<effectid>audiopan</effectid>
							<effectcategory>audiopan</effectcategory>
							<effecttype>audiopan</effecttype>
							<mediatype>audio</mediatype>
							<parameter>
								<name>Pan</name>
								<parameterid>pan</parameterid>
								<valuemin>-1</valuemin>
								<valuemax>1</valuemax>
								<value>0</value>
							</parameter>
						</effect>
					</filter>
					<sourcetrack>
						<mediatype>audio</mediatype>
						<trackindex>2</trackindex>
					</sourcetrack>
				</clipitem>
				<transitionitem id="1032111976 ">
					<rate>
						<ntsc>FALSE</ntsc>
						<timebase>25</timebase>
					</rate>
					<start>6791</start>
					<end>6797</end>
					<alignment>center</alignment>
					<effect>
						<name>Cross Fade (+3dB) Copy</name>
						<effecttype>transition</effecttype>
						<mediatype>audio</mediatype>
					</effect>
				</transitionitem>
				<clipitem id="msub200012-3011-k1d1-027 14">
					<name>msub200012-3011-k1d1-027</name>
					<duration>5957</duration>
					<rate>
						<ntsc>FALSE</ntsc>
						<timebase>25</timebase>
					</rate>
					<in>608</in>
					<out>1483</out>
					<start>-1</start>
					<end>-1</end>
					<subframeoffset>0</subframeoffset>
					<masterclipid>msub200012-3011-k1d1-027 1</masterclipid>
					<syncoffset>0</syncoffset>
					<logginginfo>
						<description>msub200012-3011-k1d1-027</description>
						<scene/>
						<shottake/>
						<lognote/>
						<good>FALSE</good>
					</logginginfo>
					<labels>
						<label>Alternate Shots</label>
						<label2/>
					</labels>
					<comments>
						<mastercomment1>RÃ…STOFF. BR_FINFREDAG_MSUA_OPRO</mastercomment1>
						<mastercomment2/>
						<mastercomment3/>
						<mastercomment4/>
						<clipcommenta/>
					</comments>
					<file id="msub200012-3011-k1d1-027 2"/>
					<filter>
						<enabled>TRUE</enabled>
						<start>-1</start>
						<end>-1</end>
						<effect>
							<name>3 Band Equalizer - Kristine</name>
							<effecttype>filter</effecttype>
							<mediatype>audio</mediatype>
							<parameter>
								<parameterid>Low Frequency</parameterid>
								<name>Low Frequency</name>
								<valuemin>80</valuemin>
								<valuemax>2000</valuemax>
								<value>80</value>
							</parameter>
							<parameter>
								<parameterid>Low Gain(dB)</parameterid>
								<name>Low Gain(dB)</name>
								<valuemin>-20</valuemin>
								<valuemax>20</valuemax>
								<value>-4</value>
							</parameter>
							<parameter>
								<parameterid>Mid Frequency</parameterid>
								<name>Mid Frequency</name>
								<valuemin>400</valuemin>
								<valuemax>8000</valuemax>
								<value>3602</value>
							</parameter>
							<parameter>
								<parameterid>Mid Gain(dB)</parameterid>
								<name>Mid Gain(dB)</name>
								<valuemin>-20</valuemin>
								<valuemax>20</valuemax>
								<value>3</value>
							</parameter>
							<parameter>
								<parameterid>High Frequency</parameterid>
								<name>High Frequency</name>
								<valuemin>5000</valuemin>
								<valuemax>20000</valuemax>
								<value>10354</value>
							</parameter>
							<parameter>
								<parameterid>High Gain(dB)</parameterid>
								<name>High Gain(dB)</name>
								<valuemin>-20</valuemin>
								<valuemax>20</valuemax>
								<value>0</value>
							</parameter>
						</effect>
					</filter>
					<filter>
						<enabled>TRUE</enabled>
						<start>-1</start>
						<end>-1</end>
						<effect>
							<name>Compressor/Limiter</name>
							<effecttype>filter</effecttype>
							<mediatype>audio</mediatype>
							<parameter>
								<parameterid>Threshold(dB)</parameterid>
								<name>Threshold(dB)</name>
								<valuemin>-90</valuemin>
								<valuemax>0</valuemax>
								<value>-20</value>
							</parameter>
							<parameter>
								<parameterid>Ratio</parameterid>
								<name>Ratio</name>
								<valuemin>1</valuemin>
								<valuemax>100</valuemax>
								<value>2</value>
							</parameter>
							<parameter>
								<parameterid>Attack Time</parameterid>
								<name>Attack Time</name>
								<valuemin>1</valuemin>
								<valuemax>100</valuemax>
								<value>5</value>
							</parameter>
							<parameter>
								<parameterid>Release Time</parameterid>
								<name>Release Time</name>
								<valuemin>1</valuemin>
								<valuemax>4000</valuemax>
								<value>209</value>
							</parameter>
							<parameter>
								<parameterid>Preserve Volume</parameterid>
								<name>Preserve Volume</name>
								<value>TRUE</value>
							</parameter>
						</effect>
					</filter>
					<filter>
						<effect>
							<name>Audio Levels</name>
							<effectid>audiolevels</effectid>
							<effectcategory>audiolevels</effectcategory>
							<effecttype>audiolevels</effecttype>
							<mediatype>audio</mediatype>
							<parameter>
								<name>Level</name>
								<parameterid>level</parameterid>
								<valuemin>0</valuemin>
								<valuemax>3.98109</valuemax>
								<keyframe>
									<when>685</when>
									<value>1.25893</value>
								</keyframe>
								<keyframe>
									<when>716.714</when>
									<value>1.25893</value>
								</keyframe>
								<keyframe>
									<when>720.143</when>
									<value>1.58489</value>
								</keyframe>
								<keyframe>
									<when>742.714</when>
									<value>1.58489</value>
								</keyframe>
								<keyframe>
									<when>747.571</when>
									<value>1</value>
								</keyframe>
								<keyframe>
									<when>778.714</when>
									<value>1</value>
								</keyframe>
								<keyframe>
									<when>781.286</when>
									<value>1.12202</value>
								</keyframe>
								<keyframe>
									<when>1005</when>
									<value>1.12202</value>
								</keyframe>
								<keyframe>
									<when>1008.43</when>
									<value>1</value>
								</keyframe>
								<interpolation>
									<name>FCPCurve</name>
								</interpolation>
								<value>1</value>
							</parameter>
						</effect>
					</filter>
					<filter>
						<effect>
							<name>Audio Pan</name>
							<effectid>audiopan</effectid>
							<effectcategory>audiopan</effectcategory>
							<effecttype>audiopan</effecttype>
							<mediatype>audio</mediatype>
							<parameter>
								<name>Pan</name>
								<parameterid>pan</parameterid>
								<valuemin>-1</valuemin>
								<valuemax>1</valuemax>
								<value>0</value>
							</parameter>
						</effect>
					</filter>
					<sourcetrack>
						<mediatype>audio</mediatype>
						<trackindex>2</trackindex>
					</sourcetrack>
				</clipitem>
				<transitionitem id="1032116056 ">
					<rate>
						<ntsc>FALSE</ntsc>
						<timebase>25</timebase>
					</rate>
					<start>7660</start>
					<end>7666</end>
					<alignment>center</alignment>
					<effect>
						<name>Cross Fade (+3dB) Copy</name>
						<effecttype>transition</effecttype>
						<mediatype>audio</mediatype>
					</effect>
				</transitionitem>
				<clipitem id="msub200012-3011-k1d1-027 15">
					<name>msub200012-3011-k1d1-027</name>
					<duration>5957</duration>
					<rate>
						<ntsc>FALSE</ntsc>
						<timebase>25</timebase>
					</rate>
					<in>2052</in>
					<out>2931</out>
					<start>-1</start>
					<end>-1</end>
					<subframeoffset>0</subframeoffset>
					<masterclipid>msub200012-3011-k1d1-027 1</masterclipid>
					<syncoffset>0</syncoffset>
					<logginginfo>
						<description>msub200012-3011-k1d1-027</description>
						<scene/>
						<shottake/>
						<lognote/>
						<good>FALSE</good>
					</logginginfo>
					<labels>
						<label>Alternate Shots</label>
						<label2/>
					</labels>
					<comments>
						<mastercomment1>RÃ…STOFF. BR_FINFREDAG_MSUA_OPRO</mastercomment1>
						<mastercomment2/>
						<mastercomment3/>
						<mastercomment4/>
						<clipcommenta/>
					</comments>
					<file id="msub200012-3011-k1d1-027 2"/>
					<filter>
						<enabled>TRUE</enabled>
						<start>-1</start>
						<end>-1</end>
						<effect>
							<name>3 Band Equalizer - Kristine</name>
							<effecttype>filter</effecttype>
							<mediatype>audio</mediatype>
							<parameter>
								<parameterid>Low Frequency</parameterid>
								<name>Low Frequency</name>
								<valuemin>80</valuemin>
								<valuemax>2000</valuemax>
								<value>80</value>
							</parameter>
							<parameter>
								<parameterid>Low Gain(dB)</parameterid>
								<name>Low Gain(dB)</name>
								<valuemin>-20</valuemin>
								<valuemax>20</valuemax>
								<value>-4</value>
							</parameter>
							<parameter>
								<parameterid>Mid Frequency</parameterid>
								<name>Mid Frequency</name>
								<valuemin>400</valuemin>
								<valuemax>8000</valuemax>
								<value>3602</value>
							</parameter>
							<parameter>
								<parameterid>Mid Gain(dB)</parameterid>
								<name>Mid Gain(dB)</name>
								<valuemin>-20</valuemin>
								<valuemax>20</valuemax>
								<value>3</value>
							</parameter>
							<parameter>
								<parameterid>High Frequency</parameterid>
								<name>High Frequency</name>
								<valuemin>5000</valuemin>
								<valuemax>20000</valuemax>
								<value>10354</value>
							</parameter>
							<parameter>
								<parameterid>High Gain(dB)</parameterid>
								<name>High Gain(dB)</name>
								<valuemin>-20</valuemin>
								<valuemax>20</valuemax>
								<value>0</value>
							</parameter>
						</effect>
					</filter>
					<filter>
						<enabled>TRUE</enabled>
						<start>-1</start>
						<end>-1</end>
						<effect>
							<name>Compressor/Limiter</name>
							<effecttype>filter</effecttype>
							<mediatype>audio</mediatype>
							<parameter>
								<parameterid>Threshold(dB)</parameterid>
								<name>Threshold(dB)</name>
								<valuemin>-90</valuemin>
								<valuemax>0</valuemax>
								<value>-20</value>
							</parameter>
							<parameter>
								<parameterid>Ratio</parameterid>
								<name>Ratio</name>
								<valuemin>1</valuemin>
								<valuemax>100</valuemax>
								<value>2</value>
							</parameter>
							<parameter>
								<parameterid>Attack Time</parameterid>
								<name>Attack Time</name>
								<valuemin>1</valuemin>
								<valuemax>100</valuemax>
								<value>5</value>
							</parameter>
							<parameter>
								<parameterid>Release Time</parameterid>
								<name>Release Time</name>
								<valuemin>1</valuemin>
								<valuemax>4000</valuemax>
								<value>209</value>
							</parameter>
							<parameter>
								<parameterid>Preserve Volume</parameterid>
								<name>Preserve Volume</name>
								<value>TRUE</value>
							</parameter>
						</effect>
					</filter>
					<filter>
						<effect>
							<name>Audio Levels</name>
							<effectid>audiolevels</effectid>
							<effectcategory>audiolevels</effectcategory>
							<effecttype>audiolevels</effecttype>
							<mediatype>audio</mediatype>
							<parameter>
								<name>Level</name>
								<parameterid>level</parameterid>
								<valuemin>0</valuemin>
								<valuemax>3.98109</valuemax>
								<keyframe>
									<when>2070.86</when>
									<value>1</value>
								</keyframe>
								<keyframe>
									<when>2073.43</when>
									<value>1.12202</value>
								</keyframe>
								<keyframe>
									<when>2129.71</when>
									<value>1.12202</value>
								</keyframe>
								<keyframe>
									<when>2134.29</when>
									<value>1</value>
								</keyframe>
								<keyframe>
									<when>2160.57</when>
									<value>1</value>
								</keyframe>
								<keyframe>
									<when>2163.14</when>
									<value>1.41254</value>
								</keyframe>
								<keyframe>
									<when>2202.86</when>
									<value>1.41254</value>
								</keyframe>
								<keyframe>
									<when>2205.43</when>
									<value>1.12202</value>
								</keyframe>
								<keyframe>
									<when>2277.43</when>
									<value>1.12202</value>
								</keyframe>
								<keyframe>
									<when>2279.43</when>
									<value>0.891251</value>
								</keyframe>
								<keyframe>
									<when>2285.71</when>
									<value>0.891251</value>
								</keyframe>
								<keyframe>
									<when>2287.43</when>
									<value>1.12202</value>
								</keyframe>
								<interpolation>
									<name>FCPCurve</name>
								</interpolation>
								<value>1</value>
							</parameter>
						</effect>
					</filter>
					<filter>
						<effect>
							<name>Audio Pan</name>
							<effectid>audiopan</effectid>
							<effectcategory>audiopan</effectcategory>
							<effecttype>audiopan</effecttype>
							<mediatype>audio</mediatype>
							<parameter>
								<name>Pan</name>
								<parameterid>pan</parameterid>
								<valuemin>-1</valuemin>
								<valuemax>1</valuemax>
								<value>0</value>
							</parameter>
						</effect>
					</filter>
					<sourcetrack>
						<mediatype>audio</mediatype>
						<trackindex>2</trackindex>
					</sourcetrack>
				</clipitem>
				<transitionitem id="1032120068 ">
					<rate>
						<ntsc>FALSE</ntsc>
						<timebase>25</timebase>
					</rate>
					<start>8537</start>
					<end>8539</end>
					<alignment>center</alignment>
					<effect>
						<name>Cross Fade (+3dB) Copy</name>
						<effecttype>transition</effecttype>
						<mediatype>audio</mediatype>
					</effect>
				</transitionitem>
				<clipitem id="msub200012-3011-k1d1-027 16">
					<name>msub200012-3011-k1d1-027</name>
					<duration>5957</duration>
					<rate>
						<ntsc>FALSE</ntsc>
						<timebase>25</timebase>
					</rate>
					<in>2954</in>
					<out>3010</out>
					<start>-1</start>
					<end>-1</end>
					<subframeoffset>0</subframeoffset>
					<masterclipid>msub200012-3011-k1d1-027 1</masterclipid>
					<syncoffset>0</syncoffset>
					<logginginfo>
						<description>msub200012-3011-k1d1-027</description>
						<scene/>
						<shottake/>
						<lognote/>
						<good>FALSE</good>
					</logginginfo>
					<labels>
						<label>Alternate Shots</label>
						<label2/>
					</labels>
					<comments>
						<mastercomment1>RÃ…STOFF. BR_FINFREDAG_MSUA_OPRO</mastercomment1>
						<mastercomment2/>
						<mastercomment3/>
						<mastercomment4/>
						<clipcommenta/>
					</comments>
					<file id="msub200012-3011-k1d1-027 2"/>
					<filter>
						<enabled>TRUE</enabled>
						<start>-1</start>
						<end>-1</end>
						<effect>
							<name>3 Band Equalizer - Kristine</name>
							<effecttype>filter</effecttype>
							<mediatype>audio</mediatype>
							<parameter>
								<parameterid>Low Frequency</parameterid>
								<name>Low Frequency</name>
								<valuemin>80</valuemin>
								<valuemax>2000</valuemax>
								<value>80</value>
							</parameter>
							<parameter>
								<parameterid>Low Gain(dB)</parameterid>
								<name>Low Gain(dB)</name>
								<valuemin>-20</valuemin>
								<valuemax>20</valuemax>
								<value>-4</value>
							</parameter>
							<parameter>
								<parameterid>Mid Frequency</parameterid>
								<name>Mid Frequency</name>
								<valuemin>400</valuemin>
								<valuemax>8000</valuemax>
								<value>3602</value>
							</parameter>
							<parameter>
								<parameterid>Mid Gain(dB)</parameterid>
								<name>Mid Gain(dB)</name>
								<valuemin>-20</valuemin>
								<valuemax>20</valuemax>
								<value>3</value>
							</parameter>
							<parameter>
								<parameterid>High Frequency</parameterid>
								<name>High Frequency</name>
								<valuemin>5000</valuemin>
								<valuemax>20000</valuemax>
								<value>10354</value>
							</parameter>
							<parameter>
								<parameterid>High Gain(dB)</parameterid>
								<name>High Gain(dB)</name>
								<valuemin>-20</valuemin>
								<valuemax>20</valuemax>
								<value>0</value>
							</parameter>
						</effect>
					</filter>
					<filter>
						<enabled>TRUE</enabled>
						<start>-1</start>
						<end>-1</end>
						<effect>
							<name>Compressor/Limiter</name>
							<effecttype>filter</effecttype>
							<mediatype>audio</mediatype>
							<parameter>
								<parameterid>Threshold(dB)</parameterid>
								<name>Threshold(dB)</name>
								<valuemin>-90</valuemin>
								<valuemax>0</valuemax>
								<value>-20</value>
							</parameter>
							<parameter>
								<parameterid>Ratio</parameterid>
								<name>Ratio</name>
								<valuemin>1</valuemin>
								<valuemax>100</valuemax>
								<value>2</value>
							</parameter>
							<parameter>
								<parameterid>Attack Time</parameterid>
								<name>Attack Time</name>
								<valuemin>1</valuemin>
								<valuemax>100</valuemax>
								<value>5</value>
							</parameter>
							<parameter>
								<parameterid>Release Time</parameterid>
								<name>Release Time</name>
								<valuemin>1</valuemin>
								<valuemax>4000</valuemax>
								<value>209</value>
							</parameter>
							<parameter>
								<parameterid>Preserve Volume</parameterid>
								<name>Preserve Volume</name>
								<value>TRUE</value>
							</parameter>
						</effect>
					</filter>
					<filter>
						<effect>
							<name>Audio Levels</name>
							<effectid>audiolevels</effectid>
							<effectcategory>audiolevels</effectcategory>
							<effecttype>audiolevels</effecttype>
							<mediatype>audio</mediatype>
							<parameter>
								<name>Level</name>
								<parameterid>level</parameterid>
								<valuemin>0</valuemin>
								<valuemax>3.98109</valuemax>
								<keyframe>
									<when>2070.86</when>
									<value>1</value>
								</keyframe>
								<keyframe>
									<when>2073.43</when>
									<value>1.12202</value>
								</keyframe>
								<keyframe>
									<when>2129.71</when>
									<value>1.12202</value>
								</keyframe>
								<keyframe>
									<when>2134.29</when>
									<value>1</value>
								</keyframe>
								<keyframe>
									<when>2160.57</when>
									<value>1</value>
								</keyframe>
								<keyframe>
									<when>2163.14</when>
									<value>1.41254</value>
								</keyframe>
								<keyframe>
									<when>2202.86</when>
									<value>1.41254</value>
								</keyframe>
								<keyframe>
									<when>2205.43</when>
									<value>1.12202</value>
								</keyframe>
								<keyframe>
									<when>2277.43</when>
									<value>1.12202</value>
								</keyframe>
								<keyframe>
									<when>2279.43</when>
									<value>0.891251</value>
								</keyframe>
								<keyframe>
									<when>2285.71</when>
									<value>0.891251</value>
								</keyframe>
								<keyframe>
									<when>2287.43</when>
									<value>1.12202</value>
								</keyframe>
								<keyframe>
									<when>2997.14</when>
									<value>1</value>
								</keyframe>
								<keyframe>
									<when>2999.29</when>
									<value>0.794328</value>
								</keyframe>
								<interpolation>
									<name>FCPCurve</name>
								</interpolation>
								<value>1</value>
							</parameter>
						</effect>
					</filter>
					<filter>
						<effect>
							<name>Audio Pan</name>
							<effectid>audiopan</effectid>
							<effectcategory>audiopan</effectcategory>
							<effecttype>audiopan</effecttype>
							<mediatype>audio</mediatype>
							<parameter>
								<name>Pan</name>
								<parameterid>pan</parameterid>
								<valuemin>-1</valuemin>
								<valuemax>1</valuemax>
								<value>0</value>
							</parameter>
						</effect>
					</filter>
					<sourcetrack>
						<mediatype>audio</mediatype>
						<trackindex>2</trackindex>
					</sourcetrack>
				</clipitem>
				<transitionitem id="1032133260 ">
					<rate>
						<ntsc>FALSE</ntsc>
						<timebase>25</timebase>
					</rate>
					<start>8587</start>
					<end>8593</end>
					<alignment>end-black</alignment>
					<effect>
						<name>Cross Fade (+3dB) Copy</name>
						<effecttype>transition</effecttype>
						<mediatype>audio</mediatype>
					</effect>
				</transitionitem>
				<transitionitem id="1032133736 ">
					<rate>
						<ntsc>FALSE</ntsc>
						<timebase>25</timebase>
					</rate>
					<start>8675</start>
					<end>8681</end>
					<alignment>center</alignment>
					<effect>
						<name>Cross Fade (+3dB)</name>
						<effecttype>transition</effecttype>
						<mediatype>audio</mediatype>
					</effect>
				</transitionitem>
				<clipitem id="msub200012-3011-k1d1-027 17">
					<name>msub200012-3011-k1d1-027</name>
					<duration>5957</duration>
					<rate>
						<ntsc>FALSE</ntsc>
						<timebase>25</timebase>
					</rate>
					<in>5329</in>
					<out>5430</out>
					<start>-1</start>
					<end>-1</end>
					<subframeoffset>0</subframeoffset>
					<masterclipid>msub200012-3011-k1d1-027 1</masterclipid>
					<syncoffset>0</syncoffset>
					<logginginfo>
						<description>msub200012-3011-k1d1-027</description>
						<scene/>
						<shottake/>
						<lognote/>
						<good>FALSE</good>
					</logginginfo>
					<labels>
						<label>Alternate Shots</label>
						<label2/>
					</labels>
					<comments>
						<mastercomment1>RÃ…STOFF. BR_FINFREDAG_MSUA_OPRO</mastercomment1>
						<mastercomment2/>
						<mastercomment3/>
						<mastercomment4/>
						<clipcommenta/>
					</comments>
					<file id="msub200012-3011-k1d1-027 2"/>
					<filter>
						<enabled>TRUE</enabled>
						<start>-1</start>
						<end>-1</end>
						<effect>
							<name>3 Band Equalizer - Kristine</name>
							<effecttype>filter</effecttype>
							<mediatype>audio</mediatype>
							<parameter>
								<parameterid>Low Frequency</parameterid>
								<name>Low Frequency</name>
								<valuemin>80</valuemin>
								<valuemax>2000</valuemax>
								<value>80</value>
							</parameter>
							<parameter>
								<parameterid>Low Gain(dB)</parameterid>
								<name>Low Gain(dB)</name>
								<valuemin>-20</valuemin>
								<valuemax>20</valuemax>
								<value>-4</value>
							</parameter>
							<parameter>
								<parameterid>Mid Frequency</parameterid>
								<name>Mid Frequency</name>
								<valuemin>400</valuemin>
								<valuemax>8000</valuemax>
								<value>3602</value>
							</parameter>
							<parameter>
								<parameterid>Mid Gain(dB)</parameterid>
								<name>Mid Gain(dB)</name>
								<valuemin>-20</valuemin>
								<valuemax>20</valuemax>
								<value>3</value>
							</parameter>
							<parameter>
								<parameterid>High Frequency</parameterid>
								<name>High Frequency</name>
								<valuemin>5000</valuemin>
								<valuemax>20000</valuemax>
								<value>10354</value>
							</parameter>
							<parameter>
								<parameterid>High Gain(dB)</parameterid>
								<name>High Gain(dB)</name>
								<valuemin>-20</valuemin>
								<valuemax>20</valuemax>
								<value>0</value>
							</parameter>
						</effect>
					</filter>
					<filter>
						<enabled>TRUE</enabled>
						<start>-1</start>
						<end>-1</end>
						<effect>
							<name>Compressor/Limiter</name>
							<effecttype>filter</effecttype>
							<mediatype>audio</mediatype>
							<parameter>
								<parameterid>Threshold(dB)</parameterid>
								<name>Threshold(dB)</name>
								<valuemin>-90</valuemin>
								<valuemax>0</valuemax>
								<value>-20</value>
							</parameter>
							<parameter>
								<parameterid>Ratio</parameterid>
								<name>Ratio</name>
								<valuemin>1</valuemin>
								<valuemax>100</valuemax>
								<value>2</value>
							</parameter>
							<parameter>
								<parameterid>Attack Time</parameterid>
								<name>Attack Time</name>
								<valuemin>1</valuemin>
								<valuemax>100</valuemax>
								<value>5</value>
							</parameter>
							<parameter>
								<parameterid>Release Time</parameterid>
								<name>Release Time</name>
								<valuemin>1</valuemin>
								<valuemax>4000</valuemax>
								<value>209</value>
							</parameter>
							<parameter>
								<parameterid>Preserve Volume</parameterid>
								<name>Preserve Volume</name>
								<value>TRUE</value>
							</parameter>
						</effect>
					</filter>
					<filter>
						<effect>
							<name>Audio Levels</name>
							<effectid>audiolevels</effectid>
							<effectcategory>audiolevels</effectcategory>
							<effecttype>audiolevels</effecttype>
							<mediatype>audio</mediatype>
							<parameter>
								<name>Level</name>
								<parameterid>level</parameterid>
								<valuemin>0</valuemin>
								<valuemax>3.98109</valuemax>
								<keyframe>
									<when>5367.29</when>
									<value>1.25893</value>
								</keyframe>
								<keyframe>
									<when>5370.43</when>
									<value>1.41254</value>
								</keyframe>
								<keyframe>
									<when>5391.57</when>
									<value>1.41254</value>
								</keyframe>
								<keyframe>
									<when>5394.14</when>
									<value>1.12202</value>
								</keyframe>
								<keyframe>
									<when>5400.14</when>
									<value>1.12202</value>
								</keyframe>
								<keyframe>
									<when>5407.29</when>
									<value>1.58489</value>
								</keyframe>
								<interpolation>
									<name>FCPCurve</name>
								</interpolation>
								<value>1</value>
							</parameter>
						</effect>
					</filter>
					<filter>
						<effect>
							<name>Audio Pan</name>
							<effectid>audiopan</effectid>
							<effectcategory>audiopan</effectcategory>
							<effecttype>audiopan</effecttype>
							<mediatype>audio</mediatype>
							<parameter>
								<name>Pan</name>
								<parameterid>pan</parameterid>
								<valuemin>-1</valuemin>
								<valuemax>1</valuemax>
								<value>0</value>
							</parameter>
						</effect>
					</filter>
					<sourcetrack>
						<mediatype>audio</mediatype>
						<trackindex>2</trackindex>
					</sourcetrack>
				</clipitem>
				<transitionitem id="39399612 ">
					<rate>
						<ntsc>FALSE</ntsc>
						<timebase>25</timebase>
					</rate>
					<start>8774</start>
					<end>8776</end>
					<alignment>center</alignment>
					<effect>
						<name>Cross Fade (+3dB) Copy</name>
						<effecttype>transition</effecttype>
						<mediatype>audio</mediatype>
					</effect>
				</transitionitem>
				<clipitem id="msub200012-3011-k1d1-028 7">
					<name>msub200012-3011-k1d1-028</name>
					<duration>4553</duration>
					<rate>
						<ntsc>FALSE</ntsc>
						<timebase>25</timebase>
					</rate>
					<in>304</in>
					<out>794</out>
					<start>-1</start>
					<end>-1</end>
					<subframeoffset>0</subframeoffset>
					<masterclipid>msub200012-3011-k1d1-028 1</masterclipid>
					<syncoffset>0</syncoffset>
					<logginginfo>
						<description>msub200012-3011-k1d1-028</description>
						<scene/>
						<shottake/>
						<lognote/>
						<good>FALSE</good>
					</logginginfo>
					<labels>
						<label>Interviews</label>
						<label2/>
					</labels>
					<comments>
						<mastercomment1>RÃ…STOFF. BR_FINFREDAG_MSUA_OPRO</mastercomment1>
						<mastercomment2/>
						<mastercomment3/>
						<mastercomment4/>
						<clipcommenta/>
					</comments>
					<file id="msub200012-3011-k1d1-028 2"/>
					<filter>
						<enabled>TRUE</enabled>
						<start>-1</start>
						<end>-1</end>
						<effect>
							<name>3 Band Equalizer - Kristine</name>
							<effecttype>filter</effecttype>
							<mediatype>audio</mediatype>
							<parameter>
								<parameterid>Low Frequency</parameterid>
								<name>Low Frequency</name>
								<valuemin>80</valuemin>
								<valuemax>2000</valuemax>
								<value>80</value>
							</parameter>
							<parameter>
								<parameterid>Low Gain(dB)</parameterid>
								<name>Low Gain(dB)</name>
								<valuemin>-20</valuemin>
								<valuemax>20</valuemax>
								<value>-4</value>
							</parameter>
							<parameter>
								<parameterid>Mid Frequency</parameterid>
								<name>Mid Frequency</name>
								<valuemin>400</valuemin>
								<valuemax>8000</valuemax>
								<value>3602</value>
							</parameter>
							<parameter>
								<parameterid>Mid Gain(dB)</parameterid>
								<name>Mid Gain(dB)</name>
								<valuemin>-20</valuemin>
								<valuemax>20</valuemax>
								<value>3</value>
							</parameter>
							<parameter>
								<parameterid>High Frequency</parameterid>
								<name>High Frequency</name>
								<valuemin>5000</valuemin>
								<valuemax>20000</valuemax>
								<value>10354</value>
							</parameter>
							<parameter>
								<parameterid>High Gain(dB)</parameterid>
								<name>High Gain(dB)</name>
								<valuemin>-20</valuemin>
								<valuemax>20</valuemax>
								<value>0</value>
							</parameter>
						</effect>
					</filter>
					<filter>
						<enabled>TRUE</enabled>
						<start>-1</start>
						<end>-1</end>
						<effect>
							<name>Compressor/Limiter</name>
							<effecttype>filter</effecttype>
							<mediatype>audio</mediatype>
							<parameter>
								<parameterid>Threshold(dB)</parameterid>
								<name>Threshold(dB)</name>
								<valuemin>-90</valuemin>
								<valuemax>0</valuemax>
								<value>-20</value>
							</parameter>
							<parameter>
								<parameterid>Ratio</parameterid>
								<name>Ratio</name>
								<valuemin>1</valuemin>
								<valuemax>100</valuemax>
								<value>2</value>
							</parameter>
							<parameter>
								<parameterid>Attack Time</parameterid>
								<name>Attack Time</name>
								<valuemin>1</valuemin>
								<valuemax>100</valuemax>
								<value>5</value>
							</parameter>
							<parameter>
								<parameterid>Release Time</parameterid>
								<name>Release Time</name>
								<valuemin>1</valuemin>
								<valuemax>4000</valuemax>
								<value>209</value>
							</parameter>
							<parameter>
								<parameterid>Preserve Volume</parameterid>
								<name>Preserve Volume</name>
								<value>TRUE</value>
							</parameter>
						</effect>
					</filter>
					<filter>
						<effect>
							<name>Audio Levels</name>
							<effectid>audiolevels</effectid>
							<effectcategory>audiolevels</effectcategory>
							<effecttype>audiolevels</effecttype>
							<mediatype>audio</mediatype>
							<parameter>
								<name>Level</name>
								<parameterid>level</parameterid>
								<valuemin>0</valuemin>
								<valuemax>3.98109</valuemax>
								<keyframe>
									<when>359.571</when>
									<value>1.12202</value>
								</keyframe>
								<keyframe>
									<when>363.571</when>
									<value>1.12202</value>
								</keyframe>
								<keyframe>
									<when>415.286</when>
									<value>1</value>
								</keyframe>
								<keyframe>
									<when>423</when>
									<value>1.25893</value>
								</keyframe>
								<keyframe>
									<when>521.857</when>
									<value>1.25893</value>
								</keyframe>
								<keyframe>
									<when>525.857</when>
									<value>1.12202</value>
								</keyframe>
								<keyframe>
									<when>532.143</when>
									<value>1.12202</value>
								</keyframe>
								<keyframe>
									<when>538.429</when>
									<value>1.25893</value>
								</keyframe>
								<keyframe>
									<when>588.143</when>
									<value>1.25893</value>
								</keyframe>
								<keyframe>
									<when>592.143</when>
									<value>1</value>
								</keyframe>
								<keyframe>
									<when>616.714</when>
									<value>1</value>
								</keyframe>
								<keyframe>
									<when>622.429</when>
									<value>1.25893</value>
								</keyframe>
								<interpolation>
									<name>FCPCurve</name>
								</interpolation>
								<value>1</value>
							</parameter>
						</effect>
					</filter>
					<filter>
						<effect>
							<name>Audio Pan</name>
							<effectid>audiopan</effectid>
							<effectcategory>audiopan</effectcategory>
							<effecttype>audiopan</effecttype>
							<mediatype>audio</mediatype>
							<parameter>
								<name>Pan</name>
								<parameterid>pan</parameterid>
								<valuemin>-1</valuemin>
								<valuemax>1</valuemax>
								<value>0</value>
							</parameter>
						</effect>
					</filter>
					<sourcetrack>
						<mediatype>audio</mediatype>
						<trackindex>2</trackindex>
					</sourcetrack>
					<link>
						<linkclipref>msub200012-3011-k1d1-028 6</linkclipref>
						<mediatype>audio</mediatype>
						<trackindex>1</trackindex>
						<clipindex>39</clipindex>
					</link>
					<link>
						<linkclipref>msub200012-3011-k1d1-028 7</linkclipref>
						<mediatype>audio</mediatype>
						<trackindex>2</trackindex>
						<clipindex>44</clipindex>
					</link>
				</clipitem>
				<transitionitem id="39403896 ">
					<rate>
						<ntsc>FALSE</ntsc>
						<timebase>25</timebase>
					</rate>
					<start>9262</start>
					<end>9264</end>
					<alignment>center</alignment>
					<effect>
						<name>Cross Fade (+3dB) Copy</name>
						<effecttype>transition</effecttype>
						<mediatype>audio</mediatype>
					</effect>
				</transitionitem>
				<clipitem id="msub200012-3011-k1d1-028 9">
					<name>msub200012-3011-k1d1-028</name>
					<duration>4553</duration>
					<rate>
						<ntsc>FALSE</ntsc>
						<timebase>25</timebase>
					</rate>
					<in>958</in>
					<out>1621</out>
					<start>-1</start>
					<end>-1</end>
					<subframeoffset>0</subframeoffset>
					<enabled>TRUE</enabled>
					<masterclipid>msub200012-3011-k1d1-028 1</masterclipid>
					<syncoffset>0</syncoffset>
					<logginginfo>
						<description>msub200012-3011-k1d1-028</description>
						<scene/>
						<shottake/>
						<lognote/>
						<good>FALSE</good>
					</logginginfo>
					<labels>
						<label>Interviews</label>
						<label2/>
					</labels>
					<comments>
						<mastercomment1>RÃ…STOFF. BR_FINFREDAG_MSUA_OPRO</mastercomment1>
						<mastercomment2/>
						<mastercomment3/>
						<mastercomment4/>
						<clipcommenta/>
					</comments>
					<file id="msub200012-3011-k1d1-028 2"/>
					<filter>
						<enabled>TRUE</enabled>
						<start>-1</start>
						<end>-1</end>
						<effect>
							<name>3 Band Equalizer - Kristine</name>
							<effecttype>filter</effecttype>
							<mediatype>audio</mediatype>
							<parameter>
								<parameterid>Low Frequency</parameterid>
								<name>Low Frequency</name>
								<valuemin>80</valuemin>
								<valuemax>2000</valuemax>
								<value>80</value>
							</parameter>
							<parameter>
								<parameterid>Low Gain(dB)</parameterid>
								<name>Low Gain(dB)</name>
								<valuemin>-20</valuemin>
								<valuemax>20</valuemax>
								<value>-4</value>
							</parameter>
							<parameter>
								<parameterid>Mid Frequency</parameterid>
								<name>Mid Frequency</name>
								<valuemin>400</valuemin>
								<valuemax>8000</valuemax>
								<value>3602</value>
							</parameter>
							<parameter>
								<parameterid>Mid Gain(dB)</parameterid>
								<name>Mid Gain(dB)</name>
								<valuemin>-20</valuemin>
								<valuemax>20</valuemax>
								<value>3</value>
							</parameter>
							<parameter>
								<parameterid>High Frequency</parameterid>
								<name>High Frequency</name>
								<valuemin>5000</valuemin>
								<valuemax>20000</valuemax>
								<value>10354</value>
							</parameter>
							<parameter>
								<parameterid>High Gain(dB)</parameterid>
								<name>High Gain(dB)</name>
								<valuemin>-20</valuemin>
								<valuemax>20</valuemax>
								<value>0</value>
							</parameter>
						</effect>
					</filter>
					<filter>
						<enabled>TRUE</enabled>
						<start>-1</start>
						<end>-1</end>
						<effect>
							<name>Compressor/Limiter</name>
							<effecttype>filter</effecttype>
							<mediatype>audio</mediatype>
							<parameter>
								<parameterid>Threshold(dB)</parameterid>
								<name>Threshold(dB)</name>
								<valuemin>-90</valuemin>
								<valuemax>0</valuemax>
								<value>-20</value>
							</parameter>
							<parameter>
								<parameterid>Ratio</parameterid>
								<name>Ratio</name>
								<valuemin>1</valuemin>
								<valuemax>100</valuemax>
								<value>2</value>
							</parameter>
							<parameter>
								<parameterid>Attack Time</parameterid>
								<name>Attack Time</name>
								<valuemin>1</valuemin>
								<valuemax>100</valuemax>
								<value>5</value>
							</parameter>
							<parameter>
								<parameterid>Release Time</parameterid>
								<name>Release Time</name>
								<valuemin>1</valuemin>
								<valuemax>4000</valuemax>
								<value>209</value>
							</parameter>
							<parameter>
								<parameterid>Preserve Volume</parameterid>
								<name>Preserve Volume</name>
								<value>TRUE</value>
							</parameter>
						</effect>
					</filter>
					<filter>
						<effect>
							<name>Audio Levels</name>
							<effectid>audiolevels</effectid>
							<effectcategory>audiolevels</effectcategory>
							<effecttype>audiolevels</effecttype>
							<mediatype>audio</mediatype>
							<parameter>
								<name>Level</name>
								<parameterid>level</parameterid>
								<valuemin>0</valuemin>
								<valuemax>3.98109</valuemax>
								<keyframe>
									<when>1213.57</when>
									<value>1</value>
								</keyframe>
								<keyframe>
									<when>1218.71</when>
									<value>0.794328</value>
								</keyframe>
								<keyframe>
									<when>1227.29</when>
									<value>0.794328</value>
								</keyframe>
								<keyframe>
									<when>1231.86</when>
									<value>1</value>
								</keyframe>
								<keyframe>
									<when>1346.14</when>
									<value>1.25893</value>
								</keyframe>
								<keyframe>
									<when>1353</when>
									<value>1</value>
								</keyframe>
								<interpolation>
									<name>FCPCurve</name>
								</interpolation>
								<value>1</value>
							</parameter>
						</effect>
					</filter>
					<filter>
						<effect>
							<name>Audio Pan</name>
							<effectid>audiopan</effectid>
							<effectcategory>audiopan</effectcategory>
							<effecttype>audiopan</effecttype>
							<mediatype>audio</mediatype>
							<parameter>
								<name>Pan</name>
								<parameterid>pan</parameterid>
								<valuemin>-1</valuemin>
								<valuemax>1</valuemax>
								<value>0</value>
							</parameter>
						</effect>
					</filter>
					<sourcetrack>
						<mediatype>audio</mediatype>
						<trackindex>2</trackindex>
					</sourcetrack>
					<link>
						<linkclipref>msub200012-3011-k1d1-028 8</linkclipref>
						<mediatype>audio</mediatype>
						<trackindex>1</trackindex>
						<clipindex>40</clipindex>
					</link>
					<link>
						<linkclipref>msub200012-3011-k1d1-028 9</linkclipref>
						<mediatype>audio</mediatype>
						<trackindex>2</trackindex>
						<clipindex>46</clipindex>
					</link>
				</clipitem>
				<transitionitem id="39407500 ">
					<rate>
						<ntsc>FALSE</ntsc>
						<timebase>25</timebase>
					</rate>
					<start>9921</start>
					<end>9925</end>
					<alignment>center</alignment>
					<effect>
						<name>Cross Fade (+3dB) Copy</name>
						<effecttype>transition</effecttype>
						<mediatype>audio</mediatype>
					</effect>
				</transitionitem>
				<clipitem id="msub200012-3011-k1d1-028 11">
					<name>msub200012-3011-k1d1-028</name>
					<duration>4553</duration>
					<rate>
						<ntsc>FALSE</ntsc>
						<timebase>25</timebase>
					</rate>
					<in>1961</in>
					<out>2464</out>
					<start>-1</start>
					<end>-1</end>
					<subframeoffset>0</subframeoffset>
					<masterclipid>msub200012-3011-k1d1-028 1</masterclipid>
					<syncoffset>0</syncoffset>
					<logginginfo>
						<description>msub200012-3011-k1d1-028</description>
						<scene/>
						<shottake/>
						<lognote/>
						<good>FALSE</good>
					</logginginfo>
					<labels>
						<label>Interviews</label>
						<label2/>
					</labels>
					<comments>
						<mastercomment1>RÃ…STOFF. BR_FINFREDAG_MSUA_OPRO</mastercomment1>
						<mastercomment2/>
						<mastercomment3/>
						<mastercomment4/>
						<clipcommenta/>
					</comments>
					<file id="msub200012-3011-k1d1-028 2"/>
					<filter>
						<enabled>TRUE</enabled>
						<start>-1</start>
						<end>-1</end>
						<effect>
							<name>3 Band Equalizer - Kristine</name>
							<effecttype>filter</effecttype>
							<mediatype>audio</mediatype>
							<parameter>
								<parameterid>Low Frequency</parameterid>
								<name>Low Frequency</name>
								<valuemin>80</valuemin>
								<valuemax>2000</valuemax>
								<value>80</value>
							</parameter>
							<parameter>
								<parameterid>Low Gain(dB)</parameterid>
								<name>Low Gain(dB)</name>
								<valuemin>-20</valuemin>
								<valuemax>20</valuemax>
								<value>-4</value>
							</parameter>
							<parameter>
								<parameterid>Mid Frequency</parameterid>
								<name>Mid Frequency</name>
								<valuemin>400</valuemin>
								<valuemax>8000</valuemax>
								<value>3602</value>
							</parameter>
							<parameter>
								<parameterid>Mid Gain(dB)</parameterid>
								<name>Mid Gain(dB)</name>
								<valuemin>-20</valuemin>
								<valuemax>20</valuemax>
								<value>3</value>
							</parameter>
							<parameter>
								<parameterid>High Frequency</parameterid>
								<name>High Frequency</name>
								<valuemin>5000</valuemin>
								<valuemax>20000</valuemax>
								<value>10354</value>
							</parameter>
							<parameter>
								<parameterid>High Gain(dB)</parameterid>
								<name>High Gain(dB)</name>
								<valuemin>-20</valuemin>
								<valuemax>20</valuemax>
								<value>0</value>
							</parameter>
						</effect>
					</filter>
					<filter>
						<enabled>TRUE</enabled>
						<start>-1</start>
						<end>-1</end>
						<effect>
							<name>Compressor/Limiter</name>
							<effecttype>filter</effecttype>
							<mediatype>audio</mediatype>
							<parameter>
								<parameterid>Threshold(dB)</parameterid>
								<name>Threshold(dB)</name>
								<valuemin>-90</valuemin>
								<valuemax>0</valuemax>
								<value>-20</value>
							</parameter>
							<parameter>
								<parameterid>Ratio</parameterid>
								<name>Ratio</name>
								<valuemin>1</valuemin>
								<valuemax>100</valuemax>
								<value>2</value>
							</parameter>
							<parameter>
								<parameterid>Attack Time</parameterid>
								<name>Attack Time</name>
								<valuemin>1</valuemin>
								<valuemax>100</valuemax>
								<value>5</value>
							</parameter>
							<parameter>
								<parameterid>Release Time</parameterid>
								<name>Release Time</name>
								<valuemin>1</valuemin>
								<valuemax>4000</valuemax>
								<value>209</value>
							</parameter>
							<parameter>
								<parameterid>Preserve Volume</parameterid>
								<name>Preserve Volume</name>
								<value>TRUE</value>
							</parameter>
						</effect>
					</filter>
					<filter>
						<effect>
							<name>Audio Levels</name>
							<effectid>audiolevels</effectid>
							<effectcategory>audiolevels</effectcategory>
							<effecttype>audiolevels</effecttype>
							<mediatype>audio</mediatype>
							<parameter>
								<name>Level</name>
								<parameterid>level</parameterid>
								<valuemin>0</valuemin>
								<valuemax>3.98109</valuemax>
								<keyframe>
									<when>2334.14</when>
									<value>1</value>
								</keyframe>
								<keyframe>
									<when>2346.71</when>
									<value>0.891251</value>
								</keyframe>
								<interpolation>
									<name>FCPCurve</name>
								</interpolation>
								<value>1</value>
							</parameter>
						</effect>
					</filter>
					<filter>
						<effect>
							<name>Audio Pan</name>
							<effectid>audiopan</effectid>
							<effectcategory>audiopan</effectcategory>
							<effecttype>audiopan</effecttype>
							<mediatype>audio</mediatype>
							<parameter>
								<name>Pan</name>
								<parameterid>pan</parameterid>
								<valuemin>-1</valuemin>
								<valuemax>1</valuemax>
								<value>0</value>
							</parameter>
						</effect>
					</filter>
					<sourcetrack>
						<mediatype>audio</mediatype>
						<trackindex>2</trackindex>
					</sourcetrack>
					<link>
						<linkclipref>msub200012-3011-k1d1-028 10</linkclipref>
						<mediatype>audio</mediatype>
						<trackindex>1</trackindex>
						<clipindex>42</clipindex>
					</link>
					<link>
						<linkclipref>msub200012-3011-k1d1-028 11</linkclipref>
						<mediatype>audio</mediatype>
						<trackindex>2</trackindex>
						<clipindex>48</clipindex>
					</link>
				</clipitem>
				<transitionitem id="39410764 ">
					<rate>
						<ntsc>FALSE</ntsc>
						<timebase>25</timebase>
					</rate>
					<start>10422</start>
					<end>10424</end>
					<alignment>center</alignment>
					<effect>
						<name>Cross Fade (+3dB) Copy</name>
						<effecttype>transition</effecttype>
						<mediatype>audio</mediatype>
					</effect>
				</transitionitem>
				<clipitem id="msub200012-3011-k1d1-028 13">
					<name>msub200012-3011-k1d1-028</name>
					<duration>4553</duration>
					<rate>
						<ntsc>FALSE</ntsc>
						<timebase>25</timebase>
					</rate>
					<in>2921</in>
					<out>3081</out>
					<start>-1</start>
					<end>-1</end>
					<subframeoffset>0</subframeoffset>
					<masterclipid>msub200012-3011-k1d1-028 1</masterclipid>
					<syncoffset>0</syncoffset>
					<logginginfo>
						<description>msub200012-3011-k1d1-028</description>
						<scene/>
						<shottake/>
						<lognote/>
						<good>FALSE</good>
					</logginginfo>
					<labels>
						<label>Interviews</label>
						<label2/>
					</labels>
					<comments>
						<mastercomment1>RÃ…STOFF. BR_FINFREDAG_MSUA_OPRO</mastercomment1>
						<mastercomment2/>
						<mastercomment3/>
						<mastercomment4/>
						<clipcommenta/>
					</comments>
					<file id="msub200012-3011-k1d1-028 2"/>
					<filter>
						<enabled>TRUE</enabled>
						<start>-1</start>
						<end>-1</end>
						<effect>
							<name>3 Band Equalizer - Kristine</name>
							<effecttype>filter</effecttype>
							<mediatype>audio</mediatype>
							<parameter>
								<parameterid>Low Frequency</parameterid>
								<name>Low Frequency</name>
								<valuemin>80</valuemin>
								<valuemax>2000</valuemax>
								<value>80</value>
							</parameter>
							<parameter>
								<parameterid>Low Gain(dB)</parameterid>
								<name>Low Gain(dB)</name>
								<valuemin>-20</valuemin>
								<valuemax>20</valuemax>
								<value>-4</value>
							</parameter>
							<parameter>
								<parameterid>Mid Frequency</parameterid>
								<name>Mid Frequency</name>
								<valuemin>400</valuemin>
								<valuemax>8000</valuemax>
								<value>3602</value>
							</parameter>
							<parameter>
								<parameterid>Mid Gain(dB)</parameterid>
								<name>Mid Gain(dB)</name>
								<valuemin>-20</valuemin>
								<valuemax>20</valuemax>
								<value>3</value>
							</parameter>
							<parameter>
								<parameterid>High Frequency</parameterid>
								<name>High Frequency</name>
								<valuemin>5000</valuemin>
								<valuemax>20000</valuemax>
								<value>10354</value>
							</parameter>
							<parameter>
								<parameterid>High Gain(dB)</parameterid>
								<name>High Gain(dB)</name>
								<valuemin>-20</valuemin>
								<valuemax>20</valuemax>
								<value>0</value>
							</parameter>
						</effect>
					</filter>
					<filter>
						<enabled>TRUE</enabled>
						<start>-1</start>
						<end>-1</end>
						<effect>
							<name>Compressor/Limiter</name>
							<effecttype>filter</effecttype>
							<mediatype>audio</mediatype>
							<parameter>
								<parameterid>Threshold(dB)</parameterid>
								<name>Threshold(dB)</name>
								<valuemin>-90</valuemin>
								<valuemax>0</valuemax>
								<value>-20</value>
							</parameter>
							<parameter>
								<parameterid>Ratio</parameterid>
								<name>Ratio</name>
								<valuemin>1</valuemin>
								<valuemax>100</valuemax>
								<value>2</value>
							</parameter>
							<parameter>
								<parameterid>Attack Time</parameterid>
								<name>Attack Time</name>
								<valuemin>1</valuemin>
								<valuemax>100</valuemax>
								<value>5</value>
							</parameter>
							<parameter>
								<parameterid>Release Time</parameterid>
								<name>Release Time</name>
								<valuemin>1</valuemin>
								<valuemax>4000</valuemax>
								<value>209</value>
							</parameter>
							<parameter>
								<parameterid>Preserve Volume</parameterid>
								<name>Preserve Volume</name>
								<value>TRUE</value>
							</parameter>
						</effect>
					</filter>
					<filter>
						<effect>
							<name>Audio Levels</name>
							<effectid>audiolevels</effectid>
							<effectcategory>audiolevels</effectcategory>
							<effecttype>audiolevels</effecttype>
							<mediatype>audio</mediatype>
							<parameter>
								<name>Level</name>
								<parameterid>level</parameterid>
								<valuemin>0</valuemin>
								<valuemax>3.98109</valuemax>
								<keyframe>
									<when>2990.57</when>
									<value>1</value>
								</keyframe>
								<keyframe>
									<when>2993.43</when>
									<value>1.23207</value>
								</keyframe>
								<keyframe>
									<when>3034.86</when>
									<value>1.10676</value>
								</keyframe>
								<keyframe>
									<when>3048.86</when>
									<value>1</value>
								</keyframe>
								<interpolation>
									<name>FCPCurve</name>
								</interpolation>
								<value>1</value>
							</parameter>
						</effect>
					</filter>
					<filter>
						<effect>
							<name>Audio Pan</name>
							<effectid>audiopan</effectid>
							<effectcategory>audiopan</effectcategory>
							<effecttype>audiopan</effecttype>
							<mediatype>audio</mediatype>
							<parameter>
								<name>Pan</name>
								<parameterid>pan</parameterid>
								<valuemin>-1</valuemin>
								<valuemax>1</valuemax>
								<value>0</value>
							</parameter>
						</effect>
					</filter>
					<sourcetrack>
						<mediatype>audio</mediatype>
						<trackindex>2</trackindex>
					</sourcetrack>
					<link>
						<linkclipref>msub200012-3011-k1d1-028 12</linkclipref>
						<mediatype>audio</mediatype>
						<trackindex>1</trackindex>
						<clipindex>43</clipindex>
					</link>
					<link>
						<linkclipref>msub200012-3011-k1d1-028 13</linkclipref>
						<mediatype>audio</mediatype>
						<trackindex>2</trackindex>
						<clipindex>50</clipindex>
					</link>
				</clipitem>
				<transitionitem id="39414164 ">
					<rate>
						<ntsc>FALSE</ntsc>
						<timebase>25</timebase>
					</rate>
					<start>10576</start>
					<end>10582</end>
					<alignment>end-black</alignment>
					<effect>
						<name>Cross Fade (+3dB) Copy</name>
						<effecttype>transition</effecttype>
						<mediatype>audio</mediatype>
					</effect>
				</transitionitem>
				<transitionitem id="39414640 ">
					<rate>
						<ntsc>FALSE</ntsc>
						<timebase>25</timebase>
					</rate>
					<start>10952</start>
					<end>10954</end>
					<alignment>start-black</alignment>
					<effect>
						<name>Cross Fade (+3dB) Copy</name>
						<effecttype>transition</effecttype>
						<mediatype>audio</mediatype>
					</effect>
				</transitionitem>
				<clipitem id="msub200012-3011-k1d1-029 4">
					<name>msub200012-3011-k1d1-029</name>
					<duration>1050</duration>
					<rate>
						<ntsc>FALSE</ntsc>
						<timebase>25</timebase>
					</rate>
					<in>722</in>
					<out>950</out>
					<start>-1</start>
					<end>-1</end>
					<subframeoffset>0</subframeoffset>
					<masterclipid>msub200012-3011-k1d1-029 1</masterclipid>
					<syncoffset>0</syncoffset>
					<logginginfo>
						<description>msub200012-3011-k1d1-029</description>
						<scene/>
						<shottake/>
						<lognote/>
						<good>FALSE</good>
					</logginginfo>
					<labels>
						<label>B Roll</label>
						<label2/>
					</labels>
					<comments>
						<mastercomment1>RÃ…STOFF. BR_FINFREDAG_MSUA_OPRO</mastercomment1>
						<mastercomment2/>
						<mastercomment3/>
						<mastercomment4/>
						<clipcommenta/>
					</comments>
					<file id="msub200012-3011-k1d1-029 2"/>
					<filter>
						<enabled>TRUE</enabled>
						<start>-1</start>
						<end>-1</end>
						<effect>
							<name>3 Band Equalizer - Kristine</name>
							<effecttype>filter</effecttype>
							<mediatype>audio</mediatype>
							<parameter>
								<parameterid>Low Frequency</parameterid>
								<name>Low Frequency</name>
								<valuemin>80</valuemin>
								<valuemax>2000</valuemax>
								<value>80</value>
							</parameter>
							<parameter>
								<parameterid>Low Gain(dB)</parameterid>
								<name>Low Gain(dB)</name>
								<valuemin>-20</valuemin>
								<valuemax>20</valuemax>
								<value>-4</value>
							</parameter>
							<parameter>
								<parameterid>Mid Frequency</parameterid>
								<name>Mid Frequency</name>
								<valuemin>400</valuemin>
								<valuemax>8000</valuemax>
								<value>3602</value>
							</parameter>
							<parameter>
								<parameterid>Mid Gain(dB)</parameterid>
								<name>Mid Gain(dB)</name>
								<valuemin>-20</valuemin>
								<valuemax>20</valuemax>
								<value>3</value>
							</parameter>
							<parameter>
								<parameterid>High Frequency</parameterid>
								<name>High Frequency</name>
								<valuemin>5000</valuemin>
								<valuemax>20000</valuemax>
								<value>10354</value>
							</parameter>
							<parameter>
								<parameterid>High Gain(dB)</parameterid>
								<name>High Gain(dB)</name>
								<valuemin>-20</valuemin>
								<valuemax>20</valuemax>
								<value>0</value>
							</parameter>
						</effect>
					</filter>
					<filter>
						<enabled>TRUE</enabled>
						<start>-1</start>
						<end>-1</end>
						<effect>
							<name>Compressor/Limiter</name>
							<effecttype>filter</effecttype>
							<mediatype>audio</mediatype>
							<parameter>
								<parameterid>Threshold(dB)</parameterid>
								<name>Threshold(dB)</name>
								<valuemin>-90</valuemin>
								<valuemax>0</valuemax>
								<value>-20</value>
							</parameter>
							<parameter>
								<parameterid>Ratio</parameterid>
								<name>Ratio</name>
								<valuemin>1</valuemin>
								<valuemax>100</valuemax>
								<value>2</value>
							</parameter>
							<parameter>
								<parameterid>Attack Time</parameterid>
								<name>Attack Time</name>
								<valuemin>1</valuemin>
								<valuemax>100</valuemax>
								<value>5</value>
							</parameter>
							<parameter>
								<parameterid>Release Time</parameterid>
								<name>Release Time</name>
								<valuemin>1</valuemin>
								<valuemax>4000</valuemax>
								<value>209</value>
							</parameter>
							<parameter>
								<parameterid>Preserve Volume</parameterid>
								<name>Preserve Volume</name>
								<value>TRUE</value>
							</parameter>
						</effect>
					</filter>
					<filter>
						<effect>
							<name>Audio Levels</name>
							<effectid>audiolevels</effectid>
							<effectcategory>audiolevels</effectcategory>
							<effecttype>audiolevels</effecttype>
							<mediatype>audio</mediatype>
							<parameter>
								<name>Level</name>
								<parameterid>level</parameterid>
								<valuemin>0</valuemin>
								<valuemax>3.98109</valuemax>
								<keyframe>
									<when>827</when>
									<value>1.25893</value>
								</keyframe>
								<keyframe>
									<when>831.571</when>
									<value>1.58489</value>
								</keyframe>
								<interpolation>
									<name>FCPCurve</name>
								</interpolation>
								<value>1.25893</value>
							</parameter>
						</effect>
					</filter>
					<filter>
						<effect>
							<name>Audio Pan</name>
							<effectid>audiopan</effectid>
							<effectcategory>audiopan</effectcategory>
							<effecttype>audiopan</effecttype>
							<mediatype>audio</mediatype>
							<parameter>
								<name>Pan</name>
								<parameterid>pan</parameterid>
								<valuemin>-1</valuemin>
								<valuemax>1</valuemax>
								<value>0</value>
							</parameter>
						</effect>
					</filter>
					<sourcetrack>
						<mediatype>audio</mediatype>
						<trackindex>2</trackindex>
					</sourcetrack>
					<link>
						<linkclipref>msub200012-3011-k1d1-029 3</linkclipref>
						<mediatype>audio</mediatype>
						<trackindex>1</trackindex>
						<clipindex>45</clipindex>
					</link>
					<link>
						<linkclipref>msub200012-3011-k1d1-029 4</linkclipref>
						<mediatype>audio</mediatype>
						<trackindex>2</trackindex>
						<clipindex>53</clipindex>
					</link>
				</clipitem>
				<transitionitem id="39417904 ">
					<rate>
						<ntsc>FALSE</ntsc>
						<timebase>25</timebase>
					</rate>
					<start>11174</start>
					<end>11180</end>
					<alignment>end-black</alignment>
					<effect>
						<name>Cross Fade (+3dB) Copy</name>
						<effecttype>transition</effecttype>
						<mediatype>audio</mediatype>
					</effect>
				</transitionitem>
				<clipitem id="msub200012-3011-k1d2-002 4">
					<name>msub200012-3011-k1d2-002</name>
					<duration>5918</duration>
					<rate>
						<ntsc>FALSE</ntsc>
						<timebase>25</timebase>
					</rate>
					<in>2405</in>
					<out>3463</out>
					<start>15223</start>
					<end>16281</end>
					<subframeoffset>0</subframeoffset>
					<enabled>TRUE</enabled>
					<masterclipid>msub200012-3011-k1d2-002 1</masterclipid>
					<syncoffset>0</syncoffset>
					<logginginfo>
						<description>msub200012-3011-k1d2-002</description>
						<scene/>
						<shottake/>
						<lognote/>
						<good>FALSE</good>
					</logginginfo>
					<labels>
						<label>Good Take</label>
						<label2/>
					</labels>
					<comments>
						<mastercomment1>RÃ…STOFF. BR_FINFREDAG_MSUA_OPRO</mastercomment1>
						<mastercomment2/>
						<mastercomment3/>
						<mastercomment4/>
						<clipcommenta/>
					</comments>
					<file id="msub200012-3011-k1d2-002 2"/>
					<filter>
						<enabled>TRUE</enabled>
						<start>-1</start>
						<end>-1</end>
						<effect>
							<name>3 Band Equalizer - Kristine</name>
							<effecttype>filter</effecttype>
							<mediatype>audio</mediatype>
							<parameter>
								<parameterid>Low Frequency</parameterid>
								<name>Low Frequency</name>
								<valuemin>80</valuemin>
								<valuemax>2000</valuemax>
								<value>80</value>
							</parameter>
							<parameter>
								<parameterid>Low Gain(dB)</parameterid>
								<name>Low Gain(dB)</name>
								<valuemin>-20</valuemin>
								<valuemax>20</valuemax>
								<value>-4</value>
							</parameter>
							<parameter>
								<parameterid>Mid Frequency</parameterid>
								<name>Mid Frequency</name>
								<valuemin>400</valuemin>
								<valuemax>8000</valuemax>
								<value>3602</value>
							</parameter>
							<parameter>
								<parameterid>Mid Gain(dB)</parameterid>
								<name>Mid Gain(dB)</name>
								<valuemin>-20</valuemin>
								<valuemax>20</valuemax>
								<value>3</value>
							</parameter>
							<parameter>
								<parameterid>High Frequency</parameterid>
								<name>High Frequency</name>
								<valuemin>5000</valuemin>
								<valuemax>20000</valuemax>
								<value>10354</value>
							</parameter>
							<parameter>
								<parameterid>High Gain(dB)</parameterid>
								<name>High Gain(dB)</name>
								<valuemin>-20</valuemin>
								<valuemax>20</valuemax>
								<value>0</value>
							</parameter>
						</effect>
					</filter>
					<filter>
						<enabled>TRUE</enabled>
						<start>-1</start>
						<end>-1</end>
						<effect>
							<name>Compressor/Limiter</name>
							<effecttype>filter</effecttype>
							<mediatype>audio</mediatype>
							<parameter>
								<parameterid>Threshold(dB)</parameterid>
								<name>Threshold(dB)</name>
								<valuemin>-90</valuemin>
								<valuemax>0</valuemax>
								<value>-20</value>
							</parameter>
							<parameter>
								<parameterid>Ratio</parameterid>
								<name>Ratio</name>
								<valuemin>1</valuemin>
								<valuemax>100</valuemax>
								<value>2</value>
							</parameter>
							<parameter>
								<parameterid>Attack Time</parameterid>
								<name>Attack Time</name>
								<valuemin>1</valuemin>
								<valuemax>100</valuemax>
								<value>5</value>
							</parameter>
							<parameter>
								<parameterid>Release Time</parameterid>
								<name>Release Time</name>
								<valuemin>1</valuemin>
								<valuemax>4000</valuemax>
								<value>209</value>
							</parameter>
							<parameter>
								<parameterid>Preserve Volume</parameterid>
								<name>Preserve Volume</name>
								<value>TRUE</value>
							</parameter>
						</effect>
					</filter>
					<filter>
						<effect>
							<name>Audio Levels</name>
							<effectid>audiolevels</effectid>
							<effectcategory>audiolevels</effectcategory>
							<effecttype>audiolevels</effecttype>
							<mediatype>audio</mediatype>
							<parameter>
								<name>Level</name>
								<parameterid>level</parameterid>
								<valuemin>0</valuemin>
								<valuemax>3.98109</valuemax>
								<keyframe>
									<when>2595</when>
									<value>0.0891251</value>
								</keyframe>
								<keyframe>
									<when>2607.01</when>
									<value>1</value>
								</keyframe>
								<keyframe>
									<when>3255.29</when>
									<value>1</value>
								</keyframe>
								<keyframe>
									<when>3260.14</when>
									<value>1.41254</value>
								</keyframe>
								<keyframe>
									<when>3337.29</when>
									<value>1.41254</value>
								</keyframe>
								<keyframe>
									<when>3343.57</when>
									<value>1.12202</value>
								</keyframe>
								<keyframe>
									<when>3444.71</when>
									<value>1.12202</value>
								</keyframe>
								<keyframe>
									<when>3450.14</when>
									<value>0.0177828</value>
								</keyframe>
								<interpolation>
									<name>FCPCurve</name>
								</interpolation>
								<value>0.0891251</value>
							</parameter>
						</effect>
					</filter>
					<filter>
						<effect>
							<name>Audio Pan</name>
							<effectid>audiopan</effectid>
							<effectcategory>audiopan</effectcategory>
							<effecttype>audiopan</effecttype>
							<mediatype>audio</mediatype>
							<parameter>
								<name>Pan</name>
								<parameterid>pan</parameterid>
								<valuemin>-1</valuemin>
								<valuemax>1</valuemax>
								<value>0</value>
							</parameter>
						</effect>
					</filter>
					<sourcetrack>
						<mediatype>audio</mediatype>
						<trackindex>2</trackindex>
					</sourcetrack>
					<link>
						<linkclipref>msub200012-3011-k1d2-002 </linkclipref>
						<mediatype>video</mediatype>
						<trackindex>1</trackindex>
						<clipindex>49</clipindex>
					</link>
					<link>
						<linkclipref>msub200012-3011-k1d2-002 3</linkclipref>
						<mediatype>audio</mediatype>
						<trackindex>1</trackindex>
						<clipindex>47</clipindex>
					</link>
					<link>
						<linkclipref>msub200012-3011-k1d2-002 4</linkclipref>
						<mediatype>audio</mediatype>
						<trackindex>2</trackindex>
						<clipindex>55</clipindex>
					</link>
				</clipitem>
				<clipitem id="msub200012-3011-k1d2-004 4">
					<name>msub200012-3011-k1d2-004</name>
					<duration>6412</duration>
					<rate>
						<ntsc>FALSE</ntsc>
						<timebase>25</timebase>
					</rate>
					<in>2749</in>
					<out>2861</out>
					<start>16281</start>
					<end>-1</end>
					<subframeoffset>0</subframeoffset>
					<masterclipid>msub200012-3011-k1d2-004 1</masterclipid>
					<logginginfo>
						<description>msub200012-3011-k1d2-004</description>
						<scene/>
						<shottake/>
						<lognote/>
						<good>FALSE</good>
					</logginginfo>
					<labels>
						<label2/>
					</labels>
					<comments>
						<mastercomment1>RÃ…STOFF. BR_FINFREDAG_MSUA_OPRO</mastercomment1>
						<mastercomment2/>
						<mastercomment3/>
						<mastercomment4/>
						<clipcommenta/>
					</comments>
					<file id="msub200012-3011-k1d2-004 2"/>
					<filter>
						<enabled>TRUE</enabled>
						<start>-1</start>
						<end>-1</end>
						<effect>
							<name>3 Band Equalizer - Kristine</name>
							<effecttype>filter</effecttype>
							<mediatype>audio</mediatype>
							<parameter>
								<parameterid>Low Frequency</parameterid>
								<name>Low Frequency</name>
								<valuemin>80</valuemin>
								<valuemax>2000</valuemax>
								<value>80</value>
							</parameter>
							<parameter>
								<parameterid>Low Gain(dB)</parameterid>
								<name>Low Gain(dB)</name>
								<valuemin>-20</valuemin>
								<valuemax>20</valuemax>
								<value>-4</value>
							</parameter>
							<parameter>
								<parameterid>Mid Frequency</parameterid>
								<name>Mid Frequency</name>
								<valuemin>400</valuemin>
								<valuemax>8000</valuemax>
								<value>3602</value>
							</parameter>
							<parameter>
								<parameterid>Mid Gain(dB)</parameterid>
								<name>Mid Gain(dB)</name>
								<valuemin>-20</valuemin>
								<valuemax>20</valuemax>
								<value>3</value>
							</parameter>
							<parameter>
								<parameterid>High Frequency</parameterid>
								<name>High Frequency</name>
								<valuemin>5000</valuemin>
								<valuemax>20000</valuemax>
								<value>10354</value>
							</parameter>
							<parameter>
								<parameterid>High Gain(dB)</parameterid>
								<name>High Gain(dB)</name>
								<valuemin>-20</valuemin>
								<valuemax>20</valuemax>
								<value>0</value>
							</parameter>
						</effect>
					</filter>
					<filter>
						<enabled>TRUE</enabled>
						<start>-1</start>
						<end>-1</end>
						<effect>
							<name>Compressor/Limiter</name>
							<effecttype>filter</effecttype>
							<mediatype>audio</mediatype>
							<parameter>
								<parameterid>Threshold(dB)</parameterid>
								<name>Threshold(dB)</name>
								<valuemin>-90</valuemin>
								<valuemax>0</valuemax>
								<value>-20</value>
							</parameter>
							<parameter>
								<parameterid>Ratio</parameterid>
								<name>Ratio</name>
								<valuemin>1</valuemin>
								<valuemax>100</valuemax>
								<value>2</value>
							</parameter>
							<parameter>
								<parameterid>Attack Time</parameterid>
								<name>Attack Time</name>
								<valuemin>1</valuemin>
								<valuemax>100</valuemax>
								<value>5</value>
							</parameter>
							<parameter>
								<parameterid>Release Time</parameterid>
								<name>Release Time</name>
								<valuemin>1</valuemin>
								<valuemax>4000</valuemax>
								<value>209</value>
							</parameter>
							<parameter>
								<parameterid>Preserve Volume</parameterid>
								<name>Preserve Volume</name>
								<value>TRUE</value>
							</parameter>
						</effect>
					</filter>
					<filter>
						<effect>
							<name>Audio Levels</name>
							<effectid>audiolevels</effectid>
							<effectcategory>audiolevels</effectcategory>
							<effecttype>audiolevels</effecttype>
							<mediatype>audio</mediatype>
							<parameter>
								<name>Level</name>
								<parameterid>level</parameterid>
								<valuemin>0</valuemin>
								<valuemax>3.98109</valuemax>
								<value>0.0112202</value>
							</parameter>
						</effect>
					</filter>
					<filter>
						<effect>
							<name>Audio Pan</name>
							<effectid>audiopan</effectid>
							<effectcategory>audiopan</effectcategory>
							<effecttype>audiopan</effecttype>
							<mediatype>audio</mediatype>
							<parameter>
								<name>Pan</name>
								<parameterid>pan</parameterid>
								<valuemin>-1</valuemin>
								<valuemax>1</valuemax>
								<value>0</value>
							</parameter>
						</effect>
					</filter>
					<sourcetrack>
						<mediatype>audio</mediatype>
						<trackindex>2</trackindex>
					</sourcetrack>
					<link>
						<linkclipref>msub200012-3011-k1d2-004 </linkclipref>
						<mediatype>video</mediatype>
						<trackindex>1</trackindex>
						<clipindex>53</clipindex>
					</link>
					<link>
						<linkclipref>msub200012-3011-k1d2-004 3</linkclipref>
						<mediatype>audio</mediatype>
						<trackindex>1</trackindex>
						<clipindex>49</clipindex>
					</link>
					<link>
						<linkclipref>msub200012-3011-k1d2-004 4</linkclipref>
						<mediatype>audio</mediatype>
						<trackindex>2</trackindex>
						<clipindex>56</clipindex>
					</link>
				</clipitem>
				<transitionitem id="39424568 ">
					<rate>
						<ntsc>FALSE</ntsc>
						<timebase>25</timebase>
					</rate>
					<start>16387</start>
					<end>16393</end>
					<alignment>center</alignment>
					<effect>
						<name>Cross Fade (+3dB) Copy</name>
						<effecttype>transition</effecttype>
						<mediatype>audio</mediatype>
					</effect>
				</transitionitem>
				<clipitem id="msub200012-3011-k1d2-003 4">
					<name>msub200012-3011-k1d2-003</name>
					<duration>16188</duration>
					<rate>
						<ntsc>FALSE</ntsc>
						<timebase>25</timebase>
					</rate>
					<in>4312</in>
					<out>5419</out>
					<start>-1</start>
					<end>17494</end>
					<subframeoffset>0</subframeoffset>
					<enabled>TRUE</enabled>
					<masterclipid>msub200012-3011-k1d2-003 1</masterclipid>
					<syncoffset>0</syncoffset>
					<logginginfo>
						<description>msub200012-3011-k1d2-003</description>
						<scene/>
						<shottake/>
						<lognote/>
						<good>FALSE</good>
					</logginginfo>
					<labels>
						<label>Best Take</label>
						<label2/>
					</labels>
					<comments>
						<mastercomment1>RÃ…STOFF. BR_FINFREDAG_MSUA_OPRO</mastercomment1>
						<mastercomment2/>
						<mastercomment3/>
						<mastercomment4/>
						<clipcommenta/>
					</comments>
					<file id="msub200012-3011-k1d2-003 2"/>
					<filter>
						<enabled>TRUE</enabled>
						<start>-1</start>
						<end>-1</end>
						<effect>
							<name>3 Band Equalizer - Kristine</name>
							<effecttype>filter</effecttype>
							<mediatype>audio</mediatype>
							<parameter>
								<parameterid>Low Frequency</parameterid>
								<name>Low Frequency</name>
								<valuemin>80</valuemin>
								<valuemax>2000</valuemax>
								<value>80</value>
							</parameter>
							<parameter>
								<parameterid>Low Gain(dB)</parameterid>
								<name>Low Gain(dB)</name>
								<valuemin>-20</valuemin>
								<valuemax>20</valuemax>
								<value>-4</value>
							</parameter>
							<parameter>
								<parameterid>Mid Frequency</parameterid>
								<name>Mid Frequency</name>
								<valuemin>400</valuemin>
								<valuemax>8000</valuemax>
								<value>3602</value>
							</parameter>
							<parameter>
								<parameterid>Mid Gain(dB)</parameterid>
								<name>Mid Gain(dB)</name>
								<valuemin>-20</valuemin>
								<valuemax>20</valuemax>
								<value>3</value>
							</parameter>
							<parameter>
								<parameterid>High Frequency</parameterid>
								<name>High Frequency</name>
								<valuemin>5000</valuemin>
								<valuemax>20000</valuemax>
								<value>10354</value>
							</parameter>
							<parameter>
								<parameterid>High Gain(dB)</parameterid>
								<name>High Gain(dB)</name>
								<valuemin>-20</valuemin>
								<valuemax>20</valuemax>
								<value>0</value>
							</parameter>
						</effect>
					</filter>
					<filter>
						<enabled>TRUE</enabled>
						<start>-1</start>
						<end>-1</end>
						<effect>
							<name>Compressor/Limiter</name>
							<effecttype>filter</effecttype>
							<mediatype>audio</mediatype>
							<parameter>
								<parameterid>Threshold(dB)</parameterid>
								<name>Threshold(dB)</name>
								<valuemin>-90</valuemin>
								<valuemax>0</valuemax>
								<value>-20</value>
							</parameter>
							<parameter>
								<parameterid>Ratio</parameterid>
								<name>Ratio</name>
								<valuemin>1</valuemin>
								<valuemax>100</valuemax>
								<value>2</value>
							</parameter>
							<parameter>
								<parameterid>Attack Time</parameterid>
								<name>Attack Time</name>
								<valuemin>1</valuemin>
								<valuemax>100</valuemax>
								<value>5</value>
							</parameter>
							<parameter>
								<parameterid>Release Time</parameterid>
								<name>Release Time</name>
								<valuemin>1</valuemin>
								<valuemax>4000</valuemax>
								<value>209</value>
							</parameter>
							<parameter>
								<parameterid>Preserve Volume</parameterid>
								<name>Preserve Volume</name>
								<value>TRUE</value>
							</parameter>
						</effect>
					</filter>
					<filter>
						<effect>
							<name>Audio Levels</name>
							<effectid>audiolevels</effectid>
							<effectcategory>audiolevels</effectcategory>
							<effecttype>audiolevels</effecttype>
							<mediatype>audio</mediatype>
							<parameter>
								<name>Level</name>
								<parameterid>level</parameterid>
								<valuemin>0</valuemin>
								<valuemax>3.98109</valuemax>
								<keyframe>
									<when>4919.42</when>
									<value>1</value>
								</keyframe>
								<keyframe>
									<when>4929.71</when>
									<value>0.0891251</value>
								</keyframe>
								<keyframe>
									<when>4947.14</when>
									<value>0.112202</value>
								</keyframe>
								<keyframe>
									<when>4950.57</when>
									<value>1</value>
								</keyframe>
								<keyframe>
									<when>5406.57</when>
									<value>1</value>
								</keyframe>
								<keyframe>
									<when>5408.29</when>
									<value>0</value>
								</keyframe>
								<interpolation>
									<name>FCPCurve</name>
								</interpolation>
								<value>1</value>
							</parameter>
						</effect>
					</filter>
					<filter>
						<effect>
							<name>Audio Pan</name>
							<effectid>audiopan</effectid>
							<effectcategory>audiopan</effectcategory>
							<effecttype>audiopan</effecttype>
							<mediatype>audio</mediatype>
							<parameter>
								<name>Pan</name>
								<parameterid>pan</parameterid>
								<valuemin>-1</valuemin>
								<valuemax>1</valuemax>
								<value>0</value>
							</parameter>
						</effect>
					</filter>
					<sourcetrack>
						<mediatype>audio</mediatype>
						<trackindex>2</trackindex>
					</sourcetrack>
					<link>
						<linkclipref>msub200012-3011-k1d2-003 </linkclipref>
						<mediatype>video</mediatype>
						<trackindex>1</trackindex>
						<clipindex>54</clipindex>
					</link>
					<link>
						<linkclipref>msub200012-3011-k1d2-003 3</linkclipref>
						<mediatype>audio</mediatype>
						<trackindex>1</trackindex>
						<clipindex>51</clipindex>
					</link>
					<link>
						<linkclipref>msub200012-3011-k1d2-003 4</linkclipref>
						<mediatype>audio</mediatype>
						<trackindex>2</trackindex>
						<clipindex>58</clipindex>
					</link>
				</clipitem>
				<clipitem id="msub200012-3011-k1d2-004 7">
					<name>msub200012-3011-k1d2-004</name>
					<duration>6412</duration>
					<rate>
						<ntsc>FALSE</ntsc>
						<timebase>25</timebase>
					</rate>
					<in>4954</in>
					<out>5036</out>
					<start>17494</start>
					<end>-1</end>
					<subframeoffset>0</subframeoffset>
					<masterclipid>msub200012-3011-k1d2-004 1</masterclipid>
					<logginginfo>
						<description>msub200012-3011-k1d2-004</description>
						<scene/>
						<shottake/>
						<lognote/>
						<good>FALSE</good>
					</logginginfo>
					<labels>
						<label2/>
					</labels>
					<comments>
						<mastercomment1>RÃ…STOFF. BR_FINFREDAG_MSUA_OPRO</mastercomment1>
						<mastercomment2/>
						<mastercomment3/>
						<mastercomment4/>
						<clipcommenta/>
					</comments>
					<file id="msub200012-3011-k1d2-004 2"/>
					<filter>
						<enabled>TRUE</enabled>
						<start>-1</start>
						<end>-1</end>
						<effect>
							<name>3 Band Equalizer - Kristine</name>
							<effecttype>filter</effecttype>
							<mediatype>audio</mediatype>
							<parameter>
								<parameterid>Low Frequency</parameterid>
								<name>Low Frequency</name>
								<valuemin>80</valuemin>
								<valuemax>2000</valuemax>
								<value>80</value>
							</parameter>
							<parameter>
								<parameterid>Low Gain(dB)</parameterid>
								<name>Low Gain(dB)</name>
								<valuemin>-20</valuemin>
								<valuemax>20</valuemax>
								<value>-4</value>
							</parameter>
							<parameter>
								<parameterid>Mid Frequency</parameterid>
								<name>Mid Frequency</name>
								<valuemin>400</valuemin>
								<valuemax>8000</valuemax>
								<value>3602</value>
							</parameter>
							<parameter>
								<parameterid>Mid Gain(dB)</parameterid>
								<name>Mid Gain(dB)</name>
								<valuemin>-20</valuemin>
								<valuemax>20</valuemax>
								<value>3</value>
							</parameter>
							<parameter>
								<parameterid>High Frequency</parameterid>
								<name>High Frequency</name>
								<valuemin>5000</valuemin>
								<valuemax>20000</valuemax>
								<value>10354</value>
							</parameter>
							<parameter>
								<parameterid>High Gain(dB)</parameterid>
								<name>High Gain(dB)</name>
								<valuemin>-20</valuemin>
								<valuemax>20</valuemax>
								<value>0</value>
							</parameter>
						</effect>
					</filter>
					<filter>
						<enabled>TRUE</enabled>
						<start>-1</start>
						<end>-1</end>
						<effect>
							<name>Compressor/Limiter</name>
							<effecttype>filter</effecttype>
							<mediatype>audio</mediatype>
							<parameter>
								<parameterid>Threshold(dB)</parameterid>
								<name>Threshold(dB)</name>
								<valuemin>-90</valuemin>
								<valuemax>0</valuemax>
								<value>-20</value>
							</parameter>
							<parameter>
								<parameterid>Ratio</parameterid>
								<name>Ratio</name>
								<valuemin>1</valuemin>
								<valuemax>100</valuemax>
								<value>2</value>
							</parameter>
							<parameter>
								<parameterid>Attack Time</parameterid>
								<name>Attack Time</name>
								<valuemin>1</valuemin>
								<valuemax>100</valuemax>
								<value>5</value>
							</parameter>
							<parameter>
								<parameterid>Release Time</parameterid>
								<name>Release Time</name>
								<valuemin>1</valuemin>
								<valuemax>4000</valuemax>
								<value>209</value>
							</parameter>
							<parameter>
								<parameterid>Preserve Volume</parameterid>
								<name>Preserve Volume</name>
								<value>TRUE</value>
							</parameter>
						</effect>
					</filter>
					<filter>
						<effect>
							<name>Audio Levels</name>
							<effectid>audiolevels</effectid>
							<effectcategory>audiolevels</effectcategory>
							<effecttype>audiolevels</effecttype>
							<mediatype>audio</mediatype>
							<parameter>
								<name>Level</name>
								<parameterid>level</parameterid>
								<valuemin>0</valuemin>
								<valuemax>3.98109</valuemax>
								<value>0.112202</value>
							</parameter>
						</effect>
					</filter>
					<filter>
						<effect>
							<name>Audio Pan</name>
							<effectid>audiopan</effectid>
							<effectcategory>audiopan</effectcategory>
							<effecttype>audiopan</effecttype>
							<mediatype>audio</mediatype>
							<parameter>
								<name>Pan</name>
								<parameterid>pan</parameterid>
								<valuemin>-1</valuemin>
								<valuemax>1</valuemax>
								<value>0</value>
							</parameter>
						</effect>
					</filter>
					<sourcetrack>
						<mediatype>audio</mediatype>
						<trackindex>2</trackindex>
					</sourcetrack>
					<link>
						<linkclipref>msub200012-3011-k1d2-004 5</linkclipref>
						<mediatype>video</mediatype>
						<trackindex>1</trackindex>
						<clipindex>58</clipindex>
					</link>
					<link>
						<linkclipref>msub200012-3011-k1d2-004 6</linkclipref>
						<mediatype>audio</mediatype>
						<trackindex>1</trackindex>
						<clipindex>53</clipindex>
					</link>
					<link>
						<linkclipref>msub200012-3011-k1d2-004 7</linkclipref>
						<mediatype>audio</mediatype>
						<trackindex>2</trackindex>
						<clipindex>59</clipindex>
					</link>
				</clipitem>
				<transitionitem id="39431436 ">
					<rate>
						<ntsc>FALSE</ntsc>
						<timebase>25</timebase>
					</rate>
					<start>17570</start>
					<end>17576</end>
					<alignment>center</alignment>
					<effect>
						<name>Cross Fade (+3dB) Copy</name>
						<effecttype>transition</effecttype>
						<mediatype>audio</mediatype>
					</effect>
				</transitionitem>
				<clipitem id="msub200012-3011-k1d2-003 8">
					<name>msub200012-3011-k1d2-003</name>
					<duration>16188</duration>
					<rate>
						<ntsc>FALSE</ntsc>
						<timebase>25</timebase>
					</rate>
					<in>14547</in>
					<out>15155</out>
					<start>-1</start>
					<end>-1</end>
					<subframeoffset>0</subframeoffset>
					<masterclipid>msub200012-3011-k1d2-003 1</masterclipid>
					<syncoffset>0</syncoffset>
					<logginginfo>
						<description>msub200012-3011-k1d2-003</description>
						<scene/>
						<shottake/>
						<lognote/>
						<good>FALSE</good>
					</logginginfo>
					<labels>
						<label>Best Take</label>
						<label2/>
					</labels>
					<comments>
						<mastercomment1>RÃ…STOFF. BR_FINFREDAG_MSUA_OPRO</mastercomment1>
						<mastercomment2/>
						<mastercomment3/>
						<mastercomment4/>
						<clipcommenta/>
					</comments>
					<file id="msub200012-3011-k1d2-003 2"/>
					<filter>
						<enabled>TRUE</enabled>
						<start>-1</start>
						<end>-1</end>
						<effect>
							<name>3 Band Equalizer - Kristine</name>
							<effecttype>filter</effecttype>
							<mediatype>audio</mediatype>
							<parameter>
								<parameterid>Low Frequency</parameterid>
								<name>Low Frequency</name>
								<valuemin>80</valuemin>
								<valuemax>2000</valuemax>
								<value>80</value>
							</parameter>
							<parameter>
								<parameterid>Low Gain(dB)</parameterid>
								<name>Low Gain(dB)</name>
								<valuemin>-20</valuemin>
								<valuemax>20</valuemax>
								<value>-4</value>
							</parameter>
							<parameter>
								<parameterid>Mid Frequency</parameterid>
								<name>Mid Frequency</name>
								<valuemin>400</valuemin>
								<valuemax>8000</valuemax>
								<value>3602</value>
							</parameter>
							<parameter>
								<parameterid>Mid Gain(dB)</parameterid>
								<name>Mid Gain(dB)</name>
								<valuemin>-20</valuemin>
								<valuemax>20</valuemax>
								<value>3</value>
							</parameter>
							<parameter>
								<parameterid>High Frequency</parameterid>
								<name>High Frequency</name>
								<valuemin>5000</valuemin>
								<valuemax>20000</valuemax>
								<value>10354</value>
							</parameter>
							<parameter>
								<parameterid>High Gain(dB)</parameterid>
								<name>High Gain(dB)</name>
								<valuemin>-20</valuemin>
								<valuemax>20</valuemax>
								<value>0</value>
							</parameter>
						</effect>
					</filter>
					<filter>
						<enabled>TRUE</enabled>
						<start>-1</start>
						<end>-1</end>
						<effect>
							<name>Compressor/Limiter</name>
							<effecttype>filter</effecttype>
							<mediatype>audio</mediatype>
							<parameter>
								<parameterid>Threshold(dB)</parameterid>
								<name>Threshold(dB)</name>
								<valuemin>-90</valuemin>
								<valuemax>0</valuemax>
								<value>-20</value>
							</parameter>
							<parameter>
								<parameterid>Ratio</parameterid>
								<name>Ratio</name>
								<valuemin>1</valuemin>
								<valuemax>100</valuemax>
								<value>2</value>
							</parameter>
							<parameter>
								<parameterid>Attack Time</parameterid>
								<name>Attack Time</name>
								<valuemin>1</valuemin>
								<valuemax>100</valuemax>
								<value>5</value>
							</parameter>
							<parameter>
								<parameterid>Release Time</parameterid>
								<name>Release Time</name>
								<valuemin>1</valuemin>
								<valuemax>4000</valuemax>
								<value>209</value>
							</parameter>
							<parameter>
								<parameterid>Preserve Volume</parameterid>
								<name>Preserve Volume</name>
								<value>TRUE</value>
							</parameter>
						</effect>
					</filter>
					<filter>
						<effect>
							<name>Audio Levels</name>
							<effectid>audiolevels</effectid>
							<effectcategory>audiolevels</effectcategory>
							<effecttype>audiolevels</effecttype>
							<mediatype>audio</mediatype>
							<parameter>
								<name>Level</name>
								<parameterid>level</parameterid>
								<valuemin>0</valuemin>
								<valuemax>3.98109</valuemax>
								<keyframe>
									<when>14852.3</when>
									<value>1.41254</value>
								</keyframe>
								<keyframe>
									<when>14855.7</when>
									<value>1.77828</value>
								</keyframe>
								<keyframe>
									<when>14937.4</when>
									<value>1.77828</value>
								</keyframe>
								<keyframe>
									<when>14955.7</when>
									<value>0.199526</value>
								</keyframe>
								<keyframe>
									<when>14991.6</when>
									<value>0.199526</value>
								</keyframe>
								<keyframe>
									<when>14995.1</when>
									<value>1.12202</value>
								</keyframe>
								<keyframe>
									<when>15003.7</when>
									<value>1.12202</value>
								</keyframe>
								<keyframe>
									<when>15005.7</when>
									<value>0.199526</value>
								</keyframe>
								<keyframe>
									<when>15057.6</when>
									<value>0.199526</value>
								</keyframe>
								<keyframe>
									<when>15059.6</when>
									<value>1.74493</value>
								</keyframe>
								<keyframe>
									<when>15073.2</when>
									<value>2.23872</value>
								</keyframe>
								<keyframe>
									<when>15074.1</when>
									<value>0.199526</value>
								</keyframe>
								<keyframe>
									<when>15098.6</when>
									<value>0.199526</value>
								</keyframe>
								<keyframe>
									<when>15100.6</when>
									<value>1.25893</value>
								</keyframe>
								<keyframe>
									<when>15119</when>
									<value>1.41254</value>
								</keyframe>
								<keyframe>
									<when>15134.4</when>
									<value>2.23872</value>
								</keyframe>
								<keyframe>
									<when>15135.4</when>
									<value>0.398107</value>
								</keyframe>
								<interpolation>
									<name>FCPCurve</name>
								</interpolation>
								<value>1.41254</value>
							</parameter>
						</effect>
					</filter>
					<filter>
						<effect>
							<name>Audio Pan</name>
							<effectid>audiopan</effectid>
							<effectcategory>audiopan</effectcategory>
							<effecttype>audiopan</effecttype>
							<mediatype>audio</mediatype>
							<parameter>
								<name>Pan</name>
								<parameterid>pan</parameterid>
								<valuemin>-1</valuemin>
								<valuemax>1</valuemax>
								<value>0</value>
							</parameter>
						</effect>
					</filter>
					<sourcetrack>
						<mediatype>audio</mediatype>
						<trackindex>2</trackindex>
					</sourcetrack>
					<link>
						<linkclipref>msub200012-3011-k1d2-003 7</linkclipref>
						<mediatype>audio</mediatype>
						<trackindex>1</trackindex>
						<clipindex>55</clipindex>
					</link>
					<link>
						<linkclipref>msub200012-3011-k1d2-003 8</linkclipref>
						<mediatype>audio</mediatype>
						<trackindex>2</trackindex>
						<clipindex>61</clipindex>
					</link>
				</clipitem>
				<transitionitem id="1048771148 ">
					<rate>
						<ntsc>FALSE</ntsc>
						<timebase>25</timebase>
					</rate>
					<start>18172</start>
					<end>18178</end>
					<alignment>center</alignment>
					<effect>
						<name>Cross Fade (+3dB) Copy</name>
						<effecttype>transition</effecttype>
						<mediatype>audio</mediatype>
					</effect>
				</transitionitem>
				<clipitem id="msub200012-3011-k1d2-004 10">
					<name>msub200012-3011-k1d2-004</name>
					<duration>6412</duration>
					<rate>
						<ntsc>FALSE</ntsc>
						<timebase>25</timebase>
					</rate>
					<in>5994</in>
					<out>6265</out>
					<start>-1</start>
					<end>-1</end>
					<subframeoffset>0</subframeoffset>
					<masterclipid>msub200012-3011-k1d2-004 1</masterclipid>
					<logginginfo>
						<description>msub200012-3011-k1d2-004</description>
						<scene/>
						<shottake/>
						<lognote/>
						<good>FALSE</good>
					</logginginfo>
					<labels>
						<label2/>
					</labels>
					<comments>
						<mastercomment1>RÃ…STOFF. BR_FINFREDAG_MSUA_OPRO</mastercomment1>
						<mastercomment2/>
						<mastercomment3/>
						<mastercomment4/>
						<clipcommenta/>
					</comments>
					<file id="msub200012-3011-k1d2-004 2"/>
					<filter>
						<enabled>TRUE</enabled>
						<start>-1</start>
						<end>-1</end>
						<effect>
							<name>3 Band Equalizer - Kristine</name>
							<effecttype>filter</effecttype>
							<mediatype>audio</mediatype>
							<parameter>
								<parameterid>Low Frequency</parameterid>
								<name>Low Frequency</name>
								<valuemin>80</valuemin>
								<valuemax>2000</valuemax>
								<value>80</value>
							</parameter>
							<parameter>
								<parameterid>Low Gain(dB)</parameterid>
								<name>Low Gain(dB)</name>
								<valuemin>-20</valuemin>
								<valuemax>20</valuemax>
								<value>-4</value>
							</parameter>
							<parameter>
								<parameterid>Mid Frequency</parameterid>
								<name>Mid Frequency</name>
								<valuemin>400</valuemin>
								<valuemax>8000</valuemax>
								<value>3602</value>
							</parameter>
							<parameter>
								<parameterid>Mid Gain(dB)</parameterid>
								<name>Mid Gain(dB)</name>
								<valuemin>-20</valuemin>
								<valuemax>20</valuemax>
								<value>3</value>
							</parameter>
							<parameter>
								<parameterid>High Frequency</parameterid>
								<name>High Frequency</name>
								<valuemin>5000</valuemin>
								<valuemax>20000</valuemax>
								<value>10354</value>
							</parameter>
							<parameter>
								<parameterid>High Gain(dB)</parameterid>
								<name>High Gain(dB)</name>
								<valuemin>-20</valuemin>
								<valuemax>20</valuemax>
								<value>0</value>
							</parameter>
						</effect>
					</filter>
					<filter>
						<enabled>TRUE</enabled>
						<start>-1</start>
						<end>-1</end>
						<effect>
							<name>Compressor/Limiter</name>
							<effecttype>filter</effecttype>
							<mediatype>audio</mediatype>
							<parameter>
								<parameterid>Threshold(dB)</parameterid>
								<name>Threshold(dB)</name>
								<valuemin>-90</valuemin>
								<valuemax>0</valuemax>
								<value>-20</value>
							</parameter>
							<parameter>
								<parameterid>Ratio</parameterid>
								<name>Ratio</name>
								<valuemin>1</valuemin>
								<valuemax>100</valuemax>
								<value>2</value>
							</parameter>
							<parameter>
								<parameterid>Attack Time</parameterid>
								<name>Attack Time</name>
								<valuemin>1</valuemin>
								<valuemax>100</valuemax>
								<value>5</value>
							</parameter>
							<parameter>
								<parameterid>Release Time</parameterid>
								<name>Release Time</name>
								<valuemin>1</valuemin>
								<valuemax>4000</valuemax>
								<value>209</value>
							</parameter>
							<parameter>
								<parameterid>Preserve Volume</parameterid>
								<name>Preserve Volume</name>
								<value>TRUE</value>
							</parameter>
						</effect>
					</filter>
					<filter>
						<effect>
							<name>Audio Levels</name>
							<effectid>audiolevels</effectid>
							<effectcategory>audiolevels</effectcategory>
							<effecttype>audiolevels</effecttype>
							<mediatype>audio</mediatype>
							<parameter>
								<name>Level</name>
								<parameterid>level</parameterid>
								<valuemin>0</valuemin>
								<valuemax>3.98109</valuemax>
								<value>0.141254</value>
							</parameter>
						</effect>
					</filter>
					<filter>
						<effect>
							<name>Audio Pan</name>
							<effectid>audiopan</effectid>
							<effectcategory>audiopan</effectcategory>
							<effecttype>audiopan</effecttype>
							<mediatype>audio</mediatype>
							<parameter>
								<name>Pan</name>
								<parameterid>pan</parameterid>
								<valuemin>-1</valuemin>
								<valuemax>1</valuemax>
								<value>0</value>
							</parameter>
						</effect>
					</filter>
					<sourcetrack>
						<mediatype>audio</mediatype>
						<trackindex>2</trackindex>
					</sourcetrack>
					<link>
						<linkclipref>msub200012-3011-k1d2-004 8</linkclipref>
						<mediatype>video</mediatype>
						<trackindex>1</trackindex>
						<clipindex>62</clipindex>
					</link>
					<link>
						<linkclipref>msub200012-3011-k1d2-004 9</linkclipref>
						<mediatype>audio</mediatype>
						<trackindex>1</trackindex>
						<clipindex>57</clipindex>
					</link>
					<link>
						<linkclipref>msub200012-3011-k1d2-004 10</linkclipref>
						<mediatype>audio</mediatype>
						<trackindex>2</trackindex>
						<clipindex>63</clipindex>
					</link>
				</clipitem>
				<transitionitem id="1048774616 ">
					<rate>
						<ntsc>FALSE</ntsc>
						<timebase>25</timebase>
					</rate>
					<start>18437</start>
					<end>18443</end>
					<alignment>end-black</alignment>
					<effect>
						<name>Cross Fade (+3dB) Copy</name>
						<effecttype>transition</effecttype>
						<mediatype>audio</mediatype>
					</effect>
				</transitionitem>
				<clipitem id="msub200012-3011-k1d2-006 4">
					<name>msub200012-3011-k1d2-006</name>
					<duration>2909</duration>
					<rate>
						<ntsc>FALSE</ntsc>
						<timebase>25</timebase>
					</rate>
					<in>2038</in>
					<out>2199</out>
					<start>21533</start>
					<end>21694</end>
					<subframeoffset>0</subframeoffset>
					<enabled>TRUE</enabled>
					<masterclipid>msub200012-3011-k1d2-006 1</masterclipid>
					<syncoffset>0</syncoffset>
					<logginginfo>
						<description>msub200012-3011-k1d2-006</description>
						<scene/>
						<shottake/>
						<lognote/>
						<good>FALSE</good>
					</logginginfo>
					<labels>
						<label>Alternate Shots</label>
						<label2/>
					</labels>
					<comments>
						<mastercomment1>RÃ…STOFF. BR_FINFREDAG_MSUA_OPRO</mastercomment1>
						<mastercomment2/>
						<mastercomment3/>
						<mastercomment4/>
						<clipcommenta/>
					</comments>
					<file id="msub200012-3011-k1d2-006 2"/>
					<filter>
						<enabled>TRUE</enabled>
						<start>-1</start>
						<end>-1</end>
						<effect>
							<name>3 Band Equalizer - Kristine</name>
							<effecttype>filter</effecttype>
							<mediatype>audio</mediatype>
							<parameter>
								<parameterid>Low Frequency</parameterid>
								<name>Low Frequency</name>
								<valuemin>80</valuemin>
								<valuemax>2000</valuemax>
								<value>80</value>
							</parameter>
							<parameter>
								<parameterid>Low Gain(dB)</parameterid>
								<name>Low Gain(dB)</name>
								<valuemin>-20</valuemin>
								<valuemax>20</valuemax>
								<value>-4</value>
							</parameter>
							<parameter>
								<parameterid>Mid Frequency</parameterid>
								<name>Mid Frequency</name>
								<valuemin>400</valuemin>
								<valuemax>8000</valuemax>
								<value>3602</value>
							</parameter>
							<parameter>
								<parameterid>Mid Gain(dB)</parameterid>
								<name>Mid Gain(dB)</name>
								<valuemin>-20</valuemin>
								<valuemax>20</valuemax>
								<value>3</value>
							</parameter>
							<parameter>
								<parameterid>High Frequency</parameterid>
								<name>High Frequency</name>
								<valuemin>5000</valuemin>
								<valuemax>20000</valuemax>
								<value>10354</value>
							</parameter>
							<parameter>
								<parameterid>High Gain(dB)</parameterid>
								<name>High Gain(dB)</name>
								<valuemin>-20</valuemin>
								<valuemax>20</valuemax>
								<value>0</value>
							</parameter>
						</effect>
					</filter>
					<filter>
						<enabled>TRUE</enabled>
						<start>-1</start>
						<end>-1</end>
						<effect>
							<name>Compressor/Limiter</name>
							<effecttype>filter</effecttype>
							<mediatype>audio</mediatype>
							<parameter>
								<parameterid>Threshold(dB)</parameterid>
								<name>Threshold(dB)</name>
								<valuemin>-90</valuemin>
								<valuemax>0</valuemax>
								<value>-20</value>
							</parameter>
							<parameter>
								<parameterid>Ratio</parameterid>
								<name>Ratio</name>
								<valuemin>1</valuemin>
								<valuemax>100</valuemax>
								<value>2</value>
							</parameter>
							<parameter>
								<parameterid>Attack Time</parameterid>
								<name>Attack Time</name>
								<valuemin>1</valuemin>
								<valuemax>100</valuemax>
								<value>5</value>
							</parameter>
							<parameter>
								<parameterid>Release Time</parameterid>
								<name>Release Time</name>
								<valuemin>1</valuemin>
								<valuemax>4000</valuemax>
								<value>209</value>
							</parameter>
							<parameter>
								<parameterid>Preserve Volume</parameterid>
								<name>Preserve Volume</name>
								<value>TRUE</value>
							</parameter>
						</effect>
					</filter>
					<filter>
						<effect>
							<name>Audio Levels</name>
							<effectid>audiolevels</effectid>
							<effectcategory>audiolevels</effectcategory>
							<effecttype>audiolevels</effecttype>
							<mediatype>audio</mediatype>
							<parameter>
								<name>Level</name>
								<parameterid>level</parameterid>
								<valuemin>0</valuemin>
								<valuemax>3.98109</valuemax>
								<keyframe>
									<when>2352.86</when>
									<value>0.0630957</value>
								</keyframe>
								<keyframe>
									<when>2358.57</when>
									<value>1.25893</value>
								</keyframe>
								<keyframe>
									<when>2376.86</when>
									<value>1.25893</value>
								</keyframe>
								<keyframe>
									<when>2386</when>
									<value>0.112202</value>
								</keyframe>
								<keyframe>
									<when>2507.14</when>
									<value>0.112202</value>
								</keyframe>
								<keyframe>
									<when>2515.71</when>
									<value>1</value>
								</keyframe>
								<keyframe>
									<when>2524.86</when>
									<value>1</value>
								</keyframe>
								<keyframe>
									<when>2530.57</when>
									<value>0.0501187</value>
								</keyframe>
								<keyframe>
									<when>2559.14</when>
									<value>0.0630957</value>
								</keyframe>
								<keyframe>
									<when>2566.57</when>
									<value>1</value>
								</keyframe>
								<keyframe>
									<when>2604.86</when>
									<value>1.25893</value>
								</keyframe>
								<keyframe>
									<when>2608</when>
									<value>1.58489</value>
								</keyframe>
								<interpolation>
									<name>FCPCurve</name>
								</interpolation>
								<value>0.0630957</value>
							</parameter>
						</effect>
					</filter>
					<filter>
						<effect>
							<name>Audio Pan</name>
							<effectid>audiopan</effectid>
							<effectcategory>audiopan</effectcategory>
							<effecttype>audiopan</effecttype>
							<mediatype>audio</mediatype>
							<parameter>
								<name>Pan</name>
								<parameterid>pan</parameterid>
								<valuemin>-1</valuemin>
								<valuemax>1</valuemax>
								<value>0</value>
							</parameter>
						</effect>
					</filter>
					<sourcetrack>
						<mediatype>audio</mediatype>
						<trackindex>2</trackindex>
					</sourcetrack>
					<link>
						<linkclipref>msub200012-3011-k1d2-006 </linkclipref>
						<mediatype>video</mediatype>
						<trackindex>1</trackindex>
						<clipindex>63</clipindex>
					</link>
					<link>
						<linkclipref>msub200012-3011-k1d2-006 3</linkclipref>
						<mediatype>audio</mediatype>
						<trackindex>1</trackindex>
						<clipindex>59</clipindex>
					</link>
					<link>
						<linkclipref>msub200012-3011-k1d2-006 4</linkclipref>
						<mediatype>audio</mediatype>
						<trackindex>2</trackindex>
						<clipindex>65</clipindex>
					</link>
				</clipitem>
				<clipitem id="msub200012-3011-k1d2-007 4">
					<name>msub200012-3011-k1d2-007</name>
					<duration>5622</duration>
					<rate>
						<ntsc>FALSE</ntsc>
						<timebase>25</timebase>
					</rate>
					<in>251</in>
					<out>767</out>
					<start>22602</start>
					<end>-1</end>
					<subframeoffset>0</subframeoffset>
					<enabled>TRUE</enabled>
					<masterclipid>msub200012-3011-k1d2-007 1</masterclipid>
					<syncoffset>0</syncoffset>
					<logginginfo>
						<description>msub200012-3011-k1d2-007</description>
						<scene/>
						<shottake/>
						<lognote/>
						<good>FALSE</good>
					</logginginfo>
					<labels>
						<label>Interviews</label>
						<label2/>
					</labels>
					<comments>
						<mastercomment1>RÃ…STOFF. BR_FINFREDAG_MSUA_OPRO</mastercomment1>
						<mastercomment2/>
						<mastercomment3/>
						<mastercomment4/>
						<clipcommenta/>
					</comments>
					<file id="msub200012-3011-k1d2-007 2"/>
					<filter>
						<enabled>TRUE</enabled>
						<start>-1</start>
						<end>-1</end>
						<effect>
							<name>3 Band Equalizer - Kristine</name>
							<effecttype>filter</effecttype>
							<mediatype>audio</mediatype>
							<parameter>
								<parameterid>Low Frequency</parameterid>
								<name>Low Frequency</name>
								<valuemin>80</valuemin>
								<valuemax>2000</valuemax>
								<value>80</value>
							</parameter>
							<parameter>
								<parameterid>Low Gain(dB)</parameterid>
								<name>Low Gain(dB)</name>
								<valuemin>-20</valuemin>
								<valuemax>20</valuemax>
								<value>-4</value>
							</parameter>
							<parameter>
								<parameterid>Mid Frequency</parameterid>
								<name>Mid Frequency</name>
								<valuemin>400</valuemin>
								<valuemax>8000</valuemax>
								<value>3602</value>
							</parameter>
							<parameter>
								<parameterid>Mid Gain(dB)</parameterid>
								<name>Mid Gain(dB)</name>
								<valuemin>-20</valuemin>
								<valuemax>20</valuemax>
								<value>3</value>
							</parameter>
							<parameter>
								<parameterid>High Frequency</parameterid>
								<name>High Frequency</name>
								<valuemin>5000</valuemin>
								<valuemax>20000</valuemax>
								<value>10354</value>
							</parameter>
							<parameter>
								<parameterid>High Gain(dB)</parameterid>
								<name>High Gain(dB)</name>
								<valuemin>-20</valuemin>
								<valuemax>20</valuemax>
								<value>0</value>
							</parameter>
						</effect>
					</filter>
					<filter>
						<enabled>TRUE</enabled>
						<start>-1</start>
						<end>-1</end>
						<effect>
							<name>Compressor/Limiter</name>
							<effecttype>filter</effecttype>
							<mediatype>audio</mediatype>
							<parameter>
								<parameterid>Threshold(dB)</parameterid>
								<name>Threshold(dB)</name>
								<valuemin>-90</valuemin>
								<valuemax>0</valuemax>
								<value>-20</value>
							</parameter>
							<parameter>
								<parameterid>Ratio</parameterid>
								<name>Ratio</name>
								<valuemin>1</valuemin>
								<valuemax>100</valuemax>
								<value>2</value>
							</parameter>
							<parameter>
								<parameterid>Attack Time</parameterid>
								<name>Attack Time</name>
								<valuemin>1</valuemin>
								<valuemax>100</valuemax>
								<value>5</value>
							</parameter>
							<parameter>
								<parameterid>Release Time</parameterid>
								<name>Release Time</name>
								<valuemin>1</valuemin>
								<valuemax>4000</valuemax>
								<value>209</value>
							</parameter>
							<parameter>
								<parameterid>Preserve Volume</parameterid>
								<name>Preserve Volume</name>
								<value>TRUE</value>
							</parameter>
						</effect>
					</filter>
					<filter>
						<effect>
							<name>Audio Levels</name>
							<effectid>audiolevels</effectid>
							<effectcategory>audiolevels</effectcategory>
							<effecttype>audiolevels</effecttype>
							<mediatype>audio</mediatype>
							<parameter>
								<name>Level</name>
								<parameterid>level</parameterid>
								<valuemin>0</valuemin>
								<valuemax>3.98109</valuemax>
								<keyframe>
									<when>308.571</when>
									<value>0.0630957</value>
								</keyframe>
								<keyframe>
									<when>315.429</when>
									<value>1.99526</value>
								</keyframe>
								<keyframe>
									<when>327.429</when>
									<value>1.99526</value>
								</keyframe>
								<keyframe>
									<when>333.143</when>
									<value>0.0501187</value>
								</keyframe>
								<keyframe>
									<when>371.286</when>
									<value>0.0501187</value>
								</keyframe>
								<keyframe>
									<when>374.143</when>
									<value>1.25893</value>
								</keyframe>
								<keyframe>
									<when>378.571</when>
									<value>0.891251</value>
								</keyframe>
								<keyframe>
									<when>382.286</when>
									<value>0.0501187</value>
								</keyframe>
								<keyframe>
									<when>417.286</when>
									<value>0.0891251</value>
								</keyframe>
								<keyframe>
									<when>420.429</when>
									<value>1.41254</value>
								</keyframe>
								<keyframe>
									<when>428.857</when>
									<value>1.41254</value>
								</keyframe>
								<keyframe>
									<when>432</when>
									<value>0.0891251</value>
								</keyframe>
								<keyframe>
									<when>716.857</when>
									<value>0.0891251</value>
								</keyframe>
								<keyframe>
									<when>720.857</when>
									<value>1.25893</value>
								</keyframe>
								<keyframe>
									<when>741.143</when>
									<value>1.25893</value>
								</keyframe>
								<keyframe>
									<when>744.571</when>
									<value>0.112202</value>
								</keyframe>
								<interpolation>
									<name>FCPCurve</name>
								</interpolation>
								<value>0.112202</value>
							</parameter>
						</effect>
					</filter>
					<filter>
						<effect>
							<name>Audio Pan</name>
							<effectid>audiopan</effectid>
							<effectcategory>audiopan</effectcategory>
							<effecttype>audiopan</effecttype>
							<mediatype>audio</mediatype>
							<parameter>
								<name>Pan</name>
								<parameterid>pan</parameterid>
								<valuemin>-1</valuemin>
								<valuemax>1</valuemax>
								<value>0</value>
							</parameter>
						</effect>
					</filter>
					<sourcetrack>
						<mediatype>audio</mediatype>
						<trackindex>2</trackindex>
					</sourcetrack>
					<link>
						<linkclipref>msub200012-3011-k1d2-007 </linkclipref>
						<mediatype>video</mediatype>
						<trackindex>1</trackindex>
						<clipindex>64</clipindex>
					</link>
					<link>
						<linkclipref>msub200012-3011-k1d2-007 3</linkclipref>
						<mediatype>audio</mediatype>
						<trackindex>1</trackindex>
						<clipindex>62</clipindex>
					</link>
					<link>
						<linkclipref>msub200012-3011-k1d2-007 4</linkclipref>
						<mediatype>audio</mediatype>
						<trackindex>2</trackindex>
						<clipindex>66</clipindex>
					</link>
				</clipitem>
				<transitionitem id="1048782980 ">
					<rate>
						<ntsc>FALSE</ntsc>
						<timebase>25</timebase>
					</rate>
					<start>23112</start>
					<end>23118</end>
					<alignment>end-black</alignment>
					<effect>
						<name>Cross Fade (+3dB) Copy</name>
						<effecttype>transition</effecttype>
						<mediatype>audio</mediatype>
					</effect>
				</transitionitem>
				<clipitem id="msub200012-2308-k1d1-009 6">
					<name>msub200012-2308-k1d1-009</name>
					<duration>2094</duration>
					<rate>
						<ntsc>FALSE</ntsc>
						<timebase>25</timebase>
					</rate>
					<in>1363</in>
					<out>1418</out>
					<start>23168</start>
					<end>23223</end>
					<subframeoffset>0</subframeoffset>
					<enabled>TRUE</enabled>
					<masterclipid>msub200012-2308-k1d1-009 1</masterclipid>
					<logginginfo>
						<description>msub200012-2308-k1d1-009</description>
						<scene/>
						<shottake/>
						<lognote/>
						<good>FALSE</good>
					</logginginfo>
					<labels>
						<label2/>
					</labels>
					<comments>
						<mastercomment1>RÃ…STOFF. BR_FINFREDAG_MSUA_OPRO</mastercomment1>
						<mastercomment2/>
						<mastercomment3/>
						<mastercomment4/>
					</comments>
					<file id="msub200012-2308-k1d1-009 2"/>
					<filter>
						<enabled>TRUE</enabled>
						<start>-1</start>
						<end>-1</end>
						<effect>
							<name>3 Band Equalizer - Kristine</name>
							<effecttype>filter</effecttype>
							<mediatype>audio</mediatype>
							<parameter>
								<parameterid>Low Frequency</parameterid>
								<name>Low Frequency</name>
								<valuemin>80</valuemin>
								<valuemax>2000</valuemax>
								<value>80</value>
							</parameter>
							<parameter>
								<parameterid>Low Gain(dB)</parameterid>
								<name>Low Gain(dB)</name>
								<valuemin>-20</valuemin>
								<valuemax>20</valuemax>
								<value>-4</value>
							</parameter>
							<parameter>
								<parameterid>Mid Frequency</parameterid>
								<name>Mid Frequency</name>
								<valuemin>400</valuemin>
								<valuemax>8000</valuemax>
								<value>3602</value>
							</parameter>
							<parameter>
								<parameterid>Mid Gain(dB)</parameterid>
								<name>Mid Gain(dB)</name>
								<valuemin>-20</valuemin>
								<valuemax>20</valuemax>
								<value>3</value>
							</parameter>
							<parameter>
								<parameterid>High Frequency</parameterid>
								<name>High Frequency</name>
								<valuemin>5000</valuemin>
								<valuemax>20000</valuemax>
								<value>10354</value>
							</parameter>
							<parameter>
								<parameterid>High Gain(dB)</parameterid>
								<name>High Gain(dB)</name>
								<valuemin>-20</valuemin>
								<valuemax>20</valuemax>
								<value>0</value>
							</parameter>
						</effect>
					</filter>
					<filter>
						<effect>
							<name>Audio Levels</name>
							<effectid>audiolevels</effectid>
							<effectcategory>audiolevels</effectcategory>
							<effecttype>audiolevels</effecttype>
							<mediatype>audio</mediatype>
							<parameter>
								<name>Level</name>
								<parameterid>level</parameterid>
								<valuemin>0</valuemin>
								<valuemax>3.98109</valuemax>
								<keyframe>
									<when>924.116</when>
									<value>0.158489</value>
								</keyframe>
								<keyframe>
									<when>930.143</when>
									<value>0.219352</value>
								</keyframe>
								<keyframe>
									<when>983.571</when>
									<value>0.184738</value>
								</keyframe>
								<keyframe>
									<when>987</when>
									<value>1.99526</value>
								</keyframe>
								<keyframe>
									<when>1032</when>
									<value>1.99526</value>
								</keyframe>
								<keyframe>
									<when>1047.86</when>
									<value>0.794328</value>
								</keyframe>
								<keyframe>
									<when>1077</when>
									<value>0.707946</value>
								</keyframe>
								<keyframe>
									<when>1081.71</when>
									<value>2.23872</value>
								</keyframe>
								<keyframe>
									<when>1131</when>
									<value>2.23872</value>
								</keyframe>
								<keyframe>
									<when>1141.29</when>
									<value>0.446684</value>
								</keyframe>
								<keyframe>
									<when>1164.43</when>
									<value>0.446684</value>
								</keyframe>
								<keyframe>
									<when>1173</when>
									<value>1.99526</value>
								</keyframe>
								<keyframe>
									<when>1198.71</when>
									<value>1.99526</value>
								</keyframe>
								<keyframe>
									<when>1201.93</when>
									<value>1.25893</value>
								</keyframe>
								<keyframe>
									<when>1208.36</when>
									<value>1.25893</value>
								</keyframe>
								<keyframe>
									<when>1211.21</when>
									<value>1.99526</value>
								</keyframe>
								<keyframe>
									<when>1343.14</when>
									<value>1.99526</value>
								</keyframe>
								<keyframe>
									<when>1362.86</when>
									<value>0.398107</value>
								</keyframe>
								<interpolation>
									<name>FCPCurve</name>
								</interpolation>
								<value>1.99526</value>
							</parameter>
						</effect>
					</filter>
					<filter>
						<effect>
							<name>Audio Pan</name>
							<effectid>audiopan</effectid>
							<effectcategory>audiopan</effectcategory>
							<effecttype>audiopan</effecttype>
							<mediatype>audio</mediatype>
							<parameter>
								<name>Pan</name>
								<parameterid>pan</parameterid>
								<valuemin>-1</valuemin>
								<valuemax>1</valuemax>
								<value>-0</value>
							</parameter>
						</effect>
					</filter>
					<sourcetrack>
						<mediatype>audio</mediatype>
						<trackindex>2</trackindex>
					</sourcetrack>
				</clipitem>
				<clipitem id="msub200012-2108kid1-005 4">
					<name>msub200012-2108kid1-005</name>
					<duration>674</duration>
					<rate>
						<ntsc>FALSE</ntsc>
						<timebase>25</timebase>
					</rate>
					<in>391</in>
					<out>510</out>
					<start>23223</start>
					<end>23342</end>
					<subframeoffset>0</subframeoffset>
					<enabled>TRUE</enabled>
					<masterclipid>msub200012-2108kid1-005 1</masterclipid>
					<logginginfo>
						<description>msub200012-2108kid1-005</description>
						<scene/>
						<shottake/>
						<lognote/>
						<good>FALSE</good>
					</logginginfo>
					<labels>
						<label2/>
					</labels>
					<comments>
						<mastercomment1>RÃ…STOFF. BR_FINFREDAG_MSUA_OPRO</mastercomment1>
						<mastercomment2/>
						<mastercomment3/>
						<mastercomment4/>
					</comments>
					<file id="msub200012-2108kid1-005 2"/>
					<filter>
						<enabled>TRUE</enabled>
						<start>-1</start>
						<end>-1</end>
						<effect>
							<name>3 Band Equalizer</name>
							<effecttype>filter</effecttype>
							<mediatype>audio</mediatype>
							<parameter>
								<parameterid>Low Frequency</parameterid>
								<name>Low Frequency</name>
								<valuemin>80</valuemin>
								<valuemax>2000</valuemax>
								<value>100</value>
							</parameter>
							<parameter>
								<parameterid>Low Gain(dB)</parameterid>
								<name>Low Gain(dB)</name>
								<valuemin>-20</valuemin>
								<valuemax>20</valuemax>
								<value>-4</value>
							</parameter>
							<parameter>
								<parameterid>Mid Frequency</parameterid>
								<name>Mid Frequency</name>
								<valuemin>400</valuemin>
								<valuemax>8000</valuemax>
								<value>3602</value>
							</parameter>
							<parameter>
								<parameterid>Mid Gain(dB)</parameterid>
								<name>Mid Gain(dB)</name>
								<valuemin>-20</valuemin>
								<valuemax>20</valuemax>
								<value>3</value>
							</parameter>
							<parameter>
								<parameterid>High Frequency</parameterid>
								<name>High Frequency</name>
								<valuemin>5000</valuemin>
								<valuemax>20000</valuemax>
								<value>10354</value>
							</parameter>
							<parameter>
								<parameterid>High Gain(dB)</parameterid>
								<name>High Gain(dB)</name>
								<valuemin>-20</valuemin>
								<valuemax>20</valuemax>
								<value>0</value>
							</parameter>
						</effect>
					</filter>
					<filter>
						<effect>
							<name>Audio Levels</name>
							<effectid>audiolevels</effectid>
							<effectcategory>audiolevels</effectcategory>
							<effecttype>audiolevels</effecttype>
							<mediatype>audio</mediatype>
							<parameter>
								<name>Level</name>
								<parameterid>level</parameterid>
								<valuemin>0</valuemin>
								<valuemax>3.98109</valuemax>
								<keyframe>
									<when>320</when>
									<value>1</value>
								</keyframe>
								<keyframe>
									<when>330.571</when>
									<value>0.446684</value>
								</keyframe>
								<keyframe>
									<when>373.321</when>
									<value>0.398107</value>
								</keyframe>
								<keyframe>
									<when>381.679</when>
									<value>1.25893</value>
								</keyframe>
								<keyframe>
									<when>387.464</when>
									<value>1.25893</value>
								</keyframe>
								<keyframe>
									<when>391.429</when>
									<value>0.281838</value>
								</keyframe>
								<keyframe>
									<when>400.643</when>
									<value>0.207013</value>
								</keyframe>
								<keyframe>
									<when>455.714</when>
									<value>0.238721</value>
								</keyframe>
								<keyframe>
									<when>461.393</when>
									<value>1.12202</value>
								</keyframe>
								<keyframe>
									<when>468.143</when>
									<value>1.12202</value>
								</keyframe>
								<keyframe>
									<when>473.929</when>
									<value>0.398107</value>
								</keyframe>
								<keyframe>
									<when>491.607</when>
									<value>0.398107</value>
								</keyframe>
								<keyframe>
									<when>496.107</when>
									<value>1</value>
								</keyframe>
								<keyframe>
									<when>505.429</when>
									<value>0.707946</value>
								</keyframe>
								<keyframe>
									<when>509.929</when>
									<value>0.707946</value>
								</keyframe>
								<keyframe>
									<when>512.179</when>
									<value>1.12202</value>
								</keyframe>
								<interpolation>
									<name>FCPCurve</name>
								</interpolation>
								<value>0.707946</value>
							</parameter>
						</effect>
					</filter>
					<filter>
						<effect>
							<name>Audio Pan</name>
							<effectid>audiopan</effectid>
							<effectcategory>audiopan</effectcategory>
							<effecttype>audiopan</effecttype>
							<mediatype>audio</mediatype>
							<parameter>
								<name>Pan</name>
								<parameterid>pan</parameterid>
								<valuemin>-1</valuemin>
								<valuemax>1</valuemax>
								<value>0</value>
							</parameter>
						</effect>
					</filter>
					<sourcetrack>
						<mediatype>audio</mediatype>
						<trackindex>2</trackindex>
					</sourcetrack>
				</clipitem>
				<clipitem id="msub200012-2108kid1-026 6">
					<name>msub200012-2108kid1-026</name>
					<duration>2145</duration>
					<rate>
						<ntsc>FALSE</ntsc>
						<timebase>25</timebase>
					</rate>
					<in>359</in>
					<out>423</out>
					<start>23369</start>
					<end>23433</end>
					<subframeoffset>0</subframeoffset>
					<enabled>TRUE</enabled>
					<masterclipid>msub200012-2108kid1-026 1</masterclipid>
					<logginginfo>
						<description>msub200012-2108kid1-026</description>
						<scene/>
						<shottake/>
						<lognote/>
						<good>FALSE</good>
					</logginginfo>
					<labels>
						<label2/>
					</labels>
					<comments>
						<mastercomment1>RÃ…STOFF. BR_FINFREDAG_MSUA_OPRO</mastercomment1>
						<mastercomment2/>
						<mastercomment3/>
						<mastercomment4/>
					</comments>
					<file id="msub200012-2108kid1-026 2"/>
					<filter>
						<enabled>TRUE</enabled>
						<start>-1</start>
						<end>-1</end>
						<effect>
							<name>3 Band Equalizer</name>
							<effecttype>filter</effecttype>
							<mediatype>audio</mediatype>
							<parameter>
								<parameterid>Low Frequency</parameterid>
								<name>Low Frequency</name>
								<valuemin>80</valuemin>
								<valuemax>2000</valuemax>
								<value>100</value>
							</parameter>
							<parameter>
								<parameterid>Low Gain(dB)</parameterid>
								<name>Low Gain(dB)</name>
								<valuemin>-20</valuemin>
								<valuemax>20</valuemax>
								<value>-4</value>
							</parameter>
							<parameter>
								<parameterid>Mid Frequency</parameterid>
								<name>Mid Frequency</name>
								<valuemin>400</valuemin>
								<valuemax>8000</valuemax>
								<value>3602</value>
							</parameter>
							<parameter>
								<parameterid>Mid Gain(dB)</parameterid>
								<name>Mid Gain(dB)</name>
								<valuemin>-20</valuemin>
								<valuemax>20</valuemax>
								<value>3</value>
							</parameter>
							<parameter>
								<parameterid>High Frequency</parameterid>
								<name>High Frequency</name>
								<valuemin>5000</valuemin>
								<valuemax>20000</valuemax>
								<value>10354</value>
							</parameter>
							<parameter>
								<parameterid>High Gain(dB)</parameterid>
								<name>High Gain(dB)</name>
								<valuemin>-20</valuemin>
								<valuemax>20</valuemax>
								<value>0</value>
							</parameter>
						</effect>
					</filter>
					<filter>
						<effect>
							<name>Audio Levels</name>
							<effectid>audiolevels</effectid>
							<effectcategory>audiolevels</effectcategory>
							<effecttype>audiolevels</effecttype>
							<mediatype>audio</mediatype>
							<parameter>
								<name>Level</name>
								<parameterid>level</parameterid>
								<valuemin>0</valuemin>
								<valuemax>3.98109</valuemax>
								<keyframe>
									<when>261.786</when>
									<value>0.354813</value>
								</keyframe>
								<keyframe>
									<when>268.857</when>
									<value>1</value>
								</keyframe>
								<keyframe>
									<when>281.393</when>
									<value>1</value>
								</keyframe>
								<keyframe>
									<when>287.857</when>
									<value>0.354813</value>
								</keyframe>
								<keyframe>
									<when>311.286</when>
									<value>0.354813</value>
								</keyframe>
								<keyframe>
									<when>314.143</when>
									<value>1.41254</value>
								</keyframe>
								<keyframe>
									<when>332.714</when>
									<value>1.41254</value>
								</keyframe>
								<keyframe>
									<when>337.286</when>
									<value>0.0891251</value>
								</keyframe>
								<keyframe>
									<when>383</when>
									<value>0.0891251</value>
								</keyframe>
								<keyframe>
									<when>389.571</when>
									<value>1</value>
								</keyframe>
								<keyframe>
									<when>403</when>
									<value>1</value>
								</keyframe>
								<keyframe>
									<when>405</when>
									<value>0.707946</value>
								</keyframe>
								<keyframe>
									<when>420.714</when>
									<value>0.707946</value>
								</keyframe>
								<keyframe>
									<when>424.143</when>
									<value>1.25893</value>
								</keyframe>
								<keyframe>
									<when>437.571</when>
									<value>1.25893</value>
								</keyframe>
								<keyframe>
									<when>443</when>
									<value>0.707946</value>
								</keyframe>
								<interpolation>
									<name>FCPCurve</name>
								</interpolation>
								<value>1.41254</value>
							</parameter>
						</effect>
					</filter>
					<filter>
						<effect>
							<name>Audio Pan</name>
							<effectid>audiopan</effectid>
							<effectcategory>audiopan</effectcategory>
							<effecttype>audiopan</effecttype>
							<mediatype>audio</mediatype>
							<parameter>
								<name>Pan</name>
								<parameterid>pan</parameterid>
								<valuemin>-1</valuemin>
								<valuemax>1</valuemax>
								<value>0</value>
							</parameter>
						</effect>
					</filter>
					<sourcetrack>
						<mediatype>audio</mediatype>
						<trackindex>2</trackindex>
					</sourcetrack>
				</clipitem>
				<clipitem id="msub200012-2308-k1d1-005 3">
					<name>msub200012-2308-k1d1-005</name>
					<duration>6527</duration>
					<rate>
						<ntsc>FALSE</ntsc>
						<timebase>25</timebase>
					</rate>
					<in>1951</in>
					<out>2120</out>
					<start>23567</start>
					<end>-1</end>
					<subframeoffset>0</subframeoffset>
					<enabled>TRUE</enabled>
					<masterclipid>msub200012-2308-k1d1-005 1</masterclipid>
					<logginginfo>
						<description>msub200012-2308-k1d1-005</description>
						<scene/>
						<shottake/>
						<lognote/>
						<good>FALSE</good>
					</logginginfo>
					<labels>
						<label2/>
					</labels>
					<comments>
						<mastercomment1>RÃ…STOFF. BR_FINFREDAG_MSUA_OPRO</mastercomment1>
						<mastercomment2/>
						<mastercomment3/>
						<mastercomment4/>
					</comments>
					<file id="msub200012-2308-k1d1-005 2"/>
					<filter>
						<enabled>TRUE</enabled>
						<start>-1</start>
						<end>-1</end>
						<effect>
							<name>3 Band Equalizer - Kristine</name>
							<effecttype>filter</effecttype>
							<mediatype>audio</mediatype>
							<parameter>
								<parameterid>Low Frequency</parameterid>
								<name>Low Frequency</name>
								<valuemin>80</valuemin>
								<valuemax>2000</valuemax>
								<value>80</value>
							</parameter>
							<parameter>
								<parameterid>Low Gain(dB)</parameterid>
								<name>Low Gain(dB)</name>
								<valuemin>-20</valuemin>
								<valuemax>20</valuemax>
								<value>-4</value>
							</parameter>
							<parameter>
								<parameterid>Mid Frequency</parameterid>
								<name>Mid Frequency</name>
								<valuemin>400</valuemin>
								<valuemax>8000</valuemax>
								<value>3602</value>
							</parameter>
							<parameter>
								<parameterid>Mid Gain(dB)</parameterid>
								<name>Mid Gain(dB)</name>
								<valuemin>-20</valuemin>
								<valuemax>20</valuemax>
								<value>3</value>
							</parameter>
							<parameter>
								<parameterid>High Frequency</parameterid>
								<name>High Frequency</name>
								<valuemin>5000</valuemin>
								<valuemax>20000</valuemax>
								<value>10354</value>
							</parameter>
							<parameter>
								<parameterid>High Gain(dB)</parameterid>
								<name>High Gain(dB)</name>
								<valuemin>-20</valuemin>
								<valuemax>20</valuemax>
								<value>0</value>
							</parameter>
						</effect>
					</filter>
					<filter>
						<effect>
							<name>Audio Levels</name>
							<effectid>audiolevels</effectid>
							<effectcategory>audiolevels</effectcategory>
							<effecttype>audiolevels</effecttype>
							<mediatype>audio</mediatype>
							<parameter>
								<name>Level</name>
								<parameterid>level</parameterid>
								<valuemin>0</valuemin>
								<valuemax>3.98109</valuemax>
								<keyframe>
									<when>2035.25</when>
									<value>1.41254</value>
								</keyframe>
								<keyframe>
									<when>2044.88</when>
									<value>1.77828</value>
								</keyframe>
								<keyframe>
									<when>2081.62</when>
									<value>1.77828</value>
								</keyframe>
								<keyframe>
									<when>2111</when>
									<value>1.99526</value>
								</keyframe>
								<interpolation>
									<name>FCPCurve</name>
								</interpolation>
								<value>1.99526</value>
							</parameter>
						</effect>
					</filter>
					<filter>
						<effect>
							<name>Audio Pan</name>
							<effectid>audiopan</effectid>
							<effectcategory>audiopan</effectcategory>
							<effecttype>audiopan</effecttype>
							<mediatype>audio</mediatype>
							<parameter>
								<name>Pan</name>
								<parameterid>pan</parameterid>
								<valuemin>-1</valuemin>
								<valuemax>1</valuemax>
								<value>0</value>
							</parameter>
						</effect>
					</filter>
					<sourcetrack>
						<mediatype>audio</mediatype>
						<trackindex>2</trackindex>
					</sourcetrack>
					<link>
						<linkclipref>msub200012-2308-k1d1-005 </linkclipref>
						<mediatype>video</mediatype>
						<trackindex>1</trackindex>
						<clipindex>74</clipindex>
					</link>
					<link>
						<linkclipref>msub200012-2308-k1d1-005 3</linkclipref>
						<mediatype>audio</mediatype>
						<trackindex>2</trackindex>
						<clipindex>71</clipindex>
					</link>
				</clipitem>
				<transitionitem id="1048794200 ">
					<rate>
						<ntsc>FALSE</ntsc>
						<timebase>25</timebase>
					</rate>
					<start>23730</start>
					<end>23736</end>
					<alignment>center</alignment>
					<effect>
						<name>Cross Fade (+3dB) Copy</name>
						<effecttype>transition</effecttype>
						<mediatype>audio</mediatype>
					</effect>
				</transitionitem>
				<clipitem id="msub200012-2308-k1d1-005 6">
					<name>msub200012-2308-k1d1-005</name>
					<duration>6527</duration>
					<rate>
						<ntsc>FALSE</ntsc>
						<timebase>25</timebase>
					</rate>
					<in>2835</in>
					<out>2881</out>
					<start>-1</start>
					<end>23776</end>
					<subframeoffset>0</subframeoffset>
					<enabled>TRUE</enabled>
					<masterclipid>msub200012-2308-k1d1-005 1</masterclipid>
					<logginginfo>
						<description>msub200012-2308-k1d1-005</description>
						<scene/>
						<shottake/>
						<lognote/>
						<good>FALSE</good>
					</logginginfo>
					<labels>
						<label2/>
					</labels>
					<comments>
						<mastercomment1>RÃ…STOFF. BR_FINFREDAG_MSUA_OPRO</mastercomment1>
						<mastercomment2/>
						<mastercomment3/>
						<mastercomment4/>
					</comments>
					<file id="msub200012-2308-k1d1-005 2"/>
					<filter>
						<enabled>TRUE</enabled>
						<start>-1</start>
						<end>-1</end>
						<effect>
							<name>3 Band Equalizer - Kristine</name>
							<effecttype>filter</effecttype>
							<mediatype>audio</mediatype>
							<parameter>
								<parameterid>Low Frequency</parameterid>
								<name>Low Frequency</name>
								<valuemin>80</valuemin>
								<valuemax>2000</valuemax>
								<value>80</value>
							</parameter>
							<parameter>
								<parameterid>Low Gain(dB)</parameterid>
								<name>Low Gain(dB)</name>
								<valuemin>-20</valuemin>
								<valuemax>20</valuemax>
								<value>-4</value>
							</parameter>
							<parameter>
								<parameterid>Mid Frequency</parameterid>
								<name>Mid Frequency</name>
								<valuemin>400</valuemin>
								<valuemax>8000</valuemax>
								<value>3602</value>
							</parameter>
							<parameter>
								<parameterid>Mid Gain(dB)</parameterid>
								<name>Mid Gain(dB)</name>
								<valuemin>-20</valuemin>
								<valuemax>20</valuemax>
								<value>3</value>
							</parameter>
							<parameter>
								<parameterid>High Frequency</parameterid>
								<name>High Frequency</name>
								<valuemin>5000</valuemin>
								<valuemax>20000</valuemax>
								<value>10354</value>
							</parameter>
							<parameter>
								<parameterid>High Gain(dB)</parameterid>
								<name>High Gain(dB)</name>
								<valuemin>-20</valuemin>
								<valuemax>20</valuemax>
								<value>0</value>
							</parameter>
						</effect>
					</filter>
					<filter>
						<effect>
							<name>Audio Levels</name>
							<effectid>audiolevels</effectid>
							<effectcategory>audiolevels</effectcategory>
							<effecttype>audiolevels</effecttype>
							<mediatype>audio</mediatype>
							<parameter>
								<name>Level</name>
								<parameterid>level</parameterid>
								<valuemin>0</valuemin>
								<valuemax>3.98109</valuemax>
								<keyframe>
									<when>2826.29</when>
									<value>0.70795</value>
								</keyframe>
								<keyframe>
									<when>2832.29</when>
									<value>0.141255</value>
								</keyframe>
								<keyframe>
									<when>2945.43</when>
									<value>0.141255</value>
								</keyframe>
								<keyframe>
									<when>2950.14</when>
									<value>0.891251</value>
								</keyframe>
								<keyframe>
									<when>3016.57</when>
									<value>0.891251</value>
								</keyframe>
								<keyframe>
									<when>3022.57</when>
									<value>0.794333</value>
								</keyframe>
								<keyframe>
									<when>3035.43</when>
									<value>0.794333</value>
								</keyframe>
								<keyframe>
									<when>3042.29</when>
									<value>1.00001</value>
								</keyframe>
								<keyframe>
									<when>3050.86</when>
									<value>1.00001</value>
								</keyframe>
								<keyframe>
									<when>3060.29</when>
									<value>1.12203</value>
								</keyframe>
								<keyframe>
									<when>3094.57</when>
									<value>1.25893</value>
								</keyframe>
								<keyframe>
									<when>3099.29</when>
									<value>1.5849</value>
								</keyframe>
								<keyframe>
									<when>3152</when>
									<value>1.41255</value>
								</keyframe>
								<keyframe>
									<when>3159.71</when>
									<value>0.70795</value>
								</keyframe>
								<interpolation>
									<name>FCPCurve</name>
								</interpolation>
								<value>1</value>
							</parameter>
						</effect>
					</filter>
					<filter>
						<effect>
							<name>Audio Pan</name>
							<effectid>audiopan</effectid>
							<effectcategory>audiopan</effectcategory>
							<effecttype>audiopan</effecttype>
							<mediatype>audio</mediatype>
							<parameter>
								<name>Pan</name>
								<parameterid>pan</parameterid>
								<valuemin>-1</valuemin>
								<valuemax>1</valuemax>
								<value>0</value>
							</parameter>
						</effect>
					</filter>
					<sourcetrack>
						<mediatype>audio</mediatype>
						<trackindex>2</trackindex>
					</sourcetrack>
				</clipitem>
				<clipitem id="msub200012-2208k1d1-012 3">
					<name>msub200012-2208k1d1-012</name>
					<duration>5578</duration>
					<rate>
						<ntsc>FALSE</ntsc>
						<timebase>25</timebase>
					</rate>
					<in>4650</in>
					<out>4675</out>
					<start>23785</start>
					<end>23810</end>
					<subframeoffset>0</subframeoffset>
					<logginginfo>
						<description>msub200012-2208k1d1-012</description>
						<scene/>
						<shottake/>
						<lognote/>
						<good>FALSE</good>
					</logginginfo>
					<labels>
						<label2/>
					</labels>
					<comments>
						<mastercomment1>RÃ…STOFF. BR_FINFREDAG_MSUA_OPRO</mastercomment1>
						<mastercomment2/>
						<mastercomment3/>
						<mastercomment4/>
					</comments>
					<file id="msub200012-2208k1d1-012 1"/>
					<filter>
						<effect>
							<name>Audio Levels</name>
							<effectid>audiolevels</effectid>
							<effectcategory>audiolevels</effectcategory>
							<effecttype>audiolevels</effecttype>
							<mediatype>audio</mediatype>
							<parameter>
								<name>Level</name>
								<parameterid>level</parameterid>
								<valuemin>0</valuemin>
								<valuemax>3.98109</valuemax>
								<value>1</value>
							</parameter>
						</effect>
					</filter>
					<filter>
						<effect>
							<name>Audio Pan</name>
							<effectid>audiopan</effectid>
							<effectcategory>audiopan</effectcategory>
							<effecttype>audiopan</effecttype>
							<mediatype>audio</mediatype>
							<parameter>
								<name>Pan</name>
								<parameterid>pan</parameterid>
								<valuemin>-1</valuemin>
								<valuemax>1</valuemax>
								<value>0</value>
							</parameter>
						</effect>
					</filter>
					<sourcetrack>
						<mediatype>audio</mediatype>
						<trackindex>2</trackindex>
					</sourcetrack>
					<link>
						<linkclipref>msub200012-2208k1d1-012 </linkclipref>
						<mediatype>video</mediatype>
						<trackindex>1</trackindex>
						<clipindex>75</clipindex>
					</link>
					<link>
						<linkclipref>msub200012-2208k1d1-012 2</linkclipref>
						<mediatype>audio</mediatype>
						<trackindex>1</trackindex>
						<clipindex>77</clipindex>
					</link>
					<link>
						<linkclipref>msub200012-2208k1d1-012 3</linkclipref>
						<mediatype>audio</mediatype>
						<trackindex>2</trackindex>
						<clipindex>74</clipindex>
					</link>
				</clipitem>
				<clipitem id="msub200012-2208k1d1-012 6">
					<name>msub200012-2208k1d1-012</name>
					<duration>5578</duration>
					<rate>
						<ntsc>FALSE</ntsc>
						<timebase>25</timebase>
					</rate>
					<in>4758</in>
					<out>4795</out>
					<start>23810</start>
					<end>23847</end>
					<subframeoffset>0</subframeoffset>
					<logginginfo>
						<description>msub200012-2208k1d1-012</description>
						<scene/>
						<shottake/>
						<lognote/>
						<good>FALSE</good>
					</logginginfo>
					<labels>
						<label2/>
					</labels>
					<comments>
						<mastercomment1>RÃ…STOFF. BR_FINFREDAG_MSUA_OPRO</mastercomment1>
						<mastercomment2/>
						<mastercomment3/>
						<mastercomment4/>
					</comments>
					<file id="msub200012-2208k1d1-012 1"/>
					<filter>
						<effect>
							<name>Audio Levels</name>
							<effectid>audiolevels</effectid>
							<effectcategory>audiolevels</effectcategory>
							<effecttype>audiolevels</effecttype>
							<mediatype>audio</mediatype>
							<parameter>
								<name>Level</name>
								<parameterid>level</parameterid>
								<valuemin>0</valuemin>
								<valuemax>3.98109</valuemax>
								<value>1</value>
							</parameter>
						</effect>
					</filter>
					<filter>
						<effect>
							<name>Audio Pan</name>
							<effectid>audiopan</effectid>
							<effectcategory>audiopan</effectcategory>
							<effecttype>audiopan</effecttype>
							<mediatype>audio</mediatype>
							<parameter>
								<name>Pan</name>
								<parameterid>pan</parameterid>
								<valuemin>-1</valuemin>
								<valuemax>1</valuemax>
								<value>0</value>
							</parameter>
						</effect>
					</filter>
					<sourcetrack>
						<mediatype>audio</mediatype>
						<trackindex>2</trackindex>
					</sourcetrack>
					<link>
						<linkclipref>msub200012-2208k1d1-012 4</linkclipref>
						<mediatype>video</mediatype>
						<trackindex>1</trackindex>
						<clipindex>76</clipindex>
					</link>
					<link>
						<linkclipref>msub200012-2208k1d1-012 5</linkclipref>
						<mediatype>audio</mediatype>
						<trackindex>1</trackindex>
						<clipindex>78</clipindex>
					</link>
					<link>
						<linkclipref>msub200012-2208k1d1-012 6</linkclipref>
						<mediatype>audio</mediatype>
						<trackindex>2</trackindex>
						<clipindex>75</clipindex>
					</link>
				</clipitem>
				<clipitem id="msub200012-2208k1d1-024 6">
					<name>msub200012-2208k1d1-024</name>
					<duration>233</duration>
					<rate>
						<ntsc>FALSE</ntsc>
						<timebase>25</timebase>
					</rate>
					<in>117</in>
					<out>191</out>
					<start>23916</start>
					<end>23990</end>
					<subframeoffset>0</subframeoffset>
					<masterclipid>msub200012-2208k1d1-024 1</masterclipid>
					<logginginfo>
						<description>msub200012-2208k1d1-024</description>
						<scene/>
						<shottake/>
						<lognote/>
						<good>FALSE</good>
					</logginginfo>
					<labels>
						<label2/>
					</labels>
					<comments>
						<mastercomment1>RÃ…STOFF. BR_FINFREDAG_MSUA_OPRO</mastercomment1>
						<mastercomment2/>
						<mastercomment3/>
						<mastercomment4/>
					</comments>
					<file id="msub200012-2208k1d1-024 2"/>
					<filter>
						<effect>
							<name>Audio Levels</name>
							<effectid>audiolevels</effectid>
							<effectcategory>audiolevels</effectcategory>
							<effecttype>audiolevels</effecttype>
							<mediatype>audio</mediatype>
							<parameter>
								<name>Level</name>
								<parameterid>level</parameterid>
								<valuemin>0</valuemin>
								<valuemax>3.98109</valuemax>
								<value>1</value>
							</parameter>
						</effect>
					</filter>
					<filter>
						<effect>
							<name>Audio Pan</name>
							<effectid>audiopan</effectid>
							<effectcategory>audiopan</effectcategory>
							<effecttype>audiopan</effecttype>
							<mediatype>audio</mediatype>
							<parameter>
								<name>Pan</name>
								<parameterid>pan</parameterid>
								<valuemin>-1</valuemin>
								<valuemax>1</valuemax>
								<value>0</value>
							</parameter>
						</effect>
					</filter>
					<sourcetrack>
						<mediatype>audio</mediatype>
						<trackindex>2</trackindex>
					</sourcetrack>
					<filter>
						<effect>
							<name>Time Remap</name>
							<effectid>timeremap</effectid>
							<effectcategory>motion</effectcategory>
							<effecttype>motion</effecttype>
							<mediatype>audio</mediatype>
							<parameter>
								<parameterid>variablespeed</parameterid>
								<name>variablespeed</name>
								<valuemin>0</valuemin>
								<valuemax>1</valuemax>
								<value>0</value>
							</parameter>
							<parameter>
								<parameterid>mappedduration</parameterid>
								<name>mappedduration</name>
								<value>
									<timecode>
										<rate>
											<timebase>0</timebase>
										</rate>
										<string>0</string>
										<frame>0</frame>
										<displayformat>NDF</displayformat>
									</timecode>
								</value>
							</parameter>
							<parameter>
								<parameterid>speed</parameterid>
								<name>speed</name>
								<valuemin>-10000</valuemin>
								<valuemax>10000</valuemax>
								<value>500</value>
							</parameter>
							<parameter>
								<parameterid>reverse</parameterid>
								<name>reverse</name>
								<value>FALSE</value>
							</parameter>
							<parameter>
								<parameterid>frameblending</parameterid>
								<name>frameblending</name>
								<value>TRUE</value>
							</parameter>
							<parameter>
								<parameterid>graphdict</parameterid>
								<name>graphdict</name>
								<valuemin>0</valuemin>
								<valuemax>1160</valuemax>
								<keyframe>
									<when>0</when>
									<value>4.9999</value>
									<speedkfstart>TRUE</speedkfstart>
									<speedvirtualkf>TRUE</speedvirtualkf>
								</keyframe>
								<keyframe>
									<when>117</when>
									<value>590</value>
									<speedkfin>TRUE</speedkfin>
									<speedvirtualkf>TRUE</speedvirtualkf>
								</keyframe>
								<keyframe>
									<when>191</when>
									<value>960</value>
									<speedkfout>TRUE</speedkfout>
									<speedvirtualkf>TRUE</speedvirtualkf>
								</keyframe>
								<keyframe>
									<when>233</when>
									<value>1166</value>
									<speedkfend>TRUE</speedkfend>
									<speedvirtualkf>TRUE</speedvirtualkf>
								</keyframe>
								<interpolation>
									<name>FCPCurve</name>
								</interpolation>
								<value>590</value>
							</parameter>
						</effect>
					</filter>
				</clipitem>
				<clipitem id="msub200012-2208k1d1-024 7">
					<name>msub200012-2208k1d1-024</name>
					<duration>233</duration>
					<rate>
						<ntsc>FALSE</ntsc>
						<timebase>25</timebase>
					</rate>
					<in>191</in>
					<out>225</out>
					<start>23990</start>
					<end>24024</end>
					<subframeoffset>0</subframeoffset>
					<masterclipid>msub200012-2208k1d1-024 1</masterclipid>
					<logginginfo>
						<description>msub200012-2208k1d1-024</description>
						<scene/>
						<shottake/>
						<lognote/>
						<good>FALSE</good>
					</logginginfo>
					<labels>
						<label2/>
					</labels>
					<comments>
						<mastercomment1>RÃ…STOFF. BR_FINFREDAG_MSUA_OPRO</mastercomment1>
						<mastercomment2/>
						<mastercomment3/>
						<mastercomment4/>
					</comments>
					<file id="msub200012-2208k1d1-024 2"/>
					<filter>
						<effect>
							<name>Audio Levels</name>
							<effectid>audiolevels</effectid>
							<effectcategory>audiolevels</effectcategory>
							<effecttype>audiolevels</effecttype>
							<mediatype>audio</mediatype>
							<parameter>
								<name>Level</name>
								<parameterid>level</parameterid>
								<valuemin>0</valuemin>
								<valuemax>3.98109</valuemax>
								<value>1</value>
							</parameter>
						</effect>
					</filter>
					<filter>
						<effect>
							<name>Audio Pan</name>
							<effectid>audiopan</effectid>
							<effectcategory>audiopan</effectcategory>
							<effecttype>audiopan</effecttype>
							<mediatype>audio</mediatype>
							<parameter>
								<name>Pan</name>
								<parameterid>pan</parameterid>
								<valuemin>-1</valuemin>
								<valuemax>1</valuemax>
								<value>0</value>
							</parameter>
						</effect>
					</filter>
					<sourcetrack>
						<mediatype>audio</mediatype>
						<trackindex>2</trackindex>
					</sourcetrack>
					<filter>
						<effect>
							<name>Time Remap</name>
							<effectid>timeremap</effectid>
							<effectcategory>motion</effectcategory>
							<effecttype>motion</effecttype>
							<mediatype>audio</mediatype>
							<parameter>
								<parameterid>variablespeed</parameterid>
								<name>variablespeed</name>
								<valuemin>0</valuemin>
								<valuemax>1</valuemax>
								<value>0</value>
							</parameter>
							<parameter>
								<parameterid>mappedduration</parameterid>
								<name>mappedduration</name>
								<value>
									<timecode>
										<rate>
											<timebase>0</timebase>
										</rate>
										<string>0</string>
										<frame>0</frame>
										<displayformat>NDF</displayformat>
									</timecode>
								</value>
							</parameter>
							<parameter>
								<parameterid>speed</parameterid>
								<name>speed</name>
								<valuemin>-10000</valuemin>
								<valuemax>10000</valuemax>
								<value>500</value>
							</parameter>
							<parameter>
								<parameterid>reverse</parameterid>
								<name>reverse</name>
								<value>FALSE</value>
							</parameter>
							<parameter>
								<parameterid>frameblending</parameterid>
								<name>frameblending</name>
								<value>TRUE</value>
							</parameter>
							<parameter>
								<parameterid>graphdict</parameterid>
								<name>graphdict</name>
								<valuemin>0</valuemin>
								<valuemax>1160</valuemax>
								<keyframe>
									<when>0</when>
									<value>4.9999</value>
									<speedkfstart>TRUE</speedkfstart>
									<speedvirtualkf>TRUE</speedvirtualkf>
								</keyframe>
								<keyframe>
									<when>191</when>
									<value>960</value>
									<speedkfin>TRUE</speedkfin>
									<speedvirtualkf>TRUE</speedvirtualkf>
								</keyframe>
								<keyframe>
									<when>225</when>
									<value>1130</value>
									<speedkfout>TRUE</speedkfout>
									<speedvirtualkf>TRUE</speedvirtualkf>
								</keyframe>
								<keyframe>
									<when>233</when>
									<value>1166</value>
									<speedkfend>TRUE</speedkfend>
									<speedvirtualkf>TRUE</speedvirtualkf>
								</keyframe>
								<interpolation>
									<name>FCPCurve</name>
								</interpolation>
								<value>960</value>
							</parameter>
						</effect>
					</filter>
				</clipitem>
				<clipitem id="msub200012-2408-k1d2-004 4">
					<name>msub200012-2408-k1d2-004</name>
					<duration>4238</duration>
					<rate>
						<ntsc>FALSE</ntsc>
						<timebase>25</timebase>
					</rate>
					<in>1782</in>
					<out>1802</out>
					<start>24024</start>
					<end>24044</end>
					<subframeoffset>0</subframeoffset>
					<masterclipid>msub200012-2408-k1d2-004 1</masterclipid>
					<logginginfo>
						<description>msub200012-2408-k1d2-004</description>
						<scene/>
						<shottake/>
						<lognote/>
						<good>FALSE</good>
					</logginginfo>
					<labels>
						<label2/>
					</labels>
					<comments>
						<mastercomment1>RÃ…STOFF. BR_FINFREDAG_MSUA_OPRO</mastercomment1>
						<mastercomment2/>
						<mastercomment3/>
						<mastercomment4/>
					</comments>
					<file id="msub200012-2408-k1d2-004 2"/>
					<filter>
						<effect>
							<name>Audio Levels</name>
							<effectid>audiolevels</effectid>
							<effectcategory>audiolevels</effectcategory>
							<effecttype>audiolevels</effecttype>
							<mediatype>audio</mediatype>
							<parameter>
								<name>Level</name>
								<parameterid>level</parameterid>
								<valuemin>0</valuemin>
								<valuemax>3.98109</valuemax>
								<value>0.158489</value>
							</parameter>
						</effect>
					</filter>
					<filter>
						<effect>
							<name>Audio Pan</name>
							<effectid>audiopan</effectid>
							<effectcategory>audiopan</effectcategory>
							<effecttype>audiopan</effecttype>
							<mediatype>audio</mediatype>
							<parameter>
								<name>Pan</name>
								<parameterid>pan</parameterid>
								<valuemin>-1</valuemin>
								<valuemax>1</valuemax>
								<value>0</value>
							</parameter>
						</effect>
					</filter>
					<sourcetrack>
						<mediatype>audio</mediatype>
						<trackindex>2</trackindex>
					</sourcetrack>
				</clipitem>
				<clipitem id="msub200012-2208k1d1-027 4">
					<name>msub200012-2208k1d1-027</name>
					<duration>629</duration>
					<rate>
						<ntsc>FALSE</ntsc>
						<timebase>25</timebase>
					</rate>
					<in>333</in>
					<out>356</out>
					<start>24044</start>
					<end>24067</end>
					<subframeoffset>0</subframeoffset>
					<masterclipid>msub200012-2208k1d1-027 1</masterclipid>
					<logginginfo>
						<description>msub200012-2208k1d1-027</description>
						<scene/>
						<shottake/>
						<lognote/>
						<good>FALSE</good>
					</logginginfo>
					<labels>
						<label2/>
					</labels>
					<comments>
						<mastercomment1>RÃ…STOFF. BR_FINFREDAG_MSUA_OPRO</mastercomment1>
						<mastercomment2/>
						<mastercomment3/>
						<mastercomment4/>
					</comments>
					<file id="msub200012-2208k1d1-027 2"/>
					<filter>
						<effect>
							<name>Audio Levels</name>
							<effectid>audiolevels</effectid>
							<effectcategory>audiolevels</effectcategory>
							<effecttype>audiolevels</effecttype>
							<mediatype>audio</mediatype>
							<parameter>
								<name>Level</name>
								<parameterid>level</parameterid>
								<valuemin>0</valuemin>
								<valuemax>3.98109</valuemax>
								<value>0.199526</value>
							</parameter>
						</effect>
					</filter>
					<filter>
						<effect>
							<name>Audio Pan</name>
							<effectid>audiopan</effectid>
							<effectcategory>audiopan</effectcategory>
							<effecttype>audiopan</effecttype>
							<mediatype>audio</mediatype>
							<parameter>
								<name>Pan</name>
								<parameterid>pan</parameterid>
								<valuemin>-1</valuemin>
								<valuemax>1</valuemax>
								<value>0</value>
							</parameter>
						</effect>
					</filter>
					<sourcetrack>
						<mediatype>audio</mediatype>
						<trackindex>2</trackindex>
					</sourcetrack>
					<link>
						<linkclipref>msub200012-2208k1d1-027 </linkclipref>
						<mediatype>video</mediatype>
						<trackindex>1</trackindex>
						<clipindex>81</clipindex>
					</link>
					<link>
						<linkclipref>msub200012-2208k1d1-027 3</linkclipref>
						<mediatype>audio</mediatype>
						<trackindex>1</trackindex>
						<clipindex>82</clipindex>
					</link>
					<link>
						<linkclipref>msub200012-2208k1d1-027 4</linkclipref>
						<mediatype>audio</mediatype>
						<trackindex>2</trackindex>
						<clipindex>79</clipindex>
					</link>
				</clipitem>
				<clipitem id="msub200012-2408-k1d2-002 4">
					<name>msub200012-2408-k1d2-002</name>
					<duration>2657</duration>
					<rate>
						<ntsc>FALSE</ntsc>
						<timebase>25</timebase>
					</rate>
					<in>1520</in>
					<out>1541</out>
					<start>24067</start>
					<end>24088</end>
					<subframeoffset>0</subframeoffset>
					<enabled>TRUE</enabled>
					<masterclipid>msub200012-2408-k1d2-002 1</masterclipid>
					<logginginfo>
						<description>msub200012-2408-k1d2-002</description>
						<scene/>
						<shottake/>
						<lognote/>
						<good>FALSE</good>
					</logginginfo>
					<labels>
						<label2/>
					</labels>
					<comments>
						<mastercomment1>RÃ…STOFF. BR_FINFREDAG_MSUA_OPRO</mastercomment1>
						<mastercomment2/>
						<mastercomment3/>
						<mastercomment4/>
					</comments>
					<file id="msub200012-2408-k1d2-002 2"/>
					<filter>
						<effect>
							<name>Audio Levels</name>
							<effectid>audiolevels</effectid>
							<effectcategory>audiolevels</effectcategory>
							<effecttype>audiolevels</effecttype>
							<mediatype>audio</mediatype>
							<parameter>
								<name>Level</name>
								<parameterid>level</parameterid>
								<valuemin>0</valuemin>
								<valuemax>3.98109</valuemax>
								<value>0.158489</value>
							</parameter>
						</effect>
					</filter>
					<filter>
						<effect>
							<name>Audio Pan</name>
							<effectid>audiopan</effectid>
							<effectcategory>audiopan</effectcategory>
							<effecttype>audiopan</effecttype>
							<mediatype>audio</mediatype>
							<parameter>
								<name>Pan</name>
								<parameterid>pan</parameterid>
								<valuemin>-1</valuemin>
								<valuemax>1</valuemax>
								<value>0</value>
							</parameter>
						</effect>
					</filter>
					<sourcetrack>
						<mediatype>audio</mediatype>
						<trackindex>2</trackindex>
					</sourcetrack>
					<link>
						<linkclipref>msub200012-2408-k1d2-002 </linkclipref>
						<mediatype>video</mediatype>
						<trackindex>1</trackindex>
						<clipindex>82</clipindex>
					</link>
					<link>
						<linkclipref>msub200012-2408-k1d2-002 3</linkclipref>
						<mediatype>audio</mediatype>
						<trackindex>1</trackindex>
						<clipindex>83</clipindex>
					</link>
					<link>
						<linkclipref>msub200012-2408-k1d2-002 4</linkclipref>
						<mediatype>audio</mediatype>
						<trackindex>2</trackindex>
						<clipindex>80</clipindex>
					</link>
				</clipitem>
				<clipitem id="msub200012-2308-k1d1-003 5">
					<name>msub200012-2308-k1d1-003</name>
					<duration>4520</duration>
					<rate>
						<ntsc>FALSE</ntsc>
						<timebase>25</timebase>
					</rate>
					<in>776</in>
					<out>910</out>
					<start>24089</start>
					<end>24223</end>
					<subframeoffset>0</subframeoffset>
					<enabled>TRUE</enabled>
					<masterclipid>msub200012-2308-k1d1-003 1</masterclipid>
					<logginginfo>
						<description>msub200012-2308-k1d1-003</description>
						<scene/>
						<shottake/>
						<lognote/>
						<good>FALSE</good>
					</logginginfo>
					<labels>
						<label2/>
					</labels>
					<comments>
						<mastercomment1>RÃ…STOFF. BR_FINFREDAG_MSUA_OPRO</mastercomment1>
						<mastercomment2/>
						<mastercomment3/>
						<mastercomment4/>
					</comments>
					<file id="msub200012-2308-k1d1-003 2"/>
					<filter>
						<enabled>TRUE</enabled>
						<start>-1</start>
						<end>-1</end>
						<effect>
							<name>3 Band Equalizer - Kristine</name>
							<effecttype>filter</effecttype>
							<mediatype>audio</mediatype>
							<parameter>
								<parameterid>Low Frequency</parameterid>
								<name>Low Frequency</name>
								<valuemin>80</valuemin>
								<valuemax>2000</valuemax>
								<value>90</value>
							</parameter>
							<parameter>
								<parameterid>Low Gain(dB)</parameterid>
								<name>Low Gain(dB)</name>
								<valuemin>-20</valuemin>
								<valuemax>20</valuemax>
								<value>-4</value>
							</parameter>
							<parameter>
								<parameterid>Mid Frequency</parameterid>
								<name>Mid Frequency</name>
								<valuemin>400</valuemin>
								<valuemax>8000</valuemax>
								<value>3602</value>
							</parameter>
							<parameter>
								<parameterid>Mid Gain(dB)</parameterid>
								<name>Mid Gain(dB)</name>
								<valuemin>-20</valuemin>
								<valuemax>20</valuemax>
								<value>3</value>
							</parameter>
							<parameter>
								<parameterid>High Frequency</parameterid>
								<name>High Frequency</name>
								<valuemin>5000</valuemin>
								<valuemax>20000</valuemax>
								<value>10354</value>
							</parameter>
							<parameter>
								<parameterid>High Gain(dB)</parameterid>
								<name>High Gain(dB)</name>
								<valuemin>-20</valuemin>
								<valuemax>20</valuemax>
								<value>0</value>
							</parameter>
						</effect>
					</filter>
					<filter>
						<effect>
							<name>Audio Levels</name>
							<effectid>audiolevels</effectid>
							<effectcategory>audiolevels</effectcategory>
							<effecttype>audiolevels</effecttype>
							<mediatype>audio</mediatype>
							<parameter>
								<name>Level</name>
								<parameterid>level</parameterid>
								<valuemin>0</valuemin>
								<valuemax>3.98109</valuemax>
								<keyframe>
									<when>787.25</when>
									<value>0.630961</value>
								</keyframe>
								<keyframe>
									<when>795.125</when>
									<value>0.78724</value>
								</keyframe>
								<keyframe>
									<when>856.375</when>
									<value>1.22926</value>
								</keyframe>
								<keyframe>
									<when>884.375</when>
									<value>1.41254</value>
								</keyframe>
								<keyframe>
									<when>960.5</when>
									<value>1.12203</value>
								</keyframe>
								<keyframe>
									<when>970.125</when>
									<value>0.31623</value>
								</keyframe>
								<interpolation>
									<name>FCPCurve</name>
								</interpolation>
								<value>1.08944</value>
							</parameter>
						</effect>
					</filter>
					<filter>
						<effect>
							<name>Audio Pan</name>
							<effectid>audiopan</effectid>
							<effectcategory>audiopan</effectcategory>
							<effecttype>audiopan</effecttype>
							<mediatype>audio</mediatype>
							<parameter>
								<name>Pan</name>
								<parameterid>pan</parameterid>
								<valuemin>-1</valuemin>
								<valuemax>1</valuemax>
								<value>0</value>
							</parameter>
						</effect>
					</filter>
					<sourcetrack>
						<mediatype>audio</mediatype>
						<trackindex>2</trackindex>
					</sourcetrack>
				</clipitem>
				<clipitem id="msub20000012r-k1-d1-17025 4">
					<name>msub20000012r-k1-d1-17025</name>
					<duration>7583</duration>
					<rate>
						<ntsc>FALSE</ntsc>
						<timebase>25</timebase>
					</rate>
					<in>3059</in>
					<out>3146</out>
					<start>24276</start>
					<end>-1</end>
					<subframeoffset>0</subframeoffset>
					<enabled>FALSE</enabled>
					<masterclipid>msub20000012r-k1-d1-17025 1</masterclipid>
					<logginginfo>
						<description>msub20000012r-k1-d1-17025</description>
						<scene/>
						<shottake/>
						<lognote/>
						<good>FALSE</good>
					</logginginfo>
					<labels>
						<label2/>
					</labels>
					<comments>
						<mastercomment1>RÃ…STOFF</mastercomment1>
						<mastercomment2/>
						<mastercomment3/>
						<mastercomment4/>
					</comments>
					<file id="msub20000012r-k1-d1-17025 2"/>
					<filter>
						<effect>
							<name>Audio Levels</name>
							<effectid>audiolevels</effectid>
							<effectcategory>audiolevels</effectcategory>
							<effecttype>audiolevels</effecttype>
							<mediatype>audio</mediatype>
							<parameter>
								<name>Level</name>
								<parameterid>level</parameterid>
								<valuemin>0</valuemin>
								<valuemax>3.98109</valuemax>
								<value>1</value>
							</parameter>
						</effect>
					</filter>
					<filter>
						<effect>
							<name>Audio Pan</name>
							<effectid>audiopan</effectid>
							<effectcategory>audiopan</effectcategory>
							<effecttype>audiopan</effecttype>
							<mediatype>audio</mediatype>
							<parameter>
								<name>Pan</name>
								<parameterid>pan</parameterid>
								<valuemin>-1</valuemin>
								<valuemax>1</valuemax>
								<value>0</value>
							</parameter>
						</effect>
					</filter>
					<sourcetrack>
						<mediatype>audio</mediatype>
						<trackindex>2</trackindex>
					</sourcetrack>
				</clipitem>
				<transitionitem id="33">
					<rate>
						<ntsc>FALSE</ntsc>
						<timebase>25</timebase>
					</rate>
					<start>24358</start>
					<end>24363</end>
					<alignment>end-black</alignment>
					<effect>
						<name>Cross Fade ( 0dB)</name>
						<effecttype>transition</effecttype>
						<mediatype>audio</mediatype>
					</effect>
				</transitionitem>
				<clipitem id="msub200012-2308-k1d2016.mxf3">
					<name>msub200012-2308-k1d2016.mxf</name>
					<duration>15795</duration>
					<rate>
						<ntsc>FALSE</ntsc>
						<timebase>25</timebase>
					</rate>
					<in>13008</in>
					<out>13065</out>
					<start>24501</start>
					<end>24558</end>
					<subframeoffset>0</subframeoffset>
					<enabled>TRUE</enabled>
					<masterclipid>msub200012-2308-k1d2016.mxf1</masterclipid>
					<logginginfo>
						<scene/>
						<shottake/>
						<lognote/>
						<good>FALSE</good>
					</logginginfo>
					<labels>
						<label2/>
					</labels>
					<comments>
						<mastercomment1/>
						<mastercomment2/>
						<mastercomment3/>
						<mastercomment4/>
					</comments>
					<file id="msub200012-2308-k1d2016 "/>
					<filter>
						<enabled>TRUE</enabled>
						<start>-1</start>
						<end>-1</end>
						<effect>
							<name>3 Band Equalizer - Kristine</name>
							<effecttype>filter</effecttype>
							<mediatype>audio</mediatype>
							<parameter>
								<parameterid>Low Frequency</parameterid>
								<name>Low Frequency</name>
								<valuemin>80</valuemin>
								<valuemax>2000</valuemax>
								<value>80</value>
							</parameter>
							<parameter>
								<parameterid>Low Gain(dB)</parameterid>
								<name>Low Gain(dB)</name>
								<valuemin>-20</valuemin>
								<valuemax>20</valuemax>
								<value>-4</value>
							</parameter>
							<parameter>
								<parameterid>Mid Frequency</parameterid>
								<name>Mid Frequency</name>
								<valuemin>400</valuemin>
								<valuemax>8000</valuemax>
								<value>3602</value>
							</parameter>
							<parameter>
								<parameterid>Mid Gain(dB)</parameterid>
								<name>Mid Gain(dB)</name>
								<valuemin>-20</valuemin>
								<valuemax>20</valuemax>
								<value>3</value>
							</parameter>
							<parameter>
								<parameterid>High Frequency</parameterid>
								<name>High Frequency</name>
								<valuemin>5000</valuemin>
								<valuemax>20000</valuemax>
								<value>10354</value>
							</parameter>
							<parameter>
								<parameterid>High Gain(dB)</parameterid>
								<name>High Gain(dB)</name>
								<valuemin>-20</valuemin>
								<valuemax>20</valuemax>
								<value>0</value>
							</parameter>
						</effect>
					</filter>
					<filter>
						<start>-1</start>
						<end>-1</end>
						<effect>
							<name>Compressor/Limiter</name>
							<effecttype>filter</effecttype>
							<mediatype>audio</mediatype>
							<parameter>
								<parameterid>Threshold(dB)</parameterid>
								<name>Threshold(dB)</name>
								<valuemin>-90</valuemin>
								<valuemax>0</valuemax>
								<value>-20</value>
							</parameter>
							<parameter>
								<parameterid>Ratio</parameterid>
								<name>Ratio</name>
								<valuemin>1</valuemin>
								<valuemax>100</valuemax>
								<value>2</value>
							</parameter>
							<parameter>
								<parameterid>Attack Time</parameterid>
								<name>Attack Time</name>
								<valuemin>1</valuemin>
								<valuemax>100</valuemax>
								<value>5</value>
							</parameter>
							<parameter>
								<parameterid>Release Time</parameterid>
								<name>Release Time</name>
								<valuemin>1</valuemin>
								<valuemax>4000</valuemax>
								<value>209</value>
							</parameter>
							<parameter>
								<parameterid>Preserve Volume</parameterid>
								<name>Preserve Volume</name>
								<value>TRUE</value>
							</parameter>
						</effect>
					</filter>
					<filter>
						<effect>
							<name>Audio Levels</name>
							<effectid>audiolevels</effectid>
							<effectcategory>audiolevels</effectcategory>
							<effecttype>audiolevels</effecttype>
							<mediatype>audio</mediatype>
							<parameter>
								<name>Level</name>
								<parameterid>level</parameterid>
								<valuemin>0</valuemin>
								<valuemax>3.98109</valuemax>
								<keyframe>
									<when>13031.4</when>
									<value>1.12202</value>
								</keyframe>
								<keyframe>
									<when>13036.6</when>
									<value>0.891251</value>
								</keyframe>
								<keyframe>
									<when>13042</when>
									<value>1.12202</value>
								</keyframe>
								<interpolation>
									<name>FCPCurve</name>
								</interpolation>
								<value>2.81838</value>
							</parameter>
						</effect>
					</filter>
					<filter>
						<effect>
							<name>Audio Pan</name>
							<effectid>audiopan</effectid>
							<effectcategory>audiopan</effectcategory>
							<effecttype>audiopan</effecttype>
							<mediatype>audio</mediatype>
							<parameter>
								<name>Pan</name>
								<parameterid>pan</parameterid>
								<valuemin>-1</valuemin>
								<valuemax>1</valuemax>
								<value>0</value>
							</parameter>
						</effect>
					</filter>
					<sourcetrack>
						<mediatype>audio</mediatype>
						<trackindex>2</trackindex>
					</sourcetrack>
					<link>
						<linkclipref>msub200012-2308-k1d2016.mxf</linkclipref>
						<mediatype>video</mediatype>
						<trackindex>1</trackindex>
						<clipindex>90</clipindex>
					</link>
					<link>
						<linkclipref>msub200012-2308-k1d2016.mxf2</linkclipref>
						<mediatype>audio</mediatype>
						<trackindex>1</trackindex>
						<clipindex>87</clipindex>
					</link>
					<link>
						<linkclipref>msub200012-2308-k1d2016.mxf3</linkclipref>
						<mediatype>audio</mediatype>
						<trackindex>2</trackindex>
						<clipindex>84</clipindex>
					</link>
				</clipitem>
				<clipitem id="msub200012-2308-k1d2016.mxf6">
					<name>msub200012-2308-k1d2016.mxf</name>
					<duration>15795</duration>
					<rate>
						<ntsc>FALSE</ntsc>
						<timebase>25</timebase>
					</rate>
					<in>8404</in>
					<out>8437</out>
					<start>24558</start>
					<end>24591</end>
					<subframeoffset>0</subframeoffset>
					<enabled>TRUE</enabled>
					<masterclipid>msub200012-2308-k1d2016.mxf1</masterclipid>
					<logginginfo>
						<scene/>
						<shottake/>
						<lognote/>
						<good>FALSE</good>
					</logginginfo>
					<labels>
						<label2/>
					</labels>
					<comments>
						<mastercomment1/>
						<mastercomment2/>
						<mastercomment3/>
						<mastercomment4/>
					</comments>
					<file id="msub200012-2308-k1d2016 "/>
					<filter>
						<enabled>TRUE</enabled>
						<start>-1</start>
						<end>-1</end>
						<effect>
							<name>3 Band Equalizer - Kristine</name>
							<effecttype>filter</effecttype>
							<mediatype>audio</mediatype>
							<parameter>
								<parameterid>Low Frequency</parameterid>
								<name>Low Frequency</name>
								<valuemin>80</valuemin>
								<valuemax>2000</valuemax>
								<value>80</value>
							</parameter>
							<parameter>
								<parameterid>Low Gain(dB)</parameterid>
								<name>Low Gain(dB)</name>
								<valuemin>-20</valuemin>
								<valuemax>20</valuemax>
								<value>-4</value>
							</parameter>
							<parameter>
								<parameterid>Mid Frequency</parameterid>
								<name>Mid Frequency</name>
								<valuemin>400</valuemin>
								<valuemax>8000</valuemax>
								<value>3602</value>
							</parameter>
							<parameter>
								<parameterid>Mid Gain(dB)</parameterid>
								<name>Mid Gain(dB)</name>
								<valuemin>-20</valuemin>
								<valuemax>20</valuemax>
								<value>3</value>
							</parameter>
							<parameter>
								<parameterid>High Frequency</parameterid>
								<name>High Frequency</name>
								<valuemin>5000</valuemin>
								<valuemax>20000</valuemax>
								<value>10354</value>
							</parameter>
							<parameter>
								<parameterid>High Gain(dB)</parameterid>
								<name>High Gain(dB)</name>
								<valuemin>-20</valuemin>
								<valuemax>20</valuemax>
								<value>0</value>
							</parameter>
						</effect>
					</filter>
					<filter>
						<start>-1</start>
						<end>-1</end>
						<effect>
							<name>Compressor/Limiter</name>
							<effecttype>filter</effecttype>
							<mediatype>audio</mediatype>
							<parameter>
								<parameterid>Threshold(dB)</parameterid>
								<name>Threshold(dB)</name>
								<valuemin>-90</valuemin>
								<valuemax>0</valuemax>
								<value>-20</value>
							</parameter>
							<parameter>
								<parameterid>Ratio</parameterid>
								<name>Ratio</name>
								<valuemin>1</valuemin>
								<valuemax>100</valuemax>
								<value>2</value>
							</parameter>
							<parameter>
								<parameterid>Attack Time</parameterid>
								<name>Attack Time</name>
								<valuemin>1</valuemin>
								<valuemax>100</valuemax>
								<value>5</value>
							</parameter>
							<parameter>
								<parameterid>Release Time</parameterid>
								<name>Release Time</name>
								<valuemin>1</valuemin>
								<valuemax>4000</valuemax>
								<value>209</value>
							</parameter>
							<parameter>
								<parameterid>Preserve Volume</parameterid>
								<name>Preserve Volume</name>
								<value>TRUE</value>
							</parameter>
						</effect>
					</filter>
					<filter>
						<effect>
							<name>Audio Levels</name>
							<effectid>audiolevels</effectid>
							<effectcategory>audiolevels</effectcategory>
							<effecttype>audiolevels</effecttype>
							<mediatype>audio</mediatype>
							<parameter>
								<name>Level</name>
								<parameterid>level</parameterid>
								<valuemin>0</valuemin>
								<valuemax>3.98109</valuemax>
								<value>0.707946</value>
							</parameter>
						</effect>
					</filter>
					<filter>
						<effect>
							<name>Audio Pan</name>
							<effectid>audiopan</effectid>
							<effectcategory>audiopan</effectcategory>
							<effecttype>audiopan</effecttype>
							<mediatype>audio</mediatype>
							<parameter>
								<name>Pan</name>
								<parameterid>pan</parameterid>
								<valuemin>-1</valuemin>
								<valuemax>1</valuemax>
								<value>0</value>
							</parameter>
						</effect>
					</filter>
					<sourcetrack>
						<mediatype>audio</mediatype>
						<trackindex>2</trackindex>
					</sourcetrack>
					<link>
						<linkclipref>msub200012-2308-k1d2016.mxf4</linkclipref>
						<mediatype>video</mediatype>
						<trackindex>1</trackindex>
						<clipindex>91</clipindex>
					</link>
					<link>
						<linkclipref>msub200012-2308-k1d2016.mxf5</linkclipref>
						<mediatype>audio</mediatype>
						<trackindex>1</trackindex>
						<clipindex>88</clipindex>
					</link>
					<link>
						<linkclipref>msub200012-2308-k1d2016.mxf6</linkclipref>
						<mediatype>audio</mediatype>
						<trackindex>2</trackindex>
						<clipindex>85</clipindex>
					</link>
				</clipitem>
				<transitionitem id="34">
					<rate>
						<ntsc>FALSE</ntsc>
						<timebase>25</timebase>
					</rate>
					<start>24591</start>
					<end>24593</end>
					<alignment>start-black</alignment>
					<effect>
						<name>Cross Fade ( 0dB)</name>
						<effecttype>transition</effecttype>
						<mediatype>audio</mediatype>
					</effect>
				</transitionitem>
				<clipitem id="msub200012-2308-k1d2003.mxf9">
					<name>msub200012-2308-k1d2003.mxf</name>
					<duration>860</duration>
					<rate>
						<ntsc>FALSE</ntsc>
						<timebase>25</timebase>
					</rate>
					<in>472</in>
					<out>512</out>
					<start>-1</start>
					<end>-1</end>
					<subframeoffset>0</subframeoffset>
					<masterclipid>msub200012-2308-k1d2003.mxf1</masterclipid>
					<logginginfo>
						<scene/>
						<shottake/>
						<lognote/>
						<good>FALSE</good>
					</logginginfo>
					<labels>
						<label2/>
					</labels>
					<comments>
						<mastercomment1/>
						<mastercomment2/>
						<mastercomment3/>
						<mastercomment4/>
					</comments>
					<file id="msub200012-2308-k1d2003 "/>
					<filter>
						<start>-1</start>
						<end>-1</end>
						<effect>
							<name>3 Band Equalizer - Kristine</name>
							<effecttype>filter</effecttype>
							<mediatype>audio</mediatype>
							<parameter>
								<parameterid>Low Frequency</parameterid>
								<name>Low Frequency</name>
								<valuemin>80</valuemin>
								<valuemax>2000</valuemax>
								<value>80</value>
							</parameter>
							<parameter>
								<parameterid>Low Gain(dB)</parameterid>
								<name>Low Gain(dB)</name>
								<valuemin>-20</valuemin>
								<valuemax>20</valuemax>
								<value>-4</value>
							</parameter>
							<parameter>
								<parameterid>Mid Frequency</parameterid>
								<name>Mid Frequency</name>
								<valuemin>400</valuemin>
								<valuemax>8000</valuemax>
								<value>3602</value>
							</parameter>
							<parameter>
								<parameterid>Mid Gain(dB)</parameterid>
								<name>Mid Gain(dB)</name>
								<valuemin>-20</valuemin>
								<valuemax>20</valuemax>
								<value>3</value>
							</parameter>
							<parameter>
								<parameterid>High Frequency</parameterid>
								<name>High Frequency</name>
								<valuemin>5000</valuemin>
								<valuemax>20000</valuemax>
								<value>10354</value>
							</parameter>
							<parameter>
								<parameterid>High Gain(dB)</parameterid>
								<name>High Gain(dB)</name>
								<valuemin>-20</valuemin>
								<valuemax>20</valuemax>
								<value>0</value>
							</parameter>
						</effect>
					</filter>
					<filter>
						<start>-1</start>
						<end>-1</end>
						<effect>
							<name>Compressor/Limiter</name>
							<effecttype>filter</effecttype>
							<mediatype>audio</mediatype>
							<parameter>
								<parameterid>Threshold(dB)</parameterid>
								<name>Threshold(dB)</name>
								<valuemin>-90</valuemin>
								<valuemax>0</valuemax>
								<value>-20</value>
							</parameter>
							<parameter>
								<parameterid>Ratio</parameterid>
								<name>Ratio</name>
								<valuemin>1</valuemin>
								<valuemax>100</valuemax>
								<value>2</value>
							</parameter>
							<parameter>
								<parameterid>Attack Time</parameterid>
								<name>Attack Time</name>
								<valuemin>1</valuemin>
								<valuemax>100</valuemax>
								<value>5</value>
							</parameter>
							<parameter>
								<parameterid>Release Time</parameterid>
								<name>Release Time</name>
								<valuemin>1</valuemin>
								<valuemax>4000</valuemax>
								<value>209</value>
							</parameter>
							<parameter>
								<parameterid>Preserve Volume</parameterid>
								<name>Preserve Volume</name>
								<value>TRUE</value>
							</parameter>
						</effect>
					</filter>
					<filter>
						<effect>
							<name>Audio Levels</name>
							<effectid>audiolevels</effectid>
							<effectcategory>audiolevels</effectcategory>
							<effecttype>audiolevels</effecttype>
							<mediatype>audio</mediatype>
							<parameter>
								<name>Level</name>
								<parameterid>level</parameterid>
								<valuemin>0</valuemin>
								<valuemax>3.98109</valuemax>
								<value>0.0891251</value>
							</parameter>
						</effect>
					</filter>
					<filter>
						<effect>
							<name>Audio Pan</name>
							<effectid>audiopan</effectid>
							<effectcategory>audiopan</effectcategory>
							<effecttype>audiopan</effecttype>
							<mediatype>audio</mediatype>
							<parameter>
								<name>Pan</name>
								<parameterid>pan</parameterid>
								<valuemin>-1</valuemin>
								<valuemax>1</valuemax>
								<value>0</value>
							</parameter>
						</effect>
					</filter>
					<sourcetrack>
						<mediatype>audio</mediatype>
						<trackindex>4</trackindex>
					</sourcetrack>
				</clipitem>
				<transitionitem id="1048938204 ">
					<rate>
						<ntsc>FALSE</ntsc>
						<timebase>25</timebase>
					</rate>
					<start>24625</start>
					<end>24631</end>
					<alignment>center</alignment>
					<effect>
						<name>Cross Fade (+3dB) Copy</name>
						<effecttype>transition</effecttype>
						<mediatype>audio</mediatype>
					</effect>
				</transitionitem>
				<transitionitem id="1048938680 ">
					<rate>
						<ntsc>FALSE</ntsc>
						<timebase>25</timebase>
					</rate>
					<start>24673</start>
					<end>24679</end>
					<alignment>start-black</alignment>
					<effect>
						<name>Cross Fade (+3dB) Copy</name>
						<effecttype>transition</effecttype>
						<mediatype>audio</mediatype>
					</effect>
				</transitionitem>
				<clipitem id="msub200012-2308-k1d2003.mxf10">
					<name>msub200012-2308-k1d2003.mxf</name>
					<duration>860</duration>
					<rate>
						<ntsc>FALSE</ntsc>
						<timebase>25</timebase>
					</rate>
					<in>528</in>
					<out>585</out>
					<start>-1</start>
					<end>-1</end>
					<subframeoffset>0</subframeoffset>
					<masterclipid>msub200012-2308-k1d2003.mxf1</masterclipid>
					<logginginfo>
						<scene/>
						<shottake/>
						<lognote/>
						<good>FALSE</good>
					</logginginfo>
					<labels>
						<label2/>
					</labels>
					<comments>
						<mastercomment1/>
						<mastercomment2/>
						<mastercomment3/>
						<mastercomment4/>
					</comments>
					<file id="msub200012-2308-k1d2003 "/>
					<filter>
						<start>-1</start>
						<end>-1</end>
						<effect>
							<name>3 Band Equalizer - Kristine</name>
							<effecttype>filter</effecttype>
							<mediatype>audio</mediatype>
							<parameter>
								<parameterid>Low Frequency</parameterid>
								<name>Low Frequency</name>
								<valuemin>80</valuemin>
								<valuemax>2000</valuemax>
								<value>80</value>
							</parameter>
							<parameter>
								<parameterid>Low Gain(dB)</parameterid>
								<name>Low Gain(dB)</name>
								<valuemin>-20</valuemin>
								<valuemax>20</valuemax>
								<value>-4</value>
							</parameter>
							<parameter>
								<parameterid>Mid Frequency</parameterid>
								<name>Mid Frequency</name>
								<valuemin>400</valuemin>
								<valuemax>8000</valuemax>
								<value>3602</value>
							</parameter>
							<parameter>
								<parameterid>Mid Gain(dB)</parameterid>
								<name>Mid Gain(dB)</name>
								<valuemin>-20</valuemin>
								<valuemax>20</valuemax>
								<value>3</value>
							</parameter>
							<parameter>
								<parameterid>High Frequency</parameterid>
								<name>High Frequency</name>
								<valuemin>5000</valuemin>
								<valuemax>20000</valuemax>
								<value>10354</value>
							</parameter>
							<parameter>
								<parameterid>High Gain(dB)</parameterid>
								<name>High Gain(dB)</name>
								<valuemin>-20</valuemin>
								<valuemax>20</valuemax>
								<value>0</value>
							</parameter>
						</effect>
					</filter>
					<filter>
						<start>-1</start>
						<end>-1</end>
						<effect>
							<name>Compressor/Limiter</name>
							<effecttype>filter</effecttype>
							<mediatype>audio</mediatype>
							<parameter>
								<parameterid>Threshold(dB)</parameterid>
								<name>Threshold(dB)</name>
								<valuemin>-90</valuemin>
								<valuemax>0</valuemax>
								<value>-20</value>
							</parameter>
							<parameter>
								<parameterid>Ratio</parameterid>
								<name>Ratio</name>
								<valuemin>1</valuemin>
								<valuemax>100</valuemax>
								<value>2</value>
							</parameter>
							<parameter>
								<parameterid>Attack Time</parameterid>
								<name>Attack Time</name>
								<valuemin>1</valuemin>
								<valuemax>100</valuemax>
								<value>5</value>
							</parameter>
							<parameter>
								<parameterid>Release Time</parameterid>
								<name>Release Time</name>
								<valuemin>1</valuemin>
								<valuemax>4000</valuemax>
								<value>209</value>
							</parameter>
							<parameter>
								<parameterid>Preserve Volume</parameterid>
								<name>Preserve Volume</name>
								<value>TRUE</value>
							</parameter>
						</effect>
					</filter>
					<filter>
						<effect>
							<name>Audio Levels</name>
							<effectid>audiolevels</effectid>
							<effectcategory>audiolevels</effectcategory>
							<effecttype>audiolevels</effecttype>
							<mediatype>audio</mediatype>
							<parameter>
								<name>Level</name>
								<parameterid>level</parameterid>
								<valuemin>0</valuemin>
								<valuemax>3.98109</valuemax>
								<value>0.251189</value>
							</parameter>
						</effect>
					</filter>
					<filter>
						<effect>
							<name>Audio Pan</name>
							<effectid>audiopan</effectid>
							<effectcategory>audiopan</effectcategory>
							<effecttype>audiopan</effecttype>
							<mediatype>audio</mediatype>
							<parameter>
								<name>Pan</name>
								<parameterid>pan</parameterid>
								<valuemin>-1</valuemin>
								<valuemax>1</valuemax>
								<value>0</value>
							</parameter>
						</effect>
					</filter>
					<sourcetrack>
						<mediatype>audio</mediatype>
						<trackindex>4</trackindex>
					</sourcetrack>
				</clipitem>
				<transitionitem id="35">
					<rate>
						<ntsc>FALSE</ntsc>
						<timebase>25</timebase>
					</rate>
					<start>24720</start>
					<end>24730</end>
					<alignment>end-black</alignment>
					<effect>
						<name>Cross Fade ( 0dB)</name>
						<effecttype>transition</effecttype>
						<mediatype>audio</mediatype>
					</effect>
				</transitionitem>
				<transitionitem id="36">
					<rate>
						<ntsc>FALSE</ntsc>
						<timebase>25</timebase>
					</rate>
					<start>24918</start>
					<end>24920</end>
					<alignment>start-black</alignment>
					<effect>
						<name>Cross Fade ( 0dB)</name>
						<effecttype>transition</effecttype>
						<mediatype>audio</mediatype>
					</effect>
				</transitionitem>
				<clipitem id="msub200012-2308-k1d1-004 3">
					<name>msub200012-2308-k1d1-004</name>
					<duration>4763</duration>
					<rate>
						<ntsc>FALSE</ntsc>
						<timebase>25</timebase>
					</rate>
					<in>2815</in>
					<out>2906</out>
					<start>-1</start>
					<end>-1</end>
					<subframeoffset>0</subframeoffset>
					<enabled>TRUE</enabled>
					<masterclipid>msub200012-2308-k1d1-004 1</masterclipid>
					<logginginfo>
						<description>msub200012-2308-k1d1-004</description>
						<scene/>
						<shottake/>
						<lognote/>
						<good>FALSE</good>
					</logginginfo>
					<labels>
						<label2/>
					</labels>
					<comments>
						<mastercomment1>RÃ…STOFF. BR_FINFREDAG_MSUA_OPRO</mastercomment1>
						<mastercomment2/>
						<mastercomment3/>
						<mastercomment4/>
					</comments>
					<file id="msub200012-2308-k1d1-004 2"/>
					<filter>
						<enabled>TRUE</enabled>
						<start>-1</start>
						<end>-1</end>
						<effect>
							<name>3 Band Equalizer - Kristine</name>
							<effecttype>filter</effecttype>
							<mediatype>audio</mediatype>
							<parameter>
								<parameterid>Low Frequency</parameterid>
								<name>Low Frequency</name>
								<valuemin>80</valuemin>
								<valuemax>2000</valuemax>
								<value>80</value>
							</parameter>
							<parameter>
								<parameterid>Low Gain(dB)</parameterid>
								<name>Low Gain(dB)</name>
								<valuemin>-20</valuemin>
								<valuemax>20</valuemax>
								<value>-4</value>
							</parameter>
							<parameter>
								<parameterid>Mid Frequency</parameterid>
								<name>Mid Frequency</name>
								<valuemin>400</valuemin>
								<valuemax>8000</valuemax>
								<value>3602</value>
							</parameter>
							<parameter>
								<parameterid>Mid Gain(dB)</parameterid>
								<name>Mid Gain(dB)</name>
								<valuemin>-20</valuemin>
								<valuemax>20</valuemax>
								<value>3</value>
							</parameter>
							<parameter>
								<parameterid>High Frequency</parameterid>
								<name>High Frequency</name>
								<valuemin>5000</valuemin>
								<valuemax>20000</valuemax>
								<value>10354</value>
							</parameter>
							<parameter>
								<parameterid>High Gain(dB)</parameterid>
								<name>High Gain(dB)</name>
								<valuemin>-20</valuemin>
								<valuemax>20</valuemax>
								<value>0</value>
							</parameter>
						</effect>
					</filter>
					<filter>
						<start>-1</start>
						<end>-1</end>
						<effect>
							<name>Compressor/Limiter</name>
							<effecttype>filter</effecttype>
							<mediatype>audio</mediatype>
							<parameter>
								<parameterid>Threshold(dB)</parameterid>
								<name>Threshold(dB)</name>
								<valuemin>-90</valuemin>
								<valuemax>0</valuemax>
								<value>-20</value>
							</parameter>
							<parameter>
								<parameterid>Ratio</parameterid>
								<name>Ratio</name>
								<valuemin>1</valuemin>
								<valuemax>100</valuemax>
								<value>2</value>
							</parameter>
							<parameter>
								<parameterid>Attack Time</parameterid>
								<name>Attack Time</name>
								<valuemin>1</valuemin>
								<valuemax>100</valuemax>
								<value>5</value>
							</parameter>
							<parameter>
								<parameterid>Release Time</parameterid>
								<name>Release Time</name>
								<valuemin>1</valuemin>
								<valuemax>4000</valuemax>
								<value>209</value>
							</parameter>
							<parameter>
								<parameterid>Preserve Volume</parameterid>
								<name>Preserve Volume</name>
								<value>TRUE</value>
							</parameter>
						</effect>
					</filter>
					<filter>
						<effect>
							<name>Audio Levels</name>
							<effectid>audiolevels</effectid>
							<effectcategory>audiolevels</effectcategory>
							<effecttype>audiolevels</effecttype>
							<mediatype>audio</mediatype>
							<parameter>
								<name>Level</name>
								<parameterid>level</parameterid>
								<valuemin>0</valuemin>
								<valuemax>3.98109</valuemax>
								<value>0.794328</value>
							</parameter>
						</effect>
					</filter>
					<filter>
						<effect>
							<name>Audio Pan</name>
							<effectid>audiopan</effectid>
							<effectcategory>audiopan</effectcategory>
							<effecttype>audiopan</effecttype>
							<mediatype>audio</mediatype>
							<parameter>
								<name>Pan</name>
								<parameterid>pan</parameterid>
								<valuemin>-1</valuemin>
								<valuemax>1</valuemax>
								<value>0</value>
							</parameter>
						</effect>
					</filter>
					<sourcetrack>
						<mediatype>audio</mediatype>
						<trackindex>2</trackindex>
					</sourcetrack>
				</clipitem>
				<transitionitem id="37">
					<rate>
						<ntsc>FALSE</ntsc>
						<timebase>25</timebase>
					</rate>
					<start>25004</start>
					<end>25009</end>
					<alignment>end-black</alignment>
					<effect>
						<name>Cross Fade ( 0dB)</name>
						<effecttype>transition</effecttype>
						<mediatype>audio</mediatype>
					</effect>
				</transitionitem>
				<transitionitem id="1048946092 ">
					<rate>
						<ntsc>FALSE</ntsc>
						<timebase>25</timebase>
					</rate>
					<start>25227</start>
					<end>25233</end>
					<alignment>start-black</alignment>
					<effect>
						<name>Cross Fade (+3dB) Copy</name>
						<effecttype>transition</effecttype>
						<mediatype>audio</mediatype>
					</effect>
				</transitionitem>
				<clipitem id="msub200012-2208k1d2-007 4">
					<name>msub200012-2208k1d2-007</name>
					<duration>9283</duration>
					<rate>
						<ntsc>FALSE</ntsc>
						<timebase>25</timebase>
					</rate>
					<in>394</in>
					<out>521</out>
					<start>-1</start>
					<end>-1</end>
					<subframeoffset>0</subframeoffset>
					<masterclipid>msub200012-2208k1d2-007 1</masterclipid>
					<logginginfo>
						<description>msub200012-2208k1d2-007</description>
						<scene/>
						<shottake/>
						<lognote/>
						<good>FALSE</good>
					</logginginfo>
					<labels>
						<label2/>
					</labels>
					<comments>
						<mastercomment1>RÃ…STOFF. BR_FINFREDAG_MSUA_OPRO</mastercomment1>
						<mastercomment2/>
						<mastercomment3/>
						<mastercomment4/>
					</comments>
					<file id="msub200012-2208k1d2-007 2"/>
					<filter>
						<start>-1</start>
						<end>-1</end>
						<effect>
							<name>3 Band Equalizer - Kristine</name>
							<effecttype>filter</effecttype>
							<mediatype>audio</mediatype>
							<parameter>
								<parameterid>Low Frequency</parameterid>
								<name>Low Frequency</name>
								<valuemin>80</valuemin>
								<valuemax>2000</valuemax>
								<value>80</value>
							</parameter>
							<parameter>
								<parameterid>Low Gain(dB)</parameterid>
								<name>Low Gain(dB)</name>
								<valuemin>-20</valuemin>
								<valuemax>20</valuemax>
								<value>-4</value>
							</parameter>
							<parameter>
								<parameterid>Mid Frequency</parameterid>
								<name>Mid Frequency</name>
								<valuemin>400</valuemin>
								<valuemax>8000</valuemax>
								<value>3602</value>
							</parameter>
							<parameter>
								<parameterid>Mid Gain(dB)</parameterid>
								<name>Mid Gain(dB)</name>
								<valuemin>-20</valuemin>
								<valuemax>20</valuemax>
								<value>3</value>
							</parameter>
							<parameter>
								<parameterid>High Frequency</parameterid>
								<name>High Frequency</name>
								<valuemin>5000</valuemin>
								<valuemax>20000</valuemax>
								<value>10354</value>
							</parameter>
							<parameter>
								<parameterid>High Gain(dB)</parameterid>
								<name>High Gain(dB)</name>
								<valuemin>-20</valuemin>
								<valuemax>20</valuemax>
								<value>0</value>
							</parameter>
						</effect>
					</filter>
					<filter>
						<start>-1</start>
						<end>-1</end>
						<effect>
							<name>Compressor/Limiter</name>
							<effecttype>filter</effecttype>
							<mediatype>audio</mediatype>
							<parameter>
								<parameterid>Threshold(dB)</parameterid>
								<name>Threshold(dB)</name>
								<valuemin>-90</valuemin>
								<valuemax>0</valuemax>
								<value>-20</value>
							</parameter>
							<parameter>
								<parameterid>Ratio</parameterid>
								<name>Ratio</name>
								<valuemin>1</valuemin>
								<valuemax>100</valuemax>
								<value>2</value>
							</parameter>
							<parameter>
								<parameterid>Attack Time</parameterid>
								<name>Attack Time</name>
								<valuemin>1</valuemin>
								<valuemax>100</valuemax>
								<value>5</value>
							</parameter>
							<parameter>
								<parameterid>Release Time</parameterid>
								<name>Release Time</name>
								<valuemin>1</valuemin>
								<valuemax>4000</valuemax>
								<value>209</value>
							</parameter>
							<parameter>
								<parameterid>Preserve Volume</parameterid>
								<name>Preserve Volume</name>
								<value>TRUE</value>
							</parameter>
						</effect>
					</filter>
					<filter>
						<effect>
							<name>Audio Levels</name>
							<effectid>audiolevels</effectid>
							<effectcategory>audiolevels</effectcategory>
							<effecttype>audiolevels</effecttype>
							<mediatype>audio</mediatype>
							<parameter>
								<name>Level</name>
								<parameterid>level</parameterid>
								<valuemin>0</valuemin>
								<valuemax>3.98109</valuemax>
								<keyframe>
									<when>448.571</when>
									<value>0.1</value>
								</keyframe>
								<keyframe>
									<when>456.286</when>
									<value>0.251189</value>
								</keyframe>
								<keyframe>
									<when>482</when>
									<value>0.251189</value>
								</keyframe>
								<keyframe>
									<when>484.571</when>
									<value>1.12202</value>
								</keyframe>
								<keyframe>
									<when>497.429</when>
									<value>1.12202</value>
								</keyframe>
								<keyframe>
									<when>507.286</when>
									<value>0.223872</value>
								</keyframe>
								<keyframe>
									<when>535.143</when>
									<value>0.223872</value>
								</keyframe>
								<keyframe>
									<when>539.429</when>
									<value>1</value>
								</keyframe>
								<keyframe>
									<when>544.571</when>
									<value>1</value>
								</keyframe>
								<keyframe>
									<when>548.429</when>
									<value>0.354813</value>
								</keyframe>
								<keyframe>
									<when>586.25</when>
									<value>0.354813</value>
								</keyframe>
								<keyframe>
									<when>598.893</when>
									<value>1</value>
								</keyframe>
								<keyframe>
									<when>607.036</when>
									<value>1</value>
								</keyframe>
								<keyframe>
									<when>613.143</when>
									<value>0.281838</value>
								</keyframe>
								<keyframe>
									<when>686</when>
									<value>0.281838</value>
								</keyframe>
								<keyframe>
									<when>692.857</when>
									<value>1.58489</value>
								</keyframe>
								<interpolation>
									<name>FCPCurve</name>
								</interpolation>
								<value>1</value>
							</parameter>
						</effect>
					</filter>
					<filter>
						<effect>
							<name>Audio Pan</name>
							<effectid>audiopan</effectid>
							<effectcategory>audiopan</effectcategory>
							<effecttype>audiopan</effecttype>
							<mediatype>audio</mediatype>
							<parameter>
								<name>Pan</name>
								<parameterid>pan</parameterid>
								<valuemin>-1</valuemin>
								<valuemax>1</valuemax>
								<value>0</value>
							</parameter>
						</effect>
					</filter>
					<sourcetrack>
						<mediatype>audio</mediatype>
						<trackindex>2</trackindex>
					</sourcetrack>
					<link>
						<linkclipref>msub200012-2208k1d2-007 </linkclipref>
						<mediatype>video</mediatype>
						<trackindex>1</trackindex>
						<clipindex>99</clipindex>
					</link>
					<link>
						<linkclipref>msub200012-2208k1d2-007 3</linkclipref>
						<mediatype>audio</mediatype>
						<trackindex>1</trackindex>
						<clipindex>96</clipindex>
					</link>
					<link>
						<linkclipref>msub200012-2208k1d2-007 4</linkclipref>
						<mediatype>audio</mediatype>
						<trackindex>2</trackindex>
						<clipindex>96</clipindex>
					</link>
				</clipitem>
				<transitionitem id="38">
					<rate>
						<ntsc>FALSE</ntsc>
						<timebase>25</timebase>
					</rate>
					<start>25352</start>
					<end>25354</end>
					<alignment>center</alignment>
					<effect>
						<name>Cross Fade ( 0dB)</name>
						<effecttype>transition</effecttype>
						<mediatype>audio</mediatype>
					</effect>
				</transitionitem>
				<clipitem id="msub200012-2208k1d2-007 6">
					<name>msub200012-2208k1d2-007</name>
					<duration>9283</duration>
					<rate>
						<ntsc>FALSE</ntsc>
						<timebase>25</timebase>
					</rate>
					<in>621</in>
					<out>712</out>
					<start>-1</start>
					<end>-1</end>
					<subframeoffset>0</subframeoffset>
					<masterclipid>msub200012-2208k1d2-007 1</masterclipid>
					<logginginfo>
						<description>msub200012-2208k1d2-007</description>
						<scene/>
						<shottake/>
						<lognote/>
						<good>FALSE</good>
					</logginginfo>
					<labels>
						<label2/>
					</labels>
					<comments>
						<mastercomment1>RÃ…STOFF. BR_FINFREDAG_MSUA_OPRO</mastercomment1>
						<mastercomment2/>
						<mastercomment3/>
						<mastercomment4/>
					</comments>
					<file id="msub200012-2208k1d2-007 2"/>
					<filter>
						<start>-1</start>
						<end>-1</end>
						<effect>
							<name>3 Band Equalizer - Kristine</name>
							<effecttype>filter</effecttype>
							<mediatype>audio</mediatype>
							<parameter>
								<parameterid>Low Frequency</parameterid>
								<name>Low Frequency</name>
								<valuemin>80</valuemin>
								<valuemax>2000</valuemax>
								<value>80</value>
							</parameter>
							<parameter>
								<parameterid>Low Gain(dB)</parameterid>
								<name>Low Gain(dB)</name>
								<valuemin>-20</valuemin>
								<valuemax>20</valuemax>
								<value>-4</value>
							</parameter>
							<parameter>
								<parameterid>Mid Frequency</parameterid>
								<name>Mid Frequency</name>
								<valuemin>400</valuemin>
								<valuemax>8000</valuemax>
								<value>3602</value>
							</parameter>
							<parameter>
								<parameterid>Mid Gain(dB)</parameterid>
								<name>Mid Gain(dB)</name>
								<valuemin>-20</valuemin>
								<valuemax>20</valuemax>
								<value>3</value>
							</parameter>
							<parameter>
								<parameterid>High Frequency</parameterid>
								<name>High Frequency</name>
								<valuemin>5000</valuemin>
								<valuemax>20000</valuemax>
								<value>10354</value>
							</parameter>
							<parameter>
								<parameterid>High Gain(dB)</parameterid>
								<name>High Gain(dB)</name>
								<valuemin>-20</valuemin>
								<valuemax>20</valuemax>
								<value>0</value>
							</parameter>
						</effect>
					</filter>
					<filter>
						<start>-1</start>
						<end>-1</end>
						<effect>
							<name>Compressor/Limiter</name>
							<effecttype>filter</effecttype>
							<mediatype>audio</mediatype>
							<parameter>
								<parameterid>Threshold(dB)</parameterid>
								<name>Threshold(dB)</name>
								<valuemin>-90</valuemin>
								<valuemax>0</valuemax>
								<value>-20</value>
							</parameter>
							<parameter>
								<parameterid>Ratio</parameterid>
								<name>Ratio</name>
								<valuemin>1</valuemin>
								<valuemax>100</valuemax>
								<value>2</value>
							</parameter>
							<parameter>
								<parameterid>Attack Time</parameterid>
								<name>Attack Time</name>
								<valuemin>1</valuemin>
								<valuemax>100</valuemax>
								<value>5</value>
							</parameter>
							<parameter>
								<parameterid>Release Time</parameterid>
								<name>Release Time</name>
								<valuemin>1</valuemin>
								<valuemax>4000</valuemax>
								<value>209</value>
							</parameter>
							<parameter>
								<parameterid>Preserve Volume</parameterid>
								<name>Preserve Volume</name>
								<value>TRUE</value>
							</parameter>
						</effect>
					</filter>
					<filter>
						<effect>
							<name>Audio Levels</name>
							<effectid>audiolevels</effectid>
							<effectcategory>audiolevels</effectcategory>
							<effecttype>audiolevels</effecttype>
							<mediatype>audio</mediatype>
							<parameter>
								<name>Level</name>
								<parameterid>level</parameterid>
								<valuemin>0</valuemin>
								<valuemax>3.98109</valuemax>
								<keyframe>
									<when>448.571</when>
									<value>0.158489</value>
								</keyframe>
								<keyframe>
									<when>456.286</when>
									<value>0.398107</value>
								</keyframe>
								<keyframe>
									<when>482</when>
									<value>0.398107</value>
								</keyframe>
								<keyframe>
									<when>484.571</when>
									<value>1.12202</value>
								</keyframe>
								<keyframe>
									<when>497.429</when>
									<value>1.12202</value>
								</keyframe>
								<keyframe>
									<when>507.286</when>
									<value>0.354813</value>
								</keyframe>
								<keyframe>
									<when>535.143</when>
									<value>0.354813</value>
								</keyframe>
								<keyframe>
									<when>539.429</when>
									<value>1</value>
								</keyframe>
								<keyframe>
									<when>544.571</when>
									<value>1</value>
								</keyframe>
								<keyframe>
									<when>548.429</when>
									<value>0.354813</value>
								</keyframe>
								<keyframe>
									<when>586.25</when>
									<value>0.354813</value>
								</keyframe>
								<keyframe>
									<when>598.893</when>
									<value>1</value>
								</keyframe>
								<keyframe>
									<when>607.036</when>
									<value>1</value>
								</keyframe>
								<keyframe>
									<when>613.143</when>
									<value>0.177828</value>
								</keyframe>
								<keyframe>
									<when>686</when>
									<value>0.177828</value>
								</keyframe>
								<keyframe>
									<when>692.857</when>
									<value>1</value>
								</keyframe>
								<interpolation>
									<name>FCPCurve</name>
								</interpolation>
								<value>1</value>
							</parameter>
						</effect>
					</filter>
					<filter>
						<effect>
							<name>Audio Pan</name>
							<effectid>audiopan</effectid>
							<effectcategory>audiopan</effectcategory>
							<effecttype>audiopan</effecttype>
							<mediatype>audio</mediatype>
							<parameter>
								<name>Pan</name>
								<parameterid>pan</parameterid>
								<valuemin>-1</valuemin>
								<valuemax>1</valuemax>
								<value>0</value>
							</parameter>
						</effect>
					</filter>
					<sourcetrack>
						<mediatype>audio</mediatype>
						<trackindex>2</trackindex>
					</sourcetrack>
					<link>
						<linkclipref>msub200012-2208k1d2-007 5</linkclipref>
						<mediatype>video</mediatype>
						<trackindex>1</trackindex>
						<clipindex>100</clipindex>
					</link>
					<link>
						<linkclipref>msub200012-2208k1d2-007 6</linkclipref>
						<mediatype>audio</mediatype>
						<trackindex>2</trackindex>
						<clipindex>98</clipindex>
					</link>
				</clipitem>
				<transitionitem id="1048955136 ">
					<rate>
						<ntsc>FALSE</ntsc>
						<timebase>25</timebase>
					</rate>
					<start>25441</start>
					<end>25443</end>
					<alignment>center</alignment>
					<effect>
						<name>Cross Fade (+3dB) Copy</name>
						<effecttype>transition</effecttype>
						<mediatype>audio</mediatype>
					</effect>
				</transitionitem>
				<clipitem id="msub200012-2208k1d2-007 8">
					<name>msub200012-2208k1d2-007</name>
					<duration>9283</duration>
					<rate>
						<ntsc>FALSE</ntsc>
						<timebase>25</timebase>
					</rate>
					<in>1419</in>
					<out>1478</out>
					<start>-1</start>
					<end>-1</end>
					<subframeoffset>0</subframeoffset>
					<enabled>TRUE</enabled>
					<masterclipid>msub200012-2208k1d2-007 1</masterclipid>
					<logginginfo>
						<description>msub200012-2208k1d2-007</description>
						<scene/>
						<shottake/>
						<lognote/>
						<good>FALSE</good>
					</logginginfo>
					<labels>
						<label2/>
					</labels>
					<comments>
						<mastercomment1>RÃ…STOFF. BR_FINFREDAG_MSUA_OPRO</mastercomment1>
						<mastercomment2/>
						<mastercomment3/>
						<mastercomment4/>
					</comments>
					<file id="msub200012-2208k1d2-007 2"/>
					<filter>
						<enabled>TRUE</enabled>
						<start>-1</start>
						<end>-1</end>
						<effect>
							<name>3 Band Equalizer - Kristine</name>
							<effecttype>filter</effecttype>
							<mediatype>audio</mediatype>
							<parameter>
								<parameterid>Low Frequency</parameterid>
								<name>Low Frequency</name>
								<valuemin>80</valuemin>
								<valuemax>2000</valuemax>
								<value>100</value>
							</parameter>
							<parameter>
								<parameterid>Low Gain(dB)</parameterid>
								<name>Low Gain(dB)</name>
								<valuemin>-20</valuemin>
								<valuemax>20</valuemax>
								<value>-4</value>
							</parameter>
							<parameter>
								<parameterid>Mid Frequency</parameterid>
								<name>Mid Frequency</name>
								<valuemin>400</valuemin>
								<valuemax>8000</valuemax>
								<value>3602</value>
							</parameter>
							<parameter>
								<parameterid>Mid Gain(dB)</parameterid>
								<name>Mid Gain(dB)</name>
								<valuemin>-20</valuemin>
								<valuemax>20</valuemax>
								<value>3</value>
							</parameter>
							<parameter>
								<parameterid>High Frequency</parameterid>
								<name>High Frequency</name>
								<valuemin>5000</valuemin>
								<valuemax>20000</valuemax>
								<value>10354</value>
							</parameter>
							<parameter>
								<parameterid>High Gain(dB)</parameterid>
								<name>High Gain(dB)</name>
								<valuemin>-20</valuemin>
								<valuemax>20</valuemax>
								<value>0</value>
							</parameter>
						</effect>
					</filter>
					<filter>
						<enabled>TRUE</enabled>
						<start>-1</start>
						<end>-1</end>
						<effect>
							<name>Compressor/Limiter</name>
							<effecttype>filter</effecttype>
							<mediatype>audio</mediatype>
							<parameter>
								<parameterid>Threshold(dB)</parameterid>
								<name>Threshold(dB)</name>
								<valuemin>-90</valuemin>
								<valuemax>0</valuemax>
								<value>-20</value>
							</parameter>
							<parameter>
								<parameterid>Ratio</parameterid>
								<name>Ratio</name>
								<valuemin>1</valuemin>
								<valuemax>100</valuemax>
								<value>2</value>
							</parameter>
							<parameter>
								<parameterid>Attack Time</parameterid>
								<name>Attack Time</name>
								<valuemin>1</valuemin>
								<valuemax>100</valuemax>
								<value>5</value>
							</parameter>
							<parameter>
								<parameterid>Release Time</parameterid>
								<name>Release Time</name>
								<valuemin>1</valuemin>
								<valuemax>4000</valuemax>
								<value>209</value>
							</parameter>
							<parameter>
								<parameterid>Preserve Volume</parameterid>
								<name>Preserve Volume</name>
								<value>TRUE</value>
							</parameter>
						</effect>
					</filter>
					<filter>
						<effect>
							<name>Audio Levels</name>
							<effectid>audiolevels</effectid>
							<effectcategory>audiolevels</effectcategory>
							<effecttype>audiolevels</effecttype>
							<mediatype>audio</mediatype>
							<parameter>
								<name>Level</name>
								<parameterid>level</parameterid>
								<valuemin>0</valuemin>
								<valuemax>3.98109</valuemax>
								<keyframe>
									<when>1456.71</when>
									<value>1.12202</value>
								</keyframe>
								<keyframe>
									<when>1458.43</when>
									<value>1.25893</value>
								</keyframe>
								<keyframe>
									<when>1539</when>
									<value>1.41254</value>
								</keyframe>
								<interpolation>
									<name>FCPCurve</name>
								</interpolation>
								<value>1.29433</value>
							</parameter>
						</effect>
					</filter>
					<filter>
						<effect>
							<name>Audio Pan</name>
							<effectid>audiopan</effectid>
							<effectcategory>audiopan</effectcategory>
							<effecttype>audiopan</effecttype>
							<mediatype>audio</mediatype>
							<parameter>
								<name>Pan</name>
								<parameterid>pan</parameterid>
								<valuemin>-1</valuemin>
								<valuemax>1</valuemax>
								<value>0</value>
							</parameter>
						</effect>
					</filter>
					<sourcetrack>
						<mediatype>audio</mediatype>
						<trackindex>2</trackindex>
					</sourcetrack>
					<link>
						<linkclipref>msub200012-2208k1d2-007 7</linkclipref>
						<mediatype>video</mediatype>
						<trackindex>1</trackindex>
						<clipindex>101</clipindex>
					</link>
					<link>
						<linkclipref>msub200012-2208k1d2-007 8</linkclipref>
						<mediatype>audio</mediatype>
						<trackindex>2</trackindex>
						<clipindex>100</clipindex>
					</link>
				</clipitem>
				<transitionitem id="39">
					<rate>
						<ntsc>FALSE</ntsc>
						<timebase>25</timebase>
					</rate>
					<start>25498</start>
					<end>25500</end>
					<alignment>center</alignment>
					<effect>
						<name>Cross Fade ( 0dB)</name>
						<effecttype>transition</effecttype>
						<mediatype>audio</mediatype>
					</effect>
				</transitionitem>
				<clipitem id="msub200012-2208k1d2-010 3">
					<name>msub200012-2208k1d2-010</name>
					<duration>10049</duration>
					<rate>
						<ntsc>FALSE</ntsc>
						<timebase>25</timebase>
					</rate>
					<in>1469</in>
					<out>1507</out>
					<start>-1</start>
					<end>-1</end>
					<subframeoffset>0</subframeoffset>
					<enabled>TRUE</enabled>
					<masterclipid>msub200012-2208k1d2-010 1</masterclipid>
					<logginginfo>
						<description>msub200012-2208k1d2-010</description>
						<scene/>
						<shottake/>
						<lognote/>
						<good>FALSE</good>
					</logginginfo>
					<labels>
						<label2/>
					</labels>
					<comments>
						<mastercomment1>RÃ…STOFF. BR_FINFREDAG_MSUA_OPRO</mastercomment1>
						<mastercomment2/>
						<mastercomment3/>
						<mastercomment4/>
					</comments>
					<file id="msub200012-2208k1d2-010 2"/>
					<filter>
						<enabled>TRUE</enabled>
						<start>-1</start>
						<end>-1</end>
						<effect>
							<name>3 Band Equalizer - Mann</name>
							<effecttype>filter</effecttype>
							<mediatype>audio</mediatype>
							<parameter>
								<parameterid>Low Frequency</parameterid>
								<name>Low Frequency</name>
								<valuemin>80</valuemin>
								<valuemax>2000</valuemax>
								<value>100</value>
							</parameter>
							<parameter>
								<parameterid>Low Gain(dB)</parameterid>
								<name>Low Gain(dB)</name>
								<valuemin>-20</valuemin>
								<valuemax>20</valuemax>
								<value>-4</value>
							</parameter>
							<parameter>
								<parameterid>Mid Frequency</parameterid>
								<name>Mid Frequency</name>
								<valuemin>400</valuemin>
								<valuemax>8000</valuemax>
								<value>3602</value>
							</parameter>
							<parameter>
								<parameterid>Mid Gain(dB)</parameterid>
								<name>Mid Gain(dB)</name>
								<valuemin>-20</valuemin>
								<valuemax>20</valuemax>
								<value>3</value>
							</parameter>
							<parameter>
								<parameterid>High Frequency</parameterid>
								<name>High Frequency</name>
								<valuemin>5000</valuemin>
								<valuemax>20000</valuemax>
								<value>10354</value>
							</parameter>
							<parameter>
								<parameterid>High Gain(dB)</parameterid>
								<name>High Gain(dB)</name>
								<valuemin>-20</valuemin>
								<valuemax>20</valuemax>
								<value>0</value>
							</parameter>
						</effect>
					</filter>
					<filter>
						<enabled>TRUE</enabled>
						<start>-1</start>
						<end>-1</end>
						<effect>
							<name>Compressor/Limiter</name>
							<effecttype>filter</effecttype>
							<mediatype>audio</mediatype>
							<parameter>
								<parameterid>Threshold(dB)</parameterid>
								<name>Threshold(dB)</name>
								<valuemin>-90</valuemin>
								<valuemax>0</valuemax>
								<value>-20</value>
							</parameter>
							<parameter>
								<parameterid>Ratio</parameterid>
								<name>Ratio</name>
								<valuemin>1</valuemin>
								<valuemax>100</valuemax>
								<value>2</value>
							</parameter>
							<parameter>
								<parameterid>Attack Time</parameterid>
								<name>Attack Time</name>
								<valuemin>1</valuemin>
								<valuemax>100</valuemax>
								<value>5</value>
							</parameter>
							<parameter>
								<parameterid>Release Time</parameterid>
								<name>Release Time</name>
								<valuemin>1</valuemin>
								<valuemax>4000</valuemax>
								<value>209</value>
							</parameter>
							<parameter>
								<parameterid>Preserve Volume</parameterid>
								<name>Preserve Volume</name>
								<value>TRUE</value>
							</parameter>
						</effect>
					</filter>
					<filter>
						<effect>
							<name>Audio Levels</name>
							<effectid>audiolevels</effectid>
							<effectcategory>audiolevels</effectcategory>
							<effecttype>audiolevels</effecttype>
							<mediatype>audio</mediatype>
							<parameter>
								<name>Level</name>
								<parameterid>level</parameterid>
								<valuemin>0</valuemin>
								<valuemax>3.98109</valuemax>
								<keyframe>
									<when>1528.43</when>
									<value>1.12202</value>
								</keyframe>
								<keyframe>
									<when>1536.57</when>
									<value>1.99526</value>
								</keyframe>
								<keyframe>
									<when>1571.71</when>
									<value>2.51189</value>
								</keyframe>
								<interpolation>
									<name>FCPCurve</name>
								</interpolation>
								<value>1.12202</value>
							</parameter>
						</effect>
					</filter>
					<filter>
						<effect>
							<name>Audio Pan</name>
							<effectid>audiopan</effectid>
							<effectcategory>audiopan</effectcategory>
							<effecttype>audiopan</effecttype>
							<mediatype>audio</mediatype>
							<parameter>
								<name>Pan</name>
								<parameterid>pan</parameterid>
								<valuemin>-1</valuemin>
								<valuemax>1</valuemax>
								<value>0</value>
							</parameter>
						</effect>
					</filter>
					<sourcetrack>
						<mediatype>audio</mediatype>
						<trackindex>2</trackindex>
					</sourcetrack>
					<link>
						<linkclipref>msub200012-2208k1d2-010 </linkclipref>
						<mediatype>video</mediatype>
						<trackindex>1</trackindex>
						<clipindex>102</clipindex>
					</link>
					<link>
						<linkclipref>msub200012-2208k1d2-010 3</linkclipref>
						<mediatype>audio</mediatype>
						<trackindex>2</trackindex>
						<clipindex>102</clipindex>
					</link>
				</clipitem>
				<transitionitem id="40">
					<rate>
						<ntsc>FALSE</ntsc>
						<timebase>25</timebase>
					</rate>
					<start>25534</start>
					<end>25536</end>
					<alignment>center</alignment>
					<effect>
						<name>Cross Fade ( 0dB)</name>
						<effecttype>transition</effecttype>
						<mediatype>audio</mediatype>
					</effect>
				</transitionitem>
				<clipitem id="msub200012-2208k1d2-010 5">
					<name>msub200012-2208k1d2-010</name>
					<duration>10049</duration>
					<rate>
						<ntsc>FALSE</ntsc>
						<timebase>25</timebase>
					</rate>
					<in>5558</in>
					<out>5629</out>
					<start>-1</start>
					<end>-1</end>
					<subframeoffset>0</subframeoffset>
					<enabled>TRUE</enabled>
					<masterclipid>msub200012-2208k1d2-010 1</masterclipid>
					<logginginfo>
						<description>msub200012-2208k1d2-010</description>
						<scene/>
						<shottake/>
						<lognote/>
						<good>FALSE</good>
					</logginginfo>
					<labels>
						<label2/>
					</labels>
					<comments>
						<mastercomment1>RÃ…STOFF. BR_FINFREDAG_MSUA_OPRO</mastercomment1>
						<mastercomment2/>
						<mastercomment3/>
						<mastercomment4/>
					</comments>
					<file id="msub200012-2208k1d2-010 2"/>
					<filter>
						<enabled>TRUE</enabled>
						<start>-1</start>
						<end>-1</end>
						<effect>
							<name>3 Band Equalizer - Mann</name>
							<effecttype>filter</effecttype>
							<mediatype>audio</mediatype>
							<parameter>
								<parameterid>Low Frequency</parameterid>
								<name>Low Frequency</name>
								<valuemin>80</valuemin>
								<valuemax>2000</valuemax>
								<value>100</value>
							</parameter>
							<parameter>
								<parameterid>Low Gain(dB)</parameterid>
								<name>Low Gain(dB)</name>
								<valuemin>-20</valuemin>
								<valuemax>20</valuemax>
								<value>-4</value>
							</parameter>
							<parameter>
								<parameterid>Mid Frequency</parameterid>
								<name>Mid Frequency</name>
								<valuemin>400</valuemin>
								<valuemax>8000</valuemax>
								<value>3602</value>
							</parameter>
							<parameter>
								<parameterid>Mid Gain(dB)</parameterid>
								<name>Mid Gain(dB)</name>
								<valuemin>-20</valuemin>
								<valuemax>20</valuemax>
								<value>3</value>
							</parameter>
							<parameter>
								<parameterid>High Frequency</parameterid>
								<name>High Frequency</name>
								<valuemin>5000</valuemin>
								<valuemax>20000</valuemax>
								<value>10354</value>
							</parameter>
							<parameter>
								<parameterid>High Gain(dB)</parameterid>
								<name>High Gain(dB)</name>
								<valuemin>-20</valuemin>
								<valuemax>20</valuemax>
								<value>0</value>
							</parameter>
						</effect>
					</filter>
					<filter>
						<enabled>TRUE</enabled>
						<start>-1</start>
						<end>-1</end>
						<effect>
							<name>Compressor/Limiter</name>
							<effecttype>filter</effecttype>
							<mediatype>audio</mediatype>
							<parameter>
								<parameterid>Threshold(dB)</parameterid>
								<name>Threshold(dB)</name>
								<valuemin>-90</valuemin>
								<valuemax>0</valuemax>
								<value>-20</value>
							</parameter>
							<parameter>
								<parameterid>Ratio</parameterid>
								<name>Ratio</name>
								<valuemin>1</valuemin>
								<valuemax>100</valuemax>
								<value>2</value>
							</parameter>
							<parameter>
								<parameterid>Attack Time</parameterid>
								<name>Attack Time</name>
								<valuemin>1</valuemin>
								<valuemax>100</valuemax>
								<value>5</value>
							</parameter>
							<parameter>
								<parameterid>Release Time</parameterid>
								<name>Release Time</name>
								<valuemin>1</valuemin>
								<valuemax>4000</valuemax>
								<value>209</value>
							</parameter>
							<parameter>
								<parameterid>Preserve Volume</parameterid>
								<name>Preserve Volume</name>
								<value>TRUE</value>
							</parameter>
						</effect>
					</filter>
					<filter>
						<effect>
							<name>Audio Levels</name>
							<effectid>audiolevels</effectid>
							<effectcategory>audiolevels</effectcategory>
							<effecttype>audiolevels</effecttype>
							<mediatype>audio</mediatype>
							<parameter>
								<name>Level</name>
								<parameterid>level</parameterid>
								<valuemin>0</valuemin>
								<valuemax>3.98109</valuemax>
								<value>1.12202</value>
							</parameter>
						</effect>
					</filter>
					<filter>
						<effect>
							<name>Audio Pan</name>
							<effectid>audiopan</effectid>
							<effectcategory>audiopan</effectcategory>
							<effecttype>audiopan</effecttype>
							<mediatype>audio</mediatype>
							<parameter>
								<name>Pan</name>
								<parameterid>pan</parameterid>
								<valuemin>-1</valuemin>
								<valuemax>1</valuemax>
								<value>0</value>
							</parameter>
						</effect>
					</filter>
					<sourcetrack>
						<mediatype>audio</mediatype>
						<trackindex>2</trackindex>
					</sourcetrack>
					<link>
						<linkclipref>msub200012-2208k1d2-010 4</linkclipref>
						<mediatype>video</mediatype>
						<trackindex>1</trackindex>
						<clipindex>103</clipindex>
					</link>
					<link>
						<linkclipref>msub200012-2208k1d2-010 5</linkclipref>
						<mediatype>audio</mediatype>
						<trackindex>2</trackindex>
						<clipindex>104</clipindex>
					</link>
				</clipitem>
				<transitionitem id="41">
					<rate>
						<ntsc>FALSE</ntsc>
						<timebase>25</timebase>
					</rate>
					<start>25599</start>
					<end>25605</end>
					<alignment>end-black</alignment>
					<effect>
						<name>Cross Fade (+3dB) Copy</name>
						<effecttype>transition</effecttype>
						<mediatype>audio</mediatype>
					</effect>
				</transitionitem>
				<transitionitem id="1049006668 ">
					<rate>
						<ntsc>FALSE</ntsc>
						<timebase>25</timebase>
					</rate>
					<start>25638</start>
					<end>25663</end>
					<alignment>end</alignment>
					<effect>
						<name>Cross Fade (+3dB) Copy</name>
						<effecttype>transition</effecttype>
						<mediatype>audio</mediatype>
					</effect>
				</transitionitem>
				<clipitem id="msub200012-2408-k1d2-012 4">
					<name>msub200012-2408-k1d2-012</name>
					<duration>1623</duration>
					<rate>
						<ntsc>FALSE</ntsc>
						<timebase>25</timebase>
					</rate>
					<in>835</in>
					<out>1103</out>
					<start>-1</start>
					<end>-1</end>
					<subframeoffset>0</subframeoffset>
					<enabled>TRUE</enabled>
					<masterclipid>msub200012-2408-k1d2-012 1</masterclipid>
					<logginginfo>
						<description>msub200012-2408-k1d2-012</description>
						<scene/>
						<shottake/>
						<lognote/>
						<good>FALSE</good>
					</logginginfo>
					<labels>
						<label2/>
					</labels>
					<comments>
						<mastercomment1>RÃ…STOFF. BR_FINFREDAG_MSUA_OPRO</mastercomment1>
						<mastercomment2/>
						<mastercomment3/>
						<mastercomment4/>
					</comments>
					<file id="msub200012-2408-k1d2-012 2"/>
					<filter>
						<enabled>TRUE</enabled>
						<start>-1</start>
						<end>-1</end>
						<effect>
							<name>Compressor/Limiter</name>
							<effecttype>filter</effecttype>
							<mediatype>audio</mediatype>
							<parameter>
								<parameterid>Threshold(dB)</parameterid>
								<name>Threshold(dB)</name>
								<valuemin>-90</valuemin>
								<valuemax>0</valuemax>
								<value>-20</value>
							</parameter>
							<parameter>
								<parameterid>Ratio</parameterid>
								<name>Ratio</name>
								<valuemin>1</valuemin>
								<valuemax>100</valuemax>
								<value>2</value>
							</parameter>
							<parameter>
								<parameterid>Attack Time</parameterid>
								<name>Attack Time</name>
								<valuemin>1</valuemin>
								<valuemax>100</valuemax>
								<value>5</value>
							</parameter>
							<parameter>
								<parameterid>Release Time</parameterid>
								<name>Release Time</name>
								<valuemin>1</valuemin>
								<valuemax>4000</valuemax>
								<value>209</value>
							</parameter>
							<parameter>
								<parameterid>Preserve Volume</parameterid>
								<name>Preserve Volume</name>
								<value>TRUE</value>
							</parameter>
						</effect>
					</filter>
					<filter>
						<enabled>TRUE</enabled>
						<start>-1</start>
						<end>-1</end>
						<effect>
							<name>3 Band Equalizer - Mann</name>
							<effecttype>filter</effecttype>
							<mediatype>audio</mediatype>
							<parameter>
								<parameterid>Low Frequency</parameterid>
								<name>Low Frequency</name>
								<valuemin>80</valuemin>
								<valuemax>2000</valuemax>
								<value>100</value>
							</parameter>
							<parameter>
								<parameterid>Low Gain(dB)</parameterid>
								<name>Low Gain(dB)</name>
								<valuemin>-20</valuemin>
								<valuemax>20</valuemax>
								<value>-4</value>
							</parameter>
							<parameter>
								<parameterid>Mid Frequency</parameterid>
								<name>Mid Frequency</name>
								<valuemin>400</valuemin>
								<valuemax>8000</valuemax>
								<value>3602</value>
							</parameter>
							<parameter>
								<parameterid>Mid Gain(dB)</parameterid>
								<name>Mid Gain(dB)</name>
								<valuemin>-20</valuemin>
								<valuemax>20</valuemax>
								<value>3</value>
							</parameter>
							<parameter>
								<parameterid>High Frequency</parameterid>
								<name>High Frequency</name>
								<valuemin>5000</valuemin>
								<valuemax>20000</valuemax>
								<value>10354</value>
							</parameter>
							<parameter>
								<parameterid>High Gain(dB)</parameterid>
								<name>High Gain(dB)</name>
								<valuemin>-20</valuemin>
								<valuemax>20</valuemax>
								<value>0</value>
							</parameter>
						</effect>
					</filter>
					<filter>
						<effect>
							<name>Audio Levels</name>
							<effectid>audiolevels</effectid>
							<effectcategory>audiolevels</effectcategory>
							<effecttype>audiolevels</effecttype>
							<mediatype>audio</mediatype>
							<parameter>
								<name>Level</name>
								<parameterid>level</parameterid>
								<valuemin>0</valuemin>
								<valuemax>3.98109</valuemax>
								<keyframe>
									<when>864</when>
									<value>0.562341</value>
								</keyframe>
								<keyframe>
									<when>875.429</when>
									<value>0.630957</value>
								</keyframe>
								<interpolation>
									<name>FCPCurve</name>
								</interpolation>
								<value>0.562341</value>
							</parameter>
						</effect>
					</filter>
					<filter>
						<effect>
							<name>Audio Pan</name>
							<effectid>audiopan</effectid>
							<effectcategory>audiopan</effectcategory>
							<effecttype>audiopan</effecttype>
							<mediatype>audio</mediatype>
							<parameter>
								<name>Pan</name>
								<parameterid>pan</parameterid>
								<valuemin>-1</valuemin>
								<valuemax>1</valuemax>
								<value>0.153846</value>
							</parameter>
						</effect>
					</filter>
					<sourcetrack>
						<mediatype>audio</mediatype>
						<trackindex>2</trackindex>
					</sourcetrack>
					<link>
						<linkclipref>msub200012-2408-k1d2-012 </linkclipref>
						<mediatype>video</mediatype>
						<trackindex>2</trackindex>
						<clipindex>35</clipindex>
					</link>
					<link>
						<linkclipref>msub200012-2408-k1d2-012 3</linkclipref>
						<mediatype>audio</mediatype>
						<trackindex>1</trackindex>
						<clipindex>100</clipindex>
					</link>
					<link>
						<linkclipref>msub200012-2408-k1d2-012 4</linkclipref>
						<mediatype>audio</mediatype>
						<trackindex>2</trackindex>
						<clipindex>107</clipindex>
					</link>
				</clipitem>
				<transitionitem id="1049010272 ">
					<rate>
						<ntsc>FALSE</ntsc>
						<timebase>25</timebase>
					</rate>
					<start>25881</start>
					<end>25906</end>
					<alignment>end-black</alignment>
					<effect>
						<name>Cross Fade (+3dB) Copy</name>
						<effecttype>transition</effecttype>
						<mediatype>audio</mediatype>
					</effect>
				</transitionitem>
				<clipitem id="msub200012-3011-k1d2-007 7">
					<name>msub200012-3011-k1d2-007</name>
					<duration>5622</duration>
					<rate>
						<ntsc>FALSE</ntsc>
						<timebase>25</timebase>
					</rate>
					<in>1075</in>
					<out>1744</out>
					<start>25969</start>
					<end>-1</end>
					<subframeoffset>0</subframeoffset>
					<enabled>TRUE</enabled>
					<masterclipid>msub200012-3011-k1d2-007 1</masterclipid>
					<syncoffset>0</syncoffset>
					<logginginfo>
						<description>msub200012-3011-k1d2-007</description>
						<scene/>
						<shottake/>
						<lognote/>
						<good>FALSE</good>
					</logginginfo>
					<labels>
						<label>Interviews</label>
						<label2/>
					</labels>
					<comments>
						<mastercomment1>RÃ…STOFF. BR_FINFREDAG_MSUA_OPRO</mastercomment1>
						<mastercomment2/>
						<mastercomment3/>
						<mastercomment4/>
						<clipcommenta/>
					</comments>
					<file id="msub200012-3011-k1d2-007 2"/>
					<filter>
						<enabled>TRUE</enabled>
						<start>-1</start>
						<end>-1</end>
						<effect>
							<name>3 Band Equalizer - Kristine</name>
							<effecttype>filter</effecttype>
							<mediatype>audio</mediatype>
							<parameter>
								<parameterid>Low Frequency</parameterid>
								<name>Low Frequency</name>
								<valuemin>80</valuemin>
								<valuemax>2000</valuemax>
								<value>80</value>
							</parameter>
							<parameter>
								<parameterid>Low Gain(dB)</parameterid>
								<name>Low Gain(dB)</name>
								<valuemin>-20</valuemin>
								<valuemax>20</valuemax>
								<value>-4</value>
							</parameter>
							<parameter>
								<parameterid>Mid Frequency</parameterid>
								<name>Mid Frequency</name>
								<valuemin>400</valuemin>
								<valuemax>8000</valuemax>
								<value>3602</value>
							</parameter>
							<parameter>
								<parameterid>Mid Gain(dB)</parameterid>
								<name>Mid Gain(dB)</name>
								<valuemin>-20</valuemin>
								<valuemax>20</valuemax>
								<value>3</value>
							</parameter>
							<parameter>
								<parameterid>High Frequency</parameterid>
								<name>High Frequency</name>
								<valuemin>5000</valuemin>
								<valuemax>20000</valuemax>
								<value>10354</value>
							</parameter>
							<parameter>
								<parameterid>High Gain(dB)</parameterid>
								<name>High Gain(dB)</name>
								<valuemin>-20</valuemin>
								<valuemax>20</valuemax>
								<value>0</value>
							</parameter>
						</effect>
					</filter>
					<filter>
						<enabled>TRUE</enabled>
						<start>-1</start>
						<end>-1</end>
						<effect>
							<name>Compressor/Limiter</name>
							<effecttype>filter</effecttype>
							<mediatype>audio</mediatype>
							<parameter>
								<parameterid>Threshold(dB)</parameterid>
								<name>Threshold(dB)</name>
								<valuemin>-90</valuemin>
								<valuemax>0</valuemax>
								<value>-20</value>
							</parameter>
							<parameter>
								<parameterid>Ratio</parameterid>
								<name>Ratio</name>
								<valuemin>1</valuemin>
								<valuemax>100</valuemax>
								<value>2</value>
							</parameter>
							<parameter>
								<parameterid>Attack Time</parameterid>
								<name>Attack Time</name>
								<valuemin>1</valuemin>
								<valuemax>100</valuemax>
								<value>5</value>
							</parameter>
							<parameter>
								<parameterid>Release Time</parameterid>
								<name>Release Time</name>
								<valuemin>1</valuemin>
								<valuemax>4000</valuemax>
								<value>209</value>
							</parameter>
							<parameter>
								<parameterid>Preserve Volume</parameterid>
								<name>Preserve Volume</name>
								<value>TRUE</value>
							</parameter>
						</effect>
					</filter>
					<filter>
						<effect>
							<name>Audio Levels</name>
							<effectid>audiolevels</effectid>
							<effectcategory>audiolevels</effectcategory>
							<effecttype>audiolevels</effecttype>
							<mediatype>audio</mediatype>
							<parameter>
								<name>Level</name>
								<parameterid>level</parameterid>
								<valuemin>0</valuemin>
								<valuemax>3.98109</valuemax>
								<keyframe>
									<when>1141.14</when>
									<value>0.158489</value>
								</keyframe>
								<keyframe>
									<when>1145.71</when>
									<value>1.41254</value>
								</keyframe>
								<keyframe>
									<when>1157.71</when>
									<value>1.41254</value>
								</keyframe>
								<keyframe>
									<when>1161.71</when>
									<value>0.0891251</value>
								</keyframe>
								<keyframe>
									<when>1219</when>
									<value>0.0891251</value>
								</keyframe>
								<keyframe>
									<when>1228.57</when>
									<value>2.23872</value>
								</keyframe>
								<keyframe>
									<when>1247.43</when>
									<value>1.99526</value>
								</keyframe>
								<keyframe>
									<when>1259.59</when>
									<value>0.141254</value>
								</keyframe>
								<keyframe>
									<when>1377.71</when>
									<value>0.158489</value>
								</keyframe>
								<keyframe>
									<when>1382</when>
									<value>0.499266</value>
								</keyframe>
								<keyframe>
									<when>1388.96</when>
									<value>0.585292</value>
								</keyframe>
								<keyframe>
									<when>1388.97</when>
									<value>0.158489</value>
								</keyframe>
								<keyframe>
									<when>1557.71</when>
									<value>0.158489</value>
								</keyframe>
								<keyframe>
									<when>1561.46</when>
									<value>1.99526</value>
								</keyframe>
								<keyframe>
									<when>1658.7</when>
									<value>1.58489</value>
								</keyframe>
								<keyframe>
									<when>1665.93</when>
									<value>0.158489</value>
								</keyframe>
								<keyframe>
									<when>1702.09</when>
									<value>0.158489</value>
								</keyframe>
								<keyframe>
									<when>1707.18</when>
									<value>1</value>
								</keyframe>
								<keyframe>
									<when>1717.36</when>
									<value>1.12202</value>
								</keyframe>
								<keyframe>
									<when>1719.5</when>
									<value>1.12202</value>
								</keyframe>
								<interpolation>
									<name>FCPCurve</name>
								</interpolation>
								<value>0.0891251</value>
							</parameter>
						</effect>
					</filter>
					<filter>
						<effect>
							<name>Audio Pan</name>
							<effectid>audiopan</effectid>
							<effectcategory>audiopan</effectcategory>
							<effecttype>audiopan</effecttype>
							<mediatype>audio</mediatype>
							<parameter>
								<name>Pan</name>
								<parameterid>pan</parameterid>
								<valuemin>-1</valuemin>
								<valuemax>1</valuemax>
								<value>0</value>
							</parameter>
						</effect>
					</filter>
					<sourcetrack>
						<mediatype>audio</mediatype>
						<trackindex>2</trackindex>
					</sourcetrack>
					<link>
						<linkclipref>msub200012-3011-k1d2-007 5</linkclipref>
						<mediatype>video</mediatype>
						<trackindex>1</trackindex>
						<clipindex>107</clipindex>
					</link>
					<link>
						<linkclipref>msub200012-3011-k1d2-007 6</linkclipref>
						<mediatype>audio</mediatype>
						<trackindex>1</trackindex>
						<clipindex>102</clipindex>
					</link>
					<link>
						<linkclipref>msub200012-3011-k1d2-007 7</linkclipref>
						<mediatype>audio</mediatype>
						<trackindex>2</trackindex>
						<clipindex>109</clipindex>
					</link>
				</clipitem>
				<transitionitem id="1049015100 ">
					<rate>
						<ntsc>FALSE</ntsc>
						<timebase>25</timebase>
					</rate>
					<start>26636</start>
					<end>26638</end>
					<alignment>center</alignment>
					<effect>
						<name>Cross Fade (+3dB) Copy</name>
						<effecttype>transition</effecttype>
						<mediatype>audio</mediatype>
					</effect>
				</transitionitem>
				<clipitem id="msub200012-3011-k1d2-007 11">
					<name>msub200012-3011-k1d2-007</name>
					<duration>5622</duration>
					<rate>
						<ntsc>FALSE</ntsc>
						<timebase>25</timebase>
					</rate>
					<in>2075</in>
					<out>2208</out>
					<start>-1</start>
					<end>-1</end>
					<subframeoffset>0</subframeoffset>
					<enabled>TRUE</enabled>
					<masterclipid>msub200012-3011-k1d2-007 1</masterclipid>
					<syncoffset>0</syncoffset>
					<logginginfo>
						<description>msub200012-3011-k1d2-007</description>
						<scene/>
						<shottake/>
						<lognote/>
						<good>FALSE</good>
					</logginginfo>
					<labels>
						<label>Interviews</label>
						<label2/>
					</labels>
					<comments>
						<mastercomment1>RÃ…STOFF. BR_FINFREDAG_MSUA_OPRO</mastercomment1>
						<mastercomment2/>
						<mastercomment3/>
						<mastercomment4/>
						<clipcommenta/>
					</comments>
					<file id="msub200012-3011-k1d2-007 2"/>
					<filter>
						<enabled>TRUE</enabled>
						<start>-1</start>
						<end>-1</end>
						<effect>
							<name>3 Band Equalizer - Kristine</name>
							<effecttype>filter</effecttype>
							<mediatype>audio</mediatype>
							<parameter>
								<parameterid>Low Frequency</parameterid>
								<name>Low Frequency</name>
								<valuemin>80</valuemin>
								<valuemax>2000</valuemax>
								<value>80</value>
							</parameter>
							<parameter>
								<parameterid>Low Gain(dB)</parameterid>
								<name>Low Gain(dB)</name>
								<valuemin>-20</valuemin>
								<valuemax>20</valuemax>
								<value>-4</value>
							</parameter>
							<parameter>
								<parameterid>Mid Frequency</parameterid>
								<name>Mid Frequency</name>
								<valuemin>400</valuemin>
								<valuemax>8000</valuemax>
								<value>3602</value>
							</parameter>
							<parameter>
								<parameterid>Mid Gain(dB)</parameterid>
								<name>Mid Gain(dB)</name>
								<valuemin>-20</valuemin>
								<valuemax>20</valuemax>
								<value>3</value>
							</parameter>
							<parameter>
								<parameterid>High Frequency</parameterid>
								<name>High Frequency</name>
								<valuemin>5000</valuemin>
								<valuemax>20000</valuemax>
								<value>10354</value>
							</parameter>
							<parameter>
								<parameterid>High Gain(dB)</parameterid>
								<name>High Gain(dB)</name>
								<valuemin>-20</valuemin>
								<valuemax>20</valuemax>
								<value>0</value>
							</parameter>
						</effect>
					</filter>
					<filter>
						<enabled>TRUE</enabled>
						<start>-1</start>
						<end>-1</end>
						<effect>
							<name>Compressor/Limiter</name>
							<effecttype>filter</effecttype>
							<mediatype>audio</mediatype>
							<parameter>
								<parameterid>Threshold(dB)</parameterid>
								<name>Threshold(dB)</name>
								<valuemin>-90</valuemin>
								<valuemax>0</valuemax>
								<value>-20</value>
							</parameter>
							<parameter>
								<parameterid>Ratio</parameterid>
								<name>Ratio</name>
								<valuemin>1</valuemin>
								<valuemax>100</valuemax>
								<value>2</value>
							</parameter>
							<parameter>
								<parameterid>Attack Time</parameterid>
								<name>Attack Time</name>
								<valuemin>1</valuemin>
								<valuemax>100</valuemax>
								<value>5</value>
							</parameter>
							<parameter>
								<parameterid>Release Time</parameterid>
								<name>Release Time</name>
								<valuemin>1</valuemin>
								<valuemax>4000</valuemax>
								<value>209</value>
							</parameter>
							<parameter>
								<parameterid>Preserve Volume</parameterid>
								<name>Preserve Volume</name>
								<value>TRUE</value>
							</parameter>
						</effect>
					</filter>
					<filter>
						<effect>
							<name>Audio Levels</name>
							<effectid>audiolevels</effectid>
							<effectcategory>audiolevels</effectcategory>
							<effecttype>audiolevels</effecttype>
							<mediatype>audio</mediatype>
							<parameter>
								<name>Level</name>
								<parameterid>level</parameterid>
								<valuemin>0</valuemin>
								<valuemax>3.98109</valuemax>
								<keyframe>
									<when>2143.3</when>
									<value>0.0891251</value>
								</keyframe>
								<keyframe>
									<when>2145.71</when>
									<value>1</value>
								</keyframe>
								<keyframe>
									<when>2150.67</when>
									<value>1</value>
								</keyframe>
								<keyframe>
									<when>2170.09</when>
									<value>1.12202</value>
								</keyframe>
								<keyframe>
									<when>2189.78</when>
									<value>1.58489</value>
								</keyframe>
								<keyframe>
									<when>2192.59</when>
									<value>0.0630957</value>
								</keyframe>
								<interpolation>
									<name>FCPCurve</name>
								</interpolation>
								<value>0.0891251</value>
							</parameter>
						</effect>
					</filter>
					<filter>
						<effect>
							<name>Audio Pan</name>
							<effectid>audiopan</effectid>
							<effectcategory>audiopan</effectcategory>
							<effecttype>audiopan</effecttype>
							<mediatype>audio</mediatype>
							<parameter>
								<name>Pan</name>
								<parameterid>pan</parameterid>
								<valuemin>-1</valuemin>
								<valuemax>1</valuemax>
								<value>0</value>
							</parameter>
						</effect>
					</filter>
					<sourcetrack>
						<mediatype>audio</mediatype>
						<trackindex>2</trackindex>
					</sourcetrack>
					<link>
						<linkclipref>msub200012-3011-k1d2-007 9</linkclipref>
						<mediatype>video</mediatype>
						<trackindex>1</trackindex>
						<clipindex>111</clipindex>
					</link>
					<link>
						<linkclipref>msub200012-3011-k1d2-007 10</linkclipref>
						<mediatype>audio</mediatype>
						<trackindex>1</trackindex>
						<clipindex>104</clipindex>
					</link>
					<link>
						<linkclipref>msub200012-3011-k1d2-007 11</linkclipref>
						<mediatype>audio</mediatype>
						<trackindex>2</trackindex>
						<clipindex>111</clipindex>
					</link>
				</clipitem>
				<transitionitem id="1049018976 ">
					<rate>
						<ntsc>FALSE</ntsc>
						<timebase>25</timebase>
					</rate>
					<start>26763</start>
					<end>26769</end>
					<alignment>center</alignment>
					<effect>
						<name>Cross Fade (+3dB) Copy</name>
						<effecttype>transition</effecttype>
						<mediatype>audio</mediatype>
					</effect>
				</transitionitem>
				<clipitem id="msub200012-3011-k1d2-007 14">
					<name>msub200012-3011-k1d2-007</name>
					<duration>5622</duration>
					<rate>
						<ntsc>FALSE</ntsc>
						<timebase>25</timebase>
					</rate>
					<in>2445</in>
					<out>3068</out>
					<start>-1</start>
					<end>-1</end>
					<subframeoffset>0</subframeoffset>
					<masterclipid>msub200012-3011-k1d2-007 1</masterclipid>
					<syncoffset>0</syncoffset>
					<logginginfo>
						<description>msub200012-3011-k1d2-007</description>
						<scene/>
						<shottake/>
						<lognote/>
						<good>FALSE</good>
					</logginginfo>
					<labels>
						<label>Interviews</label>
						<label2/>
					</labels>
					<comments>
						<mastercomment1>RÃ…STOFF. BR_FINFREDAG_MSUA_OPRO</mastercomment1>
						<mastercomment2/>
						<mastercomment3/>
						<mastercomment4/>
						<clipcommenta/>
					</comments>
					<file id="msub200012-3011-k1d2-007 2"/>
					<filter>
						<enabled>TRUE</enabled>
						<start>-1</start>
						<end>-1</end>
						<effect>
							<name>3 Band Equalizer - Kristine</name>
							<effecttype>filter</effecttype>
							<mediatype>audio</mediatype>
							<parameter>
								<parameterid>Low Frequency</parameterid>
								<name>Low Frequency</name>
								<valuemin>80</valuemin>
								<valuemax>2000</valuemax>
								<value>80</value>
							</parameter>
							<parameter>
								<parameterid>Low Gain(dB)</parameterid>
								<name>Low Gain(dB)</name>
								<valuemin>-20</valuemin>
								<valuemax>20</valuemax>
								<value>-4</value>
							</parameter>
							<parameter>
								<parameterid>Mid Frequency</parameterid>
								<name>Mid Frequency</name>
								<valuemin>400</valuemin>
								<valuemax>8000</valuemax>
								<value>3602</value>
							</parameter>
							<parameter>
								<parameterid>Mid Gain(dB)</parameterid>
								<name>Mid Gain(dB)</name>
								<valuemin>-20</valuemin>
								<valuemax>20</valuemax>
								<value>3</value>
							</parameter>
							<parameter>
								<parameterid>High Frequency</parameterid>
								<name>High Frequency</name>
								<valuemin>5000</valuemin>
								<valuemax>20000</valuemax>
								<value>10354</value>
							</parameter>
							<parameter>
								<parameterid>High Gain(dB)</parameterid>
								<name>High Gain(dB)</name>
								<valuemin>-20</valuemin>
								<valuemax>20</valuemax>
								<value>0</value>
							</parameter>
						</effect>
					</filter>
					<filter>
						<enabled>TRUE</enabled>
						<start>-1</start>
						<end>-1</end>
						<effect>
							<name>Compressor/Limiter</name>
							<effecttype>filter</effecttype>
							<mediatype>audio</mediatype>
							<parameter>
								<parameterid>Threshold(dB)</parameterid>
								<name>Threshold(dB)</name>
								<valuemin>-90</valuemin>
								<valuemax>0</valuemax>
								<value>-20</value>
							</parameter>
							<parameter>
								<parameterid>Ratio</parameterid>
								<name>Ratio</name>
								<valuemin>1</valuemin>
								<valuemax>100</valuemax>
								<value>2</value>
							</parameter>
							<parameter>
								<parameterid>Attack Time</parameterid>
								<name>Attack Time</name>
								<valuemin>1</valuemin>
								<valuemax>100</valuemax>
								<value>5</value>
							</parameter>
							<parameter>
								<parameterid>Release Time</parameterid>
								<name>Release Time</name>
								<valuemin>1</valuemin>
								<valuemax>4000</valuemax>
								<value>209</value>
							</parameter>
							<parameter>
								<parameterid>Preserve Volume</parameterid>
								<name>Preserve Volume</name>
								<value>TRUE</value>
							</parameter>
						</effect>
					</filter>
					<filter>
						<effect>
							<name>Audio Levels</name>
							<effectid>audiolevels</effectid>
							<effectcategory>audiolevels</effectcategory>
							<effecttype>audiolevels</effecttype>
							<mediatype>audio</mediatype>
							<parameter>
								<name>Level</name>
								<parameterid>level</parameterid>
								<valuemin>0</valuemin>
								<valuemax>3.98109</valuemax>
								<keyframe>
									<when>2520.5</when>
									<value>1.12202</value>
								</keyframe>
								<keyframe>
									<when>2534.7</when>
									<value>0.0501187</value>
								</keyframe>
								<keyframe>
									<when>2555.59</when>
									<value>0.0501187</value>
								</keyframe>
								<keyframe>
									<when>2560.14</when>
									<value>0.0630957</value>
								</keyframe>
								<interpolation>
									<name>FCPCurve</name>
								</interpolation>
								<value>1</value>
							</parameter>
						</effect>
					</filter>
					<filter>
						<effect>
							<name>Audio Pan</name>
							<effectid>audiopan</effectid>
							<effectcategory>audiopan</effectcategory>
							<effecttype>audiopan</effecttype>
							<mediatype>audio</mediatype>
							<parameter>
								<name>Pan</name>
								<parameterid>pan</parameterid>
								<valuemin>-1</valuemin>
								<valuemax>1</valuemax>
								<value>0</value>
							</parameter>
						</effect>
					</filter>
					<sourcetrack>
						<mediatype>audio</mediatype>
						<trackindex>2</trackindex>
					</sourcetrack>
					<link>
						<linkclipref>msub200012-3011-k1d2-007 12</linkclipref>
						<mediatype>video</mediatype>
						<trackindex>1</trackindex>
						<clipindex>113</clipindex>
					</link>
					<link>
						<linkclipref>msub200012-3011-k1d2-007 13</linkclipref>
						<mediatype>audio</mediatype>
						<trackindex>1</trackindex>
						<clipindex>106</clipindex>
					</link>
					<link>
						<linkclipref>msub200012-3011-k1d2-007 14</linkclipref>
						<mediatype>audio</mediatype>
						<trackindex>2</trackindex>
						<clipindex>113</clipindex>
					</link>
				</clipitem>
				<transitionitem id="1049022716 ">
					<rate>
						<ntsc>FALSE</ntsc>
						<timebase>25</timebase>
					</rate>
					<start>27382</start>
					<end>27386</end>
					<alignment>center</alignment>
					<effect>
						<name>Cross Fade (+3dB) Copy</name>
						<effecttype>transition</effecttype>
						<mediatype>audio</mediatype>
					</effect>
				</transitionitem>
				<clipitem id="msub200012-3011-k1d2-007 19">
					<name>msub200012-3011-k1d2-007</name>
					<duration>5622</duration>
					<rate>
						<ntsc>FALSE</ntsc>
						<timebase>25</timebase>
					</rate>
					<in>3513</in>
					<out>3768</out>
					<start>-1</start>
					<end>-1</end>
					<subframeoffset>0</subframeoffset>
					<enabled>TRUE</enabled>
					<masterclipid>msub200012-3011-k1d2-007 1</masterclipid>
					<syncoffset>0</syncoffset>
					<logginginfo>
						<description>msub200012-3011-k1d2-007</description>
						<scene/>
						<shottake/>
						<lognote/>
						<good>FALSE</good>
					</logginginfo>
					<labels>
						<label>Interviews</label>
						<label2/>
					</labels>
					<comments>
						<mastercomment1>RÃ…STOFF. BR_FINFREDAG_MSUA_OPRO</mastercomment1>
						<mastercomment2/>
						<mastercomment3/>
						<mastercomment4/>
						<clipcommenta/>
					</comments>
					<file id="msub200012-3011-k1d2-007 2"/>
					<filter>
						<enabled>TRUE</enabled>
						<start>-1</start>
						<end>-1</end>
						<effect>
							<name>3 Band Equalizer - Kristine</name>
							<effecttype>filter</effecttype>
							<mediatype>audio</mediatype>
							<parameter>
								<parameterid>Low Frequency</parameterid>
								<name>Low Frequency</name>
								<valuemin>80</valuemin>
								<valuemax>2000</valuemax>
								<value>80</value>
							</parameter>
							<parameter>
								<parameterid>Low Gain(dB)</parameterid>
								<name>Low Gain(dB)</name>
								<valuemin>-20</valuemin>
								<valuemax>20</valuemax>
								<value>-4</value>
							</parameter>
							<parameter>
								<parameterid>Mid Frequency</parameterid>
								<name>Mid Frequency</name>
								<valuemin>400</valuemin>
								<valuemax>8000</valuemax>
								<value>3602</value>
							</parameter>
							<parameter>
								<parameterid>Mid Gain(dB)</parameterid>
								<name>Mid Gain(dB)</name>
								<valuemin>-20</valuemin>
								<valuemax>20</valuemax>
								<value>3</value>
							</parameter>
							<parameter>
								<parameterid>High Frequency</parameterid>
								<name>High Frequency</name>
								<valuemin>5000</valuemin>
								<valuemax>20000</valuemax>
								<value>10354</value>
							</parameter>
							<parameter>
								<parameterid>High Gain(dB)</parameterid>
								<name>High Gain(dB)</name>
								<valuemin>-20</valuemin>
								<valuemax>20</valuemax>
								<value>0</value>
							</parameter>
						</effect>
					</filter>
					<filter>
						<enabled>TRUE</enabled>
						<start>-1</start>
						<end>-1</end>
						<effect>
							<name>Compressor/Limiter</name>
							<effecttype>filter</effecttype>
							<mediatype>audio</mediatype>
							<parameter>
								<parameterid>Threshold(dB)</parameterid>
								<name>Threshold(dB)</name>
								<valuemin>-90</valuemin>
								<valuemax>0</valuemax>
								<value>-20</value>
							</parameter>
							<parameter>
								<parameterid>Ratio</parameterid>
								<name>Ratio</name>
								<valuemin>1</valuemin>
								<valuemax>100</valuemax>
								<value>2</value>
							</parameter>
							<parameter>
								<parameterid>Attack Time</parameterid>
								<name>Attack Time</name>
								<valuemin>1</valuemin>
								<valuemax>100</valuemax>
								<value>5</value>
							</parameter>
							<parameter>
								<parameterid>Release Time</parameterid>
								<name>Release Time</name>
								<valuemin>1</valuemin>
								<valuemax>4000</valuemax>
								<value>209</value>
							</parameter>
							<parameter>
								<parameterid>Preserve Volume</parameterid>
								<name>Preserve Volume</name>
								<value>TRUE</value>
							</parameter>
						</effect>
					</filter>
					<filter>
						<effect>
							<name>Audio Levels</name>
							<effectid>audiolevels</effectid>
							<effectcategory>audiolevels</effectcategory>
							<effecttype>audiolevels</effecttype>
							<mediatype>audio</mediatype>
							<parameter>
								<name>Level</name>
								<parameterid>level</parameterid>
								<valuemin>0</valuemin>
								<valuemax>3.98109</valuemax>
								<keyframe>
									<when>3540.5</when>
									<value>1.25893</value>
								</keyframe>
								<keyframe>
									<when>3548</when>
									<value>1.77828</value>
								</keyframe>
								<keyframe>
									<when>3693.79</when>
									<value>1.77828</value>
								</keyframe>
								<keyframe>
									<when>3708.25</when>
									<value>0.112202</value>
								</keyframe>
								<interpolation>
									<name>FCPCurve</name>
								</interpolation>
								<value>0.112202</value>
							</parameter>
						</effect>
					</filter>
					<filter>
						<effect>
							<name>Audio Pan</name>
							<effectid>audiopan</effectid>
							<effectcategory>audiopan</effectcategory>
							<effecttype>audiopan</effecttype>
							<mediatype>audio</mediatype>
							<parameter>
								<name>Pan</name>
								<parameterid>pan</parameterid>
								<valuemin>-1</valuemin>
								<valuemax>1</valuemax>
								<value>0</value>
							</parameter>
						</effect>
					</filter>
					<sourcetrack>
						<mediatype>audio</mediatype>
						<trackindex>2</trackindex>
					</sourcetrack>
					<link>
						<linkclipref>msub200012-3011-k1d2-007 18</linkclipref>
						<mediatype>audio</mediatype>
						<trackindex>1</trackindex>
						<clipindex>108</clipindex>
					</link>
					<link>
						<linkclipref>msub200012-3011-k1d2-007 19</linkclipref>
						<mediatype>audio</mediatype>
						<trackindex>2</trackindex>
						<clipindex>115</clipindex>
					</link>
				</clipitem>
				<transitionitem id="1049026456 ">
					<rate>
						<ntsc>FALSE</ntsc>
						<timebase>25</timebase>
					</rate>
					<start>27633</start>
					<end>27637</end>
					<alignment>center</alignment>
					<effect>
						<name>Cross Fade (+3dB) Copy</name>
						<effecttype>transition</effecttype>
						<mediatype>audio</mediatype>
					</effect>
				</transitionitem>
				<clipitem id="msub200012-3011-k1d2-007 21">
					<name>msub200012-3011-k1d2-007</name>
					<duration>5622</duration>
					<rate>
						<ntsc>FALSE</ntsc>
						<timebase>25</timebase>
					</rate>
					<in>4383</in>
					<out>5080</out>
					<start>-1</start>
					<end>28330</end>
					<subframeoffset>0</subframeoffset>
					<masterclipid>msub200012-3011-k1d2-007 1</masterclipid>
					<syncoffset>0</syncoffset>
					<logginginfo>
						<description>msub200012-3011-k1d2-007</description>
						<scene/>
						<shottake/>
						<lognote/>
						<good>FALSE</good>
					</logginginfo>
					<labels>
						<label>Interviews</label>
						<label2/>
					</labels>
					<comments>
						<mastercomment1>RÃ…STOFF. BR_FINFREDAG_MSUA_OPRO</mastercomment1>
						<mastercomment2/>
						<mastercomment3/>
						<mastercomment4/>
						<clipcommenta/>
					</comments>
					<file id="msub200012-3011-k1d2-007 2"/>
					<filter>
						<enabled>TRUE</enabled>
						<start>-1</start>
						<end>-1</end>
						<effect>
							<name>3 Band Equalizer - Kristine</name>
							<effecttype>filter</effecttype>
							<mediatype>audio</mediatype>
							<parameter>
								<parameterid>Low Frequency</parameterid>
								<name>Low Frequency</name>
								<valuemin>80</valuemin>
								<valuemax>2000</valuemax>
								<value>80</value>
							</parameter>
							<parameter>
								<parameterid>Low Gain(dB)</parameterid>
								<name>Low Gain(dB)</name>
								<valuemin>-20</valuemin>
								<valuemax>20</valuemax>
								<value>-4</value>
							</parameter>
							<parameter>
								<parameterid>Mid Frequency</parameterid>
								<name>Mid Frequency</name>
								<valuemin>400</valuemin>
								<valuemax>8000</valuemax>
								<value>3602</value>
							</parameter>
							<parameter>
								<parameterid>Mid Gain(dB)</parameterid>
								<name>Mid Gain(dB)</name>
								<valuemin>-20</valuemin>
								<valuemax>20</valuemax>
								<value>3</value>
							</parameter>
							<parameter>
								<parameterid>High Frequency</parameterid>
								<name>High Frequency</name>
								<valuemin>5000</valuemin>
								<valuemax>20000</valuemax>
								<value>10354</value>
							</parameter>
							<parameter>
								<parameterid>High Gain(dB)</parameterid>
								<name>High Gain(dB)</name>
								<valuemin>-20</valuemin>
								<valuemax>20</valuemax>
								<value>0</value>
							</parameter>
						</effect>
					</filter>
					<filter>
						<enabled>TRUE</enabled>
						<start>-1</start>
						<end>-1</end>
						<effect>
							<name>Compressor/Limiter</name>
							<effecttype>filter</effecttype>
							<mediatype>audio</mediatype>
							<parameter>
								<parameterid>Threshold(dB)</parameterid>
								<name>Threshold(dB)</name>
								<valuemin>-90</valuemin>
								<valuemax>0</valuemax>
								<value>-20</value>
							</parameter>
							<parameter>
								<parameterid>Ratio</parameterid>
								<name>Ratio</name>
								<valuemin>1</valuemin>
								<valuemax>100</valuemax>
								<value>2</value>
							</parameter>
							<parameter>
								<parameterid>Attack Time</parameterid>
								<name>Attack Time</name>
								<valuemin>1</valuemin>
								<valuemax>100</valuemax>
								<value>5</value>
							</parameter>
							<parameter>
								<parameterid>Release Time</parameterid>
								<name>Release Time</name>
								<valuemin>1</valuemin>
								<valuemax>4000</valuemax>
								<value>209</value>
							</parameter>
							<parameter>
								<parameterid>Preserve Volume</parameterid>
								<name>Preserve Volume</name>
								<value>TRUE</value>
							</parameter>
						</effect>
					</filter>
					<filter>
						<effect>
							<name>Audio Levels</name>
							<effectid>audiolevels</effectid>
							<effectcategory>audiolevels</effectcategory>
							<effecttype>audiolevels</effecttype>
							<mediatype>audio</mediatype>
							<parameter>
								<name>Level</name>
								<parameterid>level</parameterid>
								<valuemin>0</valuemin>
								<valuemax>3.98109</valuemax>
								<value>0.0501187</value>
							</parameter>
						</effect>
					</filter>
					<filter>
						<effect>
							<name>Audio Pan</name>
							<effectid>audiopan</effectid>
							<effectcategory>audiopan</effectcategory>
							<effecttype>audiopan</effecttype>
							<mediatype>audio</mediatype>
							<parameter>
								<name>Pan</name>
								<parameterid>pan</parameterid>
								<valuemin>-1</valuemin>
								<valuemax>1</valuemax>
								<value>0</value>
							</parameter>
						</effect>
					</filter>
					<sourcetrack>
						<mediatype>audio</mediatype>
						<trackindex>2</trackindex>
					</sourcetrack>
					<link>
						<linkclipref>msub200012-3011-k1d2-007 20</linkclipref>
						<mediatype>audio</mediatype>
						<trackindex>1</trackindex>
						<clipindex>110</clipindex>
					</link>
					<link>
						<linkclipref>msub200012-3011-k1d2-007 21</linkclipref>
						<mediatype>audio</mediatype>
						<trackindex>2</trackindex>
						<clipindex>117</clipindex>
					</link>
				</clipitem>
				<transitionitem id="1049029924 ">
					<rate>
						<ntsc>FALSE</ntsc>
						<timebase>25</timebase>
					</rate>
					<start>28765</start>
					<end>28771</end>
					<alignment>start-black</alignment>
					<effect>
						<name>Cross Fade (+3dB)</name>
						<effecttype>transition</effecttype>
						<mediatype>audio</mediatype>
					</effect>
				</transitionitem>
				<clipitem id="msub200012-3011-k1d2-008 20">
					<name>msub200012-3011-k1d2-008</name>
					<duration>9606</duration>
					<rate>
						<ntsc>FALSE</ntsc>
						<timebase>25</timebase>
					</rate>
					<in>214</in>
					<out>402</out>
					<start>-1</start>
					<end>-1</end>
					<subframeoffset>0</subframeoffset>
					<enabled>TRUE</enabled>
					<masterclipid>msub200012-3011-k1d2-008 1</masterclipid>
					<logginginfo>
						<description>msub200012-3011-k1d2-008</description>
						<scene/>
						<shottake/>
						<lognote/>
						<good>FALSE</good>
					</logginginfo>
					<labels>
						<label>Good Take</label>
						<label2/>
					</labels>
					<comments>
						<mastercomment1>RÃ…STOFF. BR_FINFREDAG_MSUA_OPRO</mastercomment1>
						<mastercomment2/>
						<mastercomment3/>
						<mastercomment4/>
						<clipcommenta/>
					</comments>
					<file id="msub200012-3011-k1d2-008 2"/>
					<filter>
						<enabled>TRUE</enabled>
						<start>-1</start>
						<end>-1</end>
						<effect>
							<name>3 Band Equalizer - Kristine</name>
							<effecttype>filter</effecttype>
							<mediatype>audio</mediatype>
							<parameter>
								<parameterid>Low Frequency</parameterid>
								<name>Low Frequency</name>
								<valuemin>80</valuemin>
								<valuemax>2000</valuemax>
								<value>80</value>
							</parameter>
							<parameter>
								<parameterid>Low Gain(dB)</parameterid>
								<name>Low Gain(dB)</name>
								<valuemin>-20</valuemin>
								<valuemax>20</valuemax>
								<value>-4</value>
							</parameter>
							<parameter>
								<parameterid>Mid Frequency</parameterid>
								<name>Mid Frequency</name>
								<valuemin>400</valuemin>
								<valuemax>8000</valuemax>
								<value>3602</value>
							</parameter>
							<parameter>
								<parameterid>Mid Gain(dB)</parameterid>
								<name>Mid Gain(dB)</name>
								<valuemin>-20</valuemin>
								<valuemax>20</valuemax>
								<value>3</value>
							</parameter>
							<parameter>
								<parameterid>High Frequency</parameterid>
								<name>High Frequency</name>
								<valuemin>5000</valuemin>
								<valuemax>20000</valuemax>
								<value>10354</value>
							</parameter>
							<parameter>
								<parameterid>High Gain(dB)</parameterid>
								<name>High Gain(dB)</name>
								<valuemin>-20</valuemin>
								<valuemax>20</valuemax>
								<value>0</value>
							</parameter>
						</effect>
					</filter>
					<filter>
						<enabled>TRUE</enabled>
						<start>-1</start>
						<end>-1</end>
						<effect>
							<name>Compressor/Limiter</name>
							<effecttype>filter</effecttype>
							<mediatype>audio</mediatype>
							<parameter>
								<parameterid>Threshold(dB)</parameterid>
								<name>Threshold(dB)</name>
								<valuemin>-90</valuemin>
								<valuemax>0</valuemax>
								<value>-20</value>
							</parameter>
							<parameter>
								<parameterid>Ratio</parameterid>
								<name>Ratio</name>
								<valuemin>1</valuemin>
								<valuemax>100</valuemax>
								<value>2</value>
							</parameter>
							<parameter>
								<parameterid>Attack Time</parameterid>
								<name>Attack Time</name>
								<valuemin>1</valuemin>
								<valuemax>100</valuemax>
								<value>5</value>
							</parameter>
							<parameter>
								<parameterid>Release Time</parameterid>
								<name>Release Time</name>
								<valuemin>1</valuemin>
								<valuemax>4000</valuemax>
								<value>209</value>
							</parameter>
							<parameter>
								<parameterid>Preserve Volume</parameterid>
								<name>Preserve Volume</name>
								<value>TRUE</value>
							</parameter>
						</effect>
					</filter>
					<filter>
						<effect>
							<name>Audio Levels</name>
							<effectid>audiolevels</effectid>
							<effectcategory>audiolevels</effectcategory>
							<effecttype>audiolevels</effecttype>
							<mediatype>audio</mediatype>
							<parameter>
								<name>Level</name>
								<parameterid>level</parameterid>
								<valuemin>0</valuemin>
								<valuemax>3.98109</valuemax>
								<keyframe>
									<when>258</when>
									<value>0.891251</value>
								</keyframe>
								<keyframe>
									<when>260.75</when>
									<value>0.112202</value>
								</keyframe>
								<interpolation>
									<name>FCPCurve</name>
								</interpolation>
								<value>0.112202</value>
							</parameter>
						</effect>
					</filter>
					<filter>
						<effect>
							<name>Audio Pan</name>
							<effectid>audiopan</effectid>
							<effectcategory>audiopan</effectcategory>
							<effecttype>audiopan</effecttype>
							<mediatype>audio</mediatype>
							<parameter>
								<name>Pan</name>
								<parameterid>pan</parameterid>
								<valuemin>-1</valuemin>
								<valuemax>1</valuemax>
								<value>0</value>
							</parameter>
						</effect>
					</filter>
					<sourcetrack>
						<mediatype>audio</mediatype>
						<trackindex>4</trackindex>
					</sourcetrack>
				</clipitem>
				<transitionitem id="1049033596 ">
					<rate>
						<ntsc>FALSE</ntsc>
						<timebase>25</timebase>
					</rate>
					<start>28947</start>
					<end>28953</end>
					<alignment>center</alignment>
					<effect>
						<name>Cross Fade (+3dB) Copy</name>
						<effecttype>transition</effecttype>
						<mediatype>audio</mediatype>
					</effect>
				</transitionitem>
				<clipitem id="msub200012-3011-k1d2-008 11">
					<name>msub200012-3011-k1d2-008</name>
					<duration>9650</duration>
					<rate>
						<ntsc>FALSE</ntsc>
						<timebase>25</timebase>
					</rate>
					<in>700</in>
					<out>1380</out>
					<start>-1</start>
					<end>-1</end>
					<subframeoffset>0</subframeoffset>
					<enabled>TRUE</enabled>
					<masterclipid>msub200012-3011-k1d2-008 1</masterclipid>
					<syncoffset>0</syncoffset>
					<logginginfo>
						<description>msub200012-3011-k1d2-008</description>
						<scene/>
						<shottake/>
						<lognote/>
						<good>FALSE</good>
					</logginginfo>
					<labels>
						<label>Good Take</label>
						<label2/>
					</labels>
					<comments>
						<mastercomment1>RÃ…STOFF. BR_FINFREDAG_MSUA_OPRO</mastercomment1>
						<mastercomment2/>
						<mastercomment3/>
						<mastercomment4/>
						<clipcommenta/>
					</comments>
					<file id="msub200012-3011-k1d2-008 2"/>
					<filter>
						<enabled>TRUE</enabled>
						<start>-1</start>
						<end>-1</end>
						<effect>
							<name>3 Band Equalizer - Kristine</name>
							<effecttype>filter</effecttype>
							<mediatype>audio</mediatype>
							<parameter>
								<parameterid>Low Frequency</parameterid>
								<name>Low Frequency</name>
								<valuemin>80</valuemin>
								<valuemax>2000</valuemax>
								<value>80</value>
							</parameter>
							<parameter>
								<parameterid>Low Gain(dB)</parameterid>
								<name>Low Gain(dB)</name>
								<valuemin>-20</valuemin>
								<valuemax>20</valuemax>
								<value>-4</value>
							</parameter>
							<parameter>
								<parameterid>Mid Frequency</parameterid>
								<name>Mid Frequency</name>
								<valuemin>400</valuemin>
								<valuemax>8000</valuemax>
								<value>3602</value>
							</parameter>
							<parameter>
								<parameterid>Mid Gain(dB)</parameterid>
								<name>Mid Gain(dB)</name>
								<valuemin>-20</valuemin>
								<valuemax>20</valuemax>
								<value>3</value>
							</parameter>
							<parameter>
								<parameterid>High Frequency</parameterid>
								<name>High Frequency</name>
								<valuemin>5000</valuemin>
								<valuemax>20000</valuemax>
								<value>10354</value>
							</parameter>
							<parameter>
								<parameterid>High Gain(dB)</parameterid>
								<name>High Gain(dB)</name>
								<valuemin>-20</valuemin>
								<valuemax>20</valuemax>
								<value>0</value>
							</parameter>
						</effect>
					</filter>
					<filter>
						<enabled>TRUE</enabled>
						<start>-1</start>
						<end>-1</end>
						<effect>
							<name>Compressor/Limiter</name>
							<effecttype>filter</effecttype>
							<mediatype>audio</mediatype>
							<parameter>
								<parameterid>Threshold(dB)</parameterid>
								<name>Threshold(dB)</name>
								<valuemin>-90</valuemin>
								<valuemax>0</valuemax>
								<value>-20</value>
							</parameter>
							<parameter>
								<parameterid>Ratio</parameterid>
								<name>Ratio</name>
								<valuemin>1</valuemin>
								<valuemax>100</valuemax>
								<value>2</value>
							</parameter>
							<parameter>
								<parameterid>Attack Time</parameterid>
								<name>Attack Time</name>
								<valuemin>1</valuemin>
								<valuemax>100</valuemax>
								<value>5</value>
							</parameter>
							<parameter>
								<parameterid>Release Time</parameterid>
								<name>Release Time</name>
								<valuemin>1</valuemin>
								<valuemax>4000</valuemax>
								<value>209</value>
							</parameter>
							<parameter>
								<parameterid>Preserve Volume</parameterid>
								<name>Preserve Volume</name>
								<value>TRUE</value>
							</parameter>
						</effect>
					</filter>
					<filter>
						<effect>
							<name>Audio Levels</name>
							<effectid>audiolevels</effectid>
							<effectcategory>audiolevels</effectcategory>
							<effecttype>audiolevels</effecttype>
							<mediatype>audio</mediatype>
							<parameter>
								<name>Level</name>
								<parameterid>level</parameterid>
								<valuemin>0</valuemin>
								<valuemax>3.98109</valuemax>
								<value>0.0354813</value>
							</parameter>
						</effect>
					</filter>
					<filter>
						<effect>
							<name>Audio Pan</name>
							<effectid>audiopan</effectid>
							<effectcategory>audiopan</effectcategory>
							<effecttype>audiopan</effecttype>
							<mediatype>audio</mediatype>
							<parameter>
								<name>Pan</name>
								<parameterid>pan</parameterid>
								<valuemin>-1</valuemin>
								<valuemax>1</valuemax>
								<value>0</value>
							</parameter>
						</effect>
					</filter>
					<sourcetrack>
						<mediatype>audio</mediatype>
						<trackindex>2</trackindex>
					</sourcetrack>
					<link>
						<linkclipref>msub200012-3011-k1d2-008 10</linkclipref>
						<mediatype>audio</mediatype>
						<trackindex>1</trackindex>
						<clipindex>113</clipindex>
					</link>
					<link>
						<linkclipref>msub200012-3011-k1d2-008 11</linkclipref>
						<mediatype>audio</mediatype>
						<trackindex>2</trackindex>
						<clipindex>121</clipindex>
					</link>
				</clipitem>
				<transitionitem id="1049037064 ">
					<rate>
						<ntsc>FALSE</ntsc>
						<timebase>25</timebase>
					</rate>
					<start>29625</start>
					<end>29627</end>
					<alignment>center</alignment>
					<effect>
						<name>Cross Fade ( 0dB)</name>
						<effecttype>transition</effecttype>
						<mediatype>audio</mediatype>
					</effect>
				</transitionitem>
				<clipitem id="msub200012-3011-k1d2-008 13">
					<name>msub200012-3011-k1d2-008</name>
					<duration>9650</duration>
					<rate>
						<ntsc>FALSE</ntsc>
						<timebase>25</timebase>
					</rate>
					<in>2153</in>
					<out>2353</out>
					<start>-1</start>
					<end>29825</end>
					<subframeoffset>0</subframeoffset>
					<masterclipid>msub200012-3011-k1d2-008 1</masterclipid>
					<syncoffset>0</syncoffset>
					<logginginfo>
						<description>msub200012-3011-k1d2-008</description>
						<scene/>
						<shottake/>
						<lognote/>
						<good>FALSE</good>
					</logginginfo>
					<labels>
						<label>Good Take</label>
						<label2/>
					</labels>
					<comments>
						<mastercomment1>RÃ…STOFF. BR_FINFREDAG_MSUA_OPRO</mastercomment1>
						<mastercomment2/>
						<mastercomment3/>
						<mastercomment4/>
						<clipcommenta/>
					</comments>
					<file id="msub200012-3011-k1d2-008 2"/>
					<filter>
						<enabled>TRUE</enabled>
						<start>-1</start>
						<end>-1</end>
						<effect>
							<name>3 Band Equalizer - Kristine</name>
							<effecttype>filter</effecttype>
							<mediatype>audio</mediatype>
							<parameter>
								<parameterid>Low Frequency</parameterid>
								<name>Low Frequency</name>
								<valuemin>80</valuemin>
								<valuemax>2000</valuemax>
								<value>80</value>
							</parameter>
							<parameter>
								<parameterid>Low Gain(dB)</parameterid>
								<name>Low Gain(dB)</name>
								<valuemin>-20</valuemin>
								<valuemax>20</valuemax>
								<value>-4</value>
							</parameter>
							<parameter>
								<parameterid>Mid Frequency</parameterid>
								<name>Mid Frequency</name>
								<valuemin>400</valuemin>
								<valuemax>8000</valuemax>
								<value>3602</value>
							</parameter>
							<parameter>
								<parameterid>Mid Gain(dB)</parameterid>
								<name>Mid Gain(dB)</name>
								<valuemin>-20</valuemin>
								<valuemax>20</valuemax>
								<value>3</value>
							</parameter>
							<parameter>
								<parameterid>High Frequency</parameterid>
								<name>High Frequency</name>
								<valuemin>5000</valuemin>
								<valuemax>20000</valuemax>
								<value>10354</value>
							</parameter>
							<parameter>
								<parameterid>High Gain(dB)</parameterid>
								<name>High Gain(dB)</name>
								<valuemin>-20</valuemin>
								<valuemax>20</valuemax>
								<value>0</value>
							</parameter>
						</effect>
					</filter>
					<filter>
						<enabled>TRUE</enabled>
						<start>-1</start>
						<end>-1</end>
						<effect>
							<name>Compressor/Limiter</name>
							<effecttype>filter</effecttype>
							<mediatype>audio</mediatype>
							<parameter>
								<parameterid>Threshold(dB)</parameterid>
								<name>Threshold(dB)</name>
								<valuemin>-90</valuemin>
								<valuemax>0</valuemax>
								<value>-20</value>
							</parameter>
							<parameter>
								<parameterid>Ratio</parameterid>
								<name>Ratio</name>
								<valuemin>1</valuemin>
								<valuemax>100</valuemax>
								<value>2</value>
							</parameter>
							<parameter>
								<parameterid>Attack Time</parameterid>
								<name>Attack Time</name>
								<valuemin>1</valuemin>
								<valuemax>100</valuemax>
								<value>5</value>
							</parameter>
							<parameter>
								<parameterid>Release Time</parameterid>
								<name>Release Time</name>
								<valuemin>1</valuemin>
								<valuemax>4000</valuemax>
								<value>209</value>
							</parameter>
							<parameter>
								<parameterid>Preserve Volume</parameterid>
								<name>Preserve Volume</name>
								<value>TRUE</value>
							</parameter>
						</effect>
					</filter>
					<filter>
						<effect>
							<name>Audio Levels</name>
							<effectid>audiolevels</effectid>
							<effectcategory>audiolevels</effectcategory>
							<effecttype>audiolevels</effecttype>
							<mediatype>audio</mediatype>
							<parameter>
								<name>Level</name>
								<parameterid>level</parameterid>
								<valuemin>0</valuemin>
								<valuemax>3.98109</valuemax>
								<value>0.0354813</value>
							</parameter>
						</effect>
					</filter>
					<filter>
						<effect>
							<name>Audio Pan</name>
							<effectid>audiopan</effectid>
							<effectcategory>audiopan</effectcategory>
							<effecttype>audiopan</effecttype>
							<mediatype>audio</mediatype>
							<parameter>
								<name>Pan</name>
								<parameterid>pan</parameterid>
								<valuemin>-1</valuemin>
								<valuemax>1</valuemax>
								<value>0</value>
							</parameter>
						</effect>
					</filter>
					<sourcetrack>
						<mediatype>audio</mediatype>
						<trackindex>2</trackindex>
					</sourcetrack>
					<link>
						<linkclipref>msub200012-3011-k1d2-008 12</linkclipref>
						<mediatype>audio</mediatype>
						<trackindex>1</trackindex>
						<clipindex>115</clipindex>
					</link>
					<link>
						<linkclipref>msub200012-3011-k1d2-008 13</linkclipref>
						<mediatype>audio</mediatype>
						<trackindex>2</trackindex>
						<clipindex>123</clipindex>
					</link>
				</clipitem>
				<clipitem id="msub200012-3011-k1d2-008 15">
					<name>msub200012-3011-k1d2-008</name>
					<duration>9650</duration>
					<rate>
						<ntsc>FALSE</ntsc>
						<timebase>25</timebase>
					</rate>
					<in>3101</in>
					<out>3166</out>
					<start>30183</start>
					<end>-1</end>
					<subframeoffset>0</subframeoffset>
					<enabled>TRUE</enabled>
					<masterclipid>msub200012-3011-k1d2-008 1</masterclipid>
					<syncoffset>0</syncoffset>
					<logginginfo>
						<description>msub200012-3011-k1d2-008</description>
						<scene/>
						<shottake/>
						<lognote/>
						<good>FALSE</good>
					</logginginfo>
					<labels>
						<label>Good Take</label>
						<label2/>
					</labels>
					<comments>
						<mastercomment1>RÃ…STOFF. BR_FINFREDAG_MSUA_OPRO</mastercomment1>
						<mastercomment2/>
						<mastercomment3/>
						<mastercomment4/>
						<clipcommenta/>
					</comments>
					<file id="msub200012-3011-k1d2-008 2"/>
					<filter>
						<enabled>TRUE</enabled>
						<start>-1</start>
						<end>-1</end>
						<effect>
							<name>3 Band Equalizer - Kristine</name>
							<effecttype>filter</effecttype>
							<mediatype>audio</mediatype>
							<parameter>
								<parameterid>Low Frequency</parameterid>
								<name>Low Frequency</name>
								<valuemin>80</valuemin>
								<valuemax>2000</valuemax>
								<value>80</value>
							</parameter>
							<parameter>
								<parameterid>Low Gain(dB)</parameterid>
								<name>Low Gain(dB)</name>
								<valuemin>-20</valuemin>
								<valuemax>20</valuemax>
								<value>-4</value>
							</parameter>
							<parameter>
								<parameterid>Mid Frequency</parameterid>
								<name>Mid Frequency</name>
								<valuemin>400</valuemin>
								<valuemax>8000</valuemax>
								<value>3602</value>
							</parameter>
							<parameter>
								<parameterid>Mid Gain(dB)</parameterid>
								<name>Mid Gain(dB)</name>
								<valuemin>-20</valuemin>
								<valuemax>20</valuemax>
								<value>3</value>
							</parameter>
							<parameter>
								<parameterid>High Frequency</parameterid>
								<name>High Frequency</name>
								<valuemin>5000</valuemin>
								<valuemax>20000</valuemax>
								<value>10354</value>
							</parameter>
							<parameter>
								<parameterid>High Gain(dB)</parameterid>
								<name>High Gain(dB)</name>
								<valuemin>-20</valuemin>
								<valuemax>20</valuemax>
								<value>0</value>
							</parameter>
						</effect>
					</filter>
					<filter>
						<enabled>TRUE</enabled>
						<start>-1</start>
						<end>-1</end>
						<effect>
							<name>Compressor/Limiter</name>
							<effecttype>filter</effecttype>
							<mediatype>audio</mediatype>
							<parameter>
								<parameterid>Threshold(dB)</parameterid>
								<name>Threshold(dB)</name>
								<valuemin>-90</valuemin>
								<valuemax>0</valuemax>
								<value>-20</value>
							</parameter>
							<parameter>
								<parameterid>Ratio</parameterid>
								<name>Ratio</name>
								<valuemin>1</valuemin>
								<valuemax>100</valuemax>
								<value>2</value>
							</parameter>
							<parameter>
								<parameterid>Attack Time</parameterid>
								<name>Attack Time</name>
								<valuemin>1</valuemin>
								<valuemax>100</valuemax>
								<value>5</value>
							</parameter>
							<parameter>
								<parameterid>Release Time</parameterid>
								<name>Release Time</name>
								<valuemin>1</valuemin>
								<valuemax>4000</valuemax>
								<value>209</value>
							</parameter>
							<parameter>
								<parameterid>Preserve Volume</parameterid>
								<name>Preserve Volume</name>
								<value>TRUE</value>
							</parameter>
						</effect>
					</filter>
					<filter>
						<effect>
							<name>Audio Levels</name>
							<effectid>audiolevels</effectid>
							<effectcategory>audiolevels</effectcategory>
							<effecttype>audiolevels</effecttype>
							<mediatype>audio</mediatype>
							<parameter>
								<name>Level</name>
								<parameterid>level</parameterid>
								<valuemin>0</valuemin>
								<valuemax>3.98109</valuemax>
								<value>0.0891251</value>
							</parameter>
						</effect>
					</filter>
					<filter>
						<effect>
							<name>Audio Pan</name>
							<effectid>audiopan</effectid>
							<effectcategory>audiopan</effectcategory>
							<effecttype>audiopan</effecttype>
							<mediatype>audio</mediatype>
							<parameter>
								<name>Pan</name>
								<parameterid>pan</parameterid>
								<valuemin>-1</valuemin>
								<valuemax>1</valuemax>
								<value>0</value>
							</parameter>
						</effect>
					</filter>
					<sourcetrack>
						<mediatype>audio</mediatype>
						<trackindex>2</trackindex>
					</sourcetrack>
					<link>
						<linkclipref>msub200012-3011-k1d2-008 14</linkclipref>
						<mediatype>audio</mediatype>
						<trackindex>1</trackindex>
						<clipindex>117</clipindex>
					</link>
					<link>
						<linkclipref>msub200012-3011-k1d2-008 15</linkclipref>
						<mediatype>audio</mediatype>
						<trackindex>2</trackindex>
						<clipindex>124</clipindex>
					</link>
				</clipitem>
				<transitionitem id="1049095472 ">
					<rate>
						<ntsc>FALSE</ntsc>
						<timebase>25</timebase>
					</rate>
					<start>30242</start>
					<end>30248</end>
					<alignment>center</alignment>
					<effect>
						<name>Cross Fade (+3dB) Copy</name>
						<effecttype>transition</effecttype>
						<mediatype>audio</mediatype>
					</effect>
				</transitionitem>
				<clipitem id="msub200012-3011-k1d2-008 17">
					<name>msub200012-3011-k1d2-008</name>
					<duration>9650</duration>
					<rate>
						<ntsc>FALSE</ntsc>
						<timebase>25</timebase>
					</rate>
					<in>3774</in>
					<out>3842</out>
					<start>-1</start>
					<end>-1</end>
					<subframeoffset>0</subframeoffset>
					<masterclipid>msub200012-3011-k1d2-008 1</masterclipid>
					<syncoffset>0</syncoffset>
					<logginginfo>
						<description>msub200012-3011-k1d2-008</description>
						<scene/>
						<shottake/>
						<lognote/>
						<good>FALSE</good>
					</logginginfo>
					<labels>
						<label>Good Take</label>
						<label2/>
					</labels>
					<comments>
						<mastercomment1>RÃ…STOFF. BR_FINFREDAG_MSUA_OPRO</mastercomment1>
						<mastercomment2/>
						<mastercomment3/>
						<mastercomment4/>
						<clipcommenta/>
					</comments>
					<file id="msub200012-3011-k1d2-008 2"/>
					<filter>
						<enabled>TRUE</enabled>
						<start>-1</start>
						<end>-1</end>
						<effect>
							<name>3 Band Equalizer - Kristine</name>
							<effecttype>filter</effecttype>
							<mediatype>audio</mediatype>
							<parameter>
								<parameterid>Low Frequency</parameterid>
								<name>Low Frequency</name>
								<valuemin>80</valuemin>
								<valuemax>2000</valuemax>
								<value>80</value>
							</parameter>
							<parameter>
								<parameterid>Low Gain(dB)</parameterid>
								<name>Low Gain(dB)</name>
								<valuemin>-20</valuemin>
								<valuemax>20</valuemax>
								<value>-4</value>
							</parameter>
							<parameter>
								<parameterid>Mid Frequency</parameterid>
								<name>Mid Frequency</name>
								<valuemin>400</valuemin>
								<valuemax>8000</valuemax>
								<value>3602</value>
							</parameter>
							<parameter>
								<parameterid>Mid Gain(dB)</parameterid>
								<name>Mid Gain(dB)</name>
								<valuemin>-20</valuemin>
								<valuemax>20</valuemax>
								<value>3</value>
							</parameter>
							<parameter>
								<parameterid>High Frequency</parameterid>
								<name>High Frequency</name>
								<valuemin>5000</valuemin>
								<valuemax>20000</valuemax>
								<value>10354</value>
							</parameter>
							<parameter>
								<parameterid>High Gain(dB)</parameterid>
								<name>High Gain(dB)</name>
								<valuemin>-20</valuemin>
								<valuemax>20</valuemax>
								<value>0</value>
							</parameter>
						</effect>
					</filter>
					<filter>
						<enabled>TRUE</enabled>
						<start>-1</start>
						<end>-1</end>
						<effect>
							<name>Compressor/Limiter</name>
							<effecttype>filter</effecttype>
							<mediatype>audio</mediatype>
							<parameter>
								<parameterid>Threshold(dB)</parameterid>
								<name>Threshold(dB)</name>
								<valuemin>-90</valuemin>
								<valuemax>0</valuemax>
								<value>-20</value>
							</parameter>
							<parameter>
								<parameterid>Ratio</parameterid>
								<name>Ratio</name>
								<valuemin>1</valuemin>
								<valuemax>100</valuemax>
								<value>2</value>
							</parameter>
							<parameter>
								<parameterid>Attack Time</parameterid>
								<name>Attack Time</name>
								<valuemin>1</valuemin>
								<valuemax>100</valuemax>
								<value>5</value>
							</parameter>
							<parameter>
								<parameterid>Release Time</parameterid>
								<name>Release Time</name>
								<valuemin>1</valuemin>
								<valuemax>4000</valuemax>
								<value>209</value>
							</parameter>
							<parameter>
								<parameterid>Preserve Volume</parameterid>
								<name>Preserve Volume</name>
								<value>TRUE</value>
							</parameter>
						</effect>
					</filter>
					<filter>
						<effect>
							<name>Audio Levels</name>
							<effectid>audiolevels</effectid>
							<effectcategory>audiolevels</effectcategory>
							<effecttype>audiolevels</effecttype>
							<mediatype>audio</mediatype>
							<parameter>
								<name>Level</name>
								<parameterid>level</parameterid>
								<valuemin>0</valuemin>
								<valuemax>3.98109</valuemax>
								<value>0.0891251</value>
							</parameter>
						</effect>
					</filter>
					<filter>
						<effect>
							<name>Audio Pan</name>
							<effectid>audiopan</effectid>
							<effectcategory>audiopan</effectcategory>
							<effecttype>audiopan</effecttype>
							<mediatype>audio</mediatype>
							<parameter>
								<name>Pan</name>
								<parameterid>pan</parameterid>
								<valuemin>-1</valuemin>
								<valuemax>1</valuemax>
								<value>0</value>
							</parameter>
						</effect>
					</filter>
					<sourcetrack>
						<mediatype>audio</mediatype>
						<trackindex>2</trackindex>
					</sourcetrack>
					<link>
						<linkclipref>msub200012-3011-k1d2-008 16</linkclipref>
						<mediatype>audio</mediatype>
						<trackindex>1</trackindex>
						<clipindex>119</clipindex>
					</link>
					<link>
						<linkclipref>msub200012-3011-k1d2-008 17</linkclipref>
						<mediatype>audio</mediatype>
						<trackindex>2</trackindex>
						<clipindex>126</clipindex>
					</link>
				</clipitem>
				<transitionitem id="1049098940 ">
					<rate>
						<ntsc>FALSE</ntsc>
						<timebase>25</timebase>
					</rate>
					<start>30308</start>
					<end>30310</end>
					<alignment>end-black</alignment>
					<effect>
						<name>Cross Fade (+3dB) Copy</name>
						<effecttype>transition</effecttype>
						<mediatype>audio</mediatype>
					</effect>
				</transitionitem>
				<transitionitem id="1049099416 ">
					<rate>
						<ntsc>FALSE</ntsc>
						<timebase>25</timebase>
					</rate>
					<start>30720</start>
					<end>30722</end>
					<alignment>start-black</alignment>
					<effect>
						<name>Cross Fade (+3dB) Copy</name>
						<effecttype>transition</effecttype>
						<mediatype>audio</mediatype>
					</effect>
				</transitionitem>
				<clipitem id="msub200012-3011-k1d2-008 21">
					<name>msub200012-3011-k1d2-008</name>
					<duration>9606</duration>
					<rate>
						<ntsc>FALSE</ntsc>
						<timebase>25</timebase>
					</rate>
					<in>6506</in>
					<out>6518</out>
					<start>-1</start>
					<end>-1</end>
					<subframeoffset>0</subframeoffset>
					<masterclipid>msub200012-3011-k1d2-008 1</masterclipid>
					<logginginfo>
						<description>msub200012-3011-k1d2-008</description>
						<scene/>
						<shottake/>
						<lognote/>
						<good>FALSE</good>
					</logginginfo>
					<labels>
						<label>Good Take</label>
						<label2/>
					</labels>
					<comments>
						<mastercomment1>RÃ…STOFF. BR_FINFREDAG_MSUA_OPRO</mastercomment1>
						<mastercomment2/>
						<mastercomment3/>
						<mastercomment4/>
						<clipcommenta/>
					</comments>
					<file id="msub200012-3011-k1d2-008 2"/>
					<filter>
						<effect>
							<name>Audio Levels</name>
							<effectid>audiolevels</effectid>
							<effectcategory>audiolevels</effectcategory>
							<effecttype>audiolevels</effecttype>
							<mediatype>audio</mediatype>
							<parameter>
								<name>Level</name>
								<parameterid>level</parameterid>
								<valuemin>0</valuemin>
								<valuemax>3.98109</valuemax>
								<value>0.891251</value>
							</parameter>
						</effect>
					</filter>
					<filter>
						<effect>
							<name>Audio Pan</name>
							<effectid>audiopan</effectid>
							<effectcategory>audiopan</effectcategory>
							<effecttype>audiopan</effecttype>
							<mediatype>audio</mediatype>
							<parameter>
								<name>Pan</name>
								<parameterid>pan</parameterid>
								<valuemin>-1</valuemin>
								<valuemax>1</valuemax>
								<value>0</value>
							</parameter>
						</effect>
					</filter>
					<sourcetrack>
						<mediatype>audio</mediatype>
						<trackindex>1</trackindex>
					</sourcetrack>
				</clipitem>
				<transitionitem id="1049100232 ">
					<rate>
						<ntsc>FALSE</ntsc>
						<timebase>25</timebase>
					</rate>
					<start>30730</start>
					<end>30732</end>
					<alignment>end-black</alignment>
					<effect>
						<name>Cross Fade (+3dB) Copy</name>
						<effecttype>transition</effecttype>
						<mediatype>audio</mediatype>
					</effect>
				</transitionitem>
				<clipitem id="msub200012-3011-k1d2-008 19">
					<name>msub200012-3011-k1d2-008</name>
					<duration>9650</duration>
					<rate>
						<ntsc>FALSE</ntsc>
						<timebase>25</timebase>
					</rate>
					<in>8989</in>
					<out>9307</out>
					<start>31000</start>
					<end>-1</end>
					<subframeoffset>0</subframeoffset>
					<enabled>TRUE</enabled>
					<masterclipid>msub200012-3011-k1d2-008 1</masterclipid>
					<syncoffset>0</syncoffset>
					<logginginfo>
						<description>msub200012-3011-k1d2-008</description>
						<scene/>
						<shottake/>
						<lognote/>
						<good>FALSE</good>
					</logginginfo>
					<labels>
						<label>Good Take</label>
						<label2/>
					</labels>
					<comments>
						<mastercomment1>RÃ…STOFF. BR_FINFREDAG_MSUA_OPRO</mastercomment1>
						<mastercomment2/>
						<mastercomment3/>
						<mastercomment4/>
						<clipcommenta/>
					</comments>
					<file id="msub200012-3011-k1d2-008 2"/>
					<filter>
						<enabled>TRUE</enabled>
						<start>-1</start>
						<end>-1</end>
						<effect>
							<name>3 Band Equalizer - Kristine</name>
							<effecttype>filter</effecttype>
							<mediatype>audio</mediatype>
							<parameter>
								<parameterid>Low Frequency</parameterid>
								<name>Low Frequency</name>
								<valuemin>80</valuemin>
								<valuemax>2000</valuemax>
								<value>80</value>
							</parameter>
							<parameter>
								<parameterid>Low Gain(dB)</parameterid>
								<name>Low Gain(dB)</name>
								<valuemin>-20</valuemin>
								<valuemax>20</valuemax>
								<value>-4</value>
							</parameter>
							<parameter>
								<parameterid>Mid Frequency</parameterid>
								<name>Mid Frequency</name>
								<valuemin>400</valuemin>
								<valuemax>8000</valuemax>
								<value>3602</value>
							</parameter>
							<parameter>
								<parameterid>Mid Gain(dB)</parameterid>
								<name>Mid Gain(dB)</name>
								<valuemin>-20</valuemin>
								<valuemax>20</valuemax>
								<value>3</value>
							</parameter>
							<parameter>
								<parameterid>High Frequency</parameterid>
								<name>High Frequency</name>
								<valuemin>5000</valuemin>
								<valuemax>20000</valuemax>
								<value>10354</value>
							</parameter>
							<parameter>
								<parameterid>High Gain(dB)</parameterid>
								<name>High Gain(dB)</name>
								<valuemin>-20</valuemin>
								<valuemax>20</valuemax>
								<value>0</value>
							</parameter>
						</effect>
					</filter>
					<filter>
						<enabled>TRUE</enabled>
						<start>-1</start>
						<end>-1</end>
						<effect>
							<name>Compressor/Limiter</name>
							<effecttype>filter</effecttype>
							<mediatype>audio</mediatype>
							<parameter>
								<parameterid>Threshold(dB)</parameterid>
								<name>Threshold(dB)</name>
								<valuemin>-90</valuemin>
								<valuemax>0</valuemax>
								<value>-20</value>
							</parameter>
							<parameter>
								<parameterid>Ratio</parameterid>
								<name>Ratio</name>
								<valuemin>1</valuemin>
								<valuemax>100</valuemax>
								<value>2</value>
							</parameter>
							<parameter>
								<parameterid>Attack Time</parameterid>
								<name>Attack Time</name>
								<valuemin>1</valuemin>
								<valuemax>100</valuemax>
								<value>5</value>
							</parameter>
							<parameter>
								<parameterid>Release Time</parameterid>
								<name>Release Time</name>
								<valuemin>1</valuemin>
								<valuemax>4000</valuemax>
								<value>209</value>
							</parameter>
							<parameter>
								<parameterid>Preserve Volume</parameterid>
								<name>Preserve Volume</name>
								<value>TRUE</value>
							</parameter>
						</effect>
					</filter>
					<filter>
						<effect>
							<name>Audio Levels</name>
							<effectid>audiolevels</effectid>
							<effectcategory>audiolevels</effectcategory>
							<effecttype>audiolevels</effecttype>
							<mediatype>audio</mediatype>
							<parameter>
								<name>Level</name>
								<parameterid>level</parameterid>
								<valuemin>0</valuemin>
								<valuemax>3.98109</valuemax>
								<value>0.0630957</value>
							</parameter>
						</effect>
					</filter>
					<filter>
						<effect>
							<name>Audio Pan</name>
							<effectid>audiopan</effectid>
							<effectcategory>audiopan</effectcategory>
							<effecttype>audiopan</effecttype>
							<mediatype>audio</mediatype>
							<parameter>
								<name>Pan</name>
								<parameterid>pan</parameterid>
								<valuemin>-1</valuemin>
								<valuemax>1</valuemax>
								<value>0</value>
							</parameter>
						</effect>
					</filter>
					<sourcetrack>
						<mediatype>audio</mediatype>
						<trackindex>2</trackindex>
					</sourcetrack>
					<link>
						<linkclipref>msub200012-3011-k1d2-008 18</linkclipref>
						<mediatype>audio</mediatype>
						<trackindex>1</trackindex>
						<clipindex>121</clipindex>
					</link>
					<link>
						<linkclipref>msub200012-3011-k1d2-008 19</linkclipref>
						<mediatype>audio</mediatype>
						<trackindex>2</trackindex>
						<clipindex>131</clipindex>
					</link>
				</clipitem>
				<transitionitem id="1049103700 ">
					<rate>
						<ntsc>FALSE</ntsc>
						<timebase>25</timebase>
					</rate>
					<start>31312</start>
					<end>31318</end>
					<alignment>center</alignment>
					<effect>
						<name>Cross Fade (+3dB) Copy</name>
						<effecttype>transition</effecttype>
						<mediatype>audio</mediatype>
					</effect>
				</transitionitem>
				<clipitem id="msub200012-3011-k1d2-010 4">
					<name>msub200012-3011-k1d2-010</name>
					<duration>719</duration>
					<rate>
						<ntsc>FALSE</ntsc>
						<timebase>25</timebase>
					</rate>
					<in>517</in>
					<out>607</out>
					<start>-1</start>
					<end>-1</end>
					<subframeoffset>0</subframeoffset>
					<masterclipid>msub200012-3011-k1d2-010 1</masterclipid>
					<logginginfo>
						<description>msub200012-3011-k1d2-010</description>
						<scene/>
						<shottake/>
						<lognote/>
						<good>FALSE</good>
					</logginginfo>
					<labels>
						<label2/>
					</labels>
					<comments>
						<mastercomment1>RÃ…STOFF. BR_FINFREDAG_MSUA_OPRO</mastercomment1>
						<mastercomment2/>
						<mastercomment3/>
						<mastercomment4/>
						<clipcommenta/>
					</comments>
					<file id="msub200012-3011-k1d2-010 2"/>
					<filter>
						<enabled>TRUE</enabled>
						<start>-1</start>
						<end>-1</end>
						<effect>
							<name>3 Band Equalizer - Kristine</name>
							<effecttype>filter</effecttype>
							<mediatype>audio</mediatype>
							<parameter>
								<parameterid>Low Frequency</parameterid>
								<name>Low Frequency</name>
								<valuemin>80</valuemin>
								<valuemax>2000</valuemax>
								<value>80</value>
							</parameter>
							<parameter>
								<parameterid>Low Gain(dB)</parameterid>
								<name>Low Gain(dB)</name>
								<valuemin>-20</valuemin>
								<valuemax>20</valuemax>
								<value>-4</value>
							</parameter>
							<parameter>
								<parameterid>Mid Frequency</parameterid>
								<name>Mid Frequency</name>
								<valuemin>400</valuemin>
								<valuemax>8000</valuemax>
								<value>3602</value>
							</parameter>
							<parameter>
								<parameterid>Mid Gain(dB)</parameterid>
								<name>Mid Gain(dB)</name>
								<valuemin>-20</valuemin>
								<valuemax>20</valuemax>
								<value>3</value>
							</parameter>
							<parameter>
								<parameterid>High Frequency</parameterid>
								<name>High Frequency</name>
								<valuemin>5000</valuemin>
								<valuemax>20000</valuemax>
								<value>10354</value>
							</parameter>
							<parameter>
								<parameterid>High Gain(dB)</parameterid>
								<name>High Gain(dB)</name>
								<valuemin>-20</valuemin>
								<valuemax>20</valuemax>
								<value>0</value>
							</parameter>
						</effect>
					</filter>
					<filter>
						<enabled>TRUE</enabled>
						<start>-1</start>
						<end>-1</end>
						<effect>
							<name>Compressor/Limiter</name>
							<effecttype>filter</effecttype>
							<mediatype>audio</mediatype>
							<parameter>
								<parameterid>Threshold(dB)</parameterid>
								<name>Threshold(dB)</name>
								<valuemin>-90</valuemin>
								<valuemax>0</valuemax>
								<value>-20</value>
							</parameter>
							<parameter>
								<parameterid>Ratio</parameterid>
								<name>Ratio</name>
								<valuemin>1</valuemin>
								<valuemax>100</valuemax>
								<value>2</value>
							</parameter>
							<parameter>
								<parameterid>Attack Time</parameterid>
								<name>Attack Time</name>
								<valuemin>1</valuemin>
								<valuemax>100</valuemax>
								<value>5</value>
							</parameter>
							<parameter>
								<parameterid>Release Time</parameterid>
								<name>Release Time</name>
								<valuemin>1</valuemin>
								<valuemax>4000</valuemax>
								<value>209</value>
							</parameter>
							<parameter>
								<parameterid>Preserve Volume</parameterid>
								<name>Preserve Volume</name>
								<value>TRUE</value>
							</parameter>
						</effect>
					</filter>
					<filter>
						<effect>
							<name>Audio Levels</name>
							<effectid>audiolevels</effectid>
							<effectcategory>audiolevels</effectcategory>
							<effecttype>audiolevels</effecttype>
							<mediatype>audio</mediatype>
							<parameter>
								<name>Level</name>
								<parameterid>level</parameterid>
								<valuemin>0</valuemin>
								<valuemax>3.98109</valuemax>
								<value>0.0630957</value>
							</parameter>
						</effect>
					</filter>
					<filter>
						<effect>
							<name>Audio Pan</name>
							<effectid>audiopan</effectid>
							<effectcategory>audiopan</effectcategory>
							<effecttype>audiopan</effecttype>
							<mediatype>audio</mediatype>
							<parameter>
								<name>Pan</name>
								<parameterid>pan</parameterid>
								<valuemin>-1</valuemin>
								<valuemax>1</valuemax>
								<value>0</value>
							</parameter>
						</effect>
					</filter>
					<sourcetrack>
						<mediatype>audio</mediatype>
						<trackindex>2</trackindex>
					</sourcetrack>
					<link>
						<linkclipref>msub200012-3011-k1d2-010 </linkclipref>
						<mediatype>video</mediatype>
						<trackindex>1</trackindex>
						<clipindex>135</clipindex>
					</link>
					<link>
						<linkclipref>msub200012-3011-k1d2-010 3</linkclipref>
						<mediatype>audio</mediatype>
						<trackindex>1</trackindex>
						<clipindex>123</clipindex>
					</link>
					<link>
						<linkclipref>msub200012-3011-k1d2-010 4</linkclipref>
						<mediatype>audio</mediatype>
						<trackindex>2</trackindex>
						<clipindex>133</clipindex>
					</link>
				</clipitem>
				<transitionitem id="1049107168 ">
					<rate>
						<ntsc>FALSE</ntsc>
						<timebase>25</timebase>
					</rate>
					<start>31396</start>
					<end>31402</end>
					<alignment>center</alignment>
					<effect>
						<name>Cross Fade (+3dB) Copy</name>
						<effecttype>transition</effecttype>
						<mediatype>audio</mediatype>
					</effect>
				</transitionitem>
				<clipitem id="msub200012-3011-k1d2-011 4">
					<name>msub200012-3011-k1d2-011</name>
					<duration>1378</duration>
					<rate>
						<ntsc>FALSE</ntsc>
						<timebase>25</timebase>
					</rate>
					<in>916</in>
					<out>1289</out>
					<start>-1</start>
					<end>-1</end>
					<subframeoffset>0</subframeoffset>
					<masterclipid>msub200012-3011-k1d2-011 1</masterclipid>
					<logginginfo>
						<description>msub200012-3011-k1d2-011</description>
						<scene/>
						<shottake/>
						<lognote/>
						<good>FALSE</good>
					</logginginfo>
					<labels>
						<label2/>
					</labels>
					<comments>
						<mastercomment1>RÃ…STOFF. BR_FINFREDAG_MSUA_OPRO</mastercomment1>
						<mastercomment2/>
						<mastercomment3/>
						<mastercomment4/>
						<clipcommenta/>
					</comments>
					<file id="msub200012-3011-k1d2-011 2"/>
					<filter>
						<enabled>TRUE</enabled>
						<start>-1</start>
						<end>-1</end>
						<effect>
							<name>3 Band Equalizer - Kristine</name>
							<effecttype>filter</effecttype>
							<mediatype>audio</mediatype>
							<parameter>
								<parameterid>Low Frequency</parameterid>
								<name>Low Frequency</name>
								<valuemin>80</valuemin>
								<valuemax>2000</valuemax>
								<value>80</value>
							</parameter>
							<parameter>
								<parameterid>Low Gain(dB)</parameterid>
								<name>Low Gain(dB)</name>
								<valuemin>-20</valuemin>
								<valuemax>20</valuemax>
								<value>-4</value>
							</parameter>
							<parameter>
								<parameterid>Mid Frequency</parameterid>
								<name>Mid Frequency</name>
								<valuemin>400</valuemin>
								<valuemax>8000</valuemax>
								<value>3602</value>
							</parameter>
							<parameter>
								<parameterid>Mid Gain(dB)</parameterid>
								<name>Mid Gain(dB)</name>
								<valuemin>-20</valuemin>
								<valuemax>20</valuemax>
								<value>3</value>
							</parameter>
							<parameter>
								<parameterid>High Frequency</parameterid>
								<name>High Frequency</name>
								<valuemin>5000</valuemin>
								<valuemax>20000</valuemax>
								<value>10354</value>
							</parameter>
							<parameter>
								<parameterid>High Gain(dB)</parameterid>
								<name>High Gain(dB)</name>
								<valuemin>-20</valuemin>
								<valuemax>20</valuemax>
								<value>0</value>
							</parameter>
						</effect>
					</filter>
					<filter>
						<enabled>TRUE</enabled>
						<start>-1</start>
						<end>-1</end>
						<effect>
							<name>Compressor/Limiter</name>
							<effecttype>filter</effecttype>
							<mediatype>audio</mediatype>
							<parameter>
								<parameterid>Threshold(dB)</parameterid>
								<name>Threshold(dB)</name>
								<valuemin>-90</valuemin>
								<valuemax>0</valuemax>
								<value>-20</value>
							</parameter>
							<parameter>
								<parameterid>Ratio</parameterid>
								<name>Ratio</name>
								<valuemin>1</valuemin>
								<valuemax>100</valuemax>
								<value>2</value>
							</parameter>
							<parameter>
								<parameterid>Attack Time</parameterid>
								<name>Attack Time</name>
								<valuemin>1</valuemin>
								<valuemax>100</valuemax>
								<value>5</value>
							</parameter>
							<parameter>
								<parameterid>Release Time</parameterid>
								<name>Release Time</name>
								<valuemin>1</valuemin>
								<valuemax>4000</valuemax>
								<value>209</value>
							</parameter>
							<parameter>
								<parameterid>Preserve Volume</parameterid>
								<name>Preserve Volume</name>
								<value>TRUE</value>
							</parameter>
						</effect>
					</filter>
					<filter>
						<effect>
							<name>Audio Levels</name>
							<effectid>audiolevels</effectid>
							<effectcategory>audiolevels</effectcategory>
							<effecttype>audiolevels</effecttype>
							<mediatype>audio</mediatype>
							<parameter>
								<name>Level</name>
								<parameterid>level</parameterid>
								<valuemin>0</valuemin>
								<valuemax>3.98109</valuemax>
								<value>0.141254</value>
							</parameter>
						</effect>
					</filter>
					<filter>
						<effect>
							<name>Audio Pan</name>
							<effectid>audiopan</effectid>
							<effectcategory>audiopan</effectcategory>
							<effecttype>audiopan</effecttype>
							<mediatype>audio</mediatype>
							<parameter>
								<name>Pan</name>
								<parameterid>pan</parameterid>
								<valuemin>-1</valuemin>
								<valuemax>1</valuemax>
								<value>0</value>
							</parameter>
						</effect>
					</filter>
					<sourcetrack>
						<mediatype>audio</mediatype>
						<trackindex>2</trackindex>
					</sourcetrack>
					<link>
						<linkclipref>msub200012-3011-k1d2-011 </linkclipref>
						<mediatype>video</mediatype>
						<trackindex>1</trackindex>
						<clipindex>137</clipindex>
					</link>
					<link>
						<linkclipref>msub200012-3011-k1d2-011 3</linkclipref>
						<mediatype>audio</mediatype>
						<trackindex>1</trackindex>
						<clipindex>125</clipindex>
					</link>
					<link>
						<linkclipref>msub200012-3011-k1d2-011 4</linkclipref>
						<mediatype>audio</mediatype>
						<trackindex>2</trackindex>
						<clipindex>135</clipindex>
					</link>
				</clipitem>
				<transitionitem id="1049110636 ">
					<rate>
						<ntsc>FALSE</ntsc>
						<timebase>25</timebase>
					</rate>
					<start>31763</start>
					<end>31769</end>
					<alignment>center</alignment>
					<effect>
						<name>Cross Fade (+3dB) Copy</name>
						<effecttype>transition</effecttype>
						<mediatype>audio</mediatype>
					</effect>
				</transitionitem>
				<clipitem id="msub200012-3011-k1d3-002 57">
					<name>msub200012-3011-k1d3-002</name>
					<duration>8740</duration>
					<rate>
						<ntsc>FALSE</ntsc>
						<timebase>25</timebase>
					</rate>
					<in>1138</in>
					<out>1205</out>
					<start>32674</start>
					<end>32741</end>
					<subframeoffset>0</subframeoffset>
					<masterclipid>msub200012-3011-k1d3-002 1</masterclipid>
					<syncoffset>0</syncoffset>
					<logginginfo>
						<description>msub200012-3011-k1d3-002</description>
						<scene/>
						<shottake/>
						<lognote/>
						<good>FALSE</good>
					</logginginfo>
					<labels>
						<label>Good Take</label>
						<label2/>
					</labels>
					<comments>
						<mastercomment1>RÃ…STOFF. BR_FINFREDAG_MSUA_OPRO</mastercomment1>
						<mastercomment2/>
						<mastercomment3/>
						<mastercomment4/>
						<clipcommenta/>
					</comments>
					<file id="msub200012-3011-k1d3-002 2"/>
					<filter>
						<effect>
							<name>Audio Levels</name>
							<effectid>audiolevels</effectid>
							<effectcategory>audiolevels</effectcategory>
							<effecttype>audiolevels</effecttype>
							<mediatype>audio</mediatype>
							<parameter>
								<name>Level</name>
								<parameterid>level</parameterid>
								<valuemin>0</valuemin>
								<valuemax>3.98109</valuemax>
								<keyframe>
									<when>972.429</when>
									<value>1</value>
								</keyframe>
								<keyframe>
									<when>990.429</when>
									<value>1.77828</value>
								</keyframe>
								<keyframe>
									<when>1083</when>
									<value>1.77828</value>
								</keyframe>
								<keyframe>
									<when>1094.57</when>
									<value>2.81838</value>
								</keyframe>
								<keyframe>
									<when>1205.07</when>
									<value>0.251189</value>
								</keyframe>
								<keyframe>
									<when>1209.57</when>
									<value>1.12202</value>
								</keyframe>
								<interpolation>
									<name>FCPCurve</name>
								</interpolation>
								<value>1</value>
							</parameter>
						</effect>
					</filter>
					<filter>
						<effect>
							<name>Audio Pan</name>
							<effectid>audiopan</effectid>
							<effectcategory>audiopan</effectcategory>
							<effecttype>audiopan</effecttype>
							<mediatype>audio</mediatype>
							<parameter>
								<name>Pan</name>
								<parameterid>pan</parameterid>
								<valuemin>-1</valuemin>
								<valuemax>1</valuemax>
								<value>0</value>
							</parameter>
						</effect>
					</filter>
					<sourcetrack>
						<mediatype>audio</mediatype>
						<trackindex>2</trackindex>
					</sourcetrack>
				</clipitem>
				<clipitem id="msub200012-3011-k1d3-002 58">
					<name>msub200012-3011-k1d3-002</name>
					<duration>8740</duration>
					<rate>
						<ntsc>FALSE</ntsc>
						<timebase>25</timebase>
					</rate>
					<in>1603</in>
					<out>1645</out>
					<start>33199</start>
					<end>33241</end>
					<subframeoffset>0</subframeoffset>
					<enabled>TRUE</enabled>
					<masterclipid>msub200012-3011-k1d3-002 1</masterclipid>
					<syncoffset>0</syncoffset>
					<logginginfo>
						<description>msub200012-3011-k1d3-002</description>
						<scene/>
						<shottake/>
						<lognote/>
						<good>FALSE</good>
					</logginginfo>
					<labels>
						<label>Good Take</label>
						<label2/>
					</labels>
					<comments>
						<mastercomment1>RÃ…STOFF. BR_FINFREDAG_MSUA_OPRO</mastercomment1>
						<mastercomment2/>
						<mastercomment3/>
						<mastercomment4/>
						<clipcommenta/>
					</comments>
					<file id="msub200012-3011-k1d3-002 2"/>
					<filter>
						<enabled>TRUE</enabled>
						<start>-1</start>
						<end>-1</end>
						<effect>
							<name>3 Band Equalizer - Kristine</name>
							<effecttype>filter</effecttype>
							<mediatype>audio</mediatype>
							<parameter>
								<parameterid>Low Frequency</parameterid>
								<name>Low Frequency</name>
								<valuemin>80</valuemin>
								<valuemax>2000</valuemax>
								<value>80</value>
							</parameter>
							<parameter>
								<parameterid>Low Gain(dB)</parameterid>
								<name>Low Gain(dB)</name>
								<valuemin>-20</valuemin>
								<valuemax>20</valuemax>
								<value>-4</value>
							</parameter>
							<parameter>
								<parameterid>Mid Frequency</parameterid>
								<name>Mid Frequency</name>
								<valuemin>400</valuemin>
								<valuemax>8000</valuemax>
								<value>3602</value>
							</parameter>
							<parameter>
								<parameterid>Mid Gain(dB)</parameterid>
								<name>Mid Gain(dB)</name>
								<valuemin>-20</valuemin>
								<valuemax>20</valuemax>
								<value>3</value>
							</parameter>
							<parameter>
								<parameterid>High Frequency</parameterid>
								<name>High Frequency</name>
								<valuemin>5000</valuemin>
								<valuemax>20000</valuemax>
								<value>10354</value>
							</parameter>
							<parameter>
								<parameterid>High Gain(dB)</parameterid>
								<name>High Gain(dB)</name>
								<valuemin>-20</valuemin>
								<valuemax>20</valuemax>
								<value>0</value>
							</parameter>
						</effect>
					</filter>
					<filter>
						<enabled>TRUE</enabled>
						<start>-1</start>
						<end>-1</end>
						<effect>
							<name>Compressor/Limiter</name>
							<effecttype>filter</effecttype>
							<mediatype>audio</mediatype>
							<parameter>
								<parameterid>Threshold(dB)</parameterid>
								<name>Threshold(dB)</name>
								<valuemin>-90</valuemin>
								<valuemax>0</valuemax>
								<value>-20</value>
							</parameter>
							<parameter>
								<parameterid>Ratio</parameterid>
								<name>Ratio</name>
								<valuemin>1</valuemin>
								<valuemax>100</valuemax>
								<value>2</value>
							</parameter>
							<parameter>
								<parameterid>Attack Time</parameterid>
								<name>Attack Time</name>
								<valuemin>1</valuemin>
								<valuemax>100</valuemax>
								<value>5</value>
							</parameter>
							<parameter>
								<parameterid>Release Time</parameterid>
								<name>Release Time</name>
								<valuemin>1</valuemin>
								<valuemax>4000</valuemax>
								<value>209</value>
							</parameter>
							<parameter>
								<parameterid>Preserve Volume</parameterid>
								<name>Preserve Volume</name>
								<value>TRUE</value>
							</parameter>
						</effect>
					</filter>
					<filter>
						<effect>
							<name>Audio Levels</name>
							<effectid>audiolevels</effectid>
							<effectcategory>audiolevels</effectcategory>
							<effecttype>audiolevels</effecttype>
							<mediatype>audio</mediatype>
							<parameter>
								<name>Level</name>
								<parameterid>level</parameterid>
								<valuemin>0</valuemin>
								<valuemax>3.98109</valuemax>
								<keyframe>
									<when>1373.84</when>
									<value>0</value>
								</keyframe>
								<keyframe>
									<when>1374.64</when>
									<value>1</value>
								</keyframe>
								<keyframe>
									<when>1425.84</when>
									<value>1</value>
								</keyframe>
								<keyframe>
									<when>1427.61</when>
									<value>1.41254</value>
								</keyframe>
								<keyframe>
									<when>1457.34</when>
									<value>1.41254</value>
								</keyframe>
								<keyframe>
									<when>1462.64</when>
									<value>1.12202</value>
								</keyframe>
								<keyframe>
									<when>1634.89</when>
									<value>1.12202</value>
								</keyframe>
								<keyframe>
									<when>1637.46</when>
									<value>0</value>
								</keyframe>
								<interpolation>
									<name>FCPCurve</name>
								</interpolation>
								<value>1.41254</value>
							</parameter>
						</effect>
					</filter>
					<filter>
						<effect>
							<name>Audio Pan</name>
							<effectid>audiopan</effectid>
							<effectcategory>audiopan</effectcategory>
							<effecttype>audiopan</effecttype>
							<mediatype>audio</mediatype>
							<parameter>
								<name>Pan</name>
								<parameterid>pan</parameterid>
								<valuemin>-1</valuemin>
								<valuemax>1</valuemax>
								<value>0</value>
							</parameter>
						</effect>
					</filter>
					<sourcetrack>
						<mediatype>audio</mediatype>
						<trackindex>1</trackindex>
					</sourcetrack>
				</clipitem>
				<transitionitem id="1049115192 ">
					<rate>
						<ntsc>FALSE</ntsc>
						<timebase>25</timebase>
					</rate>
					<start>33490</start>
					<end>33496</end>
					<alignment>center</alignment>
					<effect>
						<name>Cross Fade (+3dB) Copy</name>
						<effecttype>transition</effecttype>
						<mediatype>audio</mediatype>
					</effect>
				</transitionitem>
				<clipitem id="msub200012-3011-k1d3-002 59">
					<name>msub200012-3011-k1d3-002</name>
					<duration>21848</duration>
					<rate>
						<ntsc>FALSE</ntsc>
						<timebase>25</timebase>
					</rate>
					<in>4169</in>
					<out>4225</out>
					<start>-1</start>
					<end>-1</end>
					<subframeoffset>0</subframeoffset>
					<enabled>TRUE</enabled>
					<masterclipid>msub200012-3011-k1d3-002 1</masterclipid>
					<syncoffset>0</syncoffset>
					<logginginfo>
						<description>msub200012-3011-k1d3-002</description>
						<scene/>
						<shottake/>
						<lognote/>
						<good>FALSE</good>
					</logginginfo>
					<labels>
						<label>Good Take</label>
						<label2/>
					</labels>
					<comments>
						<mastercomment1>RÃ…STOFF. BR_FINFREDAG_MSUA_OPRO</mastercomment1>
						<mastercomment2/>
						<mastercomment3/>
						<mastercomment4/>
						<clipcommenta/>
					</comments>
					<file id="msub200012-3011-k1d3-002 2"/>
					<filter>
						<enabled>TRUE</enabled>
						<start>-1</start>
						<end>-1</end>
						<effect>
							<name>3 Band Equalizer - Kristine</name>
							<effecttype>filter</effecttype>
							<mediatype>audio</mediatype>
							<parameter>
								<parameterid>Low Frequency</parameterid>
								<name>Low Frequency</name>
								<valuemin>80</valuemin>
								<valuemax>2000</valuemax>
								<value>80</value>
							</parameter>
							<parameter>
								<parameterid>Low Gain(dB)</parameterid>
								<name>Low Gain(dB)</name>
								<valuemin>-20</valuemin>
								<valuemax>20</valuemax>
								<value>-4</value>
							</parameter>
							<parameter>
								<parameterid>Mid Frequency</parameterid>
								<name>Mid Frequency</name>
								<valuemin>400</valuemin>
								<valuemax>8000</valuemax>
								<value>3602</value>
							</parameter>
							<parameter>
								<parameterid>Mid Gain(dB)</parameterid>
								<name>Mid Gain(dB)</name>
								<valuemin>-20</valuemin>
								<valuemax>20</valuemax>
								<value>3</value>
							</parameter>
							<parameter>
								<parameterid>High Frequency</parameterid>
								<name>High Frequency</name>
								<valuemin>5000</valuemin>
								<valuemax>20000</valuemax>
								<value>10354</value>
							</parameter>
							<parameter>
								<parameterid>High Gain(dB)</parameterid>
								<name>High Gain(dB)</name>
								<valuemin>-20</valuemin>
								<valuemax>20</valuemax>
								<value>0</value>
							</parameter>
						</effect>
					</filter>
					<filter>
						<enabled>TRUE</enabled>
						<start>-1</start>
						<end>-1</end>
						<effect>
							<name>Compressor/Limiter</name>
							<effecttype>filter</effecttype>
							<mediatype>audio</mediatype>
							<parameter>
								<parameterid>Threshold(dB)</parameterid>
								<name>Threshold(dB)</name>
								<valuemin>-90</valuemin>
								<valuemax>0</valuemax>
								<value>-20</value>
							</parameter>
							<parameter>
								<parameterid>Ratio</parameterid>
								<name>Ratio</name>
								<valuemin>1</valuemin>
								<valuemax>100</valuemax>
								<value>2</value>
							</parameter>
							<parameter>
								<parameterid>Attack Time</parameterid>
								<name>Attack Time</name>
								<valuemin>1</valuemin>
								<valuemax>100</valuemax>
								<value>5</value>
							</parameter>
							<parameter>
								<parameterid>Release Time</parameterid>
								<name>Release Time</name>
								<valuemin>1</valuemin>
								<valuemax>4000</valuemax>
								<value>209</value>
							</parameter>
							<parameter>
								<parameterid>Preserve Volume</parameterid>
								<name>Preserve Volume</name>
								<value>TRUE</value>
							</parameter>
						</effect>
					</filter>
					<filter>
						<effect>
							<name>Audio Levels</name>
							<effectid>audiolevels</effectid>
							<effectcategory>audiolevels</effectcategory>
							<effecttype>audiolevels</effecttype>
							<mediatype>audio</mediatype>
							<parameter>
								<name>Level</name>
								<parameterid>level</parameterid>
								<valuemin>0</valuemin>
								<valuemax>3.98109</valuemax>
								<keyframe>
									<when>3434</when>
									<value>0</value>
								</keyframe>
								<keyframe>
									<when>3436</when>
									<value>1</value>
								</keyframe>
								<keyframe>
									<when>3564</when>
									<value>1</value>
								</keyframe>
								<keyframe>
									<when>3568</when>
									<value>1.41254</value>
								</keyframe>
								<keyframe>
									<when>3642</when>
									<value>1.41254</value>
								</keyframe>
								<keyframe>
									<when>3656</when>
									<value>1.41254</value>
								</keyframe>
								<interpolation>
									<name>FCPCurve</name>
								</interpolation>
								<value>1.41254</value>
							</parameter>
						</effect>
					</filter>
					<filter>
						<effect>
							<name>Audio Pan</name>
							<effectid>audiopan</effectid>
							<effectcategory>audiopan</effectcategory>
							<effecttype>audiopan</effecttype>
							<mediatype>audio</mediatype>
							<parameter>
								<name>Pan</name>
								<parameterid>pan</parameterid>
								<valuemin>-1</valuemin>
								<valuemax>1</valuemax>
								<value>0</value>
							</parameter>
						</effect>
					</filter>
					<sourcetrack>
						<mediatype>audio</mediatype>
						<trackindex>1</trackindex>
					</sourcetrack>
					<filter>
						<effect>
							<name>Time Remap</name>
							<effectid>timeremap</effectid>
							<effectcategory>motion</effectcategory>
							<effecttype>motion</effecttype>
							<mediatype>audio</mediatype>
							<parameter>
								<parameterid>variablespeed</parameterid>
								<name>variablespeed</name>
								<valuemin>0</valuemin>
								<valuemax>1</valuemax>
								<value>0</value>
							</parameter>
							<parameter>
								<parameterid>mappedduration</parameterid>
								<name>mappedduration</name>
								<value>
									<timecode>
										<rate>
											<timebase>0</timebase>
										</rate>
										<string>0</string>
										<frame>0</frame>
										<displayformat>NDF</displayformat>
									</timecode>
								</value>
							</parameter>
							<parameter>
								<parameterid>speed</parameterid>
								<name>speed</name>
								<valuemin>-10000</valuemin>
								<valuemax>10000</valuemax>
								<value>40</value>
							</parameter>
							<parameter>
								<parameterid>reverse</parameterid>
								<name>reverse</name>
								<value>FALSE</value>
							</parameter>
							<parameter>
								<parameterid>frameblending</parameterid>
								<name>frameblending</name>
								<value>TRUE</value>
							</parameter>
							<parameter>
								<parameterid>graphdict</parameterid>
								<name>graphdict</name>
								<valuemin>0</valuemin>
								<valuemax>8682</valuemax>
								<keyframe>
									<when>142</when>
									<value>0.1999</value>
									<speedkfstart>TRUE</speedkfstart>
									<speedvirtualkf>TRUE</speedvirtualkf>
								</keyframe>
								<keyframe>
									<when>4169</when>
									<value>1611</value>
									<speedkfin>TRUE</speedkfin>
									<speedvirtualkf>TRUE</speedvirtualkf>
								</keyframe>
								<keyframe>
									<when>4225</when>
									<value>1633.4</value>
									<speedkfout>TRUE</speedkfout>
									<speedvirtualkf>TRUE</speedvirtualkf>
								</keyframe>
								<keyframe>
									<when>21848</when>
									<value>8683.2</value>
									<speedkfend>TRUE</speedkfend>
									<speedvirtualkf>TRUE</speedvirtualkf>
								</keyframe>
								<interpolation>
									<name>FCPCurve</name>
								</interpolation>
								<value>1611</value>
							</parameter>
						</effect>
					</filter>
				</clipitem>
				<transitionitem id="1049118796 ">
					<rate>
						<ntsc>FALSE</ntsc>
						<timebase>25</timebase>
					</rate>
					<start>33540</start>
					<end>33546</end>
					<alignment>end-black</alignment>
					<effect>
						<name>Cross Fade (+3dB) Copy</name>
						<effecttype>transition</effecttype>
						<mediatype>audio</mediatype>
					</effect>
				</transitionitem>
				<clipitem id="msub200012-3011-k1d3-002 22">
					<name>msub200012-3011-k1d3-002</name>
					<duration>8683</duration>
					<rate>
						<ntsc>FALSE</ntsc>
						<timebase>25</timebase>
					</rate>
					<in>7054</in>
					<out>7107</out>
					<start>33962</start>
					<end>34015</end>
					<subframeoffset>0</subframeoffset>
					<masterclipid>msub200012-3011-k1d3-002 1</masterclipid>
					<logginginfo>
						<description>msub200012-3011-k1d3-002</description>
						<scene/>
						<shottake/>
						<lognote/>
						<good>FALSE</good>
					</logginginfo>
					<labels>
						<label>Good Take</label>
						<label2/>
					</labels>
					<comments>
						<mastercomment1>RÃ…STOFF. BR_FINFREDAG_MSUA_OPRO</mastercomment1>
						<mastercomment2/>
						<mastercomment3/>
						<mastercomment4/>
						<clipcommenta/>
					</comments>
					<file id="msub200012-3011-k1d3-002 2"/>
					<filter>
						<effect>
							<name>Audio Levels</name>
							<effectid>audiolevels</effectid>
							<effectcategory>audiolevels</effectcategory>
							<effecttype>audiolevels</effecttype>
							<mediatype>audio</mediatype>
							<parameter>
								<name>Level</name>
								<parameterid>level</parameterid>
								<valuemin>0</valuemin>
								<valuemax>3.98109</valuemax>
								<value>1.99526</value>
							</parameter>
						</effect>
					</filter>
					<filter>
						<effect>
							<name>Audio Pan</name>
							<effectid>audiopan</effectid>
							<effectcategory>audiopan</effectcategory>
							<effecttype>audiopan</effecttype>
							<mediatype>audio</mediatype>
							<parameter>
								<name>Pan</name>
								<parameterid>pan</parameterid>
								<valuemin>-1</valuemin>
								<valuemax>1</valuemax>
								<value>0</value>
							</parameter>
						</effect>
					</filter>
					<sourcetrack>
						<mediatype>audio</mediatype>
						<trackindex>2</trackindex>
					</sourcetrack>
					<link>
						<linkclipref>msub200012-3011-k1d3-002 20</linkclipref>
						<mediatype>video</mediatype>
						<trackindex>2</trackindex>
						<clipindex>89</clipindex>
					</link>
					<link>
						<linkclipref>msub200012-3011-k1d3-002 21</linkclipref>
						<mediatype>audio</mediatype>
						<trackindex>1</trackindex>
						<clipindex>149</clipindex>
					</link>
					<link>
						<linkclipref>msub200012-3011-k1d3-002 22</linkclipref>
						<mediatype>audio</mediatype>
						<trackindex>2</trackindex>
						<clipindex>142</clipindex>
					</link>
				</clipitem>
				<clipitem id="msub200012-3011-k1d3-002 60">
					<name>msub200012-3011-k1d3-002</name>
					<duration>8683</duration>
					<rate>
						<ntsc>FALSE</ntsc>
						<timebase>25</timebase>
					</rate>
					<in>3075</in>
					<out>3093</out>
					<start>34243</start>
					<end>34261</end>
					<subframeoffset>0</subframeoffset>
					<masterclipid>msub200012-3011-k1d3-002 1</masterclipid>
					<logginginfo>
						<description>msub200012-3011-k1d3-002</description>
						<scene/>
						<shottake/>
						<lognote/>
						<good>FALSE</good>
					</logginginfo>
					<labels>
						<label>Good Take</label>
						<label2/>
					</labels>
					<comments>
						<mastercomment1>RÃ…STOFF. BR_FINFREDAG_MSUA_OPRO</mastercomment1>
						<mastercomment2/>
						<mastercomment3/>
						<mastercomment4/>
						<clipcommenta/>
					</comments>
					<file id="msub200012-3011-k1d3-002 2"/>
					<filter>
						<effect>
							<name>Audio Levels</name>
							<effectid>audiolevels</effectid>
							<effectcategory>audiolevels</effectcategory>
							<effecttype>audiolevels</effecttype>
							<mediatype>audio</mediatype>
							<parameter>
								<name>Level</name>
								<parameterid>level</parameterid>
								<valuemin>0</valuemin>
								<valuemax>3.98109</valuemax>
								<value>1.99526</value>
							</parameter>
						</effect>
					</filter>
					<filter>
						<effect>
							<name>Audio Pan</name>
							<effectid>audiopan</effectid>
							<effectcategory>audiopan</effectcategory>
							<effecttype>audiopan</effecttype>
							<mediatype>audio</mediatype>
							<parameter>
								<name>Pan</name>
								<parameterid>pan</parameterid>
								<valuemin>-1</valuemin>
								<valuemax>1</valuemax>
								<value>0</value>
							</parameter>
						</effect>
					</filter>
					<sourcetrack>
						<mediatype>audio</mediatype>
						<trackindex>2</trackindex>
					</sourcetrack>
				</clipitem>
				<transitionitem id="1049120156 ">
					<rate>
						<ntsc>FALSE</ntsc>
						<timebase>25</timebase>
					</rate>
					<start>34989</start>
					<end>34995</end>
					<alignment>start-black</alignment>
					<effect>
						<name>Cross Fade (+3dB) Copy</name>
						<effecttype>transition</effecttype>
						<mediatype>audio</mediatype>
					</effect>
				</transitionitem>
				<clipitem id="msub200012-3011-k1d3-003 1">
					<name>msub200012-3011-k1d3-003</name>
					<duration>1497</duration>
					<rate>
						<ntsc>FALSE</ntsc>
						<timebase>25</timebase>
					</rate>
					<in>694</in>
					<out>1391</out>
					<start>-1</start>
					<end>35686</end>
					<subframeoffset>0</subframeoffset>
					<enabled>TRUE</enabled>
					<masterclipid>msub200012-3011-k1d3-003 3</masterclipid>
					<syncoffset>0</syncoffset>
					<logginginfo>
						<description>msub200012-3011-k1d3-003</description>
						<scene/>
						<shottake/>
						<lognote/>
						<good>FALSE</good>
					</logginginfo>
					<labels>
						<label>B Roll</label>
						<label2/>
					</labels>
					<comments>
						<mastercomment1>RÃ…STOFF. BR_FINFREDAG_MSUA_OPRO</mastercomment1>
						<mastercomment2/>
						<mastercomment3/>
						<mastercomment4/>
						<clipcommenta/>
					</comments>
					<file id="msub200012-3011-k1d3-003 4"/>
					<filter>
						<effect>
							<name>Audio Levels</name>
							<effectid>audiolevels</effectid>
							<effectcategory>audiolevels</effectcategory>
							<effecttype>audiolevels</effecttype>
							<mediatype>audio</mediatype>
							<parameter>
								<name>Level</name>
								<parameterid>level</parameterid>
								<valuemin>0</valuemin>
								<valuemax>3.98109</valuemax>
								<value>0.0501187</value>
							</parameter>
						</effect>
					</filter>
					<filter>
						<effect>
							<name>Audio Pan</name>
							<effectid>audiopan</effectid>
							<effectcategory>audiopan</effectcategory>
							<effecttype>audiopan</effecttype>
							<mediatype>audio</mediatype>
							<parameter>
								<name>Pan</name>
								<parameterid>pan</parameterid>
								<valuemin>-1</valuemin>
								<valuemax>1</valuemax>
								<value>0</value>
							</parameter>
						</effect>
					</filter>
					<sourcetrack>
						<mediatype>audio</mediatype>
						<trackindex>2</trackindex>
					</sourcetrack>
					<link>
						<linkclipref>msub200012-3011-k2d3-006 </linkclipref>
						<mediatype>video</mediatype>
						<trackindex>1</trackindex>
						<clipindex>141</clipindex>
					</link>
					<link>
						<linkclipref>msub200012-3011-k1d3-003 </linkclipref>
						<mediatype>audio</mediatype>
						<trackindex>1</trackindex>
						<clipindex>158</clipindex>
					</link>
					<link>
						<linkclipref>msub200012-3011-k1d3-003 1</linkclipref>
						<mediatype>audio</mediatype>
						<trackindex>2</trackindex>
						<clipindex>145</clipindex>
					</link>
				</clipitem>
				<enabled>TRUE</enabled>
				<locked>FALSE</locked>
				<outputchannelindex>2</outputchannelindex>
			</track>
			<track>
				<clipitem id="FF VOICE sending 1 2013.WAV">
					<name>FF VOICE sending 1 2013.WAV</name>
					<duration>220</duration>
					<rate>
						<ntsc>FALSE</ntsc>
						<timebase>25</timebase>
					</rate>
					<in>0</in>
					<out>119</out>
					<start>1036</start>
					<end>1155</end>
					<enabled>TRUE</enabled>
					<masterclipid>FF VOICE sending 1 2013.WAV1</masterclipid>
					<logginginfo>
						<scene/>
						<shottake/>
						<lognote/>
						<good>FALSE</good>
					</logginginfo>
					<labels>
						<label2/>
					</labels>
					<comments>
						<mastercomment1/>
						<mastercomment2/>
						<mastercomment3/>
						<mastercomment4/>
					</comments>
					<file id="FF VOICE sending 1 2013 ">
						<name>FF VOICE sending 1 2013.WAV</name>
						<pathurl>file://localhost/SuperSAN1/Prosjekter/MSUB20000012%20FIN%20FREDAG/FCP-PROSJEKTER,%20sesong%202/program%201%20Jenny/voice/FF%20VOICE%20sending%201%202013.WAV</pathurl>
						<rate>
							<timebase>25</timebase>
						</rate>
						<duration>220</duration>
						<timecode>
							<rate>
								<timebase>25</timebase>
							</rate>
							<string>00:00:00:00</string>
							<frame>0</frame>
							<displayformat>NDF</displayformat>
							<source>source</source>
						</timecode>
						<media>
							<audio>
								<rate>
									<timebase>48000</timebase>
								</rate>
								<trackcount>2</trackcount>
								<samplecharacteristics>
									<depth>16</depth>
								</samplecharacteristics>
							</audio>
						</media>
					</file>
					<filter>
						<effect>
							<name>Audio Levels</name>
							<effectid>audiolevels</effectid>
							<effectcategory>audiolevels</effectcategory>
							<effecttype>audiolevels</effecttype>
							<mediatype>audio</mediatype>
							<parameter>
								<name>Level</name>
								<parameterid>level</parameterid>
								<valuemin>0</valuemin>
								<valuemax>3.98109</valuemax>
								<value>1.49624</value>
							</parameter>
						</effect>
					</filter>
					<filter>
						<effect>
							<name>Audio Pan</name>
							<effectid>audiopan</effectid>
							<effectcategory>audiopan</effectcategory>
							<effecttype>audiopan</effecttype>
							<mediatype>audio</mediatype>
							<parameter>
								<name>Pan</name>
								<parameterid>pan</parameterid>
								<valuemin>-1</valuemin>
								<valuemax>1</valuemax>
								<value>0</value>
							</parameter>
						</effect>
					</filter>
					<sourcetrack>
						<mediatype>audio</mediatype>
						<trackindex>1</trackindex>
					</sourcetrack>
				</clipitem>
				<clipitem id="FF VOICE sending 1 2013.WAV2">
					<name>FF VOICE sending 1 2013.WAV</name>
					<duration>220</duration>
					<rate>
						<ntsc>FALSE</ntsc>
						<timebase>25</timebase>
					</rate>
					<in>119</in>
					<out>220</out>
					<start>1176</start>
					<end>1277</end>
					<enabled>TRUE</enabled>
					<masterclipid>FF VOICE sending 1 2013.WAV1</masterclipid>
					<logginginfo>
						<scene/>
						<shottake/>
						<lognote/>
						<good>FALSE</good>
					</logginginfo>
					<labels>
						<label2/>
					</labels>
					<comments>
						<mastercomment1/>
						<mastercomment2/>
						<mastercomment3/>
						<mastercomment4/>
					</comments>
					<file id="FF VOICE sending 1 2013 "/>
					<filter>
						<effect>
							<name>Audio Levels</name>
							<effectid>audiolevels</effectid>
							<effectcategory>audiolevels</effectcategory>
							<effecttype>audiolevels</effecttype>
							<mediatype>audio</mediatype>
							<parameter>
								<name>Level</name>
								<parameterid>level</parameterid>
								<valuemin>0</valuemin>
								<valuemax>3.98109</valuemax>
								<value>1.58489</value>
							</parameter>
						</effect>
					</filter>
					<filter>
						<effect>
							<name>Audio Pan</name>
							<effectid>audiopan</effectid>
							<effectcategory>audiopan</effectcategory>
							<effecttype>audiopan</effecttype>
							<mediatype>audio</mediatype>
							<parameter>
								<name>Pan</name>
								<parameterid>pan</parameterid>
								<valuemin>-1</valuemin>
								<valuemax>1</valuemax>
								<value>0</value>
							</parameter>
						</effect>
					</filter>
					<sourcetrack>
						<mediatype>audio</mediatype>
						<trackindex>1</trackindex>
					</sourcetrack>
				</clipitem>
				<transitionitem id="1049122604 ">
					<rate>
						<ntsc>FALSE</ntsc>
						<timebase>25</timebase>
					</rate>
					<start>2527</start>
					<end>2539</end>
					<alignment>start-black</alignment>
					<effect>
						<name>Cross Fade (+3dB)</name>
						<effecttype>transition</effecttype>
						<mediatype>audio</mediatype>
					</effect>
				</transitionitem>
				<clipitem id="TACO 1 START 2">
					<name>TACO 1 START </name>
					<duration>618</duration>
					<rate>
						<ntsc>FALSE</ntsc>
						<timebase>25</timebase>
					</rate>
					<in>0</in>
					<out>618</out>
					<start>-1</start>
					<end>3145</end>
					<labels>
						<label>Best Take</label>
					</labels>
					<filter>
						<effect>
							<name>Audio Levels</name>
							<effectid>audiolevels</effectid>
							<effectcategory>audiolevels</effectcategory>
							<effecttype>audiolevels</effecttype>
							<mediatype>audio</mediatype>
							<parameter>
								<name>Level</name>
								<parameterid>level</parameterid>
								<valuemin>0</valuemin>
								<valuemax>3.98109</valuemax>
								<value>1</value>
							</parameter>
						</effect>
					</filter>
					<filter>
						<effect>
							<name>Audio Pan</name>
							<effectid>audiopan</effectid>
							<effectcategory>audiopan</effectcategory>
							<effecttype>audiopan</effecttype>
							<mediatype>audio</mediatype>
							<parameter>
								<name>Pan</name>
								<parameterid>pan</parameterid>
								<valuemin>-1</valuemin>
								<valuemax>1</valuemax>
								<value>-1</value>
							</parameter>
						</effect>
					</filter>
					<sequence id="TACO 1 START 1"/>
					<sourcetrack>
						<mediatype>audio</mediatype>
						<trackindex>1</trackindex>
					</sourcetrack>
					<link>
						<linkclipref>TACO 1 START </linkclipref>
						<mediatype>video</mediatype>
						<trackindex>1</trackindex>
						<clipindex>7</clipindex>
					</link>
					<link>
						<linkclipref>TACO 1 START 2</linkclipref>
						<mediatype>audio</mediatype>
						<trackindex>3</trackindex>
						<clipindex>4</clipindex>
						<groupindex>1</groupindex>
					</link>
					<link>
						<linkclipref>TACO 1 START 3</linkclipref>
						<mediatype>audio</mediatype>
						<trackindex>4</trackindex>
						<clipindex>4</clipindex>
						<groupindex>1</groupindex>
					</link>
					<ismasterclip>FALSE</ismasterclip>
				</clipitem>
				<transitionitem id="1049123080 ">
					<rate>
						<ntsc>FALSE</ntsc>
						<timebase>25</timebase>
					</rate>
					<start>8366</start>
					<end>8382</end>
					<alignment>start-black</alignment>
					<effect>
						<name>Cross Fade (+3dB) Copy</name>
						<effecttype>transition</effecttype>
						<mediatype>audio</mediatype>
					</effect>
				</transitionitem>
				<clipitem id="KOIF43001507AA7">
					<name>KOIF43001507AA</name>
					<duration>131201</duration>
					<rate>
						<ntsc>FALSE</ntsc>
						<timebase>25</timebase>
					</rate>
					<in>111651</in>
					<out>111836</out>
					<start>-1</start>
					<end>-1</end>
					<subframeoffset>0</subframeoffset>
					<enabled>TRUE</enabled>
					<masterclipid>KOIF43001507AA1</masterclipid>
					<logginginfo>
						<description>Jakten pÃ¥ nyresteinen</description>
						<scene/>
						<shottake/>
						<lognote/>
						<good>FALSE</good>
					</logginginfo>
					<labels>
						<label2/>
					</labels>
					<comments>
						<mastercomment1>ARKIVSTOFF. BR_FINFREDAG_MSUA_OPRO</mastercomment1>
						<mastercomment2>. Filmkameratene AS. </mastercomment2>
						<mastercomment3>Sendt: 1999-12-20. FILMKAMERATENE; Norge.</mastercomment3>
						<mastercomment4>Norsk spillefilm fra 1996. Bestefar har smerter, men Ã¥tteÃ¥rige Simen vet rÃ¥d. Han tryller seg liten og klatrer inn i bestefars kropp for Ã¥ finne ut hva som er i veien ... Regi: Vibeke IdsÃ¸e. Manus: Vibeke IdsÃ¸e. Musikk: Ragnar Bjerkreim. I rollene: Fru Galle ................ Kjersti HOLMEN (mv) Galle Junior ............. Lage FOSHEIM (mv) Sekr??t Service agent ..... Morten M. FALDAAS (mv) StemmebÃ¥ndsoperatÃ¸ren .... Sigve BÃ˜E (mv) TÃ¥retankoperatÃ¸rene ...... Harald EIA (mv), Gard EIDSVOLD (mv) A. Pendixrud ............. BjÃ¸rn JENSEG (mv) Hvitt punkerblodlegeme ... Jan "Devo" KORNSTAD (mv) / Jan KORNSTAD (mv) Hjerteharpen ............. Tone HULBÃ†KMO (mv) HjernesentraloperatÃ¸ren .. Leif DUBARD (mv) RÃ¸de kjÃ¦rlighetsvakter ... Herborg KRÃ…KEVIK (mv), Helen VIKSTVEDT (mv) Bestefar ................. Terje STRÃ˜MDAHL (mv) Bestemor ................. CÃ¦cilie NORDBY (mv) Bamsens stemme ........... Toralv Maurstad Ã˜vrige medvirkende: Tina HARTVIG (mv), Tinken LAURANTZON (mv), Ã˜ystein SELENIUS (mv), Adolf E. BJERKE (mv), Rune HEKKELSTRAND (mv), Rikke SANDLI (mv), Unn SANDVIG (mv), Celine SAASTAD (mv), Anne STRAY (mv), Arild SÃ˜GAARD (mv), Ruth GURHOLT (mv), Kjetil OLSEN (mv), Ine SANDVIG (mv), Aslaug GUTTORMSGÃ…RD (mv), Kjersti Borchgrevink MAAGERÃ˜ (mv), Kiran SHAH (mv), Camilla HARTVIG (mv), Raymond WIIK (mv).</mastercomment4>
						<clipcommenta/>
						<clipcommentb>1:F-mix venstre 2:F-mix hÃ¸yre 3:-- 4:--.4x3 PAL.</clipcommentb>
					</comments>
					<file id="KOIF43001507AA2"/>
					<filter>
						<effect>
							<name>Audio Levels</name>
							<effectid>audiolevels</effectid>
							<effectcategory>audiolevels</effectcategory>
							<effecttype>audiolevels</effecttype>
							<mediatype>audio</mediatype>
							<parameter>
								<name>Level</name>
								<parameterid>level</parameterid>
								<valuemin>0</valuemin>
								<valuemax>3.98109</valuemax>
								<keyframe>
									<when>111743</when>
									<value>0.251189</value>
								</keyframe>
								<keyframe>
									<when>111751</when>
									<value>0.112202</value>
								</keyframe>
								<interpolation>
									<name>FCPCurve</name>
								</interpolation>
								<value>0.251189</value>
							</parameter>
						</effect>
					</filter>
					<filter>
						<effect>
							<name>Audio Pan</name>
							<effectid>audiopan</effectid>
							<effectcategory>audiopan</effectcategory>
							<effecttype>audiopan</effecttype>
							<mediatype>audio</mediatype>
							<parameter>
								<name>Pan</name>
								<parameterid>pan</parameterid>
								<valuemin>-1</valuemin>
								<valuemax>1</valuemax>
								<value>-1</value>
							</parameter>
						</effect>
					</filter>
					<sourcetrack>
						<mediatype>audio</mediatype>
						<trackindex>1</trackindex>
					</sourcetrack>
					<link>
						<linkclipref>KOIF43001507AA6</linkclipref>
						<mediatype>video</mediatype>
						<trackindex>3</trackindex>
						<clipindex>9</clipindex>
					</link>
					<link>
						<linkclipref>KOIF43001507AA7</linkclipref>
						<mediatype>audio</mediatype>
						<trackindex>3</trackindex>
						<clipindex>6</clipindex>
					</link>
					<link>
						<linkclipref>KOIF43001507AA8</linkclipref>
						<mediatype>audio</mediatype>
						<trackindex>4</trackindex>
						<clipindex>9</clipindex>
					</link>
				</clipitem>
				<transitionitem id="920643636 ">
					<rate>
						<ntsc>FALSE</ntsc>
						<timebase>25</timebase>
					</rate>
					<start>8526</start>
					<end>8551</end>
					<alignment>center</alignment>
					<effect>
						<name>Cross Fade (+3dB) Copy</name>
						<effecttype>transition</effecttype>
						<mediatype>audio</mediatype>
					</effect>
				</transitionitem>
				<clipitem id="KOIF43001507AA11">
					<name>KOIF43001507AA</name>
					<duration>131201</duration>
					<rate>
						<ntsc>FALSE</ntsc>
						<timebase>25</timebase>
					</rate>
					<in>112588</in>
					<out>112677</out>
					<start>-1</start>
					<end>-1</end>
					<subframeoffset>0</subframeoffset>
					<masterclipid>KOIF43001507AA1</masterclipid>
					<logginginfo>
						<description>Jakten pÃ¥ nyresteinen</description>
						<scene/>
						<shottake/>
						<lognote/>
						<good>FALSE</good>
					</logginginfo>
					<labels>
						<label2/>
					</labels>
					<comments>
						<mastercomment1>ARKIVSTOFF. BR_FINFREDAG_MSUA_OPRO</mastercomment1>
						<mastercomment2>. Filmkameratene AS. </mastercomment2>
						<mastercomment3>Sendt: 1999-12-20. FILMKAMERATENE; Norge.</mastercomment3>
						<mastercomment4>Norsk spillefilm fra 1996. Bestefar har smerter, men Ã¥tteÃ¥rige Simen vet rÃ¥d. Han tryller seg liten og klatrer inn i bestefars kropp for Ã¥ finne ut hva som er i veien ... Regi: Vibeke IdsÃ¸e. Manus: Vibeke IdsÃ¸e. Musikk: Ragnar Bjerkreim. I rollene: Fru Galle ................ Kjersti HOLMEN (mv) Galle Junior ............. Lage FOSHEIM (mv) Sekr??t Service agent ..... Morten M. FALDAAS (mv) StemmebÃ¥ndsoperatÃ¸ren .... Sigve BÃ˜E (mv) TÃ¥retankoperatÃ¸rene ...... Harald EIA (mv), Gard EIDSVOLD (mv) A. Pendixrud ............. BjÃ¸rn JENSEG (mv) Hvitt punkerblodlegeme ... Jan "Devo" KORNSTAD (mv) / Jan KORNSTAD (mv) Hjerteharpen ............. Tone HULBÃ†KMO (mv) HjernesentraloperatÃ¸ren .. Leif DUBARD (mv) RÃ¸de kjÃ¦rlighetsvakter ... Herborg KRÃ…KEVIK (mv), Helen VIKSTVEDT (mv) Bestefar ................. Terje STRÃ˜MDAHL (mv) Bestemor ................. CÃ¦cilie NORDBY (mv) Bamsens stemme ........... Toralv Maurstad Ã˜vrige medvirkende: Tina HARTVIG (mv), Tinken LAURANTZON (mv), Ã˜ystein SELENIUS (mv), Adolf E. BJERKE (mv), Rune HEKKELSTRAND (mv), Rikke SANDLI (mv), Unn SANDVIG (mv), Celine SAASTAD (mv), Anne STRAY (mv), Arild SÃ˜GAARD (mv), Ruth GURHOLT (mv), Kjetil OLSEN (mv), Ine SANDVIG (mv), Aslaug GUTTORMSGÃ…RD (mv), Kjersti Borchgrevink MAAGERÃ˜ (mv), Kiran SHAH (mv), Camilla HARTVIG (mv), Raymond WIIK (mv).</mastercomment4>
						<clipcommenta/>
						<clipcommentb>1:F-mix venstre 2:F-mix hÃ¸yre 3:-- 4:--.4x3 PAL.</clipcommentb>
					</comments>
					<file id="KOIF43001507AA2"/>
					<filter>
						<effect>
							<name>Audio Levels</name>
							<effectid>audiolevels</effectid>
							<effectcategory>audiolevels</effectcategory>
							<effecttype>audiolevels</effecttype>
							<mediatype>audio</mediatype>
							<parameter>
								<name>Level</name>
								<parameterid>level</parameterid>
								<valuemin>0</valuemin>
								<valuemax>3.98109</valuemax>
								<value>0.112202</value>
							</parameter>
						</effect>
					</filter>
					<filter>
						<effect>
							<name>Audio Pan</name>
							<effectid>audiopan</effectid>
							<effectcategory>audiopan</effectcategory>
							<effecttype>audiopan</effecttype>
							<mediatype>audio</mediatype>
							<parameter>
								<name>Pan</name>
								<parameterid>pan</parameterid>
								<valuemin>-1</valuemin>
								<valuemax>1</valuemax>
								<value>-1</value>
							</parameter>
						</effect>
					</filter>
					<sourcetrack>
						<mediatype>audio</mediatype>
						<trackindex>1</trackindex>
					</sourcetrack>
					<link>
						<linkclipref>KOIF43001507AA10</linkclipref>
						<mediatype>video</mediatype>
						<trackindex>3</trackindex>
						<clipindex>11</clipindex>
					</link>
					<link>
						<linkclipref>KOIF43001507AA11</linkclipref>
						<mediatype>audio</mediatype>
						<trackindex>3</trackindex>
						<clipindex>8</clipindex>
					</link>
					<link>
						<linkclipref>KOIF43001507AA12</linkclipref>
						<mediatype>audio</mediatype>
						<trackindex>4</trackindex>
						<clipindex>11</clipindex>
					</link>
				</clipitem>
				<transitionitem id="920644452 ">
					<rate>
						<ntsc>FALSE</ntsc>
						<timebase>25</timebase>
					</rate>
					<start>8590</start>
					<end>8615</end>
					<alignment>center</alignment>
					<effect>
						<name>Cross Fade (+3dB) Copy</name>
						<effecttype>transition</effecttype>
						<mediatype>audio</mediatype>
					</effect>
				</transitionitem>
				<clipitem id="KOIF43001507AA14">
					<name>KOIF43001507AA</name>
					<duration>131201</duration>
					<rate>
						<ntsc>FALSE</ntsc>
						<timebase>25</timebase>
					</rate>
					<in>112778</in>
					<out>112866</out>
					<start>-1</start>
					<end>-1</end>
					<subframeoffset>0</subframeoffset>
					<masterclipid>KOIF43001507AA1</masterclipid>
					<logginginfo>
						<description>Jakten pÃ¥ nyresteinen</description>
						<scene/>
						<shottake/>
						<lognote/>
						<good>FALSE</good>
					</logginginfo>
					<labels>
						<label2/>
					</labels>
					<comments>
						<mastercomment1>ARKIVSTOFF. BR_FINFREDAG_MSUA_OPRO</mastercomment1>
						<mastercomment2>. Filmkameratene AS. </mastercomment2>
						<mastercomment3>Sendt: 1999-12-20. FILMKAMERATENE; Norge.</mastercomment3>
						<mastercomment4>Norsk spillefilm fra 1996. Bestefar har smerter, men Ã¥tteÃ¥rige Simen vet rÃ¥d. Han tryller seg liten og klatrer inn i bestefars kropp for Ã¥ finne ut hva som er i veien ... Regi: Vibeke IdsÃ¸e. Manus: Vibeke IdsÃ¸e. Musikk: Ragnar Bjerkreim. I rollene: Fru Galle ................ Kjersti HOLMEN (mv) Galle Junior ............. Lage FOSHEIM (mv) Sekr??t Service agent ..... Morten M. FALDAAS (mv) StemmebÃ¥ndsoperatÃ¸ren .... Sigve BÃ˜E (mv) TÃ¥retankoperatÃ¸rene ...... Harald EIA (mv), Gard EIDSVOLD (mv) A. Pendixrud ............. BjÃ¸rn JENSEG (mv) Hvitt punkerblodlegeme ... Jan "Devo" KORNSTAD (mv) / Jan KORNSTAD (mv) Hjerteharpen ............. Tone HULBÃ†KMO (mv) HjernesentraloperatÃ¸ren .. Leif DUBARD (mv) RÃ¸de kjÃ¦rlighetsvakter ... Herborg KRÃ…KEVIK (mv), Helen VIKSTVEDT (mv) Bestefar ................. Terje STRÃ˜MDAHL (mv) Bestemor ................. CÃ¦cilie NORDBY (mv) Bamsens stemme ........... Toralv Maurstad Ã˜vrige medvirkende: Tina HARTVIG (mv), Tinken LAURANTZON (mv), Ã˜ystein SELENIUS (mv), Adolf E. BJERKE (mv), Rune HEKKELSTRAND (mv), Rikke SANDLI (mv), Unn SANDVIG (mv), Celine SAASTAD (mv), Anne STRAY (mv), Arild SÃ˜GAARD (mv), Ruth GURHOLT (mv), Kjetil OLSEN (mv), Ine SANDVIG (mv), Aslaug GUTTORMSGÃ…RD (mv), Kjersti Borchgrevink MAAGERÃ˜ (mv), Kiran SHAH (mv), Camilla HARTVIG (mv), Raymond WIIK (mv).</mastercomment4>
						<clipcommenta/>
						<clipcommentb>1:F-mix venstre 2:F-mix hÃ¸yre 3:-- 4:--.4x3 PAL.</clipcommentb>
					</comments>
					<file id="KOIF43001507AA2"/>
					<filter>
						<effect>
							<name>Audio Levels</name>
							<effectid>audiolevels</effectid>
							<effectcategory>audiolevels</effectcategory>
							<effecttype>audiolevels</effecttype>
							<mediatype>audio</mediatype>
							<parameter>
								<name>Level</name>
								<parameterid>level</parameterid>
								<valuemin>0</valuemin>
								<valuemax>3.98109</valuemax>
								<value>1.58489</value>
							</parameter>
						</effect>
					</filter>
					<filter>
						<effect>
							<name>Audio Pan</name>
							<effectid>audiopan</effectid>
							<effectcategory>audiopan</effectcategory>
							<effecttype>audiopan</effecttype>
							<mediatype>audio</mediatype>
							<parameter>
								<name>Pan</name>
								<parameterid>pan</parameterid>
								<valuemin>-1</valuemin>
								<valuemax>1</valuemax>
								<value>-1</value>
							</parameter>
						</effect>
					</filter>
					<sourcetrack>
						<mediatype>audio</mediatype>
						<trackindex>1</trackindex>
					</sourcetrack>
					<link>
						<linkclipref>KOIF43001507AA13</linkclipref>
						<mediatype>video</mediatype>
						<trackindex>3</trackindex>
						<clipindex>12</clipindex>
					</link>
					<link>
						<linkclipref>KOIF43001507AA14</linkclipref>
						<mediatype>audio</mediatype>
						<trackindex>3</trackindex>
						<clipindex>10</clipindex>
					</link>
					<link>
						<linkclipref>KOIF43001507AA15</linkclipref>
						<mediatype>audio</mediatype>
						<trackindex>4</trackindex>
						<clipindex>13</clipindex>
					</link>
				</clipitem>
				<transitionitem id="920645268 ">
					<rate>
						<ntsc>FALSE</ntsc>
						<timebase>25</timebase>
					</rate>
					<start>8653</start>
					<end>8678</end>
					<alignment>center</alignment>
					<effect>
						<name>Cross Fade (+3dB) Copy</name>
						<effecttype>transition</effecttype>
						<mediatype>audio</mediatype>
					</effect>
				</transitionitem>
				<transitionitem id="920645744 ">
					<rate>
						<ntsc>FALSE</ntsc>
						<timebase>25</timebase>
					</rate>
					<start>10536</start>
					<end>10561</end>
					<alignment>start-black</alignment>
					<effect>
						<name>Cross Fade (+3dB) Copy</name>
						<effecttype>transition</effecttype>
						<mediatype>audio</mediatype>
					</effect>
				</transitionitem>
				<clipitem id="KOIF43001507AA4">
					<name>KOIF43001507AA</name>
					<duration>131201</duration>
					<rate>
						<ntsc>FALSE</ntsc>
						<timebase>25</timebase>
					</rate>
					<in>112881</in>
					<out>113313</out>
					<start>-1</start>
					<end>-1</end>
					<subframeoffset>0</subframeoffset>
					<enabled>TRUE</enabled>
					<masterclipid>KOIF43001507AA1</masterclipid>
					<logginginfo>
						<description>Jakten pÃ¥ nyresteinen</description>
						<scene/>
						<shottake/>
						<lognote/>
						<good>FALSE</good>
					</logginginfo>
					<labels>
						<label2/>
					</labels>
					<comments>
						<mastercomment1>ARKIVSTOFF. BR_FINFREDAG_MSUA_OPRO</mastercomment1>
						<mastercomment2>. Filmkameratene AS. </mastercomment2>
						<mastercomment3>Sendt: 1999-12-20. FILMKAMERATENE; Norge.</mastercomment3>
						<mastercomment4>Norsk spillefilm fra 1996. Bestefar har smerter, men Ã¥tteÃ¥rige Simen vet rÃ¥d. Han tryller seg liten og klatrer inn i bestefars kropp for Ã¥ finne ut hva som er i veien ... Regi: Vibeke IdsÃ¸e. Manus: Vibeke IdsÃ¸e. Musikk: Ragnar Bjerkreim. I rollene: Fru Galle ................ Kjersti HOLMEN (mv) Galle Junior ............. Lage FOSHEIM (mv) Sekr??t Service agent ..... Morten M. FALDAAS (mv) StemmebÃ¥ndsoperatÃ¸ren .... Sigve BÃ˜E (mv) TÃ¥retankoperatÃ¸rene ...... Harald EIA (mv), Gard EIDSVOLD (mv) A. Pendixrud ............. BjÃ¸rn JENSEG (mv) Hvitt punkerblodlegeme ... Jan "Devo" KORNSTAD (mv) / Jan KORNSTAD (mv) Hjerteharpen ............. Tone HULBÃ†KMO (mv) HjernesentraloperatÃ¸ren .. Leif DUBARD (mv) RÃ¸de kjÃ¦rlighetsvakter ... Herborg KRÃ…KEVIK (mv), Helen VIKSTVEDT (mv) Bestefar ................. Terje STRÃ˜MDAHL (mv) Bestemor ................. CÃ¦cilie NORDBY (mv) Bamsens stemme ........... Toralv Maurstad Ã˜vrige medvirkende: Tina HARTVIG (mv), Tinken LAURANTZON (mv), Ã˜ystein SELENIUS (mv), Adolf E. BJERKE (mv), Rune HEKKELSTRAND (mv), Rikke SANDLI (mv), Unn SANDVIG (mv), Celine SAASTAD (mv), Anne STRAY (mv), Arild SÃ˜GAARD (mv), Ruth GURHOLT (mv), Kjetil OLSEN (mv), Ine SANDVIG (mv), Aslaug GUTTORMSGÃ…RD (mv), Kjersti Borchgrevink MAAGERÃ˜ (mv), Kiran SHAH (mv), Camilla HARTVIG (mv), Raymond WIIK (mv).</mastercomment4>
						<clipcommenta/>
						<clipcommentb>1:F-mix venstre 2:F-mix hÃ¸yre 3:-- 4:--.4x3 PAL.</clipcommentb>
					</comments>
					<file id="KOIF43001507AA2"/>
					<filter>
						<effect>
							<name>Audio Levels</name>
							<effectid>audiolevels</effectid>
							<effectcategory>audiolevels</effectcategory>
							<effecttype>audiolevels</effecttype>
							<mediatype>audio</mediatype>
							<parameter>
								<name>Level</name>
								<parameterid>level</parameterid>
								<valuemin>0</valuemin>
								<valuemax>3.98109</valuemax>
								<keyframe>
									<when>113183</when>
									<value>1.41254</value>
								</keyframe>
								<keyframe>
									<when>113271</when>
									<value>0.707946</value>
								</keyframe>
								<keyframe>
									<when>113324</when>
									<value>0.199526</value>
								</keyframe>
								<interpolation>
									<name>FCPCurve</name>
								</interpolation>
								<value>0.538967</value>
							</parameter>
						</effect>
					</filter>
					<filter>
						<effect>
							<name>Audio Pan</name>
							<effectid>audiopan</effectid>
							<effectcategory>audiopan</effectcategory>
							<effecttype>audiopan</effecttype>
							<mediatype>audio</mediatype>
							<parameter>
								<name>Pan</name>
								<parameterid>pan</parameterid>
								<valuemin>-1</valuemin>
								<valuemax>1</valuemax>
								<value>-1</value>
							</parameter>
						</effect>
					</filter>
					<sourcetrack>
						<mediatype>audio</mediatype>
						<trackindex>1</trackindex>
					</sourcetrack>
					<link>
						<linkclipref>KOIF43001507AA3</linkclipref>
						<mediatype>video</mediatype>
						<trackindex>2</trackindex>
						<clipindex>12</clipindex>
					</link>
					<link>
						<linkclipref>KOIF43001507AA4</linkclipref>
						<mediatype>audio</mediatype>
						<trackindex>3</trackindex>
						<clipindex>13</clipindex>
					</link>
					<link>
						<linkclipref>KOIF43001507AA5</linkclipref>
						<mediatype>audio</mediatype>
						<trackindex>4</trackindex>
						<clipindex>16</clipindex>
					</link>
				</clipitem>
				<transitionitem id="920646832 ">
					<rate>
						<ntsc>FALSE</ntsc>
						<timebase>25</timebase>
					</rate>
					<start>10918</start>
					<end>10968</end>
					<alignment>start</alignment>
					<effect>
						<name>Cross Fade (+3dB) Copy</name>
						<effecttype>transition</effecttype>
						<mediatype>audio</mediatype>
					</effect>
				</transitionitem>
				<clipitem id="NONRO185488CD0010 Loco">
					<name>NONRO185488CD0010 Loco</name>
					<duration>4813</duration>
					<rate>
						<ntsc>FALSE</ntsc>
						<timebase>25</timebase>
					</rate>
					<in>4</in>
					<out>628</out>
					<start>23212</start>
					<end>23836</end>
					<enabled>TRUE</enabled>
					<masterclipid>NONRO185488CD0010 Loco1</masterclipid>
					<logginginfo>
						<scene/>
						<shottake/>
						<lognote/>
						<good>FALSE</good>
					</logginginfo>
					<labels>
						<label2/>
					</labels>
					<comments>
						<mastercomment1/>
						<mastercomment2/>
						<mastercomment3/>
						<mastercomment4/>
					</comments>
					<file id="NONRO185488CD0010 Loco2">
						<name>NONRO185488CD0010 Loco.aif</name>
						<pathurl>file://localhost/SuperSAN1/Prosjekter/MSUB20000012%20FIN%20FREDAG/MUSIKK/musikk%20Bieber%20ep%201/NONRO185488CD0010%20Loco.aif</pathurl>
						<rate>
							<timebase>25</timebase>
						</rate>
						<duration>4813</duration>
						<media>
							<audio>
								<rate>
									<timebase>48000</timebase>
								</rate>
								<trackcount>2</trackcount>
								<samplecharacteristics>
									<depth>16</depth>
								</samplecharacteristics>
							</audio>
						</media>
					</file>
					<filter>
						<effect>
							<name>Audio Levels</name>
							<effectid>audiolevels</effectid>
							<effectcategory>audiolevels</effectcategory>
							<effecttype>audiolevels</effecttype>
							<mediatype>audio</mediatype>
							<parameter>
								<name>Level</name>
								<parameterid>level</parameterid>
								<valuemin>0</valuemin>
								<valuemax>3.98109</valuemax>
								<keyframe>
									<when>9.28571</when>
									<value>0.0891251</value>
								</keyframe>
								<keyframe>
									<when>122.5</when>
									<value>0.0630957</value>
								</keyframe>
								<keyframe>
									<when>190</when>
									<value>0.0501187</value>
								</keyframe>
								<keyframe>
									<when>253.143</when>
									<value>0.0501187</value>
								</keyframe>
								<keyframe>
									<when>288.286</when>
									<value>0.112202</value>
								</keyframe>
								<keyframe>
									<when>350.286</when>
									<value>0.112202</value>
								</keyframe>
								<keyframe>
									<when>367</when>
									<value>0.0354813</value>
								</keyframe>
								<keyframe>
									<when>582</when>
									<value>0</value>
								</keyframe>
								<interpolation>
									<name>FCPCurve</name>
								</interpolation>
								<value>0.354813</value>
							</parameter>
						</effect>
					</filter>
					<filter>
						<effect>
							<name>Audio Pan</name>
							<effectid>audiopan</effectid>
							<effectcategory>audiopan</effectcategory>
							<effecttype>audiopan</effecttype>
							<mediatype>audio</mediatype>
							<parameter>
								<name>Pan</name>
								<parameterid>pan</parameterid>
								<valuemin>-1</valuemin>
								<valuemax>1</valuemax>
								<value>-1</value>
							</parameter>
						</effect>
					</filter>
					<sourcetrack>
						<mediatype>audio</mediatype>
						<trackindex>1</trackindex>
					</sourcetrack>
					<link>
						<linkclipref>NONRO185488CD0010 Loco</linkclipref>
						<mediatype>audio</mediatype>
						<trackindex>3</trackindex>
						<clipindex>15</clipindex>
						<groupindex>1</groupindex>
					</link>
					<link>
						<linkclipref>NONRO185488CD0010 Loco3</linkclipref>
						<mediatype>audio</mediatype>
						<trackindex>4</trackindex>
						<clipindex>51</clipindex>
						<groupindex>1</groupindex>
					</link>
				</clipitem>
				<clipitem id="msub20000012r-k1-d1-17025 5">
					<name>msub20000012r-k1-d1-17025</name>
					<duration>7583</duration>
					<rate>
						<ntsc>FALSE</ntsc>
						<timebase>25</timebase>
					</rate>
					<in>3059</in>
					<out>3146</out>
					<start>24276</start>
					<end>-1</end>
					<subframeoffset>0</subframeoffset>
					<masterclipid>msub20000012r-k1-d1-17025 1</masterclipid>
					<logginginfo>
						<description>msub20000012r-k1-d1-17025</description>
						<scene/>
						<shottake/>
						<lognote/>
						<good>FALSE</good>
					</logginginfo>
					<labels>
						<label2/>
					</labels>
					<comments>
						<mastercomment1>RÃ…STOFF</mastercomment1>
						<mastercomment2/>
						<mastercomment3/>
						<mastercomment4/>
					</comments>
					<file id="msub20000012r-k1-d1-17025 2"/>
					<filter>
						<effect>
							<name>Audio Levels</name>
							<effectid>audiolevels</effectid>
							<effectcategory>audiolevels</effectcategory>
							<effecttype>audiolevels</effecttype>
							<mediatype>audio</mediatype>
							<parameter>
								<name>Level</name>
								<parameterid>level</parameterid>
								<valuemin>0</valuemin>
								<valuemax>3.98109</valuemax>
								<keyframe>
									<when>3058.86</when>
									<value>0.158489</value>
								</keyframe>
								<keyframe>
									<when>3064.57</when>
									<value>0.501187</value>
								</keyframe>
								<interpolation>
									<name>FCPCurve</name>
								</interpolation>
								<value>1</value>
							</parameter>
						</effect>
					</filter>
					<filter>
						<effect>
							<name>Audio Pan</name>
							<effectid>audiopan</effectid>
							<effectcategory>audiopan</effectcategory>
							<effecttype>audiopan</effecttype>
							<mediatype>audio</mediatype>
							<parameter>
								<name>Pan</name>
								<parameterid>pan</parameterid>
								<valuemin>-1</valuemin>
								<valuemax>1</valuemax>
								<value>0</value>
							</parameter>
						</effect>
					</filter>
					<sourcetrack>
						<mediatype>audio</mediatype>
						<trackindex>3</trackindex>
					</sourcetrack>
				</clipitem>
				<transitionitem id="42">
					<rate>
						<ntsc>FALSE</ntsc>
						<timebase>25</timebase>
					</rate>
					<start>24358</start>
					<end>24363</end>
					<alignment>end-black</alignment>
					<effect>
						<name>Cross Fade ( 0dB)</name>
						<effecttype>transition</effecttype>
						<mediatype>audio</mediatype>
					</effect>
				</transitionitem>
				<clipitem id="kyss-smask.WAV">
					<name>kyss-smask.WAV</name>
					<duration>456</duration>
					<rate>
						<ntsc>FALSE</ntsc>
						<timebase>25</timebase>
					</rate>
					<in>273</in>
					<out>288</out>
					<start>24444</start>
					<end>24459</end>
					<subframeoffset>0</subframeoffset>
					<masterclipid>kyss-smask.WAV1</masterclipid>
					<logginginfo>
						<scene/>
						<shottake/>
						<lognote/>
						<good>FALSE</good>
					</logginginfo>
					<labels>
						<label2/>
					</labels>
					<comments>
						<mastercomment1/>
						<mastercomment2/>
						<mastercomment3/>
						<mastercomment4/>
					</comments>
					<file id="kyss-smask">
						<name>kyss-smask.WAV</name>
						<pathurl>file://localhost/SuperSAN1/Prosjekter/MSUB20000012%20FIN%20FREDAG/SFX/kyss-smask.WAV</pathurl>
						<rate>
							<timebase>25</timebase>
						</rate>
						<duration>456</duration>
						<timecode>
							<rate>
								<timebase>25</timebase>
							</rate>
							<string>00:00:00:00</string>
							<frame>0</frame>
							<displayformat>NDF</displayformat>
							<source>source</source>
						</timecode>
						<media>
							<audio>
								<rate>
									<timebase>48000</timebase>
								</rate>
								<trackcount>2</trackcount>
								<samplecharacteristics>
									<depth>16</depth>
								</samplecharacteristics>
							</audio>
						</media>
					</file>
					<filter>
						<effect>
							<name>Audio Levels</name>
							<effectid>audiolevels</effectid>
							<effectcategory>audiolevels</effectcategory>
							<effecttype>audiolevels</effecttype>
							<mediatype>audio</mediatype>
							<parameter>
								<name>Level</name>
								<parameterid>level</parameterid>
								<valuemin>0</valuemin>
								<valuemax>3.98109</valuemax>
								<value>0.141254</value>
							</parameter>
						</effect>
					</filter>
					<filter>
						<effect>
							<name>Audio Pan</name>
							<effectid>audiopan</effectid>
							<effectcategory>audiopan</effectcategory>
							<effecttype>audiopan</effecttype>
							<mediatype>audio</mediatype>
							<parameter>
								<name>Pan</name>
								<parameterid>pan</parameterid>
								<valuemin>-1</valuemin>
								<valuemax>1</valuemax>
								<value>-1</value>
							</parameter>
						</effect>
					</filter>
					<sourcetrack>
						<mediatype>audio</mediatype>
						<trackindex>1</trackindex>
					</sourcetrack>
					<link>
						<linkclipref>kyss-smask.WAV</linkclipref>
						<mediatype>audio</mediatype>
						<trackindex>3</trackindex>
						<clipindex>18</clipindex>
						<groupindex>1</groupindex>
					</link>
					<link>
						<linkclipref>kyss-smask.WAV2</linkclipref>
						<mediatype>audio</mediatype>
						<trackindex>4</trackindex>
						<clipindex>54</clipindex>
						<groupindex>1</groupindex>
					</link>
				</clipitem>
				<clipitem id="kyss-smask.WAV3">
					<name>kyss-smask.WAV</name>
					<duration>456</duration>
					<rate>
						<ntsc>FALSE</ntsc>
						<timebase>25</timebase>
					</rate>
					<in>306</in>
					<out>316</out>
					<start>24477</start>
					<end>24487</end>
					<subframeoffset>0</subframeoffset>
					<masterclipid>kyss-smask.WAV1</masterclipid>
					<logginginfo>
						<scene/>
						<shottake/>
						<lognote/>
						<good>FALSE</good>
					</logginginfo>
					<labels>
						<label2/>
					</labels>
					<comments>
						<mastercomment1/>
						<mastercomment2/>
						<mastercomment3/>
						<mastercomment4/>
					</comments>
					<file id="kyss-smask"/>
					<filter>
						<effect>
							<name>Audio Levels</name>
							<effectid>audiolevels</effectid>
							<effectcategory>audiolevels</effectcategory>
							<effecttype>audiolevels</effecttype>
							<mediatype>audio</mediatype>
							<parameter>
								<name>Level</name>
								<parameterid>level</parameterid>
								<valuemin>0</valuemin>
								<valuemax>3.98109</valuemax>
								<value>0.141254</value>
							</parameter>
						</effect>
					</filter>
					<filter>
						<effect>
							<name>Audio Pan</name>
							<effectid>audiopan</effectid>
							<effectcategory>audiopan</effectcategory>
							<effecttype>audiopan</effecttype>
							<mediatype>audio</mediatype>
							<parameter>
								<name>Pan</name>
								<parameterid>pan</parameterid>
								<valuemin>-1</valuemin>
								<valuemax>1</valuemax>
								<value>-1</value>
							</parameter>
						</effect>
					</filter>
					<sourcetrack>
						<mediatype>audio</mediatype>
						<trackindex>1</trackindex>
					</sourcetrack>
					<link>
						<linkclipref>kyss-smask.WAV3</linkclipref>
						<mediatype>audio</mediatype>
						<trackindex>3</trackindex>
						<clipindex>19</clipindex>
						<groupindex>1</groupindex>
					</link>
					<link>
						<linkclipref>kyss-smask.WAV4</linkclipref>
						<mediatype>audio</mediatype>
						<trackindex>4</trackindex>
						<clipindex>55</clipindex>
						<groupindex>1</groupindex>
					</link>
				</clipitem>
				<clipitem id="kyss-smask.WAV5">
					<name>kyss-smask.WAV</name>
					<duration>456</duration>
					<rate>
						<ntsc>FALSE</ntsc>
						<timebase>25</timebase>
					</rate>
					<in>180</in>
					<out>189</out>
					<start>24493</start>
					<end>24502</end>
					<subframeoffset>0</subframeoffset>
					<masterclipid>kyss-smask.WAV1</masterclipid>
					<logginginfo>
						<scene/>
						<shottake/>
						<lognote/>
						<good>FALSE</good>
					</logginginfo>
					<labels>
						<label2/>
					</labels>
					<comments>
						<mastercomment1/>
						<mastercomment2/>
						<mastercomment3/>
						<mastercomment4/>
					</comments>
					<file id="kyss-smask"/>
					<filter>
						<effect>
							<name>Audio Levels</name>
							<effectid>audiolevels</effectid>
							<effectcategory>audiolevels</effectcategory>
							<effecttype>audiolevels</effecttype>
							<mediatype>audio</mediatype>
							<parameter>
								<name>Level</name>
								<parameterid>level</parameterid>
								<valuemin>0</valuemin>
								<valuemax>3.98109</valuemax>
								<value>0.112202</value>
							</parameter>
						</effect>
					</filter>
					<filter>
						<effect>
							<name>Audio Pan</name>
							<effectid>audiopan</effectid>
							<effectcategory>audiopan</effectcategory>
							<effecttype>audiopan</effecttype>
							<mediatype>audio</mediatype>
							<parameter>
								<name>Pan</name>
								<parameterid>pan</parameterid>
								<valuemin>-1</valuemin>
								<valuemax>1</valuemax>
								<value>-1</value>
							</parameter>
						</effect>
					</filter>
					<sourcetrack>
						<mediatype>audio</mediatype>
						<trackindex>1</trackindex>
					</sourcetrack>
					<link>
						<linkclipref>kyss-smask.WAV5</linkclipref>
						<mediatype>audio</mediatype>
						<trackindex>3</trackindex>
						<clipindex>20</clipindex>
						<groupindex>1</groupindex>
					</link>
					<link>
						<linkclipref>kyss-smask.WAV6</linkclipref>
						<mediatype>audio</mediatype>
						<trackindex>4</trackindex>
						<clipindex>56</clipindex>
						<groupindex>1</groupindex>
					</link>
				</clipitem>
				<transitionitem id="920650844 ">
					<rate>
						<ntsc>FALSE</ntsc>
						<timebase>25</timebase>
					</rate>
					<start>24626</start>
					<end>24632</end>
					<alignment>center</alignment>
					<effect>
						<name>Cross Fade (+3dB) Copy</name>
						<effecttype>transition</effecttype>
						<mediatype>audio</mediatype>
					</effect>
				</transitionitem>
				<clipitem id="msub200012-2308-k1d2016.mxf7">
					<name>msub200012-2308-k1d2016.mxf</name>
					<duration>15795</duration>
					<rate>
						<ntsc>FALSE</ntsc>
						<timebase>25</timebase>
					</rate>
					<in>7298</in>
					<out>7352</out>
					<start>-1</start>
					<end>-1</end>
					<subframeoffset>0</subframeoffset>
					<masterclipid>msub200012-2308-k1d2016.mxf1</masterclipid>
					<logginginfo>
						<scene/>
						<shottake/>
						<lognote/>
						<good>FALSE</good>
					</logginginfo>
					<labels>
						<label2/>
					</labels>
					<comments>
						<mastercomment1/>
						<mastercomment2/>
						<mastercomment3/>
						<mastercomment4/>
					</comments>
					<file id="msub200012-2308-k1d2016 "/>
					<filter>
						<start>-1</start>
						<end>-1</end>
						<effect>
							<name>3 Band Equalizer - Kristine</name>
							<effecttype>filter</effecttype>
							<mediatype>audio</mediatype>
							<parameter>
								<parameterid>Low Frequency</parameterid>
								<name>Low Frequency</name>
								<valuemin>80</valuemin>
								<valuemax>2000</valuemax>
								<value>80</value>
							</parameter>
							<parameter>
								<parameterid>Low Gain(dB)</parameterid>
								<name>Low Gain(dB)</name>
								<valuemin>-20</valuemin>
								<valuemax>20</valuemax>
								<value>-4</value>
							</parameter>
							<parameter>
								<parameterid>Mid Frequency</parameterid>
								<name>Mid Frequency</name>
								<valuemin>400</valuemin>
								<valuemax>8000</valuemax>
								<value>3602</value>
							</parameter>
							<parameter>
								<parameterid>Mid Gain(dB)</parameterid>
								<name>Mid Gain(dB)</name>
								<valuemin>-20</valuemin>
								<valuemax>20</valuemax>
								<value>3</value>
							</parameter>
							<parameter>
								<parameterid>High Frequency</parameterid>
								<name>High Frequency</name>
								<valuemin>5000</valuemin>
								<valuemax>20000</valuemax>
								<value>10354</value>
							</parameter>
							<parameter>
								<parameterid>High Gain(dB)</parameterid>
								<name>High Gain(dB)</name>
								<valuemin>-20</valuemin>
								<valuemax>20</valuemax>
								<value>0</value>
							</parameter>
						</effect>
					</filter>
					<filter>
						<start>-1</start>
						<end>-1</end>
						<effect>
							<name>Compressor/Limiter</name>
							<effecttype>filter</effecttype>
							<mediatype>audio</mediatype>
							<parameter>
								<parameterid>Threshold(dB)</parameterid>
								<name>Threshold(dB)</name>
								<valuemin>-90</valuemin>
								<valuemax>0</valuemax>
								<value>-20</value>
							</parameter>
							<parameter>
								<parameterid>Ratio</parameterid>
								<name>Ratio</name>
								<valuemin>1</valuemin>
								<valuemax>100</valuemax>
								<value>2</value>
							</parameter>
							<parameter>
								<parameterid>Attack Time</parameterid>
								<name>Attack Time</name>
								<valuemin>1</valuemin>
								<valuemax>100</valuemax>
								<value>5</value>
							</parameter>
							<parameter>
								<parameterid>Release Time</parameterid>
								<name>Release Time</name>
								<valuemin>1</valuemin>
								<valuemax>4000</valuemax>
								<value>209</value>
							</parameter>
							<parameter>
								<parameterid>Preserve Volume</parameterid>
								<name>Preserve Volume</name>
								<value>TRUE</value>
							</parameter>
						</effect>
					</filter>
					<filter>
						<effect>
							<name>Audio Levels</name>
							<effectid>audiolevels</effectid>
							<effectcategory>audiolevels</effectcategory>
							<effecttype>audiolevels</effecttype>
							<mediatype>audio</mediatype>
							<parameter>
								<name>Level</name>
								<parameterid>level</parameterid>
								<valuemin>0</valuemin>
								<valuemax>3.98109</valuemax>
								<value>0.281838</value>
							</parameter>
						</effect>
					</filter>
					<filter>
						<effect>
							<name>Audio Pan</name>
							<effectid>audiopan</effectid>
							<effectcategory>audiopan</effectcategory>
							<effecttype>audiopan</effecttype>
							<mediatype>audio</mediatype>
							<parameter>
								<name>Pan</name>
								<parameterid>pan</parameterid>
								<valuemin>-1</valuemin>
								<valuemax>1</valuemax>
								<value>0</value>
							</parameter>
						</effect>
					</filter>
					<sourcetrack>
						<mediatype>audio</mediatype>
						<trackindex>3</trackindex>
					</sourcetrack>
					<link>
						<linkclipref>msub200012-2308-k1d2016.mxf7</linkclipref>
						<mediatype>audio</mediatype>
						<trackindex>3</trackindex>
						<clipindex>22</clipindex>
					</link>
					<link>
						<linkclipref>msub200012-2308-k1d2016.mxf8</linkclipref>
						<mediatype>audio</mediatype>
						<trackindex>4</trackindex>
						<clipindex>58</clipindex>
					</link>
				</clipitem>
				<transitionitem id="920654312 ">
					<rate>
						<ntsc>FALSE</ntsc>
						<timebase>25</timebase>
					</rate>
					<start>24674</start>
					<end>24680</end>
					<alignment>end-black</alignment>
					<effect>
						<name>Cross Fade (+3dB) Copy</name>
						<effecttype>transition</effecttype>
						<mediatype>audio</mediatype>
					</effect>
				</transitionitem>
				<transitionitem id="43">
					<rate>
						<ntsc>FALSE</ntsc>
						<timebase>25</timebase>
					</rate>
					<start>24720</start>
					<end>24722</end>
					<alignment>start-black</alignment>
					<effect>
						<name>Cross Fade ( 0dB)</name>
						<effecttype>transition</effecttype>
						<mediatype>audio</mediatype>
					</effect>
				</transitionitem>
				<clipitem id="msub200012-2308-k1d1-005 7">
					<name>msub200012-2308-k1d1-005</name>
					<duration>6527</duration>
					<rate>
						<ntsc>FALSE</ntsc>
						<timebase>25</timebase>
					</rate>
					<in>3066</in>
					<out>3163</out>
					<start>-1</start>
					<end>-1</end>
					<subframeoffset>0</subframeoffset>
					<masterclipid>msub200012-2308-k1d1-005 1</masterclipid>
					<logginginfo>
						<description>msub200012-2308-k1d1-005</description>
						<scene/>
						<shottake/>
						<lognote/>
						<good>FALSE</good>
					</logginginfo>
					<labels>
						<label2/>
					</labels>
					<comments>
						<mastercomment1>RÃ…STOFF. BR_FINFREDAG_MSUA_OPRO</mastercomment1>
						<mastercomment2/>
						<mastercomment3/>
						<mastercomment4/>
					</comments>
					<file id="msub200012-2308-k1d1-005 2"/>
					<filter>
						<start>-1</start>
						<end>-1</end>
						<effect>
							<name>3 Band Equalizer - tlf</name>
							<effecttype>filter</effecttype>
							<mediatype>audio</mediatype>
							<parameter>
								<parameterid>Low Frequency</parameterid>
								<name>Low Frequency</name>
								<valuemin>80</valuemin>
								<valuemax>2000</valuemax>
								<value>837</value>
							</parameter>
							<parameter>
								<parameterid>Low Gain(dB)</parameterid>
								<name>Low Gain(dB)</name>
								<valuemin>-20</valuemin>
								<valuemax>20</valuemax>
								<value>-18</value>
							</parameter>
							<parameter>
								<parameterid>Mid Frequency</parameterid>
								<name>Mid Frequency</name>
								<valuemin>400</valuemin>
								<valuemax>8000</valuemax>
								<value>3297</value>
							</parameter>
							<parameter>
								<parameterid>Mid Gain(dB)</parameterid>
								<name>Mid Gain(dB)</name>
								<valuemin>-20</valuemin>
								<valuemax>20</valuemax>
								<value>-11</value>
							</parameter>
							<parameter>
								<parameterid>High Frequency</parameterid>
								<name>High Frequency</name>
								<valuemin>5000</valuemin>
								<valuemax>20000</valuemax>
								<value>10354</value>
							</parameter>
							<parameter>
								<parameterid>High Gain(dB)</parameterid>
								<name>High Gain(dB)</name>
								<valuemin>-20</valuemin>
								<valuemax>20</valuemax>
								<value>-20</value>
							</parameter>
						</effect>
					</filter>
					<filter>
						<start>-1</start>
						<end>-1</end>
						<effect>
							<name>Compressor/Limiter</name>
							<effecttype>filter</effecttype>
							<mediatype>audio</mediatype>
							<parameter>
								<parameterid>Threshold(dB)</parameterid>
								<name>Threshold(dB)</name>
								<valuemin>-90</valuemin>
								<valuemax>0</valuemax>
								<value>-34</value>
							</parameter>
							<parameter>
								<parameterid>Ratio</parameterid>
								<name>Ratio</name>
								<valuemin>1</valuemin>
								<valuemax>100</valuemax>
								<value>2</value>
							</parameter>
							<parameter>
								<parameterid>Attack Time</parameterid>
								<name>Attack Time</name>
								<valuemin>1</valuemin>
								<valuemax>100</valuemax>
								<value>10</value>
							</parameter>
							<parameter>
								<parameterid>Release Time</parameterid>
								<name>Release Time</name>
								<valuemin>1</valuemin>
								<valuemax>4000</valuemax>
								<value>100</value>
							</parameter>
							<parameter>
								<parameterid>Preserve Volume</parameterid>
								<name>Preserve Volume</name>
								<value>TRUE</value>
							</parameter>
						</effect>
					</filter>
					<filter>
						<effect>
							<name>Audio Levels</name>
							<effectid>audiolevels</effectid>
							<effectcategory>audiolevels</effectcategory>
							<effecttype>audiolevels</effecttype>
							<mediatype>audio</mediatype>
							<parameter>
								<name>Level</name>
								<parameterid>level</parameterid>
								<valuemin>0</valuemin>
								<valuemax>3.98109</valuemax>
								<keyframe>
									<when>3139.86</when>
									<value>0.141254</value>
								</keyframe>
								<keyframe>
									<when>3147.14</when>
									<value>0.398107</value>
								</keyframe>
								<interpolation>
									<name>FCPCurve</name>
								</interpolation>
								<value>0.141254</value>
							</parameter>
						</effect>
					</filter>
					<filter>
						<effect>
							<name>Audio Pan</name>
							<effectid>audiopan</effectid>
							<effectcategory>audiopan</effectcategory>
							<effecttype>audiopan</effecttype>
							<mediatype>audio</mediatype>
							<parameter>
								<name>Pan</name>
								<parameterid>pan</parameterid>
								<valuemin>-1</valuemin>
								<valuemax>1</valuemax>
								<value>0</value>
							</parameter>
						</effect>
					</filter>
					<sourcetrack>
						<mediatype>audio</mediatype>
						<trackindex>1</trackindex>
					</sourcetrack>
				</clipitem>
				<transitionitem id="44">
					<rate>
						<ntsc>FALSE</ntsc>
						<timebase>25</timebase>
					</rate>
					<start>24813</start>
					<end>24817</end>
					<alignment>center</alignment>
					<effect>
						<name>Cross Fade (+3dB) Copy</name>
						<effecttype>transition</effecttype>
						<mediatype>audio</mediatype>
					</effect>
				</transitionitem>
				<clipitem id="msub200012-2308-k1d1-005 8">
					<name>msub200012-2308-k1d1-005</name>
					<duration>6527</duration>
					<rate>
						<ntsc>FALSE</ntsc>
						<timebase>25</timebase>
					</rate>
					<in>3159</in>
					<out>3264</out>
					<start>-1</start>
					<end>-1</end>
					<subframeoffset>0</subframeoffset>
					<masterclipid>msub200012-2308-k1d1-005 1</masterclipid>
					<logginginfo>
						<description>msub200012-2308-k1d1-005</description>
						<scene/>
						<shottake/>
						<lognote/>
						<good>FALSE</good>
					</logginginfo>
					<labels>
						<label2/>
					</labels>
					<comments>
						<mastercomment1>RÃ…STOFF. BR_FINFREDAG_MSUA_OPRO</mastercomment1>
						<mastercomment2/>
						<mastercomment3/>
						<mastercomment4/>
					</comments>
					<file id="msub200012-2308-k1d1-005 2"/>
					<filter>
						<start>-1</start>
						<end>-1</end>
						<effect>
							<name>3 Band Equalizer - tlf</name>
							<effecttype>filter</effecttype>
							<mediatype>audio</mediatype>
							<parameter>
								<parameterid>Low Frequency</parameterid>
								<name>Low Frequency</name>
								<valuemin>80</valuemin>
								<valuemax>2000</valuemax>
								<value>837</value>
							</parameter>
							<parameter>
								<parameterid>Low Gain(dB)</parameterid>
								<name>Low Gain(dB)</name>
								<valuemin>-20</valuemin>
								<valuemax>20</valuemax>
								<value>-18</value>
							</parameter>
							<parameter>
								<parameterid>Mid Frequency</parameterid>
								<name>Mid Frequency</name>
								<valuemin>400</valuemin>
								<valuemax>8000</valuemax>
								<value>3297</value>
							</parameter>
							<parameter>
								<parameterid>Mid Gain(dB)</parameterid>
								<name>Mid Gain(dB)</name>
								<valuemin>-20</valuemin>
								<valuemax>20</valuemax>
								<value>-11</value>
							</parameter>
							<parameter>
								<parameterid>High Frequency</parameterid>
								<name>High Frequency</name>
								<valuemin>5000</valuemin>
								<valuemax>20000</valuemax>
								<value>10354</value>
							</parameter>
							<parameter>
								<parameterid>High Gain(dB)</parameterid>
								<name>High Gain(dB)</name>
								<valuemin>-20</valuemin>
								<valuemax>20</valuemax>
								<value>-20</value>
							</parameter>
						</effect>
					</filter>
					<filter>
						<start>-1</start>
						<end>-1</end>
						<effect>
							<name>Compressor/Limiter</name>
							<effecttype>filter</effecttype>
							<mediatype>audio</mediatype>
							<parameter>
								<parameterid>Threshold(dB)</parameterid>
								<name>Threshold(dB)</name>
								<valuemin>-90</valuemin>
								<valuemax>0</valuemax>
								<value>-34</value>
							</parameter>
							<parameter>
								<parameterid>Ratio</parameterid>
								<name>Ratio</name>
								<valuemin>1</valuemin>
								<valuemax>100</valuemax>
								<value>2</value>
							</parameter>
							<parameter>
								<parameterid>Attack Time</parameterid>
								<name>Attack Time</name>
								<valuemin>1</valuemin>
								<valuemax>100</valuemax>
								<value>10</value>
							</parameter>
							<parameter>
								<parameterid>Release Time</parameterid>
								<name>Release Time</name>
								<valuemin>1</valuemin>
								<valuemax>4000</valuemax>
								<value>100</value>
							</parameter>
							<parameter>
								<parameterid>Preserve Volume</parameterid>
								<name>Preserve Volume</name>
								<value>TRUE</value>
							</parameter>
						</effect>
					</filter>
					<filter>
						<start>-1</start>
						<end>-1</end>
						<effect>
							<name>3 Band Equalizer - tlf - 2</name>
							<effecttype>filter</effecttype>
							<mediatype>audio</mediatype>
							<parameter>
								<parameterid>Low Frequency</parameterid>
								<name>Low Frequency</name>
								<valuemin>80</valuemin>
								<valuemax>2000</valuemax>
								<value>837</value>
							</parameter>
							<parameter>
								<parameterid>Low Gain(dB)</parameterid>
								<name>Low Gain(dB)</name>
								<valuemin>-20</valuemin>
								<valuemax>20</valuemax>
								<value>-18</value>
							</parameter>
							<parameter>
								<parameterid>Mid Frequency</parameterid>
								<name>Mid Frequency</name>
								<valuemin>400</valuemin>
								<valuemax>8000</valuemax>
								<value>3297</value>
							</parameter>
							<parameter>
								<parameterid>Mid Gain(dB)</parameterid>
								<name>Mid Gain(dB)</name>
								<valuemin>-20</valuemin>
								<valuemax>20</valuemax>
								<value>-11</value>
							</parameter>
							<parameter>
								<parameterid>High Frequency</parameterid>
								<name>High Frequency</name>
								<valuemin>5000</valuemin>
								<valuemax>20000</valuemax>
								<value>10354</value>
							</parameter>
							<parameter>
								<parameterid>High Gain(dB)</parameterid>
								<name>High Gain(dB)</name>
								<valuemin>-20</valuemin>
								<valuemax>20</valuemax>
								<value>-20</value>
							</parameter>
						</effect>
					</filter>
					<filter>
						<start>-1</start>
						<end>-1</end>
						<effect>
							<name>Compressor/Limiter - 2</name>
							<effecttype>filter</effecttype>
							<mediatype>audio</mediatype>
							<parameter>
								<parameterid>Threshold(dB)</parameterid>
								<name>Threshold(dB)</name>
								<valuemin>-90</valuemin>
								<valuemax>0</valuemax>
								<value>-34</value>
							</parameter>
							<parameter>
								<parameterid>Ratio</parameterid>
								<name>Ratio</name>
								<valuemin>1</valuemin>
								<valuemax>100</valuemax>
								<value>2</value>
							</parameter>
							<parameter>
								<parameterid>Attack Time</parameterid>
								<name>Attack Time</name>
								<valuemin>1</valuemin>
								<valuemax>100</valuemax>
								<value>10</value>
							</parameter>
							<parameter>
								<parameterid>Release Time</parameterid>
								<name>Release Time</name>
								<valuemin>1</valuemin>
								<valuemax>4000</valuemax>
								<value>100</value>
							</parameter>
							<parameter>
								<parameterid>Preserve Volume</parameterid>
								<name>Preserve Volume</name>
								<value>TRUE</value>
							</parameter>
						</effect>
					</filter>
					<filter>
						<effect>
							<name>Audio Levels</name>
							<effectid>audiolevels</effectid>
							<effectcategory>audiolevels</effectcategory>
							<effecttype>audiolevels</effecttype>
							<mediatype>audio</mediatype>
							<parameter>
								<name>Level</name>
								<parameterid>level</parameterid>
								<valuemin>0</valuemin>
								<valuemax>3.98109</valuemax>
								<keyframe>
									<when>3212.86</when>
									<value>0.501187</value>
								</keyframe>
								<keyframe>
									<when>3216.29</when>
									<value>0.0501187</value>
								</keyframe>
								<keyframe>
									<when>3280.14</when>
									<value>0.0354813</value>
								</keyframe>
								<interpolation>
									<name>FCPCurve</name>
								</interpolation>
								<value>0.794328</value>
							</parameter>
						</effect>
					</filter>
					<filter>
						<effect>
							<name>Audio Pan</name>
							<effectid>audiopan</effectid>
							<effectcategory>audiopan</effectcategory>
							<effecttype>audiopan</effecttype>
							<mediatype>audio</mediatype>
							<parameter>
								<name>Pan</name>
								<parameterid>pan</parameterid>
								<valuemin>-1</valuemin>
								<valuemax>1</valuemax>
								<value>0</value>
							</parameter>
						</effect>
					</filter>
					<sourcetrack>
						<mediatype>audio</mediatype>
						<trackindex>1</trackindex>
					</sourcetrack>
				</clipitem>
				<transitionitem id="45">
					<rate>
						<ntsc>FALSE</ntsc>
						<timebase>25</timebase>
					</rate>
					<start>24916</start>
					<end>24918</end>
					<alignment>end-black</alignment>
					<effect>
						<name>Cross Fade ( 0dB)</name>
						<effecttype>transition</effecttype>
						<mediatype>audio</mediatype>
					</effect>
				</transitionitem>
				<clipitem id="msub200012-2308-k1d1-006 ">
					<name>msub200012-2308-k1d1-006</name>
					<duration>1390</duration>
					<rate>
						<ntsc>FALSE</ntsc>
						<timebase>25</timebase>
					</rate>
					<in>588</in>
					<out>613</out>
					<start>25009</start>
					<end>25034</end>
					<subframeoffset>0</subframeoffset>
					<enabled>TRUE</enabled>
					<masterclipid>msub200012-2308-k1d1-006 1</masterclipid>
					<logginginfo>
						<description>msub200012-2308-k1d1-006</description>
						<scene/>
						<shottake/>
						<lognote/>
						<good>FALSE</good>
					</logginginfo>
					<labels>
						<label2/>
					</labels>
					<comments>
						<mastercomment1>RÃ…STOFF. BR_FINFREDAG_MSUA_OPRO</mastercomment1>
						<mastercomment2/>
						<mastercomment3/>
						<mastercomment4/>
					</comments>
					<file id="msub200012-2308-k1d1-006 2">
						<name>msub200012-2308-k1d1-006.mxf</name>
						<pathurl>file://localhost/omfs/clip.dir/MXF/1080i/msub200012-2308-k1d1-006.mxf</pathurl>
						<rate>
							<timebase>25</timebase>
						</rate>
						<duration>1390</duration>
						<timecode>
							<rate>
								<timebase>25</timebase>
							</rate>
							<string>07:32:09:20</string>
							<frame>678245</frame>
							<displayformat>NDF</displayformat>
							<source>source</source>
						</timecode>
						<media>
							<video>
								<duration>1390</duration>
								<samplecharacteristics>
									<width>1920</width>
									<height>1080</height>
								</samplecharacteristics>
							</video>
							<audio>
								<rate>
									<timebase>48000</timebase>
								</rate>
								<trackcount>1</trackcount>
								<samplecharacteristics>
									<depth>24</depth>
								</samplecharacteristics>
							</audio>
						</media>
					</file>
					<filter>
						<enabled>TRUE</enabled>
						<start>-1</start>
						<end>-1</end>
						<effect>
							<name>3 Band Equalizer - tlf</name>
							<effecttype>filter</effecttype>
							<mediatype>audio</mediatype>
							<parameter>
								<parameterid>Low Frequency</parameterid>
								<name>Low Frequency</name>
								<valuemin>80</valuemin>
								<valuemax>2000</valuemax>
								<value>837</value>
							</parameter>
							<parameter>
								<parameterid>Low Gain(dB)</parameterid>
								<name>Low Gain(dB)</name>
								<valuemin>-20</valuemin>
								<valuemax>20</valuemax>
								<value>-18</value>
							</parameter>
							<parameter>
								<parameterid>Mid Frequency</parameterid>
								<name>Mid Frequency</name>
								<valuemin>400</valuemin>
								<valuemax>8000</valuemax>
								<value>3297</value>
							</parameter>
							<parameter>
								<parameterid>Mid Gain(dB)</parameterid>
								<name>Mid Gain(dB)</name>
								<valuemin>-20</valuemin>
								<valuemax>20</valuemax>
								<value>-11</value>
							</parameter>
							<parameter>
								<parameterid>High Frequency</parameterid>
								<name>High Frequency</name>
								<valuemin>5000</valuemin>
								<valuemax>20000</valuemax>
								<value>10354</value>
							</parameter>
							<parameter>
								<parameterid>High Gain(dB)</parameterid>
								<name>High Gain(dB)</name>
								<valuemin>-20</valuemin>
								<valuemax>20</valuemax>
								<value>-20</value>
							</parameter>
						</effect>
					</filter>
					<filter>
						<enabled>TRUE</enabled>
						<start>-1</start>
						<end>-1</end>
						<effect>
							<name>Compressor/Limiter</name>
							<effecttype>filter</effecttype>
							<mediatype>audio</mediatype>
							<parameter>
								<parameterid>Threshold(dB)</parameterid>
								<name>Threshold(dB)</name>
								<valuemin>-90</valuemin>
								<valuemax>0</valuemax>
								<value>-34</value>
							</parameter>
							<parameter>
								<parameterid>Ratio</parameterid>
								<name>Ratio</name>
								<valuemin>1</valuemin>
								<valuemax>100</valuemax>
								<value>2</value>
							</parameter>
							<parameter>
								<parameterid>Attack Time</parameterid>
								<name>Attack Time</name>
								<valuemin>1</valuemin>
								<valuemax>100</valuemax>
								<value>10</value>
							</parameter>
							<parameter>
								<parameterid>Release Time</parameterid>
								<name>Release Time</name>
								<valuemin>1</valuemin>
								<valuemax>4000</valuemax>
								<value>100</value>
							</parameter>
							<parameter>
								<parameterid>Preserve Volume</parameterid>
								<name>Preserve Volume</name>
								<value>TRUE</value>
							</parameter>
						</effect>
					</filter>
					<filter>
						<enabled>TRUE</enabled>
						<start>-1</start>
						<end>-1</end>
						<effect>
							<name>3 Band Equalizer - tlf - 2</name>
							<effecttype>filter</effecttype>
							<mediatype>audio</mediatype>
							<parameter>
								<parameterid>Low Frequency</parameterid>
								<name>Low Frequency</name>
								<valuemin>80</valuemin>
								<valuemax>2000</valuemax>
								<value>837</value>
							</parameter>
							<parameter>
								<parameterid>Low Gain(dB)</parameterid>
								<name>Low Gain(dB)</name>
								<valuemin>-20</valuemin>
								<valuemax>20</valuemax>
								<value>-18</value>
							</parameter>
							<parameter>
								<parameterid>Mid Frequency</parameterid>
								<name>Mid Frequency</name>
								<valuemin>400</valuemin>
								<valuemax>8000</valuemax>
								<value>3297</value>
							</parameter>
							<parameter>
								<parameterid>Mid Gain(dB)</parameterid>
								<name>Mid Gain(dB)</name>
								<valuemin>-20</valuemin>
								<valuemax>20</valuemax>
								<value>-8</value>
							</parameter>
							<parameter>
								<parameterid>High Frequency</parameterid>
								<name>High Frequency</name>
								<valuemin>5000</valuemin>
								<valuemax>20000</valuemax>
								<value>10354</value>
							</parameter>
							<parameter>
								<parameterid>High Gain(dB)</parameterid>
								<name>High Gain(dB)</name>
								<valuemin>-20</valuemin>
								<valuemax>20</valuemax>
								<value>-20</value>
							</parameter>
						</effect>
					</filter>
					<filter>
						<enabled>TRUE</enabled>
						<start>-1</start>
						<end>-1</end>
						<effect>
							<name>Compressor/Limiter - 2</name>
							<effecttype>filter</effecttype>
							<mediatype>audio</mediatype>
							<parameter>
								<parameterid>Threshold(dB)</parameterid>
								<name>Threshold(dB)</name>
								<valuemin>-90</valuemin>
								<valuemax>0</valuemax>
								<value>-34</value>
							</parameter>
							<parameter>
								<parameterid>Ratio</parameterid>
								<name>Ratio</name>
								<valuemin>1</valuemin>
								<valuemax>100</valuemax>
								<value>2</value>
							</parameter>
							<parameter>
								<parameterid>Attack Time</parameterid>
								<name>Attack Time</name>
								<valuemin>1</valuemin>
								<valuemax>100</valuemax>
								<value>10</value>
							</parameter>
							<parameter>
								<parameterid>Release Time</parameterid>
								<name>Release Time</name>
								<valuemin>1</valuemin>
								<valuemax>4000</valuemax>
								<value>100</value>
							</parameter>
							<parameter>
								<parameterid>Preserve Volume</parameterid>
								<name>Preserve Volume</name>
								<value>TRUE</value>
							</parameter>
						</effect>
					</filter>
					<filter>
						<effect>
							<name>Audio Levels</name>
							<effectid>audiolevels</effectid>
							<effectcategory>audiolevels</effectcategory>
							<effecttype>audiolevels</effecttype>
							<mediatype>audio</mediatype>
							<parameter>
								<name>Level</name>
								<parameterid>level</parameterid>
								<valuemin>0</valuemin>
								<valuemax>3.98109</valuemax>
								<keyframe>
									<when>383.429</when>
									<value>0.501187</value>
								</keyframe>
								<keyframe>
									<when>387.714</when>
									<value>0.547459</value>
								</keyframe>
								<keyframe>
									<when>402.286</when>
									<value>0.480398</value>
								</keyframe>
								<keyframe>
									<when>422.5</when>
									<value>0.0129338</value>
								</keyframe>
								<keyframe>
									<when>524.429</when>
									<value>0.00665714</value>
								</keyframe>
								<keyframe>
									<when>531.286</when>
									<value>0.501187</value>
								</keyframe>
								<interpolation>
									<name>FCPCurve</name>
								</interpolation>
								<value>0.00695603</value>
							</parameter>
						</effect>
					</filter>
					<filter>
						<effect>
							<name>Audio Pan</name>
							<effectid>audiopan</effectid>
							<effectcategory>audiopan</effectcategory>
							<effecttype>audiopan</effecttype>
							<mediatype>audio</mediatype>
							<parameter>
								<name>Pan</name>
								<parameterid>pan</parameterid>
								<valuemin>-1</valuemin>
								<valuemax>1</valuemax>
								<value>0</value>
							</parameter>
						</effect>
					</filter>
					<sourcetrack>
						<mediatype>audio</mediatype>
						<trackindex>1</trackindex>
					</sourcetrack>
				</clipitem>
				<clipitem id="msub200012-2211058 3">
					<name>msub200012-2211058</name>
					<duration>1644</duration>
					<rate>
						<ntsc>FALSE</ntsc>
						<timebase>25</timebase>
					</rate>
					<in>1143</in>
					<out>1224</out>
					<start>28332</start>
					<end>-1</end>
					<subframeoffset>0</subframeoffset>
					<enabled>TRUE</enabled>
					<masterclipid>msub200012-2211058 1</masterclipid>
					<logginginfo>
						<description>msub200012-2211058</description>
						<scene/>
						<shottake/>
						<lognote/>
						<good>FALSE</good>
					</logginginfo>
					<labels>
						<label2/>
					</labels>
					<comments>
						<mastercomment1>BARN OG UNGDOM. BR_FINFREDAG_MSUA_OPRO</mastercomment1>
						<mastercomment2/>
						<mastercomment3/>
						<mastercomment4/>
						<clipcommenta/>
					</comments>
					<file id="msub200012-2211058 2"/>
					<filter>
						<effect>
							<name>Audio Levels</name>
							<effectid>audiolevels</effectid>
							<effectcategory>audiolevels</effectcategory>
							<effecttype>audiolevels</effecttype>
							<mediatype>audio</mediatype>
							<parameter>
								<name>Level</name>
								<parameterid>level</parameterid>
								<valuemin>0</valuemin>
								<valuemax>3.98109</valuemax>
								<value>1</value>
							</parameter>
						</effect>
					</filter>
					<filter>
						<effect>
							<name>Audio Pan</name>
							<effectid>audiopan</effectid>
							<effectcategory>audiopan</effectcategory>
							<effecttype>audiopan</effecttype>
							<mediatype>audio</mediatype>
							<parameter>
								<name>Pan</name>
								<parameterid>pan</parameterid>
								<valuemin>-1</valuemin>
								<valuemax>1</valuemax>
								<value>0</value>
							</parameter>
						</effect>
					</filter>
					<sourcetrack>
						<mediatype>audio</mediatype>
						<trackindex>1</trackindex>
					</sourcetrack>
					<link>
						<linkclipref>msub200012-2211058 </linkclipref>
						<mediatype>video</mediatype>
						<trackindex>2</trackindex>
						<clipindex>37</clipindex>
					</link>
					<link>
						<linkclipref>msub200012-2211058 3</linkclipref>
						<mediatype>audio</mediatype>
						<trackindex>3</trackindex>
						<clipindex>30</clipindex>
					</link>
				</clipitem>
				<transitionitem id="920670020 ">
					<rate>
						<ntsc>FALSE</ntsc>
						<timebase>25</timebase>
					</rate>
					<start>28407</start>
					<end>28413</end>
					<alignment>center</alignment>
					<effect>
						<name>Cross Fade (+3dB) Copy</name>
						<effecttype>transition</effecttype>
						<mediatype>audio</mediatype>
					</effect>
				</transitionitem>
				<clipitem id="msub200012-2211055 3">
					<name>msub200012-2211055</name>
					<duration>468</duration>
					<rate>
						<ntsc>FALSE</ntsc>
						<timebase>25</timebase>
					</rate>
					<in>53</in>
					<out>244</out>
					<start>-1</start>
					<end>-1</end>
					<subframeoffset>0</subframeoffset>
					<enabled>TRUE</enabled>
					<masterclipid>msub200012-2211055 1</masterclipid>
					<logginginfo>
						<description>msub200012-2211055</description>
						<scene/>
						<shottake/>
						<lognote/>
						<good>FALSE</good>
					</logginginfo>
					<labels>
						<label2/>
					</labels>
					<comments>
						<mastercomment1>BARN OG UNGDOM. BR_FINFREDAG_MSUA_OPRO</mastercomment1>
						<mastercomment2/>
						<mastercomment3/>
						<mastercomment4/>
						<clipcommenta/>
					</comments>
					<file id="msub200012-2211055 2"/>
					<filter>
						<effect>
							<name>Audio Levels</name>
							<effectid>audiolevels</effectid>
							<effectcategory>audiolevels</effectcategory>
							<effecttype>audiolevels</effecttype>
							<mediatype>audio</mediatype>
							<parameter>
								<name>Level</name>
								<parameterid>level</parameterid>
								<valuemin>0</valuemin>
								<valuemax>3.98109</valuemax>
								<keyframe>
									<when>135.357</when>
									<value>1</value>
								</keyframe>
								<keyframe>
									<when>137.42</when>
									<value>0.0630957</value>
								</keyframe>
								<keyframe>
									<when>144.786</when>
									<value>0.0630957</value>
								</keyframe>
								<keyframe>
									<when>146.554</when>
									<value>0.707946</value>
								</keyframe>
								<keyframe>
									<when>192.857</when>
									<value>1</value>
								</keyframe>
								<keyframe>
									<when>195.804</when>
									<value>0.0354813</value>
								</keyframe>
								<keyframe>
									<when>206.116</when>
									<value>0.0354813</value>
								</keyframe>
								<keyframe>
									<when>209.652</when>
									<value>1.25893</value>
								</keyframe>
								<interpolation>
									<name>FCPCurve</name>
								</interpolation>
								<value>1</value>
							</parameter>
						</effect>
					</filter>
					<filter>
						<effect>
							<name>Audio Pan</name>
							<effectid>audiopan</effectid>
							<effectcategory>audiopan</effectcategory>
							<effecttype>audiopan</effecttype>
							<mediatype>audio</mediatype>
							<parameter>
								<name>Pan</name>
								<parameterid>pan</parameterid>
								<valuemin>-1</valuemin>
								<valuemax>1</valuemax>
								<value>0</value>
							</parameter>
						</effect>
					</filter>
					<sourcetrack>
						<mediatype>audio</mediatype>
						<trackindex>1</trackindex>
					</sourcetrack>
					<link>
						<linkclipref>msub200012-2211055 </linkclipref>
						<mediatype>video</mediatype>
						<trackindex>2</trackindex>
						<clipindex>43</clipindex>
					</link>
					<link>
						<linkclipref>msub200012-2211055 3</linkclipref>
						<mediatype>audio</mediatype>
						<trackindex>3</trackindex>
						<clipindex>32</clipindex>
					</link>
				</clipitem>
				<transitionitem id="920671448 ">
					<rate>
						<ntsc>FALSE</ntsc>
						<timebase>25</timebase>
					</rate>
					<start>28592</start>
					<end>28598</end>
					<alignment>center</alignment>
					<effect>
						<name>Cross Fade (+3dB) Copy</name>
						<effecttype>transition</effecttype>
						<mediatype>audio</mediatype>
					</effect>
				</transitionitem>
				<clipitem id="msub200012-2211066 7">
					<name>msub200012-2211066</name>
					<duration>696</duration>
					<rate>
						<ntsc>FALSE</ntsc>
						<timebase>25</timebase>
					</rate>
					<in>243</in>
					<out>313</out>
					<start>-1</start>
					<end>-1</end>
					<subframeoffset>0</subframeoffset>
					<masterclipid>msub200012-2211066 1</masterclipid>
					<logginginfo>
						<description>msub200012-2211066</description>
						<scene/>
						<shottake/>
						<lognote/>
						<good>FALSE</good>
					</logginginfo>
					<labels>
						<label2/>
					</labels>
					<comments>
						<mastercomment1>BARN OG UNGDOM. BR_FINFREDAG_MSUA_OPRO</mastercomment1>
						<mastercomment2/>
						<mastercomment3/>
						<mastercomment4/>
						<clipcommenta/>
					</comments>
					<file id="msub200012-2211066 2"/>
					<filter>
						<effect>
							<name>Audio Levels</name>
							<effectid>audiolevels</effectid>
							<effectcategory>audiolevels</effectcategory>
							<effecttype>audiolevels</effecttype>
							<mediatype>audio</mediatype>
							<parameter>
								<name>Level</name>
								<parameterid>level</parameterid>
								<valuemin>0</valuemin>
								<valuemax>3.98109</valuemax>
								<value>1</value>
							</parameter>
						</effect>
					</filter>
					<filter>
						<effect>
							<name>Audio Pan</name>
							<effectid>audiopan</effectid>
							<effectcategory>audiopan</effectcategory>
							<effecttype>audiopan</effecttype>
							<mediatype>audio</mediatype>
							<parameter>
								<name>Pan</name>
								<parameterid>pan</parameterid>
								<valuemin>-1</valuemin>
								<valuemax>1</valuemax>
								<value>0</value>
							</parameter>
						</effect>
					</filter>
					<sourcetrack>
						<mediatype>audio</mediatype>
						<trackindex>1</trackindex>
					</sourcetrack>
				</clipitem>
				<transitionitem id="920672264 ">
					<rate>
						<ntsc>FALSE</ntsc>
						<timebase>25</timebase>
					</rate>
					<start>28656</start>
					<end>28662</end>
					<alignment>center</alignment>
					<effect>
						<name>Cross Fade (+3dB) Copy</name>
						<effecttype>transition</effecttype>
						<mediatype>audio</mediatype>
					</effect>
				</transitionitem>
				<clipitem id="msub200012-2211066 8">
					<name>msub200012-2211066</name>
					<duration>696</duration>
					<rate>
						<ntsc>FALSE</ntsc>
						<timebase>25</timebase>
					</rate>
					<in>479</in>
					<out>492</out>
					<start>-1</start>
					<end>-1</end>
					<subframeoffset>0</subframeoffset>
					<masterclipid>msub200012-2211066 1</masterclipid>
					<logginginfo>
						<description>msub200012-2211066</description>
						<scene/>
						<shottake/>
						<lognote/>
						<good>FALSE</good>
					</logginginfo>
					<labels>
						<label2/>
					</labels>
					<comments>
						<mastercomment1>BARN OG UNGDOM. BR_FINFREDAG_MSUA_OPRO</mastercomment1>
						<mastercomment2/>
						<mastercomment3/>
						<mastercomment4/>
						<clipcommenta/>
					</comments>
					<file id="msub200012-2211066 2"/>
					<filter>
						<effect>
							<name>Audio Levels</name>
							<effectid>audiolevels</effectid>
							<effectcategory>audiolevels</effectcategory>
							<effecttype>audiolevels</effecttype>
							<mediatype>audio</mediatype>
							<parameter>
								<name>Level</name>
								<parameterid>level</parameterid>
								<valuemin>0</valuemin>
								<valuemax>3.98109</valuemax>
								<value>1.41254</value>
							</parameter>
						</effect>
					</filter>
					<filter>
						<effect>
							<name>Audio Pan</name>
							<effectid>audiopan</effectid>
							<effectcategory>audiopan</effectcategory>
							<effecttype>audiopan</effecttype>
							<mediatype>audio</mediatype>
							<parameter>
								<name>Pan</name>
								<parameterid>pan</parameterid>
								<valuemin>-1</valuemin>
								<valuemax>1</valuemax>
								<value>0</value>
							</parameter>
						</effect>
					</filter>
					<sourcetrack>
						<mediatype>audio</mediatype>
						<trackindex>1</trackindex>
					</sourcetrack>
				</clipitem>
				<transitionitem id="920673080 ">
					<rate>
						<ntsc>FALSE</ntsc>
						<timebase>25</timebase>
					</rate>
					<start>28663</start>
					<end>28669</end>
					<alignment>center</alignment>
					<effect>
						<name>Cross Fade (+3dB) Copy</name>
						<effecttype>transition</effecttype>
						<mediatype>audio</mediatype>
					</effect>
				</transitionitem>
				<clipitem id="msub200012-2211066 9">
					<name>msub200012-2211066</name>
					<duration>696</duration>
					<rate>
						<ntsc>FALSE</ntsc>
						<timebase>25</timebase>
					</rate>
					<in>314</in>
					<out>416</out>
					<start>-1</start>
					<end>-1</end>
					<subframeoffset>0</subframeoffset>
					<masterclipid>msub200012-2211066 1</masterclipid>
					<logginginfo>
						<description>msub200012-2211066</description>
						<scene/>
						<shottake/>
						<lognote/>
						<good>FALSE</good>
					</logginginfo>
					<labels>
						<label2/>
					</labels>
					<comments>
						<mastercomment1>BARN OG UNGDOM. BR_FINFREDAG_MSUA_OPRO</mastercomment1>
						<mastercomment2/>
						<mastercomment3/>
						<mastercomment4/>
						<clipcommenta/>
					</comments>
					<file id="msub200012-2211066 2"/>
					<filter>
						<effect>
							<name>Audio Levels</name>
							<effectid>audiolevels</effectid>
							<effectcategory>audiolevels</effectcategory>
							<effecttype>audiolevels</effecttype>
							<mediatype>audio</mediatype>
							<parameter>
								<name>Level</name>
								<parameterid>level</parameterid>
								<valuemin>0</valuemin>
								<valuemax>3.98109</valuemax>
								<value>1</value>
							</parameter>
						</effect>
					</filter>
					<filter>
						<effect>
							<name>Audio Pan</name>
							<effectid>audiopan</effectid>
							<effectcategory>audiopan</effectcategory>
							<effecttype>audiopan</effecttype>
							<mediatype>audio</mediatype>
							<parameter>
								<name>Pan</name>
								<parameterid>pan</parameterid>
								<valuemin>-1</valuemin>
								<valuemax>1</valuemax>
								<value>0</value>
							</parameter>
						</effect>
					</filter>
					<sourcetrack>
						<mediatype>audio</mediatype>
						<trackindex>1</trackindex>
					</sourcetrack>
				</clipitem>
				<transitionitem id="920673896 ">
					<rate>
						<ntsc>FALSE</ntsc>
						<timebase>25</timebase>
					</rate>
					<start>28759</start>
					<end>28765</end>
					<alignment>end-black</alignment>
					<effect>
						<name>Cross Fade (+3dB)</name>
						<effecttype>transition</effecttype>
						<mediatype>audio</mediatype>
					</effect>
				</transitionitem>
				<transitionitem id="920674372 ">
					<rate>
						<ntsc>FALSE</ntsc>
						<timebase>25</timebase>
					</rate>
					<start>29810</start>
					<end>29820</end>
					<alignment>start-black</alignment>
					<effect>
						<name>Cross Fade ( 0dB)</name>
						<effecttype>transition</effecttype>
						<mediatype>audio</mediatype>
					</effect>
				</transitionitem>
				<clipitem id="FUHA06001785 3">
					<name>FUHA06001785</name>
					<duration>113650</duration>
					<rate>
						<ntsc>FALSE</ntsc>
						<timebase>25</timebase>
					</rate>
					<in>106352</in>
					<out>106819</out>
					<start>-1</start>
					<end>30277</end>
					<subframeoffset>0</subframeoffset>
					<masterclipid>FUHA06001785 1</masterclipid>
					<logginginfo>
						<description>Melodi Grand Prix 1985 - Internasjonal finale</description>
						<scene/>
						<shottake/>
						<lognote>ALLE rettigheter mÃ¥ sjekkes FÃ˜R ethvert bruk - uansett lengde!!!!!</lognote>
						<good>FALSE</good>
					</logginginfo>
					<labels>
						<label2/>
					</labels>
					<comments>
						<mastercomment1>ARKIVSTOFF. BR_FINFREDAG_MSUA_OPRO</mastercomment1>
						<mastercomment2>SVT1 / EBU. </mastercomment2>
						<mastercomment3>Sendt: 1985-05-04. </mastercomment3>
						<mastercomment4>Den internasjonale finalen i GÃ–teborg. Konferansier: Lill Lindfors. Norsk kommentar VeslemÃ¸y Kjendsli. Ã…pningsvignett. Presentasjon GÃ–teborg. Ekstr. Scandinavium. Lill LINDFORS synger "My house is built of music". Orkesterleder Curt-Eric HOLMQUIST. Den fÃ¸rste MGP-vinneren, Lys ASSIA fra Sveits i salen. 1) Irland. "Wait until the weekend comes". Sang: Maria CHRISTIAN. Komponist: Brendan GRAHAM. Dirigent: Noel KELEHAN. 2) Finland. "ElÃ¤kÃ¶Ã¶n elÃ¤mÃ¤". S: Sonja LUMME. K/T: Petri LAAKSONEN / Veli-Pekka LEHTO. D: Ossi RUNNE. 3) Kypros. "To katalava arga". S/K/T: Lia VISSI. D: Charis ANDDREADIS. 4) Danmark. "Sku' du spÃ¶r' fra noen". S: Hot Eyes. K/T: SÃ¸ren BUNDGAARD / Keld HEICK. D: Wolfgang KÃ„FER. 5) Spania. "La fiesta termino". S: Paloma San BASILIO. K/T/D: Juan-Carlos CALDERON. 6) Frankrike. "Femme dans ses reves aussi". S: Roger BENS. K/T: Didier PASCALIS. D: Michel BERNHOLE. 7) Tyrkia. "Didai didai dai". S: Gruppen MFO:, ogsÃ¥ K/T: Fuat GÃœNER, Ã¶zkan UGUR, Mazhar ALANSON. D: Garo MAFYAN. 8) Belgia. "Laat me nu gaan". S: Linda LEPOMME. K/T: Pieter VERLINDEN, Bert VIVIER. D: Curt-Eric HOLMQUIST. 9) Portugal. "Penso em ti, eu sei". S: ADELAIDE. K/T: Toze BRITO / Adelaide FERREIRA / Luis FERNANDO. D: Jose CALVARIO. 10) Vest-Tyskland. "FÃ¼r alle". S: WIND. K/T: Hanne HALLER. D: Rainer PIETSCH. 11) Israel. "Ole, ole". S: Yizhar COHEN. K/D: Kobi OSHRAT. 12) Italia. "Magic, oh magic". S: Al BANO, Romina POWER. K: Dario FARINA, Michael HOFMAN. D: Fiorenzo ZANOTTI. 13) Norge. "La det swinge". S: Bobbysocks ( Elizabeth ANDREASSON / Hanne KROGH ). K/T: Rolf LÃ˜VLAND. D: Terje FJÃ†RN. 14) Storbritannia. "Love is". S: Vikki WATSON. K/T: James KALETH / Vikki WATSON. D: John COLEMAN. 15) Sveits. "Piano, piano". S: Mariella FARRE, Pino CASPARINI. K/T: Anita KERR / Trudi MÃœLLER-BOSSHARD. D: Anita KERR. 16) Sverige. "Bra vibrationer". S: Kikki DANIELSSON. K/T: Lasse HOLM / Ingela FORSMAN. D: Curt-Eric HOLMQUIST. 17) Ã˜sterrike. "Kinder dieser Welt". S: Gary LUX. K/T: Mick JACKSON, Geoff BASTOW / Michael KUNZE. D: Richard OESTERREICHER. 18) Luxembourg. "Children, Kinder, enfants". S: MARGO / F. OLIVIER / C. ROBERTS / M. ROBERTS / I. SHEER / D. SOLOMON. K/T: Ralph SIEGEL / Jean- Michelk BERIAT, Bernd MEINUNGER. D: Norbert DAUM. 19) Hellas. "Miazoume". S: Takis BINIARIS. K/T: Takis BINIARIS / Maro BIZANI. D: Charis ANDREADIS.. Gruppen Guitars Unlimited ( Peter ALMQUIST, Ulf WAKENIUS ) spiller. Lill LINDFORS "mister" underdelen pÃ¥ kjolen. Kveldens overdommer Frank NEFF. Stemmegivning. Ellevill stemning bak scenen, Norge og BOBBYSOCKS vinner! FjorÃ¥rets vinner, gruppen Herreys kÃ¥rer Ã¥rets vinner. Rolf LÃ˜VLAND, tekst og melodi, fram pÃ¥ scenen. Deretter Hanne KROGH og Elisabeth ANDREASSON fremfÃ¸rer vinnermelodien "La det swinge". (Publikumsglimt Lisbeth Larness RoÃ¥s og Hans Kristian RoÃ¥s)..</mastercomment4>
						<clipcommenta/>
						<clipcommentb>1:F-miks 2:F-miks.4x3 PAL.</clipcommentb>
					</comments>
					<file id="FUHA06001785 2"/>
					<filter>
						<effect>
							<name>Audio Levels</name>
							<effectid>audiolevels</effectid>
							<effectcategory>audiolevels</effectcategory>
							<effecttype>audiolevels</effecttype>
							<mediatype>audio</mediatype>
							<parameter>
								<name>Level</name>
								<parameterid>level</parameterid>
								<valuemin>0</valuemin>
								<valuemax>3.98109</valuemax>
								<keyframe>
									<when>106636</when>
									<value>0.790759</value>
								</keyframe>
								<keyframe>
									<when>106707</when>
									<value>0.142047</value>
								</keyframe>
								<keyframe>
									<when>106772</when>
									<value>0.0562341</value>
								</keyframe>
								<keyframe>
									<when>106787</when>
									<value>0.0177828</value>
								</keyframe>
								<keyframe>
									<when>106812</when>
									<value>0</value>
								</keyframe>
								<interpolation>
									<name>FCPCurve</name>
								</interpolation>
								<value>0.790759</value>
							</parameter>
						</effect>
					</filter>
					<filter>
						<effect>
							<name>Audio Pan</name>
							<effectid>audiopan</effectid>
							<effectcategory>audiopan</effectcategory>
							<effecttype>audiopan</effecttype>
							<mediatype>audio</mediatype>
							<parameter>
								<name>Pan</name>
								<parameterid>pan</parameterid>
								<valuemin>-1</valuemin>
								<valuemax>1</valuemax>
								<value>-1</value>
							</parameter>
						</effect>
					</filter>
					<sourcetrack>
						<mediatype>audio</mediatype>
						<trackindex>1</trackindex>
					</sourcetrack>
				</clipitem>
				<transitionitem id="920675460 ">
					<rate>
						<ntsc>FALSE</ntsc>
						<timebase>25</timebase>
					</rate>
					<start>30308</start>
					<end>30310</end>
					<alignment>start-black</alignment>
					<effect>
						<name>Cross Fade (+3dB) Copy</name>
						<effecttype>transition</effecttype>
						<mediatype>audio</mediatype>
					</effect>
				</transitionitem>
				<clipitem id="msub200012-3011-k1d2-008 22">
					<name>msub200012-3011-k1d2-008</name>
					<duration>9650</duration>
					<rate>
						<ntsc>FALSE</ntsc>
						<timebase>25</timebase>
					</rate>
					<in>6034</in>
					<out>6456</out>
					<start>-1</start>
					<end>-1</end>
					<subframeoffset>0</subframeoffset>
					<masterclipid>msub200012-3011-k1d2-008 1</masterclipid>
					<syncoffset>0</syncoffset>
					<logginginfo>
						<description>msub200012-3011-k1d2-008</description>
						<scene/>
						<shottake/>
						<lognote/>
						<good>FALSE</good>
					</logginginfo>
					<labels>
						<label>Good Take</label>
						<label2/>
					</labels>
					<comments>
						<mastercomment1>RÃ…STOFF. BR_FINFREDAG_MSUA_OPRO</mastercomment1>
						<mastercomment2/>
						<mastercomment3/>
						<mastercomment4/>
						<clipcommenta/>
					</comments>
					<file id="msub200012-3011-k1d2-008 2"/>
					<filter>
						<enabled>TRUE</enabled>
						<start>-1</start>
						<end>-1</end>
						<effect>
							<name>3 Band Equalizer - Kristine</name>
							<effecttype>filter</effecttype>
							<mediatype>audio</mediatype>
							<parameter>
								<parameterid>Low Frequency</parameterid>
								<name>Low Frequency</name>
								<valuemin>80</valuemin>
								<valuemax>2000</valuemax>
								<value>162</value>
							</parameter>
							<parameter>
								<parameterid>Low Gain(dB)</parameterid>
								<name>Low Gain(dB)</name>
								<valuemin>-20</valuemin>
								<valuemax>20</valuemax>
								<value>5</value>
							</parameter>
							<parameter>
								<parameterid>Mid Frequency</parameterid>
								<name>Mid Frequency</name>
								<valuemin>400</valuemin>
								<valuemax>8000</valuemax>
								<value>3602</value>
							</parameter>
							<parameter>
								<parameterid>Mid Gain(dB)</parameterid>
								<name>Mid Gain(dB)</name>
								<valuemin>-20</valuemin>
								<valuemax>20</valuemax>
								<value>-3</value>
							</parameter>
							<parameter>
								<parameterid>High Frequency</parameterid>
								<name>High Frequency</name>
								<valuemin>5000</valuemin>
								<valuemax>20000</valuemax>
								<value>10354</value>
							</parameter>
							<parameter>
								<parameterid>High Gain(dB)</parameterid>
								<name>High Gain(dB)</name>
								<valuemin>-20</valuemin>
								<valuemax>20</valuemax>
								<value>0</value>
							</parameter>
						</effect>
					</filter>
					<filter>
						<enabled>TRUE</enabled>
						<start>-1</start>
						<end>-1</end>
						<effect>
							<name>Compressor/Limiter</name>
							<effecttype>filter</effecttype>
							<mediatype>audio</mediatype>
							<parameter>
								<parameterid>Threshold(dB)</parameterid>
								<name>Threshold(dB)</name>
								<valuemin>-90</valuemin>
								<valuemax>0</valuemax>
								<value>-20</value>
							</parameter>
							<parameter>
								<parameterid>Ratio</parameterid>
								<name>Ratio</name>
								<valuemin>1</valuemin>
								<valuemax>100</valuemax>
								<value>2</value>
							</parameter>
							<parameter>
								<parameterid>Attack Time</parameterid>
								<name>Attack Time</name>
								<valuemin>1</valuemin>
								<valuemax>100</valuemax>
								<value>5</value>
							</parameter>
							<parameter>
								<parameterid>Release Time</parameterid>
								<name>Release Time</name>
								<valuemin>1</valuemin>
								<valuemax>4000</valuemax>
								<value>209</value>
							</parameter>
							<parameter>
								<parameterid>Preserve Volume</parameterid>
								<name>Preserve Volume</name>
								<value>TRUE</value>
							</parameter>
						</effect>
					</filter>
					<filter>
						<effect>
							<name>Audio Levels</name>
							<effectid>audiolevels</effectid>
							<effectcategory>audiolevels</effectcategory>
							<effecttype>audiolevels</effecttype>
							<mediatype>audio</mediatype>
							<parameter>
								<name>Level</name>
								<parameterid>level</parameterid>
								<valuemin>0</valuemin>
								<valuemax>3.98109</valuemax>
								<keyframe>
									<when>6243</when>
									<value>1.12316</value>
								</keyframe>
								<keyframe>
									<when>6247</when>
									<value>1.26491</value>
								</keyframe>
								<keyframe>
									<when>6445.69</when>
									<value>1.25893</value>
								</keyframe>
								<keyframe>
									<when>6452.3</when>
									<value>0</value>
								</keyframe>
								<interpolation>
									<name>FCPCurve</name>
								</interpolation>
								<value>1.26491</value>
							</parameter>
						</effect>
					</filter>
					<filter>
						<effect>
							<name>Audio Pan</name>
							<effectid>audiopan</effectid>
							<effectcategory>audiopan</effectcategory>
							<effecttype>audiopan</effecttype>
							<mediatype>audio</mediatype>
							<parameter>
								<name>Pan</name>
								<parameterid>pan</parameterid>
								<valuemin>-1</valuemin>
								<valuemax>1</valuemax>
								<value>0</value>
							</parameter>
						</effect>
					</filter>
					<sourcetrack>
						<mediatype>audio</mediatype>
						<trackindex>1</trackindex>
					</sourcetrack>
					<link>
						<linkclipref>msub200012-3011-k1d2-008 22</linkclipref>
						<mediatype>audio</mediatype>
						<trackindex>3</trackindex>
						<clipindex>43</clipindex>
					</link>
					<link>
						<linkclipref>msub200012-3011-k1d2-008 23</linkclipref>
						<mediatype>audio</mediatype>
						<trackindex>4</trackindex>
						<clipindex>77</clipindex>
					</link>
				</clipitem>
				<transitionitem id="1049203280 ">
					<rate>
						<ntsc>FALSE</ntsc>
						<timebase>25</timebase>
					</rate>
					<start>30728</start>
					<end>30730</end>
					<alignment>center</alignment>
					<effect>
						<name>Cross Fade (+3dB) Copy</name>
						<effecttype>transition</effecttype>
						<mediatype>audio</mediatype>
					</effect>
				</transitionitem>
				<clipitem id="msub200012-3011-k1d2-008 24">
					<name>msub200012-3011-k1d2-008</name>
					<duration>9650</duration>
					<rate>
						<ntsc>FALSE</ntsc>
						<timebase>25</timebase>
					</rate>
					<in>6558</in>
					<out>6833</out>
					<start>-1</start>
					<end>-1</end>
					<subframeoffset>0</subframeoffset>
					<masterclipid>msub200012-3011-k1d2-008 1</masterclipid>
					<syncoffset>0</syncoffset>
					<logginginfo>
						<description>msub200012-3011-k1d2-008</description>
						<scene/>
						<shottake/>
						<lognote/>
						<good>FALSE</good>
					</logginginfo>
					<labels>
						<label>Good Take</label>
						<label2/>
					</labels>
					<comments>
						<mastercomment1>RÃ…STOFF. BR_FINFREDAG_MSUA_OPRO</mastercomment1>
						<mastercomment2/>
						<mastercomment3/>
						<mastercomment4/>
						<clipcommenta/>
					</comments>
					<file id="msub200012-3011-k1d2-008 2"/>
					<filter>
						<enabled>TRUE</enabled>
						<start>-1</start>
						<end>-1</end>
						<effect>
							<name>3 Band Equalizer - Kristine</name>
							<effecttype>filter</effecttype>
							<mediatype>audio</mediatype>
							<parameter>
								<parameterid>Low Frequency</parameterid>
								<name>Low Frequency</name>
								<valuemin>80</valuemin>
								<valuemax>2000</valuemax>
								<value>162</value>
							</parameter>
							<parameter>
								<parameterid>Low Gain(dB)</parameterid>
								<name>Low Gain(dB)</name>
								<valuemin>-20</valuemin>
								<valuemax>20</valuemax>
								<value>5</value>
							</parameter>
							<parameter>
								<parameterid>Mid Frequency</parameterid>
								<name>Mid Frequency</name>
								<valuemin>400</valuemin>
								<valuemax>8000</valuemax>
								<value>3602</value>
							</parameter>
							<parameter>
								<parameterid>Mid Gain(dB)</parameterid>
								<name>Mid Gain(dB)</name>
								<valuemin>-20</valuemin>
								<valuemax>20</valuemax>
								<value>-3</value>
							</parameter>
							<parameter>
								<parameterid>High Frequency</parameterid>
								<name>High Frequency</name>
								<valuemin>5000</valuemin>
								<valuemax>20000</valuemax>
								<value>10354</value>
							</parameter>
							<parameter>
								<parameterid>High Gain(dB)</parameterid>
								<name>High Gain(dB)</name>
								<valuemin>-20</valuemin>
								<valuemax>20</valuemax>
								<value>0</value>
							</parameter>
						</effect>
					</filter>
					<filter>
						<enabled>TRUE</enabled>
						<start>-1</start>
						<end>-1</end>
						<effect>
							<name>Compressor/Limiter</name>
							<effecttype>filter</effecttype>
							<mediatype>audio</mediatype>
							<parameter>
								<parameterid>Threshold(dB)</parameterid>
								<name>Threshold(dB)</name>
								<valuemin>-90</valuemin>
								<valuemax>0</valuemax>
								<value>-20</value>
							</parameter>
							<parameter>
								<parameterid>Ratio</parameterid>
								<name>Ratio</name>
								<valuemin>1</valuemin>
								<valuemax>100</valuemax>
								<value>2</value>
							</parameter>
							<parameter>
								<parameterid>Attack Time</parameterid>
								<name>Attack Time</name>
								<valuemin>1</valuemin>
								<valuemax>100</valuemax>
								<value>5</value>
							</parameter>
							<parameter>
								<parameterid>Release Time</parameterid>
								<name>Release Time</name>
								<valuemin>1</valuemin>
								<valuemax>4000</valuemax>
								<value>209</value>
							</parameter>
							<parameter>
								<parameterid>Preserve Volume</parameterid>
								<name>Preserve Volume</name>
								<value>TRUE</value>
							</parameter>
						</effect>
					</filter>
					<filter>
						<effect>
							<name>Audio Levels</name>
							<effectid>audiolevels</effectid>
							<effectcategory>audiolevels</effectcategory>
							<effecttype>audiolevels</effecttype>
							<mediatype>audio</mediatype>
							<parameter>
								<name>Level</name>
								<parameterid>level</parameterid>
								<valuemin>0</valuemin>
								<valuemax>3.98109</valuemax>
								<keyframe>
									<when>6598.14</when>
									<value>1.41254</value>
								</keyframe>
								<keyframe>
									<when>6599.96</when>
									<value>1.25893</value>
								</keyframe>
								<keyframe>
									<when>6647.32</when>
									<value>1.25893</value>
								</keyframe>
								<keyframe>
									<when>6648.61</when>
									<value>1</value>
								</keyframe>
								<keyframe>
									<when>6669.93</when>
									<value>1</value>
								</keyframe>
								<keyframe>
									<when>6671.11</when>
									<value>1.25893</value>
								</keyframe>
								<keyframe>
									<when>6771.29</when>
									<value>1.25893</value>
								</keyframe>
								<keyframe>
									<when>6773.64</when>
									<value>1.12202</value>
								</keyframe>
								<interpolation>
									<name>FCPCurve</name>
								</interpolation>
								<value>1.25893</value>
							</parameter>
						</effect>
					</filter>
					<filter>
						<effect>
							<name>Audio Pan</name>
							<effectid>audiopan</effectid>
							<effectcategory>audiopan</effectcategory>
							<effecttype>audiopan</effecttype>
							<mediatype>audio</mediatype>
							<parameter>
								<name>Pan</name>
								<parameterid>pan</parameterid>
								<valuemin>-1</valuemin>
								<valuemax>1</valuemax>
								<value>0</value>
							</parameter>
						</effect>
					</filter>
					<sourcetrack>
						<mediatype>audio</mediatype>
						<trackindex>1</trackindex>
					</sourcetrack>
					<link>
						<linkclipref>msub200012-3011-k1d2-008 24</linkclipref>
						<mediatype>audio</mediatype>
						<trackindex>3</trackindex>
						<clipindex>45</clipindex>
					</link>
					<link>
						<linkclipref>msub200012-3011-k1d2-008 25</linkclipref>
						<mediatype>audio</mediatype>
						<trackindex>4</trackindex>
						<clipindex>78</clipindex>
					</link>
				</clipitem>
				<transitionitem id="1049207292 ">
					<rate>
						<ntsc>FALSE</ntsc>
						<timebase>25</timebase>
					</rate>
					<start>30997</start>
					<end>31003</end>
					<alignment>center</alignment>
					<effect>
						<name>Cross Fade (+3dB) Copy</name>
						<effecttype>transition</effecttype>
						<mediatype>audio</mediatype>
					</effect>
				</transitionitem>
				<clipitem id="AUXMP_RSM010437_HEAVY URBAN STING.mp3 ">
					<name>AUXMP_RSM010437_HEAVY URBAN STING.mp3</name>
					<duration>396</duration>
					<rate>
						<ntsc>FALSE</ntsc>
						<timebase>25</timebase>
					</rate>
					<in>151</in>
					<out>315</out>
					<start>31955</start>
					<end>-1</end>
					<subframeoffset>0</subframeoffset>
					<enabled>TRUE</enabled>
					<masterclipid>AUXMP_RSM010437_HEAVY URBAN STING.mp3 1</masterclipid>
					<logginginfo>
						<scene/>
						<shottake/>
						<lognote/>
						<good>FALSE</good>
					</logginginfo>
					<labels>
						<label2/>
					</labels>
					<comments>
						<mastercomment1/>
						<mastercomment2/>
						<mastercomment3/>
						<mastercomment4/>
					</comments>
					<file id="AUXMP_RSM010437_HEAVY URBAN STING">
						<name>AUXMP_RSM010437_HEAVY URBAN STING.mp3</name>
						<pathurl>file://localhost/SuperSAN1/Prosjekter/MSUB20000012%20FIN%20FREDAG/MUSIKK/Kristine%20VS%20Roekla/auxmp14767_114.zip%20Folder/AUXMP_RSM010437_HEAVY%20URBAN%20STING.mp3</pathurl>
						<rate>
							<timebase>25</timebase>
						</rate>
						<duration>396</duration>
						<media>
							<audio>
								<rate>
									<timebase>44100</timebase>
								</rate>
								<trackcount>2</trackcount>
								<samplecharacteristics>
									<depth>32</depth>
								</samplecharacteristics>
							</audio>
						</media>
					</file>
					<filter>
						<effect>
							<name>Audio Levels</name>
							<effectid>audiolevels</effectid>
							<effectcategory>audiolevels</effectcategory>
							<effecttype>audiolevels</effecttype>
							<mediatype>audio</mediatype>
							<parameter>
								<name>Level</name>
								<parameterid>level</parameterid>
								<valuemin>0</valuemin>
								<valuemax>3.98109</valuemax>
								<value>0.316228</value>
							</parameter>
						</effect>
					</filter>
					<filter>
						<effect>
							<name>Audio Pan</name>
							<effectid>audiopan</effectid>
							<effectcategory>audiopan</effectcategory>
							<effecttype>audiopan</effecttype>
							<mediatype>audio</mediatype>
							<parameter>
								<name>Pan</name>
								<parameterid>pan</parameterid>
								<valuemin>-1</valuemin>
								<valuemax>1</valuemax>
								<value>-1</value>
							</parameter>
						</effect>
					</filter>
					<sourcetrack>
						<mediatype>audio</mediatype>
						<trackindex>1</trackindex>
					</sourcetrack>
					<link>
						<linkclipref>AUXMP_RSM010437_HEAVY URBAN STING.mp3 </linkclipref>
						<mediatype>audio</mediatype>
						<trackindex>3</trackindex>
						<clipindex>47</clipindex>
						<groupindex>1</groupindex>
					</link>
					<link>
						<linkclipref>AUXMP_RSM010437_HEAVY URBAN STING.mp3 2</linkclipref>
						<mediatype>audio</mediatype>
						<trackindex>4</trackindex>
						<clipindex>80</clipindex>
						<groupindex>1</groupindex>
					</link>
				</clipitem>
				<transitionitem id="1049208516 ">
					<rate>
						<ntsc>FALSE</ntsc>
						<timebase>25</timebase>
					</rate>
					<start>32094</start>
					<end>32119</end>
					<alignment>end-black</alignment>
					<effect>
						<name>Cross Fade (+3dB) Copy</name>
						<effecttype>transition</effecttype>
						<mediatype>audio</mediatype>
					</effect>
				</transitionitem>
				<clipitem id="msub200012-3011-k2d3-005 34">
					<name>msub200012-3011-k2d3-005</name>
					<duration>8453</duration>
					<rate>
						<ntsc>FALSE</ntsc>
						<timebase>25</timebase>
					</rate>
					<in>1365</in>
					<out>1382</out>
					<start>32756</start>
					<end>32773</end>
					<subframeoffset>0</subframeoffset>
					<enabled>TRUE</enabled>
					<masterclipid>msub200012-3011-k2d3-005 1</masterclipid>
					<logginginfo>
						<description>msub200012-3011-k2d3-005</description>
						<scene/>
						<shottake/>
						<lognote/>
						<good>FALSE</good>
					</logginginfo>
					<labels>
						<label>Good Take</label>
						<label2/>
					</labels>
					<comments>
						<mastercomment1>RÃ…STOFF. BR_FINFREDAG_MSUA_OPRO</mastercomment1>
						<mastercomment2/>
						<mastercomment3/>
						<mastercomment4/>
						<clipcommenta/>
					</comments>
					<file id="msub200012-3011-k2d3-005 2"/>
					<filter>
						<start>-1</start>
						<end>-1</end>
						<effect>
							<name>3 Band Equalizer - Kristine</name>
							<effecttype>filter</effecttype>
							<mediatype>audio</mediatype>
							<parameter>
								<parameterid>Low Frequency</parameterid>
								<name>Low Frequency</name>
								<valuemin>80</valuemin>
								<valuemax>2000</valuemax>
								<value>80</value>
							</parameter>
							<parameter>
								<parameterid>Low Gain(dB)</parameterid>
								<name>Low Gain(dB)</name>
								<valuemin>-20</valuemin>
								<valuemax>20</valuemax>
								<value>-4</value>
							</parameter>
							<parameter>
								<parameterid>Mid Frequency</parameterid>
								<name>Mid Frequency</name>
								<valuemin>400</valuemin>
								<valuemax>8000</valuemax>
								<value>3602</value>
							</parameter>
							<parameter>
								<parameterid>Mid Gain(dB)</parameterid>
								<name>Mid Gain(dB)</name>
								<valuemin>-20</valuemin>
								<valuemax>20</valuemax>
								<value>3</value>
							</parameter>
							<parameter>
								<parameterid>High Frequency</parameterid>
								<name>High Frequency</name>
								<valuemin>5000</valuemin>
								<valuemax>20000</valuemax>
								<value>10354</value>
							</parameter>
							<parameter>
								<parameterid>High Gain(dB)</parameterid>
								<name>High Gain(dB)</name>
								<valuemin>-20</valuemin>
								<valuemax>20</valuemax>
								<value>0</value>
							</parameter>
						</effect>
					</filter>
					<filter>
						<start>-1</start>
						<end>-1</end>
						<effect>
							<name>Compressor/Limiter</name>
							<effecttype>filter</effecttype>
							<mediatype>audio</mediatype>
							<parameter>
								<parameterid>Threshold(dB)</parameterid>
								<name>Threshold(dB)</name>
								<valuemin>-90</valuemin>
								<valuemax>0</valuemax>
								<value>-20</value>
							</parameter>
							<parameter>
								<parameterid>Ratio</parameterid>
								<name>Ratio</name>
								<valuemin>1</valuemin>
								<valuemax>100</valuemax>
								<value>2</value>
							</parameter>
							<parameter>
								<parameterid>Attack Time</parameterid>
								<name>Attack Time</name>
								<valuemin>1</valuemin>
								<valuemax>100</valuemax>
								<value>5</value>
							</parameter>
							<parameter>
								<parameterid>Release Time</parameterid>
								<name>Release Time</name>
								<valuemin>1</valuemin>
								<valuemax>4000</valuemax>
								<value>209</value>
							</parameter>
							<parameter>
								<parameterid>Preserve Volume</parameterid>
								<name>Preserve Volume</name>
								<value>TRUE</value>
							</parameter>
						</effect>
					</filter>
					<filter>
						<effect>
							<name>Audio Levels</name>
							<effectid>audiolevels</effectid>
							<effectcategory>audiolevels</effectcategory>
							<effecttype>audiolevels</effecttype>
							<mediatype>audio</mediatype>
							<parameter>
								<name>Level</name>
								<parameterid>level</parameterid>
								<valuemin>0</valuemin>
								<valuemax>3.98109</valuemax>
								<value>1</value>
							</parameter>
						</effect>
					</filter>
					<filter>
						<effect>
							<name>Audio Pan</name>
							<effectid>audiopan</effectid>
							<effectcategory>audiopan</effectcategory>
							<effecttype>audiopan</effecttype>
							<mediatype>audio</mediatype>
							<parameter>
								<name>Pan</name>
								<parameterid>pan</parameterid>
								<valuemin>-1</valuemin>
								<valuemax>1</valuemax>
								<value>0</value>
							</parameter>
						</effect>
					</filter>
					<sourcetrack>
						<mediatype>audio</mediatype>
						<trackindex>3</trackindex>
					</sourcetrack>
				</clipitem>
				<clipitem id="msub200012-3011-k2d3-005 30">
					<name>msub200012-3011-k2d3-005</name>
					<duration>8453</duration>
					<rate>
						<ntsc>FALSE</ntsc>
						<timebase>25</timebase>
					</rate>
					<in>3117</in>
					<out>3142</out>
					<start>32900</start>
					<end>32925</end>
					<subframeoffset>0</subframeoffset>
					<masterclipid>msub200012-3011-k2d3-005 1</masterclipid>
					<logginginfo>
						<description>msub200012-3011-k2d3-005</description>
						<scene/>
						<shottake/>
						<lognote/>
						<good>FALSE</good>
					</logginginfo>
					<labels>
						<label>Good Take</label>
						<label2/>
					</labels>
					<comments>
						<mastercomment1>RÃ…STOFF. BR_FINFREDAG_MSUA_OPRO</mastercomment1>
						<mastercomment2/>
						<mastercomment3/>
						<mastercomment4/>
						<clipcommenta/>
					</comments>
					<file id="msub200012-3011-k2d3-005 2"/>
					<filter>
						<effect>
							<name>Audio Levels</name>
							<effectid>audiolevels</effectid>
							<effectcategory>audiolevels</effectcategory>
							<effecttype>audiolevels</effecttype>
							<mediatype>audio</mediatype>
							<parameter>
								<name>Level</name>
								<parameterid>level</parameterid>
								<valuemin>0</valuemin>
								<valuemax>3.98109</valuemax>
								<value>1</value>
							</parameter>
						</effect>
					</filter>
					<filter>
						<effect>
							<name>Audio Pan</name>
							<effectid>audiopan</effectid>
							<effectcategory>audiopan</effectcategory>
							<effecttype>audiopan</effecttype>
							<mediatype>audio</mediatype>
							<parameter>
								<name>Pan</name>
								<parameterid>pan</parameterid>
								<valuemin>-1</valuemin>
								<valuemax>1</valuemax>
								<value>0</value>
							</parameter>
						</effect>
					</filter>
					<sourcetrack>
						<mediatype>audio</mediatype>
						<trackindex>3</trackindex>
					</sourcetrack>
					<link>
						<linkclipref>msub200012-3011-k2d3-005 29</linkclipref>
						<mediatype>video</mediatype>
						<trackindex>3</trackindex>
						<clipindex>24</clipindex>
					</link>
					<link>
						<linkclipref>msub200012-3011-k2d3-005 30</linkclipref>
						<mediatype>audio</mediatype>
						<trackindex>3</trackindex>
						<clipindex>50</clipindex>
					</link>
				</clipitem>
				<transitionitem id="1049212120 ">
					<rate>
						<ntsc>FALSE</ntsc>
						<timebase>25</timebase>
					</rate>
					<start>33432</start>
					<end>33438</end>
					<alignment>start-black</alignment>
					<effect>
						<name>Cross Fade (+3dB) Copy</name>
						<effecttype>transition</effecttype>
						<mediatype>audio</mediatype>
					</effect>
				</transitionitem>
				<clipitem id="msub200012-3011-k1d3-002 61">
					<name>msub200012-3011-k1d3-002</name>
					<duration>21848</duration>
					<rate>
						<ntsc>FALSE</ntsc>
						<timebase>25</timebase>
					</rate>
					<in>4090</in>
					<out>4154</out>
					<start>-1</start>
					<end>-1</end>
					<subframeoffset>0</subframeoffset>
					<enabled>TRUE</enabled>
					<masterclipid>msub200012-3011-k1d3-002 1</masterclipid>
					<syncoffset>0</syncoffset>
					<logginginfo>
						<description>msub200012-3011-k1d3-002</description>
						<scene/>
						<shottake/>
						<lognote/>
						<good>FALSE</good>
					</logginginfo>
					<labels>
						<label>Good Take</label>
						<label2/>
					</labels>
					<comments>
						<mastercomment1>RÃ…STOFF. BR_FINFREDAG_MSUA_OPRO</mastercomment1>
						<mastercomment2/>
						<mastercomment3/>
						<mastercomment4/>
						<clipcommenta/>
					</comments>
					<file id="msub200012-3011-k1d3-002 2"/>
					<filter>
						<enabled>TRUE</enabled>
						<start>-1</start>
						<end>-1</end>
						<effect>
							<name>3 Band Equalizer - Kristine</name>
							<effecttype>filter</effecttype>
							<mediatype>audio</mediatype>
							<parameter>
								<parameterid>Low Frequency</parameterid>
								<name>Low Frequency</name>
								<valuemin>80</valuemin>
								<valuemax>2000</valuemax>
								<value>80</value>
							</parameter>
							<parameter>
								<parameterid>Low Gain(dB)</parameterid>
								<name>Low Gain(dB)</name>
								<valuemin>-20</valuemin>
								<valuemax>20</valuemax>
								<value>-4</value>
							</parameter>
							<parameter>
								<parameterid>Mid Frequency</parameterid>
								<name>Mid Frequency</name>
								<valuemin>400</valuemin>
								<valuemax>8000</valuemax>
								<value>3602</value>
							</parameter>
							<parameter>
								<parameterid>Mid Gain(dB)</parameterid>
								<name>Mid Gain(dB)</name>
								<valuemin>-20</valuemin>
								<valuemax>20</valuemax>
								<value>3</value>
							</parameter>
							<parameter>
								<parameterid>High Frequency</parameterid>
								<name>High Frequency</name>
								<valuemin>5000</valuemin>
								<valuemax>20000</valuemax>
								<value>10354</value>
							</parameter>
							<parameter>
								<parameterid>High Gain(dB)</parameterid>
								<name>High Gain(dB)</name>
								<valuemin>-20</valuemin>
								<valuemax>20</valuemax>
								<value>0</value>
							</parameter>
						</effect>
					</filter>
					<filter>
						<enabled>TRUE</enabled>
						<start>-1</start>
						<end>-1</end>
						<effect>
							<name>Compressor/Limiter</name>
							<effecttype>filter</effecttype>
							<mediatype>audio</mediatype>
							<parameter>
								<parameterid>Threshold(dB)</parameterid>
								<name>Threshold(dB)</name>
								<valuemin>-90</valuemin>
								<valuemax>0</valuemax>
								<value>-20</value>
							</parameter>
							<parameter>
								<parameterid>Ratio</parameterid>
								<name>Ratio</name>
								<valuemin>1</valuemin>
								<valuemax>100</valuemax>
								<value>2</value>
							</parameter>
							<parameter>
								<parameterid>Attack Time</parameterid>
								<name>Attack Time</name>
								<valuemin>1</valuemin>
								<valuemax>100</valuemax>
								<value>5</value>
							</parameter>
							<parameter>
								<parameterid>Release Time</parameterid>
								<name>Release Time</name>
								<valuemin>1</valuemin>
								<valuemax>4000</valuemax>
								<value>209</value>
							</parameter>
							<parameter>
								<parameterid>Preserve Volume</parameterid>
								<name>Preserve Volume</name>
								<value>TRUE</value>
							</parameter>
						</effect>
					</filter>
					<filter>
						<effect>
							<name>Audio Levels</name>
							<effectid>audiolevels</effectid>
							<effectcategory>audiolevels</effectcategory>
							<effecttype>audiolevels</effecttype>
							<mediatype>audio</mediatype>
							<parameter>
								<name>Level</name>
								<parameterid>level</parameterid>
								<valuemin>0</valuemin>
								<valuemax>3.98109</valuemax>
								<keyframe>
									<when>3434</when>
									<value>0</value>
								</keyframe>
								<keyframe>
									<when>3436</when>
									<value>1</value>
								</keyframe>
								<keyframe>
									<when>3564</when>
									<value>1</value>
								</keyframe>
								<keyframe>
									<when>3568</when>
									<value>1.41254</value>
								</keyframe>
								<keyframe>
									<when>3642</when>
									<value>1.41254</value>
								</keyframe>
								<keyframe>
									<when>3656</when>
									<value>1.41254</value>
								</keyframe>
								<interpolation>
									<name>FCPCurve</name>
								</interpolation>
								<value>1.41254</value>
							</parameter>
						</effect>
					</filter>
					<filter>
						<effect>
							<name>Audio Pan</name>
							<effectid>audiopan</effectid>
							<effectcategory>audiopan</effectcategory>
							<effecttype>audiopan</effecttype>
							<mediatype>audio</mediatype>
							<parameter>
								<name>Pan</name>
								<parameterid>pan</parameterid>
								<valuemin>-1</valuemin>
								<valuemax>1</valuemax>
								<value>0</value>
							</parameter>
						</effect>
					</filter>
					<sourcetrack>
						<mediatype>audio</mediatype>
						<trackindex>1</trackindex>
					</sourcetrack>
					<filter>
						<effect>
							<name>Time Remap</name>
							<effectid>timeremap</effectid>
							<effectcategory>motion</effectcategory>
							<effecttype>motion</effecttype>
							<mediatype>audio</mediatype>
							<parameter>
								<parameterid>variablespeed</parameterid>
								<name>variablespeed</name>
								<valuemin>0</valuemin>
								<valuemax>1</valuemax>
								<value>0</value>
							</parameter>
							<parameter>
								<parameterid>mappedduration</parameterid>
								<name>mappedduration</name>
								<value>
									<timecode>
										<rate>
											<timebase>0</timebase>
										</rate>
										<string>0</string>
										<frame>0</frame>
										<displayformat>NDF</displayformat>
									</timecode>
								</value>
							</parameter>
							<parameter>
								<parameterid>speed</parameterid>
								<name>speed</name>
								<valuemin>-10000</valuemin>
								<valuemax>10000</valuemax>
								<value>40</value>
							</parameter>
							<parameter>
								<parameterid>reverse</parameterid>
								<name>reverse</name>
								<value>FALSE</value>
							</parameter>
							<parameter>
								<parameterid>frameblending</parameterid>
								<name>frameblending</name>
								<value>TRUE</value>
							</parameter>
							<parameter>
								<parameterid>graphdict</parameterid>
								<name>graphdict</name>
								<valuemin>0</valuemin>
								<valuemax>8682</valuemax>
								<keyframe>
									<when>142</when>
									<value>0.1999</value>
									<speedkfstart>TRUE</speedkfstart>
									<speedvirtualkf>TRUE</speedvirtualkf>
								</keyframe>
								<keyframe>
									<when>4090</when>
									<value>1579.4</value>
									<speedkfin>TRUE</speedkfin>
									<speedvirtualkf>TRUE</speedvirtualkf>
								</keyframe>
								<keyframe>
									<when>4154</when>
									<value>1605</value>
									<speedkfout>TRUE</speedkfout>
									<speedvirtualkf>TRUE</speedvirtualkf>
								</keyframe>
								<keyframe>
									<when>21848</when>
									<value>8683.2</value>
									<speedkfend>TRUE</speedkfend>
									<speedvirtualkf>TRUE</speedvirtualkf>
								</keyframe>
								<interpolation>
									<name>FCPCurve</name>
								</interpolation>
								<value>1579.4</value>
							</parameter>
						</effect>
					</filter>
				</clipitem>
				<transitionitem id="1049215860 ">
					<rate>
						<ntsc>FALSE</ntsc>
						<timebase>25</timebase>
					</rate>
					<start>33490</start>
					<end>33496</end>
					<alignment>center</alignment>
					<effect>
						<name>Cross Fade (+3dB) Copy</name>
						<effecttype>transition</effecttype>
						<mediatype>audio</mediatype>
					</effect>
				</transitionitem>
				<clipitem id="msub200012-3011-k2d3-010 3">
					<name>msub200012-3011-k2d3-010</name>
					<duration>139</duration>
					<rate>
						<ntsc>FALSE</ntsc>
						<timebase>25</timebase>
					</rate>
					<in>94</in>
					<out>107</out>
					<start>33826</start>
					<end>33839</end>
					<subframeoffset>0</subframeoffset>
					<masterclipid>msub200012-3011-k2d3-010 1</masterclipid>
					<logginginfo>
						<description>msub200012-3011-k2d3-010</description>
						<scene/>
						<shottake/>
						<lognote/>
						<good>FALSE</good>
					</logginginfo>
					<labels>
						<label2/>
					</labels>
					<comments>
						<mastercomment1>RÃ…STOFF. BR_FINFREDAG_MSUA_OPRO</mastercomment1>
						<mastercomment2/>
						<mastercomment3/>
						<mastercomment4/>
						<clipcommenta/>
					</comments>
					<file id="msub200012-3011-k2d3-010 2"/>
					<filter>
						<effect>
							<name>Audio Levels</name>
							<effectid>audiolevels</effectid>
							<effectcategory>audiolevels</effectcategory>
							<effecttype>audiolevels</effecttype>
							<mediatype>audio</mediatype>
							<parameter>
								<name>Level</name>
								<parameterid>level</parameterid>
								<valuemin>0</valuemin>
								<valuemax>3.98109</valuemax>
								<value>1</value>
							</parameter>
						</effect>
					</filter>
					<filter>
						<effect>
							<name>Audio Pan</name>
							<effectid>audiopan</effectid>
							<effectcategory>audiopan</effectcategory>
							<effecttype>audiopan</effecttype>
							<mediatype>audio</mediatype>
							<parameter>
								<name>Pan</name>
								<parameterid>pan</parameterid>
								<valuemin>-1</valuemin>
								<valuemax>1</valuemax>
								<value>0</value>
							</parameter>
						</effect>
					</filter>
					<sourcetrack>
						<mediatype>audio</mediatype>
						<trackindex>3</trackindex>
					</sourcetrack>
					<link>
						<linkclipref>msub200012-3011-k2d3-010 </linkclipref>
						<mediatype>video</mediatype>
						<trackindex>4</trackindex>
						<clipindex>13</clipindex>
					</link>
					<link>
						<linkclipref>msub200012-3011-k2d3-010 3</linkclipref>
						<mediatype>audio</mediatype>
						<trackindex>3</trackindex>
						<clipindex>54</clipindex>
					</link>
				</clipitem>
				<enabled>TRUE</enabled>
				<locked>FALSE</locked>
				<outputchannelindex>1</outputchannelindex>
			</track>
			<track>
				<clipitem id="Fin Fredag UL - NY">
					<name>Fin Fredag UL - NY</name>
					<duration>1089</duration>
					<rate>
						<ntsc>FALSE</ntsc>
						<timebase>25</timebase>
					</rate>
					<in>75</in>
					<out>485</out>
					<start>0</start>
					<end>-1</end>
					<masterclipid>Fin Fredag UL - NY1</masterclipid>
					<logginginfo>
						<scene/>
						<shottake/>
						<lognote/>
						<good>FALSE</good>
					</logginginfo>
					<labels>
						<label2/>
					</labels>
					<comments>
						<mastercomment1/>
						<mastercomment2/>
						<mastercomment3/>
						<mastercomment4/>
					</comments>
					<file id="Fin Fredag UL - NY2">
						<name>Fin Fredag UL - NY.wav</name>
						<pathurl>file://localhost/SuperSAN1/Prosjekter/MSUB20000012%20FIN%20FREDAG/Vignettmusikk/Fin%20Fredag%20UL%20-%20NY.wav</pathurl>
						<rate>
							<timebase>25</timebase>
						</rate>
						<duration>1089</duration>
						<timecode>
							<rate>
								<timebase>25</timebase>
							</rate>
							<string>00:00:21:15</string>
							<frame>540</frame>
							<displayformat>NDF</displayformat>
							<source>source</source>
						</timecode>
						<media>
							<audio>
								<rate>
									<timebase>48000</timebase>
								</rate>
								<trackcount>2</trackcount>
								<samplecharacteristics>
									<depth>24</depth>
								</samplecharacteristics>
							</audio>
						</media>
					</file>
					<filter>
						<effect>
							<name>Audio Levels</name>
							<effectid>audiolevels</effectid>
							<effectcategory>audiolevels</effectcategory>
							<effecttype>audiolevels</effecttype>
							<mediatype>audio</mediatype>
							<parameter>
								<name>Level</name>
								<parameterid>level</parameterid>
								<valuemin>0</valuemin>
								<valuemax>3.98109</valuemax>
								<value>0.199526</value>
							</parameter>
						</effect>
					</filter>
					<filter>
						<effect>
							<name>Audio Pan</name>
							<effectid>audiopan</effectid>
							<effectcategory>audiopan</effectcategory>
							<effecttype>audiopan</effecttype>
							<mediatype>audio</mediatype>
							<parameter>
								<name>Pan</name>
								<parameterid>pan</parameterid>
								<valuemin>-1</valuemin>
								<valuemax>1</valuemax>
								<value>-1</value>
							</parameter>
						</effect>
					</filter>
					<sourcetrack>
						<mediatype>audio</mediatype>
						<trackindex>1</trackindex>
					</sourcetrack>
					<link>
						<linkclipref>Fin Fredag UL - NY</linkclipref>
						<mediatype>audio</mediatype>
						<trackindex>4</trackindex>
						<clipindex>1</clipindex>
						<groupindex>1</groupindex>
					</link>
					<link>
						<linkclipref>Fin Fredag UL - NY3</linkclipref>
						<mediatype>audio</mediatype>
						<trackindex>5</trackindex>
						<clipindex>1</clipindex>
						<groupindex>1</groupindex>
					</link>
				</clipitem>
				<transitionitem id="46">
					<rate>
						<ntsc>FALSE</ntsc>
						<timebase>25</timebase>
					</rate>
					<start>385</start>
					<end>410</end>
					<alignment>end-black</alignment>
					<effect>
						<name>Cross Fade ( 0dB)</name>
						<effecttype>transition</effecttype>
						<mediatype>audio</mediatype>
					</effect>
				</transitionitem>
				<transitionitem id="1049217560 ">
					<rate>
						<ntsc>FALSE</ntsc>
						<timebase>25</timebase>
					</rate>
					<start>2527</start>
					<end>2539</end>
					<alignment>start-black</alignment>
					<effect>
						<name>Cross Fade (+3dB)</name>
						<effecttype>transition</effecttype>
						<mediatype>audio</mediatype>
					</effect>
				</transitionitem>
				<clipitem id="TACO 1 START 3">
					<name>TACO 1 START </name>
					<duration>618</duration>
					<rate>
						<ntsc>FALSE</ntsc>
						<timebase>25</timebase>
					</rate>
					<in>0</in>
					<out>618</out>
					<start>-1</start>
					<end>3145</end>
					<labels>
						<label>Best Take</label>
					</labels>
					<filter>
						<effect>
							<name>Audio Levels</name>
							<effectid>audiolevels</effectid>
							<effectcategory>audiolevels</effectcategory>
							<effecttype>audiolevels</effecttype>
							<mediatype>audio</mediatype>
							<parameter>
								<name>Level</name>
								<parameterid>level</parameterid>
								<valuemin>0</valuemin>
								<valuemax>3.98109</valuemax>
								<value>1</value>
							</parameter>
						</effect>
					</filter>
					<filter>
						<effect>
							<name>Audio Pan</name>
							<effectid>audiopan</effectid>
							<effectcategory>audiopan</effectcategory>
							<effecttype>audiopan</effecttype>
							<mediatype>audio</mediatype>
							<parameter>
								<name>Pan</name>
								<parameterid>pan</parameterid>
								<valuemin>-1</valuemin>
								<valuemax>1</valuemax>
								<value>1</value>
							</parameter>
						</effect>
					</filter>
					<sequence id="TACO 1 START 1"/>
					<sourcetrack>
						<mediatype>audio</mediatype>
						<trackindex>2</trackindex>
					</sourcetrack>
					<link>
						<linkclipref>TACO 1 START </linkclipref>
						<mediatype>video</mediatype>
						<trackindex>1</trackindex>
						<clipindex>7</clipindex>
					</link>
					<link>
						<linkclipref>TACO 1 START 2</linkclipref>
						<mediatype>audio</mediatype>
						<trackindex>3</trackindex>
						<clipindex>4</clipindex>
						<groupindex>1</groupindex>
					</link>
					<link>
						<linkclipref>TACO 1 START 3</linkclipref>
						<mediatype>audio</mediatype>
						<trackindex>4</trackindex>
						<clipindex>4</clipindex>
						<groupindex>1</groupindex>
					</link>
					<ismasterclip>FALSE</ismasterclip>
				</clipitem>
				<transitionitem id="47">
					<rate>
						<ntsc>FALSE</ntsc>
						<timebase>25</timebase>
					</rate>
					<start>6053</start>
					<end>6103</end>
					<alignment>start-black</alignment>
					<effect>
						<name>Cross Fade ( 0dB)</name>
						<effecttype>transition</effecttype>
						<mediatype>audio</mediatype>
					</effect>
				</transitionitem>
				<clipitem id="KOIF43001507AA19">
					<name>KOIF43001507AA</name>
					<duration>131201</duration>
					<rate>
						<ntsc>FALSE</ntsc>
						<timebase>25</timebase>
					</rate>
					<in>44603</in>
					<out>45243</out>
					<start>-1</start>
					<end>-1</end>
					<subframeoffset>0</subframeoffset>
					<masterclipid>KOIF43001507AA1</masterclipid>
					<logginginfo>
						<description>Jakten pÃ¥ nyresteinen</description>
						<scene/>
						<shottake/>
						<lognote/>
						<good>FALSE</good>
					</logginginfo>
					<labels>
						<label2/>
					</labels>
					<comments>
						<mastercomment1>ARKIVSTOFF. BR_FINFREDAG_MSUA_OPRO</mastercomment1>
						<mastercomment2>. Filmkameratene AS. </mastercomment2>
						<mastercomment3>Sendt: 1999-12-20. FILMKAMERATENE; Norge.</mastercomment3>
						<mastercomment4>Norsk spillefilm fra 1996. Bestefar har smerter, men Ã¥tteÃ¥rige Simen vet rÃ¥d. Han tryller seg liten og klatrer inn i bestefars kropp for Ã¥ finne ut hva som er i veien ... Regi: Vibeke IdsÃ¸e. Manus: Vibeke IdsÃ¸e. Musikk: Ragnar Bjerkreim. I rollene: Fru Galle ................ Kjersti HOLMEN (mv) Galle Junior ............. Lage FOSHEIM (mv) Sekr??t Service agent ..... Morten M. FALDAAS (mv) StemmebÃ¥ndsoperatÃ¸ren .... Sigve BÃ˜E (mv) TÃ¥retankoperatÃ¸rene ...... Harald EIA (mv), Gard EIDSVOLD (mv) A. Pendixrud ............. BjÃ¸rn JENSEG (mv) Hvitt punkerblodlegeme ... Jan "Devo" KORNSTAD (mv) / Jan KORNSTAD (mv) Hjerteharpen ............. Tone HULBÃ†KMO (mv) HjernesentraloperatÃ¸ren .. Leif DUBARD (mv) RÃ¸de kjÃ¦rlighetsvakter ... Herborg KRÃ…KEVIK (mv), Helen VIKSTVEDT (mv) Bestefar ................. Terje STRÃ˜MDAHL (mv) Bestemor ................. CÃ¦cilie NORDBY (mv) Bamsens stemme ........... Toralv Maurstad Ã˜vrige medvirkende: Tina HARTVIG (mv), Tinken LAURANTZON (mv), Ã˜ystein SELENIUS (mv), Adolf E. BJERKE (mv), Rune HEKKELSTRAND (mv), Rikke SANDLI (mv), Unn SANDVIG (mv), Celine SAASTAD (mv), Anne STRAY (mv), Arild SÃ˜GAARD (mv), Ruth GURHOLT (mv), Kjetil OLSEN (mv), Ine SANDVIG (mv), Aslaug GUTTORMSGÃ…RD (mv), Kjersti Borchgrevink MAAGERÃ˜ (mv), Kiran SHAH (mv), Camilla HARTVIG (mv), Raymond WIIK (mv).</mastercomment4>
						<clipcommenta/>
						<clipcommentb>1:F-mix venstre 2:F-mix hÃ¸yre 3:-- 4:--.4x3 PAL.</clipcommentb>
					</comments>
					<file id="KOIF43001507AA2"/>
					<filter>
						<effect>
							<name>Audio Levels</name>
							<effectid>audiolevels</effectid>
							<effectcategory>audiolevels</effectcategory>
							<effecttype>audiolevels</effecttype>
							<mediatype>audio</mediatype>
							<parameter>
								<name>Level</name>
								<parameterid>level</parameterid>
								<valuemin>0</valuemin>
								<valuemax>3.98109</valuemax>
								<keyframe>
									<when>44606.3</when>
									<value>0.794328</value>
								</keyframe>
								<keyframe>
									<when>44653.1</when>
									<value>0.891251</value>
								</keyframe>
								<keyframe>
									<when>44663.4</when>
									<value>1.41254</value>
								</keyframe>
								<interpolation>
									<name>FCPCurve</name>
								</interpolation>
								<value>1.41364</value>
							</parameter>
						</effect>
					</filter>
					<filter>
						<effect>
							<name>Audio Pan</name>
							<effectid>audiopan</effectid>
							<effectcategory>audiopan</effectcategory>
							<effecttype>audiopan</effecttype>
							<mediatype>audio</mediatype>
							<parameter>
								<name>Pan</name>
								<parameterid>pan</parameterid>
								<valuemin>-1</valuemin>
								<valuemax>1</valuemax>
								<value>-1</value>
							</parameter>
						</effect>
					</filter>
					<sourcetrack>
						<mediatype>audio</mediatype>
						<trackindex>1</trackindex>
					</sourcetrack>
					<link>
						<linkclipref>KOIF43001507AA19</linkclipref>
						<mediatype>audio</mediatype>
						<trackindex>4</trackindex>
						<clipindex>6</clipindex>
					</link>
					<link>
						<linkclipref>KOIF43001507AA20</linkclipref>
						<mediatype>audio</mediatype>
						<trackindex>5</trackindex>
						<clipindex>8</clipindex>
					</link>
				</clipitem>
				<transitionitem id="48">
					<rate>
						<ntsc>FALSE</ntsc>
						<timebase>25</timebase>
					</rate>
					<start>6593</start>
					<end>6693</end>
					<alignment>end-black</alignment>
					<effect>
						<name>Cross Fade ( 0dB)</name>
						<effecttype>transition</effecttype>
						<mediatype>audio</mediatype>
					</effect>
				</transitionitem>
				<transitionitem id="1049219396 ">
					<rate>
						<ntsc>FALSE</ntsc>
						<timebase>25</timebase>
					</rate>
					<start>8366</start>
					<end>8382</end>
					<alignment>start-black</alignment>
					<effect>
						<name>Cross Fade (+3dB) Copy</name>
						<effecttype>transition</effecttype>
						<mediatype>audio</mediatype>
					</effect>
				</transitionitem>
				<clipitem id="KOIF43001507AA8">
					<name>KOIF43001507AA</name>
					<duration>131201</duration>
					<rate>
						<ntsc>FALSE</ntsc>
						<timebase>25</timebase>
					</rate>
					<in>111651</in>
					<out>111836</out>
					<start>-1</start>
					<end>-1</end>
					<subframeoffset>0</subframeoffset>
					<enabled>TRUE</enabled>
					<masterclipid>KOIF43001507AA1</masterclipid>
					<logginginfo>
						<description>Jakten pÃ¥ nyresteinen</description>
						<scene/>
						<shottake/>
						<lognote/>
						<good>FALSE</good>
					</logginginfo>
					<labels>
						<label2/>
					</labels>
					<comments>
						<mastercomment1>ARKIVSTOFF. BR_FINFREDAG_MSUA_OPRO</mastercomment1>
						<mastercomment2>. Filmkameratene AS. </mastercomment2>
						<mastercomment3>Sendt: 1999-12-20. FILMKAMERATENE; Norge.</mastercomment3>
						<mastercomment4>Norsk spillefilm fra 1996. Bestefar har smerter, men Ã¥tteÃ¥rige Simen vet rÃ¥d. Han tryller seg liten og klatrer inn i bestefars kropp for Ã¥ finne ut hva som er i veien ... Regi: Vibeke IdsÃ¸e. Manus: Vibeke IdsÃ¸e. Musikk: Ragnar Bjerkreim. I rollene: Fru Galle ................ Kjersti HOLMEN (mv) Galle Junior ............. Lage FOSHEIM (mv) Sekr??t Service agent ..... Morten M. FALDAAS (mv) StemmebÃ¥ndsoperatÃ¸ren .... Sigve BÃ˜E (mv) TÃ¥retankoperatÃ¸rene ...... Harald EIA (mv), Gard EIDSVOLD (mv) A. Pendixrud ............. BjÃ¸rn JENSEG (mv) Hvitt punkerblodlegeme ... Jan "Devo" KORNSTAD (mv) / Jan KORNSTAD (mv) Hjerteharpen ............. Tone HULBÃ†KMO (mv) HjernesentraloperatÃ¸ren .. Leif DUBARD (mv) RÃ¸de kjÃ¦rlighetsvakter ... Herborg KRÃ…KEVIK (mv), Helen VIKSTVEDT (mv) Bestefar ................. Terje STRÃ˜MDAHL (mv) Bestemor ................. CÃ¦cilie NORDBY (mv) Bamsens stemme ........... Toralv Maurstad Ã˜vrige medvirkende: Tina HARTVIG (mv), Tinken LAURANTZON (mv), Ã˜ystein SELENIUS (mv), Adolf E. BJERKE (mv), Rune HEKKELSTRAND (mv), Rikke SANDLI (mv), Unn SANDVIG (mv), Celine SAASTAD (mv), Anne STRAY (mv), Arild SÃ˜GAARD (mv), Ruth GURHOLT (mv), Kjetil OLSEN (mv), Ine SANDVIG (mv), Aslaug GUTTORMSGÃ…RD (mv), Kjersti Borchgrevink MAAGERÃ˜ (mv), Kiran SHAH (mv), Camilla HARTVIG (mv), Raymond WIIK (mv).</mastercomment4>
						<clipcommenta/>
						<clipcommentb>1:F-mix venstre 2:F-mix hÃ¸yre 3:-- 4:--.4x3 PAL.</clipcommentb>
					</comments>
					<file id="KOIF43001507AA2"/>
					<filter>
						<effect>
							<name>Audio Levels</name>
							<effectid>audiolevels</effectid>
							<effectcategory>audiolevels</effectcategory>
							<effecttype>audiolevels</effecttype>
							<mediatype>audio</mediatype>
							<parameter>
								<name>Level</name>
								<parameterid>level</parameterid>
								<valuemin>0</valuemin>
								<valuemax>3.98109</valuemax>
								<keyframe>
									<when>111744</when>
									<value>0.251189</value>
								</keyframe>
								<keyframe>
									<when>111753</when>
									<value>0.112202</value>
								</keyframe>
								<interpolation>
									<name>FCPCurve</name>
								</interpolation>
								<value>0.251189</value>
							</parameter>
						</effect>
					</filter>
					<filter>
						<effect>
							<name>Audio Pan</name>
							<effectid>audiopan</effectid>
							<effectcategory>audiopan</effectcategory>
							<effecttype>audiopan</effecttype>
							<mediatype>audio</mediatype>
							<parameter>
								<name>Pan</name>
								<parameterid>pan</parameterid>
								<valuemin>-1</valuemin>
								<valuemax>1</valuemax>
								<value>1</value>
							</parameter>
						</effect>
					</filter>
					<sourcetrack>
						<mediatype>audio</mediatype>
						<trackindex>2</trackindex>
					</sourcetrack>
					<link>
						<linkclipref>KOIF43001507AA6</linkclipref>
						<mediatype>video</mediatype>
						<trackindex>3</trackindex>
						<clipindex>9</clipindex>
					</link>
					<link>
						<linkclipref>KOIF43001507AA7</linkclipref>
						<mediatype>audio</mediatype>
						<trackindex>3</trackindex>
						<clipindex>6</clipindex>
					</link>
					<link>
						<linkclipref>KOIF43001507AA8</linkclipref>
						<mediatype>audio</mediatype>
						<trackindex>4</trackindex>
						<clipindex>9</clipindex>
					</link>
				</clipitem>
				<transitionitem id="1049220348 ">
					<rate>
						<ntsc>FALSE</ntsc>
						<timebase>25</timebase>
					</rate>
					<start>8526</start>
					<end>8551</end>
					<alignment>center</alignment>
					<effect>
						<name>Cross Fade (+3dB) Copy</name>
						<effecttype>transition</effecttype>
						<mediatype>audio</mediatype>
					</effect>
				</transitionitem>
				<clipitem id="KOIF43001507AA12">
					<name>KOIF43001507AA</name>
					<duration>131201</duration>
					<rate>
						<ntsc>FALSE</ntsc>
						<timebase>25</timebase>
					</rate>
					<in>112588</in>
					<out>112677</out>
					<start>-1</start>
					<end>-1</end>
					<subframeoffset>0</subframeoffset>
					<masterclipid>KOIF43001507AA1</masterclipid>
					<logginginfo>
						<description>Jakten pÃ¥ nyresteinen</description>
						<scene/>
						<shottake/>
						<lognote/>
						<good>FALSE</good>
					</logginginfo>
					<labels>
						<label2/>
					</labels>
					<comments>
						<mastercomment1>ARKIVSTOFF. BR_FINFREDAG_MSUA_OPRO</mastercomment1>
						<mastercomment2>. Filmkameratene AS. </mastercomment2>
						<mastercomment3>Sendt: 1999-12-20. FILMKAMERATENE; Norge.</mastercomment3>
						<mastercomment4>Norsk spillefilm fra 1996. Bestefar har smerter, men Ã¥tteÃ¥rige Simen vet rÃ¥d. Han tryller seg liten og klatrer inn i bestefars kropp for Ã¥ finne ut hva som er i veien ... Regi: Vibeke IdsÃ¸e. Manus: Vibeke IdsÃ¸e. Musikk: Ragnar Bjerkreim. I rollene: Fru Galle ................ Kjersti HOLMEN (mv) Galle Junior ............. Lage FOSHEIM (mv) Sekr??t Service agent ..... Morten M. FALDAAS (mv) StemmebÃ¥ndsoperatÃ¸ren .... Sigve BÃ˜E (mv) TÃ¥retankoperatÃ¸rene ...... Harald EIA (mv), Gard EIDSVOLD (mv) A. Pendixrud ............. BjÃ¸rn JENSEG (mv) Hvitt punkerblodlegeme ... Jan "Devo" KORNSTAD (mv) / Jan KORNSTAD (mv) Hjerteharpen ............. Tone HULBÃ†KMO (mv) HjernesentraloperatÃ¸ren .. Leif DUBARD (mv) RÃ¸de kjÃ¦rlighetsvakter ... Herborg KRÃ…KEVIK (mv), Helen VIKSTVEDT (mv) Bestefar ................. Terje STRÃ˜MDAHL (mv) Bestemor ................. CÃ¦cilie NORDBY (mv) Bamsens stemme ........... Toralv Maurstad Ã˜vrige medvirkende: Tina HARTVIG (mv), Tinken LAURANTZON (mv), Ã˜ystein SELENIUS (mv), Adolf E. BJERKE (mv), Rune HEKKELSTRAND (mv), Rikke SANDLI (mv), Unn SANDVIG (mv), Celine SAASTAD (mv), Anne STRAY (mv), Arild SÃ˜GAARD (mv), Ruth GURHOLT (mv), Kjetil OLSEN (mv), Ine SANDVIG (mv), Aslaug GUTTORMSGÃ…RD (mv), Kjersti Borchgrevink MAAGERÃ˜ (mv), Kiran SHAH (mv), Camilla HARTVIG (mv), Raymond WIIK (mv).</mastercomment4>
						<clipcommenta/>
						<clipcommentb>1:F-mix venstre 2:F-mix hÃ¸yre 3:-- 4:--.4x3 PAL.</clipcommentb>
					</comments>
					<file id="KOIF43001507AA2"/>
					<filter>
						<effect>
							<name>Audio Levels</name>
							<effectid>audiolevels</effectid>
							<effectcategory>audiolevels</effectcategory>
							<effecttype>audiolevels</effecttype>
							<mediatype>audio</mediatype>
							<parameter>
								<name>Level</name>
								<parameterid>level</parameterid>
								<valuemin>0</valuemin>
								<valuemax>3.98109</valuemax>
								<value>0.112202</value>
							</parameter>
						</effect>
					</filter>
					<filter>
						<effect>
							<name>Audio Pan</name>
							<effectid>audiopan</effectid>
							<effectcategory>audiopan</effectcategory>
							<effecttype>audiopan</effecttype>
							<mediatype>audio</mediatype>
							<parameter>
								<name>Pan</name>
								<parameterid>pan</parameterid>
								<valuemin>-1</valuemin>
								<valuemax>1</valuemax>
								<value>1</value>
							</parameter>
						</effect>
					</filter>
					<sourcetrack>
						<mediatype>audio</mediatype>
						<trackindex>2</trackindex>
					</sourcetrack>
					<link>
						<linkclipref>KOIF43001507AA10</linkclipref>
						<mediatype>video</mediatype>
						<trackindex>3</trackindex>
						<clipindex>11</clipindex>
					</link>
					<link>
						<linkclipref>KOIF43001507AA11</linkclipref>
						<mediatype>audio</mediatype>
						<trackindex>3</trackindex>
						<clipindex>8</clipindex>
					</link>
					<link>
						<linkclipref>KOIF43001507AA12</linkclipref>
						<mediatype>audio</mediatype>
						<trackindex>4</trackindex>
						<clipindex>11</clipindex>
					</link>
				</clipitem>
				<transitionitem id="1049221164 ">
					<rate>
						<ntsc>FALSE</ntsc>
						<timebase>25</timebase>
					</rate>
					<start>8590</start>
					<end>8615</end>
					<alignment>center</alignment>
					<effect>
						<name>Cross Fade (+3dB) Copy</name>
						<effecttype>transition</effecttype>
						<mediatype>audio</mediatype>
					</effect>
				</transitionitem>
				<clipitem id="KOIF43001507AA15">
					<name>KOIF43001507AA</name>
					<duration>131201</duration>
					<rate>
						<ntsc>FALSE</ntsc>
						<timebase>25</timebase>
					</rate>
					<in>112778</in>
					<out>112866</out>
					<start>-1</start>
					<end>-1</end>
					<subframeoffset>0</subframeoffset>
					<masterclipid>KOIF43001507AA1</masterclipid>
					<logginginfo>
						<description>Jakten pÃ¥ nyresteinen</description>
						<scene/>
						<shottake/>
						<lognote/>
						<good>FALSE</good>
					</logginginfo>
					<labels>
						<label2/>
					</labels>
					<comments>
						<mastercomment1>ARKIVSTOFF. BR_FINFREDAG_MSUA_OPRO</mastercomment1>
						<mastercomment2>. Filmkameratene AS. </mastercomment2>
						<mastercomment3>Sendt: 1999-12-20. FILMKAMERATENE; Norge.</mastercomment3>
						<mastercomment4>Norsk spillefilm fra 1996. Bestefar har smerter, men Ã¥tteÃ¥rige Simen vet rÃ¥d. Han tryller seg liten og klatrer inn i bestefars kropp for Ã¥ finne ut hva som er i veien ... Regi: Vibeke IdsÃ¸e. Manus: Vibeke IdsÃ¸e. Musikk: Ragnar Bjerkreim. I rollene: Fru Galle ................ Kjersti HOLMEN (mv) Galle Junior ............. Lage FOSHEIM (mv) Sekr??t Service agent ..... Morten M. FALDAAS (mv) StemmebÃ¥ndsoperatÃ¸ren .... Sigve BÃ˜E (mv) TÃ¥retankoperatÃ¸rene ...... Harald EIA (mv), Gard EIDSVOLD (mv) A. Pendixrud ............. BjÃ¸rn JENSEG (mv) Hvitt punkerblodlegeme ... Jan "Devo" KORNSTAD (mv) / Jan KORNSTAD (mv) Hjerteharpen ............. Tone HULBÃ†KMO (mv) HjernesentraloperatÃ¸ren .. Leif DUBARD (mv) RÃ¸de kjÃ¦rlighetsvakter ... Herborg KRÃ…KEVIK (mv), Helen VIKSTVEDT (mv) Bestefar ................. Terje STRÃ˜MDAHL (mv) Bestemor ................. CÃ¦cilie NORDBY (mv) Bamsens stemme ........... Toralv Maurstad Ã˜vrige medvirkende: Tina HARTVIG (mv), Tinken LAURANTZON (mv), Ã˜ystein SELENIUS (mv), Adolf E. BJERKE (mv), Rune HEKKELSTRAND (mv), Rikke SANDLI (mv), Unn SANDVIG (mv), Celine SAASTAD (mv), Anne STRAY (mv), Arild SÃ˜GAARD (mv), Ruth GURHOLT (mv), Kjetil OLSEN (mv), Ine SANDVIG (mv), Aslaug GUTTORMSGÃ…RD (mv), Kjersti Borchgrevink MAAGERÃ˜ (mv), Kiran SHAH (mv), Camilla HARTVIG (mv), Raymond WIIK (mv).</mastercomment4>
						<clipcommenta/>
						<clipcommentb>1:F-mix venstre 2:F-mix hÃ¸yre 3:-- 4:--.4x3 PAL.</clipcommentb>
					</comments>
					<file id="KOIF43001507AA2"/>
					<filter>
						<effect>
							<name>Audio Levels</name>
							<effectid>audiolevels</effectid>
							<effectcategory>audiolevels</effectcategory>
							<effecttype>audiolevels</effecttype>
							<mediatype>audio</mediatype>
							<parameter>
								<name>Level</name>
								<parameterid>level</parameterid>
								<valuemin>0</valuemin>
								<valuemax>3.98109</valuemax>
								<value>1.58489</value>
							</parameter>
						</effect>
					</filter>
					<filter>
						<effect>
							<name>Audio Pan</name>
							<effectid>audiopan</effectid>
							<effectcategory>audiopan</effectcategory>
							<effecttype>audiopan</effecttype>
							<mediatype>audio</mediatype>
							<parameter>
								<name>Pan</name>
								<parameterid>pan</parameterid>
								<valuemin>-1</valuemin>
								<valuemax>1</valuemax>
								<value>1</value>
							</parameter>
						</effect>
					</filter>
					<sourcetrack>
						<mediatype>audio</mediatype>
						<trackindex>2</trackindex>
					</sourcetrack>
					<link>
						<linkclipref>KOIF43001507AA13</linkclipref>
						<mediatype>video</mediatype>
						<trackindex>3</trackindex>
						<clipindex>12</clipindex>
					</link>
					<link>
						<linkclipref>KOIF43001507AA14</linkclipref>
						<mediatype>audio</mediatype>
						<trackindex>3</trackindex>
						<clipindex>10</clipindex>
					</link>
					<link>
						<linkclipref>KOIF43001507AA15</linkclipref>
						<mediatype>audio</mediatype>
						<trackindex>4</trackindex>
						<clipindex>13</clipindex>
					</link>
				</clipitem>
				<transitionitem id="1049221980 ">
					<rate>
						<ntsc>FALSE</ntsc>
						<timebase>25</timebase>
					</rate>
					<start>8653</start>
					<end>8678</end>
					<alignment>center</alignment>
					<effect>
						<name>Cross Fade (+3dB) Copy</name>
						<effecttype>transition</effecttype>
						<mediatype>audio</mediatype>
					</effect>
				</transitionitem>
				<transitionitem id="1049222456 ">
					<rate>
						<ntsc>FALSE</ntsc>
						<timebase>25</timebase>
					</rate>
					<start>10536</start>
					<end>10561</end>
					<alignment>start-black</alignment>
					<effect>
						<name>Cross Fade (+3dB) Copy</name>
						<effecttype>transition</effecttype>
						<mediatype>audio</mediatype>
					</effect>
				</transitionitem>
				<clipitem id="KOIF43001507AA5">
					<name>KOIF43001507AA</name>
					<duration>131201</duration>
					<rate>
						<ntsc>FALSE</ntsc>
						<timebase>25</timebase>
					</rate>
					<in>112881</in>
					<out>113313</out>
					<start>-1</start>
					<end>-1</end>
					<subframeoffset>0</subframeoffset>
					<enabled>TRUE</enabled>
					<masterclipid>KOIF43001507AA1</masterclipid>
					<logginginfo>
						<description>Jakten pÃ¥ nyresteinen</description>
						<scene/>
						<shottake/>
						<lognote/>
						<good>FALSE</good>
					</logginginfo>
					<labels>
						<label2/>
					</labels>
					<comments>
						<mastercomment1>ARKIVSTOFF. BR_FINFREDAG_MSUA_OPRO</mastercomment1>
						<mastercomment2>. Filmkameratene AS. </mastercomment2>
						<mastercomment3>Sendt: 1999-12-20. FILMKAMERATENE; Norge.</mastercomment3>
						<mastercomment4>Norsk spillefilm fra 1996. Bestefar har smerter, men Ã¥tteÃ¥rige Simen vet rÃ¥d. Han tryller seg liten og klatrer inn i bestefars kropp for Ã¥ finne ut hva som er i veien ... Regi: Vibeke IdsÃ¸e. Manus: Vibeke IdsÃ¸e. Musikk: Ragnar Bjerkreim. I rollene: Fru Galle ................ Kjersti HOLMEN (mv) Galle Junior ............. Lage FOSHEIM (mv) Sekr??t Service agent ..... Morten M. FALDAAS (mv) StemmebÃ¥ndsoperatÃ¸ren .... Sigve BÃ˜E (mv) TÃ¥retankoperatÃ¸rene ...... Harald EIA (mv), Gard EIDSVOLD (mv) A. Pendixrud ............. BjÃ¸rn JENSEG (mv) Hvitt punkerblodlegeme ... Jan "Devo" KORNSTAD (mv) / Jan KORNSTAD (mv) Hjerteharpen ............. Tone HULBÃ†KMO (mv) HjernesentraloperatÃ¸ren .. Leif DUBARD (mv) RÃ¸de kjÃ¦rlighetsvakter ... Herborg KRÃ…KEVIK (mv), Helen VIKSTVEDT (mv) Bestefar ................. Terje STRÃ˜MDAHL (mv) Bestemor ................. CÃ¦cilie NORDBY (mv) Bamsens stemme ........... Toralv Maurstad Ã˜vrige medvirkende: Tina HARTVIG (mv), Tinken LAURANTZON (mv), Ã˜ystein SELENIUS (mv), Adolf E. BJERKE (mv), Rune HEKKELSTRAND (mv), Rikke SANDLI (mv), Unn SANDVIG (mv), Celine SAASTAD (mv), Anne STRAY (mv), Arild SÃ˜GAARD (mv), Ruth GURHOLT (mv), Kjetil OLSEN (mv), Ine SANDVIG (mv), Aslaug GUTTORMSGÃ…RD (mv), Kjersti Borchgrevink MAAGERÃ˜ (mv), Kiran SHAH (mv), Camilla HARTVIG (mv), Raymond WIIK (mv).</mastercomment4>
						<clipcommenta/>
						<clipcommentb>1:F-mix venstre 2:F-mix hÃ¸yre 3:-- 4:--.4x3 PAL.</clipcommentb>
					</comments>
					<file id="KOIF43001507AA2"/>
					<filter>
						<effect>
							<name>Audio Levels</name>
							<effectid>audiolevels</effectid>
							<effectcategory>audiolevels</effectcategory>
							<effecttype>audiolevels</effecttype>
							<mediatype>audio</mediatype>
							<parameter>
								<name>Level</name>
								<parameterid>level</parameterid>
								<valuemin>0</valuemin>
								<valuemax>3.98109</valuemax>
								<keyframe>
									<when>113184</when>
									<value>1.41254</value>
								</keyframe>
								<keyframe>
									<when>113276</when>
									<value>0.794328</value>
								</keyframe>
								<keyframe>
									<when>113327</when>
									<value>0.354813</value>
								</keyframe>
								<interpolation>
									<name>FCPCurve</name>
								</interpolation>
								<value>0.756687</value>
							</parameter>
						</effect>
					</filter>
					<filter>
						<effect>
							<name>Audio Pan</name>
							<effectid>audiopan</effectid>
							<effectcategory>audiopan</effectcategory>
							<effecttype>audiopan</effecttype>
							<mediatype>audio</mediatype>
							<parameter>
								<name>Pan</name>
								<parameterid>pan</parameterid>
								<valuemin>-1</valuemin>
								<valuemax>1</valuemax>
								<value>1</value>
							</parameter>
						</effect>
					</filter>
					<sourcetrack>
						<mediatype>audio</mediatype>
						<trackindex>2</trackindex>
					</sourcetrack>
					<link>
						<linkclipref>KOIF43001507AA3</linkclipref>
						<mediatype>video</mediatype>
						<trackindex>2</trackindex>
						<clipindex>12</clipindex>
					</link>
					<link>
						<linkclipref>KOIF43001507AA4</linkclipref>
						<mediatype>audio</mediatype>
						<trackindex>3</trackindex>
						<clipindex>13</clipindex>
					</link>
					<link>
						<linkclipref>KOIF43001507AA5</linkclipref>
						<mediatype>audio</mediatype>
						<trackindex>4</trackindex>
						<clipindex>16</clipindex>
					</link>
				</clipitem>
				<transitionitem id="1049223476 ">
					<rate>
						<ntsc>FALSE</ntsc>
						<timebase>25</timebase>
					</rate>
					<start>10918</start>
					<end>10968</end>
					<alignment>start</alignment>
					<effect>
						<name>Cross Fade (+3dB) Copy</name>
						<effecttype>transition</effecttype>
						<mediatype>audio</mediatype>
					</effect>
				</transitionitem>
				<transitionitem id="1049223952 ">
					<rate>
						<ntsc>FALSE</ntsc>
						<timebase>25</timebase>
					</rate>
					<start>18438</start>
					<end>18444</end>
					<alignment>start-black</alignment>
					<effect>
						<name>Cross Fade (+3dB) Copy</name>
						<effecttype>transition</effecttype>
						<mediatype>audio</mediatype>
					</effect>
				</transitionitem>
				<clipitem id="msub200012-hjelp02008.MXF2">
					<name>msub200012-hjelp02008.MXF</name>
					<duration>6396</duration>
					<rate>
						<ntsc>FALSE</ntsc>
						<timebase>25</timebase>
					</rate>
					<in>515</in>
					<out>747</out>
					<start>-1</start>
					<end>-1</end>
					<subframeoffset>0</subframeoffset>
					<enabled>TRUE</enabled>
					<masterclipid>msub200012-hjelp02008.MXF1</masterclipid>
					<logginginfo>
						<scene/>
						<shottake/>
						<lognote/>
						<good>FALSE</good>
					</logginginfo>
					<labels>
						<label2/>
					</labels>
					<comments>
						<mastercomment1/>
						<mastercomment2/>
						<mastercomment3/>
						<mastercomment4/>
					</comments>
					<file id="msub200012-hjelp02008 "/>
					<filter>
						<enabled>TRUE</enabled>
						<start>-1</start>
						<end>-1</end>
						<effect>
							<name>3 Band Equalizer - Kristine</name>
							<effecttype>filter</effecttype>
							<mediatype>audio</mediatype>
							<parameter>
								<parameterid>Low Frequency</parameterid>
								<name>Low Frequency</name>
								<valuemin>80</valuemin>
								<valuemax>2000</valuemax>
								<value>80</value>
							</parameter>
							<parameter>
								<parameterid>Low Gain(dB)</parameterid>
								<name>Low Gain(dB)</name>
								<valuemin>-20</valuemin>
								<valuemax>20</valuemax>
								<value>-4</value>
							</parameter>
							<parameter>
								<parameterid>Mid Frequency</parameterid>
								<name>Mid Frequency</name>
								<valuemin>400</valuemin>
								<valuemax>8000</valuemax>
								<value>3602</value>
							</parameter>
							<parameter>
								<parameterid>Mid Gain(dB)</parameterid>
								<name>Mid Gain(dB)</name>
								<valuemin>-20</valuemin>
								<valuemax>20</valuemax>
								<value>3</value>
							</parameter>
							<parameter>
								<parameterid>High Frequency</parameterid>
								<name>High Frequency</name>
								<valuemin>5000</valuemin>
								<valuemax>20000</valuemax>
								<value>10354</value>
							</parameter>
							<parameter>
								<parameterid>High Gain(dB)</parameterid>
								<name>High Gain(dB)</name>
								<valuemin>-20</valuemin>
								<valuemax>20</valuemax>
								<value>0</value>
							</parameter>
						</effect>
					</filter>
					<filter>
						<effect>
							<name>Audio Levels</name>
							<effectid>audiolevels</effectid>
							<effectcategory>audiolevels</effectcategory>
							<effecttype>audiolevels</effecttype>
							<mediatype>audio</mediatype>
							<parameter>
								<name>Level</name>
								<parameterid>level</parameterid>
								<valuemin>0</valuemin>
								<valuemax>3.98109</valuemax>
								<keyframe>
									<when>547.143</when>
									<value>0.446684</value>
								</keyframe>
								<keyframe>
									<when>554</when>
									<value>0.562341</value>
								</keyframe>
								<interpolation>
									<name>FCPCurve</name>
								</interpolation>
								<value>0.562341</value>
							</parameter>
						</effect>
					</filter>
					<filter>
						<effect>
							<name>Audio Pan</name>
							<effectid>audiopan</effectid>
							<effectcategory>audiopan</effectcategory>
							<effecttype>audiopan</effecttype>
							<mediatype>audio</mediatype>
							<parameter>
								<name>Pan</name>
								<parameterid>pan</parameterid>
								<valuemin>-1</valuemin>
								<valuemax>1</valuemax>
								<value>0</value>
							</parameter>
						</effect>
					</filter>
					<sourcetrack>
						<mediatype>audio</mediatype>
						<trackindex>2</trackindex>
					</sourcetrack>
					<link>
						<linkclipref>msub200012-hjelp02008.MXF</linkclipref>
						<mediatype>video</mediatype>
						<trackindex>2</trackindex>
						<clipindex>16</clipindex>
					</link>
					<link>
						<linkclipref>msub200012-hjelp02008.MXF2</linkclipref>
						<mediatype>audio</mediatype>
						<trackindex>4</trackindex>
						<clipindex>19</clipindex>
					</link>
				</clipitem>
				<transitionitem id="1049226196 ">
					<rate>
						<ntsc>FALSE</ntsc>
						<timebase>25</timebase>
					</rate>
					<start>18668</start>
					<end>18670</end>
					<alignment>center</alignment>
					<effect>
						<name>Cross Fade ( 0dB)</name>
						<effecttype>transition</effecttype>
						<mediatype>audio</mediatype>
					</effect>
				</transitionitem>
				<clipitem id="msub200012-hjelp01007.MXF2">
					<name>msub200012-hjelp01007.MXF</name>
					<duration>3660</duration>
					<rate>
						<ntsc>FALSE</ntsc>
						<timebase>25</timebase>
					</rate>
					<in>3523</in>
					<out>3584</out>
					<start>-1</start>
					<end>-1</end>
					<subframeoffset>0</subframeoffset>
					<enabled>TRUE</enabled>
					<masterclipid>msub200012-hjelp01007.MXF1</masterclipid>
					<logginginfo>
						<scene/>
						<shottake/>
						<lognote/>
						<good>FALSE</good>
					</logginginfo>
					<labels>
						<label2/>
					</labels>
					<comments>
						<mastercomment1/>
						<mastercomment2/>
						<mastercomment3/>
						<mastercomment4/>
					</comments>
					<file id="msub200012-hjelp01007 "/>
					<filter>
						<start>-1</start>
						<end>-1</end>
						<effect>
							<name>3 Band Equalizer - Kristine</name>
							<effecttype>filter</effecttype>
							<mediatype>audio</mediatype>
							<parameter>
								<parameterid>Low Frequency</parameterid>
								<name>Low Frequency</name>
								<valuemin>80</valuemin>
								<valuemax>2000</valuemax>
								<value>80</value>
							</parameter>
							<parameter>
								<parameterid>Low Gain(dB)</parameterid>
								<name>Low Gain(dB)</name>
								<valuemin>-20</valuemin>
								<valuemax>20</valuemax>
								<value>-4</value>
							</parameter>
							<parameter>
								<parameterid>Mid Frequency</parameterid>
								<name>Mid Frequency</name>
								<valuemin>400</valuemin>
								<valuemax>8000</valuemax>
								<value>3602</value>
							</parameter>
							<parameter>
								<parameterid>Mid Gain(dB)</parameterid>
								<name>Mid Gain(dB)</name>
								<valuemin>-20</valuemin>
								<valuemax>20</valuemax>
								<value>3</value>
							</parameter>
							<parameter>
								<parameterid>High Frequency</parameterid>
								<name>High Frequency</name>
								<valuemin>5000</valuemin>
								<valuemax>20000</valuemax>
								<value>10354</value>
							</parameter>
							<parameter>
								<parameterid>High Gain(dB)</parameterid>
								<name>High Gain(dB)</name>
								<valuemin>-20</valuemin>
								<valuemax>20</valuemax>
								<value>0</value>
							</parameter>
						</effect>
					</filter>
					<filter>
						<effect>
							<name>Audio Levels</name>
							<effectid>audiolevels</effectid>
							<effectcategory>audiolevels</effectcategory>
							<effecttype>audiolevels</effecttype>
							<mediatype>audio</mediatype>
							<parameter>
								<name>Level</name>
								<parameterid>level</parameterid>
								<valuemin>0</valuemin>
								<valuemax>3.98109</valuemax>
								<keyframe>
									<when>3550.86</when>
									<value>0.562341</value>
								</keyframe>
								<keyframe>
									<when>3558.86</when>
									<value>0.707946</value>
								</keyframe>
								<interpolation>
									<name>FCPCurve</name>
								</interpolation>
								<value>0.562341</value>
							</parameter>
						</effect>
					</filter>
					<filter>
						<effect>
							<name>Audio Pan</name>
							<effectid>audiopan</effectid>
							<effectcategory>audiopan</effectcategory>
							<effecttype>audiopan</effecttype>
							<mediatype>audio</mediatype>
							<parameter>
								<name>Pan</name>
								<parameterid>pan</parameterid>
								<valuemin>-1</valuemin>
								<valuemax>1</valuemax>
								<value>0</value>
							</parameter>
						</effect>
					</filter>
					<sourcetrack>
						<mediatype>audio</mediatype>
						<trackindex>2</trackindex>
					</sourcetrack>
					<link>
						<linkclipref>msub200012-hjelp01007.MXF</linkclipref>
						<mediatype>video</mediatype>
						<trackindex>2</trackindex>
						<clipindex>17</clipindex>
					</link>
					<link>
						<linkclipref>msub200012-hjelp01007.MXF2</linkclipref>
						<mediatype>audio</mediatype>
						<trackindex>4</trackindex>
						<clipindex>21</clipindex>
					</link>
				</clipitem>
				<transitionitem id="1049228304 ">
					<rate>
						<ntsc>FALSE</ntsc>
						<timebase>25</timebase>
					</rate>
					<start>18727</start>
					<end>18729</end>
					<alignment>center</alignment>
					<effect>
						<name>Cross Fade ( 0dB)</name>
						<effecttype>transition</effecttype>
						<mediatype>audio</mediatype>
					</effect>
				</transitionitem>
				<clipitem id="msub200012-hjelp02012.MXF2">
					<name>msub200012-hjelp02012.MXF</name>
					<duration>7404</duration>
					<rate>
						<ntsc>FALSE</ntsc>
						<timebase>25</timebase>
					</rate>
					<in>328</in>
					<out>350</out>
					<start>-1</start>
					<end>-1</end>
					<subframeoffset>0</subframeoffset>
					<masterclipid>msub200012-hjelp02012.MXF1</masterclipid>
					<logginginfo>
						<scene/>
						<shottake/>
						<lognote/>
						<good>FALSE</good>
					</logginginfo>
					<labels>
						<label2/>
					</labels>
					<comments>
						<mastercomment1/>
						<mastercomment2/>
						<mastercomment3/>
						<mastercomment4/>
					</comments>
					<file id="msub200012-hjelp02012 "/>
					<filter>
						<start>-1</start>
						<end>-1</end>
						<effect>
							<name>3 Band Equalizer - Kristine</name>
							<effecttype>filter</effecttype>
							<mediatype>audio</mediatype>
							<parameter>
								<parameterid>Low Frequency</parameterid>
								<name>Low Frequency</name>
								<valuemin>80</valuemin>
								<valuemax>2000</valuemax>
								<value>80</value>
							</parameter>
							<parameter>
								<parameterid>Low Gain(dB)</parameterid>
								<name>Low Gain(dB)</name>
								<valuemin>-20</valuemin>
								<valuemax>20</valuemax>
								<value>-4</value>
							</parameter>
							<parameter>
								<parameterid>Mid Frequency</parameterid>
								<name>Mid Frequency</name>
								<valuemin>400</valuemin>
								<valuemax>8000</valuemax>
								<value>3602</value>
							</parameter>
							<parameter>
								<parameterid>Mid Gain(dB)</parameterid>
								<name>Mid Gain(dB)</name>
								<valuemin>-20</valuemin>
								<valuemax>20</valuemax>
								<value>3</value>
							</parameter>
							<parameter>
								<parameterid>High Frequency</parameterid>
								<name>High Frequency</name>
								<valuemin>5000</valuemin>
								<valuemax>20000</valuemax>
								<value>10354</value>
							</parameter>
							<parameter>
								<parameterid>High Gain(dB)</parameterid>
								<name>High Gain(dB)</name>
								<valuemin>-20</valuemin>
								<valuemax>20</valuemax>
								<value>0</value>
							</parameter>
						</effect>
					</filter>
					<filter>
						<effect>
							<name>Audio Levels</name>
							<effectid>audiolevels</effectid>
							<effectcategory>audiolevels</effectcategory>
							<effecttype>audiolevels</effecttype>
							<mediatype>audio</mediatype>
							<parameter>
								<name>Level</name>
								<parameterid>level</parameterid>
								<valuemin>0</valuemin>
								<valuemax>3.98109</valuemax>
								<keyframe>
									<when>335.143</when>
									<value>0.707946</value>
								</keyframe>
								<keyframe>
									<when>339.143</when>
									<value>0.141254</value>
								</keyframe>
								<interpolation>
									<name>FCPCurve</name>
								</interpolation>
								<value>0.707946</value>
							</parameter>
						</effect>
					</filter>
					<filter>
						<effect>
							<name>Audio Pan</name>
							<effectid>audiopan</effectid>
							<effectcategory>audiopan</effectcategory>
							<effecttype>audiopan</effecttype>
							<mediatype>audio</mediatype>
							<parameter>
								<name>Pan</name>
								<parameterid>pan</parameterid>
								<valuemin>-1</valuemin>
								<valuemax>1</valuemax>
								<value>0</value>
							</parameter>
						</effect>
					</filter>
					<sourcetrack>
						<mediatype>audio</mediatype>
						<trackindex>2</trackindex>
					</sourcetrack>
					<link>
						<linkclipref>msub200012-hjelp02012.MXF</linkclipref>
						<mediatype>video</mediatype>
						<trackindex>2</trackindex>
						<clipindex>18</clipindex>
					</link>
					<link>
						<linkclipref>msub200012-hjelp02012.MXF2</linkclipref>
						<mediatype>audio</mediatype>
						<trackindex>4</trackindex>
						<clipindex>23</clipindex>
					</link>
				</clipitem>
				<transitionitem id="1049230412 ">
					<rate>
						<ntsc>FALSE</ntsc>
						<timebase>25</timebase>
					</rate>
					<start>18747</start>
					<end>18749</end>
					<alignment>center</alignment>
					<effect>
						<name>Cross Fade ( 0dB)</name>
						<effecttype>transition</effecttype>
						<mediatype>audio</mediatype>
					</effect>
				</transitionitem>
				<clipitem id="msub200012-hjelp01022.MXF2">
					<name>msub200012-hjelp01022.MXF</name>
					<duration>12300</duration>
					<rate>
						<ntsc>FALSE</ntsc>
						<timebase>25</timebase>
					</rate>
					<in>1211</in>
					<out>1233</out>
					<start>-1</start>
					<end>-1</end>
					<subframeoffset>0</subframeoffset>
					<masterclipid>msub200012-hjelp01022.MXF1</masterclipid>
					<logginginfo>
						<scene/>
						<shottake/>
						<lognote/>
						<good>FALSE</good>
					</logginginfo>
					<labels>
						<label2/>
					</labels>
					<comments>
						<mastercomment1/>
						<mastercomment2/>
						<mastercomment3/>
						<mastercomment4/>
					</comments>
					<file id="msub200012-hjelp01022 "/>
					<filter>
						<start>-1</start>
						<end>-1</end>
						<effect>
							<name>3 Band Equalizer - Kristine</name>
							<effecttype>filter</effecttype>
							<mediatype>audio</mediatype>
							<parameter>
								<parameterid>Low Frequency</parameterid>
								<name>Low Frequency</name>
								<valuemin>80</valuemin>
								<valuemax>2000</valuemax>
								<value>80</value>
							</parameter>
							<parameter>
								<parameterid>Low Gain(dB)</parameterid>
								<name>Low Gain(dB)</name>
								<valuemin>-20</valuemin>
								<valuemax>20</valuemax>
								<value>-4</value>
							</parameter>
							<parameter>
								<parameterid>Mid Frequency</parameterid>
								<name>Mid Frequency</name>
								<valuemin>400</valuemin>
								<valuemax>8000</valuemax>
								<value>3602</value>
							</parameter>
							<parameter>
								<parameterid>Mid Gain(dB)</parameterid>
								<name>Mid Gain(dB)</name>
								<valuemin>-20</valuemin>
								<valuemax>20</valuemax>
								<value>3</value>
							</parameter>
							<parameter>
								<parameterid>High Frequency</parameterid>
								<name>High Frequency</name>
								<valuemin>5000</valuemin>
								<valuemax>20000</valuemax>
								<value>10354</value>
							</parameter>
							<parameter>
								<parameterid>High Gain(dB)</parameterid>
								<name>High Gain(dB)</name>
								<valuemin>-20</valuemin>
								<valuemax>20</valuemax>
								<value>0</value>
							</parameter>
						</effect>
					</filter>
					<filter>
						<effect>
							<name>Audio Levels</name>
							<effectid>audiolevels</effectid>
							<effectcategory>audiolevels</effectcategory>
							<effecttype>audiolevels</effecttype>
							<mediatype>audio</mediatype>
							<parameter>
								<name>Level</name>
								<parameterid>level</parameterid>
								<valuemin>0</valuemin>
								<valuemax>3.98109</valuemax>
								<value>0.630957</value>
							</parameter>
						</effect>
					</filter>
					<filter>
						<effect>
							<name>Audio Pan</name>
							<effectid>audiopan</effectid>
							<effectcategory>audiopan</effectcategory>
							<effecttype>audiopan</effecttype>
							<mediatype>audio</mediatype>
							<parameter>
								<name>Pan</name>
								<parameterid>pan</parameterid>
								<valuemin>-1</valuemin>
								<valuemax>1</valuemax>
								<value>0</value>
							</parameter>
						</effect>
					</filter>
					<sourcetrack>
						<mediatype>audio</mediatype>
						<trackindex>2</trackindex>
					</sourcetrack>
					<link>
						<linkclipref>msub200012-hjelp01022.MXF</linkclipref>
						<mediatype>video</mediatype>
						<trackindex>2</trackindex>
						<clipindex>19</clipindex>
					</link>
					<link>
						<linkclipref>msub200012-hjelp01022.MXF2</linkclipref>
						<mediatype>audio</mediatype>
						<trackindex>4</trackindex>
						<clipindex>25</clipindex>
					</link>
				</clipitem>
				<transitionitem id="1049232384 ">
					<rate>
						<ntsc>FALSE</ntsc>
						<timebase>25</timebase>
					</rate>
					<start>18767</start>
					<end>18769</end>
					<alignment>center</alignment>
					<effect>
						<name>Cross Fade ( 0dB)</name>
						<effecttype>transition</effecttype>
						<mediatype>audio</mediatype>
					</effect>
				</transitionitem>
				<clipitem id="msub200012-hjelp01023.MXF2">
					<name>msub200012-hjelp01023.MXF</name>
					<duration>2580</duration>
					<rate>
						<ntsc>FALSE</ntsc>
						<timebase>25</timebase>
					</rate>
					<in>671</in>
					<out>943</out>
					<start>-1</start>
					<end>-1</end>
					<subframeoffset>0</subframeoffset>
					<masterclipid>msub200012-hjelp01023.MXF1</masterclipid>
					<logginginfo>
						<scene/>
						<shottake/>
						<lognote/>
						<good>FALSE</good>
					</logginginfo>
					<labels>
						<label2/>
					</labels>
					<comments>
						<mastercomment1/>
						<mastercomment2/>
						<mastercomment3/>
						<mastercomment4/>
					</comments>
					<file id="msub200012-hjelp01023 "/>
					<filter>
						<start>-1</start>
						<end>-1</end>
						<effect>
							<name>3 Band Equalizer - Kristine</name>
							<effecttype>filter</effecttype>
							<mediatype>audio</mediatype>
							<parameter>
								<parameterid>Low Frequency</parameterid>
								<name>Low Frequency</name>
								<valuemin>80</valuemin>
								<valuemax>2000</valuemax>
								<value>80</value>
							</parameter>
							<parameter>
								<parameterid>Low Gain(dB)</parameterid>
								<name>Low Gain(dB)</name>
								<valuemin>-20</valuemin>
								<valuemax>20</valuemax>
								<value>-4</value>
							</parameter>
							<parameter>
								<parameterid>Mid Frequency</parameterid>
								<name>Mid Frequency</name>
								<valuemin>400</valuemin>
								<valuemax>8000</valuemax>
								<value>3602</value>
							</parameter>
							<parameter>
								<parameterid>Mid Gain(dB)</parameterid>
								<name>Mid Gain(dB)</name>
								<valuemin>-20</valuemin>
								<valuemax>20</valuemax>
								<value>3</value>
							</parameter>
							<parameter>
								<parameterid>High Frequency</parameterid>
								<name>High Frequency</name>
								<valuemin>5000</valuemin>
								<valuemax>20000</valuemax>
								<value>10354</value>
							</parameter>
							<parameter>
								<parameterid>High Gain(dB)</parameterid>
								<name>High Gain(dB)</name>
								<valuemin>-20</valuemin>
								<valuemax>20</valuemax>
								<value>0</value>
							</parameter>
						</effect>
					</filter>
					<filter>
						<effect>
							<name>Audio Levels</name>
							<effectid>audiolevels</effectid>
							<effectcategory>audiolevels</effectcategory>
							<effecttype>audiolevels</effecttype>
							<mediatype>audio</mediatype>
							<parameter>
								<name>Level</name>
								<parameterid>level</parameterid>
								<valuemin>0</valuemin>
								<valuemax>3.98109</valuemax>
								<keyframe>
									<when>754.714</when>
									<value>0.562341</value>
								</keyframe>
								<keyframe>
									<when>765.571</when>
									<value>0.707946</value>
								</keyframe>
								<interpolation>
									<name>FCPCurve</name>
								</interpolation>
								<value>0.562341</value>
							</parameter>
						</effect>
					</filter>
					<filter>
						<effect>
							<name>Audio Pan</name>
							<effectid>audiopan</effectid>
							<effectcategory>audiopan</effectcategory>
							<effecttype>audiopan</effecttype>
							<mediatype>audio</mediatype>
							<parameter>
								<name>Pan</name>
								<parameterid>pan</parameterid>
								<valuemin>-1</valuemin>
								<valuemax>1</valuemax>
								<value>0</value>
							</parameter>
						</effect>
					</filter>
					<sourcetrack>
						<mediatype>audio</mediatype>
						<trackindex>2</trackindex>
					</sourcetrack>
					<link>
						<linkclipref>msub200012-hjelp01023.MXF</linkclipref>
						<mediatype>video</mediatype>
						<trackindex>2</trackindex>
						<clipindex>20</clipindex>
					</link>
					<link>
						<linkclipref>msub200012-hjelp01023.MXF2</linkclipref>
						<mediatype>audio</mediatype>
						<trackindex>4</trackindex>
						<clipindex>27</clipindex>
					</link>
				</clipitem>
				<transitionitem id="1049234492 ">
					<rate>
						<ntsc>FALSE</ntsc>
						<timebase>25</timebase>
					</rate>
					<start>19037</start>
					<end>19039</end>
					<alignment>end</alignment>
					<effect>
						<name>Cross Fade ( 0dB)</name>
						<effecttype>transition</effecttype>
						<mediatype>audio</mediatype>
					</effect>
				</transitionitem>
				<clipitem id="msub200012-hjelp02008.MXF4">
					<name>msub200012-hjelp02008.MXF</name>
					<duration>6396</duration>
					<rate>
						<ntsc>FALSE</ntsc>
						<timebase>25</timebase>
					</rate>
					<in>756</in>
					<out>902</out>
					<start>-1</start>
					<end>-1</end>
					<subframeoffset>0</subframeoffset>
					<enabled>TRUE</enabled>
					<masterclipid>msub200012-hjelp02008.MXF1</masterclipid>
					<logginginfo>
						<scene/>
						<shottake/>
						<lognote/>
						<good>FALSE</good>
					</logginginfo>
					<labels>
						<label2/>
					</labels>
					<comments>
						<mastercomment1/>
						<mastercomment2/>
						<mastercomment3/>
						<mastercomment4/>
					</comments>
					<file id="msub200012-hjelp02008 "/>
					<filter>
						<start>-1</start>
						<end>-1</end>
						<effect>
							<name>3 Band Equalizer - Kristine</name>
							<effecttype>filter</effecttype>
							<mediatype>audio</mediatype>
							<parameter>
								<parameterid>Low Frequency</parameterid>
								<name>Low Frequency</name>
								<valuemin>80</valuemin>
								<valuemax>2000</valuemax>
								<value>80</value>
							</parameter>
							<parameter>
								<parameterid>Low Gain(dB)</parameterid>
								<name>Low Gain(dB)</name>
								<valuemin>-20</valuemin>
								<valuemax>20</valuemax>
								<value>-4</value>
							</parameter>
							<parameter>
								<parameterid>Mid Frequency</parameterid>
								<name>Mid Frequency</name>
								<valuemin>400</valuemin>
								<valuemax>8000</valuemax>
								<value>3602</value>
							</parameter>
							<parameter>
								<parameterid>Mid Gain(dB)</parameterid>
								<name>Mid Gain(dB)</name>
								<valuemin>-20</valuemin>
								<valuemax>20</valuemax>
								<value>3</value>
							</parameter>
							<parameter>
								<parameterid>High Frequency</parameterid>
								<name>High Frequency</name>
								<valuemin>5000</valuemin>
								<valuemax>20000</valuemax>
								<value>10354</value>
							</parameter>
							<parameter>
								<parameterid>High Gain(dB)</parameterid>
								<name>High Gain(dB)</name>
								<valuemin>-20</valuemin>
								<valuemax>20</valuemax>
								<value>0</value>
							</parameter>
						</effect>
					</filter>
					<filter>
						<effect>
							<name>Audio Levels</name>
							<effectid>audiolevels</effectid>
							<effectcategory>audiolevels</effectcategory>
							<effecttype>audiolevels</effecttype>
							<mediatype>audio</mediatype>
							<parameter>
								<name>Level</name>
								<parameterid>level</parameterid>
								<valuemin>0</valuemin>
								<valuemax>3.98109</valuemax>
								<keyframe>
									<when>762.286</when>
									<value>0.141254</value>
								</keyframe>
								<keyframe>
									<when>770.857</when>
									<value>0.562341</value>
								</keyframe>
								<keyframe>
									<when>806.857</when>
									<value>0.562341</value>
								</keyframe>
								<keyframe>
									<when>811.429</when>
									<value>0.707946</value>
								</keyframe>
								<interpolation>
									<name>FCPCurve</name>
								</interpolation>
								<value>0.562341</value>
							</parameter>
						</effect>
					</filter>
					<filter>
						<effect>
							<name>Audio Pan</name>
							<effectid>audiopan</effectid>
							<effectcategory>audiopan</effectcategory>
							<effecttype>audiopan</effecttype>
							<mediatype>audio</mediatype>
							<parameter>
								<name>Pan</name>
								<parameterid>pan</parameterid>
								<valuemin>-1</valuemin>
								<valuemax>1</valuemax>
								<value>0</value>
							</parameter>
						</effect>
					</filter>
					<sourcetrack>
						<mediatype>audio</mediatype>
						<trackindex>2</trackindex>
					</sourcetrack>
					<link>
						<linkclipref>msub200012-hjelp02008.MXF3</linkclipref>
						<mediatype>video</mediatype>
						<trackindex>2</trackindex>
						<clipindex>21</clipindex>
					</link>
					<link>
						<linkclipref>msub200012-hjelp02008.MXF4</linkclipref>
						<mediatype>audio</mediatype>
						<trackindex>4</trackindex>
						<clipindex>29</clipindex>
					</link>
				</clipitem>
				<transitionitem id="1049309232 ">
					<rate>
						<ntsc>FALSE</ntsc>
						<timebase>25</timebase>
					</rate>
					<start>19179</start>
					<end>19183</end>
					<alignment>center</alignment>
					<effect>
						<name>Cross Fade ( 0dB)</name>
						<effecttype>transition</effecttype>
						<mediatype>audio</mediatype>
					</effect>
				</transitionitem>
				<clipitem id="msub200012-hjelp02012.MXF4">
					<name>msub200012-hjelp02012.MXF</name>
					<duration>7404</duration>
					<rate>
						<ntsc>FALSE</ntsc>
						<timebase>25</timebase>
					</rate>
					<in>423</in>
					<out>626</out>
					<start>-1</start>
					<end>-1</end>
					<subframeoffset>0</subframeoffset>
					<masterclipid>msub200012-hjelp02012.MXF1</masterclipid>
					<logginginfo>
						<scene/>
						<shottake/>
						<lognote/>
						<good>FALSE</good>
					</logginginfo>
					<labels>
						<label2/>
					</labels>
					<comments>
						<mastercomment1/>
						<mastercomment2/>
						<mastercomment3/>
						<mastercomment4/>
					</comments>
					<file id="msub200012-hjelp02012 "/>
					<filter>
						<start>-1</start>
						<end>-1</end>
						<effect>
							<name>3 Band Equalizer - Kristine</name>
							<effecttype>filter</effecttype>
							<mediatype>audio</mediatype>
							<parameter>
								<parameterid>Low Frequency</parameterid>
								<name>Low Frequency</name>
								<valuemin>80</valuemin>
								<valuemax>2000</valuemax>
								<value>80</value>
							</parameter>
							<parameter>
								<parameterid>Low Gain(dB)</parameterid>
								<name>Low Gain(dB)</name>
								<valuemin>-20</valuemin>
								<valuemax>20</valuemax>
								<value>-4</value>
							</parameter>
							<parameter>
								<parameterid>Mid Frequency</parameterid>
								<name>Mid Frequency</name>
								<valuemin>400</valuemin>
								<valuemax>8000</valuemax>
								<value>3602</value>
							</parameter>
							<parameter>
								<parameterid>Mid Gain(dB)</parameterid>
								<name>Mid Gain(dB)</name>
								<valuemin>-20</valuemin>
								<valuemax>20</valuemax>
								<value>3</value>
							</parameter>
							<parameter>
								<parameterid>High Frequency</parameterid>
								<name>High Frequency</name>
								<valuemin>5000</valuemin>
								<valuemax>20000</valuemax>
								<value>10354</value>
							</parameter>
							<parameter>
								<parameterid>High Gain(dB)</parameterid>
								<name>High Gain(dB)</name>
								<valuemin>-20</valuemin>
								<valuemax>20</valuemax>
								<value>0</value>
							</parameter>
						</effect>
					</filter>
					<filter>
						<effect>
							<name>Audio Levels</name>
							<effectid>audiolevels</effectid>
							<effectcategory>audiolevels</effectcategory>
							<effecttype>audiolevels</effecttype>
							<mediatype>audio</mediatype>
							<parameter>
								<name>Level</name>
								<parameterid>level</parameterid>
								<valuemin>0</valuemin>
								<valuemax>3.98109</valuemax>
								<keyframe>
									<when>433.286</when>
									<value>0.707946</value>
								</keyframe>
								<keyframe>
									<when>620.143</when>
									<value>0.707946</value>
								</keyframe>
								<keyframe>
									<when>621.357</when>
									<value>0.0891251</value>
								</keyframe>
								<interpolation>
									<name>FCPCurve</name>
								</interpolation>
								<value>0.707946</value>
							</parameter>
						</effect>
					</filter>
					<filter>
						<effect>
							<name>Audio Pan</name>
							<effectid>audiopan</effectid>
							<effectcategory>audiopan</effectcategory>
							<effecttype>audiopan</effecttype>
							<mediatype>audio</mediatype>
							<parameter>
								<name>Pan</name>
								<parameterid>pan</parameterid>
								<valuemin>-1</valuemin>
								<valuemax>1</valuemax>
								<value>0</value>
							</parameter>
						</effect>
					</filter>
					<sourcetrack>
						<mediatype>audio</mediatype>
						<trackindex>2</trackindex>
					</sourcetrack>
					<link>
						<linkclipref>msub200012-hjelp02012.MXF3</linkclipref>
						<mediatype>video</mediatype>
						<trackindex>2</trackindex>
						<clipindex>22</clipindex>
					</link>
					<link>
						<linkclipref>msub200012-hjelp02012.MXF4</linkclipref>
						<mediatype>audio</mediatype>
						<trackindex>4</trackindex>
						<clipindex>31</clipindex>
					</link>
				</clipitem>
				<transitionitem id="1049311408 ">
					<rate>
						<ntsc>FALSE</ntsc>
						<timebase>25</timebase>
					</rate>
					<start>19380</start>
					<end>19382</end>
					<alignment>end</alignment>
					<effect>
						<name>Cross Fade ( 0dB)</name>
						<effecttype>transition</effecttype>
						<mediatype>audio</mediatype>
					</effect>
				</transitionitem>
				<clipitem id="msub200012-hjelp01007.MXF4">
					<name>msub200012-hjelp01007.MXF</name>
					<duration>3660</duration>
					<rate>
						<ntsc>FALSE</ntsc>
						<timebase>25</timebase>
					</rate>
					<in>853</in>
					<out>912</out>
					<start>-1</start>
					<end>-1</end>
					<subframeoffset>0</subframeoffset>
					<enabled>TRUE</enabled>
					<masterclipid>msub200012-hjelp01007.MXF1</masterclipid>
					<logginginfo>
						<scene/>
						<shottake/>
						<lognote/>
						<good>FALSE</good>
					</logginginfo>
					<labels>
						<label2/>
					</labels>
					<comments>
						<mastercomment1/>
						<mastercomment2/>
						<mastercomment3/>
						<mastercomment4/>
					</comments>
					<file id="msub200012-hjelp01007 "/>
					<filter>
						<start>-1</start>
						<end>-1</end>
						<effect>
							<name>3 Band Equalizer - Kristine</name>
							<effecttype>filter</effecttype>
							<mediatype>audio</mediatype>
							<parameter>
								<parameterid>Low Frequency</parameterid>
								<name>Low Frequency</name>
								<valuemin>80</valuemin>
								<valuemax>2000</valuemax>
								<value>80</value>
							</parameter>
							<parameter>
								<parameterid>Low Gain(dB)</parameterid>
								<name>Low Gain(dB)</name>
								<valuemin>-20</valuemin>
								<valuemax>20</valuemax>
								<value>-4</value>
							</parameter>
							<parameter>
								<parameterid>Mid Frequency</parameterid>
								<name>Mid Frequency</name>
								<valuemin>400</valuemin>
								<valuemax>8000</valuemax>
								<value>3602</value>
							</parameter>
							<parameter>
								<parameterid>Mid Gain(dB)</parameterid>
								<name>Mid Gain(dB)</name>
								<valuemin>-20</valuemin>
								<valuemax>20</valuemax>
								<value>3</value>
							</parameter>
							<parameter>
								<parameterid>High Frequency</parameterid>
								<name>High Frequency</name>
								<valuemin>5000</valuemin>
								<valuemax>20000</valuemax>
								<value>10354</value>
							</parameter>
							<parameter>
								<parameterid>High Gain(dB)</parameterid>
								<name>High Gain(dB)</name>
								<valuemin>-20</valuemin>
								<valuemax>20</valuemax>
								<value>0</value>
							</parameter>
						</effect>
					</filter>
					<filter>
						<effect>
							<name>Audio Levels</name>
							<effectid>audiolevels</effectid>
							<effectcategory>audiolevels</effectcategory>
							<effecttype>audiolevels</effecttype>
							<mediatype>audio</mediatype>
							<parameter>
								<name>Level</name>
								<parameterid>level</parameterid>
								<valuemin>0</valuemin>
								<valuemax>3.98109</valuemax>
								<value>0.891251</value>
							</parameter>
						</effect>
					</filter>
					<filter>
						<effect>
							<name>Audio Pan</name>
							<effectid>audiopan</effectid>
							<effectcategory>audiopan</effectcategory>
							<effecttype>audiopan</effecttype>
							<mediatype>audio</mediatype>
							<parameter>
								<name>Pan</name>
								<parameterid>pan</parameterid>
								<valuemin>-1</valuemin>
								<valuemax>1</valuemax>
								<value>0</value>
							</parameter>
						</effect>
					</filter>
					<sourcetrack>
						<mediatype>audio</mediatype>
						<trackindex>2</trackindex>
					</sourcetrack>
					<link>
						<linkclipref>msub200012-hjelp01007.MXF3</linkclipref>
						<mediatype>video</mediatype>
						<trackindex>2</trackindex>
						<clipindex>23</clipindex>
					</link>
					<link>
						<linkclipref>msub200012-hjelp01007.MXF4</linkclipref>
						<mediatype>audio</mediatype>
						<trackindex>4</trackindex>
						<clipindex>33</clipindex>
					</link>
				</clipitem>
				<transitionitem id="1049313380 ">
					<rate>
						<ntsc>FALSE</ntsc>
						<timebase>25</timebase>
					</rate>
					<start>19437</start>
					<end>19439</end>
					<alignment>center</alignment>
					<effect>
						<name>Cross Fade ( 0dB)</name>
						<effecttype>transition</effecttype>
						<mediatype>audio</mediatype>
					</effect>
				</transitionitem>
				<clipitem id="msub200012-hjelp02001.MXF2">
					<name>msub200012-hjelp02001.MXF</name>
					<duration>2592</duration>
					<rate>
						<ntsc>FALSE</ntsc>
						<timebase>25</timebase>
					</rate>
					<in>349</in>
					<out>563</out>
					<start>-1</start>
					<end>-1</end>
					<subframeoffset>0</subframeoffset>
					<masterclipid>msub200012-hjelp02001.MXF1</masterclipid>
					<logginginfo>
						<scene/>
						<shottake/>
						<lognote/>
						<good>FALSE</good>
					</logginginfo>
					<labels>
						<label2/>
					</labels>
					<comments>
						<mastercomment1/>
						<mastercomment2/>
						<mastercomment3/>
						<mastercomment4/>
					</comments>
					<file id="msub200012-hjelp02001 "/>
					<filter>
						<start>-1</start>
						<end>-1</end>
						<effect>
							<name>3 Band Equalizer - Kristine</name>
							<effecttype>filter</effecttype>
							<mediatype>audio</mediatype>
							<parameter>
								<parameterid>Low Frequency</parameterid>
								<name>Low Frequency</name>
								<valuemin>80</valuemin>
								<valuemax>2000</valuemax>
								<value>80</value>
							</parameter>
							<parameter>
								<parameterid>Low Gain(dB)</parameterid>
								<name>Low Gain(dB)</name>
								<valuemin>-20</valuemin>
								<valuemax>20</valuemax>
								<value>-4</value>
							</parameter>
							<parameter>
								<parameterid>Mid Frequency</parameterid>
								<name>Mid Frequency</name>
								<valuemin>400</valuemin>
								<valuemax>8000</valuemax>
								<value>3602</value>
							</parameter>
							<parameter>
								<parameterid>Mid Gain(dB)</parameterid>
								<name>Mid Gain(dB)</name>
								<valuemin>-20</valuemin>
								<valuemax>20</valuemax>
								<value>3</value>
							</parameter>
							<parameter>
								<parameterid>High Frequency</parameterid>
								<name>High Frequency</name>
								<valuemin>5000</valuemin>
								<valuemax>20000</valuemax>
								<value>10354</value>
							</parameter>
							<parameter>
								<parameterid>High Gain(dB)</parameterid>
								<name>High Gain(dB)</name>
								<valuemin>-20</valuemin>
								<valuemax>20</valuemax>
								<value>0</value>
							</parameter>
						</effect>
					</filter>
					<filter>
						<effect>
							<name>Audio Levels</name>
							<effectid>audiolevels</effectid>
							<effectcategory>audiolevels</effectcategory>
							<effecttype>audiolevels</effecttype>
							<mediatype>audio</mediatype>
							<parameter>
								<name>Level</name>
								<parameterid>level</parameterid>
								<valuemin>0</valuemin>
								<valuemax>3.98109</valuemax>
								<keyframe>
									<when>416.429</when>
									<value>0.707946</value>
								</keyframe>
								<keyframe>
									<when>421</when>
									<value>0.630957</value>
								</keyframe>
								<keyframe>
									<when>445</when>
									<value>0.501187</value>
								</keyframe>
								<keyframe>
									<when>458.714</when>
									<value>0.707946</value>
								</keyframe>
								<interpolation>
									<name>FCPCurve</name>
								</interpolation>
								<value>0.562341</value>
							</parameter>
						</effect>
					</filter>
					<filter>
						<effect>
							<name>Audio Pan</name>
							<effectid>audiopan</effectid>
							<effectcategory>audiopan</effectcategory>
							<effecttype>audiopan</effecttype>
							<mediatype>audio</mediatype>
							<parameter>
								<name>Pan</name>
								<parameterid>pan</parameterid>
								<valuemin>-1</valuemin>
								<valuemax>1</valuemax>
								<value>0</value>
							</parameter>
						</effect>
					</filter>
					<sourcetrack>
						<mediatype>audio</mediatype>
						<trackindex>2</trackindex>
					</sourcetrack>
					<link>
						<linkclipref>msub200012-hjelp02001.MXF</linkclipref>
						<mediatype>video</mediatype>
						<trackindex>2</trackindex>
						<clipindex>24</clipindex>
					</link>
					<link>
						<linkclipref>msub200012-hjelp02001.MXF2</linkclipref>
						<mediatype>audio</mediatype>
						<trackindex>4</trackindex>
						<clipindex>35</clipindex>
					</link>
				</clipitem>
				<transitionitem id="1049315624 ">
					<rate>
						<ntsc>FALSE</ntsc>
						<timebase>25</timebase>
					</rate>
					<start>19649</start>
					<end>19651</end>
					<alignment>center</alignment>
					<effect>
						<name>Cross Fade ( 0dB)</name>
						<effecttype>transition</effecttype>
						<mediatype>audio</mediatype>
					</effect>
				</transitionitem>
				<clipitem id="msub200012-hjelp02016.MXF2">
					<name>msub200012-hjelp02016.MXF</name>
					<duration>4080</duration>
					<rate>
						<ntsc>FALSE</ntsc>
						<timebase>25</timebase>
					</rate>
					<in>3150</in>
					<out>3227</out>
					<start>-1</start>
					<end>-1</end>
					<subframeoffset>0</subframeoffset>
					<masterclipid>msub200012-hjelp02016.MXF1</masterclipid>
					<logginginfo>
						<scene/>
						<shottake/>
						<lognote/>
						<good>FALSE</good>
					</logginginfo>
					<labels>
						<label2/>
					</labels>
					<comments>
						<mastercomment1/>
						<mastercomment2/>
						<mastercomment3/>
						<mastercomment4/>
					</comments>
					<file id="msub200012-hjelp02016 "/>
					<filter>
						<start>-1</start>
						<end>-1</end>
						<effect>
							<name>3 Band Equalizer - Kristine</name>
							<effecttype>filter</effecttype>
							<mediatype>audio</mediatype>
							<parameter>
								<parameterid>Low Frequency</parameterid>
								<name>Low Frequency</name>
								<valuemin>80</valuemin>
								<valuemax>2000</valuemax>
								<value>80</value>
							</parameter>
							<parameter>
								<parameterid>Low Gain(dB)</parameterid>
								<name>Low Gain(dB)</name>
								<valuemin>-20</valuemin>
								<valuemax>20</valuemax>
								<value>-4</value>
							</parameter>
							<parameter>
								<parameterid>Mid Frequency</parameterid>
								<name>Mid Frequency</name>
								<valuemin>400</valuemin>
								<valuemax>8000</valuemax>
								<value>3602</value>
							</parameter>
							<parameter>
								<parameterid>Mid Gain(dB)</parameterid>
								<name>Mid Gain(dB)</name>
								<valuemin>-20</valuemin>
								<valuemax>20</valuemax>
								<value>3</value>
							</parameter>
							<parameter>
								<parameterid>High Frequency</parameterid>
								<name>High Frequency</name>
								<valuemin>5000</valuemin>
								<valuemax>20000</valuemax>
								<value>10354</value>
							</parameter>
							<parameter>
								<parameterid>High Gain(dB)</parameterid>
								<name>High Gain(dB)</name>
								<valuemin>-20</valuemin>
								<valuemax>20</valuemax>
								<value>0</value>
							</parameter>
						</effect>
					</filter>
					<filter>
						<effect>
							<name>Audio Levels</name>
							<effectid>audiolevels</effectid>
							<effectcategory>audiolevels</effectcategory>
							<effecttype>audiolevels</effecttype>
							<mediatype>audio</mediatype>
							<parameter>
								<name>Level</name>
								<parameterid>level</parameterid>
								<valuemin>0</valuemin>
								<valuemax>3.98109</valuemax>
								<value>0.562341</value>
							</parameter>
						</effect>
					</filter>
					<filter>
						<effect>
							<name>Audio Pan</name>
							<effectid>audiopan</effectid>
							<effectcategory>audiopan</effectcategory>
							<effecttype>audiopan</effecttype>
							<mediatype>audio</mediatype>
							<parameter>
								<name>Pan</name>
								<parameterid>pan</parameterid>
								<valuemin>-1</valuemin>
								<valuemax>1</valuemax>
								<value>0</value>
							</parameter>
						</effect>
					</filter>
					<sourcetrack>
						<mediatype>audio</mediatype>
						<trackindex>2</trackindex>
					</sourcetrack>
					<link>
						<linkclipref>msub200012-hjelp02016.MXF</linkclipref>
						<mediatype>video</mediatype>
						<trackindex>2</trackindex>
						<clipindex>25</clipindex>
					</link>
					<link>
						<linkclipref>msub200012-hjelp02016.MXF2</linkclipref>
						<mediatype>audio</mediatype>
						<trackindex>4</trackindex>
						<clipindex>37</clipindex>
					</link>
				</clipitem>
				<transitionitem id="1049317596 ">
					<rate>
						<ntsc>FALSE</ntsc>
						<timebase>25</timebase>
					</rate>
					<start>19722</start>
					<end>19726</end>
					<alignment>start</alignment>
					<effect>
						<name>Cross Fade ( 0dB)</name>
						<effecttype>transition</effecttype>
						<mediatype>audio</mediatype>
					</effect>
				</transitionitem>
				<clipitem id="msub200012-hjelp02012.MXF6">
					<name>msub200012-hjelp02012.MXF</name>
					<duration>7404</duration>
					<rate>
						<ntsc>FALSE</ntsc>
						<timebase>25</timebase>
					</rate>
					<in>717</in>
					<out>950</out>
					<start>-1</start>
					<end>-1</end>
					<subframeoffset>0</subframeoffset>
					<enabled>TRUE</enabled>
					<masterclipid>msub200012-hjelp02012.MXF1</masterclipid>
					<logginginfo>
						<scene/>
						<shottake/>
						<lognote/>
						<good>FALSE</good>
					</logginginfo>
					<labels>
						<label2/>
					</labels>
					<comments>
						<mastercomment1/>
						<mastercomment2/>
						<mastercomment3/>
						<mastercomment4/>
					</comments>
					<file id="msub200012-hjelp02012 "/>
					<filter>
						<start>-1</start>
						<end>-1</end>
						<effect>
							<name>3 Band Equalizer - Kristine</name>
							<effecttype>filter</effecttype>
							<mediatype>audio</mediatype>
							<parameter>
								<parameterid>Low Frequency</parameterid>
								<name>Low Frequency</name>
								<valuemin>80</valuemin>
								<valuemax>2000</valuemax>
								<value>80</value>
							</parameter>
							<parameter>
								<parameterid>Low Gain(dB)</parameterid>
								<name>Low Gain(dB)</name>
								<valuemin>-20</valuemin>
								<valuemax>20</valuemax>
								<value>-4</value>
							</parameter>
							<parameter>
								<parameterid>Mid Frequency</parameterid>
								<name>Mid Frequency</name>
								<valuemin>400</valuemin>
								<valuemax>8000</valuemax>
								<value>3602</value>
							</parameter>
							<parameter>
								<parameterid>Mid Gain(dB)</parameterid>
								<name>Mid Gain(dB)</name>
								<valuemin>-20</valuemin>
								<valuemax>20</valuemax>
								<value>3</value>
							</parameter>
							<parameter>
								<parameterid>High Frequency</parameterid>
								<name>High Frequency</name>
								<valuemin>5000</valuemin>
								<valuemax>20000</valuemax>
								<value>10354</value>
							</parameter>
							<parameter>
								<parameterid>High Gain(dB)</parameterid>
								<name>High Gain(dB)</name>
								<valuemin>-20</valuemin>
								<valuemax>20</valuemax>
								<value>0</value>
							</parameter>
						</effect>
					</filter>
					<filter>
						<effect>
							<name>Audio Levels</name>
							<effectid>audiolevels</effectid>
							<effectcategory>audiolevels</effectcategory>
							<effecttype>audiolevels</effecttype>
							<mediatype>audio</mediatype>
							<parameter>
								<name>Level</name>
								<parameterid>level</parameterid>
								<valuemin>0</valuemin>
								<valuemax>3.98109</valuemax>
								<keyframe>
									<when>810.857</when>
									<value>0.562341</value>
								</keyframe>
								<keyframe>
									<when>814.857</when>
									<value>0.707946</value>
								</keyframe>
								<interpolation>
									<name>FCPCurve</name>
								</interpolation>
								<value>0.562341</value>
							</parameter>
						</effect>
					</filter>
					<filter>
						<effect>
							<name>Audio Pan</name>
							<effectid>audiopan</effectid>
							<effectcategory>audiopan</effectcategory>
							<effecttype>audiopan</effecttype>
							<mediatype>audio</mediatype>
							<parameter>
								<name>Pan</name>
								<parameterid>pan</parameterid>
								<valuemin>-1</valuemin>
								<valuemax>1</valuemax>
								<value>0</value>
							</parameter>
						</effect>
					</filter>
					<sourcetrack>
						<mediatype>audio</mediatype>
						<trackindex>2</trackindex>
					</sourcetrack>
					<link>
						<linkclipref>msub200012-hjelp02012.MXF5</linkclipref>
						<mediatype>video</mediatype>
						<trackindex>2</trackindex>
						<clipindex>26</clipindex>
					</link>
					<link>
						<linkclipref>msub200012-hjelp02012.MXF6</linkclipref>
						<mediatype>audio</mediatype>
						<trackindex>4</trackindex>
						<clipindex>39</clipindex>
					</link>
				</clipitem>
				<transitionitem id="1049319704 ">
					<rate>
						<ntsc>FALSE</ntsc>
						<timebase>25</timebase>
					</rate>
					<start>19951</start>
					<end>19955</end>
					<alignment>center</alignment>
					<effect>
						<name>Cross Fade ( 0dB)</name>
						<effecttype>transition</effecttype>
						<mediatype>audio</mediatype>
					</effect>
				</transitionitem>
				<clipitem id="msub200012-hjelp01031.MXF2">
					<name>msub200012-hjelp01031.MXF</name>
					<duration>1872</duration>
					<rate>
						<ntsc>FALSE</ntsc>
						<timebase>25</timebase>
					</rate>
					<in>1416</in>
					<out>1525</out>
					<start>-1</start>
					<end>-1</end>
					<subframeoffset>0</subframeoffset>
					<enabled>TRUE</enabled>
					<masterclipid>msub200012-hjelp01031.MXF1</masterclipid>
					<logginginfo>
						<scene/>
						<shottake/>
						<lognote/>
						<good>FALSE</good>
					</logginginfo>
					<labels>
						<label2/>
					</labels>
					<comments>
						<mastercomment1/>
						<mastercomment2/>
						<mastercomment3/>
						<mastercomment4/>
					</comments>
					<file id="msub200012-hjelp01031 "/>
					<filter>
						<start>-1</start>
						<end>-1</end>
						<effect>
							<name>3 Band Equalizer - Kristine</name>
							<effecttype>filter</effecttype>
							<mediatype>audio</mediatype>
							<parameter>
								<parameterid>Low Frequency</parameterid>
								<name>Low Frequency</name>
								<valuemin>80</valuemin>
								<valuemax>2000</valuemax>
								<value>80</value>
							</parameter>
							<parameter>
								<parameterid>Low Gain(dB)</parameterid>
								<name>Low Gain(dB)</name>
								<valuemin>-20</valuemin>
								<valuemax>20</valuemax>
								<value>-4</value>
							</parameter>
							<parameter>
								<parameterid>Mid Frequency</parameterid>
								<name>Mid Frequency</name>
								<valuemin>400</valuemin>
								<valuemax>8000</valuemax>
								<value>3602</value>
							</parameter>
							<parameter>
								<parameterid>Mid Gain(dB)</parameterid>
								<name>Mid Gain(dB)</name>
								<valuemin>-20</valuemin>
								<valuemax>20</valuemax>
								<value>3</value>
							</parameter>
							<parameter>
								<parameterid>High Frequency</parameterid>
								<name>High Frequency</name>
								<valuemin>5000</valuemin>
								<valuemax>20000</valuemax>
								<value>10354</value>
							</parameter>
							<parameter>
								<parameterid>High Gain(dB)</parameterid>
								<name>High Gain(dB)</name>
								<valuemin>-20</valuemin>
								<valuemax>20</valuemax>
								<value>0</value>
							</parameter>
						</effect>
					</filter>
					<filter>
						<effect>
							<name>Audio Levels</name>
							<effectid>audiolevels</effectid>
							<effectcategory>audiolevels</effectcategory>
							<effecttype>audiolevels</effecttype>
							<mediatype>audio</mediatype>
							<parameter>
								<name>Level</name>
								<parameterid>level</parameterid>
								<valuemin>0</valuemin>
								<valuemax>3.98109</valuemax>
								<value>0.707946</value>
							</parameter>
						</effect>
					</filter>
					<filter>
						<effect>
							<name>Audio Pan</name>
							<effectid>audiopan</effectid>
							<effectcategory>audiopan</effectcategory>
							<effecttype>audiopan</effecttype>
							<mediatype>audio</mediatype>
							<parameter>
								<name>Pan</name>
								<parameterid>pan</parameterid>
								<valuemin>-1</valuemin>
								<valuemax>1</valuemax>
								<value>0</value>
							</parameter>
						</effect>
					</filter>
					<sourcetrack>
						<mediatype>audio</mediatype>
						<trackindex>2</trackindex>
					</sourcetrack>
					<link>
						<linkclipref>msub200012-hjelp01031.MXF</linkclipref>
						<mediatype>video</mediatype>
						<trackindex>2</trackindex>
						<clipindex>27</clipindex>
					</link>
					<link>
						<linkclipref>msub200012-hjelp01031.MXF2</linkclipref>
						<mediatype>audio</mediatype>
						<trackindex>4</trackindex>
						<clipindex>41</clipindex>
					</link>
				</clipitem>
				<transitionitem id="1049321676 ">
					<rate>
						<ntsc>FALSE</ntsc>
						<timebase>25</timebase>
					</rate>
					<start>20054</start>
					<end>20060</end>
					<alignment>center</alignment>
					<effect>
						<name>Cross Fade (+3dB) Copy</name>
						<effecttype>transition</effecttype>
						<mediatype>audio</mediatype>
					</effect>
				</transitionitem>
				<clipitem id="msub200012-hjelp02007.MXF2">
					<name>msub200012-hjelp02007.MXF</name>
					<duration>16680</duration>
					<rate>
						<ntsc>FALSE</ntsc>
						<timebase>25</timebase>
					</rate>
					<in>1911</in>
					<out>2257</out>
					<start>-1</start>
					<end>-1</end>
					<subframeoffset>0</subframeoffset>
					<enabled>TRUE</enabled>
					<masterclipid>msub200012-hjelp02007.MXF1</masterclipid>
					<logginginfo>
						<scene/>
						<shottake/>
						<lognote/>
						<good>FALSE</good>
					</logginginfo>
					<labels>
						<label2/>
					</labels>
					<comments>
						<mastercomment1/>
						<mastercomment2/>
						<mastercomment3/>
						<mastercomment4/>
					</comments>
					<file id="msub200012-hjelp02007 "/>
					<filter>
						<enabled>TRUE</enabled>
						<start>-1</start>
						<end>-1</end>
						<effect>
							<name>3 Band Equalizer - Kristine</name>
							<effecttype>filter</effecttype>
							<mediatype>audio</mediatype>
							<parameter>
								<parameterid>Low Frequency</parameterid>
								<name>Low Frequency</name>
								<valuemin>80</valuemin>
								<valuemax>2000</valuemax>
								<value>80</value>
							</parameter>
							<parameter>
								<parameterid>Low Gain(dB)</parameterid>
								<name>Low Gain(dB)</name>
								<valuemin>-20</valuemin>
								<valuemax>20</valuemax>
								<value>-4</value>
							</parameter>
							<parameter>
								<parameterid>Mid Frequency</parameterid>
								<name>Mid Frequency</name>
								<valuemin>400</valuemin>
								<valuemax>8000</valuemax>
								<value>3602</value>
							</parameter>
							<parameter>
								<parameterid>Mid Gain(dB)</parameterid>
								<name>Mid Gain(dB)</name>
								<valuemin>-20</valuemin>
								<valuemax>20</valuemax>
								<value>3</value>
							</parameter>
							<parameter>
								<parameterid>High Frequency</parameterid>
								<name>High Frequency</name>
								<valuemin>5000</valuemin>
								<valuemax>20000</valuemax>
								<value>10354</value>
							</parameter>
							<parameter>
								<parameterid>High Gain(dB)</parameterid>
								<name>High Gain(dB)</name>
								<valuemin>-20</valuemin>
								<valuemax>20</valuemax>
								<value>0</value>
							</parameter>
						</effect>
					</filter>
					<filter>
						<effect>
							<name>Audio Levels</name>
							<effectid>audiolevels</effectid>
							<effectcategory>audiolevels</effectcategory>
							<effecttype>audiolevels</effecttype>
							<mediatype>audio</mediatype>
							<parameter>
								<name>Level</name>
								<parameterid>level</parameterid>
								<valuemin>0</valuemin>
								<valuemax>3.98109</valuemax>
								<keyframe>
									<when>2166.29</when>
									<value>0.707946</value>
								</keyframe>
								<keyframe>
									<when>2168.86</when>
									<value>0.501187</value>
								</keyframe>
								<keyframe>
									<when>2224</when>
									<value>0.630957</value>
								</keyframe>
								<keyframe>
									<when>2228</when>
									<value>1</value>
								</keyframe>
								<interpolation>
									<name>FCPCurve</name>
								</interpolation>
								<value>1</value>
							</parameter>
						</effect>
					</filter>
					<filter>
						<effect>
							<name>Audio Pan</name>
							<effectid>audiopan</effectid>
							<effectcategory>audiopan</effectcategory>
							<effecttype>audiopan</effecttype>
							<mediatype>audio</mediatype>
							<parameter>
								<name>Pan</name>
								<parameterid>pan</parameterid>
								<valuemin>-1</valuemin>
								<valuemax>1</valuemax>
								<value>0</value>
							</parameter>
						</effect>
					</filter>
					<sourcetrack>
						<mediatype>audio</mediatype>
						<trackindex>2</trackindex>
					</sourcetrack>
					<link>
						<linkclipref>msub200012-hjelp02007.MXF</linkclipref>
						<mediatype>video</mediatype>
						<trackindex>2</trackindex>
						<clipindex>28</clipindex>
					</link>
					<link>
						<linkclipref>msub200012-hjelp02007.MXF2</linkclipref>
						<mediatype>audio</mediatype>
						<trackindex>4</trackindex>
						<clipindex>43</clipindex>
					</link>
				</clipitem>
				<transitionitem id="1049324056 ">
					<rate>
						<ntsc>FALSE</ntsc>
						<timebase>25</timebase>
					</rate>
					<start>20394</start>
					<end>20400</end>
					<alignment>center</alignment>
					<effect>
						<name>Cross Fade (+3dB) Copy</name>
						<effecttype>transition</effecttype>
						<mediatype>audio</mediatype>
					</effect>
				</transitionitem>
				<clipitem id="msub200012-hjelp01007.MXF6">
					<name>msub200012-hjelp01007.MXF</name>
					<duration>3660</duration>
					<rate>
						<ntsc>FALSE</ntsc>
						<timebase>25</timebase>
					</rate>
					<in>2503</in>
					<out>2991</out>
					<start>-1</start>
					<end>-1</end>
					<subframeoffset>0</subframeoffset>
					<enabled>TRUE</enabled>
					<masterclipid>msub200012-hjelp01007.MXF1</masterclipid>
					<logginginfo>
						<scene/>
						<shottake/>
						<lognote/>
						<good>FALSE</good>
					</logginginfo>
					<labels>
						<label2/>
					</labels>
					<comments>
						<mastercomment1/>
						<mastercomment2/>
						<mastercomment3/>
						<mastercomment4/>
					</comments>
					<file id="msub200012-hjelp01007 "/>
					<filter>
						<enabled>TRUE</enabled>
						<start>-1</start>
						<end>-1</end>
						<effect>
							<name>3 Band Equalizer - Kristine</name>
							<effecttype>filter</effecttype>
							<mediatype>audio</mediatype>
							<parameter>
								<parameterid>Low Frequency</parameterid>
								<name>Low Frequency</name>
								<valuemin>80</valuemin>
								<valuemax>2000</valuemax>
								<value>80</value>
							</parameter>
							<parameter>
								<parameterid>Low Gain(dB)</parameterid>
								<name>Low Gain(dB)</name>
								<valuemin>-20</valuemin>
								<valuemax>20</valuemax>
								<value>-4</value>
							</parameter>
							<parameter>
								<parameterid>Mid Frequency</parameterid>
								<name>Mid Frequency</name>
								<valuemin>400</valuemin>
								<valuemax>8000</valuemax>
								<value>3602</value>
							</parameter>
							<parameter>
								<parameterid>Mid Gain(dB)</parameterid>
								<name>Mid Gain(dB)</name>
								<valuemin>-20</valuemin>
								<valuemax>20</valuemax>
								<value>3</value>
							</parameter>
							<parameter>
								<parameterid>High Frequency</parameterid>
								<name>High Frequency</name>
								<valuemin>5000</valuemin>
								<valuemax>20000</valuemax>
								<value>10354</value>
							</parameter>
							<parameter>
								<parameterid>High Gain(dB)</parameterid>
								<name>High Gain(dB)</name>
								<valuemin>-20</valuemin>
								<valuemax>20</valuemax>
								<value>0</value>
							</parameter>
						</effect>
					</filter>
					<filter>
						<effect>
							<name>Audio Levels</name>
							<effectid>audiolevels</effectid>
							<effectcategory>audiolevels</effectcategory>
							<effecttype>audiolevels</effecttype>
							<mediatype>audio</mediatype>
							<parameter>
								<name>Level</name>
								<parameterid>level</parameterid>
								<valuemin>0</valuemin>
								<valuemax>3.98109</valuemax>
								<keyframe>
									<when>2784.86</when>
									<value>0.630957</value>
								</keyframe>
								<keyframe>
									<when>2791.14</when>
									<value>1</value>
								</keyframe>
								<keyframe>
									<when>2901.43</when>
									<value>1</value>
								</keyframe>
								<keyframe>
									<when>2908.29</when>
									<value>0.794328</value>
								</keyframe>
								<interpolation>
									<name>FCPCurve</name>
								</interpolation>
								<value>1</value>
							</parameter>
						</effect>
					</filter>
					<filter>
						<effect>
							<name>Audio Pan</name>
							<effectid>audiopan</effectid>
							<effectcategory>audiopan</effectcategory>
							<effecttype>audiopan</effecttype>
							<mediatype>audio</mediatype>
							<parameter>
								<name>Pan</name>
								<parameterid>pan</parameterid>
								<valuemin>-1</valuemin>
								<valuemax>1</valuemax>
								<value>0</value>
							</parameter>
						</effect>
					</filter>
					<sourcetrack>
						<mediatype>audio</mediatype>
						<trackindex>2</trackindex>
					</sourcetrack>
					<link>
						<linkclipref>msub200012-hjelp01007.MXF5</linkclipref>
						<mediatype>video</mediatype>
						<trackindex>2</trackindex>
						<clipindex>29</clipindex>
					</link>
					<link>
						<linkclipref>msub200012-hjelp01007.MXF6</linkclipref>
						<mediatype>audio</mediatype>
						<trackindex>4</trackindex>
						<clipindex>45</clipindex>
					</link>
				</clipitem>
				<transitionitem id="1049326436 ">
					<rate>
						<ntsc>FALSE</ntsc>
						<timebase>25</timebase>
					</rate>
					<start>20876</start>
					<end>20882</end>
					<alignment>center</alignment>
					<effect>
						<name>Cross Fade (+3dB) Copy</name>
						<effecttype>transition</effecttype>
						<mediatype>audio</mediatype>
					</effect>
				</transitionitem>
				<clipitem id="msub200012-hjelp02007.MXF4">
					<name>msub200012-hjelp02007.MXF</name>
					<duration>16680</duration>
					<rate>
						<ntsc>FALSE</ntsc>
						<timebase>25</timebase>
					</rate>
					<in>1377</in>
					<out>1495</out>
					<start>-1</start>
					<end>-1</end>
					<subframeoffset>0</subframeoffset>
					<masterclipid>msub200012-hjelp02007.MXF1</masterclipid>
					<logginginfo>
						<scene/>
						<shottake/>
						<lognote/>
						<good>FALSE</good>
					</logginginfo>
					<labels>
						<label2/>
					</labels>
					<comments>
						<mastercomment1/>
						<mastercomment2/>
						<mastercomment3/>
						<mastercomment4/>
					</comments>
					<file id="msub200012-hjelp02007 "/>
					<filter>
						<start>-1</start>
						<end>-1</end>
						<effect>
							<name>3 Band Equalizer - Kristine</name>
							<effecttype>filter</effecttype>
							<mediatype>audio</mediatype>
							<parameter>
								<parameterid>Low Frequency</parameterid>
								<name>Low Frequency</name>
								<valuemin>80</valuemin>
								<valuemax>2000</valuemax>
								<value>80</value>
							</parameter>
							<parameter>
								<parameterid>Low Gain(dB)</parameterid>
								<name>Low Gain(dB)</name>
								<valuemin>-20</valuemin>
								<valuemax>20</valuemax>
								<value>-4</value>
							</parameter>
							<parameter>
								<parameterid>Mid Frequency</parameterid>
								<name>Mid Frequency</name>
								<valuemin>400</valuemin>
								<valuemax>8000</valuemax>
								<value>3602</value>
							</parameter>
							<parameter>
								<parameterid>Mid Gain(dB)</parameterid>
								<name>Mid Gain(dB)</name>
								<valuemin>-20</valuemin>
								<valuemax>20</valuemax>
								<value>3</value>
							</parameter>
							<parameter>
								<parameterid>High Frequency</parameterid>
								<name>High Frequency</name>
								<valuemin>5000</valuemin>
								<valuemax>20000</valuemax>
								<value>10354</value>
							</parameter>
							<parameter>
								<parameterid>High Gain(dB)</parameterid>
								<name>High Gain(dB)</name>
								<valuemin>-20</valuemin>
								<valuemax>20</valuemax>
								<value>0</value>
							</parameter>
						</effect>
					</filter>
					<filter>
						<effect>
							<name>Audio Levels</name>
							<effectid>audiolevels</effectid>
							<effectcategory>audiolevels</effectcategory>
							<effecttype>audiolevels</effecttype>
							<mediatype>audio</mediatype>
							<parameter>
								<name>Level</name>
								<parameterid>level</parameterid>
								<valuemin>0</valuemin>
								<valuemax>3.98109</valuemax>
								<value>0.630957</value>
							</parameter>
						</effect>
					</filter>
					<filter>
						<effect>
							<name>Audio Pan</name>
							<effectid>audiopan</effectid>
							<effectcategory>audiopan</effectcategory>
							<effecttype>audiopan</effecttype>
							<mediatype>audio</mediatype>
							<parameter>
								<name>Pan</name>
								<parameterid>pan</parameterid>
								<valuemin>-1</valuemin>
								<valuemax>1</valuemax>
								<value>0</value>
							</parameter>
						</effect>
					</filter>
					<sourcetrack>
						<mediatype>audio</mediatype>
						<trackindex>2</trackindex>
					</sourcetrack>
					<link>
						<linkclipref>msub200012-hjelp02007.MXF3</linkclipref>
						<mediatype>video</mediatype>
						<trackindex>2</trackindex>
						<clipindex>30</clipindex>
					</link>
					<link>
						<linkclipref>msub200012-hjelp02007.MXF4</linkclipref>
						<mediatype>audio</mediatype>
						<trackindex>4</trackindex>
						<clipindex>47</clipindex>
					</link>
				</clipitem>
				<transitionitem id="1049328476 ">
					<rate>
						<ntsc>FALSE</ntsc>
						<timebase>25</timebase>
					</rate>
					<start>20992</start>
					<end>20994</end>
					<alignment>center</alignment>
					<effect>
						<name>Cross Fade ( 0dB)</name>
						<effecttype>transition</effecttype>
						<mediatype>audio</mediatype>
					</effect>
				</transitionitem>
				<clipitem id="msub200012-hjelp01007.MXF8">
					<name>msub200012-hjelp01007.MXF</name>
					<duration>3660</duration>
					<rate>
						<ntsc>FALSE</ntsc>
						<timebase>25</timebase>
					</rate>
					<in>3200</in>
					<out>3400</out>
					<start>-1</start>
					<end>21192</end>
					<subframeoffset>0</subframeoffset>
					<masterclipid>msub200012-hjelp01007.MXF1</masterclipid>
					<logginginfo>
						<scene/>
						<shottake/>
						<lognote/>
						<good>FALSE</good>
					</logginginfo>
					<labels>
						<label2/>
					</labels>
					<comments>
						<mastercomment1/>
						<mastercomment2/>
						<mastercomment3/>
						<mastercomment4/>
					</comments>
					<file id="msub200012-hjelp01007 "/>
					<filter>
						<start>-1</start>
						<end>-1</end>
						<effect>
							<name>3 Band Equalizer - Kristine</name>
							<effecttype>filter</effecttype>
							<mediatype>audio</mediatype>
							<parameter>
								<parameterid>Low Frequency</parameterid>
								<name>Low Frequency</name>
								<valuemin>80</valuemin>
								<valuemax>2000</valuemax>
								<value>80</value>
							</parameter>
							<parameter>
								<parameterid>Low Gain(dB)</parameterid>
								<name>Low Gain(dB)</name>
								<valuemin>-20</valuemin>
								<valuemax>20</valuemax>
								<value>-4</value>
							</parameter>
							<parameter>
								<parameterid>Mid Frequency</parameterid>
								<name>Mid Frequency</name>
								<valuemin>400</valuemin>
								<valuemax>8000</valuemax>
								<value>3602</value>
							</parameter>
							<parameter>
								<parameterid>Mid Gain(dB)</parameterid>
								<name>Mid Gain(dB)</name>
								<valuemin>-20</valuemin>
								<valuemax>20</valuemax>
								<value>3</value>
							</parameter>
							<parameter>
								<parameterid>High Frequency</parameterid>
								<name>High Frequency</name>
								<valuemin>5000</valuemin>
								<valuemax>20000</valuemax>
								<value>10354</value>
							</parameter>
							<parameter>
								<parameterid>High Gain(dB)</parameterid>
								<name>High Gain(dB)</name>
								<valuemin>-20</valuemin>
								<valuemax>20</valuemax>
								<value>0</value>
							</parameter>
						</effect>
					</filter>
					<filter>
						<effect>
							<name>Audio Levels</name>
							<effectid>audiolevels</effectid>
							<effectcategory>audiolevels</effectcategory>
							<effecttype>audiolevels</effecttype>
							<mediatype>audio</mediatype>
							<parameter>
								<name>Level</name>
								<parameterid>level</parameterid>
								<valuemin>0</valuemin>
								<valuemax>3.98109</valuemax>
								<value>0.501187</value>
							</parameter>
						</effect>
					</filter>
					<filter>
						<effect>
							<name>Audio Pan</name>
							<effectid>audiopan</effectid>
							<effectcategory>audiopan</effectcategory>
							<effecttype>audiopan</effecttype>
							<mediatype>audio</mediatype>
							<parameter>
								<name>Pan</name>
								<parameterid>pan</parameterid>
								<valuemin>-1</valuemin>
								<valuemax>1</valuemax>
								<value>0</value>
							</parameter>
						</effect>
					</filter>
					<sourcetrack>
						<mediatype>audio</mediatype>
						<trackindex>2</trackindex>
					</sourcetrack>
					<link>
						<linkclipref>msub200012-hjelp01007.MXF7</linkclipref>
						<mediatype>video</mediatype>
						<trackindex>2</trackindex>
						<clipindex>31</clipindex>
					</link>
					<link>
						<linkclipref>msub200012-hjelp01007.MXF8</linkclipref>
						<mediatype>audio</mediatype>
						<trackindex>4</trackindex>
						<clipindex>49</clipindex>
					</link>
				</clipitem>
				<clipitem id="FB100601.MXF2">
					<name>FB100601.MXF</name>
					<duration>696</duration>
					<rate>
						<ntsc>FALSE</ntsc>
						<timebase>25</timebase>
					</rate>
					<in>280</in>
					<out>621</out>
					<start>21192</start>
					<end>21533</end>
					<subframeoffset>0</subframeoffset>
					<masterclipid>FB100601.MXF1</masterclipid>
					<logginginfo>
						<scene/>
						<shottake/>
						<lognote/>
						<good>FALSE</good>
					</logginginfo>
					<labels>
						<label2/>
					</labels>
					<comments>
						<mastercomment1/>
						<mastercomment2/>
						<mastercomment3/>
						<mastercomment4/>
					</comments>
					<file id="FB100601 "/>
					<filter>
						<start>-1</start>
						<end>-1</end>
						<effect>
							<name>3 Band Equalizer - Kristine</name>
							<effecttype>filter</effecttype>
							<mediatype>audio</mediatype>
							<parameter>
								<parameterid>Low Frequency</parameterid>
								<name>Low Frequency</name>
								<valuemin>80</valuemin>
								<valuemax>2000</valuemax>
								<value>80</value>
							</parameter>
							<parameter>
								<parameterid>Low Gain(dB)</parameterid>
								<name>Low Gain(dB)</name>
								<valuemin>-20</valuemin>
								<valuemax>20</valuemax>
								<value>-4</value>
							</parameter>
							<parameter>
								<parameterid>Mid Frequency</parameterid>
								<name>Mid Frequency</name>
								<valuemin>400</valuemin>
								<valuemax>8000</valuemax>
								<value>3602</value>
							</parameter>
							<parameter>
								<parameterid>Mid Gain(dB)</parameterid>
								<name>Mid Gain(dB)</name>
								<valuemin>-20</valuemin>
								<valuemax>20</valuemax>
								<value>3</value>
							</parameter>
							<parameter>
								<parameterid>High Frequency</parameterid>
								<name>High Frequency</name>
								<valuemin>5000</valuemin>
								<valuemax>20000</valuemax>
								<value>10354</value>
							</parameter>
							<parameter>
								<parameterid>High Gain(dB)</parameterid>
								<name>High Gain(dB)</name>
								<valuemin>-20</valuemin>
								<valuemax>20</valuemax>
								<value>0</value>
							</parameter>
						</effect>
					</filter>
					<filter>
						<effect>
							<name>Audio Levels</name>
							<effectid>audiolevels</effectid>
							<effectcategory>audiolevels</effectcategory>
							<effecttype>audiolevels</effecttype>
							<mediatype>audio</mediatype>
							<parameter>
								<name>Level</name>
								<parameterid>level</parameterid>
								<valuemin>0</valuemin>
								<valuemax>3.98109</valuemax>
								<keyframe>
									<when>343.286</when>
									<value>0.501187</value>
								</keyframe>
								<keyframe>
									<when>350.143</when>
									<value>0.630957</value>
								</keyframe>
								<interpolation>
									<name>FCPCurve</name>
								</interpolation>
								<value>0.562341</value>
							</parameter>
						</effect>
					</filter>
					<filter>
						<effect>
							<name>Audio Pan</name>
							<effectid>audiopan</effectid>
							<effectcategory>audiopan</effectcategory>
							<effecttype>audiopan</effecttype>
							<mediatype>audio</mediatype>
							<parameter>
								<name>Pan</name>
								<parameterid>pan</parameterid>
								<valuemin>-1</valuemin>
								<valuemax>1</valuemax>
								<value>0</value>
							</parameter>
						</effect>
					</filter>
					<sourcetrack>
						<mediatype>audio</mediatype>
						<trackindex>2</trackindex>
					</sourcetrack>
					<link>
						<linkclipref>FB100601.MXF</linkclipref>
						<mediatype>video</mediatype>
						<trackindex>2</trackindex>
						<clipindex>32</clipindex>
					</link>
					<link>
						<linkclipref>FB100601.MXF2</linkclipref>
						<mediatype>audio</mediatype>
						<trackindex>4</trackindex>
						<clipindex>50</clipindex>
					</link>
				</clipitem>
				<clipitem id="NONRO185488CD0010 Loco3">
					<name>NONRO185488CD0010 Loco</name>
					<duration>4813</duration>
					<rate>
						<ntsc>FALSE</ntsc>
						<timebase>25</timebase>
					</rate>
					<in>4</in>
					<out>628</out>
					<start>23212</start>
					<end>23836</end>
					<enabled>TRUE</enabled>
					<masterclipid>NONRO185488CD0010 Loco1</masterclipid>
					<logginginfo>
						<scene/>
						<shottake/>
						<lognote/>
						<good>FALSE</good>
					</logginginfo>
					<labels>
						<label2/>
					</labels>
					<comments>
						<mastercomment1/>
						<mastercomment2/>
						<mastercomment3/>
						<mastercomment4/>
					</comments>
					<file id="NONRO185488CD0010 Loco2"/>
					<filter>
						<effect>
							<name>Audio Levels</name>
							<effectid>audiolevels</effectid>
							<effectcategory>audiolevels</effectcategory>
							<effecttype>audiolevels</effecttype>
							<mediatype>audio</mediatype>
							<parameter>
								<name>Level</name>
								<parameterid>level</parameterid>
								<valuemin>0</valuemin>
								<valuemax>3.98109</valuemax>
								<keyframe>
									<when>9.28571</when>
									<value>0.0891251</value>
								</keyframe>
								<keyframe>
									<when>122.5</when>
									<value>0.0630957</value>
								</keyframe>
								<keyframe>
									<when>190</when>
									<value>0.0501187</value>
								</keyframe>
								<keyframe>
									<when>253.143</when>
									<value>0.0501187</value>
								</keyframe>
								<keyframe>
									<when>288.286</when>
									<value>0.112202</value>
								</keyframe>
								<keyframe>
									<when>350.286</when>
									<value>0.112202</value>
								</keyframe>
								<keyframe>
									<when>367</when>
									<value>0.0354813</value>
								</keyframe>
								<keyframe>
									<when>582</when>
									<value>0</value>
								</keyframe>
								<interpolation>
									<name>FCPCurve</name>
								</interpolation>
								<value>0.354813</value>
							</parameter>
						</effect>
					</filter>
					<filter>
						<effect>
							<name>Audio Pan</name>
							<effectid>audiopan</effectid>
							<effectcategory>audiopan</effectcategory>
							<effecttype>audiopan</effecttype>
							<mediatype>audio</mediatype>
							<parameter>
								<name>Pan</name>
								<parameterid>pan</parameterid>
								<valuemin>-1</valuemin>
								<valuemax>1</valuemax>
								<value>1</value>
							</parameter>
						</effect>
					</filter>
					<sourcetrack>
						<mediatype>audio</mediatype>
						<trackindex>2</trackindex>
					</sourcetrack>
					<link>
						<linkclipref>NONRO185488CD0010 Loco</linkclipref>
						<mediatype>audio</mediatype>
						<trackindex>3</trackindex>
						<clipindex>15</clipindex>
						<groupindex>1</groupindex>
					</link>
					<link>
						<linkclipref>NONRO185488CD0010 Loco3</linkclipref>
						<mediatype>audio</mediatype>
						<trackindex>4</trackindex>
						<clipindex>51</clipindex>
						<groupindex>1</groupindex>
					</link>
				</clipitem>
				<clipitem id="msub20000012r-k1-d1-17025 6">
					<name>msub20000012r-k1-d1-17025</name>
					<duration>7583</duration>
					<rate>
						<ntsc>FALSE</ntsc>
						<timebase>25</timebase>
					</rate>
					<in>3059</in>
					<out>3146</out>
					<start>24276</start>
					<end>-1</end>
					<subframeoffset>0</subframeoffset>
					<masterclipid>msub20000012r-k1-d1-17025 1</masterclipid>
					<logginginfo>
						<description>msub20000012r-k1-d1-17025</description>
						<scene/>
						<shottake/>
						<lognote/>
						<good>FALSE</good>
					</logginginfo>
					<labels>
						<label2/>
					</labels>
					<comments>
						<mastercomment1>RÃ…STOFF</mastercomment1>
						<mastercomment2/>
						<mastercomment3/>
						<mastercomment4/>
					</comments>
					<file id="msub20000012r-k1-d1-17025 2"/>
					<filter>
						<effect>
							<name>Audio Levels</name>
							<effectid>audiolevels</effectid>
							<effectcategory>audiolevels</effectcategory>
							<effecttype>audiolevels</effecttype>
							<mediatype>audio</mediatype>
							<parameter>
								<name>Level</name>
								<parameterid>level</parameterid>
								<valuemin>0</valuemin>
								<valuemax>3.98109</valuemax>
								<keyframe>
									<when>3058.14</when>
									<value>0.707946</value>
								</keyframe>
								<keyframe>
									<when>3065.29</when>
									<value>0.0891251</value>
								</keyframe>
								<interpolation>
									<name>FCPCurve</name>
								</interpolation>
								<value>1</value>
							</parameter>
						</effect>
					</filter>
					<filter>
						<effect>
							<name>Audio Pan</name>
							<effectid>audiopan</effectid>
							<effectcategory>audiopan</effectcategory>
							<effecttype>audiopan</effecttype>
							<mediatype>audio</mediatype>
							<parameter>
								<name>Pan</name>
								<parameterid>pan</parameterid>
								<valuemin>-1</valuemin>
								<valuemax>1</valuemax>
								<value>0</value>
							</parameter>
						</effect>
					</filter>
					<sourcetrack>
						<mediatype>audio</mediatype>
						<trackindex>4</trackindex>
					</sourcetrack>
				</clipitem>
				<transitionitem id="49">
					<rate>
						<ntsc>FALSE</ntsc>
						<timebase>25</timebase>
					</rate>
					<start>24358</start>
					<end>24363</end>
					<alignment>end-black</alignment>
					<effect>
						<name>Cross Fade ( 0dB)</name>
						<effecttype>transition</effecttype>
						<mediatype>audio</mediatype>
					</effect>
				</transitionitem>
				<clipitem id="kyss-smask.WAV2">
					<name>kyss-smask.WAV</name>
					<duration>456</duration>
					<rate>
						<ntsc>FALSE</ntsc>
						<timebase>25</timebase>
					</rate>
					<in>273</in>
					<out>288</out>
					<start>24444</start>
					<end>24459</end>
					<subframeoffset>0</subframeoffset>
					<masterclipid>kyss-smask.WAV1</masterclipid>
					<logginginfo>
						<scene/>
						<shottake/>
						<lognote/>
						<good>FALSE</good>
					</logginginfo>
					<labels>
						<label2/>
					</labels>
					<comments>
						<mastercomment1/>
						<mastercomment2/>
						<mastercomment3/>
						<mastercomment4/>
					</comments>
					<file id="kyss-smask"/>
					<filter>
						<effect>
							<name>Audio Levels</name>
							<effectid>audiolevels</effectid>
							<effectcategory>audiolevels</effectcategory>
							<effecttype>audiolevels</effecttype>
							<mediatype>audio</mediatype>
							<parameter>
								<name>Level</name>
								<parameterid>level</parameterid>
								<valuemin>0</valuemin>
								<valuemax>3.98109</valuemax>
								<value>0.141254</value>
							</parameter>
						</effect>
					</filter>
					<filter>
						<effect>
							<name>Audio Pan</name>
							<effectid>audiopan</effectid>
							<effectcategory>audiopan</effectcategory>
							<effecttype>audiopan</effecttype>
							<mediatype>audio</mediatype>
							<parameter>
								<name>Pan</name>
								<parameterid>pan</parameterid>
								<valuemin>-1</valuemin>
								<valuemax>1</valuemax>
								<value>1</value>
							</parameter>
						</effect>
					</filter>
					<sourcetrack>
						<mediatype>audio</mediatype>
						<trackindex>2</trackindex>
					</sourcetrack>
					<link>
						<linkclipref>kyss-smask.WAV</linkclipref>
						<mediatype>audio</mediatype>
						<trackindex>3</trackindex>
						<clipindex>18</clipindex>
						<groupindex>1</groupindex>
					</link>
					<link>
						<linkclipref>kyss-smask.WAV2</linkclipref>
						<mediatype>audio</mediatype>
						<trackindex>4</trackindex>
						<clipindex>54</clipindex>
						<groupindex>1</groupindex>
					</link>
				</clipitem>
				<clipitem id="kyss-smask.WAV4">
					<name>kyss-smask.WAV</name>
					<duration>456</duration>
					<rate>
						<ntsc>FALSE</ntsc>
						<timebase>25</timebase>
					</rate>
					<in>306</in>
					<out>316</out>
					<start>24477</start>
					<end>24487</end>
					<subframeoffset>0</subframeoffset>
					<masterclipid>kyss-smask.WAV1</masterclipid>
					<logginginfo>
						<scene/>
						<shottake/>
						<lognote/>
						<good>FALSE</good>
					</logginginfo>
					<labels>
						<label2/>
					</labels>
					<comments>
						<mastercomment1/>
						<mastercomment2/>
						<mastercomment3/>
						<mastercomment4/>
					</comments>
					<file id="kyss-smask"/>
					<filter>
						<effect>
							<name>Audio Levels</name>
							<effectid>audiolevels</effectid>
							<effectcategory>audiolevels</effectcategory>
							<effecttype>audiolevels</effecttype>
							<mediatype>audio</mediatype>
							<parameter>
								<name>Level</name>
								<parameterid>level</parameterid>
								<valuemin>0</valuemin>
								<valuemax>3.98109</valuemax>
								<value>0.141254</value>
							</parameter>
						</effect>
					</filter>
					<filter>
						<effect>
							<name>Audio Pan</name>
							<effectid>audiopan</effectid>
							<effectcategory>audiopan</effectcategory>
							<effecttype>audiopan</effecttype>
							<mediatype>audio</mediatype>
							<parameter>
								<name>Pan</name>
								<parameterid>pan</parameterid>
								<valuemin>-1</valuemin>
								<valuemax>1</valuemax>
								<value>1</value>
							</parameter>
						</effect>
					</filter>
					<sourcetrack>
						<mediatype>audio</mediatype>
						<trackindex>2</trackindex>
					</sourcetrack>
					<link>
						<linkclipref>kyss-smask.WAV3</linkclipref>
						<mediatype>audio</mediatype>
						<trackindex>3</trackindex>
						<clipindex>19</clipindex>
						<groupindex>1</groupindex>
					</link>
					<link>
						<linkclipref>kyss-smask.WAV4</linkclipref>
						<mediatype>audio</mediatype>
						<trackindex>4</trackindex>
						<clipindex>55</clipindex>
						<groupindex>1</groupindex>
					</link>
				</clipitem>
				<clipitem id="kyss-smask.WAV6">
					<name>kyss-smask.WAV</name>
					<duration>456</duration>
					<rate>
						<ntsc>FALSE</ntsc>
						<timebase>25</timebase>
					</rate>
					<in>180</in>
					<out>189</out>
					<start>24493</start>
					<end>24502</end>
					<subframeoffset>0</subframeoffset>
					<masterclipid>kyss-smask.WAV1</masterclipid>
					<logginginfo>
						<scene/>
						<shottake/>
						<lognote/>
						<good>FALSE</good>
					</logginginfo>
					<labels>
						<label2/>
					</labels>
					<comments>
						<mastercomment1/>
						<mastercomment2/>
						<mastercomment3/>
						<mastercomment4/>
					</comments>
					<file id="kyss-smask"/>
					<filter>
						<effect>
							<name>Audio Levels</name>
							<effectid>audiolevels</effectid>
							<effectcategory>audiolevels</effectcategory>
							<effecttype>audiolevels</effecttype>
							<mediatype>audio</mediatype>
							<parameter>
								<name>Level</name>
								<parameterid>level</parameterid>
								<valuemin>0</valuemin>
								<valuemax>3.98109</valuemax>
								<value>0.112202</value>
							</parameter>
						</effect>
					</filter>
					<filter>
						<effect>
							<name>Audio Pan</name>
							<effectid>audiopan</effectid>
							<effectcategory>audiopan</effectcategory>
							<effecttype>audiopan</effecttype>
							<mediatype>audio</mediatype>
							<parameter>
								<name>Pan</name>
								<parameterid>pan</parameterid>
								<valuemin>-1</valuemin>
								<valuemax>1</valuemax>
								<value>1</value>
							</parameter>
						</effect>
					</filter>
					<sourcetrack>
						<mediatype>audio</mediatype>
						<trackindex>2</trackindex>
					</sourcetrack>
					<link>
						<linkclipref>kyss-smask.WAV5</linkclipref>
						<mediatype>audio</mediatype>
						<trackindex>3</trackindex>
						<clipindex>20</clipindex>
						<groupindex>1</groupindex>
					</link>
					<link>
						<linkclipref>kyss-smask.WAV6</linkclipref>
						<mediatype>audio</mediatype>
						<trackindex>4</trackindex>
						<clipindex>56</clipindex>
						<groupindex>1</groupindex>
					</link>
				</clipitem>
				<transitionitem id="1049333848 ">
					<rate>
						<ntsc>FALSE</ntsc>
						<timebase>25</timebase>
					</rate>
					<start>24626</start>
					<end>24632</end>
					<alignment>center</alignment>
					<effect>
						<name>Cross Fade (+3dB) Copy</name>
						<effecttype>transition</effecttype>
						<mediatype>audio</mediatype>
					</effect>
				</transitionitem>
				<clipitem id="msub200012-2308-k1d2016.mxf8">
					<name>msub200012-2308-k1d2016.mxf</name>
					<duration>15795</duration>
					<rate>
						<ntsc>FALSE</ntsc>
						<timebase>25</timebase>
					</rate>
					<in>7298</in>
					<out>7352</out>
					<start>-1</start>
					<end>-1</end>
					<subframeoffset>0</subframeoffset>
					<masterclipid>msub200012-2308-k1d2016.mxf1</masterclipid>
					<logginginfo>
						<scene/>
						<shottake/>
						<lognote/>
						<good>FALSE</good>
					</logginginfo>
					<labels>
						<label2/>
					</labels>
					<comments>
						<mastercomment1/>
						<mastercomment2/>
						<mastercomment3/>
						<mastercomment4/>
					</comments>
					<file id="msub200012-2308-k1d2016 "/>
					<filter>
						<start>-1</start>
						<end>-1</end>
						<effect>
							<name>3 Band Equalizer - Kristine</name>
							<effecttype>filter</effecttype>
							<mediatype>audio</mediatype>
							<parameter>
								<parameterid>Low Frequency</parameterid>
								<name>Low Frequency</name>
								<valuemin>80</valuemin>
								<valuemax>2000</valuemax>
								<value>80</value>
							</parameter>
							<parameter>
								<parameterid>Low Gain(dB)</parameterid>
								<name>Low Gain(dB)</name>
								<valuemin>-20</valuemin>
								<valuemax>20</valuemax>
								<value>-4</value>
							</parameter>
							<parameter>
								<parameterid>Mid Frequency</parameterid>
								<name>Mid Frequency</name>
								<valuemin>400</valuemin>
								<valuemax>8000</valuemax>
								<value>3602</value>
							</parameter>
							<parameter>
								<parameterid>Mid Gain(dB)</parameterid>
								<name>Mid Gain(dB)</name>
								<valuemin>-20</valuemin>
								<valuemax>20</valuemax>
								<value>3</value>
							</parameter>
							<parameter>
								<parameterid>High Frequency</parameterid>
								<name>High Frequency</name>
								<valuemin>5000</valuemin>
								<valuemax>20000</valuemax>
								<value>10354</value>
							</parameter>
							<parameter>
								<parameterid>High Gain(dB)</parameterid>
								<name>High Gain(dB)</name>
								<valuemin>-20</valuemin>
								<valuemax>20</valuemax>
								<value>0</value>
							</parameter>
						</effect>
					</filter>
					<filter>
						<start>-1</start>
						<end>-1</end>
						<effect>
							<name>Compressor/Limiter</name>
							<effecttype>filter</effecttype>
							<mediatype>audio</mediatype>
							<parameter>
								<parameterid>Threshold(dB)</parameterid>
								<name>Threshold(dB)</name>
								<valuemin>-90</valuemin>
								<valuemax>0</valuemax>
								<value>-20</value>
							</parameter>
							<parameter>
								<parameterid>Ratio</parameterid>
								<name>Ratio</name>
								<valuemin>1</valuemin>
								<valuemax>100</valuemax>
								<value>2</value>
							</parameter>
							<parameter>
								<parameterid>Attack Time</parameterid>
								<name>Attack Time</name>
								<valuemin>1</valuemin>
								<valuemax>100</valuemax>
								<value>5</value>
							</parameter>
							<parameter>
								<parameterid>Release Time</parameterid>
								<name>Release Time</name>
								<valuemin>1</valuemin>
								<valuemax>4000</valuemax>
								<value>209</value>
							</parameter>
							<parameter>
								<parameterid>Preserve Volume</parameterid>
								<name>Preserve Volume</name>
								<value>TRUE</value>
							</parameter>
						</effect>
					</filter>
					<filter>
						<effect>
							<name>Audio Levels</name>
							<effectid>audiolevels</effectid>
							<effectcategory>audiolevels</effectcategory>
							<effecttype>audiolevels</effecttype>
							<mediatype>audio</mediatype>
							<parameter>
								<name>Level</name>
								<parameterid>level</parameterid>
								<valuemin>0</valuemin>
								<valuemax>3.98109</valuemax>
								<value>0.354813</value>
							</parameter>
						</effect>
					</filter>
					<filter>
						<effect>
							<name>Audio Pan</name>
							<effectid>audiopan</effectid>
							<effectcategory>audiopan</effectcategory>
							<effecttype>audiopan</effecttype>
							<mediatype>audio</mediatype>
							<parameter>
								<name>Pan</name>
								<parameterid>pan</parameterid>
								<valuemin>-1</valuemin>
								<valuemax>1</valuemax>
								<value>0</value>
							</parameter>
						</effect>
					</filter>
					<sourcetrack>
						<mediatype>audio</mediatype>
						<trackindex>4</trackindex>
					</sourcetrack>
					<link>
						<linkclipref>msub200012-2308-k1d2016.mxf7</linkclipref>
						<mediatype>audio</mediatype>
						<trackindex>3</trackindex>
						<clipindex>22</clipindex>
					</link>
					<link>
						<linkclipref>msub200012-2308-k1d2016.mxf8</linkclipref>
						<mediatype>audio</mediatype>
						<trackindex>4</trackindex>
						<clipindex>58</clipindex>
					</link>
				</clipitem>
				<transitionitem id="1049337316 ">
					<rate>
						<ntsc>FALSE</ntsc>
						<timebase>25</timebase>
					</rate>
					<start>24674</start>
					<end>24680</end>
					<alignment>end-black</alignment>
					<effect>
						<name>Cross Fade (+3dB) Copy</name>
						<effecttype>transition</effecttype>
						<mediatype>audio</mediatype>
					</effect>
				</transitionitem>
				<transitionitem id="50">
					<rate>
						<ntsc>FALSE</ntsc>
						<timebase>25</timebase>
					</rate>
					<start>24720</start>
					<end>24722</end>
					<alignment>start-black</alignment>
					<effect>
						<name>Cross Fade ( 0dB)</name>
						<effecttype>transition</effecttype>
						<mediatype>audio</mediatype>
					</effect>
				</transitionitem>
				<clipitem id="msub200012-2308-k1d1-005 9">
					<name>msub200012-2308-k1d1-005</name>
					<duration>6527</duration>
					<rate>
						<ntsc>FALSE</ntsc>
						<timebase>25</timebase>
					</rate>
					<in>3066</in>
					<out>3214</out>
					<start>-1</start>
					<end>-1</end>
					<subframeoffset>0</subframeoffset>
					<enabled>TRUE</enabled>
					<masterclipid>msub200012-2308-k1d1-005 1</masterclipid>
					<logginginfo>
						<description>msub200012-2308-k1d1-005</description>
						<scene/>
						<shottake/>
						<lognote/>
						<good>FALSE</good>
					</logginginfo>
					<labels>
						<label2/>
					</labels>
					<comments>
						<mastercomment1>RÃ…STOFF. BR_FINFREDAG_MSUA_OPRO</mastercomment1>
						<mastercomment2/>
						<mastercomment3/>
						<mastercomment4/>
					</comments>
					<file id="msub200012-2308-k1d1-005 2"/>
					<filter>
						<enabled>TRUE</enabled>
						<start>-1</start>
						<end>-1</end>
						<effect>
							<name>3 Band Equalizer - Kristine</name>
							<effecttype>filter</effecttype>
							<mediatype>audio</mediatype>
							<parameter>
								<parameterid>Low Frequency</parameterid>
								<name>Low Frequency</name>
								<valuemin>80</valuemin>
								<valuemax>2000</valuemax>
								<value>80</value>
							</parameter>
							<parameter>
								<parameterid>Low Gain(dB)</parameterid>
								<name>Low Gain(dB)</name>
								<valuemin>-20</valuemin>
								<valuemax>20</valuemax>
								<value>-4</value>
							</parameter>
							<parameter>
								<parameterid>Mid Frequency</parameterid>
								<name>Mid Frequency</name>
								<valuemin>400</valuemin>
								<valuemax>8000</valuemax>
								<value>3602</value>
							</parameter>
							<parameter>
								<parameterid>Mid Gain(dB)</parameterid>
								<name>Mid Gain(dB)</name>
								<valuemin>-20</valuemin>
								<valuemax>20</valuemax>
								<value>3</value>
							</parameter>
							<parameter>
								<parameterid>High Frequency</parameterid>
								<name>High Frequency</name>
								<valuemin>5000</valuemin>
								<valuemax>20000</valuemax>
								<value>10354</value>
							</parameter>
							<parameter>
								<parameterid>High Gain(dB)</parameterid>
								<name>High Gain(dB)</name>
								<valuemin>-20</valuemin>
								<valuemax>20</valuemax>
								<value>0</value>
							</parameter>
						</effect>
					</filter>
					<filter>
						<start>-1</start>
						<end>-1</end>
						<effect>
							<name>Compressor/Limiter</name>
							<effecttype>filter</effecttype>
							<mediatype>audio</mediatype>
							<parameter>
								<parameterid>Threshold(dB)</parameterid>
								<name>Threshold(dB)</name>
								<valuemin>-90</valuemin>
								<valuemax>0</valuemax>
								<value>-20</value>
							</parameter>
							<parameter>
								<parameterid>Ratio</parameterid>
								<name>Ratio</name>
								<valuemin>1</valuemin>
								<valuemax>100</valuemax>
								<value>2</value>
							</parameter>
							<parameter>
								<parameterid>Attack Time</parameterid>
								<name>Attack Time</name>
								<valuemin>1</valuemin>
								<valuemax>100</valuemax>
								<value>5</value>
							</parameter>
							<parameter>
								<parameterid>Release Time</parameterid>
								<name>Release Time</name>
								<valuemin>1</valuemin>
								<valuemax>4000</valuemax>
								<value>209</value>
							</parameter>
							<parameter>
								<parameterid>Preserve Volume</parameterid>
								<name>Preserve Volume</name>
								<value>TRUE</value>
							</parameter>
						</effect>
					</filter>
					<filter>
						<effect>
							<name>Audio Levels</name>
							<effectid>audiolevels</effectid>
							<effectcategory>audiolevels</effectcategory>
							<effecttype>audiolevels</effecttype>
							<mediatype>audio</mediatype>
							<parameter>
								<name>Level</name>
								<parameterid>level</parameterid>
								<valuemin>0</valuemin>
								<valuemax>3.98109</valuemax>
								<keyframe>
									<when>2826.29</when>
									<value>0.70795</value>
								</keyframe>
								<keyframe>
									<when>2832.29</when>
									<value>0.141255</value>
								</keyframe>
								<keyframe>
									<when>2945.43</when>
									<value>0.141255</value>
								</keyframe>
								<keyframe>
									<when>2950.14</when>
									<value>0.891251</value>
								</keyframe>
								<keyframe>
									<when>3016.57</when>
									<value>0.891251</value>
								</keyframe>
								<keyframe>
									<when>3022.57</when>
									<value>0.794333</value>
								</keyframe>
								<keyframe>
									<when>3035.43</when>
									<value>0.794333</value>
								</keyframe>
								<keyframe>
									<when>3042.29</when>
									<value>1.00001</value>
								</keyframe>
								<keyframe>
									<when>3050.86</when>
									<value>1.00001</value>
								</keyframe>
								<keyframe>
									<when>3060.29</when>
									<value>0.630961</value>
								</keyframe>
								<keyframe>
									<when>3070.14</when>
									<value>1.12202</value>
								</keyframe>
								<keyframe>
									<when>3094.57</when>
									<value>1</value>
								</keyframe>
								<keyframe>
									<when>3099.29</when>
									<value>1</value>
								</keyframe>
								<keyframe>
									<when>3152</when>
									<value>1.41254</value>
								</keyframe>
								<keyframe>
									<when>3159.71</when>
									<value>0.39811</value>
								</keyframe>
								<interpolation>
									<name>FCPCurve</name>
								</interpolation>
								<value>1</value>
							</parameter>
						</effect>
					</filter>
					<filter>
						<effect>
							<name>Audio Pan</name>
							<effectid>audiopan</effectid>
							<effectcategory>audiopan</effectcategory>
							<effecttype>audiopan</effecttype>
							<mediatype>audio</mediatype>
							<parameter>
								<name>Pan</name>
								<parameterid>pan</parameterid>
								<valuemin>-1</valuemin>
								<valuemax>1</valuemax>
								<value>0</value>
							</parameter>
						</effect>
					</filter>
					<sourcetrack>
						<mediatype>audio</mediatype>
						<trackindex>2</trackindex>
					</sourcetrack>
				</clipitem>
				<transitionitem id="51">
					<rate>
						<ntsc>FALSE</ntsc>
						<timebase>25</timebase>
					</rate>
					<start>24866</start>
					<end>24868</end>
					<alignment>center</alignment>
					<effect>
						<name>Cross Fade (+3dB) Copy</name>
						<effecttype>transition</effecttype>
						<mediatype>audio</mediatype>
					</effect>
				</transitionitem>
				<clipitem id="msub200012-2308-k1d1-005 10">
					<name>msub200012-2308-k1d1-005</name>
					<duration>6527</duration>
					<rate>
						<ntsc>FALSE</ntsc>
						<timebase>25</timebase>
					</rate>
					<in>3212</in>
					<out>3264</out>
					<start>-1</start>
					<end>-1</end>
					<subframeoffset>0</subframeoffset>
					<masterclipid>msub200012-2308-k1d1-005 1</masterclipid>
					<logginginfo>
						<description>msub200012-2308-k1d1-005</description>
						<scene/>
						<shottake/>
						<lognote/>
						<good>FALSE</good>
					</logginginfo>
					<labels>
						<label2/>
					</labels>
					<comments>
						<mastercomment1>RÃ…STOFF. BR_FINFREDAG_MSUA_OPRO</mastercomment1>
						<mastercomment2/>
						<mastercomment3/>
						<mastercomment4/>
					</comments>
					<file id="msub200012-2308-k1d1-005 2"/>
					<filter>
						<start>-1</start>
						<end>-1</end>
						<effect>
							<name>3 Band Equalizer - Kristine</name>
							<effecttype>filter</effecttype>
							<mediatype>audio</mediatype>
							<parameter>
								<parameterid>Low Frequency</parameterid>
								<name>Low Frequency</name>
								<valuemin>80</valuemin>
								<valuemax>2000</valuemax>
								<value>80</value>
							</parameter>
							<parameter>
								<parameterid>Low Gain(dB)</parameterid>
								<name>Low Gain(dB)</name>
								<valuemin>-20</valuemin>
								<valuemax>20</valuemax>
								<value>-4</value>
							</parameter>
							<parameter>
								<parameterid>Mid Frequency</parameterid>
								<name>Mid Frequency</name>
								<valuemin>400</valuemin>
								<valuemax>8000</valuemax>
								<value>3602</value>
							</parameter>
							<parameter>
								<parameterid>Mid Gain(dB)</parameterid>
								<name>Mid Gain(dB)</name>
								<valuemin>-20</valuemin>
								<valuemax>20</valuemax>
								<value>3</value>
							</parameter>
							<parameter>
								<parameterid>High Frequency</parameterid>
								<name>High Frequency</name>
								<valuemin>5000</valuemin>
								<valuemax>20000</valuemax>
								<value>10354</value>
							</parameter>
							<parameter>
								<parameterid>High Gain(dB)</parameterid>
								<name>High Gain(dB)</name>
								<valuemin>-20</valuemin>
								<valuemax>20</valuemax>
								<value>0</value>
							</parameter>
						</effect>
					</filter>
					<filter>
						<start>-1</start>
						<end>-1</end>
						<effect>
							<name>Compressor/Limiter</name>
							<effecttype>filter</effecttype>
							<mediatype>audio</mediatype>
							<parameter>
								<parameterid>Threshold(dB)</parameterid>
								<name>Threshold(dB)</name>
								<valuemin>-90</valuemin>
								<valuemax>0</valuemax>
								<value>-20</value>
							</parameter>
							<parameter>
								<parameterid>Ratio</parameterid>
								<name>Ratio</name>
								<valuemin>1</valuemin>
								<valuemax>100</valuemax>
								<value>2</value>
							</parameter>
							<parameter>
								<parameterid>Attack Time</parameterid>
								<name>Attack Time</name>
								<valuemin>1</valuemin>
								<valuemax>100</valuemax>
								<value>5</value>
							</parameter>
							<parameter>
								<parameterid>Release Time</parameterid>
								<name>Release Time</name>
								<valuemin>1</valuemin>
								<valuemax>4000</valuemax>
								<value>209</value>
							</parameter>
							<parameter>
								<parameterid>Preserve Volume</parameterid>
								<name>Preserve Volume</name>
								<value>TRUE</value>
							</parameter>
						</effect>
					</filter>
					<filter>
						<effect>
							<name>Audio Levels</name>
							<effectid>audiolevels</effectid>
							<effectcategory>audiolevels</effectcategory>
							<effecttype>audiolevels</effecttype>
							<mediatype>audio</mediatype>
							<parameter>
								<name>Level</name>
								<parameterid>level</parameterid>
								<valuemin>0</valuemin>
								<valuemax>3.98109</valuemax>
								<value>0.630957</value>
							</parameter>
						</effect>
					</filter>
					<filter>
						<effect>
							<name>Audio Pan</name>
							<effectid>audiopan</effectid>
							<effectcategory>audiopan</effectcategory>
							<effecttype>audiopan</effecttype>
							<mediatype>audio</mediatype>
							<parameter>
								<name>Pan</name>
								<parameterid>pan</parameterid>
								<valuemin>-1</valuemin>
								<valuemax>1</valuemax>
								<value>0</value>
							</parameter>
						</effect>
					</filter>
					<sourcetrack>
						<mediatype>audio</mediatype>
						<trackindex>4</trackindex>
					</sourcetrack>
				</clipitem>
				<transitionitem id="52">
					<rate>
						<ntsc>FALSE</ntsc>
						<timebase>25</timebase>
					</rate>
					<start>24916</start>
					<end>24918</end>
					<alignment>end-black</alignment>
					<effect>
						<name>Cross Fade ( 0dB)</name>
						<effecttype>transition</effecttype>
						<mediatype>audio</mediatype>
					</effect>
				</transitionitem>
				<clipitem id="msub200012-2308-k1d1-006 3">
					<name>msub200012-2308-k1d1-006</name>
					<duration>1390</duration>
					<rate>
						<ntsc>FALSE</ntsc>
						<timebase>25</timebase>
					</rate>
					<in>588</in>
					<out>613</out>
					<start>25009</start>
					<end>25034</end>
					<subframeoffset>0</subframeoffset>
					<enabled>TRUE</enabled>
					<masterclipid>msub200012-2308-k1d1-006 1</masterclipid>
					<logginginfo>
						<description>msub200012-2308-k1d1-006</description>
						<scene/>
						<shottake/>
						<lognote/>
						<good>FALSE</good>
					</logginginfo>
					<labels>
						<label2/>
					</labels>
					<comments>
						<mastercomment1>RÃ…STOFF. BR_FINFREDAG_MSUA_OPRO</mastercomment1>
						<mastercomment2/>
						<mastercomment3/>
						<mastercomment4/>
					</comments>
					<file id="msub200012-2308-k1d1-006 2"/>
					<filter>
						<enabled>TRUE</enabled>
						<start>-1</start>
						<end>-1</end>
						<effect>
							<name>3 Band Equalizer - Kristine</name>
							<effecttype>filter</effecttype>
							<mediatype>audio</mediatype>
							<parameter>
								<parameterid>Low Frequency</parameterid>
								<name>Low Frequency</name>
								<valuemin>80</valuemin>
								<valuemax>2000</valuemax>
								<value>80</value>
							</parameter>
							<parameter>
								<parameterid>Low Gain(dB)</parameterid>
								<name>Low Gain(dB)</name>
								<valuemin>-20</valuemin>
								<valuemax>20</valuemax>
								<value>-4</value>
							</parameter>
							<parameter>
								<parameterid>Mid Frequency</parameterid>
								<name>Mid Frequency</name>
								<valuemin>400</valuemin>
								<valuemax>8000</valuemax>
								<value>3602</value>
							</parameter>
							<parameter>
								<parameterid>Mid Gain(dB)</parameterid>
								<name>Mid Gain(dB)</name>
								<valuemin>-20</valuemin>
								<valuemax>20</valuemax>
								<value>3</value>
							</parameter>
							<parameter>
								<parameterid>High Frequency</parameterid>
								<name>High Frequency</name>
								<valuemin>5000</valuemin>
								<valuemax>20000</valuemax>
								<value>10354</value>
							</parameter>
							<parameter>
								<parameterid>High Gain(dB)</parameterid>
								<name>High Gain(dB)</name>
								<valuemin>-20</valuemin>
								<valuemax>20</valuemax>
								<value>0</value>
							</parameter>
						</effect>
					</filter>
					<filter>
						<effect>
							<name>Audio Levels</name>
							<effectid>audiolevels</effectid>
							<effectcategory>audiolevels</effectcategory>
							<effecttype>audiolevels</effecttype>
							<mediatype>audio</mediatype>
							<parameter>
								<name>Level</name>
								<parameterid>level</parameterid>
								<valuemin>0</valuemin>
								<valuemax>3.98109</valuemax>
								<keyframe>
									<when>383.857</when>
									<value>1.58489</value>
								</keyframe>
								<keyframe>
									<when>387.714</when>
									<value>0.794328</value>
								</keyframe>
								<keyframe>
									<when>402.286</when>
									<value>0.794328</value>
								</keyframe>
								<keyframe>
									<when>402.296</when>
									<value>1.25893</value>
								</keyframe>
								<keyframe>
									<when>522.286</when>
									<value>1.25893</value>
								</keyframe>
								<keyframe>
									<when>531.286</when>
									<value>0.281838</value>
								</keyframe>
								<interpolation>
									<name>FCPCurve</name>
								</interpolation>
								<value>1.99526</value>
							</parameter>
						</effect>
					</filter>
					<filter>
						<effect>
							<name>Audio Pan</name>
							<effectid>audiopan</effectid>
							<effectcategory>audiopan</effectcategory>
							<effecttype>audiopan</effecttype>
							<mediatype>audio</mediatype>
							<parameter>
								<name>Pan</name>
								<parameterid>pan</parameterid>
								<valuemin>-1</valuemin>
								<valuemax>1</valuemax>
								<value>0</value>
							</parameter>
						</effect>
					</filter>
					<sourcetrack>
						<mediatype>audio</mediatype>
						<trackindex>2</trackindex>
					</sourcetrack>
				</clipitem>
				<clipitem id="msub200012-2208k1d2-011 2">
					<name>msub200012-2208k1d2-011</name>
					<duration>6859</duration>
					<rate>
						<ntsc>FALSE</ntsc>
						<timebase>25</timebase>
					</rate>
					<in>712</in>
					<out>736</out>
					<start>25605</start>
					<end>-1</end>
					<subframeoffset>0</subframeoffset>
					<enabled>TRUE</enabled>
					<logginginfo>
						<description>msub200012-2208k1d2-011</description>
						<scene/>
						<shottake/>
						<lognote/>
						<good>FALSE</good>
					</logginginfo>
					<labels>
						<label2/>
					</labels>
					<comments>
						<mastercomment1>RÃ…STOFF. BR_FINFREDAG_MSUA_OPRO</mastercomment1>
						<mastercomment2/>
						<mastercomment3/>
						<mastercomment4/>
					</comments>
					<file id="msub200012-2208k1d2-011 1"/>
					<filter>
						<enabled>TRUE</enabled>
						<start>-1</start>
						<end>-1</end>
						<effect>
							<name>3 Band Equalizer - Kristine</name>
							<effecttype>filter</effecttype>
							<mediatype>audio</mediatype>
							<parameter>
								<parameterid>Low Frequency</parameterid>
								<name>Low Frequency</name>
								<valuemin>80</valuemin>
								<valuemax>2000</valuemax>
								<value>80</value>
							</parameter>
							<parameter>
								<parameterid>Low Gain(dB)</parameterid>
								<name>Low Gain(dB)</name>
								<valuemin>-20</valuemin>
								<valuemax>20</valuemax>
								<value>-4</value>
							</parameter>
							<parameter>
								<parameterid>Mid Frequency</parameterid>
								<name>Mid Frequency</name>
								<valuemin>400</valuemin>
								<valuemax>8000</valuemax>
								<value>3602</value>
							</parameter>
							<parameter>
								<parameterid>Mid Gain(dB)</parameterid>
								<name>Mid Gain(dB)</name>
								<valuemin>-20</valuemin>
								<valuemax>20</valuemax>
								<value>3</value>
							</parameter>
							<parameter>
								<parameterid>High Frequency</parameterid>
								<name>High Frequency</name>
								<valuemin>5000</valuemin>
								<valuemax>20000</valuemax>
								<value>10354</value>
							</parameter>
							<parameter>
								<parameterid>High Gain(dB)</parameterid>
								<name>High Gain(dB)</name>
								<valuemin>-20</valuemin>
								<valuemax>20</valuemax>
								<value>0</value>
							</parameter>
						</effect>
					</filter>
					<filter>
						<start>-1</start>
						<end>-1</end>
						<effect>
							<name>Compressor/Limiter</name>
							<effecttype>filter</effecttype>
							<mediatype>audio</mediatype>
							<parameter>
								<parameterid>Threshold(dB)</parameterid>
								<name>Threshold(dB)</name>
								<valuemin>-90</valuemin>
								<valuemax>0</valuemax>
								<value>-20</value>
							</parameter>
							<parameter>
								<parameterid>Ratio</parameterid>
								<name>Ratio</name>
								<valuemin>1</valuemin>
								<valuemax>100</valuemax>
								<value>2</value>
							</parameter>
							<parameter>
								<parameterid>Attack Time</parameterid>
								<name>Attack Time</name>
								<valuemin>1</valuemin>
								<valuemax>100</valuemax>
								<value>5</value>
							</parameter>
							<parameter>
								<parameterid>Release Time</parameterid>
								<name>Release Time</name>
								<valuemin>1</valuemin>
								<valuemax>4000</valuemax>
								<value>209</value>
							</parameter>
							<parameter>
								<parameterid>Preserve Volume</parameterid>
								<name>Preserve Volume</name>
								<value>TRUE</value>
							</parameter>
						</effect>
					</filter>
					<filter>
						<effect>
							<name>Audio Levels</name>
							<effectid>audiolevels</effectid>
							<effectcategory>audiolevels</effectcategory>
							<effecttype>audiolevels</effecttype>
							<mediatype>audio</mediatype>
							<parameter>
								<name>Level</name>
								<parameterid>level</parameterid>
								<valuemin>0</valuemin>
								<valuemax>3.98109</valuemax>
								<keyframe>
									<when>711.643</when>
									<value>1.58489</value>
								</keyframe>
								<keyframe>
									<when>714.643</when>
									<value>1.25893</value>
								</keyframe>
								<interpolation>
									<name>FCPCurve</name>
								</interpolation>
								<value>1.99526</value>
							</parameter>
						</effect>
					</filter>
					<filter>
						<effect>
							<name>Audio Pan</name>
							<effectid>audiopan</effectid>
							<effectcategory>audiopan</effectcategory>
							<effecttype>audiopan</effecttype>
							<mediatype>audio</mediatype>
							<parameter>
								<name>Pan</name>
								<parameterid>pan</parameterid>
								<valuemin>-1</valuemin>
								<valuemax>1</valuemax>
								<value>0</value>
							</parameter>
						</effect>
					</filter>
					<sourcetrack>
						<mediatype>audio</mediatype>
						<trackindex>1</trackindex>
					</sourcetrack>
					<link>
						<linkclipref>msub200012-2208k1d2-011 </linkclipref>
						<mediatype>video</mediatype>
						<trackindex>1</trackindex>
						<clipindex>104</clipindex>
					</link>
					<link>
						<linkclipref>msub200012-2208k1d2-011 2</linkclipref>
						<mediatype>audio</mediatype>
						<trackindex>4</trackindex>
						<clipindex>66</clipindex>
					</link>
				</clipitem>
				<transitionitem id="1049429180 ">
					<rate>
						<ntsc>FALSE</ntsc>
						<timebase>25</timebase>
					</rate>
					<start>25623</start>
					<end>25629</end>
					<alignment>end-black</alignment>
					<effect>
						<name>Cross Fade (+3dB) Copy</name>
						<effecttype>transition</effecttype>
						<mediatype>audio</mediatype>
					</effect>
				</transitionitem>
				<transitionitem id="1049429656 ">
					<rate>
						<ntsc>FALSE</ntsc>
						<timebase>25</timebase>
					</rate>
					<start>25634</start>
					<end>25636</end>
					<alignment>center</alignment>
					<effect>
						<name>Cross Fade (+3dB) Copy</name>
						<effecttype>transition</effecttype>
						<mediatype>audio</mediatype>
					</effect>
				</transitionitem>
				<clipitem id="msub200012-2208k1d2-010 7">
					<name>msub200012-2208k1d2-010</name>
					<duration>10049</duration>
					<rate>
						<ntsc>FALSE</ntsc>
						<timebase>25</timebase>
					</rate>
					<in>8753</in>
					<out>8789</out>
					<start>-1</start>
					<end>-1</end>
					<subframeoffset>0</subframeoffset>
					<enabled>TRUE</enabled>
					<masterclipid>msub200012-2208k1d2-010 1</masterclipid>
					<logginginfo>
						<description>msub200012-2208k1d2-010</description>
						<scene/>
						<shottake/>
						<lognote/>
						<good>FALSE</good>
					</logginginfo>
					<labels>
						<label2/>
					</labels>
					<comments>
						<mastercomment1>RÃ…STOFF. BR_FINFREDAG_MSUA_OPRO</mastercomment1>
						<mastercomment2/>
						<mastercomment3/>
						<mastercomment4/>
					</comments>
					<file id="msub200012-2208k1d2-010 2"/>
					<filter>
						<enabled>TRUE</enabled>
						<start>-1</start>
						<end>-1</end>
						<effect>
							<name>3 Band Equalizer - Mann</name>
							<effecttype>filter</effecttype>
							<mediatype>audio</mediatype>
							<parameter>
								<parameterid>Low Frequency</parameterid>
								<name>Low Frequency</name>
								<valuemin>80</valuemin>
								<valuemax>2000</valuemax>
								<value>100</value>
							</parameter>
							<parameter>
								<parameterid>Low Gain(dB)</parameterid>
								<name>Low Gain(dB)</name>
								<valuemin>-20</valuemin>
								<valuemax>20</valuemax>
								<value>-4</value>
							</parameter>
							<parameter>
								<parameterid>Mid Frequency</parameterid>
								<name>Mid Frequency</name>
								<valuemin>400</valuemin>
								<valuemax>8000</valuemax>
								<value>3602</value>
							</parameter>
							<parameter>
								<parameterid>Mid Gain(dB)</parameterid>
								<name>Mid Gain(dB)</name>
								<valuemin>-20</valuemin>
								<valuemax>20</valuemax>
								<value>3</value>
							</parameter>
							<parameter>
								<parameterid>High Frequency</parameterid>
								<name>High Frequency</name>
								<valuemin>5000</valuemin>
								<valuemax>20000</valuemax>
								<value>10354</value>
							</parameter>
							<parameter>
								<parameterid>High Gain(dB)</parameterid>
								<name>High Gain(dB)</name>
								<valuemin>-20</valuemin>
								<valuemax>20</valuemax>
								<value>0</value>
							</parameter>
						</effect>
					</filter>
					<filter>
						<start>-1</start>
						<end>-1</end>
						<effect>
							<name>Compressor/Limiter</name>
							<effecttype>filter</effecttype>
							<mediatype>audio</mediatype>
							<parameter>
								<parameterid>Threshold(dB)</parameterid>
								<name>Threshold(dB)</name>
								<valuemin>-90</valuemin>
								<valuemax>0</valuemax>
								<value>-20</value>
							</parameter>
							<parameter>
								<parameterid>Ratio</parameterid>
								<name>Ratio</name>
								<valuemin>1</valuemin>
								<valuemax>100</valuemax>
								<value>2</value>
							</parameter>
							<parameter>
								<parameterid>Attack Time</parameterid>
								<name>Attack Time</name>
								<valuemin>1</valuemin>
								<valuemax>100</valuemax>
								<value>5</value>
							</parameter>
							<parameter>
								<parameterid>Release Time</parameterid>
								<name>Release Time</name>
								<valuemin>1</valuemin>
								<valuemax>4000</valuemax>
								<value>209</value>
							</parameter>
							<parameter>
								<parameterid>Preserve Volume</parameterid>
								<name>Preserve Volume</name>
								<value>TRUE</value>
							</parameter>
						</effect>
					</filter>
					<filter>
						<effect>
							<name>Audio Levels</name>
							<effectid>audiolevels</effectid>
							<effectcategory>audiolevels</effectcategory>
							<effecttype>audiolevels</effecttype>
							<mediatype>audio</mediatype>
							<parameter>
								<name>Level</name>
								<parameterid>level</parameterid>
								<valuemin>0</valuemin>
								<valuemax>3.98109</valuemax>
								<keyframe>
									<when>8788.57</when>
									<value>1</value>
								</keyframe>
								<keyframe>
									<when>8792.43</when>
									<value>0.00707946</value>
								</keyframe>
								<keyframe>
									<when>8815.57</when>
									<value>0.0112202</value>
								</keyframe>
								<keyframe>
									<when>8825.86</when>
									<value>0.398107</value>
								</keyframe>
								<interpolation>
									<name>FCPCurve</name>
								</interpolation>
								<value>1</value>
							</parameter>
						</effect>
					</filter>
					<filter>
						<effect>
							<name>Audio Pan</name>
							<effectid>audiopan</effectid>
							<effectcategory>audiopan</effectcategory>
							<effecttype>audiopan</effecttype>
							<mediatype>audio</mediatype>
							<parameter>
								<name>Pan</name>
								<parameterid>pan</parameterid>
								<valuemin>-1</valuemin>
								<valuemax>1</valuemax>
								<value>0</value>
							</parameter>
						</effect>
					</filter>
					<sourcetrack>
						<mediatype>audio</mediatype>
						<trackindex>2</trackindex>
					</sourcetrack>
				</clipitem>
				<transitionitem id="53">
					<rate>
						<ntsc>FALSE</ntsc>
						<timebase>25</timebase>
					</rate>
					<start>25668</start>
					<end>25670</end>
					<alignment>end-black</alignment>
					<effect>
						<name>Cross Fade ( 0dB)</name>
						<effecttype>transition</effecttype>
						<mediatype>audio</mediatype>
					</effect>
				</transitionitem>
				<transitionitem id="1049433872 ">
					<rate>
						<ntsc>FALSE</ntsc>
						<timebase>25</timebase>
					</rate>
					<start>28327</start>
					<end>28333</end>
					<alignment>center</alignment>
					<effect>
						<name>Cross Fade (+3dB)</name>
						<effecttype>transition</effecttype>
						<mediatype>audio</mediatype>
					</effect>
				</transitionitem>
				<clipitem id="02 MEXICAN SUNSHINE --- lively guaracha featuring     trombone.aif3">
					<name>02 MEXICAN SUNSHINE --- lively guaracha featuring     trombone.aif</name>
					<duration>3905</duration>
					<rate>
						<ntsc>FALSE</ntsc>
						<timebase>25</timebase>
					</rate>
					<in>332</in>
					<out>770</out>
					<start>-1</start>
					<end>-1</end>
					<subframeoffset>0</subframeoffset>
					<enabled>TRUE</enabled>
					<masterclipid>02 MEXICAN SUNSHINE --- lively guaracha featuring     trombone.aif1</masterclipid>
					<logginginfo>
						<scene/>
						<shottake/>
						<lognote/>
						<good>FALSE</good>
					</logginginfo>
					<labels>
						<label2/>
					</labels>
					<comments>
						<mastercomment1/>
						<mastercomment2/>
						<mastercomment3/>
						<mastercomment4/>
					</comments>
					<file id="02 MEXICAN SUNSHINE --- lively guaracha featuring     trombone"/>
					<filter>
						<enabled>TRUE</enabled>
						<start>-1</start>
						<end>-1</end>
						<effect>
							<name>AUMultibandCompressor</name>
							<effecttype>filter</effecttype>
							<mediatype>audio</mediatype>
							<parameter>
								<parameterid>pre-gain</parameterid>
								<name>pre-gain</name>
								<valuemin>-40</valuemin>
								<valuemax>40</valuemax>
								<value>0</value>
							</parameter>
							<parameter>
								<parameterid>post-gain</parameterid>
								<name>post-gain</name>
								<valuemin>-40</valuemin>
								<valuemax>40</valuemax>
								<value>0</value>
							</parameter>
							<parameter>
								<parameterid>crossover 1</parameterid>
								<name>crossover 1</name>
								<valuemin>20</valuemin>
								<valuemax>22050</valuemax>
								<value>120</value>
							</parameter>
							<parameter>
								<parameterid>crossover 2</parameterid>
								<name>crossover 2</name>
								<valuemin>20</valuemin>
								<valuemax>22050</valuemax>
								<value>700</value>
							</parameter>
							<parameter>
								<parameterid>crossover 3</parameterid>
								<name>crossover 3</name>
								<valuemin>20</valuemin>
								<valuemax>22050</valuemax>
								<value>3000</value>
							</parameter>
							<parameter>
								<parameterid>threshold 1</parameterid>
								<name>threshold 1</name>
								<valuemin>-100</valuemin>
								<valuemax>0</valuemax>
								<value>-22</value>
							</parameter>
							<parameter>
								<parameterid>threshold 2</parameterid>
								<name>threshold 2</name>
								<valuemin>-100</valuemin>
								<valuemax>0</valuemax>
								<value>-32.5</value>
							</parameter>
							<parameter>
								<parameterid>threshold 3</parameterid>
								<name>threshold 3</name>
								<valuemin>-100</valuemin>
								<valuemax>0</valuemax>
								<value>-38</value>
							</parameter>
							<parameter>
								<parameterid>threshold 4</parameterid>
								<name>threshold 4</name>
								<valuemin>-100</valuemin>
								<valuemax>0</valuemax>
								<value>-36</value>
							</parameter>
							<parameter>
								<parameterid>headroom 1</parameterid>
								<name>headroom 1</name>
								<valuemin>0.1</valuemin>
								<valuemax>40</valuemax>
								<value>5</value>
							</parameter>
							<parameter>
								<parameterid>headroom 2</parameterid>
								<name>headroom 2</name>
								<valuemin>0.1</valuemin>
								<valuemax>40</valuemax>
								<value>12</value>
							</parameter>
							<parameter>
								<parameterid>headroom 3</parameterid>
								<name>headroom 3</name>
								<valuemin>0.1</valuemin>
								<valuemax>40</valuemax>
								<value>5</value>
							</parameter>
							<parameter>
								<parameterid>headroom 4</parameterid>
								<name>headroom 4</name>
								<valuemin>0.1</valuemin>
								<valuemax>40</valuemax>
								<value>7.5</value>
							</parameter>
							<parameter>
								<parameterid>attack time</parameterid>
								<name>attack time</name>
								<valuemin>0.001</valuemin>
								<valuemax>0.2</valuemax>
								<value>0.08</value>
							</parameter>
							<parameter>
								<parameterid>release time</parameterid>
								<name>release time</name>
								<valuemin>0.01</valuemin>
								<valuemax>3</valuemax>
								<value>0.12</value>
							</parameter>
							<parameter>
								<parameterid>EQ 1</parameterid>
								<name>EQ 1</name>
								<valuemin>-20</valuemin>
								<valuemax>20</valuemax>
								<value>-10</value>
							</parameter>
							<parameter>
								<parameterid>EQ 2</parameterid>
								<name>EQ 2</name>
								<valuemin>-20</valuemin>
								<valuemax>20</valuemax>
								<value>-3</value>
							</parameter>
							<parameter>
								<parameterid>EQ 3</parameterid>
								<name>EQ 3</name>
								<valuemin>-20</valuemin>
								<valuemax>20</valuemax>
								<value>6</value>
							</parameter>
							<parameter>
								<parameterid>EQ 4</parameterid>
								<name>EQ 4</name>
								<valuemin>-20</valuemin>
								<valuemax>20</valuemax>
								<value>-3</value>
							</parameter>
							<parameter>
								<parameterid>comp amount 1</parameterid>
								<name>comp amount 1</name>
								<valuemin>0</valuemin>
								<valuemax>20</valuemax>
								<value>0</value>
							</parameter>
							<parameter>
								<parameterid>comp amount 2</parameterid>
								<name>comp amount 2</name>
								<valuemin>0</valuemin>
								<valuemax>20</valuemax>
								<value>0</value>
							</parameter>
							<parameter>
								<parameterid>comp amount 3</parameterid>
								<name>comp amount 3</name>
								<valuemin>0</valuemin>
								<valuemax>20</valuemax>
								<value>0</value>
							</parameter>
							<parameter>
								<parameterid>comp amount 4</parameterid>
								<name>comp amount 4</name>
								<valuemin>0</valuemin>
								<valuemax>20</valuemax>
								<value>0</value>
							</parameter>
							<parameter>
								<parameterid>input amp 1</parameterid>
								<name>input amp 1</name>
								<valuemin>-120</valuemin>
								<valuemax>20</valuemax>
								<value>0</value>
							</parameter>
							<parameter>
								<parameterid>input amp 2</parameterid>
								<name>input amp 2</name>
								<valuemin>-120</valuemin>
								<valuemax>20</valuemax>
								<value>0</value>
							</parameter>
							<parameter>
								<parameterid>input amp 3</parameterid>
								<name>input amp 3</name>
								<valuemin>-120</valuemin>
								<valuemax>20</valuemax>
								<value>0</value>
							</parameter>
							<parameter>
								<parameterid>input amp 4</parameterid>
								<name>input amp 4</name>
								<valuemin>-120</valuemin>
								<valuemax>20</valuemax>
								<value>0</value>
							</parameter>
							<parameter>
								<parameterid>output amp 1</parameterid>
								<name>output amp 1</name>
								<valuemin>-120</valuemin>
								<valuemax>20</valuemax>
								<value>0</value>
							</parameter>
							<parameter>
								<parameterid>output amp 2</parameterid>
								<name>output amp 2</name>
								<valuemin>-120</valuemin>
								<valuemax>20</valuemax>
								<value>0</value>
							</parameter>
							<parameter>
								<parameterid>output amp 3</parameterid>
								<name>output amp 3</name>
								<valuemin>-120</valuemin>
								<valuemax>20</valuemax>
								<value>0</value>
							</parameter>
							<parameter>
								<parameterid>output amp 4</parameterid>
								<name>output amp 4</name>
								<valuemin>-120</valuemin>
								<valuemax>20</valuemax>
								<value>0</value>
							</parameter>
						</effect>
					</filter>
					<filter>
						<effect>
							<name>Audio Levels</name>
							<effectid>audiolevels</effectid>
							<effectcategory>audiolevels</effectcategory>
							<effecttype>audiolevels</effecttype>
							<mediatype>audio</mediatype>
							<parameter>
								<name>Level</name>
								<parameterid>level</parameterid>
								<valuemin>0</valuemin>
								<valuemax>3.98109</valuemax>
								<keyframe>
									<when>381.357</when>
									<value>0.562341</value>
								</keyframe>
								<keyframe>
									<when>392.607</when>
									<value>0.891251</value>
								</keyframe>
								<keyframe>
									<when>490.107</when>
									<value>0.891251</value>
								</keyframe>
								<keyframe>
									<when>501.357</when>
									<value>0.630957</value>
								</keyframe>
								<interpolation>
									<name>FCPCurve</name>
								</interpolation>
								<value>0.510049</value>
							</parameter>
						</effect>
					</filter>
					<filter>
						<effect>
							<name>Audio Pan</name>
							<effectid>audiopan</effectid>
							<effectcategory>audiopan</effectcategory>
							<effecttype>audiopan</effecttype>
							<mediatype>audio</mediatype>
							<parameter>
								<name>Pan</name>
								<parameterid>pan</parameterid>
								<valuemin>-1</valuemin>
								<valuemax>1</valuemax>
								<value>-1</value>
							</parameter>
						</effect>
					</filter>
					<sourcetrack>
						<mediatype>audio</mediatype>
						<trackindex>1</trackindex>
					</sourcetrack>
					<link>
						<linkclipref>02 MEXICAN SUNSHINE --- lively guaracha featuring     trombone.aif3</linkclipref>
						<mediatype>audio</mediatype>
						<trackindex>4</trackindex>
						<clipindex>72</clipindex>
						<groupindex>1</groupindex>
					</link>
					<link>
						<linkclipref>02 MEXICAN SUNSHINE --- lively guaracha featuring     trombone.aif4</linkclipref>
						<mediatype>audio</mediatype>
						<trackindex>5</trackindex>
						<clipindex>22</clipindex>
						<groupindex>1</groupindex>
					</link>
				</clipitem>
				<transitionitem id="54">
					<rate>
						<ntsc>FALSE</ntsc>
						<timebase>25</timebase>
					</rate>
					<start>28740</start>
					<end>28765</end>
					<alignment>end-black</alignment>
					<effect>
						<name>Cross Fade (+3dB)</name>
						<effecttype>transition</effecttype>
						<mediatype>audio</mediatype>
					</effect>
				</transitionitem>
				<transitionitem id="1049440128 ">
					<rate>
						<ntsc>FALSE</ntsc>
						<timebase>25</timebase>
					</rate>
					<start>29810</start>
					<end>29820</end>
					<alignment>start-black</alignment>
					<effect>
						<name>Cross Fade ( 0dB)</name>
						<effecttype>transition</effecttype>
						<mediatype>audio</mediatype>
					</effect>
				</transitionitem>
				<clipitem id="FUHA06001785 4">
					<name>FUHA06001785</name>
					<duration>113650</duration>
					<rate>
						<ntsc>FALSE</ntsc>
						<timebase>25</timebase>
					</rate>
					<in>106352</in>
					<out>106819</out>
					<start>-1</start>
					<end>30277</end>
					<subframeoffset>0</subframeoffset>
					<masterclipid>FUHA06001785 1</masterclipid>
					<logginginfo>
						<description>Melodi Grand Prix 1985 - Internasjonal finale</description>
						<scene/>
						<shottake/>
						<lognote>ALLE rettigheter mÃ¥ sjekkes FÃ˜R ethvert bruk - uansett lengde!!!!!</lognote>
						<good>FALSE</good>
					</logginginfo>
					<labels>
						<label2/>
					</labels>
					<comments>
						<mastercomment1>ARKIVSTOFF. BR_FINFREDAG_MSUA_OPRO</mastercomment1>
						<mastercomment2>SVT1 / EBU. </mastercomment2>
						<mastercomment3>Sendt: 1985-05-04. </mastercomment3>
						<mastercomment4>Den internasjonale finalen i GÃ–teborg. Konferansier: Lill Lindfors. Norsk kommentar VeslemÃ¸y Kjendsli. Ã…pningsvignett. Presentasjon GÃ–teborg. Ekstr. Scandinavium. Lill LINDFORS synger "My house is built of music". Orkesterleder Curt-Eric HOLMQUIST. Den fÃ¸rste MGP-vinneren, Lys ASSIA fra Sveits i salen. 1) Irland. "Wait until the weekend comes". Sang: Maria CHRISTIAN. Komponist: Brendan GRAHAM. Dirigent: Noel KELEHAN. 2) Finland. "ElÃ¤kÃ¶Ã¶n elÃ¤mÃ¤". S: Sonja LUMME. K/T: Petri LAAKSONEN / Veli-Pekka LEHTO. D: Ossi RUNNE. 3) Kypros. "To katalava arga". S/K/T: Lia VISSI. D: Charis ANDDREADIS. 4) Danmark. "Sku' du spÃ¶r' fra noen". S: Hot Eyes. K/T: SÃ¸ren BUNDGAARD / Keld HEICK. D: Wolfgang KÃ„FER. 5) Spania. "La fiesta termino". S: Paloma San BASILIO. K/T/D: Juan-Carlos CALDERON. 6) Frankrike. "Femme dans ses reves aussi". S: Roger BENS. K/T: Didier PASCALIS. D: Michel BERNHOLE. 7) Tyrkia. "Didai didai dai". S: Gruppen MFO:, ogsÃ¥ K/T: Fuat GÃœNER, Ã¶zkan UGUR, Mazhar ALANSON. D: Garo MAFYAN. 8) Belgia. "Laat me nu gaan". S: Linda LEPOMME. K/T: Pieter VERLINDEN, Bert VIVIER. D: Curt-Eric HOLMQUIST. 9) Portugal. "Penso em ti, eu sei". S: ADELAIDE. K/T: Toze BRITO / Adelaide FERREIRA / Luis FERNANDO. D: Jose CALVARIO. 10) Vest-Tyskland. "FÃ¼r alle". S: WIND. K/T: Hanne HALLER. D: Rainer PIETSCH. 11) Israel. "Ole, ole". S: Yizhar COHEN. K/D: Kobi OSHRAT. 12) Italia. "Magic, oh magic". S: Al BANO, Romina POWER. K: Dario FARINA, Michael HOFMAN. D: Fiorenzo ZANOTTI. 13) Norge. "La det swinge". S: Bobbysocks ( Elizabeth ANDREASSON / Hanne KROGH ). K/T: Rolf LÃ˜VLAND. D: Terje FJÃ†RN. 14) Storbritannia. "Love is". S: Vikki WATSON. K/T: James KALETH / Vikki WATSON. D: John COLEMAN. 15) Sveits. "Piano, piano". S: Mariella FARRE, Pino CASPARINI. K/T: Anita KERR / Trudi MÃœLLER-BOSSHARD. D: Anita KERR. 16) Sverige. "Bra vibrationer". S: Kikki DANIELSSON. K/T: Lasse HOLM / Ingela FORSMAN. D: Curt-Eric HOLMQUIST. 17) Ã˜sterrike. "Kinder dieser Welt". S: Gary LUX. K/T: Mick JACKSON, Geoff BASTOW / Michael KUNZE. D: Richard OESTERREICHER. 18) Luxembourg. "Children, Kinder, enfants". S: MARGO / F. OLIVIER / C. ROBERTS / M. ROBERTS / I. SHEER / D. SOLOMON. K/T: Ralph SIEGEL / Jean- Michelk BERIAT, Bernd MEINUNGER. D: Norbert DAUM. 19) Hellas. "Miazoume". S: Takis BINIARIS. K/T: Takis BINIARIS / Maro BIZANI. D: Charis ANDREADIS.. Gruppen Guitars Unlimited ( Peter ALMQUIST, Ulf WAKENIUS ) spiller. Lill LINDFORS "mister" underdelen pÃ¥ kjolen. Kveldens overdommer Frank NEFF. Stemmegivning. Ellevill stemning bak scenen, Norge og BOBBYSOCKS vinner! FjorÃ¥rets vinner, gruppen Herreys kÃ¥rer Ã¥rets vinner. Rolf LÃ˜VLAND, tekst og melodi, fram pÃ¥ scenen. Deretter Hanne KROGH og Elisabeth ANDREASSON fremfÃ¸rer vinnermelodien "La det swinge". (Publikumsglimt Lisbeth Larness RoÃ¥s og Hans Kristian RoÃ¥s)..</mastercomment4>
						<clipcommenta/>
						<clipcommentb>1:F-miks 2:F-miks.4x3 PAL.</clipcommentb>
					</comments>
					<file id="FUHA06001785 2"/>
					<filter>
						<effect>
							<name>Audio Levels</name>
							<effectid>audiolevels</effectid>
							<effectcategory>audiolevels</effectcategory>
							<effecttype>audiolevels</effecttype>
							<mediatype>audio</mediatype>
							<parameter>
								<name>Level</name>
								<parameterid>level</parameterid>
								<valuemin>0</valuemin>
								<valuemax>3.98109</valuemax>
								<keyframe>
									<when>106626</when>
									<value>0.794328</value>
								</keyframe>
								<keyframe>
									<when>106707</when>
									<value>0.141254</value>
								</keyframe>
								<keyframe>
									<when>106772</when>
									<value>0.0630957</value>
								</keyframe>
								<keyframe>
									<when>106787</when>
									<value>0.0177828</value>
								</keyframe>
								<keyframe>
									<when>106814</when>
									<value>0</value>
								</keyframe>
								<interpolation>
									<name>FCPCurve</name>
								</interpolation>
								<value>0.886198</value>
							</parameter>
						</effect>
					</filter>
					<filter>
						<effect>
							<name>Audio Pan</name>
							<effectid>audiopan</effectid>
							<effectcategory>audiopan</effectcategory>
							<effecttype>audiopan</effecttype>
							<mediatype>audio</mediatype>
							<parameter>
								<name>Pan</name>
								<parameterid>pan</parameterid>
								<valuemin>-1</valuemin>
								<valuemax>1</valuemax>
								<value>1</value>
							</parameter>
						</effect>
					</filter>
					<sourcetrack>
						<mediatype>audio</mediatype>
						<trackindex>2</trackindex>
					</sourcetrack>
				</clipitem>
				<transitionitem id="1049441216 ">
					<rate>
						<ntsc>FALSE</ntsc>
						<timebase>25</timebase>
					</rate>
					<start>30308</start>
					<end>30310</end>
					<alignment>start-black</alignment>
					<effect>
						<name>Cross Fade (+3dB) Copy</name>
						<effecttype>transition</effecttype>
						<mediatype>audio</mediatype>
					</effect>
				</transitionitem>
				<clipitem id="msub200012-3011-k1d2-008 23">
					<name>msub200012-3011-k1d2-008</name>
					<duration>9650</duration>
					<rate>
						<ntsc>FALSE</ntsc>
						<timebase>25</timebase>
					</rate>
					<in>6034</in>
					<out>6454</out>
					<start>-1</start>
					<end>30728</end>
					<subframeoffset>0</subframeoffset>
					<masterclipid>msub200012-3011-k1d2-008 1</masterclipid>
					<syncoffset>0</syncoffset>
					<logginginfo>
						<description>msub200012-3011-k1d2-008</description>
						<scene/>
						<shottake/>
						<lognote/>
						<good>FALSE</good>
					</logginginfo>
					<labels>
						<label>Good Take</label>
						<label2/>
					</labels>
					<comments>
						<mastercomment1>RÃ…STOFF. BR_FINFREDAG_MSUA_OPRO</mastercomment1>
						<mastercomment2/>
						<mastercomment3/>
						<mastercomment4/>
						<clipcommenta/>
					</comments>
					<file id="msub200012-3011-k1d2-008 2"/>
					<filter>
						<enabled>TRUE</enabled>
						<start>-1</start>
						<end>-1</end>
						<effect>
							<name>3 Band Equalizer - Kristine</name>
							<effecttype>filter</effecttype>
							<mediatype>audio</mediatype>
							<parameter>
								<parameterid>Low Frequency</parameterid>
								<name>Low Frequency</name>
								<valuemin>80</valuemin>
								<valuemax>2000</valuemax>
								<value>80</value>
							</parameter>
							<parameter>
								<parameterid>Low Gain(dB)</parameterid>
								<name>Low Gain(dB)</name>
								<valuemin>-20</valuemin>
								<valuemax>20</valuemax>
								<value>-4</value>
							</parameter>
							<parameter>
								<parameterid>Mid Frequency</parameterid>
								<name>Mid Frequency</name>
								<valuemin>400</valuemin>
								<valuemax>8000</valuemax>
								<value>3602</value>
							</parameter>
							<parameter>
								<parameterid>Mid Gain(dB)</parameterid>
								<name>Mid Gain(dB)</name>
								<valuemin>-20</valuemin>
								<valuemax>20</valuemax>
								<value>3</value>
							</parameter>
							<parameter>
								<parameterid>High Frequency</parameterid>
								<name>High Frequency</name>
								<valuemin>5000</valuemin>
								<valuemax>20000</valuemax>
								<value>10354</value>
							</parameter>
							<parameter>
								<parameterid>High Gain(dB)</parameterid>
								<name>High Gain(dB)</name>
								<valuemin>-20</valuemin>
								<valuemax>20</valuemax>
								<value>0</value>
							</parameter>
						</effect>
					</filter>
					<filter>
						<enabled>TRUE</enabled>
						<start>-1</start>
						<end>-1</end>
						<effect>
							<name>Compressor/Limiter</name>
							<effecttype>filter</effecttype>
							<mediatype>audio</mediatype>
							<parameter>
								<parameterid>Threshold(dB)</parameterid>
								<name>Threshold(dB)</name>
								<valuemin>-90</valuemin>
								<valuemax>0</valuemax>
								<value>-20</value>
							</parameter>
							<parameter>
								<parameterid>Ratio</parameterid>
								<name>Ratio</name>
								<valuemin>1</valuemin>
								<valuemax>100</valuemax>
								<value>2</value>
							</parameter>
							<parameter>
								<parameterid>Attack Time</parameterid>
								<name>Attack Time</name>
								<valuemin>1</valuemin>
								<valuemax>100</valuemax>
								<value>5</value>
							</parameter>
							<parameter>
								<parameterid>Release Time</parameterid>
								<name>Release Time</name>
								<valuemin>1</valuemin>
								<valuemax>4000</valuemax>
								<value>209</value>
							</parameter>
							<parameter>
								<parameterid>Preserve Volume</parameterid>
								<name>Preserve Volume</name>
								<value>TRUE</value>
							</parameter>
						</effect>
					</filter>
					<filter>
						<effect>
							<name>Audio Levels</name>
							<effectid>audiolevels</effectid>
							<effectcategory>audiolevels</effectcategory>
							<effecttype>audiolevels</effecttype>
							<mediatype>audio</mediatype>
							<parameter>
								<name>Level</name>
								<parameterid>level</parameterid>
								<valuemin>0</valuemin>
								<valuemax>3.98109</valuemax>
								<value>0.0354813</value>
							</parameter>
						</effect>
					</filter>
					<filter>
						<effect>
							<name>Audio Pan</name>
							<effectid>audiopan</effectid>
							<effectcategory>audiopan</effectcategory>
							<effecttype>audiopan</effecttype>
							<mediatype>audio</mediatype>
							<parameter>
								<name>Pan</name>
								<parameterid>pan</parameterid>
								<valuemin>-1</valuemin>
								<valuemax>1</valuemax>
								<value>0</value>
							</parameter>
						</effect>
					</filter>
					<sourcetrack>
						<mediatype>audio</mediatype>
						<trackindex>2</trackindex>
					</sourcetrack>
					<link>
						<linkclipref>msub200012-3011-k1d2-008 22</linkclipref>
						<mediatype>audio</mediatype>
						<trackindex>3</trackindex>
						<clipindex>43</clipindex>
					</link>
					<link>
						<linkclipref>msub200012-3011-k1d2-008 23</linkclipref>
						<mediatype>audio</mediatype>
						<trackindex>4</trackindex>
						<clipindex>77</clipindex>
					</link>
				</clipitem>
				<clipitem id="msub200012-3011-k1d2-008 25">
					<name>msub200012-3011-k1d2-008</name>
					<duration>9650</duration>
					<rate>
						<ntsc>FALSE</ntsc>
						<timebase>25</timebase>
					</rate>
					<in>6558</in>
					<out>6833</out>
					<start>30728</start>
					<end>-1</end>
					<subframeoffset>0</subframeoffset>
					<masterclipid>msub200012-3011-k1d2-008 1</masterclipid>
					<syncoffset>0</syncoffset>
					<logginginfo>
						<description>msub200012-3011-k1d2-008</description>
						<scene/>
						<shottake/>
						<lognote/>
						<good>FALSE</good>
					</logginginfo>
					<labels>
						<label>Good Take</label>
						<label2/>
					</labels>
					<comments>
						<mastercomment1>RÃ…STOFF. BR_FINFREDAG_MSUA_OPRO</mastercomment1>
						<mastercomment2/>
						<mastercomment3/>
						<mastercomment4/>
						<clipcommenta/>
					</comments>
					<file id="msub200012-3011-k1d2-008 2"/>
					<filter>
						<enabled>TRUE</enabled>
						<start>-1</start>
						<end>-1</end>
						<effect>
							<name>3 Band Equalizer - Kristine</name>
							<effecttype>filter</effecttype>
							<mediatype>audio</mediatype>
							<parameter>
								<parameterid>Low Frequency</parameterid>
								<name>Low Frequency</name>
								<valuemin>80</valuemin>
								<valuemax>2000</valuemax>
								<value>80</value>
							</parameter>
							<parameter>
								<parameterid>Low Gain(dB)</parameterid>
								<name>Low Gain(dB)</name>
								<valuemin>-20</valuemin>
								<valuemax>20</valuemax>
								<value>-4</value>
							</parameter>
							<parameter>
								<parameterid>Mid Frequency</parameterid>
								<name>Mid Frequency</name>
								<valuemin>400</valuemin>
								<valuemax>8000</valuemax>
								<value>3602</value>
							</parameter>
							<parameter>
								<parameterid>Mid Gain(dB)</parameterid>
								<name>Mid Gain(dB)</name>
								<valuemin>-20</valuemin>
								<valuemax>20</valuemax>
								<value>3</value>
							</parameter>
							<parameter>
								<parameterid>High Frequency</parameterid>
								<name>High Frequency</name>
								<valuemin>5000</valuemin>
								<valuemax>20000</valuemax>
								<value>10354</value>
							</parameter>
							<parameter>
								<parameterid>High Gain(dB)</parameterid>
								<name>High Gain(dB)</name>
								<valuemin>-20</valuemin>
								<valuemax>20</valuemax>
								<value>0</value>
							</parameter>
						</effect>
					</filter>
					<filter>
						<enabled>TRUE</enabled>
						<start>-1</start>
						<end>-1</end>
						<effect>
							<name>Compressor/Limiter</name>
							<effecttype>filter</effecttype>
							<mediatype>audio</mediatype>
							<parameter>
								<parameterid>Threshold(dB)</parameterid>
								<name>Threshold(dB)</name>
								<valuemin>-90</valuemin>
								<valuemax>0</valuemax>
								<value>-20</value>
							</parameter>
							<parameter>
								<parameterid>Ratio</parameterid>
								<name>Ratio</name>
								<valuemin>1</valuemin>
								<valuemax>100</valuemax>
								<value>2</value>
							</parameter>
							<parameter>
								<parameterid>Attack Time</parameterid>
								<name>Attack Time</name>
								<valuemin>1</valuemin>
								<valuemax>100</valuemax>
								<value>5</value>
							</parameter>
							<parameter>
								<parameterid>Release Time</parameterid>
								<name>Release Time</name>
								<valuemin>1</valuemin>
								<valuemax>4000</valuemax>
								<value>209</value>
							</parameter>
							<parameter>
								<parameterid>Preserve Volume</parameterid>
								<name>Preserve Volume</name>
								<value>TRUE</value>
							</parameter>
						</effect>
					</filter>
					<filter>
						<effect>
							<name>Audio Levels</name>
							<effectid>audiolevels</effectid>
							<effectcategory>audiolevels</effectcategory>
							<effecttype>audiolevels</effecttype>
							<mediatype>audio</mediatype>
							<parameter>
								<name>Level</name>
								<parameterid>level</parameterid>
								<valuemin>0</valuemin>
								<valuemax>3.98109</valuemax>
								<value>0.0354813</value>
							</parameter>
						</effect>
					</filter>
					<filter>
						<effect>
							<name>Audio Pan</name>
							<effectid>audiopan</effectid>
							<effectcategory>audiopan</effectcategory>
							<effecttype>audiopan</effecttype>
							<mediatype>audio</mediatype>
							<parameter>
								<name>Pan</name>
								<parameterid>pan</parameterid>
								<valuemin>-1</valuemin>
								<valuemax>1</valuemax>
								<value>0</value>
							</parameter>
						</effect>
					</filter>
					<sourcetrack>
						<mediatype>audio</mediatype>
						<trackindex>2</trackindex>
					</sourcetrack>
					<link>
						<linkclipref>msub200012-3011-k1d2-008 24</linkclipref>
						<mediatype>audio</mediatype>
						<trackindex>3</trackindex>
						<clipindex>45</clipindex>
					</link>
					<link>
						<linkclipref>msub200012-3011-k1d2-008 25</linkclipref>
						<mediatype>audio</mediatype>
						<trackindex>4</trackindex>
						<clipindex>78</clipindex>
					</link>
				</clipitem>
				<transitionitem id="1049447676 ">
					<rate>
						<ntsc>FALSE</ntsc>
						<timebase>25</timebase>
					</rate>
					<start>30997</start>
					<end>31003</end>
					<alignment>center</alignment>
					<effect>
						<name>Cross Fade (+3dB) Copy</name>
						<effecttype>transition</effecttype>
						<mediatype>audio</mediatype>
					</effect>
				</transitionitem>
				<clipitem id="AUXMP_RSM010437_HEAVY URBAN STING.mp3 2">
					<name>AUXMP_RSM010437_HEAVY URBAN STING.mp3</name>
					<duration>396</duration>
					<rate>
						<ntsc>FALSE</ntsc>
						<timebase>25</timebase>
					</rate>
					<in>151</in>
					<out>315</out>
					<start>31955</start>
					<end>-1</end>
					<subframeoffset>0</subframeoffset>
					<enabled>TRUE</enabled>
					<masterclipid>AUXMP_RSM010437_HEAVY URBAN STING.mp3 1</masterclipid>
					<logginginfo>
						<scene/>
						<shottake/>
						<lognote/>
						<good>FALSE</good>
					</logginginfo>
					<labels>
						<label2/>
					</labels>
					<comments>
						<mastercomment1/>
						<mastercomment2/>
						<mastercomment3/>
						<mastercomment4/>
					</comments>
					<file id="AUXMP_RSM010437_HEAVY URBAN STING"/>
					<filter>
						<effect>
							<name>Audio Levels</name>
							<effectid>audiolevels</effectid>
							<effectcategory>audiolevels</effectcategory>
							<effecttype>audiolevels</effecttype>
							<mediatype>audio</mediatype>
							<parameter>
								<name>Level</name>
								<parameterid>level</parameterid>
								<valuemin>0</valuemin>
								<valuemax>3.98109</valuemax>
								<value>0.316228</value>
							</parameter>
						</effect>
					</filter>
					<filter>
						<effect>
							<name>Audio Pan</name>
							<effectid>audiopan</effectid>
							<effectcategory>audiopan</effectcategory>
							<effecttype>audiopan</effecttype>
							<mediatype>audio</mediatype>
							<parameter>
								<name>Pan</name>
								<parameterid>pan</parameterid>
								<valuemin>-1</valuemin>
								<valuemax>1</valuemax>
								<value>1</value>
							</parameter>
						</effect>
					</filter>
					<sourcetrack>
						<mediatype>audio</mediatype>
						<trackindex>2</trackindex>
					</sourcetrack>
					<link>
						<linkclipref>AUXMP_RSM010437_HEAVY URBAN STING.mp3 </linkclipref>
						<mediatype>audio</mediatype>
						<trackindex>3</trackindex>
						<clipindex>47</clipindex>
						<groupindex>1</groupindex>
					</link>
					<link>
						<linkclipref>AUXMP_RSM010437_HEAVY URBAN STING.mp3 2</linkclipref>
						<mediatype>audio</mediatype>
						<trackindex>4</trackindex>
						<clipindex>80</clipindex>
						<groupindex>1</groupindex>
					</link>
				</clipitem>
				<transitionitem id="1049448424 ">
					<rate>
						<ntsc>FALSE</ntsc>
						<timebase>25</timebase>
					</rate>
					<start>32094</start>
					<end>32119</end>
					<alignment>end-black</alignment>
					<effect>
						<name>Cross Fade (+3dB) Copy</name>
						<effecttype>transition</effecttype>
						<mediatype>audio</mediatype>
					</effect>
				</transitionitem>
				<clipitem id="msub200012-3011-k1d3-002 62">
					<name>msub200012-3011-k1d3-002</name>
					<duration>8740</duration>
					<rate>
						<ntsc>FALSE</ntsc>
						<timebase>25</timebase>
					</rate>
					<in>985</in>
					<out>1008</out>
					<start>32569</start>
					<end>32592</end>
					<subframeoffset>0</subframeoffset>
					<masterclipid>msub200012-3011-k1d3-002 1</masterclipid>
					<syncoffset>0</syncoffset>
					<logginginfo>
						<description>msub200012-3011-k1d3-002</description>
						<scene/>
						<shottake/>
						<lognote/>
						<good>FALSE</good>
					</logginginfo>
					<labels>
						<label>Good Take</label>
						<label2/>
					</labels>
					<comments>
						<mastercomment1>RÃ…STOFF. BR_FINFREDAG_MSUA_OPRO</mastercomment1>
						<mastercomment2/>
						<mastercomment3/>
						<mastercomment4/>
						<clipcommenta/>
					</comments>
					<file id="msub200012-3011-k1d3-002 2"/>
					<filter>
						<start>-1</start>
						<end>-1</end>
						<effect>
							<name>3 Band Equalizer - Kristine</name>
							<effecttype>filter</effecttype>
							<mediatype>audio</mediatype>
							<parameter>
								<parameterid>Low Frequency</parameterid>
								<name>Low Frequency</name>
								<valuemin>80</valuemin>
								<valuemax>2000</valuemax>
								<value>80</value>
							</parameter>
							<parameter>
								<parameterid>Low Gain(dB)</parameterid>
								<name>Low Gain(dB)</name>
								<valuemin>-20</valuemin>
								<valuemax>20</valuemax>
								<value>-4</value>
							</parameter>
							<parameter>
								<parameterid>Mid Frequency</parameterid>
								<name>Mid Frequency</name>
								<valuemin>400</valuemin>
								<valuemax>8000</valuemax>
								<value>3602</value>
							</parameter>
							<parameter>
								<parameterid>Mid Gain(dB)</parameterid>
								<name>Mid Gain(dB)</name>
								<valuemin>-20</valuemin>
								<valuemax>20</valuemax>
								<value>3</value>
							</parameter>
							<parameter>
								<parameterid>High Frequency</parameterid>
								<name>High Frequency</name>
								<valuemin>5000</valuemin>
								<valuemax>20000</valuemax>
								<value>10354</value>
							</parameter>
							<parameter>
								<parameterid>High Gain(dB)</parameterid>
								<name>High Gain(dB)</name>
								<valuemin>-20</valuemin>
								<valuemax>20</valuemax>
								<value>0</value>
							</parameter>
						</effect>
					</filter>
					<filter>
						<start>-1</start>
						<end>-1</end>
						<effect>
							<name>Compressor/Limiter</name>
							<effecttype>filter</effecttype>
							<mediatype>audio</mediatype>
							<parameter>
								<parameterid>Threshold(dB)</parameterid>
								<name>Threshold(dB)</name>
								<valuemin>-90</valuemin>
								<valuemax>0</valuemax>
								<value>-20</value>
							</parameter>
							<parameter>
								<parameterid>Ratio</parameterid>
								<name>Ratio</name>
								<valuemin>1</valuemin>
								<valuemax>100</valuemax>
								<value>2</value>
							</parameter>
							<parameter>
								<parameterid>Attack Time</parameterid>
								<name>Attack Time</name>
								<valuemin>1</valuemin>
								<valuemax>100</valuemax>
								<value>5</value>
							</parameter>
							<parameter>
								<parameterid>Release Time</parameterid>
								<name>Release Time</name>
								<valuemin>1</valuemin>
								<valuemax>4000</valuemax>
								<value>209</value>
							</parameter>
							<parameter>
								<parameterid>Preserve Volume</parameterid>
								<name>Preserve Volume</name>
								<value>TRUE</value>
							</parameter>
						</effect>
					</filter>
					<filter>
						<effect>
							<name>Audio Levels</name>
							<effectid>audiolevels</effectid>
							<effectcategory>audiolevels</effectcategory>
							<effecttype>audiolevels</effecttype>
							<mediatype>audio</mediatype>
							<parameter>
								<name>Level</name>
								<parameterid>level</parameterid>
								<valuemin>0</valuemin>
								<valuemax>3.98109</valuemax>
								<keyframe>
									<when>972.429</when>
									<value>1</value>
								</keyframe>
								<keyframe>
									<when>990.429</when>
									<value>1.41254</value>
								</keyframe>
								<interpolation>
									<name>FCPCurve</name>
								</interpolation>
								<value>1</value>
							</parameter>
						</effect>
					</filter>
					<filter>
						<effect>
							<name>Audio Pan</name>
							<effectid>audiopan</effectid>
							<effectcategory>audiopan</effectcategory>
							<effecttype>audiopan</effecttype>
							<mediatype>audio</mediatype>
							<parameter>
								<name>Pan</name>
								<parameterid>pan</parameterid>
								<valuemin>-1</valuemin>
								<valuemax>1</valuemax>
								<value>0</value>
							</parameter>
						</effect>
					</filter>
					<sourcetrack>
						<mediatype>audio</mediatype>
						<trackindex>2</trackindex>
					</sourcetrack>
				</clipitem>
				<clipitem id="msub200012-3011-k1d3-002 63">
					<name>msub200012-3011-k1d3-002</name>
					<duration>14566</duration>
					<rate>
						<ntsc>FALSE</ntsc>
						<timebase>25</timebase>
					</rate>
					<in>2714</in>
					<out>2730</out>
					<start>33426</start>
					<end>33442</end>
					<subframeoffset>0</subframeoffset>
					<enabled>TRUE</enabled>
					<masterclipid>msub200012-3011-k1d3-002 1</masterclipid>
					<syncoffset>0</syncoffset>
					<logginginfo>
						<description>msub200012-3011-k1d3-002</description>
						<scene/>
						<shottake/>
						<lognote/>
						<good>FALSE</good>
					</logginginfo>
					<labels>
						<label>Good Take</label>
						<label2/>
					</labels>
					<comments>
						<mastercomment1>RÃ…STOFF. BR_FINFREDAG_MSUA_OPRO</mastercomment1>
						<mastercomment2/>
						<mastercomment3/>
						<mastercomment4/>
						<clipcommenta/>
					</comments>
					<file id="msub200012-3011-k1d3-002 2"/>
					<filter>
						<enabled>TRUE</enabled>
						<start>-1</start>
						<end>-1</end>
						<effect>
							<name>3 Band Equalizer - Kristine</name>
							<effecttype>filter</effecttype>
							<mediatype>audio</mediatype>
							<parameter>
								<parameterid>Low Frequency</parameterid>
								<name>Low Frequency</name>
								<valuemin>80</valuemin>
								<valuemax>2000</valuemax>
								<value>80</value>
							</parameter>
							<parameter>
								<parameterid>Low Gain(dB)</parameterid>
								<name>Low Gain(dB)</name>
								<valuemin>-20</valuemin>
								<valuemax>20</valuemax>
								<value>-4</value>
							</parameter>
							<parameter>
								<parameterid>Mid Frequency</parameterid>
								<name>Mid Frequency</name>
								<valuemin>400</valuemin>
								<valuemax>8000</valuemax>
								<value>3602</value>
							</parameter>
							<parameter>
								<parameterid>Mid Gain(dB)</parameterid>
								<name>Mid Gain(dB)</name>
								<valuemin>-20</valuemin>
								<valuemax>20</valuemax>
								<value>3</value>
							</parameter>
							<parameter>
								<parameterid>High Frequency</parameterid>
								<name>High Frequency</name>
								<valuemin>5000</valuemin>
								<valuemax>20000</valuemax>
								<value>10354</value>
							</parameter>
							<parameter>
								<parameterid>High Gain(dB)</parameterid>
								<name>High Gain(dB)</name>
								<valuemin>-20</valuemin>
								<valuemax>20</valuemax>
								<value>0</value>
							</parameter>
						</effect>
					</filter>
					<filter>
						<enabled>TRUE</enabled>
						<start>-1</start>
						<end>-1</end>
						<effect>
							<name>Compressor/Limiter</name>
							<effecttype>filter</effecttype>
							<mediatype>audio</mediatype>
							<parameter>
								<parameterid>Threshold(dB)</parameterid>
								<name>Threshold(dB)</name>
								<valuemin>-90</valuemin>
								<valuemax>0</valuemax>
								<value>-20</value>
							</parameter>
							<parameter>
								<parameterid>Ratio</parameterid>
								<name>Ratio</name>
								<valuemin>1</valuemin>
								<valuemax>100</valuemax>
								<value>2</value>
							</parameter>
							<parameter>
								<parameterid>Attack Time</parameterid>
								<name>Attack Time</name>
								<valuemin>1</valuemin>
								<valuemax>100</valuemax>
								<value>5</value>
							</parameter>
							<parameter>
								<parameterid>Release Time</parameterid>
								<name>Release Time</name>
								<valuemin>1</valuemin>
								<valuemax>4000</valuemax>
								<value>209</value>
							</parameter>
							<parameter>
								<parameterid>Preserve Volume</parameterid>
								<name>Preserve Volume</name>
								<value>TRUE</value>
							</parameter>
						</effect>
					</filter>
					<filter>
						<effect>
							<name>Audio Levels</name>
							<effectid>audiolevels</effectid>
							<effectcategory>audiolevels</effectcategory>
							<effecttype>audiolevels</effecttype>
							<mediatype>audio</mediatype>
							<parameter>
								<name>Level</name>
								<parameterid>level</parameterid>
								<valuemin>0</valuemin>
								<valuemax>3.98109</valuemax>
								<keyframe>
									<when>2289</when>
									<value>0</value>
								</keyframe>
								<keyframe>
									<when>2290</when>
									<value>1</value>
								</keyframe>
								<keyframe>
									<when>2375</when>
									<value>1</value>
								</keyframe>
								<keyframe>
									<when>2378</when>
									<value>1.41254</value>
								</keyframe>
								<keyframe>
									<when>2428</when>
									<value>1.41254</value>
								</keyframe>
								<keyframe>
									<when>2437</when>
									<value>1.12202</value>
								</keyframe>
								<keyframe>
									<when>2722</when>
									<value>0.891251</value>
								</keyframe>
								<keyframe>
									<when>2725</when>
									<value>0</value>
								</keyframe>
								<interpolation>
									<name>FCPCurve</name>
								</interpolation>
								<value>1.41254</value>
							</parameter>
						</effect>
					</filter>
					<filter>
						<effect>
							<name>Audio Pan</name>
							<effectid>audiopan</effectid>
							<effectcategory>audiopan</effectcategory>
							<effecttype>audiopan</effecttype>
							<mediatype>audio</mediatype>
							<parameter>
								<name>Pan</name>
								<parameterid>pan</parameterid>
								<valuemin>-1</valuemin>
								<valuemax>1</valuemax>
								<value>0</value>
							</parameter>
						</effect>
					</filter>
					<sourcetrack>
						<mediatype>audio</mediatype>
						<trackindex>1</trackindex>
					</sourcetrack>
					<filter>
						<effect>
							<name>Time Remap</name>
							<effectid>timeremap</effectid>
							<effectcategory>motion</effectcategory>
							<effecttype>motion</effecttype>
							<mediatype>audio</mediatype>
							<parameter>
								<parameterid>variablespeed</parameterid>
								<name>variablespeed</name>
								<valuemin>0</valuemin>
								<valuemax>1</valuemax>
								<value>0</value>
							</parameter>
							<parameter>
								<parameterid>mappedduration</parameterid>
								<name>mappedduration</name>
								<value>
									<timecode>
										<rate>
											<timebase>0</timebase>
										</rate>
										<string>0</string>
										<frame>0</frame>
										<displayformat>NDF</displayformat>
									</timecode>
								</value>
							</parameter>
							<parameter>
								<parameterid>speed</parameterid>
								<name>speed</name>
								<valuemin>-10000</valuemin>
								<valuemax>10000</valuemax>
								<value>60</value>
							</parameter>
							<parameter>
								<parameterid>reverse</parameterid>
								<name>reverse</name>
								<value>FALSE</value>
							</parameter>
							<parameter>
								<parameterid>frameblending</parameterid>
								<name>frameblending</name>
								<value>TRUE</value>
							</parameter>
							<parameter>
								<parameterid>graphdict</parameterid>
								<name>graphdict</name>
								<valuemin>0</valuemin>
								<valuemax>8682</valuemax>
								<keyframe>
									<when>95</when>
									<value>0.5999</value>
									<speedkfstart>TRUE</speedkfstart>
									<speedvirtualkf>TRUE</speedvirtualkf>
								</keyframe>
								<keyframe>
									<when>2714</when>
									<value>1572</value>
									<speedkfin>TRUE</speedkfin>
									<speedvirtualkf>TRUE</speedvirtualkf>
								</keyframe>
								<keyframe>
									<when>2730</when>
									<value>1581.6</value>
									<speedkfout>TRUE</speedkfout>
									<speedvirtualkf>TRUE</speedvirtualkf>
								</keyframe>
								<keyframe>
									<when>14566</when>
									<value>8683.6</value>
									<speedkfend>TRUE</speedkfend>
									<speedvirtualkf>TRUE</speedvirtualkf>
								</keyframe>
								<interpolation>
									<name>FCPCurve</name>
								</interpolation>
								<value>1572</value>
							</parameter>
						</effect>
					</filter>
				</clipitem>
				<enabled>TRUE</enabled>
				<locked>FALSE</locked>
				<outputchannelindex>1</outputchannelindex>
			</track>
			<track>
				<clipitem id="Fin Fredag UL - NY3">
					<name>Fin Fredag UL - NY</name>
					<duration>1089</duration>
					<rate>
						<ntsc>FALSE</ntsc>
						<timebase>25</timebase>
					</rate>
					<in>75</in>
					<out>485</out>
					<start>0</start>
					<end>-1</end>
					<masterclipid>Fin Fredag UL - NY1</masterclipid>
					<logginginfo>
						<scene/>
						<shottake/>
						<lognote/>
						<good>FALSE</good>
					</logginginfo>
					<labels>
						<label2/>
					</labels>
					<comments>
						<mastercomment1/>
						<mastercomment2/>
						<mastercomment3/>
						<mastercomment4/>
					</comments>
					<file id="Fin Fredag UL - NY2"/>
					<filter>
						<effect>
							<name>Audio Levels</name>
							<effectid>audiolevels</effectid>
							<effectcategory>audiolevels</effectcategory>
							<effecttype>audiolevels</effecttype>
							<mediatype>audio</mediatype>
							<parameter>
								<name>Level</name>
								<parameterid>level</parameterid>
								<valuemin>0</valuemin>
								<valuemax>3.98109</valuemax>
								<value>0.199526</value>
							</parameter>
						</effect>
					</filter>
					<filter>
						<effect>
							<name>Audio Pan</name>
							<effectid>audiopan</effectid>
							<effectcategory>audiopan</effectcategory>
							<effecttype>audiopan</effecttype>
							<mediatype>audio</mediatype>
							<parameter>
								<name>Pan</name>
								<parameterid>pan</parameterid>
								<valuemin>-1</valuemin>
								<valuemax>1</valuemax>
								<value>1</value>
							</parameter>
						</effect>
					</filter>
					<sourcetrack>
						<mediatype>audio</mediatype>
						<trackindex>2</trackindex>
					</sourcetrack>
					<link>
						<linkclipref>Fin Fredag UL - NY</linkclipref>
						<mediatype>audio</mediatype>
						<trackindex>4</trackindex>
						<clipindex>1</clipindex>
						<groupindex>1</groupindex>
					</link>
					<link>
						<linkclipref>Fin Fredag UL - NY3</linkclipref>
						<mediatype>audio</mediatype>
						<trackindex>5</trackindex>
						<clipindex>1</clipindex>
						<groupindex>1</groupindex>
					</link>
				</clipitem>
				<transitionitem id="55">
					<rate>
						<ntsc>FALSE</ntsc>
						<timebase>25</timebase>
					</rate>
					<start>385</start>
					<end>410</end>
					<alignment>end-black</alignment>
					<effect>
						<name>Cross Fade ( 0dB)</name>
						<effecttype>transition</effecttype>
						<mediatype>audio</mediatype>
					</effect>
				</transitionitem>
				<clipitem id="SUPER_INN_Stjerne-lyd_1-2.aif">
					<name>SUPER_INN_Stjerne-lyd_1-2.aif</name>
					<duration>15</duration>
					<rate>
						<ntsc>FALSE</ntsc>
						<timebase>25</timebase>
					</rate>
					<in>0</in>
					<out>15</out>
					<start>1453</start>
					<end>1468</end>
					<masterclipid>SUPER_INN_Stjerne-lyd_1-2.aif1</masterclipid>
					<logginginfo>
						<scene/>
						<shottake/>
						<lognote/>
						<good>FALSE</good>
					</logginginfo>
					<labels>
						<label2/>
					</labels>
					<comments>
						<mastercomment1/>
						<mastercomment2/>
						<mastercomment3/>
						<mastercomment4/>
					</comments>
					<file id="SUPER_INN_Stjerne-lyd_1-2 ">
						<name>SUPER_INN_Stjerne-lyd_1-2.aif</name>
						<pathurl>file://localhost/SuperSAN1/Prosjekter/MSUB20000013%20FIN%20FREDAG/Profil-grafikk/01_MASTER/06Super_FF_Font/SUPER_INN_Stjerne-lyd_1-2.aif</pathurl>
						<rate>
							<timebase>25</timebase>
						</rate>
						<duration>15</duration>
						<media>
							<audio>
								<rate>
									<timebase>48000</timebase>
								</rate>
								<trackcount>2</trackcount>
								<samplecharacteristics>
									<depth>16</depth>
								</samplecharacteristics>
							</audio>
						</media>
					</file>
					<filter>
						<effect>
							<name>Audio Levels</name>
							<effectid>audiolevels</effectid>
							<effectcategory>audiolevels</effectcategory>
							<effecttype>audiolevels</effecttype>
							<mediatype>audio</mediatype>
							<parameter>
								<name>Level</name>
								<parameterid>level</parameterid>
								<valuemin>0</valuemin>
								<valuemax>3.98109</valuemax>
								<value>1</value>
							</parameter>
						</effect>
					</filter>
					<filter>
						<effect>
							<name>Audio Pan</name>
							<effectid>audiopan</effectid>
							<effectcategory>audiopan</effectcategory>
							<effecttype>audiopan</effecttype>
							<mediatype>audio</mediatype>
							<parameter>
								<name>Pan</name>
								<parameterid>pan</parameterid>
								<valuemin>-1</valuemin>
								<valuemax>1</valuemax>
								<value>-1</value>
							</parameter>
						</effect>
					</filter>
					<sourcetrack>
						<mediatype>audio</mediatype>
						<trackindex>1</trackindex>
					</sourcetrack>
					<link>
						<linkclipref>SUPER_INN_Stjerne-lyd_1-2.aif</linkclipref>
						<mediatype>audio</mediatype>
						<trackindex>5</trackindex>
						<clipindex>3</clipindex>
						<groupindex>1</groupindex>
					</link>
					<link>
						<linkclipref>SUPER_INN_Stjerne-lyd_1-2.aif2</linkclipref>
						<mediatype>audio</mediatype>
						<trackindex>6</trackindex>
						<clipindex>3</clipindex>
						<groupindex>1</groupindex>
					</link>
				</clipitem>
				<clipitem id="SUPER_INN_Stjerne-lyd_1-2.aif3">
					<name>SUPER_INN_Stjerne-lyd_1-2.aif</name>
					<duration>15</duration>
					<rate>
						<ntsc>FALSE</ntsc>
						<timebase>25</timebase>
					</rate>
					<in>0</in>
					<out>15</out>
					<start>1873</start>
					<end>1888</end>
					<masterclipid>SUPER_INN_Stjerne-lyd_1-2.aif1</masterclipid>
					<logginginfo>
						<scene/>
						<shottake/>
						<lognote/>
						<good>FALSE</good>
					</logginginfo>
					<labels>
						<label2/>
					</labels>
					<comments>
						<mastercomment1/>
						<mastercomment2/>
						<mastercomment3/>
						<mastercomment4/>
					</comments>
					<file id="SUPER_INN_Stjerne-lyd_1-2 "/>
					<filter>
						<effect>
							<name>Audio Levels</name>
							<effectid>audiolevels</effectid>
							<effectcategory>audiolevels</effectcategory>
							<effecttype>audiolevels</effecttype>
							<mediatype>audio</mediatype>
							<parameter>
								<name>Level</name>
								<parameterid>level</parameterid>
								<valuemin>0</valuemin>
								<valuemax>3.98109</valuemax>
								<value>1</value>
							</parameter>
						</effect>
					</filter>
					<filter>
						<effect>
							<name>Audio Pan</name>
							<effectid>audiopan</effectid>
							<effectcategory>audiopan</effectcategory>
							<effecttype>audiopan</effecttype>
							<mediatype>audio</mediatype>
							<parameter>
								<name>Pan</name>
								<parameterid>pan</parameterid>
								<valuemin>-1</valuemin>
								<valuemax>1</valuemax>
								<value>-1</value>
							</parameter>
						</effect>
					</filter>
					<sourcetrack>
						<mediatype>audio</mediatype>
						<trackindex>1</trackindex>
					</sourcetrack>
					<link>
						<linkclipref>SUPER_INN_Stjerne-lyd_1-2.aif3</linkclipref>
						<mediatype>audio</mediatype>
						<trackindex>5</trackindex>
						<clipindex>4</clipindex>
						<groupindex>1</groupindex>
					</link>
					<link>
						<linkclipref>SUPER_INN_Stjerne-lyd_1-2.aif4</linkclipref>
						<mediatype>audio</mediatype>
						<trackindex>6</trackindex>
						<clipindex>4</clipindex>
						<groupindex>1</groupindex>
					</link>
				</clipitem>
				<clipitem id="Fin Fredag PIMPBUMP 8.wav">
					<name>Fin Fredag PIMPBUMP 8.wav</name>
					<duration>259</duration>
					<rate>
						<ntsc>FALSE</ntsc>
						<timebase>25</timebase>
					</rate>
					<in>5</in>
					<out>121</out>
					<start>5452</start>
					<end>-1</end>
					<subframeoffset>0</subframeoffset>
					<masterclipid>Fin Fredag PIMPBUMP 8.wav1</masterclipid>
					<logginginfo>
						<scene/>
						<shottake/>
						<lognote/>
						<good>FALSE</good>
					</logginginfo>
					<labels>
						<label2/>
					</labels>
					<comments>
						<mastercomment1/>
						<mastercomment2/>
						<mastercomment3/>
						<mastercomment4/>
					</comments>
					<file id="Fin Fredag PIMPBUMP 8 ">
						<name>Fin Fredag PIMPBUMP 8.wav</name>
						<pathurl>file://localhost/Volumes/Prosjekter_SuperSAN1-1/MSUB20000012%20FIN%20FREDAG/SFX/Profil-grafikk/01_MASTER/Vignettmusikk/Bumpers/Fin%20Fredag%20PIMPBUMP%208.wav</pathurl>
						<rate>
							<timebase>25</timebase>
						</rate>
						<duration>259</duration>
						<timecode>
							<rate>
								<timebase>25</timebase>
							</rate>
							<string>00:04:42:11</string>
							<frame>7061</frame>
							<displayformat>NDF</displayformat>
							<source>source</source>
						</timecode>
						<media>
							<audio>
								<rate>
									<timebase>48000</timebase>
								</rate>
								<trackcount>2</trackcount>
								<samplecharacteristics>
									<depth>24</depth>
								</samplecharacteristics>
							</audio>
						</media>
					</file>
					<filter>
						<effect>
							<name>Audio Levels</name>
							<effectid>audiolevels</effectid>
							<effectcategory>audiolevels</effectcategory>
							<effecttype>audiolevels</effecttype>
							<mediatype>audio</mediatype>
							<parameter>
								<name>Level</name>
								<parameterid>level</parameterid>
								<valuemin>0</valuemin>
								<valuemax>3.98109</valuemax>
								<value>0.510049</value>
							</parameter>
						</effect>
					</filter>
					<filter>
						<effect>
							<name>Audio Pan</name>
							<effectid>audiopan</effectid>
							<effectcategory>audiopan</effectcategory>
							<effecttype>audiopan</effecttype>
							<mediatype>audio</mediatype>
							<parameter>
								<name>Pan</name>
								<parameterid>pan</parameterid>
								<valuemin>-1</valuemin>
								<valuemax>1</valuemax>
								<value>-1</value>
							</parameter>
						</effect>
					</filter>
					<sourcetrack>
						<mediatype>audio</mediatype>
						<trackindex>1</trackindex>
					</sourcetrack>
					<link>
						<linkclipref>Fin Fredag PIMPBUMP 8.wav</linkclipref>
						<mediatype>audio</mediatype>
						<trackindex>5</trackindex>
						<clipindex>5</clipindex>
						<groupindex>1</groupindex>
					</link>
					<link>
						<linkclipref>Fin Fredag PIMPBUMP 8.wav2</linkclipref>
						<mediatype>audio</mediatype>
						<trackindex>6</trackindex>
						<clipindex>7</clipindex>
						<groupindex>1</groupindex>
					</link>
				</clipitem>
				<transitionitem id="1049503476 ">
					<rate>
						<ntsc>FALSE</ntsc>
						<timebase>25</timebase>
					</rate>
					<start>5556</start>
					<end>5568</end>
					<alignment>end-black</alignment>
					<effect>
						<name>Cross Fade (+3dB)</name>
						<effecttype>transition</effecttype>
						<mediatype>audio</mediatype>
					</effect>
				</transitionitem>
				<transitionitem id="56">
					<rate>
						<ntsc>FALSE</ntsc>
						<timebase>25</timebase>
					</rate>
					<start>6053</start>
					<end>6103</end>
					<alignment>start-black</alignment>
					<effect>
						<name>Cross Fade ( 0dB)</name>
						<effecttype>transition</effecttype>
						<mediatype>audio</mediatype>
					</effect>
				</transitionitem>
				<clipitem id="KOIF43001507AA20">
					<name>KOIF43001507AA</name>
					<duration>131201</duration>
					<rate>
						<ntsc>FALSE</ntsc>
						<timebase>25</timebase>
					</rate>
					<in>44603</in>
					<out>45243</out>
					<start>-1</start>
					<end>-1</end>
					<subframeoffset>0</subframeoffset>
					<masterclipid>KOIF43001507AA1</masterclipid>
					<logginginfo>
						<description>Jakten pÃ¥ nyresteinen</description>
						<scene/>
						<shottake/>
						<lognote/>
						<good>FALSE</good>
					</logginginfo>
					<labels>
						<label2/>
					</labels>
					<comments>
						<mastercomment1>ARKIVSTOFF. BR_FINFREDAG_MSUA_OPRO</mastercomment1>
						<mastercomment2>. Filmkameratene AS. </mastercomment2>
						<mastercomment3>Sendt: 1999-12-20. FILMKAMERATENE; Norge.</mastercomment3>
						<mastercomment4>Norsk spillefilm fra 1996. Bestefar har smerter, men Ã¥tteÃ¥rige Simen vet rÃ¥d. Han tryller seg liten og klatrer inn i bestefars kropp for Ã¥ finne ut hva som er i veien ... Regi: Vibeke IdsÃ¸e. Manus: Vibeke IdsÃ¸e. Musikk: Ragnar Bjerkreim. I rollene: Fru Galle ................ Kjersti HOLMEN (mv) Galle Junior ............. Lage FOSHEIM (mv) Sekr??t Service agent ..... Morten M. FALDAAS (mv) StemmebÃ¥ndsoperatÃ¸ren .... Sigve BÃ˜E (mv) TÃ¥retankoperatÃ¸rene ...... Harald EIA (mv), Gard EIDSVOLD (mv) A. Pendixrud ............. BjÃ¸rn JENSEG (mv) Hvitt punkerblodlegeme ... Jan "Devo" KORNSTAD (mv) / Jan KORNSTAD (mv) Hjerteharpen ............. Tone HULBÃ†KMO (mv) HjernesentraloperatÃ¸ren .. Leif DUBARD (mv) RÃ¸de kjÃ¦rlighetsvakter ... Herborg KRÃ…KEVIK (mv), Helen VIKSTVEDT (mv) Bestefar ................. Terje STRÃ˜MDAHL (mv) Bestemor ................. CÃ¦cilie NORDBY (mv) Bamsens stemme ........... Toralv Maurstad Ã˜vrige medvirkende: Tina HARTVIG (mv), Tinken LAURANTZON (mv), Ã˜ystein SELENIUS (mv), Adolf E. BJERKE (mv), Rune HEKKELSTRAND (mv), Rikke SANDLI (mv), Unn SANDVIG (mv), Celine SAASTAD (mv), Anne STRAY (mv), Arild SÃ˜GAARD (mv), Ruth GURHOLT (mv), Kjetil OLSEN (mv), Ine SANDVIG (mv), Aslaug GUTTORMSGÃ…RD (mv), Kjersti Borchgrevink MAAGERÃ˜ (mv), Kiran SHAH (mv), Camilla HARTVIG (mv), Raymond WIIK (mv).</mastercomment4>
						<clipcommenta/>
						<clipcommentb>1:F-mix venstre 2:F-mix hÃ¸yre 3:-- 4:--.4x3 PAL.</clipcommentb>
					</comments>
					<file id="KOIF43001507AA2"/>
					<filter>
						<effect>
							<name>Audio Levels</name>
							<effectid>audiolevels</effectid>
							<effectcategory>audiolevels</effectcategory>
							<effecttype>audiolevels</effecttype>
							<mediatype>audio</mediatype>
							<parameter>
								<name>Level</name>
								<parameterid>level</parameterid>
								<valuemin>0</valuemin>
								<valuemax>3.98109</valuemax>
								<keyframe>
									<when>44605.1</when>
									<value>0.794328</value>
								</keyframe>
								<keyframe>
									<when>44650.9</when>
									<value>0.891251</value>
								</keyframe>
								<keyframe>
									<when>44661.1</when>
									<value>1.41254</value>
								</keyframe>
								<interpolation>
									<name>FCPCurve</name>
								</interpolation>
								<value>1.41364</value>
							</parameter>
						</effect>
					</filter>
					<filter>
						<effect>
							<name>Audio Pan</name>
							<effectid>audiopan</effectid>
							<effectcategory>audiopan</effectcategory>
							<effecttype>audiopan</effecttype>
							<mediatype>audio</mediatype>
							<parameter>
								<name>Pan</name>
								<parameterid>pan</parameterid>
								<valuemin>-1</valuemin>
								<valuemax>1</valuemax>
								<value>1</value>
							</parameter>
						</effect>
					</filter>
					<sourcetrack>
						<mediatype>audio</mediatype>
						<trackindex>2</trackindex>
					</sourcetrack>
					<link>
						<linkclipref>KOIF43001507AA19</linkclipref>
						<mediatype>audio</mediatype>
						<trackindex>4</trackindex>
						<clipindex>6</clipindex>
					</link>
					<link>
						<linkclipref>KOIF43001507AA20</linkclipref>
						<mediatype>audio</mediatype>
						<trackindex>5</trackindex>
						<clipindex>8</clipindex>
					</link>
				</clipitem>
				<transitionitem id="57">
					<rate>
						<ntsc>FALSE</ntsc>
						<timebase>25</timebase>
					</rate>
					<start>6593</start>
					<end>6693</end>
					<alignment>end-black</alignment>
					<effect>
						<name>Cross Fade ( 0dB)</name>
						<effecttype>transition</effecttype>
						<mediatype>audio</mediatype>
					</effect>
				</transitionitem>
				<transitionitem id="1049505312 ">
					<rate>
						<ntsc>FALSE</ntsc>
						<timebase>25</timebase>
					</rate>
					<start>8644</start>
					<end>8669</end>
					<alignment>center</alignment>
					<effect>
						<name>Cross Fade (+3dB) Copy</name>
						<effecttype>transition</effecttype>
						<mediatype>audio</mediatype>
					</effect>
				</transitionitem>
				<clipitem id="KOIF43001507AA17">
					<name>KOIF43001507AA</name>
					<duration>131201</duration>
					<rate>
						<ntsc>FALSE</ntsc>
						<timebase>25</timebase>
					</rate>
					<in>113414</in>
					<out>113559</out>
					<start>-1</start>
					<end>-1</end>
					<subframeoffset>0</subframeoffset>
					<masterclipid>KOIF43001507AA1</masterclipid>
					<logginginfo>
						<description>Jakten pÃ¥ nyresteinen</description>
						<scene/>
						<shottake/>
						<lognote/>
						<good>FALSE</good>
					</logginginfo>
					<labels>
						<label2/>
					</labels>
					<comments>
						<mastercomment1>ARKIVSTOFF. BR_FINFREDAG_MSUA_OPRO</mastercomment1>
						<mastercomment2>. Filmkameratene AS. </mastercomment2>
						<mastercomment3>Sendt: 1999-12-20. FILMKAMERATENE; Norge.</mastercomment3>
						<mastercomment4>Norsk spillefilm fra 1996. Bestefar har smerter, men Ã¥tteÃ¥rige Simen vet rÃ¥d. Han tryller seg liten og klatrer inn i bestefars kropp for Ã¥ finne ut hva som er i veien ... Regi: Vibeke IdsÃ¸e. Manus: Vibeke IdsÃ¸e. Musikk: Ragnar Bjerkreim. I rollene: Fru Galle ................ Kjersti HOLMEN (mv) Galle Junior ............. Lage FOSHEIM (mv) Sekr??t Service agent ..... Morten M. FALDAAS (mv) StemmebÃ¥ndsoperatÃ¸ren .... Sigve BÃ˜E (mv) TÃ¥retankoperatÃ¸rene ...... Harald EIA (mv), Gard EIDSVOLD (mv) A. Pendixrud ............. BjÃ¸rn JENSEG (mv) Hvitt punkerblodlegeme ... Jan "Devo" KORNSTAD (mv) / Jan KORNSTAD (mv) Hjerteharpen ............. Tone HULBÃ†KMO (mv) HjernesentraloperatÃ¸ren .. Leif DUBARD (mv) RÃ¸de kjÃ¦rlighetsvakter ... Herborg KRÃ…KEVIK (mv), Helen VIKSTVEDT (mv) Bestefar ................. Terje STRÃ˜MDAHL (mv) Bestemor ................. CÃ¦cilie NORDBY (mv) Bamsens stemme ........... Toralv Maurstad Ã˜vrige medvirkende: Tina HARTVIG (mv), Tinken LAURANTZON (mv), Ã˜ystein SELENIUS (mv), Adolf E. BJERKE (mv), Rune HEKKELSTRAND (mv), Rikke SANDLI (mv), Unn SANDVIG (mv), Celine SAASTAD (mv), Anne STRAY (mv), Arild SÃ˜GAARD (mv), Ruth GURHOLT (mv), Kjetil OLSEN (mv), Ine SANDVIG (mv), Aslaug GUTTORMSGÃ…RD (mv), Kjersti Borchgrevink MAAGERÃ˜ (mv), Kiran SHAH (mv), Camilla HARTVIG (mv), Raymond WIIK (mv).</mastercomment4>
						<clipcommenta/>
						<clipcommentb>1:F-mix venstre 2:F-mix hÃ¸yre 3:-- 4:--.4x3 PAL.</clipcommentb>
					</comments>
					<file id="KOIF43001507AA2"/>
					<filter>
						<effect>
							<name>Audio Levels</name>
							<effectid>audiolevels</effectid>
							<effectcategory>audiolevels</effectcategory>
							<effecttype>audiolevels</effecttype>
							<mediatype>audio</mediatype>
							<parameter>
								<name>Level</name>
								<parameterid>level</parameterid>
								<valuemin>0</valuemin>
								<valuemax>3.98109</valuemax>
								<keyframe>
									<when>113468</when>
									<value>0.281838</value>
								</keyframe>
								<keyframe>
									<when>113486</when>
									<value>0.112202</value>
								</keyframe>
								<interpolation>
									<name>FCPCurve</name>
								</interpolation>
								<value>0.281838</value>
							</parameter>
						</effect>
					</filter>
					<filter>
						<effect>
							<name>Audio Pan</name>
							<effectid>audiopan</effectid>
							<effectcategory>audiopan</effectcategory>
							<effecttype>audiopan</effecttype>
							<mediatype>audio</mediatype>
							<parameter>
								<name>Pan</name>
								<parameterid>pan</parameterid>
								<valuemin>-1</valuemin>
								<valuemax>1</valuemax>
								<value>-1</value>
							</parameter>
						</effect>
					</filter>
					<sourcetrack>
						<mediatype>audio</mediatype>
						<trackindex>1</trackindex>
					</sourcetrack>
					<link>
						<linkclipref>KOIF43001507AA16</linkclipref>
						<mediatype>video</mediatype>
						<trackindex>3</trackindex>
						<clipindex>13</clipindex>
					</link>
					<link>
						<linkclipref>KOIF43001507AA17</linkclipref>
						<mediatype>audio</mediatype>
						<trackindex>5</trackindex>
						<clipindex>11</clipindex>
					</link>
					<link>
						<linkclipref>KOIF43001507AA18</linkclipref>
						<mediatype>audio</mediatype>
						<trackindex>6</trackindex>
						<clipindex>10</clipindex>
					</link>
				</clipitem>
				<transitionitem id="1049506264 ">
					<rate>
						<ntsc>FALSE</ntsc>
						<timebase>25</timebase>
					</rate>
					<start>8764</start>
					<end>8789</end>
					<alignment>end-black</alignment>
					<effect>
						<name>Cross Fade (+3dB) Copy</name>
						<effecttype>transition</effecttype>
						<mediatype>audio</mediatype>
					</effect>
				</transitionitem>
				<clipitem id="Ukas Fjortis, bare Knut2">
					<name>Ukas Fjortis, bare Knut</name>
					<duration>4041</duration>
					<rate>
						<ntsc>FALSE</ntsc>
						<timebase>25</timebase>
					</rate>
					<in>0</in>
					<out>4041</out>
					<start>11182</start>
					<end>15223</end>
					<labels>
						<label>Best Take</label>
					</labels>
					<filter>
						<effect>
							<name>Audio Levels</name>
							<effectid>audiolevels</effectid>
							<effectcategory>audiolevels</effectcategory>
							<effecttype>audiolevels</effecttype>
							<mediatype>audio</mediatype>
							<parameter>
								<name>Level</name>
								<parameterid>level</parameterid>
								<valuemin>0</valuemin>
								<valuemax>3.98109</valuemax>
								<value>1</value>
							</parameter>
						</effect>
					</filter>
					<filter>
						<effect>
							<name>Audio Pan</name>
							<effectid>audiopan</effectid>
							<effectcategory>audiopan</effectcategory>
							<effecttype>audiopan</effecttype>
							<mediatype>audio</mediatype>
							<parameter>
								<name>Pan</name>
								<parameterid>pan</parameterid>
								<valuemin>-1</valuemin>
								<valuemax>1</valuemax>
								<value>-1</value>
							</parameter>
						</effect>
					</filter>
					<sequence id="Ukas Fjortis, bare Knut1"/>
					<sourcetrack>
						<mediatype>audio</mediatype>
						<trackindex>1</trackindex>
					</sourcetrack>
					<link>
						<linkclipref>Ukas Fjortis, bare Knut</linkclipref>
						<mediatype>video</mediatype>
						<trackindex>2</trackindex>
						<clipindex>13</clipindex>
					</link>
					<link>
						<linkclipref>Ukas Fjortis, bare Knut2</linkclipref>
						<mediatype>audio</mediatype>
						<trackindex>5</trackindex>
						<clipindex>13</clipindex>
						<groupindex>1</groupindex>
					</link>
					<link>
						<linkclipref>Ukas Fjortis, bare Knut3</linkclipref>
						<mediatype>audio</mediatype>
						<trackindex>6</trackindex>
						<clipindex>12</clipindex>
						<groupindex>1</groupindex>
					</link>
					<ismasterclip>FALSE</ismasterclip>
				</clipitem>
				<clipitem id="TACO 2 Dare dance versjon1 2">
					<name>TACO 2 Dare dance versjon1</name>
					<duration>932</duration>
					<rate>
						<ntsc>FALSE</ntsc>
						<timebase>25</timebase>
					</rate>
					<in>0</in>
					<out>919</out>
					<start>21694</start>
					<end>22613</end>
					<labels>
						<label>Best Take</label>
					</labels>
					<filter>
						<effect>
							<name>Audio Levels</name>
							<effectid>audiolevels</effectid>
							<effectcategory>audiolevels</effectcategory>
							<effecttype>audiolevels</effecttype>
							<mediatype>audio</mediatype>
							<parameter>
								<name>Level</name>
								<parameterid>level</parameterid>
								<valuemin>0</valuemin>
								<valuemax>3.98109</valuemax>
								<value>1</value>
							</parameter>
						</effect>
					</filter>
					<filter>
						<effect>
							<name>Audio Pan</name>
							<effectid>audiopan</effectid>
							<effectcategory>audiopan</effectcategory>
							<effecttype>audiopan</effecttype>
							<mediatype>audio</mediatype>
							<parameter>
								<name>Pan</name>
								<parameterid>pan</parameterid>
								<valuemin>-1</valuemin>
								<valuemax>1</valuemax>
								<value>-1</value>
							</parameter>
						</effect>
					</filter>
					<sequence id="TACO 2 Dare dance versjon1 1"/>
					<sourcetrack>
						<mediatype>audio</mediatype>
						<trackindex>1</trackindex>
					</sourcetrack>
					<link>
						<linkclipref>TACO 2 Dare dance versjon1 </linkclipref>
						<mediatype>video</mediatype>
						<trackindex>3</trackindex>
						<clipindex>15</clipindex>
					</link>
					<link>
						<linkclipref>TACO 2 Dare dance versjon1 2</linkclipref>
						<mediatype>audio</mediatype>
						<trackindex>5</trackindex>
						<clipindex>14</clipindex>
						<groupindex>1</groupindex>
					</link>
					<link>
						<linkclipref>TACO 2 Dare dance versjon1 3</linkclipref>
						<mediatype>audio</mediatype>
						<trackindex>6</trackindex>
						<clipindex>19</clipindex>
						<groupindex>1</groupindex>
					</link>
					<ismasterclip>FALSE</ismasterclip>
				</clipitem>
				<clipitem id="msub200012-2308-k1d1-009 3">
					<name>msub200012-2308-k1d1-009</name>
					<duration>2094</duration>
					<rate>
						<ntsc>FALSE</ntsc>
						<timebase>25</timebase>
					</rate>
					<in>985</in>
					<out>1037</out>
					<start>23116</start>
					<end>23168</end>
					<subframeoffset>0</subframeoffset>
					<enabled>TRUE</enabled>
					<masterclipid>msub200012-2308-k1d1-009 1</masterclipid>
					<logginginfo>
						<description>msub200012-2308-k1d1-009</description>
						<scene/>
						<shottake/>
						<lognote/>
						<good>FALSE</good>
					</logginginfo>
					<labels>
						<label2/>
					</labels>
					<comments>
						<mastercomment1>RÃ…STOFF. BR_FINFREDAG_MSUA_OPRO</mastercomment1>
						<mastercomment2/>
						<mastercomment3/>
						<mastercomment4/>
					</comments>
					<file id="msub200012-2308-k1d1-009 2"/>
					<filter>
						<enabled>TRUE</enabled>
						<start>-1</start>
						<end>-1</end>
						<effect>
							<name>3 Band Equalizer - Mann</name>
							<effecttype>filter</effecttype>
							<mediatype>audio</mediatype>
							<parameter>
								<parameterid>Low Frequency</parameterid>
								<name>Low Frequency</name>
								<valuemin>80</valuemin>
								<valuemax>2000</valuemax>
								<value>837</value>
							</parameter>
							<parameter>
								<parameterid>Low Gain(dB)</parameterid>
								<name>Low Gain(dB)</name>
								<valuemin>-20</valuemin>
								<valuemax>20</valuemax>
								<value>-18</value>
							</parameter>
							<parameter>
								<parameterid>Mid Frequency</parameterid>
								<name>Mid Frequency</name>
								<valuemin>400</valuemin>
								<valuemax>8000</valuemax>
								<value>3297</value>
							</parameter>
							<parameter>
								<parameterid>Mid Gain(dB)</parameterid>
								<name>Mid Gain(dB)</name>
								<valuemin>-20</valuemin>
								<valuemax>20</valuemax>
								<value>-11</value>
							</parameter>
							<parameter>
								<parameterid>High Frequency</parameterid>
								<name>High Frequency</name>
								<valuemin>5000</valuemin>
								<valuemax>20000</valuemax>
								<value>10354</value>
							</parameter>
							<parameter>
								<parameterid>High Gain(dB)</parameterid>
								<name>High Gain(dB)</name>
								<valuemin>-20</valuemin>
								<valuemax>20</valuemax>
								<value>-20</value>
							</parameter>
						</effect>
					</filter>
					<filter>
						<enabled>TRUE</enabled>
						<start>-1</start>
						<end>-1</end>
						<effect>
							<name>Compressor/Limiter</name>
							<effecttype>filter</effecttype>
							<mediatype>audio</mediatype>
							<parameter>
								<parameterid>Threshold(dB)</parameterid>
								<name>Threshold(dB)</name>
								<valuemin>-90</valuemin>
								<valuemax>0</valuemax>
								<value>-34</value>
							</parameter>
							<parameter>
								<parameterid>Ratio</parameterid>
								<name>Ratio</name>
								<valuemin>1</valuemin>
								<valuemax>100</valuemax>
								<value>2</value>
							</parameter>
							<parameter>
								<parameterid>Attack Time</parameterid>
								<name>Attack Time</name>
								<valuemin>1</valuemin>
								<valuemax>100</valuemax>
								<value>10</value>
							</parameter>
							<parameter>
								<parameterid>Release Time</parameterid>
								<name>Release Time</name>
								<valuemin>1</valuemin>
								<valuemax>4000</valuemax>
								<value>100</value>
							</parameter>
							<parameter>
								<parameterid>Preserve Volume</parameterid>
								<name>Preserve Volume</name>
								<value>TRUE</value>
							</parameter>
						</effect>
					</filter>
					<filter>
						<enabled>TRUE</enabled>
						<start>-1</start>
						<end>-1</end>
						<effect>
							<name>3 Band Equalizer - Mann - 2</name>
							<effecttype>filter</effecttype>
							<mediatype>audio</mediatype>
							<parameter>
								<parameterid>Low Frequency</parameterid>
								<name>Low Frequency</name>
								<valuemin>80</valuemin>
								<valuemax>2000</valuemax>
								<value>837</value>
							</parameter>
							<parameter>
								<parameterid>Low Gain(dB)</parameterid>
								<name>Low Gain(dB)</name>
								<valuemin>-20</valuemin>
								<valuemax>20</valuemax>
								<value>-18</value>
							</parameter>
							<parameter>
								<parameterid>Mid Frequency</parameterid>
								<name>Mid Frequency</name>
								<valuemin>400</valuemin>
								<valuemax>8000</valuemax>
								<value>3297</value>
							</parameter>
							<parameter>
								<parameterid>Mid Gain(dB)</parameterid>
								<name>Mid Gain(dB)</name>
								<valuemin>-20</valuemin>
								<valuemax>20</valuemax>
								<value>-11</value>
							</parameter>
							<parameter>
								<parameterid>High Frequency</parameterid>
								<name>High Frequency</name>
								<valuemin>5000</valuemin>
								<valuemax>20000</valuemax>
								<value>10354</value>
							</parameter>
							<parameter>
								<parameterid>High Gain(dB)</parameterid>
								<name>High Gain(dB)</name>
								<valuemin>-20</valuemin>
								<valuemax>20</valuemax>
								<value>-20</value>
							</parameter>
						</effect>
					</filter>
					<filter>
						<enabled>TRUE</enabled>
						<start>-1</start>
						<end>-1</end>
						<effect>
							<name>Compressor/Limiter - 2</name>
							<effecttype>filter</effecttype>
							<mediatype>audio</mediatype>
							<parameter>
								<parameterid>Threshold(dB)</parameterid>
								<name>Threshold(dB)</name>
								<valuemin>-90</valuemin>
								<valuemax>0</valuemax>
								<value>-34</value>
							</parameter>
							<parameter>
								<parameterid>Ratio</parameterid>
								<name>Ratio</name>
								<valuemin>1</valuemin>
								<valuemax>100</valuemax>
								<value>2</value>
							</parameter>
							<parameter>
								<parameterid>Attack Time</parameterid>
								<name>Attack Time</name>
								<valuemin>1</valuemin>
								<valuemax>100</valuemax>
								<value>10</value>
							</parameter>
							<parameter>
								<parameterid>Release Time</parameterid>
								<name>Release Time</name>
								<valuemin>1</valuemin>
								<valuemax>4000</valuemax>
								<value>100</value>
							</parameter>
							<parameter>
								<parameterid>Preserve Volume</parameterid>
								<name>Preserve Volume</name>
								<value>TRUE</value>
							</parameter>
						</effect>
					</filter>
					<filter>
						<effect>
							<name>Audio Levels</name>
							<effectid>audiolevels</effectid>
							<effectcategory>audiolevels</effectcategory>
							<effecttype>audiolevels</effecttype>
							<mediatype>audio</mediatype>
							<parameter>
								<name>Level</name>
								<parameterid>level</parameterid>
								<valuemin>0</valuemin>
								<valuemax>3.98109</valuemax>
								<keyframe>
									<when>924.116</when>
									<value>0.158489</value>
								</keyframe>
								<keyframe>
									<when>930.143</when>
									<value>0.625532</value>
								</keyframe>
								<keyframe>
									<when>983.571</when>
									<value>0.554755</value>
								</keyframe>
								<keyframe>
									<when>987</when>
									<value>0</value>
								</keyframe>
								<keyframe>
									<when>1032</when>
									<value>0</value>
								</keyframe>
								<keyframe>
									<when>1047.86</when>
									<value>0.794328</value>
								</keyframe>
								<keyframe>
									<when>1077</when>
									<value>0.707946</value>
								</keyframe>
								<keyframe>
									<when>1081.71</when>
									<value>0.0112202</value>
								</keyframe>
								<keyframe>
									<when>1131</when>
									<value>0.0112202</value>
								</keyframe>
								<keyframe>
									<when>1141.29</when>
									<value>0.446684</value>
								</keyframe>
								<keyframe>
									<when>1164.43</when>
									<value>0.446684</value>
								</keyframe>
								<keyframe>
									<when>1173</when>
									<value>0.0177828</value>
								</keyframe>
								<keyframe>
									<when>1343.14</when>
									<value>0.0177828</value>
								</keyframe>
								<keyframe>
									<when>1362.86</when>
									<value>0.398107</value>
								</keyframe>
								<interpolation>
									<name>FCPCurve</name>
								</interpolation>
								<value>0</value>
							</parameter>
						</effect>
					</filter>
					<filter>
						<effect>
							<name>Audio Pan</name>
							<effectid>audiopan</effectid>
							<effectcategory>audiopan</effectcategory>
							<effecttype>audiopan</effecttype>
							<mediatype>audio</mediatype>
							<parameter>
								<name>Pan</name>
								<parameterid>pan</parameterid>
								<valuemin>-1</valuemin>
								<valuemax>1</valuemax>
								<value>0</value>
							</parameter>
						</effect>
					</filter>
					<sourcetrack>
						<mediatype>audio</mediatype>
						<trackindex>1</trackindex>
					</sourcetrack>
					<link>
						<linkclipref>msub200012-2308-k1d1-009 </linkclipref>
						<mediatype>video</mediatype>
						<trackindex>1</trackindex>
						<clipindex>66</clipindex>
					</link>
					<link>
						<linkclipref>msub200012-2308-k1d1-009 3</linkclipref>
						<mediatype>audio</mediatype>
						<trackindex>5</trackindex>
						<clipindex>15</clipindex>
					</link>
				</clipitem>
				<clipitem id="msub20000012r-k1-d1-17006 3">
					<name>msub20000012r-k1-d1-17006</name>
					<duration>2072</duration>
					<rate>
						<ntsc>FALSE</ntsc>
						<timebase>25</timebase>
					</rate>
					<in>1683</in>
					<out>1773</out>
					<start>24352</start>
					<end>24442</end>
					<subframeoffset>0</subframeoffset>
					<masterclipid>msub20000012r-k1-d1-17006 1</masterclipid>
					<logginginfo>
						<description>msub20000012r-k1-d1-17006</description>
						<scene/>
						<shottake/>
						<lognote/>
						<good>FALSE</good>
					</logginginfo>
					<labels>
						<label2/>
					</labels>
					<comments>
						<mastercomment1>RÃ…STOFF</mastercomment1>
						<mastercomment2/>
						<mastercomment3/>
						<mastercomment4/>
					</comments>
					<file id="msub20000012r-k1-d1-17006 2"/>
					<filter>
						<effect>
							<name>Audio Levels</name>
							<effectid>audiolevels</effectid>
							<effectcategory>audiolevels</effectcategory>
							<effecttype>audiolevels</effecttype>
							<mediatype>audio</mediatype>
							<parameter>
								<name>Level</name>
								<parameterid>level</parameterid>
								<valuemin>0</valuemin>
								<valuemax>3.98109</valuemax>
								<keyframe>
									<when>1750.24</when>
									<value>1</value>
								</keyframe>
								<keyframe>
									<when>1770.55</when>
									<value>0</value>
								</keyframe>
								<interpolation>
									<name>FCPCurve</name>
								</interpolation>
								<value>1</value>
							</parameter>
						</effect>
					</filter>
					<filter>
						<effect>
							<name>Audio Pan</name>
							<effectid>audiopan</effectid>
							<effectcategory>audiopan</effectcategory>
							<effecttype>audiopan</effecttype>
							<mediatype>audio</mediatype>
							<parameter>
								<name>Pan</name>
								<parameterid>pan</parameterid>
								<valuemin>-1</valuemin>
								<valuemax>1</valuemax>
								<value>0</value>
							</parameter>
						</effect>
					</filter>
					<sourcetrack>
						<mediatype>audio</mediatype>
						<trackindex>3</trackindex>
					</sourcetrack>
					<link>
						<linkclipref>msub20000012r-k1-d1-17006 </linkclipref>
						<mediatype>video</mediatype>
						<trackindex>1</trackindex>
						<clipindex>86</clipindex>
					</link>
					<link>
						<linkclipref>msub20000012r-k1-d1-17006 3</linkclipref>
						<mediatype>audio</mediatype>
						<trackindex>5</trackindex>
						<clipindex>16</clipindex>
					</link>
					<link>
						<linkclipref>msub20000012r-k1-d1-17006 4</linkclipref>
						<mediatype>audio</mediatype>
						<trackindex>6</trackindex>
						<clipindex>21</clipindex>
					</link>
				</clipitem>
				<clipitem id="msub200012-2208k1d2-003 6">
					<name>msub200012-2208k1d2-003</name>
					<duration>2811</duration>
					<rate>
						<ntsc>FALSE</ntsc>
						<timebase>25</timebase>
					</rate>
					<in>2227</in>
					<out>2275</out>
					<start>25034</start>
					<end>25082</end>
					<subframeoffset>0</subframeoffset>
					<enabled>FALSE</enabled>
					<masterclipid>msub200012-2208k1d2-003 1</masterclipid>
					<logginginfo>
						<description>msub200012-2208k1d2-003</description>
						<scene/>
						<shottake/>
						<lognote/>
						<good>FALSE</good>
					</logginginfo>
					<labels>
						<label2/>
					</labels>
					<comments>
						<mastercomment1>RÃ…STOFF. BR_FINFREDAG_MSUA_OPRO</mastercomment1>
						<mastercomment2/>
						<mastercomment3/>
						<mastercomment4/>
					</comments>
					<file id="msub200012-2208k1d2-003 2"/>
					<filter>
						<effect>
							<name>Audio Levels</name>
							<effectid>audiolevels</effectid>
							<effectcategory>audiolevels</effectcategory>
							<effecttype>audiolevels</effecttype>
							<mediatype>audio</mediatype>
							<parameter>
								<name>Level</name>
								<parameterid>level</parameterid>
								<valuemin>0</valuemin>
								<valuemax>3.98109</valuemax>
								<keyframe>
									<when>2170</when>
									<value>1</value>
								</keyframe>
								<keyframe>
									<when>2180</when>
									<value>1.77828</value>
								</keyframe>
								<keyframe>
									<when>2240.43</when>
									<value>1.77828</value>
								</keyframe>
								<keyframe>
									<when>2250.71</when>
									<value>0.630957</value>
								</keyframe>
								<keyframe>
									<when>2281.57</when>
									<value>0.630957</value>
								</keyframe>
								<keyframe>
									<when>2288.43</when>
									<value>0.794328</value>
								</keyframe>
								<interpolation>
									<name>FCPCurve</name>
								</interpolation>
								<value>1</value>
							</parameter>
						</effect>
					</filter>
					<filter>
						<effect>
							<name>Audio Pan</name>
							<effectid>audiopan</effectid>
							<effectcategory>audiopan</effectcategory>
							<effecttype>audiopan</effecttype>
							<mediatype>audio</mediatype>
							<parameter>
								<name>Pan</name>
								<parameterid>pan</parameterid>
								<valuemin>-1</valuemin>
								<valuemax>1</valuemax>
								<value>0</value>
							</parameter>
						</effect>
					</filter>
					<sourcetrack>
						<mediatype>audio</mediatype>
						<trackindex>4</trackindex>
					</sourcetrack>
				</clipitem>
				<clipitem id="msub200012-2208k1d2-003 7">
					<name>msub200012-2208k1d2-003</name>
					<duration>2811</duration>
					<rate>
						<ntsc>FALSE</ntsc>
						<timebase>25</timebase>
					</rate>
					<in>2308</in>
					<out>2357</out>
					<start>25082</start>
					<end>-1</end>
					<subframeoffset>0</subframeoffset>
					<masterclipid>msub200012-2208k1d2-003 1</masterclipid>
					<logginginfo>
						<description>msub200012-2208k1d2-003</description>
						<scene/>
						<shottake/>
						<lognote/>
						<good>FALSE</good>
					</logginginfo>
					<labels>
						<label2/>
					</labels>
					<comments>
						<mastercomment1>RÃ…STOFF. BR_FINFREDAG_MSUA_OPRO</mastercomment1>
						<mastercomment2/>
						<mastercomment3/>
						<mastercomment4/>
					</comments>
					<file id="msub200012-2208k1d2-003 2"/>
					<filter>
						<effect>
							<name>Audio Levels</name>
							<effectid>audiolevels</effectid>
							<effectcategory>audiolevels</effectcategory>
							<effecttype>audiolevels</effecttype>
							<mediatype>audio</mediatype>
							<parameter>
								<name>Level</name>
								<parameterid>level</parameterid>
								<valuemin>0</valuemin>
								<valuemax>3.98109</valuemax>
								<keyframe>
									<when>2170</when>
									<value>1</value>
								</keyframe>
								<keyframe>
									<when>2180</when>
									<value>1.77828</value>
								</keyframe>
								<keyframe>
									<when>2240.43</when>
									<value>1.77828</value>
								</keyframe>
								<keyframe>
									<when>2250.71</when>
									<value>0.501187</value>
								</keyframe>
								<keyframe>
									<when>2281.57</when>
									<value>0.501187</value>
								</keyframe>
								<keyframe>
									<when>2288.43</when>
									<value>0.251189</value>
								</keyframe>
								<interpolation>
									<name>FCPCurve</name>
								</interpolation>
								<value>1</value>
							</parameter>
						</effect>
					</filter>
					<filter>
						<effect>
							<name>Audio Pan</name>
							<effectid>audiopan</effectid>
							<effectcategory>audiopan</effectcategory>
							<effecttype>audiopan</effecttype>
							<mediatype>audio</mediatype>
							<parameter>
								<name>Pan</name>
								<parameterid>pan</parameterid>
								<valuemin>-1</valuemin>
								<valuemax>1</valuemax>
								<value>0</value>
							</parameter>
						</effect>
					</filter>
					<sourcetrack>
						<mediatype>audio</mediatype>
						<trackindex>4</trackindex>
					</sourcetrack>
				</clipitem>
				<transitionitem id="58">
					<rate>
						<ntsc>FALSE</ntsc>
						<timebase>25</timebase>
					</rate>
					<start>25125</start>
					<end>25131</end>
					<alignment>end-black</alignment>
					<effect>
						<name>Cross Fade (+3dB) Copy</name>
						<effecttype>transition</effecttype>
						<mediatype>audio</mediatype>
					</effect>
				</transitionitem>
				<clipitem id="Fin Fredag PIMPBUMP 2.wav">
					<name>Fin Fredag PIMPBUMP 2.wav</name>
					<duration>1095</duration>
					<rate>
						<ntsc>FALSE</ntsc>
						<timebase>25</timebase>
					</rate>
					<in>0</in>
					<out>71</out>
					<start>25892</start>
					<end>25963</end>
					<subframeoffset>0</subframeoffset>
					<masterclipid>Fin Fredag PIMPBUMP 2.wav1</masterclipid>
					<logginginfo>
						<scene/>
						<shottake/>
						<lognote/>
						<good>FALSE</good>
					</logginginfo>
					<labels>
						<label2/>
					</labels>
					<comments>
						<mastercomment1/>
						<mastercomment2/>
						<mastercomment3/>
						<mastercomment4/>
					</comments>
					<file id="Fin Fredag PIMPBUMP 2 ">
						<name>Fin Fredag PIMPBUMP 2.wav</name>
						<pathurl>file://localhost/Volumes/Prosjekter_SuperSAN1-1/MSUB20000012%20FIN%20FREDAG/SFX/Profil-grafikk/01_MASTER/Vignettmusikk/Bumpers/Fin%20Fredag%20PIMPBUMP%202.wav</pathurl>
						<rate>
							<timebase>25</timebase>
						</rate>
						<duration>1095</duration>
						<timecode>
							<rate>
								<timebase>25</timebase>
							</rate>
							<string>00:00:57:01</string>
							<frame>1426</frame>
							<displayformat>NDF</displayformat>
							<source>source</source>
						</timecode>
						<media>
							<audio>
								<rate>
									<timebase>48000</timebase>
								</rate>
								<trackcount>2</trackcount>
								<samplecharacteristics>
									<depth>24</depth>
								</samplecharacteristics>
							</audio>
						</media>
					</file>
					<filter>
						<effect>
							<name>Audio Levels</name>
							<effectid>audiolevels</effectid>
							<effectcategory>audiolevels</effectcategory>
							<effecttype>audiolevels</effecttype>
							<mediatype>audio</mediatype>
							<parameter>
								<name>Level</name>
								<parameterid>level</parameterid>
								<valuemin>0</valuemin>
								<valuemax>3.98109</valuemax>
								<value>0.517527</value>
							</parameter>
						</effect>
					</filter>
					<filter>
						<effect>
							<name>Audio Pan</name>
							<effectid>audiopan</effectid>
							<effectcategory>audiopan</effectcategory>
							<effecttype>audiopan</effecttype>
							<mediatype>audio</mediatype>
							<parameter>
								<name>Pan</name>
								<parameterid>pan</parameterid>
								<valuemin>-1</valuemin>
								<valuemax>1</valuemax>
								<value>-1</value>
							</parameter>
						</effect>
					</filter>
					<sourcetrack>
						<mediatype>audio</mediatype>
						<trackindex>1</trackindex>
					</sourcetrack>
					<link>
						<linkclipref>Fin Fredag PIMPBUMP 2.wav</linkclipref>
						<mediatype>audio</mediatype>
						<trackindex>5</trackindex>
						<clipindex>20</clipindex>
						<groupindex>1</groupindex>
					</link>
					<link>
						<linkclipref>Fin Fredag PIMPBUMP 2.wav2</linkclipref>
						<mediatype>audio</mediatype>
						<trackindex>6</trackindex>
						<clipindex>25</clipindex>
						<groupindex>1</groupindex>
					</link>
				</clipitem>
				<transitionitem id="1049515784 ">
					<rate>
						<ntsc>FALSE</ntsc>
						<timebase>25</timebase>
					</rate>
					<start>28327</start>
					<end>28333</end>
					<alignment>center</alignment>
					<effect>
						<name>Cross Fade (+3dB)</name>
						<effecttype>transition</effecttype>
						<mediatype>audio</mediatype>
					</effect>
				</transitionitem>
				<clipitem id="02 MEXICAN SUNSHINE --- lively guaracha featuring     trombone.aif4">
					<name>02 MEXICAN SUNSHINE --- lively guaracha featuring     trombone.aif</name>
					<duration>3905</duration>
					<rate>
						<ntsc>FALSE</ntsc>
						<timebase>25</timebase>
					</rate>
					<in>332</in>
					<out>770</out>
					<start>-1</start>
					<end>-1</end>
					<subframeoffset>0</subframeoffset>
					<enabled>TRUE</enabled>
					<masterclipid>02 MEXICAN SUNSHINE --- lively guaracha featuring     trombone.aif1</masterclipid>
					<logginginfo>
						<scene/>
						<shottake/>
						<lognote/>
						<good>FALSE</good>
					</logginginfo>
					<labels>
						<label2/>
					</labels>
					<comments>
						<mastercomment1/>
						<mastercomment2/>
						<mastercomment3/>
						<mastercomment4/>
					</comments>
					<file id="02 MEXICAN SUNSHINE --- lively guaracha featuring     trombone"/>
					<filter>
						<enabled>TRUE</enabled>
						<start>-1</start>
						<end>-1</end>
						<effect>
							<name>AUMultibandCompressor</name>
							<effecttype>filter</effecttype>
							<mediatype>audio</mediatype>
							<parameter>
								<parameterid>pre-gain</parameterid>
								<name>pre-gain</name>
								<valuemin>-40</valuemin>
								<valuemax>40</valuemax>
								<value>0</value>
							</parameter>
							<parameter>
								<parameterid>post-gain</parameterid>
								<name>post-gain</name>
								<valuemin>-40</valuemin>
								<valuemax>40</valuemax>
								<value>0</value>
							</parameter>
							<parameter>
								<parameterid>crossover 1</parameterid>
								<name>crossover 1</name>
								<valuemin>20</valuemin>
								<valuemax>22050</valuemax>
								<value>120</value>
							</parameter>
							<parameter>
								<parameterid>crossover 2</parameterid>
								<name>crossover 2</name>
								<valuemin>20</valuemin>
								<valuemax>22050</valuemax>
								<value>700</value>
							</parameter>
							<parameter>
								<parameterid>crossover 3</parameterid>
								<name>crossover 3</name>
								<valuemin>20</valuemin>
								<valuemax>22050</valuemax>
								<value>3000</value>
							</parameter>
							<parameter>
								<parameterid>threshold 1</parameterid>
								<name>threshold 1</name>
								<valuemin>-100</valuemin>
								<valuemax>0</valuemax>
								<value>-22</value>
							</parameter>
							<parameter>
								<parameterid>threshold 2</parameterid>
								<name>threshold 2</name>
								<valuemin>-100</valuemin>
								<valuemax>0</valuemax>
								<value>-32.5</value>
							</parameter>
							<parameter>
								<parameterid>threshold 3</parameterid>
								<name>threshold 3</name>
								<valuemin>-100</valuemin>
								<valuemax>0</valuemax>
								<value>-38</value>
							</parameter>
							<parameter>
								<parameterid>threshold 4</parameterid>
								<name>threshold 4</name>
								<valuemin>-100</valuemin>
								<valuemax>0</valuemax>
								<value>-36</value>
							</parameter>
							<parameter>
								<parameterid>headroom 1</parameterid>
								<name>headroom 1</name>
								<valuemin>0.1</valuemin>
								<valuemax>40</valuemax>
								<value>5</value>
							</parameter>
							<parameter>
								<parameterid>headroom 2</parameterid>
								<name>headroom 2</name>
								<valuemin>0.1</valuemin>
								<valuemax>40</valuemax>
								<value>12</value>
							</parameter>
							<parameter>
								<parameterid>headroom 3</parameterid>
								<name>headroom 3</name>
								<valuemin>0.1</valuemin>
								<valuemax>40</valuemax>
								<value>5</value>
							</parameter>
							<parameter>
								<parameterid>headroom 4</parameterid>
								<name>headroom 4</name>
								<valuemin>0.1</valuemin>
								<valuemax>40</valuemax>
								<value>7.5</value>
							</parameter>
							<parameter>
								<parameterid>attack time</parameterid>
								<name>attack time</name>
								<valuemin>0.001</valuemin>
								<valuemax>0.2</valuemax>
								<value>0.08</value>
							</parameter>
							<parameter>
								<parameterid>release time</parameterid>
								<name>release time</name>
								<valuemin>0.01</valuemin>
								<valuemax>3</valuemax>
								<value>0.12</value>
							</parameter>
							<parameter>
								<parameterid>EQ 1</parameterid>
								<name>EQ 1</name>
								<valuemin>-20</valuemin>
								<valuemax>20</valuemax>
								<value>-10</value>
							</parameter>
							<parameter>
								<parameterid>EQ 2</parameterid>
								<name>EQ 2</name>
								<valuemin>-20</valuemin>
								<valuemax>20</valuemax>
								<value>-3</value>
							</parameter>
							<parameter>
								<parameterid>EQ 3</parameterid>
								<name>EQ 3</name>
								<valuemin>-20</valuemin>
								<valuemax>20</valuemax>
								<value>6</value>
							</parameter>
							<parameter>
								<parameterid>EQ 4</parameterid>
								<name>EQ 4</name>
								<valuemin>-20</valuemin>
								<valuemax>20</valuemax>
								<value>-3</value>
							</parameter>
							<parameter>
								<parameterid>comp amount 1</parameterid>
								<name>comp amount 1</name>
								<valuemin>0</valuemin>
								<valuemax>20</valuemax>
								<value>0</value>
							</parameter>
							<parameter>
								<parameterid>comp amount 2</parameterid>
								<name>comp amount 2</name>
								<valuemin>0</valuemin>
								<valuemax>20</valuemax>
								<value>0</value>
							</parameter>
							<parameter>
								<parameterid>comp amount 3</parameterid>
								<name>comp amount 3</name>
								<valuemin>0</valuemin>
								<valuemax>20</valuemax>
								<value>0</value>
							</parameter>
							<parameter>
								<parameterid>comp amount 4</parameterid>
								<name>comp amount 4</name>
								<valuemin>0</valuemin>
								<valuemax>20</valuemax>
								<value>0</value>
							</parameter>
							<parameter>
								<parameterid>input amp 1</parameterid>
								<name>input amp 1</name>
								<valuemin>-120</valuemin>
								<valuemax>20</valuemax>
								<value>0</value>
							</parameter>
							<parameter>
								<parameterid>input amp 2</parameterid>
								<name>input amp 2</name>
								<valuemin>-120</valuemin>
								<valuemax>20</valuemax>
								<value>0</value>
							</parameter>
							<parameter>
								<parameterid>input amp 3</parameterid>
								<name>input amp 3</name>
								<valuemin>-120</valuemin>
								<valuemax>20</valuemax>
								<value>0</value>
							</parameter>
							<parameter>
								<parameterid>input amp 4</parameterid>
								<name>input amp 4</name>
								<valuemin>-120</valuemin>
								<valuemax>20</valuemax>
								<value>0</value>
							</parameter>
							<parameter>
								<parameterid>output amp 1</parameterid>
								<name>output amp 1</name>
								<valuemin>-120</valuemin>
								<valuemax>20</valuemax>
								<value>0</value>
							</parameter>
							<parameter>
								<parameterid>output amp 2</parameterid>
								<name>output amp 2</name>
								<valuemin>-120</valuemin>
								<valuemax>20</valuemax>
								<value>0</value>
							</parameter>
							<parameter>
								<parameterid>output amp 3</parameterid>
								<name>output amp 3</name>
								<valuemin>-120</valuemin>
								<valuemax>20</valuemax>
								<value>0</value>
							</parameter>
							<parameter>
								<parameterid>output amp 4</parameterid>
								<name>output amp 4</name>
								<valuemin>-120</valuemin>
								<valuemax>20</valuemax>
								<value>0</value>
							</parameter>
						</effect>
					</filter>
					<filter>
						<effect>
							<name>Audio Levels</name>
							<effectid>audiolevels</effectid>
							<effectcategory>audiolevels</effectcategory>
							<effecttype>audiolevels</effecttype>
							<mediatype>audio</mediatype>
							<parameter>
								<name>Level</name>
								<parameterid>level</parameterid>
								<valuemin>0</valuemin>
								<valuemax>3.98109</valuemax>
								<keyframe>
									<when>381.357</when>
									<value>0.562341</value>
								</keyframe>
								<keyframe>
									<when>392.607</when>
									<value>0.891251</value>
								</keyframe>
								<keyframe>
									<when>490.107</when>
									<value>0.891251</value>
								</keyframe>
								<keyframe>
									<when>501.357</when>
									<value>0.630957</value>
								</keyframe>
								<interpolation>
									<name>FCPCurve</name>
								</interpolation>
								<value>0.510049</value>
							</parameter>
						</effect>
					</filter>
					<filter>
						<effect>
							<name>Audio Pan</name>
							<effectid>audiopan</effectid>
							<effectcategory>audiopan</effectcategory>
							<effecttype>audiopan</effecttype>
							<mediatype>audio</mediatype>
							<parameter>
								<name>Pan</name>
								<parameterid>pan</parameterid>
								<valuemin>-1</valuemin>
								<valuemax>1</valuemax>
								<value>1</value>
							</parameter>
						</effect>
					</filter>
					<sourcetrack>
						<mediatype>audio</mediatype>
						<trackindex>2</trackindex>
					</sourcetrack>
					<link>
						<linkclipref>02 MEXICAN SUNSHINE --- lively guaracha featuring     trombone.aif3</linkclipref>
						<mediatype>audio</mediatype>
						<trackindex>4</trackindex>
						<clipindex>72</clipindex>
						<groupindex>1</groupindex>
					</link>
					<link>
						<linkclipref>02 MEXICAN SUNSHINE --- lively guaracha featuring     trombone.aif4</linkclipref>
						<mediatype>audio</mediatype>
						<trackindex>5</trackindex>
						<clipindex>22</clipindex>
						<groupindex>1</groupindex>
					</link>
				</clipitem>
				<transitionitem id="59">
					<rate>
						<ntsc>FALSE</ntsc>
						<timebase>25</timebase>
					</rate>
					<start>28740</start>
					<end>28765</end>
					<alignment>end-black</alignment>
					<effect>
						<name>Cross Fade (+3dB)</name>
						<effecttype>transition</effecttype>
						<mediatype>audio</mediatype>
					</effect>
				</transitionitem>
				<clipitem id="AUXMP_RSM010437_HEAVY URBAN STING.mp3 3">
					<name>AUXMP_RSM010437_HEAVY URBAN STING.mp3</name>
					<duration>396</duration>
					<rate>
						<ntsc>FALSE</ntsc>
						<timebase>25</timebase>
					</rate>
					<in>25</in>
					<out>131</out>
					<start>31849</start>
					<end>31955</end>
					<subframeoffset>0</subframeoffset>
					<enabled>TRUE</enabled>
					<masterclipid>AUXMP_RSM010437_HEAVY URBAN STING.mp3 1</masterclipid>
					<logginginfo>
						<scene/>
						<shottake/>
						<lognote/>
						<good>FALSE</good>
					</logginginfo>
					<labels>
						<label2/>
					</labels>
					<comments>
						<mastercomment1/>
						<mastercomment2/>
						<mastercomment3/>
						<mastercomment4/>
					</comments>
					<file id="AUXMP_RSM010437_HEAVY URBAN STING"/>
					<filter>
						<effect>
							<name>Audio Levels</name>
							<effectid>audiolevels</effectid>
							<effectcategory>audiolevels</effectcategory>
							<effecttype>audiolevels</effecttype>
							<mediatype>audio</mediatype>
							<parameter>
								<name>Level</name>
								<parameterid>level</parameterid>
								<valuemin>0</valuemin>
								<valuemax>3.98109</valuemax>
								<value>0.316228</value>
							</parameter>
						</effect>
					</filter>
					<filter>
						<effect>
							<name>Audio Pan</name>
							<effectid>audiopan</effectid>
							<effectcategory>audiopan</effectcategory>
							<effecttype>audiopan</effecttype>
							<mediatype>audio</mediatype>
							<parameter>
								<name>Pan</name>
								<parameterid>pan</parameterid>
								<valuemin>-1</valuemin>
								<valuemax>1</valuemax>
								<value>-1</value>
							</parameter>
						</effect>
					</filter>
					<sourcetrack>
						<mediatype>audio</mediatype>
						<trackindex>1</trackindex>
					</sourcetrack>
					<link>
						<linkclipref>AUXMP_RSM010437_HEAVY URBAN STING.mp3 3</linkclipref>
						<mediatype>audio</mediatype>
						<trackindex>5</trackindex>
						<clipindex>24</clipindex>
						<groupindex>1</groupindex>
					</link>
					<link>
						<linkclipref>AUXMP_RSM010437_HEAVY URBAN STING.mp3 4</linkclipref>
						<mediatype>audio</mediatype>
						<trackindex>6</trackindex>
						<clipindex>33</clipindex>
						<groupindex>1</groupindex>
					</link>
				</clipitem>
				<clipitem id="AUXMP_UBMM213539_EL CLUSH.mp3 ">
					<name>AUXMP_UBMM213539_EL CLUSH.mp3</name>
					<duration>797</duration>
					<rate>
						<ntsc>FALSE</ntsc>
						<timebase>25</timebase>
					</rate>
					<in>0</in>
					<out>628</out>
					<start>32512</start>
					<end>33140</end>
					<masterclipid>AUXMP_UBMM213539_EL CLUSH.mp3 1</masterclipid>
					<logginginfo>
						<scene/>
						<shottake/>
						<lognote/>
						<good>FALSE</good>
					</logginginfo>
					<labels>
						<label2/>
					</labels>
					<comments>
						<mastercomment1/>
						<mastercomment2/>
						<mastercomment3/>
						<mastercomment4/>
					</comments>
					<file id="AUXMP_UBMM213539_EL CLUSH">
						<name>AUXMP_UBMM213539_EL CLUSH.mp3</name>
						<pathurl>file://localhost/SuperSAN1/Prosjekter/MSUB20000012%20FIN%20FREDAG/MUSIKK/Kristine%20VS%20Roekla/auxmp14767_114.zip%20Folder/AUXMP_UBMM213539_EL%20CLUSH.mp3</pathurl>
						<rate>
							<timebase>25</timebase>
						</rate>
						<duration>797</duration>
						<media>
							<audio>
								<rate>
									<timebase>44100</timebase>
								</rate>
								<trackcount>2</trackcount>
								<samplecharacteristics>
									<depth>32</depth>
								</samplecharacteristics>
							</audio>
						</media>
					</file>
					<filter>
						<effect>
							<name>Audio Levels</name>
							<effectid>audiolevels</effectid>
							<effectcategory>audiolevels</effectcategory>
							<effecttype>audiolevels</effecttype>
							<mediatype>audio</mediatype>
							<parameter>
								<name>Level</name>
								<parameterid>level</parameterid>
								<valuemin>0</valuemin>
								<valuemax>3.98109</valuemax>
								<keyframe>
									<when>43.2857</when>
									<value>0.354813</value>
								</keyframe>
								<keyframe>
									<when>70.2857</when>
									<value>0.0891251</value>
								</keyframe>
								<keyframe>
									<when>116.571</when>
									<value>0.0891251</value>
								</keyframe>
								<keyframe>
									<when>126.857</when>
									<value>0.281838</value>
								</keyframe>
								<keyframe>
									<when>199.179</when>
									<value>0.281838</value>
								</keyframe>
								<keyframe>
									<when>245.464</when>
									<value>0.281838</value>
								</keyframe>
								<keyframe>
									<when>249.482</when>
									<value>0</value>
								</keyframe>
								<keyframe>
									<when>253.902</when>
									<value>0</value>
								</keyframe>
								<keyframe>
									<when>254.304</when>
									<value>0.281838</value>
								</keyframe>
								<keyframe>
									<when>284.679</when>
									<value>0.281838</value>
								</keyframe>
								<keyframe>
									<when>298.821</when>
									<value>0.112202</value>
								</keyframe>
								<keyframe>
									<when>339.643</when>
									<value>0.0891251</value>
								</keyframe>
								<keyframe>
									<when>348.643</when>
									<value>0.0630957</value>
								</keyframe>
								<keyframe>
									<when>381.429</when>
									<value>0.0630957</value>
								</keyframe>
								<keyframe>
									<when>389.304</when>
									<value>0.354813</value>
								</keyframe>
								<keyframe>
									<when>394.446</when>
									<value>0.251189</value>
								</keyframe>
								<keyframe>
									<when>486.321</when>
									<value>0.251189</value>
								</keyframe>
								<keyframe>
									<when>488.679</when>
									<value>0.0891251</value>
								</keyframe>
								<keyframe>
									<when>492.429</when>
									<value>0.0891251</value>
								</keyframe>
								<keyframe>
									<when>499.714</when>
									<value>0.251189</value>
								</keyframe>
								<interpolation>
									<name>FCPCurve</name>
								</interpolation>
								<value>0.354813</value>
							</parameter>
						</effect>
					</filter>
					<filter>
						<effect>
							<name>Audio Pan</name>
							<effectid>audiopan</effectid>
							<effectcategory>audiopan</effectcategory>
							<effecttype>audiopan</effecttype>
							<mediatype>audio</mediatype>
							<parameter>
								<name>Pan</name>
								<parameterid>pan</parameterid>
								<valuemin>-1</valuemin>
								<valuemax>1</valuemax>
								<value>-1</value>
							</parameter>
						</effect>
					</filter>
					<sourcetrack>
						<mediatype>audio</mediatype>
						<trackindex>1</trackindex>
					</sourcetrack>
					<link>
						<linkclipref>AUXMP_UBMM213539_EL CLUSH.mp3 </linkclipref>
						<mediatype>audio</mediatype>
						<trackindex>5</trackindex>
						<clipindex>25</clipindex>
						<groupindex>1</groupindex>
					</link>
					<link>
						<linkclipref>AUXMP_UBMM213539_EL CLUSH.mp3 2</linkclipref>
						<mediatype>audio</mediatype>
						<trackindex>6</trackindex>
						<clipindex>34</clipindex>
						<groupindex>1</groupindex>
					</link>
				</clipitem>
				<clipitem id="AUXMP_UBMM213539_EL CLUSH.mp3 3">
					<name>AUXMP_UBMM213539_EL CLUSH.mp3</name>
					<duration>797</duration>
					<rate>
						<ntsc>FALSE</ntsc>
						<timebase>25</timebase>
					</rate>
					<in>0</in>
					<out>278</out>
					<start>33154</start>
					<end>33432</end>
					<subframeoffset>0</subframeoffset>
					<masterclipid>AUXMP_UBMM213539_EL CLUSH.mp3 1</masterclipid>
					<logginginfo>
						<scene/>
						<shottake/>
						<lognote/>
						<good>FALSE</good>
					</logginginfo>
					<labels>
						<label2/>
					</labels>
					<comments>
						<mastercomment1/>
						<mastercomment2/>
						<mastercomment3/>
						<mastercomment4/>
					</comments>
					<file id="AUXMP_UBMM213539_EL CLUSH"/>
					<filter>
						<effect>
							<name>Audio Levels</name>
							<effectid>audiolevels</effectid>
							<effectcategory>audiolevels</effectcategory>
							<effecttype>audiolevels</effecttype>
							<mediatype>audio</mediatype>
							<parameter>
								<name>Level</name>
								<parameterid>level</parameterid>
								<valuemin>0</valuemin>
								<valuemax>3.98109</valuemax>
								<keyframe>
									<when>103.812</when>
									<value>0.199526</value>
								</keyframe>
								<keyframe>
									<when>128.143</when>
									<value>0.0501187</value>
								</keyframe>
								<keyframe>
									<when>181.071</when>
									<value>0.0501187</value>
								</keyframe>
								<keyframe>
									<when>190.071</when>
									<value>0.158489</value>
								</keyframe>
								<keyframe>
									<when>209.357</when>
									<value>0.158489</value>
								</keyframe>
								<keyframe>
									<when>222.214</when>
									<value>0.0501187</value>
								</keyframe>
								<keyframe>
									<when>246.643</when>
									<value>0.0501187</value>
								</keyframe>
								<keyframe>
									<when>253.607</when>
									<value>0.0501187</value>
								</keyframe>
								<keyframe>
									<when>262.714</when>
									<value>0.0501187</value>
								</keyframe>
								<keyframe>
									<when>270</when>
									<value>0</value>
								</keyframe>
								<interpolation>
									<name>FCPCurve</name>
								</interpolation>
								<value>0.199526</value>
							</parameter>
						</effect>
					</filter>
					<filter>
						<effect>
							<name>Audio Pan</name>
							<effectid>audiopan</effectid>
							<effectcategory>audiopan</effectcategory>
							<effecttype>audiopan</effecttype>
							<mediatype>audio</mediatype>
							<parameter>
								<name>Pan</name>
								<parameterid>pan</parameterid>
								<valuemin>-1</valuemin>
								<valuemax>1</valuemax>
								<value>-1</value>
							</parameter>
						</effect>
					</filter>
					<sourcetrack>
						<mediatype>audio</mediatype>
						<trackindex>1</trackindex>
					</sourcetrack>
					<link>
						<linkclipref>AUXMP_UBMM213539_EL CLUSH.mp3 3</linkclipref>
						<mediatype>audio</mediatype>
						<trackindex>5</trackindex>
						<clipindex>26</clipindex>
						<groupindex>1</groupindex>
					</link>
					<link>
						<linkclipref>AUXMP_UBMM213539_EL CLUSH.mp3 4</linkclipref>
						<mediatype>audio</mediatype>
						<trackindex>6</trackindex>
						<clipindex>35</clipindex>
						<groupindex>1</groupindex>
					</link>
				</clipitem>
				<clipitem id="AUXMP_UBMM213539_EL CLUSH.mp3 5">
					<name>AUXMP_UBMM213539_EL CLUSH.mp3</name>
					<duration>797</duration>
					<rate>
						<ntsc>FALSE</ntsc>
						<timebase>25</timebase>
					</rate>
					<in>372</in>
					<out>533</out>
					<start>33546</start>
					<end>33707</end>
					<subframeoffset>0</subframeoffset>
					<masterclipid>AUXMP_UBMM213539_EL CLUSH.mp3 1</masterclipid>
					<logginginfo>
						<scene/>
						<shottake/>
						<lognote/>
						<good>FALSE</good>
					</logginginfo>
					<labels>
						<label2/>
					</labels>
					<comments>
						<mastercomment1/>
						<mastercomment2/>
						<mastercomment3/>
						<mastercomment4/>
					</comments>
					<file id="AUXMP_UBMM213539_EL CLUSH"/>
					<filter>
						<effect>
							<name>Audio Levels</name>
							<effectid>audiolevels</effectid>
							<effectcategory>audiolevels</effectcategory>
							<effecttype>audiolevels</effecttype>
							<mediatype>audio</mediatype>
							<parameter>
								<name>Level</name>
								<parameterid>level</parameterid>
								<valuemin>0</valuemin>
								<valuemax>3.98109</valuemax>
								<keyframe>
									<when>411.143</when>
									<value>0.281838</value>
								</keyframe>
								<keyframe>
									<when>425.286</when>
									<value>0.0891251</value>
								</keyframe>
								<keyframe>
									<when>460</when>
									<value>0.0891251</value>
								</keyframe>
								<keyframe>
									<when>475</when>
									<value>0.141254</value>
								</keyframe>
								<keyframe>
									<when>487.429</when>
									<value>0.141254</value>
								</keyframe>
								<keyframe>
									<when>491.286</when>
									<value>0.0891251</value>
								</keyframe>
								<keyframe>
									<when>556.857</when>
									<value>0.0891251</value>
								</keyframe>
								<keyframe>
									<when>562.214</when>
									<value>0.141254</value>
								</keyframe>
								<keyframe>
									<when>578.5</when>
									<value>0.141254</value>
								</keyframe>
								<keyframe>
									<when>581.714</when>
									<value>0.0891251</value>
								</keyframe>
								<keyframe>
									<when>605.071</when>
									<value>0.0891251</value>
								</keyframe>
								<keyframe>
									<when>627.786</when>
									<value>0.199526</value>
								</keyframe>
								<keyframe>
									<when>668.929</when>
									<value>0.199526</value>
								</keyframe>
								<keyframe>
									<when>693.99</when>
									<value>0.0891251</value>
								</keyframe>
								<interpolation>
									<name>FCPCurve</name>
								</interpolation>
								<value>0.199526</value>
							</parameter>
						</effect>
					</filter>
					<filter>
						<effect>
							<name>Audio Pan</name>
							<effectid>audiopan</effectid>
							<effectcategory>audiopan</effectcategory>
							<effecttype>audiopan</effecttype>
							<mediatype>audio</mediatype>
							<parameter>
								<name>Pan</name>
								<parameterid>pan</parameterid>
								<valuemin>-1</valuemin>
								<valuemax>1</valuemax>
								<value>-1</value>
							</parameter>
						</effect>
					</filter>
					<sourcetrack>
						<mediatype>audio</mediatype>
						<trackindex>1</trackindex>
					</sourcetrack>
					<link>
						<linkclipref>AUXMP_UBMM213539_EL CLUSH.mp3 5</linkclipref>
						<mediatype>audio</mediatype>
						<trackindex>5</trackindex>
						<clipindex>27</clipindex>
						<groupindex>1</groupindex>
					</link>
					<link>
						<linkclipref>AUXMP_UBMM213539_EL CLUSH.mp3 6</linkclipref>
						<mediatype>audio</mediatype>
						<trackindex>6</trackindex>
						<clipindex>36</clipindex>
						<groupindex>1</groupindex>
					</link>
				</clipitem>
				<clipitem id="AUXMP_RSM010437_HEAVY URBAN STING.mp3 5">
					<name>AUXMP_RSM010437_HEAVY URBAN STING.mp3</name>
					<duration>396</duration>
					<rate>
						<ntsc>FALSE</ntsc>
						<timebase>25</timebase>
					</rate>
					<in>0</in>
					<out>171</out>
					<start>34443</start>
					<end>34614</end>
					<subframeoffset>0</subframeoffset>
					<masterclipid>AUXMP_RSM010437_HEAVY URBAN STING.mp3 1</masterclipid>
					<logginginfo>
						<scene/>
						<shottake/>
						<lognote/>
						<good>FALSE</good>
					</logginginfo>
					<labels>
						<label2/>
					</labels>
					<comments>
						<mastercomment1/>
						<mastercomment2/>
						<mastercomment3/>
						<mastercomment4/>
					</comments>
					<file id="AUXMP_RSM010437_HEAVY URBAN STING"/>
					<filter>
						<effect>
							<name>Audio Levels</name>
							<effectid>audiolevels</effectid>
							<effectcategory>audiolevels</effectcategory>
							<effecttype>audiolevels</effecttype>
							<mediatype>audio</mediatype>
							<parameter>
								<name>Level</name>
								<parameterid>level</parameterid>
								<valuemin>0</valuemin>
								<valuemax>3.98109</valuemax>
								<keyframe>
									<when>129.571</when>
									<value>0.281838</value>
								</keyframe>
								<keyframe>
									<when>160.429</when>
									<value>0.223872</value>
								</keyframe>
								<interpolation>
									<name>FCPCurve</name>
								</interpolation>
								<value>0.354813</value>
							</parameter>
						</effect>
					</filter>
					<filter>
						<effect>
							<name>Audio Pan</name>
							<effectid>audiopan</effectid>
							<effectcategory>audiopan</effectcategory>
							<effecttype>audiopan</effecttype>
							<mediatype>audio</mediatype>
							<parameter>
								<name>Pan</name>
								<parameterid>pan</parameterid>
								<valuemin>-1</valuemin>
								<valuemax>1</valuemax>
								<value>-1</value>
							</parameter>
						</effect>
					</filter>
					<sourcetrack>
						<mediatype>audio</mediatype>
						<trackindex>1</trackindex>
					</sourcetrack>
					<link>
						<linkclipref>AUXMP_RSM010437_HEAVY URBAN STING.mp3 5</linkclipref>
						<mediatype>audio</mediatype>
						<trackindex>5</trackindex>
						<clipindex>28</clipindex>
						<groupindex>1</groupindex>
					</link>
					<link>
						<linkclipref>AUXMP_RSM010437_HEAVY URBAN STING.mp3 6</linkclipref>
						<mediatype>audio</mediatype>
						<trackindex>6</trackindex>
						<clipindex>37</clipindex>
						<groupindex>1</groupindex>
					</link>
				</clipitem>
				<clipitem id="AUXMP_SCDV028131_SKIP AND HOP B.mp3 ">
					<name>AUXMP_SCDV028131_SKIP AND HOP B.mp3</name>
					<duration>878</duration>
					<rate>
						<ntsc>FALSE</ntsc>
						<timebase>25</timebase>
					</rate>
					<in>0</in>
					<out>524</out>
					<start>35534</start>
					<end>36058</end>
					<masterclipid>AUXMP_SCDV028131_SKIP AND HOP B.mp3 1</masterclipid>
					<logginginfo>
						<scene/>
						<shottake/>
						<lognote/>
						<good>FALSE</good>
					</logginginfo>
					<labels>
						<label2/>
					</labels>
					<comments>
						<mastercomment1/>
						<mastercomment2/>
						<mastercomment3/>
						<mastercomment4/>
					</comments>
					<file id="AUXMP_SCDV028131_SKIP AND HOP B">
						<name>AUXMP_SCDV028131_SKIP AND HOP B.mp3</name>
						<pathurl>file://localhost/SuperSAN1/Prosjekter/MSUB20000012%20FIN%20FREDAG/MUSIKK/Kristine%20VS%20Roekla/auxmp14767_114.zip%20Folder/AUXMP_SCDV028131_SKIP%20AND%20HOP%20B.mp3</pathurl>
						<rate>
							<timebase>25</timebase>
						</rate>
						<duration>878</duration>
						<media>
							<audio>
								<rate>
									<timebase>44100</timebase>
								</rate>
								<trackcount>2</trackcount>
								<samplecharacteristics>
									<depth>32</depth>
								</samplecharacteristics>
							</audio>
						</media>
					</file>
					<filter>
						<effect>
							<name>Audio Levels</name>
							<effectid>audiolevels</effectid>
							<effectcategory>audiolevels</effectcategory>
							<effecttype>audiolevels</effecttype>
							<mediatype>audio</mediatype>
							<parameter>
								<name>Level</name>
								<parameterid>level</parameterid>
								<valuemin>0</valuemin>
								<valuemax>3.98109</valuemax>
								<keyframe>
									<when>1.57143</when>
									<value>0.0891251</value>
								</keyframe>
								<keyframe>
									<when>135.714</when>
									<value>0.354339</value>
								</keyframe>
								<interpolation>
									<name>FCPCurve</name>
								</interpolation>
								<value>0.354339</value>
							</parameter>
						</effect>
					</filter>
					<filter>
						<effect>
							<name>Audio Pan</name>
							<effectid>audiopan</effectid>
							<effectcategory>audiopan</effectcategory>
							<effecttype>audiopan</effecttype>
							<mediatype>audio</mediatype>
							<parameter>
								<name>Pan</name>
								<parameterid>pan</parameterid>
								<valuemin>-1</valuemin>
								<valuemax>1</valuemax>
								<value>-1</value>
							</parameter>
						</effect>
					</filter>
					<sourcetrack>
						<mediatype>audio</mediatype>
						<trackindex>1</trackindex>
					</sourcetrack>
					<link>
						<linkclipref>AUXMP_SCDV028131_SKIP AND HOP B.mp3 </linkclipref>
						<mediatype>audio</mediatype>
						<trackindex>5</trackindex>
						<clipindex>29</clipindex>
						<groupindex>1</groupindex>
					</link>
					<link>
						<linkclipref>AUXMP_SCDV028131_SKIP AND HOP B.mp3 2</linkclipref>
						<mediatype>audio</mediatype>
						<trackindex>6</trackindex>
						<clipindex>38</clipindex>
						<groupindex>1</groupindex>
					</link>
				</clipitem>
				<enabled>TRUE</enabled>
				<locked>FALSE</locked>
				<outputchannelindex>2</outputchannelindex>
			</track>
			<track>
				<clipitem id="Fin Fredag Vignett - NY">
					<name>Fin Fredag Vignett - NY</name>
					<duration>1590</duration>
					<rate>
						<ntsc>FALSE</ntsc>
						<timebase>25</timebase>
					</rate>
					<in>0</in>
					<out>902</out>
					<start>391</start>
					<end>-1</end>
					<masterclipid>Fin Fredag Vignett - NY1</masterclipid>
					<logginginfo>
						<scene/>
						<shottake/>
						<lognote/>
						<good>FALSE</good>
					</logginginfo>
					<labels>
						<label2/>
					</labels>
					<comments>
						<mastercomment1/>
						<mastercomment2/>
						<mastercomment3/>
						<mastercomment4/>
					</comments>
					<file id="Fin Fredag Vignett - NY2">
						<name>Fin Fredag Vignett - NY.wav</name>
						<pathurl>file://localhost/SuperSAN1/Prosjekter/MSUB20000012%20FIN%20FREDAG/Vignettmusikk/Fin%20Fredag%20Vignett%20-%20NY.wav</pathurl>
						<rate>
							<timebase>25</timebase>
						</rate>
						<duration>1590</duration>
						<timecode>
							<rate>
								<timebase>25</timebase>
							</rate>
							<string>00:00:01:05</string>
							<frame>30</frame>
							<displayformat>NDF</displayformat>
							<source>source</source>
						</timecode>
						<media>
							<audio>
								<rate>
									<timebase>48000</timebase>
								</rate>
								<trackcount>2</trackcount>
								<samplecharacteristics>
									<depth>24</depth>
								</samplecharacteristics>
							</audio>
						</media>
					</file>
					<filter>
						<effect>
							<name>Audio Levels</name>
							<effectid>audiolevels</effectid>
							<effectcategory>audiolevels</effectcategory>
							<effecttype>audiolevels</effecttype>
							<mediatype>audio</mediatype>
							<parameter>
								<name>Level</name>
								<parameterid>level</parameterid>
								<valuemin>0</valuemin>
								<valuemax>3.98109</valuemax>
								<keyframe>
									<when>514.714</when>
									<value>0.501187</value>
								</keyframe>
								<keyframe>
									<when>538.143</when>
									<value>0.251189</value>
								</keyframe>
								<keyframe>
									<when>806.857</when>
									<value>0.199526</value>
								</keyframe>
								<keyframe>
									<when>833.107</when>
									<value>0.238721</value>
								</keyframe>
								<keyframe>
									<when>848</when>
									<value>0.223872</value>
								</keyframe>
								<keyframe>
									<when>1125.82</when>
									<value>0.141254</value>
								</keyframe>
								<interpolation>
									<name>FCPCurve</name>
								</interpolation>
								<value>0.630957</value>
							</parameter>
						</effect>
					</filter>
					<filter>
						<effect>
							<name>Audio Pan</name>
							<effectid>audiopan</effectid>
							<effectcategory>audiopan</effectcategory>
							<effecttype>audiopan</effecttype>
							<mediatype>audio</mediatype>
							<parameter>
								<name>Pan</name>
								<parameterid>pan</parameterid>
								<valuemin>-1</valuemin>
								<valuemax>1</valuemax>
								<value>-1</value>
							</parameter>
						</effect>
					</filter>
					<sourcetrack>
						<mediatype>audio</mediatype>
						<trackindex>1</trackindex>
					</sourcetrack>
					<link>
						<linkclipref>Fin Fredag Vignett - NY</linkclipref>
						<mediatype>audio</mediatype>
						<trackindex>6</trackindex>
						<clipindex>1</clipindex>
						<groupindex>1</groupindex>
					</link>
					<link>
						<linkclipref>Fin Fredag Vignett - NY3</linkclipref>
						<mediatype>audio</mediatype>
						<trackindex>7</trackindex>
						<clipindex>1</clipindex>
						<groupindex>1</groupindex>
					</link>
				</clipitem>
				<transitionitem id="1049524080 ">
					<rate>
						<ntsc>FALSE</ntsc>
						<timebase>25</timebase>
					</rate>
					<start>1287</start>
					<end>1293</end>
					<alignment>center</alignment>
					<effect>
						<name>Cross Fade (+3dB) Copy</name>
						<effecttype>transition</effecttype>
						<mediatype>audio</mediatype>
					</effect>
				</transitionitem>
				<clipitem id="SUPER_INN_Stjerne-lyd_1-2.aif2">
					<name>SUPER_INN_Stjerne-lyd_1-2.aif</name>
					<duration>15</duration>
					<rate>
						<ntsc>FALSE</ntsc>
						<timebase>25</timebase>
					</rate>
					<in>0</in>
					<out>15</out>
					<start>1453</start>
					<end>1468</end>
					<masterclipid>SUPER_INN_Stjerne-lyd_1-2.aif1</masterclipid>
					<logginginfo>
						<scene/>
						<shottake/>
						<lognote/>
						<good>FALSE</good>
					</logginginfo>
					<labels>
						<label2/>
					</labels>
					<comments>
						<mastercomment1/>
						<mastercomment2/>
						<mastercomment3/>
						<mastercomment4/>
					</comments>
					<file id="SUPER_INN_Stjerne-lyd_1-2 "/>
					<filter>
						<effect>
							<name>Audio Levels</name>
							<effectid>audiolevels</effectid>
							<effectcategory>audiolevels</effectcategory>
							<effecttype>audiolevels</effecttype>
							<mediatype>audio</mediatype>
							<parameter>
								<name>Level</name>
								<parameterid>level</parameterid>
								<valuemin>0</valuemin>
								<valuemax>3.98109</valuemax>
								<value>1</value>
							</parameter>
						</effect>
					</filter>
					<filter>
						<effect>
							<name>Audio Pan</name>
							<effectid>audiopan</effectid>
							<effectcategory>audiopan</effectcategory>
							<effecttype>audiopan</effecttype>
							<mediatype>audio</mediatype>
							<parameter>
								<name>Pan</name>
								<parameterid>pan</parameterid>
								<valuemin>-1</valuemin>
								<valuemax>1</valuemax>
								<value>1</value>
							</parameter>
						</effect>
					</filter>
					<sourcetrack>
						<mediatype>audio</mediatype>
						<trackindex>2</trackindex>
					</sourcetrack>
					<link>
						<linkclipref>SUPER_INN_Stjerne-lyd_1-2.aif</linkclipref>
						<mediatype>audio</mediatype>
						<trackindex>5</trackindex>
						<clipindex>3</clipindex>
						<groupindex>1</groupindex>
					</link>
					<link>
						<linkclipref>SUPER_INN_Stjerne-lyd_1-2.aif2</linkclipref>
						<mediatype>audio</mediatype>
						<trackindex>6</trackindex>
						<clipindex>3</clipindex>
						<groupindex>1</groupindex>
					</link>
				</clipitem>
				<clipitem id="SUPER_INN_Stjerne-lyd_1-2.aif4">
					<name>SUPER_INN_Stjerne-lyd_1-2.aif</name>
					<duration>15</duration>
					<rate>
						<ntsc>FALSE</ntsc>
						<timebase>25</timebase>
					</rate>
					<in>0</in>
					<out>15</out>
					<start>1873</start>
					<end>1888</end>
					<masterclipid>SUPER_INN_Stjerne-lyd_1-2.aif1</masterclipid>
					<logginginfo>
						<scene/>
						<shottake/>
						<lognote/>
						<good>FALSE</good>
					</logginginfo>
					<labels>
						<label2/>
					</labels>
					<comments>
						<mastercomment1/>
						<mastercomment2/>
						<mastercomment3/>
						<mastercomment4/>
					</comments>
					<file id="SUPER_INN_Stjerne-lyd_1-2 "/>
					<filter>
						<effect>
							<name>Audio Levels</name>
							<effectid>audiolevels</effectid>
							<effectcategory>audiolevels</effectcategory>
							<effecttype>audiolevels</effecttype>
							<mediatype>audio</mediatype>
							<parameter>
								<name>Level</name>
								<parameterid>level</parameterid>
								<valuemin>0</valuemin>
								<valuemax>3.98109</valuemax>
								<value>1</value>
							</parameter>
						</effect>
					</filter>
					<filter>
						<effect>
							<name>Audio Pan</name>
							<effectid>audiopan</effectid>
							<effectcategory>audiopan</effectcategory>
							<effecttype>audiopan</effecttype>
							<mediatype>audio</mediatype>
							<parameter>
								<name>Pan</name>
								<parameterid>pan</parameterid>
								<valuemin>-1</valuemin>
								<valuemax>1</valuemax>
								<value>1</value>
							</parameter>
						</effect>
					</filter>
					<sourcetrack>
						<mediatype>audio</mediatype>
						<trackindex>2</trackindex>
					</sourcetrack>
					<link>
						<linkclipref>SUPER_INN_Stjerne-lyd_1-2.aif3</linkclipref>
						<mediatype>audio</mediatype>
						<trackindex>5</trackindex>
						<clipindex>4</clipindex>
						<groupindex>1</groupindex>
					</link>
					<link>
						<linkclipref>SUPER_INN_Stjerne-lyd_1-2.aif4</linkclipref>
						<mediatype>audio</mediatype>
						<trackindex>6</trackindex>
						<clipindex>4</clipindex>
						<groupindex>1</groupindex>
					</link>
				</clipitem>
				<transitionitem id="1049524964 ">
					<rate>
						<ntsc>FALSE</ntsc>
						<timebase>25</timebase>
					</rate>
					<start>3671</start>
					<end>3677</end>
					<alignment>center</alignment>
					<effect>
						<name>Cross Fade (+3dB)</name>
						<effecttype>transition</effecttype>
						<mediatype>audio</mediatype>
					</effect>
				</transitionitem>
				<clipitem id="10 SMILES HOME --- Bright, Melodic, Soothing, Peaceful, Memories, Travel, Journey, Gentle, Thoughtful, Longing">
					<name>10 SMILES HOME --- Bright, Melodic, Soothing, Peaceful, Memories, Travel, Journey, Gentle, Thoughtful, Longing</name>
					<duration>3635</duration>
					<rate>
						<ntsc>FALSE</ntsc>
						<timebase>25</timebase>
					</rate>
					<in>2068</in>
					<out>3360</out>
					<start>-1</start>
					<end>4963</end>
					<enabled>TRUE</enabled>
					<masterclipid>10 SMILES HOME --- Bright, Melodic, Soothing, Peaceful, Memories, Travel, Journey, Gentle, Thoughtful, Longing1</masterclipid>
					<logginginfo>
						<scene/>
						<shottake/>
						<lognote/>
						<good>FALSE</good>
					</logginginfo>
					<labels>
						<label2/>
					</labels>
					<comments>
						<mastercomment1/>
						<mastercomment2/>
						<mastercomment3/>
						<mastercomment4/>
					</comments>
					<file id="10 SMILES HOME --- Bright, Melodic, Soothing, Peaceful, Memories, Travel, Journey, Gentle, Thoughtful, Longing2">
						<name>10 SMILES HOME --- Bright, Melodic, Soothing, Peaceful, Memories, Travel, Journey, Gentle, Thoughtful, Longing.aif</name>
						<pathurl>file://localhost/SuperSAN1/Prosjekter/MSUB20000012%20FIN%20FREDAG/MUSIKK/musikk%20program%203/10%20SMILES%20HOME%20---%20Bright,%20Melodic,%20Soothing,%20Peaceful,%20Memories,%20Travel,%20Journey,%20Gentle,%20Thoughtful,%20Longing.aif</pathurl>
						<rate>
							<timebase>25</timebase>
						</rate>
						<duration>3635</duration>
						<media>
							<audio>
								<rate>
									<timebase>44100</timebase>
								</rate>
								<trackcount>2</trackcount>
								<samplecharacteristics>
									<depth>16</depth>
								</samplecharacteristics>
							</audio>
						</media>
					</file>
					<filter>
						<effect>
							<name>Audio Levels</name>
							<effectid>audiolevels</effectid>
							<effectcategory>audiolevels</effectcategory>
							<effecttype>audiolevels</effecttype>
							<mediatype>audio</mediatype>
							<parameter>
								<name>Level</name>
								<parameterid>level</parameterid>
								<valuemin>0</valuemin>
								<valuemax>3.98109</valuemax>
								<keyframe>
									<when>2504</when>
									<value>0.158489</value>
								</keyframe>
								<keyframe>
									<when>2574</when>
									<value>0.0251189</value>
								</keyframe>
								<keyframe>
									<when>2778</when>
									<value>0</value>
								</keyframe>
								<keyframe>
									<when>3356</when>
									<value>0</value>
								</keyframe>
								<keyframe>
									<when>3605.14</when>
									<value>0</value>
								</keyframe>
								<interpolation>
									<name>FCPCurve</name>
								</interpolation>
								<value>0.158489</value>
							</parameter>
						</effect>
					</filter>
					<filter>
						<effect>
							<name>Audio Pan</name>
							<effectid>audiopan</effectid>
							<effectcategory>audiopan</effectcategory>
							<effecttype>audiopan</effecttype>
							<mediatype>audio</mediatype>
							<parameter>
								<name>Pan</name>
								<parameterid>pan</parameterid>
								<valuemin>-1</valuemin>
								<valuemax>1</valuemax>
								<value>-1</value>
							</parameter>
						</effect>
					</filter>
					<sourcetrack>
						<mediatype>audio</mediatype>
						<trackindex>1</trackindex>
					</sourcetrack>
					<link>
						<linkclipref>10 SMILES HOME --- Bright, Melodic, Soothing, Peaceful, Memories, Travel, Journey, Gentle, Thoughtful, Longing</linkclipref>
						<mediatype>audio</mediatype>
						<trackindex>6</trackindex>
						<clipindex>6</clipindex>
						<groupindex>1</groupindex>
					</link>
					<link>
						<linkclipref>10 SMILES HOME --- Bright, Melodic, Soothing, Peaceful, Memories, Travel, Journey, Gentle, Thoughtful, Longing3</linkclipref>
						<mediatype>audio</mediatype>
						<trackindex>7</trackindex>
						<clipindex>10</clipindex>
						<groupindex>1</groupindex>
					</link>
				</clipitem>
				<clipitem id="Fin Fredag PIMPBUMP 8.wav2">
					<name>Fin Fredag PIMPBUMP 8.wav</name>
					<duration>259</duration>
					<rate>
						<ntsc>FALSE</ntsc>
						<timebase>25</timebase>
					</rate>
					<in>5</in>
					<out>121</out>
					<start>5452</start>
					<end>-1</end>
					<subframeoffset>0</subframeoffset>
					<masterclipid>Fin Fredag PIMPBUMP 8.wav1</masterclipid>
					<logginginfo>
						<scene/>
						<shottake/>
						<lognote/>
						<good>FALSE</good>
					</logginginfo>
					<labels>
						<label2/>
					</labels>
					<comments>
						<mastercomment1/>
						<mastercomment2/>
						<mastercomment3/>
						<mastercomment4/>
					</comments>
					<file id="Fin Fredag PIMPBUMP 8 "/>
					<filter>
						<effect>
							<name>Audio Levels</name>
							<effectid>audiolevels</effectid>
							<effectcategory>audiolevels</effectcategory>
							<effecttype>audiolevels</effecttype>
							<mediatype>audio</mediatype>
							<parameter>
								<name>Level</name>
								<parameterid>level</parameterid>
								<valuemin>0</valuemin>
								<valuemax>3.98109</valuemax>
								<value>0.510049</value>
							</parameter>
						</effect>
					</filter>
					<filter>
						<effect>
							<name>Audio Pan</name>
							<effectid>audiopan</effectid>
							<effectcategory>audiopan</effectcategory>
							<effecttype>audiopan</effecttype>
							<mediatype>audio</mediatype>
							<parameter>
								<name>Pan</name>
								<parameterid>pan</parameterid>
								<valuemin>-1</valuemin>
								<valuemax>1</valuemax>
								<value>1</value>
							</parameter>
						</effect>
					</filter>
					<sourcetrack>
						<mediatype>audio</mediatype>
						<trackindex>2</trackindex>
					</sourcetrack>
					<link>
						<linkclipref>Fin Fredag PIMPBUMP 8.wav</linkclipref>
						<mediatype>audio</mediatype>
						<trackindex>5</trackindex>
						<clipindex>5</clipindex>
						<groupindex>1</groupindex>
					</link>
					<link>
						<linkclipref>Fin Fredag PIMPBUMP 8.wav2</linkclipref>
						<mediatype>audio</mediatype>
						<trackindex>6</trackindex>
						<clipindex>7</clipindex>
						<groupindex>1</groupindex>
					</link>
				</clipitem>
				<transitionitem id="1049526460 ">
					<rate>
						<ntsc>FALSE</ntsc>
						<timebase>25</timebase>
					</rate>
					<start>5556</start>
					<end>5568</end>
					<alignment>end-black</alignment>
					<effect>
						<name>Cross Fade (+3dB)</name>
						<effecttype>transition</effecttype>
						<mediatype>audio</mediatype>
					</effect>
				</transitionitem>
				<transitionitem id="1049526936 ">
					<rate>
						<ntsc>FALSE</ntsc>
						<timebase>25</timebase>
					</rate>
					<start>8644</start>
					<end>8669</end>
					<alignment>center</alignment>
					<effect>
						<name>Cross Fade (+3dB) Copy</name>
						<effecttype>transition</effecttype>
						<mediatype>audio</mediatype>
					</effect>
				</transitionitem>
				<clipitem id="KOIF43001507AA18">
					<name>KOIF43001507AA</name>
					<duration>131201</duration>
					<rate>
						<ntsc>FALSE</ntsc>
						<timebase>25</timebase>
					</rate>
					<in>113414</in>
					<out>113559</out>
					<start>-1</start>
					<end>-1</end>
					<subframeoffset>0</subframeoffset>
					<masterclipid>KOIF43001507AA1</masterclipid>
					<logginginfo>
						<description>Jakten pÃ¥ nyresteinen</description>
						<scene/>
						<shottake/>
						<lognote/>
						<good>FALSE</good>
					</logginginfo>
					<labels>
						<label2/>
					</labels>
					<comments>
						<mastercomment1>ARKIVSTOFF. BR_FINFREDAG_MSUA_OPRO</mastercomment1>
						<mastercomment2>. Filmkameratene AS. </mastercomment2>
						<mastercomment3>Sendt: 1999-12-20. FILMKAMERATENE; Norge.</mastercomment3>
						<mastercomment4>Norsk spillefilm fra 1996. Bestefar har smerter, men Ã¥tteÃ¥rige Simen vet rÃ¥d. Han tryller seg liten og klatrer inn i bestefars kropp for Ã¥ finne ut hva som er i veien ... Regi: Vibeke IdsÃ¸e. Manus: Vibeke IdsÃ¸e. Musikk: Ragnar Bjerkreim. I rollene: Fru Galle ................ Kjersti HOLMEN (mv) Galle Junior ............. Lage FOSHEIM (mv) Sekr??t Service agent ..... Morten M. FALDAAS (mv) StemmebÃ¥ndsoperatÃ¸ren .... Sigve BÃ˜E (mv) TÃ¥retankoperatÃ¸rene ...... Harald EIA (mv), Gard EIDSVOLD (mv) A. Pendixrud ............. BjÃ¸rn JENSEG (mv) Hvitt punkerblodlegeme ... Jan "Devo" KORNSTAD (mv) / Jan KORNSTAD (mv) Hjerteharpen ............. Tone HULBÃ†KMO (mv) HjernesentraloperatÃ¸ren .. Leif DUBARD (mv) RÃ¸de kjÃ¦rlighetsvakter ... Herborg KRÃ…KEVIK (mv), Helen VIKSTVEDT (mv) Bestefar ................. Terje STRÃ˜MDAHL (mv) Bestemor ................. CÃ¦cilie NORDBY (mv) Bamsens stemme ........... Toralv Maurstad Ã˜vrige medvirkende: Tina HARTVIG (mv), Tinken LAURANTZON (mv), Ã˜ystein SELENIUS (mv), Adolf E. BJERKE (mv), Rune HEKKELSTRAND (mv), Rikke SANDLI (mv), Unn SANDVIG (mv), Celine SAASTAD (mv), Anne STRAY (mv), Arild SÃ˜GAARD (mv), Ruth GURHOLT (mv), Kjetil OLSEN (mv), Ine SANDVIG (mv), Aslaug GUTTORMSGÃ…RD (mv), Kjersti Borchgrevink MAAGERÃ˜ (mv), Kiran SHAH (mv), Camilla HARTVIG (mv), Raymond WIIK (mv).</mastercomment4>
						<clipcommenta/>
						<clipcommentb>1:F-mix venstre 2:F-mix hÃ¸yre 3:-- 4:--.4x3 PAL.</clipcommentb>
					</comments>
					<file id="KOIF43001507AA2"/>
					<filter>
						<effect>
							<name>Audio Levels</name>
							<effectid>audiolevels</effectid>
							<effectcategory>audiolevels</effectcategory>
							<effecttype>audiolevels</effecttype>
							<mediatype>audio</mediatype>
							<parameter>
								<name>Level</name>
								<parameterid>level</parameterid>
								<valuemin>0</valuemin>
								<valuemax>3.98109</valuemax>
								<keyframe>
									<when>113468</when>
									<value>0.281838</value>
								</keyframe>
								<keyframe>
									<when>113486</when>
									<value>0.112202</value>
								</keyframe>
								<interpolation>
									<name>FCPCurve</name>
								</interpolation>
								<value>0.281838</value>
							</parameter>
						</effect>
					</filter>
					<filter>
						<effect>
							<name>Audio Pan</name>
							<effectid>audiopan</effectid>
							<effectcategory>audiopan</effectcategory>
							<effecttype>audiopan</effecttype>
							<mediatype>audio</mediatype>
							<parameter>
								<name>Pan</name>
								<parameterid>pan</parameterid>
								<valuemin>-1</valuemin>
								<valuemax>1</valuemax>
								<value>1</value>
							</parameter>
						</effect>
					</filter>
					<sourcetrack>
						<mediatype>audio</mediatype>
						<trackindex>2</trackindex>
					</sourcetrack>
					<link>
						<linkclipref>KOIF43001507AA16</linkclipref>
						<mediatype>video</mediatype>
						<trackindex>3</trackindex>
						<clipindex>13</clipindex>
					</link>
					<link>
						<linkclipref>KOIF43001507AA17</linkclipref>
						<mediatype>audio</mediatype>
						<trackindex>5</trackindex>
						<clipindex>11</clipindex>
					</link>
					<link>
						<linkclipref>KOIF43001507AA18</linkclipref>
						<mediatype>audio</mediatype>
						<trackindex>6</trackindex>
						<clipindex>10</clipindex>
					</link>
				</clipitem>
				<transitionitem id="1049527888 ">
					<rate>
						<ntsc>FALSE</ntsc>
						<timebase>25</timebase>
					</rate>
					<start>8764</start>
					<end>8789</end>
					<alignment>end-black</alignment>
					<effect>
						<name>Cross Fade (+3dB) Copy</name>
						<effecttype>transition</effecttype>
						<mediatype>audio</mediatype>
					</effect>
				</transitionitem>
				<clipitem id="Ukas Fjortis, bare Knut3">
					<name>Ukas Fjortis, bare Knut</name>
					<duration>4041</duration>
					<rate>
						<ntsc>FALSE</ntsc>
						<timebase>25</timebase>
					</rate>
					<in>0</in>
					<out>4041</out>
					<start>11182</start>
					<end>15223</end>
					<labels>
						<label>Best Take</label>
					</labels>
					<filter>
						<effect>
							<name>Audio Levels</name>
							<effectid>audiolevels</effectid>
							<effectcategory>audiolevels</effectcategory>
							<effecttype>audiolevels</effecttype>
							<mediatype>audio</mediatype>
							<parameter>
								<name>Level</name>
								<parameterid>level</parameterid>
								<valuemin>0</valuemin>
								<valuemax>3.98109</valuemax>
								<value>1</value>
							</parameter>
						</effect>
					</filter>
					<filter>
						<effect>
							<name>Audio Pan</name>
							<effectid>audiopan</effectid>
							<effectcategory>audiopan</effectcategory>
							<effecttype>audiopan</effecttype>
							<mediatype>audio</mediatype>
							<parameter>
								<name>Pan</name>
								<parameterid>pan</parameterid>
								<valuemin>-1</valuemin>
								<valuemax>1</valuemax>
								<value>1</value>
							</parameter>
						</effect>
					</filter>
					<sequence id="Ukas Fjortis, bare Knut1"/>
					<sourcetrack>
						<mediatype>audio</mediatype>
						<trackindex>2</trackindex>
					</sourcetrack>
					<link>
						<linkclipref>Ukas Fjortis, bare Knut</linkclipref>
						<mediatype>video</mediatype>
						<trackindex>2</trackindex>
						<clipindex>13</clipindex>
					</link>
					<link>
						<linkclipref>Ukas Fjortis, bare Knut2</linkclipref>
						<mediatype>audio</mediatype>
						<trackindex>5</trackindex>
						<clipindex>13</clipindex>
						<groupindex>1</groupindex>
					</link>
					<link>
						<linkclipref>Ukas Fjortis, bare Knut3</linkclipref>
						<mediatype>audio</mediatype>
						<trackindex>6</trackindex>
						<clipindex>12</clipindex>
						<groupindex>1</groupindex>
					</link>
					<ismasterclip>FALSE</ismasterclip>
				</clipitem>
				<clipitem id="Svosj mu 3 ">
					<name>Svosj mu 3</name>
					<duration>1024</duration>
					<rate>
						<ntsc>FALSE</ntsc>
						<timebase>25</timebase>
					</rate>
					<in>0</in>
					<out>23</out>
					<start>18422</start>
					<end>-1</end>
					<masterclipid>Svosj mu 3 1</masterclipid>
					<logginginfo>
						<scene/>
						<shottake/>
						<lognote/>
						<good>FALSE</good>
					</logginginfo>
					<labels>
						<label2/>
					</labels>
					<comments>
						<mastercomment1/>
						<mastercomment2/>
						<mastercomment3/>
						<mastercomment4/>
					</comments>
					<file id="Svosj mu 3 2">
						<name>Svosj mu 3.aif</name>
						<pathurl>file://localhost/Lekeplassen/Musikk%20og%20Lyd/Lydeffekter/SUPERPROMO/Lydeffekter/Svosjer/Svosj%20mu%203.aif</pathurl>
						<rate>
							<timebase>25</timebase>
						</rate>
						<duration>1024</duration>
						<media>
							<audio>
								<rate>
									<timebase>48000</timebase>
								</rate>
								<trackcount>2</trackcount>
								<samplecharacteristics>
									<depth>16</depth>
								</samplecharacteristics>
							</audio>
						</media>
					</file>
					<filter>
						<effect>
							<name>Audio Levels</name>
							<effectid>audiolevels</effectid>
							<effectcategory>audiolevels</effectcategory>
							<effecttype>audiolevels</effecttype>
							<mediatype>audio</mediatype>
							<parameter>
								<name>Level</name>
								<parameterid>level</parameterid>
								<valuemin>0</valuemin>
								<valuemax>3.98109</valuemax>
								<keyframe>
									<when>11.2857</when>
									<value>0.501187</value>
								</keyframe>
								<interpolation>
									<name>FCPCurve</name>
								</interpolation>
								<value>0.891251</value>
							</parameter>
						</effect>
					</filter>
					<filter>
						<effect>
							<name>Audio Pan</name>
							<effectid>audiopan</effectid>
							<effectcategory>audiopan</effectcategory>
							<effecttype>audiopan</effecttype>
							<mediatype>audio</mediatype>
							<parameter>
								<name>Pan</name>
								<parameterid>pan</parameterid>
								<valuemin>-1</valuemin>
								<valuemax>1</valuemax>
								<value>-1</value>
							</parameter>
						</effect>
					</filter>
					<sourcetrack>
						<mediatype>audio</mediatype>
						<trackindex>1</trackindex>
					</sourcetrack>
					<link>
						<linkclipref>Svosj mu 3 </linkclipref>
						<mediatype>audio</mediatype>
						<trackindex>6</trackindex>
						<clipindex>13</clipindex>
						<groupindex>1</groupindex>
					</link>
					<link>
						<linkclipref>Svosj mu 3 3</linkclipref>
						<mediatype>audio</mediatype>
						<trackindex>7</trackindex>
						<clipindex>14</clipindex>
						<groupindex>1</groupindex>
					</link>
				</clipitem>
				<transitionitem id="60">
					<rate>
						<ntsc>FALSE</ntsc>
						<timebase>25</timebase>
					</rate>
					<start>18438</start>
					<end>18445</end>
					<alignment>center</alignment>
					<effect>
						<name>Cross Fade ( 0dB)</name>
						<effecttype>transition</effecttype>
						<mediatype>audio</mediatype>
					</effect>
				</transitionitem>
				<clipitem id="Svosj mu 3 4">
					<name>Svosj mu 3</name>
					<duration>1024</duration>
					<rate>
						<ntsc>FALSE</ntsc>
						<timebase>25</timebase>
					</rate>
					<in>920</in>
					<out>978</out>
					<start>-1</start>
					<end>18496</end>
					<masterclipid>Svosj mu 3 1</masterclipid>
					<logginginfo>
						<scene/>
						<shottake/>
						<lognote/>
						<good>FALSE</good>
					</logginginfo>
					<labels>
						<label2/>
					</labels>
					<comments>
						<mastercomment1/>
						<mastercomment2/>
						<mastercomment3/>
						<mastercomment4/>
					</comments>
					<file id="Svosj mu 3 2"/>
					<filter>
						<effect>
							<name>Audio Levels</name>
							<effectid>audiolevels</effectid>
							<effectcategory>audiolevels</effectcategory>
							<effecttype>audiolevels</effecttype>
							<mediatype>audio</mediatype>
							<parameter>
								<name>Level</name>
								<parameterid>level</parameterid>
								<valuemin>0</valuemin>
								<valuemax>3.98109</valuemax>
								<keyframe>
									<when>945</when>
									<value>0.630957</value>
								</keyframe>
								<interpolation>
									<name>FCPCurve</name>
								</interpolation>
								<value>0.630957</value>
							</parameter>
						</effect>
					</filter>
					<filter>
						<effect>
							<name>Audio Pan</name>
							<effectid>audiopan</effectid>
							<effectcategory>audiopan</effectcategory>
							<effecttype>audiopan</effecttype>
							<mediatype>audio</mediatype>
							<parameter>
								<name>Pan</name>
								<parameterid>pan</parameterid>
								<valuemin>-1</valuemin>
								<valuemax>1</valuemax>
								<value>-1</value>
							</parameter>
						</effect>
					</filter>
					<sourcetrack>
						<mediatype>audio</mediatype>
						<trackindex>1</trackindex>
					</sourcetrack>
					<link>
						<linkclipref>Svosj mu 3 4</linkclipref>
						<mediatype>audio</mediatype>
						<trackindex>6</trackindex>
						<clipindex>15</clipindex>
						<groupindex>1</groupindex>
					</link>
					<link>
						<linkclipref>Svosj mu 3 5</linkclipref>
						<mediatype>audio</mediatype>
						<trackindex>7</trackindex>
						<clipindex>16</clipindex>
						<groupindex>1</groupindex>
					</link>
				</clipitem>
				<clipitem id="Svosj mu 3 6">
					<name>Svosj mu 3</name>
					<duration>1024</duration>
					<rate>
						<ntsc>FALSE</ntsc>
						<timebase>25</timebase>
					</rate>
					<in>0</in>
					<out>23</out>
					<start>21514</start>
					<end>-1</end>
					<masterclipid>Svosj mu 3 1</masterclipid>
					<logginginfo>
						<scene/>
						<shottake/>
						<lognote/>
						<good>FALSE</good>
					</logginginfo>
					<labels>
						<label2/>
					</labels>
					<comments>
						<mastercomment1/>
						<mastercomment2/>
						<mastercomment3/>
						<mastercomment4/>
					</comments>
					<file id="Svosj mu 3 2"/>
					<filter>
						<effect>
							<name>Audio Levels</name>
							<effectid>audiolevels</effectid>
							<effectcategory>audiolevels</effectcategory>
							<effecttype>audiolevels</effecttype>
							<mediatype>audio</mediatype>
							<parameter>
								<name>Level</name>
								<parameterid>level</parameterid>
								<valuemin>0</valuemin>
								<valuemax>3.98109</valuemax>
								<keyframe>
									<when>11.2857</when>
									<value>0.501187</value>
								</keyframe>
								<interpolation>
									<name>FCPCurve</name>
								</interpolation>
								<value>0.891251</value>
							</parameter>
						</effect>
					</filter>
					<filter>
						<effect>
							<name>Audio Pan</name>
							<effectid>audiopan</effectid>
							<effectcategory>audiopan</effectcategory>
							<effecttype>audiopan</effecttype>
							<mediatype>audio</mediatype>
							<parameter>
								<name>Pan</name>
								<parameterid>pan</parameterid>
								<valuemin>-1</valuemin>
								<valuemax>1</valuemax>
								<value>-1</value>
							</parameter>
						</effect>
					</filter>
					<sourcetrack>
						<mediatype>audio</mediatype>
						<trackindex>1</trackindex>
					</sourcetrack>
					<link>
						<linkclipref>Svosj mu 3 6</linkclipref>
						<mediatype>audio</mediatype>
						<trackindex>6</trackindex>
						<clipindex>16</clipindex>
						<groupindex>1</groupindex>
					</link>
					<link>
						<linkclipref>Svosj mu 3 7</linkclipref>
						<mediatype>audio</mediatype>
						<trackindex>7</trackindex>
						<clipindex>17</clipindex>
						<groupindex>1</groupindex>
					</link>
				</clipitem>
				<transitionitem id="61">
					<rate>
						<ntsc>FALSE</ntsc>
						<timebase>25</timebase>
					</rate>
					<start>21530</start>
					<end>21537</end>
					<alignment>center</alignment>
					<effect>
						<name>Cross Fade ( 0dB)</name>
						<effecttype>transition</effecttype>
						<mediatype>audio</mediatype>
					</effect>
				</transitionitem>
				<clipitem id="Svosj mu 3 8">
					<name>Svosj mu 3</name>
					<duration>1024</duration>
					<rate>
						<ntsc>FALSE</ntsc>
						<timebase>25</timebase>
					</rate>
					<in>920</in>
					<out>978</out>
					<start>-1</start>
					<end>21588</end>
					<masterclipid>Svosj mu 3 1</masterclipid>
					<logginginfo>
						<scene/>
						<shottake/>
						<lognote/>
						<good>FALSE</good>
					</logginginfo>
					<labels>
						<label2/>
					</labels>
					<comments>
						<mastercomment1/>
						<mastercomment2/>
						<mastercomment3/>
						<mastercomment4/>
					</comments>
					<file id="Svosj mu 3 2"/>
					<filter>
						<effect>
							<name>Audio Levels</name>
							<effectid>audiolevels</effectid>
							<effectcategory>audiolevels</effectcategory>
							<effecttype>audiolevels</effecttype>
							<mediatype>audio</mediatype>
							<parameter>
								<name>Level</name>
								<parameterid>level</parameterid>
								<valuemin>0</valuemin>
								<valuemax>3.98109</valuemax>
								<keyframe>
									<when>945</when>
									<value>0.630957</value>
								</keyframe>
								<interpolation>
									<name>FCPCurve</name>
								</interpolation>
								<value>0.630957</value>
							</parameter>
						</effect>
					</filter>
					<filter>
						<effect>
							<name>Audio Pan</name>
							<effectid>audiopan</effectid>
							<effectcategory>audiopan</effectcategory>
							<effecttype>audiopan</effecttype>
							<mediatype>audio</mediatype>
							<parameter>
								<name>Pan</name>
								<parameterid>pan</parameterid>
								<valuemin>-1</valuemin>
								<valuemax>1</valuemax>
								<value>-1</value>
							</parameter>
						</effect>
					</filter>
					<sourcetrack>
						<mediatype>audio</mediatype>
						<trackindex>1</trackindex>
					</sourcetrack>
					<link>
						<linkclipref>Svosj mu 3 8</linkclipref>
						<mediatype>audio</mediatype>
						<trackindex>6</trackindex>
						<clipindex>18</clipindex>
						<groupindex>1</groupindex>
					</link>
					<link>
						<linkclipref>Svosj mu 3 9</linkclipref>
						<mediatype>audio</mediatype>
						<trackindex>7</trackindex>
						<clipindex>19</clipindex>
						<groupindex>1</groupindex>
					</link>
				</clipitem>
				<clipitem id="TACO 2 Dare dance versjon1 3">
					<name>TACO 2 Dare dance versjon1</name>
					<duration>932</duration>
					<rate>
						<ntsc>FALSE</ntsc>
						<timebase>25</timebase>
					</rate>
					<in>0</in>
					<out>919</out>
					<start>21694</start>
					<end>22613</end>
					<labels>
						<label>Best Take</label>
					</labels>
					<filter>
						<effect>
							<name>Audio Levels</name>
							<effectid>audiolevels</effectid>
							<effectcategory>audiolevels</effectcategory>
							<effecttype>audiolevels</effecttype>
							<mediatype>audio</mediatype>
							<parameter>
								<name>Level</name>
								<parameterid>level</parameterid>
								<valuemin>0</valuemin>
								<valuemax>3.98109</valuemax>
								<value>1</value>
							</parameter>
						</effect>
					</filter>
					<filter>
						<effect>
							<name>Audio Pan</name>
							<effectid>audiopan</effectid>
							<effectcategory>audiopan</effectcategory>
							<effecttype>audiopan</effecttype>
							<mediatype>audio</mediatype>
							<parameter>
								<name>Pan</name>
								<parameterid>pan</parameterid>
								<valuemin>-1</valuemin>
								<valuemax>1</valuemax>
								<value>1</value>
							</parameter>
						</effect>
					</filter>
					<sequence id="TACO 2 Dare dance versjon1 1"/>
					<sourcetrack>
						<mediatype>audio</mediatype>
						<trackindex>2</trackindex>
					</sourcetrack>
					<link>
						<linkclipref>TACO 2 Dare dance versjon1 </linkclipref>
						<mediatype>video</mediatype>
						<trackindex>3</trackindex>
						<clipindex>15</clipindex>
					</link>
					<link>
						<linkclipref>TACO 2 Dare dance versjon1 2</linkclipref>
						<mediatype>audio</mediatype>
						<trackindex>5</trackindex>
						<clipindex>14</clipindex>
						<groupindex>1</groupindex>
					</link>
					<link>
						<linkclipref>TACO 2 Dare dance versjon1 3</linkclipref>
						<mediatype>audio</mediatype>
						<trackindex>6</trackindex>
						<clipindex>19</clipindex>
						<groupindex>1</groupindex>
					</link>
					<ismasterclip>FALSE</ismasterclip>
				</clipitem>
				<clipitem id="msub200012-2308-k1d1-009 7">
					<name>msub200012-2308-k1d1-009</name>
					<duration>2094</duration>
					<rate>
						<ntsc>FALSE</ntsc>
						<timebase>25</timebase>
					</rate>
					<in>985</in>
					<out>1037</out>
					<start>23116</start>
					<end>23168</end>
					<subframeoffset>0</subframeoffset>
					<enabled>TRUE</enabled>
					<masterclipid>msub200012-2308-k1d1-009 1</masterclipid>
					<logginginfo>
						<description>msub200012-2308-k1d1-009</description>
						<scene/>
						<shottake/>
						<lognote/>
						<good>FALSE</good>
					</logginginfo>
					<labels>
						<label2/>
					</labels>
					<comments>
						<mastercomment1>RÃ…STOFF. BR_FINFREDAG_MSUA_OPRO</mastercomment1>
						<mastercomment2/>
						<mastercomment3/>
						<mastercomment4/>
					</comments>
					<file id="msub200012-2308-k1d1-009 2"/>
					<filter>
						<enabled>TRUE</enabled>
						<start>-1</start>
						<end>-1</end>
						<effect>
							<name>3 Band Equalizer - Kristine</name>
							<effecttype>filter</effecttype>
							<mediatype>audio</mediatype>
							<parameter>
								<parameterid>Low Frequency</parameterid>
								<name>Low Frequency</name>
								<valuemin>80</valuemin>
								<valuemax>2000</valuemax>
								<value>80</value>
							</parameter>
							<parameter>
								<parameterid>Low Gain(dB)</parameterid>
								<name>Low Gain(dB)</name>
								<valuemin>-20</valuemin>
								<valuemax>20</valuemax>
								<value>-4</value>
							</parameter>
							<parameter>
								<parameterid>Mid Frequency</parameterid>
								<name>Mid Frequency</name>
								<valuemin>400</valuemin>
								<valuemax>8000</valuemax>
								<value>3602</value>
							</parameter>
							<parameter>
								<parameterid>Mid Gain(dB)</parameterid>
								<name>Mid Gain(dB)</name>
								<valuemin>-20</valuemin>
								<valuemax>20</valuemax>
								<value>3</value>
							</parameter>
							<parameter>
								<parameterid>High Frequency</parameterid>
								<name>High Frequency</name>
								<valuemin>5000</valuemin>
								<valuemax>20000</valuemax>
								<value>10354</value>
							</parameter>
							<parameter>
								<parameterid>High Gain(dB)</parameterid>
								<name>High Gain(dB)</name>
								<valuemin>-20</valuemin>
								<valuemax>20</valuemax>
								<value>0</value>
							</parameter>
						</effect>
					</filter>
					<filter>
						<effect>
							<name>Audio Levels</name>
							<effectid>audiolevels</effectid>
							<effectcategory>audiolevels</effectcategory>
							<effecttype>audiolevels</effecttype>
							<mediatype>audio</mediatype>
							<parameter>
								<name>Level</name>
								<parameterid>level</parameterid>
								<valuemin>0</valuemin>
								<valuemax>3.98109</valuemax>
								<keyframe>
									<when>924.116</when>
									<value>0.158489</value>
								</keyframe>
								<keyframe>
									<when>930.143</when>
									<value>0.219352</value>
								</keyframe>
								<keyframe>
									<when>983.571</when>
									<value>0.184738</value>
								</keyframe>
								<keyframe>
									<when>987</when>
									<value>1.99526</value>
								</keyframe>
								<keyframe>
									<when>1032</when>
									<value>1.99526</value>
								</keyframe>
								<keyframe>
									<when>1047</when>
									<value>0.794328</value>
								</keyframe>
								<keyframe>
									<when>1077</when>
									<value>0.707946</value>
								</keyframe>
								<keyframe>
									<when>1081.71</when>
									<value>2.23872</value>
								</keyframe>
								<keyframe>
									<when>1131</when>
									<value>2.23872</value>
								</keyframe>
								<keyframe>
									<when>1141.29</when>
									<value>0.446684</value>
								</keyframe>
								<keyframe>
									<when>1164.43</when>
									<value>0.446684</value>
								</keyframe>
								<keyframe>
									<when>1173</when>
									<value>1.99526</value>
								</keyframe>
								<keyframe>
									<when>1198.71</when>
									<value>1.99526</value>
								</keyframe>
								<keyframe>
									<when>1201.93</when>
									<value>1.25893</value>
								</keyframe>
								<keyframe>
									<when>1208.36</when>
									<value>1.25893</value>
								</keyframe>
								<keyframe>
									<when>1211.21</when>
									<value>1.99526</value>
								</keyframe>
								<keyframe>
									<when>1343.14</when>
									<value>1.99526</value>
								</keyframe>
								<keyframe>
									<when>1362.86</when>
									<value>0.398107</value>
								</keyframe>
								<interpolation>
									<name>FCPCurve</name>
								</interpolation>
								<value>1.99526</value>
							</parameter>
						</effect>
					</filter>
					<filter>
						<effect>
							<name>Audio Pan</name>
							<effectid>audiopan</effectid>
							<effectcategory>audiopan</effectcategory>
							<effecttype>audiopan</effecttype>
							<mediatype>audio</mediatype>
							<parameter>
								<name>Pan</name>
								<parameterid>pan</parameterid>
								<valuemin>-1</valuemin>
								<valuemax>1</valuemax>
								<value>-0</value>
							</parameter>
						</effect>
					</filter>
					<sourcetrack>
						<mediatype>audio</mediatype>
						<trackindex>2</trackindex>
					</sourcetrack>
				</clipitem>
				<clipitem id="msub20000012r-k1-d1-17006 4">
					<name>msub20000012r-k1-d1-17006</name>
					<duration>2072</duration>
					<rate>
						<ntsc>FALSE</ntsc>
						<timebase>25</timebase>
					</rate>
					<in>1683</in>
					<out>1773</out>
					<start>24352</start>
					<end>24442</end>
					<subframeoffset>0</subframeoffset>
					<masterclipid>msub20000012r-k1-d1-17006 1</masterclipid>
					<logginginfo>
						<description>msub20000012r-k1-d1-17006</description>
						<scene/>
						<shottake/>
						<lognote/>
						<good>FALSE</good>
					</logginginfo>
					<labels>
						<label2/>
					</labels>
					<comments>
						<mastercomment1>RÃ…STOFF</mastercomment1>
						<mastercomment2/>
						<mastercomment3/>
						<mastercomment4/>
					</comments>
					<file id="msub20000012r-k1-d1-17006 2"/>
					<filter>
						<effect>
							<name>Audio Levels</name>
							<effectid>audiolevels</effectid>
							<effectcategory>audiolevels</effectcategory>
							<effecttype>audiolevels</effecttype>
							<mediatype>audio</mediatype>
							<parameter>
								<name>Level</name>
								<parameterid>level</parameterid>
								<valuemin>0</valuemin>
								<valuemax>3.98109</valuemax>
								<keyframe>
									<when>1750.46</when>
									<value>0.199526</value>
								</keyframe>
								<keyframe>
									<when>1771.67</when>
									<value>0</value>
								</keyframe>
								<interpolation>
									<name>FCPCurve</name>
								</interpolation>
								<value>0.199526</value>
							</parameter>
						</effect>
					</filter>
					<filter>
						<effect>
							<name>Audio Pan</name>
							<effectid>audiopan</effectid>
							<effectcategory>audiopan</effectcategory>
							<effecttype>audiopan</effecttype>
							<mediatype>audio</mediatype>
							<parameter>
								<name>Pan</name>
								<parameterid>pan</parameterid>
								<valuemin>-1</valuemin>
								<valuemax>1</valuemax>
								<value>0</value>
							</parameter>
						</effect>
					</filter>
					<sourcetrack>
						<mediatype>audio</mediatype>
						<trackindex>4</trackindex>
					</sourcetrack>
					<link>
						<linkclipref>msub20000012r-k1-d1-17006 </linkclipref>
						<mediatype>video</mediatype>
						<trackindex>1</trackindex>
						<clipindex>86</clipindex>
					</link>
					<link>
						<linkclipref>msub20000012r-k1-d1-17006 3</linkclipref>
						<mediatype>audio</mediatype>
						<trackindex>5</trackindex>
						<clipindex>16</clipindex>
					</link>
					<link>
						<linkclipref>msub20000012r-k1-d1-17006 4</linkclipref>
						<mediatype>audio</mediatype>
						<trackindex>6</trackindex>
						<clipindex>21</clipindex>
					</link>
				</clipitem>
				<clipitem id="msub200012-2208k1d2-003 3">
					<name>msub200012-2208k1d2-003</name>
					<duration>2811</duration>
					<rate>
						<ntsc>FALSE</ntsc>
						<timebase>25</timebase>
					</rate>
					<in>2227</in>
					<out>2275</out>
					<start>25034</start>
					<end>25082</end>
					<subframeoffset>0</subframeoffset>
					<masterclipid>msub200012-2208k1d2-003 1</masterclipid>
					<logginginfo>
						<description>msub200012-2208k1d2-003</description>
						<scene/>
						<shottake/>
						<lognote/>
						<good>FALSE</good>
					</logginginfo>
					<labels>
						<label2/>
					</labels>
					<comments>
						<mastercomment1>RÃ…STOFF. BR_FINFREDAG_MSUA_OPRO</mastercomment1>
						<mastercomment2/>
						<mastercomment3/>
						<mastercomment4/>
					</comments>
					<file id="msub200012-2208k1d2-003 2"/>
					<filter>
						<effect>
							<name>Audio Levels</name>
							<effectid>audiolevels</effectid>
							<effectcategory>audiolevels</effectcategory>
							<effecttype>audiolevels</effecttype>
							<mediatype>audio</mediatype>
							<parameter>
								<name>Level</name>
								<parameterid>level</parameterid>
								<valuemin>0</valuemin>
								<valuemax>3.98109</valuemax>
								<keyframe>
									<when>2245.43</when>
									<value>1</value>
								</keyframe>
								<keyframe>
									<when>2249.14</when>
									<value>0.281838</value>
								</keyframe>
								<interpolation>
									<name>FCPCurve</name>
								</interpolation>
								<value>1</value>
							</parameter>
						</effect>
					</filter>
					<filter>
						<effect>
							<name>Audio Pan</name>
							<effectid>audiopan</effectid>
							<effectcategory>audiopan</effectcategory>
							<effecttype>audiopan</effecttype>
							<mediatype>audio</mediatype>
							<parameter>
								<name>Pan</name>
								<parameterid>pan</parameterid>
								<valuemin>-1</valuemin>
								<valuemax>1</valuemax>
								<value>0</value>
							</parameter>
						</effect>
					</filter>
					<sourcetrack>
						<mediatype>audio</mediatype>
						<trackindex>1</trackindex>
					</sourcetrack>
					<link>
						<linkclipref>msub200012-2208k1d2-003 </linkclipref>
						<mediatype>video</mediatype>
						<trackindex>1</trackindex>
						<clipindex>96</clipindex>
					</link>
					<link>
						<linkclipref>msub200012-2208k1d2-003 3</linkclipref>
						<mediatype>audio</mediatype>
						<trackindex>6</trackindex>
						<clipindex>22</clipindex>
					</link>
				</clipitem>
				<clipitem id="msub200012-2208k1d2-003 8">
					<name>msub200012-2208k1d2-003</name>
					<duration>2811</duration>
					<rate>
						<ntsc>FALSE</ntsc>
						<timebase>25</timebase>
					</rate>
					<in>2308</in>
					<out>2500</out>
					<start>25082</start>
					<end>-1</end>
					<subframeoffset>0</subframeoffset>
					<masterclipid>msub200012-2208k1d2-003 1</masterclipid>
					<logginginfo>
						<description>msub200012-2208k1d2-003</description>
						<scene/>
						<shottake/>
						<lognote/>
						<good>FALSE</good>
					</logginginfo>
					<labels>
						<label2/>
					</labels>
					<comments>
						<mastercomment1>RÃ…STOFF. BR_FINFREDAG_MSUA_OPRO</mastercomment1>
						<mastercomment2/>
						<mastercomment3/>
						<mastercomment4/>
					</comments>
					<file id="msub200012-2208k1d2-003 2"/>
					<filter>
						<effect>
							<name>Audio Levels</name>
							<effectid>audiolevels</effectid>
							<effectcategory>audiolevels</effectcategory>
							<effecttype>audiolevels</effecttype>
							<mediatype>audio</mediatype>
							<parameter>
								<name>Level</name>
								<parameterid>level</parameterid>
								<valuemin>0</valuemin>
								<valuemax>3.98109</valuemax>
								<keyframe>
									<when>2247.29</when>
									<value>1</value>
								</keyframe>
								<keyframe>
									<when>2253.29</when>
									<value>0.794328</value>
								</keyframe>
								<interpolation>
									<name>FCPCurve</name>
								</interpolation>
								<value>1</value>
							</parameter>
						</effect>
					</filter>
					<filter>
						<effect>
							<name>Audio Pan</name>
							<effectid>audiopan</effectid>
							<effectcategory>audiopan</effectcategory>
							<effecttype>audiopan</effecttype>
							<mediatype>audio</mediatype>
							<parameter>
								<name>Pan</name>
								<parameterid>pan</parameterid>
								<valuemin>-1</valuemin>
								<valuemax>1</valuemax>
								<value>0</value>
							</parameter>
						</effect>
					</filter>
					<sourcetrack>
						<mediatype>audio</mediatype>
						<trackindex>1</trackindex>
					</sourcetrack>
				</clipitem>
				<transitionitem id="62">
					<rate>
						<ntsc>FALSE</ntsc>
						<timebase>25</timebase>
					</rate>
					<start>25268</start>
					<end>25274</end>
					<alignment>end-black</alignment>
					<effect>
						<name>Cross Fade (+3dB) Copy</name>
						<effecttype>transition</effecttype>
						<mediatype>audio</mediatype>
					</effect>
				</transitionitem>
				<clipitem id="Fin Fredag PIMPBUMP 2.wav2">
					<name>Fin Fredag PIMPBUMP 2.wav</name>
					<duration>1095</duration>
					<rate>
						<ntsc>FALSE</ntsc>
						<timebase>25</timebase>
					</rate>
					<in>0</in>
					<out>71</out>
					<start>25892</start>
					<end>25963</end>
					<subframeoffset>0</subframeoffset>
					<masterclipid>Fin Fredag PIMPBUMP 2.wav1</masterclipid>
					<logginginfo>
						<scene/>
						<shottake/>
						<lognote/>
						<good>FALSE</good>
					</logginginfo>
					<labels>
						<label2/>
					</labels>
					<comments>
						<mastercomment1/>
						<mastercomment2/>
						<mastercomment3/>
						<mastercomment4/>
					</comments>
					<file id="Fin Fredag PIMPBUMP 2 "/>
					<filter>
						<effect>
							<name>Audio Levels</name>
							<effectid>audiolevels</effectid>
							<effectcategory>audiolevels</effectcategory>
							<effecttype>audiolevels</effecttype>
							<mediatype>audio</mediatype>
							<parameter>
								<name>Level</name>
								<parameterid>level</parameterid>
								<valuemin>0</valuemin>
								<valuemax>3.98109</valuemax>
								<value>0.517527</value>
							</parameter>
						</effect>
					</filter>
					<filter>
						<effect>
							<name>Audio Pan</name>
							<effectid>audiopan</effectid>
							<effectcategory>audiopan</effectcategory>
							<effecttype>audiopan</effecttype>
							<mediatype>audio</mediatype>
							<parameter>
								<name>Pan</name>
								<parameterid>pan</parameterid>
								<valuemin>-1</valuemin>
								<valuemax>1</valuemax>
								<value>1</value>
							</parameter>
						</effect>
					</filter>
					<sourcetrack>
						<mediatype>audio</mediatype>
						<trackindex>2</trackindex>
					</sourcetrack>
					<link>
						<linkclipref>Fin Fredag PIMPBUMP 2.wav</linkclipref>
						<mediatype>audio</mediatype>
						<trackindex>5</trackindex>
						<clipindex>20</clipindex>
						<groupindex>1</groupindex>
					</link>
					<link>
						<linkclipref>Fin Fredag PIMPBUMP 2.wav2</linkclipref>
						<mediatype>audio</mediatype>
						<trackindex>6</trackindex>
						<clipindex>25</clipindex>
						<groupindex>1</groupindex>
					</link>
				</clipitem>
				<clipitem id="Svosj mu 3 10">
					<name>Svosj mu 3</name>
					<duration>1024</duration>
					<rate>
						<ntsc>FALSE</ntsc>
						<timebase>25</timebase>
					</rate>
					<in>0</in>
					<out>23</out>
					<start>28315</start>
					<end>-1</end>
					<masterclipid>Svosj mu 3 1</masterclipid>
					<logginginfo>
						<scene/>
						<shottake/>
						<lognote/>
						<good>FALSE</good>
					</logginginfo>
					<labels>
						<label2/>
					</labels>
					<comments>
						<mastercomment1/>
						<mastercomment2/>
						<mastercomment3/>
						<mastercomment4/>
					</comments>
					<file id="Svosj mu 3 2"/>
					<filter>
						<effect>
							<name>Audio Levels</name>
							<effectid>audiolevels</effectid>
							<effectcategory>audiolevels</effectcategory>
							<effecttype>audiolevels</effecttype>
							<mediatype>audio</mediatype>
							<parameter>
								<name>Level</name>
								<parameterid>level</parameterid>
								<valuemin>0</valuemin>
								<valuemax>3.98109</valuemax>
								<value>0.398107</value>
							</parameter>
						</effect>
					</filter>
					<filter>
						<effect>
							<name>Audio Pan</name>
							<effectid>audiopan</effectid>
							<effectcategory>audiopan</effectcategory>
							<effecttype>audiopan</effecttype>
							<mediatype>audio</mediatype>
							<parameter>
								<name>Pan</name>
								<parameterid>pan</parameterid>
								<valuemin>-1</valuemin>
								<valuemax>1</valuemax>
								<value>-1</value>
							</parameter>
						</effect>
					</filter>
					<sourcetrack>
						<mediatype>audio</mediatype>
						<trackindex>1</trackindex>
					</sourcetrack>
					<link>
						<linkclipref>Svosj mu 3 10</linkclipref>
						<mediatype>audio</mediatype>
						<trackindex>6</trackindex>
						<clipindex>26</clipindex>
						<groupindex>1</groupindex>
					</link>
					<link>
						<linkclipref>Svosj mu 3 11</linkclipref>
						<mediatype>audio</mediatype>
						<trackindex>7</trackindex>
						<clipindex>24</clipindex>
						<groupindex>1</groupindex>
					</link>
				</clipitem>
				<transitionitem id="63">
					<rate>
						<ntsc>FALSE</ntsc>
						<timebase>25</timebase>
					</rate>
					<start>28331</start>
					<end>28338</end>
					<alignment>center</alignment>
					<effect>
						<name>Cross Fade ( 0dB)</name>
						<effecttype>transition</effecttype>
						<mediatype>audio</mediatype>
					</effect>
				</transitionitem>
				<clipitem id="Svosj mu 3 12">
					<name>Svosj mu 3</name>
					<duration>1024</duration>
					<rate>
						<ntsc>FALSE</ntsc>
						<timebase>25</timebase>
					</rate>
					<in>920</in>
					<out>974</out>
					<start>-1</start>
					<end>28385</end>
					<masterclipid>Svosj mu 3 1</masterclipid>
					<logginginfo>
						<scene/>
						<shottake/>
						<lognote/>
						<good>FALSE</good>
					</logginginfo>
					<labels>
						<label2/>
					</labels>
					<comments>
						<mastercomment1/>
						<mastercomment2/>
						<mastercomment3/>
						<mastercomment4/>
					</comments>
					<file id="Svosj mu 3 2"/>
					<filter>
						<effect>
							<name>Audio Levels</name>
							<effectid>audiolevels</effectid>
							<effectcategory>audiolevels</effectcategory>
							<effecttype>audiolevels</effecttype>
							<mediatype>audio</mediatype>
							<parameter>
								<name>Level</name>
								<parameterid>level</parameterid>
								<valuemin>0</valuemin>
								<valuemax>3.98109</valuemax>
								<value>0.501187</value>
							</parameter>
						</effect>
					</filter>
					<filter>
						<effect>
							<name>Audio Pan</name>
							<effectid>audiopan</effectid>
							<effectcategory>audiopan</effectcategory>
							<effecttype>audiopan</effecttype>
							<mediatype>audio</mediatype>
							<parameter>
								<name>Pan</name>
								<parameterid>pan</parameterid>
								<valuemin>-1</valuemin>
								<valuemax>1</valuemax>
								<value>-1</value>
							</parameter>
						</effect>
					</filter>
					<sourcetrack>
						<mediatype>audio</mediatype>
						<trackindex>1</trackindex>
					</sourcetrack>
					<link>
						<linkclipref>Svosj mu 3 12</linkclipref>
						<mediatype>audio</mediatype>
						<trackindex>6</trackindex>
						<clipindex>28</clipindex>
						<groupindex>1</groupindex>
					</link>
					<link>
						<linkclipref>Svosj mu 3 13</linkclipref>
						<mediatype>audio</mediatype>
						<trackindex>7</trackindex>
						<clipindex>26</clipindex>
						<groupindex>1</groupindex>
					</link>
				</clipitem>
				<clipitem id="Svosj mu 3 14">
					<name>Svosj mu 3</name>
					<duration>1024</duration>
					<rate>
						<ntsc>FALSE</ntsc>
						<timebase>25</timebase>
					</rate>
					<in>0</in>
					<out>23</out>
					<start>28746</start>
					<end>-1</end>
					<enabled>TRUE</enabled>
					<masterclipid>Svosj mu 3 1</masterclipid>
					<logginginfo>
						<scene/>
						<shottake/>
						<lognote/>
						<good>FALSE</good>
					</logginginfo>
					<labels>
						<label2/>
					</labels>
					<comments>
						<mastercomment1/>
						<mastercomment2/>
						<mastercomment3/>
						<mastercomment4/>
					</comments>
					<file id="Svosj mu 3 2"/>
					<filter>
						<effect>
							<name>Audio Levels</name>
							<effectid>audiolevels</effectid>
							<effectcategory>audiolevels</effectcategory>
							<effecttype>audiolevels</effecttype>
							<mediatype>audio</mediatype>
							<parameter>
								<name>Level</name>
								<parameterid>level</parameterid>
								<valuemin>0</valuemin>
								<valuemax>3.98109</valuemax>
								<value>0.398107</value>
							</parameter>
						</effect>
					</filter>
					<filter>
						<effect>
							<name>Audio Pan</name>
							<effectid>audiopan</effectid>
							<effectcategory>audiopan</effectcategory>
							<effecttype>audiopan</effecttype>
							<mediatype>audio</mediatype>
							<parameter>
								<name>Pan</name>
								<parameterid>pan</parameterid>
								<valuemin>-1</valuemin>
								<valuemax>1</valuemax>
								<value>-1</value>
							</parameter>
						</effect>
					</filter>
					<sourcetrack>
						<mediatype>audio</mediatype>
						<trackindex>1</trackindex>
					</sourcetrack>
					<link>
						<linkclipref>Svosj mu 3 14</linkclipref>
						<mediatype>audio</mediatype>
						<trackindex>6</trackindex>
						<clipindex>29</clipindex>
						<groupindex>1</groupindex>
					</link>
					<link>
						<linkclipref>Svosj mu 3 15</linkclipref>
						<mediatype>audio</mediatype>
						<trackindex>7</trackindex>
						<clipindex>27</clipindex>
						<groupindex>1</groupindex>
					</link>
				</clipitem>
				<transitionitem id="64">
					<rate>
						<ntsc>FALSE</ntsc>
						<timebase>25</timebase>
					</rate>
					<start>28762</start>
					<end>28769</end>
					<alignment>center</alignment>
					<effect>
						<name>Cross Fade ( 0dB)</name>
						<effecttype>transition</effecttype>
						<mediatype>audio</mediatype>
					</effect>
				</transitionitem>
				<clipitem id="Svosj mu 3 16">
					<name>Svosj mu 3</name>
					<duration>1024</duration>
					<rate>
						<ntsc>FALSE</ntsc>
						<timebase>25</timebase>
					</rate>
					<in>920</in>
					<out>947</out>
					<start>-1</start>
					<end>-1</end>
					<enabled>TRUE</enabled>
					<masterclipid>Svosj mu 3 1</masterclipid>
					<logginginfo>
						<scene/>
						<shottake/>
						<lognote/>
						<good>FALSE</good>
					</logginginfo>
					<labels>
						<label2/>
					</labels>
					<comments>
						<mastercomment1/>
						<mastercomment2/>
						<mastercomment3/>
						<mastercomment4/>
					</comments>
					<file id="Svosj mu 3 2"/>
					<filter>
						<effect>
							<name>Audio Levels</name>
							<effectid>audiolevels</effectid>
							<effectcategory>audiolevels</effectcategory>
							<effecttype>audiolevels</effecttype>
							<mediatype>audio</mediatype>
							<parameter>
								<name>Level</name>
								<parameterid>level</parameterid>
								<valuemin>0</valuemin>
								<valuemax>3.98109</valuemax>
								<value>0.501187</value>
							</parameter>
						</effect>
					</filter>
					<filter>
						<effect>
							<name>Audio Pan</name>
							<effectid>audiopan</effectid>
							<effectcategory>audiopan</effectcategory>
							<effecttype>audiopan</effecttype>
							<mediatype>audio</mediatype>
							<parameter>
								<name>Pan</name>
								<parameterid>pan</parameterid>
								<valuemin>-1</valuemin>
								<valuemax>1</valuemax>
								<value>-1</value>
							</parameter>
						</effect>
					</filter>
					<sourcetrack>
						<mediatype>audio</mediatype>
						<trackindex>1</trackindex>
					</sourcetrack>
					<link>
						<linkclipref>Svosj mu 3 16</linkclipref>
						<mediatype>audio</mediatype>
						<trackindex>6</trackindex>
						<clipindex>31</clipindex>
						<groupindex>1</groupindex>
					</link>
					<link>
						<linkclipref>Svosj mu 3 17</linkclipref>
						<mediatype>audio</mediatype>
						<trackindex>7</trackindex>
						<clipindex>29</clipindex>
						<groupindex>1</groupindex>
					</link>
				</clipitem>
				<transitionitem id="920751072 ">
					<rate>
						<ntsc>FALSE</ntsc>
						<timebase>25</timebase>
					</rate>
					<start>28783</start>
					<end>28789</end>
					<alignment>end-black</alignment>
					<effect>
						<name>Cross Fade (+3dB)</name>
						<effecttype>transition</effecttype>
						<mediatype>audio</mediatype>
					</effect>
				</transitionitem>
				<clipitem id="AUXMP_RSM010437_HEAVY URBAN STING.mp3 4">
					<name>AUXMP_RSM010437_HEAVY URBAN STING.mp3</name>
					<duration>396</duration>
					<rate>
						<ntsc>FALSE</ntsc>
						<timebase>25</timebase>
					</rate>
					<in>25</in>
					<out>131</out>
					<start>31849</start>
					<end>31955</end>
					<subframeoffset>0</subframeoffset>
					<enabled>TRUE</enabled>
					<masterclipid>AUXMP_RSM010437_HEAVY URBAN STING.mp3 1</masterclipid>
					<logginginfo>
						<scene/>
						<shottake/>
						<lognote/>
						<good>FALSE</good>
					</logginginfo>
					<labels>
						<label2/>
					</labels>
					<comments>
						<mastercomment1/>
						<mastercomment2/>
						<mastercomment3/>
						<mastercomment4/>
					</comments>
					<file id="AUXMP_RSM010437_HEAVY URBAN STING"/>
					<filter>
						<effect>
							<name>Audio Levels</name>
							<effectid>audiolevels</effectid>
							<effectcategory>audiolevels</effectcategory>
							<effecttype>audiolevels</effecttype>
							<mediatype>audio</mediatype>
							<parameter>
								<name>Level</name>
								<parameterid>level</parameterid>
								<valuemin>0</valuemin>
								<valuemax>3.98109</valuemax>
								<value>0.316228</value>
							</parameter>
						</effect>
					</filter>
					<filter>
						<effect>
							<name>Audio Pan</name>
							<effectid>audiopan</effectid>
							<effectcategory>audiopan</effectcategory>
							<effecttype>audiopan</effecttype>
							<mediatype>audio</mediatype>
							<parameter>
								<name>Pan</name>
								<parameterid>pan</parameterid>
								<valuemin>-1</valuemin>
								<valuemax>1</valuemax>
								<value>1</value>
							</parameter>
						</effect>
					</filter>
					<sourcetrack>
						<mediatype>audio</mediatype>
						<trackindex>2</trackindex>
					</sourcetrack>
					<link>
						<linkclipref>AUXMP_RSM010437_HEAVY URBAN STING.mp3 3</linkclipref>
						<mediatype>audio</mediatype>
						<trackindex>5</trackindex>
						<clipindex>24</clipindex>
						<groupindex>1</groupindex>
					</link>
					<link>
						<linkclipref>AUXMP_RSM010437_HEAVY URBAN STING.mp3 4</linkclipref>
						<mediatype>audio</mediatype>
						<trackindex>6</trackindex>
						<clipindex>33</clipindex>
						<groupindex>1</groupindex>
					</link>
				</clipitem>
				<clipitem id="AUXMP_UBMM213539_EL CLUSH.mp3 2">
					<name>AUXMP_UBMM213539_EL CLUSH.mp3</name>
					<duration>797</duration>
					<rate>
						<ntsc>FALSE</ntsc>
						<timebase>25</timebase>
					</rate>
					<in>0</in>
					<out>628</out>
					<start>32512</start>
					<end>33140</end>
					<masterclipid>AUXMP_UBMM213539_EL CLUSH.mp3 1</masterclipid>
					<logginginfo>
						<scene/>
						<shottake/>
						<lognote/>
						<good>FALSE</good>
					</logginginfo>
					<labels>
						<label2/>
					</labels>
					<comments>
						<mastercomment1/>
						<mastercomment2/>
						<mastercomment3/>
						<mastercomment4/>
					</comments>
					<file id="AUXMP_UBMM213539_EL CLUSH"/>
					<filter>
						<effect>
							<name>Audio Levels</name>
							<effectid>audiolevels</effectid>
							<effectcategory>audiolevels</effectcategory>
							<effecttype>audiolevels</effecttype>
							<mediatype>audio</mediatype>
							<parameter>
								<name>Level</name>
								<parameterid>level</parameterid>
								<valuemin>0</valuemin>
								<valuemax>3.98109</valuemax>
								<keyframe>
									<when>43.2857</when>
									<value>0.354813</value>
								</keyframe>
								<keyframe>
									<when>70.2857</when>
									<value>0.0891251</value>
								</keyframe>
								<keyframe>
									<when>116.571</when>
									<value>0.0891251</value>
								</keyframe>
								<keyframe>
									<when>126.857</when>
									<value>0.281838</value>
								</keyframe>
								<keyframe>
									<when>199.179</when>
									<value>0.281838</value>
								</keyframe>
								<keyframe>
									<when>245.464</when>
									<value>0.281838</value>
								</keyframe>
								<keyframe>
									<when>249.482</when>
									<value>0</value>
								</keyframe>
								<keyframe>
									<when>253.902</when>
									<value>0</value>
								</keyframe>
								<keyframe>
									<when>254.304</when>
									<value>0.281838</value>
								</keyframe>
								<keyframe>
									<when>284.679</when>
									<value>0.281838</value>
								</keyframe>
								<keyframe>
									<when>298.821</when>
									<value>0.112202</value>
								</keyframe>
								<keyframe>
									<when>339.643</when>
									<value>0.0891251</value>
								</keyframe>
								<keyframe>
									<when>348.643</when>
									<value>0.0630957</value>
								</keyframe>
								<keyframe>
									<when>381.429</when>
									<value>0.0630957</value>
								</keyframe>
								<keyframe>
									<when>389.304</when>
									<value>0.354813</value>
								</keyframe>
								<keyframe>
									<when>394.446</when>
									<value>0.251189</value>
								</keyframe>
								<keyframe>
									<when>486.321</when>
									<value>0.251189</value>
								</keyframe>
								<keyframe>
									<when>488.679</when>
									<value>0.0891251</value>
								</keyframe>
								<keyframe>
									<when>492.429</when>
									<value>0.0891251</value>
								</keyframe>
								<keyframe>
									<when>499.714</when>
									<value>0.251189</value>
								</keyframe>
								<interpolation>
									<name>FCPCurve</name>
								</interpolation>
								<value>0.354813</value>
							</parameter>
						</effect>
					</filter>
					<filter>
						<effect>
							<name>Audio Pan</name>
							<effectid>audiopan</effectid>
							<effectcategory>audiopan</effectcategory>
							<effecttype>audiopan</effecttype>
							<mediatype>audio</mediatype>
							<parameter>
								<name>Pan</name>
								<parameterid>pan</parameterid>
								<valuemin>-1</valuemin>
								<valuemax>1</valuemax>
								<value>1</value>
							</parameter>
						</effect>
					</filter>
					<sourcetrack>
						<mediatype>audio</mediatype>
						<trackindex>2</trackindex>
					</sourcetrack>
					<link>
						<linkclipref>AUXMP_UBMM213539_EL CLUSH.mp3 </linkclipref>
						<mediatype>audio</mediatype>
						<trackindex>5</trackindex>
						<clipindex>25</clipindex>
						<groupindex>1</groupindex>
					</link>
					<link>
						<linkclipref>AUXMP_UBMM213539_EL CLUSH.mp3 2</linkclipref>
						<mediatype>audio</mediatype>
						<trackindex>6</trackindex>
						<clipindex>34</clipindex>
						<groupindex>1</groupindex>
					</link>
				</clipitem>
				<clipitem id="AUXMP_UBMM213539_EL CLUSH.mp3 4">
					<name>AUXMP_UBMM213539_EL CLUSH.mp3</name>
					<duration>797</duration>
					<rate>
						<ntsc>FALSE</ntsc>
						<timebase>25</timebase>
					</rate>
					<in>0</in>
					<out>278</out>
					<start>33154</start>
					<end>33432</end>
					<subframeoffset>0</subframeoffset>
					<masterclipid>AUXMP_UBMM213539_EL CLUSH.mp3 1</masterclipid>
					<logginginfo>
						<scene/>
						<shottake/>
						<lognote/>
						<good>FALSE</good>
					</logginginfo>
					<labels>
						<label2/>
					</labels>
					<comments>
						<mastercomment1/>
						<mastercomment2/>
						<mastercomment3/>
						<mastercomment4/>
					</comments>
					<file id="AUXMP_UBMM213539_EL CLUSH"/>
					<filter>
						<effect>
							<name>Audio Levels</name>
							<effectid>audiolevels</effectid>
							<effectcategory>audiolevels</effectcategory>
							<effecttype>audiolevels</effecttype>
							<mediatype>audio</mediatype>
							<parameter>
								<name>Level</name>
								<parameterid>level</parameterid>
								<valuemin>0</valuemin>
								<valuemax>3.98109</valuemax>
								<keyframe>
									<when>103.812</when>
									<value>0.199526</value>
								</keyframe>
								<keyframe>
									<when>128.143</when>
									<value>0.0501187</value>
								</keyframe>
								<keyframe>
									<when>181.071</when>
									<value>0.0501187</value>
								</keyframe>
								<keyframe>
									<when>190.071</when>
									<value>0.158489</value>
								</keyframe>
								<keyframe>
									<when>209.357</when>
									<value>0.158489</value>
								</keyframe>
								<keyframe>
									<when>222.214</when>
									<value>0.0501187</value>
								</keyframe>
								<keyframe>
									<when>246.643</when>
									<value>0.0501187</value>
								</keyframe>
								<keyframe>
									<when>253.607</when>
									<value>0.0501187</value>
								</keyframe>
								<keyframe>
									<when>262.714</when>
									<value>0.0501187</value>
								</keyframe>
								<keyframe>
									<when>270</when>
									<value>0</value>
								</keyframe>
								<interpolation>
									<name>FCPCurve</name>
								</interpolation>
								<value>0.199526</value>
							</parameter>
						</effect>
					</filter>
					<filter>
						<effect>
							<name>Audio Pan</name>
							<effectid>audiopan</effectid>
							<effectcategory>audiopan</effectcategory>
							<effecttype>audiopan</effecttype>
							<mediatype>audio</mediatype>
							<parameter>
								<name>Pan</name>
								<parameterid>pan</parameterid>
								<valuemin>-1</valuemin>
								<valuemax>1</valuemax>
								<value>1</value>
							</parameter>
						</effect>
					</filter>
					<sourcetrack>
						<mediatype>audio</mediatype>
						<trackindex>2</trackindex>
					</sourcetrack>
					<link>
						<linkclipref>AUXMP_UBMM213539_EL CLUSH.mp3 3</linkclipref>
						<mediatype>audio</mediatype>
						<trackindex>5</trackindex>
						<clipindex>26</clipindex>
						<groupindex>1</groupindex>
					</link>
					<link>
						<linkclipref>AUXMP_UBMM213539_EL CLUSH.mp3 4</linkclipref>
						<mediatype>audio</mediatype>
						<trackindex>6</trackindex>
						<clipindex>35</clipindex>
						<groupindex>1</groupindex>
					</link>
				</clipitem>
				<clipitem id="AUXMP_UBMM213539_EL CLUSH.mp3 6">
					<name>AUXMP_UBMM213539_EL CLUSH.mp3</name>
					<duration>797</duration>
					<rate>
						<ntsc>FALSE</ntsc>
						<timebase>25</timebase>
					</rate>
					<in>372</in>
					<out>533</out>
					<start>33546</start>
					<end>33707</end>
					<subframeoffset>0</subframeoffset>
					<masterclipid>AUXMP_UBMM213539_EL CLUSH.mp3 1</masterclipid>
					<logginginfo>
						<scene/>
						<shottake/>
						<lognote/>
						<good>FALSE</good>
					</logginginfo>
					<labels>
						<label2/>
					</labels>
					<comments>
						<mastercomment1/>
						<mastercomment2/>
						<mastercomment3/>
						<mastercomment4/>
					</comments>
					<file id="AUXMP_UBMM213539_EL CLUSH"/>
					<filter>
						<effect>
							<name>Audio Levels</name>
							<effectid>audiolevels</effectid>
							<effectcategory>audiolevels</effectcategory>
							<effecttype>audiolevels</effecttype>
							<mediatype>audio</mediatype>
							<parameter>
								<name>Level</name>
								<parameterid>level</parameterid>
								<valuemin>0</valuemin>
								<valuemax>3.98109</valuemax>
								<keyframe>
									<when>411.143</when>
									<value>0.281838</value>
								</keyframe>
								<keyframe>
									<when>425.286</when>
									<value>0.0891251</value>
								</keyframe>
								<keyframe>
									<when>460</when>
									<value>0.0891251</value>
								</keyframe>
								<keyframe>
									<when>475</when>
									<value>0.141254</value>
								</keyframe>
								<keyframe>
									<when>487.429</when>
									<value>0.141254</value>
								</keyframe>
								<keyframe>
									<when>491.286</when>
									<value>0.0891251</value>
								</keyframe>
								<keyframe>
									<when>556.857</when>
									<value>0.0891251</value>
								</keyframe>
								<keyframe>
									<when>562.214</when>
									<value>0.141254</value>
								</keyframe>
								<keyframe>
									<when>578.5</when>
									<value>0.141254</value>
								</keyframe>
								<keyframe>
									<when>581.714</when>
									<value>0.0891251</value>
								</keyframe>
								<keyframe>
									<when>605.071</when>
									<value>0.0891251</value>
								</keyframe>
								<keyframe>
									<when>627.786</when>
									<value>0.199526</value>
								</keyframe>
								<keyframe>
									<when>668.929</when>
									<value>0.199526</value>
								</keyframe>
								<keyframe>
									<when>693.99</when>
									<value>0.0891251</value>
								</keyframe>
								<interpolation>
									<name>FCPCurve</name>
								</interpolation>
								<value>0.199526</value>
							</parameter>
						</effect>
					</filter>
					<filter>
						<effect>
							<name>Audio Pan</name>
							<effectid>audiopan</effectid>
							<effectcategory>audiopan</effectcategory>
							<effecttype>audiopan</effecttype>
							<mediatype>audio</mediatype>
							<parameter>
								<name>Pan</name>
								<parameterid>pan</parameterid>
								<valuemin>-1</valuemin>
								<valuemax>1</valuemax>
								<value>1</value>
							</parameter>
						</effect>
					</filter>
					<sourcetrack>
						<mediatype>audio</mediatype>
						<trackindex>2</trackindex>
					</sourcetrack>
					<link>
						<linkclipref>AUXMP_UBMM213539_EL CLUSH.mp3 5</linkclipref>
						<mediatype>audio</mediatype>
						<trackindex>5</trackindex>
						<clipindex>27</clipindex>
						<groupindex>1</groupindex>
					</link>
					<link>
						<linkclipref>AUXMP_UBMM213539_EL CLUSH.mp3 6</linkclipref>
						<mediatype>audio</mediatype>
						<trackindex>6</trackindex>
						<clipindex>36</clipindex>
						<groupindex>1</groupindex>
					</link>
				</clipitem>
				<clipitem id="AUXMP_RSM010437_HEAVY URBAN STING.mp3 6">
					<name>AUXMP_RSM010437_HEAVY URBAN STING.mp3</name>
					<duration>396</duration>
					<rate>
						<ntsc>FALSE</ntsc>
						<timebase>25</timebase>
					</rate>
					<in>0</in>
					<out>171</out>
					<start>34443</start>
					<end>34614</end>
					<subframeoffset>0</subframeoffset>
					<masterclipid>AUXMP_RSM010437_HEAVY URBAN STING.mp3 1</masterclipid>
					<logginginfo>
						<scene/>
						<shottake/>
						<lognote/>
						<good>FALSE</good>
					</logginginfo>
					<labels>
						<label2/>
					</labels>
					<comments>
						<mastercomment1/>
						<mastercomment2/>
						<mastercomment3/>
						<mastercomment4/>
					</comments>
					<file id="AUXMP_RSM010437_HEAVY URBAN STING"/>
					<filter>
						<effect>
							<name>Audio Levels</name>
							<effectid>audiolevels</effectid>
							<effectcategory>audiolevels</effectcategory>
							<effecttype>audiolevels</effecttype>
							<mediatype>audio</mediatype>
							<parameter>
								<name>Level</name>
								<parameterid>level</parameterid>
								<valuemin>0</valuemin>
								<valuemax>3.98109</valuemax>
								<keyframe>
									<when>129.571</when>
									<value>0.281838</value>
								</keyframe>
								<keyframe>
									<when>160.429</when>
									<value>0.223872</value>
								</keyframe>
								<interpolation>
									<name>FCPCurve</name>
								</interpolation>
								<value>0.354813</value>
							</parameter>
						</effect>
					</filter>
					<filter>
						<effect>
							<name>Audio Pan</name>
							<effectid>audiopan</effectid>
							<effectcategory>audiopan</effectcategory>
							<effecttype>audiopan</effecttype>
							<mediatype>audio</mediatype>
							<parameter>
								<name>Pan</name>
								<parameterid>pan</parameterid>
								<valuemin>-1</valuemin>
								<valuemax>1</valuemax>
								<value>1</value>
							</parameter>
						</effect>
					</filter>
					<sourcetrack>
						<mediatype>audio</mediatype>
						<trackindex>2</trackindex>
					</sourcetrack>
					<link>
						<linkclipref>AUXMP_RSM010437_HEAVY URBAN STING.mp3 5</linkclipref>
						<mediatype>audio</mediatype>
						<trackindex>5</trackindex>
						<clipindex>28</clipindex>
						<groupindex>1</groupindex>
					</link>
					<link>
						<linkclipref>AUXMP_RSM010437_HEAVY URBAN STING.mp3 6</linkclipref>
						<mediatype>audio</mediatype>
						<trackindex>6</trackindex>
						<clipindex>37</clipindex>
						<groupindex>1</groupindex>
					</link>
				</clipitem>
				<clipitem id="AUXMP_SCDV028131_SKIP AND HOP B.mp3 2">
					<name>AUXMP_SCDV028131_SKIP AND HOP B.mp3</name>
					<duration>878</duration>
					<rate>
						<ntsc>FALSE</ntsc>
						<timebase>25</timebase>
					</rate>
					<in>0</in>
					<out>524</out>
					<start>35534</start>
					<end>36058</end>
					<masterclipid>AUXMP_SCDV028131_SKIP AND HOP B.mp3 1</masterclipid>
					<logginginfo>
						<scene/>
						<shottake/>
						<lognote/>
						<good>FALSE</good>
					</logginginfo>
					<labels>
						<label2/>
					</labels>
					<comments>
						<mastercomment1/>
						<mastercomment2/>
						<mastercomment3/>
						<mastercomment4/>
					</comments>
					<file id="AUXMP_SCDV028131_SKIP AND HOP B"/>
					<filter>
						<effect>
							<name>Audio Levels</name>
							<effectid>audiolevels</effectid>
							<effectcategory>audiolevels</effectcategory>
							<effecttype>audiolevels</effecttype>
							<mediatype>audio</mediatype>
							<parameter>
								<name>Level</name>
								<parameterid>level</parameterid>
								<valuemin>0</valuemin>
								<valuemax>3.98109</valuemax>
								<keyframe>
									<when>1.57143</when>
									<value>0.0891251</value>
								</keyframe>
								<keyframe>
									<when>135.714</when>
									<value>0.354339</value>
								</keyframe>
								<interpolation>
									<name>FCPCurve</name>
								</interpolation>
								<value>0.354339</value>
							</parameter>
						</effect>
					</filter>
					<filter>
						<effect>
							<name>Audio Pan</name>
							<effectid>audiopan</effectid>
							<effectcategory>audiopan</effectcategory>
							<effecttype>audiopan</effecttype>
							<mediatype>audio</mediatype>
							<parameter>
								<name>Pan</name>
								<parameterid>pan</parameterid>
								<valuemin>-1</valuemin>
								<valuemax>1</valuemax>
								<value>1</value>
							</parameter>
						</effect>
					</filter>
					<sourcetrack>
						<mediatype>audio</mediatype>
						<trackindex>2</trackindex>
					</sourcetrack>
					<link>
						<linkclipref>AUXMP_SCDV028131_SKIP AND HOP B.mp3 </linkclipref>
						<mediatype>audio</mediatype>
						<trackindex>5</trackindex>
						<clipindex>29</clipindex>
						<groupindex>1</groupindex>
					</link>
					<link>
						<linkclipref>AUXMP_SCDV028131_SKIP AND HOP B.mp3 2</linkclipref>
						<mediatype>audio</mediatype>
						<trackindex>6</trackindex>
						<clipindex>38</clipindex>
						<groupindex>1</groupindex>
					</link>
				</clipitem>
				<enabled>TRUE</enabled>
				<locked>FALSE</locked>
				<outputchannelindex>1</outputchannelindex>
			</track>
			<track>
				<clipitem id="Fin Fredag Vignett - NY3">
					<name>Fin Fredag Vignett - NY</name>
					<duration>1590</duration>
					<rate>
						<ntsc>FALSE</ntsc>
						<timebase>25</timebase>
					</rate>
					<in>0</in>
					<out>902</out>
					<start>391</start>
					<end>-1</end>
					<masterclipid>Fin Fredag Vignett - NY1</masterclipid>
					<logginginfo>
						<scene/>
						<shottake/>
						<lognote/>
						<good>FALSE</good>
					</logginginfo>
					<labels>
						<label2/>
					</labels>
					<comments>
						<mastercomment1/>
						<mastercomment2/>
						<mastercomment3/>
						<mastercomment4/>
					</comments>
					<file id="Fin Fredag Vignett - NY2"/>
					<filter>
						<effect>
							<name>Audio Levels</name>
							<effectid>audiolevels</effectid>
							<effectcategory>audiolevels</effectcategory>
							<effecttype>audiolevels</effecttype>
							<mediatype>audio</mediatype>
							<parameter>
								<name>Level</name>
								<parameterid>level</parameterid>
								<valuemin>0</valuemin>
								<valuemax>3.98109</valuemax>
								<keyframe>
									<when>514.714</when>
									<value>0.501187</value>
								</keyframe>
								<keyframe>
									<when>538.143</when>
									<value>0.251189</value>
								</keyframe>
								<keyframe>
									<when>806.857</when>
									<value>0.199526</value>
								</keyframe>
								<keyframe>
									<when>833.107</when>
									<value>0.238721</value>
								</keyframe>
								<keyframe>
									<when>848</when>
									<value>0.223872</value>
								</keyframe>
								<keyframe>
									<when>1125.82</when>
									<value>0.141254</value>
								</keyframe>
								<interpolation>
									<name>FCPCurve</name>
								</interpolation>
								<value>0.630957</value>
							</parameter>
						</effect>
					</filter>
					<filter>
						<effect>
							<name>Audio Pan</name>
							<effectid>audiopan</effectid>
							<effectcategory>audiopan</effectcategory>
							<effecttype>audiopan</effecttype>
							<mediatype>audio</mediatype>
							<parameter>
								<name>Pan</name>
								<parameterid>pan</parameterid>
								<valuemin>-1</valuemin>
								<valuemax>1</valuemax>
								<value>1</value>
							</parameter>
						</effect>
					</filter>
					<sourcetrack>
						<mediatype>audio</mediatype>
						<trackindex>2</trackindex>
					</sourcetrack>
					<link>
						<linkclipref>Fin Fredag Vignett - NY</linkclipref>
						<mediatype>audio</mediatype>
						<trackindex>6</trackindex>
						<clipindex>1</clipindex>
						<groupindex>1</groupindex>
					</link>
					<link>
						<linkclipref>Fin Fredag Vignett - NY3</linkclipref>
						<mediatype>audio</mediatype>
						<trackindex>7</trackindex>
						<clipindex>1</clipindex>
						<groupindex>1</groupindex>
					</link>
				</clipitem>
				<transitionitem id="920753452 ">
					<rate>
						<ntsc>FALSE</ntsc>
						<timebase>25</timebase>
					</rate>
					<start>1287</start>
					<end>1293</end>
					<alignment>center</alignment>
					<effect>
						<name>Cross Fade (+3dB) Copy</name>
						<effecttype>transition</effecttype>
						<mediatype>audio</mediatype>
					</effect>
				</transitionitem>
				<clipitem id="Svosj mu 3 18">
					<name>Svosj mu 3</name>
					<duration>1024</duration>
					<rate>
						<ntsc>FALSE</ntsc>
						<timebase>25</timebase>
					</rate>
					<in>0</in>
					<out>23</out>
					<start>2516</start>
					<end>-1</end>
					<enabled>TRUE</enabled>
					<masterclipid>Svosj mu 3 1</masterclipid>
					<logginginfo>
						<scene/>
						<shottake/>
						<lognote/>
						<good>FALSE</good>
					</logginginfo>
					<labels>
						<label2/>
					</labels>
					<comments>
						<mastercomment1/>
						<mastercomment2/>
						<mastercomment3/>
						<mastercomment4/>
					</comments>
					<file id="Svosj mu 3 2"/>
					<filter>
						<effect>
							<name>Audio Levels</name>
							<effectid>audiolevels</effectid>
							<effectcategory>audiolevels</effectcategory>
							<effecttype>audiolevels</effecttype>
							<mediatype>audio</mediatype>
							<parameter>
								<name>Level</name>
								<parameterid>level</parameterid>
								<valuemin>0</valuemin>
								<valuemax>3.98109</valuemax>
								<value>0.281838</value>
							</parameter>
						</effect>
					</filter>
					<filter>
						<effect>
							<name>Audio Pan</name>
							<effectid>audiopan</effectid>
							<effectcategory>audiopan</effectcategory>
							<effecttype>audiopan</effecttype>
							<mediatype>audio</mediatype>
							<parameter>
								<name>Pan</name>
								<parameterid>pan</parameterid>
								<valuemin>-1</valuemin>
								<valuemax>1</valuemax>
								<value>-1</value>
							</parameter>
						</effect>
					</filter>
					<sourcetrack>
						<mediatype>audio</mediatype>
						<trackindex>1</trackindex>
					</sourcetrack>
					<link>
						<linkclipref>Svosj mu 3 18</linkclipref>
						<mediatype>audio</mediatype>
						<trackindex>7</trackindex>
						<clipindex>3</clipindex>
						<groupindex>1</groupindex>
					</link>
					<link>
						<linkclipref>Svosj mu 3 19</linkclipref>
						<mediatype>audio</mediatype>
						<trackindex>8</trackindex>
						<clipindex>3</clipindex>
						<groupindex>1</groupindex>
					</link>
				</clipitem>
				<transitionitem id="65">
					<rate>
						<ntsc>FALSE</ntsc>
						<timebase>25</timebase>
					</rate>
					<start>2532</start>
					<end>2539</end>
					<alignment>center</alignment>
					<effect>
						<name>Cross Fade ( 0dB)</name>
						<effecttype>transition</effecttype>
						<mediatype>audio</mediatype>
					</effect>
				</transitionitem>
				<clipitem id="Svosj mu 3 20">
					<name>Svosj mu 3</name>
					<duration>1024</duration>
					<rate>
						<ntsc>FALSE</ntsc>
						<timebase>25</timebase>
					</rate>
					<in>920</in>
					<out>974</out>
					<start>-1</start>
					<end>2586</end>
					<enabled>TRUE</enabled>
					<masterclipid>Svosj mu 3 1</masterclipid>
					<logginginfo>
						<scene/>
						<shottake/>
						<lognote/>
						<good>FALSE</good>
					</logginginfo>
					<labels>
						<label2/>
					</labels>
					<comments>
						<mastercomment1/>
						<mastercomment2/>
						<mastercomment3/>
						<mastercomment4/>
					</comments>
					<file id="Svosj mu 3 2"/>
					<filter>
						<effect>
							<name>Audio Levels</name>
							<effectid>audiolevels</effectid>
							<effectcategory>audiolevels</effectcategory>
							<effecttype>audiolevels</effecttype>
							<mediatype>audio</mediatype>
							<parameter>
								<name>Level</name>
								<parameterid>level</parameterid>
								<valuemin>0</valuemin>
								<valuemax>3.98109</valuemax>
								<value>0.281838</value>
							</parameter>
						</effect>
					</filter>
					<filter>
						<effect>
							<name>Audio Pan</name>
							<effectid>audiopan</effectid>
							<effectcategory>audiopan</effectcategory>
							<effecttype>audiopan</effecttype>
							<mediatype>audio</mediatype>
							<parameter>
								<name>Pan</name>
								<parameterid>pan</parameterid>
								<valuemin>-1</valuemin>
								<valuemax>1</valuemax>
								<value>-1</value>
							</parameter>
						</effect>
					</filter>
					<sourcetrack>
						<mediatype>audio</mediatype>
						<trackindex>1</trackindex>
					</sourcetrack>
					<link>
						<linkclipref>Svosj mu 3 20</linkclipref>
						<mediatype>audio</mediatype>
						<trackindex>7</trackindex>
						<clipindex>5</clipindex>
						<groupindex>1</groupindex>
					</link>
					<link>
						<linkclipref>Svosj mu 3 21</linkclipref>
						<mediatype>audio</mediatype>
						<trackindex>8</trackindex>
						<clipindex>5</clipindex>
						<groupindex>1</groupindex>
					</link>
				</clipitem>
				<clipitem id="Svosj mu 3 22">
					<name>Svosj mu 3</name>
					<duration>1024</duration>
					<rate>
						<ntsc>FALSE</ntsc>
						<timebase>25</timebase>
					</rate>
					<in>0</in>
					<out>23</out>
					<start>3114</start>
					<end>-1</end>
					<enabled>TRUE</enabled>
					<masterclipid>Svosj mu 3 1</masterclipid>
					<logginginfo>
						<scene/>
						<shottake/>
						<lognote/>
						<good>FALSE</good>
					</logginginfo>
					<labels>
						<label2/>
					</labels>
					<comments>
						<mastercomment1/>
						<mastercomment2/>
						<mastercomment3/>
						<mastercomment4/>
					</comments>
					<file id="Svosj mu 3 2"/>
					<filter>
						<effect>
							<name>Audio Levels</name>
							<effectid>audiolevels</effectid>
							<effectcategory>audiolevels</effectcategory>
							<effecttype>audiolevels</effecttype>
							<mediatype>audio</mediatype>
							<parameter>
								<name>Level</name>
								<parameterid>level</parameterid>
								<valuemin>0</valuemin>
								<valuemax>3.98109</valuemax>
								<value>0.316228</value>
							</parameter>
						</effect>
					</filter>
					<filter>
						<effect>
							<name>Audio Pan</name>
							<effectid>audiopan</effectid>
							<effectcategory>audiopan</effectcategory>
							<effecttype>audiopan</effecttype>
							<mediatype>audio</mediatype>
							<parameter>
								<name>Pan</name>
								<parameterid>pan</parameterid>
								<valuemin>-1</valuemin>
								<valuemax>1</valuemax>
								<value>-1</value>
							</parameter>
						</effect>
					</filter>
					<sourcetrack>
						<mediatype>audio</mediatype>
						<trackindex>1</trackindex>
					</sourcetrack>
					<link>
						<linkclipref>Svosj mu 3 22</linkclipref>
						<mediatype>audio</mediatype>
						<trackindex>7</trackindex>
						<clipindex>6</clipindex>
						<groupindex>1</groupindex>
					</link>
					<link>
						<linkclipref>Svosj mu 3 23</linkclipref>
						<mediatype>audio</mediatype>
						<trackindex>8</trackindex>
						<clipindex>6</clipindex>
						<groupindex>1</groupindex>
					</link>
				</clipitem>
				<transitionitem id="66">
					<rate>
						<ntsc>FALSE</ntsc>
						<timebase>25</timebase>
					</rate>
					<start>3130</start>
					<end>3137</end>
					<alignment>center</alignment>
					<effect>
						<name>Cross Fade ( 0dB)</name>
						<effecttype>transition</effecttype>
						<mediatype>audio</mediatype>
					</effect>
				</transitionitem>
				<clipitem id="Svosj mu 3 24">
					<name>Svosj mu 3</name>
					<duration>1024</duration>
					<rate>
						<ntsc>FALSE</ntsc>
						<timebase>25</timebase>
					</rate>
					<in>920</in>
					<out>974</out>
					<start>-1</start>
					<end>3184</end>
					<enabled>TRUE</enabled>
					<masterclipid>Svosj mu 3 1</masterclipid>
					<logginginfo>
						<scene/>
						<shottake/>
						<lognote/>
						<good>FALSE</good>
					</logginginfo>
					<labels>
						<label2/>
					</labels>
					<comments>
						<mastercomment1/>
						<mastercomment2/>
						<mastercomment3/>
						<mastercomment4/>
					</comments>
					<file id="Svosj mu 3 2"/>
					<filter>
						<effect>
							<name>Audio Levels</name>
							<effectid>audiolevels</effectid>
							<effectcategory>audiolevels</effectcategory>
							<effecttype>audiolevels</effecttype>
							<mediatype>audio</mediatype>
							<parameter>
								<name>Level</name>
								<parameterid>level</parameterid>
								<valuemin>0</valuemin>
								<valuemax>3.98109</valuemax>
								<value>0.316228</value>
							</parameter>
						</effect>
					</filter>
					<filter>
						<effect>
							<name>Audio Pan</name>
							<effectid>audiopan</effectid>
							<effectcategory>audiopan</effectcategory>
							<effecttype>audiopan</effecttype>
							<mediatype>audio</mediatype>
							<parameter>
								<name>Pan</name>
								<parameterid>pan</parameterid>
								<valuemin>-1</valuemin>
								<valuemax>1</valuemax>
								<value>-1</value>
							</parameter>
						</effect>
					</filter>
					<sourcetrack>
						<mediatype>audio</mediatype>
						<trackindex>1</trackindex>
					</sourcetrack>
					<link>
						<linkclipref>Svosj mu 3 24</linkclipref>
						<mediatype>audio</mediatype>
						<trackindex>7</trackindex>
						<clipindex>8</clipindex>
						<groupindex>1</groupindex>
					</link>
					<link>
						<linkclipref>Svosj mu 3 25</linkclipref>
						<mediatype>audio</mediatype>
						<trackindex>8</trackindex>
						<clipindex>8</clipindex>
						<groupindex>1</groupindex>
					</link>
				</clipitem>
				<transitionitem id="920756172 ">
					<rate>
						<ntsc>FALSE</ntsc>
						<timebase>25</timebase>
					</rate>
					<start>3671</start>
					<end>3677</end>
					<alignment>center</alignment>
					<effect>
						<name>Cross Fade (+3dB)</name>
						<effecttype>transition</effecttype>
						<mediatype>audio</mediatype>
					</effect>
				</transitionitem>
				<clipitem id="10 SMILES HOME --- Bright, Melodic, Soothing, Peaceful, Memories, Travel, Journey, Gentle, Thoughtful, Longing3">
					<name>10 SMILES HOME --- Bright, Melodic, Soothing, Peaceful, Memories, Travel, Journey, Gentle, Thoughtful, Longing</name>
					<duration>3635</duration>
					<rate>
						<ntsc>FALSE</ntsc>
						<timebase>25</timebase>
					</rate>
					<in>2068</in>
					<out>3360</out>
					<start>-1</start>
					<end>4963</end>
					<enabled>TRUE</enabled>
					<masterclipid>10 SMILES HOME --- Bright, Melodic, Soothing, Peaceful, Memories, Travel, Journey, Gentle, Thoughtful, Longing1</masterclipid>
					<logginginfo>
						<scene/>
						<shottake/>
						<lognote/>
						<good>FALSE</good>
					</logginginfo>
					<labels>
						<label2/>
					</labels>
					<comments>
						<mastercomment1/>
						<mastercomment2/>
						<mastercomment3/>
						<mastercomment4/>
					</comments>
					<file id="10 SMILES HOME --- Bright, Melodic, Soothing, Peaceful, Memories, Travel, Journey, Gentle, Thoughtful, Longing2"/>
					<filter>
						<effect>
							<name>Audio Levels</name>
							<effectid>audiolevels</effectid>
							<effectcategory>audiolevels</effectcategory>
							<effecttype>audiolevels</effecttype>
							<mediatype>audio</mediatype>
							<parameter>
								<name>Level</name>
								<parameterid>level</parameterid>
								<valuemin>0</valuemin>
								<valuemax>3.98109</valuemax>
								<keyframe>
									<when>2504</when>
									<value>0.158489</value>
								</keyframe>
								<keyframe>
									<when>2574</when>
									<value>0.0251189</value>
								</keyframe>
								<keyframe>
									<when>2778</when>
									<value>0</value>
								</keyframe>
								<keyframe>
									<when>3356</when>
									<value>0</value>
								</keyframe>
								<keyframe>
									<when>3605.14</when>
									<value>0</value>
								</keyframe>
								<interpolation>
									<name>FCPCurve</name>
								</interpolation>
								<value>0.158489</value>
							</parameter>
						</effect>
					</filter>
					<filter>
						<effect>
							<name>Audio Pan</name>
							<effectid>audiopan</effectid>
							<effectcategory>audiopan</effectcategory>
							<effecttype>audiopan</effecttype>
							<mediatype>audio</mediatype>
							<parameter>
								<name>Pan</name>
								<parameterid>pan</parameterid>
								<valuemin>-1</valuemin>
								<valuemax>1</valuemax>
								<value>1</value>
							</parameter>
						</effect>
					</filter>
					<sourcetrack>
						<mediatype>audio</mediatype>
						<trackindex>2</trackindex>
					</sourcetrack>
					<link>
						<linkclipref>10 SMILES HOME --- Bright, Melodic, Soothing, Peaceful, Memories, Travel, Journey, Gentle, Thoughtful, Longing</linkclipref>
						<mediatype>audio</mediatype>
						<trackindex>6</trackindex>
						<clipindex>6</clipindex>
						<groupindex>1</groupindex>
					</link>
					<link>
						<linkclipref>10 SMILES HOME --- Bright, Melodic, Soothing, Peaceful, Memories, Travel, Journey, Gentle, Thoughtful, Longing3</linkclipref>
						<mediatype>audio</mediatype>
						<trackindex>7</trackindex>
						<clipindex>10</clipindex>
						<groupindex>1</groupindex>
					</link>
				</clipitem>
				<transitionitem id="920756920 ">
					<rate>
						<ntsc>FALSE</ntsc>
						<timebase>25</timebase>
					</rate>
					<start>5554</start>
					<end>5566</end>
					<alignment>start-black</alignment>
					<effect>
						<name>Cross Fade (+3dB)</name>
						<effecttype>transition</effecttype>
						<mediatype>audio</mediatype>
					</effect>
				</transitionitem>
				<clipitem id="Fin Fredag PIMPBUMP 8.wav3">
					<name>Fin Fredag PIMPBUMP 8.wav</name>
					<duration>259</duration>
					<rate>
						<ntsc>FALSE</ntsc>
						<timebase>25</timebase>
					</rate>
					<in>123</in>
					<out>197</out>
					<start>-1</start>
					<end>-1</end>
					<subframeoffset>0</subframeoffset>
					<masterclipid>Fin Fredag PIMPBUMP 8.wav1</masterclipid>
					<logginginfo>
						<scene/>
						<shottake/>
						<lognote/>
						<good>FALSE</good>
					</logginginfo>
					<labels>
						<label2/>
					</labels>
					<comments>
						<mastercomment1/>
						<mastercomment2/>
						<mastercomment3/>
						<mastercomment4/>
					</comments>
					<file id="Fin Fredag PIMPBUMP 8 "/>
					<filter>
						<effect>
							<name>Audio Levels</name>
							<effectid>audiolevels</effectid>
							<effectcategory>audiolevels</effectcategory>
							<effecttype>audiolevels</effecttype>
							<mediatype>audio</mediatype>
							<parameter>
								<name>Level</name>
								<parameterid>level</parameterid>
								<valuemin>0</valuemin>
								<valuemax>3.98109</valuemax>
								<keyframe>
									<when>152.75</when>
									<value>0.562341</value>
								</keyframe>
								<keyframe>
									<when>187.571</when>
									<value>0.141254</value>
								</keyframe>
								<interpolation>
									<name>FCPCurve</name>
								</interpolation>
								<value>0.501891</value>
							</parameter>
						</effect>
					</filter>
					<filter>
						<effect>
							<name>Audio Pan</name>
							<effectid>audiopan</effectid>
							<effectcategory>audiopan</effectcategory>
							<effecttype>audiopan</effecttype>
							<mediatype>audio</mediatype>
							<parameter>
								<name>Pan</name>
								<parameterid>pan</parameterid>
								<valuemin>-1</valuemin>
								<valuemax>1</valuemax>
								<value>-1</value>
							</parameter>
						</effect>
					</filter>
					<sourcetrack>
						<mediatype>audio</mediatype>
						<trackindex>1</trackindex>
					</sourcetrack>
					<link>
						<linkclipref>Fin Fredag PIMPBUMP 8.wav3</linkclipref>
						<mediatype>audio</mediatype>
						<trackindex>7</trackindex>
						<clipindex>12</clipindex>
						<groupindex>1</groupindex>
					</link>
					<link>
						<linkclipref>Fin Fredag PIMPBUMP 8.wav4</linkclipref>
						<mediatype>audio</mediatype>
						<trackindex>8</trackindex>
						<clipindex>10</clipindex>
						<groupindex>1</groupindex>
					</link>
				</clipitem>
				<transitionitem id="920757872 ">
					<rate>
						<ntsc>FALSE</ntsc>
						<timebase>25</timebase>
					</rate>
					<start>5616</start>
					<end>5628</end>
					<alignment>center</alignment>
					<effect>
						<name>Cross Fade (+3dB)</name>
						<effecttype>transition</effecttype>
						<mediatype>audio</mediatype>
					</effect>
				</transitionitem>
				<clipitem id="Svosj mu 3 3">
					<name>Svosj mu 3</name>
					<duration>1024</duration>
					<rate>
						<ntsc>FALSE</ntsc>
						<timebase>25</timebase>
					</rate>
					<in>0</in>
					<out>23</out>
					<start>18422</start>
					<end>-1</end>
					<masterclipid>Svosj mu 3 1</masterclipid>
					<logginginfo>
						<scene/>
						<shottake/>
						<lognote/>
						<good>FALSE</good>
					</logginginfo>
					<labels>
						<label2/>
					</labels>
					<comments>
						<mastercomment1/>
						<mastercomment2/>
						<mastercomment3/>
						<mastercomment4/>
					</comments>
					<file id="Svosj mu 3 2"/>
					<filter>
						<effect>
							<name>Audio Levels</name>
							<effectid>audiolevels</effectid>
							<effectcategory>audiolevels</effectcategory>
							<effecttype>audiolevels</effecttype>
							<mediatype>audio</mediatype>
							<parameter>
								<name>Level</name>
								<parameterid>level</parameterid>
								<valuemin>0</valuemin>
								<valuemax>3.98109</valuemax>
								<keyframe>
									<when>11.2857</when>
									<value>0.501187</value>
								</keyframe>
								<interpolation>
									<name>FCPCurve</name>
								</interpolation>
								<value>0.891251</value>
							</parameter>
						</effect>
					</filter>
					<filter>
						<effect>
							<name>Audio Pan</name>
							<effectid>audiopan</effectid>
							<effectcategory>audiopan</effectcategory>
							<effecttype>audiopan</effecttype>
							<mediatype>audio</mediatype>
							<parameter>
								<name>Pan</name>
								<parameterid>pan</parameterid>
								<valuemin>-1</valuemin>
								<valuemax>1</valuemax>
								<value>1</value>
							</parameter>
						</effect>
					</filter>
					<sourcetrack>
						<mediatype>audio</mediatype>
						<trackindex>2</trackindex>
					</sourcetrack>
					<link>
						<linkclipref>Svosj mu 3 </linkclipref>
						<mediatype>audio</mediatype>
						<trackindex>6</trackindex>
						<clipindex>13</clipindex>
						<groupindex>1</groupindex>
					</link>
					<link>
						<linkclipref>Svosj mu 3 3</linkclipref>
						<mediatype>audio</mediatype>
						<trackindex>7</trackindex>
						<clipindex>14</clipindex>
						<groupindex>1</groupindex>
					</link>
				</clipitem>
				<transitionitem id="67">
					<rate>
						<ntsc>FALSE</ntsc>
						<timebase>25</timebase>
					</rate>
					<start>18438</start>
					<end>18445</end>
					<alignment>center</alignment>
					<effect>
						<name>Cross Fade ( 0dB)</name>
						<effecttype>transition</effecttype>
						<mediatype>audio</mediatype>
					</effect>
				</transitionitem>
				<clipitem id="Svosj mu 3 5">
					<name>Svosj mu 3</name>
					<duration>1024</duration>
					<rate>
						<ntsc>FALSE</ntsc>
						<timebase>25</timebase>
					</rate>
					<in>920</in>
					<out>978</out>
					<start>-1</start>
					<end>18496</end>
					<masterclipid>Svosj mu 3 1</masterclipid>
					<logginginfo>
						<scene/>
						<shottake/>
						<lognote/>
						<good>FALSE</good>
					</logginginfo>
					<labels>
						<label2/>
					</labels>
					<comments>
						<mastercomment1/>
						<mastercomment2/>
						<mastercomment3/>
						<mastercomment4/>
					</comments>
					<file id="Svosj mu 3 2"/>
					<filter>
						<effect>
							<name>Audio Levels</name>
							<effectid>audiolevels</effectid>
							<effectcategory>audiolevels</effectcategory>
							<effecttype>audiolevels</effecttype>
							<mediatype>audio</mediatype>
							<parameter>
								<name>Level</name>
								<parameterid>level</parameterid>
								<valuemin>0</valuemin>
								<valuemax>3.98109</valuemax>
								<keyframe>
									<when>945</when>
									<value>0.630957</value>
								</keyframe>
								<interpolation>
									<name>FCPCurve</name>
								</interpolation>
								<value>0.630957</value>
							</parameter>
						</effect>
					</filter>
					<filter>
						<effect>
							<name>Audio Pan</name>
							<effectid>audiopan</effectid>
							<effectcategory>audiopan</effectcategory>
							<effecttype>audiopan</effecttype>
							<mediatype>audio</mediatype>
							<parameter>
								<name>Pan</name>
								<parameterid>pan</parameterid>
								<valuemin>-1</valuemin>
								<valuemax>1</valuemax>
								<value>1</value>
							</parameter>
						</effect>
					</filter>
					<sourcetrack>
						<mediatype>audio</mediatype>
						<trackindex>2</trackindex>
					</sourcetrack>
					<link>
						<linkclipref>Svosj mu 3 4</linkclipref>
						<mediatype>audio</mediatype>
						<trackindex>6</trackindex>
						<clipindex>15</clipindex>
						<groupindex>1</groupindex>
					</link>
					<link>
						<linkclipref>Svosj mu 3 5</linkclipref>
						<mediatype>audio</mediatype>
						<trackindex>7</trackindex>
						<clipindex>16</clipindex>
						<groupindex>1</groupindex>
					</link>
				</clipitem>
				<clipitem id="Svosj mu 3 7">
					<name>Svosj mu 3</name>
					<duration>1024</duration>
					<rate>
						<ntsc>FALSE</ntsc>
						<timebase>25</timebase>
					</rate>
					<in>0</in>
					<out>23</out>
					<start>21514</start>
					<end>-1</end>
					<masterclipid>Svosj mu 3 1</masterclipid>
					<logginginfo>
						<scene/>
						<shottake/>
						<lognote/>
						<good>FALSE</good>
					</logginginfo>
					<labels>
						<label2/>
					</labels>
					<comments>
						<mastercomment1/>
						<mastercomment2/>
						<mastercomment3/>
						<mastercomment4/>
					</comments>
					<file id="Svosj mu 3 2"/>
					<filter>
						<effect>
							<name>Audio Levels</name>
							<effectid>audiolevels</effectid>
							<effectcategory>audiolevels</effectcategory>
							<effecttype>audiolevels</effecttype>
							<mediatype>audio</mediatype>
							<parameter>
								<name>Level</name>
								<parameterid>level</parameterid>
								<valuemin>0</valuemin>
								<valuemax>3.98109</valuemax>
								<keyframe>
									<when>11.2857</when>
									<value>0.501187</value>
								</keyframe>
								<interpolation>
									<name>FCPCurve</name>
								</interpolation>
								<value>0.891251</value>
							</parameter>
						</effect>
					</filter>
					<filter>
						<effect>
							<name>Audio Pan</name>
							<effectid>audiopan</effectid>
							<effectcategory>audiopan</effectcategory>
							<effecttype>audiopan</effecttype>
							<mediatype>audio</mediatype>
							<parameter>
								<name>Pan</name>
								<parameterid>pan</parameterid>
								<valuemin>-1</valuemin>
								<valuemax>1</valuemax>
								<value>1</value>
							</parameter>
						</effect>
					</filter>
					<sourcetrack>
						<mediatype>audio</mediatype>
						<trackindex>2</trackindex>
					</sourcetrack>
					<link>
						<linkclipref>Svosj mu 3 6</linkclipref>
						<mediatype>audio</mediatype>
						<trackindex>6</trackindex>
						<clipindex>16</clipindex>
						<groupindex>1</groupindex>
					</link>
					<link>
						<linkclipref>Svosj mu 3 7</linkclipref>
						<mediatype>audio</mediatype>
						<trackindex>7</trackindex>
						<clipindex>17</clipindex>
						<groupindex>1</groupindex>
					</link>
				</clipitem>
				<transitionitem id="68">
					<rate>
						<ntsc>FALSE</ntsc>
						<timebase>25</timebase>
					</rate>
					<start>21530</start>
					<end>21537</end>
					<alignment>center</alignment>
					<effect>
						<name>Cross Fade ( 0dB)</name>
						<effecttype>transition</effecttype>
						<mediatype>audio</mediatype>
					</effect>
				</transitionitem>
				<clipitem id="Svosj mu 3 9">
					<name>Svosj mu 3</name>
					<duration>1024</duration>
					<rate>
						<ntsc>FALSE</ntsc>
						<timebase>25</timebase>
					</rate>
					<in>920</in>
					<out>978</out>
					<start>-1</start>
					<end>21588</end>
					<masterclipid>Svosj mu 3 1</masterclipid>
					<logginginfo>
						<scene/>
						<shottake/>
						<lognote/>
						<good>FALSE</good>
					</logginginfo>
					<labels>
						<label2/>
					</labels>
					<comments>
						<mastercomment1/>
						<mastercomment2/>
						<mastercomment3/>
						<mastercomment4/>
					</comments>
					<file id="Svosj mu 3 2"/>
					<filter>
						<effect>
							<name>Audio Levels</name>
							<effectid>audiolevels</effectid>
							<effectcategory>audiolevels</effectcategory>
							<effecttype>audiolevels</effecttype>
							<mediatype>audio</mediatype>
							<parameter>
								<name>Level</name>
								<parameterid>level</parameterid>
								<valuemin>0</valuemin>
								<valuemax>3.98109</valuemax>
								<keyframe>
									<when>945</when>
									<value>0.630957</value>
								</keyframe>
								<interpolation>
									<name>FCPCurve</name>
								</interpolation>
								<value>0.630957</value>
							</parameter>
						</effect>
					</filter>
					<filter>
						<effect>
							<name>Audio Pan</name>
							<effectid>audiopan</effectid>
							<effectcategory>audiopan</effectcategory>
							<effecttype>audiopan</effecttype>
							<mediatype>audio</mediatype>
							<parameter>
								<name>Pan</name>
								<parameterid>pan</parameterid>
								<valuemin>-1</valuemin>
								<valuemax>1</valuemax>
								<value>1</value>
							</parameter>
						</effect>
					</filter>
					<sourcetrack>
						<mediatype>audio</mediatype>
						<trackindex>2</trackindex>
					</sourcetrack>
					<link>
						<linkclipref>Svosj mu 3 8</linkclipref>
						<mediatype>audio</mediatype>
						<trackindex>6</trackindex>
						<clipindex>18</clipindex>
						<groupindex>1</groupindex>
					</link>
					<link>
						<linkclipref>Svosj mu 3 9</linkclipref>
						<mediatype>audio</mediatype>
						<trackindex>7</trackindex>
						<clipindex>19</clipindex>
						<groupindex>1</groupindex>
					</link>
				</clipitem>
				<clipitem id="03 BANJO BLAST --- A banjo lead tussles with guitar, violin and harmonica. Fun, optimistic, energetic.">
					<name>03 BANJO BLAST --- A banjo lead tussles with guitar, violin and harmonica. Fun, optimistic, energetic.</name>
					<duration>4713</duration>
					<rate>
						<ntsc>FALSE</ntsc>
						<timebase>25</timebase>
					</rate>
					<in>521</in>
					<out>643</out>
					<start>25034</start>
					<end>25156</end>
					<enabled>TRUE</enabled>
					<masterclipid>03 BANJO BLAST --- A banjo lead tussles with guitar, violin and harmonica. Fun, optimistic, energetic.1</masterclipid>
					<logginginfo>
						<scene/>
						<shottake/>
						<lognote/>
						<good>FALSE</good>
					</logginginfo>
					<labels>
						<label2/>
					</labels>
					<comments>
						<mastercomment1/>
						<mastercomment2/>
						<mastercomment3/>
						<mastercomment4/>
					</comments>
					<file id="03 BANJO BLAST --- A banjo lead tussles with guitar, violin and harmonica. Fun, optimistic, energetic.2">
						<name>03 BANJO BLAST --- A banjo lead tussles with guitar, violin and harmonica. Fun, optimistic, energetic..aif</name>
						<pathurl>file://localhost/SuperSAN1/Prosjekter/MSUB20000012%20FIN%20FREDAG/MUSIKK/auxmp14619_796/03%20BANJO%20BLAST%20---%20A%20banjo%20lead%20tussles%20with%20guitar,%20violin%20and%20harmonica.%20Fun,%20optimistic,%20energetic..aif</pathurl>
						<rate>
							<timebase>25</timebase>
						</rate>
						<duration>4713</duration>
						<media>
							<audio>
								<rate>
									<timebase>44100</timebase>
								</rate>
								<trackcount>2</trackcount>
								<samplecharacteristics>
									<depth>16</depth>
								</samplecharacteristics>
							</audio>
						</media>
					</file>
					<filter>
						<effect>
							<name>Audio Levels</name>
							<effectid>audiolevels</effectid>
							<effectcategory>audiolevels</effectcategory>
							<effecttype>audiolevels</effecttype>
							<mediatype>audio</mediatype>
							<parameter>
								<name>Level</name>
								<parameterid>level</parameterid>
								<valuemin>0</valuemin>
								<valuemax>3.98109</valuemax>
								<value>0.199526</value>
							</parameter>
						</effect>
					</filter>
					<filter>
						<effect>
							<name>Audio Pan</name>
							<effectid>audiopan</effectid>
							<effectcategory>audiopan</effectcategory>
							<effecttype>audiopan</effecttype>
							<mediatype>audio</mediatype>
							<parameter>
								<name>Pan</name>
								<parameterid>pan</parameterid>
								<valuemin>-1</valuemin>
								<valuemax>1</valuemax>
								<value>-1</value>
							</parameter>
						</effect>
					</filter>
					<sourcetrack>
						<mediatype>audio</mediatype>
						<trackindex>1</trackindex>
					</sourcetrack>
					<link>
						<linkclipref>03 BANJO BLAST --- A banjo lead tussles with guitar, violin and harmonica. Fun, optimistic, energetic.</linkclipref>
						<mediatype>audio</mediatype>
						<trackindex>7</trackindex>
						<clipindex>20</clipindex>
						<groupindex>1</groupindex>
					</link>
					<link>
						<linkclipref>03 BANJO BLAST --- A banjo lead tussles with guitar, violin and harmonica. Fun, optimistic, energetic.3</linkclipref>
						<mediatype>audio</mediatype>
						<trackindex>8</trackindex>
						<clipindex>21</clipindex>
						<groupindex>1</groupindex>
					</link>
				</clipitem>
				<transitionitem id="69">
					<rate>
						<ntsc>FALSE</ntsc>
						<timebase>25</timebase>
					</rate>
					<start>25156</start>
					<end>25158</end>
					<alignment>center</alignment>
					<effect>
						<name>Cross Fade (+3dB) Copy</name>
						<effecttype>transition</effecttype>
						<mediatype>audio</mediatype>
					</effect>
				</transitionitem>
				<clipitem id="03 BANJO BLAST --- A banjo lead tussles with guitar, violin and harmonica. Fun, optimistic, energetic.4">
					<name>03 BANJO BLAST --- A banjo lead tussles with guitar, violin and harmonica. Fun, optimistic, energetic.</name>
					<duration>4713</duration>
					<rate>
						<ntsc>FALSE</ntsc>
						<timebase>25</timebase>
					</rate>
					<in>4387</in>
					<out>4612</out>
					<start>-1</start>
					<end>25381</end>
					<subframeoffset>0</subframeoffset>
					<enabled>TRUE</enabled>
					<masterclipid>03 BANJO BLAST --- A banjo lead tussles with guitar, violin and harmonica. Fun, optimistic, energetic.1</masterclipid>
					<logginginfo>
						<scene/>
						<shottake/>
						<lognote/>
						<good>FALSE</good>
					</logginginfo>
					<labels>
						<label2/>
					</labels>
					<comments>
						<mastercomment1/>
						<mastercomment2/>
						<mastercomment3/>
						<mastercomment4/>
					</comments>
					<file id="03 BANJO BLAST --- A banjo lead tussles with guitar, violin and harmonica. Fun, optimistic, energetic.2"/>
					<filter>
						<effect>
							<name>Audio Levels</name>
							<effectid>audiolevels</effectid>
							<effectcategory>audiolevels</effectcategory>
							<effecttype>audiolevels</effecttype>
							<mediatype>audio</mediatype>
							<parameter>
								<name>Level</name>
								<parameterid>level</parameterid>
								<valuemin>0</valuemin>
								<valuemax>3.98109</valuemax>
								<value>0.199526</value>
							</parameter>
						</effect>
					</filter>
					<filter>
						<effect>
							<name>Audio Pan</name>
							<effectid>audiopan</effectid>
							<effectcategory>audiopan</effectcategory>
							<effecttype>audiopan</effecttype>
							<mediatype>audio</mediatype>
							<parameter>
								<name>Pan</name>
								<parameterid>pan</parameterid>
								<valuemin>-1</valuemin>
								<valuemax>1</valuemax>
								<value>-1</value>
							</parameter>
						</effect>
					</filter>
					<sourcetrack>
						<mediatype>audio</mediatype>
						<trackindex>1</trackindex>
					</sourcetrack>
					<link>
						<linkclipref>03 BANJO BLAST --- A banjo lead tussles with guitar, violin and harmonica. Fun, optimistic, energetic.4</linkclipref>
						<mediatype>audio</mediatype>
						<trackindex>7</trackindex>
						<clipindex>22</clipindex>
						<groupindex>1</groupindex>
					</link>
					<link>
						<linkclipref>03 BANJO BLAST --- A banjo lead tussles with guitar, violin and harmonica. Fun, optimistic, energetic.5</linkclipref>
						<mediatype>audio</mediatype>
						<trackindex>8</trackindex>
						<clipindex>23</clipindex>
						<groupindex>1</groupindex>
					</link>
				</clipitem>
				<clipitem id="Fin Fredag PIMPBUMP 2.wav3">
					<name>Fin Fredag PIMPBUMP 2.wav</name>
					<duration>1095</duration>
					<rate>
						<ntsc>FALSE</ntsc>
						<timebase>25</timebase>
					</rate>
					<in>968</in>
					<out>1092</out>
					<start>25960</start>
					<end>26084</end>
					<subframeoffset>0</subframeoffset>
					<masterclipid>Fin Fredag PIMPBUMP 2.wav1</masterclipid>
					<logginginfo>
						<scene/>
						<shottake/>
						<lognote/>
						<good>FALSE</good>
					</logginginfo>
					<labels>
						<label2/>
					</labels>
					<comments>
						<mastercomment1/>
						<mastercomment2/>
						<mastercomment3/>
						<mastercomment4/>
					</comments>
					<file id="Fin Fredag PIMPBUMP 2 "/>
					<filter>
						<effect>
							<name>Audio Levels</name>
							<effectid>audiolevels</effectid>
							<effectcategory>audiolevels</effectcategory>
							<effecttype>audiolevels</effecttype>
							<mediatype>audio</mediatype>
							<parameter>
								<name>Level</name>
								<parameterid>level</parameterid>
								<valuemin>0</valuemin>
								<valuemax>3.98109</valuemax>
								<keyframe>
									<when>990.679</when>
									<value>0.398107</value>
								</keyframe>
								<keyframe>
									<when>1018.54</when>
									<value>0.158489</value>
								</keyframe>
								<interpolation>
									<name>FCPCurve</name>
								</interpolation>
								<value>0.398107</value>
							</parameter>
						</effect>
					</filter>
					<filter>
						<effect>
							<name>Audio Pan</name>
							<effectid>audiopan</effectid>
							<effectcategory>audiopan</effectcategory>
							<effecttype>audiopan</effecttype>
							<mediatype>audio</mediatype>
							<parameter>
								<name>Pan</name>
								<parameterid>pan</parameterid>
								<valuemin>-1</valuemin>
								<valuemax>1</valuemax>
								<value>-1</value>
							</parameter>
						</effect>
					</filter>
					<sourcetrack>
						<mediatype>audio</mediatype>
						<trackindex>1</trackindex>
					</sourcetrack>
					<link>
						<linkclipref>Fin Fredag PIMPBUMP 2.wav3</linkclipref>
						<mediatype>audio</mediatype>
						<trackindex>7</trackindex>
						<clipindex>23</clipindex>
						<groupindex>1</groupindex>
					</link>
					<link>
						<linkclipref>Fin Fredag PIMPBUMP 2.wav4</linkclipref>
						<mediatype>audio</mediatype>
						<trackindex>8</trackindex>
						<clipindex>24</clipindex>
						<groupindex>1</groupindex>
					</link>
				</clipitem>
				<clipitem id="Svosj mu 3 11">
					<name>Svosj mu 3</name>
					<duration>1024</duration>
					<rate>
						<ntsc>FALSE</ntsc>
						<timebase>25</timebase>
					</rate>
					<in>0</in>
					<out>23</out>
					<start>28315</start>
					<end>-1</end>
					<masterclipid>Svosj mu 3 1</masterclipid>
					<logginginfo>
						<scene/>
						<shottake/>
						<lognote/>
						<good>FALSE</good>
					</logginginfo>
					<labels>
						<label2/>
					</labels>
					<comments>
						<mastercomment1/>
						<mastercomment2/>
						<mastercomment3/>
						<mastercomment4/>
					</comments>
					<file id="Svosj mu 3 2"/>
					<filter>
						<effect>
							<name>Audio Levels</name>
							<effectid>audiolevels</effectid>
							<effectcategory>audiolevels</effectcategory>
							<effecttype>audiolevels</effecttype>
							<mediatype>audio</mediatype>
							<parameter>
								<name>Level</name>
								<parameterid>level</parameterid>
								<valuemin>0</valuemin>
								<valuemax>3.98109</valuemax>
								<value>0.398107</value>
							</parameter>
						</effect>
					</filter>
					<filter>
						<effect>
							<name>Audio Pan</name>
							<effectid>audiopan</effectid>
							<effectcategory>audiopan</effectcategory>
							<effecttype>audiopan</effecttype>
							<mediatype>audio</mediatype>
							<parameter>
								<name>Pan</name>
								<parameterid>pan</parameterid>
								<valuemin>-1</valuemin>
								<valuemax>1</valuemax>
								<value>1</value>
							</parameter>
						</effect>
					</filter>
					<sourcetrack>
						<mediatype>audio</mediatype>
						<trackindex>2</trackindex>
					</sourcetrack>
					<link>
						<linkclipref>Svosj mu 3 10</linkclipref>
						<mediatype>audio</mediatype>
						<trackindex>6</trackindex>
						<clipindex>26</clipindex>
						<groupindex>1</groupindex>
					</link>
					<link>
						<linkclipref>Svosj mu 3 11</linkclipref>
						<mediatype>audio</mediatype>
						<trackindex>7</trackindex>
						<clipindex>24</clipindex>
						<groupindex>1</groupindex>
					</link>
				</clipitem>
				<transitionitem id="70">
					<rate>
						<ntsc>FALSE</ntsc>
						<timebase>25</timebase>
					</rate>
					<start>28331</start>
					<end>28338</end>
					<alignment>center</alignment>
					<effect>
						<name>Cross Fade ( 0dB)</name>
						<effecttype>transition</effecttype>
						<mediatype>audio</mediatype>
					</effect>
				</transitionitem>
				<clipitem id="Svosj mu 3 13">
					<name>Svosj mu 3</name>
					<duration>1024</duration>
					<rate>
						<ntsc>FALSE</ntsc>
						<timebase>25</timebase>
					</rate>
					<in>920</in>
					<out>974</out>
					<start>-1</start>
					<end>28385</end>
					<masterclipid>Svosj mu 3 1</masterclipid>
					<logginginfo>
						<scene/>
						<shottake/>
						<lognote/>
						<good>FALSE</good>
					</logginginfo>
					<labels>
						<label2/>
					</labels>
					<comments>
						<mastercomment1/>
						<mastercomment2/>
						<mastercomment3/>
						<mastercomment4/>
					</comments>
					<file id="Svosj mu 3 2"/>
					<filter>
						<effect>
							<name>Audio Levels</name>
							<effectid>audiolevels</effectid>
							<effectcategory>audiolevels</effectcategory>
							<effecttype>audiolevels</effecttype>
							<mediatype>audio</mediatype>
							<parameter>
								<name>Level</name>
								<parameterid>level</parameterid>
								<valuemin>0</valuemin>
								<valuemax>3.98109</valuemax>
								<value>0.501187</value>
							</parameter>
						</effect>
					</filter>
					<filter>
						<effect>
							<name>Audio Pan</name>
							<effectid>audiopan</effectid>
							<effectcategory>audiopan</effectcategory>
							<effecttype>audiopan</effecttype>
							<mediatype>audio</mediatype>
							<parameter>
								<name>Pan</name>
								<parameterid>pan</parameterid>
								<valuemin>-1</valuemin>
								<valuemax>1</valuemax>
								<value>1</value>
							</parameter>
						</effect>
					</filter>
					<sourcetrack>
						<mediatype>audio</mediatype>
						<trackindex>2</trackindex>
					</sourcetrack>
					<link>
						<linkclipref>Svosj mu 3 12</linkclipref>
						<mediatype>audio</mediatype>
						<trackindex>6</trackindex>
						<clipindex>28</clipindex>
						<groupindex>1</groupindex>
					</link>
					<link>
						<linkclipref>Svosj mu 3 13</linkclipref>
						<mediatype>audio</mediatype>
						<trackindex>7</trackindex>
						<clipindex>26</clipindex>
						<groupindex>1</groupindex>
					</link>
				</clipitem>
				<clipitem id="Svosj mu 3 15">
					<name>Svosj mu 3</name>
					<duration>1024</duration>
					<rate>
						<ntsc>FALSE</ntsc>
						<timebase>25</timebase>
					</rate>
					<in>0</in>
					<out>23</out>
					<start>28746</start>
					<end>-1</end>
					<enabled>TRUE</enabled>
					<masterclipid>Svosj mu 3 1</masterclipid>
					<logginginfo>
						<scene/>
						<shottake/>
						<lognote/>
						<good>FALSE</good>
					</logginginfo>
					<labels>
						<label2/>
					</labels>
					<comments>
						<mastercomment1/>
						<mastercomment2/>
						<mastercomment3/>
						<mastercomment4/>
					</comments>
					<file id="Svosj mu 3 2"/>
					<filter>
						<effect>
							<name>Audio Levels</name>
							<effectid>audiolevels</effectid>
							<effectcategory>audiolevels</effectcategory>
							<effecttype>audiolevels</effecttype>
							<mediatype>audio</mediatype>
							<parameter>
								<name>Level</name>
								<parameterid>level</parameterid>
								<valuemin>0</valuemin>
								<valuemax>3.98109</valuemax>
								<value>0.398107</value>
							</parameter>
						</effect>
					</filter>
					<filter>
						<effect>
							<name>Audio Pan</name>
							<effectid>audiopan</effectid>
							<effectcategory>audiopan</effectcategory>
							<effecttype>audiopan</effecttype>
							<mediatype>audio</mediatype>
							<parameter>
								<name>Pan</name>
								<parameterid>pan</parameterid>
								<valuemin>-1</valuemin>
								<valuemax>1</valuemax>
								<value>1</value>
							</parameter>
						</effect>
					</filter>
					<sourcetrack>
						<mediatype>audio</mediatype>
						<trackindex>2</trackindex>
					</sourcetrack>
					<link>
						<linkclipref>Svosj mu 3 14</linkclipref>
						<mediatype>audio</mediatype>
						<trackindex>6</trackindex>
						<clipindex>29</clipindex>
						<groupindex>1</groupindex>
					</link>
					<link>
						<linkclipref>Svosj mu 3 15</linkclipref>
						<mediatype>audio</mediatype>
						<trackindex>7</trackindex>
						<clipindex>27</clipindex>
						<groupindex>1</groupindex>
					</link>
				</clipitem>
				<transitionitem id="71">
					<rate>
						<ntsc>FALSE</ntsc>
						<timebase>25</timebase>
					</rate>
					<start>28762</start>
					<end>28769</end>
					<alignment>center</alignment>
					<effect>
						<name>Cross Fade ( 0dB)</name>
						<effecttype>transition</effecttype>
						<mediatype>audio</mediatype>
					</effect>
				</transitionitem>
				<clipitem id="Svosj mu 3 17">
					<name>Svosj mu 3</name>
					<duration>1024</duration>
					<rate>
						<ntsc>FALSE</ntsc>
						<timebase>25</timebase>
					</rate>
					<in>920</in>
					<out>947</out>
					<start>-1</start>
					<end>-1</end>
					<enabled>TRUE</enabled>
					<masterclipid>Svosj mu 3 1</masterclipid>
					<logginginfo>
						<scene/>
						<shottake/>
						<lognote/>
						<good>FALSE</good>
					</logginginfo>
					<labels>
						<label2/>
					</labels>
					<comments>
						<mastercomment1/>
						<mastercomment2/>
						<mastercomment3/>
						<mastercomment4/>
					</comments>
					<file id="Svosj mu 3 2"/>
					<filter>
						<effect>
							<name>Audio Levels</name>
							<effectid>audiolevels</effectid>
							<effectcategory>audiolevels</effectcategory>
							<effecttype>audiolevels</effecttype>
							<mediatype>audio</mediatype>
							<parameter>
								<name>Level</name>
								<parameterid>level</parameterid>
								<valuemin>0</valuemin>
								<valuemax>3.98109</valuemax>
								<value>0.501187</value>
							</parameter>
						</effect>
					</filter>
					<filter>
						<effect>
							<name>Audio Pan</name>
							<effectid>audiopan</effectid>
							<effectcategory>audiopan</effectcategory>
							<effecttype>audiopan</effecttype>
							<mediatype>audio</mediatype>
							<parameter>
								<name>Pan</name>
								<parameterid>pan</parameterid>
								<valuemin>-1</valuemin>
								<valuemax>1</valuemax>
								<value>1</value>
							</parameter>
						</effect>
					</filter>
					<sourcetrack>
						<mediatype>audio</mediatype>
						<trackindex>2</trackindex>
					</sourcetrack>
					<link>
						<linkclipref>Svosj mu 3 16</linkclipref>
						<mediatype>audio</mediatype>
						<trackindex>6</trackindex>
						<clipindex>31</clipindex>
						<groupindex>1</groupindex>
					</link>
					<link>
						<linkclipref>Svosj mu 3 17</linkclipref>
						<mediatype>audio</mediatype>
						<trackindex>7</trackindex>
						<clipindex>29</clipindex>
						<groupindex>1</groupindex>
					</link>
				</clipitem>
				<transitionitem id="920763244 ">
					<rate>
						<ntsc>FALSE</ntsc>
						<timebase>25</timebase>
					</rate>
					<start>28783</start>
					<end>28789</end>
					<alignment>end-black</alignment>
					<effect>
						<name>Cross Fade (+3dB)</name>
						<effecttype>transition</effecttype>
						<mediatype>audio</mediatype>
					</effect>
				</transitionitem>
				<clipitem id="AUXMP_RSM010436_HEAVY URBAN.mp3 ">
					<name>AUXMP_RSM010436_HEAVY URBAN.mp3</name>
					<duration>871</duration>
					<rate>
						<ntsc>FALSE</ntsc>
						<timebase>25</timebase>
					</rate>
					<in>0</in>
					<out>97</out>
					<start>31766</start>
					<end>-1</end>
					<masterclipid>AUXMP_RSM010436_HEAVY URBAN.mp3 1</masterclipid>
					<logginginfo>
						<scene/>
						<shottake/>
						<lognote/>
						<good>FALSE</good>
					</logginginfo>
					<labels>
						<label2/>
					</labels>
					<comments>
						<mastercomment1/>
						<mastercomment2/>
						<mastercomment3/>
						<mastercomment4/>
					</comments>
					<file id="AUXMP_RSM010436_HEAVY URBAN">
						<name>AUXMP_RSM010436_HEAVY URBAN.mp3</name>
						<pathurl>file://localhost/SuperSAN1/Prosjekter/MSUB20000012%20FIN%20FREDAG/MUSIKK/Kristine%20VS%20Roekla/auxmp14767_114.zip%20Folder/AUXMP_RSM010436_HEAVY%20URBAN.mp3</pathurl>
						<rate>
							<timebase>25</timebase>
						</rate>
						<duration>871</duration>
						<media>
							<audio>
								<rate>
									<timebase>44100</timebase>
								</rate>
								<trackcount>2</trackcount>
								<samplecharacteristics>
									<depth>32</depth>
								</samplecharacteristics>
							</audio>
						</media>
					</file>
					<filter>
						<effect>
							<name>Audio Levels</name>
							<effectid>audiolevels</effectid>
							<effectcategory>audiolevels</effectcategory>
							<effecttype>audiolevels</effecttype>
							<mediatype>audio</mediatype>
							<parameter>
								<name>Level</name>
								<parameterid>level</parameterid>
								<valuemin>0</valuemin>
								<valuemax>3.98109</valuemax>
								<value>0.316228</value>
							</parameter>
						</effect>
					</filter>
					<filter>
						<effect>
							<name>Audio Pan</name>
							<effectid>audiopan</effectid>
							<effectcategory>audiopan</effectcategory>
							<effecttype>audiopan</effecttype>
							<mediatype>audio</mediatype>
							<parameter>
								<name>Pan</name>
								<parameterid>pan</parameterid>
								<valuemin>-1</valuemin>
								<valuemax>1</valuemax>
								<value>-1</value>
							</parameter>
						</effect>
					</filter>
					<sourcetrack>
						<mediatype>audio</mediatype>
						<trackindex>1</trackindex>
					</sourcetrack>
					<link>
						<linkclipref>AUXMP_RSM010436_HEAVY URBAN.mp3 </linkclipref>
						<mediatype>audio</mediatype>
						<trackindex>7</trackindex>
						<clipindex>31</clipindex>
						<groupindex>1</groupindex>
					</link>
					<link>
						<linkclipref>AUXMP_RSM010436_HEAVY URBAN.mp3 2</linkclipref>
						<mediatype>audio</mediatype>
						<trackindex>8</trackindex>
						<clipindex>25</clipindex>
						<groupindex>1</groupindex>
					</link>
				</clipitem>
				<transitionitem id="72">
					<rate>
						<ntsc>FALSE</ntsc>
						<timebase>25</timebase>
					</rate>
					<start>31857</start>
					<end>31863</end>
					<alignment>end-black</alignment>
					<effect>
						<name>Cross Fade (+3dB) Copy</name>
						<effecttype>transition</effecttype>
						<mediatype>audio</mediatype>
					</effect>
				</transitionitem>
				<transitionitem id="920764536 ">
					<rate>
						<ntsc>FALSE</ntsc>
						<timebase>25</timebase>
					</rate>
					<start>33433</start>
					<end>33439</end>
					<alignment>start-black</alignment>
					<effect>
						<name>Cross Fade (+3dB) Copy</name>
						<effecttype>transition</effecttype>
						<mediatype>audio</mediatype>
					</effect>
				</transitionitem>
				<clipitem id="AUXMP_UBMM213539_EL CLUSH.mp3 7">
					<name>AUXMP_UBMM213539_EL CLUSH.mp3</name>
					<duration>1328</duration>
					<rate>
						<ntsc>FALSE</ntsc>
						<timebase>25</timebase>
					</rate>
					<in>167</in>
					<out>264</out>
					<start>-1</start>
					<end>-1</end>
					<subframeoffset>0</subframeoffset>
					<masterclipid>AUXMP_UBMM213539_EL CLUSH.mp3 1</masterclipid>
					<logginginfo>
						<scene/>
						<shottake/>
						<lognote/>
						<good>FALSE</good>
					</logginginfo>
					<labels>
						<label2/>
					</labels>
					<comments>
						<mastercomment1/>
						<mastercomment2/>
						<mastercomment3/>
						<mastercomment4/>
					</comments>
					<file id="AUXMP_UBMM213539_EL CLUSH"/>
					<filter>
						<effect>
							<name>Audio Levels</name>
							<effectid>audiolevels</effectid>
							<effectcategory>audiolevels</effectcategory>
							<effecttype>audiolevels</effecttype>
							<mediatype>audio</mediatype>
							<parameter>
								<name>Level</name>
								<parameterid>level</parameterid>
								<valuemin>0</valuemin>
								<valuemax>3.98109</valuemax>
								<keyframe>
									<when>169</when>
									<value>0.00141254</value>
								</keyframe>
								<keyframe>
									<when>178.75</when>
									<value>0.199526</value>
								</keyframe>
								<keyframe>
									<when>286</when>
									<value>0.199526</value>
								</keyframe>
								<keyframe>
									<when>341</when>
									<value>0.0501187</value>
								</keyframe>
								<interpolation>
									<name>FCPCurve</name>
								</interpolation>
								<value>0.199526</value>
							</parameter>
						</effect>
					</filter>
					<filter>
						<effect>
							<name>Audio Pan</name>
							<effectid>audiopan</effectid>
							<effectcategory>audiopan</effectcategory>
							<effecttype>audiopan</effecttype>
							<mediatype>audio</mediatype>
							<parameter>
								<name>Pan</name>
								<parameterid>pan</parameterid>
								<valuemin>-1</valuemin>
								<valuemax>1</valuemax>
								<value>-1</value>
							</parameter>
						</effect>
					</filter>
					<sourcetrack>
						<mediatype>audio</mediatype>
						<trackindex>1</trackindex>
					</sourcetrack>
					<link>
						<linkclipref>AUXMP_UBMM213539_EL CLUSH.mp3 7</linkclipref>
						<mediatype>audio</mediatype>
						<trackindex>7</trackindex>
						<clipindex>34</clipindex>
						<groupindex>1</groupindex>
					</link>
					<link>
						<linkclipref>AUXMP_UBMM213539_EL CLUSH.mp3 8</linkclipref>
						<mediatype>audio</mediatype>
						<trackindex>8</trackindex>
						<clipindex>28</clipindex>
						<groupindex>1</groupindex>
					</link>
					<filter>
						<effect>
							<name>Time Remap</name>
							<effectid>timeremap</effectid>
							<effectcategory>motion</effectcategory>
							<effecttype>motion</effecttype>
							<mediatype>audio</mediatype>
							<parameter>
								<parameterid>variablespeed</parameterid>
								<name>variablespeed</name>
								<valuemin>0</valuemin>
								<valuemax>1</valuemax>
								<value>0</value>
							</parameter>
							<parameter>
								<parameterid>mappedduration</parameterid>
								<name>mappedduration</name>
								<value>
									<timecode>
										<rate>
											<timebase>0</timebase>
										</rate>
										<string>0</string>
										<frame>0</frame>
										<displayformat>NDF</displayformat>
									</timecode>
								</value>
							</parameter>
							<parameter>
								<parameterid>speed</parameterid>
								<name>speed</name>
								<valuemin>-10000</valuemin>
								<valuemax>10000</valuemax>
								<value>59</value>
							</parameter>
							<parameter>
								<parameterid>reverse</parameterid>
								<name>reverse</name>
								<value>FALSE</value>
							</parameter>
							<parameter>
								<parameterid>frameblending</parameterid>
								<name>frameblending</name>
								<value>TRUE</value>
							</parameter>
							<parameter>
								<parameterid>graphdict</parameterid>
								<name>graphdict</name>
								<valuemin>0</valuemin>
								<valuemax>796</valuemax>
								<keyframe>
									<when>0</when>
									<value>0.425</value>
									<speedkfstart>TRUE</speedkfstart>
									<speedvirtualkf>TRUE</speedvirtualkf>
								</keyframe>
								<keyframe>
									<when>167</when>
									<value>100.6</value>
									<speedkfin>TRUE</speedkfin>
									<speedvirtualkf>TRUE</speedvirtualkf>
								</keyframe>
								<keyframe>
									<when>264</when>
									<value>158.785</value>
									<speedkfout>TRUE</speedkfout>
									<speedvirtualkf>TRUE</speedvirtualkf>
								</keyframe>
								<keyframe>
									<when>1328</when>
									<value>797.425</value>
									<speedkfend>TRUE</speedkfend>
									<speedvirtualkf>TRUE</speedvirtualkf>
								</keyframe>
								<interpolation>
									<name>FCPCurve</name>
								</interpolation>
								<value>100.6</value>
							</parameter>
						</effect>
					</filter>
				</clipitem>
				<transitionitem id="920765624 ">
					<rate>
						<ntsc>FALSE</ntsc>
						<timebase>25</timebase>
					</rate>
					<start>33524</start>
					<end>33530</end>
					<alignment>end-black</alignment>
					<effect>
						<name>Cross Fade (+3dB) Copy</name>
						<effecttype>transition</effecttype>
						<mediatype>audio</mediatype>
					</effect>
				</transitionitem>
				<clipitem id="AUXMP_UBMM213539_EL CLUSH.mp3 9">
					<name>AUXMP_UBMM213539_EL CLUSH.mp3</name>
					<duration>797</duration>
					<rate>
						<ntsc>FALSE</ntsc>
						<timebase>25</timebase>
					</rate>
					<in>19</in>
					<out>797</out>
					<start>33708</start>
					<end>34486</end>
					<subframeoffset>0</subframeoffset>
					<masterclipid>AUXMP_UBMM213539_EL CLUSH.mp3 1</masterclipid>
					<logginginfo>
						<scene/>
						<shottake/>
						<lognote/>
						<good>FALSE</good>
					</logginginfo>
					<labels>
						<label2/>
					</labels>
					<comments>
						<mastercomment1/>
						<mastercomment2/>
						<mastercomment3/>
						<mastercomment4/>
					</comments>
					<file id="AUXMP_UBMM213539_EL CLUSH"/>
					<filter>
						<effect>
							<name>Audio Levels</name>
							<effectid>audiolevels</effectid>
							<effectcategory>audiolevels</effectcategory>
							<effecttype>audiolevels</effecttype>
							<mediatype>audio</mediatype>
							<parameter>
								<name>Level</name>
								<parameterid>level</parameterid>
								<valuemin>0</valuemin>
								<valuemax>3.98109</valuemax>
								<keyframe>
									<when>33.1429</when>
									<value>0.251189</value>
								</keyframe>
								<keyframe>
									<when>44.2857</when>
									<value>0.158489</value>
								</keyframe>
								<keyframe>
									<when>54.5714</when>
									<value>0.158489</value>
								</keyframe>
								<keyframe>
									<when>64</when>
									<value>0.199526</value>
								</keyframe>
								<keyframe>
									<when>307.339</when>
									<value>0.199526</value>
								</keyframe>
								<keyframe>
									<when>327.83</when>
									<value>0.158489</value>
								</keyframe>
								<keyframe>
									<when>338.304</when>
									<value>0.177828</value>
								</keyframe>
								<keyframe>
									<when>346.045</when>
									<value>0.199526</value>
								</keyframe>
								<keyframe>
									<when>419.812</when>
									<value>0.199526</value>
								</keyframe>
								<keyframe>
									<when>444.857</when>
									<value>0.141254</value>
								</keyframe>
								<keyframe>
									<when>492</when>
									<value>0.0630957</value>
								</keyframe>
								<keyframe>
									<when>529.286</when>
									<value>0.0630957</value>
								</keyframe>
								<keyframe>
									<when>536.143</when>
									<value>0.158489</value>
								</keyframe>
								<keyframe>
									<when>648</when>
									<value>0.141254</value>
								</keyframe>
								<keyframe>
									<when>663</when>
									<value>0.158489</value>
								</keyframe>
								<interpolation>
									<name>FCPCurve</name>
								</interpolation>
								<value>0.251189</value>
							</parameter>
						</effect>
					</filter>
					<filter>
						<effect>
							<name>Audio Pan</name>
							<effectid>audiopan</effectid>
							<effectcategory>audiopan</effectcategory>
							<effecttype>audiopan</effecttype>
							<mediatype>audio</mediatype>
							<parameter>
								<name>Pan</name>
								<parameterid>pan</parameterid>
								<valuemin>-1</valuemin>
								<valuemax>1</valuemax>
								<value>-1</value>
							</parameter>
						</effect>
					</filter>
					<sourcetrack>
						<mediatype>audio</mediatype>
						<trackindex>1</trackindex>
					</sourcetrack>
					<link>
						<linkclipref>AUXMP_UBMM213539_EL CLUSH.mp3 9</linkclipref>
						<mediatype>audio</mediatype>
						<trackindex>7</trackindex>
						<clipindex>36</clipindex>
						<groupindex>1</groupindex>
					</link>
					<link>
						<linkclipref>AUXMP_UBMM213539_EL CLUSH.mp3 10</linkclipref>
						<mediatype>audio</mediatype>
						<trackindex>8</trackindex>
						<clipindex>30</clipindex>
						<groupindex>1</groupindex>
					</link>
				</clipitem>
				<clipitem id="AUXMP_RSM010437_HEAVY URBAN STING.mp3 7">
					<name>AUXMP_RSM010437_HEAVY URBAN STING.mp3</name>
					<duration>396</duration>
					<rate>
						<ntsc>FALSE</ntsc>
						<timebase>25</timebase>
					</rate>
					<in>212</in>
					<out>396</out>
					<start>34614</start>
					<end>34798</end>
					<subframeoffset>0</subframeoffset>
					<masterclipid>AUXMP_RSM010437_HEAVY URBAN STING.mp3 1</masterclipid>
					<logginginfo>
						<scene/>
						<shottake/>
						<lognote/>
						<good>FALSE</good>
					</logginginfo>
					<labels>
						<label2/>
					</labels>
					<comments>
						<mastercomment1/>
						<mastercomment2/>
						<mastercomment3/>
						<mastercomment4/>
					</comments>
					<file id="AUXMP_RSM010437_HEAVY URBAN STING"/>
					<filter>
						<effect>
							<name>Audio Levels</name>
							<effectid>audiolevels</effectid>
							<effectcategory>audiolevels</effectcategory>
							<effecttype>audiolevels</effecttype>
							<mediatype>audio</mediatype>
							<parameter>
								<name>Level</name>
								<parameterid>level</parameterid>
								<valuemin>0</valuemin>
								<valuemax>3.98109</valuemax>
								<value>0.251189</value>
							</parameter>
						</effect>
					</filter>
					<filter>
						<effect>
							<name>Audio Pan</name>
							<effectid>audiopan</effectid>
							<effectcategory>audiopan</effectcategory>
							<effecttype>audiopan</effecttype>
							<mediatype>audio</mediatype>
							<parameter>
								<name>Pan</name>
								<parameterid>pan</parameterid>
								<valuemin>-1</valuemin>
								<valuemax>1</valuemax>
								<value>-1</value>
							</parameter>
						</effect>
					</filter>
					<sourcetrack>
						<mediatype>audio</mediatype>
						<trackindex>1</trackindex>
					</sourcetrack>
					<link>
						<linkclipref>AUXMP_RSM010437_HEAVY URBAN STING.mp3 7</linkclipref>
						<mediatype>audio</mediatype>
						<trackindex>7</trackindex>
						<clipindex>37</clipindex>
						<groupindex>1</groupindex>
					</link>
					<link>
						<linkclipref>AUXMP_RSM010437_HEAVY URBAN STING.mp3 8</linkclipref>
						<mediatype>audio</mediatype>
						<trackindex>8</trackindex>
						<clipindex>31</clipindex>
						<groupindex>1</groupindex>
					</link>
				</clipitem>
				<clipitem id="AUXMP_SCDV028131_SKIP AND HOP B.mp3 3">
					<name>AUXMP_SCDV028131_SKIP AND HOP B.mp3</name>
					<duration>878</duration>
					<rate>
						<ntsc>FALSE</ntsc>
						<timebase>25</timebase>
					</rate>
					<in>707</in>
					<out>878</out>
					<start>36058</start>
					<end>36229</end>
					<masterclipid>AUXMP_SCDV028131_SKIP AND HOP B.mp3 1</masterclipid>
					<logginginfo>
						<scene/>
						<shottake/>
						<lognote/>
						<good>FALSE</good>
					</logginginfo>
					<labels>
						<label2/>
					</labels>
					<comments>
						<mastercomment1/>
						<mastercomment2/>
						<mastercomment3/>
						<mastercomment4/>
					</comments>
					<file id="AUXMP_SCDV028131_SKIP AND HOP B"/>
					<filter>
						<effect>
							<name>Audio Levels</name>
							<effectid>audiolevels</effectid>
							<effectcategory>audiolevels</effectcategory>
							<effecttype>audiolevels</effecttype>
							<mediatype>audio</mediatype>
							<parameter>
								<name>Level</name>
								<parameterid>level</parameterid>
								<valuemin>0</valuemin>
								<valuemax>3.98109</valuemax>
								<value>1</value>
							</parameter>
						</effect>
					</filter>
					<filter>
						<effect>
							<name>Audio Pan</name>
							<effectid>audiopan</effectid>
							<effectcategory>audiopan</effectcategory>
							<effecttype>audiopan</effecttype>
							<mediatype>audio</mediatype>
							<parameter>
								<name>Pan</name>
								<parameterid>pan</parameterid>
								<valuemin>-1</valuemin>
								<valuemax>1</valuemax>
								<value>-1</value>
							</parameter>
						</effect>
					</filter>
					<sourcetrack>
						<mediatype>audio</mediatype>
						<trackindex>1</trackindex>
					</sourcetrack>
					<link>
						<linkclipref>AUXMP_SCDV028131_SKIP AND HOP B.mp3 3</linkclipref>
						<mediatype>audio</mediatype>
						<trackindex>7</trackindex>
						<clipindex>38</clipindex>
						<groupindex>1</groupindex>
					</link>
					<link>
						<linkclipref>AUXMP_SCDV028131_SKIP AND HOP B.mp3 4</linkclipref>
						<mediatype>audio</mediatype>
						<trackindex>8</trackindex>
						<clipindex>32</clipindex>
						<groupindex>1</groupindex>
					</link>
				</clipitem>
				<enabled>TRUE</enabled>
				<locked>FALSE</locked>
				<outputchannelindex>2</outputchannelindex>
			</track>
			<track>
				<transitionitem id="920768888 ">
					<rate>
						<ntsc>FALSE</ntsc>
						<timebase>25</timebase>
					</rate>
					<start>1287</start>
					<end>1293</end>
					<alignment>center</alignment>
					<effect>
						<name>Cross Fade (+3dB) Copy</name>
						<effecttype>transition</effecttype>
						<mediatype>audio</mediatype>
					</effect>
				</transitionitem>
				<clipitem id="Fin Fredag Vignett - NY4">
					<name>Fin Fredag Vignett - NY</name>
					<duration>1590</duration>
					<rate>
						<ntsc>FALSE</ntsc>
						<timebase>25</timebase>
					</rate>
					<in>1442</in>
					<out>1580</out>
					<start>-1</start>
					<end>1425</end>
					<subframeoffset>0</subframeoffset>
					<masterclipid>Fin Fredag Vignett - NY1</masterclipid>
					<logginginfo>
						<scene/>
						<shottake/>
						<lognote/>
						<good>FALSE</good>
					</logginginfo>
					<labels>
						<label2/>
					</labels>
					<comments>
						<mastercomment1/>
						<mastercomment2/>
						<mastercomment3/>
						<mastercomment4/>
					</comments>
					<file id="Fin Fredag Vignett - NY2"/>
					<filter>
						<effect>
							<name>Audio Levels</name>
							<effectid>audiolevels</effectid>
							<effectcategory>audiolevels</effectcategory>
							<effecttype>audiolevels</effecttype>
							<mediatype>audio</mediatype>
							<parameter>
								<name>Level</name>
								<parameterid>level</parameterid>
								<valuemin>0</valuemin>
								<valuemax>3.98109</valuemax>
								<value>0.501187</value>
							</parameter>
						</effect>
					</filter>
					<filter>
						<effect>
							<name>Audio Pan</name>
							<effectid>audiopan</effectid>
							<effectcategory>audiopan</effectcategory>
							<effecttype>audiopan</effecttype>
							<mediatype>audio</mediatype>
							<parameter>
								<name>Pan</name>
								<parameterid>pan</parameterid>
								<valuemin>-1</valuemin>
								<valuemax>1</valuemax>
								<value>-1</value>
							</parameter>
						</effect>
					</filter>
					<sourcetrack>
						<mediatype>audio</mediatype>
						<trackindex>1</trackindex>
					</sourcetrack>
					<link>
						<linkclipref>Fin Fredag Vignett - NY4</linkclipref>
						<mediatype>audio</mediatype>
						<trackindex>8</trackindex>
						<clipindex>2</clipindex>
						<groupindex>1</groupindex>
					</link>
					<link>
						<linkclipref>Fin Fredag Vignett - NY5</linkclipref>
						<mediatype>audio</mediatype>
						<trackindex>9</trackindex>
						<clipindex>2</clipindex>
						<groupindex>1</groupindex>
					</link>
				</clipitem>
				<clipitem id="Svosj mu 3 19">
					<name>Svosj mu 3</name>
					<duration>1024</duration>
					<rate>
						<ntsc>FALSE</ntsc>
						<timebase>25</timebase>
					</rate>
					<in>0</in>
					<out>23</out>
					<start>2516</start>
					<end>-1</end>
					<enabled>TRUE</enabled>
					<masterclipid>Svosj mu 3 1</masterclipid>
					<logginginfo>
						<scene/>
						<shottake/>
						<lognote/>
						<good>FALSE</good>
					</logginginfo>
					<labels>
						<label2/>
					</labels>
					<comments>
						<mastercomment1/>
						<mastercomment2/>
						<mastercomment3/>
						<mastercomment4/>
					</comments>
					<file id="Svosj mu 3 2"/>
					<filter>
						<effect>
							<name>Audio Levels</name>
							<effectid>audiolevels</effectid>
							<effectcategory>audiolevels</effectcategory>
							<effecttype>audiolevels</effecttype>
							<mediatype>audio</mediatype>
							<parameter>
								<name>Level</name>
								<parameterid>level</parameterid>
								<valuemin>0</valuemin>
								<valuemax>3.98109</valuemax>
								<value>0.281838</value>
							</parameter>
						</effect>
					</filter>
					<filter>
						<effect>
							<name>Audio Pan</name>
							<effectid>audiopan</effectid>
							<effectcategory>audiopan</effectcategory>
							<effecttype>audiopan</effecttype>
							<mediatype>audio</mediatype>
							<parameter>
								<name>Pan</name>
								<parameterid>pan</parameterid>
								<valuemin>-1</valuemin>
								<valuemax>1</valuemax>
								<value>1</value>
							</parameter>
						</effect>
					</filter>
					<sourcetrack>
						<mediatype>audio</mediatype>
						<trackindex>2</trackindex>
					</sourcetrack>
					<link>
						<linkclipref>Svosj mu 3 18</linkclipref>
						<mediatype>audio</mediatype>
						<trackindex>7</trackindex>
						<clipindex>3</clipindex>
						<groupindex>1</groupindex>
					</link>
					<link>
						<linkclipref>Svosj mu 3 19</linkclipref>
						<mediatype>audio</mediatype>
						<trackindex>8</trackindex>
						<clipindex>3</clipindex>
						<groupindex>1</groupindex>
					</link>
				</clipitem>
				<transitionitem id="73">
					<rate>
						<ntsc>FALSE</ntsc>
						<timebase>25</timebase>
					</rate>
					<start>2532</start>
					<end>2539</end>
					<alignment>center</alignment>
					<effect>
						<name>Cross Fade ( 0dB)</name>
						<effecttype>transition</effecttype>
						<mediatype>audio</mediatype>
					</effect>
				</transitionitem>
				<clipitem id="Svosj mu 3 21">
					<name>Svosj mu 3</name>
					<duration>1024</duration>
					<rate>
						<ntsc>FALSE</ntsc>
						<timebase>25</timebase>
					</rate>
					<in>920</in>
					<out>974</out>
					<start>-1</start>
					<end>2586</end>
					<enabled>TRUE</enabled>
					<masterclipid>Svosj mu 3 1</masterclipid>
					<logginginfo>
						<scene/>
						<shottake/>
						<lognote/>
						<good>FALSE</good>
					</logginginfo>
					<labels>
						<label2/>
					</labels>
					<comments>
						<mastercomment1/>
						<mastercomment2/>
						<mastercomment3/>
						<mastercomment4/>
					</comments>
					<file id="Svosj mu 3 2"/>
					<filter>
						<effect>
							<name>Audio Levels</name>
							<effectid>audiolevels</effectid>
							<effectcategory>audiolevels</effectcategory>
							<effecttype>audiolevels</effecttype>
							<mediatype>audio</mediatype>
							<parameter>
								<name>Level</name>
								<parameterid>level</parameterid>
								<valuemin>0</valuemin>
								<valuemax>3.98109</valuemax>
								<value>0.281838</value>
							</parameter>
						</effect>
					</filter>
					<filter>
						<effect>
							<name>Audio Pan</name>
							<effectid>audiopan</effectid>
							<effectcategory>audiopan</effectcategory>
							<effecttype>audiopan</effecttype>
							<mediatype>audio</mediatype>
							<parameter>
								<name>Pan</name>
								<parameterid>pan</parameterid>
								<valuemin>-1</valuemin>
								<valuemax>1</valuemax>
								<value>1</value>
							</parameter>
						</effect>
					</filter>
					<sourcetrack>
						<mediatype>audio</mediatype>
						<trackindex>2</trackindex>
					</sourcetrack>
					<link>
						<linkclipref>Svosj mu 3 20</linkclipref>
						<mediatype>audio</mediatype>
						<trackindex>7</trackindex>
						<clipindex>5</clipindex>
						<groupindex>1</groupindex>
					</link>
					<link>
						<linkclipref>Svosj mu 3 21</linkclipref>
						<mediatype>audio</mediatype>
						<trackindex>8</trackindex>
						<clipindex>5</clipindex>
						<groupindex>1</groupindex>
					</link>
				</clipitem>
				<clipitem id="Svosj mu 3 23">
					<name>Svosj mu 3</name>
					<duration>1024</duration>
					<rate>
						<ntsc>FALSE</ntsc>
						<timebase>25</timebase>
					</rate>
					<in>0</in>
					<out>23</out>
					<start>3114</start>
					<end>-1</end>
					<enabled>TRUE</enabled>
					<masterclipid>Svosj mu 3 1</masterclipid>
					<logginginfo>
						<scene/>
						<shottake/>
						<lognote/>
						<good>FALSE</good>
					</logginginfo>
					<labels>
						<label2/>
					</labels>
					<comments>
						<mastercomment1/>
						<mastercomment2/>
						<mastercomment3/>
						<mastercomment4/>
					</comments>
					<file id="Svosj mu 3 2"/>
					<filter>
						<effect>
							<name>Audio Levels</name>
							<effectid>audiolevels</effectid>
							<effectcategory>audiolevels</effectcategory>
							<effecttype>audiolevels</effecttype>
							<mediatype>audio</mediatype>
							<parameter>
								<name>Level</name>
								<parameterid>level</parameterid>
								<valuemin>0</valuemin>
								<valuemax>3.98109</valuemax>
								<value>0.316228</value>
							</parameter>
						</effect>
					</filter>
					<filter>
						<effect>
							<name>Audio Pan</name>
							<effectid>audiopan</effectid>
							<effectcategory>audiopan</effectcategory>
							<effecttype>audiopan</effecttype>
							<mediatype>audio</mediatype>
							<parameter>
								<name>Pan</name>
								<parameterid>pan</parameterid>
								<valuemin>-1</valuemin>
								<valuemax>1</valuemax>
								<value>1</value>
							</parameter>
						</effect>
					</filter>
					<sourcetrack>
						<mediatype>audio</mediatype>
						<trackindex>2</trackindex>
					</sourcetrack>
					<link>
						<linkclipref>Svosj mu 3 22</linkclipref>
						<mediatype>audio</mediatype>
						<trackindex>7</trackindex>
						<clipindex>6</clipindex>
						<groupindex>1</groupindex>
					</link>
					<link>
						<linkclipref>Svosj mu 3 23</linkclipref>
						<mediatype>audio</mediatype>
						<trackindex>8</trackindex>
						<clipindex>6</clipindex>
						<groupindex>1</groupindex>
					</link>
				</clipitem>
				<transitionitem id="74">
					<rate>
						<ntsc>FALSE</ntsc>
						<timebase>25</timebase>
					</rate>
					<start>3130</start>
					<end>3137</end>
					<alignment>center</alignment>
					<effect>
						<name>Cross Fade ( 0dB)</name>
						<effecttype>transition</effecttype>
						<mediatype>audio</mediatype>
					</effect>
				</transitionitem>
				<clipitem id="Svosj mu 3 25">
					<name>Svosj mu 3</name>
					<duration>1024</duration>
					<rate>
						<ntsc>FALSE</ntsc>
						<timebase>25</timebase>
					</rate>
					<in>920</in>
					<out>974</out>
					<start>-1</start>
					<end>3184</end>
					<enabled>TRUE</enabled>
					<masterclipid>Svosj mu 3 1</masterclipid>
					<logginginfo>
						<scene/>
						<shottake/>
						<lognote/>
						<good>FALSE</good>
					</logginginfo>
					<labels>
						<label2/>
					</labels>
					<comments>
						<mastercomment1/>
						<mastercomment2/>
						<mastercomment3/>
						<mastercomment4/>
					</comments>
					<file id="Svosj mu 3 2"/>
					<filter>
						<effect>
							<name>Audio Levels</name>
							<effectid>audiolevels</effectid>
							<effectcategory>audiolevels</effectcategory>
							<effecttype>audiolevels</effecttype>
							<mediatype>audio</mediatype>
							<parameter>
								<name>Level</name>
								<parameterid>level</parameterid>
								<valuemin>0</valuemin>
								<valuemax>3.98109</valuemax>
								<value>0.316228</value>
							</parameter>
						</effect>
					</filter>
					<filter>
						<effect>
							<name>Audio Pan</name>
							<effectid>audiopan</effectid>
							<effectcategory>audiopan</effectcategory>
							<effecttype>audiopan</effecttype>
							<mediatype>audio</mediatype>
							<parameter>
								<name>Pan</name>
								<parameterid>pan</parameterid>
								<valuemin>-1</valuemin>
								<valuemax>1</valuemax>
								<value>1</value>
							</parameter>
						</effect>
					</filter>
					<sourcetrack>
						<mediatype>audio</mediatype>
						<trackindex>2</trackindex>
					</sourcetrack>
					<link>
						<linkclipref>Svosj mu 3 24</linkclipref>
						<mediatype>audio</mediatype>
						<trackindex>7</trackindex>
						<clipindex>8</clipindex>
						<groupindex>1</groupindex>
					</link>
					<link>
						<linkclipref>Svosj mu 3 25</linkclipref>
						<mediatype>audio</mediatype>
						<trackindex>8</trackindex>
						<clipindex>8</clipindex>
						<groupindex>1</groupindex>
					</link>
				</clipitem>
				<transitionitem id="920771404 ">
					<rate>
						<ntsc>FALSE</ntsc>
						<timebase>25</timebase>
					</rate>
					<start>5554</start>
					<end>5566</end>
					<alignment>start-black</alignment>
					<effect>
						<name>Cross Fade (+3dB)</name>
						<effecttype>transition</effecttype>
						<mediatype>audio</mediatype>
					</effect>
				</transitionitem>
				<clipitem id="Fin Fredag PIMPBUMP 8.wav4">
					<name>Fin Fredag PIMPBUMP 8.wav</name>
					<duration>259</duration>
					<rate>
						<ntsc>FALSE</ntsc>
						<timebase>25</timebase>
					</rate>
					<in>123</in>
					<out>197</out>
					<start>-1</start>
					<end>-1</end>
					<subframeoffset>0</subframeoffset>
					<masterclipid>Fin Fredag PIMPBUMP 8.wav1</masterclipid>
					<logginginfo>
						<scene/>
						<shottake/>
						<lognote/>
						<good>FALSE</good>
					</logginginfo>
					<labels>
						<label2/>
					</labels>
					<comments>
						<mastercomment1/>
						<mastercomment2/>
						<mastercomment3/>
						<mastercomment4/>
					</comments>
					<file id="Fin Fredag PIMPBUMP 8 "/>
					<filter>
						<effect>
							<name>Audio Levels</name>
							<effectid>audiolevels</effectid>
							<effectcategory>audiolevels</effectcategory>
							<effecttype>audiolevels</effecttype>
							<mediatype>audio</mediatype>
							<parameter>
								<name>Level</name>
								<parameterid>level</parameterid>
								<valuemin>0</valuemin>
								<valuemax>3.98109</valuemax>
								<keyframe>
									<when>152.75</when>
									<value>0.562341</value>
								</keyframe>
								<keyframe>
									<when>187.571</when>
									<value>0.141254</value>
								</keyframe>
								<interpolation>
									<name>FCPCurve</name>
								</interpolation>
								<value>0.501891</value>
							</parameter>
						</effect>
					</filter>
					<filter>
						<effect>
							<name>Audio Pan</name>
							<effectid>audiopan</effectid>
							<effectcategory>audiopan</effectcategory>
							<effecttype>audiopan</effecttype>
							<mediatype>audio</mediatype>
							<parameter>
								<name>Pan</name>
								<parameterid>pan</parameterid>
								<valuemin>-1</valuemin>
								<valuemax>1</valuemax>
								<value>1</value>
							</parameter>
						</effect>
					</filter>
					<sourcetrack>
						<mediatype>audio</mediatype>
						<trackindex>2</trackindex>
					</sourcetrack>
					<link>
						<linkclipref>Fin Fredag PIMPBUMP 8.wav3</linkclipref>
						<mediatype>audio</mediatype>
						<trackindex>7</trackindex>
						<clipindex>12</clipindex>
						<groupindex>1</groupindex>
					</link>
					<link>
						<linkclipref>Fin Fredag PIMPBUMP 8.wav4</linkclipref>
						<mediatype>audio</mediatype>
						<trackindex>8</trackindex>
						<clipindex>10</clipindex>
						<groupindex>1</groupindex>
					</link>
				</clipitem>
				<transitionitem id="920772084 ">
					<rate>
						<ntsc>FALSE</ntsc>
						<timebase>25</timebase>
					</rate>
					<start>5616</start>
					<end>5628</end>
					<alignment>center</alignment>
					<effect>
						<name>Cross Fade (+3dB)</name>
						<effecttype>transition</effecttype>
						<mediatype>audio</mediatype>
					</effect>
				</transitionitem>
				<clipitem id="Svosj mu 3 26">
					<name>Svosj mu 3</name>
					<duration>1024</duration>
					<rate>
						<ntsc>FALSE</ntsc>
						<timebase>25</timebase>
					</rate>
					<in>0</in>
					<out>23</out>
					<start>21681</start>
					<end>-1</end>
					<enabled>TRUE</enabled>
					<masterclipid>Svosj mu 3 1</masterclipid>
					<logginginfo>
						<scene/>
						<shottake/>
						<lognote/>
						<good>FALSE</good>
					</logginginfo>
					<labels>
						<label2/>
					</labels>
					<comments>
						<mastercomment1/>
						<mastercomment2/>
						<mastercomment3/>
						<mastercomment4/>
					</comments>
					<file id="Svosj mu 3 2"/>
					<filter>
						<effect>
							<name>Audio Levels</name>
							<effectid>audiolevels</effectid>
							<effectcategory>audiolevels</effectcategory>
							<effecttype>audiolevels</effecttype>
							<mediatype>audio</mediatype>
							<parameter>
								<name>Level</name>
								<parameterid>level</parameterid>
								<valuemin>0</valuemin>
								<valuemax>3.98109</valuemax>
								<value>0.251189</value>
							</parameter>
						</effect>
					</filter>
					<filter>
						<effect>
							<name>Audio Pan</name>
							<effectid>audiopan</effectid>
							<effectcategory>audiopan</effectcategory>
							<effecttype>audiopan</effecttype>
							<mediatype>audio</mediatype>
							<parameter>
								<name>Pan</name>
								<parameterid>pan</parameterid>
								<valuemin>-1</valuemin>
								<valuemax>1</valuemax>
								<value>-1</value>
							</parameter>
						</effect>
					</filter>
					<sourcetrack>
						<mediatype>audio</mediatype>
						<trackindex>1</trackindex>
					</sourcetrack>
					<link>
						<linkclipref>Svosj mu 3 26</linkclipref>
						<mediatype>audio</mediatype>
						<trackindex>8</trackindex>
						<clipindex>12</clipindex>
						<groupindex>1</groupindex>
					</link>
					<link>
						<linkclipref>Svosj mu 3 27</linkclipref>
						<mediatype>audio</mediatype>
						<trackindex>9</trackindex>
						<clipindex>3</clipindex>
						<groupindex>1</groupindex>
					</link>
				</clipitem>
				<transitionitem id="75">
					<rate>
						<ntsc>FALSE</ntsc>
						<timebase>25</timebase>
					</rate>
					<start>21697</start>
					<end>21704</end>
					<alignment>center</alignment>
					<effect>
						<name>Cross Fade ( 0dB)</name>
						<effecttype>transition</effecttype>
						<mediatype>audio</mediatype>
					</effect>
				</transitionitem>
				<clipitem id="Svosj mu 3 28">
					<name>Svosj mu 3</name>
					<duration>1024</duration>
					<rate>
						<ntsc>FALSE</ntsc>
						<timebase>25</timebase>
					</rate>
					<in>920</in>
					<out>978</out>
					<start>-1</start>
					<end>21755</end>
					<enabled>TRUE</enabled>
					<masterclipid>Svosj mu 3 1</masterclipid>
					<logginginfo>
						<scene/>
						<shottake/>
						<lognote/>
						<good>FALSE</good>
					</logginginfo>
					<labels>
						<label2/>
					</labels>
					<comments>
						<mastercomment1/>
						<mastercomment2/>
						<mastercomment3/>
						<mastercomment4/>
					</comments>
					<file id="Svosj mu 3 2"/>
					<filter>
						<effect>
							<name>Audio Levels</name>
							<effectid>audiolevels</effectid>
							<effectcategory>audiolevels</effectcategory>
							<effecttype>audiolevels</effecttype>
							<mediatype>audio</mediatype>
							<parameter>
								<name>Level</name>
								<parameterid>level</parameterid>
								<valuemin>0</valuemin>
								<valuemax>3.98109</valuemax>
								<value>0.316228</value>
							</parameter>
						</effect>
					</filter>
					<filter>
						<effect>
							<name>Audio Pan</name>
							<effectid>audiopan</effectid>
							<effectcategory>audiopan</effectcategory>
							<effecttype>audiopan</effecttype>
							<mediatype>audio</mediatype>
							<parameter>
								<name>Pan</name>
								<parameterid>pan</parameterid>
								<valuemin>-1</valuemin>
								<valuemax>1</valuemax>
								<value>-1</value>
							</parameter>
						</effect>
					</filter>
					<sourcetrack>
						<mediatype>audio</mediatype>
						<trackindex>1</trackindex>
					</sourcetrack>
					<link>
						<linkclipref>Svosj mu 3 28</linkclipref>
						<mediatype>audio</mediatype>
						<trackindex>8</trackindex>
						<clipindex>14</clipindex>
						<groupindex>1</groupindex>
					</link>
					<link>
						<linkclipref>Svosj mu 3 29</linkclipref>
						<mediatype>audio</mediatype>
						<trackindex>9</trackindex>
						<clipindex>5</clipindex>
						<groupindex>1</groupindex>
					</link>
				</clipitem>
				<clipitem id="Svosj mu 3 30">
					<name>Svosj mu 3</name>
					<duration>1024</duration>
					<rate>
						<ntsc>FALSE</ntsc>
						<timebase>25</timebase>
					</rate>
					<in>0</in>
					<out>23</out>
					<start>22591</start>
					<end>-1</end>
					<masterclipid>Svosj mu 3 1</masterclipid>
					<logginginfo>
						<scene/>
						<shottake/>
						<lognote/>
						<good>FALSE</good>
					</logginginfo>
					<labels>
						<label2/>
					</labels>
					<comments>
						<mastercomment1/>
						<mastercomment2/>
						<mastercomment3/>
						<mastercomment4/>
					</comments>
					<file id="Svosj mu 3 2"/>
					<filter>
						<effect>
							<name>Audio Levels</name>
							<effectid>audiolevels</effectid>
							<effectcategory>audiolevels</effectcategory>
							<effecttype>audiolevels</effecttype>
							<mediatype>audio</mediatype>
							<parameter>
								<name>Level</name>
								<parameterid>level</parameterid>
								<valuemin>0</valuemin>
								<valuemax>3.98109</valuemax>
								<value>0.630957</value>
							</parameter>
						</effect>
					</filter>
					<filter>
						<effect>
							<name>Audio Pan</name>
							<effectid>audiopan</effectid>
							<effectcategory>audiopan</effectcategory>
							<effecttype>audiopan</effecttype>
							<mediatype>audio</mediatype>
							<parameter>
								<name>Pan</name>
								<parameterid>pan</parameterid>
								<valuemin>-1</valuemin>
								<valuemax>1</valuemax>
								<value>-1</value>
							</parameter>
						</effect>
					</filter>
					<sourcetrack>
						<mediatype>audio</mediatype>
						<trackindex>1</trackindex>
					</sourcetrack>
					<link>
						<linkclipref>Svosj mu 3 30</linkclipref>
						<mediatype>audio</mediatype>
						<trackindex>8</trackindex>
						<clipindex>15</clipindex>
						<groupindex>1</groupindex>
					</link>
					<link>
						<linkclipref>Svosj mu 3 31</linkclipref>
						<mediatype>audio</mediatype>
						<trackindex>9</trackindex>
						<clipindex>6</clipindex>
						<groupindex>1</groupindex>
					</link>
				</clipitem>
				<transitionitem id="76">
					<rate>
						<ntsc>FALSE</ntsc>
						<timebase>25</timebase>
					</rate>
					<start>22607</start>
					<end>22614</end>
					<alignment>center</alignment>
					<effect>
						<name>Cross Fade ( 0dB)</name>
						<effecttype>transition</effecttype>
						<mediatype>audio</mediatype>
					</effect>
				</transitionitem>
				<clipitem id="Svosj mu 3 32">
					<name>Svosj mu 3</name>
					<duration>1024</duration>
					<rate>
						<ntsc>FALSE</ntsc>
						<timebase>25</timebase>
					</rate>
					<in>920</in>
					<out>974</out>
					<start>-1</start>
					<end>22661</end>
					<masterclipid>Svosj mu 3 1</masterclipid>
					<logginginfo>
						<scene/>
						<shottake/>
						<lognote/>
						<good>FALSE</good>
					</logginginfo>
					<labels>
						<label2/>
					</labels>
					<comments>
						<mastercomment1/>
						<mastercomment2/>
						<mastercomment3/>
						<mastercomment4/>
					</comments>
					<file id="Svosj mu 3 2"/>
					<filter>
						<effect>
							<name>Audio Levels</name>
							<effectid>audiolevels</effectid>
							<effectcategory>audiolevels</effectcategory>
							<effecttype>audiolevels</effecttype>
							<mediatype>audio</mediatype>
							<parameter>
								<name>Level</name>
								<parameterid>level</parameterid>
								<valuemin>0</valuemin>
								<valuemax>3.98109</valuemax>
								<value>0.794328</value>
							</parameter>
						</effect>
					</filter>
					<filter>
						<effect>
							<name>Audio Pan</name>
							<effectid>audiopan</effectid>
							<effectcategory>audiopan</effectcategory>
							<effecttype>audiopan</effecttype>
							<mediatype>audio</mediatype>
							<parameter>
								<name>Pan</name>
								<parameterid>pan</parameterid>
								<valuemin>-1</valuemin>
								<valuemax>1</valuemax>
								<value>-1</value>
							</parameter>
						</effect>
					</filter>
					<sourcetrack>
						<mediatype>audio</mediatype>
						<trackindex>1</trackindex>
					</sourcetrack>
					<link>
						<linkclipref>Svosj mu 3 32</linkclipref>
						<mediatype>audio</mediatype>
						<trackindex>8</trackindex>
						<clipindex>17</clipindex>
						<groupindex>1</groupindex>
					</link>
					<link>
						<linkclipref>Svosj mu 3 33</linkclipref>
						<mediatype>audio</mediatype>
						<trackindex>9</trackindex>
						<clipindex>8</clipindex>
						<groupindex>1</groupindex>
					</link>
				</clipitem>
				<clipitem id="Svosj mu 3 34">
					<name>Svosj mu 3</name>
					<duration>1024</duration>
					<rate>
						<ntsc>FALSE</ntsc>
						<timebase>25</timebase>
					</rate>
					<in>0</in>
					<out>23</out>
					<start>23097</start>
					<end>-1</end>
					<masterclipid>Svosj mu 3 1</masterclipid>
					<logginginfo>
						<scene/>
						<shottake/>
						<lognote/>
						<good>FALSE</good>
					</logginginfo>
					<labels>
						<label2/>
					</labels>
					<comments>
						<mastercomment1/>
						<mastercomment2/>
						<mastercomment3/>
						<mastercomment4/>
					</comments>
					<file id="Svosj mu 3 2"/>
					<filter>
						<effect>
							<name>Audio Levels</name>
							<effectid>audiolevels</effectid>
							<effectcategory>audiolevels</effectcategory>
							<effecttype>audiolevels</effecttype>
							<mediatype>audio</mediatype>
							<parameter>
								<name>Level</name>
								<parameterid>level</parameterid>
								<valuemin>0</valuemin>
								<valuemax>3.98109</valuemax>
								<value>0.891251</value>
							</parameter>
						</effect>
					</filter>
					<filter>
						<effect>
							<name>Audio Pan</name>
							<effectid>audiopan</effectid>
							<effectcategory>audiopan</effectcategory>
							<effecttype>audiopan</effecttype>
							<mediatype>audio</mediatype>
							<parameter>
								<name>Pan</name>
								<parameterid>pan</parameterid>
								<valuemin>-1</valuemin>
								<valuemax>1</valuemax>
								<value>-1</value>
							</parameter>
						</effect>
					</filter>
					<sourcetrack>
						<mediatype>audio</mediatype>
						<trackindex>1</trackindex>
					</sourcetrack>
					<link>
						<linkclipref>Svosj mu 3 34</linkclipref>
						<mediatype>audio</mediatype>
						<trackindex>8</trackindex>
						<clipindex>18</clipindex>
						<groupindex>1</groupindex>
					</link>
					<link>
						<linkclipref>Svosj mu 3 35</linkclipref>
						<mediatype>audio</mediatype>
						<trackindex>9</trackindex>
						<clipindex>9</clipindex>
						<groupindex>1</groupindex>
					</link>
				</clipitem>
				<transitionitem id="77">
					<rate>
						<ntsc>FALSE</ntsc>
						<timebase>25</timebase>
					</rate>
					<start>23113</start>
					<end>23120</end>
					<alignment>center</alignment>
					<effect>
						<name>Cross Fade ( 0dB)</name>
						<effecttype>transition</effecttype>
						<mediatype>audio</mediatype>
					</effect>
				</transitionitem>
				<clipitem id="Svosj mu 3 36">
					<name>Svosj mu 3</name>
					<duration>1024</duration>
					<rate>
						<ntsc>FALSE</ntsc>
						<timebase>25</timebase>
					</rate>
					<in>920</in>
					<out>974</out>
					<start>-1</start>
					<end>23167</end>
					<masterclipid>Svosj mu 3 1</masterclipid>
					<logginginfo>
						<scene/>
						<shottake/>
						<lognote/>
						<good>FALSE</good>
					</logginginfo>
					<labels>
						<label2/>
					</labels>
					<comments>
						<mastercomment1/>
						<mastercomment2/>
						<mastercomment3/>
						<mastercomment4/>
					</comments>
					<file id="Svosj mu 3 2"/>
					<filter>
						<effect>
							<name>Audio Levels</name>
							<effectid>audiolevels</effectid>
							<effectcategory>audiolevels</effectcategory>
							<effecttype>audiolevels</effecttype>
							<mediatype>audio</mediatype>
							<parameter>
								<name>Level</name>
								<parameterid>level</parameterid>
								<valuemin>0</valuemin>
								<valuemax>3.98109</valuemax>
								<value>1.12202</value>
							</parameter>
						</effect>
					</filter>
					<filter>
						<effect>
							<name>Audio Pan</name>
							<effectid>audiopan</effectid>
							<effectcategory>audiopan</effectcategory>
							<effecttype>audiopan</effecttype>
							<mediatype>audio</mediatype>
							<parameter>
								<name>Pan</name>
								<parameterid>pan</parameterid>
								<valuemin>-1</valuemin>
								<valuemax>1</valuemax>
								<value>-1</value>
							</parameter>
						</effect>
					</filter>
					<sourcetrack>
						<mediatype>audio</mediatype>
						<trackindex>1</trackindex>
					</sourcetrack>
					<link>
						<linkclipref>Svosj mu 3 36</linkclipref>
						<mediatype>audio</mediatype>
						<trackindex>8</trackindex>
						<clipindex>20</clipindex>
						<groupindex>1</groupindex>
					</link>
					<link>
						<linkclipref>Svosj mu 3 37</linkclipref>
						<mediatype>audio</mediatype>
						<trackindex>9</trackindex>
						<clipindex>11</clipindex>
						<groupindex>1</groupindex>
					</link>
				</clipitem>
				<clipitem id="03 BANJO BLAST --- A banjo lead tussles with guitar, violin and harmonica. Fun, optimistic, energetic.3">
					<name>03 BANJO BLAST --- A banjo lead tussles with guitar, violin and harmonica. Fun, optimistic, energetic.</name>
					<duration>4713</duration>
					<rate>
						<ntsc>FALSE</ntsc>
						<timebase>25</timebase>
					</rate>
					<in>521</in>
					<out>643</out>
					<start>25034</start>
					<end>25156</end>
					<enabled>TRUE</enabled>
					<masterclipid>03 BANJO BLAST --- A banjo lead tussles with guitar, violin and harmonica. Fun, optimistic, energetic.1</masterclipid>
					<logginginfo>
						<scene/>
						<shottake/>
						<lognote/>
						<good>FALSE</good>
					</logginginfo>
					<labels>
						<label2/>
					</labels>
					<comments>
						<mastercomment1/>
						<mastercomment2/>
						<mastercomment3/>
						<mastercomment4/>
					</comments>
					<file id="03 BANJO BLAST --- A banjo lead tussles with guitar, violin and harmonica. Fun, optimistic, energetic.2"/>
					<filter>
						<effect>
							<name>Audio Levels</name>
							<effectid>audiolevels</effectid>
							<effectcategory>audiolevels</effectcategory>
							<effecttype>audiolevels</effecttype>
							<mediatype>audio</mediatype>
							<parameter>
								<name>Level</name>
								<parameterid>level</parameterid>
								<valuemin>0</valuemin>
								<valuemax>3.98109</valuemax>
								<value>0.199526</value>
							</parameter>
						</effect>
					</filter>
					<filter>
						<effect>
							<name>Audio Pan</name>
							<effectid>audiopan</effectid>
							<effectcategory>audiopan</effectcategory>
							<effecttype>audiopan</effecttype>
							<mediatype>audio</mediatype>
							<parameter>
								<name>Pan</name>
								<parameterid>pan</parameterid>
								<valuemin>-1</valuemin>
								<valuemax>1</valuemax>
								<value>1</value>
							</parameter>
						</effect>
					</filter>
					<sourcetrack>
						<mediatype>audio</mediatype>
						<trackindex>2</trackindex>
					</sourcetrack>
					<link>
						<linkclipref>03 BANJO BLAST --- A banjo lead tussles with guitar, violin and harmonica. Fun, optimistic, energetic.</linkclipref>
						<mediatype>audio</mediatype>
						<trackindex>7</trackindex>
						<clipindex>20</clipindex>
						<groupindex>1</groupindex>
					</link>
					<link>
						<linkclipref>03 BANJO BLAST --- A banjo lead tussles with guitar, violin and harmonica. Fun, optimistic, energetic.3</linkclipref>
						<mediatype>audio</mediatype>
						<trackindex>8</trackindex>
						<clipindex>21</clipindex>
						<groupindex>1</groupindex>
					</link>
				</clipitem>
				<transitionitem id="78">
					<rate>
						<ntsc>FALSE</ntsc>
						<timebase>25</timebase>
					</rate>
					<start>25156</start>
					<end>25158</end>
					<alignment>center</alignment>
					<effect>
						<name>Cross Fade (+3dB) Copy</name>
						<effecttype>transition</effecttype>
						<mediatype>audio</mediatype>
					</effect>
				</transitionitem>
				<clipitem id="03 BANJO BLAST --- A banjo lead tussles with guitar, violin and harmonica. Fun, optimistic, energetic.5">
					<name>03 BANJO BLAST --- A banjo lead tussles with guitar, violin and harmonica. Fun, optimistic, energetic.</name>
					<duration>4713</duration>
					<rate>
						<ntsc>FALSE</ntsc>
						<timebase>25</timebase>
					</rate>
					<in>4387</in>
					<out>4612</out>
					<start>-1</start>
					<end>25381</end>
					<subframeoffset>0</subframeoffset>
					<enabled>TRUE</enabled>
					<masterclipid>03 BANJO BLAST --- A banjo lead tussles with guitar, violin and harmonica. Fun, optimistic, energetic.1</masterclipid>
					<logginginfo>
						<scene/>
						<shottake/>
						<lognote/>
						<good>FALSE</good>
					</logginginfo>
					<labels>
						<label2/>
					</labels>
					<comments>
						<mastercomment1/>
						<mastercomment2/>
						<mastercomment3/>
						<mastercomment4/>
					</comments>
					<file id="03 BANJO BLAST --- A banjo lead tussles with guitar, violin and harmonica. Fun, optimistic, energetic.2"/>
					<filter>
						<effect>
							<name>Audio Levels</name>
							<effectid>audiolevels</effectid>
							<effectcategory>audiolevels</effectcategory>
							<effecttype>audiolevels</effecttype>
							<mediatype>audio</mediatype>
							<parameter>
								<name>Level</name>
								<parameterid>level</parameterid>
								<valuemin>0</valuemin>
								<valuemax>3.98109</valuemax>
								<value>0.199526</value>
							</parameter>
						</effect>
					</filter>
					<filter>
						<effect>
							<name>Audio Pan</name>
							<effectid>audiopan</effectid>
							<effectcategory>audiopan</effectcategory>
							<effecttype>audiopan</effecttype>
							<mediatype>audio</mediatype>
							<parameter>
								<name>Pan</name>
								<parameterid>pan</parameterid>
								<valuemin>-1</valuemin>
								<valuemax>1</valuemax>
								<value>1</value>
							</parameter>
						</effect>
					</filter>
					<sourcetrack>
						<mediatype>audio</mediatype>
						<trackindex>2</trackindex>
					</sourcetrack>
					<link>
						<linkclipref>03 BANJO BLAST --- A banjo lead tussles with guitar, violin and harmonica. Fun, optimistic, energetic.4</linkclipref>
						<mediatype>audio</mediatype>
						<trackindex>7</trackindex>
						<clipindex>22</clipindex>
						<groupindex>1</groupindex>
					</link>
					<link>
						<linkclipref>03 BANJO BLAST --- A banjo lead tussles with guitar, violin and harmonica. Fun, optimistic, energetic.5</linkclipref>
						<mediatype>audio</mediatype>
						<trackindex>8</trackindex>
						<clipindex>23</clipindex>
						<groupindex>1</groupindex>
					</link>
				</clipitem>
				<clipitem id="Fin Fredag PIMPBUMP 2.wav4">
					<name>Fin Fredag PIMPBUMP 2.wav</name>
					<duration>1095</duration>
					<rate>
						<ntsc>FALSE</ntsc>
						<timebase>25</timebase>
					</rate>
					<in>968</in>
					<out>1092</out>
					<start>25960</start>
					<end>26084</end>
					<subframeoffset>0</subframeoffset>
					<masterclipid>Fin Fredag PIMPBUMP 2.wav1</masterclipid>
					<logginginfo>
						<scene/>
						<shottake/>
						<lognote/>
						<good>FALSE</good>
					</logginginfo>
					<labels>
						<label2/>
					</labels>
					<comments>
						<mastercomment1/>
						<mastercomment2/>
						<mastercomment3/>
						<mastercomment4/>
					</comments>
					<file id="Fin Fredag PIMPBUMP 2 "/>
					<filter>
						<effect>
							<name>Audio Levels</name>
							<effectid>audiolevels</effectid>
							<effectcategory>audiolevels</effectcategory>
							<effecttype>audiolevels</effecttype>
							<mediatype>audio</mediatype>
							<parameter>
								<name>Level</name>
								<parameterid>level</parameterid>
								<valuemin>0</valuemin>
								<valuemax>3.98109</valuemax>
								<keyframe>
									<when>990.679</when>
									<value>0.398107</value>
								</keyframe>
								<keyframe>
									<when>1018.54</when>
									<value>0.158489</value>
								</keyframe>
								<interpolation>
									<name>FCPCurve</name>
								</interpolation>
								<value>0.398107</value>
							</parameter>
						</effect>
					</filter>
					<filter>
						<effect>
							<name>Audio Pan</name>
							<effectid>audiopan</effectid>
							<effectcategory>audiopan</effectcategory>
							<effecttype>audiopan</effecttype>
							<mediatype>audio</mediatype>
							<parameter>
								<name>Pan</name>
								<parameterid>pan</parameterid>
								<valuemin>-1</valuemin>
								<valuemax>1</valuemax>
								<value>1</value>
							</parameter>
						</effect>
					</filter>
					<sourcetrack>
						<mediatype>audio</mediatype>
						<trackindex>2</trackindex>
					</sourcetrack>
					<link>
						<linkclipref>Fin Fredag PIMPBUMP 2.wav3</linkclipref>
						<mediatype>audio</mediatype>
						<trackindex>7</trackindex>
						<clipindex>23</clipindex>
						<groupindex>1</groupindex>
					</link>
					<link>
						<linkclipref>Fin Fredag PIMPBUMP 2.wav4</linkclipref>
						<mediatype>audio</mediatype>
						<trackindex>8</trackindex>
						<clipindex>24</clipindex>
						<groupindex>1</groupindex>
					</link>
				</clipitem>
				<clipitem id="AUXMP_RSM010436_HEAVY URBAN.mp3 2">
					<name>AUXMP_RSM010436_HEAVY URBAN.mp3</name>
					<duration>871</duration>
					<rate>
						<ntsc>FALSE</ntsc>
						<timebase>25</timebase>
					</rate>
					<in>0</in>
					<out>97</out>
					<start>31766</start>
					<end>-1</end>
					<masterclipid>AUXMP_RSM010436_HEAVY URBAN.mp3 1</masterclipid>
					<logginginfo>
						<scene/>
						<shottake/>
						<lognote/>
						<good>FALSE</good>
					</logginginfo>
					<labels>
						<label2/>
					</labels>
					<comments>
						<mastercomment1/>
						<mastercomment2/>
						<mastercomment3/>
						<mastercomment4/>
					</comments>
					<file id="AUXMP_RSM010436_HEAVY URBAN"/>
					<filter>
						<effect>
							<name>Audio Levels</name>
							<effectid>audiolevels</effectid>
							<effectcategory>audiolevels</effectcategory>
							<effecttype>audiolevels</effecttype>
							<mediatype>audio</mediatype>
							<parameter>
								<name>Level</name>
								<parameterid>level</parameterid>
								<valuemin>0</valuemin>
								<valuemax>3.98109</valuemax>
								<value>0.316228</value>
							</parameter>
						</effect>
					</filter>
					<filter>
						<effect>
							<name>Audio Pan</name>
							<effectid>audiopan</effectid>
							<effectcategory>audiopan</effectcategory>
							<effecttype>audiopan</effecttype>
							<mediatype>audio</mediatype>
							<parameter>
								<name>Pan</name>
								<parameterid>pan</parameterid>
								<valuemin>-1</valuemin>
								<valuemax>1</valuemax>
								<value>1</value>
							</parameter>
						</effect>
					</filter>
					<sourcetrack>
						<mediatype>audio</mediatype>
						<trackindex>2</trackindex>
					</sourcetrack>
					<link>
						<linkclipref>AUXMP_RSM010436_HEAVY URBAN.mp3 </linkclipref>
						<mediatype>audio</mediatype>
						<trackindex>7</trackindex>
						<clipindex>31</clipindex>
						<groupindex>1</groupindex>
					</link>
					<link>
						<linkclipref>AUXMP_RSM010436_HEAVY URBAN.mp3 2</linkclipref>
						<mediatype>audio</mediatype>
						<trackindex>8</trackindex>
						<clipindex>25</clipindex>
						<groupindex>1</groupindex>
					</link>
				</clipitem>
				<transitionitem id="79">
					<rate>
						<ntsc>FALSE</ntsc>
						<timebase>25</timebase>
					</rate>
					<start>31857</start>
					<end>31863</end>
					<alignment>end-black</alignment>
					<effect>
						<name>Cross Fade (+3dB) Copy</name>
						<effecttype>transition</effecttype>
						<mediatype>audio</mediatype>
					</effect>
				</transitionitem>
				<transitionitem id="920777592 ">
					<rate>
						<ntsc>FALSE</ntsc>
						<timebase>25</timebase>
					</rate>
					<start>33433</start>
					<end>33439</end>
					<alignment>start-black</alignment>
					<effect>
						<name>Cross Fade (+3dB) Copy</name>
						<effecttype>transition</effecttype>
						<mediatype>audio</mediatype>
					</effect>
				</transitionitem>
				<clipitem id="AUXMP_UBMM213539_EL CLUSH.mp3 8">
					<name>AUXMP_UBMM213539_EL CLUSH.mp3</name>
					<duration>1328</duration>
					<rate>
						<ntsc>FALSE</ntsc>
						<timebase>25</timebase>
					</rate>
					<in>167</in>
					<out>264</out>
					<start>-1</start>
					<end>-1</end>
					<subframeoffset>0</subframeoffset>
					<masterclipid>AUXMP_UBMM213539_EL CLUSH.mp3 1</masterclipid>
					<logginginfo>
						<scene/>
						<shottake/>
						<lognote/>
						<good>FALSE</good>
					</logginginfo>
					<labels>
						<label2/>
					</labels>
					<comments>
						<mastercomment1/>
						<mastercomment2/>
						<mastercomment3/>
						<mastercomment4/>
					</comments>
					<file id="AUXMP_UBMM213539_EL CLUSH"/>
					<filter>
						<effect>
							<name>Audio Levels</name>
							<effectid>audiolevels</effectid>
							<effectcategory>audiolevels</effectcategory>
							<effecttype>audiolevels</effecttype>
							<mediatype>audio</mediatype>
							<parameter>
								<name>Level</name>
								<parameterid>level</parameterid>
								<valuemin>0</valuemin>
								<valuemax>3.98109</valuemax>
								<keyframe>
									<when>169</when>
									<value>0.00141254</value>
								</keyframe>
								<keyframe>
									<when>178.75</when>
									<value>0.199526</value>
								</keyframe>
								<keyframe>
									<when>286</when>
									<value>0.199526</value>
								</keyframe>
								<keyframe>
									<when>341</when>
									<value>0.0501187</value>
								</keyframe>
								<interpolation>
									<name>FCPCurve</name>
								</interpolation>
								<value>0.199526</value>
							</parameter>
						</effect>
					</filter>
					<filter>
						<effect>
							<name>Audio Pan</name>
							<effectid>audiopan</effectid>
							<effectcategory>audiopan</effectcategory>
							<effecttype>audiopan</effecttype>
							<mediatype>audio</mediatype>
							<parameter>
								<name>Pan</name>
								<parameterid>pan</parameterid>
								<valuemin>-1</valuemin>
								<valuemax>1</valuemax>
								<value>1</value>
							</parameter>
						</effect>
					</filter>
					<sourcetrack>
						<mediatype>audio</mediatype>
						<trackindex>2</trackindex>
					</sourcetrack>
					<link>
						<linkclipref>AUXMP_UBMM213539_EL CLUSH.mp3 7</linkclipref>
						<mediatype>audio</mediatype>
						<trackindex>7</trackindex>
						<clipindex>34</clipindex>
						<groupindex>1</groupindex>
					</link>
					<link>
						<linkclipref>AUXMP_UBMM213539_EL CLUSH.mp3 8</linkclipref>
						<mediatype>audio</mediatype>
						<trackindex>8</trackindex>
						<clipindex>28</clipindex>
						<groupindex>1</groupindex>
					</link>
					<filter>
						<effect>
							<name>Time Remap</name>
							<effectid>timeremap</effectid>
							<effectcategory>motion</effectcategory>
							<effecttype>motion</effecttype>
							<mediatype>audio</mediatype>
							<parameter>
								<parameterid>variablespeed</parameterid>
								<name>variablespeed</name>
								<valuemin>0</valuemin>
								<valuemax>1</valuemax>
								<value>0</value>
							</parameter>
							<parameter>
								<parameterid>mappedduration</parameterid>
								<name>mappedduration</name>
								<value>
									<timecode>
										<rate>
											<timebase>0</timebase>
										</rate>
										<string>0</string>
										<frame>0</frame>
										<displayformat>NDF</displayformat>
									</timecode>
								</value>
							</parameter>
							<parameter>
								<parameterid>speed</parameterid>
								<name>speed</name>
								<valuemin>-10000</valuemin>
								<valuemax>10000</valuemax>
								<value>59</value>
							</parameter>
							<parameter>
								<parameterid>reverse</parameterid>
								<name>reverse</name>
								<value>FALSE</value>
							</parameter>
							<parameter>
								<parameterid>frameblending</parameterid>
								<name>frameblending</name>
								<value>TRUE</value>
							</parameter>
							<parameter>
								<parameterid>graphdict</parameterid>
								<name>graphdict</name>
								<valuemin>0</valuemin>
								<valuemax>796</valuemax>
								<keyframe>
									<when>0</when>
									<value>0.425</value>
									<speedkfstart>TRUE</speedkfstart>
									<speedvirtualkf>TRUE</speedvirtualkf>
								</keyframe>
								<keyframe>
									<when>167</when>
									<value>100.6</value>
									<speedkfin>TRUE</speedkfin>
									<speedvirtualkf>TRUE</speedvirtualkf>
								</keyframe>
								<keyframe>
									<when>264</when>
									<value>158.785</value>
									<speedkfout>TRUE</speedkfout>
									<speedvirtualkf>TRUE</speedvirtualkf>
								</keyframe>
								<keyframe>
									<when>1328</when>
									<value>797.425</value>
									<speedkfend>TRUE</speedkfend>
									<speedvirtualkf>TRUE</speedvirtualkf>
								</keyframe>
								<interpolation>
									<name>FCPCurve</name>
								</interpolation>
								<value>100.6</value>
							</parameter>
						</effect>
					</filter>
				</clipitem>
				<transitionitem id="920778272 ">
					<rate>
						<ntsc>FALSE</ntsc>
						<timebase>25</timebase>
					</rate>
					<start>33524</start>
					<end>33530</end>
					<alignment>end-black</alignment>
					<effect>
						<name>Cross Fade (+3dB) Copy</name>
						<effecttype>transition</effecttype>
						<mediatype>audio</mediatype>
					</effect>
				</transitionitem>
				<clipitem id="AUXMP_UBMM213539_EL CLUSH.mp3 10">
					<name>AUXMP_UBMM213539_EL CLUSH.mp3</name>
					<duration>797</duration>
					<rate>
						<ntsc>FALSE</ntsc>
						<timebase>25</timebase>
					</rate>
					<in>19</in>
					<out>797</out>
					<start>33708</start>
					<end>34486</end>
					<subframeoffset>0</subframeoffset>
					<masterclipid>AUXMP_UBMM213539_EL CLUSH.mp3 1</masterclipid>
					<logginginfo>
						<scene/>
						<shottake/>
						<lognote/>
						<good>FALSE</good>
					</logginginfo>
					<labels>
						<label2/>
					</labels>
					<comments>
						<mastercomment1/>
						<mastercomment2/>
						<mastercomment3/>
						<mastercomment4/>
					</comments>
					<file id="AUXMP_UBMM213539_EL CLUSH"/>
					<filter>
						<effect>
							<name>Audio Levels</name>
							<effectid>audiolevels</effectid>
							<effectcategory>audiolevels</effectcategory>
							<effecttype>audiolevels</effecttype>
							<mediatype>audio</mediatype>
							<parameter>
								<name>Level</name>
								<parameterid>level</parameterid>
								<valuemin>0</valuemin>
								<valuemax>3.98109</valuemax>
								<keyframe>
									<when>33.1429</when>
									<value>0.251189</value>
								</keyframe>
								<keyframe>
									<when>44.2857</when>
									<value>0.158489</value>
								</keyframe>
								<keyframe>
									<when>54.5714</when>
									<value>0.158489</value>
								</keyframe>
								<keyframe>
									<when>64</when>
									<value>0.199526</value>
								</keyframe>
								<keyframe>
									<when>307.339</when>
									<value>0.199526</value>
								</keyframe>
								<keyframe>
									<when>327.83</when>
									<value>0.158489</value>
								</keyframe>
								<keyframe>
									<when>338.304</when>
									<value>0.177828</value>
								</keyframe>
								<keyframe>
									<when>346.045</when>
									<value>0.199526</value>
								</keyframe>
								<keyframe>
									<when>419.812</when>
									<value>0.199526</value>
								</keyframe>
								<keyframe>
									<when>444.857</when>
									<value>0.141254</value>
								</keyframe>
								<keyframe>
									<when>492</when>
									<value>0.0630957</value>
								</keyframe>
								<keyframe>
									<when>529.286</when>
									<value>0.0630957</value>
								</keyframe>
								<keyframe>
									<when>536.143</when>
									<value>0.158489</value>
								</keyframe>
								<keyframe>
									<when>648</when>
									<value>0.141254</value>
								</keyframe>
								<keyframe>
									<when>663</when>
									<value>0.158489</value>
								</keyframe>
								<interpolation>
									<name>FCPCurve</name>
								</interpolation>
								<value>0.251189</value>
							</parameter>
						</effect>
					</filter>
					<filter>
						<effect>
							<name>Audio Pan</name>
							<effectid>audiopan</effectid>
							<effectcategory>audiopan</effectcategory>
							<effecttype>audiopan</effecttype>
							<mediatype>audio</mediatype>
							<parameter>
								<name>Pan</name>
								<parameterid>pan</parameterid>
								<valuemin>-1</valuemin>
								<valuemax>1</valuemax>
								<value>1</value>
							</parameter>
						</effect>
					</filter>
					<sourcetrack>
						<mediatype>audio</mediatype>
						<trackindex>2</trackindex>
					</sourcetrack>
					<link>
						<linkclipref>AUXMP_UBMM213539_EL CLUSH.mp3 9</linkclipref>
						<mediatype>audio</mediatype>
						<trackindex>7</trackindex>
						<clipindex>36</clipindex>
						<groupindex>1</groupindex>
					</link>
					<link>
						<linkclipref>AUXMP_UBMM213539_EL CLUSH.mp3 10</linkclipref>
						<mediatype>audio</mediatype>
						<trackindex>8</trackindex>
						<clipindex>30</clipindex>
						<groupindex>1</groupindex>
					</link>
				</clipitem>
				<clipitem id="AUXMP_RSM010437_HEAVY URBAN STING.mp3 8">
					<name>AUXMP_RSM010437_HEAVY URBAN STING.mp3</name>
					<duration>396</duration>
					<rate>
						<ntsc>FALSE</ntsc>
						<timebase>25</timebase>
					</rate>
					<in>212</in>
					<out>396</out>
					<start>34614</start>
					<end>34798</end>
					<subframeoffset>0</subframeoffset>
					<masterclipid>AUXMP_RSM010437_HEAVY URBAN STING.mp3 1</masterclipid>
					<logginginfo>
						<scene/>
						<shottake/>
						<lognote/>
						<good>FALSE</good>
					</logginginfo>
					<labels>
						<label2/>
					</labels>
					<comments>
						<mastercomment1/>
						<mastercomment2/>
						<mastercomment3/>
						<mastercomment4/>
					</comments>
					<file id="AUXMP_RSM010437_HEAVY URBAN STING"/>
					<filter>
						<effect>
							<name>Audio Levels</name>
							<effectid>audiolevels</effectid>
							<effectcategory>audiolevels</effectcategory>
							<effecttype>audiolevels</effecttype>
							<mediatype>audio</mediatype>
							<parameter>
								<name>Level</name>
								<parameterid>level</parameterid>
								<valuemin>0</valuemin>
								<valuemax>3.98109</valuemax>
								<value>0.251189</value>
							</parameter>
						</effect>
					</filter>
					<filter>
						<effect>
							<name>Audio Pan</name>
							<effectid>audiopan</effectid>
							<effectcategory>audiopan</effectcategory>
							<effecttype>audiopan</effecttype>
							<mediatype>audio</mediatype>
							<parameter>
								<name>Pan</name>
								<parameterid>pan</parameterid>
								<valuemin>-1</valuemin>
								<valuemax>1</valuemax>
								<value>1</value>
							</parameter>
						</effect>
					</filter>
					<sourcetrack>
						<mediatype>audio</mediatype>
						<trackindex>2</trackindex>
					</sourcetrack>
					<link>
						<linkclipref>AUXMP_RSM010437_HEAVY URBAN STING.mp3 7</linkclipref>
						<mediatype>audio</mediatype>
						<trackindex>7</trackindex>
						<clipindex>37</clipindex>
						<groupindex>1</groupindex>
					</link>
					<link>
						<linkclipref>AUXMP_RSM010437_HEAVY URBAN STING.mp3 8</linkclipref>
						<mediatype>audio</mediatype>
						<trackindex>8</trackindex>
						<clipindex>31</clipindex>
						<groupindex>1</groupindex>
					</link>
				</clipitem>
				<clipitem id="AUXMP_SCDV028131_SKIP AND HOP B.mp3 4">
					<name>AUXMP_SCDV028131_SKIP AND HOP B.mp3</name>
					<duration>878</duration>
					<rate>
						<ntsc>FALSE</ntsc>
						<timebase>25</timebase>
					</rate>
					<in>707</in>
					<out>878</out>
					<start>36058</start>
					<end>36229</end>
					<masterclipid>AUXMP_SCDV028131_SKIP AND HOP B.mp3 1</masterclipid>
					<logginginfo>
						<scene/>
						<shottake/>
						<lognote/>
						<good>FALSE</good>
					</logginginfo>
					<labels>
						<label2/>
					</labels>
					<comments>
						<mastercomment1/>
						<mastercomment2/>
						<mastercomment3/>
						<mastercomment4/>
					</comments>
					<file id="AUXMP_SCDV028131_SKIP AND HOP B"/>
					<filter>
						<effect>
							<name>Audio Levels</name>
							<effectid>audiolevels</effectid>
							<effectcategory>audiolevels</effectcategory>
							<effecttype>audiolevels</effecttype>
							<mediatype>audio</mediatype>
							<parameter>
								<name>Level</name>
								<parameterid>level</parameterid>
								<valuemin>0</valuemin>
								<valuemax>3.98109</valuemax>
								<value>1</value>
							</parameter>
						</effect>
					</filter>
					<filter>
						<effect>
							<name>Audio Pan</name>
							<effectid>audiopan</effectid>
							<effectcategory>audiopan</effectcategory>
							<effecttype>audiopan</effecttype>
							<mediatype>audio</mediatype>
							<parameter>
								<name>Pan</name>
								<parameterid>pan</parameterid>
								<valuemin>-1</valuemin>
								<valuemax>1</valuemax>
								<value>1</value>
							</parameter>
						</effect>
					</filter>
					<sourcetrack>
						<mediatype>audio</mediatype>
						<trackindex>2</trackindex>
					</sourcetrack>
					<link>
						<linkclipref>AUXMP_SCDV028131_SKIP AND HOP B.mp3 3</linkclipref>
						<mediatype>audio</mediatype>
						<trackindex>7</trackindex>
						<clipindex>38</clipindex>
						<groupindex>1</groupindex>
					</link>
					<link>
						<linkclipref>AUXMP_SCDV028131_SKIP AND HOP B.mp3 4</linkclipref>
						<mediatype>audio</mediatype>
						<trackindex>8</trackindex>
						<clipindex>32</clipindex>
						<groupindex>1</groupindex>
					</link>
				</clipitem>
				<enabled>TRUE</enabled>
				<locked>FALSE</locked>
				<outputchannelindex>1</outputchannelindex>
			</track>
			<track>
				<transitionitem id="920779836 ">
					<rate>
						<ntsc>FALSE</ntsc>
						<timebase>25</timebase>
					</rate>
					<start>1287</start>
					<end>1293</end>
					<alignment>center</alignment>
					<effect>
						<name>Cross Fade (+3dB) Copy</name>
						<effecttype>transition</effecttype>
						<mediatype>audio</mediatype>
					</effect>
				</transitionitem>
				<clipitem id="Fin Fredag Vignett - NY5">
					<name>Fin Fredag Vignett - NY</name>
					<duration>1590</duration>
					<rate>
						<ntsc>FALSE</ntsc>
						<timebase>25</timebase>
					</rate>
					<in>1442</in>
					<out>1580</out>
					<start>-1</start>
					<end>1425</end>
					<subframeoffset>0</subframeoffset>
					<masterclipid>Fin Fredag Vignett - NY1</masterclipid>
					<logginginfo>
						<scene/>
						<shottake/>
						<lognote/>
						<good>FALSE</good>
					</logginginfo>
					<labels>
						<label2/>
					</labels>
					<comments>
						<mastercomment1/>
						<mastercomment2/>
						<mastercomment3/>
						<mastercomment4/>
					</comments>
					<file id="Fin Fredag Vignett - NY2"/>
					<filter>
						<effect>
							<name>Audio Levels</name>
							<effectid>audiolevels</effectid>
							<effectcategory>audiolevels</effectcategory>
							<effecttype>audiolevels</effecttype>
							<mediatype>audio</mediatype>
							<parameter>
								<name>Level</name>
								<parameterid>level</parameterid>
								<valuemin>0</valuemin>
								<valuemax>3.98109</valuemax>
								<value>0.501187</value>
							</parameter>
						</effect>
					</filter>
					<filter>
						<effect>
							<name>Audio Pan</name>
							<effectid>audiopan</effectid>
							<effectcategory>audiopan</effectcategory>
							<effecttype>audiopan</effecttype>
							<mediatype>audio</mediatype>
							<parameter>
								<name>Pan</name>
								<parameterid>pan</parameterid>
								<valuemin>-1</valuemin>
								<valuemax>1</valuemax>
								<value>1</value>
							</parameter>
						</effect>
					</filter>
					<sourcetrack>
						<mediatype>audio</mediatype>
						<trackindex>2</trackindex>
					</sourcetrack>
					<link>
						<linkclipref>Fin Fredag Vignett - NY4</linkclipref>
						<mediatype>audio</mediatype>
						<trackindex>8</trackindex>
						<clipindex>2</clipindex>
						<groupindex>1</groupindex>
					</link>
					<link>
						<linkclipref>Fin Fredag Vignett - NY5</linkclipref>
						<mediatype>audio</mediatype>
						<trackindex>9</trackindex>
						<clipindex>2</clipindex>
						<groupindex>1</groupindex>
					</link>
				</clipitem>
				<clipitem id="Svosj mu 3 27">
					<name>Svosj mu 3</name>
					<duration>1024</duration>
					<rate>
						<ntsc>FALSE</ntsc>
						<timebase>25</timebase>
					</rate>
					<in>0</in>
					<out>23</out>
					<start>21681</start>
					<end>-1</end>
					<enabled>TRUE</enabled>
					<masterclipid>Svosj mu 3 1</masterclipid>
					<logginginfo>
						<scene/>
						<shottake/>
						<lognote/>
						<good>FALSE</good>
					</logginginfo>
					<labels>
						<label2/>
					</labels>
					<comments>
						<mastercomment1/>
						<mastercomment2/>
						<mastercomment3/>
						<mastercomment4/>
					</comments>
					<file id="Svosj mu 3 2"/>
					<filter>
						<effect>
							<name>Audio Levels</name>
							<effectid>audiolevels</effectid>
							<effectcategory>audiolevels</effectcategory>
							<effecttype>audiolevels</effecttype>
							<mediatype>audio</mediatype>
							<parameter>
								<name>Level</name>
								<parameterid>level</parameterid>
								<valuemin>0</valuemin>
								<valuemax>3.98109</valuemax>
								<value>0.251189</value>
							</parameter>
						</effect>
					</filter>
					<filter>
						<effect>
							<name>Audio Pan</name>
							<effectid>audiopan</effectid>
							<effectcategory>audiopan</effectcategory>
							<effecttype>audiopan</effecttype>
							<mediatype>audio</mediatype>
							<parameter>
								<name>Pan</name>
								<parameterid>pan</parameterid>
								<valuemin>-1</valuemin>
								<valuemax>1</valuemax>
								<value>1</value>
							</parameter>
						</effect>
					</filter>
					<sourcetrack>
						<mediatype>audio</mediatype>
						<trackindex>2</trackindex>
					</sourcetrack>
					<link>
						<linkclipref>Svosj mu 3 26</linkclipref>
						<mediatype>audio</mediatype>
						<trackindex>8</trackindex>
						<clipindex>12</clipindex>
						<groupindex>1</groupindex>
					</link>
					<link>
						<linkclipref>Svosj mu 3 27</linkclipref>
						<mediatype>audio</mediatype>
						<trackindex>9</trackindex>
						<clipindex>3</clipindex>
						<groupindex>1</groupindex>
					</link>
				</clipitem>
				<transitionitem id="80">
					<rate>
						<ntsc>FALSE</ntsc>
						<timebase>25</timebase>
					</rate>
					<start>21697</start>
					<end>21704</end>
					<alignment>center</alignment>
					<effect>
						<name>Cross Fade ( 0dB)</name>
						<effecttype>transition</effecttype>
						<mediatype>audio</mediatype>
					</effect>
				</transitionitem>
				<clipitem id="Svosj mu 3 29">
					<name>Svosj mu 3</name>
					<duration>1024</duration>
					<rate>
						<ntsc>FALSE</ntsc>
						<timebase>25</timebase>
					</rate>
					<in>920</in>
					<out>978</out>
					<start>-1</start>
					<end>21755</end>
					<enabled>TRUE</enabled>
					<masterclipid>Svosj mu 3 1</masterclipid>
					<logginginfo>
						<scene/>
						<shottake/>
						<lognote/>
						<good>FALSE</good>
					</logginginfo>
					<labels>
						<label2/>
					</labels>
					<comments>
						<mastercomment1/>
						<mastercomment2/>
						<mastercomment3/>
						<mastercomment4/>
					</comments>
					<file id="Svosj mu 3 2"/>
					<filter>
						<effect>
							<name>Audio Levels</name>
							<effectid>audiolevels</effectid>
							<effectcategory>audiolevels</effectcategory>
							<effecttype>audiolevels</effecttype>
							<mediatype>audio</mediatype>
							<parameter>
								<name>Level</name>
								<parameterid>level</parameterid>
								<valuemin>0</valuemin>
								<valuemax>3.98109</valuemax>
								<value>0.316228</value>
							</parameter>
						</effect>
					</filter>
					<filter>
						<effect>
							<name>Audio Pan</name>
							<effectid>audiopan</effectid>
							<effectcategory>audiopan</effectcategory>
							<effecttype>audiopan</effecttype>
							<mediatype>audio</mediatype>
							<parameter>
								<name>Pan</name>
								<parameterid>pan</parameterid>
								<valuemin>-1</valuemin>
								<valuemax>1</valuemax>
								<value>1</value>
							</parameter>
						</effect>
					</filter>
					<sourcetrack>
						<mediatype>audio</mediatype>
						<trackindex>2</trackindex>
					</sourcetrack>
					<link>
						<linkclipref>Svosj mu 3 28</linkclipref>
						<mediatype>audio</mediatype>
						<trackindex>8</trackindex>
						<clipindex>14</clipindex>
						<groupindex>1</groupindex>
					</link>
					<link>
						<linkclipref>Svosj mu 3 29</linkclipref>
						<mediatype>audio</mediatype>
						<trackindex>9</trackindex>
						<clipindex>5</clipindex>
						<groupindex>1</groupindex>
					</link>
				</clipitem>
				<clipitem id="Svosj mu 3 31">
					<name>Svosj mu 3</name>
					<duration>1024</duration>
					<rate>
						<ntsc>FALSE</ntsc>
						<timebase>25</timebase>
					</rate>
					<in>0</in>
					<out>23</out>
					<start>22591</start>
					<end>-1</end>
					<masterclipid>Svosj mu 3 1</masterclipid>
					<logginginfo>
						<scene/>
						<shottake/>
						<lognote/>
						<good>FALSE</good>
					</logginginfo>
					<labels>
						<label2/>
					</labels>
					<comments>
						<mastercomment1/>
						<mastercomment2/>
						<mastercomment3/>
						<mastercomment4/>
					</comments>
					<file id="Svosj mu 3 2"/>
					<filter>
						<effect>
							<name>Audio Levels</name>
							<effectid>audiolevels</effectid>
							<effectcategory>audiolevels</effectcategory>
							<effecttype>audiolevels</effecttype>
							<mediatype>audio</mediatype>
							<parameter>
								<name>Level</name>
								<parameterid>level</parameterid>
								<valuemin>0</valuemin>
								<valuemax>3.98109</valuemax>
								<value>0.630957</value>
							</parameter>
						</effect>
					</filter>
					<filter>
						<effect>
							<name>Audio Pan</name>
							<effectid>audiopan</effectid>
							<effectcategory>audiopan</effectcategory>
							<effecttype>audiopan</effecttype>
							<mediatype>audio</mediatype>
							<parameter>
								<name>Pan</name>
								<parameterid>pan</parameterid>
								<valuemin>-1</valuemin>
								<valuemax>1</valuemax>
								<value>1</value>
							</parameter>
						</effect>
					</filter>
					<sourcetrack>
						<mediatype>audio</mediatype>
						<trackindex>2</trackindex>
					</sourcetrack>
					<link>
						<linkclipref>Svosj mu 3 30</linkclipref>
						<mediatype>audio</mediatype>
						<trackindex>8</trackindex>
						<clipindex>15</clipindex>
						<groupindex>1</groupindex>
					</link>
					<link>
						<linkclipref>Svosj mu 3 31</linkclipref>
						<mediatype>audio</mediatype>
						<trackindex>9</trackindex>
						<clipindex>6</clipindex>
						<groupindex>1</groupindex>
					</link>
				</clipitem>
				<transitionitem id="81">
					<rate>
						<ntsc>FALSE</ntsc>
						<timebase>25</timebase>
					</rate>
					<start>22607</start>
					<end>22614</end>
					<alignment>center</alignment>
					<effect>
						<name>Cross Fade ( 0dB)</name>
						<effecttype>transition</effecttype>
						<mediatype>audio</mediatype>
					</effect>
				</transitionitem>
				<clipitem id="Svosj mu 3 33">
					<name>Svosj mu 3</name>
					<duration>1024</duration>
					<rate>
						<ntsc>FALSE</ntsc>
						<timebase>25</timebase>
					</rate>
					<in>920</in>
					<out>974</out>
					<start>-1</start>
					<end>22661</end>
					<masterclipid>Svosj mu 3 1</masterclipid>
					<logginginfo>
						<scene/>
						<shottake/>
						<lognote/>
						<good>FALSE</good>
					</logginginfo>
					<labels>
						<label2/>
					</labels>
					<comments>
						<mastercomment1/>
						<mastercomment2/>
						<mastercomment3/>
						<mastercomment4/>
					</comments>
					<file id="Svosj mu 3 2"/>
					<filter>
						<effect>
							<name>Audio Levels</name>
							<effectid>audiolevels</effectid>
							<effectcategory>audiolevels</effectcategory>
							<effecttype>audiolevels</effecttype>
							<mediatype>audio</mediatype>
							<parameter>
								<name>Level</name>
								<parameterid>level</parameterid>
								<valuemin>0</valuemin>
								<valuemax>3.98109</valuemax>
								<value>0.794328</value>
							</parameter>
						</effect>
					</filter>
					<filter>
						<effect>
							<name>Audio Pan</name>
							<effectid>audiopan</effectid>
							<effectcategory>audiopan</effectcategory>
							<effecttype>audiopan</effecttype>
							<mediatype>audio</mediatype>
							<parameter>
								<name>Pan</name>
								<parameterid>pan</parameterid>
								<valuemin>-1</valuemin>
								<valuemax>1</valuemax>
								<value>1</value>
							</parameter>
						</effect>
					</filter>
					<sourcetrack>
						<mediatype>audio</mediatype>
						<trackindex>2</trackindex>
					</sourcetrack>
					<link>
						<linkclipref>Svosj mu 3 32</linkclipref>
						<mediatype>audio</mediatype>
						<trackindex>8</trackindex>
						<clipindex>17</clipindex>
						<groupindex>1</groupindex>
					</link>
					<link>
						<linkclipref>Svosj mu 3 33</linkclipref>
						<mediatype>audio</mediatype>
						<trackindex>9</trackindex>
						<clipindex>8</clipindex>
						<groupindex>1</groupindex>
					</link>
				</clipitem>
				<clipitem id="Svosj mu 3 35">
					<name>Svosj mu 3</name>
					<duration>1024</duration>
					<rate>
						<ntsc>FALSE</ntsc>
						<timebase>25</timebase>
					</rate>
					<in>0</in>
					<out>23</out>
					<start>23097</start>
					<end>-1</end>
					<masterclipid>Svosj mu 3 1</masterclipid>
					<logginginfo>
						<scene/>
						<shottake/>
						<lognote/>
						<good>FALSE</good>
					</logginginfo>
					<labels>
						<label2/>
					</labels>
					<comments>
						<mastercomment1/>
						<mastercomment2/>
						<mastercomment3/>
						<mastercomment4/>
					</comments>
					<file id="Svosj mu 3 2"/>
					<filter>
						<effect>
							<name>Audio Levels</name>
							<effectid>audiolevels</effectid>
							<effectcategory>audiolevels</effectcategory>
							<effecttype>audiolevels</effecttype>
							<mediatype>audio</mediatype>
							<parameter>
								<name>Level</name>
								<parameterid>level</parameterid>
								<valuemin>0</valuemin>
								<valuemax>3.98109</valuemax>
								<value>0.891251</value>
							</parameter>
						</effect>
					</filter>
					<filter>
						<effect>
							<name>Audio Pan</name>
							<effectid>audiopan</effectid>
							<effectcategory>audiopan</effectcategory>
							<effecttype>audiopan</effecttype>
							<mediatype>audio</mediatype>
							<parameter>
								<name>Pan</name>
								<parameterid>pan</parameterid>
								<valuemin>-1</valuemin>
								<valuemax>1</valuemax>
								<value>1</value>
							</parameter>
						</effect>
					</filter>
					<sourcetrack>
						<mediatype>audio</mediatype>
						<trackindex>2</trackindex>
					</sourcetrack>
					<link>
						<linkclipref>Svosj mu 3 34</linkclipref>
						<mediatype>audio</mediatype>
						<trackindex>8</trackindex>
						<clipindex>18</clipindex>
						<groupindex>1</groupindex>
					</link>
					<link>
						<linkclipref>Svosj mu 3 35</linkclipref>
						<mediatype>audio</mediatype>
						<trackindex>9</trackindex>
						<clipindex>9</clipindex>
						<groupindex>1</groupindex>
					</link>
				</clipitem>
				<transitionitem id="82">
					<rate>
						<ntsc>FALSE</ntsc>
						<timebase>25</timebase>
					</rate>
					<start>23113</start>
					<end>23120</end>
					<alignment>center</alignment>
					<effect>
						<name>Cross Fade ( 0dB)</name>
						<effecttype>transition</effecttype>
						<mediatype>audio</mediatype>
					</effect>
				</transitionitem>
				<clipitem id="Svosj mu 3 37">
					<name>Svosj mu 3</name>
					<duration>1024</duration>
					<rate>
						<ntsc>FALSE</ntsc>
						<timebase>25</timebase>
					</rate>
					<in>920</in>
					<out>974</out>
					<start>-1</start>
					<end>23167</end>
					<masterclipid>Svosj mu 3 1</masterclipid>
					<logginginfo>
						<scene/>
						<shottake/>
						<lognote/>
						<good>FALSE</good>
					</logginginfo>
					<labels>
						<label2/>
					</labels>
					<comments>
						<mastercomment1/>
						<mastercomment2/>
						<mastercomment3/>
						<mastercomment4/>
					</comments>
					<file id="Svosj mu 3 2"/>
					<filter>
						<effect>
							<name>Audio Levels</name>
							<effectid>audiolevels</effectid>
							<effectcategory>audiolevels</effectcategory>
							<effecttype>audiolevels</effecttype>
							<mediatype>audio</mediatype>
							<parameter>
								<name>Level</name>
								<parameterid>level</parameterid>
								<valuemin>0</valuemin>
								<valuemax>3.98109</valuemax>
								<value>1.12202</value>
							</parameter>
						</effect>
					</filter>
					<filter>
						<effect>
							<name>Audio Pan</name>
							<effectid>audiopan</effectid>
							<effectcategory>audiopan</effectcategory>
							<effecttype>audiopan</effecttype>
							<mediatype>audio</mediatype>
							<parameter>
								<name>Pan</name>
								<parameterid>pan</parameterid>
								<valuemin>-1</valuemin>
								<valuemax>1</valuemax>
								<value>1</value>
							</parameter>
						</effect>
					</filter>
					<sourcetrack>
						<mediatype>audio</mediatype>
						<trackindex>2</trackindex>
					</sourcetrack>
					<link>
						<linkclipref>Svosj mu 3 36</linkclipref>
						<mediatype>audio</mediatype>
						<trackindex>8</trackindex>
						<clipindex>20</clipindex>
						<groupindex>1</groupindex>
					</link>
					<link>
						<linkclipref>Svosj mu 3 37</linkclipref>
						<mediatype>audio</mediatype>
						<trackindex>9</trackindex>
						<clipindex>11</clipindex>
						<groupindex>1</groupindex>
					</link>
				</clipitem>
				<clipitem id="NONRO157426CD0009 Dead Against the Plan">
					<name>NONRO157426CD0009 Dead Against the Plan</name>
					<duration>5776</duration>
					<rate>
						<ntsc>FALSE</ntsc>
						<timebase>25</timebase>
					</rate>
					<in>50</in>
					<out>1318</out>
					<start>23780</start>
					<end>25048</end>
					<enabled>TRUE</enabled>
					<masterclipid>NONRO157426CD0009 Dead Against the Plan1</masterclipid>
					<logginginfo>
						<scene/>
						<shottake/>
						<lognote/>
						<good>FALSE</good>
					</logginginfo>
					<labels>
						<label2/>
					</labels>
					<comments>
						<mastercomment1/>
						<mastercomment2/>
						<mastercomment3/>
						<mastercomment4/>
					</comments>
					<file id="NONRO157426CD0009 Dead Against the Plan2">
						<name>NONRO157426CD0009 Dead Against the Plan.wav</name>
						<pathurl>file://localhost/SuperSAN1/Prosjekter/MSUB20000012%20FIN%20FREDAG/MUSIKK/LOVLIG%20FONO/Ephemera%20-%20Monolove%20(Ephemra%20records,%202004)/NONRO157426CD0009%20Dead%20Against%20the%20Plan.wav</pathurl>
						<rate>
							<timebase>25</timebase>
						</rate>
						<duration>5776</duration>
						<timecode>
							<rate>
								<timebase>25</timebase>
							</rate>
							<string>00:00:00:00</string>
							<frame>0</frame>
							<displayformat>NDF</displayformat>
							<source>source</source>
						</timecode>
						<media>
							<audio>
								<rate>
									<timebase>48000</timebase>
								</rate>
								<trackcount>2</trackcount>
								<samplecharacteristics>
									<depth>16</depth>
								</samplecharacteristics>
							</audio>
						</media>
					</file>
					<filter>
						<effect>
							<name>Audio Levels</name>
							<effectid>audiolevels</effectid>
							<effectcategory>audiolevels</effectcategory>
							<effecttype>audiolevels</effecttype>
							<mediatype>audio</mediatype>
							<parameter>
								<name>Level</name>
								<parameterid>level</parameterid>
								<valuemin>0</valuemin>
								<valuemax>3.98109</valuemax>
								<keyframe>
									<when>270.143</when>
									<value>0.446684</value>
								</keyframe>
								<keyframe>
									<when>355.518</when>
									<value>0.0891251</value>
								</keyframe>
								<keyframe>
									<when>471.232</when>
									<value>0.0891251</value>
								</keyframe>
								<keyframe>
									<when>538.25</when>
									<value>0.354813</value>
								</keyframe>
								<keyframe>
									<when>746</when>
									<value>0.354813</value>
								</keyframe>
								<keyframe>
									<when>774.5</when>
									<value>0.158489</value>
								</keyframe>
								<keyframe>
									<when>830.429</when>
									<value>0.158489</value>
								</keyframe>
								<keyframe>
									<when>857.429</when>
									<value>0.354813</value>
								</keyframe>
								<keyframe>
									<when>938.429</when>
									<value>0.354813</value>
								</keyframe>
								<keyframe>
									<when>969.286</when>
									<value>0.176883</value>
								</keyframe>
								<keyframe>
									<when>1002.43</when>
									<value>0.0251189</value>
								</keyframe>
								<keyframe>
									<when>1235.43</when>
									<value>0</value>
								</keyframe>
								<interpolation>
									<name>FCPCurve</name>
								</interpolation>
								<value>0.446684</value>
							</parameter>
						</effect>
					</filter>
					<filter>
						<effect>
							<name>Audio Pan</name>
							<effectid>audiopan</effectid>
							<effectcategory>audiopan</effectcategory>
							<effecttype>audiopan</effecttype>
							<mediatype>audio</mediatype>
							<parameter>
								<name>Pan</name>
								<parameterid>pan</parameterid>
								<valuemin>-1</valuemin>
								<valuemax>1</valuemax>
								<value>-1</value>
							</parameter>
						</effect>
					</filter>
					<sourcetrack>
						<mediatype>audio</mediatype>
						<trackindex>1</trackindex>
					</sourcetrack>
					<link>
						<linkclipref>NONRO157426CD0009 Dead Against the Plan</linkclipref>
						<mediatype>audio</mediatype>
						<trackindex>9</trackindex>
						<clipindex>12</clipindex>
						<groupindex>1</groupindex>
					</link>
					<link>
						<linkclipref>NONRO157426CD0009 Dead Against the Plan3</linkclipref>
						<mediatype>audio</mediatype>
						<trackindex>10</trackindex>
						<clipindex>14</clipindex>
						<groupindex>1</groupindex>
					</link>
				</clipitem>
				<transitionitem id="920877164 ">
					<rate>
						<ntsc>FALSE</ntsc>
						<timebase>25</timebase>
					</rate>
					<start>33417</start>
					<end>33423</end>
					<alignment>start-black</alignment>
					<effect>
						<name>Cross Fade (+3dB) Copy</name>
						<effecttype>transition</effecttype>
						<mediatype>audio</mediatype>
					</effect>
				</transitionitem>
				<clipitem id="AUXMP_UBMM213539_EL CLUSH.mp3 11">
					<name>AUXMP_UBMM213539_EL CLUSH.mp3</name>
					<duration>1338</duration>
					<rate>
						<ntsc>FALSE</ntsc>
						<timebase>25</timebase>
					</rate>
					<in>1313</in>
					<out>1335</out>
					<start>-1</start>
					<end>33439</end>
					<subframeoffset>0</subframeoffset>
					<masterclipid>AUXMP_UBMM213539_EL CLUSH.mp3 1</masterclipid>
					<logginginfo>
						<scene/>
						<shottake/>
						<lognote/>
						<good>FALSE</good>
					</logginginfo>
					<labels>
						<label2/>
					</labels>
					<comments>
						<mastercomment1/>
						<mastercomment2/>
						<mastercomment3/>
						<mastercomment4/>
					</comments>
					<file id="AUXMP_UBMM213539_EL CLUSH"/>
					<filter>
						<effect>
							<name>Audio Levels</name>
							<effectid>audiolevels</effectid>
							<effectcategory>audiolevels</effectcategory>
							<effecttype>audiolevels</effecttype>
							<mediatype>audio</mediatype>
							<parameter>
								<name>Level</name>
								<parameterid>level</parameterid>
								<valuemin>0</valuemin>
								<valuemax>3.98109</valuemax>
								<value>0.158489</value>
							</parameter>
						</effect>
					</filter>
					<filter>
						<effect>
							<name>Audio Pan</name>
							<effectid>audiopan</effectid>
							<effectcategory>audiopan</effectcategory>
							<effecttype>audiopan</effecttype>
							<mediatype>audio</mediatype>
							<parameter>
								<name>Pan</name>
								<parameterid>pan</parameterid>
								<valuemin>-1</valuemin>
								<valuemax>1</valuemax>
								<value>-1</value>
							</parameter>
						</effect>
					</filter>
					<sourcetrack>
						<mediatype>audio</mediatype>
						<trackindex>1</trackindex>
					</sourcetrack>
					<link>
						<linkclipref>AUXMP_UBMM213539_EL CLUSH.mp3 11</linkclipref>
						<mediatype>audio</mediatype>
						<trackindex>9</trackindex>
						<clipindex>14</clipindex>
						<groupindex>1</groupindex>
					</link>
					<link>
						<linkclipref>AUXMP_UBMM213539_EL CLUSH.mp3 12</linkclipref>
						<mediatype>audio</mediatype>
						<trackindex>10</trackindex>
						<clipindex>21</clipindex>
						<groupindex>1</groupindex>
					</link>
					<filter>
						<effect>
							<name>Time Remap</name>
							<effectid>timeremap</effectid>
							<effectcategory>motion</effectcategory>
							<effecttype>motion</effecttype>
							<mediatype>audio</mediatype>
							<parameter>
								<parameterid>variablespeed</parameterid>
								<name>variablespeed</name>
								<valuemin>0</valuemin>
								<valuemax>1</valuemax>
								<value>0</value>
							</parameter>
							<parameter>
								<parameterid>mappedduration</parameterid>
								<name>mappedduration</name>
								<value>
									<timecode>
										<rate>
											<timebase>0</timebase>
										</rate>
										<string>0</string>
										<frame>0</frame>
										<displayformat>NDF</displayformat>
									</timecode>
								</value>
							</parameter>
							<parameter>
								<parameterid>speed</parameterid>
								<name>speed</name>
								<valuemin>-10000</valuemin>
								<valuemax>10000</valuemax>
								<value>59</value>
							</parameter>
							<parameter>
								<parameterid>reverse</parameterid>
								<name>reverse</name>
								<value>TRUE</value>
							</parameter>
							<parameter>
								<parameterid>frameblending</parameterid>
								<name>frameblending</name>
								<value>TRUE</value>
							</parameter>
							<parameter>
								<parameterid>graphdict</parameterid>
								<name>graphdict</name>
								<valuemin>0</valuemin>
								<valuemax>796</valuemax>
								<keyframe>
									<when>0</when>
									<value>798.139</value>
									<speedkfstart>TRUE</speedkfstart>
									<speedvirtualkf>TRUE</speedvirtualkf>
								</keyframe>
								<keyframe>
									<when>1313</when>
									<value>15.4276</value>
									<speedkfin>TRUE</speedkfin>
									<speedvirtualkf>TRUE</speedvirtualkf>
								</keyframe>
								<keyframe>
									<when>1335</when>
									<value>2.32966</value>
									<speedkfout>TRUE</speedkfout>
									<speedvirtualkf>TRUE</speedvirtualkf>
								</keyframe>
								<keyframe>
									<when>1338</when>
									<value>1.1389</value>
									<speedkfend>TRUE</speedkfend>
									<speedvirtualkf>TRUE</speedvirtualkf>
								</keyframe>
								<interpolation>
									<name>FCPCurve</name>
								</interpolation>
								<value>14.4276</value>
							</parameter>
						</effect>
					</filter>
				</clipitem>
				<enabled>TRUE</enabled>
				<locked>FALSE</locked>
				<outputchannelindex>2</outputchannelindex>
			</track>
			<track>
				<clipitem id="Svosj mu 3 38">
					<name>Svosj mu 3</name>
					<duration>1024</duration>
					<rate>
						<ntsc>FALSE</ntsc>
						<timebase>25</timebase>
					</rate>
					<in>0</in>
					<out>23</out>
					<start>1145</start>
					<end>-1</end>
					<enabled>TRUE</enabled>
					<masterclipid>Svosj mu 3 1</masterclipid>
					<logginginfo>
						<scene/>
						<shottake/>
						<lognote/>
						<good>FALSE</good>
					</logginginfo>
					<labels>
						<label2/>
					</labels>
					<comments>
						<mastercomment1/>
						<mastercomment2/>
						<mastercomment3/>
						<mastercomment4/>
					</comments>
					<file id="Svosj mu 3 2"/>
					<filter>
						<effect>
							<name>Audio Levels</name>
							<effectid>audiolevels</effectid>
							<effectcategory>audiolevels</effectcategory>
							<effecttype>audiolevels</effecttype>
							<mediatype>audio</mediatype>
							<parameter>
								<name>Level</name>
								<parameterid>level</parameterid>
								<valuemin>0</valuemin>
								<valuemax>3.98109</valuemax>
								<value>0.501187</value>
							</parameter>
						</effect>
					</filter>
					<filter>
						<effect>
							<name>Audio Pan</name>
							<effectid>audiopan</effectid>
							<effectcategory>audiopan</effectcategory>
							<effecttype>audiopan</effecttype>
							<mediatype>audio</mediatype>
							<parameter>
								<name>Pan</name>
								<parameterid>pan</parameterid>
								<valuemin>-1</valuemin>
								<valuemax>1</valuemax>
								<value>-1</value>
							</parameter>
						</effect>
					</filter>
					<sourcetrack>
						<mediatype>audio</mediatype>
						<trackindex>1</trackindex>
					</sourcetrack>
					<link>
						<linkclipref>Svosj mu 3 38</linkclipref>
						<mediatype>audio</mediatype>
						<trackindex>10</trackindex>
						<clipindex>1</clipindex>
						<groupindex>1</groupindex>
					</link>
					<link>
						<linkclipref>Svosj mu 3 39</linkclipref>
						<mediatype>audio</mediatype>
						<trackindex>11</trackindex>
						<clipindex>1</clipindex>
						<groupindex>1</groupindex>
					</link>
				</clipitem>
				<transitionitem id="83">
					<rate>
						<ntsc>FALSE</ntsc>
						<timebase>25</timebase>
					</rate>
					<start>1161</start>
					<end>1168</end>
					<alignment>center</alignment>
					<effect>
						<name>Cross Fade ( 0dB)</name>
						<effecttype>transition</effecttype>
						<mediatype>audio</mediatype>
					</effect>
				</transitionitem>
				<clipitem id="Svosj mu 3 40">
					<name>Svosj mu 3</name>
					<duration>1024</duration>
					<rate>
						<ntsc>FALSE</ntsc>
						<timebase>25</timebase>
					</rate>
					<in>920</in>
					<out>974</out>
					<start>-1</start>
					<end>1215</end>
					<enabled>TRUE</enabled>
					<masterclipid>Svosj mu 3 1</masterclipid>
					<logginginfo>
						<scene/>
						<shottake/>
						<lognote/>
						<good>FALSE</good>
					</logginginfo>
					<labels>
						<label2/>
					</labels>
					<comments>
						<mastercomment1/>
						<mastercomment2/>
						<mastercomment3/>
						<mastercomment4/>
					</comments>
					<file id="Svosj mu 3 2"/>
					<filter>
						<effect>
							<name>Audio Levels</name>
							<effectid>audiolevels</effectid>
							<effectcategory>audiolevels</effectcategory>
							<effecttype>audiolevels</effecttype>
							<mediatype>audio</mediatype>
							<parameter>
								<name>Level</name>
								<parameterid>level</parameterid>
								<valuemin>0</valuemin>
								<valuemax>3.98109</valuemax>
								<value>0.501187</value>
							</parameter>
						</effect>
					</filter>
					<filter>
						<effect>
							<name>Audio Pan</name>
							<effectid>audiopan</effectid>
							<effectcategory>audiopan</effectcategory>
							<effecttype>audiopan</effecttype>
							<mediatype>audio</mediatype>
							<parameter>
								<name>Pan</name>
								<parameterid>pan</parameterid>
								<valuemin>-1</valuemin>
								<valuemax>1</valuemax>
								<value>-1</value>
							</parameter>
						</effect>
					</filter>
					<sourcetrack>
						<mediatype>audio</mediatype>
						<trackindex>1</trackindex>
					</sourcetrack>
					<link>
						<linkclipref>Svosj mu 3 40</linkclipref>
						<mediatype>audio</mediatype>
						<trackindex>10</trackindex>
						<clipindex>3</clipindex>
						<groupindex>1</groupindex>
					</link>
					<link>
						<linkclipref>Svosj mu 3 41</linkclipref>
						<mediatype>audio</mediatype>
						<trackindex>11</trackindex>
						<clipindex>3</clipindex>
						<groupindex>1</groupindex>
					</link>
				</clipitem>
				<clipitem id="31 Funny, Crazy Man Laughs..aif">
					<name>31 Funny, Crazy Man Laughs..aif</name>
					<duration>127</duration>
					<rate>
						<ntsc>FALSE</ntsc>
						<timebase>25</timebase>
					</rate>
					<in>6</in>
					<out>35</out>
					<start>2516</start>
					<end>2545</end>
					<subframeoffset>0</subframeoffset>
					<enabled>TRUE</enabled>
					<masterclipid>31 Funny, Crazy Man Laughs..aif1</masterclipid>
					<logginginfo>
						<scene/>
						<shottake/>
						<lognote/>
						<good>FALSE</good>
					</logginginfo>
					<labels>
						<label2/>
					</labels>
					<comments>
						<mastercomment1/>
						<mastercomment2/>
						<mastercomment3/>
						<mastercomment4/>
					</comments>
					<file id="31 Funny, Crazy Man Laughs.">
						<name>31 Funny, Crazy Man Laughs..aif</name>
						<pathurl>file://localhost/SuperSAN1/Prosjekter/MSUB20000012%20FIN%20FREDAG/SFX/31%20Funny,%20Crazy%20Man%20Laughs..aif</pathurl>
						<rate>
							<timebase>25</timebase>
						</rate>
						<duration>127</duration>
						<media>
							<audio>
								<rate>
									<timebase>44100</timebase>
								</rate>
								<trackcount>2</trackcount>
								<samplecharacteristics>
									<depth>16</depth>
								</samplecharacteristics>
							</audio>
						</media>
					</file>
					<filter>
						<effect>
							<name>Audio Levels</name>
							<effectid>audiolevels</effectid>
							<effectcategory>audiolevels</effectcategory>
							<effecttype>audiolevels</effecttype>
							<mediatype>audio</mediatype>
							<parameter>
								<name>Level</name>
								<parameterid>level</parameterid>
								<valuemin>0</valuemin>
								<valuemax>3.98109</valuemax>
								<value>0.501187</value>
							</parameter>
						</effect>
					</filter>
					<filter>
						<effect>
							<name>Audio Pan</name>
							<effectid>audiopan</effectid>
							<effectcategory>audiopan</effectcategory>
							<effecttype>audiopan</effecttype>
							<mediatype>audio</mediatype>
							<parameter>
								<name>Pan</name>
								<parameterid>pan</parameterid>
								<valuemin>-1</valuemin>
								<valuemax>1</valuemax>
								<value>-1</value>
							</parameter>
						</effect>
					</filter>
					<sourcetrack>
						<mediatype>audio</mediatype>
						<trackindex>1</trackindex>
					</sourcetrack>
					<link>
						<linkclipref>31 Funny, Crazy Man Laughs..aif</linkclipref>
						<mediatype>audio</mediatype>
						<trackindex>10</trackindex>
						<clipindex>4</clipindex>
						<groupindex>1</groupindex>
					</link>
					<link>
						<linkclipref>31 Funny, Crazy Man Laughs..aif2</linkclipref>
						<mediatype>audio</mediatype>
						<trackindex>11</trackindex>
						<clipindex>4</clipindex>
						<groupindex>1</groupindex>
					</link>
				</clipitem>
				<clipitem id="32 Funny, Crazy Man Laughing - 2x..aif">
					<name>32 Funny, Crazy Man Laughing - 2x..aif</name>
					<duration>405</duration>
					<rate>
						<ntsc>FALSE</ntsc>
						<timebase>25</timebase>
					</rate>
					<in>277</in>
					<out>305</out>
					<start>3087</start>
					<end>3115</end>
					<subframeoffset>0</subframeoffset>
					<enabled>TRUE</enabled>
					<masterclipid>32 Funny, Crazy Man Laughing - 2x..aif1</masterclipid>
					<logginginfo>
						<scene/>
						<shottake/>
						<lognote/>
						<good>FALSE</good>
					</logginginfo>
					<labels>
						<label2/>
					</labels>
					<comments>
						<mastercomment1/>
						<mastercomment2/>
						<mastercomment3/>
						<mastercomment4/>
					</comments>
					<file id="32 Funny, Crazy Man Laughing - 2x.">
						<name>32 Funny, Crazy Man Laughing - 2x..aif</name>
						<pathurl>file://localhost/SuperSAN1/Prosjekter/MSUB20000012%20FIN%20FREDAG/SFX/32%20Funny,%20Crazy%20Man%20Laughing%20-%202x..aif</pathurl>
						<rate>
							<timebase>25</timebase>
						</rate>
						<duration>405</duration>
						<media>
							<audio>
								<rate>
									<timebase>44100</timebase>
								</rate>
								<trackcount>2</trackcount>
								<samplecharacteristics>
									<depth>16</depth>
								</samplecharacteristics>
							</audio>
						</media>
					</file>
					<filter>
						<effect>
							<name>Audio Levels</name>
							<effectid>audiolevels</effectid>
							<effectcategory>audiolevels</effectcategory>
							<effecttype>audiolevels</effecttype>
							<mediatype>audio</mediatype>
							<parameter>
								<name>Level</name>
								<parameterid>level</parameterid>
								<valuemin>0</valuemin>
								<valuemax>3.98109</valuemax>
								<value>0.281838</value>
							</parameter>
						</effect>
					</filter>
					<filter>
						<effect>
							<name>Audio Pan</name>
							<effectid>audiopan</effectid>
							<effectcategory>audiopan</effectcategory>
							<effecttype>audiopan</effecttype>
							<mediatype>audio</mediatype>
							<parameter>
								<name>Pan</name>
								<parameterid>pan</parameterid>
								<valuemin>-1</valuemin>
								<valuemax>1</valuemax>
								<value>-1</value>
							</parameter>
						</effect>
					</filter>
					<sourcetrack>
						<mediatype>audio</mediatype>
						<trackindex>1</trackindex>
					</sourcetrack>
					<link>
						<linkclipref>32 Funny, Crazy Man Laughing - 2x..aif</linkclipref>
						<mediatype>audio</mediatype>
						<trackindex>10</trackindex>
						<clipindex>5</clipindex>
						<groupindex>1</groupindex>
					</link>
					<link>
						<linkclipref>32 Funny, Crazy Man Laughing - 2x..aif2</linkclipref>
						<mediatype>audio</mediatype>
						<trackindex>11</trackindex>
						<clipindex>5</clipindex>
						<groupindex>1</groupindex>
					</link>
				</clipitem>
				<transitionitem id="920881176 ">
					<rate>
						<ntsc>FALSE</ntsc>
						<timebase>25</timebase>
					</rate>
					<start>3115</start>
					<end>3121</end>
					<alignment>start-black</alignment>
					<effect>
						<name>Cross Fade (+3dB)</name>
						<effecttype>transition</effecttype>
						<mediatype>audio</mediatype>
					</effect>
				</transitionitem>
				<clipitem id="32 Funny, Crazy Man Laughing - 2x..aif3">
					<name>32 Funny, Crazy Man Laughing - 2x..aif</name>
					<duration>405</duration>
					<rate>
						<ntsc>FALSE</ntsc>
						<timebase>25</timebase>
					</rate>
					<in>45</in>
					<out>75</out>
					<start>-1</start>
					<end>-1</end>
					<subframeoffset>0</subframeoffset>
					<enabled>TRUE</enabled>
					<masterclipid>32 Funny, Crazy Man Laughing - 2x..aif1</masterclipid>
					<logginginfo>
						<scene/>
						<shottake/>
						<lognote/>
						<good>FALSE</good>
					</logginginfo>
					<labels>
						<label2/>
					</labels>
					<comments>
						<mastercomment1/>
						<mastercomment2/>
						<mastercomment3/>
						<mastercomment4/>
					</comments>
					<file id="32 Funny, Crazy Man Laughing - 2x."/>
					<filter>
						<effect>
							<name>Audio Levels</name>
							<effectid>audiolevels</effectid>
							<effectcategory>audiolevels</effectcategory>
							<effecttype>audiolevels</effecttype>
							<mediatype>audio</mediatype>
							<parameter>
								<name>Level</name>
								<parameterid>level</parameterid>
								<valuemin>0</valuemin>
								<valuemax>3.98109</valuemax>
								<value>0.354813</value>
							</parameter>
						</effect>
					</filter>
					<filter>
						<effect>
							<name>Audio Pan</name>
							<effectid>audiopan</effectid>
							<effectcategory>audiopan</effectcategory>
							<effecttype>audiopan</effecttype>
							<mediatype>audio</mediatype>
							<parameter>
								<name>Pan</name>
								<parameterid>pan</parameterid>
								<valuemin>-1</valuemin>
								<valuemax>1</valuemax>
								<value>-1</value>
							</parameter>
						</effect>
					</filter>
					<sourcetrack>
						<mediatype>audio</mediatype>
						<trackindex>1</trackindex>
					</sourcetrack>
					<link>
						<linkclipref>32 Funny, Crazy Man Laughing - 2x..aif3</linkclipref>
						<mediatype>audio</mediatype>
						<trackindex>10</trackindex>
						<clipindex>7</clipindex>
						<groupindex>1</groupindex>
					</link>
					<link>
						<linkclipref>32 Funny, Crazy Man Laughing - 2x..aif4</linkclipref>
						<mediatype>audio</mediatype>
						<trackindex>11</trackindex>
						<clipindex>7</clipindex>
						<groupindex>1</groupindex>
					</link>
				</clipitem>
				<transitionitem id="920881924 ">
					<rate>
						<ntsc>FALSE</ntsc>
						<timebase>25</timebase>
					</rate>
					<start>3133</start>
					<end>3145</end>
					<alignment>center</alignment>
					<effect>
						<name>Cross Fade (+3dB)</name>
						<effecttype>transition</effecttype>
						<mediatype>audio</mediatype>
					</effect>
				</transitionitem>
				<clipitem id="31 Funny, Crazy Man Laughs..aif3">
					<name>31 Funny, Crazy Man Laughs..aif</name>
					<duration>127</duration>
					<rate>
						<ntsc>FALSE</ntsc>
						<timebase>25</timebase>
					</rate>
					<in>6</in>
					<out>35</out>
					<start>21691</start>
					<end>21720</end>
					<subframeoffset>0</subframeoffset>
					<enabled>TRUE</enabled>
					<masterclipid>31 Funny, Crazy Man Laughs..aif1</masterclipid>
					<logginginfo>
						<scene/>
						<shottake/>
						<lognote/>
						<good>FALSE</good>
					</logginginfo>
					<labels>
						<label2/>
					</labels>
					<comments>
						<mastercomment1/>
						<mastercomment2/>
						<mastercomment3/>
						<mastercomment4/>
					</comments>
					<file id="31 Funny, Crazy Man Laughs."/>
					<filter>
						<effect>
							<name>Audio Levels</name>
							<effectid>audiolevels</effectid>
							<effectcategory>audiolevels</effectcategory>
							<effecttype>audiolevels</effecttype>
							<mediatype>audio</mediatype>
							<parameter>
								<name>Level</name>
								<parameterid>level</parameterid>
								<valuemin>0</valuemin>
								<valuemax>3.98109</valuemax>
								<value>0.501187</value>
							</parameter>
						</effect>
					</filter>
					<filter>
						<effect>
							<name>Audio Pan</name>
							<effectid>audiopan</effectid>
							<effectcategory>audiopan</effectcategory>
							<effecttype>audiopan</effecttype>
							<mediatype>audio</mediatype>
							<parameter>
								<name>Pan</name>
								<parameterid>pan</parameterid>
								<valuemin>-1</valuemin>
								<valuemax>1</valuemax>
								<value>-1</value>
							</parameter>
						</effect>
					</filter>
					<sourcetrack>
						<mediatype>audio</mediatype>
						<trackindex>1</trackindex>
					</sourcetrack>
					<link>
						<linkclipref>31 Funny, Crazy Man Laughs..aif3</linkclipref>
						<mediatype>audio</mediatype>
						<trackindex>10</trackindex>
						<clipindex>9</clipindex>
						<groupindex>1</groupindex>
					</link>
					<link>
						<linkclipref>31 Funny, Crazy Man Laughs..aif4</linkclipref>
						<mediatype>audio</mediatype>
						<trackindex>11</trackindex>
						<clipindex>9</clipindex>
						<groupindex>1</groupindex>
					</link>
				</clipitem>
				<clipitem id="32 Funny, Crazy Man Laughing - 2x..aif5">
					<name>32 Funny, Crazy Man Laughing - 2x..aif</name>
					<duration>405</duration>
					<rate>
						<ntsc>FALSE</ntsc>
						<timebase>25</timebase>
					</rate>
					<in>277</in>
					<out>305</out>
					<start>22571</start>
					<end>22599</end>
					<subframeoffset>0</subframeoffset>
					<masterclipid>32 Funny, Crazy Man Laughing - 2x..aif1</masterclipid>
					<logginginfo>
						<scene/>
						<shottake/>
						<lognote/>
						<good>FALSE</good>
					</logginginfo>
					<labels>
						<label2/>
					</labels>
					<comments>
						<mastercomment1/>
						<mastercomment2/>
						<mastercomment3/>
						<mastercomment4/>
					</comments>
					<file id="32 Funny, Crazy Man Laughing - 2x."/>
					<filter>
						<effect>
							<name>Audio Levels</name>
							<effectid>audiolevels</effectid>
							<effectcategory>audiolevels</effectcategory>
							<effecttype>audiolevels</effecttype>
							<mediatype>audio</mediatype>
							<parameter>
								<name>Level</name>
								<parameterid>level</parameterid>
								<valuemin>0</valuemin>
								<valuemax>3.98109</valuemax>
								<value>0.281838</value>
							</parameter>
						</effect>
					</filter>
					<filter>
						<effect>
							<name>Audio Pan</name>
							<effectid>audiopan</effectid>
							<effectcategory>audiopan</effectcategory>
							<effecttype>audiopan</effecttype>
							<mediatype>audio</mediatype>
							<parameter>
								<name>Pan</name>
								<parameterid>pan</parameterid>
								<valuemin>-1</valuemin>
								<valuemax>1</valuemax>
								<value>-1</value>
							</parameter>
						</effect>
					</filter>
					<sourcetrack>
						<mediatype>audio</mediatype>
						<trackindex>1</trackindex>
					</sourcetrack>
					<link>
						<linkclipref>32 Funny, Crazy Man Laughing - 2x..aif5</linkclipref>
						<mediatype>audio</mediatype>
						<trackindex>10</trackindex>
						<clipindex>10</clipindex>
						<groupindex>1</groupindex>
					</link>
					<link>
						<linkclipref>32 Funny, Crazy Man Laughing - 2x..aif6</linkclipref>
						<mediatype>audio</mediatype>
						<trackindex>11</trackindex>
						<clipindex>10</clipindex>
						<groupindex>1</groupindex>
					</link>
				</clipitem>
				<transitionitem id="920883012 ">
					<rate>
						<ntsc>FALSE</ntsc>
						<timebase>25</timebase>
					</rate>
					<start>22599</start>
					<end>22605</end>
					<alignment>start-black</alignment>
					<effect>
						<name>Cross Fade (+3dB)</name>
						<effecttype>transition</effecttype>
						<mediatype>audio</mediatype>
					</effect>
				</transitionitem>
				<clipitem id="32 Funny, Crazy Man Laughing - 2x..aif7">
					<name>32 Funny, Crazy Man Laughing - 2x..aif</name>
					<duration>405</duration>
					<rate>
						<ntsc>FALSE</ntsc>
						<timebase>25</timebase>
					</rate>
					<in>45</in>
					<out>69</out>
					<start>-1</start>
					<end>-1</end>
					<subframeoffset>0</subframeoffset>
					<masterclipid>32 Funny, Crazy Man Laughing - 2x..aif1</masterclipid>
					<logginginfo>
						<scene/>
						<shottake/>
						<lognote/>
						<good>FALSE</good>
					</logginginfo>
					<labels>
						<label2/>
					</labels>
					<comments>
						<mastercomment1/>
						<mastercomment2/>
						<mastercomment3/>
						<mastercomment4/>
					</comments>
					<file id="32 Funny, Crazy Man Laughing - 2x."/>
					<filter>
						<effect>
							<name>Audio Levels</name>
							<effectid>audiolevels</effectid>
							<effectcategory>audiolevels</effectcategory>
							<effecttype>audiolevels</effecttype>
							<mediatype>audio</mediatype>
							<parameter>
								<name>Level</name>
								<parameterid>level</parameterid>
								<valuemin>0</valuemin>
								<valuemax>3.98109</valuemax>
								<value>0.354813</value>
							</parameter>
						</effect>
					</filter>
					<filter>
						<effect>
							<name>Audio Pan</name>
							<effectid>audiopan</effectid>
							<effectcategory>audiopan</effectcategory>
							<effecttype>audiopan</effecttype>
							<mediatype>audio</mediatype>
							<parameter>
								<name>Pan</name>
								<parameterid>pan</parameterid>
								<valuemin>-1</valuemin>
								<valuemax>1</valuemax>
								<value>-1</value>
							</parameter>
						</effect>
					</filter>
					<sourcetrack>
						<mediatype>audio</mediatype>
						<trackindex>1</trackindex>
					</sourcetrack>
					<link>
						<linkclipref>32 Funny, Crazy Man Laughing - 2x..aif7</linkclipref>
						<mediatype>audio</mediatype>
						<trackindex>10</trackindex>
						<clipindex>12</clipindex>
						<groupindex>1</groupindex>
					</link>
					<link>
						<linkclipref>32 Funny, Crazy Man Laughing - 2x..aif8</linkclipref>
						<mediatype>audio</mediatype>
						<trackindex>11</trackindex>
						<clipindex>12</clipindex>
						<groupindex>1</groupindex>
					</link>
				</clipitem>
				<transitionitem id="920883828 ">
					<rate>
						<ntsc>FALSE</ntsc>
						<timebase>25</timebase>
					</rate>
					<start>22617</start>
					<end>22623</end>
					<alignment>end-black</alignment>
					<effect>
						<name>Cross Fade (+3dB)</name>
						<effecttype>transition</effecttype>
						<mediatype>audio</mediatype>
					</effect>
				</transitionitem>
				<clipitem id="NONRO157426CD0009 Dead Against the Plan3">
					<name>NONRO157426CD0009 Dead Against the Plan</name>
					<duration>5776</duration>
					<rate>
						<ntsc>FALSE</ntsc>
						<timebase>25</timebase>
					</rate>
					<in>50</in>
					<out>1318</out>
					<start>23780</start>
					<end>25048</end>
					<enabled>TRUE</enabled>
					<masterclipid>NONRO157426CD0009 Dead Against the Plan1</masterclipid>
					<logginginfo>
						<scene/>
						<shottake/>
						<lognote/>
						<good>FALSE</good>
					</logginginfo>
					<labels>
						<label2/>
					</labels>
					<comments>
						<mastercomment1/>
						<mastercomment2/>
						<mastercomment3/>
						<mastercomment4/>
					</comments>
					<file id="NONRO157426CD0009 Dead Against the Plan2"/>
					<filter>
						<effect>
							<name>Audio Levels</name>
							<effectid>audiolevels</effectid>
							<effectcategory>audiolevels</effectcategory>
							<effecttype>audiolevels</effecttype>
							<mediatype>audio</mediatype>
							<parameter>
								<name>Level</name>
								<parameterid>level</parameterid>
								<valuemin>0</valuemin>
								<valuemax>3.98109</valuemax>
								<keyframe>
									<when>270.143</when>
									<value>0.446684</value>
								</keyframe>
								<keyframe>
									<when>355.518</when>
									<value>0.0891251</value>
								</keyframe>
								<keyframe>
									<when>471.232</when>
									<value>0.0891251</value>
								</keyframe>
								<keyframe>
									<when>538.25</when>
									<value>0.354813</value>
								</keyframe>
								<keyframe>
									<when>746</when>
									<value>0.354813</value>
								</keyframe>
								<keyframe>
									<when>774.5</when>
									<value>0.158489</value>
								</keyframe>
								<keyframe>
									<when>830.429</when>
									<value>0.158489</value>
								</keyframe>
								<keyframe>
									<when>857.429</when>
									<value>0.354813</value>
								</keyframe>
								<keyframe>
									<when>938.429</when>
									<value>0.354813</value>
								</keyframe>
								<keyframe>
									<when>969.286</when>
									<value>0.176883</value>
								</keyframe>
								<keyframe>
									<when>1002.43</when>
									<value>0.0251189</value>
								</keyframe>
								<keyframe>
									<when>1235.43</when>
									<value>0</value>
								</keyframe>
								<interpolation>
									<name>FCPCurve</name>
								</interpolation>
								<value>0.446684</value>
							</parameter>
						</effect>
					</filter>
					<filter>
						<effect>
							<name>Audio Pan</name>
							<effectid>audiopan</effectid>
							<effectcategory>audiopan</effectcategory>
							<effecttype>audiopan</effecttype>
							<mediatype>audio</mediatype>
							<parameter>
								<name>Pan</name>
								<parameterid>pan</parameterid>
								<valuemin>-1</valuemin>
								<valuemax>1</valuemax>
								<value>1</value>
							</parameter>
						</effect>
					</filter>
					<sourcetrack>
						<mediatype>audio</mediatype>
						<trackindex>2</trackindex>
					</sourcetrack>
					<link>
						<linkclipref>NONRO157426CD0009 Dead Against the Plan</linkclipref>
						<mediatype>audio</mediatype>
						<trackindex>9</trackindex>
						<clipindex>12</clipindex>
						<groupindex>1</groupindex>
					</link>
					<link>
						<linkclipref>NONRO157426CD0009 Dead Against the Plan3</linkclipref>
						<mediatype>audio</mediatype>
						<trackindex>10</trackindex>
						<clipindex>14</clipindex>
						<groupindex>1</groupindex>
					</link>
				</clipitem>
				<clipitem id="31 Funny, Crazy Man Laughs..aif5">
					<name>31 Funny, Crazy Man Laughs..aif</name>
					<duration>127</duration>
					<rate>
						<ntsc>FALSE</ntsc>
						<timebase>25</timebase>
					</rate>
					<in>6</in>
					<out>35</out>
					<start>28326</start>
					<end>28355</end>
					<subframeoffset>0</subframeoffset>
					<enabled>TRUE</enabled>
					<masterclipid>31 Funny, Crazy Man Laughs..aif1</masterclipid>
					<logginginfo>
						<scene/>
						<shottake/>
						<lognote/>
						<good>FALSE</good>
					</logginginfo>
					<labels>
						<label2/>
					</labels>
					<comments>
						<mastercomment1/>
						<mastercomment2/>
						<mastercomment3/>
						<mastercomment4/>
					</comments>
					<file id="31 Funny, Crazy Man Laughs."/>
					<filter>
						<effect>
							<name>Audio Levels</name>
							<effectid>audiolevels</effectid>
							<effectcategory>audiolevels</effectcategory>
							<effecttype>audiolevels</effecttype>
							<mediatype>audio</mediatype>
							<parameter>
								<name>Level</name>
								<parameterid>level</parameterid>
								<valuemin>0</valuemin>
								<valuemax>3.98109</valuemax>
								<value>0.501187</value>
							</parameter>
						</effect>
					</filter>
					<filter>
						<effect>
							<name>Audio Pan</name>
							<effectid>audiopan</effectid>
							<effectcategory>audiopan</effectcategory>
							<effecttype>audiopan</effecttype>
							<mediatype>audio</mediatype>
							<parameter>
								<name>Pan</name>
								<parameterid>pan</parameterid>
								<valuemin>-1</valuemin>
								<valuemax>1</valuemax>
								<value>-1</value>
							</parameter>
						</effect>
					</filter>
					<sourcetrack>
						<mediatype>audio</mediatype>
						<trackindex>1</trackindex>
					</sourcetrack>
					<link>
						<linkclipref>31 Funny, Crazy Man Laughs..aif5</linkclipref>
						<mediatype>audio</mediatype>
						<trackindex>10</trackindex>
						<clipindex>15</clipindex>
						<groupindex>1</groupindex>
					</link>
					<link>
						<linkclipref>31 Funny, Crazy Man Laughs..aif6</linkclipref>
						<mediatype>audio</mediatype>
						<trackindex>11</trackindex>
						<clipindex>14</clipindex>
						<groupindex>1</groupindex>
					</link>
				</clipitem>
				<clipitem id="32 Funny, Crazy Man Laughing - 2x..aif9">
					<name>32 Funny, Crazy Man Laughing - 2x..aif</name>
					<duration>405</duration>
					<rate>
						<ntsc>FALSE</ntsc>
						<timebase>25</timebase>
					</rate>
					<in>277</in>
					<out>305</out>
					<start>28723</start>
					<end>28751</end>
					<subframeoffset>0</subframeoffset>
					<enabled>TRUE</enabled>
					<masterclipid>32 Funny, Crazy Man Laughing - 2x..aif1</masterclipid>
					<logginginfo>
						<scene/>
						<shottake/>
						<lognote/>
						<good>FALSE</good>
					</logginginfo>
					<labels>
						<label2/>
					</labels>
					<comments>
						<mastercomment1/>
						<mastercomment2/>
						<mastercomment3/>
						<mastercomment4/>
					</comments>
					<file id="32 Funny, Crazy Man Laughing - 2x."/>
					<filter>
						<effect>
							<name>Audio Levels</name>
							<effectid>audiolevels</effectid>
							<effectcategory>audiolevels</effectcategory>
							<effecttype>audiolevels</effecttype>
							<mediatype>audio</mediatype>
							<parameter>
								<name>Level</name>
								<parameterid>level</parameterid>
								<valuemin>0</valuemin>
								<valuemax>3.98109</valuemax>
								<value>0.281838</value>
							</parameter>
						</effect>
					</filter>
					<filter>
						<effect>
							<name>Audio Pan</name>
							<effectid>audiopan</effectid>
							<effectcategory>audiopan</effectcategory>
							<effecttype>audiopan</effecttype>
							<mediatype>audio</mediatype>
							<parameter>
								<name>Pan</name>
								<parameterid>pan</parameterid>
								<valuemin>-1</valuemin>
								<valuemax>1</valuemax>
								<value>-1</value>
							</parameter>
						</effect>
					</filter>
					<sourcetrack>
						<mediatype>audio</mediatype>
						<trackindex>1</trackindex>
					</sourcetrack>
					<link>
						<linkclipref>32 Funny, Crazy Man Laughing - 2x..aif9</linkclipref>
						<mediatype>audio</mediatype>
						<trackindex>10</trackindex>
						<clipindex>16</clipindex>
						<groupindex>1</groupindex>
					</link>
					<link>
						<linkclipref>32 Funny, Crazy Man Laughing - 2x..aif10</linkclipref>
						<mediatype>audio</mediatype>
						<trackindex>11</trackindex>
						<clipindex>15</clipindex>
						<groupindex>1</groupindex>
					</link>
				</clipitem>
				<transitionitem id="920885188 ">
					<rate>
						<ntsc>FALSE</ntsc>
						<timebase>25</timebase>
					</rate>
					<start>28751</start>
					<end>28757</end>
					<alignment>start-black</alignment>
					<effect>
						<name>Cross Fade (+3dB)</name>
						<effecttype>transition</effecttype>
						<mediatype>audio</mediatype>
					</effect>
				</transitionitem>
				<clipitem id="32 Funny, Crazy Man Laughing - 2x..aif11">
					<name>32 Funny, Crazy Man Laughing - 2x..aif</name>
					<duration>405</duration>
					<rate>
						<ntsc>FALSE</ntsc>
						<timebase>25</timebase>
					</rate>
					<in>45</in>
					<out>75</out>
					<start>-1</start>
					<end>-1</end>
					<subframeoffset>0</subframeoffset>
					<enabled>TRUE</enabled>
					<masterclipid>32 Funny, Crazy Man Laughing - 2x..aif1</masterclipid>
					<logginginfo>
						<scene/>
						<shottake/>
						<lognote/>
						<good>FALSE</good>
					</logginginfo>
					<labels>
						<label2/>
					</labels>
					<comments>
						<mastercomment1/>
						<mastercomment2/>
						<mastercomment3/>
						<mastercomment4/>
					</comments>
					<file id="32 Funny, Crazy Man Laughing - 2x."/>
					<filter>
						<effect>
							<name>Audio Levels</name>
							<effectid>audiolevels</effectid>
							<effectcategory>audiolevels</effectcategory>
							<effecttype>audiolevels</effecttype>
							<mediatype>audio</mediatype>
							<parameter>
								<name>Level</name>
								<parameterid>level</parameterid>
								<valuemin>0</valuemin>
								<valuemax>3.98109</valuemax>
								<value>0.354813</value>
							</parameter>
						</effect>
					</filter>
					<filter>
						<effect>
							<name>Audio Pan</name>
							<effectid>audiopan</effectid>
							<effectcategory>audiopan</effectcategory>
							<effecttype>audiopan</effecttype>
							<mediatype>audio</mediatype>
							<parameter>
								<name>Pan</name>
								<parameterid>pan</parameterid>
								<valuemin>-1</valuemin>
								<valuemax>1</valuemax>
								<value>-1</value>
							</parameter>
						</effect>
					</filter>
					<sourcetrack>
						<mediatype>audio</mediatype>
						<trackindex>1</trackindex>
					</sourcetrack>
					<link>
						<linkclipref>32 Funny, Crazy Man Laughing - 2x..aif11</linkclipref>
						<mediatype>audio</mediatype>
						<trackindex>10</trackindex>
						<clipindex>18</clipindex>
						<groupindex>1</groupindex>
					</link>
					<link>
						<linkclipref>32 Funny, Crazy Man Laughing - 2x..aif12</linkclipref>
						<mediatype>audio</mediatype>
						<trackindex>11</trackindex>
						<clipindex>17</clipindex>
						<groupindex>1</groupindex>
					</link>
				</clipitem>
				<transitionitem id="920885936 ">
					<rate>
						<ntsc>FALSE</ntsc>
						<timebase>25</timebase>
					</rate>
					<start>28769</start>
					<end>28781</end>
					<alignment>center</alignment>
					<effect>
						<name>Cross Fade (+3dB)</name>
						<effecttype>transition</effecttype>
						<mediatype>audio</mediatype>
					</effect>
				</transitionitem>
				<transitionitem id="920886344 ">
					<rate>
						<ntsc>FALSE</ntsc>
						<timebase>25</timebase>
					</rate>
					<start>33417</start>
					<end>33423</end>
					<alignment>start-black</alignment>
					<effect>
						<name>Cross Fade (+3dB) Copy</name>
						<effecttype>transition</effecttype>
						<mediatype>audio</mediatype>
					</effect>
				</transitionitem>
				<clipitem id="AUXMP_UBMM213539_EL CLUSH.mp3 12">
					<name>AUXMP_UBMM213539_EL CLUSH.mp3</name>
					<duration>1338</duration>
					<rate>
						<ntsc>FALSE</ntsc>
						<timebase>25</timebase>
					</rate>
					<in>1313</in>
					<out>1335</out>
					<start>-1</start>
					<end>33439</end>
					<subframeoffset>0</subframeoffset>
					<masterclipid>AUXMP_UBMM213539_EL CLUSH.mp3 1</masterclipid>
					<logginginfo>
						<scene/>
						<shottake/>
						<lognote/>
						<good>FALSE</good>
					</logginginfo>
					<labels>
						<label2/>
					</labels>
					<comments>
						<mastercomment1/>
						<mastercomment2/>
						<mastercomment3/>
						<mastercomment4/>
					</comments>
					<file id="AUXMP_UBMM213539_EL CLUSH"/>
					<filter>
						<effect>
							<name>Audio Levels</name>
							<effectid>audiolevels</effectid>
							<effectcategory>audiolevels</effectcategory>
							<effecttype>audiolevels</effecttype>
							<mediatype>audio</mediatype>
							<parameter>
								<name>Level</name>
								<parameterid>level</parameterid>
								<valuemin>0</valuemin>
								<valuemax>3.98109</valuemax>
								<value>0.158489</value>
							</parameter>
						</effect>
					</filter>
					<filter>
						<effect>
							<name>Audio Pan</name>
							<effectid>audiopan</effectid>
							<effectcategory>audiopan</effectcategory>
							<effecttype>audiopan</effecttype>
							<mediatype>audio</mediatype>
							<parameter>
								<name>Pan</name>
								<parameterid>pan</parameterid>
								<valuemin>-1</valuemin>
								<valuemax>1</valuemax>
								<value>1</value>
							</parameter>
						</effect>
					</filter>
					<sourcetrack>
						<mediatype>audio</mediatype>
						<trackindex>2</trackindex>
					</sourcetrack>
					<link>
						<linkclipref>AUXMP_UBMM213539_EL CLUSH.mp3 11</linkclipref>
						<mediatype>audio</mediatype>
						<trackindex>9</trackindex>
						<clipindex>14</clipindex>
						<groupindex>1</groupindex>
					</link>
					<link>
						<linkclipref>AUXMP_UBMM213539_EL CLUSH.mp3 12</linkclipref>
						<mediatype>audio</mediatype>
						<trackindex>10</trackindex>
						<clipindex>21</clipindex>
						<groupindex>1</groupindex>
					</link>
					<filter>
						<effect>
							<name>Time Remap</name>
							<effectid>timeremap</effectid>
							<effectcategory>motion</effectcategory>
							<effecttype>motion</effecttype>
							<mediatype>audio</mediatype>
							<parameter>
								<parameterid>variablespeed</parameterid>
								<name>variablespeed</name>
								<valuemin>0</valuemin>
								<valuemax>1</valuemax>
								<value>0</value>
							</parameter>
							<parameter>
								<parameterid>mappedduration</parameterid>
								<name>mappedduration</name>
								<value>
									<timecode>
										<rate>
											<timebase>0</timebase>
										</rate>
										<string>0</string>
										<frame>0</frame>
										<displayformat>NDF</displayformat>
									</timecode>
								</value>
							</parameter>
							<parameter>
								<parameterid>speed</parameterid>
								<name>speed</name>
								<valuemin>-10000</valuemin>
								<valuemax>10000</valuemax>
								<value>59</value>
							</parameter>
							<parameter>
								<parameterid>reverse</parameterid>
								<name>reverse</name>
								<value>TRUE</value>
							</parameter>
							<parameter>
								<parameterid>frameblending</parameterid>
								<name>frameblending</name>
								<value>TRUE</value>
							</parameter>
							<parameter>
								<parameterid>graphdict</parameterid>
								<name>graphdict</name>
								<valuemin>0</valuemin>
								<valuemax>796</valuemax>
								<keyframe>
									<when>0</when>
									<value>798.139</value>
									<speedkfstart>TRUE</speedkfstart>
									<speedvirtualkf>TRUE</speedvirtualkf>
								</keyframe>
								<keyframe>
									<when>1313</when>
									<value>15.4276</value>
									<speedkfin>TRUE</speedkfin>
									<speedvirtualkf>TRUE</speedvirtualkf>
								</keyframe>
								<keyframe>
									<when>1335</when>
									<value>2.32966</value>
									<speedkfout>TRUE</speedkfout>
									<speedvirtualkf>TRUE</speedvirtualkf>
								</keyframe>
								<keyframe>
									<when>1338</when>
									<value>1.1389</value>
									<speedkfend>TRUE</speedkfend>
									<speedvirtualkf>TRUE</speedvirtualkf>
								</keyframe>
								<interpolation>
									<name>FCPCurve</name>
								</interpolation>
								<value>14.4276</value>
							</parameter>
						</effect>
					</filter>
				</clipitem>
				<enabled>TRUE</enabled>
				<locked>FALSE</locked>
				<outputchannelindex>2</outputchannelindex>
			</track>
			<track>
				<clipitem id="Svosj mu 3 39">
					<name>Svosj mu 3</name>
					<duration>1024</duration>
					<rate>
						<ntsc>FALSE</ntsc>
						<timebase>25</timebase>
					</rate>
					<in>0</in>
					<out>23</out>
					<start>1145</start>
					<end>-1</end>
					<enabled>TRUE</enabled>
					<masterclipid>Svosj mu 3 1</masterclipid>
					<logginginfo>
						<scene/>
						<shottake/>
						<lognote/>
						<good>FALSE</good>
					</logginginfo>
					<labels>
						<label2/>
					</labels>
					<comments>
						<mastercomment1/>
						<mastercomment2/>
						<mastercomment3/>
						<mastercomment4/>
					</comments>
					<file id="Svosj mu 3 2"/>
					<filter>
						<effect>
							<name>Audio Levels</name>
							<effectid>audiolevels</effectid>
							<effectcategory>audiolevels</effectcategory>
							<effecttype>audiolevels</effecttype>
							<mediatype>audio</mediatype>
							<parameter>
								<name>Level</name>
								<parameterid>level</parameterid>
								<valuemin>0</valuemin>
								<valuemax>3.98109</valuemax>
								<value>0.501187</value>
							</parameter>
						</effect>
					</filter>
					<filter>
						<effect>
							<name>Audio Pan</name>
							<effectid>audiopan</effectid>
							<effectcategory>audiopan</effectcategory>
							<effecttype>audiopan</effecttype>
							<mediatype>audio</mediatype>
							<parameter>
								<name>Pan</name>
								<parameterid>pan</parameterid>
								<valuemin>-1</valuemin>
								<valuemax>1</valuemax>
								<value>1</value>
							</parameter>
						</effect>
					</filter>
					<sourcetrack>
						<mediatype>audio</mediatype>
						<trackindex>2</trackindex>
					</sourcetrack>
					<link>
						<linkclipref>Svosj mu 3 38</linkclipref>
						<mediatype>audio</mediatype>
						<trackindex>10</trackindex>
						<clipindex>1</clipindex>
						<groupindex>1</groupindex>
					</link>
					<link>
						<linkclipref>Svosj mu 3 39</linkclipref>
						<mediatype>audio</mediatype>
						<trackindex>11</trackindex>
						<clipindex>1</clipindex>
						<groupindex>1</groupindex>
					</link>
				</clipitem>
				<transitionitem id="84">
					<rate>
						<ntsc>FALSE</ntsc>
						<timebase>25</timebase>
					</rate>
					<start>1161</start>
					<end>1168</end>
					<alignment>center</alignment>
					<effect>
						<name>Cross Fade ( 0dB)</name>
						<effecttype>transition</effecttype>
						<mediatype>audio</mediatype>
					</effect>
				</transitionitem>
				<clipitem id="Svosj mu 3 41">
					<name>Svosj mu 3</name>
					<duration>1024</duration>
					<rate>
						<ntsc>FALSE</ntsc>
						<timebase>25</timebase>
					</rate>
					<in>920</in>
					<out>974</out>
					<start>-1</start>
					<end>1215</end>
					<enabled>TRUE</enabled>
					<masterclipid>Svosj mu 3 1</masterclipid>
					<logginginfo>
						<scene/>
						<shottake/>
						<lognote/>
						<good>FALSE</good>
					</logginginfo>
					<labels>
						<label2/>
					</labels>
					<comments>
						<mastercomment1/>
						<mastercomment2/>
						<mastercomment3/>
						<mastercomment4/>
					</comments>
					<file id="Svosj mu 3 2"/>
					<filter>
						<effect>
							<name>Audio Levels</name>
							<effectid>audiolevels</effectid>
							<effectcategory>audiolevels</effectcategory>
							<effecttype>audiolevels</effecttype>
							<mediatype>audio</mediatype>
							<parameter>
								<name>Level</name>
								<parameterid>level</parameterid>
								<valuemin>0</valuemin>
								<valuemax>3.98109</valuemax>
								<value>0.501187</value>
							</parameter>
						</effect>
					</filter>
					<filter>
						<effect>
							<name>Audio Pan</name>
							<effectid>audiopan</effectid>
							<effectcategory>audiopan</effectcategory>
							<effecttype>audiopan</effecttype>
							<mediatype>audio</mediatype>
							<parameter>
								<name>Pan</name>
								<parameterid>pan</parameterid>
								<valuemin>-1</valuemin>
								<valuemax>1</valuemax>
								<value>1</value>
							</parameter>
						</effect>
					</filter>
					<sourcetrack>
						<mediatype>audio</mediatype>
						<trackindex>2</trackindex>
					</sourcetrack>
					<link>
						<linkclipref>Svosj mu 3 40</linkclipref>
						<mediatype>audio</mediatype>
						<trackindex>10</trackindex>
						<clipindex>3</clipindex>
						<groupindex>1</groupindex>
					</link>
					<link>
						<linkclipref>Svosj mu 3 41</linkclipref>
						<mediatype>audio</mediatype>
						<trackindex>11</trackindex>
						<clipindex>3</clipindex>
						<groupindex>1</groupindex>
					</link>
				</clipitem>
				<clipitem id="31 Funny, Crazy Man Laughs..aif2">
					<name>31 Funny, Crazy Man Laughs..aif</name>
					<duration>127</duration>
					<rate>
						<ntsc>FALSE</ntsc>
						<timebase>25</timebase>
					</rate>
					<in>6</in>
					<out>35</out>
					<start>2516</start>
					<end>2545</end>
					<subframeoffset>0</subframeoffset>
					<enabled>TRUE</enabled>
					<masterclipid>31 Funny, Crazy Man Laughs..aif1</masterclipid>
					<logginginfo>
						<scene/>
						<shottake/>
						<lognote/>
						<good>FALSE</good>
					</logginginfo>
					<labels>
						<label2/>
					</labels>
					<comments>
						<mastercomment1/>
						<mastercomment2/>
						<mastercomment3/>
						<mastercomment4/>
					</comments>
					<file id="31 Funny, Crazy Man Laughs."/>
					<filter>
						<effect>
							<name>Audio Levels</name>
							<effectid>audiolevels</effectid>
							<effectcategory>audiolevels</effectcategory>
							<effecttype>audiolevels</effecttype>
							<mediatype>audio</mediatype>
							<parameter>
								<name>Level</name>
								<parameterid>level</parameterid>
								<valuemin>0</valuemin>
								<valuemax>3.98109</valuemax>
								<value>0.501187</value>
							</parameter>
						</effect>
					</filter>
					<filter>
						<effect>
							<name>Audio Pan</name>
							<effectid>audiopan</effectid>
							<effectcategory>audiopan</effectcategory>
							<effecttype>audiopan</effecttype>
							<mediatype>audio</mediatype>
							<parameter>
								<name>Pan</name>
								<parameterid>pan</parameterid>
								<valuemin>-1</valuemin>
								<valuemax>1</valuemax>
								<value>1</value>
							</parameter>
						</effect>
					</filter>
					<sourcetrack>
						<mediatype>audio</mediatype>
						<trackindex>2</trackindex>
					</sourcetrack>
					<link>
						<linkclipref>31 Funny, Crazy Man Laughs..aif</linkclipref>
						<mediatype>audio</mediatype>
						<trackindex>10</trackindex>
						<clipindex>4</clipindex>
						<groupindex>1</groupindex>
					</link>
					<link>
						<linkclipref>31 Funny, Crazy Man Laughs..aif2</linkclipref>
						<mediatype>audio</mediatype>
						<trackindex>11</trackindex>
						<clipindex>4</clipindex>
						<groupindex>1</groupindex>
					</link>
				</clipitem>
				<clipitem id="32 Funny, Crazy Man Laughing - 2x..aif2">
					<name>32 Funny, Crazy Man Laughing - 2x..aif</name>
					<duration>405</duration>
					<rate>
						<ntsc>FALSE</ntsc>
						<timebase>25</timebase>
					</rate>
					<in>277</in>
					<out>305</out>
					<start>3087</start>
					<end>3115</end>
					<subframeoffset>0</subframeoffset>
					<enabled>TRUE</enabled>
					<masterclipid>32 Funny, Crazy Man Laughing - 2x..aif1</masterclipid>
					<logginginfo>
						<scene/>
						<shottake/>
						<lognote/>
						<good>FALSE</good>
					</logginginfo>
					<labels>
						<label2/>
					</labels>
					<comments>
						<mastercomment1/>
						<mastercomment2/>
						<mastercomment3/>
						<mastercomment4/>
					</comments>
					<file id="32 Funny, Crazy Man Laughing - 2x."/>
					<filter>
						<effect>
							<name>Audio Levels</name>
							<effectid>audiolevels</effectid>
							<effectcategory>audiolevels</effectcategory>
							<effecttype>audiolevels</effecttype>
							<mediatype>audio</mediatype>
							<parameter>
								<name>Level</name>
								<parameterid>level</parameterid>
								<valuemin>0</valuemin>
								<valuemax>3.98109</valuemax>
								<value>0.281838</value>
							</parameter>
						</effect>
					</filter>
					<filter>
						<effect>
							<name>Audio Pan</name>
							<effectid>audiopan</effectid>
							<effectcategory>audiopan</effectcategory>
							<effecttype>audiopan</effecttype>
							<mediatype>audio</mediatype>
							<parameter>
								<name>Pan</name>
								<parameterid>pan</parameterid>
								<valuemin>-1</valuemin>
								<valuemax>1</valuemax>
								<value>1</value>
							</parameter>
						</effect>
					</filter>
					<sourcetrack>
						<mediatype>audio</mediatype>
						<trackindex>2</trackindex>
					</sourcetrack>
					<link>
						<linkclipref>32 Funny, Crazy Man Laughing - 2x..aif</linkclipref>
						<mediatype>audio</mediatype>
						<trackindex>10</trackindex>
						<clipindex>5</clipindex>
						<groupindex>1</groupindex>
					</link>
					<link>
						<linkclipref>32 Funny, Crazy Man Laughing - 2x..aif2</linkclipref>
						<mediatype>audio</mediatype>
						<trackindex>11</trackindex>
						<clipindex>5</clipindex>
						<groupindex>1</groupindex>
					</link>
				</clipitem>
				<transitionitem id="920888588 ">
					<rate>
						<ntsc>FALSE</ntsc>
						<timebase>25</timebase>
					</rate>
					<start>3115</start>
					<end>3121</end>
					<alignment>start-black</alignment>
					<effect>
						<name>Cross Fade (+3dB)</name>
						<effecttype>transition</effecttype>
						<mediatype>audio</mediatype>
					</effect>
				</transitionitem>
				<clipitem id="32 Funny, Crazy Man Laughing - 2x..aif4">
					<name>32 Funny, Crazy Man Laughing - 2x..aif</name>
					<duration>405</duration>
					<rate>
						<ntsc>FALSE</ntsc>
						<timebase>25</timebase>
					</rate>
					<in>45</in>
					<out>75</out>
					<start>-1</start>
					<end>-1</end>
					<subframeoffset>0</subframeoffset>
					<enabled>TRUE</enabled>
					<masterclipid>32 Funny, Crazy Man Laughing - 2x..aif1</masterclipid>
					<logginginfo>
						<scene/>
						<shottake/>
						<lognote/>
						<good>FALSE</good>
					</logginginfo>
					<labels>
						<label2/>
					</labels>
					<comments>
						<mastercomment1/>
						<mastercomment2/>
						<mastercomment3/>
						<mastercomment4/>
					</comments>
					<file id="32 Funny, Crazy Man Laughing - 2x."/>
					<filter>
						<effect>
							<name>Audio Levels</name>
							<effectid>audiolevels</effectid>
							<effectcategory>audiolevels</effectcategory>
							<effecttype>audiolevels</effecttype>
							<mediatype>audio</mediatype>
							<parameter>
								<name>Level</name>
								<parameterid>level</parameterid>
								<valuemin>0</valuemin>
								<valuemax>3.98109</valuemax>
								<value>0.354813</value>
							</parameter>
						</effect>
					</filter>
					<filter>
						<effect>
							<name>Audio Pan</name>
							<effectid>audiopan</effectid>
							<effectcategory>audiopan</effectcategory>
							<effecttype>audiopan</effecttype>
							<mediatype>audio</mediatype>
							<parameter>
								<name>Pan</name>
								<parameterid>pan</parameterid>
								<valuemin>-1</valuemin>
								<valuemax>1</valuemax>
								<value>1</value>
							</parameter>
						</effect>
					</filter>
					<sourcetrack>
						<mediatype>audio</mediatype>
						<trackindex>2</trackindex>
					</sourcetrack>
					<link>
						<linkclipref>32 Funny, Crazy Man Laughing - 2x..aif3</linkclipref>
						<mediatype>audio</mediatype>
						<trackindex>10</trackindex>
						<clipindex>7</clipindex>
						<groupindex>1</groupindex>
					</link>
					<link>
						<linkclipref>32 Funny, Crazy Man Laughing - 2x..aif4</linkclipref>
						<mediatype>audio</mediatype>
						<trackindex>11</trackindex>
						<clipindex>7</clipindex>
						<groupindex>1</groupindex>
					</link>
				</clipitem>
				<transitionitem id="920889200 ">
					<rate>
						<ntsc>FALSE</ntsc>
						<timebase>25</timebase>
					</rate>
					<start>3133</start>
					<end>3145</end>
					<alignment>center</alignment>
					<effect>
						<name>Cross Fade (+3dB)</name>
						<effecttype>transition</effecttype>
						<mediatype>audio</mediatype>
					</effect>
				</transitionitem>
				<clipitem id="31 Funny, Crazy Man Laughs..aif4">
					<name>31 Funny, Crazy Man Laughs..aif</name>
					<duration>127</duration>
					<rate>
						<ntsc>FALSE</ntsc>
						<timebase>25</timebase>
					</rate>
					<in>6</in>
					<out>35</out>
					<start>21691</start>
					<end>21720</end>
					<subframeoffset>0</subframeoffset>
					<enabled>TRUE</enabled>
					<masterclipid>31 Funny, Crazy Man Laughs..aif1</masterclipid>
					<logginginfo>
						<scene/>
						<shottake/>
						<lognote/>
						<good>FALSE</good>
					</logginginfo>
					<labels>
						<label2/>
					</labels>
					<comments>
						<mastercomment1/>
						<mastercomment2/>
						<mastercomment3/>
						<mastercomment4/>
					</comments>
					<file id="31 Funny, Crazy Man Laughs."/>
					<filter>
						<effect>
							<name>Audio Levels</name>
							<effectid>audiolevels</effectid>
							<effectcategory>audiolevels</effectcategory>
							<effecttype>audiolevels</effecttype>
							<mediatype>audio</mediatype>
							<parameter>
								<name>Level</name>
								<parameterid>level</parameterid>
								<valuemin>0</valuemin>
								<valuemax>3.98109</valuemax>
								<value>0.501187</value>
							</parameter>
						</effect>
					</filter>
					<filter>
						<effect>
							<name>Audio Pan</name>
							<effectid>audiopan</effectid>
							<effectcategory>audiopan</effectcategory>
							<effecttype>audiopan</effecttype>
							<mediatype>audio</mediatype>
							<parameter>
								<name>Pan</name>
								<parameterid>pan</parameterid>
								<valuemin>-1</valuemin>
								<valuemax>1</valuemax>
								<value>1</value>
							</parameter>
						</effect>
					</filter>
					<sourcetrack>
						<mediatype>audio</mediatype>
						<trackindex>2</trackindex>
					</sourcetrack>
					<link>
						<linkclipref>31 Funny, Crazy Man Laughs..aif3</linkclipref>
						<mediatype>audio</mediatype>
						<trackindex>10</trackindex>
						<clipindex>9</clipindex>
						<groupindex>1</groupindex>
					</link>
					<link>
						<linkclipref>31 Funny, Crazy Man Laughs..aif4</linkclipref>
						<mediatype>audio</mediatype>
						<trackindex>11</trackindex>
						<clipindex>9</clipindex>
						<groupindex>1</groupindex>
					</link>
				</clipitem>
				<clipitem id="32 Funny, Crazy Man Laughing - 2x..aif6">
					<name>32 Funny, Crazy Man Laughing - 2x..aif</name>
					<duration>405</duration>
					<rate>
						<ntsc>FALSE</ntsc>
						<timebase>25</timebase>
					</rate>
					<in>277</in>
					<out>305</out>
					<start>22571</start>
					<end>22599</end>
					<subframeoffset>0</subframeoffset>
					<masterclipid>32 Funny, Crazy Man Laughing - 2x..aif1</masterclipid>
					<logginginfo>
						<scene/>
						<shottake/>
						<lognote/>
						<good>FALSE</good>
					</logginginfo>
					<labels>
						<label2/>
					</labels>
					<comments>
						<mastercomment1/>
						<mastercomment2/>
						<mastercomment3/>
						<mastercomment4/>
					</comments>
					<file id="32 Funny, Crazy Man Laughing - 2x."/>
					<filter>
						<effect>
							<name>Audio Levels</name>
							<effectid>audiolevels</effectid>
							<effectcategory>audiolevels</effectcategory>
							<effecttype>audiolevels</effecttype>
							<mediatype>audio</mediatype>
							<parameter>
								<name>Level</name>
								<parameterid>level</parameterid>
								<valuemin>0</valuemin>
								<valuemax>3.98109</valuemax>
								<value>0.281838</value>
							</parameter>
						</effect>
					</filter>
					<filter>
						<effect>
							<name>Audio Pan</name>
							<effectid>audiopan</effectid>
							<effectcategory>audiopan</effectcategory>
							<effecttype>audiopan</effecttype>
							<mediatype>audio</mediatype>
							<parameter>
								<name>Pan</name>
								<parameterid>pan</parameterid>
								<valuemin>-1</valuemin>
								<valuemax>1</valuemax>
								<value>1</value>
							</parameter>
						</effect>
					</filter>
					<sourcetrack>
						<mediatype>audio</mediatype>
						<trackindex>2</trackindex>
					</sourcetrack>
					<link>
						<linkclipref>32 Funny, Crazy Man Laughing - 2x..aif5</linkclipref>
						<mediatype>audio</mediatype>
						<trackindex>10</trackindex>
						<clipindex>10</clipindex>
						<groupindex>1</groupindex>
					</link>
					<link>
						<linkclipref>32 Funny, Crazy Man Laughing - 2x..aif6</linkclipref>
						<mediatype>audio</mediatype>
						<trackindex>11</trackindex>
						<clipindex>10</clipindex>
						<groupindex>1</groupindex>
					</link>
				</clipitem>
				<transitionitem id="920890016 ">
					<rate>
						<ntsc>FALSE</ntsc>
						<timebase>25</timebase>
					</rate>
					<start>22599</start>
					<end>22605</end>
					<alignment>start-black</alignment>
					<effect>
						<name>Cross Fade (+3dB)</name>
						<effecttype>transition</effecttype>
						<mediatype>audio</mediatype>
					</effect>
				</transitionitem>
				<clipitem id="32 Funny, Crazy Man Laughing - 2x..aif8">
					<name>32 Funny, Crazy Man Laughing - 2x..aif</name>
					<duration>405</duration>
					<rate>
						<ntsc>FALSE</ntsc>
						<timebase>25</timebase>
					</rate>
					<in>45</in>
					<out>69</out>
					<start>-1</start>
					<end>-1</end>
					<subframeoffset>0</subframeoffset>
					<masterclipid>32 Funny, Crazy Man Laughing - 2x..aif1</masterclipid>
					<logginginfo>
						<scene/>
						<shottake/>
						<lognote/>
						<good>FALSE</good>
					</logginginfo>
					<labels>
						<label2/>
					</labels>
					<comments>
						<mastercomment1/>
						<mastercomment2/>
						<mastercomment3/>
						<mastercomment4/>
					</comments>
					<file id="32 Funny, Crazy Man Laughing - 2x."/>
					<filter>
						<effect>
							<name>Audio Levels</name>
							<effectid>audiolevels</effectid>
							<effectcategory>audiolevels</effectcategory>
							<effecttype>audiolevels</effecttype>
							<mediatype>audio</mediatype>
							<parameter>
								<name>Level</name>
								<parameterid>level</parameterid>
								<valuemin>0</valuemin>
								<valuemax>3.98109</valuemax>
								<value>0.354813</value>
							</parameter>
						</effect>
					</filter>
					<filter>
						<effect>
							<name>Audio Pan</name>
							<effectid>audiopan</effectid>
							<effectcategory>audiopan</effectcategory>
							<effecttype>audiopan</effecttype>
							<mediatype>audio</mediatype>
							<parameter>
								<name>Pan</name>
								<parameterid>pan</parameterid>
								<valuemin>-1</valuemin>
								<valuemax>1</valuemax>
								<value>1</value>
							</parameter>
						</effect>
					</filter>
					<sourcetrack>
						<mediatype>audio</mediatype>
						<trackindex>2</trackindex>
					</sourcetrack>
					<link>
						<linkclipref>32 Funny, Crazy Man Laughing - 2x..aif7</linkclipref>
						<mediatype>audio</mediatype>
						<trackindex>10</trackindex>
						<clipindex>12</clipindex>
						<groupindex>1</groupindex>
					</link>
					<link>
						<linkclipref>32 Funny, Crazy Man Laughing - 2x..aif8</linkclipref>
						<mediatype>audio</mediatype>
						<trackindex>11</trackindex>
						<clipindex>12</clipindex>
						<groupindex>1</groupindex>
					</link>
				</clipitem>
				<transitionitem id="920890696 ">
					<rate>
						<ntsc>FALSE</ntsc>
						<timebase>25</timebase>
					</rate>
					<start>22617</start>
					<end>22623</end>
					<alignment>end-black</alignment>
					<effect>
						<name>Cross Fade (+3dB)</name>
						<effecttype>transition</effecttype>
						<mediatype>audio</mediatype>
					</effect>
				</transitionitem>
				<clipitem id="31 Funny, Crazy Man Laughs..aif6">
					<name>31 Funny, Crazy Man Laughs..aif</name>
					<duration>127</duration>
					<rate>
						<ntsc>FALSE</ntsc>
						<timebase>25</timebase>
					</rate>
					<in>6</in>
					<out>35</out>
					<start>28326</start>
					<end>28355</end>
					<subframeoffset>0</subframeoffset>
					<enabled>TRUE</enabled>
					<masterclipid>31 Funny, Crazy Man Laughs..aif1</masterclipid>
					<logginginfo>
						<scene/>
						<shottake/>
						<lognote/>
						<good>FALSE</good>
					</logginginfo>
					<labels>
						<label2/>
					</labels>
					<comments>
						<mastercomment1/>
						<mastercomment2/>
						<mastercomment3/>
						<mastercomment4/>
					</comments>
					<file id="31 Funny, Crazy Man Laughs."/>
					<filter>
						<effect>
							<name>Audio Levels</name>
							<effectid>audiolevels</effectid>
							<effectcategory>audiolevels</effectcategory>
							<effecttype>audiolevels</effecttype>
							<mediatype>audio</mediatype>
							<parameter>
								<name>Level</name>
								<parameterid>level</parameterid>
								<valuemin>0</valuemin>
								<valuemax>3.98109</valuemax>
								<value>0.501187</value>
							</parameter>
						</effect>
					</filter>
					<filter>
						<effect>
							<name>Audio Pan</name>
							<effectid>audiopan</effectid>
							<effectcategory>audiopan</effectcategory>
							<effecttype>audiopan</effecttype>
							<mediatype>audio</mediatype>
							<parameter>
								<name>Pan</name>
								<parameterid>pan</parameterid>
								<valuemin>-1</valuemin>
								<valuemax>1</valuemax>
								<value>1</value>
							</parameter>
						</effect>
					</filter>
					<sourcetrack>
						<mediatype>audio</mediatype>
						<trackindex>2</trackindex>
					</sourcetrack>
					<link>
						<linkclipref>31 Funny, Crazy Man Laughs..aif5</linkclipref>
						<mediatype>audio</mediatype>
						<trackindex>10</trackindex>
						<clipindex>15</clipindex>
						<groupindex>1</groupindex>
					</link>
					<link>
						<linkclipref>31 Funny, Crazy Man Laughs..aif6</linkclipref>
						<mediatype>audio</mediatype>
						<trackindex>11</trackindex>
						<clipindex>14</clipindex>
						<groupindex>1</groupindex>
					</link>
				</clipitem>
				<clipitem id="32 Funny, Crazy Man Laughing - 2x..aif10">
					<name>32 Funny, Crazy Man Laughing - 2x..aif</name>
					<duration>405</duration>
					<rate>
						<ntsc>FALSE</ntsc>
						<timebase>25</timebase>
					</rate>
					<in>277</in>
					<out>305</out>
					<start>28723</start>
					<end>28751</end>
					<subframeoffset>0</subframeoffset>
					<enabled>TRUE</enabled>
					<masterclipid>32 Funny, Crazy Man Laughing - 2x..aif1</masterclipid>
					<logginginfo>
						<scene/>
						<shottake/>
						<lognote/>
						<good>FALSE</good>
					</logginginfo>
					<labels>
						<label2/>
					</labels>
					<comments>
						<mastercomment1/>
						<mastercomment2/>
						<mastercomment3/>
						<mastercomment4/>
					</comments>
					<file id="32 Funny, Crazy Man Laughing - 2x."/>
					<filter>
						<effect>
							<name>Audio Levels</name>
							<effectid>audiolevels</effectid>
							<effectcategory>audiolevels</effectcategory>
							<effecttype>audiolevels</effecttype>
							<mediatype>audio</mediatype>
							<parameter>
								<name>Level</name>
								<parameterid>level</parameterid>
								<valuemin>0</valuemin>
								<valuemax>3.98109</valuemax>
								<value>0.281838</value>
							</parameter>
						</effect>
					</filter>
					<filter>
						<effect>
							<name>Audio Pan</name>
							<effectid>audiopan</effectid>
							<effectcategory>audiopan</effectcategory>
							<effecttype>audiopan</effecttype>
							<mediatype>audio</mediatype>
							<parameter>
								<name>Pan</name>
								<parameterid>pan</parameterid>
								<valuemin>-1</valuemin>
								<valuemax>1</valuemax>
								<value>1</value>
							</parameter>
						</effect>
					</filter>
					<sourcetrack>
						<mediatype>audio</mediatype>
						<trackindex>2</trackindex>
					</sourcetrack>
					<link>
						<linkclipref>32 Funny, Crazy Man Laughing - 2x..aif9</linkclipref>
						<mediatype>audio</mediatype>
						<trackindex>10</trackindex>
						<clipindex>16</clipindex>
						<groupindex>1</groupindex>
					</link>
					<link>
						<linkclipref>32 Funny, Crazy Man Laughing - 2x..aif10</linkclipref>
						<mediatype>audio</mediatype>
						<trackindex>11</trackindex>
						<clipindex>15</clipindex>
						<groupindex>1</groupindex>
					</link>
				</clipitem>
				<transitionitem id="920891580 ">
					<rate>
						<ntsc>FALSE</ntsc>
						<timebase>25</timebase>
					</rate>
					<start>28751</start>
					<end>28757</end>
					<alignment>start-black</alignment>
					<effect>
						<name>Cross Fade (+3dB)</name>
						<effecttype>transition</effecttype>
						<mediatype>audio</mediatype>
					</effect>
				</transitionitem>
				<clipitem id="32 Funny, Crazy Man Laughing - 2x..aif12">
					<name>32 Funny, Crazy Man Laughing - 2x..aif</name>
					<duration>405</duration>
					<rate>
						<ntsc>FALSE</ntsc>
						<timebase>25</timebase>
					</rate>
					<in>45</in>
					<out>75</out>
					<start>-1</start>
					<end>-1</end>
					<subframeoffset>0</subframeoffset>
					<enabled>TRUE</enabled>
					<masterclipid>32 Funny, Crazy Man Laughing - 2x..aif1</masterclipid>
					<logginginfo>
						<scene/>
						<shottake/>
						<lognote/>
						<good>FALSE</good>
					</logginginfo>
					<labels>
						<label2/>
					</labels>
					<comments>
						<mastercomment1/>
						<mastercomment2/>
						<mastercomment3/>
						<mastercomment4/>
					</comments>
					<file id="32 Funny, Crazy Man Laughing - 2x."/>
					<filter>
						<effect>
							<name>Audio Levels</name>
							<effectid>audiolevels</effectid>
							<effectcategory>audiolevels</effectcategory>
							<effecttype>audiolevels</effecttype>
							<mediatype>audio</mediatype>
							<parameter>
								<name>Level</name>
								<parameterid>level</parameterid>
								<valuemin>0</valuemin>
								<valuemax>3.98109</valuemax>
								<value>0.354813</value>
							</parameter>
						</effect>
					</filter>
					<filter>
						<effect>
							<name>Audio Pan</name>
							<effectid>audiopan</effectid>
							<effectcategory>audiopan</effectcategory>
							<effecttype>audiopan</effecttype>
							<mediatype>audio</mediatype>
							<parameter>
								<name>Pan</name>
								<parameterid>pan</parameterid>
								<valuemin>-1</valuemin>
								<valuemax>1</valuemax>
								<value>1</value>
							</parameter>
						</effect>
					</filter>
					<sourcetrack>
						<mediatype>audio</mediatype>
						<trackindex>2</trackindex>
					</sourcetrack>
					<link>
						<linkclipref>32 Funny, Crazy Man Laughing - 2x..aif11</linkclipref>
						<mediatype>audio</mediatype>
						<trackindex>10</trackindex>
						<clipindex>18</clipindex>
						<groupindex>1</groupindex>
					</link>
					<link>
						<linkclipref>32 Funny, Crazy Man Laughing - 2x..aif12</linkclipref>
						<mediatype>audio</mediatype>
						<trackindex>11</trackindex>
						<clipindex>17</clipindex>
						<groupindex>1</groupindex>
					</link>
				</clipitem>
				<transitionitem id="920892192 ">
					<rate>
						<ntsc>FALSE</ntsc>
						<timebase>25</timebase>
					</rate>
					<start>28769</start>
					<end>28781</end>
					<alignment>center</alignment>
					<effect>
						<name>Cross Fade (+3dB)</name>
						<effecttype>transition</effecttype>
						<mediatype>audio</mediatype>
					</effect>
				</transitionitem>
				<enabled>TRUE</enabled>
				<locked>FALSE</locked>
				<outputchannelindex>1</outputchannelindex>
			</track>
		</audio>
	</media>
	<ismasterclip>FALSE</ismasterclip>
	<marker>
		<name>GjestespÃ¸rsmÃ¥l - MÃ¥ kuttes?</name>
		<comment>Sigrid og Else KÃ¥ss</comment>
		<in>22029</in>
		<out>-1</out>
	</marker>
	<marker>
		<name>Marker 2</name>
		<in>28898</in>
		<out>-1</out>
	</marker>
	<labels>
		<label>Best Take</label>
	</labels>
</sequence>
<bin>
	<name>Multiclips</name>
	<children>
		<clip id="msub200012-3011-k1d1-009 8">
			<name>msub200012-3011-k1d1-009</name>
			<duration>2155</duration>
			<rate>
				<ntsc>FALSE</ntsc>
				<timebase>25</timebase>
			</rate>
			<in>458</in>
			<out>2103</out>
			<masterclipid>msub200012-3011-k1d1-009 1</masterclipid>
			<ismasterclip>FALSE</ismasterclip>
			<logginginfo>
				<description>msub200012-3011-k1d1-009</description>
				<scene/>
				<shottake/>
				<lognote/>
				<good>FALSE</good>
			</logginginfo>
			<labels>
				<label>Good Take</label>
				<label2/>
			</labels>
			<comments>
				<mastercomment1>RÃ…STOFF. BR_FINFREDAG_MSUA_OPRO</mastercomment1>
				<mastercomment2/>
				<mastercomment3/>
				<mastercomment4/>
				<clipcommenta/>
			</comments>
			<media>
				<video>
					<track>
						<clipitem id="msub200012-3011-k1d1-009 9">
							<name>msub200012-3011-k1d1-009</name>
							<duration>2155</duration>
							<rate>
								<ntsc>FALSE</ntsc>
								<timebase>25</timebase>
							</rate>
							<in>0</in>
							<out>2155</out>
							<start>0</start>
							<end>2155</end>
							<pixelaspectratio>Square</pixelaspectratio>
							<anamorphic>FALSE</anamorphic>
							<alphatype>none</alphatype>
							<masterclipid>msub200012-3011-k1d1-009 1</masterclipid>
							<syncoffset>0</syncoffset>
							<logginginfo>
								<scene/>
								<shottake/>
								<lognote/>
								<good>FALSE</good>
							</logginginfo>
							<labels>
								<label>Good Take</label>
								<label2/>
							</labels>
							<comments>
								<mastercomment1>RÃ…STOFF. BR_FINFREDAG_MSUA_OPRO</mastercomment1>
								<mastercomment2/>
								<mastercomment3/>
								<mastercomment4/>
								<clipcommenta/>
							</comments>
							<file id="msub200012-3011-k1d1-009 2"/>
							<sourcetrack>
								<mediatype>video</mediatype>
							</sourcetrack>
							<link>
								<linkclipref>msub200012-3011-k1d1-009 9</linkclipref>
								<mediatype>video</mediatype>
								<trackindex>1</trackindex>
								<clipindex>1</clipindex>
							</link>
							<link>
								<linkclipref>msub200012-3011-k1d1-009 10</linkclipref>
								<mediatype>audio</mediatype>
								<trackindex>1</trackindex>
								<clipindex>1</clipindex>
							</link>
							<link>
								<linkclipref>msub200012-3011-k1d1-009 11</linkclipref>
								<mediatype>audio</mediatype>
								<trackindex>2</trackindex>
								<clipindex>1</clipindex>
							</link>
							<link>
								<linkclipref>msub200012-3011-k1d1-009 12</linkclipref>
								<mediatype>audio</mediatype>
								<trackindex>3</trackindex>
								<clipindex>1</clipindex>
							</link>
							<link>
								<linkclipref>msub200012-3011-k1d1-009 13</linkclipref>
								<mediatype>audio</mediatype>
								<trackindex>4</trackindex>
								<clipindex>1</clipindex>
							</link>
							<link>
								<linkclipref>msub200012-3011-k1d1-009 14</linkclipref>
								<mediatype>audio</mediatype>
								<trackindex>5</trackindex>
								<clipindex>1</clipindex>
							</link>
							<link>
								<linkclipref>msub200012-3011-k1d1-009 15</linkclipref>
								<mediatype>audio</mediatype>
								<trackindex>6</trackindex>
								<clipindex>1</clipindex>
							</link>
							<link>
								<linkclipref>msub200012-3011-k1d1-009 16</linkclipref>
								<mediatype>audio</mediatype>
								<trackindex>7</trackindex>
								<clipindex>1</clipindex>
							</link>
							<link>
								<linkclipref>msub200012-3011-k1d1-009 17</linkclipref>
								<mediatype>audio</mediatype>
								<trackindex>8</trackindex>
								<clipindex>1</clipindex>
							</link>
							<fielddominance>upper</fielddominance>
						</clipitem>
						<enabled>TRUE</enabled>
						<locked>FALSE</locked>
					</track>
				</video>
				<audio>
					<in>458</in>
					<out>2103</out>
					<track>
						<clipitem id="msub200012-3011-k1d1-009 10">
							<name>msub200012-3011-k1d1-009</name>
							<duration>2155</duration>
							<rate>
								<ntsc>FALSE</ntsc>
								<timebase>25</timebase>
							</rate>
							<in>0</in>
							<out>2155</out>
							<start>0</start>
							<end>2155</end>
							<subframeoffset>0</subframeoffset>
							<masterclipid>msub200012-3011-k1d1-009 1</masterclipid>
							<syncoffset>0</syncoffset>
							<logginginfo>
								<scene/>
								<shottake/>
								<lognote/>
								<good>FALSE</good>
							</logginginfo>
							<labels>
								<label>Good Take</label>
								<label2/>
							</labels>
							<comments>
								<mastercomment1>RÃ…STOFF. BR_FINFREDAG_MSUA_OPRO</mastercomment1>
								<mastercomment2/>
								<mastercomment3/>
								<mastercomment4/>
							</comments>
							<file id="msub200012-3011-k1d1-009 2"/>
							<filter>
								<effect>
									<name>Audio Levels</name>
									<effectid>audiolevels</effectid>
									<effectcategory>audiolevels</effectcategory>
									<effecttype>audiolevels</effecttype>
									<mediatype>audio</mediatype>
									<parameter>
										<name>Level</name>
										<parameterid>level</parameterid>
										<valuemin>0</valuemin>
										<valuemax>3.98109</valuemax>
										<value>1</value>
									</parameter>
								</effect>
							</filter>
							<filter>
								<effect>
									<name>Audio Pan</name>
									<effectid>audiopan</effectid>
									<effectcategory>audiopan</effectcategory>
									<effecttype>audiopan</effecttype>
									<mediatype>audio</mediatype>
									<parameter>
										<name>Pan</name>
										<parameterid>pan</parameterid>
										<valuemin>-1</valuemin>
										<valuemax>1</valuemax>
										<value>0</value>
									</parameter>
								</effect>
							</filter>
							<sourcetrack>
								<mediatype>audio</mediatype>
								<trackindex>1</trackindex>
							</sourcetrack>
							<link>
								<linkclipref>msub200012-3011-k1d1-009 9</linkclipref>
								<mediatype>video</mediatype>
								<trackindex>1</trackindex>
								<clipindex>1</clipindex>
							</link>
							<link>
								<linkclipref>msub200012-3011-k1d1-009 10</linkclipref>
								<mediatype>audio</mediatype>
								<trackindex>1</trackindex>
								<clipindex>1</clipindex>
							</link>
							<link>
								<linkclipref>msub200012-3011-k1d1-009 11</linkclipref>
								<mediatype>audio</mediatype>
								<trackindex>2</trackindex>
								<clipindex>1</clipindex>
							</link>
							<link>
								<linkclipref>msub200012-3011-k1d1-009 12</linkclipref>
								<mediatype>audio</mediatype>
								<trackindex>3</trackindex>
								<clipindex>1</clipindex>
							</link>
							<link>
								<linkclipref>msub200012-3011-k1d1-009 13</linkclipref>
								<mediatype>audio</mediatype>
								<trackindex>4</trackindex>
								<clipindex>1</clipindex>
							</link>
							<link>
								<linkclipref>msub200012-3011-k1d1-009 14</linkclipref>
								<mediatype>audio</mediatype>
								<trackindex>5</trackindex>
								<clipindex>1</clipindex>
							</link>
							<link>
								<linkclipref>msub200012-3011-k1d1-009 15</linkclipref>
								<mediatype>audio</mediatype>
								<trackindex>6</trackindex>
								<clipindex>1</clipindex>
							</link>
							<link>
								<linkclipref>msub200012-3011-k1d1-009 16</linkclipref>
								<mediatype>audio</mediatype>
								<trackindex>7</trackindex>
								<clipindex>1</clipindex>
							</link>
							<link>
								<linkclipref>msub200012-3011-k1d1-009 17</linkclipref>
								<mediatype>audio</mediatype>
								<trackindex>8</trackindex>
								<clipindex>1</clipindex>
							</link>
						</clipitem>
						<enabled>TRUE</enabled>
						<locked>FALSE</locked>
					</track>
					<track>
						<clipitem id="msub200012-3011-k1d1-009 11">
							<name>msub200012-3011-k1d1-009</name>
							<duration>2155</duration>
							<rate>
								<ntsc>FALSE</ntsc>
								<timebase>25</timebase>
							</rate>
							<in>0</in>
							<out>2155</out>
							<start>0</start>
							<end>2155</end>
							<subframeoffset>0</subframeoffset>
							<masterclipid>msub200012-3011-k1d1-009 1</masterclipid>
							<syncoffset>0</syncoffset>
							<logginginfo>
								<scene/>
								<shottake/>
								<lognote/>
								<good>FALSE</good>
							</logginginfo>
							<labels>
								<label>Good Take</label>
								<label2/>
							</labels>
							<comments>
								<mastercomment1>RÃ…STOFF. BR_FINFREDAG_MSUA_OPRO</mastercomment1>
								<mastercomment2/>
								<mastercomment3/>
								<mastercomment4/>
							</comments>
							<file id="msub200012-3011-k1d1-009 2"/>
							<filter>
								<effect>
									<name>Audio Levels</name>
									<effectid>audiolevels</effectid>
									<effectcategory>audiolevels</effectcategory>
									<effecttype>audiolevels</effecttype>
									<mediatype>audio</mediatype>
									<parameter>
										<name>Level</name>
										<parameterid>level</parameterid>
										<valuemin>0</valuemin>
										<valuemax>3.98109</valuemax>
										<value>1</value>
									</parameter>
								</effect>
							</filter>
							<filter>
								<effect>
									<name>Audio Pan</name>
									<effectid>audiopan</effectid>
									<effectcategory>audiopan</effectcategory>
									<effecttype>audiopan</effecttype>
									<mediatype>audio</mediatype>
									<parameter>
										<name>Pan</name>
										<parameterid>pan</parameterid>
										<valuemin>-1</valuemin>
										<valuemax>1</valuemax>
										<value>0</value>
									</parameter>
								</effect>
							</filter>
							<sourcetrack>
								<mediatype>audio</mediatype>
								<trackindex>2</trackindex>
							</sourcetrack>
							<link>
								<linkclipref>msub200012-3011-k1d1-009 9</linkclipref>
								<mediatype>video</mediatype>
								<trackindex>1</trackindex>
								<clipindex>1</clipindex>
							</link>
							<link>
								<linkclipref>msub200012-3011-k1d1-009 10</linkclipref>
								<mediatype>audio</mediatype>
								<trackindex>1</trackindex>
								<clipindex>1</clipindex>
							</link>
							<link>
								<linkclipref>msub200012-3011-k1d1-009 11</linkclipref>
								<mediatype>audio</mediatype>
								<trackindex>2</trackindex>
								<clipindex>1</clipindex>
							</link>
							<link>
								<linkclipref>msub200012-3011-k1d1-009 12</linkclipref>
								<mediatype>audio</mediatype>
								<trackindex>3</trackindex>
								<clipindex>1</clipindex>
							</link>
							<link>
								<linkclipref>msub200012-3011-k1d1-009 13</linkclipref>
								<mediatype>audio</mediatype>
								<trackindex>4</trackindex>
								<clipindex>1</clipindex>
							</link>
							<link>
								<linkclipref>msub200012-3011-k1d1-009 14</linkclipref>
								<mediatype>audio</mediatype>
								<trackindex>5</trackindex>
								<clipindex>1</clipindex>
							</link>
							<link>
								<linkclipref>msub200012-3011-k1d1-009 15</linkclipref>
								<mediatype>audio</mediatype>
								<trackindex>6</trackindex>
								<clipindex>1</clipindex>
							</link>
							<link>
								<linkclipref>msub200012-3011-k1d1-009 16</linkclipref>
								<mediatype>audio</mediatype>
								<trackindex>7</trackindex>
								<clipindex>1</clipindex>
							</link>
							<link>
								<linkclipref>msub200012-3011-k1d1-009 17</linkclipref>
								<mediatype>audio</mediatype>
								<trackindex>8</trackindex>
								<clipindex>1</clipindex>
							</link>
						</clipitem>
						<enabled>TRUE</enabled>
						<locked>FALSE</locked>
					</track>
					<track>
						<clipitem id="msub200012-3011-k1d1-009 12">
							<name>msub200012-3011-k1d1-009</name>
							<duration>2155</duration>
							<rate>
								<ntsc>FALSE</ntsc>
								<timebase>25</timebase>
							</rate>
							<in>0</in>
							<out>2155</out>
							<start>0</start>
							<end>2155</end>
							<subframeoffset>0</subframeoffset>
							<masterclipid>msub200012-3011-k1d1-009 1</masterclipid>
							<syncoffset>0</syncoffset>
							<logginginfo>
								<scene/>
								<shottake/>
								<lognote/>
								<good>FALSE</good>
							</logginginfo>
							<labels>
								<label>Good Take</label>
								<label2/>
							</labels>
							<comments>
								<mastercomment1>RÃ…STOFF. BR_FINFREDAG_MSUA_OPRO</mastercomment1>
								<mastercomment2/>
								<mastercomment3/>
								<mastercomment4/>
							</comments>
							<file id="msub200012-3011-k1d1-009 2"/>
							<filter>
								<effect>
									<name>Audio Levels</name>
									<effectid>audiolevels</effectid>
									<effectcategory>audiolevels</effectcategory>
									<effecttype>audiolevels</effecttype>
									<mediatype>audio</mediatype>
									<parameter>
										<name>Level</name>
										<parameterid>level</parameterid>
										<valuemin>0</valuemin>
										<valuemax>3.98109</valuemax>
										<value>1</value>
									</parameter>
								</effect>
							</filter>
							<filter>
								<effect>
									<name>Audio Pan</name>
									<effectid>audiopan</effectid>
									<effectcategory>audiopan</effectcategory>
									<effecttype>audiopan</effecttype>
									<mediatype>audio</mediatype>
									<parameter>
										<name>Pan</name>
										<parameterid>pan</parameterid>
										<valuemin>-1</valuemin>
										<valuemax>1</valuemax>
										<value>0</value>
									</parameter>
								</effect>
							</filter>
							<sourcetrack>
								<mediatype>audio</mediatype>
								<trackindex>3</trackindex>
							</sourcetrack>
							<link>
								<linkclipref>msub200012-3011-k1d1-009 9</linkclipref>
								<mediatype>video</mediatype>
								<trackindex>1</trackindex>
								<clipindex>1</clipindex>
							</link>
							<link>
								<linkclipref>msub200012-3011-k1d1-009 10</linkclipref>
								<mediatype>audio</mediatype>
								<trackindex>1</trackindex>
								<clipindex>1</clipindex>
							</link>
							<link>
								<linkclipref>msub200012-3011-k1d1-009 11</linkclipref>
								<mediatype>audio</mediatype>
								<trackindex>2</trackindex>
								<clipindex>1</clipindex>
							</link>
							<link>
								<linkclipref>msub200012-3011-k1d1-009 12</linkclipref>
								<mediatype>audio</mediatype>
								<trackindex>3</trackindex>
								<clipindex>1</clipindex>
							</link>
							<link>
								<linkclipref>msub200012-3011-k1d1-009 13</linkclipref>
								<mediatype>audio</mediatype>
								<trackindex>4</trackindex>
								<clipindex>1</clipindex>
							</link>
							<link>
								<linkclipref>msub200012-3011-k1d1-009 14</linkclipref>
								<mediatype>audio</mediatype>
								<trackindex>5</trackindex>
								<clipindex>1</clipindex>
							</link>
							<link>
								<linkclipref>msub200012-3011-k1d1-009 15</linkclipref>
								<mediatype>audio</mediatype>
								<trackindex>6</trackindex>
								<clipindex>1</clipindex>
							</link>
							<link>
								<linkclipref>msub200012-3011-k1d1-009 16</linkclipref>
								<mediatype>audio</mediatype>
								<trackindex>7</trackindex>
								<clipindex>1</clipindex>
							</link>
							<link>
								<linkclipref>msub200012-3011-k1d1-009 17</linkclipref>
								<mediatype>audio</mediatype>
								<trackindex>8</trackindex>
								<clipindex>1</clipindex>
							</link>
						</clipitem>
						<enabled>TRUE</enabled>
						<locked>FALSE</locked>
					</track>
					<track>
						<clipitem id="msub200012-3011-k1d1-009 13">
							<name>msub200012-3011-k1d1-009</name>
							<duration>2155</duration>
							<rate>
								<ntsc>FALSE</ntsc>
								<timebase>25</timebase>
							</rate>
							<in>0</in>
							<out>2155</out>
							<start>0</start>
							<end>2155</end>
							<subframeoffset>0</subframeoffset>
							<masterclipid>msub200012-3011-k1d1-009 1</masterclipid>
							<syncoffset>0</syncoffset>
							<logginginfo>
								<scene/>
								<shottake/>
								<lognote/>
								<good>FALSE</good>
							</logginginfo>
							<labels>
								<label>Good Take</label>
								<label2/>
							</labels>
							<comments>
								<mastercomment1>RÃ…STOFF. BR_FINFREDAG_MSUA_OPRO</mastercomment1>
								<mastercomment2/>
								<mastercomment3/>
								<mastercomment4/>
							</comments>
							<file id="msub200012-3011-k1d1-009 2"/>
							<filter>
								<effect>
									<name>Audio Levels</name>
									<effectid>audiolevels</effectid>
									<effectcategory>audiolevels</effectcategory>
									<effecttype>audiolevels</effecttype>
									<mediatype>audio</mediatype>
									<parameter>
										<name>Level</name>
										<parameterid>level</parameterid>
										<valuemin>0</valuemin>
										<valuemax>3.98109</valuemax>
										<value>1</value>
									</parameter>
								</effect>
							</filter>
							<filter>
								<effect>
									<name>Audio Pan</name>
									<effectid>audiopan</effectid>
									<effectcategory>audiopan</effectcategory>
									<effecttype>audiopan</effecttype>
									<mediatype>audio</mediatype>
									<parameter>
										<name>Pan</name>
										<parameterid>pan</parameterid>
										<valuemin>-1</valuemin>
										<valuemax>1</valuemax>
										<value>0</value>
									</parameter>
								</effect>
							</filter>
							<sourcetrack>
								<mediatype>audio</mediatype>
								<trackindex>4</trackindex>
							</sourcetrack>
							<link>
								<linkclipref>msub200012-3011-k1d1-009 9</linkclipref>
								<mediatype>video</mediatype>
								<trackindex>1</trackindex>
								<clipindex>1</clipindex>
							</link>
							<link>
								<linkclipref>msub200012-3011-k1d1-009 10</linkclipref>
								<mediatype>audio</mediatype>
								<trackindex>1</trackindex>
								<clipindex>1</clipindex>
							</link>
							<link>
								<linkclipref>msub200012-3011-k1d1-009 11</linkclipref>
								<mediatype>audio</mediatype>
								<trackindex>2</trackindex>
								<clipindex>1</clipindex>
							</link>
							<link>
								<linkclipref>msub200012-3011-k1d1-009 12</linkclipref>
								<mediatype>audio</mediatype>
								<trackindex>3</trackindex>
								<clipindex>1</clipindex>
							</link>
							<link>
								<linkclipref>msub200012-3011-k1d1-009 13</linkclipref>
								<mediatype>audio</mediatype>
								<trackindex>4</trackindex>
								<clipindex>1</clipindex>
							</link>
							<link>
								<linkclipref>msub200012-3011-k1d1-009 14</linkclipref>
								<mediatype>audio</mediatype>
								<trackindex>5</trackindex>
								<clipindex>1</clipindex>
							</link>
							<link>
								<linkclipref>msub200012-3011-k1d1-009 15</linkclipref>
								<mediatype>audio</mediatype>
								<trackindex>6</trackindex>
								<clipindex>1</clipindex>
							</link>
							<link>
								<linkclipref>msub200012-3011-k1d1-009 16</linkclipref>
								<mediatype>audio</mediatype>
								<trackindex>7</trackindex>
								<clipindex>1</clipindex>
							</link>
							<link>
								<linkclipref>msub200012-3011-k1d1-009 17</linkclipref>
								<mediatype>audio</mediatype>
								<trackindex>8</trackindex>
								<clipindex>1</clipindex>
							</link>
						</clipitem>
						<enabled>TRUE</enabled>
						<locked>FALSE</locked>
					</track>
					<track>
						<clipitem id="msub200012-3011-k1d1-009 14">
							<name>msub200012-3011-k1d1-009</name>
							<duration>2155</duration>
							<rate>
								<ntsc>FALSE</ntsc>
								<timebase>25</timebase>
							</rate>
							<in>0</in>
							<out>2155</out>
							<start>0</start>
							<end>2155</end>
							<subframeoffset>0</subframeoffset>
							<masterclipid>msub200012-3011-k1d1-009 1</masterclipid>
							<syncoffset>0</syncoffset>
							<logginginfo>
								<scene/>
								<shottake/>
								<lognote/>
								<good>FALSE</good>
							</logginginfo>
							<labels>
								<label>Good Take</label>
								<label2/>
							</labels>
							<comments>
								<mastercomment1>RÃ…STOFF. BR_FINFREDAG_MSUA_OPRO</mastercomment1>
								<mastercomment2/>
								<mastercomment3/>
								<mastercomment4/>
							</comments>
							<file id="msub200012-3011-k1d1-009 2"/>
							<filter>
								<effect>
									<name>Audio Levels</name>
									<effectid>audiolevels</effectid>
									<effectcategory>audiolevels</effectcategory>
									<effecttype>audiolevels</effecttype>
									<mediatype>audio</mediatype>
									<parameter>
										<name>Level</name>
										<parameterid>level</parameterid>
										<valuemin>0</valuemin>
										<valuemax>3.98109</valuemax>
										<value>1</value>
									</parameter>
								</effect>
							</filter>
							<filter>
								<effect>
									<name>Audio Pan</name>
									<effectid>audiopan</effectid>
									<effectcategory>audiopan</effectcategory>
									<effecttype>audiopan</effecttype>
									<mediatype>audio</mediatype>
									<parameter>
										<name>Pan</name>
										<parameterid>pan</parameterid>
										<valuemin>-1</valuemin>
										<valuemax>1</valuemax>
										<value>0</value>
									</parameter>
								</effect>
							</filter>
							<sourcetrack>
								<mediatype>audio</mediatype>
								<trackindex>5</trackindex>
							</sourcetrack>
							<link>
								<linkclipref>msub200012-3011-k1d1-009 9</linkclipref>
								<mediatype>video</mediatype>
								<trackindex>1</trackindex>
								<clipindex>1</clipindex>
							</link>
							<link>
								<linkclipref>msub200012-3011-k1d1-009 10</linkclipref>
								<mediatype>audio</mediatype>
								<trackindex>1</trackindex>
								<clipindex>1</clipindex>
							</link>
							<link>
								<linkclipref>msub200012-3011-k1d1-009 11</linkclipref>
								<mediatype>audio</mediatype>
								<trackindex>2</trackindex>
								<clipindex>1</clipindex>
							</link>
							<link>
								<linkclipref>msub200012-3011-k1d1-009 12</linkclipref>
								<mediatype>audio</mediatype>
								<trackindex>3</trackindex>
								<clipindex>1</clipindex>
							</link>
							<link>
								<linkclipref>msub200012-3011-k1d1-009 13</linkclipref>
								<mediatype>audio</mediatype>
								<trackindex>4</trackindex>
								<clipindex>1</clipindex>
							</link>
							<link>
								<linkclipref>msub200012-3011-k1d1-009 14</linkclipref>
								<mediatype>audio</mediatype>
								<trackindex>5</trackindex>
								<clipindex>1</clipindex>
							</link>
							<link>
								<linkclipref>msub200012-3011-k1d1-009 15</linkclipref>
								<mediatype>audio</mediatype>
								<trackindex>6</trackindex>
								<clipindex>1</clipindex>
							</link>
							<link>
								<linkclipref>msub200012-3011-k1d1-009 16</linkclipref>
								<mediatype>audio</mediatype>
								<trackindex>7</trackindex>
								<clipindex>1</clipindex>
							</link>
							<link>
								<linkclipref>msub200012-3011-k1d1-009 17</linkclipref>
								<mediatype>audio</mediatype>
								<trackindex>8</trackindex>
								<clipindex>1</clipindex>
							</link>
						</clipitem>
						<enabled>TRUE</enabled>
						<locked>FALSE</locked>
					</track>
					<track>
						<clipitem id="msub200012-3011-k1d1-009 15">
							<name>msub200012-3011-k1d1-009</name>
							<duration>2155</duration>
							<rate>
								<ntsc>FALSE</ntsc>
								<timebase>25</timebase>
							</rate>
							<in>0</in>
							<out>2155</out>
							<start>0</start>
							<end>2155</end>
							<subframeoffset>0</subframeoffset>
							<masterclipid>msub200012-3011-k1d1-009 1</masterclipid>
							<syncoffset>0</syncoffset>
							<logginginfo>
								<scene/>
								<shottake/>
								<lognote/>
								<good>FALSE</good>
							</logginginfo>
							<labels>
								<label>Good Take</label>
								<label2/>
							</labels>
							<comments>
								<mastercomment1>RÃ…STOFF. BR_FINFREDAG_MSUA_OPRO</mastercomment1>
								<mastercomment2/>
								<mastercomment3/>
								<mastercomment4/>
							</comments>
							<file id="msub200012-3011-k1d1-009 2"/>
							<filter>
								<effect>
									<name>Audio Levels</name>
									<effectid>audiolevels</effectid>
									<effectcategory>audiolevels</effectcategory>
									<effecttype>audiolevels</effecttype>
									<mediatype>audio</mediatype>
									<parameter>
										<name>Level</name>
										<parameterid>level</parameterid>
										<valuemin>0</valuemin>
										<valuemax>3.98109</valuemax>
										<value>1</value>
									</parameter>
								</effect>
							</filter>
							<filter>
								<effect>
									<name>Audio Pan</name>
									<effectid>audiopan</effectid>
									<effectcategory>audiopan</effectcategory>
									<effecttype>audiopan</effecttype>
									<mediatype>audio</mediatype>
									<parameter>
										<name>Pan</name>
										<parameterid>pan</parameterid>
										<valuemin>-1</valuemin>
										<valuemax>1</valuemax>
										<value>0</value>
									</parameter>
								</effect>
							</filter>
							<sourcetrack>
								<mediatype>audio</mediatype>
								<trackindex>6</trackindex>
							</sourcetrack>
							<link>
								<linkclipref>msub200012-3011-k1d1-009 9</linkclipref>
								<mediatype>video</mediatype>
								<trackindex>1</trackindex>
								<clipindex>1</clipindex>
							</link>
							<link>
								<linkclipref>msub200012-3011-k1d1-009 10</linkclipref>
								<mediatype>audio</mediatype>
								<trackindex>1</trackindex>
								<clipindex>1</clipindex>
							</link>
							<link>
								<linkclipref>msub200012-3011-k1d1-009 11</linkclipref>
								<mediatype>audio</mediatype>
								<trackindex>2</trackindex>
								<clipindex>1</clipindex>
							</link>
							<link>
								<linkclipref>msub200012-3011-k1d1-009 12</linkclipref>
								<mediatype>audio</mediatype>
								<trackindex>3</trackindex>
								<clipindex>1</clipindex>
							</link>
							<link>
								<linkclipref>msub200012-3011-k1d1-009 13</linkclipref>
								<mediatype>audio</mediatype>
								<trackindex>4</trackindex>
								<clipindex>1</clipindex>
							</link>
							<link>
								<linkclipref>msub200012-3011-k1d1-009 14</linkclipref>
								<mediatype>audio</mediatype>
								<trackindex>5</trackindex>
								<clipindex>1</clipindex>
							</link>
							<link>
								<linkclipref>msub200012-3011-k1d1-009 15</linkclipref>
								<mediatype>audio</mediatype>
								<trackindex>6</trackindex>
								<clipindex>1</clipindex>
							</link>
							<link>
								<linkclipref>msub200012-3011-k1d1-009 16</linkclipref>
								<mediatype>audio</mediatype>
								<trackindex>7</trackindex>
								<clipindex>1</clipindex>
							</link>
							<link>
								<linkclipref>msub200012-3011-k1d1-009 17</linkclipref>
								<mediatype>audio</mediatype>
								<trackindex>8</trackindex>
								<clipindex>1</clipindex>
							</link>
						</clipitem>
						<enabled>TRUE</enabled>
						<locked>FALSE</locked>
					</track>
					<track>
						<clipitem id="msub200012-3011-k1d1-009 16">
							<name>msub200012-3011-k1d1-009</name>
							<duration>2155</duration>
							<rate>
								<ntsc>FALSE</ntsc>
								<timebase>25</timebase>
							</rate>
							<in>0</in>
							<out>2155</out>
							<start>0</start>
							<end>2155</end>
							<subframeoffset>0</subframeoffset>
							<masterclipid>msub200012-3011-k1d1-009 1</masterclipid>
							<syncoffset>0</syncoffset>
							<logginginfo>
								<scene/>
								<shottake/>
								<lognote/>
								<good>FALSE</good>
							</logginginfo>
							<labels>
								<label>Good Take</label>
								<label2/>
							</labels>
							<comments>
								<mastercomment1>RÃ…STOFF. BR_FINFREDAG_MSUA_OPRO</mastercomment1>
								<mastercomment2/>
								<mastercomment3/>
								<mastercomment4/>
							</comments>
							<file id="msub200012-3011-k1d1-009 2"/>
							<filter>
								<effect>
									<name>Audio Levels</name>
									<effectid>audiolevels</effectid>
									<effectcategory>audiolevels</effectcategory>
									<effecttype>audiolevels</effecttype>
									<mediatype>audio</mediatype>
									<parameter>
										<name>Level</name>
										<parameterid>level</parameterid>
										<valuemin>0</valuemin>
										<valuemax>3.98109</valuemax>
										<value>1</value>
									</parameter>
								</effect>
							</filter>
							<filter>
								<effect>
									<name>Audio Pan</name>
									<effectid>audiopan</effectid>
									<effectcategory>audiopan</effectcategory>
									<effecttype>audiopan</effecttype>
									<mediatype>audio</mediatype>
									<parameter>
										<name>Pan</name>
										<parameterid>pan</parameterid>
										<valuemin>-1</valuemin>
										<valuemax>1</valuemax>
										<value>0</value>
									</parameter>
								</effect>
							</filter>
							<sourcetrack>
								<mediatype>audio</mediatype>
								<trackindex>7</trackindex>
							</sourcetrack>
							<link>
								<linkclipref>msub200012-3011-k1d1-009 9</linkclipref>
								<mediatype>video</mediatype>
								<trackindex>1</trackindex>
								<clipindex>1</clipindex>
							</link>
							<link>
								<linkclipref>msub200012-3011-k1d1-009 10</linkclipref>
								<mediatype>audio</mediatype>
								<trackindex>1</trackindex>
								<clipindex>1</clipindex>
							</link>
							<link>
								<linkclipref>msub200012-3011-k1d1-009 11</linkclipref>
								<mediatype>audio</mediatype>
								<trackindex>2</trackindex>
								<clipindex>1</clipindex>
							</link>
							<link>
								<linkclipref>msub200012-3011-k1d1-009 12</linkclipref>
								<mediatype>audio</mediatype>
								<trackindex>3</trackindex>
								<clipindex>1</clipindex>
							</link>
							<link>
								<linkclipref>msub200012-3011-k1d1-009 13</linkclipref>
								<mediatype>audio</mediatype>
								<trackindex>4</trackindex>
								<clipindex>1</clipindex>
							</link>
							<link>
								<linkclipref>msub200012-3011-k1d1-009 14</linkclipref>
								<mediatype>audio</mediatype>
								<trackindex>5</trackindex>
								<clipindex>1</clipindex>
							</link>
							<link>
								<linkclipref>msub200012-3011-k1d1-009 15</linkclipref>
								<mediatype>audio</mediatype>
								<trackindex>6</trackindex>
								<clipindex>1</clipindex>
							</link>
							<link>
								<linkclipref>msub200012-3011-k1d1-009 16</linkclipref>
								<mediatype>audio</mediatype>
								<trackindex>7</trackindex>
								<clipindex>1</clipindex>
							</link>
							<link>
								<linkclipref>msub200012-3011-k1d1-009 17</linkclipref>
								<mediatype>audio</mediatype>
								<trackindex>8</trackindex>
								<clipindex>1</clipindex>
							</link>
						</clipitem>
						<enabled>TRUE</enabled>
						<locked>FALSE</locked>
					</track>
					<track>
						<clipitem id="msub200012-3011-k1d1-009 17">
							<name>msub200012-3011-k1d1-009</name>
							<duration>2155</duration>
							<rate>
								<ntsc>FALSE</ntsc>
								<timebase>25</timebase>
							</rate>
							<in>0</in>
							<out>2155</out>
							<start>0</start>
							<end>2155</end>
							<subframeoffset>0</subframeoffset>
							<masterclipid>msub200012-3011-k1d1-009 1</masterclipid>
							<syncoffset>0</syncoffset>
							<logginginfo>
								<scene/>
								<shottake/>
								<lognote/>
								<good>FALSE</good>
							</logginginfo>
							<labels>
								<label>Good Take</label>
								<label2/>
							</labels>
							<comments>
								<mastercomment1>RÃ…STOFF. BR_FINFREDAG_MSUA_OPRO</mastercomment1>
								<mastercomment2/>
								<mastercomment3/>
								<mastercomment4/>
							</comments>
							<file id="msub200012-3011-k1d1-009 2"/>
							<filter>
								<effect>
									<name>Audio Levels</name>
									<effectid>audiolevels</effectid>
									<effectcategory>audiolevels</effectcategory>
									<effecttype>audiolevels</effecttype>
									<mediatype>audio</mediatype>
									<parameter>
										<name>Level</name>
										<parameterid>level</parameterid>
										<valuemin>0</valuemin>
										<valuemax>3.98109</valuemax>
										<value>1</value>
									</parameter>
								</effect>
							</filter>
							<filter>
								<effect>
									<name>Audio Pan</name>
									<effectid>audiopan</effectid>
									<effectcategory>audiopan</effectcategory>
									<effecttype>audiopan</effecttype>
									<mediatype>audio</mediatype>
									<parameter>
										<name>Pan</name>
										<parameterid>pan</parameterid>
										<valuemin>-1</valuemin>
										<valuemax>1</valuemax>
										<value>0</value>
									</parameter>
								</effect>
							</filter>
							<sourcetrack>
								<mediatype>audio</mediatype>
								<trackindex>8</trackindex>
							</sourcetrack>
							<link>
								<linkclipref>msub200012-3011-k1d1-009 9</linkclipref>
								<mediatype>video</mediatype>
								<trackindex>1</trackindex>
								<clipindex>1</clipindex>
							</link>
							<link>
								<linkclipref>msub200012-3011-k1d1-009 10</linkclipref>
								<mediatype>audio</mediatype>
								<trackindex>1</trackindex>
								<clipindex>1</clipindex>
							</link>
							<link>
								<linkclipref>msub200012-3011-k1d1-009 11</linkclipref>
								<mediatype>audio</mediatype>
								<trackindex>2</trackindex>
								<clipindex>1</clipindex>
							</link>
							<link>
								<linkclipref>msub200012-3011-k1d1-009 12</linkclipref>
								<mediatype>audio</mediatype>
								<trackindex>3</trackindex>
								<clipindex>1</clipindex>
							</link>
							<link>
								<linkclipref>msub200012-3011-k1d1-009 13</linkclipref>
								<mediatype>audio</mediatype>
								<trackindex>4</trackindex>
								<clipindex>1</clipindex>
							</link>
							<link>
								<linkclipref>msub200012-3011-k1d1-009 14</linkclipref>
								<mediatype>audio</mediatype>
								<trackindex>5</trackindex>
								<clipindex>1</clipindex>
							</link>
							<link>
								<linkclipref>msub200012-3011-k1d1-009 15</linkclipref>
								<mediatype>audio</mediatype>
								<trackindex>6</trackindex>
								<clipindex>1</clipindex>
							</link>
							<link>
								<linkclipref>msub200012-3011-k1d1-009 16</linkclipref>
								<mediatype>audio</mediatype>
								<trackindex>7</trackindex>
								<clipindex>1</clipindex>
							</link>
							<link>
								<linkclipref>msub200012-3011-k1d1-009 17</linkclipref>
								<mediatype>audio</mediatype>
								<trackindex>8</trackindex>
								<clipindex>1</clipindex>
							</link>
						</clipitem>
						<enabled>TRUE</enabled>
						<locked>FALSE</locked>
					</track>
				</audio>
			</media>
		</clip>
		<clip id="msub200012-3011-k1d1-026 8">
			<name>msub200012-3011-k1d1-026</name>
			<duration>1553</duration>
			<rate>
				<ntsc>FALSE</ntsc>
				<timebase>25</timebase>
			</rate>
			<in>392</in>
			<out>1070</out>
			<masterclipid>msub200012-3011-k1d1-026 1</masterclipid>
			<ismasterclip>FALSE</ismasterclip>
			<logginginfo>
				<description>msub200012-3011-k1d1-026</description>
				<scene/>
				<shottake/>
				<lognote/>
				<good>FALSE</good>
			</logginginfo>
			<labels>
				<label>Best Take</label>
				<label2/>
			</labels>
			<comments>
				<mastercomment1>RÃ…STOFF. BR_FINFREDAG_MSUA_OPRO</mastercomment1>
				<mastercomment2/>
				<mastercomment3/>
				<mastercomment4/>
				<clipcommenta/>
			</comments>
			<media>
				<video>
					<track>
						<clipitem id="msub200012-3011-k1d1-026 9">
							<name>msub200012-3011-k1d1-026</name>
							<duration>1553</duration>
							<rate>
								<ntsc>FALSE</ntsc>
								<timebase>25</timebase>
							</rate>
							<in>0</in>
							<out>1553</out>
							<start>0</start>
							<end>1553</end>
							<pixelaspectratio>Square</pixelaspectratio>
							<anamorphic>FALSE</anamorphic>
							<alphatype>none</alphatype>
							<masterclipid>msub200012-3011-k1d1-026 1</masterclipid>
							<syncoffset>0</syncoffset>
							<logginginfo>
								<scene/>
								<shottake/>
								<lognote/>
								<good>FALSE</good>
							</logginginfo>
							<labels>
								<label>Best Take</label>
								<label2/>
							</labels>
							<comments>
								<mastercomment1>RÃ…STOFF. BR_FINFREDAG_MSUA_OPRO</mastercomment1>
								<mastercomment2/>
								<mastercomment3/>
								<mastercomment4/>
								<clipcommenta/>
							</comments>
							<file id="msub200012-3011-k1d1-026 2"/>
							<sourcetrack>
								<mediatype>video</mediatype>
							</sourcetrack>
							<link>
								<linkclipref>msub200012-3011-k1d1-026 9</linkclipref>
								<mediatype>video</mediatype>
								<trackindex>1</trackindex>
								<clipindex>1</clipindex>
							</link>
							<link>
								<linkclipref>msub200012-3011-k1d1-026 10</linkclipref>
								<mediatype>audio</mediatype>
								<trackindex>1</trackindex>
								<clipindex>1</clipindex>
							</link>
							<link>
								<linkclipref>msub200012-3011-k1d1-026 11</linkclipref>
								<mediatype>audio</mediatype>
								<trackindex>2</trackindex>
								<clipindex>1</clipindex>
							</link>
							<link>
								<linkclipref>msub200012-3011-k1d1-026 12</linkclipref>
								<mediatype>audio</mediatype>
								<trackindex>3</trackindex>
								<clipindex>1</clipindex>
							</link>
							<link>
								<linkclipref>msub200012-3011-k1d1-026 13</linkclipref>
								<mediatype>audio</mediatype>
								<trackindex>4</trackindex>
								<clipindex>1</clipindex>
							</link>
							<link>
								<linkclipref>msub200012-3011-k1d1-026 14</linkclipref>
								<mediatype>audio</mediatype>
								<trackindex>5</trackindex>
								<clipindex>1</clipindex>
							</link>
							<link>
								<linkclipref>msub200012-3011-k1d1-026 15</linkclipref>
								<mediatype>audio</mediatype>
								<trackindex>6</trackindex>
								<clipindex>1</clipindex>
							</link>
							<link>
								<linkclipref>msub200012-3011-k1d1-026 16</linkclipref>
								<mediatype>audio</mediatype>
								<trackindex>7</trackindex>
								<clipindex>1</clipindex>
							</link>
							<link>
								<linkclipref>msub200012-3011-k1d1-026 17</linkclipref>
								<mediatype>audio</mediatype>
								<trackindex>8</trackindex>
								<clipindex>1</clipindex>
							</link>
							<fielddominance>upper</fielddominance>
						</clipitem>
						<enabled>TRUE</enabled>
						<locked>FALSE</locked>
					</track>
				</video>
				<audio>
					<in>392</in>
					<out>1070</out>
					<track>
						<clipitem id="msub200012-3011-k1d1-026 10">
							<name>msub200012-3011-k1d1-026</name>
							<duration>1553</duration>
							<rate>
								<ntsc>FALSE</ntsc>
								<timebase>25</timebase>
							</rate>
							<in>0</in>
							<out>1553</out>
							<start>0</start>
							<end>1553</end>
							<subframeoffset>0</subframeoffset>
							<masterclipid>msub200012-3011-k1d1-026 1</masterclipid>
							<syncoffset>0</syncoffset>
							<logginginfo>
								<scene/>
								<shottake/>
								<lognote/>
								<good>FALSE</good>
							</logginginfo>
							<labels>
								<label>Best Take</label>
								<label2/>
							</labels>
							<comments>
								<mastercomment1>RÃ…STOFF. BR_FINFREDAG_MSUA_OPRO</mastercomment1>
								<mastercomment2/>
								<mastercomment3/>
								<mastercomment4/>
							</comments>
							<file id="msub200012-3011-k1d1-026 2"/>
							<filter>
								<effect>
									<name>Audio Levels</name>
									<effectid>audiolevels</effectid>
									<effectcategory>audiolevels</effectcategory>
									<effecttype>audiolevels</effecttype>
									<mediatype>audio</mediatype>
									<parameter>
										<name>Level</name>
										<parameterid>level</parameterid>
										<valuemin>0</valuemin>
										<valuemax>3.98109</valuemax>
										<value>1</value>
									</parameter>
								</effect>
							</filter>
							<filter>
								<effect>
									<name>Audio Pan</name>
									<effectid>audiopan</effectid>
									<effectcategory>audiopan</effectcategory>
									<effecttype>audiopan</effecttype>
									<mediatype>audio</mediatype>
									<parameter>
										<name>Pan</name>
										<parameterid>pan</parameterid>
										<valuemin>-1</valuemin>
										<valuemax>1</valuemax>
										<value>0</value>
									</parameter>
								</effect>
							</filter>
							<sourcetrack>
								<mediatype>audio</mediatype>
								<trackindex>1</trackindex>
							</sourcetrack>
							<link>
								<linkclipref>msub200012-3011-k1d1-026 9</linkclipref>
								<mediatype>video</mediatype>
								<trackindex>1</trackindex>
								<clipindex>1</clipindex>
							</link>
							<link>
								<linkclipref>msub200012-3011-k1d1-026 10</linkclipref>
								<mediatype>audio</mediatype>
								<trackindex>1</trackindex>
								<clipindex>1</clipindex>
							</link>
							<link>
								<linkclipref>msub200012-3011-k1d1-026 11</linkclipref>
								<mediatype>audio</mediatype>
								<trackindex>2</trackindex>
								<clipindex>1</clipindex>
							</link>
							<link>
								<linkclipref>msub200012-3011-k1d1-026 12</linkclipref>
								<mediatype>audio</mediatype>
								<trackindex>3</trackindex>
								<clipindex>1</clipindex>
							</link>
							<link>
								<linkclipref>msub200012-3011-k1d1-026 13</linkclipref>
								<mediatype>audio</mediatype>
								<trackindex>4</trackindex>
								<clipindex>1</clipindex>
							</link>
							<link>
								<linkclipref>msub200012-3011-k1d1-026 14</linkclipref>
								<mediatype>audio</mediatype>
								<trackindex>5</trackindex>
								<clipindex>1</clipindex>
							</link>
							<link>
								<linkclipref>msub200012-3011-k1d1-026 15</linkclipref>
								<mediatype>audio</mediatype>
								<trackindex>6</trackindex>
								<clipindex>1</clipindex>
							</link>
							<link>
								<linkclipref>msub200012-3011-k1d1-026 16</linkclipref>
								<mediatype>audio</mediatype>
								<trackindex>7</trackindex>
								<clipindex>1</clipindex>
							</link>
							<link>
								<linkclipref>msub200012-3011-k1d1-026 17</linkclipref>
								<mediatype>audio</mediatype>
								<trackindex>8</trackindex>
								<clipindex>1</clipindex>
							</link>
						</clipitem>
						<enabled>TRUE</enabled>
						<locked>FALSE</locked>
					</track>
					<track>
						<clipitem id="msub200012-3011-k1d1-026 11">
							<name>msub200012-3011-k1d1-026</name>
							<duration>1553</duration>
							<rate>
								<ntsc>FALSE</ntsc>
								<timebase>25</timebase>
							</rate>
							<in>0</in>
							<out>1553</out>
							<start>0</start>
							<end>1553</end>
							<subframeoffset>0</subframeoffset>
							<masterclipid>msub200012-3011-k1d1-026 1</masterclipid>
							<syncoffset>0</syncoffset>
							<logginginfo>
								<scene/>
								<shottake/>
								<lognote/>
								<good>FALSE</good>
							</logginginfo>
							<labels>
								<label>Best Take</label>
								<label2/>
							</labels>
							<comments>
								<mastercomment1>RÃ…STOFF. BR_FINFREDAG_MSUA_OPRO</mastercomment1>
								<mastercomment2/>
								<mastercomment3/>
								<mastercomment4/>
							</comments>
							<file id="msub200012-3011-k1d1-026 2"/>
							<filter>
								<effect>
									<name>Audio Levels</name>
									<effectid>audiolevels</effectid>
									<effectcategory>audiolevels</effectcategory>
									<effecttype>audiolevels</effecttype>
									<mediatype>audio</mediatype>
									<parameter>
										<name>Level</name>
										<parameterid>level</parameterid>
										<valuemin>0</valuemin>
										<valuemax>3.98109</valuemax>
										<value>1</value>
									</parameter>
								</effect>
							</filter>
							<filter>
								<effect>
									<name>Audio Pan</name>
									<effectid>audiopan</effectid>
									<effectcategory>audiopan</effectcategory>
									<effecttype>audiopan</effecttype>
									<mediatype>audio</mediatype>
									<parameter>
										<name>Pan</name>
										<parameterid>pan</parameterid>
										<valuemin>-1</valuemin>
										<valuemax>1</valuemax>
										<value>0</value>
									</parameter>
								</effect>
							</filter>
							<sourcetrack>
								<mediatype>audio</mediatype>
								<trackindex>2</trackindex>
							</sourcetrack>
							<link>
								<linkclipref>msub200012-3011-k1d1-026 9</linkclipref>
								<mediatype>video</mediatype>
								<trackindex>1</trackindex>
								<clipindex>1</clipindex>
							</link>
							<link>
								<linkclipref>msub200012-3011-k1d1-026 10</linkclipref>
								<mediatype>audio</mediatype>
								<trackindex>1</trackindex>
								<clipindex>1</clipindex>
							</link>
							<link>
								<linkclipref>msub200012-3011-k1d1-026 11</linkclipref>
								<mediatype>audio</mediatype>
								<trackindex>2</trackindex>
								<clipindex>1</clipindex>
							</link>
							<link>
								<linkclipref>msub200012-3011-k1d1-026 12</linkclipref>
								<mediatype>audio</mediatype>
								<trackindex>3</trackindex>
								<clipindex>1</clipindex>
							</link>
							<link>
								<linkclipref>msub200012-3011-k1d1-026 13</linkclipref>
								<mediatype>audio</mediatype>
								<trackindex>4</trackindex>
								<clipindex>1</clipindex>
							</link>
							<link>
								<linkclipref>msub200012-3011-k1d1-026 14</linkclipref>
								<mediatype>audio</mediatype>
								<trackindex>5</trackindex>
								<clipindex>1</clipindex>
							</link>
							<link>
								<linkclipref>msub200012-3011-k1d1-026 15</linkclipref>
								<mediatype>audio</mediatype>
								<trackindex>6</trackindex>
								<clipindex>1</clipindex>
							</link>
							<link>
								<linkclipref>msub200012-3011-k1d1-026 16</linkclipref>
								<mediatype>audio</mediatype>
								<trackindex>7</trackindex>
								<clipindex>1</clipindex>
							</link>
							<link>
								<linkclipref>msub200012-3011-k1d1-026 17</linkclipref>
								<mediatype>audio</mediatype>
								<trackindex>8</trackindex>
								<clipindex>1</clipindex>
							</link>
						</clipitem>
						<enabled>TRUE</enabled>
						<locked>FALSE</locked>
					</track>
					<track>
						<clipitem id="msub200012-3011-k1d1-026 12">
							<name>msub200012-3011-k1d1-026</name>
							<duration>1553</duration>
							<rate>
								<ntsc>FALSE</ntsc>
								<timebase>25</timebase>
							</rate>
							<in>0</in>
							<out>1553</out>
							<start>0</start>
							<end>1553</end>
							<subframeoffset>0</subframeoffset>
							<masterclipid>msub200012-3011-k1d1-026 1</masterclipid>
							<syncoffset>0</syncoffset>
							<logginginfo>
								<scene/>
								<shottake/>
								<lognote/>
								<good>FALSE</good>
							</logginginfo>
							<labels>
								<label>Best Take</label>
								<label2/>
							</labels>
							<comments>
								<mastercomment1>RÃ…STOFF. BR_FINFREDAG_MSUA_OPRO</mastercomment1>
								<mastercomment2/>
								<mastercomment3/>
								<mastercomment4/>
							</comments>
							<file id="msub200012-3011-k1d1-026 2"/>
							<filter>
								<effect>
									<name>Audio Levels</name>
									<effectid>audiolevels</effectid>
									<effectcategory>audiolevels</effectcategory>
									<effecttype>audiolevels</effecttype>
									<mediatype>audio</mediatype>
									<parameter>
										<name>Level</name>
										<parameterid>level</parameterid>
										<valuemin>0</valuemin>
										<valuemax>3.98109</valuemax>
										<value>1</value>
									</parameter>
								</effect>
							</filter>
							<filter>
								<effect>
									<name>Audio Pan</name>
									<effectid>audiopan</effectid>
									<effectcategory>audiopan</effectcategory>
									<effecttype>audiopan</effecttype>
									<mediatype>audio</mediatype>
									<parameter>
										<name>Pan</name>
										<parameterid>pan</parameterid>
										<valuemin>-1</valuemin>
										<valuemax>1</valuemax>
										<value>0</value>
									</parameter>
								</effect>
							</filter>
							<sourcetrack>
								<mediatype>audio</mediatype>
								<trackindex>3</trackindex>
							</sourcetrack>
							<link>
								<linkclipref>msub200012-3011-k1d1-026 9</linkclipref>
								<mediatype>video</mediatype>
								<trackindex>1</trackindex>
								<clipindex>1</clipindex>
							</link>
							<link>
								<linkclipref>msub200012-3011-k1d1-026 10</linkclipref>
								<mediatype>audio</mediatype>
								<trackindex>1</trackindex>
								<clipindex>1</clipindex>
							</link>
							<link>
								<linkclipref>msub200012-3011-k1d1-026 11</linkclipref>
								<mediatype>audio</mediatype>
								<trackindex>2</trackindex>
								<clipindex>1</clipindex>
							</link>
							<link>
								<linkclipref>msub200012-3011-k1d1-026 12</linkclipref>
								<mediatype>audio</mediatype>
								<trackindex>3</trackindex>
								<clipindex>1</clipindex>
							</link>
							<link>
								<linkclipref>msub200012-3011-k1d1-026 13</linkclipref>
								<mediatype>audio</mediatype>
								<trackindex>4</trackindex>
								<clipindex>1</clipindex>
							</link>
							<link>
								<linkclipref>msub200012-3011-k1d1-026 14</linkclipref>
								<mediatype>audio</mediatype>
								<trackindex>5</trackindex>
								<clipindex>1</clipindex>
							</link>
							<link>
								<linkclipref>msub200012-3011-k1d1-026 15</linkclipref>
								<mediatype>audio</mediatype>
								<trackindex>6</trackindex>
								<clipindex>1</clipindex>
							</link>
							<link>
								<linkclipref>msub200012-3011-k1d1-026 16</linkclipref>
								<mediatype>audio</mediatype>
								<trackindex>7</trackindex>
								<clipindex>1</clipindex>
							</link>
							<link>
								<linkclipref>msub200012-3011-k1d1-026 17</linkclipref>
								<mediatype>audio</mediatype>
								<trackindex>8</trackindex>
								<clipindex>1</clipindex>
							</link>
						</clipitem>
						<enabled>TRUE</enabled>
						<locked>FALSE</locked>
					</track>
					<track>
						<clipitem id="msub200012-3011-k1d1-026 13">
							<name>msub200012-3011-k1d1-026</name>
							<duration>1553</duration>
							<rate>
								<ntsc>FALSE</ntsc>
								<timebase>25</timebase>
							</rate>
							<in>0</in>
							<out>1553</out>
							<start>0</start>
							<end>1553</end>
							<subframeoffset>0</subframeoffset>
							<masterclipid>msub200012-3011-k1d1-026 1</masterclipid>
							<syncoffset>0</syncoffset>
							<logginginfo>
								<scene/>
								<shottake/>
								<lognote/>
								<good>FALSE</good>
							</logginginfo>
							<labels>
								<label>Best Take</label>
								<label2/>
							</labels>
							<comments>
								<mastercomment1>RÃ…STOFF. BR_FINFREDAG_MSUA_OPRO</mastercomment1>
								<mastercomment2/>
								<mastercomment3/>
								<mastercomment4/>
							</comments>
							<file id="msub200012-3011-k1d1-026 2"/>
							<filter>
								<effect>
									<name>Audio Levels</name>
									<effectid>audiolevels</effectid>
									<effectcategory>audiolevels</effectcategory>
									<effecttype>audiolevels</effecttype>
									<mediatype>audio</mediatype>
									<parameter>
										<name>Level</name>
										<parameterid>level</parameterid>
										<valuemin>0</valuemin>
										<valuemax>3.98109</valuemax>
										<value>1</value>
									</parameter>
								</effect>
							</filter>
							<filter>
								<effect>
									<name>Audio Pan</name>
									<effectid>audiopan</effectid>
									<effectcategory>audiopan</effectcategory>
									<effecttype>audiopan</effecttype>
									<mediatype>audio</mediatype>
									<parameter>
										<name>Pan</name>
										<parameterid>pan</parameterid>
										<valuemin>-1</valuemin>
										<valuemax>1</valuemax>
										<value>0</value>
									</parameter>
								</effect>
							</filter>
							<sourcetrack>
								<mediatype>audio</mediatype>
								<trackindex>4</trackindex>
							</sourcetrack>
							<link>
								<linkclipref>msub200012-3011-k1d1-026 9</linkclipref>
								<mediatype>video</mediatype>
								<trackindex>1</trackindex>
								<clipindex>1</clipindex>
							</link>
							<link>
								<linkclipref>msub200012-3011-k1d1-026 10</linkclipref>
								<mediatype>audio</mediatype>
								<trackindex>1</trackindex>
								<clipindex>1</clipindex>
							</link>
							<link>
								<linkclipref>msub200012-3011-k1d1-026 11</linkclipref>
								<mediatype>audio</mediatype>
								<trackindex>2</trackindex>
								<clipindex>1</clipindex>
							</link>
							<link>
								<linkclipref>msub200012-3011-k1d1-026 12</linkclipref>
								<mediatype>audio</mediatype>
								<trackindex>3</trackindex>
								<clipindex>1</clipindex>
							</link>
							<link>
								<linkclipref>msub200012-3011-k1d1-026 13</linkclipref>
								<mediatype>audio</mediatype>
								<trackindex>4</trackindex>
								<clipindex>1</clipindex>
							</link>
							<link>
								<linkclipref>msub200012-3011-k1d1-026 14</linkclipref>
								<mediatype>audio</mediatype>
								<trackindex>5</trackindex>
								<clipindex>1</clipindex>
							</link>
							<link>
								<linkclipref>msub200012-3011-k1d1-026 15</linkclipref>
								<mediatype>audio</mediatype>
								<trackindex>6</trackindex>
								<clipindex>1</clipindex>
							</link>
							<link>
								<linkclipref>msub200012-3011-k1d1-026 16</linkclipref>
								<mediatype>audio</mediatype>
								<trackindex>7</trackindex>
								<clipindex>1</clipindex>
							</link>
							<link>
								<linkclipref>msub200012-3011-k1d1-026 17</linkclipref>
								<mediatype>audio</mediatype>
								<trackindex>8</trackindex>
								<clipindex>1</clipindex>
							</link>
						</clipitem>
						<enabled>TRUE</enabled>
						<locked>FALSE</locked>
					</track>
					<track>
						<clipitem id="msub200012-3011-k1d1-026 14">
							<name>msub200012-3011-k1d1-026</name>
							<duration>1553</duration>
							<rate>
								<ntsc>FALSE</ntsc>
								<timebase>25</timebase>
							</rate>
							<in>0</in>
							<out>1553</out>
							<start>0</start>
							<end>1553</end>
							<subframeoffset>0</subframeoffset>
							<masterclipid>msub200012-3011-k1d1-026 1</masterclipid>
							<syncoffset>0</syncoffset>
							<logginginfo>
								<scene/>
								<shottake/>
								<lognote/>
								<good>FALSE</good>
							</logginginfo>
							<labels>
								<label>Best Take</label>
								<label2/>
							</labels>
							<comments>
								<mastercomment1>RÃ…STOFF. BR_FINFREDAG_MSUA_OPRO</mastercomment1>
								<mastercomment2/>
								<mastercomment3/>
								<mastercomment4/>
							</comments>
							<file id="msub200012-3011-k1d1-026 2"/>
							<filter>
								<effect>
									<name>Audio Levels</name>
									<effectid>audiolevels</effectid>
									<effectcategory>audiolevels</effectcategory>
									<effecttype>audiolevels</effecttype>
									<mediatype>audio</mediatype>
									<parameter>
										<name>Level</name>
										<parameterid>level</parameterid>
										<valuemin>0</valuemin>
										<valuemax>3.98109</valuemax>
										<value>1</value>
									</parameter>
								</effect>
							</filter>
							<filter>
								<effect>
									<name>Audio Pan</name>
									<effectid>audiopan</effectid>
									<effectcategory>audiopan</effectcategory>
									<effecttype>audiopan</effecttype>
									<mediatype>audio</mediatype>
									<parameter>
										<name>Pan</name>
										<parameterid>pan</parameterid>
										<valuemin>-1</valuemin>
										<valuemax>1</valuemax>
										<value>0</value>
									</parameter>
								</effect>
							</filter>
							<sourcetrack>
								<mediatype>audio</mediatype>
								<trackindex>5</trackindex>
							</sourcetrack>
							<link>
								<linkclipref>msub200012-3011-k1d1-026 9</linkclipref>
								<mediatype>video</mediatype>
								<trackindex>1</trackindex>
								<clipindex>1</clipindex>
							</link>
							<link>
								<linkclipref>msub200012-3011-k1d1-026 10</linkclipref>
								<mediatype>audio</mediatype>
								<trackindex>1</trackindex>
								<clipindex>1</clipindex>
							</link>
							<link>
								<linkclipref>msub200012-3011-k1d1-026 11</linkclipref>
								<mediatype>audio</mediatype>
								<trackindex>2</trackindex>
								<clipindex>1</clipindex>
							</link>
							<link>
								<linkclipref>msub200012-3011-k1d1-026 12</linkclipref>
								<mediatype>audio</mediatype>
								<trackindex>3</trackindex>
								<clipindex>1</clipindex>
							</link>
							<link>
								<linkclipref>msub200012-3011-k1d1-026 13</linkclipref>
								<mediatype>audio</mediatype>
								<trackindex>4</trackindex>
								<clipindex>1</clipindex>
							</link>
							<link>
								<linkclipref>msub200012-3011-k1d1-026 14</linkclipref>
								<mediatype>audio</mediatype>
								<trackindex>5</trackindex>
								<clipindex>1</clipindex>
							</link>
							<link>
								<linkclipref>msub200012-3011-k1d1-026 15</linkclipref>
								<mediatype>audio</mediatype>
								<trackindex>6</trackindex>
								<clipindex>1</clipindex>
							</link>
							<link>
								<linkclipref>msub200012-3011-k1d1-026 16</linkclipref>
								<mediatype>audio</mediatype>
								<trackindex>7</trackindex>
								<clipindex>1</clipindex>
							</link>
							<link>
								<linkclipref>msub200012-3011-k1d1-026 17</linkclipref>
								<mediatype>audio</mediatype>
								<trackindex>8</trackindex>
								<clipindex>1</clipindex>
							</link>
						</clipitem>
						<enabled>TRUE</enabled>
						<locked>FALSE</locked>
					</track>
					<track>
						<clipitem id="msub200012-3011-k1d1-026 15">
							<name>msub200012-3011-k1d1-026</name>
							<duration>1553</duration>
							<rate>
								<ntsc>FALSE</ntsc>
								<timebase>25</timebase>
							</rate>
							<in>0</in>
							<out>1553</out>
							<start>0</start>
							<end>1553</end>
							<subframeoffset>0</subframeoffset>
							<masterclipid>msub200012-3011-k1d1-026 1</masterclipid>
							<syncoffset>0</syncoffset>
							<logginginfo>
								<scene/>
								<shottake/>
								<lognote/>
								<good>FALSE</good>
							</logginginfo>
							<labels>
								<label>Best Take</label>
								<label2/>
							</labels>
							<comments>
								<mastercomment1>RÃ…STOFF. BR_FINFREDAG_MSUA_OPRO</mastercomment1>
								<mastercomment2/>
								<mastercomment3/>
								<mastercomment4/>
							</comments>
							<file id="msub200012-3011-k1d1-026 2"/>
							<filter>
								<effect>
									<name>Audio Levels</name>
									<effectid>audiolevels</effectid>
									<effectcategory>audiolevels</effectcategory>
									<effecttype>audiolevels</effecttype>
									<mediatype>audio</mediatype>
									<parameter>
										<name>Level</name>
										<parameterid>level</parameterid>
										<valuemin>0</valuemin>
										<valuemax>3.98109</valuemax>
										<value>1</value>
									</parameter>
								</effect>
							</filter>
							<filter>
								<effect>
									<name>Audio Pan</name>
									<effectid>audiopan</effectid>
									<effectcategory>audiopan</effectcategory>
									<effecttype>audiopan</effecttype>
									<mediatype>audio</mediatype>
									<parameter>
										<name>Pan</name>
										<parameterid>pan</parameterid>
										<valuemin>-1</valuemin>
										<valuemax>1</valuemax>
										<value>0</value>
									</parameter>
								</effect>
							</filter>
							<sourcetrack>
								<mediatype>audio</mediatype>
								<trackindex>6</trackindex>
							</sourcetrack>
							<link>
								<linkclipref>msub200012-3011-k1d1-026 9</linkclipref>
								<mediatype>video</mediatype>
								<trackindex>1</trackindex>
								<clipindex>1</clipindex>
							</link>
							<link>
								<linkclipref>msub200012-3011-k1d1-026 10</linkclipref>
								<mediatype>audio</mediatype>
								<trackindex>1</trackindex>
								<clipindex>1</clipindex>
							</link>
							<link>
								<linkclipref>msub200012-3011-k1d1-026 11</linkclipref>
								<mediatype>audio</mediatype>
								<trackindex>2</trackindex>
								<clipindex>1</clipindex>
							</link>
							<link>
								<linkclipref>msub200012-3011-k1d1-026 12</linkclipref>
								<mediatype>audio</mediatype>
								<trackindex>3</trackindex>
								<clipindex>1</clipindex>
							</link>
							<link>
								<linkclipref>msub200012-3011-k1d1-026 13</linkclipref>
								<mediatype>audio</mediatype>
								<trackindex>4</trackindex>
								<clipindex>1</clipindex>
							</link>
							<link>
								<linkclipref>msub200012-3011-k1d1-026 14</linkclipref>
								<mediatype>audio</mediatype>
								<trackindex>5</trackindex>
								<clipindex>1</clipindex>
							</link>
							<link>
								<linkclipref>msub200012-3011-k1d1-026 15</linkclipref>
								<mediatype>audio</mediatype>
								<trackindex>6</trackindex>
								<clipindex>1</clipindex>
							</link>
							<link>
								<linkclipref>msub200012-3011-k1d1-026 16</linkclipref>
								<mediatype>audio</mediatype>
								<trackindex>7</trackindex>
								<clipindex>1</clipindex>
							</link>
							<link>
								<linkclipref>msub200012-3011-k1d1-026 17</linkclipref>
								<mediatype>audio</mediatype>
								<trackindex>8</trackindex>
								<clipindex>1</clipindex>
							</link>
						</clipitem>
						<enabled>TRUE</enabled>
						<locked>FALSE</locked>
					</track>
					<track>
						<clipitem id="msub200012-3011-k1d1-026 16">
							<name>msub200012-3011-k1d1-026</name>
							<duration>1553</duration>
							<rate>
								<ntsc>FALSE</ntsc>
								<timebase>25</timebase>
							</rate>
							<in>0</in>
							<out>1553</out>
							<start>0</start>
							<end>1553</end>
							<subframeoffset>0</subframeoffset>
							<masterclipid>msub200012-3011-k1d1-026 1</masterclipid>
							<syncoffset>0</syncoffset>
							<logginginfo>
								<scene/>
								<shottake/>
								<lognote/>
								<good>FALSE</good>
							</logginginfo>
							<labels>
								<label>Best Take</label>
								<label2/>
							</labels>
							<comments>
								<mastercomment1>RÃ…STOFF. BR_FINFREDAG_MSUA_OPRO</mastercomment1>
								<mastercomment2/>
								<mastercomment3/>
								<mastercomment4/>
							</comments>
							<file id="msub200012-3011-k1d1-026 2"/>
							<filter>
								<effect>
									<name>Audio Levels</name>
									<effectid>audiolevels</effectid>
									<effectcategory>audiolevels</effectcategory>
									<effecttype>audiolevels</effecttype>
									<mediatype>audio</mediatype>
									<parameter>
										<name>Level</name>
										<parameterid>level</parameterid>
										<valuemin>0</valuemin>
										<valuemax>3.98109</valuemax>
										<value>1</value>
									</parameter>
								</effect>
							</filter>
							<filter>
								<effect>
									<name>Audio Pan</name>
									<effectid>audiopan</effectid>
									<effectcategory>audiopan</effectcategory>
									<effecttype>audiopan</effecttype>
									<mediatype>audio</mediatype>
									<parameter>
										<name>Pan</name>
										<parameterid>pan</parameterid>
										<valuemin>-1</valuemin>
										<valuemax>1</valuemax>
										<value>0</value>
									</parameter>
								</effect>
							</filter>
							<sourcetrack>
								<mediatype>audio</mediatype>
								<trackindex>7</trackindex>
							</sourcetrack>
							<link>
								<linkclipref>msub200012-3011-k1d1-026 9</linkclipref>
								<mediatype>video</mediatype>
								<trackindex>1</trackindex>
								<clipindex>1</clipindex>
							</link>
							<link>
								<linkclipref>msub200012-3011-k1d1-026 10</linkclipref>
								<mediatype>audio</mediatype>
								<trackindex>1</trackindex>
								<clipindex>1</clipindex>
							</link>
							<link>
								<linkclipref>msub200012-3011-k1d1-026 11</linkclipref>
								<mediatype>audio</mediatype>
								<trackindex>2</trackindex>
								<clipindex>1</clipindex>
							</link>
							<link>
								<linkclipref>msub200012-3011-k1d1-026 12</linkclipref>
								<mediatype>audio</mediatype>
								<trackindex>3</trackindex>
								<clipindex>1</clipindex>
							</link>
							<link>
								<linkclipref>msub200012-3011-k1d1-026 13</linkclipref>
								<mediatype>audio</mediatype>
								<trackindex>4</trackindex>
								<clipindex>1</clipindex>
							</link>
							<link>
								<linkclipref>msub200012-3011-k1d1-026 14</linkclipref>
								<mediatype>audio</mediatype>
								<trackindex>5</trackindex>
								<clipindex>1</clipindex>
							</link>
							<link>
								<linkclipref>msub200012-3011-k1d1-026 15</linkclipref>
								<mediatype>audio</mediatype>
								<trackindex>6</trackindex>
								<clipindex>1</clipindex>
							</link>
							<link>
								<linkclipref>msub200012-3011-k1d1-026 16</linkclipref>
								<mediatype>audio</mediatype>
								<trackindex>7</trackindex>
								<clipindex>1</clipindex>
							</link>
							<link>
								<linkclipref>msub200012-3011-k1d1-026 17</linkclipref>
								<mediatype>audio</mediatype>
								<trackindex>8</trackindex>
								<clipindex>1</clipindex>
							</link>
						</clipitem>
						<enabled>TRUE</enabled>
						<locked>FALSE</locked>
					</track>
					<track>
						<clipitem id="msub200012-3011-k1d1-026 17">
							<name>msub200012-3011-k1d1-026</name>
							<duration>1553</duration>
							<rate>
								<ntsc>FALSE</ntsc>
								<timebase>25</timebase>
							</rate>
							<in>0</in>
							<out>1553</out>
							<start>0</start>
							<end>1553</end>
							<subframeoffset>0</subframeoffset>
							<masterclipid>msub200012-3011-k1d1-026 1</masterclipid>
							<syncoffset>0</syncoffset>
							<logginginfo>
								<scene/>
								<shottake/>
								<lognote/>
								<good>FALSE</good>
							</logginginfo>
							<labels>
								<label>Best Take</label>
								<label2/>
							</labels>
							<comments>
								<mastercomment1>RÃ…STOFF. BR_FINFREDAG_MSUA_OPRO</mastercomment1>
								<mastercomment2/>
								<mastercomment3/>
								<mastercomment4/>
							</comments>
							<file id="msub200012-3011-k1d1-026 2"/>
							<filter>
								<effect>
									<name>Audio Levels</name>
									<effectid>audiolevels</effectid>
									<effectcategory>audiolevels</effectcategory>
									<effecttype>audiolevels</effecttype>
									<mediatype>audio</mediatype>
									<parameter>
										<name>Level</name>
										<parameterid>level</parameterid>
										<valuemin>0</valuemin>
										<valuemax>3.98109</valuemax>
										<value>1</value>
									</parameter>
								</effect>
							</filter>
							<filter>
								<effect>
									<name>Audio Pan</name>
									<effectid>audiopan</effectid>
									<effectcategory>audiopan</effectcategory>
									<effecttype>audiopan</effecttype>
									<mediatype>audio</mediatype>
									<parameter>
										<name>Pan</name>
										<parameterid>pan</parameterid>
										<valuemin>-1</valuemin>
										<valuemax>1</valuemax>
										<value>0</value>
									</parameter>
								</effect>
							</filter>
							<sourcetrack>
								<mediatype>audio</mediatype>
								<trackindex>8</trackindex>
							</sourcetrack>
							<link>
								<linkclipref>msub200012-3011-k1d1-026 9</linkclipref>
								<mediatype>video</mediatype>
								<trackindex>1</trackindex>
								<clipindex>1</clipindex>
							</link>
							<link>
								<linkclipref>msub200012-3011-k1d1-026 10</linkclipref>
								<mediatype>audio</mediatype>
								<trackindex>1</trackindex>
								<clipindex>1</clipindex>
							</link>
							<link>
								<linkclipref>msub200012-3011-k1d1-026 11</linkclipref>
								<mediatype>audio</mediatype>
								<trackindex>2</trackindex>
								<clipindex>1</clipindex>
							</link>
							<link>
								<linkclipref>msub200012-3011-k1d1-026 12</linkclipref>
								<mediatype>audio</mediatype>
								<trackindex>3</trackindex>
								<clipindex>1</clipindex>
							</link>
							<link>
								<linkclipref>msub200012-3011-k1d1-026 13</linkclipref>
								<mediatype>audio</mediatype>
								<trackindex>4</trackindex>
								<clipindex>1</clipindex>
							</link>
							<link>
								<linkclipref>msub200012-3011-k1d1-026 14</linkclipref>
								<mediatype>audio</mediatype>
								<trackindex>5</trackindex>
								<clipindex>1</clipindex>
							</link>
							<link>
								<linkclipref>msub200012-3011-k1d1-026 15</linkclipref>
								<mediatype>audio</mediatype>
								<trackindex>6</trackindex>
								<clipindex>1</clipindex>
							</link>
							<link>
								<linkclipref>msub200012-3011-k1d1-026 16</linkclipref>
								<mediatype>audio</mediatype>
								<trackindex>7</trackindex>
								<clipindex>1</clipindex>
							</link>
							<link>
								<linkclipref>msub200012-3011-k1d1-026 17</linkclipref>
								<mediatype>audio</mediatype>
								<trackindex>8</trackindex>
								<clipindex>1</clipindex>
							</link>
						</clipitem>
						<enabled>TRUE</enabled>
						<locked>FALSE</locked>
					</track>
				</audio>
			</media>
		</clip>
		<clip id="msub200012-3011-k1d1-027 18">
			<name>msub200012-3011-k1d1-027</name>
			<duration>5957</duration>
			<rate>
				<ntsc>FALSE</ntsc>
				<timebase>25</timebase>
			</rate>
			<in>283</in>
			<out>5602</out>
			<masterclipid>msub200012-3011-k1d1-027 1</masterclipid>
			<ismasterclip>FALSE</ismasterclip>
			<logginginfo>
				<description>msub200012-3011-k1d1-027</description>
				<scene/>
				<shottake/>
				<lognote/>
				<good>FALSE</good>
			</logginginfo>
			<labels>
				<label>Alternate Shots</label>
				<label2/>
			</labels>
			<comments>
				<mastercomment1>RÃ…STOFF. BR_FINFREDAG_MSUA_OPRO</mastercomment1>
				<mastercomment2/>
				<mastercomment3/>
				<mastercomment4/>
				<clipcommenta/>
			</comments>
			<media>
				<video>
					<track>
						<clipitem id="msub200012-3011-k1d1-027 19">
							<name>msub200012-3011-k1d1-027</name>
							<duration>5957</duration>
							<rate>
								<ntsc>FALSE</ntsc>
								<timebase>25</timebase>
							</rate>
							<in>0</in>
							<out>5957</out>
							<start>0</start>
							<end>5957</end>
							<pixelaspectratio>Square</pixelaspectratio>
							<anamorphic>FALSE</anamorphic>
							<alphatype>none</alphatype>
							<masterclipid>msub200012-3011-k1d1-027 1</masterclipid>
							<syncoffset>0</syncoffset>
							<logginginfo>
								<scene/>
								<shottake/>
								<lognote/>
								<good>FALSE</good>
							</logginginfo>
							<labels>
								<label>Alternate Shots</label>
								<label2/>
							</labels>
							<comments>
								<mastercomment1>RÃ…STOFF. BR_FINFREDAG_MSUA_OPRO</mastercomment1>
								<mastercomment2/>
								<mastercomment3/>
								<mastercomment4/>
								<clipcommenta/>
							</comments>
							<file id="msub200012-3011-k1d1-027 2"/>
							<sourcetrack>
								<mediatype>video</mediatype>
							</sourcetrack>
							<link>
								<linkclipref>msub200012-3011-k1d1-027 19</linkclipref>
								<mediatype>video</mediatype>
								<trackindex>1</trackindex>
								<clipindex>1</clipindex>
							</link>
							<link>
								<linkclipref>msub200012-3011-k1d1-027 20</linkclipref>
								<mediatype>audio</mediatype>
								<trackindex>1</trackindex>
								<clipindex>1</clipindex>
							</link>
							<link>
								<linkclipref>msub200012-3011-k1d1-027 21</linkclipref>
								<mediatype>audio</mediatype>
								<trackindex>2</trackindex>
								<clipindex>1</clipindex>
							</link>
							<link>
								<linkclipref>msub200012-3011-k1d1-027 22</linkclipref>
								<mediatype>audio</mediatype>
								<trackindex>3</trackindex>
								<clipindex>1</clipindex>
							</link>
							<link>
								<linkclipref>msub200012-3011-k1d1-027 23</linkclipref>
								<mediatype>audio</mediatype>
								<trackindex>4</trackindex>
								<clipindex>1</clipindex>
							</link>
							<link>
								<linkclipref>msub200012-3011-k1d1-027 24</linkclipref>
								<mediatype>audio</mediatype>
								<trackindex>5</trackindex>
								<clipindex>1</clipindex>
							</link>
							<link>
								<linkclipref>msub200012-3011-k1d1-027 25</linkclipref>
								<mediatype>audio</mediatype>
								<trackindex>6</trackindex>
								<clipindex>1</clipindex>
							</link>
							<link>
								<linkclipref>msub200012-3011-k1d1-027 26</linkclipref>
								<mediatype>audio</mediatype>
								<trackindex>7</trackindex>
								<clipindex>1</clipindex>
							</link>
							<link>
								<linkclipref>msub200012-3011-k1d1-027 27</linkclipref>
								<mediatype>audio</mediatype>
								<trackindex>8</trackindex>
								<clipindex>1</clipindex>
							</link>
							<fielddominance>upper</fielddominance>
						</clipitem>
						<enabled>TRUE</enabled>
						<locked>FALSE</locked>
					</track>
				</video>
				<audio>
					<in>283</in>
					<out>5602</out>
					<track>
						<clipitem id="msub200012-3011-k1d1-027 20">
							<name>msub200012-3011-k1d1-027</name>
							<duration>5957</duration>
							<rate>
								<ntsc>FALSE</ntsc>
								<timebase>25</timebase>
							</rate>
							<in>0</in>
							<out>5957</out>
							<start>0</start>
							<end>5957</end>
							<subframeoffset>0</subframeoffset>
							<masterclipid>msub200012-3011-k1d1-027 1</masterclipid>
							<syncoffset>0</syncoffset>
							<logginginfo>
								<scene/>
								<shottake/>
								<lognote/>
								<good>FALSE</good>
							</logginginfo>
							<labels>
								<label>Alternate Shots</label>
								<label2/>
							</labels>
							<comments>
								<mastercomment1>RÃ…STOFF. BR_FINFREDAG_MSUA_OPRO</mastercomment1>
								<mastercomment2/>
								<mastercomment3/>
								<mastercomment4/>
							</comments>
							<file id="msub200012-3011-k1d1-027 2"/>
							<filter>
								<effect>
									<name>Audio Levels</name>
									<effectid>audiolevels</effectid>
									<effectcategory>audiolevels</effectcategory>
									<effecttype>audiolevels</effecttype>
									<mediatype>audio</mediatype>
									<parameter>
										<name>Level</name>
										<parameterid>level</parameterid>
										<valuemin>0</valuemin>
										<valuemax>3.98109</valuemax>
										<value>1</value>
									</parameter>
								</effect>
							</filter>
							<filter>
								<effect>
									<name>Audio Pan</name>
									<effectid>audiopan</effectid>
									<effectcategory>audiopan</effectcategory>
									<effecttype>audiopan</effecttype>
									<mediatype>audio</mediatype>
									<parameter>
										<name>Pan</name>
										<parameterid>pan</parameterid>
										<valuemin>-1</valuemin>
										<valuemax>1</valuemax>
										<value>0</value>
									</parameter>
								</effect>
							</filter>
							<sourcetrack>
								<mediatype>audio</mediatype>
								<trackindex>1</trackindex>
							</sourcetrack>
							<link>
								<linkclipref>msub200012-3011-k1d1-027 19</linkclipref>
								<mediatype>video</mediatype>
								<trackindex>1</trackindex>
								<clipindex>1</clipindex>
							</link>
							<link>
								<linkclipref>msub200012-3011-k1d1-027 20</linkclipref>
								<mediatype>audio</mediatype>
								<trackindex>1</trackindex>
								<clipindex>1</clipindex>
							</link>
							<link>
								<linkclipref>msub200012-3011-k1d1-027 21</linkclipref>
								<mediatype>audio</mediatype>
								<trackindex>2</trackindex>
								<clipindex>1</clipindex>
							</link>
							<link>
								<linkclipref>msub200012-3011-k1d1-027 22</linkclipref>
								<mediatype>audio</mediatype>
								<trackindex>3</trackindex>
								<clipindex>1</clipindex>
							</link>
							<link>
								<linkclipref>msub200012-3011-k1d1-027 23</linkclipref>
								<mediatype>audio</mediatype>
								<trackindex>4</trackindex>
								<clipindex>1</clipindex>
							</link>
							<link>
								<linkclipref>msub200012-3011-k1d1-027 24</linkclipref>
								<mediatype>audio</mediatype>
								<trackindex>5</trackindex>
								<clipindex>1</clipindex>
							</link>
							<link>
								<linkclipref>msub200012-3011-k1d1-027 25</linkclipref>
								<mediatype>audio</mediatype>
								<trackindex>6</trackindex>
								<clipindex>1</clipindex>
							</link>
							<link>
								<linkclipref>msub200012-3011-k1d1-027 26</linkclipref>
								<mediatype>audio</mediatype>
								<trackindex>7</trackindex>
								<clipindex>1</clipindex>
							</link>
							<link>
								<linkclipref>msub200012-3011-k1d1-027 27</linkclipref>
								<mediatype>audio</mediatype>
								<trackindex>8</trackindex>
								<clipindex>1</clipindex>
							</link>
						</clipitem>
						<enabled>TRUE</enabled>
						<locked>FALSE</locked>
					</track>
					<track>
						<clipitem id="msub200012-3011-k1d1-027 21">
							<name>msub200012-3011-k1d1-027</name>
							<duration>5957</duration>
							<rate>
								<ntsc>FALSE</ntsc>
								<timebase>25</timebase>
							</rate>
							<in>0</in>
							<out>5957</out>
							<start>0</start>
							<end>5957</end>
							<subframeoffset>0</subframeoffset>
							<masterclipid>msub200012-3011-k1d1-027 1</masterclipid>
							<syncoffset>0</syncoffset>
							<logginginfo>
								<scene/>
								<shottake/>
								<lognote/>
								<good>FALSE</good>
							</logginginfo>
							<labels>
								<label>Alternate Shots</label>
								<label2/>
							</labels>
							<comments>
								<mastercomment1>RÃ…STOFF. BR_FINFREDAG_MSUA_OPRO</mastercomment1>
								<mastercomment2/>
								<mastercomment3/>
								<mastercomment4/>
							</comments>
							<file id="msub200012-3011-k1d1-027 2"/>
							<filter>
								<effect>
									<name>Audio Levels</name>
									<effectid>audiolevels</effectid>
									<effectcategory>audiolevels</effectcategory>
									<effecttype>audiolevels</effecttype>
									<mediatype>audio</mediatype>
									<parameter>
										<name>Level</name>
										<parameterid>level</parameterid>
										<valuemin>0</valuemin>
										<valuemax>3.98109</valuemax>
										<value>1</value>
									</parameter>
								</effect>
							</filter>
							<filter>
								<effect>
									<name>Audio Pan</name>
									<effectid>audiopan</effectid>
									<effectcategory>audiopan</effectcategory>
									<effecttype>audiopan</effecttype>
									<mediatype>audio</mediatype>
									<parameter>
										<name>Pan</name>
										<parameterid>pan</parameterid>
										<valuemin>-1</valuemin>
										<valuemax>1</valuemax>
										<value>0</value>
									</parameter>
								</effect>
							</filter>
							<sourcetrack>
								<mediatype>audio</mediatype>
								<trackindex>2</trackindex>
							</sourcetrack>
							<link>
								<linkclipref>msub200012-3011-k1d1-027 19</linkclipref>
								<mediatype>video</mediatype>
								<trackindex>1</trackindex>
								<clipindex>1</clipindex>
							</link>
							<link>
								<linkclipref>msub200012-3011-k1d1-027 20</linkclipref>
								<mediatype>audio</mediatype>
								<trackindex>1</trackindex>
								<clipindex>1</clipindex>
							</link>
							<link>
								<linkclipref>msub200012-3011-k1d1-027 21</linkclipref>
								<mediatype>audio</mediatype>
								<trackindex>2</trackindex>
								<clipindex>1</clipindex>
							</link>
							<link>
								<linkclipref>msub200012-3011-k1d1-027 22</linkclipref>
								<mediatype>audio</mediatype>
								<trackindex>3</trackindex>
								<clipindex>1</clipindex>
							</link>
							<link>
								<linkclipref>msub200012-3011-k1d1-027 23</linkclipref>
								<mediatype>audio</mediatype>
								<trackindex>4</trackindex>
								<clipindex>1</clipindex>
							</link>
							<link>
								<linkclipref>msub200012-3011-k1d1-027 24</linkclipref>
								<mediatype>audio</mediatype>
								<trackindex>5</trackindex>
								<clipindex>1</clipindex>
							</link>
							<link>
								<linkclipref>msub200012-3011-k1d1-027 25</linkclipref>
								<mediatype>audio</mediatype>
								<trackindex>6</trackindex>
								<clipindex>1</clipindex>
							</link>
							<link>
								<linkclipref>msub200012-3011-k1d1-027 26</linkclipref>
								<mediatype>audio</mediatype>
								<trackindex>7</trackindex>
								<clipindex>1</clipindex>
							</link>
							<link>
								<linkclipref>msub200012-3011-k1d1-027 27</linkclipref>
								<mediatype>audio</mediatype>
								<trackindex>8</trackindex>
								<clipindex>1</clipindex>
							</link>
						</clipitem>
						<enabled>TRUE</enabled>
						<locked>FALSE</locked>
					</track>
					<track>
						<clipitem id="msub200012-3011-k1d1-027 22">
							<name>msub200012-3011-k1d1-027</name>
							<duration>5957</duration>
							<rate>
								<ntsc>FALSE</ntsc>
								<timebase>25</timebase>
							</rate>
							<in>0</in>
							<out>5957</out>
							<start>0</start>
							<end>5957</end>
							<subframeoffset>0</subframeoffset>
							<masterclipid>msub200012-3011-k1d1-027 1</masterclipid>
							<syncoffset>0</syncoffset>
							<logginginfo>
								<scene/>
								<shottake/>
								<lognote/>
								<good>FALSE</good>
							</logginginfo>
							<labels>
								<label>Alternate Shots</label>
								<label2/>
							</labels>
							<comments>
								<mastercomment1>RÃ…STOFF. BR_FINFREDAG_MSUA_OPRO</mastercomment1>
								<mastercomment2/>
								<mastercomment3/>
								<mastercomment4/>
							</comments>
							<file id="msub200012-3011-k1d1-027 2"/>
							<filter>
								<effect>
									<name>Audio Levels</name>
									<effectid>audiolevels</effectid>
									<effectcategory>audiolevels</effectcategory>
									<effecttype>audiolevels</effecttype>
									<mediatype>audio</mediatype>
									<parameter>
										<name>Level</name>
										<parameterid>level</parameterid>
										<valuemin>0</valuemin>
										<valuemax>3.98109</valuemax>
										<value>1</value>
									</parameter>
								</effect>
							</filter>
							<filter>
								<effect>
									<name>Audio Pan</name>
									<effectid>audiopan</effectid>
									<effectcategory>audiopan</effectcategory>
									<effecttype>audiopan</effecttype>
									<mediatype>audio</mediatype>
									<parameter>
										<name>Pan</name>
										<parameterid>pan</parameterid>
										<valuemin>-1</valuemin>
										<valuemax>1</valuemax>
										<value>0</value>
									</parameter>
								</effect>
							</filter>
							<sourcetrack>
								<mediatype>audio</mediatype>
								<trackindex>3</trackindex>
							</sourcetrack>
							<link>
								<linkclipref>msub200012-3011-k1d1-027 19</linkclipref>
								<mediatype>video</mediatype>
								<trackindex>1</trackindex>
								<clipindex>1</clipindex>
							</link>
							<link>
								<linkclipref>msub200012-3011-k1d1-027 20</linkclipref>
								<mediatype>audio</mediatype>
								<trackindex>1</trackindex>
								<clipindex>1</clipindex>
							</link>
							<link>
								<linkclipref>msub200012-3011-k1d1-027 21</linkclipref>
								<mediatype>audio</mediatype>
								<trackindex>2</trackindex>
								<clipindex>1</clipindex>
							</link>
							<link>
								<linkclipref>msub200012-3011-k1d1-027 22</linkclipref>
								<mediatype>audio</mediatype>
								<trackindex>3</trackindex>
								<clipindex>1</clipindex>
							</link>
							<link>
								<linkclipref>msub200012-3011-k1d1-027 23</linkclipref>
								<mediatype>audio</mediatype>
								<trackindex>4</trackindex>
								<clipindex>1</clipindex>
							</link>
							<link>
								<linkclipref>msub200012-3011-k1d1-027 24</linkclipref>
								<mediatype>audio</mediatype>
								<trackindex>5</trackindex>
								<clipindex>1</clipindex>
							</link>
							<link>
								<linkclipref>msub200012-3011-k1d1-027 25</linkclipref>
								<mediatype>audio</mediatype>
								<trackindex>6</trackindex>
								<clipindex>1</clipindex>
							</link>
							<link>
								<linkclipref>msub200012-3011-k1d1-027 26</linkclipref>
								<mediatype>audio</mediatype>
								<trackindex>7</trackindex>
								<clipindex>1</clipindex>
							</link>
							<link>
								<linkclipref>msub200012-3011-k1d1-027 27</linkclipref>
								<mediatype>audio</mediatype>
								<trackindex>8</trackindex>
								<clipindex>1</clipindex>
							</link>
						</clipitem>
						<enabled>TRUE</enabled>
						<locked>FALSE</locked>
					</track>
					<track>
						<clipitem id="msub200012-3011-k1d1-027 23">
							<name>msub200012-3011-k1d1-027</name>
							<duration>5957</duration>
							<rate>
								<ntsc>FALSE</ntsc>
								<timebase>25</timebase>
							</rate>
							<in>0</in>
							<out>5957</out>
							<start>0</start>
							<end>5957</end>
							<subframeoffset>0</subframeoffset>
							<masterclipid>msub200012-3011-k1d1-027 1</masterclipid>
							<syncoffset>0</syncoffset>
							<logginginfo>
								<scene/>
								<shottake/>
								<lognote/>
								<good>FALSE</good>
							</logginginfo>
							<labels>
								<label>Alternate Shots</label>
								<label2/>
							</labels>
							<comments>
								<mastercomment1>RÃ…STOFF. BR_FINFREDAG_MSUA_OPRO</mastercomment1>
								<mastercomment2/>
								<mastercomment3/>
								<mastercomment4/>
							</comments>
							<file id="msub200012-3011-k1d1-027 2"/>
							<filter>
								<effect>
									<name>Audio Levels</name>
									<effectid>audiolevels</effectid>
									<effectcategory>audiolevels</effectcategory>
									<effecttype>audiolevels</effecttype>
									<mediatype>audio</mediatype>
									<parameter>
										<name>Level</name>
										<parameterid>level</parameterid>
										<valuemin>0</valuemin>
										<valuemax>3.98109</valuemax>
										<value>1</value>
									</parameter>
								</effect>
							</filter>
							<filter>
								<effect>
									<name>Audio Pan</name>
									<effectid>audiopan</effectid>
									<effectcategory>audiopan</effectcategory>
									<effecttype>audiopan</effecttype>
									<mediatype>audio</mediatype>
									<parameter>
										<name>Pan</name>
										<parameterid>pan</parameterid>
										<valuemin>-1</valuemin>
										<valuemax>1</valuemax>
										<value>0</value>
									</parameter>
								</effect>
							</filter>
							<sourcetrack>
								<mediatype>audio</mediatype>
								<trackindex>4</trackindex>
							</sourcetrack>
							<link>
								<linkclipref>msub200012-3011-k1d1-027 19</linkclipref>
								<mediatype>video</mediatype>
								<trackindex>1</trackindex>
								<clipindex>1</clipindex>
							</link>
							<link>
								<linkclipref>msub200012-3011-k1d1-027 20</linkclipref>
								<mediatype>audio</mediatype>
								<trackindex>1</trackindex>
								<clipindex>1</clipindex>
							</link>
							<link>
								<linkclipref>msub200012-3011-k1d1-027 21</linkclipref>
								<mediatype>audio</mediatype>
								<trackindex>2</trackindex>
								<clipindex>1</clipindex>
							</link>
							<link>
								<linkclipref>msub200012-3011-k1d1-027 22</linkclipref>
								<mediatype>audio</mediatype>
								<trackindex>3</trackindex>
								<clipindex>1</clipindex>
							</link>
							<link>
								<linkclipref>msub200012-3011-k1d1-027 23</linkclipref>
								<mediatype>audio</mediatype>
								<trackindex>4</trackindex>
								<clipindex>1</clipindex>
							</link>
							<link>
								<linkclipref>msub200012-3011-k1d1-027 24</linkclipref>
								<mediatype>audio</mediatype>
								<trackindex>5</trackindex>
								<clipindex>1</clipindex>
							</link>
							<link>
								<linkclipref>msub200012-3011-k1d1-027 25</linkclipref>
								<mediatype>audio</mediatype>
								<trackindex>6</trackindex>
								<clipindex>1</clipindex>
							</link>
							<link>
								<linkclipref>msub200012-3011-k1d1-027 26</linkclipref>
								<mediatype>audio</mediatype>
								<trackindex>7</trackindex>
								<clipindex>1</clipindex>
							</link>
							<link>
								<linkclipref>msub200012-3011-k1d1-027 27</linkclipref>
								<mediatype>audio</mediatype>
								<trackindex>8</trackindex>
								<clipindex>1</clipindex>
							</link>
						</clipitem>
						<enabled>TRUE</enabled>
						<locked>FALSE</locked>
					</track>
					<track>
						<clipitem id="msub200012-3011-k1d1-027 24">
							<name>msub200012-3011-k1d1-027</name>
							<duration>5957</duration>
							<rate>
								<ntsc>FALSE</ntsc>
								<timebase>25</timebase>
							</rate>
							<in>0</in>
							<out>5957</out>
							<start>0</start>
							<end>5957</end>
							<subframeoffset>0</subframeoffset>
							<masterclipid>msub200012-3011-k1d1-027 1</masterclipid>
							<syncoffset>0</syncoffset>
							<logginginfo>
								<scene/>
								<shottake/>
								<lognote/>
								<good>FALSE</good>
							</logginginfo>
							<labels>
								<label>Alternate Shots</label>
								<label2/>
							</labels>
							<comments>
								<mastercomment1>RÃ…STOFF. BR_FINFREDAG_MSUA_OPRO</mastercomment1>
								<mastercomment2/>
								<mastercomment3/>
								<mastercomment4/>
							</comments>
							<file id="msub200012-3011-k1d1-027 2"/>
							<filter>
								<effect>
									<name>Audio Levels</name>
									<effectid>audiolevels</effectid>
									<effectcategory>audiolevels</effectcategory>
									<effecttype>audiolevels</effecttype>
									<mediatype>audio</mediatype>
									<parameter>
										<name>Level</name>
										<parameterid>level</parameterid>
										<valuemin>0</valuemin>
										<valuemax>3.98109</valuemax>
										<value>1</value>
									</parameter>
								</effect>
							</filter>
							<filter>
								<effect>
									<name>Audio Pan</name>
									<effectid>audiopan</effectid>
									<effectcategory>audiopan</effectcategory>
									<effecttype>audiopan</effecttype>
									<mediatype>audio</mediatype>
									<parameter>
										<name>Pan</name>
										<parameterid>pan</parameterid>
										<valuemin>-1</valuemin>
										<valuemax>1</valuemax>
										<value>0</value>
									</parameter>
								</effect>
							</filter>
							<sourcetrack>
								<mediatype>audio</mediatype>
								<trackindex>5</trackindex>
							</sourcetrack>
							<link>
								<linkclipref>msub200012-3011-k1d1-027 19</linkclipref>
								<mediatype>video</mediatype>
								<trackindex>1</trackindex>
								<clipindex>1</clipindex>
							</link>
							<link>
								<linkclipref>msub200012-3011-k1d1-027 20</linkclipref>
								<mediatype>audio</mediatype>
								<trackindex>1</trackindex>
								<clipindex>1</clipindex>
							</link>
							<link>
								<linkclipref>msub200012-3011-k1d1-027 21</linkclipref>
								<mediatype>audio</mediatype>
								<trackindex>2</trackindex>
								<clipindex>1</clipindex>
							</link>
							<link>
								<linkclipref>msub200012-3011-k1d1-027 22</linkclipref>
								<mediatype>audio</mediatype>
								<trackindex>3</trackindex>
								<clipindex>1</clipindex>
							</link>
							<link>
								<linkclipref>msub200012-3011-k1d1-027 23</linkclipref>
								<mediatype>audio</mediatype>
								<trackindex>4</trackindex>
								<clipindex>1</clipindex>
							</link>
							<link>
								<linkclipref>msub200012-3011-k1d1-027 24</linkclipref>
								<mediatype>audio</mediatype>
								<trackindex>5</trackindex>
								<clipindex>1</clipindex>
							</link>
							<link>
								<linkclipref>msub200012-3011-k1d1-027 25</linkclipref>
								<mediatype>audio</mediatype>
								<trackindex>6</trackindex>
								<clipindex>1</clipindex>
							</link>
							<link>
								<linkclipref>msub200012-3011-k1d1-027 26</linkclipref>
								<mediatype>audio</mediatype>
								<trackindex>7</trackindex>
								<clipindex>1</clipindex>
							</link>
							<link>
								<linkclipref>msub200012-3011-k1d1-027 27</linkclipref>
								<mediatype>audio</mediatype>
								<trackindex>8</trackindex>
								<clipindex>1</clipindex>
							</link>
						</clipitem>
						<enabled>TRUE</enabled>
						<locked>FALSE</locked>
					</track>
					<track>
						<clipitem id="msub200012-3011-k1d1-027 25">
							<name>msub200012-3011-k1d1-027</name>
							<duration>5957</duration>
							<rate>
								<ntsc>FALSE</ntsc>
								<timebase>25</timebase>
							</rate>
							<in>0</in>
							<out>5957</out>
							<start>0</start>
							<end>5957</end>
							<subframeoffset>0</subframeoffset>
							<masterclipid>msub200012-3011-k1d1-027 1</masterclipid>
							<syncoffset>0</syncoffset>
							<logginginfo>
								<scene/>
								<shottake/>
								<lognote/>
								<good>FALSE</good>
							</logginginfo>
							<labels>
								<label>Alternate Shots</label>
								<label2/>
							</labels>
							<comments>
								<mastercomment1>RÃ…STOFF. BR_FINFREDAG_MSUA_OPRO</mastercomment1>
								<mastercomment2/>
								<mastercomment3/>
								<mastercomment4/>
							</comments>
							<file id="msub200012-3011-k1d1-027 2"/>
							<filter>
								<effect>
									<name>Audio Levels</name>
									<effectid>audiolevels</effectid>
									<effectcategory>audiolevels</effectcategory>
									<effecttype>audiolevels</effecttype>
									<mediatype>audio</mediatype>
									<parameter>
										<name>Level</name>
										<parameterid>level</parameterid>
										<valuemin>0</valuemin>
										<valuemax>3.98109</valuemax>
										<value>1</value>
									</parameter>
								</effect>
							</filter>
							<filter>
								<effect>
									<name>Audio Pan</name>
									<effectid>audiopan</effectid>
									<effectcategory>audiopan</effectcategory>
									<effecttype>audiopan</effecttype>
									<mediatype>audio</mediatype>
									<parameter>
										<name>Pan</name>
										<parameterid>pan</parameterid>
										<valuemin>-1</valuemin>
										<valuemax>1</valuemax>
										<value>0</value>
									</parameter>
								</effect>
							</filter>
							<sourcetrack>
								<mediatype>audio</mediatype>
								<trackindex>6</trackindex>
							</sourcetrack>
							<link>
								<linkclipref>msub200012-3011-k1d1-027 19</linkclipref>
								<mediatype>video</mediatype>
								<trackindex>1</trackindex>
								<clipindex>1</clipindex>
							</link>
							<link>
								<linkclipref>msub200012-3011-k1d1-027 20</linkclipref>
								<mediatype>audio</mediatype>
								<trackindex>1</trackindex>
								<clipindex>1</clipindex>
							</link>
							<link>
								<linkclipref>msub200012-3011-k1d1-027 21</linkclipref>
								<mediatype>audio</mediatype>
								<trackindex>2</trackindex>
								<clipindex>1</clipindex>
							</link>
							<link>
								<linkclipref>msub200012-3011-k1d1-027 22</linkclipref>
								<mediatype>audio</mediatype>
								<trackindex>3</trackindex>
								<clipindex>1</clipindex>
							</link>
							<link>
								<linkclipref>msub200012-3011-k1d1-027 23</linkclipref>
								<mediatype>audio</mediatype>
								<trackindex>4</trackindex>
								<clipindex>1</clipindex>
							</link>
							<link>
								<linkclipref>msub200012-3011-k1d1-027 24</linkclipref>
								<mediatype>audio</mediatype>
								<trackindex>5</trackindex>
								<clipindex>1</clipindex>
							</link>
							<link>
								<linkclipref>msub200012-3011-k1d1-027 25</linkclipref>
								<mediatype>audio</mediatype>
								<trackindex>6</trackindex>
								<clipindex>1</clipindex>
							</link>
							<link>
								<linkclipref>msub200012-3011-k1d1-027 26</linkclipref>
								<mediatype>audio</mediatype>
								<trackindex>7</trackindex>
								<clipindex>1</clipindex>
							</link>
							<link>
								<linkclipref>msub200012-3011-k1d1-027 27</linkclipref>
								<mediatype>audio</mediatype>
								<trackindex>8</trackindex>
								<clipindex>1</clipindex>
							</link>
						</clipitem>
						<enabled>TRUE</enabled>
						<locked>FALSE</locked>
					</track>
					<track>
						<clipitem id="msub200012-3011-k1d1-027 26">
							<name>msub200012-3011-k1d1-027</name>
							<duration>5957</duration>
							<rate>
								<ntsc>FALSE</ntsc>
								<timebase>25</timebase>
							</rate>
							<in>0</in>
							<out>5957</out>
							<start>0</start>
							<end>5957</end>
							<subframeoffset>0</subframeoffset>
							<masterclipid>msub200012-3011-k1d1-027 1</masterclipid>
							<syncoffset>0</syncoffset>
							<logginginfo>
								<scene/>
								<shottake/>
								<lognote/>
								<good>FALSE</good>
							</logginginfo>
							<labels>
								<label>Alternate Shots</label>
								<label2/>
							</labels>
							<comments>
								<mastercomment1>RÃ…STOFF. BR_FINFREDAG_MSUA_OPRO</mastercomment1>
								<mastercomment2/>
								<mastercomment3/>
								<mastercomment4/>
							</comments>
							<file id="msub200012-3011-k1d1-027 2"/>
							<filter>
								<effect>
									<name>Audio Levels</name>
									<effectid>audiolevels</effectid>
									<effectcategory>audiolevels</effectcategory>
									<effecttype>audiolevels</effecttype>
									<mediatype>audio</mediatype>
									<parameter>
										<name>Level</name>
										<parameterid>level</parameterid>
										<valuemin>0</valuemin>
										<valuemax>3.98109</valuemax>
										<value>1</value>
									</parameter>
								</effect>
							</filter>
							<filter>
								<effect>
									<name>Audio Pan</name>
									<effectid>audiopan</effectid>
									<effectcategory>audiopan</effectcategory>
									<effecttype>audiopan</effecttype>
									<mediatype>audio</mediatype>
									<parameter>
										<name>Pan</name>
										<parameterid>pan</parameterid>
										<valuemin>-1</valuemin>
										<valuemax>1</valuemax>
										<value>0</value>
									</parameter>
								</effect>
							</filter>
							<sourcetrack>
								<mediatype>audio</mediatype>
								<trackindex>7</trackindex>
							</sourcetrack>
							<link>
								<linkclipref>msub200012-3011-k1d1-027 19</linkclipref>
								<mediatype>video</mediatype>
								<trackindex>1</trackindex>
								<clipindex>1</clipindex>
							</link>
							<link>
								<linkclipref>msub200012-3011-k1d1-027 20</linkclipref>
								<mediatype>audio</mediatype>
								<trackindex>1</trackindex>
								<clipindex>1</clipindex>
							</link>
							<link>
								<linkclipref>msub200012-3011-k1d1-027 21</linkclipref>
								<mediatype>audio</mediatype>
								<trackindex>2</trackindex>
								<clipindex>1</clipindex>
							</link>
							<link>
								<linkclipref>msub200012-3011-k1d1-027 22</linkclipref>
								<mediatype>audio</mediatype>
								<trackindex>3</trackindex>
								<clipindex>1</clipindex>
							</link>
							<link>
								<linkclipref>msub200012-3011-k1d1-027 23</linkclipref>
								<mediatype>audio</mediatype>
								<trackindex>4</trackindex>
								<clipindex>1</clipindex>
							</link>
							<link>
								<linkclipref>msub200012-3011-k1d1-027 24</linkclipref>
								<mediatype>audio</mediatype>
								<trackindex>5</trackindex>
								<clipindex>1</clipindex>
							</link>
							<link>
								<linkclipref>msub200012-3011-k1d1-027 25</linkclipref>
								<mediatype>audio</mediatype>
								<trackindex>6</trackindex>
								<clipindex>1</clipindex>
							</link>
							<link>
								<linkclipref>msub200012-3011-k1d1-027 26</linkclipref>
								<mediatype>audio</mediatype>
								<trackindex>7</trackindex>
								<clipindex>1</clipindex>
							</link>
							<link>
								<linkclipref>msub200012-3011-k1d1-027 27</linkclipref>
								<mediatype>audio</mediatype>
								<trackindex>8</trackindex>
								<clipindex>1</clipindex>
							</link>
						</clipitem>
						<enabled>TRUE</enabled>
						<locked>FALSE</locked>
					</track>
					<track>
						<clipitem id="msub200012-3011-k1d1-027 27">
							<name>msub200012-3011-k1d1-027</name>
							<duration>5957</duration>
							<rate>
								<ntsc>FALSE</ntsc>
								<timebase>25</timebase>
							</rate>
							<in>0</in>
							<out>5957</out>
							<start>0</start>
							<end>5957</end>
							<subframeoffset>0</subframeoffset>
							<masterclipid>msub200012-3011-k1d1-027 1</masterclipid>
							<syncoffset>0</syncoffset>
							<logginginfo>
								<scene/>
								<shottake/>
								<lognote/>
								<good>FALSE</good>
							</logginginfo>
							<labels>
								<label>Alternate Shots</label>
								<label2/>
							</labels>
							<comments>
								<mastercomment1>RÃ…STOFF. BR_FINFREDAG_MSUA_OPRO</mastercomment1>
								<mastercomment2/>
								<mastercomment3/>
								<mastercomment4/>
							</comments>
							<file id="msub200012-3011-k1d1-027 2"/>
							<filter>
								<effect>
									<name>Audio Levels</name>
									<effectid>audiolevels</effectid>
									<effectcategory>audiolevels</effectcategory>
									<effecttype>audiolevels</effecttype>
									<mediatype>audio</mediatype>
									<parameter>
										<name>Level</name>
										<parameterid>level</parameterid>
										<valuemin>0</valuemin>
										<valuemax>3.98109</valuemax>
										<value>1</value>
									</parameter>
								</effect>
							</filter>
							<filter>
								<effect>
									<name>Audio Pan</name>
									<effectid>audiopan</effectid>
									<effectcategory>audiopan</effectcategory>
									<effecttype>audiopan</effecttype>
									<mediatype>audio</mediatype>
									<parameter>
										<name>Pan</name>
										<parameterid>pan</parameterid>
										<valuemin>-1</valuemin>
										<valuemax>1</valuemax>
										<value>0</value>
									</parameter>
								</effect>
							</filter>
							<sourcetrack>
								<mediatype>audio</mediatype>
								<trackindex>8</trackindex>
							</sourcetrack>
							<link>
								<linkclipref>msub200012-3011-k1d1-027 19</linkclipref>
								<mediatype>video</mediatype>
								<trackindex>1</trackindex>
								<clipindex>1</clipindex>
							</link>
							<link>
								<linkclipref>msub200012-3011-k1d1-027 20</linkclipref>
								<mediatype>audio</mediatype>
								<trackindex>1</trackindex>
								<clipindex>1</clipindex>
							</link>
							<link>
								<linkclipref>msub200012-3011-k1d1-027 21</linkclipref>
								<mediatype>audio</mediatype>
								<trackindex>2</trackindex>
								<clipindex>1</clipindex>
							</link>
							<link>
								<linkclipref>msub200012-3011-k1d1-027 22</linkclipref>
								<mediatype>audio</mediatype>
								<trackindex>3</trackindex>
								<clipindex>1</clipindex>
							</link>
							<link>
								<linkclipref>msub200012-3011-k1d1-027 23</linkclipref>
								<mediatype>audio</mediatype>
								<trackindex>4</trackindex>
								<clipindex>1</clipindex>
							</link>
							<link>
								<linkclipref>msub200012-3011-k1d1-027 24</linkclipref>
								<mediatype>audio</mediatype>
								<trackindex>5</trackindex>
								<clipindex>1</clipindex>
							</link>
							<link>
								<linkclipref>msub200012-3011-k1d1-027 25</linkclipref>
								<mediatype>audio</mediatype>
								<trackindex>6</trackindex>
								<clipindex>1</clipindex>
							</link>
							<link>
								<linkclipref>msub200012-3011-k1d1-027 26</linkclipref>
								<mediatype>audio</mediatype>
								<trackindex>7</trackindex>
								<clipindex>1</clipindex>
							</link>
							<link>
								<linkclipref>msub200012-3011-k1d1-027 27</linkclipref>
								<mediatype>audio</mediatype>
								<trackindex>8</trackindex>
								<clipindex>1</clipindex>
							</link>
						</clipitem>
						<enabled>TRUE</enabled>
						<locked>FALSE</locked>
					</track>
				</audio>
			</media>
		</clip>
		<clip id="msub200012-3011-k1d1-028 14">
			<name>msub200012-3011-k1d1-028</name>
			<duration>4553</duration>
			<rate>
				<ntsc>FALSE</ntsc>
				<timebase>25</timebase>
			</rate>
			<in>4229</in>
			<out>-1</out>
			<masterclipid>msub200012-3011-k1d1-028 1</masterclipid>
			<ismasterclip>FALSE</ismasterclip>
			<logginginfo>
				<description>msub200012-3011-k1d1-028</description>
				<scene/>
				<shottake/>
				<lognote/>
				<good>FALSE</good>
			</logginginfo>
			<labels>
				<label>Interviews</label>
				<label2/>
			</labels>
			<comments>
				<mastercomment1>RÃ…STOFF. BR_FINFREDAG_MSUA_OPRO</mastercomment1>
				<mastercomment2/>
				<mastercomment3/>
				<mastercomment4/>
				<clipcommenta/>
			</comments>
			<media>
				<video>
					<track>
						<clipitem id="msub200012-3011-k1d1-028 15">
							<name>msub200012-3011-k1d1-028</name>
							<duration>4553</duration>
							<rate>
								<ntsc>FALSE</ntsc>
								<timebase>25</timebase>
							</rate>
							<in>0</in>
							<out>4553</out>
							<start>0</start>
							<end>4553</end>
							<pixelaspectratio>Square</pixelaspectratio>
							<anamorphic>FALSE</anamorphic>
							<alphatype>none</alphatype>
							<masterclipid>msub200012-3011-k1d1-028 1</masterclipid>
							<syncoffset>0</syncoffset>
							<logginginfo>
								<description>msub200012-3011-k1d1-028</description>
								<scene/>
								<shottake/>
								<lognote/>
								<good>FALSE</good>
							</logginginfo>
							<labels>
								<label>Interviews</label>
								<label2/>
							</labels>
							<comments>
								<mastercomment1>RÃ…STOFF. BR_FINFREDAG_MSUA_OPRO</mastercomment1>
								<mastercomment2/>
								<mastercomment3/>
								<mastercomment4/>
								<clipcommenta/>
							</comments>
							<file id="msub200012-3011-k1d1-028 2"/>
							<sourcetrack>
								<mediatype>video</mediatype>
							</sourcetrack>
							<link>
								<linkclipref>msub200012-3011-k1d1-028 15</linkclipref>
								<mediatype>video</mediatype>
								<trackindex>1</trackindex>
								<clipindex>1</clipindex>
							</link>
							<link>
								<linkclipref>msub200012-3011-k1d1-028 16</linkclipref>
								<mediatype>audio</mediatype>
								<trackindex>1</trackindex>
								<clipindex>1</clipindex>
							</link>
							<link>
								<linkclipref>msub200012-3011-k1d1-028 17</linkclipref>
								<mediatype>audio</mediatype>
								<trackindex>2</trackindex>
								<clipindex>1</clipindex>
							</link>
							<link>
								<linkclipref>msub200012-3011-k1d1-028 18</linkclipref>
								<mediatype>audio</mediatype>
								<trackindex>3</trackindex>
								<clipindex>1</clipindex>
							</link>
							<link>
								<linkclipref>msub200012-3011-k1d1-028 19</linkclipref>
								<mediatype>audio</mediatype>
								<trackindex>4</trackindex>
								<clipindex>1</clipindex>
							</link>
							<link>
								<linkclipref>msub200012-3011-k1d1-028 20</linkclipref>
								<mediatype>audio</mediatype>
								<trackindex>5</trackindex>
								<clipindex>1</clipindex>
							</link>
							<link>
								<linkclipref>msub200012-3011-k1d1-028 21</linkclipref>
								<mediatype>audio</mediatype>
								<trackindex>6</trackindex>
								<clipindex>1</clipindex>
							</link>
							<link>
								<linkclipref>msub200012-3011-k1d1-028 22</linkclipref>
								<mediatype>audio</mediatype>
								<trackindex>7</trackindex>
								<clipindex>1</clipindex>
							</link>
							<link>
								<linkclipref>msub200012-3011-k1d1-028 23</linkclipref>
								<mediatype>audio</mediatype>
								<trackindex>8</trackindex>
								<clipindex>1</clipindex>
							</link>
							<fielddominance>upper</fielddominance>
						</clipitem>
						<enabled>TRUE</enabled>
						<locked>FALSE</locked>
					</track>
				</video>
				<audio>
					<in>4229</in>
					<out>-1</out>
					<track>
						<clipitem id="msub200012-3011-k1d1-028 16">
							<name>msub200012-3011-k1d1-028</name>
							<duration>4553</duration>
							<rate>
								<ntsc>FALSE</ntsc>
								<timebase>25</timebase>
							</rate>
							<in>0</in>
							<out>4553</out>
							<start>0</start>
							<end>4553</end>
							<subframeoffset>0</subframeoffset>
							<masterclipid>msub200012-3011-k1d1-028 1</masterclipid>
							<syncoffset>0</syncoffset>
							<logginginfo>
								<description>msub200012-3011-k1d1-028</description>
								<scene/>
								<shottake/>
								<lognote/>
								<good>FALSE</good>
							</logginginfo>
							<labels>
								<label>Interviews</label>
								<label2/>
							</labels>
							<comments>
								<mastercomment1>RÃ…STOFF. BR_FINFREDAG_MSUA_OPRO</mastercomment1>
								<mastercomment2/>
								<mastercomment3/>
								<mastercomment4/>
								<clipcommenta/>
							</comments>
							<file id="msub200012-3011-k1d1-028 2"/>
							<filter>
								<effect>
									<name>Audio Levels</name>
									<effectid>audiolevels</effectid>
									<effectcategory>audiolevels</effectcategory>
									<effecttype>audiolevels</effecttype>
									<mediatype>audio</mediatype>
									<parameter>
										<name>Level</name>
										<parameterid>level</parameterid>
										<valuemin>0</valuemin>
										<valuemax>3.98109</valuemax>
										<value>1</value>
									</parameter>
								</effect>
							</filter>
							<filter>
								<effect>
									<name>Audio Pan</name>
									<effectid>audiopan</effectid>
									<effectcategory>audiopan</effectcategory>
									<effecttype>audiopan</effecttype>
									<mediatype>audio</mediatype>
									<parameter>
										<name>Pan</name>
										<parameterid>pan</parameterid>
										<valuemin>-1</valuemin>
										<valuemax>1</valuemax>
										<value>0</value>
									</parameter>
								</effect>
							</filter>
							<sourcetrack>
								<mediatype>audio</mediatype>
								<trackindex>1</trackindex>
							</sourcetrack>
							<link>
								<linkclipref>msub200012-3011-k1d1-028 15</linkclipref>
								<mediatype>video</mediatype>
								<trackindex>1</trackindex>
								<clipindex>1</clipindex>
							</link>
							<link>
								<linkclipref>msub200012-3011-k1d1-028 16</linkclipref>
								<mediatype>audio</mediatype>
								<trackindex>1</trackindex>
								<clipindex>1</clipindex>
							</link>
							<link>
								<linkclipref>msub200012-3011-k1d1-028 17</linkclipref>
								<mediatype>audio</mediatype>
								<trackindex>2</trackindex>
								<clipindex>1</clipindex>
							</link>
							<link>
								<linkclipref>msub200012-3011-k1d1-028 18</linkclipref>
								<mediatype>audio</mediatype>
								<trackindex>3</trackindex>
								<clipindex>1</clipindex>
							</link>
							<link>
								<linkclipref>msub200012-3011-k1d1-028 19</linkclipref>
								<mediatype>audio</mediatype>
								<trackindex>4</trackindex>
								<clipindex>1</clipindex>
							</link>
							<link>
								<linkclipref>msub200012-3011-k1d1-028 20</linkclipref>
								<mediatype>audio</mediatype>
								<trackindex>5</trackindex>
								<clipindex>1</clipindex>
							</link>
							<link>
								<linkclipref>msub200012-3011-k1d1-028 21</linkclipref>
								<mediatype>audio</mediatype>
								<trackindex>6</trackindex>
								<clipindex>1</clipindex>
							</link>
							<link>
								<linkclipref>msub200012-3011-k1d1-028 22</linkclipref>
								<mediatype>audio</mediatype>
								<trackindex>7</trackindex>
								<clipindex>1</clipindex>
							</link>
							<link>
								<linkclipref>msub200012-3011-k1d1-028 23</linkclipref>
								<mediatype>audio</mediatype>
								<trackindex>8</trackindex>
								<clipindex>1</clipindex>
							</link>
						</clipitem>
						<enabled>TRUE</enabled>
						<locked>FALSE</locked>
					</track>
					<track>
						<clipitem id="msub200012-3011-k1d1-028 17">
							<name>msub200012-3011-k1d1-028</name>
							<duration>4553</duration>
							<rate>
								<ntsc>FALSE</ntsc>
								<timebase>25</timebase>
							</rate>
							<in>0</in>
							<out>4553</out>
							<start>0</start>
							<end>4553</end>
							<subframeoffset>0</subframeoffset>
							<masterclipid>msub200012-3011-k1d1-028 1</masterclipid>
							<syncoffset>0</syncoffset>
							<logginginfo>
								<description>msub200012-3011-k1d1-028</description>
								<scene/>
								<shottake/>
								<lognote/>
								<good>FALSE</good>
							</logginginfo>
							<labels>
								<label>Interviews</label>
								<label2/>
							</labels>
							<comments>
								<mastercomment1>RÃ…STOFF. BR_FINFREDAG_MSUA_OPRO</mastercomment1>
								<mastercomment2/>
								<mastercomment3/>
								<mastercomment4/>
								<clipcommenta/>
							</comments>
							<file id="msub200012-3011-k1d1-028 2"/>
							<filter>
								<effect>
									<name>Audio Levels</name>
									<effectid>audiolevels</effectid>
									<effectcategory>audiolevels</effectcategory>
									<effecttype>audiolevels</effecttype>
									<mediatype>audio</mediatype>
									<parameter>
										<name>Level</name>
										<parameterid>level</parameterid>
										<valuemin>0</valuemin>
										<valuemax>3.98109</valuemax>
										<value>1</value>
									</parameter>
								</effect>
							</filter>
							<filter>
								<effect>
									<name>Audio Pan</name>
									<effectid>audiopan</effectid>
									<effectcategory>audiopan</effectcategory>
									<effecttype>audiopan</effecttype>
									<mediatype>audio</mediatype>
									<parameter>
										<name>Pan</name>
										<parameterid>pan</parameterid>
										<valuemin>-1</valuemin>
										<valuemax>1</valuemax>
										<value>0</value>
									</parameter>
								</effect>
							</filter>
							<sourcetrack>
								<mediatype>audio</mediatype>
								<trackindex>2</trackindex>
							</sourcetrack>
							<link>
								<linkclipref>msub200012-3011-k1d1-028 15</linkclipref>
								<mediatype>video</mediatype>
								<trackindex>1</trackindex>
								<clipindex>1</clipindex>
							</link>
							<link>
								<linkclipref>msub200012-3011-k1d1-028 16</linkclipref>
								<mediatype>audio</mediatype>
								<trackindex>1</trackindex>
								<clipindex>1</clipindex>
							</link>
							<link>
								<linkclipref>msub200012-3011-k1d1-028 17</linkclipref>
								<mediatype>audio</mediatype>
								<trackindex>2</trackindex>
								<clipindex>1</clipindex>
							</link>
							<link>
								<linkclipref>msub200012-3011-k1d1-028 18</linkclipref>
								<mediatype>audio</mediatype>
								<trackindex>3</trackindex>
								<clipindex>1</clipindex>
							</link>
							<link>
								<linkclipref>msub200012-3011-k1d1-028 19</linkclipref>
								<mediatype>audio</mediatype>
								<trackindex>4</trackindex>
								<clipindex>1</clipindex>
							</link>
							<link>
								<linkclipref>msub200012-3011-k1d1-028 20</linkclipref>
								<mediatype>audio</mediatype>
								<trackindex>5</trackindex>
								<clipindex>1</clipindex>
							</link>
							<link>
								<linkclipref>msub200012-3011-k1d1-028 21</linkclipref>
								<mediatype>audio</mediatype>
								<trackindex>6</trackindex>
								<clipindex>1</clipindex>
							</link>
							<link>
								<linkclipref>msub200012-3011-k1d1-028 22</linkclipref>
								<mediatype>audio</mediatype>
								<trackindex>7</trackindex>
								<clipindex>1</clipindex>
							</link>
							<link>
								<linkclipref>msub200012-3011-k1d1-028 23</linkclipref>
								<mediatype>audio</mediatype>
								<trackindex>8</trackindex>
								<clipindex>1</clipindex>
							</link>
						</clipitem>
						<enabled>TRUE</enabled>
						<locked>FALSE</locked>
					</track>
					<track>
						<clipitem id="msub200012-3011-k1d1-028 18">
							<name>msub200012-3011-k1d1-028</name>
							<duration>4553</duration>
							<rate>
								<ntsc>FALSE</ntsc>
								<timebase>25</timebase>
							</rate>
							<in>0</in>
							<out>4553</out>
							<start>0</start>
							<end>4553</end>
							<subframeoffset>0</subframeoffset>
							<masterclipid>msub200012-3011-k1d1-028 1</masterclipid>
							<syncoffset>0</syncoffset>
							<logginginfo>
								<description>msub200012-3011-k1d1-028</description>
								<scene/>
								<shottake/>
								<lognote/>
								<good>FALSE</good>
							</logginginfo>
							<labels>
								<label>Interviews</label>
								<label2/>
							</labels>
							<comments>
								<mastercomment1>RÃ…STOFF. BR_FINFREDAG_MSUA_OPRO</mastercomment1>
								<mastercomment2/>
								<mastercomment3/>
								<mastercomment4/>
								<clipcommenta/>
							</comments>
							<file id="msub200012-3011-k1d1-028 2"/>
							<filter>
								<effect>
									<name>Audio Levels</name>
									<effectid>audiolevels</effectid>
									<effectcategory>audiolevels</effectcategory>
									<effecttype>audiolevels</effecttype>
									<mediatype>audio</mediatype>
									<parameter>
										<name>Level</name>
										<parameterid>level</parameterid>
										<valuemin>0</valuemin>
										<valuemax>3.98109</valuemax>
										<value>1</value>
									</parameter>
								</effect>
							</filter>
							<filter>
								<effect>
									<name>Audio Pan</name>
									<effectid>audiopan</effectid>
									<effectcategory>audiopan</effectcategory>
									<effecttype>audiopan</effecttype>
									<mediatype>audio</mediatype>
									<parameter>
										<name>Pan</name>
										<parameterid>pan</parameterid>
										<valuemin>-1</valuemin>
										<valuemax>1</valuemax>
										<value>0</value>
									</parameter>
								</effect>
							</filter>
							<sourcetrack>
								<mediatype>audio</mediatype>
								<trackindex>3</trackindex>
							</sourcetrack>
							<link>
								<linkclipref>msub200012-3011-k1d1-028 15</linkclipref>
								<mediatype>video</mediatype>
								<trackindex>1</trackindex>
								<clipindex>1</clipindex>
							</link>
							<link>
								<linkclipref>msub200012-3011-k1d1-028 16</linkclipref>
								<mediatype>audio</mediatype>
								<trackindex>1</trackindex>
								<clipindex>1</clipindex>
							</link>
							<link>
								<linkclipref>msub200012-3011-k1d1-028 17</linkclipref>
								<mediatype>audio</mediatype>
								<trackindex>2</trackindex>
								<clipindex>1</clipindex>
							</link>
							<link>
								<linkclipref>msub200012-3011-k1d1-028 18</linkclipref>
								<mediatype>audio</mediatype>
								<trackindex>3</trackindex>
								<clipindex>1</clipindex>
							</link>
							<link>
								<linkclipref>msub200012-3011-k1d1-028 19</linkclipref>
								<mediatype>audio</mediatype>
								<trackindex>4</trackindex>
								<clipindex>1</clipindex>
							</link>
							<link>
								<linkclipref>msub200012-3011-k1d1-028 20</linkclipref>
								<mediatype>audio</mediatype>
								<trackindex>5</trackindex>
								<clipindex>1</clipindex>
							</link>
							<link>
								<linkclipref>msub200012-3011-k1d1-028 21</linkclipref>
								<mediatype>audio</mediatype>
								<trackindex>6</trackindex>
								<clipindex>1</clipindex>
							</link>
							<link>
								<linkclipref>msub200012-3011-k1d1-028 22</linkclipref>
								<mediatype>audio</mediatype>
								<trackindex>7</trackindex>
								<clipindex>1</clipindex>
							</link>
							<link>
								<linkclipref>msub200012-3011-k1d1-028 23</linkclipref>
								<mediatype>audio</mediatype>
								<trackindex>8</trackindex>
								<clipindex>1</clipindex>
							</link>
						</clipitem>
						<enabled>TRUE</enabled>
						<locked>FALSE</locked>
					</track>
					<track>
						<clipitem id="msub200012-3011-k1d1-028 19">
							<name>msub200012-3011-k1d1-028</name>
							<duration>4553</duration>
							<rate>
								<ntsc>FALSE</ntsc>
								<timebase>25</timebase>
							</rate>
							<in>0</in>
							<out>4553</out>
							<start>0</start>
							<end>4553</end>
							<subframeoffset>0</subframeoffset>
							<masterclipid>msub200012-3011-k1d1-028 1</masterclipid>
							<syncoffset>0</syncoffset>
							<logginginfo>
								<description>msub200012-3011-k1d1-028</description>
								<scene/>
								<shottake/>
								<lognote/>
								<good>FALSE</good>
							</logginginfo>
							<labels>
								<label>Interviews</label>
								<label2/>
							</labels>
							<comments>
								<mastercomment1>RÃ…STOFF. BR_FINFREDAG_MSUA_OPRO</mastercomment1>
								<mastercomment2/>
								<mastercomment3/>
								<mastercomment4/>
								<clipcommenta/>
							</comments>
							<file id="msub200012-3011-k1d1-028 2"/>
							<filter>
								<effect>
									<name>Audio Levels</name>
									<effectid>audiolevels</effectid>
									<effectcategory>audiolevels</effectcategory>
									<effecttype>audiolevels</effecttype>
									<mediatype>audio</mediatype>
									<parameter>
										<name>Level</name>
										<parameterid>level</parameterid>
										<valuemin>0</valuemin>
										<valuemax>3.98109</valuemax>
										<value>1</value>
									</parameter>
								</effect>
							</filter>
							<filter>
								<effect>
									<name>Audio Pan</name>
									<effectid>audiopan</effectid>
									<effectcategory>audiopan</effectcategory>
									<effecttype>audiopan</effecttype>
									<mediatype>audio</mediatype>
									<parameter>
										<name>Pan</name>
										<parameterid>pan</parameterid>
										<valuemin>-1</valuemin>
										<valuemax>1</valuemax>
										<value>0</value>
									</parameter>
								</effect>
							</filter>
							<sourcetrack>
								<mediatype>audio</mediatype>
								<trackindex>4</trackindex>
							</sourcetrack>
							<link>
								<linkclipref>msub200012-3011-k1d1-028 15</linkclipref>
								<mediatype>video</mediatype>
								<trackindex>1</trackindex>
								<clipindex>1</clipindex>
							</link>
							<link>
								<linkclipref>msub200012-3011-k1d1-028 16</linkclipref>
								<mediatype>audio</mediatype>
								<trackindex>1</trackindex>
								<clipindex>1</clipindex>
							</link>
							<link>
								<linkclipref>msub200012-3011-k1d1-028 17</linkclipref>
								<mediatype>audio</mediatype>
								<trackindex>2</trackindex>
								<clipindex>1</clipindex>
							</link>
							<link>
								<linkclipref>msub200012-3011-k1d1-028 18</linkclipref>
								<mediatype>audio</mediatype>
								<trackindex>3</trackindex>
								<clipindex>1</clipindex>
							</link>
							<link>
								<linkclipref>msub200012-3011-k1d1-028 19</linkclipref>
								<mediatype>audio</mediatype>
								<trackindex>4</trackindex>
								<clipindex>1</clipindex>
							</link>
							<link>
								<linkclipref>msub200012-3011-k1d1-028 20</linkclipref>
								<mediatype>audio</mediatype>
								<trackindex>5</trackindex>
								<clipindex>1</clipindex>
							</link>
							<link>
								<linkclipref>msub200012-3011-k1d1-028 21</linkclipref>
								<mediatype>audio</mediatype>
								<trackindex>6</trackindex>
								<clipindex>1</clipindex>
							</link>
							<link>
								<linkclipref>msub200012-3011-k1d1-028 22</linkclipref>
								<mediatype>audio</mediatype>
								<trackindex>7</trackindex>
								<clipindex>1</clipindex>
							</link>
							<link>
								<linkclipref>msub200012-3011-k1d1-028 23</linkclipref>
								<mediatype>audio</mediatype>
								<trackindex>8</trackindex>
								<clipindex>1</clipindex>
							</link>
						</clipitem>
						<enabled>TRUE</enabled>
						<locked>FALSE</locked>
					</track>
					<track>
						<clipitem id="msub200012-3011-k1d1-028 20">
							<name>msub200012-3011-k1d1-028</name>
							<duration>4553</duration>
							<rate>
								<ntsc>FALSE</ntsc>
								<timebase>25</timebase>
							</rate>
							<in>0</in>
							<out>4553</out>
							<start>0</start>
							<end>4553</end>
							<subframeoffset>0</subframeoffset>
							<masterclipid>msub200012-3011-k1d1-028 1</masterclipid>
							<syncoffset>0</syncoffset>
							<logginginfo>
								<description>msub200012-3011-k1d1-028</description>
								<scene/>
								<shottake/>
								<lognote/>
								<good>FALSE</good>
							</logginginfo>
							<labels>
								<label>Interviews</label>
								<label2/>
							</labels>
							<comments>
								<mastercomment1>RÃ…STOFF. BR_FINFREDAG_MSUA_OPRO</mastercomment1>
								<mastercomment2/>
								<mastercomment3/>
								<mastercomment4/>
								<clipcommenta/>
							</comments>
							<file id="msub200012-3011-k1d1-028 2"/>
							<filter>
								<effect>
									<name>Audio Levels</name>
									<effectid>audiolevels</effectid>
									<effectcategory>audiolevels</effectcategory>
									<effecttype>audiolevels</effecttype>
									<mediatype>audio</mediatype>
									<parameter>
										<name>Level</name>
										<parameterid>level</parameterid>
										<valuemin>0</valuemin>
										<valuemax>3.98109</valuemax>
										<value>1</value>
									</parameter>
								</effect>
							</filter>
							<filter>
								<effect>
									<name>Audio Pan</name>
									<effectid>audiopan</effectid>
									<effectcategory>audiopan</effectcategory>
									<effecttype>audiopan</effecttype>
									<mediatype>audio</mediatype>
									<parameter>
										<name>Pan</name>
										<parameterid>pan</parameterid>
										<valuemin>-1</valuemin>
										<valuemax>1</valuemax>
										<value>0</value>
									</parameter>
								</effect>
							</filter>
							<sourcetrack>
								<mediatype>audio</mediatype>
								<trackindex>5</trackindex>
							</sourcetrack>
							<link>
								<linkclipref>msub200012-3011-k1d1-028 15</linkclipref>
								<mediatype>video</mediatype>
								<trackindex>1</trackindex>
								<clipindex>1</clipindex>
							</link>
							<link>
								<linkclipref>msub200012-3011-k1d1-028 16</linkclipref>
								<mediatype>audio</mediatype>
								<trackindex>1</trackindex>
								<clipindex>1</clipindex>
							</link>
							<link>
								<linkclipref>msub200012-3011-k1d1-028 17</linkclipref>
								<mediatype>audio</mediatype>
								<trackindex>2</trackindex>
								<clipindex>1</clipindex>
							</link>
							<link>
								<linkclipref>msub200012-3011-k1d1-028 18</linkclipref>
								<mediatype>audio</mediatype>
								<trackindex>3</trackindex>
								<clipindex>1</clipindex>
							</link>
							<link>
								<linkclipref>msub200012-3011-k1d1-028 19</linkclipref>
								<mediatype>audio</mediatype>
								<trackindex>4</trackindex>
								<clipindex>1</clipindex>
							</link>
							<link>
								<linkclipref>msub200012-3011-k1d1-028 20</linkclipref>
								<mediatype>audio</mediatype>
								<trackindex>5</trackindex>
								<clipindex>1</clipindex>
							</link>
							<link>
								<linkclipref>msub200012-3011-k1d1-028 21</linkclipref>
								<mediatype>audio</mediatype>
								<trackindex>6</trackindex>
								<clipindex>1</clipindex>
							</link>
							<link>
								<linkclipref>msub200012-3011-k1d1-028 22</linkclipref>
								<mediatype>audio</mediatype>
								<trackindex>7</trackindex>
								<clipindex>1</clipindex>
							</link>
							<link>
								<linkclipref>msub200012-3011-k1d1-028 23</linkclipref>
								<mediatype>audio</mediatype>
								<trackindex>8</trackindex>
								<clipindex>1</clipindex>
							</link>
						</clipitem>
						<enabled>TRUE</enabled>
						<locked>FALSE</locked>
					</track>
					<track>
						<clipitem id="msub200012-3011-k1d1-028 21">
							<name>msub200012-3011-k1d1-028</name>
							<duration>4553</duration>
							<rate>
								<ntsc>FALSE</ntsc>
								<timebase>25</timebase>
							</rate>
							<in>0</in>
							<out>4553</out>
							<start>0</start>
							<end>4553</end>
							<subframeoffset>0</subframeoffset>
							<masterclipid>msub200012-3011-k1d1-028 1</masterclipid>
							<syncoffset>0</syncoffset>
							<logginginfo>
								<description>msub200012-3011-k1d1-028</description>
								<scene/>
								<shottake/>
								<lognote/>
								<good>FALSE</good>
							</logginginfo>
							<labels>
								<label>Interviews</label>
								<label2/>
							</labels>
							<comments>
								<mastercomment1>RÃ…STOFF. BR_FINFREDAG_MSUA_OPRO</mastercomment1>
								<mastercomment2/>
								<mastercomment3/>
								<mastercomment4/>
								<clipcommenta/>
							</comments>
							<file id="msub200012-3011-k1d1-028 2"/>
							<filter>
								<effect>
									<name>Audio Levels</name>
									<effectid>audiolevels</effectid>
									<effectcategory>audiolevels</effectcategory>
									<effecttype>audiolevels</effecttype>
									<mediatype>audio</mediatype>
									<parameter>
										<name>Level</name>
										<parameterid>level</parameterid>
										<valuemin>0</valuemin>
										<valuemax>3.98109</valuemax>
										<value>1</value>
									</parameter>
								</effect>
							</filter>
							<filter>
								<effect>
									<name>Audio Pan</name>
									<effectid>audiopan</effectid>
									<effectcategory>audiopan</effectcategory>
									<effecttype>audiopan</effecttype>
									<mediatype>audio</mediatype>
									<parameter>
										<name>Pan</name>
										<parameterid>pan</parameterid>
										<valuemin>-1</valuemin>
										<valuemax>1</valuemax>
										<value>0</value>
									</parameter>
								</effect>
							</filter>
							<sourcetrack>
								<mediatype>audio</mediatype>
								<trackindex>6</trackindex>
							</sourcetrack>
							<link>
								<linkclipref>msub200012-3011-k1d1-028 15</linkclipref>
								<mediatype>video</mediatype>
								<trackindex>1</trackindex>
								<clipindex>1</clipindex>
							</link>
							<link>
								<linkclipref>msub200012-3011-k1d1-028 16</linkclipref>
								<mediatype>audio</mediatype>
								<trackindex>1</trackindex>
								<clipindex>1</clipindex>
							</link>
							<link>
								<linkclipref>msub200012-3011-k1d1-028 17</linkclipref>
								<mediatype>audio</mediatype>
								<trackindex>2</trackindex>
								<clipindex>1</clipindex>
							</link>
							<link>
								<linkclipref>msub200012-3011-k1d1-028 18</linkclipref>
								<mediatype>audio</mediatype>
								<trackindex>3</trackindex>
								<clipindex>1</clipindex>
							</link>
							<link>
								<linkclipref>msub200012-3011-k1d1-028 19</linkclipref>
								<mediatype>audio</mediatype>
								<trackindex>4</trackindex>
								<clipindex>1</clipindex>
							</link>
							<link>
								<linkclipref>msub200012-3011-k1d1-028 20</linkclipref>
								<mediatype>audio</mediatype>
								<trackindex>5</trackindex>
								<clipindex>1</clipindex>
							</link>
							<link>
								<linkclipref>msub200012-3011-k1d1-028 21</linkclipref>
								<mediatype>audio</mediatype>
								<trackindex>6</trackindex>
								<clipindex>1</clipindex>
							</link>
							<link>
								<linkclipref>msub200012-3011-k1d1-028 22</linkclipref>
								<mediatype>audio</mediatype>
								<trackindex>7</trackindex>
								<clipindex>1</clipindex>
							</link>
							<link>
								<linkclipref>msub200012-3011-k1d1-028 23</linkclipref>
								<mediatype>audio</mediatype>
								<trackindex>8</trackindex>
								<clipindex>1</clipindex>
							</link>
						</clipitem>
						<enabled>TRUE</enabled>
						<locked>FALSE</locked>
					</track>
					<track>
						<clipitem id="msub200012-3011-k1d1-028 22">
							<name>msub200012-3011-k1d1-028</name>
							<duration>4553</duration>
							<rate>
								<ntsc>FALSE</ntsc>
								<timebase>25</timebase>
							</rate>
							<in>0</in>
							<out>4553</out>
							<start>0</start>
							<end>4553</end>
							<subframeoffset>0</subframeoffset>
							<masterclipid>msub200012-3011-k1d1-028 1</masterclipid>
							<syncoffset>0</syncoffset>
							<logginginfo>
								<description>msub200012-3011-k1d1-028</description>
								<scene/>
								<shottake/>
								<lognote/>
								<good>FALSE</good>
							</logginginfo>
							<labels>
								<label>Interviews</label>
								<label2/>
							</labels>
							<comments>
								<mastercomment1>RÃ…STOFF. BR_FINFREDAG_MSUA_OPRO</mastercomment1>
								<mastercomment2/>
								<mastercomment3/>
								<mastercomment4/>
								<clipcommenta/>
							</comments>
							<file id="msub200012-3011-k1d1-028 2"/>
							<filter>
								<effect>
									<name>Audio Levels</name>
									<effectid>audiolevels</effectid>
									<effectcategory>audiolevels</effectcategory>
									<effecttype>audiolevels</effecttype>
									<mediatype>audio</mediatype>
									<parameter>
										<name>Level</name>
										<parameterid>level</parameterid>
										<valuemin>0</valuemin>
										<valuemax>3.98109</valuemax>
										<value>1</value>
									</parameter>
								</effect>
							</filter>
							<filter>
								<effect>
									<name>Audio Pan</name>
									<effectid>audiopan</effectid>
									<effectcategory>audiopan</effectcategory>
									<effecttype>audiopan</effecttype>
									<mediatype>audio</mediatype>
									<parameter>
										<name>Pan</name>
										<parameterid>pan</parameterid>
										<valuemin>-1</valuemin>
										<valuemax>1</valuemax>
										<value>0</value>
									</parameter>
								</effect>
							</filter>
							<sourcetrack>
								<mediatype>audio</mediatype>
								<trackindex>7</trackindex>
							</sourcetrack>
							<link>
								<linkclipref>msub200012-3011-k1d1-028 15</linkclipref>
								<mediatype>video</mediatype>
								<trackindex>1</trackindex>
								<clipindex>1</clipindex>
							</link>
							<link>
								<linkclipref>msub200012-3011-k1d1-028 16</linkclipref>
								<mediatype>audio</mediatype>
								<trackindex>1</trackindex>
								<clipindex>1</clipindex>
							</link>
							<link>
								<linkclipref>msub200012-3011-k1d1-028 17</linkclipref>
								<mediatype>audio</mediatype>
								<trackindex>2</trackindex>
								<clipindex>1</clipindex>
							</link>
							<link>
								<linkclipref>msub200012-3011-k1d1-028 18</linkclipref>
								<mediatype>audio</mediatype>
								<trackindex>3</trackindex>
								<clipindex>1</clipindex>
							</link>
							<link>
								<linkclipref>msub200012-3011-k1d1-028 19</linkclipref>
								<mediatype>audio</mediatype>
								<trackindex>4</trackindex>
								<clipindex>1</clipindex>
							</link>
							<link>
								<linkclipref>msub200012-3011-k1d1-028 20</linkclipref>
								<mediatype>audio</mediatype>
								<trackindex>5</trackindex>
								<clipindex>1</clipindex>
							</link>
							<link>
								<linkclipref>msub200012-3011-k1d1-028 21</linkclipref>
								<mediatype>audio</mediatype>
								<trackindex>6</trackindex>
								<clipindex>1</clipindex>
							</link>
							<link>
								<linkclipref>msub200012-3011-k1d1-028 22</linkclipref>
								<mediatype>audio</mediatype>
								<trackindex>7</trackindex>
								<clipindex>1</clipindex>
							</link>
							<link>
								<linkclipref>msub200012-3011-k1d1-028 23</linkclipref>
								<mediatype>audio</mediatype>
								<trackindex>8</trackindex>
								<clipindex>1</clipindex>
							</link>
						</clipitem>
						<enabled>TRUE</enabled>
						<locked>FALSE</locked>
					</track>
					<track>
						<clipitem id="msub200012-3011-k1d1-028 23">
							<name>msub200012-3011-k1d1-028</name>
							<duration>4553</duration>
							<rate>
								<ntsc>FALSE</ntsc>
								<timebase>25</timebase>
							</rate>
							<in>0</in>
							<out>4553</out>
							<start>0</start>
							<end>4553</end>
							<subframeoffset>0</subframeoffset>
							<masterclipid>msub200012-3011-k1d1-028 1</masterclipid>
							<syncoffset>0</syncoffset>
							<logginginfo>
								<description>msub200012-3011-k1d1-028</description>
								<scene/>
								<shottake/>
								<lognote/>
								<good>FALSE</good>
							</logginginfo>
							<labels>
								<label>Interviews</label>
								<label2/>
							</labels>
							<comments>
								<mastercomment1>RÃ…STOFF. BR_FINFREDAG_MSUA_OPRO</mastercomment1>
								<mastercomment2/>
								<mastercomment3/>
								<mastercomment4/>
								<clipcommenta/>
							</comments>
							<file id="msub200012-3011-k1d1-028 2"/>
							<filter>
								<effect>
									<name>Audio Levels</name>
									<effectid>audiolevels</effectid>
									<effectcategory>audiolevels</effectcategory>
									<effecttype>audiolevels</effecttype>
									<mediatype>audio</mediatype>
									<parameter>
										<name>Level</name>
										<parameterid>level</parameterid>
										<valuemin>0</valuemin>
										<valuemax>3.98109</valuemax>
										<value>1</value>
									</parameter>
								</effect>
							</filter>
							<filter>
								<effect>
									<name>Audio Pan</name>
									<effectid>audiopan</effectid>
									<effectcategory>audiopan</effectcategory>
									<effecttype>audiopan</effecttype>
									<mediatype>audio</mediatype>
									<parameter>
										<name>Pan</name>
										<parameterid>pan</parameterid>
										<valuemin>-1</valuemin>
										<valuemax>1</valuemax>
										<value>0</value>
									</parameter>
								</effect>
							</filter>
							<sourcetrack>
								<mediatype>audio</mediatype>
								<trackindex>8</trackindex>
							</sourcetrack>
							<link>
								<linkclipref>msub200012-3011-k1d1-028 15</linkclipref>
								<mediatype>video</mediatype>
								<trackindex>1</trackindex>
								<clipindex>1</clipindex>
							</link>
							<link>
								<linkclipref>msub200012-3011-k1d1-028 16</linkclipref>
								<mediatype>audio</mediatype>
								<trackindex>1</trackindex>
								<clipindex>1</clipindex>
							</link>
							<link>
								<linkclipref>msub200012-3011-k1d1-028 17</linkclipref>
								<mediatype>audio</mediatype>
								<trackindex>2</trackindex>
								<clipindex>1</clipindex>
							</link>
							<link>
								<linkclipref>msub200012-3011-k1d1-028 18</linkclipref>
								<mediatype>audio</mediatype>
								<trackindex>3</trackindex>
								<clipindex>1</clipindex>
							</link>
							<link>
								<linkclipref>msub200012-3011-k1d1-028 19</linkclipref>
								<mediatype>audio</mediatype>
								<trackindex>4</trackindex>
								<clipindex>1</clipindex>
							</link>
							<link>
								<linkclipref>msub200012-3011-k1d1-028 20</linkclipref>
								<mediatype>audio</mediatype>
								<trackindex>5</trackindex>
								<clipindex>1</clipindex>
							</link>
							<link>
								<linkclipref>msub200012-3011-k1d1-028 21</linkclipref>
								<mediatype>audio</mediatype>
								<trackindex>6</trackindex>
								<clipindex>1</clipindex>
							</link>
							<link>
								<linkclipref>msub200012-3011-k1d1-028 22</linkclipref>
								<mediatype>audio</mediatype>
								<trackindex>7</trackindex>
								<clipindex>1</clipindex>
							</link>
							<link>
								<linkclipref>msub200012-3011-k1d1-028 23</linkclipref>
								<mediatype>audio</mediatype>
								<trackindex>8</trackindex>
								<clipindex>1</clipindex>
							</link>
						</clipitem>
						<enabled>TRUE</enabled>
						<locked>FALSE</locked>
					</track>
				</audio>
			</media>
		</clip>
		<clip id="msub200012-3011-k1d1-029 5">
			<name>msub200012-3011-k1d1-029</name>
			<duration>1050</duration>
			<rate>
				<ntsc>FALSE</ntsc>
				<timebase>25</timebase>
			</rate>
			<in>714</in>
			<out>979</out>
			<masterclipid>msub200012-3011-k1d1-029 1</masterclipid>
			<ismasterclip>FALSE</ismasterclip>
			<logginginfo>
				<description>msub200012-3011-k1d1-029</description>
				<scene/>
				<shottake/>
				<lognote/>
				<good>FALSE</good>
			</logginginfo>
			<labels>
				<label>B Roll</label>
				<label2/>
			</labels>
			<comments>
				<mastercomment1>RÃ…STOFF. BR_FINFREDAG_MSUA_OPRO</mastercomment1>
				<mastercomment2/>
				<mastercomment3/>
				<mastercomment4/>
				<clipcommenta/>
			</comments>
			<media>
				<video>
					<track>
						<clipitem id="msub200012-3011-k1d1-029 6">
							<name>msub200012-3011-k1d1-029</name>
							<duration>1050</duration>
							<rate>
								<ntsc>FALSE</ntsc>
								<timebase>25</timebase>
							</rate>
							<in>0</in>
							<out>1050</out>
							<start>0</start>
							<end>1050</end>
							<pixelaspectratio>Square</pixelaspectratio>
							<anamorphic>FALSE</anamorphic>
							<alphatype>none</alphatype>
							<masterclipid>msub200012-3011-k1d1-029 1</masterclipid>
							<syncoffset>0</syncoffset>
							<logginginfo>
								<scene/>
								<shottake/>
								<lognote/>
								<good>FALSE</good>
							</logginginfo>
							<labels>
								<label>B Roll</label>
								<label2/>
							</labels>
							<comments>
								<mastercomment1>RÃ…STOFF. BR_FINFREDAG_MSUA_OPRO</mastercomment1>
								<mastercomment2/>
								<mastercomment3/>
								<mastercomment4/>
								<clipcommenta/>
							</comments>
							<file id="msub200012-3011-k1d1-029 2"/>
							<sourcetrack>
								<mediatype>video</mediatype>
							</sourcetrack>
							<link>
								<linkclipref>msub200012-3011-k1d1-029 6</linkclipref>
								<mediatype>video</mediatype>
								<trackindex>1</trackindex>
								<clipindex>1</clipindex>
							</link>
							<link>
								<linkclipref>msub200012-3011-k1d1-029 7</linkclipref>
								<mediatype>audio</mediatype>
								<trackindex>1</trackindex>
								<clipindex>1</clipindex>
							</link>
							<link>
								<linkclipref>msub200012-3011-k1d1-029 8</linkclipref>
								<mediatype>audio</mediatype>
								<trackindex>2</trackindex>
								<clipindex>1</clipindex>
							</link>
							<link>
								<linkclipref>msub200012-3011-k1d1-029 9</linkclipref>
								<mediatype>audio</mediatype>
								<trackindex>3</trackindex>
								<clipindex>1</clipindex>
							</link>
							<link>
								<linkclipref>msub200012-3011-k1d1-029 10</linkclipref>
								<mediatype>audio</mediatype>
								<trackindex>4</trackindex>
								<clipindex>1</clipindex>
							</link>
							<link>
								<linkclipref>msub200012-3011-k1d1-029 11</linkclipref>
								<mediatype>audio</mediatype>
								<trackindex>5</trackindex>
								<clipindex>1</clipindex>
							</link>
							<link>
								<linkclipref>msub200012-3011-k1d1-029 12</linkclipref>
								<mediatype>audio</mediatype>
								<trackindex>6</trackindex>
								<clipindex>1</clipindex>
							</link>
							<link>
								<linkclipref>msub200012-3011-k1d1-029 13</linkclipref>
								<mediatype>audio</mediatype>
								<trackindex>7</trackindex>
								<clipindex>1</clipindex>
							</link>
							<link>
								<linkclipref>msub200012-3011-k1d1-029 14</linkclipref>
								<mediatype>audio</mediatype>
								<trackindex>8</trackindex>
								<clipindex>1</clipindex>
							</link>
							<fielddominance>upper</fielddominance>
						</clipitem>
						<enabled>TRUE</enabled>
						<locked>FALSE</locked>
					</track>
				</video>
				<audio>
					<in>714</in>
					<out>979</out>
					<track>
						<clipitem id="msub200012-3011-k1d1-029 7">
							<name>msub200012-3011-k1d1-029</name>
							<duration>1050</duration>
							<rate>
								<ntsc>FALSE</ntsc>
								<timebase>25</timebase>
							</rate>
							<in>0</in>
							<out>1050</out>
							<start>0</start>
							<end>1050</end>
							<subframeoffset>0</subframeoffset>
							<masterclipid>msub200012-3011-k1d1-029 1</masterclipid>
							<syncoffset>0</syncoffset>
							<logginginfo>
								<scene/>
								<shottake/>
								<lognote/>
								<good>FALSE</good>
							</logginginfo>
							<labels>
								<label>B Roll</label>
								<label2/>
							</labels>
							<comments>
								<mastercomment1>RÃ…STOFF. BR_FINFREDAG_MSUA_OPRO</mastercomment1>
								<mastercomment2/>
								<mastercomment3/>
								<mastercomment4/>
							</comments>
							<file id="msub200012-3011-k1d1-029 2"/>
							<filter>
								<effect>
									<name>Audio Levels</name>
									<effectid>audiolevels</effectid>
									<effectcategory>audiolevels</effectcategory>
									<effecttype>audiolevels</effecttype>
									<mediatype>audio</mediatype>
									<parameter>
										<name>Level</name>
										<parameterid>level</parameterid>
										<valuemin>0</valuemin>
										<valuemax>3.98109</valuemax>
										<value>1</value>
									</parameter>
								</effect>
							</filter>
							<filter>
								<effect>
									<name>Audio Pan</name>
									<effectid>audiopan</effectid>
									<effectcategory>audiopan</effectcategory>
									<effecttype>audiopan</effecttype>
									<mediatype>audio</mediatype>
									<parameter>
										<name>Pan</name>
										<parameterid>pan</parameterid>
										<valuemin>-1</valuemin>
										<valuemax>1</valuemax>
										<value>0</value>
									</parameter>
								</effect>
							</filter>
							<sourcetrack>
								<mediatype>audio</mediatype>
								<trackindex>1</trackindex>
							</sourcetrack>
							<link>
								<linkclipref>msub200012-3011-k1d1-029 6</linkclipref>
								<mediatype>video</mediatype>
								<trackindex>1</trackindex>
								<clipindex>1</clipindex>
							</link>
							<link>
								<linkclipref>msub200012-3011-k1d1-029 7</linkclipref>
								<mediatype>audio</mediatype>
								<trackindex>1</trackindex>
								<clipindex>1</clipindex>
							</link>
							<link>
								<linkclipref>msub200012-3011-k1d1-029 8</linkclipref>
								<mediatype>audio</mediatype>
								<trackindex>2</trackindex>
								<clipindex>1</clipindex>
							</link>
							<link>
								<linkclipref>msub200012-3011-k1d1-029 9</linkclipref>
								<mediatype>audio</mediatype>
								<trackindex>3</trackindex>
								<clipindex>1</clipindex>
							</link>
							<link>
								<linkclipref>msub200012-3011-k1d1-029 10</linkclipref>
								<mediatype>audio</mediatype>
								<trackindex>4</trackindex>
								<clipindex>1</clipindex>
							</link>
							<link>
								<linkclipref>msub200012-3011-k1d1-029 11</linkclipref>
								<mediatype>audio</mediatype>
								<trackindex>5</trackindex>
								<clipindex>1</clipindex>
							</link>
							<link>
								<linkclipref>msub200012-3011-k1d1-029 12</linkclipref>
								<mediatype>audio</mediatype>
								<trackindex>6</trackindex>
								<clipindex>1</clipindex>
							</link>
							<link>
								<linkclipref>msub200012-3011-k1d1-029 13</linkclipref>
								<mediatype>audio</mediatype>
								<trackindex>7</trackindex>
								<clipindex>1</clipindex>
							</link>
							<link>
								<linkclipref>msub200012-3011-k1d1-029 14</linkclipref>
								<mediatype>audio</mediatype>
								<trackindex>8</trackindex>
								<clipindex>1</clipindex>
							</link>
						</clipitem>
						<enabled>TRUE</enabled>
						<locked>FALSE</locked>
					</track>
					<track>
						<clipitem id="msub200012-3011-k1d1-029 8">
							<name>msub200012-3011-k1d1-029</name>
							<duration>1050</duration>
							<rate>
								<ntsc>FALSE</ntsc>
								<timebase>25</timebase>
							</rate>
							<in>0</in>
							<out>1050</out>
							<start>0</start>
							<end>1050</end>
							<subframeoffset>0</subframeoffset>
							<masterclipid>msub200012-3011-k1d1-029 1</masterclipid>
							<syncoffset>0</syncoffset>
							<logginginfo>
								<scene/>
								<shottake/>
								<lognote/>
								<good>FALSE</good>
							</logginginfo>
							<labels>
								<label>B Roll</label>
								<label2/>
							</labels>
							<comments>
								<mastercomment1>RÃ…STOFF. BR_FINFREDAG_MSUA_OPRO</mastercomment1>
								<mastercomment2/>
								<mastercomment3/>
								<mastercomment4/>
							</comments>
							<file id="msub200012-3011-k1d1-029 2"/>
							<filter>
								<effect>
									<name>Audio Levels</name>
									<effectid>audiolevels</effectid>
									<effectcategory>audiolevels</effectcategory>
									<effecttype>audiolevels</effecttype>
									<mediatype>audio</mediatype>
									<parameter>
										<name>Level</name>
										<parameterid>level</parameterid>
										<valuemin>0</valuemin>
										<valuemax>3.98109</valuemax>
										<value>1</value>
									</parameter>
								</effect>
							</filter>
							<filter>
								<effect>
									<name>Audio Pan</name>
									<effectid>audiopan</effectid>
									<effectcategory>audiopan</effectcategory>
									<effecttype>audiopan</effecttype>
									<mediatype>audio</mediatype>
									<parameter>
										<name>Pan</name>
										<parameterid>pan</parameterid>
										<valuemin>-1</valuemin>
										<valuemax>1</valuemax>
										<value>0</value>
									</parameter>
								</effect>
							</filter>
							<sourcetrack>
								<mediatype>audio</mediatype>
								<trackindex>2</trackindex>
							</sourcetrack>
							<link>
								<linkclipref>msub200012-3011-k1d1-029 6</linkclipref>
								<mediatype>video</mediatype>
								<trackindex>1</trackindex>
								<clipindex>1</clipindex>
							</link>
							<link>
								<linkclipref>msub200012-3011-k1d1-029 7</linkclipref>
								<mediatype>audio</mediatype>
								<trackindex>1</trackindex>
								<clipindex>1</clipindex>
							</link>
							<link>
								<linkclipref>msub200012-3011-k1d1-029 8</linkclipref>
								<mediatype>audio</mediatype>
								<trackindex>2</trackindex>
								<clipindex>1</clipindex>
							</link>
							<link>
								<linkclipref>msub200012-3011-k1d1-029 9</linkclipref>
								<mediatype>audio</mediatype>
								<trackindex>3</trackindex>
								<clipindex>1</clipindex>
							</link>
							<link>
								<linkclipref>msub200012-3011-k1d1-029 10</linkclipref>
								<mediatype>audio</mediatype>
								<trackindex>4</trackindex>
								<clipindex>1</clipindex>
							</link>
							<link>
								<linkclipref>msub200012-3011-k1d1-029 11</linkclipref>
								<mediatype>audio</mediatype>
								<trackindex>5</trackindex>
								<clipindex>1</clipindex>
							</link>
							<link>
								<linkclipref>msub200012-3011-k1d1-029 12</linkclipref>
								<mediatype>audio</mediatype>
								<trackindex>6</trackindex>
								<clipindex>1</clipindex>
							</link>
							<link>
								<linkclipref>msub200012-3011-k1d1-029 13</linkclipref>
								<mediatype>audio</mediatype>
								<trackindex>7</trackindex>
								<clipindex>1</clipindex>
							</link>
							<link>
								<linkclipref>msub200012-3011-k1d1-029 14</linkclipref>
								<mediatype>audio</mediatype>
								<trackindex>8</trackindex>
								<clipindex>1</clipindex>
							</link>
						</clipitem>
						<enabled>TRUE</enabled>
						<locked>FALSE</locked>
					</track>
					<track>
						<clipitem id="msub200012-3011-k1d1-029 9">
							<name>msub200012-3011-k1d1-029</name>
							<duration>1050</duration>
							<rate>
								<ntsc>FALSE</ntsc>
								<timebase>25</timebase>
							</rate>
							<in>0</in>
							<out>1050</out>
							<start>0</start>
							<end>1050</end>
							<subframeoffset>0</subframeoffset>
							<masterclipid>msub200012-3011-k1d1-029 1</masterclipid>
							<syncoffset>0</syncoffset>
							<logginginfo>
								<scene/>
								<shottake/>
								<lognote/>
								<good>FALSE</good>
							</logginginfo>
							<labels>
								<label>B Roll</label>
								<label2/>
							</labels>
							<comments>
								<mastercomment1>RÃ…STOFF. BR_FINFREDAG_MSUA_OPRO</mastercomment1>
								<mastercomment2/>
								<mastercomment3/>
								<mastercomment4/>
							</comments>
							<file id="msub200012-3011-k1d1-029 2"/>
							<filter>
								<effect>
									<name>Audio Levels</name>
									<effectid>audiolevels</effectid>
									<effectcategory>audiolevels</effectcategory>
									<effecttype>audiolevels</effecttype>
									<mediatype>audio</mediatype>
									<parameter>
										<name>Level</name>
										<parameterid>level</parameterid>
										<valuemin>0</valuemin>
										<valuemax>3.98109</valuemax>
										<value>1</value>
									</parameter>
								</effect>
							</filter>
							<filter>
								<effect>
									<name>Audio Pan</name>
									<effectid>audiopan</effectid>
									<effectcategory>audiopan</effectcategory>
									<effecttype>audiopan</effecttype>
									<mediatype>audio</mediatype>
									<parameter>
										<name>Pan</name>
										<parameterid>pan</parameterid>
										<valuemin>-1</valuemin>
										<valuemax>1</valuemax>
										<value>0</value>
									</parameter>
								</effect>
							</filter>
							<sourcetrack>
								<mediatype>audio</mediatype>
								<trackindex>3</trackindex>
							</sourcetrack>
							<link>
								<linkclipref>msub200012-3011-k1d1-029 6</linkclipref>
								<mediatype>video</mediatype>
								<trackindex>1</trackindex>
								<clipindex>1</clipindex>
							</link>
							<link>
								<linkclipref>msub200012-3011-k1d1-029 7</linkclipref>
								<mediatype>audio</mediatype>
								<trackindex>1</trackindex>
								<clipindex>1</clipindex>
							</link>
							<link>
								<linkclipref>msub200012-3011-k1d1-029 8</linkclipref>
								<mediatype>audio</mediatype>
								<trackindex>2</trackindex>
								<clipindex>1</clipindex>
							</link>
							<link>
								<linkclipref>msub200012-3011-k1d1-029 9</linkclipref>
								<mediatype>audio</mediatype>
								<trackindex>3</trackindex>
								<clipindex>1</clipindex>
							</link>
							<link>
								<linkclipref>msub200012-3011-k1d1-029 10</linkclipref>
								<mediatype>audio</mediatype>
								<trackindex>4</trackindex>
								<clipindex>1</clipindex>
							</link>
							<link>
								<linkclipref>msub200012-3011-k1d1-029 11</linkclipref>
								<mediatype>audio</mediatype>
								<trackindex>5</trackindex>
								<clipindex>1</clipindex>
							</link>
							<link>
								<linkclipref>msub200012-3011-k1d1-029 12</linkclipref>
								<mediatype>audio</mediatype>
								<trackindex>6</trackindex>
								<clipindex>1</clipindex>
							</link>
							<link>
								<linkclipref>msub200012-3011-k1d1-029 13</linkclipref>
								<mediatype>audio</mediatype>
								<trackindex>7</trackindex>
								<clipindex>1</clipindex>
							</link>
							<link>
								<linkclipref>msub200012-3011-k1d1-029 14</linkclipref>
								<mediatype>audio</mediatype>
								<trackindex>8</trackindex>
								<clipindex>1</clipindex>
							</link>
						</clipitem>
						<enabled>TRUE</enabled>
						<locked>FALSE</locked>
					</track>
					<track>
						<clipitem id="msub200012-3011-k1d1-029 10">
							<name>msub200012-3011-k1d1-029</name>
							<duration>1050</duration>
							<rate>
								<ntsc>FALSE</ntsc>
								<timebase>25</timebase>
							</rate>
							<in>0</in>
							<out>1050</out>
							<start>0</start>
							<end>1050</end>
							<subframeoffset>0</subframeoffset>
							<masterclipid>msub200012-3011-k1d1-029 1</masterclipid>
							<syncoffset>0</syncoffset>
							<logginginfo>
								<scene/>
								<shottake/>
								<lognote/>
								<good>FALSE</good>
							</logginginfo>
							<labels>
								<label>B Roll</label>
								<label2/>
							</labels>
							<comments>
								<mastercomment1>RÃ…STOFF. BR_FINFREDAG_MSUA_OPRO</mastercomment1>
								<mastercomment2/>
								<mastercomment3/>
								<mastercomment4/>
							</comments>
							<file id="msub200012-3011-k1d1-029 2"/>
							<filter>
								<effect>
									<name>Audio Levels</name>
									<effectid>audiolevels</effectid>
									<effectcategory>audiolevels</effectcategory>
									<effecttype>audiolevels</effecttype>
									<mediatype>audio</mediatype>
									<parameter>
										<name>Level</name>
										<parameterid>level</parameterid>
										<valuemin>0</valuemin>
										<valuemax>3.98109</valuemax>
										<value>1</value>
									</parameter>
								</effect>
							</filter>
							<filter>
								<effect>
									<name>Audio Pan</name>
									<effectid>audiopan</effectid>
									<effectcategory>audiopan</effectcategory>
									<effecttype>audiopan</effecttype>
									<mediatype>audio</mediatype>
									<parameter>
										<name>Pan</name>
										<parameterid>pan</parameterid>
										<valuemin>-1</valuemin>
										<valuemax>1</valuemax>
										<value>0</value>
									</parameter>
								</effect>
							</filter>
							<sourcetrack>
								<mediatype>audio</mediatype>
								<trackindex>4</trackindex>
							</sourcetrack>
							<link>
								<linkclipref>msub200012-3011-k1d1-029 6</linkclipref>
								<mediatype>video</mediatype>
								<trackindex>1</trackindex>
								<clipindex>1</clipindex>
							</link>
							<link>
								<linkclipref>msub200012-3011-k1d1-029 7</linkclipref>
								<mediatype>audio</mediatype>
								<trackindex>1</trackindex>
								<clipindex>1</clipindex>
							</link>
							<link>
								<linkclipref>msub200012-3011-k1d1-029 8</linkclipref>
								<mediatype>audio</mediatype>
								<trackindex>2</trackindex>
								<clipindex>1</clipindex>
							</link>
							<link>
								<linkclipref>msub200012-3011-k1d1-029 9</linkclipref>
								<mediatype>audio</mediatype>
								<trackindex>3</trackindex>
								<clipindex>1</clipindex>
							</link>
							<link>
								<linkclipref>msub200012-3011-k1d1-029 10</linkclipref>
								<mediatype>audio</mediatype>
								<trackindex>4</trackindex>
								<clipindex>1</clipindex>
							</link>
							<link>
								<linkclipref>msub200012-3011-k1d1-029 11</linkclipref>
								<mediatype>audio</mediatype>
								<trackindex>5</trackindex>
								<clipindex>1</clipindex>
							</link>
							<link>
								<linkclipref>msub200012-3011-k1d1-029 12</linkclipref>
								<mediatype>audio</mediatype>
								<trackindex>6</trackindex>
								<clipindex>1</clipindex>
							</link>
							<link>
								<linkclipref>msub200012-3011-k1d1-029 13</linkclipref>
								<mediatype>audio</mediatype>
								<trackindex>7</trackindex>
								<clipindex>1</clipindex>
							</link>
							<link>
								<linkclipref>msub200012-3011-k1d1-029 14</linkclipref>
								<mediatype>audio</mediatype>
								<trackindex>8</trackindex>
								<clipindex>1</clipindex>
							</link>
						</clipitem>
						<enabled>TRUE</enabled>
						<locked>FALSE</locked>
					</track>
					<track>
						<clipitem id="msub200012-3011-k1d1-029 11">
							<name>msub200012-3011-k1d1-029</name>
							<duration>1050</duration>
							<rate>
								<ntsc>FALSE</ntsc>
								<timebase>25</timebase>
							</rate>
							<in>0</in>
							<out>1050</out>
							<start>0</start>
							<end>1050</end>
							<subframeoffset>0</subframeoffset>
							<masterclipid>msub200012-3011-k1d1-029 1</masterclipid>
							<syncoffset>0</syncoffset>
							<logginginfo>
								<scene/>
								<shottake/>
								<lognote/>
								<good>FALSE</good>
							</logginginfo>
							<labels>
								<label>B Roll</label>
								<label2/>
							</labels>
							<comments>
								<mastercomment1>RÃ…STOFF. BR_FINFREDAG_MSUA_OPRO</mastercomment1>
								<mastercomment2/>
								<mastercomment3/>
								<mastercomment4/>
							</comments>
							<file id="msub200012-3011-k1d1-029 2"/>
							<filter>
								<effect>
									<name>Audio Levels</name>
									<effectid>audiolevels</effectid>
									<effectcategory>audiolevels</effectcategory>
									<effecttype>audiolevels</effecttype>
									<mediatype>audio</mediatype>
									<parameter>
										<name>Level</name>
										<parameterid>level</parameterid>
										<valuemin>0</valuemin>
										<valuemax>3.98109</valuemax>
										<value>1</value>
									</parameter>
								</effect>
							</filter>
							<filter>
								<effect>
									<name>Audio Pan</name>
									<effectid>audiopan</effectid>
									<effectcategory>audiopan</effectcategory>
									<effecttype>audiopan</effecttype>
									<mediatype>audio</mediatype>
									<parameter>
										<name>Pan</name>
										<parameterid>pan</parameterid>
										<valuemin>-1</valuemin>
										<valuemax>1</valuemax>
										<value>0</value>
									</parameter>
								</effect>
							</filter>
							<sourcetrack>
								<mediatype>audio</mediatype>
								<trackindex>5</trackindex>
							</sourcetrack>
							<link>
								<linkclipref>msub200012-3011-k1d1-029 6</linkclipref>
								<mediatype>video</mediatype>
								<trackindex>1</trackindex>
								<clipindex>1</clipindex>
							</link>
							<link>
								<linkclipref>msub200012-3011-k1d1-029 7</linkclipref>
								<mediatype>audio</mediatype>
								<trackindex>1</trackindex>
								<clipindex>1</clipindex>
							</link>
							<link>
								<linkclipref>msub200012-3011-k1d1-029 8</linkclipref>
								<mediatype>audio</mediatype>
								<trackindex>2</trackindex>
								<clipindex>1</clipindex>
							</link>
							<link>
								<linkclipref>msub200012-3011-k1d1-029 9</linkclipref>
								<mediatype>audio</mediatype>
								<trackindex>3</trackindex>
								<clipindex>1</clipindex>
							</link>
							<link>
								<linkclipref>msub200012-3011-k1d1-029 10</linkclipref>
								<mediatype>audio</mediatype>
								<trackindex>4</trackindex>
								<clipindex>1</clipindex>
							</link>
							<link>
								<linkclipref>msub200012-3011-k1d1-029 11</linkclipref>
								<mediatype>audio</mediatype>
								<trackindex>5</trackindex>
								<clipindex>1</clipindex>
							</link>
							<link>
								<linkclipref>msub200012-3011-k1d1-029 12</linkclipref>
								<mediatype>audio</mediatype>
								<trackindex>6</trackindex>
								<clipindex>1</clipindex>
							</link>
							<link>
								<linkclipref>msub200012-3011-k1d1-029 13</linkclipref>
								<mediatype>audio</mediatype>
								<trackindex>7</trackindex>
								<clipindex>1</clipindex>
							</link>
							<link>
								<linkclipref>msub200012-3011-k1d1-029 14</linkclipref>
								<mediatype>audio</mediatype>
								<trackindex>8</trackindex>
								<clipindex>1</clipindex>
							</link>
						</clipitem>
						<enabled>TRUE</enabled>
						<locked>FALSE</locked>
					</track>
					<track>
						<clipitem id="msub200012-3011-k1d1-029 12">
							<name>msub200012-3011-k1d1-029</name>
							<duration>1050</duration>
							<rate>
								<ntsc>FALSE</ntsc>
								<timebase>25</timebase>
							</rate>
							<in>0</in>
							<out>1050</out>
							<start>0</start>
							<end>1050</end>
							<subframeoffset>0</subframeoffset>
							<masterclipid>msub200012-3011-k1d1-029 1</masterclipid>
							<syncoffset>0</syncoffset>
							<logginginfo>
								<scene/>
								<shottake/>
								<lognote/>
								<good>FALSE</good>
							</logginginfo>
							<labels>
								<label>B Roll</label>
								<label2/>
							</labels>
							<comments>
								<mastercomment1>RÃ…STOFF. BR_FINFREDAG_MSUA_OPRO</mastercomment1>
								<mastercomment2/>
								<mastercomment3/>
								<mastercomment4/>
							</comments>
							<file id="msub200012-3011-k1d1-029 2"/>
							<filter>
								<effect>
									<name>Audio Levels</name>
									<effectid>audiolevels</effectid>
									<effectcategory>audiolevels</effectcategory>
									<effecttype>audiolevels</effecttype>
									<mediatype>audio</mediatype>
									<parameter>
										<name>Level</name>
										<parameterid>level</parameterid>
										<valuemin>0</valuemin>
										<valuemax>3.98109</valuemax>
										<value>1</value>
									</parameter>
								</effect>
							</filter>
							<filter>
								<effect>
									<name>Audio Pan</name>
									<effectid>audiopan</effectid>
									<effectcategory>audiopan</effectcategory>
									<effecttype>audiopan</effecttype>
									<mediatype>audio</mediatype>
									<parameter>
										<name>Pan</name>
										<parameterid>pan</parameterid>
										<valuemin>-1</valuemin>
										<valuemax>1</valuemax>
										<value>0</value>
									</parameter>
								</effect>
							</filter>
							<sourcetrack>
								<mediatype>audio</mediatype>
								<trackindex>6</trackindex>
							</sourcetrack>
							<link>
								<linkclipref>msub200012-3011-k1d1-029 6</linkclipref>
								<mediatype>video</mediatype>
								<trackindex>1</trackindex>
								<clipindex>1</clipindex>
							</link>
							<link>
								<linkclipref>msub200012-3011-k1d1-029 7</linkclipref>
								<mediatype>audio</mediatype>
								<trackindex>1</trackindex>
								<clipindex>1</clipindex>
							</link>
							<link>
								<linkclipref>msub200012-3011-k1d1-029 8</linkclipref>
								<mediatype>audio</mediatype>
								<trackindex>2</trackindex>
								<clipindex>1</clipindex>
							</link>
							<link>
								<linkclipref>msub200012-3011-k1d1-029 9</linkclipref>
								<mediatype>audio</mediatype>
								<trackindex>3</trackindex>
								<clipindex>1</clipindex>
							</link>
							<link>
								<linkclipref>msub200012-3011-k1d1-029 10</linkclipref>
								<mediatype>audio</mediatype>
								<trackindex>4</trackindex>
								<clipindex>1</clipindex>
							</link>
							<link>
								<linkclipref>msub200012-3011-k1d1-029 11</linkclipref>
								<mediatype>audio</mediatype>
								<trackindex>5</trackindex>
								<clipindex>1</clipindex>
							</link>
							<link>
								<linkclipref>msub200012-3011-k1d1-029 12</linkclipref>
								<mediatype>audio</mediatype>
								<trackindex>6</trackindex>
								<clipindex>1</clipindex>
							</link>
							<link>
								<linkclipref>msub200012-3011-k1d1-029 13</linkclipref>
								<mediatype>audio</mediatype>
								<trackindex>7</trackindex>
								<clipindex>1</clipindex>
							</link>
							<link>
								<linkclipref>msub200012-3011-k1d1-029 14</linkclipref>
								<mediatype>audio</mediatype>
								<trackindex>8</trackindex>
								<clipindex>1</clipindex>
							</link>
						</clipitem>
						<enabled>TRUE</enabled>
						<locked>FALSE</locked>
					</track>
					<track>
						<clipitem id="msub200012-3011-k1d1-029 13">
							<name>msub200012-3011-k1d1-029</name>
							<duration>1050</duration>
							<rate>
								<ntsc>FALSE</ntsc>
								<timebase>25</timebase>
							</rate>
							<in>0</in>
							<out>1050</out>
							<start>0</start>
							<end>1050</end>
							<subframeoffset>0</subframeoffset>
							<masterclipid>msub200012-3011-k1d1-029 1</masterclipid>
							<syncoffset>0</syncoffset>
							<logginginfo>
								<scene/>
								<shottake/>
								<lognote/>
								<good>FALSE</good>
							</logginginfo>
							<labels>
								<label>B Roll</label>
								<label2/>
							</labels>
							<comments>
								<mastercomment1>RÃ…STOFF. BR_FINFREDAG_MSUA_OPRO</mastercomment1>
								<mastercomment2/>
								<mastercomment3/>
								<mastercomment4/>
							</comments>
							<file id="msub200012-3011-k1d1-029 2"/>
							<filter>
								<effect>
									<name>Audio Levels</name>
									<effectid>audiolevels</effectid>
									<effectcategory>audiolevels</effectcategory>
									<effecttype>audiolevels</effecttype>
									<mediatype>audio</mediatype>
									<parameter>
										<name>Level</name>
										<parameterid>level</parameterid>
										<valuemin>0</valuemin>
										<valuemax>3.98109</valuemax>
										<value>1</value>
									</parameter>
								</effect>
							</filter>
							<filter>
								<effect>
									<name>Audio Pan</name>
									<effectid>audiopan</effectid>
									<effectcategory>audiopan</effectcategory>
									<effecttype>audiopan</effecttype>
									<mediatype>audio</mediatype>
									<parameter>
										<name>Pan</name>
										<parameterid>pan</parameterid>
										<valuemin>-1</valuemin>
										<valuemax>1</valuemax>
										<value>0</value>
									</parameter>
								</effect>
							</filter>
							<sourcetrack>
								<mediatype>audio</mediatype>
								<trackindex>7</trackindex>
							</sourcetrack>
							<link>
								<linkclipref>msub200012-3011-k1d1-029 6</linkclipref>
								<mediatype>video</mediatype>
								<trackindex>1</trackindex>
								<clipindex>1</clipindex>
							</link>
							<link>
								<linkclipref>msub200012-3011-k1d1-029 7</linkclipref>
								<mediatype>audio</mediatype>
								<trackindex>1</trackindex>
								<clipindex>1</clipindex>
							</link>
							<link>
								<linkclipref>msub200012-3011-k1d1-029 8</linkclipref>
								<mediatype>audio</mediatype>
								<trackindex>2</trackindex>
								<clipindex>1</clipindex>
							</link>
							<link>
								<linkclipref>msub200012-3011-k1d1-029 9</linkclipref>
								<mediatype>audio</mediatype>
								<trackindex>3</trackindex>
								<clipindex>1</clipindex>
							</link>
							<link>
								<linkclipref>msub200012-3011-k1d1-029 10</linkclipref>
								<mediatype>audio</mediatype>
								<trackindex>4</trackindex>
								<clipindex>1</clipindex>
							</link>
							<link>
								<linkclipref>msub200012-3011-k1d1-029 11</linkclipref>
								<mediatype>audio</mediatype>
								<trackindex>5</trackindex>
								<clipindex>1</clipindex>
							</link>
							<link>
								<linkclipref>msub200012-3011-k1d1-029 12</linkclipref>
								<mediatype>audio</mediatype>
								<trackindex>6</trackindex>
								<clipindex>1</clipindex>
							</link>
							<link>
								<linkclipref>msub200012-3011-k1d1-029 13</linkclipref>
								<mediatype>audio</mediatype>
								<trackindex>7</trackindex>
								<clipindex>1</clipindex>
							</link>
							<link>
								<linkclipref>msub200012-3011-k1d1-029 14</linkclipref>
								<mediatype>audio</mediatype>
								<trackindex>8</trackindex>
								<clipindex>1</clipindex>
							</link>
						</clipitem>
						<enabled>TRUE</enabled>
						<locked>FALSE</locked>
					</track>
					<track>
						<clipitem id="msub200012-3011-k1d1-029 14">
							<name>msub200012-3011-k1d1-029</name>
							<duration>1050</duration>
							<rate>
								<ntsc>FALSE</ntsc>
								<timebase>25</timebase>
							</rate>
							<in>0</in>
							<out>1050</out>
							<start>0</start>
							<end>1050</end>
							<subframeoffset>0</subframeoffset>
							<masterclipid>msub200012-3011-k1d1-029 1</masterclipid>
							<syncoffset>0</syncoffset>
							<logginginfo>
								<scene/>
								<shottake/>
								<lognote/>
								<good>FALSE</good>
							</logginginfo>
							<labels>
								<label>B Roll</label>
								<label2/>
							</labels>
							<comments>
								<mastercomment1>RÃ…STOFF. BR_FINFREDAG_MSUA_OPRO</mastercomment1>
								<mastercomment2/>
								<mastercomment3/>
								<mastercomment4/>
							</comments>
							<file id="msub200012-3011-k1d1-029 2"/>
							<filter>
								<effect>
									<name>Audio Levels</name>
									<effectid>audiolevels</effectid>
									<effectcategory>audiolevels</effectcategory>
									<effecttype>audiolevels</effecttype>
									<mediatype>audio</mediatype>
									<parameter>
										<name>Level</name>
										<parameterid>level</parameterid>
										<valuemin>0</valuemin>
										<valuemax>3.98109</valuemax>
										<value>1</value>
									</parameter>
								</effect>
							</filter>
							<filter>
								<effect>
									<name>Audio Pan</name>
									<effectid>audiopan</effectid>
									<effectcategory>audiopan</effectcategory>
									<effecttype>audiopan</effecttype>
									<mediatype>audio</mediatype>
									<parameter>
										<name>Pan</name>
										<parameterid>pan</parameterid>
										<valuemin>-1</valuemin>
										<valuemax>1</valuemax>
										<value>0</value>
									</parameter>
								</effect>
							</filter>
							<sourcetrack>
								<mediatype>audio</mediatype>
								<trackindex>8</trackindex>
							</sourcetrack>
							<link>
								<linkclipref>msub200012-3011-k1d1-029 6</linkclipref>
								<mediatype>video</mediatype>
								<trackindex>1</trackindex>
								<clipindex>1</clipindex>
							</link>
							<link>
								<linkclipref>msub200012-3011-k1d1-029 7</linkclipref>
								<mediatype>audio</mediatype>
								<trackindex>1</trackindex>
								<clipindex>1</clipindex>
							</link>
							<link>
								<linkclipref>msub200012-3011-k1d1-029 8</linkclipref>
								<mediatype>audio</mediatype>
								<trackindex>2</trackindex>
								<clipindex>1</clipindex>
							</link>
							<link>
								<linkclipref>msub200012-3011-k1d1-029 9</linkclipref>
								<mediatype>audio</mediatype>
								<trackindex>3</trackindex>
								<clipindex>1</clipindex>
							</link>
							<link>
								<linkclipref>msub200012-3011-k1d1-029 10</linkclipref>
								<mediatype>audio</mediatype>
								<trackindex>4</trackindex>
								<clipindex>1</clipindex>
							</link>
							<link>
								<linkclipref>msub200012-3011-k1d1-029 11</linkclipref>
								<mediatype>audio</mediatype>
								<trackindex>5</trackindex>
								<clipindex>1</clipindex>
							</link>
							<link>
								<linkclipref>msub200012-3011-k1d1-029 12</linkclipref>
								<mediatype>audio</mediatype>
								<trackindex>6</trackindex>
								<clipindex>1</clipindex>
							</link>
							<link>
								<linkclipref>msub200012-3011-k1d1-029 13</linkclipref>
								<mediatype>audio</mediatype>
								<trackindex>7</trackindex>
								<clipindex>1</clipindex>
							</link>
							<link>
								<linkclipref>msub200012-3011-k1d1-029 14</linkclipref>
								<mediatype>audio</mediatype>
								<trackindex>8</trackindex>
								<clipindex>1</clipindex>
							</link>
						</clipitem>
						<enabled>TRUE</enabled>
						<locked>FALSE</locked>
					</track>
				</audio>
			</media>
		</clip>
		<clip id="msub200012-3011-k1d2-002 6">
			<name>msub200012-3011-k1d2-002</name>
			<duration>5918</duration>
			<rate>
				<ntsc>FALSE</ntsc>
				<timebase>25</timebase>
			</rate>
			<in>3653</in>
			<out>-1</out>
			<masterclipid>msub200012-3011-k1d2-002 1</masterclipid>
			<ismasterclip>FALSE</ismasterclip>
			<logginginfo>
				<description>msub200012-3011-k1d2-002</description>
				<scene/>
				<shottake/>
				<lognote/>
				<good>FALSE</good>
			</logginginfo>
			<labels>
				<label>Good Take</label>
				<label2/>
			</labels>
			<comments>
				<mastercomment1>RÃ…STOFF. BR_FINFREDAG_MSUA_OPRO</mastercomment1>
				<mastercomment2/>
				<mastercomment3/>
				<mastercomment4/>
				<clipcommenta/>
			</comments>
			<media>
				<video>
					<track>
						<clipitem id="msub200012-3011-k1d2-002 7">
							<name>msub200012-3011-k1d2-002</name>
							<duration>5918</duration>
							<rate>
								<ntsc>FALSE</ntsc>
								<timebase>25</timebase>
							</rate>
							<in>0</in>
							<out>5918</out>
							<start>0</start>
							<end>5918</end>
							<pixelaspectratio>Square</pixelaspectratio>
							<anamorphic>FALSE</anamorphic>
							<alphatype>none</alphatype>
							<masterclipid>msub200012-3011-k1d2-002 1</masterclipid>
							<syncoffset>0</syncoffset>
							<logginginfo>
								<scene/>
								<shottake/>
								<lognote/>
								<good>FALSE</good>
							</logginginfo>
							<labels>
								<label>Good Take</label>
								<label2/>
							</labels>
							<comments>
								<mastercomment1>RÃ…STOFF. BR_FINFREDAG_MSUA_OPRO</mastercomment1>
								<mastercomment2/>
								<mastercomment3/>
								<mastercomment4/>
								<clipcommenta/>
							</comments>
							<file id="msub200012-3011-k1d2-002 2"/>
							<sourcetrack>
								<mediatype>video</mediatype>
							</sourcetrack>
							<link>
								<linkclipref>msub200012-3011-k1d2-002 7</linkclipref>
								<mediatype>video</mediatype>
								<trackindex>1</trackindex>
								<clipindex>1</clipindex>
							</link>
							<link>
								<linkclipref>msub200012-3011-k1d2-002 8</linkclipref>
								<mediatype>audio</mediatype>
								<trackindex>1</trackindex>
								<clipindex>1</clipindex>
							</link>
							<link>
								<linkclipref>msub200012-3011-k1d2-002 9</linkclipref>
								<mediatype>audio</mediatype>
								<trackindex>2</trackindex>
								<clipindex>1</clipindex>
							</link>
							<link>
								<linkclipref>msub200012-3011-k1d2-002 10</linkclipref>
								<mediatype>audio</mediatype>
								<trackindex>3</trackindex>
								<clipindex>1</clipindex>
							</link>
							<link>
								<linkclipref>msub200012-3011-k1d2-002 11</linkclipref>
								<mediatype>audio</mediatype>
								<trackindex>4</trackindex>
								<clipindex>1</clipindex>
							</link>
							<link>
								<linkclipref>msub200012-3011-k1d2-002 12</linkclipref>
								<mediatype>audio</mediatype>
								<trackindex>5</trackindex>
								<clipindex>1</clipindex>
							</link>
							<link>
								<linkclipref>msub200012-3011-k1d2-002 13</linkclipref>
								<mediatype>audio</mediatype>
								<trackindex>6</trackindex>
								<clipindex>1</clipindex>
							</link>
							<link>
								<linkclipref>msub200012-3011-k1d2-002 14</linkclipref>
								<mediatype>audio</mediatype>
								<trackindex>7</trackindex>
								<clipindex>1</clipindex>
							</link>
							<link>
								<linkclipref>msub200012-3011-k1d2-002 15</linkclipref>
								<mediatype>audio</mediatype>
								<trackindex>8</trackindex>
								<clipindex>1</clipindex>
							</link>
							<fielddominance>upper</fielddominance>
						</clipitem>
						<enabled>TRUE</enabled>
						<locked>FALSE</locked>
					</track>
				</video>
				<audio>
					<in>3653</in>
					<out>-1</out>
					<track>
						<clipitem id="msub200012-3011-k1d2-002 8">
							<name>msub200012-3011-k1d2-002</name>
							<duration>5918</duration>
							<rate>
								<ntsc>FALSE</ntsc>
								<timebase>25</timebase>
							</rate>
							<in>0</in>
							<out>5918</out>
							<start>0</start>
							<end>5918</end>
							<subframeoffset>0</subframeoffset>
							<masterclipid>msub200012-3011-k1d2-002 1</masterclipid>
							<syncoffset>0</syncoffset>
							<logginginfo>
								<scene/>
								<shottake/>
								<lognote/>
								<good>FALSE</good>
							</logginginfo>
							<labels>
								<label>Good Take</label>
								<label2/>
							</labels>
							<comments>
								<mastercomment1>RÃ…STOFF. BR_FINFREDAG_MSUA_OPRO</mastercomment1>
								<mastercomment2/>
								<mastercomment3/>
								<mastercomment4/>
							</comments>
							<file id="msub200012-3011-k1d2-002 2"/>
							<filter>
								<effect>
									<name>Audio Levels</name>
									<effectid>audiolevels</effectid>
									<effectcategory>audiolevels</effectcategory>
									<effecttype>audiolevels</effecttype>
									<mediatype>audio</mediatype>
									<parameter>
										<name>Level</name>
										<parameterid>level</parameterid>
										<valuemin>0</valuemin>
										<valuemax>3.98109</valuemax>
										<value>1</value>
									</parameter>
								</effect>
							</filter>
							<filter>
								<effect>
									<name>Audio Pan</name>
									<effectid>audiopan</effectid>
									<effectcategory>audiopan</effectcategory>
									<effecttype>audiopan</effecttype>
									<mediatype>audio</mediatype>
									<parameter>
										<name>Pan</name>
										<parameterid>pan</parameterid>
										<valuemin>-1</valuemin>
										<valuemax>1</valuemax>
										<value>0</value>
									</parameter>
								</effect>
							</filter>
							<sourcetrack>
								<mediatype>audio</mediatype>
								<trackindex>1</trackindex>
							</sourcetrack>
							<link>
								<linkclipref>msub200012-3011-k1d2-002 7</linkclipref>
								<mediatype>video</mediatype>
								<trackindex>1</trackindex>
								<clipindex>1</clipindex>
							</link>
							<link>
								<linkclipref>msub200012-3011-k1d2-002 8</linkclipref>
								<mediatype>audio</mediatype>
								<trackindex>1</trackindex>
								<clipindex>1</clipindex>
							</link>
							<link>
								<linkclipref>msub200012-3011-k1d2-002 9</linkclipref>
								<mediatype>audio</mediatype>
								<trackindex>2</trackindex>
								<clipindex>1</clipindex>
							</link>
							<link>
								<linkclipref>msub200012-3011-k1d2-002 10</linkclipref>
								<mediatype>audio</mediatype>
								<trackindex>3</trackindex>
								<clipindex>1</clipindex>
							</link>
							<link>
								<linkclipref>msub200012-3011-k1d2-002 11</linkclipref>
								<mediatype>audio</mediatype>
								<trackindex>4</trackindex>
								<clipindex>1</clipindex>
							</link>
							<link>
								<linkclipref>msub200012-3011-k1d2-002 12</linkclipref>
								<mediatype>audio</mediatype>
								<trackindex>5</trackindex>
								<clipindex>1</clipindex>
							</link>
							<link>
								<linkclipref>msub200012-3011-k1d2-002 13</linkclipref>
								<mediatype>audio</mediatype>
								<trackindex>6</trackindex>
								<clipindex>1</clipindex>
							</link>
							<link>
								<linkclipref>msub200012-3011-k1d2-002 14</linkclipref>
								<mediatype>audio</mediatype>
								<trackindex>7</trackindex>
								<clipindex>1</clipindex>
							</link>
							<link>
								<linkclipref>msub200012-3011-k1d2-002 15</linkclipref>
								<mediatype>audio</mediatype>
								<trackindex>8</trackindex>
								<clipindex>1</clipindex>
							</link>
						</clipitem>
						<enabled>TRUE</enabled>
						<locked>FALSE</locked>
					</track>
					<track>
						<clipitem id="msub200012-3011-k1d2-002 9">
							<name>msub200012-3011-k1d2-002</name>
							<duration>5918</duration>
							<rate>
								<ntsc>FALSE</ntsc>
								<timebase>25</timebase>
							</rate>
							<in>0</in>
							<out>5918</out>
							<start>0</start>
							<end>5918</end>
							<subframeoffset>0</subframeoffset>
							<masterclipid>msub200012-3011-k1d2-002 1</masterclipid>
							<syncoffset>0</syncoffset>
							<logginginfo>
								<scene/>
								<shottake/>
								<lognote/>
								<good>FALSE</good>
							</logginginfo>
							<labels>
								<label>Good Take</label>
								<label2/>
							</labels>
							<comments>
								<mastercomment1>RÃ…STOFF. BR_FINFREDAG_MSUA_OPRO</mastercomment1>
								<mastercomment2/>
								<mastercomment3/>
								<mastercomment4/>
							</comments>
							<file id="msub200012-3011-k1d2-002 2"/>
							<filter>
								<effect>
									<name>Audio Levels</name>
									<effectid>audiolevels</effectid>
									<effectcategory>audiolevels</effectcategory>
									<effecttype>audiolevels</effecttype>
									<mediatype>audio</mediatype>
									<parameter>
										<name>Level</name>
										<parameterid>level</parameterid>
										<valuemin>0</valuemin>
										<valuemax>3.98109</valuemax>
										<value>1</value>
									</parameter>
								</effect>
							</filter>
							<filter>
								<effect>
									<name>Audio Pan</name>
									<effectid>audiopan</effectid>
									<effectcategory>audiopan</effectcategory>
									<effecttype>audiopan</effecttype>
									<mediatype>audio</mediatype>
									<parameter>
										<name>Pan</name>
										<parameterid>pan</parameterid>
										<valuemin>-1</valuemin>
										<valuemax>1</valuemax>
										<value>0</value>
									</parameter>
								</effect>
							</filter>
							<sourcetrack>
								<mediatype>audio</mediatype>
								<trackindex>2</trackindex>
							</sourcetrack>
							<link>
								<linkclipref>msub200012-3011-k1d2-002 7</linkclipref>
								<mediatype>video</mediatype>
								<trackindex>1</trackindex>
								<clipindex>1</clipindex>
							</link>
							<link>
								<linkclipref>msub200012-3011-k1d2-002 8</linkclipref>
								<mediatype>audio</mediatype>
								<trackindex>1</trackindex>
								<clipindex>1</clipindex>
							</link>
							<link>
								<linkclipref>msub200012-3011-k1d2-002 9</linkclipref>
								<mediatype>audio</mediatype>
								<trackindex>2</trackindex>
								<clipindex>1</clipindex>
							</link>
							<link>
								<linkclipref>msub200012-3011-k1d2-002 10</linkclipref>
								<mediatype>audio</mediatype>
								<trackindex>3</trackindex>
								<clipindex>1</clipindex>
							</link>
							<link>
								<linkclipref>msub200012-3011-k1d2-002 11</linkclipref>
								<mediatype>audio</mediatype>
								<trackindex>4</trackindex>
								<clipindex>1</clipindex>
							</link>
							<link>
								<linkclipref>msub200012-3011-k1d2-002 12</linkclipref>
								<mediatype>audio</mediatype>
								<trackindex>5</trackindex>
								<clipindex>1</clipindex>
							</link>
							<link>
								<linkclipref>msub200012-3011-k1d2-002 13</linkclipref>
								<mediatype>audio</mediatype>
								<trackindex>6</trackindex>
								<clipindex>1</clipindex>
							</link>
							<link>
								<linkclipref>msub200012-3011-k1d2-002 14</linkclipref>
								<mediatype>audio</mediatype>
								<trackindex>7</trackindex>
								<clipindex>1</clipindex>
							</link>
							<link>
								<linkclipref>msub200012-3011-k1d2-002 15</linkclipref>
								<mediatype>audio</mediatype>
								<trackindex>8</trackindex>
								<clipindex>1</clipindex>
							</link>
						</clipitem>
						<enabled>TRUE</enabled>
						<locked>FALSE</locked>
					</track>
					<track>
						<clipitem id="msub200012-3011-k1d2-002 10">
							<name>msub200012-3011-k1d2-002</name>
							<duration>5918</duration>
							<rate>
								<ntsc>FALSE</ntsc>
								<timebase>25</timebase>
							</rate>
							<in>0</in>
							<out>5918</out>
							<start>0</start>
							<end>5918</end>
							<subframeoffset>0</subframeoffset>
							<masterclipid>msub200012-3011-k1d2-002 1</masterclipid>
							<syncoffset>0</syncoffset>
							<logginginfo>
								<scene/>
								<shottake/>
								<lognote/>
								<good>FALSE</good>
							</logginginfo>
							<labels>
								<label>Good Take</label>
								<label2/>
							</labels>
							<comments>
								<mastercomment1>RÃ…STOFF. BR_FINFREDAG_MSUA_OPRO</mastercomment1>
								<mastercomment2/>
								<mastercomment3/>
								<mastercomment4/>
							</comments>
							<file id="msub200012-3011-k1d2-002 2"/>
							<filter>
								<effect>
									<name>Audio Levels</name>
									<effectid>audiolevels</effectid>
									<effectcategory>audiolevels</effectcategory>
									<effecttype>audiolevels</effecttype>
									<mediatype>audio</mediatype>
									<parameter>
										<name>Level</name>
										<parameterid>level</parameterid>
										<valuemin>0</valuemin>
										<valuemax>3.98109</valuemax>
										<value>1</value>
									</parameter>
								</effect>
							</filter>
							<filter>
								<effect>
									<name>Audio Pan</name>
									<effectid>audiopan</effectid>
									<effectcategory>audiopan</effectcategory>
									<effecttype>audiopan</effecttype>
									<mediatype>audio</mediatype>
									<parameter>
										<name>Pan</name>
										<parameterid>pan</parameterid>
										<valuemin>-1</valuemin>
										<valuemax>1</valuemax>
										<value>0</value>
									</parameter>
								</effect>
							</filter>
							<sourcetrack>
								<mediatype>audio</mediatype>
								<trackindex>3</trackindex>
							</sourcetrack>
							<link>
								<linkclipref>msub200012-3011-k1d2-002 7</linkclipref>
								<mediatype>video</mediatype>
								<trackindex>1</trackindex>
								<clipindex>1</clipindex>
							</link>
							<link>
								<linkclipref>msub200012-3011-k1d2-002 8</linkclipref>
								<mediatype>audio</mediatype>
								<trackindex>1</trackindex>
								<clipindex>1</clipindex>
							</link>
							<link>
								<linkclipref>msub200012-3011-k1d2-002 9</linkclipref>
								<mediatype>audio</mediatype>
								<trackindex>2</trackindex>
								<clipindex>1</clipindex>
							</link>
							<link>
								<linkclipref>msub200012-3011-k1d2-002 10</linkclipref>
								<mediatype>audio</mediatype>
								<trackindex>3</trackindex>
								<clipindex>1</clipindex>
							</link>
							<link>
								<linkclipref>msub200012-3011-k1d2-002 11</linkclipref>
								<mediatype>audio</mediatype>
								<trackindex>4</trackindex>
								<clipindex>1</clipindex>
							</link>
							<link>
								<linkclipref>msub200012-3011-k1d2-002 12</linkclipref>
								<mediatype>audio</mediatype>
								<trackindex>5</trackindex>
								<clipindex>1</clipindex>
							</link>
							<link>
								<linkclipref>msub200012-3011-k1d2-002 13</linkclipref>
								<mediatype>audio</mediatype>
								<trackindex>6</trackindex>
								<clipindex>1</clipindex>
							</link>
							<link>
								<linkclipref>msub200012-3011-k1d2-002 14</linkclipref>
								<mediatype>audio</mediatype>
								<trackindex>7</trackindex>
								<clipindex>1</clipindex>
							</link>
							<link>
								<linkclipref>msub200012-3011-k1d2-002 15</linkclipref>
								<mediatype>audio</mediatype>
								<trackindex>8</trackindex>
								<clipindex>1</clipindex>
							</link>
						</clipitem>
						<enabled>TRUE</enabled>
						<locked>FALSE</locked>
					</track>
					<track>
						<clipitem id="msub200012-3011-k1d2-002 11">
							<name>msub200012-3011-k1d2-002</name>
							<duration>5918</duration>
							<rate>
								<ntsc>FALSE</ntsc>
								<timebase>25</timebase>
							</rate>
							<in>0</in>
							<out>5918</out>
							<start>0</start>
							<end>5918</end>
							<subframeoffset>0</subframeoffset>
							<masterclipid>msub200012-3011-k1d2-002 1</masterclipid>
							<syncoffset>0</syncoffset>
							<logginginfo>
								<scene/>
								<shottake/>
								<lognote/>
								<good>FALSE</good>
							</logginginfo>
							<labels>
								<label>Good Take</label>
								<label2/>
							</labels>
							<comments>
								<mastercomment1>RÃ…STOFF. BR_FINFREDAG_MSUA_OPRO</mastercomment1>
								<mastercomment2/>
								<mastercomment3/>
								<mastercomment4/>
							</comments>
							<file id="msub200012-3011-k1d2-002 2"/>
							<filter>
								<effect>
									<name>Audio Levels</name>
									<effectid>audiolevels</effectid>
									<effectcategory>audiolevels</effectcategory>
									<effecttype>audiolevels</effecttype>
									<mediatype>audio</mediatype>
									<parameter>
										<name>Level</name>
										<parameterid>level</parameterid>
										<valuemin>0</valuemin>
										<valuemax>3.98109</valuemax>
										<value>1</value>
									</parameter>
								</effect>
							</filter>
							<filter>
								<effect>
									<name>Audio Pan</name>
									<effectid>audiopan</effectid>
									<effectcategory>audiopan</effectcategory>
									<effecttype>audiopan</effecttype>
									<mediatype>audio</mediatype>
									<parameter>
										<name>Pan</name>
										<parameterid>pan</parameterid>
										<valuemin>-1</valuemin>
										<valuemax>1</valuemax>
										<value>0</value>
									</parameter>
								</effect>
							</filter>
							<sourcetrack>
								<mediatype>audio</mediatype>
								<trackindex>4</trackindex>
							</sourcetrack>
							<link>
								<linkclipref>msub200012-3011-k1d2-002 7</linkclipref>
								<mediatype>video</mediatype>
								<trackindex>1</trackindex>
								<clipindex>1</clipindex>
							</link>
							<link>
								<linkclipref>msub200012-3011-k1d2-002 8</linkclipref>
								<mediatype>audio</mediatype>
								<trackindex>1</trackindex>
								<clipindex>1</clipindex>
							</link>
							<link>
								<linkclipref>msub200012-3011-k1d2-002 9</linkclipref>
								<mediatype>audio</mediatype>
								<trackindex>2</trackindex>
								<clipindex>1</clipindex>
							</link>
							<link>
								<linkclipref>msub200012-3011-k1d2-002 10</linkclipref>
								<mediatype>audio</mediatype>
								<trackindex>3</trackindex>
								<clipindex>1</clipindex>
							</link>
							<link>
								<linkclipref>msub200012-3011-k1d2-002 11</linkclipref>
								<mediatype>audio</mediatype>
								<trackindex>4</trackindex>
								<clipindex>1</clipindex>
							</link>
							<link>
								<linkclipref>msub200012-3011-k1d2-002 12</linkclipref>
								<mediatype>audio</mediatype>
								<trackindex>5</trackindex>
								<clipindex>1</clipindex>
							</link>
							<link>
								<linkclipref>msub200012-3011-k1d2-002 13</linkclipref>
								<mediatype>audio</mediatype>
								<trackindex>6</trackindex>
								<clipindex>1</clipindex>
							</link>
							<link>
								<linkclipref>msub200012-3011-k1d2-002 14</linkclipref>
								<mediatype>audio</mediatype>
								<trackindex>7</trackindex>
								<clipindex>1</clipindex>
							</link>
							<link>
								<linkclipref>msub200012-3011-k1d2-002 15</linkclipref>
								<mediatype>audio</mediatype>
								<trackindex>8</trackindex>
								<clipindex>1</clipindex>
							</link>
						</clipitem>
						<enabled>TRUE</enabled>
						<locked>FALSE</locked>
					</track>
					<track>
						<clipitem id="msub200012-3011-k1d2-002 12">
							<name>msub200012-3011-k1d2-002</name>
							<duration>5918</duration>
							<rate>
								<ntsc>FALSE</ntsc>
								<timebase>25</timebase>
							</rate>
							<in>0</in>
							<out>5918</out>
							<start>0</start>
							<end>5918</end>
							<subframeoffset>0</subframeoffset>
							<masterclipid>msub200012-3011-k1d2-002 1</masterclipid>
							<syncoffset>0</syncoffset>
							<logginginfo>
								<scene/>
								<shottake/>
								<lognote/>
								<good>FALSE</good>
							</logginginfo>
							<labels>
								<label>Good Take</label>
								<label2/>
							</labels>
							<comments>
								<mastercomment1>RÃ…STOFF. BR_FINFREDAG_MSUA_OPRO</mastercomment1>
								<mastercomment2/>
								<mastercomment3/>
								<mastercomment4/>
							</comments>
							<file id="msub200012-3011-k1d2-002 2"/>
							<filter>
								<effect>
									<name>Audio Levels</name>
									<effectid>audiolevels</effectid>
									<effectcategory>audiolevels</effectcategory>
									<effecttype>audiolevels</effecttype>
									<mediatype>audio</mediatype>
									<parameter>
										<name>Level</name>
										<parameterid>level</parameterid>
										<valuemin>0</valuemin>
										<valuemax>3.98109</valuemax>
										<value>1</value>
									</parameter>
								</effect>
							</filter>
							<filter>
								<effect>
									<name>Audio Pan</name>
									<effectid>audiopan</effectid>
									<effectcategory>audiopan</effectcategory>
									<effecttype>audiopan</effecttype>
									<mediatype>audio</mediatype>
									<parameter>
										<name>Pan</name>
										<parameterid>pan</parameterid>
										<valuemin>-1</valuemin>
										<valuemax>1</valuemax>
										<value>0</value>
									</parameter>
								</effect>
							</filter>
							<sourcetrack>
								<mediatype>audio</mediatype>
								<trackindex>5</trackindex>
							</sourcetrack>
							<link>
								<linkclipref>msub200012-3011-k1d2-002 7</linkclipref>
								<mediatype>video</mediatype>
								<trackindex>1</trackindex>
								<clipindex>1</clipindex>
							</link>
							<link>
								<linkclipref>msub200012-3011-k1d2-002 8</linkclipref>
								<mediatype>audio</mediatype>
								<trackindex>1</trackindex>
								<clipindex>1</clipindex>
							</link>
							<link>
								<linkclipref>msub200012-3011-k1d2-002 9</linkclipref>
								<mediatype>audio</mediatype>
								<trackindex>2</trackindex>
								<clipindex>1</clipindex>
							</link>
							<link>
								<linkclipref>msub200012-3011-k1d2-002 10</linkclipref>
								<mediatype>audio</mediatype>
								<trackindex>3</trackindex>
								<clipindex>1</clipindex>
							</link>
							<link>
								<linkclipref>msub200012-3011-k1d2-002 11</linkclipref>
								<mediatype>audio</mediatype>
								<trackindex>4</trackindex>
								<clipindex>1</clipindex>
							</link>
							<link>
								<linkclipref>msub200012-3011-k1d2-002 12</linkclipref>
								<mediatype>audio</mediatype>
								<trackindex>5</trackindex>
								<clipindex>1</clipindex>
							</link>
							<link>
								<linkclipref>msub200012-3011-k1d2-002 13</linkclipref>
								<mediatype>audio</mediatype>
								<trackindex>6</trackindex>
								<clipindex>1</clipindex>
							</link>
							<link>
								<linkclipref>msub200012-3011-k1d2-002 14</linkclipref>
								<mediatype>audio</mediatype>
								<trackindex>7</trackindex>
								<clipindex>1</clipindex>
							</link>
							<link>
								<linkclipref>msub200012-3011-k1d2-002 15</linkclipref>
								<mediatype>audio</mediatype>
								<trackindex>8</trackindex>
								<clipindex>1</clipindex>
							</link>
						</clipitem>
						<enabled>TRUE</enabled>
						<locked>FALSE</locked>
					</track>
					<track>
						<clipitem id="msub200012-3011-k1d2-002 13">
							<name>msub200012-3011-k1d2-002</name>
							<duration>5918</duration>
							<rate>
								<ntsc>FALSE</ntsc>
								<timebase>25</timebase>
							</rate>
							<in>0</in>
							<out>5918</out>
							<start>0</start>
							<end>5918</end>
							<subframeoffset>0</subframeoffset>
							<masterclipid>msub200012-3011-k1d2-002 1</masterclipid>
							<syncoffset>0</syncoffset>
							<logginginfo>
								<scene/>
								<shottake/>
								<lognote/>
								<good>FALSE</good>
							</logginginfo>
							<labels>
								<label>Good Take</label>
								<label2/>
							</labels>
							<comments>
								<mastercomment1>RÃ…STOFF. BR_FINFREDAG_MSUA_OPRO</mastercomment1>
								<mastercomment2/>
								<mastercomment3/>
								<mastercomment4/>
							</comments>
							<file id="msub200012-3011-k1d2-002 2"/>
							<filter>
								<effect>
									<name>Audio Levels</name>
									<effectid>audiolevels</effectid>
									<effectcategory>audiolevels</effectcategory>
									<effecttype>audiolevels</effecttype>
									<mediatype>audio</mediatype>
									<parameter>
										<name>Level</name>
										<parameterid>level</parameterid>
										<valuemin>0</valuemin>
										<valuemax>3.98109</valuemax>
										<value>1</value>
									</parameter>
								</effect>
							</filter>
							<filter>
								<effect>
									<name>Audio Pan</name>
									<effectid>audiopan</effectid>
									<effectcategory>audiopan</effectcategory>
									<effecttype>audiopan</effecttype>
									<mediatype>audio</mediatype>
									<parameter>
										<name>Pan</name>
										<parameterid>pan</parameterid>
										<valuemin>-1</valuemin>
										<valuemax>1</valuemax>
										<value>0</value>
									</parameter>
								</effect>
							</filter>
							<sourcetrack>
								<mediatype>audio</mediatype>
								<trackindex>6</trackindex>
							</sourcetrack>
							<link>
								<linkclipref>msub200012-3011-k1d2-002 7</linkclipref>
								<mediatype>video</mediatype>
								<trackindex>1</trackindex>
								<clipindex>1</clipindex>
							</link>
							<link>
								<linkclipref>msub200012-3011-k1d2-002 8</linkclipref>
								<mediatype>audio</mediatype>
								<trackindex>1</trackindex>
								<clipindex>1</clipindex>
							</link>
							<link>
								<linkclipref>msub200012-3011-k1d2-002 9</linkclipref>
								<mediatype>audio</mediatype>
								<trackindex>2</trackindex>
								<clipindex>1</clipindex>
							</link>
							<link>
								<linkclipref>msub200012-3011-k1d2-002 10</linkclipref>
								<mediatype>audio</mediatype>
								<trackindex>3</trackindex>
								<clipindex>1</clipindex>
							</link>
							<link>
								<linkclipref>msub200012-3011-k1d2-002 11</linkclipref>
								<mediatype>audio</mediatype>
								<trackindex>4</trackindex>
								<clipindex>1</clipindex>
							</link>
							<link>
								<linkclipref>msub200012-3011-k1d2-002 12</linkclipref>
								<mediatype>audio</mediatype>
								<trackindex>5</trackindex>
								<clipindex>1</clipindex>
							</link>
							<link>
								<linkclipref>msub200012-3011-k1d2-002 13</linkclipref>
								<mediatype>audio</mediatype>
								<trackindex>6</trackindex>
								<clipindex>1</clipindex>
							</link>
							<link>
								<linkclipref>msub200012-3011-k1d2-002 14</linkclipref>
								<mediatype>audio</mediatype>
								<trackindex>7</trackindex>
								<clipindex>1</clipindex>
							</link>
							<link>
								<linkclipref>msub200012-3011-k1d2-002 15</linkclipref>
								<mediatype>audio</mediatype>
								<trackindex>8</trackindex>
								<clipindex>1</clipindex>
							</link>
						</clipitem>
						<enabled>TRUE</enabled>
						<locked>FALSE</locked>
					</track>
					<track>
						<clipitem id="msub200012-3011-k1d2-002 14">
							<name>msub200012-3011-k1d2-002</name>
							<duration>5918</duration>
							<rate>
								<ntsc>FALSE</ntsc>
								<timebase>25</timebase>
							</rate>
							<in>0</in>
							<out>5918</out>
							<start>0</start>
							<end>5918</end>
							<subframeoffset>0</subframeoffset>
							<masterclipid>msub200012-3011-k1d2-002 1</masterclipid>
							<syncoffset>0</syncoffset>
							<logginginfo>
								<scene/>
								<shottake/>
								<lognote/>
								<good>FALSE</good>
							</logginginfo>
							<labels>
								<label>Good Take</label>
								<label2/>
							</labels>
							<comments>
								<mastercomment1>RÃ…STOFF. BR_FINFREDAG_MSUA_OPRO</mastercomment1>
								<mastercomment2/>
								<mastercomment3/>
								<mastercomment4/>
							</comments>
							<file id="msub200012-3011-k1d2-002 2"/>
							<filter>
								<effect>
									<name>Audio Levels</name>
									<effectid>audiolevels</effectid>
									<effectcategory>audiolevels</effectcategory>
									<effecttype>audiolevels</effecttype>
									<mediatype>audio</mediatype>
									<parameter>
										<name>Level</name>
										<parameterid>level</parameterid>
										<valuemin>0</valuemin>
										<valuemax>3.98109</valuemax>
										<value>1</value>
									</parameter>
								</effect>
							</filter>
							<filter>
								<effect>
									<name>Audio Pan</name>
									<effectid>audiopan</effectid>
									<effectcategory>audiopan</effectcategory>
									<effecttype>audiopan</effecttype>
									<mediatype>audio</mediatype>
									<parameter>
										<name>Pan</name>
										<parameterid>pan</parameterid>
										<valuemin>-1</valuemin>
										<valuemax>1</valuemax>
										<value>0</value>
									</parameter>
								</effect>
							</filter>
							<sourcetrack>
								<mediatype>audio</mediatype>
								<trackindex>7</trackindex>
							</sourcetrack>
							<link>
								<linkclipref>msub200012-3011-k1d2-002 7</linkclipref>
								<mediatype>video</mediatype>
								<trackindex>1</trackindex>
								<clipindex>1</clipindex>
							</link>
							<link>
								<linkclipref>msub200012-3011-k1d2-002 8</linkclipref>
								<mediatype>audio</mediatype>
								<trackindex>1</trackindex>
								<clipindex>1</clipindex>
							</link>
							<link>
								<linkclipref>msub200012-3011-k1d2-002 9</linkclipref>
								<mediatype>audio</mediatype>
								<trackindex>2</trackindex>
								<clipindex>1</clipindex>
							</link>
							<link>
								<linkclipref>msub200012-3011-k1d2-002 10</linkclipref>
								<mediatype>audio</mediatype>
								<trackindex>3</trackindex>
								<clipindex>1</clipindex>
							</link>
							<link>
								<linkclipref>msub200012-3011-k1d2-002 11</linkclipref>
								<mediatype>audio</mediatype>
								<trackindex>4</trackindex>
								<clipindex>1</clipindex>
							</link>
							<link>
								<linkclipref>msub200012-3011-k1d2-002 12</linkclipref>
								<mediatype>audio</mediatype>
								<trackindex>5</trackindex>
								<clipindex>1</clipindex>
							</link>
							<link>
								<linkclipref>msub200012-3011-k1d2-002 13</linkclipref>
								<mediatype>audio</mediatype>
								<trackindex>6</trackindex>
								<clipindex>1</clipindex>
							</link>
							<link>
								<linkclipref>msub200012-3011-k1d2-002 14</linkclipref>
								<mediatype>audio</mediatype>
								<trackindex>7</trackindex>
								<clipindex>1</clipindex>
							</link>
							<link>
								<linkclipref>msub200012-3011-k1d2-002 15</linkclipref>
								<mediatype>audio</mediatype>
								<trackindex>8</trackindex>
								<clipindex>1</clipindex>
							</link>
						</clipitem>
						<enabled>TRUE</enabled>
						<locked>FALSE</locked>
					</track>
					<track>
						<clipitem id="msub200012-3011-k1d2-002 15">
							<name>msub200012-3011-k1d2-002</name>
							<duration>5918</duration>
							<rate>
								<ntsc>FALSE</ntsc>
								<timebase>25</timebase>
							</rate>
							<in>0</in>
							<out>5918</out>
							<start>0</start>
							<end>5918</end>
							<subframeoffset>0</subframeoffset>
							<masterclipid>msub200012-3011-k1d2-002 1</masterclipid>
							<syncoffset>0</syncoffset>
							<logginginfo>
								<scene/>
								<shottake/>
								<lognote/>
								<good>FALSE</good>
							</logginginfo>
							<labels>
								<label>Good Take</label>
								<label2/>
							</labels>
							<comments>
								<mastercomment1>RÃ…STOFF. BR_FINFREDAG_MSUA_OPRO</mastercomment1>
								<mastercomment2/>
								<mastercomment3/>
								<mastercomment4/>
							</comments>
							<file id="msub200012-3011-k1d2-002 2"/>
							<filter>
								<effect>
									<name>Audio Levels</name>
									<effectid>audiolevels</effectid>
									<effectcategory>audiolevels</effectcategory>
									<effecttype>audiolevels</effecttype>
									<mediatype>audio</mediatype>
									<parameter>
										<name>Level</name>
										<parameterid>level</parameterid>
										<valuemin>0</valuemin>
										<valuemax>3.98109</valuemax>
										<value>1</value>
									</parameter>
								</effect>
							</filter>
							<filter>
								<effect>
									<name>Audio Pan</name>
									<effectid>audiopan</effectid>
									<effectcategory>audiopan</effectcategory>
									<effecttype>audiopan</effecttype>
									<mediatype>audio</mediatype>
									<parameter>
										<name>Pan</name>
										<parameterid>pan</parameterid>
										<valuemin>-1</valuemin>
										<valuemax>1</valuemax>
										<value>0</value>
									</parameter>
								</effect>
							</filter>
							<sourcetrack>
								<mediatype>audio</mediatype>
								<trackindex>8</trackindex>
							</sourcetrack>
							<link>
								<linkclipref>msub200012-3011-k1d2-002 7</linkclipref>
								<mediatype>video</mediatype>
								<trackindex>1</trackindex>
								<clipindex>1</clipindex>
							</link>
							<link>
								<linkclipref>msub200012-3011-k1d2-002 8</linkclipref>
								<mediatype>audio</mediatype>
								<trackindex>1</trackindex>
								<clipindex>1</clipindex>
							</link>
							<link>
								<linkclipref>msub200012-3011-k1d2-002 9</linkclipref>
								<mediatype>audio</mediatype>
								<trackindex>2</trackindex>
								<clipindex>1</clipindex>
							</link>
							<link>
								<linkclipref>msub200012-3011-k1d2-002 10</linkclipref>
								<mediatype>audio</mediatype>
								<trackindex>3</trackindex>
								<clipindex>1</clipindex>
							</link>
							<link>
								<linkclipref>msub200012-3011-k1d2-002 11</linkclipref>
								<mediatype>audio</mediatype>
								<trackindex>4</trackindex>
								<clipindex>1</clipindex>
							</link>
							<link>
								<linkclipref>msub200012-3011-k1d2-002 12</linkclipref>
								<mediatype>audio</mediatype>
								<trackindex>5</trackindex>
								<clipindex>1</clipindex>
							</link>
							<link>
								<linkclipref>msub200012-3011-k1d2-002 13</linkclipref>
								<mediatype>audio</mediatype>
								<trackindex>6</trackindex>
								<clipindex>1</clipindex>
							</link>
							<link>
								<linkclipref>msub200012-3011-k1d2-002 14</linkclipref>
								<mediatype>audio</mediatype>
								<trackindex>7</trackindex>
								<clipindex>1</clipindex>
							</link>
							<link>
								<linkclipref>msub200012-3011-k1d2-002 15</linkclipref>
								<mediatype>audio</mediatype>
								<trackindex>8</trackindex>
								<clipindex>1</clipindex>
							</link>
						</clipitem>
						<enabled>TRUE</enabled>
						<locked>FALSE</locked>
					</track>
				</audio>
			</media>
		</clip>
		<clip id="msub200012-3011-k1d2-003 9">
			<name>msub200012-3011-k1d2-003</name>
			<duration>16188</duration>
			<rate>
				<ntsc>FALSE</ntsc>
				<timebase>25</timebase>
			</rate>
			<in>14498</in>
			<out>15566</out>
			<masterclipid>msub200012-3011-k1d2-003 1</masterclipid>
			<ismasterclip>FALSE</ismasterclip>
			<logginginfo>
				<description>msub200012-3011-k1d2-003</description>
				<scene/>
				<shottake/>
				<lognote/>
				<good>FALSE</good>
			</logginginfo>
			<labels>
				<label>Best Take</label>
				<label2/>
			</labels>
			<comments>
				<mastercomment1>RÃ…STOFF. BR_FINFREDAG_MSUA_OPRO</mastercomment1>
				<mastercomment2/>
				<mastercomment3/>
				<mastercomment4/>
				<clipcommenta/>
			</comments>
			<media>
				<video>
					<track>
						<clipitem id="msub200012-3011-k1d2-003 10">
							<name>msub200012-3011-k1d2-003</name>
							<duration>16188</duration>
							<rate>
								<ntsc>FALSE</ntsc>
								<timebase>25</timebase>
							</rate>
							<in>0</in>
							<out>16188</out>
							<start>0</start>
							<end>16188</end>
							<pixelaspectratio>Square</pixelaspectratio>
							<anamorphic>FALSE</anamorphic>
							<alphatype>none</alphatype>
							<masterclipid>msub200012-3011-k1d2-003 1</masterclipid>
							<syncoffset>0</syncoffset>
							<logginginfo>
								<scene/>
								<shottake/>
								<lognote/>
								<good>FALSE</good>
							</logginginfo>
							<labels>
								<label>Best Take</label>
								<label2/>
							</labels>
							<comments>
								<mastercomment1>RÃ…STOFF. BR_FINFREDAG_MSUA_OPRO</mastercomment1>
								<mastercomment2/>
								<mastercomment3/>
								<mastercomment4/>
								<clipcommenta/>
							</comments>
							<file id="msub200012-3011-k1d2-003 2"/>
							<sourcetrack>
								<mediatype>video</mediatype>
							</sourcetrack>
							<link>
								<linkclipref>msub200012-3011-k1d2-003 10</linkclipref>
								<mediatype>video</mediatype>
								<trackindex>1</trackindex>
								<clipindex>1</clipindex>
							</link>
							<link>
								<linkclipref>msub200012-3011-k1d2-003 11</linkclipref>
								<mediatype>audio</mediatype>
								<trackindex>1</trackindex>
								<clipindex>1</clipindex>
							</link>
							<link>
								<linkclipref>msub200012-3011-k1d2-003 12</linkclipref>
								<mediatype>audio</mediatype>
								<trackindex>2</trackindex>
								<clipindex>1</clipindex>
							</link>
							<link>
								<linkclipref>msub200012-3011-k1d2-003 13</linkclipref>
								<mediatype>audio</mediatype>
								<trackindex>3</trackindex>
								<clipindex>1</clipindex>
							</link>
							<link>
								<linkclipref>msub200012-3011-k1d2-003 14</linkclipref>
								<mediatype>audio</mediatype>
								<trackindex>4</trackindex>
								<clipindex>1</clipindex>
							</link>
							<link>
								<linkclipref>msub200012-3011-k1d2-003 15</linkclipref>
								<mediatype>audio</mediatype>
								<trackindex>5</trackindex>
								<clipindex>1</clipindex>
							</link>
							<link>
								<linkclipref>msub200012-3011-k1d2-003 16</linkclipref>
								<mediatype>audio</mediatype>
								<trackindex>6</trackindex>
								<clipindex>1</clipindex>
							</link>
							<link>
								<linkclipref>msub200012-3011-k1d2-003 17</linkclipref>
								<mediatype>audio</mediatype>
								<trackindex>7</trackindex>
								<clipindex>1</clipindex>
							</link>
							<link>
								<linkclipref>msub200012-3011-k1d2-003 18</linkclipref>
								<mediatype>audio</mediatype>
								<trackindex>8</trackindex>
								<clipindex>1</clipindex>
							</link>
							<fielddominance>upper</fielddominance>
						</clipitem>
						<enabled>TRUE</enabled>
						<locked>FALSE</locked>
					</track>
				</video>
				<audio>
					<in>14498</in>
					<out>15566</out>
					<track>
						<clipitem id="msub200012-3011-k1d2-003 11">
							<name>msub200012-3011-k1d2-003</name>
							<duration>16188</duration>
							<rate>
								<ntsc>FALSE</ntsc>
								<timebase>25</timebase>
							</rate>
							<in>0</in>
							<out>16188</out>
							<start>0</start>
							<end>16188</end>
							<subframeoffset>0</subframeoffset>
							<masterclipid>msub200012-3011-k1d2-003 1</masterclipid>
							<syncoffset>0</syncoffset>
							<logginginfo>
								<scene/>
								<shottake/>
								<lognote/>
								<good>FALSE</good>
							</logginginfo>
							<labels>
								<label>Best Take</label>
								<label2/>
							</labels>
							<comments>
								<mastercomment1>RÃ…STOFF. BR_FINFREDAG_MSUA_OPRO</mastercomment1>
								<mastercomment2/>
								<mastercomment3/>
								<mastercomment4/>
							</comments>
							<file id="msub200012-3011-k1d2-003 2"/>
							<filter>
								<effect>
									<name>Audio Levels</name>
									<effectid>audiolevels</effectid>
									<effectcategory>audiolevels</effectcategory>
									<effecttype>audiolevels</effecttype>
									<mediatype>audio</mediatype>
									<parameter>
										<name>Level</name>
										<parameterid>level</parameterid>
										<valuemin>0</valuemin>
										<valuemax>3.98109</valuemax>
										<value>1</value>
									</parameter>
								</effect>
							</filter>
							<filter>
								<effect>
									<name>Audio Pan</name>
									<effectid>audiopan</effectid>
									<effectcategory>audiopan</effectcategory>
									<effecttype>audiopan</effecttype>
									<mediatype>audio</mediatype>
									<parameter>
										<name>Pan</name>
										<parameterid>pan</parameterid>
										<valuemin>-1</valuemin>
										<valuemax>1</valuemax>
										<value>0</value>
									</parameter>
								</effect>
							</filter>
							<sourcetrack>
								<mediatype>audio</mediatype>
								<trackindex>1</trackindex>
							</sourcetrack>
							<link>
								<linkclipref>msub200012-3011-k1d2-003 10</linkclipref>
								<mediatype>video</mediatype>
								<trackindex>1</trackindex>
								<clipindex>1</clipindex>
							</link>
							<link>
								<linkclipref>msub200012-3011-k1d2-003 11</linkclipref>
								<mediatype>audio</mediatype>
								<trackindex>1</trackindex>
								<clipindex>1</clipindex>
							</link>
							<link>
								<linkclipref>msub200012-3011-k1d2-003 12</linkclipref>
								<mediatype>audio</mediatype>
								<trackindex>2</trackindex>
								<clipindex>1</clipindex>
							</link>
							<link>
								<linkclipref>msub200012-3011-k1d2-003 13</linkclipref>
								<mediatype>audio</mediatype>
								<trackindex>3</trackindex>
								<clipindex>1</clipindex>
							</link>
							<link>
								<linkclipref>msub200012-3011-k1d2-003 14</linkclipref>
								<mediatype>audio</mediatype>
								<trackindex>4</trackindex>
								<clipindex>1</clipindex>
							</link>
							<link>
								<linkclipref>msub200012-3011-k1d2-003 15</linkclipref>
								<mediatype>audio</mediatype>
								<trackindex>5</trackindex>
								<clipindex>1</clipindex>
							</link>
							<link>
								<linkclipref>msub200012-3011-k1d2-003 16</linkclipref>
								<mediatype>audio</mediatype>
								<trackindex>6</trackindex>
								<clipindex>1</clipindex>
							</link>
							<link>
								<linkclipref>msub200012-3011-k1d2-003 17</linkclipref>
								<mediatype>audio</mediatype>
								<trackindex>7</trackindex>
								<clipindex>1</clipindex>
							</link>
							<link>
								<linkclipref>msub200012-3011-k1d2-003 18</linkclipref>
								<mediatype>audio</mediatype>
								<trackindex>8</trackindex>
								<clipindex>1</clipindex>
							</link>
						</clipitem>
						<enabled>TRUE</enabled>
						<locked>FALSE</locked>
					</track>
					<track>
						<clipitem id="msub200012-3011-k1d2-003 12">
							<name>msub200012-3011-k1d2-003</name>
							<duration>16188</duration>
							<rate>
								<ntsc>FALSE</ntsc>
								<timebase>25</timebase>
							</rate>
							<in>0</in>
							<out>16188</out>
							<start>0</start>
							<end>16188</end>
							<subframeoffset>0</subframeoffset>
							<masterclipid>msub200012-3011-k1d2-003 1</masterclipid>
							<syncoffset>0</syncoffset>
							<logginginfo>
								<scene/>
								<shottake/>
								<lognote/>
								<good>FALSE</good>
							</logginginfo>
							<labels>
								<label>Best Take</label>
								<label2/>
							</labels>
							<comments>
								<mastercomment1>RÃ…STOFF. BR_FINFREDAG_MSUA_OPRO</mastercomment1>
								<mastercomment2/>
								<mastercomment3/>
								<mastercomment4/>
							</comments>
							<file id="msub200012-3011-k1d2-003 2"/>
							<filter>
								<effect>
									<name>Audio Levels</name>
									<effectid>audiolevels</effectid>
									<effectcategory>audiolevels</effectcategory>
									<effecttype>audiolevels</effecttype>
									<mediatype>audio</mediatype>
									<parameter>
										<name>Level</name>
										<parameterid>level</parameterid>
										<valuemin>0</valuemin>
										<valuemax>3.98109</valuemax>
										<value>1</value>
									</parameter>
								</effect>
							</filter>
							<filter>
								<effect>
									<name>Audio Pan</name>
									<effectid>audiopan</effectid>
									<effectcategory>audiopan</effectcategory>
									<effecttype>audiopan</effecttype>
									<mediatype>audio</mediatype>
									<parameter>
										<name>Pan</name>
										<parameterid>pan</parameterid>
										<valuemin>-1</valuemin>
										<valuemax>1</valuemax>
										<value>0</value>
									</parameter>
								</effect>
							</filter>
							<sourcetrack>
								<mediatype>audio</mediatype>
								<trackindex>2</trackindex>
							</sourcetrack>
							<link>
								<linkclipref>msub200012-3011-k1d2-003 10</linkclipref>
								<mediatype>video</mediatype>
								<trackindex>1</trackindex>
								<clipindex>1</clipindex>
							</link>
							<link>
								<linkclipref>msub200012-3011-k1d2-003 11</linkclipref>
								<mediatype>audio</mediatype>
								<trackindex>1</trackindex>
								<clipindex>1</clipindex>
							</link>
							<link>
								<linkclipref>msub200012-3011-k1d2-003 12</linkclipref>
								<mediatype>audio</mediatype>
								<trackindex>2</trackindex>
								<clipindex>1</clipindex>
							</link>
							<link>
								<linkclipref>msub200012-3011-k1d2-003 13</linkclipref>
								<mediatype>audio</mediatype>
								<trackindex>3</trackindex>
								<clipindex>1</clipindex>
							</link>
							<link>
								<linkclipref>msub200012-3011-k1d2-003 14</linkclipref>
								<mediatype>audio</mediatype>
								<trackindex>4</trackindex>
								<clipindex>1</clipindex>
							</link>
							<link>
								<linkclipref>msub200012-3011-k1d2-003 15</linkclipref>
								<mediatype>audio</mediatype>
								<trackindex>5</trackindex>
								<clipindex>1</clipindex>
							</link>
							<link>
								<linkclipref>msub200012-3011-k1d2-003 16</linkclipref>
								<mediatype>audio</mediatype>
								<trackindex>6</trackindex>
								<clipindex>1</clipindex>
							</link>
							<link>
								<linkclipref>msub200012-3011-k1d2-003 17</linkclipref>
								<mediatype>audio</mediatype>
								<trackindex>7</trackindex>
								<clipindex>1</clipindex>
							</link>
							<link>
								<linkclipref>msub200012-3011-k1d2-003 18</linkclipref>
								<mediatype>audio</mediatype>
								<trackindex>8</trackindex>
								<clipindex>1</clipindex>
							</link>
						</clipitem>
						<enabled>TRUE</enabled>
						<locked>FALSE</locked>
					</track>
					<track>
						<clipitem id="msub200012-3011-k1d2-003 13">
							<name>msub200012-3011-k1d2-003</name>
							<duration>16188</duration>
							<rate>
								<ntsc>FALSE</ntsc>
								<timebase>25</timebase>
							</rate>
							<in>0</in>
							<out>16188</out>
							<start>0</start>
							<end>16188</end>
							<subframeoffset>0</subframeoffset>
							<masterclipid>msub200012-3011-k1d2-003 1</masterclipid>
							<syncoffset>0</syncoffset>
							<logginginfo>
								<scene/>
								<shottake/>
								<lognote/>
								<good>FALSE</good>
							</logginginfo>
							<labels>
								<label>Best Take</label>
								<label2/>
							</labels>
							<comments>
								<mastercomment1>RÃ…STOFF. BR_FINFREDAG_MSUA_OPRO</mastercomment1>
								<mastercomment2/>
								<mastercomment3/>
								<mastercomment4/>
							</comments>
							<file id="msub200012-3011-k1d2-003 2"/>
							<filter>
								<effect>
									<name>Audio Levels</name>
									<effectid>audiolevels</effectid>
									<effectcategory>audiolevels</effectcategory>
									<effecttype>audiolevels</effecttype>
									<mediatype>audio</mediatype>
									<parameter>
										<name>Level</name>
										<parameterid>level</parameterid>
										<valuemin>0</valuemin>
										<valuemax>3.98109</valuemax>
										<value>1</value>
									</parameter>
								</effect>
							</filter>
							<filter>
								<effect>
									<name>Audio Pan</name>
									<effectid>audiopan</effectid>
									<effectcategory>audiopan</effectcategory>
									<effecttype>audiopan</effecttype>
									<mediatype>audio</mediatype>
									<parameter>
										<name>Pan</name>
										<parameterid>pan</parameterid>
										<valuemin>-1</valuemin>
										<valuemax>1</valuemax>
										<value>0</value>
									</parameter>
								</effect>
							</filter>
							<sourcetrack>
								<mediatype>audio</mediatype>
								<trackindex>3</trackindex>
							</sourcetrack>
							<link>
								<linkclipref>msub200012-3011-k1d2-003 10</linkclipref>
								<mediatype>video</mediatype>
								<trackindex>1</trackindex>
								<clipindex>1</clipindex>
							</link>
							<link>
								<linkclipref>msub200012-3011-k1d2-003 11</linkclipref>
								<mediatype>audio</mediatype>
								<trackindex>1</trackindex>
								<clipindex>1</clipindex>
							</link>
							<link>
								<linkclipref>msub200012-3011-k1d2-003 12</linkclipref>
								<mediatype>audio</mediatype>
								<trackindex>2</trackindex>
								<clipindex>1</clipindex>
							</link>
							<link>
								<linkclipref>msub200012-3011-k1d2-003 13</linkclipref>
								<mediatype>audio</mediatype>
								<trackindex>3</trackindex>
								<clipindex>1</clipindex>
							</link>
							<link>
								<linkclipref>msub200012-3011-k1d2-003 14</linkclipref>
								<mediatype>audio</mediatype>
								<trackindex>4</trackindex>
								<clipindex>1</clipindex>
							</link>
							<link>
								<linkclipref>msub200012-3011-k1d2-003 15</linkclipref>
								<mediatype>audio</mediatype>
								<trackindex>5</trackindex>
								<clipindex>1</clipindex>
							</link>
							<link>
								<linkclipref>msub200012-3011-k1d2-003 16</linkclipref>
								<mediatype>audio</mediatype>
								<trackindex>6</trackindex>
								<clipindex>1</clipindex>
							</link>
							<link>
								<linkclipref>msub200012-3011-k1d2-003 17</linkclipref>
								<mediatype>audio</mediatype>
								<trackindex>7</trackindex>
								<clipindex>1</clipindex>
							</link>
							<link>
								<linkclipref>msub200012-3011-k1d2-003 18</linkclipref>
								<mediatype>audio</mediatype>
								<trackindex>8</trackindex>
								<clipindex>1</clipindex>
							</link>
						</clipitem>
						<enabled>TRUE</enabled>
						<locked>FALSE</locked>
					</track>
					<track>
						<clipitem id="msub200012-3011-k1d2-003 14">
							<name>msub200012-3011-k1d2-003</name>
							<duration>16188</duration>
							<rate>
								<ntsc>FALSE</ntsc>
								<timebase>25</timebase>
							</rate>
							<in>0</in>
							<out>16188</out>
							<start>0</start>
							<end>16188</end>
							<subframeoffset>0</subframeoffset>
							<masterclipid>msub200012-3011-k1d2-003 1</masterclipid>
							<syncoffset>0</syncoffset>
							<logginginfo>
								<scene/>
								<shottake/>
								<lognote/>
								<good>FALSE</good>
							</logginginfo>
							<labels>
								<label>Best Take</label>
								<label2/>
							</labels>
							<comments>
								<mastercomment1>RÃ…STOFF. BR_FINFREDAG_MSUA_OPRO</mastercomment1>
								<mastercomment2/>
								<mastercomment3/>
								<mastercomment4/>
							</comments>
							<file id="msub200012-3011-k1d2-003 2"/>
							<filter>
								<effect>
									<name>Audio Levels</name>
									<effectid>audiolevels</effectid>
									<effectcategory>audiolevels</effectcategory>
									<effecttype>audiolevels</effecttype>
									<mediatype>audio</mediatype>
									<parameter>
										<name>Level</name>
										<parameterid>level</parameterid>
										<valuemin>0</valuemin>
										<valuemax>3.98109</valuemax>
										<value>1</value>
									</parameter>
								</effect>
							</filter>
							<filter>
								<effect>
									<name>Audio Pan</name>
									<effectid>audiopan</effectid>
									<effectcategory>audiopan</effectcategory>
									<effecttype>audiopan</effecttype>
									<mediatype>audio</mediatype>
									<parameter>
										<name>Pan</name>
										<parameterid>pan</parameterid>
										<valuemin>-1</valuemin>
										<valuemax>1</valuemax>
										<value>0</value>
									</parameter>
								</effect>
							</filter>
							<sourcetrack>
								<mediatype>audio</mediatype>
								<trackindex>4</trackindex>
							</sourcetrack>
							<link>
								<linkclipref>msub200012-3011-k1d2-003 10</linkclipref>
								<mediatype>video</mediatype>
								<trackindex>1</trackindex>
								<clipindex>1</clipindex>
							</link>
							<link>
								<linkclipref>msub200012-3011-k1d2-003 11</linkclipref>
								<mediatype>audio</mediatype>
								<trackindex>1</trackindex>
								<clipindex>1</clipindex>
							</link>
							<link>
								<linkclipref>msub200012-3011-k1d2-003 12</linkclipref>
								<mediatype>audio</mediatype>
								<trackindex>2</trackindex>
								<clipindex>1</clipindex>
							</link>
							<link>
								<linkclipref>msub200012-3011-k1d2-003 13</linkclipref>
								<mediatype>audio</mediatype>
								<trackindex>3</trackindex>
								<clipindex>1</clipindex>
							</link>
							<link>
								<linkclipref>msub200012-3011-k1d2-003 14</linkclipref>
								<mediatype>audio</mediatype>
								<trackindex>4</trackindex>
								<clipindex>1</clipindex>
							</link>
							<link>
								<linkclipref>msub200012-3011-k1d2-003 15</linkclipref>
								<mediatype>audio</mediatype>
								<trackindex>5</trackindex>
								<clipindex>1</clipindex>
							</link>
							<link>
								<linkclipref>msub200012-3011-k1d2-003 16</linkclipref>
								<mediatype>audio</mediatype>
								<trackindex>6</trackindex>
								<clipindex>1</clipindex>
							</link>
							<link>
								<linkclipref>msub200012-3011-k1d2-003 17</linkclipref>
								<mediatype>audio</mediatype>
								<trackindex>7</trackindex>
								<clipindex>1</clipindex>
							</link>
							<link>
								<linkclipref>msub200012-3011-k1d2-003 18</linkclipref>
								<mediatype>audio</mediatype>
								<trackindex>8</trackindex>
								<clipindex>1</clipindex>
							</link>
						</clipitem>
						<enabled>TRUE</enabled>
						<locked>FALSE</locked>
					</track>
					<track>
						<clipitem id="msub200012-3011-k1d2-003 15">
							<name>msub200012-3011-k1d2-003</name>
							<duration>16188</duration>
							<rate>
								<ntsc>FALSE</ntsc>
								<timebase>25</timebase>
							</rate>
							<in>0</in>
							<out>16188</out>
							<start>0</start>
							<end>16188</end>
							<subframeoffset>0</subframeoffset>
							<masterclipid>msub200012-3011-k1d2-003 1</masterclipid>
							<syncoffset>0</syncoffset>
							<logginginfo>
								<scene/>
								<shottake/>
								<lognote/>
								<good>FALSE</good>
							</logginginfo>
							<labels>
								<label>Best Take</label>
								<label2/>
							</labels>
							<comments>
								<mastercomment1>RÃ…STOFF. BR_FINFREDAG_MSUA_OPRO</mastercomment1>
								<mastercomment2/>
								<mastercomment3/>
								<mastercomment4/>
							</comments>
							<file id="msub200012-3011-k1d2-003 2"/>
							<filter>
								<effect>
									<name>Audio Levels</name>
									<effectid>audiolevels</effectid>
									<effectcategory>audiolevels</effectcategory>
									<effecttype>audiolevels</effecttype>
									<mediatype>audio</mediatype>
									<parameter>
										<name>Level</name>
										<parameterid>level</parameterid>
										<valuemin>0</valuemin>
										<valuemax>3.98109</valuemax>
										<value>1</value>
									</parameter>
								</effect>
							</filter>
							<filter>
								<effect>
									<name>Audio Pan</name>
									<effectid>audiopan</effectid>
									<effectcategory>audiopan</effectcategory>
									<effecttype>audiopan</effecttype>
									<mediatype>audio</mediatype>
									<parameter>
										<name>Pan</name>
										<parameterid>pan</parameterid>
										<valuemin>-1</valuemin>
										<valuemax>1</valuemax>
										<value>0</value>
									</parameter>
								</effect>
							</filter>
							<sourcetrack>
								<mediatype>audio</mediatype>
								<trackindex>5</trackindex>
							</sourcetrack>
							<link>
								<linkclipref>msub200012-3011-k1d2-003 10</linkclipref>
								<mediatype>video</mediatype>
								<trackindex>1</trackindex>
								<clipindex>1</clipindex>
							</link>
							<link>
								<linkclipref>msub200012-3011-k1d2-003 11</linkclipref>
								<mediatype>audio</mediatype>
								<trackindex>1</trackindex>
								<clipindex>1</clipindex>
							</link>
							<link>
								<linkclipref>msub200012-3011-k1d2-003 12</linkclipref>
								<mediatype>audio</mediatype>
								<trackindex>2</trackindex>
								<clipindex>1</clipindex>
							</link>
							<link>
								<linkclipref>msub200012-3011-k1d2-003 13</linkclipref>
								<mediatype>audio</mediatype>
								<trackindex>3</trackindex>
								<clipindex>1</clipindex>
							</link>
							<link>
								<linkclipref>msub200012-3011-k1d2-003 14</linkclipref>
								<mediatype>audio</mediatype>
								<trackindex>4</trackindex>
								<clipindex>1</clipindex>
							</link>
							<link>
								<linkclipref>msub200012-3011-k1d2-003 15</linkclipref>
								<mediatype>audio</mediatype>
								<trackindex>5</trackindex>
								<clipindex>1</clipindex>
							</link>
							<link>
								<linkclipref>msub200012-3011-k1d2-003 16</linkclipref>
								<mediatype>audio</mediatype>
								<trackindex>6</trackindex>
								<clipindex>1</clipindex>
							</link>
							<link>
								<linkclipref>msub200012-3011-k1d2-003 17</linkclipref>
								<mediatype>audio</mediatype>
								<trackindex>7</trackindex>
								<clipindex>1</clipindex>
							</link>
							<link>
								<linkclipref>msub200012-3011-k1d2-003 18</linkclipref>
								<mediatype>audio</mediatype>
								<trackindex>8</trackindex>
								<clipindex>1</clipindex>
							</link>
						</clipitem>
						<enabled>TRUE</enabled>
						<locked>FALSE</locked>
					</track>
					<track>
						<clipitem id="msub200012-3011-k1d2-003 16">
							<name>msub200012-3011-k1d2-003</name>
							<duration>16188</duration>
							<rate>
								<ntsc>FALSE</ntsc>
								<timebase>25</timebase>
							</rate>
							<in>0</in>
							<out>16188</out>
							<start>0</start>
							<end>16188</end>
							<subframeoffset>0</subframeoffset>
							<masterclipid>msub200012-3011-k1d2-003 1</masterclipid>
							<syncoffset>0</syncoffset>
							<logginginfo>
								<scene/>
								<shottake/>
								<lognote/>
								<good>FALSE</good>
							</logginginfo>
							<labels>
								<label>Best Take</label>
								<label2/>
							</labels>
							<comments>
								<mastercomment1>RÃ…STOFF. BR_FINFREDAG_MSUA_OPRO</mastercomment1>
								<mastercomment2/>
								<mastercomment3/>
								<mastercomment4/>
							</comments>
							<file id="msub200012-3011-k1d2-003 2"/>
							<filter>
								<effect>
									<name>Audio Levels</name>
									<effectid>audiolevels</effectid>
									<effectcategory>audiolevels</effectcategory>
									<effecttype>audiolevels</effecttype>
									<mediatype>audio</mediatype>
									<parameter>
										<name>Level</name>
										<parameterid>level</parameterid>
										<valuemin>0</valuemin>
										<valuemax>3.98109</valuemax>
										<value>1</value>
									</parameter>
								</effect>
							</filter>
							<filter>
								<effect>
									<name>Audio Pan</name>
									<effectid>audiopan</effectid>
									<effectcategory>audiopan</effectcategory>
									<effecttype>audiopan</effecttype>
									<mediatype>audio</mediatype>
									<parameter>
										<name>Pan</name>
										<parameterid>pan</parameterid>
										<valuemin>-1</valuemin>
										<valuemax>1</valuemax>
										<value>0</value>
									</parameter>
								</effect>
							</filter>
							<sourcetrack>
								<mediatype>audio</mediatype>
								<trackindex>6</trackindex>
							</sourcetrack>
							<link>
								<linkclipref>msub200012-3011-k1d2-003 10</linkclipref>
								<mediatype>video</mediatype>
								<trackindex>1</trackindex>
								<clipindex>1</clipindex>
							</link>
							<link>
								<linkclipref>msub200012-3011-k1d2-003 11</linkclipref>
								<mediatype>audio</mediatype>
								<trackindex>1</trackindex>
								<clipindex>1</clipindex>
							</link>
							<link>
								<linkclipref>msub200012-3011-k1d2-003 12</linkclipref>
								<mediatype>audio</mediatype>
								<trackindex>2</trackindex>
								<clipindex>1</clipindex>
							</link>
							<link>
								<linkclipref>msub200012-3011-k1d2-003 13</linkclipref>
								<mediatype>audio</mediatype>
								<trackindex>3</trackindex>
								<clipindex>1</clipindex>
							</link>
							<link>
								<linkclipref>msub200012-3011-k1d2-003 14</linkclipref>
								<mediatype>audio</mediatype>
								<trackindex>4</trackindex>
								<clipindex>1</clipindex>
							</link>
							<link>
								<linkclipref>msub200012-3011-k1d2-003 15</linkclipref>
								<mediatype>audio</mediatype>
								<trackindex>5</trackindex>
								<clipindex>1</clipindex>
							</link>
							<link>
								<linkclipref>msub200012-3011-k1d2-003 16</linkclipref>
								<mediatype>audio</mediatype>
								<trackindex>6</trackindex>
								<clipindex>1</clipindex>
							</link>
							<link>
								<linkclipref>msub200012-3011-k1d2-003 17</linkclipref>
								<mediatype>audio</mediatype>
								<trackindex>7</trackindex>
								<clipindex>1</clipindex>
							</link>
							<link>
								<linkclipref>msub200012-3011-k1d2-003 18</linkclipref>
								<mediatype>audio</mediatype>
								<trackindex>8</trackindex>
								<clipindex>1</clipindex>
							</link>
						</clipitem>
						<enabled>TRUE</enabled>
						<locked>FALSE</locked>
					</track>
					<track>
						<clipitem id="msub200012-3011-k1d2-003 17">
							<name>msub200012-3011-k1d2-003</name>
							<duration>16188</duration>
							<rate>
								<ntsc>FALSE</ntsc>
								<timebase>25</timebase>
							</rate>
							<in>0</in>
							<out>16188</out>
							<start>0</start>
							<end>16188</end>
							<subframeoffset>0</subframeoffset>
							<masterclipid>msub200012-3011-k1d2-003 1</masterclipid>
							<syncoffset>0</syncoffset>
							<logginginfo>
								<scene/>
								<shottake/>
								<lognote/>
								<good>FALSE</good>
							</logginginfo>
							<labels>
								<label>Best Take</label>
								<label2/>
							</labels>
							<comments>
								<mastercomment1>RÃ…STOFF. BR_FINFREDAG_MSUA_OPRO</mastercomment1>
								<mastercomment2/>
								<mastercomment3/>
								<mastercomment4/>
							</comments>
							<file id="msub200012-3011-k1d2-003 2"/>
							<filter>
								<effect>
									<name>Audio Levels</name>
									<effectid>audiolevels</effectid>
									<effectcategory>audiolevels</effectcategory>
									<effecttype>audiolevels</effecttype>
									<mediatype>audio</mediatype>
									<parameter>
										<name>Level</name>
										<parameterid>level</parameterid>
										<valuemin>0</valuemin>
										<valuemax>3.98109</valuemax>
										<value>1</value>
									</parameter>
								</effect>
							</filter>
							<filter>
								<effect>
									<name>Audio Pan</name>
									<effectid>audiopan</effectid>
									<effectcategory>audiopan</effectcategory>
									<effecttype>audiopan</effecttype>
									<mediatype>audio</mediatype>
									<parameter>
										<name>Pan</name>
										<parameterid>pan</parameterid>
										<valuemin>-1</valuemin>
										<valuemax>1</valuemax>
										<value>0</value>
									</parameter>
								</effect>
							</filter>
							<sourcetrack>
								<mediatype>audio</mediatype>
								<trackindex>7</trackindex>
							</sourcetrack>
							<link>
								<linkclipref>msub200012-3011-k1d2-003 10</linkclipref>
								<mediatype>video</mediatype>
								<trackindex>1</trackindex>
								<clipindex>1</clipindex>
							</link>
							<link>
								<linkclipref>msub200012-3011-k1d2-003 11</linkclipref>
								<mediatype>audio</mediatype>
								<trackindex>1</trackindex>
								<clipindex>1</clipindex>
							</link>
							<link>
								<linkclipref>msub200012-3011-k1d2-003 12</linkclipref>
								<mediatype>audio</mediatype>
								<trackindex>2</trackindex>
								<clipindex>1</clipindex>
							</link>
							<link>
								<linkclipref>msub200012-3011-k1d2-003 13</linkclipref>
								<mediatype>audio</mediatype>
								<trackindex>3</trackindex>
								<clipindex>1</clipindex>
							</link>
							<link>
								<linkclipref>msub200012-3011-k1d2-003 14</linkclipref>
								<mediatype>audio</mediatype>
								<trackindex>4</trackindex>
								<clipindex>1</clipindex>
							</link>
							<link>
								<linkclipref>msub200012-3011-k1d2-003 15</linkclipref>
								<mediatype>audio</mediatype>
								<trackindex>5</trackindex>
								<clipindex>1</clipindex>
							</link>
							<link>
								<linkclipref>msub200012-3011-k1d2-003 16</linkclipref>
								<mediatype>audio</mediatype>
								<trackindex>6</trackindex>
								<clipindex>1</clipindex>
							</link>
							<link>
								<linkclipref>msub200012-3011-k1d2-003 17</linkclipref>
								<mediatype>audio</mediatype>
								<trackindex>7</trackindex>
								<clipindex>1</clipindex>
							</link>
							<link>
								<linkclipref>msub200012-3011-k1d2-003 18</linkclipref>
								<mediatype>audio</mediatype>
								<trackindex>8</trackindex>
								<clipindex>1</clipindex>
							</link>
						</clipitem>
						<enabled>TRUE</enabled>
						<locked>FALSE</locked>
					</track>
					<track>
						<clipitem id="msub200012-3011-k1d2-003 18">
							<name>msub200012-3011-k1d2-003</name>
							<duration>16188</duration>
							<rate>
								<ntsc>FALSE</ntsc>
								<timebase>25</timebase>
							</rate>
							<in>0</in>
							<out>16188</out>
							<start>0</start>
							<end>16188</end>
							<subframeoffset>0</subframeoffset>
							<masterclipid>msub200012-3011-k1d2-003 1</masterclipid>
							<syncoffset>0</syncoffset>
							<logginginfo>
								<scene/>
								<shottake/>
								<lognote/>
								<good>FALSE</good>
							</logginginfo>
							<labels>
								<label>Best Take</label>
								<label2/>
							</labels>
							<comments>
								<mastercomment1>RÃ…STOFF. BR_FINFREDAG_MSUA_OPRO</mastercomment1>
								<mastercomment2/>
								<mastercomment3/>
								<mastercomment4/>
							</comments>
							<file id="msub200012-3011-k1d2-003 2"/>
							<filter>
								<effect>
									<name>Audio Levels</name>
									<effectid>audiolevels</effectid>
									<effectcategory>audiolevels</effectcategory>
									<effecttype>audiolevels</effecttype>
									<mediatype>audio</mediatype>
									<parameter>
										<name>Level</name>
										<parameterid>level</parameterid>
										<valuemin>0</valuemin>
										<valuemax>3.98109</valuemax>
										<value>1</value>
									</parameter>
								</effect>
							</filter>
							<filter>
								<effect>
									<name>Audio Pan</name>
									<effectid>audiopan</effectid>
									<effectcategory>audiopan</effectcategory>
									<effecttype>audiopan</effecttype>
									<mediatype>audio</mediatype>
									<parameter>
										<name>Pan</name>
										<parameterid>pan</parameterid>
										<valuemin>-1</valuemin>
										<valuemax>1</valuemax>
										<value>0</value>
									</parameter>
								</effect>
							</filter>
							<sourcetrack>
								<mediatype>audio</mediatype>
								<trackindex>8</trackindex>
							</sourcetrack>
							<link>
								<linkclipref>msub200012-3011-k1d2-003 10</linkclipref>
								<mediatype>video</mediatype>
								<trackindex>1</trackindex>
								<clipindex>1</clipindex>
							</link>
							<link>
								<linkclipref>msub200012-3011-k1d2-003 11</linkclipref>
								<mediatype>audio</mediatype>
								<trackindex>1</trackindex>
								<clipindex>1</clipindex>
							</link>
							<link>
								<linkclipref>msub200012-3011-k1d2-003 12</linkclipref>
								<mediatype>audio</mediatype>
								<trackindex>2</trackindex>
								<clipindex>1</clipindex>
							</link>
							<link>
								<linkclipref>msub200012-3011-k1d2-003 13</linkclipref>
								<mediatype>audio</mediatype>
								<trackindex>3</trackindex>
								<clipindex>1</clipindex>
							</link>
							<link>
								<linkclipref>msub200012-3011-k1d2-003 14</linkclipref>
								<mediatype>audio</mediatype>
								<trackindex>4</trackindex>
								<clipindex>1</clipindex>
							</link>
							<link>
								<linkclipref>msub200012-3011-k1d2-003 15</linkclipref>
								<mediatype>audio</mediatype>
								<trackindex>5</trackindex>
								<clipindex>1</clipindex>
							</link>
							<link>
								<linkclipref>msub200012-3011-k1d2-003 16</linkclipref>
								<mediatype>audio</mediatype>
								<trackindex>6</trackindex>
								<clipindex>1</clipindex>
							</link>
							<link>
								<linkclipref>msub200012-3011-k1d2-003 17</linkclipref>
								<mediatype>audio</mediatype>
								<trackindex>7</trackindex>
								<clipindex>1</clipindex>
							</link>
							<link>
								<linkclipref>msub200012-3011-k1d2-003 18</linkclipref>
								<mediatype>audio</mediatype>
								<trackindex>8</trackindex>
								<clipindex>1</clipindex>
							</link>
						</clipitem>
						<enabled>TRUE</enabled>
						<locked>FALSE</locked>
					</track>
				</audio>
			</media>
		</clip>
		<clip id="msub200012-3011-k1d2-007 22">
			<name>msub200012-3011-k1d2-007</name>
			<duration>5622</duration>
			<rate>
				<ntsc>FALSE</ntsc>
				<timebase>25</timebase>
			</rate>
			<in>1071</in>
			<out>5359</out>
			<masterclipid>msub200012-3011-k1d2-007 1</masterclipid>
			<ismasterclip>FALSE</ismasterclip>
			<logginginfo>
				<description>msub200012-3011-k1d2-007</description>
				<scene/>
				<shottake/>
				<lognote/>
				<good>FALSE</good>
			</logginginfo>
			<labels>
				<label>Interviews</label>
				<label2/>
			</labels>
			<comments>
				<mastercomment1>RÃ…STOFF. BR_FINFREDAG_MSUA_OPRO</mastercomment1>
				<mastercomment2/>
				<mastercomment3/>
				<mastercomment4/>
				<clipcommenta/>
			</comments>
			<media>
				<video>
					<track>
						<clipitem id="msub200012-3011-k1d2-007 23">
							<name>msub200012-3011-k1d2-007</name>
							<duration>5622</duration>
							<rate>
								<ntsc>FALSE</ntsc>
								<timebase>25</timebase>
							</rate>
							<in>0</in>
							<out>5622</out>
							<start>0</start>
							<end>5622</end>
							<pixelaspectratio>Square</pixelaspectratio>
							<anamorphic>FALSE</anamorphic>
							<alphatype>none</alphatype>
							<masterclipid>msub200012-3011-k1d2-007 1</masterclipid>
							<syncoffset>0</syncoffset>
							<logginginfo>
								<scene/>
								<shottake/>
								<lognote/>
								<good>FALSE</good>
							</logginginfo>
							<labels>
								<label>Interviews</label>
								<label2/>
							</labels>
							<comments>
								<mastercomment1>RÃ…STOFF. BR_FINFREDAG_MSUA_OPRO</mastercomment1>
								<mastercomment2/>
								<mastercomment3/>
								<mastercomment4/>
								<clipcommenta/>
							</comments>
							<file id="msub200012-3011-k1d2-007 2"/>
							<sourcetrack>
								<mediatype>video</mediatype>
							</sourcetrack>
							<link>
								<linkclipref>msub200012-3011-k1d2-007 23</linkclipref>
								<mediatype>video</mediatype>
								<trackindex>1</trackindex>
								<clipindex>1</clipindex>
							</link>
							<link>
								<linkclipref>msub200012-3011-k1d2-007 24</linkclipref>
								<mediatype>audio</mediatype>
								<trackindex>1</trackindex>
								<clipindex>1</clipindex>
							</link>
							<link>
								<linkclipref>msub200012-3011-k1d2-007 25</linkclipref>
								<mediatype>audio</mediatype>
								<trackindex>2</trackindex>
								<clipindex>1</clipindex>
							</link>
							<link>
								<linkclipref>msub200012-3011-k1d2-007 26</linkclipref>
								<mediatype>audio</mediatype>
								<trackindex>3</trackindex>
								<clipindex>1</clipindex>
							</link>
							<link>
								<linkclipref>msub200012-3011-k1d2-007 27</linkclipref>
								<mediatype>audio</mediatype>
								<trackindex>4</trackindex>
								<clipindex>1</clipindex>
							</link>
							<link>
								<linkclipref>msub200012-3011-k1d2-007 28</linkclipref>
								<mediatype>audio</mediatype>
								<trackindex>5</trackindex>
								<clipindex>1</clipindex>
							</link>
							<link>
								<linkclipref>msub200012-3011-k1d2-007 29</linkclipref>
								<mediatype>audio</mediatype>
								<trackindex>6</trackindex>
								<clipindex>1</clipindex>
							</link>
							<link>
								<linkclipref>msub200012-3011-k1d2-007 30</linkclipref>
								<mediatype>audio</mediatype>
								<trackindex>7</trackindex>
								<clipindex>1</clipindex>
							</link>
							<link>
								<linkclipref>msub200012-3011-k1d2-007 31</linkclipref>
								<mediatype>audio</mediatype>
								<trackindex>8</trackindex>
								<clipindex>1</clipindex>
							</link>
							<fielddominance>upper</fielddominance>
						</clipitem>
						<enabled>TRUE</enabled>
						<locked>FALSE</locked>
					</track>
				</video>
				<audio>
					<in>1071</in>
					<out>5359</out>
					<track>
						<clipitem id="msub200012-3011-k1d2-007 24">
							<name>msub200012-3011-k1d2-007</name>
							<duration>5622</duration>
							<rate>
								<ntsc>FALSE</ntsc>
								<timebase>25</timebase>
							</rate>
							<in>0</in>
							<out>5622</out>
							<start>0</start>
							<end>5622</end>
							<subframeoffset>0</subframeoffset>
							<masterclipid>msub200012-3011-k1d2-007 1</masterclipid>
							<syncoffset>0</syncoffset>
							<logginginfo>
								<scene/>
								<shottake/>
								<lognote/>
								<good>FALSE</good>
							</logginginfo>
							<labels>
								<label>Interviews</label>
								<label2/>
							</labels>
							<comments>
								<mastercomment1>RÃ…STOFF. BR_FINFREDAG_MSUA_OPRO</mastercomment1>
								<mastercomment2/>
								<mastercomment3/>
								<mastercomment4/>
							</comments>
							<file id="msub200012-3011-k1d2-007 2"/>
							<filter>
								<effect>
									<name>Audio Levels</name>
									<effectid>audiolevels</effectid>
									<effectcategory>audiolevels</effectcategory>
									<effecttype>audiolevels</effecttype>
									<mediatype>audio</mediatype>
									<parameter>
										<name>Level</name>
										<parameterid>level</parameterid>
										<valuemin>0</valuemin>
										<valuemax>3.98109</valuemax>
										<value>1</value>
									</parameter>
								</effect>
							</filter>
							<filter>
								<effect>
									<name>Audio Pan</name>
									<effectid>audiopan</effectid>
									<effectcategory>audiopan</effectcategory>
									<effecttype>audiopan</effecttype>
									<mediatype>audio</mediatype>
									<parameter>
										<name>Pan</name>
										<parameterid>pan</parameterid>
										<valuemin>-1</valuemin>
										<valuemax>1</valuemax>
										<value>0</value>
									</parameter>
								</effect>
							</filter>
							<sourcetrack>
								<mediatype>audio</mediatype>
								<trackindex>1</trackindex>
							</sourcetrack>
							<link>
								<linkclipref>msub200012-3011-k1d2-007 23</linkclipref>
								<mediatype>video</mediatype>
								<trackindex>1</trackindex>
								<clipindex>1</clipindex>
							</link>
							<link>
								<linkclipref>msub200012-3011-k1d2-007 24</linkclipref>
								<mediatype>audio</mediatype>
								<trackindex>1</trackindex>
								<clipindex>1</clipindex>
							</link>
							<link>
								<linkclipref>msub200012-3011-k1d2-007 25</linkclipref>
								<mediatype>audio</mediatype>
								<trackindex>2</trackindex>
								<clipindex>1</clipindex>
							</link>
							<link>
								<linkclipref>msub200012-3011-k1d2-007 26</linkclipref>
								<mediatype>audio</mediatype>
								<trackindex>3</trackindex>
								<clipindex>1</clipindex>
							</link>
							<link>
								<linkclipref>msub200012-3011-k1d2-007 27</linkclipref>
								<mediatype>audio</mediatype>
								<trackindex>4</trackindex>
								<clipindex>1</clipindex>
							</link>
							<link>
								<linkclipref>msub200012-3011-k1d2-007 28</linkclipref>
								<mediatype>audio</mediatype>
								<trackindex>5</trackindex>
								<clipindex>1</clipindex>
							</link>
							<link>
								<linkclipref>msub200012-3011-k1d2-007 29</linkclipref>
								<mediatype>audio</mediatype>
								<trackindex>6</trackindex>
								<clipindex>1</clipindex>
							</link>
							<link>
								<linkclipref>msub200012-3011-k1d2-007 30</linkclipref>
								<mediatype>audio</mediatype>
								<trackindex>7</trackindex>
								<clipindex>1</clipindex>
							</link>
							<link>
								<linkclipref>msub200012-3011-k1d2-007 31</linkclipref>
								<mediatype>audio</mediatype>
								<trackindex>8</trackindex>
								<clipindex>1</clipindex>
							</link>
						</clipitem>
						<enabled>TRUE</enabled>
						<locked>FALSE</locked>
					</track>
					<track>
						<clipitem id="msub200012-3011-k1d2-007 25">
							<name>msub200012-3011-k1d2-007</name>
							<duration>5622</duration>
							<rate>
								<ntsc>FALSE</ntsc>
								<timebase>25</timebase>
							</rate>
							<in>0</in>
							<out>5622</out>
							<start>0</start>
							<end>5622</end>
							<subframeoffset>0</subframeoffset>
							<masterclipid>msub200012-3011-k1d2-007 1</masterclipid>
							<syncoffset>0</syncoffset>
							<logginginfo>
								<scene/>
								<shottake/>
								<lognote/>
								<good>FALSE</good>
							</logginginfo>
							<labels>
								<label>Interviews</label>
								<label2/>
							</labels>
							<comments>
								<mastercomment1>RÃ…STOFF. BR_FINFREDAG_MSUA_OPRO</mastercomment1>
								<mastercomment2/>
								<mastercomment3/>
								<mastercomment4/>
							</comments>
							<file id="msub200012-3011-k1d2-007 2"/>
							<filter>
								<effect>
									<name>Audio Levels</name>
									<effectid>audiolevels</effectid>
									<effectcategory>audiolevels</effectcategory>
									<effecttype>audiolevels</effecttype>
									<mediatype>audio</mediatype>
									<parameter>
										<name>Level</name>
										<parameterid>level</parameterid>
										<valuemin>0</valuemin>
										<valuemax>3.98109</valuemax>
										<value>1</value>
									</parameter>
								</effect>
							</filter>
							<filter>
								<effect>
									<name>Audio Pan</name>
									<effectid>audiopan</effectid>
									<effectcategory>audiopan</effectcategory>
									<effecttype>audiopan</effecttype>
									<mediatype>audio</mediatype>
									<parameter>
										<name>Pan</name>
										<parameterid>pan</parameterid>
										<valuemin>-1</valuemin>
										<valuemax>1</valuemax>
										<value>0</value>
									</parameter>
								</effect>
							</filter>
							<sourcetrack>
								<mediatype>audio</mediatype>
								<trackindex>2</trackindex>
							</sourcetrack>
							<link>
								<linkclipref>msub200012-3011-k1d2-007 23</linkclipref>
								<mediatype>video</mediatype>
								<trackindex>1</trackindex>
								<clipindex>1</clipindex>
							</link>
							<link>
								<linkclipref>msub200012-3011-k1d2-007 24</linkclipref>
								<mediatype>audio</mediatype>
								<trackindex>1</trackindex>
								<clipindex>1</clipindex>
							</link>
							<link>
								<linkclipref>msub200012-3011-k1d2-007 25</linkclipref>
								<mediatype>audio</mediatype>
								<trackindex>2</trackindex>
								<clipindex>1</clipindex>
							</link>
							<link>
								<linkclipref>msub200012-3011-k1d2-007 26</linkclipref>
								<mediatype>audio</mediatype>
								<trackindex>3</trackindex>
								<clipindex>1</clipindex>
							</link>
							<link>
								<linkclipref>msub200012-3011-k1d2-007 27</linkclipref>
								<mediatype>audio</mediatype>
								<trackindex>4</trackindex>
								<clipindex>1</clipindex>
							</link>
							<link>
								<linkclipref>msub200012-3011-k1d2-007 28</linkclipref>
								<mediatype>audio</mediatype>
								<trackindex>5</trackindex>
								<clipindex>1</clipindex>
							</link>
							<link>
								<linkclipref>msub200012-3011-k1d2-007 29</linkclipref>
								<mediatype>audio</mediatype>
								<trackindex>6</trackindex>
								<clipindex>1</clipindex>
							</link>
							<link>
								<linkclipref>msub200012-3011-k1d2-007 30</linkclipref>
								<mediatype>audio</mediatype>
								<trackindex>7</trackindex>
								<clipindex>1</clipindex>
							</link>
							<link>
								<linkclipref>msub200012-3011-k1d2-007 31</linkclipref>
								<mediatype>audio</mediatype>
								<trackindex>8</trackindex>
								<clipindex>1</clipindex>
							</link>
						</clipitem>
						<enabled>TRUE</enabled>
						<locked>FALSE</locked>
					</track>
					<track>
						<clipitem id="msub200012-3011-k1d2-007 26">
							<name>msub200012-3011-k1d2-007</name>
							<duration>5622</duration>
							<rate>
								<ntsc>FALSE</ntsc>
								<timebase>25</timebase>
							</rate>
							<in>0</in>
							<out>5622</out>
							<start>0</start>
							<end>5622</end>
							<subframeoffset>0</subframeoffset>
							<masterclipid>msub200012-3011-k1d2-007 1</masterclipid>
							<syncoffset>0</syncoffset>
							<logginginfo>
								<scene/>
								<shottake/>
								<lognote/>
								<good>FALSE</good>
							</logginginfo>
							<labels>
								<label>Interviews</label>
								<label2/>
							</labels>
							<comments>
								<mastercomment1>RÃ…STOFF. BR_FINFREDAG_MSUA_OPRO</mastercomment1>
								<mastercomment2/>
								<mastercomment3/>
								<mastercomment4/>
							</comments>
							<file id="msub200012-3011-k1d2-007 2"/>
							<filter>
								<effect>
									<name>Audio Levels</name>
									<effectid>audiolevels</effectid>
									<effectcategory>audiolevels</effectcategory>
									<effecttype>audiolevels</effecttype>
									<mediatype>audio</mediatype>
									<parameter>
										<name>Level</name>
										<parameterid>level</parameterid>
										<valuemin>0</valuemin>
										<valuemax>3.98109</valuemax>
										<value>1</value>
									</parameter>
								</effect>
							</filter>
							<filter>
								<effect>
									<name>Audio Pan</name>
									<effectid>audiopan</effectid>
									<effectcategory>audiopan</effectcategory>
									<effecttype>audiopan</effecttype>
									<mediatype>audio</mediatype>
									<parameter>
										<name>Pan</name>
										<parameterid>pan</parameterid>
										<valuemin>-1</valuemin>
										<valuemax>1</valuemax>
										<value>0</value>
									</parameter>
								</effect>
							</filter>
							<sourcetrack>
								<mediatype>audio</mediatype>
								<trackindex>3</trackindex>
							</sourcetrack>
							<link>
								<linkclipref>msub200012-3011-k1d2-007 23</linkclipref>
								<mediatype>video</mediatype>
								<trackindex>1</trackindex>
								<clipindex>1</clipindex>
							</link>
							<link>
								<linkclipref>msub200012-3011-k1d2-007 24</linkclipref>
								<mediatype>audio</mediatype>
								<trackindex>1</trackindex>
								<clipindex>1</clipindex>
							</link>
							<link>
								<linkclipref>msub200012-3011-k1d2-007 25</linkclipref>
								<mediatype>audio</mediatype>
								<trackindex>2</trackindex>
								<clipindex>1</clipindex>
							</link>
							<link>
								<linkclipref>msub200012-3011-k1d2-007 26</linkclipref>
								<mediatype>audio</mediatype>
								<trackindex>3</trackindex>
								<clipindex>1</clipindex>
							</link>
							<link>
								<linkclipref>msub200012-3011-k1d2-007 27</linkclipref>
								<mediatype>audio</mediatype>
								<trackindex>4</trackindex>
								<clipindex>1</clipindex>
							</link>
							<link>
								<linkclipref>msub200012-3011-k1d2-007 28</linkclipref>
								<mediatype>audio</mediatype>
								<trackindex>5</trackindex>
								<clipindex>1</clipindex>
							</link>
							<link>
								<linkclipref>msub200012-3011-k1d2-007 29</linkclipref>
								<mediatype>audio</mediatype>
								<trackindex>6</trackindex>
								<clipindex>1</clipindex>
							</link>
							<link>
								<linkclipref>msub200012-3011-k1d2-007 30</linkclipref>
								<mediatype>audio</mediatype>
								<trackindex>7</trackindex>
								<clipindex>1</clipindex>
							</link>
							<link>
								<linkclipref>msub200012-3011-k1d2-007 31</linkclipref>
								<mediatype>audio</mediatype>
								<trackindex>8</trackindex>
								<clipindex>1</clipindex>
							</link>
						</clipitem>
						<enabled>TRUE</enabled>
						<locked>FALSE</locked>
					</track>
					<track>
						<clipitem id="msub200012-3011-k1d2-007 27">
							<name>msub200012-3011-k1d2-007</name>
							<duration>5622</duration>
							<rate>
								<ntsc>FALSE</ntsc>
								<timebase>25</timebase>
							</rate>
							<in>0</in>
							<out>5622</out>
							<start>0</start>
							<end>5622</end>
							<subframeoffset>0</subframeoffset>
							<masterclipid>msub200012-3011-k1d2-007 1</masterclipid>
							<syncoffset>0</syncoffset>
							<logginginfo>
								<scene/>
								<shottake/>
								<lognote/>
								<good>FALSE</good>
							</logginginfo>
							<labels>
								<label>Interviews</label>
								<label2/>
							</labels>
							<comments>
								<mastercomment1>RÃ…STOFF. BR_FINFREDAG_MSUA_OPRO</mastercomment1>
								<mastercomment2/>
								<mastercomment3/>
								<mastercomment4/>
							</comments>
							<file id="msub200012-3011-k1d2-007 2"/>
							<filter>
								<effect>
									<name>Audio Levels</name>
									<effectid>audiolevels</effectid>
									<effectcategory>audiolevels</effectcategory>
									<effecttype>audiolevels</effecttype>
									<mediatype>audio</mediatype>
									<parameter>
										<name>Level</name>
										<parameterid>level</parameterid>
										<valuemin>0</valuemin>
										<valuemax>3.98109</valuemax>
										<value>1</value>
									</parameter>
								</effect>
							</filter>
							<filter>
								<effect>
									<name>Audio Pan</name>
									<effectid>audiopan</effectid>
									<effectcategory>audiopan</effectcategory>
									<effecttype>audiopan</effecttype>
									<mediatype>audio</mediatype>
									<parameter>
										<name>Pan</name>
										<parameterid>pan</parameterid>
										<valuemin>-1</valuemin>
										<valuemax>1</valuemax>
										<value>0</value>
									</parameter>
								</effect>
							</filter>
							<sourcetrack>
								<mediatype>audio</mediatype>
								<trackindex>4</trackindex>
							</sourcetrack>
							<link>
								<linkclipref>msub200012-3011-k1d2-007 23</linkclipref>
								<mediatype>video</mediatype>
								<trackindex>1</trackindex>
								<clipindex>1</clipindex>
							</link>
							<link>
								<linkclipref>msub200012-3011-k1d2-007 24</linkclipref>
								<mediatype>audio</mediatype>
								<trackindex>1</trackindex>
								<clipindex>1</clipindex>
							</link>
							<link>
								<linkclipref>msub200012-3011-k1d2-007 25</linkclipref>
								<mediatype>audio</mediatype>
								<trackindex>2</trackindex>
								<clipindex>1</clipindex>
							</link>
							<link>
								<linkclipref>msub200012-3011-k1d2-007 26</linkclipref>
								<mediatype>audio</mediatype>
								<trackindex>3</trackindex>
								<clipindex>1</clipindex>
							</link>
							<link>
								<linkclipref>msub200012-3011-k1d2-007 27</linkclipref>
								<mediatype>audio</mediatype>
								<trackindex>4</trackindex>
								<clipindex>1</clipindex>
							</link>
							<link>
								<linkclipref>msub200012-3011-k1d2-007 28</linkclipref>
								<mediatype>audio</mediatype>
								<trackindex>5</trackindex>
								<clipindex>1</clipindex>
							</link>
							<link>
								<linkclipref>msub200012-3011-k1d2-007 29</linkclipref>
								<mediatype>audio</mediatype>
								<trackindex>6</trackindex>
								<clipindex>1</clipindex>
							</link>
							<link>
								<linkclipref>msub200012-3011-k1d2-007 30</linkclipref>
								<mediatype>audio</mediatype>
								<trackindex>7</trackindex>
								<clipindex>1</clipindex>
							</link>
							<link>
								<linkclipref>msub200012-3011-k1d2-007 31</linkclipref>
								<mediatype>audio</mediatype>
								<trackindex>8</trackindex>
								<clipindex>1</clipindex>
							</link>
						</clipitem>
						<enabled>TRUE</enabled>
						<locked>FALSE</locked>
					</track>
					<track>
						<clipitem id="msub200012-3011-k1d2-007 28">
							<name>msub200012-3011-k1d2-007</name>
							<duration>5622</duration>
							<rate>
								<ntsc>FALSE</ntsc>
								<timebase>25</timebase>
							</rate>
							<in>0</in>
							<out>5622</out>
							<start>0</start>
							<end>5622</end>
							<subframeoffset>0</subframeoffset>
							<masterclipid>msub200012-3011-k1d2-007 1</masterclipid>
							<syncoffset>0</syncoffset>
							<logginginfo>
								<scene/>
								<shottake/>
								<lognote/>
								<good>FALSE</good>
							</logginginfo>
							<labels>
								<label>Interviews</label>
								<label2/>
							</labels>
							<comments>
								<mastercomment1>RÃ…STOFF. BR_FINFREDAG_MSUA_OPRO</mastercomment1>
								<mastercomment2/>
								<mastercomment3/>
								<mastercomment4/>
							</comments>
							<file id="msub200012-3011-k1d2-007 2"/>
							<filter>
								<effect>
									<name>Audio Levels</name>
									<effectid>audiolevels</effectid>
									<effectcategory>audiolevels</effectcategory>
									<effecttype>audiolevels</effecttype>
									<mediatype>audio</mediatype>
									<parameter>
										<name>Level</name>
										<parameterid>level</parameterid>
										<valuemin>0</valuemin>
										<valuemax>3.98109</valuemax>
										<value>1</value>
									</parameter>
								</effect>
							</filter>
							<filter>
								<effect>
									<name>Audio Pan</name>
									<effectid>audiopan</effectid>
									<effectcategory>audiopan</effectcategory>
									<effecttype>audiopan</effecttype>
									<mediatype>audio</mediatype>
									<parameter>
										<name>Pan</name>
										<parameterid>pan</parameterid>
										<valuemin>-1</valuemin>
										<valuemax>1</valuemax>
										<value>0</value>
									</parameter>
								</effect>
							</filter>
							<sourcetrack>
								<mediatype>audio</mediatype>
								<trackindex>5</trackindex>
							</sourcetrack>
							<link>
								<linkclipref>msub200012-3011-k1d2-007 23</linkclipref>
								<mediatype>video</mediatype>
								<trackindex>1</trackindex>
								<clipindex>1</clipindex>
							</link>
							<link>
								<linkclipref>msub200012-3011-k1d2-007 24</linkclipref>
								<mediatype>audio</mediatype>
								<trackindex>1</trackindex>
								<clipindex>1</clipindex>
							</link>
							<link>
								<linkclipref>msub200012-3011-k1d2-007 25</linkclipref>
								<mediatype>audio</mediatype>
								<trackindex>2</trackindex>
								<clipindex>1</clipindex>
							</link>
							<link>
								<linkclipref>msub200012-3011-k1d2-007 26</linkclipref>
								<mediatype>audio</mediatype>
								<trackindex>3</trackindex>
								<clipindex>1</clipindex>
							</link>
							<link>
								<linkclipref>msub200012-3011-k1d2-007 27</linkclipref>
								<mediatype>audio</mediatype>
								<trackindex>4</trackindex>
								<clipindex>1</clipindex>
							</link>
							<link>
								<linkclipref>msub200012-3011-k1d2-007 28</linkclipref>
								<mediatype>audio</mediatype>
								<trackindex>5</trackindex>
								<clipindex>1</clipindex>
							</link>
							<link>
								<linkclipref>msub200012-3011-k1d2-007 29</linkclipref>
								<mediatype>audio</mediatype>
								<trackindex>6</trackindex>
								<clipindex>1</clipindex>
							</link>
							<link>
								<linkclipref>msub200012-3011-k1d2-007 30</linkclipref>
								<mediatype>audio</mediatype>
								<trackindex>7</trackindex>
								<clipindex>1</clipindex>
							</link>
							<link>
								<linkclipref>msub200012-3011-k1d2-007 31</linkclipref>
								<mediatype>audio</mediatype>
								<trackindex>8</trackindex>
								<clipindex>1</clipindex>
							</link>
						</clipitem>
						<enabled>TRUE</enabled>
						<locked>FALSE</locked>
					</track>
					<track>
						<clipitem id="msub200012-3011-k1d2-007 29">
							<name>msub200012-3011-k1d2-007</name>
							<duration>5622</duration>
							<rate>
								<ntsc>FALSE</ntsc>
								<timebase>25</timebase>
							</rate>
							<in>0</in>
							<out>5622</out>
							<start>0</start>
							<end>5622</end>
							<subframeoffset>0</subframeoffset>
							<masterclipid>msub200012-3011-k1d2-007 1</masterclipid>
							<syncoffset>0</syncoffset>
							<logginginfo>
								<scene/>
								<shottake/>
								<lognote/>
								<good>FALSE</good>
							</logginginfo>
							<labels>
								<label>Interviews</label>
								<label2/>
							</labels>
							<comments>
								<mastercomment1>RÃ…STOFF. BR_FINFREDAG_MSUA_OPRO</mastercomment1>
								<mastercomment2/>
								<mastercomment3/>
								<mastercomment4/>
							</comments>
							<file id="msub200012-3011-k1d2-007 2"/>
							<filter>
								<effect>
									<name>Audio Levels</name>
									<effectid>audiolevels</effectid>
									<effectcategory>audiolevels</effectcategory>
									<effecttype>audiolevels</effecttype>
									<mediatype>audio</mediatype>
									<parameter>
										<name>Level</name>
										<parameterid>level</parameterid>
										<valuemin>0</valuemin>
										<valuemax>3.98109</valuemax>
										<value>1</value>
									</parameter>
								</effect>
							</filter>
							<filter>
								<effect>
									<name>Audio Pan</name>
									<effectid>audiopan</effectid>
									<effectcategory>audiopan</effectcategory>
									<effecttype>audiopan</effecttype>
									<mediatype>audio</mediatype>
									<parameter>
										<name>Pan</name>
										<parameterid>pan</parameterid>
										<valuemin>-1</valuemin>
										<valuemax>1</valuemax>
										<value>0</value>
									</parameter>
								</effect>
							</filter>
							<sourcetrack>
								<mediatype>audio</mediatype>
								<trackindex>6</trackindex>
							</sourcetrack>
							<link>
								<linkclipref>msub200012-3011-k1d2-007 23</linkclipref>
								<mediatype>video</mediatype>
								<trackindex>1</trackindex>
								<clipindex>1</clipindex>
							</link>
							<link>
								<linkclipref>msub200012-3011-k1d2-007 24</linkclipref>
								<mediatype>audio</mediatype>
								<trackindex>1</trackindex>
								<clipindex>1</clipindex>
							</link>
							<link>
								<linkclipref>msub200012-3011-k1d2-007 25</linkclipref>
								<mediatype>audio</mediatype>
								<trackindex>2</trackindex>
								<clipindex>1</clipindex>
							</link>
							<link>
								<linkclipref>msub200012-3011-k1d2-007 26</linkclipref>
								<mediatype>audio</mediatype>
								<trackindex>3</trackindex>
								<clipindex>1</clipindex>
							</link>
							<link>
								<linkclipref>msub200012-3011-k1d2-007 27</linkclipref>
								<mediatype>audio</mediatype>
								<trackindex>4</trackindex>
								<clipindex>1</clipindex>
							</link>
							<link>
								<linkclipref>msub200012-3011-k1d2-007 28</linkclipref>
								<mediatype>audio</mediatype>
								<trackindex>5</trackindex>
								<clipindex>1</clipindex>
							</link>
							<link>
								<linkclipref>msub200012-3011-k1d2-007 29</linkclipref>
								<mediatype>audio</mediatype>
								<trackindex>6</trackindex>
								<clipindex>1</clipindex>
							</link>
							<link>
								<linkclipref>msub200012-3011-k1d2-007 30</linkclipref>
								<mediatype>audio</mediatype>
								<trackindex>7</trackindex>
								<clipindex>1</clipindex>
							</link>
							<link>
								<linkclipref>msub200012-3011-k1d2-007 31</linkclipref>
								<mediatype>audio</mediatype>
								<trackindex>8</trackindex>
								<clipindex>1</clipindex>
							</link>
						</clipitem>
						<enabled>TRUE</enabled>
						<locked>FALSE</locked>
					</track>
					<track>
						<clipitem id="msub200012-3011-k1d2-007 30">
							<name>msub200012-3011-k1d2-007</name>
							<duration>5622</duration>
							<rate>
								<ntsc>FALSE</ntsc>
								<timebase>25</timebase>
							</rate>
							<in>0</in>
							<out>5622</out>
							<start>0</start>
							<end>5622</end>
							<subframeoffset>0</subframeoffset>
							<masterclipid>msub200012-3011-k1d2-007 1</masterclipid>
							<syncoffset>0</syncoffset>
							<logginginfo>
								<scene/>
								<shottake/>
								<lognote/>
								<good>FALSE</good>
							</logginginfo>
							<labels>
								<label>Interviews</label>
								<label2/>
							</labels>
							<comments>
								<mastercomment1>RÃ…STOFF. BR_FINFREDAG_MSUA_OPRO</mastercomment1>
								<mastercomment2/>
								<mastercomment3/>
								<mastercomment4/>
							</comments>
							<file id="msub200012-3011-k1d2-007 2"/>
							<filter>
								<effect>
									<name>Audio Levels</name>
									<effectid>audiolevels</effectid>
									<effectcategory>audiolevels</effectcategory>
									<effecttype>audiolevels</effecttype>
									<mediatype>audio</mediatype>
									<parameter>
										<name>Level</name>
										<parameterid>level</parameterid>
										<valuemin>0</valuemin>
										<valuemax>3.98109</valuemax>
										<value>1</value>
									</parameter>
								</effect>
							</filter>
							<filter>
								<effect>
									<name>Audio Pan</name>
									<effectid>audiopan</effectid>
									<effectcategory>audiopan</effectcategory>
									<effecttype>audiopan</effecttype>
									<mediatype>audio</mediatype>
									<parameter>
										<name>Pan</name>
										<parameterid>pan</parameterid>
										<valuemin>-1</valuemin>
										<valuemax>1</valuemax>
										<value>0</value>
									</parameter>
								</effect>
							</filter>
							<sourcetrack>
								<mediatype>audio</mediatype>
								<trackindex>7</trackindex>
							</sourcetrack>
							<link>
								<linkclipref>msub200012-3011-k1d2-007 23</linkclipref>
								<mediatype>video</mediatype>
								<trackindex>1</trackindex>
								<clipindex>1</clipindex>
							</link>
							<link>
								<linkclipref>msub200012-3011-k1d2-007 24</linkclipref>
								<mediatype>audio</mediatype>
								<trackindex>1</trackindex>
								<clipindex>1</clipindex>
							</link>
							<link>
								<linkclipref>msub200012-3011-k1d2-007 25</linkclipref>
								<mediatype>audio</mediatype>
								<trackindex>2</trackindex>
								<clipindex>1</clipindex>
							</link>
							<link>
								<linkclipref>msub200012-3011-k1d2-007 26</linkclipref>
								<mediatype>audio</mediatype>
								<trackindex>3</trackindex>
								<clipindex>1</clipindex>
							</link>
							<link>
								<linkclipref>msub200012-3011-k1d2-007 27</linkclipref>
								<mediatype>audio</mediatype>
								<trackindex>4</trackindex>
								<clipindex>1</clipindex>
							</link>
							<link>
								<linkclipref>msub200012-3011-k1d2-007 28</linkclipref>
								<mediatype>audio</mediatype>
								<trackindex>5</trackindex>
								<clipindex>1</clipindex>
							</link>
							<link>
								<linkclipref>msub200012-3011-k1d2-007 29</linkclipref>
								<mediatype>audio</mediatype>
								<trackindex>6</trackindex>
								<clipindex>1</clipindex>
							</link>
							<link>
								<linkclipref>msub200012-3011-k1d2-007 30</linkclipref>
								<mediatype>audio</mediatype>
								<trackindex>7</trackindex>
								<clipindex>1</clipindex>
							</link>
							<link>
								<linkclipref>msub200012-3011-k1d2-007 31</linkclipref>
								<mediatype>audio</mediatype>
								<trackindex>8</trackindex>
								<clipindex>1</clipindex>
							</link>
						</clipitem>
						<enabled>TRUE</enabled>
						<locked>FALSE</locked>
					</track>
					<track>
						<clipitem id="msub200012-3011-k1d2-007 31">
							<name>msub200012-3011-k1d2-007</name>
							<duration>5622</duration>
							<rate>
								<ntsc>FALSE</ntsc>
								<timebase>25</timebase>
							</rate>
							<in>0</in>
							<out>5622</out>
							<start>0</start>
							<end>5622</end>
							<subframeoffset>0</subframeoffset>
							<masterclipid>msub200012-3011-k1d2-007 1</masterclipid>
							<syncoffset>0</syncoffset>
							<logginginfo>
								<scene/>
								<shottake/>
								<lognote/>
								<good>FALSE</good>
							</logginginfo>
							<labels>
								<label>Interviews</label>
								<label2/>
							</labels>
							<comments>
								<mastercomment1>RÃ…STOFF. BR_FINFREDAG_MSUA_OPRO</mastercomment1>
								<mastercomment2/>
								<mastercomment3/>
								<mastercomment4/>
							</comments>
							<file id="msub200012-3011-k1d2-007 2"/>
							<filter>
								<effect>
									<name>Audio Levels</name>
									<effectid>audiolevels</effectid>
									<effectcategory>audiolevels</effectcategory>
									<effecttype>audiolevels</effecttype>
									<mediatype>audio</mediatype>
									<parameter>
										<name>Level</name>
										<parameterid>level</parameterid>
										<valuemin>0</valuemin>
										<valuemax>3.98109</valuemax>
										<value>1</value>
									</parameter>
								</effect>
							</filter>
							<filter>
								<effect>
									<name>Audio Pan</name>
									<effectid>audiopan</effectid>
									<effectcategory>audiopan</effectcategory>
									<effecttype>audiopan</effecttype>
									<mediatype>audio</mediatype>
									<parameter>
										<name>Pan</name>
										<parameterid>pan</parameterid>
										<valuemin>-1</valuemin>
										<valuemax>1</valuemax>
										<value>0</value>
									</parameter>
								</effect>
							</filter>
							<sourcetrack>
								<mediatype>audio</mediatype>
								<trackindex>8</trackindex>
							</sourcetrack>
							<link>
								<linkclipref>msub200012-3011-k1d2-007 23</linkclipref>
								<mediatype>video</mediatype>
								<trackindex>1</trackindex>
								<clipindex>1</clipindex>
							</link>
							<link>
								<linkclipref>msub200012-3011-k1d2-007 24</linkclipref>
								<mediatype>audio</mediatype>
								<trackindex>1</trackindex>
								<clipindex>1</clipindex>
							</link>
							<link>
								<linkclipref>msub200012-3011-k1d2-007 25</linkclipref>
								<mediatype>audio</mediatype>
								<trackindex>2</trackindex>
								<clipindex>1</clipindex>
							</link>
							<link>
								<linkclipref>msub200012-3011-k1d2-007 26</linkclipref>
								<mediatype>audio</mediatype>
								<trackindex>3</trackindex>
								<clipindex>1</clipindex>
							</link>
							<link>
								<linkclipref>msub200012-3011-k1d2-007 27</linkclipref>
								<mediatype>audio</mediatype>
								<trackindex>4</trackindex>
								<clipindex>1</clipindex>
							</link>
							<link>
								<linkclipref>msub200012-3011-k1d2-007 28</linkclipref>
								<mediatype>audio</mediatype>
								<trackindex>5</trackindex>
								<clipindex>1</clipindex>
							</link>
							<link>
								<linkclipref>msub200012-3011-k1d2-007 29</linkclipref>
								<mediatype>audio</mediatype>
								<trackindex>6</trackindex>
								<clipindex>1</clipindex>
							</link>
							<link>
								<linkclipref>msub200012-3011-k1d2-007 30</linkclipref>
								<mediatype>audio</mediatype>
								<trackindex>7</trackindex>
								<clipindex>1</clipindex>
							</link>
							<link>
								<linkclipref>msub200012-3011-k1d2-007 31</linkclipref>
								<mediatype>audio</mediatype>
								<trackindex>8</trackindex>
								<clipindex>1</clipindex>
							</link>
						</clipitem>
						<enabled>TRUE</enabled>
						<locked>FALSE</locked>
					</track>
				</audio>
			</media>
		</clip>
		<clip id="msub200012-3011-k1d2-008 26">
			<name>msub200012-3011-k1d2-008</name>
			<duration>9650</duration>
			<rate>
				<ntsc>FALSE</ntsc>
				<timebase>25</timebase>
			</rate>
			<in>7920</in>
			<out>8002</out>
			<masterclipid>msub200012-3011-k1d2-008 1</masterclipid>
			<ismasterclip>FALSE</ismasterclip>
			<logginginfo>
				<description>msub200012-3011-k1d2-008</description>
				<scene/>
				<shottake/>
				<lognote/>
				<good>FALSE</good>
			</logginginfo>
			<labels>
				<label>Good Take</label>
				<label2/>
			</labels>
			<comments>
				<mastercomment1>RÃ…STOFF. BR_FINFREDAG_MSUA_OPRO</mastercomment1>
				<mastercomment2/>
				<mastercomment3/>
				<mastercomment4/>
				<clipcommenta/>
			</comments>
			<media>
				<video>
					<track>
						<clipitem id="msub200012-3011-k1d2-008 27">
							<name>msub200012-3011-k1d2-008</name>
							<duration>9650</duration>
							<rate>
								<ntsc>FALSE</ntsc>
								<timebase>25</timebase>
							</rate>
							<in>0</in>
							<out>9650</out>
							<start>0</start>
							<end>9650</end>
							<pixelaspectratio>Square</pixelaspectratio>
							<anamorphic>FALSE</anamorphic>
							<alphatype>none</alphatype>
							<masterclipid>msub200012-3011-k1d2-008 1</masterclipid>
							<syncoffset>0</syncoffset>
							<logginginfo>
								<description>msub200012-3011-k1d2-008</description>
								<scene/>
								<shottake/>
								<lognote/>
								<good>FALSE</good>
							</logginginfo>
							<labels>
								<label>Good Take</label>
								<label2/>
							</labels>
							<comments>
								<mastercomment1>RÃ…STOFF. BR_FINFREDAG_MSUA_OPRO</mastercomment1>
								<mastercomment2/>
								<mastercomment3/>
								<mastercomment4/>
								<clipcommenta/>
							</comments>
							<file id="msub200012-3011-k1d2-008 2"/>
							<sourcetrack>
								<mediatype>video</mediatype>
							</sourcetrack>
							<link>
								<linkclipref>msub200012-3011-k1d2-008 27</linkclipref>
								<mediatype>video</mediatype>
								<trackindex>1</trackindex>
								<clipindex>1</clipindex>
							</link>
							<link>
								<linkclipref>msub200012-3011-k1d2-008 28</linkclipref>
								<mediatype>audio</mediatype>
								<trackindex>1</trackindex>
								<clipindex>1</clipindex>
							</link>
							<link>
								<linkclipref>msub200012-3011-k1d2-008 29</linkclipref>
								<mediatype>audio</mediatype>
								<trackindex>2</trackindex>
								<clipindex>1</clipindex>
							</link>
							<link>
								<linkclipref>msub200012-3011-k1d2-008 30</linkclipref>
								<mediatype>audio</mediatype>
								<trackindex>3</trackindex>
								<clipindex>1</clipindex>
							</link>
							<link>
								<linkclipref>msub200012-3011-k1d2-008 31</linkclipref>
								<mediatype>audio</mediatype>
								<trackindex>4</trackindex>
								<clipindex>1</clipindex>
							</link>
							<link>
								<linkclipref>msub200012-3011-k1d2-008 32</linkclipref>
								<mediatype>audio</mediatype>
								<trackindex>5</trackindex>
								<clipindex>1</clipindex>
							</link>
							<link>
								<linkclipref>msub200012-3011-k1d2-008 33</linkclipref>
								<mediatype>audio</mediatype>
								<trackindex>6</trackindex>
								<clipindex>1</clipindex>
							</link>
							<link>
								<linkclipref>msub200012-3011-k1d2-008 34</linkclipref>
								<mediatype>audio</mediatype>
								<trackindex>7</trackindex>
								<clipindex>1</clipindex>
							</link>
							<link>
								<linkclipref>msub200012-3011-k1d2-008 35</linkclipref>
								<mediatype>audio</mediatype>
								<trackindex>8</trackindex>
								<clipindex>1</clipindex>
							</link>
							<fielddominance>upper</fielddominance>
						</clipitem>
						<enabled>TRUE</enabled>
						<locked>FALSE</locked>
					</track>
				</video>
				<audio>
					<in>7920</in>
					<out>8002</out>
					<track>
						<clipitem id="msub200012-3011-k1d2-008 28">
							<name>msub200012-3011-k1d2-008</name>
							<duration>9650</duration>
							<rate>
								<ntsc>FALSE</ntsc>
								<timebase>25</timebase>
							</rate>
							<in>0</in>
							<out>9650</out>
							<start>0</start>
							<end>9650</end>
							<subframeoffset>0</subframeoffset>
							<masterclipid>msub200012-3011-k1d2-008 1</masterclipid>
							<syncoffset>0</syncoffset>
							<logginginfo>
								<description>msub200012-3011-k1d2-008</description>
								<scene/>
								<shottake/>
								<lognote/>
								<good>FALSE</good>
							</logginginfo>
							<labels>
								<label>Good Take</label>
								<label2/>
							</labels>
							<comments>
								<mastercomment1>RÃ…STOFF. BR_FINFREDAG_MSUA_OPRO</mastercomment1>
								<mastercomment2/>
								<mastercomment3/>
								<mastercomment4/>
								<clipcommenta/>
							</comments>
							<file id="msub200012-3011-k1d2-008 2"/>
							<filter>
								<effect>
									<name>Audio Levels</name>
									<effectid>audiolevels</effectid>
									<effectcategory>audiolevels</effectcategory>
									<effecttype>audiolevels</effecttype>
									<mediatype>audio</mediatype>
									<parameter>
										<name>Level</name>
										<parameterid>level</parameterid>
										<valuemin>0</valuemin>
										<valuemax>3.98109</valuemax>
										<value>1</value>
									</parameter>
								</effect>
							</filter>
							<filter>
								<effect>
									<name>Audio Pan</name>
									<effectid>audiopan</effectid>
									<effectcategory>audiopan</effectcategory>
									<effecttype>audiopan</effecttype>
									<mediatype>audio</mediatype>
									<parameter>
										<name>Pan</name>
										<parameterid>pan</parameterid>
										<valuemin>-1</valuemin>
										<valuemax>1</valuemax>
										<value>0</value>
									</parameter>
								</effect>
							</filter>
							<sourcetrack>
								<mediatype>audio</mediatype>
								<trackindex>1</trackindex>
							</sourcetrack>
							<link>
								<linkclipref>msub200012-3011-k1d2-008 27</linkclipref>
								<mediatype>video</mediatype>
								<trackindex>1</trackindex>
								<clipindex>1</clipindex>
							</link>
							<link>
								<linkclipref>msub200012-3011-k1d2-008 28</linkclipref>
								<mediatype>audio</mediatype>
								<trackindex>1</trackindex>
								<clipindex>1</clipindex>
							</link>
							<link>
								<linkclipref>msub200012-3011-k1d2-008 29</linkclipref>
								<mediatype>audio</mediatype>
								<trackindex>2</trackindex>
								<clipindex>1</clipindex>
							</link>
							<link>
								<linkclipref>msub200012-3011-k1d2-008 30</linkclipref>
								<mediatype>audio</mediatype>
								<trackindex>3</trackindex>
								<clipindex>1</clipindex>
							</link>
							<link>
								<linkclipref>msub200012-3011-k1d2-008 31</linkclipref>
								<mediatype>audio</mediatype>
								<trackindex>4</trackindex>
								<clipindex>1</clipindex>
							</link>
							<link>
								<linkclipref>msub200012-3011-k1d2-008 32</linkclipref>
								<mediatype>audio</mediatype>
								<trackindex>5</trackindex>
								<clipindex>1</clipindex>
							</link>
							<link>
								<linkclipref>msub200012-3011-k1d2-008 33</linkclipref>
								<mediatype>audio</mediatype>
								<trackindex>6</trackindex>
								<clipindex>1</clipindex>
							</link>
							<link>
								<linkclipref>msub200012-3011-k1d2-008 34</linkclipref>
								<mediatype>audio</mediatype>
								<trackindex>7</trackindex>
								<clipindex>1</clipindex>
							</link>
							<link>
								<linkclipref>msub200012-3011-k1d2-008 35</linkclipref>
								<mediatype>audio</mediatype>
								<trackindex>8</trackindex>
								<clipindex>1</clipindex>
							</link>
						</clipitem>
						<enabled>TRUE</enabled>
						<locked>FALSE</locked>
					</track>
					<track>
						<clipitem id="msub200012-3011-k1d2-008 29">
							<name>msub200012-3011-k1d2-008</name>
							<duration>9650</duration>
							<rate>
								<ntsc>FALSE</ntsc>
								<timebase>25</timebase>
							</rate>
							<in>0</in>
							<out>9650</out>
							<start>0</start>
							<end>9650</end>
							<subframeoffset>0</subframeoffset>
							<masterclipid>msub200012-3011-k1d2-008 1</masterclipid>
							<syncoffset>0</syncoffset>
							<logginginfo>
								<description>msub200012-3011-k1d2-008</description>
								<scene/>
								<shottake/>
								<lognote/>
								<good>FALSE</good>
							</logginginfo>
							<labels>
								<label>Good Take</label>
								<label2/>
							</labels>
							<comments>
								<mastercomment1>RÃ…STOFF. BR_FINFREDAG_MSUA_OPRO</mastercomment1>
								<mastercomment2/>
								<mastercomment3/>
								<mastercomment4/>
								<clipcommenta/>
							</comments>
							<file id="msub200012-3011-k1d2-008 2"/>
							<filter>
								<effect>
									<name>Audio Levels</name>
									<effectid>audiolevels</effectid>
									<effectcategory>audiolevels</effectcategory>
									<effecttype>audiolevels</effecttype>
									<mediatype>audio</mediatype>
									<parameter>
										<name>Level</name>
										<parameterid>level</parameterid>
										<valuemin>0</valuemin>
										<valuemax>3.98109</valuemax>
										<value>1</value>
									</parameter>
								</effect>
							</filter>
							<filter>
								<effect>
									<name>Audio Pan</name>
									<effectid>audiopan</effectid>
									<effectcategory>audiopan</effectcategory>
									<effecttype>audiopan</effecttype>
									<mediatype>audio</mediatype>
									<parameter>
										<name>Pan</name>
										<parameterid>pan</parameterid>
										<valuemin>-1</valuemin>
										<valuemax>1</valuemax>
										<value>0</value>
									</parameter>
								</effect>
							</filter>
							<sourcetrack>
								<mediatype>audio</mediatype>
								<trackindex>2</trackindex>
							</sourcetrack>
							<link>
								<linkclipref>msub200012-3011-k1d2-008 27</linkclipref>
								<mediatype>video</mediatype>
								<trackindex>1</trackindex>
								<clipindex>1</clipindex>
							</link>
							<link>
								<linkclipref>msub200012-3011-k1d2-008 28</linkclipref>
								<mediatype>audio</mediatype>
								<trackindex>1</trackindex>
								<clipindex>1</clipindex>
							</link>
							<link>
								<linkclipref>msub200012-3011-k1d2-008 29</linkclipref>
								<mediatype>audio</mediatype>
								<trackindex>2</trackindex>
								<clipindex>1</clipindex>
							</link>
							<link>
								<linkclipref>msub200012-3011-k1d2-008 30</linkclipref>
								<mediatype>audio</mediatype>
								<trackindex>3</trackindex>
								<clipindex>1</clipindex>
							</link>
							<link>
								<linkclipref>msub200012-3011-k1d2-008 31</linkclipref>
								<mediatype>audio</mediatype>
								<trackindex>4</trackindex>
								<clipindex>1</clipindex>
							</link>
							<link>
								<linkclipref>msub200012-3011-k1d2-008 32</linkclipref>
								<mediatype>audio</mediatype>
								<trackindex>5</trackindex>
								<clipindex>1</clipindex>
							</link>
							<link>
								<linkclipref>msub200012-3011-k1d2-008 33</linkclipref>
								<mediatype>audio</mediatype>
								<trackindex>6</trackindex>
								<clipindex>1</clipindex>
							</link>
							<link>
								<linkclipref>msub200012-3011-k1d2-008 34</linkclipref>
								<mediatype>audio</mediatype>
								<trackindex>7</trackindex>
								<clipindex>1</clipindex>
							</link>
							<link>
								<linkclipref>msub200012-3011-k1d2-008 35</linkclipref>
								<mediatype>audio</mediatype>
								<trackindex>8</trackindex>
								<clipindex>1</clipindex>
							</link>
						</clipitem>
						<enabled>TRUE</enabled>
						<locked>FALSE</locked>
					</track>
					<track>
						<clipitem id="msub200012-3011-k1d2-008 30">
							<name>msub200012-3011-k1d2-008</name>
							<duration>9650</duration>
							<rate>
								<ntsc>FALSE</ntsc>
								<timebase>25</timebase>
							</rate>
							<in>0</in>
							<out>9650</out>
							<start>0</start>
							<end>9650</end>
							<subframeoffset>0</subframeoffset>
							<masterclipid>msub200012-3011-k1d2-008 1</masterclipid>
							<syncoffset>0</syncoffset>
							<logginginfo>
								<description>msub200012-3011-k1d2-008</description>
								<scene/>
								<shottake/>
								<lognote/>
								<good>FALSE</good>
							</logginginfo>
							<labels>
								<label>Good Take</label>
								<label2/>
							</labels>
							<comments>
								<mastercomment1>RÃ…STOFF. BR_FINFREDAG_MSUA_OPRO</mastercomment1>
								<mastercomment2/>
								<mastercomment3/>
								<mastercomment4/>
								<clipcommenta/>
							</comments>
							<file id="msub200012-3011-k1d2-008 2"/>
							<filter>
								<effect>
									<name>Audio Levels</name>
									<effectid>audiolevels</effectid>
									<effectcategory>audiolevels</effectcategory>
									<effecttype>audiolevels</effecttype>
									<mediatype>audio</mediatype>
									<parameter>
										<name>Level</name>
										<parameterid>level</parameterid>
										<valuemin>0</valuemin>
										<valuemax>3.98109</valuemax>
										<value>1</value>
									</parameter>
								</effect>
							</filter>
							<filter>
								<effect>
									<name>Audio Pan</name>
									<effectid>audiopan</effectid>
									<effectcategory>audiopan</effectcategory>
									<effecttype>audiopan</effecttype>
									<mediatype>audio</mediatype>
									<parameter>
										<name>Pan</name>
										<parameterid>pan</parameterid>
										<valuemin>-1</valuemin>
										<valuemax>1</valuemax>
										<value>0</value>
									</parameter>
								</effect>
							</filter>
							<sourcetrack>
								<mediatype>audio</mediatype>
								<trackindex>3</trackindex>
							</sourcetrack>
							<link>
								<linkclipref>msub200012-3011-k1d2-008 27</linkclipref>
								<mediatype>video</mediatype>
								<trackindex>1</trackindex>
								<clipindex>1</clipindex>
							</link>
							<link>
								<linkclipref>msub200012-3011-k1d2-008 28</linkclipref>
								<mediatype>audio</mediatype>
								<trackindex>1</trackindex>
								<clipindex>1</clipindex>
							</link>
							<link>
								<linkclipref>msub200012-3011-k1d2-008 29</linkclipref>
								<mediatype>audio</mediatype>
								<trackindex>2</trackindex>
								<clipindex>1</clipindex>
							</link>
							<link>
								<linkclipref>msub200012-3011-k1d2-008 30</linkclipref>
								<mediatype>audio</mediatype>
								<trackindex>3</trackindex>
								<clipindex>1</clipindex>
							</link>
							<link>
								<linkclipref>msub200012-3011-k1d2-008 31</linkclipref>
								<mediatype>audio</mediatype>
								<trackindex>4</trackindex>
								<clipindex>1</clipindex>
							</link>
							<link>
								<linkclipref>msub200012-3011-k1d2-008 32</linkclipref>
								<mediatype>audio</mediatype>
								<trackindex>5</trackindex>
								<clipindex>1</clipindex>
							</link>
							<link>
								<linkclipref>msub200012-3011-k1d2-008 33</linkclipref>
								<mediatype>audio</mediatype>
								<trackindex>6</trackindex>
								<clipindex>1</clipindex>
							</link>
							<link>
								<linkclipref>msub200012-3011-k1d2-008 34</linkclipref>
								<mediatype>audio</mediatype>
								<trackindex>7</trackindex>
								<clipindex>1</clipindex>
							</link>
							<link>
								<linkclipref>msub200012-3011-k1d2-008 35</linkclipref>
								<mediatype>audio</mediatype>
								<trackindex>8</trackindex>
								<clipindex>1</clipindex>
							</link>
						</clipitem>
						<enabled>TRUE</enabled>
						<locked>FALSE</locked>
					</track>
					<track>
						<clipitem id="msub200012-3011-k1d2-008 31">
							<name>msub200012-3011-k1d2-008</name>
							<duration>9650</duration>
							<rate>
								<ntsc>FALSE</ntsc>
								<timebase>25</timebase>
							</rate>
							<in>0</in>
							<out>9650</out>
							<start>0</start>
							<end>9650</end>
							<subframeoffset>0</subframeoffset>
							<masterclipid>msub200012-3011-k1d2-008 1</masterclipid>
							<syncoffset>0</syncoffset>
							<logginginfo>
								<description>msub200012-3011-k1d2-008</description>
								<scene/>
								<shottake/>
								<lognote/>
								<good>FALSE</good>
							</logginginfo>
							<labels>
								<label>Good Take</label>
								<label2/>
							</labels>
							<comments>
								<mastercomment1>RÃ…STOFF. BR_FINFREDAG_MSUA_OPRO</mastercomment1>
								<mastercomment2/>
								<mastercomment3/>
								<mastercomment4/>
								<clipcommenta/>
							</comments>
							<file id="msub200012-3011-k1d2-008 2"/>
							<filter>
								<effect>
									<name>Audio Levels</name>
									<effectid>audiolevels</effectid>
									<effectcategory>audiolevels</effectcategory>
									<effecttype>audiolevels</effecttype>
									<mediatype>audio</mediatype>
									<parameter>
										<name>Level</name>
										<parameterid>level</parameterid>
										<valuemin>0</valuemin>
										<valuemax>3.98109</valuemax>
										<value>1</value>
									</parameter>
								</effect>
							</filter>
							<filter>
								<effect>
									<name>Audio Pan</name>
									<effectid>audiopan</effectid>
									<effectcategory>audiopan</effectcategory>
									<effecttype>audiopan</effecttype>
									<mediatype>audio</mediatype>
									<parameter>
										<name>Pan</name>
										<parameterid>pan</parameterid>
										<valuemin>-1</valuemin>
										<valuemax>1</valuemax>
										<value>0</value>
									</parameter>
								</effect>
							</filter>
							<sourcetrack>
								<mediatype>audio</mediatype>
								<trackindex>4</trackindex>
							</sourcetrack>
							<link>
								<linkclipref>msub200012-3011-k1d2-008 27</linkclipref>
								<mediatype>video</mediatype>
								<trackindex>1</trackindex>
								<clipindex>1</clipindex>
							</link>
							<link>
								<linkclipref>msub200012-3011-k1d2-008 28</linkclipref>
								<mediatype>audio</mediatype>
								<trackindex>1</trackindex>
								<clipindex>1</clipindex>
							</link>
							<link>
								<linkclipref>msub200012-3011-k1d2-008 29</linkclipref>
								<mediatype>audio</mediatype>
								<trackindex>2</trackindex>
								<clipindex>1</clipindex>
							</link>
							<link>
								<linkclipref>msub200012-3011-k1d2-008 30</linkclipref>
								<mediatype>audio</mediatype>
								<trackindex>3</trackindex>
								<clipindex>1</clipindex>
							</link>
							<link>
								<linkclipref>msub200012-3011-k1d2-008 31</linkclipref>
								<mediatype>audio</mediatype>
								<trackindex>4</trackindex>
								<clipindex>1</clipindex>
							</link>
							<link>
								<linkclipref>msub200012-3011-k1d2-008 32</linkclipref>
								<mediatype>audio</mediatype>
								<trackindex>5</trackindex>
								<clipindex>1</clipindex>
							</link>
							<link>
								<linkclipref>msub200012-3011-k1d2-008 33</linkclipref>
								<mediatype>audio</mediatype>
								<trackindex>6</trackindex>
								<clipindex>1</clipindex>
							</link>
							<link>
								<linkclipref>msub200012-3011-k1d2-008 34</linkclipref>
								<mediatype>audio</mediatype>
								<trackindex>7</trackindex>
								<clipindex>1</clipindex>
							</link>
							<link>
								<linkclipref>msub200012-3011-k1d2-008 35</linkclipref>
								<mediatype>audio</mediatype>
								<trackindex>8</trackindex>
								<clipindex>1</clipindex>
							</link>
						</clipitem>
						<enabled>TRUE</enabled>
						<locked>FALSE</locked>
					</track>
					<track>
						<clipitem id="msub200012-3011-k1d2-008 32">
							<name>msub200012-3011-k1d2-008</name>
							<duration>9650</duration>
							<rate>
								<ntsc>FALSE</ntsc>
								<timebase>25</timebase>
							</rate>
							<in>0</in>
							<out>9650</out>
							<start>0</start>
							<end>9650</end>
							<subframeoffset>0</subframeoffset>
							<masterclipid>msub200012-3011-k1d2-008 1</masterclipid>
							<syncoffset>0</syncoffset>
							<logginginfo>
								<description>msub200012-3011-k1d2-008</description>
								<scene/>
								<shottake/>
								<lognote/>
								<good>FALSE</good>
							</logginginfo>
							<labels>
								<label>Good Take</label>
								<label2/>
							</labels>
							<comments>
								<mastercomment1>RÃ…STOFF. BR_FINFREDAG_MSUA_OPRO</mastercomment1>
								<mastercomment2/>
								<mastercomment3/>
								<mastercomment4/>
								<clipcommenta/>
							</comments>
							<file id="msub200012-3011-k1d2-008 2"/>
							<filter>
								<effect>
									<name>Audio Levels</name>
									<effectid>audiolevels</effectid>
									<effectcategory>audiolevels</effectcategory>
									<effecttype>audiolevels</effecttype>
									<mediatype>audio</mediatype>
									<parameter>
										<name>Level</name>
										<parameterid>level</parameterid>
										<valuemin>0</valuemin>
										<valuemax>3.98109</valuemax>
										<value>1</value>
									</parameter>
								</effect>
							</filter>
							<filter>
								<effect>
									<name>Audio Pan</name>
									<effectid>audiopan</effectid>
									<effectcategory>audiopan</effectcategory>
									<effecttype>audiopan</effecttype>
									<mediatype>audio</mediatype>
									<parameter>
										<name>Pan</name>
										<parameterid>pan</parameterid>
										<valuemin>-1</valuemin>
										<valuemax>1</valuemax>
										<value>0</value>
									</parameter>
								</effect>
							</filter>
							<sourcetrack>
								<mediatype>audio</mediatype>
								<trackindex>5</trackindex>
							</sourcetrack>
							<link>
								<linkclipref>msub200012-3011-k1d2-008 27</linkclipref>
								<mediatype>video</mediatype>
								<trackindex>1</trackindex>
								<clipindex>1</clipindex>
							</link>
							<link>
								<linkclipref>msub200012-3011-k1d2-008 28</linkclipref>
								<mediatype>audio</mediatype>
								<trackindex>1</trackindex>
								<clipindex>1</clipindex>
							</link>
							<link>
								<linkclipref>msub200012-3011-k1d2-008 29</linkclipref>
								<mediatype>audio</mediatype>
								<trackindex>2</trackindex>
								<clipindex>1</clipindex>
							</link>
							<link>
								<linkclipref>msub200012-3011-k1d2-008 30</linkclipref>
								<mediatype>audio</mediatype>
								<trackindex>3</trackindex>
								<clipindex>1</clipindex>
							</link>
							<link>
								<linkclipref>msub200012-3011-k1d2-008 31</linkclipref>
								<mediatype>audio</mediatype>
								<trackindex>4</trackindex>
								<clipindex>1</clipindex>
							</link>
							<link>
								<linkclipref>msub200012-3011-k1d2-008 32</linkclipref>
								<mediatype>audio</mediatype>
								<trackindex>5</trackindex>
								<clipindex>1</clipindex>
							</link>
							<link>
								<linkclipref>msub200012-3011-k1d2-008 33</linkclipref>
								<mediatype>audio</mediatype>
								<trackindex>6</trackindex>
								<clipindex>1</clipindex>
							</link>
							<link>
								<linkclipref>msub200012-3011-k1d2-008 34</linkclipref>
								<mediatype>audio</mediatype>
								<trackindex>7</trackindex>
								<clipindex>1</clipindex>
							</link>
							<link>
								<linkclipref>msub200012-3011-k1d2-008 35</linkclipref>
								<mediatype>audio</mediatype>
								<trackindex>8</trackindex>
								<clipindex>1</clipindex>
							</link>
						</clipitem>
						<enabled>TRUE</enabled>
						<locked>FALSE</locked>
					</track>
					<track>
						<clipitem id="msub200012-3011-k1d2-008 33">
							<name>msub200012-3011-k1d2-008</name>
							<duration>9650</duration>
							<rate>
								<ntsc>FALSE</ntsc>
								<timebase>25</timebase>
							</rate>
							<in>0</in>
							<out>9650</out>
							<start>0</start>
							<end>9650</end>
							<subframeoffset>0</subframeoffset>
							<masterclipid>msub200012-3011-k1d2-008 1</masterclipid>
							<syncoffset>0</syncoffset>
							<logginginfo>
								<description>msub200012-3011-k1d2-008</description>
								<scene/>
								<shottake/>
								<lognote/>
								<good>FALSE</good>
							</logginginfo>
							<labels>
								<label>Good Take</label>
								<label2/>
							</labels>
							<comments>
								<mastercomment1>RÃ…STOFF. BR_FINFREDAG_MSUA_OPRO</mastercomment1>
								<mastercomment2/>
								<mastercomment3/>
								<mastercomment4/>
								<clipcommenta/>
							</comments>
							<file id="msub200012-3011-k1d2-008 2"/>
							<filter>
								<effect>
									<name>Audio Levels</name>
									<effectid>audiolevels</effectid>
									<effectcategory>audiolevels</effectcategory>
									<effecttype>audiolevels</effecttype>
									<mediatype>audio</mediatype>
									<parameter>
										<name>Level</name>
										<parameterid>level</parameterid>
										<valuemin>0</valuemin>
										<valuemax>3.98109</valuemax>
										<value>1</value>
									</parameter>
								</effect>
							</filter>
							<filter>
								<effect>
									<name>Audio Pan</name>
									<effectid>audiopan</effectid>
									<effectcategory>audiopan</effectcategory>
									<effecttype>audiopan</effecttype>
									<mediatype>audio</mediatype>
									<parameter>
										<name>Pan</name>
										<parameterid>pan</parameterid>
										<valuemin>-1</valuemin>
										<valuemax>1</valuemax>
										<value>0</value>
									</parameter>
								</effect>
							</filter>
							<sourcetrack>
								<mediatype>audio</mediatype>
								<trackindex>6</trackindex>
							</sourcetrack>
							<link>
								<linkclipref>msub200012-3011-k1d2-008 27</linkclipref>
								<mediatype>video</mediatype>
								<trackindex>1</trackindex>
								<clipindex>1</clipindex>
							</link>
							<link>
								<linkclipref>msub200012-3011-k1d2-008 28</linkclipref>
								<mediatype>audio</mediatype>
								<trackindex>1</trackindex>
								<clipindex>1</clipindex>
							</link>
							<link>
								<linkclipref>msub200012-3011-k1d2-008 29</linkclipref>
								<mediatype>audio</mediatype>
								<trackindex>2</trackindex>
								<clipindex>1</clipindex>
							</link>
							<link>
								<linkclipref>msub200012-3011-k1d2-008 30</linkclipref>
								<mediatype>audio</mediatype>
								<trackindex>3</trackindex>
								<clipindex>1</clipindex>
							</link>
							<link>
								<linkclipref>msub200012-3011-k1d2-008 31</linkclipref>
								<mediatype>audio</mediatype>
								<trackindex>4</trackindex>
								<clipindex>1</clipindex>
							</link>
							<link>
								<linkclipref>msub200012-3011-k1d2-008 32</linkclipref>
								<mediatype>audio</mediatype>
								<trackindex>5</trackindex>
								<clipindex>1</clipindex>
							</link>
							<link>
								<linkclipref>msub200012-3011-k1d2-008 33</linkclipref>
								<mediatype>audio</mediatype>
								<trackindex>6</trackindex>
								<clipindex>1</clipindex>
							</link>
							<link>
								<linkclipref>msub200012-3011-k1d2-008 34</linkclipref>
								<mediatype>audio</mediatype>
								<trackindex>7</trackindex>
								<clipindex>1</clipindex>
							</link>
							<link>
								<linkclipref>msub200012-3011-k1d2-008 35</linkclipref>
								<mediatype>audio</mediatype>
								<trackindex>8</trackindex>
								<clipindex>1</clipindex>
							</link>
						</clipitem>
						<enabled>TRUE</enabled>
						<locked>FALSE</locked>
					</track>
					<track>
						<clipitem id="msub200012-3011-k1d2-008 34">
							<name>msub200012-3011-k1d2-008</name>
							<duration>9650</duration>
							<rate>
								<ntsc>FALSE</ntsc>
								<timebase>25</timebase>
							</rate>
							<in>0</in>
							<out>9650</out>
							<start>0</start>
							<end>9650</end>
							<subframeoffset>0</subframeoffset>
							<masterclipid>msub200012-3011-k1d2-008 1</masterclipid>
							<syncoffset>0</syncoffset>
							<logginginfo>
								<description>msub200012-3011-k1d2-008</description>
								<scene/>
								<shottake/>
								<lognote/>
								<good>FALSE</good>
							</logginginfo>
							<labels>
								<label>Good Take</label>
								<label2/>
							</labels>
							<comments>
								<mastercomment1>RÃ…STOFF. BR_FINFREDAG_MSUA_OPRO</mastercomment1>
								<mastercomment2/>
								<mastercomment3/>
								<mastercomment4/>
								<clipcommenta/>
							</comments>
							<file id="msub200012-3011-k1d2-008 2"/>
							<filter>
								<effect>
									<name>Audio Levels</name>
									<effectid>audiolevels</effectid>
									<effectcategory>audiolevels</effectcategory>
									<effecttype>audiolevels</effecttype>
									<mediatype>audio</mediatype>
									<parameter>
										<name>Level</name>
										<parameterid>level</parameterid>
										<valuemin>0</valuemin>
										<valuemax>3.98109</valuemax>
										<value>1</value>
									</parameter>
								</effect>
							</filter>
							<filter>
								<effect>
									<name>Audio Pan</name>
									<effectid>audiopan</effectid>
									<effectcategory>audiopan</effectcategory>
									<effecttype>audiopan</effecttype>
									<mediatype>audio</mediatype>
									<parameter>
										<name>Pan</name>
										<parameterid>pan</parameterid>
										<valuemin>-1</valuemin>
										<valuemax>1</valuemax>
										<value>0</value>
									</parameter>
								</effect>
							</filter>
							<sourcetrack>
								<mediatype>audio</mediatype>
								<trackindex>7</trackindex>
							</sourcetrack>
							<link>
								<linkclipref>msub200012-3011-k1d2-008 27</linkclipref>
								<mediatype>video</mediatype>
								<trackindex>1</trackindex>
								<clipindex>1</clipindex>
							</link>
							<link>
								<linkclipref>msub200012-3011-k1d2-008 28</linkclipref>
								<mediatype>audio</mediatype>
								<trackindex>1</trackindex>
								<clipindex>1</clipindex>
							</link>
							<link>
								<linkclipref>msub200012-3011-k1d2-008 29</linkclipref>
								<mediatype>audio</mediatype>
								<trackindex>2</trackindex>
								<clipindex>1</clipindex>
							</link>
							<link>
								<linkclipref>msub200012-3011-k1d2-008 30</linkclipref>
								<mediatype>audio</mediatype>
								<trackindex>3</trackindex>
								<clipindex>1</clipindex>
							</link>
							<link>
								<linkclipref>msub200012-3011-k1d2-008 31</linkclipref>
								<mediatype>audio</mediatype>
								<trackindex>4</trackindex>
								<clipindex>1</clipindex>
							</link>
							<link>
								<linkclipref>msub200012-3011-k1d2-008 32</linkclipref>
								<mediatype>audio</mediatype>
								<trackindex>5</trackindex>
								<clipindex>1</clipindex>
							</link>
							<link>
								<linkclipref>msub200012-3011-k1d2-008 33</linkclipref>
								<mediatype>audio</mediatype>
								<trackindex>6</trackindex>
								<clipindex>1</clipindex>
							</link>
							<link>
								<linkclipref>msub200012-3011-k1d2-008 34</linkclipref>
								<mediatype>audio</mediatype>
								<trackindex>7</trackindex>
								<clipindex>1</clipindex>
							</link>
							<link>
								<linkclipref>msub200012-3011-k1d2-008 35</linkclipref>
								<mediatype>audio</mediatype>
								<trackindex>8</trackindex>
								<clipindex>1</clipindex>
							</link>
						</clipitem>
						<enabled>TRUE</enabled>
						<locked>FALSE</locked>
					</track>
					<track>
						<clipitem id="msub200012-3011-k1d2-008 35">
							<name>msub200012-3011-k1d2-008</name>
							<duration>9650</duration>
							<rate>
								<ntsc>FALSE</ntsc>
								<timebase>25</timebase>
							</rate>
							<in>0</in>
							<out>9650</out>
							<start>0</start>
							<end>9650</end>
							<subframeoffset>0</subframeoffset>
							<masterclipid>msub200012-3011-k1d2-008 1</masterclipid>
							<syncoffset>0</syncoffset>
							<logginginfo>
								<description>msub200012-3011-k1d2-008</description>
								<scene/>
								<shottake/>
								<lognote/>
								<good>FALSE</good>
							</logginginfo>
							<labels>
								<label>Good Take</label>
								<label2/>
							</labels>
							<comments>
								<mastercomment1>RÃ…STOFF. BR_FINFREDAG_MSUA_OPRO</mastercomment1>
								<mastercomment2/>
								<mastercomment3/>
								<mastercomment4/>
								<clipcommenta/>
							</comments>
							<file id="msub200012-3011-k1d2-008 2"/>
							<filter>
								<effect>
									<name>Audio Levels</name>
									<effectid>audiolevels</effectid>
									<effectcategory>audiolevels</effectcategory>
									<effecttype>audiolevels</effecttype>
									<mediatype>audio</mediatype>
									<parameter>
										<name>Level</name>
										<parameterid>level</parameterid>
										<valuemin>0</valuemin>
										<valuemax>3.98109</valuemax>
										<value>1</value>
									</parameter>
								</effect>
							</filter>
							<filter>
								<effect>
									<name>Audio Pan</name>
									<effectid>audiopan</effectid>
									<effectcategory>audiopan</effectcategory>
									<effecttype>audiopan</effecttype>
									<mediatype>audio</mediatype>
									<parameter>
										<name>Pan</name>
										<parameterid>pan</parameterid>
										<valuemin>-1</valuemin>
										<valuemax>1</valuemax>
										<value>0</value>
									</parameter>
								</effect>
							</filter>
							<sourcetrack>
								<mediatype>audio</mediatype>
								<trackindex>8</trackindex>
							</sourcetrack>
							<link>
								<linkclipref>msub200012-3011-k1d2-008 27</linkclipref>
								<mediatype>video</mediatype>
								<trackindex>1</trackindex>
								<clipindex>1</clipindex>
							</link>
							<link>
								<linkclipref>msub200012-3011-k1d2-008 28</linkclipref>
								<mediatype>audio</mediatype>
								<trackindex>1</trackindex>
								<clipindex>1</clipindex>
							</link>
							<link>
								<linkclipref>msub200012-3011-k1d2-008 29</linkclipref>
								<mediatype>audio</mediatype>
								<trackindex>2</trackindex>
								<clipindex>1</clipindex>
							</link>
							<link>
								<linkclipref>msub200012-3011-k1d2-008 30</linkclipref>
								<mediatype>audio</mediatype>
								<trackindex>3</trackindex>
								<clipindex>1</clipindex>
							</link>
							<link>
								<linkclipref>msub200012-3011-k1d2-008 31</linkclipref>
								<mediatype>audio</mediatype>
								<trackindex>4</trackindex>
								<clipindex>1</clipindex>
							</link>
							<link>
								<linkclipref>msub200012-3011-k1d2-008 32</linkclipref>
								<mediatype>audio</mediatype>
								<trackindex>5</trackindex>
								<clipindex>1</clipindex>
							</link>
							<link>
								<linkclipref>msub200012-3011-k1d2-008 33</linkclipref>
								<mediatype>audio</mediatype>
								<trackindex>6</trackindex>
								<clipindex>1</clipindex>
							</link>
							<link>
								<linkclipref>msub200012-3011-k1d2-008 34</linkclipref>
								<mediatype>audio</mediatype>
								<trackindex>7</trackindex>
								<clipindex>1</clipindex>
							</link>
							<link>
								<linkclipref>msub200012-3011-k1d2-008 35</linkclipref>
								<mediatype>audio</mediatype>
								<trackindex>8</trackindex>
								<clipindex>1</clipindex>
							</link>
						</clipitem>
						<enabled>TRUE</enabled>
						<locked>FALSE</locked>
					</track>
				</audio>
			</media>
		</clip>
		<clip id="msub200012-3011-k1d3-003 5">
			<name>msub200012-3011-k1d3-003</name>
			<duration>1497</duration>
			<rate>
				<ntsc>FALSE</ntsc>
				<timebase>25</timebase>
			</rate>
			<in>391</in>
			<out>1441</out>
			<masterclipid>msub200012-3011-k1d3-003 3</masterclipid>
			<ismasterclip>FALSE</ismasterclip>
			<logginginfo>
				<description>msub200012-3011-k1d3-003</description>
				<scene/>
				<shottake/>
				<lognote/>
				<good>FALSE</good>
			</logginginfo>
			<labels>
				<label>B Roll</label>
				<label2/>
			</labels>
			<comments>
				<mastercomment1>RÃ…STOFF. BR_FINFREDAG_MSUA_OPRO</mastercomment1>
				<mastercomment2/>
				<mastercomment3/>
				<mastercomment4/>
				<clipcommenta/>
			</comments>
			<media>
				<video>
					<track>
						<clipitem id="msub200012-3011-k1d3-003 6">
							<name>msub200012-3011-k1d3-003</name>
							<duration>1497</duration>
							<rate>
								<ntsc>FALSE</ntsc>
								<timebase>25</timebase>
							</rate>
							<in>0</in>
							<out>1497</out>
							<start>0</start>
							<end>1497</end>
							<pixelaspectratio>Square</pixelaspectratio>
							<anamorphic>FALSE</anamorphic>
							<alphatype>none</alphatype>
							<masterclipid>msub200012-3011-k1d3-003 3</masterclipid>
							<syncoffset>0</syncoffset>
							<logginginfo>
								<scene/>
								<shottake/>
								<lognote/>
								<good>FALSE</good>
							</logginginfo>
							<labels>
								<label>B Roll</label>
								<label2/>
							</labels>
							<comments>
								<mastercomment1>RÃ…STOFF. BR_FINFREDAG_MSUA_OPRO</mastercomment1>
								<mastercomment2/>
								<mastercomment3/>
								<mastercomment4/>
								<clipcommenta/>
							</comments>
							<file id="msub200012-3011-k1d3-003 4"/>
							<sourcetrack>
								<mediatype>video</mediatype>
							</sourcetrack>
							<link>
								<linkclipref>msub200012-3011-k1d3-003 6</linkclipref>
								<mediatype>video</mediatype>
								<trackindex>1</trackindex>
								<clipindex>1</clipindex>
							</link>
							<link>
								<linkclipref>msub200012-3011-k1d3-003 7</linkclipref>
								<mediatype>audio</mediatype>
								<trackindex>1</trackindex>
								<clipindex>1</clipindex>
							</link>
							<link>
								<linkclipref>msub200012-3011-k1d3-003 8</linkclipref>
								<mediatype>audio</mediatype>
								<trackindex>2</trackindex>
								<clipindex>1</clipindex>
							</link>
							<link>
								<linkclipref>msub200012-3011-k1d3-003 9</linkclipref>
								<mediatype>audio</mediatype>
								<trackindex>3</trackindex>
								<clipindex>1</clipindex>
							</link>
							<link>
								<linkclipref>msub200012-3011-k1d3-003 10</linkclipref>
								<mediatype>audio</mediatype>
								<trackindex>4</trackindex>
								<clipindex>1</clipindex>
							</link>
							<link>
								<linkclipref>msub200012-3011-k1d3-003 11</linkclipref>
								<mediatype>audio</mediatype>
								<trackindex>5</trackindex>
								<clipindex>1</clipindex>
							</link>
							<link>
								<linkclipref>msub200012-3011-k1d3-003 12</linkclipref>
								<mediatype>audio</mediatype>
								<trackindex>6</trackindex>
								<clipindex>1</clipindex>
							</link>
							<link>
								<linkclipref>msub200012-3011-k1d3-003 13</linkclipref>
								<mediatype>audio</mediatype>
								<trackindex>7</trackindex>
								<clipindex>1</clipindex>
							</link>
							<link>
								<linkclipref>msub200012-3011-k1d3-003 14</linkclipref>
								<mediatype>audio</mediatype>
								<trackindex>8</trackindex>
								<clipindex>1</clipindex>
							</link>
							<fielddominance>upper</fielddominance>
						</clipitem>
						<enabled>TRUE</enabled>
						<locked>FALSE</locked>
					</track>
				</video>
				<audio>
					<in>391</in>
					<out>1441</out>
					<track>
						<clipitem id="msub200012-3011-k1d3-003 7">
							<name>msub200012-3011-k1d3-003</name>
							<duration>1497</duration>
							<rate>
								<ntsc>FALSE</ntsc>
								<timebase>25</timebase>
							</rate>
							<in>0</in>
							<out>1497</out>
							<start>0</start>
							<end>1497</end>
							<subframeoffset>0</subframeoffset>
							<masterclipid>msub200012-3011-k1d3-003 3</masterclipid>
							<syncoffset>0</syncoffset>
							<logginginfo>
								<scene/>
								<shottake/>
								<lognote/>
								<good>FALSE</good>
							</logginginfo>
							<labels>
								<label>B Roll</label>
								<label2/>
							</labels>
							<comments>
								<mastercomment1>RÃ…STOFF. BR_FINFREDAG_MSUA_OPRO</mastercomment1>
								<mastercomment2/>
								<mastercomment3/>
								<mastercomment4/>
							</comments>
							<file id="msub200012-3011-k1d3-003 4"/>
							<filter>
								<effect>
									<name>Audio Levels</name>
									<effectid>audiolevels</effectid>
									<effectcategory>audiolevels</effectcategory>
									<effecttype>audiolevels</effecttype>
									<mediatype>audio</mediatype>
									<parameter>
										<name>Level</name>
										<parameterid>level</parameterid>
										<valuemin>0</valuemin>
										<valuemax>3.98109</valuemax>
										<value>1</value>
									</parameter>
								</effect>
							</filter>
							<filter>
								<effect>
									<name>Audio Pan</name>
									<effectid>audiopan</effectid>
									<effectcategory>audiopan</effectcategory>
									<effecttype>audiopan</effecttype>
									<mediatype>audio</mediatype>
									<parameter>
										<name>Pan</name>
										<parameterid>pan</parameterid>
										<valuemin>-1</valuemin>
										<valuemax>1</valuemax>
										<value>0</value>
									</parameter>
								</effect>
							</filter>
							<sourcetrack>
								<mediatype>audio</mediatype>
								<trackindex>1</trackindex>
							</sourcetrack>
							<link>
								<linkclipref>msub200012-3011-k1d3-003 6</linkclipref>
								<mediatype>video</mediatype>
								<trackindex>1</trackindex>
								<clipindex>1</clipindex>
							</link>
							<link>
								<linkclipref>msub200012-3011-k1d3-003 7</linkclipref>
								<mediatype>audio</mediatype>
								<trackindex>1</trackindex>
								<clipindex>1</clipindex>
							</link>
							<link>
								<linkclipref>msub200012-3011-k1d3-003 8</linkclipref>
								<mediatype>audio</mediatype>
								<trackindex>2</trackindex>
								<clipindex>1</clipindex>
							</link>
							<link>
								<linkclipref>msub200012-3011-k1d3-003 9</linkclipref>
								<mediatype>audio</mediatype>
								<trackindex>3</trackindex>
								<clipindex>1</clipindex>
							</link>
							<link>
								<linkclipref>msub200012-3011-k1d3-003 10</linkclipref>
								<mediatype>audio</mediatype>
								<trackindex>4</trackindex>
								<clipindex>1</clipindex>
							</link>
							<link>
								<linkclipref>msub200012-3011-k1d3-003 11</linkclipref>
								<mediatype>audio</mediatype>
								<trackindex>5</trackindex>
								<clipindex>1</clipindex>
							</link>
							<link>
								<linkclipref>msub200012-3011-k1d3-003 12</linkclipref>
								<mediatype>audio</mediatype>
								<trackindex>6</trackindex>
								<clipindex>1</clipindex>
							</link>
							<link>
								<linkclipref>msub200012-3011-k1d3-003 13</linkclipref>
								<mediatype>audio</mediatype>
								<trackindex>7</trackindex>
								<clipindex>1</clipindex>
							</link>
							<link>
								<linkclipref>msub200012-3011-k1d3-003 14</linkclipref>
								<mediatype>audio</mediatype>
								<trackindex>8</trackindex>
								<clipindex>1</clipindex>
							</link>
						</clipitem>
						<enabled>TRUE</enabled>
						<locked>FALSE</locked>
					</track>
					<track>
						<clipitem id="msub200012-3011-k1d3-003 8">
							<name>msub200012-3011-k1d3-003</name>
							<duration>1497</duration>
							<rate>
								<ntsc>FALSE</ntsc>
								<timebase>25</timebase>
							</rate>
							<in>0</in>
							<out>1497</out>
							<start>0</start>
							<end>1497</end>
							<subframeoffset>0</subframeoffset>
							<masterclipid>msub200012-3011-k1d3-003 3</masterclipid>
							<syncoffset>0</syncoffset>
							<logginginfo>
								<scene/>
								<shottake/>
								<lognote/>
								<good>FALSE</good>
							</logginginfo>
							<labels>
								<label>B Roll</label>
								<label2/>
							</labels>
							<comments>
								<mastercomment1>RÃ…STOFF. BR_FINFREDAG_MSUA_OPRO</mastercomment1>
								<mastercomment2/>
								<mastercomment3/>
								<mastercomment4/>
							</comments>
							<file id="msub200012-3011-k1d3-003 4"/>
							<filter>
								<effect>
									<name>Audio Levels</name>
									<effectid>audiolevels</effectid>
									<effectcategory>audiolevels</effectcategory>
									<effecttype>audiolevels</effecttype>
									<mediatype>audio</mediatype>
									<parameter>
										<name>Level</name>
										<parameterid>level</parameterid>
										<valuemin>0</valuemin>
										<valuemax>3.98109</valuemax>
										<value>1</value>
									</parameter>
								</effect>
							</filter>
							<filter>
								<effect>
									<name>Audio Pan</name>
									<effectid>audiopan</effectid>
									<effectcategory>audiopan</effectcategory>
									<effecttype>audiopan</effecttype>
									<mediatype>audio</mediatype>
									<parameter>
										<name>Pan</name>
										<parameterid>pan</parameterid>
										<valuemin>-1</valuemin>
										<valuemax>1</valuemax>
										<value>0</value>
									</parameter>
								</effect>
							</filter>
							<sourcetrack>
								<mediatype>audio</mediatype>
								<trackindex>2</trackindex>
							</sourcetrack>
							<link>
								<linkclipref>msub200012-3011-k1d3-003 6</linkclipref>
								<mediatype>video</mediatype>
								<trackindex>1</trackindex>
								<clipindex>1</clipindex>
							</link>
							<link>
								<linkclipref>msub200012-3011-k1d3-003 7</linkclipref>
								<mediatype>audio</mediatype>
								<trackindex>1</trackindex>
								<clipindex>1</clipindex>
							</link>
							<link>
								<linkclipref>msub200012-3011-k1d3-003 8</linkclipref>
								<mediatype>audio</mediatype>
								<trackindex>2</trackindex>
								<clipindex>1</clipindex>
							</link>
							<link>
								<linkclipref>msub200012-3011-k1d3-003 9</linkclipref>
								<mediatype>audio</mediatype>
								<trackindex>3</trackindex>
								<clipindex>1</clipindex>
							</link>
							<link>
								<linkclipref>msub200012-3011-k1d3-003 10</linkclipref>
								<mediatype>audio</mediatype>
								<trackindex>4</trackindex>
								<clipindex>1</clipindex>
							</link>
							<link>
								<linkclipref>msub200012-3011-k1d3-003 11</linkclipref>
								<mediatype>audio</mediatype>
								<trackindex>5</trackindex>
								<clipindex>1</clipindex>
							</link>
							<link>
								<linkclipref>msub200012-3011-k1d3-003 12</linkclipref>
								<mediatype>audio</mediatype>
								<trackindex>6</trackindex>
								<clipindex>1</clipindex>
							</link>
							<link>
								<linkclipref>msub200012-3011-k1d3-003 13</linkclipref>
								<mediatype>audio</mediatype>
								<trackindex>7</trackindex>
								<clipindex>1</clipindex>
							</link>
							<link>
								<linkclipref>msub200012-3011-k1d3-003 14</linkclipref>
								<mediatype>audio</mediatype>
								<trackindex>8</trackindex>
								<clipindex>1</clipindex>
							</link>
						</clipitem>
						<enabled>TRUE</enabled>
						<locked>FALSE</locked>
					</track>
					<track>
						<clipitem id="msub200012-3011-k1d3-003 9">
							<name>msub200012-3011-k1d3-003</name>
							<duration>1497</duration>
							<rate>
								<ntsc>FALSE</ntsc>
								<timebase>25</timebase>
							</rate>
							<in>0</in>
							<out>1497</out>
							<start>0</start>
							<end>1497</end>
							<subframeoffset>0</subframeoffset>
							<masterclipid>msub200012-3011-k1d3-003 3</masterclipid>
							<syncoffset>0</syncoffset>
							<logginginfo>
								<scene/>
								<shottake/>
								<lognote/>
								<good>FALSE</good>
							</logginginfo>
							<labels>
								<label>B Roll</label>
								<label2/>
							</labels>
							<comments>
								<mastercomment1>RÃ…STOFF. BR_FINFREDAG_MSUA_OPRO</mastercomment1>
								<mastercomment2/>
								<mastercomment3/>
								<mastercomment4/>
							</comments>
							<file id="msub200012-3011-k1d3-003 4"/>
							<filter>
								<effect>
									<name>Audio Levels</name>
									<effectid>audiolevels</effectid>
									<effectcategory>audiolevels</effectcategory>
									<effecttype>audiolevels</effecttype>
									<mediatype>audio</mediatype>
									<parameter>
										<name>Level</name>
										<parameterid>level</parameterid>
										<valuemin>0</valuemin>
										<valuemax>3.98109</valuemax>
										<value>1</value>
									</parameter>
								</effect>
							</filter>
							<filter>
								<effect>
									<name>Audio Pan</name>
									<effectid>audiopan</effectid>
									<effectcategory>audiopan</effectcategory>
									<effecttype>audiopan</effecttype>
									<mediatype>audio</mediatype>
									<parameter>
										<name>Pan</name>
										<parameterid>pan</parameterid>
										<valuemin>-1</valuemin>
										<valuemax>1</valuemax>
										<value>0</value>
									</parameter>
								</effect>
							</filter>
							<sourcetrack>
								<mediatype>audio</mediatype>
								<trackindex>3</trackindex>
							</sourcetrack>
							<link>
								<linkclipref>msub200012-3011-k1d3-003 6</linkclipref>
								<mediatype>video</mediatype>
								<trackindex>1</trackindex>
								<clipindex>1</clipindex>
							</link>
							<link>
								<linkclipref>msub200012-3011-k1d3-003 7</linkclipref>
								<mediatype>audio</mediatype>
								<trackindex>1</trackindex>
								<clipindex>1</clipindex>
							</link>
							<link>
								<linkclipref>msub200012-3011-k1d3-003 8</linkclipref>
								<mediatype>audio</mediatype>
								<trackindex>2</trackindex>
								<clipindex>1</clipindex>
							</link>
							<link>
								<linkclipref>msub200012-3011-k1d3-003 9</linkclipref>
								<mediatype>audio</mediatype>
								<trackindex>3</trackindex>
								<clipindex>1</clipindex>
							</link>
							<link>
								<linkclipref>msub200012-3011-k1d3-003 10</linkclipref>
								<mediatype>audio</mediatype>
								<trackindex>4</trackindex>
								<clipindex>1</clipindex>
							</link>
							<link>
								<linkclipref>msub200012-3011-k1d3-003 11</linkclipref>
								<mediatype>audio</mediatype>
								<trackindex>5</trackindex>
								<clipindex>1</clipindex>
							</link>
							<link>
								<linkclipref>msub200012-3011-k1d3-003 12</linkclipref>
								<mediatype>audio</mediatype>
								<trackindex>6</trackindex>
								<clipindex>1</clipindex>
							</link>
							<link>
								<linkclipref>msub200012-3011-k1d3-003 13</linkclipref>
								<mediatype>audio</mediatype>
								<trackindex>7</trackindex>
								<clipindex>1</clipindex>
							</link>
							<link>
								<linkclipref>msub200012-3011-k1d3-003 14</linkclipref>
								<mediatype>audio</mediatype>
								<trackindex>8</trackindex>
								<clipindex>1</clipindex>
							</link>
						</clipitem>
						<enabled>TRUE</enabled>
						<locked>FALSE</locked>
					</track>
					<track>
						<clipitem id="msub200012-3011-k1d3-003 10">
							<name>msub200012-3011-k1d3-003</name>
							<duration>1497</duration>
							<rate>
								<ntsc>FALSE</ntsc>
								<timebase>25</timebase>
							</rate>
							<in>0</in>
							<out>1497</out>
							<start>0</start>
							<end>1497</end>
							<subframeoffset>0</subframeoffset>
							<masterclipid>msub200012-3011-k1d3-003 3</masterclipid>
							<syncoffset>0</syncoffset>
							<logginginfo>
								<scene/>
								<shottake/>
								<lognote/>
								<good>FALSE</good>
							</logginginfo>
							<labels>
								<label>B Roll</label>
								<label2/>
							</labels>
							<comments>
								<mastercomment1>RÃ…STOFF. BR_FINFREDAG_MSUA_OPRO</mastercomment1>
								<mastercomment2/>
								<mastercomment3/>
								<mastercomment4/>
							</comments>
							<file id="msub200012-3011-k1d3-003 4"/>
							<filter>
								<effect>
									<name>Audio Levels</name>
									<effectid>audiolevels</effectid>
									<effectcategory>audiolevels</effectcategory>
									<effecttype>audiolevels</effecttype>
									<mediatype>audio</mediatype>
									<parameter>
										<name>Level</name>
										<parameterid>level</parameterid>
										<valuemin>0</valuemin>
										<valuemax>3.98109</valuemax>
										<value>1</value>
									</parameter>
								</effect>
							</filter>
							<filter>
								<effect>
									<name>Audio Pan</name>
									<effectid>audiopan</effectid>
									<effectcategory>audiopan</effectcategory>
									<effecttype>audiopan</effecttype>
									<mediatype>audio</mediatype>
									<parameter>
										<name>Pan</name>
										<parameterid>pan</parameterid>
										<valuemin>-1</valuemin>
										<valuemax>1</valuemax>
										<value>0</value>
									</parameter>
								</effect>
							</filter>
							<sourcetrack>
								<mediatype>audio</mediatype>
								<trackindex>4</trackindex>
							</sourcetrack>
							<link>
								<linkclipref>msub200012-3011-k1d3-003 6</linkclipref>
								<mediatype>video</mediatype>
								<trackindex>1</trackindex>
								<clipindex>1</clipindex>
							</link>
							<link>
								<linkclipref>msub200012-3011-k1d3-003 7</linkclipref>
								<mediatype>audio</mediatype>
								<trackindex>1</trackindex>
								<clipindex>1</clipindex>
							</link>
							<link>
								<linkclipref>msub200012-3011-k1d3-003 8</linkclipref>
								<mediatype>audio</mediatype>
								<trackindex>2</trackindex>
								<clipindex>1</clipindex>
							</link>
							<link>
								<linkclipref>msub200012-3011-k1d3-003 9</linkclipref>
								<mediatype>audio</mediatype>
								<trackindex>3</trackindex>
								<clipindex>1</clipindex>
							</link>
							<link>
								<linkclipref>msub200012-3011-k1d3-003 10</linkclipref>
								<mediatype>audio</mediatype>
								<trackindex>4</trackindex>
								<clipindex>1</clipindex>
							</link>
							<link>
								<linkclipref>msub200012-3011-k1d3-003 11</linkclipref>
								<mediatype>audio</mediatype>
								<trackindex>5</trackindex>
								<clipindex>1</clipindex>
							</link>
							<link>
								<linkclipref>msub200012-3011-k1d3-003 12</linkclipref>
								<mediatype>audio</mediatype>
								<trackindex>6</trackindex>
								<clipindex>1</clipindex>
							</link>
							<link>
								<linkclipref>msub200012-3011-k1d3-003 13</linkclipref>
								<mediatype>audio</mediatype>
								<trackindex>7</trackindex>
								<clipindex>1</clipindex>
							</link>
							<link>
								<linkclipref>msub200012-3011-k1d3-003 14</linkclipref>
								<mediatype>audio</mediatype>
								<trackindex>8</trackindex>
								<clipindex>1</clipindex>
							</link>
						</clipitem>
						<enabled>TRUE</enabled>
						<locked>FALSE</locked>
					</track>
					<track>
						<clipitem id="msub200012-3011-k1d3-003 11">
							<name>msub200012-3011-k1d3-003</name>
							<duration>1497</duration>
							<rate>
								<ntsc>FALSE</ntsc>
								<timebase>25</timebase>
							</rate>
							<in>0</in>
							<out>1497</out>
							<start>0</start>
							<end>1497</end>
							<subframeoffset>0</subframeoffset>
							<masterclipid>msub200012-3011-k1d3-003 3</masterclipid>
							<syncoffset>0</syncoffset>
							<logginginfo>
								<scene/>
								<shottake/>
								<lognote/>
								<good>FALSE</good>
							</logginginfo>
							<labels>
								<label>B Roll</label>
								<label2/>
							</labels>
							<comments>
								<mastercomment1>RÃ…STOFF. BR_FINFREDAG_MSUA_OPRO</mastercomment1>
								<mastercomment2/>
								<mastercomment3/>
								<mastercomment4/>
							</comments>
							<file id="msub200012-3011-k1d3-003 4"/>
							<filter>
								<effect>
									<name>Audio Levels</name>
									<effectid>audiolevels</effectid>
									<effectcategory>audiolevels</effectcategory>
									<effecttype>audiolevels</effecttype>
									<mediatype>audio</mediatype>
									<parameter>
										<name>Level</name>
										<parameterid>level</parameterid>
										<valuemin>0</valuemin>
										<valuemax>3.98109</valuemax>
										<value>1</value>
									</parameter>
								</effect>
							</filter>
							<filter>
								<effect>
									<name>Audio Pan</name>
									<effectid>audiopan</effectid>
									<effectcategory>audiopan</effectcategory>
									<effecttype>audiopan</effecttype>
									<mediatype>audio</mediatype>
									<parameter>
										<name>Pan</name>
										<parameterid>pan</parameterid>
										<valuemin>-1</valuemin>
										<valuemax>1</valuemax>
										<value>0</value>
									</parameter>
								</effect>
							</filter>
							<sourcetrack>
								<mediatype>audio</mediatype>
								<trackindex>5</trackindex>
							</sourcetrack>
							<link>
								<linkclipref>msub200012-3011-k1d3-003 6</linkclipref>
								<mediatype>video</mediatype>
								<trackindex>1</trackindex>
								<clipindex>1</clipindex>
							</link>
							<link>
								<linkclipref>msub200012-3011-k1d3-003 7</linkclipref>
								<mediatype>audio</mediatype>
								<trackindex>1</trackindex>
								<clipindex>1</clipindex>
							</link>
							<link>
								<linkclipref>msub200012-3011-k1d3-003 8</linkclipref>
								<mediatype>audio</mediatype>
								<trackindex>2</trackindex>
								<clipindex>1</clipindex>
							</link>
							<link>
								<linkclipref>msub200012-3011-k1d3-003 9</linkclipref>
								<mediatype>audio</mediatype>
								<trackindex>3</trackindex>
								<clipindex>1</clipindex>
							</link>
							<link>
								<linkclipref>msub200012-3011-k1d3-003 10</linkclipref>
								<mediatype>audio</mediatype>
								<trackindex>4</trackindex>
								<clipindex>1</clipindex>
							</link>
							<link>
								<linkclipref>msub200012-3011-k1d3-003 11</linkclipref>
								<mediatype>audio</mediatype>
								<trackindex>5</trackindex>
								<clipindex>1</clipindex>
							</link>
							<link>
								<linkclipref>msub200012-3011-k1d3-003 12</linkclipref>
								<mediatype>audio</mediatype>
								<trackindex>6</trackindex>
								<clipindex>1</clipindex>
							</link>
							<link>
								<linkclipref>msub200012-3011-k1d3-003 13</linkclipref>
								<mediatype>audio</mediatype>
								<trackindex>7</trackindex>
								<clipindex>1</clipindex>
							</link>
							<link>
								<linkclipref>msub200012-3011-k1d3-003 14</linkclipref>
								<mediatype>audio</mediatype>
								<trackindex>8</trackindex>
								<clipindex>1</clipindex>
							</link>
						</clipitem>
						<enabled>TRUE</enabled>
						<locked>FALSE</locked>
					</track>
					<track>
						<clipitem id="msub200012-3011-k1d3-003 12">
							<name>msub200012-3011-k1d3-003</name>
							<duration>1497</duration>
							<rate>
								<ntsc>FALSE</ntsc>
								<timebase>25</timebase>
							</rate>
							<in>0</in>
							<out>1497</out>
							<start>0</start>
							<end>1497</end>
							<subframeoffset>0</subframeoffset>
							<masterclipid>msub200012-3011-k1d3-003 3</masterclipid>
							<syncoffset>0</syncoffset>
							<logginginfo>
								<scene/>
								<shottake/>
								<lognote/>
								<good>FALSE</good>
							</logginginfo>
							<labels>
								<label>B Roll</label>
								<label2/>
							</labels>
							<comments>
								<mastercomment1>RÃ…STOFF. BR_FINFREDAG_MSUA_OPRO</mastercomment1>
								<mastercomment2/>
								<mastercomment3/>
								<mastercomment4/>
							</comments>
							<file id="msub200012-3011-k1d3-003 4"/>
							<filter>
								<effect>
									<name>Audio Levels</name>
									<effectid>audiolevels</effectid>
									<effectcategory>audiolevels</effectcategory>
									<effecttype>audiolevels</effecttype>
									<mediatype>audio</mediatype>
									<parameter>
										<name>Level</name>
										<parameterid>level</parameterid>
										<valuemin>0</valuemin>
										<valuemax>3.98109</valuemax>
										<value>1</value>
									</parameter>
								</effect>
							</filter>
							<filter>
								<effect>
									<name>Audio Pan</name>
									<effectid>audiopan</effectid>
									<effectcategory>audiopan</effectcategory>
									<effecttype>audiopan</effecttype>
									<mediatype>audio</mediatype>
									<parameter>
										<name>Pan</name>
										<parameterid>pan</parameterid>
										<valuemin>-1</valuemin>
										<valuemax>1</valuemax>
										<value>0</value>
									</parameter>
								</effect>
							</filter>
							<sourcetrack>
								<mediatype>audio</mediatype>
								<trackindex>6</trackindex>
							</sourcetrack>
							<link>
								<linkclipref>msub200012-3011-k1d3-003 6</linkclipref>
								<mediatype>video</mediatype>
								<trackindex>1</trackindex>
								<clipindex>1</clipindex>
							</link>
							<link>
								<linkclipref>msub200012-3011-k1d3-003 7</linkclipref>
								<mediatype>audio</mediatype>
								<trackindex>1</trackindex>
								<clipindex>1</clipindex>
							</link>
							<link>
								<linkclipref>msub200012-3011-k1d3-003 8</linkclipref>
								<mediatype>audio</mediatype>
								<trackindex>2</trackindex>
								<clipindex>1</clipindex>
							</link>
							<link>
								<linkclipref>msub200012-3011-k1d3-003 9</linkclipref>
								<mediatype>audio</mediatype>
								<trackindex>3</trackindex>
								<clipindex>1</clipindex>
							</link>
							<link>
								<linkclipref>msub200012-3011-k1d3-003 10</linkclipref>
								<mediatype>audio</mediatype>
								<trackindex>4</trackindex>
								<clipindex>1</clipindex>
							</link>
							<link>
								<linkclipref>msub200012-3011-k1d3-003 11</linkclipref>
								<mediatype>audio</mediatype>
								<trackindex>5</trackindex>
								<clipindex>1</clipindex>
							</link>
							<link>
								<linkclipref>msub200012-3011-k1d3-003 12</linkclipref>
								<mediatype>audio</mediatype>
								<trackindex>6</trackindex>
								<clipindex>1</clipindex>
							</link>
							<link>
								<linkclipref>msub200012-3011-k1d3-003 13</linkclipref>
								<mediatype>audio</mediatype>
								<trackindex>7</trackindex>
								<clipindex>1</clipindex>
							</link>
							<link>
								<linkclipref>msub200012-3011-k1d3-003 14</linkclipref>
								<mediatype>audio</mediatype>
								<trackindex>8</trackindex>
								<clipindex>1</clipindex>
							</link>
						</clipitem>
						<enabled>TRUE</enabled>
						<locked>FALSE</locked>
					</track>
					<track>
						<clipitem id="msub200012-3011-k1d3-003 13">
							<name>msub200012-3011-k1d3-003</name>
							<duration>1497</duration>
							<rate>
								<ntsc>FALSE</ntsc>
								<timebase>25</timebase>
							</rate>
							<in>0</in>
							<out>1497</out>
							<start>0</start>
							<end>1497</end>
							<subframeoffset>0</subframeoffset>
							<masterclipid>msub200012-3011-k1d3-003 3</masterclipid>
							<syncoffset>0</syncoffset>
							<logginginfo>
								<scene/>
								<shottake/>
								<lognote/>
								<good>FALSE</good>
							</logginginfo>
							<labels>
								<label>B Roll</label>
								<label2/>
							</labels>
							<comments>
								<mastercomment1>RÃ…STOFF. BR_FINFREDAG_MSUA_OPRO</mastercomment1>
								<mastercomment2/>
								<mastercomment3/>
								<mastercomment4/>
							</comments>
							<file id="msub200012-3011-k1d3-003 4"/>
							<filter>
								<effect>
									<name>Audio Levels</name>
									<effectid>audiolevels</effectid>
									<effectcategory>audiolevels</effectcategory>
									<effecttype>audiolevels</effecttype>
									<mediatype>audio</mediatype>
									<parameter>
										<name>Level</name>
										<parameterid>level</parameterid>
										<valuemin>0</valuemin>
										<valuemax>3.98109</valuemax>
										<value>1</value>
									</parameter>
								</effect>
							</filter>
							<filter>
								<effect>
									<name>Audio Pan</name>
									<effectid>audiopan</effectid>
									<effectcategory>audiopan</effectcategory>
									<effecttype>audiopan</effecttype>
									<mediatype>audio</mediatype>
									<parameter>
										<name>Pan</name>
										<parameterid>pan</parameterid>
										<valuemin>-1</valuemin>
										<valuemax>1</valuemax>
										<value>0</value>
									</parameter>
								</effect>
							</filter>
							<sourcetrack>
								<mediatype>audio</mediatype>
								<trackindex>7</trackindex>
							</sourcetrack>
							<link>
								<linkclipref>msub200012-3011-k1d3-003 6</linkclipref>
								<mediatype>video</mediatype>
								<trackindex>1</trackindex>
								<clipindex>1</clipindex>
							</link>
							<link>
								<linkclipref>msub200012-3011-k1d3-003 7</linkclipref>
								<mediatype>audio</mediatype>
								<trackindex>1</trackindex>
								<clipindex>1</clipindex>
							</link>
							<link>
								<linkclipref>msub200012-3011-k1d3-003 8</linkclipref>
								<mediatype>audio</mediatype>
								<trackindex>2</trackindex>
								<clipindex>1</clipindex>
							</link>
							<link>
								<linkclipref>msub200012-3011-k1d3-003 9</linkclipref>
								<mediatype>audio</mediatype>
								<trackindex>3</trackindex>
								<clipindex>1</clipindex>
							</link>
							<link>
								<linkclipref>msub200012-3011-k1d3-003 10</linkclipref>
								<mediatype>audio</mediatype>
								<trackindex>4</trackindex>
								<clipindex>1</clipindex>
							</link>
							<link>
								<linkclipref>msub200012-3011-k1d3-003 11</linkclipref>
								<mediatype>audio</mediatype>
								<trackindex>5</trackindex>
								<clipindex>1</clipindex>
							</link>
							<link>
								<linkclipref>msub200012-3011-k1d3-003 12</linkclipref>
								<mediatype>audio</mediatype>
								<trackindex>6</trackindex>
								<clipindex>1</clipindex>
							</link>
							<link>
								<linkclipref>msub200012-3011-k1d3-003 13</linkclipref>
								<mediatype>audio</mediatype>
								<trackindex>7</trackindex>
								<clipindex>1</clipindex>
							</link>
							<link>
								<linkclipref>msub200012-3011-k1d3-003 14</linkclipref>
								<mediatype>audio</mediatype>
								<trackindex>8</trackindex>
								<clipindex>1</clipindex>
							</link>
						</clipitem>
						<enabled>TRUE</enabled>
						<locked>FALSE</locked>
					</track>
					<track>
						<clipitem id="msub200012-3011-k1d3-003 14">
							<name>msub200012-3011-k1d3-003</name>
							<duration>1497</duration>
							<rate>
								<ntsc>FALSE</ntsc>
								<timebase>25</timebase>
							</rate>
							<in>0</in>
							<out>1497</out>
							<start>0</start>
							<end>1497</end>
							<subframeoffset>0</subframeoffset>
							<masterclipid>msub200012-3011-k1d3-003 3</masterclipid>
							<syncoffset>0</syncoffset>
							<logginginfo>
								<scene/>
								<shottake/>
								<lognote/>
								<good>FALSE</good>
							</logginginfo>
							<labels>
								<label>B Roll</label>
								<label2/>
							</labels>
							<comments>
								<mastercomment1>RÃ…STOFF. BR_FINFREDAG_MSUA_OPRO</mastercomment1>
								<mastercomment2/>
								<mastercomment3/>
								<mastercomment4/>
							</comments>
							<file id="msub200012-3011-k1d3-003 4"/>
							<filter>
								<effect>
									<name>Audio Levels</name>
									<effectid>audiolevels</effectid>
									<effectcategory>audiolevels</effectcategory>
									<effecttype>audiolevels</effecttype>
									<mediatype>audio</mediatype>
									<parameter>
										<name>Level</name>
										<parameterid>level</parameterid>
										<valuemin>0</valuemin>
										<valuemax>3.98109</valuemax>
										<value>1</value>
									</parameter>
								</effect>
							</filter>
							<filter>
								<effect>
									<name>Audio Pan</name>
									<effectid>audiopan</effectid>
									<effectcategory>audiopan</effectcategory>
									<effecttype>audiopan</effecttype>
									<mediatype>audio</mediatype>
									<parameter>
										<name>Pan</name>
										<parameterid>pan</parameterid>
										<valuemin>-1</valuemin>
										<valuemax>1</valuemax>
										<value>0</value>
									</parameter>
								</effect>
							</filter>
							<sourcetrack>
								<mediatype>audio</mediatype>
								<trackindex>8</trackindex>
							</sourcetrack>
							<link>
								<linkclipref>msub200012-3011-k1d3-003 6</linkclipref>
								<mediatype>video</mediatype>
								<trackindex>1</trackindex>
								<clipindex>1</clipindex>
							</link>
							<link>
								<linkclipref>msub200012-3011-k1d3-003 7</linkclipref>
								<mediatype>audio</mediatype>
								<trackindex>1</trackindex>
								<clipindex>1</clipindex>
							</link>
							<link>
								<linkclipref>msub200012-3011-k1d3-003 8</linkclipref>
								<mediatype>audio</mediatype>
								<trackindex>2</trackindex>
								<clipindex>1</clipindex>
							</link>
							<link>
								<linkclipref>msub200012-3011-k1d3-003 9</linkclipref>
								<mediatype>audio</mediatype>
								<trackindex>3</trackindex>
								<clipindex>1</clipindex>
							</link>
							<link>
								<linkclipref>msub200012-3011-k1d3-003 10</linkclipref>
								<mediatype>audio</mediatype>
								<trackindex>4</trackindex>
								<clipindex>1</clipindex>
							</link>
							<link>
								<linkclipref>msub200012-3011-k1d3-003 11</linkclipref>
								<mediatype>audio</mediatype>
								<trackindex>5</trackindex>
								<clipindex>1</clipindex>
							</link>
							<link>
								<linkclipref>msub200012-3011-k1d3-003 12</linkclipref>
								<mediatype>audio</mediatype>
								<trackindex>6</trackindex>
								<clipindex>1</clipindex>
							</link>
							<link>
								<linkclipref>msub200012-3011-k1d3-003 13</linkclipref>
								<mediatype>audio</mediatype>
								<trackindex>7</trackindex>
								<clipindex>1</clipindex>
							</link>
							<link>
								<linkclipref>msub200012-3011-k1d3-003 14</linkclipref>
								<mediatype>audio</mediatype>
								<trackindex>8</trackindex>
								<clipindex>1</clipindex>
							</link>
						</clipitem>
						<enabled>TRUE</enabled>
						<locked>FALSE</locked>
					</track>
				</audio>
			</media>
		</clip>
		<clip id="msub200012-3011-k2d2-004 ">
			<name>msub200012-3011-k2d2-004</name>
			<duration>2909</duration>
			<rate>
				<ntsc>FALSE</ntsc>
				<timebase>25</timebase>
			</rate>
			<in>2038</in>
			<out>2788</out>
			<masterclipid>msub200012-3011-k1d2-006 1</masterclipid>
			<ismasterclip>FALSE</ismasterclip>
			<logginginfo>
				<description>msub200012-3011-k1d2-006</description>
				<scene/>
				<shottake/>
				<lognote/>
				<good>FALSE</good>
			</logginginfo>
			<labels>
				<label>Alternate Shots</label>
				<label2/>
			</labels>
			<comments>
				<mastercomment1>RÃ…STOFF. BR_FINFREDAG_MSUA_OPRO</mastercomment1>
				<mastercomment2/>
				<mastercomment3/>
				<mastercomment4/>
				<clipcommenta/>
			</comments>
			<media>
				<video>
					<track>
						<clipitem id="msub200012-3011-k2d2-004 1">
							<name>msub200012-3011-k2d2-004</name>
							<duration>2909</duration>
							<rate>
								<ntsc>FALSE</ntsc>
								<timebase>25</timebase>
							</rate>
							<in>0</in>
							<out>2909</out>
							<start>0</start>
							<end>2909</end>
							<pixelaspectratio>Square</pixelaspectratio>
							<anamorphic>FALSE</anamorphic>
							<alphatype>none</alphatype>
							<masterclipid>msub200012-3011-k2d2-004 2</masterclipid>
							<syncoffset>0</syncoffset>
							<logginginfo>
								<description>msub200012-3011-k2d2-004</description>
								<scene/>
								<shottake/>
								<lognote/>
								<good>FALSE</good>
							</logginginfo>
							<labels>
								<label>Alternate Shots</label>
								<label2/>
							</labels>
							<comments>
								<mastercomment1>RÃ…STOFF. BR_FINFREDAG_MSUA_OPRO</mastercomment1>
								<mastercomment2/>
								<mastercomment3/>
								<mastercomment4/>
								<clipcommenta/>
							</comments>
							<file id="msub200012-3011-k2d2-004 3">
								<name>msub200012-3011-k2d2-004.mxf</name>
								<pathurl>file://localhost/omfs/clip.dir/MXF/1080i/msub200012-3011-k2d2-004.mxf</pathurl>
								<rate>
									<timebase>25</timebase>
								</rate>
								<duration>2904</duration>
								<timecode>
									<rate>
										<timebase>25</timebase>
									</rate>
									<string>01:35:29:16</string>
									<frame>143241</frame>
									<displayformat>NDF</displayformat>
									<source>source</source>
								</timecode>
								<media>
									<video>
										<duration>2904</duration>
										<samplecharacteristics>
											<width>1920</width>
											<height>1080</height>
										</samplecharacteristics>
									</video>
									<audio>
										<rate>
											<timebase>48000</timebase>
										</rate>
										<trackcount>1</trackcount>
										<samplecharacteristics>
											<depth>24</depth>
										</samplecharacteristics>
									</audio>
								</media>
							</file>
							<sourcetrack>
								<mediatype>video</mediatype>
							</sourcetrack>
							<link>
								<linkclipref>msub200012-3011-k2d2-004 1</linkclipref>
								<mediatype>video</mediatype>
								<trackindex>1</trackindex>
								<clipindex>1</clipindex>
							</link>
							<link>
								<linkclipref>msub200012-3011-k2d2-004 4</linkclipref>
								<mediatype>audio</mediatype>
								<trackindex>1</trackindex>
								<clipindex>1</clipindex>
							</link>
							<link>
								<linkclipref>msub200012-3011-k2d2-004 5</linkclipref>
								<mediatype>audio</mediatype>
								<trackindex>2</trackindex>
								<clipindex>1</clipindex>
							</link>
							<link>
								<linkclipref>msub200012-3011-k2d2-004 6</linkclipref>
								<mediatype>audio</mediatype>
								<trackindex>3</trackindex>
								<clipindex>1</clipindex>
							</link>
							<link>
								<linkclipref>msub200012-3011-k2d2-004 7</linkclipref>
								<mediatype>audio</mediatype>
								<trackindex>4</trackindex>
								<clipindex>1</clipindex>
							</link>
							<link>
								<linkclipref>msub200012-3011-k2d2-004 8</linkclipref>
								<mediatype>audio</mediatype>
								<trackindex>5</trackindex>
								<clipindex>1</clipindex>
							</link>
							<link>
								<linkclipref>msub200012-3011-k2d2-004 9</linkclipref>
								<mediatype>audio</mediatype>
								<trackindex>6</trackindex>
								<clipindex>1</clipindex>
							</link>
							<link>
								<linkclipref>msub200012-3011-k2d2-004 10</linkclipref>
								<mediatype>audio</mediatype>
								<trackindex>7</trackindex>
								<clipindex>1</clipindex>
							</link>
							<link>
								<linkclipref>msub200012-3011-k2d2-004 11</linkclipref>
								<mediatype>audio</mediatype>
								<trackindex>8</trackindex>
								<clipindex>1</clipindex>
							</link>
							<fielddominance>upper</fielddominance>
						</clipitem>
						<enabled>TRUE</enabled>
						<locked>FALSE</locked>
					</track>
				</video>
				<audio>
					<in>2038</in>
					<out>2788</out>
					<track>
						<clipitem id="msub200012-3011-k2d2-004 4">
							<name>msub200012-3011-k2d2-004</name>
							<duration>2909</duration>
							<rate>
								<ntsc>FALSE</ntsc>
								<timebase>25</timebase>
							</rate>
							<in>0</in>
							<out>2909</out>
							<start>0</start>
							<end>2909</end>
							<subframeoffset>0</subframeoffset>
							<masterclipid>msub200012-3011-k2d2-004 2</masterclipid>
							<syncoffset>0</syncoffset>
							<logginginfo>
								<description>msub200012-3011-k2d2-004</description>
								<scene/>
								<shottake/>
								<lognote/>
								<good>FALSE</good>
							</logginginfo>
							<labels>
								<label>Alternate Shots</label>
								<label2/>
							</labels>
							<comments>
								<mastercomment1>RÃ…STOFF. BR_FINFREDAG_MSUA_OPRO</mastercomment1>
								<mastercomment2/>
								<mastercomment3/>
								<mastercomment4/>
								<clipcommenta/>
							</comments>
							<file id="msub200012-3011-k2d2-004 3"/>
							<filter>
								<effect>
									<name>Audio Levels</name>
									<effectid>audiolevels</effectid>
									<effectcategory>audiolevels</effectcategory>
									<effecttype>audiolevels</effecttype>
									<mediatype>audio</mediatype>
									<parameter>
										<name>Level</name>
										<parameterid>level</parameterid>
										<valuemin>0</valuemin>
										<valuemax>3.98109</valuemax>
										<value>1</value>
									</parameter>
								</effect>
							</filter>
							<filter>
								<effect>
									<name>Audio Pan</name>
									<effectid>audiopan</effectid>
									<effectcategory>audiopan</effectcategory>
									<effecttype>audiopan</effecttype>
									<mediatype>audio</mediatype>
									<parameter>
										<name>Pan</name>
										<parameterid>pan</parameterid>
										<valuemin>-1</valuemin>
										<valuemax>1</valuemax>
										<value>0</value>
									</parameter>
								</effect>
							</filter>
							<sourcetrack>
								<mediatype>audio</mediatype>
								<trackindex>1</trackindex>
							</sourcetrack>
							<link>
								<linkclipref>msub200012-3011-k2d2-004 1</linkclipref>
								<mediatype>video</mediatype>
								<trackindex>1</trackindex>
								<clipindex>1</clipindex>
							</link>
							<link>
								<linkclipref>msub200012-3011-k2d2-004 4</linkclipref>
								<mediatype>audio</mediatype>
								<trackindex>1</trackindex>
								<clipindex>1</clipindex>
							</link>
							<link>
								<linkclipref>msub200012-3011-k2d2-004 5</linkclipref>
								<mediatype>audio</mediatype>
								<trackindex>2</trackindex>
								<clipindex>1</clipindex>
							</link>
							<link>
								<linkclipref>msub200012-3011-k2d2-004 6</linkclipref>
								<mediatype>audio</mediatype>
								<trackindex>3</trackindex>
								<clipindex>1</clipindex>
							</link>
							<link>
								<linkclipref>msub200012-3011-k2d2-004 7</linkclipref>
								<mediatype>audio</mediatype>
								<trackindex>4</trackindex>
								<clipindex>1</clipindex>
							</link>
							<link>
								<linkclipref>msub200012-3011-k2d2-004 8</linkclipref>
								<mediatype>audio</mediatype>
								<trackindex>5</trackindex>
								<clipindex>1</clipindex>
							</link>
							<link>
								<linkclipref>msub200012-3011-k2d2-004 9</linkclipref>
								<mediatype>audio</mediatype>
								<trackindex>6</trackindex>
								<clipindex>1</clipindex>
							</link>
							<link>
								<linkclipref>msub200012-3011-k2d2-004 10</linkclipref>
								<mediatype>audio</mediatype>
								<trackindex>7</trackindex>
								<clipindex>1</clipindex>
							</link>
							<link>
								<linkclipref>msub200012-3011-k2d2-004 11</linkclipref>
								<mediatype>audio</mediatype>
								<trackindex>8</trackindex>
								<clipindex>1</clipindex>
							</link>
						</clipitem>
						<enabled>TRUE</enabled>
						<locked>FALSE</locked>
					</track>
					<track>
						<clipitem id="msub200012-3011-k2d2-004 5">
							<name>msub200012-3011-k2d2-004</name>
							<duration>2909</duration>
							<rate>
								<ntsc>FALSE</ntsc>
								<timebase>25</timebase>
							</rate>
							<in>0</in>
							<out>2909</out>
							<start>0</start>
							<end>2909</end>
							<subframeoffset>0</subframeoffset>
							<masterclipid>msub200012-3011-k2d2-004 2</masterclipid>
							<syncoffset>0</syncoffset>
							<logginginfo>
								<description>msub200012-3011-k2d2-004</description>
								<scene/>
								<shottake/>
								<lognote/>
								<good>FALSE</good>
							</logginginfo>
							<labels>
								<label>Alternate Shots</label>
								<label2/>
							</labels>
							<comments>
								<mastercomment1>RÃ…STOFF. BR_FINFREDAG_MSUA_OPRO</mastercomment1>
								<mastercomment2/>
								<mastercomment3/>
								<mastercomment4/>
								<clipcommenta/>
							</comments>
							<file id="msub200012-3011-k2d2-004 3"/>
							<filter>
								<effect>
									<name>Audio Levels</name>
									<effectid>audiolevels</effectid>
									<effectcategory>audiolevels</effectcategory>
									<effecttype>audiolevels</effecttype>
									<mediatype>audio</mediatype>
									<parameter>
										<name>Level</name>
										<parameterid>level</parameterid>
										<valuemin>0</valuemin>
										<valuemax>3.98109</valuemax>
										<value>1</value>
									</parameter>
								</effect>
							</filter>
							<filter>
								<effect>
									<name>Audio Pan</name>
									<effectid>audiopan</effectid>
									<effectcategory>audiopan</effectcategory>
									<effecttype>audiopan</effecttype>
									<mediatype>audio</mediatype>
									<parameter>
										<name>Pan</name>
										<parameterid>pan</parameterid>
										<valuemin>-1</valuemin>
										<valuemax>1</valuemax>
										<value>0</value>
									</parameter>
								</effect>
							</filter>
							<sourcetrack>
								<mediatype>audio</mediatype>
								<trackindex>2</trackindex>
							</sourcetrack>
							<link>
								<linkclipref>msub200012-3011-k2d2-004 1</linkclipref>
								<mediatype>video</mediatype>
								<trackindex>1</trackindex>
								<clipindex>1</clipindex>
							</link>
							<link>
								<linkclipref>msub200012-3011-k2d2-004 4</linkclipref>
								<mediatype>audio</mediatype>
								<trackindex>1</trackindex>
								<clipindex>1</clipindex>
							</link>
							<link>
								<linkclipref>msub200012-3011-k2d2-004 5</linkclipref>
								<mediatype>audio</mediatype>
								<trackindex>2</trackindex>
								<clipindex>1</clipindex>
							</link>
							<link>
								<linkclipref>msub200012-3011-k2d2-004 6</linkclipref>
								<mediatype>audio</mediatype>
								<trackindex>3</trackindex>
								<clipindex>1</clipindex>
							</link>
							<link>
								<linkclipref>msub200012-3011-k2d2-004 7</linkclipref>
								<mediatype>audio</mediatype>
								<trackindex>4</trackindex>
								<clipindex>1</clipindex>
							</link>
							<link>
								<linkclipref>msub200012-3011-k2d2-004 8</linkclipref>
								<mediatype>audio</mediatype>
								<trackindex>5</trackindex>
								<clipindex>1</clipindex>
							</link>
							<link>
								<linkclipref>msub200012-3011-k2d2-004 9</linkclipref>
								<mediatype>audio</mediatype>
								<trackindex>6</trackindex>
								<clipindex>1</clipindex>
							</link>
							<link>
								<linkclipref>msub200012-3011-k2d2-004 10</linkclipref>
								<mediatype>audio</mediatype>
								<trackindex>7</trackindex>
								<clipindex>1</clipindex>
							</link>
							<link>
								<linkclipref>msub200012-3011-k2d2-004 11</linkclipref>
								<mediatype>audio</mediatype>
								<trackindex>8</trackindex>
								<clipindex>1</clipindex>
							</link>
						</clipitem>
						<enabled>TRUE</enabled>
						<locked>FALSE</locked>
					</track>
					<track>
						<clipitem id="msub200012-3011-k2d2-004 6">
							<name>msub200012-3011-k2d2-004</name>
							<duration>2909</duration>
							<rate>
								<ntsc>FALSE</ntsc>
								<timebase>25</timebase>
							</rate>
							<in>0</in>
							<out>2909</out>
							<start>0</start>
							<end>2909</end>
							<subframeoffset>0</subframeoffset>
							<masterclipid>msub200012-3011-k2d2-004 2</masterclipid>
							<syncoffset>0</syncoffset>
							<logginginfo>
								<description>msub200012-3011-k2d2-004</description>
								<scene/>
								<shottake/>
								<lognote/>
								<good>FALSE</good>
							</logginginfo>
							<labels>
								<label>Alternate Shots</label>
								<label2/>
							</labels>
							<comments>
								<mastercomment1>RÃ…STOFF. BR_FINFREDAG_MSUA_OPRO</mastercomment1>
								<mastercomment2/>
								<mastercomment3/>
								<mastercomment4/>
								<clipcommenta/>
							</comments>
							<file id="msub200012-3011-k2d2-004 3"/>
							<filter>
								<effect>
									<name>Audio Levels</name>
									<effectid>audiolevels</effectid>
									<effectcategory>audiolevels</effectcategory>
									<effecttype>audiolevels</effecttype>
									<mediatype>audio</mediatype>
									<parameter>
										<name>Level</name>
										<parameterid>level</parameterid>
										<valuemin>0</valuemin>
										<valuemax>3.98109</valuemax>
										<value>1</value>
									</parameter>
								</effect>
							</filter>
							<filter>
								<effect>
									<name>Audio Pan</name>
									<effectid>audiopan</effectid>
									<effectcategory>audiopan</effectcategory>
									<effecttype>audiopan</effecttype>
									<mediatype>audio</mediatype>
									<parameter>
										<name>Pan</name>
										<parameterid>pan</parameterid>
										<valuemin>-1</valuemin>
										<valuemax>1</valuemax>
										<value>0</value>
									</parameter>
								</effect>
							</filter>
							<sourcetrack>
								<mediatype>audio</mediatype>
								<trackindex>3</trackindex>
							</sourcetrack>
							<link>
								<linkclipref>msub200012-3011-k2d2-004 1</linkclipref>
								<mediatype>video</mediatype>
								<trackindex>1</trackindex>
								<clipindex>1</clipindex>
							</link>
							<link>
								<linkclipref>msub200012-3011-k2d2-004 4</linkclipref>
								<mediatype>audio</mediatype>
								<trackindex>1</trackindex>
								<clipindex>1</clipindex>
							</link>
							<link>
								<linkclipref>msub200012-3011-k2d2-004 5</linkclipref>
								<mediatype>audio</mediatype>
								<trackindex>2</trackindex>
								<clipindex>1</clipindex>
							</link>
							<link>
								<linkclipref>msub200012-3011-k2d2-004 6</linkclipref>
								<mediatype>audio</mediatype>
								<trackindex>3</trackindex>
								<clipindex>1</clipindex>
							</link>
							<link>
								<linkclipref>msub200012-3011-k2d2-004 7</linkclipref>
								<mediatype>audio</mediatype>
								<trackindex>4</trackindex>
								<clipindex>1</clipindex>
							</link>
							<link>
								<linkclipref>msub200012-3011-k2d2-004 8</linkclipref>
								<mediatype>audio</mediatype>
								<trackindex>5</trackindex>
								<clipindex>1</clipindex>
							</link>
							<link>
								<linkclipref>msub200012-3011-k2d2-004 9</linkclipref>
								<mediatype>audio</mediatype>
								<trackindex>6</trackindex>
								<clipindex>1</clipindex>
							</link>
							<link>
								<linkclipref>msub200012-3011-k2d2-004 10</linkclipref>
								<mediatype>audio</mediatype>
								<trackindex>7</trackindex>
								<clipindex>1</clipindex>
							</link>
							<link>
								<linkclipref>msub200012-3011-k2d2-004 11</linkclipref>
								<mediatype>audio</mediatype>
								<trackindex>8</trackindex>
								<clipindex>1</clipindex>
							</link>
						</clipitem>
						<enabled>TRUE</enabled>
						<locked>FALSE</locked>
					</track>
					<track>
						<clipitem id="msub200012-3011-k2d2-004 7">
							<name>msub200012-3011-k2d2-004</name>
							<duration>2909</duration>
							<rate>
								<ntsc>FALSE</ntsc>
								<timebase>25</timebase>
							</rate>
							<in>0</in>
							<out>2909</out>
							<start>0</start>
							<end>2909</end>
							<subframeoffset>0</subframeoffset>
							<masterclipid>msub200012-3011-k2d2-004 2</masterclipid>
							<syncoffset>0</syncoffset>
							<logginginfo>
								<description>msub200012-3011-k2d2-004</description>
								<scene/>
								<shottake/>
								<lognote/>
								<good>FALSE</good>
							</logginginfo>
							<labels>
								<label>Alternate Shots</label>
								<label2/>
							</labels>
							<comments>
								<mastercomment1>RÃ…STOFF. BR_FINFREDAG_MSUA_OPRO</mastercomment1>
								<mastercomment2/>
								<mastercomment3/>
								<mastercomment4/>
								<clipcommenta/>
							</comments>
							<file id="msub200012-3011-k2d2-004 3"/>
							<filter>
								<effect>
									<name>Audio Levels</name>
									<effectid>audiolevels</effectid>
									<effectcategory>audiolevels</effectcategory>
									<effecttype>audiolevels</effecttype>
									<mediatype>audio</mediatype>
									<parameter>
										<name>Level</name>
										<parameterid>level</parameterid>
										<valuemin>0</valuemin>
										<valuemax>3.98109</valuemax>
										<value>1</value>
									</parameter>
								</effect>
							</filter>
							<filter>
								<effect>
									<name>Audio Pan</name>
									<effectid>audiopan</effectid>
									<effectcategory>audiopan</effectcategory>
									<effecttype>audiopan</effecttype>
									<mediatype>audio</mediatype>
									<parameter>
										<name>Pan</name>
										<parameterid>pan</parameterid>
										<valuemin>-1</valuemin>
										<valuemax>1</valuemax>
										<value>0</value>
									</parameter>
								</effect>
							</filter>
							<sourcetrack>
								<mediatype>audio</mediatype>
								<trackindex>4</trackindex>
							</sourcetrack>
							<link>
								<linkclipref>msub200012-3011-k2d2-004 1</linkclipref>
								<mediatype>video</mediatype>
								<trackindex>1</trackindex>
								<clipindex>1</clipindex>
							</link>
							<link>
								<linkclipref>msub200012-3011-k2d2-004 4</linkclipref>
								<mediatype>audio</mediatype>
								<trackindex>1</trackindex>
								<clipindex>1</clipindex>
							</link>
							<link>
								<linkclipref>msub200012-3011-k2d2-004 5</linkclipref>
								<mediatype>audio</mediatype>
								<trackindex>2</trackindex>
								<clipindex>1</clipindex>
							</link>
							<link>
								<linkclipref>msub200012-3011-k2d2-004 6</linkclipref>
								<mediatype>audio</mediatype>
								<trackindex>3</trackindex>
								<clipindex>1</clipindex>
							</link>
							<link>
								<linkclipref>msub200012-3011-k2d2-004 7</linkclipref>
								<mediatype>audio</mediatype>
								<trackindex>4</trackindex>
								<clipindex>1</clipindex>
							</link>
							<link>
								<linkclipref>msub200012-3011-k2d2-004 8</linkclipref>
								<mediatype>audio</mediatype>
								<trackindex>5</trackindex>
								<clipindex>1</clipindex>
							</link>
							<link>
								<linkclipref>msub200012-3011-k2d2-004 9</linkclipref>
								<mediatype>audio</mediatype>
								<trackindex>6</trackindex>
								<clipindex>1</clipindex>
							</link>
							<link>
								<linkclipref>msub200012-3011-k2d2-004 10</linkclipref>
								<mediatype>audio</mediatype>
								<trackindex>7</trackindex>
								<clipindex>1</clipindex>
							</link>
							<link>
								<linkclipref>msub200012-3011-k2d2-004 11</linkclipref>
								<mediatype>audio</mediatype>
								<trackindex>8</trackindex>
								<clipindex>1</clipindex>
							</link>
						</clipitem>
						<enabled>TRUE</enabled>
						<locked>FALSE</locked>
					</track>
					<track>
						<clipitem id="msub200012-3011-k2d2-004 8">
							<name>msub200012-3011-k2d2-004</name>
							<duration>2909</duration>
							<rate>
								<ntsc>FALSE</ntsc>
								<timebase>25</timebase>
							</rate>
							<in>0</in>
							<out>2909</out>
							<start>0</start>
							<end>2909</end>
							<subframeoffset>0</subframeoffset>
							<masterclipid>msub200012-3011-k2d2-004 2</masterclipid>
							<syncoffset>0</syncoffset>
							<logginginfo>
								<description>msub200012-3011-k2d2-004</description>
								<scene/>
								<shottake/>
								<lognote/>
								<good>FALSE</good>
							</logginginfo>
							<labels>
								<label>Alternate Shots</label>
								<label2/>
							</labels>
							<comments>
								<mastercomment1>RÃ…STOFF. BR_FINFREDAG_MSUA_OPRO</mastercomment1>
								<mastercomment2/>
								<mastercomment3/>
								<mastercomment4/>
								<clipcommenta/>
							</comments>
							<file id="msub200012-3011-k2d2-004 3"/>
							<filter>
								<effect>
									<name>Audio Levels</name>
									<effectid>audiolevels</effectid>
									<effectcategory>audiolevels</effectcategory>
									<effecttype>audiolevels</effecttype>
									<mediatype>audio</mediatype>
									<parameter>
										<name>Level</name>
										<parameterid>level</parameterid>
										<valuemin>0</valuemin>
										<valuemax>3.98109</valuemax>
										<value>1</value>
									</parameter>
								</effect>
							</filter>
							<filter>
								<effect>
									<name>Audio Pan</name>
									<effectid>audiopan</effectid>
									<effectcategory>audiopan</effectcategory>
									<effecttype>audiopan</effecttype>
									<mediatype>audio</mediatype>
									<parameter>
										<name>Pan</name>
										<parameterid>pan</parameterid>
										<valuemin>-1</valuemin>
										<valuemax>1</valuemax>
										<value>0</value>
									</parameter>
								</effect>
							</filter>
							<sourcetrack>
								<mediatype>audio</mediatype>
								<trackindex>5</trackindex>
							</sourcetrack>
							<link>
								<linkclipref>msub200012-3011-k2d2-004 1</linkclipref>
								<mediatype>video</mediatype>
								<trackindex>1</trackindex>
								<clipindex>1</clipindex>
							</link>
							<link>
								<linkclipref>msub200012-3011-k2d2-004 4</linkclipref>
								<mediatype>audio</mediatype>
								<trackindex>1</trackindex>
								<clipindex>1</clipindex>
							</link>
							<link>
								<linkclipref>msub200012-3011-k2d2-004 5</linkclipref>
								<mediatype>audio</mediatype>
								<trackindex>2</trackindex>
								<clipindex>1</clipindex>
							</link>
							<link>
								<linkclipref>msub200012-3011-k2d2-004 6</linkclipref>
								<mediatype>audio</mediatype>
								<trackindex>3</trackindex>
								<clipindex>1</clipindex>
							</link>
							<link>
								<linkclipref>msub200012-3011-k2d2-004 7</linkclipref>
								<mediatype>audio</mediatype>
								<trackindex>4</trackindex>
								<clipindex>1</clipindex>
							</link>
							<link>
								<linkclipref>msub200012-3011-k2d2-004 8</linkclipref>
								<mediatype>audio</mediatype>
								<trackindex>5</trackindex>
								<clipindex>1</clipindex>
							</link>
							<link>
								<linkclipref>msub200012-3011-k2d2-004 9</linkclipref>
								<mediatype>audio</mediatype>
								<trackindex>6</trackindex>
								<clipindex>1</clipindex>
							</link>
							<link>
								<linkclipref>msub200012-3011-k2d2-004 10</linkclipref>
								<mediatype>audio</mediatype>
								<trackindex>7</trackindex>
								<clipindex>1</clipindex>
							</link>
							<link>
								<linkclipref>msub200012-3011-k2d2-004 11</linkclipref>
								<mediatype>audio</mediatype>
								<trackindex>8</trackindex>
								<clipindex>1</clipindex>
							</link>
						</clipitem>
						<enabled>TRUE</enabled>
						<locked>FALSE</locked>
					</track>
					<track>
						<clipitem id="msub200012-3011-k2d2-004 9">
							<name>msub200012-3011-k2d2-004</name>
							<duration>2909</duration>
							<rate>
								<ntsc>FALSE</ntsc>
								<timebase>25</timebase>
							</rate>
							<in>0</in>
							<out>2909</out>
							<start>0</start>
							<end>2909</end>
							<subframeoffset>0</subframeoffset>
							<masterclipid>msub200012-3011-k2d2-004 2</masterclipid>
							<syncoffset>0</syncoffset>
							<logginginfo>
								<description>msub200012-3011-k2d2-004</description>
								<scene/>
								<shottake/>
								<lognote/>
								<good>FALSE</good>
							</logginginfo>
							<labels>
								<label>Alternate Shots</label>
								<label2/>
							</labels>
							<comments>
								<mastercomment1>RÃ…STOFF. BR_FINFREDAG_MSUA_OPRO</mastercomment1>
								<mastercomment2/>
								<mastercomment3/>
								<mastercomment4/>
								<clipcommenta/>
							</comments>
							<file id="msub200012-3011-k2d2-004 3"/>
							<filter>
								<effect>
									<name>Audio Levels</name>
									<effectid>audiolevels</effectid>
									<effectcategory>audiolevels</effectcategory>
									<effecttype>audiolevels</effecttype>
									<mediatype>audio</mediatype>
									<parameter>
										<name>Level</name>
										<parameterid>level</parameterid>
										<valuemin>0</valuemin>
										<valuemax>3.98109</valuemax>
										<value>1</value>
									</parameter>
								</effect>
							</filter>
							<filter>
								<effect>
									<name>Audio Pan</name>
									<effectid>audiopan</effectid>
									<effectcategory>audiopan</effectcategory>
									<effecttype>audiopan</effecttype>
									<mediatype>audio</mediatype>
									<parameter>
										<name>Pan</name>
										<parameterid>pan</parameterid>
										<valuemin>-1</valuemin>
										<valuemax>1</valuemax>
										<value>0</value>
									</parameter>
								</effect>
							</filter>
							<sourcetrack>
								<mediatype>audio</mediatype>
								<trackindex>6</trackindex>
							</sourcetrack>
							<link>
								<linkclipref>msub200012-3011-k2d2-004 1</linkclipref>
								<mediatype>video</mediatype>
								<trackindex>1</trackindex>
								<clipindex>1</clipindex>
							</link>
							<link>
								<linkclipref>msub200012-3011-k2d2-004 4</linkclipref>
								<mediatype>audio</mediatype>
								<trackindex>1</trackindex>
								<clipindex>1</clipindex>
							</link>
							<link>
								<linkclipref>msub200012-3011-k2d2-004 5</linkclipref>
								<mediatype>audio</mediatype>
								<trackindex>2</trackindex>
								<clipindex>1</clipindex>
							</link>
							<link>
								<linkclipref>msub200012-3011-k2d2-004 6</linkclipref>
								<mediatype>audio</mediatype>
								<trackindex>3</trackindex>
								<clipindex>1</clipindex>
							</link>
							<link>
								<linkclipref>msub200012-3011-k2d2-004 7</linkclipref>
								<mediatype>audio</mediatype>
								<trackindex>4</trackindex>
								<clipindex>1</clipindex>
							</link>
							<link>
								<linkclipref>msub200012-3011-k2d2-004 8</linkclipref>
								<mediatype>audio</mediatype>
								<trackindex>5</trackindex>
								<clipindex>1</clipindex>
							</link>
							<link>
								<linkclipref>msub200012-3011-k2d2-004 9</linkclipref>
								<mediatype>audio</mediatype>
								<trackindex>6</trackindex>
								<clipindex>1</clipindex>
							</link>
							<link>
								<linkclipref>msub200012-3011-k2d2-004 10</linkclipref>
								<mediatype>audio</mediatype>
								<trackindex>7</trackindex>
								<clipindex>1</clipindex>
							</link>
							<link>
								<linkclipref>msub200012-3011-k2d2-004 11</linkclipref>
								<mediatype>audio</mediatype>
								<trackindex>8</trackindex>
								<clipindex>1</clipindex>
							</link>
						</clipitem>
						<enabled>TRUE</enabled>
						<locked>FALSE</locked>
					</track>
					<track>
						<clipitem id="msub200012-3011-k2d2-004 10">
							<name>msub200012-3011-k2d2-004</name>
							<duration>2909</duration>
							<rate>
								<ntsc>FALSE</ntsc>
								<timebase>25</timebase>
							</rate>
							<in>0</in>
							<out>2909</out>
							<start>0</start>
							<end>2909</end>
							<subframeoffset>0</subframeoffset>
							<masterclipid>msub200012-3011-k2d2-004 2</masterclipid>
							<syncoffset>0</syncoffset>
							<logginginfo>
								<description>msub200012-3011-k2d2-004</description>
								<scene/>
								<shottake/>
								<lognote/>
								<good>FALSE</good>
							</logginginfo>
							<labels>
								<label>Alternate Shots</label>
								<label2/>
							</labels>
							<comments>
								<mastercomment1>RÃ…STOFF. BR_FINFREDAG_MSUA_OPRO</mastercomment1>
								<mastercomment2/>
								<mastercomment3/>
								<mastercomment4/>
								<clipcommenta/>
							</comments>
							<file id="msub200012-3011-k2d2-004 3"/>
							<filter>
								<effect>
									<name>Audio Levels</name>
									<effectid>audiolevels</effectid>
									<effectcategory>audiolevels</effectcategory>
									<effecttype>audiolevels</effecttype>
									<mediatype>audio</mediatype>
									<parameter>
										<name>Level</name>
										<parameterid>level</parameterid>
										<valuemin>0</valuemin>
										<valuemax>3.98109</valuemax>
										<value>1</value>
									</parameter>
								</effect>
							</filter>
							<filter>
								<effect>
									<name>Audio Pan</name>
									<effectid>audiopan</effectid>
									<effectcategory>audiopan</effectcategory>
									<effecttype>audiopan</effecttype>
									<mediatype>audio</mediatype>
									<parameter>
										<name>Pan</name>
										<parameterid>pan</parameterid>
										<valuemin>-1</valuemin>
										<valuemax>1</valuemax>
										<value>0</value>
									</parameter>
								</effect>
							</filter>
							<sourcetrack>
								<mediatype>audio</mediatype>
								<trackindex>7</trackindex>
							</sourcetrack>
							<link>
								<linkclipref>msub200012-3011-k2d2-004 1</linkclipref>
								<mediatype>video</mediatype>
								<trackindex>1</trackindex>
								<clipindex>1</clipindex>
							</link>
							<link>
								<linkclipref>msub200012-3011-k2d2-004 4</linkclipref>
								<mediatype>audio</mediatype>
								<trackindex>1</trackindex>
								<clipindex>1</clipindex>
							</link>
							<link>
								<linkclipref>msub200012-3011-k2d2-004 5</linkclipref>
								<mediatype>audio</mediatype>
								<trackindex>2</trackindex>
								<clipindex>1</clipindex>
							</link>
							<link>
								<linkclipref>msub200012-3011-k2d2-004 6</linkclipref>
								<mediatype>audio</mediatype>
								<trackindex>3</trackindex>
								<clipindex>1</clipindex>
							</link>
							<link>
								<linkclipref>msub200012-3011-k2d2-004 7</linkclipref>
								<mediatype>audio</mediatype>
								<trackindex>4</trackindex>
								<clipindex>1</clipindex>
							</link>
							<link>
								<linkclipref>msub200012-3011-k2d2-004 8</linkclipref>
								<mediatype>audio</mediatype>
								<trackindex>5</trackindex>
								<clipindex>1</clipindex>
							</link>
							<link>
								<linkclipref>msub200012-3011-k2d2-004 9</linkclipref>
								<mediatype>audio</mediatype>
								<trackindex>6</trackindex>
								<clipindex>1</clipindex>
							</link>
							<link>
								<linkclipref>msub200012-3011-k2d2-004 10</linkclipref>
								<mediatype>audio</mediatype>
								<trackindex>7</trackindex>
								<clipindex>1</clipindex>
							</link>
							<link>
								<linkclipref>msub200012-3011-k2d2-004 11</linkclipref>
								<mediatype>audio</mediatype>
								<trackindex>8</trackindex>
								<clipindex>1</clipindex>
							</link>
						</clipitem>
						<enabled>TRUE</enabled>
						<locked>FALSE</locked>
					</track>
					<track>
						<clipitem id="msub200012-3011-k2d2-004 11">
							<name>msub200012-3011-k2d2-004</name>
							<duration>2909</duration>
							<rate>
								<ntsc>FALSE</ntsc>
								<timebase>25</timebase>
							</rate>
							<in>0</in>
							<out>2909</out>
							<start>0</start>
							<end>2909</end>
							<subframeoffset>0</subframeoffset>
							<masterclipid>msub200012-3011-k2d2-004 2</masterclipid>
							<syncoffset>0</syncoffset>
							<logginginfo>
								<description>msub200012-3011-k2d2-004</description>
								<scene/>
								<shottake/>
								<lognote/>
								<good>FALSE</good>
							</logginginfo>
							<labels>
								<label>Alternate Shots</label>
								<label2/>
							</labels>
							<comments>
								<mastercomment1>RÃ…STOFF. BR_FINFREDAG_MSUA_OPRO</mastercomment1>
								<mastercomment2/>
								<mastercomment3/>
								<mastercomment4/>
								<clipcommenta/>
							</comments>
							<file id="msub200012-3011-k2d2-004 3"/>
							<filter>
								<effect>
									<name>Audio Levels</name>
									<effectid>audiolevels</effectid>
									<effectcategory>audiolevels</effectcategory>
									<effecttype>audiolevels</effecttype>
									<mediatype>audio</mediatype>
									<parameter>
										<name>Level</name>
										<parameterid>level</parameterid>
										<valuemin>0</valuemin>
										<valuemax>3.98109</valuemax>
										<value>1</value>
									</parameter>
								</effect>
							</filter>
							<filter>
								<effect>
									<name>Audio Pan</name>
									<effectid>audiopan</effectid>
									<effectcategory>audiopan</effectcategory>
									<effecttype>audiopan</effecttype>
									<mediatype>audio</mediatype>
									<parameter>
										<name>Pan</name>
										<parameterid>pan</parameterid>
										<valuemin>-1</valuemin>
										<valuemax>1</valuemax>
										<value>0</value>
									</parameter>
								</effect>
							</filter>
							<sourcetrack>
								<mediatype>audio</mediatype>
								<trackindex>8</trackindex>
							</sourcetrack>
							<link>
								<linkclipref>msub200012-3011-k2d2-004 1</linkclipref>
								<mediatype>video</mediatype>
								<trackindex>1</trackindex>
								<clipindex>1</clipindex>
							</link>
							<link>
								<linkclipref>msub200012-3011-k2d2-004 4</linkclipref>
								<mediatype>audio</mediatype>
								<trackindex>1</trackindex>
								<clipindex>1</clipindex>
							</link>
							<link>
								<linkclipref>msub200012-3011-k2d2-004 5</linkclipref>
								<mediatype>audio</mediatype>
								<trackindex>2</trackindex>
								<clipindex>1</clipindex>
							</link>
							<link>
								<linkclipref>msub200012-3011-k2d2-004 6</linkclipref>
								<mediatype>audio</mediatype>
								<trackindex>3</trackindex>
								<clipindex>1</clipindex>
							</link>
							<link>
								<linkclipref>msub200012-3011-k2d2-004 7</linkclipref>
								<mediatype>audio</mediatype>
								<trackindex>4</trackindex>
								<clipindex>1</clipindex>
							</link>
							<link>
								<linkclipref>msub200012-3011-k2d2-004 8</linkclipref>
								<mediatype>audio</mediatype>
								<trackindex>5</trackindex>
								<clipindex>1</clipindex>
							</link>
							<link>
								<linkclipref>msub200012-3011-k2d2-004 9</linkclipref>
								<mediatype>audio</mediatype>
								<trackindex>6</trackindex>
								<clipindex>1</clipindex>
							</link>
							<link>
								<linkclipref>msub200012-3011-k2d2-004 10</linkclipref>
								<mediatype>audio</mediatype>
								<trackindex>7</trackindex>
								<clipindex>1</clipindex>
							</link>
							<link>
								<linkclipref>msub200012-3011-k2d2-004 11</linkclipref>
								<mediatype>audio</mediatype>
								<trackindex>8</trackindex>
								<clipindex>1</clipindex>
							</link>
						</clipitem>
						<enabled>TRUE</enabled>
						<locked>FALSE</locked>
					</track>
				</audio>
			</media>
		</clip>
		<clip id="msub200012-3011-k2d3-005 35">
			<name>msub200012-3011-k2d3-005</name>
			<duration>8740</duration>
			<rate>
				<ntsc>FALSE</ntsc>
				<timebase>25</timebase>
			</rate>
			<in>181</in>
			<out>-1</out>
			<masterclipid>msub200012-3011-k2d3-005 1</masterclipid>
			<ismasterclip>FALSE</ismasterclip>
			<logginginfo>
				<description>msub200012-3011-k2d3-005</description>
				<scene/>
				<shottake/>
				<lognote/>
				<good>FALSE</good>
			</logginginfo>
			<labels>
				<label>Good Take</label>
				<label2/>
			</labels>
			<comments>
				<mastercomment1>RÃ…STOFF. BR_FINFREDAG_MSUA_OPRO</mastercomment1>
				<mastercomment2/>
				<mastercomment3/>
				<mastercomment4/>
				<clipcommenta/>
			</comments>
			<media>
				<video>
					<track>
						<clipitem id="msub200012-3011-k2d3-005 36">
							<name>msub200012-3011-k2d3-005</name>
							<duration>8740</duration>
							<rate>
								<ntsc>FALSE</ntsc>
								<timebase>25</timebase>
							</rate>
							<in>0</in>
							<out>8740</out>
							<start>0</start>
							<end>8740</end>
							<pixelaspectratio>Square</pixelaspectratio>
							<anamorphic>FALSE</anamorphic>
							<alphatype>none</alphatype>
							<masterclipid>msub200012-3011-k2d3-005 1</masterclipid>
							<syncoffset>0</syncoffset>
							<logginginfo>
								<scene/>
								<shottake/>
								<lognote/>
								<good>FALSE</good>
							</logginginfo>
							<labels>
								<label>Good Take</label>
								<label2/>
							</labels>
							<comments>
								<mastercomment1>RÃ…STOFF. BR_FINFREDAG_MSUA_OPRO</mastercomment1>
								<mastercomment2/>
								<mastercomment3/>
								<mastercomment4/>
								<clipcommenta/>
							</comments>
							<file id="msub200012-3011-k2d3-005 2"/>
							<sourcetrack>
								<mediatype>video</mediatype>
							</sourcetrack>
							<link>
								<linkclipref>msub200012-3011-k2d3-005 36</linkclipref>
								<mediatype>video</mediatype>
								<trackindex>1</trackindex>
								<clipindex>1</clipindex>
							</link>
							<link>
								<linkclipref>msub200012-3011-k2d3-005 37</linkclipref>
								<mediatype>audio</mediatype>
								<trackindex>1</trackindex>
								<clipindex>1</clipindex>
							</link>
							<link>
								<linkclipref>msub200012-3011-k2d3-005 38</linkclipref>
								<mediatype>audio</mediatype>
								<trackindex>2</trackindex>
								<clipindex>1</clipindex>
							</link>
							<link>
								<linkclipref>msub200012-3011-k2d3-005 39</linkclipref>
								<mediatype>audio</mediatype>
								<trackindex>3</trackindex>
								<clipindex>1</clipindex>
							</link>
							<link>
								<linkclipref>msub200012-3011-k2d3-005 40</linkclipref>
								<mediatype>audio</mediatype>
								<trackindex>4</trackindex>
								<clipindex>1</clipindex>
							</link>
							<link>
								<linkclipref>msub200012-3011-k2d3-005 41</linkclipref>
								<mediatype>audio</mediatype>
								<trackindex>5</trackindex>
								<clipindex>1</clipindex>
							</link>
							<link>
								<linkclipref>msub200012-3011-k2d3-005 42</linkclipref>
								<mediatype>audio</mediatype>
								<trackindex>6</trackindex>
								<clipindex>1</clipindex>
							</link>
							<link>
								<linkclipref>msub200012-3011-k2d3-005 43</linkclipref>
								<mediatype>audio</mediatype>
								<trackindex>7</trackindex>
								<clipindex>1</clipindex>
							</link>
							<link>
								<linkclipref>msub200012-3011-k2d3-005 44</linkclipref>
								<mediatype>audio</mediatype>
								<trackindex>8</trackindex>
								<clipindex>1</clipindex>
							</link>
							<fielddominance>upper</fielddominance>
						</clipitem>
						<enabled>TRUE</enabled>
						<locked>FALSE</locked>
					</track>
				</video>
				<audio>
					<in>181</in>
					<out>-1</out>
					<track>
						<clipitem id="msub200012-3011-k2d3-005 37">
							<name>msub200012-3011-k2d3-005</name>
							<duration>8740</duration>
							<rate>
								<ntsc>FALSE</ntsc>
								<timebase>25</timebase>
							</rate>
							<in>0</in>
							<out>8740</out>
							<start>0</start>
							<end>8740</end>
							<subframeoffset>0</subframeoffset>
							<masterclipid>msub200012-3011-k2d3-005 1</masterclipid>
							<syncoffset>0</syncoffset>
							<logginginfo>
								<scene/>
								<shottake/>
								<lognote/>
								<good>FALSE</good>
							</logginginfo>
							<labels>
								<label>Good Take</label>
								<label2/>
							</labels>
							<comments>
								<mastercomment1>RÃ…STOFF. BR_FINFREDAG_MSUA_OPRO</mastercomment1>
								<mastercomment2/>
								<mastercomment3/>
								<mastercomment4/>
							</comments>
							<file id="msub200012-3011-k2d3-005 2"/>
							<filter>
								<effect>
									<name>Audio Levels</name>
									<effectid>audiolevels</effectid>
									<effectcategory>audiolevels</effectcategory>
									<effecttype>audiolevels</effecttype>
									<mediatype>audio</mediatype>
									<parameter>
										<name>Level</name>
										<parameterid>level</parameterid>
										<valuemin>0</valuemin>
										<valuemax>3.98109</valuemax>
										<value>1</value>
									</parameter>
								</effect>
							</filter>
							<filter>
								<effect>
									<name>Audio Pan</name>
									<effectid>audiopan</effectid>
									<effectcategory>audiopan</effectcategory>
									<effecttype>audiopan</effecttype>
									<mediatype>audio</mediatype>
									<parameter>
										<name>Pan</name>
										<parameterid>pan</parameterid>
										<valuemin>-1</valuemin>
										<valuemax>1</valuemax>
										<value>0</value>
									</parameter>
								</effect>
							</filter>
							<sourcetrack>
								<mediatype>audio</mediatype>
								<trackindex>1</trackindex>
							</sourcetrack>
							<link>
								<linkclipref>msub200012-3011-k2d3-005 36</linkclipref>
								<mediatype>video</mediatype>
								<trackindex>1</trackindex>
								<clipindex>1</clipindex>
							</link>
							<link>
								<linkclipref>msub200012-3011-k2d3-005 37</linkclipref>
								<mediatype>audio</mediatype>
								<trackindex>1</trackindex>
								<clipindex>1</clipindex>
							</link>
							<link>
								<linkclipref>msub200012-3011-k2d3-005 38</linkclipref>
								<mediatype>audio</mediatype>
								<trackindex>2</trackindex>
								<clipindex>1</clipindex>
							</link>
							<link>
								<linkclipref>msub200012-3011-k2d3-005 39</linkclipref>
								<mediatype>audio</mediatype>
								<trackindex>3</trackindex>
								<clipindex>1</clipindex>
							</link>
							<link>
								<linkclipref>msub200012-3011-k2d3-005 40</linkclipref>
								<mediatype>audio</mediatype>
								<trackindex>4</trackindex>
								<clipindex>1</clipindex>
							</link>
							<link>
								<linkclipref>msub200012-3011-k2d3-005 41</linkclipref>
								<mediatype>audio</mediatype>
								<trackindex>5</trackindex>
								<clipindex>1</clipindex>
							</link>
							<link>
								<linkclipref>msub200012-3011-k2d3-005 42</linkclipref>
								<mediatype>audio</mediatype>
								<trackindex>6</trackindex>
								<clipindex>1</clipindex>
							</link>
							<link>
								<linkclipref>msub200012-3011-k2d3-005 43</linkclipref>
								<mediatype>audio</mediatype>
								<trackindex>7</trackindex>
								<clipindex>1</clipindex>
							</link>
							<link>
								<linkclipref>msub200012-3011-k2d3-005 44</linkclipref>
								<mediatype>audio</mediatype>
								<trackindex>8</trackindex>
								<clipindex>1</clipindex>
							</link>
						</clipitem>
						<enabled>TRUE</enabled>
						<locked>FALSE</locked>
					</track>
					<track>
						<clipitem id="msub200012-3011-k2d3-005 38">
							<name>msub200012-3011-k2d3-005</name>
							<duration>8740</duration>
							<rate>
								<ntsc>FALSE</ntsc>
								<timebase>25</timebase>
							</rate>
							<in>0</in>
							<out>8740</out>
							<start>0</start>
							<end>8740</end>
							<subframeoffset>0</subframeoffset>
							<masterclipid>msub200012-3011-k2d3-005 1</masterclipid>
							<syncoffset>0</syncoffset>
							<logginginfo>
								<scene/>
								<shottake/>
								<lognote/>
								<good>FALSE</good>
							</logginginfo>
							<labels>
								<label>Good Take</label>
								<label2/>
							</labels>
							<comments>
								<mastercomment1>RÃ…STOFF. BR_FINFREDAG_MSUA_OPRO</mastercomment1>
								<mastercomment2/>
								<mastercomment3/>
								<mastercomment4/>
							</comments>
							<file id="msub200012-3011-k2d3-005 2"/>
							<filter>
								<effect>
									<name>Audio Levels</name>
									<effectid>audiolevels</effectid>
									<effectcategory>audiolevels</effectcategory>
									<effecttype>audiolevels</effecttype>
									<mediatype>audio</mediatype>
									<parameter>
										<name>Level</name>
										<parameterid>level</parameterid>
										<valuemin>0</valuemin>
										<valuemax>3.98109</valuemax>
										<value>1</value>
									</parameter>
								</effect>
							</filter>
							<filter>
								<effect>
									<name>Audio Pan</name>
									<effectid>audiopan</effectid>
									<effectcategory>audiopan</effectcategory>
									<effecttype>audiopan</effecttype>
									<mediatype>audio</mediatype>
									<parameter>
										<name>Pan</name>
										<parameterid>pan</parameterid>
										<valuemin>-1</valuemin>
										<valuemax>1</valuemax>
										<value>0</value>
									</parameter>
								</effect>
							</filter>
							<sourcetrack>
								<mediatype>audio</mediatype>
								<trackindex>2</trackindex>
							</sourcetrack>
							<link>
								<linkclipref>msub200012-3011-k2d3-005 36</linkclipref>
								<mediatype>video</mediatype>
								<trackindex>1</trackindex>
								<clipindex>1</clipindex>
							</link>
							<link>
								<linkclipref>msub200012-3011-k2d3-005 37</linkclipref>
								<mediatype>audio</mediatype>
								<trackindex>1</trackindex>
								<clipindex>1</clipindex>
							</link>
							<link>
								<linkclipref>msub200012-3011-k2d3-005 38</linkclipref>
								<mediatype>audio</mediatype>
								<trackindex>2</trackindex>
								<clipindex>1</clipindex>
							</link>
							<link>
								<linkclipref>msub200012-3011-k2d3-005 39</linkclipref>
								<mediatype>audio</mediatype>
								<trackindex>3</trackindex>
								<clipindex>1</clipindex>
							</link>
							<link>
								<linkclipref>msub200012-3011-k2d3-005 40</linkclipref>
								<mediatype>audio</mediatype>
								<trackindex>4</trackindex>
								<clipindex>1</clipindex>
							</link>
							<link>
								<linkclipref>msub200012-3011-k2d3-005 41</linkclipref>
								<mediatype>audio</mediatype>
								<trackindex>5</trackindex>
								<clipindex>1</clipindex>
							</link>
							<link>
								<linkclipref>msub200012-3011-k2d3-005 42</linkclipref>
								<mediatype>audio</mediatype>
								<trackindex>6</trackindex>
								<clipindex>1</clipindex>
							</link>
							<link>
								<linkclipref>msub200012-3011-k2d3-005 43</linkclipref>
								<mediatype>audio</mediatype>
								<trackindex>7</trackindex>
								<clipindex>1</clipindex>
							</link>
							<link>
								<linkclipref>msub200012-3011-k2d3-005 44</linkclipref>
								<mediatype>audio</mediatype>
								<trackindex>8</trackindex>
								<clipindex>1</clipindex>
							</link>
						</clipitem>
						<enabled>TRUE</enabled>
						<locked>FALSE</locked>
					</track>
					<track>
						<clipitem id="msub200012-3011-k2d3-005 39">
							<name>msub200012-3011-k2d3-005</name>
							<duration>8740</duration>
							<rate>
								<ntsc>FALSE</ntsc>
								<timebase>25</timebase>
							</rate>
							<in>0</in>
							<out>8740</out>
							<start>0</start>
							<end>8740</end>
							<subframeoffset>0</subframeoffset>
							<masterclipid>msub200012-3011-k2d3-005 1</masterclipid>
							<syncoffset>0</syncoffset>
							<logginginfo>
								<scene/>
								<shottake/>
								<lognote/>
								<good>FALSE</good>
							</logginginfo>
							<labels>
								<label>Good Take</label>
								<label2/>
							</labels>
							<comments>
								<mastercomment1>RÃ…STOFF. BR_FINFREDAG_MSUA_OPRO</mastercomment1>
								<mastercomment2/>
								<mastercomment3/>
								<mastercomment4/>
							</comments>
							<file id="msub200012-3011-k2d3-005 2"/>
							<filter>
								<effect>
									<name>Audio Levels</name>
									<effectid>audiolevels</effectid>
									<effectcategory>audiolevels</effectcategory>
									<effecttype>audiolevels</effecttype>
									<mediatype>audio</mediatype>
									<parameter>
										<name>Level</name>
										<parameterid>level</parameterid>
										<valuemin>0</valuemin>
										<valuemax>3.98109</valuemax>
										<value>1</value>
									</parameter>
								</effect>
							</filter>
							<filter>
								<effect>
									<name>Audio Pan</name>
									<effectid>audiopan</effectid>
									<effectcategory>audiopan</effectcategory>
									<effecttype>audiopan</effecttype>
									<mediatype>audio</mediatype>
									<parameter>
										<name>Pan</name>
										<parameterid>pan</parameterid>
										<valuemin>-1</valuemin>
										<valuemax>1</valuemax>
										<value>0</value>
									</parameter>
								</effect>
							</filter>
							<sourcetrack>
								<mediatype>audio</mediatype>
								<trackindex>3</trackindex>
							</sourcetrack>
							<link>
								<linkclipref>msub200012-3011-k2d3-005 36</linkclipref>
								<mediatype>video</mediatype>
								<trackindex>1</trackindex>
								<clipindex>1</clipindex>
							</link>
							<link>
								<linkclipref>msub200012-3011-k2d3-005 37</linkclipref>
								<mediatype>audio</mediatype>
								<trackindex>1</trackindex>
								<clipindex>1</clipindex>
							</link>
							<link>
								<linkclipref>msub200012-3011-k2d3-005 38</linkclipref>
								<mediatype>audio</mediatype>
								<trackindex>2</trackindex>
								<clipindex>1</clipindex>
							</link>
							<link>
								<linkclipref>msub200012-3011-k2d3-005 39</linkclipref>
								<mediatype>audio</mediatype>
								<trackindex>3</trackindex>
								<clipindex>1</clipindex>
							</link>
							<link>
								<linkclipref>msub200012-3011-k2d3-005 40</linkclipref>
								<mediatype>audio</mediatype>
								<trackindex>4</trackindex>
								<clipindex>1</clipindex>
							</link>
							<link>
								<linkclipref>msub200012-3011-k2d3-005 41</linkclipref>
								<mediatype>audio</mediatype>
								<trackindex>5</trackindex>
								<clipindex>1</clipindex>
							</link>
							<link>
								<linkclipref>msub200012-3011-k2d3-005 42</linkclipref>
								<mediatype>audio</mediatype>
								<trackindex>6</trackindex>
								<clipindex>1</clipindex>
							</link>
							<link>
								<linkclipref>msub200012-3011-k2d3-005 43</linkclipref>
								<mediatype>audio</mediatype>
								<trackindex>7</trackindex>
								<clipindex>1</clipindex>
							</link>
							<link>
								<linkclipref>msub200012-3011-k2d3-005 44</linkclipref>
								<mediatype>audio</mediatype>
								<trackindex>8</trackindex>
								<clipindex>1</clipindex>
							</link>
						</clipitem>
						<enabled>TRUE</enabled>
						<locked>FALSE</locked>
					</track>
					<track>
						<clipitem id="msub200012-3011-k2d3-005 40">
							<name>msub200012-3011-k2d3-005</name>
							<duration>8740</duration>
							<rate>
								<ntsc>FALSE</ntsc>
								<timebase>25</timebase>
							</rate>
							<in>0</in>
							<out>8740</out>
							<start>0</start>
							<end>8740</end>
							<subframeoffset>0</subframeoffset>
							<masterclipid>msub200012-3011-k2d3-005 1</masterclipid>
							<syncoffset>0</syncoffset>
							<logginginfo>
								<scene/>
								<shottake/>
								<lognote/>
								<good>FALSE</good>
							</logginginfo>
							<labels>
								<label>Good Take</label>
								<label2/>
							</labels>
							<comments>
								<mastercomment1>RÃ…STOFF. BR_FINFREDAG_MSUA_OPRO</mastercomment1>
								<mastercomment2/>
								<mastercomment3/>
								<mastercomment4/>
							</comments>
							<file id="msub200012-3011-k2d3-005 2"/>
							<filter>
								<effect>
									<name>Audio Levels</name>
									<effectid>audiolevels</effectid>
									<effectcategory>audiolevels</effectcategory>
									<effecttype>audiolevels</effecttype>
									<mediatype>audio</mediatype>
									<parameter>
										<name>Level</name>
										<parameterid>level</parameterid>
										<valuemin>0</valuemin>
										<valuemax>3.98109</valuemax>
										<value>1</value>
									</parameter>
								</effect>
							</filter>
							<filter>
								<effect>
									<name>Audio Pan</name>
									<effectid>audiopan</effectid>
									<effectcategory>audiopan</effectcategory>
									<effecttype>audiopan</effecttype>
									<mediatype>audio</mediatype>
									<parameter>
										<name>Pan</name>
										<parameterid>pan</parameterid>
										<valuemin>-1</valuemin>
										<valuemax>1</valuemax>
										<value>0</value>
									</parameter>
								</effect>
							</filter>
							<sourcetrack>
								<mediatype>audio</mediatype>
								<trackindex>4</trackindex>
							</sourcetrack>
							<link>
								<linkclipref>msub200012-3011-k2d3-005 36</linkclipref>
								<mediatype>video</mediatype>
								<trackindex>1</trackindex>
								<clipindex>1</clipindex>
							</link>
							<link>
								<linkclipref>msub200012-3011-k2d3-005 37</linkclipref>
								<mediatype>audio</mediatype>
								<trackindex>1</trackindex>
								<clipindex>1</clipindex>
							</link>
							<link>
								<linkclipref>msub200012-3011-k2d3-005 38</linkclipref>
								<mediatype>audio</mediatype>
								<trackindex>2</trackindex>
								<clipindex>1</clipindex>
							</link>
							<link>
								<linkclipref>msub200012-3011-k2d3-005 39</linkclipref>
								<mediatype>audio</mediatype>
								<trackindex>3</trackindex>
								<clipindex>1</clipindex>
							</link>
							<link>
								<linkclipref>msub200012-3011-k2d3-005 40</linkclipref>
								<mediatype>audio</mediatype>
								<trackindex>4</trackindex>
								<clipindex>1</clipindex>
							</link>
							<link>
								<linkclipref>msub200012-3011-k2d3-005 41</linkclipref>
								<mediatype>audio</mediatype>
								<trackindex>5</trackindex>
								<clipindex>1</clipindex>
							</link>
							<link>
								<linkclipref>msub200012-3011-k2d3-005 42</linkclipref>
								<mediatype>audio</mediatype>
								<trackindex>6</trackindex>
								<clipindex>1</clipindex>
							</link>
							<link>
								<linkclipref>msub200012-3011-k2d3-005 43</linkclipref>
								<mediatype>audio</mediatype>
								<trackindex>7</trackindex>
								<clipindex>1</clipindex>
							</link>
							<link>
								<linkclipref>msub200012-3011-k2d3-005 44</linkclipref>
								<mediatype>audio</mediatype>
								<trackindex>8</trackindex>
								<clipindex>1</clipindex>
							</link>
						</clipitem>
						<enabled>TRUE</enabled>
						<locked>FALSE</locked>
					</track>
					<track>
						<clipitem id="msub200012-3011-k2d3-005 41">
							<name>msub200012-3011-k2d3-005</name>
							<duration>8740</duration>
							<rate>
								<ntsc>FALSE</ntsc>
								<timebase>25</timebase>
							</rate>
							<in>0</in>
							<out>8740</out>
							<start>0</start>
							<end>8740</end>
							<subframeoffset>0</subframeoffset>
							<masterclipid>msub200012-3011-k2d3-005 1</masterclipid>
							<syncoffset>0</syncoffset>
							<logginginfo>
								<scene/>
								<shottake/>
								<lognote/>
								<good>FALSE</good>
							</logginginfo>
							<labels>
								<label>Good Take</label>
								<label2/>
							</labels>
							<comments>
								<mastercomment1>RÃ…STOFF. BR_FINFREDAG_MSUA_OPRO</mastercomment1>
								<mastercomment2/>
								<mastercomment3/>
								<mastercomment4/>
							</comments>
							<file id="msub200012-3011-k2d3-005 2"/>
							<filter>
								<effect>
									<name>Audio Levels</name>
									<effectid>audiolevels</effectid>
									<effectcategory>audiolevels</effectcategory>
									<effecttype>audiolevels</effecttype>
									<mediatype>audio</mediatype>
									<parameter>
										<name>Level</name>
										<parameterid>level</parameterid>
										<valuemin>0</valuemin>
										<valuemax>3.98109</valuemax>
										<value>1</value>
									</parameter>
								</effect>
							</filter>
							<filter>
								<effect>
									<name>Audio Pan</name>
									<effectid>audiopan</effectid>
									<effectcategory>audiopan</effectcategory>
									<effecttype>audiopan</effecttype>
									<mediatype>audio</mediatype>
									<parameter>
										<name>Pan</name>
										<parameterid>pan</parameterid>
										<valuemin>-1</valuemin>
										<valuemax>1</valuemax>
										<value>0</value>
									</parameter>
								</effect>
							</filter>
							<sourcetrack>
								<mediatype>audio</mediatype>
								<trackindex>5</trackindex>
							</sourcetrack>
							<link>
								<linkclipref>msub200012-3011-k2d3-005 36</linkclipref>
								<mediatype>video</mediatype>
								<trackindex>1</trackindex>
								<clipindex>1</clipindex>
							</link>
							<link>
								<linkclipref>msub200012-3011-k2d3-005 37</linkclipref>
								<mediatype>audio</mediatype>
								<trackindex>1</trackindex>
								<clipindex>1</clipindex>
							</link>
							<link>
								<linkclipref>msub200012-3011-k2d3-005 38</linkclipref>
								<mediatype>audio</mediatype>
								<trackindex>2</trackindex>
								<clipindex>1</clipindex>
							</link>
							<link>
								<linkclipref>msub200012-3011-k2d3-005 39</linkclipref>
								<mediatype>audio</mediatype>
								<trackindex>3</trackindex>
								<clipindex>1</clipindex>
							</link>
							<link>
								<linkclipref>msub200012-3011-k2d3-005 40</linkclipref>
								<mediatype>audio</mediatype>
								<trackindex>4</trackindex>
								<clipindex>1</clipindex>
							</link>
							<link>
								<linkclipref>msub200012-3011-k2d3-005 41</linkclipref>
								<mediatype>audio</mediatype>
								<trackindex>5</trackindex>
								<clipindex>1</clipindex>
							</link>
							<link>
								<linkclipref>msub200012-3011-k2d3-005 42</linkclipref>
								<mediatype>audio</mediatype>
								<trackindex>6</trackindex>
								<clipindex>1</clipindex>
							</link>
							<link>
								<linkclipref>msub200012-3011-k2d3-005 43</linkclipref>
								<mediatype>audio</mediatype>
								<trackindex>7</trackindex>
								<clipindex>1</clipindex>
							</link>
							<link>
								<linkclipref>msub200012-3011-k2d3-005 44</linkclipref>
								<mediatype>audio</mediatype>
								<trackindex>8</trackindex>
								<clipindex>1</clipindex>
							</link>
						</clipitem>
						<enabled>TRUE</enabled>
						<locked>FALSE</locked>
					</track>
					<track>
						<clipitem id="msub200012-3011-k2d3-005 42">
							<name>msub200012-3011-k2d3-005</name>
							<duration>8740</duration>
							<rate>
								<ntsc>FALSE</ntsc>
								<timebase>25</timebase>
							</rate>
							<in>0</in>
							<out>8740</out>
							<start>0</start>
							<end>8740</end>
							<subframeoffset>0</subframeoffset>
							<masterclipid>msub200012-3011-k2d3-005 1</masterclipid>
							<syncoffset>0</syncoffset>
							<logginginfo>
								<scene/>
								<shottake/>
								<lognote/>
								<good>FALSE</good>
							</logginginfo>
							<labels>
								<label>Good Take</label>
								<label2/>
							</labels>
							<comments>
								<mastercomment1>RÃ…STOFF. BR_FINFREDAG_MSUA_OPRO</mastercomment1>
								<mastercomment2/>
								<mastercomment3/>
								<mastercomment4/>
							</comments>
							<file id="msub200012-3011-k2d3-005 2"/>
							<filter>
								<effect>
									<name>Audio Levels</name>
									<effectid>audiolevels</effectid>
									<effectcategory>audiolevels</effectcategory>
									<effecttype>audiolevels</effecttype>
									<mediatype>audio</mediatype>
									<parameter>
										<name>Level</name>
										<parameterid>level</parameterid>
										<valuemin>0</valuemin>
										<valuemax>3.98109</valuemax>
										<value>1</value>
									</parameter>
								</effect>
							</filter>
							<filter>
								<effect>
									<name>Audio Pan</name>
									<effectid>audiopan</effectid>
									<effectcategory>audiopan</effectcategory>
									<effecttype>audiopan</effecttype>
									<mediatype>audio</mediatype>
									<parameter>
										<name>Pan</name>
										<parameterid>pan</parameterid>
										<valuemin>-1</valuemin>
										<valuemax>1</valuemax>
										<value>0</value>
									</parameter>
								</effect>
							</filter>
							<sourcetrack>
								<mediatype>audio</mediatype>
								<trackindex>6</trackindex>
							</sourcetrack>
							<link>
								<linkclipref>msub200012-3011-k2d3-005 36</linkclipref>
								<mediatype>video</mediatype>
								<trackindex>1</trackindex>
								<clipindex>1</clipindex>
							</link>
							<link>
								<linkclipref>msub200012-3011-k2d3-005 37</linkclipref>
								<mediatype>audio</mediatype>
								<trackindex>1</trackindex>
								<clipindex>1</clipindex>
							</link>
							<link>
								<linkclipref>msub200012-3011-k2d3-005 38</linkclipref>
								<mediatype>audio</mediatype>
								<trackindex>2</trackindex>
								<clipindex>1</clipindex>
							</link>
							<link>
								<linkclipref>msub200012-3011-k2d3-005 39</linkclipref>
								<mediatype>audio</mediatype>
								<trackindex>3</trackindex>
								<clipindex>1</clipindex>
							</link>
							<link>
								<linkclipref>msub200012-3011-k2d3-005 40</linkclipref>
								<mediatype>audio</mediatype>
								<trackindex>4</trackindex>
								<clipindex>1</clipindex>
							</link>
							<link>
								<linkclipref>msub200012-3011-k2d3-005 41</linkclipref>
								<mediatype>audio</mediatype>
								<trackindex>5</trackindex>
								<clipindex>1</clipindex>
							</link>
							<link>
								<linkclipref>msub200012-3011-k2d3-005 42</linkclipref>
								<mediatype>audio</mediatype>
								<trackindex>6</trackindex>
								<clipindex>1</clipindex>
							</link>
							<link>
								<linkclipref>msub200012-3011-k2d3-005 43</linkclipref>
								<mediatype>audio</mediatype>
								<trackindex>7</trackindex>
								<clipindex>1</clipindex>
							</link>
							<link>
								<linkclipref>msub200012-3011-k2d3-005 44</linkclipref>
								<mediatype>audio</mediatype>
								<trackindex>8</trackindex>
								<clipindex>1</clipindex>
							</link>
						</clipitem>
						<enabled>TRUE</enabled>
						<locked>FALSE</locked>
					</track>
					<track>
						<clipitem id="msub200012-3011-k2d3-005 43">
							<name>msub200012-3011-k2d3-005</name>
							<duration>8740</duration>
							<rate>
								<ntsc>FALSE</ntsc>
								<timebase>25</timebase>
							</rate>
							<in>0</in>
							<out>8740</out>
							<start>0</start>
							<end>8740</end>
							<subframeoffset>0</subframeoffset>
							<masterclipid>msub200012-3011-k2d3-005 1</masterclipid>
							<syncoffset>0</syncoffset>
							<logginginfo>
								<scene/>
								<shottake/>
								<lognote/>
								<good>FALSE</good>
							</logginginfo>
							<labels>
								<label>Good Take</label>
								<label2/>
							</labels>
							<comments>
								<mastercomment1>RÃ…STOFF. BR_FINFREDAG_MSUA_OPRO</mastercomment1>
								<mastercomment2/>
								<mastercomment3/>
								<mastercomment4/>
							</comments>
							<file id="msub200012-3011-k2d3-005 2"/>
							<filter>
								<effect>
									<name>Audio Levels</name>
									<effectid>audiolevels</effectid>
									<effectcategory>audiolevels</effectcategory>
									<effecttype>audiolevels</effecttype>
									<mediatype>audio</mediatype>
									<parameter>
										<name>Level</name>
										<parameterid>level</parameterid>
										<valuemin>0</valuemin>
										<valuemax>3.98109</valuemax>
										<value>1</value>
									</parameter>
								</effect>
							</filter>
							<filter>
								<effect>
									<name>Audio Pan</name>
									<effectid>audiopan</effectid>
									<effectcategory>audiopan</effectcategory>
									<effecttype>audiopan</effecttype>
									<mediatype>audio</mediatype>
									<parameter>
										<name>Pan</name>
										<parameterid>pan</parameterid>
										<valuemin>-1</valuemin>
										<valuemax>1</valuemax>
										<value>0</value>
									</parameter>
								</effect>
							</filter>
							<sourcetrack>
								<mediatype>audio</mediatype>
								<trackindex>7</trackindex>
							</sourcetrack>
							<link>
								<linkclipref>msub200012-3011-k2d3-005 36</linkclipref>
								<mediatype>video</mediatype>
								<trackindex>1</trackindex>
								<clipindex>1</clipindex>
							</link>
							<link>
								<linkclipref>msub200012-3011-k2d3-005 37</linkclipref>
								<mediatype>audio</mediatype>
								<trackindex>1</trackindex>
								<clipindex>1</clipindex>
							</link>
							<link>
								<linkclipref>msub200012-3011-k2d3-005 38</linkclipref>
								<mediatype>audio</mediatype>
								<trackindex>2</trackindex>
								<clipindex>1</clipindex>
							</link>
							<link>
								<linkclipref>msub200012-3011-k2d3-005 39</linkclipref>
								<mediatype>audio</mediatype>
								<trackindex>3</trackindex>
								<clipindex>1</clipindex>
							</link>
							<link>
								<linkclipref>msub200012-3011-k2d3-005 40</linkclipref>
								<mediatype>audio</mediatype>
								<trackindex>4</trackindex>
								<clipindex>1</clipindex>
							</link>
							<link>
								<linkclipref>msub200012-3011-k2d3-005 41</linkclipref>
								<mediatype>audio</mediatype>
								<trackindex>5</trackindex>
								<clipindex>1</clipindex>
							</link>
							<link>
								<linkclipref>msub200012-3011-k2d3-005 42</linkclipref>
								<mediatype>audio</mediatype>
								<trackindex>6</trackindex>
								<clipindex>1</clipindex>
							</link>
							<link>
								<linkclipref>msub200012-3011-k2d3-005 43</linkclipref>
								<mediatype>audio</mediatype>
								<trackindex>7</trackindex>
								<clipindex>1</clipindex>
							</link>
							<link>
								<linkclipref>msub200012-3011-k2d3-005 44</linkclipref>
								<mediatype>audio</mediatype>
								<trackindex>8</trackindex>
								<clipindex>1</clipindex>
							</link>
						</clipitem>
						<enabled>TRUE</enabled>
						<locked>FALSE</locked>
					</track>
					<track>
						<clipitem id="msub200012-3011-k2d3-005 44">
							<name>msub200012-3011-k2d3-005</name>
							<duration>8740</duration>
							<rate>
								<ntsc>FALSE</ntsc>
								<timebase>25</timebase>
							</rate>
							<in>0</in>
							<out>8740</out>
							<start>0</start>
							<end>8740</end>
							<subframeoffset>0</subframeoffset>
							<masterclipid>msub200012-3011-k2d3-005 1</masterclipid>
							<syncoffset>0</syncoffset>
							<logginginfo>
								<scene/>
								<shottake/>
								<lognote/>
								<good>FALSE</good>
							</logginginfo>
							<labels>
								<label>Good Take</label>
								<label2/>
							</labels>
							<comments>
								<mastercomment1>RÃ…STOFF. BR_FINFREDAG_MSUA_OPRO</mastercomment1>
								<mastercomment2/>
								<mastercomment3/>
								<mastercomment4/>
							</comments>
							<file id="msub200012-3011-k2d3-005 2"/>
							<filter>
								<effect>
									<name>Audio Levels</name>
									<effectid>audiolevels</effectid>
									<effectcategory>audiolevels</effectcategory>
									<effecttype>audiolevels</effecttype>
									<mediatype>audio</mediatype>
									<parameter>
										<name>Level</name>
										<parameterid>level</parameterid>
										<valuemin>0</valuemin>
										<valuemax>3.98109</valuemax>
										<value>1</value>
									</parameter>
								</effect>
							</filter>
							<filter>
								<effect>
									<name>Audio Pan</name>
									<effectid>audiopan</effectid>
									<effectcategory>audiopan</effectcategory>
									<effecttype>audiopan</effecttype>
									<mediatype>audio</mediatype>
									<parameter>
										<name>Pan</name>
										<parameterid>pan</parameterid>
										<valuemin>-1</valuemin>
										<valuemax>1</valuemax>
										<value>0</value>
									</parameter>
								</effect>
							</filter>
							<sourcetrack>
								<mediatype>audio</mediatype>
								<trackindex>8</trackindex>
							</sourcetrack>
							<link>
								<linkclipref>msub200012-3011-k2d3-005 36</linkclipref>
								<mediatype>video</mediatype>
								<trackindex>1</trackindex>
								<clipindex>1</clipindex>
							</link>
							<link>
								<linkclipref>msub200012-3011-k2d3-005 37</linkclipref>
								<mediatype>audio</mediatype>
								<trackindex>1</trackindex>
								<clipindex>1</clipindex>
							</link>
							<link>
								<linkclipref>msub200012-3011-k2d3-005 38</linkclipref>
								<mediatype>audio</mediatype>
								<trackindex>2</trackindex>
								<clipindex>1</clipindex>
							</link>
							<link>
								<linkclipref>msub200012-3011-k2d3-005 39</linkclipref>
								<mediatype>audio</mediatype>
								<trackindex>3</trackindex>
								<clipindex>1</clipindex>
							</link>
							<link>
								<linkclipref>msub200012-3011-k2d3-005 40</linkclipref>
								<mediatype>audio</mediatype>
								<trackindex>4</trackindex>
								<clipindex>1</clipindex>
							</link>
							<link>
								<linkclipref>msub200012-3011-k2d3-005 41</linkclipref>
								<mediatype>audio</mediatype>
								<trackindex>5</trackindex>
								<clipindex>1</clipindex>
							</link>
							<link>
								<linkclipref>msub200012-3011-k2d3-005 42</linkclipref>
								<mediatype>audio</mediatype>
								<trackindex>6</trackindex>
								<clipindex>1</clipindex>
							</link>
							<link>
								<linkclipref>msub200012-3011-k2d3-005 43</linkclipref>
								<mediatype>audio</mediatype>
								<trackindex>7</trackindex>
								<clipindex>1</clipindex>
							</link>
							<link>
								<linkclipref>msub200012-3011-k2d3-005 44</linkclipref>
								<mediatype>audio</mediatype>
								<trackindex>8</trackindex>
								<clipindex>1</clipindex>
							</link>
						</clipitem>
						<enabled>TRUE</enabled>
						<locked>FALSE</locked>
					</track>
				</audio>
			</media>
		</clip>
	</children>
</bin>
</xmeml>


