<?xml version="1.0" encoding="UTF-8"?>
<!DOCTYPE xmeml>
<xmeml version="4">
	<sequence id="sequence-11" TL.SQAudioVisibleBase="0" TL.SQVideoVisibleBase="0" TL.SQVisibleBaseTime="0" TL.SQAVDividerPosition="0.266846358776092529296875" TL.SQHideShyTracks="0" TL.SQHeaderWidth="188" Monitor.ProgramZoomOut="47612759040000" Monitor.ProgramZoomIn="0" TL.SQTimePerPixel="0.34719721237651618439556955309" AM.TrackVScrollPosition="0" AM.TrackScrollPosition="0" MZ.EditLine="0" MZ.Sequence.PreviewFrameSizeHeight="1080" MZ.Sequence.PreviewFrameSizeWidth="1920" MZ.Sequence.AudioTimeDisplayFormat="200" MZ.Sequence.PreviewRenderingClassID="1297106761" MZ.Sequence.PreviewRenderingPresetCodec="1297107278" MZ.Sequence.PreviewRenderingPresetPath="EncoderPresets/SequencePreview/bcb27263-0b7a-406f-bda9-3d3796f18c3a/I-Frame Only MPEG.epr" MZ.Sequence.PreviewUseMaxRenderQuality="false" MZ.Sequence.PreviewUseMaxBitDepth="false" MZ.Sequence.EditingModeGUID="bcb27263-0b7a-406f-bda9-3d3796f18c3a" MZ.Sequence.VideoTimeDisplayFormat="101" MZ.WorkOutPoint="47612759040000" MZ.WorkInPoint="0" explodedTracks="true">
		<uuid>65ec6bb5-1f2e-4d3c-a42a-99ceebe773ba</uuid>
		<duration>4686</duration>
		<rate>
			<timebase>25</timebase>
			<ntsc>FALSE</ntsc>
		</rate>
		<name>Multicam Moser til per olav TIL SLUTTREDIGERING</name>
		<media>
			<video>
				<format>
					<samplecharacteristics>
						<rate>
							<timebase>25</timebase>
							<ntsc>FALSE</ntsc>
						</rate>
						<codec>
							<name>Apple ProRes 422</name>
							<appspecificdata>
								<appname>Final Cut Pro</appname>
								<appmanufacturer>Apple Inc.</appmanufacturer>
								<appversion>7.0</appversion>
								<data>
									<qtcodec>
										<codecname>Apple ProRes 422</codecname>
										<codectypename>Apple ProRes 422</codectypename>
										<codectypecode>apcn</codectypecode>
										<codecvendorcode>appl</codecvendorcode>
										<spatialquality>1024</spatialquality>
										<temporalquality>0</temporalquality>
										<keyframerate>0</keyframerate>
										<datarate>0</datarate>
									</qtcodec>
								</data>
							</appspecificdata>
						</codec>
						<width>1920</width>
						<height>1080</height>
						<anamorphic>FALSE</anamorphic>
						<pixelaspectratio>square</pixelaspectratio>
						<fielddominance>upper</fielddominance>
						<colordepth>24</colordepth>
					</samplecharacteristics>
				</format>
				<track TL.SQTrackShy="0" TL.SQTrackExpandedHeight="65" TL.SQTrackExpanded="0" MZ.TrackTargeted="1">
					<clipitem id="clipitem-282" frameBlend="FALSE">
						<masterclipid>masterclip-65</masterclipid>
						<name>Koerber-Preis_2014_EPK_1080p_rgb.mov</name>
						<enabled>TRUE</enabled>
						<duration>29855</duration>
						<rate>
							<timebase>25</timebase>
							<ntsc>FALSE</ntsc>
						</rate>
						<start>0</start>
						<end>116</end>
						<in>3739</in>
						<out>3855</out>
						<alphatype>black</alphatype>
						<pixelaspectratio>square</pixelaspectratio>
						<anamorphic>FALSE</anamorphic>
						<file id="file-61">
							<name>Koerber-Preis_2014_EPK_1080p_rgb.mov</name>
							<pathurl>file://localhost/Volumes/Brakka/AdobeLager/Katta/Katta-141009-Moser-WIK/02-Video/youtube%20nedlastning/Koerber-Preis_2014_EPK_1080p_rgb.mov</pathurl>
							<rate>
								<timebase>25</timebase>
								<ntsc>FALSE</ntsc>
							</rate>
							<duration>29855</duration>
							<timecode>
								<rate>
									<timebase>25</timebase>
									<ntsc>FALSE</ntsc>
								</rate>
								<string>10:00:00:00</string>
								<frame>900000</frame>
								<displayformat>NDF</displayformat>
								<reel>
									<name></name>
								</reel>
							</timecode>
							<media>
								<video>
									<duration>18000</duration>
									<samplecharacteristics>
										<rate>
											<timebase>25</timebase>
											<ntsc>FALSE</ntsc>
										</rate>
										<width>1920</width>
										<height>1080</height>
										<anamorphic>FALSE</anamorphic>
										<pixelaspectratio>square</pixelaspectratio>
										<fielddominance>none</fielddominance>
									</samplecharacteristics>
								</video>
								<audio>
									<samplecharacteristics>
										<depth>16</depth>
										<samplerate>48000</samplerate>
									</samplecharacteristics>
									<channelcount>2</channelcount>
								</audio>
							</media>
						</file>
						<link>
							<linkclipref>clipitem-282</linkclipref>
							<mediatype>video</mediatype>
							<trackindex>1</trackindex>
							<clipindex>1</clipindex>
						</link>
						<link>
							<linkclipref>clipitem-350</linkclipref>
							<mediatype>audio</mediatype>
							<trackindex>1</trackindex>
							<clipindex>1</clipindex>
						</link>
						<link>
							<linkclipref>clipitem-368</linkclipref>
							<mediatype>audio</mediatype>
							<trackindex>2</trackindex>
							<clipindex>1</clipindex>
						</link>
						<logginginfo>
							<description></description>
							<scene></scene>
							<shottake></shottake>
							<lognote></lognote>
						</logginginfo>
						<labels>
							<label2>Iris</label2>
						</labels>
					</clipitem>
					<clipitem id="clipitem-283" frameBlend="FALSE">
						<masterclipid>masterclip-65</masterclipid>
						<name>Koerber-Preis_2014_EPK_1080p_rgb.mov</name>
						<enabled>TRUE</enabled>
						<duration>29855</duration>
						<rate>
							<timebase>25</timebase>
							<ntsc>FALSE</ntsc>
						</rate>
						<start>116</start>
						<end>298</end>
						<in>4021</in>
						<out>4203</out>
						<alphatype>black</alphatype>
						<file id="file-61"/>
						<link>
							<linkclipref>clipitem-283</linkclipref>
							<mediatype>video</mediatype>
							<trackindex>1</trackindex>
							<clipindex>2</clipindex>
						</link>
						<link>
							<linkclipref>clipitem-351</linkclipref>
							<mediatype>audio</mediatype>
							<trackindex>1</trackindex>
							<clipindex>2</clipindex>
						</link>
						<link>
							<linkclipref>clipitem-369</linkclipref>
							<mediatype>audio</mediatype>
							<trackindex>2</trackindex>
							<clipindex>2</clipindex>
						</link>
						<logginginfo>
							<description></description>
							<scene></scene>
							<shottake></shottake>
							<lognote></lognote>
						</logginginfo>
						<labels>
							<label2>Iris</label2>
						</labels>
					</clipitem>
					<clipitem id="clipitem-284" frameBlend="FALSE">
						<masterclipid>masterclip-66</masterclipid>
						<name>Teleportering-071014-f_p0.mxf</name>
						<enabled>TRUE</enabled>
						<duration>11228</duration>
						<rate>
							<timebase>25</timebase>
							<ntsc>FALSE</ntsc>
						</rate>
						<start>298</start>
						<end>444</end>
						<in>577</in>
						<out>723</out>
						<alphatype>none</alphatype>
						<pixelaspectratio>square</pixelaspectratio>
						<anamorphic>FALSE</anamorphic>
						<file id="file-62">
							<name>Teleportering-071014-f_p0.mxf</name>
							<pathurl>file://localhost/Volumes/Brakka/AdobeLager/Katta/Katta-141009-Moser-WIK/02-Video/Teleportering-071014-f_p0.mxf</pathurl>
							<rate>
								<timebase>25</timebase>
								<ntsc>FALSE</ntsc>
							</rate>
							<duration>11228</duration>
							<timecode>
								<rate>
									<timebase>25</timebase>
									<ntsc>FALSE</ntsc>
								</rate>
								<string>00:13:20:21</string>
								<frame>20021</frame>
								<displayformat>NDF</displayformat>
								<reel>
									<name></name>
								</reel>
							</timecode>
							<media>
								<video>
									<duration>18000</duration>
									<samplecharacteristics>
										<rate>
											<timebase>25</timebase>
											<ntsc>FALSE</ntsc>
										</rate>
										<width>1920</width>
										<height>1080</height>
										<anamorphic>FALSE</anamorphic>
										<pixelaspectratio>square</pixelaspectratio>
										<fielddominance>upper</fielddominance>
									</samplecharacteristics>
								</video>
								<audio>
									<samplecharacteristics>
										<depth>16</depth>
										<samplerate>48000</samplerate>
									</samplecharacteristics>
									<channelcount>8</channelcount>
								</audio>
							</media>
						</file>
						<logginginfo>
							<description></description>
							<scene></scene>
							<shottake></shottake>
							<lognote></lognote>
						</logginginfo>
						<labels>
							<label2>Iris</label2>
						</labels>
					</clipitem>
					<clipitem id="clipitem-285" frameBlend="FALSE">
						<masterclipid>masterclip-66</masterclipid>
						<name>Teleportering-071014-f_p0.mxf</name>
						<enabled>TRUE</enabled>
						<duration>11228</duration>
						<rate>
							<timebase>25</timebase>
							<ntsc>FALSE</ntsc>
						</rate>
						<start>444</start>
						<end>505</end>
						<in>2793</in>
						<out>2854</out>
						<alphatype>none</alphatype>
						<file id="file-62"/>
						<link>
							<linkclipref>clipitem-285</linkclipref>
							<mediatype>video</mediatype>
							<trackindex>1</trackindex>
							<clipindex>4</clipindex>
						</link>
						<link>
							<linkclipref>clipitem-352</linkclipref>
							<mediatype>audio</mediatype>
							<trackindex>1</trackindex>
							<clipindex>3</clipindex>
						</link>
						<link>
							<linkclipref>clipitem-370</linkclipref>
							<mediatype>audio</mediatype>
							<trackindex>2</trackindex>
							<clipindex>3</clipindex>
						</link>
						<logginginfo>
							<description></description>
							<scene></scene>
							<shottake></shottake>
							<lognote></lognote>
						</logginginfo>
						<labels>
							<label2>Iris</label2>
						</labels>
					</clipitem>
					<clipitem id="clipitem-286" frameBlend="FALSE">
						<masterclipid>masterclip-66</masterclipid>
						<name>Teleportering-071014-f_p0.mxf</name>
						<enabled>TRUE</enabled>
						<duration>11228</duration>
						<rate>
							<timebase>25</timebase>
							<ntsc>FALSE</ntsc>
						</rate>
						<start>505</start>
						<end>573</end>
						<in>2702</in>
						<out>2770</out>
						<alphatype>none</alphatype>
						<file id="file-62"/>
						<link>
							<linkclipref>clipitem-286</linkclipref>
							<mediatype>video</mediatype>
							<trackindex>1</trackindex>
							<clipindex>5</clipindex>
						</link>
						<link>
							<linkclipref>clipitem-353</linkclipref>
							<mediatype>audio</mediatype>
							<trackindex>1</trackindex>
							<clipindex>4</clipindex>
						</link>
						<link>
							<linkclipref>clipitem-371</linkclipref>
							<mediatype>audio</mediatype>
							<trackindex>2</trackindex>
							<clipindex>4</clipindex>
						</link>
						<logginginfo>
							<description></description>
							<scene></scene>
							<shottake></shottake>
							<lognote></lognote>
						</logginginfo>
						<labels>
							<label2>Iris</label2>
						</labels>
					</clipitem>
					<clipitem id="clipitem-287" frameBlend="FALSE">
						<masterclipid>masterclip-65</masterclipid>
						<name>Koerber-Preis_2014_EPK_1080p_rgb.mov</name>
						<enabled>TRUE</enabled>
						<duration>29855</duration>
						<rate>
							<timebase>25</timebase>
							<ntsc>FALSE</ntsc>
						</rate>
						<start>573</start>
						<end>625</end>
						<in>12864</in>
						<out>12916</out>
						<alphatype>black</alphatype>
						<file id="file-61"/>
						<link>
							<linkclipref>clipitem-287</linkclipref>
							<mediatype>video</mediatype>
							<trackindex>1</trackindex>
							<clipindex>6</clipindex>
						</link>
						<link>
							<linkclipref>clipitem-354</linkclipref>
							<mediatype>audio</mediatype>
							<trackindex>1</trackindex>
							<clipindex>5</clipindex>
						</link>
						<link>
							<linkclipref>clipitem-372</linkclipref>
							<mediatype>audio</mediatype>
							<trackindex>2</trackindex>
							<clipindex>5</clipindex>
						</link>
						<logginginfo>
							<description></description>
							<scene></scene>
							<shottake></shottake>
							<lognote></lognote>
						</logginginfo>
						<labels>
							<label2>Iris</label2>
						</labels>
					</clipitem>
					<clipitem id="clipitem-288" frameBlend="FALSE">
						<masterclipid>masterclip-65</masterclipid>
						<name>Koerber-Preis_2014_EPK_1080p_rgb.mov</name>
						<enabled>TRUE</enabled>
						<duration>29855</duration>
						<rate>
							<timebase>25</timebase>
							<ntsc>FALSE</ntsc>
						</rate>
						<start>625</start>
						<end>676</end>
						<in>13277</in>
						<out>13328</out>
						<alphatype>black</alphatype>
						<file id="file-61"/>
						<link>
							<linkclipref>clipitem-288</linkclipref>
							<mediatype>video</mediatype>
							<trackindex>1</trackindex>
							<clipindex>7</clipindex>
						</link>
						<link>
							<linkclipref>clipitem-355</linkclipref>
							<mediatype>audio</mediatype>
							<trackindex>1</trackindex>
							<clipindex>6</clipindex>
						</link>
						<link>
							<linkclipref>clipitem-373</linkclipref>
							<mediatype>audio</mediatype>
							<trackindex>2</trackindex>
							<clipindex>6</clipindex>
						</link>
						<logginginfo>
							<description></description>
							<scene></scene>
							<shottake></shottake>
							<lognote></lognote>
						</logginginfo>
						<labels>
							<label2>Iris</label2>
						</labels>
					</clipitem>
					<clipitem id="clipitem-289" frameBlend="FALSE">
						<masterclipid>masterclip-67</masterclipid>
						<name>AA297201.MXFKam AMoser Multi</name>
						<enabled>TRUE</enabled>
						<duration>201355</duration>
						<rate>
							<timebase>25</timebase>
							<ntsc>FALSE</ntsc>
						</rate>
						<start>676</start>
						<end>776</end>
						<in>64615</in>
						<out>64715</out>
						<sequence id="sequence-16">
							<duration>150</duration>
							<rate>
								<timebase>25</timebase>
								<ntsc>FALSE</ntsc>
							</rate>
							<name>AA297201.MXFKam AMoser Multi-3</name>
							<media>
								<video>
									<format>
										<samplecharacteristics>
											<rate>
												<timebase>25</timebase>
												<ntsc>FALSE</ntsc>
											</rate>
											<codec>
												<name>Apple ProRes 422</name>
												<appspecificdata>
													<appname>Final Cut Pro</appname>
													<appmanufacturer>Apple Inc.</appmanufacturer>
													<appversion>7.0</appversion>
													<data>
														<qtcodec>
															<codecname>Apple ProRes 422</codecname>
															<codectypename>Apple ProRes 422</codectypename>
															<codectypecode>apcn</codectypecode>
															<codecvendorcode>appl</codecvendorcode>
															<spatialquality>1024</spatialquality>
															<temporalquality>0</temporalquality>
															<keyframerate>0</keyframerate>
															<datarate>0</datarate>
														</qtcodec>
													</data>
												</appspecificdata>
											</codec>
											<width>1920</width>
											<height>1080</height>
											<anamorphic>FALSE</anamorphic>
											<pixelaspectratio>square</pixelaspectratio>
											<fielddominance>upper</fielddominance>
											<colordepth>24</colordepth>
										</samplecharacteristics>
									</format>
									<track TL.SQTrackShy="0" TL.SQTrackExpandedHeight="25" TL.SQTrackExpanded="0" MZ.TrackTargeted="0">
										<clipitem id="clipitem-313" frameBlend="FALSE">
											<masterclipid>masterclip-76</masterclipid>
											<name>AA297201.MXFKam C</name>
											<enabled>TRUE</enabled>
											<duration>172586</duration>
											<rate>
												<timebase>25</timebase>
												<ntsc>FALSE</ntsc>
											</rate>
											<start>20152</start>
											<end>192738</end>
											<in>0</in>
											<out>172586</out>
											<sequence id="sequence-17" MZ.Sequence.PreviewFrameSizeHeight="1080" MZ.Sequence.PreviewFrameSizeWidth="1920" MZ.Sequence.AudioTimeDisplayFormat="200" MZ.Sequence.PreviewRenderingClassID="1297106761" MZ.Sequence.PreviewRenderingPresetCodec="1297107278" MZ.Sequence.PreviewRenderingPresetPath="EncoderPresets/SequencePreview/795454d9-d3c2-429d-9474-923ab13b7018/I-Frame Only MPEG.epr" MZ.Sequence.PreviewUseMaxRenderQuality="false" MZ.Sequence.PreviewUseMaxBitDepth="false" MZ.Sequence.EditingModeGUID="795454d9-d3c2-429d-9474-923ab13b7018" MZ.Sequence.VideoTimeDisplayFormat="101" MZ.WorkOutPoint="15240960000000" MZ.WorkInPoint="0" MZ.ZeroPoint="9311576279040000">
												<duration>86460</duration>
												<rate>
													<timebase>25</timebase>
													<ntsc>FALSE</ntsc>
												</rate>
												<name>AA297201.MXFKam C</name>
												<media>
													<video>
														<format>
															<samplecharacteristics>
																<rate>
																	<timebase>25</timebase>
																	<ntsc>FALSE</ntsc>
																</rate>
																<codec>
																	<name>Apple ProRes 422</name>
																	<appspecificdata>
																		<appname>Final Cut Pro</appname>
																		<appmanufacturer>Apple Inc.</appmanufacturer>
																		<appversion>7.0</appversion>
																		<data>
																			<qtcodec>
																				<codecname>Apple ProRes 422</codecname>
																				<codectypename>Apple ProRes 422</codectypename>
																				<codectypecode>apcn</codectypecode>
																				<codecvendorcode>appl</codecvendorcode>
																				<spatialquality>1024</spatialquality>
																				<temporalquality>0</temporalquality>
																				<keyframerate>0</keyframerate>
																				<datarate>0</datarate>
																			</qtcodec>
																		</data>
																	</appspecificdata>
																</codec>
																<width>1920</width>
																<height>1080</height>
																<anamorphic>FALSE</anamorphic>
																<pixelaspectratio>square</pixelaspectratio>
																<fielddominance>upper</fielddominance>
																<colordepth>24</colordepth>
															</samplecharacteristics>
														</format>
														<track>
															<clipitem id="clipitem-314" frameBlend="FALSE">
																<masterclipid>masterclip-77</masterclipid>
																<name>AA297201.MXF</name>
																<enabled>TRUE</enabled>
																<duration>86460</duration>
																<rate>
																	<timebase>25</timebase>
																	<ntsc>FALSE</ntsc>
																</rate>
																<start>0</start>
																<end>86460</end>
																<in>0</in>
																<out>86460</out>
																<alphatype>none</alphatype>
																<pixelaspectratio>square</pixelaspectratio>
																<anamorphic>FALSE</anamorphic>
																<file id="file-69">
																	<name>AA297201.MXF</name>
																	<pathurl>file://localhost/Volumes/Brakka/AdobeLager/Katta/Katta-141009-Moser-WIK/Moser%20Int/Kam%20C/CONTENTS/CLIPS001/AA2972/AA297201.MXF</pathurl>
																	<rate>
																		<timebase>25</timebase>
																		<ntsc>FALSE</ntsc>
																	</rate>
																	<duration>86460</duration>
																	<timecode>
																		<rate>
																			<timebase>25</timebase>
																			<ntsc>FALSE</ntsc>
																		</rate>
																		<string>10:10:57:11</string>
																		<frame>916436</frame>
																		<displayformat>NDF</displayformat>
																		<reel>
																			<name></name>
																		</reel>
																	</timecode>
																	<media>
																		<video>
																			<duration>18000</duration>
																			<samplecharacteristics>
																				<rate>
																					<timebase>25</timebase>
																					<ntsc>FALSE</ntsc>
																				</rate>
																				<width>1920</width>
																				<height>1080</height>
																				<anamorphic>FALSE</anamorphic>
																				<pixelaspectratio>square</pixelaspectratio>
																				<fielddominance>upper</fielddominance>
																			</samplecharacteristics>
																		</video>
																		<audio>
																			<samplecharacteristics>
																				<depth>16</depth>
																				<samplerate>48000</samplerate>
																			</samplecharacteristics>
																			<channelcount>1</channelcount>
																			<layout>mono</layout>
																			<audiochannel>
																				<sourcechannel>1</sourcechannel>
																				<channellabel>discrete</channellabel>
																			</audiochannel>
																		</audio>
																		<audio>
																			<samplecharacteristics>
																				<depth>16</depth>
																				<samplerate>48000</samplerate>
																			</samplecharacteristics>
																			<channelcount>1</channelcount>
																			<layout>mono</layout>
																			<audiochannel>
																				<sourcechannel>2</sourcechannel>
																				<channellabel>discrete</channellabel>
																			</audiochannel>
																		</audio>
																	</media>
																</file>
																<link>
																	<linkclipref>clipitem-314</linkclipref>
																	<mediatype>video</mediatype>
																	<trackindex>1</trackindex>
																	<clipindex>1</clipindex>
																</link>
																<link>
																	<linkclipref>clipitem-317</linkclipref>
																	<mediatype>audio</mediatype>
																	<trackindex>1</trackindex>
																	<clipindex>1</clipindex>
																	<groupindex>1</groupindex>
																</link>
																<link>
																	<linkclipref>clipitem-318</linkclipref>
																	<mediatype>audio</mediatype>
																	<trackindex>2</trackindex>
																	<clipindex>1</clipindex>
																	<groupindex>1</groupindex>
																</link>
																<logginginfo>
																	<description></description>
																	<scene></scene>
																	<shottake>AA2972</shottake>
																	<lognote></lognote>
																</logginginfo>
																<labels>
																	<label2>Iris</label2>
																</labels>
															</clipitem>
															<enabled>TRUE</enabled>
															<locked>FALSE</locked>
														</track>
														<track>
															<clipitem id="clipitem-315" frameBlend="FALSE">
																<masterclipid>masterclip-78</masterclipid>
																<name>AA297301.MXF</name>
																<enabled>TRUE</enabled>
																<duration>34644</duration>
																<rate>
																	<timebase>25</timebase>
																	<ntsc>FALSE</ntsc>
																</rate>
																<start>92232</start>
																<end>126876</end>
																<in>0</in>
																<out>34644</out>
																<alphatype>none</alphatype>
																<pixelaspectratio>square</pixelaspectratio>
																<anamorphic>FALSE</anamorphic>
																<file id="file-70">
																	<name>AA297301.MXF</name>
																	<pathurl>file://localhost/Volumes/Brakka/AdobeLager/Katta/Katta-141009-Moser-WIK/Moser%20Int/Kam%20C/CONTENTS/CLIPS001/AA2973/AA297301.MXF</pathurl>
																	<rate>
																		<timebase>25</timebase>
																		<ntsc>FALSE</ntsc>
																	</rate>
																	<duration>34644</duration>
																	<timecode>
																		<rate>
																			<timebase>25</timebase>
																			<ntsc>FALSE</ntsc>
																		</rate>
																		<string>11:12:26:18</string>
																		<frame>1008668</frame>
																		<displayformat>NDF</displayformat>
																		<reel>
																			<name></name>
																		</reel>
																	</timecode>
																	<media>
																		<video>
																			<duration>18000</duration>
																			<samplecharacteristics>
																				<rate>
																					<timebase>25</timebase>
																					<ntsc>FALSE</ntsc>
																				</rate>
																				<width>1920</width>
																				<height>1080</height>
																				<anamorphic>FALSE</anamorphic>
																				<pixelaspectratio>square</pixelaspectratio>
																				<fielddominance>upper</fielddominance>
																			</samplecharacteristics>
																		</video>
																		<audio>
																			<samplecharacteristics>
																				<depth>16</depth>
																				<samplerate>48000</samplerate>
																			</samplecharacteristics>
																			<channelcount>1</channelcount>
																			<layout>mono</layout>
																			<audiochannel>
																				<sourcechannel>1</sourcechannel>
																				<channellabel>discrete</channellabel>
																			</audiochannel>
																		</audio>
																		<audio>
																			<samplecharacteristics>
																				<depth>16</depth>
																				<samplerate>48000</samplerate>
																			</samplecharacteristics>
																			<channelcount>1</channelcount>
																			<layout>mono</layout>
																			<audiochannel>
																				<sourcechannel>2</sourcechannel>
																				<channellabel>discrete</channellabel>
																			</audiochannel>
																		</audio>
																	</media>
																</file>
																<link>
																	<linkclipref>clipitem-315</linkclipref>
																	<mediatype>video</mediatype>
																	<trackindex>2</trackindex>
																	<clipindex>1</clipindex>
																</link>
																<link>
																	<linkclipref>clipitem-319</linkclipref>
																	<mediatype>audio</mediatype>
																	<trackindex>3</trackindex>
																	<clipindex>1</clipindex>
																	<groupindex>1</groupindex>
																</link>
																<link>
																	<linkclipref>clipitem-320</linkclipref>
																	<mediatype>audio</mediatype>
																	<trackindex>4</trackindex>
																	<clipindex>1</clipindex>
																	<groupindex>1</groupindex>
																</link>
																<logginginfo>
																	<description></description>
																	<scene></scene>
																	<shottake>AA2973</shottake>
																	<lognote></lognote>
																</logginginfo>
																<labels>
																	<label2>Iris</label2>
																</labels>
															</clipitem>
															<enabled>TRUE</enabled>
															<locked>FALSE</locked>
														</track>
														<track>
															<clipitem id="clipitem-316" frameBlend="FALSE">
																<masterclipid>masterclip-79</masterclipid>
																<name>AA297401.MXF</name>
																<enabled>TRUE</enabled>
																<duration>7416</duration>
																<rate>
																	<timebase>25</timebase>
																	<ntsc>FALSE</ntsc>
																</rate>
																<start>165170</start>
																<end>172586</end>
																<in>0</in>
																<out>7416</out>
																<alphatype>none</alphatype>
																<pixelaspectratio>square</pixelaspectratio>
																<anamorphic>FALSE</anamorphic>
																<file id="file-71">
																	<name>AA297401.MXF</name>
																	<pathurl>file://localhost/Volumes/Brakka/AdobeLager/Katta/Katta-141009-Moser-WIK/Moser%20Int/Kam%20C/CONTENTS/CLIPS001/AA2974/AA297401.MXF</pathurl>
																	<rate>
																		<timebase>25</timebase>
																		<ntsc>FALSE</ntsc>
																	</rate>
																	<duration>7416</duration>
																	<timecode>
																		<rate>
																			<timebase>25</timebase>
																			<ntsc>FALSE</ntsc>
																		</rate>
																		<string>12:01:04:06</string>
																		<frame>1081606</frame>
																		<displayformat>NDF</displayformat>
																		<reel>
																			<name></name>
																		</reel>
																	</timecode>
																	<media>
																		<video>
																			<duration>18000</duration>
																			<samplecharacteristics>
																				<rate>
																					<timebase>25</timebase>
																					<ntsc>FALSE</ntsc>
																				</rate>
																				<width>1920</width>
																				<height>1080</height>
																				<anamorphic>FALSE</anamorphic>
																				<pixelaspectratio>square</pixelaspectratio>
																				<fielddominance>upper</fielddominance>
																			</samplecharacteristics>
																		</video>
																		<audio>
																			<samplecharacteristics>
																				<depth>16</depth>
																				<samplerate>48000</samplerate>
																			</samplecharacteristics>
																			<channelcount>1</channelcount>
																			<layout>mono</layout>
																			<audiochannel>
																				<sourcechannel>1</sourcechannel>
																				<channellabel>discrete</channellabel>
																			</audiochannel>
																		</audio>
																		<audio>
																			<samplecharacteristics>
																				<depth>16</depth>
																				<samplerate>48000</samplerate>
																			</samplecharacteristics>
																			<channelcount>1</channelcount>
																			<layout>mono</layout>
																			<audiochannel>
																				<sourcechannel>2</sourcechannel>
																				<channellabel>discrete</channellabel>
																			</audiochannel>
																		</audio>
																	</media>
																</file>
																<link>
																	<linkclipref>clipitem-316</linkclipref>
																	<mediatype>video</mediatype>
																	<trackindex>3</trackindex>
																	<clipindex>1</clipindex>
																</link>
																<link>
																	<linkclipref>clipitem-321</linkclipref>
																	<mediatype>audio</mediatype>
																	<trackindex>5</trackindex>
																	<clipindex>1</clipindex>
																	<groupindex>1</groupindex>
																</link>
																<link>
																	<linkclipref>clipitem-322</linkclipref>
																	<mediatype>audio</mediatype>
																	<trackindex>6</trackindex>
																	<clipindex>1</clipindex>
																	<groupindex>1</groupindex>
																</link>
																<logginginfo>
																	<description></description>
																	<scene></scene>
																	<shottake>AA2974</shottake>
																	<lognote></lognote>
																</logginginfo>
																<labels>
																	<label2>Iris</label2>
																</labels>
															</clipitem>
															<enabled>TRUE</enabled>
															<locked>FALSE</locked>
														</track>
													</video>
													<audio>
														<format>
															<samplecharacteristics>
																<depth>16</depth>
																<samplerate>48000</samplerate>
															</samplecharacteristics>
														</format>
														<outputs>
															<group>
																<index>1</index>
																<numchannels>1</numchannels>
																<downmix>0</downmix>
																<channel>
																	<index>1</index>
																</channel>
															</group>
															<group>
																<index>2</index>
																<numchannels>1</numchannels>
																<downmix>0</downmix>
																<channel>
																	<index>2</index>
																</channel>
															</group>
														</outputs>
														<track TL.SQTrackExpandedHeight="25" TL.SQTrackExpanded="0" MZ.TrackTargeted="1" PannerCurrentValue="0" PannerIsInverted="true" PannerStartKeyframe="-91445760000000000,0.,0,0,0,0,0,0" PannerName="Balance" currentExplodedTrackIndex="0" totalExplodedTrackCount="1" premiereTrackType="Stereo">
															<clipitem id="clipitem-317" frameBlend="FALSE" PannerCurrentValue="0.5" PannerKeyframes="" PannerStartKeyframe="-91445760000000000,0.5,0,0,0,0,0,0" PannerIsInverted="true" PannerName="Pan">
																<masterclipid>masterclip-77</masterclipid>
																<name>AA297201.MXF</name>
																<enabled>TRUE</enabled>
																<duration>86460</duration>
																<rate>
																	<timebase>25</timebase>
																	<ntsc>FALSE</ntsc>
																</rate>
																<start>0</start>
																<end>86460</end>
																<in>0</in>
																<out>86460</out>
																<file id="file-69"/>
																<sourcetrack>
																	<mediatype>audio</mediatype>
																	<trackindex>1</trackindex>
																</sourcetrack>
																	<filter>
																		<effect>
																			<name>Audio Pan</name>
																			<effectid>audiopan</effectid>
																			<effectcategory>audiopan</effectcategory>
																			<effecttype>audiopan</effecttype>
																			<mediatype>audio</mediatype>
																			<parameter authoringApp="PremierePro">
																				<parameterid>pan</parameterid>
																				<name>Pan</name>
																				<valuemin>-1</valuemin>
																				<valuemax>1</valuemax>
																				<value>0</value>
																			</parameter>
																		</effect>
																	</filter>
																<link>
																	<linkclipref>clipitem-314</linkclipref>
																	<mediatype>video</mediatype>
																	<trackindex>1</trackindex>
																	<clipindex>1</clipindex>
																</link>
																<link>
																	<linkclipref>clipitem-317</linkclipref>
																	<mediatype>audio</mediatype>
																	<trackindex>1</trackindex>
																	<clipindex>1</clipindex>
																	<groupindex>1</groupindex>
																</link>
																<link>
																	<linkclipref>clipitem-318</linkclipref>
																	<mediatype>audio</mediatype>
																	<trackindex>2</trackindex>
																	<clipindex>1</clipindex>
																	<groupindex>1</groupindex>
																</link>
																<logginginfo>
																	<description></description>
																	<scene></scene>
																	<shottake>AA2972</shottake>
																	<lognote></lognote>
																</logginginfo>
																<labels>
																	<label2>Iris</label2>
																</labels>
															</clipitem>
															<enabled>TRUE</enabled>
															<locked>FALSE</locked>
															<outputchannelindex>1</outputchannelindex>
														</track>
														<track TL.SQTrackExpandedHeight="25" TL.SQTrackExpanded="0" MZ.TrackTargeted="1" PannerCurrentValue="1." PannerIsInverted="true" PannerStartKeyframe="-91445760000000000,1.,0,0,0,0,0,0" PannerName="Balance" currentExplodedTrackIndex="0" totalExplodedTrackCount="1" premiereTrackType="Stereo">
															<clipitem id="clipitem-318" frameBlend="FALSE" PannerCurrentValue="0.5" PannerKeyframes="" PannerStartKeyframe="-91445760000000000,0.5,0,0,0,0,0,0" PannerIsInverted="true" PannerName="Pan">
																<masterclipid>masterclip-77</masterclipid>
																<name>AA297201.MXF</name>
																<enabled>TRUE</enabled>
																<duration>86460</duration>
																<rate>
																	<timebase>25</timebase>
																	<ntsc>FALSE</ntsc>
																</rate>
																<start>0</start>
																<end>86460</end>
																<in>0</in>
																<out>86460</out>
																<file id="file-69"/>
																<sourcetrack>
																	<mediatype>audio</mediatype>
																	<trackindex>2</trackindex>
																</sourcetrack>
																	<filter>
																		<effect>
																			<name>Audio Pan</name>
																			<effectid>audiopan</effectid>
																			<effectcategory>audiopan</effectcategory>
																			<effecttype>audiopan</effecttype>
																			<mediatype>audio</mediatype>
																			<parameter authoringApp="PremierePro">
																				<parameterid>pan</parameterid>
																				<name>Pan</name>
																				<valuemin>-1</valuemin>
																				<valuemax>1</valuemax>
																				<value>0</value>
																			</parameter>
																		</effect>
																	</filter>
																<link>
																	<linkclipref>clipitem-314</linkclipref>
																	<mediatype>video</mediatype>
																	<trackindex>1</trackindex>
																	<clipindex>1</clipindex>
																</link>
																<link>
																	<linkclipref>clipitem-317</linkclipref>
																	<mediatype>audio</mediatype>
																	<trackindex>1</trackindex>
																	<clipindex>1</clipindex>
																	<groupindex>1</groupindex>
																</link>
																<link>
																	<linkclipref>clipitem-318</linkclipref>
																	<mediatype>audio</mediatype>
																	<trackindex>2</trackindex>
																	<clipindex>1</clipindex>
																	<groupindex>1</groupindex>
																</link>
																<logginginfo>
																	<description></description>
																	<scene></scene>
																	<shottake>AA2972</shottake>
																	<lognote></lognote>
																</logginginfo>
																<labels>
																	<label2>Iris</label2>
																</labels>
															</clipitem>
															<enabled>TRUE</enabled>
															<locked>FALSE</locked>
															<outputchannelindex>2</outputchannelindex>
														</track>
														<track TL.SQTrackExpandedHeight="25" TL.SQTrackExpanded="0" MZ.TrackTargeted="1" PannerCurrentValue="0.5" PannerIsInverted="true" PannerStartKeyframe="-91445760000000000,0.5,0,0,0,0,0,0" PannerName="Balance" currentExplodedTrackIndex="0" totalExplodedTrackCount="1" premiereTrackType="Stereo">
															<clipitem id="clipitem-319" frameBlend="FALSE" PannerCurrentValue="0.5" PannerKeyframes="" PannerStartKeyframe="-91445760000000000,0.5,0,0,0,0,0,0" PannerIsInverted="true" PannerName="Pan">
																<masterclipid>masterclip-78</masterclipid>
																<name>AA297301.MXF</name>
																<enabled>TRUE</enabled>
																<duration>34644</duration>
																<rate>
																	<timebase>25</timebase>
																	<ntsc>FALSE</ntsc>
																</rate>
																<start>92232</start>
																<end>126876</end>
																<in>0</in>
																<out>34644</out>
																<file id="file-70"/>
																<sourcetrack>
																	<mediatype>audio</mediatype>
																	<trackindex>1</trackindex>
																</sourcetrack>
																	<filter>
																		<effect>
																			<name>Audio Pan</name>
																			<effectid>audiopan</effectid>
																			<effectcategory>audiopan</effectcategory>
																			<effecttype>audiopan</effecttype>
																			<mediatype>audio</mediatype>
																			<parameter authoringApp="PremierePro">
																				<parameterid>pan</parameterid>
																				<name>Pan</name>
																				<valuemin>-1</valuemin>
																				<valuemax>1</valuemax>
																				<value>0</value>
																			</parameter>
																		</effect>
																	</filter>
																<link>
																	<linkclipref>clipitem-315</linkclipref>
																	<mediatype>video</mediatype>
																	<trackindex>2</trackindex>
																	<clipindex>1</clipindex>
																</link>
																<link>
																	<linkclipref>clipitem-319</linkclipref>
																	<mediatype>audio</mediatype>
																	<trackindex>3</trackindex>
																	<clipindex>1</clipindex>
																	<groupindex>1</groupindex>
																</link>
																<link>
																	<linkclipref>clipitem-320</linkclipref>
																	<mediatype>audio</mediatype>
																	<trackindex>4</trackindex>
																	<clipindex>1</clipindex>
																	<groupindex>1</groupindex>
																</link>
																<logginginfo>
																	<description></description>
																	<scene></scene>
																	<shottake>AA2973</shottake>
																	<lognote></lognote>
																</logginginfo>
																<labels>
																	<label2>Iris</label2>
																</labels>
															</clipitem>
															<enabled>FALSE</enabled>
															<locked>FALSE</locked>
															<outputchannelindex>1</outputchannelindex>
														</track>
														<track TL.SQTrackExpandedHeight="25" TL.SQTrackExpanded="0" MZ.TrackTargeted="1" PannerCurrentValue="0.5" PannerIsInverted="true" PannerStartKeyframe="-91445760000000000,0.5,0,0,0,0,0,0" PannerName="Balance" currentExplodedTrackIndex="0" totalExplodedTrackCount="1" premiereTrackType="Stereo">
															<clipitem id="clipitem-320" frameBlend="FALSE" PannerCurrentValue="0.5" PannerKeyframes="" PannerStartKeyframe="-91445760000000000,0.5,0,0,0,0,0,0" PannerIsInverted="true" PannerName="Pan">
																<masterclipid>masterclip-78</masterclipid>
																<name>AA297301.MXF</name>
																<enabled>TRUE</enabled>
																<duration>34644</duration>
																<rate>
																	<timebase>25</timebase>
																	<ntsc>FALSE</ntsc>
																</rate>
																<start>92232</start>
																<end>126876</end>
																<in>0</in>
																<out>34644</out>
																<file id="file-70"/>
																<sourcetrack>
																	<mediatype>audio</mediatype>
																	<trackindex>2</trackindex>
																</sourcetrack>
																	<filter>
																		<effect>
																			<name>Audio Pan</name>
																			<effectid>audiopan</effectid>
																			<effectcategory>audiopan</effectcategory>
																			<effecttype>audiopan</effecttype>
																			<mediatype>audio</mediatype>
																			<parameter authoringApp="PremierePro">
																				<parameterid>pan</parameterid>
																				<name>Pan</name>
																				<valuemin>-1</valuemin>
																				<valuemax>1</valuemax>
																				<value>0</value>
																			</parameter>
																		</effect>
																	</filter>
																<link>
																	<linkclipref>clipitem-315</linkclipref>
																	<mediatype>video</mediatype>
																	<trackindex>2</trackindex>
																	<clipindex>1</clipindex>
																</link>
																<link>
																	<linkclipref>clipitem-319</linkclipref>
																	<mediatype>audio</mediatype>
																	<trackindex>3</trackindex>
																	<clipindex>1</clipindex>
																	<groupindex>1</groupindex>
																</link>
																<link>
																	<linkclipref>clipitem-320</linkclipref>
																	<mediatype>audio</mediatype>
																	<trackindex>4</trackindex>
																	<clipindex>1</clipindex>
																	<groupindex>1</groupindex>
																</link>
																<logginginfo>
																	<description></description>
																	<scene></scene>
																	<shottake>AA2973</shottake>
																	<lognote></lognote>
																</logginginfo>
																<labels>
																	<label2>Iris</label2>
																</labels>
															</clipitem>
															<enabled>FALSE</enabled>
															<locked>FALSE</locked>
															<outputchannelindex>2</outputchannelindex>
														</track>
														<track PannerCurrentValue="0.5" PannerIsInverted="true" PannerStartKeyframe="-91445760000000000,0.5,0,0,0,0,0,0" PannerName="Balance" currentExplodedTrackIndex="0" totalExplodedTrackCount="1" premiereTrackType="Stereo">
															<clipitem id="clipitem-321" frameBlend="FALSE" PannerCurrentValue="0.5" PannerKeyframes="" PannerStartKeyframe="-91445760000000000,0.5,0,0,0,0,0,0" PannerIsInverted="true" PannerName="Pan">
																<masterclipid>masterclip-79</masterclipid>
																<name>AA297401.MXF</name>
																<enabled>TRUE</enabled>
																<duration>7416</duration>
																<rate>
																	<timebase>25</timebase>
																	<ntsc>FALSE</ntsc>
																</rate>
																<start>165170</start>
																<end>172586</end>
																<in>0</in>
																<out>7416</out>
																<file id="file-71"/>
																<sourcetrack>
																	<mediatype>audio</mediatype>
																	<trackindex>1</trackindex>
																</sourcetrack>
																	<filter>
																		<effect>
																			<name>Audio Pan</name>
																			<effectid>audiopan</effectid>
																			<effectcategory>audiopan</effectcategory>
																			<effecttype>audiopan</effecttype>
																			<mediatype>audio</mediatype>
																			<parameter authoringApp="PremierePro">
																				<parameterid>pan</parameterid>
																				<name>Pan</name>
																				<valuemin>-1</valuemin>
																				<valuemax>1</valuemax>
																				<value>0</value>
																			</parameter>
																		</effect>
																	</filter>
																<link>
																	<linkclipref>clipitem-316</linkclipref>
																	<mediatype>video</mediatype>
																	<trackindex>3</trackindex>
																	<clipindex>1</clipindex>
																</link>
																<link>
																	<linkclipref>clipitem-321</linkclipref>
																	<mediatype>audio</mediatype>
																	<trackindex>5</trackindex>
																	<clipindex>1</clipindex>
																	<groupindex>1</groupindex>
																</link>
																<link>
																	<linkclipref>clipitem-322</linkclipref>
																	<mediatype>audio</mediatype>
																	<trackindex>6</trackindex>
																	<clipindex>1</clipindex>
																	<groupindex>1</groupindex>
																</link>
																<logginginfo>
																	<description></description>
																	<scene></scene>
																	<shottake>AA2974</shottake>
																	<lognote></lognote>
																</logginginfo>
																<labels>
																	<label2>Iris</label2>
																</labels>
															</clipitem>
															<enabled>FALSE</enabled>
															<locked>FALSE</locked>
															<outputchannelindex>1</outputchannelindex>
														</track>
														<track PannerCurrentValue="0.5" PannerIsInverted="true" PannerStartKeyframe="-91445760000000000,0.5,0,0,0,0,0,0" PannerName="Balance" currentExplodedTrackIndex="0" totalExplodedTrackCount="1" premiereTrackType="Stereo">
															<clipitem id="clipitem-322" frameBlend="FALSE" PannerCurrentValue="0.5" PannerKeyframes="" PannerStartKeyframe="-91445760000000000,0.5,0,0,0,0,0,0" PannerIsInverted="true" PannerName="Pan">
																<masterclipid>masterclip-79</masterclipid>
																<name>AA297401.MXF</name>
																<enabled>TRUE</enabled>
																<duration>7416</duration>
																<rate>
																	<timebase>25</timebase>
																	<ntsc>FALSE</ntsc>
																</rate>
																<start>165170</start>
																<end>172586</end>
																<in>0</in>
																<out>7416</out>
																<file id="file-71"/>
																<sourcetrack>
																	<mediatype>audio</mediatype>
																	<trackindex>2</trackindex>
																</sourcetrack>
																	<filter>
																		<effect>
																			<name>Audio Pan</name>
																			<effectid>audiopan</effectid>
																			<effectcategory>audiopan</effectcategory>
																			<effecttype>audiopan</effecttype>
																			<mediatype>audio</mediatype>
																			<parameter authoringApp="PremierePro">
																				<parameterid>pan</parameterid>
																				<name>Pan</name>
																				<valuemin>-1</valuemin>
																				<valuemax>1</valuemax>
																				<value>0</value>
																			</parameter>
																		</effect>
																	</filter>
																<link>
																	<linkclipref>clipitem-316</linkclipref>
																	<mediatype>video</mediatype>
																	<trackindex>3</trackindex>
																	<clipindex>1</clipindex>
																</link>
																<link>
																	<linkclipref>clipitem-321</linkclipref>
																	<mediatype>audio</mediatype>
																	<trackindex>5</trackindex>
																	<clipindex>1</clipindex>
																	<groupindex>1</groupindex>
																</link>
																<link>
																	<linkclipref>clipitem-322</linkclipref>
																	<mediatype>audio</mediatype>
																	<trackindex>6</trackindex>
																	<clipindex>1</clipindex>
																	<groupindex>1</groupindex>
																</link>
																<logginginfo>
																	<description></description>
																	<scene></scene>
																	<shottake>AA2974</shottake>
																	<lognote></lognote>
																</logginginfo>
																<labels>
																	<label2>Iris</label2>
																</labels>
															</clipitem>
															<enabled>FALSE</enabled>
															<locked>FALSE</locked>
															<outputchannelindex>2</outputchannelindex>
														</track>
													</audio>
												</media>
												<timecode>
													<rate>
														<timebase>25</timebase>
														<ntsc>FALSE</ntsc>
													</rate>
													<string>10:10:57:11</string>
													<frame>916436</frame>
													<displayformat>NDF</displayformat>
												</timecode>
											</sequence>
											<labels>
												<label2>Forest</label2>
											</labels>
										</clipitem>
										<enabled>TRUE</enabled>
										<locked>FALSE</locked>
									</track>
								</video>
								<audio>
									<format>
										<samplecharacteristics>
											<depth>16</depth>
											<samplerate>48000</samplerate>
										</samplecharacteristics>
									</format>
									<outputs>
										<group>
											<index>1</index>
											<numchannels>1</numchannels>
											<downmix>0</downmix>
											<channel>
												<index>1</index>
											</channel>
										</group>
										<group>
											<index>2</index>
											<numchannels>1</numchannels>
											<downmix>0</downmix>
											<channel>
												<index>2</index>
											</channel>
										</group>
									</outputs>
									<track TL.SQTrackAudioKeyframeStyle="0" TL.SQTrackShy="0" TL.SQTrackExpandedHeight="25" TL.SQTrackExpanded="0" MZ.TrackTargeted="1" PannerCurrentValue="0.5" PannerIsInverted="true" PannerStartKeyframe="-91445760000000000,0.5,0,0,0,0,0,0" PannerName="Balance" currentExplodedTrackIndex="0" totalExplodedTrackCount="1" premiereTrackType="SixteenChannel">
										<clipitem id="clipitem-312" frameBlend="FALSE">
											<masterclipid>masterclip-72</masterclipid>
											<name>AA297201.MXFKam B</name>
											<enabled>TRUE</enabled>
											<duration>192585</duration>
											<rate>
												<timebase>25</timebase>
												<ntsc>FALSE</ntsc>
											</rate>
											<start>0</start>
											<end>192585</end>
											<in>0</in>
											<out>192585</out>
											<sequence id="sequence-15"/>
												<filter>
													<effect>
														<name>Audio Pan</name>
														<effectid>audiopan</effectid>
														<effectcategory>audiopan</effectcategory>
														<effecttype>audiopan</effecttype>
														<mediatype>audio</mediatype>
														<parameter authoringApp="PremierePro">
															<parameterid>pan</parameterid>
															<name>Pan</name>
															<valuemin>-1</valuemin>
															<valuemax>1</valuemax>
															<value>-1</value>
														</parameter>
													</effect>
												</filter>
											<labels>
												<label2>Forest</label2>
											</labels>
										</clipitem>
										<enabled>TRUE</enabled>
										<locked>FALSE</locked>
										<outputchannelindex>1</outputchannelindex>
									</track>
								</audio>
							</media>
							<timecode>
								<rate>
									<timebase>25</timebase>
									<ntsc>FALSE</ntsc>
								</rate>
								<string>09:57:31:09</string>
								<frame>896284</frame>
								<displayformat>NDF</displayformat>
							</timecode>
						</sequence>
						<labels>
							<label2>Forest</label2>
						</labels>
					</clipitem>
					<clipitem id="clipitem-324" frameBlend="FALSE">
						<masterclipid>masterclip-67</masterclipid>
						<name>AA297201.MXFKam AMoser Multi</name>
						<enabled>TRUE</enabled>
						<duration>201355</duration>
						<rate>
							<timebase>25</timebase>
							<ntsc>FALSE</ntsc>
						</rate>
						<start>776</start>
						<end>1001</end>
						<in>64715</in>
						<out>64940</out>
						<sequence id="sequence-14">
							<duration>150</duration>
							<rate>
								<timebase>25</timebase>
								<ntsc>FALSE</ntsc>
							</rate>
							<name>AA297201.MXFKam AMoser Multi-2</name>
							<media>
								<video>
									<format>
										<samplecharacteristics>
											<rate>
												<timebase>25</timebase>
												<ntsc>FALSE</ntsc>
											</rate>
											<codec>
												<name>Apple ProRes 422</name>
												<appspecificdata>
													<appname>Final Cut Pro</appname>
													<appmanufacturer>Apple Inc.</appmanufacturer>
													<appversion>7.0</appversion>
													<data>
														<qtcodec>
															<codecname>Apple ProRes 422</codecname>
															<codectypename>Apple ProRes 422</codectypename>
															<codectypecode>apcn</codectypecode>
															<codecvendorcode>appl</codecvendorcode>
															<spatialquality>1024</spatialquality>
															<temporalquality>0</temporalquality>
															<keyframerate>0</keyframerate>
															<datarate>0</datarate>
														</qtcodec>
													</data>
												</appspecificdata>
											</codec>
											<width>1920</width>
											<height>1080</height>
											<anamorphic>FALSE</anamorphic>
											<pixelaspectratio>square</pixelaspectratio>
											<fielddominance>upper</fielddominance>
											<colordepth>24</colordepth>
										</samplecharacteristics>
									</format>
									<track TL.SQTrackShy="0" TL.SQTrackExpandedHeight="25" TL.SQTrackExpanded="0" MZ.TrackTargeted="0">
										<clipitem id="clipitem-302" frameBlend="FALSE">
											<masterclipid>masterclip-72</masterclipid>
											<name>AA297201.MXFKam B</name>
											<enabled>TRUE</enabled>
											<duration>192585</duration>
											<rate>
												<timebase>25</timebase>
												<ntsc>FALSE</ntsc>
											</rate>
											<start>0</start>
											<end>192585</end>
											<in>0</in>
											<out>192585</out>
											<sequence id="sequence-15" MZ.Sequence.PreviewFrameSizeHeight="1080" MZ.Sequence.PreviewFrameSizeWidth="1920" MZ.Sequence.AudioTimeDisplayFormat="200" MZ.Sequence.PreviewRenderingClassID="1297106761" MZ.Sequence.PreviewRenderingPresetCodec="1297107278" MZ.Sequence.PreviewRenderingPresetPath="EncoderPresets/SequencePreview/795454d9-d3c2-429d-9474-923ab13b7018/I-Frame Only MPEG.epr" MZ.Sequence.PreviewUseMaxRenderQuality="false" MZ.Sequence.PreviewUseMaxBitDepth="false" MZ.Sequence.EditingModeGUID="795454d9-d3c2-429d-9474-923ab13b7018" MZ.Sequence.VideoTimeDisplayFormat="101" MZ.WorkOutPoint="15240960000000" MZ.WorkInPoint="0" MZ.ZeroPoint="9106819061760000">
												<duration>105540</duration>
												<rate>
													<timebase>25</timebase>
													<ntsc>FALSE</ntsc>
												</rate>
												<name>AA297201.MXFKam B</name>
												<media>
													<video>
														<format>
															<samplecharacteristics>
																<rate>
																	<timebase>25</timebase>
																	<ntsc>FALSE</ntsc>
																</rate>
																<codec>
																	<name>Apple ProRes 422</name>
																	<appspecificdata>
																		<appname>Final Cut Pro</appname>
																		<appmanufacturer>Apple Inc.</appmanufacturer>
																		<appversion>7.0</appversion>
																		<data>
																			<qtcodec>
																				<codecname>Apple ProRes 422</codecname>
																				<codectypename>Apple ProRes 422</codectypename>
																				<codectypecode>apcn</codectypecode>
																				<codecvendorcode>appl</codecvendorcode>
																				<spatialquality>1024</spatialquality>
																				<temporalquality>0</temporalquality>
																				<keyframerate>0</keyframerate>
																				<datarate>0</datarate>
																			</qtcodec>
																		</data>
																	</appspecificdata>
																</codec>
																<width>1920</width>
																<height>1080</height>
																<anamorphic>FALSE</anamorphic>
																<pixelaspectratio>square</pixelaspectratio>
																<fielddominance>upper</fielddominance>
																<colordepth>24</colordepth>
															</samplecharacteristics>
														</format>
														<track>
															<clipitem id="clipitem-303" frameBlend="FALSE">
																<masterclipid>masterclip-73</masterclipid>
																<name>AA297201.MXF</name>
																<enabled>TRUE</enabled>
																<duration>105540</duration>
																<rate>
																	<timebase>25</timebase>
																	<ntsc>FALSE</ntsc>
																</rate>
																<start>0</start>
																<end>105540</end>
																<in>0</in>
																<out>105540</out>
																<alphatype>none</alphatype>
																<pixelaspectratio>square</pixelaspectratio>
																<anamorphic>FALSE</anamorphic>
																<file id="file-66">
																	<name>AA297201.MXF</name>
																	<pathurl>file://localhost/Volumes/Brakka/AdobeLager/Katta/Katta-141009-Moser-WIK/Moser%20Int/Kam%20B/CONTENTS/CLIPS001/AA2972/AA297201.MXF</pathurl>
																	<rate>
																		<timebase>25</timebase>
																		<ntsc>FALSE</ntsc>
																	</rate>
																	<duration>105540</duration>
																	<timecode>
																		<rate>
																			<timebase>25</timebase>
																			<ntsc>FALSE</ntsc>
																		</rate>
																		<string>09:57:31:09</string>
																		<frame>896284</frame>
																		<displayformat>NDF</displayformat>
																		<reel>
																			<name></name>
																		</reel>
																	</timecode>
																	<media>
																		<video>
																			<duration>18000</duration>
																			<samplecharacteristics>
																				<rate>
																					<timebase>25</timebase>
																					<ntsc>FALSE</ntsc>
																				</rate>
																				<width>1920</width>
																				<height>1080</height>
																				<anamorphic>FALSE</anamorphic>
																				<pixelaspectratio>square</pixelaspectratio>
																				<fielddominance>upper</fielddominance>
																			</samplecharacteristics>
																		</video>
																		<audio>
																			<samplecharacteristics>
																				<depth>16</depth>
																				<samplerate>48000</samplerate>
																			</samplecharacteristics>
																			<channelcount>1</channelcount>
																			<layout>mono</layout>
																			<audiochannel>
																				<sourcechannel>1</sourcechannel>
																				<channellabel>discrete</channellabel>
																			</audiochannel>
																		</audio>
																		<audio>
																			<samplecharacteristics>
																				<depth>16</depth>
																				<samplerate>48000</samplerate>
																			</samplecharacteristics>
																			<channelcount>1</channelcount>
																			<layout>mono</layout>
																			<audiochannel>
																				<sourcechannel>2</sourcechannel>
																				<channellabel>discrete</channellabel>
																			</audiochannel>
																		</audio>
																	</media>
																</file>
																<link>
																	<linkclipref>clipitem-303</linkclipref>
																	<mediatype>video</mediatype>
																	<trackindex>1</trackindex>
																	<clipindex>1</clipindex>
																</link>
																<link>
																	<linkclipref>clipitem-306</linkclipref>
																	<mediatype>audio</mediatype>
																	<trackindex>1</trackindex>
																	<clipindex>1</clipindex>
																	<groupindex>1</groupindex>
																</link>
																<link>
																	<linkclipref>clipitem-307</linkclipref>
																	<mediatype>audio</mediatype>
																	<trackindex>2</trackindex>
																	<clipindex>1</clipindex>
																	<groupindex>1</groupindex>
																</link>
																<logginginfo>
																	<description></description>
																	<scene></scene>
																	<shottake>AA2972</shottake>
																	<lognote></lognote>
																</logginginfo>
																<labels>
																	<label2>Iris</label2>
																</labels>
															</clipitem>
															<enabled>TRUE</enabled>
															<locked>FALSE</locked>
														</track>
														<track>
															<clipitem id="clipitem-304" frameBlend="FALSE">
																<masterclipid>masterclip-74</masterclipid>
																<name>AA297301.MXF</name>
																<enabled>TRUE</enabled>
																<duration>38472</duration>
																<rate>
																	<timebase>25</timebase>
																	<ntsc>FALSE</ntsc>
																</rate>
																<start>112947</start>
																<end>151419</end>
																<in>0</in>
																<out>38472</out>
																<alphatype>none</alphatype>
																<pixelaspectratio>square</pixelaspectratio>
																<anamorphic>FALSE</anamorphic>
																<file id="file-67">
																	<name>AA297301.MXF</name>
																	<pathurl>file://localhost/Volumes/Brakka/AdobeLager/Katta/Katta-141009-Moser-WIK/Moser%20Int/Kam%20B/CONTENTS/CLIPS001/AA2973/AA297301.MXF</pathurl>
																	<rate>
																		<timebase>25</timebase>
																		<ntsc>FALSE</ntsc>
																	</rate>
																	<duration>38472</duration>
																	<timecode>
																		<rate>
																			<timebase>25</timebase>
																			<ntsc>FALSE</ntsc>
																		</rate>
																		<string>11:12:49:06</string>
																		<frame>1009231</frame>
																		<displayformat>NDF</displayformat>
																		<reel>
																			<name></name>
																		</reel>
																	</timecode>
																	<media>
																		<video>
																			<duration>18000</duration>
																			<samplecharacteristics>
																				<rate>
																					<timebase>25</timebase>
																					<ntsc>FALSE</ntsc>
																				</rate>
																				<width>1920</width>
																				<height>1080</height>
																				<anamorphic>FALSE</anamorphic>
																				<pixelaspectratio>square</pixelaspectratio>
																				<fielddominance>upper</fielddominance>
																			</samplecharacteristics>
																		</video>
																		<audio>
																			<samplecharacteristics>
																				<depth>16</depth>
																				<samplerate>48000</samplerate>
																			</samplecharacteristics>
																			<channelcount>1</channelcount>
																			<layout>mono</layout>
																			<audiochannel>
																				<sourcechannel>1</sourcechannel>
																				<channellabel>discrete</channellabel>
																			</audiochannel>
																		</audio>
																		<audio>
																			<samplecharacteristics>
																				<depth>16</depth>
																				<samplerate>48000</samplerate>
																			</samplecharacteristics>
																			<channelcount>1</channelcount>
																			<layout>mono</layout>
																			<audiochannel>
																				<sourcechannel>2</sourcechannel>
																				<channellabel>discrete</channellabel>
																			</audiochannel>
																		</audio>
																	</media>
																</file>
																<link>
																	<linkclipref>clipitem-304</linkclipref>
																	<mediatype>video</mediatype>
																	<trackindex>2</trackindex>
																	<clipindex>1</clipindex>
																</link>
																<link>
																	<linkclipref>clipitem-308</linkclipref>
																	<mediatype>audio</mediatype>
																	<trackindex>3</trackindex>
																	<clipindex>1</clipindex>
																	<groupindex>1</groupindex>
																</link>
																<link>
																	<linkclipref>clipitem-309</linkclipref>
																	<mediatype>audio</mediatype>
																	<trackindex>4</trackindex>
																	<clipindex>1</clipindex>
																	<groupindex>1</groupindex>
																</link>
																<logginginfo>
																	<description></description>
																	<scene></scene>
																	<shottake>AA2973</shottake>
																	<lognote></lognote>
																</logginginfo>
																<labels>
																	<label2>Iris</label2>
																</labels>
															</clipitem>
															<enabled>TRUE</enabled>
															<locked>FALSE</locked>
														</track>
														<track>
															<clipitem id="clipitem-305" frameBlend="FALSE">
																<masterclipid>masterclip-75</masterclipid>
																<name>AA297401.MXF</name>
																<enabled>TRUE</enabled>
																<duration>4824</duration>
																<rate>
																	<timebase>25</timebase>
																	<ntsc>FALSE</ntsc>
																</rate>
																<start>187761</start>
																<end>192585</end>
																<in>0</in>
																<out>4824</out>
																<alphatype>none</alphatype>
																<pixelaspectratio>square</pixelaspectratio>
																<anamorphic>FALSE</anamorphic>
																<file id="file-68">
																	<name>AA297401.MXF</name>
																	<pathurl>file://localhost/Volumes/Brakka/AdobeLager/Katta/Katta-141009-Moser-WIK/Moser%20Int/Kam%20B/CONTENTS/CLIPS001/AA2974/AA297401.MXF</pathurl>
																	<rate>
																		<timebase>25</timebase>
																		<ntsc>FALSE</ntsc>
																	</rate>
																	<duration>4824</duration>
																	<timecode>
																		<rate>
																			<timebase>25</timebase>
																			<ntsc>FALSE</ntsc>
																		</rate>
																		<string>12:02:41:20</string>
																		<frame>1084045</frame>
																		<displayformat>NDF</displayformat>
																		<reel>
																			<name></name>
																		</reel>
																	</timecode>
																	<media>
																		<video>
																			<duration>18000</duration>
																			<samplecharacteristics>
																				<rate>
																					<timebase>25</timebase>
																					<ntsc>FALSE</ntsc>
																				</rate>
																				<width>1920</width>
																				<height>1080</height>
																				<anamorphic>FALSE</anamorphic>
																				<pixelaspectratio>square</pixelaspectratio>
																				<fielddominance>upper</fielddominance>
																			</samplecharacteristics>
																		</video>
																		<audio>
																			<samplecharacteristics>
																				<depth>16</depth>
																				<samplerate>48000</samplerate>
																			</samplecharacteristics>
																			<channelcount>1</channelcount>
																			<layout>mono</layout>
																			<audiochannel>
																				<sourcechannel>1</sourcechannel>
																				<channellabel>discrete</channellabel>
																			</audiochannel>
																		</audio>
																		<audio>
																			<samplecharacteristics>
																				<depth>16</depth>
																				<samplerate>48000</samplerate>
																			</samplecharacteristics>
																			<channelcount>1</channelcount>
																			<layout>mono</layout>
																			<audiochannel>
																				<sourcechannel>2</sourcechannel>
																				<channellabel>discrete</channellabel>
																			</audiochannel>
																		</audio>
																	</media>
																</file>
																<link>
																	<linkclipref>clipitem-305</linkclipref>
																	<mediatype>video</mediatype>
																	<trackindex>3</trackindex>
																	<clipindex>1</clipindex>
																</link>
																<link>
																	<linkclipref>clipitem-310</linkclipref>
																	<mediatype>audio</mediatype>
																	<trackindex>5</trackindex>
																	<clipindex>1</clipindex>
																	<groupindex>1</groupindex>
																</link>
																<link>
																	<linkclipref>clipitem-311</linkclipref>
																	<mediatype>audio</mediatype>
																	<trackindex>6</trackindex>
																	<clipindex>1</clipindex>
																	<groupindex>1</groupindex>
																</link>
																<logginginfo>
																	<description></description>
																	<scene></scene>
																	<shottake>AA2974</shottake>
																	<lognote></lognote>
																</logginginfo>
																<labels>
																	<label2>Iris</label2>
																</labels>
															</clipitem>
															<enabled>TRUE</enabled>
															<locked>FALSE</locked>
														</track>
													</video>
													<audio>
														<format>
															<samplecharacteristics>
																<depth>16</depth>
																<samplerate>48000</samplerate>
															</samplecharacteristics>
														</format>
														<outputs>
															<group>
																<index>1</index>
																<numchannels>1</numchannels>
																<downmix>0</downmix>
																<channel>
																	<index>1</index>
																</channel>
															</group>
															<group>
																<index>2</index>
																<numchannels>1</numchannels>
																<downmix>0</downmix>
																<channel>
																	<index>2</index>
																</channel>
															</group>
														</outputs>
														<track TL.SQTrackExpandedHeight="25" TL.SQTrackExpanded="0" MZ.TrackTargeted="1" PannerCurrentValue="0" PannerIsInverted="true" PannerStartKeyframe="-91445760000000000,0.,0,0,0,0,0,0" PannerName="Balance" currentExplodedTrackIndex="0" totalExplodedTrackCount="1" premiereTrackType="Stereo">
															<clipitem id="clipitem-306" frameBlend="FALSE" PannerCurrentValue="0.5" PannerKeyframes="" PannerStartKeyframe="-91445760000000000,0.5,0,0,0,0,0,0" PannerIsInverted="true" PannerName="Pan">
																<masterclipid>masterclip-73</masterclipid>
																<name>AA297201.MXF</name>
																<enabled>TRUE</enabled>
																<duration>105540</duration>
																<rate>
																	<timebase>25</timebase>
																	<ntsc>FALSE</ntsc>
																</rate>
																<start>0</start>
																<end>105540</end>
																<in>0</in>
																<out>105540</out>
																<file id="file-66"/>
																<sourcetrack>
																	<mediatype>audio</mediatype>
																	<trackindex>1</trackindex>
																</sourcetrack>
																	<filter>
																		<effect>
																			<name>Audio Pan</name>
																			<effectid>audiopan</effectid>
																			<effectcategory>audiopan</effectcategory>
																			<effecttype>audiopan</effecttype>
																			<mediatype>audio</mediatype>
																			<parameter authoringApp="PremierePro">
																				<parameterid>pan</parameterid>
																				<name>Pan</name>
																				<valuemin>-1</valuemin>
																				<valuemax>1</valuemax>
																				<value>0</value>
																			</parameter>
																		</effect>
																	</filter>
																<link>
																	<linkclipref>clipitem-303</linkclipref>
																	<mediatype>video</mediatype>
																	<trackindex>1</trackindex>
																	<clipindex>1</clipindex>
																</link>
																<link>
																	<linkclipref>clipitem-306</linkclipref>
																	<mediatype>audio</mediatype>
																	<trackindex>1</trackindex>
																	<clipindex>1</clipindex>
																	<groupindex>1</groupindex>
																</link>
																<link>
																	<linkclipref>clipitem-307</linkclipref>
																	<mediatype>audio</mediatype>
																	<trackindex>2</trackindex>
																	<clipindex>1</clipindex>
																	<groupindex>1</groupindex>
																</link>
																<logginginfo>
																	<description></description>
																	<scene></scene>
																	<shottake>AA2972</shottake>
																	<lognote></lognote>
																</logginginfo>
																<labels>
																	<label2>Iris</label2>
																</labels>
															</clipitem>
															<enabled>TRUE</enabled>
															<locked>FALSE</locked>
															<outputchannelindex>1</outputchannelindex>
														</track>
														<track TL.SQTrackExpandedHeight="25" TL.SQTrackExpanded="0" MZ.TrackTargeted="1" PannerCurrentValue="1." PannerIsInverted="true" PannerStartKeyframe="-91445760000000000,1.,0,0,0,0,0,0" PannerName="Balance" currentExplodedTrackIndex="0" totalExplodedTrackCount="1" premiereTrackType="Stereo">
															<clipitem id="clipitem-307" frameBlend="FALSE" PannerCurrentValue="0.5" PannerKeyframes="" PannerStartKeyframe="-91445760000000000,0.5,0,0,0,0,0,0" PannerIsInverted="true" PannerName="Pan">
																<masterclipid>masterclip-73</masterclipid>
																<name>AA297201.MXF</name>
																<enabled>TRUE</enabled>
																<duration>105540</duration>
																<rate>
																	<timebase>25</timebase>
																	<ntsc>FALSE</ntsc>
																</rate>
																<start>0</start>
																<end>105540</end>
																<in>0</in>
																<out>105540</out>
																<file id="file-66"/>
																<sourcetrack>
																	<mediatype>audio</mediatype>
																	<trackindex>2</trackindex>
																</sourcetrack>
																	<filter>
																		<effect>
																			<name>Audio Pan</name>
																			<effectid>audiopan</effectid>
																			<effectcategory>audiopan</effectcategory>
																			<effecttype>audiopan</effecttype>
																			<mediatype>audio</mediatype>
																			<parameter authoringApp="PremierePro">
																				<parameterid>pan</parameterid>
																				<name>Pan</name>
																				<valuemin>-1</valuemin>
																				<valuemax>1</valuemax>
																				<value>0</value>
																			</parameter>
																		</effect>
																	</filter>
																<link>
																	<linkclipref>clipitem-303</linkclipref>
																	<mediatype>video</mediatype>
																	<trackindex>1</trackindex>
																	<clipindex>1</clipindex>
																</link>
																<link>
																	<linkclipref>clipitem-306</linkclipref>
																	<mediatype>audio</mediatype>
																	<trackindex>1</trackindex>
																	<clipindex>1</clipindex>
																	<groupindex>1</groupindex>
																</link>
																<link>
																	<linkclipref>clipitem-307</linkclipref>
																	<mediatype>audio</mediatype>
																	<trackindex>2</trackindex>
																	<clipindex>1</clipindex>
																	<groupindex>1</groupindex>
																</link>
																<logginginfo>
																	<description></description>
																	<scene></scene>
																	<shottake>AA2972</shottake>
																	<lognote></lognote>
																</logginginfo>
																<labels>
																	<label2>Iris</label2>
																</labels>
															</clipitem>
															<enabled>TRUE</enabled>
															<locked>FALSE</locked>
															<outputchannelindex>2</outputchannelindex>
														</track>
														<track TL.SQTrackExpandedHeight="25" TL.SQTrackExpanded="0" MZ.TrackTargeted="1" PannerCurrentValue="0.5" PannerIsInverted="true" PannerStartKeyframe="-91445760000000000,0.5,0,0,0,0,0,0" PannerName="Balance" currentExplodedTrackIndex="0" totalExplodedTrackCount="1" premiereTrackType="Stereo">
															<clipitem id="clipitem-308" frameBlend="FALSE" PannerCurrentValue="0.5" PannerKeyframes="" PannerStartKeyframe="-91445760000000000,0.5,0,0,0,0,0,0" PannerIsInverted="true" PannerName="Pan">
																<masterclipid>masterclip-74</masterclipid>
																<name>AA297301.MXF</name>
																<enabled>TRUE</enabled>
																<duration>38472</duration>
																<rate>
																	<timebase>25</timebase>
																	<ntsc>FALSE</ntsc>
																</rate>
																<start>112947</start>
																<end>151419</end>
																<in>0</in>
																<out>38472</out>
																<file id="file-67"/>
																<sourcetrack>
																	<mediatype>audio</mediatype>
																	<trackindex>1</trackindex>
																</sourcetrack>
																	<filter>
																		<effect>
																			<name>Audio Pan</name>
																			<effectid>audiopan</effectid>
																			<effectcategory>audiopan</effectcategory>
																			<effecttype>audiopan</effecttype>
																			<mediatype>audio</mediatype>
																			<parameter authoringApp="PremierePro">
																				<parameterid>pan</parameterid>
																				<name>Pan</name>
																				<valuemin>-1</valuemin>
																				<valuemax>1</valuemax>
																				<value>0</value>
																			</parameter>
																		</effect>
																	</filter>
																<link>
																	<linkclipref>clipitem-304</linkclipref>
																	<mediatype>video</mediatype>
																	<trackindex>2</trackindex>
																	<clipindex>1</clipindex>
																</link>
																<link>
																	<linkclipref>clipitem-308</linkclipref>
																	<mediatype>audio</mediatype>
																	<trackindex>3</trackindex>
																	<clipindex>1</clipindex>
																	<groupindex>1</groupindex>
																</link>
																<link>
																	<linkclipref>clipitem-309</linkclipref>
																	<mediatype>audio</mediatype>
																	<trackindex>4</trackindex>
																	<clipindex>1</clipindex>
																	<groupindex>1</groupindex>
																</link>
																<logginginfo>
																	<description></description>
																	<scene></scene>
																	<shottake>AA2973</shottake>
																	<lognote></lognote>
																</logginginfo>
																<labels>
																	<label2>Iris</label2>
																</labels>
															</clipitem>
															<enabled>FALSE</enabled>
															<locked>FALSE</locked>
															<outputchannelindex>1</outputchannelindex>
														</track>
														<track TL.SQTrackExpandedHeight="25" TL.SQTrackExpanded="0" MZ.TrackTargeted="1" PannerCurrentValue="0.5" PannerIsInverted="true" PannerStartKeyframe="-91445760000000000,0.5,0,0,0,0,0,0" PannerName="Balance" currentExplodedTrackIndex="0" totalExplodedTrackCount="1" premiereTrackType="Stereo">
															<clipitem id="clipitem-309" frameBlend="FALSE" PannerCurrentValue="0.5" PannerKeyframes="" PannerStartKeyframe="-91445760000000000,0.5,0,0,0,0,0,0" PannerIsInverted="true" PannerName="Pan">
																<masterclipid>masterclip-74</masterclipid>
																<name>AA297301.MXF</name>
																<enabled>TRUE</enabled>
																<duration>38472</duration>
																<rate>
																	<timebase>25</timebase>
																	<ntsc>FALSE</ntsc>
																</rate>
																<start>112947</start>
																<end>151419</end>
																<in>0</in>
																<out>38472</out>
																<file id="file-67"/>
																<sourcetrack>
																	<mediatype>audio</mediatype>
																	<trackindex>2</trackindex>
																</sourcetrack>
																	<filter>
																		<effect>
																			<name>Audio Pan</name>
																			<effectid>audiopan</effectid>
																			<effectcategory>audiopan</effectcategory>
																			<effecttype>audiopan</effecttype>
																			<mediatype>audio</mediatype>
																			<parameter authoringApp="PremierePro">
																				<parameterid>pan</parameterid>
																				<name>Pan</name>
																				<valuemin>-1</valuemin>
																				<valuemax>1</valuemax>
																				<value>0</value>
																			</parameter>
																		</effect>
																	</filter>
																<link>
																	<linkclipref>clipitem-304</linkclipref>
																	<mediatype>video</mediatype>
																	<trackindex>2</trackindex>
																	<clipindex>1</clipindex>
																</link>
																<link>
																	<linkclipref>clipitem-308</linkclipref>
																	<mediatype>audio</mediatype>
																	<trackindex>3</trackindex>
																	<clipindex>1</clipindex>
																	<groupindex>1</groupindex>
																</link>
																<link>
																	<linkclipref>clipitem-309</linkclipref>
																	<mediatype>audio</mediatype>
																	<trackindex>4</trackindex>
																	<clipindex>1</clipindex>
																	<groupindex>1</groupindex>
																</link>
																<logginginfo>
																	<description></description>
																	<scene></scene>
																	<shottake>AA2973</shottake>
																	<lognote></lognote>
																</logginginfo>
																<labels>
																	<label2>Iris</label2>
																</labels>
															</clipitem>
															<enabled>FALSE</enabled>
															<locked>FALSE</locked>
															<outputchannelindex>2</outputchannelindex>
														</track>
														<track PannerCurrentValue="0.5" PannerIsInverted="true" PannerStartKeyframe="-91445760000000000,0.5,0,0,0,0,0,0" PannerName="Balance" currentExplodedTrackIndex="0" totalExplodedTrackCount="1" premiereTrackType="Stereo">
															<clipitem id="clipitem-310" frameBlend="FALSE" PannerCurrentValue="0.5" PannerKeyframes="" PannerStartKeyframe="-91445760000000000,0.5,0,0,0,0,0,0" PannerIsInverted="true" PannerName="Pan">
																<masterclipid>masterclip-75</masterclipid>
																<name>AA297401.MXF</name>
																<enabled>TRUE</enabled>
																<duration>4824</duration>
																<rate>
																	<timebase>25</timebase>
																	<ntsc>FALSE</ntsc>
																</rate>
																<start>187761</start>
																<end>192585</end>
																<in>0</in>
																<out>4824</out>
																<file id="file-68"/>
																<sourcetrack>
																	<mediatype>audio</mediatype>
																	<trackindex>1</trackindex>
																</sourcetrack>
																	<filter>
																		<effect>
																			<name>Audio Pan</name>
																			<effectid>audiopan</effectid>
																			<effectcategory>audiopan</effectcategory>
																			<effecttype>audiopan</effecttype>
																			<mediatype>audio</mediatype>
																			<parameter authoringApp="PremierePro">
																				<parameterid>pan</parameterid>
																				<name>Pan</name>
																				<valuemin>-1</valuemin>
																				<valuemax>1</valuemax>
																				<value>0</value>
																			</parameter>
																		</effect>
																	</filter>
																<link>
																	<linkclipref>clipitem-305</linkclipref>
																	<mediatype>video</mediatype>
																	<trackindex>3</trackindex>
																	<clipindex>1</clipindex>
																</link>
																<link>
																	<linkclipref>clipitem-310</linkclipref>
																	<mediatype>audio</mediatype>
																	<trackindex>5</trackindex>
																	<clipindex>1</clipindex>
																	<groupindex>1</groupindex>
																</link>
																<link>
																	<linkclipref>clipitem-311</linkclipref>
																	<mediatype>audio</mediatype>
																	<trackindex>6</trackindex>
																	<clipindex>1</clipindex>
																	<groupindex>1</groupindex>
																</link>
																<logginginfo>
																	<description></description>
																	<scene></scene>
																	<shottake>AA2974</shottake>
																	<lognote></lognote>
																</logginginfo>
																<labels>
																	<label2>Iris</label2>
																</labels>
															</clipitem>
															<enabled>FALSE</enabled>
															<locked>FALSE</locked>
															<outputchannelindex>1</outputchannelindex>
														</track>
														<track PannerCurrentValue="0.5" PannerIsInverted="true" PannerStartKeyframe="-91445760000000000,0.5,0,0,0,0,0,0" PannerName="Balance" currentExplodedTrackIndex="0" totalExplodedTrackCount="1" premiereTrackType="Stereo">
															<clipitem id="clipitem-311" frameBlend="FALSE" PannerCurrentValue="0.5" PannerKeyframes="" PannerStartKeyframe="-91445760000000000,0.5,0,0,0,0,0,0" PannerIsInverted="true" PannerName="Pan">
																<masterclipid>masterclip-75</masterclipid>
																<name>AA297401.MXF</name>
																<enabled>TRUE</enabled>
																<duration>4824</duration>
																<rate>
																	<timebase>25</timebase>
																	<ntsc>FALSE</ntsc>
																</rate>
																<start>187761</start>
																<end>192585</end>
																<in>0</in>
																<out>4824</out>
																<file id="file-68"/>
																<sourcetrack>
																	<mediatype>audio</mediatype>
																	<trackindex>2</trackindex>
																</sourcetrack>
																	<filter>
																		<effect>
																			<name>Audio Pan</name>
																			<effectid>audiopan</effectid>
																			<effectcategory>audiopan</effectcategory>
																			<effecttype>audiopan</effecttype>
																			<mediatype>audio</mediatype>
																			<parameter authoringApp="PremierePro">
																				<parameterid>pan</parameterid>
																				<name>Pan</name>
																				<valuemin>-1</valuemin>
																				<valuemax>1</valuemax>
																				<value>0</value>
																			</parameter>
																		</effect>
																	</filter>
																<link>
																	<linkclipref>clipitem-305</linkclipref>
																	<mediatype>video</mediatype>
																	<trackindex>3</trackindex>
																	<clipindex>1</clipindex>
																</link>
																<link>
																	<linkclipref>clipitem-310</linkclipref>
																	<mediatype>audio</mediatype>
																	<trackindex>5</trackindex>
																	<clipindex>1</clipindex>
																	<groupindex>1</groupindex>
																</link>
																<link>
																	<linkclipref>clipitem-311</linkclipref>
																	<mediatype>audio</mediatype>
																	<trackindex>6</trackindex>
																	<clipindex>1</clipindex>
																	<groupindex>1</groupindex>
																</link>
																<logginginfo>
																	<description></description>
																	<scene></scene>
																	<shottake>AA2974</shottake>
																	<lognote></lognote>
																</logginginfo>
																<labels>
																	<label2>Iris</label2>
																</labels>
															</clipitem>
															<enabled>FALSE</enabled>
															<locked>FALSE</locked>
															<outputchannelindex>2</outputchannelindex>
														</track>
													</audio>
												</media>
												<timecode>
													<rate>
														<timebase>25</timebase>
														<ntsc>FALSE</ntsc>
													</rate>
													<string>09:57:31:09</string>
													<frame>896284</frame>
													<displayformat>NDF</displayformat>
												</timecode>
											</sequence>
											<labels>
												<label2>Forest</label2>
											</labels>
										</clipitem>
										<enabled>TRUE</enabled>
										<locked>FALSE</locked>
									</track>
								</video>
								<audio>
									<format>
										<samplecharacteristics>
											<depth>16</depth>
											<samplerate>48000</samplerate>
										</samplecharacteristics>
									</format>
									<outputs>
										<group>
											<index>1</index>
											<numchannels>1</numchannels>
											<downmix>0</downmix>
											<channel>
												<index>1</index>
											</channel>
										</group>
										<group>
											<index>2</index>
											<numchannels>1</numchannels>
											<downmix>0</downmix>
											<channel>
												<index>2</index>
											</channel>
										</group>
									</outputs>
									<track TL.SQTrackAudioKeyframeStyle="0" TL.SQTrackShy="0" TL.SQTrackExpandedHeight="25" TL.SQTrackExpanded="0" MZ.TrackTargeted="1" PannerCurrentValue="0.5" PannerIsInverted="true" PannerStartKeyframe="-91445760000000000,0.5,0,0,0,0,0,0" PannerName="Balance" currentExplodedTrackIndex="0" totalExplodedTrackCount="1" premiereTrackType="SixteenChannel">
										<clipitem id="clipitem-301" frameBlend="FALSE">
											<masterclipid>masterclip-68</masterclipid>
											<name>AA297201.MXFKam A</name>
											<enabled>TRUE</enabled>
											<duration>201318</duration>
											<rate>
												<timebase>25</timebase>
												<ntsc>FALSE</ntsc>
											</rate>
											<start>37</start>
											<end>201355</end>
											<in>0</in>
											<out>201318</out>
											<sequence id="sequence-13"/>
												<filter>
													<effect>
														<name>Audio Pan</name>
														<effectid>audiopan</effectid>
														<effectcategory>audiopan</effectcategory>
														<effecttype>audiopan</effecttype>
														<mediatype>audio</mediatype>
														<parameter authoringApp="PremierePro">
															<parameterid>pan</parameterid>
															<name>Pan</name>
															<valuemin>-1</valuemin>
															<valuemax>1</valuemax>
															<value>-1</value>
														</parameter>
													</effect>
												</filter>
											<labels>
												<label2>Forest</label2>
											</labels>
										</clipitem>
										<enabled>TRUE</enabled>
										<locked>FALSE</locked>
										<outputchannelindex>1</outputchannelindex>
									</track>
								</audio>
							</media>
							<timecode>
								<rate>
									<timebase>25</timebase>
									<ntsc>FALSE</ntsc>
								</rate>
								<string>09:57:31:09</string>
								<frame>896284</frame>
								<displayformat>NDF</displayformat>
							</timecode>
						</sequence>
						<labels>
							<label2>Forest</label2>
						</labels>
					</clipitem>
					<clipitem id="clipitem-325" frameBlend="FALSE">
						<masterclipid>masterclip-67</masterclipid>
						<name>AA297201.MXFKam AMoser Multi</name>
						<enabled>TRUE</enabled>
						<duration>201355</duration>
						<rate>
							<timebase>25</timebase>
							<ntsc>FALSE</ntsc>
						</rate>
						<start>1001</start>
						<end>1109</end>
						<in>64940</in>
						<out>65048</out>
						<sequence id="sequence-12">
							<duration>150</duration>
							<rate>
								<timebase>25</timebase>
								<ntsc>FALSE</ntsc>
							</rate>
							<name>AA297201.MXFKam AMoser Multi-1</name>
							<media>
								<video>
									<format>
										<samplecharacteristics>
											<rate>
												<timebase>25</timebase>
												<ntsc>FALSE</ntsc>
											</rate>
											<codec>
												<name>Apple ProRes 422</name>
												<appspecificdata>
													<appname>Final Cut Pro</appname>
													<appmanufacturer>Apple Inc.</appmanufacturer>
													<appversion>7.0</appversion>
													<data>
														<qtcodec>
															<codecname>Apple ProRes 422</codecname>
															<codectypename>Apple ProRes 422</codectypename>
															<codectypecode>apcn</codectypecode>
															<codecvendorcode>appl</codecvendorcode>
															<spatialquality>1024</spatialquality>
															<temporalquality>0</temporalquality>
															<keyframerate>0</keyframerate>
															<datarate>0</datarate>
														</qtcodec>
													</data>
												</appspecificdata>
											</codec>
											<width>1920</width>
											<height>1080</height>
											<anamorphic>FALSE</anamorphic>
											<pixelaspectratio>square</pixelaspectratio>
											<fielddominance>upper</fielddominance>
											<colordepth>24</colordepth>
										</samplecharacteristics>
									</format>
									<track TL.SQTrackShy="0" TL.SQTrackExpandedHeight="50" TL.SQTrackExpanded="1" MZ.TrackTargeted="0">
										<clipitem id="clipitem-300" frameBlend="FALSE">
											<masterclipid>masterclip-68</masterclipid>
											<name>AA297201.MXFKam A</name>
											<enabled>TRUE</enabled>
											<duration>201318</duration>
											<rate>
												<timebase>25</timebase>
												<ntsc>FALSE</ntsc>
											</rate>
											<start>37</start>
											<end>201355</end>
											<in>0</in>
											<out>201318</out>
											<sequence id="sequence-13"/>
											<labels>
												<label2>Forest</label2>
											</labels>
										</clipitem>
										<enabled>TRUE</enabled>
										<locked>FALSE</locked>
									</track>
								</video>
								<audio>
									<format>
										<samplecharacteristics>
											<depth>16</depth>
											<samplerate>48000</samplerate>
										</samplecharacteristics>
									</format>
									<outputs>
										<group>
											<index>1</index>
											<numchannels>1</numchannels>
											<downmix>0</downmix>
											<channel>
												<index>1</index>
											</channel>
										</group>
										<group>
											<index>2</index>
											<numchannels>1</numchannels>
											<downmix>0</downmix>
											<channel>
												<index>2</index>
											</channel>
										</group>
									</outputs>
									<track TL.SQTrackAudioKeyframeStyle="0" TL.SQTrackShy="0" TL.SQTrackExpandedHeight="25" TL.SQTrackExpanded="0" MZ.TrackTargeted="1" PannerCurrentValue="0.5" PannerIsInverted="true" PannerStartKeyframe="-91445760000000000,0.5,0,0,0,0,0,0" PannerName="Balance" currentExplodedTrackIndex="0" totalExplodedTrackCount="1" premiereTrackType="SixteenChannel">
										<clipitem id="clipitem-290" frameBlend="FALSE">
											<masterclipid>masterclip-68</masterclipid>
											<name>AA297201.MXFKam A</name>
											<enabled>TRUE</enabled>
											<duration>201318</duration>
											<rate>
												<timebase>25</timebase>
												<ntsc>FALSE</ntsc>
											</rate>
											<start>37</start>
											<end>201355</end>
											<in>0</in>
											<out>201318</out>
											<sequence id="sequence-13" MZ.Sequence.PreviewFrameSizeHeight="1080" MZ.Sequence.PreviewFrameSizeWidth="1920" MZ.Sequence.AudioTimeDisplayFormat="200" MZ.Sequence.PreviewRenderingClassID="1297106761" MZ.Sequence.PreviewRenderingPresetCodec="1297107278" MZ.Sequence.PreviewRenderingPresetPath="EncoderPresets/SequencePreview/795454d9-d3c2-429d-9474-923ab13b7018/I-Frame Only MPEG.epr" MZ.Sequence.PreviewUseMaxRenderQuality="false" MZ.Sequence.PreviewUseMaxBitDepth="false" MZ.Sequence.EditingModeGUID="795454d9-d3c2-429d-9474-923ab13b7018" MZ.Sequence.VideoTimeDisplayFormat="101" MZ.WorkOutPoint="15240960000000" MZ.WorkInPoint="0" MZ.ZeroPoint="9107195005440000">
												<duration>105828</duration>
												<rate>
													<timebase>25</timebase>
													<ntsc>FALSE</ntsc>
												</rate>
												<name>AA297201.MXFKam A</name>
												<media>
													<video>
														<format>
															<samplecharacteristics>
																<rate>
																	<timebase>25</timebase>
																	<ntsc>FALSE</ntsc>
																</rate>
																<codec>
																	<name>Apple ProRes 422</name>
																	<appspecificdata>
																		<appname>Final Cut Pro</appname>
																		<appmanufacturer>Apple Inc.</appmanufacturer>
																		<appversion>7.0</appversion>
																		<data>
																			<qtcodec>
																				<codecname>Apple ProRes 422</codecname>
																				<codectypename>Apple ProRes 422</codectypename>
																				<codectypecode>apcn</codectypecode>
																				<codecvendorcode>appl</codecvendorcode>
																				<spatialquality>1024</spatialquality>
																				<temporalquality>0</temporalquality>
																				<keyframerate>0</keyframerate>
																				<datarate>0</datarate>
																			</qtcodec>
																		</data>
																	</appspecificdata>
																</codec>
																<width>1920</width>
																<height>1080</height>
																<anamorphic>FALSE</anamorphic>
																<pixelaspectratio>square</pixelaspectratio>
																<fielddominance>upper</fielddominance>
																<colordepth>24</colordepth>
															</samplecharacteristics>
														</format>
														<track>
															<clipitem id="clipitem-291" frameBlend="FALSE">
																<masterclipid>masterclip-69</masterclipid>
																<name>AA297201.MXF</name>
																<enabled>TRUE</enabled>
																<duration>105828</duration>
																<rate>
																	<timebase>25</timebase>
																	<ntsc>FALSE</ntsc>
																</rate>
																<start>0</start>
																<end>105828</end>
																<in>0</in>
																<out>105828</out>
																<alphatype>none</alphatype>
																<pixelaspectratio>square</pixelaspectratio>
																<anamorphic>FALSE</anamorphic>
																<file id="file-63">
																	<name>AA297201.MXF</name>
																	<pathurl>file://localhost/Volumes/Brakka/AdobeLager/Katta/Katta-141009-Moser-WIK/Moser%20Int/Kam%20A/CONTENTS/CLIPS001/AA2972/AA297201.MXF</pathurl>
																	<rate>
																		<timebase>25</timebase>
																		<ntsc>FALSE</ntsc>
																	</rate>
																	<duration>105828</duration>
																	<timecode>
																		<rate>
																			<timebase>25</timebase>
																			<ntsc>FALSE</ntsc>
																		</rate>
																		<string>09:57:32:21</string>
																		<frame>896321</frame>
																		<displayformat>NDF</displayformat>
																		<reel>
																			<name></name>
																		</reel>
																	</timecode>
																	<media>
																		<video>
																			<duration>18000</duration>
																			<samplecharacteristics>
																				<rate>
																					<timebase>25</timebase>
																					<ntsc>FALSE</ntsc>
																				</rate>
																				<width>1920</width>
																				<height>1080</height>
																				<anamorphic>FALSE</anamorphic>
																				<pixelaspectratio>square</pixelaspectratio>
																				<fielddominance>upper</fielddominance>
																			</samplecharacteristics>
																		</video>
																		<audio>
																			<samplecharacteristics>
																				<depth>16</depth>
																				<samplerate>48000</samplerate>
																			</samplecharacteristics>
																			<channelcount>1</channelcount>
																			<layout>mono</layout>
																			<audiochannel>
																				<sourcechannel>1</sourcechannel>
																				<channellabel>discrete</channellabel>
																			</audiochannel>
																		</audio>
																		<audio>
																			<samplecharacteristics>
																				<depth>16</depth>
																				<samplerate>48000</samplerate>
																			</samplecharacteristics>
																			<channelcount>1</channelcount>
																			<layout>mono</layout>
																			<audiochannel>
																				<sourcechannel>2</sourcechannel>
																				<channellabel>discrete</channellabel>
																			</audiochannel>
																		</audio>
																	</media>
																</file>
																<link>
																	<linkclipref>clipitem-291</linkclipref>
																	<mediatype>video</mediatype>
																	<trackindex>1</trackindex>
																	<clipindex>1</clipindex>
																</link>
																<link>
																	<linkclipref>clipitem-294</linkclipref>
																	<mediatype>audio</mediatype>
																	<trackindex>1</trackindex>
																	<clipindex>1</clipindex>
																	<groupindex>1</groupindex>
																</link>
																<link>
																	<linkclipref>clipitem-295</linkclipref>
																	<mediatype>audio</mediatype>
																	<trackindex>2</trackindex>
																	<clipindex>1</clipindex>
																	<groupindex>1</groupindex>
																</link>
																<logginginfo>
																	<description></description>
																	<scene></scene>
																	<shottake>AA2972</shottake>
																	<lognote></lognote>
																</logginginfo>
																<labels>
																	<label2>Iris</label2>
																</labels>
															</clipitem>
															<enabled>TRUE</enabled>
															<locked>FALSE</locked>
														</track>
														<track>
															<clipitem id="clipitem-292" frameBlend="FALSE">
																<masterclipid>masterclip-70</masterclipid>
																<name>AA297301.MXF</name>
																<enabled>TRUE</enabled>
																<duration>38388</duration>
																<rate>
																	<timebase>25</timebase>
																	<ntsc>FALSE</ntsc>
																</rate>
																<start>112827</start>
																<end>151215</end>
																<in>0</in>
																<out>38388</out>
																<alphatype>none</alphatype>
																<pixelaspectratio>square</pixelaspectratio>
																<anamorphic>FALSE</anamorphic>
																<file id="file-64">
																	<name>AA297301.MXF</name>
																	<pathurl>file://localhost/Volumes/Brakka/AdobeLager/Katta/Katta-141009-Moser-WIK/Moser%20Int/Kam%20A/CONTENTS/CLIPS001/AA2973/AA297301.MXF</pathurl>
																	<rate>
																		<timebase>25</timebase>
																		<ntsc>FALSE</ntsc>
																	</rate>
																	<duration>38388</duration>
																	<timecode>
																		<rate>
																			<timebase>25</timebase>
																			<ntsc>FALSE</ntsc>
																		</rate>
																		<string>11:12:45:23</string>
																		<frame>1009148</frame>
																		<displayformat>NDF</displayformat>
																		<reel>
																			<name></name>
																		</reel>
																	</timecode>
																	<media>
																		<video>
																			<duration>18000</duration>
																			<samplecharacteristics>
																				<rate>
																					<timebase>25</timebase>
																					<ntsc>FALSE</ntsc>
																				</rate>
																				<width>1920</width>
																				<height>1080</height>
																				<anamorphic>FALSE</anamorphic>
																				<pixelaspectratio>square</pixelaspectratio>
																				<fielddominance>upper</fielddominance>
																			</samplecharacteristics>
																		</video>
																		<audio>
																			<samplecharacteristics>
																				<depth>16</depth>
																				<samplerate>48000</samplerate>
																			</samplecharacteristics>
																			<channelcount>1</channelcount>
																			<layout>mono</layout>
																			<audiochannel>
																				<sourcechannel>1</sourcechannel>
																				<channellabel>discrete</channellabel>
																			</audiochannel>
																		</audio>
																		<audio>
																			<samplecharacteristics>
																				<depth>16</depth>
																				<samplerate>48000</samplerate>
																			</samplecharacteristics>
																			<channelcount>1</channelcount>
																			<layout>mono</layout>
																			<audiochannel>
																				<sourcechannel>2</sourcechannel>
																				<channellabel>discrete</channellabel>
																			</audiochannel>
																		</audio>
																	</media>
																</file>
																<link>
																	<linkclipref>clipitem-292</linkclipref>
																	<mediatype>video</mediatype>
																	<trackindex>2</trackindex>
																	<clipindex>1</clipindex>
																</link>
																<link>
																	<linkclipref>clipitem-296</linkclipref>
																	<mediatype>audio</mediatype>
																	<trackindex>3</trackindex>
																	<clipindex>1</clipindex>
																	<groupindex>1</groupindex>
																</link>
																<link>
																	<linkclipref>clipitem-297</linkclipref>
																	<mediatype>audio</mediatype>
																	<trackindex>4</trackindex>
																	<clipindex>1</clipindex>
																	<groupindex>1</groupindex>
																</link>
																<logginginfo>
																	<description></description>
																	<scene></scene>
																	<shottake>AA2973</shottake>
																	<lognote></lognote>
																</logginginfo>
																<labels>
																	<label2>Iris</label2>
																</labels>
															</clipitem>
															<enabled>TRUE</enabled>
															<locked>FALSE</locked>
														</track>
														<track>
															<clipitem id="clipitem-293" frameBlend="FALSE">
																<masterclipid>masterclip-71</masterclipid>
																<name>AA297401.MXF</name>
																<enabled>TRUE</enabled>
																<duration>12828</duration>
																<rate>
																	<timebase>25</timebase>
																	<ntsc>FALSE</ntsc>
																</rate>
																<start>188490</start>
																<end>201318</end>
																<in>0</in>
																<out>12828</out>
																<alphatype>none</alphatype>
																<pixelaspectratio>square</pixelaspectratio>
																<anamorphic>FALSE</anamorphic>
																<file id="file-65">
																	<name>AA297401.MXF</name>
																	<pathurl>file://localhost/Volumes/Brakka/AdobeLager/Katta/Katta-141009-Moser-WIK/Moser%20Int/Kam%20A/CONTENTS/CLIPS001/AA2974/AA297401.MXF</pathurl>
																	<rate>
																		<timebase>25</timebase>
																		<ntsc>FALSE</ntsc>
																	</rate>
																	<duration>12828</duration>
																	<timecode>
																		<rate>
																			<timebase>25</timebase>
																			<ntsc>FALSE</ntsc>
																		</rate>
																		<string>12:03:12:11</string>
																		<frame>1084811</frame>
																		<displayformat>NDF</displayformat>
																		<reel>
																			<name></name>
																		</reel>
																	</timecode>
																	<media>
																		<video>
																			<duration>18000</duration>
																			<samplecharacteristics>
																				<rate>
																					<timebase>25</timebase>
																					<ntsc>FALSE</ntsc>
																				</rate>
																				<width>1920</width>
																				<height>1080</height>
																				<anamorphic>FALSE</anamorphic>
																				<pixelaspectratio>square</pixelaspectratio>
																				<fielddominance>upper</fielddominance>
																			</samplecharacteristics>
																		</video>
																		<audio>
																			<samplecharacteristics>
																				<depth>16</depth>
																				<samplerate>48000</samplerate>
																			</samplecharacteristics>
																			<channelcount>1</channelcount>
																			<layout>mono</layout>
																			<audiochannel>
																				<sourcechannel>1</sourcechannel>
																				<channellabel>discrete</channellabel>
																			</audiochannel>
																		</audio>
																		<audio>
																			<samplecharacteristics>
																				<depth>16</depth>
																				<samplerate>48000</samplerate>
																			</samplecharacteristics>
																			<channelcount>1</channelcount>
																			<layout>mono</layout>
																			<audiochannel>
																				<sourcechannel>2</sourcechannel>
																				<channellabel>discrete</channellabel>
																			</audiochannel>
																		</audio>
																	</media>
																</file>
																<link>
																	<linkclipref>clipitem-293</linkclipref>
																	<mediatype>video</mediatype>
																	<trackindex>3</trackindex>
																	<clipindex>1</clipindex>
																</link>
																<link>
																	<linkclipref>clipitem-298</linkclipref>
																	<mediatype>audio</mediatype>
																	<trackindex>5</trackindex>
																	<clipindex>1</clipindex>
																	<groupindex>1</groupindex>
																</link>
																<link>
																	<linkclipref>clipitem-299</linkclipref>
																	<mediatype>audio</mediatype>
																	<trackindex>6</trackindex>
																	<clipindex>1</clipindex>
																	<groupindex>1</groupindex>
																</link>
																<logginginfo>
																	<description></description>
																	<scene></scene>
																	<shottake>AA2974</shottake>
																	<lognote></lognote>
																</logginginfo>
																<labels>
																	<label2>Iris</label2>
																</labels>
															</clipitem>
															<enabled>TRUE</enabled>
															<locked>FALSE</locked>
														</track>
													</video>
													<audio>
														<format>
															<samplecharacteristics>
																<depth>16</depth>
																<samplerate>48000</samplerate>
															</samplecharacteristics>
														</format>
														<outputs>
															<group>
																<index>1</index>
																<numchannels>1</numchannels>
																<downmix>0</downmix>
																<channel>
																	<index>1</index>
																</channel>
															</group>
															<group>
																<index>2</index>
																<numchannels>1</numchannels>
																<downmix>0</downmix>
																<channel>
																	<index>2</index>
																</channel>
															</group>
														</outputs>
														<track TL.SQTrackExpandedHeight="25" TL.SQTrackExpanded="0" MZ.TrackTargeted="1" PannerCurrentValue="0" PannerIsInverted="true" PannerStartKeyframe="-91445760000000000,0.,0,0,0,0,0,0" PannerName="Balance" currentExplodedTrackIndex="0" totalExplodedTrackCount="1" premiereTrackType="Stereo">
															<clipitem id="clipitem-294" frameBlend="FALSE" PannerCurrentValue="0.5" PannerKeyframes="" PannerStartKeyframe="-91445760000000000,0.5,0,0,0,0,0,0" PannerIsInverted="true" PannerName="Pan">
																<masterclipid>masterclip-69</masterclipid>
																<name>AA297201.MXF</name>
																<enabled>TRUE</enabled>
																<duration>105828</duration>
																<rate>
																	<timebase>25</timebase>
																	<ntsc>FALSE</ntsc>
																</rate>
																<start>0</start>
																<end>105828</end>
																<in>0</in>
																<out>105828</out>
																<file id="file-63"/>
																<sourcetrack>
																	<mediatype>audio</mediatype>
																	<trackindex>1</trackindex>
																</sourcetrack>
																	<filter>
																		<effect>
																			<name>Audio Pan</name>
																			<effectid>audiopan</effectid>
																			<effectcategory>audiopan</effectcategory>
																			<effecttype>audiopan</effecttype>
																			<mediatype>audio</mediatype>
																			<parameter authoringApp="PremierePro">
																				<parameterid>pan</parameterid>
																				<name>Pan</name>
																				<valuemin>-1</valuemin>
																				<valuemax>1</valuemax>
																				<value>0</value>
																			</parameter>
																		</effect>
																	</filter>
																<link>
																	<linkclipref>clipitem-291</linkclipref>
																	<mediatype>video</mediatype>
																	<trackindex>1</trackindex>
																	<clipindex>1</clipindex>
																</link>
																<link>
																	<linkclipref>clipitem-294</linkclipref>
																	<mediatype>audio</mediatype>
																	<trackindex>1</trackindex>
																	<clipindex>1</clipindex>
																	<groupindex>1</groupindex>
																</link>
																<link>
																	<linkclipref>clipitem-295</linkclipref>
																	<mediatype>audio</mediatype>
																	<trackindex>2</trackindex>
																	<clipindex>1</clipindex>
																	<groupindex>1</groupindex>
																</link>
																<logginginfo>
																	<description></description>
																	<scene></scene>
																	<shottake>AA2972</shottake>
																	<lognote></lognote>
																</logginginfo>
																<labels>
																	<label2>Iris</label2>
																</labels>
															</clipitem>
															<enabled>TRUE</enabled>
															<locked>FALSE</locked>
															<outputchannelindex>1</outputchannelindex>
														</track>
														<track TL.SQTrackExpandedHeight="25" TL.SQTrackExpanded="0" MZ.TrackTargeted="1" PannerCurrentValue="1." PannerIsInverted="true" PannerStartKeyframe="-91445760000000000,1.,0,0,0,0,0,0" PannerName="Balance" currentExplodedTrackIndex="0" totalExplodedTrackCount="1" premiereTrackType="Stereo">
															<clipitem id="clipitem-295" frameBlend="FALSE" PannerCurrentValue="0.5" PannerKeyframes="" PannerStartKeyframe="-91445760000000000,0.5,0,0,0,0,0,0" PannerIsInverted="true" PannerName="Pan">
																<masterclipid>masterclip-69</masterclipid>
																<name>AA297201.MXF</name>
																<enabled>TRUE</enabled>
																<duration>105828</duration>
																<rate>
																	<timebase>25</timebase>
																	<ntsc>FALSE</ntsc>
																</rate>
																<start>0</start>
																<end>105828</end>
																<in>0</in>
																<out>105828</out>
																<file id="file-63"/>
																<sourcetrack>
																	<mediatype>audio</mediatype>
																	<trackindex>2</trackindex>
																</sourcetrack>
																	<filter>
																		<effect>
																			<name>Audio Pan</name>
																			<effectid>audiopan</effectid>
																			<effectcategory>audiopan</effectcategory>
																			<effecttype>audiopan</effecttype>
																			<mediatype>audio</mediatype>
																			<parameter authoringApp="PremierePro">
																				<parameterid>pan</parameterid>
																				<name>Pan</name>
																				<valuemin>-1</valuemin>
																				<valuemax>1</valuemax>
																				<value>0</value>
																			</parameter>
																		</effect>
																	</filter>
																<link>
																	<linkclipref>clipitem-291</linkclipref>
																	<mediatype>video</mediatype>
																	<trackindex>1</trackindex>
																	<clipindex>1</clipindex>
																</link>
																<link>
																	<linkclipref>clipitem-294</linkclipref>
																	<mediatype>audio</mediatype>
																	<trackindex>1</trackindex>
																	<clipindex>1</clipindex>
																	<groupindex>1</groupindex>
																</link>
																<link>
																	<linkclipref>clipitem-295</linkclipref>
																	<mediatype>audio</mediatype>
																	<trackindex>2</trackindex>
																	<clipindex>1</clipindex>
																	<groupindex>1</groupindex>
																</link>
																<logginginfo>
																	<description></description>
																	<scene></scene>
																	<shottake>AA2972</shottake>
																	<lognote></lognote>
																</logginginfo>
																<labels>
																	<label2>Iris</label2>
																</labels>
															</clipitem>
															<enabled>TRUE</enabled>
															<locked>FALSE</locked>
															<outputchannelindex>2</outputchannelindex>
														</track>
														<track TL.SQTrackExpandedHeight="25" TL.SQTrackExpanded="0" MZ.TrackTargeted="1" PannerCurrentValue="0.5" PannerIsInverted="true" PannerStartKeyframe="-91445760000000000,0.5,0,0,0,0,0,0" PannerName="Balance" currentExplodedTrackIndex="0" totalExplodedTrackCount="1" premiereTrackType="Stereo">
															<clipitem id="clipitem-296" frameBlend="FALSE" PannerCurrentValue="0.5" PannerKeyframes="" PannerStartKeyframe="-91445760000000000,0.5,0,0,0,0,0,0" PannerIsInverted="true" PannerName="Pan">
																<masterclipid>masterclip-70</masterclipid>
																<name>AA297301.MXF</name>
																<enabled>TRUE</enabled>
																<duration>38388</duration>
																<rate>
																	<timebase>25</timebase>
																	<ntsc>FALSE</ntsc>
																</rate>
																<start>112827</start>
																<end>151215</end>
																<in>0</in>
																<out>38388</out>
																<file id="file-64"/>
																<sourcetrack>
																	<mediatype>audio</mediatype>
																	<trackindex>1</trackindex>
																</sourcetrack>
																	<filter>
																		<effect>
																			<name>Audio Pan</name>
																			<effectid>audiopan</effectid>
																			<effectcategory>audiopan</effectcategory>
																			<effecttype>audiopan</effecttype>
																			<mediatype>audio</mediatype>
																			<parameter authoringApp="PremierePro">
																				<parameterid>pan</parameterid>
																				<name>Pan</name>
																				<valuemin>-1</valuemin>
																				<valuemax>1</valuemax>
																				<value>0</value>
																			</parameter>
																		</effect>
																	</filter>
																<link>
																	<linkclipref>clipitem-292</linkclipref>
																	<mediatype>video</mediatype>
																	<trackindex>2</trackindex>
																	<clipindex>1</clipindex>
																</link>
																<link>
																	<linkclipref>clipitem-296</linkclipref>
																	<mediatype>audio</mediatype>
																	<trackindex>3</trackindex>
																	<clipindex>1</clipindex>
																	<groupindex>1</groupindex>
																</link>
																<link>
																	<linkclipref>clipitem-297</linkclipref>
																	<mediatype>audio</mediatype>
																	<trackindex>4</trackindex>
																	<clipindex>1</clipindex>
																	<groupindex>1</groupindex>
																</link>
																<logginginfo>
																	<description></description>
																	<scene></scene>
																	<shottake>AA2973</shottake>
																	<lognote></lognote>
																</logginginfo>
																<labels>
																	<label2>Iris</label2>
																</labels>
															</clipitem>
															<enabled>FALSE</enabled>
															<locked>FALSE</locked>
															<outputchannelindex>1</outputchannelindex>
														</track>
														<track TL.SQTrackExpandedHeight="25" TL.SQTrackExpanded="0" MZ.TrackTargeted="1" PannerCurrentValue="0.5" PannerIsInverted="true" PannerStartKeyframe="-91445760000000000,0.5,0,0,0,0,0,0" PannerName="Balance" currentExplodedTrackIndex="0" totalExplodedTrackCount="1" premiereTrackType="Stereo">
															<clipitem id="clipitem-297" frameBlend="FALSE" PannerCurrentValue="0.5" PannerKeyframes="" PannerStartKeyframe="-91445760000000000,0.5,0,0,0,0,0,0" PannerIsInverted="true" PannerName="Pan">
																<masterclipid>masterclip-70</masterclipid>
																<name>AA297301.MXF</name>
																<enabled>TRUE</enabled>
																<duration>38388</duration>
																<rate>
																	<timebase>25</timebase>
																	<ntsc>FALSE</ntsc>
																</rate>
																<start>112827</start>
																<end>151215</end>
																<in>0</in>
																<out>38388</out>
																<file id="file-64"/>
																<sourcetrack>
																	<mediatype>audio</mediatype>
																	<trackindex>2</trackindex>
																</sourcetrack>
																	<filter>
																		<effect>
																			<name>Audio Pan</name>
																			<effectid>audiopan</effectid>
																			<effectcategory>audiopan</effectcategory>
																			<effecttype>audiopan</effecttype>
																			<mediatype>audio</mediatype>
																			<parameter authoringApp="PremierePro">
																				<parameterid>pan</parameterid>
																				<name>Pan</name>
																				<valuemin>-1</valuemin>
																				<valuemax>1</valuemax>
																				<value>0</value>
																			</parameter>
																		</effect>
																	</filter>
																<link>
																	<linkclipref>clipitem-292</linkclipref>
																	<mediatype>video</mediatype>
																	<trackindex>2</trackindex>
																	<clipindex>1</clipindex>
																</link>
																<link>
																	<linkclipref>clipitem-296</linkclipref>
																	<mediatype>audio</mediatype>
																	<trackindex>3</trackindex>
																	<clipindex>1</clipindex>
																	<groupindex>1</groupindex>
																</link>
																<link>
																	<linkclipref>clipitem-297</linkclipref>
																	<mediatype>audio</mediatype>
																	<trackindex>4</trackindex>
																	<clipindex>1</clipindex>
																	<groupindex>1</groupindex>
																</link>
																<logginginfo>
																	<description></description>
																	<scene></scene>
																	<shottake>AA2973</shottake>
																	<lognote></lognote>
																</logginginfo>
																<labels>
																	<label2>Iris</label2>
																</labels>
															</clipitem>
															<enabled>FALSE</enabled>
															<locked>FALSE</locked>
															<outputchannelindex>2</outputchannelindex>
														</track>
														<track PannerCurrentValue="0.5" PannerIsInverted="true" PannerStartKeyframe="-91445760000000000,0.5,0,0,0,0,0,0" PannerName="Balance" currentExplodedTrackIndex="0" totalExplodedTrackCount="1" premiereTrackType="Stereo">
															<clipitem id="clipitem-298" frameBlend="FALSE" PannerCurrentValue="0.5" PannerKeyframes="" PannerStartKeyframe="-91445760000000000,0.5,0,0,0,0,0,0" PannerIsInverted="true" PannerName="Pan">
																<masterclipid>masterclip-71</masterclipid>
																<name>AA297401.MXF</name>
																<enabled>TRUE</enabled>
																<duration>12828</duration>
																<rate>
																	<timebase>25</timebase>
																	<ntsc>FALSE</ntsc>
																</rate>
																<start>188490</start>
																<end>201318</end>
																<in>0</in>
																<out>12828</out>
																<file id="file-65"/>
																<sourcetrack>
																	<mediatype>audio</mediatype>
																	<trackindex>1</trackindex>
																</sourcetrack>
																	<filter>
																		<effect>
																			<name>Audio Pan</name>
																			<effectid>audiopan</effectid>
																			<effectcategory>audiopan</effectcategory>
																			<effecttype>audiopan</effecttype>
																			<mediatype>audio</mediatype>
																			<parameter authoringApp="PremierePro">
																				<parameterid>pan</parameterid>
																				<name>Pan</name>
																				<valuemin>-1</valuemin>
																				<valuemax>1</valuemax>
																				<value>0</value>
																			</parameter>
																		</effect>
																	</filter>
																<link>
																	<linkclipref>clipitem-293</linkclipref>
																	<mediatype>video</mediatype>
																	<trackindex>3</trackindex>
																	<clipindex>1</clipindex>
																</link>
																<link>
																	<linkclipref>clipitem-298</linkclipref>
																	<mediatype>audio</mediatype>
																	<trackindex>5</trackindex>
																	<clipindex>1</clipindex>
																	<groupindex>1</groupindex>
																</link>
																<link>
																	<linkclipref>clipitem-299</linkclipref>
																	<mediatype>audio</mediatype>
																	<trackindex>6</trackindex>
																	<clipindex>1</clipindex>
																	<groupindex>1</groupindex>
																</link>
																<logginginfo>
																	<description></description>
																	<scene></scene>
																	<shottake>AA2974</shottake>
																	<lognote></lognote>
																</logginginfo>
																<labels>
																	<label2>Iris</label2>
																</labels>
															</clipitem>
															<enabled>FALSE</enabled>
															<locked>FALSE</locked>
															<outputchannelindex>1</outputchannelindex>
														</track>
														<track PannerCurrentValue="0.5" PannerIsInverted="true" PannerStartKeyframe="-91445760000000000,0.5,0,0,0,0,0,0" PannerName="Balance" currentExplodedTrackIndex="0" totalExplodedTrackCount="1" premiereTrackType="Stereo">
															<clipitem id="clipitem-299" frameBlend="FALSE" PannerCurrentValue="0.5" PannerKeyframes="" PannerStartKeyframe="-91445760000000000,0.5,0,0,0,0,0,0" PannerIsInverted="true" PannerName="Pan">
																<masterclipid>masterclip-71</masterclipid>
																<name>AA297401.MXF</name>
																<enabled>TRUE</enabled>
																<duration>12828</duration>
																<rate>
																	<timebase>25</timebase>
																	<ntsc>FALSE</ntsc>
																</rate>
																<start>188490</start>
																<end>201318</end>
																<in>0</in>
																<out>12828</out>
																<file id="file-65"/>
																<sourcetrack>
																	<mediatype>audio</mediatype>
																	<trackindex>2</trackindex>
																</sourcetrack>
																	<filter>
																		<effect>
																			<name>Audio Pan</name>
																			<effectid>audiopan</effectid>
																			<effectcategory>audiopan</effectcategory>
																			<effecttype>audiopan</effecttype>
																			<mediatype>audio</mediatype>
																			<parameter authoringApp="PremierePro">
																				<parameterid>pan</parameterid>
																				<name>Pan</name>
																				<valuemin>-1</valuemin>
																				<valuemax>1</valuemax>
																				<value>0</value>
																			</parameter>
																		</effect>
																	</filter>
																<link>
																	<linkclipref>clipitem-293</linkclipref>
																	<mediatype>video</mediatype>
																	<trackindex>3</trackindex>
																	<clipindex>1</clipindex>
																</link>
																<link>
																	<linkclipref>clipitem-298</linkclipref>
																	<mediatype>audio</mediatype>
																	<trackindex>5</trackindex>
																	<clipindex>1</clipindex>
																	<groupindex>1</groupindex>
																</link>
																<link>
																	<linkclipref>clipitem-299</linkclipref>
																	<mediatype>audio</mediatype>
																	<trackindex>6</trackindex>
																	<clipindex>1</clipindex>
																	<groupindex>1</groupindex>
																</link>
																<logginginfo>
																	<description></description>
																	<scene></scene>
																	<shottake>AA2974</shottake>
																	<lognote></lognote>
																</logginginfo>
																<labels>
																	<label2>Iris</label2>
																</labels>
															</clipitem>
															<enabled>FALSE</enabled>
															<locked>FALSE</locked>
															<outputchannelindex>2</outputchannelindex>
														</track>
													</audio>
												</media>
												<timecode>
													<rate>
														<timebase>25</timebase>
														<ntsc>FALSE</ntsc>
													</rate>
													<string>09:57:32:21</string>
													<frame>896321</frame>
													<displayformat>NDF</displayformat>
												</timecode>
											</sequence>
												<filter>
													<effect>
														<name>Audio Pan</name>
														<effectid>audiopan</effectid>
														<effectcategory>audiopan</effectcategory>
														<effecttype>audiopan</effecttype>
														<mediatype>audio</mediatype>
														<parameter authoringApp="PremierePro">
															<parameterid>pan</parameterid>
															<name>Pan</name>
															<valuemin>-1</valuemin>
															<valuemax>1</valuemax>
															<value>-1</value>
														</parameter>
													</effect>
												</filter>
											<labels>
												<label2>Forest</label2>
											</labels>
										</clipitem>
										<enabled>TRUE</enabled>
										<locked>FALSE</locked>
										<outputchannelindex>1</outputchannelindex>
									</track>
								</audio>
							</media>
							<timecode>
								<rate>
									<timebase>25</timebase>
									<ntsc>FALSE</ntsc>
								</rate>
								<string>09:57:31:09</string>
								<frame>896284</frame>
								<displayformat>NDF</displayformat>
							</timecode>
						</sequence>
						<labels>
							<label2>Forest</label2>
						</labels>
					</clipitem>
					<clipitem id="clipitem-326" frameBlend="FALSE">
						<masterclipid>masterclip-80</masterclipid>
						<name>MOSER-BAKGRUNN-061014-ST2.mxf</name>
						<enabled>TRUE</enabled>
						<duration>4852</duration>
						<rate>
							<timebase>25</timebase>
							<ntsc>FALSE</ntsc>
						</rate>
						<start>1109</start>
						<end>1305</end>
						<in>2933</in>
						<out>3129</out>
						<alphatype>none</alphatype>
						<pixelaspectratio>square</pixelaspectratio>
						<anamorphic>FALSE</anamorphic>
						<file id="file-72">
							<name>MOSER-BAKGRUNN-061014-ST2.mxf</name>
							<pathurl>file://localhost/Volumes/Brakka/AdobeLager/Katta/Katta-141009-Moser-WIK/02-Video/RuneKV/MOSER-BAKGRUNN-061014-ST2.mxf</pathurl>
							<rate>
								<timebase>25</timebase>
								<ntsc>FALSE</ntsc>
							</rate>
							<duration>2426</duration>
							<timecode>
								<rate>
									<timebase>25</timebase>
									<ntsc>FALSE</ntsc>
								</rate>
								<string>00:00:00:00</string>
								<frame>0</frame>
								<displayformat>NDF</displayformat>
								<reel>
									<name></name>
								</reel>
							</timecode>
							<media>
								<video>
									<duration>18000</duration>
									<samplecharacteristics>
										<rate>
											<timebase>25</timebase>
											<ntsc>FALSE</ntsc>
										</rate>
										<width>1920</width>
										<height>1080</height>
										<anamorphic>FALSE</anamorphic>
										<pixelaspectratio>square</pixelaspectratio>
										<fielddominance>upper</fielddominance>
									</samplecharacteristics>
								</video>
								<audio>
									<samplecharacteristics>
										<depth>16</depth>
										<samplerate>48000</samplerate>
									</samplecharacteristics>
									<channelcount>8</channelcount>
								</audio>
							</media>
						</file>
							<filter>
								<effect>
									<name>Time Remap</name>
									<effectid>timeremap</effectid>
									<effectcategory>motion</effectcategory>
									<effecttype>motion</effecttype>
									<mediatype>video</mediatype>
									<parameter authoringApp="PremierePro">
										<parameterid>variablespeed</parameterid>
										<name>variablespeed</name>
										<valuemin>0</valuemin>
										<valuemax>1</valuemax>
										<value>0</value>
									</parameter>
									<parameter authoringApp="PremierePro">
										<parameterid>mappedduration</parameterid>
										<name>mappedduration</name>
										<value>
											<timecode>
												<rate>
													<timebase>0</timebase>
												</rate>
												<string>0</string>
												<frame>0</frame>
												<displayformat>NDF</displayformat>
											</timecode>
										</value>
									</parameter>
									<parameter authoringApp="PremierePro">
										<parameterid>speed</parameterid>
										<name>speed</name>
										<valuemin>-100000</valuemin>
										<valuemax>100000</valuemax>
										<value>50</value>
									</parameter>
									<parameter authoringApp="PremierePro">
										<parameterid>reverse</parameterid>
										<name>reverse</name>
										<value>FALSE</value>
									</parameter>
									<parameter authoringApp="PremierePro">
										<parameterid>frameblending</parameterid>
										<name>frameblending</name>
										<value>FALSE</value>
									</parameter>
								</effect>
							</filter>
						<logginginfo>
							<description></description>
							<scene></scene>
							<shottake></shottake>
							<lognote></lognote>
						</logginginfo>
						<labels>
							<label2>Iris</label2>
						</labels>
					</clipitem>
					<clipitem id="clipitem-327" frameBlend="FALSE">
						<masterclipid>masterclip-66</masterclipid>
						<name>Teleportering-071014-f_p0.mxf</name>
						<enabled>TRUE</enabled>
						<duration>11228</duration>
						<rate>
							<timebase>25</timebase>
							<ntsc>FALSE</ntsc>
						</rate>
						<start>1305</start>
						<end>1489</end>
						<in>4446</in>
						<out>4630</out>
						<alphatype>none</alphatype>
						<file id="file-62"/>
						<link>
							<linkclipref>clipitem-327</linkclipref>
							<mediatype>video</mediatype>
							<trackindex>1</trackindex>
							<clipindex>12</clipindex>
						</link>
						<link>
							<linkclipref>clipitem-358</linkclipref>
							<mediatype>audio</mediatype>
							<trackindex>1</trackindex>
							<clipindex>9</clipindex>
						</link>
						<link>
							<linkclipref>clipitem-374</linkclipref>
							<mediatype>audio</mediatype>
							<trackindex>2</trackindex>
							<clipindex>7</clipindex>
						</link>
						<logginginfo>
							<description></description>
							<scene></scene>
							<shottake></shottake>
							<lognote></lognote>
						</logginginfo>
						<labels>
							<label2>Iris</label2>
						</labels>
					</clipitem>
					<clipitem id="clipitem-328" frameBlend="FALSE">
						<masterclipid>masterclip-66</masterclipid>
						<name>Teleportering-071014-f_p0.mxf</name>
						<enabled>TRUE</enabled>
						<duration>11228</duration>
						<rate>
							<timebase>25</timebase>
							<ntsc>FALSE</ntsc>
						</rate>
						<start>1489</start>
						<end>1549</end>
						<in>6056</in>
						<out>6116</out>
						<alphatype>none</alphatype>
						<file id="file-62"/>
						<link>
							<linkclipref>clipitem-328</linkclipref>
							<mediatype>video</mediatype>
							<trackindex>1</trackindex>
							<clipindex>13</clipindex>
						</link>
						<link>
							<linkclipref>clipitem-359</linkclipref>
							<mediatype>audio</mediatype>
							<trackindex>1</trackindex>
							<clipindex>10</clipindex>
						</link>
						<link>
							<linkclipref>clipitem-375</linkclipref>
							<mediatype>audio</mediatype>
							<trackindex>2</trackindex>
							<clipindex>8</clipindex>
						</link>
						<logginginfo>
							<description></description>
							<scene></scene>
							<shottake></shottake>
							<lognote></lognote>
						</logginginfo>
						<labels>
							<label2>Iris</label2>
						</labels>
					</clipitem>
					<clipitem id="clipitem-329" frameBlend="FALSE">
						<masterclipid>masterclip-66</masterclipid>
						<name>Teleportering-071014-f_p0.mxf</name>
						<enabled>TRUE</enabled>
						<duration>11228</duration>
						<rate>
							<timebase>25</timebase>
							<ntsc>FALSE</ntsc>
						</rate>
						<start>1549</start>
						<end>1614</end>
						<in>6148</in>
						<out>6213</out>
						<alphatype>none</alphatype>
						<file id="file-62"/>
						<link>
							<linkclipref>clipitem-329</linkclipref>
							<mediatype>video</mediatype>
							<trackindex>1</trackindex>
							<clipindex>14</clipindex>
						</link>
						<link>
							<linkclipref>clipitem-360</linkclipref>
							<mediatype>audio</mediatype>
							<trackindex>1</trackindex>
							<clipindex>11</clipindex>
						</link>
						<link>
							<linkclipref>clipitem-376</linkclipref>
							<mediatype>audio</mediatype>
							<trackindex>2</trackindex>
							<clipindex>9</clipindex>
						</link>
						<logginginfo>
							<description></description>
							<scene></scene>
							<shottake></shottake>
							<lognote></lognote>
						</logginginfo>
						<labels>
							<label2>Iris</label2>
						</labels>
					</clipitem>
					<clipitem id="clipitem-330" frameBlend="FALSE">
						<masterclipid>masterclip-66</masterclipid>
						<name>Teleportering-071014-f_p0.mxf</name>
						<enabled>TRUE</enabled>
						<duration>11228</duration>
						<rate>
							<timebase>25</timebase>
							<ntsc>FALSE</ntsc>
						</rate>
						<start>1614</start>
						<end>1672</end>
						<in>5667</in>
						<out>5725</out>
						<alphatype>none</alphatype>
						<file id="file-62"/>
						<link>
							<linkclipref>clipitem-330</linkclipref>
							<mediatype>video</mediatype>
							<trackindex>1</trackindex>
							<clipindex>15</clipindex>
						</link>
						<link>
							<linkclipref>clipitem-361</linkclipref>
							<mediatype>audio</mediatype>
							<trackindex>1</trackindex>
							<clipindex>12</clipindex>
						</link>
						<link>
							<linkclipref>clipitem-377</linkclipref>
							<mediatype>audio</mediatype>
							<trackindex>2</trackindex>
							<clipindex>10</clipindex>
						</link>
						<logginginfo>
							<description></description>
							<scene></scene>
							<shottake></shottake>
							<lognote></lognote>
						</logginginfo>
						<labels>
							<label2>Iris</label2>
						</labels>
					</clipitem>
					<clipitem id="clipitem-331" frameBlend="FALSE">
						<masterclipid>masterclip-67</masterclipid>
						<name>AA297201.MXFKam AMoser Multi</name>
						<enabled>TRUE</enabled>
						<duration>201355</duration>
						<rate>
							<timebase>25</timebase>
							<ntsc>FALSE</ntsc>
						</rate>
						<start>1971</start>
						<end>2294</end>
						<in>67849</in>
						<out>68172</out>
						<sequence id="sequence-14"/>
						<labels>
							<label2>Forest</label2>
						</labels>
					</clipitem>
					<clipitem id="clipitem-332" frameBlend="FALSE">
						<masterclipid>masterclip-67</masterclipid>
						<name>AA297201.MXFKam AMoser Multi</name>
						<enabled>TRUE</enabled>
						<duration>201355</duration>
						<rate>
							<timebase>25</timebase>
							<ntsc>FALSE</ntsc>
						</rate>
						<start>2294</start>
						<end>2515</end>
						<in>68197</in>
						<out>68418</out>
						<sequence id="sequence-14"/>
						<labels>
							<label2>Forest</label2>
						</labels>
					</clipitem>
					<clipitem id="clipitem-333" frameBlend="FALSE">
						<masterclipid>masterclip-67</masterclipid>
						<name>AA297201.MXFKam AMoser Multi</name>
						<enabled>TRUE</enabled>
						<duration>201355</duration>
						<rate>
							<timebase>25</timebase>
							<ntsc>FALSE</ntsc>
						</rate>
						<start>2515</start>
						<end>2609</end>
						<in>76382</in>
						<out>76476</out>
						<sequence id="sequence-16"/>
						<labels>
							<label2>Forest</label2>
						</labels>
					</clipitem>
					<clipitem id="clipitem-334" frameBlend="FALSE">
						<masterclipid>masterclip-67</masterclipid>
						<name>AA297201.MXFKam AMoser Multi</name>
						<enabled>TRUE</enabled>
						<duration>201355</duration>
						<rate>
							<timebase>25</timebase>
							<ntsc>FALSE</ntsc>
						</rate>
						<start>2609</start>
						<end>2702</end>
						<in>76476</in>
						<out>76569</out>
						<sequence id="sequence-14"/>
						<labels>
							<label2>Forest</label2>
						</labels>
					</clipitem>
					<clipitem id="clipitem-335" frameBlend="FALSE">
						<masterclipid>masterclip-67</masterclipid>
						<name>AA297201.MXFKam AMoser Multi</name>
						<enabled>TRUE</enabled>
						<duration>201355</duration>
						<rate>
							<timebase>25</timebase>
							<ntsc>FALSE</ntsc>
						</rate>
						<start>2702</start>
						<end>2762</end>
						<in>76569</in>
						<out>76629</out>
						<sequence id="sequence-16"/>
						<labels>
							<label2>Forest</label2>
						</labels>
					</clipitem>
					<clipitem id="clipitem-336" frameBlend="FALSE">
						<masterclipid>masterclip-67</masterclipid>
						<name>AA297201.MXFKam AMoser Multi</name>
						<enabled>TRUE</enabled>
						<duration>201355</duration>
						<rate>
							<timebase>25</timebase>
							<ntsc>FALSE</ntsc>
						</rate>
						<start>2762</start>
						<end>3130</end>
						<in>74146</in>
						<out>74514</out>
						<sequence id="sequence-14"/>
						<labels>
							<label2>Forest</label2>
						</labels>
					</clipitem>
					<clipitem id="clipitem-337" frameBlend="FALSE">
						<masterclipid>masterclip-66</masterclipid>
						<name>Teleportering-071014-f_p0.mxf</name>
						<enabled>TRUE</enabled>
						<duration>28070</duration>
						<rate>
							<timebase>25</timebase>
							<ntsc>FALSE</ntsc>
						</rate>
						<start>3130</start>
						<end>3230</end>
						<in>4500</in>
						<out>4600</out>
						<alphatype>none</alphatype>
						<file id="file-62"/>
							<filter>
								<effect>
									<name>Time Remap</name>
									<effectid>timeremap</effectid>
									<effectcategory>motion</effectcategory>
									<effecttype>motion</effecttype>
									<mediatype>video</mediatype>
									<parameter authoringApp="PremierePro">
										<parameterid>variablespeed</parameterid>
										<name>variablespeed</name>
										<valuemin>0</valuemin>
										<valuemax>1</valuemax>
										<value>0</value>
									</parameter>
									<parameter authoringApp="PremierePro">
										<parameterid>mappedduration</parameterid>
										<name>mappedduration</name>
										<value>
											<timecode>
												<rate>
													<timebase>0</timebase>
												</rate>
												<string>0</string>
												<frame>0</frame>
												<displayformat>NDF</displayformat>
											</timecode>
										</value>
									</parameter>
									<parameter authoringApp="PremierePro">
										<parameterid>speed</parameterid>
										<name>speed</name>
										<valuemin>-100000</valuemin>
										<valuemax>100000</valuemax>
										<value>40</value>
									</parameter>
									<parameter authoringApp="PremierePro">
										<parameterid>reverse</parameterid>
										<name>reverse</name>
										<value>FALSE</value>
									</parameter>
									<parameter authoringApp="PremierePro">
										<parameterid>frameblending</parameterid>
										<name>frameblending</name>
										<value>FALSE</value>
									</parameter>
								</effect>
							</filter>
						<logginginfo>
							<description></description>
							<scene></scene>
							<shottake></shottake>
							<lognote></lognote>
						</logginginfo>
						<labels>
							<label2>Iris</label2>
						</labels>
					</clipitem>
					<clipitem id="clipitem-338" frameBlend="FALSE">
						<masterclipid>masterclip-66</masterclipid>
						<name>Teleportering-071014-f_p0.mxf</name>
						<enabled>TRUE</enabled>
						<duration>11228</duration>
						<rate>
							<timebase>25</timebase>
							<ntsc>FALSE</ntsc>
						</rate>
						<start>3230</start>
						<end>3407</end>
						<in>8048</in>
						<out>8225</out>
						<alphatype>none</alphatype>
						<file id="file-62"/>
						<link>
							<linkclipref>clipitem-338</linkclipref>
							<mediatype>video</mediatype>
							<trackindex>1</trackindex>
							<clipindex>23</clipindex>
						</link>
						<link>
							<linkclipref>clipitem-366</linkclipref>
							<mediatype>audio</mediatype>
							<trackindex>1</trackindex>
							<clipindex>19</clipindex>
						</link>
						<link>
							<linkclipref>clipitem-378</linkclipref>
							<mediatype>audio</mediatype>
							<trackindex>2</trackindex>
							<clipindex>11</clipindex>
						</link>
						<logginginfo>
							<description></description>
							<scene></scene>
							<shottake></shottake>
							<lognote></lognote>
						</logginginfo>
						<labels>
							<label2>Iris</label2>
						</labels>
					</clipitem>
					<clipitem id="clipitem-339" frameBlend="FALSE">
						<masterclipid>masterclip-80</masterclipid>
						<name>MOSER-BAKGRUNN-061014-ST2.mxf</name>
						<enabled>TRUE</enabled>
						<duration>2426</duration>
						<rate>
							<timebase>25</timebase>
							<ntsc>FALSE</ntsc>
						</rate>
						<start>3407</start>
						<end>3624</end>
						<in>1648</in>
						<out>1865</out>
						<alphatype>none</alphatype>
						<file id="file-72"/>
						<logginginfo>
							<description></description>
							<scene></scene>
							<shottake></shottake>
							<lognote></lognote>
						</logginginfo>
						<labels>
							<label2>Iris</label2>
						</labels>
					</clipitem>
					<clipitem id="clipitem-340" frameBlend="FALSE">
						<masterclipid>masterclip-67</masterclipid>
						<name>AA297201.MXFKam AMoser Multi</name>
						<enabled>TRUE</enabled>
						<duration>201355</duration>
						<rate>
							<timebase>25</timebase>
							<ntsc>FALSE</ntsc>
						</rate>
						<start>3624</start>
						<end>3813</end>
						<in>68538</in>
						<out>68727</out>
						<sequence id="sequence-14"/>
						<labels>
							<label2>Forest</label2>
						</labels>
					</clipitem>
					<clipitem id="clipitem-341" frameBlend="FALSE">
						<masterclipid>masterclip-67</masterclipid>
						<name>AA297201.MXFKam AMoser Multi</name>
						<enabled>TRUE</enabled>
						<duration>201355</duration>
						<rate>
							<timebase>25</timebase>
							<ntsc>FALSE</ntsc>
						</rate>
						<start>3813</start>
						<end>4027</end>
						<in>68727</in>
						<out>68941</out>
						<sequence id="sequence-12"/>
						<labels>
							<label2>Forest</label2>
						</labels>
					</clipitem>
					<clipitem id="clipitem-342" frameBlend="FALSE">
						<masterclipid>masterclip-67</masterclipid>
						<name>AA297201.MXFKam AMoser Multi</name>
						<enabled>TRUE</enabled>
						<duration>201355</duration>
						<rate>
							<timebase>25</timebase>
							<ntsc>FALSE</ntsc>
						</rate>
						<start>4027</start>
						<end>4204</end>
						<in>68941</in>
						<out>69118</out>
						<sequence id="sequence-14"/>
						<labels>
							<label2>Forest</label2>
						</labels>
					</clipitem>
					<clipitem id="clipitem-343" frameBlend="FALSE">
						<masterclipid>masterclip-67</masterclipid>
						<name>AA297201.MXFKam AMoser Multi</name>
						<enabled>TRUE</enabled>
						<duration>201355</duration>
						<rate>
							<timebase>25</timebase>
							<ntsc>FALSE</ntsc>
						</rate>
						<start>4204</start>
						<end>4236</end>
						<in>69118</in>
						<out>69150</out>
						<sequence id="sequence-16"/>
						<labels>
							<label2>Forest</label2>
						</labels>
					</clipitem>
					<clipitem id="clipitem-344" frameBlend="FALSE">
						<masterclipid>masterclip-67</masterclipid>
						<name>AA297201.MXFKam AMoser Multi</name>
						<enabled>TRUE</enabled>
						<duration>201355</duration>
						<rate>
							<timebase>25</timebase>
							<ntsc>FALSE</ntsc>
						</rate>
						<start>4236</start>
						<end>4368</end>
						<in>69150</in>
						<out>69282</out>
						<sequence id="sequence-14"/>
						<labels>
							<label2>Forest</label2>
						</labels>
					</clipitem>
					<clipitem id="clipitem-345" frameBlend="FALSE">
						<masterclipid>masterclip-67</masterclipid>
						<name>AA297201.MXFKam AMoser Multi</name>
						<enabled>TRUE</enabled>
						<duration>201355</duration>
						<rate>
							<timebase>25</timebase>
							<ntsc>FALSE</ntsc>
						</rate>
						<start>4368</start>
						<end>4579</end>
						<in>69282</in>
						<out>69493</out>
						<sequence id="sequence-12"/>
						<labels>
							<label2>Forest</label2>
						</labels>
					</clipitem>
					<clipitem id="clipitem-346" frameBlend="FALSE">
						<masterclipid>masterclip-67</masterclipid>
						<name>AA297201.MXFKam AMoser Multi</name>
						<enabled>TRUE</enabled>
						<duration>201355</duration>
						<rate>
							<timebase>25</timebase>
							<ntsc>FALSE</ntsc>
						</rate>
						<start>4579</start>
						<end>4686</end>
						<in>69493</in>
						<out>69600</out>
						<sequence id="sequence-14"/>
						<labels>
							<label2>Forest</label2>
						</labels>
					</clipitem>
					<enabled>TRUE</enabled>
					<locked>FALSE</locked>
				</track>
				<track TL.SQTrackShy="0" TL.SQTrackExpandedHeight="35" TL.SQTrackExpanded="1" MZ.TrackTargeted="0">
					<clipitem id="clipitem-347" frameBlend="FALSE">
						<masterclipid>masterclip-81</masterclipid>
						<name>kavli-071014-st-018.MXF</name>
						<enabled>TRUE</enabled>
						<duration>2900</duration>
						<rate>
							<timebase>25</timebase>
							<ntsc>FALSE</ntsc>
						</rate>
						<start>2254</start>
						<end>2333</end>
						<in>1613</in>
						<out>1692</out>
						<alphatype>none</alphatype>
						<pixelaspectratio>PAL-601</pixelaspectratio>
						<anamorphic>TRUE</anamorphic>
						<file id="file-73">
							<name>kavli-071014-st-018.MXF</name>
							<pathurl>file://localhost/Volumes/Brakka/AdobeLager/Katta/Katta-141009-Moser-WIK/02-Video/Cathrine/kavli-071014-st-018.MXF</pathurl>
							<rate>
								<timebase>25</timebase>
								<ntsc>FALSE</ntsc>
							</rate>
							<duration>2900</duration>
							<timecode>
								<rate>
									<timebase>25</timebase>
									<ntsc>FALSE</ntsc>
								</rate>
								<string>02:13:25:20</string>
								<frame>200145</frame>
								<displayformat>NDF</displayformat>
								<reel>
									<name></name>
								</reel>
							</timecode>
							<media>
								<video>
									<duration>18000</duration>
									<samplecharacteristics>
										<rate>
											<timebase>25</timebase>
											<ntsc>FALSE</ntsc>
										</rate>
										<width>720</width>
										<height>576</height>
										<anamorphic>TRUE</anamorphic>
										<pixelaspectratio>PAL-601</pixelaspectratio>
										<fielddominance>upper</fielddominance>
									</samplecharacteristics>
								</video>
								<audio>
									<samplecharacteristics>
										<depth>16</depth>
										<samplerate>48000</samplerate>
									</samplecharacteristics>
									<channelcount>1</channelcount>
									<layout>mono</layout>
									<audiochannel>
										<sourcechannel>1</sourcechannel>
										<channellabel>discrete</channellabel>
									</audiochannel>
								</audio>
								<audio>
									<samplecharacteristics>
										<depth>16</depth>
										<samplerate>48000</samplerate>
									</samplecharacteristics>
									<channelcount>1</channelcount>
									<layout>mono</layout>
									<audiochannel>
										<sourcechannel>2</sourcechannel>
										<channellabel>discrete</channellabel>
									</audiochannel>
								</audio>
							</media>
						</file>
							<filter>
								<effect>
									<name>Basic Motion</name>
									<effectid>basic</effectid>
									<effectcategory>motion</effectcategory>
									<effecttype>motion</effecttype>
									<mediatype>video</mediatype>
									<parameter authoringApp="PremierePro">
										<parameterid>scale</parameterid>
										<name>Scale</name>
										<valuemin>0</valuemin>
										<valuemax>1000</valuemax>
										<value>104</value>
									</parameter>
									<parameter authoringApp="PremierePro">
										<parameterid>rotation</parameterid>
										<name>Rotation</name>
										<valuemin>-8640</valuemin>
										<valuemax>8640</valuemax>
										<value>0</value>
									</parameter>
									<parameter authoringApp="PremierePro">
										<parameterid>center</parameterid>
										<name>Center</name>
										<value>
											<horiz>0</horiz>
											<vert>0</vert>
										</value>
									</parameter>
									<parameter authoringApp="PremierePro">
										<parameterid>centerOffset</parameterid>
										<name>Anchor Point</name>
										<value>
											<horiz>0</horiz>
											<vert>0</vert>
										</value>
									</parameter>
								</effect>
							</filter>
							<filter>
								<effect>
									<name>Distort</name>
									<effectid>deformation</effectid>
									<effectcategory>motion</effectcategory>
									<effecttype>motion</effecttype>
									<mediatype>video</mediatype>
									<parameter authoringApp="PremierePro">
										<parameterid>aspect</parameterid>
										<name>Aspect</name>
										<valuemin>-10000</valuemin>
										<valuemax>10000</valuemax>
										<value>-45.8689</value>
									</parameter>
								</effect>
							</filter>
						<link>
							<linkclipref>clipitem-347</linkclipref>
							<mediatype>video</mediatype>
							<trackindex>2</trackindex>
							<clipindex>1</clipindex>
						</link>
						<link>
							<linkclipref>clipitem-393</linkclipref>
							<mediatype>audio</mediatype>
							<trackindex>5</trackindex>
							<clipindex>1</clipindex>
						</link>
						<link>
							<linkclipref>clipitem-394</linkclipref>
							<mediatype>audio</mediatype>
							<trackindex>6</trackindex>
							<clipindex>1</clipindex>
							<groupindex>1</groupindex>
						</link>
						<logginginfo>
							<description></description>
							<scene></scene>
							<shottake></shottake>
							<lognote></lognote>
						</logginginfo>
						<labels>
							<label2>Iris</label2>
						</labels>
					</clipitem>
					<clipitem id="clipitem-348" frameBlend="FALSE">
						<masterclipid>masterclip-82</masterclipid>
						<name>May-Britt and Edvard Moser – Winner of the Körber European Science Prize 2014.mp4</name>
						<enabled>TRUE</enabled>
						<duration>14225</duration>
						<rate>
							<timebase>25</timebase>
							<ntsc>FALSE</ntsc>
						</rate>
						<start>2333</start>
						<end>2521</end>
						<in>8769</in>
						<out>8957</out>
						<alphatype>black</alphatype>
						<pixelaspectratio>square</pixelaspectratio>
						<anamorphic>FALSE</anamorphic>
						<file id="file-74">
							<name>May-Britt and Edvard Moser – Winner of the Körber European Science Prize 2014.mp4</name>
							<pathurl>file://localhost/Volumes/Brakka/AdobeLager/Katta/Katta-141009-Moser-WIK/02-Video/Cathrine/May-Britt%20and%20Edvard%20Moser%20%e2%80%93%20Winner%20of%20the%20Ko%cc%88rber%20European%20Science%20Prize%202014.mp4</pathurl>
							<rate>
								<timebase>25</timebase>
								<ntsc>FALSE</ntsc>
							</rate>
							<duration>14225</duration>
							<timecode>
								<rate>
									<timebase>25</timebase>
									<ntsc>FALSE</ntsc>
								</rate>
								<string>00:00:00:00</string>
								<frame>0</frame>
								<displayformat>NDF</displayformat>
								<reel>
									<name></name>
								</reel>
							</timecode>
							<media>
								<video>
									<duration>18000</duration>
									<samplecharacteristics>
										<rate>
											<timebase>25</timebase>
											<ntsc>FALSE</ntsc>
										</rate>
										<width>854</width>
										<height>480</height>
										<anamorphic>FALSE</anamorphic>
										<pixelaspectratio>square</pixelaspectratio>
										<fielddominance>none</fielddominance>
									</samplecharacteristics>
								</video>
								<audio>
									<samplecharacteristics>
										<depth>16</depth>
										<samplerate>44100</samplerate>
									</samplecharacteristics>
									<channelcount>2</channelcount>
								</audio>
							</media>
						</file>
						<logginginfo>
							<description></description>
							<scene></scene>
							<shottake></shottake>
							<lognote></lognote>
						</logginginfo>
						<labels>
							<label2>Iris</label2>
						</labels>
					</clipitem>
					<enabled>TRUE</enabled>
					<locked>FALSE</locked>
				</track>
				<track TL.SQTrackShy="0" TL.SQTrackExpandedHeight="155" TL.SQTrackExpanded="1" MZ.TrackTargeted="0">
					<clipitem id="clipitem-349" frameBlend="FALSE">
						<masterclipid>masterclip-83</masterclipid>
						<name>rottefirkant.mov</name>
						<enabled>TRUE</enabled>
						<duration>625</duration>
						<rate>
							<timebase>25</timebase>
							<ntsc>FALSE</ntsc>
						</rate>
						<start>1672</start>
						<end>2142</end>
						<in>39</in>
						<out>509</out>
						<alphatype>none</alphatype>
						<pixelaspectratio>square</pixelaspectratio>
						<anamorphic>FALSE</anamorphic>
						<file id="file-75">
							<name>rottefirkant.mov</name>
							<pathurl>file://localhost/Volumes/Brakka/AdobeLager/Katta/Katta-141009-Moser-WIK/04-Grafikk/ut/rottefirkant.mov</pathurl>
							<rate>
								<timebase>25</timebase>
								<ntsc>FALSE</ntsc>
							</rate>
							<duration>625</duration>
							<timecode>
								<rate>
									<timebase>25</timebase>
									<ntsc>FALSE</ntsc>
								</rate>
								<string>00:00:00:00</string>
								<frame>0</frame>
								<displayformat>NDF</displayformat>
								<reel>
									<name></name>
								</reel>
							</timecode>
							<media>
								<video>
									<duration>18000</duration>
									<samplecharacteristics>
										<rate>
											<timebase>25</timebase>
											<ntsc>FALSE</ntsc>
										</rate>
										<width>1920</width>
										<height>1080</height>
										<anamorphic>FALSE</anamorphic>
										<pixelaspectratio>square</pixelaspectratio>
										<fielddominance>upper</fielddominance>
									</samplecharacteristics>
								</video>
							</media>
						</file>
						<logginginfo>
							<description></description>
							<scene></scene>
							<shottake></shottake>
							<lognote></lognote>
						</logginginfo>
						<labels>
							<label2>Violet</label2>
						</labels>
					</clipitem>
					<enabled>TRUE</enabled>
					<locked>FALSE</locked>
				</track>
			</video>
			<audio>
				<format>
					<samplecharacteristics>
						<depth>16</depth>
						<samplerate>48000</samplerate>
					</samplecharacteristics>
				</format>
				<outputs>
					<group>
						<index>1</index>
						<numchannels>1</numchannels>
						<downmix>0</downmix>
						<channel>
							<index>1</index>
						</channel>
					</group>
					<group>
						<index>2</index>
						<numchannels>1</numchannels>
						<downmix>0</downmix>
						<channel>
							<index>2</index>
						</channel>
					</group>
					<group>
						<index>3</index>
						<numchannels>1</numchannels>
						<downmix>0</downmix>
						<channel>
							<index>3</index>
						</channel>
					</group>
					<group>
						<index>4</index>
						<numchannels>1</numchannels>
						<downmix>0</downmix>
						<channel>
							<index>4</index>
						</channel>
					</group>
				</outputs>
				<track monotrack="TRUE" TL.SQTrackAudioKeyframeStyle="0" TL.SQTrackShy="0" TL.SQTrackExpandedHeight="65" TL.SQTrackExpanded="1" MZ.TrackTargeted="1" MZ.TrackName="sync 1 mono" PannerCurrentValue="0.5" PannerIsInverted="true" PannerStartKeyframe="-91445760000000000,0.5,0,0,0,0,0,0" PannerName="Pan" currentExplodedTrackIndex="0" totalExplodedTrackCount="2" premiereTrackType="Mono">
					<clipitem id="clipitem-350" frameBlend="FALSE">
						<masterclipid>masterclip-65</masterclipid>
						<name>Koerber-Preis_2014_EPK_1080p_rgb.mov</name>
						<enabled>TRUE</enabled>
						<duration>29855</duration>
						<rate>
							<timebase>25</timebase>
							<ntsc>FALSE</ntsc>
						</rate>
						<start>0</start>
						<end>116</end>
						<in>3739</in>
						<out>3855</out>
						<file id="file-61"/>
						<sourcetrack>
							<mediatype>audio</mediatype>
							<trackindex>1</trackindex>
						</sourcetrack>
							<filter>
								<effect>
									<name>Audio Levels</name>
									<effectid>audiolevels</effectid>
									<effectcategory>audiolevels</effectcategory>
									<effecttype>audiolevels</effecttype>
									<mediatype>audio</mediatype>
									<parameter authoringApp="PremierePro">
										<parameterid>level</parameterid>
										<name>Level</name>
										<valuemin>0</valuemin>
										<valuemax>3.98109</valuemax>
										<value>0.318393</value>
									</parameter>
								</effect>
							</filter>
						<link>
							<linkclipref>clipitem-282</linkclipref>
							<mediatype>video</mediatype>
							<trackindex>1</trackindex>
							<clipindex>1</clipindex>
						</link>
						<link>
							<linkclipref>clipitem-350</linkclipref>
							<mediatype>audio</mediatype>
							<trackindex>1</trackindex>
							<clipindex>1</clipindex>
						</link>
						<link>
							<linkclipref>clipitem-368</linkclipref>
							<mediatype>audio</mediatype>
							<trackindex>2</trackindex>
							<clipindex>1</clipindex>
						</link>
						<logginginfo>
							<description></description>
							<scene></scene>
							<shottake></shottake>
							<lognote></lognote>
						</logginginfo>
						<labels>
							<label2>Iris</label2>
						</labels>
					</clipitem>
					<clipitem id="clipitem-351" frameBlend="FALSE">
						<masterclipid>masterclip-65</masterclipid>
						<name>Koerber-Preis_2014_EPK_1080p_rgb.mov</name>
						<enabled>TRUE</enabled>
						<duration>29855</duration>
						<rate>
							<timebase>25</timebase>
							<ntsc>FALSE</ntsc>
						</rate>
						<start>116</start>
						<end>223</end>
						<in>4021</in>
						<out>4128</out>
						<file id="file-61"/>
						<sourcetrack>
							<mediatype>audio</mediatype>
							<trackindex>1</trackindex>
						</sourcetrack>
							<filter>
								<effect>
									<name>Audio Levels</name>
									<effectid>audiolevels</effectid>
									<effectcategory>audiolevels</effectcategory>
									<effecttype>audiolevels</effecttype>
									<mediatype>audio</mediatype>
									<parameter authoringApp="PremierePro">
										<parameterid>level</parameterid>
										<name>Level</name>
										<valuemin>0</valuemin>
										<valuemax>3.98109</valuemax>
										<value>0.27594</value>
									</parameter>
								</effect>
							</filter>
						<link>
							<linkclipref>clipitem-283</linkclipref>
							<mediatype>video</mediatype>
							<trackindex>1</trackindex>
							<clipindex>2</clipindex>
						</link>
						<link>
							<linkclipref>clipitem-351</linkclipref>
							<mediatype>audio</mediatype>
							<trackindex>1</trackindex>
							<clipindex>2</clipindex>
						</link>
						<link>
							<linkclipref>clipitem-369</linkclipref>
							<mediatype>audio</mediatype>
							<trackindex>2</trackindex>
							<clipindex>2</clipindex>
						</link>
						<logginginfo>
							<description></description>
							<scene></scene>
							<shottake></shottake>
							<lognote></lognote>
						</logginginfo>
						<labels>
							<label2>Iris</label2>
						</labels>
					</clipitem>
					<clipitem id="clipitem-352" frameBlend="FALSE">
						<masterclipid>masterclip-66</masterclipid>
						<name>Teleportering-071014-f_p0.mxf</name>
						<enabled>TRUE</enabled>
						<duration>11228</duration>
						<rate>
							<timebase>25</timebase>
							<ntsc>FALSE</ntsc>
						</rate>
						<start>444</start>
						<end>505</end>
						<in>2793</in>
						<out>2854</out>
						<file id="file-62"/>
						<sourcetrack>
							<mediatype>audio</mediatype>
							<trackindex>3</trackindex>
						</sourcetrack>
							<filter>
								<effect>
									<name>Audio Levels</name>
									<effectid>audiolevels</effectid>
									<effectcategory>audiolevels</effectcategory>
									<effecttype>audiolevels</effecttype>
									<mediatype>audio</mediatype>
									<parameter authoringApp="PremierePro">
										<parameterid>level</parameterid>
										<name>Level</name>
										<valuemin>0</valuemin>
										<valuemax>3.98109</valuemax>
										<value>0.0424523</value>
									</parameter>
								</effect>
							</filter>
						<link>
							<linkclipref>clipitem-285</linkclipref>
							<mediatype>video</mediatype>
							<trackindex>1</trackindex>
							<clipindex>4</clipindex>
						</link>
						<link>
							<linkclipref>clipitem-352</linkclipref>
							<mediatype>audio</mediatype>
							<trackindex>1</trackindex>
							<clipindex>3</clipindex>
						</link>
						<link>
							<linkclipref>clipitem-370</linkclipref>
							<mediatype>audio</mediatype>
							<trackindex>2</trackindex>
							<clipindex>3</clipindex>
						</link>
						<logginginfo>
							<description></description>
							<scene></scene>
							<shottake></shottake>
							<lognote></lognote>
						</logginginfo>
						<labels>
							<label2>Iris</label2>
						</labels>
					</clipitem>
					<clipitem id="clipitem-353" frameBlend="FALSE">
						<masterclipid>masterclip-66</masterclipid>
						<name>Teleportering-071014-f_p0.mxf</name>
						<enabled>TRUE</enabled>
						<duration>11228</duration>
						<rate>
							<timebase>25</timebase>
							<ntsc>FALSE</ntsc>
						</rate>
						<start>505</start>
						<end>573</end>
						<in>2702</in>
						<out>2770</out>
						<file id="file-62"/>
						<sourcetrack>
							<mediatype>audio</mediatype>
							<trackindex>3</trackindex>
						</sourcetrack>
							<filter>
								<effect>
									<name>Audio Levels</name>
									<effectid>audiolevels</effectid>
									<effectcategory>audiolevels</effectcategory>
									<effecttype>audiolevels</effecttype>
									<mediatype>audio</mediatype>
									<parameter authoringApp="PremierePro">
										<parameterid>level</parameterid>
										<name>Level</name>
										<valuemin>0</valuemin>
										<valuemax>3.98109</valuemax>
										<value>0.0636785</value>
									</parameter>
								</effect>
							</filter>
						<link>
							<linkclipref>clipitem-286</linkclipref>
							<mediatype>video</mediatype>
							<trackindex>1</trackindex>
							<clipindex>5</clipindex>
						</link>
						<link>
							<linkclipref>clipitem-353</linkclipref>
							<mediatype>audio</mediatype>
							<trackindex>1</trackindex>
							<clipindex>4</clipindex>
						</link>
						<link>
							<linkclipref>clipitem-371</linkclipref>
							<mediatype>audio</mediatype>
							<trackindex>2</trackindex>
							<clipindex>4</clipindex>
						</link>
						<logginginfo>
							<description></description>
							<scene></scene>
							<shottake></shottake>
							<lognote></lognote>
						</logginginfo>
						<labels>
							<label2>Iris</label2>
						</labels>
					</clipitem>
					<clipitem id="clipitem-354" frameBlend="FALSE">
						<masterclipid>masterclip-65</masterclipid>
						<name>Koerber-Preis_2014_EPK_1080p_rgb.mov</name>
						<enabled>TRUE</enabled>
						<duration>29855</duration>
						<rate>
							<timebase>25</timebase>
							<ntsc>FALSE</ntsc>
						</rate>
						<start>573</start>
						<end>625</end>
						<in>12864</in>
						<out>12916</out>
						<file id="file-61"/>
						<sourcetrack>
							<mediatype>audio</mediatype>
							<trackindex>1</trackindex>
						</sourcetrack>
							<filter>
								<effect>
									<name>Audio Levels</name>
									<effectid>audiolevels</effectid>
									<effectcategory>audiolevels</effectcategory>
									<effecttype>audiolevels</effecttype>
									<mediatype>audio</mediatype>
									<parameter authoringApp="PremierePro">
										<parameterid>level</parameterid>
										<name>Level</name>
										<valuemin>0</valuemin>
										<valuemax>3.98109</valuemax>
										<value>0.106131</value>
									</parameter>
								</effect>
							</filter>
						<link>
							<linkclipref>clipitem-287</linkclipref>
							<mediatype>video</mediatype>
							<trackindex>1</trackindex>
							<clipindex>6</clipindex>
						</link>
						<link>
							<linkclipref>clipitem-354</linkclipref>
							<mediatype>audio</mediatype>
							<trackindex>1</trackindex>
							<clipindex>5</clipindex>
						</link>
						<link>
							<linkclipref>clipitem-372</linkclipref>
							<mediatype>audio</mediatype>
							<trackindex>2</trackindex>
							<clipindex>5</clipindex>
						</link>
						<logginginfo>
							<description></description>
							<scene></scene>
							<shottake></shottake>
							<lognote></lognote>
						</logginginfo>
						<labels>
							<label2>Iris</label2>
						</labels>
					</clipitem>
					<clipitem id="clipitem-355" frameBlend="FALSE">
						<masterclipid>masterclip-65</masterclipid>
						<name>Koerber-Preis_2014_EPK_1080p_rgb.mov</name>
						<enabled>TRUE</enabled>
						<duration>29855</duration>
						<rate>
							<timebase>25</timebase>
							<ntsc>FALSE</ntsc>
						</rate>
						<start>625</start>
						<end>665</end>
						<in>13277</in>
						<out>13317</out>
						<file id="file-61"/>
						<sourcetrack>
							<mediatype>audio</mediatype>
							<trackindex>1</trackindex>
						</sourcetrack>
							<filter>
								<effect>
									<name>Audio Levels</name>
									<effectid>audiolevels</effectid>
									<effectcategory>audiolevels</effectcategory>
									<effecttype>audiolevels</effecttype>
									<mediatype>audio</mediatype>
									<parameter authoringApp="PremierePro">
										<parameterid>level</parameterid>
										<name>Level</name>
										<valuemin>0</valuemin>
										<valuemax>3.98109</valuemax>
										<value>0.0636785</value>
									</parameter>
								</effect>
							</filter>
						<link>
							<linkclipref>clipitem-288</linkclipref>
							<mediatype>video</mediatype>
							<trackindex>1</trackindex>
							<clipindex>7</clipindex>
						</link>
						<link>
							<linkclipref>clipitem-355</linkclipref>
							<mediatype>audio</mediatype>
							<trackindex>1</trackindex>
							<clipindex>6</clipindex>
						</link>
						<link>
							<linkclipref>clipitem-373</linkclipref>
							<mediatype>audio</mediatype>
							<trackindex>2</trackindex>
							<clipindex>6</clipindex>
						</link>
						<logginginfo>
							<description></description>
							<scene></scene>
							<shottake></shottake>
							<lognote></lognote>
						</logginginfo>
						<labels>
							<label2>Iris</label2>
						</labels>
					</clipitem>
					<clipitem id="clipitem-356" frameBlend="FALSE">
						<masterclipid>masterclip-68</masterclipid>
						<name>AA297201.MXFKam A</name>
						<enabled>TRUE</enabled>
						<duration>201318</duration>
						<rate>
							<timebase>25</timebase>
							<ntsc>FALSE</ntsc>
						</rate>
						<start>665</start>
						<end>760</end>
						<in>64567</in>
						<out>64662</out>
						<sequence id="sequence-13"/>
						<link>
							<linkclipref>clipitem-356</linkclipref>
							<mediatype>audio</mediatype>
							<trackindex>1</trackindex>
							<clipindex>7</clipindex>
						</link>
						<link>
							<linkclipref>clipitem-379</linkclipref>
							<mediatype>audio</mediatype>
							<trackindex>3</trackindex>
							<clipindex>1</clipindex>
						</link>
						<labels>
							<label2>Forest</label2>
						</labels>
					</clipitem>
					<clipitem id="clipitem-357" frameBlend="FALSE">
						<masterclipid>masterclip-68</masterclipid>
						<name>AA297201.MXFKam A</name>
						<enabled>TRUE</enabled>
						<duration>201318</duration>
						<rate>
							<timebase>25</timebase>
							<ntsc>FALSE</ntsc>
						</rate>
						<start>760</start>
						<end>1109</end>
						<in>64662</in>
						<out>65011</out>
						<sequence id="sequence-13"/>
						<labels>
							<label2>Forest</label2>
						</labels>
					</clipitem>
					<clipitem id="clipitem-358" frameBlend="FALSE">
						<masterclipid>masterclip-66</masterclipid>
						<name>Teleportering-071014-f_p0.mxf</name>
						<enabled>TRUE</enabled>
						<duration>11228</duration>
						<rate>
							<timebase>25</timebase>
							<ntsc>FALSE</ntsc>
						</rate>
						<start>1305</start>
						<end>1489</end>
						<in>4446</in>
						<out>4630</out>
						<file id="file-62"/>
						<sourcetrack>
							<mediatype>audio</mediatype>
							<trackindex>3</trackindex>
						</sourcetrack>
							<filter>
								<effect>
									<name>Audio Levels</name>
									<effectid>audiolevels</effectid>
									<effectcategory>audiolevels</effectcategory>
									<effecttype>audiolevels</effecttype>
									<mediatype>audio</mediatype>
									<parameter authoringApp="PremierePro">
										<parameterid>level</parameterid>
										<name>Level</name>
										<valuemin>0</valuemin>
										<valuemax>3.98109</valuemax>
										<value>0</value>
									</parameter>
								</effect>
							</filter>
						<link>
							<linkclipref>clipitem-327</linkclipref>
							<mediatype>video</mediatype>
							<trackindex>1</trackindex>
							<clipindex>12</clipindex>
						</link>
						<link>
							<linkclipref>clipitem-358</linkclipref>
							<mediatype>audio</mediatype>
							<trackindex>1</trackindex>
							<clipindex>9</clipindex>
						</link>
						<link>
							<linkclipref>clipitem-374</linkclipref>
							<mediatype>audio</mediatype>
							<trackindex>2</trackindex>
							<clipindex>7</clipindex>
						</link>
						<logginginfo>
							<description></description>
							<scene></scene>
							<shottake></shottake>
							<lognote></lognote>
						</logginginfo>
						<labels>
							<label2>Iris</label2>
						</labels>
					</clipitem>
					<clipitem id="clipitem-359" frameBlend="FALSE">
						<masterclipid>masterclip-66</masterclipid>
						<name>Teleportering-071014-f_p0.mxf</name>
						<enabled>TRUE</enabled>
						<duration>11228</duration>
						<rate>
							<timebase>25</timebase>
							<ntsc>FALSE</ntsc>
						</rate>
						<start>1489</start>
						<end>1549</end>
						<in>6056</in>
						<out>6116</out>
						<file id="file-62"/>
						<sourcetrack>
							<mediatype>audio</mediatype>
							<trackindex>3</trackindex>
						</sourcetrack>
							<filter>
								<effect>
									<name>Audio Levels</name>
									<effectid>audiolevels</effectid>
									<effectcategory>audiolevels</effectcategory>
									<effecttype>audiolevels</effecttype>
									<mediatype>audio</mediatype>
									<parameter authoringApp="PremierePro">
										<parameterid>level</parameterid>
										<name>Level</name>
										<valuemin>0</valuemin>
										<valuemax>3.98109</valuemax>
										<value>0</value>
										<keyframe>
											<when>6070</when>
											<value>0</value>
										</keyframe>
										<keyframe>
											<when>6076</when>
											<value>0</value>
										</keyframe>
									</parameter>
								</effect>
							</filter>
						<link>
							<linkclipref>clipitem-328</linkclipref>
							<mediatype>video</mediatype>
							<trackindex>1</trackindex>
							<clipindex>13</clipindex>
						</link>
						<link>
							<linkclipref>clipitem-359</linkclipref>
							<mediatype>audio</mediatype>
							<trackindex>1</trackindex>
							<clipindex>10</clipindex>
						</link>
						<link>
							<linkclipref>clipitem-375</linkclipref>
							<mediatype>audio</mediatype>
							<trackindex>2</trackindex>
							<clipindex>8</clipindex>
						</link>
						<logginginfo>
							<description></description>
							<scene></scene>
							<shottake></shottake>
							<lognote></lognote>
						</logginginfo>
						<labels>
							<label2>Iris</label2>
						</labels>
					</clipitem>
					<clipitem id="clipitem-360" frameBlend="FALSE">
						<masterclipid>masterclip-66</masterclipid>
						<name>Teleportering-071014-f_p0.mxf</name>
						<enabled>TRUE</enabled>
						<duration>11228</duration>
						<rate>
							<timebase>25</timebase>
							<ntsc>FALSE</ntsc>
						</rate>
						<start>1549</start>
						<end>1614</end>
						<in>6148</in>
						<out>6213</out>
						<file id="file-62"/>
						<sourcetrack>
							<mediatype>audio</mediatype>
							<trackindex>3</trackindex>
						</sourcetrack>
							<filter>
								<effect>
									<name>Audio Levels</name>
									<effectid>audiolevels</effectid>
									<effectcategory>audiolevels</effectcategory>
									<effecttype>audiolevels</effecttype>
									<mediatype>audio</mediatype>
									<parameter authoringApp="PremierePro">
										<parameterid>level</parameterid>
										<name>Level</name>
										<valuemin>0</valuemin>
										<valuemax>3.98109</valuemax>
										<value>0</value>
									</parameter>
								</effect>
							</filter>
						<link>
							<linkclipref>clipitem-329</linkclipref>
							<mediatype>video</mediatype>
							<trackindex>1</trackindex>
							<clipindex>14</clipindex>
						</link>
						<link>
							<linkclipref>clipitem-360</linkclipref>
							<mediatype>audio</mediatype>
							<trackindex>1</trackindex>
							<clipindex>11</clipindex>
						</link>
						<link>
							<linkclipref>clipitem-376</linkclipref>
							<mediatype>audio</mediatype>
							<trackindex>2</trackindex>
							<clipindex>9</clipindex>
						</link>
						<logginginfo>
							<description></description>
							<scene></scene>
							<shottake></shottake>
							<lognote></lognote>
						</logginginfo>
						<labels>
							<label2>Iris</label2>
						</labels>
					</clipitem>
					<clipitem id="clipitem-361" frameBlend="FALSE">
						<masterclipid>masterclip-66</masterclipid>
						<name>Teleportering-071014-f_p0.mxf</name>
						<enabled>TRUE</enabled>
						<duration>11228</duration>
						<rate>
							<timebase>25</timebase>
							<ntsc>FALSE</ntsc>
						</rate>
						<start>1614</start>
						<end>1672</end>
						<in>5667</in>
						<out>5725</out>
						<file id="file-62"/>
						<sourcetrack>
							<mediatype>audio</mediatype>
							<trackindex>3</trackindex>
						</sourcetrack>
							<filter>
								<effect>
									<name>Audio Levels</name>
									<effectid>audiolevels</effectid>
									<effectcategory>audiolevels</effectcategory>
									<effecttype>audiolevels</effecttype>
									<mediatype>audio</mediatype>
									<parameter authoringApp="PremierePro">
										<parameterid>level</parameterid>
										<name>Level</name>
										<valuemin>0</valuemin>
										<valuemax>3.98109</valuemax>
										<value>0</value>
									</parameter>
								</effect>
							</filter>
						<link>
							<linkclipref>clipitem-330</linkclipref>
							<mediatype>video</mediatype>
							<trackindex>1</trackindex>
							<clipindex>15</clipindex>
						</link>
						<link>
							<linkclipref>clipitem-361</linkclipref>
							<mediatype>audio</mediatype>
							<trackindex>1</trackindex>
							<clipindex>12</clipindex>
						</link>
						<link>
							<linkclipref>clipitem-377</linkclipref>
							<mediatype>audio</mediatype>
							<trackindex>2</trackindex>
							<clipindex>10</clipindex>
						</link>
						<logginginfo>
							<description></description>
							<scene></scene>
							<shottake></shottake>
							<lognote></lognote>
						</logginginfo>
						<labels>
							<label2>Iris</label2>
						</labels>
					</clipitem>
					<clipitem id="clipitem-362" frameBlend="FALSE">
						<masterclipid>masterclip-68</masterclipid>
						<name>AA297201.MXFKam A</name>
						<enabled>TRUE</enabled>
						<duration>201318</duration>
						<rate>
							<timebase>25</timebase>
							<ntsc>FALSE</ntsc>
						</rate>
						<start>1971</start>
						<end>-1</end>
						<in>67812</in>
						<out>68137</out>
						<sequence id="sequence-13"/>
						<link>
							<linkclipref>clipitem-362</linkclipref>
							<mediatype>audio</mediatype>
							<trackindex>1</trackindex>
							<clipindex>13</clipindex>
						</link>
						<link>
							<linkclipref>clipitem-381</linkclipref>
							<mediatype>audio</mediatype>
							<trackindex>3</trackindex>
							<clipindex>3</clipindex>
						</link>
						<labels>
							<label2>Forest</label2>
						</labels>
					</clipitem>
					<transitionitem>
						<start>2293</start>
						<end>2296</end>
						<alignment>center</alignment>
						<cutPoint>1</cutPoint>
						<rate>
							<timebase>25</timebase>
							<ntsc>FALSE</ntsc>
						</rate>
						<effect>
							<name>Cross Fade (+3dB)</name>
							<effectid>KGAudioTransCrossFade3dB</effectid>
							<effecttype>transition</effecttype>
							<mediatype>audio</mediatype>
							<wipecode>0</wipecode>
							<wipeaccuracy>100</wipeaccuracy>
							<startratio>0</startratio>
							<endratio>1</endratio>
							<reverse>FALSE</reverse>
						</effect>
					</transitionitem>
					<clipitem id="clipitem-363" frameBlend="FALSE">
						<masterclipid>masterclip-68</masterclipid>
						<name>AA297201.MXFKam A</name>
						<enabled>TRUE</enabled>
						<duration>201318</duration>
						<rate>
							<timebase>25</timebase>
							<ntsc>FALSE</ntsc>
						</rate>
						<start>-1</start>
						<end>2515</end>
						<in>68159</in>
						<out>68381</out>
						<sequence id="sequence-13"/>
						<link>
							<linkclipref>clipitem-363</linkclipref>
							<mediatype>audio</mediatype>
							<trackindex>1</trackindex>
							<clipindex>15</clipindex>
						</link>
						<link>
							<linkclipref>clipitem-382</linkclipref>
							<mediatype>audio</mediatype>
							<trackindex>3</trackindex>
							<clipindex>5</clipindex>
						</link>
						<labels>
							<label2>Forest</label2>
						</labels>
					</clipitem>
					<clipitem id="clipitem-364" frameBlend="FALSE">
						<masterclipid>masterclip-68</masterclipid>
						<name>AA297201.MXFKam A</name>
						<enabled>TRUE</enabled>
						<duration>201318</duration>
						<rate>
							<timebase>25</timebase>
							<ntsc>FALSE</ntsc>
						</rate>
						<start>2515</start>
						<end>-1</end>
						<in>76345</in>
						<out>76594</out>
						<sequence id="sequence-13"/>
						<link>
							<linkclipref>clipitem-364</linkclipref>
							<mediatype>audio</mediatype>
							<trackindex>1</trackindex>
							<clipindex>16</clipindex>
						</link>
						<link>
							<linkclipref>clipitem-383</linkclipref>
							<mediatype>audio</mediatype>
							<trackindex>3</trackindex>
							<clipindex>6</clipindex>
						</link>
						<labels>
							<label2>Forest</label2>
						</labels>
					</clipitem>
					<transitionitem>
						<start>2761</start>
						<end>2764</end>
						<alignment>center</alignment>
						<cutPoint>1</cutPoint>
						<rate>
							<timebase>25</timebase>
							<ntsc>FALSE</ntsc>
						</rate>
						<effect>
							<name>Cross Fade (+3dB)</name>
							<effectid>KGAudioTransCrossFade3dB</effectid>
							<effecttype>transition</effecttype>
							<mediatype>audio</mediatype>
							<wipecode>0</wipecode>
							<wipeaccuracy>100</wipeaccuracy>
							<startratio>0</startratio>
							<endratio>1</endratio>
							<reverse>FALSE</reverse>
						</effect>
					</transitionitem>
					<clipitem id="clipitem-365" frameBlend="FALSE">
						<masterclipid>masterclip-68</masterclipid>
						<name>AA297201.MXFKam A</name>
						<enabled>TRUE</enabled>
						<duration>201318</duration>
						<rate>
							<timebase>25</timebase>
							<ntsc>FALSE</ntsc>
						</rate>
						<start>-1</start>
						<end>3130</end>
						<in>74108</in>
						<out>74477</out>
						<sequence id="sequence-13"/>
						<link>
							<linkclipref>clipitem-365</linkclipref>
							<mediatype>audio</mediatype>
							<trackindex>1</trackindex>
							<clipindex>18</clipindex>
						</link>
						<link>
							<linkclipref>clipitem-384</linkclipref>
							<mediatype>audio</mediatype>
							<trackindex>3</trackindex>
							<clipindex>8</clipindex>
						</link>
						<labels>
							<label2>Forest</label2>
						</labels>
					</clipitem>
					<clipitem id="clipitem-366" frameBlend="FALSE">
						<masterclipid>masterclip-66</masterclipid>
						<name>Teleportering-071014-f_p0.mxf</name>
						<enabled>TRUE</enabled>
						<duration>11228</duration>
						<rate>
							<timebase>25</timebase>
							<ntsc>FALSE</ntsc>
						</rate>
						<start>3230</start>
						<end>3588</end>
						<in>8048</in>
						<out>8406</out>
						<file id="file-62"/>
						<sourcetrack>
							<mediatype>audio</mediatype>
							<trackindex>3</trackindex>
						</sourcetrack>
							<filter>
								<effect>
									<name>Audio Levels</name>
									<effectid>audiolevels</effectid>
									<effectcategory>audiolevels</effectcategory>
									<effecttype>audiolevels</effecttype>
									<mediatype>audio</mediatype>
									<parameter authoringApp="PremierePro">
										<parameterid>level</parameterid>
										<name>Level</name>
										<valuemin>0</valuemin>
										<valuemax>3.98109</valuemax>
										<value>0.0183562</value>
										<keyframe>
											<when>8086</when>
											<value>0.0212262</value>
										</keyframe>
										<keyframe>
											<when>8094</when>
											<value>0.99763</value>
										</keyframe>
										<keyframe>
											<when>8157</when>
											<value>0.99763</value>
										</keyframe>
										<keyframe>
											<when>8166</when>
											<value>0.27594</value>
										</keyframe>
										<keyframe>
											<when>8244</when>
											<value>0.27594</value>
										</keyframe>
										<keyframe>
											<when>8257</when>
											<value>0.105014</value>
										</keyframe>
										<keyframe>
											<when>8261</when>
											<value>0</value>
										</keyframe>
										<keyframe>
											<when>8330</when>
											<value>0.0363336</value>
										</keyframe>
										<keyframe>
											<when>8341</when>
											<value>0.105014</value>
										</keyframe>
									</parameter>
								</effect>
							</filter>
						<link>
							<linkclipref>clipitem-338</linkclipref>
							<mediatype>video</mediatype>
							<trackindex>1</trackindex>
							<clipindex>23</clipindex>
						</link>
						<link>
							<linkclipref>clipitem-366</linkclipref>
							<mediatype>audio</mediatype>
							<trackindex>1</trackindex>
							<clipindex>19</clipindex>
						</link>
						<link>
							<linkclipref>clipitem-378</linkclipref>
							<mediatype>audio</mediatype>
							<trackindex>2</trackindex>
							<clipindex>11</clipindex>
						</link>
						<logginginfo>
							<description></description>
							<scene></scene>
							<shottake></shottake>
							<lognote></lognote>
						</logginginfo>
						<labels>
							<label2>Iris</label2>
						</labels>
					</clipitem>
					<clipitem id="clipitem-367" frameBlend="FALSE">
						<masterclipid>masterclip-68</masterclipid>
						<name>AA297201.MXFKam A</name>
						<enabled>TRUE</enabled>
						<duration>201318</duration>
						<rate>
							<timebase>25</timebase>
							<ntsc>FALSE</ntsc>
						</rate>
						<start>3588</start>
						<end>4686</end>
						<in>68465</in>
						<out>69563</out>
						<sequence id="sequence-13"/>
						<link>
							<linkclipref>clipitem-367</linkclipref>
							<mediatype>audio</mediatype>
							<trackindex>1</trackindex>
							<clipindex>20</clipindex>
						</link>
						<link>
							<linkclipref>clipitem-385</linkclipref>
							<mediatype>audio</mediatype>
							<trackindex>3</trackindex>
							<clipindex>9</clipindex>
						</link>
						<labels>
							<label2>Forest</label2>
						</labels>
					</clipitem>
					<enabled>TRUE</enabled>
					<locked>FALSE</locked>
					<outputchannelindex>1</outputchannelindex>
				</track>
				<track monotrack="TRUE" TL.SQTrackAudioKeyframeStyle="0" TL.SQTrackShy="0" TL.SQTrackExpandedHeight="65" TL.SQTrackExpanded="1" MZ.TrackTargeted="1" MZ.TrackName="sync 1 mono" PannerCurrentValue="0.5" PannerIsInverted="true" PannerStartKeyframe="-91445760000000000,0.5,0,0,0,0,0,0" PannerName="Pan" currentExplodedTrackIndex="1" totalExplodedTrackCount="2" premiereTrackType="Mono">
					<clipitem id="clipitem-368" frameBlend="FALSE">
						<masterclipid>masterclip-65</masterclipid>
						<name>Koerber-Preis_2014_EPK_1080p_rgb.mov</name>
						<enabled>TRUE</enabled>
						<duration>29855</duration>
						<rate>
							<timebase>25</timebase>
							<ntsc>FALSE</ntsc>
						</rate>
						<start>0</start>
						<end>116</end>
						<in>3739</in>
						<out>3855</out>
						<file id="file-61"/>
						<sourcetrack>
							<mediatype>audio</mediatype>
							<trackindex>2</trackindex>
						</sourcetrack>
							<filter>
								<effect>
									<name>Audio Levels</name>
									<effectid>audiolevels</effectid>
									<effectcategory>audiolevels</effectcategory>
									<effecttype>audiolevels</effecttype>
									<mediatype>audio</mediatype>
									<parameter authoringApp="PremierePro">
										<parameterid>level</parameterid>
										<name>Level</name>
										<valuemin>0</valuemin>
										<valuemax>3.98109</valuemax>
										<value>0.318393</value>
									</parameter>
								</effect>
							</filter>
						<link>
							<linkclipref>clipitem-282</linkclipref>
							<mediatype>video</mediatype>
							<trackindex>1</trackindex>
							<clipindex>1</clipindex>
						</link>
						<link>
							<linkclipref>clipitem-350</linkclipref>
							<mediatype>audio</mediatype>
							<trackindex>1</trackindex>
							<clipindex>1</clipindex>
						</link>
						<link>
							<linkclipref>clipitem-368</linkclipref>
							<mediatype>audio</mediatype>
							<trackindex>2</trackindex>
							<clipindex>1</clipindex>
						</link>
						<logginginfo>
							<description></description>
							<scene></scene>
							<shottake></shottake>
							<lognote></lognote>
						</logginginfo>
						<labels>
							<label2>Iris</label2>
						</labels>
					</clipitem>
					<clipitem id="clipitem-369" frameBlend="FALSE">
						<masterclipid>masterclip-65</masterclipid>
						<name>Koerber-Preis_2014_EPK_1080p_rgb.mov</name>
						<enabled>TRUE</enabled>
						<duration>29855</duration>
						<rate>
							<timebase>25</timebase>
							<ntsc>FALSE</ntsc>
						</rate>
						<start>116</start>
						<end>223</end>
						<in>4021</in>
						<out>4128</out>
						<file id="file-61"/>
						<sourcetrack>
							<mediatype>audio</mediatype>
							<trackindex>2</trackindex>
						</sourcetrack>
							<filter>
								<effect>
									<name>Audio Levels</name>
									<effectid>audiolevels</effectid>
									<effectcategory>audiolevels</effectcategory>
									<effecttype>audiolevels</effecttype>
									<mediatype>audio</mediatype>
									<parameter authoringApp="PremierePro">
										<parameterid>level</parameterid>
										<name>Level</name>
										<valuemin>0</valuemin>
										<valuemax>3.98109</valuemax>
										<value>0.27594</value>
									</parameter>
								</effect>
							</filter>
						<link>
							<linkclipref>clipitem-283</linkclipref>
							<mediatype>video</mediatype>
							<trackindex>1</trackindex>
							<clipindex>2</clipindex>
						</link>
						<link>
							<linkclipref>clipitem-351</linkclipref>
							<mediatype>audio</mediatype>
							<trackindex>1</trackindex>
							<clipindex>2</clipindex>
						</link>
						<link>
							<linkclipref>clipitem-369</linkclipref>
							<mediatype>audio</mediatype>
							<trackindex>2</trackindex>
							<clipindex>2</clipindex>
						</link>
						<logginginfo>
							<description></description>
							<scene></scene>
							<shottake></shottake>
							<lognote></lognote>
						</logginginfo>
						<labels>
							<label2>Iris</label2>
						</labels>
					</clipitem>
					<clipitem id="clipitem-370" frameBlend="FALSE">
						<masterclipid>masterclip-66</masterclipid>
						<name>Teleportering-071014-f_p0.mxf</name>
						<enabled>TRUE</enabled>
						<duration>11228</duration>
						<rate>
							<timebase>25</timebase>
							<ntsc>FALSE</ntsc>
						</rate>
						<start>444</start>
						<end>505</end>
						<in>2793</in>
						<out>2854</out>
						<file id="file-62"/>
						<sourcetrack>
							<mediatype>audio</mediatype>
							<trackindex>4</trackindex>
						</sourcetrack>
							<filter>
								<effect>
									<name>Audio Levels</name>
									<effectid>audiolevels</effectid>
									<effectcategory>audiolevels</effectcategory>
									<effecttype>audiolevels</effecttype>
									<mediatype>audio</mediatype>
									<parameter authoringApp="PremierePro">
										<parameterid>level</parameterid>
										<name>Level</name>
										<valuemin>0</valuemin>
										<valuemax>3.98109</valuemax>
										<value>0.0424523</value>
									</parameter>
								</effect>
							</filter>
						<link>
							<linkclipref>clipitem-285</linkclipref>
							<mediatype>video</mediatype>
							<trackindex>1</trackindex>
							<clipindex>4</clipindex>
						</link>
						<link>
							<linkclipref>clipitem-352</linkclipref>
							<mediatype>audio</mediatype>
							<trackindex>1</trackindex>
							<clipindex>3</clipindex>
						</link>
						<link>
							<linkclipref>clipitem-370</linkclipref>
							<mediatype>audio</mediatype>
							<trackindex>2</trackindex>
							<clipindex>3</clipindex>
						</link>
						<logginginfo>
							<description></description>
							<scene></scene>
							<shottake></shottake>
							<lognote></lognote>
						</logginginfo>
						<labels>
							<label2>Iris</label2>
						</labels>
					</clipitem>
					<clipitem id="clipitem-371" frameBlend="FALSE">
						<masterclipid>masterclip-66</masterclipid>
						<name>Teleportering-071014-f_p0.mxf</name>
						<enabled>TRUE</enabled>
						<duration>11228</duration>
						<rate>
							<timebase>25</timebase>
							<ntsc>FALSE</ntsc>
						</rate>
						<start>505</start>
						<end>573</end>
						<in>2702</in>
						<out>2770</out>
						<file id="file-62"/>
						<sourcetrack>
							<mediatype>audio</mediatype>
							<trackindex>4</trackindex>
						</sourcetrack>
							<filter>
								<effect>
									<name>Audio Levels</name>
									<effectid>audiolevels</effectid>
									<effectcategory>audiolevels</effectcategory>
									<effecttype>audiolevels</effecttype>
									<mediatype>audio</mediatype>
									<parameter authoringApp="PremierePro">
										<parameterid>level</parameterid>
										<name>Level</name>
										<valuemin>0</valuemin>
										<valuemax>3.98109</valuemax>
										<value>0.0636785</value>
									</parameter>
								</effect>
							</filter>
						<link>
							<linkclipref>clipitem-286</linkclipref>
							<mediatype>video</mediatype>
							<trackindex>1</trackindex>
							<clipindex>5</clipindex>
						</link>
						<link>
							<linkclipref>clipitem-353</linkclipref>
							<mediatype>audio</mediatype>
							<trackindex>1</trackindex>
							<clipindex>4</clipindex>
						</link>
						<link>
							<linkclipref>clipitem-371</linkclipref>
							<mediatype>audio</mediatype>
							<trackindex>2</trackindex>
							<clipindex>4</clipindex>
						</link>
						<logginginfo>
							<description></description>
							<scene></scene>
							<shottake></shottake>
							<lognote></lognote>
						</logginginfo>
						<labels>
							<label2>Iris</label2>
						</labels>
					</clipitem>
					<clipitem id="clipitem-372" frameBlend="FALSE">
						<masterclipid>masterclip-65</masterclipid>
						<name>Koerber-Preis_2014_EPK_1080p_rgb.mov</name>
						<enabled>TRUE</enabled>
						<duration>29855</duration>
						<rate>
							<timebase>25</timebase>
							<ntsc>FALSE</ntsc>
						</rate>
						<start>573</start>
						<end>625</end>
						<in>12864</in>
						<out>12916</out>
						<file id="file-61"/>
						<sourcetrack>
							<mediatype>audio</mediatype>
							<trackindex>2</trackindex>
						</sourcetrack>
							<filter>
								<effect>
									<name>Audio Levels</name>
									<effectid>audiolevels</effectid>
									<effectcategory>audiolevels</effectcategory>
									<effecttype>audiolevels</effecttype>
									<mediatype>audio</mediatype>
									<parameter authoringApp="PremierePro">
										<parameterid>level</parameterid>
										<name>Level</name>
										<valuemin>0</valuemin>
										<valuemax>3.98109</valuemax>
										<value>0.106131</value>
									</parameter>
								</effect>
							</filter>
						<link>
							<linkclipref>clipitem-287</linkclipref>
							<mediatype>video</mediatype>
							<trackindex>1</trackindex>
							<clipindex>6</clipindex>
						</link>
						<link>
							<linkclipref>clipitem-354</linkclipref>
							<mediatype>audio</mediatype>
							<trackindex>1</trackindex>
							<clipindex>5</clipindex>
						</link>
						<link>
							<linkclipref>clipitem-372</linkclipref>
							<mediatype>audio</mediatype>
							<trackindex>2</trackindex>
							<clipindex>5</clipindex>
						</link>
						<logginginfo>
							<description></description>
							<scene></scene>
							<shottake></shottake>
							<lognote></lognote>
						</logginginfo>
						<labels>
							<label2>Iris</label2>
						</labels>
					</clipitem>
					<clipitem id="clipitem-373" frameBlend="FALSE">
						<masterclipid>masterclip-65</masterclipid>
						<name>Koerber-Preis_2014_EPK_1080p_rgb.mov</name>
						<enabled>TRUE</enabled>
						<duration>29855</duration>
						<rate>
							<timebase>25</timebase>
							<ntsc>FALSE</ntsc>
						</rate>
						<start>625</start>
						<end>665</end>
						<in>13277</in>
						<out>13317</out>
						<file id="file-61"/>
						<sourcetrack>
							<mediatype>audio</mediatype>
							<trackindex>2</trackindex>
						</sourcetrack>
							<filter>
								<effect>
									<name>Audio Levels</name>
									<effectid>audiolevels</effectid>
									<effectcategory>audiolevels</effectcategory>
									<effecttype>audiolevels</effecttype>
									<mediatype>audio</mediatype>
									<parameter authoringApp="PremierePro">
										<parameterid>level</parameterid>
										<name>Level</name>
										<valuemin>0</valuemin>
										<valuemax>3.98109</valuemax>
										<value>0.0636785</value>
									</parameter>
								</effect>
							</filter>
						<link>
							<linkclipref>clipitem-288</linkclipref>
							<mediatype>video</mediatype>
							<trackindex>1</trackindex>
							<clipindex>7</clipindex>
						</link>
						<link>
							<linkclipref>clipitem-355</linkclipref>
							<mediatype>audio</mediatype>
							<trackindex>1</trackindex>
							<clipindex>6</clipindex>
						</link>
						<link>
							<linkclipref>clipitem-373</linkclipref>
							<mediatype>audio</mediatype>
							<trackindex>2</trackindex>
							<clipindex>6</clipindex>
						</link>
						<logginginfo>
							<description></description>
							<scene></scene>
							<shottake></shottake>
							<lognote></lognote>
						</logginginfo>
						<labels>
							<label2>Iris</label2>
						</labels>
					</clipitem>
					<clipitem id="clipitem-374" frameBlend="FALSE">
						<masterclipid>masterclip-66</masterclipid>
						<name>Teleportering-071014-f_p0.mxf</name>
						<enabled>TRUE</enabled>
						<duration>11228</duration>
						<rate>
							<timebase>25</timebase>
							<ntsc>FALSE</ntsc>
						</rate>
						<start>1305</start>
						<end>1489</end>
						<in>4446</in>
						<out>4630</out>
						<file id="file-62"/>
						<sourcetrack>
							<mediatype>audio</mediatype>
							<trackindex>4</trackindex>
						</sourcetrack>
							<filter>
								<effect>
									<name>Audio Levels</name>
									<effectid>audiolevels</effectid>
									<effectcategory>audiolevels</effectcategory>
									<effecttype>audiolevels</effecttype>
									<mediatype>audio</mediatype>
									<parameter authoringApp="PremierePro">
										<parameterid>level</parameterid>
										<name>Level</name>
										<valuemin>0</valuemin>
										<valuemax>3.98109</valuemax>
										<value>0</value>
									</parameter>
								</effect>
							</filter>
						<link>
							<linkclipref>clipitem-327</linkclipref>
							<mediatype>video</mediatype>
							<trackindex>1</trackindex>
							<clipindex>12</clipindex>
						</link>
						<link>
							<linkclipref>clipitem-358</linkclipref>
							<mediatype>audio</mediatype>
							<trackindex>1</trackindex>
							<clipindex>9</clipindex>
						</link>
						<link>
							<linkclipref>clipitem-374</linkclipref>
							<mediatype>audio</mediatype>
							<trackindex>2</trackindex>
							<clipindex>7</clipindex>
						</link>
						<logginginfo>
							<description></description>
							<scene></scene>
							<shottake></shottake>
							<lognote></lognote>
						</logginginfo>
						<labels>
							<label2>Iris</label2>
						</labels>
					</clipitem>
					<clipitem id="clipitem-375" frameBlend="FALSE">
						<masterclipid>masterclip-66</masterclipid>
						<name>Teleportering-071014-f_p0.mxf</name>
						<enabled>TRUE</enabled>
						<duration>11228</duration>
						<rate>
							<timebase>25</timebase>
							<ntsc>FALSE</ntsc>
						</rate>
						<start>1489</start>
						<end>1549</end>
						<in>6056</in>
						<out>6116</out>
						<file id="file-62"/>
						<sourcetrack>
							<mediatype>audio</mediatype>
							<trackindex>4</trackindex>
						</sourcetrack>
							<filter>
								<effect>
									<name>Audio Levels</name>
									<effectid>audiolevels</effectid>
									<effectcategory>audiolevels</effectcategory>
									<effecttype>audiolevels</effecttype>
									<mediatype>audio</mediatype>
									<parameter authoringApp="PremierePro">
										<parameterid>level</parameterid>
										<name>Level</name>
										<valuemin>0</valuemin>
										<valuemax>3.98109</valuemax>
										<value>0</value>
										<keyframe>
											<when>6070</when>
											<value>0</value>
										</keyframe>
										<keyframe>
											<when>6076</when>
											<value>0</value>
										</keyframe>
									</parameter>
								</effect>
							</filter>
						<link>
							<linkclipref>clipitem-328</linkclipref>
							<mediatype>video</mediatype>
							<trackindex>1</trackindex>
							<clipindex>13</clipindex>
						</link>
						<link>
							<linkclipref>clipitem-359</linkclipref>
							<mediatype>audio</mediatype>
							<trackindex>1</trackindex>
							<clipindex>10</clipindex>
						</link>
						<link>
							<linkclipref>clipitem-375</linkclipref>
							<mediatype>audio</mediatype>
							<trackindex>2</trackindex>
							<clipindex>8</clipindex>
						</link>
						<logginginfo>
							<description></description>
							<scene></scene>
							<shottake></shottake>
							<lognote></lognote>
						</logginginfo>
						<labels>
							<label2>Iris</label2>
						</labels>
					</clipitem>
					<clipitem id="clipitem-376" frameBlend="FALSE">
						<masterclipid>masterclip-66</masterclipid>
						<name>Teleportering-071014-f_p0.mxf</name>
						<enabled>TRUE</enabled>
						<duration>11228</duration>
						<rate>
							<timebase>25</timebase>
							<ntsc>FALSE</ntsc>
						</rate>
						<start>1549</start>
						<end>1614</end>
						<in>6148</in>
						<out>6213</out>
						<file id="file-62"/>
						<sourcetrack>
							<mediatype>audio</mediatype>
							<trackindex>4</trackindex>
						</sourcetrack>
							<filter>
								<effect>
									<name>Audio Levels</name>
									<effectid>audiolevels</effectid>
									<effectcategory>audiolevels</effectcategory>
									<effecttype>audiolevels</effecttype>
									<mediatype>audio</mediatype>
									<parameter authoringApp="PremierePro">
										<parameterid>level</parameterid>
										<name>Level</name>
										<valuemin>0</valuemin>
										<valuemax>3.98109</valuemax>
										<value>0</value>
									</parameter>
								</effect>
							</filter>
						<link>
							<linkclipref>clipitem-329</linkclipref>
							<mediatype>video</mediatype>
							<trackindex>1</trackindex>
							<clipindex>14</clipindex>
						</link>
						<link>
							<linkclipref>clipitem-360</linkclipref>
							<mediatype>audio</mediatype>
							<trackindex>1</trackindex>
							<clipindex>11</clipindex>
						</link>
						<link>
							<linkclipref>clipitem-376</linkclipref>
							<mediatype>audio</mediatype>
							<trackindex>2</trackindex>
							<clipindex>9</clipindex>
						</link>
						<logginginfo>
							<description></description>
							<scene></scene>
							<shottake></shottake>
							<lognote></lognote>
						</logginginfo>
						<labels>
							<label2>Iris</label2>
						</labels>
					</clipitem>
					<clipitem id="clipitem-377" frameBlend="FALSE">
						<masterclipid>masterclip-66</masterclipid>
						<name>Teleportering-071014-f_p0.mxf</name>
						<enabled>TRUE</enabled>
						<duration>11228</duration>
						<rate>
							<timebase>25</timebase>
							<ntsc>FALSE</ntsc>
						</rate>
						<start>1614</start>
						<end>1672</end>
						<in>5667</in>
						<out>5725</out>
						<file id="file-62"/>
						<sourcetrack>
							<mediatype>audio</mediatype>
							<trackindex>4</trackindex>
						</sourcetrack>
							<filter>
								<effect>
									<name>Audio Levels</name>
									<effectid>audiolevels</effectid>
									<effectcategory>audiolevels</effectcategory>
									<effecttype>audiolevels</effecttype>
									<mediatype>audio</mediatype>
									<parameter authoringApp="PremierePro">
										<parameterid>level</parameterid>
										<name>Level</name>
										<valuemin>0</valuemin>
										<valuemax>3.98109</valuemax>
										<value>0</value>
									</parameter>
								</effect>
							</filter>
						<link>
							<linkclipref>clipitem-330</linkclipref>
							<mediatype>video</mediatype>
							<trackindex>1</trackindex>
							<clipindex>15</clipindex>
						</link>
						<link>
							<linkclipref>clipitem-361</linkclipref>
							<mediatype>audio</mediatype>
							<trackindex>1</trackindex>
							<clipindex>12</clipindex>
						</link>
						<link>
							<linkclipref>clipitem-377</linkclipref>
							<mediatype>audio</mediatype>
							<trackindex>2</trackindex>
							<clipindex>10</clipindex>
						</link>
						<logginginfo>
							<description></description>
							<scene></scene>
							<shottake></shottake>
							<lognote></lognote>
						</logginginfo>
						<labels>
							<label2>Iris</label2>
						</labels>
					</clipitem>
					<clipitem id="clipitem-378" frameBlend="FALSE">
						<masterclipid>masterclip-66</masterclipid>
						<name>Teleportering-071014-f_p0.mxf</name>
						<enabled>TRUE</enabled>
						<duration>11228</duration>
						<rate>
							<timebase>25</timebase>
							<ntsc>FALSE</ntsc>
						</rate>
						<start>3230</start>
						<end>3588</end>
						<in>8048</in>
						<out>8406</out>
						<file id="file-62"/>
						<sourcetrack>
							<mediatype>audio</mediatype>
							<trackindex>4</trackindex>
						</sourcetrack>
							<filter>
								<effect>
									<name>Audio Levels</name>
									<effectid>audiolevels</effectid>
									<effectcategory>audiolevels</effectcategory>
									<effecttype>audiolevels</effecttype>
									<mediatype>audio</mediatype>
									<parameter authoringApp="PremierePro">
										<parameterid>level</parameterid>
										<name>Level</name>
										<valuemin>0</valuemin>
										<valuemax>3.98109</valuemax>
										<value>0.0183562</value>
										<keyframe>
											<when>8086</when>
											<value>0.0212262</value>
										</keyframe>
										<keyframe>
											<when>8094</when>
											<value>0.99763</value>
										</keyframe>
										<keyframe>
											<when>8157</when>
											<value>0.99763</value>
										</keyframe>
										<keyframe>
											<when>8166</when>
											<value>0.27594</value>
										</keyframe>
										<keyframe>
											<when>8244</when>
											<value>0.27594</value>
										</keyframe>
										<keyframe>
											<when>8257</when>
											<value>0.105014</value>
										</keyframe>
										<keyframe>
											<when>8261</when>
											<value>0</value>
										</keyframe>
										<keyframe>
											<when>8330</when>
											<value>0.0363336</value>
										</keyframe>
										<keyframe>
											<when>8341</when>
											<value>0.105014</value>
										</keyframe>
									</parameter>
								</effect>
							</filter>
						<link>
							<linkclipref>clipitem-338</linkclipref>
							<mediatype>video</mediatype>
							<trackindex>1</trackindex>
							<clipindex>23</clipindex>
						</link>
						<link>
							<linkclipref>clipitem-366</linkclipref>
							<mediatype>audio</mediatype>
							<trackindex>1</trackindex>
							<clipindex>19</clipindex>
						</link>
						<link>
							<linkclipref>clipitem-378</linkclipref>
							<mediatype>audio</mediatype>
							<trackindex>2</trackindex>
							<clipindex>11</clipindex>
						</link>
						<logginginfo>
							<description></description>
							<scene></scene>
							<shottake></shottake>
							<lognote></lognote>
						</logginginfo>
						<labels>
							<label2>Iris</label2>
						</labels>
					</clipitem>
					<enabled>TRUE</enabled>
					<locked>FALSE</locked>
					<outputchannelindex>2</outputchannelindex>
				</track>
				<track monotrack="TRUE" TL.SQTrackAudioKeyframeStyle="0" TL.SQTrackShy="0" TL.SQTrackExpandedHeight="37" TL.SQTrackExpanded="1" MZ.TrackTargeted="1" MZ.TrackName="sync 2 mono" PannerCurrentValue="0.5" PannerIsInverted="true" PannerStartKeyframe="-91445760000000000,0.5,0,0,0,0,0,0" PannerName="Pan" currentExplodedTrackIndex="0" totalExplodedTrackCount="1" premiereTrackType="Mono">
					<clipitem id="clipitem-379" frameBlend="FALSE">
						<masterclipid>masterclip-68</masterclipid>
						<name>AA297201.MXFKam A</name>
						<enabled>TRUE</enabled>
						<duration>201318</duration>
						<rate>
							<timebase>25</timebase>
							<ntsc>FALSE</ntsc>
						</rate>
						<start>665</start>
						<end>760</end>
						<in>64567</in>
						<out>64662</out>
						<sequence id="sequence-13"/>
						<link>
							<linkclipref>clipitem-356</linkclipref>
							<mediatype>audio</mediatype>
							<trackindex>1</trackindex>
							<clipindex>7</clipindex>
						</link>
						<link>
							<linkclipref>clipitem-379</linkclipref>
							<mediatype>audio</mediatype>
							<trackindex>3</trackindex>
							<clipindex>1</clipindex>
						</link>
						<labels>
							<label2>Forest</label2>
						</labels>
					</clipitem>
					<clipitem id="clipitem-380" frameBlend="FALSE">
						<masterclipid>masterclip-68</masterclipid>
						<name>AA297201.MXFKam A</name>
						<enabled>TRUE</enabled>
						<duration>201318</duration>
						<rate>
							<timebase>25</timebase>
							<ntsc>FALSE</ntsc>
						</rate>
						<start>760</start>
						<end>1109</end>
						<in>64662</in>
						<out>65011</out>
						<sequence id="sequence-13"/>
						<labels>
							<label2>Forest</label2>
						</labels>
					</clipitem>
					<clipitem id="clipitem-381" frameBlend="FALSE">
						<masterclipid>masterclip-68</masterclipid>
						<name>AA297201.MXFKam A</name>
						<enabled>TRUE</enabled>
						<duration>201318</duration>
						<rate>
							<timebase>25</timebase>
							<ntsc>FALSE</ntsc>
						</rate>
						<start>1971</start>
						<end>-1</end>
						<in>67812</in>
						<out>68137</out>
						<sequence id="sequence-13"/>
						<link>
							<linkclipref>clipitem-362</linkclipref>
							<mediatype>audio</mediatype>
							<trackindex>1</trackindex>
							<clipindex>13</clipindex>
						</link>
						<link>
							<linkclipref>clipitem-381</linkclipref>
							<mediatype>audio</mediatype>
							<trackindex>3</trackindex>
							<clipindex>3</clipindex>
						</link>
						<labels>
							<label2>Forest</label2>
						</labels>
					</clipitem>
					<transitionitem>
						<start>2293</start>
						<end>2296</end>
						<alignment>center</alignment>
						<cutPoint>1</cutPoint>
						<rate>
							<timebase>25</timebase>
							<ntsc>FALSE</ntsc>
						</rate>
						<effect>
							<name>Cross Fade (+3dB)</name>
							<effectid>KGAudioTransCrossFade3dB</effectid>
							<effecttype>transition</effecttype>
							<mediatype>audio</mediatype>
							<wipecode>0</wipecode>
							<wipeaccuracy>100</wipeaccuracy>
							<startratio>0</startratio>
							<endratio>1</endratio>
							<reverse>FALSE</reverse>
						</effect>
					</transitionitem>
					<clipitem id="clipitem-382" frameBlend="FALSE">
						<masterclipid>masterclip-68</masterclipid>
						<name>AA297201.MXFKam A</name>
						<enabled>TRUE</enabled>
						<duration>201318</duration>
						<rate>
							<timebase>25</timebase>
							<ntsc>FALSE</ntsc>
						</rate>
						<start>-1</start>
						<end>2515</end>
						<in>68159</in>
						<out>68381</out>
						<sequence id="sequence-13"/>
						<link>
							<linkclipref>clipitem-363</linkclipref>
							<mediatype>audio</mediatype>
							<trackindex>1</trackindex>
							<clipindex>15</clipindex>
						</link>
						<link>
							<linkclipref>clipitem-382</linkclipref>
							<mediatype>audio</mediatype>
							<trackindex>3</trackindex>
							<clipindex>5</clipindex>
						</link>
						<labels>
							<label2>Forest</label2>
						</labels>
					</clipitem>
					<clipitem id="clipitem-383" frameBlend="FALSE">
						<masterclipid>masterclip-68</masterclipid>
						<name>AA297201.MXFKam A</name>
						<enabled>TRUE</enabled>
						<duration>201318</duration>
						<rate>
							<timebase>25</timebase>
							<ntsc>FALSE</ntsc>
						</rate>
						<start>2515</start>
						<end>-1</end>
						<in>76345</in>
						<out>76594</out>
						<sequence id="sequence-13"/>
						<link>
							<linkclipref>clipitem-364</linkclipref>
							<mediatype>audio</mediatype>
							<trackindex>1</trackindex>
							<clipindex>16</clipindex>
						</link>
						<link>
							<linkclipref>clipitem-383</linkclipref>
							<mediatype>audio</mediatype>
							<trackindex>3</trackindex>
							<clipindex>6</clipindex>
						</link>
						<labels>
							<label2>Forest</label2>
						</labels>
					</clipitem>
					<transitionitem>
						<start>2761</start>
						<end>2764</end>
						<alignment>center</alignment>
						<cutPoint>1</cutPoint>
						<rate>
							<timebase>25</timebase>
							<ntsc>FALSE</ntsc>
						</rate>
						<effect>
							<name>Cross Fade (+3dB)</name>
							<effectid>KGAudioTransCrossFade3dB</effectid>
							<effecttype>transition</effecttype>
							<mediatype>audio</mediatype>
							<wipecode>0</wipecode>
							<wipeaccuracy>100</wipeaccuracy>
							<startratio>0</startratio>
							<endratio>1</endratio>
							<reverse>FALSE</reverse>
						</effect>
					</transitionitem>
					<clipitem id="clipitem-384" frameBlend="FALSE">
						<masterclipid>masterclip-68</masterclipid>
						<name>AA297201.MXFKam A</name>
						<enabled>TRUE</enabled>
						<duration>201318</duration>
						<rate>
							<timebase>25</timebase>
							<ntsc>FALSE</ntsc>
						</rate>
						<start>-1</start>
						<end>3130</end>
						<in>74108</in>
						<out>74477</out>
						<sequence id="sequence-13"/>
						<link>
							<linkclipref>clipitem-365</linkclipref>
							<mediatype>audio</mediatype>
							<trackindex>1</trackindex>
							<clipindex>18</clipindex>
						</link>
						<link>
							<linkclipref>clipitem-384</linkclipref>
							<mediatype>audio</mediatype>
							<trackindex>3</trackindex>
							<clipindex>8</clipindex>
						</link>
						<labels>
							<label2>Forest</label2>
						</labels>
					</clipitem>
					<clipitem id="clipitem-385" frameBlend="FALSE">
						<masterclipid>masterclip-68</masterclipid>
						<name>AA297201.MXFKam A</name>
						<enabled>TRUE</enabled>
						<duration>201318</duration>
						<rate>
							<timebase>25</timebase>
							<ntsc>FALSE</ntsc>
						</rate>
						<start>3588</start>
						<end>4686</end>
						<in>68465</in>
						<out>69563</out>
						<sequence id="sequence-13"/>
						<link>
							<linkclipref>clipitem-367</linkclipref>
							<mediatype>audio</mediatype>
							<trackindex>1</trackindex>
							<clipindex>20</clipindex>
						</link>
						<link>
							<linkclipref>clipitem-385</linkclipref>
							<mediatype>audio</mediatype>
							<trackindex>3</trackindex>
							<clipindex>9</clipindex>
						</link>
						<labels>
							<label2>Forest</label2>
						</labels>
					</clipitem>
					<enabled>FALSE</enabled>
					<locked>FALSE</locked>
					<outputchannelindex>1</outputchannelindex>
				</track>
				<track monotrack="TRUE" TL.SQTrackAudioKeyframeStyle="0" TL.SQTrackShy="0" TL.SQTrackExpandedHeight="36" TL.SQTrackExpanded="1" MZ.TrackTargeted="1" MZ.TrackName="sync 3 mono" PannerCurrentValue="0.5" PannerIsInverted="true" PannerStartKeyframe="-91445760000000000,0.5,0,0,0,0,0,0" PannerName="Pan" currentExplodedTrackIndex="0" totalExplodedTrackCount="1" premiereTrackType="Mono">
					<clipitem id="clipitem-386" frameBlend="FALSE">
						<masterclipid>masterclip-72</masterclipid>
						<name>AA297201.MXFKam B</name>
						<enabled>TRUE</enabled>
						<duration>192585</duration>
						<rate>
							<timebase>25</timebase>
							<ntsc>FALSE</ntsc>
						</rate>
						<start>665</start>
						<end>760</end>
						<in>64604</in>
						<out>64699</out>
						<sequence id="sequence-15"/>
						<labels>
							<label2>Forest</label2>
						</labels>
					</clipitem>
					<clipitem id="clipitem-387" frameBlend="FALSE">
						<masterclipid>masterclip-72</masterclipid>
						<name>AA297201.MXFKam B</name>
						<enabled>TRUE</enabled>
						<duration>192585</duration>
						<rate>
							<timebase>25</timebase>
							<ntsc>FALSE</ntsc>
						</rate>
						<start>760</start>
						<end>1109</end>
						<in>64699</in>
						<out>65048</out>
						<sequence id="sequence-15"/>
						<labels>
							<label2>Forest</label2>
						</labels>
					</clipitem>
					<clipitem id="clipitem-388" frameBlend="FALSE">
						<masterclipid>masterclip-72</masterclipid>
						<name>AA297201.MXFKam B</name>
						<enabled>TRUE</enabled>
						<duration>192585</duration>
						<rate>
							<timebase>25</timebase>
							<ntsc>FALSE</ntsc>
						</rate>
						<start>1971</start>
						<end>-1</end>
						<in>67849</in>
						<out>68174</out>
						<sequence id="sequence-15"/>
						<labels>
							<label2>Forest</label2>
						</labels>
					</clipitem>
					<transitionitem>
						<start>2293</start>
						<end>2296</end>
						<alignment>center</alignment>
						<cutPoint>1</cutPoint>
						<rate>
							<timebase>25</timebase>
							<ntsc>FALSE</ntsc>
						</rate>
						<effect>
							<name>Cross Fade (+3dB)</name>
							<effectid>KGAudioTransCrossFade3dB</effectid>
							<effecttype>transition</effecttype>
							<mediatype>audio</mediatype>
							<wipecode>0</wipecode>
							<wipeaccuracy>100</wipeaccuracy>
							<startratio>0</startratio>
							<endratio>1</endratio>
							<reverse>FALSE</reverse>
						</effect>
					</transitionitem>
					<clipitem id="clipitem-389" frameBlend="FALSE">
						<masterclipid>masterclip-72</masterclipid>
						<name>AA297201.MXFKam B</name>
						<enabled>TRUE</enabled>
						<duration>192585</duration>
						<rate>
							<timebase>25</timebase>
							<ntsc>FALSE</ntsc>
						</rate>
						<start>-1</start>
						<end>2514</end>
						<in>68196</in>
						<out>68417</out>
						<sequence id="sequence-15"/>
						<labels>
							<label2>Forest</label2>
						</labels>
					</clipitem>
					<clipitem id="clipitem-390" frameBlend="FALSE">
						<masterclipid>masterclip-72</masterclipid>
						<name>AA297201.MXFKam B</name>
						<enabled>TRUE</enabled>
						<duration>192585</duration>
						<rate>
							<timebase>25</timebase>
							<ntsc>FALSE</ntsc>
						</rate>
						<start>2515</start>
						<end>-1</end>
						<in>76382</in>
						<out>76631</out>
						<sequence id="sequence-15"/>
						<labels>
							<label2>Forest</label2>
						</labels>
					</clipitem>
					<transitionitem>
						<start>2761</start>
						<end>2764</end>
						<alignment>center</alignment>
						<cutPoint>1</cutPoint>
						<rate>
							<timebase>25</timebase>
							<ntsc>FALSE</ntsc>
						</rate>
						<effect>
							<name>Cross Fade (+3dB)</name>
							<effectid>KGAudioTransCrossFade3dB</effectid>
							<effecttype>transition</effecttype>
							<mediatype>audio</mediatype>
							<wipecode>0</wipecode>
							<wipeaccuracy>100</wipeaccuracy>
							<startratio>0</startratio>
							<endratio>1</endratio>
							<reverse>FALSE</reverse>
						</effect>
					</transitionitem>
					<clipitem id="clipitem-391" frameBlend="FALSE">
						<masterclipid>masterclip-72</masterclipid>
						<name>AA297201.MXFKam B</name>
						<enabled>TRUE</enabled>
						<duration>192585</duration>
						<rate>
							<timebase>25</timebase>
							<ntsc>FALSE</ntsc>
						</rate>
						<start>-1</start>
						<end>3130</end>
						<in>74145</in>
						<out>74514</out>
						<sequence id="sequence-15"/>
						<labels>
							<label2>Forest</label2>
						</labels>
					</clipitem>
					<clipitem id="clipitem-392" frameBlend="FALSE">
						<masterclipid>masterclip-72</masterclipid>
						<name>AA297201.MXFKam B</name>
						<enabled>TRUE</enabled>
						<duration>192585</duration>
						<rate>
							<timebase>25</timebase>
							<ntsc>FALSE</ntsc>
						</rate>
						<start>3588</start>
						<end>4686</end>
						<in>68502</in>
						<out>69600</out>
						<sequence id="sequence-15"/>
						<labels>
							<label2>Forest</label2>
						</labels>
					</clipitem>
					<enabled>FALSE</enabled>
					<locked>FALSE</locked>
					<outputchannelindex>2</outputchannelindex>
				</track>
				<track monotrack="TRUE" TL.SQTrackAudioKeyframeStyle="0" TL.SQTrackShy="0" TL.SQTrackExpandedHeight="46" TL.SQTrackExpanded="1" MZ.TrackTargeted="1" MZ.TrackName="sync 4 mono" PannerCurrentValue="0.5" PannerIsInverted="true" PannerStartKeyframe="-91445760000000000,0.5,0,0,0,0,0,0" PannerName="Pan" currentExplodedTrackIndex="0" totalExplodedTrackCount="1" premiereTrackType="Mono">
					<clipitem id="clipitem-393" frameBlend="FALSE">
						<masterclipid>masterclip-81</masterclipid>
						<name>kavli-071014-st-018.MXF</name>
						<enabled>TRUE</enabled>
						<duration>2900</duration>
						<rate>
							<timebase>25</timebase>
							<ntsc>FALSE</ntsc>
						</rate>
						<start>2254</start>
						<end>2396</end>
						<in>1613</in>
						<out>1755</out>
						<file id="file-73"/>
						<sourcetrack>
							<mediatype>audio</mediatype>
							<trackindex>3</trackindex>
						</sourcetrack>
							<filter>
								<effect>
									<name>Audio Levels</name>
									<effectid>audiolevels</effectid>
									<effectcategory>audiolevels</effectcategory>
									<effecttype>audiolevels</effecttype>
									<mediatype>audio</mediatype>
									<parameter authoringApp="PremierePro">
										<parameterid>level</parameterid>
										<name>Level</name>
										<valuemin>0</valuemin>
										<valuemax>3.98109</valuemax>
										<value>0</value>
									</parameter>
								</effect>
							</filter>
						<link>
							<linkclipref>clipitem-347</linkclipref>
							<mediatype>video</mediatype>
							<trackindex>2</trackindex>
							<clipindex>1</clipindex>
						</link>
						<link>
							<linkclipref>clipitem-393</linkclipref>
							<mediatype>audio</mediatype>
							<trackindex>5</trackindex>
							<clipindex>1</clipindex>
						</link>
						<link>
							<linkclipref>clipitem-394</linkclipref>
							<mediatype>audio</mediatype>
							<trackindex>6</trackindex>
							<clipindex>1</clipindex>
							<groupindex>1</groupindex>
						</link>
						<logginginfo>
							<description></description>
							<scene></scene>
							<shottake></shottake>
							<lognote></lognote>
						</logginginfo>
						<labels>
							<label2>Iris</label2>
						</labels>
					</clipitem>
					<enabled>TRUE</enabled>
					<locked>FALSE</locked>
					<outputchannelindex>1</outputchannelindex>
				</track>
				<track TL.SQTrackAudioKeyframeStyle="0" TL.SQTrackShy="0" TL.SQTrackExpandedHeight="48" TL.SQTrackExpanded="1" MZ.TrackTargeted="1" MZ.TrackName="Kontentum stereo" PannerCurrentValue="0.5" PannerIsInverted="true" PannerStartKeyframe="-91445760000000000,0.5,0,0,0,0,0,0" PannerName="Balance" currentExplodedTrackIndex="0" totalExplodedTrackCount="1" premiereTrackType="Stereo">
					<clipitem id="clipitem-394" frameBlend="FALSE" PannerCurrentValue="0.5" PannerKeyframes="" PannerStartKeyframe="-91445760000000000,0.5,0,0,0,0,0,0" PannerIsInverted="true" PannerName="Pan">
						<masterclipid>masterclip-81</masterclipid>
						<name>kavli-071014-st-018.MXF</name>
						<enabled>TRUE</enabled>
						<duration>2900</duration>
						<rate>
							<timebase>25</timebase>
							<ntsc>FALSE</ntsc>
						</rate>
						<start>2254</start>
						<end>2396</end>
						<in>1613</in>
						<out>1755</out>
						<file id="file-73"/>
						<sourcetrack>
							<mediatype>audio</mediatype>
							<trackindex>4</trackindex>
						</sourcetrack>
							<filter>
								<effect>
									<name>Audio Levels</name>
									<effectid>audiolevels</effectid>
									<effectcategory>audiolevels</effectcategory>
									<effecttype>audiolevels</effecttype>
									<mediatype>audio</mediatype>
									<parameter authoringApp="PremierePro">
										<parameterid>level</parameterid>
										<name>Level</name>
										<valuemin>0</valuemin>
										<valuemax>3.98109</valuemax>
										<value>0</value>
									</parameter>
								</effect>
							</filter>
							<filter>
								<effect>
									<name>Audio Pan</name>
									<effectid>audiopan</effectid>
									<effectcategory>audiopan</effectcategory>
									<effecttype>audiopan</effecttype>
									<mediatype>audio</mediatype>
									<parameter authoringApp="PremierePro">
										<parameterid>pan</parameterid>
										<name>Pan</name>
										<valuemin>-1</valuemin>
										<valuemax>1</valuemax>
										<value>0</value>
									</parameter>
								</effect>
							</filter>
						<link>
							<linkclipref>clipitem-347</linkclipref>
							<mediatype>video</mediatype>
							<trackindex>2</trackindex>
							<clipindex>1</clipindex>
						</link>
						<link>
							<linkclipref>clipitem-393</linkclipref>
							<mediatype>audio</mediatype>
							<trackindex>5</trackindex>
							<clipindex>1</clipindex>
						</link>
						<link>
							<linkclipref>clipitem-394</linkclipref>
							<mediatype>audio</mediatype>
							<trackindex>6</trackindex>
							<clipindex>1</clipindex>
							<groupindex>1</groupindex>
						</link>
						<logginginfo>
							<description></description>
							<scene></scene>
							<shottake></shottake>
							<lognote></lognote>
						</logginginfo>
						<labels>
							<label2>Iris</label2>
						</labels>
					</clipitem>
					<enabled>TRUE</enabled>
					<locked>FALSE</locked>
					<outputchannelindex>2</outputchannelindex>
				</track>
				<track TL.SQTrackAudioKeyframeStyle="0" TL.SQTrackShy="0" TL.SQTrackExpandedHeight="115" TL.SQTrackExpanded="1" MZ.TrackTargeted="1" MZ.TrackName="Musikk 1 stereo" PannerCurrentValue="0.5" PannerIsInverted="true" PannerStartKeyframe="-91445760000000000,0.5,0,0,0,0,0,0" PannerName="Balance" currentExplodedTrackIndex="0" totalExplodedTrackCount="2" premiereTrackType="Stereo">
					<clipitem id="clipitem-395" frameBlend="FALSE" PannerCurrentValue="0.5" PannerKeyframes="" PannerStartKeyframe="-91445760000000000,0.5,0,0,0,0,0,0" PannerIsInverted="true" PannerName="Balance">
						<masterclipid>masterclip-84</masterclipid>
						<name>NONRE609619HD0006 Down the Road (Irfane Remix).wav</name>
						<enabled>TRUE</enabled>
						<duration>9349</duration>
						<rate>
							<timebase>25</timebase>
							<ntsc>FALSE</ntsc>
						</rate>
						<start>0</start>
						<end>505</end>
						<in>0</in>
						<out>505</out>
						<file id="file-76">
							<name>NONRE609619HD0006 Down the Road (Irfane Remix).wav</name>
							<pathurl>file://localhost/Volumes/Brakka/Katta/Musikk/DNA%20strekkode%20musikk/NONRE609619HD0006%20Down%20the%20Road%20(Irfane%20Remix).wav</pathurl>
							<rate>
								<timebase>30</timebase>
								<ntsc>TRUE</ntsc>
							</rate>
							<duration>11207</duration>
							<timecode>
								<rate>
									<timebase>30</timebase>
									<ntsc>TRUE</ntsc>
								</rate>
								<string>00;00;00;00</string>
								<frame>0</frame>
								<displayformat>DF</displayformat>
								<reel>
									<name></name>
								</reel>
							</timecode>
							<media>
								<audio>
									<samplecharacteristics>
										<depth>16</depth>
										<samplerate>48000</samplerate>
									</samplecharacteristics>
									<channelcount>2</channelcount>
								</audio>
							</media>
						</file>
						<sourcetrack>
							<mediatype>audio</mediatype>
							<trackindex>1</trackindex>
						</sourcetrack>
							<filter>
								<effect>
									<name>Audio Pan</name>
									<effectid>audiopan</effectid>
									<effectcategory>audiopan</effectcategory>
									<effecttype>audiopan</effecttype>
									<mediatype>audio</mediatype>
									<parameter authoringApp="PremierePro">
										<parameterid>pan</parameterid>
										<name>Pan</name>
										<valuemin>-1</valuemin>
										<valuemax>1</valuemax>
										<value>0</value>
									</parameter>
								</effect>
							</filter>
						<link>
							<linkclipref>clipitem-395</linkclipref>
							<mediatype>audio</mediatype>
							<trackindex>7</trackindex>
							<clipindex>1</clipindex>
							<groupindex>1</groupindex>
						</link>
						<link>
							<linkclipref>clipitem-397</linkclipref>
							<mediatype>audio</mediatype>
							<trackindex>8</trackindex>
							<clipindex>1</clipindex>
							<groupindex>1</groupindex>
						</link>
						<logginginfo>
							<description></description>
							<scene></scene>
							<shottake></shottake>
							<lognote></lognote>
						</logginginfo>
						<labels>
							<label2>Caribbean</label2>
						</labels>
					</clipitem>
					<clipitem id="clipitem-396" frameBlend="FALSE" PannerCurrentValue="0.5" PannerKeyframes="" PannerStartKeyframe="-91445760000000000,0.5,0,0,0,0,0,0" PannerIsInverted="true" PannerName="Balance">
						<masterclipid>masterclip-85</masterclipid>
						<name>NONRO186902CD0010 Cold Waters.wav</name>
						<enabled>TRUE</enabled>
						<duration>6454</duration>
						<rate>
							<timebase>25</timebase>
							<ntsc>FALSE</ntsc>
						</rate>
						<start>505</start>
						<end>4579</end>
						<in>0</in>
						<out>4074</out>
						<file id="file-77">
							<name>NONRO186902CD0010 Cold Waters.wav</name>
							<pathurl>file://localhost/Volumes/Brakka/Katta/Musikk/DNA%20strekkode%20musikk/NONRO186902CD0010%20Cold%20Waters.wav</pathurl>
							<rate>
								<timebase>30</timebase>
								<ntsc>TRUE</ntsc>
							</rate>
							<duration>7737</duration>
							<timecode>
								<rate>
									<timebase>30</timebase>
									<ntsc>TRUE</ntsc>
								</rate>
								<string>00;00;00;00</string>
								<frame>0</frame>
								<displayformat>DF</displayformat>
								<reel>
									<name></name>
								</reel>
							</timecode>
							<media>
								<audio>
									<samplecharacteristics>
										<depth>16</depth>
										<samplerate>48000</samplerate>
									</samplecharacteristics>
									<channelcount>2</channelcount>
								</audio>
							</media>
						</file>
						<sourcetrack>
							<mediatype>audio</mediatype>
							<trackindex>1</trackindex>
						</sourcetrack>
							<filter>
								<effect>
									<name>Audio Pan</name>
									<effectid>audiopan</effectid>
									<effectcategory>audiopan</effectcategory>
									<effecttype>audiopan</effecttype>
									<mediatype>audio</mediatype>
									<parameter authoringApp="PremierePro">
										<parameterid>pan</parameterid>
										<name>Pan</name>
										<valuemin>-1</valuemin>
										<valuemax>1</valuemax>
										<value>0</value>
									</parameter>
								</effect>
							</filter>
						<link>
							<linkclipref>clipitem-396</linkclipref>
							<mediatype>audio</mediatype>
							<trackindex>7</trackindex>
							<clipindex>2</clipindex>
							<groupindex>1</groupindex>
						</link>
						<link>
							<linkclipref>clipitem-398</linkclipref>
							<mediatype>audio</mediatype>
							<trackindex>8</trackindex>
							<clipindex>2</clipindex>
							<groupindex>1</groupindex>
						</link>
						<logginginfo>
							<description></description>
							<scene></scene>
							<shottake></shottake>
							<lognote>CD Track 10 archiveNo[186902011]</lognote>
						</logginginfo>
						<labels>
							<label2>Caribbean</label2>
						</labels>
					</clipitem>
					<enabled>TRUE</enabled>
					<locked>FALSE</locked>
					<outputchannelindex>1</outputchannelindex>
				</track>
				<track TL.SQTrackAudioKeyframeStyle="0" TL.SQTrackShy="0" TL.SQTrackExpandedHeight="115" TL.SQTrackExpanded="1" MZ.TrackTargeted="1" MZ.TrackName="Musikk 1 stereo" PannerCurrentValue="0.5" PannerIsInverted="true" PannerStartKeyframe="-91445760000000000,0.5,0,0,0,0,0,0" PannerName="Balance" currentExplodedTrackIndex="1" totalExplodedTrackCount="2" premiereTrackType="Stereo">
					<clipitem id="clipitem-397" frameBlend="FALSE" PannerCurrentValue="0.5" PannerKeyframes="" PannerStartKeyframe="-91445760000000000,0.5,0,0,0,0,0,0" PannerIsInverted="true" PannerName="Balance">
						<masterclipid>masterclip-84</masterclipid>
						<name>NONRE609619HD0006 Down the Road (Irfane Remix).wav</name>
						<enabled>TRUE</enabled>
						<duration>9349</duration>
						<rate>
							<timebase>25</timebase>
							<ntsc>FALSE</ntsc>
						</rate>
						<start>0</start>
						<end>505</end>
						<in>0</in>
						<out>505</out>
						<file id="file-76"/>
						<sourcetrack>
							<mediatype>audio</mediatype>
							<trackindex>2</trackindex>
						</sourcetrack>
							<filter>
								<effect>
									<name>Audio Pan</name>
									<effectid>audiopan</effectid>
									<effectcategory>audiopan</effectcategory>
									<effecttype>audiopan</effecttype>
									<mediatype>audio</mediatype>
									<parameter authoringApp="PremierePro">
										<parameterid>pan</parameterid>
										<name>Pan</name>
										<valuemin>-1</valuemin>
										<valuemax>1</valuemax>
										<value>0</value>
									</parameter>
								</effect>
							</filter>
						<link>
							<linkclipref>clipitem-395</linkclipref>
							<mediatype>audio</mediatype>
							<trackindex>7</trackindex>
							<clipindex>1</clipindex>
							<groupindex>1</groupindex>
						</link>
						<link>
							<linkclipref>clipitem-397</linkclipref>
							<mediatype>audio</mediatype>
							<trackindex>8</trackindex>
							<clipindex>1</clipindex>
							<groupindex>1</groupindex>
						</link>
						<logginginfo>
							<description></description>
							<scene></scene>
							<shottake></shottake>
							<lognote></lognote>
						</logginginfo>
						<labels>
							<label2>Caribbean</label2>
						</labels>
					</clipitem>
					<clipitem id="clipitem-398" frameBlend="FALSE" PannerCurrentValue="0.5" PannerKeyframes="" PannerStartKeyframe="-91445760000000000,0.5,0,0,0,0,0,0" PannerIsInverted="true" PannerName="Balance">
						<masterclipid>masterclip-85</masterclipid>
						<name>NONRO186902CD0010 Cold Waters.wav</name>
						<enabled>TRUE</enabled>
						<duration>6454</duration>
						<rate>
							<timebase>25</timebase>
							<ntsc>FALSE</ntsc>
						</rate>
						<start>505</start>
						<end>4579</end>
						<in>0</in>
						<out>4074</out>
						<file id="file-77"/>
						<sourcetrack>
							<mediatype>audio</mediatype>
							<trackindex>2</trackindex>
						</sourcetrack>
							<filter>
								<effect>
									<name>Audio Pan</name>
									<effectid>audiopan</effectid>
									<effectcategory>audiopan</effectcategory>
									<effecttype>audiopan</effecttype>
									<mediatype>audio</mediatype>
									<parameter authoringApp="PremierePro">
										<parameterid>pan</parameterid>
										<name>Pan</name>
										<valuemin>-1</valuemin>
										<valuemax>1</valuemax>
										<value>0</value>
									</parameter>
								</effect>
							</filter>
						<link>
							<linkclipref>clipitem-396</linkclipref>
							<mediatype>audio</mediatype>
							<trackindex>7</trackindex>
							<clipindex>2</clipindex>
							<groupindex>1</groupindex>
						</link>
						<link>
							<linkclipref>clipitem-398</linkclipref>
							<mediatype>audio</mediatype>
							<trackindex>8</trackindex>
							<clipindex>2</clipindex>
							<groupindex>1</groupindex>
						</link>
						<logginginfo>
							<description></description>
							<scene></scene>
							<shottake></shottake>
							<lognote>CD Track 10 archiveNo[186902011]</lognote>
						</logginginfo>
						<labels>
							<label2>Caribbean</label2>
						</labels>
					</clipitem>
					<enabled>TRUE</enabled>
					<locked>FALSE</locked>
					<outputchannelindex>2</outputchannelindex>
				</track>
				<track TL.SQTrackAudioKeyframeStyle="0" TL.SQTrackShy="0" TL.SQTrackExpandedHeight="25" TL.SQTrackExpanded="1" MZ.TrackTargeted="0" MZ.TrackName="Musikk 2 stereo" PannerCurrentValue="0.5" PannerIsInverted="true" PannerStartKeyframe="-91445760000000000,0.5,0,0,0,0,0,0" PannerName="Balance" currentExplodedTrackIndex="0" totalExplodedTrackCount="2" premiereTrackType="Stereo">
					<enabled>TRUE</enabled>
					<locked>FALSE</locked>
					<outputchannelindex>1</outputchannelindex>
				</track>
				<track TL.SQTrackAudioKeyframeStyle="0" TL.SQTrackShy="0" TL.SQTrackExpandedHeight="25" TL.SQTrackExpanded="1" MZ.TrackTargeted="0" MZ.TrackName="Musikk 2 stereo" PannerCurrentValue="0.5" PannerIsInverted="true" PannerStartKeyframe="-91445760000000000,0.5,0,0,0,0,0,0" PannerName="Balance" currentExplodedTrackIndex="1" totalExplodedTrackCount="2" premiereTrackType="Stereo">
					<enabled>TRUE</enabled>
					<locked>FALSE</locked>
					<outputchannelindex>2</outputchannelindex>
				</track>
				<track TL.SQTrackAudioKeyframeStyle="0" TL.SQTrackShy="0" TL.SQTrackExpandedHeight="98" TL.SQTrackExpanded="1" MZ.TrackTargeted="0" MZ.TrackName="Vignett stereo" PannerCurrentValue="0.5" PannerIsInverted="true" PannerStartKeyframe="-91445760000000000,0.5,0,0,0,0,0,0" PannerName="Balance" currentExplodedTrackIndex="0" totalExplodedTrackCount="2" premiereTrackType="Stereo">
					<enabled>TRUE</enabled>
					<locked>FALSE</locked>
					<outputchannelindex>1</outputchannelindex>
				</track>
				<track TL.SQTrackAudioKeyframeStyle="0" TL.SQTrackShy="0" TL.SQTrackExpandedHeight="98" TL.SQTrackExpanded="1" MZ.TrackTargeted="0" MZ.TrackName="Vignett stereo" PannerCurrentValue="0.5" PannerIsInverted="true" PannerStartKeyframe="-91445760000000000,0.5,0,0,0,0,0,0" PannerName="Balance" currentExplodedTrackIndex="1" totalExplodedTrackCount="2" premiereTrackType="Stereo">
					<enabled>TRUE</enabled>
					<locked>FALSE</locked>
					<outputchannelindex>2</outputchannelindex>
				</track>
				<track monotrack="TRUE" TL.SQTrackAudioKeyframeStyle="0" TL.SQTrackShy="0" TL.SQTrackExpandedHeight="65" TL.SQTrackExpanded="1" MZ.TrackTargeted="1" MZ.TrackName="Kom mono" PannerCurrentValue="0.5" PannerIsInverted="true" PannerStartKeyframe="-91445760000000000,0.5,0,0,0,0,0,0" PannerName="Pan" currentExplodedTrackIndex="0" totalExplodedTrackCount="1" premiereTrackType="Mono">
					<clipitem id="clipitem-399" frameBlend="FALSE">
						<masterclipid>masterclip-86</masterclipid>
						<name>Kom mono_158.wav</name>
						<enabled>TRUE</enabled>
						<duration>703</duration>
						<rate>
							<timebase>25</timebase>
							<ntsc>FALSE</ntsc>
						</rate>
						<start>0</start>
						<end>506</end>
						<in>14</in>
						<out>520</out>
						<file id="file-78">
							<name>Kom mono_158.wav</name>
							<pathurl>file://localhost/Volumes/Brakka/AdobeLager/DefaultCaptureScratch/Kom%20mono_158.wav</pathurl>
							<rate>
								<timebase>30</timebase>
								<ntsc>TRUE</ntsc>
							</rate>
							<duration>842</duration>
							<timecode>
								<rate>
									<timebase>30</timebase>
									<ntsc>TRUE</ntsc>
								</rate>
								<string>00;00;00;00</string>
								<frame>0</frame>
								<displayformat>DF</displayformat>
								<reel>
									<name></name>
								</reel>
							</timecode>
							<media>
								<audio>
									<samplecharacteristics>
										<depth>16</depth>
										<samplerate>48000</samplerate>
									</samplecharacteristics>
									<channelcount>1</channelcount>
									<layout>mono</layout>
									<audiochannel>
										<sourcechannel>1</sourcechannel>
										<channellabel>discrete</channellabel>
									</audiochannel>
								</audio>
							</media>
						</file>
						<sourcetrack>
							<mediatype>audio</mediatype>
							<trackindex>1</trackindex>
						</sourcetrack>
							<filter>
								<effect>
									<name>Gain</name>
									<effectid>{61756678, 4761696e, 4b657947}</effectid>
									<effecttype>filter</effecttype>
									<mediatype>audio</mediatype>
									<parameter authoringApp="PremierePro">
										<parameterid>Gain(dB)</parameterid>
										<name>Gain(dB)</name>
										<valuemin>-96</valuemin>
										<valuemax>96</valuemax>
										<value>7</value>
									</parameter>
								</effect>
							</filter>
						<logginginfo>
							<description></description>
							<scene></scene>
							<shottake></shottake>
							<lognote></lognote>
						</logginginfo>
						<labels>
							<label2>Caribbean</label2>
						</labels>
					</clipitem>
					<clipitem id="clipitem-400" frameBlend="FALSE">
						<masterclipid>masterclip-86</masterclipid>
						<name>Kom mono_158.wav</name>
						<enabled>TRUE</enabled>
						<duration>703</duration>
						<rate>
							<timebase>25</timebase>
							<ntsc>FALSE</ntsc>
						</rate>
						<start>515</start>
						<end>579</end>
						<in>523</in>
						<out>587</out>
						<file id="file-78"/>
						<sourcetrack>
							<mediatype>audio</mediatype>
							<trackindex>1</trackindex>
						</sourcetrack>
							<filter>
								<effect>
									<name>Gain</name>
									<effectid>{61756678, 4761696e, 4b657947}</effectid>
									<effecttype>filter</effecttype>
									<mediatype>audio</mediatype>
									<parameter authoringApp="PremierePro">
										<parameterid>Gain(dB)</parameterid>
										<name>Gain(dB)</name>
										<valuemin>-96</valuemin>
										<valuemax>96</valuemax>
										<value>7</value>
									</parameter>
								</effect>
							</filter>
						<logginginfo>
							<description></description>
							<scene></scene>
							<shottake></shottake>
							<lognote></lognote>
						</logginginfo>
						<labels>
							<label2>Caribbean</label2>
						</labels>
					</clipitem>
					<clipitem id="clipitem-401" frameBlend="FALSE">
						<masterclipid>masterclip-86</masterclipid>
						<name>Kom mono_158.wav</name>
						<enabled>TRUE</enabled>
						<duration>703</duration>
						<rate>
							<timebase>25</timebase>
							<ntsc>FALSE</ntsc>
						</rate>
						<start>579</start>
						<end>695</end>
						<in>587</in>
						<out>703</out>
						<file id="file-78"/>
						<sourcetrack>
							<mediatype>audio</mediatype>
							<trackindex>1</trackindex>
						</sourcetrack>
							<filter>
								<effect>
									<name>Gain</name>
									<effectid>{61756678, 4761696e, 4b657947}</effectid>
									<effecttype>filter</effecttype>
									<mediatype>audio</mediatype>
									<parameter authoringApp="PremierePro">
										<parameterid>Gain(dB)</parameterid>
										<name>Gain(dB)</name>
										<valuemin>-96</valuemin>
										<valuemax>96</valuemax>
										<value>7</value>
									</parameter>
								</effect>
							</filter>
						<logginginfo>
							<description></description>
							<scene></scene>
							<shottake></shottake>
							<lognote></lognote>
						</logginginfo>
						<labels>
							<label2>Caribbean</label2>
						</labels>
					</clipitem>
					<clipitem id="clipitem-402" frameBlend="FALSE">
						<masterclipid>masterclip-87</masterclipid>
						<name>Kom mono_162.wav</name>
						<enabled>TRUE</enabled>
						<duration>601</duration>
						<rate>
							<timebase>25</timebase>
							<ntsc>FALSE</ntsc>
						</rate>
						<start>1128</start>
						<end>1297</end>
						<in>42</in>
						<out>211</out>
						<file id="file-79">
							<name>Kom mono_162.wav</name>
							<pathurl>file://localhost/Volumes/Brakka/AdobeLager/DefaultCaptureScratch/Kom%20mono_162.wav</pathurl>
							<rate>
								<timebase>30</timebase>
								<ntsc>TRUE</ntsc>
							</rate>
							<duration>720</duration>
							<timecode>
								<rate>
									<timebase>30</timebase>
									<ntsc>TRUE</ntsc>
								</rate>
								<string>00;00;00;00</string>
								<frame>0</frame>
								<displayformat>DF</displayformat>
								<reel>
									<name></name>
								</reel>
							</timecode>
							<media>
								<audio>
									<samplecharacteristics>
										<depth>16</depth>
										<samplerate>48000</samplerate>
									</samplecharacteristics>
									<channelcount>1</channelcount>
									<layout>mono</layout>
									<audiochannel>
										<sourcechannel>1</sourcechannel>
										<channellabel>discrete</channellabel>
									</audiochannel>
								</audio>
							</media>
						</file>
						<sourcetrack>
							<mediatype>audio</mediatype>
							<trackindex>1</trackindex>
						</sourcetrack>
							<filter>
								<effect>
									<name>Gain</name>
									<effectid>{61756678, 4761696e, 4b657947}</effectid>
									<effecttype>filter</effecttype>
									<mediatype>audio</mediatype>
									<parameter authoringApp="PremierePro">
										<parameterid>Gain(dB)</parameterid>
										<name>Gain(dB)</name>
										<valuemin>-96</valuemin>
										<valuemax>96</valuemax>
										<value>7</value>
									</parameter>
								</effect>
							</filter>
						<logginginfo>
							<description></description>
							<scene></scene>
							<shottake></shottake>
							<lognote></lognote>
						</logginginfo>
						<labels>
							<label2>Caribbean</label2>
						</labels>
					</clipitem>
					<clipitem id="clipitem-403" frameBlend="FALSE">
						<masterclipid>masterclip-87</masterclipid>
						<name>Kom mono_162.wav</name>
						<enabled>TRUE</enabled>
						<duration>601</duration>
						<rate>
							<timebase>25</timebase>
							<ntsc>FALSE</ntsc>
						</rate>
						<start>1344</start>
						<end>1593</end>
						<in>211</in>
						<out>460</out>
						<file id="file-79"/>
						<sourcetrack>
							<mediatype>audio</mediatype>
							<trackindex>1</trackindex>
						</sourcetrack>
							<filter>
								<effect>
									<name>Gain</name>
									<effectid>{61756678, 4761696e, 4b657947}</effectid>
									<effecttype>filter</effecttype>
									<mediatype>audio</mediatype>
									<parameter authoringApp="PremierePro">
										<parameterid>Gain(dB)</parameterid>
										<name>Gain(dB)</name>
										<valuemin>-96</valuemin>
										<valuemax>96</valuemax>
										<value>7</value>
									</parameter>
								</effect>
							</filter>
						<logginginfo>
							<description></description>
							<scene></scene>
							<shottake></shottake>
							<lognote></lognote>
						</logginginfo>
						<labels>
							<label2>Caribbean</label2>
						</labels>
					</clipitem>
					<clipitem id="clipitem-404" frameBlend="FALSE">
						<masterclipid>masterclip-88</masterclipid>
						<name>Kom mono_165.wav</name>
						<enabled>TRUE</enabled>
						<duration>308</duration>
						<rate>
							<timebase>25</timebase>
							<ntsc>FALSE</ntsc>
						</rate>
						<start>1667</start>
						<end>1975</end>
						<in>0</in>
						<out>308</out>
						<file id="file-80">
							<name>Kom mono_165.wav</name>
							<pathurl>file://localhost/Volumes/Brakka/AdobeLager/DefaultCaptureScratch/Kom%20mono_165.wav</pathurl>
							<rate>
								<timebase>30</timebase>
								<ntsc>TRUE</ntsc>
							</rate>
							<duration>369</duration>
							<timecode>
								<rate>
									<timebase>30</timebase>
									<ntsc>TRUE</ntsc>
								</rate>
								<string>00;00;00;00</string>
								<frame>0</frame>
								<displayformat>DF</displayformat>
								<reel>
									<name></name>
								</reel>
							</timecode>
							<media>
								<audio>
									<samplecharacteristics>
										<depth>16</depth>
										<samplerate>48000</samplerate>
									</samplecharacteristics>
									<channelcount>1</channelcount>
									<layout>mono</layout>
									<audiochannel>
										<sourcechannel>1</sourcechannel>
										<channellabel>discrete</channellabel>
									</audiochannel>
								</audio>
							</media>
						</file>
						<sourcetrack>
							<mediatype>audio</mediatype>
							<trackindex>1</trackindex>
						</sourcetrack>
							<filter>
								<effect>
									<name>Gain</name>
									<effectid>{61756678, 4761696e, 4b657947}</effectid>
									<effecttype>filter</effecttype>
									<mediatype>audio</mediatype>
									<parameter authoringApp="PremierePro">
										<parameterid>Gain(dB)</parameterid>
										<name>Gain(dB)</name>
										<valuemin>-96</valuemin>
										<valuemax>96</valuemax>
										<value>7</value>
									</parameter>
								</effect>
							</filter>
						<logginginfo>
							<description></description>
							<scene></scene>
							<shottake></shottake>
							<lognote></lognote>
						</logginginfo>
						<labels>
							<label2>Caribbean</label2>
						</labels>
					</clipitem>
					<clipitem id="clipitem-405" frameBlend="FALSE">
						<masterclipid>masterclip-89</masterclipid>
						<name>Kom mono_167.wav</name>
						<enabled>TRUE</enabled>
						<duration>471</duration>
						<rate>
							<timebase>25</timebase>
							<ntsc>FALSE</ntsc>
						</rate>
						<start>3130</start>
						<end>3301</end>
						<in>32</in>
						<out>203</out>
						<file id="file-81">
							<name>Kom mono_167.wav</name>
							<pathurl>file://localhost/Volumes/Brakka/AdobeLager/DefaultCaptureScratch/Kom%20mono_167.wav</pathurl>
							<rate>
								<timebase>30</timebase>
								<ntsc>TRUE</ntsc>
							</rate>
							<duration>564</duration>
							<timecode>
								<rate>
									<timebase>30</timebase>
									<ntsc>TRUE</ntsc>
								</rate>
								<string>00;00;00;00</string>
								<frame>0</frame>
								<displayformat>DF</displayformat>
								<reel>
									<name></name>
								</reel>
							</timecode>
							<media>
								<audio>
									<samplecharacteristics>
										<depth>16</depth>
										<samplerate>48000</samplerate>
									</samplecharacteristics>
									<channelcount>1</channelcount>
									<layout>mono</layout>
									<audiochannel>
										<sourcechannel>1</sourcechannel>
										<channellabel>discrete</channellabel>
									</audiochannel>
								</audio>
							</media>
						</file>
						<sourcetrack>
							<mediatype>audio</mediatype>
							<trackindex>1</trackindex>
						</sourcetrack>
							<filter>
								<effect>
									<name>Gain</name>
									<effectid>{61756678, 4761696e, 4b657947}</effectid>
									<effecttype>filter</effecttype>
									<mediatype>audio</mediatype>
									<parameter authoringApp="PremierePro">
										<parameterid>Gain(dB)</parameterid>
										<name>Gain(dB)</name>
										<valuemin>-96</valuemin>
										<valuemax>96</valuemax>
										<value>7</value>
									</parameter>
								</effect>
							</filter>
						<logginginfo>
							<description></description>
							<scene></scene>
							<shottake></shottake>
							<lognote></lognote>
						</logginginfo>
						<labels>
							<label2>Caribbean</label2>
						</labels>
					</clipitem>
					<clipitem id="clipitem-406" frameBlend="FALSE">
						<masterclipid>masterclip-89</masterclipid>
						<name>Kom mono_167.wav</name>
						<enabled>TRUE</enabled>
						<duration>471</duration>
						<rate>
							<timebase>25</timebase>
							<ntsc>FALSE</ntsc>
						</rate>
						<start>3346</start>
						<end>3614</end>
						<in>203</in>
						<out>471</out>
						<file id="file-81"/>
						<sourcetrack>
							<mediatype>audio</mediatype>
							<trackindex>1</trackindex>
						</sourcetrack>
							<filter>
								<effect>
									<name>Gain</name>
									<effectid>{61756678, 4761696e, 4b657947}</effectid>
									<effecttype>filter</effecttype>
									<mediatype>audio</mediatype>
									<parameter authoringApp="PremierePro">
										<parameterid>Gain(dB)</parameterid>
										<name>Gain(dB)</name>
										<valuemin>-96</valuemin>
										<valuemax>96</valuemax>
										<value>7</value>
									</parameter>
								</effect>
							</filter>
						<logginginfo>
							<description></description>
							<scene></scene>
							<shottake></shottake>
							<lognote></lognote>
						</logginginfo>
						<labels>
							<label2>Caribbean</label2>
						</labels>
					</clipitem>
					<enabled>TRUE</enabled>
					<locked>FALSE</locked>
					<outputchannelindex>1</outputchannelindex>
				</track>
			</audio>
		</media>
		<timecode>
			<rate>
				<timebase>25</timebase>
				<ntsc>FALSE</ntsc>
			</rate>
			<string>00:00:00:00</string>
			<frame>0</frame>
			<displayformat>NDF</displayformat>
		</timecode>
		<labels>
			<label2>Forest</label2>
		</labels>
	</sequence>
</xmeml>
