<?xml version="1.0" encoding="UTF-8"?>
<!DOCTYPE xmeml>
<!-- FCP version 1.0.9.7 -->
<xmeml version="3">
  <project>
    <name>Norden-Aktuelt-3</name>
    <children>
      <bin>
        <name>Source Clips</name>
        <children>
          <clip id="njål3-eckbo3_p0">
            <name>njål3-eckbo3_p0</name>
            <duration>29640</duration>
            <rate>
              <ntsc>False</ntsc>
              <timebase>25</timebase>
            </rate>
            <masterclipid>njål3-eckbo3_p0</masterclipid>
            <ismasterclip>TRUE</ismasterclip>
            <logginginfo>
              <description>FALE010395-AR-199507634</description>
              <lognote />
            </logginginfo>
            <comments>
              <mastercomment1>2015;CLIP;KULTUR;n17893;OPROBROWSER;OPROKEYFRAMES;OPROMGRID;WEEK41;_FRIST_PASSERT_VO_OPRO;_MERKET_OPRO;BR_NJÅL_MKUA_OPRO;</mastercomment1>
              <mastercomment2 />
              <mastercomment3 />
              <mastercomment4 />
            </comments>
            <media>
              <video>
                <track>
                  <clipitem>
                    <name>njål3-eckbo3_p0</name>
                    <anamorphic>TRUE</anamorphic>
                  </clipitem>
                </track>
              </video>
            </media>
            <file id="njål3-eckbo3_p01">
              <name>njål3-eckbo3_p0</name>
              <pathurl>file://localhost/Volumes/omfs/clip.dir/MXF/576i/nj%C3%A5l3-eckbo3_p0.mxf</pathurl>
              <timecode>
                <string>00:00:00:00</string>
                <frame>0</frame>
                <displayformat>NDF</displayformat>
                <source>source</source>
              </timecode>
            </file>
          </clip>
        </children>
      </bin>
      <sequence>
        <name>Norden-Aktuelt-3</name>
        <duration>29640</duration>
        <rate>
          <ntsc>False</ntsc>
          <timebase>25</timebase>
        </rate>
        <media>
          <video>
            <track>
              <clipitem>
                <name>njål3-eckbo3_p0</name>
                <duration>29640</duration>
                <rate>
                  <ntsc>False</ntsc>
                  <timebase>25</timebase>
                </rate>
                <in>0</in>
                <out>29640</out>
                <masterclipid>njål3-eckbo3_p0</masterclipid>
                <start>0</start>
                <end>29640</end>
                <link>
                  <mediatype>video</mediatype>
                  <trackindex>1</trackindex>
                  <clipindex>1</clipindex>
                </link>
                <link>
                  <mediatype>audio</mediatype>
                  <trackindex>1</trackindex>
                  <clipindex>1</clipindex>
                  <groupindex>1</groupindex>
                </link>
                <link>
                  <mediatype>audio</mediatype>
                  <trackindex>2</trackindex>
                  <clipindex>1</clipindex>
                  <groupindex>1</groupindex>
                </link>
                <link>
                  <mediatype>audio</mediatype>
                  <trackindex>3</trackindex>
                  <clipindex>1</clipindex>
                  <groupindex>1</groupindex>
                </link>
                <link>
                  <mediatype>audio</mediatype>
                  <trackindex>4</trackindex>
                  <clipindex>1</clipindex>
                  <groupindex>1</groupindex>
                </link>
                <link>
                  <mediatype>audio</mediatype>
                  <trackindex>5</trackindex>
                  <clipindex>1</clipindex>
                  <groupindex>1</groupindex>
                </link>
                <link>
                  <mediatype>audio</mediatype>
                  <trackindex>6</trackindex>
                  <clipindex>1</clipindex>
                  <groupindex>1</groupindex>
                </link>
                <link>
                  <mediatype>audio</mediatype>
                  <trackindex>7</trackindex>
                  <clipindex>1</clipindex>
                  <groupindex>1</groupindex>
                </link>
                <link>
                  <mediatype>audio</mediatype>
                  <trackindex>8</trackindex>
                  <clipindex>1</clipindex>
                  <groupindex>1</groupindex>
                </link>
                <file id="njål3-eckbo3_p01">
                  <name>njål3-eckbo3_p0</name>
                  <pathurl>file://localhost/Volumes/omfs/clip.dir/MXF/576i/nj%C3%A5l3-eckbo3_p0.mxf</pathurl>
                  <timecode>
                    <string>00:00:00:00</string>
                    <frame>0</frame>
                    <displayformat>NDF</displayformat>
                    <source>source</source>
                  </timecode>
                </file>
              </clipitem>
            </track>
          </video>
          <audio>
            <track>
              <clipitem>
                <name>njål3-eckbo3_p0</name>
                <duration>29640</duration>
                <rate>
                  <ntsc>False</ntsc>
                  <timebase>25</timebase>
                </rate>
                <in>0</in>
                <out>29640</out>
                <masterclipid>njål3-eckbo3_p0</masterclipid>
                <start>0</start>
                <end>29640</end>
                <sourcetrack>
                  <mediatype>audio</mediatype>
                  <trackindex>1</trackindex>
                </sourcetrack>
                <file id="njål3-eckbo3_p01">
                  <name>njål3-eckbo3_p0</name>
                  <pathurl>file://localhost/Volumes/omfs/clip.dir/MXF/576i/nj%C3%A5l3-eckbo3_p0.mxf</pathurl>
                  <timecode>
                    <string>00:00:00:00</string>
                    <frame>0</frame>
                    <displayformat>NDF</displayformat>
                    <source>source</source>
                  </timecode>
                </file>
              </clipitem>
            </track>
            <track>
              <clipitem>
                <name>njål3-eckbo3_p0</name>
                <duration>29640</duration>
                <rate>
                  <ntsc>False</ntsc>
                  <timebase>25</timebase>
                </rate>
                <in>0</in>
                <out>29640</out>
                <masterclipid>njål3-eckbo3_p0</masterclipid>
                <start>0</start>
                <end>29640</end>
                <sourcetrack>
                  <mediatype>audio</mediatype>
                  <trackindex>2</trackindex>
                </sourcetrack>
                <file id="njål3-eckbo3_p01">
                  <name>njål3-eckbo3_p0</name>
                  <pathurl>file://localhost/Volumes/omfs/clip.dir/MXF/576i/nj%C3%A5l3-eckbo3_p0.mxf</pathurl>
                  <timecode>
                    <string>00:00:00:00</string>
                    <frame>0</frame>
                    <displayformat>NDF</displayformat>
                    <source>source</source>
                  </timecode>
                </file>
              </clipitem>
            </track>
            <track>
              <clipitem>
                <name>njål3-eckbo3_p0</name>
                <duration>29640</duration>
                <rate>
                  <ntsc>False</ntsc>
                  <timebase>25</timebase>
                </rate>
                <in>0</in>
                <out>29640</out>
                <masterclipid>njål3-eckbo3_p0</masterclipid>
                <start>0</start>
                <end>29640</end>
                <sourcetrack>
                  <mediatype>audio</mediatype>
                  <trackindex>3</trackindex>
                </sourcetrack>
                <file id="njål3-eckbo3_p01">
                  <name>njål3-eckbo3_p0</name>
                  <pathurl>file://localhost/Volumes/omfs/clip.dir/MXF/576i/nj%C3%A5l3-eckbo3_p0.mxf</pathurl>
                  <timecode>
                    <string>00:00:00:00</string>
                    <frame>0</frame>
                    <displayformat>NDF</displayformat>
                    <source>source</source>
                  </timecode>
                </file>
              </clipitem>
            </track>
            <track>
              <clipitem>
                <name>njål3-eckbo3_p0</name>
                <duration>29640</duration>
                <rate>
                  <ntsc>False</ntsc>
                  <timebase>25</timebase>
                </rate>
                <in>0</in>
                <out>29640</out>
                <masterclipid>njål3-eckbo3_p0</masterclipid>
                <start>0</start>
                <end>29640</end>
                <sourcetrack>
                  <mediatype>audio</mediatype>
                  <trackindex>4</trackindex>
                </sourcetrack>
                <file id="njål3-eckbo3_p01">
                  <name>njål3-eckbo3_p0</name>
                  <pathurl>file://localhost/Volumes/omfs/clip.dir/MXF/576i/nj%C3%A5l3-eckbo3_p0.mxf</pathurl>
                  <timecode>
                    <string>00:00:00:00</string>
                    <frame>0</frame>
                    <displayformat>NDF</displayformat>
                    <source>source</source>
                  </timecode>
                </file>
              </clipitem>
            </track>
            <track>
              <clipitem>
                <name>njål3-eckbo3_p0</name>
                <duration>29640</duration>
                <rate>
                  <ntsc>False</ntsc>
                  <timebase>25</timebase>
                </rate>
                <in>0</in>
                <out>29640</out>
                <masterclipid>njål3-eckbo3_p0</masterclipid>
                <start>0</start>
                <end>29640</end>
                <sourcetrack>
                  <mediatype>audio</mediatype>
                  <trackindex>5</trackindex>
                </sourcetrack>
                <file id="njål3-eckbo3_p01">
                  <name>njål3-eckbo3_p0</name>
                  <pathurl>file://localhost/Volumes/omfs/clip.dir/MXF/576i/nj%C3%A5l3-eckbo3_p0.mxf</pathurl>
                  <timecode>
                    <string>00:00:00:00</string>
                    <frame>0</frame>
                    <displayformat>NDF</displayformat>
                    <source>source</source>
                  </timecode>
                </file>
              </clipitem>
            </track>
            <track>
              <clipitem>
                <name>njål3-eckbo3_p0</name>
                <duration>29640</duration>
                <rate>
                  <ntsc>False</ntsc>
                  <timebase>25</timebase>
                </rate>
                <in>0</in>
                <out>29640</out>
                <masterclipid>njål3-eckbo3_p0</masterclipid>
                <start>0</start>
                <end>29640</end>
                <sourcetrack>
                  <mediatype>audio</mediatype>
                  <trackindex>6</trackindex>
                </sourcetrack>
                <file id="njål3-eckbo3_p01">
                  <name>njål3-eckbo3_p0</name>
                  <pathurl>file://localhost/Volumes/omfs/clip.dir/MXF/576i/nj%C3%A5l3-eckbo3_p0.mxf</pathurl>
                  <timecode>
                    <string>00:00:00:00</string>
                    <frame>0</frame>
                    <displayformat>NDF</displayformat>
                    <source>source</source>
                  </timecode>
                </file>
              </clipitem>
            </track>
            <track>
              <clipitem>
                <name>njål3-eckbo3_p0</name>
                <duration>29640</duration>
                <rate>
                  <ntsc>False</ntsc>
                  <timebase>25</timebase>
                </rate>
                <in>0</in>
                <out>29640</out>
                <masterclipid>njål3-eckbo3_p0</masterclipid>
                <start>0</start>
                <end>29640</end>
                <sourcetrack>
                  <mediatype>audio</mediatype>
                  <trackindex>7</trackindex>
                </sourcetrack>
                <file id="njål3-eckbo3_p01">
                  <name>njål3-eckbo3_p0</name>
                  <pathurl>file://localhost/Volumes/omfs/clip.dir/MXF/576i/nj%C3%A5l3-eckbo3_p0.mxf</pathurl>
                  <timecode>
                    <string>00:00:00:00</string>
                    <frame>0</frame>
                    <displayformat>NDF</displayformat>
                    <source>source</source>
                  </timecode>
                </file>
              </clipitem>
            </track>
            <track>
              <clipitem>
                <name>njål3-eckbo3_p0</name>
                <duration>29640</duration>
                <rate>
                  <ntsc>False</ntsc>
                  <timebase>25</timebase>
                </rate>
                <in>0</in>
                <out>29640</out>
                <masterclipid>njål3-eckbo3_p0</masterclipid>
                <start>0</start>
                <end>29640</end>
                <sourcetrack>
                  <mediatype>audio</mediatype>
                  <trackindex>8</trackindex>
                </sourcetrack>
                <file id="njål3-eckbo3_p01">
                  <name>njål3-eckbo3_p0</name>
                  <pathurl>file://localhost/Volumes/omfs/clip.dir/MXF/576i/nj%C3%A5l3-eckbo3_p0.mxf</pathurl>
                  <timecode>
                    <string>00:00:00:00</string>
                    <frame>0</frame>
                    <displayformat>NDF</displayformat>
                    <source>source</source>
                  </timecode>
                </file>
              </clipitem>
            </track>
          </audio>
        </media>
      </sequence>
    </children>
  </project>
</xmeml>