<?xml version="1.0" encoding="UTF-8"?>
<!DOCTYPE xmeml>
<xmeml version="1">
<sequence id="S03E08 Døden v3 NY til protools">
	<name>S03E08 Døden v3 NY til protools</name>
	<duration>29480</duration>
	<rate>
		<ntsc>FALSE</ntsc>
		<timebase>25</timebase>
	</rate>
	<timecode>
		<rate>
			<ntsc>FALSE</ntsc>
			<timebase>25</timebase>
		</rate>
		<string>00:00:00:00</string>
		<frame>0</frame>
		<source>source</source>
		<displayformat>NDF</displayformat>
	</timecode>
	<in>-1</in>
	<out>-1</out>
	<media>
		<video>
			<format>
				<samplecharacteristics>
					<width>1920</width>
					<height>1080</height>
					<anamorphic>FALSE</anamorphic>
					<pixelaspectratio>Square</pixelaspectratio>
					<fielddominance>upper</fielddominance>
					<rate>
						<ntsc>FALSE</ntsc>
						<timebase>25</timebase>
					</rate>
					<colordepth>24</colordepth>
					<codec>
						<name>Apple XDCAM 422 1080i50 (50 Mb/s CBR)</name>
						<appspecificdata>
							<appname>Final Cut Pro</appname>
							<appmanufacturer>Apple Inc.</appmanufacturer>
							<appversion>7.0</appversion>
							<data>
								<qtcodec>
									<codecname>Apple XDCAM 422 1080i50 (50 Mb/s CBR)</codecname>
									<codectypename>XDCAM 422 1080i50 (50 Mb/s CBR)</codectypename>
									<codectypecode>xd5c</codectypecode>
									<codecvendorcode>appl</codecvendorcode>
									<spatialquality>1023</spatialquality>
									<temporalquality>0</temporalquality>
									<keyframerate>0</keyframerate>
									<datarate>0</datarate>
								</qtcodec>
							</data>
						</appspecificdata>
					</codec>
				</samplecharacteristics>
				<appspecificdata>
					<appname>Final Cut Pro</appname>
					<appmanufacturer>Apple Inc.</appmanufacturer>
					<appversion>7.0</appversion>
					<data>
						<fcpimageprocessing>
							<useyuv>TRUE</useyuv>
							<usesuperwhite>FALSE</usesuperwhite>
							<rendermode>YUV8BPP</rendermode>
						</fcpimageprocessing>
					</data>
				</appspecificdata>
			</format>
			<track>
				<clipitem id="525_0298_01 ">
					<name>525_0298_01</name>
					<duration>165</duration>
					<rate>
						<ntsc>FALSE</ntsc>
						<timebase>25</timebase>
					</rate>
					<in>45</in>
					<out>117</out>
					<start>405</start>
					<end>477</end>
					<pixelaspectratio>Square</pixelaspectratio>
					<enabled>TRUE</enabled>
					<anamorphic>FALSE</anamorphic>
					<alphatype>none</alphatype>
					<masterclipid>525_0298_01 1</masterclipid>
					<logginginfo>
						<scene/>
						<shottake/>
						<lognote/>
						<good>FALSE</good>
					</logginginfo>
					<labels>
						<label2/>
					</labels>
					<comments>
						<mastercomment1/>
						<mastercomment2/>
						<mastercomment3/>
						<mastercomment4/>
					</comments>
					<file id="35_g1 ">
						<name>35_g1.mov</name>
						<pathurl>file://localhost/Volumes/Askepott/Final%20Cut%20Pro%20Documents/Color%20Renderfiles/Lam%20v1/35/35_g1.mov</pathurl>
						<rate>
							<timebase>25</timebase>
						</rate>
						<duration>165</duration>
						<timecode>
							<rate>
								<timebase>25</timebase>
							</rate>
							<string>11:12:39:06</string>
							<frame>1008981</frame>
							<displayformat>NDF</displayformat>
							<source>source</source>
							<reel>
								<name>Untitled</name>
							</reel>
						</timecode>
						<media>
							<video>
								<duration>165</duration>
								<samplecharacteristics>
									<width>1920</width>
									<height>1080</height>
								</samplecharacteristics>
							</video>
						</media>
					</file>
					<filter>
						<effect>
							<name>Distort</name>
							<effectid>deformation</effectid>
							<effectcategory>motion</effectcategory>
							<effecttype>motion</effecttype>
							<mediatype>video</mediatype>
							<parameter>
								<parameterid>ulcorner</parameterid>
								<name>Upper Left</name>
								<value>
									<horiz>-0.5</horiz>
									<vert>-0.5</vert>
								</value>
							</parameter>
							<parameter>
								<parameterid>urcorner</parameterid>
								<name>Upper Right</name>
								<value>
									<horiz>0.5</horiz>
									<vert>-0.5</vert>
								</value>
							</parameter>
							<parameter>
								<parameterid>lrcorner</parameterid>
								<name>Lower Right</name>
								<value>
									<horiz>0.5</horiz>
									<vert>0.5</vert>
								</value>
							</parameter>
							<parameter>
								<parameterid>llcorner</parameterid>
								<name>Lower Left</name>
								<value>
									<horiz>-0.5</horiz>
									<vert>0.5</vert>
								</value>
							</parameter>
							<parameter>
								<parameterid>aspect</parameterid>
								<name>Aspect</name>
								<valuemin>-10000</valuemin>
								<valuemax>10000</valuemax>
								<value>0</value>
							</parameter>
						</effect>
					</filter>
					<filter>
						<effect>
							<name>Basic Motion</name>
							<effectid>basic</effectid>
							<effectcategory>motion</effectcategory>
							<effecttype>motion</effecttype>
							<mediatype>video</mediatype>
							<parameter>
								<parameterid>scale</parameterid>
								<name>Scale</name>
								<valuemin>0</valuemin>
								<valuemax>1000</valuemax>
								<value>100</value>
							</parameter>
							<parameter>
								<parameterid>rotation</parameterid>
								<name>Rotation</name>
								<valuemin>-8640</valuemin>
								<valuemax>8640</valuemax>
								<value>0</value>
							</parameter>
							<parameter>
								<parameterid>center</parameterid>
								<name>Center</name>
								<value>
									<horiz>0</horiz>
									<vert>0</vert>
								</value>
							</parameter>
							<parameter>
								<parameterid>centerOffset</parameterid>
								<name>Anchor Point</name>
								<value>
									<horiz>0</horiz>
									<vert>0</vert>
								</value>
							</parameter>
						</effect>
					</filter>
					<filter>
						<start>-1</start>
						<end>-1</end>
						<effect>
							<name>G Vignette V2.5.1</name>
							<effectcategory>Nattress Film Effects - Image Effects</effectcategory>
							<effecttype>filter</effecttype>
							<mediatype>video</mediatype>
							<parameter>
								<parameterid>vignettevar</parameterid>
								<name>Vignette Controls</name>
								<value>string</value>
							</parameter>
							<parameter>
								<parameterid>rgbtinta</parameterid>
								<name>Vignette Colour A</name>
								<value>
									<alpha>0</alpha>
									<red>19</red>
									<green>22</green>
									<blue>134</blue>
								</value>
							</parameter>
							<parameter>
								<parameterid>rgbtintb</parameterid>
								<name>Vignette Colour B</name>
								<value>
									<alpha>0</alpha>
									<red>132</red>
									<green>218</green>
									<blue>255</blue>
								</value>
							</parameter>
							<parameter>
								<parameterid>mattebackground</parameterid>
								<name>Vignette Background</name>
								<valuemin>1</valuemin>
								<valuemax>4</valuemax>
								<valuelist>
									<valueentry>
										<name>Colour A on White</name>
										<value>1</value>
									</valueentry>
									<valueentry>
										<name>Colour A on Black</name>
										<value>2</value>
									</valueentry>
									<valueentry>
										<name>Colour A on Grey</name>
										<value>3</value>
									</valueentry>
									<valueentry>
										<name>Colour A on Colour B</name>
										<value>4</value>
									</valueentry>
								</valuelist>
								<value>1</value>
							</parameter>
							<parameter>
								<parameterid>shape</parameterid>
								<name>Shape</name>
								<valuemin>1</valuemin>
								<valuemax>3</valuemax>
								<valuelist>
									<valueentry>
										<name>Rectangle</name>
										<value>1</value>
									</valueentry>
									<valueentry>
										<name>Oval</name>
										<value>2</value>
									</valueentry>
									<valueentry>
										<name>Custom</name>
										<value>3</value>
									</valueentry>
								</valuelist>
								<value>2</value>
							</parameter>
							<parameter>
								<parameterid>vblur</parameterid>
								<name>Feather</name>
								<valuemin>0</valuemin>
								<valuemax>100</valuemax>
								<value>40</value>
							</parameter>
							<parameter>
								<parameterid>vblend</parameterid>
								<name>Amount</name>
								<valuemin>0</valuemin>
								<valuemax>100</valuemax>
								<value>20</value>
							</parameter>
							<parameter>
								<parameterid>applyas</parameterid>
								<name>Mode</name>
								<valuemin>1</valuemin>
								<valuemax>7</valuemax>
								<valuelist>
									<valueentry>
										<name>Normal</name>
										<value>1</value>
									</valueentry>
									<valueentry>
										<name>Multiply</name>
										<value>2</value>
									</valueentry>
									<valueentry>
										<name>Screen</name>
										<value>3</value>
									</valueentry>
									<valueentry>
										<name>Overlay</name>
										<value>4</value>
									</valueentry>
									<valueentry>
										<name>Lighten</name>
										<value>5</value>
									</valueentry>
									<valueentry>
										<name>Darken</name>
										<value>6</value>
									</valueentry>
									<valueentry>
										<name>Add</name>
										<value>7</value>
									</valueentry>
								</valuelist>
								<value>4</value>
							</parameter>
							<parameter>
								<parameterid>hq</parameterid>
								<name>Dither</name>
								<valuemin>1</valuemin>
								<valuemax>4</valuemax>
								<valuelist>
									<valueentry>
										<name>Off</name>
										<value>1</value>
									</valueentry>
									<valueentry>
										<name>Minimum</name>
										<value>2</value>
									</valueentry>
									<valueentry>
										<name>Medium</name>
										<value>3</value>
									</valueentry>
									<valueentry>
										<name>Strong</name>
										<value>4</value>
									</valueentry>
								</valuelist>
								<value>1</value>
							</parameter>
							<parameter>
								<parameterid>inverse</parameterid>
								<name>Invert?</name>
								<value>FALSE</value>
							</parameter>
							<parameter>
								<parameterid>diagnostics</parameterid>
								<name>Show Helper Outline</name>
								<value>FALSE</value>
							</parameter>
							<parameter>
								<parameterid>maskstuff</parameterid>
								<name>Shape Controls</name>
								<value>string</value>
							</parameter>
							<parameter>
								<parameterid>maskpolycentre</parameterid>
								<name>Shape Centre</name>
								<value>
									<horiz>0</horiz>
									<vert>0</vert>
								</value>
							</parameter>
							<parameter>
								<parameterid>rotoffset</parameterid>
								<name>Rotation</name>
								<valuemin>-360</valuemin>
								<valuemax>360</valuemax>
								<value>0</value>
							</parameter>
							<parameter>
								<parameterid>thescale</parameterid>
								<name>Scale</name>
								<valuemin>1</valuemin>
								<valuemax>200</valuemax>
								<value>117</value>
							</parameter>
							<parameter>
								<parameterid>vaspect</parameterid>
								<name>Aspect</name>
								<valuemin>0.1</valuemin>
								<valuemax>10</valuemax>
								<value>1.3</value>
							</parameter>
							<parameter>
								<parameterid>pathvar</parameterid>
								<name>Custom Shape Points</name>
								<value>string</value>
							</parameter>
							<parameter>
								<parameterid>editpoint</parameterid>
								<name>Point to Edit</name>
								<valuemin>1</valuemin>
								<valuemax>8</valuemax>
								<value>1</value>
							</parameter>
							<parameter>
								<parameterid>numpoints</parameterid>
								<name>Number of Points</name>
								<valuemin>3</valuemin>
								<valuemax>8</valuemax>
								<value>8</value>
							</parameter>
							<parameter>
								<parameterid>currentpoint</parameterid>
								<name>Current Point</name>
								<value>
									<horiz>0</horiz>
									<vert>0</vert>
								</value>
							</parameter>
							<parameter>
								<parameterid>pointsharp</parameterid>
								<name>Point Sharpness Toggle</name>
								<value>TRUE</value>
							</parameter>
							<parameter>
								<parameterid>blurvar</parameterid>
								<name>Blur Controls</name>
								<value>string</value>
							</parameter>
							<parameter>
								<parameterid>iblur</parameterid>
								<name>Image Blur</name>
								<valuemin>0</valuemin>
								<valuemax>100</valuemax>
								<value>0</value>
							</parameter>
							<parameter>
								<parameterid>sblur</parameterid>
								<name>Shape Blur</name>
								<valuemin>0</valuemin>
								<valuemax>100</valuemax>
								<value>35</value>
							</parameter>
							<parameter>
								<parameterid>copyright</parameterid>
								<name>© www.nattress.com</name>
								<value>string</value>
							</parameter>
						</effect>
					</filter>
					<sourcetrack>
						<mediatype>video</mediatype>
					</sourcetrack>
					<fielddominance>upper</fielddominance>
				</clipitem>
				<clipitem id="525_0298_01 2">
					<name>525_0298_01</name>
					<duration>116</duration>
					<rate>
						<ntsc>FALSE</ntsc>
						<timebase>25</timebase>
					</rate>
					<in>0</in>
					<out>61</out>
					<start>477</start>
					<end>-1</end>
					<pixelaspectratio>Square</pixelaspectratio>
					<enabled>TRUE</enabled>
					<anamorphic>FALSE</anamorphic>
					<alphatype>none</alphatype>
					<masterclipid>525_0298_01 3</masterclipid>
					<logginginfo>
						<scene/>
						<shottake/>
						<lognote/>
						<good>FALSE</good>
					</logginginfo>
					<labels>
						<label2/>
					</labels>
					<comments>
						<mastercomment1/>
						<mastercomment2/>
						<mastercomment3/>
						<mastercomment4/>
					</comments>
					<file id="52_g1 ">
						<name>52_g1.mov</name>
						<pathurl>file://localhost/Volumes/Askepott/Final%20Cut%20Pro%20Documents/Color%20Renderfiles/Lam%20v1/52/52_g1.mov</pathurl>
						<rate>
							<timebase>25</timebase>
						</rate>
						<duration>116</duration>
						<timecode>
							<rate>
								<timebase>25</timebase>
							</rate>
							<string>11:11:42:02</string>
							<frame>1007552</frame>
							<displayformat>NDF</displayformat>
							<source>source</source>
							<reel>
								<name>Untitled</name>
							</reel>
						</timecode>
						<media>
							<video>
								<duration>116</duration>
								<samplecharacteristics>
									<width>1920</width>
									<height>1080</height>
								</samplecharacteristics>
							</video>
						</media>
					</file>
					<filter>
						<effect>
							<name>Distort</name>
							<effectid>deformation</effectid>
							<effectcategory>motion</effectcategory>
							<effecttype>motion</effecttype>
							<mediatype>video</mediatype>
							<parameter>
								<parameterid>ulcorner</parameterid>
								<name>Upper Left</name>
								<value>
									<horiz>-0.5</horiz>
									<vert>-0.5</vert>
								</value>
							</parameter>
							<parameter>
								<parameterid>urcorner</parameterid>
								<name>Upper Right</name>
								<value>
									<horiz>0.5</horiz>
									<vert>-0.5</vert>
								</value>
							</parameter>
							<parameter>
								<parameterid>lrcorner</parameterid>
								<name>Lower Right</name>
								<value>
									<horiz>0.5</horiz>
									<vert>0.5</vert>
								</value>
							</parameter>
							<parameter>
								<parameterid>llcorner</parameterid>
								<name>Lower Left</name>
								<value>
									<horiz>-0.5</horiz>
									<vert>0.5</vert>
								</value>
							</parameter>
							<parameter>
								<parameterid>aspect</parameterid>
								<name>Aspect</name>
								<valuemin>-10000</valuemin>
								<valuemax>10000</valuemax>
								<value>0</value>
							</parameter>
						</effect>
					</filter>
					<filter>
						<effect>
							<name>Basic Motion</name>
							<effectid>basic</effectid>
							<effectcategory>motion</effectcategory>
							<effecttype>motion</effecttype>
							<mediatype>video</mediatype>
							<parameter>
								<parameterid>scale</parameterid>
								<name>Scale</name>
								<valuemin>0</valuemin>
								<valuemax>1000</valuemax>
								<value>100</value>
							</parameter>
							<parameter>
								<parameterid>rotation</parameterid>
								<name>Rotation</name>
								<valuemin>-8640</valuemin>
								<valuemax>8640</valuemax>
								<value>0</value>
							</parameter>
							<parameter>
								<parameterid>center</parameterid>
								<name>Center</name>
								<value>
									<horiz>0</horiz>
									<vert>0</vert>
								</value>
							</parameter>
							<parameter>
								<parameterid>centerOffset</parameterid>
								<name>Anchor Point</name>
								<value>
									<horiz>0</horiz>
									<vert>0</vert>
								</value>
							</parameter>
						</effect>
					</filter>
					<filter>
						<start>-1</start>
						<end>-1</end>
						<effect>
							<name>G Vignette V2.5.1</name>
							<effectcategory>Nattress Film Effects - Image Effects</effectcategory>
							<effecttype>filter</effecttype>
							<mediatype>video</mediatype>
							<parameter>
								<parameterid>vignettevar</parameterid>
								<name>Vignette Controls</name>
								<value>string</value>
							</parameter>
							<parameter>
								<parameterid>rgbtinta</parameterid>
								<name>Vignette Colour A</name>
								<value>
									<alpha>0</alpha>
									<red>19</red>
									<green>22</green>
									<blue>134</blue>
								</value>
							</parameter>
							<parameter>
								<parameterid>rgbtintb</parameterid>
								<name>Vignette Colour B</name>
								<value>
									<alpha>0</alpha>
									<red>132</red>
									<green>218</green>
									<blue>255</blue>
								</value>
							</parameter>
							<parameter>
								<parameterid>mattebackground</parameterid>
								<name>Vignette Background</name>
								<valuemin>1</valuemin>
								<valuemax>4</valuemax>
								<valuelist>
									<valueentry>
										<name>Colour A on White</name>
										<value>1</value>
									</valueentry>
									<valueentry>
										<name>Colour A on Black</name>
										<value>2</value>
									</valueentry>
									<valueentry>
										<name>Colour A on Grey</name>
										<value>3</value>
									</valueentry>
									<valueentry>
										<name>Colour A on Colour B</name>
										<value>4</value>
									</valueentry>
								</valuelist>
								<value>1</value>
							</parameter>
							<parameter>
								<parameterid>shape</parameterid>
								<name>Shape</name>
								<valuemin>1</valuemin>
								<valuemax>3</valuemax>
								<valuelist>
									<valueentry>
										<name>Rectangle</name>
										<value>1</value>
									</valueentry>
									<valueentry>
										<name>Oval</name>
										<value>2</value>
									</valueentry>
									<valueentry>
										<name>Custom</name>
										<value>3</value>
									</valueentry>
								</valuelist>
								<value>2</value>
							</parameter>
							<parameter>
								<parameterid>vblur</parameterid>
								<name>Feather</name>
								<valuemin>0</valuemin>
								<valuemax>100</valuemax>
								<value>40</value>
							</parameter>
							<parameter>
								<parameterid>vblend</parameterid>
								<name>Amount</name>
								<valuemin>0</valuemin>
								<valuemax>100</valuemax>
								<value>20</value>
							</parameter>
							<parameter>
								<parameterid>applyas</parameterid>
								<name>Mode</name>
								<valuemin>1</valuemin>
								<valuemax>7</valuemax>
								<valuelist>
									<valueentry>
										<name>Normal</name>
										<value>1</value>
									</valueentry>
									<valueentry>
										<name>Multiply</name>
										<value>2</value>
									</valueentry>
									<valueentry>
										<name>Screen</name>
										<value>3</value>
									</valueentry>
									<valueentry>
										<name>Overlay</name>
										<value>4</value>
									</valueentry>
									<valueentry>
										<name>Lighten</name>
										<value>5</value>
									</valueentry>
									<valueentry>
										<name>Darken</name>
										<value>6</value>
									</valueentry>
									<valueentry>
										<name>Add</name>
										<value>7</value>
									</valueentry>
								</valuelist>
								<value>4</value>
							</parameter>
							<parameter>
								<parameterid>hq</parameterid>
								<name>Dither</name>
								<valuemin>1</valuemin>
								<valuemax>4</valuemax>
								<valuelist>
									<valueentry>
										<name>Off</name>
										<value>1</value>
									</valueentry>
									<valueentry>
										<name>Minimum</name>
										<value>2</value>
									</valueentry>
									<valueentry>
										<name>Medium</name>
										<value>3</value>
									</valueentry>
									<valueentry>
										<name>Strong</name>
										<value>4</value>
									</valueentry>
								</valuelist>
								<value>1</value>
							</parameter>
							<parameter>
								<parameterid>inverse</parameterid>
								<name>Invert?</name>
								<value>FALSE</value>
							</parameter>
							<parameter>
								<parameterid>diagnostics</parameterid>
								<name>Show Helper Outline</name>
								<value>FALSE</value>
							</parameter>
							<parameter>
								<parameterid>maskstuff</parameterid>
								<name>Shape Controls</name>
								<value>string</value>
							</parameter>
							<parameter>
								<parameterid>maskpolycentre</parameterid>
								<name>Shape Centre</name>
								<value>
									<horiz>0</horiz>
									<vert>0</vert>
								</value>
							</parameter>
							<parameter>
								<parameterid>rotoffset</parameterid>
								<name>Rotation</name>
								<valuemin>-360</valuemin>
								<valuemax>360</valuemax>
								<value>0</value>
							</parameter>
							<parameter>
								<parameterid>thescale</parameterid>
								<name>Scale</name>
								<valuemin>1</valuemin>
								<valuemax>200</valuemax>
								<value>117</value>
							</parameter>
							<parameter>
								<parameterid>vaspect</parameterid>
								<name>Aspect</name>
								<valuemin>0.1</valuemin>
								<valuemax>10</valuemax>
								<value>1.3</value>
							</parameter>
							<parameter>
								<parameterid>pathvar</parameterid>
								<name>Custom Shape Points</name>
								<value>string</value>
							</parameter>
							<parameter>
								<parameterid>editpoint</parameterid>
								<name>Point to Edit</name>
								<valuemin>1</valuemin>
								<valuemax>8</valuemax>
								<value>1</value>
							</parameter>
							<parameter>
								<parameterid>numpoints</parameterid>
								<name>Number of Points</name>
								<valuemin>3</valuemin>
								<valuemax>8</valuemax>
								<value>8</value>
							</parameter>
							<parameter>
								<parameterid>currentpoint</parameterid>
								<name>Current Point</name>
								<value>
									<horiz>0</horiz>
									<vert>0</vert>
								</value>
							</parameter>
							<parameter>
								<parameterid>pointsharp</parameterid>
								<name>Point Sharpness Toggle</name>
								<value>TRUE</value>
							</parameter>
							<parameter>
								<parameterid>blurvar</parameterid>
								<name>Blur Controls</name>
								<value>string</value>
							</parameter>
							<parameter>
								<parameterid>iblur</parameterid>
								<name>Image Blur</name>
								<valuemin>0</valuemin>
								<valuemax>100</valuemax>
								<value>0</value>
							</parameter>
							<parameter>
								<parameterid>sblur</parameterid>
								<name>Shape Blur</name>
								<valuemin>0</valuemin>
								<valuemax>100</valuemax>
								<value>35</value>
							</parameter>
							<parameter>
								<parameterid>copyright</parameterid>
								<name>© www.nattress.com</name>
								<value>string</value>
							</parameter>
						</effect>
					</filter>
					<sourcetrack>
						<mediatype>video</mediatype>
					</sourcetrack>
					<fielddominance>upper</fielddominance>
				</clipitem>
				<transitionitem id="1746490852 ">
					<rate>
						<ntsc>FALSE</ntsc>
						<timebase>25</timebase>
					</rate>
					<start>523</start>
					<end>538</end>
					<alignment>center</alignment>
					<effect>
						<name>G Lens Flare Generell</name>
						<effectcategory>Nattress Big Box Of Tricks</effectcategory>
						<effecttype>transition</effecttype>
						<mediatype>video</mediatype>
						<startratio>0</startratio>
						<endratio>1</endratio>
						<reverse>FALSE</reverse>
						<parameter>
							<parameterid>dispvar1</parameterid>
							<name>Display Settings</name>
							<value>string</value>
						</parameter>
						<parameter>
							<parameterid>inputvar1</parameterid>
							<name>Flare Position</name>
							<value>string</value>
						</parameter>
						<parameter>
							<parameterid>theangle</parameterid>
							<name>Transition Direction</name>
							<valuemin>-360</valuemin>
							<valuemax>360</valuemax>
							<value>0</value>
						</parameter>
						<parameter>
							<parameterid>transitionblendduration</parameterid>
							<name>Blend Duration</name>
							<valuemin>0</valuemin>
							<valuemax>100</valuemax>
							<value>50</value>
						</parameter>
						<parameter>
							<parameterid>settingsvar1</parameterid>
							<name>Flare Settings</name>
							<value>string</value>
						</parameter>
						<parameter>
							<parameterid>presets</parameterid>
							<name>Preset Select</name>
							<valuemin>1</valuemin>
							<valuemax>4</valuemax>
							<valuelist>
								<valueentry>
									<name>Custom Controls</name>
									<value>1</value>
								</valueentry>
								<valueentry>
									<name>Other End of the Rainbow</name>
									<value>2</value>
								</valueentry>
								<valueentry>
									<name>Photon</name>
									<value>3</value>
								</valueentry>
								<valueentry>
									<name>Gaudy</name>
									<value>4</value>
								</valueentry>
							</valuelist>
							<value>1</value>
						</parameter>
						<parameter>
							<parameterid>randomevolution</parameterid>
							<name>Randomness Evolution</name>
							<valuemin>0</valuemin>
							<valuemax>1</valuemax>
							<value>0.05</value>
						</parameter>
						<parameter>
							<parameterid>flareaspect</parameterid>
							<name>Aspect</name>
							<valuemin>0.1</valuemin>
							<valuemax>10</valuemax>
							<value>1</value>
						</parameter>
						<parameter>
							<parameterid>flareintensity</parameterid>
							<name>Overall Intensity</name>
							<valuemin>0</valuemin>
							<valuemax>400</valuemax>
							<value>300</value>
						</parameter>
						<parameter>
							<parameterid>therandomseed</parameterid>
							<name>Random Seed</name>
							<valuemin>0</valuemin>
							<valuemax>100</valuemax>
							<value>100</value>
						</parameter>
						<parameter>
							<parameterid>settingsvar2</parameterid>
							<name>   Bloom</name>
							<value>string</value>
						</parameter>
						<parameter>
							<parameterid>bloomon</parameterid>
							<name>Bloom On?</name>
							<value>TRUE</value>
						</parameter>
						<parameter>
							<parameterid>bloomcolour</parameterid>
							<name>Bloom Colour</name>
							<value>
								<alpha>255</alpha>
								<red>218</red>
								<green>224</green>
								<blue>254</blue>
							</value>
						</parameter>
						<parameter>
							<parameterid>bloomcolourfromimage</parameterid>
							<name>Use Image for Bloom Colour?</name>
							<value>FALSE</value>
						</parameter>
						<parameter>
							<parameterid>bloomintensity</parameterid>
							<name>Intensity</name>
							<valuemin>0</valuemin>
							<valuemax>100</valuemax>
							<value>90</value>
						</parameter>
						<parameter>
							<parameterid>bloomradius</parameterid>
							<name>Radius</name>
							<valuemin>0</valuemin>
							<valuemax>200</valuemax>
							<value>45</value>
						</parameter>
						<parameter>
							<parameterid>bloomfalloff</parameterid>
							<name>Fall Off</name>
							<valuemin>0</valuemin>
							<valuemax>100</valuemax>
							<value>75</value>
						</parameter>
						<parameter>
							<parameterid>bloomstarry</parameterid>
							<name>Starry</name>
							<valuemin>0</valuemin>
							<valuemax>100</valuemax>
							<value>10</value>
						</parameter>
						<parameter>
							<parameterid>bloomstarpoints</parameterid>
							<name>Star Points</name>
							<valuemin>0</valuemin>
							<valuemax>100</valuemax>
							<value>7</value>
						</parameter>
						<parameter>
							<parameterid>settingsvar3</parameterid>
							<name>   StarBurst</name>
							<value>string</value>
						</parameter>
						<parameter>
							<parameterid>starburston</parameterid>
							<name>StarBurst On?</name>
							<value>TRUE</value>
						</parameter>
						<parameter>
							<parameterid>starburstcolour</parameterid>
							<name>StarBurst Colour</name>
							<value>
								<alpha>255</alpha>
								<red>254</red>
								<green>224</green>
								<blue>218</blue>
							</value>
						</parameter>
						<parameter>
							<parameterid>starburstintensity</parameterid>
							<name>Intensity</name>
							<valuemin>0</valuemin>
							<valuemax>100</valuemax>
							<value>75</value>
						</parameter>
						<parameter>
							<parameterid>starburstradius</parameterid>
							<name>Radius</name>
							<valuemin>0</valuemin>
							<valuemax>150</valuemax>
							<value>75</value>
						</parameter>
						<parameter>
							<parameterid>starburststarpoints</parameterid>
							<name>Star Points</name>
							<valuemin>0</valuemin>
							<valuemax>200</valuemax>
							<value>90</value>
						</parameter>
						<parameter>
							<parameterid>starcentre</parameterid>
							<name>Centre Size</name>
							<valuemin>0</valuemin>
							<valuemax>100</valuemax>
							<value>75</value>
						</parameter>
						<parameter>
							<parameterid>starfalloff</parameterid>
							<name>Fall Off</name>
							<valuemin>0</valuemin>
							<valuemax>100</valuemax>
							<value>75</value>
						</parameter>
						<parameter>
							<parameterid>starburstrandom</parameterid>
							<name>Randomness</name>
							<valuemin>0</valuemin>
							<valuemax>4</valuemax>
							<value>0.4</value>
						</parameter>
						<parameter>
							<parameterid>settingsvar4</parameterid>
							<name>   Rainbow</name>
							<value>string</value>
						</parameter>
						<parameter>
							<parameterid>rainbowon</parameterid>
							<name>Rainbow On?</name>
							<value>TRUE</value>
						</parameter>
						<parameter>
							<parameterid>rainbowcolors</parameterid>
							<name>Colour Type</name>
							<valuemin>1</valuemin>
							<valuemax>2</valuemax>
							<valuelist>
								<valueentry>
									<name>Rainbow</name>
									<value>1</value>
								</valueentry>
								<valueentry>
									<name>User Colour</name>
									<value>2</value>
								</valueentry>
							</valuelist>
							<value>1</value>
						</parameter>
						<parameter>
							<parameterid>rainbowusercolor</parameterid>
							<name>User Colour</name>
							<value>
								<alpha>255</alpha>
								<red>230</red>
								<green>110</green>
								<blue>22</blue>
							</value>
						</parameter>
						<parameter>
							<parameterid>rainbowposition</parameterid>
							<name>Position</name>
							<valuemin>-200</valuemin>
							<valuemax>200</valuemax>
							<value>100</value>
						</parameter>
						<parameter>
							<parameterid>rainbowintensity</parameterid>
							<name>Intensity</name>
							<valuemin>0</valuemin>
							<valuemax>100</valuemax>
							<value>20</value>
						</parameter>
						<parameter>
							<parameterid>rainbowradius</parameterid>
							<name>Radius</name>
							<valuemin>0</valuemin>
							<valuemax>200</valuemax>
							<value>50</value>
						</parameter>
						<parameter>
							<parameterid>rainbowthickness</parameterid>
							<name>Thickness</name>
							<valuemin>0</valuemin>
							<valuemax>1</valuemax>
							<value>0.15</value>
						</parameter>
						<parameter>
							<parameterid>rainbowsharpness</parameterid>
							<name>Sharpness</name>
							<valuemin>0</valuemin>
							<valuemax>1</valuemax>
							<value>0.65</value>
						</parameter>
						<parameter>
							<parameterid>settingsvar5</parameterid>
							<name>   Spots</name>
							<value>string</value>
						</parameter>
						<parameter>
							<parameterid>spotson</parameterid>
							<name>Spots On?</name>
							<value>TRUE</value>
						</parameter>
						<parameter>
							<parameterid>spotsnumber</parameterid>
							<name>Number</name>
							<valuemin>0</valuemin>
							<valuemax>100</valuemax>
							<value>12</value>
						</parameter>
						<parameter>
							<parameterid>spotsintensity</parameterid>
							<name>Intensity</name>
							<valuemin>0</valuemin>
							<valuemax>100</valuemax>
							<value>80</value>
						</parameter>
						<parameter>
							<parameterid>spotsradius</parameterid>
							<name>Radius</name>
							<valuemin>0</valuemin>
							<valuemax>150</valuemax>
							<value>30</value>
						</parameter>
						<parameter>
							<parameterid>spotsdisky</parameterid>
							<name>Disky</name>
							<valuemin>0</valuemin>
							<valuemax>100</valuemax>
							<value>75</value>
						</parameter>
						<parameter>
							<parameterid>spotsringy</parameterid>
							<name>Ringy</name>
							<valuemin>0</valuemin>
							<valuemax>100</valuemax>
							<value>75</value>
						</parameter>
						<parameter>
							<parameterid>spotsblotty</parameterid>
							<name>Blotty</name>
							<valuemin>0</valuemin>
							<valuemax>100</valuemax>
							<value>75</value>
						</parameter>
						<parameter>
							<parameterid>spotsbloony</parameterid>
							<name>Bloony</name>
							<valuemin>0</valuemin>
							<valuemax>100</valuemax>
							<value>75</value>
						</parameter>
						<parameter>
							<parameterid>spotsvarycolour</parameterid>
							<name>Vary Colour</name>
							<valuemin>0</valuemin>
							<valuemax>100</valuemax>
							<value>31</value>
						</parameter>
						<parameter>
							<parameterid>spotsbasehue</parameterid>
							<name>Base Hue</name>
							<valuemin>0</valuemin>
							<valuemax>100</valuemax>
							<value>72</value>
						</parameter>
						<parameter>
							<parameterid>spotssaturation</parameterid>
							<name>Saturation</name>
							<valuemin>0</valuemin>
							<valuemax>100</valuemax>
							<value>20</value>
						</parameter>
						<parameter>
							<parameterid>copyright</parameterid>
							<name>©www.nattress.com</name>
							<value>string</value>
						</parameter>
					</effect>
				</transitionitem>
				<clipitem id="C0042 ">
					<name>C0042</name>
					<duration>139</duration>
					<rate>
						<ntsc>FALSE</ntsc>
						<timebase>25</timebase>
					</rate>
					<in>0</in>
					<out>107</out>
					<start>-1</start>
					<end>-1</end>
					<pixelaspectratio>Square</pixelaspectratio>
					<enabled>TRUE</enabled>
					<anamorphic>FALSE</anamorphic>
					<alphatype>none</alphatype>
					<masterclipid>C0042 1</masterclipid>
					<logginginfo>
						<scene/>
						<shottake/>
						<lognote/>
						<good>FALSE</good>
					</logginginfo>
					<labels>
						<label2/>
					</labels>
					<comments>
						<mastercomment1/>
						<mastercomment2/>
						<mastercomment3/>
						<mastercomment4/>
					</comments>
					<file id="6_g1 ">
						<name>6_g1.mov</name>
						<pathurl>file://localhost/Volumes/Askepott/Final%20Cut%20Pro%20Documents/Color%20Renderfiles/Tords%20garasje%20-%20Flue/6/6_g1.mov</pathurl>
						<rate>
							<timebase>25</timebase>
						</rate>
						<duration>139</duration>
						<timecode>
							<rate>
								<timebase>25</timebase>
							</rate>
							<string>12:42:17:05</string>
							<frame>1143430</frame>
							<displayformat>NDF</displayformat>
							<source>source</source>
							<reel>
								<name>XDCAM 20120309_113707</name>
							</reel>
						</timecode>
						<media>
							<video>
								<duration>139</duration>
								<samplecharacteristics>
									<width>1920</width>
									<height>1080</height>
								</samplecharacteristics>
							</video>
						</media>
					</file>
					<filter>
						<effect>
							<name>Distort</name>
							<effectid>deformation</effectid>
							<effectcategory>motion</effectcategory>
							<effecttype>motion</effecttype>
							<mediatype>video</mediatype>
							<parameter>
								<parameterid>ulcorner</parameterid>
								<name>Upper Left</name>
								<value>
									<horiz>-0.5</horiz>
									<vert>-0.5</vert>
								</value>
							</parameter>
							<parameter>
								<parameterid>urcorner</parameterid>
								<name>Upper Right</name>
								<value>
									<horiz>0.5</horiz>
									<vert>-0.5</vert>
								</value>
							</parameter>
							<parameter>
								<parameterid>lrcorner</parameterid>
								<name>Lower Right</name>
								<value>
									<horiz>0.5</horiz>
									<vert>0.5</vert>
								</value>
							</parameter>
							<parameter>
								<parameterid>llcorner</parameterid>
								<name>Lower Left</name>
								<value>
									<horiz>-0.5</horiz>
									<vert>0.5</vert>
								</value>
							</parameter>
							<parameter>
								<parameterid>aspect</parameterid>
								<name>Aspect</name>
								<valuemin>-10000</valuemin>
								<valuemax>10000</valuemax>
								<value>0</value>
							</parameter>
						</effect>
					</filter>
					<filter>
						<effect>
							<name>Basic Motion</name>
							<effectid>basic</effectid>
							<effectcategory>motion</effectcategory>
							<effecttype>motion</effecttype>
							<mediatype>video</mediatype>
							<parameter>
								<parameterid>scale</parameterid>
								<name>Scale</name>
								<valuemin>0</valuemin>
								<valuemax>1000</valuemax>
								<value>100</value>
							</parameter>
							<parameter>
								<parameterid>rotation</parameterid>
								<name>Rotation</name>
								<valuemin>-8640</valuemin>
								<valuemax>8640</valuemax>
								<value>0</value>
							</parameter>
							<parameter>
								<parameterid>center</parameterid>
								<name>Center</name>
								<value>
									<horiz>0</horiz>
									<vert>0</vert>
								</value>
							</parameter>
							<parameter>
								<parameterid>centerOffset</parameterid>
								<name>Anchor Point</name>
								<value>
									<horiz>0</horiz>
									<vert>0</vert>
								</value>
							</parameter>
						</effect>
					</filter>
					<filter>
						<start>-1</start>
						<end>-1</end>
						<effect>
							<name>G Vignette V2.5.1</name>
							<effectcategory>Nattress Film Effects - Image Effects</effectcategory>
							<effecttype>filter</effecttype>
							<mediatype>video</mediatype>
							<parameter>
								<parameterid>vignettevar</parameterid>
								<name>Vignette Controls</name>
								<value>string</value>
							</parameter>
							<parameter>
								<parameterid>rgbtinta</parameterid>
								<name>Vignette Colour A</name>
								<value>
									<alpha>0</alpha>
									<red>19</red>
									<green>22</green>
									<blue>134</blue>
								</value>
							</parameter>
							<parameter>
								<parameterid>rgbtintb</parameterid>
								<name>Vignette Colour B</name>
								<value>
									<alpha>0</alpha>
									<red>132</red>
									<green>218</green>
									<blue>255</blue>
								</value>
							</parameter>
							<parameter>
								<parameterid>mattebackground</parameterid>
								<name>Vignette Background</name>
								<valuemin>1</valuemin>
								<valuemax>4</valuemax>
								<valuelist>
									<valueentry>
										<name>Colour A on White</name>
										<value>1</value>
									</valueentry>
									<valueentry>
										<name>Colour A on Black</name>
										<value>2</value>
									</valueentry>
									<valueentry>
										<name>Colour A on Grey</name>
										<value>3</value>
									</valueentry>
									<valueentry>
										<name>Colour A on Colour B</name>
										<value>4</value>
									</valueentry>
								</valuelist>
								<value>1</value>
							</parameter>
							<parameter>
								<parameterid>shape</parameterid>
								<name>Shape</name>
								<valuemin>1</valuemin>
								<valuemax>3</valuemax>
								<valuelist>
									<valueentry>
										<name>Rectangle</name>
										<value>1</value>
									</valueentry>
									<valueentry>
										<name>Oval</name>
										<value>2</value>
									</valueentry>
									<valueentry>
										<name>Custom</name>
										<value>3</value>
									</valueentry>
								</valuelist>
								<value>2</value>
							</parameter>
							<parameter>
								<parameterid>vblur</parameterid>
								<name>Feather</name>
								<valuemin>0</valuemin>
								<valuemax>100</valuemax>
								<value>40</value>
							</parameter>
							<parameter>
								<parameterid>vblend</parameterid>
								<name>Amount</name>
								<valuemin>0</valuemin>
								<valuemax>100</valuemax>
								<value>20</value>
							</parameter>
							<parameter>
								<parameterid>applyas</parameterid>
								<name>Mode</name>
								<valuemin>1</valuemin>
								<valuemax>7</valuemax>
								<valuelist>
									<valueentry>
										<name>Normal</name>
										<value>1</value>
									</valueentry>
									<valueentry>
										<name>Multiply</name>
										<value>2</value>
									</valueentry>
									<valueentry>
										<name>Screen</name>
										<value>3</value>
									</valueentry>
									<valueentry>
										<name>Overlay</name>
										<value>4</value>
									</valueentry>
									<valueentry>
										<name>Lighten</name>
										<value>5</value>
									</valueentry>
									<valueentry>
										<name>Darken</name>
										<value>6</value>
									</valueentry>
									<valueentry>
										<name>Add</name>
										<value>7</value>
									</valueentry>
								</valuelist>
								<value>4</value>
							</parameter>
							<parameter>
								<parameterid>hq</parameterid>
								<name>Dither</name>
								<valuemin>1</valuemin>
								<valuemax>4</valuemax>
								<valuelist>
									<valueentry>
										<name>Off</name>
										<value>1</value>
									</valueentry>
									<valueentry>
										<name>Minimum</name>
										<value>2</value>
									</valueentry>
									<valueentry>
										<name>Medium</name>
										<value>3</value>
									</valueentry>
									<valueentry>
										<name>Strong</name>
										<value>4</value>
									</valueentry>
								</valuelist>
								<value>1</value>
							</parameter>
							<parameter>
								<parameterid>inverse</parameterid>
								<name>Invert?</name>
								<value>FALSE</value>
							</parameter>
							<parameter>
								<parameterid>diagnostics</parameterid>
								<name>Show Helper Outline</name>
								<value>FALSE</value>
							</parameter>
							<parameter>
								<parameterid>maskstuff</parameterid>
								<name>Shape Controls</name>
								<value>string</value>
							</parameter>
							<parameter>
								<parameterid>maskpolycentre</parameterid>
								<name>Shape Centre</name>
								<value>
									<horiz>0</horiz>
									<vert>0</vert>
								</value>
							</parameter>
							<parameter>
								<parameterid>rotoffset</parameterid>
								<name>Rotation</name>
								<valuemin>-360</valuemin>
								<valuemax>360</valuemax>
								<value>0</value>
							</parameter>
							<parameter>
								<parameterid>thescale</parameterid>
								<name>Scale</name>
								<valuemin>1</valuemin>
								<valuemax>200</valuemax>
								<value>117</value>
							</parameter>
							<parameter>
								<parameterid>vaspect</parameterid>
								<name>Aspect</name>
								<valuemin>0.1</valuemin>
								<valuemax>10</valuemax>
								<value>1.3</value>
							</parameter>
							<parameter>
								<parameterid>pathvar</parameterid>
								<name>Custom Shape Points</name>
								<value>string</value>
							</parameter>
							<parameter>
								<parameterid>editpoint</parameterid>
								<name>Point to Edit</name>
								<valuemin>1</valuemin>
								<valuemax>8</valuemax>
								<value>1</value>
							</parameter>
							<parameter>
								<parameterid>numpoints</parameterid>
								<name>Number of Points</name>
								<valuemin>3</valuemin>
								<valuemax>8</valuemax>
								<value>8</value>
							</parameter>
							<parameter>
								<parameterid>currentpoint</parameterid>
								<name>Current Point</name>
								<value>
									<horiz>0</horiz>
									<vert>0</vert>
								</value>
							</parameter>
							<parameter>
								<parameterid>pointsharp</parameterid>
								<name>Point Sharpness Toggle</name>
								<value>TRUE</value>
							</parameter>
							<parameter>
								<parameterid>blurvar</parameterid>
								<name>Blur Controls</name>
								<value>string</value>
							</parameter>
							<parameter>
								<parameterid>iblur</parameterid>
								<name>Image Blur</name>
								<valuemin>0</valuemin>
								<valuemax>100</valuemax>
								<value>0</value>
							</parameter>
							<parameter>
								<parameterid>sblur</parameterid>
								<name>Shape Blur</name>
								<valuemin>0</valuemin>
								<valuemax>100</valuemax>
								<value>35</value>
							</parameter>
							<parameter>
								<parameterid>copyright</parameterid>
								<name>© www.nattress.com</name>
								<value>string</value>
							</parameter>
						</effect>
					</filter>
					<sourcetrack>
						<mediatype>video</mediatype>
					</sourcetrack>
					<fielddominance>upper</fielddominance>
				</clipitem>
				<transitionitem id="1746472764 ">
					<rate>
						<ntsc>FALSE</ntsc>
						<timebase>25</timebase>
					</rate>
					<start>615</start>
					<end>630</end>
					<alignment>center</alignment>
					<effect>
						<name>G Lens Flare Generell</name>
						<effectcategory>Nattress Big Box Of Tricks</effectcategory>
						<effecttype>transition</effecttype>
						<mediatype>video</mediatype>
						<startratio>0</startratio>
						<endratio>1</endratio>
						<reverse>FALSE</reverse>
						<parameter>
							<parameterid>dispvar1</parameterid>
							<name>Display Settings</name>
							<value>string</value>
						</parameter>
						<parameter>
							<parameterid>inputvar1</parameterid>
							<name>Flare Position</name>
							<value>string</value>
						</parameter>
						<parameter>
							<parameterid>theangle</parameterid>
							<name>Transition Direction</name>
							<valuemin>-360</valuemin>
							<valuemax>360</valuemax>
							<value>0</value>
						</parameter>
						<parameter>
							<parameterid>transitionblendduration</parameterid>
							<name>Blend Duration</name>
							<valuemin>0</valuemin>
							<valuemax>100</valuemax>
							<value>50</value>
						</parameter>
						<parameter>
							<parameterid>settingsvar1</parameterid>
							<name>Flare Settings</name>
							<value>string</value>
						</parameter>
						<parameter>
							<parameterid>presets</parameterid>
							<name>Preset Select</name>
							<valuemin>1</valuemin>
							<valuemax>4</valuemax>
							<valuelist>
								<valueentry>
									<name>Custom Controls</name>
									<value>1</value>
								</valueentry>
								<valueentry>
									<name>Other End of the Rainbow</name>
									<value>2</value>
								</valueentry>
								<valueentry>
									<name>Photon</name>
									<value>3</value>
								</valueentry>
								<valueentry>
									<name>Gaudy</name>
									<value>4</value>
								</valueentry>
							</valuelist>
							<value>1</value>
						</parameter>
						<parameter>
							<parameterid>randomevolution</parameterid>
							<name>Randomness Evolution</name>
							<valuemin>0</valuemin>
							<valuemax>1</valuemax>
							<value>0.05</value>
						</parameter>
						<parameter>
							<parameterid>flareaspect</parameterid>
							<name>Aspect</name>
							<valuemin>0.1</valuemin>
							<valuemax>10</valuemax>
							<value>1</value>
						</parameter>
						<parameter>
							<parameterid>flareintensity</parameterid>
							<name>Overall Intensity</name>
							<valuemin>0</valuemin>
							<valuemax>400</valuemax>
							<value>300</value>
						</parameter>
						<parameter>
							<parameterid>therandomseed</parameterid>
							<name>Random Seed</name>
							<valuemin>0</valuemin>
							<valuemax>100</valuemax>
							<value>100</value>
						</parameter>
						<parameter>
							<parameterid>settingsvar2</parameterid>
							<name>   Bloom</name>
							<value>string</value>
						</parameter>
						<parameter>
							<parameterid>bloomon</parameterid>
							<name>Bloom On?</name>
							<value>TRUE</value>
						</parameter>
						<parameter>
							<parameterid>bloomcolour</parameterid>
							<name>Bloom Colour</name>
							<value>
								<alpha>255</alpha>
								<red>218</red>
								<green>224</green>
								<blue>254</blue>
							</value>
						</parameter>
						<parameter>
							<parameterid>bloomcolourfromimage</parameterid>
							<name>Use Image for Bloom Colour?</name>
							<value>FALSE</value>
						</parameter>
						<parameter>
							<parameterid>bloomintensity</parameterid>
							<name>Intensity</name>
							<valuemin>0</valuemin>
							<valuemax>100</valuemax>
							<value>90</value>
						</parameter>
						<parameter>
							<parameterid>bloomradius</parameterid>
							<name>Radius</name>
							<valuemin>0</valuemin>
							<valuemax>200</valuemax>
							<value>45</value>
						</parameter>
						<parameter>
							<parameterid>bloomfalloff</parameterid>
							<name>Fall Off</name>
							<valuemin>0</valuemin>
							<valuemax>100</valuemax>
							<value>75</value>
						</parameter>
						<parameter>
							<parameterid>bloomstarry</parameterid>
							<name>Starry</name>
							<valuemin>0</valuemin>
							<valuemax>100</valuemax>
							<value>10</value>
						</parameter>
						<parameter>
							<parameterid>bloomstarpoints</parameterid>
							<name>Star Points</name>
							<valuemin>0</valuemin>
							<valuemax>100</valuemax>
							<value>7</value>
						</parameter>
						<parameter>
							<parameterid>settingsvar3</parameterid>
							<name>   StarBurst</name>
							<value>string</value>
						</parameter>
						<parameter>
							<parameterid>starburston</parameterid>
							<name>StarBurst On?</name>
							<value>TRUE</value>
						</parameter>
						<parameter>
							<parameterid>starburstcolour</parameterid>
							<name>StarBurst Colour</name>
							<value>
								<alpha>255</alpha>
								<red>254</red>
								<green>224</green>
								<blue>218</blue>
							</value>
						</parameter>
						<parameter>
							<parameterid>starburstintensity</parameterid>
							<name>Intensity</name>
							<valuemin>0</valuemin>
							<valuemax>100</valuemax>
							<value>75</value>
						</parameter>
						<parameter>
							<parameterid>starburstradius</parameterid>
							<name>Radius</name>
							<valuemin>0</valuemin>
							<valuemax>150</valuemax>
							<value>75</value>
						</parameter>
						<parameter>
							<parameterid>starburststarpoints</parameterid>
							<name>Star Points</name>
							<valuemin>0</valuemin>
							<valuemax>200</valuemax>
							<value>90</value>
						</parameter>
						<parameter>
							<parameterid>starcentre</parameterid>
							<name>Centre Size</name>
							<valuemin>0</valuemin>
							<valuemax>100</valuemax>
							<value>75</value>
						</parameter>
						<parameter>
							<parameterid>starfalloff</parameterid>
							<name>Fall Off</name>
							<valuemin>0</valuemin>
							<valuemax>100</valuemax>
							<value>75</value>
						</parameter>
						<parameter>
							<parameterid>starburstrandom</parameterid>
							<name>Randomness</name>
							<valuemin>0</valuemin>
							<valuemax>4</valuemax>
							<value>0.4</value>
						</parameter>
						<parameter>
							<parameterid>settingsvar4</parameterid>
							<name>   Rainbow</name>
							<value>string</value>
						</parameter>
						<parameter>
							<parameterid>rainbowon</parameterid>
							<name>Rainbow On?</name>
							<value>TRUE</value>
						</parameter>
						<parameter>
							<parameterid>rainbowcolors</parameterid>
							<name>Colour Type</name>
							<valuemin>1</valuemin>
							<valuemax>2</valuemax>
							<valuelist>
								<valueentry>
									<name>Rainbow</name>
									<value>1</value>
								</valueentry>
								<valueentry>
									<name>User Colour</name>
									<value>2</value>
								</valueentry>
							</valuelist>
							<value>1</value>
						</parameter>
						<parameter>
							<parameterid>rainbowusercolor</parameterid>
							<name>User Colour</name>
							<value>
								<alpha>255</alpha>
								<red>230</red>
								<green>110</green>
								<blue>22</blue>
							</value>
						</parameter>
						<parameter>
							<parameterid>rainbowposition</parameterid>
							<name>Position</name>
							<valuemin>-200</valuemin>
							<valuemax>200</valuemax>
							<value>100</value>
						</parameter>
						<parameter>
							<parameterid>rainbowintensity</parameterid>
							<name>Intensity</name>
							<valuemin>0</valuemin>
							<valuemax>100</valuemax>
							<value>20</value>
						</parameter>
						<parameter>
							<parameterid>rainbowradius</parameterid>
							<name>Radius</name>
							<valuemin>0</valuemin>
							<valuemax>200</valuemax>
							<value>50</value>
						</parameter>
						<parameter>
							<parameterid>rainbowthickness</parameterid>
							<name>Thickness</name>
							<valuemin>0</valuemin>
							<valuemax>1</valuemax>
							<value>0.15</value>
						</parameter>
						<parameter>
							<parameterid>rainbowsharpness</parameterid>
							<name>Sharpness</name>
							<valuemin>0</valuemin>
							<valuemax>1</valuemax>
							<value>0.65</value>
						</parameter>
						<parameter>
							<parameterid>settingsvar5</parameterid>
							<name>   Spots</name>
							<value>string</value>
						</parameter>
						<parameter>
							<parameterid>spotson</parameterid>
							<name>Spots On?</name>
							<value>TRUE</value>
						</parameter>
						<parameter>
							<parameterid>spotsnumber</parameterid>
							<name>Number</name>
							<valuemin>0</valuemin>
							<valuemax>100</valuemax>
							<value>12</value>
						</parameter>
						<parameter>
							<parameterid>spotsintensity</parameterid>
							<name>Intensity</name>
							<valuemin>0</valuemin>
							<valuemax>100</valuemax>
							<value>80</value>
						</parameter>
						<parameter>
							<parameterid>spotsradius</parameterid>
							<name>Radius</name>
							<valuemin>0</valuemin>
							<valuemax>150</valuemax>
							<value>30</value>
						</parameter>
						<parameter>
							<parameterid>spotsdisky</parameterid>
							<name>Disky</name>
							<valuemin>0</valuemin>
							<valuemax>100</valuemax>
							<value>75</value>
						</parameter>
						<parameter>
							<parameterid>spotsringy</parameterid>
							<name>Ringy</name>
							<valuemin>0</valuemin>
							<valuemax>100</valuemax>
							<value>75</value>
						</parameter>
						<parameter>
							<parameterid>spotsblotty</parameterid>
							<name>Blotty</name>
							<valuemin>0</valuemin>
							<valuemax>100</valuemax>
							<value>75</value>
						</parameter>
						<parameter>
							<parameterid>spotsbloony</parameterid>
							<name>Bloony</name>
							<valuemin>0</valuemin>
							<valuemax>100</valuemax>
							<value>75</value>
						</parameter>
						<parameter>
							<parameterid>spotsvarycolour</parameterid>
							<name>Vary Colour</name>
							<valuemin>0</valuemin>
							<valuemax>100</valuemax>
							<value>31</value>
						</parameter>
						<parameter>
							<parameterid>spotsbasehue</parameterid>
							<name>Base Hue</name>
							<valuemin>0</valuemin>
							<valuemax>100</valuemax>
							<value>72</value>
						</parameter>
						<parameter>
							<parameterid>spotssaturation</parameterid>
							<name>Saturation</name>
							<valuemin>0</valuemin>
							<valuemax>100</valuemax>
							<value>20</value>
						</parameter>
						<parameter>
							<parameterid>copyright</parameterid>
							<name>©www.nattress.com</name>
							<value>string</value>
						</parameter>
					</effect>
				</transitionitem>
				<clipitem id="C0089 ">
					<name>C0089</name>
					<duration>364</duration>
					<rate>
						<ntsc>FALSE</ntsc>
						<timebase>25</timebase>
					</rate>
					<in>130</in>
					<out>241</out>
					<start>-1</start>
					<end>-1</end>
					<pixelaspectratio>Square</pixelaspectratio>
					<enabled>TRUE</enabled>
					<anamorphic>FALSE</anamorphic>
					<alphatype>none</alphatype>
					<masterclipid>C0089 1</masterclipid>
					<logginginfo>
						<scene/>
						<shottake/>
						<lognote/>
						<good>FALSE</good>
					</logginginfo>
					<labels>
						<label2/>
					</labels>
					<comments>
						<mastercomment1/>
						<mastercomment2/>
						<mastercomment3/>
						<mastercomment4/>
					</comments>
					<file id="C0089 2">
						<name>C0089.mov</name>
						<pathurl>file://localhost/Volumes/Askepott/Prosjekter/DNPR637010_Kra%CC%8Akeklubben_TEM_011212/Video/Mellomstikk/S03E%20D%C3%B8den/DAG%202/C0089.mov</pathurl>
						<rate>
							<timebase>25</timebase>
						</rate>
						<duration>364</duration>
						<timecode>
							<rate>
								<timebase>25</timebase>
							</rate>
							<string>06:22:39:21</string>
							<frame>573996</frame>
							<displayformat>NDF</displayformat>
							<source>source</source>
							<reel>
								<name>XDCAM 20120509_100358</name>
							</reel>
						</timecode>
						<media>
							<video>
								<duration>364</duration>
								<samplecharacteristics>
									<width>1920</width>
									<height>1080</height>
								</samplecharacteristics>
							</video>
							<audio>
								<rate>
									<timebase>48000</timebase>
								</rate>
								<trackcount>1</trackcount>
								<channeldescription>8 Channels</channeldescription>
								<samplecharacteristics>
									<depth>24</depth>
								</samplecharacteristics>
							</audio>
						</media>
					</file>
					<filter>
						<enabled>TRUE</enabled>
						<start>-1</start>
						<end>-1</end>
						<effect>
							<name>G Vignette V2.5.1</name>
							<effectcategory>Nattress Film Effects - Image Effects</effectcategory>
							<effecttype>filter</effecttype>
							<mediatype>video</mediatype>
							<parameter>
								<parameterid>vignettevar</parameterid>
								<name>Vignette Controls</name>
								<value>string</value>
							</parameter>
							<parameter>
								<parameterid>rgbtinta</parameterid>
								<name>Vignette Colour A</name>
								<value>
									<alpha>0</alpha>
									<red>19</red>
									<green>22</green>
									<blue>134</blue>
								</value>
							</parameter>
							<parameter>
								<parameterid>rgbtintb</parameterid>
								<name>Vignette Colour B</name>
								<value>
									<alpha>0</alpha>
									<red>132</red>
									<green>218</green>
									<blue>255</blue>
								</value>
							</parameter>
							<parameter>
								<parameterid>mattebackground</parameterid>
								<name>Vignette Background</name>
								<valuemin>1</valuemin>
								<valuemax>4</valuemax>
								<valuelist>
									<valueentry>
										<name>Colour A on White</name>
										<value>1</value>
									</valueentry>
									<valueentry>
										<name>Colour A on Black</name>
										<value>2</value>
									</valueentry>
									<valueentry>
										<name>Colour A on Grey</name>
										<value>3</value>
									</valueentry>
									<valueentry>
										<name>Colour A on Colour B</name>
										<value>4</value>
									</valueentry>
								</valuelist>
								<value>1</value>
							</parameter>
							<parameter>
								<parameterid>shape</parameterid>
								<name>Shape</name>
								<valuemin>1</valuemin>
								<valuemax>3</valuemax>
								<valuelist>
									<valueentry>
										<name>Rectangle</name>
										<value>1</value>
									</valueentry>
									<valueentry>
										<name>Oval</name>
										<value>2</value>
									</valueentry>
									<valueentry>
										<name>Custom</name>
										<value>3</value>
									</valueentry>
								</valuelist>
								<value>2</value>
							</parameter>
							<parameter>
								<parameterid>vblur</parameterid>
								<name>Feather</name>
								<valuemin>0</valuemin>
								<valuemax>100</valuemax>
								<value>40</value>
							</parameter>
							<parameter>
								<parameterid>vblend</parameterid>
								<name>Amount</name>
								<valuemin>0</valuemin>
								<valuemax>100</valuemax>
								<value>20</value>
							</parameter>
							<parameter>
								<parameterid>applyas</parameterid>
								<name>Mode</name>
								<valuemin>1</valuemin>
								<valuemax>7</valuemax>
								<valuelist>
									<valueentry>
										<name>Normal</name>
										<value>1</value>
									</valueentry>
									<valueentry>
										<name>Multiply</name>
										<value>2</value>
									</valueentry>
									<valueentry>
										<name>Screen</name>
										<value>3</value>
									</valueentry>
									<valueentry>
										<name>Overlay</name>
										<value>4</value>
									</valueentry>
									<valueentry>
										<name>Lighten</name>
										<value>5</value>
									</valueentry>
									<valueentry>
										<name>Darken</name>
										<value>6</value>
									</valueentry>
									<valueentry>
										<name>Add</name>
										<value>7</value>
									</valueentry>
								</valuelist>
								<value>4</value>
							</parameter>
							<parameter>
								<parameterid>hq</parameterid>
								<name>Dither</name>
								<valuemin>1</valuemin>
								<valuemax>4</valuemax>
								<valuelist>
									<valueentry>
										<name>Off</name>
										<value>1</value>
									</valueentry>
									<valueentry>
										<name>Minimum</name>
										<value>2</value>
									</valueentry>
									<valueentry>
										<name>Medium</name>
										<value>3</value>
									</valueentry>
									<valueentry>
										<name>Strong</name>
										<value>4</value>
									</valueentry>
								</valuelist>
								<value>1</value>
							</parameter>
							<parameter>
								<parameterid>inverse</parameterid>
								<name>Invert?</name>
								<value>FALSE</value>
							</parameter>
							<parameter>
								<parameterid>diagnostics</parameterid>
								<name>Show Helper Outline</name>
								<value>FALSE</value>
							</parameter>
							<parameter>
								<parameterid>maskstuff</parameterid>
								<name>Shape Controls</name>
								<value>string</value>
							</parameter>
							<parameter>
								<parameterid>maskpolycentre</parameterid>
								<name>Shape Centre</name>
								<value>
									<horiz>0</horiz>
									<vert>0</vert>
								</value>
							</parameter>
							<parameter>
								<parameterid>rotoffset</parameterid>
								<name>Rotation</name>
								<valuemin>-360</valuemin>
								<valuemax>360</valuemax>
								<value>0</value>
							</parameter>
							<parameter>
								<parameterid>thescale</parameterid>
								<name>Scale</name>
								<valuemin>1</valuemin>
								<valuemax>200</valuemax>
								<value>117</value>
							</parameter>
							<parameter>
								<parameterid>vaspect</parameterid>
								<name>Aspect</name>
								<valuemin>0.1</valuemin>
								<valuemax>10</valuemax>
								<value>1.3</value>
							</parameter>
							<parameter>
								<parameterid>pathvar</parameterid>
								<name>Custom Shape Points</name>
								<value>string</value>
							</parameter>
							<parameter>
								<parameterid>editpoint</parameterid>
								<name>Point to Edit</name>
								<valuemin>1</valuemin>
								<valuemax>8</valuemax>
								<value>1</value>
							</parameter>
							<parameter>
								<parameterid>numpoints</parameterid>
								<name>Number of Points</name>
								<valuemin>3</valuemin>
								<valuemax>8</valuemax>
								<value>8</value>
							</parameter>
							<parameter>
								<parameterid>currentpoint</parameterid>
								<name>Current Point</name>
								<value>
									<horiz>0</horiz>
									<vert>0</vert>
								</value>
							</parameter>
							<parameter>
								<parameterid>pointsharp</parameterid>
								<name>Point Sharpness Toggle</name>
								<value>TRUE</value>
							</parameter>
							<parameter>
								<parameterid>blurvar</parameterid>
								<name>Blur Controls</name>
								<value>string</value>
							</parameter>
							<parameter>
								<parameterid>iblur</parameterid>
								<name>Image Blur</name>
								<valuemin>0</valuemin>
								<valuemax>100</valuemax>
								<value>0</value>
							</parameter>
							<parameter>
								<parameterid>sblur</parameterid>
								<name>Shape Blur</name>
								<valuemin>0</valuemin>
								<valuemax>100</valuemax>
								<value>35</value>
							</parameter>
							<parameter>
								<parameterid>copyright</parameterid>
								<name>© www.nattress.com</name>
								<value>string</value>
							</parameter>
						</effect>
					</filter>
					<sourcetrack>
						<mediatype>video</mediatype>
					</sourcetrack>
					<link>
						<linkclipref>C0089 </linkclipref>
						<mediatype>video</mediatype>
						<trackindex>1</trackindex>
						<clipindex>6</clipindex>
					</link>
					<link>
						<linkclipref>C0089 3</linkclipref>
						<mediatype>audio</mediatype>
						<trackindex>1</trackindex>
						<clipindex>1</clipindex>
					</link>
					<fielddominance>upper</fielddominance>
				</clipitem>
				<transitionitem id="1787944740 ">
					<rate>
						<ntsc>FALSE</ntsc>
						<timebase>25</timebase>
					</rate>
					<start>711</start>
					<end>726</end>
					<alignment>center</alignment>
					<effect>
						<name>G Lens Flare Generell</name>
						<effectcategory>Nattress Big Box Of Tricks</effectcategory>
						<effecttype>transition</effecttype>
						<mediatype>video</mediatype>
						<startratio>0</startratio>
						<endratio>1</endratio>
						<reverse>FALSE</reverse>
						<parameter>
							<parameterid>dispvar1</parameterid>
							<name>Display Settings</name>
							<value>string</value>
						</parameter>
						<parameter>
							<parameterid>inputvar1</parameterid>
							<name>Flare Position</name>
							<value>string</value>
						</parameter>
						<parameter>
							<parameterid>theangle</parameterid>
							<name>Transition Direction</name>
							<valuemin>-360</valuemin>
							<valuemax>360</valuemax>
							<value>0</value>
						</parameter>
						<parameter>
							<parameterid>transitionblendduration</parameterid>
							<name>Blend Duration</name>
							<valuemin>0</valuemin>
							<valuemax>100</valuemax>
							<value>50</value>
						</parameter>
						<parameter>
							<parameterid>settingsvar1</parameterid>
							<name>Flare Settings</name>
							<value>string</value>
						</parameter>
						<parameter>
							<parameterid>presets</parameterid>
							<name>Preset Select</name>
							<valuemin>1</valuemin>
							<valuemax>4</valuemax>
							<valuelist>
								<valueentry>
									<name>Custom Controls</name>
									<value>1</value>
								</valueentry>
								<valueentry>
									<name>Other End of the Rainbow</name>
									<value>2</value>
								</valueentry>
								<valueentry>
									<name>Photon</name>
									<value>3</value>
								</valueentry>
								<valueentry>
									<name>Gaudy</name>
									<value>4</value>
								</valueentry>
							</valuelist>
							<value>1</value>
						</parameter>
						<parameter>
							<parameterid>randomevolution</parameterid>
							<name>Randomness Evolution</name>
							<valuemin>0</valuemin>
							<valuemax>1</valuemax>
							<value>0.05</value>
						</parameter>
						<parameter>
							<parameterid>flareaspect</parameterid>
							<name>Aspect</name>
							<valuemin>0.1</valuemin>
							<valuemax>10</valuemax>
							<value>1</value>
						</parameter>
						<parameter>
							<parameterid>flareintensity</parameterid>
							<name>Overall Intensity</name>
							<valuemin>0</valuemin>
							<valuemax>400</valuemax>
							<value>300</value>
						</parameter>
						<parameter>
							<parameterid>therandomseed</parameterid>
							<name>Random Seed</name>
							<valuemin>0</valuemin>
							<valuemax>100</valuemax>
							<value>100</value>
						</parameter>
						<parameter>
							<parameterid>settingsvar2</parameterid>
							<name>   Bloom</name>
							<value>string</value>
						</parameter>
						<parameter>
							<parameterid>bloomon</parameterid>
							<name>Bloom On?</name>
							<value>TRUE</value>
						</parameter>
						<parameter>
							<parameterid>bloomcolour</parameterid>
							<name>Bloom Colour</name>
							<value>
								<alpha>255</alpha>
								<red>218</red>
								<green>224</green>
								<blue>254</blue>
							</value>
						</parameter>
						<parameter>
							<parameterid>bloomcolourfromimage</parameterid>
							<name>Use Image for Bloom Colour?</name>
							<value>FALSE</value>
						</parameter>
						<parameter>
							<parameterid>bloomintensity</parameterid>
							<name>Intensity</name>
							<valuemin>0</valuemin>
							<valuemax>100</valuemax>
							<value>90</value>
						</parameter>
						<parameter>
							<parameterid>bloomradius</parameterid>
							<name>Radius</name>
							<valuemin>0</valuemin>
							<valuemax>200</valuemax>
							<value>45</value>
						</parameter>
						<parameter>
							<parameterid>bloomfalloff</parameterid>
							<name>Fall Off</name>
							<valuemin>0</valuemin>
							<valuemax>100</valuemax>
							<value>75</value>
						</parameter>
						<parameter>
							<parameterid>bloomstarry</parameterid>
							<name>Starry</name>
							<valuemin>0</valuemin>
							<valuemax>100</valuemax>
							<value>10</value>
						</parameter>
						<parameter>
							<parameterid>bloomstarpoints</parameterid>
							<name>Star Points</name>
							<valuemin>0</valuemin>
							<valuemax>100</valuemax>
							<value>7</value>
						</parameter>
						<parameter>
							<parameterid>settingsvar3</parameterid>
							<name>   StarBurst</name>
							<value>string</value>
						</parameter>
						<parameter>
							<parameterid>starburston</parameterid>
							<name>StarBurst On?</name>
							<value>TRUE</value>
						</parameter>
						<parameter>
							<parameterid>starburstcolour</parameterid>
							<name>StarBurst Colour</name>
							<value>
								<alpha>255</alpha>
								<red>254</red>
								<green>224</green>
								<blue>218</blue>
							</value>
						</parameter>
						<parameter>
							<parameterid>starburstintensity</parameterid>
							<name>Intensity</name>
							<valuemin>0</valuemin>
							<valuemax>100</valuemax>
							<value>75</value>
						</parameter>
						<parameter>
							<parameterid>starburstradius</parameterid>
							<name>Radius</name>
							<valuemin>0</valuemin>
							<valuemax>150</valuemax>
							<value>75</value>
						</parameter>
						<parameter>
							<parameterid>starburststarpoints</parameterid>
							<name>Star Points</name>
							<valuemin>0</valuemin>
							<valuemax>200</valuemax>
							<value>90</value>
						</parameter>
						<parameter>
							<parameterid>starcentre</parameterid>
							<name>Centre Size</name>
							<valuemin>0</valuemin>
							<valuemax>100</valuemax>
							<value>75</value>
						</parameter>
						<parameter>
							<parameterid>starfalloff</parameterid>
							<name>Fall Off</name>
							<valuemin>0</valuemin>
							<valuemax>100</valuemax>
							<value>75</value>
						</parameter>
						<parameter>
							<parameterid>starburstrandom</parameterid>
							<name>Randomness</name>
							<valuemin>0</valuemin>
							<valuemax>4</valuemax>
							<value>0.4</value>
						</parameter>
						<parameter>
							<parameterid>settingsvar4</parameterid>
							<name>   Rainbow</name>
							<value>string</value>
						</parameter>
						<parameter>
							<parameterid>rainbowon</parameterid>
							<name>Rainbow On?</name>
							<value>TRUE</value>
						</parameter>
						<parameter>
							<parameterid>rainbowcolors</parameterid>
							<name>Colour Type</name>
							<valuemin>1</valuemin>
							<valuemax>2</valuemax>
							<valuelist>
								<valueentry>
									<name>Rainbow</name>
									<value>1</value>
								</valueentry>
								<valueentry>
									<name>User Colour</name>
									<value>2</value>
								</valueentry>
							</valuelist>
							<value>1</value>
						</parameter>
						<parameter>
							<parameterid>rainbowusercolor</parameterid>
							<name>User Colour</name>
							<value>
								<alpha>255</alpha>
								<red>230</red>
								<green>110</green>
								<blue>22</blue>
							</value>
						</parameter>
						<parameter>
							<parameterid>rainbowposition</parameterid>
							<name>Position</name>
							<valuemin>-200</valuemin>
							<valuemax>200</valuemax>
							<value>100</value>
						</parameter>
						<parameter>
							<parameterid>rainbowintensity</parameterid>
							<name>Intensity</name>
							<valuemin>0</valuemin>
							<valuemax>100</valuemax>
							<value>20</value>
						</parameter>
						<parameter>
							<parameterid>rainbowradius</parameterid>
							<name>Radius</name>
							<valuemin>0</valuemin>
							<valuemax>200</valuemax>
							<value>50</value>
						</parameter>
						<parameter>
							<parameterid>rainbowthickness</parameterid>
							<name>Thickness</name>
							<valuemin>0</valuemin>
							<valuemax>1</valuemax>
							<value>0.15</value>
						</parameter>
						<parameter>
							<parameterid>rainbowsharpness</parameterid>
							<name>Sharpness</name>
							<valuemin>0</valuemin>
							<valuemax>1</valuemax>
							<value>0.65</value>
						</parameter>
						<parameter>
							<parameterid>settingsvar5</parameterid>
							<name>   Spots</name>
							<value>string</value>
						</parameter>
						<parameter>
							<parameterid>spotson</parameterid>
							<name>Spots On?</name>
							<value>TRUE</value>
						</parameter>
						<parameter>
							<parameterid>spotsnumber</parameterid>
							<name>Number</name>
							<valuemin>0</valuemin>
							<valuemax>100</valuemax>
							<value>12</value>
						</parameter>
						<parameter>
							<parameterid>spotsintensity</parameterid>
							<name>Intensity</name>
							<valuemin>0</valuemin>
							<valuemax>100</valuemax>
							<value>80</value>
						</parameter>
						<parameter>
							<parameterid>spotsradius</parameterid>
							<name>Radius</name>
							<valuemin>0</valuemin>
							<valuemax>150</valuemax>
							<value>30</value>
						</parameter>
						<parameter>
							<parameterid>spotsdisky</parameterid>
							<name>Disky</name>
							<valuemin>0</valuemin>
							<valuemax>100</valuemax>
							<value>75</value>
						</parameter>
						<parameter>
							<parameterid>spotsringy</parameterid>
							<name>Ringy</name>
							<valuemin>0</valuemin>
							<valuemax>100</valuemax>
							<value>75</value>
						</parameter>
						<parameter>
							<parameterid>spotsblotty</parameterid>
							<name>Blotty</name>
							<valuemin>0</valuemin>
							<valuemax>100</valuemax>
							<value>75</value>
						</parameter>
						<parameter>
							<parameterid>spotsbloony</parameterid>
							<name>Bloony</name>
							<valuemin>0</valuemin>
							<valuemax>100</valuemax>
							<value>75</value>
						</parameter>
						<parameter>
							<parameterid>spotsvarycolour</parameterid>
							<name>Vary Colour</name>
							<valuemin>0</valuemin>
							<valuemax>100</valuemax>
							<value>31</value>
						</parameter>
						<parameter>
							<parameterid>spotsbasehue</parameterid>
							<name>Base Hue</name>
							<valuemin>0</valuemin>
							<valuemax>100</valuemax>
							<value>72</value>
						</parameter>
						<parameter>
							<parameterid>spotssaturation</parameterid>
							<name>Saturation</name>
							<valuemin>0</valuemin>
							<valuemax>100</valuemax>
							<value>20</value>
						</parameter>
						<parameter>
							<parameterid>copyright</parameterid>
							<name>©www.nattress.com</name>
							<value>string</value>
						</parameter>
					</effect>
				</transitionitem>
				<clipitem id="VIGNETT m ALPHA 25fps PROG SCAN">
					<name>VIGNETT m ALPHA 25fps PROG SCAN</name>
					<duration>881</duration>
					<rate>
						<ntsc>FALSE</ntsc>
						<timebase>25</timebase>
					</rate>
					<in>713</in>
					<out>852</out>
					<start>-1</start>
					<end>850</end>
					<pixelaspectratio>Square</pixelaspectratio>
					<enabled>TRUE</enabled>
					<anamorphic>FALSE</anamorphic>
					<alphatype>straight</alphatype>
					<masterclipid>VIGNETT m ALPHA 25fps PROG SCAN1</masterclipid>
					<logginginfo>
						<scene/>
						<shottake/>
						<lognote/>
						<good>FALSE</good>
					</logginginfo>
					<labels>
						<label2/>
					</labels>
					<comments>
						<mastercomment1/>
						<mastercomment2/>
						<mastercomment3/>
						<mastercomment4/>
					</comments>
					<file id="VIGNETT m ALPHA 25fps PROG SCAN2">
						<name>VIGNETT m ALPHA 25fps PROG SCAN.mov</name>
						<pathurl>file://localhost/Volumes/Askepott/Prosjekter/DNPR637010_Kra%CC%8Akeklubben_TEM_011212/Grafikk/MASTERE%20GRAFIKK/VIGNETT%20m%20ALPHA%2025fps%20PROG%20SCAN.mov</pathurl>
						<rate>
							<timebase>25</timebase>
						</rate>
						<duration>881</duration>
						<timecode>
							<rate>
								<timebase>25</timebase>
							</rate>
							<string>00:00:00:00</string>
							<frame>0</frame>
							<displayformat>NDF</displayformat>
							<source>source</source>
						</timecode>
						<media>
							<video>
								<duration>881</duration>
								<samplecharacteristics>
									<width>1920</width>
									<height>1080</height>
								</samplecharacteristics>
							</video>
						</media>
					</file>
					<sourcetrack>
						<mediatype>video</mediatype>
					</sourcetrack>
					<fielddominance>upper</fielddominance>
				</clipitem>
				<clipitem id="C0006 (1)">
					<name>C0006 (1)</name>
					<duration>1105</duration>
					<rate>
						<ntsc>FALSE</ntsc>
						<timebase>25</timebase>
					</rate>
					<in>123</in>
					<out>429</out>
					<start>850</start>
					<end>1156</end>
					<pixelaspectratio>Square</pixelaspectratio>
					<enabled>TRUE</enabled>
					<anamorphic>FALSE</anamorphic>
					<alphatype>none</alphatype>
					<masterclipid>C0006 (1)1</masterclipid>
					<logginginfo>
						<scene/>
						<shottake/>
						<lognote/>
						<good>FALSE</good>
					</logginginfo>
					<labels>
						<label2/>
					</labels>
					<comments>
						<mastercomment1/>
						<mastercomment2/>
						<mastercomment3/>
						<mastercomment4/>
					</comments>
					<file id="C0006 (1)2">
						<name>C0006 (1).mov</name>
						<pathurl>file://localhost/Volumes/Askepott/Prosjekter/DNPR637010_Kra%CC%8Akeklubben_TEM_011212/Video/Mellomstikk/S03E%20D%C3%B8den/DAG%201/C0006%20(1).mov</pathurl>
						<rate>
							<timebase>25</timebase>
						</rate>
						<duration>1105</duration>
						<timecode>
							<rate>
								<timebase>25</timebase>
							</rate>
							<string>04:14:45:17</string>
							<frame>382142</frame>
							<displayformat>NDF</displayformat>
							<source>source</source>
							<reel>
								<name>XDCAM 20120508_103415</name>
							</reel>
						</timecode>
						<media>
							<video>
								<duration>1105</duration>
								<samplecharacteristics>
									<width>1920</width>
									<height>1080</height>
								</samplecharacteristics>
							</video>
							<audio>
								<rate>
									<timebase>48000</timebase>
								</rate>
								<trackcount>1</trackcount>
								<channeldescription>8 Channels</channeldescription>
								<samplecharacteristics>
									<depth>24</depth>
								</samplecharacteristics>
							</audio>
						</media>
					</file>
					<filter>
						<enabled>TRUE</enabled>
						<start>-1</start>
						<end>-1</end>
						<effect>
							<name>Brightness and Contrast (Bezier)</name>
							<effectid>Brightness and Contrast (Bezier)</effectid>
							<effectcategory>Image Control</effectcategory>
							<effecttype>filter</effecttype>
							<mediatype>video</mediatype>
							<parameter>
								<parameterid>brightness</parameterid>
								<name>Brightness</name>
								<valuemin>-100</valuemin>
								<valuemax>100</valuemax>
								<value>4</value>
							</parameter>
							<parameter>
								<parameterid>contrast</parameterid>
								<name>Contrast</name>
								<valuemin>-100</valuemin>
								<valuemax>100</valuemax>
								<value>-30</value>
							</parameter>
						</effect>
					</filter>
					<sourcetrack>
						<mediatype>video</mediatype>
					</sourcetrack>
					<link>
						<linkclipref>C0006 (1)</linkclipref>
						<mediatype>video</mediatype>
						<trackindex>1</trackindex>
						<clipindex>9</clipindex>
					</link>
					<link>
						<linkclipref>C0006 (1)3</linkclipref>
						<mediatype>audio</mediatype>
						<trackindex>1</trackindex>
						<clipindex>2</clipindex>
					</link>
					<link>
						<linkclipref>C0006 (1)4</linkclipref>
						<mediatype>audio</mediatype>
						<trackindex>2</trackindex>
						<clipindex>1</clipindex>
					</link>
					<fielddominance>upper</fielddominance>
				</clipitem>
				<clipitem id="C0008 ">
					<name>C0008</name>
					<duration>1233</duration>
					<rate>
						<ntsc>FALSE</ntsc>
						<timebase>25</timebase>
					</rate>
					<in>728</in>
					<out>826</out>
					<start>1156</start>
					<end>1254</end>
					<pixelaspectratio>Square</pixelaspectratio>
					<enabled>TRUE</enabled>
					<anamorphic>FALSE</anamorphic>
					<alphatype>none</alphatype>
					<masterclipid>C0008 1</masterclipid>
					<logginginfo>
						<scene/>
						<shottake/>
						<lognote/>
						<good>FALSE</good>
					</logginginfo>
					<labels>
						<label2/>
					</labels>
					<comments>
						<mastercomment1/>
						<mastercomment2/>
						<mastercomment3/>
						<mastercomment4/>
					</comments>
					<file id="C0008 2">
						<name>C0008.mov</name>
						<pathurl>file://localhost/Volumes/Askepott/Prosjekter/DNPR637010_Kra%CC%8Akeklubben_TEM_011212/Video/Mellomstikk/S03E%20D%C3%B8den/DAG%201/C0008.mov</pathurl>
						<rate>
							<timebase>25</timebase>
						</rate>
						<duration>1233</duration>
						<timecode>
							<rate>
								<timebase>25</timebase>
							</rate>
							<string>04:26:06:10</string>
							<frame>399160</frame>
							<displayformat>NDF</displayformat>
							<source>source</source>
							<reel>
								<name>XDCAM 20120508_103430</name>
							</reel>
						</timecode>
						<media>
							<video>
								<duration>1233</duration>
								<samplecharacteristics>
									<width>1920</width>
									<height>1080</height>
								</samplecharacteristics>
							</video>
							<audio>
								<rate>
									<timebase>48000</timebase>
								</rate>
								<trackcount>1</trackcount>
								<channeldescription>8 Channels</channeldescription>
								<samplecharacteristics>
									<depth>24</depth>
								</samplecharacteristics>
							</audio>
						</media>
					</file>
					<sourcetrack>
						<mediatype>video</mediatype>
					</sourcetrack>
					<link>
						<linkclipref>C0008 </linkclipref>
						<mediatype>video</mediatype>
						<trackindex>1</trackindex>
						<clipindex>10</clipindex>
					</link>
					<link>
						<linkclipref>C0008 3</linkclipref>
						<mediatype>audio</mediatype>
						<trackindex>1</trackindex>
						<clipindex>3</clipindex>
					</link>
					<link>
						<linkclipref>C0008 4</linkclipref>
						<mediatype>audio</mediatype>
						<trackindex>2</trackindex>
						<clipindex>2</clipindex>
					</link>
					<fielddominance>upper</fielddominance>
				</clipitem>
				<clipitem id="C0003 ">
					<name>C0003</name>
					<duration>2143</duration>
					<rate>
						<ntsc>FALSE</ntsc>
						<timebase>25</timebase>
					</rate>
					<in>249</in>
					<out>375</out>
					<start>1254</start>
					<end>1380</end>
					<pixelaspectratio>Square</pixelaspectratio>
					<enabled>TRUE</enabled>
					<anamorphic>FALSE</anamorphic>
					<alphatype>none</alphatype>
					<masterclipid>C0003 1</masterclipid>
					<logginginfo>
						<scene/>
						<shottake/>
						<lognote/>
						<good>FALSE</good>
					</logginginfo>
					<labels>
						<label2/>
					</labels>
					<comments>
						<mastercomment1/>
						<mastercomment2/>
						<mastercomment3/>
						<mastercomment4/>
					</comments>
					<file id="C0003 2">
						<name>C0003.mov</name>
						<pathurl>file://localhost/Volumes/Askepott/Prosjekter/DNPR637010_Kra%CC%8Akeklubben_TEM_011212/Video/Mellomstikk/S03E%20D%C3%B8den/DAG%201/C0003.mov</pathurl>
						<rate>
							<timebase>25</timebase>
						</rate>
						<duration>2143</duration>
						<timecode>
							<rate>
								<timebase>25</timebase>
							</rate>
							<string>04:20:54:24</string>
							<frame>391374</frame>
							<displayformat>NDF</displayformat>
							<source>source</source>
							<reel>
								<name>XDCAM 20120508_103430</name>
							</reel>
						</timecode>
						<media>
							<video>
								<duration>2143</duration>
								<samplecharacteristics>
									<width>1920</width>
									<height>1080</height>
								</samplecharacteristics>
							</video>
							<audio>
								<rate>
									<timebase>48000</timebase>
								</rate>
								<trackcount>1</trackcount>
								<channeldescription>8 Channels</channeldescription>
								<samplecharacteristics>
									<depth>24</depth>
								</samplecharacteristics>
							</audio>
						</media>
					</file>
					<sourcetrack>
						<mediatype>video</mediatype>
					</sourcetrack>
					<link>
						<linkclipref>C0003 </linkclipref>
						<mediatype>video</mediatype>
						<trackindex>1</trackindex>
						<clipindex>11</clipindex>
					</link>
					<link>
						<linkclipref>C0003 3</linkclipref>
						<mediatype>audio</mediatype>
						<trackindex>1</trackindex>
						<clipindex>4</clipindex>
					</link>
					<link>
						<linkclipref>C0003 4</linkclipref>
						<mediatype>audio</mediatype>
						<trackindex>2</trackindex>
						<clipindex>3</clipindex>
					</link>
					<fielddominance>upper</fielddominance>
				</clipitem>
				<clipitem id="C0006 (1)5">
					<name>C0006 (1)</name>
					<duration>1105</duration>
					<rate>
						<ntsc>FALSE</ntsc>
						<timebase>25</timebase>
					</rate>
					<in>688</in>
					<out>968</out>
					<start>1380</start>
					<end>1660</end>
					<pixelaspectratio>Square</pixelaspectratio>
					<enabled>TRUE</enabled>
					<anamorphic>FALSE</anamorphic>
					<alphatype>none</alphatype>
					<masterclipid>C0006 (1)1</masterclipid>
					<logginginfo>
						<scene/>
						<shottake/>
						<lognote/>
						<good>FALSE</good>
					</logginginfo>
					<labels>
						<label2/>
					</labels>
					<comments>
						<mastercomment1/>
						<mastercomment2/>
						<mastercomment3/>
						<mastercomment4/>
					</comments>
					<file id="C0006 (1)2"/>
					<filter>
						<start>-1</start>
						<end>-1</end>
						<effect>
							<name>Brightness and Contrast (Bezier)</name>
							<effectid>Brightness and Contrast (Bezier)</effectid>
							<effectcategory>Image Control</effectcategory>
							<effecttype>filter</effecttype>
							<mediatype>video</mediatype>
							<parameter>
								<parameterid>brightness</parameterid>
								<name>Brightness</name>
								<valuemin>-100</valuemin>
								<valuemax>100</valuemax>
								<value>4</value>
							</parameter>
							<parameter>
								<parameterid>contrast</parameterid>
								<name>Contrast</name>
								<valuemin>-100</valuemin>
								<valuemax>100</valuemax>
								<value>-30</value>
							</parameter>
						</effect>
					</filter>
					<sourcetrack>
						<mediatype>video</mediatype>
					</sourcetrack>
					<fielddominance>upper</fielddominance>
				</clipitem>
				<clipitem id="C0012 ">
					<name>C0012</name>
					<duration>1104</duration>
					<rate>
						<ntsc>FALSE</ntsc>
						<timebase>25</timebase>
					</rate>
					<in>54</in>
					<out>126</out>
					<start>1660</start>
					<end>1732</end>
					<pixelaspectratio>Square</pixelaspectratio>
					<enabled>TRUE</enabled>
					<anamorphic>FALSE</anamorphic>
					<alphatype>none</alphatype>
					<masterclipid>C0012 1</masterclipid>
					<logginginfo>
						<scene/>
						<shottake/>
						<lognote/>
						<good>FALSE</good>
					</logginginfo>
					<labels>
						<label2/>
					</labels>
					<comments>
						<mastercomment1/>
						<mastercomment2/>
						<mastercomment3/>
						<mastercomment4/>
					</comments>
					<file id="C0012 2">
						<name>C0012.mov</name>
						<pathurl>file://localhost/Volumes/Askepott/Prosjekter/DNPR637010_Kra%CC%8Akeklubben_TEM_011212/Video/Mellomstikk/S03E%20D%C3%B8den/DAG%201/C0012.mov</pathurl>
						<rate>
							<timebase>25</timebase>
						</rate>
						<duration>1104</duration>
						<timecode>
							<rate>
								<timebase>25</timebase>
							</rate>
							<string>04:31:36:23</string>
							<frame>407423</frame>
							<displayformat>NDF</displayformat>
							<source>source</source>
							<reel>
								<name>XDCAM 20120508_103430</name>
							</reel>
						</timecode>
						<media>
							<video>
								<duration>1104</duration>
								<samplecharacteristics>
									<width>1920</width>
									<height>1080</height>
								</samplecharacteristics>
							</video>
							<audio>
								<rate>
									<timebase>48000</timebase>
								</rate>
								<trackcount>1</trackcount>
								<channeldescription>8 Channels</channeldescription>
								<samplecharacteristics>
									<depth>24</depth>
								</samplecharacteristics>
							</audio>
						</media>
					</file>
					<sourcetrack>
						<mediatype>video</mediatype>
					</sourcetrack>
					<fielddominance>upper</fielddominance>
				</clipitem>
				<clipitem id="C0008 (1)">
					<name>C0008 (1)</name>
					<duration>2592</duration>
					<rate>
						<ntsc>FALSE</ntsc>
						<timebase>25</timebase>
					</rate>
					<in>194</in>
					<out>389</out>
					<start>1732</start>
					<end>1927</end>
					<pixelaspectratio>Square</pixelaspectratio>
					<enabled>TRUE</enabled>
					<anamorphic>FALSE</anamorphic>
					<alphatype>none</alphatype>
					<masterclipid>C0008 (1)1</masterclipid>
					<logginginfo>
						<scene/>
						<shottake/>
						<lognote/>
						<good>FALSE</good>
					</logginginfo>
					<labels>
						<label2/>
					</labels>
					<comments>
						<mastercomment1/>
						<mastercomment2/>
						<mastercomment3/>
						<mastercomment4/>
					</comments>
					<file id="C0008 (1)2">
						<name>C0008 (1).mov</name>
						<pathurl>file://localhost/Volumes/Askepott/Prosjekter/DNPR637010_Kra%CC%8Akeklubben_TEM_011212/Video/Mellomstikk/S03E%20D%C3%B8den/DAG%201/C0008%20(1).mov</pathurl>
						<rate>
							<timebase>25</timebase>
						</rate>
						<duration>2592</duration>
						<timecode>
							<rate>
								<timebase>25</timebase>
							</rate>
							<string>04:16:00:21</string>
							<frame>384021</frame>
							<displayformat>NDF</displayformat>
							<source>source</source>
							<reel>
								<name>XDCAM 20120508_103415</name>
							</reel>
						</timecode>
						<media>
							<video>
								<duration>2592</duration>
								<samplecharacteristics>
									<width>1920</width>
									<height>1080</height>
								</samplecharacteristics>
							</video>
							<audio>
								<rate>
									<timebase>48000</timebase>
								</rate>
								<trackcount>1</trackcount>
								<channeldescription>8 Channels</channeldescription>
								<samplecharacteristics>
									<depth>24</depth>
								</samplecharacteristics>
							</audio>
						</media>
					</file>
					<sourcetrack>
						<mediatype>video</mediatype>
					</sourcetrack>
					<fielddominance>upper</fielddominance>
				</clipitem>
				<clipitem id="C0009 ">
					<name>C0009</name>
					<duration>2574</duration>
					<rate>
						<ntsc>FALSE</ntsc>
						<timebase>25</timebase>
					</rate>
					<in>970</in>
					<out>1024</out>
					<start>1927</start>
					<end>1981</end>
					<pixelaspectratio>Square</pixelaspectratio>
					<enabled>TRUE</enabled>
					<anamorphic>FALSE</anamorphic>
					<alphatype>none</alphatype>
					<masterclipid>C0009 1</masterclipid>
					<logginginfo>
						<scene/>
						<shottake/>
						<lognote/>
						<good>FALSE</good>
					</logginginfo>
					<labels>
						<label2/>
					</labels>
					<comments>
						<mastercomment1/>
						<mastercomment2/>
						<mastercomment3/>
						<mastercomment4/>
					</comments>
					<file id="C0009 2">
						<name>C0009.mov</name>
						<pathurl>file://localhost/Volumes/Askepott/Prosjekter/DNPR637010_Kra%CC%8Akeklubben_TEM_011212/Video/Mellomstikk/S03E%20D%C3%B8den/DAG%201/C0009.mov</pathurl>
						<rate>
							<timebase>25</timebase>
						</rate>
						<duration>2574</duration>
						<timecode>
							<rate>
								<timebase>25</timebase>
							</rate>
							<string>04:26:55:18</string>
							<frame>400393</frame>
							<displayformat>NDF</displayformat>
							<source>source</source>
							<reel>
								<name>XDCAM 20120508_103430</name>
							</reel>
						</timecode>
						<media>
							<video>
								<duration>2574</duration>
								<samplecharacteristics>
									<width>1920</width>
									<height>1080</height>
								</samplecharacteristics>
							</video>
							<audio>
								<rate>
									<timebase>48000</timebase>
								</rate>
								<trackcount>1</trackcount>
								<channeldescription>8 Channels</channeldescription>
								<samplecharacteristics>
									<depth>24</depth>
								</samplecharacteristics>
							</audio>
						</media>
					</file>
					<sourcetrack>
						<mediatype>video</mediatype>
					</sourcetrack>
					<link>
						<linkclipref>C0009 </linkclipref>
						<mediatype>video</mediatype>
						<trackindex>1</trackindex>
						<clipindex>15</clipindex>
					</link>
					<link>
						<linkclipref>C0009 3</linkclipref>
						<mediatype>audio</mediatype>
						<trackindex>1</trackindex>
						<clipindex>9</clipindex>
					</link>
					<link>
						<linkclipref>C0009 4</linkclipref>
						<mediatype>audio</mediatype>
						<trackindex>2</trackindex>
						<clipindex>8</clipindex>
					</link>
					<fielddominance>upper</fielddominance>
				</clipitem>
				<clipitem id="C0003 5">
					<name>C0003</name>
					<duration>2143</duration>
					<rate>
						<ntsc>FALSE</ntsc>
						<timebase>25</timebase>
					</rate>
					<in>984</in>
					<out>1184</out>
					<start>1981</start>
					<end>2181</end>
					<pixelaspectratio>Square</pixelaspectratio>
					<enabled>TRUE</enabled>
					<anamorphic>FALSE</anamorphic>
					<alphatype>none</alphatype>
					<masterclipid>C0003 1</masterclipid>
					<logginginfo>
						<scene/>
						<shottake/>
						<lognote/>
						<good>FALSE</good>
					</logginginfo>
					<labels>
						<label2/>
					</labels>
					<comments>
						<mastercomment1/>
						<mastercomment2/>
						<mastercomment3/>
						<mastercomment4/>
					</comments>
					<file id="C0003 2"/>
					<sourcetrack>
						<mediatype>video</mediatype>
					</sourcetrack>
					<link>
						<linkclipref>C0003 5</linkclipref>
						<mediatype>video</mediatype>
						<trackindex>1</trackindex>
						<clipindex>16</clipindex>
					</link>
					<link>
						<linkclipref>C0003 6</linkclipref>
						<mediatype>audio</mediatype>
						<trackindex>1</trackindex>
						<clipindex>10</clipindex>
					</link>
					<link>
						<linkclipref>C0003 7</linkclipref>
						<mediatype>audio</mediatype>
						<trackindex>2</trackindex>
						<clipindex>9</clipindex>
					</link>
					<fielddominance>upper</fielddominance>
				</clipitem>
				<clipitem id="C0009 5">
					<name>C0009</name>
					<duration>2574</duration>
					<rate>
						<ntsc>FALSE</ntsc>
						<timebase>25</timebase>
					</rate>
					<in>1230</in>
					<out>1300</out>
					<start>2181</start>
					<end>2251</end>
					<pixelaspectratio>Square</pixelaspectratio>
					<enabled>TRUE</enabled>
					<anamorphic>FALSE</anamorphic>
					<alphatype>none</alphatype>
					<masterclipid>C0009 1</masterclipid>
					<logginginfo>
						<scene/>
						<shottake/>
						<lognote/>
						<good>FALSE</good>
					</logginginfo>
					<labels>
						<label2/>
					</labels>
					<comments>
						<mastercomment1/>
						<mastercomment2/>
						<mastercomment3/>
						<mastercomment4/>
					</comments>
					<file id="C0009 2"/>
					<sourcetrack>
						<mediatype>video</mediatype>
					</sourcetrack>
					<link>
						<linkclipref>C0009 5</linkclipref>
						<mediatype>video</mediatype>
						<trackindex>1</trackindex>
						<clipindex>17</clipindex>
					</link>
					<link>
						<linkclipref>C0009 6</linkclipref>
						<mediatype>audio</mediatype>
						<trackindex>1</trackindex>
						<clipindex>11</clipindex>
					</link>
					<link>
						<linkclipref>C0009 7</linkclipref>
						<mediatype>audio</mediatype>
						<trackindex>2</trackindex>
						<clipindex>10</clipindex>
					</link>
					<fielddominance>upper</fielddominance>
				</clipitem>
				<clipitem id="C0009 (1)">
					<name>C0009 (1)</name>
					<duration>2688</duration>
					<rate>
						<ntsc>FALSE</ntsc>
						<timebase>25</timebase>
					</rate>
					<in>614</in>
					<out>805</out>
					<start>2251</start>
					<end>2442</end>
					<pixelaspectratio>Square</pixelaspectratio>
					<enabled>TRUE</enabled>
					<anamorphic>FALSE</anamorphic>
					<alphatype>none</alphatype>
					<masterclipid>C0009 (1)1</masterclipid>
					<logginginfo>
						<scene/>
						<shottake/>
						<lognote/>
						<good>FALSE</good>
					</logginginfo>
					<labels>
						<label2/>
					</labels>
					<comments>
						<mastercomment1/>
						<mastercomment2/>
						<mastercomment3/>
						<mastercomment4/>
					</comments>
					<file id="C0009 (1)2">
						<name>C0009 (1).mov</name>
						<pathurl>file://localhost/Volumes/Askepott/Prosjekter/DNPR637010_Kra%CC%8Akeklubben_TEM_011212/Video/Mellomstikk/S03E%20D%C3%B8den/DAG%201/C0009%20(1).mov</pathurl>
						<rate>
							<timebase>25</timebase>
						</rate>
						<duration>2688</duration>
						<timecode>
							<rate>
								<timebase>25</timebase>
							</rate>
							<string>04:17:44:13</string>
							<frame>386613</frame>
							<displayformat>NDF</displayformat>
							<source>source</source>
							<reel>
								<name>XDCAM 20120508_103415</name>
							</reel>
						</timecode>
						<media>
							<video>
								<duration>2688</duration>
								<samplecharacteristics>
									<width>1920</width>
									<height>1080</height>
								</samplecharacteristics>
							</video>
							<audio>
								<rate>
									<timebase>48000</timebase>
								</rate>
								<trackcount>1</trackcount>
								<channeldescription>8 Channels</channeldescription>
								<samplecharacteristics>
									<depth>24</depth>
								</samplecharacteristics>
							</audio>
						</media>
					</file>
					<sourcetrack>
						<mediatype>video</mediatype>
					</sourcetrack>
					<link>
						<linkclipref>C0009 (1)</linkclipref>
						<mediatype>video</mediatype>
						<trackindex>1</trackindex>
						<clipindex>18</clipindex>
					</link>
					<link>
						<linkclipref>C0009 (1)3</linkclipref>
						<mediatype>audio</mediatype>
						<trackindex>1</trackindex>
						<clipindex>12</clipindex>
					</link>
					<link>
						<linkclipref>C0009 (1)4</linkclipref>
						<mediatype>audio</mediatype>
						<trackindex>2</trackindex>
						<clipindex>11</clipindex>
					</link>
					<fielddominance>upper</fielddominance>
				</clipitem>
				<clipitem id="C0004 ">
					<name>C0004</name>
					<duration>1095</duration>
					<rate>
						<ntsc>FALSE</ntsc>
						<timebase>25</timebase>
					</rate>
					<in>324</in>
					<out>471</out>
					<start>2442</start>
					<end>2589</end>
					<pixelaspectratio>Square</pixelaspectratio>
					<enabled>TRUE</enabled>
					<anamorphic>FALSE</anamorphic>
					<alphatype>none</alphatype>
					<masterclipid>C0004 1</masterclipid>
					<logginginfo>
						<scene/>
						<shottake/>
						<lognote/>
						<good>FALSE</good>
					</logginginfo>
					<labels>
						<label2/>
					</labels>
					<comments>
						<mastercomment1/>
						<mastercomment2/>
						<mastercomment3/>
						<mastercomment4/>
					</comments>
					<file id="C0004 2">
						<name>C0004.mov</name>
						<pathurl>file://localhost/Volumes/Askepott/Prosjekter/DNPR637010_Kra%CC%8Akeklubben_TEM_011212/Video/Mellomstikk/S03E%20D%C3%B8den/DAG%201/C0004.mov</pathurl>
						<rate>
							<timebase>25</timebase>
						</rate>
						<duration>1095</duration>
						<timecode>
							<rate>
								<timebase>25</timebase>
							</rate>
							<string>04:22:20:17</string>
							<frame>393517</frame>
							<displayformat>NDF</displayformat>
							<source>source</source>
							<reel>
								<name>XDCAM 20120508_103430</name>
							</reel>
						</timecode>
						<media>
							<video>
								<duration>1095</duration>
								<samplecharacteristics>
									<width>1920</width>
									<height>1080</height>
								</samplecharacteristics>
							</video>
							<audio>
								<rate>
									<timebase>48000</timebase>
								</rate>
								<trackcount>1</trackcount>
								<channeldescription>8 Channels</channeldescription>
								<samplecharacteristics>
									<depth>24</depth>
								</samplecharacteristics>
							</audio>
						</media>
					</file>
					<sourcetrack>
						<mediatype>video</mediatype>
					</sourcetrack>
					<link>
						<linkclipref>C0004 </linkclipref>
						<mediatype>video</mediatype>
						<trackindex>1</trackindex>
						<clipindex>19</clipindex>
					</link>
					<fielddominance>upper</fielddominance>
				</clipitem>
				<clipitem id="C0009 8">
					<name>C0009</name>
					<duration>2574</duration>
					<rate>
						<ntsc>FALSE</ntsc>
						<timebase>25</timebase>
					</rate>
					<in>1692</in>
					<out>1765</out>
					<start>2589</start>
					<end>2662</end>
					<pixelaspectratio>Square</pixelaspectratio>
					<enabled>TRUE</enabled>
					<anamorphic>FALSE</anamorphic>
					<alphatype>none</alphatype>
					<masterclipid>C0009 1</masterclipid>
					<logginginfo>
						<scene/>
						<shottake/>
						<lognote/>
						<good>FALSE</good>
					</logginginfo>
					<labels>
						<label2/>
					</labels>
					<comments>
						<mastercomment1/>
						<mastercomment2/>
						<mastercomment3/>
						<mastercomment4/>
					</comments>
					<file id="C0009 2"/>
					<sourcetrack>
						<mediatype>video</mediatype>
					</sourcetrack>
					<link>
						<linkclipref>C0009 8</linkclipref>
						<mediatype>video</mediatype>
						<trackindex>1</trackindex>
						<clipindex>20</clipindex>
					</link>
					<link>
						<linkclipref>C0009 9</linkclipref>
						<mediatype>audio</mediatype>
						<trackindex>1</trackindex>
						<clipindex>14</clipindex>
					</link>
					<link>
						<linkclipref>C0009 10</linkclipref>
						<mediatype>audio</mediatype>
						<trackindex>2</trackindex>
						<clipindex>13</clipindex>
					</link>
					<fielddominance>upper</fielddominance>
				</clipitem>
				<clipitem id="C0004 3">
					<name>C0004</name>
					<duration>1095</duration>
					<rate>
						<ntsc>FALSE</ntsc>
						<timebase>25</timebase>
					</rate>
					<in>550</in>
					<out>792</out>
					<start>2662</start>
					<end>2904</end>
					<pixelaspectratio>Square</pixelaspectratio>
					<enabled>TRUE</enabled>
					<anamorphic>FALSE</anamorphic>
					<alphatype>none</alphatype>
					<masterclipid>C0004 1</masterclipid>
					<logginginfo>
						<scene/>
						<shottake/>
						<lognote/>
						<good>FALSE</good>
					</logginginfo>
					<labels>
						<label2/>
					</labels>
					<comments>
						<mastercomment1/>
						<mastercomment2/>
						<mastercomment3/>
						<mastercomment4/>
					</comments>
					<file id="C0004 2"/>
					<sourcetrack>
						<mediatype>video</mediatype>
					</sourcetrack>
					<link>
						<linkclipref>C0004 3</linkclipref>
						<mediatype>video</mediatype>
						<trackindex>1</trackindex>
						<clipindex>21</clipindex>
					</link>
					<link>
						<linkclipref>C0004 4</linkclipref>
						<mediatype>audio</mediatype>
						<trackindex>1</trackindex>
						<clipindex>15</clipindex>
					</link>
					<link>
						<linkclipref>C0004 5</linkclipref>
						<mediatype>audio</mediatype>
						<trackindex>2</trackindex>
						<clipindex>14</clipindex>
					</link>
					<fielddominance>upper</fielddominance>
				</clipitem>
				<clipitem id="C0009 11">
					<name>C0009</name>
					<duration>2574</duration>
					<rate>
						<ntsc>FALSE</ntsc>
						<timebase>25</timebase>
					</rate>
					<in>2019</in>
					<out>2126</out>
					<start>2904</start>
					<end>3011</end>
					<pixelaspectratio>Square</pixelaspectratio>
					<enabled>TRUE</enabled>
					<anamorphic>FALSE</anamorphic>
					<alphatype>none</alphatype>
					<masterclipid>C0009 1</masterclipid>
					<logginginfo>
						<scene/>
						<shottake/>
						<lognote/>
						<good>FALSE</good>
					</logginginfo>
					<labels>
						<label2/>
					</labels>
					<comments>
						<mastercomment1/>
						<mastercomment2/>
						<mastercomment3/>
						<mastercomment4/>
					</comments>
					<file id="C0009 2"/>
					<sourcetrack>
						<mediatype>video</mediatype>
					</sourcetrack>
					<link>
						<linkclipref>C0009 11</linkclipref>
						<mediatype>video</mediatype>
						<trackindex>1</trackindex>
						<clipindex>22</clipindex>
					</link>
					<link>
						<linkclipref>C0009 12</linkclipref>
						<mediatype>audio</mediatype>
						<trackindex>2</trackindex>
						<clipindex>15</clipindex>
					</link>
					<fielddominance>upper</fielddominance>
				</clipitem>
				<clipitem id="C0009 (1)5">
					<name>C0009 (1)</name>
					<duration>2688</duration>
					<rate>
						<ntsc>FALSE</ntsc>
						<timebase>25</timebase>
					</rate>
					<in>1463</in>
					<out>1630</out>
					<start>3011</start>
					<end>3178</end>
					<pixelaspectratio>Square</pixelaspectratio>
					<enabled>TRUE</enabled>
					<anamorphic>FALSE</anamorphic>
					<alphatype>none</alphatype>
					<masterclipid>C0009 (1)1</masterclipid>
					<logginginfo>
						<scene/>
						<shottake/>
						<lognote/>
						<good>FALSE</good>
					</logginginfo>
					<labels>
						<label2/>
					</labels>
					<comments>
						<mastercomment1/>
						<mastercomment2/>
						<mastercomment3/>
						<mastercomment4/>
					</comments>
					<file id="C0009 (1)2"/>
					<filter>
						<start>-1</start>
						<end>-1</end>
						<effect>
							<name>Brightness and Contrast (Bezier)</name>
							<effectid>Brightness and Contrast (Bezier)</effectid>
							<effectcategory>Image Control</effectcategory>
							<effecttype>filter</effecttype>
							<mediatype>video</mediatype>
							<parameter>
								<parameterid>brightness</parameterid>
								<name>Brightness</name>
								<valuemin>-100</valuemin>
								<valuemax>100</valuemax>
								<value>4</value>
							</parameter>
							<parameter>
								<parameterid>contrast</parameterid>
								<name>Contrast</name>
								<valuemin>-100</valuemin>
								<valuemax>100</valuemax>
								<value>-30</value>
							</parameter>
						</effect>
					</filter>
					<sourcetrack>
						<mediatype>video</mediatype>
					</sourcetrack>
					<link>
						<linkclipref>C0009 (1)5</linkclipref>
						<mediatype>video</mediatype>
						<trackindex>1</trackindex>
						<clipindex>23</clipindex>
					</link>
					<link>
						<linkclipref>C0009 (1)6</linkclipref>
						<mediatype>audio</mediatype>
						<trackindex>1</trackindex>
						<clipindex>17</clipindex>
					</link>
					<link>
						<linkclipref>C0009 (1)7</linkclipref>
						<mediatype>audio</mediatype>
						<trackindex>2</trackindex>
						<clipindex>16</clipindex>
					</link>
					<fielddominance>upper</fielddominance>
				</clipitem>
				<clipitem id="C0005 ">
					<name>C0005</name>
					<duration>1593</duration>
					<rate>
						<ntsc>FALSE</ntsc>
						<timebase>25</timebase>
					</rate>
					<in>614</in>
					<out>681</out>
					<start>3178</start>
					<end>3245</end>
					<pixelaspectratio>Square</pixelaspectratio>
					<enabled>TRUE</enabled>
					<anamorphic>FALSE</anamorphic>
					<alphatype>none</alphatype>
					<masterclipid>C0005 1</masterclipid>
					<logginginfo>
						<scene/>
						<shottake/>
						<lognote/>
						<good>FALSE</good>
					</logginginfo>
					<labels>
						<label2/>
					</labels>
					<comments>
						<mastercomment1/>
						<mastercomment2/>
						<mastercomment3/>
						<mastercomment4/>
					</comments>
					<file id="C0005 2">
						<name>C0005.mov</name>
						<pathurl>file://localhost/Volumes/Askepott/Prosjekter/DNPR637010_Kra%CC%8Akeklubben_TEM_011212/Video/Mellomstikk/S03E%20D%C3%B8den/DAG%201/C0005.mov</pathurl>
						<rate>
							<timebase>25</timebase>
						</rate>
						<duration>1593</duration>
						<timecode>
							<rate>
								<timebase>25</timebase>
							</rate>
							<string>04:23:04:12</string>
							<frame>394612</frame>
							<displayformat>NDF</displayformat>
							<source>source</source>
							<reel>
								<name>XDCAM 20120508_103430</name>
							</reel>
						</timecode>
						<media>
							<video>
								<duration>1593</duration>
								<samplecharacteristics>
									<width>1920</width>
									<height>1080</height>
								</samplecharacteristics>
							</video>
							<audio>
								<rate>
									<timebase>48000</timebase>
								</rate>
								<trackcount>1</trackcount>
								<channeldescription>8 Channels</channeldescription>
								<samplecharacteristics>
									<depth>24</depth>
								</samplecharacteristics>
							</audio>
						</media>
					</file>
					<sourcetrack>
						<mediatype>video</mediatype>
					</sourcetrack>
					<link>
						<linkclipref>C0005 </linkclipref>
						<mediatype>video</mediatype>
						<trackindex>1</trackindex>
						<clipindex>24</clipindex>
					</link>
					<link>
						<linkclipref>C0005 3</linkclipref>
						<mediatype>audio</mediatype>
						<trackindex>2</trackindex>
						<clipindex>18</clipindex>
					</link>
					<fielddominance>upper</fielddominance>
				</clipitem>
				<clipitem id="C0011 ">
					<name>C0011</name>
					<duration>1444</duration>
					<rate>
						<ntsc>FALSE</ntsc>
						<timebase>25</timebase>
					</rate>
					<in>553</in>
					<out>801</out>
					<start>3245</start>
					<end>3493</end>
					<pixelaspectratio>Square</pixelaspectratio>
					<enabled>TRUE</enabled>
					<anamorphic>FALSE</anamorphic>
					<alphatype>none</alphatype>
					<masterclipid>C0011 1</masterclipid>
					<logginginfo>
						<scene/>
						<shottake/>
						<lognote/>
						<good>FALSE</good>
					</logginginfo>
					<labels>
						<label2/>
					</labels>
					<comments>
						<mastercomment1/>
						<mastercomment2/>
						<mastercomment3/>
						<mastercomment4/>
					</comments>
					<file id="C0011 2">
						<name>C0011.mov</name>
						<pathurl>file://localhost/Volumes/Askepott/Prosjekter/DNPR637010_Kra%CC%8Akeklubben_TEM_011212/Video/Mellomstikk/S03E%20D%C3%B8den/DAG%201/C0011.mov</pathurl>
						<rate>
							<timebase>25</timebase>
						</rate>
						<duration>1444</duration>
						<timecode>
							<rate>
								<timebase>25</timebase>
							</rate>
							<string>04:30:39:04</string>
							<frame>405979</frame>
							<displayformat>NDF</displayformat>
							<source>source</source>
							<reel>
								<name>XDCAM 20120508_103430</name>
							</reel>
						</timecode>
						<media>
							<video>
								<duration>1444</duration>
								<samplecharacteristics>
									<width>1920</width>
									<height>1080</height>
								</samplecharacteristics>
							</video>
							<audio>
								<rate>
									<timebase>48000</timebase>
								</rate>
								<trackcount>1</trackcount>
								<channeldescription>8 Channels</channeldescription>
								<samplecharacteristics>
									<depth>24</depth>
								</samplecharacteristics>
							</audio>
						</media>
					</file>
					<sourcetrack>
						<mediatype>video</mediatype>
					</sourcetrack>
					<link>
						<linkclipref>C0011 </linkclipref>
						<mediatype>video</mediatype>
						<trackindex>1</trackindex>
						<clipindex>25</clipindex>
					</link>
					<link>
						<linkclipref>C0011 3</linkclipref>
						<mediatype>audio</mediatype>
						<trackindex>1</trackindex>
						<clipindex>20</clipindex>
					</link>
					<link>
						<linkclipref>C0011 4</linkclipref>
						<mediatype>audio</mediatype>
						<trackindex>2</trackindex>
						<clipindex>19</clipindex>
					</link>
					<fielddominance>upper</fielddominance>
				</clipitem>
				<clipitem id="C0009 (1)8">
					<name>C0009 (1)</name>
					<duration>2688</duration>
					<rate>
						<ntsc>FALSE</ntsc>
						<timebase>25</timebase>
					</rate>
					<in>1894</in>
					<out>1974</out>
					<start>3493</start>
					<end>3573</end>
					<pixelaspectratio>Square</pixelaspectratio>
					<enabled>TRUE</enabled>
					<anamorphic>FALSE</anamorphic>
					<alphatype>none</alphatype>
					<masterclipid>C0009 (1)1</masterclipid>
					<logginginfo>
						<scene/>
						<shottake/>
						<lognote/>
						<good>FALSE</good>
					</logginginfo>
					<labels>
						<label2/>
					</labels>
					<comments>
						<mastercomment1/>
						<mastercomment2/>
						<mastercomment3/>
						<mastercomment4/>
					</comments>
					<file id="C0009 (1)2"/>
					<filter>
						<start>-1</start>
						<end>-1</end>
						<effect>
							<name>Brightness and Contrast (Bezier)</name>
							<effectid>Brightness and Contrast (Bezier)</effectid>
							<effectcategory>Image Control</effectcategory>
							<effecttype>filter</effecttype>
							<mediatype>video</mediatype>
							<parameter>
								<parameterid>brightness</parameterid>
								<name>Brightness</name>
								<valuemin>-100</valuemin>
								<valuemax>100</valuemax>
								<value>4</value>
							</parameter>
							<parameter>
								<parameterid>contrast</parameterid>
								<name>Contrast</name>
								<valuemin>-100</valuemin>
								<valuemax>100</valuemax>
								<value>-30</value>
							</parameter>
						</effect>
					</filter>
					<sourcetrack>
						<mediatype>video</mediatype>
					</sourcetrack>
					<link>
						<linkclipref>C0009 (1)8</linkclipref>
						<mediatype>video</mediatype>
						<trackindex>1</trackindex>
						<clipindex>26</clipindex>
					</link>
					<link>
						<linkclipref>C0009 (1)9</linkclipref>
						<mediatype>audio</mediatype>
						<trackindex>1</trackindex>
						<clipindex>21</clipindex>
					</link>
					<link>
						<linkclipref>C0009 (1)10</linkclipref>
						<mediatype>audio</mediatype>
						<trackindex>2</trackindex>
						<clipindex>20</clipindex>
					</link>
					<fielddominance>upper</fielddominance>
				</clipitem>
				<clipitem id="C0011 5">
					<name>C0011</name>
					<duration>1444</duration>
					<rate>
						<ntsc>FALSE</ntsc>
						<timebase>25</timebase>
					</rate>
					<in>831</in>
					<out>883</out>
					<start>3573</start>
					<end>3625</end>
					<pixelaspectratio>Square</pixelaspectratio>
					<enabled>TRUE</enabled>
					<anamorphic>FALSE</anamorphic>
					<alphatype>none</alphatype>
					<masterclipid>C0011 1</masterclipid>
					<logginginfo>
						<scene/>
						<shottake/>
						<lognote/>
						<good>FALSE</good>
					</logginginfo>
					<labels>
						<label2/>
					</labels>
					<comments>
						<mastercomment1/>
						<mastercomment2/>
						<mastercomment3/>
						<mastercomment4/>
					</comments>
					<file id="C0011 2"/>
					<sourcetrack>
						<mediatype>video</mediatype>
					</sourcetrack>
					<link>
						<linkclipref>C0011 5</linkclipref>
						<mediatype>video</mediatype>
						<trackindex>1</trackindex>
						<clipindex>27</clipindex>
					</link>
					<link>
						<linkclipref>C0011 6</linkclipref>
						<mediatype>audio</mediatype>
						<trackindex>1</trackindex>
						<clipindex>22</clipindex>
					</link>
					<link>
						<linkclipref>C0011 7</linkclipref>
						<mediatype>audio</mediatype>
						<trackindex>2</trackindex>
						<clipindex>21</clipindex>
					</link>
					<fielddominance>upper</fielddominance>
				</clipitem>
				<clipitem id="C0005 4">
					<name>C0005</name>
					<duration>1593</duration>
					<rate>
						<ntsc>FALSE</ntsc>
						<timebase>25</timebase>
					</rate>
					<in>1004</in>
					<out>1138</out>
					<start>3625</start>
					<end>3759</end>
					<pixelaspectratio>Square</pixelaspectratio>
					<enabled>TRUE</enabled>
					<anamorphic>FALSE</anamorphic>
					<alphatype>none</alphatype>
					<masterclipid>C0005 1</masterclipid>
					<logginginfo>
						<scene/>
						<shottake/>
						<lognote/>
						<good>FALSE</good>
					</logginginfo>
					<labels>
						<label2/>
					</labels>
					<comments>
						<mastercomment1/>
						<mastercomment2/>
						<mastercomment3/>
						<mastercomment4/>
					</comments>
					<file id="C0005 2"/>
					<sourcetrack>
						<mediatype>video</mediatype>
					</sourcetrack>
					<link>
						<linkclipref>C0005 4</linkclipref>
						<mediatype>video</mediatype>
						<trackindex>1</trackindex>
						<clipindex>28</clipindex>
					</link>
					<link>
						<linkclipref>C0005 5</linkclipref>
						<mediatype>audio</mediatype>
						<trackindex>2</trackindex>
						<clipindex>22</clipindex>
					</link>
					<fielddominance>upper</fielddominance>
				</clipitem>
				<clipitem id="C0010 ">
					<name>C0010</name>
					<duration>3012</duration>
					<rate>
						<ntsc>FALSE</ntsc>
						<timebase>25</timebase>
					</rate>
					<in>2570</in>
					<out>2887</out>
					<start>3759</start>
					<end>-1</end>
					<pixelaspectratio>Square</pixelaspectratio>
					<enabled>TRUE</enabled>
					<anamorphic>FALSE</anamorphic>
					<alphatype>none</alphatype>
					<masterclipid>C0010 1</masterclipid>
					<logginginfo>
						<scene/>
						<shottake/>
						<lognote/>
						<good>FALSE</good>
					</logginginfo>
					<labels>
						<label2/>
					</labels>
					<comments>
						<mastercomment1/>
						<mastercomment2/>
						<mastercomment3/>
						<mastercomment4/>
					</comments>
					<file id="C0010 2">
						<name>C0010.mov</name>
						<pathurl>file://localhost/Volumes/Askepott/Prosjekter/DNPR637010_Kra%CC%8Akeklubben_TEM_011212/Video/Mellomstikk/S03E%20D%C3%B8den/DAG%201/C0010.mov</pathurl>
						<rate>
							<timebase>25</timebase>
						</rate>
						<duration>3012</duration>
						<timecode>
							<rate>
								<timebase>25</timebase>
							</rate>
							<string>04:28:38:17</string>
							<frame>402967</frame>
							<displayformat>NDF</displayformat>
							<source>source</source>
							<reel>
								<name>XDCAM 20120508_103430</name>
							</reel>
						</timecode>
						<media>
							<video>
								<duration>3012</duration>
								<samplecharacteristics>
									<width>1920</width>
									<height>1080</height>
								</samplecharacteristics>
							</video>
							<audio>
								<rate>
									<timebase>48000</timebase>
								</rate>
								<trackcount>1</trackcount>
								<channeldescription>8 Channels</channeldescription>
								<samplecharacteristics>
									<depth>24</depth>
								</samplecharacteristics>
							</audio>
						</media>
					</file>
					<sourcetrack>
						<mediatype>video</mediatype>
					</sourcetrack>
					<fielddominance>upper</fielddominance>
				</clipitem>
				<transitionitem id="1787963440 ">
					<rate>
						<ntsc>FALSE</ntsc>
						<timebase>25</timebase>
					</rate>
					<start>4073</start>
					<end>4076</end>
					<alignment>start</alignment>
					<effect>
						<name>Cross Dissolve</name>
						<effectid>Cross Dissolve</effectid>
						<effectcategory>Dissolve</effectcategory>
						<effecttype>transition</effecttype>
						<mediatype>video</mediatype>
						<wipecode>0</wipecode>
						<wipeaccuracy>100</wipeaccuracy>
						<startratio>0</startratio>
						<endratio>1</endratio>
						<reverse>FALSE</reverse>
					</effect>
				</transitionitem>
				<clipitem id="Vignett bertie (from Color) Copy.motn">
					<name>Vignett bertie (from Color) Copy.motn</name>
					<duration>298</duration>
					<rate>
						<ntsc>FALSE</ntsc>
						<timebase>25</timebase>
					</rate>
					<in>0</in>
					<out>287</out>
					<start>-1</start>
					<end>-1</end>
					<pixelaspectratio>Square</pixelaspectratio>
					<anamorphic>FALSE</anamorphic>
					<alphatype>black</alphatype>
					<masterclipid>Vignett bertie (from Color) Copy.motn1</masterclipid>
					<logginginfo>
						<scene/>
						<shottake/>
						<lognote/>
						<good>FALSE</good>
					</logginginfo>
					<labels>
						<label2/>
					</labels>
					<comments>
						<mastercomment1/>
						<mastercomment2/>
						<mastercomment3/>
						<mastercomment4/>
					</comments>
					<file id="Vignett bertie (from Color) Copy">
						<name>Vignett bertie (from Color) Copy.motn</name>
						<pathurl>file://localhost/Volumes/Askepott/Prosjekter/DNPR637010_Kra%CC%8Akeklubben_TEM_011212/Prosjektfiler/Motion/Vignetter/Vignett%20bertie%20(from%20Color)%20Copy.motn</pathurl>
						<rate>
							<timebase>25</timebase>
						</rate>
						<duration>298</duration>
						<media>
							<video>
								<duration>298</duration>
								<samplecharacteristics>
									<width>1920</width>
									<height>1080</height>
								</samplecharacteristics>
							</video>
						</media>
					</file>
					<filter>
						<effect>
							<name>Distort</name>
							<effectid>deformation</effectid>
							<effectcategory>motion</effectcategory>
							<effecttype>motion</effecttype>
							<mediatype>video</mediatype>
							<parameter>
								<parameterid>ulcorner</parameterid>
								<name>Upper Left</name>
								<value>
									<horiz>-0.5</horiz>
									<vert>-0.5</vert>
								</value>
							</parameter>
							<parameter>
								<parameterid>urcorner</parameterid>
								<name>Upper Right</name>
								<value>
									<horiz>0.5</horiz>
									<vert>-0.5</vert>
								</value>
							</parameter>
							<parameter>
								<parameterid>lrcorner</parameterid>
								<name>Lower Right</name>
								<value>
									<horiz>0.5</horiz>
									<vert>0.5</vert>
								</value>
							</parameter>
							<parameter>
								<parameterid>llcorner</parameterid>
								<name>Lower Left</name>
								<value>
									<horiz>-0.5</horiz>
									<vert>0.5</vert>
								</value>
							</parameter>
							<parameter>
								<parameterid>aspect</parameterid>
								<name>Aspect</name>
								<valuemin>-10000</valuemin>
								<valuemax>10000</valuemax>
								<value>0</value>
							</parameter>
						</effect>
					</filter>
					<filter>
						<effect>
							<name>Basic Motion</name>
							<effectid>basic</effectid>
							<effectcategory>motion</effectcategory>
							<effecttype>motion</effecttype>
							<mediatype>video</mediatype>
							<parameter>
								<parameterid>scale</parameterid>
								<name>Scale</name>
								<valuemin>0</valuemin>
								<valuemax>1000</valuemax>
								<value>100</value>
							</parameter>
							<parameter>
								<parameterid>rotation</parameterid>
								<name>Rotation</name>
								<valuemin>-8640</valuemin>
								<valuemax>8640</valuemax>
								<value>0</value>
							</parameter>
							<parameter>
								<parameterid>center</parameterid>
								<name>Center</name>
								<value>
									<horiz>0</horiz>
									<vert>0</vert>
								</value>
							</parameter>
							<parameter>
								<parameterid>centerOffset</parameterid>
								<name>Anchor Point</name>
								<value>
									<horiz>0</horiz>
									<vert>0</vert>
								</value>
							</parameter>
						</effect>
					</filter>
					<sourcetrack>
						<mediatype>video</mediatype>
					</sourcetrack>
					<fielddominance>upper</fielddominance>
				</clipitem>
				<transitionitem id="1787950384 ">
					<rate>
						<ntsc>FALSE</ntsc>
						<timebase>25</timebase>
					</rate>
					<start>4347</start>
					<end>4360</end>
					<alignment>center</alignment>
					<effect>
						<name>G Glow Dissolve Copy</name>
						<effectcategory>Nattress Big Box Of Tricks</effectcategory>
						<effecttype>transition</effecttype>
						<mediatype>video</mediatype>
						<wipecode>0</wipecode>
						<wipeaccuracy>100</wipeaccuracy>
						<startratio>0</startratio>
						<endratio>1</endratio>
						<reverse>FALSE</reverse>
						<parameter>
							<parameterid>glowamount</parameterid>
							<name>Glow Amount</name>
							<valuemin>0</valuemin>
							<valuemax>100</valuemax>
							<value>44</value>
						</parameter>
						<parameter>
							<parameterid>glowthreshold</parameterid>
							<name>Glow Threshold Limit</name>
							<valuemin>0</valuemin>
							<valuemax>100</valuemax>
							<value>12</value>
						</parameter>
						<parameter>
							<parameterid>glowsize</parameterid>
							<name>Glow Size</name>
							<valuemin>0</valuemin>
							<valuemax>100</valuemax>
							<value>13</value>
						</parameter>
						<parameter>
							<parameterid>ablur</parameterid>
							<name>Blur</name>
							<valuemin>0</valuemin>
							<valuemax>100</valuemax>
							<value>18</value>
						</parameter>
						<parameter>
							<parameterid>asaturation</parameterid>
							<name>Saturation</name>
							<valuemin>-1</valuemin>
							<valuemax>4</valuemax>
							<value>0</value>
						</parameter>
						<parameter>
							<parameterid>dissolvep</parameterid>
							<name>Dissolve Percentage</name>
							<valuemin>5</valuemin>
							<valuemax>100</valuemax>
							<value>50</value>
						</parameter>
						<parameter>
							<parameterid>copyright</parameterid>
							<name>© www.nattress.com</name>
							<value>string</value>
						</parameter>
					</effect>
				</transitionitem>
				<clipitem id="525_0291_01 ">
					<name>525_0291_01</name>
					<duration>191</duration>
					<rate>
						<ntsc>FALSE</ntsc>
						<timebase>25</timebase>
					</rate>
					<in>25</in>
					<out>166</out>
					<start>-1</start>
					<end>4488</end>
					<pixelaspectratio>Square</pixelaspectratio>
					<anamorphic>FALSE</anamorphic>
					<alphatype>none</alphatype>
					<logginginfo>
						<scene/>
						<shottake/>
						<lognote/>
						<good>FALSE</good>
					</logginginfo>
					<labels>
						<label2/>
					</labels>
					<comments>
						<mastercomment1/>
						<mastercomment2/>
						<mastercomment3/>
						<mastercomment4/>
					</comments>
					<file id="2_g1 ">
						<name>2_g1.mov</name>
						<pathurl>file://localhost/Volumes/Askepott/Final%20Cut%20Pro%20Documents/Color%20Renderfiles/Lam%20v1/2/2_g1.mov</pathurl>
						<rate>
							<timebase>25</timebase>
						</rate>
						<duration>191</duration>
						<timecode>
							<rate>
								<timebase>25</timebase>
							</rate>
							<string>10:52:37:16</string>
							<frame>978941</frame>
							<displayformat>NDF</displayformat>
							<source>source</source>
							<reel>
								<name>Untitled</name>
							</reel>
						</timecode>
						<media>
							<video>
								<duration>191</duration>
								<samplecharacteristics>
									<width>1920</width>
									<height>1080</height>
								</samplecharacteristics>
							</video>
						</media>
					</file>
					<filter>
						<effect>
							<name>Distort</name>
							<effectid>deformation</effectid>
							<effectcategory>motion</effectcategory>
							<effecttype>motion</effecttype>
							<mediatype>video</mediatype>
							<parameter>
								<parameterid>ulcorner</parameterid>
								<name>Upper Left</name>
								<value>
									<horiz>-0.5</horiz>
									<vert>-0.5</vert>
								</value>
							</parameter>
							<parameter>
								<parameterid>urcorner</parameterid>
								<name>Upper Right</name>
								<value>
									<horiz>0.5</horiz>
									<vert>-0.5</vert>
								</value>
							</parameter>
							<parameter>
								<parameterid>lrcorner</parameterid>
								<name>Lower Right</name>
								<value>
									<horiz>0.5</horiz>
									<vert>0.5</vert>
								</value>
							</parameter>
							<parameter>
								<parameterid>llcorner</parameterid>
								<name>Lower Left</name>
								<value>
									<horiz>-0.5</horiz>
									<vert>0.5</vert>
								</value>
							</parameter>
							<parameter>
								<parameterid>aspect</parameterid>
								<name>Aspect</name>
								<valuemin>-10000</valuemin>
								<valuemax>10000</valuemax>
								<value>0</value>
							</parameter>
						</effect>
					</filter>
					<filter>
						<effect>
							<name>Basic Motion</name>
							<effectid>basic</effectid>
							<effectcategory>motion</effectcategory>
							<effecttype>motion</effecttype>
							<mediatype>video</mediatype>
							<parameter>
								<parameterid>scale</parameterid>
								<name>Scale</name>
								<valuemin>0</valuemin>
								<valuemax>1000</valuemax>
								<value>100</value>
							</parameter>
							<parameter>
								<parameterid>rotation</parameterid>
								<name>Rotation</name>
								<valuemin>-8640</valuemin>
								<valuemax>8640</valuemax>
								<value>0</value>
							</parameter>
							<parameter>
								<parameterid>center</parameterid>
								<name>Center</name>
								<value>
									<horiz>0</horiz>
									<vert>0</vert>
								</value>
							</parameter>
							<parameter>
								<parameterid>centerOffset</parameterid>
								<name>Anchor Point</name>
								<value>
									<horiz>0</horiz>
									<vert>0</vert>
								</value>
							</parameter>
						</effect>
					</filter>
					<sourcetrack>
						<mediatype>video</mediatype>
					</sourcetrack>
					<fielddominance>upper</fielddominance>
				</clipitem>
				<clipitem id="525_0297_01 ">
					<name>525_0297_01</name>
					<duration>133</duration>
					<rate>
						<ntsc>FALSE</ntsc>
						<timebase>25</timebase>
					</rate>
					<in>25</in>
					<out>108</out>
					<start>4488</start>
					<end>4571</end>
					<pixelaspectratio>Square</pixelaspectratio>
					<anamorphic>FALSE</anamorphic>
					<alphatype>none</alphatype>
					<logginginfo>
						<scene/>
						<shottake/>
						<lognote/>
						<good>FALSE</good>
					</logginginfo>
					<labels>
						<label2/>
					</labels>
					<comments>
						<mastercomment1/>
						<mastercomment2/>
						<mastercomment3/>
						<mastercomment4/>
					</comments>
					<file id="3_g1 ">
						<name>3_g1.mov</name>
						<pathurl>file://localhost/Volumes/Askepott/Final%20Cut%20Pro%20Documents/Color%20Renderfiles/Lam%20v1/3/3_g1.mov</pathurl>
						<rate>
							<timebase>25</timebase>
						</rate>
						<duration>133</duration>
						<timecode>
							<rate>
								<timebase>25</timebase>
							</rate>
							<string>11:04:09:18</string>
							<frame>996243</frame>
							<displayformat>NDF</displayformat>
							<source>source</source>
							<reel>
								<name>Untitled</name>
							</reel>
						</timecode>
						<media>
							<video>
								<duration>133</duration>
								<samplecharacteristics>
									<width>1920</width>
									<height>1080</height>
								</samplecharacteristics>
							</video>
						</media>
					</file>
					<filter>
						<effect>
							<name>Distort</name>
							<effectid>deformation</effectid>
							<effectcategory>motion</effectcategory>
							<effecttype>motion</effecttype>
							<mediatype>video</mediatype>
							<parameter>
								<parameterid>ulcorner</parameterid>
								<name>Upper Left</name>
								<value>
									<horiz>-0.5</horiz>
									<vert>-0.5</vert>
								</value>
							</parameter>
							<parameter>
								<parameterid>urcorner</parameterid>
								<name>Upper Right</name>
								<value>
									<horiz>0.5</horiz>
									<vert>-0.5</vert>
								</value>
							</parameter>
							<parameter>
								<parameterid>lrcorner</parameterid>
								<name>Lower Right</name>
								<value>
									<horiz>0.5</horiz>
									<vert>0.5</vert>
								</value>
							</parameter>
							<parameter>
								<parameterid>llcorner</parameterid>
								<name>Lower Left</name>
								<value>
									<horiz>-0.5</horiz>
									<vert>0.5</vert>
								</value>
							</parameter>
							<parameter>
								<parameterid>aspect</parameterid>
								<name>Aspect</name>
								<valuemin>-10000</valuemin>
								<valuemax>10000</valuemax>
								<value>0</value>
							</parameter>
						</effect>
					</filter>
					<filter>
						<effect>
							<name>Basic Motion</name>
							<effectid>basic</effectid>
							<effectcategory>motion</effectcategory>
							<effecttype>motion</effecttype>
							<mediatype>video</mediatype>
							<parameter>
								<parameterid>scale</parameterid>
								<name>Scale</name>
								<valuemin>0</valuemin>
								<valuemax>1000</valuemax>
								<value>100</value>
							</parameter>
							<parameter>
								<parameterid>rotation</parameterid>
								<name>Rotation</name>
								<valuemin>-8640</valuemin>
								<valuemax>8640</valuemax>
								<value>0</value>
							</parameter>
							<parameter>
								<parameterid>center</parameterid>
								<name>Center</name>
								<value>
									<horiz>0</horiz>
									<vert>0</vert>
								</value>
							</parameter>
							<parameter>
								<parameterid>centerOffset</parameterid>
								<name>Anchor Point</name>
								<value>
									<horiz>0</horiz>
									<vert>0</vert>
								</value>
							</parameter>
						</effect>
					</filter>
					<sourcetrack>
						<mediatype>video</mediatype>
					</sourcetrack>
					<fielddominance>upper</fielddominance>
				</clipitem>
				<clipitem id="525_0297_01 1">
					<name>525_0297_01</name>
					<duration>129</duration>
					<rate>
						<ntsc>FALSE</ntsc>
						<timebase>25</timebase>
					</rate>
					<in>25</in>
					<out>104</out>
					<start>4571</start>
					<end>4650</end>
					<pixelaspectratio>Square</pixelaspectratio>
					<anamorphic>FALSE</anamorphic>
					<alphatype>none</alphatype>
					<logginginfo>
						<scene/>
						<shottake/>
						<lognote/>
						<good>FALSE</good>
					</logginginfo>
					<labels>
						<label2/>
					</labels>
					<comments>
						<mastercomment1/>
						<mastercomment2/>
						<mastercomment3/>
						<mastercomment4/>
					</comments>
					<file id="4_g1 ">
						<name>4_g1.mov</name>
						<pathurl>file://localhost/Volumes/Askepott/Final%20Cut%20Pro%20Documents/Color%20Renderfiles/Lam%20v1/4/4_g1.mov</pathurl>
						<rate>
							<timebase>25</timebase>
						</rate>
						<duration>129</duration>
						<timecode>
							<rate>
								<timebase>25</timebase>
							</rate>
							<string>11:04:16:08</string>
							<frame>996408</frame>
							<displayformat>NDF</displayformat>
							<source>source</source>
							<reel>
								<name>Untitled</name>
							</reel>
						</timecode>
						<media>
							<video>
								<duration>129</duration>
								<samplecharacteristics>
									<width>1920</width>
									<height>1080</height>
								</samplecharacteristics>
							</video>
						</media>
					</file>
					<filter>
						<effect>
							<name>Distort</name>
							<effectid>deformation</effectid>
							<effectcategory>motion</effectcategory>
							<effecttype>motion</effecttype>
							<mediatype>video</mediatype>
							<parameter>
								<parameterid>ulcorner</parameterid>
								<name>Upper Left</name>
								<value>
									<horiz>-0.5</horiz>
									<vert>-0.5</vert>
								</value>
							</parameter>
							<parameter>
								<parameterid>urcorner</parameterid>
								<name>Upper Right</name>
								<value>
									<horiz>0.5</horiz>
									<vert>-0.5</vert>
								</value>
							</parameter>
							<parameter>
								<parameterid>lrcorner</parameterid>
								<name>Lower Right</name>
								<value>
									<horiz>0.5</horiz>
									<vert>0.5</vert>
								</value>
							</parameter>
							<parameter>
								<parameterid>llcorner</parameterid>
								<name>Lower Left</name>
								<value>
									<horiz>-0.5</horiz>
									<vert>0.5</vert>
								</value>
							</parameter>
							<parameter>
								<parameterid>aspect</parameterid>
								<name>Aspect</name>
								<valuemin>-10000</valuemin>
								<valuemax>10000</valuemax>
								<value>0</value>
							</parameter>
						</effect>
					</filter>
					<filter>
						<effect>
							<name>Basic Motion</name>
							<effectid>basic</effectid>
							<effectcategory>motion</effectcategory>
							<effecttype>motion</effecttype>
							<mediatype>video</mediatype>
							<parameter>
								<parameterid>scale</parameterid>
								<name>Scale</name>
								<valuemin>0</valuemin>
								<valuemax>1000</valuemax>
								<value>100</value>
							</parameter>
							<parameter>
								<parameterid>rotation</parameterid>
								<name>Rotation</name>
								<valuemin>-8640</valuemin>
								<valuemax>8640</valuemax>
								<value>0</value>
							</parameter>
							<parameter>
								<parameterid>center</parameterid>
								<name>Center</name>
								<value>
									<horiz>0</horiz>
									<vert>0</vert>
								</value>
							</parameter>
							<parameter>
								<parameterid>centerOffset</parameterid>
								<name>Anchor Point</name>
								<value>
									<horiz>0</horiz>
									<vert>0</vert>
								</value>
							</parameter>
						</effect>
					</filter>
					<sourcetrack>
						<mediatype>video</mediatype>
					</sourcetrack>
					<fielddominance>upper</fielddominance>
				</clipitem>
				<clipitem id="525_0297_01 2">
					<name>525_0297_01</name>
					<duration>129</duration>
					<rate>
						<ntsc>FALSE</ntsc>
						<timebase>25</timebase>
					</rate>
					<in>25</in>
					<out>104</out>
					<start>4650</start>
					<end>4729</end>
					<pixelaspectratio>Square</pixelaspectratio>
					<anamorphic>FALSE</anamorphic>
					<alphatype>none</alphatype>
					<logginginfo>
						<scene/>
						<shottake/>
						<lognote/>
						<good>FALSE</good>
					</logginginfo>
					<labels>
						<label2/>
					</labels>
					<comments>
						<mastercomment1/>
						<mastercomment2/>
						<mastercomment3/>
						<mastercomment4/>
					</comments>
					<file id="5_g1 ">
						<name>5_g1.mov</name>
						<pathurl>file://localhost/Volumes/Askepott/Final%20Cut%20Pro%20Documents/Color%20Renderfiles/Lam%20v1/5/5_g1.mov</pathurl>
						<rate>
							<timebase>25</timebase>
						</rate>
						<duration>129</duration>
						<timecode>
							<rate>
								<timebase>25</timebase>
							</rate>
							<string>11:07:33:23</string>
							<frame>1001348</frame>
							<displayformat>NDF</displayformat>
							<source>source</source>
							<reel>
								<name>Untitled</name>
							</reel>
						</timecode>
						<media>
							<video>
								<duration>129</duration>
								<samplecharacteristics>
									<width>1920</width>
									<height>1080</height>
								</samplecharacteristics>
							</video>
						</media>
					</file>
					<filter>
						<effect>
							<name>Distort</name>
							<effectid>deformation</effectid>
							<effectcategory>motion</effectcategory>
							<effecttype>motion</effecttype>
							<mediatype>video</mediatype>
							<parameter>
								<parameterid>ulcorner</parameterid>
								<name>Upper Left</name>
								<value>
									<horiz>-0.5</horiz>
									<vert>-0.5</vert>
								</value>
							</parameter>
							<parameter>
								<parameterid>urcorner</parameterid>
								<name>Upper Right</name>
								<value>
									<horiz>0.5</horiz>
									<vert>-0.5</vert>
								</value>
							</parameter>
							<parameter>
								<parameterid>lrcorner</parameterid>
								<name>Lower Right</name>
								<value>
									<horiz>0.5</horiz>
									<vert>0.5</vert>
								</value>
							</parameter>
							<parameter>
								<parameterid>llcorner</parameterid>
								<name>Lower Left</name>
								<value>
									<horiz>-0.5</horiz>
									<vert>0.5</vert>
								</value>
							</parameter>
							<parameter>
								<parameterid>aspect</parameterid>
								<name>Aspect</name>
								<valuemin>-10000</valuemin>
								<valuemax>10000</valuemax>
								<value>0</value>
							</parameter>
						</effect>
					</filter>
					<filter>
						<effect>
							<name>Basic Motion</name>
							<effectid>basic</effectid>
							<effectcategory>motion</effectcategory>
							<effecttype>motion</effecttype>
							<mediatype>video</mediatype>
							<parameter>
								<parameterid>scale</parameterid>
								<name>Scale</name>
								<valuemin>0</valuemin>
								<valuemax>1000</valuemax>
								<value>100</value>
							</parameter>
							<parameter>
								<parameterid>rotation</parameterid>
								<name>Rotation</name>
								<valuemin>-8640</valuemin>
								<valuemax>8640</valuemax>
								<value>0</value>
							</parameter>
							<parameter>
								<parameterid>center</parameterid>
								<name>Center</name>
								<value>
									<horiz>0</horiz>
									<vert>0</vert>
								</value>
							</parameter>
							<parameter>
								<parameterid>centerOffset</parameterid>
								<name>Anchor Point</name>
								<value>
									<horiz>0</horiz>
									<vert>0</vert>
								</value>
							</parameter>
						</effect>
					</filter>
					<sourcetrack>
						<mediatype>video</mediatype>
					</sourcetrack>
					<fielddominance>upper</fielddominance>
				</clipitem>
				<clipitem id="525_0297_01 3">
					<name>525_0297_01</name>
					<duration>64</duration>
					<rate>
						<ntsc>FALSE</ntsc>
						<timebase>25</timebase>
					</rate>
					<in>25</in>
					<out>39</out>
					<start>4729</start>
					<end>4743</end>
					<pixelaspectratio>Square</pixelaspectratio>
					<anamorphic>FALSE</anamorphic>
					<alphatype>none</alphatype>
					<logginginfo>
						<scene/>
						<shottake/>
						<lognote/>
						<good>FALSE</good>
					</logginginfo>
					<labels>
						<label2/>
					</labels>
					<comments>
						<mastercomment1/>
						<mastercomment2/>
						<mastercomment3/>
						<mastercomment4/>
					</comments>
					<file id="6_g1 1">
						<name>6_g1.mov</name>
						<pathurl>file://localhost/Volumes/Askepott/Final%20Cut%20Pro%20Documents/Color%20Renderfiles/Lam%20v1/6/6_g1.mov</pathurl>
						<rate>
							<timebase>25</timebase>
						</rate>
						<duration>64</duration>
						<timecode>
							<rate>
								<timebase>25</timebase>
							</rate>
							<string>11:07:38:01</string>
							<frame>1001451</frame>
							<displayformat>NDF</displayformat>
							<source>source</source>
							<reel>
								<name>Untitled</name>
							</reel>
						</timecode>
						<media>
							<video>
								<duration>64</duration>
								<samplecharacteristics>
									<width>1920</width>
									<height>1080</height>
								</samplecharacteristics>
							</video>
						</media>
					</file>
					<filter>
						<effect>
							<name>Distort</name>
							<effectid>deformation</effectid>
							<effectcategory>motion</effectcategory>
							<effecttype>motion</effecttype>
							<mediatype>video</mediatype>
							<parameter>
								<parameterid>ulcorner</parameterid>
								<name>Upper Left</name>
								<value>
									<horiz>-0.5</horiz>
									<vert>-0.5</vert>
								</value>
							</parameter>
							<parameter>
								<parameterid>urcorner</parameterid>
								<name>Upper Right</name>
								<value>
									<horiz>0.5</horiz>
									<vert>-0.5</vert>
								</value>
							</parameter>
							<parameter>
								<parameterid>lrcorner</parameterid>
								<name>Lower Right</name>
								<value>
									<horiz>0.5</horiz>
									<vert>0.5</vert>
								</value>
							</parameter>
							<parameter>
								<parameterid>llcorner</parameterid>
								<name>Lower Left</name>
								<value>
									<horiz>-0.5</horiz>
									<vert>0.5</vert>
								</value>
							</parameter>
							<parameter>
								<parameterid>aspect</parameterid>
								<name>Aspect</name>
								<valuemin>-10000</valuemin>
								<valuemax>10000</valuemax>
								<value>0</value>
							</parameter>
						</effect>
					</filter>
					<filter>
						<effect>
							<name>Basic Motion</name>
							<effectid>basic</effectid>
							<effectcategory>motion</effectcategory>
							<effecttype>motion</effecttype>
							<mediatype>video</mediatype>
							<parameter>
								<parameterid>scale</parameterid>
								<name>Scale</name>
								<valuemin>0</valuemin>
								<valuemax>1000</valuemax>
								<value>100</value>
							</parameter>
							<parameter>
								<parameterid>rotation</parameterid>
								<name>Rotation</name>
								<valuemin>-8640</valuemin>
								<valuemax>8640</valuemax>
								<value>0</value>
							</parameter>
							<parameter>
								<parameterid>center</parameterid>
								<name>Center</name>
								<value>
									<horiz>0</horiz>
									<vert>0</vert>
								</value>
							</parameter>
							<parameter>
								<parameterid>centerOffset</parameterid>
								<name>Anchor Point</name>
								<value>
									<horiz>0</horiz>
									<vert>0</vert>
								</value>
							</parameter>
						</effect>
					</filter>
					<sourcetrack>
						<mediatype>video</mediatype>
					</sourcetrack>
					<fielddominance>upper</fielddominance>
				</clipitem>
				<clipitem id="525_0297_01 4">
					<name>525_0297_01</name>
					<duration>172</duration>
					<rate>
						<ntsc>FALSE</ntsc>
						<timebase>25</timebase>
					</rate>
					<in>25</in>
					<out>147</out>
					<start>4743</start>
					<end>4865</end>
					<pixelaspectratio>Square</pixelaspectratio>
					<anamorphic>FALSE</anamorphic>
					<alphatype>none</alphatype>
					<logginginfo>
						<scene/>
						<shottake/>
						<lognote/>
						<good>FALSE</good>
					</logginginfo>
					<labels>
						<label2/>
					</labels>
					<comments>
						<mastercomment1/>
						<mastercomment2/>
						<mastercomment3/>
						<mastercomment4/>
					</comments>
					<file id="7_g1 ">
						<name>7_g1.mov</name>
						<pathurl>file://localhost/Volumes/Askepott/Final%20Cut%20Pro%20Documents/Color%20Renderfiles/Lam%20v1/7/7_g1.mov</pathurl>
						<rate>
							<timebase>25</timebase>
						</rate>
						<duration>172</duration>
						<timecode>
							<rate>
								<timebase>25</timebase>
							</rate>
							<string>11:07:41:06</string>
							<frame>1001531</frame>
							<displayformat>NDF</displayformat>
							<source>source</source>
							<reel>
								<name>Untitled</name>
							</reel>
						</timecode>
						<media>
							<video>
								<duration>172</duration>
								<samplecharacteristics>
									<width>1920</width>
									<height>1080</height>
								</samplecharacteristics>
							</video>
						</media>
					</file>
					<filter>
						<effect>
							<name>Distort</name>
							<effectid>deformation</effectid>
							<effectcategory>motion</effectcategory>
							<effecttype>motion</effecttype>
							<mediatype>video</mediatype>
							<parameter>
								<parameterid>ulcorner</parameterid>
								<name>Upper Left</name>
								<value>
									<horiz>-0.5</horiz>
									<vert>-0.5</vert>
								</value>
							</parameter>
							<parameter>
								<parameterid>urcorner</parameterid>
								<name>Upper Right</name>
								<value>
									<horiz>0.5</horiz>
									<vert>-0.5</vert>
								</value>
							</parameter>
							<parameter>
								<parameterid>lrcorner</parameterid>
								<name>Lower Right</name>
								<value>
									<horiz>0.5</horiz>
									<vert>0.5</vert>
								</value>
							</parameter>
							<parameter>
								<parameterid>llcorner</parameterid>
								<name>Lower Left</name>
								<value>
									<horiz>-0.5</horiz>
									<vert>0.5</vert>
								</value>
							</parameter>
							<parameter>
								<parameterid>aspect</parameterid>
								<name>Aspect</name>
								<valuemin>-10000</valuemin>
								<valuemax>10000</valuemax>
								<value>0</value>
							</parameter>
						</effect>
					</filter>
					<filter>
						<effect>
							<name>Basic Motion</name>
							<effectid>basic</effectid>
							<effectcategory>motion</effectcategory>
							<effecttype>motion</effecttype>
							<mediatype>video</mediatype>
							<parameter>
								<parameterid>scale</parameterid>
								<name>Scale</name>
								<valuemin>0</valuemin>
								<valuemax>1000</valuemax>
								<value>100</value>
							</parameter>
							<parameter>
								<parameterid>rotation</parameterid>
								<name>Rotation</name>
								<valuemin>-8640</valuemin>
								<valuemax>8640</valuemax>
								<value>0</value>
							</parameter>
							<parameter>
								<parameterid>center</parameterid>
								<name>Center</name>
								<value>
									<horiz>0</horiz>
									<vert>0</vert>
								</value>
							</parameter>
							<parameter>
								<parameterid>centerOffset</parameterid>
								<name>Anchor Point</name>
								<value>
									<horiz>0</horiz>
									<vert>0</vert>
								</value>
							</parameter>
						</effect>
					</filter>
					<sourcetrack>
						<mediatype>video</mediatype>
					</sourcetrack>
					<fielddominance>upper</fielddominance>
				</clipitem>
				<clipitem id="525_0297_01 5">
					<name>525_0297_01</name>
					<duration>104</duration>
					<rate>
						<ntsc>FALSE</ntsc>
						<timebase>25</timebase>
					</rate>
					<in>25</in>
					<out>79</out>
					<start>4865</start>
					<end>4919</end>
					<pixelaspectratio>Square</pixelaspectratio>
					<anamorphic>FALSE</anamorphic>
					<alphatype>none</alphatype>
					<logginginfo>
						<scene/>
						<shottake/>
						<lognote/>
						<good>FALSE</good>
					</logginginfo>
					<labels>
						<label2/>
					</labels>
					<comments>
						<mastercomment1/>
						<mastercomment2/>
						<mastercomment3/>
						<mastercomment4/>
					</comments>
					<file id="8_g1 ">
						<name>8_g1.mov</name>
						<pathurl>file://localhost/Volumes/Askepott/Final%20Cut%20Pro%20Documents/Color%20Renderfiles/Lam%20v1/8/8_g1.mov</pathurl>
						<rate>
							<timebase>25</timebase>
						</rate>
						<duration>104</duration>
						<timecode>
							<rate>
								<timebase>25</timebase>
							</rate>
							<string>11:07:47:07</string>
							<frame>1001682</frame>
							<displayformat>NDF</displayformat>
							<source>source</source>
							<reel>
								<name>Untitled</name>
							</reel>
						</timecode>
						<media>
							<video>
								<duration>104</duration>
								<samplecharacteristics>
									<width>1920</width>
									<height>1080</height>
								</samplecharacteristics>
							</video>
						</media>
					</file>
					<filter>
						<effect>
							<name>Distort</name>
							<effectid>deformation</effectid>
							<effectcategory>motion</effectcategory>
							<effecttype>motion</effecttype>
							<mediatype>video</mediatype>
							<parameter>
								<parameterid>ulcorner</parameterid>
								<name>Upper Left</name>
								<value>
									<horiz>-0.5</horiz>
									<vert>-0.5</vert>
								</value>
							</parameter>
							<parameter>
								<parameterid>urcorner</parameterid>
								<name>Upper Right</name>
								<value>
									<horiz>0.5</horiz>
									<vert>-0.5</vert>
								</value>
							</parameter>
							<parameter>
								<parameterid>lrcorner</parameterid>
								<name>Lower Right</name>
								<value>
									<horiz>0.5</horiz>
									<vert>0.5</vert>
								</value>
							</parameter>
							<parameter>
								<parameterid>llcorner</parameterid>
								<name>Lower Left</name>
								<value>
									<horiz>-0.5</horiz>
									<vert>0.5</vert>
								</value>
							</parameter>
							<parameter>
								<parameterid>aspect</parameterid>
								<name>Aspect</name>
								<valuemin>-10000</valuemin>
								<valuemax>10000</valuemax>
								<value>0</value>
							</parameter>
						</effect>
					</filter>
					<filter>
						<effect>
							<name>Basic Motion</name>
							<effectid>basic</effectid>
							<effectcategory>motion</effectcategory>
							<effecttype>motion</effecttype>
							<mediatype>video</mediatype>
							<parameter>
								<parameterid>scale</parameterid>
								<name>Scale</name>
								<valuemin>0</valuemin>
								<valuemax>1000</valuemax>
								<value>100</value>
							</parameter>
							<parameter>
								<parameterid>rotation</parameterid>
								<name>Rotation</name>
								<valuemin>-8640</valuemin>
								<valuemax>8640</valuemax>
								<value>0</value>
							</parameter>
							<parameter>
								<parameterid>center</parameterid>
								<name>Center</name>
								<value>
									<horiz>0</horiz>
									<vert>0</vert>
								</value>
							</parameter>
							<parameter>
								<parameterid>centerOffset</parameterid>
								<name>Anchor Point</name>
								<value>
									<horiz>0</horiz>
									<vert>0</vert>
								</value>
							</parameter>
						</effect>
					</filter>
					<sourcetrack>
						<mediatype>video</mediatype>
					</sourcetrack>
					<fielddominance>upper</fielddominance>
				</clipitem>
				<clipitem id="525_0297_01 6">
					<name>525_0297_01</name>
					<duration>106</duration>
					<rate>
						<ntsc>FALSE</ntsc>
						<timebase>25</timebase>
					</rate>
					<in>25</in>
					<out>81</out>
					<start>4919</start>
					<end>4975</end>
					<pixelaspectratio>Square</pixelaspectratio>
					<anamorphic>FALSE</anamorphic>
					<alphatype>none</alphatype>
					<logginginfo>
						<scene/>
						<shottake/>
						<lognote/>
						<good>FALSE</good>
					</logginginfo>
					<labels>
						<label2/>
					</labels>
					<comments>
						<mastercomment1/>
						<mastercomment2/>
						<mastercomment3/>
						<mastercomment4/>
					</comments>
					<file id="9_g1 ">
						<name>9_g1.mov</name>
						<pathurl>file://localhost/Volumes/Askepott/Final%20Cut%20Pro%20Documents/Color%20Renderfiles/Lam%20v1/9/9_g1.mov</pathurl>
						<rate>
							<timebase>25</timebase>
						</rate>
						<duration>106</duration>
						<timecode>
							<rate>
								<timebase>25</timebase>
							</rate>
							<string>11:07:52:05</string>
							<frame>1001805</frame>
							<displayformat>NDF</displayformat>
							<source>source</source>
							<reel>
								<name>Untitled</name>
							</reel>
						</timecode>
						<media>
							<video>
								<duration>106</duration>
								<samplecharacteristics>
									<width>1920</width>
									<height>1080</height>
								</samplecharacteristics>
							</video>
						</media>
					</file>
					<filter>
						<effect>
							<name>Distort</name>
							<effectid>deformation</effectid>
							<effectcategory>motion</effectcategory>
							<effecttype>motion</effecttype>
							<mediatype>video</mediatype>
							<parameter>
								<parameterid>ulcorner</parameterid>
								<name>Upper Left</name>
								<value>
									<horiz>-0.5</horiz>
									<vert>-0.5</vert>
								</value>
							</parameter>
							<parameter>
								<parameterid>urcorner</parameterid>
								<name>Upper Right</name>
								<value>
									<horiz>0.5</horiz>
									<vert>-0.5</vert>
								</value>
							</parameter>
							<parameter>
								<parameterid>lrcorner</parameterid>
								<name>Lower Right</name>
								<value>
									<horiz>0.5</horiz>
									<vert>0.5</vert>
								</value>
							</parameter>
							<parameter>
								<parameterid>llcorner</parameterid>
								<name>Lower Left</name>
								<value>
									<horiz>-0.5</horiz>
									<vert>0.5</vert>
								</value>
							</parameter>
							<parameter>
								<parameterid>aspect</parameterid>
								<name>Aspect</name>
								<valuemin>-10000</valuemin>
								<valuemax>10000</valuemax>
								<value>0</value>
							</parameter>
						</effect>
					</filter>
					<filter>
						<effect>
							<name>Basic Motion</name>
							<effectid>basic</effectid>
							<effectcategory>motion</effectcategory>
							<effecttype>motion</effecttype>
							<mediatype>video</mediatype>
							<parameter>
								<parameterid>scale</parameterid>
								<name>Scale</name>
								<valuemin>0</valuemin>
								<valuemax>1000</valuemax>
								<value>100</value>
							</parameter>
							<parameter>
								<parameterid>rotation</parameterid>
								<name>Rotation</name>
								<valuemin>-8640</valuemin>
								<valuemax>8640</valuemax>
								<value>0</value>
							</parameter>
							<parameter>
								<parameterid>center</parameterid>
								<name>Center</name>
								<value>
									<horiz>0</horiz>
									<vert>0</vert>
								</value>
							</parameter>
							<parameter>
								<parameterid>centerOffset</parameterid>
								<name>Anchor Point</name>
								<value>
									<horiz>0</horiz>
									<vert>0</vert>
								</value>
							</parameter>
						</effect>
					</filter>
					<sourcetrack>
						<mediatype>video</mediatype>
					</sourcetrack>
					<fielddominance>upper</fielddominance>
				</clipitem>
				<clipitem id="525_0298_01 4">
					<name>525_0298_01</name>
					<duration>168</duration>
					<rate>
						<ntsc>FALSE</ntsc>
						<timebase>25</timebase>
					</rate>
					<in>25</in>
					<out>143</out>
					<start>5147</start>
					<end>5265</end>
					<pixelaspectratio>Square</pixelaspectratio>
					<anamorphic>FALSE</anamorphic>
					<alphatype>none</alphatype>
					<logginginfo>
						<scene/>
						<shottake/>
						<lognote/>
						<good>FALSE</good>
					</logginginfo>
					<labels>
						<label2/>
					</labels>
					<comments>
						<mastercomment1/>
						<mastercomment2/>
						<mastercomment3/>
						<mastercomment4/>
					</comments>
					<file id="10_g1 ">
						<name>10_g1.mov</name>
						<pathurl>file://localhost/Volumes/Askepott/Final%20Cut%20Pro%20Documents/Color%20Renderfiles/Lam%20v1/10/10_g1.mov</pathurl>
						<rate>
							<timebase>25</timebase>
						</rate>
						<duration>168</duration>
						<timecode>
							<rate>
								<timebase>25</timebase>
							</rate>
							<string>11:18:54:08</string>
							<frame>1018358</frame>
							<displayformat>NDF</displayformat>
							<source>source</source>
							<reel>
								<name>Untitled</name>
							</reel>
						</timecode>
						<media>
							<video>
								<duration>168</duration>
								<samplecharacteristics>
									<width>1920</width>
									<height>1080</height>
								</samplecharacteristics>
							</video>
						</media>
					</file>
					<filter>
						<effect>
							<name>Distort</name>
							<effectid>deformation</effectid>
							<effectcategory>motion</effectcategory>
							<effecttype>motion</effecttype>
							<mediatype>video</mediatype>
							<parameter>
								<parameterid>ulcorner</parameterid>
								<name>Upper Left</name>
								<value>
									<horiz>-0.5</horiz>
									<vert>-0.5</vert>
								</value>
							</parameter>
							<parameter>
								<parameterid>urcorner</parameterid>
								<name>Upper Right</name>
								<value>
									<horiz>0.5</horiz>
									<vert>-0.5</vert>
								</value>
							</parameter>
							<parameter>
								<parameterid>lrcorner</parameterid>
								<name>Lower Right</name>
								<value>
									<horiz>0.5</horiz>
									<vert>0.5</vert>
								</value>
							</parameter>
							<parameter>
								<parameterid>llcorner</parameterid>
								<name>Lower Left</name>
								<value>
									<horiz>-0.5</horiz>
									<vert>0.5</vert>
								</value>
							</parameter>
							<parameter>
								<parameterid>aspect</parameterid>
								<name>Aspect</name>
								<valuemin>-10000</valuemin>
								<valuemax>10000</valuemax>
								<value>0</value>
							</parameter>
						</effect>
					</filter>
					<filter>
						<effect>
							<name>Basic Motion</name>
							<effectid>basic</effectid>
							<effectcategory>motion</effectcategory>
							<effecttype>motion</effecttype>
							<mediatype>video</mediatype>
							<parameter>
								<parameterid>scale</parameterid>
								<name>Scale</name>
								<valuemin>0</valuemin>
								<valuemax>1000</valuemax>
								<value>100</value>
							</parameter>
							<parameter>
								<parameterid>rotation</parameterid>
								<name>Rotation</name>
								<valuemin>-8640</valuemin>
								<valuemax>8640</valuemax>
								<value>0</value>
							</parameter>
							<parameter>
								<parameterid>center</parameterid>
								<name>Center</name>
								<value>
									<horiz>0</horiz>
									<vert>0</vert>
								</value>
							</parameter>
							<parameter>
								<parameterid>centerOffset</parameterid>
								<name>Anchor Point</name>
								<value>
									<horiz>0</horiz>
									<vert>0</vert>
								</value>
							</parameter>
						</effect>
					</filter>
					<sourcetrack>
						<mediatype>video</mediatype>
					</sourcetrack>
					<fielddominance>upper</fielddominance>
				</clipitem>
				<clipitem id="525_0298_01 5">
					<name>525_0298_01</name>
					<duration>88</duration>
					<rate>
						<ntsc>FALSE</ntsc>
						<timebase>25</timebase>
					</rate>
					<in>25</in>
					<out>63</out>
					<start>5316</start>
					<end>5354</end>
					<pixelaspectratio>Square</pixelaspectratio>
					<anamorphic>FALSE</anamorphic>
					<alphatype>none</alphatype>
					<logginginfo>
						<scene/>
						<shottake/>
						<lognote/>
						<good>FALSE</good>
					</logginginfo>
					<labels>
						<label2/>
					</labels>
					<comments>
						<mastercomment1/>
						<mastercomment2/>
						<mastercomment3/>
						<mastercomment4/>
					</comments>
					<file id="11_g1 ">
						<name>11_g1.mov</name>
						<pathurl>file://localhost/Volumes/Askepott/Final%20Cut%20Pro%20Documents/Color%20Renderfiles/Lam%20v1/11/11_g1.mov</pathurl>
						<rate>
							<timebase>25</timebase>
						</rate>
						<duration>88</duration>
						<timecode>
							<rate>
								<timebase>25</timebase>
							</rate>
							<string>11:09:38:24</string>
							<frame>1004474</frame>
							<displayformat>NDF</displayformat>
							<source>source</source>
							<reel>
								<name>Untitled</name>
							</reel>
						</timecode>
						<media>
							<video>
								<duration>88</duration>
								<samplecharacteristics>
									<width>1920</width>
									<height>1080</height>
								</samplecharacteristics>
							</video>
						</media>
					</file>
					<filter>
						<effect>
							<name>Distort</name>
							<effectid>deformation</effectid>
							<effectcategory>motion</effectcategory>
							<effecttype>motion</effecttype>
							<mediatype>video</mediatype>
							<parameter>
								<parameterid>ulcorner</parameterid>
								<name>Upper Left</name>
								<value>
									<horiz>-0.5</horiz>
									<vert>-0.5</vert>
								</value>
							</parameter>
							<parameter>
								<parameterid>urcorner</parameterid>
								<name>Upper Right</name>
								<value>
									<horiz>0.5</horiz>
									<vert>-0.5</vert>
								</value>
							</parameter>
							<parameter>
								<parameterid>lrcorner</parameterid>
								<name>Lower Right</name>
								<value>
									<horiz>0.5</horiz>
									<vert>0.5</vert>
								</value>
							</parameter>
							<parameter>
								<parameterid>llcorner</parameterid>
								<name>Lower Left</name>
								<value>
									<horiz>-0.5</horiz>
									<vert>0.5</vert>
								</value>
							</parameter>
							<parameter>
								<parameterid>aspect</parameterid>
								<name>Aspect</name>
								<valuemin>-10000</valuemin>
								<valuemax>10000</valuemax>
								<value>0</value>
							</parameter>
						</effect>
					</filter>
					<filter>
						<effect>
							<name>Basic Motion</name>
							<effectid>basic</effectid>
							<effectcategory>motion</effectcategory>
							<effecttype>motion</effecttype>
							<mediatype>video</mediatype>
							<parameter>
								<parameterid>scale</parameterid>
								<name>Scale</name>
								<valuemin>0</valuemin>
								<valuemax>1000</valuemax>
								<value>100</value>
							</parameter>
							<parameter>
								<parameterid>rotation</parameterid>
								<name>Rotation</name>
								<valuemin>-8640</valuemin>
								<valuemax>8640</valuemax>
								<value>0</value>
							</parameter>
							<parameter>
								<parameterid>center</parameterid>
								<name>Center</name>
								<value>
									<horiz>0</horiz>
									<vert>0</vert>
								</value>
							</parameter>
							<parameter>
								<parameterid>centerOffset</parameterid>
								<name>Anchor Point</name>
								<value>
									<horiz>0</horiz>
									<vert>0</vert>
								</value>
							</parameter>
						</effect>
					</filter>
					<sourcetrack>
						<mediatype>video</mediatype>
					</sourcetrack>
					<fielddominance>upper</fielddominance>
				</clipitem>
				<clipitem id="525_0300_01 ">
					<name>525_0300_01</name>
					<duration>114</duration>
					<rate>
						<ntsc>FALSE</ntsc>
						<timebase>25</timebase>
					</rate>
					<in>25</in>
					<out>89</out>
					<start>5354</start>
					<end>5418</end>
					<pixelaspectratio>Square</pixelaspectratio>
					<anamorphic>FALSE</anamorphic>
					<alphatype>none</alphatype>
					<logginginfo>
						<scene/>
						<shottake/>
						<lognote/>
						<good>FALSE</good>
					</logginginfo>
					<labels>
						<label2/>
					</labels>
					<comments>
						<mastercomment1/>
						<mastercomment2/>
						<mastercomment3/>
						<mastercomment4/>
					</comments>
					<file id="12_g1 ">
						<name>12_g1.mov</name>
						<pathurl>file://localhost/Volumes/Askepott/Final%20Cut%20Pro%20Documents/Color%20Renderfiles/Lam%20v1/12/12_g1.mov</pathurl>
						<rate>
							<timebase>25</timebase>
						</rate>
						<duration>114</duration>
						<timecode>
							<rate>
								<timebase>25</timebase>
							</rate>
							<string>11:19:48:20</string>
							<frame>1019720</frame>
							<displayformat>NDF</displayformat>
							<source>source</source>
							<reel>
								<name>Untitled</name>
							</reel>
						</timecode>
						<media>
							<video>
								<duration>114</duration>
								<samplecharacteristics>
									<width>1920</width>
									<height>1080</height>
								</samplecharacteristics>
							</video>
						</media>
					</file>
					<filter>
						<effect>
							<name>Distort</name>
							<effectid>deformation</effectid>
							<effectcategory>motion</effectcategory>
							<effecttype>motion</effecttype>
							<mediatype>video</mediatype>
							<parameter>
								<parameterid>ulcorner</parameterid>
								<name>Upper Left</name>
								<value>
									<horiz>-0.5</horiz>
									<vert>-0.5</vert>
								</value>
							</parameter>
							<parameter>
								<parameterid>urcorner</parameterid>
								<name>Upper Right</name>
								<value>
									<horiz>0.5</horiz>
									<vert>-0.5</vert>
								</value>
							</parameter>
							<parameter>
								<parameterid>lrcorner</parameterid>
								<name>Lower Right</name>
								<value>
									<horiz>0.5</horiz>
									<vert>0.5</vert>
								</value>
							</parameter>
							<parameter>
								<parameterid>llcorner</parameterid>
								<name>Lower Left</name>
								<value>
									<horiz>-0.5</horiz>
									<vert>0.5</vert>
								</value>
							</parameter>
							<parameter>
								<parameterid>aspect</parameterid>
								<name>Aspect</name>
								<valuemin>-10000</valuemin>
								<valuemax>10000</valuemax>
								<value>0</value>
							</parameter>
						</effect>
					</filter>
					<filter>
						<effect>
							<name>Basic Motion</name>
							<effectid>basic</effectid>
							<effectcategory>motion</effectcategory>
							<effecttype>motion</effecttype>
							<mediatype>video</mediatype>
							<parameter>
								<parameterid>scale</parameterid>
								<name>Scale</name>
								<valuemin>0</valuemin>
								<valuemax>1000</valuemax>
								<value>100</value>
							</parameter>
							<parameter>
								<parameterid>rotation</parameterid>
								<name>Rotation</name>
								<valuemin>-8640</valuemin>
								<valuemax>8640</valuemax>
								<value>0</value>
							</parameter>
							<parameter>
								<parameterid>center</parameterid>
								<name>Center</name>
								<value>
									<horiz>0</horiz>
									<vert>0</vert>
								</value>
							</parameter>
							<parameter>
								<parameterid>centerOffset</parameterid>
								<name>Anchor Point</name>
								<value>
									<horiz>0</horiz>
									<vert>0</vert>
								</value>
							</parameter>
						</effect>
					</filter>
					<sourcetrack>
						<mediatype>video</mediatype>
					</sourcetrack>
					<fielddominance>upper</fielddominance>
				</clipitem>
				<clipitem id="525_0297_01 7">
					<name>525_0297_01</name>
					<duration>124</duration>
					<rate>
						<ntsc>FALSE</ntsc>
						<timebase>25</timebase>
					</rate>
					<in>25</in>
					<out>99</out>
					<start>5418</start>
					<end>5492</end>
					<pixelaspectratio>Square</pixelaspectratio>
					<anamorphic>FALSE</anamorphic>
					<alphatype>none</alphatype>
					<logginginfo>
						<scene/>
						<shottake/>
						<lognote/>
						<good>FALSE</good>
					</logginginfo>
					<labels>
						<label2/>
					</labels>
					<comments>
						<mastercomment1/>
						<mastercomment2/>
						<mastercomment3/>
						<mastercomment4/>
					</comments>
					<file id="13_g1 ">
						<name>13_g1.mov</name>
						<pathurl>file://localhost/Volumes/Askepott/Final%20Cut%20Pro%20Documents/Color%20Renderfiles/Lam%20v1/13/13_g1.mov</pathurl>
						<rate>
							<timebase>25</timebase>
						</rate>
						<duration>124</duration>
						<timecode>
							<rate>
								<timebase>25</timebase>
							</rate>
							<string>11:08:00:15</string>
							<frame>1002015</frame>
							<displayformat>NDF</displayformat>
							<source>source</source>
							<reel>
								<name>Untitled</name>
							</reel>
						</timecode>
						<media>
							<video>
								<duration>124</duration>
								<samplecharacteristics>
									<width>1920</width>
									<height>1080</height>
								</samplecharacteristics>
							</video>
						</media>
					</file>
					<filter>
						<effect>
							<name>Distort</name>
							<effectid>deformation</effectid>
							<effectcategory>motion</effectcategory>
							<effecttype>motion</effecttype>
							<mediatype>video</mediatype>
							<parameter>
								<parameterid>ulcorner</parameterid>
								<name>Upper Left</name>
								<value>
									<horiz>-0.5</horiz>
									<vert>-0.5</vert>
								</value>
							</parameter>
							<parameter>
								<parameterid>urcorner</parameterid>
								<name>Upper Right</name>
								<value>
									<horiz>0.5</horiz>
									<vert>-0.5</vert>
								</value>
							</parameter>
							<parameter>
								<parameterid>lrcorner</parameterid>
								<name>Lower Right</name>
								<value>
									<horiz>0.5</horiz>
									<vert>0.5</vert>
								</value>
							</parameter>
							<parameter>
								<parameterid>llcorner</parameterid>
								<name>Lower Left</name>
								<value>
									<horiz>-0.5</horiz>
									<vert>0.5</vert>
								</value>
							</parameter>
							<parameter>
								<parameterid>aspect</parameterid>
								<name>Aspect</name>
								<valuemin>-10000</valuemin>
								<valuemax>10000</valuemax>
								<value>0</value>
							</parameter>
						</effect>
					</filter>
					<filter>
						<effect>
							<name>Basic Motion</name>
							<effectid>basic</effectid>
							<effectcategory>motion</effectcategory>
							<effecttype>motion</effecttype>
							<mediatype>video</mediatype>
							<parameter>
								<parameterid>scale</parameterid>
								<name>Scale</name>
								<valuemin>0</valuemin>
								<valuemax>1000</valuemax>
								<value>100</value>
							</parameter>
							<parameter>
								<parameterid>rotation</parameterid>
								<name>Rotation</name>
								<valuemin>-8640</valuemin>
								<valuemax>8640</valuemax>
								<value>0</value>
							</parameter>
							<parameter>
								<parameterid>center</parameterid>
								<name>Center</name>
								<value>
									<horiz>0</horiz>
									<vert>0</vert>
								</value>
							</parameter>
							<parameter>
								<parameterid>centerOffset</parameterid>
								<name>Anchor Point</name>
								<value>
									<horiz>0</horiz>
									<vert>0</vert>
								</value>
							</parameter>
						</effect>
					</filter>
					<sourcetrack>
						<mediatype>video</mediatype>
					</sourcetrack>
					<fielddominance>upper</fielddominance>
				</clipitem>
				<clipitem id="525_0297_01 8">
					<name>525_0297_01</name>
					<duration>97</duration>
					<rate>
						<ntsc>FALSE</ntsc>
						<timebase>25</timebase>
					</rate>
					<in>25</in>
					<out>72</out>
					<start>5492</start>
					<end>5539</end>
					<pixelaspectratio>Square</pixelaspectratio>
					<anamorphic>FALSE</anamorphic>
					<alphatype>none</alphatype>
					<logginginfo>
						<scene/>
						<shottake/>
						<lognote/>
						<good>FALSE</good>
					</logginginfo>
					<labels>
						<label2/>
					</labels>
					<comments>
						<mastercomment1/>
						<mastercomment2/>
						<mastercomment3/>
						<mastercomment4/>
					</comments>
					<file id="14_g1 ">
						<name>14_g1.mov</name>
						<pathurl>file://localhost/Volumes/Askepott/Final%20Cut%20Pro%20Documents/Color%20Renderfiles/Lam%20v1/14/14_g1.mov</pathurl>
						<rate>
							<timebase>25</timebase>
						</rate>
						<duration>97</duration>
						<timecode>
							<rate>
								<timebase>25</timebase>
							</rate>
							<string>11:08:06:22</string>
							<frame>1002172</frame>
							<displayformat>NDF</displayformat>
							<source>source</source>
							<reel>
								<name>Untitled</name>
							</reel>
						</timecode>
						<media>
							<video>
								<duration>97</duration>
								<samplecharacteristics>
									<width>1920</width>
									<height>1080</height>
								</samplecharacteristics>
							</video>
						</media>
					</file>
					<filter>
						<effect>
							<name>Distort</name>
							<effectid>deformation</effectid>
							<effectcategory>motion</effectcategory>
							<effecttype>motion</effecttype>
							<mediatype>video</mediatype>
							<parameter>
								<parameterid>ulcorner</parameterid>
								<name>Upper Left</name>
								<value>
									<horiz>-0.5</horiz>
									<vert>-0.5</vert>
								</value>
							</parameter>
							<parameter>
								<parameterid>urcorner</parameterid>
								<name>Upper Right</name>
								<value>
									<horiz>0.5</horiz>
									<vert>-0.5</vert>
								</value>
							</parameter>
							<parameter>
								<parameterid>lrcorner</parameterid>
								<name>Lower Right</name>
								<value>
									<horiz>0.5</horiz>
									<vert>0.5</vert>
								</value>
							</parameter>
							<parameter>
								<parameterid>llcorner</parameterid>
								<name>Lower Left</name>
								<value>
									<horiz>-0.5</horiz>
									<vert>0.5</vert>
								</value>
							</parameter>
							<parameter>
								<parameterid>aspect</parameterid>
								<name>Aspect</name>
								<valuemin>-10000</valuemin>
								<valuemax>10000</valuemax>
								<value>0</value>
							</parameter>
						</effect>
					</filter>
					<filter>
						<effect>
							<name>Basic Motion</name>
							<effectid>basic</effectid>
							<effectcategory>motion</effectcategory>
							<effecttype>motion</effecttype>
							<mediatype>video</mediatype>
							<parameter>
								<parameterid>scale</parameterid>
								<name>Scale</name>
								<valuemin>0</valuemin>
								<valuemax>1000</valuemax>
								<value>100</value>
							</parameter>
							<parameter>
								<parameterid>rotation</parameterid>
								<name>Rotation</name>
								<valuemin>-8640</valuemin>
								<valuemax>8640</valuemax>
								<value>0</value>
							</parameter>
							<parameter>
								<parameterid>center</parameterid>
								<name>Center</name>
								<value>
									<horiz>0</horiz>
									<vert>0</vert>
								</value>
							</parameter>
							<parameter>
								<parameterid>centerOffset</parameterid>
								<name>Anchor Point</name>
								<value>
									<horiz>0</horiz>
									<vert>0</vert>
								</value>
							</parameter>
						</effect>
					</filter>
					<sourcetrack>
						<mediatype>video</mediatype>
					</sourcetrack>
					<fielddominance>upper</fielddominance>
				</clipitem>
				<clipitem id="525_0297_01 9">
					<name>525_0297_01</name>
					<duration>150</duration>
					<rate>
						<ntsc>FALSE</ntsc>
						<timebase>25</timebase>
					</rate>
					<in>25</in>
					<out>125</out>
					<start>5539</start>
					<end>5639</end>
					<pixelaspectratio>Square</pixelaspectratio>
					<anamorphic>FALSE</anamorphic>
					<alphatype>none</alphatype>
					<logginginfo>
						<scene/>
						<shottake/>
						<lognote/>
						<good>FALSE</good>
					</logginginfo>
					<labels>
						<label2/>
					</labels>
					<comments>
						<mastercomment1/>
						<mastercomment2/>
						<mastercomment3/>
						<mastercomment4/>
					</comments>
					<file id="15_g1 ">
						<name>15_g1.mov</name>
						<pathurl>file://localhost/Volumes/Askepott/Final%20Cut%20Pro%20Documents/Color%20Renderfiles/Lam%20v1/15/15_g1.mov</pathurl>
						<rate>
							<timebase>25</timebase>
						</rate>
						<duration>150</duration>
						<timecode>
							<rate>
								<timebase>25</timebase>
							</rate>
							<string>11:08:15:22</string>
							<frame>1002397</frame>
							<displayformat>NDF</displayformat>
							<source>source</source>
							<reel>
								<name>Untitled</name>
							</reel>
						</timecode>
						<media>
							<video>
								<duration>150</duration>
								<samplecharacteristics>
									<width>1920</width>
									<height>1080</height>
								</samplecharacteristics>
							</video>
						</media>
					</file>
					<filter>
						<effect>
							<name>Distort</name>
							<effectid>deformation</effectid>
							<effectcategory>motion</effectcategory>
							<effecttype>motion</effecttype>
							<mediatype>video</mediatype>
							<parameter>
								<parameterid>ulcorner</parameterid>
								<name>Upper Left</name>
								<value>
									<horiz>-0.5</horiz>
									<vert>-0.5</vert>
								</value>
							</parameter>
							<parameter>
								<parameterid>urcorner</parameterid>
								<name>Upper Right</name>
								<value>
									<horiz>0.5</horiz>
									<vert>-0.5</vert>
								</value>
							</parameter>
							<parameter>
								<parameterid>lrcorner</parameterid>
								<name>Lower Right</name>
								<value>
									<horiz>0.5</horiz>
									<vert>0.5</vert>
								</value>
							</parameter>
							<parameter>
								<parameterid>llcorner</parameterid>
								<name>Lower Left</name>
								<value>
									<horiz>-0.5</horiz>
									<vert>0.5</vert>
								</value>
							</parameter>
							<parameter>
								<parameterid>aspect</parameterid>
								<name>Aspect</name>
								<valuemin>-10000</valuemin>
								<valuemax>10000</valuemax>
								<value>0</value>
							</parameter>
						</effect>
					</filter>
					<filter>
						<effect>
							<name>Basic Motion</name>
							<effectid>basic</effectid>
							<effectcategory>motion</effectcategory>
							<effecttype>motion</effecttype>
							<mediatype>video</mediatype>
							<parameter>
								<parameterid>scale</parameterid>
								<name>Scale</name>
								<valuemin>0</valuemin>
								<valuemax>1000</valuemax>
								<value>100</value>
							</parameter>
							<parameter>
								<parameterid>rotation</parameterid>
								<name>Rotation</name>
								<valuemin>-8640</valuemin>
								<valuemax>8640</valuemax>
								<value>0</value>
							</parameter>
							<parameter>
								<parameterid>center</parameterid>
								<name>Center</name>
								<value>
									<horiz>0</horiz>
									<vert>0</vert>
								</value>
							</parameter>
							<parameter>
								<parameterid>centerOffset</parameterid>
								<name>Anchor Point</name>
								<value>
									<horiz>0</horiz>
									<vert>0</vert>
								</value>
							</parameter>
						</effect>
					</filter>
					<sourcetrack>
						<mediatype>video</mediatype>
					</sourcetrack>
					<fielddominance>upper</fielddominance>
				</clipitem>
				<clipitem id="525_0297_01 10">
					<name>525_0297_01</name>
					<duration>178</duration>
					<rate>
						<ntsc>FALSE</ntsc>
						<timebase>25</timebase>
					</rate>
					<in>25</in>
					<out>153</out>
					<start>5639</start>
					<end>5767</end>
					<pixelaspectratio>Square</pixelaspectratio>
					<anamorphic>FALSE</anamorphic>
					<alphatype>none</alphatype>
					<logginginfo>
						<scene/>
						<shottake/>
						<lognote/>
						<good>FALSE</good>
					</logginginfo>
					<labels>
						<label2/>
					</labels>
					<comments>
						<mastercomment1/>
						<mastercomment2/>
						<mastercomment3/>
						<mastercomment4/>
					</comments>
					<file id="16_g1 ">
						<name>16_g1.mov</name>
						<pathurl>file://localhost/Volumes/Askepott/Final%20Cut%20Pro%20Documents/Color%20Renderfiles/Lam%20v1/16/16_g1.mov</pathurl>
						<rate>
							<timebase>25</timebase>
						</rate>
						<duration>178</duration>
						<timecode>
							<rate>
								<timebase>25</timebase>
							</rate>
							<string>11:08:23:13</string>
							<frame>1002588</frame>
							<displayformat>NDF</displayformat>
							<source>source</source>
							<reel>
								<name>Untitled</name>
							</reel>
						</timecode>
						<media>
							<video>
								<duration>178</duration>
								<samplecharacteristics>
									<width>1920</width>
									<height>1080</height>
								</samplecharacteristics>
							</video>
						</media>
					</file>
					<filter>
						<effect>
							<name>Distort</name>
							<effectid>deformation</effectid>
							<effectcategory>motion</effectcategory>
							<effecttype>motion</effecttype>
							<mediatype>video</mediatype>
							<parameter>
								<parameterid>ulcorner</parameterid>
								<name>Upper Left</name>
								<value>
									<horiz>-0.5</horiz>
									<vert>-0.5</vert>
								</value>
							</parameter>
							<parameter>
								<parameterid>urcorner</parameterid>
								<name>Upper Right</name>
								<value>
									<horiz>0.5</horiz>
									<vert>-0.5</vert>
								</value>
							</parameter>
							<parameter>
								<parameterid>lrcorner</parameterid>
								<name>Lower Right</name>
								<value>
									<horiz>0.5</horiz>
									<vert>0.5</vert>
								</value>
							</parameter>
							<parameter>
								<parameterid>llcorner</parameterid>
								<name>Lower Left</name>
								<value>
									<horiz>-0.5</horiz>
									<vert>0.5</vert>
								</value>
							</parameter>
							<parameter>
								<parameterid>aspect</parameterid>
								<name>Aspect</name>
								<valuemin>-10000</valuemin>
								<valuemax>10000</valuemax>
								<value>0</value>
							</parameter>
						</effect>
					</filter>
					<filter>
						<effect>
							<name>Basic Motion</name>
							<effectid>basic</effectid>
							<effectcategory>motion</effectcategory>
							<effecttype>motion</effecttype>
							<mediatype>video</mediatype>
							<parameter>
								<parameterid>scale</parameterid>
								<name>Scale</name>
								<valuemin>0</valuemin>
								<valuemax>1000</valuemax>
								<value>100</value>
							</parameter>
							<parameter>
								<parameterid>rotation</parameterid>
								<name>Rotation</name>
								<valuemin>-8640</valuemin>
								<valuemax>8640</valuemax>
								<value>0</value>
							</parameter>
							<parameter>
								<parameterid>center</parameterid>
								<name>Center</name>
								<value>
									<horiz>0</horiz>
									<vert>0</vert>
								</value>
							</parameter>
							<parameter>
								<parameterid>centerOffset</parameterid>
								<name>Anchor Point</name>
								<value>
									<horiz>0</horiz>
									<vert>0</vert>
								</value>
							</parameter>
						</effect>
					</filter>
					<sourcetrack>
						<mediatype>video</mediatype>
					</sourcetrack>
					<fielddominance>upper</fielddominance>
				</clipitem>
				<clipitem id="525_0297_01 11">
					<name>525_0297_01</name>
					<duration>112</duration>
					<rate>
						<ntsc>FALSE</ntsc>
						<timebase>25</timebase>
					</rate>
					<in>25</in>
					<out>87</out>
					<start>5767</start>
					<end>5829</end>
					<pixelaspectratio>Square</pixelaspectratio>
					<anamorphic>FALSE</anamorphic>
					<alphatype>none</alphatype>
					<logginginfo>
						<scene/>
						<shottake/>
						<lognote/>
						<good>FALSE</good>
					</logginginfo>
					<labels>
						<label2/>
					</labels>
					<comments>
						<mastercomment1/>
						<mastercomment2/>
						<mastercomment3/>
						<mastercomment4/>
					</comments>
					<file id="17_g1 ">
						<name>17_g1.mov</name>
						<pathurl>file://localhost/Volumes/Askepott/Final%20Cut%20Pro%20Documents/Color%20Renderfiles/Lam%20v1/17/17_g1.mov</pathurl>
						<rate>
							<timebase>25</timebase>
						</rate>
						<duration>112</duration>
						<timecode>
							<rate>
								<timebase>25</timebase>
							</rate>
							<string>11:08:30:22</string>
							<frame>1002772</frame>
							<displayformat>NDF</displayformat>
							<source>source</source>
							<reel>
								<name>Untitled</name>
							</reel>
						</timecode>
						<media>
							<video>
								<duration>112</duration>
								<samplecharacteristics>
									<width>1920</width>
									<height>1080</height>
								</samplecharacteristics>
							</video>
						</media>
					</file>
					<filter>
						<effect>
							<name>Distort</name>
							<effectid>deformation</effectid>
							<effectcategory>motion</effectcategory>
							<effecttype>motion</effecttype>
							<mediatype>video</mediatype>
							<parameter>
								<parameterid>ulcorner</parameterid>
								<name>Upper Left</name>
								<value>
									<horiz>-0.5</horiz>
									<vert>-0.5</vert>
								</value>
							</parameter>
							<parameter>
								<parameterid>urcorner</parameterid>
								<name>Upper Right</name>
								<value>
									<horiz>0.5</horiz>
									<vert>-0.5</vert>
								</value>
							</parameter>
							<parameter>
								<parameterid>lrcorner</parameterid>
								<name>Lower Right</name>
								<value>
									<horiz>0.5</horiz>
									<vert>0.5</vert>
								</value>
							</parameter>
							<parameter>
								<parameterid>llcorner</parameterid>
								<name>Lower Left</name>
								<value>
									<horiz>-0.5</horiz>
									<vert>0.5</vert>
								</value>
							</parameter>
							<parameter>
								<parameterid>aspect</parameterid>
								<name>Aspect</name>
								<valuemin>-10000</valuemin>
								<valuemax>10000</valuemax>
								<value>0</value>
							</parameter>
						</effect>
					</filter>
					<filter>
						<effect>
							<name>Basic Motion</name>
							<effectid>basic</effectid>
							<effectcategory>motion</effectcategory>
							<effecttype>motion</effecttype>
							<mediatype>video</mediatype>
							<parameter>
								<parameterid>scale</parameterid>
								<name>Scale</name>
								<valuemin>0</valuemin>
								<valuemax>1000</valuemax>
								<value>100</value>
							</parameter>
							<parameter>
								<parameterid>rotation</parameterid>
								<name>Rotation</name>
								<valuemin>-8640</valuemin>
								<valuemax>8640</valuemax>
								<value>0</value>
							</parameter>
							<parameter>
								<parameterid>center</parameterid>
								<name>Center</name>
								<value>
									<horiz>0</horiz>
									<vert>0</vert>
								</value>
							</parameter>
							<parameter>
								<parameterid>centerOffset</parameterid>
								<name>Anchor Point</name>
								<value>
									<horiz>0</horiz>
									<vert>0</vert>
								</value>
							</parameter>
						</effect>
					</filter>
					<sourcetrack>
						<mediatype>video</mediatype>
					</sourcetrack>
					<fielddominance>upper</fielddominance>
				</clipitem>
				<clipitem id="525_0305_01 ">
					<name>525_0305_01</name>
					<duration>161</duration>
					<rate>
						<ntsc>FALSE</ntsc>
						<timebase>25</timebase>
					</rate>
					<in>25</in>
					<out>136</out>
					<start>6312</start>
					<end>6423</end>
					<pixelaspectratio>Square</pixelaspectratio>
					<anamorphic>FALSE</anamorphic>
					<alphatype>none</alphatype>
					<logginginfo>
						<scene/>
						<shottake/>
						<lognote/>
						<good>FALSE</good>
					</logginginfo>
					<labels>
						<label2/>
					</labels>
					<comments>
						<mastercomment1/>
						<mastercomment2/>
						<mastercomment3/>
						<mastercomment4/>
					</comments>
					<file id="18_g1 ">
						<name>18_g1.mov</name>
						<pathurl>file://localhost/Volumes/Askepott/Final%20Cut%20Pro%20Documents/Color%20Renderfiles/Lam%20v1/18/18_g1.mov</pathurl>
						<rate>
							<timebase>25</timebase>
						</rate>
						<duration>161</duration>
						<timecode>
							<rate>
								<timebase>25</timebase>
							</rate>
							<string>11:27:48:19</string>
							<frame>1031719</frame>
							<displayformat>NDF</displayformat>
							<source>source</source>
							<reel>
								<name>Untitled</name>
							</reel>
						</timecode>
						<media>
							<video>
								<duration>161</duration>
								<samplecharacteristics>
									<width>1920</width>
									<height>1080</height>
								</samplecharacteristics>
							</video>
						</media>
					</file>
					<filter>
						<effect>
							<name>Distort</name>
							<effectid>deformation</effectid>
							<effectcategory>motion</effectcategory>
							<effecttype>motion</effecttype>
							<mediatype>video</mediatype>
							<parameter>
								<parameterid>ulcorner</parameterid>
								<name>Upper Left</name>
								<value>
									<horiz>-0.5</horiz>
									<vert>-0.5</vert>
								</value>
							</parameter>
							<parameter>
								<parameterid>urcorner</parameterid>
								<name>Upper Right</name>
								<value>
									<horiz>0.5</horiz>
									<vert>-0.5</vert>
								</value>
							</parameter>
							<parameter>
								<parameterid>lrcorner</parameterid>
								<name>Lower Right</name>
								<value>
									<horiz>0.5</horiz>
									<vert>0.5</vert>
								</value>
							</parameter>
							<parameter>
								<parameterid>llcorner</parameterid>
								<name>Lower Left</name>
								<value>
									<horiz>-0.5</horiz>
									<vert>0.5</vert>
								</value>
							</parameter>
							<parameter>
								<parameterid>aspect</parameterid>
								<name>Aspect</name>
								<valuemin>-10000</valuemin>
								<valuemax>10000</valuemax>
								<value>0</value>
							</parameter>
						</effect>
					</filter>
					<filter>
						<effect>
							<name>Basic Motion</name>
							<effectid>basic</effectid>
							<effectcategory>motion</effectcategory>
							<effecttype>motion</effecttype>
							<mediatype>video</mediatype>
							<parameter>
								<parameterid>scale</parameterid>
								<name>Scale</name>
								<valuemin>0</valuemin>
								<valuemax>1000</valuemax>
								<value>100</value>
							</parameter>
							<parameter>
								<parameterid>rotation</parameterid>
								<name>Rotation</name>
								<valuemin>-8640</valuemin>
								<valuemax>8640</valuemax>
								<value>0</value>
							</parameter>
							<parameter>
								<parameterid>center</parameterid>
								<name>Center</name>
								<value>
									<horiz>0</horiz>
									<vert>0</vert>
								</value>
							</parameter>
							<parameter>
								<parameterid>centerOffset</parameterid>
								<name>Anchor Point</name>
								<value>
									<horiz>0</horiz>
									<vert>0</vert>
								</value>
							</parameter>
						</effect>
					</filter>
					<sourcetrack>
						<mediatype>video</mediatype>
					</sourcetrack>
					<fielddominance>upper</fielddominance>
				</clipitem>
				<clipitem id="525_0305_01 1">
					<name>525_0305_01</name>
					<duration>151</duration>
					<rate>
						<ntsc>FALSE</ntsc>
						<timebase>25</timebase>
					</rate>
					<in>25</in>
					<out>126</out>
					<start>6423</start>
					<end>6524</end>
					<pixelaspectratio>Square</pixelaspectratio>
					<anamorphic>FALSE</anamorphic>
					<alphatype>none</alphatype>
					<logginginfo>
						<scene/>
						<shottake/>
						<lognote/>
						<good>FALSE</good>
					</logginginfo>
					<labels>
						<label2/>
					</labels>
					<comments>
						<mastercomment1/>
						<mastercomment2/>
						<mastercomment3/>
						<mastercomment4/>
					</comments>
					<file id="19_g1 ">
						<name>19_g1.mov</name>
						<pathurl>file://localhost/Volumes/Askepott/Final%20Cut%20Pro%20Documents/Color%20Renderfiles/Lam%20v1/19/19_g1.mov</pathurl>
						<rate>
							<timebase>25</timebase>
						</rate>
						<duration>151</duration>
						<timecode>
							<rate>
								<timebase>25</timebase>
							</rate>
							<string>11:28:07:06</string>
							<frame>1032181</frame>
							<displayformat>NDF</displayformat>
							<source>source</source>
							<reel>
								<name>Untitled</name>
							</reel>
						</timecode>
						<media>
							<video>
								<duration>151</duration>
								<samplecharacteristics>
									<width>1920</width>
									<height>1080</height>
								</samplecharacteristics>
							</video>
						</media>
					</file>
					<filter>
						<effect>
							<name>Distort</name>
							<effectid>deformation</effectid>
							<effectcategory>motion</effectcategory>
							<effecttype>motion</effecttype>
							<mediatype>video</mediatype>
							<parameter>
								<parameterid>ulcorner</parameterid>
								<name>Upper Left</name>
								<value>
									<horiz>-0.5</horiz>
									<vert>-0.5</vert>
								</value>
							</parameter>
							<parameter>
								<parameterid>urcorner</parameterid>
								<name>Upper Right</name>
								<value>
									<horiz>0.5</horiz>
									<vert>-0.5</vert>
								</value>
							</parameter>
							<parameter>
								<parameterid>lrcorner</parameterid>
								<name>Lower Right</name>
								<value>
									<horiz>0.5</horiz>
									<vert>0.5</vert>
								</value>
							</parameter>
							<parameter>
								<parameterid>llcorner</parameterid>
								<name>Lower Left</name>
								<value>
									<horiz>-0.5</horiz>
									<vert>0.5</vert>
								</value>
							</parameter>
							<parameter>
								<parameterid>aspect</parameterid>
								<name>Aspect</name>
								<valuemin>-10000</valuemin>
								<valuemax>10000</valuemax>
								<value>0</value>
							</parameter>
						</effect>
					</filter>
					<filter>
						<effect>
							<name>Basic Motion</name>
							<effectid>basic</effectid>
							<effectcategory>motion</effectcategory>
							<effecttype>motion</effecttype>
							<mediatype>video</mediatype>
							<parameter>
								<parameterid>scale</parameterid>
								<name>Scale</name>
								<valuemin>0</valuemin>
								<valuemax>1000</valuemax>
								<value>100</value>
							</parameter>
							<parameter>
								<parameterid>rotation</parameterid>
								<name>Rotation</name>
								<valuemin>-8640</valuemin>
								<valuemax>8640</valuemax>
								<value>0</value>
							</parameter>
							<parameter>
								<parameterid>center</parameterid>
								<name>Center</name>
								<value>
									<horiz>0</horiz>
									<vert>0</vert>
								</value>
							</parameter>
							<parameter>
								<parameterid>centerOffset</parameterid>
								<name>Anchor Point</name>
								<value>
									<horiz>0</horiz>
									<vert>0</vert>
								</value>
							</parameter>
						</effect>
					</filter>
					<sourcetrack>
						<mediatype>video</mediatype>
					</sourcetrack>
					<fielddominance>upper</fielddominance>
				</clipitem>
				<clipitem id="525_0305_01 2">
					<name>525_0305_01</name>
					<duration>167</duration>
					<rate>
						<ntsc>FALSE</ntsc>
						<timebase>25</timebase>
					</rate>
					<in>25</in>
					<out>142</out>
					<start>6524</start>
					<end>6641</end>
					<pixelaspectratio>Square</pixelaspectratio>
					<anamorphic>FALSE</anamorphic>
					<alphatype>none</alphatype>
					<logginginfo>
						<scene/>
						<shottake/>
						<lognote/>
						<good>FALSE</good>
					</logginginfo>
					<labels>
						<label2/>
					</labels>
					<comments>
						<mastercomment1/>
						<mastercomment2/>
						<mastercomment3/>
						<mastercomment4/>
					</comments>
					<file id="20_g1 ">
						<name>20_g1.mov</name>
						<pathurl>file://localhost/Volumes/Askepott/Final%20Cut%20Pro%20Documents/Color%20Renderfiles/Lam%20v1/20/20_g1.mov</pathurl>
						<rate>
							<timebase>25</timebase>
						</rate>
						<duration>167</duration>
						<timecode>
							<rate>
								<timebase>25</timebase>
							</rate>
							<string>11:28:48:20</string>
							<frame>1033220</frame>
							<displayformat>NDF</displayformat>
							<source>source</source>
							<reel>
								<name>Untitled</name>
							</reel>
						</timecode>
						<media>
							<video>
								<duration>167</duration>
								<samplecharacteristics>
									<width>1920</width>
									<height>1080</height>
								</samplecharacteristics>
							</video>
						</media>
					</file>
					<filter>
						<effect>
							<name>Distort</name>
							<effectid>deformation</effectid>
							<effectcategory>motion</effectcategory>
							<effecttype>motion</effecttype>
							<mediatype>video</mediatype>
							<parameter>
								<parameterid>ulcorner</parameterid>
								<name>Upper Left</name>
								<value>
									<horiz>-0.5</horiz>
									<vert>-0.5</vert>
								</value>
							</parameter>
							<parameter>
								<parameterid>urcorner</parameterid>
								<name>Upper Right</name>
								<value>
									<horiz>0.5</horiz>
									<vert>-0.5</vert>
								</value>
							</parameter>
							<parameter>
								<parameterid>lrcorner</parameterid>
								<name>Lower Right</name>
								<value>
									<horiz>0.5</horiz>
									<vert>0.5</vert>
								</value>
							</parameter>
							<parameter>
								<parameterid>llcorner</parameterid>
								<name>Lower Left</name>
								<value>
									<horiz>-0.5</horiz>
									<vert>0.5</vert>
								</value>
							</parameter>
							<parameter>
								<parameterid>aspect</parameterid>
								<name>Aspect</name>
								<valuemin>-10000</valuemin>
								<valuemax>10000</valuemax>
								<value>0</value>
							</parameter>
						</effect>
					</filter>
					<filter>
						<effect>
							<name>Basic Motion</name>
							<effectid>basic</effectid>
							<effectcategory>motion</effectcategory>
							<effecttype>motion</effecttype>
							<mediatype>video</mediatype>
							<parameter>
								<parameterid>scale</parameterid>
								<name>Scale</name>
								<valuemin>0</valuemin>
								<valuemax>1000</valuemax>
								<value>100</value>
							</parameter>
							<parameter>
								<parameterid>rotation</parameterid>
								<name>Rotation</name>
								<valuemin>-8640</valuemin>
								<valuemax>8640</valuemax>
								<value>0</value>
							</parameter>
							<parameter>
								<parameterid>center</parameterid>
								<name>Center</name>
								<value>
									<horiz>0</horiz>
									<vert>0</vert>
								</value>
							</parameter>
							<parameter>
								<parameterid>centerOffset</parameterid>
								<name>Anchor Point</name>
								<value>
									<horiz>0</horiz>
									<vert>0</vert>
								</value>
							</parameter>
						</effect>
					</filter>
					<sourcetrack>
						<mediatype>video</mediatype>
					</sourcetrack>
					<fielddominance>upper</fielddominance>
				</clipitem>
				<clipitem id="525_0287_01 ">
					<name>525_0287_01</name>
					<duration>84</duration>
					<rate>
						<ntsc>FALSE</ntsc>
						<timebase>25</timebase>
					</rate>
					<in>25</in>
					<out>59</out>
					<start>6641</start>
					<end>6675</end>
					<pixelaspectratio>Square</pixelaspectratio>
					<anamorphic>FALSE</anamorphic>
					<alphatype>none</alphatype>
					<logginginfo>
						<scene/>
						<shottake/>
						<lognote/>
						<good>FALSE</good>
					</logginginfo>
					<labels>
						<label2/>
					</labels>
					<comments>
						<mastercomment1/>
						<mastercomment2/>
						<mastercomment3/>
						<mastercomment4/>
					</comments>
					<file id="21_g1 ">
						<name>21_g1.mov</name>
						<pathurl>file://localhost/Volumes/Askepott/Final%20Cut%20Pro%20Documents/Color%20Renderfiles/Lam%20v1/21/21_g1.mov</pathurl>
						<rate>
							<timebase>25</timebase>
						</rate>
						<duration>84</duration>
						<timecode>
							<rate>
								<timebase>25</timebase>
							</rate>
							<string>10:45:46:13</string>
							<frame>968663</frame>
							<displayformat>NDF</displayformat>
							<source>source</source>
							<reel>
								<name>Untitled</name>
							</reel>
						</timecode>
						<media>
							<video>
								<duration>84</duration>
								<samplecharacteristics>
									<width>1920</width>
									<height>1080</height>
								</samplecharacteristics>
							</video>
						</media>
					</file>
					<filter>
						<effect>
							<name>Distort</name>
							<effectid>deformation</effectid>
							<effectcategory>motion</effectcategory>
							<effecttype>motion</effecttype>
							<mediatype>video</mediatype>
							<parameter>
								<parameterid>ulcorner</parameterid>
								<name>Upper Left</name>
								<value>
									<horiz>-0.5</horiz>
									<vert>-0.5</vert>
								</value>
							</parameter>
							<parameter>
								<parameterid>urcorner</parameterid>
								<name>Upper Right</name>
								<value>
									<horiz>0.5</horiz>
									<vert>-0.5</vert>
								</value>
							</parameter>
							<parameter>
								<parameterid>lrcorner</parameterid>
								<name>Lower Right</name>
								<value>
									<horiz>0.5</horiz>
									<vert>0.5</vert>
								</value>
							</parameter>
							<parameter>
								<parameterid>llcorner</parameterid>
								<name>Lower Left</name>
								<value>
									<horiz>-0.5</horiz>
									<vert>0.5</vert>
								</value>
							</parameter>
							<parameter>
								<parameterid>aspect</parameterid>
								<name>Aspect</name>
								<valuemin>-10000</valuemin>
								<valuemax>10000</valuemax>
								<value>0</value>
							</parameter>
						</effect>
					</filter>
					<filter>
						<effect>
							<name>Basic Motion</name>
							<effectid>basic</effectid>
							<effectcategory>motion</effectcategory>
							<effecttype>motion</effecttype>
							<mediatype>video</mediatype>
							<parameter>
								<parameterid>scale</parameterid>
								<name>Scale</name>
								<valuemin>0</valuemin>
								<valuemax>1000</valuemax>
								<value>100</value>
							</parameter>
							<parameter>
								<parameterid>rotation</parameterid>
								<name>Rotation</name>
								<valuemin>-8640</valuemin>
								<valuemax>8640</valuemax>
								<value>0</value>
							</parameter>
							<parameter>
								<parameterid>center</parameterid>
								<name>Center</name>
								<value>
									<horiz>0</horiz>
									<vert>0</vert>
								</value>
							</parameter>
							<parameter>
								<parameterid>centerOffset</parameterid>
								<name>Anchor Point</name>
								<value>
									<horiz>0</horiz>
									<vert>0</vert>
								</value>
							</parameter>
						</effect>
					</filter>
					<sourcetrack>
						<mediatype>video</mediatype>
					</sourcetrack>
					<fielddominance>upper</fielddominance>
				</clipitem>
				<clipitem id="525_0268_01 ">
					<name>525_0268_01</name>
					<duration>107</duration>
					<rate>
						<ntsc>FALSE</ntsc>
						<timebase>25</timebase>
					</rate>
					<in>25</in>
					<out>82</out>
					<start>6675</start>
					<end>6732</end>
					<pixelaspectratio>Square</pixelaspectratio>
					<anamorphic>FALSE</anamorphic>
					<alphatype>none</alphatype>
					<logginginfo>
						<scene/>
						<shottake/>
						<lognote/>
						<good>FALSE</good>
					</logginginfo>
					<labels>
						<label2/>
					</labels>
					<comments>
						<mastercomment1/>
						<mastercomment2/>
						<mastercomment3/>
						<mastercomment4/>
					</comments>
					<file id="22_g1 ">
						<name>22_g1.mov</name>
						<pathurl>file://localhost/Volumes/Askepott/Final%20Cut%20Pro%20Documents/Color%20Renderfiles/Lam%20v1/22/22_g1.mov</pathurl>
						<rate>
							<timebase>25</timebase>
						</rate>
						<duration>107</duration>
						<timecode>
							<rate>
								<timebase>25</timebase>
							</rate>
							<string>10:26:14:06</string>
							<frame>939356</frame>
							<displayformat>NDF</displayformat>
							<source>source</source>
							<reel>
								<name>Untitled</name>
							</reel>
						</timecode>
						<media>
							<video>
								<duration>107</duration>
								<samplecharacteristics>
									<width>1920</width>
									<height>1080</height>
								</samplecharacteristics>
							</video>
						</media>
					</file>
					<filter>
						<effect>
							<name>Distort</name>
							<effectid>deformation</effectid>
							<effectcategory>motion</effectcategory>
							<effecttype>motion</effecttype>
							<mediatype>video</mediatype>
							<parameter>
								<parameterid>ulcorner</parameterid>
								<name>Upper Left</name>
								<value>
									<horiz>-0.5</horiz>
									<vert>-0.5</vert>
								</value>
							</parameter>
							<parameter>
								<parameterid>urcorner</parameterid>
								<name>Upper Right</name>
								<value>
									<horiz>0.5</horiz>
									<vert>-0.5</vert>
								</value>
							</parameter>
							<parameter>
								<parameterid>lrcorner</parameterid>
								<name>Lower Right</name>
								<value>
									<horiz>0.5</horiz>
									<vert>0.5</vert>
								</value>
							</parameter>
							<parameter>
								<parameterid>llcorner</parameterid>
								<name>Lower Left</name>
								<value>
									<horiz>-0.5</horiz>
									<vert>0.5</vert>
								</value>
							</parameter>
							<parameter>
								<parameterid>aspect</parameterid>
								<name>Aspect</name>
								<valuemin>-10000</valuemin>
								<valuemax>10000</valuemax>
								<value>0</value>
							</parameter>
						</effect>
					</filter>
					<filter>
						<effect>
							<name>Basic Motion</name>
							<effectid>basic</effectid>
							<effectcategory>motion</effectcategory>
							<effecttype>motion</effecttype>
							<mediatype>video</mediatype>
							<parameter>
								<parameterid>scale</parameterid>
								<name>Scale</name>
								<valuemin>0</valuemin>
								<valuemax>1000</valuemax>
								<value>100</value>
							</parameter>
							<parameter>
								<parameterid>rotation</parameterid>
								<name>Rotation</name>
								<valuemin>-8640</valuemin>
								<valuemax>8640</valuemax>
								<value>0</value>
							</parameter>
							<parameter>
								<parameterid>center</parameterid>
								<name>Center</name>
								<value>
									<horiz>0</horiz>
									<vert>0</vert>
								</value>
							</parameter>
							<parameter>
								<parameterid>centerOffset</parameterid>
								<name>Anchor Point</name>
								<value>
									<horiz>0</horiz>
									<vert>0</vert>
								</value>
							</parameter>
						</effect>
					</filter>
					<sourcetrack>
						<mediatype>video</mediatype>
					</sourcetrack>
					<fielddominance>upper</fielddominance>
				</clipitem>
				<clipitem id="525_0298_01 6">
					<name>525_0298_01</name>
					<duration>189</duration>
					<rate>
						<ntsc>FALSE</ntsc>
						<timebase>25</timebase>
					</rate>
					<in>26</in>
					<out>164</out>
					<start>6732</start>
					<end>6870</end>
					<pixelaspectratio>Square</pixelaspectratio>
					<anamorphic>FALSE</anamorphic>
					<alphatype>none</alphatype>
					<masterclipid>525_0298_01 7</masterclipid>
					<logginginfo>
						<scene/>
						<shottake/>
						<lognote/>
						<good>FALSE</good>
					</logginginfo>
					<labels>
						<label2/>
					</labels>
					<comments>
						<mastercomment1/>
						<mastercomment2/>
						<mastercomment3/>
						<mastercomment4/>
					</comments>
					<file id="28_g1 ">
						<name>28_g1.mov</name>
						<pathurl>file://localhost/Volumes/Askepott/Final%20Cut%20Pro%20Documents/Color%20Renderfiles/Lam%20v1/28/28_g1.mov</pathurl>
						<rate>
							<timebase>25</timebase>
						</rate>
						<duration>189</duration>
						<timecode>
							<rate>
								<timebase>25</timebase>
							</rate>
							<string>11:11:22:20</string>
							<frame>1007070</frame>
							<displayformat>NDF</displayformat>
							<source>source</source>
							<reel>
								<name>Untitled</name>
							</reel>
						</timecode>
						<media>
							<video>
								<duration>189</duration>
								<samplecharacteristics>
									<width>1920</width>
									<height>1080</height>
								</samplecharacteristics>
							</video>
						</media>
					</file>
					<filter>
						<effect>
							<name>Distort</name>
							<effectid>deformation</effectid>
							<effectcategory>motion</effectcategory>
							<effecttype>motion</effecttype>
							<mediatype>video</mediatype>
							<parameter>
								<parameterid>ulcorner</parameterid>
								<name>Upper Left</name>
								<value>
									<horiz>-0.5</horiz>
									<vert>-0.5</vert>
								</value>
							</parameter>
							<parameter>
								<parameterid>urcorner</parameterid>
								<name>Upper Right</name>
								<value>
									<horiz>0.5</horiz>
									<vert>-0.5</vert>
								</value>
							</parameter>
							<parameter>
								<parameterid>lrcorner</parameterid>
								<name>Lower Right</name>
								<value>
									<horiz>0.5</horiz>
									<vert>0.5</vert>
								</value>
							</parameter>
							<parameter>
								<parameterid>llcorner</parameterid>
								<name>Lower Left</name>
								<value>
									<horiz>-0.5</horiz>
									<vert>0.5</vert>
								</value>
							</parameter>
							<parameter>
								<parameterid>aspect</parameterid>
								<name>Aspect</name>
								<valuemin>-10000</valuemin>
								<valuemax>10000</valuemax>
								<value>0</value>
							</parameter>
						</effect>
					</filter>
					<filter>
						<effect>
							<name>Basic Motion</name>
							<effectid>basic</effectid>
							<effectcategory>motion</effectcategory>
							<effecttype>motion</effecttype>
							<mediatype>video</mediatype>
							<parameter>
								<parameterid>scale</parameterid>
								<name>Scale</name>
								<valuemin>0</valuemin>
								<valuemax>1000</valuemax>
								<value>100</value>
							</parameter>
							<parameter>
								<parameterid>rotation</parameterid>
								<name>Rotation</name>
								<valuemin>-8640</valuemin>
								<valuemax>8640</valuemax>
								<value>0</value>
							</parameter>
							<parameter>
								<parameterid>center</parameterid>
								<name>Center</name>
								<value>
									<horiz>0</horiz>
									<vert>0</vert>
								</value>
							</parameter>
							<parameter>
								<parameterid>centerOffset</parameterid>
								<name>Anchor Point</name>
								<value>
									<horiz>0</horiz>
									<vert>0</vert>
								</value>
							</parameter>
						</effect>
					</filter>
					<sourcetrack>
						<mediatype>video</mediatype>
					</sourcetrack>
					<fielddominance>upper</fielddominance>
				</clipitem>
				<clipitem id="525_0298_01 8">
					<name>525_0298_01</name>
					<duration>194</duration>
					<rate>
						<ntsc>FALSE</ntsc>
						<timebase>25</timebase>
					</rate>
					<in>25</in>
					<out>169</out>
					<start>6870</start>
					<end>7014</end>
					<pixelaspectratio>Square</pixelaspectratio>
					<anamorphic>FALSE</anamorphic>
					<alphatype>none</alphatype>
					<logginginfo>
						<scene/>
						<shottake/>
						<lognote/>
						<good>FALSE</good>
					</logginginfo>
					<labels>
						<label2/>
					</labels>
					<comments>
						<mastercomment1/>
						<mastercomment2/>
						<mastercomment3/>
						<mastercomment4/>
					</comments>
					<file id="29_g1 ">
						<name>29_g1.mov</name>
						<pathurl>file://localhost/Volumes/Askepott/Final%20Cut%20Pro%20Documents/Color%20Renderfiles/Lam%20v1/29/29_g1.mov</pathurl>
						<rate>
							<timebase>25</timebase>
						</rate>
						<duration>194</duration>
						<timecode>
							<rate>
								<timebase>25</timebase>
							</rate>
							<string>11:11:34:10</string>
							<frame>1007360</frame>
							<displayformat>NDF</displayformat>
							<source>source</source>
							<reel>
								<name>Untitled</name>
							</reel>
						</timecode>
						<media>
							<video>
								<duration>194</duration>
								<samplecharacteristics>
									<width>1920</width>
									<height>1080</height>
								</samplecharacteristics>
							</video>
						</media>
					</file>
					<filter>
						<effect>
							<name>Distort</name>
							<effectid>deformation</effectid>
							<effectcategory>motion</effectcategory>
							<effecttype>motion</effecttype>
							<mediatype>video</mediatype>
							<parameter>
								<parameterid>ulcorner</parameterid>
								<name>Upper Left</name>
								<value>
									<horiz>-0.5</horiz>
									<vert>-0.5</vert>
								</value>
							</parameter>
							<parameter>
								<parameterid>urcorner</parameterid>
								<name>Upper Right</name>
								<value>
									<horiz>0.5</horiz>
									<vert>-0.5</vert>
								</value>
							</parameter>
							<parameter>
								<parameterid>lrcorner</parameterid>
								<name>Lower Right</name>
								<value>
									<horiz>0.5</horiz>
									<vert>0.5</vert>
								</value>
							</parameter>
							<parameter>
								<parameterid>llcorner</parameterid>
								<name>Lower Left</name>
								<value>
									<horiz>-0.5</horiz>
									<vert>0.5</vert>
								</value>
							</parameter>
							<parameter>
								<parameterid>aspect</parameterid>
								<name>Aspect</name>
								<valuemin>-10000</valuemin>
								<valuemax>10000</valuemax>
								<value>0</value>
							</parameter>
						</effect>
					</filter>
					<filter>
						<effect>
							<name>Basic Motion</name>
							<effectid>basic</effectid>
							<effectcategory>motion</effectcategory>
							<effecttype>motion</effecttype>
							<mediatype>video</mediatype>
							<parameter>
								<parameterid>scale</parameterid>
								<name>Scale</name>
								<valuemin>0</valuemin>
								<valuemax>1000</valuemax>
								<value>100</value>
							</parameter>
							<parameter>
								<parameterid>rotation</parameterid>
								<name>Rotation</name>
								<valuemin>-8640</valuemin>
								<valuemax>8640</valuemax>
								<value>0</value>
							</parameter>
							<parameter>
								<parameterid>center</parameterid>
								<name>Center</name>
								<value>
									<horiz>0</horiz>
									<vert>0</vert>
								</value>
							</parameter>
							<parameter>
								<parameterid>centerOffset</parameterid>
								<name>Anchor Point</name>
								<value>
									<horiz>0</horiz>
									<vert>0</vert>
								</value>
							</parameter>
						</effect>
					</filter>
					<sourcetrack>
						<mediatype>video</mediatype>
					</sourcetrack>
					<fielddominance>upper</fielddominance>
				</clipitem>
				<clipitem id="525_0298_01 9">
					<name>525_0298_01</name>
					<duration>123</duration>
					<rate>
						<ntsc>FALSE</ntsc>
						<timebase>25</timebase>
					</rate>
					<in>25</in>
					<out>98</out>
					<start>7014</start>
					<end>7087</end>
					<pixelaspectratio>Square</pixelaspectratio>
					<anamorphic>FALSE</anamorphic>
					<alphatype>none</alphatype>
					<logginginfo>
						<scene/>
						<shottake/>
						<lognote/>
						<good>FALSE</good>
					</logginginfo>
					<labels>
						<label2/>
					</labels>
					<comments>
						<mastercomment1/>
						<mastercomment2/>
						<mastercomment3/>
						<mastercomment4/>
					</comments>
					<file id="30_g1 ">
						<name>30_g1.mov</name>
						<pathurl>file://localhost/Volumes/Askepott/Final%20Cut%20Pro%20Documents/Color%20Renderfiles/Lam%20v1/30/30_g1.mov</pathurl>
						<rate>
							<timebase>25</timebase>
						</rate>
						<duration>123</duration>
						<timecode>
							<rate>
								<timebase>25</timebase>
							</rate>
							<string>11:11:58:00</string>
							<frame>1007950</frame>
							<displayformat>NDF</displayformat>
							<source>source</source>
							<reel>
								<name>Untitled</name>
							</reel>
						</timecode>
						<media>
							<video>
								<duration>123</duration>
								<samplecharacteristics>
									<width>1920</width>
									<height>1080</height>
								</samplecharacteristics>
							</video>
						</media>
					</file>
					<filter>
						<effect>
							<name>Distort</name>
							<effectid>deformation</effectid>
							<effectcategory>motion</effectcategory>
							<effecttype>motion</effecttype>
							<mediatype>video</mediatype>
							<parameter>
								<parameterid>ulcorner</parameterid>
								<name>Upper Left</name>
								<value>
									<horiz>-0.5</horiz>
									<vert>-0.5</vert>
								</value>
							</parameter>
							<parameter>
								<parameterid>urcorner</parameterid>
								<name>Upper Right</name>
								<value>
									<horiz>0.5</horiz>
									<vert>-0.5</vert>
								</value>
							</parameter>
							<parameter>
								<parameterid>lrcorner</parameterid>
								<name>Lower Right</name>
								<value>
									<horiz>0.5</horiz>
									<vert>0.5</vert>
								</value>
							</parameter>
							<parameter>
								<parameterid>llcorner</parameterid>
								<name>Lower Left</name>
								<value>
									<horiz>-0.5</horiz>
									<vert>0.5</vert>
								</value>
							</parameter>
							<parameter>
								<parameterid>aspect</parameterid>
								<name>Aspect</name>
								<valuemin>-10000</valuemin>
								<valuemax>10000</valuemax>
								<value>0</value>
							</parameter>
						</effect>
					</filter>
					<filter>
						<effect>
							<name>Basic Motion</name>
							<effectid>basic</effectid>
							<effectcategory>motion</effectcategory>
							<effecttype>motion</effecttype>
							<mediatype>video</mediatype>
							<parameter>
								<parameterid>scale</parameterid>
								<name>Scale</name>
								<valuemin>0</valuemin>
								<valuemax>1000</valuemax>
								<value>100</value>
							</parameter>
							<parameter>
								<parameterid>rotation</parameterid>
								<name>Rotation</name>
								<valuemin>-8640</valuemin>
								<valuemax>8640</valuemax>
								<value>0</value>
							</parameter>
							<parameter>
								<parameterid>center</parameterid>
								<name>Center</name>
								<value>
									<horiz>0</horiz>
									<vert>0</vert>
								</value>
							</parameter>
							<parameter>
								<parameterid>centerOffset</parameterid>
								<name>Anchor Point</name>
								<value>
									<horiz>0</horiz>
									<vert>0</vert>
								</value>
							</parameter>
						</effect>
					</filter>
					<sourcetrack>
						<mediatype>video</mediatype>
					</sourcetrack>
					<fielddominance>upper</fielddominance>
				</clipitem>
				<clipitem id="525_0298_01 10">
					<name>525_0298_01</name>
					<duration>132</duration>
					<rate>
						<ntsc>FALSE</ntsc>
						<timebase>25</timebase>
					</rate>
					<in>25</in>
					<out>107</out>
					<start>7087</start>
					<end>7169</end>
					<pixelaspectratio>Square</pixelaspectratio>
					<anamorphic>FALSE</anamorphic>
					<alphatype>none</alphatype>
					<logginginfo>
						<scene/>
						<shottake/>
						<lognote/>
						<good>FALSE</good>
					</logginginfo>
					<labels>
						<label2/>
					</labels>
					<comments>
						<mastercomment1/>
						<mastercomment2/>
						<mastercomment3/>
						<mastercomment4/>
					</comments>
					<file id="31_g1 ">
						<name>31_g1.mov</name>
						<pathurl>file://localhost/Volumes/Askepott/Final%20Cut%20Pro%20Documents/Color%20Renderfiles/Lam%20v1/31/31_g1.mov</pathurl>
						<rate>
							<timebase>25</timebase>
						</rate>
						<duration>132</duration>
						<timecode>
							<rate>
								<timebase>25</timebase>
							</rate>
							<string>11:11:40:20</string>
							<frame>1007520</frame>
							<displayformat>NDF</displayformat>
							<source>source</source>
							<reel>
								<name>Untitled</name>
							</reel>
						</timecode>
						<media>
							<video>
								<duration>132</duration>
								<samplecharacteristics>
									<width>1920</width>
									<height>1080</height>
								</samplecharacteristics>
							</video>
						</media>
					</file>
					<filter>
						<effect>
							<name>Distort</name>
							<effectid>deformation</effectid>
							<effectcategory>motion</effectcategory>
							<effecttype>motion</effecttype>
							<mediatype>video</mediatype>
							<parameter>
								<parameterid>ulcorner</parameterid>
								<name>Upper Left</name>
								<value>
									<horiz>-0.5</horiz>
									<vert>-0.5</vert>
								</value>
							</parameter>
							<parameter>
								<parameterid>urcorner</parameterid>
								<name>Upper Right</name>
								<value>
									<horiz>0.5</horiz>
									<vert>-0.5</vert>
								</value>
							</parameter>
							<parameter>
								<parameterid>lrcorner</parameterid>
								<name>Lower Right</name>
								<value>
									<horiz>0.5</horiz>
									<vert>0.5</vert>
								</value>
							</parameter>
							<parameter>
								<parameterid>llcorner</parameterid>
								<name>Lower Left</name>
								<value>
									<horiz>-0.5</horiz>
									<vert>0.5</vert>
								</value>
							</parameter>
							<parameter>
								<parameterid>aspect</parameterid>
								<name>Aspect</name>
								<valuemin>-10000</valuemin>
								<valuemax>10000</valuemax>
								<value>0</value>
							</parameter>
						</effect>
					</filter>
					<filter>
						<effect>
							<name>Basic Motion</name>
							<effectid>basic</effectid>
							<effectcategory>motion</effectcategory>
							<effecttype>motion</effecttype>
							<mediatype>video</mediatype>
							<parameter>
								<parameterid>scale</parameterid>
								<name>Scale</name>
								<valuemin>0</valuemin>
								<valuemax>1000</valuemax>
								<value>100</value>
							</parameter>
							<parameter>
								<parameterid>rotation</parameterid>
								<name>Rotation</name>
								<valuemin>-8640</valuemin>
								<valuemax>8640</valuemax>
								<value>0</value>
							</parameter>
							<parameter>
								<parameterid>center</parameterid>
								<name>Center</name>
								<value>
									<horiz>0</horiz>
									<vert>0</vert>
								</value>
							</parameter>
							<parameter>
								<parameterid>centerOffset</parameterid>
								<name>Anchor Point</name>
								<value>
									<horiz>0</horiz>
									<vert>0</vert>
								</value>
							</parameter>
						</effect>
					</filter>
					<sourcetrack>
						<mediatype>video</mediatype>
					</sourcetrack>
					<fielddominance>upper</fielddominance>
				</clipitem>
				<clipitem id="525_0298_01 11">
					<name>525_0298_01</name>
					<duration>155</duration>
					<rate>
						<ntsc>FALSE</ntsc>
						<timebase>25</timebase>
					</rate>
					<in>25</in>
					<out>130</out>
					<start>7169</start>
					<end>7274</end>
					<pixelaspectratio>Square</pixelaspectratio>
					<anamorphic>FALSE</anamorphic>
					<alphatype>none</alphatype>
					<logginginfo>
						<scene/>
						<shottake/>
						<lognote/>
						<good>FALSE</good>
					</logginginfo>
					<labels>
						<label2/>
					</labels>
					<comments>
						<mastercomment1/>
						<mastercomment2/>
						<mastercomment3/>
						<mastercomment4/>
					</comments>
					<file id="32_g1 ">
						<name>32_g1.mov</name>
						<pathurl>file://localhost/Volumes/Askepott/Final%20Cut%20Pro%20Documents/Color%20Renderfiles/Lam%20v1/32/32_g1.mov</pathurl>
						<rate>
							<timebase>25</timebase>
						</rate>
						<duration>155</duration>
						<timecode>
							<rate>
								<timebase>25</timebase>
							</rate>
							<string>11:12:16:24</string>
							<frame>1008424</frame>
							<displayformat>NDF</displayformat>
							<source>source</source>
							<reel>
								<name>Untitled</name>
							</reel>
						</timecode>
						<media>
							<video>
								<duration>155</duration>
								<samplecharacteristics>
									<width>1920</width>
									<height>1080</height>
								</samplecharacteristics>
							</video>
						</media>
					</file>
					<filter>
						<effect>
							<name>Distort</name>
							<effectid>deformation</effectid>
							<effectcategory>motion</effectcategory>
							<effecttype>motion</effecttype>
							<mediatype>video</mediatype>
							<parameter>
								<parameterid>ulcorner</parameterid>
								<name>Upper Left</name>
								<value>
									<horiz>-0.5</horiz>
									<vert>-0.5</vert>
								</value>
							</parameter>
							<parameter>
								<parameterid>urcorner</parameterid>
								<name>Upper Right</name>
								<value>
									<horiz>0.5</horiz>
									<vert>-0.5</vert>
								</value>
							</parameter>
							<parameter>
								<parameterid>lrcorner</parameterid>
								<name>Lower Right</name>
								<value>
									<horiz>0.5</horiz>
									<vert>0.5</vert>
								</value>
							</parameter>
							<parameter>
								<parameterid>llcorner</parameterid>
								<name>Lower Left</name>
								<value>
									<horiz>-0.5</horiz>
									<vert>0.5</vert>
								</value>
							</parameter>
							<parameter>
								<parameterid>aspect</parameterid>
								<name>Aspect</name>
								<valuemin>-10000</valuemin>
								<valuemax>10000</valuemax>
								<value>0</value>
							</parameter>
						</effect>
					</filter>
					<filter>
						<effect>
							<name>Basic Motion</name>
							<effectid>basic</effectid>
							<effectcategory>motion</effectcategory>
							<effecttype>motion</effecttype>
							<mediatype>video</mediatype>
							<parameter>
								<parameterid>scale</parameterid>
								<name>Scale</name>
								<valuemin>0</valuemin>
								<valuemax>1000</valuemax>
								<value>100</value>
							</parameter>
							<parameter>
								<parameterid>rotation</parameterid>
								<name>Rotation</name>
								<valuemin>-8640</valuemin>
								<valuemax>8640</valuemax>
								<value>0</value>
							</parameter>
							<parameter>
								<parameterid>center</parameterid>
								<name>Center</name>
								<value>
									<horiz>0</horiz>
									<vert>0</vert>
								</value>
							</parameter>
							<parameter>
								<parameterid>centerOffset</parameterid>
								<name>Anchor Point</name>
								<value>
									<horiz>0</horiz>
									<vert>0</vert>
								</value>
							</parameter>
						</effect>
					</filter>
					<sourcetrack>
						<mediatype>video</mediatype>
					</sourcetrack>
					<fielddominance>upper</fielddominance>
				</clipitem>
				<clipitem id="525_0298_01 12">
					<name>525_0298_01</name>
					<duration>157</duration>
					<rate>
						<ntsc>FALSE</ntsc>
						<timebase>25</timebase>
					</rate>
					<in>25</in>
					<out>132</out>
					<start>7274</start>
					<end>7381</end>
					<pixelaspectratio>Square</pixelaspectratio>
					<anamorphic>FALSE</anamorphic>
					<alphatype>none</alphatype>
					<logginginfo>
						<scene/>
						<shottake/>
						<lognote/>
						<good>FALSE</good>
					</logginginfo>
					<labels>
						<label2/>
					</labels>
					<comments>
						<mastercomment1/>
						<mastercomment2/>
						<mastercomment3/>
						<mastercomment4/>
					</comments>
					<file id="33_g1 ">
						<name>33_g1.mov</name>
						<pathurl>file://localhost/Volumes/Askepott/Final%20Cut%20Pro%20Documents/Color%20Renderfiles/Lam%20v1/33/33_g1.mov</pathurl>
						<rate>
							<timebase>25</timebase>
						</rate>
						<duration>157</duration>
						<timecode>
							<rate>
								<timebase>25</timebase>
							</rate>
							<string>11:12:27:14</string>
							<frame>1008689</frame>
							<displayformat>NDF</displayformat>
							<source>source</source>
							<reel>
								<name>Untitled</name>
							</reel>
						</timecode>
						<media>
							<video>
								<duration>157</duration>
								<samplecharacteristics>
									<width>1920</width>
									<height>1080</height>
								</samplecharacteristics>
							</video>
						</media>
					</file>
					<filter>
						<effect>
							<name>Distort</name>
							<effectid>deformation</effectid>
							<effectcategory>motion</effectcategory>
							<effecttype>motion</effecttype>
							<mediatype>video</mediatype>
							<parameter>
								<parameterid>ulcorner</parameterid>
								<name>Upper Left</name>
								<value>
									<horiz>-0.5</horiz>
									<vert>-0.5</vert>
								</value>
							</parameter>
							<parameter>
								<parameterid>urcorner</parameterid>
								<name>Upper Right</name>
								<value>
									<horiz>0.5</horiz>
									<vert>-0.5</vert>
								</value>
							</parameter>
							<parameter>
								<parameterid>lrcorner</parameterid>
								<name>Lower Right</name>
								<value>
									<horiz>0.5</horiz>
									<vert>0.5</vert>
								</value>
							</parameter>
							<parameter>
								<parameterid>llcorner</parameterid>
								<name>Lower Left</name>
								<value>
									<horiz>-0.5</horiz>
									<vert>0.5</vert>
								</value>
							</parameter>
							<parameter>
								<parameterid>aspect</parameterid>
								<name>Aspect</name>
								<valuemin>-10000</valuemin>
								<valuemax>10000</valuemax>
								<value>0</value>
							</parameter>
						</effect>
					</filter>
					<filter>
						<effect>
							<name>Basic Motion</name>
							<effectid>basic</effectid>
							<effectcategory>motion</effectcategory>
							<effecttype>motion</effecttype>
							<mediatype>video</mediatype>
							<parameter>
								<parameterid>scale</parameterid>
								<name>Scale</name>
								<valuemin>0</valuemin>
								<valuemax>1000</valuemax>
								<value>100</value>
							</parameter>
							<parameter>
								<parameterid>rotation</parameterid>
								<name>Rotation</name>
								<valuemin>-8640</valuemin>
								<valuemax>8640</valuemax>
								<value>0</value>
							</parameter>
							<parameter>
								<parameterid>center</parameterid>
								<name>Center</name>
								<value>
									<horiz>0</horiz>
									<vert>0</vert>
								</value>
							</parameter>
							<parameter>
								<parameterid>centerOffset</parameterid>
								<name>Anchor Point</name>
								<value>
									<horiz>0</horiz>
									<vert>0</vert>
								</value>
							</parameter>
						</effect>
					</filter>
					<sourcetrack>
						<mediatype>video</mediatype>
					</sourcetrack>
					<fielddominance>upper</fielddominance>
				</clipitem>
				<clipitem id="525_0298_01 13">
					<name>525_0298_01</name>
					<duration>106</duration>
					<rate>
						<ntsc>FALSE</ntsc>
						<timebase>25</timebase>
					</rate>
					<in>25</in>
					<out>81</out>
					<start>7381</start>
					<end>7437</end>
					<pixelaspectratio>Square</pixelaspectratio>
					<anamorphic>FALSE</anamorphic>
					<alphatype>none</alphatype>
					<logginginfo>
						<scene/>
						<shottake/>
						<lognote/>
						<good>FALSE</good>
					</logginginfo>
					<labels>
						<label2/>
					</labels>
					<comments>
						<mastercomment1/>
						<mastercomment2/>
						<mastercomment3/>
						<mastercomment4/>
					</comments>
					<file id="34_g1 ">
						<name>34_g1.mov</name>
						<pathurl>file://localhost/Volumes/Askepott/Final%20Cut%20Pro%20Documents/Color%20Renderfiles/Lam%20v1/34/34_g1.mov</pathurl>
						<rate>
							<timebase>25</timebase>
						</rate>
						<duration>106</duration>
						<timecode>
							<rate>
								<timebase>25</timebase>
							</rate>
							<string>11:12:35:16</string>
							<frame>1008891</frame>
							<displayformat>NDF</displayformat>
							<source>source</source>
							<reel>
								<name>Untitled</name>
							</reel>
						</timecode>
						<media>
							<video>
								<duration>106</duration>
								<samplecharacteristics>
									<width>1920</width>
									<height>1080</height>
								</samplecharacteristics>
							</video>
						</media>
					</file>
					<filter>
						<effect>
							<name>Distort</name>
							<effectid>deformation</effectid>
							<effectcategory>motion</effectcategory>
							<effecttype>motion</effecttype>
							<mediatype>video</mediatype>
							<parameter>
								<parameterid>ulcorner</parameterid>
								<name>Upper Left</name>
								<value>
									<horiz>-0.5</horiz>
									<vert>-0.5</vert>
								</value>
							</parameter>
							<parameter>
								<parameterid>urcorner</parameterid>
								<name>Upper Right</name>
								<value>
									<horiz>0.5</horiz>
									<vert>-0.5</vert>
								</value>
							</parameter>
							<parameter>
								<parameterid>lrcorner</parameterid>
								<name>Lower Right</name>
								<value>
									<horiz>0.5</horiz>
									<vert>0.5</vert>
								</value>
							</parameter>
							<parameter>
								<parameterid>llcorner</parameterid>
								<name>Lower Left</name>
								<value>
									<horiz>-0.5</horiz>
									<vert>0.5</vert>
								</value>
							</parameter>
							<parameter>
								<parameterid>aspect</parameterid>
								<name>Aspect</name>
								<valuemin>-10000</valuemin>
								<valuemax>10000</valuemax>
								<value>0</value>
							</parameter>
						</effect>
					</filter>
					<filter>
						<effect>
							<name>Basic Motion</name>
							<effectid>basic</effectid>
							<effectcategory>motion</effectcategory>
							<effecttype>motion</effecttype>
							<mediatype>video</mediatype>
							<parameter>
								<parameterid>scale</parameterid>
								<name>Scale</name>
								<valuemin>0</valuemin>
								<valuemax>1000</valuemax>
								<value>100</value>
							</parameter>
							<parameter>
								<parameterid>rotation</parameterid>
								<name>Rotation</name>
								<valuemin>-8640</valuemin>
								<valuemax>8640</valuemax>
								<value>0</value>
							</parameter>
							<parameter>
								<parameterid>center</parameterid>
								<name>Center</name>
								<value>
									<horiz>0</horiz>
									<vert>0</vert>
								</value>
							</parameter>
							<parameter>
								<parameterid>centerOffset</parameterid>
								<name>Anchor Point</name>
								<value>
									<horiz>0</horiz>
									<vert>0</vert>
								</value>
							</parameter>
						</effect>
					</filter>
					<sourcetrack>
						<mediatype>video</mediatype>
					</sourcetrack>
					<fielddominance>upper</fielddominance>
				</clipitem>
				<clipitem id="525_0298_01 14">
					<name>525_0298_01</name>
					<duration>165</duration>
					<rate>
						<ntsc>FALSE</ntsc>
						<timebase>25</timebase>
					</rate>
					<in>25</in>
					<out>140</out>
					<start>7437</start>
					<end>7552</end>
					<pixelaspectratio>Square</pixelaspectratio>
					<anamorphic>FALSE</anamorphic>
					<alphatype>none</alphatype>
					<logginginfo>
						<scene/>
						<shottake/>
						<lognote/>
						<good>FALSE</good>
					</logginginfo>
					<labels>
						<label2/>
					</labels>
					<comments>
						<mastercomment1/>
						<mastercomment2/>
						<mastercomment3/>
						<mastercomment4/>
					</comments>
					<file id="35_g1 "/>
					<filter>
						<effect>
							<name>Distort</name>
							<effectid>deformation</effectid>
							<effectcategory>motion</effectcategory>
							<effecttype>motion</effecttype>
							<mediatype>video</mediatype>
							<parameter>
								<parameterid>ulcorner</parameterid>
								<name>Upper Left</name>
								<value>
									<horiz>-0.5</horiz>
									<vert>-0.5</vert>
								</value>
							</parameter>
							<parameter>
								<parameterid>urcorner</parameterid>
								<name>Upper Right</name>
								<value>
									<horiz>0.5</horiz>
									<vert>-0.5</vert>
								</value>
							</parameter>
							<parameter>
								<parameterid>lrcorner</parameterid>
								<name>Lower Right</name>
								<value>
									<horiz>0.5</horiz>
									<vert>0.5</vert>
								</value>
							</parameter>
							<parameter>
								<parameterid>llcorner</parameterid>
								<name>Lower Left</name>
								<value>
									<horiz>-0.5</horiz>
									<vert>0.5</vert>
								</value>
							</parameter>
							<parameter>
								<parameterid>aspect</parameterid>
								<name>Aspect</name>
								<valuemin>-10000</valuemin>
								<valuemax>10000</valuemax>
								<value>0</value>
							</parameter>
						</effect>
					</filter>
					<filter>
						<effect>
							<name>Basic Motion</name>
							<effectid>basic</effectid>
							<effectcategory>motion</effectcategory>
							<effecttype>motion</effecttype>
							<mediatype>video</mediatype>
							<parameter>
								<parameterid>scale</parameterid>
								<name>Scale</name>
								<valuemin>0</valuemin>
								<valuemax>1000</valuemax>
								<value>100</value>
							</parameter>
							<parameter>
								<parameterid>rotation</parameterid>
								<name>Rotation</name>
								<valuemin>-8640</valuemin>
								<valuemax>8640</valuemax>
								<value>0</value>
							</parameter>
							<parameter>
								<parameterid>center</parameterid>
								<name>Center</name>
								<value>
									<horiz>0</horiz>
									<vert>0</vert>
								</value>
							</parameter>
							<parameter>
								<parameterid>centerOffset</parameterid>
								<name>Anchor Point</name>
								<value>
									<horiz>0</horiz>
									<vert>0</vert>
								</value>
							</parameter>
						</effect>
					</filter>
					<sourcetrack>
						<mediatype>video</mediatype>
					</sourcetrack>
					<fielddominance>upper</fielddominance>
				</clipitem>
				<clipitem id="525_0298_01 15">
					<name>525_0298_01</name>
					<duration>220</duration>
					<rate>
						<ntsc>FALSE</ntsc>
						<timebase>25</timebase>
					</rate>
					<in>25</in>
					<out>195</out>
					<start>7552</start>
					<end>7722</end>
					<pixelaspectratio>Square</pixelaspectratio>
					<anamorphic>FALSE</anamorphic>
					<alphatype>none</alphatype>
					<logginginfo>
						<scene/>
						<shottake/>
						<lognote/>
						<good>FALSE</good>
					</logginginfo>
					<labels>
						<label2/>
					</labels>
					<comments>
						<mastercomment1/>
						<mastercomment2/>
						<mastercomment3/>
						<mastercomment4/>
					</comments>
					<file id="36_g1 ">
						<name>36_g1.mov</name>
						<pathurl>file://localhost/Volumes/Askepott/Final%20Cut%20Pro%20Documents/Color%20Renderfiles/Lam%20v1/36/36_g1.mov</pathurl>
						<rate>
							<timebase>25</timebase>
						</rate>
						<duration>220</duration>
						<timecode>
							<rate>
								<timebase>25</timebase>
							</rate>
							<string>11:13:24:15</string>
							<frame>1010115</frame>
							<displayformat>NDF</displayformat>
							<source>source</source>
							<reel>
								<name>Untitled</name>
							</reel>
						</timecode>
						<media>
							<video>
								<duration>220</duration>
								<samplecharacteristics>
									<width>1920</width>
									<height>1080</height>
								</samplecharacteristics>
							</video>
						</media>
					</file>
					<filter>
						<effect>
							<name>Distort</name>
							<effectid>deformation</effectid>
							<effectcategory>motion</effectcategory>
							<effecttype>motion</effecttype>
							<mediatype>video</mediatype>
							<parameter>
								<parameterid>ulcorner</parameterid>
								<name>Upper Left</name>
								<value>
									<horiz>-0.5</horiz>
									<vert>-0.5</vert>
								</value>
							</parameter>
							<parameter>
								<parameterid>urcorner</parameterid>
								<name>Upper Right</name>
								<value>
									<horiz>0.5</horiz>
									<vert>-0.5</vert>
								</value>
							</parameter>
							<parameter>
								<parameterid>lrcorner</parameterid>
								<name>Lower Right</name>
								<value>
									<horiz>0.5</horiz>
									<vert>0.5</vert>
								</value>
							</parameter>
							<parameter>
								<parameterid>llcorner</parameterid>
								<name>Lower Left</name>
								<value>
									<horiz>-0.5</horiz>
									<vert>0.5</vert>
								</value>
							</parameter>
							<parameter>
								<parameterid>aspect</parameterid>
								<name>Aspect</name>
								<valuemin>-10000</valuemin>
								<valuemax>10000</valuemax>
								<value>0</value>
							</parameter>
						</effect>
					</filter>
					<filter>
						<effect>
							<name>Basic Motion</name>
							<effectid>basic</effectid>
							<effectcategory>motion</effectcategory>
							<effecttype>motion</effecttype>
							<mediatype>video</mediatype>
							<parameter>
								<parameterid>scale</parameterid>
								<name>Scale</name>
								<valuemin>0</valuemin>
								<valuemax>1000</valuemax>
								<value>100</value>
							</parameter>
							<parameter>
								<parameterid>rotation</parameterid>
								<name>Rotation</name>
								<valuemin>-8640</valuemin>
								<valuemax>8640</valuemax>
								<value>0</value>
							</parameter>
							<parameter>
								<parameterid>center</parameterid>
								<name>Center</name>
								<value>
									<horiz>0</horiz>
									<vert>0</vert>
								</value>
							</parameter>
							<parameter>
								<parameterid>centerOffset</parameterid>
								<name>Anchor Point</name>
								<value>
									<horiz>0</horiz>
									<vert>0</vert>
								</value>
							</parameter>
						</effect>
					</filter>
					<sourcetrack>
						<mediatype>video</mediatype>
					</sourcetrack>
					<fielddominance>upper</fielddominance>
				</clipitem>
				<clipitem id="525_0312_01 ">
					<name>525_0312_01</name>
					<duration>329</duration>
					<rate>
						<ntsc>FALSE</ntsc>
						<timebase>25</timebase>
					</rate>
					<in>25</in>
					<out>118</out>
					<start>7722</start>
					<end>7815</end>
					<pixelaspectratio>Square</pixelaspectratio>
					<enabled>TRUE</enabled>
					<anamorphic>FALSE</anamorphic>
					<alphatype>none</alphatype>
					<logginginfo>
						<scene/>
						<shottake/>
						<lognote/>
						<good>FALSE</good>
					</logginginfo>
					<labels>
						<label2/>
					</labels>
					<comments>
						<mastercomment1/>
						<mastercomment2/>
						<mastercomment3/>
						<mastercomment4/>
					</comments>
					<file id="37_g1 ">
						<name>37_g1.mov</name>
						<pathurl>file://localhost/Volumes/Askepott/Final%20Cut%20Pro%20Documents/Color%20Renderfiles/Lam%20v1/37/37_g1.mov</pathurl>
						<rate>
							<timebase>25</timebase>
						</rate>
						<duration>329</duration>
						<timecode>
							<rate>
								<timebase>25</timebase>
							</rate>
							<string>11:40:18:23</string>
							<frame>1050473</frame>
							<displayformat>NDF</displayformat>
							<source>source</source>
							<reel>
								<name>Untitled</name>
							</reel>
						</timecode>
						<media>
							<video>
								<duration>329</duration>
								<samplecharacteristics>
									<width>1920</width>
									<height>1080</height>
								</samplecharacteristics>
							</video>
						</media>
					</file>
					<filter>
						<effect>
							<name>Distort</name>
							<effectid>deformation</effectid>
							<effectcategory>motion</effectcategory>
							<effecttype>motion</effecttype>
							<mediatype>video</mediatype>
							<parameter>
								<parameterid>ulcorner</parameterid>
								<name>Upper Left</name>
								<value>
									<horiz>-0.5</horiz>
									<vert>-0.5</vert>
								</value>
							</parameter>
							<parameter>
								<parameterid>urcorner</parameterid>
								<name>Upper Right</name>
								<value>
									<horiz>0.5</horiz>
									<vert>-0.5</vert>
								</value>
							</parameter>
							<parameter>
								<parameterid>lrcorner</parameterid>
								<name>Lower Right</name>
								<value>
									<horiz>0.5</horiz>
									<vert>0.5</vert>
								</value>
							</parameter>
							<parameter>
								<parameterid>llcorner</parameterid>
								<name>Lower Left</name>
								<value>
									<horiz>-0.5</horiz>
									<vert>0.5</vert>
								</value>
							</parameter>
							<parameter>
								<parameterid>aspect</parameterid>
								<name>Aspect</name>
								<valuemin>-10000</valuemin>
								<valuemax>10000</valuemax>
								<value>0</value>
							</parameter>
						</effect>
					</filter>
					<filter>
						<effect>
							<name>Basic Motion</name>
							<effectid>basic</effectid>
							<effectcategory>motion</effectcategory>
							<effecttype>motion</effecttype>
							<mediatype>video</mediatype>
							<parameter>
								<parameterid>scale</parameterid>
								<name>Scale</name>
								<valuemin>0</valuemin>
								<valuemax>1000</valuemax>
								<value>100</value>
							</parameter>
							<parameter>
								<parameterid>rotation</parameterid>
								<name>Rotation</name>
								<valuemin>-8640</valuemin>
								<valuemax>8640</valuemax>
								<value>0</value>
							</parameter>
							<parameter>
								<parameterid>center</parameterid>
								<name>Center</name>
								<value>
									<horiz>0</horiz>
									<vert>0</vert>
								</value>
							</parameter>
							<parameter>
								<parameterid>centerOffset</parameterid>
								<name>Anchor Point</name>
								<value>
									<horiz>0</horiz>
									<vert>0</vert>
								</value>
							</parameter>
						</effect>
					</filter>
					<sourcetrack>
						<mediatype>video</mediatype>
					</sourcetrack>
					<fielddominance>upper</fielddominance>
				</clipitem>
				<clipitem id="525_0287_01 1">
					<name>525_0287_01</name>
					<duration>264</duration>
					<rate>
						<ntsc>FALSE</ntsc>
						<timebase>25</timebase>
					</rate>
					<in>25</in>
					<out>101</out>
					<start>7815</start>
					<end>7891</end>
					<pixelaspectratio>Square</pixelaspectratio>
					<enabled>TRUE</enabled>
					<anamorphic>FALSE</anamorphic>
					<alphatype>none</alphatype>
					<logginginfo>
						<scene/>
						<shottake/>
						<lognote/>
						<good>FALSE</good>
					</logginginfo>
					<labels>
						<label2/>
					</labels>
					<comments>
						<mastercomment1/>
						<mastercomment2/>
						<mastercomment3/>
						<mastercomment4/>
					</comments>
					<file id="53_g1 ">
						<name>53_g1.mov</name>
						<pathurl>file://localhost/Volumes/Askepott/Final%20Cut%20Pro%20Documents/Color%20Renderfiles/Lam%20v1/53/53_g1.mov</pathurl>
						<rate>
							<timebase>25</timebase>
						</rate>
						<duration>264</duration>
						<timecode>
							<rate>
								<timebase>25</timebase>
							</rate>
							<string>10:45:15:10</string>
							<frame>967885</frame>
							<displayformat>NDF</displayformat>
							<source>source</source>
							<reel>
								<name>Untitled</name>
							</reel>
						</timecode>
						<media>
							<video>
								<duration>264</duration>
								<samplecharacteristics>
									<width>1920</width>
									<height>1080</height>
								</samplecharacteristics>
							</video>
						</media>
					</file>
					<filter>
						<effect>
							<name>Distort</name>
							<effectid>deformation</effectid>
							<effectcategory>motion</effectcategory>
							<effecttype>motion</effecttype>
							<mediatype>video</mediatype>
							<parameter>
								<parameterid>ulcorner</parameterid>
								<name>Upper Left</name>
								<value>
									<horiz>-0.5</horiz>
									<vert>-0.5</vert>
								</value>
							</parameter>
							<parameter>
								<parameterid>urcorner</parameterid>
								<name>Upper Right</name>
								<value>
									<horiz>0.5</horiz>
									<vert>-0.5</vert>
								</value>
							</parameter>
							<parameter>
								<parameterid>lrcorner</parameterid>
								<name>Lower Right</name>
								<value>
									<horiz>0.5</horiz>
									<vert>0.5</vert>
								</value>
							</parameter>
							<parameter>
								<parameterid>llcorner</parameterid>
								<name>Lower Left</name>
								<value>
									<horiz>-0.5</horiz>
									<vert>0.5</vert>
								</value>
							</parameter>
							<parameter>
								<parameterid>aspect</parameterid>
								<name>Aspect</name>
								<valuemin>-10000</valuemin>
								<valuemax>10000</valuemax>
								<value>0</value>
							</parameter>
						</effect>
					</filter>
					<filter>
						<effect>
							<name>Basic Motion</name>
							<effectid>basic</effectid>
							<effectcategory>motion</effectcategory>
							<effecttype>motion</effecttype>
							<mediatype>video</mediatype>
							<parameter>
								<parameterid>scale</parameterid>
								<name>Scale</name>
								<valuemin>0</valuemin>
								<valuemax>1000</valuemax>
								<value>100</value>
							</parameter>
							<parameter>
								<parameterid>rotation</parameterid>
								<name>Rotation</name>
								<valuemin>-8640</valuemin>
								<valuemax>8640</valuemax>
								<value>0</value>
							</parameter>
							<parameter>
								<parameterid>center</parameterid>
								<name>Center</name>
								<value>
									<horiz>0</horiz>
									<vert>0</vert>
								</value>
							</parameter>
							<parameter>
								<parameterid>centerOffset</parameterid>
								<name>Anchor Point</name>
								<value>
									<horiz>0</horiz>
									<vert>0</vert>
								</value>
							</parameter>
						</effect>
					</filter>
					<sourcetrack>
						<mediatype>video</mediatype>
					</sourcetrack>
					<fielddominance>upper</fielddominance>
				</clipitem>
				<clipitem id="525_0261_01 ">
					<name>525_0261_01</name>
					<duration>188</duration>
					<rate>
						<ntsc>FALSE</ntsc>
						<timebase>25</timebase>
					</rate>
					<in>25</in>
					<out>173</out>
					<start>7891</start>
					<end>8039</end>
					<pixelaspectratio>Square</pixelaspectratio>
					<enabled>TRUE</enabled>
					<anamorphic>FALSE</anamorphic>
					<alphatype>none</alphatype>
					<logginginfo>
						<scene/>
						<shottake/>
						<lognote/>
						<good>FALSE</good>
					</logginginfo>
					<labels>
						<label2/>
					</labels>
					<comments>
						<mastercomment1/>
						<mastercomment2/>
						<mastercomment3/>
						<mastercomment4/>
					</comments>
					<file id="56_g1 ">
						<name>56_g1.mov</name>
						<pathurl>file://localhost/Volumes/Askepott/Final%20Cut%20Pro%20Documents/Color%20Renderfiles/Lam%20v1/56/56_g1.mov</pathurl>
						<rate>
							<timebase>25</timebase>
						</rate>
						<duration>188</duration>
						<timecode>
							<rate>
								<timebase>25</timebase>
							</rate>
							<string>10:22:31:06</string>
							<frame>933781</frame>
							<displayformat>NDF</displayformat>
							<source>source</source>
							<reel>
								<name>Untitled</name>
							</reel>
						</timecode>
						<media>
							<video>
								<duration>188</duration>
								<samplecharacteristics>
									<width>1920</width>
									<height>1080</height>
								</samplecharacteristics>
							</video>
						</media>
					</file>
					<filter>
						<effect>
							<name>Distort</name>
							<effectid>deformation</effectid>
							<effectcategory>motion</effectcategory>
							<effecttype>motion</effecttype>
							<mediatype>video</mediatype>
							<parameter>
								<parameterid>ulcorner</parameterid>
								<name>Upper Left</name>
								<value>
									<horiz>-0.5</horiz>
									<vert>-0.5</vert>
								</value>
							</parameter>
							<parameter>
								<parameterid>urcorner</parameterid>
								<name>Upper Right</name>
								<value>
									<horiz>0.5</horiz>
									<vert>-0.5</vert>
								</value>
							</parameter>
							<parameter>
								<parameterid>lrcorner</parameterid>
								<name>Lower Right</name>
								<value>
									<horiz>0.5</horiz>
									<vert>0.5</vert>
								</value>
							</parameter>
							<parameter>
								<parameterid>llcorner</parameterid>
								<name>Lower Left</name>
								<value>
									<horiz>-0.5</horiz>
									<vert>0.5</vert>
								</value>
							</parameter>
							<parameter>
								<parameterid>aspect</parameterid>
								<name>Aspect</name>
								<valuemin>-10000</valuemin>
								<valuemax>10000</valuemax>
								<value>0</value>
							</parameter>
						</effect>
					</filter>
					<filter>
						<effect>
							<name>Basic Motion</name>
							<effectid>basic</effectid>
							<effectcategory>motion</effectcategory>
							<effecttype>motion</effecttype>
							<mediatype>video</mediatype>
							<parameter>
								<parameterid>scale</parameterid>
								<name>Scale</name>
								<valuemin>0</valuemin>
								<valuemax>1000</valuemax>
								<value>100</value>
							</parameter>
							<parameter>
								<parameterid>rotation</parameterid>
								<name>Rotation</name>
								<valuemin>-8640</valuemin>
								<valuemax>8640</valuemax>
								<value>0</value>
							</parameter>
							<parameter>
								<parameterid>center</parameterid>
								<name>Center</name>
								<value>
									<horiz>0</horiz>
									<vert>0</vert>
								</value>
							</parameter>
							<parameter>
								<parameterid>centerOffset</parameterid>
								<name>Anchor Point</name>
								<value>
									<horiz>0</horiz>
									<vert>0</vert>
								</value>
							</parameter>
						</effect>
					</filter>
					<sourcetrack>
						<mediatype>video</mediatype>
					</sourcetrack>
					<fielddominance>upper</fielddominance>
				</clipitem>
				<clipitem id="C0022 ">
					<name>C0022</name>
					<duration>1039</duration>
					<rate>
						<ntsc>FALSE</ntsc>
						<timebase>25</timebase>
					</rate>
					<in>210</in>
					<out>348</out>
					<start>8039</start>
					<end>8177</end>
					<pixelaspectratio>Square</pixelaspectratio>
					<enabled>TRUE</enabled>
					<anamorphic>FALSE</anamorphic>
					<alphatype>none</alphatype>
					<masterclipid>C0022 1</masterclipid>
					<logginginfo>
						<scene/>
						<shottake/>
						<lognote/>
						<good>FALSE</good>
					</logginginfo>
					<labels>
						<label2/>
					</labels>
					<comments>
						<mastercomment1/>
						<mastercomment2/>
						<mastercomment3/>
						<mastercomment4/>
					</comments>
					<file id="C0022 2">
						<name>C0022.mov</name>
						<pathurl>file://localhost/Volumes/Askepott/Prosjekter/DNPR637010_Kra%CC%8Akeklubben_TEM_011212/Video/Mellomstikk/S03E%20D%C3%B8den/DAG%201/C0022.mov</pathurl>
						<rate>
							<timebase>25</timebase>
						</rate>
						<duration>1039</duration>
						<timecode>
							<rate>
								<timebase>25</timebase>
							</rate>
							<string>04:38:55:20</string>
							<frame>418395</frame>
							<displayformat>NDF</displayformat>
							<source>source</source>
							<reel>
								<name>XDCAM 20120508_103430</name>
							</reel>
						</timecode>
						<media>
							<video>
								<duration>1039</duration>
								<samplecharacteristics>
									<width>1920</width>
									<height>1080</height>
								</samplecharacteristics>
							</video>
							<audio>
								<rate>
									<timebase>48000</timebase>
								</rate>
								<trackcount>1</trackcount>
								<channeldescription>8 Channels</channeldescription>
								<samplecharacteristics>
									<depth>24</depth>
								</samplecharacteristics>
							</audio>
						</media>
					</file>
					<sourcetrack>
						<mediatype>video</mediatype>
					</sourcetrack>
					<fielddominance>upper</fielddominance>
				</clipitem>
				<clipitem id="C0020 ">
					<name>C0020</name>
					<duration>1188</duration>
					<rate>
						<ntsc>FALSE</ntsc>
						<timebase>25</timebase>
					</rate>
					<in>509</in>
					<out>671</out>
					<start>8177</start>
					<end>8339</end>
					<pixelaspectratio>Square</pixelaspectratio>
					<enabled>TRUE</enabled>
					<anamorphic>FALSE</anamorphic>
					<alphatype>none</alphatype>
					<masterclipid>C0020 1</masterclipid>
					<logginginfo>
						<scene/>
						<shottake/>
						<lognote/>
						<good>FALSE</good>
					</logginginfo>
					<labels>
						<label2/>
					</labels>
					<comments>
						<mastercomment1/>
						<mastercomment2/>
						<mastercomment3/>
						<mastercomment4/>
					</comments>
					<file id="C0020 2">
						<name>C0020.mov</name>
						<pathurl>file://localhost/Volumes/Askepott/Prosjekter/DNPR637010_Kra%CC%8Akeklubben_TEM_011212/Video/Mellomstikk/S03E%20D%C3%B8den/DAG%201/C0020.mov</pathurl>
						<rate>
							<timebase>25</timebase>
						</rate>
						<duration>1188</duration>
						<timecode>
							<rate>
								<timebase>25</timebase>
							</rate>
							<string>04:37:46:13</string>
							<frame>416663</frame>
							<displayformat>NDF</displayformat>
							<source>source</source>
							<reel>
								<name>XDCAM 20120508_103430</name>
							</reel>
						</timecode>
						<media>
							<video>
								<duration>1188</duration>
								<samplecharacteristics>
									<width>1920</width>
									<height>1080</height>
								</samplecharacteristics>
							</video>
							<audio>
								<rate>
									<timebase>48000</timebase>
								</rate>
								<trackcount>1</trackcount>
								<channeldescription>8 Channels</channeldescription>
								<samplecharacteristics>
									<depth>24</depth>
								</samplecharacteristics>
							</audio>
						</media>
					</file>
					<sourcetrack>
						<mediatype>video</mediatype>
					</sourcetrack>
					<link>
						<linkclipref>C0020 </linkclipref>
						<mediatype>video</mediatype>
						<trackindex>1</trackindex>
						<clipindex>67</clipindex>
					</link>
					<link>
						<linkclipref>C0020 3</linkclipref>
						<mediatype>audio</mediatype>
						<trackindex>1</trackindex>
						<clipindex>84</clipindex>
					</link>
					<link>
						<linkclipref>C0020 4</linkclipref>
						<mediatype>audio</mediatype>
						<trackindex>2</trackindex>
						<clipindex>42</clipindex>
					</link>
					<fielddominance>upper</fielddominance>
				</clipitem>
				<clipitem id="C0022 3">
					<name>C0022</name>
					<duration>1039</duration>
					<rate>
						<ntsc>FALSE</ntsc>
						<timebase>25</timebase>
					</rate>
					<in>512</in>
					<out>575</out>
					<start>8339</start>
					<end>8402</end>
					<pixelaspectratio>Square</pixelaspectratio>
					<enabled>TRUE</enabled>
					<anamorphic>FALSE</anamorphic>
					<alphatype>none</alphatype>
					<masterclipid>C0022 1</masterclipid>
					<logginginfo>
						<scene/>
						<shottake/>
						<lognote/>
						<good>FALSE</good>
					</logginginfo>
					<labels>
						<label2/>
					</labels>
					<comments>
						<mastercomment1/>
						<mastercomment2/>
						<mastercomment3/>
						<mastercomment4/>
					</comments>
					<file id="C0022 2"/>
					<sourcetrack>
						<mediatype>video</mediatype>
					</sourcetrack>
					<link>
						<linkclipref>C0022 3</linkclipref>
						<mediatype>video</mediatype>
						<trackindex>1</trackindex>
						<clipindex>68</clipindex>
					</link>
					<link>
						<linkclipref>C0022 4</linkclipref>
						<mediatype>audio</mediatype>
						<trackindex>1</trackindex>
						<clipindex>85</clipindex>
					</link>
					<link>
						<linkclipref>C0022 5</linkclipref>
						<mediatype>audio</mediatype>
						<trackindex>2</trackindex>
						<clipindex>43</clipindex>
					</link>
					<fielddominance>upper</fielddominance>
				</clipitem>
				<clipitem id="C0020 5">
					<name>C0020</name>
					<duration>1188</duration>
					<rate>
						<ntsc>FALSE</ntsc>
						<timebase>25</timebase>
					</rate>
					<in>740</in>
					<out>931</out>
					<start>8402</start>
					<end>8593</end>
					<pixelaspectratio>Square</pixelaspectratio>
					<enabled>TRUE</enabled>
					<anamorphic>FALSE</anamorphic>
					<alphatype>none</alphatype>
					<masterclipid>C0020 1</masterclipid>
					<logginginfo>
						<scene/>
						<shottake/>
						<lognote/>
						<good>FALSE</good>
					</logginginfo>
					<labels>
						<label2/>
					</labels>
					<comments>
						<mastercomment1/>
						<mastercomment2/>
						<mastercomment3/>
						<mastercomment4/>
					</comments>
					<file id="C0020 2"/>
					<sourcetrack>
						<mediatype>video</mediatype>
					</sourcetrack>
					<link>
						<linkclipref>C0020 5</linkclipref>
						<mediatype>video</mediatype>
						<trackindex>1</trackindex>
						<clipindex>69</clipindex>
					</link>
					<link>
						<linkclipref>C0020 6</linkclipref>
						<mediatype>audio</mediatype>
						<trackindex>1</trackindex>
						<clipindex>86</clipindex>
					</link>
					<link>
						<linkclipref>C0020 7</linkclipref>
						<mediatype>audio</mediatype>
						<trackindex>2</trackindex>
						<clipindex>44</clipindex>
					</link>
					<fielddominance>upper</fielddominance>
				</clipitem>
				<clipitem id="C0022 6">
					<name>C0022</name>
					<duration>1039</duration>
					<rate>
						<ntsc>FALSE</ntsc>
						<timebase>25</timebase>
					</rate>
					<in>760</in>
					<out>881</out>
					<start>8593</start>
					<end>8714</end>
					<pixelaspectratio>Square</pixelaspectratio>
					<enabled>TRUE</enabled>
					<anamorphic>FALSE</anamorphic>
					<alphatype>none</alphatype>
					<masterclipid>C0022 1</masterclipid>
					<logginginfo>
						<scene/>
						<shottake/>
						<lognote/>
						<good>FALSE</good>
					</logginginfo>
					<labels>
						<label2/>
					</labels>
					<comments>
						<mastercomment1/>
						<mastercomment2/>
						<mastercomment3/>
						<mastercomment4/>
					</comments>
					<file id="C0022 2"/>
					<sourcetrack>
						<mediatype>video</mediatype>
					</sourcetrack>
					<link>
						<linkclipref>C0022 6</linkclipref>
						<mediatype>video</mediatype>
						<trackindex>1</trackindex>
						<clipindex>70</clipindex>
					</link>
					<link>
						<linkclipref>C0022 7</linkclipref>
						<mediatype>audio</mediatype>
						<trackindex>1</trackindex>
						<clipindex>87</clipindex>
					</link>
					<link>
						<linkclipref>C0022 8</linkclipref>
						<mediatype>audio</mediatype>
						<trackindex>2</trackindex>
						<clipindex>45</clipindex>
					</link>
					<fielddominance>upper</fielddominance>
				</clipitem>
				<clipitem id="C0027 ">
					<name>C0027</name>
					<duration>554</duration>
					<rate>
						<ntsc>FALSE</ntsc>
						<timebase>25</timebase>
					</rate>
					<in>168</in>
					<out>473</out>
					<start>8714</start>
					<end>9019</end>
					<pixelaspectratio>Square</pixelaspectratio>
					<enabled>TRUE</enabled>
					<anamorphic>FALSE</anamorphic>
					<alphatype>none</alphatype>
					<masterclipid>C0027 1</masterclipid>
					<logginginfo>
						<scene/>
						<shottake/>
						<lognote/>
						<good>FALSE</good>
					</logginginfo>
					<labels>
						<label2/>
					</labels>
					<comments>
						<mastercomment1/>
						<mastercomment2/>
						<mastercomment3/>
						<mastercomment4/>
					</comments>
					<file id="C0027 2">
						<name>C0027.mov</name>
						<pathurl>file://localhost/Volumes/Askepott/Prosjekter/DNPR637010_Kra%CC%8Akeklubben_TEM_011212/Video/Mellomstikk/S03E%20D%C3%B8den/DAG%201/C0027.mov</pathurl>
						<rate>
							<timebase>25</timebase>
						</rate>
						<duration>554</duration>
						<timecode>
							<rate>
								<timebase>25</timebase>
							</rate>
							<string>04:42:11:10</string>
							<frame>423285</frame>
							<displayformat>NDF</displayformat>
							<source>source</source>
							<reel>
								<name>XDCAM 20120508_103430</name>
							</reel>
						</timecode>
						<media>
							<video>
								<duration>554</duration>
								<samplecharacteristics>
									<width>1920</width>
									<height>1080</height>
								</samplecharacteristics>
							</video>
							<audio>
								<rate>
									<timebase>48000</timebase>
								</rate>
								<trackcount>1</trackcount>
								<channeldescription>8 Channels</channeldescription>
								<samplecharacteristics>
									<depth>24</depth>
								</samplecharacteristics>
							</audio>
						</media>
					</file>
					<sourcetrack>
						<mediatype>video</mediatype>
					</sourcetrack>
					<link>
						<linkclipref>C0027 </linkclipref>
						<mediatype>video</mediatype>
						<trackindex>1</trackindex>
						<clipindex>71</clipindex>
					</link>
					<link>
						<linkclipref>C0027 3</linkclipref>
						<mediatype>audio</mediatype>
						<trackindex>1</trackindex>
						<clipindex>88</clipindex>
					</link>
					<link>
						<linkclipref>C0027 4</linkclipref>
						<mediatype>audio</mediatype>
						<trackindex>2</trackindex>
						<clipindex>46</clipindex>
					</link>
					<fielddominance>upper</fielddominance>
				</clipitem>
				<clipitem id="C0030 ">
					<name>C0030</name>
					<duration>1935</duration>
					<rate>
						<ntsc>FALSE</ntsc>
						<timebase>25</timebase>
					</rate>
					<in>423</in>
					<out>621</out>
					<start>9019</start>
					<end>9217</end>
					<pixelaspectratio>Square</pixelaspectratio>
					<enabled>TRUE</enabled>
					<anamorphic>FALSE</anamorphic>
					<alphatype>none</alphatype>
					<masterclipid>C0030 1</masterclipid>
					<logginginfo>
						<scene/>
						<shottake/>
						<lognote/>
						<good>FALSE</good>
					</logginginfo>
					<labels>
						<label2/>
					</labels>
					<comments>
						<mastercomment1/>
						<mastercomment2/>
						<mastercomment3/>
						<mastercomment4/>
					</comments>
					<file id="C0030 2">
						<name>C0030.mov</name>
						<pathurl>file://localhost/Volumes/Askepott/Prosjekter/DNPR637010_Kra%CC%8Akeklubben_TEM_011212/Video/Mellomstikk/S03E%20D%C3%B8den/DAG%201/C0030.mov</pathurl>
						<rate>
							<timebase>25</timebase>
						</rate>
						<duration>1935</duration>
						<timecode>
							<rate>
								<timebase>25</timebase>
							</rate>
							<string>04:44:03:23</string>
							<frame>426098</frame>
							<displayformat>NDF</displayformat>
							<source>source</source>
							<reel>
								<name>XDCAM 20120508_103430</name>
							</reel>
						</timecode>
						<media>
							<video>
								<duration>1935</duration>
								<samplecharacteristics>
									<width>1920</width>
									<height>1080</height>
								</samplecharacteristics>
							</video>
							<audio>
								<rate>
									<timebase>48000</timebase>
								</rate>
								<trackcount>1</trackcount>
								<channeldescription>8 Channels</channeldescription>
								<samplecharacteristics>
									<depth>24</depth>
								</samplecharacteristics>
							</audio>
						</media>
					</file>
					<sourcetrack>
						<mediatype>video</mediatype>
					</sourcetrack>
					<link>
						<linkclipref>C0030 </linkclipref>
						<mediatype>video</mediatype>
						<trackindex>1</trackindex>
						<clipindex>72</clipindex>
					</link>
					<link>
						<linkclipref>C0030 3</linkclipref>
						<mediatype>audio</mediatype>
						<trackindex>1</trackindex>
						<clipindex>89</clipindex>
					</link>
					<link>
						<linkclipref>C0030 4</linkclipref>
						<mediatype>audio</mediatype>
						<trackindex>2</trackindex>
						<clipindex>47</clipindex>
					</link>
					<fielddominance>upper</fielddominance>
				</clipitem>
				<clipitem id="C0043 ">
					<name>C0043</name>
					<duration>1914</duration>
					<rate>
						<ntsc>FALSE</ntsc>
						<timebase>25</timebase>
					</rate>
					<in>946</in>
					<out>1023</out>
					<start>9217</start>
					<end>9294</end>
					<pixelaspectratio>Square</pixelaspectratio>
					<anamorphic>FALSE</anamorphic>
					<alphatype>none</alphatype>
					<masterclipid>C0043 1</masterclipid>
					<logginginfo>
						<scene/>
						<shottake/>
						<lognote/>
						<good>FALSE</good>
					</logginginfo>
					<labels>
						<label2/>
					</labels>
					<comments>
						<mastercomment1/>
						<mastercomment2/>
						<mastercomment3/>
						<mastercomment4/>
					</comments>
					<file id="C0043 2">
						<name>C0043.mov</name>
						<pathurl>file://localhost/Volumes/Askepott/Prosjekter/DNPR637010_Kra%CC%8Akeklubben_TEM_011212/Video/Mellomstikk/S03E%20D%C3%B8den/DAG%201/C0043.mov</pathurl>
						<rate>
							<timebase>25</timebase>
						</rate>
						<duration>1914</duration>
						<timecode>
							<rate>
								<timebase>25</timebase>
							</rate>
							<string>04:54:22:23</string>
							<frame>441573</frame>
							<displayformat>NDF</displayformat>
							<source>source</source>
							<reel>
								<name>XDCAM 20120508_103430</name>
							</reel>
						</timecode>
						<media>
							<video>
								<duration>1914</duration>
								<samplecharacteristics>
									<width>1920</width>
									<height>1080</height>
								</samplecharacteristics>
							</video>
							<audio>
								<rate>
									<timebase>48000</timebase>
								</rate>
								<trackcount>1</trackcount>
								<channeldescription>8 Channels</channeldescription>
								<samplecharacteristics>
									<depth>24</depth>
								</samplecharacteristics>
							</audio>
						</media>
					</file>
					<filter>
						<start>-1</start>
						<end>-1</end>
						<effect>
							<name>Brightness and Contrast (Bezier)</name>
							<effectid>Brightness and Contrast (Bezier)</effectid>
							<effectcategory>Image Control</effectcategory>
							<effecttype>filter</effecttype>
							<mediatype>video</mediatype>
							<parameter>
								<parameterid>brightness</parameterid>
								<name>Brightness</name>
								<valuemin>-100</valuemin>
								<valuemax>100</valuemax>
								<value>4</value>
							</parameter>
							<parameter>
								<parameterid>contrast</parameterid>
								<name>Contrast</name>
								<valuemin>-100</valuemin>
								<valuemax>100</valuemax>
								<value>-30</value>
							</parameter>
						</effect>
					</filter>
					<sourcetrack>
						<mediatype>video</mediatype>
					</sourcetrack>
					<fielddominance>upper</fielddominance>
				</clipitem>
				<clipitem id="C0041 ">
					<name>C0041</name>
					<duration>1624</duration>
					<rate>
						<ntsc>FALSE</ntsc>
						<timebase>25</timebase>
					</rate>
					<in>181</in>
					<out>283</out>
					<start>9294</start>
					<end>9396</end>
					<pixelaspectratio>Square</pixelaspectratio>
					<enabled>TRUE</enabled>
					<anamorphic>FALSE</anamorphic>
					<alphatype>none</alphatype>
					<masterclipid>C0041 1</masterclipid>
					<logginginfo>
						<scene/>
						<shottake/>
						<lognote/>
						<good>FALSE</good>
					</logginginfo>
					<labels>
						<label2/>
					</labels>
					<comments>
						<mastercomment1/>
						<mastercomment2/>
						<mastercomment3/>
						<mastercomment4/>
					</comments>
					<file id="C0041 2">
						<name>C0041.mov</name>
						<pathurl>file://localhost/Volumes/Askepott/Prosjekter/DNPR637010_Kra%CC%8Akeklubben_TEM_011212/Video/Mellomstikk/S03E%20D%C3%B8den/DAG%201/C0041.mov</pathurl>
						<rate>
							<timebase>25</timebase>
						</rate>
						<duration>1624</duration>
						<timecode>
							<rate>
								<timebase>25</timebase>
							</rate>
							<string>04:52:12:00</string>
							<frame>438300</frame>
							<displayformat>NDF</displayformat>
							<source>source</source>
							<reel>
								<name>XDCAM 20120508_103430</name>
							</reel>
						</timecode>
						<media>
							<video>
								<duration>1624</duration>
								<samplecharacteristics>
									<width>1920</width>
									<height>1080</height>
								</samplecharacteristics>
							</video>
							<audio>
								<rate>
									<timebase>48000</timebase>
								</rate>
								<trackcount>1</trackcount>
								<channeldescription>8 Channels</channeldescription>
								<samplecharacteristics>
									<depth>24</depth>
								</samplecharacteristics>
							</audio>
						</media>
					</file>
					<sourcetrack>
						<mediatype>video</mediatype>
					</sourcetrack>
					<link>
						<linkclipref>C0041 </linkclipref>
						<mediatype>video</mediatype>
						<trackindex>1</trackindex>
						<clipindex>74</clipindex>
					</link>
					<link>
						<linkclipref>C0041 3</linkclipref>
						<mediatype>audio</mediatype>
						<trackindex>1</trackindex>
						<clipindex>95</clipindex>
					</link>
					<link>
						<linkclipref>C0041 4</linkclipref>
						<mediatype>audio</mediatype>
						<trackindex>2</trackindex>
						<clipindex>54</clipindex>
					</link>
					<fielddominance>upper</fielddominance>
				</clipitem>
				<clipitem id="C0037 ">
					<name>C0037</name>
					<duration>1788</duration>
					<rate>
						<ntsc>FALSE</ntsc>
						<timebase>25</timebase>
					</rate>
					<in>543</in>
					<out>746</out>
					<start>9396</start>
					<end>9599</end>
					<pixelaspectratio>Square</pixelaspectratio>
					<enabled>TRUE</enabled>
					<anamorphic>FALSE</anamorphic>
					<alphatype>none</alphatype>
					<masterclipid>C0037 1</masterclipid>
					<logginginfo>
						<scene/>
						<shottake/>
						<lognote/>
						<good>FALSE</good>
					</logginginfo>
					<labels>
						<label2/>
					</labels>
					<comments>
						<mastercomment1/>
						<mastercomment2/>
						<mastercomment3/>
						<mastercomment4/>
					</comments>
					<file id="C0037 2">
						<name>C0037.mov</name>
						<pathurl>file://localhost/Volumes/Askepott/Prosjekter/DNPR637010_Kra%CC%8Akeklubben_TEM_011212/Video/Mellomstikk/S03E%20D%C3%B8den/DAG%201/C0037.mov</pathurl>
						<rate>
							<timebase>25</timebase>
						</rate>
						<duration>1788</duration>
						<timecode>
							<rate>
								<timebase>25</timebase>
							</rate>
							<string>04:48:44:16</string>
							<frame>433116</frame>
							<displayformat>NDF</displayformat>
							<source>source</source>
							<reel>
								<name>XDCAM 20120508_103430</name>
							</reel>
						</timecode>
						<media>
							<video>
								<duration>1788</duration>
								<samplecharacteristics>
									<width>1920</width>
									<height>1080</height>
								</samplecharacteristics>
							</video>
							<audio>
								<rate>
									<timebase>48000</timebase>
								</rate>
								<trackcount>1</trackcount>
								<channeldescription>8 Channels</channeldescription>
								<samplecharacteristics>
									<depth>24</depth>
								</samplecharacteristics>
							</audio>
						</media>
					</file>
					<filter>
						<start>-1</start>
						<end>-1</end>
						<effect>
							<name>Brightness and Contrast (Bezier)</name>
							<effectid>Brightness and Contrast (Bezier)</effectid>
							<effectcategory>Image Control</effectcategory>
							<effecttype>filter</effecttype>
							<mediatype>video</mediatype>
							<parameter>
								<parameterid>brightness</parameterid>
								<name>Brightness</name>
								<valuemin>-100</valuemin>
								<valuemax>100</valuemax>
								<value>4</value>
							</parameter>
							<parameter>
								<parameterid>contrast</parameterid>
								<name>Contrast</name>
								<valuemin>-100</valuemin>
								<valuemax>100</valuemax>
								<value>-30</value>
							</parameter>
						</effect>
					</filter>
					<sourcetrack>
						<mediatype>video</mediatype>
					</sourcetrack>
					<link>
						<linkclipref>C0037 </linkclipref>
						<mediatype>video</mediatype>
						<trackindex>1</trackindex>
						<clipindex>75</clipindex>
					</link>
					<link>
						<linkclipref>C0037 3</linkclipref>
						<mediatype>audio</mediatype>
						<trackindex>1</trackindex>
						<clipindex>96</clipindex>
					</link>
					<link>
						<linkclipref>C0037 4</linkclipref>
						<mediatype>audio</mediatype>
						<trackindex>2</trackindex>
						<clipindex>55</clipindex>
					</link>
					<fielddominance>upper</fielddominance>
				</clipitem>
				<clipitem id="C0044 ">
					<name>C0044</name>
					<duration>557</duration>
					<rate>
						<ntsc>FALSE</ntsc>
						<timebase>25</timebase>
					</rate>
					<in>106</in>
					<out>190</out>
					<start>9599</start>
					<end>9683</end>
					<pixelaspectratio>Square</pixelaspectratio>
					<enabled>TRUE</enabled>
					<anamorphic>FALSE</anamorphic>
					<alphatype>none</alphatype>
					<masterclipid>C0044 1</masterclipid>
					<logginginfo>
						<scene/>
						<shottake/>
						<lognote/>
						<good>FALSE</good>
					</logginginfo>
					<labels>
						<label2/>
					</labels>
					<comments>
						<mastercomment1/>
						<mastercomment2/>
						<mastercomment3/>
						<mastercomment4/>
					</comments>
					<file id="C0044 2">
						<name>C0044.mov</name>
						<pathurl>file://localhost/Volumes/Askepott/Prosjekter/DNPR637010_Kra%CC%8Akeklubben_TEM_011212/Video/Mellomstikk/S03E%20D%C3%B8den/DAG%201/C0044.mov</pathurl>
						<rate>
							<timebase>25</timebase>
						</rate>
						<duration>557</duration>
						<timecode>
							<rate>
								<timebase>25</timebase>
							</rate>
							<string>04:55:39:12</string>
							<frame>443487</frame>
							<displayformat>NDF</displayformat>
							<source>source</source>
							<reel>
								<name>XDCAM 20120508_103430</name>
							</reel>
						</timecode>
						<media>
							<video>
								<duration>557</duration>
								<samplecharacteristics>
									<width>1920</width>
									<height>1080</height>
								</samplecharacteristics>
							</video>
							<audio>
								<rate>
									<timebase>48000</timebase>
								</rate>
								<trackcount>1</trackcount>
								<channeldescription>8 Channels</channeldescription>
								<samplecharacteristics>
									<depth>24</depth>
								</samplecharacteristics>
							</audio>
						</media>
					</file>
					<sourcetrack>
						<mediatype>video</mediatype>
					</sourcetrack>
					<fielddominance>upper</fielddominance>
				</clipitem>
				<clipitem id="C0039 ">
					<name>C0039</name>
					<duration>1581</duration>
					<rate>
						<ntsc>FALSE</ntsc>
						<timebase>25</timebase>
					</rate>
					<in>555</in>
					<out>765</out>
					<start>9683</start>
					<end>9893</end>
					<pixelaspectratio>Square</pixelaspectratio>
					<enabled>TRUE</enabled>
					<anamorphic>FALSE</anamorphic>
					<alphatype>none</alphatype>
					<masterclipid>C0039 1</masterclipid>
					<logginginfo>
						<scene/>
						<shottake/>
						<lognote/>
						<good>FALSE</good>
					</logginginfo>
					<labels>
						<label2/>
					</labels>
					<comments>
						<mastercomment1/>
						<mastercomment2/>
						<mastercomment3/>
						<mastercomment4/>
					</comments>
					<file id="C0039 2">
						<name>C0039.mov</name>
						<pathurl>file://localhost/Volumes/Askepott/Prosjekter/DNPR637010_Kra%CC%8Akeklubben_TEM_011212/Video/Mellomstikk/S03E%20D%C3%B8den/DAG%201/C0039.mov</pathurl>
						<rate>
							<timebase>25</timebase>
						</rate>
						<duration>1581</duration>
						<timecode>
							<rate>
								<timebase>25</timebase>
							</rate>
							<string>04:50:56:13</string>
							<frame>436413</frame>
							<displayformat>NDF</displayformat>
							<source>source</source>
							<reel>
								<name>XDCAM 20120508_103430</name>
							</reel>
						</timecode>
						<media>
							<video>
								<duration>1581</duration>
								<samplecharacteristics>
									<width>1920</width>
									<height>1080</height>
								</samplecharacteristics>
							</video>
							<audio>
								<rate>
									<timebase>48000</timebase>
								</rate>
								<trackcount>1</trackcount>
								<channeldescription>8 Channels</channeldescription>
								<samplecharacteristics>
									<depth>24</depth>
								</samplecharacteristics>
							</audio>
						</media>
					</file>
					<sourcetrack>
						<mediatype>video</mediatype>
					</sourcetrack>
					<link>
						<linkclipref>C0039 </linkclipref>
						<mediatype>video</mediatype>
						<trackindex>1</trackindex>
						<clipindex>77</clipindex>
					</link>
					<link>
						<linkclipref>C0039 3</linkclipref>
						<mediatype>audio</mediatype>
						<trackindex>1</trackindex>
						<clipindex>98</clipindex>
					</link>
					<link>
						<linkclipref>C0039 4</linkclipref>
						<mediatype>audio</mediatype>
						<trackindex>2</trackindex>
						<clipindex>57</clipindex>
					</link>
					<fielddominance>upper</fielddominance>
				</clipitem>
				<clipitem id="C0047 ">
					<name>C0047</name>
					<duration>2481</duration>
					<rate>
						<ntsc>FALSE</ntsc>
						<timebase>25</timebase>
					</rate>
					<in>1497</in>
					<out>1598</out>
					<start>9893</start>
					<end>9994</end>
					<pixelaspectratio>Square</pixelaspectratio>
					<enabled>TRUE</enabled>
					<anamorphic>FALSE</anamorphic>
					<alphatype>none</alphatype>
					<masterclipid>C0047 1</masterclipid>
					<logginginfo>
						<scene/>
						<shottake/>
						<lognote/>
						<good>FALSE</good>
					</logginginfo>
					<labels>
						<label2/>
					</labels>
					<comments>
						<mastercomment1/>
						<mastercomment2/>
						<mastercomment3/>
						<mastercomment4/>
					</comments>
					<file id="C0047 2">
						<name>C0047.mov</name>
						<pathurl>file://localhost/Volumes/Askepott/Prosjekter/DNPR637010_Kra%CC%8Akeklubben_TEM_011212/Video/Mellomstikk/S03E%20D%C3%B8den/DAG%201/C0047.mov</pathurl>
						<rate>
							<timebase>25</timebase>
						</rate>
						<duration>2481</duration>
						<timecode>
							<rate>
								<timebase>25</timebase>
							</rate>
							<string>04:57:28:04</string>
							<frame>446204</frame>
							<displayformat>NDF</displayformat>
							<source>source</source>
							<reel>
								<name>XDCAM 20120508_103430</name>
							</reel>
						</timecode>
						<media>
							<video>
								<duration>2481</duration>
								<samplecharacteristics>
									<width>1920</width>
									<height>1080</height>
								</samplecharacteristics>
							</video>
							<audio>
								<rate>
									<timebase>48000</timebase>
								</rate>
								<trackcount>1</trackcount>
								<channeldescription>8 Channels</channeldescription>
								<samplecharacteristics>
									<depth>24</depth>
								</samplecharacteristics>
							</audio>
						</media>
					</file>
					<filter>
						<start>-1</start>
						<end>-1</end>
						<effect>
							<name>Shift Fields</name>
							<effectid>Shift Fields</effectid>
							<effectcategory>Video</effectcategory>
							<effecttype>filter</effecttype>
							<mediatype>video</mediatype>
							<parameter>
								<parameterid>dir</parameterid>
								<name>Shift Direction</name>
								<valuemin>1</valuemin>
								<valuemax>3</valuemax>
								<valuelist>
									<valueentry>
										<name> +1</name>
										<value>1</value>
									</valueentry>
									<valueentry>
										<name>none</name>
										<value>2</value>
									</valueentry>
									<valueentry>
										<name> -1</name>
										<value>3</value>
									</valueentry>
								</valuelist>
								<value>1</value>
							</parameter>
						</effect>
					</filter>
					<filter>
						<start>-1</start>
						<end>-1</end>
						<effect>
							<name>Brightness and Contrast (Bezier)</name>
							<effectid>Brightness and Contrast (Bezier)</effectid>
							<effectcategory>Image Control</effectcategory>
							<effecttype>filter</effecttype>
							<mediatype>video</mediatype>
							<parameter>
								<parameterid>brightness</parameterid>
								<name>Brightness</name>
								<valuemin>-100</valuemin>
								<valuemax>100</valuemax>
								<value>4</value>
							</parameter>
							<parameter>
								<parameterid>contrast</parameterid>
								<name>Contrast</name>
								<valuemin>-100</valuemin>
								<valuemax>100</valuemax>
								<value>-30</value>
							</parameter>
						</effect>
					</filter>
					<sourcetrack>
						<mediatype>video</mediatype>
					</sourcetrack>
					<fielddominance>upper</fielddominance>
					<filter>
						<effect>
							<name>Time Remap</name>
							<effectid>timeremap</effectid>
							<effectcategory>motion</effectcategory>
							<effecttype>motion</effecttype>
							<mediatype>video</mediatype>
							<parameter>
								<parameterid>variablespeed</parameterid>
								<name>variablespeed</name>
								<valuemin>0</valuemin>
								<valuemax>1</valuemax>
								<value>0</value>
							</parameter>
							<parameter>
								<parameterid>mappedduration</parameterid>
								<name>mappedduration</name>
								<value>
									<timecode>
										<rate>
											<timebase>0</timebase>
										</rate>
										<string>0</string>
										<frame>0</frame>
										<displayformat>NDF</displayformat>
									</timecode>
								</value>
							</parameter>
							<parameter>
								<parameterid>speed</parameterid>
								<name>speed</name>
								<valuemin>-10000</valuemin>
								<valuemax>10000</valuemax>
								<value>100</value>
							</parameter>
							<parameter>
								<parameterid>reverse</parameterid>
								<name>reverse</name>
								<value>TRUE</value>
							</parameter>
							<parameter>
								<parameterid>frameblending</parameterid>
								<name>frameblending</name>
								<value>TRUE</value>
							</parameter>
							<parameter>
								<parameterid>graphdict</parameterid>
								<name>graphdict</name>
								<valuemin>0</valuemin>
								<valuemax>2480</valuemax>
								<keyframe>
									<when>0</when>
									<value>2482</value>
									<speedkfstart>TRUE</speedkfstart>
									<speedvirtualkf>TRUE</speedvirtualkf>
								</keyframe>
								<keyframe>
									<when>1497</when>
									<value>984</value>
									<speedkfin>TRUE</speedkfin>
									<speedvirtualkf>TRUE</speedvirtualkf>
								</keyframe>
								<keyframe>
									<when>1598</when>
									<value>883</value>
									<speedkfout>TRUE</speedkfout>
									<speedvirtualkf>TRUE</speedvirtualkf>
								</keyframe>
								<keyframe>
									<when>2481</when>
									<value>1</value>
									<speedkfend>TRUE</speedkfend>
									<speedvirtualkf>TRUE</speedvirtualkf>
								</keyframe>
								<interpolation>
									<name>FCPCurve</name>
								</interpolation>
								<value>983</value>
							</parameter>
						</effect>
					</filter>
				</clipitem>
				<clipitem id="C0042 2">
					<name>C0042</name>
					<duration>1649</duration>
					<rate>
						<ntsc>FALSE</ntsc>
						<timebase>25</timebase>
					</rate>
					<in>894</in>
					<out>1027</out>
					<start>9994</start>
					<end>10127</end>
					<pixelaspectratio>Square</pixelaspectratio>
					<enabled>TRUE</enabled>
					<anamorphic>FALSE</anamorphic>
					<alphatype>none</alphatype>
					<masterclipid>C0042 3</masterclipid>
					<logginginfo>
						<scene/>
						<shottake/>
						<lognote/>
						<good>FALSE</good>
					</logginginfo>
					<labels>
						<label2/>
					</labels>
					<comments>
						<mastercomment1/>
						<mastercomment2/>
						<mastercomment3/>
						<mastercomment4/>
					</comments>
					<file id="C0042 4">
						<name>C0042.mov</name>
						<pathurl>file://localhost/Volumes/Askepott/Prosjekter/DNPR637010_Kra%CC%8Akeklubben_TEM_011212/Video/Mellomstikk/S03E%20D%C3%B8den/DAG%201/C0042.mov</pathurl>
						<rate>
							<timebase>25</timebase>
						</rate>
						<duration>1649</duration>
						<timecode>
							<rate>
								<timebase>25</timebase>
							</rate>
							<string>04:53:16:24</string>
							<frame>439924</frame>
							<displayformat>NDF</displayformat>
							<source>source</source>
							<reel>
								<name>XDCAM 20120508_103430</name>
							</reel>
						</timecode>
						<media>
							<video>
								<duration>1649</duration>
								<samplecharacteristics>
									<width>1920</width>
									<height>1080</height>
								</samplecharacteristics>
							</video>
							<audio>
								<rate>
									<timebase>48000</timebase>
								</rate>
								<trackcount>1</trackcount>
								<channeldescription>8 Channels</channeldescription>
								<samplecharacteristics>
									<depth>24</depth>
								</samplecharacteristics>
							</audio>
						</media>
					</file>
					<sourcetrack>
						<mediatype>video</mediatype>
					</sourcetrack>
					<link>
						<linkclipref>C0042 2</linkclipref>
						<mediatype>video</mediatype>
						<trackindex>1</trackindex>
						<clipindex>79</clipindex>
					</link>
					<link>
						<linkclipref>C0042 5</linkclipref>
						<mediatype>audio</mediatype>
						<trackindex>1</trackindex>
						<clipindex>99</clipindex>
					</link>
					<link>
						<linkclipref>C0042 6</linkclipref>
						<mediatype>audio</mediatype>
						<trackindex>2</trackindex>
						<clipindex>58</clipindex>
					</link>
					<fielddominance>upper</fielddominance>
				</clipitem>
				<clipitem id="C0045 ">
					<name>C0045</name>
					<duration>1743</duration>
					<rate>
						<ntsc>FALSE</ntsc>
						<timebase>25</timebase>
					</rate>
					<in>1283</in>
					<out>1359</out>
					<start>10127</start>
					<end>10203</end>
					<pixelaspectratio>Square</pixelaspectratio>
					<anamorphic>FALSE</anamorphic>
					<alphatype>none</alphatype>
					<masterclipid>C0045 1</masterclipid>
					<logginginfo>
						<scene/>
						<shottake/>
						<lognote/>
						<good>FALSE</good>
					</logginginfo>
					<labels>
						<label2/>
					</labels>
					<comments>
						<mastercomment1/>
						<mastercomment2/>
						<mastercomment3/>
						<mastercomment4/>
					</comments>
					<file id="C0045 2">
						<name>C0045.mov</name>
						<pathurl>file://localhost/Volumes/Askepott/Prosjekter/DNPR637010_Kra%CC%8Akeklubben_TEM_011212/Video/Mellomstikk/S03E%20D%C3%B8den/DAG%201/C0045.mov</pathurl>
						<rate>
							<timebase>25</timebase>
						</rate>
						<duration>1743</duration>
						<timecode>
							<rate>
								<timebase>25</timebase>
							</rate>
							<string>04:56:01:19</string>
							<frame>444044</frame>
							<displayformat>NDF</displayformat>
							<source>source</source>
							<reel>
								<name>XDCAM 20120508_103430</name>
							</reel>
						</timecode>
						<media>
							<video>
								<duration>1743</duration>
								<samplecharacteristics>
									<width>1920</width>
									<height>1080</height>
								</samplecharacteristics>
							</video>
							<audio>
								<rate>
									<timebase>48000</timebase>
								</rate>
								<trackcount>1</trackcount>
								<channeldescription>8 Channels</channeldescription>
								<samplecharacteristics>
									<depth>24</depth>
								</samplecharacteristics>
							</audio>
						</media>
					</file>
					<sourcetrack>
						<mediatype>video</mediatype>
					</sourcetrack>
					<fielddominance>upper</fielddominance>
				</clipitem>
				<clipitem id="C0039 5">
					<name>C0039</name>
					<duration>1581</duration>
					<rate>
						<ntsc>FALSE</ntsc>
						<timebase>25</timebase>
					</rate>
					<in>1073</in>
					<out>1477</out>
					<start>10203</start>
					<end>-1</end>
					<pixelaspectratio>Square</pixelaspectratio>
					<enabled>TRUE</enabled>
					<anamorphic>FALSE</anamorphic>
					<alphatype>none</alphatype>
					<masterclipid>C0039 1</masterclipid>
					<logginginfo>
						<scene/>
						<shottake/>
						<lognote/>
						<good>FALSE</good>
					</logginginfo>
					<labels>
						<label2/>
					</labels>
					<comments>
						<mastercomment1/>
						<mastercomment2/>
						<mastercomment3/>
						<mastercomment4/>
					</comments>
					<file id="C0039 2"/>
					<sourcetrack>
						<mediatype>video</mediatype>
					</sourcetrack>
					<fielddominance>upper</fielddominance>
				</clipitem>
				<transitionitem id="">
					<rate>
						<ntsc>FALSE</ntsc>
						<timebase>25</timebase>
					</rate>
					<start>10592</start>
					<end>10607</end>
					<alignment>center</alignment>
					<effect>
						<name>G Lens Flare Generell OPP</name>
						<effectcategory>Nattress Big Box Of Tricks</effectcategory>
						<effecttype>transition</effecttype>
						<mediatype>video</mediatype>
						<startratio>0</startratio>
						<endratio>1</endratio>
						<reverse>FALSE</reverse>
						<parameter>
							<parameterid>dispvar1</parameterid>
							<name>Display Settings</name>
							<value>string</value>
						</parameter>
						<parameter>
							<parameterid>inputvar1</parameterid>
							<name>Flare Position</name>
							<value>string</value>
						</parameter>
						<parameter>
							<parameterid>theangle</parameterid>
							<name>Transition Direction</name>
							<valuemin>-360</valuemin>
							<valuemax>360</valuemax>
							<value>0</value>
						</parameter>
						<parameter>
							<parameterid>transitionblendduration</parameterid>
							<name>Blend Duration</name>
							<valuemin>0</valuemin>
							<valuemax>100</valuemax>
							<value>50</value>
						</parameter>
						<parameter>
							<parameterid>settingsvar1</parameterid>
							<name>Flare Settings</name>
							<value>string</value>
						</parameter>
						<parameter>
							<parameterid>presets</parameterid>
							<name>Preset Select</name>
							<valuemin>1</valuemin>
							<valuemax>4</valuemax>
							<valuelist>
								<valueentry>
									<name>Custom Controls</name>
									<value>1</value>
								</valueentry>
								<valueentry>
									<name>Other End of the Rainbow</name>
									<value>2</value>
								</valueentry>
								<valueentry>
									<name>Photon</name>
									<value>3</value>
								</valueentry>
								<valueentry>
									<name>Gaudy</name>
									<value>4</value>
								</valueentry>
							</valuelist>
							<value>1</value>
						</parameter>
						<parameter>
							<parameterid>randomevolution</parameterid>
							<name>Randomness Evolution</name>
							<valuemin>0</valuemin>
							<valuemax>1</valuemax>
							<value>0.05</value>
						</parameter>
						<parameter>
							<parameterid>flareaspect</parameterid>
							<name>Aspect</name>
							<valuemin>0.1</valuemin>
							<valuemax>10</valuemax>
							<value>1</value>
						</parameter>
						<parameter>
							<parameterid>flareintensity</parameterid>
							<name>Overall Intensity</name>
							<valuemin>0</valuemin>
							<valuemax>400</valuemax>
							<value>300</value>
						</parameter>
						<parameter>
							<parameterid>therandomseed</parameterid>
							<name>Random Seed</name>
							<valuemin>0</valuemin>
							<valuemax>100</valuemax>
							<value>100</value>
						</parameter>
						<parameter>
							<parameterid>settingsvar2</parameterid>
							<name>   Bloom</name>
							<value>string</value>
						</parameter>
						<parameter>
							<parameterid>bloomon</parameterid>
							<name>Bloom On?</name>
							<value>TRUE</value>
						</parameter>
						<parameter>
							<parameterid>bloomcolour</parameterid>
							<name>Bloom Colour</name>
							<value>
								<alpha>255</alpha>
								<red>218</red>
								<green>224</green>
								<blue>254</blue>
							</value>
						</parameter>
						<parameter>
							<parameterid>bloomcolourfromimage</parameterid>
							<name>Use Image for Bloom Colour?</name>
							<value>FALSE</value>
						</parameter>
						<parameter>
							<parameterid>bloomintensity</parameterid>
							<name>Intensity</name>
							<valuemin>0</valuemin>
							<valuemax>100</valuemax>
							<value>90</value>
						</parameter>
						<parameter>
							<parameterid>bloomradius</parameterid>
							<name>Radius</name>
							<valuemin>0</valuemin>
							<valuemax>200</valuemax>
							<value>45</value>
						</parameter>
						<parameter>
							<parameterid>bloomfalloff</parameterid>
							<name>Fall Off</name>
							<valuemin>0</valuemin>
							<valuemax>100</valuemax>
							<value>75</value>
						</parameter>
						<parameter>
							<parameterid>bloomstarry</parameterid>
							<name>Starry</name>
							<valuemin>0</valuemin>
							<valuemax>100</valuemax>
							<value>10</value>
						</parameter>
						<parameter>
							<parameterid>bloomstarpoints</parameterid>
							<name>Star Points</name>
							<valuemin>0</valuemin>
							<valuemax>100</valuemax>
							<value>7</value>
						</parameter>
						<parameter>
							<parameterid>settingsvar3</parameterid>
							<name>   StarBurst</name>
							<value>string</value>
						</parameter>
						<parameter>
							<parameterid>starburston</parameterid>
							<name>StarBurst On?</name>
							<value>TRUE</value>
						</parameter>
						<parameter>
							<parameterid>starburstcolour</parameterid>
							<name>StarBurst Colour</name>
							<value>
								<alpha>255</alpha>
								<red>254</red>
								<green>224</green>
								<blue>218</blue>
							</value>
						</parameter>
						<parameter>
							<parameterid>starburstintensity</parameterid>
							<name>Intensity</name>
							<valuemin>0</valuemin>
							<valuemax>100</valuemax>
							<value>75</value>
						</parameter>
						<parameter>
							<parameterid>starburstradius</parameterid>
							<name>Radius</name>
							<valuemin>0</valuemin>
							<valuemax>150</valuemax>
							<value>75</value>
						</parameter>
						<parameter>
							<parameterid>starburststarpoints</parameterid>
							<name>Star Points</name>
							<valuemin>0</valuemin>
							<valuemax>200</valuemax>
							<value>90</value>
						</parameter>
						<parameter>
							<parameterid>starcentre</parameterid>
							<name>Centre Size</name>
							<valuemin>0</valuemin>
							<valuemax>100</valuemax>
							<value>75</value>
						</parameter>
						<parameter>
							<parameterid>starfalloff</parameterid>
							<name>Fall Off</name>
							<valuemin>0</valuemin>
							<valuemax>100</valuemax>
							<value>75</value>
						</parameter>
						<parameter>
							<parameterid>starburstrandom</parameterid>
							<name>Randomness</name>
							<valuemin>0</valuemin>
							<valuemax>4</valuemax>
							<value>0.4</value>
						</parameter>
						<parameter>
							<parameterid>settingsvar4</parameterid>
							<name>   Rainbow</name>
							<value>string</value>
						</parameter>
						<parameter>
							<parameterid>rainbowon</parameterid>
							<name>Rainbow On?</name>
							<value>TRUE</value>
						</parameter>
						<parameter>
							<parameterid>rainbowcolors</parameterid>
							<name>Colour Type</name>
							<valuemin>1</valuemin>
							<valuemax>2</valuemax>
							<valuelist>
								<valueentry>
									<name>Rainbow</name>
									<value>1</value>
								</valueentry>
								<valueentry>
									<name>User Colour</name>
									<value>2</value>
								</valueentry>
							</valuelist>
							<value>1</value>
						</parameter>
						<parameter>
							<parameterid>rainbowusercolor</parameterid>
							<name>User Colour</name>
							<value>
								<alpha>255</alpha>
								<red>230</red>
								<green>110</green>
								<blue>22</blue>
							</value>
						</parameter>
						<parameter>
							<parameterid>rainbowposition</parameterid>
							<name>Position</name>
							<valuemin>-200</valuemin>
							<valuemax>200</valuemax>
							<value>100</value>
						</parameter>
						<parameter>
							<parameterid>rainbowintensity</parameterid>
							<name>Intensity</name>
							<valuemin>0</valuemin>
							<valuemax>100</valuemax>
							<value>20</value>
						</parameter>
						<parameter>
							<parameterid>rainbowradius</parameterid>
							<name>Radius</name>
							<valuemin>0</valuemin>
							<valuemax>200</valuemax>
							<value>50</value>
						</parameter>
						<parameter>
							<parameterid>rainbowthickness</parameterid>
							<name>Thickness</name>
							<valuemin>0</valuemin>
							<valuemax>1</valuemax>
							<value>0.15</value>
						</parameter>
						<parameter>
							<parameterid>rainbowsharpness</parameterid>
							<name>Sharpness</name>
							<valuemin>0</valuemin>
							<valuemax>1</valuemax>
							<value>0.65</value>
						</parameter>
						<parameter>
							<parameterid>settingsvar5</parameterid>
							<name>   Spots</name>
							<value>string</value>
						</parameter>
						<parameter>
							<parameterid>spotson</parameterid>
							<name>Spots On?</name>
							<value>TRUE</value>
						</parameter>
						<parameter>
							<parameterid>spotsnumber</parameterid>
							<name>Number</name>
							<valuemin>0</valuemin>
							<valuemax>100</valuemax>
							<value>12</value>
						</parameter>
						<parameter>
							<parameterid>spotsintensity</parameterid>
							<name>Intensity</name>
							<valuemin>0</valuemin>
							<valuemax>100</valuemax>
							<value>80</value>
						</parameter>
						<parameter>
							<parameterid>spotsradius</parameterid>
							<name>Radius</name>
							<valuemin>0</valuemin>
							<valuemax>150</valuemax>
							<value>30</value>
						</parameter>
						<parameter>
							<parameterid>spotsdisky</parameterid>
							<name>Disky</name>
							<valuemin>0</valuemin>
							<valuemax>100</valuemax>
							<value>75</value>
						</parameter>
						<parameter>
							<parameterid>spotsringy</parameterid>
							<name>Ringy</name>
							<valuemin>0</valuemin>
							<valuemax>100</valuemax>
							<value>75</value>
						</parameter>
						<parameter>
							<parameterid>spotsblotty</parameterid>
							<name>Blotty</name>
							<valuemin>0</valuemin>
							<valuemax>100</valuemax>
							<value>75</value>
						</parameter>
						<parameter>
							<parameterid>spotsbloony</parameterid>
							<name>Bloony</name>
							<valuemin>0</valuemin>
							<valuemax>100</valuemax>
							<value>75</value>
						</parameter>
						<parameter>
							<parameterid>spotsvarycolour</parameterid>
							<name>Vary Colour</name>
							<valuemin>0</valuemin>
							<valuemax>100</valuemax>
							<value>31</value>
						</parameter>
						<parameter>
							<parameterid>spotsbasehue</parameterid>
							<name>Base Hue</name>
							<valuemin>0</valuemin>
							<valuemax>100</valuemax>
							<value>72</value>
						</parameter>
						<parameter>
							<parameterid>spotssaturation</parameterid>
							<name>Saturation</name>
							<valuemin>0</valuemin>
							<valuemax>100</valuemax>
							<value>20</value>
						</parameter>
						<parameter>
							<parameterid>copyright</parameterid>
							<name>©www.nattress.com</name>
							<value>string</value>
						</parameter>
					</effect>
				</transitionitem>
				<clipitem id="XDCAM 20120614_094644_C0027 ">
					<name>XDCAM 20120614_094644_C0027</name>
					<duration>858</duration>
					<rate>
						<ntsc>FALSE</ntsc>
						<timebase>25</timebase>
					</rate>
					<in>488</in>
					<out>790</out>
					<start>-1</start>
					<end>-1</end>
					<pixelaspectratio>Square</pixelaspectratio>
					<enabled>TRUE</enabled>
					<anamorphic>FALSE</anamorphic>
					<alphatype>none</alphatype>
					<masterclipid>XDCAM 20120614_094644_C0027 1</masterclipid>
					<logginginfo>
						<scene/>
						<shottake/>
						<lognote/>
						<good>FALSE</good>
					</logginginfo>
					<labels>
						<label2/>
					</labels>
					<comments>
						<mastercomment1/>
						<mastercomment2/>
						<mastercomment3/>
						<mastercomment4/>
					</comments>
					<file id="XDCAM 20120614_094644_C0027 2">
						<name>XDCAM 20120614_094644_C0027.mov</name>
						<pathurl>file://localhost/Volumes/Askepott/Prosjekter/DNPR637010_Kra%CC%8Akeklubben_TEM_011212/Video/Mellomstikk/S03E%20D%C3%B8den/DAG%203/XDCAM%2020120614_094644_C0027.mov</pathurl>
						<rate>
							<timebase>25</timebase>
						</rate>
						<duration>858</duration>
						<timecode>
							<rate>
								<timebase>25</timebase>
							</rate>
							<string>09:37:02:17</string>
							<frame>865567</frame>
							<displayformat>NDF</displayformat>
							<source>source</source>
							<reel>
								<name>XDCAM 20120614_094644</name>
							</reel>
						</timecode>
						<media>
							<video>
								<duration>858</duration>
								<samplecharacteristics>
									<width>1920</width>
									<height>1080</height>
								</samplecharacteristics>
							</video>
							<audio>
								<rate>
									<timebase>48000</timebase>
								</rate>
								<trackcount>1</trackcount>
								<channeldescription>8 Channels</channeldescription>
								<samplecharacteristics>
									<depth>24</depth>
								</samplecharacteristics>
							</audio>
						</media>
					</file>
					<sourcetrack>
						<mediatype>video</mediatype>
					</sourcetrack>
					<fielddominance>upper</fielddominance>
				</clipitem>
				<transitionitem id="1">
					<rate>
						<ntsc>FALSE</ntsc>
						<timebase>25</timebase>
					</rate>
					<start>10879</start>
					<end>10894</end>
					<alignment>center</alignment>
					<effect>
						<name>G Lens Flare Generell OPP</name>
						<effectcategory>Nattress Big Box Of Tricks</effectcategory>
						<effecttype>transition</effecttype>
						<mediatype>video</mediatype>
						<startratio>0</startratio>
						<endratio>1</endratio>
						<reverse>FALSE</reverse>
						<parameter>
							<parameterid>dispvar1</parameterid>
							<name>Display Settings</name>
							<value>string</value>
						</parameter>
						<parameter>
							<parameterid>inputvar1</parameterid>
							<name>Flare Position</name>
							<value>string</value>
						</parameter>
						<parameter>
							<parameterid>theangle</parameterid>
							<name>Transition Direction</name>
							<valuemin>-360</valuemin>
							<valuemax>360</valuemax>
							<value>0</value>
						</parameter>
						<parameter>
							<parameterid>transitionblendduration</parameterid>
							<name>Blend Duration</name>
							<valuemin>0</valuemin>
							<valuemax>100</valuemax>
							<value>50</value>
						</parameter>
						<parameter>
							<parameterid>settingsvar1</parameterid>
							<name>Flare Settings</name>
							<value>string</value>
						</parameter>
						<parameter>
							<parameterid>presets</parameterid>
							<name>Preset Select</name>
							<valuemin>1</valuemin>
							<valuemax>4</valuemax>
							<valuelist>
								<valueentry>
									<name>Custom Controls</name>
									<value>1</value>
								</valueentry>
								<valueentry>
									<name>Other End of the Rainbow</name>
									<value>2</value>
								</valueentry>
								<valueentry>
									<name>Photon</name>
									<value>3</value>
								</valueentry>
								<valueentry>
									<name>Gaudy</name>
									<value>4</value>
								</valueentry>
							</valuelist>
							<value>1</value>
						</parameter>
						<parameter>
							<parameterid>randomevolution</parameterid>
							<name>Randomness Evolution</name>
							<valuemin>0</valuemin>
							<valuemax>1</valuemax>
							<value>0.05</value>
						</parameter>
						<parameter>
							<parameterid>flareaspect</parameterid>
							<name>Aspect</name>
							<valuemin>0.1</valuemin>
							<valuemax>10</valuemax>
							<value>1</value>
						</parameter>
						<parameter>
							<parameterid>flareintensity</parameterid>
							<name>Overall Intensity</name>
							<valuemin>0</valuemin>
							<valuemax>400</valuemax>
							<value>300</value>
						</parameter>
						<parameter>
							<parameterid>therandomseed</parameterid>
							<name>Random Seed</name>
							<valuemin>0</valuemin>
							<valuemax>100</valuemax>
							<value>100</value>
						</parameter>
						<parameter>
							<parameterid>settingsvar2</parameterid>
							<name>   Bloom</name>
							<value>string</value>
						</parameter>
						<parameter>
							<parameterid>bloomon</parameterid>
							<name>Bloom On?</name>
							<value>TRUE</value>
						</parameter>
						<parameter>
							<parameterid>bloomcolour</parameterid>
							<name>Bloom Colour</name>
							<value>
								<alpha>255</alpha>
								<red>218</red>
								<green>224</green>
								<blue>254</blue>
							</value>
						</parameter>
						<parameter>
							<parameterid>bloomcolourfromimage</parameterid>
							<name>Use Image for Bloom Colour?</name>
							<value>FALSE</value>
						</parameter>
						<parameter>
							<parameterid>bloomintensity</parameterid>
							<name>Intensity</name>
							<valuemin>0</valuemin>
							<valuemax>100</valuemax>
							<value>90</value>
						</parameter>
						<parameter>
							<parameterid>bloomradius</parameterid>
							<name>Radius</name>
							<valuemin>0</valuemin>
							<valuemax>200</valuemax>
							<value>45</value>
						</parameter>
						<parameter>
							<parameterid>bloomfalloff</parameterid>
							<name>Fall Off</name>
							<valuemin>0</valuemin>
							<valuemax>100</valuemax>
							<value>75</value>
						</parameter>
						<parameter>
							<parameterid>bloomstarry</parameterid>
							<name>Starry</name>
							<valuemin>0</valuemin>
							<valuemax>100</valuemax>
							<value>10</value>
						</parameter>
						<parameter>
							<parameterid>bloomstarpoints</parameterid>
							<name>Star Points</name>
							<valuemin>0</valuemin>
							<valuemax>100</valuemax>
							<value>7</value>
						</parameter>
						<parameter>
							<parameterid>settingsvar3</parameterid>
							<name>   StarBurst</name>
							<value>string</value>
						</parameter>
						<parameter>
							<parameterid>starburston</parameterid>
							<name>StarBurst On?</name>
							<value>TRUE</value>
						</parameter>
						<parameter>
							<parameterid>starburstcolour</parameterid>
							<name>StarBurst Colour</name>
							<value>
								<alpha>255</alpha>
								<red>254</red>
								<green>224</green>
								<blue>218</blue>
							</value>
						</parameter>
						<parameter>
							<parameterid>starburstintensity</parameterid>
							<name>Intensity</name>
							<valuemin>0</valuemin>
							<valuemax>100</valuemax>
							<value>75</value>
						</parameter>
						<parameter>
							<parameterid>starburstradius</parameterid>
							<name>Radius</name>
							<valuemin>0</valuemin>
							<valuemax>150</valuemax>
							<value>75</value>
						</parameter>
						<parameter>
							<parameterid>starburststarpoints</parameterid>
							<name>Star Points</name>
							<valuemin>0</valuemin>
							<valuemax>200</valuemax>
							<value>90</value>
						</parameter>
						<parameter>
							<parameterid>starcentre</parameterid>
							<name>Centre Size</name>
							<valuemin>0</valuemin>
							<valuemax>100</valuemax>
							<value>75</value>
						</parameter>
						<parameter>
							<parameterid>starfalloff</parameterid>
							<name>Fall Off</name>
							<valuemin>0</valuemin>
							<valuemax>100</valuemax>
							<value>75</value>
						</parameter>
						<parameter>
							<parameterid>starburstrandom</parameterid>
							<name>Randomness</name>
							<valuemin>0</valuemin>
							<valuemax>4</valuemax>
							<value>0.4</value>
						</parameter>
						<parameter>
							<parameterid>settingsvar4</parameterid>
							<name>   Rainbow</name>
							<value>string</value>
						</parameter>
						<parameter>
							<parameterid>rainbowon</parameterid>
							<name>Rainbow On?</name>
							<value>TRUE</value>
						</parameter>
						<parameter>
							<parameterid>rainbowcolors</parameterid>
							<name>Colour Type</name>
							<valuemin>1</valuemin>
							<valuemax>2</valuemax>
							<valuelist>
								<valueentry>
									<name>Rainbow</name>
									<value>1</value>
								</valueentry>
								<valueentry>
									<name>User Colour</name>
									<value>2</value>
								</valueentry>
							</valuelist>
							<value>1</value>
						</parameter>
						<parameter>
							<parameterid>rainbowusercolor</parameterid>
							<name>User Colour</name>
							<value>
								<alpha>255</alpha>
								<red>230</red>
								<green>110</green>
								<blue>22</blue>
							</value>
						</parameter>
						<parameter>
							<parameterid>rainbowposition</parameterid>
							<name>Position</name>
							<valuemin>-200</valuemin>
							<valuemax>200</valuemax>
							<value>100</value>
						</parameter>
						<parameter>
							<parameterid>rainbowintensity</parameterid>
							<name>Intensity</name>
							<valuemin>0</valuemin>
							<valuemax>100</valuemax>
							<value>20</value>
						</parameter>
						<parameter>
							<parameterid>rainbowradius</parameterid>
							<name>Radius</name>
							<valuemin>0</valuemin>
							<valuemax>200</valuemax>
							<value>50</value>
						</parameter>
						<parameter>
							<parameterid>rainbowthickness</parameterid>
							<name>Thickness</name>
							<valuemin>0</valuemin>
							<valuemax>1</valuemax>
							<value>0.15</value>
						</parameter>
						<parameter>
							<parameterid>rainbowsharpness</parameterid>
							<name>Sharpness</name>
							<valuemin>0</valuemin>
							<valuemax>1</valuemax>
							<value>0.65</value>
						</parameter>
						<parameter>
							<parameterid>settingsvar5</parameterid>
							<name>   Spots</name>
							<value>string</value>
						</parameter>
						<parameter>
							<parameterid>spotson</parameterid>
							<name>Spots On?</name>
							<value>TRUE</value>
						</parameter>
						<parameter>
							<parameterid>spotsnumber</parameterid>
							<name>Number</name>
							<valuemin>0</valuemin>
							<valuemax>100</valuemax>
							<value>12</value>
						</parameter>
						<parameter>
							<parameterid>spotsintensity</parameterid>
							<name>Intensity</name>
							<valuemin>0</valuemin>
							<valuemax>100</valuemax>
							<value>80</value>
						</parameter>
						<parameter>
							<parameterid>spotsradius</parameterid>
							<name>Radius</name>
							<valuemin>0</valuemin>
							<valuemax>150</valuemax>
							<value>30</value>
						</parameter>
						<parameter>
							<parameterid>spotsdisky</parameterid>
							<name>Disky</name>
							<valuemin>0</valuemin>
							<valuemax>100</valuemax>
							<value>75</value>
						</parameter>
						<parameter>
							<parameterid>spotsringy</parameterid>
							<name>Ringy</name>
							<valuemin>0</valuemin>
							<valuemax>100</valuemax>
							<value>75</value>
						</parameter>
						<parameter>
							<parameterid>spotsblotty</parameterid>
							<name>Blotty</name>
							<valuemin>0</valuemin>
							<valuemax>100</valuemax>
							<value>75</value>
						</parameter>
						<parameter>
							<parameterid>spotsbloony</parameterid>
							<name>Bloony</name>
							<valuemin>0</valuemin>
							<valuemax>100</valuemax>
							<value>75</value>
						</parameter>
						<parameter>
							<parameterid>spotsvarycolour</parameterid>
							<name>Vary Colour</name>
							<valuemin>0</valuemin>
							<valuemax>100</valuemax>
							<value>31</value>
						</parameter>
						<parameter>
							<parameterid>spotsbasehue</parameterid>
							<name>Base Hue</name>
							<valuemin>0</valuemin>
							<valuemax>100</valuemax>
							<value>72</value>
						</parameter>
						<parameter>
							<parameterid>spotssaturation</parameterid>
							<name>Saturation</name>
							<valuemin>0</valuemin>
							<valuemax>100</valuemax>
							<value>20</value>
						</parameter>
						<parameter>
							<parameterid>copyright</parameterid>
							<name>©www.nattress.com</name>
							<value>string</value>
						</parameter>
					</effect>
				</transitionitem>
				<clipitem id="XDCAM 20120614_094644_C0028 ">
					<name>XDCAM 20120614_094644_C0028</name>
					<duration>2022</duration>
					<rate>
						<ntsc>FALSE</ntsc>
						<timebase>25</timebase>
					</rate>
					<in>42</in>
					<out>399</out>
					<start>-1</start>
					<end>-1</end>
					<pixelaspectratio>Square</pixelaspectratio>
					<enabled>TRUE</enabled>
					<anamorphic>FALSE</anamorphic>
					<alphatype>none</alphatype>
					<masterclipid>XDCAM 20120614_094644_C0028 1</masterclipid>
					<logginginfo>
						<scene/>
						<shottake/>
						<lognote/>
						<good>FALSE</good>
					</logginginfo>
					<labels>
						<label2/>
					</labels>
					<comments>
						<mastercomment1/>
						<mastercomment2/>
						<mastercomment3/>
						<mastercomment4/>
					</comments>
					<file id="XDCAM 20120614_094644_C0028 2">
						<name>XDCAM 20120614_094644_C0028.mov</name>
						<pathurl>file://localhost/Volumes/Askepott/Prosjekter/DNPR637010_Kra%CC%8Akeklubben_TEM_011212/Video/Mellomstikk/S03E%20D%C3%B8den/DAG%203/XDCAM%2020120614_094644_C0028.mov</pathurl>
						<rate>
							<timebase>25</timebase>
						</rate>
						<duration>2022</duration>
						<timecode>
							<rate>
								<timebase>25</timebase>
							</rate>
							<string>09:37:37:00</string>
							<frame>866425</frame>
							<displayformat>NDF</displayformat>
							<source>source</source>
							<reel>
								<name>XDCAM 20120614_094644</name>
							</reel>
						</timecode>
						<media>
							<video>
								<duration>2022</duration>
								<samplecharacteristics>
									<width>1920</width>
									<height>1080</height>
								</samplecharacteristics>
							</video>
							<audio>
								<rate>
									<timebase>48000</timebase>
								</rate>
								<trackcount>1</trackcount>
								<channeldescription>8 Channels</channeldescription>
								<samplecharacteristics>
									<depth>24</depth>
								</samplecharacteristics>
							</audio>
						</media>
					</file>
					<sourcetrack>
						<mediatype>video</mediatype>
					</sourcetrack>
					<fielddominance>upper</fielddominance>
				</clipitem>
				<transitionitem id="2">
					<rate>
						<ntsc>FALSE</ntsc>
						<timebase>25</timebase>
					</rate>
					<start>11221</start>
					<end>11236</end>
					<alignment>center</alignment>
					<effect>
						<name>G Lens Flare Generell OPP</name>
						<effectcategory>Nattress Big Box Of Tricks</effectcategory>
						<effecttype>transition</effecttype>
						<mediatype>video</mediatype>
						<startratio>0</startratio>
						<endratio>1</endratio>
						<reverse>FALSE</reverse>
						<parameter>
							<parameterid>dispvar1</parameterid>
							<name>Display Settings</name>
							<value>string</value>
						</parameter>
						<parameter>
							<parameterid>inputvar1</parameterid>
							<name>Flare Position</name>
							<value>string</value>
						</parameter>
						<parameter>
							<parameterid>theangle</parameterid>
							<name>Transition Direction</name>
							<valuemin>-360</valuemin>
							<valuemax>360</valuemax>
							<value>0</value>
						</parameter>
						<parameter>
							<parameterid>transitionblendduration</parameterid>
							<name>Blend Duration</name>
							<valuemin>0</valuemin>
							<valuemax>100</valuemax>
							<value>50</value>
						</parameter>
						<parameter>
							<parameterid>settingsvar1</parameterid>
							<name>Flare Settings</name>
							<value>string</value>
						</parameter>
						<parameter>
							<parameterid>presets</parameterid>
							<name>Preset Select</name>
							<valuemin>1</valuemin>
							<valuemax>4</valuemax>
							<valuelist>
								<valueentry>
									<name>Custom Controls</name>
									<value>1</value>
								</valueentry>
								<valueentry>
									<name>Other End of the Rainbow</name>
									<value>2</value>
								</valueentry>
								<valueentry>
									<name>Photon</name>
									<value>3</value>
								</valueentry>
								<valueentry>
									<name>Gaudy</name>
									<value>4</value>
								</valueentry>
							</valuelist>
							<value>1</value>
						</parameter>
						<parameter>
							<parameterid>randomevolution</parameterid>
							<name>Randomness Evolution</name>
							<valuemin>0</valuemin>
							<valuemax>1</valuemax>
							<value>0.05</value>
						</parameter>
						<parameter>
							<parameterid>flareaspect</parameterid>
							<name>Aspect</name>
							<valuemin>0.1</valuemin>
							<valuemax>10</valuemax>
							<value>1</value>
						</parameter>
						<parameter>
							<parameterid>flareintensity</parameterid>
							<name>Overall Intensity</name>
							<valuemin>0</valuemin>
							<valuemax>400</valuemax>
							<value>300</value>
						</parameter>
						<parameter>
							<parameterid>therandomseed</parameterid>
							<name>Random Seed</name>
							<valuemin>0</valuemin>
							<valuemax>100</valuemax>
							<value>100</value>
						</parameter>
						<parameter>
							<parameterid>settingsvar2</parameterid>
							<name>   Bloom</name>
							<value>string</value>
						</parameter>
						<parameter>
							<parameterid>bloomon</parameterid>
							<name>Bloom On?</name>
							<value>TRUE</value>
						</parameter>
						<parameter>
							<parameterid>bloomcolour</parameterid>
							<name>Bloom Colour</name>
							<value>
								<alpha>255</alpha>
								<red>218</red>
								<green>224</green>
								<blue>254</blue>
							</value>
						</parameter>
						<parameter>
							<parameterid>bloomcolourfromimage</parameterid>
							<name>Use Image for Bloom Colour?</name>
							<value>FALSE</value>
						</parameter>
						<parameter>
							<parameterid>bloomintensity</parameterid>
							<name>Intensity</name>
							<valuemin>0</valuemin>
							<valuemax>100</valuemax>
							<value>90</value>
						</parameter>
						<parameter>
							<parameterid>bloomradius</parameterid>
							<name>Radius</name>
							<valuemin>0</valuemin>
							<valuemax>200</valuemax>
							<value>45</value>
						</parameter>
						<parameter>
							<parameterid>bloomfalloff</parameterid>
							<name>Fall Off</name>
							<valuemin>0</valuemin>
							<valuemax>100</valuemax>
							<value>75</value>
						</parameter>
						<parameter>
							<parameterid>bloomstarry</parameterid>
							<name>Starry</name>
							<valuemin>0</valuemin>
							<valuemax>100</valuemax>
							<value>10</value>
						</parameter>
						<parameter>
							<parameterid>bloomstarpoints</parameterid>
							<name>Star Points</name>
							<valuemin>0</valuemin>
							<valuemax>100</valuemax>
							<value>7</value>
						</parameter>
						<parameter>
							<parameterid>settingsvar3</parameterid>
							<name>   StarBurst</name>
							<value>string</value>
						</parameter>
						<parameter>
							<parameterid>starburston</parameterid>
							<name>StarBurst On?</name>
							<value>TRUE</value>
						</parameter>
						<parameter>
							<parameterid>starburstcolour</parameterid>
							<name>StarBurst Colour</name>
							<value>
								<alpha>255</alpha>
								<red>254</red>
								<green>224</green>
								<blue>218</blue>
							</value>
						</parameter>
						<parameter>
							<parameterid>starburstintensity</parameterid>
							<name>Intensity</name>
							<valuemin>0</valuemin>
							<valuemax>100</valuemax>
							<value>75</value>
						</parameter>
						<parameter>
							<parameterid>starburstradius</parameterid>
							<name>Radius</name>
							<valuemin>0</valuemin>
							<valuemax>150</valuemax>
							<value>75</value>
						</parameter>
						<parameter>
							<parameterid>starburststarpoints</parameterid>
							<name>Star Points</name>
							<valuemin>0</valuemin>
							<valuemax>200</valuemax>
							<value>90</value>
						</parameter>
						<parameter>
							<parameterid>starcentre</parameterid>
							<name>Centre Size</name>
							<valuemin>0</valuemin>
							<valuemax>100</valuemax>
							<value>75</value>
						</parameter>
						<parameter>
							<parameterid>starfalloff</parameterid>
							<name>Fall Off</name>
							<valuemin>0</valuemin>
							<valuemax>100</valuemax>
							<value>75</value>
						</parameter>
						<parameter>
							<parameterid>starburstrandom</parameterid>
							<name>Randomness</name>
							<valuemin>0</valuemin>
							<valuemax>4</valuemax>
							<value>0.4</value>
						</parameter>
						<parameter>
							<parameterid>settingsvar4</parameterid>
							<name>   Rainbow</name>
							<value>string</value>
						</parameter>
						<parameter>
							<parameterid>rainbowon</parameterid>
							<name>Rainbow On?</name>
							<value>TRUE</value>
						</parameter>
						<parameter>
							<parameterid>rainbowcolors</parameterid>
							<name>Colour Type</name>
							<valuemin>1</valuemin>
							<valuemax>2</valuemax>
							<valuelist>
								<valueentry>
									<name>Rainbow</name>
									<value>1</value>
								</valueentry>
								<valueentry>
									<name>User Colour</name>
									<value>2</value>
								</valueentry>
							</valuelist>
							<value>1</value>
						</parameter>
						<parameter>
							<parameterid>rainbowusercolor</parameterid>
							<name>User Colour</name>
							<value>
								<alpha>255</alpha>
								<red>230</red>
								<green>110</green>
								<blue>22</blue>
							</value>
						</parameter>
						<parameter>
							<parameterid>rainbowposition</parameterid>
							<name>Position</name>
							<valuemin>-200</valuemin>
							<valuemax>200</valuemax>
							<value>100</value>
						</parameter>
						<parameter>
							<parameterid>rainbowintensity</parameterid>
							<name>Intensity</name>
							<valuemin>0</valuemin>
							<valuemax>100</valuemax>
							<value>20</value>
						</parameter>
						<parameter>
							<parameterid>rainbowradius</parameterid>
							<name>Radius</name>
							<valuemin>0</valuemin>
							<valuemax>200</valuemax>
							<value>50</value>
						</parameter>
						<parameter>
							<parameterid>rainbowthickness</parameterid>
							<name>Thickness</name>
							<valuemin>0</valuemin>
							<valuemax>1</valuemax>
							<value>0.15</value>
						</parameter>
						<parameter>
							<parameterid>rainbowsharpness</parameterid>
							<name>Sharpness</name>
							<valuemin>0</valuemin>
							<valuemax>1</valuemax>
							<value>0.65</value>
						</parameter>
						<parameter>
							<parameterid>settingsvar5</parameterid>
							<name>   Spots</name>
							<value>string</value>
						</parameter>
						<parameter>
							<parameterid>spotson</parameterid>
							<name>Spots On?</name>
							<value>TRUE</value>
						</parameter>
						<parameter>
							<parameterid>spotsnumber</parameterid>
							<name>Number</name>
							<valuemin>0</valuemin>
							<valuemax>100</valuemax>
							<value>12</value>
						</parameter>
						<parameter>
							<parameterid>spotsintensity</parameterid>
							<name>Intensity</name>
							<valuemin>0</valuemin>
							<valuemax>100</valuemax>
							<value>80</value>
						</parameter>
						<parameter>
							<parameterid>spotsradius</parameterid>
							<name>Radius</name>
							<valuemin>0</valuemin>
							<valuemax>150</valuemax>
							<value>30</value>
						</parameter>
						<parameter>
							<parameterid>spotsdisky</parameterid>
							<name>Disky</name>
							<valuemin>0</valuemin>
							<valuemax>100</valuemax>
							<value>75</value>
						</parameter>
						<parameter>
							<parameterid>spotsringy</parameterid>
							<name>Ringy</name>
							<valuemin>0</valuemin>
							<valuemax>100</valuemax>
							<value>75</value>
						</parameter>
						<parameter>
							<parameterid>spotsblotty</parameterid>
							<name>Blotty</name>
							<valuemin>0</valuemin>
							<valuemax>100</valuemax>
							<value>75</value>
						</parameter>
						<parameter>
							<parameterid>spotsbloony</parameterid>
							<name>Bloony</name>
							<valuemin>0</valuemin>
							<valuemax>100</valuemax>
							<value>75</value>
						</parameter>
						<parameter>
							<parameterid>spotsvarycolour</parameterid>
							<name>Vary Colour</name>
							<valuemin>0</valuemin>
							<valuemax>100</valuemax>
							<value>31</value>
						</parameter>
						<parameter>
							<parameterid>spotsbasehue</parameterid>
							<name>Base Hue</name>
							<valuemin>0</valuemin>
							<valuemax>100</valuemax>
							<value>72</value>
						</parameter>
						<parameter>
							<parameterid>spotssaturation</parameterid>
							<name>Saturation</name>
							<valuemin>0</valuemin>
							<valuemax>100</valuemax>
							<value>20</value>
						</parameter>
						<parameter>
							<parameterid>copyright</parameterid>
							<name>©www.nattress.com</name>
							<value>string</value>
						</parameter>
					</effect>
				</transitionitem>
				<clipitem id="XDCAM 20120614_094644_C0028 3">
					<name>XDCAM 20120614_094644_C0028</name>
					<duration>2022</duration>
					<rate>
						<ntsc>FALSE</ntsc>
						<timebase>25</timebase>
					</rate>
					<in>803</in>
					<out>1076</out>
					<start>-1</start>
					<end>11494</end>
					<pixelaspectratio>Square</pixelaspectratio>
					<enabled>TRUE</enabled>
					<anamorphic>FALSE</anamorphic>
					<alphatype>none</alphatype>
					<masterclipid>XDCAM 20120614_094644_C0028 1</masterclipid>
					<logginginfo>
						<scene/>
						<shottake/>
						<lognote/>
						<good>FALSE</good>
					</logginginfo>
					<labels>
						<label2/>
					</labels>
					<comments>
						<mastercomment1/>
						<mastercomment2/>
						<mastercomment3/>
						<mastercomment4/>
					</comments>
					<file id="XDCAM 20120614_094644_C0028 2"/>
					<sourcetrack>
						<mediatype>video</mediatype>
					</sourcetrack>
					<fielddominance>upper</fielddominance>
				</clipitem>
				<clipitem id="XDCAM 20120614_094644_C0028 4">
					<name>XDCAM 20120614_094644_C0028</name>
					<duration>2022</duration>
					<rate>
						<ntsc>FALSE</ntsc>
						<timebase>25</timebase>
					</rate>
					<in>1360</in>
					<out>1700</out>
					<start>11494</start>
					<end>11834</end>
					<pixelaspectratio>Square</pixelaspectratio>
					<enabled>TRUE</enabled>
					<anamorphic>FALSE</anamorphic>
					<alphatype>none</alphatype>
					<masterclipid>XDCAM 20120614_094644_C0028 1</masterclipid>
					<logginginfo>
						<scene/>
						<shottake/>
						<lognote/>
						<good>FALSE</good>
					</logginginfo>
					<labels>
						<label2/>
					</labels>
					<comments>
						<mastercomment1/>
						<mastercomment2/>
						<mastercomment3/>
						<mastercomment4/>
					</comments>
					<file id="XDCAM 20120614_094644_C0028 2"/>
					<sourcetrack>
						<mediatype>video</mediatype>
					</sourcetrack>
					<link>
						<linkclipref>XDCAM 20120614_094644_C0028 4</linkclipref>
						<mediatype>video</mediatype>
						<trackindex>1</trackindex>
						<clipindex>88</clipindex>
					</link>
					<link>
						<linkclipref>XDCAM 20120614_094644_C0028 5</linkclipref>
						<mediatype>audio</mediatype>
						<trackindex>1</trackindex>
						<clipindex>106</clipindex>
					</link>
					<link>
						<linkclipref>XDCAM 20120614_094644_C0028 6</linkclipref>
						<mediatype>audio</mediatype>
						<trackindex>2</trackindex>
						<clipindex>63</clipindex>
					</link>
					<fielddominance>upper</fielddominance>
				</clipitem>
				<clipitem id="XDCAM 20120614_094644_C0029 ">
					<name>XDCAM 20120614_094644_C0029</name>
					<duration>580</duration>
					<rate>
						<ntsc>FALSE</ntsc>
						<timebase>25</timebase>
					</rate>
					<in>432</in>
					<out>536</out>
					<start>11834</start>
					<end>-1</end>
					<pixelaspectratio>Square</pixelaspectratio>
					<enabled>TRUE</enabled>
					<anamorphic>FALSE</anamorphic>
					<alphatype>none</alphatype>
					<masterclipid>XDCAM 20120614_094644_C0029 1</masterclipid>
					<logginginfo>
						<scene/>
						<shottake/>
						<lognote/>
						<good>FALSE</good>
					</logginginfo>
					<labels>
						<label2/>
					</labels>
					<comments>
						<mastercomment1/>
						<mastercomment2/>
						<mastercomment3/>
						<mastercomment4/>
					</comments>
					<file id="XDCAM 20120614_094644_C0029 2">
						<name>XDCAM 20120614_094644_C0029.mov</name>
						<pathurl>file://localhost/Volumes/Askepott/Prosjekter/DNPR637010_Kra%CC%8Akeklubben_TEM_011212/Video/Mellomstikk/S03E%20D%C3%B8den/DAG%203/XDCAM%2020120614_094644_C0029.mov</pathurl>
						<rate>
							<timebase>25</timebase>
						</rate>
						<duration>580</duration>
						<timecode>
							<rate>
								<timebase>25</timebase>
							</rate>
							<string>09:38:57:22</string>
							<frame>868447</frame>
							<displayformat>NDF</displayformat>
							<source>source</source>
							<reel>
								<name>XDCAM 20120614_094644</name>
							</reel>
						</timecode>
						<media>
							<video>
								<duration>580</duration>
								<samplecharacteristics>
									<width>1920</width>
									<height>1080</height>
								</samplecharacteristics>
							</video>
							<audio>
								<rate>
									<timebase>48000</timebase>
								</rate>
								<trackcount>1</trackcount>
								<channeldescription>8 Channels</channeldescription>
								<samplecharacteristics>
									<depth>24</depth>
								</samplecharacteristics>
							</audio>
						</media>
					</file>
					<sourcetrack>
						<mediatype>video</mediatype>
					</sourcetrack>
					<link>
						<linkclipref>XDCAM 20120614_094644_C0029 </linkclipref>
						<mediatype>video</mediatype>
						<trackindex>1</trackindex>
						<clipindex>89</clipindex>
					</link>
					<link>
						<linkclipref>XDCAM 20120614_094644_C0029 3</linkclipref>
						<mediatype>audio</mediatype>
						<trackindex>1</trackindex>
						<clipindex>112</clipindex>
					</link>
					<link>
						<linkclipref>XDCAM 20120614_094644_C0029 4</linkclipref>
						<mediatype>audio</mediatype>
						<trackindex>2</trackindex>
						<clipindex>64</clipindex>
					</link>
					<fielddominance>upper</fielddominance>
				</clipitem>
				<transitionitem id="3">
					<rate>
						<ntsc>FALSE</ntsc>
						<timebase>25</timebase>
					</rate>
					<start>11923</start>
					<end>11938</end>
					<alignment>center</alignment>
					<effect>
						<name>G Lens Flare Generell OPP</name>
						<effectcategory>Nattress Big Box Of Tricks</effectcategory>
						<effecttype>transition</effecttype>
						<mediatype>video</mediatype>
						<startratio>0</startratio>
						<endratio>1</endratio>
						<reverse>FALSE</reverse>
						<parameter>
							<parameterid>dispvar1</parameterid>
							<name>Display Settings</name>
							<value>string</value>
						</parameter>
						<parameter>
							<parameterid>inputvar1</parameterid>
							<name>Flare Position</name>
							<value>string</value>
						</parameter>
						<parameter>
							<parameterid>theangle</parameterid>
							<name>Transition Direction</name>
							<valuemin>-360</valuemin>
							<valuemax>360</valuemax>
							<value>0</value>
						</parameter>
						<parameter>
							<parameterid>transitionblendduration</parameterid>
							<name>Blend Duration</name>
							<valuemin>0</valuemin>
							<valuemax>100</valuemax>
							<value>50</value>
						</parameter>
						<parameter>
							<parameterid>settingsvar1</parameterid>
							<name>Flare Settings</name>
							<value>string</value>
						</parameter>
						<parameter>
							<parameterid>presets</parameterid>
							<name>Preset Select</name>
							<valuemin>1</valuemin>
							<valuemax>4</valuemax>
							<valuelist>
								<valueentry>
									<name>Custom Controls</name>
									<value>1</value>
								</valueentry>
								<valueentry>
									<name>Other End of the Rainbow</name>
									<value>2</value>
								</valueentry>
								<valueentry>
									<name>Photon</name>
									<value>3</value>
								</valueentry>
								<valueentry>
									<name>Gaudy</name>
									<value>4</value>
								</valueentry>
							</valuelist>
							<value>1</value>
						</parameter>
						<parameter>
							<parameterid>randomevolution</parameterid>
							<name>Randomness Evolution</name>
							<valuemin>0</valuemin>
							<valuemax>1</valuemax>
							<value>0.05</value>
						</parameter>
						<parameter>
							<parameterid>flareaspect</parameterid>
							<name>Aspect</name>
							<valuemin>0.1</valuemin>
							<valuemax>10</valuemax>
							<value>1</value>
						</parameter>
						<parameter>
							<parameterid>flareintensity</parameterid>
							<name>Overall Intensity</name>
							<valuemin>0</valuemin>
							<valuemax>400</valuemax>
							<value>300</value>
						</parameter>
						<parameter>
							<parameterid>therandomseed</parameterid>
							<name>Random Seed</name>
							<valuemin>0</valuemin>
							<valuemax>100</valuemax>
							<value>100</value>
						</parameter>
						<parameter>
							<parameterid>settingsvar2</parameterid>
							<name>   Bloom</name>
							<value>string</value>
						</parameter>
						<parameter>
							<parameterid>bloomon</parameterid>
							<name>Bloom On?</name>
							<value>TRUE</value>
						</parameter>
						<parameter>
							<parameterid>bloomcolour</parameterid>
							<name>Bloom Colour</name>
							<value>
								<alpha>255</alpha>
								<red>218</red>
								<green>224</green>
								<blue>254</blue>
							</value>
						</parameter>
						<parameter>
							<parameterid>bloomcolourfromimage</parameterid>
							<name>Use Image for Bloom Colour?</name>
							<value>FALSE</value>
						</parameter>
						<parameter>
							<parameterid>bloomintensity</parameterid>
							<name>Intensity</name>
							<valuemin>0</valuemin>
							<valuemax>100</valuemax>
							<value>90</value>
						</parameter>
						<parameter>
							<parameterid>bloomradius</parameterid>
							<name>Radius</name>
							<valuemin>0</valuemin>
							<valuemax>200</valuemax>
							<value>45</value>
						</parameter>
						<parameter>
							<parameterid>bloomfalloff</parameterid>
							<name>Fall Off</name>
							<valuemin>0</valuemin>
							<valuemax>100</valuemax>
							<value>75</value>
						</parameter>
						<parameter>
							<parameterid>bloomstarry</parameterid>
							<name>Starry</name>
							<valuemin>0</valuemin>
							<valuemax>100</valuemax>
							<value>10</value>
						</parameter>
						<parameter>
							<parameterid>bloomstarpoints</parameterid>
							<name>Star Points</name>
							<valuemin>0</valuemin>
							<valuemax>100</valuemax>
							<value>7</value>
						</parameter>
						<parameter>
							<parameterid>settingsvar3</parameterid>
							<name>   StarBurst</name>
							<value>string</value>
						</parameter>
						<parameter>
							<parameterid>starburston</parameterid>
							<name>StarBurst On?</name>
							<value>TRUE</value>
						</parameter>
						<parameter>
							<parameterid>starburstcolour</parameterid>
							<name>StarBurst Colour</name>
							<value>
								<alpha>255</alpha>
								<red>254</red>
								<green>224</green>
								<blue>218</blue>
							</value>
						</parameter>
						<parameter>
							<parameterid>starburstintensity</parameterid>
							<name>Intensity</name>
							<valuemin>0</valuemin>
							<valuemax>100</valuemax>
							<value>75</value>
						</parameter>
						<parameter>
							<parameterid>starburstradius</parameterid>
							<name>Radius</name>
							<valuemin>0</valuemin>
							<valuemax>150</valuemax>
							<value>75</value>
						</parameter>
						<parameter>
							<parameterid>starburststarpoints</parameterid>
							<name>Star Points</name>
							<valuemin>0</valuemin>
							<valuemax>200</valuemax>
							<value>90</value>
						</parameter>
						<parameter>
							<parameterid>starcentre</parameterid>
							<name>Centre Size</name>
							<valuemin>0</valuemin>
							<valuemax>100</valuemax>
							<value>75</value>
						</parameter>
						<parameter>
							<parameterid>starfalloff</parameterid>
							<name>Fall Off</name>
							<valuemin>0</valuemin>
							<valuemax>100</valuemax>
							<value>75</value>
						</parameter>
						<parameter>
							<parameterid>starburstrandom</parameterid>
							<name>Randomness</name>
							<valuemin>0</valuemin>
							<valuemax>4</valuemax>
							<value>0.4</value>
						</parameter>
						<parameter>
							<parameterid>settingsvar4</parameterid>
							<name>   Rainbow</name>
							<value>string</value>
						</parameter>
						<parameter>
							<parameterid>rainbowon</parameterid>
							<name>Rainbow On?</name>
							<value>TRUE</value>
						</parameter>
						<parameter>
							<parameterid>rainbowcolors</parameterid>
							<name>Colour Type</name>
							<valuemin>1</valuemin>
							<valuemax>2</valuemax>
							<valuelist>
								<valueentry>
									<name>Rainbow</name>
									<value>1</value>
								</valueentry>
								<valueentry>
									<name>User Colour</name>
									<value>2</value>
								</valueentry>
							</valuelist>
							<value>1</value>
						</parameter>
						<parameter>
							<parameterid>rainbowusercolor</parameterid>
							<name>User Colour</name>
							<value>
								<alpha>255</alpha>
								<red>230</red>
								<green>110</green>
								<blue>22</blue>
							</value>
						</parameter>
						<parameter>
							<parameterid>rainbowposition</parameterid>
							<name>Position</name>
							<valuemin>-200</valuemin>
							<valuemax>200</valuemax>
							<value>100</value>
						</parameter>
						<parameter>
							<parameterid>rainbowintensity</parameterid>
							<name>Intensity</name>
							<valuemin>0</valuemin>
							<valuemax>100</valuemax>
							<value>20</value>
						</parameter>
						<parameter>
							<parameterid>rainbowradius</parameterid>
							<name>Radius</name>
							<valuemin>0</valuemin>
							<valuemax>200</valuemax>
							<value>50</value>
						</parameter>
						<parameter>
							<parameterid>rainbowthickness</parameterid>
							<name>Thickness</name>
							<valuemin>0</valuemin>
							<valuemax>1</valuemax>
							<value>0.15</value>
						</parameter>
						<parameter>
							<parameterid>rainbowsharpness</parameterid>
							<name>Sharpness</name>
							<valuemin>0</valuemin>
							<valuemax>1</valuemax>
							<value>0.65</value>
						</parameter>
						<parameter>
							<parameterid>settingsvar5</parameterid>
							<name>   Spots</name>
							<value>string</value>
						</parameter>
						<parameter>
							<parameterid>spotson</parameterid>
							<name>Spots On?</name>
							<value>TRUE</value>
						</parameter>
						<parameter>
							<parameterid>spotsnumber</parameterid>
							<name>Number</name>
							<valuemin>0</valuemin>
							<valuemax>100</valuemax>
							<value>12</value>
						</parameter>
						<parameter>
							<parameterid>spotsintensity</parameterid>
							<name>Intensity</name>
							<valuemin>0</valuemin>
							<valuemax>100</valuemax>
							<value>80</value>
						</parameter>
						<parameter>
							<parameterid>spotsradius</parameterid>
							<name>Radius</name>
							<valuemin>0</valuemin>
							<valuemax>150</valuemax>
							<value>30</value>
						</parameter>
						<parameter>
							<parameterid>spotsdisky</parameterid>
							<name>Disky</name>
							<valuemin>0</valuemin>
							<valuemax>100</valuemax>
							<value>75</value>
						</parameter>
						<parameter>
							<parameterid>spotsringy</parameterid>
							<name>Ringy</name>
							<valuemin>0</valuemin>
							<valuemax>100</valuemax>
							<value>75</value>
						</parameter>
						<parameter>
							<parameterid>spotsblotty</parameterid>
							<name>Blotty</name>
							<valuemin>0</valuemin>
							<valuemax>100</valuemax>
							<value>75</value>
						</parameter>
						<parameter>
							<parameterid>spotsbloony</parameterid>
							<name>Bloony</name>
							<valuemin>0</valuemin>
							<valuemax>100</valuemax>
							<value>75</value>
						</parameter>
						<parameter>
							<parameterid>spotsvarycolour</parameterid>
							<name>Vary Colour</name>
							<valuemin>0</valuemin>
							<valuemax>100</valuemax>
							<value>31</value>
						</parameter>
						<parameter>
							<parameterid>spotsbasehue</parameterid>
							<name>Base Hue</name>
							<valuemin>0</valuemin>
							<valuemax>100</valuemax>
							<value>72</value>
						</parameter>
						<parameter>
							<parameterid>spotssaturation</parameterid>
							<name>Saturation</name>
							<valuemin>0</valuemin>
							<valuemax>100</valuemax>
							<value>20</value>
						</parameter>
						<parameter>
							<parameterid>copyright</parameterid>
							<name>©www.nattress.com</name>
							<value>string</value>
						</parameter>
					</effect>
				</transitionitem>
				<clipitem id="C0050 ">
					<name>C0050</name>
					<duration>2566</duration>
					<rate>
						<ntsc>FALSE</ntsc>
						<timebase>25</timebase>
					</rate>
					<in>616</in>
					<out>900</out>
					<start>-1</start>
					<end>12207</end>
					<pixelaspectratio>Square</pixelaspectratio>
					<enabled>TRUE</enabled>
					<anamorphic>FALSE</anamorphic>
					<alphatype>none</alphatype>
					<masterclipid>C0050 1</masterclipid>
					<logginginfo>
						<scene/>
						<shottake/>
						<lognote/>
						<good>FALSE</good>
					</logginginfo>
					<labels>
						<label2/>
					</labels>
					<comments>
						<mastercomment1/>
						<mastercomment2/>
						<mastercomment3/>
						<mastercomment4/>
					</comments>
					<file id="C0050 2">
						<name>C0050.mov</name>
						<pathurl>file://localhost/Volumes/Askepott/Prosjekter/DNPR637010_Kra%CC%8Akeklubben_TEM_011212/Video/Mellomstikk/S03E%20D%C3%B8den/DAG%201/C0050.mov</pathurl>
						<rate>
							<timebase>25</timebase>
						</rate>
						<duration>2566</duration>
						<timecode>
							<rate>
								<timebase>25</timebase>
							</rate>
							<string>05:01:46:09</string>
							<frame>452659</frame>
							<displayformat>NDF</displayformat>
							<source>source</source>
							<reel>
								<name>XDCAM 20120508_103430</name>
							</reel>
						</timecode>
						<media>
							<video>
								<duration>2566</duration>
								<samplecharacteristics>
									<width>1920</width>
									<height>1080</height>
								</samplecharacteristics>
							</video>
							<audio>
								<rate>
									<timebase>48000</timebase>
								</rate>
								<trackcount>1</trackcount>
								<channeldescription>8 Channels</channeldescription>
								<samplecharacteristics>
									<depth>24</depth>
								</samplecharacteristics>
							</audio>
						</media>
					</file>
					<sourcetrack>
						<mediatype>video</mediatype>
					</sourcetrack>
					<link>
						<linkclipref>C0050 </linkclipref>
						<mediatype>video</mediatype>
						<trackindex>1</trackindex>
						<clipindex>91</clipindex>
					</link>
					<link>
						<linkclipref>C0050 3</linkclipref>
						<mediatype>audio</mediatype>
						<trackindex>1</trackindex>
						<clipindex>113</clipindex>
					</link>
					<link>
						<linkclipref>C0050 4</linkclipref>
						<mediatype>audio</mediatype>
						<trackindex>2</trackindex>
						<clipindex>65</clipindex>
					</link>
					<fielddominance>upper</fielddominance>
				</clipitem>
				<clipitem id="C0074 ">
					<name>C0074</name>
					<duration>2288</duration>
					<rate>
						<ntsc>FALSE</ntsc>
						<timebase>25</timebase>
					</rate>
					<in>990</in>
					<out>1058</out>
					<start>12207</start>
					<end>12275</end>
					<pixelaspectratio>Square</pixelaspectratio>
					<enabled>TRUE</enabled>
					<anamorphic>FALSE</anamorphic>
					<alphatype>none</alphatype>
					<masterclipid>C0074 1</masterclipid>
					<logginginfo>
						<scene/>
						<shottake/>
						<lognote/>
						<good>FALSE</good>
					</logginginfo>
					<labels>
						<label2/>
					</labels>
					<comments>
						<mastercomment1/>
						<mastercomment2/>
						<mastercomment3/>
						<mastercomment4/>
					</comments>
					<file id="C0074 2">
						<name>C0074.mov</name>
						<pathurl>file://localhost/Volumes/Askepott/Prosjekter/DNPR637010_Kra%CC%8Akeklubben_TEM_011212/Video/Mellomstikk/S03E%20D%C3%B8den/DAG%201/C0074.mov</pathurl>
						<rate>
							<timebase>25</timebase>
						</rate>
						<duration>2288</duration>
						<timecode>
							<rate>
								<timebase>25</timebase>
							</rate>
							<string>05:20:32:14</string>
							<frame>480814</frame>
							<displayformat>NDF</displayformat>
							<source>source</source>
							<reel>
								<name>XDCAM 20120508_103430</name>
							</reel>
						</timecode>
						<media>
							<video>
								<duration>2288</duration>
								<samplecharacteristics>
									<width>1920</width>
									<height>1080</height>
								</samplecharacteristics>
							</video>
							<audio>
								<rate>
									<timebase>48000</timebase>
								</rate>
								<trackcount>1</trackcount>
								<channeldescription>8 Channels</channeldescription>
								<samplecharacteristics>
									<depth>24</depth>
								</samplecharacteristics>
							</audio>
						</media>
					</file>
					<sourcetrack>
						<mediatype>video</mediatype>
					</sourcetrack>
					<link>
						<linkclipref>C0074 </linkclipref>
						<mediatype>video</mediatype>
						<trackindex>1</trackindex>
						<clipindex>92</clipindex>
					</link>
					<link>
						<linkclipref>C0074 3</linkclipref>
						<mediatype>audio</mediatype>
						<trackindex>1</trackindex>
						<clipindex>116</clipindex>
					</link>
					<link>
						<linkclipref>C0074 4</linkclipref>
						<mediatype>audio</mediatype>
						<trackindex>2</trackindex>
						<clipindex>67</clipindex>
					</link>
					<fielddominance>upper</fielddominance>
				</clipitem>
				<clipitem id="C0057 ">
					<name>C0057</name>
					<duration>1018</duration>
					<rate>
						<ntsc>FALSE</ntsc>
						<timebase>25</timebase>
					</rate>
					<in>530</in>
					<out>624</out>
					<start>12275</start>
					<end>12369</end>
					<pixelaspectratio>Square</pixelaspectratio>
					<enabled>TRUE</enabled>
					<anamorphic>FALSE</anamorphic>
					<alphatype>none</alphatype>
					<masterclipid>C0057 1</masterclipid>
					<logginginfo>
						<scene/>
						<shottake/>
						<lognote/>
						<good>FALSE</good>
					</logginginfo>
					<labels>
						<label2/>
					</labels>
					<comments>
						<mastercomment1/>
						<mastercomment2/>
						<mastercomment3/>
						<mastercomment4/>
					</comments>
					<file id="C0057 2">
						<name>C0057.mov</name>
						<pathurl>file://localhost/Volumes/Askepott/Prosjekter/DNPR637010_Kra%CC%8Akeklubben_TEM_011212/Video/Mellomstikk/S03E%20D%C3%B8den/DAG%201/C0057.mov</pathurl>
						<rate>
							<timebase>25</timebase>
						</rate>
						<duration>1018</duration>
						<timecode>
							<rate>
								<timebase>25</timebase>
							</rate>
							<string>05:11:17:19</string>
							<frame>466944</frame>
							<displayformat>NDF</displayformat>
							<source>source</source>
							<reel>
								<name>XDCAM 20120508_103430</name>
							</reel>
						</timecode>
						<media>
							<video>
								<duration>1018</duration>
								<samplecharacteristics>
									<width>1920</width>
									<height>1080</height>
								</samplecharacteristics>
							</video>
							<audio>
								<rate>
									<timebase>48000</timebase>
								</rate>
								<trackcount>1</trackcount>
								<channeldescription>8 Channels</channeldescription>
								<samplecharacteristics>
									<depth>24</depth>
								</samplecharacteristics>
							</audio>
						</media>
					</file>
					<filter>
						<start>-1</start>
						<end>-1</end>
						<effect>
							<name>Brightness and Contrast (Bezier)</name>
							<effectid>Brightness and Contrast (Bezier)</effectid>
							<effectcategory>Image Control</effectcategory>
							<effecttype>filter</effecttype>
							<mediatype>video</mediatype>
							<parameter>
								<parameterid>brightness</parameterid>
								<name>Brightness</name>
								<valuemin>-100</valuemin>
								<valuemax>100</valuemax>
								<value>4</value>
							</parameter>
							<parameter>
								<parameterid>contrast</parameterid>
								<name>Contrast</name>
								<valuemin>-100</valuemin>
								<valuemax>100</valuemax>
								<value>-30</value>
							</parameter>
						</effect>
					</filter>
					<sourcetrack>
						<mediatype>video</mediatype>
					</sourcetrack>
					<fielddominance>upper</fielddominance>
				</clipitem>
				<clipitem id="C0074 5">
					<name>C0074</name>
					<duration>2288</duration>
					<rate>
						<ntsc>FALSE</ntsc>
						<timebase>25</timebase>
					</rate>
					<in>1176</in>
					<out>1291</out>
					<start>12369</start>
					<end>12484</end>
					<pixelaspectratio>Square</pixelaspectratio>
					<enabled>TRUE</enabled>
					<anamorphic>FALSE</anamorphic>
					<alphatype>none</alphatype>
					<masterclipid>C0074 1</masterclipid>
					<logginginfo>
						<scene/>
						<shottake/>
						<lognote/>
						<good>FALSE</good>
					</logginginfo>
					<labels>
						<label2/>
					</labels>
					<comments>
						<mastercomment1/>
						<mastercomment2/>
						<mastercomment3/>
						<mastercomment4/>
					</comments>
					<file id="C0074 2"/>
					<sourcetrack>
						<mediatype>video</mediatype>
					</sourcetrack>
					<link>
						<linkclipref>C0074 5</linkclipref>
						<mediatype>video</mediatype>
						<trackindex>1</trackindex>
						<clipindex>94</clipindex>
					</link>
					<link>
						<linkclipref>C0074 6</linkclipref>
						<mediatype>audio</mediatype>
						<trackindex>1</trackindex>
						<clipindex>118</clipindex>
					</link>
					<fielddominance>upper</fielddominance>
				</clipitem>
				<clipitem id="C0050 5">
					<name>C0050</name>
					<duration>2566</duration>
					<rate>
						<ntsc>FALSE</ntsc>
						<timebase>25</timebase>
					</rate>
					<in>1258</in>
					<out>1493</out>
					<start>12484</start>
					<end>12719</end>
					<pixelaspectratio>Square</pixelaspectratio>
					<enabled>TRUE</enabled>
					<anamorphic>FALSE</anamorphic>
					<alphatype>none</alphatype>
					<masterclipid>C0050 1</masterclipid>
					<logginginfo>
						<scene/>
						<shottake/>
						<lognote/>
						<good>FALSE</good>
					</logginginfo>
					<labels>
						<label2/>
					</labels>
					<comments>
						<mastercomment1/>
						<mastercomment2/>
						<mastercomment3/>
						<mastercomment4/>
					</comments>
					<file id="C0050 2"/>
					<sourcetrack>
						<mediatype>video</mediatype>
					</sourcetrack>
					<link>
						<linkclipref>C0050 5</linkclipref>
						<mediatype>video</mediatype>
						<trackindex>1</trackindex>
						<clipindex>95</clipindex>
					</link>
					<link>
						<linkclipref>C0050 6</linkclipref>
						<mediatype>audio</mediatype>
						<trackindex>1</trackindex>
						<clipindex>119</clipindex>
					</link>
					<link>
						<linkclipref>C0050 7</linkclipref>
						<mediatype>audio</mediatype>
						<trackindex>2</trackindex>
						<clipindex>72</clipindex>
					</link>
					<fielddominance>upper</fielddominance>
				</clipitem>
				<clipitem id="C0075 ">
					<name>C0075</name>
					<duration>1816</duration>
					<rate>
						<ntsc>FALSE</ntsc>
						<timebase>25</timebase>
					</rate>
					<in>509</in>
					<out>607</out>
					<start>12719</start>
					<end>12817</end>
					<pixelaspectratio>Square</pixelaspectratio>
					<enabled>TRUE</enabled>
					<anamorphic>FALSE</anamorphic>
					<alphatype>none</alphatype>
					<masterclipid>C0075 1</masterclipid>
					<logginginfo>
						<scene/>
						<shottake/>
						<lognote/>
						<good>FALSE</good>
					</logginginfo>
					<labels>
						<label2/>
					</labels>
					<comments>
						<mastercomment1/>
						<mastercomment2/>
						<mastercomment3/>
						<mastercomment4/>
					</comments>
					<file id="C0075 2">
						<name>C0075.mov</name>
						<pathurl>file://localhost/Volumes/Askepott/Prosjekter/DNPR637010_Kra%CC%8Akeklubben_TEM_011212/Video/Mellomstikk/S03E%20D%C3%B8den/DAG%201/C0075.mov</pathurl>
						<rate>
							<timebase>25</timebase>
						</rate>
						<duration>1816</duration>
						<timecode>
							<rate>
								<timebase>25</timebase>
							</rate>
							<string>05:22:04:02</string>
							<frame>483102</frame>
							<displayformat>NDF</displayformat>
							<source>source</source>
							<reel>
								<name>XDCAM 20120508_103430</name>
							</reel>
						</timecode>
						<media>
							<video>
								<duration>1816</duration>
								<samplecharacteristics>
									<width>1920</width>
									<height>1080</height>
								</samplecharacteristics>
							</video>
							<audio>
								<rate>
									<timebase>48000</timebase>
								</rate>
								<trackcount>1</trackcount>
								<channeldescription>8 Channels</channeldescription>
								<samplecharacteristics>
									<depth>24</depth>
								</samplecharacteristics>
							</audio>
						</media>
					</file>
					<sourcetrack>
						<mediatype>video</mediatype>
					</sourcetrack>
					<link>
						<linkclipref>C0075 </linkclipref>
						<mediatype>video</mediatype>
						<trackindex>1</trackindex>
						<clipindex>96</clipindex>
					</link>
					<link>
						<linkclipref>C0075 3</linkclipref>
						<mediatype>audio</mediatype>
						<trackindex>1</trackindex>
						<clipindex>120</clipindex>
					</link>
					<link>
						<linkclipref>C0075 4</linkclipref>
						<mediatype>audio</mediatype>
						<trackindex>2</trackindex>
						<clipindex>73</clipindex>
					</link>
					<fielddominance>upper</fielddominance>
				</clipitem>
				<clipitem id="C0060 ">
					<name>C0060</name>
					<duration>438</duration>
					<rate>
						<ntsc>FALSE</ntsc>
						<timebase>25</timebase>
					</rate>
					<in>142</in>
					<out>313</out>
					<start>12817</start>
					<end>12988</end>
					<pixelaspectratio>Square</pixelaspectratio>
					<enabled>TRUE</enabled>
					<anamorphic>FALSE</anamorphic>
					<alphatype>none</alphatype>
					<masterclipid>C0060 1</masterclipid>
					<logginginfo>
						<scene/>
						<shottake/>
						<lognote/>
						<good>FALSE</good>
					</logginginfo>
					<labels>
						<label2/>
					</labels>
					<comments>
						<mastercomment1/>
						<mastercomment2/>
						<mastercomment3/>
						<mastercomment4/>
					</comments>
					<file id="C0060 2">
						<name>C0060.mov</name>
						<pathurl>file://localhost/Volumes/Askepott/Prosjekter/DNPR637010_Kra%CC%8Akeklubben_TEM_011212/Video/Mellomstikk/S03E%20D%C3%B8den/DAG%201/C0060.mov</pathurl>
						<rate>
							<timebase>25</timebase>
						</rate>
						<duration>438</duration>
						<timecode>
							<rate>
								<timebase>25</timebase>
							</rate>
							<string>05:12:56:06</string>
							<frame>469406</frame>
							<displayformat>NDF</displayformat>
							<source>source</source>
							<reel>
								<name>XDCAM 20120508_103430</name>
							</reel>
						</timecode>
						<media>
							<video>
								<duration>438</duration>
								<samplecharacteristics>
									<width>1920</width>
									<height>1080</height>
								</samplecharacteristics>
							</video>
							<audio>
								<rate>
									<timebase>48000</timebase>
								</rate>
								<trackcount>1</trackcount>
								<channeldescription>8 Channels</channeldescription>
								<samplecharacteristics>
									<depth>24</depth>
								</samplecharacteristics>
							</audio>
						</media>
					</file>
					<filter>
						<start>-1</start>
						<end>-1</end>
						<effect>
							<name>Brightness and Contrast (Bezier)</name>
							<effectid>Brightness and Contrast (Bezier)</effectid>
							<effectcategory>Image Control</effectcategory>
							<effecttype>filter</effecttype>
							<mediatype>video</mediatype>
							<parameter>
								<parameterid>brightness</parameterid>
								<name>Brightness</name>
								<valuemin>-100</valuemin>
								<valuemax>100</valuemax>
								<value>4</value>
							</parameter>
							<parameter>
								<parameterid>contrast</parameterid>
								<name>Contrast</name>
								<valuemin>-100</valuemin>
								<valuemax>100</valuemax>
								<value>-30</value>
							</parameter>
						</effect>
					</filter>
					<sourcetrack>
						<mediatype>video</mediatype>
					</sourcetrack>
					<link>
						<linkclipref>C0060 </linkclipref>
						<mediatype>video</mediatype>
						<trackindex>1</trackindex>
						<clipindex>97</clipindex>
					</link>
					<link>
						<linkclipref>C0060 3</linkclipref>
						<mediatype>audio</mediatype>
						<trackindex>1</trackindex>
						<clipindex>121</clipindex>
					</link>
					<link>
						<linkclipref>C0060 4</linkclipref>
						<mediatype>audio</mediatype>
						<trackindex>2</trackindex>
						<clipindex>74</clipindex>
					</link>
					<fielddominance>upper</fielddominance>
				</clipitem>
				<clipitem id="C0050 8">
					<name>C0050</name>
					<duration>2566</duration>
					<rate>
						<ntsc>FALSE</ntsc>
						<timebase>25</timebase>
					</rate>
					<in>1846</in>
					<out>2111</out>
					<start>12988</start>
					<end>13253</end>
					<pixelaspectratio>Square</pixelaspectratio>
					<enabled>TRUE</enabled>
					<anamorphic>FALSE</anamorphic>
					<alphatype>none</alphatype>
					<masterclipid>C0050 1</masterclipid>
					<logginginfo>
						<scene/>
						<shottake/>
						<lognote/>
						<good>FALSE</good>
					</logginginfo>
					<labels>
						<label2/>
					</labels>
					<comments>
						<mastercomment1/>
						<mastercomment2/>
						<mastercomment3/>
						<mastercomment4/>
					</comments>
					<file id="C0050 2"/>
					<sourcetrack>
						<mediatype>video</mediatype>
					</sourcetrack>
					<link>
						<linkclipref>C0050 8</linkclipref>
						<mediatype>video</mediatype>
						<trackindex>1</trackindex>
						<clipindex>98</clipindex>
					</link>
					<link>
						<linkclipref>C0050 9</linkclipref>
						<mediatype>audio</mediatype>
						<trackindex>1</trackindex>
						<clipindex>122</clipindex>
					</link>
					<link>
						<linkclipref>C0050 10</linkclipref>
						<mediatype>audio</mediatype>
						<trackindex>2</trackindex>
						<clipindex>75</clipindex>
					</link>
					<fielddominance>upper</fielddominance>
				</clipitem>
				<clipitem id="C0075 5">
					<name>C0075</name>
					<duration>1816</duration>
					<rate>
						<ntsc>FALSE</ntsc>
						<timebase>25</timebase>
					</rate>
					<in>1366</in>
					<out>1469</out>
					<start>13253</start>
					<end>13356</end>
					<pixelaspectratio>Square</pixelaspectratio>
					<enabled>TRUE</enabled>
					<anamorphic>FALSE</anamorphic>
					<alphatype>none</alphatype>
					<masterclipid>C0075 1</masterclipid>
					<logginginfo>
						<scene/>
						<shottake/>
						<lognote/>
						<good>FALSE</good>
					</logginginfo>
					<labels>
						<label2/>
					</labels>
					<comments>
						<mastercomment1/>
						<mastercomment2/>
						<mastercomment3/>
						<mastercomment4/>
					</comments>
					<file id="C0075 2"/>
					<sourcetrack>
						<mediatype>video</mediatype>
					</sourcetrack>
					<link>
						<linkclipref>C0075 5</linkclipref>
						<mediatype>video</mediatype>
						<trackindex>1</trackindex>
						<clipindex>99</clipindex>
					</link>
					<link>
						<linkclipref>C0075 6</linkclipref>
						<mediatype>audio</mediatype>
						<trackindex>1</trackindex>
						<clipindex>123</clipindex>
					</link>
					<link>
						<linkclipref>C0075 7</linkclipref>
						<mediatype>audio</mediatype>
						<trackindex>2</trackindex>
						<clipindex>76</clipindex>
					</link>
					<fielddominance>upper</fielddominance>
				</clipitem>
				<clipitem id="C0052 ">
					<name>C0052</name>
					<duration>1699</duration>
					<rate>
						<ntsc>FALSE</ntsc>
						<timebase>25</timebase>
					</rate>
					<in>997</in>
					<out>1132</out>
					<start>13356</start>
					<end>13491</end>
					<pixelaspectratio>Square</pixelaspectratio>
					<enabled>TRUE</enabled>
					<anamorphic>FALSE</anamorphic>
					<alphatype>none</alphatype>
					<masterclipid>C0052 1</masterclipid>
					<logginginfo>
						<scene/>
						<shottake/>
						<lognote/>
						<good>FALSE</good>
					</logginginfo>
					<labels>
						<label2/>
					</labels>
					<comments>
						<mastercomment1/>
						<mastercomment2/>
						<mastercomment3/>
						<mastercomment4/>
					</comments>
					<file id="C0052 2">
						<name>C0052.mov</name>
						<pathurl>file://localhost/Volumes/Askepott/Prosjekter/DNPR637010_Kra%CC%8Akeklubben_TEM_011212/Video/Mellomstikk/S03E%20D%C3%B8den/DAG%201/C0052.mov</pathurl>
						<rate>
							<timebase>25</timebase>
						</rate>
						<duration>1699</duration>
						<timecode>
							<rate>
								<timebase>25</timebase>
							</rate>
							<string>05:04:23:20</string>
							<frame>456595</frame>
							<displayformat>NDF</displayformat>
							<source>source</source>
							<reel>
								<name>XDCAM 20120508_103430</name>
							</reel>
						</timecode>
						<media>
							<video>
								<duration>1699</duration>
								<samplecharacteristics>
									<width>1920</width>
									<height>1080</height>
								</samplecharacteristics>
							</video>
							<audio>
								<rate>
									<timebase>48000</timebase>
								</rate>
								<trackcount>1</trackcount>
								<channeldescription>8 Channels</channeldescription>
								<samplecharacteristics>
									<depth>24</depth>
								</samplecharacteristics>
							</audio>
						</media>
					</file>
					<sourcetrack>
						<mediatype>video</mediatype>
					</sourcetrack>
					<link>
						<linkclipref>C0052 </linkclipref>
						<mediatype>video</mediatype>
						<trackindex>1</trackindex>
						<clipindex>100</clipindex>
					</link>
					<link>
						<linkclipref>C0052 3</linkclipref>
						<mediatype>audio</mediatype>
						<trackindex>1</trackindex>
						<clipindex>125</clipindex>
					</link>
					<link>
						<linkclipref>C0052 4</linkclipref>
						<mediatype>audio</mediatype>
						<trackindex>2</trackindex>
						<clipindex>78</clipindex>
					</link>
					<fielddominance>upper</fielddominance>
				</clipitem>
				<clipitem id="C0077 ">
					<name>C0077</name>
					<duration>2591</duration>
					<rate>
						<ntsc>FALSE</ntsc>
						<timebase>25</timebase>
					</rate>
					<in>872</in>
					<out>1075</out>
					<start>13491</start>
					<end>13694</end>
					<pixelaspectratio>Square</pixelaspectratio>
					<enabled>TRUE</enabled>
					<anamorphic>FALSE</anamorphic>
					<alphatype>none</alphatype>
					<masterclipid>C0077 1</masterclipid>
					<logginginfo>
						<scene/>
						<shottake/>
						<lognote/>
						<good>FALSE</good>
					</logginginfo>
					<labels>
						<label2/>
					</labels>
					<comments>
						<mastercomment1/>
						<mastercomment2/>
						<mastercomment3/>
						<mastercomment4/>
					</comments>
					<file id="C0077 2">
						<name>C0077.mov</name>
						<pathurl>file://localhost/Volumes/Askepott/Prosjekter/DNPR637010_Kra%CC%8Akeklubben_TEM_011212/Video/Mellomstikk/S03E%20D%C3%B8den/DAG%201/C0077.mov</pathurl>
						<rate>
							<timebase>25</timebase>
						</rate>
						<duration>2591</duration>
						<timecode>
							<rate>
								<timebase>25</timebase>
							</rate>
							<string>05:23:23:20</string>
							<frame>485095</frame>
							<displayformat>NDF</displayformat>
							<source>source</source>
							<reel>
								<name>XDCAM 20120508_103430</name>
							</reel>
						</timecode>
						<media>
							<video>
								<duration>2591</duration>
								<samplecharacteristics>
									<width>1920</width>
									<height>1080</height>
								</samplecharacteristics>
							</video>
							<audio>
								<rate>
									<timebase>48000</timebase>
								</rate>
								<trackcount>1</trackcount>
								<channeldescription>8 Channels</channeldescription>
								<samplecharacteristics>
									<depth>24</depth>
								</samplecharacteristics>
							</audio>
						</media>
					</file>
					<sourcetrack>
						<mediatype>video</mediatype>
					</sourcetrack>
					<link>
						<linkclipref>C0077 </linkclipref>
						<mediatype>video</mediatype>
						<trackindex>1</trackindex>
						<clipindex>101</clipindex>
					</link>
					<link>
						<linkclipref>C0077 3</linkclipref>
						<mediatype>audio</mediatype>
						<trackindex>1</trackindex>
						<clipindex>126</clipindex>
					</link>
					<link>
						<linkclipref>C0077 4</linkclipref>
						<mediatype>audio</mediatype>
						<trackindex>2</trackindex>
						<clipindex>79</clipindex>
					</link>
					<fielddominance>upper</fielddominance>
				</clipitem>
				<clipitem id="C0053 ">
					<name>C0053</name>
					<duration>3721</duration>
					<rate>
						<ntsc>FALSE</ntsc>
						<timebase>25</timebase>
					</rate>
					<in>2426</in>
					<out>2559</out>
					<start>13694</start>
					<end>13827</end>
					<pixelaspectratio>Square</pixelaspectratio>
					<enabled>TRUE</enabled>
					<anamorphic>FALSE</anamorphic>
					<alphatype>none</alphatype>
					<masterclipid>C0053 1</masterclipid>
					<logginginfo>
						<scene/>
						<shottake/>
						<lognote/>
						<good>FALSE</good>
					</logginginfo>
					<labels>
						<label2/>
					</labels>
					<comments>
						<mastercomment1/>
						<mastercomment2/>
						<mastercomment3/>
						<mastercomment4/>
					</comments>
					<file id="C0053 2">
						<name>C0053.mov</name>
						<pathurl>file://localhost/Volumes/Askepott/Prosjekter/DNPR637010_Kra%CC%8Akeklubben_TEM_011212/Video/Mellomstikk/S03E%20D%C3%B8den/DAG%201/C0053.mov</pathurl>
						<rate>
							<timebase>25</timebase>
						</rate>
						<duration>3721</duration>
						<timecode>
							<rate>
								<timebase>25</timebase>
							</rate>
							<string>05:05:31:19</string>
							<frame>458294</frame>
							<displayformat>NDF</displayformat>
							<source>source</source>
							<reel>
								<name>XDCAM 20120508_103430</name>
							</reel>
						</timecode>
						<media>
							<video>
								<duration>3721</duration>
								<samplecharacteristics>
									<width>1920</width>
									<height>1080</height>
								</samplecharacteristics>
							</video>
							<audio>
								<rate>
									<timebase>48000</timebase>
								</rate>
								<trackcount>1</trackcount>
								<channeldescription>8 Channels</channeldescription>
								<samplecharacteristics>
									<depth>24</depth>
								</samplecharacteristics>
							</audio>
						</media>
					</file>
					<sourcetrack>
						<mediatype>video</mediatype>
					</sourcetrack>
					<fielddominance>upper</fielddominance>
				</clipitem>
				<clipitem id="C0077 5">
					<name>C0077</name>
					<duration>2591</duration>
					<rate>
						<ntsc>FALSE</ntsc>
						<timebase>25</timebase>
					</rate>
					<in>1204</in>
					<out>1251</out>
					<start>13827</start>
					<end>13874</end>
					<pixelaspectratio>Square</pixelaspectratio>
					<enabled>TRUE</enabled>
					<anamorphic>FALSE</anamorphic>
					<alphatype>none</alphatype>
					<masterclipid>C0077 1</masterclipid>
					<logginginfo>
						<scene/>
						<shottake/>
						<lognote/>
						<good>FALSE</good>
					</logginginfo>
					<labels>
						<label2/>
					</labels>
					<comments>
						<mastercomment1/>
						<mastercomment2/>
						<mastercomment3/>
						<mastercomment4/>
					</comments>
					<file id="C0077 2"/>
					<sourcetrack>
						<mediatype>video</mediatype>
					</sourcetrack>
					<link>
						<linkclipref>C0077 5</linkclipref>
						<mediatype>video</mediatype>
						<trackindex>1</trackindex>
						<clipindex>103</clipindex>
					</link>
					<link>
						<linkclipref>C0077 6</linkclipref>
						<mediatype>audio</mediatype>
						<trackindex>1</trackindex>
						<clipindex>128</clipindex>
					</link>
					<fielddominance>upper</fielddominance>
				</clipitem>
				<clipitem id="C0065 ">
					<name>C0065</name>
					<duration>3225</duration>
					<rate>
						<ntsc>FALSE</ntsc>
						<timebase>25</timebase>
					</rate>
					<in>2029</in>
					<out>2142</out>
					<start>13874</start>
					<end>13987</end>
					<pixelaspectratio>Square</pixelaspectratio>
					<enabled>TRUE</enabled>
					<anamorphic>FALSE</anamorphic>
					<alphatype>none</alphatype>
					<masterclipid>C0065 1</masterclipid>
					<logginginfo>
						<scene/>
						<shottake/>
						<lognote/>
						<good>FALSE</good>
					</logginginfo>
					<labels>
						<label2/>
					</labels>
					<comments>
						<mastercomment1/>
						<mastercomment2/>
						<mastercomment3/>
						<mastercomment4/>
					</comments>
					<file id="C0065 2">
						<name>C0065.mov</name>
						<pathurl>file://localhost/Volumes/Askepott/Prosjekter/DNPR637010_Kra%CC%8Akeklubben_TEM_011212/Video/Mellomstikk/S03E%20D%C3%B8den/DAG%201/C0065.mov</pathurl>
						<rate>
							<timebase>25</timebase>
						</rate>
						<duration>3225</duration>
						<timecode>
							<rate>
								<timebase>25</timebase>
							</rate>
							<string>05:14:25:18</string>
							<frame>471643</frame>
							<displayformat>NDF</displayformat>
							<source>source</source>
							<reel>
								<name>XDCAM 20120508_103430</name>
							</reel>
						</timecode>
						<media>
							<video>
								<duration>3225</duration>
								<samplecharacteristics>
									<width>1920</width>
									<height>1080</height>
								</samplecharacteristics>
							</video>
							<audio>
								<rate>
									<timebase>48000</timebase>
								</rate>
								<trackcount>1</trackcount>
								<channeldescription>8 Channels</channeldescription>
								<samplecharacteristics>
									<depth>24</depth>
								</samplecharacteristics>
							</audio>
						</media>
					</file>
					<sourcetrack>
						<mediatype>video</mediatype>
					</sourcetrack>
					<link>
						<linkclipref>C0065 </linkclipref>
						<mediatype>video</mediatype>
						<trackindex>1</trackindex>
						<clipindex>104</clipindex>
					</link>
					<fielddominance>upper</fielddominance>
				</clipitem>
				<clipitem id="C0080 ">
					<name>C0080</name>
					<duration>962</duration>
					<rate>
						<ntsc>FALSE</ntsc>
						<timebase>25</timebase>
					</rate>
					<in>200</in>
					<out>332</out>
					<start>13987</start>
					<end>14119</end>
					<pixelaspectratio>Square</pixelaspectratio>
					<enabled>TRUE</enabled>
					<anamorphic>FALSE</anamorphic>
					<alphatype>none</alphatype>
					<masterclipid>C0080 1</masterclipid>
					<logginginfo>
						<scene/>
						<shottake/>
						<lognote/>
						<good>FALSE</good>
					</logginginfo>
					<labels>
						<label2/>
					</labels>
					<comments>
						<mastercomment1/>
						<mastercomment2/>
						<mastercomment3/>
						<mastercomment4/>
					</comments>
					<file id="C0080 2">
						<name>C0080.mov</name>
						<pathurl>file://localhost/Volumes/Askepott/Prosjekter/DNPR637010_Kra%CC%8Akeklubben_TEM_011212/Video/Mellomstikk/S03E%20D%C3%B8den/DAG%201/C0080.mov</pathurl>
						<rate>
							<timebase>25</timebase>
						</rate>
						<duration>962</duration>
						<timecode>
							<rate>
								<timebase>25</timebase>
							</rate>
							<string>05:26:05:22</string>
							<frame>489147</frame>
							<displayformat>NDF</displayformat>
							<source>source</source>
							<reel>
								<name>XDCAM 20120508_103430</name>
							</reel>
						</timecode>
						<media>
							<video>
								<duration>962</duration>
								<samplecharacteristics>
									<width>1920</width>
									<height>1080</height>
								</samplecharacteristics>
							</video>
							<audio>
								<rate>
									<timebase>48000</timebase>
								</rate>
								<trackcount>1</trackcount>
								<channeldescription>8 Channels</channeldescription>
								<samplecharacteristics>
									<depth>24</depth>
								</samplecharacteristics>
							</audio>
						</media>
					</file>
					<sourcetrack>
						<mediatype>video</mediatype>
					</sourcetrack>
					<link>
						<linkclipref>C0080 </linkclipref>
						<mediatype>video</mediatype>
						<trackindex>1</trackindex>
						<clipindex>105</clipindex>
					</link>
					<link>
						<linkclipref>C0080 3</linkclipref>
						<mediatype>audio</mediatype>
						<trackindex>1</trackindex>
						<clipindex>131</clipindex>
					</link>
					<fielddominance>upper</fielddominance>
				</clipitem>
				<clipitem id="C0054 ">
					<name>C0054</name>
					<duration>3304</duration>
					<rate>
						<ntsc>FALSE</ntsc>
						<timebase>25</timebase>
					</rate>
					<in>2541</in>
					<out>2627</out>
					<start>14119</start>
					<end>14205</end>
					<pixelaspectratio>Square</pixelaspectratio>
					<enabled>TRUE</enabled>
					<anamorphic>FALSE</anamorphic>
					<alphatype>none</alphatype>
					<masterclipid>C0054 1</masterclipid>
					<logginginfo>
						<scene/>
						<shottake/>
						<lognote/>
						<good>FALSE</good>
					</logginginfo>
					<labels>
						<label2/>
					</labels>
					<comments>
						<mastercomment1/>
						<mastercomment2/>
						<mastercomment3/>
						<mastercomment4/>
					</comments>
					<file id="C0054 2">
						<name>C0054.mov</name>
						<pathurl>file://localhost/Volumes/Askepott/Prosjekter/DNPR637010_Kra%CC%8Akeklubben_TEM_011212/Video/Mellomstikk/S03E%20D%C3%B8den/DAG%201/C0054.mov</pathurl>
						<rate>
							<timebase>25</timebase>
						</rate>
						<duration>3304</duration>
						<timecode>
							<rate>
								<timebase>25</timebase>
							</rate>
							<string>05:08:00:15</string>
							<frame>462015</frame>
							<displayformat>NDF</displayformat>
							<source>source</source>
							<reel>
								<name>XDCAM 20120508_103430</name>
							</reel>
						</timecode>
						<media>
							<video>
								<duration>3304</duration>
								<samplecharacteristics>
									<width>1920</width>
									<height>1080</height>
								</samplecharacteristics>
							</video>
							<audio>
								<rate>
									<timebase>48000</timebase>
								</rate>
								<trackcount>1</trackcount>
								<channeldescription>8 Channels</channeldescription>
								<samplecharacteristics>
									<depth>24</depth>
								</samplecharacteristics>
							</audio>
						</media>
					</file>
					<filter>
						<start>-1</start>
						<end>-1</end>
						<effect>
							<name>Brightness and Contrast (Bezier)</name>
							<effectid>Brightness and Contrast (Bezier)</effectid>
							<effectcategory>Image Control</effectcategory>
							<effecttype>filter</effecttype>
							<mediatype>video</mediatype>
							<parameter>
								<parameterid>brightness</parameterid>
								<name>Brightness</name>
								<valuemin>-100</valuemin>
								<valuemax>100</valuemax>
								<value>4</value>
							</parameter>
							<parameter>
								<parameterid>contrast</parameterid>
								<name>Contrast</name>
								<valuemin>-100</valuemin>
								<valuemax>100</valuemax>
								<value>-30</value>
							</parameter>
						</effect>
					</filter>
					<sourcetrack>
						<mediatype>video</mediatype>
					</sourcetrack>
					<link>
						<linkclipref>C0054 </linkclipref>
						<mediatype>video</mediatype>
						<trackindex>1</trackindex>
						<clipindex>106</clipindex>
					</link>
					<link>
						<linkclipref>C0054 3</linkclipref>
						<mediatype>audio</mediatype>
						<trackindex>1</trackindex>
						<clipindex>132</clipindex>
					</link>
					<link>
						<linkclipref>C0054 4</linkclipref>
						<mediatype>audio</mediatype>
						<trackindex>2</trackindex>
						<clipindex>84</clipindex>
					</link>
					<fielddominance>upper</fielddominance>
				</clipitem>
				<clipitem id="C0080 4">
					<name>C0080</name>
					<duration>962</duration>
					<rate>
						<ntsc>FALSE</ntsc>
						<timebase>25</timebase>
					</rate>
					<in>437</in>
					<out>546</out>
					<start>14205</start>
					<end>14314</end>
					<pixelaspectratio>Square</pixelaspectratio>
					<enabled>TRUE</enabled>
					<anamorphic>FALSE</anamorphic>
					<alphatype>none</alphatype>
					<masterclipid>C0080 1</masterclipid>
					<logginginfo>
						<scene/>
						<shottake/>
						<lognote/>
						<good>FALSE</good>
					</logginginfo>
					<labels>
						<label2/>
					</labels>
					<comments>
						<mastercomment1/>
						<mastercomment2/>
						<mastercomment3/>
						<mastercomment4/>
					</comments>
					<file id="C0080 2"/>
					<filter>
						<start>-1</start>
						<end>-1</end>
						<effect>
							<name>Brightness and Contrast (Bezier)</name>
							<effectid>Brightness and Contrast (Bezier)</effectid>
							<effectcategory>Image Control</effectcategory>
							<effecttype>filter</effecttype>
							<mediatype>video</mediatype>
							<parameter>
								<parameterid>brightness</parameterid>
								<name>Brightness</name>
								<valuemin>-100</valuemin>
								<valuemax>100</valuemax>
								<value>4</value>
							</parameter>
							<parameter>
								<parameterid>contrast</parameterid>
								<name>Contrast</name>
								<valuemin>-100</valuemin>
								<valuemax>100</valuemax>
								<value>-30</value>
							</parameter>
						</effect>
					</filter>
					<sourcetrack>
						<mediatype>video</mediatype>
					</sourcetrack>
					<link>
						<linkclipref>C0080 4</linkclipref>
						<mediatype>video</mediatype>
						<trackindex>1</trackindex>
						<clipindex>107</clipindex>
					</link>
					<link>
						<linkclipref>C0080 5</linkclipref>
						<mediatype>audio</mediatype>
						<trackindex>1</trackindex>
						<clipindex>133</clipindex>
					</link>
					<link>
						<linkclipref>C0080 6</linkclipref>
						<mediatype>audio</mediatype>
						<trackindex>2</trackindex>
						<clipindex>85</clipindex>
					</link>
					<fielddominance>upper</fielddominance>
				</clipitem>
				<clipitem id="C0055 ">
					<name>C0055</name>
					<duration>1362</duration>
					<rate>
						<ntsc>FALSE</ntsc>
						<timebase>25</timebase>
					</rate>
					<in>961</in>
					<out>1231</out>
					<start>14485</start>
					<end>14755</end>
					<pixelaspectratio>Square</pixelaspectratio>
					<enabled>TRUE</enabled>
					<anamorphic>FALSE</anamorphic>
					<alphatype>none</alphatype>
					<masterclipid>C0055 1</masterclipid>
					<logginginfo>
						<scene/>
						<shottake/>
						<lognote/>
						<good>FALSE</good>
					</logginginfo>
					<labels>
						<label2/>
					</labels>
					<comments>
						<mastercomment1/>
						<mastercomment2/>
						<mastercomment3/>
						<mastercomment4/>
					</comments>
					<file id="C0055 2">
						<name>C0055.mov</name>
						<pathurl>file://localhost/Volumes/Askepott/Prosjekter/DNPR637010_Kra%CC%8Akeklubben_TEM_011212/Video/Mellomstikk/S03E%20D%C3%B8den/DAG%201/C0055.mov</pathurl>
						<rate>
							<timebase>25</timebase>
						</rate>
						<duration>1362</duration>
						<timecode>
							<rate>
								<timebase>25</timebase>
							</rate>
							<string>05:10:12:19</string>
							<frame>465319</frame>
							<displayformat>NDF</displayformat>
							<source>source</source>
							<reel>
								<name>XDCAM 20120508_103430</name>
							</reel>
						</timecode>
						<media>
							<video>
								<duration>1362</duration>
								<samplecharacteristics>
									<width>1920</width>
									<height>1080</height>
								</samplecharacteristics>
							</video>
							<audio>
								<rate>
									<timebase>48000</timebase>
								</rate>
								<trackcount>1</trackcount>
								<channeldescription>8 Channels</channeldescription>
								<samplecharacteristics>
									<depth>24</depth>
								</samplecharacteristics>
							</audio>
						</media>
					</file>
					<filter>
						<start>-1</start>
						<end>-1</end>
						<effect>
							<name>Brightness and Contrast (Bezier)</name>
							<effectid>Brightness and Contrast (Bezier)</effectid>
							<effectcategory>Image Control</effectcategory>
							<effecttype>filter</effecttype>
							<mediatype>video</mediatype>
							<parameter>
								<parameterid>brightness</parameterid>
								<name>Brightness</name>
								<valuemin>-100</valuemin>
								<valuemax>100</valuemax>
								<value>4</value>
							</parameter>
							<parameter>
								<parameterid>contrast</parameterid>
								<name>Contrast</name>
								<valuemin>-100</valuemin>
								<valuemax>100</valuemax>
								<value>-30</value>
							</parameter>
						</effect>
					</filter>
					<sourcetrack>
						<mediatype>video</mediatype>
					</sourcetrack>
					<link>
						<linkclipref>C0055 </linkclipref>
						<mediatype>video</mediatype>
						<trackindex>1</trackindex>
						<clipindex>108</clipindex>
					</link>
					<link>
						<linkclipref>C0055 3</linkclipref>
						<mediatype>audio</mediatype>
						<trackindex>1</trackindex>
						<clipindex>135</clipindex>
					</link>
					<link>
						<linkclipref>C0055 4</linkclipref>
						<mediatype>audio</mediatype>
						<trackindex>2</trackindex>
						<clipindex>87</clipindex>
					</link>
					<fielddominance>upper</fielddominance>
				</clipitem>
				<clipitem id="Tords garasje Vignett">
					<name>Tords garasje Vignett</name>
					<duration>250</duration>
					<rate>
						<ntsc>FALSE</ntsc>
						<timebase>25</timebase>
					</rate>
					<in>0</in>
					<out>233</out>
					<start>14755</start>
					<end>-1</end>
					<pixelaspectratio>Square</pixelaspectratio>
					<enabled>TRUE</enabled>
					<anamorphic>FALSE</anamorphic>
					<alphatype>straight</alphatype>
					<masterclipid>Tords garasje Vignett1</masterclipid>
					<logginginfo>
						<scene/>
						<shottake/>
						<lognote/>
						<good>FALSE</good>
					</logginginfo>
					<labels>
						<label2/>
					</labels>
					<comments>
						<mastercomment1/>
						<mastercomment2/>
						<mastercomment3/>
						<mastercomment4/>
					</comments>
					<file id="Tords garasje Vignett2">
						<name>Tords garasje Vignett.mov</name>
						<pathurl>file://localhost/Volumes/Askepott/Prosjekter/DNPR637010_Kra%CC%8Akeklubben_TEM_011212/Grafikk/MASTERE%20GRAFIKK/Tords%20garasje%20Vignett.mov</pathurl>
						<rate>
							<timebase>25</timebase>
						</rate>
						<duration>250</duration>
						<timecode>
							<rate>
								<timebase>25</timebase>
							</rate>
							<string>00:00:00:00</string>
							<frame>0</frame>
							<displayformat>NDF</displayformat>
							<source>source</source>
						</timecode>
						<media>
							<video>
								<duration>250</duration>
								<samplecharacteristics>
									<width>1920</width>
									<height>1080</height>
								</samplecharacteristics>
							</video>
						</media>
					</file>
					<filter>
						<effect>
							<name>Basic Motion</name>
							<effectid>basic</effectid>
							<effectcategory>motion</effectcategory>
							<effecttype>motion</effecttype>
							<mediatype>video</mediatype>
							<parameter>
								<parameterid>scale</parameterid>
								<name>Scale</name>
								<valuemin>0</valuemin>
								<valuemax>1000</valuemax>
								<value>100</value>
							</parameter>
							<parameter>
								<parameterid>rotation</parameterid>
								<name>Rotation</name>
								<valuemin>-8640</valuemin>
								<valuemax>8640</valuemax>
								<value>0</value>
							</parameter>
							<parameter>
								<parameterid>center</parameterid>
								<name>Center</name>
								<value>
									<horiz>0</horiz>
									<vert>0</vert>
								</value>
							</parameter>
							<parameter>
								<parameterid>centerOffset</parameterid>
								<name>Anchor Point</name>
								<value>
									<horiz>0</horiz>
									<vert>0</vert>
								</value>
							</parameter>
						</effect>
					</filter>
					<filter>
						<enabled>FALSE</enabled>
						<effect>
							<name>Drop Shadow</name>
							<effectid>dropshadow</effectid>
							<effectcategory>motion</effectcategory>
							<effecttype>motion</effecttype>
							<mediatype>video</mediatype>
							<parameter>
								<parameterid>offset</parameterid>
								<name>offset</name>
								<valuemin>-100</valuemin>
								<valuemax>100</valuemax>
								<value>2</value>
							</parameter>
							<parameter>
								<parameterid>angle</parameterid>
								<name>angle</name>
								<valuemin>-720</valuemin>
								<valuemax>720</valuemax>
								<value>135</value>
							</parameter>
							<parameter>
								<parameterid>color</parameterid>
								<name>color</name>
								<value>
									<alpha>0</alpha>
									<red>0</red>
									<green>0</green>
									<blue>0</blue>
								</value>
							</parameter>
							<parameter>
								<parameterid>softness</parameterid>
								<name>softness</name>
								<valuemin>0</valuemin>
								<valuemax>100</valuemax>
								<value>10</value>
							</parameter>
							<parameter>
								<parameterid>opacity</parameterid>
								<name>opacity</name>
								<valuemin>0</valuemin>
								<valuemax>100</valuemax>
								<value>50</value>
							</parameter>
						</effect>
					</filter>
					<filter>
						<enabled>FALSE</enabled>
						<effect>
							<name>Motion Blur</name>
							<effectid>motionblur</effectid>
							<effectcategory>motion</effectcategory>
							<effecttype>motion</effecttype>
							<mediatype>video</mediatype>
							<parameter>
								<parameterid>duration</parameterid>
								<name>% Blur</name>
								<valuemin>0</valuemin>
								<valuemax>1000</valuemax>
								<value>500</value>
							</parameter>
							<parameter>
								<parameterid>samples</parameterid>
								<name>Samples</name>
								<valuemin>1</valuemin>
								<valuemax>16</valuemax>
								<value>4</value>
							</parameter>
						</effect>
					</filter>
					<filter>
						<effect>
							<name>Crop</name>
							<effectid>crop</effectid>
							<effectcategory>motion</effectcategory>
							<effecttype>motion</effecttype>
							<mediatype>video</mediatype>
							<parameter>
								<parameterid>left</parameterid>
								<name>left</name>
								<valuemin>0</valuemin>
								<valuemax>100</valuemax>
								<value>0</value>
							</parameter>
							<parameter>
								<parameterid>right</parameterid>
								<name>right</name>
								<valuemin>0</valuemin>
								<valuemax>100</valuemax>
								<value>0</value>
							</parameter>
							<parameter>
								<parameterid>top</parameterid>
								<name>top</name>
								<valuemin>0</valuemin>
								<valuemax>100</valuemax>
								<value>0</value>
							</parameter>
							<parameter>
								<parameterid>bottom</parameterid>
								<name>bottom</name>
								<valuemin>0</valuemin>
								<valuemax>100</valuemax>
								<value>0</value>
							</parameter>
							<parameter>
								<parameterid>edgefeather</parameterid>
								<name>edgefeather</name>
								<valuemin>0</valuemin>
								<valuemax>100</valuemax>
								<value>0</value>
							</parameter>
						</effect>
					</filter>
					<filter>
						<effect>
							<name>Distort</name>
							<effectid>deformation</effectid>
							<effectcategory>motion</effectcategory>
							<effecttype>motion</effecttype>
							<mediatype>video</mediatype>
							<parameter>
								<parameterid>ulcorner</parameterid>
								<name>Upper Left</name>
								<value>
									<horiz>-0.5</horiz>
									<vert>-0.5</vert>
								</value>
							</parameter>
							<parameter>
								<parameterid>urcorner</parameterid>
								<name>Upper Right</name>
								<value>
									<horiz>0.5</horiz>
									<vert>-0.5</vert>
								</value>
							</parameter>
							<parameter>
								<parameterid>lrcorner</parameterid>
								<name>Lower Right</name>
								<value>
									<horiz>0.5</horiz>
									<vert>0.5</vert>
								</value>
							</parameter>
							<parameter>
								<parameterid>llcorner</parameterid>
								<name>Lower Left</name>
								<value>
									<horiz>-0.5</horiz>
									<vert>0.5</vert>
								</value>
							</parameter>
							<parameter>
								<parameterid>aspect</parameterid>
								<name>Aspect</name>
								<valuemin>-10000</valuemin>
								<valuemax>10000</valuemax>
								<value>0</value>
							</parameter>
						</effect>
					</filter>
					<filter>
						<effect>
							<name>Opacity</name>
							<effectid>opacity</effectid>
							<effectcategory>motion</effectcategory>
							<effecttype>motion</effecttype>
							<mediatype>video</mediatype>
							<parameter>
								<parameterid>opacity</parameterid>
								<name>opacity</name>
								<valuemin>0</valuemin>
								<valuemax>100</valuemax>
								<value>100</value>
							</parameter>
						</effect>
					</filter>
					<sourcetrack>
						<mediatype>video</mediatype>
					</sourcetrack>
					<fielddominance>upper</fielddominance>
				</clipitem>
				<transitionitem id="1788746988 ">
					<rate>
						<ntsc>FALSE</ntsc>
						<timebase>25</timebase>
					</rate>
					<start>14973</start>
					<end>14988</end>
					<alignment>start</alignment>
					<effect>
						<name>G Lens Flare Generell NED</name>
						<effectcategory>Nattress Big Box Of Tricks</effectcategory>
						<effecttype>transition</effecttype>
						<mediatype>video</mediatype>
						<startratio>0</startratio>
						<endratio>1</endratio>
						<reverse>FALSE</reverse>
						<parameter>
							<parameterid>dispvar1</parameterid>
							<name>Display Settings</name>
							<value>string</value>
						</parameter>
						<parameter>
							<parameterid>inputvar1</parameterid>
							<name>Flare Position</name>
							<value>string</value>
						</parameter>
						<parameter>
							<parameterid>theangle</parameterid>
							<name>Transition Direction</name>
							<valuemin>-360</valuemin>
							<valuemax>360</valuemax>
							<value>180</value>
						</parameter>
						<parameter>
							<parameterid>transitionblendduration</parameterid>
							<name>Blend Duration</name>
							<valuemin>0</valuemin>
							<valuemax>100</valuemax>
							<value>50</value>
						</parameter>
						<parameter>
							<parameterid>settingsvar1</parameterid>
							<name>Flare Settings</name>
							<value>string</value>
						</parameter>
						<parameter>
							<parameterid>presets</parameterid>
							<name>Preset Select</name>
							<valuemin>1</valuemin>
							<valuemax>4</valuemax>
							<valuelist>
								<valueentry>
									<name>Custom Controls</name>
									<value>1</value>
								</valueentry>
								<valueentry>
									<name>Other End of the Rainbow</name>
									<value>2</value>
								</valueentry>
								<valueentry>
									<name>Photon</name>
									<value>3</value>
								</valueentry>
								<valueentry>
									<name>Gaudy</name>
									<value>4</value>
								</valueentry>
							</valuelist>
							<value>1</value>
						</parameter>
						<parameter>
							<parameterid>randomevolution</parameterid>
							<name>Randomness Evolution</name>
							<valuemin>0</valuemin>
							<valuemax>1</valuemax>
							<value>0.05</value>
						</parameter>
						<parameter>
							<parameterid>flareaspect</parameterid>
							<name>Aspect</name>
							<valuemin>0.1</valuemin>
							<valuemax>10</valuemax>
							<value>1</value>
						</parameter>
						<parameter>
							<parameterid>flareintensity</parameterid>
							<name>Overall Intensity</name>
							<valuemin>0</valuemin>
							<valuemax>400</valuemax>
							<value>300</value>
						</parameter>
						<parameter>
							<parameterid>therandomseed</parameterid>
							<name>Random Seed</name>
							<valuemin>0</valuemin>
							<valuemax>100</valuemax>
							<value>100</value>
						</parameter>
						<parameter>
							<parameterid>settingsvar2</parameterid>
							<name>   Bloom</name>
							<value>string</value>
						</parameter>
						<parameter>
							<parameterid>bloomon</parameterid>
							<name>Bloom On?</name>
							<value>TRUE</value>
						</parameter>
						<parameter>
							<parameterid>bloomcolour</parameterid>
							<name>Bloom Colour</name>
							<value>
								<alpha>255</alpha>
								<red>218</red>
								<green>224</green>
								<blue>254</blue>
							</value>
						</parameter>
						<parameter>
							<parameterid>bloomcolourfromimage</parameterid>
							<name>Use Image for Bloom Colour?</name>
							<value>FALSE</value>
						</parameter>
						<parameter>
							<parameterid>bloomintensity</parameterid>
							<name>Intensity</name>
							<valuemin>0</valuemin>
							<valuemax>100</valuemax>
							<value>90</value>
						</parameter>
						<parameter>
							<parameterid>bloomradius</parameterid>
							<name>Radius</name>
							<valuemin>0</valuemin>
							<valuemax>200</valuemax>
							<value>45</value>
						</parameter>
						<parameter>
							<parameterid>bloomfalloff</parameterid>
							<name>Fall Off</name>
							<valuemin>0</valuemin>
							<valuemax>100</valuemax>
							<value>75</value>
						</parameter>
						<parameter>
							<parameterid>bloomstarry</parameterid>
							<name>Starry</name>
							<valuemin>0</valuemin>
							<valuemax>100</valuemax>
							<value>10</value>
						</parameter>
						<parameter>
							<parameterid>bloomstarpoints</parameterid>
							<name>Star Points</name>
							<valuemin>0</valuemin>
							<valuemax>100</valuemax>
							<value>7</value>
						</parameter>
						<parameter>
							<parameterid>settingsvar3</parameterid>
							<name>   StarBurst</name>
							<value>string</value>
						</parameter>
						<parameter>
							<parameterid>starburston</parameterid>
							<name>StarBurst On?</name>
							<value>TRUE</value>
						</parameter>
						<parameter>
							<parameterid>starburstcolour</parameterid>
							<name>StarBurst Colour</name>
							<value>
								<alpha>255</alpha>
								<red>254</red>
								<green>224</green>
								<blue>218</blue>
							</value>
						</parameter>
						<parameter>
							<parameterid>starburstintensity</parameterid>
							<name>Intensity</name>
							<valuemin>0</valuemin>
							<valuemax>100</valuemax>
							<value>75</value>
						</parameter>
						<parameter>
							<parameterid>starburstradius</parameterid>
							<name>Radius</name>
							<valuemin>0</valuemin>
							<valuemax>150</valuemax>
							<value>75</value>
						</parameter>
						<parameter>
							<parameterid>starburststarpoints</parameterid>
							<name>Star Points</name>
							<valuemin>0</valuemin>
							<valuemax>200</valuemax>
							<value>90</value>
						</parameter>
						<parameter>
							<parameterid>starcentre</parameterid>
							<name>Centre Size</name>
							<valuemin>0</valuemin>
							<valuemax>100</valuemax>
							<value>75</value>
						</parameter>
						<parameter>
							<parameterid>starfalloff</parameterid>
							<name>Fall Off</name>
							<valuemin>0</valuemin>
							<valuemax>100</valuemax>
							<value>75</value>
						</parameter>
						<parameter>
							<parameterid>starburstrandom</parameterid>
							<name>Randomness</name>
							<valuemin>0</valuemin>
							<valuemax>4</valuemax>
							<value>0.4</value>
						</parameter>
						<parameter>
							<parameterid>settingsvar4</parameterid>
							<name>   Rainbow</name>
							<value>string</value>
						</parameter>
						<parameter>
							<parameterid>rainbowon</parameterid>
							<name>Rainbow On?</name>
							<value>TRUE</value>
						</parameter>
						<parameter>
							<parameterid>rainbowcolors</parameterid>
							<name>Colour Type</name>
							<valuemin>1</valuemin>
							<valuemax>2</valuemax>
							<valuelist>
								<valueentry>
									<name>Rainbow</name>
									<value>1</value>
								</valueentry>
								<valueentry>
									<name>User Colour</name>
									<value>2</value>
								</valueentry>
							</valuelist>
							<value>1</value>
						</parameter>
						<parameter>
							<parameterid>rainbowusercolor</parameterid>
							<name>User Colour</name>
							<value>
								<alpha>255</alpha>
								<red>230</red>
								<green>110</green>
								<blue>22</blue>
							</value>
						</parameter>
						<parameter>
							<parameterid>rainbowposition</parameterid>
							<name>Position</name>
							<valuemin>-200</valuemin>
							<valuemax>200</valuemax>
							<value>100</value>
						</parameter>
						<parameter>
							<parameterid>rainbowintensity</parameterid>
							<name>Intensity</name>
							<valuemin>0</valuemin>
							<valuemax>100</valuemax>
							<value>20</value>
						</parameter>
						<parameter>
							<parameterid>rainbowradius</parameterid>
							<name>Radius</name>
							<valuemin>0</valuemin>
							<valuemax>200</valuemax>
							<value>50</value>
						</parameter>
						<parameter>
							<parameterid>rainbowthickness</parameterid>
							<name>Thickness</name>
							<valuemin>0</valuemin>
							<valuemax>1</valuemax>
							<value>0.15</value>
						</parameter>
						<parameter>
							<parameterid>rainbowsharpness</parameterid>
							<name>Sharpness</name>
							<valuemin>0</valuemin>
							<valuemax>1</valuemax>
							<value>0.65</value>
						</parameter>
						<parameter>
							<parameterid>settingsvar5</parameterid>
							<name>   Spots</name>
							<value>string</value>
						</parameter>
						<parameter>
							<parameterid>spotson</parameterid>
							<name>Spots On?</name>
							<value>TRUE</value>
						</parameter>
						<parameter>
							<parameterid>spotsnumber</parameterid>
							<name>Number</name>
							<valuemin>0</valuemin>
							<valuemax>100</valuemax>
							<value>12</value>
						</parameter>
						<parameter>
							<parameterid>spotsintensity</parameterid>
							<name>Intensity</name>
							<valuemin>0</valuemin>
							<valuemax>100</valuemax>
							<value>80</value>
						</parameter>
						<parameter>
							<parameterid>spotsradius</parameterid>
							<name>Radius</name>
							<valuemin>0</valuemin>
							<valuemax>150</valuemax>
							<value>30</value>
						</parameter>
						<parameter>
							<parameterid>spotsdisky</parameterid>
							<name>Disky</name>
							<valuemin>0</valuemin>
							<valuemax>100</valuemax>
							<value>75</value>
						</parameter>
						<parameter>
							<parameterid>spotsringy</parameterid>
							<name>Ringy</name>
							<valuemin>0</valuemin>
							<valuemax>100</valuemax>
							<value>75</value>
						</parameter>
						<parameter>
							<parameterid>spotsblotty</parameterid>
							<name>Blotty</name>
							<valuemin>0</valuemin>
							<valuemax>100</valuemax>
							<value>75</value>
						</parameter>
						<parameter>
							<parameterid>spotsbloony</parameterid>
							<name>Bloony</name>
							<valuemin>0</valuemin>
							<valuemax>100</valuemax>
							<value>75</value>
						</parameter>
						<parameter>
							<parameterid>spotsvarycolour</parameterid>
							<name>Vary Colour</name>
							<valuemin>0</valuemin>
							<valuemax>100</valuemax>
							<value>31</value>
						</parameter>
						<parameter>
							<parameterid>spotsbasehue</parameterid>
							<name>Base Hue</name>
							<valuemin>0</valuemin>
							<valuemax>100</valuemax>
							<value>72</value>
						</parameter>
						<parameter>
							<parameterid>spotssaturation</parameterid>
							<name>Saturation</name>
							<valuemin>0</valuemin>
							<valuemax>100</valuemax>
							<value>20</value>
						</parameter>
						<parameter>
							<parameterid>copyright</parameterid>
							<name>©www.nattress.com</name>
							<value>string</value>
						</parameter>
					</effect>
				</transitionitem>
				<clipitem id="C0025 ">
					<name>C0025</name>
					<duration>171</duration>
					<rate>
						<ntsc>FALSE</ntsc>
						<timebase>25</timebase>
					</rate>
					<in>0</in>
					<out>171</out>
					<start>-1</start>
					<end>15144</end>
					<pixelaspectratio>Square</pixelaspectratio>
					<enabled>TRUE</enabled>
					<anamorphic>FALSE</anamorphic>
					<alphatype>none</alphatype>
					<masterclipid>C0025 1</masterclipid>
					<logginginfo>
						<scene/>
						<shottake/>
						<lognote/>
						<good>FALSE</good>
					</logginginfo>
					<labels>
						<label2/>
					</labels>
					<comments>
						<mastercomment1/>
						<mastercomment2/>
						<mastercomment3/>
						<mastercomment4/>
					</comments>
					<file id="1_g1 ">
						<name>1_g1.mov</name>
						<pathurl>file://localhost/Volumes/Askepott/Final%20Cut%20Pro%20Documents/Color%20Renderfiles/Tords%20garasje%20-%20Flue/1/1_g1.mov</pathurl>
						<rate>
							<timebase>25</timebase>
						</rate>
						<duration>171</duration>
						<timecode>
							<rate>
								<timebase>25</timebase>
							</rate>
							<string>12:34:04:17</string>
							<frame>1131117</frame>
							<displayformat>NDF</displayformat>
							<source>source</source>
							<reel>
								<name>XDCAM 20120309_113707</name>
							</reel>
						</timecode>
						<media>
							<video>
								<duration>171</duration>
								<samplecharacteristics>
									<width>1920</width>
									<height>1080</height>
								</samplecharacteristics>
							</video>
						</media>
					</file>
					<filter>
						<effect>
							<name>Distort</name>
							<effectid>deformation</effectid>
							<effectcategory>motion</effectcategory>
							<effecttype>motion</effecttype>
							<mediatype>video</mediatype>
							<parameter>
								<parameterid>ulcorner</parameterid>
								<name>Upper Left</name>
								<value>
									<horiz>-0.5</horiz>
									<vert>-0.5</vert>
								</value>
							</parameter>
							<parameter>
								<parameterid>urcorner</parameterid>
								<name>Upper Right</name>
								<value>
									<horiz>0.5</horiz>
									<vert>-0.5</vert>
								</value>
							</parameter>
							<parameter>
								<parameterid>lrcorner</parameterid>
								<name>Lower Right</name>
								<value>
									<horiz>0.5</horiz>
									<vert>0.5</vert>
								</value>
							</parameter>
							<parameter>
								<parameterid>llcorner</parameterid>
								<name>Lower Left</name>
								<value>
									<horiz>-0.5</horiz>
									<vert>0.5</vert>
								</value>
							</parameter>
							<parameter>
								<parameterid>aspect</parameterid>
								<name>Aspect</name>
								<valuemin>-10000</valuemin>
								<valuemax>10000</valuemax>
								<value>0</value>
							</parameter>
						</effect>
					</filter>
					<filter>
						<effect>
							<name>Basic Motion</name>
							<effectid>basic</effectid>
							<effectcategory>motion</effectcategory>
							<effecttype>motion</effecttype>
							<mediatype>video</mediatype>
							<parameter>
								<parameterid>scale</parameterid>
								<name>Scale</name>
								<valuemin>0</valuemin>
								<valuemax>1000</valuemax>
								<value>100</value>
							</parameter>
							<parameter>
								<parameterid>rotation</parameterid>
								<name>Rotation</name>
								<valuemin>-8640</valuemin>
								<valuemax>8640</valuemax>
								<value>0</value>
							</parameter>
							<parameter>
								<parameterid>center</parameterid>
								<name>Center</name>
								<value>
									<horiz>0</horiz>
									<vert>0</vert>
								</value>
							</parameter>
							<parameter>
								<parameterid>centerOffset</parameterid>
								<name>Anchor Point</name>
								<value>
									<horiz>0</horiz>
									<vert>0</vert>
								</value>
							</parameter>
						</effect>
					</filter>
					<sourcetrack>
						<mediatype>video</mediatype>
					</sourcetrack>
					<fielddominance>upper</fielddominance>
				</clipitem>
				<clipitem id="C0025 2">
					<name>C0025</name>
					<duration>73</duration>
					<rate>
						<ntsc>FALSE</ntsc>
						<timebase>25</timebase>
					</rate>
					<in>0</in>
					<out>73</out>
					<start>15144</start>
					<end>15217</end>
					<pixelaspectratio>Square</pixelaspectratio>
					<anamorphic>FALSE</anamorphic>
					<alphatype>none</alphatype>
					<masterclipid>C0025 3</masterclipid>
					<logginginfo>
						<scene/>
						<shottake/>
						<lognote/>
						<good>FALSE</good>
					</logginginfo>
					<labels>
						<label2/>
					</labels>
					<comments>
						<mastercomment1/>
						<mastercomment2/>
						<mastercomment3/>
						<mastercomment4/>
					</comments>
					<file id="2_g1 1">
						<name>2_g1.mov</name>
						<pathurl>file://localhost/Volumes/Askepott/Final%20Cut%20Pro%20Documents/Color%20Renderfiles/Tords%20garasje%20-%20Flue/2/2_g1.mov</pathurl>
						<rate>
							<timebase>25</timebase>
						</rate>
						<duration>73</duration>
						<timecode>
							<rate>
								<timebase>25</timebase>
							</rate>
							<string>12:34:13:18</string>
							<frame>1131343</frame>
							<displayformat>NDF</displayformat>
							<source>source</source>
							<reel>
								<name>XDCAM 20120309_113707</name>
							</reel>
						</timecode>
						<media>
							<video>
								<duration>73</duration>
								<samplecharacteristics>
									<width>1920</width>
									<height>1080</height>
								</samplecharacteristics>
							</video>
						</media>
					</file>
					<filter>
						<effect>
							<name>Distort</name>
							<effectid>deformation</effectid>
							<effectcategory>motion</effectcategory>
							<effecttype>motion</effecttype>
							<mediatype>video</mediatype>
							<parameter>
								<parameterid>ulcorner</parameterid>
								<name>Upper Left</name>
								<value>
									<horiz>-0.5</horiz>
									<vert>-0.5</vert>
								</value>
							</parameter>
							<parameter>
								<parameterid>urcorner</parameterid>
								<name>Upper Right</name>
								<value>
									<horiz>0.5</horiz>
									<vert>-0.5</vert>
								</value>
							</parameter>
							<parameter>
								<parameterid>lrcorner</parameterid>
								<name>Lower Right</name>
								<value>
									<horiz>0.5</horiz>
									<vert>0.5</vert>
								</value>
							</parameter>
							<parameter>
								<parameterid>llcorner</parameterid>
								<name>Lower Left</name>
								<value>
									<horiz>-0.5</horiz>
									<vert>0.5</vert>
								</value>
							</parameter>
							<parameter>
								<parameterid>aspect</parameterid>
								<name>Aspect</name>
								<valuemin>-10000</valuemin>
								<valuemax>10000</valuemax>
								<value>0</value>
							</parameter>
						</effect>
					</filter>
					<filter>
						<effect>
							<name>Basic Motion</name>
							<effectid>basic</effectid>
							<effectcategory>motion</effectcategory>
							<effecttype>motion</effecttype>
							<mediatype>video</mediatype>
							<parameter>
								<parameterid>scale</parameterid>
								<name>Scale</name>
								<valuemin>0</valuemin>
								<valuemax>1000</valuemax>
								<value>100</value>
							</parameter>
							<parameter>
								<parameterid>rotation</parameterid>
								<name>Rotation</name>
								<valuemin>-8640</valuemin>
								<valuemax>8640</valuemax>
								<value>0</value>
							</parameter>
							<parameter>
								<parameterid>center</parameterid>
								<name>Center</name>
								<value>
									<horiz>0</horiz>
									<vert>0</vert>
								</value>
							</parameter>
							<parameter>
								<parameterid>centerOffset</parameterid>
								<name>Anchor Point</name>
								<value>
									<horiz>0</horiz>
									<vert>0</vert>
								</value>
							</parameter>
						</effect>
					</filter>
					<sourcetrack>
						<mediatype>video</mediatype>
					</sourcetrack>
					<fielddominance>upper</fielddominance>
				</clipitem>
				<clipitem id="C0027 5">
					<name>C0027</name>
					<duration>141</duration>
					<rate>
						<ntsc>FALSE</ntsc>
						<timebase>25</timebase>
					</rate>
					<in>0</in>
					<out>141</out>
					<start>15217</start>
					<end>15358</end>
					<pixelaspectratio>Square</pixelaspectratio>
					<anamorphic>FALSE</anamorphic>
					<alphatype>none</alphatype>
					<masterclipid>C0027 6</masterclipid>
					<logginginfo>
						<scene/>
						<shottake/>
						<lognote/>
						<good>FALSE</good>
					</logginginfo>
					<labels>
						<label2/>
					</labels>
					<comments>
						<mastercomment1/>
						<mastercomment2/>
						<mastercomment3/>
						<mastercomment4/>
					</comments>
					<file id="3_g1 1">
						<name>3_g1.mov</name>
						<pathurl>file://localhost/Volumes/Askepott/Final%20Cut%20Pro%20Documents/Color%20Renderfiles/Tords%20garasje%20-%20Flue/3/3_g1.mov</pathurl>
						<rate>
							<timebase>25</timebase>
						</rate>
						<duration>141</duration>
						<timecode>
							<rate>
								<timebase>25</timebase>
							</rate>
							<string>12:35:45:03</string>
							<frame>1133628</frame>
							<displayformat>NDF</displayformat>
							<source>source</source>
							<reel>
								<name>XDCAM 20120309_113707</name>
							</reel>
						</timecode>
						<media>
							<video>
								<duration>141</duration>
								<samplecharacteristics>
									<width>1920</width>
									<height>1080</height>
								</samplecharacteristics>
							</video>
						</media>
					</file>
					<filter>
						<effect>
							<name>Distort</name>
							<effectid>deformation</effectid>
							<effectcategory>motion</effectcategory>
							<effecttype>motion</effecttype>
							<mediatype>video</mediatype>
							<parameter>
								<parameterid>ulcorner</parameterid>
								<name>Upper Left</name>
								<value>
									<horiz>-0.5</horiz>
									<vert>-0.5</vert>
								</value>
							</parameter>
							<parameter>
								<parameterid>urcorner</parameterid>
								<name>Upper Right</name>
								<value>
									<horiz>0.5</horiz>
									<vert>-0.5</vert>
								</value>
							</parameter>
							<parameter>
								<parameterid>lrcorner</parameterid>
								<name>Lower Right</name>
								<value>
									<horiz>0.5</horiz>
									<vert>0.5</vert>
								</value>
							</parameter>
							<parameter>
								<parameterid>llcorner</parameterid>
								<name>Lower Left</name>
								<value>
									<horiz>-0.5</horiz>
									<vert>0.5</vert>
								</value>
							</parameter>
							<parameter>
								<parameterid>aspect</parameterid>
								<name>Aspect</name>
								<valuemin>-10000</valuemin>
								<valuemax>10000</valuemax>
								<value>0</value>
							</parameter>
						</effect>
					</filter>
					<filter>
						<effect>
							<name>Basic Motion</name>
							<effectid>basic</effectid>
							<effectcategory>motion</effectcategory>
							<effecttype>motion</effecttype>
							<mediatype>video</mediatype>
							<parameter>
								<parameterid>scale</parameterid>
								<name>Scale</name>
								<valuemin>0</valuemin>
								<valuemax>1000</valuemax>
								<value>100</value>
							</parameter>
							<parameter>
								<parameterid>rotation</parameterid>
								<name>Rotation</name>
								<valuemin>-8640</valuemin>
								<valuemax>8640</valuemax>
								<value>0</value>
							</parameter>
							<parameter>
								<parameterid>center</parameterid>
								<name>Center</name>
								<value>
									<horiz>0</horiz>
									<vert>0</vert>
								</value>
							</parameter>
							<parameter>
								<parameterid>centerOffset</parameterid>
								<name>Anchor Point</name>
								<value>
									<horiz>0</horiz>
									<vert>0</vert>
								</value>
							</parameter>
						</effect>
					</filter>
					<sourcetrack>
						<mediatype>video</mediatype>
					</sourcetrack>
					<fielddominance>upper</fielddominance>
				</clipitem>
				<clipitem id="C0032 ">
					<name>C0032</name>
					<duration>296</duration>
					<rate>
						<ntsc>FALSE</ntsc>
						<timebase>25</timebase>
					</rate>
					<in>0</in>
					<out>296</out>
					<start>15358</start>
					<end>15654</end>
					<pixelaspectratio>Square</pixelaspectratio>
					<anamorphic>FALSE</anamorphic>
					<alphatype>none</alphatype>
					<masterclipid>C0032 1</masterclipid>
					<logginginfo>
						<scene/>
						<shottake/>
						<lognote/>
						<good>FALSE</good>
					</logginginfo>
					<labels>
						<label2/>
					</labels>
					<comments>
						<mastercomment1/>
						<mastercomment2/>
						<mastercomment3/>
						<mastercomment4/>
					</comments>
					<file id="4_g1 1">
						<name>4_g1.mov</name>
						<pathurl>file://localhost/Volumes/Askepott/Final%20Cut%20Pro%20Documents/Color%20Renderfiles/Tords%20garasje%20-%20Flue/4/4_g1.mov</pathurl>
						<rate>
							<timebase>25</timebase>
						</rate>
						<duration>296</duration>
						<timecode>
							<rate>
								<timebase>25</timebase>
							</rate>
							<string>12:38:17:08</string>
							<frame>1137433</frame>
							<displayformat>NDF</displayformat>
							<source>source</source>
							<reel>
								<name>XDCAM 20120309_113707</name>
							</reel>
						</timecode>
						<media>
							<video>
								<duration>296</duration>
								<samplecharacteristics>
									<width>1920</width>
									<height>1080</height>
								</samplecharacteristics>
							</video>
						</media>
					</file>
					<filter>
						<effect>
							<name>Distort</name>
							<effectid>deformation</effectid>
							<effectcategory>motion</effectcategory>
							<effecttype>motion</effecttype>
							<mediatype>video</mediatype>
							<parameter>
								<parameterid>ulcorner</parameterid>
								<name>Upper Left</name>
								<value>
									<horiz>-0.5</horiz>
									<vert>-0.5</vert>
								</value>
							</parameter>
							<parameter>
								<parameterid>urcorner</parameterid>
								<name>Upper Right</name>
								<value>
									<horiz>0.5</horiz>
									<vert>-0.5</vert>
								</value>
							</parameter>
							<parameter>
								<parameterid>lrcorner</parameterid>
								<name>Lower Right</name>
								<value>
									<horiz>0.5</horiz>
									<vert>0.5</vert>
								</value>
							</parameter>
							<parameter>
								<parameterid>llcorner</parameterid>
								<name>Lower Left</name>
								<value>
									<horiz>-0.5</horiz>
									<vert>0.5</vert>
								</value>
							</parameter>
							<parameter>
								<parameterid>aspect</parameterid>
								<name>Aspect</name>
								<valuemin>-10000</valuemin>
								<valuemax>10000</valuemax>
								<value>0</value>
							</parameter>
						</effect>
					</filter>
					<filter>
						<effect>
							<name>Basic Motion</name>
							<effectid>basic</effectid>
							<effectcategory>motion</effectcategory>
							<effecttype>motion</effecttype>
							<mediatype>video</mediatype>
							<parameter>
								<parameterid>scale</parameterid>
								<name>Scale</name>
								<valuemin>0</valuemin>
								<valuemax>1000</valuemax>
								<value>100</value>
							</parameter>
							<parameter>
								<parameterid>rotation</parameterid>
								<name>Rotation</name>
								<valuemin>-8640</valuemin>
								<valuemax>8640</valuemax>
								<value>0</value>
							</parameter>
							<parameter>
								<parameterid>center</parameterid>
								<name>Center</name>
								<value>
									<horiz>0</horiz>
									<vert>0</vert>
								</value>
							</parameter>
							<parameter>
								<parameterid>centerOffset</parameterid>
								<name>Anchor Point</name>
								<value>
									<horiz>0</horiz>
									<vert>0</vert>
								</value>
							</parameter>
						</effect>
					</filter>
					<sourcetrack>
						<mediatype>video</mediatype>
					</sourcetrack>
					<fielddominance>upper</fielddominance>
				</clipitem>
				<clipitem id="C0038 ">
					<name>C0038</name>
					<duration>187</duration>
					<rate>
						<ntsc>FALSE</ntsc>
						<timebase>25</timebase>
					</rate>
					<in>0</in>
					<out>187</out>
					<start>15669</start>
					<end>15856</end>
					<pixelaspectratio>Square</pixelaspectratio>
					<anamorphic>FALSE</anamorphic>
					<alphatype>none</alphatype>
					<masterclipid>C0038 1</masterclipid>
					<logginginfo>
						<scene/>
						<shottake/>
						<lognote/>
						<good>FALSE</good>
					</logginginfo>
					<labels>
						<label2/>
					</labels>
					<comments>
						<mastercomment1/>
						<mastercomment2/>
						<mastercomment3/>
						<mastercomment4/>
					</comments>
					<file id="5_g1 1">
						<name>5_g1.mov</name>
						<pathurl>file://localhost/Volumes/Askepott/Final%20Cut%20Pro%20Documents/Color%20Renderfiles/Tords%20garasje%20-%20Flue/5/5_g1.mov</pathurl>
						<rate>
							<timebase>25</timebase>
						</rate>
						<duration>187</duration>
						<timecode>
							<rate>
								<timebase>25</timebase>
							</rate>
							<string>12:40:31:15</string>
							<frame>1140790</frame>
							<displayformat>NDF</displayformat>
							<source>source</source>
							<reel>
								<name>XDCAM 20120309_113707</name>
							</reel>
						</timecode>
						<media>
							<video>
								<duration>187</duration>
								<samplecharacteristics>
									<width>1920</width>
									<height>1080</height>
								</samplecharacteristics>
							</video>
						</media>
					</file>
					<filter>
						<effect>
							<name>Distort</name>
							<effectid>deformation</effectid>
							<effectcategory>motion</effectcategory>
							<effecttype>motion</effecttype>
							<mediatype>video</mediatype>
							<parameter>
								<parameterid>ulcorner</parameterid>
								<name>Upper Left</name>
								<value>
									<horiz>-0.5</horiz>
									<vert>-0.5</vert>
								</value>
							</parameter>
							<parameter>
								<parameterid>urcorner</parameterid>
								<name>Upper Right</name>
								<value>
									<horiz>0.5</horiz>
									<vert>-0.5</vert>
								</value>
							</parameter>
							<parameter>
								<parameterid>lrcorner</parameterid>
								<name>Lower Right</name>
								<value>
									<horiz>0.5</horiz>
									<vert>0.5</vert>
								</value>
							</parameter>
							<parameter>
								<parameterid>llcorner</parameterid>
								<name>Lower Left</name>
								<value>
									<horiz>-0.5</horiz>
									<vert>0.5</vert>
								</value>
							</parameter>
							<parameter>
								<parameterid>aspect</parameterid>
								<name>Aspect</name>
								<valuemin>-10000</valuemin>
								<valuemax>10000</valuemax>
								<value>0</value>
							</parameter>
						</effect>
					</filter>
					<filter>
						<effect>
							<name>Basic Motion</name>
							<effectid>basic</effectid>
							<effectcategory>motion</effectcategory>
							<effecttype>motion</effecttype>
							<mediatype>video</mediatype>
							<parameter>
								<parameterid>scale</parameterid>
								<name>Scale</name>
								<valuemin>0</valuemin>
								<valuemax>1000</valuemax>
								<value>100</value>
							</parameter>
							<parameter>
								<parameterid>rotation</parameterid>
								<name>Rotation</name>
								<valuemin>-8640</valuemin>
								<valuemax>8640</valuemax>
								<value>0</value>
							</parameter>
							<parameter>
								<parameterid>center</parameterid>
								<name>Center</name>
								<value>
									<horiz>0</horiz>
									<vert>0</vert>
								</value>
							</parameter>
							<parameter>
								<parameterid>centerOffset</parameterid>
								<name>Anchor Point</name>
								<value>
									<horiz>0</horiz>
									<vert>0</vert>
								</value>
							</parameter>
						</effect>
					</filter>
					<sourcetrack>
						<mediatype>video</mediatype>
					</sourcetrack>
					<fielddominance>upper</fielddominance>
				</clipitem>
				<clipitem id="C0042 7">
					<name>C0042</name>
					<duration>139</duration>
					<rate>
						<ntsc>FALSE</ntsc>
						<timebase>25</timebase>
					</rate>
					<in>0</in>
					<out>139</out>
					<start>15856</start>
					<end>15995</end>
					<pixelaspectratio>Square</pixelaspectratio>
					<anamorphic>FALSE</anamorphic>
					<alphatype>none</alphatype>
					<masterclipid>C0042 1</masterclipid>
					<logginginfo>
						<scene/>
						<shottake/>
						<lognote/>
						<good>FALSE</good>
					</logginginfo>
					<labels>
						<label2/>
					</labels>
					<comments>
						<mastercomment1/>
						<mastercomment2/>
						<mastercomment3/>
						<mastercomment4/>
					</comments>
					<file id="6_g1 "/>
					<filter>
						<effect>
							<name>Distort</name>
							<effectid>deformation</effectid>
							<effectcategory>motion</effectcategory>
							<effecttype>motion</effecttype>
							<mediatype>video</mediatype>
							<parameter>
								<parameterid>ulcorner</parameterid>
								<name>Upper Left</name>
								<value>
									<horiz>-0.5</horiz>
									<vert>-0.5</vert>
								</value>
							</parameter>
							<parameter>
								<parameterid>urcorner</parameterid>
								<name>Upper Right</name>
								<value>
									<horiz>0.5</horiz>
									<vert>-0.5</vert>
								</value>
							</parameter>
							<parameter>
								<parameterid>lrcorner</parameterid>
								<name>Lower Right</name>
								<value>
									<horiz>0.5</horiz>
									<vert>0.5</vert>
								</value>
							</parameter>
							<parameter>
								<parameterid>llcorner</parameterid>
								<name>Lower Left</name>
								<value>
									<horiz>-0.5</horiz>
									<vert>0.5</vert>
								</value>
							</parameter>
							<parameter>
								<parameterid>aspect</parameterid>
								<name>Aspect</name>
								<valuemin>-10000</valuemin>
								<valuemax>10000</valuemax>
								<value>0</value>
							</parameter>
						</effect>
					</filter>
					<filter>
						<effect>
							<name>Basic Motion</name>
							<effectid>basic</effectid>
							<effectcategory>motion</effectcategory>
							<effecttype>motion</effecttype>
							<mediatype>video</mediatype>
							<parameter>
								<parameterid>scale</parameterid>
								<name>Scale</name>
								<valuemin>0</valuemin>
								<valuemax>1000</valuemax>
								<value>100</value>
							</parameter>
							<parameter>
								<parameterid>rotation</parameterid>
								<name>Rotation</name>
								<valuemin>-8640</valuemin>
								<valuemax>8640</valuemax>
								<value>0</value>
							</parameter>
							<parameter>
								<parameterid>center</parameterid>
								<name>Center</name>
								<value>
									<horiz>0</horiz>
									<vert>0</vert>
								</value>
							</parameter>
							<parameter>
								<parameterid>centerOffset</parameterid>
								<name>Anchor Point</name>
								<value>
									<horiz>0</horiz>
									<vert>0</vert>
								</value>
							</parameter>
						</effect>
					</filter>
					<sourcetrack>
						<mediatype>video</mediatype>
					</sourcetrack>
					<fielddominance>upper</fielddominance>
				</clipitem>
				<clipitem id="C0041 5">
					<name>C0041</name>
					<duration>92</duration>
					<rate>
						<ntsc>FALSE</ntsc>
						<timebase>25</timebase>
					</rate>
					<in>0</in>
					<out>92</out>
					<start>15995</start>
					<end>16087</end>
					<pixelaspectratio>Square</pixelaspectratio>
					<anamorphic>FALSE</anamorphic>
					<alphatype>none</alphatype>
					<masterclipid>C0041 6</masterclipid>
					<logginginfo>
						<scene/>
						<shottake/>
						<lognote/>
						<good>FALSE</good>
					</logginginfo>
					<labels>
						<label2/>
					</labels>
					<comments>
						<mastercomment1/>
						<mastercomment2/>
						<mastercomment3/>
						<mastercomment4/>
					</comments>
					<file id="7_g1 1">
						<name>7_g1.mov</name>
						<pathurl>file://localhost/Volumes/Askepott/Final%20Cut%20Pro%20Documents/Color%20Renderfiles/Tords%20garasje%20-%20Flue/7/7_g1.mov</pathurl>
						<rate>
							<timebase>25</timebase>
						</rate>
						<duration>92</duration>
						<timecode>
							<rate>
								<timebase>25</timebase>
							</rate>
							<string>12:42:01:15</string>
							<frame>1143040</frame>
							<displayformat>NDF</displayformat>
							<source>source</source>
							<reel>
								<name>XDCAM 20120309_113707</name>
							</reel>
						</timecode>
						<media>
							<video>
								<duration>92</duration>
								<samplecharacteristics>
									<width>1920</width>
									<height>1080</height>
								</samplecharacteristics>
							</video>
						</media>
					</file>
					<filter>
						<effect>
							<name>Distort</name>
							<effectid>deformation</effectid>
							<effectcategory>motion</effectcategory>
							<effecttype>motion</effecttype>
							<mediatype>video</mediatype>
							<parameter>
								<parameterid>ulcorner</parameterid>
								<name>Upper Left</name>
								<value>
									<horiz>-0.5</horiz>
									<vert>-0.5</vert>
								</value>
							</parameter>
							<parameter>
								<parameterid>urcorner</parameterid>
								<name>Upper Right</name>
								<value>
									<horiz>0.5</horiz>
									<vert>-0.5</vert>
								</value>
							</parameter>
							<parameter>
								<parameterid>lrcorner</parameterid>
								<name>Lower Right</name>
								<value>
									<horiz>0.5</horiz>
									<vert>0.5</vert>
								</value>
							</parameter>
							<parameter>
								<parameterid>llcorner</parameterid>
								<name>Lower Left</name>
								<value>
									<horiz>-0.5</horiz>
									<vert>0.5</vert>
								</value>
							</parameter>
							<parameter>
								<parameterid>aspect</parameterid>
								<name>Aspect</name>
								<valuemin>-10000</valuemin>
								<valuemax>10000</valuemax>
								<value>0</value>
							</parameter>
						</effect>
					</filter>
					<filter>
						<effect>
							<name>Basic Motion</name>
							<effectid>basic</effectid>
							<effectcategory>motion</effectcategory>
							<effecttype>motion</effecttype>
							<mediatype>video</mediatype>
							<parameter>
								<parameterid>scale</parameterid>
								<name>Scale</name>
								<valuemin>0</valuemin>
								<valuemax>1000</valuemax>
								<value>100</value>
							</parameter>
							<parameter>
								<parameterid>rotation</parameterid>
								<name>Rotation</name>
								<valuemin>-8640</valuemin>
								<valuemax>8640</valuemax>
								<value>0</value>
							</parameter>
							<parameter>
								<parameterid>center</parameterid>
								<name>Center</name>
								<value>
									<horiz>0</horiz>
									<vert>0</vert>
								</value>
							</parameter>
							<parameter>
								<parameterid>centerOffset</parameterid>
								<name>Anchor Point</name>
								<value>
									<horiz>0</horiz>
									<vert>0</vert>
								</value>
							</parameter>
						</effect>
					</filter>
					<sourcetrack>
						<mediatype>video</mediatype>
					</sourcetrack>
					<fielddominance>upper</fielddominance>
				</clipitem>
				<clipitem id="C0045 3">
					<name>C0045</name>
					<duration>79</duration>
					<rate>
						<ntsc>FALSE</ntsc>
						<timebase>25</timebase>
					</rate>
					<in>0</in>
					<out>79</out>
					<start>16243</start>
					<end>16322</end>
					<pixelaspectratio>Square</pixelaspectratio>
					<enabled>TRUE</enabled>
					<anamorphic>FALSE</anamorphic>
					<alphatype>none</alphatype>
					<masterclipid>C0045 4</masterclipid>
					<logginginfo>
						<scene/>
						<shottake/>
						<lognote/>
						<good>FALSE</good>
					</logginginfo>
					<labels>
						<label2/>
					</labels>
					<comments>
						<mastercomment1/>
						<mastercomment2/>
						<mastercomment3/>
						<mastercomment4/>
					</comments>
					<file id="8_g1 1">
						<name>8_g1.mov</name>
						<pathurl>file://localhost/Volumes/Askepott/Final%20Cut%20Pro%20Documents/Color%20Renderfiles/Tords%20garasje%20-%20Flue/8/8_g1.mov</pathurl>
						<rate>
							<timebase>25</timebase>
						</rate>
						<duration>79</duration>
						<timecode>
							<rate>
								<timebase>25</timebase>
							</rate>
							<string>12:43:04:06</string>
							<frame>1144606</frame>
							<displayformat>NDF</displayformat>
							<source>source</source>
							<reel>
								<name>XDCAM 20120309_113707</name>
							</reel>
						</timecode>
						<media>
							<video>
								<duration>79</duration>
								<samplecharacteristics>
									<width>1920</width>
									<height>1080</height>
								</samplecharacteristics>
							</video>
						</media>
					</file>
					<filter>
						<effect>
							<name>Distort</name>
							<effectid>deformation</effectid>
							<effectcategory>motion</effectcategory>
							<effecttype>motion</effecttype>
							<mediatype>video</mediatype>
							<parameter>
								<parameterid>ulcorner</parameterid>
								<name>Upper Left</name>
								<value>
									<horiz>-0.5</horiz>
									<vert>-0.5</vert>
								</value>
							</parameter>
							<parameter>
								<parameterid>urcorner</parameterid>
								<name>Upper Right</name>
								<value>
									<horiz>0.5</horiz>
									<vert>-0.5</vert>
								</value>
							</parameter>
							<parameter>
								<parameterid>lrcorner</parameterid>
								<name>Lower Right</name>
								<value>
									<horiz>0.5</horiz>
									<vert>0.5</vert>
								</value>
							</parameter>
							<parameter>
								<parameterid>llcorner</parameterid>
								<name>Lower Left</name>
								<value>
									<horiz>-0.5</horiz>
									<vert>0.5</vert>
								</value>
							</parameter>
							<parameter>
								<parameterid>aspect</parameterid>
								<name>Aspect</name>
								<valuemin>-10000</valuemin>
								<valuemax>10000</valuemax>
								<value>0</value>
							</parameter>
						</effect>
					</filter>
					<filter>
						<effect>
							<name>Basic Motion</name>
							<effectid>basic</effectid>
							<effectcategory>motion</effectcategory>
							<effecttype>motion</effecttype>
							<mediatype>video</mediatype>
							<parameter>
								<parameterid>scale</parameterid>
								<name>Scale</name>
								<valuemin>0</valuemin>
								<valuemax>1000</valuemax>
								<value>100</value>
							</parameter>
							<parameter>
								<parameterid>rotation</parameterid>
								<name>Rotation</name>
								<valuemin>-8640</valuemin>
								<valuemax>8640</valuemax>
								<value>0</value>
							</parameter>
							<parameter>
								<parameterid>center</parameterid>
								<name>Center</name>
								<value>
									<horiz>0</horiz>
									<vert>0</vert>
								</value>
							</parameter>
							<parameter>
								<parameterid>centerOffset</parameterid>
								<name>Anchor Point</name>
								<value>
									<horiz>0</horiz>
									<vert>0</vert>
								</value>
							</parameter>
						</effect>
					</filter>
					<sourcetrack>
						<mediatype>video</mediatype>
					</sourcetrack>
					<fielddominance>upper</fielddominance>
				</clipitem>
				<clipitem id="C0050 11">
					<name>C0050</name>
					<duration>356</duration>
					<rate>
						<ntsc>FALSE</ntsc>
						<timebase>25</timebase>
					</rate>
					<in>0</in>
					<out>356</out>
					<start>16322</start>
					<end>16678</end>
					<pixelaspectratio>Square</pixelaspectratio>
					<enabled>TRUE</enabled>
					<anamorphic>FALSE</anamorphic>
					<alphatype>none</alphatype>
					<masterclipid>C0050 12</masterclipid>
					<logginginfo>
						<scene/>
						<shottake/>
						<lognote/>
						<good>FALSE</good>
					</logginginfo>
					<labels>
						<label2/>
					</labels>
					<comments>
						<mastercomment1/>
						<mastercomment2/>
						<mastercomment3/>
						<mastercomment4/>
					</comments>
					<file id="9_g1 1">
						<name>9_g1.mov</name>
						<pathurl>file://localhost/Volumes/Askepott/Final%20Cut%20Pro%20Documents/Color%20Renderfiles/Tords%20garasje%20-%20Flue/9/9_g1.mov</pathurl>
						<rate>
							<timebase>25</timebase>
						</rate>
						<duration>356</duration>
						<timecode>
							<rate>
								<timebase>25</timebase>
							</rate>
							<string>12:44:45:18</string>
							<frame>1147143</frame>
							<displayformat>NDF</displayformat>
							<source>source</source>
							<reel>
								<name>XDCAM 20120309_113707</name>
							</reel>
						</timecode>
						<media>
							<video>
								<duration>356</duration>
								<samplecharacteristics>
									<width>1920</width>
									<height>1080</height>
								</samplecharacteristics>
							</video>
						</media>
					</file>
					<filter>
						<effect>
							<name>Distort</name>
							<effectid>deformation</effectid>
							<effectcategory>motion</effectcategory>
							<effecttype>motion</effecttype>
							<mediatype>video</mediatype>
							<parameter>
								<parameterid>ulcorner</parameterid>
								<name>Upper Left</name>
								<value>
									<horiz>-0.5</horiz>
									<vert>-0.5</vert>
								</value>
							</parameter>
							<parameter>
								<parameterid>urcorner</parameterid>
								<name>Upper Right</name>
								<value>
									<horiz>0.5</horiz>
									<vert>-0.5</vert>
								</value>
							</parameter>
							<parameter>
								<parameterid>lrcorner</parameterid>
								<name>Lower Right</name>
								<value>
									<horiz>0.5</horiz>
									<vert>0.5</vert>
								</value>
							</parameter>
							<parameter>
								<parameterid>llcorner</parameterid>
								<name>Lower Left</name>
								<value>
									<horiz>-0.5</horiz>
									<vert>0.5</vert>
								</value>
							</parameter>
							<parameter>
								<parameterid>aspect</parameterid>
								<name>Aspect</name>
								<valuemin>-10000</valuemin>
								<valuemax>10000</valuemax>
								<value>0</value>
							</parameter>
						</effect>
					</filter>
					<filter>
						<effect>
							<name>Basic Motion</name>
							<effectid>basic</effectid>
							<effectcategory>motion</effectcategory>
							<effecttype>motion</effecttype>
							<mediatype>video</mediatype>
							<parameter>
								<parameterid>scale</parameterid>
								<name>Scale</name>
								<valuemin>0</valuemin>
								<valuemax>1000</valuemax>
								<value>100</value>
							</parameter>
							<parameter>
								<parameterid>rotation</parameterid>
								<name>Rotation</name>
								<valuemin>-8640</valuemin>
								<valuemax>8640</valuemax>
								<value>0</value>
							</parameter>
							<parameter>
								<parameterid>center</parameterid>
								<name>Center</name>
								<value>
									<horiz>0</horiz>
									<vert>0</vert>
								</value>
							</parameter>
							<parameter>
								<parameterid>centerOffset</parameterid>
								<name>Anchor Point</name>
								<value>
									<horiz>0</horiz>
									<vert>0</vert>
								</value>
							</parameter>
						</effect>
					</filter>
					<sourcetrack>
						<mediatype>video</mediatype>
					</sourcetrack>
					<fielddominance>upper</fielddominance>
				</clipitem>
				<clipitem id="C0054 5">
					<name>C0054</name>
					<duration>385</duration>
					<rate>
						<ntsc>FALSE</ntsc>
						<timebase>25</timebase>
					</rate>
					<in>32</in>
					<out>236</out>
					<start>16678</start>
					<end>16882</end>
					<pixelaspectratio>Square</pixelaspectratio>
					<anamorphic>FALSE</anamorphic>
					<alphatype>none</alphatype>
					<masterclipid>C0054 6</masterclipid>
					<logginginfo>
						<scene/>
						<shottake/>
						<lognote/>
						<good>FALSE</good>
					</logginginfo>
					<labels>
						<label2/>
					</labels>
					<comments>
						<mastercomment1/>
						<mastercomment2/>
						<mastercomment3/>
						<mastercomment4/>
					</comments>
					<file id="C0054 7">
						<name>C0054.mov</name>
						<pathurl>file://localhost/Volumes/Askepott/Prosjekter/DNPR637010_Kra%CC%8Akeklubben_TEM_011212/Video/Tords%20Garasje/SESONG%203/Flue/XDCAM/C0054.mov</pathurl>
						<rate>
							<timebase>25</timebase>
						</rate>
						<duration>385</duration>
						<timecode>
							<rate>
								<timebase>25</timebase>
							</rate>
							<string>12:46:24:08</string>
							<frame>1149608</frame>
							<displayformat>NDF</displayformat>
							<source>source</source>
							<reel>
								<name>XDCAM 20120309_113707</name>
							</reel>
						</timecode>
						<media>
							<video>
								<duration>385</duration>
								<samplecharacteristics>
									<width>1920</width>
									<height>1080</height>
								</samplecharacteristics>
							</video>
							<audio>
								<rate>
									<timebase>48000</timebase>
								</rate>
								<trackcount>1</trackcount>
								<channeldescription>8 Channels</channeldescription>
								<samplecharacteristics>
									<depth>24</depth>
								</samplecharacteristics>
							</audio>
						</media>
					</file>
					<sourcetrack>
						<mediatype>video</mediatype>
					</sourcetrack>
					<link>
						<linkclipref>C0054 5</linkclipref>
						<mediatype>video</mediatype>
						<trackindex>1</trackindex>
						<clipindex>120</clipindex>
					</link>
					<link>
						<linkclipref>C0054 8</linkclipref>
						<mediatype>audio</mediatype>
						<trackindex>1</trackindex>
						<clipindex>157</clipindex>
					</link>
					<fielddominance>upper</fielddominance>
				</clipitem>
				<clipitem id="C0055 5">
					<name>C0055</name>
					<duration>36</duration>
					<rate>
						<ntsc>FALSE</ntsc>
						<timebase>25</timebase>
					</rate>
					<in>0</in>
					<out>36</out>
					<start>16887</start>
					<end>16923</end>
					<pixelaspectratio>Square</pixelaspectratio>
					<anamorphic>FALSE</anamorphic>
					<alphatype>none</alphatype>
					<masterclipid>C0055 6</masterclipid>
					<logginginfo>
						<scene/>
						<shottake/>
						<lognote/>
						<good>FALSE</good>
					</logginginfo>
					<labels>
						<label2/>
					</labels>
					<comments>
						<mastercomment1/>
						<mastercomment2/>
						<mastercomment3/>
						<mastercomment4/>
					</comments>
					<file id="11_g1 1">
						<name>11_g1.mov</name>
						<pathurl>file://localhost/Volumes/Askepott/Final%20Cut%20Pro%20Documents/Color%20Renderfiles/Tords%20garasje%20-%20Flue/11/11_g1.mov</pathurl>
						<rate>
							<timebase>25</timebase>
						</rate>
						<duration>36</duration>
						<timecode>
							<rate>
								<timebase>25</timebase>
							</rate>
							<string>12:46:50:06</string>
							<frame>1150256</frame>
							<displayformat>NDF</displayformat>
							<source>source</source>
							<reel>
								<name>XDCAM 20120309_113707</name>
							</reel>
						</timecode>
						<media>
							<video>
								<duration>36</duration>
								<samplecharacteristics>
									<width>1920</width>
									<height>1080</height>
								</samplecharacteristics>
							</video>
						</media>
					</file>
					<filter>
						<effect>
							<name>Distort</name>
							<effectid>deformation</effectid>
							<effectcategory>motion</effectcategory>
							<effecttype>motion</effecttype>
							<mediatype>video</mediatype>
							<parameter>
								<parameterid>ulcorner</parameterid>
								<name>Upper Left</name>
								<value>
									<horiz>-0.5</horiz>
									<vert>-0.5</vert>
								</value>
							</parameter>
							<parameter>
								<parameterid>urcorner</parameterid>
								<name>Upper Right</name>
								<value>
									<horiz>0.5</horiz>
									<vert>-0.5</vert>
								</value>
							</parameter>
							<parameter>
								<parameterid>lrcorner</parameterid>
								<name>Lower Right</name>
								<value>
									<horiz>0.5</horiz>
									<vert>0.5</vert>
								</value>
							</parameter>
							<parameter>
								<parameterid>llcorner</parameterid>
								<name>Lower Left</name>
								<value>
									<horiz>-0.5</horiz>
									<vert>0.5</vert>
								</value>
							</parameter>
							<parameter>
								<parameterid>aspect</parameterid>
								<name>Aspect</name>
								<valuemin>-10000</valuemin>
								<valuemax>10000</valuemax>
								<value>0</value>
							</parameter>
						</effect>
					</filter>
					<filter>
						<effect>
							<name>Basic Motion</name>
							<effectid>basic</effectid>
							<effectcategory>motion</effectcategory>
							<effecttype>motion</effecttype>
							<mediatype>video</mediatype>
							<parameter>
								<parameterid>scale</parameterid>
								<name>Scale</name>
								<valuemin>0</valuemin>
								<valuemax>1000</valuemax>
								<value>100</value>
							</parameter>
							<parameter>
								<parameterid>rotation</parameterid>
								<name>Rotation</name>
								<valuemin>-8640</valuemin>
								<valuemax>8640</valuemax>
								<value>0</value>
							</parameter>
							<parameter>
								<parameterid>center</parameterid>
								<name>Center</name>
								<value>
									<horiz>0</horiz>
									<vert>0</vert>
								</value>
							</parameter>
							<parameter>
								<parameterid>centerOffset</parameterid>
								<name>Anchor Point</name>
								<value>
									<horiz>0</horiz>
									<vert>0</vert>
								</value>
							</parameter>
						</effect>
					</filter>
					<sourcetrack>
						<mediatype>video</mediatype>
					</sourcetrack>
					<fielddominance>upper</fielddominance>
				</clipitem>
				<clipitem id="C0015 ">
					<name>C0015</name>
					<duration>111</duration>
					<rate>
						<ntsc>FALSE</ntsc>
						<timebase>25</timebase>
					</rate>
					<in>0</in>
					<out>111</out>
					<start>17244</start>
					<end>17355</end>
					<pixelaspectratio>Square</pixelaspectratio>
					<anamorphic>FALSE</anamorphic>
					<alphatype>none</alphatype>
					<masterclipid>C0015 1</masterclipid>
					<logginginfo>
						<scene/>
						<shottake/>
						<lognote/>
						<good>FALSE</good>
					</logginginfo>
					<labels>
						<label2/>
					</labels>
					<comments>
						<mastercomment1/>
						<mastercomment2/>
						<mastercomment3/>
						<mastercomment4/>
					</comments>
					<file id="12_g1 1">
						<name>12_g1.mov</name>
						<pathurl>file://localhost/Volumes/Askepott/Final%20Cut%20Pro%20Documents/Color%20Renderfiles/Tords%20garasje%20-%20Flue/12/12_g1.mov</pathurl>
						<rate>
							<timebase>25</timebase>
						</rate>
						<duration>111</duration>
						<timecode>
							<rate>
								<timebase>25</timebase>
							</rate>
							<string>12:26:40:01</string>
							<frame>1120001</frame>
							<displayformat>NDF</displayformat>
							<source>source</source>
							<reel>
								<name>XDCAM 20120309_113707</name>
							</reel>
						</timecode>
						<media>
							<video>
								<duration>111</duration>
								<samplecharacteristics>
									<width>1920</width>
									<height>1080</height>
								</samplecharacteristics>
							</video>
						</media>
					</file>
					<filter>
						<effect>
							<name>Distort</name>
							<effectid>deformation</effectid>
							<effectcategory>motion</effectcategory>
							<effecttype>motion</effecttype>
							<mediatype>video</mediatype>
							<parameter>
								<parameterid>ulcorner</parameterid>
								<name>Upper Left</name>
								<value>
									<horiz>-0.5</horiz>
									<vert>-0.5</vert>
								</value>
							</parameter>
							<parameter>
								<parameterid>urcorner</parameterid>
								<name>Upper Right</name>
								<value>
									<horiz>0.5</horiz>
									<vert>-0.5</vert>
								</value>
							</parameter>
							<parameter>
								<parameterid>lrcorner</parameterid>
								<name>Lower Right</name>
								<value>
									<horiz>0.5</horiz>
									<vert>0.5</vert>
								</value>
							</parameter>
							<parameter>
								<parameterid>llcorner</parameterid>
								<name>Lower Left</name>
								<value>
									<horiz>-0.5</horiz>
									<vert>0.5</vert>
								</value>
							</parameter>
							<parameter>
								<parameterid>aspect</parameterid>
								<name>Aspect</name>
								<valuemin>-10000</valuemin>
								<valuemax>10000</valuemax>
								<value>0</value>
							</parameter>
						</effect>
					</filter>
					<filter>
						<effect>
							<name>Basic Motion</name>
							<effectid>basic</effectid>
							<effectcategory>motion</effectcategory>
							<effecttype>motion</effecttype>
							<mediatype>video</mediatype>
							<parameter>
								<parameterid>scale</parameterid>
								<name>Scale</name>
								<valuemin>0</valuemin>
								<valuemax>1000</valuemax>
								<value>100</value>
							</parameter>
							<parameter>
								<parameterid>rotation</parameterid>
								<name>Rotation</name>
								<valuemin>-8640</valuemin>
								<valuemax>8640</valuemax>
								<value>0</value>
							</parameter>
							<parameter>
								<parameterid>center</parameterid>
								<name>Center</name>
								<value>
									<horiz>0</horiz>
									<vert>0</vert>
								</value>
							</parameter>
							<parameter>
								<parameterid>centerOffset</parameterid>
								<name>Anchor Point</name>
								<value>
									<horiz>0</horiz>
									<vert>0</vert>
								</value>
							</parameter>
						</effect>
					</filter>
					<sourcetrack>
						<mediatype>video</mediatype>
					</sourcetrack>
					<fielddominance>upper</fielddominance>
				</clipitem>
				<clipitem id="C0016 ">
					<name>C0016</name>
					<duration>109</duration>
					<rate>
						<ntsc>FALSE</ntsc>
						<timebase>25</timebase>
					</rate>
					<in>0</in>
					<out>109</out>
					<start>17355</start>
					<end>17464</end>
					<pixelaspectratio>Square</pixelaspectratio>
					<anamorphic>FALSE</anamorphic>
					<alphatype>none</alphatype>
					<masterclipid>C0016 1</masterclipid>
					<logginginfo>
						<scene/>
						<shottake/>
						<lognote/>
						<good>FALSE</good>
					</logginginfo>
					<labels>
						<label2/>
					</labels>
					<comments>
						<mastercomment1/>
						<mastercomment2/>
						<mastercomment3/>
						<mastercomment4/>
					</comments>
					<file id="13_g1 1">
						<name>13_g1.mov</name>
						<pathurl>file://localhost/Volumes/Askepott/Final%20Cut%20Pro%20Documents/Color%20Renderfiles/Tords%20garasje%20-%20Flue/13/13_g1.mov</pathurl>
						<rate>
							<timebase>25</timebase>
						</rate>
						<duration>109</duration>
						<timecode>
							<rate>
								<timebase>25</timebase>
							</rate>
							<string>12:28:28:23</string>
							<frame>1122723</frame>
							<displayformat>NDF</displayformat>
							<source>source</source>
							<reel>
								<name>XDCAM 20120309_113707</name>
							</reel>
						</timecode>
						<media>
							<video>
								<duration>109</duration>
								<samplecharacteristics>
									<width>1920</width>
									<height>1080</height>
								</samplecharacteristics>
							</video>
						</media>
					</file>
					<filter>
						<effect>
							<name>Distort</name>
							<effectid>deformation</effectid>
							<effectcategory>motion</effectcategory>
							<effecttype>motion</effecttype>
							<mediatype>video</mediatype>
							<parameter>
								<parameterid>ulcorner</parameterid>
								<name>Upper Left</name>
								<value>
									<horiz>-0.5</horiz>
									<vert>-0.5</vert>
								</value>
							</parameter>
							<parameter>
								<parameterid>urcorner</parameterid>
								<name>Upper Right</name>
								<value>
									<horiz>0.5</horiz>
									<vert>-0.5</vert>
								</value>
							</parameter>
							<parameter>
								<parameterid>lrcorner</parameterid>
								<name>Lower Right</name>
								<value>
									<horiz>0.5</horiz>
									<vert>0.5</vert>
								</value>
							</parameter>
							<parameter>
								<parameterid>llcorner</parameterid>
								<name>Lower Left</name>
								<value>
									<horiz>-0.5</horiz>
									<vert>0.5</vert>
								</value>
							</parameter>
							<parameter>
								<parameterid>aspect</parameterid>
								<name>Aspect</name>
								<valuemin>-10000</valuemin>
								<valuemax>10000</valuemax>
								<value>0</value>
							</parameter>
						</effect>
					</filter>
					<filter>
						<effect>
							<name>Basic Motion</name>
							<effectid>basic</effectid>
							<effectcategory>motion</effectcategory>
							<effecttype>motion</effecttype>
							<mediatype>video</mediatype>
							<parameter>
								<parameterid>scale</parameterid>
								<name>Scale</name>
								<valuemin>0</valuemin>
								<valuemax>1000</valuemax>
								<value>100</value>
							</parameter>
							<parameter>
								<parameterid>rotation</parameterid>
								<name>Rotation</name>
								<valuemin>-8640</valuemin>
								<valuemax>8640</valuemax>
								<value>0</value>
							</parameter>
							<parameter>
								<parameterid>center</parameterid>
								<name>Center</name>
								<value>
									<horiz>0</horiz>
									<vert>0</vert>
								</value>
							</parameter>
							<parameter>
								<parameterid>centerOffset</parameterid>
								<name>Anchor Point</name>
								<value>
									<horiz>0</horiz>
									<vert>0</vert>
								</value>
							</parameter>
						</effect>
					</filter>
					<sourcetrack>
						<mediatype>video</mediatype>
					</sourcetrack>
					<fielddominance>upper</fielddominance>
				</clipitem>
				<clipitem id="C0005 6">
					<name>C0005</name>
					<duration>234</duration>
					<rate>
						<ntsc>FALSE</ntsc>
						<timebase>25</timebase>
					</rate>
					<in>0</in>
					<out>234</out>
					<start>17672</start>
					<end>17906</end>
					<pixelaspectratio>Square</pixelaspectratio>
					<enabled>TRUE</enabled>
					<anamorphic>FALSE</anamorphic>
					<alphatype>none</alphatype>
					<masterclipid>C0005 7</masterclipid>
					<logginginfo>
						<scene/>
						<shottake/>
						<lognote/>
						<good>FALSE</good>
					</logginginfo>
					<labels>
						<label2/>
					</labels>
					<comments>
						<mastercomment1/>
						<mastercomment2/>
						<mastercomment3/>
						<mastercomment4/>
					</comments>
					<file id="14_g1 1">
						<name>14_g1.mov</name>
						<pathurl>file://localhost/Volumes/Askepott/Final%20Cut%20Pro%20Documents/Color%20Renderfiles/Tords%20garasje%20-%20Flue/14/14_g1.mov</pathurl>
						<rate>
							<timebase>25</timebase>
						</rate>
						<duration>234</duration>
						<timecode>
							<rate>
								<timebase>25</timebase>
							</rate>
							<string>12:21:27:10</string>
							<frame>1112185</frame>
							<displayformat>NDF</displayformat>
							<source>source</source>
							<reel>
								<name>XDCAM 20120309_113707</name>
							</reel>
						</timecode>
						<media>
							<video>
								<duration>234</duration>
								<samplecharacteristics>
									<width>1920</width>
									<height>1080</height>
								</samplecharacteristics>
							</video>
						</media>
					</file>
					<filter>
						<effect>
							<name>Distort</name>
							<effectid>deformation</effectid>
							<effectcategory>motion</effectcategory>
							<effecttype>motion</effecttype>
							<mediatype>video</mediatype>
							<parameter>
								<parameterid>ulcorner</parameterid>
								<name>Upper Left</name>
								<value>
									<horiz>-0.5</horiz>
									<vert>-0.5</vert>
								</value>
							</parameter>
							<parameter>
								<parameterid>urcorner</parameterid>
								<name>Upper Right</name>
								<value>
									<horiz>0.5</horiz>
									<vert>-0.5</vert>
								</value>
							</parameter>
							<parameter>
								<parameterid>lrcorner</parameterid>
								<name>Lower Right</name>
								<value>
									<horiz>0.5</horiz>
									<vert>0.5</vert>
								</value>
							</parameter>
							<parameter>
								<parameterid>llcorner</parameterid>
								<name>Lower Left</name>
								<value>
									<horiz>-0.5</horiz>
									<vert>0.5</vert>
								</value>
							</parameter>
							<parameter>
								<parameterid>aspect</parameterid>
								<name>Aspect</name>
								<valuemin>-10000</valuemin>
								<valuemax>10000</valuemax>
								<value>0</value>
							</parameter>
						</effect>
					</filter>
					<filter>
						<effect>
							<name>Basic Motion</name>
							<effectid>basic</effectid>
							<effectcategory>motion</effectcategory>
							<effecttype>motion</effecttype>
							<mediatype>video</mediatype>
							<parameter>
								<parameterid>scale</parameterid>
								<name>Scale</name>
								<valuemin>0</valuemin>
								<valuemax>1000</valuemax>
								<value>100</value>
							</parameter>
							<parameter>
								<parameterid>rotation</parameterid>
								<name>Rotation</name>
								<valuemin>-8640</valuemin>
								<valuemax>8640</valuemax>
								<value>0</value>
							</parameter>
							<parameter>
								<parameterid>center</parameterid>
								<name>Center</name>
								<value>
									<horiz>0</horiz>
									<vert>0</vert>
								</value>
							</parameter>
							<parameter>
								<parameterid>centerOffset</parameterid>
								<name>Anchor Point</name>
								<value>
									<horiz>0</horiz>
									<vert>0</vert>
								</value>
							</parameter>
						</effect>
					</filter>
					<sourcetrack>
						<mediatype>video</mediatype>
					</sourcetrack>
					<fielddominance>upper</fielddominance>
				</clipitem>
				<clipitem id="SC6ATK829 ">
					<name>SC6ATK829</name>
					<duration>175</duration>
					<rate>
						<ntsc>FALSE</ntsc>
						<timebase>25</timebase>
					</rate>
					<in>7</in>
					<out>175</out>
					<start>17906</start>
					<end>-1</end>
					<pixelaspectratio>Square</pixelaspectratio>
					<enabled>TRUE</enabled>
					<anamorphic>FALSE</anamorphic>
					<alphatype>none</alphatype>
					<masterclipid>SC6ATK829 1</masterclipid>
					<logginginfo>
						<scene/>
						<shottake/>
						<lognote/>
						<good>FALSE</good>
					</logginginfo>
					<labels>
						<label2/>
					</labels>
					<comments>
						<mastercomment1/>
						<mastercomment2/>
						<mastercomment3/>
						<mastercomment4/>
					</comments>
					<file id="17_g1 1">
						<name>17_g1.mov</name>
						<pathurl>file://localhost/Volumes/Askepott/Final%20Cut%20Pro%20Documents/Color%20Renderfiles/Tords%20garasje%20-%20Flue/17/17_g1.mov</pathurl>
						<rate>
							<timebase>25</timebase>
						</rate>
						<duration>175</duration>
						<timecode>
							<rate>
								<timebase>25</timebase>
							</rate>
							<string>00:00:05:16</string>
							<frame>141</frame>
							<displayformat>NDF</displayformat>
							<source>source</source>
							<reel>
								<name>1</name>
							</reel>
						</timecode>
						<media>
							<video>
								<duration>175</duration>
								<samplecharacteristics>
									<width>1920</width>
									<height>1080</height>
								</samplecharacteristics>
							</video>
						</media>
					</file>
					<filter>
						<effect>
							<name>Distort</name>
							<effectid>deformation</effectid>
							<effectcategory>motion</effectcategory>
							<effecttype>motion</effecttype>
							<mediatype>video</mediatype>
							<parameter>
								<parameterid>ulcorner</parameterid>
								<name>Upper Left</name>
								<value>
									<horiz>-0.5</horiz>
									<vert>-0.5</vert>
								</value>
							</parameter>
							<parameter>
								<parameterid>urcorner</parameterid>
								<name>Upper Right</name>
								<value>
									<horiz>0.5</horiz>
									<vert>-0.5</vert>
								</value>
							</parameter>
							<parameter>
								<parameterid>lrcorner</parameterid>
								<name>Lower Right</name>
								<value>
									<horiz>0.5</horiz>
									<vert>0.5</vert>
								</value>
							</parameter>
							<parameter>
								<parameterid>llcorner</parameterid>
								<name>Lower Left</name>
								<value>
									<horiz>-0.5</horiz>
									<vert>0.5</vert>
								</value>
							</parameter>
							<parameter>
								<parameterid>aspect</parameterid>
								<name>Aspect</name>
								<valuemin>-10000</valuemin>
								<valuemax>10000</valuemax>
								<value>0</value>
							</parameter>
						</effect>
					</filter>
					<filter>
						<effect>
							<name>Basic Motion</name>
							<effectid>basic</effectid>
							<effectcategory>motion</effectcategory>
							<effecttype>motion</effecttype>
							<mediatype>video</mediatype>
							<parameter>
								<parameterid>scale</parameterid>
								<name>Scale</name>
								<valuemin>0</valuemin>
								<valuemax>1000</valuemax>
								<value>100</value>
							</parameter>
							<parameter>
								<parameterid>rotation</parameterid>
								<name>Rotation</name>
								<valuemin>-8640</valuemin>
								<valuemax>8640</valuemax>
								<value>0</value>
							</parameter>
							<parameter>
								<parameterid>center</parameterid>
								<name>Center</name>
								<value>
									<horiz>0</horiz>
									<vert>0</vert>
								</value>
							</parameter>
							<parameter>
								<parameterid>centerOffset</parameterid>
								<name>Anchor Point</name>
								<value>
									<horiz>0</horiz>
									<vert>0</vert>
								</value>
							</parameter>
						</effect>
					</filter>
					<sourcetrack>
						<mediatype>video</mediatype>
					</sourcetrack>
					<fielddominance>upper</fielddominance>
				</clipitem>
				<transitionitem id="1742185736 ">
					<rate>
						<ntsc>FALSE</ntsc>
						<timebase>25</timebase>
					</rate>
					<start>18049</start>
					<end>18074</end>
					<alignment>center</alignment>
					<effect>
						<name>Cross Dissolve</name>
						<effectid>Cross Dissolve</effectid>
						<effectcategory>Dissolve</effectcategory>
						<effecttype>transition</effecttype>
						<mediatype>video</mediatype>
						<wipecode>0</wipecode>
						<wipeaccuracy>100</wipeaccuracy>
						<startratio>0</startratio>
						<endratio>1</endratio>
						<reverse>FALSE</reverse>
					</effect>
				</transitionitem>
				<clipitem id="SC6ATK834 ">
					<name>SC6ATK834</name>
					<duration>189</duration>
					<rate>
						<ntsc>FALSE</ntsc>
						<timebase>25</timebase>
					</rate>
					<in>0</in>
					<out>189</out>
					<start>-1</start>
					<end>-1</end>
					<pixelaspectratio>Square</pixelaspectratio>
					<enabled>TRUE</enabled>
					<anamorphic>FALSE</anamorphic>
					<alphatype>none</alphatype>
					<masterclipid>SC6ATK834 1</masterclipid>
					<logginginfo>
						<scene/>
						<shottake/>
						<lognote/>
						<good>FALSE</good>
					</logginginfo>
					<labels>
						<label2/>
					</labels>
					<comments>
						<mastercomment1/>
						<mastercomment2/>
						<mastercomment3/>
						<mastercomment4/>
					</comments>
					<file id="21_g1 1">
						<name>21_g1.mov</name>
						<pathurl>file://localhost/Volumes/Askepott/Final%20Cut%20Pro%20Documents/Color%20Renderfiles/Tords%20garasje%20-%20Flue/21/21_g1.mov</pathurl>
						<rate>
							<timebase>25</timebase>
						</rate>
						<duration>189</duration>
						<timecode>
							<rate>
								<timebase>25</timebase>
							</rate>
							<string>00:00:00:00</string>
							<frame>0</frame>
							<displayformat>NDF</displayformat>
							<source>source</source>
							<reel>
								<name>1</name>
							</reel>
						</timecode>
						<media>
							<video>
								<duration>189</duration>
								<samplecharacteristics>
									<width>1920</width>
									<height>1080</height>
								</samplecharacteristics>
							</video>
						</media>
					</file>
					<filter>
						<effect>
							<name>Distort</name>
							<effectid>deformation</effectid>
							<effectcategory>motion</effectcategory>
							<effecttype>motion</effecttype>
							<mediatype>video</mediatype>
							<parameter>
								<parameterid>ulcorner</parameterid>
								<name>Upper Left</name>
								<value>
									<horiz>-0.5</horiz>
									<vert>-0.5</vert>
								</value>
							</parameter>
							<parameter>
								<parameterid>urcorner</parameterid>
								<name>Upper Right</name>
								<value>
									<horiz>0.5</horiz>
									<vert>-0.5</vert>
								</value>
							</parameter>
							<parameter>
								<parameterid>lrcorner</parameterid>
								<name>Lower Right</name>
								<value>
									<horiz>0.5</horiz>
									<vert>0.5</vert>
								</value>
							</parameter>
							<parameter>
								<parameterid>llcorner</parameterid>
								<name>Lower Left</name>
								<value>
									<horiz>-0.5</horiz>
									<vert>0.5</vert>
								</value>
							</parameter>
							<parameter>
								<parameterid>aspect</parameterid>
								<name>Aspect</name>
								<valuemin>-10000</valuemin>
								<valuemax>10000</valuemax>
								<value>0</value>
							</parameter>
						</effect>
					</filter>
					<filter>
						<effect>
							<name>Basic Motion</name>
							<effectid>basic</effectid>
							<effectcategory>motion</effectcategory>
							<effecttype>motion</effecttype>
							<mediatype>video</mediatype>
							<parameter>
								<parameterid>scale</parameterid>
								<name>Scale</name>
								<valuemin>0</valuemin>
								<valuemax>1000</valuemax>
								<value>100</value>
							</parameter>
							<parameter>
								<parameterid>rotation</parameterid>
								<name>Rotation</name>
								<valuemin>-8640</valuemin>
								<valuemax>8640</valuemax>
								<value>0</value>
							</parameter>
							<parameter>
								<parameterid>center</parameterid>
								<name>Center</name>
								<value>
									<horiz>0</horiz>
									<vert>0</vert>
								</value>
							</parameter>
							<parameter>
								<parameterid>centerOffset</parameterid>
								<name>Anchor Point</name>
								<value>
									<horiz>0</horiz>
									<vert>0</vert>
								</value>
							</parameter>
						</effect>
					</filter>
					<sourcetrack>
						<mediatype>video</mediatype>
					</sourcetrack>
					<fielddominance>upper</fielddominance>
				</clipitem>
				<transitionitem id="1742183560 ">
					<rate>
						<ntsc>FALSE</ntsc>
						<timebase>25</timebase>
					</rate>
					<start>18226</start>
					<end>18238</end>
					<alignment>center</alignment>
					<effect>
						<name>Cross Dissolve</name>
						<effectid>Cross Dissolve</effectid>
						<effectcategory>Dissolve</effectcategory>
						<effecttype>transition</effecttype>
						<mediatype>video</mediatype>
						<wipecode>0</wipecode>
						<wipeaccuracy>100</wipeaccuracy>
						<startratio>0</startratio>
						<endratio>1</endratio>
						<reverse>FALSE</reverse>
					</effect>
				</transitionitem>
				<clipitem id="SC6ATK668 ">
					<name>SC6ATK668</name>
					<duration>133</duration>
					<rate>
						<ntsc>FALSE</ntsc>
						<timebase>25</timebase>
					</rate>
					<in>6</in>
					<out>133</out>
					<start>-1</start>
					<end>-1</end>
					<pixelaspectratio>Square</pixelaspectratio>
					<enabled>TRUE</enabled>
					<anamorphic>FALSE</anamorphic>
					<alphatype>none</alphatype>
					<masterclipid>SC6ATK668 1</masterclipid>
					<logginginfo>
						<scene/>
						<shottake/>
						<lognote/>
						<good>FALSE</good>
					</logginginfo>
					<labels>
						<label2/>
					</labels>
					<comments>
						<mastercomment1/>
						<mastercomment2/>
						<mastercomment3/>
						<mastercomment4/>
					</comments>
					<file id="18_g1 1">
						<name>18_g1.mov</name>
						<pathurl>file://localhost/Volumes/Askepott/Final%20Cut%20Pro%20Documents/Color%20Renderfiles/Tords%20garasje%20-%20Flue/18/18_g1.mov</pathurl>
						<rate>
							<timebase>25</timebase>
						</rate>
						<duration>133</duration>
						<timecode>
							<rate>
								<timebase>25</timebase>
							</rate>
							<string>00:00:10:12</string>
							<frame>262</frame>
							<displayformat>NDF</displayformat>
							<source>source</source>
							<reel>
								<name>1</name>
							</reel>
						</timecode>
						<media>
							<video>
								<duration>133</duration>
								<samplecharacteristics>
									<width>1920</width>
									<height>1080</height>
								</samplecharacteristics>
							</video>
						</media>
					</file>
					<filter>
						<effect>
							<name>Distort</name>
							<effectid>deformation</effectid>
							<effectcategory>motion</effectcategory>
							<effecttype>motion</effecttype>
							<mediatype>video</mediatype>
							<parameter>
								<parameterid>ulcorner</parameterid>
								<name>Upper Left</name>
								<value>
									<horiz>-0.5</horiz>
									<vert>-0.5</vert>
								</value>
							</parameter>
							<parameter>
								<parameterid>urcorner</parameterid>
								<name>Upper Right</name>
								<value>
									<horiz>0.5</horiz>
									<vert>-0.5</vert>
								</value>
							</parameter>
							<parameter>
								<parameterid>lrcorner</parameterid>
								<name>Lower Right</name>
								<value>
									<horiz>0.5</horiz>
									<vert>0.5</vert>
								</value>
							</parameter>
							<parameter>
								<parameterid>llcorner</parameterid>
								<name>Lower Left</name>
								<value>
									<horiz>-0.5</horiz>
									<vert>0.5</vert>
								</value>
							</parameter>
							<parameter>
								<parameterid>aspect</parameterid>
								<name>Aspect</name>
								<valuemin>-10000</valuemin>
								<valuemax>10000</valuemax>
								<value>0</value>
							</parameter>
						</effect>
					</filter>
					<filter>
						<effect>
							<name>Basic Motion</name>
							<effectid>basic</effectid>
							<effectcategory>motion</effectcategory>
							<effecttype>motion</effecttype>
							<mediatype>video</mediatype>
							<parameter>
								<parameterid>scale</parameterid>
								<name>Scale</name>
								<valuemin>0</valuemin>
								<valuemax>1000</valuemax>
								<value>100</value>
							</parameter>
							<parameter>
								<parameterid>rotation</parameterid>
								<name>Rotation</name>
								<valuemin>-8640</valuemin>
								<valuemax>8640</valuemax>
								<value>0</value>
							</parameter>
							<parameter>
								<parameterid>center</parameterid>
								<name>Center</name>
								<value>
									<horiz>0</horiz>
									<vert>0</vert>
								</value>
							</parameter>
							<parameter>
								<parameterid>centerOffset</parameterid>
								<name>Anchor Point</name>
								<value>
									<horiz>0</horiz>
									<vert>0</vert>
								</value>
							</parameter>
						</effect>
					</filter>
					<sourcetrack>
						<mediatype>video</mediatype>
					</sourcetrack>
					<fielddominance>upper</fielddominance>
				</clipitem>
				<transitionitem id="1742181588 ">
					<rate>
						<ntsc>FALSE</ntsc>
						<timebase>25</timebase>
					</rate>
					<start>18328</start>
					<end>18353</end>
					<alignment>center</alignment>
					<effect>
						<name>Cross Dissolve</name>
						<effectid>Cross Dissolve</effectid>
						<effectcategory>Dissolve</effectcategory>
						<effecttype>transition</effecttype>
						<mediatype>video</mediatype>
						<wipecode>0</wipecode>
						<wipeaccuracy>100</wipeaccuracy>
						<startratio>0</startratio>
						<endratio>1</endratio>
						<reverse>FALSE</reverse>
					</effect>
				</transitionitem>
				<clipitem id="SC6ATK831 ">
					<name>SC6ATK831</name>
					<duration>330</duration>
					<rate>
						<ntsc>FALSE</ntsc>
						<timebase>25</timebase>
					</rate>
					<in>0</in>
					<out>330</out>
					<start>-1</start>
					<end>-1</end>
					<pixelaspectratio>Square</pixelaspectratio>
					<enabled>TRUE</enabled>
					<anamorphic>FALSE</anamorphic>
					<alphatype>none</alphatype>
					<masterclipid>SC6ATK831 1</masterclipid>
					<logginginfo>
						<scene/>
						<shottake/>
						<lognote/>
						<good>FALSE</good>
					</logginginfo>
					<labels>
						<label2/>
					</labels>
					<comments>
						<mastercomment1/>
						<mastercomment2/>
						<mastercomment3/>
						<mastercomment4/>
					</comments>
					<file id="19_g1 1">
						<name>19_g1.mov</name>
						<pathurl>file://localhost/Volumes/Askepott/Final%20Cut%20Pro%20Documents/Color%20Renderfiles/Tords%20garasje%20-%20Flue/19/19_g1.mov</pathurl>
						<rate>
							<timebase>25</timebase>
						</rate>
						<duration>330</duration>
						<timecode>
							<rate>
								<timebase>25</timebase>
							</rate>
							<string>00:00:04:00</string>
							<frame>100</frame>
							<displayformat>NDF</displayformat>
							<source>source</source>
							<reel>
								<name>1</name>
							</reel>
						</timecode>
						<media>
							<video>
								<duration>330</duration>
								<samplecharacteristics>
									<width>1920</width>
									<height>1080</height>
								</samplecharacteristics>
							</video>
						</media>
					</file>
					<filter>
						<effect>
							<name>Distort</name>
							<effectid>deformation</effectid>
							<effectcategory>motion</effectcategory>
							<effecttype>motion</effecttype>
							<mediatype>video</mediatype>
							<parameter>
								<parameterid>ulcorner</parameterid>
								<name>Upper Left</name>
								<value>
									<horiz>-0.5</horiz>
									<vert>-0.5</vert>
								</value>
							</parameter>
							<parameter>
								<parameterid>urcorner</parameterid>
								<name>Upper Right</name>
								<value>
									<horiz>0.5</horiz>
									<vert>-0.5</vert>
								</value>
							</parameter>
							<parameter>
								<parameterid>lrcorner</parameterid>
								<name>Lower Right</name>
								<value>
									<horiz>0.5</horiz>
									<vert>0.5</vert>
								</value>
							</parameter>
							<parameter>
								<parameterid>llcorner</parameterid>
								<name>Lower Left</name>
								<value>
									<horiz>-0.5</horiz>
									<vert>0.5</vert>
								</value>
							</parameter>
							<parameter>
								<parameterid>aspect</parameterid>
								<name>Aspect</name>
								<valuemin>-10000</valuemin>
								<valuemax>10000</valuemax>
								<value>0</value>
							</parameter>
						</effect>
					</filter>
					<filter>
						<effect>
							<name>Basic Motion</name>
							<effectid>basic</effectid>
							<effectcategory>motion</effectcategory>
							<effecttype>motion</effecttype>
							<mediatype>video</mediatype>
							<parameter>
								<parameterid>scale</parameterid>
								<name>Scale</name>
								<valuemin>0</valuemin>
								<valuemax>1000</valuemax>
								<value>100</value>
							</parameter>
							<parameter>
								<parameterid>rotation</parameterid>
								<name>Rotation</name>
								<valuemin>-8640</valuemin>
								<valuemax>8640</valuemax>
								<value>0</value>
							</parameter>
							<parameter>
								<parameterid>center</parameterid>
								<name>Center</name>
								<value>
									<horiz>0</horiz>
									<vert>0</vert>
								</value>
							</parameter>
							<parameter>
								<parameterid>centerOffset</parameterid>
								<name>Anchor Point</name>
								<value>
									<horiz>0</horiz>
									<vert>0</vert>
								</value>
							</parameter>
						</effect>
					</filter>
					<sourcetrack>
						<mediatype>video</mediatype>
					</sourcetrack>
					<fielddominance>upper</fielddominance>
				</clipitem>
				<transitionitem id="1742180160 ">
					<rate>
						<ntsc>FALSE</ntsc>
						<timebase>25</timebase>
					</rate>
					<start>18633</start>
					<end>18658</end>
					<alignment>center</alignment>
					<effect>
						<name>Cross Dissolve</name>
						<effectid>Cross Dissolve</effectid>
						<effectcategory>Dissolve</effectcategory>
						<effecttype>transition</effecttype>
						<mediatype>video</mediatype>
						<wipecode>0</wipecode>
						<wipeaccuracy>100</wipeaccuracy>
						<startratio>0</startratio>
						<endratio>1</endratio>
						<reverse>FALSE</reverse>
					</effect>
				</transitionitem>
				<clipitem id="SC6ATK832 ">
					<name>SC6ATK832</name>
					<duration>146</duration>
					<rate>
						<ntsc>FALSE</ntsc>
						<timebase>25</timebase>
					</rate>
					<in>0</in>
					<out>133</out>
					<start>-1</start>
					<end>18766</end>
					<pixelaspectratio>Square</pixelaspectratio>
					<enabled>TRUE</enabled>
					<anamorphic>FALSE</anamorphic>
					<alphatype>none</alphatype>
					<masterclipid>SC6ATK832 1</masterclipid>
					<logginginfo>
						<scene/>
						<shottake/>
						<lognote/>
						<good>FALSE</good>
					</logginginfo>
					<labels>
						<label2/>
					</labels>
					<comments>
						<mastercomment1/>
						<mastercomment2/>
						<mastercomment3/>
						<mastercomment4/>
					</comments>
					<file id="20_g1 1">
						<name>20_g1.mov</name>
						<pathurl>file://localhost/Volumes/Askepott/Final%20Cut%20Pro%20Documents/Color%20Renderfiles/Tords%20garasje%20-%20Flue/20/20_g1.mov</pathurl>
						<rate>
							<timebase>25</timebase>
						</rate>
						<duration>146</duration>
						<timecode>
							<rate>
								<timebase>25</timebase>
							</rate>
							<string>00:00:00:04</string>
							<frame>4</frame>
							<displayformat>NDF</displayformat>
							<source>source</source>
							<reel>
								<name>1</name>
							</reel>
						</timecode>
						<media>
							<video>
								<duration>146</duration>
								<samplecharacteristics>
									<width>1920</width>
									<height>1080</height>
								</samplecharacteristics>
							</video>
						</media>
					</file>
					<filter>
						<effect>
							<name>Distort</name>
							<effectid>deformation</effectid>
							<effectcategory>motion</effectcategory>
							<effecttype>motion</effecttype>
							<mediatype>video</mediatype>
							<parameter>
								<parameterid>ulcorner</parameterid>
								<name>Upper Left</name>
								<value>
									<horiz>-0.5</horiz>
									<vert>-0.5</vert>
								</value>
							</parameter>
							<parameter>
								<parameterid>urcorner</parameterid>
								<name>Upper Right</name>
								<value>
									<horiz>0.5</horiz>
									<vert>-0.5</vert>
								</value>
							</parameter>
							<parameter>
								<parameterid>lrcorner</parameterid>
								<name>Lower Right</name>
								<value>
									<horiz>0.5</horiz>
									<vert>0.5</vert>
								</value>
							</parameter>
							<parameter>
								<parameterid>llcorner</parameterid>
								<name>Lower Left</name>
								<value>
									<horiz>-0.5</horiz>
									<vert>0.5</vert>
								</value>
							</parameter>
							<parameter>
								<parameterid>aspect</parameterid>
								<name>Aspect</name>
								<valuemin>-10000</valuemin>
								<valuemax>10000</valuemax>
								<value>0</value>
							</parameter>
						</effect>
					</filter>
					<filter>
						<effect>
							<name>Basic Motion</name>
							<effectid>basic</effectid>
							<effectcategory>motion</effectcategory>
							<effecttype>motion</effecttype>
							<mediatype>video</mediatype>
							<parameter>
								<parameterid>scale</parameterid>
								<name>Scale</name>
								<valuemin>0</valuemin>
								<valuemax>1000</valuemax>
								<value>100</value>
							</parameter>
							<parameter>
								<parameterid>rotation</parameterid>
								<name>Rotation</name>
								<valuemin>-8640</valuemin>
								<valuemax>8640</valuemax>
								<value>0</value>
							</parameter>
							<parameter>
								<parameterid>center</parameterid>
								<name>Center</name>
								<value>
									<horiz>0</horiz>
									<vert>0</vert>
								</value>
							</parameter>
							<parameter>
								<parameterid>centerOffset</parameterid>
								<name>Anchor Point</name>
								<value>
									<horiz>0</horiz>
									<vert>0</vert>
								</value>
							</parameter>
						</effect>
					</filter>
					<sourcetrack>
						<mediatype>video</mediatype>
					</sourcetrack>
					<fielddominance>upper</fielddominance>
				</clipitem>
				<clipitem id="C0022 9">
					<name>C0022</name>
					<duration>552</duration>
					<rate>
						<ntsc>FALSE</ntsc>
						<timebase>25</timebase>
					</rate>
					<in>0</in>
					<out>429</out>
					<start>18766</start>
					<end>19195</end>
					<pixelaspectratio>Square</pixelaspectratio>
					<enabled>TRUE</enabled>
					<anamorphic>FALSE</anamorphic>
					<alphatype>none</alphatype>
					<masterclipid>C0022 10</masterclipid>
					<logginginfo>
						<scene/>
						<shottake/>
						<lognote/>
						<good>FALSE</good>
					</logginginfo>
					<labels>
						<label2/>
					</labels>
					<comments>
						<mastercomment1/>
						<mastercomment2/>
						<mastercomment3/>
						<mastercomment4/>
					</comments>
					<file id="22_g1 1">
						<name>22_g1.mov</name>
						<pathurl>file://localhost/Volumes/Askepott/Final%20Cut%20Pro%20Documents/Color%20Renderfiles/Tords%20garasje%20-%20Flue/22/22_g1.mov</pathurl>
						<rate>
							<timebase>25</timebase>
						</rate>
						<duration>552</duration>
						<timecode>
							<rate>
								<timebase>25</timebase>
							</rate>
							<string>12:32:44:15</string>
							<frame>1129115</frame>
							<displayformat>NDF</displayformat>
							<source>source</source>
							<reel>
								<name>XDCAM 20120309_113707</name>
							</reel>
						</timecode>
						<media>
							<video>
								<duration>552</duration>
								<samplecharacteristics>
									<width>1920</width>
									<height>1080</height>
								</samplecharacteristics>
							</video>
						</media>
					</file>
					<filter>
						<effect>
							<name>Distort</name>
							<effectid>deformation</effectid>
							<effectcategory>motion</effectcategory>
							<effecttype>motion</effecttype>
							<mediatype>video</mediatype>
							<parameter>
								<parameterid>ulcorner</parameterid>
								<name>Upper Left</name>
								<value>
									<horiz>-0.5</horiz>
									<vert>-0.5</vert>
								</value>
							</parameter>
							<parameter>
								<parameterid>urcorner</parameterid>
								<name>Upper Right</name>
								<value>
									<horiz>0.5</horiz>
									<vert>-0.5</vert>
								</value>
							</parameter>
							<parameter>
								<parameterid>lrcorner</parameterid>
								<name>Lower Right</name>
								<value>
									<horiz>0.5</horiz>
									<vert>0.5</vert>
								</value>
							</parameter>
							<parameter>
								<parameterid>llcorner</parameterid>
								<name>Lower Left</name>
								<value>
									<horiz>-0.5</horiz>
									<vert>0.5</vert>
								</value>
							</parameter>
							<parameter>
								<parameterid>aspect</parameterid>
								<name>Aspect</name>
								<valuemin>-10000</valuemin>
								<valuemax>10000</valuemax>
								<value>0</value>
							</parameter>
						</effect>
					</filter>
					<filter>
						<effect>
							<name>Basic Motion</name>
							<effectid>basic</effectid>
							<effectcategory>motion</effectcategory>
							<effecttype>motion</effecttype>
							<mediatype>video</mediatype>
							<parameter>
								<parameterid>scale</parameterid>
								<name>Scale</name>
								<valuemin>0</valuemin>
								<valuemax>1000</valuemax>
								<value>100</value>
							</parameter>
							<parameter>
								<parameterid>rotation</parameterid>
								<name>Rotation</name>
								<valuemin>-8640</valuemin>
								<valuemax>8640</valuemax>
								<value>0</value>
							</parameter>
							<parameter>
								<parameterid>center</parameterid>
								<name>Center</name>
								<value>
									<horiz>0</horiz>
									<vert>0</vert>
								</value>
							</parameter>
							<parameter>
								<parameterid>centerOffset</parameterid>
								<name>Anchor Point</name>
								<value>
									<horiz>0</horiz>
									<vert>0</vert>
								</value>
							</parameter>
						</effect>
					</filter>
					<sourcetrack>
						<mediatype>video</mediatype>
					</sourcetrack>
					<fielddominance>upper</fielddominance>
				</clipitem>
				<clipitem id="SC6ATK832 2">
					<name>SC6ATK832</name>
					<duration>146</duration>
					<rate>
						<ntsc>FALSE</ntsc>
						<timebase>25</timebase>
					</rate>
					<in>12</in>
					<out>146</out>
					<start>19195</start>
					<end>19329</end>
					<pixelaspectratio>Square</pixelaspectratio>
					<enabled>TRUE</enabled>
					<anamorphic>FALSE</anamorphic>
					<alphatype>none</alphatype>
					<masterclipid>SC6ATK832 3</masterclipid>
					<logginginfo>
						<scene/>
						<shottake/>
						<lognote/>
						<good>FALSE</good>
					</logginginfo>
					<labels>
						<label2/>
					</labels>
					<comments>
						<mastercomment1/>
						<mastercomment2/>
						<mastercomment3/>
						<mastercomment4/>
					</comments>
					<file id="20_g1 1"/>
					<filter>
						<effect>
							<name>Distort</name>
							<effectid>deformation</effectid>
							<effectcategory>motion</effectcategory>
							<effecttype>motion</effecttype>
							<mediatype>video</mediatype>
							<parameter>
								<parameterid>ulcorner</parameterid>
								<name>Upper Left</name>
								<value>
									<horiz>-0.5</horiz>
									<vert>-0.5</vert>
								</value>
							</parameter>
							<parameter>
								<parameterid>urcorner</parameterid>
								<name>Upper Right</name>
								<value>
									<horiz>0.5</horiz>
									<vert>-0.5</vert>
								</value>
							</parameter>
							<parameter>
								<parameterid>lrcorner</parameterid>
								<name>Lower Right</name>
								<value>
									<horiz>0.5</horiz>
									<vert>0.5</vert>
								</value>
							</parameter>
							<parameter>
								<parameterid>llcorner</parameterid>
								<name>Lower Left</name>
								<value>
									<horiz>-0.5</horiz>
									<vert>0.5</vert>
								</value>
							</parameter>
							<parameter>
								<parameterid>aspect</parameterid>
								<name>Aspect</name>
								<valuemin>-10000</valuemin>
								<valuemax>10000</valuemax>
								<value>0</value>
							</parameter>
						</effect>
					</filter>
					<filter>
						<effect>
							<name>Basic Motion</name>
							<effectid>basic</effectid>
							<effectcategory>motion</effectcategory>
							<effecttype>motion</effecttype>
							<mediatype>video</mediatype>
							<parameter>
								<parameterid>scale</parameterid>
								<name>Scale</name>
								<valuemin>0</valuemin>
								<valuemax>1000</valuemax>
								<value>100</value>
							</parameter>
							<parameter>
								<parameterid>rotation</parameterid>
								<name>Rotation</name>
								<valuemin>-8640</valuemin>
								<valuemax>8640</valuemax>
								<value>0</value>
							</parameter>
							<parameter>
								<parameterid>center</parameterid>
								<name>Center</name>
								<value>
									<horiz>0</horiz>
									<vert>0</vert>
								</value>
							</parameter>
							<parameter>
								<parameterid>centerOffset</parameterid>
								<name>Anchor Point</name>
								<value>
									<horiz>0</horiz>
									<vert>0</vert>
								</value>
							</parameter>
						</effect>
					</filter>
					<filter>
						<start>-1</start>
						<end>-1</end>
						<effect>
							<name>Flop</name>
							<effectid>Flop</effectid>
							<effectcategory>Perspective</effectcategory>
							<effecttype>filter</effecttype>
							<mediatype>video</mediatype>
							<parameter>
								<parameterid>flop</parameterid>
								<name>Flop</name>
								<valuemin>1</valuemin>
								<valuemax>3</valuemax>
								<valuelist>
									<valueentry>
										<name>Horizontal</name>
										<value>1</value>
									</valueentry>
									<valueentry>
										<name>Vertical</name>
										<value>2</value>
									</valueentry>
									<valueentry>
										<name>Both</name>
										<value>3</value>
									</valueentry>
								</valuelist>
								<value>1</value>
							</parameter>
						</effect>
					</filter>
					<sourcetrack>
						<mediatype>video</mediatype>
					</sourcetrack>
					<fielddominance>upper</fielddominance>
				</clipitem>
				<clipitem id="C0016 2">
					<name>C0016</name>
					<duration>1537</duration>
					<rate>
						<ntsc>FALSE</ntsc>
						<timebase>25</timebase>
					</rate>
					<in>108</in>
					<out>311</out>
					<start>19329</start>
					<end>19532</end>
					<pixelaspectratio>Square</pixelaspectratio>
					<enabled>TRUE</enabled>
					<anamorphic>FALSE</anamorphic>
					<alphatype>none</alphatype>
					<masterclipid>C0016 3</masterclipid>
					<logginginfo>
						<scene/>
						<shottake/>
						<lognote/>
						<good>FALSE</good>
					</logginginfo>
					<labels>
						<label2/>
					</labels>
					<comments>
						<mastercomment1/>
						<mastercomment2/>
						<mastercomment3/>
						<mastercomment4/>
					</comments>
					<file id="C0016 4">
						<name>C0016.mov</name>
						<pathurl>file://localhost/Volumes/Askepott/Prosjekter/DNPR637010_Kra%CC%8Akeklubben_TEM_011212/Video/Mellomstikk/S03E%20D%C3%B8den/DAG%202/C0016.mov</pathurl>
						<rate>
							<timebase>25</timebase>
						</rate>
						<duration>1537</duration>
						<timecode>
							<rate>
								<timebase>25</timebase>
							</rate>
							<string>05:35:40:05</string>
							<frame>503505</frame>
							<displayformat>NDF</displayformat>
							<source>source</source>
							<reel>
								<name>XDCAM 20120509_100358</name>
							</reel>
						</timecode>
						<media>
							<video>
								<duration>1537</duration>
								<samplecharacteristics>
									<width>1920</width>
									<height>1080</height>
								</samplecharacteristics>
							</video>
							<audio>
								<rate>
									<timebase>48000</timebase>
								</rate>
								<trackcount>1</trackcount>
								<channeldescription>8 Channels</channeldescription>
								<samplecharacteristics>
									<depth>24</depth>
								</samplecharacteristics>
							</audio>
						</media>
					</file>
					<sourcetrack>
						<mediatype>video</mediatype>
					</sourcetrack>
					<link>
						<linkclipref>C0016 2</linkclipref>
						<mediatype>video</mediatype>
						<trackindex>1</trackindex>
						<clipindex>136</clipindex>
					</link>
					<link>
						<linkclipref>C0016 5</linkclipref>
						<mediatype>audio</mediatype>
						<trackindex>1</trackindex>
						<clipindex>170</clipindex>
					</link>
					<link>
						<linkclipref>C0016 6</linkclipref>
						<mediatype>audio</mediatype>
						<trackindex>2</trackindex>
						<clipindex>91</clipindex>
					</link>
					<fielddominance>upper</fielddominance>
				</clipitem>
				<clipitem id="C0019 ">
					<name>C0019</name>
					<duration>621</duration>
					<rate>
						<ntsc>FALSE</ntsc>
						<timebase>25</timebase>
					</rate>
					<in>193</in>
					<out>294</out>
					<start>19532</start>
					<end>19633</end>
					<pixelaspectratio>Square</pixelaspectratio>
					<enabled>TRUE</enabled>
					<anamorphic>FALSE</anamorphic>
					<alphatype>none</alphatype>
					<masterclipid>C0019 1</masterclipid>
					<logginginfo>
						<scene/>
						<shottake/>
						<lognote/>
						<good>FALSE</good>
					</logginginfo>
					<labels>
						<label2/>
					</labels>
					<comments>
						<mastercomment1/>
						<mastercomment2/>
						<mastercomment3/>
						<mastercomment4/>
					</comments>
					<file id="C0019 2">
						<name>C0019.mov</name>
						<pathurl>file://localhost/Volumes/Askepott/Prosjekter/DNPR637010_Kra%CC%8Akeklubben_TEM_011212/Video/Mellomstikk/S03E%20D%C3%B8den/DAG%202/C0019.mov</pathurl>
						<rate>
							<timebase>25</timebase>
						</rate>
						<duration>621</duration>
						<timecode>
							<rate>
								<timebase>25</timebase>
							</rate>
							<string>05:37:21:21</string>
							<frame>506046</frame>
							<displayformat>NDF</displayformat>
							<source>source</source>
							<reel>
								<name>XDCAM 20120509_100358</name>
							</reel>
						</timecode>
						<media>
							<video>
								<duration>621</duration>
								<samplecharacteristics>
									<width>1920</width>
									<height>1080</height>
								</samplecharacteristics>
							</video>
							<audio>
								<rate>
									<timebase>48000</timebase>
								</rate>
								<trackcount>1</trackcount>
								<channeldescription>8 Channels</channeldescription>
								<samplecharacteristics>
									<depth>24</depth>
								</samplecharacteristics>
							</audio>
						</media>
					</file>
					<sourcetrack>
						<mediatype>video</mediatype>
					</sourcetrack>
					<link>
						<linkclipref>C0019 </linkclipref>
						<mediatype>video</mediatype>
						<trackindex>1</trackindex>
						<clipindex>137</clipindex>
					</link>
					<link>
						<linkclipref>C0019 3</linkclipref>
						<mediatype>audio</mediatype>
						<trackindex>1</trackindex>
						<clipindex>171</clipindex>
					</link>
					<link>
						<linkclipref>C0019 4</linkclipref>
						<mediatype>audio</mediatype>
						<trackindex>2</trackindex>
						<clipindex>92</clipindex>
					</link>
					<fielddominance>upper</fielddominance>
				</clipitem>
				<clipitem id="C0001 ">
					<name>C0001</name>
					<duration>1416</duration>
					<rate>
						<ntsc>FALSE</ntsc>
						<timebase>25</timebase>
					</rate>
					<in>1130</in>
					<out>1249</out>
					<start>19633</start>
					<end>19752</end>
					<pixelaspectratio>Square</pixelaspectratio>
					<enabled>TRUE</enabled>
					<anamorphic>FALSE</anamorphic>
					<alphatype>none</alphatype>
					<masterclipid>C0001 1</masterclipid>
					<logginginfo>
						<scene/>
						<shottake/>
						<lognote/>
						<good>FALSE</good>
					</logginginfo>
					<labels>
						<label2/>
					</labels>
					<comments>
						<mastercomment1/>
						<mastercomment2/>
						<mastercomment3/>
						<mastercomment4/>
					</comments>
					<file id="C0001 2">
						<name>C0001.mov</name>
						<pathurl>file://localhost/Volumes/Askepott/Prosjekter/DNPR637010_Kra%CC%8Akeklubben_TEM_011212/Video/Mellomstikk/S03E%20D%C3%B8den/DAG%202/C0001.mov</pathurl>
						<rate>
							<timebase>25</timebase>
						</rate>
						<duration>1416</duration>
						<timecode>
							<rate>
								<timebase>25</timebase>
							</rate>
							<string>05:26:44:09</string>
							<frame>490109</frame>
							<displayformat>NDF</displayformat>
							<source>source</source>
							<reel>
								<name>XDCAM 20120509_100358</name>
							</reel>
						</timecode>
						<media>
							<video>
								<duration>1416</duration>
								<samplecharacteristics>
									<width>1920</width>
									<height>1080</height>
								</samplecharacteristics>
							</video>
							<audio>
								<rate>
									<timebase>48000</timebase>
								</rate>
								<trackcount>1</trackcount>
								<channeldescription>8 Channels</channeldescription>
								<samplecharacteristics>
									<depth>24</depth>
								</samplecharacteristics>
							</audio>
						</media>
					</file>
					<sourcetrack>
						<mediatype>video</mediatype>
					</sourcetrack>
					<link>
						<linkclipref>C0001 </linkclipref>
						<mediatype>video</mediatype>
						<trackindex>1</trackindex>
						<clipindex>138</clipindex>
					</link>
					<link>
						<linkclipref>C0001 3</linkclipref>
						<mediatype>audio</mediatype>
						<trackindex>1</trackindex>
						<clipindex>172</clipindex>
					</link>
					<link>
						<linkclipref>C0001 4</linkclipref>
						<mediatype>audio</mediatype>
						<trackindex>2</trackindex>
						<clipindex>93</clipindex>
					</link>
					<fielddominance>upper</fielddominance>
				</clipitem>
				<clipitem id="C0020 8">
					<name>C0020</name>
					<duration>563</duration>
					<rate>
						<ntsc>FALSE</ntsc>
						<timebase>25</timebase>
					</rate>
					<in>339</in>
					<out>466</out>
					<start>19752</start>
					<end>19879</end>
					<pixelaspectratio>Square</pixelaspectratio>
					<enabled>TRUE</enabled>
					<anamorphic>FALSE</anamorphic>
					<alphatype>none</alphatype>
					<masterclipid>C0020 9</masterclipid>
					<logginginfo>
						<scene/>
						<shottake/>
						<lognote/>
						<good>FALSE</good>
					</logginginfo>
					<labels>
						<label2/>
					</labels>
					<comments>
						<mastercomment1/>
						<mastercomment2/>
						<mastercomment3/>
						<mastercomment4/>
					</comments>
					<file id="C0020 10">
						<name>C0020.mov</name>
						<pathurl>file://localhost/Volumes/Askepott/Prosjekter/DNPR637010_Kra%CC%8Akeklubben_TEM_011212/Video/Mellomstikk/S03E%20D%C3%B8den/DAG%202/C0020.mov</pathurl>
						<rate>
							<timebase>25</timebase>
						</rate>
						<duration>563</duration>
						<timecode>
							<rate>
								<timebase>25</timebase>
							</rate>
							<string>05:37:46:17</string>
							<frame>506667</frame>
							<displayformat>NDF</displayformat>
							<source>source</source>
							<reel>
								<name>XDCAM 20120509_100358</name>
							</reel>
						</timecode>
						<media>
							<video>
								<duration>563</duration>
								<samplecharacteristics>
									<width>1920</width>
									<height>1080</height>
								</samplecharacteristics>
							</video>
							<audio>
								<rate>
									<timebase>48000</timebase>
								</rate>
								<trackcount>1</trackcount>
								<channeldescription>8 Channels</channeldescription>
								<samplecharacteristics>
									<depth>24</depth>
								</samplecharacteristics>
							</audio>
						</media>
					</file>
					<sourcetrack>
						<mediatype>video</mediatype>
					</sourcetrack>
					<link>
						<linkclipref>C0020 8</linkclipref>
						<mediatype>video</mediatype>
						<trackindex>1</trackindex>
						<clipindex>139</clipindex>
					</link>
					<link>
						<linkclipref>C0020 11</linkclipref>
						<mediatype>audio</mediatype>
						<trackindex>1</trackindex>
						<clipindex>174</clipindex>
					</link>
					<link>
						<linkclipref>C0020 12</linkclipref>
						<mediatype>audio</mediatype>
						<trackindex>2</trackindex>
						<clipindex>95</clipindex>
					</link>
					<fielddominance>upper</fielddominance>
				</clipitem>
				<clipitem id="C0011 8">
					<name>C0011</name>
					<duration>422</duration>
					<rate>
						<ntsc>FALSE</ntsc>
						<timebase>25</timebase>
					</rate>
					<in>72</in>
					<out>192</out>
					<start>19879</start>
					<end>19999</end>
					<pixelaspectratio>Square</pixelaspectratio>
					<enabled>TRUE</enabled>
					<anamorphic>FALSE</anamorphic>
					<alphatype>none</alphatype>
					<masterclipid>C0011 9</masterclipid>
					<logginginfo>
						<scene/>
						<shottake/>
						<lognote/>
						<good>FALSE</good>
					</logginginfo>
					<labels>
						<label2/>
					</labels>
					<comments>
						<mastercomment1/>
						<mastercomment2/>
						<mastercomment3/>
						<mastercomment4/>
					</comments>
					<file id="C0011 10">
						<name>C0011.mov</name>
						<pathurl>file://localhost/Volumes/Askepott/Prosjekter/DNPR637010_Kra%CC%8Akeklubben_TEM_011212/Video/Mellomstikk/S03E%20D%C3%B8den/DAG%202/C0011.mov</pathurl>
						<rate>
							<timebase>25</timebase>
						</rate>
						<duration>422</duration>
						<timecode>
							<rate>
								<timebase>25</timebase>
							</rate>
							<string>05:32:53:20</string>
							<frame>499345</frame>
							<displayformat>NDF</displayformat>
							<source>source</source>
							<reel>
								<name>XDCAM 20120509_100358</name>
							</reel>
						</timecode>
						<media>
							<video>
								<duration>422</duration>
								<samplecharacteristics>
									<width>1920</width>
									<height>1080</height>
								</samplecharacteristics>
							</video>
							<audio>
								<rate>
									<timebase>48000</timebase>
								</rate>
								<trackcount>1</trackcount>
								<channeldescription>8 Channels</channeldescription>
								<samplecharacteristics>
									<depth>24</depth>
								</samplecharacteristics>
							</audio>
						</media>
					</file>
					<sourcetrack>
						<mediatype>video</mediatype>
					</sourcetrack>
					<link>
						<linkclipref>C0011 8</linkclipref>
						<mediatype>video</mediatype>
						<trackindex>1</trackindex>
						<clipindex>140</clipindex>
					</link>
					<link>
						<linkclipref>C0011 11</linkclipref>
						<mediatype>audio</mediatype>
						<trackindex>1</trackindex>
						<clipindex>175</clipindex>
					</link>
					<fielddominance>upper</fielddominance>
				</clipitem>
				<clipitem id="C0016 7">
					<name>C0016</name>
					<duration>1537</duration>
					<rate>
						<ntsc>FALSE</ntsc>
						<timebase>25</timebase>
					</rate>
					<in>791</in>
					<out>849</out>
					<start>19999</start>
					<end>20057</end>
					<pixelaspectratio>Square</pixelaspectratio>
					<enabled>TRUE</enabled>
					<anamorphic>FALSE</anamorphic>
					<alphatype>none</alphatype>
					<masterclipid>C0016 3</masterclipid>
					<logginginfo>
						<scene/>
						<shottake/>
						<lognote/>
						<good>FALSE</good>
					</logginginfo>
					<labels>
						<label2/>
					</labels>
					<comments>
						<mastercomment1/>
						<mastercomment2/>
						<mastercomment3/>
						<mastercomment4/>
					</comments>
					<file id="C0016 4"/>
					<sourcetrack>
						<mediatype>video</mediatype>
					</sourcetrack>
					<fielddominance>upper</fielddominance>
				</clipitem>
				<clipitem id="C0011 12">
					<name>C0011</name>
					<duration>422</duration>
					<rate>
						<ntsc>FALSE</ntsc>
						<timebase>25</timebase>
					</rate>
					<in>301</in>
					<out>382</out>
					<start>20057</start>
					<end>20138</end>
					<pixelaspectratio>Square</pixelaspectratio>
					<enabled>TRUE</enabled>
					<anamorphic>FALSE</anamorphic>
					<alphatype>none</alphatype>
					<masterclipid>C0011 9</masterclipid>
					<logginginfo>
						<scene/>
						<shottake/>
						<lognote/>
						<good>FALSE</good>
					</logginginfo>
					<labels>
						<label2/>
					</labels>
					<comments>
						<mastercomment1/>
						<mastercomment2/>
						<mastercomment3/>
						<mastercomment4/>
					</comments>
					<file id="C0011 10"/>
					<filter>
						<enabled>TRUE</enabled>
						<start>-1</start>
						<end>-1</end>
						<effect>
							<name>Brightness and Contrast (Bezier)</name>
							<effectid>Brightness and Contrast (Bezier)</effectid>
							<effectcategory>Image Control</effectcategory>
							<effecttype>filter</effecttype>
							<mediatype>video</mediatype>
							<parameter>
								<parameterid>brightness</parameterid>
								<name>Brightness</name>
								<valuemin>-100</valuemin>
								<valuemax>100</valuemax>
								<value>4</value>
							</parameter>
							<parameter>
								<parameterid>contrast</parameterid>
								<name>Contrast</name>
								<valuemin>-100</valuemin>
								<valuemax>100</valuemax>
								<value>-30</value>
							</parameter>
						</effect>
					</filter>
					<sourcetrack>
						<mediatype>video</mediatype>
					</sourcetrack>
					<link>
						<linkclipref>C0011 12</linkclipref>
						<mediatype>video</mediatype>
						<trackindex>1</trackindex>
						<clipindex>142</clipindex>
					</link>
					<link>
						<linkclipref>C0011 13</linkclipref>
						<mediatype>audio</mediatype>
						<trackindex>1</trackindex>
						<clipindex>178</clipindex>
					</link>
					<link>
						<linkclipref>C0011 14</linkclipref>
						<mediatype>audio</mediatype>
						<trackindex>2</trackindex>
						<clipindex>100</clipindex>
					</link>
					<fielddominance>upper</fielddominance>
				</clipitem>
				<clipitem id="C0008 5">
					<name>C0008</name>
					<duration>1377</duration>
					<rate>
						<ntsc>FALSE</ntsc>
						<timebase>25</timebase>
					</rate>
					<in>779</in>
					<out>870</out>
					<start>20138</start>
					<end>20229</end>
					<pixelaspectratio>Square</pixelaspectratio>
					<enabled>TRUE</enabled>
					<anamorphic>FALSE</anamorphic>
					<alphatype>none</alphatype>
					<masterclipid>C0008 6</masterclipid>
					<logginginfo>
						<scene/>
						<shottake/>
						<lognote/>
						<good>FALSE</good>
					</logginginfo>
					<labels>
						<label2/>
					</labels>
					<comments>
						<mastercomment1/>
						<mastercomment2/>
						<mastercomment3/>
						<mastercomment4/>
					</comments>
					<file id="C0008 7">
						<name>C0008.mov</name>
						<pathurl>file://localhost/Volumes/Askepott/Prosjekter/DNPR637010_Kra%CC%8Akeklubben_TEM_011212/Video/Mellomstikk/S03E%20D%C3%B8den/DAG%202/C0008.mov</pathurl>
						<rate>
							<timebase>25</timebase>
						</rate>
						<duration>1377</duration>
						<timecode>
							<rate>
								<timebase>25</timebase>
							</rate>
							<string>05:31:35:10</string>
							<frame>497385</frame>
							<displayformat>NDF</displayformat>
							<source>source</source>
							<reel>
								<name>XDCAM 20120509_100358</name>
							</reel>
						</timecode>
						<media>
							<video>
								<duration>1377</duration>
								<samplecharacteristics>
									<width>1920</width>
									<height>1080</height>
								</samplecharacteristics>
							</video>
							<audio>
								<rate>
									<timebase>48000</timebase>
								</rate>
								<trackcount>1</trackcount>
								<channeldescription>8 Channels</channeldescription>
								<samplecharacteristics>
									<depth>24</depth>
								</samplecharacteristics>
							</audio>
						</media>
					</file>
					<sourcetrack>
						<mediatype>video</mediatype>
					</sourcetrack>
					<link>
						<linkclipref>C0008 5</linkclipref>
						<mediatype>video</mediatype>
						<trackindex>1</trackindex>
						<clipindex>143</clipindex>
					</link>
					<link>
						<linkclipref>C0008 8</linkclipref>
						<mediatype>audio</mediatype>
						<trackindex>1</trackindex>
						<clipindex>179</clipindex>
					</link>
					<link>
						<linkclipref>C0008 9</linkclipref>
						<mediatype>audio</mediatype>
						<trackindex>2</trackindex>
						<clipindex>101</clipindex>
					</link>
					<fielddominance>upper</fielddominance>
				</clipitem>
				<clipitem id="C0023 ">
					<name>C0023</name>
					<duration>1465</duration>
					<rate>
						<ntsc>FALSE</ntsc>
						<timebase>25</timebase>
					</rate>
					<in>842</in>
					<out>933</out>
					<start>20229</start>
					<end>20320</end>
					<pixelaspectratio>Square</pixelaspectratio>
					<enabled>TRUE</enabled>
					<anamorphic>FALSE</anamorphic>
					<alphatype>none</alphatype>
					<masterclipid>C0023 1</masterclipid>
					<logginginfo>
						<scene/>
						<shottake/>
						<lognote/>
						<good>FALSE</good>
					</logginginfo>
					<labels>
						<label2/>
					</labels>
					<comments>
						<mastercomment1/>
						<mastercomment2/>
						<mastercomment3/>
						<mastercomment4/>
					</comments>
					<file id="C0023 2">
						<name>C0023.mov</name>
						<pathurl>file://localhost/Volumes/Askepott/Prosjekter/DNPR637010_Kra%CC%8Akeklubben_TEM_011212/Video/Mellomstikk/S03E%20D%C3%B8den/DAG%202/C0023.mov</pathurl>
						<rate>
							<timebase>25</timebase>
						</rate>
						<duration>1465</duration>
						<timecode>
							<rate>
								<timebase>25</timebase>
							</rate>
							<string>05:39:04:15</string>
							<frame>508615</frame>
							<displayformat>NDF</displayformat>
							<source>source</source>
							<reel>
								<name>XDCAM 20120509_100358</name>
							</reel>
						</timecode>
						<media>
							<video>
								<duration>1465</duration>
								<samplecharacteristics>
									<width>1920</width>
									<height>1080</height>
								</samplecharacteristics>
							</video>
							<audio>
								<rate>
									<timebase>48000</timebase>
								</rate>
								<trackcount>1</trackcount>
								<channeldescription>8 Channels</channeldescription>
								<samplecharacteristics>
									<depth>24</depth>
								</samplecharacteristics>
							</audio>
						</media>
					</file>
					<sourcetrack>
						<mediatype>video</mediatype>
					</sourcetrack>
					<link>
						<linkclipref>C0023 </linkclipref>
						<mediatype>video</mediatype>
						<trackindex>1</trackindex>
						<clipindex>144</clipindex>
					</link>
					<link>
						<linkclipref>C0023 3</linkclipref>
						<mediatype>audio</mediatype>
						<trackindex>1</trackindex>
						<clipindex>180</clipindex>
					</link>
					<link>
						<linkclipref>C0023 4</linkclipref>
						<mediatype>audio</mediatype>
						<trackindex>2</trackindex>
						<clipindex>102</clipindex>
					</link>
					<fielddominance>upper</fielddominance>
				</clipitem>
				<clipitem id="C0016 8">
					<name>C0016</name>
					<duration>1537</duration>
					<rate>
						<ntsc>FALSE</ntsc>
						<timebase>25</timebase>
					</rate>
					<in>1095</in>
					<out>1322</out>
					<start>20320</start>
					<end>20547</end>
					<pixelaspectratio>Square</pixelaspectratio>
					<enabled>TRUE</enabled>
					<anamorphic>FALSE</anamorphic>
					<alphatype>none</alphatype>
					<masterclipid>C0016 3</masterclipid>
					<logginginfo>
						<scene/>
						<shottake/>
						<lognote/>
						<good>FALSE</good>
					</logginginfo>
					<labels>
						<label2/>
					</labels>
					<comments>
						<mastercomment1/>
						<mastercomment2/>
						<mastercomment3/>
						<mastercomment4/>
					</comments>
					<file id="C0016 4"/>
					<sourcetrack>
						<mediatype>video</mediatype>
					</sourcetrack>
					<link>
						<linkclipref>C0016 8</linkclipref>
						<mediatype>video</mediatype>
						<trackindex>1</trackindex>
						<clipindex>145</clipindex>
					</link>
					<link>
						<linkclipref>C0016 9</linkclipref>
						<mediatype>audio</mediatype>
						<trackindex>1</trackindex>
						<clipindex>181</clipindex>
					</link>
					<link>
						<linkclipref>C0016 10</linkclipref>
						<mediatype>audio</mediatype>
						<trackindex>2</trackindex>
						<clipindex>103</clipindex>
					</link>
					<fielddominance>upper</fielddominance>
				</clipitem>
				<clipitem id="C0007 ">
					<name>C0007</name>
					<duration>1791</duration>
					<rate>
						<ntsc>FALSE</ntsc>
						<timebase>25</timebase>
					</rate>
					<in>1603</in>
					<out>1660</out>
					<start>20547</start>
					<end>20604</end>
					<pixelaspectratio>Square</pixelaspectratio>
					<enabled>TRUE</enabled>
					<anamorphic>FALSE</anamorphic>
					<alphatype>none</alphatype>
					<masterclipid>C0007 1</masterclipid>
					<logginginfo>
						<scene/>
						<shottake/>
						<lognote/>
						<good>FALSE</good>
					</logginginfo>
					<labels>
						<label2/>
					</labels>
					<comments>
						<mastercomment1/>
						<mastercomment2/>
						<mastercomment3/>
						<mastercomment4/>
					</comments>
					<file id="C0007 2">
						<name>C0007.mov</name>
						<pathurl>file://localhost/Volumes/Askepott/Prosjekter/DNPR637010_Kra%CC%8Akeklubben_TEM_011212/Video/Mellomstikk/S03E%20D%C3%B8den/DAG%202/C0007.mov</pathurl>
						<rate>
							<timebase>25</timebase>
						</rate>
						<duration>1791</duration>
						<timecode>
							<rate>
								<timebase>25</timebase>
							</rate>
							<string>05:30:23:19</string>
							<frame>495594</frame>
							<displayformat>NDF</displayformat>
							<source>source</source>
							<reel>
								<name>XDCAM 20120509_100358</name>
							</reel>
						</timecode>
						<media>
							<video>
								<duration>1791</duration>
								<samplecharacteristics>
									<width>1920</width>
									<height>1080</height>
								</samplecharacteristics>
							</video>
							<audio>
								<rate>
									<timebase>48000</timebase>
								</rate>
								<trackcount>1</trackcount>
								<channeldescription>8 Channels</channeldescription>
								<samplecharacteristics>
									<depth>24</depth>
								</samplecharacteristics>
							</audio>
						</media>
					</file>
					<filter>
						<enabled>TRUE</enabled>
						<start>-1</start>
						<end>-1</end>
						<effect>
							<name>Brightness and Contrast (Bezier)</name>
							<effectid>Brightness and Contrast (Bezier)</effectid>
							<effectcategory>Image Control</effectcategory>
							<effecttype>filter</effecttype>
							<mediatype>video</mediatype>
							<parameter>
								<parameterid>brightness</parameterid>
								<name>Brightness</name>
								<valuemin>-100</valuemin>
								<valuemax>100</valuemax>
								<value>-1</value>
							</parameter>
							<parameter>
								<parameterid>contrast</parameterid>
								<name>Contrast</name>
								<valuemin>-100</valuemin>
								<valuemax>100</valuemax>
								<value>13</value>
							</parameter>
						</effect>
					</filter>
					<sourcetrack>
						<mediatype>video</mediatype>
					</sourcetrack>
					<fielddominance>upper</fielddominance>
				</clipitem>
				<clipitem id="C0023 5">
					<name>C0023</name>
					<duration>1465</duration>
					<rate>
						<ntsc>FALSE</ntsc>
						<timebase>25</timebase>
					</rate>
					<in>1296</in>
					<out>1344</out>
					<start>20604</start>
					<end>20652</end>
					<pixelaspectratio>Square</pixelaspectratio>
					<enabled>TRUE</enabled>
					<anamorphic>FALSE</anamorphic>
					<alphatype>none</alphatype>
					<masterclipid>C0023 1</masterclipid>
					<logginginfo>
						<scene/>
						<shottake/>
						<lognote/>
						<good>FALSE</good>
					</logginginfo>
					<labels>
						<label2/>
					</labels>
					<comments>
						<mastercomment1/>
						<mastercomment2/>
						<mastercomment3/>
						<mastercomment4/>
					</comments>
					<file id="C0023 2"/>
					<sourcetrack>
						<mediatype>video</mediatype>
					</sourcetrack>
					<link>
						<linkclipref>C0023 5</linkclipref>
						<mediatype>video</mediatype>
						<trackindex>1</trackindex>
						<clipindex>147</clipindex>
					</link>
					<link>
						<linkclipref>C0023 6</linkclipref>
						<mediatype>audio</mediatype>
						<trackindex>1</trackindex>
						<clipindex>182</clipindex>
					</link>
					<link>
						<linkclipref>C0023 7</linkclipref>
						<mediatype>audio</mediatype>
						<trackindex>2</trackindex>
						<clipindex>110</clipindex>
					</link>
					<fielddominance>upper</fielddominance>
				</clipitem>
				<clipitem id="C0066 ">
					<name>C0066</name>
					<duration>584</duration>
					<rate>
						<ntsc>FALSE</ntsc>
						<timebase>25</timebase>
					</rate>
					<in>133</in>
					<out>371</out>
					<start>20652</start>
					<end>20890</end>
					<pixelaspectratio>Square</pixelaspectratio>
					<enabled>TRUE</enabled>
					<anamorphic>FALSE</anamorphic>
					<alphatype>none</alphatype>
					<masterclipid>C0066 1</masterclipid>
					<logginginfo>
						<scene/>
						<shottake/>
						<lognote/>
						<good>FALSE</good>
					</logginginfo>
					<labels>
						<label2/>
					</labels>
					<comments>
						<mastercomment1/>
						<mastercomment2/>
						<mastercomment3/>
						<mastercomment4/>
					</comments>
					<file id="C0066 2">
						<name>C0066.mov</name>
						<pathurl>file://localhost/Volumes/Askepott/Prosjekter/DNPR637010_Kra%CC%8Akeklubben_TEM_011212/Video/Mellomstikk/S03E%20D%C3%B8den/DAG%202/C0066.mov</pathurl>
						<rate>
							<timebase>25</timebase>
						</rate>
						<duration>584</duration>
						<timecode>
							<rate>
								<timebase>25</timebase>
							</rate>
							<string>06:14:00:03</string>
							<frame>561003</frame>
							<displayformat>NDF</displayformat>
							<source>source</source>
							<reel>
								<name>XDCAM 20120509_100358</name>
							</reel>
						</timecode>
						<media>
							<video>
								<duration>584</duration>
								<samplecharacteristics>
									<width>1920</width>
									<height>1080</height>
								</samplecharacteristics>
							</video>
							<audio>
								<rate>
									<timebase>48000</timebase>
								</rate>
								<trackcount>1</trackcount>
								<channeldescription>8 Channels</channeldescription>
								<samplecharacteristics>
									<depth>24</depth>
								</samplecharacteristics>
							</audio>
						</media>
					</file>
					<sourcetrack>
						<mediatype>video</mediatype>
					</sourcetrack>
					<fielddominance>upper</fielddominance>
				</clipitem>
				<clipitem id="C0066 3">
					<name>C0066</name>
					<duration>584</duration>
					<rate>
						<ntsc>FALSE</ntsc>
						<timebase>25</timebase>
					</rate>
					<in>371</in>
					<out>455</out>
					<start>20890</start>
					<end>20974</end>
					<pixelaspectratio>Square</pixelaspectratio>
					<enabled>TRUE</enabled>
					<anamorphic>FALSE</anamorphic>
					<alphatype>none</alphatype>
					<masterclipid>C0066 1</masterclipid>
					<logginginfo>
						<scene/>
						<shottake/>
						<lognote/>
						<good>FALSE</good>
					</logginginfo>
					<labels>
						<label2/>
					</labels>
					<comments>
						<mastercomment1/>
						<mastercomment2/>
						<mastercomment3/>
						<mastercomment4/>
					</comments>
					<file id="C0066 2"/>
					<filter>
						<enabled>TRUE</enabled>
						<start>-1</start>
						<end>-1</end>
						<effect>
							<name>Twixtor FxPlug</name>
							<effecttype>filter</effecttype>
							<mediatype>video</mediatype>
							<parameter>
								<parameterid>input_1</parameterid>
								<name>Display</name>
								<valuelist>
									<valueentry>
										<name>Twixtored Output</name>
										<value>1</value>
									</valueentry>
									<valueentry>
										<name>Source</name>
										<value>2</value>
									</valueentry>
									<valueentry>
										<name>Alt Track Source</name>
										<value>3</value>
									</valueentry>
								</valuelist>
								<value>1</value>
							</parameter>
							<parameter>
								<parameterid>group_2</parameterid>
								<name>Source Control</name>
								<value>Source Control</value>
							</parameter>
							<parameter>
								<parameterid>input_3</parameterid>
								<name>Alt Track Source</name>
							</parameter>
							<parameter>
								<parameterid>input_4</parameterid>
								<name>Mark Segments</name>
								<valuemin>1</valuemin>
								<valuemax>2</valuemax>
								<value>1</value>
							</parameter>
							<parameter>
								<parameterid>group_5</parameterid>
								<name>Track Control</name>
								<value>Track Control</value>
							</parameter>
							<parameter>
								<parameterid>input_6</parameterid>
								<name>Motion Vectors</name>
								<valuelist>
									<valueentry>
										<name>No Motion Vectors</name>
										<value>1</value>
									</valueentry>
									<valueentry>
										<name>Sloppy</name>
										<value>2</value>
									</valueentry>
									<valueentry>
										<name>Medium</name>
										<value>3</value>
									</valueentry>
									<valueentry>
										<name>High</name>
										<value>4</value>
									</valueentry>
									<valueentry>
										<name>Best</name>
										<value>5</value>
									</valueentry>
								</valuelist>
								<value>5</value>
							</parameter>
							<parameter>
								<parameterid>input_7</parameterid>
								<name>Image Prep</name>
								<valuelist>
									<valueentry>
										<name>None</name>
										<value>1</value>
									</valueentry>
									<valueentry>
										<name>Contrast/Edge Enhance</name>
										<value>2</value>
									</valueentry>
								</valuelist>
								<value>1</value>
							</parameter>
							<parameter>
								<parameterid>input_8</parameterid>
								<name>Motion Sensitivity</name>
								<valuemin>0</valuemin>
								<valuemax>100</valuemax>
								<value>70</value>
							</parameter>
							<parameter>
								<parameterid>group_9</parameterid>
								<name>Output Control</name>
								<value>Output Control</value>
							</parameter>
							<parameter>
								<parameterid>input_10</parameterid>
								<name>Time Remap Mode</name>
								<valuelist>
									<valueentry>
										<name>Speed</name>
										<value>1</value>
									</valueentry>
									<valueentry>
										<name>Frame Number</name>
										<value>2</value>
									</valueentry>
								</valuelist>
								<value>1</value>
							</parameter>
							<parameter>
								<parameterid>input_11</parameterid>
								<name>Speed %</name>
								<valuemin>-10000</valuemin>
								<valuemax>10000</valuemax>
								<keyframe>
									<when>371</when>
									<value>100</value>
								</keyframe>
								<keyframe>
									<when>379</when>
									<value>150</value>
								</keyframe>
								<interpolation>
									<name>FCPCurve</name>
								</interpolation>
								<value>150</value>
							</parameter>
							<parameter>
								<parameterid>input_12</parameterid>
								<name>Frame Num</name>
								<valuemin>0</valuemin>
								<valuemax>30000</valuemax>
								<value>0</value>
							</parameter>
							<parameter>
								<parameterid>input_13</parameterid>
								<name>Frame Interp</name>
								<valuelist>
									<valueentry>
										<name>Nearest</name>
										<value>1</value>
									</valueentry>
									<valueentry>
										<name>Blend</name>
										<value>2</value>
									</valueentry>
									<valueentry>
										<name>Motion Weighted Blend</name>
										<value>3</value>
									</valueentry>
								</valuelist>
								<value>2</value>
							</parameter>
							<parameter>
								<parameterid>input_14</parameterid>
								<name>Smart Blend</name>
								<value>FALSE</value>
							</parameter>
							<parameter>
								<parameterid>input_15</parameterid>
								<name>Motion Blur Compensation</name>
								<valuemin>0</valuemin>
								<valuemax>10</valuemax>
								<value>0</value>
							</parameter>
							<parameter>
								<parameterid>endGroup_9</parameterid>
								<name/>
								<value/>
							</parameter>
							<parameter>
								<parameterid>input_16</parameterid>
								<name>Registered to</name>
								<value>5Hans Ludvig Andreassen</value>
							</parameter>
							<parameter>
								<parameterid>FCP_FilterMix</parameterid>
								<name>Mix</name>
								<valuemin>0</valuemin>
								<valuemax>100</valuemax>
								<value>100</value>
							</parameter>
						</effect>
					</filter>
					<sourcetrack>
						<mediatype>video</mediatype>
					</sourcetrack>
					<fielddominance>upper</fielddominance>
				</clipitem>
				<clipitem id="C0072 ">
					<name>C0072</name>
					<duration>727</duration>
					<rate>
						<ntsc>FALSE</ntsc>
						<timebase>25</timebase>
					</rate>
					<in>85</in>
					<out>312</out>
					<start>20974</start>
					<end>21201</end>
					<pixelaspectratio>Square</pixelaspectratio>
					<enabled>TRUE</enabled>
					<anamorphic>FALSE</anamorphic>
					<alphatype>none</alphatype>
					<masterclipid>C0072 1</masterclipid>
					<logginginfo>
						<scene/>
						<shottake/>
						<lognote/>
						<good>FALSE</good>
					</logginginfo>
					<labels>
						<label2/>
					</labels>
					<comments>
						<mastercomment1/>
						<mastercomment2/>
						<mastercomment3/>
						<mastercomment4/>
					</comments>
					<file id="C0072 2">
						<name>C0072.mov</name>
						<pathurl>file://localhost/Volumes/Askepott/Prosjekter/DNPR637010_Kra%CC%8Akeklubben_TEM_011212/Video/Mellomstikk/S03E%20D%C3%B8den/DAG%202/C0072.mov</pathurl>
						<rate>
							<timebase>25</timebase>
						</rate>
						<duration>727</duration>
						<timecode>
							<rate>
								<timebase>25</timebase>
							</rate>
							<string>06:16:32:11</string>
							<frame>564811</frame>
							<displayformat>NDF</displayformat>
							<source>source</source>
							<reel>
								<name>XDCAM 20120509_100358</name>
							</reel>
						</timecode>
						<media>
							<video>
								<duration>727</duration>
								<samplecharacteristics>
									<width>1920</width>
									<height>1080</height>
								</samplecharacteristics>
							</video>
							<audio>
								<rate>
									<timebase>48000</timebase>
								</rate>
								<trackcount>1</trackcount>
								<channeldescription>8 Channels</channeldescription>
								<samplecharacteristics>
									<depth>24</depth>
								</samplecharacteristics>
							</audio>
						</media>
					</file>
					<filter>
						<enabled>TRUE</enabled>
						<start>-1</start>
						<end>-1</end>
						<effect>
							<name>Color Corrector 3-way</name>
							<effectid>Color Corrector 3-way</effectid>
							<effectcategory>Color Correction</effectcategory>
							<effecttype>filter</effecttype>
							<mediatype>video</mediatype>
							<parameter>
								<parameterid>dispmode</parameterid>
								<name>Display Mode</name>
								<valuemin>1</valuemin>
								<valuemax>3</valuemax>
								<valuelist>
									<valueentry>
										<name>Final</name>
										<value>1</value>
									</valueentry>
									<valueentry>
										<name>Matte</name>
										<value>2</value>
									</valueentry>
									<valueentry>
										<name>Source</name>
										<value>3</value>
									</valueentry>
								</valuelist>
								<value>1</value>
							</parameter>
							<parameter>
								<parameterid>label1</parameterid>
								<name>Blacks Controls</name>
								<value/>
							</parameter>
							<parameter>
								<parameterid>blacklevel</parameterid>
								<name>Level</name>
								<valuemin>-196</valuemin>
								<valuemax>254</valuemax>
								<value>0</value>
							</parameter>
							<parameter>
								<parameterid>b_hue</parameterid>
								<name>Angle</name>
								<valuemin>-180</valuemin>
								<valuemax>180</valuemax>
								<value>-33</value>
							</parameter>
							<parameter>
								<parameterid>b_mag</parameterid>
								<name>Magnitude</name>
								<valuemin>0</valuemin>
								<valuemax>200</valuemax>
								<value>0</value>
							</parameter>
							<parameter>
								<parameterid>label2</parameterid>
								<name>Midrange Controls</name>
								<value/>
							</parameter>
							<parameter>
								<parameterid>mids</parameterid>
								<name>Level</name>
								<valuemin>0</valuemin>
								<valuemax>200</valuemax>
								<value>100</value>
							</parameter>
							<parameter>
								<parameterid>m_hue</parameterid>
								<name>Angle</name>
								<valuemin>-180</valuemin>
								<valuemax>180</valuemax>
								<value>149.265</value>
							</parameter>
							<parameter>
								<parameterid>m_mag</parameterid>
								<name>Magnitude</name>
								<valuemin>0</valuemin>
								<valuemax>200</valuemax>
								<value>3.89632</value>
							</parameter>
							<parameter>
								<parameterid>label3</parameterid>
								<name>Highlight Controls</name>
								<value/>
							</parameter>
							<parameter>
								<parameterid>highlights</parameterid>
								<name>Level</name>
								<valuemin>64</valuemin>
								<valuemax>509</valuemax>
								<value>255</value>
							</parameter>
							<parameter>
								<parameterid>h_hue</parameterid>
								<name>Angle</name>
								<valuemin>-180</valuemin>
								<valuemax>180</valuemax>
								<value>-33</value>
							</parameter>
							<parameter>
								<parameterid>h_mag</parameterid>
								<name>Magnitude</name>
								<valuemin>0</valuemin>
								<valuemax>200</valuemax>
								<value>0</value>
							</parameter>
							<parameter>
								<parameterid>label4</parameterid>
								<name>Color Controls</name>
								<value/>
							</parameter>
							<parameter>
								<parameterid>chroma</parameterid>
								<name>Saturation</name>
								<valuemin>0</valuemin>
								<valuemax>200</valuemax>
								<value>100</value>
							</parameter>
							<parameter>
								<parameterid>label5</parameterid>
								<name>Limit Effect Controls</name>
								<value/>
							</parameter>
							<parameter>
								<parameterid>dochroma</parameterid>
								<name>Limit on Chroma</name>
								<value>FALSE</value>
							</parameter>
							<parameter>
								<parameterid>centerang</parameterid>
								<name>Chroma Center</name>
								<valuemin>-760</valuemin>
								<valuemax>760</valuemax>
								<value>-110</value>
							</parameter>
							<parameter>
								<parameterid>chromawidth</parameterid>
								<name>Chroma Width</name>
								<valuemin>0</valuemin>
								<valuemax>360</valuemax>
								<value>15</value>
							</parameter>
							<parameter>
								<parameterid>chromasoft</parameterid>
								<name>Chroma Softness</name>
								<valuemin>0</valuemin>
								<valuemax>180</valuemax>
								<value>10</value>
							</parameter>
							<parameter>
								<parameterid>dosat</parameterid>
								<name>Limit on Saturation</name>
								<value>FALSE</value>
							</parameter>
							<parameter>
								<parameterid>satmin</parameterid>
								<name>Sat. Minimum</name>
								<valuemin>0</valuemin>
								<valuemax>125</valuemax>
								<value>35</value>
							</parameter>
							<parameter>
								<parameterid>satwidth</parameterid>
								<name>Sat. Width</name>
								<valuemin>0</valuemin>
								<valuemax>125</valuemax>
								<value>40</value>
							</parameter>
							<parameter>
								<parameterid>satsoft</parameterid>
								<name>Sat. Softness</name>
								<valuemin>0</valuemin>
								<valuemax>125</valuemax>
								<value>20</value>
							</parameter>
							<parameter>
								<parameterid>doluma</parameterid>
								<name>Limit on Luma</name>
								<value>FALSE</value>
							</parameter>
							<parameter>
								<parameterid>lumamin</parameterid>
								<name>Luma Minimum</name>
								<valuemin>0</valuemin>
								<valuemax>120</valuemax>
								<value>0</value>
							</parameter>
							<parameter>
								<parameterid>lumawidth</parameterid>
								<name>Luma Width</name>
								<valuemin>0</valuemin>
								<valuemax>120</valuemax>
								<value>40</value>
							</parameter>
							<parameter>
								<parameterid>lumasoft</parameterid>
								<name>Luma Softness</name>
								<valuemin>0</valuemin>
								<valuemax>120</valuemax>
								<value>20</value>
							</parameter>
							<parameter>
								<parameterid>label6</parameterid>
								<name>Edge Control</name>
								<value/>
							</parameter>
							<parameter>
								<parameterid>edgethin</parameterid>
								<name>Thin/Spread</name>
								<valuemin>-100</valuemin>
								<valuemax>100</valuemax>
								<value>0</value>
							</parameter>
							<parameter>
								<parameterid>edgefeather</parameterid>
								<name>Softening</name>
								<valuemin>0</valuemin>
								<valuemax>100</valuemax>
								<value>0</value>
							</parameter>
							<parameter>
								<parameterid>label7</parameterid>
								<name>Mask Control</name>
								<value/>
							</parameter>
							<parameter>
								<parameterid>invertsel</parameterid>
								<name>Invert</name>
								<value>FALSE</value>
							</parameter>
							<parameter>
								<parameterid>debugshow</parameterid>
								<name>Show Stats</name>
								<value>FALSE</value>
							</parameter>
						</effect>
					</filter>
					<sourcetrack>
						<mediatype>video</mediatype>
					</sourcetrack>
					<link>
						<linkclipref>C0072 </linkclipref>
						<mediatype>video</mediatype>
						<trackindex>1</trackindex>
						<clipindex>150</clipindex>
					</link>
					<link>
						<linkclipref>C0072 3</linkclipref>
						<mediatype>audio</mediatype>
						<trackindex>1</trackindex>
						<clipindex>185</clipindex>
					</link>
					<fielddominance>upper</fielddominance>
				</clipitem>
				<clipitem id="C0074 7">
					<name>C0074</name>
					<duration>447</duration>
					<rate>
						<ntsc>FALSE</ntsc>
						<timebase>25</timebase>
					</rate>
					<in>327</in>
					<out>397</out>
					<start>21201</start>
					<end>21271</end>
					<pixelaspectratio>Square</pixelaspectratio>
					<enabled>TRUE</enabled>
					<anamorphic>FALSE</anamorphic>
					<alphatype>none</alphatype>
					<masterclipid>C0074 8</masterclipid>
					<logginginfo>
						<scene/>
						<shottake/>
						<lognote/>
						<good>FALSE</good>
					</logginginfo>
					<labels>
						<label2/>
					</labels>
					<comments>
						<mastercomment1/>
						<mastercomment2/>
						<mastercomment3/>
						<mastercomment4/>
					</comments>
					<file id="C0074 9">
						<name>C0074.mov</name>
						<pathurl>file://localhost/Volumes/Askepott/Prosjekter/DNPR637010_Kra%CC%8Akeklubben_TEM_011212/Video/Mellomstikk/S03E%20D%C3%B8den/DAG%202/C0074.mov</pathurl>
						<rate>
							<timebase>25</timebase>
						</rate>
						<duration>447</duration>
						<timecode>
							<rate>
								<timebase>25</timebase>
							</rate>
							<string>06:17:39:07</string>
							<frame>566482</frame>
							<displayformat>NDF</displayformat>
							<source>source</source>
							<reel>
								<name>XDCAM 20120509_100358</name>
							</reel>
						</timecode>
						<media>
							<video>
								<duration>447</duration>
								<samplecharacteristics>
									<width>1920</width>
									<height>1080</height>
								</samplecharacteristics>
							</video>
							<audio>
								<rate>
									<timebase>48000</timebase>
								</rate>
								<trackcount>1</trackcount>
								<channeldescription>8 Channels</channeldescription>
								<samplecharacteristics>
									<depth>24</depth>
								</samplecharacteristics>
							</audio>
						</media>
					</file>
					<sourcetrack>
						<mediatype>video</mediatype>
					</sourcetrack>
					<fielddominance>upper</fielddominance>
				</clipitem>
				<clipitem id="C0079 ">
					<name>C0079</name>
					<duration>438</duration>
					<rate>
						<ntsc>FALSE</ntsc>
						<timebase>25</timebase>
					</rate>
					<in>186</in>
					<out>301</out>
					<start>21271</start>
					<end>21386</end>
					<pixelaspectratio>Square</pixelaspectratio>
					<enabled>TRUE</enabled>
					<anamorphic>FALSE</anamorphic>
					<alphatype>none</alphatype>
					<masterclipid>C0079 1</masterclipid>
					<logginginfo>
						<scene/>
						<shottake/>
						<lognote/>
						<good>FALSE</good>
					</logginginfo>
					<labels>
						<label2/>
					</labels>
					<comments>
						<mastercomment1/>
						<mastercomment2/>
						<mastercomment3/>
						<mastercomment4/>
					</comments>
					<file id="C0079 2">
						<name>C0079.mov</name>
						<pathurl>file://localhost/Volumes/Askepott/Prosjekter/DNPR637010_Kra%CC%8Akeklubben_TEM_011212/Video/Mellomstikk/S03E%20D%C3%B8den/DAG%202/C0079.mov</pathurl>
						<rate>
							<timebase>25</timebase>
						</rate>
						<duration>438</duration>
						<timecode>
							<rate>
								<timebase>25</timebase>
							</rate>
							<string>06:19:18:12</string>
							<frame>568962</frame>
							<displayformat>NDF</displayformat>
							<source>source</source>
							<reel>
								<name>XDCAM 20120509_100358</name>
							</reel>
						</timecode>
						<media>
							<video>
								<duration>438</duration>
								<samplecharacteristics>
									<width>1920</width>
									<height>1080</height>
								</samplecharacteristics>
							</video>
							<audio>
								<rate>
									<timebase>48000</timebase>
								</rate>
								<trackcount>1</trackcount>
								<channeldescription>8 Channels</channeldescription>
								<samplecharacteristics>
									<depth>24</depth>
								</samplecharacteristics>
							</audio>
						</media>
					</file>
					<sourcetrack>
						<mediatype>video</mediatype>
					</sourcetrack>
					<link>
						<linkclipref>C0079 </linkclipref>
						<mediatype>video</mediatype>
						<trackindex>1</trackindex>
						<clipindex>152</clipindex>
					</link>
					<link>
						<linkclipref>C0079 3</linkclipref>
						<mediatype>audio</mediatype>
						<trackindex>2</trackindex>
						<clipindex>113</clipindex>
					</link>
					<fielddominance>upper</fielddominance>
				</clipitem>
				<clipitem id="C0068 ">
					<name>C0068</name>
					<duration>839</duration>
					<rate>
						<ntsc>FALSE</ntsc>
						<timebase>25</timebase>
					</rate>
					<in>286</in>
					<out>512</out>
					<start>21386</start>
					<end>21612</end>
					<pixelaspectratio>Square</pixelaspectratio>
					<enabled>TRUE</enabled>
					<anamorphic>FALSE</anamorphic>
					<alphatype>none</alphatype>
					<masterclipid>C0068 1</masterclipid>
					<logginginfo>
						<scene/>
						<shottake/>
						<lognote/>
						<good>FALSE</good>
					</logginginfo>
					<labels>
						<label2/>
					</labels>
					<comments>
						<mastercomment1/>
						<mastercomment2/>
						<mastercomment3/>
						<mastercomment4/>
					</comments>
					<file id="C0068 2">
						<name>C0068.mov</name>
						<pathurl>file://localhost/Volumes/Askepott/Prosjekter/DNPR637010_Kra%CC%8Akeklubben_TEM_011212/Video/Mellomstikk/S03E%20D%C3%B8den/DAG%202/C0068.mov</pathurl>
						<rate>
							<timebase>25</timebase>
						</rate>
						<duration>839</duration>
						<timecode>
							<rate>
								<timebase>25</timebase>
							</rate>
							<string>06:14:34:19</string>
							<frame>561869</frame>
							<displayformat>NDF</displayformat>
							<source>source</source>
							<reel>
								<name>XDCAM 20120509_100358</name>
							</reel>
						</timecode>
						<media>
							<video>
								<duration>839</duration>
								<samplecharacteristics>
									<width>1920</width>
									<height>1080</height>
								</samplecharacteristics>
							</video>
							<audio>
								<rate>
									<timebase>48000</timebase>
								</rate>
								<trackcount>1</trackcount>
								<channeldescription>8 Channels</channeldescription>
								<samplecharacteristics>
									<depth>24</depth>
								</samplecharacteristics>
							</audio>
						</media>
					</file>
					<sourcetrack>
						<mediatype>video</mediatype>
					</sourcetrack>
					<fielddominance>upper</fielddominance>
				</clipitem>
				<clipitem id="C0071 ">
					<name>C0071</name>
					<duration>578</duration>
					<rate>
						<ntsc>FALSE</ntsc>
						<timebase>25</timebase>
					</rate>
					<in>411</in>
					<out>545</out>
					<start>21612</start>
					<end>21746</end>
					<pixelaspectratio>Square</pixelaspectratio>
					<enabled>TRUE</enabled>
					<anamorphic>FALSE</anamorphic>
					<alphatype>none</alphatype>
					<masterclipid>C0071 1</masterclipid>
					<logginginfo>
						<scene/>
						<shottake/>
						<lognote/>
						<good>FALSE</good>
					</logginginfo>
					<labels>
						<label2/>
					</labels>
					<comments>
						<mastercomment1/>
						<mastercomment2/>
						<mastercomment3/>
						<mastercomment4/>
					</comments>
					<file id="C0071 2">
						<name>C0071.mov</name>
						<pathurl>file://localhost/Volumes/Askepott/Prosjekter/DNPR637010_Kra%CC%8Akeklubben_TEM_011212/Video/Mellomstikk/S03E%20D%C3%B8den/DAG%202/C0071.mov</pathurl>
						<rate>
							<timebase>25</timebase>
						</rate>
						<duration>807</duration>
						<timecode>
							<rate>
								<timebase>25</timebase>
							</rate>
							<string>06:16:00:04</string>
							<frame>564004</frame>
							<displayformat>NDF</displayformat>
							<source>source</source>
							<reel>
								<name>XDCAM 20120509_100358</name>
							</reel>
						</timecode>
						<media>
							<video>
								<duration>807</duration>
								<samplecharacteristics>
									<width>1920</width>
									<height>1080</height>
								</samplecharacteristics>
							</video>
							<audio>
								<rate>
									<timebase>48000</timebase>
								</rate>
								<trackcount>1</trackcount>
								<channeldescription>8 Channels</channeldescription>
								<samplecharacteristics>
									<depth>24</depth>
								</samplecharacteristics>
							</audio>
						</media>
					</file>
					<filter>
						<start>-1</start>
						<end>-1</end>
						<effect>
							<name>Flop</name>
							<effectid>Flop</effectid>
							<effectcategory>Perspective</effectcategory>
							<effecttype>filter</effecttype>
							<mediatype>video</mediatype>
							<parameter>
								<parameterid>flop</parameterid>
								<name>Flop</name>
								<valuemin>1</valuemin>
								<valuemax>3</valuemax>
								<valuelist>
									<valueentry>
										<name>Horizontal</name>
										<value>1</value>
									</valueentry>
									<valueentry>
										<name>Vertical</name>
										<value>2</value>
									</valueentry>
									<valueentry>
										<name>Both</name>
										<value>3</value>
									</valueentry>
								</valuelist>
								<value>1</value>
							</parameter>
						</effect>
					</filter>
					<sourcetrack>
						<mediatype>video</mediatype>
					</sourcetrack>
					<fielddominance>upper</fielddominance>
					<filter>
						<effect>
							<name>Time Remap</name>
							<effectid>timeremap</effectid>
							<effectcategory>motion</effectcategory>
							<effecttype>motion</effecttype>
							<mediatype>video</mediatype>
							<parameter>
								<parameterid>variablespeed</parameterid>
								<name>variablespeed</name>
								<valuemin>0</valuemin>
								<valuemax>1</valuemax>
								<value>0</value>
							</parameter>
							<parameter>
								<parameterid>mappedduration</parameterid>
								<name>mappedduration</name>
								<value>
									<timecode>
										<rate>
											<timebase>0</timebase>
										</rate>
										<string>0</string>
										<frame>0</frame>
										<displayformat>NDF</displayformat>
									</timecode>
								</value>
							</parameter>
							<parameter>
								<parameterid>speed</parameterid>
								<name>speed</name>
								<valuemin>-10000</valuemin>
								<valuemax>10000</valuemax>
								<value>139</value>
							</parameter>
							<parameter>
								<parameterid>reverse</parameterid>
								<name>reverse</name>
								<value>FALSE</value>
							</parameter>
							<parameter>
								<parameterid>frameblending</parameterid>
								<name>frameblending</name>
								<value>TRUE</value>
							</parameter>
							<parameter>
								<parameterid>graphdict</parameterid>
								<name>graphdict</name>
								<valuemin>0</valuemin>
								<valuemax>806</valuemax>
								<keyframe>
									<when>0</when>
									<value>0.8821</value>
									<speedkfstart>TRUE</speedkfstart>
									<speedvirtualkf>TRUE</speedvirtualkf>
								</keyframe>
								<keyframe>
									<when>411</when>
									<value>575</value>
									<speedkfin>TRUE</speedkfin>
									<speedvirtualkf>TRUE</speedvirtualkf>
								</keyframe>
								<keyframe>
									<when>545</when>
									<value>762.182</value>
									<speedkfout>TRUE</speedkfout>
									<speedvirtualkf>TRUE</speedvirtualkf>
								</keyframe>
								<keyframe>
									<when>578</when>
									<value>807.882</value>
									<speedkfend>TRUE</speedkfend>
									<speedvirtualkf>TRUE</speedvirtualkf>
								</keyframe>
								<interpolation>
									<name>FCPCurve</name>
								</interpolation>
								<value>575</value>
							</parameter>
						</effect>
					</filter>
				</clipitem>
				<clipitem id="C0030 5">
					<name>C0030</name>
					<duration>3316</duration>
					<rate>
						<ntsc>FALSE</ntsc>
						<timebase>25</timebase>
					</rate>
					<in>239</in>
					<out>360</out>
					<start>21746</start>
					<end>21867</end>
					<pixelaspectratio>Square</pixelaspectratio>
					<enabled>TRUE</enabled>
					<anamorphic>FALSE</anamorphic>
					<alphatype>none</alphatype>
					<masterclipid>C0030 6</masterclipid>
					<logginginfo>
						<scene/>
						<shottake/>
						<lognote/>
						<good>FALSE</good>
					</logginginfo>
					<labels>
						<label2/>
					</labels>
					<comments>
						<mastercomment1/>
						<mastercomment2/>
						<mastercomment3/>
						<mastercomment4/>
					</comments>
					<file id="C0030 7">
						<name>C0030.mov</name>
						<pathurl>file://localhost/Volumes/Askepott/Prosjekter/DNPR637010_Kra%CC%8Akeklubben_TEM_011212/Video/Mellomstikk/S03E%20D%C3%B8den/DAG%202/C0030.mov</pathurl>
						<rate>
							<timebase>25</timebase>
						</rate>
						<duration>3316</duration>
						<timecode>
							<rate>
								<timebase>25</timebase>
							</rate>
							<string>05:44:18:11</string>
							<frame>516461</frame>
							<displayformat>NDF</displayformat>
							<source>source</source>
							<reel>
								<name>XDCAM 20120509_100358</name>
							</reel>
						</timecode>
						<media>
							<video>
								<duration>3316</duration>
								<samplecharacteristics>
									<width>1920</width>
									<height>1080</height>
								</samplecharacteristics>
							</video>
							<audio>
								<rate>
									<timebase>48000</timebase>
								</rate>
								<trackcount>1</trackcount>
								<channeldescription>8 Channels</channeldescription>
								<samplecharacteristics>
									<depth>24</depth>
								</samplecharacteristics>
							</audio>
						</media>
					</file>
					<sourcetrack>
						<mediatype>video</mediatype>
					</sourcetrack>
					<fielddominance>upper</fielddominance>
				</clipitem>
				<clipitem id="C0038 2">
					<name>C0038</name>
					<duration>1051</duration>
					<rate>
						<ntsc>FALSE</ntsc>
						<timebase>25</timebase>
					</rate>
					<in>713</in>
					<out>845</out>
					<start>21867</start>
					<end>21999</end>
					<pixelaspectratio>Square</pixelaspectratio>
					<enabled>TRUE</enabled>
					<anamorphic>FALSE</anamorphic>
					<alphatype>none</alphatype>
					<masterclipid>C0038 3</masterclipid>
					<logginginfo>
						<scene/>
						<shottake/>
						<lognote/>
						<good>FALSE</good>
					</logginginfo>
					<labels>
						<label2/>
					</labels>
					<comments>
						<mastercomment1/>
						<mastercomment2/>
						<mastercomment3/>
						<mastercomment4/>
					</comments>
					<file id="C0038 4">
						<name>C0038.mov</name>
						<pathurl>file://localhost/Volumes/Askepott/Prosjekter/DNPR637010_Kra%CC%8Akeklubben_TEM_011212/Video/Mellomstikk/S03E%20D%C3%B8den/DAG%202/C0038.mov</pathurl>
						<rate>
							<timebase>25</timebase>
						</rate>
						<duration>1051</duration>
						<timecode>
							<rate>
								<timebase>25</timebase>
							</rate>
							<string>05:52:37:08</string>
							<frame>528933</frame>
							<displayformat>NDF</displayformat>
							<source>source</source>
							<reel>
								<name>XDCAM 20120509_100358</name>
							</reel>
						</timecode>
						<media>
							<video>
								<duration>1051</duration>
								<samplecharacteristics>
									<width>1920</width>
									<height>1080</height>
								</samplecharacteristics>
							</video>
							<audio>
								<rate>
									<timebase>48000</timebase>
								</rate>
								<trackcount>1</trackcount>
								<channeldescription>8 Channels</channeldescription>
								<samplecharacteristics>
									<depth>24</depth>
								</samplecharacteristics>
							</audio>
						</media>
					</file>
					<sourcetrack>
						<mediatype>video</mediatype>
					</sourcetrack>
					<link>
						<linkclipref>C0038 2</linkclipref>
						<mediatype>video</mediatype>
						<trackindex>1</trackindex>
						<clipindex>156</clipindex>
					</link>
					<link>
						<linkclipref>C0038 5</linkclipref>
						<mediatype>audio</mediatype>
						<trackindex>1</trackindex>
						<clipindex>194</clipindex>
					</link>
					<link>
						<linkclipref>C0038 6</linkclipref>
						<mediatype>audio</mediatype>
						<trackindex>2</trackindex>
						<clipindex>115</clipindex>
					</link>
					<fielddominance>upper</fielddominance>
				</clipitem>
				<clipitem id="C0030 8">
					<name>C0030</name>
					<duration>3316</duration>
					<rate>
						<ntsc>FALSE</ntsc>
						<timebase>25</timebase>
					</rate>
					<in>577</in>
					<out>680</out>
					<start>21999</start>
					<end>22102</end>
					<pixelaspectratio>Square</pixelaspectratio>
					<enabled>TRUE</enabled>
					<anamorphic>FALSE</anamorphic>
					<alphatype>none</alphatype>
					<masterclipid>C0030 6</masterclipid>
					<logginginfo>
						<scene/>
						<shottake/>
						<lognote/>
						<good>FALSE</good>
					</logginginfo>
					<labels>
						<label2/>
					</labels>
					<comments>
						<mastercomment1/>
						<mastercomment2/>
						<mastercomment3/>
						<mastercomment4/>
					</comments>
					<file id="C0030 7"/>
					<sourcetrack>
						<mediatype>video</mediatype>
					</sourcetrack>
					<link>
						<linkclipref>C0030 8</linkclipref>
						<mediatype>video</mediatype>
						<trackindex>1</trackindex>
						<clipindex>157</clipindex>
					</link>
					<link>
						<linkclipref>C0030 9</linkclipref>
						<mediatype>audio</mediatype>
						<trackindex>1</trackindex>
						<clipindex>196</clipindex>
					</link>
					<fielddominance>upper</fielddominance>
				</clipitem>
				<clipitem id="C0036 ">
					<name>C0036</name>
					<duration>1240</duration>
					<rate>
						<ntsc>FALSE</ntsc>
						<timebase>25</timebase>
					</rate>
					<in>153</in>
					<out>245</out>
					<start>22102</start>
					<end>22194</end>
					<pixelaspectratio>Square</pixelaspectratio>
					<enabled>TRUE</enabled>
					<anamorphic>FALSE</anamorphic>
					<alphatype>none</alphatype>
					<masterclipid>C0036 1</masterclipid>
					<logginginfo>
						<scene/>
						<shottake/>
						<lognote/>
						<good>FALSE</good>
					</logginginfo>
					<labels>
						<label2/>
					</labels>
					<comments>
						<mastercomment1/>
						<mastercomment2/>
						<mastercomment3/>
						<mastercomment4/>
					</comments>
					<file id="C0036 2">
						<name>C0036.mov</name>
						<pathurl>file://localhost/Volumes/Askepott/Prosjekter/DNPR637010_Kra%CC%8Akeklubben_TEM_011212/Video/Mellomstikk/S03E%20D%C3%B8den/DAG%202/C0036.mov</pathurl>
						<rate>
							<timebase>25</timebase>
						</rate>
						<duration>1240</duration>
						<timecode>
							<rate>
								<timebase>25</timebase>
							</rate>
							<string>05:51:01:07</string>
							<frame>526532</frame>
							<displayformat>NDF</displayformat>
							<source>source</source>
							<reel>
								<name>XDCAM 20120509_100358</name>
							</reel>
						</timecode>
						<media>
							<video>
								<duration>1240</duration>
								<samplecharacteristics>
									<width>1920</width>
									<height>1080</height>
								</samplecharacteristics>
							</video>
							<audio>
								<rate>
									<timebase>48000</timebase>
								</rate>
								<trackcount>1</trackcount>
								<channeldescription>8 Channels</channeldescription>
								<samplecharacteristics>
									<depth>24</depth>
								</samplecharacteristics>
							</audio>
						</media>
					</file>
					<sourcetrack>
						<mediatype>video</mediatype>
					</sourcetrack>
					<fielddominance>upper</fielddominance>
				</clipitem>
				<clipitem id="C0031 ">
					<name>C0031</name>
					<duration>2614</duration>
					<rate>
						<ntsc>FALSE</ntsc>
						<timebase>25</timebase>
					</rate>
					<in>541</in>
					<out>740</out>
					<start>22194</start>
					<end>22393</end>
					<pixelaspectratio>Square</pixelaspectratio>
					<enabled>TRUE</enabled>
					<anamorphic>FALSE</anamorphic>
					<alphatype>none</alphatype>
					<masterclipid>C0031 1</masterclipid>
					<logginginfo>
						<scene/>
						<shottake/>
						<lognote/>
						<good>FALSE</good>
					</logginginfo>
					<labels>
						<label2/>
					</labels>
					<comments>
						<mastercomment1/>
						<mastercomment2/>
						<mastercomment3/>
						<mastercomment4/>
					</comments>
					<file id="C0031 2">
						<name>C0031.mov</name>
						<pathurl>file://localhost/Volumes/Askepott/Prosjekter/DNPR637010_Kra%CC%8Akeklubben_TEM_011212/Video/Mellomstikk/S03E%20D%C3%B8den/DAG%202/C0031.mov</pathurl>
						<rate>
							<timebase>25</timebase>
						</rate>
						<duration>2614</duration>
						<timecode>
							<rate>
								<timebase>25</timebase>
							</rate>
							<string>05:46:31:02</string>
							<frame>519777</frame>
							<displayformat>NDF</displayformat>
							<source>source</source>
							<reel>
								<name>XDCAM 20120509_100358</name>
							</reel>
						</timecode>
						<media>
							<video>
								<duration>2614</duration>
								<samplecharacteristics>
									<width>1920</width>
									<height>1080</height>
								</samplecharacteristics>
							</video>
							<audio>
								<rate>
									<timebase>48000</timebase>
								</rate>
								<trackcount>1</trackcount>
								<channeldescription>8 Channels</channeldescription>
								<samplecharacteristics>
									<depth>24</depth>
								</samplecharacteristics>
							</audio>
						</media>
					</file>
					<sourcetrack>
						<mediatype>video</mediatype>
					</sourcetrack>
					<link>
						<linkclipref>C0031 </linkclipref>
						<mediatype>video</mediatype>
						<trackindex>1</trackindex>
						<clipindex>159</clipindex>
					</link>
					<link>
						<linkclipref>C0031 3</linkclipref>
						<mediatype>audio</mediatype>
						<trackindex>1</trackindex>
						<clipindex>198</clipindex>
					</link>
					<link>
						<linkclipref>C0031 4</linkclipref>
						<mediatype>audio</mediatype>
						<trackindex>2</trackindex>
						<clipindex>119</clipindex>
					</link>
					<fielddominance>upper</fielddominance>
				</clipitem>
				<clipitem id="C0036 3">
					<name>C0036</name>
					<duration>1240</duration>
					<rate>
						<ntsc>FALSE</ntsc>
						<timebase>25</timebase>
					</rate>
					<in>550</in>
					<out>620</out>
					<start>22393</start>
					<end>22463</end>
					<pixelaspectratio>Square</pixelaspectratio>
					<anamorphic>FALSE</anamorphic>
					<alphatype>none</alphatype>
					<masterclipid>C0036 1</masterclipid>
					<logginginfo>
						<scene/>
						<shottake/>
						<lognote/>
						<good>FALSE</good>
					</logginginfo>
					<labels>
						<label2/>
					</labels>
					<comments>
						<mastercomment1/>
						<mastercomment2/>
						<mastercomment3/>
						<mastercomment4/>
					</comments>
					<file id="C0036 2"/>
					<sourcetrack>
						<mediatype>video</mediatype>
					</sourcetrack>
					<fielddominance>upper</fielddominance>
				</clipitem>
				<clipitem id="C0039 6">
					<name>C0039</name>
					<duration>4436</duration>
					<rate>
						<ntsc>FALSE</ntsc>
						<timebase>25</timebase>
					</rate>
					<in>889</in>
					<out>970</out>
					<start>22463</start>
					<end>22544</end>
					<pixelaspectratio>Square</pixelaspectratio>
					<enabled>TRUE</enabled>
					<anamorphic>FALSE</anamorphic>
					<alphatype>none</alphatype>
					<masterclipid>C0039 7</masterclipid>
					<logginginfo>
						<scene/>
						<shottake/>
						<lognote/>
						<good>FALSE</good>
					</logginginfo>
					<labels>
						<label2/>
					</labels>
					<comments>
						<mastercomment1/>
						<mastercomment2/>
						<mastercomment3/>
						<mastercomment4/>
					</comments>
					<file id="C0039 8">
						<name>C0039.mov</name>
						<pathurl>file://localhost/Volumes/Askepott/Prosjekter/DNPR637010_Kra%CC%8Akeklubben_TEM_011212/Video/Mellomstikk/S03E%20D%C3%B8den/DAG%202/C0039.mov</pathurl>
						<rate>
							<timebase>25</timebase>
						</rate>
						<duration>4436</duration>
						<timecode>
							<rate>
								<timebase>25</timebase>
							</rate>
							<string>05:53:19:09</string>
							<frame>529984</frame>
							<displayformat>NDF</displayformat>
							<source>source</source>
							<reel>
								<name>XDCAM 20120509_100358</name>
							</reel>
						</timecode>
						<media>
							<video>
								<duration>4436</duration>
								<samplecharacteristics>
									<width>1920</width>
									<height>1080</height>
								</samplecharacteristics>
							</video>
							<audio>
								<rate>
									<timebase>48000</timebase>
								</rate>
								<trackcount>1</trackcount>
								<channeldescription>8 Channels</channeldescription>
								<samplecharacteristics>
									<depth>24</depth>
								</samplecharacteristics>
							</audio>
						</media>
					</file>
					<sourcetrack>
						<mediatype>video</mediatype>
					</sourcetrack>
					<fielddominance>upper</fielddominance>
				</clipitem>
				<clipitem id="C0030 10">
					<name>C0030</name>
					<duration>3316</duration>
					<rate>
						<ntsc>FALSE</ntsc>
						<timebase>25</timebase>
					</rate>
					<in>1913</in>
					<out>1987</out>
					<start>22544</start>
					<end>22618</end>
					<pixelaspectratio>Square</pixelaspectratio>
					<enabled>TRUE</enabled>
					<anamorphic>FALSE</anamorphic>
					<alphatype>none</alphatype>
					<masterclipid>C0030 6</masterclipid>
					<logginginfo>
						<scene/>
						<shottake/>
						<lognote/>
						<good>FALSE</good>
					</logginginfo>
					<labels>
						<label2/>
					</labels>
					<comments>
						<mastercomment1/>
						<mastercomment2/>
						<mastercomment3/>
						<mastercomment4/>
					</comments>
					<file id="C0030 7"/>
					<sourcetrack>
						<mediatype>video</mediatype>
					</sourcetrack>
					<link>
						<linkclipref>C0030 10</linkclipref>
						<mediatype>video</mediatype>
						<trackindex>1</trackindex>
						<clipindex>162</clipindex>
					</link>
					<link>
						<linkclipref>C0030 11</linkclipref>
						<mediatype>audio</mediatype>
						<trackindex>1</trackindex>
						<clipindex>200</clipindex>
					</link>
					<link>
						<linkclipref>C0030 12</linkclipref>
						<mediatype>audio</mediatype>
						<trackindex>2</trackindex>
						<clipindex>121</clipindex>
					</link>
					<fielddominance>upper</fielddominance>
				</clipitem>
				<clipitem id="C0037 5">
					<name>C0037</name>
					<duration>1161</duration>
					<rate>
						<ntsc>FALSE</ntsc>
						<timebase>25</timebase>
					</rate>
					<in>395</in>
					<out>517</out>
					<start>22618</start>
					<end>22740</end>
					<pixelaspectratio>Square</pixelaspectratio>
					<enabled>TRUE</enabled>
					<anamorphic>FALSE</anamorphic>
					<alphatype>none</alphatype>
					<masterclipid>C0037 6</masterclipid>
					<logginginfo>
						<scene/>
						<shottake/>
						<lognote/>
						<good>FALSE</good>
					</logginginfo>
					<labels>
						<label2/>
					</labels>
					<comments>
						<mastercomment1/>
						<mastercomment2/>
						<mastercomment3/>
						<mastercomment4/>
					</comments>
					<file id="C0037 7">
						<name>C0037.mov</name>
						<pathurl>file://localhost/Volumes/Askepott/Prosjekter/DNPR637010_Kra%CC%8Akeklubben_TEM_011212/Video/Mellomstikk/S03E%20D%C3%B8den/DAG%202/C0037.mov</pathurl>
						<rate>
							<timebase>25</timebase>
						</rate>
						<duration>1161</duration>
						<timecode>
							<rate>
								<timebase>25</timebase>
							</rate>
							<string>05:51:50:22</string>
							<frame>527772</frame>
							<displayformat>NDF</displayformat>
							<source>source</source>
							<reel>
								<name>XDCAM 20120509_100358</name>
							</reel>
						</timecode>
						<media>
							<video>
								<duration>1161</duration>
								<samplecharacteristics>
									<width>1920</width>
									<height>1080</height>
								</samplecharacteristics>
							</video>
							<audio>
								<rate>
									<timebase>48000</timebase>
								</rate>
								<trackcount>1</trackcount>
								<channeldescription>8 Channels</channeldescription>
								<samplecharacteristics>
									<depth>24</depth>
								</samplecharacteristics>
							</audio>
						</media>
					</file>
					<sourcetrack>
						<mediatype>video</mediatype>
					</sourcetrack>
					<fielddominance>upper</fielddominance>
				</clipitem>
				<clipitem id="C0039 9">
					<name>C0039</name>
					<duration>4436</duration>
					<rate>
						<ntsc>FALSE</ntsc>
						<timebase>25</timebase>
					</rate>
					<in>2698</in>
					<out>2782</out>
					<start>22740</start>
					<end>22824</end>
					<pixelaspectratio>Square</pixelaspectratio>
					<enabled>TRUE</enabled>
					<anamorphic>FALSE</anamorphic>
					<alphatype>none</alphatype>
					<masterclipid>C0039 7</masterclipid>
					<logginginfo>
						<scene/>
						<shottake/>
						<lognote/>
						<good>FALSE</good>
					</logginginfo>
					<labels>
						<label2/>
					</labels>
					<comments>
						<mastercomment1/>
						<mastercomment2/>
						<mastercomment3/>
						<mastercomment4/>
					</comments>
					<file id="C0039 8"/>
					<sourcetrack>
						<mediatype>video</mediatype>
					</sourcetrack>
					<fielddominance>upper</fielddominance>
				</clipitem>
				<clipitem id="C0030 13">
					<name>C0030</name>
					<duration>3316</duration>
					<rate>
						<ntsc>FALSE</ntsc>
						<timebase>25</timebase>
					</rate>
					<in>2256</in>
					<out>2452</out>
					<start>22824</start>
					<end>23020</end>
					<pixelaspectratio>Square</pixelaspectratio>
					<enabled>TRUE</enabled>
					<anamorphic>FALSE</anamorphic>
					<alphatype>none</alphatype>
					<masterclipid>C0030 6</masterclipid>
					<logginginfo>
						<scene/>
						<shottake/>
						<lognote/>
						<good>FALSE</good>
					</logginginfo>
					<labels>
						<label2/>
					</labels>
					<comments>
						<mastercomment1/>
						<mastercomment2/>
						<mastercomment3/>
						<mastercomment4/>
					</comments>
					<file id="C0030 7"/>
					<sourcetrack>
						<mediatype>video</mediatype>
					</sourcetrack>
					<fielddominance>upper</fielddominance>
				</clipitem>
				<clipitem id="C0040 ">
					<name>C0040</name>
					<duration>1190</duration>
					<rate>
						<ntsc>FALSE</ntsc>
						<timebase>25</timebase>
					</rate>
					<in>247</in>
					<out>368</out>
					<start>23020</start>
					<end>23141</end>
					<pixelaspectratio>Square</pixelaspectratio>
					<enabled>TRUE</enabled>
					<anamorphic>FALSE</anamorphic>
					<alphatype>none</alphatype>
					<masterclipid>C0040 1</masterclipid>
					<logginginfo>
						<scene/>
						<shottake/>
						<lognote/>
						<good>FALSE</good>
					</logginginfo>
					<labels>
						<label2/>
					</labels>
					<comments>
						<mastercomment1/>
						<mastercomment2/>
						<mastercomment3/>
						<mastercomment4/>
					</comments>
					<file id="C0040 2">
						<name>C0040.mov</name>
						<pathurl>file://localhost/Volumes/Askepott/Prosjekter/DNPR637010_Kra%CC%8Akeklubben_TEM_011212/Video/Mellomstikk/S03E%20D%C3%B8den/DAG%202/C0040.mov</pathurl>
						<rate>
							<timebase>25</timebase>
						</rate>
						<duration>1190</duration>
						<timecode>
							<rate>
								<timebase>25</timebase>
							</rate>
							<string>05:56:16:20</string>
							<frame>534420</frame>
							<displayformat>NDF</displayformat>
							<source>source</source>
							<reel>
								<name>XDCAM 20120509_100358</name>
							</reel>
						</timecode>
						<media>
							<video>
								<duration>1190</duration>
								<samplecharacteristics>
									<width>1920</width>
									<height>1080</height>
								</samplecharacteristics>
							</video>
							<audio>
								<rate>
									<timebase>48000</timebase>
								</rate>
								<trackcount>1</trackcount>
								<channeldescription>8 Channels</channeldescription>
								<samplecharacteristics>
									<depth>24</depth>
								</samplecharacteristics>
							</audio>
						</media>
					</file>
					<sourcetrack>
						<mediatype>video</mediatype>
					</sourcetrack>
					<link>
						<linkclipref>C0040 </linkclipref>
						<mediatype>video</mediatype>
						<trackindex>1</trackindex>
						<clipindex>166</clipindex>
					</link>
					<link>
						<linkclipref>C0040 3</linkclipref>
						<mediatype>audio</mediatype>
						<trackindex>1</trackindex>
						<clipindex>203</clipindex>
					</link>
					<link>
						<linkclipref>C0040 4</linkclipref>
						<mediatype>audio</mediatype>
						<trackindex>2</trackindex>
						<clipindex>124</clipindex>
					</link>
					<fielddominance>upper</fielddominance>
				</clipitem>
				<clipitem id="C0027 7">
					<name>C0027</name>
					<duration>1902</duration>
					<rate>
						<ntsc>FALSE</ntsc>
						<timebase>25</timebase>
					</rate>
					<in>1261</in>
					<out>1402</out>
					<start>23141</start>
					<end>23282</end>
					<pixelaspectratio>Square</pixelaspectratio>
					<enabled>TRUE</enabled>
					<anamorphic>FALSE</anamorphic>
					<alphatype>none</alphatype>
					<masterclipid>C0027 8</masterclipid>
					<logginginfo>
						<scene/>
						<shottake/>
						<lognote/>
						<good>FALSE</good>
					</logginginfo>
					<labels>
						<label2/>
					</labels>
					<comments>
						<mastercomment1/>
						<mastercomment2/>
						<mastercomment3/>
						<mastercomment4/>
					</comments>
					<file id="C0027 9">
						<name>C0027.mov</name>
						<pathurl>file://localhost/Volumes/Askepott/Prosjekter/DNPR637010_Kra%CC%8Akeklubben_TEM_011212/Video/Mellomstikk/S03E%20D%C3%B8den/DAG%202/C0027.mov</pathurl>
						<rate>
							<timebase>25</timebase>
						</rate>
						<duration>1902</duration>
						<timecode>
							<rate>
								<timebase>25</timebase>
							</rate>
							<string>05:42:01:13</string>
							<frame>513038</frame>
							<displayformat>NDF</displayformat>
							<source>source</source>
							<reel>
								<name>XDCAM 20120509_100358</name>
							</reel>
						</timecode>
						<media>
							<video>
								<duration>1902</duration>
								<samplecharacteristics>
									<width>1920</width>
									<height>1080</height>
								</samplecharacteristics>
							</video>
							<audio>
								<rate>
									<timebase>48000</timebase>
								</rate>
								<trackcount>1</trackcount>
								<channeldescription>8 Channels</channeldescription>
								<samplecharacteristics>
									<depth>24</depth>
								</samplecharacteristics>
							</audio>
						</media>
					</file>
					<sourcetrack>
						<mediatype>video</mediatype>
					</sourcetrack>
					<link>
						<linkclipref>C0027 7</linkclipref>
						<mediatype>video</mediatype>
						<trackindex>1</trackindex>
						<clipindex>167</clipindex>
					</link>
					<link>
						<linkclipref>C0027 10</linkclipref>
						<mediatype>audio</mediatype>
						<trackindex>1</trackindex>
						<clipindex>204</clipindex>
					</link>
					<link>
						<linkclipref>C0027 11</linkclipref>
						<mediatype>audio</mediatype>
						<trackindex>2</trackindex>
						<clipindex>125</clipindex>
					</link>
					<fielddominance>upper</fielddominance>
				</clipitem>
				<clipitem id="C0039 10">
					<name>C0039</name>
					<duration>4436</duration>
					<rate>
						<ntsc>FALSE</ntsc>
						<timebase>25</timebase>
					</rate>
					<in>3297</in>
					<out>3408</out>
					<start>23282</start>
					<end>23393</end>
					<pixelaspectratio>Square</pixelaspectratio>
					<enabled>TRUE</enabled>
					<anamorphic>FALSE</anamorphic>
					<alphatype>none</alphatype>
					<masterclipid>C0039 7</masterclipid>
					<logginginfo>
						<scene/>
						<shottake/>
						<lognote/>
						<good>FALSE</good>
					</logginginfo>
					<labels>
						<label2/>
					</labels>
					<comments>
						<mastercomment1/>
						<mastercomment2/>
						<mastercomment3/>
						<mastercomment4/>
					</comments>
					<file id="C0039 8"/>
					<sourcetrack>
						<mediatype>video</mediatype>
					</sourcetrack>
					<fielddominance>upper</fielddominance>
				</clipitem>
				<clipitem id="C0033 ">
					<name>C0033</name>
					<duration>1175</duration>
					<rate>
						<ntsc>FALSE</ntsc>
						<timebase>25</timebase>
					</rate>
					<in>116</in>
					<out>672</out>
					<start>23393</start>
					<end>23949</end>
					<pixelaspectratio>Square</pixelaspectratio>
					<enabled>TRUE</enabled>
					<anamorphic>FALSE</anamorphic>
					<alphatype>none</alphatype>
					<masterclipid>C0033 1</masterclipid>
					<logginginfo>
						<scene/>
						<shottake/>
						<lognote/>
						<good>FALSE</good>
					</logginginfo>
					<labels>
						<label2/>
					</labels>
					<comments>
						<mastercomment1/>
						<mastercomment2/>
						<mastercomment3/>
						<mastercomment4/>
					</comments>
					<file id="C0033 2">
						<name>C0033.mov</name>
						<pathurl>file://localhost/Volumes/Askepott/Prosjekter/DNPR637010_Kra%CC%8Akeklubben_TEM_011212/Video/Mellomstikk/S03E%20D%C3%B8den/DAG%202/C0033.mov</pathurl>
						<rate>
							<timebase>25</timebase>
						</rate>
						<duration>1175</duration>
						<timecode>
							<rate>
								<timebase>25</timebase>
							</rate>
							<string>05:49:03:23</string>
							<frame>523598</frame>
							<displayformat>NDF</displayformat>
							<source>source</source>
							<reel>
								<name>XDCAM 20120509_100358</name>
							</reel>
						</timecode>
						<media>
							<video>
								<duration>1175</duration>
								<samplecharacteristics>
									<width>1920</width>
									<height>1080</height>
								</samplecharacteristics>
							</video>
							<audio>
								<rate>
									<timebase>48000</timebase>
								</rate>
								<trackcount>1</trackcount>
								<channeldescription>8 Channels</channeldescription>
								<samplecharacteristics>
									<depth>24</depth>
								</samplecharacteristics>
							</audio>
						</media>
					</file>
					<sourcetrack>
						<mediatype>video</mediatype>
					</sourcetrack>
					<link>
						<linkclipref>C0033 </linkclipref>
						<mediatype>video</mediatype>
						<trackindex>1</trackindex>
						<clipindex>169</clipindex>
					</link>
					<link>
						<linkclipref>C0033 3</linkclipref>
						<mediatype>audio</mediatype>
						<trackindex>2</trackindex>
						<clipindex>128</clipindex>
					</link>
					<fielddominance>upper</fielddominance>
				</clipitem>
				<clipitem id="C0039 11">
					<name>C0039</name>
					<duration>4436</duration>
					<rate>
						<ntsc>FALSE</ntsc>
						<timebase>25</timebase>
					</rate>
					<in>3972</in>
					<out>4096</out>
					<start>23949</start>
					<end>24073</end>
					<pixelaspectratio>Square</pixelaspectratio>
					<enabled>TRUE</enabled>
					<anamorphic>FALSE</anamorphic>
					<alphatype>none</alphatype>
					<masterclipid>C0039 7</masterclipid>
					<logginginfo>
						<scene/>
						<shottake/>
						<lognote/>
						<good>FALSE</good>
					</logginginfo>
					<labels>
						<label2/>
					</labels>
					<comments>
						<mastercomment1/>
						<mastercomment2/>
						<mastercomment3/>
						<mastercomment4/>
					</comments>
					<file id="C0039 8"/>
					<sourcetrack>
						<mediatype>video</mediatype>
					</sourcetrack>
					<link>
						<linkclipref>C0039 11</linkclipref>
						<mediatype>video</mediatype>
						<trackindex>1</trackindex>
						<clipindex>170</clipindex>
					</link>
					<link>
						<linkclipref>C0039 12</linkclipref>
						<mediatype>audio</mediatype>
						<trackindex>1</trackindex>
						<clipindex>208</clipindex>
					</link>
					<link>
						<linkclipref>C0039 13</linkclipref>
						<mediatype>audio</mediatype>
						<trackindex>2</trackindex>
						<clipindex>129</clipindex>
					</link>
					<fielddominance>upper</fielddominance>
				</clipitem>
				<clipitem id="C0033 4">
					<name>C0033</name>
					<duration>1175</duration>
					<rate>
						<ntsc>FALSE</ntsc>
						<timebase>25</timebase>
					</rate>
					<in>809</in>
					<out>1049</out>
					<start>24073</start>
					<end>-1</end>
					<pixelaspectratio>Square</pixelaspectratio>
					<enabled>TRUE</enabled>
					<anamorphic>FALSE</anamorphic>
					<alphatype>none</alphatype>
					<masterclipid>C0033 1</masterclipid>
					<logginginfo>
						<scene/>
						<shottake/>
						<lognote/>
						<good>FALSE</good>
					</logginginfo>
					<labels>
						<label2/>
					</labels>
					<comments>
						<mastercomment1/>
						<mastercomment2/>
						<mastercomment3/>
						<mastercomment4/>
					</comments>
					<file id="C0033 2"/>
					<sourcetrack>
						<mediatype>video</mediatype>
					</sourcetrack>
					<link>
						<linkclipref>C0033 4</linkclipref>
						<mediatype>video</mediatype>
						<trackindex>1</trackindex>
						<clipindex>171</clipindex>
					</link>
					<link>
						<linkclipref>C0033 5</linkclipref>
						<mediatype>audio</mediatype>
						<trackindex>1</trackindex>
						<clipindex>209</clipindex>
					</link>
					<link>
						<linkclipref>C0033 6</linkclipref>
						<mediatype>audio</mediatype>
						<trackindex>2</trackindex>
						<clipindex>130</clipindex>
					</link>
					<fielddominance>upper</fielddominance>
				</clipitem>
				<transitionitem id="49953544 ">
					<rate>
						<ntsc>FALSE</ntsc>
						<timebase>25</timebase>
					</rate>
					<start>24298</start>
					<end>24313</end>
					<alignment>center</alignment>
					<effect>
						<name>G Lens Flare Generell NED</name>
						<effectcategory>Nattress Big Box Of Tricks</effectcategory>
						<effecttype>transition</effecttype>
						<mediatype>video</mediatype>
						<startratio>0</startratio>
						<endratio>1</endratio>
						<reverse>FALSE</reverse>
						<parameter>
							<parameterid>dispvar1</parameterid>
							<name>Display Settings</name>
							<value>string</value>
						</parameter>
						<parameter>
							<parameterid>inputvar1</parameterid>
							<name>Flare Position</name>
							<value>string</value>
						</parameter>
						<parameter>
							<parameterid>theangle</parameterid>
							<name>Transition Direction</name>
							<valuemin>-360</valuemin>
							<valuemax>360</valuemax>
							<value>270</value>
						</parameter>
						<parameter>
							<parameterid>transitionblendduration</parameterid>
							<name>Blend Duration</name>
							<valuemin>0</valuemin>
							<valuemax>100</valuemax>
							<value>50</value>
						</parameter>
						<parameter>
							<parameterid>settingsvar1</parameterid>
							<name>Flare Settings</name>
							<value>string</value>
						</parameter>
						<parameter>
							<parameterid>presets</parameterid>
							<name>Preset Select</name>
							<valuemin>1</valuemin>
							<valuemax>4</valuemax>
							<valuelist>
								<valueentry>
									<name>Custom Controls</name>
									<value>1</value>
								</valueentry>
								<valueentry>
									<name>Other End of the Rainbow</name>
									<value>2</value>
								</valueentry>
								<valueentry>
									<name>Photon</name>
									<value>3</value>
								</valueentry>
								<valueentry>
									<name>Gaudy</name>
									<value>4</value>
								</valueentry>
							</valuelist>
							<value>1</value>
						</parameter>
						<parameter>
							<parameterid>randomevolution</parameterid>
							<name>Randomness Evolution</name>
							<valuemin>0</valuemin>
							<valuemax>1</valuemax>
							<value>0.05</value>
						</parameter>
						<parameter>
							<parameterid>flareaspect</parameterid>
							<name>Aspect</name>
							<valuemin>0.1</valuemin>
							<valuemax>10</valuemax>
							<value>1</value>
						</parameter>
						<parameter>
							<parameterid>flareintensity</parameterid>
							<name>Overall Intensity</name>
							<valuemin>0</valuemin>
							<valuemax>400</valuemax>
							<value>300</value>
						</parameter>
						<parameter>
							<parameterid>therandomseed</parameterid>
							<name>Random Seed</name>
							<valuemin>0</valuemin>
							<valuemax>100</valuemax>
							<value>100</value>
						</parameter>
						<parameter>
							<parameterid>settingsvar2</parameterid>
							<name>   Bloom</name>
							<value>string</value>
						</parameter>
						<parameter>
							<parameterid>bloomon</parameterid>
							<name>Bloom On?</name>
							<value>TRUE</value>
						</parameter>
						<parameter>
							<parameterid>bloomcolour</parameterid>
							<name>Bloom Colour</name>
							<value>
								<alpha>255</alpha>
								<red>218</red>
								<green>224</green>
								<blue>254</blue>
							</value>
						</parameter>
						<parameter>
							<parameterid>bloomcolourfromimage</parameterid>
							<name>Use Image for Bloom Colour?</name>
							<value>FALSE</value>
						</parameter>
						<parameter>
							<parameterid>bloomintensity</parameterid>
							<name>Intensity</name>
							<valuemin>0</valuemin>
							<valuemax>100</valuemax>
							<value>90</value>
						</parameter>
						<parameter>
							<parameterid>bloomradius</parameterid>
							<name>Radius</name>
							<valuemin>0</valuemin>
							<valuemax>200</valuemax>
							<value>45</value>
						</parameter>
						<parameter>
							<parameterid>bloomfalloff</parameterid>
							<name>Fall Off</name>
							<valuemin>0</valuemin>
							<valuemax>100</valuemax>
							<value>75</value>
						</parameter>
						<parameter>
							<parameterid>bloomstarry</parameterid>
							<name>Starry</name>
							<valuemin>0</valuemin>
							<valuemax>100</valuemax>
							<value>10</value>
						</parameter>
						<parameter>
							<parameterid>bloomstarpoints</parameterid>
							<name>Star Points</name>
							<valuemin>0</valuemin>
							<valuemax>100</valuemax>
							<value>7</value>
						</parameter>
						<parameter>
							<parameterid>settingsvar3</parameterid>
							<name>   StarBurst</name>
							<value>string</value>
						</parameter>
						<parameter>
							<parameterid>starburston</parameterid>
							<name>StarBurst On?</name>
							<value>TRUE</value>
						</parameter>
						<parameter>
							<parameterid>starburstcolour</parameterid>
							<name>StarBurst Colour</name>
							<value>
								<alpha>255</alpha>
								<red>254</red>
								<green>224</green>
								<blue>218</blue>
							</value>
						</parameter>
						<parameter>
							<parameterid>starburstintensity</parameterid>
							<name>Intensity</name>
							<valuemin>0</valuemin>
							<valuemax>100</valuemax>
							<value>75</value>
						</parameter>
						<parameter>
							<parameterid>starburstradius</parameterid>
							<name>Radius</name>
							<valuemin>0</valuemin>
							<valuemax>150</valuemax>
							<value>75</value>
						</parameter>
						<parameter>
							<parameterid>starburststarpoints</parameterid>
							<name>Star Points</name>
							<valuemin>0</valuemin>
							<valuemax>200</valuemax>
							<value>90</value>
						</parameter>
						<parameter>
							<parameterid>starcentre</parameterid>
							<name>Centre Size</name>
							<valuemin>0</valuemin>
							<valuemax>100</valuemax>
							<value>75</value>
						</parameter>
						<parameter>
							<parameterid>starfalloff</parameterid>
							<name>Fall Off</name>
							<valuemin>0</valuemin>
							<valuemax>100</valuemax>
							<value>75</value>
						</parameter>
						<parameter>
							<parameterid>starburstrandom</parameterid>
							<name>Randomness</name>
							<valuemin>0</valuemin>
							<valuemax>4</valuemax>
							<value>0.4</value>
						</parameter>
						<parameter>
							<parameterid>settingsvar4</parameterid>
							<name>   Rainbow</name>
							<value>string</value>
						</parameter>
						<parameter>
							<parameterid>rainbowon</parameterid>
							<name>Rainbow On?</name>
							<value>TRUE</value>
						</parameter>
						<parameter>
							<parameterid>rainbowcolors</parameterid>
							<name>Colour Type</name>
							<valuemin>1</valuemin>
							<valuemax>2</valuemax>
							<valuelist>
								<valueentry>
									<name>Rainbow</name>
									<value>1</value>
								</valueentry>
								<valueentry>
									<name>User Colour</name>
									<value>2</value>
								</valueentry>
							</valuelist>
							<value>1</value>
						</parameter>
						<parameter>
							<parameterid>rainbowusercolor</parameterid>
							<name>User Colour</name>
							<value>
								<alpha>255</alpha>
								<red>230</red>
								<green>110</green>
								<blue>22</blue>
							</value>
						</parameter>
						<parameter>
							<parameterid>rainbowposition</parameterid>
							<name>Position</name>
							<valuemin>-200</valuemin>
							<valuemax>200</valuemax>
							<value>100</value>
						</parameter>
						<parameter>
							<parameterid>rainbowintensity</parameterid>
							<name>Intensity</name>
							<valuemin>0</valuemin>
							<valuemax>100</valuemax>
							<value>20</value>
						</parameter>
						<parameter>
							<parameterid>rainbowradius</parameterid>
							<name>Radius</name>
							<valuemin>0</valuemin>
							<valuemax>200</valuemax>
							<value>50</value>
						</parameter>
						<parameter>
							<parameterid>rainbowthickness</parameterid>
							<name>Thickness</name>
							<valuemin>0</valuemin>
							<valuemax>1</valuemax>
							<value>0.15</value>
						</parameter>
						<parameter>
							<parameterid>rainbowsharpness</parameterid>
							<name>Sharpness</name>
							<valuemin>0</valuemin>
							<valuemax>1</valuemax>
							<value>0.65</value>
						</parameter>
						<parameter>
							<parameterid>settingsvar5</parameterid>
							<name>   Spots</name>
							<value>string</value>
						</parameter>
						<parameter>
							<parameterid>spotson</parameterid>
							<name>Spots On?</name>
							<value>TRUE</value>
						</parameter>
						<parameter>
							<parameterid>spotsnumber</parameterid>
							<name>Number</name>
							<valuemin>0</valuemin>
							<valuemax>100</valuemax>
							<value>12</value>
						</parameter>
						<parameter>
							<parameterid>spotsintensity</parameterid>
							<name>Intensity</name>
							<valuemin>0</valuemin>
							<valuemax>100</valuemax>
							<value>80</value>
						</parameter>
						<parameter>
							<parameterid>spotsradius</parameterid>
							<name>Radius</name>
							<valuemin>0</valuemin>
							<valuemax>150</valuemax>
							<value>30</value>
						</parameter>
						<parameter>
							<parameterid>spotsdisky</parameterid>
							<name>Disky</name>
							<valuemin>0</valuemin>
							<valuemax>100</valuemax>
							<value>75</value>
						</parameter>
						<parameter>
							<parameterid>spotsringy</parameterid>
							<name>Ringy</name>
							<valuemin>0</valuemin>
							<valuemax>100</valuemax>
							<value>75</value>
						</parameter>
						<parameter>
							<parameterid>spotsblotty</parameterid>
							<name>Blotty</name>
							<valuemin>0</valuemin>
							<valuemax>100</valuemax>
							<value>75</value>
						</parameter>
						<parameter>
							<parameterid>spotsbloony</parameterid>
							<name>Bloony</name>
							<valuemin>0</valuemin>
							<valuemax>100</valuemax>
							<value>75</value>
						</parameter>
						<parameter>
							<parameterid>spotsvarycolour</parameterid>
							<name>Vary Colour</name>
							<valuemin>0</valuemin>
							<valuemax>100</valuemax>
							<value>31</value>
						</parameter>
						<parameter>
							<parameterid>spotsbasehue</parameterid>
							<name>Base Hue</name>
							<valuemin>0</valuemin>
							<valuemax>100</valuemax>
							<value>72</value>
						</parameter>
						<parameter>
							<parameterid>spotssaturation</parameterid>
							<name>Saturation</name>
							<valuemin>0</valuemin>
							<valuemax>100</valuemax>
							<value>20</value>
						</parameter>
						<parameter>
							<parameterid>copyright</parameterid>
							<name>©www.nattress.com</name>
							<value>string</value>
						</parameter>
					</effect>
				</transitionitem>
				<clipitem id="Meitemark-sangen">
					<name>Meitemark-sangen</name>
					<duration>3263</duration>
					<rate>
						<ntsc>FALSE</ntsc>
						<timebase>25</timebase>
					</rate>
					<in>2</in>
					<out>3197</out>
					<start>-1</start>
					<end>27493</end>
					<pixelaspectratio>Square</pixelaspectratio>
					<enabled>TRUE</enabled>
					<anamorphic>FALSE</anamorphic>
					<alphatype>none</alphatype>
					<masterclipid>Meitemark-sangen1</masterclipid>
					<logginginfo>
						<scene/>
						<shottake/>
						<lognote/>
						<good>FALSE</good>
					</logginginfo>
					<labels>
						<label2/>
					</labels>
					<comments>
						<mastercomment1/>
						<mastercomment2/>
						<mastercomment3/>
						<mastercomment4/>
					</comments>
					<file id="Meitemark-sangen2">
						<name>Meitemark-sangen.mov</name>
						<pathurl>file://localhost/Volumes/Askepott/Prosjekter/DNPR637010_Kra%CC%8Akeklubben_TEM_011212/Video/Arkiv/Meitemark-sangen.mov</pathurl>
						<rate>
							<timebase>25</timebase>
						</rate>
						<duration>3263</duration>
						<timecode>
							<rate>
								<timebase>25</timebase>
							</rate>
							<string>00:00:00:00</string>
							<frame>0</frame>
							<displayformat>NDF</displayformat>
							<source>source</source>
						</timecode>
						<media>
							<video>
								<duration>3263</duration>
								<samplecharacteristics>
									<width>1920</width>
									<height>1080</height>
								</samplecharacteristics>
							</video>
							<audio>
								<rate>
									<timebase>48000</timebase>
								</rate>
								<trackcount>2</trackcount>
								<samplecharacteristics>
									<depth>24</depth>
								</samplecharacteristics>
							</audio>
						</media>
					</file>
					<sourcetrack>
						<mediatype>video</mediatype>
					</sourcetrack>
					<link>
						<linkclipref>Meitemark-sangen</linkclipref>
						<mediatype>video</mediatype>
						<trackindex>1</trackindex>
						<clipindex>173</clipindex>
					</link>
					<link>
						<linkclipref>Meitemark-sangen3</linkclipref>
						<mediatype>audio</mediatype>
						<trackindex>3</trackindex>
						<clipindex>50</clipindex>
						<groupindex>1</groupindex>
					</link>
					<link>
						<linkclipref>Meitemark-sangen4</linkclipref>
						<mediatype>audio</mediatype>
						<trackindex>4</trackindex>
						<clipindex>43</clipindex>
						<groupindex>1</groupindex>
					</link>
					<fielddominance>upper</fielddominance>
				</clipitem>
				<clipitem id="C0048 ">
					<name>C0048</name>
					<duration>1806</duration>
					<rate>
						<ntsc>FALSE</ntsc>
						<timebase>25</timebase>
					</rate>
					<in>271</in>
					<out>427</out>
					<start>27493</start>
					<end>27649</end>
					<pixelaspectratio>Square</pixelaspectratio>
					<enabled>TRUE</enabled>
					<anamorphic>FALSE</anamorphic>
					<alphatype>none</alphatype>
					<masterclipid>C0048 1</masterclipid>
					<logginginfo>
						<scene/>
						<shottake/>
						<lognote/>
						<good>FALSE</good>
					</logginginfo>
					<labels>
						<label2/>
					</labels>
					<comments>
						<mastercomment1/>
						<mastercomment2/>
						<mastercomment3/>
						<mastercomment4/>
					</comments>
					<file id="C0048 2">
						<name>C0048.mov</name>
						<pathurl>file://localhost/Volumes/Askepott/Prosjekter/DNPR637010_Kra%CC%8Akeklubben_TEM_011212/Video/Mellomstikk/S03E%20D%C3%B8den/DAG%202/C0048.mov</pathurl>
						<rate>
							<timebase>25</timebase>
						</rate>
						<duration>1806</duration>
						<timecode>
							<rate>
								<timebase>25</timebase>
							</rate>
							<string>06:03:23:09</string>
							<frame>545084</frame>
							<displayformat>NDF</displayformat>
							<source>source</source>
							<reel>
								<name>XDCAM 20120509_100358</name>
							</reel>
						</timecode>
						<media>
							<video>
								<duration>1806</duration>
								<samplecharacteristics>
									<width>1920</width>
									<height>1080</height>
								</samplecharacteristics>
							</video>
							<audio>
								<rate>
									<timebase>48000</timebase>
								</rate>
								<trackcount>1</trackcount>
								<channeldescription>8 Channels</channeldescription>
								<samplecharacteristics>
									<depth>24</depth>
								</samplecharacteristics>
							</audio>
						</media>
					</file>
					<sourcetrack>
						<mediatype>video</mediatype>
					</sourcetrack>
					<link>
						<linkclipref>C0048 </linkclipref>
						<mediatype>video</mediatype>
						<trackindex>1</trackindex>
						<clipindex>174</clipindex>
					</link>
					<link>
						<linkclipref>C0048 3</linkclipref>
						<mediatype>audio</mediatype>
						<trackindex>1</trackindex>
						<clipindex>210</clipindex>
					</link>
					<link>
						<linkclipref>C0048 4</linkclipref>
						<mediatype>audio</mediatype>
						<trackindex>2</trackindex>
						<clipindex>131</clipindex>
					</link>
					<fielddominance>upper</fielddominance>
				</clipitem>
				<clipitem id="C0046 ">
					<name>C0046</name>
					<duration>2562</duration>
					<rate>
						<ntsc>FALSE</ntsc>
						<timebase>25</timebase>
					</rate>
					<in>1670</in>
					<out>1738</out>
					<start>27649</start>
					<end>27717</end>
					<pixelaspectratio>Square</pixelaspectratio>
					<enabled>TRUE</enabled>
					<anamorphic>FALSE</anamorphic>
					<alphatype>none</alphatype>
					<masterclipid>C0046 1</masterclipid>
					<logginginfo>
						<scene/>
						<shottake/>
						<lognote/>
						<good>FALSE</good>
					</logginginfo>
					<labels>
						<label2/>
					</labels>
					<comments>
						<mastercomment1/>
						<mastercomment2/>
						<mastercomment3/>
						<mastercomment4/>
					</comments>
					<file id="C0046 2">
						<name>C0046.mov</name>
						<pathurl>file://localhost/Volumes/Askepott/Prosjekter/DNPR637010_Kra%CC%8Akeklubben_TEM_011212/Video/Mellomstikk/S03E%20D%C3%B8den/DAG%202/C0046.mov</pathurl>
						<rate>
							<timebase>25</timebase>
						</rate>
						<duration>2562</duration>
						<timecode>
							<rate>
								<timebase>25</timebase>
							</rate>
							<string>05:59:54:11</string>
							<frame>539861</frame>
							<displayformat>NDF</displayformat>
							<source>source</source>
							<reel>
								<name>XDCAM 20120509_100358</name>
							</reel>
						</timecode>
						<media>
							<video>
								<duration>2562</duration>
								<samplecharacteristics>
									<width>1920</width>
									<height>1080</height>
								</samplecharacteristics>
							</video>
							<audio>
								<rate>
									<timebase>48000</timebase>
								</rate>
								<trackcount>1</trackcount>
								<channeldescription>8 Channels</channeldescription>
								<samplecharacteristics>
									<depth>24</depth>
								</samplecharacteristics>
							</audio>
						</media>
					</file>
					<sourcetrack>
						<mediatype>video</mediatype>
					</sourcetrack>
					<link>
						<linkclipref>C0046 </linkclipref>
						<mediatype>video</mediatype>
						<trackindex>1</trackindex>
						<clipindex>175</clipindex>
					</link>
					<link>
						<linkclipref>C0046 3</linkclipref>
						<mediatype>audio</mediatype>
						<trackindex>1</trackindex>
						<clipindex>211</clipindex>
					</link>
					<link>
						<linkclipref>C0046 4</linkclipref>
						<mediatype>audio</mediatype>
						<trackindex>2</trackindex>
						<clipindex>132</clipindex>
					</link>
					<fielddominance>upper</fielddominance>
				</clipitem>
				<clipitem id="C0050 13">
					<name>C0050</name>
					<duration>2348</duration>
					<rate>
						<ntsc>FALSE</ntsc>
						<timebase>25</timebase>
					</rate>
					<in>459</in>
					<out>540</out>
					<start>27717</start>
					<end>27798</end>
					<pixelaspectratio>Square</pixelaspectratio>
					<enabled>TRUE</enabled>
					<anamorphic>FALSE</anamorphic>
					<alphatype>none</alphatype>
					<masterclipid>C0050 14</masterclipid>
					<logginginfo>
						<scene/>
						<shottake/>
						<lognote/>
						<good>FALSE</good>
					</logginginfo>
					<labels>
						<label2/>
					</labels>
					<comments>
						<mastercomment1/>
						<mastercomment2/>
						<mastercomment3/>
						<mastercomment4/>
					</comments>
					<file id="C0050 15">
						<name>C0050.mov</name>
						<pathurl>file://localhost/Volumes/Askepott/Prosjekter/DNPR637010_Kra%CC%8Akeklubben_TEM_011212/Video/Mellomstikk/S03E%20D%C3%B8den/DAG%202/C0050.mov</pathurl>
						<rate>
							<timebase>25</timebase>
						</rate>
						<duration>2348</duration>
						<timecode>
							<rate>
								<timebase>25</timebase>
							</rate>
							<string>06:04:42:01</string>
							<frame>547051</frame>
							<displayformat>NDF</displayformat>
							<source>source</source>
							<reel>
								<name>XDCAM 20120509_100358</name>
							</reel>
						</timecode>
						<media>
							<video>
								<duration>2348</duration>
								<samplecharacteristics>
									<width>1920</width>
									<height>1080</height>
								</samplecharacteristics>
							</video>
							<audio>
								<rate>
									<timebase>48000</timebase>
								</rate>
								<trackcount>1</trackcount>
								<channeldescription>8 Channels</channeldescription>
								<samplecharacteristics>
									<depth>24</depth>
								</samplecharacteristics>
							</audio>
						</media>
					</file>
					<sourcetrack>
						<mediatype>video</mediatype>
					</sourcetrack>
					<link>
						<linkclipref>C0050 13</linkclipref>
						<mediatype>video</mediatype>
						<trackindex>1</trackindex>
						<clipindex>176</clipindex>
					</link>
					<link>
						<linkclipref>C0050 16</linkclipref>
						<mediatype>audio</mediatype>
						<trackindex>1</trackindex>
						<clipindex>212</clipindex>
					</link>
					<link>
						<linkclipref>C0050 17</linkclipref>
						<mediatype>audio</mediatype>
						<trackindex>2</trackindex>
						<clipindex>133</clipindex>
					</link>
					<fielddominance>upper</fielddominance>
				</clipitem>
				<clipitem id="C0046 5">
					<name>C0046</name>
					<duration>2562</duration>
					<rate>
						<ntsc>FALSE</ntsc>
						<timebase>25</timebase>
					</rate>
					<in>1811</in>
					<out>1975</out>
					<start>27798</start>
					<end>27962</end>
					<pixelaspectratio>Square</pixelaspectratio>
					<enabled>TRUE</enabled>
					<anamorphic>FALSE</anamorphic>
					<alphatype>none</alphatype>
					<masterclipid>C0046 1</masterclipid>
					<logginginfo>
						<scene/>
						<shottake/>
						<lognote/>
						<good>FALSE</good>
					</logginginfo>
					<labels>
						<label2/>
					</labels>
					<comments>
						<mastercomment1/>
						<mastercomment2/>
						<mastercomment3/>
						<mastercomment4/>
					</comments>
					<file id="C0046 2"/>
					<sourcetrack>
						<mediatype>video</mediatype>
					</sourcetrack>
					<link>
						<linkclipref>C0046 5</linkclipref>
						<mediatype>video</mediatype>
						<trackindex>1</trackindex>
						<clipindex>177</clipindex>
					</link>
					<link>
						<linkclipref>C0046 6</linkclipref>
						<mediatype>audio</mediatype>
						<trackindex>1</trackindex>
						<clipindex>213</clipindex>
					</link>
					<link>
						<linkclipref>C0046 7</linkclipref>
						<mediatype>audio</mediatype>
						<trackindex>2</trackindex>
						<clipindex>134</clipindex>
					</link>
					<fielddominance>upper</fielddominance>
				</clipitem>
				<clipitem id="C0050 18">
					<name>C0050</name>
					<duration>2348</duration>
					<rate>
						<ntsc>FALSE</ntsc>
						<timebase>25</timebase>
					</rate>
					<in>686</in>
					<out>939</out>
					<start>27962</start>
					<end>28215</end>
					<pixelaspectratio>Square</pixelaspectratio>
					<enabled>TRUE</enabled>
					<anamorphic>FALSE</anamorphic>
					<alphatype>none</alphatype>
					<masterclipid>C0050 14</masterclipid>
					<logginginfo>
						<scene/>
						<shottake/>
						<lognote/>
						<good>FALSE</good>
					</logginginfo>
					<labels>
						<label2/>
					</labels>
					<comments>
						<mastercomment1/>
						<mastercomment2/>
						<mastercomment3/>
						<mastercomment4/>
					</comments>
					<file id="C0050 15"/>
					<sourcetrack>
						<mediatype>video</mediatype>
					</sourcetrack>
					<link>
						<linkclipref>C0050 18</linkclipref>
						<mediatype>video</mediatype>
						<trackindex>1</trackindex>
						<clipindex>178</clipindex>
					</link>
					<link>
						<linkclipref>C0050 19</linkclipref>
						<mediatype>audio</mediatype>
						<trackindex>1</trackindex>
						<clipindex>214</clipindex>
					</link>
					<link>
						<linkclipref>C0050 20</linkclipref>
						<mediatype>audio</mediatype>
						<trackindex>2</trackindex>
						<clipindex>135</clipindex>
					</link>
					<fielddominance>upper</fielddominance>
				</clipitem>
				<clipitem id="C0048 5">
					<name>C0048</name>
					<duration>1806</duration>
					<rate>
						<ntsc>FALSE</ntsc>
						<timebase>25</timebase>
					</rate>
					<in>968</in>
					<out>1078</out>
					<start>28215</start>
					<end>28325</end>
					<pixelaspectratio>Square</pixelaspectratio>
					<enabled>TRUE</enabled>
					<anamorphic>FALSE</anamorphic>
					<alphatype>none</alphatype>
					<masterclipid>C0048 1</masterclipid>
					<logginginfo>
						<scene/>
						<shottake/>
						<lognote/>
						<good>FALSE</good>
					</logginginfo>
					<labels>
						<label2/>
					</labels>
					<comments>
						<mastercomment1/>
						<mastercomment2/>
						<mastercomment3/>
						<mastercomment4/>
					</comments>
					<file id="C0048 2"/>
					<sourcetrack>
						<mediatype>video</mediatype>
					</sourcetrack>
					<link>
						<linkclipref>C0048 5</linkclipref>
						<mediatype>video</mediatype>
						<trackindex>1</trackindex>
						<clipindex>179</clipindex>
					</link>
					<link>
						<linkclipref>C0048 6</linkclipref>
						<mediatype>audio</mediatype>
						<trackindex>1</trackindex>
						<clipindex>215</clipindex>
					</link>
					<link>
						<linkclipref>C0048 7</linkclipref>
						<mediatype>audio</mediatype>
						<trackindex>2</trackindex>
						<clipindex>136</clipindex>
					</link>
					<fielddominance>upper</fielddominance>
				</clipitem>
				<clipitem id="C0047 3">
					<name>C0047</name>
					<duration>2661</duration>
					<rate>
						<ntsc>FALSE</ntsc>
						<timebase>25</timebase>
					</rate>
					<in>1222</in>
					<out>1367</out>
					<start>28325</start>
					<end>28470</end>
					<pixelaspectratio>Square</pixelaspectratio>
					<enabled>TRUE</enabled>
					<anamorphic>FALSE</anamorphic>
					<alphatype>none</alphatype>
					<masterclipid>C0047 4</masterclipid>
					<logginginfo>
						<scene/>
						<shottake/>
						<lognote/>
						<good>FALSE</good>
					</logginginfo>
					<labels>
						<label2/>
					</labels>
					<comments>
						<mastercomment1/>
						<mastercomment2/>
						<mastercomment3/>
						<mastercomment4/>
					</comments>
					<file id="C0047 5">
						<name>C0047.mov</name>
						<pathurl>file://localhost/Volumes/Askepott/Prosjekter/DNPR637010_Kra%CC%8Akeklubben_TEM_011212/Video/Mellomstikk/S03E%20D%C3%B8den/DAG%202/C0047.mov</pathurl>
						<rate>
							<timebase>25</timebase>
						</rate>
						<duration>2661</duration>
						<timecode>
							<rate>
								<timebase>25</timebase>
							</rate>
							<string>06:01:36:23</string>
							<frame>542423</frame>
							<displayformat>NDF</displayformat>
							<source>source</source>
							<reel>
								<name>XDCAM 20120509_100358</name>
							</reel>
						</timecode>
						<media>
							<video>
								<duration>2661</duration>
								<samplecharacteristics>
									<width>1920</width>
									<height>1080</height>
								</samplecharacteristics>
							</video>
							<audio>
								<rate>
									<timebase>48000</timebase>
								</rate>
								<trackcount>1</trackcount>
								<channeldescription>8 Channels</channeldescription>
								<samplecharacteristics>
									<depth>24</depth>
								</samplecharacteristics>
							</audio>
						</media>
					</file>
					<sourcetrack>
						<mediatype>video</mediatype>
					</sourcetrack>
					<fielddominance>upper</fielddominance>
				</clipitem>
				<clipitem id="C0056 ">
					<name>C0056</name>
					<duration>1669</duration>
					<rate>
						<ntsc>FALSE</ntsc>
						<timebase>25</timebase>
					</rate>
					<in>1039</in>
					<out>1196</out>
					<start>28470</start>
					<end>28627</end>
					<pixelaspectratio>Square</pixelaspectratio>
					<enabled>TRUE</enabled>
					<anamorphic>FALSE</anamorphic>
					<alphatype>none</alphatype>
					<masterclipid>C0056 1</masterclipid>
					<logginginfo>
						<scene/>
						<shottake/>
						<lognote/>
						<good>FALSE</good>
					</logginginfo>
					<labels>
						<label2/>
					</labels>
					<comments>
						<mastercomment1/>
						<mastercomment2/>
						<mastercomment3/>
						<mastercomment4/>
					</comments>
					<file id="C0056 2">
						<name>C0056.mov</name>
						<pathurl>file://localhost/Volumes/Askepott/Prosjekter/DNPR637010_Kra%CC%8Akeklubben_TEM_011212/Video/Mellomstikk/S03E%20D%C3%B8den/DAG%202/C0056.mov</pathurl>
						<rate>
							<timebase>25</timebase>
						</rate>
						<duration>1669</duration>
						<timecode>
							<rate>
								<timebase>25</timebase>
							</rate>
							<string>06:10:29:18</string>
							<frame>555743</frame>
							<displayformat>NDF</displayformat>
							<source>source</source>
							<reel>
								<name>XDCAM 20120509_100358</name>
							</reel>
						</timecode>
						<media>
							<video>
								<duration>1669</duration>
								<samplecharacteristics>
									<width>1920</width>
									<height>1080</height>
								</samplecharacteristics>
							</video>
							<audio>
								<rate>
									<timebase>48000</timebase>
								</rate>
								<trackcount>1</trackcount>
								<channeldescription>8 Channels</channeldescription>
								<samplecharacteristics>
									<depth>24</depth>
								</samplecharacteristics>
							</audio>
						</media>
					</file>
					<sourcetrack>
						<mediatype>video</mediatype>
					</sourcetrack>
					<link>
						<linkclipref>C0056 </linkclipref>
						<mediatype>video</mediatype>
						<trackindex>1</trackindex>
						<clipindex>181</clipindex>
					</link>
					<link>
						<linkclipref>C0056 3</linkclipref>
						<mediatype>audio</mediatype>
						<trackindex>1</trackindex>
						<clipindex>219</clipindex>
					</link>
					<link>
						<linkclipref>C0056 4</linkclipref>
						<mediatype>audio</mediatype>
						<trackindex>2</trackindex>
						<clipindex>140</clipindex>
					</link>
					<fielddominance>upper</fielddominance>
				</clipitem>
				<clipitem id="C0048 8">
					<name>C0048</name>
					<duration>1806</duration>
					<rate>
						<ntsc>FALSE</ntsc>
						<timebase>25</timebase>
					</rate>
					<in>1352</in>
					<out>1467</out>
					<start>28627</start>
					<end>28742</end>
					<pixelaspectratio>Square</pixelaspectratio>
					<enabled>TRUE</enabled>
					<anamorphic>FALSE</anamorphic>
					<alphatype>none</alphatype>
					<masterclipid>C0048 1</masterclipid>
					<logginginfo>
						<scene/>
						<shottake/>
						<lognote/>
						<good>FALSE</good>
					</logginginfo>
					<labels>
						<label2/>
					</labels>
					<comments>
						<mastercomment1/>
						<mastercomment2/>
						<mastercomment3/>
						<mastercomment4/>
					</comments>
					<file id="C0048 2"/>
					<sourcetrack>
						<mediatype>video</mediatype>
					</sourcetrack>
					<link>
						<linkclipref>C0048 8</linkclipref>
						<mediatype>video</mediatype>
						<trackindex>1</trackindex>
						<clipindex>182</clipindex>
					</link>
					<link>
						<linkclipref>C0048 9</linkclipref>
						<mediatype>audio</mediatype>
						<trackindex>1</trackindex>
						<clipindex>220</clipindex>
					</link>
					<link>
						<linkclipref>C0048 10</linkclipref>
						<mediatype>audio</mediatype>
						<trackindex>2</trackindex>
						<clipindex>141</clipindex>
					</link>
					<fielddominance>upper</fielddominance>
				</clipitem>
				<clipitem id="C0047 6">
					<name>C0047</name>
					<duration>2661</duration>
					<rate>
						<ntsc>FALSE</ntsc>
						<timebase>25</timebase>
					</rate>
					<in>1616</in>
					<out>1899</out>
					<start>28742</start>
					<end>-1</end>
					<pixelaspectratio>Square</pixelaspectratio>
					<enabled>TRUE</enabled>
					<anamorphic>FALSE</anamorphic>
					<alphatype>none</alphatype>
					<masterclipid>C0047 4</masterclipid>
					<logginginfo>
						<scene/>
						<shottake/>
						<lognote/>
						<good>FALSE</good>
					</logginginfo>
					<labels>
						<label2/>
					</labels>
					<comments>
						<mastercomment1/>
						<mastercomment2/>
						<mastercomment3/>
						<mastercomment4/>
					</comments>
					<file id="C0047 5"/>
					<sourcetrack>
						<mediatype>video</mediatype>
					</sourcetrack>
					<link>
						<linkclipref>C0047 6</linkclipref>
						<mediatype>video</mediatype>
						<trackindex>1</trackindex>
						<clipindex>183</clipindex>
					</link>
					<link>
						<linkclipref>C0047 7</linkclipref>
						<mediatype>audio</mediatype>
						<trackindex>1</trackindex>
						<clipindex>222</clipindex>
					</link>
					<link>
						<linkclipref>C0047 8</linkclipref>
						<mediatype>audio</mediatype>
						<trackindex>2</trackindex>
						<clipindex>143</clipindex>
					</link>
					<fielddominance>upper</fielddominance>
				</clipitem>
				<transitionitem id="49975032 ">
					<rate>
						<ntsc>FALSE</ntsc>
						<timebase>25</timebase>
					</rate>
					<start>28925</start>
					<end>29025</end>
					<alignment>center</alignment>
					<effect>
						<name>Cross Dissolve</name>
						<effectid>Cross Dissolve</effectid>
						<effectcategory>Dissolve</effectcategory>
						<effecttype>transition</effecttype>
						<mediatype>video</mediatype>
						<wipecode>0</wipecode>
						<wipeaccuracy>100</wipeaccuracy>
						<startratio>0</startratio>
						<endratio>1</endratio>
						<reverse>FALSE</reverse>
					</effect>
				</transitionitem>
				<clipitem id="C0047 9">
					<name>C0047</name>
					<duration>2661</duration>
					<rate>
						<ntsc>FALSE</ntsc>
						<timebase>25</timebase>
					</rate>
					<in>1799</in>
					<out>2228</out>
					<start>-1</start>
					<end>-1</end>
					<pixelaspectratio>Square</pixelaspectratio>
					<enabled>TRUE</enabled>
					<anamorphic>FALSE</anamorphic>
					<alphatype>none</alphatype>
					<masterclipid>C0047 4</masterclipid>
					<logginginfo>
						<scene/>
						<shottake/>
						<lognote/>
						<good>FALSE</good>
					</logginginfo>
					<labels>
						<label2/>
					</labels>
					<comments>
						<mastercomment1/>
						<mastercomment2/>
						<mastercomment3/>
						<mastercomment4/>
					</comments>
					<file id="C0047 5"/>
					<filter>
						<start>-1</start>
						<end>-1</end>
						<effect>
							<name>G Vignette V2.5.1</name>
							<effectcategory>Nattress Film Effects - Image Effects</effectcategory>
							<effecttype>filter</effecttype>
							<mediatype>video</mediatype>
							<parameter>
								<parameterid>vignettevar</parameterid>
								<name>Vignette Controls</name>
								<value>string</value>
							</parameter>
							<parameter>
								<parameterid>rgbtinta</parameterid>
								<name>Vignette Colour A</name>
								<value>
									<alpha>0</alpha>
									<red>0</red>
									<green>0</green>
									<blue>0</blue>
								</value>
							</parameter>
							<parameter>
								<parameterid>rgbtintb</parameterid>
								<name>Vignette Colour B</name>
								<value>
									<alpha>0</alpha>
									<red>128</red>
									<green>128</green>
									<blue>128</blue>
								</value>
							</parameter>
							<parameter>
								<parameterid>mattebackground</parameterid>
								<name>Vignette Background</name>
								<valuemin>1</valuemin>
								<valuemax>4</valuemax>
								<valuelist>
									<valueentry>
										<name>Colour A on White</name>
										<value>1</value>
									</valueentry>
									<valueentry>
										<name>Colour A on Black</name>
										<value>2</value>
									</valueentry>
									<valueentry>
										<name>Colour A on Grey</name>
										<value>3</value>
									</valueentry>
									<valueentry>
										<name>Colour A on Colour B</name>
										<value>4</value>
									</valueentry>
								</valuelist>
								<value>1</value>
							</parameter>
							<parameter>
								<parameterid>shape</parameterid>
								<name>Shape</name>
								<valuemin>1</valuemin>
								<valuemax>3</valuemax>
								<valuelist>
									<valueentry>
										<name>Rectangle</name>
										<value>1</value>
									</valueentry>
									<valueentry>
										<name>Oval</name>
										<value>2</value>
									</valueentry>
									<valueentry>
										<name>Custom</name>
										<value>3</value>
									</valueentry>
								</valuelist>
								<value>2</value>
							</parameter>
							<parameter>
								<parameterid>vblur</parameterid>
								<name>Feather</name>
								<valuemin>0</valuemin>
								<valuemax>100</valuemax>
								<value>79</value>
							</parameter>
							<parameter>
								<parameterid>vblend</parameterid>
								<name>Amount</name>
								<valuemin>0</valuemin>
								<valuemax>100</valuemax>
								<value>49</value>
							</parameter>
							<parameter>
								<parameterid>applyas</parameterid>
								<name>Mode</name>
								<valuemin>1</valuemin>
								<valuemax>7</valuemax>
								<valuelist>
									<valueentry>
										<name>Normal</name>
										<value>1</value>
									</valueentry>
									<valueentry>
										<name>Multiply</name>
										<value>2</value>
									</valueentry>
									<valueentry>
										<name>Screen</name>
										<value>3</value>
									</valueentry>
									<valueentry>
										<name>Overlay</name>
										<value>4</value>
									</valueentry>
									<valueentry>
										<name>Lighten</name>
										<value>5</value>
									</valueentry>
									<valueentry>
										<name>Darken</name>
										<value>6</value>
									</valueentry>
									<valueentry>
										<name>Add</name>
										<value>7</value>
									</valueentry>
								</valuelist>
								<value>2</value>
							</parameter>
							<parameter>
								<parameterid>hq</parameterid>
								<name>Dither</name>
								<valuemin>1</valuemin>
								<valuemax>4</valuemax>
								<valuelist>
									<valueentry>
										<name>Off</name>
										<value>1</value>
									</valueentry>
									<valueentry>
										<name>Minimum</name>
										<value>2</value>
									</valueentry>
									<valueentry>
										<name>Medium</name>
										<value>3</value>
									</valueentry>
									<valueentry>
										<name>Strong</name>
										<value>4</value>
									</valueentry>
								</valuelist>
								<value>1</value>
							</parameter>
							<parameter>
								<parameterid>inverse</parameterid>
								<name>Invert?</name>
								<value>FALSE</value>
							</parameter>
							<parameter>
								<parameterid>diagnostics</parameterid>
								<name>Show Helper Outline</name>
								<value>TRUE</value>
							</parameter>
							<parameter>
								<parameterid>maskstuff</parameterid>
								<name>Shape Controls</name>
								<value>string</value>
							</parameter>
							<parameter>
								<parameterid>maskpolycentre</parameterid>
								<name>Shape Centre</name>
								<value>
									<horiz>0</horiz>
									<vert>0</vert>
								</value>
							</parameter>
							<parameter>
								<parameterid>rotoffset</parameterid>
								<name>Rotation</name>
								<valuemin>-360</valuemin>
								<valuemax>360</valuemax>
								<value>0</value>
							</parameter>
							<parameter>
								<parameterid>thescale</parameterid>
								<name>Scale</name>
								<valuemin>1</valuemin>
								<valuemax>200</valuemax>
								<value>112</value>
							</parameter>
							<parameter>
								<parameterid>vaspect</parameterid>
								<name>Aspect</name>
								<valuemin>0.1</valuemin>
								<valuemax>10</valuemax>
								<value>1.25714</value>
							</parameter>
							<parameter>
								<parameterid>pathvar</parameterid>
								<name>Custom Shape Points</name>
								<value>string</value>
							</parameter>
							<parameter>
								<parameterid>editpoint</parameterid>
								<name>Point to Edit</name>
								<valuemin>1</valuemin>
								<valuemax>8</valuemax>
								<value>1</value>
							</parameter>
							<parameter>
								<parameterid>numpoints</parameterid>
								<name>Number of Points</name>
								<valuemin>3</valuemin>
								<valuemax>8</valuemax>
								<value>8</value>
							</parameter>
							<parameter>
								<parameterid>currentpoint</parameterid>
								<name>Current Point</name>
								<value>
									<horiz>0</horiz>
									<vert>0</vert>
								</value>
							</parameter>
							<parameter>
								<parameterid>pointsharp</parameterid>
								<name>Point Sharpness Toggle</name>
								<value>TRUE</value>
							</parameter>
							<parameter>
								<parameterid>blurvar</parameterid>
								<name>Blur Controls</name>
								<value>string</value>
							</parameter>
							<parameter>
								<parameterid>iblur</parameterid>
								<name>Image Blur</name>
								<valuemin>0</valuemin>
								<valuemax>100</valuemax>
								<value>0</value>
							</parameter>
							<parameter>
								<parameterid>sblur</parameterid>
								<name>Shape Blur</name>
								<valuemin>0</valuemin>
								<valuemax>100</valuemax>
								<value>0</value>
							</parameter>
							<parameter>
								<parameterid>copyright</parameterid>
								<name>© www.nattress.com</name>
								<value>string</value>
							</parameter>
						</effect>
					</filter>
					<sourcetrack>
						<mediatype>video</mediatype>
					</sourcetrack>
					<fielddominance>upper</fielddominance>
				</clipitem>
				<transitionitem id="49976528 ">
					<rate>
						<ntsc>FALSE</ntsc>
						<timebase>25</timebase>
					</rate>
					<start>29329</start>
					<end>29354</end>
					<alignment>end-black</alignment>
					<effect>
						<name>Cross Dissolve</name>
						<effectid>Cross Dissolve</effectid>
						<effectcategory>Dissolve</effectcategory>
						<effecttype>transition</effecttype>
						<mediatype>video</mediatype>
						<wipecode>0</wipecode>
						<wipeaccuracy>100</wipeaccuracy>
						<startratio>0</startratio>
						<endratio>1</endratio>
						<reverse>FALSE</reverse>
					</effect>
				</transitionitem>
				<enabled>TRUE</enabled>
				<locked>FALSE</locked>
			</track>
			<track>
				<clipitem id="VIGNETT m ALPHA 25fps PROG SCAN3">
					<name>VIGNETT m ALPHA 25fps PROG SCAN</name>
					<duration>881</duration>
					<rate>
						<ntsc>FALSE</ntsc>
						<timebase>25</timebase>
					</rate>
					<in>0</in>
					<out>421</out>
					<start>0</start>
					<end>421</end>
					<pixelaspectratio>Square</pixelaspectratio>
					<enabled>TRUE</enabled>
					<anamorphic>FALSE</anamorphic>
					<alphatype>straight</alphatype>
					<masterclipid>VIGNETT m ALPHA 25fps PROG SCAN1</masterclipid>
					<logginginfo>
						<scene/>
						<shottake/>
						<lognote/>
						<good>FALSE</good>
					</logginginfo>
					<labels>
						<label2/>
					</labels>
					<comments>
						<mastercomment1/>
						<mastercomment2/>
						<mastercomment3/>
						<mastercomment4/>
					</comments>
					<file id="VIGNETT m ALPHA 25fps PROG SCAN2"/>
					<sourcetrack>
						<mediatype>video</mediatype>
					</sourcetrack>
					<fielddominance>upper</fielddominance>
				</clipitem>
				<clipitem id="Wipe2_Steiner PROG SCAN">
					<name>Wipe2_Steiner PROG SCAN</name>
					<duration>26</duration>
					<rate>
						<ntsc>FALSE</ntsc>
						<timebase>25</timebase>
					</rate>
					<in>0</in>
					<out>26</out>
					<start>837</start>
					<end>863</end>
					<pixelaspectratio>Square</pixelaspectratio>
					<enabled>TRUE</enabled>
					<anamorphic>FALSE</anamorphic>
					<alphatype>straight</alphatype>
					<masterclipid>Wipe2_Steiner PROG SCAN1</masterclipid>
					<logginginfo>
						<scene/>
						<shottake/>
						<lognote/>
						<good>FALSE</good>
					</logginginfo>
					<labels>
						<label2/>
					</labels>
					<comments>
						<mastercomment1/>
						<mastercomment2/>
						<mastercomment3/>
						<mastercomment4/>
					</comments>
					<file id="Wipe2_Steiner PROG SCAN2">
						<name>Wipe2_Steiner PROG SCAN.mov</name>
						<pathurl>file://localhost/Volumes/Askepott/Prosjekter/DNPR637010_Kra%CC%8Akeklubben_TEM_011212/Grafikk/MASTERE%20GRAFIKK/Wipe2_Steiner%20PROG%20SCAN.mov</pathurl>
						<rate>
							<timebase>25</timebase>
						</rate>
						<duration>26</duration>
						<timecode>
							<rate>
								<timebase>25</timebase>
							</rate>
							<string>00:00:00:00</string>
							<frame>0</frame>
							<displayformat>NDF</displayformat>
							<source>source</source>
						</timecode>
						<media>
							<video>
								<duration>26</duration>
								<samplecharacteristics>
									<width>1920</width>
									<height>1080</height>
								</samplecharacteristics>
							</video>
						</media>
					</file>
					<sourcetrack>
						<mediatype>video</mediatype>
					</sourcetrack>
					<fielddominance>upper</fielddominance>
				</clipitem>
				<clipitem id="C0006 (1)6">
					<name>C0006 (1)</name>
					<duration>1105</duration>
					<rate>
						<ntsc>FALSE</ntsc>
						<timebase>25</timebase>
					</rate>
					<in>959</in>
					<out>973</out>
					<start>1651</start>
					<end>-1</end>
					<pixelaspectratio>Square</pixelaspectratio>
					<enabled>TRUE</enabled>
					<anamorphic>FALSE</anamorphic>
					<alphatype>none</alphatype>
					<masterclipid>C0006 (1)1</masterclipid>
					<logginginfo>
						<scene/>
						<shottake/>
						<lognote/>
						<good>FALSE</good>
					</logginginfo>
					<labels>
						<label2/>
					</labels>
					<comments>
						<mastercomment1/>
						<mastercomment2/>
						<mastercomment3/>
						<mastercomment4/>
					</comments>
					<file id="C0006 (1)2"/>
					<filter>
						<enabled>TRUE</enabled>
						<start>-1</start>
						<end>-1</end>
						<effect>
							<name>Color Corrector 3-way</name>
							<effectid>Color Corrector 3-way</effectid>
							<effectcategory>Color Correction</effectcategory>
							<effecttype>filter</effecttype>
							<mediatype>video</mediatype>
							<parameter>
								<parameterid>dispmode</parameterid>
								<name>Display Mode</name>
								<valuemin>1</valuemin>
								<valuemax>3</valuemax>
								<valuelist>
									<valueentry>
										<name>Final</name>
										<value>1</value>
									</valueentry>
									<valueentry>
										<name>Matte</name>
										<value>2</value>
									</valueentry>
									<valueentry>
										<name>Source</name>
										<value>3</value>
									</valueentry>
								</valuelist>
								<value>1</value>
							</parameter>
							<parameter>
								<parameterid>label1</parameterid>
								<name>Blacks Controls</name>
								<value/>
							</parameter>
							<parameter>
								<parameterid>blacklevel</parameterid>
								<name>Level</name>
								<valuemin>-196</valuemin>
								<valuemax>254</valuemax>
								<value>0</value>
							</parameter>
							<parameter>
								<parameterid>b_hue</parameterid>
								<name>Angle</name>
								<valuemin>-180</valuemin>
								<valuemax>180</valuemax>
								<value>-33</value>
							</parameter>
							<parameter>
								<parameterid>b_mag</parameterid>
								<name>Magnitude</name>
								<valuemin>0</valuemin>
								<valuemax>200</valuemax>
								<value>0</value>
							</parameter>
							<parameter>
								<parameterid>label2</parameterid>
								<name>Midrange Controls</name>
								<value/>
							</parameter>
							<parameter>
								<parameterid>mids</parameterid>
								<name>Level</name>
								<valuemin>0</valuemin>
								<valuemax>200</valuemax>
								<value>100</value>
							</parameter>
							<parameter>
								<parameterid>m_hue</parameterid>
								<name>Angle</name>
								<valuemin>-180</valuemin>
								<valuemax>180</valuemax>
								<value>-33</value>
							</parameter>
							<parameter>
								<parameterid>m_mag</parameterid>
								<name>Magnitude</name>
								<valuemin>0</valuemin>
								<valuemax>200</valuemax>
								<value>0</value>
							</parameter>
							<parameter>
								<parameterid>label3</parameterid>
								<name>Highlight Controls</name>
								<value/>
							</parameter>
							<parameter>
								<parameterid>highlights</parameterid>
								<name>Level</name>
								<valuemin>64</valuemin>
								<valuemax>509</valuemax>
								<value>255</value>
							</parameter>
							<parameter>
								<parameterid>h_hue</parameterid>
								<name>Angle</name>
								<valuemin>-180</valuemin>
								<valuemax>180</valuemax>
								<value>-33</value>
							</parameter>
							<parameter>
								<parameterid>h_mag</parameterid>
								<name>Magnitude</name>
								<valuemin>0</valuemin>
								<valuemax>200</valuemax>
								<value>0</value>
							</parameter>
							<parameter>
								<parameterid>label4</parameterid>
								<name>Color Controls</name>
								<value/>
							</parameter>
							<parameter>
								<parameterid>chroma</parameterid>
								<name>Saturation</name>
								<valuemin>0</valuemin>
								<valuemax>200</valuemax>
								<value>126</value>
							</parameter>
							<parameter>
								<parameterid>label5</parameterid>
								<name>Limit Effect Controls</name>
								<value/>
							</parameter>
							<parameter>
								<parameterid>dochroma</parameterid>
								<name>Limit on Chroma</name>
								<value>FALSE</value>
							</parameter>
							<parameter>
								<parameterid>centerang</parameterid>
								<name>Chroma Center</name>
								<valuemin>-760</valuemin>
								<valuemax>760</valuemax>
								<value>-110</value>
							</parameter>
							<parameter>
								<parameterid>chromawidth</parameterid>
								<name>Chroma Width</name>
								<valuemin>0</valuemin>
								<valuemax>360</valuemax>
								<value>15</value>
							</parameter>
							<parameter>
								<parameterid>chromasoft</parameterid>
								<name>Chroma Softness</name>
								<valuemin>0</valuemin>
								<valuemax>180</valuemax>
								<value>10</value>
							</parameter>
							<parameter>
								<parameterid>dosat</parameterid>
								<name>Limit on Saturation</name>
								<value>FALSE</value>
							</parameter>
							<parameter>
								<parameterid>satmin</parameterid>
								<name>Sat. Minimum</name>
								<valuemin>0</valuemin>
								<valuemax>125</valuemax>
								<value>35</value>
							</parameter>
							<parameter>
								<parameterid>satwidth</parameterid>
								<name>Sat. Width</name>
								<valuemin>0</valuemin>
								<valuemax>125</valuemax>
								<value>40</value>
							</parameter>
							<parameter>
								<parameterid>satsoft</parameterid>
								<name>Sat. Softness</name>
								<valuemin>0</valuemin>
								<valuemax>125</valuemax>
								<value>20</value>
							</parameter>
							<parameter>
								<parameterid>doluma</parameterid>
								<name>Limit on Luma</name>
								<value>FALSE</value>
							</parameter>
							<parameter>
								<parameterid>lumamin</parameterid>
								<name>Luma Minimum</name>
								<valuemin>0</valuemin>
								<valuemax>120</valuemax>
								<value>0</value>
							</parameter>
							<parameter>
								<parameterid>lumawidth</parameterid>
								<name>Luma Width</name>
								<valuemin>0</valuemin>
								<valuemax>120</valuemax>
								<value>40</value>
							</parameter>
							<parameter>
								<parameterid>lumasoft</parameterid>
								<name>Luma Softness</name>
								<valuemin>0</valuemin>
								<valuemax>120</valuemax>
								<value>20</value>
							</parameter>
							<parameter>
								<parameterid>label6</parameterid>
								<name>Edge Control</name>
								<value/>
							</parameter>
							<parameter>
								<parameterid>edgethin</parameterid>
								<name>Thin/Spread</name>
								<valuemin>-100</valuemin>
								<valuemax>100</valuemax>
								<value>0</value>
							</parameter>
							<parameter>
								<parameterid>edgefeather</parameterid>
								<name>Softening</name>
								<valuemin>0</valuemin>
								<valuemax>100</valuemax>
								<value>0</value>
							</parameter>
							<parameter>
								<parameterid>label7</parameterid>
								<name>Mask Control</name>
								<value/>
							</parameter>
							<parameter>
								<parameterid>invertsel</parameterid>
								<name>Invert</name>
								<value>FALSE</value>
							</parameter>
							<parameter>
								<parameterid>debugshow</parameterid>
								<name>Show Stats</name>
								<value>FALSE</value>
							</parameter>
						</effect>
					</filter>
					<filter>
						<start>-1</start>
						<end>-1</end>
						<effect>
							<name>Brightness and Contrast (Bezier)</name>
							<effectid>Brightness and Contrast (Bezier)</effectid>
							<effectcategory>Image Control</effectcategory>
							<effecttype>filter</effecttype>
							<mediatype>video</mediatype>
							<parameter>
								<parameterid>brightness</parameterid>
								<name>Brightness</name>
								<valuemin>-100</valuemin>
								<valuemax>100</valuemax>
								<value>4</value>
							</parameter>
							<parameter>
								<parameterid>contrast</parameterid>
								<name>Contrast</name>
								<valuemin>-100</valuemin>
								<valuemax>100</valuemax>
								<value>-30</value>
							</parameter>
						</effect>
					</filter>
					<filter>
						<effect>
							<name>Opacity</name>
							<effectid>opacity</effectid>
							<effectcategory>motion</effectcategory>
							<effecttype>motion</effecttype>
							<mediatype>video</mediatype>
							<parameter>
								<parameterid>opacity</parameterid>
								<name>opacity</name>
								<valuemin>0</valuemin>
								<valuemax>100</valuemax>
								<keyframe>
									<when>959</when>
									<value>0</value>
									<outscale>0</outscale>
									<outbez>
										<horiz>1.5</horiz>
										<vert>0</vert>
									</outbez>
								</keyframe>
								<keyframe>
									<when>965</when>
									<value>100</value>
									<inscale>0</inscale>
									<inbez>
										<horiz>1.5</horiz>
										<vert>-3.14159</vert>
									</inbez>
								</keyframe>
								<interpolation>
									<name>FCPCurve</name>
								</interpolation>
								<value>100</value>
							</parameter>
						</effect>
					</filter>
					<sourcetrack>
						<mediatype>video</mediatype>
					</sourcetrack>
					<fielddominance>upper</fielddominance>
				</clipitem>
				<transitionitem id="4">
					<rate>
						<ntsc>FALSE</ntsc>
						<timebase>25</timebase>
					</rate>
					<start>1655</start>
					<end>1665</end>
					<alignment>center</alignment>
					<effect>
						<name>G Glow Dissolve</name>
						<effectcategory>Nattress Big Box Of Tricks</effectcategory>
						<effecttype>transition</effecttype>
						<mediatype>video</mediatype>
						<wipecode>0</wipecode>
						<wipeaccuracy>100</wipeaccuracy>
						<startratio>0</startratio>
						<endratio>1</endratio>
						<reverse>FALSE</reverse>
						<parameter>
							<parameterid>glowamount</parameterid>
							<name>Glow Amount</name>
							<valuemin>0</valuemin>
							<valuemax>100</valuemax>
							<value>27</value>
						</parameter>
						<parameter>
							<parameterid>glowthreshold</parameterid>
							<name>Glow Threshold Limit</name>
							<valuemin>0</valuemin>
							<valuemax>100</valuemax>
							<value>6</value>
						</parameter>
						<parameter>
							<parameterid>glowsize</parameterid>
							<name>Glow Size</name>
							<valuemin>0</valuemin>
							<valuemax>100</valuemax>
							<value>1</value>
						</parameter>
						<parameter>
							<parameterid>ablur</parameterid>
							<name>Blur</name>
							<valuemin>0</valuemin>
							<valuemax>100</valuemax>
							<value>0</value>
						</parameter>
						<parameter>
							<parameterid>asaturation</parameterid>
							<name>Saturation</name>
							<valuemin>-1</valuemin>
							<valuemax>4</valuemax>
							<value>0</value>
						</parameter>
						<parameter>
							<parameterid>dissolvep</parameterid>
							<name>Dissolve Percentage</name>
							<valuemin>5</valuemin>
							<valuemax>100</valuemax>
							<value>50</value>
						</parameter>
						<parameter>
							<parameterid>copyright</parameterid>
							<name>© www.nattress.com</name>
							<value>string</value>
						</parameter>
					</effect>
				</transitionitem>
				<clipitem id="C0012 3">
					<name>C0012</name>
					<duration>1104</duration>
					<rate>
						<ntsc>FALSE</ntsc>
						<timebase>25</timebase>
					</rate>
					<in>49</in>
					<out>76</out>
					<start>-1</start>
					<end>-1</end>
					<pixelaspectratio>Square</pixelaspectratio>
					<enabled>TRUE</enabled>
					<anamorphic>FALSE</anamorphic>
					<alphatype>none</alphatype>
					<masterclipid>C0012 1</masterclipid>
					<logginginfo>
						<scene/>
						<shottake/>
						<lognote/>
						<good>FALSE</good>
					</logginginfo>
					<labels>
						<label2/>
					</labels>
					<comments>
						<mastercomment1/>
						<mastercomment2/>
						<mastercomment3/>
						<mastercomment4/>
					</comments>
					<file id="C0012 2"/>
					<filter>
						<enabled>TRUE</enabled>
						<start>-1</start>
						<end>-1</end>
						<effect>
							<name>Glow Kassa</name>
							<effecttype>filter</effecttype>
							<mediatype>video</mediatype>
							<parameter>
								<parameterid>input_1</parameterid>
								<name>Radius</name>
								<valuemin>0</valuemin>
								<valuemax>100</valuemax>
								<value>31</value>
							</parameter>
							<parameter>
								<parameterid>input_2</parameterid>
								<name>Opacity</name>
								<valuemin>0</valuemin>
								<valuemax>3</valuemax>
								<value>2.37662</value>
							</parameter>
							<parameter>
								<parameterid>input_3</parameterid>
								<name>Threshold</name>
								<valuemin>0</valuemin>
								<valuemax>1</valuemax>
								<value>0.75</value>
							</parameter>
							<parameter>
								<parameterid>input_4</parameterid>
								<name>Softness</name>
								<valuemin>0</valuemin>
								<valuemax>1</valuemax>
								<value>1</value>
							</parameter>
							<parameter>
								<parameterid>FCP_FilterMix</parameterid>
								<name>Mix</name>
								<valuemin>0</valuemin>
								<valuemax>100</valuemax>
								<value>75</value>
							</parameter>
						</effect>
					</filter>
					<filter>
						<enabled>TRUE</enabled>
						<start>-1</start>
						<end>-1</end>
						<effect>
							<name>Color Corrector 3-way</name>
							<effectid>Color Corrector 3-way</effectid>
							<effectcategory>Color Correction</effectcategory>
							<effecttype>filter</effecttype>
							<mediatype>video</mediatype>
							<parameter>
								<parameterid>dispmode</parameterid>
								<name>Display Mode</name>
								<valuemin>1</valuemin>
								<valuemax>3</valuemax>
								<valuelist>
									<valueentry>
										<name>Final</name>
										<value>1</value>
									</valueentry>
									<valueentry>
										<name>Matte</name>
										<value>2</value>
									</valueentry>
									<valueentry>
										<name>Source</name>
										<value>3</value>
									</valueentry>
								</valuelist>
								<value>1</value>
							</parameter>
							<parameter>
								<parameterid>label1</parameterid>
								<name>Blacks Controls</name>
								<value/>
							</parameter>
							<parameter>
								<parameterid>blacklevel</parameterid>
								<name>Level</name>
								<valuemin>-196</valuemin>
								<valuemax>254</valuemax>
								<value>0</value>
							</parameter>
							<parameter>
								<parameterid>b_hue</parameterid>
								<name>Angle</name>
								<valuemin>-180</valuemin>
								<valuemax>180</valuemax>
								<value>-33</value>
							</parameter>
							<parameter>
								<parameterid>b_mag</parameterid>
								<name>Magnitude</name>
								<valuemin>0</valuemin>
								<valuemax>200</valuemax>
								<value>0</value>
							</parameter>
							<parameter>
								<parameterid>label2</parameterid>
								<name>Midrange Controls</name>
								<value/>
							</parameter>
							<parameter>
								<parameterid>mids</parameterid>
								<name>Level</name>
								<valuemin>0</valuemin>
								<valuemax>200</valuemax>
								<value>100</value>
							</parameter>
							<parameter>
								<parameterid>m_hue</parameterid>
								<name>Angle</name>
								<valuemin>-180</valuemin>
								<valuemax>180</valuemax>
								<value>-33</value>
							</parameter>
							<parameter>
								<parameterid>m_mag</parameterid>
								<name>Magnitude</name>
								<valuemin>0</valuemin>
								<valuemax>200</valuemax>
								<value>0</value>
							</parameter>
							<parameter>
								<parameterid>label3</parameterid>
								<name>Highlight Controls</name>
								<value/>
							</parameter>
							<parameter>
								<parameterid>highlights</parameterid>
								<name>Level</name>
								<valuemin>64</valuemin>
								<valuemax>509</valuemax>
								<value>255</value>
							</parameter>
							<parameter>
								<parameterid>h_hue</parameterid>
								<name>Angle</name>
								<valuemin>-180</valuemin>
								<valuemax>180</valuemax>
								<value>-33</value>
							</parameter>
							<parameter>
								<parameterid>h_mag</parameterid>
								<name>Magnitude</name>
								<valuemin>0</valuemin>
								<valuemax>200</valuemax>
								<value>0</value>
							</parameter>
							<parameter>
								<parameterid>label4</parameterid>
								<name>Color Controls</name>
								<value/>
							</parameter>
							<parameter>
								<parameterid>chroma</parameterid>
								<name>Saturation</name>
								<valuemin>0</valuemin>
								<valuemax>200</valuemax>
								<value>126</value>
							</parameter>
							<parameter>
								<parameterid>label5</parameterid>
								<name>Limit Effect Controls</name>
								<value/>
							</parameter>
							<parameter>
								<parameterid>dochroma</parameterid>
								<name>Limit on Chroma</name>
								<value>FALSE</value>
							</parameter>
							<parameter>
								<parameterid>centerang</parameterid>
								<name>Chroma Center</name>
								<valuemin>-760</valuemin>
								<valuemax>760</valuemax>
								<value>-110</value>
							</parameter>
							<parameter>
								<parameterid>chromawidth</parameterid>
								<name>Chroma Width</name>
								<valuemin>0</valuemin>
								<valuemax>360</valuemax>
								<value>15</value>
							</parameter>
							<parameter>
								<parameterid>chromasoft</parameterid>
								<name>Chroma Softness</name>
								<valuemin>0</valuemin>
								<valuemax>180</valuemax>
								<value>10</value>
							</parameter>
							<parameter>
								<parameterid>dosat</parameterid>
								<name>Limit on Saturation</name>
								<value>FALSE</value>
							</parameter>
							<parameter>
								<parameterid>satmin</parameterid>
								<name>Sat. Minimum</name>
								<valuemin>0</valuemin>
								<valuemax>125</valuemax>
								<value>35</value>
							</parameter>
							<parameter>
								<parameterid>satwidth</parameterid>
								<name>Sat. Width</name>
								<valuemin>0</valuemin>
								<valuemax>125</valuemax>
								<value>40</value>
							</parameter>
							<parameter>
								<parameterid>satsoft</parameterid>
								<name>Sat. Softness</name>
								<valuemin>0</valuemin>
								<valuemax>125</valuemax>
								<value>20</value>
							</parameter>
							<parameter>
								<parameterid>doluma</parameterid>
								<name>Limit on Luma</name>
								<value>FALSE</value>
							</parameter>
							<parameter>
								<parameterid>lumamin</parameterid>
								<name>Luma Minimum</name>
								<valuemin>0</valuemin>
								<valuemax>120</valuemax>
								<value>0</value>
							</parameter>
							<parameter>
								<parameterid>lumawidth</parameterid>
								<name>Luma Width</name>
								<valuemin>0</valuemin>
								<valuemax>120</valuemax>
								<value>40</value>
							</parameter>
							<parameter>
								<parameterid>lumasoft</parameterid>
								<name>Luma Softness</name>
								<valuemin>0</valuemin>
								<valuemax>120</valuemax>
								<value>20</value>
							</parameter>
							<parameter>
								<parameterid>label6</parameterid>
								<name>Edge Control</name>
								<value/>
							</parameter>
							<parameter>
								<parameterid>edgethin</parameterid>
								<name>Thin/Spread</name>
								<valuemin>-100</valuemin>
								<valuemax>100</valuemax>
								<value>0</value>
							</parameter>
							<parameter>
								<parameterid>edgefeather</parameterid>
								<name>Softening</name>
								<valuemin>0</valuemin>
								<valuemax>100</valuemax>
								<value>0</value>
							</parameter>
							<parameter>
								<parameterid>label7</parameterid>
								<name>Mask Control</name>
								<value/>
							</parameter>
							<parameter>
								<parameterid>invertsel</parameterid>
								<name>Invert</name>
								<value>FALSE</value>
							</parameter>
							<parameter>
								<parameterid>debugshow</parameterid>
								<name>Show Stats</name>
								<value>FALSE</value>
							</parameter>
						</effect>
					</filter>
					<sourcetrack>
						<mediatype>video</mediatype>
					</sourcetrack>
					<fielddominance>upper</fielddominance>
				</clipitem>
				<transitionitem id="5">
					<rate>
						<ntsc>FALSE</ntsc>
						<timebase>25</timebase>
					</rate>
					<start>1666</start>
					<end>1682</end>
					<alignment>center</alignment>
					<effect>
						<name>G Glow Dissolve</name>
						<effectcategory>Nattress Big Box Of Tricks</effectcategory>
						<effecttype>transition</effecttype>
						<mediatype>video</mediatype>
						<wipecode>0</wipecode>
						<wipeaccuracy>100</wipeaccuracy>
						<startratio>0</startratio>
						<endratio>1</endratio>
						<reverse>FALSE</reverse>
						<parameter>
							<parameterid>glowamount</parameterid>
							<name>Glow Amount</name>
							<valuemin>0</valuemin>
							<valuemax>100</valuemax>
							<value>30</value>
						</parameter>
						<parameter>
							<parameterid>glowthreshold</parameterid>
							<name>Glow Threshold Limit</name>
							<valuemin>0</valuemin>
							<valuemax>100</valuemax>
							<value>6</value>
						</parameter>
						<parameter>
							<parameterid>glowsize</parameterid>
							<name>Glow Size</name>
							<valuemin>0</valuemin>
							<valuemax>100</valuemax>
							<value>1</value>
						</parameter>
						<parameter>
							<parameterid>ablur</parameterid>
							<name>Blur</name>
							<valuemin>0</valuemin>
							<valuemax>100</valuemax>
							<value>0</value>
						</parameter>
						<parameter>
							<parameterid>asaturation</parameterid>
							<name>Saturation</name>
							<valuemin>-1</valuemin>
							<valuemax>4</valuemax>
							<value>0</value>
						</parameter>
						<parameter>
							<parameterid>dissolvep</parameterid>
							<name>Dissolve Percentage</name>
							<valuemin>5</valuemin>
							<valuemax>100</valuemax>
							<value>50</value>
						</parameter>
						<parameter>
							<parameterid>copyright</parameterid>
							<name>© www.nattress.com</name>
							<value>string</value>
						</parameter>
					</effect>
				</transitionitem>
				<clipitem id="C0012 4">
					<name>C0012</name>
					<duration>1104</duration>
					<rate>
						<ntsc>FALSE</ntsc>
						<timebase>25</timebase>
					</rate>
					<in>60</in>
					<out>97</out>
					<start>-1</start>
					<end>-1</end>
					<pixelaspectratio>Square</pixelaspectratio>
					<enabled>TRUE</enabled>
					<anamorphic>FALSE</anamorphic>
					<alphatype>none</alphatype>
					<masterclipid>C0012 1</masterclipid>
					<logginginfo>
						<scene/>
						<shottake/>
						<lognote/>
						<good>FALSE</good>
					</logginginfo>
					<labels>
						<label2/>
					</labels>
					<comments>
						<mastercomment1/>
						<mastercomment2/>
						<mastercomment3/>
						<mastercomment4/>
					</comments>
					<file id="C0012 2"/>
					<filter>
						<enabled>TRUE</enabled>
						<start>-1</start>
						<end>-1</end>
						<effect>
							<name>Glow Kassa</name>
							<effecttype>filter</effecttype>
							<mediatype>video</mediatype>
							<parameter>
								<parameterid>input_1</parameterid>
								<name>Radius</name>
								<valuemin>0</valuemin>
								<valuemax>100</valuemax>
								<value>31</value>
							</parameter>
							<parameter>
								<parameterid>input_2</parameterid>
								<name>Opacity</name>
								<valuemin>0</valuemin>
								<valuemax>3</valuemax>
								<value>2.37662</value>
							</parameter>
							<parameter>
								<parameterid>input_3</parameterid>
								<name>Threshold</name>
								<valuemin>0</valuemin>
								<valuemax>1</valuemax>
								<value>0.75</value>
							</parameter>
							<parameter>
								<parameterid>input_4</parameterid>
								<name>Softness</name>
								<valuemin>0</valuemin>
								<valuemax>1</valuemax>
								<value>1</value>
							</parameter>
							<parameter>
								<parameterid>FCP_FilterMix</parameterid>
								<name>Mix</name>
								<valuemin>0</valuemin>
								<valuemax>100</valuemax>
								<value>75</value>
							</parameter>
						</effect>
					</filter>
					<filter>
						<enabled>TRUE</enabled>
						<start>-1</start>
						<end>-1</end>
						<effect>
							<name>Color Corrector 3-way - 2</name>
							<effectid>Color Corrector 3-way</effectid>
							<effectcategory>Color Correction</effectcategory>
							<effecttype>filter</effecttype>
							<mediatype>video</mediatype>
							<parameter>
								<parameterid>dispmode</parameterid>
								<name>Display Mode</name>
								<valuemin>1</valuemin>
								<valuemax>3</valuemax>
								<valuelist>
									<valueentry>
										<name>Final</name>
										<value>1</value>
									</valueentry>
									<valueentry>
										<name>Matte</name>
										<value>2</value>
									</valueentry>
									<valueentry>
										<name>Source</name>
										<value>3</value>
									</valueentry>
								</valuelist>
								<value>1</value>
							</parameter>
							<parameter>
								<parameterid>label1</parameterid>
								<name>Blacks Controls</name>
								<value/>
							</parameter>
							<parameter>
								<parameterid>blacklevel</parameterid>
								<name>Level</name>
								<valuemin>-196</valuemin>
								<valuemax>254</valuemax>
								<value>0</value>
							</parameter>
							<parameter>
								<parameterid>b_hue</parameterid>
								<name>Angle</name>
								<valuemin>-180</valuemin>
								<valuemax>180</valuemax>
								<value>-33</value>
							</parameter>
							<parameter>
								<parameterid>b_mag</parameterid>
								<name>Magnitude</name>
								<valuemin>0</valuemin>
								<valuemax>200</valuemax>
								<value>0</value>
							</parameter>
							<parameter>
								<parameterid>label2</parameterid>
								<name>Midrange Controls</name>
								<value/>
							</parameter>
							<parameter>
								<parameterid>mids</parameterid>
								<name>Level</name>
								<valuemin>0</valuemin>
								<valuemax>200</valuemax>
								<value>100</value>
							</parameter>
							<parameter>
								<parameterid>m_hue</parameterid>
								<name>Angle</name>
								<valuemin>-180</valuemin>
								<valuemax>180</valuemax>
								<value>-33</value>
							</parameter>
							<parameter>
								<parameterid>m_mag</parameterid>
								<name>Magnitude</name>
								<valuemin>0</valuemin>
								<valuemax>200</valuemax>
								<value>0</value>
							</parameter>
							<parameter>
								<parameterid>label3</parameterid>
								<name>Highlight Controls</name>
								<value/>
							</parameter>
							<parameter>
								<parameterid>highlights</parameterid>
								<name>Level</name>
								<valuemin>64</valuemin>
								<valuemax>509</valuemax>
								<value>255</value>
							</parameter>
							<parameter>
								<parameterid>h_hue</parameterid>
								<name>Angle</name>
								<valuemin>-180</valuemin>
								<valuemax>180</valuemax>
								<value>-33</value>
							</parameter>
							<parameter>
								<parameterid>h_mag</parameterid>
								<name>Magnitude</name>
								<valuemin>0</valuemin>
								<valuemax>200</valuemax>
								<value>0</value>
							</parameter>
							<parameter>
								<parameterid>label4</parameterid>
								<name>Color Controls</name>
								<value/>
							</parameter>
							<parameter>
								<parameterid>chroma</parameterid>
								<name>Saturation</name>
								<valuemin>0</valuemin>
								<valuemax>200</valuemax>
								<value>126</value>
							</parameter>
							<parameter>
								<parameterid>label5</parameterid>
								<name>Limit Effect Controls</name>
								<value/>
							</parameter>
							<parameter>
								<parameterid>dochroma</parameterid>
								<name>Limit on Chroma</name>
								<value>FALSE</value>
							</parameter>
							<parameter>
								<parameterid>centerang</parameterid>
								<name>Chroma Center</name>
								<valuemin>-760</valuemin>
								<valuemax>760</valuemax>
								<value>-110</value>
							</parameter>
							<parameter>
								<parameterid>chromawidth</parameterid>
								<name>Chroma Width</name>
								<valuemin>0</valuemin>
								<valuemax>360</valuemax>
								<value>15</value>
							</parameter>
							<parameter>
								<parameterid>chromasoft</parameterid>
								<name>Chroma Softness</name>
								<valuemin>0</valuemin>
								<valuemax>180</valuemax>
								<value>10</value>
							</parameter>
							<parameter>
								<parameterid>dosat</parameterid>
								<name>Limit on Saturation</name>
								<value>FALSE</value>
							</parameter>
							<parameter>
								<parameterid>satmin</parameterid>
								<name>Sat. Minimum</name>
								<valuemin>0</valuemin>
								<valuemax>125</valuemax>
								<value>35</value>
							</parameter>
							<parameter>
								<parameterid>satwidth</parameterid>
								<name>Sat. Width</name>
								<valuemin>0</valuemin>
								<valuemax>125</valuemax>
								<value>40</value>
							</parameter>
							<parameter>
								<parameterid>satsoft</parameterid>
								<name>Sat. Softness</name>
								<valuemin>0</valuemin>
								<valuemax>125</valuemax>
								<value>20</value>
							</parameter>
							<parameter>
								<parameterid>doluma</parameterid>
								<name>Limit on Luma</name>
								<value>FALSE</value>
							</parameter>
							<parameter>
								<parameterid>lumamin</parameterid>
								<name>Luma Minimum</name>
								<valuemin>0</valuemin>
								<valuemax>120</valuemax>
								<value>0</value>
							</parameter>
							<parameter>
								<parameterid>lumawidth</parameterid>
								<name>Luma Width</name>
								<valuemin>0</valuemin>
								<valuemax>120</valuemax>
								<value>40</value>
							</parameter>
							<parameter>
								<parameterid>lumasoft</parameterid>
								<name>Luma Softness</name>
								<valuemin>0</valuemin>
								<valuemax>120</valuemax>
								<value>20</value>
							</parameter>
							<parameter>
								<parameterid>label6</parameterid>
								<name>Edge Control</name>
								<value/>
							</parameter>
							<parameter>
								<parameterid>edgethin</parameterid>
								<name>Thin/Spread</name>
								<valuemin>-100</valuemin>
								<valuemax>100</valuemax>
								<value>0</value>
							</parameter>
							<parameter>
								<parameterid>edgefeather</parameterid>
								<name>Softening</name>
								<valuemin>0</valuemin>
								<valuemax>100</valuemax>
								<value>0</value>
							</parameter>
							<parameter>
								<parameterid>label7</parameterid>
								<name>Mask Control</name>
								<value/>
							</parameter>
							<parameter>
								<parameterid>invertsel</parameterid>
								<name>Invert</name>
								<value>FALSE</value>
							</parameter>
							<parameter>
								<parameterid>debugshow</parameterid>
								<name>Show Stats</name>
								<value>FALSE</value>
							</parameter>
						</effect>
					</filter>
					<sourcetrack>
						<mediatype>video</mediatype>
					</sourcetrack>
					<fielddominance>upper</fielddominance>
				</clipitem>
				<transitionitem id="6">
					<rate>
						<ntsc>FALSE</ntsc>
						<timebase>25</timebase>
					</rate>
					<start>1683</start>
					<end>1703</end>
					<alignment>center</alignment>
					<effect>
						<name>G Glow Dissolve</name>
						<effectcategory>Nattress Big Box Of Tricks</effectcategory>
						<effecttype>transition</effecttype>
						<mediatype>video</mediatype>
						<wipecode>0</wipecode>
						<wipeaccuracy>100</wipeaccuracy>
						<startratio>0</startratio>
						<endratio>1</endratio>
						<reverse>FALSE</reverse>
						<parameter>
							<parameterid>glowamount</parameterid>
							<name>Glow Amount</name>
							<valuemin>0</valuemin>
							<valuemax>100</valuemax>
							<value>30</value>
						</parameter>
						<parameter>
							<parameterid>glowthreshold</parameterid>
							<name>Glow Threshold Limit</name>
							<valuemin>0</valuemin>
							<valuemax>100</valuemax>
							<value>6</value>
						</parameter>
						<parameter>
							<parameterid>glowsize</parameterid>
							<name>Glow Size</name>
							<valuemin>0</valuemin>
							<valuemax>100</valuemax>
							<value>1</value>
						</parameter>
						<parameter>
							<parameterid>ablur</parameterid>
							<name>Blur</name>
							<valuemin>0</valuemin>
							<valuemax>100</valuemax>
							<value>0</value>
						</parameter>
						<parameter>
							<parameterid>asaturation</parameterid>
							<name>Saturation</name>
							<valuemin>-1</valuemin>
							<valuemax>4</valuemax>
							<value>0</value>
						</parameter>
						<parameter>
							<parameterid>dissolvep</parameterid>
							<name>Dissolve Percentage</name>
							<valuemin>5</valuemin>
							<valuemax>100</valuemax>
							<value>50</value>
						</parameter>
						<parameter>
							<parameterid>copyright</parameterid>
							<name>© www.nattress.com</name>
							<value>string</value>
						</parameter>
					</effect>
				</transitionitem>
				<clipitem id="C0012 5">
					<name>C0012</name>
					<duration>1104</duration>
					<rate>
						<ntsc>FALSE</ntsc>
						<timebase>25</timebase>
					</rate>
					<in>77</in>
					<out>116</out>
					<start>-1</start>
					<end>-1</end>
					<pixelaspectratio>Square</pixelaspectratio>
					<enabled>TRUE</enabled>
					<anamorphic>FALSE</anamorphic>
					<alphatype>none</alphatype>
					<masterclipid>C0012 1</masterclipid>
					<logginginfo>
						<scene/>
						<shottake/>
						<lognote/>
						<good>FALSE</good>
					</logginginfo>
					<labels>
						<label2/>
					</labels>
					<comments>
						<mastercomment1/>
						<mastercomment2/>
						<mastercomment3/>
						<mastercomment4/>
					</comments>
					<file id="C0012 2"/>
					<filter>
						<enabled>TRUE</enabled>
						<start>-1</start>
						<end>-1</end>
						<effect>
							<name>Glow Kassa</name>
							<effecttype>filter</effecttype>
							<mediatype>video</mediatype>
							<parameter>
								<parameterid>input_1</parameterid>
								<name>Radius</name>
								<valuemin>0</valuemin>
								<valuemax>100</valuemax>
								<value>31</value>
							</parameter>
							<parameter>
								<parameterid>input_2</parameterid>
								<name>Opacity</name>
								<valuemin>0</valuemin>
								<valuemax>3</valuemax>
								<value>2.37662</value>
							</parameter>
							<parameter>
								<parameterid>input_3</parameterid>
								<name>Threshold</name>
								<valuemin>0</valuemin>
								<valuemax>1</valuemax>
								<value>0.75</value>
							</parameter>
							<parameter>
								<parameterid>input_4</parameterid>
								<name>Softness</name>
								<valuemin>0</valuemin>
								<valuemax>1</valuemax>
								<value>1</value>
							</parameter>
							<parameter>
								<parameterid>FCP_FilterMix</parameterid>
								<name>Mix</name>
								<valuemin>0</valuemin>
								<valuemax>100</valuemax>
								<value>75</value>
							</parameter>
						</effect>
					</filter>
					<filter>
						<enabled>TRUE</enabled>
						<start>-1</start>
						<end>-1</end>
						<effect>
							<name>Color Corrector 3-way</name>
							<effectid>Color Corrector 3-way</effectid>
							<effectcategory>Color Correction</effectcategory>
							<effecttype>filter</effecttype>
							<mediatype>video</mediatype>
							<parameter>
								<parameterid>dispmode</parameterid>
								<name>Display Mode</name>
								<valuemin>1</valuemin>
								<valuemax>3</valuemax>
								<valuelist>
									<valueentry>
										<name>Final</name>
										<value>1</value>
									</valueentry>
									<valueentry>
										<name>Matte</name>
										<value>2</value>
									</valueentry>
									<valueentry>
										<name>Source</name>
										<value>3</value>
									</valueentry>
								</valuelist>
								<value>1</value>
							</parameter>
							<parameter>
								<parameterid>label1</parameterid>
								<name>Blacks Controls</name>
								<value/>
							</parameter>
							<parameter>
								<parameterid>blacklevel</parameterid>
								<name>Level</name>
								<valuemin>-196</valuemin>
								<valuemax>254</valuemax>
								<value>0</value>
							</parameter>
							<parameter>
								<parameterid>b_hue</parameterid>
								<name>Angle</name>
								<valuemin>-180</valuemin>
								<valuemax>180</valuemax>
								<value>-33</value>
							</parameter>
							<parameter>
								<parameterid>b_mag</parameterid>
								<name>Magnitude</name>
								<valuemin>0</valuemin>
								<valuemax>200</valuemax>
								<value>0</value>
							</parameter>
							<parameter>
								<parameterid>label2</parameterid>
								<name>Midrange Controls</name>
								<value/>
							</parameter>
							<parameter>
								<parameterid>mids</parameterid>
								<name>Level</name>
								<valuemin>0</valuemin>
								<valuemax>200</valuemax>
								<value>100</value>
							</parameter>
							<parameter>
								<parameterid>m_hue</parameterid>
								<name>Angle</name>
								<valuemin>-180</valuemin>
								<valuemax>180</valuemax>
								<value>-33</value>
							</parameter>
							<parameter>
								<parameterid>m_mag</parameterid>
								<name>Magnitude</name>
								<valuemin>0</valuemin>
								<valuemax>200</valuemax>
								<value>0</value>
							</parameter>
							<parameter>
								<parameterid>label3</parameterid>
								<name>Highlight Controls</name>
								<value/>
							</parameter>
							<parameter>
								<parameterid>highlights</parameterid>
								<name>Level</name>
								<valuemin>64</valuemin>
								<valuemax>509</valuemax>
								<value>255</value>
							</parameter>
							<parameter>
								<parameterid>h_hue</parameterid>
								<name>Angle</name>
								<valuemin>-180</valuemin>
								<valuemax>180</valuemax>
								<value>-33</value>
							</parameter>
							<parameter>
								<parameterid>h_mag</parameterid>
								<name>Magnitude</name>
								<valuemin>0</valuemin>
								<valuemax>200</valuemax>
								<value>0</value>
							</parameter>
							<parameter>
								<parameterid>label4</parameterid>
								<name>Color Controls</name>
								<value/>
							</parameter>
							<parameter>
								<parameterid>chroma</parameterid>
								<name>Saturation</name>
								<valuemin>0</valuemin>
								<valuemax>200</valuemax>
								<value>126</value>
							</parameter>
							<parameter>
								<parameterid>label5</parameterid>
								<name>Limit Effect Controls</name>
								<value/>
							</parameter>
							<parameter>
								<parameterid>dochroma</parameterid>
								<name>Limit on Chroma</name>
								<value>FALSE</value>
							</parameter>
							<parameter>
								<parameterid>centerang</parameterid>
								<name>Chroma Center</name>
								<valuemin>-760</valuemin>
								<valuemax>760</valuemax>
								<value>-110</value>
							</parameter>
							<parameter>
								<parameterid>chromawidth</parameterid>
								<name>Chroma Width</name>
								<valuemin>0</valuemin>
								<valuemax>360</valuemax>
								<value>15</value>
							</parameter>
							<parameter>
								<parameterid>chromasoft</parameterid>
								<name>Chroma Softness</name>
								<valuemin>0</valuemin>
								<valuemax>180</valuemax>
								<value>10</value>
							</parameter>
							<parameter>
								<parameterid>dosat</parameterid>
								<name>Limit on Saturation</name>
								<value>FALSE</value>
							</parameter>
							<parameter>
								<parameterid>satmin</parameterid>
								<name>Sat. Minimum</name>
								<valuemin>0</valuemin>
								<valuemax>125</valuemax>
								<value>35</value>
							</parameter>
							<parameter>
								<parameterid>satwidth</parameterid>
								<name>Sat. Width</name>
								<valuemin>0</valuemin>
								<valuemax>125</valuemax>
								<value>40</value>
							</parameter>
							<parameter>
								<parameterid>satsoft</parameterid>
								<name>Sat. Softness</name>
								<valuemin>0</valuemin>
								<valuemax>125</valuemax>
								<value>20</value>
							</parameter>
							<parameter>
								<parameterid>doluma</parameterid>
								<name>Limit on Luma</name>
								<value>FALSE</value>
							</parameter>
							<parameter>
								<parameterid>lumamin</parameterid>
								<name>Luma Minimum</name>
								<valuemin>0</valuemin>
								<valuemax>120</valuemax>
								<value>0</value>
							</parameter>
							<parameter>
								<parameterid>lumawidth</parameterid>
								<name>Luma Width</name>
								<valuemin>0</valuemin>
								<valuemax>120</valuemax>
								<value>40</value>
							</parameter>
							<parameter>
								<parameterid>lumasoft</parameterid>
								<name>Luma Softness</name>
								<valuemin>0</valuemin>
								<valuemax>120</valuemax>
								<value>20</value>
							</parameter>
							<parameter>
								<parameterid>label6</parameterid>
								<name>Edge Control</name>
								<value/>
							</parameter>
							<parameter>
								<parameterid>edgethin</parameterid>
								<name>Thin/Spread</name>
								<valuemin>-100</valuemin>
								<valuemax>100</valuemax>
								<value>0</value>
							</parameter>
							<parameter>
								<parameterid>edgefeather</parameterid>
								<name>Softening</name>
								<valuemin>0</valuemin>
								<valuemax>100</valuemax>
								<value>0</value>
							</parameter>
							<parameter>
								<parameterid>label7</parameterid>
								<name>Mask Control</name>
								<value/>
							</parameter>
							<parameter>
								<parameterid>invertsel</parameterid>
								<name>Invert</name>
								<value>FALSE</value>
							</parameter>
							<parameter>
								<parameterid>debugshow</parameterid>
								<name>Show Stats</name>
								<value>FALSE</value>
							</parameter>
						</effect>
					</filter>
					<sourcetrack>
						<mediatype>video</mediatype>
					</sourcetrack>
					<fielddominance>upper</fielddominance>
				</clipitem>
				<transitionitem id="7">
					<rate>
						<ntsc>FALSE</ntsc>
						<timebase>25</timebase>
					</rate>
					<start>1705</start>
					<end>1722</end>
					<alignment>center</alignment>
					<effect>
						<name>G Glow Dissolve</name>
						<effectcategory>Nattress Big Box Of Tricks</effectcategory>
						<effecttype>transition</effecttype>
						<mediatype>video</mediatype>
						<wipecode>0</wipecode>
						<wipeaccuracy>100</wipeaccuracy>
						<startratio>0</startratio>
						<endratio>1</endratio>
						<reverse>FALSE</reverse>
						<parameter>
							<parameterid>glowamount</parameterid>
							<name>Glow Amount</name>
							<valuemin>0</valuemin>
							<valuemax>100</valuemax>
							<value>30</value>
						</parameter>
						<parameter>
							<parameterid>glowthreshold</parameterid>
							<name>Glow Threshold Limit</name>
							<valuemin>0</valuemin>
							<valuemax>100</valuemax>
							<value>6</value>
						</parameter>
						<parameter>
							<parameterid>glowsize</parameterid>
							<name>Glow Size</name>
							<valuemin>0</valuemin>
							<valuemax>100</valuemax>
							<value>1</value>
						</parameter>
						<parameter>
							<parameterid>ablur</parameterid>
							<name>Blur</name>
							<valuemin>0</valuemin>
							<valuemax>100</valuemax>
							<value>0</value>
						</parameter>
						<parameter>
							<parameterid>asaturation</parameterid>
							<name>Saturation</name>
							<valuemin>-1</valuemin>
							<valuemax>4</valuemax>
							<value>0</value>
						</parameter>
						<parameter>
							<parameterid>dissolvep</parameterid>
							<name>Dissolve Percentage</name>
							<valuemin>5</valuemin>
							<valuemax>100</valuemax>
							<value>50</value>
						</parameter>
						<parameter>
							<parameterid>copyright</parameterid>
							<name>© www.nattress.com</name>
							<value>string</value>
						</parameter>
					</effect>
				</transitionitem>
				<clipitem id="C0012 6">
					<name>C0012</name>
					<duration>1104</duration>
					<rate>
						<ntsc>FALSE</ntsc>
						<timebase>25</timebase>
					</rate>
					<in>99</in>
					<out>135</out>
					<start>-1</start>
					<end>-1</end>
					<pixelaspectratio>Square</pixelaspectratio>
					<enabled>TRUE</enabled>
					<anamorphic>FALSE</anamorphic>
					<alphatype>none</alphatype>
					<masterclipid>C0012 1</masterclipid>
					<logginginfo>
						<scene/>
						<shottake/>
						<lognote/>
						<good>FALSE</good>
					</logginginfo>
					<labels>
						<label2/>
					</labels>
					<comments>
						<mastercomment1/>
						<mastercomment2/>
						<mastercomment3/>
						<mastercomment4/>
					</comments>
					<file id="C0012 2"/>
					<filter>
						<enabled>TRUE</enabled>
						<start>-1</start>
						<end>-1</end>
						<effect>
							<name>Glow Kassa</name>
							<effecttype>filter</effecttype>
							<mediatype>video</mediatype>
							<parameter>
								<parameterid>input_1</parameterid>
								<name>Radius</name>
								<valuemin>0</valuemin>
								<valuemax>100</valuemax>
								<value>31</value>
							</parameter>
							<parameter>
								<parameterid>input_2</parameterid>
								<name>Opacity</name>
								<valuemin>0</valuemin>
								<valuemax>3</valuemax>
								<value>2.37662</value>
							</parameter>
							<parameter>
								<parameterid>input_3</parameterid>
								<name>Threshold</name>
								<valuemin>0</valuemin>
								<valuemax>1</valuemax>
								<value>0.75</value>
							</parameter>
							<parameter>
								<parameterid>input_4</parameterid>
								<name>Softness</name>
								<valuemin>0</valuemin>
								<valuemax>1</valuemax>
								<value>1</value>
							</parameter>
							<parameter>
								<parameterid>FCP_FilterMix</parameterid>
								<name>Mix</name>
								<valuemin>0</valuemin>
								<valuemax>100</valuemax>
								<value>75</value>
							</parameter>
						</effect>
					</filter>
					<filter>
						<enabled>TRUE</enabled>
						<start>-1</start>
						<end>-1</end>
						<effect>
							<name>Color Corrector 3-way</name>
							<effectid>Color Corrector 3-way</effectid>
							<effectcategory>Color Correction</effectcategory>
							<effecttype>filter</effecttype>
							<mediatype>video</mediatype>
							<parameter>
								<parameterid>dispmode</parameterid>
								<name>Display Mode</name>
								<valuemin>1</valuemin>
								<valuemax>3</valuemax>
								<valuelist>
									<valueentry>
										<name>Final</name>
										<value>1</value>
									</valueentry>
									<valueentry>
										<name>Matte</name>
										<value>2</value>
									</valueentry>
									<valueentry>
										<name>Source</name>
										<value>3</value>
									</valueentry>
								</valuelist>
								<value>1</value>
							</parameter>
							<parameter>
								<parameterid>label1</parameterid>
								<name>Blacks Controls</name>
								<value/>
							</parameter>
							<parameter>
								<parameterid>blacklevel</parameterid>
								<name>Level</name>
								<valuemin>-196</valuemin>
								<valuemax>254</valuemax>
								<value>0</value>
							</parameter>
							<parameter>
								<parameterid>b_hue</parameterid>
								<name>Angle</name>
								<valuemin>-180</valuemin>
								<valuemax>180</valuemax>
								<value>-33</value>
							</parameter>
							<parameter>
								<parameterid>b_mag</parameterid>
								<name>Magnitude</name>
								<valuemin>0</valuemin>
								<valuemax>200</valuemax>
								<value>0</value>
							</parameter>
							<parameter>
								<parameterid>label2</parameterid>
								<name>Midrange Controls</name>
								<value/>
							</parameter>
							<parameter>
								<parameterid>mids</parameterid>
								<name>Level</name>
								<valuemin>0</valuemin>
								<valuemax>200</valuemax>
								<value>100</value>
							</parameter>
							<parameter>
								<parameterid>m_hue</parameterid>
								<name>Angle</name>
								<valuemin>-180</valuemin>
								<valuemax>180</valuemax>
								<value>-33</value>
							</parameter>
							<parameter>
								<parameterid>m_mag</parameterid>
								<name>Magnitude</name>
								<valuemin>0</valuemin>
								<valuemax>200</valuemax>
								<value>0</value>
							</parameter>
							<parameter>
								<parameterid>label3</parameterid>
								<name>Highlight Controls</name>
								<value/>
							</parameter>
							<parameter>
								<parameterid>highlights</parameterid>
								<name>Level</name>
								<valuemin>64</valuemin>
								<valuemax>509</valuemax>
								<value>255</value>
							</parameter>
							<parameter>
								<parameterid>h_hue</parameterid>
								<name>Angle</name>
								<valuemin>-180</valuemin>
								<valuemax>180</valuemax>
								<value>-33</value>
							</parameter>
							<parameter>
								<parameterid>h_mag</parameterid>
								<name>Magnitude</name>
								<valuemin>0</valuemin>
								<valuemax>200</valuemax>
								<value>0</value>
							</parameter>
							<parameter>
								<parameterid>label4</parameterid>
								<name>Color Controls</name>
								<value/>
							</parameter>
							<parameter>
								<parameterid>chroma</parameterid>
								<name>Saturation</name>
								<valuemin>0</valuemin>
								<valuemax>200</valuemax>
								<value>126</value>
							</parameter>
							<parameter>
								<parameterid>label5</parameterid>
								<name>Limit Effect Controls</name>
								<value/>
							</parameter>
							<parameter>
								<parameterid>dochroma</parameterid>
								<name>Limit on Chroma</name>
								<value>FALSE</value>
							</parameter>
							<parameter>
								<parameterid>centerang</parameterid>
								<name>Chroma Center</name>
								<valuemin>-760</valuemin>
								<valuemax>760</valuemax>
								<value>-110</value>
							</parameter>
							<parameter>
								<parameterid>chromawidth</parameterid>
								<name>Chroma Width</name>
								<valuemin>0</valuemin>
								<valuemax>360</valuemax>
								<value>15</value>
							</parameter>
							<parameter>
								<parameterid>chromasoft</parameterid>
								<name>Chroma Softness</name>
								<valuemin>0</valuemin>
								<valuemax>180</valuemax>
								<value>10</value>
							</parameter>
							<parameter>
								<parameterid>dosat</parameterid>
								<name>Limit on Saturation</name>
								<value>FALSE</value>
							</parameter>
							<parameter>
								<parameterid>satmin</parameterid>
								<name>Sat. Minimum</name>
								<valuemin>0</valuemin>
								<valuemax>125</valuemax>
								<value>35</value>
							</parameter>
							<parameter>
								<parameterid>satwidth</parameterid>
								<name>Sat. Width</name>
								<valuemin>0</valuemin>
								<valuemax>125</valuemax>
								<value>40</value>
							</parameter>
							<parameter>
								<parameterid>satsoft</parameterid>
								<name>Sat. Softness</name>
								<valuemin>0</valuemin>
								<valuemax>125</valuemax>
								<value>20</value>
							</parameter>
							<parameter>
								<parameterid>doluma</parameterid>
								<name>Limit on Luma</name>
								<value>FALSE</value>
							</parameter>
							<parameter>
								<parameterid>lumamin</parameterid>
								<name>Luma Minimum</name>
								<valuemin>0</valuemin>
								<valuemax>120</valuemax>
								<value>0</value>
							</parameter>
							<parameter>
								<parameterid>lumawidth</parameterid>
								<name>Luma Width</name>
								<valuemin>0</valuemin>
								<valuemax>120</valuemax>
								<value>40</value>
							</parameter>
							<parameter>
								<parameterid>lumasoft</parameterid>
								<name>Luma Softness</name>
								<valuemin>0</valuemin>
								<valuemax>120</valuemax>
								<value>20</value>
							</parameter>
							<parameter>
								<parameterid>label6</parameterid>
								<name>Edge Control</name>
								<value/>
							</parameter>
							<parameter>
								<parameterid>edgethin</parameterid>
								<name>Thin/Spread</name>
								<valuemin>-100</valuemin>
								<valuemax>100</valuemax>
								<value>0</value>
							</parameter>
							<parameter>
								<parameterid>edgefeather</parameterid>
								<name>Softening</name>
								<valuemin>0</valuemin>
								<valuemax>100</valuemax>
								<value>0</value>
							</parameter>
							<parameter>
								<parameterid>label7</parameterid>
								<name>Mask Control</name>
								<value/>
							</parameter>
							<parameter>
								<parameterid>invertsel</parameterid>
								<name>Invert</name>
								<value>FALSE</value>
							</parameter>
							<parameter>
								<parameterid>debugshow</parameterid>
								<name>Show Stats</name>
								<value>FALSE</value>
							</parameter>
						</effect>
					</filter>
					<sourcetrack>
						<mediatype>video</mediatype>
					</sourcetrack>
					<fielddominance>upper</fielddominance>
				</clipitem>
				<transitionitem id="8">
					<rate>
						<ntsc>FALSE</ntsc>
						<timebase>25</timebase>
					</rate>
					<start>1724</start>
					<end>1741</end>
					<alignment>center</alignment>
					<effect>
						<name>G Glow Dissolve</name>
						<effectcategory>Nattress Big Box Of Tricks</effectcategory>
						<effecttype>transition</effecttype>
						<mediatype>video</mediatype>
						<wipecode>0</wipecode>
						<wipeaccuracy>100</wipeaccuracy>
						<startratio>0</startratio>
						<endratio>1</endratio>
						<reverse>FALSE</reverse>
						<parameter>
							<parameterid>glowamount</parameterid>
							<name>Glow Amount</name>
							<valuemin>0</valuemin>
							<valuemax>100</valuemax>
							<value>75</value>
						</parameter>
						<parameter>
							<parameterid>glowthreshold</parameterid>
							<name>Glow Threshold Limit</name>
							<valuemin>0</valuemin>
							<valuemax>100</valuemax>
							<value>12</value>
						</parameter>
						<parameter>
							<parameterid>glowsize</parameterid>
							<name>Glow Size</name>
							<valuemin>0</valuemin>
							<valuemax>100</valuemax>
							<value>4</value>
						</parameter>
						<parameter>
							<parameterid>ablur</parameterid>
							<name>Blur</name>
							<valuemin>0</valuemin>
							<valuemax>100</valuemax>
							<value>4</value>
						</parameter>
						<parameter>
							<parameterid>asaturation</parameterid>
							<name>Saturation</name>
							<valuemin>-1</valuemin>
							<valuemax>4</valuemax>
							<value>0</value>
						</parameter>
						<parameter>
							<parameterid>dissolvep</parameterid>
							<name>Dissolve Percentage</name>
							<valuemin>5</valuemin>
							<valuemax>100</valuemax>
							<value>50</value>
						</parameter>
						<parameter>
							<parameterid>copyright</parameterid>
							<name>© www.nattress.com</name>
							<value>string</value>
						</parameter>
					</effect>
				</transitionitem>
				<clipitem id="C0008 (1)3">
					<name>C0008 (1)</name>
					<duration>2592</duration>
					<rate>
						<ntsc>FALSE</ntsc>
						<timebase>25</timebase>
					</rate>
					<in>186</in>
					<out>214</out>
					<start>-1</start>
					<end>1752</end>
					<pixelaspectratio>Square</pixelaspectratio>
					<enabled>TRUE</enabled>
					<anamorphic>FALSE</anamorphic>
					<alphatype>none</alphatype>
					<masterclipid>C0008 (1)1</masterclipid>
					<logginginfo>
						<scene/>
						<shottake/>
						<lognote/>
						<good>FALSE</good>
					</logginginfo>
					<labels>
						<label2/>
					</labels>
					<comments>
						<mastercomment1/>
						<mastercomment2/>
						<mastercomment3/>
						<mastercomment4/>
					</comments>
					<file id="C0008 (1)2"/>
					<filter>
						<enabled>TRUE</enabled>
						<start>-1</start>
						<end>-1</end>
						<effect>
							<name>Glow Kassa</name>
							<effecttype>filter</effecttype>
							<mediatype>video</mediatype>
							<parameter>
								<parameterid>input_1</parameterid>
								<name>Radius</name>
								<valuemin>0</valuemin>
								<valuemax>100</valuemax>
								<value>31</value>
							</parameter>
							<parameter>
								<parameterid>input_2</parameterid>
								<name>Opacity</name>
								<valuemin>0</valuemin>
								<valuemax>3</valuemax>
								<value>2.37662</value>
							</parameter>
							<parameter>
								<parameterid>input_3</parameterid>
								<name>Threshold</name>
								<valuemin>0</valuemin>
								<valuemax>1</valuemax>
								<value>0.75</value>
							</parameter>
							<parameter>
								<parameterid>input_4</parameterid>
								<name>Softness</name>
								<valuemin>0</valuemin>
								<valuemax>1</valuemax>
								<value>1</value>
							</parameter>
							<parameter>
								<parameterid>FCP_FilterMix</parameterid>
								<name>Mix</name>
								<valuemin>0</valuemin>
								<valuemax>100</valuemax>
								<value>75</value>
							</parameter>
						</effect>
					</filter>
					<filter>
						<enabled>TRUE</enabled>
						<start>-1</start>
						<end>-1</end>
						<effect>
							<name>Color Corrector 3-way</name>
							<effectid>Color Corrector 3-way</effectid>
							<effectcategory>Color Correction</effectcategory>
							<effecttype>filter</effecttype>
							<mediatype>video</mediatype>
							<parameter>
								<parameterid>dispmode</parameterid>
								<name>Display Mode</name>
								<valuemin>1</valuemin>
								<valuemax>3</valuemax>
								<valuelist>
									<valueentry>
										<name>Final</name>
										<value>1</value>
									</valueentry>
									<valueentry>
										<name>Matte</name>
										<value>2</value>
									</valueentry>
									<valueentry>
										<name>Source</name>
										<value>3</value>
									</valueentry>
								</valuelist>
								<value>1</value>
							</parameter>
							<parameter>
								<parameterid>label1</parameterid>
								<name>Blacks Controls</name>
								<value/>
							</parameter>
							<parameter>
								<parameterid>blacklevel</parameterid>
								<name>Level</name>
								<valuemin>-196</valuemin>
								<valuemax>254</valuemax>
								<value>0</value>
							</parameter>
							<parameter>
								<parameterid>b_hue</parameterid>
								<name>Angle</name>
								<valuemin>-180</valuemin>
								<valuemax>180</valuemax>
								<value>-33</value>
							</parameter>
							<parameter>
								<parameterid>b_mag</parameterid>
								<name>Magnitude</name>
								<valuemin>0</valuemin>
								<valuemax>200</valuemax>
								<value>0</value>
							</parameter>
							<parameter>
								<parameterid>label2</parameterid>
								<name>Midrange Controls</name>
								<value/>
							</parameter>
							<parameter>
								<parameterid>mids</parameterid>
								<name>Level</name>
								<valuemin>0</valuemin>
								<valuemax>200</valuemax>
								<value>100</value>
							</parameter>
							<parameter>
								<parameterid>m_hue</parameterid>
								<name>Angle</name>
								<valuemin>-180</valuemin>
								<valuemax>180</valuemax>
								<value>-33</value>
							</parameter>
							<parameter>
								<parameterid>m_mag</parameterid>
								<name>Magnitude</name>
								<valuemin>0</valuemin>
								<valuemax>200</valuemax>
								<value>0</value>
							</parameter>
							<parameter>
								<parameterid>label3</parameterid>
								<name>Highlight Controls</name>
								<value/>
							</parameter>
							<parameter>
								<parameterid>highlights</parameterid>
								<name>Level</name>
								<valuemin>64</valuemin>
								<valuemax>509</valuemax>
								<value>255</value>
							</parameter>
							<parameter>
								<parameterid>h_hue</parameterid>
								<name>Angle</name>
								<valuemin>-180</valuemin>
								<valuemax>180</valuemax>
								<value>-33</value>
							</parameter>
							<parameter>
								<parameterid>h_mag</parameterid>
								<name>Magnitude</name>
								<valuemin>0</valuemin>
								<valuemax>200</valuemax>
								<value>0</value>
							</parameter>
							<parameter>
								<parameterid>label4</parameterid>
								<name>Color Controls</name>
								<value/>
							</parameter>
							<parameter>
								<parameterid>chroma</parameterid>
								<name>Saturation</name>
								<valuemin>0</valuemin>
								<valuemax>200</valuemax>
								<value>126</value>
							</parameter>
							<parameter>
								<parameterid>label5</parameterid>
								<name>Limit Effect Controls</name>
								<value/>
							</parameter>
							<parameter>
								<parameterid>dochroma</parameterid>
								<name>Limit on Chroma</name>
								<value>FALSE</value>
							</parameter>
							<parameter>
								<parameterid>centerang</parameterid>
								<name>Chroma Center</name>
								<valuemin>-760</valuemin>
								<valuemax>760</valuemax>
								<value>-110</value>
							</parameter>
							<parameter>
								<parameterid>chromawidth</parameterid>
								<name>Chroma Width</name>
								<valuemin>0</valuemin>
								<valuemax>360</valuemax>
								<value>15</value>
							</parameter>
							<parameter>
								<parameterid>chromasoft</parameterid>
								<name>Chroma Softness</name>
								<valuemin>0</valuemin>
								<valuemax>180</valuemax>
								<value>10</value>
							</parameter>
							<parameter>
								<parameterid>dosat</parameterid>
								<name>Limit on Saturation</name>
								<value>FALSE</value>
							</parameter>
							<parameter>
								<parameterid>satmin</parameterid>
								<name>Sat. Minimum</name>
								<valuemin>0</valuemin>
								<valuemax>125</valuemax>
								<value>35</value>
							</parameter>
							<parameter>
								<parameterid>satwidth</parameterid>
								<name>Sat. Width</name>
								<valuemin>0</valuemin>
								<valuemax>125</valuemax>
								<value>40</value>
							</parameter>
							<parameter>
								<parameterid>satsoft</parameterid>
								<name>Sat. Softness</name>
								<valuemin>0</valuemin>
								<valuemax>125</valuemax>
								<value>20</value>
							</parameter>
							<parameter>
								<parameterid>doluma</parameterid>
								<name>Limit on Luma</name>
								<value>FALSE</value>
							</parameter>
							<parameter>
								<parameterid>lumamin</parameterid>
								<name>Luma Minimum</name>
								<valuemin>0</valuemin>
								<valuemax>120</valuemax>
								<value>0</value>
							</parameter>
							<parameter>
								<parameterid>lumawidth</parameterid>
								<name>Luma Width</name>
								<valuemin>0</valuemin>
								<valuemax>120</valuemax>
								<value>40</value>
							</parameter>
							<parameter>
								<parameterid>lumasoft</parameterid>
								<name>Luma Softness</name>
								<valuemin>0</valuemin>
								<valuemax>120</valuemax>
								<value>20</value>
							</parameter>
							<parameter>
								<parameterid>label6</parameterid>
								<name>Edge Control</name>
								<value/>
							</parameter>
							<parameter>
								<parameterid>edgethin</parameterid>
								<name>Thin/Spread</name>
								<valuemin>-100</valuemin>
								<valuemax>100</valuemax>
								<value>0</value>
							</parameter>
							<parameter>
								<parameterid>edgefeather</parameterid>
								<name>Softening</name>
								<valuemin>0</valuemin>
								<valuemax>100</valuemax>
								<value>0</value>
							</parameter>
							<parameter>
								<parameterid>label7</parameterid>
								<name>Mask Control</name>
								<value/>
							</parameter>
							<parameter>
								<parameterid>invertsel</parameterid>
								<name>Invert</name>
								<value>FALSE</value>
							</parameter>
							<parameter>
								<parameterid>debugshow</parameterid>
								<name>Show Stats</name>
								<value>FALSE</value>
							</parameter>
						</effect>
					</filter>
					<filter>
						<effect>
							<name>Opacity</name>
							<effectid>opacity</effectid>
							<effectcategory>motion</effectcategory>
							<effecttype>motion</effecttype>
							<mediatype>video</mediatype>
							<parameter>
								<parameterid>opacity</parameterid>
								<name>opacity</name>
								<valuemin>0</valuemin>
								<valuemax>100</valuemax>
								<keyframe>
									<when>204</when>
									<value>100</value>
									<outscale>0</outscale>
									<outbez>
										<horiz>2.25</horiz>
										<vert>0</vert>
									</outbez>
								</keyframe>
								<keyframe>
									<when>213</when>
									<value>0</value>
									<inscale>0</inscale>
									<inbez>
										<horiz>2.25</horiz>
										<vert>-3.14159</vert>
									</inbez>
								</keyframe>
								<interpolation>
									<name>FCPCurve</name>
								</interpolation>
								<value>100</value>
							</parameter>
						</effect>
					</filter>
					<sourcetrack>
						<mediatype>video</mediatype>
					</sourcetrack>
					<link>
						<linkclipref>C0008 (1)3</linkclipref>
						<mediatype>video</mediatype>
						<trackindex>2</trackindex>
						<clipindex>13</clipindex>
					</link>
					<fielddominance>upper</fielddominance>
				</clipitem>
				<clipitem id="C0005 8">
					<name>C0005</name>
					<duration>1593</duration>
					<rate>
						<ntsc>FALSE</ntsc>
						<timebase>25</timebase>
					</rate>
					<in>1037</in>
					<out>1072</out>
					<start>3724</start>
					<end>3759</end>
					<pixelaspectratio>Square</pixelaspectratio>
					<enabled>TRUE</enabled>
					<anamorphic>FALSE</anamorphic>
					<alphatype>none</alphatype>
					<masterclipid>C0005 1</masterclipid>
					<logginginfo>
						<scene/>
						<shottake/>
						<lognote/>
						<good>FALSE</good>
					</logginginfo>
					<labels>
						<label2/>
					</labels>
					<comments>
						<mastercomment1/>
						<mastercomment2/>
						<mastercomment3/>
						<mastercomment4/>
					</comments>
					<file id="C0005 2"/>
					<filter>
						<enabled>TRUE</enabled>
						<start>-1</start>
						<end>-1</end>
						<effect>
							<name>Four-Point Garbage Matte</name>
							<effectid>Four-Point Garbage Matte</effectid>
							<effectcategory>Matte</effectcategory>
							<effecttype>filter</effecttype>
							<mediatype>video</mediatype>
							<parameter>
								<parameterid>viewmode</parameterid>
								<name>View Mode</name>
								<valuemin>1</valuemin>
								<valuemax>3</valuemax>
								<valuelist>
									<valueentry>
										<name>Final</name>
										<value>1</value>
									</valueentry>
									<valueentry>
										<name>Preview</name>
										<value>2</value>
									</valueentry>
									<valueentry>
										<name>Wireframe</name>
										<value>3</value>
									</valueentry>
								</valuelist>
								<value>2</value>
							</parameter>
							<parameter>
								<parameterid>junk1</parameterid>
								<name>Corners</name>
								<value>Corners</value>
							</parameter>
							<parameter>
								<parameterid>p0</parameterid>
								<name>Point 1</name>
								<keyframe>
									<when>1037</when>
									<value>
										<horiz>0.175749</horiz>
										<vert>0.486683</vert>
									</value>
								</keyframe>
								<keyframe>
									<when>1038</when>
									<value>
										<horiz>0.171662</horiz>
										<vert>0.484262</vert>
									</value>
								</keyframe>
								<keyframe>
									<when>1043</when>
									<value>
										<horiz>0.202997</horiz>
										<vert>0.360775</vert>
									</value>
								</keyframe>
								<keyframe>
									<when>1045</when>
									<value>
										<horiz>0.215259</horiz>
										<vert>0.290557</vert>
									</value>
								</keyframe>
								<keyframe>
									<when>1047</when>
									<value>
										<horiz>0.223433</horiz>
										<vert>0.27845</vert>
									</value>
								</keyframe>
								<keyframe>
									<when>1051</when>
									<value>
										<horiz>0.257493</horiz>
										<vert>0.290557</vert>
									</value>
								</keyframe>
								<keyframe>
									<when>1052</when>
									<value>
										<horiz>0.264305</horiz>
										<vert>0.307506</vert>
									</value>
								</keyframe>
								<keyframe>
									<when>1053</when>
									<value>
										<horiz>0.264305</horiz>
										<vert>0.322034</vert>
									</value>
								</keyframe>
								<keyframe>
									<when>1055</when>
									<value>
										<horiz>0.23842</horiz>
										<vert>0.312349</vert>
									</value>
								</keyframe>
								<keyframe>
									<when>1056</when>
									<value>
										<horiz>0.22752</horiz>
										<vert>0.283293</vert>
									</value>
								</keyframe>
								<keyframe>
									<when>1058</when>
									<value>
										<horiz>0.231608</horiz>
										<vert>0.234867</vert>
									</value>
								</keyframe>
								<keyframe>
									<when>1060</when>
									<value>
										<horiz>0.222071</horiz>
										<vert>0.22276</vert>
									</value>
								</keyframe>
								<keyframe>
									<when>1062</when>
									<value>
										<horiz>0.213896</horiz>
										<vert>0.230024</vert>
									</value>
								</keyframe>
								<keyframe>
									<when>1064</when>
									<value>
										<horiz>0.20436</horiz>
										<vert>0.254237</vert>
									</value>
								</keyframe>
								<keyframe>
									<when>1066</when>
									<value>
										<horiz>0.205722</horiz>
										<vert>0.27845</vert>
									</value>
								</keyframe>
								<keyframe>
									<when>1068</when>
									<value>
										<horiz>0.202997</horiz>
										<vert>0.2954</vert>
									</value>
								</keyframe>
								<keyframe>
									<when>1070</when>
									<value>
										<horiz>0.200272</horiz>
										<vert>0.324455</vert>
									</value>
								</keyframe>
								<keyframe>
									<when>1072</when>
									<value>
										<horiz>0.190736</horiz>
										<vert>0.326877</vert>
									</value>
								</keyframe>
								<interpolation>
									<name>FCPCurve</name>
								</interpolation>
							</parameter>
							<parameter>
								<parameterid>p1</parameterid>
								<name>Point 2</name>
								<keyframe>
									<when>1037</when>
									<value>
										<horiz>0.185286</horiz>
										<vert>0.486683</vert>
									</value>
								</keyframe>
								<keyframe>
									<when>1038</when>
									<value>
										<horiz>0.194823</horiz>
										<vert>0.460048</vert>
									</value>
								</keyframe>
								<keyframe>
									<when>1039</when>
									<value>
										<horiz>0.202997</horiz>
										<vert>0.433414</vert>
									</value>
								</keyframe>
								<keyframe>
									<when>1043</when>
									<value>
										<horiz>0.226158</horiz>
										<vert>0.35109</vert>
									</value>
								</keyframe>
								<keyframe>
									<when>1045</when>
									<value>
										<horiz>0.237057</horiz>
										<vert>0.2954</vert>
									</value>
								</keyframe>
								<keyframe>
									<when>1047</when>
									<value>
										<horiz>0.241144</horiz>
										<vert>0.27845</vert>
									</value>
								</keyframe>
								<keyframe>
									<when>1051</when>
									<value>
										<horiz>0.280654</horiz>
										<vert>0.292978</vert>
									</value>
								</keyframe>
								<keyframe>
									<when>1052</when>
									<value>
										<horiz>0.286104</horiz>
										<vert>0.2954</vert>
									</value>
								</keyframe>
								<keyframe>
									<when>1053</when>
									<value>
										<horiz>0.287466</horiz>
										<vert>0.317191</vert>
									</value>
								</keyframe>
								<keyframe>
									<when>1055</when>
									<value>
										<horiz>0.262943</horiz>
										<vert>0.297821</vert>
									</value>
								</keyframe>
								<keyframe>
									<when>1056</when>
									<value>
										<horiz>0.249319</horiz>
										<vert>0.268765</vert>
									</value>
								</keyframe>
								<keyframe>
									<when>1058</when>
									<value>
										<horiz>0.241144</horiz>
										<vert>0.225182</vert>
									</value>
								</keyframe>
								<keyframe>
									<when>1060</when>
									<value>
										<horiz>0.241144</horiz>
										<vert>0.213075</vert>
									</value>
								</keyframe>
								<keyframe>
									<when>1062</when>
									<value>
										<horiz>0.234332</horiz>
										<vert>0.215496</vert>
									</value>
								</keyframe>
								<keyframe>
									<when>1064</when>
									<value>
										<horiz>0.23297</horiz>
										<vert>0.230024</vert>
									</value>
								</keyframe>
								<keyframe>
									<when>1066</when>
									<value>
										<horiz>0.220708</horiz>
										<vert>0.25908</vert>
									</value>
								</keyframe>
								<keyframe>
									<when>1068</when>
									<value>
										<horiz>0.219346</horiz>
										<vert>0.273608</vert>
									</value>
								</keyframe>
								<keyframe>
									<when>1070</when>
									<value>
										<horiz>0.215259</horiz>
										<vert>0.292978</vert>
									</value>
								</keyframe>
								<keyframe>
									<when>1072</when>
									<value>
										<horiz>0.208447</horiz>
										<vert>0.312349</vert>
									</value>
								</keyframe>
								<interpolation>
									<name>FCPCurve</name>
								</interpolation>
							</parameter>
							<parameter>
								<parameterid>p2</parameterid>
								<name>Point 3</name>
								<keyframe>
									<when>1038</when>
									<value>
										<horiz>0.20436</horiz>
										<vert>0.503632</vert>
									</value>
								</keyframe>
								<keyframe>
									<when>1043</when>
									<value>
										<horiz>0.269755</horiz>
										<vert>0.498789</vert>
									</value>
								</keyframe>
								<keyframe>
									<when>1045</when>
									<value>
										<horiz>0.305177</horiz>
										<vert>0.501211</vert>
									</value>
								</keyframe>
								<keyframe>
									<when>1051</when>
									<value>
										<horiz>0.320163</horiz>
										<vert>0.493947</vert>
									</value>
								</keyframe>
								<interpolation>
									<name>FCPCurve</name>
								</interpolation>
							</parameter>
							<parameter>
								<parameterid>p3</parameterid>
								<name>Point 4</name>
								<keyframe>
									<when>1038</when>
									<value>
										<horiz>0.163488</horiz>
										<vert>0.506053</vert>
									</value>
								</keyframe>
								<keyframe>
									<when>1043</when>
									<value>
										<horiz>0.207084</horiz>
										<vert>0.496368</vert>
									</value>
								</keyframe>
								<keyframe>
									<when>1045</when>
									<value>
										<horiz>0.192098</horiz>
										<vert>0.503632</vert>
									</value>
								</keyframe>
								<keyframe>
									<when>1051</when>
									<value>
										<horiz>0.253406</horiz>
										<vert>0.496368</vert>
									</value>
								</keyframe>
								<interpolation>
									<name>FCPCurve</name>
								</interpolation>
							</parameter>
							<parameter>
								<parameterid>junk2</parameterid>
								<name>Edges</name>
								<value>Edges</value>
							</parameter>
							<parameter>
								<parameterid>smooth</parameterid>
								<name>Smooth</name>
								<valuemin>0</valuemin>
								<valuemax>100</valuemax>
								<value>0</value>
							</parameter>
							<parameter>
								<parameterid>choke</parameterid>
								<name>Choke</name>
								<valuemin>-100</valuemin>
								<valuemax>100</valuemax>
								<value>0</value>
							</parameter>
							<parameter>
								<parameterid>soft</parameterid>
								<name>Feather</name>
								<valuemin>0</valuemin>
								<valuemax>100</valuemax>
								<keyframe>
									<when>1047</when>
									<value>13</value>
								</keyframe>
								<keyframe>
									<when>1086</when>
									<value>22</value>
								</keyframe>
								<interpolation>
									<name>FCPCurve</name>
								</interpolation>
								<value>13</value>
							</parameter>
							<parameter>
								<parameterid>junk3</parameterid>
								<name>Options</name>
								<value>Options</value>
							</parameter>
							<parameter>
								<parameterid>invertalpha</parameterid>
								<name>Invert</name>
								<value>FALSE</value>
							</parameter>
							<parameter>
								<parameterid>hidelabels</parameterid>
								<name>Hide Labels</name>
								<value>TRUE</value>
							</parameter>
						</effect>
					</filter>
					<filter>
						<effect>
							<name>Basic Motion</name>
							<effectid>basic</effectid>
							<effectcategory>motion</effectcategory>
							<effecttype>motion</effecttype>
							<mediatype>video</mediatype>
							<parameter>
								<parameterid>center</parameterid>
								<name>Center</name>
								<value>
									<horiz>0.0354223</horiz>
									<vert>0.00484262</vert>
								</value>
							</parameter>
						</effect>
					</filter>
					<sourcetrack>
						<mediatype>video</mediatype>
					</sourcetrack>
					<fielddominance>upper</fielddominance>
				</clipitem>
				<clipitem id="525_0271_01 ">
					<name>525_0271_01</name>
					<duration>123</duration>
					<rate>
						<ntsc>FALSE</ntsc>
						<timebase>25</timebase>
					</rate>
					<in>25</in>
					<out>98</out>
					<start>4545</start>
					<end>4618</end>
					<pixelaspectratio>Square</pixelaspectratio>
					<anamorphic>FALSE</anamorphic>
					<alphatype>none</alphatype>
					<logginginfo>
						<scene/>
						<shottake/>
						<lognote/>
						<good>FALSE</good>
					</logginginfo>
					<labels>
						<label2/>
					</labels>
					<comments>
						<mastercomment1/>
						<mastercomment2/>
						<mastercomment3/>
						<mastercomment4/>
					</comments>
					<file id="38_g1 ">
						<name>38_g1.mov</name>
						<pathurl>file://localhost/Volumes/Askepott/Final%20Cut%20Pro%20Documents/Color%20Renderfiles/Lam%20v1/38/38_g1.mov</pathurl>
						<rate>
							<timebase>25</timebase>
						</rate>
						<duration>123</duration>
						<timecode>
							<rate>
								<timebase>25</timebase>
							</rate>
							<string>10:28:25:20</string>
							<frame>942645</frame>
							<displayformat>NDF</displayformat>
							<source>source</source>
							<reel>
								<name>Untitled</name>
							</reel>
						</timecode>
						<media>
							<video>
								<duration>123</duration>
								<samplecharacteristics>
									<width>1920</width>
									<height>1080</height>
								</samplecharacteristics>
							</video>
						</media>
					</file>
					<filter>
						<effect>
							<name>Distort</name>
							<effectid>deformation</effectid>
							<effectcategory>motion</effectcategory>
							<effecttype>motion</effecttype>
							<mediatype>video</mediatype>
							<parameter>
								<parameterid>ulcorner</parameterid>
								<name>Upper Left</name>
								<value>
									<horiz>-0.5</horiz>
									<vert>-0.5</vert>
								</value>
							</parameter>
							<parameter>
								<parameterid>urcorner</parameterid>
								<name>Upper Right</name>
								<value>
									<horiz>0.5</horiz>
									<vert>-0.5</vert>
								</value>
							</parameter>
							<parameter>
								<parameterid>lrcorner</parameterid>
								<name>Lower Right</name>
								<value>
									<horiz>0.5</horiz>
									<vert>0.5</vert>
								</value>
							</parameter>
							<parameter>
								<parameterid>llcorner</parameterid>
								<name>Lower Left</name>
								<value>
									<horiz>-0.5</horiz>
									<vert>0.5</vert>
								</value>
							</parameter>
							<parameter>
								<parameterid>aspect</parameterid>
								<name>Aspect</name>
								<valuemin>-10000</valuemin>
								<valuemax>10000</valuemax>
								<value>0</value>
							</parameter>
						</effect>
					</filter>
					<filter>
						<effect>
							<name>Basic Motion</name>
							<effectid>basic</effectid>
							<effectcategory>motion</effectcategory>
							<effecttype>motion</effecttype>
							<mediatype>video</mediatype>
							<parameter>
								<parameterid>scale</parameterid>
								<name>Scale</name>
								<valuemin>0</valuemin>
								<valuemax>1000</valuemax>
								<value>100</value>
							</parameter>
							<parameter>
								<parameterid>rotation</parameterid>
								<name>Rotation</name>
								<valuemin>-8640</valuemin>
								<valuemax>8640</valuemax>
								<value>0</value>
							</parameter>
							<parameter>
								<parameterid>center</parameterid>
								<name>Center</name>
								<value>
									<horiz>0</horiz>
									<vert>0</vert>
								</value>
							</parameter>
							<parameter>
								<parameterid>centerOffset</parameterid>
								<name>Anchor Point</name>
								<value>
									<horiz>0</horiz>
									<vert>0</vert>
								</value>
							</parameter>
						</effect>
					</filter>
					<sourcetrack>
						<mediatype>video</mediatype>
					</sourcetrack>
					<fielddominance>upper</fielddominance>
				</clipitem>
				<clipitem id="525_0272_01 ">
					<name>525_0272_01</name>
					<duration>113</duration>
					<rate>
						<ntsc>FALSE</ntsc>
						<timebase>25</timebase>
					</rate>
					<in>25</in>
					<out>90</out>
					<start>4618</start>
					<end>4683</end>
					<pixelaspectratio>Square</pixelaspectratio>
					<anamorphic>FALSE</anamorphic>
					<alphatype>none</alphatype>
					<logginginfo>
						<scene/>
						<shottake/>
						<lognote/>
						<good>FALSE</good>
					</logginginfo>
					<labels>
						<label2/>
					</labels>
					<comments>
						<mastercomment1/>
						<mastercomment2/>
						<mastercomment3/>
						<mastercomment4/>
					</comments>
					<file id="39_g1 ">
						<name>39_g1.mov</name>
						<pathurl>file://localhost/Volumes/Askepott/Final%20Cut%20Pro%20Documents/Color%20Renderfiles/Lam%20v1/39/39_g1.mov</pathurl>
						<rate>
							<timebase>25</timebase>
						</rate>
						<duration>113</duration>
						<timecode>
							<rate>
								<timebase>25</timebase>
							</rate>
							<string>10:29:31:15</string>
							<frame>944290</frame>
							<displayformat>NDF</displayformat>
							<source>source</source>
							<reel>
								<name>Untitled</name>
							</reel>
						</timecode>
						<media>
							<video>
								<duration>113</duration>
								<samplecharacteristics>
									<width>1920</width>
									<height>1080</height>
								</samplecharacteristics>
							</video>
						</media>
					</file>
					<filter>
						<effect>
							<name>Distort</name>
							<effectid>deformation</effectid>
							<effectcategory>motion</effectcategory>
							<effecttype>motion</effecttype>
							<mediatype>video</mediatype>
							<parameter>
								<parameterid>ulcorner</parameterid>
								<name>Upper Left</name>
								<value>
									<horiz>-0.5</horiz>
									<vert>-0.5</vert>
								</value>
							</parameter>
							<parameter>
								<parameterid>urcorner</parameterid>
								<name>Upper Right</name>
								<value>
									<horiz>0.5</horiz>
									<vert>-0.5</vert>
								</value>
							</parameter>
							<parameter>
								<parameterid>lrcorner</parameterid>
								<name>Lower Right</name>
								<value>
									<horiz>0.5</horiz>
									<vert>0.5</vert>
								</value>
							</parameter>
							<parameter>
								<parameterid>llcorner</parameterid>
								<name>Lower Left</name>
								<value>
									<horiz>-0.5</horiz>
									<vert>0.5</vert>
								</value>
							</parameter>
							<parameter>
								<parameterid>aspect</parameterid>
								<name>Aspect</name>
								<valuemin>-10000</valuemin>
								<valuemax>10000</valuemax>
								<value>0</value>
							</parameter>
						</effect>
					</filter>
					<filter>
						<effect>
							<name>Basic Motion</name>
							<effectid>basic</effectid>
							<effectcategory>motion</effectcategory>
							<effecttype>motion</effecttype>
							<mediatype>video</mediatype>
							<parameter>
								<parameterid>scale</parameterid>
								<name>Scale</name>
								<valuemin>0</valuemin>
								<valuemax>1000</valuemax>
								<value>100</value>
							</parameter>
							<parameter>
								<parameterid>rotation</parameterid>
								<name>Rotation</name>
								<valuemin>-8640</valuemin>
								<valuemax>8640</valuemax>
								<value>0</value>
							</parameter>
							<parameter>
								<parameterid>center</parameterid>
								<name>Center</name>
								<value>
									<horiz>0</horiz>
									<vert>0</vert>
								</value>
							</parameter>
							<parameter>
								<parameterid>centerOffset</parameterid>
								<name>Anchor Point</name>
								<value>
									<horiz>0</horiz>
									<vert>0</vert>
								</value>
							</parameter>
						</effect>
					</filter>
					<sourcetrack>
						<mediatype>video</mediatype>
					</sourcetrack>
					<fielddominance>upper</fielddominance>
				</clipitem>
				<clipitem id="525_0277_01 ">
					<name>525_0277_01</name>
					<duration>206</duration>
					<rate>
						<ntsc>FALSE</ntsc>
						<timebase>25</timebase>
					</rate>
					<in>25</in>
					<out>181</out>
					<start>4729</start>
					<end>4885</end>
					<pixelaspectratio>Square</pixelaspectratio>
					<anamorphic>FALSE</anamorphic>
					<alphatype>none</alphatype>
					<logginginfo>
						<scene/>
						<shottake/>
						<lognote/>
						<good>FALSE</good>
					</logginginfo>
					<labels>
						<label2/>
					</labels>
					<comments>
						<mastercomment1/>
						<mastercomment2/>
						<mastercomment3/>
						<mastercomment4/>
					</comments>
					<file id="40_g1 ">
						<name>40_g1.mov</name>
						<pathurl>file://localhost/Volumes/Askepott/Final%20Cut%20Pro%20Documents/Color%20Renderfiles/Lam%20v1/40/40_g1.mov</pathurl>
						<rate>
							<timebase>25</timebase>
						</rate>
						<duration>206</duration>
						<timecode>
							<rate>
								<timebase>25</timebase>
							</rate>
							<string>10:31:31:20</string>
							<frame>947295</frame>
							<displayformat>NDF</displayformat>
							<source>source</source>
							<reel>
								<name>Untitled</name>
							</reel>
						</timecode>
						<media>
							<video>
								<duration>206</duration>
								<samplecharacteristics>
									<width>1920</width>
									<height>1080</height>
								</samplecharacteristics>
							</video>
						</media>
					</file>
					<filter>
						<effect>
							<name>Distort</name>
							<effectid>deformation</effectid>
							<effectcategory>motion</effectcategory>
							<effecttype>motion</effecttype>
							<mediatype>video</mediatype>
							<parameter>
								<parameterid>ulcorner</parameterid>
								<name>Upper Left</name>
								<value>
									<horiz>-0.5</horiz>
									<vert>-0.5</vert>
								</value>
							</parameter>
							<parameter>
								<parameterid>urcorner</parameterid>
								<name>Upper Right</name>
								<value>
									<horiz>0.5</horiz>
									<vert>-0.5</vert>
								</value>
							</parameter>
							<parameter>
								<parameterid>lrcorner</parameterid>
								<name>Lower Right</name>
								<value>
									<horiz>0.5</horiz>
									<vert>0.5</vert>
								</value>
							</parameter>
							<parameter>
								<parameterid>llcorner</parameterid>
								<name>Lower Left</name>
								<value>
									<horiz>-0.5</horiz>
									<vert>0.5</vert>
								</value>
							</parameter>
							<parameter>
								<parameterid>aspect</parameterid>
								<name>Aspect</name>
								<valuemin>-10000</valuemin>
								<valuemax>10000</valuemax>
								<value>0</value>
							</parameter>
						</effect>
					</filter>
					<filter>
						<effect>
							<name>Basic Motion</name>
							<effectid>basic</effectid>
							<effectcategory>motion</effectcategory>
							<effecttype>motion</effecttype>
							<mediatype>video</mediatype>
							<parameter>
								<parameterid>scale</parameterid>
								<name>Scale</name>
								<valuemin>0</valuemin>
								<valuemax>1000</valuemax>
								<value>100</value>
							</parameter>
							<parameter>
								<parameterid>rotation</parameterid>
								<name>Rotation</name>
								<valuemin>-8640</valuemin>
								<valuemax>8640</valuemax>
								<value>0</value>
							</parameter>
							<parameter>
								<parameterid>center</parameterid>
								<name>Center</name>
								<value>
									<horiz>0</horiz>
									<vert>0</vert>
								</value>
							</parameter>
							<parameter>
								<parameterid>centerOffset</parameterid>
								<name>Anchor Point</name>
								<value>
									<horiz>0</horiz>
									<vert>0</vert>
								</value>
							</parameter>
						</effect>
					</filter>
					<sourcetrack>
						<mediatype>video</mediatype>
					</sourcetrack>
					<fielddominance>upper</fielddominance>
				</clipitem>
				<clipitem id="525_0297_01 12">
					<name>525_0297_01</name>
					<duration>125</duration>
					<rate>
						<ntsc>FALSE</ntsc>
						<timebase>25</timebase>
					</rate>
					<in>25</in>
					<out>100</out>
					<start>4885</start>
					<end>4960</end>
					<pixelaspectratio>Square</pixelaspectratio>
					<anamorphic>FALSE</anamorphic>
					<alphatype>none</alphatype>
					<logginginfo>
						<scene/>
						<shottake/>
						<lognote/>
						<good>FALSE</good>
					</logginginfo>
					<labels>
						<label2/>
					</labels>
					<comments>
						<mastercomment1/>
						<mastercomment2/>
						<mastercomment3/>
						<mastercomment4/>
					</comments>
					<file id="41_g1 ">
						<name>41_g1.mov</name>
						<pathurl>file://localhost/Volumes/Askepott/Final%20Cut%20Pro%20Documents/Color%20Renderfiles/Lam%20v1/41/41_g1.mov</pathurl>
						<rate>
							<timebase>25</timebase>
						</rate>
						<duration>125</duration>
						<timecode>
							<rate>
								<timebase>25</timebase>
							</rate>
							<string>11:06:03:05</string>
							<frame>999080</frame>
							<displayformat>NDF</displayformat>
							<source>source</source>
							<reel>
								<name>Untitled</name>
							</reel>
						</timecode>
						<media>
							<video>
								<duration>125</duration>
								<samplecharacteristics>
									<width>1920</width>
									<height>1080</height>
								</samplecharacteristics>
							</video>
						</media>
					</file>
					<filter>
						<effect>
							<name>Distort</name>
							<effectid>deformation</effectid>
							<effectcategory>motion</effectcategory>
							<effecttype>motion</effecttype>
							<mediatype>video</mediatype>
							<parameter>
								<parameterid>ulcorner</parameterid>
								<name>Upper Left</name>
								<value>
									<horiz>-0.5</horiz>
									<vert>-0.5</vert>
								</value>
							</parameter>
							<parameter>
								<parameterid>urcorner</parameterid>
								<name>Upper Right</name>
								<value>
									<horiz>0.5</horiz>
									<vert>-0.5</vert>
								</value>
							</parameter>
							<parameter>
								<parameterid>lrcorner</parameterid>
								<name>Lower Right</name>
								<value>
									<horiz>0.5</horiz>
									<vert>0.5</vert>
								</value>
							</parameter>
							<parameter>
								<parameterid>llcorner</parameterid>
								<name>Lower Left</name>
								<value>
									<horiz>-0.5</horiz>
									<vert>0.5</vert>
								</value>
							</parameter>
							<parameter>
								<parameterid>aspect</parameterid>
								<name>Aspect</name>
								<valuemin>-10000</valuemin>
								<valuemax>10000</valuemax>
								<value>0</value>
							</parameter>
						</effect>
					</filter>
					<filter>
						<effect>
							<name>Basic Motion</name>
							<effectid>basic</effectid>
							<effectcategory>motion</effectcategory>
							<effecttype>motion</effecttype>
							<mediatype>video</mediatype>
							<parameter>
								<parameterid>scale</parameterid>
								<name>Scale</name>
								<valuemin>0</valuemin>
								<valuemax>1000</valuemax>
								<value>100</value>
							</parameter>
							<parameter>
								<parameterid>rotation</parameterid>
								<name>Rotation</name>
								<valuemin>-8640</valuemin>
								<valuemax>8640</valuemax>
								<value>0</value>
							</parameter>
							<parameter>
								<parameterid>center</parameterid>
								<name>Center</name>
								<value>
									<horiz>0</horiz>
									<vert>0</vert>
								</value>
							</parameter>
							<parameter>
								<parameterid>centerOffset</parameterid>
								<name>Anchor Point</name>
								<value>
									<horiz>0</horiz>
									<vert>0</vert>
								</value>
							</parameter>
						</effect>
					</filter>
					<sourcetrack>
						<mediatype>video</mediatype>
					</sourcetrack>
					<fielddominance>upper</fielddominance>
				</clipitem>
				<clipitem id="525_0297_01 13">
					<name>525_0297_01</name>
					<duration>237</duration>
					<rate>
						<ntsc>FALSE</ntsc>
						<timebase>25</timebase>
					</rate>
					<in>25</in>
					<out>212</out>
					<start>4960</start>
					<end>5147</end>
					<pixelaspectratio>Square</pixelaspectratio>
					<anamorphic>FALSE</anamorphic>
					<alphatype>none</alphatype>
					<logginginfo>
						<scene/>
						<shottake/>
						<lognote/>
						<good>FALSE</good>
					</logginginfo>
					<labels>
						<label2/>
					</labels>
					<comments>
						<mastercomment1/>
						<mastercomment2/>
						<mastercomment3/>
						<mastercomment4/>
					</comments>
					<file id="42_g1 ">
						<name>42_g1.mov</name>
						<pathurl>file://localhost/Volumes/Askepott/Final%20Cut%20Pro%20Documents/Color%20Renderfiles/Lam%20v1/42/42_g1.mov</pathurl>
						<rate>
							<timebase>25</timebase>
						</rate>
						<duration>237</duration>
						<timecode>
							<rate>
								<timebase>25</timebase>
							</rate>
							<string>11:06:10:00</string>
							<frame>999250</frame>
							<displayformat>NDF</displayformat>
							<source>source</source>
							<reel>
								<name>Untitled</name>
							</reel>
						</timecode>
						<media>
							<video>
								<duration>237</duration>
								<samplecharacteristics>
									<width>1920</width>
									<height>1080</height>
								</samplecharacteristics>
							</video>
						</media>
					</file>
					<filter>
						<effect>
							<name>Distort</name>
							<effectid>deformation</effectid>
							<effectcategory>motion</effectcategory>
							<effecttype>motion</effecttype>
							<mediatype>video</mediatype>
							<parameter>
								<parameterid>ulcorner</parameterid>
								<name>Upper Left</name>
								<value>
									<horiz>-0.5</horiz>
									<vert>-0.5</vert>
								</value>
							</parameter>
							<parameter>
								<parameterid>urcorner</parameterid>
								<name>Upper Right</name>
								<value>
									<horiz>0.5</horiz>
									<vert>-0.5</vert>
								</value>
							</parameter>
							<parameter>
								<parameterid>lrcorner</parameterid>
								<name>Lower Right</name>
								<value>
									<horiz>0.5</horiz>
									<vert>0.5</vert>
								</value>
							</parameter>
							<parameter>
								<parameterid>llcorner</parameterid>
								<name>Lower Left</name>
								<value>
									<horiz>-0.5</horiz>
									<vert>0.5</vert>
								</value>
							</parameter>
							<parameter>
								<parameterid>aspect</parameterid>
								<name>Aspect</name>
								<valuemin>-10000</valuemin>
								<valuemax>10000</valuemax>
								<value>0</value>
							</parameter>
						</effect>
					</filter>
					<filter>
						<effect>
							<name>Basic Motion</name>
							<effectid>basic</effectid>
							<effectcategory>motion</effectcategory>
							<effecttype>motion</effecttype>
							<mediatype>video</mediatype>
							<parameter>
								<parameterid>scale</parameterid>
								<name>Scale</name>
								<valuemin>0</valuemin>
								<valuemax>1000</valuemax>
								<value>100</value>
							</parameter>
							<parameter>
								<parameterid>rotation</parameterid>
								<name>Rotation</name>
								<valuemin>-8640</valuemin>
								<valuemax>8640</valuemax>
								<value>0</value>
							</parameter>
							<parameter>
								<parameterid>center</parameterid>
								<name>Center</name>
								<value>
									<horiz>0</horiz>
									<vert>0</vert>
								</value>
							</parameter>
							<parameter>
								<parameterid>centerOffset</parameterid>
								<name>Anchor Point</name>
								<value>
									<horiz>0</horiz>
									<vert>0</vert>
								</value>
							</parameter>
						</effect>
					</filter>
					<sourcetrack>
						<mediatype>video</mediatype>
					</sourcetrack>
					<fielddominance>upper</fielddominance>
				</clipitem>
				<clipitem id="525_0298_01 16">
					<name>525_0298_01</name>
					<duration>51</duration>
					<rate>
						<ntsc>FALSE</ntsc>
						<timebase>25</timebase>
					</rate>
					<in>25</in>
					<out>26</out>
					<start>5268</start>
					<end>5269</end>
					<pixelaspectratio>Square</pixelaspectratio>
					<anamorphic>FALSE</anamorphic>
					<alphatype>none</alphatype>
					<logginginfo>
						<scene/>
						<shottake/>
						<lognote/>
						<good>FALSE</good>
					</logginginfo>
					<labels>
						<label2/>
					</labels>
					<comments>
						<mastercomment1/>
						<mastercomment2/>
						<mastercomment3/>
						<mastercomment4/>
					</comments>
					<file id="43_g1 ">
						<name>43_g1.mov</name>
						<pathurl>file://localhost/Volumes/Askepott/Final%20Cut%20Pro%20Documents/Color%20Renderfiles/Lam%20v1/43/43_g1.mov</pathurl>
						<rate>
							<timebase>25</timebase>
						</rate>
						<duration>51</duration>
						<timecode>
							<rate>
								<timebase>25</timebase>
							</rate>
							<string>11:09:32:22</string>
							<frame>1004322</frame>
							<displayformat>NDF</displayformat>
							<source>source</source>
							<reel>
								<name>Untitled</name>
							</reel>
						</timecode>
						<media>
							<video>
								<duration>51</duration>
								<samplecharacteristics>
									<width>1920</width>
									<height>1080</height>
								</samplecharacteristics>
							</video>
						</media>
					</file>
					<filter>
						<effect>
							<name>Distort</name>
							<effectid>deformation</effectid>
							<effectcategory>motion</effectcategory>
							<effecttype>motion</effecttype>
							<mediatype>video</mediatype>
							<parameter>
								<parameterid>ulcorner</parameterid>
								<name>Upper Left</name>
								<value>
									<horiz>-0.5</horiz>
									<vert>-0.5</vert>
								</value>
							</parameter>
							<parameter>
								<parameterid>urcorner</parameterid>
								<name>Upper Right</name>
								<value>
									<horiz>0.5</horiz>
									<vert>-0.5</vert>
								</value>
							</parameter>
							<parameter>
								<parameterid>lrcorner</parameterid>
								<name>Lower Right</name>
								<value>
									<horiz>0.5</horiz>
									<vert>0.5</vert>
								</value>
							</parameter>
							<parameter>
								<parameterid>llcorner</parameterid>
								<name>Lower Left</name>
								<value>
									<horiz>-0.5</horiz>
									<vert>0.5</vert>
								</value>
							</parameter>
							<parameter>
								<parameterid>aspect</parameterid>
								<name>Aspect</name>
								<valuemin>-10000</valuemin>
								<valuemax>10000</valuemax>
								<value>0</value>
							</parameter>
						</effect>
					</filter>
					<filter>
						<effect>
							<name>Basic Motion</name>
							<effectid>basic</effectid>
							<effectcategory>motion</effectcategory>
							<effecttype>motion</effecttype>
							<mediatype>video</mediatype>
							<parameter>
								<parameterid>scale</parameterid>
								<name>Scale</name>
								<valuemin>0</valuemin>
								<valuemax>1000</valuemax>
								<value>100</value>
							</parameter>
							<parameter>
								<parameterid>rotation</parameterid>
								<name>Rotation</name>
								<valuemin>-8640</valuemin>
								<valuemax>8640</valuemax>
								<value>0</value>
							</parameter>
							<parameter>
								<parameterid>center</parameterid>
								<name>Center</name>
								<value>
									<horiz>0</horiz>
									<vert>0</vert>
								</value>
							</parameter>
							<parameter>
								<parameterid>centerOffset</parameterid>
								<name>Anchor Point</name>
								<value>
									<horiz>0</horiz>
									<vert>0</vert>
								</value>
							</parameter>
						</effect>
					</filter>
					<sourcetrack>
						<mediatype>video</mediatype>
					</sourcetrack>
					<fielddominance>upper</fielddominance>
				</clipitem>
				<clipitem id="525_0298_01 17">
					<name>525_0298_01</name>
					<duration>97</duration>
					<rate>
						<ntsc>FALSE</ntsc>
						<timebase>25</timebase>
					</rate>
					<in>25</in>
					<out>72</out>
					<start>5269</start>
					<end>5316</end>
					<pixelaspectratio>Square</pixelaspectratio>
					<anamorphic>FALSE</anamorphic>
					<alphatype>none</alphatype>
					<logginginfo>
						<scene/>
						<shottake/>
						<lognote/>
						<good>FALSE</good>
					</logginginfo>
					<labels>
						<label2/>
					</labels>
					<comments>
						<mastercomment1/>
						<mastercomment2/>
						<mastercomment3/>
						<mastercomment4/>
					</comments>
					<file id="44_g1 ">
						<name>44_g1.mov</name>
						<pathurl>file://localhost/Volumes/Askepott/Final%20Cut%20Pro%20Documents/Color%20Renderfiles/Lam%20v1/44/44_g1.mov</pathurl>
						<rate>
							<timebase>25</timebase>
						</rate>
						<duration>97</duration>
						<timecode>
							<rate>
								<timebase>25</timebase>
							</rate>
							<string>11:09:34:20</string>
							<frame>1004370</frame>
							<displayformat>NDF</displayformat>
							<source>source</source>
							<reel>
								<name>Untitled</name>
							</reel>
						</timecode>
						<media>
							<video>
								<duration>97</duration>
								<samplecharacteristics>
									<width>1920</width>
									<height>1080</height>
								</samplecharacteristics>
							</video>
						</media>
					</file>
					<filter>
						<effect>
							<name>Distort</name>
							<effectid>deformation</effectid>
							<effectcategory>motion</effectcategory>
							<effecttype>motion</effecttype>
							<mediatype>video</mediatype>
							<parameter>
								<parameterid>ulcorner</parameterid>
								<name>Upper Left</name>
								<value>
									<horiz>-0.5</horiz>
									<vert>-0.5</vert>
								</value>
							</parameter>
							<parameter>
								<parameterid>urcorner</parameterid>
								<name>Upper Right</name>
								<value>
									<horiz>0.5</horiz>
									<vert>-0.5</vert>
								</value>
							</parameter>
							<parameter>
								<parameterid>lrcorner</parameterid>
								<name>Lower Right</name>
								<value>
									<horiz>0.5</horiz>
									<vert>0.5</vert>
								</value>
							</parameter>
							<parameter>
								<parameterid>llcorner</parameterid>
								<name>Lower Left</name>
								<value>
									<horiz>-0.5</horiz>
									<vert>0.5</vert>
								</value>
							</parameter>
							<parameter>
								<parameterid>aspect</parameterid>
								<name>Aspect</name>
								<valuemin>-10000</valuemin>
								<valuemax>10000</valuemax>
								<value>0</value>
							</parameter>
						</effect>
					</filter>
					<filter>
						<effect>
							<name>Basic Motion</name>
							<effectid>basic</effectid>
							<effectcategory>motion</effectcategory>
							<effecttype>motion</effecttype>
							<mediatype>video</mediatype>
							<parameter>
								<parameterid>scale</parameterid>
								<name>Scale</name>
								<valuemin>0</valuemin>
								<valuemax>1000</valuemax>
								<value>100</value>
							</parameter>
							<parameter>
								<parameterid>rotation</parameterid>
								<name>Rotation</name>
								<valuemin>-8640</valuemin>
								<valuemax>8640</valuemax>
								<value>0</value>
							</parameter>
							<parameter>
								<parameterid>center</parameterid>
								<name>Center</name>
								<value>
									<horiz>0</horiz>
									<vert>0</vert>
								</value>
							</parameter>
							<parameter>
								<parameterid>centerOffset</parameterid>
								<name>Anchor Point</name>
								<value>
									<horiz>0</horiz>
									<vert>0</vert>
								</value>
							</parameter>
						</effect>
					</filter>
					<sourcetrack>
						<mediatype>video</mediatype>
					</sourcetrack>
					<fielddominance>upper</fielddominance>
				</clipitem>
				<clipitem id="525_0301_01 ">
					<name>525_0301_01</name>
					<duration>150</duration>
					<rate>
						<ntsc>FALSE</ntsc>
						<timebase>25</timebase>
					</rate>
					<in>25</in>
					<out>125</out>
					<start>5469</start>
					<end>5569</end>
					<pixelaspectratio>Square</pixelaspectratio>
					<anamorphic>FALSE</anamorphic>
					<alphatype>none</alphatype>
					<logginginfo>
						<scene/>
						<shottake/>
						<lognote/>
						<good>FALSE</good>
					</logginginfo>
					<labels>
						<label2/>
					</labels>
					<comments>
						<mastercomment1/>
						<mastercomment2/>
						<mastercomment3/>
						<mastercomment4/>
					</comments>
					<file id="45_g1 ">
						<name>45_g1.mov</name>
						<pathurl>file://localhost/Volumes/Askepott/Final%20Cut%20Pro%20Documents/Color%20Renderfiles/Lam%20v1/45/45_g1.mov</pathurl>
						<rate>
							<timebase>25</timebase>
						</rate>
						<duration>150</duration>
						<timecode>
							<rate>
								<timebase>25</timebase>
							</rate>
							<string>11:21:19:24</string>
							<frame>1021999</frame>
							<displayformat>NDF</displayformat>
							<source>source</source>
							<reel>
								<name>Untitled</name>
							</reel>
						</timecode>
						<media>
							<video>
								<duration>150</duration>
								<samplecharacteristics>
									<width>1920</width>
									<height>1080</height>
								</samplecharacteristics>
							</video>
						</media>
					</file>
					<filter>
						<effect>
							<name>Distort</name>
							<effectid>deformation</effectid>
							<effectcategory>motion</effectcategory>
							<effecttype>motion</effecttype>
							<mediatype>video</mediatype>
							<parameter>
								<parameterid>ulcorner</parameterid>
								<name>Upper Left</name>
								<value>
									<horiz>-0.5</horiz>
									<vert>-0.5</vert>
								</value>
							</parameter>
							<parameter>
								<parameterid>urcorner</parameterid>
								<name>Upper Right</name>
								<value>
									<horiz>0.5</horiz>
									<vert>-0.5</vert>
								</value>
							</parameter>
							<parameter>
								<parameterid>lrcorner</parameterid>
								<name>Lower Right</name>
								<value>
									<horiz>0.5</horiz>
									<vert>0.5</vert>
								</value>
							</parameter>
							<parameter>
								<parameterid>llcorner</parameterid>
								<name>Lower Left</name>
								<value>
									<horiz>-0.5</horiz>
									<vert>0.5</vert>
								</value>
							</parameter>
							<parameter>
								<parameterid>aspect</parameterid>
								<name>Aspect</name>
								<valuemin>-10000</valuemin>
								<valuemax>10000</valuemax>
								<value>0</value>
							</parameter>
						</effect>
					</filter>
					<filter>
						<effect>
							<name>Basic Motion</name>
							<effectid>basic</effectid>
							<effectcategory>motion</effectcategory>
							<effecttype>motion</effecttype>
							<mediatype>video</mediatype>
							<parameter>
								<parameterid>scale</parameterid>
								<name>Scale</name>
								<valuemin>0</valuemin>
								<valuemax>1000</valuemax>
								<value>100</value>
							</parameter>
							<parameter>
								<parameterid>rotation</parameterid>
								<name>Rotation</name>
								<valuemin>-8640</valuemin>
								<valuemax>8640</valuemax>
								<value>0</value>
							</parameter>
							<parameter>
								<parameterid>center</parameterid>
								<name>Center</name>
								<value>
									<horiz>0</horiz>
									<vert>0</vert>
								</value>
							</parameter>
							<parameter>
								<parameterid>centerOffset</parameterid>
								<name>Anchor Point</name>
								<value>
									<horiz>0</horiz>
									<vert>0</vert>
								</value>
							</parameter>
						</effect>
					</filter>
					<sourcetrack>
						<mediatype>video</mediatype>
					</sourcetrack>
					<fielddominance>upper</fielddominance>
				</clipitem>
				<clipitem id="525_0301_01 1">
					<name>525_0301_01</name>
					<duration>136</duration>
					<rate>
						<ntsc>FALSE</ntsc>
						<timebase>25</timebase>
					</rate>
					<in>25</in>
					<out>111</out>
					<start>5569</start>
					<end>5655</end>
					<pixelaspectratio>Square</pixelaspectratio>
					<anamorphic>FALSE</anamorphic>
					<alphatype>none</alphatype>
					<logginginfo>
						<scene/>
						<shottake/>
						<lognote/>
						<good>FALSE</good>
					</logginginfo>
					<labels>
						<label2/>
					</labels>
					<comments>
						<mastercomment1/>
						<mastercomment2/>
						<mastercomment3/>
						<mastercomment4/>
					</comments>
					<file id="46_g1 ">
						<name>46_g1.mov</name>
						<pathurl>file://localhost/Volumes/Askepott/Final%20Cut%20Pro%20Documents/Color%20Renderfiles/Lam%20v1/46/46_g1.mov</pathurl>
						<rate>
							<timebase>25</timebase>
						</rate>
						<duration>136</duration>
						<timecode>
							<rate>
								<timebase>25</timebase>
							</rate>
							<string>11:22:52:08</string>
							<frame>1024308</frame>
							<displayformat>NDF</displayformat>
							<source>source</source>
							<reel>
								<name>Untitled</name>
							</reel>
						</timecode>
						<media>
							<video>
								<duration>136</duration>
								<samplecharacteristics>
									<width>1920</width>
									<height>1080</height>
								</samplecharacteristics>
							</video>
						</media>
					</file>
					<filter>
						<effect>
							<name>Distort</name>
							<effectid>deformation</effectid>
							<effectcategory>motion</effectcategory>
							<effecttype>motion</effecttype>
							<mediatype>video</mediatype>
							<parameter>
								<parameterid>ulcorner</parameterid>
								<name>Upper Left</name>
								<value>
									<horiz>-0.5</horiz>
									<vert>-0.5</vert>
								</value>
							</parameter>
							<parameter>
								<parameterid>urcorner</parameterid>
								<name>Upper Right</name>
								<value>
									<horiz>0.5</horiz>
									<vert>-0.5</vert>
								</value>
							</parameter>
							<parameter>
								<parameterid>lrcorner</parameterid>
								<name>Lower Right</name>
								<value>
									<horiz>0.5</horiz>
									<vert>0.5</vert>
								</value>
							</parameter>
							<parameter>
								<parameterid>llcorner</parameterid>
								<name>Lower Left</name>
								<value>
									<horiz>-0.5</horiz>
									<vert>0.5</vert>
								</value>
							</parameter>
							<parameter>
								<parameterid>aspect</parameterid>
								<name>Aspect</name>
								<valuemin>-10000</valuemin>
								<valuemax>10000</valuemax>
								<value>0</value>
							</parameter>
						</effect>
					</filter>
					<filter>
						<effect>
							<name>Basic Motion</name>
							<effectid>basic</effectid>
							<effectcategory>motion</effectcategory>
							<effecttype>motion</effecttype>
							<mediatype>video</mediatype>
							<parameter>
								<parameterid>scale</parameterid>
								<name>Scale</name>
								<valuemin>0</valuemin>
								<valuemax>1000</valuemax>
								<value>100</value>
							</parameter>
							<parameter>
								<parameterid>rotation</parameterid>
								<name>Rotation</name>
								<valuemin>-8640</valuemin>
								<valuemax>8640</valuemax>
								<value>0</value>
							</parameter>
							<parameter>
								<parameterid>center</parameterid>
								<name>Center</name>
								<value>
									<horiz>0</horiz>
									<vert>0</vert>
								</value>
							</parameter>
							<parameter>
								<parameterid>centerOffset</parameterid>
								<name>Anchor Point</name>
								<value>
									<horiz>0</horiz>
									<vert>0</vert>
								</value>
							</parameter>
						</effect>
					</filter>
					<sourcetrack>
						<mediatype>video</mediatype>
					</sourcetrack>
					<fielddominance>upper</fielddominance>
				</clipitem>
				<clipitem id="525_0306_01 ">
					<name>525_0306_01</name>
					<duration>160</duration>
					<rate>
						<ntsc>FALSE</ntsc>
						<timebase>25</timebase>
					</rate>
					<in>25</in>
					<out>135</out>
					<start>5720</start>
					<end>5830</end>
					<pixelaspectratio>Square</pixelaspectratio>
					<anamorphic>FALSE</anamorphic>
					<alphatype>none</alphatype>
					<logginginfo>
						<scene/>
						<shottake/>
						<lognote/>
						<good>FALSE</good>
					</logginginfo>
					<labels>
						<label2/>
					</labels>
					<comments>
						<mastercomment1/>
						<mastercomment2/>
						<mastercomment3/>
						<mastercomment4/>
					</comments>
					<file id="47_g1 ">
						<name>47_g1.mov</name>
						<pathurl>file://localhost/Volumes/Askepott/Final%20Cut%20Pro%20Documents/Color%20Renderfiles/Lam%20v1/47/47_g1.mov</pathurl>
						<rate>
							<timebase>25</timebase>
						</rate>
						<duration>160</duration>
						<timecode>
							<rate>
								<timebase>25</timebase>
							</rate>
							<string>11:29:29:23</string>
							<frame>1034248</frame>
							<displayformat>NDF</displayformat>
							<source>source</source>
							<reel>
								<name>Untitled</name>
							</reel>
						</timecode>
						<media>
							<video>
								<duration>160</duration>
								<samplecharacteristics>
									<width>1920</width>
									<height>1080</height>
								</samplecharacteristics>
							</video>
						</media>
					</file>
					<filter>
						<effect>
							<name>Distort</name>
							<effectid>deformation</effectid>
							<effectcategory>motion</effectcategory>
							<effecttype>motion</effecttype>
							<mediatype>video</mediatype>
							<parameter>
								<parameterid>ulcorner</parameterid>
								<name>Upper Left</name>
								<value>
									<horiz>-0.5</horiz>
									<vert>-0.5</vert>
								</value>
							</parameter>
							<parameter>
								<parameterid>urcorner</parameterid>
								<name>Upper Right</name>
								<value>
									<horiz>0.5</horiz>
									<vert>-0.5</vert>
								</value>
							</parameter>
							<parameter>
								<parameterid>lrcorner</parameterid>
								<name>Lower Right</name>
								<value>
									<horiz>0.5</horiz>
									<vert>0.5</vert>
								</value>
							</parameter>
							<parameter>
								<parameterid>llcorner</parameterid>
								<name>Lower Left</name>
								<value>
									<horiz>-0.5</horiz>
									<vert>0.5</vert>
								</value>
							</parameter>
							<parameter>
								<parameterid>aspect</parameterid>
								<name>Aspect</name>
								<valuemin>-10000</valuemin>
								<valuemax>10000</valuemax>
								<value>0</value>
							</parameter>
						</effect>
					</filter>
					<filter>
						<effect>
							<name>Basic Motion</name>
							<effectid>basic</effectid>
							<effectcategory>motion</effectcategory>
							<effecttype>motion</effecttype>
							<mediatype>video</mediatype>
							<parameter>
								<parameterid>scale</parameterid>
								<name>Scale</name>
								<valuemin>0</valuemin>
								<valuemax>1000</valuemax>
								<value>100</value>
							</parameter>
							<parameter>
								<parameterid>rotation</parameterid>
								<name>Rotation</name>
								<valuemin>-8640</valuemin>
								<valuemax>8640</valuemax>
								<value>0</value>
							</parameter>
							<parameter>
								<parameterid>center</parameterid>
								<name>Center</name>
								<value>
									<horiz>0</horiz>
									<vert>0</vert>
								</value>
							</parameter>
							<parameter>
								<parameterid>centerOffset</parameterid>
								<name>Anchor Point</name>
								<value>
									<horiz>0</horiz>
									<vert>0</vert>
								</value>
							</parameter>
						</effect>
					</filter>
					<sourcetrack>
						<mediatype>video</mediatype>
					</sourcetrack>
					<fielddominance>upper</fielddominance>
				</clipitem>
				<clipitem id="525_0305_01 3">
					<name>525_0305_01</name>
					<duration>568</duration>
					<rate>
						<ntsc>FALSE</ntsc>
						<timebase>25</timebase>
					</rate>
					<in>25</in>
					<out>543</out>
					<start>5830</start>
					<end>6348</end>
					<pixelaspectratio>Square</pixelaspectratio>
					<anamorphic>FALSE</anamorphic>
					<alphatype>none</alphatype>
					<logginginfo>
						<scene/>
						<shottake/>
						<lognote/>
						<good>FALSE</good>
					</logginginfo>
					<labels>
						<label2/>
					</labels>
					<comments>
						<mastercomment1/>
						<mastercomment2/>
						<mastercomment3/>
						<mastercomment4/>
					</comments>
					<file id="48_g1 ">
						<name>48_g1.mov</name>
						<pathurl>file://localhost/Volumes/Askepott/Final%20Cut%20Pro%20Documents/Color%20Renderfiles/Lam%20v1/48/48_g1.mov</pathurl>
						<rate>
							<timebase>25</timebase>
						</rate>
						<duration>568</duration>
						<timecode>
							<rate>
								<timebase>25</timebase>
							</rate>
							<string>11:27:14:20</string>
							<frame>1030870</frame>
							<displayformat>NDF</displayformat>
							<source>source</source>
							<reel>
								<name>Untitled</name>
							</reel>
						</timecode>
						<media>
							<video>
								<duration>568</duration>
								<samplecharacteristics>
									<width>1920</width>
									<height>1080</height>
								</samplecharacteristics>
							</video>
						</media>
					</file>
					<filter>
						<effect>
							<name>Distort</name>
							<effectid>deformation</effectid>
							<effectcategory>motion</effectcategory>
							<effecttype>motion</effecttype>
							<mediatype>video</mediatype>
							<parameter>
								<parameterid>ulcorner</parameterid>
								<name>Upper Left</name>
								<value>
									<horiz>-0.5</horiz>
									<vert>-0.5</vert>
								</value>
							</parameter>
							<parameter>
								<parameterid>urcorner</parameterid>
								<name>Upper Right</name>
								<value>
									<horiz>0.5</horiz>
									<vert>-0.5</vert>
								</value>
							</parameter>
							<parameter>
								<parameterid>lrcorner</parameterid>
								<name>Lower Right</name>
								<value>
									<horiz>0.5</horiz>
									<vert>0.5</vert>
								</value>
							</parameter>
							<parameter>
								<parameterid>llcorner</parameterid>
								<name>Lower Left</name>
								<value>
									<horiz>-0.5</horiz>
									<vert>0.5</vert>
								</value>
							</parameter>
							<parameter>
								<parameterid>aspect</parameterid>
								<name>Aspect</name>
								<valuemin>-10000</valuemin>
								<valuemax>10000</valuemax>
								<value>0</value>
							</parameter>
						</effect>
					</filter>
					<filter>
						<effect>
							<name>Basic Motion</name>
							<effectid>basic</effectid>
							<effectcategory>motion</effectcategory>
							<effecttype>motion</effecttype>
							<mediatype>video</mediatype>
							<parameter>
								<parameterid>scale</parameterid>
								<name>Scale</name>
								<valuemin>0</valuemin>
								<valuemax>1000</valuemax>
								<value>100</value>
							</parameter>
							<parameter>
								<parameterid>rotation</parameterid>
								<name>Rotation</name>
								<valuemin>-8640</valuemin>
								<valuemax>8640</valuemax>
								<value>0</value>
							</parameter>
							<parameter>
								<parameterid>center</parameterid>
								<name>Center</name>
								<value>
									<horiz>0</horiz>
									<vert>0</vert>
								</value>
							</parameter>
							<parameter>
								<parameterid>centerOffset</parameterid>
								<name>Anchor Point</name>
								<value>
									<horiz>0</horiz>
									<vert>0</vert>
								</value>
							</parameter>
						</effect>
					</filter>
					<sourcetrack>
						<mediatype>video</mediatype>
					</sourcetrack>
					<fielddominance>upper</fielddominance>
				</clipitem>
				<clipitem id="525_0298_01 18">
					<name>525_0298_01</name>
					<duration>132</duration>
					<rate>
						<ntsc>FALSE</ntsc>
						<timebase>25</timebase>
					</rate>
					<in>25</in>
					<out>107</out>
					<start>7241</start>
					<end>7323</end>
					<pixelaspectratio>Square</pixelaspectratio>
					<anamorphic>FALSE</anamorphic>
					<alphatype>none</alphatype>
					<logginginfo>
						<scene/>
						<shottake/>
						<lognote/>
						<good>FALSE</good>
					</logginginfo>
					<labels>
						<label2/>
					</labels>
					<comments>
						<mastercomment1/>
						<mastercomment2/>
						<mastercomment3/>
						<mastercomment4/>
					</comments>
					<file id="50_g1 ">
						<name>50_g1.mov</name>
						<pathurl>file://localhost/Volumes/Askepott/Final%20Cut%20Pro%20Documents/Color%20Renderfiles/Lam%20v1/50/50_g1.mov</pathurl>
						<rate>
							<timebase>25</timebase>
						</rate>
						<duration>132</duration>
						<timecode>
							<rate>
								<timebase>25</timebase>
							</rate>
							<string>11:11:34:08</string>
							<frame>1007358</frame>
							<displayformat>NDF</displayformat>
							<source>source</source>
							<reel>
								<name>Untitled</name>
							</reel>
						</timecode>
						<media>
							<video>
								<duration>132</duration>
								<samplecharacteristics>
									<width>1920</width>
									<height>1080</height>
								</samplecharacteristics>
							</video>
						</media>
					</file>
					<filter>
						<effect>
							<name>Distort</name>
							<effectid>deformation</effectid>
							<effectcategory>motion</effectcategory>
							<effecttype>motion</effecttype>
							<mediatype>video</mediatype>
							<parameter>
								<parameterid>ulcorner</parameterid>
								<name>Upper Left</name>
								<value>
									<horiz>-0.5</horiz>
									<vert>-0.5</vert>
								</value>
							</parameter>
							<parameter>
								<parameterid>urcorner</parameterid>
								<name>Upper Right</name>
								<value>
									<horiz>0.5</horiz>
									<vert>-0.5</vert>
								</value>
							</parameter>
							<parameter>
								<parameterid>lrcorner</parameterid>
								<name>Lower Right</name>
								<value>
									<horiz>0.5</horiz>
									<vert>0.5</vert>
								</value>
							</parameter>
							<parameter>
								<parameterid>llcorner</parameterid>
								<name>Lower Left</name>
								<value>
									<horiz>-0.5</horiz>
									<vert>0.5</vert>
								</value>
							</parameter>
							<parameter>
								<parameterid>aspect</parameterid>
								<name>Aspect</name>
								<valuemin>-10000</valuemin>
								<valuemax>10000</valuemax>
								<value>0</value>
							</parameter>
						</effect>
					</filter>
					<filter>
						<effect>
							<name>Basic Motion</name>
							<effectid>basic</effectid>
							<effectcategory>motion</effectcategory>
							<effecttype>motion</effecttype>
							<mediatype>video</mediatype>
							<parameter>
								<parameterid>scale</parameterid>
								<name>Scale</name>
								<valuemin>0</valuemin>
								<valuemax>1000</valuemax>
								<value>100</value>
							</parameter>
							<parameter>
								<parameterid>rotation</parameterid>
								<name>Rotation</name>
								<valuemin>-8640</valuemin>
								<valuemax>8640</valuemax>
								<value>0</value>
							</parameter>
							<parameter>
								<parameterid>center</parameterid>
								<name>Center</name>
								<value>
									<horiz>0</horiz>
									<vert>0</vert>
								</value>
							</parameter>
							<parameter>
								<parameterid>centerOffset</parameterid>
								<name>Anchor Point</name>
								<value>
									<horiz>0</horiz>
									<vert>0</vert>
								</value>
							</parameter>
						</effect>
					</filter>
					<sourcetrack>
						<mediatype>video</mediatype>
					</sourcetrack>
					<fielddominance>upper</fielddominance>
				</clipitem>
				<clipitem id="525_0298_01 19">
					<name>525_0298_01</name>
					<duration>106</duration>
					<rate>
						<ntsc>FALSE</ntsc>
						<timebase>25</timebase>
					</rate>
					<in>25</in>
					<out>81</out>
					<start>7381</start>
					<end>7437</end>
					<pixelaspectratio>Square</pixelaspectratio>
					<anamorphic>FALSE</anamorphic>
					<alphatype>none</alphatype>
					<logginginfo>
						<scene/>
						<shottake/>
						<lognote/>
						<good>FALSE</good>
					</logginginfo>
					<labels>
						<label2/>
					</labels>
					<comments>
						<mastercomment1/>
						<mastercomment2/>
						<mastercomment3/>
						<mastercomment4/>
					</comments>
					<file id="51_g1 ">
						<name>51_g1.mov</name>
						<pathurl>file://localhost/Volumes/Askepott/Final%20Cut%20Pro%20Documents/Color%20Renderfiles/Lam%20v1/51/51_g1.mov</pathurl>
						<rate>
							<timebase>25</timebase>
						</rate>
						<duration>106</duration>
						<timecode>
							<rate>
								<timebase>25</timebase>
							</rate>
							<string>11:11:38:01</string>
							<frame>1007451</frame>
							<displayformat>NDF</displayformat>
							<source>source</source>
							<reel>
								<name>Untitled</name>
							</reel>
						</timecode>
						<media>
							<video>
								<duration>106</duration>
								<samplecharacteristics>
									<width>1920</width>
									<height>1080</height>
								</samplecharacteristics>
							</video>
						</media>
					</file>
					<filter>
						<effect>
							<name>Distort</name>
							<effectid>deformation</effectid>
							<effectcategory>motion</effectcategory>
							<effecttype>motion</effecttype>
							<mediatype>video</mediatype>
							<parameter>
								<parameterid>ulcorner</parameterid>
								<name>Upper Left</name>
								<value>
									<horiz>-0.5</horiz>
									<vert>-0.5</vert>
								</value>
							</parameter>
							<parameter>
								<parameterid>urcorner</parameterid>
								<name>Upper Right</name>
								<value>
									<horiz>0.5</horiz>
									<vert>-0.5</vert>
								</value>
							</parameter>
							<parameter>
								<parameterid>lrcorner</parameterid>
								<name>Lower Right</name>
								<value>
									<horiz>0.5</horiz>
									<vert>0.5</vert>
								</value>
							</parameter>
							<parameter>
								<parameterid>llcorner</parameterid>
								<name>Lower Left</name>
								<value>
									<horiz>-0.5</horiz>
									<vert>0.5</vert>
								</value>
							</parameter>
							<parameter>
								<parameterid>aspect</parameterid>
								<name>Aspect</name>
								<valuemin>-10000</valuemin>
								<valuemax>10000</valuemax>
								<value>0</value>
							</parameter>
						</effect>
					</filter>
					<filter>
						<effect>
							<name>Basic Motion</name>
							<effectid>basic</effectid>
							<effectcategory>motion</effectcategory>
							<effecttype>motion</effecttype>
							<mediatype>video</mediatype>
							<parameter>
								<parameterid>scale</parameterid>
								<name>Scale</name>
								<valuemin>0</valuemin>
								<valuemax>1000</valuemax>
								<value>100</value>
							</parameter>
							<parameter>
								<parameterid>rotation</parameterid>
								<name>Rotation</name>
								<valuemin>-8640</valuemin>
								<valuemax>8640</valuemax>
								<value>0</value>
							</parameter>
							<parameter>
								<parameterid>center</parameterid>
								<name>Center</name>
								<value>
									<horiz>0</horiz>
									<vert>0</vert>
								</value>
							</parameter>
							<parameter>
								<parameterid>centerOffset</parameterid>
								<name>Anchor Point</name>
								<value>
									<horiz>0</horiz>
									<vert>0</vert>
								</value>
							</parameter>
						</effect>
					</filter>
					<sourcetrack>
						<mediatype>video</mediatype>
					</sourcetrack>
					<fielddominance>upper</fielddominance>
				</clipitem>
				<clipitem id="525_0298_01 20">
					<name>525_0298_01</name>
					<duration>116</duration>
					<rate>
						<ntsc>FALSE</ntsc>
						<timebase>25</timebase>
					</rate>
					<in>25</in>
					<out>91</out>
					<start>7537</start>
					<end>7603</end>
					<pixelaspectratio>Square</pixelaspectratio>
					<anamorphic>FALSE</anamorphic>
					<alphatype>none</alphatype>
					<logginginfo>
						<scene/>
						<shottake/>
						<lognote/>
						<good>FALSE</good>
					</logginginfo>
					<labels>
						<label2/>
					</labels>
					<comments>
						<mastercomment1/>
						<mastercomment2/>
						<mastercomment3/>
						<mastercomment4/>
					</comments>
					<file id="52_g1 "/>
					<filter>
						<effect>
							<name>Distort</name>
							<effectid>deformation</effectid>
							<effectcategory>motion</effectcategory>
							<effecttype>motion</effecttype>
							<mediatype>video</mediatype>
							<parameter>
								<parameterid>ulcorner</parameterid>
								<name>Upper Left</name>
								<value>
									<horiz>-0.5</horiz>
									<vert>-0.5</vert>
								</value>
							</parameter>
							<parameter>
								<parameterid>urcorner</parameterid>
								<name>Upper Right</name>
								<value>
									<horiz>0.5</horiz>
									<vert>-0.5</vert>
								</value>
							</parameter>
							<parameter>
								<parameterid>lrcorner</parameterid>
								<name>Lower Right</name>
								<value>
									<horiz>0.5</horiz>
									<vert>0.5</vert>
								</value>
							</parameter>
							<parameter>
								<parameterid>llcorner</parameterid>
								<name>Lower Left</name>
								<value>
									<horiz>-0.5</horiz>
									<vert>0.5</vert>
								</value>
							</parameter>
							<parameter>
								<parameterid>aspect</parameterid>
								<name>Aspect</name>
								<valuemin>-10000</valuemin>
								<valuemax>10000</valuemax>
								<value>0</value>
							</parameter>
						</effect>
					</filter>
					<filter>
						<effect>
							<name>Basic Motion</name>
							<effectid>basic</effectid>
							<effectcategory>motion</effectcategory>
							<effecttype>motion</effecttype>
							<mediatype>video</mediatype>
							<parameter>
								<parameterid>scale</parameterid>
								<name>Scale</name>
								<valuemin>0</valuemin>
								<valuemax>1000</valuemax>
								<value>100</value>
							</parameter>
							<parameter>
								<parameterid>rotation</parameterid>
								<name>Rotation</name>
								<valuemin>-8640</valuemin>
								<valuemax>8640</valuemax>
								<value>0</value>
							</parameter>
							<parameter>
								<parameterid>center</parameterid>
								<name>Center</name>
								<value>
									<horiz>0</horiz>
									<vert>0</vert>
								</value>
							</parameter>
							<parameter>
								<parameterid>centerOffset</parameterid>
								<name>Anchor Point</name>
								<value>
									<horiz>0</horiz>
									<vert>0</vert>
								</value>
							</parameter>
						</effect>
					</filter>
					<sourcetrack>
						<mediatype>video</mediatype>
					</sourcetrack>
					<fielddominance>upper</fielddominance>
				</clipitem>
				<clipitem id="Wipe3_Blomster_interlaced_+alpha_MASTER">
					<name>Wipe3_Blomster_interlaced_+alpha_MASTER</name>
					<duration>68</duration>
					<rate>
						<ntsc>FALSE</ntsc>
						<timebase>25</timebase>
					</rate>
					<in>0</in>
					<out>68</out>
					<start>8009</start>
					<end>8077</end>
					<pixelaspectratio>Square</pixelaspectratio>
					<enabled>TRUE</enabled>
					<anamorphic>FALSE</anamorphic>
					<alphatype>straight</alphatype>
					<masterclipid>Wipe3_Blomster_interlaced_+alpha_MASTER1</masterclipid>
					<logginginfo>
						<scene/>
						<shottake/>
						<lognote/>
						<good>FALSE</good>
					</logginginfo>
					<labels>
						<label2/>
					</labels>
					<comments>
						<mastercomment1/>
						<mastercomment2/>
						<mastercomment3/>
						<mastercomment4/>
					</comments>
					<file id="Wipe3_Blomster_interlaced_+alpha_MASTER2">
						<name>Wipe3_Blomster_interlaced_+alpha_MASTER.mov</name>
						<pathurl>file://localhost/Volumes/Askepott/Prosjekter/DNPR637010_Kra%CC%8Akeklubben_TEM_011212/Grafikk/MASTERE%20GRAFIKK/Wipe3_Blomster_interlaced_+alpha_MASTER.mov</pathurl>
						<rate>
							<timebase>25</timebase>
						</rate>
						<duration>68</duration>
						<timecode>
							<rate>
								<timebase>25</timebase>
							</rate>
							<string>00:00:00:00</string>
							<frame>0</frame>
							<displayformat>NDF</displayformat>
							<source>source</source>
						</timecode>
						<media>
							<video>
								<duration>68</duration>
								<samplecharacteristics>
									<width>1920</width>
									<height>1080</height>
								</samplecharacteristics>
							</video>
						</media>
					</file>
					<sourcetrack>
						<mediatype>video</mediatype>
					</sourcetrack>
					<fielddominance>upper</fielddominance>
				</clipitem>
				<clipitem id="XDCAM 20120614_094644_C0030 ">
					<name>XDCAM 20120614_094644_C0030</name>
					<duration>422</duration>
					<rate>
						<ntsc>FALSE</ntsc>
						<timebase>25</timebase>
					</rate>
					<in>275</in>
					<out>378</out>
					<start>11399</start>
					<end>11502</end>
					<pixelaspectratio>Square</pixelaspectratio>
					<enabled>TRUE</enabled>
					<anamorphic>FALSE</anamorphic>
					<alphatype>none</alphatype>
					<masterclipid>XDCAM 20120614_094644_C0030 1</masterclipid>
					<logginginfo>
						<scene/>
						<shottake/>
						<lognote/>
						<good>FALSE</good>
					</logginginfo>
					<labels>
						<label2/>
					</labels>
					<comments>
						<mastercomment1/>
						<mastercomment2/>
						<mastercomment3/>
						<mastercomment4/>
					</comments>
					<file id="XDCAM 20120614_094644_C0030 2">
						<name>XDCAM 20120614_094644_C0030.mov</name>
						<pathurl>file://localhost/Volumes/Askepott/Prosjekter/DNPR637010_Kra%CC%8Akeklubben_TEM_011212/Video/Mellomstikk/S03E%20D%C3%B8den/DAG%203/XDCAM%2020120614_094644_C0030.mov</pathurl>
						<rate>
							<timebase>25</timebase>
						</rate>
						<duration>422</duration>
						<timecode>
							<rate>
								<timebase>25</timebase>
							</rate>
							<string>09:39:21:02</string>
							<frame>869027</frame>
							<displayformat>NDF</displayformat>
							<source>source</source>
							<reel>
								<name>XDCAM 20120614_094644</name>
							</reel>
						</timecode>
						<media>
							<video>
								<duration>422</duration>
								<samplecharacteristics>
									<width>1920</width>
									<height>1080</height>
								</samplecharacteristics>
							</video>
							<audio>
								<rate>
									<timebase>48000</timebase>
								</rate>
								<trackcount>1</trackcount>
								<channeldescription>8 Channels</channeldescription>
								<samplecharacteristics>
									<depth>24</depth>
								</samplecharacteristics>
							</audio>
						</media>
					</file>
					<sourcetrack>
						<mediatype>video</mediatype>
					</sourcetrack>
					<fielddominance>upper</fielddominance>
				</clipitem>
				<clipitem id="C0072 4">
					<name>C0072</name>
					<duration>428</duration>
					<rate>
						<ntsc>FALSE</ntsc>
						<timebase>25</timebase>
					</rate>
					<in>199</in>
					<out>309</out>
					<start>12609</start>
					<end>12719</end>
					<pixelaspectratio>Square</pixelaspectratio>
					<enabled>TRUE</enabled>
					<anamorphic>FALSE</anamorphic>
					<alphatype>none</alphatype>
					<masterclipid>C0072 5</masterclipid>
					<logginginfo>
						<scene/>
						<shottake/>
						<lognote/>
						<good>FALSE</good>
					</logginginfo>
					<labels>
						<label2/>
					</labels>
					<comments>
						<mastercomment1/>
						<mastercomment2/>
						<mastercomment3/>
						<mastercomment4/>
					</comments>
					<file id="C0072 6">
						<name>C0072.mov</name>
						<pathurl>file://localhost/Volumes/Askepott/Prosjekter/DNPR637010_Kra%CC%8Akeklubben_TEM_011212/Video/Mellomstikk/S03E%20D%C3%B8den/DAG%201/C0072.mov</pathurl>
						<rate>
							<timebase>25</timebase>
						</rate>
						<duration>428</duration>
						<timecode>
							<rate>
								<timebase>25</timebase>
							</rate>
							<string>05:19:56:16</string>
							<frame>479916</frame>
							<displayformat>NDF</displayformat>
							<source>source</source>
							<reel>
								<name>XDCAM 20120508_103430</name>
							</reel>
						</timecode>
						<media>
							<video>
								<duration>428</duration>
								<samplecharacteristics>
									<width>1920</width>
									<height>1080</height>
								</samplecharacteristics>
							</video>
							<audio>
								<rate>
									<timebase>48000</timebase>
								</rate>
								<trackcount>1</trackcount>
								<channeldescription>8 Channels</channeldescription>
								<samplecharacteristics>
									<depth>24</depth>
								</samplecharacteristics>
							</audio>
						</media>
					</file>
					<sourcetrack>
						<mediatype>video</mediatype>
					</sourcetrack>
					<fielddominance>upper</fielddominance>
				</clipitem>
				<clipitem id="C0062 ">
					<name>C0062</name>
					<duration>449</duration>
					<rate>
						<ntsc>FALSE</ntsc>
						<timebase>25</timebase>
					</rate>
					<in>303</in>
					<out>346</out>
					<start>13082</start>
					<end>13125</end>
					<pixelaspectratio>Square</pixelaspectratio>
					<anamorphic>FALSE</anamorphic>
					<alphatype>none</alphatype>
					<masterclipid>C0062 1</masterclipid>
					<logginginfo>
						<scene/>
						<shottake/>
						<lognote/>
						<good>FALSE</good>
					</logginginfo>
					<labels>
						<label2/>
					</labels>
					<comments>
						<mastercomment1/>
						<mastercomment2/>
						<mastercomment3/>
						<mastercomment4/>
					</comments>
					<file id="C0062 2">
						<name>C0062.mov</name>
						<pathurl>file://localhost/Volumes/Askepott/Prosjekter/DNPR637010_Kra%CC%8Akeklubben_TEM_011212/Video/Mellomstikk/S03E%20D%C3%B8den/DAG%201/C0062.mov</pathurl>
						<rate>
							<timebase>25</timebase>
						</rate>
						<duration>449</duration>
						<timecode>
							<rate>
								<timebase>25</timebase>
							</rate>
							<string>05:13:35:15</string>
							<frame>470390</frame>
							<displayformat>NDF</displayformat>
							<source>source</source>
							<reel>
								<name>XDCAM 20120508_103430</name>
							</reel>
						</timecode>
						<media>
							<video>
								<duration>449</duration>
								<samplecharacteristics>
									<width>1920</width>
									<height>1080</height>
								</samplecharacteristics>
							</video>
							<audio>
								<rate>
									<timebase>48000</timebase>
								</rate>
								<trackcount>1</trackcount>
								<channeldescription>8 Channels</channeldescription>
								<samplecharacteristics>
									<depth>24</depth>
								</samplecharacteristics>
							</audio>
						</media>
					</file>
					<sourcetrack>
						<mediatype>video</mediatype>
					</sourcetrack>
					<fielddominance>upper</fielddominance>
				</clipitem>
				<clipitem id="C0077 7">
					<name>C0077</name>
					<duration>2591</duration>
					<rate>
						<ntsc>FALSE</ntsc>
						<timebase>25</timebase>
					</rate>
					<in>1874</in>
					<out>2065</out>
					<start>14314</start>
					<end>14505</end>
					<pixelaspectratio>Square</pixelaspectratio>
					<enabled>TRUE</enabled>
					<anamorphic>FALSE</anamorphic>
					<alphatype>none</alphatype>
					<masterclipid>C0077 1</masterclipid>
					<logginginfo>
						<scene/>
						<shottake/>
						<lognote/>
						<good>FALSE</good>
					</logginginfo>
					<labels>
						<label2/>
					</labels>
					<comments>
						<mastercomment1/>
						<mastercomment2/>
						<mastercomment3/>
						<mastercomment4/>
					</comments>
					<file id="C0077 2"/>
					<sourcetrack>
						<mediatype>video</mediatype>
					</sourcetrack>
					<link>
						<linkclipref>C0077 7</linkclipref>
						<mediatype>video</mediatype>
						<trackindex>2</trackindex>
						<clipindex>33</clipindex>
					</link>
					<link>
						<linkclipref>C0077 8</linkclipref>
						<mediatype>audio</mediatype>
						<trackindex>1</trackindex>
						<clipindex>134</clipindex>
					</link>
					<link>
						<linkclipref>C0077 9</linkclipref>
						<mediatype>audio</mediatype>
						<trackindex>2</trackindex>
						<clipindex>86</clipindex>
					</link>
					<fielddominance>upper</fielddominance>
				</clipitem>
				<clipitem id="C0027 12">
					<name>C0027</name>
					<duration>97</duration>
					<rate>
						<ntsc>FALSE</ntsc>
						<timebase>25</timebase>
					</rate>
					<in>0</in>
					<out>97</out>
					<start>15053</start>
					<end>15150</end>
					<pixelaspectratio>Square</pixelaspectratio>
					<anamorphic>FALSE</anamorphic>
					<alphatype>none</alphatype>
					<masterclipid>C0027 13</masterclipid>
					<logginginfo>
						<scene/>
						<shottake/>
						<lognote/>
						<good>FALSE</good>
					</logginginfo>
					<labels>
						<label2/>
					</labels>
					<comments>
						<mastercomment1/>
						<mastercomment2/>
						<mastercomment3/>
						<mastercomment4/>
					</comments>
					<file id="24_g1 ">
						<name>24_g1.mov</name>
						<pathurl>file://localhost/Volumes/Askepott/Final%20Cut%20Pro%20Documents/Color%20Renderfiles/Tords%20garasje%20-%20Flue/24/24_g1.mov</pathurl>
						<rate>
							<timebase>25</timebase>
						</rate>
						<duration>97</duration>
						<timecode>
							<rate>
								<timebase>25</timebase>
							</rate>
							<string>12:34:46:09</string>
							<frame>1132159</frame>
							<displayformat>NDF</displayformat>
							<source>source</source>
							<reel>
								<name>XDCAM 20120309_113707</name>
							</reel>
						</timecode>
						<media>
							<video>
								<duration>97</duration>
								<samplecharacteristics>
									<width>1920</width>
									<height>1080</height>
								</samplecharacteristics>
							</video>
						</media>
					</file>
					<filter>
						<effect>
							<name>Distort</name>
							<effectid>deformation</effectid>
							<effectcategory>motion</effectcategory>
							<effecttype>motion</effecttype>
							<mediatype>video</mediatype>
							<parameter>
								<parameterid>ulcorner</parameterid>
								<name>Upper Left</name>
								<value>
									<horiz>-0.5</horiz>
									<vert>-0.5</vert>
								</value>
							</parameter>
							<parameter>
								<parameterid>urcorner</parameterid>
								<name>Upper Right</name>
								<value>
									<horiz>0.5</horiz>
									<vert>-0.5</vert>
								</value>
							</parameter>
							<parameter>
								<parameterid>lrcorner</parameterid>
								<name>Lower Right</name>
								<value>
									<horiz>0.5</horiz>
									<vert>0.5</vert>
								</value>
							</parameter>
							<parameter>
								<parameterid>llcorner</parameterid>
								<name>Lower Left</name>
								<value>
									<horiz>-0.5</horiz>
									<vert>0.5</vert>
								</value>
							</parameter>
							<parameter>
								<parameterid>aspect</parameterid>
								<name>Aspect</name>
								<valuemin>-10000</valuemin>
								<valuemax>10000</valuemax>
								<value>0</value>
							</parameter>
						</effect>
					</filter>
					<filter>
						<effect>
							<name>Basic Motion</name>
							<effectid>basic</effectid>
							<effectcategory>motion</effectcategory>
							<effecttype>motion</effecttype>
							<mediatype>video</mediatype>
							<parameter>
								<parameterid>scale</parameterid>
								<name>Scale</name>
								<valuemin>0</valuemin>
								<valuemax>1000</valuemax>
								<value>100</value>
							</parameter>
							<parameter>
								<parameterid>rotation</parameterid>
								<name>Rotation</name>
								<valuemin>-8640</valuemin>
								<valuemax>8640</valuemax>
								<value>0</value>
							</parameter>
							<parameter>
								<parameterid>center</parameterid>
								<name>Center</name>
								<value>
									<horiz>0</horiz>
									<vert>0</vert>
								</value>
							</parameter>
							<parameter>
								<parameterid>centerOffset</parameterid>
								<name>Anchor Point</name>
								<value>
									<horiz>0</horiz>
									<vert>0</vert>
								</value>
							</parameter>
						</effect>
					</filter>
					<sourcetrack>
						<mediatype>video</mediatype>
					</sourcetrack>
					<fielddominance>upper</fielddominance>
				</clipitem>
				<clipitem id="C0033 7">
					<name>C0033</name>
					<duration>67</duration>
					<rate>
						<ntsc>FALSE</ntsc>
						<timebase>25</timebase>
					</rate>
					<in>0</in>
					<out>67</out>
					<start>15602</start>
					<end>15669</end>
					<pixelaspectratio>Square</pixelaspectratio>
					<anamorphic>FALSE</anamorphic>
					<alphatype>none</alphatype>
					<masterclipid>C0033 8</masterclipid>
					<logginginfo>
						<scene/>
						<shottake/>
						<lognote/>
						<good>FALSE</good>
					</logginginfo>
					<labels>
						<label2/>
					</labels>
					<comments>
						<mastercomment1/>
						<mastercomment2/>
						<mastercomment3/>
						<mastercomment4/>
					</comments>
					<file id="25_g1 ">
						<name>25_g1.mov</name>
						<pathurl>file://localhost/Volumes/Askepott/Final%20Cut%20Pro%20Documents/Color%20Renderfiles/Tords%20garasje%20-%20Flue/25/25_g1.mov</pathurl>
						<rate>
							<timebase>25</timebase>
						</rate>
						<duration>67</duration>
						<timecode>
							<rate>
								<timebase>25</timebase>
							</rate>
							<string>12:38:51:13</string>
							<frame>1138288</frame>
							<displayformat>NDF</displayformat>
							<source>source</source>
							<reel>
								<name>XDCAM 20120309_113707</name>
							</reel>
						</timecode>
						<media>
							<video>
								<duration>67</duration>
								<samplecharacteristics>
									<width>1920</width>
									<height>1080</height>
								</samplecharacteristics>
							</video>
						</media>
					</file>
					<filter>
						<effect>
							<name>Distort</name>
							<effectid>deformation</effectid>
							<effectcategory>motion</effectcategory>
							<effecttype>motion</effecttype>
							<mediatype>video</mediatype>
							<parameter>
								<parameterid>ulcorner</parameterid>
								<name>Upper Left</name>
								<value>
									<horiz>-0.5</horiz>
									<vert>-0.5</vert>
								</value>
							</parameter>
							<parameter>
								<parameterid>urcorner</parameterid>
								<name>Upper Right</name>
								<value>
									<horiz>0.5</horiz>
									<vert>-0.5</vert>
								</value>
							</parameter>
							<parameter>
								<parameterid>lrcorner</parameterid>
								<name>Lower Right</name>
								<value>
									<horiz>0.5</horiz>
									<vert>0.5</vert>
								</value>
							</parameter>
							<parameter>
								<parameterid>llcorner</parameterid>
								<name>Lower Left</name>
								<value>
									<horiz>-0.5</horiz>
									<vert>0.5</vert>
								</value>
							</parameter>
							<parameter>
								<parameterid>aspect</parameterid>
								<name>Aspect</name>
								<valuemin>-10000</valuemin>
								<valuemax>10000</valuemax>
								<value>0</value>
							</parameter>
						</effect>
					</filter>
					<filter>
						<effect>
							<name>Basic Motion</name>
							<effectid>basic</effectid>
							<effectcategory>motion</effectcategory>
							<effecttype>motion</effecttype>
							<mediatype>video</mediatype>
							<parameter>
								<parameterid>scale</parameterid>
								<name>Scale</name>
								<valuemin>0</valuemin>
								<valuemax>1000</valuemax>
								<value>100</value>
							</parameter>
							<parameter>
								<parameterid>rotation</parameterid>
								<name>Rotation</name>
								<valuemin>-8640</valuemin>
								<valuemax>8640</valuemax>
								<value>0</value>
							</parameter>
							<parameter>
								<parameterid>center</parameterid>
								<name>Center</name>
								<value>
									<horiz>0</horiz>
									<vert>0</vert>
								</value>
							</parameter>
							<parameter>
								<parameterid>centerOffset</parameterid>
								<name>Anchor Point</name>
								<value>
									<horiz>0</horiz>
									<vert>0</vert>
								</value>
							</parameter>
						</effect>
					</filter>
					<sourcetrack>
						<mediatype>video</mediatype>
					</sourcetrack>
					<fielddominance>upper</fielddominance>
				</clipitem>
				<clipitem id="Maggot test PAN 2 ">
					<name>Maggot test PAN 2</name>
					<duration>344</duration>
					<rate>
						<ntsc>FALSE</ntsc>
						<timebase>25</timebase>
					</rate>
					<in>0</in>
					<out>222</out>
					<start>15995</start>
					<end>16217</end>
					<pixelaspectratio>Square</pixelaspectratio>
					<enabled>TRUE</enabled>
					<anamorphic>FALSE</anamorphic>
					<alphatype>none</alphatype>
					<masterclipid>Maggot test PAN 2 1</masterclipid>
					<logginginfo>
						<scene/>
						<shottake/>
						<lognote/>
						<good>FALSE</good>
					</logginginfo>
					<labels>
						<label2/>
					</labels>
					<comments>
						<mastercomment1/>
						<mastercomment2/>
						<mastercomment3/>
						<mastercomment4/>
					</comments>
					<file id="36_g1 1">
						<name>36_g1.mov</name>
						<pathurl>file://localhost/Volumes/Askepott/Final%20Cut%20Pro%20Documents/Color%20Renderfiles/Tords%20garasje%20-%20Flue/36/36_g1.mov</pathurl>
						<rate>
							<timebase>25</timebase>
						</rate>
						<duration>1375</duration>
						<timecode>
							<rate>
								<timebase>25</timebase>
							</rate>
							<string>00:00:57:20</string>
							<frame>1445</frame>
							<displayformat>NDF</displayformat>
							<source>source</source>
						</timecode>
						<media>
							<video>
								<duration>1375</duration>
								<samplecharacteristics>
									<width>1920</width>
									<height>1080</height>
								</samplecharacteristics>
							</video>
						</media>
					</file>
					<filter>
						<effect>
							<name>Basic Motion</name>
							<effectid>basic</effectid>
							<effectcategory>motion</effectcategory>
							<effecttype>motion</effecttype>
							<mediatype>video</mediatype>
							<parameter>
								<parameterid>scale</parameterid>
								<name>Scale</name>
								<valuemin>0</valuemin>
								<valuemax>1000</valuemax>
								<value>100</value>
							</parameter>
							<parameter>
								<parameterid>rotation</parameterid>
								<name>Rotation</name>
								<valuemin>-8640</valuemin>
								<valuemax>8640</valuemax>
								<value>0</value>
							</parameter>
							<parameter>
								<parameterid>center</parameterid>
								<name>Center</name>
								<value>
									<horiz>0</horiz>
									<vert>0</vert>
								</value>
							</parameter>
							<parameter>
								<parameterid>centerOffset</parameterid>
								<name>Anchor Point</name>
								<value>
									<horiz>0</horiz>
									<vert>0</vert>
								</value>
							</parameter>
						</effect>
					</filter>
					<filter>
						<enabled>FALSE</enabled>
						<effect>
							<name>Drop Shadow</name>
							<effectid>dropshadow</effectid>
							<effectcategory>motion</effectcategory>
							<effecttype>motion</effecttype>
							<mediatype>video</mediatype>
							<parameter>
								<parameterid>offset</parameterid>
								<name>offset</name>
								<valuemin>-100</valuemin>
								<valuemax>100</valuemax>
								<value>2</value>
							</parameter>
							<parameter>
								<parameterid>angle</parameterid>
								<name>angle</name>
								<valuemin>-720</valuemin>
								<valuemax>720</valuemax>
								<value>135</value>
							</parameter>
							<parameter>
								<parameterid>color</parameterid>
								<name>color</name>
								<value>
									<alpha>0</alpha>
									<red>0</red>
									<green>0</green>
									<blue>0</blue>
								</value>
							</parameter>
							<parameter>
								<parameterid>softness</parameterid>
								<name>softness</name>
								<valuemin>0</valuemin>
								<valuemax>100</valuemax>
								<value>10</value>
							</parameter>
							<parameter>
								<parameterid>opacity</parameterid>
								<name>opacity</name>
								<valuemin>0</valuemin>
								<valuemax>100</valuemax>
								<value>50</value>
							</parameter>
						</effect>
					</filter>
					<filter>
						<enabled>FALSE</enabled>
						<effect>
							<name>Motion Blur</name>
							<effectid>motionblur</effectid>
							<effectcategory>motion</effectcategory>
							<effecttype>motion</effecttype>
							<mediatype>video</mediatype>
							<parameter>
								<parameterid>duration</parameterid>
								<name>% Blur</name>
								<valuemin>0</valuemin>
								<valuemax>1000</valuemax>
								<value>500</value>
							</parameter>
							<parameter>
								<parameterid>samples</parameterid>
								<name>Samples</name>
								<valuemin>1</valuemin>
								<valuemax>16</valuemax>
								<value>4</value>
							</parameter>
						</effect>
					</filter>
					<filter>
						<effect>
							<name>Crop</name>
							<effectid>crop</effectid>
							<effectcategory>motion</effectcategory>
							<effecttype>motion</effecttype>
							<mediatype>video</mediatype>
							<parameter>
								<parameterid>left</parameterid>
								<name>left</name>
								<valuemin>0</valuemin>
								<valuemax>100</valuemax>
								<value>0</value>
							</parameter>
							<parameter>
								<parameterid>right</parameterid>
								<name>right</name>
								<valuemin>0</valuemin>
								<valuemax>100</valuemax>
								<value>0</value>
							</parameter>
							<parameter>
								<parameterid>top</parameterid>
								<name>top</name>
								<valuemin>0</valuemin>
								<valuemax>100</valuemax>
								<value>0</value>
							</parameter>
							<parameter>
								<parameterid>bottom</parameterid>
								<name>bottom</name>
								<valuemin>0</valuemin>
								<valuemax>100</valuemax>
								<value>0</value>
							</parameter>
							<parameter>
								<parameterid>edgefeather</parameterid>
								<name>edgefeather</name>
								<valuemin>0</valuemin>
								<valuemax>100</valuemax>
								<value>0</value>
							</parameter>
						</effect>
					</filter>
					<filter>
						<effect>
							<name>Distort</name>
							<effectid>deformation</effectid>
							<effectcategory>motion</effectcategory>
							<effecttype>motion</effecttype>
							<mediatype>video</mediatype>
							<parameter>
								<parameterid>ulcorner</parameterid>
								<name>Upper Left</name>
								<value>
									<horiz>-0.5</horiz>
									<vert>-0.5</vert>
								</value>
							</parameter>
							<parameter>
								<parameterid>urcorner</parameterid>
								<name>Upper Right</name>
								<value>
									<horiz>0.5</horiz>
									<vert>-0.5</vert>
								</value>
							</parameter>
							<parameter>
								<parameterid>lrcorner</parameterid>
								<name>Lower Right</name>
								<value>
									<horiz>0.5</horiz>
									<vert>0.5</vert>
								</value>
							</parameter>
							<parameter>
								<parameterid>llcorner</parameterid>
								<name>Lower Left</name>
								<value>
									<horiz>-0.5</horiz>
									<vert>0.5</vert>
								</value>
							</parameter>
							<parameter>
								<parameterid>aspect</parameterid>
								<name>Aspect</name>
								<valuemin>-10000</valuemin>
								<valuemax>10000</valuemax>
								<value>0</value>
							</parameter>
						</effect>
					</filter>
					<filter>
						<effect>
							<name>Opacity</name>
							<effectid>opacity</effectid>
							<effectcategory>motion</effectcategory>
							<effecttype>motion</effecttype>
							<mediatype>video</mediatype>
							<parameter>
								<parameterid>opacity</parameterid>
								<name>opacity</name>
								<valuemin>0</valuemin>
								<valuemax>100</valuemax>
								<value>100</value>
							</parameter>
						</effect>
					</filter>
					<sourcetrack>
						<mediatype>video</mediatype>
					</sourcetrack>
					<fielddominance>upper</fielddominance>
					<filter>
						<effect>
							<name>Time Remap</name>
							<effectid>timeremap</effectid>
							<effectcategory>motion</effectcategory>
							<effecttype>motion</effecttype>
							<mediatype>video</mediatype>
							<parameter>
								<parameterid>variablespeed</parameterid>
								<name>variablespeed</name>
								<valuemin>0</valuemin>
								<valuemax>1</valuemax>
								<value>0</value>
							</parameter>
							<parameter>
								<parameterid>mappedduration</parameterid>
								<name>mappedduration</name>
								<value>
									<timecode>
										<rate>
											<timebase>0</timebase>
										</rate>
										<string>0</string>
										<frame>0</frame>
										<displayformat>NDF</displayformat>
									</timecode>
								</value>
							</parameter>
							<parameter>
								<parameterid>speed</parameterid>
								<name>speed</name>
								<valuemin>-10000</valuemin>
								<valuemax>10000</valuemax>
								<value>392</value>
							</parameter>
							<parameter>
								<parameterid>reverse</parameterid>
								<name>reverse</name>
								<value>FALSE</value>
							</parameter>
							<parameter>
								<parameterid>frameblending</parameterid>
								<name>frameblending</name>
								<value>TRUE</value>
							</parameter>
							<parameter>
								<parameterid>graphdict</parameterid>
								<name>graphdict</name>
								<valuemin>0</valuemin>
								<valuemax>1374</valuemax>
								<keyframe>
									<when>0</when>
									<value>0</value>
									<speedkfin>TRUE</speedkfin>
								</keyframe>
								<keyframe>
									<when>222</when>
									<value>871.172</value>
									<speedkfout>TRUE</speedkfout>
									<speedvirtualkf>TRUE</speedvirtualkf>
								</keyframe>
								<keyframe>
									<when>344</when>
									<value>1347</value>
									<speedkfend>TRUE</speedkfend>
									<speedvirtualkf>TRUE</speedvirtualkf>
								</keyframe>
								<interpolation>
									<name>FCPCurve</name>
								</interpolation>
								<value>0</value>
							</parameter>
						</effect>
					</filter>
				</clipitem>
				<clipitem id="Tords garasje - Flue (from Color) 01:00:58:12 ">
					<name>Tords garasje - Flue (from Color) 01:00:58:12</name>
					<duration>3000</duration>
					<rate>
						<ntsc>FALSE</ntsc>
						<timebase>25</timebase>
					</rate>
					<in>1350</in>
					<out>1386</out>
					<start>16217</start>
					<end>-1</end>
					<labels>
						<label2/>
					</labels>
					<comments>
						<mastercomment1/>
						<mastercomment2/>
						<mastercomment3/>
						<mastercomment4/>
					</comments>
					<logginginfo>
						<scene/>
						<shottake/>
						<lognote/>
						<good>FALSE</good>
					</logginginfo>
					<sequence id="Tords garasje - Flue (from Color) 01:00:58:12 1">
						<name>Tords garasje - Flue (from Color) 01:00:58:12</name>
						<duration>3000</duration>
						<rate>
							<ntsc>FALSE</ntsc>
							<timebase>25</timebase>
						</rate>
						<in>0</in>
						<out>3000</out>
						<media>
							<video>
								<format>
									<samplecharacteristics>
										<width>1920</width>
										<height>1080</height>
										<anamorphic>FALSE</anamorphic>
										<pixelaspectratio>Square</pixelaspectratio>
										<fielddominance>upper</fielddominance>
										<rate>
											<ntsc>FALSE</ntsc>
											<timebase>25</timebase>
										</rate>
										<colordepth>24</colordepth>
										<codec>
											<name>Apple ProRes 422</name>
											<appspecificdata>
												<appname>Final Cut Pro</appname>
												<appmanufacturer>Apple Inc.</appmanufacturer>
												<appversion>7.0</appversion>
												<data>
													<qtcodec>
														<codecname>Apple ProRes 422</codecname>
														<codectypename>Apple ProRes 422</codectypename>
														<codectypecode>apcn</codectypecode>
														<codecvendorcode>appl</codecvendorcode>
														<spatialquality>1024</spatialquality>
														<temporalquality>0</temporalquality>
														<keyframerate>0</keyframerate>
														<datarate>0</datarate>
													</qtcodec>
												</data>
											</appspecificdata>
										</codec>
									</samplecharacteristics>
									<appspecificdata>
										<appname>Final Cut Pro</appname>
										<appmanufacturer>Apple Inc.</appmanufacturer>
										<appversion>7.0</appversion>
										<data>
											<fcpimageprocessing>
												<useyuv>TRUE</useyuv>
												<usesuperwhite>FALSE</usesuperwhite>
												<rendermode>YUV8BPP</rendermode>
											</fcpimageprocessing>
										</data>
									</appspecificdata>
								</format>
								<track>
									<clipitem id="Tords garasje - Flue (from Color) 01:00:58:12 2">
										<name>Tords garasje - Flue (from Color) 01:00:58:12</name>
										<duration>3000</duration>
										<rate>
											<ntsc>FALSE</ntsc>
											<timebase>25</timebase>
										</rate>
										<in>0</in>
										<out>3000</out>
										<start>0</start>
										<end>3000</end>
										<stillframeoffset>6</stillframeoffset>
										<pixelaspectratio>Square</pixelaspectratio>
										<anamorphic>FALSE</anamorphic>
										<alphatype>none</alphatype>
										<alphareverse>FALSE</alphareverse>
										<logginginfo>
											<scene/>
											<shottake/>
											<lognote/>
											<good>FALSE</good>
										</logginginfo>
										<labels>
											<label2/>
										</labels>
										<comments>
											<mastercomment1/>
											<mastercomment2/>
											<mastercomment3/>
											<mastercomment4/>
										</comments>
										<file id="8_g1 1"/>
										<filter>
											<effect>
												<name>Distort</name>
												<effectid>deformation</effectid>
												<effectcategory>motion</effectcategory>
												<effecttype>motion</effecttype>
												<mediatype>video</mediatype>
												<parameter>
													<parameterid>ulcorner</parameterid>
													<name>Upper Left</name>
													<value>
														<horiz>-0.5</horiz>
														<vert>-0.5</vert>
													</value>
												</parameter>
												<parameter>
													<parameterid>urcorner</parameterid>
													<name>Upper Right</name>
													<value>
														<horiz>0.5</horiz>
														<vert>-0.5</vert>
													</value>
												</parameter>
												<parameter>
													<parameterid>lrcorner</parameterid>
													<name>Lower Right</name>
													<value>
														<horiz>0.5</horiz>
														<vert>0.5</vert>
													</value>
												</parameter>
												<parameter>
													<parameterid>llcorner</parameterid>
													<name>Lower Left</name>
													<value>
														<horiz>-0.5</horiz>
														<vert>0.5</vert>
													</value>
												</parameter>
												<parameter>
													<parameterid>aspect</parameterid>
													<name>Aspect</name>
													<valuemin>-10000</valuemin>
													<valuemax>10000</valuemax>
													<value>0</value>
												</parameter>
											</effect>
										</filter>
										<filter>
											<effect>
												<name>Basic Motion</name>
												<effectid>basic</effectid>
												<effectcategory>motion</effectcategory>
												<effecttype>motion</effecttype>
												<mediatype>video</mediatype>
												<parameter>
													<parameterid>scale</parameterid>
													<name>Scale</name>
													<valuemin>0</valuemin>
													<valuemax>1000</valuemax>
													<value>100</value>
												</parameter>
												<parameter>
													<parameterid>rotation</parameterid>
													<name>Rotation</name>
													<valuemin>-8640</valuemin>
													<valuemax>8640</valuemax>
													<value>0</value>
												</parameter>
												<parameter>
													<parameterid>center</parameterid>
													<name>Center</name>
													<value>
														<horiz>0</horiz>
														<vert>0</vert>
													</value>
												</parameter>
												<parameter>
													<parameterid>centerOffset</parameterid>
													<name>Anchor Point</name>
													<value>
														<horiz>0</horiz>
														<vert>0</vert>
													</value>
												</parameter>
											</effect>
										</filter>
										<sourcetrack>
											<mediatype>video</mediatype>
										</sourcetrack>
										<fielddominance>upper</fielddominance>
									</clipitem>
									<enabled>TRUE</enabled>
									<locked>FALSE</locked>
								</track>
								<track>
									<clipitem id="Tords garasje - Flue (from Color) 01:00:58:12 3">
										<name>Tords garasje - Flue (from Color) 01:00:58:12</name>
										<duration>3000</duration>
										<rate>
											<ntsc>FALSE</ntsc>
											<timebase>25</timebase>
										</rate>
										<in>0</in>
										<out>3000</out>
										<start>0</start>
										<end>3000</end>
										<stillframeoffset>871</stillframeoffset>
										<pixelaspectratio>Square</pixelaspectratio>
										<enabled>TRUE</enabled>
										<anamorphic>FALSE</anamorphic>
										<alphatype>none</alphatype>
										<alphareverse>FALSE</alphareverse>
										<logginginfo>
											<scene/>
											<shottake/>
											<lognote/>
											<good>FALSE</good>
										</logginginfo>
										<labels>
											<label2/>
										</labels>
										<comments>
											<mastercomment1/>
											<mastercomment2/>
											<mastercomment3/>
											<mastercomment4/>
										</comments>
										<file id="36_g1 1"/>
										<filter>
											<effect>
												<name>Basic Motion</name>
												<effectid>basic</effectid>
												<effectcategory>motion</effectcategory>
												<effecttype>motion</effecttype>
												<mediatype>video</mediatype>
												<parameter>
													<parameterid>scale</parameterid>
													<name>Scale</name>
													<valuemin>0</valuemin>
													<valuemax>1000</valuemax>
													<value>100</value>
												</parameter>
												<parameter>
													<parameterid>rotation</parameterid>
													<name>Rotation</name>
													<valuemin>-8640</valuemin>
													<valuemax>8640</valuemax>
													<value>0</value>
												</parameter>
												<parameter>
													<parameterid>center</parameterid>
													<name>Center</name>
													<value>
														<horiz>0</horiz>
														<vert>0</vert>
													</value>
												</parameter>
												<parameter>
													<parameterid>centerOffset</parameterid>
													<name>Anchor Point</name>
													<value>
														<horiz>0</horiz>
														<vert>0</vert>
													</value>
												</parameter>
											</effect>
										</filter>
										<filter>
											<enabled>FALSE</enabled>
											<effect>
												<name>Drop Shadow</name>
												<effectid>dropshadow</effectid>
												<effectcategory>motion</effectcategory>
												<effecttype>motion</effecttype>
												<mediatype>video</mediatype>
												<parameter>
													<parameterid>offset</parameterid>
													<name>offset</name>
													<valuemin>-100</valuemin>
													<valuemax>100</valuemax>
													<value>2</value>
												</parameter>
												<parameter>
													<parameterid>angle</parameterid>
													<name>angle</name>
													<valuemin>-720</valuemin>
													<valuemax>720</valuemax>
													<value>135</value>
												</parameter>
												<parameter>
													<parameterid>color</parameterid>
													<name>color</name>
													<value>
														<alpha>0</alpha>
														<red>0</red>
														<green>0</green>
														<blue>0</blue>
													</value>
												</parameter>
												<parameter>
													<parameterid>softness</parameterid>
													<name>softness</name>
													<valuemin>0</valuemin>
													<valuemax>100</valuemax>
													<value>10</value>
												</parameter>
												<parameter>
													<parameterid>opacity</parameterid>
													<name>opacity</name>
													<valuemin>0</valuemin>
													<valuemax>100</valuemax>
													<value>50</value>
												</parameter>
											</effect>
										</filter>
										<filter>
											<enabled>FALSE</enabled>
											<effect>
												<name>Motion Blur</name>
												<effectid>motionblur</effectid>
												<effectcategory>motion</effectcategory>
												<effecttype>motion</effecttype>
												<mediatype>video</mediatype>
												<parameter>
													<parameterid>duration</parameterid>
													<name>% Blur</name>
													<valuemin>0</valuemin>
													<valuemax>1000</valuemax>
													<value>500</value>
												</parameter>
												<parameter>
													<parameterid>samples</parameterid>
													<name>Samples</name>
													<valuemin>1</valuemin>
													<valuemax>16</valuemax>
													<value>4</value>
												</parameter>
											</effect>
										</filter>
										<filter>
											<effect>
												<name>Crop</name>
												<effectid>crop</effectid>
												<effectcategory>motion</effectcategory>
												<effecttype>motion</effecttype>
												<mediatype>video</mediatype>
												<parameter>
													<parameterid>left</parameterid>
													<name>left</name>
													<valuemin>0</valuemin>
													<valuemax>100</valuemax>
													<value>0</value>
												</parameter>
												<parameter>
													<parameterid>right</parameterid>
													<name>right</name>
													<valuemin>0</valuemin>
													<valuemax>100</valuemax>
													<value>0</value>
												</parameter>
												<parameter>
													<parameterid>top</parameterid>
													<name>top</name>
													<valuemin>0</valuemin>
													<valuemax>100</valuemax>
													<value>0</value>
												</parameter>
												<parameter>
													<parameterid>bottom</parameterid>
													<name>bottom</name>
													<valuemin>0</valuemin>
													<valuemax>100</valuemax>
													<value>0</value>
												</parameter>
												<parameter>
													<parameterid>edgefeather</parameterid>
													<name>edgefeather</name>
													<valuemin>0</valuemin>
													<valuemax>100</valuemax>
													<value>0</value>
												</parameter>
											</effect>
										</filter>
										<filter>
											<effect>
												<name>Distort</name>
												<effectid>deformation</effectid>
												<effectcategory>motion</effectcategory>
												<effecttype>motion</effecttype>
												<mediatype>video</mediatype>
												<parameter>
													<parameterid>ulcorner</parameterid>
													<name>Upper Left</name>
													<value>
														<horiz>-0.5</horiz>
														<vert>-0.5</vert>
													</value>
												</parameter>
												<parameter>
													<parameterid>urcorner</parameterid>
													<name>Upper Right</name>
													<value>
														<horiz>0.5</horiz>
														<vert>-0.5</vert>
													</value>
												</parameter>
												<parameter>
													<parameterid>lrcorner</parameterid>
													<name>Lower Right</name>
													<value>
														<horiz>0.5</horiz>
														<vert>0.5</vert>
													</value>
												</parameter>
												<parameter>
													<parameterid>llcorner</parameterid>
													<name>Lower Left</name>
													<value>
														<horiz>-0.5</horiz>
														<vert>0.5</vert>
													</value>
												</parameter>
												<parameter>
													<parameterid>aspect</parameterid>
													<name>Aspect</name>
													<valuemin>-10000</valuemin>
													<valuemax>10000</valuemax>
													<value>0</value>
												</parameter>
											</effect>
										</filter>
										<filter>
											<effect>
												<name>Opacity</name>
												<effectid>opacity</effectid>
												<effectcategory>motion</effectcategory>
												<effecttype>motion</effecttype>
												<mediatype>video</mediatype>
												<parameter>
													<parameterid>opacity</parameterid>
													<name>opacity</name>
													<valuemin>0</valuemin>
													<valuemax>100</valuemax>
													<value>100</value>
												</parameter>
											</effect>
										</filter>
										<sourcetrack>
											<mediatype>video</mediatype>
										</sourcetrack>
										<fielddominance>upper</fielddominance>
										<filter>
											<effect>
												<name>Time Remap</name>
												<effectid>timeremap</effectid>
												<effectcategory>motion</effectcategory>
												<effecttype>motion</effecttype>
												<mediatype>video</mediatype>
												<parameter>
													<parameterid>variablespeed</parameterid>
													<name>variablespeed</name>
													<valuemin>0</valuemin>
													<valuemax>1</valuemax>
													<value>0</value>
												</parameter>
												<parameter>
													<parameterid>mappedduration</parameterid>
													<name>mappedduration</name>
													<value>
														<timecode>
															<rate>
																<timebase>0</timebase>
															</rate>
															<string>0</string>
															<frame>0</frame>
															<displayformat>NDF</displayformat>
														</timecode>
													</value>
												</parameter>
												<parameter>
													<parameterid>speed</parameterid>
													<name>speed</name>
													<valuemin>-10000</valuemin>
													<valuemax>10000</valuemax>
													<value>392</value>
												</parameter>
												<parameter>
													<parameterid>reverse</parameterid>
													<name>reverse</name>
													<value>FALSE</value>
												</parameter>
												<parameter>
													<parameterid>frameblending</parameterid>
													<name>frameblending</name>
													<value>TRUE</value>
												</parameter>
												<parameter>
													<parameterid>graphdict</parameterid>
													<name>graphdict</name>
													<valuemin>0</valuemin>
													<valuemax>1374</valuemax>
													<keyframe>
														<when>0</when>
														<value>0</value>
														<speedkfin>TRUE</speedkfin>
													</keyframe>
													<keyframe>
														<when>344</when>
														<value>1347</value>
													</keyframe>
													<keyframe>
														<when>3000</when>
														<value>11747.1</value>
														<speedkfout>TRUE</speedkfout>
														<speedvirtualkf>TRUE</speedvirtualkf>
													</keyframe>
													<interpolation>
														<name>FCPCurve</name>
													</interpolation>
													<value>0</value>
												</parameter>
											</effect>
										</filter>
									</clipitem>
									<enabled>TRUE</enabled>
									<locked>FALSE</locked>
								</track>
							</video>
						</media>
					</sequence>
					<sourcetrack>
						<mediatype>video</mediatype>
					</sourcetrack>
					<ismasterclip>FALSE</ismasterclip>
				</clipitem>
				<transitionitem id="1697388000 ">
					<rate>
						<ntsc>FALSE</ntsc>
						<timebase>25</timebase>
					</rate>
					<start>16243</start>
					<end>16253</end>
					<alignment>end-black</alignment>
					<effect>
						<name>Cross Dissolve</name>
						<effectid>Cross Dissolve</effectid>
						<effectcategory>Dissolve</effectcategory>
						<effecttype>transition</effecttype>
						<mediatype>video</mediatype>
						<wipecode>0</wipecode>
						<wipeaccuracy>100</wipeaccuracy>
						<startratio>0</startratio>
						<endratio>1</endratio>
						<reverse>FALSE</reverse>
					</effect>
				</transitionitem>
				<clipitem id="C0050 21">
					<name>C0050</name>
					<duration>59</duration>
					<rate>
						<ntsc>FALSE</ntsc>
						<timebase>25</timebase>
					</rate>
					<in>0</in>
					<out>59</out>
					<start>16876</start>
					<end>16935</end>
					<pixelaspectratio>Square</pixelaspectratio>
					<enabled>TRUE</enabled>
					<anamorphic>FALSE</anamorphic>
					<alphatype>none</alphatype>
					<masterclipid>C0050 22</masterclipid>
					<logginginfo>
						<scene/>
						<shottake/>
						<lognote/>
						<good>FALSE</good>
					</logginginfo>
					<labels>
						<label2/>
					</labels>
					<comments>
						<mastercomment1/>
						<mastercomment2/>
						<mastercomment3/>
						<mastercomment4/>
					</comments>
					<file id="26_g1 ">
						<name>26_g1.mov</name>
						<pathurl>file://localhost/Volumes/Askepott/Final%20Cut%20Pro%20Documents/Color%20Renderfiles/Tords%20garasje%20-%20Flue/26/26_g1.mov</pathurl>
						<rate>
							<timebase>25</timebase>
						</rate>
						<duration>59</duration>
						<timecode>
							<rate>
								<timebase>25</timebase>
							</rate>
							<string>12:45:00:06</string>
							<frame>1147506</frame>
							<displayformat>NDF</displayformat>
							<source>source</source>
							<reel>
								<name>XDCAM 20120309_113707</name>
							</reel>
						</timecode>
						<media>
							<video>
								<duration>59</duration>
								<samplecharacteristics>
									<width>1920</width>
									<height>1080</height>
								</samplecharacteristics>
							</video>
						</media>
					</file>
					<filter>
						<effect>
							<name>Distort</name>
							<effectid>deformation</effectid>
							<effectcategory>motion</effectcategory>
							<effecttype>motion</effecttype>
							<mediatype>video</mediatype>
							<parameter>
								<parameterid>ulcorner</parameterid>
								<name>Upper Left</name>
								<value>
									<horiz>-0.5</horiz>
									<vert>-0.5</vert>
								</value>
							</parameter>
							<parameter>
								<parameterid>urcorner</parameterid>
								<name>Upper Right</name>
								<value>
									<horiz>0.5</horiz>
									<vert>-0.5</vert>
								</value>
							</parameter>
							<parameter>
								<parameterid>lrcorner</parameterid>
								<name>Lower Right</name>
								<value>
									<horiz>0.5</horiz>
									<vert>0.5</vert>
								</value>
							</parameter>
							<parameter>
								<parameterid>llcorner</parameterid>
								<name>Lower Left</name>
								<value>
									<horiz>-0.5</horiz>
									<vert>0.5</vert>
								</value>
							</parameter>
							<parameter>
								<parameterid>aspect</parameterid>
								<name>Aspect</name>
								<valuemin>-10000</valuemin>
								<valuemax>10000</valuemax>
								<value>0</value>
							</parameter>
						</effect>
					</filter>
					<filter>
						<effect>
							<name>Basic Motion</name>
							<effectid>basic</effectid>
							<effectcategory>motion</effectcategory>
							<effecttype>motion</effecttype>
							<mediatype>video</mediatype>
							<parameter>
								<parameterid>scale</parameterid>
								<name>Scale</name>
								<valuemin>0</valuemin>
								<valuemax>1000</valuemax>
								<value>100</value>
							</parameter>
							<parameter>
								<parameterid>rotation</parameterid>
								<name>Rotation</name>
								<valuemin>-8640</valuemin>
								<valuemax>8640</valuemax>
								<value>0</value>
							</parameter>
							<parameter>
								<parameterid>center</parameterid>
								<name>Center</name>
								<value>
									<horiz>0</horiz>
									<vert>0</vert>
								</value>
							</parameter>
							<parameter>
								<parameterid>centerOffset</parameterid>
								<name>Anchor Point</name>
								<value>
									<horiz>0</horiz>
									<vert>0</vert>
								</value>
							</parameter>
						</effect>
					</filter>
					<sourcetrack>
						<mediatype>video</mediatype>
					</sourcetrack>
					<fielddominance>upper</fielddominance>
				</clipitem>
				<clipitem id="Wipe2_Steiner PROG SCAN3">
					<name>Wipe2_Steiner PROG SCAN</name>
					<duration>26</duration>
					<rate>
						<ntsc>FALSE</ntsc>
						<timebase>25</timebase>
					</rate>
					<in>0</in>
					<out>26</out>
					<start>19315</start>
					<end>19341</end>
					<pixelaspectratio>Square</pixelaspectratio>
					<enabled>TRUE</enabled>
					<anamorphic>FALSE</anamorphic>
					<alphatype>straight</alphatype>
					<masterclipid>Wipe2_Steiner PROG SCAN1</masterclipid>
					<logginginfo>
						<scene/>
						<shottake/>
						<lognote/>
						<good>FALSE</good>
					</logginginfo>
					<labels>
						<label2/>
					</labels>
					<comments>
						<mastercomment1/>
						<mastercomment2/>
						<mastercomment3/>
						<mastercomment4/>
					</comments>
					<file id="Wipe2_Steiner PROG SCAN2"/>
					<sourcetrack>
						<mediatype>video</mediatype>
					</sourcetrack>
					<fielddominance>upper</fielddominance>
				</clipitem>
				<clipitem id="Wipe2_Steiner PROG SCAN4">
					<name>Wipe2_Steiner PROG SCAN</name>
					<duration>26</duration>
					<rate>
						<ntsc>FALSE</ntsc>
						<timebase>25</timebase>
					</rate>
					<in>0</in>
					<out>26</out>
					<start>27480</start>
					<end>27506</end>
					<pixelaspectratio>Square</pixelaspectratio>
					<enabled>TRUE</enabled>
					<anamorphic>FALSE</anamorphic>
					<alphatype>straight</alphatype>
					<masterclipid>Wipe2_Steiner PROG SCAN1</masterclipid>
					<logginginfo>
						<scene/>
						<shottake/>
						<lognote/>
						<good>FALSE</good>
					</logginginfo>
					<labels>
						<label2/>
					</labels>
					<comments>
						<mastercomment1/>
						<mastercomment2/>
						<mastercomment3/>
						<mastercomment4/>
					</comments>
					<file id="Wipe2_Steiner PROG SCAN2"/>
					<sourcetrack>
						<mediatype>video</mediatype>
					</sourcetrack>
					<fielddominance>upper</fielddominance>
				</clipitem>
				<generatoritem id="Scrolling Text">
					<name>Scrolling Text</name>
					<duration>3000</duration>
					<rate>
						<ntsc>FALSE</ntsc>
						<timebase>25</timebase>
					</rate>
					<in>1406</in>
					<out>1780</out>
					<start>28980</start>
					<end>-1</end>
					<enabled>TRUE</enabled>
					<anamorphic>FALSE</anamorphic>
					<alphatype>black</alphatype>
					<logginginfo>
						<scene/>
						<shottake/>
						<lognote/>
						<good>FALSE</good>
					</logginginfo>
					<labels>
						<label2/>
					</labels>
					<comments>
						<mastercomment1/>
						<mastercomment2/>
						<mastercomment3/>
						<mastercomment4/>
					</comments>
					<effect>
						<name>Scrolling Text</name>
						<effectid>Scrolling Text</effectid>
						<effectcategory>Text</effectcategory>
						<effecttype>generator</effecttype>
						<mediatype>video</mediatype>
						<parameter>
							<parameterid>s</parameterid>
							<name>Text</name>
							<value>Programleder:&#13;Christer Johnsgård&#13;&#13;Kråka:&#13;Mari Bjørnsdatter Knudsen&#13;&#13;Medvirkende:&#13;Bertine&#13;Tord&#13;Mille&#13;Emma&#13;&#13;Manus:&#13;Christer Johnsgård&#13;Mari Bjørnsdatter Knudsen&#13;Ragnhild Giæver&#13;&#13;Vignettmusikk:&#13;Aggie E. Peterson&#13;&#13;&#13;Kor:&#13;Embla&#13;Irana&#13;Isak&#13;Kamilla&#13;&#13;Musikk:&#13;"Meitemark" - Aggie E. Peterson&#13;Sonoton Recorded Music Library&#13;&#13;Vignett:&#13;Leif Henning Broch Johnsen&#13;Christian Mona&#13;Kurt Jarnes&#13;&#13;Scenograf:&#13;Britt Halvorsen&#13;&#13;Rekvisitør:&#13;Lill Birgitte Larsen&#13;&#13;Kostymer:&#13;Christin Jakobsen&#13;&#13;Dukkemaker:&#13;Christina Espedal&#13;&#13;Foto:&#13;Tor Even Mathisen&#13;Harald Albrigtsen&#13;&#13;Redigering:&#13;Per Einar Grønmo&#13;Harald Albrigtsen&#13;Tor Even Mathisen&#13;&#13;Lydmix:&#13;Nils Petter Christensen&#13;&#13;Produksjonsleder:&#13;Cecilie Arder Skildheim&#13;&#13;Regi:&#13;Ragnhild Giæver&#13;&#13;Prosjektleder:&#13;Mari Bjørnsdatter Knudsen&#13;Gunnar Hammer&#13;&#13;Redaktør NRK Super:&#13;Nils Stokke&#13;&#13;&#13;Produsert av:&#13;NRK Troms og Finnmark&#13;&#13;</value>
						</parameter>
						<parameter>
							<parameterid>font</parameterid>
							<name>Font</name>
							<value>Neo Sans Pro</value>
						</parameter>
						<parameter>
							<parameterid>size</parameterid>
							<name>Size</name>
							<valuemin>4</valuemin>
							<valuemax>100</valuemax>
							<value>18</value>
						</parameter>
						<parameter>
							<parameterid>style</parameterid>
							<name>Style</name>
							<valuemin>1</valuemin>
							<valuemax>4</valuemax>
							<valuelist>
								<valueentry>
									<name>Plain</name>
									<value>1</value>
								</valueentry>
								<valueentry>
									<name>Bold</name>
									<value>2</value>
								</valueentry>
								<valueentry>
									<name>Italic</name>
									<value>3</value>
								</valueentry>
								<valueentry>
									<name>Bold/Italic</name>
									<value>4</value>
								</valueentry>
							</valuelist>
							<value>1</value>
						</parameter>
						<parameter>
							<parameterid>align</parameterid>
							<name>Alignment</name>
							<valuemin>1</valuemin>
							<valuemax>3</valuemax>
							<valuelist>
								<valueentry>
									<name>Left</name>
									<value>1</value>
								</valueentry>
								<valueentry>
									<name>Center</name>
									<value>2</value>
								</valueentry>
								<valueentry>
									<name>Right</name>
									<value>3</value>
								</valueentry>
							</valuelist>
							<value>2</value>
						</parameter>
						<parameter>
							<parameterid>col</parameterid>
							<name>Color</name>
							<value>
								<alpha>255</alpha>
								<red>255</red>
								<green>150</green>
								<blue>0</blue>
							</value>
						</parameter>
						<parameter>
							<parameterid>spacing</parameterid>
							<name>Spacing</name>
							<valuemin>-5</valuemin>
							<valuemax>10</valuemax>
							<value>1</value>
						</parameter>
						<parameter>
							<parameterid>leading</parameterid>
							<name>Leading</name>
							<valuemin>-100</valuemin>
							<valuemax>200</valuemax>
							<value>0</value>
						</parameter>
						<parameter>
							<parameterid>indent</parameterid>
							<name>Indent</name>
							<valuemin>0</valuemin>
							<valuemax>100</valuemax>
							<value>10</value>
						</parameter>
						<parameter>
							<parameterid>gap</parameterid>
							<name>Gap Width</name>
							<valuemin>0</valuemin>
							<valuemax>30</valuemax>
							<value>5</value>
						</parameter>
						<parameter>
							<parameterid>fadesize</parameterid>
							<name>Fade Size</name>
							<valuemin>0</valuemin>
							<valuemax>50</valuemax>
							<value>0</value>
						</parameter>
						<parameter>
							<parameterid>direction</parameterid>
							<name>Direction</name>
							<valuemin>1</valuemin>
							<valuemax>2</valuemax>
							<valuelist>
								<valueentry>
									<name>Up</name>
									<value>1</value>
								</valueentry>
								<valueentry>
									<name>Down</name>
									<value>2</value>
								</valueentry>
							</valuelist>
							<value>1</value>
						</parameter>
						<parameter>
							<parameterid>autokern</parameterid>
							<name>Auto Kerning</name>
							<value>TRUE</value>
						</parameter>
					</effect>
					<filter>
						<effect>
							<name>Basic Motion</name>
							<effectid>basic</effectid>
							<effectcategory>motion</effectcategory>
							<effecttype>motion</effecttype>
							<mediatype>video</mediatype>
							<parameter>
								<parameterid>scale</parameterid>
								<name>Scale</name>
								<valuemin>0</valuemin>
								<valuemax>1000</valuemax>
								<keyframe>
									<when>1770</when>
									<value>100</value>
								</keyframe>
								<interpolation>
									<name>FCPCurve</name>
								</interpolation>
								<value>100</value>
							</parameter>
							<parameter>
								<parameterid>rotation</parameterid>
								<name>Rotation</name>
								<valuemin>-8640</valuemin>
								<valuemax>8640</valuemax>
								<keyframe>
									<when>1770</when>
									<value>0</value>
								</keyframe>
								<interpolation>
									<name>FCPCurve</name>
								</interpolation>
								<value>0</value>
							</parameter>
							<parameter>
								<parameterid>center</parameterid>
								<name>Center</name>
								<keyframe>
									<when>1770</when>
									<value>
										<horiz>0</horiz>
										<vert>0</vert>
									</value>
								</keyframe>
								<interpolation>
									<name>FCPCurve</name>
								</interpolation>
							</parameter>
							<parameter>
								<parameterid>centerOffset</parameterid>
								<name>Anchor Point</name>
								<keyframe>
									<when>1770</when>
									<value>
										<horiz>0</horiz>
										<vert>0</vert>
									</value>
								</keyframe>
								<interpolation>
									<name>FCPCurve</name>
								</interpolation>
							</parameter>
						</effect>
					</filter>
					<filter>
						<enabled>TRUE</enabled>
						<effect>
							<name>Drop Shadow</name>
							<effectid>dropshadow</effectid>
							<effectcategory>motion</effectcategory>
							<effecttype>motion</effecttype>
							<mediatype>video</mediatype>
							<parameter>
								<parameterid>offset</parameterid>
								<name>offset</name>
								<valuemin>-100</valuemin>
								<valuemax>100</valuemax>
								<value>0.8</value>
							</parameter>
							<parameter>
								<parameterid>angle</parameterid>
								<name>angle</name>
								<valuemin>-720</valuemin>
								<valuemax>720</valuemax>
								<value>135</value>
							</parameter>
							<parameter>
								<parameterid>color</parameterid>
								<name>color</name>
								<value>
									<alpha>0</alpha>
									<red>0</red>
									<green>0</green>
									<blue>0</blue>
								</value>
							</parameter>
							<parameter>
								<parameterid>softness</parameterid>
								<name>softness</name>
								<valuemin>0</valuemin>
								<valuemax>100</valuemax>
								<value>5</value>
							</parameter>
							<parameter>
								<parameterid>opacity</parameterid>
								<name>opacity</name>
								<valuemin>0</valuemin>
								<valuemax>100</valuemax>
								<value>75</value>
							</parameter>
						</effect>
					</filter>
					<filter>
						<enabled>FALSE</enabled>
						<effect>
							<name>Motion Blur</name>
							<effectid>motionblur</effectid>
							<effectcategory>motion</effectcategory>
							<effecttype>motion</effecttype>
							<mediatype>video</mediatype>
							<parameter>
								<parameterid>duration</parameterid>
								<name>% Blur</name>
								<valuemin>0</valuemin>
								<valuemax>1000</valuemax>
								<value>500</value>
							</parameter>
							<parameter>
								<parameterid>samples</parameterid>
								<name>Samples</name>
								<valuemin>1</valuemin>
								<valuemax>16</valuemax>
								<value>4</value>
							</parameter>
						</effect>
					</filter>
					<filter>
						<effect>
							<name>Crop</name>
							<effectid>crop</effectid>
							<effectcategory>motion</effectcategory>
							<effecttype>motion</effecttype>
							<mediatype>video</mediatype>
							<parameter>
								<parameterid>left</parameterid>
								<name>left</name>
								<valuemin>0</valuemin>
								<valuemax>100</valuemax>
								<keyframe>
									<when>1770</when>
									<value>0</value>
								</keyframe>
								<interpolation>
									<name>FCPCurve</name>
								</interpolation>
								<value>0</value>
							</parameter>
							<parameter>
								<parameterid>right</parameterid>
								<name>right</name>
								<valuemin>0</valuemin>
								<valuemax>100</valuemax>
								<keyframe>
									<when>1770</when>
									<value>0</value>
								</keyframe>
								<interpolation>
									<name>FCPCurve</name>
								</interpolation>
								<value>0</value>
							</parameter>
							<parameter>
								<parameterid>top</parameterid>
								<name>top</name>
								<valuemin>0</valuemin>
								<valuemax>100</valuemax>
								<keyframe>
									<when>1770</when>
									<value>0</value>
								</keyframe>
								<interpolation>
									<name>FCPCurve</name>
								</interpolation>
								<value>0</value>
							</parameter>
							<parameter>
								<parameterid>bottom</parameterid>
								<name>bottom</name>
								<valuemin>0</valuemin>
								<valuemax>100</valuemax>
								<keyframe>
									<when>1770</when>
									<value>0</value>
								</keyframe>
								<interpolation>
									<name>FCPCurve</name>
								</interpolation>
								<value>0</value>
							</parameter>
							<parameter>
								<parameterid>edgefeather</parameterid>
								<name>edgefeather</name>
								<valuemin>0</valuemin>
								<valuemax>100</valuemax>
								<keyframe>
									<when>1770</when>
									<value>0</value>
								</keyframe>
								<interpolation>
									<name>FCPCurve</name>
								</interpolation>
								<value>0</value>
							</parameter>
						</effect>
					</filter>
					<filter>
						<effect>
							<name>Distort</name>
							<effectid>deformation</effectid>
							<effectcategory>motion</effectcategory>
							<effecttype>motion</effecttype>
							<mediatype>video</mediatype>
							<parameter>
								<parameterid>ulcorner</parameterid>
								<name>Upper Left</name>
								<keyframe>
									<when>1770</when>
									<value>
										<horiz>-0.5</horiz>
										<vert>-0.5</vert>
									</value>
								</keyframe>
								<interpolation>
									<name>FCPCurve</name>
								</interpolation>
							</parameter>
							<parameter>
								<parameterid>urcorner</parameterid>
								<name>Upper Right</name>
								<keyframe>
									<when>1770</when>
									<value>
										<horiz>0.5</horiz>
										<vert>-0.5</vert>
									</value>
								</keyframe>
								<interpolation>
									<name>FCPCurve</name>
								</interpolation>
							</parameter>
							<parameter>
								<parameterid>lrcorner</parameterid>
								<name>Lower Right</name>
								<keyframe>
									<when>1770</when>
									<value>
										<horiz>0.5</horiz>
										<vert>0.5</vert>
									</value>
								</keyframe>
								<interpolation>
									<name>FCPCurve</name>
								</interpolation>
							</parameter>
							<parameter>
								<parameterid>llcorner</parameterid>
								<name>Lower Left</name>
								<keyframe>
									<when>1770</when>
									<value>
										<horiz>-0.5</horiz>
										<vert>0.5</vert>
									</value>
								</keyframe>
								<interpolation>
									<name>FCPCurve</name>
								</interpolation>
							</parameter>
							<parameter>
								<parameterid>aspect</parameterid>
								<name>Aspect</name>
								<valuemin>-10000</valuemin>
								<valuemax>10000</valuemax>
								<keyframe>
									<when>1770</when>
									<value>0</value>
								</keyframe>
								<interpolation>
									<name>FCPCurve</name>
								</interpolation>
								<value>0</value>
							</parameter>
						</effect>
					</filter>
					<filter>
						<effect>
							<name>Opacity</name>
							<effectid>opacity</effectid>
							<effectcategory>motion</effectcategory>
							<effecttype>motion</effecttype>
							<mediatype>video</mediatype>
							<parameter>
								<parameterid>opacity</parameterid>
								<name>opacity</name>
								<valuemin>0</valuemin>
								<valuemax>100</valuemax>
								<value>100</value>
							</parameter>
						</effect>
					</filter>
					<sourcetrack>
						<mediatype>video</mediatype>
					</sourcetrack>
				</generatoritem>
				<transitionitem id="1697398472 ">
					<rate>
						<ntsc>FALSE</ntsc>
						<timebase>25</timebase>
					</rate>
					<start>29329</start>
					<end>29354</end>
					<alignment>end-black</alignment>
					<effect>
						<name>Cross Dissolve</name>
						<effectid>Cross Dissolve</effectid>
						<effectcategory>Dissolve</effectcategory>
						<effecttype>transition</effecttype>
						<mediatype>video</mediatype>
						<wipecode>0</wipecode>
						<wipeaccuracy>100</wipeaccuracy>
						<startratio>0</startratio>
						<endratio>1</endratio>
						<reverse>FALSE</reverse>
					</effect>
				</transitionitem>
				<clipitem id="NRK © 2011 Sluttplakat 1920x1080.tif">
					<name>NRK © 2011 Sluttplakat 1920x1080.tif</name>
					<duration>3002</duration>
					<rate>
						<ntsc>FALSE</ntsc>
						<timebase>25</timebase>
					</rate>
					<in>1129</in>
					<out>1254</out>
					<start>29355</start>
					<end>29480</end>
					<pixelaspectratio>Square</pixelaspectratio>
					<stillframe>TRUE</stillframe>
					<enabled>TRUE</enabled>
					<anamorphic>FALSE</anamorphic>
					<alphatype>none</alphatype>
					<masterclipid>NRK © 2011 Sluttplakat 1920x1080.tif1</masterclipid>
					<logginginfo>
						<scene/>
						<shottake/>
						<lognote/>
						<good>FALSE</good>
					</logginginfo>
					<labels>
						<label2/>
					</labels>
					<comments>
						<mastercomment1/>
						<mastercomment2/>
						<mastercomment3/>
						<mastercomment4/>
					</comments>
					<file id="NRK © 2012 Sluttplakat">
						<name>NRK © 2012 Sluttplakat.tif</name>
						<pathurl>file://localhost/Volumes/Askepott/Prosjekter/DNPR637010_Kra%CC%8Akeklubben_TEM_011212/Grafikk/NRK%20%C2%A9%202012%20Sluttplakat.tif</pathurl>
						<rate>
							<timebase>25</timebase>
						</rate>
						<duration>2</duration>
						<width>1920</width>
						<height>1080</height>
						<media>
							<video>
								<duration>2</duration>
								<stillframe>TRUE</stillframe>
								<samplecharacteristics>
									<width>1920</width>
									<height>1080</height>
								</samplecharacteristics>
							</video>
						</media>
					</file>
					<filter>
						<effect>
							<name>Opacity</name>
							<effectid>opacity</effectid>
							<effectcategory>motion</effectcategory>
							<effecttype>motion</effecttype>
							<mediatype>video</mediatype>
							<parameter>
								<parameterid>opacity</parameterid>
								<name>opacity</name>
								<valuemin>0</valuemin>
								<valuemax>100</valuemax>
								<keyframe>
									<when>1130</when>
									<value>0</value>
									<outscale>0</outscale>
									<outbez>
										<horiz>6.25</horiz>
										<vert>0</vert>
									</outbez>
								</keyframe>
								<keyframe>
									<when>1155</when>
									<value>100</value>
									<inscale>0</inscale>
									<inbez>
										<horiz>6.25</horiz>
										<vert>-3.14159</vert>
									</inbez>
									<outscale>0</outscale>
									<outbez>
										<horiz>24.5</horiz>
										<vert>0</vert>
									</outbez>
								</keyframe>
								<keyframe>
									<when>1223</when>
									<value>100</value>
									<inscale>0</inscale>
									<inbez>
										<horiz>24.5</horiz>
										<vert>-3.14159</vert>
									</inbez>
									<outscale>0</outscale>
									<outbez>
										<horiz>6.25</horiz>
										<vert>0</vert>
									</outbez>
								</keyframe>
								<keyframe>
									<when>1253</when>
									<value>0</value>
									<inscale>0</inscale>
									<inbez>
										<horiz>6.25</horiz>
										<vert>-3.14159</vert>
									</inbez>
								</keyframe>
								<interpolation>
									<name>FCPCurve</name>
								</interpolation>
								<value>100</value>
							</parameter>
						</effect>
					</filter>
					<sourcetrack>
						<mediatype>video</mediatype>
					</sourcetrack>
					<fielddominance>none</fielddominance>
				</clipitem>
				<enabled>TRUE</enabled>
				<locked>FALSE</locked>
			</track>
			<track>
				<clipitem id="525_0296_01 ">
					<name>525_0296_01</name>
					<duration>106</duration>
					<rate>
						<ntsc>FALSE</ntsc>
						<timebase>25</timebase>
					</rate>
					<in>25</in>
					<out>81</out>
					<start>5260</start>
					<end>5316</end>
					<pixelaspectratio>Square</pixelaspectratio>
					<anamorphic>FALSE</anamorphic>
					<alphatype>none</alphatype>
					<logginginfo>
						<scene/>
						<shottake/>
						<lognote/>
						<good>FALSE</good>
					</logginginfo>
					<labels>
						<label2/>
					</labels>
					<comments>
						<mastercomment1/>
						<mastercomment2/>
						<mastercomment3/>
						<mastercomment4/>
					</comments>
					<file id="54_g1 ">
						<name>54_g1.mov</name>
						<pathurl>file://localhost/Volumes/Askepott/Final%20Cut%20Pro%20Documents/Color%20Renderfiles/Lam%20v1/54/54_g1.mov</pathurl>
						<rate>
							<timebase>25</timebase>
						</rate>
						<duration>106</duration>
						<timecode>
							<rate>
								<timebase>25</timebase>
							</rate>
							<string>11:03:26:21</string>
							<frame>995171</frame>
							<displayformat>NDF</displayformat>
							<source>source</source>
							<reel>
								<name>Untitled</name>
							</reel>
						</timecode>
						<media>
							<video>
								<duration>106</duration>
								<samplecharacteristics>
									<width>1920</width>
									<height>1080</height>
								</samplecharacteristics>
							</video>
						</media>
					</file>
					<filter>
						<effect>
							<name>Distort</name>
							<effectid>deformation</effectid>
							<effectcategory>motion</effectcategory>
							<effecttype>motion</effecttype>
							<mediatype>video</mediatype>
							<parameter>
								<parameterid>ulcorner</parameterid>
								<name>Upper Left</name>
								<value>
									<horiz>-0.5</horiz>
									<vert>-0.5</vert>
								</value>
							</parameter>
							<parameter>
								<parameterid>urcorner</parameterid>
								<name>Upper Right</name>
								<value>
									<horiz>0.5</horiz>
									<vert>-0.5</vert>
								</value>
							</parameter>
							<parameter>
								<parameterid>lrcorner</parameterid>
								<name>Lower Right</name>
								<value>
									<horiz>0.5</horiz>
									<vert>0.5</vert>
								</value>
							</parameter>
							<parameter>
								<parameterid>llcorner</parameterid>
								<name>Lower Left</name>
								<value>
									<horiz>-0.5</horiz>
									<vert>0.5</vert>
								</value>
							</parameter>
							<parameter>
								<parameterid>aspect</parameterid>
								<name>Aspect</name>
								<valuemin>-10000</valuemin>
								<valuemax>10000</valuemax>
								<value>0</value>
							</parameter>
						</effect>
					</filter>
					<filter>
						<effect>
							<name>Basic Motion</name>
							<effectid>basic</effectid>
							<effectcategory>motion</effectcategory>
							<effecttype>motion</effecttype>
							<mediatype>video</mediatype>
							<parameter>
								<parameterid>scale</parameterid>
								<name>Scale</name>
								<valuemin>0</valuemin>
								<valuemax>1000</valuemax>
								<value>100</value>
							</parameter>
							<parameter>
								<parameterid>rotation</parameterid>
								<name>Rotation</name>
								<valuemin>-8640</valuemin>
								<valuemax>8640</valuemax>
								<value>0</value>
							</parameter>
							<parameter>
								<parameterid>center</parameterid>
								<name>Center</name>
								<value>
									<horiz>0</horiz>
									<vert>0</vert>
								</value>
							</parameter>
							<parameter>
								<parameterid>centerOffset</parameterid>
								<name>Anchor Point</name>
								<value>
									<horiz>0</horiz>
									<vert>0</vert>
								</value>
							</parameter>
						</effect>
					</filter>
					<sourcetrack>
						<mediatype>video</mediatype>
					</sourcetrack>
					<fielddominance>upper</fielddominance>
				</clipitem>
				<clipitem id="525_0267_01 ">
					<name>525_0267_01</name>
					<duration>143</duration>
					<rate>
						<ntsc>FALSE</ntsc>
						<timebase>25</timebase>
					</rate>
					<in>25</in>
					<out>118</out>
					<start>5569</start>
					<end>5662</end>
					<pixelaspectratio>Square</pixelaspectratio>
					<anamorphic>FALSE</anamorphic>
					<alphatype>none</alphatype>
					<logginginfo>
						<scene/>
						<shottake/>
						<lognote/>
						<good>FALSE</good>
					</logginginfo>
					<labels>
						<label>Good Take</label>
						<label2/>
					</labels>
					<comments>
						<mastercomment1/>
						<mastercomment2/>
						<mastercomment3/>
						<mastercomment4/>
					</comments>
					<file id="55_g1 ">
						<name>55_g1.mov</name>
						<pathurl>file://localhost/Volumes/Askepott/Final%20Cut%20Pro%20Documents/Color%20Renderfiles/Lam%20v1/55/55_g1.mov</pathurl>
						<rate>
							<timebase>25</timebase>
						</rate>
						<duration>143</duration>
						<timecode>
							<rate>
								<timebase>25</timebase>
							</rate>
							<string>10:25:13:05</string>
							<frame>937830</frame>
							<displayformat>NDF</displayformat>
							<source>source</source>
							<reel>
								<name>Untitled</name>
							</reel>
						</timecode>
						<media>
							<video>
								<duration>143</duration>
								<samplecharacteristics>
									<width>1920</width>
									<height>1080</height>
								</samplecharacteristics>
							</video>
						</media>
					</file>
					<filter>
						<effect>
							<name>Distort</name>
							<effectid>deformation</effectid>
							<effectcategory>motion</effectcategory>
							<effecttype>motion</effecttype>
							<mediatype>video</mediatype>
							<parameter>
								<parameterid>ulcorner</parameterid>
								<name>Upper Left</name>
								<value>
									<horiz>-0.5</horiz>
									<vert>-0.5</vert>
								</value>
							</parameter>
							<parameter>
								<parameterid>urcorner</parameterid>
								<name>Upper Right</name>
								<value>
									<horiz>0.5</horiz>
									<vert>-0.5</vert>
								</value>
							</parameter>
							<parameter>
								<parameterid>lrcorner</parameterid>
								<name>Lower Right</name>
								<value>
									<horiz>0.5</horiz>
									<vert>0.5</vert>
								</value>
							</parameter>
							<parameter>
								<parameterid>llcorner</parameterid>
								<name>Lower Left</name>
								<value>
									<horiz>-0.5</horiz>
									<vert>0.5</vert>
								</value>
							</parameter>
							<parameter>
								<parameterid>aspect</parameterid>
								<name>Aspect</name>
								<valuemin>-10000</valuemin>
								<valuemax>10000</valuemax>
								<value>0</value>
							</parameter>
						</effect>
					</filter>
					<filter>
						<effect>
							<name>Basic Motion</name>
							<effectid>basic</effectid>
							<effectcategory>motion</effectcategory>
							<effecttype>motion</effecttype>
							<mediatype>video</mediatype>
							<parameter>
								<parameterid>scale</parameterid>
								<name>Scale</name>
								<valuemin>0</valuemin>
								<valuemax>1000</valuemax>
								<value>100</value>
							</parameter>
							<parameter>
								<parameterid>rotation</parameterid>
								<name>Rotation</name>
								<valuemin>-8640</valuemin>
								<valuemax>8640</valuemax>
								<value>0</value>
							</parameter>
							<parameter>
								<parameterid>center</parameterid>
								<name>Center</name>
								<value>
									<horiz>0</horiz>
									<vert>0</vert>
								</value>
							</parameter>
							<parameter>
								<parameterid>centerOffset</parameterid>
								<name>Anchor Point</name>
								<value>
									<horiz>0</horiz>
									<vert>0</vert>
								</value>
							</parameter>
						</effect>
					</filter>
					<sourcetrack>
						<mediatype>video</mediatype>
					</sourcetrack>
					<fielddominance>upper</fielddominance>
				</clipitem>
				<clipitem id="C0028 ">
					<name>C0028</name>
					<duration>108</duration>
					<rate>
						<ntsc>FALSE</ntsc>
						<timebase>25</timebase>
					</rate>
					<in>0</in>
					<out>108</out>
					<start>15053</start>
					<end>15161</end>
					<pixelaspectratio>Square</pixelaspectratio>
					<anamorphic>FALSE</anamorphic>
					<alphatype>none</alphatype>
					<masterclipid>C0028 1</masterclipid>
					<logginginfo>
						<scene/>
						<shottake/>
						<lognote/>
						<good>FALSE</good>
					</logginginfo>
					<labels>
						<label2/>
					</labels>
					<comments>
						<mastercomment1/>
						<mastercomment2/>
						<mastercomment3/>
						<mastercomment4/>
					</comments>
					<file id="28_g1 1">
						<name>28_g1.mov</name>
						<pathurl>file://localhost/Volumes/Askepott/Final%20Cut%20Pro%20Documents/Color%20Renderfiles/Tords%20garasje%20-%20Flue/28/28_g1.mov</pathurl>
						<rate>
							<timebase>25</timebase>
						</rate>
						<duration>108</duration>
						<timecode>
							<rate>
								<timebase>25</timebase>
							</rate>
							<string>12:36:22:09</string>
							<frame>1134559</frame>
							<displayformat>NDF</displayformat>
							<source>source</source>
							<reel>
								<name>XDCAM 20120309_113707</name>
							</reel>
						</timecode>
						<media>
							<video>
								<duration>108</duration>
								<samplecharacteristics>
									<width>1920</width>
									<height>1080</height>
								</samplecharacteristics>
							</video>
						</media>
					</file>
					<filter>
						<effect>
							<name>Distort</name>
							<effectid>deformation</effectid>
							<effectcategory>motion</effectcategory>
							<effecttype>motion</effecttype>
							<mediatype>video</mediatype>
							<parameter>
								<parameterid>ulcorner</parameterid>
								<name>Upper Left</name>
								<value>
									<horiz>-0.5</horiz>
									<vert>-0.5</vert>
								</value>
							</parameter>
							<parameter>
								<parameterid>urcorner</parameterid>
								<name>Upper Right</name>
								<value>
									<horiz>0.5</horiz>
									<vert>-0.5</vert>
								</value>
							</parameter>
							<parameter>
								<parameterid>lrcorner</parameterid>
								<name>Lower Right</name>
								<value>
									<horiz>0.5</horiz>
									<vert>0.5</vert>
								</value>
							</parameter>
							<parameter>
								<parameterid>llcorner</parameterid>
								<name>Lower Left</name>
								<value>
									<horiz>-0.5</horiz>
									<vert>0.5</vert>
								</value>
							</parameter>
							<parameter>
								<parameterid>aspect</parameterid>
								<name>Aspect</name>
								<valuemin>-10000</valuemin>
								<valuemax>10000</valuemax>
								<value>0</value>
							</parameter>
						</effect>
					</filter>
					<filter>
						<effect>
							<name>Basic Motion</name>
							<effectid>basic</effectid>
							<effectcategory>motion</effectcategory>
							<effecttype>motion</effecttype>
							<mediatype>video</mediatype>
							<parameter>
								<parameterid>scale</parameterid>
								<name>Scale</name>
								<valuemin>0</valuemin>
								<valuemax>1000</valuemax>
								<value>100</value>
							</parameter>
							<parameter>
								<parameterid>rotation</parameterid>
								<name>Rotation</name>
								<valuemin>-8640</valuemin>
								<valuemax>8640</valuemax>
								<value>0</value>
							</parameter>
							<parameter>
								<parameterid>center</parameterid>
								<name>Center</name>
								<value>
									<horiz>0</horiz>
									<vert>0</vert>
								</value>
							</parameter>
							<parameter>
								<parameterid>centerOffset</parameterid>
								<name>Anchor Point</name>
								<value>
									<horiz>0</horiz>
									<vert>0</vert>
								</value>
							</parameter>
						</effect>
					</filter>
					<sourcetrack>
						<mediatype>video</mediatype>
					</sourcetrack>
					<fielddominance>upper</fielddominance>
				</clipitem>
				<clipitem id="MVI_0126 ">
					<name>MVI_0126</name>
					<duration>98</duration>
					<rate>
						<ntsc>FALSE</ntsc>
						<timebase>25</timebase>
					</rate>
					<in>0</in>
					<out>98</out>
					<start>16932</start>
					<end>-1</end>
					<pixelaspectratio>Square</pixelaspectratio>
					<anamorphic>FALSE</anamorphic>
					<alphatype>none</alphatype>
					<masterclipid>MVI_0126 1</masterclipid>
					<logginginfo>
						<scene/>
						<shottake/>
						<lognote/>
						<good>FALSE</good>
					</logginginfo>
					<labels>
						<label2/>
					</labels>
					<comments>
						<mastercomment1/>
						<mastercomment2/>
						<mastercomment3/>
						<mastercomment4/>
					</comments>
					<file id="29_g1 1">
						<name>29_g1.mov</name>
						<pathurl>file://localhost/Volumes/Askepott/Final%20Cut%20Pro%20Documents/Color%20Renderfiles/Tords%20garasje%20-%20Flue/29/29_g1.mov</pathurl>
						<rate>
							<timebase>25</timebase>
						</rate>
						<duration>98</duration>
						<timecode>
							<rate>
								<timebase>25</timebase>
							</rate>
							<string>00:00:20:04</string>
							<frame>504</frame>
							<displayformat>NDF</displayformat>
							<source>source</source>
						</timecode>
						<media>
							<video>
								<duration>98</duration>
								<samplecharacteristics>
									<width>1920</width>
									<height>1080</height>
								</samplecharacteristics>
							</video>
						</media>
					</file>
					<filter>
						<effect>
							<name>Basic Motion</name>
							<effectid>basic</effectid>
							<effectcategory>motion</effectcategory>
							<effecttype>motion</effecttype>
							<mediatype>video</mediatype>
							<parameter>
								<parameterid>scale</parameterid>
								<name>Scale</name>
								<valuemin>0</valuemin>
								<valuemax>1000</valuemax>
								<keyframe>
									<when>0</when>
									<value>100</value>
								</keyframe>
								<keyframe>
									<when>98</when>
									<value>110</value>
								</keyframe>
								<interpolation>
									<name>FCPCurve</name>
								</interpolation>
								<value>100</value>
							</parameter>
							<parameter>
								<parameterid>rotation</parameterid>
								<name>Rotation</name>
								<valuemin>-8640</valuemin>
								<valuemax>8640</valuemax>
								<value>0</value>
							</parameter>
							<parameter>
								<parameterid>center</parameterid>
								<name>Center</name>
								<value>
									<horiz>0</horiz>
									<vert>0</vert>
								</value>
							</parameter>
							<parameter>
								<parameterid>centerOffset</parameterid>
								<name>Anchor Point</name>
								<value>
									<horiz>0</horiz>
									<vert>0</vert>
								</value>
							</parameter>
						</effect>
					</filter>
					<filter>
						<enabled>FALSE</enabled>
						<effect>
							<name>Drop Shadow</name>
							<effectid>dropshadow</effectid>
							<effectcategory>motion</effectcategory>
							<effecttype>motion</effecttype>
							<mediatype>video</mediatype>
							<parameter>
								<parameterid>offset</parameterid>
								<name>offset</name>
								<valuemin>-100</valuemin>
								<valuemax>100</valuemax>
								<value>2</value>
							</parameter>
							<parameter>
								<parameterid>angle</parameterid>
								<name>angle</name>
								<valuemin>-720</valuemin>
								<valuemax>720</valuemax>
								<value>135</value>
							</parameter>
							<parameter>
								<parameterid>color</parameterid>
								<name>color</name>
								<value>
									<alpha>0</alpha>
									<red>0</red>
									<green>0</green>
									<blue>0</blue>
								</value>
							</parameter>
							<parameter>
								<parameterid>softness</parameterid>
								<name>softness</name>
								<valuemin>0</valuemin>
								<valuemax>100</valuemax>
								<value>10</value>
							</parameter>
							<parameter>
								<parameterid>opacity</parameterid>
								<name>opacity</name>
								<valuemin>0</valuemin>
								<valuemax>100</valuemax>
								<value>50</value>
							</parameter>
						</effect>
					</filter>
					<filter>
						<enabled>FALSE</enabled>
						<effect>
							<name>Motion Blur</name>
							<effectid>motionblur</effectid>
							<effectcategory>motion</effectcategory>
							<effecttype>motion</effecttype>
							<mediatype>video</mediatype>
							<parameter>
								<parameterid>duration</parameterid>
								<name>% Blur</name>
								<valuemin>0</valuemin>
								<valuemax>1000</valuemax>
								<value>500</value>
							</parameter>
							<parameter>
								<parameterid>samples</parameterid>
								<name>Samples</name>
								<valuemin>1</valuemin>
								<valuemax>16</valuemax>
								<value>4</value>
							</parameter>
						</effect>
					</filter>
					<filter>
						<effect>
							<name>Crop</name>
							<effectid>crop</effectid>
							<effectcategory>motion</effectcategory>
							<effecttype>motion</effecttype>
							<mediatype>video</mediatype>
							<parameter>
								<parameterid>left</parameterid>
								<name>left</name>
								<valuemin>0</valuemin>
								<valuemax>100</valuemax>
								<value>0</value>
							</parameter>
							<parameter>
								<parameterid>right</parameterid>
								<name>right</name>
								<valuemin>0</valuemin>
								<valuemax>100</valuemax>
								<value>0</value>
							</parameter>
							<parameter>
								<parameterid>top</parameterid>
								<name>top</name>
								<valuemin>0</valuemin>
								<valuemax>100</valuemax>
								<value>0</value>
							</parameter>
							<parameter>
								<parameterid>bottom</parameterid>
								<name>bottom</name>
								<valuemin>0</valuemin>
								<valuemax>100</valuemax>
								<value>0</value>
							</parameter>
							<parameter>
								<parameterid>edgefeather</parameterid>
								<name>edgefeather</name>
								<valuemin>0</valuemin>
								<valuemax>100</valuemax>
								<value>0</value>
							</parameter>
						</effect>
					</filter>
					<filter>
						<effect>
							<name>Distort</name>
							<effectid>deformation</effectid>
							<effectcategory>motion</effectcategory>
							<effecttype>motion</effecttype>
							<mediatype>video</mediatype>
							<parameter>
								<parameterid>ulcorner</parameterid>
								<name>Upper Left</name>
								<value>
									<horiz>-0.5</horiz>
									<vert>-0.5</vert>
								</value>
							</parameter>
							<parameter>
								<parameterid>urcorner</parameterid>
								<name>Upper Right</name>
								<value>
									<horiz>0.5</horiz>
									<vert>-0.5</vert>
								</value>
							</parameter>
							<parameter>
								<parameterid>lrcorner</parameterid>
								<name>Lower Right</name>
								<value>
									<horiz>0.5</horiz>
									<vert>0.5</vert>
								</value>
							</parameter>
							<parameter>
								<parameterid>llcorner</parameterid>
								<name>Lower Left</name>
								<value>
									<horiz>-0.5</horiz>
									<vert>0.5</vert>
								</value>
							</parameter>
							<parameter>
								<parameterid>aspect</parameterid>
								<name>Aspect</name>
								<valuemin>-10000</valuemin>
								<valuemax>10000</valuemax>
								<value>0</value>
							</parameter>
						</effect>
					</filter>
					<filter>
						<effect>
							<name>Opacity</name>
							<effectid>opacity</effectid>
							<effectcategory>motion</effectcategory>
							<effecttype>motion</effecttype>
							<mediatype>video</mediatype>
							<parameter>
								<parameterid>opacity</parameterid>
								<name>opacity</name>
								<valuemin>0</valuemin>
								<valuemax>100</valuemax>
								<value>100</value>
							</parameter>
						</effect>
					</filter>
					<sourcetrack>
						<mediatype>video</mediatype>
					</sourcetrack>
					<fielddominance>upper</fielddominance>
				</clipitem>
				<transitionitem id="1697224748 ">
					<rate>
						<ntsc>FALSE</ntsc>
						<timebase>25</timebase>
					</rate>
					<start>17005</start>
					<end>17030</end>
					<alignment>center</alignment>
					<effect>
						<name>Cross Dissolve</name>
						<effectid>Cross Dissolve</effectid>
						<effectcategory>Dissolve</effectcategory>
						<effecttype>transition</effecttype>
						<mediatype>video</mediatype>
						<wipecode>0</wipecode>
						<wipeaccuracy>100</wipeaccuracy>
						<startratio>0</startratio>
						<endratio>1</endratio>
						<reverse>FALSE</reverse>
					</effect>
				</transitionitem>
				<clipitem id="MVI_0143 ">
					<name>MVI_0143</name>
					<duration>110</duration>
					<rate>
						<ntsc>FALSE</ntsc>
						<timebase>25</timebase>
					</rate>
					<in>0</in>
					<out>110</out>
					<start>-1</start>
					<end>-1</end>
					<pixelaspectratio>Square</pixelaspectratio>
					<anamorphic>FALSE</anamorphic>
					<alphatype>none</alphatype>
					<masterclipid>MVI_0143 1</masterclipid>
					<logginginfo>
						<scene/>
						<shottake/>
						<lognote/>
						<good>FALSE</good>
					</logginginfo>
					<labels>
						<label2/>
					</labels>
					<comments>
						<mastercomment1/>
						<mastercomment2/>
						<mastercomment3/>
						<mastercomment4/>
					</comments>
					<file id="30_g1 1">
						<name>30_g1.mov</name>
						<pathurl>file://localhost/Volumes/Askepott/Final%20Cut%20Pro%20Documents/Color%20Renderfiles/Tords%20garasje%20-%20Flue/30/30_g1.mov</pathurl>
						<rate>
							<timebase>25</timebase>
						</rate>
						<duration>110</duration>
						<timecode>
							<rate>
								<timebase>25</timebase>
							</rate>
							<string>00:00:01:13</string>
							<frame>38</frame>
							<displayformat>NDF</displayformat>
							<source>source</source>
						</timecode>
						<media>
							<video>
								<duration>110</duration>
								<samplecharacteristics>
									<width>1920</width>
									<height>1080</height>
								</samplecharacteristics>
							</video>
						</media>
					</file>
					<filter>
						<effect>
							<name>Distort</name>
							<effectid>deformation</effectid>
							<effectcategory>motion</effectcategory>
							<effecttype>motion</effecttype>
							<mediatype>video</mediatype>
							<parameter>
								<parameterid>ulcorner</parameterid>
								<name>Upper Left</name>
								<value>
									<horiz>-0.5</horiz>
									<vert>-0.5</vert>
								</value>
							</parameter>
							<parameter>
								<parameterid>urcorner</parameterid>
								<name>Upper Right</name>
								<value>
									<horiz>0.5</horiz>
									<vert>-0.5</vert>
								</value>
							</parameter>
							<parameter>
								<parameterid>lrcorner</parameterid>
								<name>Lower Right</name>
								<value>
									<horiz>0.5</horiz>
									<vert>0.5</vert>
								</value>
							</parameter>
							<parameter>
								<parameterid>llcorner</parameterid>
								<name>Lower Left</name>
								<value>
									<horiz>-0.5</horiz>
									<vert>0.5</vert>
								</value>
							</parameter>
							<parameter>
								<parameterid>aspect</parameterid>
								<name>Aspect</name>
								<valuemin>-10000</valuemin>
								<valuemax>10000</valuemax>
								<value>0</value>
							</parameter>
						</effect>
					</filter>
					<filter>
						<effect>
							<name>Basic Motion</name>
							<effectid>basic</effectid>
							<effectcategory>motion</effectcategory>
							<effecttype>motion</effecttype>
							<mediatype>video</mediatype>
							<parameter>
								<parameterid>scale</parameterid>
								<name>Scale</name>
								<valuemin>0</valuemin>
								<valuemax>1000</valuemax>
								<value>100</value>
							</parameter>
							<parameter>
								<parameterid>rotation</parameterid>
								<name>Rotation</name>
								<valuemin>-8640</valuemin>
								<valuemax>8640</valuemax>
								<value>0</value>
							</parameter>
							<parameter>
								<parameterid>center</parameterid>
								<name>Center</name>
								<value>
									<horiz>0</horiz>
									<vert>0</vert>
								</value>
							</parameter>
							<parameter>
								<parameterid>centerOffset</parameterid>
								<name>Anchor Point</name>
								<value>
									<horiz>0</horiz>
									<vert>0</vert>
								</value>
							</parameter>
						</effect>
					</filter>
					<sourcetrack>
						<mediatype>video</mediatype>
					</sourcetrack>
					<fielddominance>upper</fielddominance>
				</clipitem>
				<transitionitem id="1697221756 ">
					<rate>
						<ntsc>FALSE</ntsc>
						<timebase>25</timebase>
					</rate>
					<start>17090</start>
					<end>17115</end>
					<alignment>center</alignment>
					<effect>
						<name>Cross Dissolve</name>
						<effectid>Cross Dissolve</effectid>
						<effectcategory>Dissolve</effectcategory>
						<effecttype>transition</effecttype>
						<mediatype>video</mediatype>
						<wipecode>0</wipecode>
						<wipeaccuracy>100</wipeaccuracy>
						<startratio>0</startratio>
						<endratio>1</endratio>
						<reverse>FALSE</reverse>
					</effect>
				</transitionitem>
				<clipitem id="MVI_0144 ">
					<name>MVI_0144</name>
					<duration>117</duration>
					<rate>
						<ntsc>FALSE</ntsc>
						<timebase>25</timebase>
					</rate>
					<in>0</in>
					<out>117</out>
					<start>-1</start>
					<end>-1</end>
					<pixelaspectratio>Square</pixelaspectratio>
					<anamorphic>FALSE</anamorphic>
					<alphatype>none</alphatype>
					<masterclipid>MVI_0144 1</masterclipid>
					<logginginfo>
						<scene/>
						<shottake/>
						<lognote/>
						<good>FALSE</good>
					</logginginfo>
					<labels>
						<label2/>
					</labels>
					<comments>
						<mastercomment1/>
						<mastercomment2/>
						<mastercomment3/>
						<mastercomment4/>
					</comments>
					<file id="31_g1 1">
						<name>31_g1.mov</name>
						<pathurl>file://localhost/Volumes/Askepott/Final%20Cut%20Pro%20Documents/Color%20Renderfiles/Tords%20garasje%20-%20Flue/31/31_g1.mov</pathurl>
						<rate>
							<timebase>25</timebase>
						</rate>
						<duration>117</duration>
						<timecode>
							<rate>
								<timebase>25</timebase>
							</rate>
							<string>00:00:59:24</string>
							<frame>1499</frame>
							<displayformat>NDF</displayformat>
							<source>source</source>
						</timecode>
						<media>
							<video>
								<duration>117</duration>
								<samplecharacteristics>
									<width>1920</width>
									<height>1080</height>
								</samplecharacteristics>
							</video>
						</media>
					</file>
					<filter>
						<effect>
							<name>Distort</name>
							<effectid>deformation</effectid>
							<effectcategory>motion</effectcategory>
							<effecttype>motion</effecttype>
							<mediatype>video</mediatype>
							<parameter>
								<parameterid>ulcorner</parameterid>
								<name>Upper Left</name>
								<value>
									<horiz>-0.5</horiz>
									<vert>-0.5</vert>
								</value>
							</parameter>
							<parameter>
								<parameterid>urcorner</parameterid>
								<name>Upper Right</name>
								<value>
									<horiz>0.5</horiz>
									<vert>-0.5</vert>
								</value>
							</parameter>
							<parameter>
								<parameterid>lrcorner</parameterid>
								<name>Lower Right</name>
								<value>
									<horiz>0.5</horiz>
									<vert>0.5</vert>
								</value>
							</parameter>
							<parameter>
								<parameterid>llcorner</parameterid>
								<name>Lower Left</name>
								<value>
									<horiz>-0.5</horiz>
									<vert>0.5</vert>
								</value>
							</parameter>
							<parameter>
								<parameterid>aspect</parameterid>
								<name>Aspect</name>
								<valuemin>-10000</valuemin>
								<valuemax>10000</valuemax>
								<value>0</value>
							</parameter>
						</effect>
					</filter>
					<filter>
						<effect>
							<name>Basic Motion</name>
							<effectid>basic</effectid>
							<effectcategory>motion</effectcategory>
							<effecttype>motion</effecttype>
							<mediatype>video</mediatype>
							<parameter>
								<parameterid>scale</parameterid>
								<name>Scale</name>
								<valuemin>0</valuemin>
								<valuemax>1000</valuemax>
								<value>100</value>
							</parameter>
							<parameter>
								<parameterid>rotation</parameterid>
								<name>Rotation</name>
								<valuemin>-8640</valuemin>
								<valuemax>8640</valuemax>
								<value>0</value>
							</parameter>
							<parameter>
								<parameterid>center</parameterid>
								<name>Center</name>
								<value>
									<horiz>0</horiz>
									<vert>0</vert>
								</value>
							</parameter>
							<parameter>
								<parameterid>centerOffset</parameterid>
								<name>Anchor Point</name>
								<value>
									<horiz>0</horiz>
									<vert>0</vert>
								</value>
							</parameter>
						</effect>
					</filter>
					<sourcetrack>
						<mediatype>video</mediatype>
					</sourcetrack>
					<fielddominance>upper</fielddominance>
				</clipitem>
				<transitionitem id="1697215432 ">
					<rate>
						<ntsc>FALSE</ntsc>
						<timebase>25</timebase>
					</rate>
					<start>17182</start>
					<end>17207</end>
					<alignment>center</alignment>
					<effect>
						<name>Cross Dissolve</name>
						<effectid>Cross Dissolve</effectid>
						<effectcategory>Dissolve</effectcategory>
						<effecttype>transition</effecttype>
						<mediatype>video</mediatype>
						<wipecode>0</wipecode>
						<wipeaccuracy>100</wipeaccuracy>
						<startratio>0</startratio>
						<endratio>1</endratio>
						<reverse>FALSE</reverse>
					</effect>
				</transitionitem>
				<clipitem id="MVI_0146 ">
					<name>MVI_0146</name>
					<duration>137</duration>
					<rate>
						<ntsc>FALSE</ntsc>
						<timebase>25</timebase>
					</rate>
					<in>0</in>
					<out>137</out>
					<start>-1</start>
					<end>-1</end>
					<pixelaspectratio>Square</pixelaspectratio>
					<enabled>TRUE</enabled>
					<anamorphic>FALSE</anamorphic>
					<alphatype>none</alphatype>
					<masterclipid>MVI_0146 1</masterclipid>
					<logginginfo>
						<scene/>
						<shottake/>
						<lognote/>
						<good>FALSE</good>
					</logginginfo>
					<labels>
						<label2/>
					</labels>
					<comments>
						<mastercomment1/>
						<mastercomment2/>
						<mastercomment3/>
						<mastercomment4/>
					</comments>
					<file id="32_g1 1">
						<name>32_g1.mov</name>
						<pathurl>file://localhost/Volumes/Askepott/Final%20Cut%20Pro%20Documents/Color%20Renderfiles/Tords%20garasje%20-%20Flue/32/32_g1.mov</pathurl>
						<rate>
							<timebase>25</timebase>
						</rate>
						<duration>137</duration>
						<timecode>
							<rate>
								<timebase>25</timebase>
							</rate>
							<string>00:00:03:02</string>
							<frame>77</frame>
							<displayformat>NDF</displayformat>
							<source>source</source>
						</timecode>
						<media>
							<video>
								<duration>137</duration>
								<samplecharacteristics>
									<width>1920</width>
									<height>1080</height>
								</samplecharacteristics>
							</video>
						</media>
					</file>
					<filter>
						<effect>
							<name>Distort</name>
							<effectid>deformation</effectid>
							<effectcategory>motion</effectcategory>
							<effecttype>motion</effecttype>
							<mediatype>video</mediatype>
							<parameter>
								<parameterid>ulcorner</parameterid>
								<name>Upper Left</name>
								<value>
									<horiz>-0.5</horiz>
									<vert>-0.5</vert>
								</value>
							</parameter>
							<parameter>
								<parameterid>urcorner</parameterid>
								<name>Upper Right</name>
								<value>
									<horiz>0.5</horiz>
									<vert>-0.5</vert>
								</value>
							</parameter>
							<parameter>
								<parameterid>lrcorner</parameterid>
								<name>Lower Right</name>
								<value>
									<horiz>0.5</horiz>
									<vert>0.5</vert>
								</value>
							</parameter>
							<parameter>
								<parameterid>llcorner</parameterid>
								<name>Lower Left</name>
								<value>
									<horiz>-0.5</horiz>
									<vert>0.5</vert>
								</value>
							</parameter>
							<parameter>
								<parameterid>aspect</parameterid>
								<name>Aspect</name>
								<valuemin>-10000</valuemin>
								<valuemax>10000</valuemax>
								<value>0</value>
							</parameter>
						</effect>
					</filter>
					<filter>
						<effect>
							<name>Basic Motion</name>
							<effectid>basic</effectid>
							<effectcategory>motion</effectcategory>
							<effecttype>motion</effecttype>
							<mediatype>video</mediatype>
							<parameter>
								<parameterid>scale</parameterid>
								<name>Scale</name>
								<valuemin>0</valuemin>
								<valuemax>1000</valuemax>
								<value>100</value>
							</parameter>
							<parameter>
								<parameterid>rotation</parameterid>
								<name>Rotation</name>
								<valuemin>-8640</valuemin>
								<valuemax>8640</valuemax>
								<value>0</value>
							</parameter>
							<parameter>
								<parameterid>center</parameterid>
								<name>Center</name>
								<value>
									<horiz>0</horiz>
									<vert>0</vert>
								</value>
							</parameter>
							<parameter>
								<parameterid>centerOffset</parameterid>
								<name>Anchor Point</name>
								<value>
									<horiz>0</horiz>
									<vert>0</vert>
								</value>
							</parameter>
						</effect>
					</filter>
					<sourcetrack>
						<mediatype>video</mediatype>
					</sourcetrack>
					<fielddominance>upper</fielddominance>
				</clipitem>
				<transitionitem id="1697216316 ">
					<rate>
						<ntsc>FALSE</ntsc>
						<timebase>25</timebase>
					</rate>
					<start>17294</start>
					<end>17319</end>
					<alignment>center</alignment>
					<effect>
						<name>Cross Dissolve</name>
						<effectid>Cross Dissolve</effectid>
						<effectcategory>Dissolve</effectcategory>
						<effecttype>transition</effecttype>
						<mediatype>video</mediatype>
						<wipecode>0</wipecode>
						<wipeaccuracy>100</wipeaccuracy>
						<startratio>0</startratio>
						<endratio>1</endratio>
						<reverse>FALSE</reverse>
					</effect>
				</transitionitem>
				<transitionitem id="1697216180 ">
					<rate>
						<ntsc>FALSE</ntsc>
						<timebase>25</timebase>
					</rate>
					<start>17439</start>
					<end>17464</end>
					<alignment>start-black</alignment>
					<effect>
						<name>Cross Dissolve</name>
						<effectid>Cross Dissolve</effectid>
						<effectcategory>Dissolve</effectcategory>
						<effecttype>transition</effecttype>
						<mediatype>video</mediatype>
						<wipecode>0</wipecode>
						<wipeaccuracy>100</wipeaccuracy>
						<startratio>0</startratio>
						<endratio>1</endratio>
						<reverse>FALSE</reverse>
					</effect>
				</transitionitem>
				<clipitem id="MVI_0155 ">
					<name>MVI_0155</name>
					<duration>126</duration>
					<rate>
						<ntsc>FALSE</ntsc>
						<timebase>25</timebase>
					</rate>
					<in>0</in>
					<out>126</out>
					<start>-1</start>
					<end>-1</end>
					<pixelaspectratio>Square</pixelaspectratio>
					<anamorphic>FALSE</anamorphic>
					<alphatype>none</alphatype>
					<masterclipid>MVI_0155 1</masterclipid>
					<logginginfo>
						<scene/>
						<shottake/>
						<lognote/>
						<good>FALSE</good>
					</logginginfo>
					<labels>
						<label2/>
					</labels>
					<comments>
						<mastercomment1/>
						<mastercomment2/>
						<mastercomment3/>
						<mastercomment4/>
					</comments>
					<file id="33_g1 1">
						<name>33_g1.mov</name>
						<pathurl>file://localhost/Volumes/Askepott/Final%20Cut%20Pro%20Documents/Color%20Renderfiles/Tords%20garasje%20-%20Flue/33/33_g1.mov</pathurl>
						<rate>
							<timebase>25</timebase>
						</rate>
						<duration>126</duration>
						<timecode>
							<rate>
								<timebase>25</timebase>
							</rate>
							<string>00:00:03:09</string>
							<frame>84</frame>
							<displayformat>NDF</displayformat>
							<source>source</source>
						</timecode>
						<media>
							<video>
								<duration>126</duration>
								<samplecharacteristics>
									<width>1920</width>
									<height>1080</height>
								</samplecharacteristics>
							</video>
						</media>
					</file>
					<filter>
						<effect>
							<name>Distort</name>
							<effectid>deformation</effectid>
							<effectcategory>motion</effectcategory>
							<effecttype>motion</effecttype>
							<mediatype>video</mediatype>
							<parameter>
								<parameterid>ulcorner</parameterid>
								<name>Upper Left</name>
								<value>
									<horiz>-0.5</horiz>
									<vert>-0.5</vert>
								</value>
							</parameter>
							<parameter>
								<parameterid>urcorner</parameterid>
								<name>Upper Right</name>
								<value>
									<horiz>0.5</horiz>
									<vert>-0.5</vert>
								</value>
							</parameter>
							<parameter>
								<parameterid>lrcorner</parameterid>
								<name>Lower Right</name>
								<value>
									<horiz>0.5</horiz>
									<vert>0.5</vert>
								</value>
							</parameter>
							<parameter>
								<parameterid>llcorner</parameterid>
								<name>Lower Left</name>
								<value>
									<horiz>-0.5</horiz>
									<vert>0.5</vert>
								</value>
							</parameter>
							<parameter>
								<parameterid>aspect</parameterid>
								<name>Aspect</name>
								<valuemin>-10000</valuemin>
								<valuemax>10000</valuemax>
								<value>0</value>
							</parameter>
						</effect>
					</filter>
					<filter>
						<effect>
							<name>Basic Motion</name>
							<effectid>basic</effectid>
							<effectcategory>motion</effectcategory>
							<effecttype>motion</effecttype>
							<mediatype>video</mediatype>
							<parameter>
								<parameterid>scale</parameterid>
								<name>Scale</name>
								<valuemin>0</valuemin>
								<valuemax>1000</valuemax>
								<value>100</value>
							</parameter>
							<parameter>
								<parameterid>rotation</parameterid>
								<name>Rotation</name>
								<valuemin>-8640</valuemin>
								<valuemax>8640</valuemax>
								<value>0</value>
							</parameter>
							<parameter>
								<parameterid>center</parameterid>
								<name>Center</name>
								<value>
									<horiz>0</horiz>
									<vert>0</vert>
								</value>
							</parameter>
							<parameter>
								<parameterid>centerOffset</parameterid>
								<name>Anchor Point</name>
								<value>
									<horiz>0</horiz>
									<vert>0</vert>
								</value>
							</parameter>
						</effect>
					</filter>
					<sourcetrack>
						<mediatype>video</mediatype>
					</sourcetrack>
					<fielddominance>upper</fielddominance>
				</clipitem>
				<transitionitem id="1697214208 ">
					<rate>
						<ntsc>FALSE</ntsc>
						<timebase>25</timebase>
					</rate>
					<start>17540</start>
					<end>17565</end>
					<alignment>center</alignment>
					<effect>
						<name>Cross Dissolve</name>
						<effectid>Cross Dissolve</effectid>
						<effectcategory>Dissolve</effectcategory>
						<effecttype>transition</effecttype>
						<mediatype>video</mediatype>
						<wipecode>0</wipecode>
						<wipeaccuracy>100</wipeaccuracy>
						<startratio>0</startratio>
						<endratio>1</endratio>
						<reverse>FALSE</reverse>
					</effect>
				</transitionitem>
				<clipitem id="MVI_0162 ">
					<name>MVI_0162</name>
					<duration>106</duration>
					<rate>
						<ntsc>FALSE</ntsc>
						<timebase>25</timebase>
					</rate>
					<in>0</in>
					<out>106</out>
					<start>-1</start>
					<end>-1</end>
					<pixelaspectratio>Square</pixelaspectratio>
					<anamorphic>FALSE</anamorphic>
					<alphatype>none</alphatype>
					<masterclipid>MVI_0162 1</masterclipid>
					<logginginfo>
						<scene/>
						<shottake/>
						<lognote/>
						<good>FALSE</good>
					</logginginfo>
					<labels>
						<label2/>
					</labels>
					<comments>
						<mastercomment1/>
						<mastercomment2/>
						<mastercomment3/>
						<mastercomment4/>
					</comments>
					<file id="34_g1 1">
						<name>34_g1.mov</name>
						<pathurl>file://localhost/Volumes/Askepott/Final%20Cut%20Pro%20Documents/Color%20Renderfiles/Tords%20garasje%20-%20Flue/34/34_g1.mov</pathurl>
						<rate>
							<timebase>25</timebase>
						</rate>
						<duration>106</duration>
						<timecode>
							<rate>
								<timebase>25</timebase>
							</rate>
							<string>00:00:17:21</string>
							<frame>446</frame>
							<displayformat>NDF</displayformat>
							<source>source</source>
						</timecode>
						<media>
							<video>
								<duration>106</duration>
								<samplecharacteristics>
									<width>1920</width>
									<height>1080</height>
								</samplecharacteristics>
							</video>
						</media>
					</file>
					<filter>
						<effect>
							<name>Distort</name>
							<effectid>deformation</effectid>
							<effectcategory>motion</effectcategory>
							<effecttype>motion</effecttype>
							<mediatype>video</mediatype>
							<parameter>
								<parameterid>ulcorner</parameterid>
								<name>Upper Left</name>
								<value>
									<horiz>-0.5</horiz>
									<vert>-0.5</vert>
								</value>
							</parameter>
							<parameter>
								<parameterid>urcorner</parameterid>
								<name>Upper Right</name>
								<value>
									<horiz>0.5</horiz>
									<vert>-0.5</vert>
								</value>
							</parameter>
							<parameter>
								<parameterid>lrcorner</parameterid>
								<name>Lower Right</name>
								<value>
									<horiz>0.5</horiz>
									<vert>0.5</vert>
								</value>
							</parameter>
							<parameter>
								<parameterid>llcorner</parameterid>
								<name>Lower Left</name>
								<value>
									<horiz>-0.5</horiz>
									<vert>0.5</vert>
								</value>
							</parameter>
							<parameter>
								<parameterid>aspect</parameterid>
								<name>Aspect</name>
								<valuemin>-10000</valuemin>
								<valuemax>10000</valuemax>
								<value>0</value>
							</parameter>
						</effect>
					</filter>
					<filter>
						<effect>
							<name>Basic Motion</name>
							<effectid>basic</effectid>
							<effectcategory>motion</effectcategory>
							<effecttype>motion</effecttype>
							<mediatype>video</mediatype>
							<parameter>
								<parameterid>scale</parameterid>
								<name>Scale</name>
								<valuemin>0</valuemin>
								<valuemax>1000</valuemax>
								<value>100</value>
							</parameter>
							<parameter>
								<parameterid>rotation</parameterid>
								<name>Rotation</name>
								<valuemin>-8640</valuemin>
								<valuemax>8640</valuemax>
								<value>0</value>
							</parameter>
							<parameter>
								<parameterid>center</parameterid>
								<name>Center</name>
								<value>
									<horiz>0</horiz>
									<vert>0</vert>
								</value>
							</parameter>
							<parameter>
								<parameterid>centerOffset</parameterid>
								<name>Anchor Point</name>
								<value>
									<horiz>0</horiz>
									<vert>0</vert>
								</value>
							</parameter>
						</effect>
					</filter>
					<sourcetrack>
						<mediatype>video</mediatype>
					</sourcetrack>
					<fielddominance>upper</fielddominance>
				</clipitem>
				<transitionitem id="1697207136 ">
					<rate>
						<ntsc>FALSE</ntsc>
						<timebase>25</timebase>
					</rate>
					<start>17621</start>
					<end>17646</end>
					<alignment>center</alignment>
					<effect>
						<name>Cross Dissolve</name>
						<effectid>Cross Dissolve</effectid>
						<effectcategory>Dissolve</effectcategory>
						<effecttype>transition</effecttype>
						<mediatype>video</mediatype>
						<wipecode>0</wipecode>
						<wipeaccuracy>100</wipeaccuracy>
						<startratio>0</startratio>
						<endratio>1</endratio>
						<reverse>FALSE</reverse>
					</effect>
				</transitionitem>
				<clipitem id="MVI_0164 ">
					<name>MVI_0164</name>
					<duration>130</duration>
					<rate>
						<ntsc>FALSE</ntsc>
						<timebase>25</timebase>
					</rate>
					<in>0</in>
					<out>130</out>
					<start>-1</start>
					<end>17751</end>
					<pixelaspectratio>Square</pixelaspectratio>
					<anamorphic>FALSE</anamorphic>
					<alphatype>none</alphatype>
					<masterclipid>MVI_0164 1</masterclipid>
					<logginginfo>
						<scene/>
						<shottake/>
						<lognote/>
						<good>FALSE</good>
					</logginginfo>
					<labels>
						<label2/>
					</labels>
					<comments>
						<mastercomment1/>
						<mastercomment2/>
						<mastercomment3/>
						<mastercomment4/>
					</comments>
					<file id="35_g1 1">
						<name>35_g1.mov</name>
						<pathurl>file://localhost/Volumes/Askepott/Final%20Cut%20Pro%20Documents/Color%20Renderfiles/Tords%20garasje%20-%20Flue/35/35_g1.mov</pathurl>
						<rate>
							<timebase>25</timebase>
						</rate>
						<duration>130</duration>
						<timecode>
							<rate>
								<timebase>25</timebase>
							</rate>
							<string>00:00:05:17</string>
							<frame>142</frame>
							<displayformat>NDF</displayformat>
							<source>source</source>
						</timecode>
						<media>
							<video>
								<duration>130</duration>
								<samplecharacteristics>
									<width>1920</width>
									<height>1080</height>
								</samplecharacteristics>
							</video>
						</media>
					</file>
					<filter>
						<effect>
							<name>Distort</name>
							<effectid>deformation</effectid>
							<effectcategory>motion</effectcategory>
							<effecttype>motion</effecttype>
							<mediatype>video</mediatype>
							<parameter>
								<parameterid>ulcorner</parameterid>
								<name>Upper Left</name>
								<value>
									<horiz>-0.5</horiz>
									<vert>-0.5</vert>
								</value>
							</parameter>
							<parameter>
								<parameterid>urcorner</parameterid>
								<name>Upper Right</name>
								<value>
									<horiz>0.5</horiz>
									<vert>-0.5</vert>
								</value>
							</parameter>
							<parameter>
								<parameterid>lrcorner</parameterid>
								<name>Lower Right</name>
								<value>
									<horiz>0.5</horiz>
									<vert>0.5</vert>
								</value>
							</parameter>
							<parameter>
								<parameterid>llcorner</parameterid>
								<name>Lower Left</name>
								<value>
									<horiz>-0.5</horiz>
									<vert>0.5</vert>
								</value>
							</parameter>
							<parameter>
								<parameterid>aspect</parameterid>
								<name>Aspect</name>
								<valuemin>-10000</valuemin>
								<valuemax>10000</valuemax>
								<value>0</value>
							</parameter>
						</effect>
					</filter>
					<filter>
						<effect>
							<name>Basic Motion</name>
							<effectid>basic</effectid>
							<effectcategory>motion</effectcategory>
							<effecttype>motion</effecttype>
							<mediatype>video</mediatype>
							<parameter>
								<parameterid>scale</parameterid>
								<name>Scale</name>
								<valuemin>0</valuemin>
								<valuemax>1000</valuemax>
								<value>100</value>
							</parameter>
							<parameter>
								<parameterid>rotation</parameterid>
								<name>Rotation</name>
								<valuemin>-8640</valuemin>
								<valuemax>8640</valuemax>
								<value>0</value>
							</parameter>
							<parameter>
								<parameterid>center</parameterid>
								<name>Center</name>
								<value>
									<horiz>0</horiz>
									<vert>0</vert>
								</value>
							</parameter>
							<parameter>
								<parameterid>centerOffset</parameterid>
								<name>Anchor Point</name>
								<value>
									<horiz>0</horiz>
									<vert>0</vert>
								</value>
							</parameter>
						</effect>
					</filter>
					<sourcetrack>
						<mediatype>video</mediatype>
					</sourcetrack>
					<fielddominance>upper</fielddominance>
				</clipitem>
				<clipitem id="MVI_0132 ">
					<name>MVI_0132</name>
					<duration>2195</duration>
					<rate>
						<ntsc>FALSE</ntsc>
						<timebase>25</timebase>
					</rate>
					<in>1823</in>
					<out>1926</out>
					<start>17803</start>
					<end>17906</end>
					<pixelaspectratio>Square</pixelaspectratio>
					<enabled>TRUE</enabled>
					<anamorphic>FALSE</anamorphic>
					<alphatype>none</alphatype>
					<masterclipid>MVI_0132 1</masterclipid>
					<logginginfo>
						<scene/>
						<shottake/>
						<lognote/>
						<good>FALSE</good>
					</logginginfo>
					<labels>
						<label2/>
					</labels>
					<comments>
						<mastercomment1/>
						<mastercomment2/>
						<mastercomment3/>
						<mastercomment4/>
					</comments>
					<file id="MVI_0132 2">
						<name>MVI_0132.mov</name>
						<pathurl>file://localhost/Volumes/Askepott/Prosjekter/DNPR637010_Kra%CC%8Akeklubben_TEM_011212/Video/Tords%20Garasje/SESONG%203/Flue/Apple%20ProRes%20422%20HQ/MVI_0132.mov</pathurl>
						<rate>
							<timebase>25</timebase>
						</rate>
						<duration>2195</duration>
						<media>
							<video>
								<duration>2195</duration>
								<samplecharacteristics>
									<width>1920</width>
									<height>1080</height>
								</samplecharacteristics>
							</video>
						</media>
					</file>
					<sourcetrack>
						<mediatype>video</mediatype>
					</sourcetrack>
					<fielddominance>upper</fielddominance>
				</clipitem>
				<enabled>TRUE</enabled>
				<locked>FALSE</locked>
			</track>
			<track>
				<enabled>TRUE</enabled>
				<locked>FALSE</locked>
			</track>
			<track>
				<enabled>TRUE</enabled>
				<locked>FALSE</locked>
			</track>
			<track>
				<enabled>TRUE</enabled>
				<locked>FALSE</locked>
			</track>
			<track>
				<enabled>TRUE</enabled>
				<locked>FALSE</locked>
			</track>
		</video>
		<audio>
			<format>
				<samplecharacteristics>
					<depth>24</depth>
					<samplerate>48000</samplerate>
				</samplecharacteristics>
			</format>
			<outputs>
				<group>
					<index>1</index>
					<numchannels>2</numchannels>
					<downmix>0</downmix>
					<channel>
						<index>1</index>
					</channel>
					<channel>
						<index>2</index>
					</channel>
				</group>
			</outputs>
			<in>-1</in>
			<out>-1</out>
			<track>
				<clipitem id="C0089 3">
					<name>C0089</name>
					<duration>364</duration>
					<rate>
						<ntsc>FALSE</ntsc>
						<timebase>25</timebase>
					</rate>
					<in>137</in>
					<out>233</out>
					<start>622</start>
					<end>718</end>
					<subframeoffset>0</subframeoffset>
					<masterclipid>C0089 1</masterclipid>
					<logginginfo>
						<scene/>
						<shottake/>
						<lognote/>
						<good>FALSE</good>
					</logginginfo>
					<labels>
						<label2/>
					</labels>
					<comments>
						<mastercomment1/>
						<mastercomment2/>
						<mastercomment3/>
						<mastercomment4/>
					</comments>
					<file id="C0089 2"/>
					<filter>
						<effect>
							<name>Audio Levels</name>
							<effectid>audiolevels</effectid>
							<effectcategory>audiolevels</effectcategory>
							<effecttype>audiolevels</effecttype>
							<mediatype>audio</mediatype>
							<parameter>
								<name>Level</name>
								<parameterid>level</parameterid>
								<valuemin>0</valuemin>
								<valuemax>3.98109</valuemax>
								<value>1</value>
							</parameter>
						</effect>
					</filter>
					<filter>
						<effect>
							<name>Audio Pan</name>
							<effectid>audiopan</effectid>
							<effectcategory>audiopan</effectcategory>
							<effecttype>audiopan</effecttype>
							<mediatype>audio</mediatype>
							<parameter>
								<name>Pan</name>
								<parameterid>pan</parameterid>
								<valuemin>-1</valuemin>
								<valuemax>1</valuemax>
								<value>0</value>
							</parameter>
						</effect>
					</filter>
					<sourcetrack>
						<mediatype>audio</mediatype>
						<trackindex>3</trackindex>
					</sourcetrack>
					<link>
						<linkclipref>C0089 </linkclipref>
						<mediatype>video</mediatype>
						<trackindex>1</trackindex>
						<clipindex>6</clipindex>
					</link>
					<link>
						<linkclipref>C0089 3</linkclipref>
						<mediatype>audio</mediatype>
						<trackindex>1</trackindex>
						<clipindex>1</clipindex>
					</link>
				</clipitem>
				<clipitem id="C0006 (1)3">
					<name>C0006 (1)</name>
					<duration>1105</duration>
					<rate>
						<ntsc>FALSE</ntsc>
						<timebase>25</timebase>
					</rate>
					<in>116</in>
					<out>448</out>
					<start>843</start>
					<end>1175</end>
					<subframeoffset>0</subframeoffset>
					<masterclipid>C0006 (1)1</masterclipid>
					<logginginfo>
						<scene/>
						<shottake/>
						<lognote/>
						<good>FALSE</good>
					</logginginfo>
					<labels>
						<label2/>
					</labels>
					<comments>
						<mastercomment1/>
						<mastercomment2/>
						<mastercomment3/>
						<mastercomment4/>
					</comments>
					<file id="C0006 (1)2"/>
					<filter>
						<effect>
							<name>Audio Levels</name>
							<effectid>audiolevels</effectid>
							<effectcategory>audiolevels</effectcategory>
							<effecttype>audiolevels</effecttype>
							<mediatype>audio</mediatype>
							<parameter>
								<name>Level</name>
								<parameterid>level</parameterid>
								<valuemin>0</valuemin>
								<valuemax>3.98109</valuemax>
								<value>1</value>
							</parameter>
						</effect>
					</filter>
					<filter>
						<effect>
							<name>Audio Pan</name>
							<effectid>audiopan</effectid>
							<effectcategory>audiopan</effectcategory>
							<effecttype>audiopan</effecttype>
							<mediatype>audio</mediatype>
							<parameter>
								<name>Pan</name>
								<parameterid>pan</parameterid>
								<valuemin>-1</valuemin>
								<valuemax>1</valuemax>
								<value>0</value>
							</parameter>
						</effect>
					</filter>
					<sourcetrack>
						<mediatype>audio</mediatype>
						<trackindex>1</trackindex>
					</sourcetrack>
					<link>
						<linkclipref>C0006 (1)</linkclipref>
						<mediatype>video</mediatype>
						<trackindex>1</trackindex>
						<clipindex>9</clipindex>
					</link>
					<link>
						<linkclipref>C0006 (1)3</linkclipref>
						<mediatype>audio</mediatype>
						<trackindex>1</trackindex>
						<clipindex>2</clipindex>
					</link>
					<link>
						<linkclipref>C0006 (1)4</linkclipref>
						<mediatype>audio</mediatype>
						<trackindex>2</trackindex>
						<clipindex>1</clipindex>
					</link>
				</clipitem>
				<clipitem id="C0008 3">
					<name>C0008</name>
					<duration>1233</duration>
					<rate>
						<ntsc>FALSE</ntsc>
						<timebase>25</timebase>
					</rate>
					<in>747</in>
					<out>814</out>
					<start>1175</start>
					<end>1242</end>
					<subframeoffset>0</subframeoffset>
					<masterclipid>C0008 1</masterclipid>
					<logginginfo>
						<scene/>
						<shottake/>
						<lognote/>
						<good>FALSE</good>
					</logginginfo>
					<labels>
						<label2/>
					</labels>
					<comments>
						<mastercomment1/>
						<mastercomment2/>
						<mastercomment3/>
						<mastercomment4/>
					</comments>
					<file id="C0008 2"/>
					<filter>
						<effect>
							<name>Audio Levels</name>
							<effectid>audiolevels</effectid>
							<effectcategory>audiolevels</effectcategory>
							<effecttype>audiolevels</effecttype>
							<mediatype>audio</mediatype>
							<parameter>
								<name>Level</name>
								<parameterid>level</parameterid>
								<valuemin>0</valuemin>
								<valuemax>3.98109</valuemax>
								<value>1</value>
							</parameter>
						</effect>
					</filter>
					<filter>
						<effect>
							<name>Audio Pan</name>
							<effectid>audiopan</effectid>
							<effectcategory>audiopan</effectcategory>
							<effecttype>audiopan</effecttype>
							<mediatype>audio</mediatype>
							<parameter>
								<name>Pan</name>
								<parameterid>pan</parameterid>
								<valuemin>-1</valuemin>
								<valuemax>1</valuemax>
								<value>0</value>
							</parameter>
						</effect>
					</filter>
					<sourcetrack>
						<mediatype>audio</mediatype>
						<trackindex>1</trackindex>
					</sourcetrack>
					<link>
						<linkclipref>C0008 </linkclipref>
						<mediatype>video</mediatype>
						<trackindex>1</trackindex>
						<clipindex>10</clipindex>
					</link>
					<link>
						<linkclipref>C0008 3</linkclipref>
						<mediatype>audio</mediatype>
						<trackindex>1</trackindex>
						<clipindex>3</clipindex>
					</link>
					<link>
						<linkclipref>C0008 4</linkclipref>
						<mediatype>audio</mediatype>
						<trackindex>2</trackindex>
						<clipindex>2</clipindex>
					</link>
				</clipitem>
				<clipitem id="C0003 3">
					<name>C0003</name>
					<duration>2143</duration>
					<rate>
						<ntsc>FALSE</ntsc>
						<timebase>25</timebase>
					</rate>
					<in>237</in>
					<out>353</out>
					<start>1242</start>
					<end>1358</end>
					<subframeoffset>0</subframeoffset>
					<masterclipid>C0003 1</masterclipid>
					<logginginfo>
						<scene/>
						<shottake/>
						<lognote/>
						<good>FALSE</good>
					</logginginfo>
					<labels>
						<label2/>
					</labels>
					<comments>
						<mastercomment1/>
						<mastercomment2/>
						<mastercomment3/>
						<mastercomment4/>
					</comments>
					<file id="C0003 2"/>
					<filter>
						<effect>
							<name>Audio Levels</name>
							<effectid>audiolevels</effectid>
							<effectcategory>audiolevels</effectcategory>
							<effecttype>audiolevels</effecttype>
							<mediatype>audio</mediatype>
							<parameter>
								<name>Level</name>
								<parameterid>level</parameterid>
								<valuemin>0</valuemin>
								<valuemax>3.98109</valuemax>
								<value>1</value>
							</parameter>
						</effect>
					</filter>
					<filter>
						<effect>
							<name>Audio Pan</name>
							<effectid>audiopan</effectid>
							<effectcategory>audiopan</effectcategory>
							<effecttype>audiopan</effecttype>
							<mediatype>audio</mediatype>
							<parameter>
								<name>Pan</name>
								<parameterid>pan</parameterid>
								<valuemin>-1</valuemin>
								<valuemax>1</valuemax>
								<value>0</value>
							</parameter>
						</effect>
					</filter>
					<sourcetrack>
						<mediatype>audio</mediatype>
						<trackindex>1</trackindex>
					</sourcetrack>
					<link>
						<linkclipref>C0003 </linkclipref>
						<mediatype>video</mediatype>
						<trackindex>1</trackindex>
						<clipindex>11</clipindex>
					</link>
					<link>
						<linkclipref>C0003 3</linkclipref>
						<mediatype>audio</mediatype>
						<trackindex>1</trackindex>
						<clipindex>4</clipindex>
					</link>
					<link>
						<linkclipref>C0003 4</linkclipref>
						<mediatype>audio</mediatype>
						<trackindex>2</trackindex>
						<clipindex>3</clipindex>
					</link>
				</clipitem>
				<clipitem id="C0003 8">
					<name>C0003</name>
					<duration>2143</duration>
					<rate>
						<ntsc>FALSE</ntsc>
						<timebase>25</timebase>
					</rate>
					<in>431</in>
					<out>441</out>
					<start>1358</start>
					<end>1368</end>
					<subframeoffset>0</subframeoffset>
					<masterclipid>C0003 1</masterclipid>
					<logginginfo>
						<scene/>
						<shottake/>
						<lognote/>
						<good>FALSE</good>
					</logginginfo>
					<labels>
						<label2/>
					</labels>
					<comments>
						<mastercomment1/>
						<mastercomment2/>
						<mastercomment3/>
						<mastercomment4/>
					</comments>
					<file id="C0003 2"/>
					<filter>
						<effect>
							<name>Audio Levels</name>
							<effectid>audiolevels</effectid>
							<effectcategory>audiolevels</effectcategory>
							<effecttype>audiolevels</effecttype>
							<mediatype>audio</mediatype>
							<parameter>
								<name>Level</name>
								<parameterid>level</parameterid>
								<valuemin>0</valuemin>
								<valuemax>3.98109</valuemax>
								<value>1</value>
							</parameter>
						</effect>
					</filter>
					<filter>
						<effect>
							<name>Audio Pan</name>
							<effectid>audiopan</effectid>
							<effectcategory>audiopan</effectcategory>
							<effecttype>audiopan</effecttype>
							<mediatype>audio</mediatype>
							<parameter>
								<name>Pan</name>
								<parameterid>pan</parameterid>
								<valuemin>-1</valuemin>
								<valuemax>1</valuemax>
								<value>0</value>
							</parameter>
						</effect>
					</filter>
					<sourcetrack>
						<mediatype>audio</mediatype>
						<trackindex>1</trackindex>
					</sourcetrack>
				</clipitem>
				<clipitem id="C0005 (1)">
					<name>C0005 (1)</name>
					<duration>1180</duration>
					<rate>
						<ntsc>FALSE</ntsc>
						<timebase>25</timebase>
					</rate>
					<in>766</in>
					<out>774</out>
					<start>1368</start>
					<end>1376</end>
					<subframeoffset>0</subframeoffset>
					<masterclipid>C0005 (1)1</masterclipid>
					<logginginfo>
						<scene/>
						<shottake/>
						<lognote/>
						<good>FALSE</good>
					</logginginfo>
					<labels>
						<label2/>
					</labels>
					<comments>
						<mastercomment1/>
						<mastercomment2/>
						<mastercomment3/>
						<mastercomment4/>
					</comments>
					<file id="C0005 (1)2">
						<name>C0005 (1).mov</name>
						<pathurl>file://localhost/Volumes/Askepott/Prosjekter/DNPR637010_Kra%CC%8Akeklubben_TEM_011212/Video/Mellomstikk/S03E%20D%C3%B8den/DAG%201/C0005%20(1).mov</pathurl>
						<rate>
							<timebase>25</timebase>
						</rate>
						<duration>1180</duration>
						<timecode>
							<rate>
								<timebase>25</timebase>
							</rate>
							<string>04:13:58:12</string>
							<frame>380962</frame>
							<displayformat>NDF</displayformat>
							<source>source</source>
							<reel>
								<name>XDCAM 20120508_103415</name>
							</reel>
						</timecode>
						<media>
							<video>
								<duration>1180</duration>
								<samplecharacteristics>
									<width>1920</width>
									<height>1080</height>
								</samplecharacteristics>
							</video>
							<audio>
								<rate>
									<timebase>48000</timebase>
								</rate>
								<trackcount>1</trackcount>
								<channeldescription>8 Channels</channeldescription>
								<samplecharacteristics>
									<depth>24</depth>
								</samplecharacteristics>
							</audio>
						</media>
					</file>
					<filter>
						<effect>
							<name>Audio Levels</name>
							<effectid>audiolevels</effectid>
							<effectcategory>audiolevels</effectcategory>
							<effecttype>audiolevels</effecttype>
							<mediatype>audio</mediatype>
							<parameter>
								<name>Level</name>
								<parameterid>level</parameterid>
								<valuemin>0</valuemin>
								<valuemax>3.98109</valuemax>
								<value>1</value>
							</parameter>
						</effect>
					</filter>
					<filter>
						<effect>
							<name>Audio Pan</name>
							<effectid>audiopan</effectid>
							<effectcategory>audiopan</effectcategory>
							<effecttype>audiopan</effecttype>
							<mediatype>audio</mediatype>
							<parameter>
								<name>Pan</name>
								<parameterid>pan</parameterid>
								<valuemin>-1</valuemin>
								<valuemax>1</valuemax>
								<value>0</value>
							</parameter>
						</effect>
					</filter>
					<sourcetrack>
						<mediatype>audio</mediatype>
						<trackindex>1</trackindex>
					</sourcetrack>
				</clipitem>
				<clipitem id="C0006 (1)7">
					<name>C0006 (1)</name>
					<duration>1105</duration>
					<rate>
						<ntsc>FALSE</ntsc>
						<timebase>25</timebase>
					</rate>
					<in>684</in>
					<out>968</out>
					<start>1376</start>
					<end>1660</end>
					<subframeoffset>0</subframeoffset>
					<masterclipid>C0006 (1)1</masterclipid>
					<logginginfo>
						<scene/>
						<shottake/>
						<lognote/>
						<good>FALSE</good>
					</logginginfo>
					<labels>
						<label2/>
					</labels>
					<comments>
						<mastercomment1/>
						<mastercomment2/>
						<mastercomment3/>
						<mastercomment4/>
					</comments>
					<file id="C0006 (1)2"/>
					<filter>
						<effect>
							<name>Audio Levels</name>
							<effectid>audiolevels</effectid>
							<effectcategory>audiolevels</effectcategory>
							<effecttype>audiolevels</effecttype>
							<mediatype>audio</mediatype>
							<parameter>
								<name>Level</name>
								<parameterid>level</parameterid>
								<valuemin>0</valuemin>
								<valuemax>3.98109</valuemax>
								<value>1</value>
							</parameter>
						</effect>
					</filter>
					<filter>
						<effect>
							<name>Audio Pan</name>
							<effectid>audiopan</effectid>
							<effectcategory>audiopan</effectcategory>
							<effecttype>audiopan</effecttype>
							<mediatype>audio</mediatype>
							<parameter>
								<name>Pan</name>
								<parameterid>pan</parameterid>
								<valuemin>-1</valuemin>
								<valuemax>1</valuemax>
								<value>0</value>
							</parameter>
						</effect>
					</filter>
					<sourcetrack>
						<mediatype>audio</mediatype>
						<trackindex>1</trackindex>
					</sourcetrack>
					<link>
						<linkclipref>C0006 (1)7</linkclipref>
						<mediatype>audio</mediatype>
						<trackindex>1</trackindex>
						<clipindex>7</clipindex>
					</link>
					<link>
						<linkclipref>C0006 (1)8</linkclipref>
						<mediatype>audio</mediatype>
						<trackindex>2</trackindex>
						<clipindex>6</clipindex>
					</link>
				</clipitem>
				<clipitem id="C0008 (1)4">
					<name>C0008 (1)</name>
					<duration>2592</duration>
					<rate>
						<ntsc>FALSE</ntsc>
						<timebase>25</timebase>
					</rate>
					<in>194</in>
					<out>404</out>
					<start>1732</start>
					<end>1942</end>
					<subframeoffset>0</subframeoffset>
					<masterclipid>C0008 (1)1</masterclipid>
					<logginginfo>
						<scene/>
						<shottake/>
						<lognote/>
						<good>FALSE</good>
					</logginginfo>
					<labels>
						<label2/>
					</labels>
					<comments>
						<mastercomment1/>
						<mastercomment2/>
						<mastercomment3/>
						<mastercomment4/>
					</comments>
					<file id="C0008 (1)2"/>
					<filter>
						<effect>
							<name>Audio Levels</name>
							<effectid>audiolevels</effectid>
							<effectcategory>audiolevels</effectcategory>
							<effecttype>audiolevels</effecttype>
							<mediatype>audio</mediatype>
							<parameter>
								<name>Level</name>
								<parameterid>level</parameterid>
								<valuemin>0</valuemin>
								<valuemax>3.98109</valuemax>
								<value>1</value>
							</parameter>
						</effect>
					</filter>
					<filter>
						<effect>
							<name>Audio Pan</name>
							<effectid>audiopan</effectid>
							<effectcategory>audiopan</effectcategory>
							<effecttype>audiopan</effecttype>
							<mediatype>audio</mediatype>
							<parameter>
								<name>Pan</name>
								<parameterid>pan</parameterid>
								<valuemin>-1</valuemin>
								<valuemax>1</valuemax>
								<value>0</value>
							</parameter>
						</effect>
					</filter>
					<sourcetrack>
						<mediatype>audio</mediatype>
						<trackindex>1</trackindex>
					</sourcetrack>
					<link>
						<linkclipref>C0008 (1)4</linkclipref>
						<mediatype>audio</mediatype>
						<trackindex>1</trackindex>
						<clipindex>8</clipindex>
					</link>
					<link>
						<linkclipref>C0008 (1)5</linkclipref>
						<mediatype>audio</mediatype>
						<trackindex>2</trackindex>
						<clipindex>7</clipindex>
					</link>
				</clipitem>
				<clipitem id="C0009 3">
					<name>C0009</name>
					<duration>2574</duration>
					<rate>
						<ntsc>FALSE</ntsc>
						<timebase>25</timebase>
					</rate>
					<in>985</in>
					<out>1033</out>
					<start>1942</start>
					<end>1990</end>
					<subframeoffset>0</subframeoffset>
					<masterclipid>C0009 1</masterclipid>
					<logginginfo>
						<scene/>
						<shottake/>
						<lognote/>
						<good>FALSE</good>
					</logginginfo>
					<labels>
						<label2/>
					</labels>
					<comments>
						<mastercomment1/>
						<mastercomment2/>
						<mastercomment3/>
						<mastercomment4/>
					</comments>
					<file id="C0009 2"/>
					<filter>
						<effect>
							<name>Audio Levels</name>
							<effectid>audiolevels</effectid>
							<effectcategory>audiolevels</effectcategory>
							<effecttype>audiolevels</effecttype>
							<mediatype>audio</mediatype>
							<parameter>
								<name>Level</name>
								<parameterid>level</parameterid>
								<valuemin>0</valuemin>
								<valuemax>3.98109</valuemax>
								<value>1</value>
							</parameter>
						</effect>
					</filter>
					<filter>
						<effect>
							<name>Audio Pan</name>
							<effectid>audiopan</effectid>
							<effectcategory>audiopan</effectcategory>
							<effecttype>audiopan</effecttype>
							<mediatype>audio</mediatype>
							<parameter>
								<name>Pan</name>
								<parameterid>pan</parameterid>
								<valuemin>-1</valuemin>
								<valuemax>1</valuemax>
								<value>0</value>
							</parameter>
						</effect>
					</filter>
					<sourcetrack>
						<mediatype>audio</mediatype>
						<trackindex>1</trackindex>
					</sourcetrack>
					<link>
						<linkclipref>C0009 </linkclipref>
						<mediatype>video</mediatype>
						<trackindex>1</trackindex>
						<clipindex>15</clipindex>
					</link>
					<link>
						<linkclipref>C0009 3</linkclipref>
						<mediatype>audio</mediatype>
						<trackindex>1</trackindex>
						<clipindex>9</clipindex>
					</link>
					<link>
						<linkclipref>C0009 4</linkclipref>
						<mediatype>audio</mediatype>
						<trackindex>2</trackindex>
						<clipindex>8</clipindex>
					</link>
				</clipitem>
				<clipitem id="C0003 6">
					<name>C0003</name>
					<duration>2143</duration>
					<rate>
						<ntsc>FALSE</ntsc>
						<timebase>25</timebase>
					</rate>
					<in>993</in>
					<out>1199</out>
					<start>1990</start>
					<end>2196</end>
					<subframeoffset>0</subframeoffset>
					<masterclipid>C0003 1</masterclipid>
					<logginginfo>
						<scene/>
						<shottake/>
						<lognote/>
						<good>FALSE</good>
					</logginginfo>
					<labels>
						<label2/>
					</labels>
					<comments>
						<mastercomment1/>
						<mastercomment2/>
						<mastercomment3/>
						<mastercomment4/>
					</comments>
					<file id="C0003 2"/>
					<filter>
						<effect>
							<name>Audio Levels</name>
							<effectid>audiolevels</effectid>
							<effectcategory>audiolevels</effectcategory>
							<effecttype>audiolevels</effecttype>
							<mediatype>audio</mediatype>
							<parameter>
								<name>Level</name>
								<parameterid>level</parameterid>
								<valuemin>0</valuemin>
								<valuemax>3.98109</valuemax>
								<value>1</value>
							</parameter>
						</effect>
					</filter>
					<filter>
						<effect>
							<name>Audio Pan</name>
							<effectid>audiopan</effectid>
							<effectcategory>audiopan</effectcategory>
							<effecttype>audiopan</effecttype>
							<mediatype>audio</mediatype>
							<parameter>
								<name>Pan</name>
								<parameterid>pan</parameterid>
								<valuemin>-1</valuemin>
								<valuemax>1</valuemax>
								<value>0</value>
							</parameter>
						</effect>
					</filter>
					<sourcetrack>
						<mediatype>audio</mediatype>
						<trackindex>1</trackindex>
					</sourcetrack>
					<link>
						<linkclipref>C0003 5</linkclipref>
						<mediatype>video</mediatype>
						<trackindex>1</trackindex>
						<clipindex>16</clipindex>
					</link>
					<link>
						<linkclipref>C0003 6</linkclipref>
						<mediatype>audio</mediatype>
						<trackindex>1</trackindex>
						<clipindex>10</clipindex>
					</link>
					<link>
						<linkclipref>C0003 7</linkclipref>
						<mediatype>audio</mediatype>
						<trackindex>2</trackindex>
						<clipindex>9</clipindex>
					</link>
				</clipitem>
				<clipitem id="C0009 6">
					<name>C0009</name>
					<duration>2574</duration>
					<rate>
						<ntsc>FALSE</ntsc>
						<timebase>25</timebase>
					</rate>
					<in>1245</in>
					<out>1305</out>
					<start>2196</start>
					<end>2256</end>
					<subframeoffset>0</subframeoffset>
					<masterclipid>C0009 1</masterclipid>
					<logginginfo>
						<scene/>
						<shottake/>
						<lognote/>
						<good>FALSE</good>
					</logginginfo>
					<labels>
						<label2/>
					</labels>
					<comments>
						<mastercomment1/>
						<mastercomment2/>
						<mastercomment3/>
						<mastercomment4/>
					</comments>
					<file id="C0009 2"/>
					<filter>
						<effect>
							<name>Audio Levels</name>
							<effectid>audiolevels</effectid>
							<effectcategory>audiolevels</effectcategory>
							<effecttype>audiolevels</effecttype>
							<mediatype>audio</mediatype>
							<parameter>
								<name>Level</name>
								<parameterid>level</parameterid>
								<valuemin>0</valuemin>
								<valuemax>3.98109</valuemax>
								<value>1</value>
							</parameter>
						</effect>
					</filter>
					<filter>
						<effect>
							<name>Audio Pan</name>
							<effectid>audiopan</effectid>
							<effectcategory>audiopan</effectcategory>
							<effecttype>audiopan</effecttype>
							<mediatype>audio</mediatype>
							<parameter>
								<name>Pan</name>
								<parameterid>pan</parameterid>
								<valuemin>-1</valuemin>
								<valuemax>1</valuemax>
								<value>0</value>
							</parameter>
						</effect>
					</filter>
					<sourcetrack>
						<mediatype>audio</mediatype>
						<trackindex>1</trackindex>
					</sourcetrack>
					<link>
						<linkclipref>C0009 5</linkclipref>
						<mediatype>video</mediatype>
						<trackindex>1</trackindex>
						<clipindex>17</clipindex>
					</link>
					<link>
						<linkclipref>C0009 6</linkclipref>
						<mediatype>audio</mediatype>
						<trackindex>1</trackindex>
						<clipindex>11</clipindex>
					</link>
					<link>
						<linkclipref>C0009 7</linkclipref>
						<mediatype>audio</mediatype>
						<trackindex>2</trackindex>
						<clipindex>10</clipindex>
					</link>
				</clipitem>
				<clipitem id="C0009 (1)3">
					<name>C0009 (1)</name>
					<duration>2688</duration>
					<rate>
						<ntsc>FALSE</ntsc>
						<timebase>25</timebase>
					</rate>
					<in>619</in>
					<out>788</out>
					<start>2256</start>
					<end>2425</end>
					<subframeoffset>0</subframeoffset>
					<masterclipid>C0009 (1)1</masterclipid>
					<logginginfo>
						<scene/>
						<shottake/>
						<lognote/>
						<good>FALSE</good>
					</logginginfo>
					<labels>
						<label2/>
					</labels>
					<comments>
						<mastercomment1/>
						<mastercomment2/>
						<mastercomment3/>
						<mastercomment4/>
					</comments>
					<file id="C0009 (1)2"/>
					<filter>
						<effect>
							<name>Audio Levels</name>
							<effectid>audiolevels</effectid>
							<effectcategory>audiolevels</effectcategory>
							<effecttype>audiolevels</effecttype>
							<mediatype>audio</mediatype>
							<parameter>
								<name>Level</name>
								<parameterid>level</parameterid>
								<valuemin>0</valuemin>
								<valuemax>3.98109</valuemax>
								<value>1</value>
							</parameter>
						</effect>
					</filter>
					<filter>
						<effect>
							<name>Audio Pan</name>
							<effectid>audiopan</effectid>
							<effectcategory>audiopan</effectcategory>
							<effecttype>audiopan</effecttype>
							<mediatype>audio</mediatype>
							<parameter>
								<name>Pan</name>
								<parameterid>pan</parameterid>
								<valuemin>-1</valuemin>
								<valuemax>1</valuemax>
								<value>0</value>
							</parameter>
						</effect>
					</filter>
					<sourcetrack>
						<mediatype>audio</mediatype>
						<trackindex>1</trackindex>
					</sourcetrack>
					<link>
						<linkclipref>C0009 (1)</linkclipref>
						<mediatype>video</mediatype>
						<trackindex>1</trackindex>
						<clipindex>18</clipindex>
					</link>
					<link>
						<linkclipref>C0009 (1)3</linkclipref>
						<mediatype>audio</mediatype>
						<trackindex>1</trackindex>
						<clipindex>12</clipindex>
					</link>
					<link>
						<linkclipref>C0009 (1)4</linkclipref>
						<mediatype>audio</mediatype>
						<trackindex>2</trackindex>
						<clipindex>11</clipindex>
					</link>
				</clipitem>
				<clipitem id="C0004 6">
					<name>C0004</name>
					<duration>1095</duration>
					<rate>
						<ntsc>FALSE</ntsc>
						<timebase>25</timebase>
					</rate>
					<in>307</in>
					<out>487</out>
					<start>2425</start>
					<end>2605</end>
					<subframeoffset>0</subframeoffset>
					<masterclipid>C0004 1</masterclipid>
					<logginginfo>
						<scene/>
						<shottake/>
						<lognote/>
						<good>FALSE</good>
					</logginginfo>
					<labels>
						<label2/>
					</labels>
					<comments>
						<mastercomment1/>
						<mastercomment2/>
						<mastercomment3/>
						<mastercomment4/>
					</comments>
					<file id="C0004 2"/>
					<filter>
						<effect>
							<name>Audio Levels</name>
							<effectid>audiolevels</effectid>
							<effectcategory>audiolevels</effectcategory>
							<effecttype>audiolevels</effecttype>
							<mediatype>audio</mediatype>
							<parameter>
								<name>Level</name>
								<parameterid>level</parameterid>
								<valuemin>0</valuemin>
								<valuemax>3.98109</valuemax>
								<value>1</value>
							</parameter>
						</effect>
					</filter>
					<filter>
						<effect>
							<name>Audio Pan</name>
							<effectid>audiopan</effectid>
							<effectcategory>audiopan</effectcategory>
							<effecttype>audiopan</effecttype>
							<mediatype>audio</mediatype>
							<parameter>
								<name>Pan</name>
								<parameterid>pan</parameterid>
								<valuemin>-1</valuemin>
								<valuemax>1</valuemax>
								<value>0</value>
							</parameter>
						</effect>
					</filter>
					<sourcetrack>
						<mediatype>audio</mediatype>
						<trackindex>1</trackindex>
					</sourcetrack>
					<link>
						<linkclipref>C0004 6</linkclipref>
						<mediatype>audio</mediatype>
						<trackindex>1</trackindex>
						<clipindex>13</clipindex>
					</link>
					<link>
						<linkclipref>C0004 7</linkclipref>
						<mediatype>audio</mediatype>
						<trackindex>2</trackindex>
						<clipindex>12</clipindex>
					</link>
				</clipitem>
				<clipitem id="C0009 9">
					<name>C0009</name>
					<duration>2574</duration>
					<rate>
						<ntsc>FALSE</ntsc>
						<timebase>25</timebase>
					</rate>
					<in>1708</in>
					<out>1765</out>
					<start>2605</start>
					<end>2662</end>
					<subframeoffset>0</subframeoffset>
					<masterclipid>C0009 1</masterclipid>
					<logginginfo>
						<scene/>
						<shottake/>
						<lognote/>
						<good>FALSE</good>
					</logginginfo>
					<labels>
						<label2/>
					</labels>
					<comments>
						<mastercomment1/>
						<mastercomment2/>
						<mastercomment3/>
						<mastercomment4/>
					</comments>
					<file id="C0009 2"/>
					<filter>
						<effect>
							<name>Audio Levels</name>
							<effectid>audiolevels</effectid>
							<effectcategory>audiolevels</effectcategory>
							<effecttype>audiolevels</effecttype>
							<mediatype>audio</mediatype>
							<parameter>
								<name>Level</name>
								<parameterid>level</parameterid>
								<valuemin>0</valuemin>
								<valuemax>3.98109</valuemax>
								<value>1</value>
							</parameter>
						</effect>
					</filter>
					<filter>
						<effect>
							<name>Audio Pan</name>
							<effectid>audiopan</effectid>
							<effectcategory>audiopan</effectcategory>
							<effecttype>audiopan</effecttype>
							<mediatype>audio</mediatype>
							<parameter>
								<name>Pan</name>
								<parameterid>pan</parameterid>
								<valuemin>-1</valuemin>
								<valuemax>1</valuemax>
								<value>0</value>
							</parameter>
						</effect>
					</filter>
					<sourcetrack>
						<mediatype>audio</mediatype>
						<trackindex>1</trackindex>
					</sourcetrack>
					<link>
						<linkclipref>C0009 8</linkclipref>
						<mediatype>video</mediatype>
						<trackindex>1</trackindex>
						<clipindex>20</clipindex>
					</link>
					<link>
						<linkclipref>C0009 9</linkclipref>
						<mediatype>audio</mediatype>
						<trackindex>1</trackindex>
						<clipindex>14</clipindex>
					</link>
					<link>
						<linkclipref>C0009 10</linkclipref>
						<mediatype>audio</mediatype>
						<trackindex>2</trackindex>
						<clipindex>13</clipindex>
					</link>
				</clipitem>
				<clipitem id="C0004 4">
					<name>C0004</name>
					<duration>1095</duration>
					<rate>
						<ntsc>FALSE</ntsc>
						<timebase>25</timebase>
					</rate>
					<in>550</in>
					<out>764</out>
					<start>2662</start>
					<end>2876</end>
					<subframeoffset>0</subframeoffset>
					<masterclipid>C0004 1</masterclipid>
					<logginginfo>
						<scene/>
						<shottake/>
						<lognote/>
						<good>FALSE</good>
					</logginginfo>
					<labels>
						<label2/>
					</labels>
					<comments>
						<mastercomment1/>
						<mastercomment2/>
						<mastercomment3/>
						<mastercomment4/>
					</comments>
					<file id="C0004 2"/>
					<filter>
						<effect>
							<name>Audio Levels</name>
							<effectid>audiolevels</effectid>
							<effectcategory>audiolevels</effectcategory>
							<effecttype>audiolevels</effecttype>
							<mediatype>audio</mediatype>
							<parameter>
								<name>Level</name>
								<parameterid>level</parameterid>
								<valuemin>0</valuemin>
								<valuemax>3.98109</valuemax>
								<value>1</value>
							</parameter>
						</effect>
					</filter>
					<filter>
						<effect>
							<name>Audio Pan</name>
							<effectid>audiopan</effectid>
							<effectcategory>audiopan</effectcategory>
							<effecttype>audiopan</effecttype>
							<mediatype>audio</mediatype>
							<parameter>
								<name>Pan</name>
								<parameterid>pan</parameterid>
								<valuemin>-1</valuemin>
								<valuemax>1</valuemax>
								<value>0</value>
							</parameter>
						</effect>
					</filter>
					<sourcetrack>
						<mediatype>audio</mediatype>
						<trackindex>1</trackindex>
					</sourcetrack>
					<link>
						<linkclipref>C0004 3</linkclipref>
						<mediatype>video</mediatype>
						<trackindex>1</trackindex>
						<clipindex>21</clipindex>
					</link>
					<link>
						<linkclipref>C0004 4</linkclipref>
						<mediatype>audio</mediatype>
						<trackindex>1</trackindex>
						<clipindex>15</clipindex>
					</link>
					<link>
						<linkclipref>C0004 5</linkclipref>
						<mediatype>audio</mediatype>
						<trackindex>2</trackindex>
						<clipindex>14</clipindex>
					</link>
				</clipitem>
				<clipitem id="C0009 13">
					<name>C0009</name>
					<duration>2574</duration>
					<rate>
						<ntsc>FALSE</ntsc>
						<timebase>25</timebase>
					</rate>
					<in>1991</in>
					<out>2122</out>
					<start>2876</start>
					<end>3007</end>
					<subframeoffset>0</subframeoffset>
					<masterclipid>C0009 1</masterclipid>
					<logginginfo>
						<scene/>
						<shottake/>
						<lognote/>
						<good>FALSE</good>
					</logginginfo>
					<labels>
						<label2/>
					</labels>
					<comments>
						<mastercomment1/>
						<mastercomment2/>
						<mastercomment3/>
						<mastercomment4/>
					</comments>
					<file id="C0009 2"/>
					<filter>
						<effect>
							<name>Audio Levels</name>
							<effectid>audiolevels</effectid>
							<effectcategory>audiolevels</effectcategory>
							<effecttype>audiolevels</effecttype>
							<mediatype>audio</mediatype>
							<parameter>
								<name>Level</name>
								<parameterid>level</parameterid>
								<valuemin>0</valuemin>
								<valuemax>3.98109</valuemax>
								<value>0</value>
							</parameter>
						</effect>
					</filter>
					<filter>
						<effect>
							<name>Audio Pan</name>
							<effectid>audiopan</effectid>
							<effectcategory>audiopan</effectcategory>
							<effecttype>audiopan</effecttype>
							<mediatype>audio</mediatype>
							<parameter>
								<name>Pan</name>
								<parameterid>pan</parameterid>
								<valuemin>-1</valuemin>
								<valuemax>1</valuemax>
								<value>0</value>
							</parameter>
						</effect>
					</filter>
					<sourcetrack>
						<mediatype>audio</mediatype>
						<trackindex>1</trackindex>
					</sourcetrack>
				</clipitem>
				<clipitem id="C0009 (1)6">
					<name>C0009 (1)</name>
					<duration>2688</duration>
					<rate>
						<ntsc>FALSE</ntsc>
						<timebase>25</timebase>
					</rate>
					<in>1459</in>
					<out>1622</out>
					<start>3007</start>
					<end>3170</end>
					<subframeoffset>0</subframeoffset>
					<masterclipid>C0009 (1)1</masterclipid>
					<logginginfo>
						<scene/>
						<shottake/>
						<lognote/>
						<good>FALSE</good>
					</logginginfo>
					<labels>
						<label2/>
					</labels>
					<comments>
						<mastercomment1/>
						<mastercomment2/>
						<mastercomment3/>
						<mastercomment4/>
					</comments>
					<file id="C0009 (1)2"/>
					<filter>
						<effect>
							<name>Audio Levels</name>
							<effectid>audiolevels</effectid>
							<effectcategory>audiolevels</effectcategory>
							<effecttype>audiolevels</effecttype>
							<mediatype>audio</mediatype>
							<parameter>
								<name>Level</name>
								<parameterid>level</parameterid>
								<valuemin>0</valuemin>
								<valuemax>3.98109</valuemax>
								<value>1</value>
							</parameter>
						</effect>
					</filter>
					<filter>
						<effect>
							<name>Audio Pan</name>
							<effectid>audiopan</effectid>
							<effectcategory>audiopan</effectcategory>
							<effecttype>audiopan</effecttype>
							<mediatype>audio</mediatype>
							<parameter>
								<name>Pan</name>
								<parameterid>pan</parameterid>
								<valuemin>-1</valuemin>
								<valuemax>1</valuemax>
								<value>0</value>
							</parameter>
						</effect>
					</filter>
					<sourcetrack>
						<mediatype>audio</mediatype>
						<trackindex>1</trackindex>
					</sourcetrack>
					<link>
						<linkclipref>C0009 (1)5</linkclipref>
						<mediatype>video</mediatype>
						<trackindex>1</trackindex>
						<clipindex>23</clipindex>
					</link>
					<link>
						<linkclipref>C0009 (1)6</linkclipref>
						<mediatype>audio</mediatype>
						<trackindex>1</trackindex>
						<clipindex>17</clipindex>
					</link>
					<link>
						<linkclipref>C0009 (1)7</linkclipref>
						<mediatype>audio</mediatype>
						<trackindex>2</trackindex>
						<clipindex>16</clipindex>
					</link>
				</clipitem>
				<clipitem id="C0009 14">
					<name>C0009</name>
					<duration>2574</duration>
					<rate>
						<ntsc>FALSE</ntsc>
						<timebase>25</timebase>
					</rate>
					<in>2327</in>
					<out>2363</out>
					<start>3170</start>
					<end>3206</end>
					<subframeoffset>0</subframeoffset>
					<masterclipid>C0009 1</masterclipid>
					<logginginfo>
						<scene/>
						<shottake/>
						<lognote/>
						<good>FALSE</good>
					</logginginfo>
					<labels>
						<label2/>
					</labels>
					<comments>
						<mastercomment1/>
						<mastercomment2/>
						<mastercomment3/>
						<mastercomment4/>
					</comments>
					<file id="C0009 2"/>
					<filter>
						<effect>
							<name>Audio Levels</name>
							<effectid>audiolevels</effectid>
							<effectcategory>audiolevels</effectcategory>
							<effecttype>audiolevels</effecttype>
							<mediatype>audio</mediatype>
							<parameter>
								<name>Level</name>
								<parameterid>level</parameterid>
								<valuemin>0</valuemin>
								<valuemax>3.98109</valuemax>
								<value>1</value>
							</parameter>
						</effect>
					</filter>
					<filter>
						<effect>
							<name>Audio Pan</name>
							<effectid>audiopan</effectid>
							<effectcategory>audiopan</effectcategory>
							<effecttype>audiopan</effecttype>
							<mediatype>audio</mediatype>
							<parameter>
								<name>Pan</name>
								<parameterid>pan</parameterid>
								<valuemin>-1</valuemin>
								<valuemax>1</valuemax>
								<value>0</value>
							</parameter>
						</effect>
					</filter>
					<sourcetrack>
						<mediatype>audio</mediatype>
						<trackindex>1</trackindex>
					</sourcetrack>
				</clipitem>
				<clipitem id="C0005 9">
					<name>C0005</name>
					<duration>1593</duration>
					<rate>
						<ntsc>FALSE</ntsc>
						<timebase>25</timebase>
					</rate>
					<in>642</in>
					<out>700</out>
					<start>3206</start>
					<end>3264</end>
					<subframeoffset>0</subframeoffset>
					<masterclipid>C0005 1</masterclipid>
					<logginginfo>
						<scene/>
						<shottake/>
						<lognote/>
						<good>FALSE</good>
					</logginginfo>
					<labels>
						<label2/>
					</labels>
					<comments>
						<mastercomment1/>
						<mastercomment2/>
						<mastercomment3/>
						<mastercomment4/>
					</comments>
					<file id="C0005 2"/>
					<filter>
						<effect>
							<name>Audio Levels</name>
							<effectid>audiolevels</effectid>
							<effectcategory>audiolevels</effectcategory>
							<effecttype>audiolevels</effecttype>
							<mediatype>audio</mediatype>
							<parameter>
								<name>Level</name>
								<parameterid>level</parameterid>
								<valuemin>0</valuemin>
								<valuemax>3.98109</valuemax>
								<value>1</value>
							</parameter>
						</effect>
					</filter>
					<filter>
						<effect>
							<name>Audio Pan</name>
							<effectid>audiopan</effectid>
							<effectcategory>audiopan</effectcategory>
							<effecttype>audiopan</effecttype>
							<mediatype>audio</mediatype>
							<parameter>
								<name>Pan</name>
								<parameterid>pan</parameterid>
								<valuemin>-1</valuemin>
								<valuemax>1</valuemax>
								<value>0</value>
							</parameter>
						</effect>
					</filter>
					<sourcetrack>
						<mediatype>audio</mediatype>
						<trackindex>1</trackindex>
					</sourcetrack>
				</clipitem>
				<clipitem id="C0011 3">
					<name>C0011</name>
					<duration>1444</duration>
					<rate>
						<ntsc>FALSE</ntsc>
						<timebase>25</timebase>
					</rate>
					<in>572</in>
					<out>792</out>
					<start>3264</start>
					<end>3484</end>
					<subframeoffset>0</subframeoffset>
					<masterclipid>C0011 1</masterclipid>
					<logginginfo>
						<scene/>
						<shottake/>
						<lognote/>
						<good>FALSE</good>
					</logginginfo>
					<labels>
						<label2/>
					</labels>
					<comments>
						<mastercomment1/>
						<mastercomment2/>
						<mastercomment3/>
						<mastercomment4/>
					</comments>
					<file id="C0011 2"/>
					<filter>
						<effect>
							<name>Audio Levels</name>
							<effectid>audiolevels</effectid>
							<effectcategory>audiolevels</effectcategory>
							<effecttype>audiolevels</effecttype>
							<mediatype>audio</mediatype>
							<parameter>
								<name>Level</name>
								<parameterid>level</parameterid>
								<valuemin>0</valuemin>
								<valuemax>3.98109</valuemax>
								<value>1</value>
							</parameter>
						</effect>
					</filter>
					<filter>
						<effect>
							<name>Audio Pan</name>
							<effectid>audiopan</effectid>
							<effectcategory>audiopan</effectcategory>
							<effecttype>audiopan</effecttype>
							<mediatype>audio</mediatype>
							<parameter>
								<name>Pan</name>
								<parameterid>pan</parameterid>
								<valuemin>-1</valuemin>
								<valuemax>1</valuemax>
								<value>0</value>
							</parameter>
						</effect>
					</filter>
					<sourcetrack>
						<mediatype>audio</mediatype>
						<trackindex>1</trackindex>
					</sourcetrack>
					<link>
						<linkclipref>C0011 </linkclipref>
						<mediatype>video</mediatype>
						<trackindex>1</trackindex>
						<clipindex>25</clipindex>
					</link>
					<link>
						<linkclipref>C0011 3</linkclipref>
						<mediatype>audio</mediatype>
						<trackindex>1</trackindex>
						<clipindex>20</clipindex>
					</link>
					<link>
						<linkclipref>C0011 4</linkclipref>
						<mediatype>audio</mediatype>
						<trackindex>2</trackindex>
						<clipindex>19</clipindex>
					</link>
				</clipitem>
				<clipitem id="C0009 (1)9">
					<name>C0009 (1)</name>
					<duration>2688</duration>
					<rate>
						<ntsc>FALSE</ntsc>
						<timebase>25</timebase>
					</rate>
					<in>1885</in>
					<out>1979</out>
					<start>3484</start>
					<end>3578</end>
					<subframeoffset>0</subframeoffset>
					<masterclipid>C0009 (1)1</masterclipid>
					<logginginfo>
						<scene/>
						<shottake/>
						<lognote/>
						<good>FALSE</good>
					</logginginfo>
					<labels>
						<label2/>
					</labels>
					<comments>
						<mastercomment1/>
						<mastercomment2/>
						<mastercomment3/>
						<mastercomment4/>
					</comments>
					<file id="C0009 (1)2"/>
					<filter>
						<effect>
							<name>Audio Levels</name>
							<effectid>audiolevels</effectid>
							<effectcategory>audiolevels</effectcategory>
							<effecttype>audiolevels</effecttype>
							<mediatype>audio</mediatype>
							<parameter>
								<name>Level</name>
								<parameterid>level</parameterid>
								<valuemin>0</valuemin>
								<valuemax>3.98109</valuemax>
								<value>1</value>
							</parameter>
						</effect>
					</filter>
					<filter>
						<effect>
							<name>Audio Pan</name>
							<effectid>audiopan</effectid>
							<effectcategory>audiopan</effectcategory>
							<effecttype>audiopan</effecttype>
							<mediatype>audio</mediatype>
							<parameter>
								<name>Pan</name>
								<parameterid>pan</parameterid>
								<valuemin>-1</valuemin>
								<valuemax>1</valuemax>
								<value>0</value>
							</parameter>
						</effect>
					</filter>
					<sourcetrack>
						<mediatype>audio</mediatype>
						<trackindex>1</trackindex>
					</sourcetrack>
					<link>
						<linkclipref>C0009 (1)8</linkclipref>
						<mediatype>video</mediatype>
						<trackindex>1</trackindex>
						<clipindex>26</clipindex>
					</link>
					<link>
						<linkclipref>C0009 (1)9</linkclipref>
						<mediatype>audio</mediatype>
						<trackindex>1</trackindex>
						<clipindex>21</clipindex>
					</link>
					<link>
						<linkclipref>C0009 (1)10</linkclipref>
						<mediatype>audio</mediatype>
						<trackindex>2</trackindex>
						<clipindex>20</clipindex>
					</link>
				</clipitem>
				<clipitem id="C0011 6">
					<name>C0011</name>
					<duration>1444</duration>
					<rate>
						<ntsc>FALSE</ntsc>
						<timebase>25</timebase>
					</rate>
					<in>836</in>
					<out>877</out>
					<start>3578</start>
					<end>3619</end>
					<subframeoffset>0</subframeoffset>
					<masterclipid>C0011 1</masterclipid>
					<logginginfo>
						<scene/>
						<shottake/>
						<lognote/>
						<good>FALSE</good>
					</logginginfo>
					<labels>
						<label2/>
					</labels>
					<comments>
						<mastercomment1/>
						<mastercomment2/>
						<mastercomment3/>
						<mastercomment4/>
					</comments>
					<file id="C0011 2"/>
					<filter>
						<effect>
							<name>Audio Levels</name>
							<effectid>audiolevels</effectid>
							<effectcategory>audiolevels</effectcategory>
							<effecttype>audiolevels</effecttype>
							<mediatype>audio</mediatype>
							<parameter>
								<name>Level</name>
								<parameterid>level</parameterid>
								<valuemin>0</valuemin>
								<valuemax>3.98109</valuemax>
								<value>1</value>
							</parameter>
						</effect>
					</filter>
					<filter>
						<effect>
							<name>Audio Pan</name>
							<effectid>audiopan</effectid>
							<effectcategory>audiopan</effectcategory>
							<effecttype>audiopan</effecttype>
							<mediatype>audio</mediatype>
							<parameter>
								<name>Pan</name>
								<parameterid>pan</parameterid>
								<valuemin>-1</valuemin>
								<valuemax>1</valuemax>
								<value>0</value>
							</parameter>
						</effect>
					</filter>
					<sourcetrack>
						<mediatype>audio</mediatype>
						<trackindex>1</trackindex>
					</sourcetrack>
					<link>
						<linkclipref>C0011 5</linkclipref>
						<mediatype>video</mediatype>
						<trackindex>1</trackindex>
						<clipindex>27</clipindex>
					</link>
					<link>
						<linkclipref>C0011 6</linkclipref>
						<mediatype>audio</mediatype>
						<trackindex>1</trackindex>
						<clipindex>22</clipindex>
					</link>
					<link>
						<linkclipref>C0011 7</linkclipref>
						<mediatype>audio</mediatype>
						<trackindex>2</trackindex>
						<clipindex>21</clipindex>
					</link>
				</clipitem>
				<clipitem id="C0005 10">
					<name>C0005</name>
					<duration>1593</duration>
					<rate>
						<ntsc>FALSE</ntsc>
						<timebase>25</timebase>
					</rate>
					<in>998</in>
					<out>1129</out>
					<start>3619</start>
					<end>3750</end>
					<masterclipid>C0005 1</masterclipid>
					<logginginfo>
						<scene/>
						<shottake/>
						<lognote/>
						<good>FALSE</good>
					</logginginfo>
					<labels>
						<label2/>
					</labels>
					<comments>
						<mastercomment1/>
						<mastercomment2/>
						<mastercomment3/>
						<mastercomment4/>
					</comments>
					<file id="C0005 2"/>
					<filter>
						<effect>
							<name>Audio Levels</name>
							<effectid>audiolevels</effectid>
							<effectcategory>audiolevels</effectcategory>
							<effecttype>audiolevels</effecttype>
							<mediatype>audio</mediatype>
							<parameter>
								<name>Level</name>
								<parameterid>level</parameterid>
								<valuemin>0</valuemin>
								<valuemax>3.98109</valuemax>
								<value>1</value>
							</parameter>
						</effect>
					</filter>
					<filter>
						<effect>
							<name>Audio Pan</name>
							<effectid>audiopan</effectid>
							<effectcategory>audiopan</effectcategory>
							<effecttype>audiopan</effecttype>
							<mediatype>audio</mediatype>
							<parameter>
								<name>Pan</name>
								<parameterid>pan</parameterid>
								<valuemin>-1</valuemin>
								<valuemax>1</valuemax>
								<value>0</value>
							</parameter>
						</effect>
					</filter>
					<sourcetrack>
						<mediatype>audio</mediatype>
						<trackindex>1</trackindex>
					</sourcetrack>
				</clipitem>
				<clipitem id="C0010 3">
					<name>C0010</name>
					<duration>3012</duration>
					<rate>
						<ntsc>FALSE</ntsc>
						<timebase>25</timebase>
					</rate>
					<in>2561</in>
					<out>2637</out>
					<start>3750</start>
					<end>3826</end>
					<subframeoffset>0</subframeoffset>
					<masterclipid>C0010 1</masterclipid>
					<logginginfo>
						<scene/>
						<shottake/>
						<lognote/>
						<good>FALSE</good>
					</logginginfo>
					<labels>
						<label2/>
					</labels>
					<comments>
						<mastercomment1/>
						<mastercomment2/>
						<mastercomment3/>
						<mastercomment4/>
					</comments>
					<file id="C0010 2"/>
					<filter>
						<effect>
							<name>Audio Levels</name>
							<effectid>audiolevels</effectid>
							<effectcategory>audiolevels</effectcategory>
							<effecttype>audiolevels</effecttype>
							<mediatype>audio</mediatype>
							<parameter>
								<name>Level</name>
								<parameterid>level</parameterid>
								<valuemin>0</valuemin>
								<valuemax>3.98109</valuemax>
								<value>1</value>
							</parameter>
						</effect>
					</filter>
					<filter>
						<effect>
							<name>Audio Pan</name>
							<effectid>audiopan</effectid>
							<effectcategory>audiopan</effectcategory>
							<effecttype>audiopan</effecttype>
							<mediatype>audio</mediatype>
							<parameter>
								<name>Pan</name>
								<parameterid>pan</parameterid>
								<valuemin>-1</valuemin>
								<valuemax>1</valuemax>
								<value>0</value>
							</parameter>
						</effect>
					</filter>
					<sourcetrack>
						<mediatype>audio</mediatype>
						<trackindex>1</trackindex>
					</sourcetrack>
				</clipitem>
				<clipitem id="SCD086738_PRETTY IN PINK_SONOTON.wav">
					<name>SCD086738_PRETTY IN PINK_SONOTON.wav</name>
					<duration>801</duration>
					<rate>
						<ntsc>FALSE</ntsc>
						<timebase>25</timebase>
					</rate>
					<in>0</in>
					<out>173</out>
					<start>4073</start>
					<end>-1</end>
					<subframeoffset>0</subframeoffset>
					<logginginfo>
						<scene/>
						<shottake/>
						<lognote/>
						<good>FALSE</good>
					</logginginfo>
					<labels>
						<label2/>
					</labels>
					<comments>
						<mastercomment1/>
						<mastercomment2/>
						<mastercomment3/>
						<mastercomment4/>
					</comments>
					<file id="SCD086738_PRETTY IN PINK_SONOTON">
						<name>SCD086738_PRETTY IN PINK_SONOTON.wav</name>
						<pathurl>file://localhost/Volumes/Askepott/Prosjekter/DNPR637010_Kra%CC%8Akeklubben_TEM_011212/Musikk/Dyrebarn%201/SCD086738_PRETTY%20IN%20PINK_SONOTON.wav</pathurl>
						<rate>
							<timebase>25</timebase>
						</rate>
						<duration>801</duration>
						<timecode>
							<rate>
								<timebase>25</timebase>
							</rate>
							<string>01:06:21:14</string>
							<frame>99539</frame>
							<displayformat>NDF</displayformat>
							<source>source</source>
						</timecode>
						<media>
							<audio>
								<rate>
									<timebase>48000</timebase>
								</rate>
								<trackcount>2</trackcount>
								<samplecharacteristics>
									<depth>24</depth>
								</samplecharacteristics>
							</audio>
						</media>
					</file>
					<filter>
						<effect>
							<name>Audio Levels</name>
							<effectid>audiolevels</effectid>
							<effectcategory>audiolevels</effectcategory>
							<effecttype>audiolevels</effecttype>
							<mediatype>audio</mediatype>
							<parameter>
								<name>Level</name>
								<parameterid>level</parameterid>
								<valuemin>0</valuemin>
								<valuemax>3.98109</valuemax>
								<value>0.158489</value>
							</parameter>
						</effect>
					</filter>
					<filter>
						<effect>
							<name>Audio Pan</name>
							<effectid>audiopan</effectid>
							<effectcategory>audiopan</effectcategory>
							<effecttype>audiopan</effecttype>
							<mediatype>audio</mediatype>
							<parameter>
								<name>Pan</name>
								<parameterid>pan</parameterid>
								<valuemin>-1</valuemin>
								<valuemax>1</valuemax>
								<value>-1</value>
							</parameter>
						</effect>
					</filter>
					<sourcetrack>
						<mediatype>audio</mediatype>
						<trackindex>1</trackindex>
					</sourcetrack>
					<link>
						<linkclipref>SCD086738_PRETTY IN PINK_SONOTON.wav</linkclipref>
						<mediatype>audio</mediatype>
						<trackindex>1</trackindex>
						<clipindex>25</clipindex>
						<groupindex>1</groupindex>
					</link>
					<link>
						<linkclipref>SCD086738_PRETTY IN PINK_SONOTON.wav1</linkclipref>
						<mediatype>audio</mediatype>
						<trackindex>2</trackindex>
						<clipindex>24</clipindex>
						<groupindex>1</groupindex>
					</link>
				</clipitem>
				<transitionitem id="1254405880 ">
					<rate>
						<ntsc>FALSE</ntsc>
						<timebase>25</timebase>
					</rate>
					<start>4241</start>
					<end>4246</end>
					<alignment>center</alignment>
					<effect>
						<name>Cross Fade (+3dB)</name>
						<effecttype>transition</effecttype>
						<mediatype>audio</mediatype>
					</effect>
				</transitionitem>
				<clipitem id="SCD086738_PRETTY IN PINK_SONOTON.wav2">
					<name>SCD086738_PRETTY IN PINK_SONOTON.wav</name>
					<duration>801</duration>
					<rate>
						<ntsc>FALSE</ntsc>
						<timebase>25</timebase>
					</rate>
					<in>627</in>
					<out>680</out>
					<start>-1</start>
					<end>-1</end>
					<subframeoffset>0</subframeoffset>
					<logginginfo>
						<scene/>
						<shottake/>
						<lognote/>
						<good>FALSE</good>
					</logginginfo>
					<labels>
						<label2/>
					</labels>
					<comments>
						<mastercomment1/>
						<mastercomment2/>
						<mastercomment3/>
						<mastercomment4/>
					</comments>
					<file id="SCD086738_PRETTY IN PINK_SONOTON"/>
					<filter>
						<effect>
							<name>Audio Levels</name>
							<effectid>audiolevels</effectid>
							<effectcategory>audiolevels</effectcategory>
							<effecttype>audiolevels</effecttype>
							<mediatype>audio</mediatype>
							<parameter>
								<name>Level</name>
								<parameterid>level</parameterid>
								<valuemin>0</valuemin>
								<valuemax>3.98109</valuemax>
								<value>0.177828</value>
							</parameter>
						</effect>
					</filter>
					<filter>
						<effect>
							<name>Audio Pan</name>
							<effectid>audiopan</effectid>
							<effectcategory>audiopan</effectcategory>
							<effecttype>audiopan</effecttype>
							<mediatype>audio</mediatype>
							<parameter>
								<name>Pan</name>
								<parameterid>pan</parameterid>
								<valuemin>-1</valuemin>
								<valuemax>1</valuemax>
								<value>-1</value>
							</parameter>
						</effect>
					</filter>
					<sourcetrack>
						<mediatype>audio</mediatype>
						<trackindex>1</trackindex>
					</sourcetrack>
					<link>
						<linkclipref>SCD086738_PRETTY IN PINK_SONOTON.wav2</linkclipref>
						<mediatype>audio</mediatype>
						<trackindex>1</trackindex>
						<clipindex>27</clipindex>
						<groupindex>1</groupindex>
					</link>
					<link>
						<linkclipref>SCD086738_PRETTY IN PINK_SONOTON.wav3</linkclipref>
						<mediatype>audio</mediatype>
						<trackindex>2</trackindex>
						<clipindex>26</clipindex>
						<groupindex>1</groupindex>
					</link>
				</clipitem>
				<transitionitem id="1254404520 ">
					<rate>
						<ntsc>FALSE</ntsc>
						<timebase>25</timebase>
					</rate>
					<start>4289</start>
					<end>4294</end>
					<alignment>center</alignment>
					<effect>
						<name>Cross Fade (+3dB)</name>
						<effecttype>transition</effecttype>
						<mediatype>audio</mediatype>
					</effect>
				</transitionitem>
				<clipitem id="SCD086738_PRETTY IN PINK_SONOTON.wav4">
					<name>SCD086738_PRETTY IN PINK_SONOTON.wav</name>
					<duration>801</duration>
					<rate>
						<ntsc>FALSE</ntsc>
						<timebase>25</timebase>
					</rate>
					<in>706</in>
					<out>776</out>
					<start>-1</start>
					<end>-1</end>
					<subframeoffset>0</subframeoffset>
					<logginginfo>
						<scene/>
						<shottake/>
						<lognote/>
						<good>FALSE</good>
					</logginginfo>
					<labels>
						<label2/>
					</labels>
					<comments>
						<mastercomment1/>
						<mastercomment2/>
						<mastercomment3/>
						<mastercomment4/>
					</comments>
					<file id="SCD086738_PRETTY IN PINK_SONOTON"/>
					<filter>
						<effect>
							<name>Audio Levels</name>
							<effectid>audiolevels</effectid>
							<effectcategory>audiolevels</effectcategory>
							<effecttype>audiolevels</effecttype>
							<mediatype>audio</mediatype>
							<parameter>
								<name>Level</name>
								<parameterid>level</parameterid>
								<valuemin>0</valuemin>
								<valuemax>3.98109</valuemax>
								<value>0.177828</value>
							</parameter>
						</effect>
					</filter>
					<filter>
						<effect>
							<name>Audio Pan</name>
							<effectid>audiopan</effectid>
							<effectcategory>audiopan</effectcategory>
							<effecttype>audiopan</effecttype>
							<mediatype>audio</mediatype>
							<parameter>
								<name>Pan</name>
								<parameterid>pan</parameterid>
								<valuemin>-1</valuemin>
								<valuemax>1</valuemax>
								<value>-1</value>
							</parameter>
						</effect>
					</filter>
					<sourcetrack>
						<mediatype>audio</mediatype>
						<trackindex>1</trackindex>
					</sourcetrack>
					<link>
						<linkclipref>SCD086738_PRETTY IN PINK_SONOTON.wav4</linkclipref>
						<mediatype>audio</mediatype>
						<trackindex>1</trackindex>
						<clipindex>29</clipindex>
						<groupindex>1</groupindex>
					</link>
					<link>
						<linkclipref>SCD086738_PRETTY IN PINK_SONOTON.wav5</linkclipref>
						<mediatype>audio</mediatype>
						<trackindex>2</trackindex>
						<clipindex>28</clipindex>
						<groupindex>1</groupindex>
					</link>
				</clipitem>
				<transitionitem id="1254403636 ">
					<rate>
						<ntsc>FALSE</ntsc>
						<timebase>25</timebase>
					</rate>
					<start>4334</start>
					<end>4359</end>
					<alignment>center</alignment>
					<effect>
						<name>Cross Fade (+3dB)</name>
						<effecttype>transition</effecttype>
						<mediatype>audio</mediatype>
					</effect>
				</transitionitem>
				<clipitem id="525_0291_01 1">
					<name>525_0291_01</name>
					<duration>7429</duration>
					<rate>
						<ntsc>FALSE</ntsc>
						<timebase>25</timebase>
					</rate>
					<in>777</in>
					<out>827</out>
					<start>-1</start>
					<end>4384</end>
					<subframeoffset>0</subframeoffset>
					<logginginfo>
						<scene/>
						<shottake/>
						<lognote/>
						<good>FALSE</good>
					</logginginfo>
					<labels>
						<label2/>
					</labels>
					<comments>
						<mastercomment1/>
						<mastercomment2/>
						<mastercomment3/>
						<mastercomment4/>
					</comments>
					<file id="525_0291_01 2">
						<name>525_0291_01.mov</name>
						<pathurl>file://localhost/Volumes/Askepott/Prosjekter/DNPR637010_Kra%CC%8Akeklubben_TEM_011212/Video/Bes%C3%B8ker%20Dyrebarn/Lam/Disk%202/525_0291_01.mov</pathurl>
						<rate>
							<timebase>25</timebase>
						</rate>
						<duration>7429</duration>
						<timecode>
							<rate>
								<timebase>25</timebase>
							</rate>
							<string>10:52:01:08</string>
							<frame>978033</frame>
							<displayformat>NDF</displayformat>
							<source>source</source>
							<reel>
								<name>Untitled</name>
							</reel>
						</timecode>
						<media>
							<video>
								<duration>7429</duration>
								<samplecharacteristics>
									<width>1920</width>
									<height>1080</height>
								</samplecharacteristics>
							</video>
							<audio>
								<rate>
									<timebase>48000</timebase>
								</rate>
								<trackcount>1</trackcount>
								<channeldescription>A1+A2</channeldescription>
								<samplecharacteristics>
									<depth>16</depth>
								</samplecharacteristics>
							</audio>
						</media>
					</file>
					<filter>
						<effect>
							<name>Audio Levels</name>
							<effectid>audiolevels</effectid>
							<effectcategory>audiolevels</effectcategory>
							<effecttype>audiolevels</effecttype>
							<mediatype>audio</mediatype>
							<parameter>
								<name>Level</name>
								<parameterid>level</parameterid>
								<valuemin>0</valuemin>
								<valuemax>3.98109</valuemax>
								<value>1.41254</value>
							</parameter>
						</effect>
					</filter>
					<filter>
						<effect>
							<name>Audio Pan</name>
							<effectid>audiopan</effectid>
							<effectcategory>audiopan</effectcategory>
							<effecttype>audiopan</effecttype>
							<mediatype>audio</mediatype>
							<parameter>
								<name>Pan</name>
								<parameterid>pan</parameterid>
								<valuemin>-1</valuemin>
								<valuemax>1</valuemax>
								<value>0</value>
							</parameter>
						</effect>
					</filter>
					<sourcetrack>
						<mediatype>audio</mediatype>
						<trackindex>1</trackindex>
					</sourcetrack>
				</clipitem>
				<clipitem id="525_0291_01 3">
					<name>525_0291_01</name>
					<duration>7429</duration>
					<rate>
						<ntsc>FALSE</ntsc>
						<timebase>25</timebase>
					</rate>
					<in>970</in>
					<out>1019</out>
					<start>4384</start>
					<end>4433</end>
					<subframeoffset>0</subframeoffset>
					<logginginfo>
						<scene/>
						<shottake/>
						<lognote/>
						<good>FALSE</good>
					</logginginfo>
					<labels>
						<label2/>
					</labels>
					<comments>
						<mastercomment1/>
						<mastercomment2/>
						<mastercomment3/>
						<mastercomment4/>
					</comments>
					<file id="525_0291_01 2"/>
					<filter>
						<effect>
							<name>Audio Levels</name>
							<effectid>audiolevels</effectid>
							<effectcategory>audiolevels</effectcategory>
							<effecttype>audiolevels</effecttype>
							<mediatype>audio</mediatype>
							<parameter>
								<name>Level</name>
								<parameterid>level</parameterid>
								<valuemin>0</valuemin>
								<valuemax>3.98109</valuemax>
								<value>1.99526</value>
							</parameter>
						</effect>
					</filter>
					<filter>
						<effect>
							<name>Audio Pan</name>
							<effectid>audiopan</effectid>
							<effectcategory>audiopan</effectcategory>
							<effecttype>audiopan</effecttype>
							<mediatype>audio</mediatype>
							<parameter>
								<name>Pan</name>
								<parameterid>pan</parameterid>
								<valuemin>-1</valuemin>
								<valuemax>1</valuemax>
								<value>0</value>
							</parameter>
						</effect>
					</filter>
					<sourcetrack>
						<mediatype>audio</mediatype>
						<trackindex>1</trackindex>
					</sourcetrack>
				</clipitem>
				<clipitem id="525_0291_01 4">
					<name>525_0291_01</name>
					<duration>7429</duration>
					<rate>
						<ntsc>FALSE</ntsc>
						<timebase>25</timebase>
					</rate>
					<in>760</in>
					<out>803</out>
					<start>4433</start>
					<end>4476</end>
					<subframeoffset>0</subframeoffset>
					<logginginfo>
						<scene/>
						<shottake/>
						<lognote/>
						<good>FALSE</good>
					</logginginfo>
					<labels>
						<label2/>
					</labels>
					<comments>
						<mastercomment1/>
						<mastercomment2/>
						<mastercomment3/>
						<mastercomment4/>
					</comments>
					<file id="525_0291_01 2"/>
					<filter>
						<effect>
							<name>Audio Levels</name>
							<effectid>audiolevels</effectid>
							<effectcategory>audiolevels</effectcategory>
							<effecttype>audiolevels</effecttype>
							<mediatype>audio</mediatype>
							<parameter>
								<name>Level</name>
								<parameterid>level</parameterid>
								<valuemin>0</valuemin>
								<valuemax>3.98109</valuemax>
								<value>1</value>
							</parameter>
						</effect>
					</filter>
					<filter>
						<effect>
							<name>Audio Pan</name>
							<effectid>audiopan</effectid>
							<effectcategory>audiopan</effectcategory>
							<effecttype>audiopan</effecttype>
							<mediatype>audio</mediatype>
							<parameter>
								<name>Pan</name>
								<parameterid>pan</parameterid>
								<valuemin>-1</valuemin>
								<valuemax>1</valuemax>
								<value>0</value>
							</parameter>
						</effect>
					</filter>
					<sourcetrack>
						<mediatype>audio</mediatype>
						<trackindex>1</trackindex>
					</sourcetrack>
				</clipitem>
				<clipitem id="525_0297_01 14">
					<name>525_0297_01</name>
					<duration>7470</duration>
					<rate>
						<ntsc>FALSE</ntsc>
						<timebase>25</timebase>
					</rate>
					<in>133</in>
					<out>202</out>
					<start>4476</start>
					<end>4545</end>
					<subframeoffset>0</subframeoffset>
					<logginginfo>
						<scene/>
						<shottake/>
						<lognote/>
						<good>FALSE</good>
					</logginginfo>
					<labels>
						<label2/>
					</labels>
					<comments>
						<mastercomment1/>
						<mastercomment2/>
						<mastercomment3/>
						<mastercomment4/>
					</comments>
					<file id="525_0297_01 15">
						<name>525_0297_01.mov</name>
						<pathurl>file://localhost/Volumes/Askepott/Prosjekter/DNPR637010_Kra%CC%8Akeklubben_TEM_011212/Video/Bes%C3%B8ker%20Dyrebarn/Lam/Disk%202/525_0297_01.mov</pathurl>
						<rate>
							<timebase>25</timebase>
						</rate>
						<duration>7470</duration>
						<timecode>
							<rate>
								<timebase>25</timebase>
							</rate>
							<string>11:04:04:23</string>
							<frame>996123</frame>
							<displayformat>NDF</displayformat>
							<source>source</source>
							<reel>
								<name>Untitled</name>
							</reel>
						</timecode>
						<media>
							<video>
								<duration>7470</duration>
								<samplecharacteristics>
									<width>1920</width>
									<height>1080</height>
								</samplecharacteristics>
							</video>
							<audio>
								<rate>
									<timebase>48000</timebase>
								</rate>
								<trackcount>1</trackcount>
								<channeldescription>A1+A2</channeldescription>
								<samplecharacteristics>
									<depth>16</depth>
								</samplecharacteristics>
							</audio>
						</media>
					</file>
					<filter>
						<effect>
							<name>Audio Levels</name>
							<effectid>audiolevels</effectid>
							<effectcategory>audiolevels</effectcategory>
							<effecttype>audiolevels</effecttype>
							<mediatype>audio</mediatype>
							<parameter>
								<name>Level</name>
								<parameterid>level</parameterid>
								<valuemin>0</valuemin>
								<valuemax>3.98109</valuemax>
								<value>2.81838</value>
							</parameter>
						</effect>
					</filter>
					<filter>
						<effect>
							<name>Audio Pan</name>
							<effectid>audiopan</effectid>
							<effectcategory>audiopan</effectcategory>
							<effecttype>audiopan</effecttype>
							<mediatype>audio</mediatype>
							<parameter>
								<name>Pan</name>
								<parameterid>pan</parameterid>
								<valuemin>-1</valuemin>
								<valuemax>1</valuemax>
								<value>0</value>
							</parameter>
						</effect>
					</filter>
					<sourcetrack>
						<mediatype>audio</mediatype>
						<trackindex>1</trackindex>
					</sourcetrack>
				</clipitem>
				<clipitem id="525_0297_01 16">
					<name>525_0297_01</name>
					<duration>7470</duration>
					<rate>
						<ntsc>FALSE</ntsc>
						<timebase>25</timebase>
					</rate>
					<in>4146</in>
					<out>4172</out>
					<start>4545</start>
					<end>4571</end>
					<subframeoffset>0</subframeoffset>
					<logginginfo>
						<scene/>
						<shottake/>
						<lognote/>
						<good>FALSE</good>
					</logginginfo>
					<labels>
						<label2/>
					</labels>
					<comments>
						<mastercomment1/>
						<mastercomment2/>
						<mastercomment3/>
						<mastercomment4/>
					</comments>
					<file id="525_0297_01 15"/>
					<filter>
						<effect>
							<name>Audio Levels</name>
							<effectid>audiolevels</effectid>
							<effectcategory>audiolevels</effectcategory>
							<effecttype>audiolevels</effecttype>
							<mediatype>audio</mediatype>
							<parameter>
								<name>Level</name>
								<parameterid>level</parameterid>
								<valuemin>0</valuemin>
								<valuemax>3.98109</valuemax>
								<value>2.81838</value>
							</parameter>
						</effect>
					</filter>
					<filter>
						<effect>
							<name>Audio Pan</name>
							<effectid>audiopan</effectid>
							<effectcategory>audiopan</effectcategory>
							<effecttype>audiopan</effecttype>
							<mediatype>audio</mediatype>
							<parameter>
								<name>Pan</name>
								<parameterid>pan</parameterid>
								<valuemin>-1</valuemin>
								<valuemax>1</valuemax>
								<value>0</value>
							</parameter>
						</effect>
					</filter>
					<sourcetrack>
						<mediatype>audio</mediatype>
						<trackindex>1</trackindex>
					</sourcetrack>
				</clipitem>
				<clipitem id="525_0297_01 17">
					<name>525_0297_01</name>
					<duration>7470</duration>
					<rate>
						<ntsc>FALSE</ntsc>
						<timebase>25</timebase>
					</rate>
					<in>310</in>
					<out>357</out>
					<start>4571</start>
					<end>4618</end>
					<subframeoffset>0</subframeoffset>
					<logginginfo>
						<scene/>
						<shottake/>
						<lognote/>
						<good>FALSE</good>
					</logginginfo>
					<labels>
						<label2/>
					</labels>
					<comments>
						<mastercomment1/>
						<mastercomment2/>
						<mastercomment3/>
						<mastercomment4/>
					</comments>
					<file id="525_0297_01 15"/>
					<filter>
						<effect>
							<name>Audio Levels</name>
							<effectid>audiolevels</effectid>
							<effectcategory>audiolevels</effectcategory>
							<effecttype>audiolevels</effecttype>
							<mediatype>audio</mediatype>
							<parameter>
								<name>Level</name>
								<parameterid>level</parameterid>
								<valuemin>0</valuemin>
								<valuemax>3.98109</valuemax>
								<value>2.81838</value>
							</parameter>
						</effect>
					</filter>
					<filter>
						<effect>
							<name>Audio Pan</name>
							<effectid>audiopan</effectid>
							<effectcategory>audiopan</effectcategory>
							<effecttype>audiopan</effecttype>
							<mediatype>audio</mediatype>
							<parameter>
								<name>Pan</name>
								<parameterid>pan</parameterid>
								<valuemin>-1</valuemin>
								<valuemax>1</valuemax>
								<value>0</value>
							</parameter>
						</effect>
					</filter>
					<sourcetrack>
						<mediatype>audio</mediatype>
						<trackindex>1</trackindex>
					</sourcetrack>
				</clipitem>
				<clipitem id="525_0297_01 18">
					<name>525_0297_01</name>
					<duration>7470</duration>
					<rate>
						<ntsc>FALSE</ntsc>
						<timebase>25</timebase>
					</rate>
					<in>4146</in>
					<out>4178</out>
					<start>4618</start>
					<end>4650</end>
					<subframeoffset>0</subframeoffset>
					<logginginfo>
						<scene/>
						<shottake/>
						<lognote/>
						<good>FALSE</good>
					</logginginfo>
					<labels>
						<label2/>
					</labels>
					<comments>
						<mastercomment1/>
						<mastercomment2/>
						<mastercomment3/>
						<mastercomment4/>
					</comments>
					<file id="525_0297_01 15"/>
					<filter>
						<effect>
							<name>Audio Levels</name>
							<effectid>audiolevels</effectid>
							<effectcategory>audiolevels</effectcategory>
							<effecttype>audiolevels</effecttype>
							<mediatype>audio</mediatype>
							<parameter>
								<name>Level</name>
								<parameterid>level</parameterid>
								<valuemin>0</valuemin>
								<valuemax>3.98109</valuemax>
								<value>2.81838</value>
							</parameter>
						</effect>
					</filter>
					<filter>
						<effect>
							<name>Audio Pan</name>
							<effectid>audiopan</effectid>
							<effectcategory>audiopan</effectcategory>
							<effecttype>audiopan</effecttype>
							<mediatype>audio</mediatype>
							<parameter>
								<name>Pan</name>
								<parameterid>pan</parameterid>
								<valuemin>-1</valuemin>
								<valuemax>1</valuemax>
								<value>0</value>
							</parameter>
						</effect>
					</filter>
					<sourcetrack>
						<mediatype>audio</mediatype>
						<trackindex>1</trackindex>
					</sourcetrack>
				</clipitem>
				<clipitem id="525_0297_01 19">
					<name>525_0297_01</name>
					<duration>7470</duration>
					<rate>
						<ntsc>FALSE</ntsc>
						<timebase>25</timebase>
					</rate>
					<in>5250</in>
					<out>5329</out>
					<start>4650</start>
					<end>4729</end>
					<subframeoffset>0</subframeoffset>
					<logginginfo>
						<scene/>
						<shottake/>
						<lognote/>
						<good>FALSE</good>
					</logginginfo>
					<labels>
						<label2/>
					</labels>
					<comments>
						<mastercomment1/>
						<mastercomment2/>
						<mastercomment3/>
						<mastercomment4/>
					</comments>
					<file id="525_0297_01 15"/>
					<filter>
						<effect>
							<name>Audio Levels</name>
							<effectid>audiolevels</effectid>
							<effectcategory>audiolevels</effectcategory>
							<effecttype>audiolevels</effecttype>
							<mediatype>audio</mediatype>
							<parameter>
								<name>Level</name>
								<parameterid>level</parameterid>
								<valuemin>0</valuemin>
								<valuemax>3.98109</valuemax>
								<value>2.81838</value>
							</parameter>
						</effect>
					</filter>
					<filter>
						<effect>
							<name>Audio Pan</name>
							<effectid>audiopan</effectid>
							<effectcategory>audiopan</effectcategory>
							<effecttype>audiopan</effecttype>
							<mediatype>audio</mediatype>
							<parameter>
								<name>Pan</name>
								<parameterid>pan</parameterid>
								<valuemin>-1</valuemin>
								<valuemax>1</valuemax>
								<value>0</value>
							</parameter>
						</effect>
					</filter>
					<sourcetrack>
						<mediatype>audio</mediatype>
						<trackindex>1</trackindex>
					</sourcetrack>
				</clipitem>
				<clipitem id="525_0297_01 20">
					<name>525_0297_01</name>
					<duration>7470</duration>
					<rate>
						<ntsc>FALSE</ntsc>
						<timebase>25</timebase>
					</rate>
					<in>2489</in>
					<out>2503</out>
					<start>4729</start>
					<end>4743</end>
					<subframeoffset>0</subframeoffset>
					<logginginfo>
						<scene/>
						<shottake/>
						<lognote/>
						<good>FALSE</good>
					</logginginfo>
					<labels>
						<label2/>
					</labels>
					<comments>
						<mastercomment1/>
						<mastercomment2/>
						<mastercomment3/>
						<mastercomment4/>
					</comments>
					<file id="525_0297_01 15"/>
					<filter>
						<effect>
							<name>Audio Levels</name>
							<effectid>audiolevels</effectid>
							<effectcategory>audiolevels</effectcategory>
							<effecttype>audiolevels</effecttype>
							<mediatype>audio</mediatype>
							<parameter>
								<name>Level</name>
								<parameterid>level</parameterid>
								<valuemin>0</valuemin>
								<valuemax>3.98109</valuemax>
								<value>2.81838</value>
							</parameter>
						</effect>
					</filter>
					<filter>
						<effect>
							<name>Audio Pan</name>
							<effectid>audiopan</effectid>
							<effectcategory>audiopan</effectcategory>
							<effecttype>audiopan</effecttype>
							<mediatype>audio</mediatype>
							<parameter>
								<name>Pan</name>
								<parameterid>pan</parameterid>
								<valuemin>-1</valuemin>
								<valuemax>1</valuemax>
								<value>0</value>
							</parameter>
						</effect>
					</filter>
					<sourcetrack>
						<mediatype>audio</mediatype>
						<trackindex>1</trackindex>
					</sourcetrack>
				</clipitem>
				<clipitem id="525_0297_01 21">
					<name>525_0297_01</name>
					<duration>7470</duration>
					<rate>
						<ntsc>FALSE</ntsc>
						<timebase>25</timebase>
					</rate>
					<in>5433</in>
					<out>5528</out>
					<start>4743</start>
					<end>4838</end>
					<subframeoffset>0</subframeoffset>
					<logginginfo>
						<scene/>
						<shottake/>
						<lognote/>
						<good>FALSE</good>
					</logginginfo>
					<labels>
						<label2/>
					</labels>
					<comments>
						<mastercomment1/>
						<mastercomment2/>
						<mastercomment3/>
						<mastercomment4/>
					</comments>
					<file id="525_0297_01 15"/>
					<filter>
						<effect>
							<name>Audio Levels</name>
							<effectid>audiolevels</effectid>
							<effectcategory>audiolevels</effectcategory>
							<effecttype>audiolevels</effecttype>
							<mediatype>audio</mediatype>
							<parameter>
								<name>Level</name>
								<parameterid>level</parameterid>
								<valuemin>0</valuemin>
								<valuemax>3.98109</valuemax>
								<value>2.81838</value>
							</parameter>
						</effect>
					</filter>
					<filter>
						<effect>
							<name>Audio Pan</name>
							<effectid>audiopan</effectid>
							<effectcategory>audiopan</effectcategory>
							<effecttype>audiopan</effecttype>
							<mediatype>audio</mediatype>
							<parameter>
								<name>Pan</name>
								<parameterid>pan</parameterid>
								<valuemin>-1</valuemin>
								<valuemax>1</valuemax>
								<value>0</value>
							</parameter>
						</effect>
					</filter>
					<sourcetrack>
						<mediatype>audio</mediatype>
						<trackindex>1</trackindex>
					</sourcetrack>
				</clipitem>
				<clipitem id="525_0297_01 22">
					<name>525_0297_01</name>
					<duration>7470</duration>
					<rate>
						<ntsc>FALSE</ntsc>
						<timebase>25</timebase>
					</rate>
					<in>4979</in>
					<out>5007</out>
					<start>4838</start>
					<end>4866</end>
					<subframeoffset>0</subframeoffset>
					<logginginfo>
						<scene/>
						<shottake/>
						<lognote/>
						<good>FALSE</good>
					</logginginfo>
					<labels>
						<label2/>
					</labels>
					<comments>
						<mastercomment1/>
						<mastercomment2/>
						<mastercomment3/>
						<mastercomment4/>
					</comments>
					<file id="525_0297_01 15"/>
					<filter>
						<effect>
							<name>Audio Levels</name>
							<effectid>audiolevels</effectid>
							<effectcategory>audiolevels</effectcategory>
							<effecttype>audiolevels</effecttype>
							<mediatype>audio</mediatype>
							<parameter>
								<name>Level</name>
								<parameterid>level</parameterid>
								<valuemin>0</valuemin>
								<valuemax>3.98109</valuemax>
								<value>2.81838</value>
							</parameter>
						</effect>
					</filter>
					<filter>
						<effect>
							<name>Audio Pan</name>
							<effectid>audiopan</effectid>
							<effectcategory>audiopan</effectcategory>
							<effecttype>audiopan</effecttype>
							<mediatype>audio</mediatype>
							<parameter>
								<name>Pan</name>
								<parameterid>pan</parameterid>
								<valuemin>-1</valuemin>
								<valuemax>1</valuemax>
								<value>0</value>
							</parameter>
						</effect>
					</filter>
					<sourcetrack>
						<mediatype>audio</mediatype>
						<trackindex>1</trackindex>
					</sourcetrack>
				</clipitem>
				<clipitem id="525_0297_01 23">
					<name>525_0297_01</name>
					<duration>7470</duration>
					<rate>
						<ntsc>FALSE</ntsc>
						<timebase>25</timebase>
					</rate>
					<in>5585</in>
					<out>5631</out>
					<start>4866</start>
					<end>4912</end>
					<subframeoffset>0</subframeoffset>
					<logginginfo>
						<scene/>
						<shottake/>
						<lognote/>
						<good>FALSE</good>
					</logginginfo>
					<labels>
						<label2/>
					</labels>
					<comments>
						<mastercomment1/>
						<mastercomment2/>
						<mastercomment3/>
						<mastercomment4/>
					</comments>
					<file id="525_0297_01 15"/>
					<filter>
						<effect>
							<name>Audio Levels</name>
							<effectid>audiolevels</effectid>
							<effectcategory>audiolevels</effectcategory>
							<effecttype>audiolevels</effecttype>
							<mediatype>audio</mediatype>
							<parameter>
								<name>Level</name>
								<parameterid>level</parameterid>
								<valuemin>0</valuemin>
								<valuemax>3.98109</valuemax>
								<value>2.81838</value>
							</parameter>
						</effect>
					</filter>
					<filter>
						<effect>
							<name>Audio Pan</name>
							<effectid>audiopan</effectid>
							<effectcategory>audiopan</effectcategory>
							<effecttype>audiopan</effecttype>
							<mediatype>audio</mediatype>
							<parameter>
								<name>Pan</name>
								<parameterid>pan</parameterid>
								<valuemin>-1</valuemin>
								<valuemax>1</valuemax>
								<value>0</value>
							</parameter>
						</effect>
					</filter>
					<sourcetrack>
						<mediatype>audio</mediatype>
						<trackindex>1</trackindex>
					</sourcetrack>
				</clipitem>
				<clipitem id="525_0297_01 24">
					<name>525_0297_01</name>
					<duration>7470</duration>
					<rate>
						<ntsc>FALSE</ntsc>
						<timebase>25</timebase>
					</rate>
					<in>4979</in>
					<out>4986</out>
					<start>4912</start>
					<end>4919</end>
					<subframeoffset>0</subframeoffset>
					<logginginfo>
						<scene/>
						<shottake/>
						<lognote/>
						<good>FALSE</good>
					</logginginfo>
					<labels>
						<label2/>
					</labels>
					<comments>
						<mastercomment1/>
						<mastercomment2/>
						<mastercomment3/>
						<mastercomment4/>
					</comments>
					<file id="525_0297_01 15"/>
					<filter>
						<effect>
							<name>Audio Levels</name>
							<effectid>audiolevels</effectid>
							<effectcategory>audiolevels</effectcategory>
							<effecttype>audiolevels</effecttype>
							<mediatype>audio</mediatype>
							<parameter>
								<name>Level</name>
								<parameterid>level</parameterid>
								<valuemin>0</valuemin>
								<valuemax>3.98109</valuemax>
								<value>2.81838</value>
							</parameter>
						</effect>
					</filter>
					<filter>
						<effect>
							<name>Audio Pan</name>
							<effectid>audiopan</effectid>
							<effectcategory>audiopan</effectcategory>
							<effecttype>audiopan</effecttype>
							<mediatype>audio</mediatype>
							<parameter>
								<name>Pan</name>
								<parameterid>pan</parameterid>
								<valuemin>-1</valuemin>
								<valuemax>1</valuemax>
								<value>0</value>
							</parameter>
						</effect>
					</filter>
					<sourcetrack>
						<mediatype>audio</mediatype>
						<trackindex>1</trackindex>
					</sourcetrack>
				</clipitem>
				<clipitem id="525_0297_01 25">
					<name>525_0297_01</name>
					<duration>7470</duration>
					<rate>
						<ntsc>FALSE</ntsc>
						<timebase>25</timebase>
					</rate>
					<in>5707</in>
					<out>5769</out>
					<start>4919</start>
					<end>4981</end>
					<subframeoffset>0</subframeoffset>
					<logginginfo>
						<scene/>
						<shottake/>
						<lognote/>
						<good>FALSE</good>
					</logginginfo>
					<labels>
						<label2/>
					</labels>
					<comments>
						<mastercomment1/>
						<mastercomment2/>
						<mastercomment3/>
						<mastercomment4/>
					</comments>
					<file id="525_0297_01 15"/>
					<filter>
						<effect>
							<name>Audio Levels</name>
							<effectid>audiolevels</effectid>
							<effectcategory>audiolevels</effectcategory>
							<effecttype>audiolevels</effecttype>
							<mediatype>audio</mediatype>
							<parameter>
								<name>Level</name>
								<parameterid>level</parameterid>
								<valuemin>0</valuemin>
								<valuemax>3.98109</valuemax>
								<value>2.81838</value>
							</parameter>
						</effect>
					</filter>
					<filter>
						<effect>
							<name>Audio Pan</name>
							<effectid>audiopan</effectid>
							<effectcategory>audiopan</effectcategory>
							<effecttype>audiopan</effecttype>
							<mediatype>audio</mediatype>
							<parameter>
								<name>Pan</name>
								<parameterid>pan</parameterid>
								<valuemin>-1</valuemin>
								<valuemax>1</valuemax>
								<value>0</value>
							</parameter>
						</effect>
					</filter>
					<sourcetrack>
						<mediatype>audio</mediatype>
						<trackindex>1</trackindex>
					</sourcetrack>
				</clipitem>
				<clipitem id="525_0297_01 26">
					<name>525_0297_01</name>
					<duration>7470</duration>
					<rate>
						<ntsc>FALSE</ntsc>
						<timebase>25</timebase>
					</rate>
					<in>3378</in>
					<out>3417</out>
					<start>4981</start>
					<end>5020</end>
					<subframeoffset>0</subframeoffset>
					<logginginfo>
						<scene/>
						<shottake/>
						<lognote/>
						<good>FALSE</good>
					</logginginfo>
					<labels>
						<label2/>
					</labels>
					<comments>
						<mastercomment1/>
						<mastercomment2/>
						<mastercomment3/>
						<mastercomment4/>
					</comments>
					<file id="525_0297_01 15"/>
					<filter>
						<effect>
							<name>Audio Levels</name>
							<effectid>audiolevels</effectid>
							<effectcategory>audiolevels</effectcategory>
							<effecttype>audiolevels</effecttype>
							<mediatype>audio</mediatype>
							<parameter>
								<name>Level</name>
								<parameterid>level</parameterid>
								<valuemin>0</valuemin>
								<valuemax>3.98109</valuemax>
								<value>2.81838</value>
							</parameter>
						</effect>
					</filter>
					<filter>
						<effect>
							<name>Audio Pan</name>
							<effectid>audiopan</effectid>
							<effectcategory>audiopan</effectcategory>
							<effecttype>audiopan</effecttype>
							<mediatype>audio</mediatype>
							<parameter>
								<name>Pan</name>
								<parameterid>pan</parameterid>
								<valuemin>-1</valuemin>
								<valuemax>1</valuemax>
								<value>0</value>
							</parameter>
						</effect>
					</filter>
					<sourcetrack>
						<mediatype>audio</mediatype>
						<trackindex>1</trackindex>
					</sourcetrack>
				</clipitem>
				<clipitem id="525_0297_01 27">
					<name>525_0297_01</name>
					<duration>7470</duration>
					<rate>
						<ntsc>FALSE</ntsc>
						<timebase>25</timebase>
					</rate>
					<in>3086</in>
					<out>3119</out>
					<start>5020</start>
					<end>5053</end>
					<subframeoffset>0</subframeoffset>
					<logginginfo>
						<scene/>
						<shottake/>
						<lognote/>
						<good>FALSE</good>
					</logginginfo>
					<labels>
						<label2/>
					</labels>
					<comments>
						<mastercomment1/>
						<mastercomment2/>
						<mastercomment3/>
						<mastercomment4/>
					</comments>
					<file id="525_0297_01 15"/>
					<filter>
						<effect>
							<name>Audio Levels</name>
							<effectid>audiolevels</effectid>
							<effectcategory>audiolevels</effectcategory>
							<effecttype>audiolevels</effecttype>
							<mediatype>audio</mediatype>
							<parameter>
								<name>Level</name>
								<parameterid>level</parameterid>
								<valuemin>0</valuemin>
								<valuemax>3.98109</valuemax>
								<value>2.81838</value>
							</parameter>
						</effect>
					</filter>
					<filter>
						<effect>
							<name>Audio Pan</name>
							<effectid>audiopan</effectid>
							<effectcategory>audiopan</effectcategory>
							<effecttype>audiopan</effecttype>
							<mediatype>audio</mediatype>
							<parameter>
								<name>Pan</name>
								<parameterid>pan</parameterid>
								<valuemin>-1</valuemin>
								<valuemax>1</valuemax>
								<value>0</value>
							</parameter>
						</effect>
					</filter>
					<sourcetrack>
						<mediatype>audio</mediatype>
						<trackindex>1</trackindex>
					</sourcetrack>
				</clipitem>
				<clipitem id="525_0297_01 28">
					<name>525_0297_01</name>
					<duration>7470</duration>
					<rate>
						<ntsc>FALSE</ntsc>
						<timebase>25</timebase>
					</rate>
					<in>3305</in>
					<out>3399</out>
					<start>5053</start>
					<end>5147</end>
					<subframeoffset>0</subframeoffset>
					<logginginfo>
						<scene/>
						<shottake/>
						<lognote/>
						<good>FALSE</good>
					</logginginfo>
					<labels>
						<label2/>
					</labels>
					<comments>
						<mastercomment1/>
						<mastercomment2/>
						<mastercomment3/>
						<mastercomment4/>
					</comments>
					<file id="525_0297_01 15"/>
					<filter>
						<effect>
							<name>Audio Levels</name>
							<effectid>audiolevels</effectid>
							<effectcategory>audiolevels</effectcategory>
							<effecttype>audiolevels</effecttype>
							<mediatype>audio</mediatype>
							<parameter>
								<name>Level</name>
								<parameterid>level</parameterid>
								<valuemin>0</valuemin>
								<valuemax>3.98109</valuemax>
								<value>2.81838</value>
							</parameter>
						</effect>
					</filter>
					<filter>
						<effect>
							<name>Audio Pan</name>
							<effectid>audiopan</effectid>
							<effectcategory>audiopan</effectcategory>
							<effecttype>audiopan</effecttype>
							<mediatype>audio</mediatype>
							<parameter>
								<name>Pan</name>
								<parameterid>pan</parameterid>
								<valuemin>-1</valuemin>
								<valuemax>1</valuemax>
								<value>0</value>
							</parameter>
						</effect>
					</filter>
					<sourcetrack>
						<mediatype>audio</mediatype>
						<trackindex>1</trackindex>
					</sourcetrack>
				</clipitem>
				<clipitem id="525_0298_01 21">
					<name>525_0298_01</name>
					<duration>15673</duration>
					<rate>
						<ntsc>FALSE</ntsc>
						<timebase>25</timebase>
					</rate>
					<in>14724</in>
					<out>14761</out>
					<start>5147</start>
					<end>5184</end>
					<subframeoffset>0</subframeoffset>
					<logginginfo>
						<scene/>
						<shottake/>
						<lognote/>
						<good>FALSE</good>
					</logginginfo>
					<labels>
						<label2/>
					</labels>
					<comments>
						<mastercomment1/>
						<mastercomment2/>
						<mastercomment3/>
						<mastercomment4/>
					</comments>
					<file id="525_0298_01 22">
						<name>525_0298_01.mov</name>
						<pathurl>file://localhost/Volumes/Askepott/Prosjekter/DNPR637010_Kra%CC%8Akeklubben_TEM_011212/Video/Bes%C3%B8ker%20Dyrebarn/Lam/Disk%202/525_0298_01.mov</pathurl>
						<rate>
							<timebase>25</timebase>
						</rate>
						<duration>15673</duration>
						<timecode>
							<rate>
								<timebase>25</timebase>
							</rate>
							<string>11:09:03:18</string>
							<frame>1003593</frame>
							<displayformat>NDF</displayformat>
							<source>source</source>
							<reel>
								<name>Untitled</name>
							</reel>
						</timecode>
						<media>
							<video>
								<duration>15673</duration>
								<samplecharacteristics>
									<width>1920</width>
									<height>1080</height>
								</samplecharacteristics>
							</video>
							<audio>
								<rate>
									<timebase>48000</timebase>
								</rate>
								<trackcount>1</trackcount>
								<channeldescription>A1+A2</channeldescription>
								<samplecharacteristics>
									<depth>16</depth>
								</samplecharacteristics>
							</audio>
						</media>
					</file>
					<filter>
						<effect>
							<name>Audio Levels</name>
							<effectid>audiolevels</effectid>
							<effectcategory>audiolevels</effectcategory>
							<effecttype>audiolevels</effecttype>
							<mediatype>audio</mediatype>
							<parameter>
								<name>Level</name>
								<parameterid>level</parameterid>
								<valuemin>0</valuemin>
								<valuemax>3.98109</valuemax>
								<value>2.81838</value>
							</parameter>
						</effect>
					</filter>
					<filter>
						<effect>
							<name>Audio Pan</name>
							<effectid>audiopan</effectid>
							<effectcategory>audiopan</effectcategory>
							<effecttype>audiopan</effecttype>
							<mediatype>audio</mediatype>
							<parameter>
								<name>Pan</name>
								<parameterid>pan</parameterid>
								<valuemin>-1</valuemin>
								<valuemax>1</valuemax>
								<value>0</value>
							</parameter>
						</effect>
					</filter>
					<sourcetrack>
						<mediatype>audio</mediatype>
						<trackindex>1</trackindex>
					</sourcetrack>
				</clipitem>
				<clipitem id="525_0298_01 23">
					<name>525_0298_01</name>
					<duration>15673</duration>
					<rate>
						<ntsc>FALSE</ntsc>
						<timebase>25</timebase>
					</rate>
					<in>14816</in>
					<out>14908</out>
					<start>5184</start>
					<end>5276</end>
					<subframeoffset>0</subframeoffset>
					<logginginfo>
						<scene/>
						<shottake/>
						<lognote/>
						<good>FALSE</good>
					</logginginfo>
					<labels>
						<label2/>
					</labels>
					<comments>
						<mastercomment1/>
						<mastercomment2/>
						<mastercomment3/>
						<mastercomment4/>
					</comments>
					<file id="525_0298_01 22"/>
					<filter>
						<effect>
							<name>Audio Levels</name>
							<effectid>audiolevels</effectid>
							<effectcategory>audiolevels</effectcategory>
							<effecttype>audiolevels</effecttype>
							<mediatype>audio</mediatype>
							<parameter>
								<name>Level</name>
								<parameterid>level</parameterid>
								<valuemin>0</valuemin>
								<valuemax>3.98109</valuemax>
								<value>2.81838</value>
							</parameter>
						</effect>
					</filter>
					<filter>
						<effect>
							<name>Audio Pan</name>
							<effectid>audiopan</effectid>
							<effectcategory>audiopan</effectcategory>
							<effecttype>audiopan</effecttype>
							<mediatype>audio</mediatype>
							<parameter>
								<name>Pan</name>
								<parameterid>pan</parameterid>
								<valuemin>-1</valuemin>
								<valuemax>1</valuemax>
								<value>0</value>
							</parameter>
						</effect>
					</filter>
					<sourcetrack>
						<mediatype>audio</mediatype>
						<trackindex>1</trackindex>
					</sourcetrack>
				</clipitem>
				<clipitem id="525_0298_01 24">
					<name>525_0298_01</name>
					<duration>15673</duration>
					<rate>
						<ntsc>FALSE</ntsc>
						<timebase>25</timebase>
					</rate>
					<in>906</in>
					<out>974</out>
					<start>5316</start>
					<end>5384</end>
					<subframeoffset>0</subframeoffset>
					<logginginfo>
						<scene/>
						<shottake/>
						<lognote/>
						<good>FALSE</good>
					</logginginfo>
					<labels>
						<label2/>
					</labels>
					<comments>
						<mastercomment1/>
						<mastercomment2/>
						<mastercomment3/>
						<mastercomment4/>
					</comments>
					<file id="525_0298_01 22"/>
					<filter>
						<effect>
							<name>Audio Levels</name>
							<effectid>audiolevels</effectid>
							<effectcategory>audiolevels</effectcategory>
							<effecttype>audiolevels</effecttype>
							<mediatype>audio</mediatype>
							<parameter>
								<name>Level</name>
								<parameterid>level</parameterid>
								<valuemin>0</valuemin>
								<valuemax>3.98109</valuemax>
								<value>2.81838</value>
							</parameter>
						</effect>
					</filter>
					<filter>
						<effect>
							<name>Audio Pan</name>
							<effectid>audiopan</effectid>
							<effectcategory>audiopan</effectcategory>
							<effecttype>audiopan</effecttype>
							<mediatype>audio</mediatype>
							<parameter>
								<name>Pan</name>
								<parameterid>pan</parameterid>
								<valuemin>-1</valuemin>
								<valuemax>1</valuemax>
								<value>0</value>
							</parameter>
						</effect>
					</filter>
					<sourcetrack>
						<mediatype>audio</mediatype>
						<trackindex>1</trackindex>
					</sourcetrack>
				</clipitem>
				<clipitem id="525_0300_01 1">
					<name>525_0300_01</name>
					<duration>551</duration>
					<rate>
						<ntsc>FALSE</ntsc>
						<timebase>25</timebase>
					</rate>
					<in>165</in>
					<out>199</out>
					<start>5384</start>
					<end>5418</end>
					<subframeoffset>0</subframeoffset>
					<logginginfo>
						<scene/>
						<shottake/>
						<lognote/>
						<good>FALSE</good>
					</logginginfo>
					<labels>
						<label2/>
					</labels>
					<comments>
						<mastercomment1/>
						<mastercomment2/>
						<mastercomment3/>
						<mastercomment4/>
					</comments>
					<file id="525_0300_01 2">
						<name>525_0300_01.mov</name>
						<pathurl>file://localhost/Volumes/Askepott/Prosjekter/DNPR637010_Kra%CC%8Akeklubben_TEM_011212/Video/Bes%C3%B8ker%20Dyrebarn/Lam/Disk%202/525_0300_01.mov</pathurl>
						<rate>
							<timebase>25</timebase>
						</rate>
						<duration>551</duration>
						<timecode>
							<rate>
								<timebase>25</timebase>
							</rate>
							<string>11:19:46:18</string>
							<frame>1019668</frame>
							<displayformat>NDF</displayformat>
							<source>source</source>
							<reel>
								<name>Untitled</name>
							</reel>
						</timecode>
						<media>
							<video>
								<duration>551</duration>
								<samplecharacteristics>
									<width>1920</width>
									<height>1080</height>
								</samplecharacteristics>
							</video>
							<audio>
								<rate>
									<timebase>48000</timebase>
								</rate>
								<trackcount>1</trackcount>
								<channeldescription>A1+A2</channeldescription>
								<samplecharacteristics>
									<depth>16</depth>
								</samplecharacteristics>
							</audio>
						</media>
					</file>
					<filter>
						<effect>
							<name>Audio Levels</name>
							<effectid>audiolevels</effectid>
							<effectcategory>audiolevels</effectcategory>
							<effecttype>audiolevels</effecttype>
							<mediatype>audio</mediatype>
							<parameter>
								<name>Level</name>
								<parameterid>level</parameterid>
								<valuemin>0</valuemin>
								<valuemax>3.98109</valuemax>
								<value>1</value>
							</parameter>
						</effect>
					</filter>
					<filter>
						<effect>
							<name>Audio Pan</name>
							<effectid>audiopan</effectid>
							<effectcategory>audiopan</effectcategory>
							<effecttype>audiopan</effecttype>
							<mediatype>audio</mediatype>
							<parameter>
								<name>Pan</name>
								<parameterid>pan</parameterid>
								<valuemin>-1</valuemin>
								<valuemax>1</valuemax>
								<value>0</value>
							</parameter>
						</effect>
					</filter>
					<sourcetrack>
						<mediatype>audio</mediatype>
						<trackindex>1</trackindex>
					</sourcetrack>
				</clipitem>
				<clipitem id="525_0297_01 29">
					<name>525_0297_01</name>
					<duration>7470</duration>
					<rate>
						<ntsc>FALSE</ntsc>
						<timebase>25</timebase>
					</rate>
					<in>5917</in>
					<out>5991</out>
					<start>5418</start>
					<end>5492</end>
					<subframeoffset>0</subframeoffset>
					<logginginfo>
						<scene/>
						<shottake/>
						<lognote/>
						<good>FALSE</good>
					</logginginfo>
					<labels>
						<label2/>
					</labels>
					<comments>
						<mastercomment1/>
						<mastercomment2/>
						<mastercomment3/>
						<mastercomment4/>
					</comments>
					<file id="525_0297_01 15"/>
					<filter>
						<effect>
							<name>Audio Levels</name>
							<effectid>audiolevels</effectid>
							<effectcategory>audiolevels</effectcategory>
							<effecttype>audiolevels</effecttype>
							<mediatype>audio</mediatype>
							<parameter>
								<name>Level</name>
								<parameterid>level</parameterid>
								<valuemin>0</valuemin>
								<valuemax>3.98109</valuemax>
								<value>2.81838</value>
							</parameter>
						</effect>
					</filter>
					<filter>
						<effect>
							<name>Audio Pan</name>
							<effectid>audiopan</effectid>
							<effectcategory>audiopan</effectcategory>
							<effecttype>audiopan</effecttype>
							<mediatype>audio</mediatype>
							<parameter>
								<name>Pan</name>
								<parameterid>pan</parameterid>
								<valuemin>-1</valuemin>
								<valuemax>1</valuemax>
								<value>0</value>
							</parameter>
						</effect>
					</filter>
					<sourcetrack>
						<mediatype>audio</mediatype>
						<trackindex>1</trackindex>
					</sourcetrack>
				</clipitem>
				<clipitem id="525_0297_01 30">
					<name>525_0297_01</name>
					<duration>7470</duration>
					<rate>
						<ntsc>FALSE</ntsc>
						<timebase>25</timebase>
					</rate>
					<in>6074</in>
					<out>6121</out>
					<start>5492</start>
					<end>5539</end>
					<subframeoffset>0</subframeoffset>
					<logginginfo>
						<scene/>
						<shottake/>
						<lognote/>
						<good>FALSE</good>
					</logginginfo>
					<labels>
						<label2/>
					</labels>
					<comments>
						<mastercomment1/>
						<mastercomment2/>
						<mastercomment3/>
						<mastercomment4/>
					</comments>
					<file id="525_0297_01 15"/>
					<filter>
						<effect>
							<name>Audio Levels</name>
							<effectid>audiolevels</effectid>
							<effectcategory>audiolevels</effectcategory>
							<effecttype>audiolevels</effecttype>
							<mediatype>audio</mediatype>
							<parameter>
								<name>Level</name>
								<parameterid>level</parameterid>
								<valuemin>0</valuemin>
								<valuemax>3.98109</valuemax>
								<value>2.81838</value>
							</parameter>
						</effect>
					</filter>
					<filter>
						<effect>
							<name>Audio Pan</name>
							<effectid>audiopan</effectid>
							<effectcategory>audiopan</effectcategory>
							<effecttype>audiopan</effecttype>
							<mediatype>audio</mediatype>
							<parameter>
								<name>Pan</name>
								<parameterid>pan</parameterid>
								<valuemin>-1</valuemin>
								<valuemax>1</valuemax>
								<value>0</value>
							</parameter>
						</effect>
					</filter>
					<sourcetrack>
						<mediatype>audio</mediatype>
						<trackindex>1</trackindex>
					</sourcetrack>
				</clipitem>
				<clipitem id="525_0297_01 31">
					<name>525_0297_01</name>
					<duration>7470</duration>
					<rate>
						<ntsc>FALSE</ntsc>
						<timebase>25</timebase>
					</rate>
					<in>6299</in>
					<out>6399</out>
					<start>5539</start>
					<end>5639</end>
					<subframeoffset>0</subframeoffset>
					<logginginfo>
						<scene/>
						<shottake/>
						<lognote/>
						<good>FALSE</good>
					</logginginfo>
					<labels>
						<label2/>
					</labels>
					<comments>
						<mastercomment1/>
						<mastercomment2/>
						<mastercomment3/>
						<mastercomment4/>
					</comments>
					<file id="525_0297_01 15"/>
					<filter>
						<effect>
							<name>Audio Levels</name>
							<effectid>audiolevels</effectid>
							<effectcategory>audiolevels</effectcategory>
							<effecttype>audiolevels</effecttype>
							<mediatype>audio</mediatype>
							<parameter>
								<name>Level</name>
								<parameterid>level</parameterid>
								<valuemin>0</valuemin>
								<valuemax>3.98109</valuemax>
								<value>2.81838</value>
							</parameter>
						</effect>
					</filter>
					<filter>
						<effect>
							<name>Audio Pan</name>
							<effectid>audiopan</effectid>
							<effectcategory>audiopan</effectcategory>
							<effecttype>audiopan</effecttype>
							<mediatype>audio</mediatype>
							<parameter>
								<name>Pan</name>
								<parameterid>pan</parameterid>
								<valuemin>-1</valuemin>
								<valuemax>1</valuemax>
								<value>0</value>
							</parameter>
						</effect>
					</filter>
					<sourcetrack>
						<mediatype>audio</mediatype>
						<trackindex>1</trackindex>
					</sourcetrack>
				</clipitem>
				<clipitem id="525_0297_01 32">
					<name>525_0297_01</name>
					<duration>7470</duration>
					<rate>
						<ntsc>FALSE</ntsc>
						<timebase>25</timebase>
					</rate>
					<in>6490</in>
					<out>6618</out>
					<start>5639</start>
					<end>5767</end>
					<subframeoffset>0</subframeoffset>
					<logginginfo>
						<scene/>
						<shottake/>
						<lognote/>
						<good>FALSE</good>
					</logginginfo>
					<labels>
						<label2/>
					</labels>
					<comments>
						<mastercomment1/>
						<mastercomment2/>
						<mastercomment3/>
						<mastercomment4/>
					</comments>
					<file id="525_0297_01 15"/>
					<filter>
						<effect>
							<name>Audio Levels</name>
							<effectid>audiolevels</effectid>
							<effectcategory>audiolevels</effectcategory>
							<effecttype>audiolevels</effecttype>
							<mediatype>audio</mediatype>
							<parameter>
								<name>Level</name>
								<parameterid>level</parameterid>
								<valuemin>0</valuemin>
								<valuemax>3.98109</valuemax>
								<value>2.81838</value>
							</parameter>
						</effect>
					</filter>
					<filter>
						<effect>
							<name>Audio Pan</name>
							<effectid>audiopan</effectid>
							<effectcategory>audiopan</effectcategory>
							<effecttype>audiopan</effecttype>
							<mediatype>audio</mediatype>
							<parameter>
								<name>Pan</name>
								<parameterid>pan</parameterid>
								<valuemin>-1</valuemin>
								<valuemax>1</valuemax>
								<value>0</value>
							</parameter>
						</effect>
					</filter>
					<sourcetrack>
						<mediatype>audio</mediatype>
						<trackindex>1</trackindex>
					</sourcetrack>
				</clipitem>
				<clipitem id="525_0297_01 33">
					<name>525_0297_01</name>
					<duration>7470</duration>
					<rate>
						<ntsc>FALSE</ntsc>
						<timebase>25</timebase>
					</rate>
					<in>6674</in>
					<out>6737</out>
					<start>5767</start>
					<end>5830</end>
					<subframeoffset>0</subframeoffset>
					<logginginfo>
						<scene/>
						<shottake/>
						<lognote/>
						<good>FALSE</good>
					</logginginfo>
					<labels>
						<label2/>
					</labels>
					<comments>
						<mastercomment1/>
						<mastercomment2/>
						<mastercomment3/>
						<mastercomment4/>
					</comments>
					<file id="525_0297_01 15"/>
					<filter>
						<effect>
							<name>Audio Levels</name>
							<effectid>audiolevels</effectid>
							<effectcategory>audiolevels</effectcategory>
							<effecttype>audiolevels</effecttype>
							<mediatype>audio</mediatype>
							<parameter>
								<name>Level</name>
								<parameterid>level</parameterid>
								<valuemin>0</valuemin>
								<valuemax>3.98109</valuemax>
								<value>2.81838</value>
							</parameter>
						</effect>
					</filter>
					<filter>
						<effect>
							<name>Audio Pan</name>
							<effectid>audiopan</effectid>
							<effectcategory>audiopan</effectcategory>
							<effecttype>audiopan</effecttype>
							<mediatype>audio</mediatype>
							<parameter>
								<name>Pan</name>
								<parameterid>pan</parameterid>
								<valuemin>-1</valuemin>
								<valuemax>1</valuemax>
								<value>0</value>
							</parameter>
						</effect>
					</filter>
					<sourcetrack>
						<mediatype>audio</mediatype>
						<trackindex>1</trackindex>
					</sourcetrack>
				</clipitem>
				<clipitem id="525_0281_01 ">
					<name>525_0281_01</name>
					<duration>1626</duration>
					<rate>
						<ntsc>FALSE</ntsc>
						<timebase>25</timebase>
					</rate>
					<in>1257</in>
					<out>1419</out>
					<start>5830</start>
					<end>5992</end>
					<subframeoffset>0</subframeoffset>
					<logginginfo>
						<scene/>
						<shottake/>
						<lognote/>
						<good>FALSE</good>
					</logginginfo>
					<labels>
						<label2/>
					</labels>
					<comments>
						<mastercomment1/>
						<mastercomment2/>
						<mastercomment3/>
						<mastercomment4/>
					</comments>
					<file id="525_0281_01 1">
						<name>525_0281_01.mov</name>
						<pathurl>file://localhost/Volumes/Askepott/Prosjekter/DNPR637010_Kra%CC%8Akeklubben_TEM_011212/Video/Bes%C3%B8ker%20Dyrebarn/Lam/Disk%201/525_0281_01.mov</pathurl>
						<rate>
							<timebase>25</timebase>
						</rate>
						<duration>1626</duration>
						<timecode>
							<rate>
								<timebase>25</timebase>
							</rate>
							<string>10:38:40:12</string>
							<frame>958012</frame>
							<displayformat>NDF</displayformat>
							<source>source</source>
							<reel>
								<name>Untitled</name>
							</reel>
						</timecode>
						<media>
							<video>
								<duration>1626</duration>
								<samplecharacteristics>
									<width>1920</width>
									<height>1080</height>
								</samplecharacteristics>
							</video>
							<audio>
								<rate>
									<timebase>48000</timebase>
								</rate>
								<trackcount>1</trackcount>
								<channeldescription>A1+A2</channeldescription>
								<samplecharacteristics>
									<depth>16</depth>
								</samplecharacteristics>
							</audio>
						</media>
					</file>
					<filter>
						<effect>
							<name>Audio Levels</name>
							<effectid>audiolevels</effectid>
							<effectcategory>audiolevels</effectcategory>
							<effecttype>audiolevels</effecttype>
							<mediatype>audio</mediatype>
							<parameter>
								<name>Level</name>
								<parameterid>level</parameterid>
								<valuemin>0</valuemin>
								<valuemax>3.98109</valuemax>
								<value>0.141254</value>
							</parameter>
						</effect>
					</filter>
					<filter>
						<effect>
							<name>Audio Pan</name>
							<effectid>audiopan</effectid>
							<effectcategory>audiopan</effectcategory>
							<effecttype>audiopan</effecttype>
							<mediatype>audio</mediatype>
							<parameter>
								<name>Pan</name>
								<parameterid>pan</parameterid>
								<valuemin>-1</valuemin>
								<valuemax>1</valuemax>
								<value>0</value>
							</parameter>
						</effect>
					</filter>
					<sourcetrack>
						<mediatype>audio</mediatype>
						<trackindex>1</trackindex>
					</sourcetrack>
				</clipitem>
				<clipitem id="525_0281_01 2">
					<name>525_0281_01</name>
					<duration>1626</duration>
					<rate>
						<ntsc>FALSE</ntsc>
						<timebase>25</timebase>
					</rate>
					<in>163</in>
					<out>349</out>
					<start>6041</start>
					<end>6227</end>
					<subframeoffset>0</subframeoffset>
					<logginginfo>
						<scene/>
						<shottake/>
						<lognote/>
						<good>FALSE</good>
					</logginginfo>
					<labels>
						<label2/>
					</labels>
					<comments>
						<mastercomment1/>
						<mastercomment2/>
						<mastercomment3/>
						<mastercomment4/>
					</comments>
					<file id="525_0281_01 1"/>
					<filter>
						<effect>
							<name>Audio Levels</name>
							<effectid>audiolevels</effectid>
							<effectcategory>audiolevels</effectcategory>
							<effecttype>audiolevels</effecttype>
							<mediatype>audio</mediatype>
							<parameter>
								<name>Level</name>
								<parameterid>level</parameterid>
								<valuemin>0</valuemin>
								<valuemax>3.98109</valuemax>
								<value>1</value>
							</parameter>
						</effect>
					</filter>
					<filter>
						<effect>
							<name>Audio Pan</name>
							<effectid>audiopan</effectid>
							<effectcategory>audiopan</effectcategory>
							<effecttype>audiopan</effecttype>
							<mediatype>audio</mediatype>
							<parameter>
								<name>Pan</name>
								<parameterid>pan</parameterid>
								<valuemin>-1</valuemin>
								<valuemax>1</valuemax>
								<value>0</value>
							</parameter>
						</effect>
					</filter>
					<sourcetrack>
						<mediatype>audio</mediatype>
						<trackindex>1</trackindex>
					</sourcetrack>
				</clipitem>
				<clipitem id="525_0305_01 4">
					<name>525_0305_01</name>
					<duration>3311</duration>
					<rate>
						<ntsc>FALSE</ntsc>
						<timebase>25</timebase>
					</rate>
					<in>1238</in>
					<out>1333</out>
					<start>6328</start>
					<end>6423</end>
					<subframeoffset>0</subframeoffset>
					<logginginfo>
						<scene/>
						<shottake/>
						<lognote/>
						<good>FALSE</good>
					</logginginfo>
					<labels>
						<label2/>
					</labels>
					<comments>
						<mastercomment1/>
						<mastercomment2/>
						<mastercomment3/>
						<mastercomment4/>
					</comments>
					<file id="525_0305_01 5">
						<name>525_0305_01.mov</name>
						<pathurl>file://localhost/Volumes/Askepott/Prosjekter/DNPR637010_Kra%CC%8Akeklubben_TEM_011212/Video/Bes%C3%B8ker%20Dyrebarn/Lam/Disk%202/525_0305_01.mov</pathurl>
						<rate>
							<timebase>25</timebase>
						</rate>
						<duration>3311</duration>
						<timecode>
							<rate>
								<timebase>25</timebase>
							</rate>
							<string>11:27:00:06</string>
							<frame>1030506</frame>
							<displayformat>NDF</displayformat>
							<source>source</source>
							<reel>
								<name>Untitled</name>
							</reel>
						</timecode>
						<media>
							<video>
								<duration>3311</duration>
								<samplecharacteristics>
									<width>1920</width>
									<height>1080</height>
								</samplecharacteristics>
							</video>
							<audio>
								<rate>
									<timebase>48000</timebase>
								</rate>
								<trackcount>1</trackcount>
								<channeldescription>A1+A2</channeldescription>
								<samplecharacteristics>
									<depth>16</depth>
								</samplecharacteristics>
							</audio>
						</media>
					</file>
					<filter>
						<effect>
							<name>Audio Levels</name>
							<effectid>audiolevels</effectid>
							<effectcategory>audiolevels</effectcategory>
							<effecttype>audiolevels</effecttype>
							<mediatype>audio</mediatype>
							<parameter>
								<name>Level</name>
								<parameterid>level</parameterid>
								<valuemin>0</valuemin>
								<valuemax>3.98109</valuemax>
								<value>2.23872</value>
							</parameter>
						</effect>
					</filter>
					<filter>
						<effect>
							<name>Audio Pan</name>
							<effectid>audiopan</effectid>
							<effectcategory>audiopan</effectcategory>
							<effecttype>audiopan</effecttype>
							<mediatype>audio</mediatype>
							<parameter>
								<name>Pan</name>
								<parameterid>pan</parameterid>
								<valuemin>-1</valuemin>
								<valuemax>1</valuemax>
								<value>0</value>
							</parameter>
						</effect>
					</filter>
					<sourcetrack>
						<mediatype>audio</mediatype>
						<trackindex>1</trackindex>
					</sourcetrack>
				</clipitem>
				<clipitem id="525_0305_01 6">
					<name>525_0305_01</name>
					<duration>3311</duration>
					<rate>
						<ntsc>FALSE</ntsc>
						<timebase>25</timebase>
					</rate>
					<in>1540</in>
					<out>1569</out>
					<start>6423</start>
					<end>6452</end>
					<subframeoffset>0</subframeoffset>
					<logginginfo>
						<scene/>
						<shottake/>
						<lognote/>
						<good>FALSE</good>
					</logginginfo>
					<labels>
						<label2/>
					</labels>
					<comments>
						<mastercomment1/>
						<mastercomment2/>
						<mastercomment3/>
						<mastercomment4/>
					</comments>
					<file id="525_0305_01 5"/>
					<filter>
						<effect>
							<name>Audio Levels</name>
							<effectid>audiolevels</effectid>
							<effectcategory>audiolevels</effectcategory>
							<effecttype>audiolevels</effecttype>
							<mediatype>audio</mediatype>
							<parameter>
								<name>Level</name>
								<parameterid>level</parameterid>
								<valuemin>0</valuemin>
								<valuemax>3.98109</valuemax>
								<value>2.51189</value>
							</parameter>
						</effect>
					</filter>
					<filter>
						<effect>
							<name>Audio Pan</name>
							<effectid>audiopan</effectid>
							<effectcategory>audiopan</effectcategory>
							<effecttype>audiopan</effecttype>
							<mediatype>audio</mediatype>
							<parameter>
								<name>Pan</name>
								<parameterid>pan</parameterid>
								<valuemin>-1</valuemin>
								<valuemax>1</valuemax>
								<value>0</value>
							</parameter>
						</effect>
					</filter>
					<sourcetrack>
						<mediatype>audio</mediatype>
						<trackindex>1</trackindex>
					</sourcetrack>
				</clipitem>
				<clipitem id="525_0305_01 7">
					<name>525_0305_01</name>
					<duration>3311</duration>
					<rate>
						<ntsc>FALSE</ntsc>
						<timebase>25</timebase>
					</rate>
					<in>1540</in>
					<out>1570</out>
					<start>6452</start>
					<end>6482</end>
					<subframeoffset>0</subframeoffset>
					<logginginfo>
						<scene/>
						<shottake/>
						<lognote/>
						<good>FALSE</good>
					</logginginfo>
					<labels>
						<label2/>
					</labels>
					<comments>
						<mastercomment1/>
						<mastercomment2/>
						<mastercomment3/>
						<mastercomment4/>
					</comments>
					<file id="525_0305_01 5"/>
					<filter>
						<effect>
							<name>Audio Levels</name>
							<effectid>audiolevels</effectid>
							<effectcategory>audiolevels</effectcategory>
							<effecttype>audiolevels</effecttype>
							<mediatype>audio</mediatype>
							<parameter>
								<name>Level</name>
								<parameterid>level</parameterid>
								<valuemin>0</valuemin>
								<valuemax>3.98109</valuemax>
								<value>2.51189</value>
							</parameter>
						</effect>
					</filter>
					<filter>
						<effect>
							<name>Audio Pan</name>
							<effectid>audiopan</effectid>
							<effectcategory>audiopan</effectcategory>
							<effecttype>audiopan</effecttype>
							<mediatype>audio</mediatype>
							<parameter>
								<name>Pan</name>
								<parameterid>pan</parameterid>
								<valuemin>-1</valuemin>
								<valuemax>1</valuemax>
								<value>0</value>
							</parameter>
						</effect>
					</filter>
					<sourcetrack>
						<mediatype>audio</mediatype>
						<trackindex>1</trackindex>
					</sourcetrack>
				</clipitem>
				<clipitem id="525_0305_01 8">
					<name>525_0305_01</name>
					<duration>3311</duration>
					<rate>
						<ntsc>FALSE</ntsc>
						<timebase>25</timebase>
					</rate>
					<in>2818</in>
					<out>2935</out>
					<start>6524</start>
					<end>6641</end>
					<subframeoffset>0</subframeoffset>
					<logginginfo>
						<scene/>
						<shottake/>
						<lognote/>
						<good>FALSE</good>
					</logginginfo>
					<labels>
						<label2/>
					</labels>
					<comments>
						<mastercomment1/>
						<mastercomment2/>
						<mastercomment3/>
						<mastercomment4/>
					</comments>
					<file id="525_0305_01 5"/>
					<filter>
						<effect>
							<name>Audio Levels</name>
							<effectid>audiolevels</effectid>
							<effectcategory>audiolevels</effectcategory>
							<effecttype>audiolevels</effecttype>
							<mediatype>audio</mediatype>
							<parameter>
								<name>Level</name>
								<parameterid>level</parameterid>
								<valuemin>0</valuemin>
								<valuemax>3.98109</valuemax>
								<value>2.51189</value>
							</parameter>
						</effect>
					</filter>
					<filter>
						<effect>
							<name>Audio Pan</name>
							<effectid>audiopan</effectid>
							<effectcategory>audiopan</effectcategory>
							<effecttype>audiopan</effecttype>
							<mediatype>audio</mediatype>
							<parameter>
								<name>Pan</name>
								<parameterid>pan</parameterid>
								<valuemin>-1</valuemin>
								<valuemax>1</valuemax>
								<value>0</value>
							</parameter>
						</effect>
					</filter>
					<sourcetrack>
						<mediatype>audio</mediatype>
						<trackindex>1</trackindex>
					</sourcetrack>
				</clipitem>
				<clipitem id="525_0287_01 2">
					<name>525_0287_01</name>
					<duration>2106</duration>
					<rate>
						<ntsc>FALSE</ntsc>
						<timebase>25</timebase>
					</rate>
					<in>992</in>
					<out>1026</out>
					<start>6641</start>
					<end>6675</end>
					<subframeoffset>0</subframeoffset>
					<logginginfo>
						<scene/>
						<shottake/>
						<lognote/>
						<good>FALSE</good>
					</logginginfo>
					<labels>
						<label2/>
					</labels>
					<comments>
						<mastercomment1/>
						<mastercomment2/>
						<mastercomment3/>
						<mastercomment4/>
					</comments>
					<file id="525_0287_01 3">
						<name>525_0287_01.mov</name>
						<pathurl>file://localhost/Volumes/Askepott/Prosjekter/DNPR637010_Kra%CC%8Akeklubben_TEM_011212/Video/Bes%C3%B8ker%20Dyrebarn/Lam/Disk%201/525_0287_01.mov</pathurl>
						<rate>
							<timebase>25</timebase>
						</rate>
						<duration>2106</duration>
						<timecode>
							<rate>
								<timebase>25</timebase>
							</rate>
							<string>10:45:07:21</string>
							<frame>967696</frame>
							<displayformat>NDF</displayformat>
							<source>source</source>
							<reel>
								<name>Untitled</name>
							</reel>
						</timecode>
						<media>
							<video>
								<duration>2106</duration>
								<samplecharacteristics>
									<width>1920</width>
									<height>1080</height>
								</samplecharacteristics>
							</video>
							<audio>
								<rate>
									<timebase>48000</timebase>
								</rate>
								<trackcount>1</trackcount>
								<channeldescription>A1+A2</channeldescription>
								<samplecharacteristics>
									<depth>16</depth>
								</samplecharacteristics>
							</audio>
						</media>
					</file>
					<filter>
						<effect>
							<name>Audio Levels</name>
							<effectid>audiolevels</effectid>
							<effectcategory>audiolevels</effectcategory>
							<effecttype>audiolevels</effecttype>
							<mediatype>audio</mediatype>
							<parameter>
								<name>Level</name>
								<parameterid>level</parameterid>
								<valuemin>0</valuemin>
								<valuemax>3.98109</valuemax>
								<value>1</value>
							</parameter>
						</effect>
					</filter>
					<filter>
						<effect>
							<name>Audio Pan</name>
							<effectid>audiopan</effectid>
							<effectcategory>audiopan</effectcategory>
							<effecttype>audiopan</effecttype>
							<mediatype>audio</mediatype>
							<parameter>
								<name>Pan</name>
								<parameterid>pan</parameterid>
								<valuemin>-1</valuemin>
								<valuemax>1</valuemax>
								<value>0</value>
							</parameter>
						</effect>
					</filter>
					<sourcetrack>
						<mediatype>audio</mediatype>
						<trackindex>1</trackindex>
					</sourcetrack>
				</clipitem>
				<clipitem id="525_0268_01 1">
					<name>525_0268_01</name>
					<duration>1372</duration>
					<rate>
						<ntsc>FALSE</ntsc>
						<timebase>25</timebase>
					</rate>
					<in>903</in>
					<out>960</out>
					<start>6675</start>
					<end>6732</end>
					<subframeoffset>0</subframeoffset>
					<logginginfo>
						<scene/>
						<shottake/>
						<lognote/>
						<good>FALSE</good>
					</logginginfo>
					<labels>
						<label2/>
					</labels>
					<comments>
						<mastercomment1/>
						<mastercomment2/>
						<mastercomment3/>
						<mastercomment4/>
					</comments>
					<file id="525_0268_01 2">
						<name>525_0268_01.mov</name>
						<pathurl>file://localhost/Volumes/Askepott/Prosjekter/DNPR637010_Kra%CC%8Akeklubben_TEM_011212/Video/Bes%C3%B8ker%20Dyrebarn/Lam/Disk%201/525_0268_01.mov</pathurl>
						<rate>
							<timebase>25</timebase>
						</rate>
						<duration>1372</duration>
						<timecode>
							<rate>
								<timebase>25</timebase>
							</rate>
							<string>10:25:39:03</string>
							<frame>938478</frame>
							<displayformat>NDF</displayformat>
							<source>source</source>
							<reel>
								<name>Untitled</name>
							</reel>
						</timecode>
						<media>
							<video>
								<duration>1372</duration>
								<samplecharacteristics>
									<width>1920</width>
									<height>1080</height>
								</samplecharacteristics>
							</video>
							<audio>
								<rate>
									<timebase>48000</timebase>
								</rate>
								<trackcount>1</trackcount>
								<channeldescription>A1+A2</channeldescription>
								<samplecharacteristics>
									<depth>16</depth>
								</samplecharacteristics>
							</audio>
						</media>
					</file>
					<filter>
						<effect>
							<name>Audio Levels</name>
							<effectid>audiolevels</effectid>
							<effectcategory>audiolevels</effectcategory>
							<effecttype>audiolevels</effecttype>
							<mediatype>audio</mediatype>
							<parameter>
								<name>Level</name>
								<parameterid>level</parameterid>
								<valuemin>0</valuemin>
								<valuemax>3.98109</valuemax>
								<value>1</value>
							</parameter>
						</effect>
					</filter>
					<filter>
						<effect>
							<name>Audio Pan</name>
							<effectid>audiopan</effectid>
							<effectcategory>audiopan</effectcategory>
							<effecttype>audiopan</effecttype>
							<mediatype>audio</mediatype>
							<parameter>
								<name>Pan</name>
								<parameterid>pan</parameterid>
								<valuemin>-1</valuemin>
								<valuemax>1</valuemax>
								<value>0</value>
							</parameter>
						</effect>
					</filter>
					<sourcetrack>
						<mediatype>audio</mediatype>
						<trackindex>2</trackindex>
					</sourcetrack>
				</clipitem>
				<clipitem id="525_0298_01 25">
					<name>525_0298_01</name>
					<duration>15673</duration>
					<rate>
						<ntsc>FALSE</ntsc>
						<timebase>25</timebase>
					</rate>
					<in>3881</in>
					<out>3916</out>
					<start>6732</start>
					<end>6767</end>
					<subframeoffset>0</subframeoffset>
					<masterclipid>525_0298_01 26</masterclipid>
					<logginginfo>
						<scene/>
						<shottake/>
						<lognote/>
						<good>FALSE</good>
					</logginginfo>
					<labels>
						<label2/>
					</labels>
					<comments>
						<mastercomment1/>
						<mastercomment2/>
						<mastercomment3/>
						<mastercomment4/>
					</comments>
					<file id="525_0298_01 22"/>
					<filter>
						<effect>
							<name>Audio Levels</name>
							<effectid>audiolevels</effectid>
							<effectcategory>audiolevels</effectcategory>
							<effecttype>audiolevels</effecttype>
							<mediatype>audio</mediatype>
							<parameter>
								<name>Level</name>
								<parameterid>level</parameterid>
								<valuemin>0</valuemin>
								<valuemax>3.98109</valuemax>
								<value>2.81838</value>
							</parameter>
						</effect>
					</filter>
					<filter>
						<effect>
							<name>Audio Pan</name>
							<effectid>audiopan</effectid>
							<effectcategory>audiopan</effectcategory>
							<effecttype>audiopan</effecttype>
							<mediatype>audio</mediatype>
							<parameter>
								<name>Pan</name>
								<parameterid>pan</parameterid>
								<valuemin>-1</valuemin>
								<valuemax>1</valuemax>
								<value>0</value>
							</parameter>
						</effect>
					</filter>
					<sourcetrack>
						<mediatype>audio</mediatype>
						<trackindex>1</trackindex>
					</sourcetrack>
				</clipitem>
				<clipitem id="525_0298_01 27">
					<name>525_0298_01</name>
					<duration>15673</duration>
					<rate>
						<ntsc>FALSE</ntsc>
						<timebase>25</timebase>
					</rate>
					<in>3538</in>
					<out>3649</out>
					<start>6767</start>
					<end>-1</end>
					<subframeoffset>0</subframeoffset>
					<logginginfo>
						<scene/>
						<shottake/>
						<lognote/>
						<good>FALSE</good>
					</logginginfo>
					<labels>
						<label2/>
					</labels>
					<comments>
						<mastercomment1/>
						<mastercomment2/>
						<mastercomment3/>
						<mastercomment4/>
					</comments>
					<file id="525_0298_01 22"/>
					<filter>
						<effect>
							<name>Audio Levels</name>
							<effectid>audiolevels</effectid>
							<effectcategory>audiolevels</effectcategory>
							<effecttype>audiolevels</effecttype>
							<mediatype>audio</mediatype>
							<parameter>
								<name>Level</name>
								<parameterid>level</parameterid>
								<valuemin>0</valuemin>
								<valuemax>3.98109</valuemax>
								<value>3.98107</value>
							</parameter>
						</effect>
					</filter>
					<filter>
						<effect>
							<name>Audio Pan</name>
							<effectid>audiopan</effectid>
							<effectcategory>audiopan</effectcategory>
							<effecttype>audiopan</effecttype>
							<mediatype>audio</mediatype>
							<parameter>
								<name>Pan</name>
								<parameterid>pan</parameterid>
								<valuemin>-1</valuemin>
								<valuemax>1</valuemax>
								<value>0</value>
							</parameter>
						</effect>
					</filter>
					<sourcetrack>
						<mediatype>audio</mediatype>
						<trackindex>1</trackindex>
					</sourcetrack>
				</clipitem>
				<transitionitem id="1254392960 ">
					<rate>
						<ntsc>FALSE</ntsc>
						<timebase>25</timebase>
					</rate>
					<start>6853</start>
					<end>6878</end>
					<alignment>center</alignment>
					<effect>
						<name>Cross Fade (+3dB)</name>
						<effecttype>transition</effecttype>
						<mediatype>audio</mediatype>
					</effect>
				</transitionitem>
				<clipitem id="525_0298_01 28">
					<name>525_0298_01</name>
					<duration>15673</duration>
					<rate>
						<ntsc>FALSE</ntsc>
						<timebase>25</timebase>
					</rate>
					<in>4178</in>
					<out>4325</out>
					<start>-1</start>
					<end>7000</end>
					<subframeoffset>0</subframeoffset>
					<logginginfo>
						<scene/>
						<shottake/>
						<lognote/>
						<good>FALSE</good>
					</logginginfo>
					<labels>
						<label2/>
					</labels>
					<comments>
						<mastercomment1/>
						<mastercomment2/>
						<mastercomment3/>
						<mastercomment4/>
					</comments>
					<file id="525_0298_01 22"/>
					<filter>
						<effect>
							<name>Audio Levels</name>
							<effectid>audiolevels</effectid>
							<effectcategory>audiolevels</effectcategory>
							<effecttype>audiolevels</effecttype>
							<mediatype>audio</mediatype>
							<parameter>
								<name>Level</name>
								<parameterid>level</parameterid>
								<valuemin>0</valuemin>
								<valuemax>3.98109</valuemax>
								<value>2.81838</value>
							</parameter>
						</effect>
					</filter>
					<filter>
						<effect>
							<name>Audio Pan</name>
							<effectid>audiopan</effectid>
							<effectcategory>audiopan</effectcategory>
							<effecttype>audiopan</effecttype>
							<mediatype>audio</mediatype>
							<parameter>
								<name>Pan</name>
								<parameterid>pan</parameterid>
								<valuemin>-1</valuemin>
								<valuemax>1</valuemax>
								<value>0</value>
							</parameter>
						</effect>
					</filter>
					<sourcetrack>
						<mediatype>audio</mediatype>
						<trackindex>1</trackindex>
					</sourcetrack>
				</clipitem>
				<clipitem id="525_0298_01 29">
					<name>525_0298_01</name>
					<duration>15673</duration>
					<rate>
						<ntsc>FALSE</ntsc>
						<timebase>25</timebase>
					</rate>
					<in>3922</in>
					<out>3936</out>
					<start>7000</start>
					<end>7014</end>
					<subframeoffset>0</subframeoffset>
					<logginginfo>
						<scene/>
						<shottake/>
						<lognote/>
						<good>FALSE</good>
					</logginginfo>
					<labels>
						<label2/>
					</labels>
					<comments>
						<mastercomment1/>
						<mastercomment2/>
						<mastercomment3/>
						<mastercomment4/>
					</comments>
					<file id="525_0298_01 22"/>
					<filter>
						<effect>
							<name>Audio Levels</name>
							<effectid>audiolevels</effectid>
							<effectcategory>audiolevels</effectcategory>
							<effecttype>audiolevels</effecttype>
							<mediatype>audio</mediatype>
							<parameter>
								<name>Level</name>
								<parameterid>level</parameterid>
								<valuemin>0</valuemin>
								<valuemax>3.98109</valuemax>
								<value>2.81838</value>
							</parameter>
						</effect>
					</filter>
					<filter>
						<effect>
							<name>Audio Pan</name>
							<effectid>audiopan</effectid>
							<effectcategory>audiopan</effectcategory>
							<effecttype>audiopan</effecttype>
							<mediatype>audio</mediatype>
							<parameter>
								<name>Pan</name>
								<parameterid>pan</parameterid>
								<valuemin>-1</valuemin>
								<valuemax>1</valuemax>
								<value>0</value>
							</parameter>
						</effect>
					</filter>
					<sourcetrack>
						<mediatype>audio</mediatype>
						<trackindex>1</trackindex>
					</sourcetrack>
				</clipitem>
				<clipitem id="525_0298_01 30">
					<name>525_0298_01</name>
					<duration>15673</duration>
					<rate>
						<ntsc>FALSE</ntsc>
						<timebase>25</timebase>
					</rate>
					<in>4382</in>
					<out>4449</out>
					<start>7014</start>
					<end>7081</end>
					<subframeoffset>0</subframeoffset>
					<logginginfo>
						<scene/>
						<shottake/>
						<lognote/>
						<good>FALSE</good>
					</logginginfo>
					<labels>
						<label2/>
					</labels>
					<comments>
						<mastercomment1/>
						<mastercomment2/>
						<mastercomment3/>
						<mastercomment4/>
					</comments>
					<file id="525_0298_01 22"/>
					<filter>
						<effect>
							<name>Audio Levels</name>
							<effectid>audiolevels</effectid>
							<effectcategory>audiolevels</effectcategory>
							<effecttype>audiolevels</effecttype>
							<mediatype>audio</mediatype>
							<parameter>
								<name>Level</name>
								<parameterid>level</parameterid>
								<valuemin>0</valuemin>
								<valuemax>3.98109</valuemax>
								<value>2.23872</value>
							</parameter>
						</effect>
					</filter>
					<filter>
						<effect>
							<name>Audio Pan</name>
							<effectid>audiopan</effectid>
							<effectcategory>audiopan</effectcategory>
							<effecttype>audiopan</effecttype>
							<mediatype>audio</mediatype>
							<parameter>
								<name>Pan</name>
								<parameterid>pan</parameterid>
								<valuemin>-1</valuemin>
								<valuemax>1</valuemax>
								<value>0</value>
							</parameter>
						</effect>
					</filter>
					<sourcetrack>
						<mediatype>audio</mediatype>
						<trackindex>1</trackindex>
					</sourcetrack>
				</clipitem>
				<clipitem id="525_0298_01 31">
					<name>525_0298_01</name>
					<duration>15673</duration>
					<rate>
						<ntsc>FALSE</ntsc>
						<timebase>25</timebase>
					</rate>
					<in>4481</in>
					<out>4553</out>
					<start>7081</start>
					<end>7153</end>
					<subframeoffset>0</subframeoffset>
					<logginginfo>
						<scene/>
						<shottake/>
						<lognote/>
						<good>FALSE</good>
					</logginginfo>
					<labels>
						<label2/>
					</labels>
					<comments>
						<mastercomment1/>
						<mastercomment2/>
						<mastercomment3/>
						<mastercomment4/>
					</comments>
					<file id="525_0298_01 22"/>
					<filter>
						<effect>
							<name>Audio Levels</name>
							<effectid>audiolevels</effectid>
							<effectcategory>audiolevels</effectcategory>
							<effecttype>audiolevels</effecttype>
							<mediatype>audio</mediatype>
							<parameter>
								<name>Level</name>
								<parameterid>level</parameterid>
								<valuemin>0</valuemin>
								<valuemax>3.98109</valuemax>
								<value>3.16228</value>
							</parameter>
						</effect>
					</filter>
					<filter>
						<effect>
							<name>Audio Pan</name>
							<effectid>audiopan</effectid>
							<effectcategory>audiopan</effectcategory>
							<effecttype>audiopan</effecttype>
							<mediatype>audio</mediatype>
							<parameter>
								<name>Pan</name>
								<parameterid>pan</parameterid>
								<valuemin>-1</valuemin>
								<valuemax>1</valuemax>
								<value>0</value>
							</parameter>
						</effect>
					</filter>
					<sourcetrack>
						<mediatype>audio</mediatype>
						<trackindex>1</trackindex>
					</sourcetrack>
				</clipitem>
				<clipitem id="525_0298_01 32">
					<name>525_0298_01</name>
					<duration>15673</duration>
					<rate>
						<ntsc>FALSE</ntsc>
						<timebase>25</timebase>
					</rate>
					<in>4018</in>
					<out>4034</out>
					<start>7153</start>
					<end>7169</end>
					<subframeoffset>0</subframeoffset>
					<logginginfo>
						<scene/>
						<shottake/>
						<lognote/>
						<good>FALSE</good>
					</logginginfo>
					<labels>
						<label2/>
					</labels>
					<comments>
						<mastercomment1/>
						<mastercomment2/>
						<mastercomment3/>
						<mastercomment4/>
					</comments>
					<file id="525_0298_01 22"/>
					<filter>
						<effect>
							<name>Audio Levels</name>
							<effectid>audiolevels</effectid>
							<effectcategory>audiolevels</effectcategory>
							<effecttype>audiolevels</effecttype>
							<mediatype>audio</mediatype>
							<parameter>
								<name>Level</name>
								<parameterid>level</parameterid>
								<valuemin>0</valuemin>
								<valuemax>3.98109</valuemax>
								<value>2.81838</value>
							</parameter>
						</effect>
					</filter>
					<filter>
						<effect>
							<name>Audio Pan</name>
							<effectid>audiopan</effectid>
							<effectcategory>audiopan</effectcategory>
							<effecttype>audiopan</effecttype>
							<mediatype>audio</mediatype>
							<parameter>
								<name>Pan</name>
								<parameterid>pan</parameterid>
								<valuemin>-1</valuemin>
								<valuemax>1</valuemax>
								<value>0</value>
							</parameter>
						</effect>
					</filter>
					<sourcetrack>
						<mediatype>audio</mediatype>
						<trackindex>1</trackindex>
					</sourcetrack>
				</clipitem>
				<clipitem id="525_0298_01 33">
					<name>525_0298_01</name>
					<duration>15673</duration>
					<rate>
						<ntsc>FALSE</ntsc>
						<timebase>25</timebase>
					</rate>
					<in>4856</in>
					<out>4961</out>
					<start>7169</start>
					<end>7274</end>
					<subframeoffset>0</subframeoffset>
					<logginginfo>
						<scene/>
						<shottake/>
						<lognote/>
						<good>FALSE</good>
					</logginginfo>
					<labels>
						<label2/>
					</labels>
					<comments>
						<mastercomment1/>
						<mastercomment2/>
						<mastercomment3/>
						<mastercomment4/>
					</comments>
					<file id="525_0298_01 22"/>
					<filter>
						<effect>
							<name>Audio Levels</name>
							<effectid>audiolevels</effectid>
							<effectcategory>audiolevels</effectcategory>
							<effecttype>audiolevels</effecttype>
							<mediatype>audio</mediatype>
							<parameter>
								<name>Level</name>
								<parameterid>level</parameterid>
								<valuemin>0</valuemin>
								<valuemax>3.98109</valuemax>
								<value>3.16228</value>
							</parameter>
						</effect>
					</filter>
					<filter>
						<effect>
							<name>Audio Pan</name>
							<effectid>audiopan</effectid>
							<effectcategory>audiopan</effectcategory>
							<effecttype>audiopan</effecttype>
							<mediatype>audio</mediatype>
							<parameter>
								<name>Pan</name>
								<parameterid>pan</parameterid>
								<valuemin>-1</valuemin>
								<valuemax>1</valuemax>
								<value>0</value>
							</parameter>
						</effect>
					</filter>
					<sourcetrack>
						<mediatype>audio</mediatype>
						<trackindex>1</trackindex>
					</sourcetrack>
				</clipitem>
				<clipitem id="525_0298_01 34">
					<name>525_0298_01</name>
					<duration>15673</duration>
					<rate>
						<ntsc>FALSE</ntsc>
						<timebase>25</timebase>
					</rate>
					<in>5121</in>
					<out>5228</out>
					<start>7274</start>
					<end>7381</end>
					<subframeoffset>0</subframeoffset>
					<logginginfo>
						<scene/>
						<shottake/>
						<lognote/>
						<good>FALSE</good>
					</logginginfo>
					<labels>
						<label2/>
					</labels>
					<comments>
						<mastercomment1/>
						<mastercomment2/>
						<mastercomment3/>
						<mastercomment4/>
					</comments>
					<file id="525_0298_01 22"/>
					<filter>
						<effect>
							<name>Audio Levels</name>
							<effectid>audiolevels</effectid>
							<effectcategory>audiolevels</effectcategory>
							<effecttype>audiolevels</effecttype>
							<mediatype>audio</mediatype>
							<parameter>
								<name>Level</name>
								<parameterid>level</parameterid>
								<valuemin>0</valuemin>
								<valuemax>3.98109</valuemax>
								<value>2.81838</value>
							</parameter>
						</effect>
					</filter>
					<filter>
						<effect>
							<name>Audio Pan</name>
							<effectid>audiopan</effectid>
							<effectcategory>audiopan</effectcategory>
							<effecttype>audiopan</effecttype>
							<mediatype>audio</mediatype>
							<parameter>
								<name>Pan</name>
								<parameterid>pan</parameterid>
								<valuemin>-1</valuemin>
								<valuemax>1</valuemax>
								<value>0</value>
							</parameter>
						</effect>
					</filter>
					<sourcetrack>
						<mediatype>audio</mediatype>
						<trackindex>1</trackindex>
					</sourcetrack>
				</clipitem>
				<clipitem id="525_0298_01 35">
					<name>525_0298_01</name>
					<duration>15673</duration>
					<rate>
						<ntsc>FALSE</ntsc>
						<timebase>25</timebase>
					</rate>
					<in>5323</in>
					<out>5379</out>
					<start>7381</start>
					<end>7437</end>
					<subframeoffset>0</subframeoffset>
					<logginginfo>
						<scene/>
						<shottake/>
						<lognote/>
						<good>FALSE</good>
					</logginginfo>
					<labels>
						<label2/>
					</labels>
					<comments>
						<mastercomment1/>
						<mastercomment2/>
						<mastercomment3/>
						<mastercomment4/>
					</comments>
					<file id="525_0298_01 22"/>
					<filter>
						<effect>
							<name>Audio Levels</name>
							<effectid>audiolevels</effectid>
							<effectcategory>audiolevels</effectcategory>
							<effecttype>audiolevels</effecttype>
							<mediatype>audio</mediatype>
							<parameter>
								<name>Level</name>
								<parameterid>level</parameterid>
								<valuemin>0</valuemin>
								<valuemax>3.98109</valuemax>
								<value>3.16228</value>
							</parameter>
						</effect>
					</filter>
					<filter>
						<effect>
							<name>Audio Pan</name>
							<effectid>audiopan</effectid>
							<effectcategory>audiopan</effectcategory>
							<effecttype>audiopan</effecttype>
							<mediatype>audio</mediatype>
							<parameter>
								<name>Pan</name>
								<parameterid>pan</parameterid>
								<valuemin>-1</valuemin>
								<valuemax>1</valuemax>
								<value>0</value>
							</parameter>
						</effect>
					</filter>
					<sourcetrack>
						<mediatype>audio</mediatype>
						<trackindex>1</trackindex>
					</sourcetrack>
				</clipitem>
				<clipitem id="525_0298_01 36">
					<name>525_0298_01</name>
					<duration>15673</duration>
					<rate>
						<ntsc>FALSE</ntsc>
						<timebase>25</timebase>
					</rate>
					<in>5413</in>
					<out>5455</out>
					<start>7437</start>
					<end>7479</end>
					<subframeoffset>0</subframeoffset>
					<logginginfo>
						<scene/>
						<shottake/>
						<lognote/>
						<good>FALSE</good>
					</logginginfo>
					<labels>
						<label2/>
					</labels>
					<comments>
						<mastercomment1/>
						<mastercomment2/>
						<mastercomment3/>
						<mastercomment4/>
					</comments>
					<file id="525_0298_01 22"/>
					<filter>
						<effect>
							<name>Audio Levels</name>
							<effectid>audiolevels</effectid>
							<effectcategory>audiolevels</effectcategory>
							<effecttype>audiolevels</effecttype>
							<mediatype>audio</mediatype>
							<parameter>
								<name>Level</name>
								<parameterid>level</parameterid>
								<valuemin>0</valuemin>
								<valuemax>3.98109</valuemax>
								<value>2.81838</value>
							</parameter>
						</effect>
					</filter>
					<filter>
						<effect>
							<name>Audio Pan</name>
							<effectid>audiopan</effectid>
							<effectcategory>audiopan</effectcategory>
							<effecttype>audiopan</effecttype>
							<mediatype>audio</mediatype>
							<parameter>
								<name>Pan</name>
								<parameterid>pan</parameterid>
								<valuemin>-1</valuemin>
								<valuemax>1</valuemax>
								<value>0</value>
							</parameter>
						</effect>
					</filter>
					<sourcetrack>
						<mediatype>audio</mediatype>
						<trackindex>1</trackindex>
					</sourcetrack>
				</clipitem>
				<clipitem id="525_0298_01 37">
					<name>525_0298_01</name>
					<duration>15673</duration>
					<rate>
						<ntsc>FALSE</ntsc>
						<timebase>25</timebase>
					</rate>
					<in>4561</in>
					<out>4634</out>
					<start>7479</start>
					<end>7552</end>
					<subframeoffset>0</subframeoffset>
					<logginginfo>
						<scene/>
						<shottake/>
						<lognote/>
						<good>FALSE</good>
					</logginginfo>
					<labels>
						<label2/>
					</labels>
					<comments>
						<mastercomment1/>
						<mastercomment2/>
						<mastercomment3/>
						<mastercomment4/>
					</comments>
					<file id="525_0298_01 22"/>
					<filter>
						<effect>
							<name>Audio Levels</name>
							<effectid>audiolevels</effectid>
							<effectcategory>audiolevels</effectcategory>
							<effecttype>audiolevels</effecttype>
							<mediatype>audio</mediatype>
							<parameter>
								<name>Level</name>
								<parameterid>level</parameterid>
								<valuemin>0</valuemin>
								<valuemax>3.98109</valuemax>
								<value>2.81838</value>
							</parameter>
						</effect>
					</filter>
					<filter>
						<effect>
							<name>Audio Pan</name>
							<effectid>audiopan</effectid>
							<effectcategory>audiopan</effectcategory>
							<effecttype>audiopan</effecttype>
							<mediatype>audio</mediatype>
							<parameter>
								<name>Pan</name>
								<parameterid>pan</parameterid>
								<valuemin>-1</valuemin>
								<valuemax>1</valuemax>
								<value>0</value>
							</parameter>
						</effect>
					</filter>
					<sourcetrack>
						<mediatype>audio</mediatype>
						<trackindex>1</trackindex>
					</sourcetrack>
				</clipitem>
				<clipitem id="525_0298_01 38">
					<name>525_0298_01</name>
					<duration>15673</duration>
					<rate>
						<ntsc>FALSE</ntsc>
						<timebase>25</timebase>
					</rate>
					<in>6547</in>
					<out>6651</out>
					<start>7552</start>
					<end>7656</end>
					<subframeoffset>0</subframeoffset>
					<logginginfo>
						<scene/>
						<shottake/>
						<lognote/>
						<good>FALSE</good>
					</logginginfo>
					<labels>
						<label2/>
					</labels>
					<comments>
						<mastercomment1/>
						<mastercomment2/>
						<mastercomment3/>
						<mastercomment4/>
					</comments>
					<file id="525_0298_01 22"/>
					<filter>
						<effect>
							<name>Audio Levels</name>
							<effectid>audiolevels</effectid>
							<effectcategory>audiolevels</effectcategory>
							<effecttype>audiolevels</effecttype>
							<mediatype>audio</mediatype>
							<parameter>
								<name>Level</name>
								<parameterid>level</parameterid>
								<valuemin>0</valuemin>
								<valuemax>3.98109</valuemax>
								<value>3.16228</value>
							</parameter>
						</effect>
					</filter>
					<filter>
						<effect>
							<name>Audio Pan</name>
							<effectid>audiopan</effectid>
							<effectcategory>audiopan</effectcategory>
							<effecttype>audiopan</effecttype>
							<mediatype>audio</mediatype>
							<parameter>
								<name>Pan</name>
								<parameterid>pan</parameterid>
								<valuemin>-1</valuemin>
								<valuemax>1</valuemax>
								<value>0</value>
							</parameter>
						</effect>
					</filter>
					<sourcetrack>
						<mediatype>audio</mediatype>
						<trackindex>1</trackindex>
					</sourcetrack>
				</clipitem>
				<clipitem id="525_0298_01 39">
					<name>525_0298_01</name>
					<duration>15673</duration>
					<rate>
						<ntsc>FALSE</ntsc>
						<timebase>25</timebase>
					</rate>
					<in>3880</in>
					<out>3946</out>
					<start>7656</start>
					<end>7722</end>
					<subframeoffset>0</subframeoffset>
					<logginginfo>
						<scene/>
						<shottake/>
						<lognote/>
						<good>FALSE</good>
					</logginginfo>
					<labels>
						<label2/>
					</labels>
					<comments>
						<mastercomment1/>
						<mastercomment2/>
						<mastercomment3/>
						<mastercomment4/>
					</comments>
					<file id="525_0298_01 22"/>
					<filter>
						<effect>
							<name>Audio Levels</name>
							<effectid>audiolevels</effectid>
							<effectcategory>audiolevels</effectcategory>
							<effecttype>audiolevels</effecttype>
							<mediatype>audio</mediatype>
							<parameter>
								<name>Level</name>
								<parameterid>level</parameterid>
								<valuemin>0</valuemin>
								<valuemax>3.98109</valuemax>
								<value>3.16228</value>
							</parameter>
						</effect>
					</filter>
					<filter>
						<effect>
							<name>Audio Pan</name>
							<effectid>audiopan</effectid>
							<effectcategory>audiopan</effectcategory>
							<effecttype>audiopan</effecttype>
							<mediatype>audio</mediatype>
							<parameter>
								<name>Pan</name>
								<parameterid>pan</parameterid>
								<valuemin>-1</valuemin>
								<valuemax>1</valuemax>
								<value>0</value>
							</parameter>
						</effect>
					</filter>
					<sourcetrack>
						<mediatype>audio</mediatype>
						<trackindex>1</trackindex>
					</sourcetrack>
				</clipitem>
				<clipitem id="525_0312_01 1">
					<name>525_0312_01</name>
					<duration>2117</duration>
					<rate>
						<ntsc>FALSE</ntsc>
						<timebase>25</timebase>
					</rate>
					<in>1798</in>
					<out>1867</out>
					<start>7722</start>
					<end>7791</end>
					<subframeoffset>0</subframeoffset>
					<logginginfo>
						<scene/>
						<shottake/>
						<lognote/>
						<good>FALSE</good>
					</logginginfo>
					<labels>
						<label2/>
					</labels>
					<comments>
						<mastercomment1/>
						<mastercomment2/>
						<mastercomment3/>
						<mastercomment4/>
					</comments>
					<file id="525_0312_01 2">
						<name>525_0312_01.mov</name>
						<pathurl>file://localhost/Volumes/Askepott/Prosjekter/DNPR637010_Kra%CC%8Akeklubben_TEM_011212/Video/Bes%C3%B8ker%20Dyrebarn/Lam/Disk%202/525_0312_01.mov</pathurl>
						<rate>
							<timebase>25</timebase>
						</rate>
						<duration>2117</duration>
						<timecode>
							<rate>
								<timebase>25</timebase>
							</rate>
							<string>11:39:08:00</string>
							<frame>1048700</frame>
							<displayformat>NDF</displayformat>
							<source>source</source>
							<reel>
								<name>Untitled</name>
							</reel>
						</timecode>
						<media>
							<video>
								<duration>2117</duration>
								<samplecharacteristics>
									<width>1920</width>
									<height>1080</height>
								</samplecharacteristics>
							</video>
							<audio>
								<rate>
									<timebase>48000</timebase>
								</rate>
								<trackcount>1</trackcount>
								<channeldescription>A1+A2</channeldescription>
								<samplecharacteristics>
									<depth>16</depth>
								</samplecharacteristics>
							</audio>
						</media>
					</file>
					<filter>
						<effect>
							<name>Audio Levels</name>
							<effectid>audiolevels</effectid>
							<effectcategory>audiolevels</effectcategory>
							<effecttype>audiolevels</effecttype>
							<mediatype>audio</mediatype>
							<parameter>
								<name>Level</name>
								<parameterid>level</parameterid>
								<valuemin>0</valuemin>
								<valuemax>3.98109</valuemax>
								<value>1</value>
							</parameter>
						</effect>
					</filter>
					<filter>
						<effect>
							<name>Audio Pan</name>
							<effectid>audiopan</effectid>
							<effectcategory>audiopan</effectcategory>
							<effecttype>audiopan</effecttype>
							<mediatype>audio</mediatype>
							<parameter>
								<name>Pan</name>
								<parameterid>pan</parameterid>
								<valuemin>-1</valuemin>
								<valuemax>1</valuemax>
								<value>0</value>
							</parameter>
						</effect>
					</filter>
					<sourcetrack>
						<mediatype>audio</mediatype>
						<trackindex>1</trackindex>
					</sourcetrack>
				</clipitem>
				<clipitem id="525_0317_01 ">
					<name>525_0317_01</name>
					<duration>1141</duration>
					<rate>
						<ntsc>FALSE</ntsc>
						<timebase>25</timebase>
					</rate>
					<in>492</in>
					<out>615</out>
					<start>7791</start>
					<end>7914</end>
					<subframeoffset>0</subframeoffset>
					<logginginfo>
						<scene/>
						<shottake/>
						<lognote/>
						<good>FALSE</good>
					</logginginfo>
					<labels>
						<label2/>
					</labels>
					<comments>
						<mastercomment1/>
						<mastercomment2/>
						<mastercomment3/>
						<mastercomment4/>
					</comments>
					<file id="525_0317_01 1">
						<name>525_0317_01.mov</name>
						<pathurl>file://localhost/Volumes/Askepott/Prosjekter/DNPR637010_Kra%CC%8Akeklubben_TEM_011212/Video/Bes%C3%B8ker%20Dyrebarn/Lam/Disk%202/525_0317_01.mov</pathurl>
						<rate>
							<timebase>25</timebase>
						</rate>
						<duration>1141</duration>
						<timecode>
							<rate>
								<timebase>25</timebase>
							</rate>
							<string>11:44:00:24</string>
							<frame>1056024</frame>
							<displayformat>NDF</displayformat>
							<source>source</source>
							<reel>
								<name>Untitled</name>
							</reel>
						</timecode>
						<media>
							<video>
								<duration>1141</duration>
								<samplecharacteristics>
									<width>1920</width>
									<height>1080</height>
								</samplecharacteristics>
							</video>
							<audio>
								<rate>
									<timebase>48000</timebase>
								</rate>
								<trackcount>1</trackcount>
								<channeldescription>A1+A2</channeldescription>
								<samplecharacteristics>
									<depth>16</depth>
								</samplecharacteristics>
							</audio>
						</media>
					</file>
					<filter>
						<effect>
							<name>Audio Levels</name>
							<effectid>audiolevels</effectid>
							<effectcategory>audiolevels</effectcategory>
							<effecttype>audiolevels</effecttype>
							<mediatype>audio</mediatype>
							<parameter>
								<name>Level</name>
								<parameterid>level</parameterid>
								<valuemin>0</valuemin>
								<valuemax>3.98109</valuemax>
								<value>1.77828</value>
							</parameter>
						</effect>
					</filter>
					<filter>
						<effect>
							<name>Audio Pan</name>
							<effectid>audiopan</effectid>
							<effectcategory>audiopan</effectcategory>
							<effecttype>audiopan</effecttype>
							<mediatype>audio</mediatype>
							<parameter>
								<name>Pan</name>
								<parameterid>pan</parameterid>
								<valuemin>-1</valuemin>
								<valuemax>1</valuemax>
								<value>0</value>
							</parameter>
						</effect>
					</filter>
					<sourcetrack>
						<mediatype>audio</mediatype>
						<trackindex>1</trackindex>
					</sourcetrack>
				</clipitem>
				<clipitem id="525_0312_01 3">
					<name>525_0312_01</name>
					<duration>2117</duration>
					<rate>
						<ntsc>FALSE</ntsc>
						<timebase>25</timebase>
					</rate>
					<in>2040</in>
					<out>2077</out>
					<start>7964</start>
					<end>8001</end>
					<subframeoffset>0</subframeoffset>
					<logginginfo>
						<scene/>
						<shottake/>
						<lognote/>
						<good>FALSE</good>
					</logginginfo>
					<labels>
						<label2/>
					</labels>
					<comments>
						<mastercomment1/>
						<mastercomment2/>
						<mastercomment3/>
						<mastercomment4/>
					</comments>
					<file id="525_0312_01 2"/>
					<filter>
						<effect>
							<name>Audio Levels</name>
							<effectid>audiolevels</effectid>
							<effectcategory>audiolevels</effectcategory>
							<effecttype>audiolevels</effecttype>
							<mediatype>audio</mediatype>
							<parameter>
								<name>Level</name>
								<parameterid>level</parameterid>
								<valuemin>0</valuemin>
								<valuemax>3.98109</valuemax>
								<keyframe>
									<when>2028.86</when>
									<value>1</value>
								</keyframe>
								<interpolation>
									<name>FCPCurve</name>
								</interpolation>
								<value>1</value>
							</parameter>
						</effect>
					</filter>
					<filter>
						<effect>
							<name>Audio Pan</name>
							<effectid>audiopan</effectid>
							<effectcategory>audiopan</effectcategory>
							<effecttype>audiopan</effecttype>
							<mediatype>audio</mediatype>
							<parameter>
								<name>Pan</name>
								<parameterid>pan</parameterid>
								<valuemin>-1</valuemin>
								<valuemax>1</valuemax>
								<value>0</value>
							</parameter>
						</effect>
					</filter>
					<sourcetrack>
						<mediatype>audio</mediatype>
						<trackindex>1</trackindex>
					</sourcetrack>
				</clipitem>
				<clipitem id="C0022 11">
					<name>C0022</name>
					<duration>1039</duration>
					<rate>
						<ntsc>FALSE</ntsc>
						<timebase>25</timebase>
					</rate>
					<in>222</in>
					<out>326</out>
					<start>8051</start>
					<end>8155</end>
					<subframeoffset>0</subframeoffset>
					<masterclipid>C0022 1</masterclipid>
					<logginginfo>
						<scene/>
						<shottake/>
						<lognote/>
						<good>FALSE</good>
					</logginginfo>
					<labels>
						<label2/>
					</labels>
					<comments>
						<mastercomment1/>
						<mastercomment2/>
						<mastercomment3/>
						<mastercomment4/>
					</comments>
					<file id="C0022 2"/>
					<filter>
						<effect>
							<name>Audio Levels</name>
							<effectid>audiolevels</effectid>
							<effectcategory>audiolevels</effectcategory>
							<effecttype>audiolevels</effecttype>
							<mediatype>audio</mediatype>
							<parameter>
								<name>Level</name>
								<parameterid>level</parameterid>
								<valuemin>0</valuemin>
								<valuemax>3.98109</valuemax>
								<value>1</value>
							</parameter>
						</effect>
					</filter>
					<filter>
						<effect>
							<name>Audio Pan</name>
							<effectid>audiopan</effectid>
							<effectcategory>audiopan</effectcategory>
							<effecttype>audiopan</effecttype>
							<mediatype>audio</mediatype>
							<parameter>
								<name>Pan</name>
								<parameterid>pan</parameterid>
								<valuemin>-1</valuemin>
								<valuemax>1</valuemax>
								<value>0</value>
							</parameter>
						</effect>
					</filter>
					<sourcetrack>
						<mediatype>audio</mediatype>
						<trackindex>1</trackindex>
					</sourcetrack>
					<link>
						<linkclipref>C0022 11</linkclipref>
						<mediatype>audio</mediatype>
						<trackindex>1</trackindex>
						<clipindex>83</clipindex>
					</link>
					<link>
						<linkclipref>C0022 12</linkclipref>
						<mediatype>audio</mediatype>
						<trackindex>2</trackindex>
						<clipindex>41</clipindex>
					</link>
				</clipitem>
				<clipitem id="C0020 3">
					<name>C0020</name>
					<duration>1188</duration>
					<rate>
						<ntsc>FALSE</ntsc>
						<timebase>25</timebase>
					</rate>
					<in>487</in>
					<out>684</out>
					<start>8155</start>
					<end>8352</end>
					<subframeoffset>0</subframeoffset>
					<masterclipid>C0020 1</masterclipid>
					<logginginfo>
						<scene/>
						<shottake/>
						<lognote/>
						<good>FALSE</good>
					</logginginfo>
					<labels>
						<label2/>
					</labels>
					<comments>
						<mastercomment1/>
						<mastercomment2/>
						<mastercomment3/>
						<mastercomment4/>
					</comments>
					<file id="C0020 2"/>
					<filter>
						<effect>
							<name>Audio Levels</name>
							<effectid>audiolevels</effectid>
							<effectcategory>audiolevels</effectcategory>
							<effecttype>audiolevels</effecttype>
							<mediatype>audio</mediatype>
							<parameter>
								<name>Level</name>
								<parameterid>level</parameterid>
								<valuemin>0</valuemin>
								<valuemax>3.98109</valuemax>
								<value>1</value>
							</parameter>
						</effect>
					</filter>
					<filter>
						<effect>
							<name>Audio Pan</name>
							<effectid>audiopan</effectid>
							<effectcategory>audiopan</effectcategory>
							<effecttype>audiopan</effecttype>
							<mediatype>audio</mediatype>
							<parameter>
								<name>Pan</name>
								<parameterid>pan</parameterid>
								<valuemin>-1</valuemin>
								<valuemax>1</valuemax>
								<value>0</value>
							</parameter>
						</effect>
					</filter>
					<sourcetrack>
						<mediatype>audio</mediatype>
						<trackindex>1</trackindex>
					</sourcetrack>
					<link>
						<linkclipref>C0020 </linkclipref>
						<mediatype>video</mediatype>
						<trackindex>1</trackindex>
						<clipindex>67</clipindex>
					</link>
					<link>
						<linkclipref>C0020 3</linkclipref>
						<mediatype>audio</mediatype>
						<trackindex>1</trackindex>
						<clipindex>84</clipindex>
					</link>
					<link>
						<linkclipref>C0020 4</linkclipref>
						<mediatype>audio</mediatype>
						<trackindex>2</trackindex>
						<clipindex>42</clipindex>
					</link>
				</clipitem>
				<clipitem id="C0022 4">
					<name>C0022</name>
					<duration>1039</duration>
					<rate>
						<ntsc>FALSE</ntsc>
						<timebase>25</timebase>
					</rate>
					<in>525</in>
					<out>581</out>
					<start>8352</start>
					<end>8408</end>
					<subframeoffset>0</subframeoffset>
					<masterclipid>C0022 1</masterclipid>
					<logginginfo>
						<scene/>
						<shottake/>
						<lognote/>
						<good>FALSE</good>
					</logginginfo>
					<labels>
						<label2/>
					</labels>
					<comments>
						<mastercomment1/>
						<mastercomment2/>
						<mastercomment3/>
						<mastercomment4/>
					</comments>
					<file id="C0022 2"/>
					<filter>
						<effect>
							<name>Audio Levels</name>
							<effectid>audiolevels</effectid>
							<effectcategory>audiolevels</effectcategory>
							<effecttype>audiolevels</effecttype>
							<mediatype>audio</mediatype>
							<parameter>
								<name>Level</name>
								<parameterid>level</parameterid>
								<valuemin>0</valuemin>
								<valuemax>3.98109</valuemax>
								<value>1</value>
							</parameter>
						</effect>
					</filter>
					<filter>
						<effect>
							<name>Audio Pan</name>
							<effectid>audiopan</effectid>
							<effectcategory>audiopan</effectcategory>
							<effecttype>audiopan</effecttype>
							<mediatype>audio</mediatype>
							<parameter>
								<name>Pan</name>
								<parameterid>pan</parameterid>
								<valuemin>-1</valuemin>
								<valuemax>1</valuemax>
								<value>0</value>
							</parameter>
						</effect>
					</filter>
					<sourcetrack>
						<mediatype>audio</mediatype>
						<trackindex>1</trackindex>
					</sourcetrack>
					<link>
						<linkclipref>C0022 3</linkclipref>
						<mediatype>video</mediatype>
						<trackindex>1</trackindex>
						<clipindex>68</clipindex>
					</link>
					<link>
						<linkclipref>C0022 4</linkclipref>
						<mediatype>audio</mediatype>
						<trackindex>1</trackindex>
						<clipindex>85</clipindex>
					</link>
					<link>
						<linkclipref>C0022 5</linkclipref>
						<mediatype>audio</mediatype>
						<trackindex>2</trackindex>
						<clipindex>43</clipindex>
					</link>
				</clipitem>
				<clipitem id="C0020 6">
					<name>C0020</name>
					<duration>1188</duration>
					<rate>
						<ntsc>FALSE</ntsc>
						<timebase>25</timebase>
					</rate>
					<in>746</in>
					<out>939</out>
					<start>8408</start>
					<end>8601</end>
					<subframeoffset>0</subframeoffset>
					<masterclipid>C0020 1</masterclipid>
					<logginginfo>
						<scene/>
						<shottake/>
						<lognote/>
						<good>FALSE</good>
					</logginginfo>
					<labels>
						<label2/>
					</labels>
					<comments>
						<mastercomment1/>
						<mastercomment2/>
						<mastercomment3/>
						<mastercomment4/>
					</comments>
					<file id="C0020 2"/>
					<filter>
						<effect>
							<name>Audio Levels</name>
							<effectid>audiolevels</effectid>
							<effectcategory>audiolevels</effectcategory>
							<effecttype>audiolevels</effecttype>
							<mediatype>audio</mediatype>
							<parameter>
								<name>Level</name>
								<parameterid>level</parameterid>
								<valuemin>0</valuemin>
								<valuemax>3.98109</valuemax>
								<value>1</value>
							</parameter>
						</effect>
					</filter>
					<filter>
						<effect>
							<name>Audio Pan</name>
							<effectid>audiopan</effectid>
							<effectcategory>audiopan</effectcategory>
							<effecttype>audiopan</effecttype>
							<mediatype>audio</mediatype>
							<parameter>
								<name>Pan</name>
								<parameterid>pan</parameterid>
								<valuemin>-1</valuemin>
								<valuemax>1</valuemax>
								<value>0</value>
							</parameter>
						</effect>
					</filter>
					<sourcetrack>
						<mediatype>audio</mediatype>
						<trackindex>1</trackindex>
					</sourcetrack>
					<link>
						<linkclipref>C0020 5</linkclipref>
						<mediatype>video</mediatype>
						<trackindex>1</trackindex>
						<clipindex>69</clipindex>
					</link>
					<link>
						<linkclipref>C0020 6</linkclipref>
						<mediatype>audio</mediatype>
						<trackindex>1</trackindex>
						<clipindex>86</clipindex>
					</link>
					<link>
						<linkclipref>C0020 7</linkclipref>
						<mediatype>audio</mediatype>
						<trackindex>2</trackindex>
						<clipindex>44</clipindex>
					</link>
				</clipitem>
				<clipitem id="C0022 7">
					<name>C0022</name>
					<duration>1039</duration>
					<rate>
						<ntsc>FALSE</ntsc>
						<timebase>25</timebase>
					</rate>
					<in>768</in>
					<out>881</out>
					<start>8601</start>
					<end>8714</end>
					<subframeoffset>0</subframeoffset>
					<masterclipid>C0022 1</masterclipid>
					<logginginfo>
						<scene/>
						<shottake/>
						<lognote/>
						<good>FALSE</good>
					</logginginfo>
					<labels>
						<label2/>
					</labels>
					<comments>
						<mastercomment1/>
						<mastercomment2/>
						<mastercomment3/>
						<mastercomment4/>
					</comments>
					<file id="C0022 2"/>
					<filter>
						<effect>
							<name>Audio Levels</name>
							<effectid>audiolevels</effectid>
							<effectcategory>audiolevels</effectcategory>
							<effecttype>audiolevels</effecttype>
							<mediatype>audio</mediatype>
							<parameter>
								<name>Level</name>
								<parameterid>level</parameterid>
								<valuemin>0</valuemin>
								<valuemax>3.98109</valuemax>
								<value>1</value>
							</parameter>
						</effect>
					</filter>
					<filter>
						<effect>
							<name>Audio Pan</name>
							<effectid>audiopan</effectid>
							<effectcategory>audiopan</effectcategory>
							<effecttype>audiopan</effecttype>
							<mediatype>audio</mediatype>
							<parameter>
								<name>Pan</name>
								<parameterid>pan</parameterid>
								<valuemin>-1</valuemin>
								<valuemax>1</valuemax>
								<value>0</value>
							</parameter>
						</effect>
					</filter>
					<sourcetrack>
						<mediatype>audio</mediatype>
						<trackindex>1</trackindex>
					</sourcetrack>
					<link>
						<linkclipref>C0022 6</linkclipref>
						<mediatype>video</mediatype>
						<trackindex>1</trackindex>
						<clipindex>70</clipindex>
					</link>
					<link>
						<linkclipref>C0022 7</linkclipref>
						<mediatype>audio</mediatype>
						<trackindex>1</trackindex>
						<clipindex>87</clipindex>
					</link>
					<link>
						<linkclipref>C0022 8</linkclipref>
						<mediatype>audio</mediatype>
						<trackindex>2</trackindex>
						<clipindex>45</clipindex>
					</link>
				</clipitem>
				<clipitem id="C0027 3">
					<name>C0027</name>
					<duration>554</duration>
					<rate>
						<ntsc>FALSE</ntsc>
						<timebase>25</timebase>
					</rate>
					<in>168</in>
					<out>473</out>
					<start>8714</start>
					<end>9019</end>
					<masterclipid>C0027 1</masterclipid>
					<logginginfo>
						<scene/>
						<shottake/>
						<lognote/>
						<good>FALSE</good>
					</logginginfo>
					<labels>
						<label2/>
					</labels>
					<comments>
						<mastercomment1/>
						<mastercomment2/>
						<mastercomment3/>
						<mastercomment4/>
					</comments>
					<file id="C0027 2"/>
					<filter>
						<effect>
							<name>Audio Levels</name>
							<effectid>audiolevels</effectid>
							<effectcategory>audiolevels</effectcategory>
							<effecttype>audiolevels</effecttype>
							<mediatype>audio</mediatype>
							<parameter>
								<name>Level</name>
								<parameterid>level</parameterid>
								<valuemin>0</valuemin>
								<valuemax>3.98109</valuemax>
								<value>1</value>
							</parameter>
						</effect>
					</filter>
					<filter>
						<effect>
							<name>Audio Pan</name>
							<effectid>audiopan</effectid>
							<effectcategory>audiopan</effectcategory>
							<effecttype>audiopan</effecttype>
							<mediatype>audio</mediatype>
							<parameter>
								<name>Pan</name>
								<parameterid>pan</parameterid>
								<valuemin>-1</valuemin>
								<valuemax>1</valuemax>
								<value>0</value>
							</parameter>
						</effect>
					</filter>
					<sourcetrack>
						<mediatype>audio</mediatype>
						<trackindex>1</trackindex>
					</sourcetrack>
					<link>
						<linkclipref>C0027 </linkclipref>
						<mediatype>video</mediatype>
						<trackindex>1</trackindex>
						<clipindex>71</clipindex>
					</link>
					<link>
						<linkclipref>C0027 3</linkclipref>
						<mediatype>audio</mediatype>
						<trackindex>1</trackindex>
						<clipindex>88</clipindex>
					</link>
					<link>
						<linkclipref>C0027 4</linkclipref>
						<mediatype>audio</mediatype>
						<trackindex>2</trackindex>
						<clipindex>46</clipindex>
					</link>
				</clipitem>
				<clipitem id="C0030 3">
					<name>C0030</name>
					<duration>1935</duration>
					<rate>
						<ntsc>FALSE</ntsc>
						<timebase>25</timebase>
					</rate>
					<in>423</in>
					<out>483</out>
					<start>9019</start>
					<end>-1</end>
					<subframeoffset>0</subframeoffset>
					<masterclipid>C0030 1</masterclipid>
					<logginginfo>
						<scene/>
						<shottake/>
						<lognote/>
						<good>FALSE</good>
					</logginginfo>
					<labels>
						<label2/>
					</labels>
					<comments>
						<mastercomment1/>
						<mastercomment2/>
						<mastercomment3/>
						<mastercomment4/>
					</comments>
					<file id="C0030 2"/>
					<filter>
						<effect>
							<name>Audio Levels</name>
							<effectid>audiolevels</effectid>
							<effectcategory>audiolevels</effectcategory>
							<effecttype>audiolevels</effecttype>
							<mediatype>audio</mediatype>
							<parameter>
								<name>Level</name>
								<parameterid>level</parameterid>
								<valuemin>0</valuemin>
								<valuemax>3.98109</valuemax>
								<value>1</value>
							</parameter>
						</effect>
					</filter>
					<filter>
						<effect>
							<name>Audio Pan</name>
							<effectid>audiopan</effectid>
							<effectcategory>audiopan</effectcategory>
							<effecttype>audiopan</effecttype>
							<mediatype>audio</mediatype>
							<parameter>
								<name>Pan</name>
								<parameterid>pan</parameterid>
								<valuemin>-1</valuemin>
								<valuemax>1</valuemax>
								<value>0</value>
							</parameter>
						</effect>
					</filter>
					<sourcetrack>
						<mediatype>audio</mediatype>
						<trackindex>1</trackindex>
					</sourcetrack>
					<link>
						<linkclipref>C0030 </linkclipref>
						<mediatype>video</mediatype>
						<trackindex>1</trackindex>
						<clipindex>72</clipindex>
					</link>
					<link>
						<linkclipref>C0030 3</linkclipref>
						<mediatype>audio</mediatype>
						<trackindex>1</trackindex>
						<clipindex>89</clipindex>
					</link>
					<link>
						<linkclipref>C0030 4</linkclipref>
						<mediatype>audio</mediatype>
						<trackindex>2</trackindex>
						<clipindex>47</clipindex>
					</link>
				</clipitem>
				<transitionitem id="9">
					<rate>
						<ntsc>FALSE</ntsc>
						<timebase>25</timebase>
					</rate>
					<start>9065</start>
					<end>9079</end>
					<alignment>center</alignment>
					<effect>
						<name>Cross Fade (+3dB)</name>
						<effecttype>transition</effecttype>
						<mediatype>audio</mediatype>
					</effect>
				</transitionitem>
				<clipitem id="C0032 2">
					<name>C0032</name>
					<duration>1120</duration>
					<rate>
						<ntsc>FALSE</ntsc>
						<timebase>25</timebase>
					</rate>
					<in>160</in>
					<out>231</out>
					<start>-1</start>
					<end>-1</end>
					<subframeoffset>0</subframeoffset>
					<masterclipid>C0032 3</masterclipid>
					<logginginfo>
						<scene/>
						<shottake/>
						<lognote/>
						<good>FALSE</good>
					</logginginfo>
					<labels>
						<label2/>
					</labels>
					<comments>
						<mastercomment1/>
						<mastercomment2/>
						<mastercomment3/>
						<mastercomment4/>
					</comments>
					<file id="C0032 4">
						<name>C0032.mov</name>
						<pathurl>file://localhost/Volumes/Askepott/Prosjekter/DNPR637010_Kra%CC%8Akeklubben_TEM_011212/Video/Mellomstikk/S03E%20D%C3%B8den/DAG%201/C0032.mov</pathurl>
						<rate>
							<timebase>25</timebase>
						</rate>
						<duration>1120</duration>
						<timecode>
							<rate>
								<timebase>25</timebase>
							</rate>
							<string>04:45:27:13</string>
							<frame>428188</frame>
							<displayformat>NDF</displayformat>
							<source>source</source>
							<reel>
								<name>XDCAM 20120508_103430</name>
							</reel>
						</timecode>
						<media>
							<video>
								<duration>1120</duration>
								<samplecharacteristics>
									<width>1920</width>
									<height>1080</height>
								</samplecharacteristics>
							</video>
							<audio>
								<rate>
									<timebase>48000</timebase>
								</rate>
								<trackcount>1</trackcount>
								<channeldescription>8 Channels</channeldescription>
								<samplecharacteristics>
									<depth>24</depth>
								</samplecharacteristics>
							</audio>
						</media>
					</file>
					<filter>
						<effect>
							<name>Audio Levels</name>
							<effectid>audiolevels</effectid>
							<effectcategory>audiolevels</effectcategory>
							<effecttype>audiolevels</effecttype>
							<mediatype>audio</mediatype>
							<parameter>
								<name>Level</name>
								<parameterid>level</parameterid>
								<valuemin>0</valuemin>
								<valuemax>3.98109</valuemax>
								<value>1</value>
							</parameter>
						</effect>
					</filter>
					<filter>
						<effect>
							<name>Audio Pan</name>
							<effectid>audiopan</effectid>
							<effectcategory>audiopan</effectcategory>
							<effecttype>audiopan</effecttype>
							<mediatype>audio</mediatype>
							<parameter>
								<name>Pan</name>
								<parameterid>pan</parameterid>
								<valuemin>-1</valuemin>
								<valuemax>1</valuemax>
								<value>0</value>
							</parameter>
						</effect>
					</filter>
					<sourcetrack>
						<mediatype>audio</mediatype>
						<trackindex>1</trackindex>
					</sourcetrack>
					<link>
						<linkclipref>C0032 2</linkclipref>
						<mediatype>audio</mediatype>
						<trackindex>1</trackindex>
						<clipindex>91</clipindex>
					</link>
					<link>
						<linkclipref>C0032 5</linkclipref>
						<mediatype>audio</mediatype>
						<trackindex>2</trackindex>
						<clipindex>49</clipindex>
					</link>
				</clipitem>
				<transitionitem id="10">
					<rate>
						<ntsc>FALSE</ntsc>
						<timebase>25</timebase>
					</rate>
					<start>9127</start>
					<end>9136</end>
					<alignment>end</alignment>
					<effect>
						<name>Cross Fade (+3dB)</name>
						<effecttype>transition</effecttype>
						<mediatype>audio</mediatype>
					</effect>
				</transitionitem>
				<clipitem id="C0029 ">
					<name>C0029</name>
					<duration>1188</duration>
					<rate>
						<ntsc>FALSE</ntsc>
						<timebase>25</timebase>
					</rate>
					<in>735</in>
					<out>775</out>
					<start>-1</start>
					<end>9167</end>
					<subframeoffset>0</subframeoffset>
					<masterclipid>C0029 1</masterclipid>
					<logginginfo>
						<scene/>
						<shottake/>
						<lognote/>
						<good>FALSE</good>
					</logginginfo>
					<labels>
						<label2/>
					</labels>
					<comments>
						<mastercomment1/>
						<mastercomment2/>
						<mastercomment3/>
						<mastercomment4/>
					</comments>
					<file id="C0029 2">
						<name>C0029.mov</name>
						<pathurl>file://localhost/Volumes/Askepott/Prosjekter/DNPR637010_Kra%CC%8Akeklubben_TEM_011212/Video/Mellomstikk/S03E%20D%C3%B8den/DAG%201/C0029.mov</pathurl>
						<rate>
							<timebase>25</timebase>
						</rate>
						<duration>1188</duration>
						<timecode>
							<rate>
								<timebase>25</timebase>
							</rate>
							<string>04:43:16:10</string>
							<frame>424910</frame>
							<displayformat>NDF</displayformat>
							<source>source</source>
							<reel>
								<name>XDCAM 20120508_103430</name>
							</reel>
						</timecode>
						<media>
							<video>
								<duration>1188</duration>
								<samplecharacteristics>
									<width>1920</width>
									<height>1080</height>
								</samplecharacteristics>
							</video>
							<audio>
								<rate>
									<timebase>48000</timebase>
								</rate>
								<trackcount>1</trackcount>
								<channeldescription>8 Channels</channeldescription>
								<samplecharacteristics>
									<depth>24</depth>
								</samplecharacteristics>
							</audio>
						</media>
					</file>
					<filter>
						<effect>
							<name>Audio Levels</name>
							<effectid>audiolevels</effectid>
							<effectcategory>audiolevels</effectcategory>
							<effecttype>audiolevels</effecttype>
							<mediatype>audio</mediatype>
							<parameter>
								<name>Level</name>
								<parameterid>level</parameterid>
								<valuemin>0</valuemin>
								<valuemax>3.98109</valuemax>
								<value>3.98107</value>
							</parameter>
						</effect>
					</filter>
					<filter>
						<effect>
							<name>Audio Pan</name>
							<effectid>audiopan</effectid>
							<effectcategory>audiopan</effectcategory>
							<effecttype>audiopan</effecttype>
							<mediatype>audio</mediatype>
							<parameter>
								<name>Pan</name>
								<parameterid>pan</parameterid>
								<valuemin>-1</valuemin>
								<valuemax>1</valuemax>
								<value>0</value>
							</parameter>
						</effect>
					</filter>
					<sourcetrack>
						<mediatype>audio</mediatype>
						<trackindex>1</trackindex>
					</sourcetrack>
					<link>
						<linkclipref>C0029 </linkclipref>
						<mediatype>audio</mediatype>
						<trackindex>1</trackindex>
						<clipindex>93</clipindex>
					</link>
				</clipitem>
				<clipitem id="C0030 14">
					<name>C0030</name>
					<duration>1935</duration>
					<rate>
						<ntsc>FALSE</ntsc>
						<timebase>25</timebase>
					</rate>
					<in>571</in>
					<out>584</out>
					<start>9167</start>
					<end>9180</end>
					<subframeoffset>0</subframeoffset>
					<masterclipid>C0030 1</masterclipid>
					<logginginfo>
						<scene/>
						<shottake/>
						<lognote/>
						<good>FALSE</good>
					</logginginfo>
					<labels>
						<label2/>
					</labels>
					<comments>
						<mastercomment1/>
						<mastercomment2/>
						<mastercomment3/>
						<mastercomment4/>
					</comments>
					<file id="C0030 2"/>
					<filter>
						<effect>
							<name>Audio Levels</name>
							<effectid>audiolevels</effectid>
							<effectcategory>audiolevels</effectcategory>
							<effecttype>audiolevels</effecttype>
							<mediatype>audio</mediatype>
							<parameter>
								<name>Level</name>
								<parameterid>level</parameterid>
								<valuemin>0</valuemin>
								<valuemax>3.98109</valuemax>
								<value>3.98107</value>
							</parameter>
						</effect>
					</filter>
					<filter>
						<effect>
							<name>Audio Pan</name>
							<effectid>audiopan</effectid>
							<effectcategory>audiopan</effectcategory>
							<effecttype>audiopan</effecttype>
							<mediatype>audio</mediatype>
							<parameter>
								<name>Pan</name>
								<parameterid>pan</parameterid>
								<valuemin>-1</valuemin>
								<valuemax>1</valuemax>
								<value>0</value>
							</parameter>
						</effect>
					</filter>
					<sourcetrack>
						<mediatype>audio</mediatype>
						<trackindex>1</trackindex>
					</sourcetrack>
					<link>
						<linkclipref>C0030 14</linkclipref>
						<mediatype>audio</mediatype>
						<trackindex>1</trackindex>
						<clipindex>94</clipindex>
					</link>
					<link>
						<linkclipref>C0030 15</linkclipref>
						<mediatype>audio</mediatype>
						<trackindex>2</trackindex>
						<clipindex>53</clipindex>
					</link>
				</clipitem>
				<clipitem id="C0041 3">
					<name>C0041</name>
					<duration>1624</duration>
					<rate>
						<ntsc>FALSE</ntsc>
						<timebase>25</timebase>
					</rate>
					<in>67</in>
					<out>283</out>
					<start>9180</start>
					<end>9396</end>
					<subframeoffset>0</subframeoffset>
					<masterclipid>C0041 1</masterclipid>
					<logginginfo>
						<scene/>
						<shottake/>
						<lognote/>
						<good>FALSE</good>
					</logginginfo>
					<labels>
						<label2/>
					</labels>
					<comments>
						<mastercomment1/>
						<mastercomment2/>
						<mastercomment3/>
						<mastercomment4/>
					</comments>
					<file id="C0041 2"/>
					<filter>
						<effect>
							<name>Audio Levels</name>
							<effectid>audiolevels</effectid>
							<effectcategory>audiolevels</effectcategory>
							<effecttype>audiolevels</effecttype>
							<mediatype>audio</mediatype>
							<parameter>
								<name>Level</name>
								<parameterid>level</parameterid>
								<valuemin>0</valuemin>
								<valuemax>3.98109</valuemax>
								<value>1</value>
							</parameter>
						</effect>
					</filter>
					<filter>
						<effect>
							<name>Audio Pan</name>
							<effectid>audiopan</effectid>
							<effectcategory>audiopan</effectcategory>
							<effecttype>audiopan</effecttype>
							<mediatype>audio</mediatype>
							<parameter>
								<name>Pan</name>
								<parameterid>pan</parameterid>
								<valuemin>-1</valuemin>
								<valuemax>1</valuemax>
								<value>0</value>
							</parameter>
						</effect>
					</filter>
					<sourcetrack>
						<mediatype>audio</mediatype>
						<trackindex>1</trackindex>
					</sourcetrack>
					<link>
						<linkclipref>C0041 </linkclipref>
						<mediatype>video</mediatype>
						<trackindex>1</trackindex>
						<clipindex>74</clipindex>
					</link>
					<link>
						<linkclipref>C0041 3</linkclipref>
						<mediatype>audio</mediatype>
						<trackindex>1</trackindex>
						<clipindex>95</clipindex>
					</link>
					<link>
						<linkclipref>C0041 4</linkclipref>
						<mediatype>audio</mediatype>
						<trackindex>2</trackindex>
						<clipindex>54</clipindex>
					</link>
				</clipitem>
				<clipitem id="C0037 3">
					<name>C0037</name>
					<duration>1788</duration>
					<rate>
						<ntsc>FALSE</ntsc>
						<timebase>25</timebase>
					</rate>
					<in>543</in>
					<out>768</out>
					<start>9396</start>
					<end>9621</end>
					<subframeoffset>0</subframeoffset>
					<masterclipid>C0037 1</masterclipid>
					<logginginfo>
						<scene/>
						<shottake/>
						<lognote/>
						<good>FALSE</good>
					</logginginfo>
					<labels>
						<label2/>
					</labels>
					<comments>
						<mastercomment1/>
						<mastercomment2/>
						<mastercomment3/>
						<mastercomment4/>
					</comments>
					<file id="C0037 2"/>
					<filter>
						<effect>
							<name>Audio Levels</name>
							<effectid>audiolevels</effectid>
							<effectcategory>audiolevels</effectcategory>
							<effecttype>audiolevels</effecttype>
							<mediatype>audio</mediatype>
							<parameter>
								<name>Level</name>
								<parameterid>level</parameterid>
								<valuemin>0</valuemin>
								<valuemax>3.98109</valuemax>
								<value>1</value>
							</parameter>
						</effect>
					</filter>
					<filter>
						<effect>
							<name>Audio Pan</name>
							<effectid>audiopan</effectid>
							<effectcategory>audiopan</effectcategory>
							<effecttype>audiopan</effecttype>
							<mediatype>audio</mediatype>
							<parameter>
								<name>Pan</name>
								<parameterid>pan</parameterid>
								<valuemin>-1</valuemin>
								<valuemax>1</valuemax>
								<value>0</value>
							</parameter>
						</effect>
					</filter>
					<sourcetrack>
						<mediatype>audio</mediatype>
						<trackindex>1</trackindex>
					</sourcetrack>
					<link>
						<linkclipref>C0037 </linkclipref>
						<mediatype>video</mediatype>
						<trackindex>1</trackindex>
						<clipindex>75</clipindex>
					</link>
					<link>
						<linkclipref>C0037 3</linkclipref>
						<mediatype>audio</mediatype>
						<trackindex>1</trackindex>
						<clipindex>96</clipindex>
					</link>
					<link>
						<linkclipref>C0037 4</linkclipref>
						<mediatype>audio</mediatype>
						<trackindex>2</trackindex>
						<clipindex>55</clipindex>
					</link>
				</clipitem>
				<clipitem id="C0037 8">
					<name>C0037</name>
					<duration>1788</duration>
					<rate>
						<ntsc>FALSE</ntsc>
						<timebase>25</timebase>
					</rate>
					<in>758</in>
					<out>827</out>
					<start>9621</start>
					<end>9690</end>
					<subframeoffset>0</subframeoffset>
					<masterclipid>C0037 1</masterclipid>
					<logginginfo>
						<scene/>
						<shottake/>
						<lognote/>
						<good>FALSE</good>
					</logginginfo>
					<labels>
						<label2/>
					</labels>
					<comments>
						<mastercomment1/>
						<mastercomment2/>
						<mastercomment3/>
						<mastercomment4/>
					</comments>
					<file id="C0037 2"/>
					<filter>
						<effect>
							<name>Audio Levels</name>
							<effectid>audiolevels</effectid>
							<effectcategory>audiolevels</effectcategory>
							<effecttype>audiolevels</effecttype>
							<mediatype>audio</mediatype>
							<parameter>
								<name>Level</name>
								<parameterid>level</parameterid>
								<valuemin>0</valuemin>
								<valuemax>3.98109</valuemax>
								<value>1</value>
							</parameter>
						</effect>
					</filter>
					<filter>
						<effect>
							<name>Audio Pan</name>
							<effectid>audiopan</effectid>
							<effectcategory>audiopan</effectcategory>
							<effecttype>audiopan</effecttype>
							<mediatype>audio</mediatype>
							<parameter>
								<name>Pan</name>
								<parameterid>pan</parameterid>
								<valuemin>-1</valuemin>
								<valuemax>1</valuemax>
								<value>0</value>
							</parameter>
						</effect>
					</filter>
					<sourcetrack>
						<mediatype>audio</mediatype>
						<trackindex>1</trackindex>
					</sourcetrack>
				</clipitem>
				<clipitem id="C0039 3">
					<name>C0039</name>
					<duration>1581</duration>
					<rate>
						<ntsc>FALSE</ntsc>
						<timebase>25</timebase>
					</rate>
					<in>562</in>
					<out>876</out>
					<start>9690</start>
					<end>10004</end>
					<subframeoffset>0</subframeoffset>
					<masterclipid>C0039 1</masterclipid>
					<logginginfo>
						<scene/>
						<shottake/>
						<lognote/>
						<good>FALSE</good>
					</logginginfo>
					<labels>
						<label2/>
					</labels>
					<comments>
						<mastercomment1/>
						<mastercomment2/>
						<mastercomment3/>
						<mastercomment4/>
					</comments>
					<file id="C0039 2"/>
					<filter>
						<effect>
							<name>Audio Levels</name>
							<effectid>audiolevels</effectid>
							<effectcategory>audiolevels</effectcategory>
							<effecttype>audiolevels</effecttype>
							<mediatype>audio</mediatype>
							<parameter>
								<name>Level</name>
								<parameterid>level</parameterid>
								<valuemin>0</valuemin>
								<valuemax>3.98109</valuemax>
								<value>1</value>
							</parameter>
						</effect>
					</filter>
					<filter>
						<effect>
							<name>Audio Pan</name>
							<effectid>audiopan</effectid>
							<effectcategory>audiopan</effectcategory>
							<effecttype>audiopan</effecttype>
							<mediatype>audio</mediatype>
							<parameter>
								<name>Pan</name>
								<parameterid>pan</parameterid>
								<valuemin>-1</valuemin>
								<valuemax>1</valuemax>
								<value>0</value>
							</parameter>
						</effect>
					</filter>
					<sourcetrack>
						<mediatype>audio</mediatype>
						<trackindex>1</trackindex>
					</sourcetrack>
					<link>
						<linkclipref>C0039 </linkclipref>
						<mediatype>video</mediatype>
						<trackindex>1</trackindex>
						<clipindex>77</clipindex>
					</link>
					<link>
						<linkclipref>C0039 3</linkclipref>
						<mediatype>audio</mediatype>
						<trackindex>1</trackindex>
						<clipindex>98</clipindex>
					</link>
					<link>
						<linkclipref>C0039 4</linkclipref>
						<mediatype>audio</mediatype>
						<trackindex>2</trackindex>
						<clipindex>57</clipindex>
					</link>
				</clipitem>
				<clipitem id="C0042 5">
					<name>C0042</name>
					<duration>1649</duration>
					<rate>
						<ntsc>FALSE</ntsc>
						<timebase>25</timebase>
					</rate>
					<in>904</in>
					<out>1036</out>
					<start>10004</start>
					<end>10136</end>
					<subframeoffset>0</subframeoffset>
					<masterclipid>C0042 3</masterclipid>
					<logginginfo>
						<scene/>
						<shottake/>
						<lognote/>
						<good>FALSE</good>
					</logginginfo>
					<labels>
						<label2/>
					</labels>
					<comments>
						<mastercomment1/>
						<mastercomment2/>
						<mastercomment3/>
						<mastercomment4/>
					</comments>
					<file id="C0042 4"/>
					<filter>
						<effect>
							<name>Audio Levels</name>
							<effectid>audiolevels</effectid>
							<effectcategory>audiolevels</effectcategory>
							<effecttype>audiolevels</effecttype>
							<mediatype>audio</mediatype>
							<parameter>
								<name>Level</name>
								<parameterid>level</parameterid>
								<valuemin>0</valuemin>
								<valuemax>3.98109</valuemax>
								<value>1</value>
							</parameter>
						</effect>
					</filter>
					<filter>
						<effect>
							<name>Audio Pan</name>
							<effectid>audiopan</effectid>
							<effectcategory>audiopan</effectcategory>
							<effecttype>audiopan</effecttype>
							<mediatype>audio</mediatype>
							<parameter>
								<name>Pan</name>
								<parameterid>pan</parameterid>
								<valuemin>-1</valuemin>
								<valuemax>1</valuemax>
								<value>0</value>
							</parameter>
						</effect>
					</filter>
					<sourcetrack>
						<mediatype>audio</mediatype>
						<trackindex>1</trackindex>
					</sourcetrack>
					<link>
						<linkclipref>C0042 2</linkclipref>
						<mediatype>video</mediatype>
						<trackindex>1</trackindex>
						<clipindex>79</clipindex>
					</link>
					<link>
						<linkclipref>C0042 5</linkclipref>
						<mediatype>audio</mediatype>
						<trackindex>1</trackindex>
						<clipindex>99</clipindex>
					</link>
					<link>
						<linkclipref>C0042 6</linkclipref>
						<mediatype>audio</mediatype>
						<trackindex>2</trackindex>
						<clipindex>58</clipindex>
					</link>
				</clipitem>
				<clipitem id="C0039 14">
					<name>C0039</name>
					<duration>1581</duration>
					<rate>
						<ntsc>FALSE</ntsc>
						<timebase>25</timebase>
					</rate>
					<in>1006</in>
					<out>1475</out>
					<start>10136</start>
					<end>10605</end>
					<subframeoffset>0</subframeoffset>
					<masterclipid>C0039 1</masterclipid>
					<logginginfo>
						<scene/>
						<shottake/>
						<lognote/>
						<good>FALSE</good>
					</logginginfo>
					<labels>
						<label2/>
					</labels>
					<comments>
						<mastercomment1/>
						<mastercomment2/>
						<mastercomment3/>
						<mastercomment4/>
					</comments>
					<file id="C0039 2"/>
					<filter>
						<effect>
							<name>Audio Levels</name>
							<effectid>audiolevels</effectid>
							<effectcategory>audiolevels</effectcategory>
							<effecttype>audiolevels</effecttype>
							<mediatype>audio</mediatype>
							<parameter>
								<name>Level</name>
								<parameterid>level</parameterid>
								<valuemin>0</valuemin>
								<valuemax>3.98109</valuemax>
								<value>1</value>
							</parameter>
						</effect>
					</filter>
					<filter>
						<effect>
							<name>Audio Pan</name>
							<effectid>audiopan</effectid>
							<effectcategory>audiopan</effectcategory>
							<effecttype>audiopan</effecttype>
							<mediatype>audio</mediatype>
							<parameter>
								<name>Pan</name>
								<parameterid>pan</parameterid>
								<valuemin>-1</valuemin>
								<valuemax>1</valuemax>
								<value>0</value>
							</parameter>
						</effect>
					</filter>
					<sourcetrack>
						<mediatype>audio</mediatype>
						<trackindex>1</trackindex>
					</sourcetrack>
					<link>
						<linkclipref>C0039 14</linkclipref>
						<mediatype>audio</mediatype>
						<trackindex>1</trackindex>
						<clipindex>100</clipindex>
					</link>
					<link>
						<linkclipref>C0039 15</linkclipref>
						<mediatype>audio</mediatype>
						<trackindex>2</trackindex>
						<clipindex>59</clipindex>
					</link>
				</clipitem>
				<clipitem id="XDCAM 20120614_094644_C0027 3">
					<name>XDCAM 20120614_094644_C0027</name>
					<duration>858</duration>
					<rate>
						<ntsc>FALSE</ntsc>
						<timebase>25</timebase>
					</rate>
					<in>501</in>
					<out>776</out>
					<start>10605</start>
					<end>10880</end>
					<subframeoffset>0</subframeoffset>
					<masterclipid>XDCAM 20120614_094644_C0027 1</masterclipid>
					<logginginfo>
						<scene/>
						<shottake/>
						<lognote/>
						<good>FALSE</good>
					</logginginfo>
					<labels>
						<label2/>
					</labels>
					<comments>
						<mastercomment1/>
						<mastercomment2/>
						<mastercomment3/>
						<mastercomment4/>
					</comments>
					<file id="XDCAM 20120614_094644_C0027 2"/>
					<filter>
						<effect>
							<name>Audio Levels</name>
							<effectid>audiolevels</effectid>
							<effectcategory>audiolevels</effectcategory>
							<effecttype>audiolevels</effecttype>
							<mediatype>audio</mediatype>
							<parameter>
								<name>Level</name>
								<parameterid>level</parameterid>
								<valuemin>0</valuemin>
								<valuemax>3.98109</valuemax>
								<keyframe>
									<when>596.857</when>
									<value>1.77828</value>
								</keyframe>
								<keyframe>
									<when>611.143</when>
									<value>1.25893</value>
								</keyframe>
								<keyframe>
									<when>635.143</when>
									<value>1.25893</value>
								</keyframe>
								<keyframe>
									<when>652.286</when>
									<value>1</value>
								</keyframe>
								<interpolation>
									<name>FCPCurve</name>
								</interpolation>
								<value>1.77828</value>
							</parameter>
						</effect>
					</filter>
					<filter>
						<effect>
							<name>Audio Pan</name>
							<effectid>audiopan</effectid>
							<effectcategory>audiopan</effectcategory>
							<effecttype>audiopan</effecttype>
							<mediatype>audio</mediatype>
							<parameter>
								<name>Pan</name>
								<parameterid>pan</parameterid>
								<valuemin>-1</valuemin>
								<valuemax>1</valuemax>
								<value>0</value>
							</parameter>
						</effect>
					</filter>
					<sourcetrack>
						<mediatype>audio</mediatype>
						<trackindex>2</trackindex>
					</sourcetrack>
				</clipitem>
				<clipitem id="XDCAM 20120614_094644_C0028 7">
					<name>XDCAM 20120614_094644_C0028</name>
					<duration>2022</duration>
					<rate>
						<ntsc>FALSE</ntsc>
						<timebase>25</timebase>
					</rate>
					<in>43</in>
					<out>400</out>
					<start>10880</start>
					<end>11237</end>
					<subframeoffset>0</subframeoffset>
					<masterclipid>XDCAM 20120614_094644_C0028 1</masterclipid>
					<logginginfo>
						<scene/>
						<shottake/>
						<lognote/>
						<good>FALSE</good>
					</logginginfo>
					<labels>
						<label2/>
					</labels>
					<comments>
						<mastercomment1/>
						<mastercomment2/>
						<mastercomment3/>
						<mastercomment4/>
					</comments>
					<file id="XDCAM 20120614_094644_C0028 2"/>
					<filter>
						<effect>
							<name>Audio Levels</name>
							<effectid>audiolevels</effectid>
							<effectcategory>audiolevels</effectcategory>
							<effecttype>audiolevels</effecttype>
							<mediatype>audio</mediatype>
							<parameter>
								<name>Level</name>
								<parameterid>level</parameterid>
								<valuemin>0</valuemin>
								<valuemax>3.98109</valuemax>
								<keyframe>
									<when>242.714</when>
									<value>2.23872</value>
								</keyframe>
								<keyframe>
									<when>278.429</when>
									<value>1.77828</value>
								</keyframe>
								<keyframe>
									<when>306.714</when>
									<value>1.77828</value>
								</keyframe>
								<keyframe>
									<when>335.286</when>
									<value>3.16228</value>
								</keyframe>
								<interpolation>
									<name>FCPCurve</name>
								</interpolation>
								<value>1.77828</value>
							</parameter>
						</effect>
					</filter>
					<filter>
						<effect>
							<name>Audio Pan</name>
							<effectid>audiopan</effectid>
							<effectcategory>audiopan</effectcategory>
							<effecttype>audiopan</effecttype>
							<mediatype>audio</mediatype>
							<parameter>
								<name>Pan</name>
								<parameterid>pan</parameterid>
								<valuemin>-1</valuemin>
								<valuemax>1</valuemax>
								<value>0</value>
							</parameter>
						</effect>
					</filter>
					<sourcetrack>
						<mediatype>audio</mediatype>
						<trackindex>2</trackindex>
					</sourcetrack>
				</clipitem>
				<clipitem id="XDCAM 20120614_094644_C0028 8">
					<name>XDCAM 20120614_094644_C0028</name>
					<duration>2022</duration>
					<rate>
						<ntsc>FALSE</ntsc>
						<timebase>25</timebase>
					</rate>
					<in>819</in>
					<out>1021</out>
					<start>11237</start>
					<end>-1</end>
					<subframeoffset>0</subframeoffset>
					<masterclipid>XDCAM 20120614_094644_C0028 1</masterclipid>
					<logginginfo>
						<scene/>
						<shottake/>
						<lognote/>
						<good>FALSE</good>
					</logginginfo>
					<labels>
						<label2/>
					</labels>
					<comments>
						<mastercomment1/>
						<mastercomment2/>
						<mastercomment3/>
						<mastercomment4/>
					</comments>
					<file id="XDCAM 20120614_094644_C0028 2"/>
					<filter>
						<effect>
							<name>Audio Levels</name>
							<effectid>audiolevels</effectid>
							<effectcategory>audiolevels</effectcategory>
							<effecttype>audiolevels</effecttype>
							<mediatype>audio</mediatype>
							<parameter>
								<name>Level</name>
								<parameterid>level</parameterid>
								<valuemin>0</valuemin>
								<valuemax>3.98109</valuemax>
								<keyframe>
									<when>964.571</when>
									<value>2.51189</value>
								</keyframe>
								<keyframe>
									<when>985.143</when>
									<value>1.99526</value>
								</keyframe>
								<interpolation>
									<name>FCPCurve</name>
								</interpolation>
								<value>1.99526</value>
							</parameter>
						</effect>
					</filter>
					<filter>
						<effect>
							<name>Audio Pan</name>
							<effectid>audiopan</effectid>
							<effectcategory>audiopan</effectcategory>
							<effecttype>audiopan</effecttype>
							<mediatype>audio</mediatype>
							<parameter>
								<name>Pan</name>
								<parameterid>pan</parameterid>
								<valuemin>-1</valuemin>
								<valuemax>1</valuemax>
								<value>0</value>
							</parameter>
						</effect>
					</filter>
					<sourcetrack>
						<mediatype>audio</mediatype>
						<trackindex>2</trackindex>
					</sourcetrack>
				</clipitem>
				<transitionitem id="11">
					<rate>
						<ntsc>FALSE</ntsc>
						<timebase>25</timebase>
					</rate>
					<start>11414</start>
					<end>11439</end>
					<alignment>end-black</alignment>
					<effect>
						<name>Cross Fade (+3dB)</name>
						<effecttype>transition</effecttype>
						<mediatype>audio</mediatype>
					</effect>
				</transitionitem>
				<transitionitem id="12">
					<rate>
						<ntsc>FALSE</ntsc>
						<timebase>25</timebase>
					</rate>
					<start>11474</start>
					<end>11499</end>
					<alignment>start-black</alignment>
					<effect>
						<name>Cross Fade (+3dB)</name>
						<effecttype>transition</effecttype>
						<mediatype>audio</mediatype>
					</effect>
				</transitionitem>
				<clipitem id="XDCAM 20120614_094644_C0028 5">
					<name>XDCAM 20120614_094644_C0028</name>
					<duration>2022</duration>
					<rate>
						<ntsc>FALSE</ntsc>
						<timebase>25</timebase>
					</rate>
					<in>1340</in>
					<out>1479</out>
					<start>-1</start>
					<end>11613</end>
					<subframeoffset>0</subframeoffset>
					<masterclipid>XDCAM 20120614_094644_C0028 1</masterclipid>
					<logginginfo>
						<scene/>
						<shottake/>
						<lognote/>
						<good>FALSE</good>
					</logginginfo>
					<labels>
						<label2/>
					</labels>
					<comments>
						<mastercomment1/>
						<mastercomment2/>
						<mastercomment3/>
						<mastercomment4/>
					</comments>
					<file id="XDCAM 20120614_094644_C0028 2"/>
					<filter>
						<effect>
							<name>Audio Levels</name>
							<effectid>audiolevels</effectid>
							<effectcategory>audiolevels</effectcategory>
							<effecttype>audiolevels</effecttype>
							<mediatype>audio</mediatype>
							<parameter>
								<name>Level</name>
								<parameterid>level</parameterid>
								<valuemin>0</valuemin>
								<valuemax>3.98109</valuemax>
								<value>1.25893</value>
							</parameter>
						</effect>
					</filter>
					<filter>
						<effect>
							<name>Audio Pan</name>
							<effectid>audiopan</effectid>
							<effectcategory>audiopan</effectcategory>
							<effecttype>audiopan</effecttype>
							<mediatype>audio</mediatype>
							<parameter>
								<name>Pan</name>
								<parameterid>pan</parameterid>
								<valuemin>-1</valuemin>
								<valuemax>1</valuemax>
								<value>0</value>
							</parameter>
						</effect>
					</filter>
					<sourcetrack>
						<mediatype>audio</mediatype>
						<trackindex>2</trackindex>
					</sourcetrack>
					<link>
						<linkclipref>XDCAM 20120614_094644_C0028 4</linkclipref>
						<mediatype>video</mediatype>
						<trackindex>1</trackindex>
						<clipindex>88</clipindex>
					</link>
					<link>
						<linkclipref>XDCAM 20120614_094644_C0028 5</linkclipref>
						<mediatype>audio</mediatype>
						<trackindex>1</trackindex>
						<clipindex>106</clipindex>
					</link>
					<link>
						<linkclipref>XDCAM 20120614_094644_C0028 6</linkclipref>
						<mediatype>audio</mediatype>
						<trackindex>2</trackindex>
						<clipindex>63</clipindex>
					</link>
				</clipitem>
				<clipitem id="XDCAM 20120614_094644_C0028 9">
					<name>XDCAM 20120614_094644_C0028</name>
					<duration>2022</duration>
					<rate>
						<ntsc>FALSE</ntsc>
						<timebase>25</timebase>
					</rate>
					<in>1479</in>
					<out>1486</out>
					<start>11613</start>
					<end>11620</end>
					<subframeoffset>0</subframeoffset>
					<masterclipid>XDCAM 20120614_094644_C0028 1</masterclipid>
					<logginginfo>
						<scene/>
						<shottake/>
						<lognote/>
						<good>FALSE</good>
					</logginginfo>
					<labels>
						<label2/>
					</labels>
					<comments>
						<mastercomment1/>
						<mastercomment2/>
						<mastercomment3/>
						<mastercomment4/>
					</comments>
					<file id="XDCAM 20120614_094644_C0028 2"/>
					<filter>
						<effect>
							<name>Audio Levels</name>
							<effectid>audiolevels</effectid>
							<effectcategory>audiolevels</effectcategory>
							<effecttype>audiolevels</effecttype>
							<mediatype>audio</mediatype>
							<parameter>
								<name>Level</name>
								<parameterid>level</parameterid>
								<valuemin>0</valuemin>
								<valuemax>3.98109</valuemax>
								<value>0</value>
							</parameter>
						</effect>
					</filter>
					<filter>
						<effect>
							<name>Audio Pan</name>
							<effectid>audiopan</effectid>
							<effectcategory>audiopan</effectcategory>
							<effecttype>audiopan</effecttype>
							<mediatype>audio</mediatype>
							<parameter>
								<name>Pan</name>
								<parameterid>pan</parameterid>
								<valuemin>-1</valuemin>
								<valuemax>1</valuemax>
								<value>0</value>
							</parameter>
						</effect>
					</filter>
					<sourcetrack>
						<mediatype>audio</mediatype>
						<trackindex>2</trackindex>
					</sourcetrack>
				</clipitem>
				<clipitem id="XDCAM 20120614_094644_C0028 10">
					<name>XDCAM 20120614_094644_C0028</name>
					<duration>2022</duration>
					<rate>
						<ntsc>FALSE</ntsc>
						<timebase>25</timebase>
					</rate>
					<in>1486</in>
					<out>1649</out>
					<start>11620</start>
					<end>11783</end>
					<subframeoffset>0</subframeoffset>
					<masterclipid>XDCAM 20120614_094644_C0028 1</masterclipid>
					<logginginfo>
						<scene/>
						<shottake/>
						<lognote/>
						<good>FALSE</good>
					</logginginfo>
					<labels>
						<label2/>
					</labels>
					<comments>
						<mastercomment1/>
						<mastercomment2/>
						<mastercomment3/>
						<mastercomment4/>
					</comments>
					<file id="XDCAM 20120614_094644_C0028 2"/>
					<filter>
						<effect>
							<name>Audio Levels</name>
							<effectid>audiolevels</effectid>
							<effectcategory>audiolevels</effectcategory>
							<effecttype>audiolevels</effecttype>
							<mediatype>audio</mediatype>
							<parameter>
								<name>Level</name>
								<parameterid>level</parameterid>
								<valuemin>0</valuemin>
								<valuemax>3.98109</valuemax>
								<keyframe>
									<when>1586.86</when>
									<value>1.99526</value>
								</keyframe>
								<keyframe>
									<when>1616</when>
									<value>1.41254</value>
								</keyframe>
								<interpolation>
									<name>FCPCurve</name>
								</interpolation>
								<value>1.99526</value>
							</parameter>
						</effect>
					</filter>
					<filter>
						<effect>
							<name>Audio Pan</name>
							<effectid>audiopan</effectid>
							<effectcategory>audiopan</effectcategory>
							<effecttype>audiopan</effecttype>
							<mediatype>audio</mediatype>
							<parameter>
								<name>Pan</name>
								<parameterid>pan</parameterid>
								<valuemin>-1</valuemin>
								<valuemax>1</valuemax>
								<value>0</value>
							</parameter>
						</effect>
					</filter>
					<sourcetrack>
						<mediatype>audio</mediatype>
						<trackindex>2</trackindex>
					</sourcetrack>
				</clipitem>
				<clipitem id="XDCAM 20120614_094644_C0028 11">
					<name>XDCAM 20120614_094644_C0028</name>
					<duration>2022</duration>
					<rate>
						<ntsc>FALSE</ntsc>
						<timebase>25</timebase>
					</rate>
					<in>1649</in>
					<out>1671</out>
					<start>11783</start>
					<end>11805</end>
					<subframeoffset>0</subframeoffset>
					<masterclipid>XDCAM 20120614_094644_C0028 1</masterclipid>
					<logginginfo>
						<scene/>
						<shottake/>
						<lognote/>
						<good>FALSE</good>
					</logginginfo>
					<labels>
						<label2/>
					</labels>
					<comments>
						<mastercomment1/>
						<mastercomment2/>
						<mastercomment3/>
						<mastercomment4/>
					</comments>
					<file id="XDCAM 20120614_094644_C0028 2"/>
					<filter>
						<effect>
							<name>Audio Levels</name>
							<effectid>audiolevels</effectid>
							<effectcategory>audiolevels</effectcategory>
							<effecttype>audiolevels</effecttype>
							<mediatype>audio</mediatype>
							<parameter>
								<name>Level</name>
								<parameterid>level</parameterid>
								<valuemin>0</valuemin>
								<valuemax>3.98109</valuemax>
								<value>0</value>
							</parameter>
						</effect>
					</filter>
					<filter>
						<effect>
							<name>Audio Pan</name>
							<effectid>audiopan</effectid>
							<effectcategory>audiopan</effectcategory>
							<effecttype>audiopan</effecttype>
							<mediatype>audio</mediatype>
							<parameter>
								<name>Pan</name>
								<parameterid>pan</parameterid>
								<valuemin>-1</valuemin>
								<valuemax>1</valuemax>
								<value>0</value>
							</parameter>
						</effect>
					</filter>
					<sourcetrack>
						<mediatype>audio</mediatype>
						<trackindex>2</trackindex>
					</sourcetrack>
				</clipitem>
				<clipitem id="XDCAM 20120614_094644_C0028 12">
					<name>XDCAM 20120614_094644_C0028</name>
					<duration>2022</duration>
					<rate>
						<ntsc>FALSE</ntsc>
						<timebase>25</timebase>
					</rate>
					<in>1671</in>
					<out>1712</out>
					<start>11805</start>
					<end>-1</end>
					<subframeoffset>0</subframeoffset>
					<masterclipid>XDCAM 20120614_094644_C0028 1</masterclipid>
					<logginginfo>
						<scene/>
						<shottake/>
						<lognote/>
						<good>FALSE</good>
					</logginginfo>
					<labels>
						<label2/>
					</labels>
					<comments>
						<mastercomment1/>
						<mastercomment2/>
						<mastercomment3/>
						<mastercomment4/>
					</comments>
					<file id="XDCAM 20120614_094644_C0028 2"/>
					<filter>
						<effect>
							<name>Audio Levels</name>
							<effectid>audiolevels</effectid>
							<effectcategory>audiolevels</effectcategory>
							<effecttype>audiolevels</effecttype>
							<mediatype>audio</mediatype>
							<parameter>
								<name>Level</name>
								<parameterid>level</parameterid>
								<valuemin>0</valuemin>
								<valuemax>3.98109</valuemax>
								<value>1.77828</value>
							</parameter>
						</effect>
					</filter>
					<filter>
						<effect>
							<name>Audio Pan</name>
							<effectid>audiopan</effectid>
							<effectcategory>audiopan</effectcategory>
							<effecttype>audiopan</effecttype>
							<mediatype>audio</mediatype>
							<parameter>
								<name>Pan</name>
								<parameterid>pan</parameterid>
								<valuemin>-1</valuemin>
								<valuemax>1</valuemax>
								<value>0</value>
							</parameter>
						</effect>
					</filter>
					<sourcetrack>
						<mediatype>audio</mediatype>
						<trackindex>2</trackindex>
					</sourcetrack>
				</clipitem>
				<transitionitem id="13">
					<rate>
						<ntsc>FALSE</ntsc>
						<timebase>25</timebase>
					</rate>
					<start>11837</start>
					<end>11846</end>
					<alignment>center</alignment>
					<effect>
						<name>Cross Fade (+3dB)</name>
						<effecttype>transition</effecttype>
						<mediatype>audio</mediatype>
					</effect>
				</transitionitem>
				<clipitem id="XDCAM 20120614_094644_C0029 3">
					<name>XDCAM 20120614_094644_C0029</name>
					<duration>580</duration>
					<rate>
						<ntsc>FALSE</ntsc>
						<timebase>25</timebase>
					</rate>
					<in>435</in>
					<out>525</out>
					<start>-1</start>
					<end>11927</end>
					<subframeoffset>0</subframeoffset>
					<masterclipid>XDCAM 20120614_094644_C0029 1</masterclipid>
					<logginginfo>
						<scene/>
						<shottake/>
						<lognote/>
						<good>FALSE</good>
					</logginginfo>
					<labels>
						<label2/>
					</labels>
					<comments>
						<mastercomment1/>
						<mastercomment2/>
						<mastercomment3/>
						<mastercomment4/>
					</comments>
					<file id="XDCAM 20120614_094644_C0029 2"/>
					<filter>
						<effect>
							<name>Audio Levels</name>
							<effectid>audiolevels</effectid>
							<effectcategory>audiolevels</effectcategory>
							<effecttype>audiolevels</effecttype>
							<mediatype>audio</mediatype>
							<parameter>
								<name>Level</name>
								<parameterid>level</parameterid>
								<valuemin>0</valuemin>
								<valuemax>3.98109</valuemax>
								<value>1.12202</value>
							</parameter>
						</effect>
					</filter>
					<filter>
						<effect>
							<name>Audio Pan</name>
							<effectid>audiopan</effectid>
							<effectcategory>audiopan</effectcategory>
							<effecttype>audiopan</effecttype>
							<mediatype>audio</mediatype>
							<parameter>
								<name>Pan</name>
								<parameterid>pan</parameterid>
								<valuemin>-1</valuemin>
								<valuemax>1</valuemax>
								<value>0</value>
							</parameter>
						</effect>
					</filter>
					<sourcetrack>
						<mediatype>audio</mediatype>
						<trackindex>2</trackindex>
					</sourcetrack>
					<link>
						<linkclipref>XDCAM 20120614_094644_C0029 </linkclipref>
						<mediatype>video</mediatype>
						<trackindex>1</trackindex>
						<clipindex>89</clipindex>
					</link>
					<link>
						<linkclipref>XDCAM 20120614_094644_C0029 3</linkclipref>
						<mediatype>audio</mediatype>
						<trackindex>1</trackindex>
						<clipindex>112</clipindex>
					</link>
					<link>
						<linkclipref>XDCAM 20120614_094644_C0029 4</linkclipref>
						<mediatype>audio</mediatype>
						<trackindex>2</trackindex>
						<clipindex>64</clipindex>
					</link>
				</clipitem>
				<clipitem id="C0050 3">
					<name>C0050</name>
					<duration>2566</duration>
					<rate>
						<ntsc>FALSE</ntsc>
						<timebase>25</timebase>
					</rate>
					<in>627</in>
					<out>893</out>
					<start>11934</start>
					<end>-1</end>
					<subframeoffset>0</subframeoffset>
					<masterclipid>C0050 1</masterclipid>
					<logginginfo>
						<scene/>
						<shottake/>
						<lognote/>
						<good>FALSE</good>
					</logginginfo>
					<labels>
						<label2/>
					</labels>
					<comments>
						<mastercomment1/>
						<mastercomment2/>
						<mastercomment3/>
						<mastercomment4/>
					</comments>
					<file id="C0050 2"/>
					<filter>
						<effect>
							<name>Audio Levels</name>
							<effectid>audiolevels</effectid>
							<effectcategory>audiolevels</effectcategory>
							<effecttype>audiolevels</effecttype>
							<mediatype>audio</mediatype>
							<parameter>
								<name>Level</name>
								<parameterid>level</parameterid>
								<valuemin>0</valuemin>
								<valuemax>3.98109</valuemax>
								<value>1</value>
							</parameter>
						</effect>
					</filter>
					<filter>
						<effect>
							<name>Audio Pan</name>
							<effectid>audiopan</effectid>
							<effectcategory>audiopan</effectcategory>
							<effecttype>audiopan</effecttype>
							<mediatype>audio</mediatype>
							<parameter>
								<name>Pan</name>
								<parameterid>pan</parameterid>
								<valuemin>-1</valuemin>
								<valuemax>1</valuemax>
								<value>0</value>
							</parameter>
						</effect>
					</filter>
					<sourcetrack>
						<mediatype>audio</mediatype>
						<trackindex>1</trackindex>
					</sourcetrack>
					<link>
						<linkclipref>C0050 </linkclipref>
						<mediatype>video</mediatype>
						<trackindex>1</trackindex>
						<clipindex>91</clipindex>
					</link>
					<link>
						<linkclipref>C0050 3</linkclipref>
						<mediatype>audio</mediatype>
						<trackindex>1</trackindex>
						<clipindex>113</clipindex>
					</link>
					<link>
						<linkclipref>C0050 4</linkclipref>
						<mediatype>audio</mediatype>
						<trackindex>2</trackindex>
						<clipindex>65</clipindex>
					</link>
				</clipitem>
				<transitionitem id="14">
					<rate>
						<ntsc>FALSE</ntsc>
						<timebase>25</timebase>
					</rate>
					<start>12198</start>
					<end>12200</end>
					<alignment>center</alignment>
					<effect>
						<name>Cross Fade (+3dB)</name>
						<effecttype>transition</effecttype>
						<mediatype>audio</mediatype>
					</effect>
				</transitionitem>
				<clipitem id="C0058 ">
					<name>C0058</name>
					<duration>907</duration>
					<rate>
						<ntsc>FALSE</ntsc>
						<timebase>25</timebase>
					</rate>
					<in>235</in>
					<out>242</out>
					<start>-1</start>
					<end>12205</end>
					<subframeoffset>0</subframeoffset>
					<enabled>TRUE</enabled>
					<masterclipid>C0058 1</masterclipid>
					<logginginfo>
						<scene/>
						<shottake/>
						<lognote/>
						<good>FALSE</good>
					</logginginfo>
					<labels>
						<label2/>
					</labels>
					<comments>
						<mastercomment1/>
						<mastercomment2/>
						<mastercomment3/>
						<mastercomment4/>
					</comments>
					<file id="C0058 2">
						<name>C0058.mov</name>
						<pathurl>file://localhost/Volumes/Askepott/Prosjekter/DNPR637010_Kra%CC%8Akeklubben_TEM_011212/Video/Mellomstikk/S03E%20D%C3%B8den/DAG%201/C0058.mov</pathurl>
						<rate>
							<timebase>25</timebase>
						</rate>
						<duration>907</duration>
						<timecode>
							<rate>
								<timebase>25</timebase>
							</rate>
							<string>05:11:58:12</string>
							<frame>467962</frame>
							<displayformat>NDF</displayformat>
							<source>source</source>
							<reel>
								<name>XDCAM 20120508_103430</name>
							</reel>
						</timecode>
						<media>
							<video>
								<duration>907</duration>
								<samplecharacteristics>
									<width>1920</width>
									<height>1080</height>
								</samplecharacteristics>
							</video>
							<audio>
								<rate>
									<timebase>48000</timebase>
								</rate>
								<trackcount>1</trackcount>
								<channeldescription>8 Channels</channeldescription>
								<samplecharacteristics>
									<depth>24</depth>
								</samplecharacteristics>
							</audio>
						</media>
					</file>
					<filter>
						<effect>
							<name>Audio Levels</name>
							<effectid>audiolevels</effectid>
							<effectcategory>audiolevels</effectcategory>
							<effecttype>audiolevels</effecttype>
							<mediatype>audio</mediatype>
							<parameter>
								<name>Level</name>
								<parameterid>level</parameterid>
								<valuemin>0</valuemin>
								<valuemax>3.98109</valuemax>
								<value>3.98107</value>
							</parameter>
						</effect>
					</filter>
					<filter>
						<effect>
							<name>Audio Pan</name>
							<effectid>audiopan</effectid>
							<effectcategory>audiopan</effectcategory>
							<effecttype>audiopan</effecttype>
							<mediatype>audio</mediatype>
							<parameter>
								<name>Pan</name>
								<parameterid>pan</parameterid>
								<valuemin>-1</valuemin>
								<valuemax>1</valuemax>
								<value>0</value>
							</parameter>
						</effect>
					</filter>
					<sourcetrack>
						<mediatype>audio</mediatype>
						<trackindex>1</trackindex>
					</sourcetrack>
				</clipitem>
				<clipitem id="C0074 3">
					<name>C0074</name>
					<duration>2288</duration>
					<rate>
						<ntsc>FALSE</ntsc>
						<timebase>25</timebase>
					</rate>
					<in>988</in>
					<out>1090</out>
					<start>12205</start>
					<end>12307</end>
					<subframeoffset>0</subframeoffset>
					<masterclipid>C0074 1</masterclipid>
					<logginginfo>
						<scene/>
						<shottake/>
						<lognote/>
						<good>FALSE</good>
					</logginginfo>
					<labels>
						<label2/>
					</labels>
					<comments>
						<mastercomment1/>
						<mastercomment2/>
						<mastercomment3/>
						<mastercomment4/>
					</comments>
					<file id="C0074 2"/>
					<filter>
						<effect>
							<name>Audio Levels</name>
							<effectid>audiolevels</effectid>
							<effectcategory>audiolevels</effectcategory>
							<effecttype>audiolevels</effecttype>
							<mediatype>audio</mediatype>
							<parameter>
								<name>Level</name>
								<parameterid>level</parameterid>
								<valuemin>0</valuemin>
								<valuemax>3.98109</valuemax>
								<value>1</value>
							</parameter>
						</effect>
					</filter>
					<filter>
						<effect>
							<name>Audio Pan</name>
							<effectid>audiopan</effectid>
							<effectcategory>audiopan</effectcategory>
							<effecttype>audiopan</effecttype>
							<mediatype>audio</mediatype>
							<parameter>
								<name>Pan</name>
								<parameterid>pan</parameterid>
								<valuemin>-1</valuemin>
								<valuemax>1</valuemax>
								<value>0</value>
							</parameter>
						</effect>
					</filter>
					<sourcetrack>
						<mediatype>audio</mediatype>
						<trackindex>1</trackindex>
					</sourcetrack>
					<link>
						<linkclipref>C0074 </linkclipref>
						<mediatype>video</mediatype>
						<trackindex>1</trackindex>
						<clipindex>92</clipindex>
					</link>
					<link>
						<linkclipref>C0074 3</linkclipref>
						<mediatype>audio</mediatype>
						<trackindex>1</trackindex>
						<clipindex>116</clipindex>
					</link>
					<link>
						<linkclipref>C0074 4</linkclipref>
						<mediatype>audio</mediatype>
						<trackindex>2</trackindex>
						<clipindex>67</clipindex>
					</link>
				</clipitem>
				<clipitem id="C0057 3">
					<name>C0057</name>
					<duration>1018</duration>
					<rate>
						<ntsc>FALSE</ntsc>
						<timebase>25</timebase>
					</rate>
					<in>562</in>
					<out>621</out>
					<start>12307</start>
					<end>12366</end>
					<subframeoffset>0</subframeoffset>
					<masterclipid>C0057 1</masterclipid>
					<logginginfo>
						<scene/>
						<shottake/>
						<lognote/>
						<good>FALSE</good>
					</logginginfo>
					<labels>
						<label2/>
					</labels>
					<comments>
						<mastercomment1/>
						<mastercomment2/>
						<mastercomment3/>
						<mastercomment4/>
					</comments>
					<file id="C0057 2"/>
					<filter>
						<effect>
							<name>Audio Levels</name>
							<effectid>audiolevels</effectid>
							<effectcategory>audiolevels</effectcategory>
							<effecttype>audiolevels</effecttype>
							<mediatype>audio</mediatype>
							<parameter>
								<name>Level</name>
								<parameterid>level</parameterid>
								<valuemin>0</valuemin>
								<valuemax>3.98109</valuemax>
								<value>1</value>
							</parameter>
						</effect>
					</filter>
					<filter>
						<effect>
							<name>Audio Pan</name>
							<effectid>audiopan</effectid>
							<effectcategory>audiopan</effectcategory>
							<effecttype>audiopan</effecttype>
							<mediatype>audio</mediatype>
							<parameter>
								<name>Pan</name>
								<parameterid>pan</parameterid>
								<valuemin>-1</valuemin>
								<valuemax>1</valuemax>
								<value>0</value>
							</parameter>
						</effect>
					</filter>
					<sourcetrack>
						<mediatype>audio</mediatype>
						<trackindex>1</trackindex>
					</sourcetrack>
				</clipitem>
				<clipitem id="C0074 6">
					<name>C0074</name>
					<duration>2288</duration>
					<rate>
						<ntsc>FALSE</ntsc>
						<timebase>25</timebase>
					</rate>
					<in>1173</in>
					<out>1291</out>
					<start>12366</start>
					<end>12484</end>
					<subframeoffset>0</subframeoffset>
					<masterclipid>C0074 1</masterclipid>
					<logginginfo>
						<scene/>
						<shottake/>
						<lognote/>
						<good>FALSE</good>
					</logginginfo>
					<labels>
						<label2/>
					</labels>
					<comments>
						<mastercomment1/>
						<mastercomment2/>
						<mastercomment3/>
						<mastercomment4/>
					</comments>
					<file id="C0074 2"/>
					<filter>
						<effect>
							<name>Audio Levels</name>
							<effectid>audiolevels</effectid>
							<effectcategory>audiolevels</effectcategory>
							<effecttype>audiolevels</effecttype>
							<mediatype>audio</mediatype>
							<parameter>
								<name>Level</name>
								<parameterid>level</parameterid>
								<valuemin>0</valuemin>
								<valuemax>3.98109</valuemax>
								<value>1</value>
							</parameter>
						</effect>
					</filter>
					<filter>
						<effect>
							<name>Audio Pan</name>
							<effectid>audiopan</effectid>
							<effectcategory>audiopan</effectcategory>
							<effecttype>audiopan</effecttype>
							<mediatype>audio</mediatype>
							<parameter>
								<name>Pan</name>
								<parameterid>pan</parameterid>
								<valuemin>-1</valuemin>
								<valuemax>1</valuemax>
								<value>0</value>
							</parameter>
						</effect>
					</filter>
					<sourcetrack>
						<mediatype>audio</mediatype>
						<trackindex>1</trackindex>
					</sourcetrack>
					<link>
						<linkclipref>C0074 5</linkclipref>
						<mediatype>video</mediatype>
						<trackindex>1</trackindex>
						<clipindex>94</clipindex>
					</link>
					<link>
						<linkclipref>C0074 6</linkclipref>
						<mediatype>audio</mediatype>
						<trackindex>1</trackindex>
						<clipindex>118</clipindex>
					</link>
				</clipitem>
				<clipitem id="C0050 6">
					<name>C0050</name>
					<duration>2566</duration>
					<rate>
						<ntsc>FALSE</ntsc>
						<timebase>25</timebase>
					</rate>
					<in>1258</in>
					<out>1473</out>
					<start>12484</start>
					<end>12699</end>
					<subframeoffset>0</subframeoffset>
					<masterclipid>C0050 1</masterclipid>
					<logginginfo>
						<scene/>
						<shottake/>
						<lognote/>
						<good>FALSE</good>
					</logginginfo>
					<labels>
						<label2/>
					</labels>
					<comments>
						<mastercomment1/>
						<mastercomment2/>
						<mastercomment3/>
						<mastercomment4/>
					</comments>
					<file id="C0050 2"/>
					<filter>
						<effect>
							<name>Audio Levels</name>
							<effectid>audiolevels</effectid>
							<effectcategory>audiolevels</effectcategory>
							<effecttype>audiolevels</effecttype>
							<mediatype>audio</mediatype>
							<parameter>
								<name>Level</name>
								<parameterid>level</parameterid>
								<valuemin>0</valuemin>
								<valuemax>3.98109</valuemax>
								<value>1</value>
							</parameter>
						</effect>
					</filter>
					<filter>
						<effect>
							<name>Audio Pan</name>
							<effectid>audiopan</effectid>
							<effectcategory>audiopan</effectcategory>
							<effecttype>audiopan</effecttype>
							<mediatype>audio</mediatype>
							<parameter>
								<name>Pan</name>
								<parameterid>pan</parameterid>
								<valuemin>-1</valuemin>
								<valuemax>1</valuemax>
								<value>0</value>
							</parameter>
						</effect>
					</filter>
					<sourcetrack>
						<mediatype>audio</mediatype>
						<trackindex>1</trackindex>
					</sourcetrack>
					<link>
						<linkclipref>C0050 5</linkclipref>
						<mediatype>video</mediatype>
						<trackindex>1</trackindex>
						<clipindex>95</clipindex>
					</link>
					<link>
						<linkclipref>C0050 6</linkclipref>
						<mediatype>audio</mediatype>
						<trackindex>1</trackindex>
						<clipindex>119</clipindex>
					</link>
					<link>
						<linkclipref>C0050 7</linkclipref>
						<mediatype>audio</mediatype>
						<trackindex>2</trackindex>
						<clipindex>72</clipindex>
					</link>
				</clipitem>
				<clipitem id="C0075 3">
					<name>C0075</name>
					<duration>1816</duration>
					<rate>
						<ntsc>FALSE</ntsc>
						<timebase>25</timebase>
					</rate>
					<in>489</in>
					<out>618</out>
					<start>12699</start>
					<end>12828</end>
					<subframeoffset>0</subframeoffset>
					<masterclipid>C0075 1</masterclipid>
					<logginginfo>
						<scene/>
						<shottake/>
						<lognote/>
						<good>FALSE</good>
					</logginginfo>
					<labels>
						<label2/>
					</labels>
					<comments>
						<mastercomment1/>
						<mastercomment2/>
						<mastercomment3/>
						<mastercomment4/>
					</comments>
					<file id="C0075 2"/>
					<filter>
						<effect>
							<name>Audio Levels</name>
							<effectid>audiolevels</effectid>
							<effectcategory>audiolevels</effectcategory>
							<effecttype>audiolevels</effecttype>
							<mediatype>audio</mediatype>
							<parameter>
								<name>Level</name>
								<parameterid>level</parameterid>
								<valuemin>0</valuemin>
								<valuemax>3.98109</valuemax>
								<value>1</value>
							</parameter>
						</effect>
					</filter>
					<filter>
						<effect>
							<name>Audio Pan</name>
							<effectid>audiopan</effectid>
							<effectcategory>audiopan</effectcategory>
							<effecttype>audiopan</effecttype>
							<mediatype>audio</mediatype>
							<parameter>
								<name>Pan</name>
								<parameterid>pan</parameterid>
								<valuemin>-1</valuemin>
								<valuemax>1</valuemax>
								<value>0</value>
							</parameter>
						</effect>
					</filter>
					<sourcetrack>
						<mediatype>audio</mediatype>
						<trackindex>1</trackindex>
					</sourcetrack>
					<link>
						<linkclipref>C0075 </linkclipref>
						<mediatype>video</mediatype>
						<trackindex>1</trackindex>
						<clipindex>96</clipindex>
					</link>
					<link>
						<linkclipref>C0075 3</linkclipref>
						<mediatype>audio</mediatype>
						<trackindex>1</trackindex>
						<clipindex>120</clipindex>
					</link>
					<link>
						<linkclipref>C0075 4</linkclipref>
						<mediatype>audio</mediatype>
						<trackindex>2</trackindex>
						<clipindex>73</clipindex>
					</link>
				</clipitem>
				<clipitem id="C0060 3">
					<name>C0060</name>
					<duration>438</duration>
					<rate>
						<ntsc>FALSE</ntsc>
						<timebase>25</timebase>
					</rate>
					<in>153</in>
					<out>301</out>
					<start>12828</start>
					<end>12976</end>
					<subframeoffset>0</subframeoffset>
					<masterclipid>C0060 1</masterclipid>
					<logginginfo>
						<scene/>
						<shottake/>
						<lognote/>
						<good>FALSE</good>
					</logginginfo>
					<labels>
						<label2/>
					</labels>
					<comments>
						<mastercomment1/>
						<mastercomment2/>
						<mastercomment3/>
						<mastercomment4/>
					</comments>
					<file id="C0060 2"/>
					<filter>
						<effect>
							<name>Audio Levels</name>
							<effectid>audiolevels</effectid>
							<effectcategory>audiolevels</effectcategory>
							<effecttype>audiolevels</effecttype>
							<mediatype>audio</mediatype>
							<parameter>
								<name>Level</name>
								<parameterid>level</parameterid>
								<valuemin>0</valuemin>
								<valuemax>3.98109</valuemax>
								<value>1</value>
							</parameter>
						</effect>
					</filter>
					<filter>
						<effect>
							<name>Audio Pan</name>
							<effectid>audiopan</effectid>
							<effectcategory>audiopan</effectcategory>
							<effecttype>audiopan</effecttype>
							<mediatype>audio</mediatype>
							<parameter>
								<name>Pan</name>
								<parameterid>pan</parameterid>
								<valuemin>-1</valuemin>
								<valuemax>1</valuemax>
								<value>0</value>
							</parameter>
						</effect>
					</filter>
					<sourcetrack>
						<mediatype>audio</mediatype>
						<trackindex>1</trackindex>
					</sourcetrack>
					<link>
						<linkclipref>C0060 </linkclipref>
						<mediatype>video</mediatype>
						<trackindex>1</trackindex>
						<clipindex>97</clipindex>
					</link>
					<link>
						<linkclipref>C0060 3</linkclipref>
						<mediatype>audio</mediatype>
						<trackindex>1</trackindex>
						<clipindex>121</clipindex>
					</link>
					<link>
						<linkclipref>C0060 4</linkclipref>
						<mediatype>audio</mediatype>
						<trackindex>2</trackindex>
						<clipindex>74</clipindex>
					</link>
				</clipitem>
				<clipitem id="C0050 9">
					<name>C0050</name>
					<duration>2566</duration>
					<rate>
						<ntsc>FALSE</ntsc>
						<timebase>25</timebase>
					</rate>
					<in>1834</in>
					<out>2103</out>
					<start>12976</start>
					<end>13245</end>
					<subframeoffset>0</subframeoffset>
					<masterclipid>C0050 1</masterclipid>
					<logginginfo>
						<scene/>
						<shottake/>
						<lognote/>
						<good>FALSE</good>
					</logginginfo>
					<labels>
						<label2/>
					</labels>
					<comments>
						<mastercomment1/>
						<mastercomment2/>
						<mastercomment3/>
						<mastercomment4/>
					</comments>
					<file id="C0050 2"/>
					<filter>
						<effect>
							<name>Audio Levels</name>
							<effectid>audiolevels</effectid>
							<effectcategory>audiolevels</effectcategory>
							<effecttype>audiolevels</effecttype>
							<mediatype>audio</mediatype>
							<parameter>
								<name>Level</name>
								<parameterid>level</parameterid>
								<valuemin>0</valuemin>
								<valuemax>3.98109</valuemax>
								<keyframe>
									<when>1863.14</when>
									<value>0.630957</value>
								</keyframe>
								<keyframe>
									<when>1875.14</when>
									<value>1</value>
								</keyframe>
								<interpolation>
									<name>FCPCurve</name>
								</interpolation>
								<value>1</value>
							</parameter>
						</effect>
					</filter>
					<filter>
						<effect>
							<name>Audio Pan</name>
							<effectid>audiopan</effectid>
							<effectcategory>audiopan</effectcategory>
							<effecttype>audiopan</effecttype>
							<mediatype>audio</mediatype>
							<parameter>
								<name>Pan</name>
								<parameterid>pan</parameterid>
								<valuemin>-1</valuemin>
								<valuemax>1</valuemax>
								<value>0</value>
							</parameter>
						</effect>
					</filter>
					<sourcetrack>
						<mediatype>audio</mediatype>
						<trackindex>1</trackindex>
					</sourcetrack>
					<link>
						<linkclipref>C0050 8</linkclipref>
						<mediatype>video</mediatype>
						<trackindex>1</trackindex>
						<clipindex>98</clipindex>
					</link>
					<link>
						<linkclipref>C0050 9</linkclipref>
						<mediatype>audio</mediatype>
						<trackindex>1</trackindex>
						<clipindex>122</clipindex>
					</link>
					<link>
						<linkclipref>C0050 10</linkclipref>
						<mediatype>audio</mediatype>
						<trackindex>2</trackindex>
						<clipindex>75</clipindex>
					</link>
				</clipitem>
				<clipitem id="C0075 6">
					<name>C0075</name>
					<duration>1816</duration>
					<rate>
						<ntsc>FALSE</ntsc>
						<timebase>25</timebase>
					</rate>
					<in>1363</in>
					<out>1401</out>
					<start>13245</start>
					<end>13283</end>
					<subframeoffset>0</subframeoffset>
					<masterclipid>C0075 1</masterclipid>
					<logginginfo>
						<scene/>
						<shottake/>
						<lognote/>
						<good>FALSE</good>
					</logginginfo>
					<labels>
						<label2/>
					</labels>
					<comments>
						<mastercomment1/>
						<mastercomment2/>
						<mastercomment3/>
						<mastercomment4/>
					</comments>
					<file id="C0075 2"/>
					<filter>
						<effect>
							<name>Audio Levels</name>
							<effectid>audiolevels</effectid>
							<effectcategory>audiolevels</effectcategory>
							<effecttype>audiolevels</effecttype>
							<mediatype>audio</mediatype>
							<parameter>
								<name>Level</name>
								<parameterid>level</parameterid>
								<valuemin>0</valuemin>
								<valuemax>3.98109</valuemax>
								<value>1</value>
							</parameter>
						</effect>
					</filter>
					<filter>
						<effect>
							<name>Audio Pan</name>
							<effectid>audiopan</effectid>
							<effectcategory>audiopan</effectcategory>
							<effecttype>audiopan</effecttype>
							<mediatype>audio</mediatype>
							<parameter>
								<name>Pan</name>
								<parameterid>pan</parameterid>
								<valuemin>-1</valuemin>
								<valuemax>1</valuemax>
								<value>0</value>
							</parameter>
						</effect>
					</filter>
					<sourcetrack>
						<mediatype>audio</mediatype>
						<trackindex>1</trackindex>
					</sourcetrack>
					<link>
						<linkclipref>C0075 5</linkclipref>
						<mediatype>video</mediatype>
						<trackindex>1</trackindex>
						<clipindex>99</clipindex>
					</link>
					<link>
						<linkclipref>C0075 6</linkclipref>
						<mediatype>audio</mediatype>
						<trackindex>1</trackindex>
						<clipindex>123</clipindex>
					</link>
					<link>
						<linkclipref>C0075 7</linkclipref>
						<mediatype>audio</mediatype>
						<trackindex>2</trackindex>
						<clipindex>76</clipindex>
					</link>
				</clipitem>
				<clipitem id="C0075 8">
					<name>C0075</name>
					<duration>1816</duration>
					<rate>
						<ntsc>FALSE</ntsc>
						<timebase>25</timebase>
					</rate>
					<in>1396</in>
					<out>1488</out>
					<start>13283</start>
					<end>13375</end>
					<subframeoffset>0</subframeoffset>
					<masterclipid>C0075 1</masterclipid>
					<logginginfo>
						<scene/>
						<shottake/>
						<lognote/>
						<good>FALSE</good>
					</logginginfo>
					<labels>
						<label2/>
					</labels>
					<comments>
						<mastercomment1/>
						<mastercomment2/>
						<mastercomment3/>
						<mastercomment4/>
					</comments>
					<file id="C0075 2"/>
					<filter>
						<effect>
							<name>Audio Levels</name>
							<effectid>audiolevels</effectid>
							<effectcategory>audiolevels</effectcategory>
							<effecttype>audiolevels</effecttype>
							<mediatype>audio</mediatype>
							<parameter>
								<name>Level</name>
								<parameterid>level</parameterid>
								<valuemin>0</valuemin>
								<valuemax>3.98109</valuemax>
								<value>1</value>
							</parameter>
						</effect>
					</filter>
					<filter>
						<effect>
							<name>Audio Pan</name>
							<effectid>audiopan</effectid>
							<effectcategory>audiopan</effectcategory>
							<effecttype>audiopan</effecttype>
							<mediatype>audio</mediatype>
							<parameter>
								<name>Pan</name>
								<parameterid>pan</parameterid>
								<valuemin>-1</valuemin>
								<valuemax>1</valuemax>
								<value>0</value>
							</parameter>
						</effect>
					</filter>
					<sourcetrack>
						<mediatype>audio</mediatype>
						<trackindex>1</trackindex>
					</sourcetrack>
				</clipitem>
				<clipitem id="C0052 3">
					<name>C0052</name>
					<duration>1699</duration>
					<rate>
						<ntsc>FALSE</ntsc>
						<timebase>25</timebase>
					</rate>
					<in>1016</in>
					<out>1138</out>
					<start>13375</start>
					<end>13497</end>
					<subframeoffset>0</subframeoffset>
					<masterclipid>C0052 1</masterclipid>
					<logginginfo>
						<scene/>
						<shottake/>
						<lognote/>
						<good>FALSE</good>
					</logginginfo>
					<labels>
						<label2/>
					</labels>
					<comments>
						<mastercomment1/>
						<mastercomment2/>
						<mastercomment3/>
						<mastercomment4/>
					</comments>
					<file id="C0052 2"/>
					<filter>
						<effect>
							<name>Audio Levels</name>
							<effectid>audiolevels</effectid>
							<effectcategory>audiolevels</effectcategory>
							<effecttype>audiolevels</effecttype>
							<mediatype>audio</mediatype>
							<parameter>
								<name>Level</name>
								<parameterid>level</parameterid>
								<valuemin>0</valuemin>
								<valuemax>3.98109</valuemax>
								<value>1</value>
							</parameter>
						</effect>
					</filter>
					<filter>
						<effect>
							<name>Audio Pan</name>
							<effectid>audiopan</effectid>
							<effectcategory>audiopan</effectcategory>
							<effecttype>audiopan</effecttype>
							<mediatype>audio</mediatype>
							<parameter>
								<name>Pan</name>
								<parameterid>pan</parameterid>
								<valuemin>-1</valuemin>
								<valuemax>1</valuemax>
								<value>0</value>
							</parameter>
						</effect>
					</filter>
					<sourcetrack>
						<mediatype>audio</mediatype>
						<trackindex>1</trackindex>
					</sourcetrack>
					<link>
						<linkclipref>C0052 </linkclipref>
						<mediatype>video</mediatype>
						<trackindex>1</trackindex>
						<clipindex>100</clipindex>
					</link>
					<link>
						<linkclipref>C0052 3</linkclipref>
						<mediatype>audio</mediatype>
						<trackindex>1</trackindex>
						<clipindex>125</clipindex>
					</link>
					<link>
						<linkclipref>C0052 4</linkclipref>
						<mediatype>audio</mediatype>
						<trackindex>2</trackindex>
						<clipindex>78</clipindex>
					</link>
				</clipitem>
				<clipitem id="C0077 3">
					<name>C0077</name>
					<duration>2591</duration>
					<rate>
						<ntsc>FALSE</ntsc>
						<timebase>25</timebase>
					</rate>
					<in>878</in>
					<out>1096</out>
					<start>13497</start>
					<end>13715</end>
					<subframeoffset>0</subframeoffset>
					<masterclipid>C0077 1</masterclipid>
					<logginginfo>
						<scene/>
						<shottake/>
						<lognote/>
						<good>FALSE</good>
					</logginginfo>
					<labels>
						<label2/>
					</labels>
					<comments>
						<mastercomment1/>
						<mastercomment2/>
						<mastercomment3/>
						<mastercomment4/>
					</comments>
					<file id="C0077 2"/>
					<filter>
						<effect>
							<name>Audio Levels</name>
							<effectid>audiolevels</effectid>
							<effectcategory>audiolevels</effectcategory>
							<effecttype>audiolevels</effecttype>
							<mediatype>audio</mediatype>
							<parameter>
								<name>Level</name>
								<parameterid>level</parameterid>
								<valuemin>0</valuemin>
								<valuemax>3.98109</valuemax>
								<value>1</value>
							</parameter>
						</effect>
					</filter>
					<filter>
						<effect>
							<name>Audio Pan</name>
							<effectid>audiopan</effectid>
							<effectcategory>audiopan</effectcategory>
							<effecttype>audiopan</effecttype>
							<mediatype>audio</mediatype>
							<parameter>
								<name>Pan</name>
								<parameterid>pan</parameterid>
								<valuemin>-1</valuemin>
								<valuemax>1</valuemax>
								<value>0</value>
							</parameter>
						</effect>
					</filter>
					<sourcetrack>
						<mediatype>audio</mediatype>
						<trackindex>1</trackindex>
					</sourcetrack>
					<link>
						<linkclipref>C0077 </linkclipref>
						<mediatype>video</mediatype>
						<trackindex>1</trackindex>
						<clipindex>101</clipindex>
					</link>
					<link>
						<linkclipref>C0077 3</linkclipref>
						<mediatype>audio</mediatype>
						<trackindex>1</trackindex>
						<clipindex>126</clipindex>
					</link>
					<link>
						<linkclipref>C0077 4</linkclipref>
						<mediatype>audio</mediatype>
						<trackindex>2</trackindex>
						<clipindex>79</clipindex>
					</link>
				</clipitem>
				<clipitem id="C0053 3">
					<name>C0053</name>
					<duration>3721</duration>
					<rate>
						<ntsc>FALSE</ntsc>
						<timebase>25</timebase>
					</rate>
					<in>2447</in>
					<out>2562</out>
					<start>13715</start>
					<end>13830</end>
					<subframeoffset>0</subframeoffset>
					<masterclipid>C0053 1</masterclipid>
					<logginginfo>
						<scene/>
						<shottake/>
						<lognote/>
						<good>FALSE</good>
					</logginginfo>
					<labels>
						<label2/>
					</labels>
					<comments>
						<mastercomment1/>
						<mastercomment2/>
						<mastercomment3/>
						<mastercomment4/>
					</comments>
					<file id="C0053 2"/>
					<filter>
						<effect>
							<name>Audio Levels</name>
							<effectid>audiolevels</effectid>
							<effectcategory>audiolevels</effectcategory>
							<effecttype>audiolevels</effecttype>
							<mediatype>audio</mediatype>
							<parameter>
								<name>Level</name>
								<parameterid>level</parameterid>
								<valuemin>0</valuemin>
								<valuemax>3.98109</valuemax>
								<value>1</value>
							</parameter>
						</effect>
					</filter>
					<filter>
						<effect>
							<name>Audio Pan</name>
							<effectid>audiopan</effectid>
							<effectcategory>audiopan</effectcategory>
							<effecttype>audiopan</effecttype>
							<mediatype>audio</mediatype>
							<parameter>
								<name>Pan</name>
								<parameterid>pan</parameterid>
								<valuemin>-1</valuemin>
								<valuemax>1</valuemax>
								<value>0</value>
							</parameter>
						</effect>
					</filter>
					<sourcetrack>
						<mediatype>audio</mediatype>
						<trackindex>1</trackindex>
					</sourcetrack>
					<link>
						<linkclipref>C0053 3</linkclipref>
						<mediatype>audio</mediatype>
						<trackindex>1</trackindex>
						<clipindex>127</clipindex>
					</link>
					<link>
						<linkclipref>C0053 4</linkclipref>
						<mediatype>audio</mediatype>
						<trackindex>2</trackindex>
						<clipindex>80</clipindex>
					</link>
				</clipitem>
				<clipitem id="C0077 6">
					<name>C0077</name>
					<duration>2591</duration>
					<rate>
						<ntsc>FALSE</ntsc>
						<timebase>25</timebase>
					</rate>
					<in>1207</in>
					<out>1256</out>
					<start>13830</start>
					<end>13879</end>
					<subframeoffset>0</subframeoffset>
					<masterclipid>C0077 1</masterclipid>
					<logginginfo>
						<scene/>
						<shottake/>
						<lognote/>
						<good>FALSE</good>
					</logginginfo>
					<labels>
						<label2/>
					</labels>
					<comments>
						<mastercomment1/>
						<mastercomment2/>
						<mastercomment3/>
						<mastercomment4/>
					</comments>
					<file id="C0077 2"/>
					<filter>
						<effect>
							<name>Audio Levels</name>
							<effectid>audiolevels</effectid>
							<effectcategory>audiolevels</effectcategory>
							<effecttype>audiolevels</effecttype>
							<mediatype>audio</mediatype>
							<parameter>
								<name>Level</name>
								<parameterid>level</parameterid>
								<valuemin>0</valuemin>
								<valuemax>3.98109</valuemax>
								<value>1</value>
							</parameter>
						</effect>
					</filter>
					<filter>
						<effect>
							<name>Audio Pan</name>
							<effectid>audiopan</effectid>
							<effectcategory>audiopan</effectcategory>
							<effecttype>audiopan</effecttype>
							<mediatype>audio</mediatype>
							<parameter>
								<name>Pan</name>
								<parameterid>pan</parameterid>
								<valuemin>-1</valuemin>
								<valuemax>1</valuemax>
								<value>0</value>
							</parameter>
						</effect>
					</filter>
					<sourcetrack>
						<mediatype>audio</mediatype>
						<trackindex>1</trackindex>
					</sourcetrack>
					<link>
						<linkclipref>C0077 5</linkclipref>
						<mediatype>video</mediatype>
						<trackindex>1</trackindex>
						<clipindex>103</clipindex>
					</link>
					<link>
						<linkclipref>C0077 6</linkclipref>
						<mediatype>audio</mediatype>
						<trackindex>1</trackindex>
						<clipindex>128</clipindex>
					</link>
				</clipitem>
				<clipitem id="C0065 3">
					<name>C0065</name>
					<duration>3225</duration>
					<rate>
						<ntsc>FALSE</ntsc>
						<timebase>25</timebase>
					</rate>
					<in>2034</in>
					<out>2147</out>
					<start>13879</start>
					<end>-1</end>
					<subframeoffset>0</subframeoffset>
					<masterclipid>C0065 1</masterclipid>
					<logginginfo>
						<scene/>
						<shottake/>
						<lognote/>
						<good>FALSE</good>
					</logginginfo>
					<labels>
						<label2/>
					</labels>
					<comments>
						<mastercomment1/>
						<mastercomment2/>
						<mastercomment3/>
						<mastercomment4/>
					</comments>
					<file id="C0065 2"/>
					<filter>
						<effect>
							<name>Audio Levels</name>
							<effectid>audiolevels</effectid>
							<effectcategory>audiolevels</effectcategory>
							<effecttype>audiolevels</effecttype>
							<mediatype>audio</mediatype>
							<parameter>
								<name>Level</name>
								<parameterid>level</parameterid>
								<valuemin>0</valuemin>
								<valuemax>3.98109</valuemax>
								<value>1</value>
							</parameter>
						</effect>
					</filter>
					<filter>
						<effect>
							<name>Audio Pan</name>
							<effectid>audiopan</effectid>
							<effectcategory>audiopan</effectcategory>
							<effecttype>audiopan</effecttype>
							<mediatype>audio</mediatype>
							<parameter>
								<name>Pan</name>
								<parameterid>pan</parameterid>
								<valuemin>-1</valuemin>
								<valuemax>1</valuemax>
								<value>0</value>
							</parameter>
						</effect>
					</filter>
					<sourcetrack>
						<mediatype>audio</mediatype>
						<trackindex>1</trackindex>
					</sourcetrack>
					<link>
						<linkclipref>C0065 3</linkclipref>
						<mediatype>audio</mediatype>
						<trackindex>1</trackindex>
						<clipindex>129</clipindex>
					</link>
					<link>
						<linkclipref>C0065 4</linkclipref>
						<mediatype>audio</mediatype>
						<trackindex>2</trackindex>
						<clipindex>82</clipindex>
					</link>
				</clipitem>
				<transitionitem id="1681213024 ">
					<rate>
						<ntsc>FALSE</ntsc>
						<timebase>25</timebase>
					</rate>
					<start>13982</start>
					<end>13992</end>
					<alignment>center</alignment>
					<effect>
						<name>Cross Fade (+3dB)</name>
						<effecttype>transition</effecttype>
						<mediatype>audio</mediatype>
					</effect>
				</transitionitem>
				<clipitem id="C0080 3">
					<name>C0080</name>
					<duration>962</duration>
					<rate>
						<ntsc>FALSE</ntsc>
						<timebase>25</timebase>
					</rate>
					<in>195</in>
					<out>325</out>
					<start>-1</start>
					<end>14112</end>
					<subframeoffset>0</subframeoffset>
					<masterclipid>C0080 1</masterclipid>
					<logginginfo>
						<scene/>
						<shottake/>
						<lognote/>
						<good>FALSE</good>
					</logginginfo>
					<labels>
						<label2/>
					</labels>
					<comments>
						<mastercomment1/>
						<mastercomment2/>
						<mastercomment3/>
						<mastercomment4/>
					</comments>
					<file id="C0080 2"/>
					<filter>
						<effect>
							<name>Audio Levels</name>
							<effectid>audiolevels</effectid>
							<effectcategory>audiolevels</effectcategory>
							<effecttype>audiolevels</effecttype>
							<mediatype>audio</mediatype>
							<parameter>
								<name>Level</name>
								<parameterid>level</parameterid>
								<valuemin>0</valuemin>
								<valuemax>3.98109</valuemax>
								<value>1</value>
							</parameter>
						</effect>
					</filter>
					<filter>
						<effect>
							<name>Audio Pan</name>
							<effectid>audiopan</effectid>
							<effectcategory>audiopan</effectcategory>
							<effecttype>audiopan</effecttype>
							<mediatype>audio</mediatype>
							<parameter>
								<name>Pan</name>
								<parameterid>pan</parameterid>
								<valuemin>-1</valuemin>
								<valuemax>1</valuemax>
								<value>0</value>
							</parameter>
						</effect>
					</filter>
					<sourcetrack>
						<mediatype>audio</mediatype>
						<trackindex>1</trackindex>
					</sourcetrack>
					<link>
						<linkclipref>C0080 </linkclipref>
						<mediatype>video</mediatype>
						<trackindex>1</trackindex>
						<clipindex>105</clipindex>
					</link>
					<link>
						<linkclipref>C0080 3</linkclipref>
						<mediatype>audio</mediatype>
						<trackindex>1</trackindex>
						<clipindex>131</clipindex>
					</link>
				</clipitem>
				<clipitem id="C0054 3">
					<name>C0054</name>
					<duration>3304</duration>
					<rate>
						<ntsc>FALSE</ntsc>
						<timebase>25</timebase>
					</rate>
					<in>2534</in>
					<out>2629</out>
					<start>14112</start>
					<end>14207</end>
					<subframeoffset>0</subframeoffset>
					<masterclipid>C0054 1</masterclipid>
					<logginginfo>
						<scene/>
						<shottake/>
						<lognote/>
						<good>FALSE</good>
					</logginginfo>
					<labels>
						<label2/>
					</labels>
					<comments>
						<mastercomment1/>
						<mastercomment2/>
						<mastercomment3/>
						<mastercomment4/>
					</comments>
					<file id="C0054 2"/>
					<filter>
						<effect>
							<name>Audio Levels</name>
							<effectid>audiolevels</effectid>
							<effectcategory>audiolevels</effectcategory>
							<effecttype>audiolevels</effecttype>
							<mediatype>audio</mediatype>
							<parameter>
								<name>Level</name>
								<parameterid>level</parameterid>
								<valuemin>0</valuemin>
								<valuemax>3.98109</valuemax>
								<value>1</value>
							</parameter>
						</effect>
					</filter>
					<filter>
						<effect>
							<name>Audio Pan</name>
							<effectid>audiopan</effectid>
							<effectcategory>audiopan</effectcategory>
							<effecttype>audiopan</effecttype>
							<mediatype>audio</mediatype>
							<parameter>
								<name>Pan</name>
								<parameterid>pan</parameterid>
								<valuemin>-1</valuemin>
								<valuemax>1</valuemax>
								<value>0</value>
							</parameter>
						</effect>
					</filter>
					<sourcetrack>
						<mediatype>audio</mediatype>
						<trackindex>1</trackindex>
					</sourcetrack>
					<link>
						<linkclipref>C0054 </linkclipref>
						<mediatype>video</mediatype>
						<trackindex>1</trackindex>
						<clipindex>106</clipindex>
					</link>
					<link>
						<linkclipref>C0054 3</linkclipref>
						<mediatype>audio</mediatype>
						<trackindex>1</trackindex>
						<clipindex>132</clipindex>
					</link>
					<link>
						<linkclipref>C0054 4</linkclipref>
						<mediatype>audio</mediatype>
						<trackindex>2</trackindex>
						<clipindex>84</clipindex>
					</link>
				</clipitem>
				<clipitem id="C0080 5">
					<name>C0080</name>
					<duration>962</duration>
					<rate>
						<ntsc>FALSE</ntsc>
						<timebase>25</timebase>
					</rate>
					<in>439</in>
					<out>521</out>
					<start>14207</start>
					<end>14289</end>
					<subframeoffset>0</subframeoffset>
					<masterclipid>C0080 1</masterclipid>
					<logginginfo>
						<scene/>
						<shottake/>
						<lognote/>
						<good>FALSE</good>
					</logginginfo>
					<labels>
						<label2/>
					</labels>
					<comments>
						<mastercomment1/>
						<mastercomment2/>
						<mastercomment3/>
						<mastercomment4/>
					</comments>
					<file id="C0080 2"/>
					<filter>
						<effect>
							<name>Audio Levels</name>
							<effectid>audiolevels</effectid>
							<effectcategory>audiolevels</effectcategory>
							<effecttype>audiolevels</effecttype>
							<mediatype>audio</mediatype>
							<parameter>
								<name>Level</name>
								<parameterid>level</parameterid>
								<valuemin>0</valuemin>
								<valuemax>3.98109</valuemax>
								<value>1</value>
							</parameter>
						</effect>
					</filter>
					<filter>
						<effect>
							<name>Audio Pan</name>
							<effectid>audiopan</effectid>
							<effectcategory>audiopan</effectcategory>
							<effecttype>audiopan</effecttype>
							<mediatype>audio</mediatype>
							<parameter>
								<name>Pan</name>
								<parameterid>pan</parameterid>
								<valuemin>-1</valuemin>
								<valuemax>1</valuemax>
								<value>0</value>
							</parameter>
						</effect>
					</filter>
					<sourcetrack>
						<mediatype>audio</mediatype>
						<trackindex>1</trackindex>
					</sourcetrack>
					<link>
						<linkclipref>C0080 4</linkclipref>
						<mediatype>video</mediatype>
						<trackindex>1</trackindex>
						<clipindex>107</clipindex>
					</link>
					<link>
						<linkclipref>C0080 5</linkclipref>
						<mediatype>audio</mediatype>
						<trackindex>1</trackindex>
						<clipindex>133</clipindex>
					</link>
					<link>
						<linkclipref>C0080 6</linkclipref>
						<mediatype>audio</mediatype>
						<trackindex>2</trackindex>
						<clipindex>85</clipindex>
					</link>
				</clipitem>
				<clipitem id="C0077 8">
					<name>C0077</name>
					<duration>2591</duration>
					<rate>
						<ntsc>FALSE</ntsc>
						<timebase>25</timebase>
					</rate>
					<in>1849</in>
					<out>2058</out>
					<start>14289</start>
					<end>14498</end>
					<subframeoffset>0</subframeoffset>
					<masterclipid>C0077 1</masterclipid>
					<logginginfo>
						<scene/>
						<shottake/>
						<lognote/>
						<good>FALSE</good>
					</logginginfo>
					<labels>
						<label2/>
					</labels>
					<comments>
						<mastercomment1/>
						<mastercomment2/>
						<mastercomment3/>
						<mastercomment4/>
					</comments>
					<file id="C0077 2"/>
					<filter>
						<effect>
							<name>Audio Levels</name>
							<effectid>audiolevels</effectid>
							<effectcategory>audiolevels</effectcategory>
							<effecttype>audiolevels</effecttype>
							<mediatype>audio</mediatype>
							<parameter>
								<name>Level</name>
								<parameterid>level</parameterid>
								<valuemin>0</valuemin>
								<valuemax>3.98109</valuemax>
								<value>1</value>
							</parameter>
						</effect>
					</filter>
					<filter>
						<effect>
							<name>Audio Pan</name>
							<effectid>audiopan</effectid>
							<effectcategory>audiopan</effectcategory>
							<effecttype>audiopan</effecttype>
							<mediatype>audio</mediatype>
							<parameter>
								<name>Pan</name>
								<parameterid>pan</parameterid>
								<valuemin>-1</valuemin>
								<valuemax>1</valuemax>
								<value>0</value>
							</parameter>
						</effect>
					</filter>
					<sourcetrack>
						<mediatype>audio</mediatype>
						<trackindex>1</trackindex>
					</sourcetrack>
					<link>
						<linkclipref>C0077 7</linkclipref>
						<mediatype>video</mediatype>
						<trackindex>2</trackindex>
						<clipindex>33</clipindex>
					</link>
					<link>
						<linkclipref>C0077 8</linkclipref>
						<mediatype>audio</mediatype>
						<trackindex>1</trackindex>
						<clipindex>134</clipindex>
					</link>
					<link>
						<linkclipref>C0077 9</linkclipref>
						<mediatype>audio</mediatype>
						<trackindex>2</trackindex>
						<clipindex>86</clipindex>
					</link>
				</clipitem>
				<clipitem id="C0055 3">
					<name>C0055</name>
					<duration>1362</duration>
					<rate>
						<ntsc>FALSE</ntsc>
						<timebase>25</timebase>
					</rate>
					<in>974</in>
					<out>1054</out>
					<start>14498</start>
					<end>-1</end>
					<subframeoffset>0</subframeoffset>
					<masterclipid>C0055 1</masterclipid>
					<logginginfo>
						<scene/>
						<shottake/>
						<lognote/>
						<good>FALSE</good>
					</logginginfo>
					<labels>
						<label2/>
					</labels>
					<comments>
						<mastercomment1/>
						<mastercomment2/>
						<mastercomment3/>
						<mastercomment4/>
					</comments>
					<file id="C0055 2"/>
					<filter>
						<effect>
							<name>Audio Levels</name>
							<effectid>audiolevels</effectid>
							<effectcategory>audiolevels</effectcategory>
							<effecttype>audiolevels</effecttype>
							<mediatype>audio</mediatype>
							<parameter>
								<name>Level</name>
								<parameterid>level</parameterid>
								<valuemin>0</valuemin>
								<valuemax>3.98109</valuemax>
								<value>1.41254</value>
							</parameter>
						</effect>
					</filter>
					<filter>
						<effect>
							<name>Audio Pan</name>
							<effectid>audiopan</effectid>
							<effectcategory>audiopan</effectcategory>
							<effecttype>audiopan</effecttype>
							<mediatype>audio</mediatype>
							<parameter>
								<name>Pan</name>
								<parameterid>pan</parameterid>
								<valuemin>-1</valuemin>
								<valuemax>1</valuemax>
								<value>0</value>
							</parameter>
						</effect>
					</filter>
					<sourcetrack>
						<mediatype>audio</mediatype>
						<trackindex>1</trackindex>
					</sourcetrack>
					<link>
						<linkclipref>C0055 </linkclipref>
						<mediatype>video</mediatype>
						<trackindex>1</trackindex>
						<clipindex>108</clipindex>
					</link>
					<link>
						<linkclipref>C0055 3</linkclipref>
						<mediatype>audio</mediatype>
						<trackindex>1</trackindex>
						<clipindex>135</clipindex>
					</link>
					<link>
						<linkclipref>C0055 4</linkclipref>
						<mediatype>audio</mediatype>
						<trackindex>2</trackindex>
						<clipindex>87</clipindex>
					</link>
				</clipitem>
				<transitionitem id="15">
					<rate>
						<ntsc>FALSE</ntsc>
						<timebase>25</timebase>
					</rate>
					<start>14570</start>
					<end>14578</end>
					<alignment>center</alignment>
					<effect>
						<name>Cross Fade (+3dB)</name>
						<effecttype>transition</effecttype>
						<mediatype>audio</mediatype>
					</effect>
				</transitionitem>
				<clipitem id="C0054 9">
					<name>C0054</name>
					<duration>3304</duration>
					<rate>
						<ntsc>FALSE</ntsc>
						<timebase>25</timebase>
					</rate>
					<in>332</in>
					<out>352</out>
					<start>-1</start>
					<end>-1</end>
					<subframeoffset>0</subframeoffset>
					<masterclipid>C0054 1</masterclipid>
					<logginginfo>
						<scene/>
						<shottake/>
						<lognote/>
						<good>FALSE</good>
					</logginginfo>
					<labels>
						<label2/>
					</labels>
					<comments>
						<mastercomment1/>
						<mastercomment2/>
						<mastercomment3/>
						<mastercomment4/>
					</comments>
					<file id="C0054 2"/>
					<filter>
						<effect>
							<name>Audio Levels</name>
							<effectid>audiolevels</effectid>
							<effectcategory>audiolevels</effectcategory>
							<effecttype>audiolevels</effecttype>
							<mediatype>audio</mediatype>
							<parameter>
								<name>Level</name>
								<parameterid>level</parameterid>
								<valuemin>0</valuemin>
								<valuemax>3.98109</valuemax>
								<value>1.41254</value>
							</parameter>
						</effect>
					</filter>
					<filter>
						<effect>
							<name>Audio Pan</name>
							<effectid>audiopan</effectid>
							<effectcategory>audiopan</effectcategory>
							<effecttype>audiopan</effecttype>
							<mediatype>audio</mediatype>
							<parameter>
								<name>Pan</name>
								<parameterid>pan</parameterid>
								<valuemin>-1</valuemin>
								<valuemax>1</valuemax>
								<value>0</value>
							</parameter>
						</effect>
					</filter>
					<sourcetrack>
						<mediatype>audio</mediatype>
						<trackindex>1</trackindex>
					</sourcetrack>
				</clipitem>
				<transitionitem id="16">
					<rate>
						<ntsc>FALSE</ntsc>
						<timebase>25</timebase>
					</rate>
					<start>14587</start>
					<end>14590</end>
					<alignment>center</alignment>
					<effect>
						<name>Cross Fade (+3dB)</name>
						<effecttype>transition</effecttype>
						<mediatype>audio</mediatype>
					</effect>
				</transitionitem>
				<clipitem id="C0054 10">
					<name>C0054</name>
					<duration>3304</duration>
					<rate>
						<ntsc>FALSE</ntsc>
						<timebase>25</timebase>
					</rate>
					<in>1771</in>
					<out>1793</out>
					<start>-1</start>
					<end>-1</end>
					<subframeoffset>0</subframeoffset>
					<masterclipid>C0054 1</masterclipid>
					<logginginfo>
						<scene/>
						<shottake/>
						<lognote/>
						<good>FALSE</good>
					</logginginfo>
					<labels>
						<label2/>
					</labels>
					<comments>
						<mastercomment1/>
						<mastercomment2/>
						<mastercomment3/>
						<mastercomment4/>
					</comments>
					<file id="C0054 2"/>
					<filter>
						<effect>
							<name>Audio Levels</name>
							<effectid>audiolevels</effectid>
							<effectcategory>audiolevels</effectcategory>
							<effecttype>audiolevels</effecttype>
							<mediatype>audio</mediatype>
							<parameter>
								<name>Level</name>
								<parameterid>level</parameterid>
								<valuemin>0</valuemin>
								<valuemax>3.98109</valuemax>
								<value>1.41254</value>
							</parameter>
						</effect>
					</filter>
					<filter>
						<effect>
							<name>Audio Pan</name>
							<effectid>audiopan</effectid>
							<effectcategory>audiopan</effectcategory>
							<effecttype>audiopan</effecttype>
							<mediatype>audio</mediatype>
							<parameter>
								<name>Pan</name>
								<parameterid>pan</parameterid>
								<valuemin>-1</valuemin>
								<valuemax>1</valuemax>
								<value>0</value>
							</parameter>
						</effect>
					</filter>
					<sourcetrack>
						<mediatype>audio</mediatype>
						<trackindex>1</trackindex>
					</sourcetrack>
				</clipitem>
				<transitionitem id="17">
					<rate>
						<ntsc>FALSE</ntsc>
						<timebase>25</timebase>
					</rate>
					<start>14603</start>
					<end>14609</end>
					<alignment>end</alignment>
					<effect>
						<name>Cross Fade (+3dB)</name>
						<effecttype>transition</effecttype>
						<mediatype>audio</mediatype>
					</effect>
				</transitionitem>
				<clipitem id="C0054 11">
					<name>C0054</name>
					<duration>3304</duration>
					<rate>
						<ntsc>FALSE</ntsc>
						<timebase>25</timebase>
					</rate>
					<in>312</in>
					<out>436</out>
					<start>-1</start>
					<end>-1</end>
					<subframeoffset>0</subframeoffset>
					<masterclipid>C0054 1</masterclipid>
					<logginginfo>
						<scene/>
						<shottake/>
						<lognote/>
						<good>FALSE</good>
					</logginginfo>
					<labels>
						<label2/>
					</labels>
					<comments>
						<mastercomment1/>
						<mastercomment2/>
						<mastercomment3/>
						<mastercomment4/>
					</comments>
					<file id="C0054 2"/>
					<filter>
						<effect>
							<name>Audio Levels</name>
							<effectid>audiolevels</effectid>
							<effectcategory>audiolevels</effectcategory>
							<effecttype>audiolevels</effecttype>
							<mediatype>audio</mediatype>
							<parameter>
								<name>Level</name>
								<parameterid>level</parameterid>
								<valuemin>0</valuemin>
								<valuemax>3.98109</valuemax>
								<value>1.41254</value>
							</parameter>
						</effect>
					</filter>
					<filter>
						<effect>
							<name>Audio Pan</name>
							<effectid>audiopan</effectid>
							<effectcategory>audiopan</effectcategory>
							<effecttype>audiopan</effecttype>
							<mediatype>audio</mediatype>
							<parameter>
								<name>Pan</name>
								<parameterid>pan</parameterid>
								<valuemin>-1</valuemin>
								<valuemax>1</valuemax>
								<value>0</value>
							</parameter>
						</effect>
					</filter>
					<sourcetrack>
						<mediatype>audio</mediatype>
						<trackindex>1</trackindex>
					</sourcetrack>
				</clipitem>
				<transitionitem id="18">
					<rate>
						<ntsc>FALSE</ntsc>
						<timebase>25</timebase>
					</rate>
					<start>14720</start>
					<end>14727</end>
					<alignment>start</alignment>
					<effect>
						<name>Cross Fade (+3dB)</name>
						<effecttype>transition</effecttype>
						<mediatype>audio</mediatype>
					</effect>
				</transitionitem>
				<clipitem id="C0054 12">
					<name>C0054</name>
					<duration>3304</duration>
					<rate>
						<ntsc>FALSE</ntsc>
						<timebase>25</timebase>
					</rate>
					<in>3136</in>
					<out>3177</out>
					<start>-1</start>
					<end>14761</end>
					<subframeoffset>0</subframeoffset>
					<masterclipid>C0054 1</masterclipid>
					<logginginfo>
						<scene/>
						<shottake/>
						<lognote/>
						<good>FALSE</good>
					</logginginfo>
					<labels>
						<label2/>
					</labels>
					<comments>
						<mastercomment1/>
						<mastercomment2/>
						<mastercomment3/>
						<mastercomment4/>
					</comments>
					<file id="C0054 2"/>
					<filter>
						<effect>
							<name>Audio Levels</name>
							<effectid>audiolevels</effectid>
							<effectcategory>audiolevels</effectcategory>
							<effecttype>audiolevels</effecttype>
							<mediatype>audio</mediatype>
							<parameter>
								<name>Level</name>
								<parameterid>level</parameterid>
								<valuemin>0</valuemin>
								<valuemax>3.98109</valuemax>
								<value>1.41254</value>
							</parameter>
						</effect>
					</filter>
					<filter>
						<effect>
							<name>Audio Pan</name>
							<effectid>audiopan</effectid>
							<effectcategory>audiopan</effectcategory>
							<effecttype>audiopan</effecttype>
							<mediatype>audio</mediatype>
							<parameter>
								<name>Pan</name>
								<parameterid>pan</parameterid>
								<valuemin>-1</valuemin>
								<valuemax>1</valuemax>
								<value>0</value>
							</parameter>
						</effect>
					</filter>
					<sourcetrack>
						<mediatype>audio</mediatype>
						<trackindex>1</trackindex>
					</sourcetrack>
				</clipitem>
				<clipitem id="Kråkeklubben Pgm 14 Ny voice Mari.WAV">
					<name>Kråkeklubben Pgm 14 Ny voice Mari.WAV</name>
					<duration>8963</duration>
					<rate>
						<ntsc>FALSE</ntsc>
						<timebase>25</timebase>
					</rate>
					<in>8613</in>
					<out>8642</out>
					<start>14886</start>
					<end>14915</end>
					<subframeoffset>0</subframeoffset>
					<enabled>TRUE</enabled>
					<masterclipid>Kråkeklubben Pgm 14 Ny voice Mari.WAV1</masterclipid>
					<logginginfo>
						<scene/>
						<shottake/>
						<lognote/>
						<good>FALSE</good>
					</logginginfo>
					<labels>
						<label2/>
					</labels>
					<comments>
						<mastercomment1/>
						<mastercomment2/>
						<mastercomment3/>
						<mastercomment4/>
					</comments>
					<file id="Kråkeklubben Pgm 14 Ny voice Mari">
						<name>Kråkeklubben Pgm 14 Ny voice Mari.WAV</name>
						<pathurl>file://localhost/Volumes/Askepott/Prosjekter/DNPR637010_Kra%CC%8Akeklubben_TEM_011212/Lyd/Kra%CC%8Akeklubben%20Pgm%2014%20Ny%20voice%20Mari.WAV</pathurl>
						<rate>
							<timebase>25</timebase>
						</rate>
						<duration>8963</duration>
						<media>
							<audio>
								<rate>
									<timebase>48000</timebase>
								</rate>
								<trackcount>2</trackcount>
								<samplecharacteristics>
									<depth>16</depth>
								</samplecharacteristics>
							</audio>
						</media>
					</file>
					<filter>
						<effect>
							<name>Audio Levels</name>
							<effectid>audiolevels</effectid>
							<effectcategory>audiolevels</effectcategory>
							<effecttype>audiolevels</effecttype>
							<mediatype>audio</mediatype>
							<parameter>
								<name>Level</name>
								<parameterid>level</parameterid>
								<valuemin>0</valuemin>
								<valuemax>3.98109</valuemax>
								<keyframe>
									<when>5084.85</when>
									<value>2.23872</value>
								</keyframe>
								<interpolation>
									<name>FCPCurve</name>
								</interpolation>
								<value>3.98107</value>
							</parameter>
						</effect>
					</filter>
					<filter>
						<effect>
							<name>Audio Pan</name>
							<effectid>audiopan</effectid>
							<effectcategory>audiopan</effectcategory>
							<effecttype>audiopan</effecttype>
							<mediatype>audio</mediatype>
							<parameter>
								<name>Pan</name>
								<parameterid>pan</parameterid>
								<valuemin>-1</valuemin>
								<valuemax>1</valuemax>
								<value>0</value>
							</parameter>
						</effect>
					</filter>
					<sourcetrack>
						<mediatype>audio</mediatype>
						<trackindex>1</trackindex>
					</sourcetrack>
					<link>
						<linkclipref>Kråkeklubben Pgm 14 Ny voice Mari.WAV</linkclipref>
						<mediatype>audio</mediatype>
						<trackindex>1</trackindex>
						<clipindex>144</clipindex>
						<groupindex>1</groupindex>
					</link>
					<link>
						<linkclipref>Kråkeklubben Pgm 14 Ny voice Mari.WAV2</linkclipref>
						<mediatype>audio</mediatype>
						<trackindex>2</trackindex>
						<clipindex>89</clipindex>
						<groupindex>1</groupindex>
					</link>
				</clipitem>
				<clipitem id="Kråkeklubben Pgm 14 Ny voice Mari.WAV3">
					<name>Kråkeklubben Pgm 14 Ny voice Mari.WAV</name>
					<duration>8963</duration>
					<rate>
						<ntsc>FALSE</ntsc>
						<timebase>25</timebase>
					</rate>
					<in>8642</in>
					<out>8680</out>
					<start>14920</start>
					<end>14958</end>
					<subframeoffset>0</subframeoffset>
					<masterclipid>Kråkeklubben Pgm 14 Ny voice Mari.WAV1</masterclipid>
					<logginginfo>
						<scene/>
						<shottake/>
						<lognote/>
						<good>FALSE</good>
					</logginginfo>
					<labels>
						<label2/>
					</labels>
					<comments>
						<mastercomment1/>
						<mastercomment2/>
						<mastercomment3/>
						<mastercomment4/>
					</comments>
					<file id="Kråkeklubben Pgm 14 Ny voice Mari"/>
					<filter>
						<effect>
							<name>Audio Levels</name>
							<effectid>audiolevels</effectid>
							<effectcategory>audiolevels</effectcategory>
							<effecttype>audiolevels</effecttype>
							<mediatype>audio</mediatype>
							<parameter>
								<name>Level</name>
								<parameterid>level</parameterid>
								<valuemin>0</valuemin>
								<valuemax>3.98109</valuemax>
								<keyframe>
									<when>5084.85</when>
									<value>2.23872</value>
								</keyframe>
								<interpolation>
									<name>FCPCurve</name>
								</interpolation>
								<value>3.98107</value>
							</parameter>
						</effect>
					</filter>
					<filter>
						<effect>
							<name>Audio Pan</name>
							<effectid>audiopan</effectid>
							<effectcategory>audiopan</effectcategory>
							<effecttype>audiopan</effecttype>
							<mediatype>audio</mediatype>
							<parameter>
								<name>Pan</name>
								<parameterid>pan</parameterid>
								<valuemin>-1</valuemin>
								<valuemax>1</valuemax>
								<value>0</value>
							</parameter>
						</effect>
					</filter>
					<sourcetrack>
						<mediatype>audio</mediatype>
						<trackindex>1</trackindex>
					</sourcetrack>
					<link>
						<linkclipref>Kråkeklubben Pgm 14 Ny voice Mari.WAV3</linkclipref>
						<mediatype>audio</mediatype>
						<trackindex>1</trackindex>
						<clipindex>145</clipindex>
						<groupindex>1</groupindex>
					</link>
					<link>
						<linkclipref>Kråkeklubben Pgm 14 Ny voice Mari.WAV4</linkclipref>
						<mediatype>audio</mediatype>
						<trackindex>2</trackindex>
						<clipindex>90</clipindex>
						<groupindex>1</groupindex>
					</link>
				</clipitem>
				<clipitem id="C0025 4">
					<name>C0025</name>
					<duration>745</duration>
					<rate>
						<ntsc>FALSE</ntsc>
						<timebase>25</timebase>
					</rate>
					<in>164</in>
					<out>335</out>
					<start>14973</start>
					<end>15144</end>
					<subframeoffset>0</subframeoffset>
					<masterclipid>C0025 5</masterclipid>
					<logginginfo>
						<scene/>
						<shottake/>
						<lognote/>
						<good>FALSE</good>
					</logginginfo>
					<labels>
						<label2/>
					</labels>
					<comments>
						<mastercomment1/>
						<mastercomment2/>
						<mastercomment3/>
						<mastercomment4/>
					</comments>
					<file id="C0025 6">
						<name>C0025.mov</name>
						<pathurl>file://localhost/Volumes/Askepott/Prosjekter/DNPR637010_Kra%CC%8Akeklubben_TEM_011212/Video/Tords%20Garasje/SESONG%203/Flue/XDCAM/C0025.mov</pathurl>
						<rate>
							<timebase>25</timebase>
						</rate>
						<duration>745</duration>
						<timecode>
							<rate>
								<timebase>25</timebase>
							</rate>
							<string>12:33:58:03</string>
							<frame>1130953</frame>
							<displayformat>NDF</displayformat>
							<source>source</source>
							<reel>
								<name>XDCAM 20120309_113707</name>
							</reel>
						</timecode>
						<media>
							<video>
								<duration>745</duration>
								<samplecharacteristics>
									<width>1920</width>
									<height>1080</height>
								</samplecharacteristics>
							</video>
							<audio>
								<rate>
									<timebase>48000</timebase>
								</rate>
								<trackcount>1</trackcount>
								<channeldescription>8 Channels</channeldescription>
								<samplecharacteristics>
									<depth>24</depth>
								</samplecharacteristics>
							</audio>
						</media>
					</file>
					<filter>
						<effect>
							<name>Audio Levels</name>
							<effectid>audiolevels</effectid>
							<effectcategory>audiolevels</effectcategory>
							<effecttype>audiolevels</effecttype>
							<mediatype>audio</mediatype>
							<parameter>
								<name>Level</name>
								<parameterid>level</parameterid>
								<valuemin>0</valuemin>
								<valuemax>3.98109</valuemax>
								<keyframe>
									<when>176.411</when>
									<value>0</value>
								</keyframe>
								<keyframe>
									<when>192.545</when>
									<value>1.58489</value>
								</keyframe>
								<interpolation>
									<name>FCPCurve</name>
								</interpolation>
								<value>1</value>
							</parameter>
						</effect>
					</filter>
					<filter>
						<effect>
							<name>Audio Pan</name>
							<effectid>audiopan</effectid>
							<effectcategory>audiopan</effectcategory>
							<effecttype>audiopan</effecttype>
							<mediatype>audio</mediatype>
							<parameter>
								<name>Pan</name>
								<parameterid>pan</parameterid>
								<valuemin>-1</valuemin>
								<valuemax>1</valuemax>
								<value>0</value>
							</parameter>
						</effect>
					</filter>
					<sourcetrack>
						<mediatype>audio</mediatype>
						<trackindex>1</trackindex>
					</sourcetrack>
				</clipitem>
				<clipitem id="C0025 7">
					<name>C0025</name>
					<duration>745</duration>
					<rate>
						<ntsc>FALSE</ntsc>
						<timebase>25</timebase>
					</rate>
					<in>390</in>
					<out>467</out>
					<start>15144</start>
					<end>15221</end>
					<subframeoffset>0</subframeoffset>
					<masterclipid>C0025 8</masterclipid>
					<logginginfo>
						<scene/>
						<shottake/>
						<lognote/>
						<good>FALSE</good>
					</logginginfo>
					<labels>
						<label2/>
					</labels>
					<comments>
						<mastercomment1/>
						<mastercomment2/>
						<mastercomment3/>
						<mastercomment4/>
					</comments>
					<file id="C0025 6"/>
					<filter>
						<effect>
							<name>Audio Levels</name>
							<effectid>audiolevels</effectid>
							<effectcategory>audiolevels</effectcategory>
							<effecttype>audiolevels</effecttype>
							<mediatype>audio</mediatype>
							<parameter>
								<name>Level</name>
								<parameterid>level</parameterid>
								<valuemin>0</valuemin>
								<valuemax>3.98109</valuemax>
								<value>1.58489</value>
							</parameter>
						</effect>
					</filter>
					<filter>
						<effect>
							<name>Audio Pan</name>
							<effectid>audiopan</effectid>
							<effectcategory>audiopan</effectcategory>
							<effecttype>audiopan</effecttype>
							<mediatype>audio</mediatype>
							<parameter>
								<name>Pan</name>
								<parameterid>pan</parameterid>
								<valuemin>-1</valuemin>
								<valuemax>1</valuemax>
								<value>0</value>
							</parameter>
						</effect>
					</filter>
					<sourcetrack>
						<mediatype>audio</mediatype>
						<trackindex>1</trackindex>
					</sourcetrack>
				</clipitem>
				<clipitem id="C0027 14">
					<name>C0027</name>
					<duration>1851</duration>
					<rate>
						<ntsc>FALSE</ntsc>
						<timebase>25</timebase>
					</rate>
					<in>1634</in>
					<out>1771</out>
					<start>15221</start>
					<end>15358</end>
					<subframeoffset>0</subframeoffset>
					<masterclipid>C0027 15</masterclipid>
					<logginginfo>
						<scene/>
						<shottake/>
						<lognote/>
						<good>FALSE</good>
					</logginginfo>
					<labels>
						<label2/>
					</labels>
					<comments>
						<mastercomment1/>
						<mastercomment2/>
						<mastercomment3/>
						<mastercomment4/>
					</comments>
					<file id="C0027 16">
						<name>C0027.mov</name>
						<pathurl>file://localhost/Volumes/Askepott/Prosjekter/DNPR637010_Kra%CC%8Akeklubben_TEM_011212/Video/Tords%20Garasje/SESONG%203/Flue/XDCAM/C0027.mov</pathurl>
						<rate>
							<timebase>25</timebase>
						</rate>
						<duration>1851</duration>
						<timecode>
							<rate>
								<timebase>25</timebase>
							</rate>
							<string>12:34:39:23</string>
							<frame>1131998</frame>
							<displayformat>NDF</displayformat>
							<source>source</source>
							<reel>
								<name>XDCAM 20120309_113707</name>
							</reel>
						</timecode>
						<media>
							<video>
								<duration>1851</duration>
								<samplecharacteristics>
									<width>1920</width>
									<height>1080</height>
								</samplecharacteristics>
							</video>
							<audio>
								<rate>
									<timebase>48000</timebase>
								</rate>
								<trackcount>1</trackcount>
								<channeldescription>8 Channels</channeldescription>
								<samplecharacteristics>
									<depth>24</depth>
								</samplecharacteristics>
							</audio>
						</media>
					</file>
					<filter>
						<effect>
							<name>Audio Levels</name>
							<effectid>audiolevels</effectid>
							<effectcategory>audiolevels</effectcategory>
							<effecttype>audiolevels</effecttype>
							<mediatype>audio</mediatype>
							<parameter>
								<name>Level</name>
								<parameterid>level</parameterid>
								<valuemin>0</valuemin>
								<valuemax>3.98109</valuemax>
								<value>1</value>
							</parameter>
						</effect>
					</filter>
					<filter>
						<effect>
							<name>Audio Pan</name>
							<effectid>audiopan</effectid>
							<effectcategory>audiopan</effectcategory>
							<effecttype>audiopan</effecttype>
							<mediatype>audio</mediatype>
							<parameter>
								<name>Pan</name>
								<parameterid>pan</parameterid>
								<valuemin>-1</valuemin>
								<valuemax>1</valuemax>
								<value>0</value>
							</parameter>
						</effect>
					</filter>
					<sourcetrack>
						<mediatype>audio</mediatype>
						<trackindex>1</trackindex>
					</sourcetrack>
				</clipitem>
				<clipitem id="C0032 6">
					<name>C0032</name>
					<duration>598</duration>
					<rate>
						<ntsc>FALSE</ntsc>
						<timebase>25</timebase>
					</rate>
					<in>163</in>
					<out>459</out>
					<start>15358</start>
					<end>15654</end>
					<subframeoffset>0</subframeoffset>
					<masterclipid>C0032 7</masterclipid>
					<logginginfo>
						<scene/>
						<shottake/>
						<lognote/>
						<good>FALSE</good>
					</logginginfo>
					<labels>
						<label2/>
					</labels>
					<comments>
						<mastercomment1/>
						<mastercomment2/>
						<mastercomment3/>
						<mastercomment4/>
					</comments>
					<file id="C0032 8">
						<name>C0032.mov</name>
						<pathurl>file://localhost/Volumes/Askepott/Prosjekter/DNPR637010_Kra%CC%8Akeklubben_TEM_011212/Video/Tords%20Garasje/SESONG%203/Flue/XDCAM/C0032.mov</pathurl>
						<rate>
							<timebase>25</timebase>
						</rate>
						<duration>598</duration>
						<timecode>
							<rate>
								<timebase>25</timebase>
							</rate>
							<string>12:38:10:20</string>
							<frame>1137270</frame>
							<displayformat>NDF</displayformat>
							<source>source</source>
							<reel>
								<name>XDCAM 20120309_113707</name>
							</reel>
						</timecode>
						<media>
							<video>
								<duration>598</duration>
								<samplecharacteristics>
									<width>1920</width>
									<height>1080</height>
								</samplecharacteristics>
							</video>
							<audio>
								<rate>
									<timebase>48000</timebase>
								</rate>
								<trackcount>1</trackcount>
								<channeldescription>8 Channels</channeldescription>
								<samplecharacteristics>
									<depth>24</depth>
								</samplecharacteristics>
							</audio>
						</media>
					</file>
					<filter>
						<effect>
							<name>Audio Levels</name>
							<effectid>audiolevels</effectid>
							<effectcategory>audiolevels</effectcategory>
							<effecttype>audiolevels</effecttype>
							<mediatype>audio</mediatype>
							<parameter>
								<name>Level</name>
								<parameterid>level</parameterid>
								<valuemin>0</valuemin>
								<valuemax>3.98109</valuemax>
								<keyframe>
									<when>204.929</when>
									<value>1</value>
								</keyframe>
								<keyframe>
									<when>321.589</when>
									<value>1.58489</value>
								</keyframe>
								<interpolation>
									<name>FCPCurve</name>
								</interpolation>
								<value>1</value>
							</parameter>
						</effect>
					</filter>
					<filter>
						<effect>
							<name>Audio Pan</name>
							<effectid>audiopan</effectid>
							<effectcategory>audiopan</effectcategory>
							<effecttype>audiopan</effecttype>
							<mediatype>audio</mediatype>
							<parameter>
								<name>Pan</name>
								<parameterid>pan</parameterid>
								<valuemin>-1</valuemin>
								<valuemax>1</valuemax>
								<value>0</value>
							</parameter>
						</effect>
					</filter>
					<sourcetrack>
						<mediatype>audio</mediatype>
						<trackindex>1</trackindex>
					</sourcetrack>
				</clipitem>
				<clipitem id="C0038 7">
					<name>C0038</name>
					<duration>495</duration>
					<rate>
						<ntsc>FALSE</ntsc>
						<timebase>25</timebase>
					</rate>
					<in>202</in>
					<out>273</out>
					<start>15669</start>
					<end>15740</end>
					<subframeoffset>0</subframeoffset>
					<masterclipid>C0038 8</masterclipid>
					<logginginfo>
						<scene/>
						<shottake/>
						<lognote/>
						<good>FALSE</good>
					</logginginfo>
					<labels>
						<label2/>
					</labels>
					<comments>
						<mastercomment1/>
						<mastercomment2/>
						<mastercomment3/>
						<mastercomment4/>
					</comments>
					<file id="C0038 9">
						<name>C0038.mov</name>
						<pathurl>file://localhost/Volumes/Askepott/Prosjekter/DNPR637010_Kra%CC%8Akeklubben_TEM_011212/Video/Tords%20Garasje/SESONG%203/Flue/XDCAM/C0038.mov</pathurl>
						<rate>
							<timebase>25</timebase>
						</rate>
						<duration>495</duration>
						<timecode>
							<rate>
								<timebase>25</timebase>
							</rate>
							<string>12:40:23:13</string>
							<frame>1140588</frame>
							<displayformat>NDF</displayformat>
							<source>source</source>
							<reel>
								<name>XDCAM 20120309_113707</name>
							</reel>
						</timecode>
						<media>
							<video>
								<duration>495</duration>
								<samplecharacteristics>
									<width>1920</width>
									<height>1080</height>
								</samplecharacteristics>
							</video>
							<audio>
								<rate>
									<timebase>48000</timebase>
								</rate>
								<trackcount>1</trackcount>
								<channeldescription>8 Channels</channeldescription>
								<samplecharacteristics>
									<depth>24</depth>
								</samplecharacteristics>
							</audio>
						</media>
					</file>
					<filter>
						<effect>
							<name>Audio Levels</name>
							<effectid>audiolevels</effectid>
							<effectcategory>audiolevels</effectcategory>
							<effecttype>audiolevels</effecttype>
							<mediatype>audio</mediatype>
							<parameter>
								<name>Level</name>
								<parameterid>level</parameterid>
								<valuemin>0</valuemin>
								<valuemax>3.98109</valuemax>
								<value>1</value>
							</parameter>
						</effect>
					</filter>
					<filter>
						<effect>
							<name>Audio Pan</name>
							<effectid>audiopan</effectid>
							<effectcategory>audiopan</effectcategory>
							<effecttype>audiopan</effecttype>
							<mediatype>audio</mediatype>
							<parameter>
								<name>Pan</name>
								<parameterid>pan</parameterid>
								<valuemin>-1</valuemin>
								<valuemax>1</valuemax>
								<value>0</value>
							</parameter>
						</effect>
					</filter>
					<sourcetrack>
						<mediatype>audio</mediatype>
						<trackindex>1</trackindex>
					</sourcetrack>
				</clipitem>
				<clipitem id="C0038 10">
					<name>C0038</name>
					<duration>495</duration>
					<rate>
						<ntsc>FALSE</ntsc>
						<timebase>25</timebase>
					</rate>
					<in>399</in>
					<out>447</out>
					<start>15740</start>
					<end>15788</end>
					<subframeoffset>0</subframeoffset>
					<masterclipid>C0038 11</masterclipid>
					<logginginfo>
						<scene/>
						<shottake/>
						<lognote/>
						<good>FALSE</good>
					</logginginfo>
					<labels>
						<label2/>
					</labels>
					<comments>
						<mastercomment1/>
						<mastercomment2/>
						<mastercomment3/>
						<mastercomment4/>
					</comments>
					<file id="C0038 9"/>
					<filter>
						<effect>
							<name>Audio Levels</name>
							<effectid>audiolevels</effectid>
							<effectcategory>audiolevels</effectcategory>
							<effecttype>audiolevels</effecttype>
							<mediatype>audio</mediatype>
							<parameter>
								<name>Level</name>
								<parameterid>level</parameterid>
								<valuemin>0</valuemin>
								<valuemax>3.98109</valuemax>
								<value>1.99526</value>
							</parameter>
						</effect>
					</filter>
					<filter>
						<effect>
							<name>Audio Pan</name>
							<effectid>audiopan</effectid>
							<effectcategory>audiopan</effectcategory>
							<effecttype>audiopan</effecttype>
							<mediatype>audio</mediatype>
							<parameter>
								<name>Pan</name>
								<parameterid>pan</parameterid>
								<valuemin>-1</valuemin>
								<valuemax>1</valuemax>
								<value>0</value>
							</parameter>
						</effect>
					</filter>
					<sourcetrack>
						<mediatype>audio</mediatype>
						<trackindex>1</trackindex>
					</sourcetrack>
				</clipitem>
				<clipitem id="C0038 12">
					<name>C0038</name>
					<duration>495</duration>
					<rate>
						<ntsc>FALSE</ntsc>
						<timebase>25</timebase>
					</rate>
					<in>321</in>
					<out>389</out>
					<start>15788</start>
					<end>15856</end>
					<subframeoffset>0</subframeoffset>
					<masterclipid>C0038 13</masterclipid>
					<logginginfo>
						<scene/>
						<shottake/>
						<lognote/>
						<good>FALSE</good>
					</logginginfo>
					<labels>
						<label2/>
					</labels>
					<comments>
						<mastercomment1/>
						<mastercomment2/>
						<mastercomment3/>
						<mastercomment4/>
					</comments>
					<file id="C0038 9"/>
					<filter>
						<effect>
							<name>Audio Levels</name>
							<effectid>audiolevels</effectid>
							<effectcategory>audiolevels</effectcategory>
							<effecttype>audiolevels</effecttype>
							<mediatype>audio</mediatype>
							<parameter>
								<name>Level</name>
								<parameterid>level</parameterid>
								<valuemin>0</valuemin>
								<valuemax>3.98109</valuemax>
								<value>1</value>
							</parameter>
						</effect>
					</filter>
					<filter>
						<effect>
							<name>Audio Pan</name>
							<effectid>audiopan</effectid>
							<effectcategory>audiopan</effectcategory>
							<effecttype>audiopan</effecttype>
							<mediatype>audio</mediatype>
							<parameter>
								<name>Pan</name>
								<parameterid>pan</parameterid>
								<valuemin>-1</valuemin>
								<valuemax>1</valuemax>
								<value>0</value>
							</parameter>
						</effect>
					</filter>
					<sourcetrack>
						<mediatype>audio</mediatype>
						<trackindex>1</trackindex>
					</sourcetrack>
				</clipitem>
				<clipitem id="C0042 8">
					<name>C0042</name>
					<duration>569</duration>
					<rate>
						<ntsc>FALSE</ntsc>
						<timebase>25</timebase>
					</rate>
					<in>269</in>
					<out>408</out>
					<start>15856</start>
					<end>15995</end>
					<subframeoffset>0</subframeoffset>
					<masterclipid>C0042 9</masterclipid>
					<logginginfo>
						<scene/>
						<shottake/>
						<lognote/>
						<good>FALSE</good>
					</logginginfo>
					<labels>
						<label2/>
					</labels>
					<comments>
						<mastercomment1/>
						<mastercomment2/>
						<mastercomment3/>
						<mastercomment4/>
					</comments>
					<file id="C0042 10">
						<name>C0042.mov</name>
						<pathurl>file://localhost/Volumes/Askepott/Prosjekter/DNPR637010_Kra%CC%8Akeklubben_TEM_011212/Video/Tords%20Garasje/SESONG%203/Flue/XDCAM/C0042.mov</pathurl>
						<rate>
							<timebase>25</timebase>
						</rate>
						<duration>569</duration>
						<timecode>
							<rate>
								<timebase>25</timebase>
							</rate>
							<string>12:42:06:11</string>
							<frame>1143161</frame>
							<displayformat>NDF</displayformat>
							<source>source</source>
							<reel>
								<name>XDCAM 20120309_113707</name>
							</reel>
						</timecode>
						<media>
							<video>
								<duration>569</duration>
								<samplecharacteristics>
									<width>1920</width>
									<height>1080</height>
								</samplecharacteristics>
							</video>
							<audio>
								<rate>
									<timebase>48000</timebase>
								</rate>
								<trackcount>1</trackcount>
								<channeldescription>8 Channels</channeldescription>
								<samplecharacteristics>
									<depth>24</depth>
								</samplecharacteristics>
							</audio>
						</media>
					</file>
					<filter>
						<effect>
							<name>Audio Levels</name>
							<effectid>audiolevels</effectid>
							<effectcategory>audiolevels</effectcategory>
							<effecttype>audiolevels</effecttype>
							<mediatype>audio</mediatype>
							<parameter>
								<name>Level</name>
								<parameterid>level</parameterid>
								<valuemin>0</valuemin>
								<valuemax>3.98109</valuemax>
								<value>1.58489</value>
							</parameter>
						</effect>
					</filter>
					<filter>
						<effect>
							<name>Audio Pan</name>
							<effectid>audiopan</effectid>
							<effectcategory>audiopan</effectcategory>
							<effecttype>audiopan</effecttype>
							<mediatype>audio</mediatype>
							<parameter>
								<name>Pan</name>
								<parameterid>pan</parameterid>
								<valuemin>-1</valuemin>
								<valuemax>1</valuemax>
								<value>0</value>
							</parameter>
						</effect>
					</filter>
					<sourcetrack>
						<mediatype>audio</mediatype>
						<trackindex>1</trackindex>
					</sourcetrack>
				</clipitem>
				<clipitem id="C0041 7">
					<name>C0041</name>
					<duration>839</duration>
					<rate>
						<ntsc>FALSE</ntsc>
						<timebase>25</timebase>
					</rate>
					<in>718</in>
					<out>810</out>
					<start>15995</start>
					<end>16087</end>
					<subframeoffset>0</subframeoffset>
					<masterclipid>C0041 8</masterclipid>
					<logginginfo>
						<scene/>
						<shottake/>
						<lognote/>
						<good>FALSE</good>
					</logginginfo>
					<labels>
						<label2/>
					</labels>
					<comments>
						<mastercomment1/>
						<mastercomment2/>
						<mastercomment3/>
						<mastercomment4/>
					</comments>
					<file id="C0041 9">
						<name>C0041.mov</name>
						<pathurl>file://localhost/Volumes/Askepott/Prosjekter/DNPR637010_Kra%CC%8Akeklubben_TEM_011212/Video/Tords%20Garasje/SESONG%203/Flue/XDCAM/C0041.mov</pathurl>
						<rate>
							<timebase>25</timebase>
						</rate>
						<duration>839</duration>
						<timecode>
							<rate>
								<timebase>25</timebase>
							</rate>
							<string>12:41:32:22</string>
							<frame>1142322</frame>
							<displayformat>NDF</displayformat>
							<source>source</source>
							<reel>
								<name>XDCAM 20120309_113707</name>
							</reel>
						</timecode>
						<media>
							<video>
								<duration>839</duration>
								<samplecharacteristics>
									<width>1920</width>
									<height>1080</height>
								</samplecharacteristics>
							</video>
							<audio>
								<rate>
									<timebase>48000</timebase>
								</rate>
								<trackcount>1</trackcount>
								<channeldescription>8 Channels</channeldescription>
								<samplecharacteristics>
									<depth>24</depth>
								</samplecharacteristics>
							</audio>
						</media>
					</file>
					<filter>
						<effect>
							<name>Audio Levels</name>
							<effectid>audiolevels</effectid>
							<effectcategory>audiolevels</effectcategory>
							<effecttype>audiolevels</effecttype>
							<mediatype>audio</mediatype>
							<parameter>
								<name>Level</name>
								<parameterid>level</parameterid>
								<valuemin>0</valuemin>
								<valuemax>3.98109</valuemax>
								<value>1</value>
							</parameter>
						</effect>
					</filter>
					<filter>
						<effect>
							<name>Audio Pan</name>
							<effectid>audiopan</effectid>
							<effectcategory>audiopan</effectcategory>
							<effecttype>audiopan</effecttype>
							<mediatype>audio</mediatype>
							<parameter>
								<name>Pan</name>
								<parameterid>pan</parameterid>
								<valuemin>-1</valuemin>
								<valuemax>1</valuemax>
								<value>0</value>
							</parameter>
						</effect>
					</filter>
					<sourcetrack>
						<mediatype>audio</mediatype>
						<trackindex>1</trackindex>
					</sourcetrack>
				</clipitem>
				<clipitem id="C0045 5">
					<name>C0045</name>
					<duration>487</duration>
					<rate>
						<ntsc>FALSE</ntsc>
						<timebase>25</timebase>
					</rate>
					<in>151</in>
					<out>272</out>
					<start>16243</start>
					<end>16364</end>
					<subframeoffset>0</subframeoffset>
					<masterclipid>C0045 6</masterclipid>
					<logginginfo>
						<scene/>
						<shottake/>
						<lognote/>
						<good>FALSE</good>
					</logginginfo>
					<labels>
						<label2/>
					</labels>
					<comments>
						<mastercomment1/>
						<mastercomment2/>
						<mastercomment3/>
						<mastercomment4/>
					</comments>
					<file id="C0045 7">
						<name>C0045.mov</name>
						<pathurl>file://localhost/Volumes/Askepott/Prosjekter/DNPR637010_Kra%CC%8Akeklubben_TEM_011212/Video/Tords%20Garasje/SESONG%203/Flue/XDCAM/C0045.mov</pathurl>
						<rate>
							<timebase>25</timebase>
						</rate>
						<duration>487</duration>
						<timecode>
							<rate>
								<timebase>25</timebase>
							</rate>
							<string>12:42:58:05</string>
							<frame>1144455</frame>
							<displayformat>NDF</displayformat>
							<source>source</source>
							<reel>
								<name>XDCAM 20120309_113707</name>
							</reel>
						</timecode>
						<media>
							<video>
								<duration>487</duration>
								<samplecharacteristics>
									<width>1920</width>
									<height>1080</height>
								</samplecharacteristics>
							</video>
							<audio>
								<rate>
									<timebase>48000</timebase>
								</rate>
								<trackcount>1</trackcount>
								<channeldescription>8 Channels</channeldescription>
								<samplecharacteristics>
									<depth>24</depth>
								</samplecharacteristics>
							</audio>
						</media>
					</file>
					<filter>
						<effect>
							<name>Audio Levels</name>
							<effectid>audiolevels</effectid>
							<effectcategory>audiolevels</effectcategory>
							<effecttype>audiolevels</effecttype>
							<mediatype>audio</mediatype>
							<parameter>
								<name>Level</name>
								<parameterid>level</parameterid>
								<valuemin>0</valuemin>
								<valuemax>3.98109</valuemax>
								<value>1.77828</value>
							</parameter>
						</effect>
					</filter>
					<filter>
						<effect>
							<name>Audio Pan</name>
							<effectid>audiopan</effectid>
							<effectcategory>audiopan</effectcategory>
							<effecttype>audiopan</effecttype>
							<mediatype>audio</mediatype>
							<parameter>
								<name>Pan</name>
								<parameterid>pan</parameterid>
								<valuemin>-1</valuemin>
								<valuemax>1</valuemax>
								<value>0</value>
							</parameter>
						</effect>
					</filter>
					<sourcetrack>
						<mediatype>audio</mediatype>
						<trackindex>1</trackindex>
					</sourcetrack>
				</clipitem>
				<clipitem id="C0050 23">
					<name>C0050</name>
					<duration>506</duration>
					<rate>
						<ntsc>FALSE</ntsc>
						<timebase>25</timebase>
					</rate>
					<in>69</in>
					<out>383</out>
					<start>16364</start>
					<end>16678</end>
					<subframeoffset>0</subframeoffset>
					<masterclipid>C0050 24</masterclipid>
					<logginginfo>
						<scene/>
						<shottake/>
						<lognote/>
						<good>FALSE</good>
					</logginginfo>
					<labels>
						<label2/>
					</labels>
					<comments>
						<mastercomment1/>
						<mastercomment2/>
						<mastercomment3/>
						<mastercomment4/>
					</comments>
					<file id="C0050 25">
						<name>C0050.mov</name>
						<pathurl>file://localhost/Volumes/Askepott/Prosjekter/DNPR637010_Kra%CC%8Akeklubben_TEM_011212/Video/Tords%20Garasje/SESONG%203/Flue/XDCAM/C0050.mov</pathurl>
						<rate>
							<timebase>25</timebase>
						</rate>
						<duration>506</duration>
						<timecode>
							<rate>
								<timebase>25</timebase>
							</rate>
							<string>12:44:44:16</string>
							<frame>1147116</frame>
							<displayformat>NDF</displayformat>
							<source>source</source>
							<reel>
								<name>XDCAM 20120309_113707</name>
							</reel>
						</timecode>
						<media>
							<video>
								<duration>506</duration>
								<samplecharacteristics>
									<width>1920</width>
									<height>1080</height>
								</samplecharacteristics>
							</video>
							<audio>
								<rate>
									<timebase>48000</timebase>
								</rate>
								<trackcount>1</trackcount>
								<channeldescription>8 Channels</channeldescription>
								<samplecharacteristics>
									<depth>24</depth>
								</samplecharacteristics>
							</audio>
						</media>
					</file>
					<filter>
						<effect>
							<name>Audio Levels</name>
							<effectid>audiolevels</effectid>
							<effectcategory>audiolevels</effectcategory>
							<effecttype>audiolevels</effecttype>
							<mediatype>audio</mediatype>
							<parameter>
								<name>Level</name>
								<parameterid>level</parameterid>
								<valuemin>0</valuemin>
								<valuemax>3.98109</valuemax>
								<value>1</value>
							</parameter>
						</effect>
					</filter>
					<filter>
						<effect>
							<name>Audio Pan</name>
							<effectid>audiopan</effectid>
							<effectcategory>audiopan</effectcategory>
							<effecttype>audiopan</effecttype>
							<mediatype>audio</mediatype>
							<parameter>
								<name>Pan</name>
								<parameterid>pan</parameterid>
								<valuemin>-1</valuemin>
								<valuemax>1</valuemax>
								<value>0</value>
							</parameter>
						</effect>
					</filter>
					<sourcetrack>
						<mediatype>audio</mediatype>
						<trackindex>1</trackindex>
					</sourcetrack>
				</clipitem>
				<clipitem id="C0054 8">
					<name>C0054</name>
					<duration>385</duration>
					<rate>
						<ntsc>FALSE</ntsc>
						<timebase>25</timebase>
					</rate>
					<in>32</in>
					<out>236</out>
					<start>16678</start>
					<end>16882</end>
					<subframeoffset>0</subframeoffset>
					<masterclipid>C0054 6</masterclipid>
					<logginginfo>
						<scene/>
						<shottake/>
						<lognote/>
						<good>FALSE</good>
					</logginginfo>
					<labels>
						<label2/>
					</labels>
					<comments>
						<mastercomment1/>
						<mastercomment2/>
						<mastercomment3/>
						<mastercomment4/>
					</comments>
					<file id="C0054 7"/>
					<filter>
						<effect>
							<name>Audio Levels</name>
							<effectid>audiolevels</effectid>
							<effectcategory>audiolevels</effectcategory>
							<effecttype>audiolevels</effecttype>
							<mediatype>audio</mediatype>
							<parameter>
								<name>Level</name>
								<parameterid>level</parameterid>
								<valuemin>0</valuemin>
								<valuemax>3.98109</valuemax>
								<value>1</value>
							</parameter>
						</effect>
					</filter>
					<filter>
						<effect>
							<name>Audio Pan</name>
							<effectid>audiopan</effectid>
							<effectcategory>audiopan</effectcategory>
							<effecttype>audiopan</effecttype>
							<mediatype>audio</mediatype>
							<parameter>
								<name>Pan</name>
								<parameterid>pan</parameterid>
								<valuemin>-1</valuemin>
								<valuemax>1</valuemax>
								<value>0</value>
							</parameter>
						</effect>
					</filter>
					<sourcetrack>
						<mediatype>audio</mediatype>
						<trackindex>1</trackindex>
					</sourcetrack>
					<link>
						<linkclipref>C0054 5</linkclipref>
						<mediatype>video</mediatype>
						<trackindex>1</trackindex>
						<clipindex>120</clipindex>
					</link>
					<link>
						<linkclipref>C0054 8</linkclipref>
						<mediatype>audio</mediatype>
						<trackindex>1</trackindex>
						<clipindex>157</clipindex>
					</link>
				</clipitem>
				<clipitem id="C0055 7">
					<name>C0055</name>
					<duration>413</duration>
					<rate>
						<ntsc>FALSE</ntsc>
						<timebase>25</timebase>
					</rate>
					<in>263</in>
					<out>299</out>
					<start>16887</start>
					<end>16923</end>
					<subframeoffset>0</subframeoffset>
					<masterclipid>C0055 8</masterclipid>
					<logginginfo>
						<scene/>
						<shottake/>
						<lognote/>
						<good>FALSE</good>
					</logginginfo>
					<labels>
						<label2/>
					</labels>
					<comments>
						<mastercomment1/>
						<mastercomment2/>
						<mastercomment3/>
						<mastercomment4/>
					</comments>
					<file id="C0055 9">
						<name>C0055.mov</name>
						<pathurl>file://localhost/Volumes/Askepott/Prosjekter/DNPR637010_Kra%CC%8Akeklubben_TEM_011212/Video/Tords%20Garasje/SESONG%203/Flue/XDCAM/C0055.mov</pathurl>
						<rate>
							<timebase>25</timebase>
						</rate>
						<duration>413</duration>
						<timecode>
							<rate>
								<timebase>25</timebase>
							</rate>
							<string>12:46:39:18</string>
							<frame>1149993</frame>
							<displayformat>NDF</displayformat>
							<source>source</source>
							<reel>
								<name>XDCAM 20120309_113707</name>
							</reel>
						</timecode>
						<media>
							<video>
								<duration>413</duration>
								<samplecharacteristics>
									<width>1920</width>
									<height>1080</height>
								</samplecharacteristics>
							</video>
							<audio>
								<rate>
									<timebase>48000</timebase>
								</rate>
								<trackcount>1</trackcount>
								<channeldescription>8 Channels</channeldescription>
								<samplecharacteristics>
									<depth>24</depth>
								</samplecharacteristics>
							</audio>
						</media>
					</file>
					<filter>
						<effect>
							<name>Audio Levels</name>
							<effectid>audiolevels</effectid>
							<effectcategory>audiolevels</effectcategory>
							<effecttype>audiolevels</effecttype>
							<mediatype>audio</mediatype>
							<parameter>
								<name>Level</name>
								<parameterid>level</parameterid>
								<valuemin>0</valuemin>
								<valuemax>3.98109</valuemax>
								<value>1</value>
							</parameter>
						</effect>
					</filter>
					<filter>
						<effect>
							<name>Audio Pan</name>
							<effectid>audiopan</effectid>
							<effectcategory>audiopan</effectcategory>
							<effecttype>audiopan</effecttype>
							<mediatype>audio</mediatype>
							<parameter>
								<name>Pan</name>
								<parameterid>pan</parameterid>
								<valuemin>-1</valuemin>
								<valuemax>1</valuemax>
								<value>0</value>
							</parameter>
						</effect>
					</filter>
					<sourcetrack>
						<mediatype>audio</mediatype>
						<trackindex>1</trackindex>
					</sourcetrack>
				</clipitem>
				<clipitem id="C0015 2">
					<name>C0015</name>
					<duration>3938</duration>
					<rate>
						<ntsc>FALSE</ntsc>
						<timebase>25</timebase>
					</rate>
					<in>1388</in>
					<out>1463</out>
					<start>17244</start>
					<end>17319</end>
					<subframeoffset>0</subframeoffset>
					<masterclipid>C0015 3</masterclipid>
					<logginginfo>
						<scene/>
						<shottake/>
						<lognote/>
						<good>FALSE</good>
					</logginginfo>
					<labels>
						<label2/>
					</labels>
					<comments>
						<mastercomment1/>
						<mastercomment2/>
						<mastercomment3/>
						<mastercomment4/>
					</comments>
					<file id="C0015 4">
						<name>C0015.mov</name>
						<pathurl>file://localhost/Volumes/Askepott/Prosjekter/DNPR637010_Kra%CC%8Akeklubben_TEM_011212/Video/Tords%20Garasje/SESONG%203/Flue/XDCAM/C0015.mov</pathurl>
						<rate>
							<timebase>25</timebase>
						</rate>
						<duration>3938</duration>
						<timecode>
							<rate>
								<timebase>25</timebase>
							</rate>
							<string>12:25:44:13</string>
							<frame>1118613</frame>
							<displayformat>NDF</displayformat>
							<source>source</source>
							<reel>
								<name>XDCAM 20120309_113707</name>
							</reel>
						</timecode>
						<media>
							<video>
								<duration>3938</duration>
								<samplecharacteristics>
									<width>1920</width>
									<height>1080</height>
								</samplecharacteristics>
							</video>
							<audio>
								<rate>
									<timebase>48000</timebase>
								</rate>
								<trackcount>1</trackcount>
								<channeldescription>8 Channels</channeldescription>
								<samplecharacteristics>
									<depth>24</depth>
								</samplecharacteristics>
							</audio>
						</media>
					</file>
					<filter>
						<effect>
							<name>Audio Levels</name>
							<effectid>audiolevels</effectid>
							<effectcategory>audiolevels</effectcategory>
							<effecttype>audiolevels</effecttype>
							<mediatype>audio</mediatype>
							<parameter>
								<name>Level</name>
								<parameterid>level</parameterid>
								<valuemin>0</valuemin>
								<valuemax>3.98109</valuemax>
								<value>3.98107</value>
							</parameter>
						</effect>
					</filter>
					<filter>
						<effect>
							<name>Audio Pan</name>
							<effectid>audiopan</effectid>
							<effectcategory>audiopan</effectcategory>
							<effecttype>audiopan</effecttype>
							<mediatype>audio</mediatype>
							<parameter>
								<name>Pan</name>
								<parameterid>pan</parameterid>
								<valuemin>-1</valuemin>
								<valuemax>1</valuemax>
								<value>0</value>
							</parameter>
						</effect>
					</filter>
					<sourcetrack>
						<mediatype>audio</mediatype>
						<trackindex>1</trackindex>
					</sourcetrack>
				</clipitem>
				<clipitem id="C0015 5">
					<name>C0015</name>
					<duration>3938</duration>
					<rate>
						<ntsc>FALSE</ntsc>
						<timebase>25</timebase>
					</rate>
					<in>1519</in>
					<out>1555</out>
					<start>17319</start>
					<end>17355</end>
					<subframeoffset>0</subframeoffset>
					<masterclipid>C0015 6</masterclipid>
					<logginginfo>
						<scene/>
						<shottake/>
						<lognote/>
						<good>FALSE</good>
					</logginginfo>
					<labels>
						<label2/>
					</labels>
					<comments>
						<mastercomment1/>
						<mastercomment2/>
						<mastercomment3/>
						<mastercomment4/>
					</comments>
					<file id="C0015 4"/>
					<filter>
						<effect>
							<name>Audio Levels</name>
							<effectid>audiolevels</effectid>
							<effectcategory>audiolevels</effectcategory>
							<effecttype>audiolevels</effecttype>
							<mediatype>audio</mediatype>
							<parameter>
								<name>Level</name>
								<parameterid>level</parameterid>
								<valuemin>0</valuemin>
								<valuemax>3.98109</valuemax>
								<value>3.98107</value>
							</parameter>
						</effect>
					</filter>
					<filter>
						<effect>
							<name>Audio Pan</name>
							<effectid>audiopan</effectid>
							<effectcategory>audiopan</effectcategory>
							<effecttype>audiopan</effecttype>
							<mediatype>audio</mediatype>
							<parameter>
								<name>Pan</name>
								<parameterid>pan</parameterid>
								<valuemin>-1</valuemin>
								<valuemax>1</valuemax>
								<value>0</value>
							</parameter>
						</effect>
					</filter>
					<sourcetrack>
						<mediatype>audio</mediatype>
						<trackindex>1</trackindex>
					</sourcetrack>
				</clipitem>
				<clipitem id="C0016 11">
					<name>C0016</name>
					<duration>629</duration>
					<rate>
						<ntsc>FALSE</ntsc>
						<timebase>25</timebase>
					</rate>
					<in>172</in>
					<out>222</out>
					<start>17355</start>
					<end>17405</end>
					<subframeoffset>0</subframeoffset>
					<masterclipid>C0016 12</masterclipid>
					<logginginfo>
						<scene/>
						<shottake/>
						<lognote/>
						<good>FALSE</good>
					</logginginfo>
					<labels>
						<label2/>
					</labels>
					<comments>
						<mastercomment1/>
						<mastercomment2/>
						<mastercomment3/>
						<mastercomment4/>
					</comments>
					<file id="C0016 13">
						<name>C0016.mov</name>
						<pathurl>file://localhost/Volumes/Askepott/Prosjekter/DNPR637010_Kra%CC%8Akeklubben_TEM_011212/Video/Tords%20Garasje/SESONG%203/Flue/XDCAM/C0016.mov</pathurl>
						<rate>
							<timebase>25</timebase>
						</rate>
						<duration>629</duration>
						<timecode>
							<rate>
								<timebase>25</timebase>
							</rate>
							<string>12:28:22:01</string>
							<frame>1122551</frame>
							<displayformat>NDF</displayformat>
							<source>source</source>
							<reel>
								<name>XDCAM 20120309_113707</name>
							</reel>
						</timecode>
						<media>
							<video>
								<duration>629</duration>
								<samplecharacteristics>
									<width>1920</width>
									<height>1080</height>
								</samplecharacteristics>
							</video>
							<audio>
								<rate>
									<timebase>48000</timebase>
								</rate>
								<trackcount>1</trackcount>
								<channeldescription>8 Channels</channeldescription>
								<samplecharacteristics>
									<depth>24</depth>
								</samplecharacteristics>
							</audio>
						</media>
					</file>
					<filter>
						<effect>
							<name>Audio Levels</name>
							<effectid>audiolevels</effectid>
							<effectcategory>audiolevels</effectcategory>
							<effecttype>audiolevels</effecttype>
							<mediatype>audio</mediatype>
							<parameter>
								<name>Level</name>
								<parameterid>level</parameterid>
								<valuemin>0</valuemin>
								<valuemax>3.98109</valuemax>
								<value>3.98107</value>
							</parameter>
						</effect>
					</filter>
					<filter>
						<effect>
							<name>Audio Pan</name>
							<effectid>audiopan</effectid>
							<effectcategory>audiopan</effectcategory>
							<effecttype>audiopan</effecttype>
							<mediatype>audio</mediatype>
							<parameter>
								<name>Pan</name>
								<parameterid>pan</parameterid>
								<valuemin>-1</valuemin>
								<valuemax>1</valuemax>
								<value>0</value>
							</parameter>
						</effect>
					</filter>
					<sourcetrack>
						<mediatype>audio</mediatype>
						<trackindex>1</trackindex>
					</sourcetrack>
				</clipitem>
				<clipitem id="C0016 14">
					<name>C0016</name>
					<duration>629</duration>
					<rate>
						<ntsc>FALSE</ntsc>
						<timebase>25</timebase>
					</rate>
					<in>231</in>
					<out>281</out>
					<start>17405</start>
					<end>17455</end>
					<subframeoffset>0</subframeoffset>
					<masterclipid>C0016 15</masterclipid>
					<logginginfo>
						<scene/>
						<shottake/>
						<lognote/>
						<good>FALSE</good>
					</logginginfo>
					<labels>
						<label2/>
					</labels>
					<comments>
						<mastercomment1/>
						<mastercomment2/>
						<mastercomment3/>
						<mastercomment4/>
					</comments>
					<file id="C0016 13"/>
					<filter>
						<effect>
							<name>Audio Levels</name>
							<effectid>audiolevels</effectid>
							<effectcategory>audiolevels</effectcategory>
							<effecttype>audiolevels</effecttype>
							<mediatype>audio</mediatype>
							<parameter>
								<name>Level</name>
								<parameterid>level</parameterid>
								<valuemin>0</valuemin>
								<valuemax>3.98109</valuemax>
								<value>3.98107</value>
							</parameter>
						</effect>
					</filter>
					<filter>
						<effect>
							<name>Audio Pan</name>
							<effectid>audiopan</effectid>
							<effectcategory>audiopan</effectcategory>
							<effecttype>audiopan</effecttype>
							<mediatype>audio</mediatype>
							<parameter>
								<name>Pan</name>
								<parameterid>pan</parameterid>
								<valuemin>-1</valuemin>
								<valuemax>1</valuemax>
								<value>0</value>
							</parameter>
						</effect>
					</filter>
					<sourcetrack>
						<mediatype>audio</mediatype>
						<trackindex>1</trackindex>
					</sourcetrack>
				</clipitem>
				<clipitem id="C0005 11">
					<name>C0005</name>
					<duration>1307</duration>
					<rate>
						<ntsc>FALSE</ntsc>
						<timebase>25</timebase>
					</rate>
					<in>941</in>
					<out>1072</out>
					<start>17672</start>
					<end>17803</end>
					<subframeoffset>0</subframeoffset>
					<masterclipid>C0005 12</masterclipid>
					<logginginfo>
						<scene/>
						<shottake/>
						<lognote/>
						<good>FALSE</good>
					</logginginfo>
					<labels>
						<label2/>
					</labels>
					<comments>
						<mastercomment1/>
						<mastercomment2/>
						<mastercomment3/>
						<mastercomment4/>
					</comments>
					<file id="C0005 13">
						<name>C0005.mov</name>
						<pathurl>file://localhost/Volumes/Askepott/Prosjekter/DNPR637010_Kra%CC%8Akeklubben_TEM_011212/Video/Tords%20Garasje/SESONG%203/Flue/XDCAM/C0005.mov</pathurl>
						<rate>
							<timebase>25</timebase>
						</rate>
						<duration>1307</duration>
						<timecode>
							<rate>
								<timebase>25</timebase>
							</rate>
							<string>12:20:49:19</string>
							<frame>1111244</frame>
							<displayformat>NDF</displayformat>
							<source>source</source>
							<reel>
								<name>XDCAM 20120309_113707</name>
							</reel>
						</timecode>
						<media>
							<video>
								<duration>1307</duration>
								<samplecharacteristics>
									<width>1920</width>
									<height>1080</height>
								</samplecharacteristics>
							</video>
							<audio>
								<rate>
									<timebase>48000</timebase>
								</rate>
								<trackcount>1</trackcount>
								<channeldescription>8 Channels</channeldescription>
								<samplecharacteristics>
									<depth>24</depth>
								</samplecharacteristics>
							</audio>
						</media>
					</file>
					<filter>
						<effect>
							<name>Audio Levels</name>
							<effectid>audiolevels</effectid>
							<effectcategory>audiolevels</effectcategory>
							<effecttype>audiolevels</effecttype>
							<mediatype>audio</mediatype>
							<parameter>
								<name>Level</name>
								<parameterid>level</parameterid>
								<valuemin>0</valuemin>
								<valuemax>3.98109</valuemax>
								<value>1.77828</value>
							</parameter>
						</effect>
					</filter>
					<filter>
						<effect>
							<name>Audio Pan</name>
							<effectid>audiopan</effectid>
							<effectcategory>audiopan</effectcategory>
							<effecttype>audiopan</effecttype>
							<mediatype>audio</mediatype>
							<parameter>
								<name>Pan</name>
								<parameterid>pan</parameterid>
								<valuemin>-1</valuemin>
								<valuemax>1</valuemax>
								<value>0</value>
							</parameter>
						</effect>
					</filter>
					<sourcetrack>
						<mediatype>audio</mediatype>
						<trackindex>1</trackindex>
					</sourcetrack>
				</clipitem>
				<clipitem id="SC6ATK834 2">
					<name>SC6ATK834</name>
					<duration>562</duration>
					<rate>
						<ntsc>FALSE</ntsc>
						<timebase>25</timebase>
					</rate>
					<in>12</in>
					<out>183</out>
					<start>17906</start>
					<end>18077</end>
					<subframeoffset>0</subframeoffset>
					<masterclipid>SC6ATK834 3</masterclipid>
					<logginginfo>
						<scene/>
						<shottake/>
						<lognote/>
						<good>FALSE</good>
					</logginginfo>
					<labels>
						<label2/>
					</labels>
					<comments>
						<mastercomment1/>
						<mastercomment2/>
						<mastercomment3/>
						<mastercomment4/>
					</comments>
					<file id="SC6ATK834 4">
						<name>SC6ATK834.mov</name>
						<pathurl>file://localhost/Volumes/Askepott/Prosjekter/DNPR637010_Kra%CC%8Akeklubben_TEM_011212/Video/Tords%20Garasje/SESONG%203/Flue/Slow/SC6ATK834.mov</pathurl>
						<rate>
							<timebase>25</timebase>
						</rate>
						<duration>562</duration>
						<timecode>
							<rate>
								<timebase>25</timebase>
							</rate>
							<string>00:00:00:00</string>
							<frame>0</frame>
							<displayformat>NDF</displayformat>
							<source>source</source>
							<reel>
								<name>1</name>
							</reel>
						</timecode>
						<media>
							<video>
								<duration>562</duration>
								<samplecharacteristics>
									<width>1920</width>
									<height>1080</height>
								</samplecharacteristics>
							</video>
							<audio>
								<rate>
									<timebase>48000</timebase>
								</rate>
								<trackcount>1</trackcount>
								<samplecharacteristics>
									<depth>24</depth>
								</samplecharacteristics>
							</audio>
						</media>
					</file>
					<filter>
						<effect>
							<name>Audio Levels</name>
							<effectid>audiolevels</effectid>
							<effectcategory>audiolevels</effectcategory>
							<effecttype>audiolevels</effecttype>
							<mediatype>audio</mediatype>
							<parameter>
								<name>Level</name>
								<parameterid>level</parameterid>
								<valuemin>0</valuemin>
								<valuemax>3.98109</valuemax>
								<value>1</value>
							</parameter>
						</effect>
					</filter>
					<filter>
						<effect>
							<name>Audio Pan</name>
							<effectid>audiopan</effectid>
							<effectcategory>audiopan</effectcategory>
							<effecttype>audiopan</effecttype>
							<mediatype>audio</mediatype>
							<parameter>
								<name>Pan</name>
								<parameterid>pan</parameterid>
								<valuemin>-1</valuemin>
								<valuemax>1</valuemax>
								<value>0</value>
							</parameter>
						</effect>
					</filter>
					<sourcetrack>
						<mediatype>audio</mediatype>
						<trackindex>1</trackindex>
					</sourcetrack>
				</clipitem>
				<clipitem id="SC6ATK829 2">
					<name>SC6ATK829</name>
					<duration>370</duration>
					<rate>
						<ntsc>FALSE</ntsc>
						<timebase>25</timebase>
					</rate>
					<in>148</in>
					<out>303</out>
					<start>18077</start>
					<end>18232</end>
					<subframeoffset>0</subframeoffset>
					<masterclipid>SC6ATK829 3</masterclipid>
					<logginginfo>
						<scene/>
						<shottake/>
						<lognote/>
						<good>FALSE</good>
					</logginginfo>
					<labels>
						<label2/>
					</labels>
					<comments>
						<mastercomment1/>
						<mastercomment2/>
						<mastercomment3/>
						<mastercomment4/>
					</comments>
					<file id="SC6ATK829 4">
						<name>SC6ATK829.mov</name>
						<pathurl>file://localhost/Volumes/Askepott/Prosjekter/DNPR637010_Kra%CC%8Akeklubben_TEM_011212/Video/Tords%20Garasje/SESONG%203/Flue/Slow/SC6ATK829.mov</pathurl>
						<rate>
							<timebase>25</timebase>
						</rate>
						<duration>370</duration>
						<timecode>
							<rate>
								<timebase>25</timebase>
							</rate>
							<string>00:00:00:00</string>
							<frame>0</frame>
							<displayformat>NDF</displayformat>
							<source>source</source>
							<reel>
								<name>1</name>
							</reel>
						</timecode>
						<media>
							<video>
								<duration>370</duration>
								<samplecharacteristics>
									<width>1920</width>
									<height>1080</height>
								</samplecharacteristics>
							</video>
							<audio>
								<rate>
									<timebase>48000</timebase>
								</rate>
								<trackcount>1</trackcount>
								<samplecharacteristics>
									<depth>24</depth>
								</samplecharacteristics>
							</audio>
						</media>
					</file>
					<filter>
						<effect>
							<name>Audio Levels</name>
							<effectid>audiolevels</effectid>
							<effectcategory>audiolevels</effectcategory>
							<effecttype>audiolevels</effecttype>
							<mediatype>audio</mediatype>
							<parameter>
								<name>Level</name>
								<parameterid>level</parameterid>
								<valuemin>0</valuemin>
								<valuemax>3.98109</valuemax>
								<value>1</value>
							</parameter>
						</effect>
					</filter>
					<filter>
						<effect>
							<name>Audio Pan</name>
							<effectid>audiopan</effectid>
							<effectcategory>audiopan</effectcategory>
							<effecttype>audiopan</effecttype>
							<mediatype>audio</mediatype>
							<parameter>
								<name>Pan</name>
								<parameterid>pan</parameterid>
								<valuemin>-1</valuemin>
								<valuemax>1</valuemax>
								<value>0</value>
							</parameter>
						</effect>
					</filter>
					<sourcetrack>
						<mediatype>audio</mediatype>
						<trackindex>1</trackindex>
					</sourcetrack>
				</clipitem>
				<clipitem id="SC6ATK668 2">
					<name>SC6ATK668</name>
					<duration>692</duration>
					<rate>
						<ntsc>FALSE</ntsc>
						<timebase>25</timebase>
					</rate>
					<in>274</in>
					<out>382</out>
					<start>18232</start>
					<end>18340</end>
					<subframeoffset>0</subframeoffset>
					<masterclipid>SC6ATK668 3</masterclipid>
					<logginginfo>
						<scene/>
						<shottake/>
						<lognote/>
						<good>FALSE</good>
					</logginginfo>
					<labels>
						<label2/>
					</labels>
					<comments>
						<mastercomment1/>
						<mastercomment2/>
						<mastercomment3/>
						<mastercomment4/>
					</comments>
					<file id="SC6ATK668 4">
						<name>SC6ATK668.mov</name>
						<pathurl>file://localhost/Volumes/Askepott/Prosjekter/DNPR637010_Kra%CC%8Akeklubben_TEM_011212/Video/Tords%20Garasje/SESONG%203/Flue/Slow/SC6ATK668.mov</pathurl>
						<rate>
							<timebase>25</timebase>
						</rate>
						<duration>692</duration>
						<timecode>
							<rate>
								<timebase>25</timebase>
							</rate>
							<string>00:00:00:00</string>
							<frame>0</frame>
							<displayformat>NDF</displayformat>
							<source>source</source>
							<reel>
								<name>1</name>
							</reel>
						</timecode>
						<media>
							<video>
								<duration>692</duration>
								<samplecharacteristics>
									<width>1920</width>
									<height>1080</height>
								</samplecharacteristics>
							</video>
							<audio>
								<rate>
									<timebase>48000</timebase>
								</rate>
								<trackcount>1</trackcount>
								<samplecharacteristics>
									<depth>24</depth>
								</samplecharacteristics>
							</audio>
						</media>
					</file>
					<filter>
						<effect>
							<name>Audio Levels</name>
							<effectid>audiolevels</effectid>
							<effectcategory>audiolevels</effectcategory>
							<effecttype>audiolevels</effecttype>
							<mediatype>audio</mediatype>
							<parameter>
								<name>Level</name>
								<parameterid>level</parameterid>
								<valuemin>0</valuemin>
								<valuemax>3.98109</valuemax>
								<value>1</value>
							</parameter>
						</effect>
					</filter>
					<filter>
						<effect>
							<name>Audio Pan</name>
							<effectid>audiopan</effectid>
							<effectcategory>audiopan</effectcategory>
							<effecttype>audiopan</effecttype>
							<mediatype>audio</mediatype>
							<parameter>
								<name>Pan</name>
								<parameterid>pan</parameterid>
								<valuemin>-1</valuemin>
								<valuemax>1</valuemax>
								<value>0</value>
							</parameter>
						</effect>
					</filter>
					<sourcetrack>
						<mediatype>audio</mediatype>
						<trackindex>1</trackindex>
					</sourcetrack>
				</clipitem>
				<clipitem id="SC6ATK831 2">
					<name>SC6ATK831</name>
					<duration>535</duration>
					<rate>
						<ntsc>FALSE</ntsc>
						<timebase>25</timebase>
					</rate>
					<in>112</in>
					<out>417</out>
					<start>18340</start>
					<end>18645</end>
					<subframeoffset>0</subframeoffset>
					<masterclipid>SC6ATK831 3</masterclipid>
					<logginginfo>
						<scene/>
						<shottake/>
						<lognote/>
						<good>FALSE</good>
					</logginginfo>
					<labels>
						<label2/>
					</labels>
					<comments>
						<mastercomment1/>
						<mastercomment2/>
						<mastercomment3/>
						<mastercomment4/>
					</comments>
					<file id="SC6ATK831 4">
						<name>SC6ATK831.mov</name>
						<pathurl>file://localhost/Volumes/Askepott/Prosjekter/DNPR637010_Kra%CC%8Akeklubben_TEM_011212/Video/Tords%20Garasje/SESONG%203/Flue/Slow/SC6ATK831.mov</pathurl>
						<rate>
							<timebase>25</timebase>
						</rate>
						<duration>535</duration>
						<timecode>
							<rate>
								<timebase>25</timebase>
							</rate>
							<string>00:00:00:00</string>
							<frame>0</frame>
							<displayformat>NDF</displayformat>
							<source>source</source>
							<reel>
								<name>1</name>
							</reel>
						</timecode>
						<media>
							<video>
								<duration>535</duration>
								<samplecharacteristics>
									<width>1920</width>
									<height>1080</height>
								</samplecharacteristics>
							</video>
							<audio>
								<rate>
									<timebase>48000</timebase>
								</rate>
								<trackcount>1</trackcount>
								<samplecharacteristics>
									<depth>24</depth>
								</samplecharacteristics>
							</audio>
						</media>
					</file>
					<filter>
						<effect>
							<name>Audio Levels</name>
							<effectid>audiolevels</effectid>
							<effectcategory>audiolevels</effectcategory>
							<effecttype>audiolevels</effecttype>
							<mediatype>audio</mediatype>
							<parameter>
								<name>Level</name>
								<parameterid>level</parameterid>
								<valuemin>0</valuemin>
								<valuemax>3.98109</valuemax>
								<value>1</value>
							</parameter>
						</effect>
					</filter>
					<filter>
						<effect>
							<name>Audio Pan</name>
							<effectid>audiopan</effectid>
							<effectcategory>audiopan</effectcategory>
							<effecttype>audiopan</effecttype>
							<mediatype>audio</mediatype>
							<parameter>
								<name>Pan</name>
								<parameterid>pan</parameterid>
								<valuemin>-1</valuemin>
								<valuemax>1</valuemax>
								<value>0</value>
							</parameter>
						</effect>
					</filter>
					<sourcetrack>
						<mediatype>audio</mediatype>
						<trackindex>1</trackindex>
					</sourcetrack>
				</clipitem>
				<clipitem id="SC6ATK832 4">
					<name>SC6ATK832</name>
					<duration>200</duration>
					<rate>
						<ntsc>FALSE</ntsc>
						<timebase>25</timebase>
					</rate>
					<in>16</in>
					<out>137</out>
					<start>18645</start>
					<end>18766</end>
					<subframeoffset>0</subframeoffset>
					<masterclipid>SC6ATK832 5</masterclipid>
					<logginginfo>
						<scene/>
						<shottake/>
						<lognote/>
						<good>FALSE</good>
					</logginginfo>
					<labels>
						<label2/>
					</labels>
					<comments>
						<mastercomment1/>
						<mastercomment2/>
						<mastercomment3/>
						<mastercomment4/>
					</comments>
					<file id="SC6ATK832 6">
						<name>SC6ATK832.mov</name>
						<pathurl>file://localhost/Volumes/Askepott/Prosjekter/DNPR637010_Kra%CC%8Akeklubben_TEM_011212/Video/Tords%20Garasje/SESONG%203/Flue/Slow/SC6ATK832.mov</pathurl>
						<rate>
							<timebase>25</timebase>
						</rate>
						<duration>200</duration>
						<timecode>
							<rate>
								<timebase>25</timebase>
							</rate>
							<string>00:00:00:00</string>
							<frame>0</frame>
							<displayformat>NDF</displayformat>
							<source>source</source>
							<reel>
								<name>1</name>
							</reel>
						</timecode>
						<media>
							<video>
								<duration>200</duration>
								<samplecharacteristics>
									<width>1920</width>
									<height>1080</height>
								</samplecharacteristics>
							</video>
							<audio>
								<rate>
									<timebase>48000</timebase>
								</rate>
								<trackcount>1</trackcount>
								<samplecharacteristics>
									<depth>24</depth>
								</samplecharacteristics>
							</audio>
						</media>
					</file>
					<filter>
						<effect>
							<name>Audio Levels</name>
							<effectid>audiolevels</effectid>
							<effectcategory>audiolevels</effectcategory>
							<effecttype>audiolevels</effecttype>
							<mediatype>audio</mediatype>
							<parameter>
								<name>Level</name>
								<parameterid>level</parameterid>
								<valuemin>0</valuemin>
								<valuemax>3.98109</valuemax>
								<value>1</value>
							</parameter>
						</effect>
					</filter>
					<filter>
						<effect>
							<name>Audio Pan</name>
							<effectid>audiopan</effectid>
							<effectcategory>audiopan</effectcategory>
							<effecttype>audiopan</effecttype>
							<mediatype>audio</mediatype>
							<parameter>
								<name>Pan</name>
								<parameterid>pan</parameterid>
								<valuemin>-1</valuemin>
								<valuemax>1</valuemax>
								<value>0</value>
							</parameter>
						</effect>
					</filter>
					<sourcetrack>
						<mediatype>audio</mediatype>
						<trackindex>1</trackindex>
					</sourcetrack>
				</clipitem>
				<clipitem id="C0022 13">
					<name>C0022</name>
					<duration>840</duration>
					<rate>
						<ntsc>FALSE</ntsc>
						<timebase>25</timebase>
					</rate>
					<in>64</in>
					<out>616</out>
					<start>18766</start>
					<end>19318</end>
					<subframeoffset>0</subframeoffset>
					<masterclipid>C0022 14</masterclipid>
					<logginginfo>
						<scene/>
						<shottake/>
						<lognote/>
						<good>FALSE</good>
					</logginginfo>
					<labels>
						<label2/>
					</labels>
					<comments>
						<mastercomment1/>
						<mastercomment2/>
						<mastercomment3/>
						<mastercomment4/>
					</comments>
					<file id="C0022 15">
						<name>C0022.mov</name>
						<pathurl>file://localhost/Volumes/Askepott/Prosjekter/DNPR637010_Kra%CC%8Akeklubben_TEM_011212/Video/Tords%20Garasje/SESONG%203/Flue/XDCAM/C0022.mov</pathurl>
						<rate>
							<timebase>25</timebase>
						</rate>
						<duration>840</duration>
						<timecode>
							<rate>
								<timebase>25</timebase>
							</rate>
							<string>12:32:42:01</string>
							<frame>1129051</frame>
							<displayformat>NDF</displayformat>
							<source>source</source>
							<reel>
								<name>XDCAM 20120309_113707</name>
							</reel>
						</timecode>
						<media>
							<video>
								<duration>840</duration>
								<samplecharacteristics>
									<width>1920</width>
									<height>1080</height>
								</samplecharacteristics>
							</video>
							<audio>
								<rate>
									<timebase>48000</timebase>
								</rate>
								<trackcount>1</trackcount>
								<channeldescription>8 Channels</channeldescription>
								<samplecharacteristics>
									<depth>24</depth>
								</samplecharacteristics>
							</audio>
						</media>
					</file>
					<filter>
						<effect>
							<name>Audio Levels</name>
							<effectid>audiolevels</effectid>
							<effectcategory>audiolevels</effectcategory>
							<effecttype>audiolevels</effecttype>
							<mediatype>audio</mediatype>
							<parameter>
								<name>Level</name>
								<parameterid>level</parameterid>
								<valuemin>0</valuemin>
								<valuemax>3.98109</valuemax>
								<value>1</value>
							</parameter>
						</effect>
					</filter>
					<filter>
						<effect>
							<name>Audio Pan</name>
							<effectid>audiopan</effectid>
							<effectcategory>audiopan</effectcategory>
							<effecttype>audiopan</effecttype>
							<mediatype>audio</mediatype>
							<parameter>
								<name>Pan</name>
								<parameterid>pan</parameterid>
								<valuemin>-1</valuemin>
								<valuemax>1</valuemax>
								<value>0</value>
							</parameter>
						</effect>
					</filter>
					<sourcetrack>
						<mediatype>audio</mediatype>
						<trackindex>1</trackindex>
					</sourcetrack>
				</clipitem>
				<clipitem id="C0016 5">
					<name>C0016</name>
					<duration>1537</duration>
					<rate>
						<ntsc>FALSE</ntsc>
						<timebase>25</timebase>
					</rate>
					<in>108</in>
					<out>325</out>
					<start>19329</start>
					<end>19546</end>
					<subframeoffset>0</subframeoffset>
					<masterclipid>C0016 3</masterclipid>
					<logginginfo>
						<scene/>
						<shottake/>
						<lognote/>
						<good>FALSE</good>
					</logginginfo>
					<labels>
						<label2/>
					</labels>
					<comments>
						<mastercomment1/>
						<mastercomment2/>
						<mastercomment3/>
						<mastercomment4/>
					</comments>
					<file id="C0016 4"/>
					<filter>
						<effect>
							<name>Audio Levels</name>
							<effectid>audiolevels</effectid>
							<effectcategory>audiolevels</effectcategory>
							<effecttype>audiolevels</effecttype>
							<mediatype>audio</mediatype>
							<parameter>
								<name>Level</name>
								<parameterid>level</parameterid>
								<valuemin>0</valuemin>
								<valuemax>3.98109</valuemax>
								<value>3.98107</value>
							</parameter>
						</effect>
					</filter>
					<filter>
						<effect>
							<name>Audio Pan</name>
							<effectid>audiopan</effectid>
							<effectcategory>audiopan</effectcategory>
							<effecttype>audiopan</effecttype>
							<mediatype>audio</mediatype>
							<parameter>
								<name>Pan</name>
								<parameterid>pan</parameterid>
								<valuemin>-1</valuemin>
								<valuemax>1</valuemax>
								<value>0</value>
							</parameter>
						</effect>
					</filter>
					<sourcetrack>
						<mediatype>audio</mediatype>
						<trackindex>1</trackindex>
					</sourcetrack>
					<link>
						<linkclipref>C0016 2</linkclipref>
						<mediatype>video</mediatype>
						<trackindex>1</trackindex>
						<clipindex>136</clipindex>
					</link>
					<link>
						<linkclipref>C0016 5</linkclipref>
						<mediatype>audio</mediatype>
						<trackindex>1</trackindex>
						<clipindex>170</clipindex>
					</link>
					<link>
						<linkclipref>C0016 6</linkclipref>
						<mediatype>audio</mediatype>
						<trackindex>2</trackindex>
						<clipindex>91</clipindex>
					</link>
				</clipitem>
				<clipitem id="C0019 3">
					<name>C0019</name>
					<duration>621</duration>
					<rate>
						<ntsc>FALSE</ntsc>
						<timebase>25</timebase>
					</rate>
					<in>207</in>
					<out>276</out>
					<start>19546</start>
					<end>19615</end>
					<subframeoffset>0</subframeoffset>
					<masterclipid>C0019 1</masterclipid>
					<logginginfo>
						<scene/>
						<shottake/>
						<lognote/>
						<good>FALSE</good>
					</logginginfo>
					<labels>
						<label2/>
					</labels>
					<comments>
						<mastercomment1/>
						<mastercomment2/>
						<mastercomment3/>
						<mastercomment4/>
					</comments>
					<file id="C0019 2"/>
					<filter>
						<effect>
							<name>Audio Levels</name>
							<effectid>audiolevels</effectid>
							<effectcategory>audiolevels</effectcategory>
							<effecttype>audiolevels</effecttype>
							<mediatype>audio</mediatype>
							<parameter>
								<name>Level</name>
								<parameterid>level</parameterid>
								<valuemin>0</valuemin>
								<valuemax>3.98109</valuemax>
								<value>3.98107</value>
							</parameter>
						</effect>
					</filter>
					<filter>
						<effect>
							<name>Audio Pan</name>
							<effectid>audiopan</effectid>
							<effectcategory>audiopan</effectcategory>
							<effecttype>audiopan</effecttype>
							<mediatype>audio</mediatype>
							<parameter>
								<name>Pan</name>
								<parameterid>pan</parameterid>
								<valuemin>-1</valuemin>
								<valuemax>1</valuemax>
								<value>0</value>
							</parameter>
						</effect>
					</filter>
					<sourcetrack>
						<mediatype>audio</mediatype>
						<trackindex>1</trackindex>
					</sourcetrack>
					<link>
						<linkclipref>C0019 </linkclipref>
						<mediatype>video</mediatype>
						<trackindex>1</trackindex>
						<clipindex>137</clipindex>
					</link>
					<link>
						<linkclipref>C0019 3</linkclipref>
						<mediatype>audio</mediatype>
						<trackindex>1</trackindex>
						<clipindex>171</clipindex>
					</link>
					<link>
						<linkclipref>C0019 4</linkclipref>
						<mediatype>audio</mediatype>
						<trackindex>2</trackindex>
						<clipindex>92</clipindex>
					</link>
				</clipitem>
				<clipitem id="C0001 3">
					<name>C0001</name>
					<duration>1416</duration>
					<rate>
						<ntsc>FALSE</ntsc>
						<timebase>25</timebase>
					</rate>
					<in>1112</in>
					<out>1266</out>
					<start>19615</start>
					<end>-1</end>
					<subframeoffset>0</subframeoffset>
					<masterclipid>C0001 1</masterclipid>
					<logginginfo>
						<scene/>
						<shottake/>
						<lognote/>
						<good>FALSE</good>
					</logginginfo>
					<labels>
						<label2/>
					</labels>
					<comments>
						<mastercomment1/>
						<mastercomment2/>
						<mastercomment3/>
						<mastercomment4/>
					</comments>
					<file id="C0001 2"/>
					<filter>
						<effect>
							<name>Audio Levels</name>
							<effectid>audiolevels</effectid>
							<effectcategory>audiolevels</effectcategory>
							<effecttype>audiolevels</effecttype>
							<mediatype>audio</mediatype>
							<parameter>
								<name>Level</name>
								<parameterid>level</parameterid>
								<valuemin>0</valuemin>
								<valuemax>3.98109</valuemax>
								<value>1</value>
							</parameter>
						</effect>
					</filter>
					<filter>
						<effect>
							<name>Audio Pan</name>
							<effectid>audiopan</effectid>
							<effectcategory>audiopan</effectcategory>
							<effecttype>audiopan</effecttype>
							<mediatype>audio</mediatype>
							<parameter>
								<name>Pan</name>
								<parameterid>pan</parameterid>
								<valuemin>-1</valuemin>
								<valuemax>1</valuemax>
								<value>0</value>
							</parameter>
						</effect>
					</filter>
					<sourcetrack>
						<mediatype>audio</mediatype>
						<trackindex>1</trackindex>
					</sourcetrack>
					<link>
						<linkclipref>C0001 </linkclipref>
						<mediatype>video</mediatype>
						<trackindex>1</trackindex>
						<clipindex>138</clipindex>
					</link>
					<link>
						<linkclipref>C0001 3</linkclipref>
						<mediatype>audio</mediatype>
						<trackindex>1</trackindex>
						<clipindex>172</clipindex>
					</link>
					<link>
						<linkclipref>C0001 4</linkclipref>
						<mediatype>audio</mediatype>
						<trackindex>2</trackindex>
						<clipindex>93</clipindex>
					</link>
				</clipitem>
				<transitionitem id="1763677892 ">
					<rate>
						<ntsc>FALSE</ntsc>
						<timebase>25</timebase>
					</rate>
					<start>19766</start>
					<end>19769</end>
					<alignment>end</alignment>
					<effect>
						<name>Cross Fade (+3dB)</name>
						<effecttype>transition</effecttype>
						<mediatype>audio</mediatype>
					</effect>
				</transitionitem>
				<clipitem id="C0020 11">
					<name>C0020</name>
					<duration>563</duration>
					<rate>
						<ntsc>FALSE</ntsc>
						<timebase>25</timebase>
					</rate>
					<in>353</in>
					<out>464</out>
					<start>-1</start>
					<end>19877</end>
					<subframeoffset>0</subframeoffset>
					<masterclipid>C0020 9</masterclipid>
					<logginginfo>
						<scene/>
						<shottake/>
						<lognote/>
						<good>FALSE</good>
					</logginginfo>
					<labels>
						<label2/>
					</labels>
					<comments>
						<mastercomment1/>
						<mastercomment2/>
						<mastercomment3/>
						<mastercomment4/>
					</comments>
					<file id="C0020 10"/>
					<filter>
						<effect>
							<name>Audio Levels</name>
							<effectid>audiolevels</effectid>
							<effectcategory>audiolevels</effectcategory>
							<effecttype>audiolevels</effecttype>
							<mediatype>audio</mediatype>
							<parameter>
								<name>Level</name>
								<parameterid>level</parameterid>
								<valuemin>0</valuemin>
								<valuemax>3.98109</valuemax>
								<value>0</value>
							</parameter>
						</effect>
					</filter>
					<filter>
						<effect>
							<name>Audio Pan</name>
							<effectid>audiopan</effectid>
							<effectcategory>audiopan</effectcategory>
							<effecttype>audiopan</effecttype>
							<mediatype>audio</mediatype>
							<parameter>
								<name>Pan</name>
								<parameterid>pan</parameterid>
								<valuemin>-1</valuemin>
								<valuemax>1</valuemax>
								<value>0</value>
							</parameter>
						</effect>
					</filter>
					<sourcetrack>
						<mediatype>audio</mediatype>
						<trackindex>1</trackindex>
					</sourcetrack>
					<link>
						<linkclipref>C0020 8</linkclipref>
						<mediatype>video</mediatype>
						<trackindex>1</trackindex>
						<clipindex>139</clipindex>
					</link>
					<link>
						<linkclipref>C0020 11</linkclipref>
						<mediatype>audio</mediatype>
						<trackindex>1</trackindex>
						<clipindex>174</clipindex>
					</link>
					<link>
						<linkclipref>C0020 12</linkclipref>
						<mediatype>audio</mediatype>
						<trackindex>2</trackindex>
						<clipindex>95</clipindex>
					</link>
				</clipitem>
				<clipitem id="C0011 11">
					<name>C0011</name>
					<duration>422</duration>
					<rate>
						<ntsc>FALSE</ntsc>
						<timebase>25</timebase>
					</rate>
					<in>70</in>
					<out>135</out>
					<start>19877</start>
					<end>19942</end>
					<subframeoffset>0</subframeoffset>
					<masterclipid>C0011 9</masterclipid>
					<logginginfo>
						<scene/>
						<shottake/>
						<lognote/>
						<good>FALSE</good>
					</logginginfo>
					<labels>
						<label2/>
					</labels>
					<comments>
						<mastercomment1/>
						<mastercomment2/>
						<mastercomment3/>
						<mastercomment4/>
					</comments>
					<file id="C0011 10"/>
					<filter>
						<effect>
							<name>Audio Levels</name>
							<effectid>audiolevels</effectid>
							<effectcategory>audiolevels</effectcategory>
							<effecttype>audiolevels</effecttype>
							<mediatype>audio</mediatype>
							<parameter>
								<name>Level</name>
								<parameterid>level</parameterid>
								<valuemin>0</valuemin>
								<valuemax>3.98109</valuemax>
								<value>1</value>
							</parameter>
						</effect>
					</filter>
					<filter>
						<effect>
							<name>Audio Pan</name>
							<effectid>audiopan</effectid>
							<effectcategory>audiopan</effectcategory>
							<effecttype>audiopan</effecttype>
							<mediatype>audio</mediatype>
							<parameter>
								<name>Pan</name>
								<parameterid>pan</parameterid>
								<valuemin>-1</valuemin>
								<valuemax>1</valuemax>
								<value>0</value>
							</parameter>
						</effect>
					</filter>
					<sourcetrack>
						<mediatype>audio</mediatype>
						<trackindex>1</trackindex>
					</sourcetrack>
					<link>
						<linkclipref>C0011 8</linkclipref>
						<mediatype>video</mediatype>
						<trackindex>1</trackindex>
						<clipindex>140</clipindex>
					</link>
					<link>
						<linkclipref>C0011 11</linkclipref>
						<mediatype>audio</mediatype>
						<trackindex>1</trackindex>
						<clipindex>175</clipindex>
					</link>
				</clipitem>
				<clipitem id="C0023 8">
					<name>C0023</name>
					<duration>1465</duration>
					<rate>
						<ntsc>FALSE</ntsc>
						<timebase>25</timebase>
					</rate>
					<in>505</in>
					<out>545</out>
					<start>19942</start>
					<end>19982</end>
					<subframeoffset>0</subframeoffset>
					<masterclipid>C0023 1</masterclipid>
					<logginginfo>
						<scene/>
						<shottake/>
						<lognote/>
						<good>FALSE</good>
					</logginginfo>
					<labels>
						<label2/>
					</labels>
					<comments>
						<mastercomment1/>
						<mastercomment2/>
						<mastercomment3/>
						<mastercomment4/>
					</comments>
					<file id="C0023 2"/>
					<filter>
						<effect>
							<name>Audio Levels</name>
							<effectid>audiolevels</effectid>
							<effectcategory>audiolevels</effectcategory>
							<effecttype>audiolevels</effecttype>
							<mediatype>audio</mediatype>
							<parameter>
								<name>Level</name>
								<parameterid>level</parameterid>
								<valuemin>0</valuemin>
								<valuemax>3.98109</valuemax>
								<value>1</value>
							</parameter>
						</effect>
					</filter>
					<filter>
						<effect>
							<name>Audio Pan</name>
							<effectid>audiopan</effectid>
							<effectcategory>audiopan</effectcategory>
							<effecttype>audiopan</effecttype>
							<mediatype>audio</mediatype>
							<parameter>
								<name>Pan</name>
								<parameterid>pan</parameterid>
								<valuemin>-1</valuemin>
								<valuemax>1</valuemax>
								<value>0</value>
							</parameter>
						</effect>
					</filter>
					<sourcetrack>
						<mediatype>audio</mediatype>
						<trackindex>1</trackindex>
					</sourcetrack>
					<link>
						<linkclipref>C0023 8</linkclipref>
						<mediatype>audio</mediatype>
						<trackindex>1</trackindex>
						<clipindex>176</clipindex>
					</link>
					<link>
						<linkclipref>C0023 9</linkclipref>
						<mediatype>audio</mediatype>
						<trackindex>2</trackindex>
						<clipindex>97</clipindex>
					</link>
				</clipitem>
				<clipitem id="C0016 16">
					<name>C0016</name>
					<duration>1537</duration>
					<rate>
						<ntsc>FALSE</ntsc>
						<timebase>25</timebase>
					</rate>
					<in>774</in>
					<out>822</out>
					<start>19982</start>
					<end>20030</end>
					<subframeoffset>0</subframeoffset>
					<masterclipid>C0016 3</masterclipid>
					<logginginfo>
						<scene/>
						<shottake/>
						<lognote/>
						<good>FALSE</good>
					</logginginfo>
					<labels>
						<label2/>
					</labels>
					<comments>
						<mastercomment1/>
						<mastercomment2/>
						<mastercomment3/>
						<mastercomment4/>
					</comments>
					<file id="C0016 4"/>
					<filter>
						<effect>
							<name>Audio Levels</name>
							<effectid>audiolevels</effectid>
							<effectcategory>audiolevels</effectcategory>
							<effecttype>audiolevels</effecttype>
							<mediatype>audio</mediatype>
							<parameter>
								<name>Level</name>
								<parameterid>level</parameterid>
								<valuemin>0</valuemin>
								<valuemax>3.98109</valuemax>
								<value>3.98107</value>
							</parameter>
						</effect>
					</filter>
					<filter>
						<effect>
							<name>Audio Pan</name>
							<effectid>audiopan</effectid>
							<effectcategory>audiopan</effectcategory>
							<effecttype>audiopan</effecttype>
							<mediatype>audio</mediatype>
							<parameter>
								<name>Pan</name>
								<parameterid>pan</parameterid>
								<valuemin>-1</valuemin>
								<valuemax>1</valuemax>
								<value>0</value>
							</parameter>
						</effect>
					</filter>
					<sourcetrack>
						<mediatype>audio</mediatype>
						<trackindex>1</trackindex>
					</sourcetrack>
				</clipitem>
				<clipitem id="C0011 13">
					<name>C0011</name>
					<duration>422</duration>
					<rate>
						<ntsc>FALSE</ntsc>
						<timebase>25</timebase>
					</rate>
					<in>274</in>
					<out>365</out>
					<start>20030</start>
					<end>20121</end>
					<subframeoffset>0</subframeoffset>
					<masterclipid>C0011 9</masterclipid>
					<logginginfo>
						<scene/>
						<shottake/>
						<lognote/>
						<good>FALSE</good>
					</logginginfo>
					<labels>
						<label2/>
					</labels>
					<comments>
						<mastercomment1/>
						<mastercomment2/>
						<mastercomment3/>
						<mastercomment4/>
					</comments>
					<file id="C0011 10"/>
					<filter>
						<effect>
							<name>Audio Levels</name>
							<effectid>audiolevels</effectid>
							<effectcategory>audiolevels</effectcategory>
							<effecttype>audiolevels</effecttype>
							<mediatype>audio</mediatype>
							<parameter>
								<name>Level</name>
								<parameterid>level</parameterid>
								<valuemin>0</valuemin>
								<valuemax>3.98109</valuemax>
								<value>3.98107</value>
							</parameter>
						</effect>
					</filter>
					<filter>
						<effect>
							<name>Audio Pan</name>
							<effectid>audiopan</effectid>
							<effectcategory>audiopan</effectcategory>
							<effecttype>audiopan</effecttype>
							<mediatype>audio</mediatype>
							<parameter>
								<name>Pan</name>
								<parameterid>pan</parameterid>
								<valuemin>-1</valuemin>
								<valuemax>1</valuemax>
								<value>0</value>
							</parameter>
						</effect>
					</filter>
					<sourcetrack>
						<mediatype>audio</mediatype>
						<trackindex>1</trackindex>
					</sourcetrack>
					<link>
						<linkclipref>C0011 12</linkclipref>
						<mediatype>video</mediatype>
						<trackindex>1</trackindex>
						<clipindex>142</clipindex>
					</link>
					<link>
						<linkclipref>C0011 13</linkclipref>
						<mediatype>audio</mediatype>
						<trackindex>1</trackindex>
						<clipindex>178</clipindex>
					</link>
					<link>
						<linkclipref>C0011 14</linkclipref>
						<mediatype>audio</mediatype>
						<trackindex>2</trackindex>
						<clipindex>100</clipindex>
					</link>
				</clipitem>
				<clipitem id="C0008 8">
					<name>C0008</name>
					<duration>1377</duration>
					<rate>
						<ntsc>FALSE</ntsc>
						<timebase>25</timebase>
					</rate>
					<in>762</in>
					<out>853</out>
					<start>20121</start>
					<end>20212</end>
					<subframeoffset>0</subframeoffset>
					<masterclipid>C0008 6</masterclipid>
					<logginginfo>
						<scene/>
						<shottake/>
						<lognote/>
						<good>FALSE</good>
					</logginginfo>
					<labels>
						<label2/>
					</labels>
					<comments>
						<mastercomment1/>
						<mastercomment2/>
						<mastercomment3/>
						<mastercomment4/>
					</comments>
					<file id="C0008 7"/>
					<filter>
						<effect>
							<name>Audio Levels</name>
							<effectid>audiolevels</effectid>
							<effectcategory>audiolevels</effectcategory>
							<effecttype>audiolevels</effecttype>
							<mediatype>audio</mediatype>
							<parameter>
								<name>Level</name>
								<parameterid>level</parameterid>
								<valuemin>0</valuemin>
								<valuemax>3.98109</valuemax>
								<value>2.51189</value>
							</parameter>
						</effect>
					</filter>
					<filter>
						<effect>
							<name>Audio Pan</name>
							<effectid>audiopan</effectid>
							<effectcategory>audiopan</effectcategory>
							<effecttype>audiopan</effecttype>
							<mediatype>audio</mediatype>
							<parameter>
								<name>Pan</name>
								<parameterid>pan</parameterid>
								<valuemin>-1</valuemin>
								<valuemax>1</valuemax>
								<value>0</value>
							</parameter>
						</effect>
					</filter>
					<sourcetrack>
						<mediatype>audio</mediatype>
						<trackindex>1</trackindex>
					</sourcetrack>
					<link>
						<linkclipref>C0008 5</linkclipref>
						<mediatype>video</mediatype>
						<trackindex>1</trackindex>
						<clipindex>143</clipindex>
					</link>
					<link>
						<linkclipref>C0008 8</linkclipref>
						<mediatype>audio</mediatype>
						<trackindex>1</trackindex>
						<clipindex>179</clipindex>
					</link>
					<link>
						<linkclipref>C0008 9</linkclipref>
						<mediatype>audio</mediatype>
						<trackindex>2</trackindex>
						<clipindex>101</clipindex>
					</link>
				</clipitem>
				<clipitem id="C0023 3">
					<name>C0023</name>
					<duration>1465</duration>
					<rate>
						<ntsc>FALSE</ntsc>
						<timebase>25</timebase>
					</rate>
					<in>825</in>
					<out>946</out>
					<start>20212</start>
					<end>20333</end>
					<subframeoffset>0</subframeoffset>
					<masterclipid>C0023 1</masterclipid>
					<logginginfo>
						<scene/>
						<shottake/>
						<lognote/>
						<good>FALSE</good>
					</logginginfo>
					<labels>
						<label2/>
					</labels>
					<comments>
						<mastercomment1/>
						<mastercomment2/>
						<mastercomment3/>
						<mastercomment4/>
					</comments>
					<file id="C0023 2"/>
					<filter>
						<effect>
							<name>Audio Levels</name>
							<effectid>audiolevels</effectid>
							<effectcategory>audiolevels</effectcategory>
							<effecttype>audiolevels</effecttype>
							<mediatype>audio</mediatype>
							<parameter>
								<name>Level</name>
								<parameterid>level</parameterid>
								<valuemin>0</valuemin>
								<valuemax>3.98109</valuemax>
								<value>3.98107</value>
							</parameter>
						</effect>
					</filter>
					<filter>
						<effect>
							<name>Audio Pan</name>
							<effectid>audiopan</effectid>
							<effectcategory>audiopan</effectcategory>
							<effecttype>audiopan</effecttype>
							<mediatype>audio</mediatype>
							<parameter>
								<name>Pan</name>
								<parameterid>pan</parameterid>
								<valuemin>-1</valuemin>
								<valuemax>1</valuemax>
								<value>0</value>
							</parameter>
						</effect>
					</filter>
					<sourcetrack>
						<mediatype>audio</mediatype>
						<trackindex>1</trackindex>
					</sourcetrack>
					<link>
						<linkclipref>C0023 </linkclipref>
						<mediatype>video</mediatype>
						<trackindex>1</trackindex>
						<clipindex>144</clipindex>
					</link>
					<link>
						<linkclipref>C0023 3</linkclipref>
						<mediatype>audio</mediatype>
						<trackindex>1</trackindex>
						<clipindex>180</clipindex>
					</link>
					<link>
						<linkclipref>C0023 4</linkclipref>
						<mediatype>audio</mediatype>
						<trackindex>2</trackindex>
						<clipindex>102</clipindex>
					</link>
				</clipitem>
				<clipitem id="C0016 9">
					<name>C0016</name>
					<duration>1537</duration>
					<rate>
						<ntsc>FALSE</ntsc>
						<timebase>25</timebase>
					</rate>
					<in>1108</in>
					<out>1390</out>
					<start>20333</start>
					<end>20615</end>
					<subframeoffset>0</subframeoffset>
					<masterclipid>C0016 3</masterclipid>
					<logginginfo>
						<scene/>
						<shottake/>
						<lognote/>
						<good>FALSE</good>
					</logginginfo>
					<labels>
						<label2/>
					</labels>
					<comments>
						<mastercomment1/>
						<mastercomment2/>
						<mastercomment3/>
						<mastercomment4/>
					</comments>
					<file id="C0016 4"/>
					<filter>
						<effect>
							<name>Audio Levels</name>
							<effectid>audiolevels</effectid>
							<effectcategory>audiolevels</effectcategory>
							<effecttype>audiolevels</effecttype>
							<mediatype>audio</mediatype>
							<parameter>
								<name>Level</name>
								<parameterid>level</parameterid>
								<valuemin>0</valuemin>
								<valuemax>3.98109</valuemax>
								<value>3.98107</value>
							</parameter>
						</effect>
					</filter>
					<filter>
						<effect>
							<name>Audio Pan</name>
							<effectid>audiopan</effectid>
							<effectcategory>audiopan</effectcategory>
							<effecttype>audiopan</effecttype>
							<mediatype>audio</mediatype>
							<parameter>
								<name>Pan</name>
								<parameterid>pan</parameterid>
								<valuemin>-1</valuemin>
								<valuemax>1</valuemax>
								<value>0</value>
							</parameter>
						</effect>
					</filter>
					<sourcetrack>
						<mediatype>audio</mediatype>
						<trackindex>1</trackindex>
					</sourcetrack>
					<link>
						<linkclipref>C0016 8</linkclipref>
						<mediatype>video</mediatype>
						<trackindex>1</trackindex>
						<clipindex>145</clipindex>
					</link>
					<link>
						<linkclipref>C0016 9</linkclipref>
						<mediatype>audio</mediatype>
						<trackindex>1</trackindex>
						<clipindex>181</clipindex>
					</link>
					<link>
						<linkclipref>C0016 10</linkclipref>
						<mediatype>audio</mediatype>
						<trackindex>2</trackindex>
						<clipindex>103</clipindex>
					</link>
				</clipitem>
				<clipitem id="C0023 6">
					<name>C0023</name>
					<duration>1465</duration>
					<rate>
						<ntsc>FALSE</ntsc>
						<timebase>25</timebase>
					</rate>
					<in>1307</in>
					<out>1344</out>
					<start>20615</start>
					<end>20652</end>
					<subframeoffset>0</subframeoffset>
					<masterclipid>C0023 1</masterclipid>
					<logginginfo>
						<scene/>
						<shottake/>
						<lognote/>
						<good>FALSE</good>
					</logginginfo>
					<labels>
						<label2/>
					</labels>
					<comments>
						<mastercomment1/>
						<mastercomment2/>
						<mastercomment3/>
						<mastercomment4/>
					</comments>
					<file id="C0023 2"/>
					<filter>
						<effect>
							<name>Audio Levels</name>
							<effectid>audiolevels</effectid>
							<effectcategory>audiolevels</effectcategory>
							<effecttype>audiolevels</effecttype>
							<mediatype>audio</mediatype>
							<parameter>
								<name>Level</name>
								<parameterid>level</parameterid>
								<valuemin>0</valuemin>
								<valuemax>3.98109</valuemax>
								<value>1</value>
							</parameter>
						</effect>
					</filter>
					<filter>
						<effect>
							<name>Audio Pan</name>
							<effectid>audiopan</effectid>
							<effectcategory>audiopan</effectcategory>
							<effecttype>audiopan</effecttype>
							<mediatype>audio</mediatype>
							<parameter>
								<name>Pan</name>
								<parameterid>pan</parameterid>
								<valuemin>-1</valuemin>
								<valuemax>1</valuemax>
								<value>0</value>
							</parameter>
						</effect>
					</filter>
					<sourcetrack>
						<mediatype>audio</mediatype>
						<trackindex>1</trackindex>
					</sourcetrack>
					<link>
						<linkclipref>C0023 5</linkclipref>
						<mediatype>video</mediatype>
						<trackindex>1</trackindex>
						<clipindex>147</clipindex>
					</link>
					<link>
						<linkclipref>C0023 6</linkclipref>
						<mediatype>audio</mediatype>
						<trackindex>1</trackindex>
						<clipindex>182</clipindex>
					</link>
					<link>
						<linkclipref>C0023 7</linkclipref>
						<mediatype>audio</mediatype>
						<trackindex>2</trackindex>
						<clipindex>110</clipindex>
					</link>
				</clipitem>
				<clipitem id="C0066 4">
					<name>C0066</name>
					<duration>584</duration>
					<rate>
						<ntsc>FALSE</ntsc>
						<timebase>25</timebase>
					</rate>
					<in>133</in>
					<out>418</out>
					<start>20652</start>
					<end>20937</end>
					<subframeoffset>0</subframeoffset>
					<enabled>TRUE</enabled>
					<masterclipid>C0066 1</masterclipid>
					<logginginfo>
						<scene/>
						<shottake/>
						<lognote/>
						<good>FALSE</good>
					</logginginfo>
					<labels>
						<label2/>
					</labels>
					<comments>
						<mastercomment1/>
						<mastercomment2/>
						<mastercomment3/>
						<mastercomment4/>
					</comments>
					<file id="C0066 2"/>
					<filter>
						<enabled>TRUE</enabled>
						<start>-1</start>
						<end>-1</end>
						<effect>
							<name>Gain</name>
							<effecttype>filter</effecttype>
							<mediatype>audio</mediatype>
							<parameter>
								<parameterid>Gain(dB)</parameterid>
								<name>Gain(dB)</name>
								<valuemin>-96</valuemin>
								<valuemax>96</valuemax>
								<value>8</value>
							</parameter>
						</effect>
					</filter>
					<filter>
						<effect>
							<name>Audio Levels</name>
							<effectid>audiolevels</effectid>
							<effectcategory>audiolevels</effectcategory>
							<effecttype>audiolevels</effecttype>
							<mediatype>audio</mediatype>
							<parameter>
								<name>Level</name>
								<parameterid>level</parameterid>
								<valuemin>0</valuemin>
								<valuemax>3.98109</valuemax>
								<value>3.98107</value>
							</parameter>
						</effect>
					</filter>
					<filter>
						<effect>
							<name>Audio Pan</name>
							<effectid>audiopan</effectid>
							<effectcategory>audiopan</effectcategory>
							<effecttype>audiopan</effecttype>
							<mediatype>audio</mediatype>
							<parameter>
								<name>Pan</name>
								<parameterid>pan</parameterid>
								<valuemin>-1</valuemin>
								<valuemax>1</valuemax>
								<value>0</value>
							</parameter>
						</effect>
					</filter>
					<sourcetrack>
						<mediatype>audio</mediatype>
						<trackindex>1</trackindex>
					</sourcetrack>
				</clipitem>
				<clipitem id="C0066 5">
					<name>C0066</name>
					<duration>584</duration>
					<rate>
						<ntsc>FALSE</ntsc>
						<timebase>25</timebase>
					</rate>
					<in>446</in>
					<out>522</out>
					<start>20937</start>
					<end>21013</end>
					<subframeoffset>0</subframeoffset>
					<masterclipid>C0066 1</masterclipid>
					<logginginfo>
						<scene/>
						<shottake/>
						<lognote/>
						<good>FALSE</good>
					</logginginfo>
					<labels>
						<label2/>
					</labels>
					<comments>
						<mastercomment1/>
						<mastercomment2/>
						<mastercomment3/>
						<mastercomment4/>
					</comments>
					<file id="C0066 2"/>
					<filter>
						<start>-1</start>
						<end>-1</end>
						<effect>
							<name>Gain</name>
							<effecttype>filter</effecttype>
							<mediatype>audio</mediatype>
							<parameter>
								<parameterid>Gain(dB)</parameterid>
								<name>Gain(dB)</name>
								<valuemin>-96</valuemin>
								<valuemax>96</valuemax>
								<value>0</value>
							</parameter>
						</effect>
					</filter>
					<filter>
						<start>-1</start>
						<end>-1</end>
						<effect>
							<name>Gain - 2</name>
							<effecttype>filter</effecttype>
							<mediatype>audio</mediatype>
							<parameter>
								<parameterid>Gain(dB)</parameterid>
								<name>Gain(dB)</name>
								<valuemin>-96</valuemin>
								<valuemax>96</valuemax>
								<value>8</value>
							</parameter>
						</effect>
					</filter>
					<filter>
						<effect>
							<name>Audio Levels</name>
							<effectid>audiolevels</effectid>
							<effectcategory>audiolevels</effectcategory>
							<effecttype>audiolevels</effecttype>
							<mediatype>audio</mediatype>
							<parameter>
								<name>Level</name>
								<parameterid>level</parameterid>
								<valuemin>0</valuemin>
								<valuemax>3.98109</valuemax>
								<value>3.98107</value>
							</parameter>
						</effect>
					</filter>
					<filter>
						<effect>
							<name>Audio Pan</name>
							<effectid>audiopan</effectid>
							<effectcategory>audiopan</effectcategory>
							<effecttype>audiopan</effecttype>
							<mediatype>audio</mediatype>
							<parameter>
								<name>Pan</name>
								<parameterid>pan</parameterid>
								<valuemin>-1</valuemin>
								<valuemax>1</valuemax>
								<value>0</value>
							</parameter>
						</effect>
					</filter>
					<sourcetrack>
						<mediatype>audio</mediatype>
						<trackindex>1</trackindex>
					</sourcetrack>
				</clipitem>
				<clipitem id="C0072 3">
					<name>C0072</name>
					<duration>727</duration>
					<rate>
						<ntsc>FALSE</ntsc>
						<timebase>25</timebase>
					</rate>
					<in>124</in>
					<out>311</out>
					<start>21013</start>
					<end>21200</end>
					<subframeoffset>0</subframeoffset>
					<masterclipid>C0072 1</masterclipid>
					<logginginfo>
						<scene/>
						<shottake/>
						<lognote/>
						<good>FALSE</good>
					</logginginfo>
					<labels>
						<label2/>
					</labels>
					<comments>
						<mastercomment1/>
						<mastercomment2/>
						<mastercomment3/>
						<mastercomment4/>
					</comments>
					<file id="C0072 2"/>
					<filter>
						<effect>
							<name>Audio Levels</name>
							<effectid>audiolevels</effectid>
							<effectcategory>audiolevels</effectcategory>
							<effecttype>audiolevels</effecttype>
							<mediatype>audio</mediatype>
							<parameter>
								<name>Level</name>
								<parameterid>level</parameterid>
								<valuemin>0</valuemin>
								<valuemax>3.98109</valuemax>
								<value>3.98107</value>
							</parameter>
						</effect>
					</filter>
					<filter>
						<effect>
							<name>Audio Pan</name>
							<effectid>audiopan</effectid>
							<effectcategory>audiopan</effectcategory>
							<effecttype>audiopan</effecttype>
							<mediatype>audio</mediatype>
							<parameter>
								<name>Pan</name>
								<parameterid>pan</parameterid>
								<valuemin>-1</valuemin>
								<valuemax>1</valuemax>
								<value>0</value>
							</parameter>
						</effect>
					</filter>
					<sourcetrack>
						<mediatype>audio</mediatype>
						<trackindex>3</trackindex>
					</sourcetrack>
					<link>
						<linkclipref>C0072 </linkclipref>
						<mediatype>video</mediatype>
						<trackindex>1</trackindex>
						<clipindex>150</clipindex>
					</link>
					<link>
						<linkclipref>C0072 3</linkclipref>
						<mediatype>audio</mediatype>
						<trackindex>1</trackindex>
						<clipindex>185</clipindex>
					</link>
				</clipitem>
				<clipitem id="C0072 7">
					<name>C0072</name>
					<duration>727</duration>
					<rate>
						<ntsc>FALSE</ntsc>
						<timebase>25</timebase>
					</rate>
					<in>437</in>
					<out>599</out>
					<start>21200</start>
					<end>-1</end>
					<subframeoffset>0</subframeoffset>
					<masterclipid>C0072 1</masterclipid>
					<logginginfo>
						<scene/>
						<shottake/>
						<lognote/>
						<good>FALSE</good>
					</logginginfo>
					<labels>
						<label2/>
					</labels>
					<comments>
						<mastercomment1/>
						<mastercomment2/>
						<mastercomment3/>
						<mastercomment4/>
					</comments>
					<file id="C0072 2"/>
					<filter>
						<effect>
							<name>Audio Levels</name>
							<effectid>audiolevels</effectid>
							<effectcategory>audiolevels</effectcategory>
							<effecttype>audiolevels</effecttype>
							<mediatype>audio</mediatype>
							<parameter>
								<name>Level</name>
								<parameterid>level</parameterid>
								<valuemin>0</valuemin>
								<valuemax>3.98109</valuemax>
								<value>3.98107</value>
							</parameter>
						</effect>
					</filter>
					<filter>
						<effect>
							<name>Audio Pan</name>
							<effectid>audiopan</effectid>
							<effectcategory>audiopan</effectcategory>
							<effecttype>audiopan</effecttype>
							<mediatype>audio</mediatype>
							<parameter>
								<name>Pan</name>
								<parameterid>pan</parameterid>
								<valuemin>-1</valuemin>
								<valuemax>1</valuemax>
								<value>0</value>
							</parameter>
						</effect>
					</filter>
					<sourcetrack>
						<mediatype>audio</mediatype>
						<trackindex>3</trackindex>
					</sourcetrack>
				</clipitem>
				<transitionitem id="1763670888 ">
					<rate>
						<ntsc>FALSE</ntsc>
						<timebase>25</timebase>
					</rate>
					<start>21354</start>
					<end>21362</end>
					<alignment>start</alignment>
					<effect>
						<name>Cross Fade (+3dB)</name>
						<effecttype>transition</effecttype>
						<mediatype>audio</mediatype>
					</effect>
				</transitionitem>
				<clipitem id="C0073 ">
					<name>C0073</name>
					<duration>944</duration>
					<rate>
						<ntsc>FALSE</ntsc>
						<timebase>25</timebase>
					</rate>
					<in>821</in>
					<out>908</out>
					<start>-1</start>
					<end>-1</end>
					<subframeoffset>0</subframeoffset>
					<masterclipid>C0073 1</masterclipid>
					<logginginfo>
						<scene/>
						<shottake/>
						<lognote/>
						<good>FALSE</good>
					</logginginfo>
					<labels>
						<label2/>
					</labels>
					<comments>
						<mastercomment1/>
						<mastercomment2/>
						<mastercomment3/>
						<mastercomment4/>
					</comments>
					<file id="C0073 2">
						<name>C0073.mov</name>
						<pathurl>file://localhost/Volumes/Askepott/Prosjekter/DNPR637010_Kra%CC%8Akeklubben_TEM_011212/Video/Mellomstikk/S03E%20D%C3%B8den/DAG%202/C0073.mov</pathurl>
						<rate>
							<timebase>25</timebase>
						</rate>
						<duration>944</duration>
						<timecode>
							<rate>
								<timebase>25</timebase>
							</rate>
							<string>06:17:01:13</string>
							<frame>565538</frame>
							<displayformat>NDF</displayformat>
							<source>source</source>
							<reel>
								<name>XDCAM 20120509_100358</name>
							</reel>
						</timecode>
						<media>
							<video>
								<duration>944</duration>
								<samplecharacteristics>
									<width>1920</width>
									<height>1080</height>
								</samplecharacteristics>
							</video>
							<audio>
								<rate>
									<timebase>48000</timebase>
								</rate>
								<trackcount>1</trackcount>
								<channeldescription>8 Channels</channeldescription>
								<samplecharacteristics>
									<depth>24</depth>
								</samplecharacteristics>
							</audio>
						</media>
					</file>
					<filter>
						<effect>
							<name>Audio Levels</name>
							<effectid>audiolevels</effectid>
							<effectcategory>audiolevels</effectcategory>
							<effecttype>audiolevels</effecttype>
							<mediatype>audio</mediatype>
							<parameter>
								<name>Level</name>
								<parameterid>level</parameterid>
								<valuemin>0</valuemin>
								<valuemax>3.98109</valuemax>
								<value>3.98107</value>
							</parameter>
						</effect>
					</filter>
					<filter>
						<effect>
							<name>Audio Pan</name>
							<effectid>audiopan</effectid>
							<effectcategory>audiopan</effectcategory>
							<effecttype>audiopan</effecttype>
							<mediatype>audio</mediatype>
							<parameter>
								<name>Pan</name>
								<parameterid>pan</parameterid>
								<valuemin>-1</valuemin>
								<valuemax>1</valuemax>
								<value>0</value>
							</parameter>
						</effect>
					</filter>
					<sourcetrack>
						<mediatype>audio</mediatype>
						<trackindex>3</trackindex>
					</sourcetrack>
				</clipitem>
				<transitionitem id="1763670140 ">
					<rate>
						<ntsc>FALSE</ntsc>
						<timebase>25</timebase>
					</rate>
					<start>21433</start>
					<end>21441</end>
					<alignment>start</alignment>
					<effect>
						<name>Cross Fade (+3dB)</name>
						<effecttype>transition</effecttype>
						<mediatype>audio</mediatype>
					</effect>
				</transitionitem>
				<clipitem id="C0068 3">
					<name>C0068</name>
					<duration>839</duration>
					<rate>
						<ntsc>FALSE</ntsc>
						<timebase>25</timebase>
					</rate>
					<in>333</in>
					<out>512</out>
					<start>-1</start>
					<end>21612</end>
					<subframeoffset>0</subframeoffset>
					<masterclipid>C0068 1</masterclipid>
					<logginginfo>
						<scene/>
						<shottake/>
						<lognote/>
						<good>FALSE</good>
					</logginginfo>
					<labels>
						<label2/>
					</labels>
					<comments>
						<mastercomment1/>
						<mastercomment2/>
						<mastercomment3/>
						<mastercomment4/>
					</comments>
					<file id="C0068 2"/>
					<filter>
						<effect>
							<name>Audio Levels</name>
							<effectid>audiolevels</effectid>
							<effectcategory>audiolevels</effectcategory>
							<effecttype>audiolevels</effecttype>
							<mediatype>audio</mediatype>
							<parameter>
								<name>Level</name>
								<parameterid>level</parameterid>
								<valuemin>0</valuemin>
								<valuemax>3.98109</valuemax>
								<value>3.98107</value>
							</parameter>
						</effect>
					</filter>
					<filter>
						<effect>
							<name>Audio Pan</name>
							<effectid>audiopan</effectid>
							<effectcategory>audiopan</effectcategory>
							<effecttype>audiopan</effecttype>
							<mediatype>audio</mediatype>
							<parameter>
								<name>Pan</name>
								<parameterid>pan</parameterid>
								<valuemin>-1</valuemin>
								<valuemax>1</valuemax>
								<value>0</value>
							</parameter>
						</effect>
					</filter>
					<sourcetrack>
						<mediatype>audio</mediatype>
						<trackindex>3</trackindex>
					</sourcetrack>
				</clipitem>
				<clipitem id="C0071 3">
					<name>C0071</name>
					<duration>807</duration>
					<rate>
						<ntsc>FALSE</ntsc>
						<timebase>25</timebase>
					</rate>
					<in>575</in>
					<out>718</out>
					<start>21612</start>
					<end>-1</end>
					<subframeoffset>0</subframeoffset>
					<masterclipid>C0071 1</masterclipid>
					<logginginfo>
						<scene/>
						<shottake/>
						<lognote/>
						<good>FALSE</good>
					</logginginfo>
					<labels>
						<label2/>
					</labels>
					<comments>
						<mastercomment1/>
						<mastercomment2/>
						<mastercomment3/>
						<mastercomment4/>
					</comments>
					<file id="C0071 2"/>
					<filter>
						<effect>
							<name>Audio Levels</name>
							<effectid>audiolevels</effectid>
							<effectcategory>audiolevels</effectcategory>
							<effecttype>audiolevels</effecttype>
							<mediatype>audio</mediatype>
							<parameter>
								<name>Level</name>
								<parameterid>level</parameterid>
								<valuemin>0</valuemin>
								<valuemax>3.98109</valuemax>
								<value>3.98107</value>
							</parameter>
						</effect>
					</filter>
					<filter>
						<effect>
							<name>Audio Pan</name>
							<effectid>audiopan</effectid>
							<effectcategory>audiopan</effectcategory>
							<effecttype>audiopan</effecttype>
							<mediatype>audio</mediatype>
							<parameter>
								<name>Pan</name>
								<parameterid>pan</parameterid>
								<valuemin>-1</valuemin>
								<valuemax>1</valuemax>
								<value>0</value>
							</parameter>
						</effect>
					</filter>
					<sourcetrack>
						<mediatype>audio</mediatype>
						<trackindex>3</trackindex>
					</sourcetrack>
				</clipitem>
				<transitionitem id="1763668916 ">
					<rate>
						<ntsc>FALSE</ntsc>
						<timebase>25</timebase>
					</rate>
					<start>21743</start>
					<end>21755</end>
					<alignment>start</alignment>
					<effect>
						<name>Cross Fade (+3dB)</name>
						<effecttype>transition</effecttype>
						<mediatype>audio</mediatype>
					</effect>
				</transitionitem>
				<clipitem id="C0030 16">
					<name>C0030</name>
					<duration>3316</duration>
					<rate>
						<ntsc>FALSE</ntsc>
						<timebase>25</timebase>
					</rate>
					<in>236</in>
					<out>383</out>
					<start>-1</start>
					<end>21890</end>
					<subframeoffset>0</subframeoffset>
					<enabled>TRUE</enabled>
					<masterclipid>C0030 6</masterclipid>
					<logginginfo>
						<scene/>
						<shottake/>
						<lognote/>
						<good>FALSE</good>
					</logginginfo>
					<labels>
						<label2/>
					</labels>
					<comments>
						<mastercomment1/>
						<mastercomment2/>
						<mastercomment3/>
						<mastercomment4/>
					</comments>
					<file id="C0030 7"/>
					<filter>
						<enabled>TRUE</enabled>
						<start>-1</start>
						<end>-1</end>
						<effect>
							<name>Gain</name>
							<effecttype>filter</effecttype>
							<mediatype>audio</mediatype>
							<parameter>
								<parameterid>Gain(dB)</parameterid>
								<name>Gain(dB)</name>
								<valuemin>-96</valuemin>
								<valuemax>96</valuemax>
								<value>4</value>
							</parameter>
						</effect>
					</filter>
					<filter>
						<effect>
							<name>Audio Levels</name>
							<effectid>audiolevels</effectid>
							<effectcategory>audiolevels</effectcategory>
							<effecttype>audiolevels</effecttype>
							<mediatype>audio</mediatype>
							<parameter>
								<name>Level</name>
								<parameterid>level</parameterid>
								<valuemin>0</valuemin>
								<valuemax>3.98109</valuemax>
								<value>3.98107</value>
							</parameter>
						</effect>
					</filter>
					<filter>
						<effect>
							<name>Audio Pan</name>
							<effectid>audiopan</effectid>
							<effectcategory>audiopan</effectcategory>
							<effecttype>audiopan</effecttype>
							<mediatype>audio</mediatype>
							<parameter>
								<name>Pan</name>
								<parameterid>pan</parameterid>
								<valuemin>-1</valuemin>
								<valuemax>1</valuemax>
								<value>0</value>
							</parameter>
						</effect>
					</filter>
					<sourcetrack>
						<mediatype>audio</mediatype>
						<trackindex>1</trackindex>
					</sourcetrack>
				</clipitem>
				<clipitem id="C0038 5">
					<name>C0038</name>
					<duration>1051</duration>
					<rate>
						<ntsc>FALSE</ntsc>
						<timebase>25</timebase>
					</rate>
					<in>736</in>
					<out>821</out>
					<start>21890</start>
					<end>21975</end>
					<subframeoffset>0</subframeoffset>
					<masterclipid>C0038 3</masterclipid>
					<logginginfo>
						<scene/>
						<shottake/>
						<lognote/>
						<good>FALSE</good>
					</logginginfo>
					<labels>
						<label2/>
					</labels>
					<comments>
						<mastercomment1/>
						<mastercomment2/>
						<mastercomment3/>
						<mastercomment4/>
					</comments>
					<file id="C0038 4"/>
					<filter>
						<effect>
							<name>Audio Levels</name>
							<effectid>audiolevels</effectid>
							<effectcategory>audiolevels</effectcategory>
							<effecttype>audiolevels</effecttype>
							<mediatype>audio</mediatype>
							<parameter>
								<name>Level</name>
								<parameterid>level</parameterid>
								<valuemin>0</valuemin>
								<valuemax>3.98109</valuemax>
								<value>1</value>
							</parameter>
						</effect>
					</filter>
					<filter>
						<effect>
							<name>Audio Pan</name>
							<effectid>audiopan</effectid>
							<effectcategory>audiopan</effectcategory>
							<effecttype>audiopan</effecttype>
							<mediatype>audio</mediatype>
							<parameter>
								<name>Pan</name>
								<parameterid>pan</parameterid>
								<valuemin>-1</valuemin>
								<valuemax>1</valuemax>
								<value>0</value>
							</parameter>
						</effect>
					</filter>
					<sourcetrack>
						<mediatype>audio</mediatype>
						<trackindex>1</trackindex>
					</sourcetrack>
					<link>
						<linkclipref>C0038 2</linkclipref>
						<mediatype>video</mediatype>
						<trackindex>1</trackindex>
						<clipindex>156</clipindex>
					</link>
					<link>
						<linkclipref>C0038 5</linkclipref>
						<mediatype>audio</mediatype>
						<trackindex>1</trackindex>
						<clipindex>194</clipindex>
					</link>
					<link>
						<linkclipref>C0038 6</linkclipref>
						<mediatype>audio</mediatype>
						<trackindex>2</trackindex>
						<clipindex>115</clipindex>
					</link>
				</clipitem>
				<clipitem id="C0038 14">
					<name>C0038</name>
					<duration>1051</duration>
					<rate>
						<ntsc>FALSE</ntsc>
						<timebase>25</timebase>
					</rate>
					<in>825</in>
					<out>837</out>
					<start>21975</start>
					<end>21987</end>
					<subframeoffset>0</subframeoffset>
					<masterclipid>C0038 3</masterclipid>
					<logginginfo>
						<scene/>
						<shottake/>
						<lognote/>
						<good>FALSE</good>
					</logginginfo>
					<labels>
						<label2/>
					</labels>
					<comments>
						<mastercomment1/>
						<mastercomment2/>
						<mastercomment3/>
						<mastercomment4/>
					</comments>
					<file id="C0038 4"/>
					<filter>
						<effect>
							<name>Audio Levels</name>
							<effectid>audiolevels</effectid>
							<effectcategory>audiolevels</effectcategory>
							<effecttype>audiolevels</effecttype>
							<mediatype>audio</mediatype>
							<parameter>
								<name>Level</name>
								<parameterid>level</parameterid>
								<valuemin>0</valuemin>
								<valuemax>3.98109</valuemax>
								<value>1</value>
							</parameter>
						</effect>
					</filter>
					<filter>
						<effect>
							<name>Audio Pan</name>
							<effectid>audiopan</effectid>
							<effectcategory>audiopan</effectcategory>
							<effecttype>audiopan</effecttype>
							<mediatype>audio</mediatype>
							<parameter>
								<name>Pan</name>
								<parameterid>pan</parameterid>
								<valuemin>-1</valuemin>
								<valuemax>1</valuemax>
								<value>0</value>
							</parameter>
						</effect>
					</filter>
					<sourcetrack>
						<mediatype>audio</mediatype>
						<trackindex>1</trackindex>
					</sourcetrack>
				</clipitem>
				<clipitem id="C0030 9">
					<name>C0030</name>
					<duration>3316</duration>
					<rate>
						<ntsc>FALSE</ntsc>
						<timebase>25</timebase>
					</rate>
					<in>565</in>
					<out>716</out>
					<start>21987</start>
					<end>22138</end>
					<subframeoffset>0</subframeoffset>
					<masterclipid>C0030 6</masterclipid>
					<logginginfo>
						<scene/>
						<shottake/>
						<lognote/>
						<good>FALSE</good>
					</logginginfo>
					<labels>
						<label2/>
					</labels>
					<comments>
						<mastercomment1/>
						<mastercomment2/>
						<mastercomment3/>
						<mastercomment4/>
					</comments>
					<file id="C0030 7"/>
					<filter>
						<effect>
							<name>Audio Levels</name>
							<effectid>audiolevels</effectid>
							<effectcategory>audiolevels</effectcategory>
							<effecttype>audiolevels</effecttype>
							<mediatype>audio</mediatype>
							<parameter>
								<name>Level</name>
								<parameterid>level</parameterid>
								<valuemin>0</valuemin>
								<valuemax>3.98109</valuemax>
								<value>1</value>
							</parameter>
						</effect>
					</filter>
					<filter>
						<effect>
							<name>Audio Pan</name>
							<effectid>audiopan</effectid>
							<effectcategory>audiopan</effectcategory>
							<effecttype>audiopan</effecttype>
							<mediatype>audio</mediatype>
							<parameter>
								<name>Pan</name>
								<parameterid>pan</parameterid>
								<valuemin>-1</valuemin>
								<valuemax>1</valuemax>
								<value>0</value>
							</parameter>
						</effect>
					</filter>
					<sourcetrack>
						<mediatype>audio</mediatype>
						<trackindex>1</trackindex>
					</sourcetrack>
					<link>
						<linkclipref>C0030 8</linkclipref>
						<mediatype>video</mediatype>
						<trackindex>1</trackindex>
						<clipindex>157</clipindex>
					</link>
					<link>
						<linkclipref>C0030 9</linkclipref>
						<mediatype>audio</mediatype>
						<trackindex>1</trackindex>
						<clipindex>196</clipindex>
					</link>
				</clipitem>
				<clipitem id="C0031 5">
					<name>C0031</name>
					<duration>2614</duration>
					<rate>
						<ntsc>FALSE</ntsc>
						<timebase>25</timebase>
					</rate>
					<in>470</in>
					<out>519</out>
					<start>22138</start>
					<end>22187</end>
					<subframeoffset>0</subframeoffset>
					<masterclipid>C0031 1</masterclipid>
					<logginginfo>
						<scene/>
						<shottake/>
						<lognote/>
						<good>FALSE</good>
					</logginginfo>
					<labels>
						<label2/>
					</labels>
					<comments>
						<mastercomment1/>
						<mastercomment2/>
						<mastercomment3/>
						<mastercomment4/>
					</comments>
					<file id="C0031 2"/>
					<filter>
						<effect>
							<name>Audio Levels</name>
							<effectid>audiolevels</effectid>
							<effectcategory>audiolevels</effectcategory>
							<effecttype>audiolevels</effecttype>
							<mediatype>audio</mediatype>
							<parameter>
								<name>Level</name>
								<parameterid>level</parameterid>
								<valuemin>0</valuemin>
								<valuemax>3.98109</valuemax>
								<value>1</value>
							</parameter>
						</effect>
					</filter>
					<filter>
						<effect>
							<name>Audio Pan</name>
							<effectid>audiopan</effectid>
							<effectcategory>audiopan</effectcategory>
							<effecttype>audiopan</effecttype>
							<mediatype>audio</mediatype>
							<parameter>
								<name>Pan</name>
								<parameterid>pan</parameterid>
								<valuemin>-1</valuemin>
								<valuemax>1</valuemax>
								<value>0</value>
							</parameter>
						</effect>
					</filter>
					<sourcetrack>
						<mediatype>audio</mediatype>
						<trackindex>1</trackindex>
					</sourcetrack>
					<link>
						<linkclipref>C0031 5</linkclipref>
						<mediatype>audio</mediatype>
						<trackindex>1</trackindex>
						<clipindex>197</clipindex>
					</link>
					<link>
						<linkclipref>C0031 6</linkclipref>
						<mediatype>audio</mediatype>
						<trackindex>2</trackindex>
						<clipindex>118</clipindex>
					</link>
				</clipitem>
				<clipitem id="C0031 3">
					<name>C0031</name>
					<duration>2614</duration>
					<rate>
						<ntsc>FALSE</ntsc>
						<timebase>25</timebase>
					</rate>
					<in>534</in>
					<out>767</out>
					<start>22187</start>
					<end>22420</end>
					<subframeoffset>0</subframeoffset>
					<masterclipid>C0031 1</masterclipid>
					<logginginfo>
						<scene/>
						<shottake/>
						<lognote/>
						<good>FALSE</good>
					</logginginfo>
					<labels>
						<label2/>
					</labels>
					<comments>
						<mastercomment1/>
						<mastercomment2/>
						<mastercomment3/>
						<mastercomment4/>
					</comments>
					<file id="C0031 2"/>
					<filter>
						<effect>
							<name>Audio Levels</name>
							<effectid>audiolevels</effectid>
							<effectcategory>audiolevels</effectcategory>
							<effecttype>audiolevels</effecttype>
							<mediatype>audio</mediatype>
							<parameter>
								<name>Level</name>
								<parameterid>level</parameterid>
								<valuemin>0</valuemin>
								<valuemax>3.98109</valuemax>
								<value>1</value>
							</parameter>
						</effect>
					</filter>
					<filter>
						<effect>
							<name>Audio Pan</name>
							<effectid>audiopan</effectid>
							<effectcategory>audiopan</effectcategory>
							<effecttype>audiopan</effecttype>
							<mediatype>audio</mediatype>
							<parameter>
								<name>Pan</name>
								<parameterid>pan</parameterid>
								<valuemin>-1</valuemin>
								<valuemax>1</valuemax>
								<value>0</value>
							</parameter>
						</effect>
					</filter>
					<sourcetrack>
						<mediatype>audio</mediatype>
						<trackindex>1</trackindex>
					</sourcetrack>
					<link>
						<linkclipref>C0031 </linkclipref>
						<mediatype>video</mediatype>
						<trackindex>1</trackindex>
						<clipindex>159</clipindex>
					</link>
					<link>
						<linkclipref>C0031 3</linkclipref>
						<mediatype>audio</mediatype>
						<trackindex>1</trackindex>
						<clipindex>198</clipindex>
					</link>
					<link>
						<linkclipref>C0031 4</linkclipref>
						<mediatype>audio</mediatype>
						<trackindex>2</trackindex>
						<clipindex>119</clipindex>
					</link>
				</clipitem>
				<clipitem id="C0039 16">
					<name>C0039</name>
					<duration>4436</duration>
					<rate>
						<ntsc>FALSE</ntsc>
						<timebase>25</timebase>
					</rate>
					<in>846</in>
					<out>901</out>
					<start>22420</start>
					<end>22475</end>
					<subframeoffset>0</subframeoffset>
					<masterclipid>C0039 7</masterclipid>
					<logginginfo>
						<scene/>
						<shottake/>
						<lognote/>
						<good>FALSE</good>
					</logginginfo>
					<labels>
						<label2/>
					</labels>
					<comments>
						<mastercomment1/>
						<mastercomment2/>
						<mastercomment3/>
						<mastercomment4/>
					</comments>
					<file id="C0039 8"/>
					<filter>
						<effect>
							<name>Audio Levels</name>
							<effectid>audiolevels</effectid>
							<effectcategory>audiolevels</effectcategory>
							<effecttype>audiolevels</effecttype>
							<mediatype>audio</mediatype>
							<parameter>
								<name>Level</name>
								<parameterid>level</parameterid>
								<valuemin>0</valuemin>
								<valuemax>3.98109</valuemax>
								<value>1</value>
							</parameter>
						</effect>
					</filter>
					<filter>
						<effect>
							<name>Audio Pan</name>
							<effectid>audiopan</effectid>
							<effectcategory>audiopan</effectcategory>
							<effecttype>audiopan</effecttype>
							<mediatype>audio</mediatype>
							<parameter>
								<name>Pan</name>
								<parameterid>pan</parameterid>
								<valuemin>-1</valuemin>
								<valuemax>1</valuemax>
								<value>0</value>
							</parameter>
						</effect>
					</filter>
					<sourcetrack>
						<mediatype>audio</mediatype>
						<trackindex>1</trackindex>
					</sourcetrack>
					<link>
						<linkclipref>C0039 16</linkclipref>
						<mediatype>audio</mediatype>
						<trackindex>1</trackindex>
						<clipindex>199</clipindex>
					</link>
					<link>
						<linkclipref>C0039 17</linkclipref>
						<mediatype>audio</mediatype>
						<trackindex>2</trackindex>
						<clipindex>120</clipindex>
					</link>
				</clipitem>
				<clipitem id="C0030 11">
					<name>C0030</name>
					<duration>3316</duration>
					<rate>
						<ntsc>FALSE</ntsc>
						<timebase>25</timebase>
					</rate>
					<in>1844</in>
					<out>2129</out>
					<start>22475</start>
					<end>22760</end>
					<subframeoffset>0</subframeoffset>
					<masterclipid>C0030 6</masterclipid>
					<logginginfo>
						<scene/>
						<shottake/>
						<lognote/>
						<good>FALSE</good>
					</logginginfo>
					<labels>
						<label2/>
					</labels>
					<comments>
						<mastercomment1/>
						<mastercomment2/>
						<mastercomment3/>
						<mastercomment4/>
					</comments>
					<file id="C0030 7"/>
					<filter>
						<effect>
							<name>Audio Levels</name>
							<effectid>audiolevels</effectid>
							<effectcategory>audiolevels</effectcategory>
							<effecttype>audiolevels</effecttype>
							<mediatype>audio</mediatype>
							<parameter>
								<name>Level</name>
								<parameterid>level</parameterid>
								<valuemin>0</valuemin>
								<valuemax>3.98109</valuemax>
								<value>1.58489</value>
							</parameter>
						</effect>
					</filter>
					<filter>
						<effect>
							<name>Audio Pan</name>
							<effectid>audiopan</effectid>
							<effectcategory>audiopan</effectcategory>
							<effecttype>audiopan</effecttype>
							<mediatype>audio</mediatype>
							<parameter>
								<name>Pan</name>
								<parameterid>pan</parameterid>
								<valuemin>-1</valuemin>
								<valuemax>1</valuemax>
								<value>0</value>
							</parameter>
						</effect>
					</filter>
					<sourcetrack>
						<mediatype>audio</mediatype>
						<trackindex>1</trackindex>
					</sourcetrack>
					<link>
						<linkclipref>C0030 10</linkclipref>
						<mediatype>video</mediatype>
						<trackindex>1</trackindex>
						<clipindex>162</clipindex>
					</link>
					<link>
						<linkclipref>C0030 11</linkclipref>
						<mediatype>audio</mediatype>
						<trackindex>1</trackindex>
						<clipindex>200</clipindex>
					</link>
					<link>
						<linkclipref>C0030 12</linkclipref>
						<mediatype>audio</mediatype>
						<trackindex>2</trackindex>
						<clipindex>121</clipindex>
					</link>
				</clipitem>
				<clipitem id="C0039 18">
					<name>C0039</name>
					<duration>4436</duration>
					<rate>
						<ntsc>FALSE</ntsc>
						<timebase>25</timebase>
					</rate>
					<in>2718</in>
					<out>2766</out>
					<start>22760</start>
					<end>22808</end>
					<subframeoffset>0</subframeoffset>
					<masterclipid>C0039 7</masterclipid>
					<logginginfo>
						<scene/>
						<shottake/>
						<lognote/>
						<good>FALSE</good>
					</logginginfo>
					<labels>
						<label2/>
					</labels>
					<comments>
						<mastercomment1/>
						<mastercomment2/>
						<mastercomment3/>
						<mastercomment4/>
					</comments>
					<file id="C0039 8"/>
					<filter>
						<effect>
							<name>Audio Levels</name>
							<effectid>audiolevels</effectid>
							<effectcategory>audiolevels</effectcategory>
							<effecttype>audiolevels</effecttype>
							<mediatype>audio</mediatype>
							<parameter>
								<name>Level</name>
								<parameterid>level</parameterid>
								<valuemin>0</valuemin>
								<valuemax>3.98109</valuemax>
								<value>1</value>
							</parameter>
						</effect>
					</filter>
					<filter>
						<effect>
							<name>Audio Pan</name>
							<effectid>audiopan</effectid>
							<effectcategory>audiopan</effectcategory>
							<effecttype>audiopan</effecttype>
							<mediatype>audio</mediatype>
							<parameter>
								<name>Pan</name>
								<parameterid>pan</parameterid>
								<valuemin>-1</valuemin>
								<valuemax>1</valuemax>
								<value>0</value>
							</parameter>
						</effect>
					</filter>
					<sourcetrack>
						<mediatype>audio</mediatype>
						<trackindex>1</trackindex>
					</sourcetrack>
				</clipitem>
				<clipitem id="C0030 17">
					<name>C0030</name>
					<duration>3316</duration>
					<rate>
						<ntsc>FALSE</ntsc>
						<timebase>25</timebase>
					</rate>
					<in>2240</in>
					<out>2428</out>
					<start>22808</start>
					<end>22996</end>
					<subframeoffset>0</subframeoffset>
					<masterclipid>C0030 6</masterclipid>
					<logginginfo>
						<scene/>
						<shottake/>
						<lognote/>
						<good>FALSE</good>
					</logginginfo>
					<labels>
						<label2/>
					</labels>
					<comments>
						<mastercomment1/>
						<mastercomment2/>
						<mastercomment3/>
						<mastercomment4/>
					</comments>
					<file id="C0030 7"/>
					<filter>
						<effect>
							<name>Audio Levels</name>
							<effectid>audiolevels</effectid>
							<effectcategory>audiolevels</effectcategory>
							<effecttype>audiolevels</effecttype>
							<mediatype>audio</mediatype>
							<parameter>
								<name>Level</name>
								<parameterid>level</parameterid>
								<valuemin>0</valuemin>
								<valuemax>3.98109</valuemax>
								<value>1</value>
							</parameter>
						</effect>
					</filter>
					<filter>
						<effect>
							<name>Audio Pan</name>
							<effectid>audiopan</effectid>
							<effectcategory>audiopan</effectcategory>
							<effecttype>audiopan</effecttype>
							<mediatype>audio</mediatype>
							<parameter>
								<name>Pan</name>
								<parameterid>pan</parameterid>
								<valuemin>-1</valuemin>
								<valuemax>1</valuemax>
								<value>0</value>
							</parameter>
						</effect>
					</filter>
					<sourcetrack>
						<mediatype>audio</mediatype>
						<trackindex>1</trackindex>
					</sourcetrack>
					<link>
						<linkclipref>C0030 17</linkclipref>
						<mediatype>audio</mediatype>
						<trackindex>1</trackindex>
						<clipindex>202</clipindex>
					</link>
					<link>
						<linkclipref>C0030 18</linkclipref>
						<mediatype>audio</mediatype>
						<trackindex>2</trackindex>
						<clipindex>123</clipindex>
					</link>
				</clipitem>
				<clipitem id="C0040 3">
					<name>C0040</name>
					<duration>1190</duration>
					<rate>
						<ntsc>FALSE</ntsc>
						<timebase>25</timebase>
					</rate>
					<in>223</in>
					<out>372</out>
					<start>22996</start>
					<end>23145</end>
					<subframeoffset>0</subframeoffset>
					<masterclipid>C0040 1</masterclipid>
					<logginginfo>
						<scene/>
						<shottake/>
						<lognote/>
						<good>FALSE</good>
					</logginginfo>
					<labels>
						<label2/>
					</labels>
					<comments>
						<mastercomment1/>
						<mastercomment2/>
						<mastercomment3/>
						<mastercomment4/>
					</comments>
					<file id="C0040 2"/>
					<filter>
						<effect>
							<name>Audio Levels</name>
							<effectid>audiolevels</effectid>
							<effectcategory>audiolevels</effectcategory>
							<effecttype>audiolevels</effecttype>
							<mediatype>audio</mediatype>
							<parameter>
								<name>Level</name>
								<parameterid>level</parameterid>
								<valuemin>0</valuemin>
								<valuemax>3.98109</valuemax>
								<value>1</value>
							</parameter>
						</effect>
					</filter>
					<filter>
						<effect>
							<name>Audio Pan</name>
							<effectid>audiopan</effectid>
							<effectcategory>audiopan</effectcategory>
							<effecttype>audiopan</effecttype>
							<mediatype>audio</mediatype>
							<parameter>
								<name>Pan</name>
								<parameterid>pan</parameterid>
								<valuemin>-1</valuemin>
								<valuemax>1</valuemax>
								<value>0</value>
							</parameter>
						</effect>
					</filter>
					<sourcetrack>
						<mediatype>audio</mediatype>
						<trackindex>1</trackindex>
					</sourcetrack>
					<link>
						<linkclipref>C0040 </linkclipref>
						<mediatype>video</mediatype>
						<trackindex>1</trackindex>
						<clipindex>166</clipindex>
					</link>
					<link>
						<linkclipref>C0040 3</linkclipref>
						<mediatype>audio</mediatype>
						<trackindex>1</trackindex>
						<clipindex>203</clipindex>
					</link>
					<link>
						<linkclipref>C0040 4</linkclipref>
						<mediatype>audio</mediatype>
						<trackindex>2</trackindex>
						<clipindex>124</clipindex>
					</link>
				</clipitem>
				<clipitem id="C0027 10">
					<name>C0027</name>
					<duration>1902</duration>
					<rate>
						<ntsc>FALSE</ntsc>
						<timebase>25</timebase>
					</rate>
					<in>1265</in>
					<out>1387</out>
					<start>23145</start>
					<end>23267</end>
					<subframeoffset>0</subframeoffset>
					<masterclipid>C0027 8</masterclipid>
					<logginginfo>
						<scene/>
						<shottake/>
						<lognote/>
						<good>FALSE</good>
					</logginginfo>
					<labels>
						<label2/>
					</labels>
					<comments>
						<mastercomment1/>
						<mastercomment2/>
						<mastercomment3/>
						<mastercomment4/>
					</comments>
					<file id="C0027 9"/>
					<filter>
						<effect>
							<name>Audio Levels</name>
							<effectid>audiolevels</effectid>
							<effectcategory>audiolevels</effectcategory>
							<effecttype>audiolevels</effecttype>
							<mediatype>audio</mediatype>
							<parameter>
								<name>Level</name>
								<parameterid>level</parameterid>
								<valuemin>0</valuemin>
								<valuemax>3.98109</valuemax>
								<value>1</value>
							</parameter>
						</effect>
					</filter>
					<filter>
						<effect>
							<name>Audio Pan</name>
							<effectid>audiopan</effectid>
							<effectcategory>audiopan</effectcategory>
							<effecttype>audiopan</effecttype>
							<mediatype>audio</mediatype>
							<parameter>
								<name>Pan</name>
								<parameterid>pan</parameterid>
								<valuemin>-1</valuemin>
								<valuemax>1</valuemax>
								<value>0</value>
							</parameter>
						</effect>
					</filter>
					<sourcetrack>
						<mediatype>audio</mediatype>
						<trackindex>1</trackindex>
					</sourcetrack>
					<link>
						<linkclipref>C0027 7</linkclipref>
						<mediatype>video</mediatype>
						<trackindex>1</trackindex>
						<clipindex>167</clipindex>
					</link>
					<link>
						<linkclipref>C0027 10</linkclipref>
						<mediatype>audio</mediatype>
						<trackindex>1</trackindex>
						<clipindex>204</clipindex>
					</link>
					<link>
						<linkclipref>C0027 11</linkclipref>
						<mediatype>audio</mediatype>
						<trackindex>2</trackindex>
						<clipindex>125</clipindex>
					</link>
				</clipitem>
				<clipitem id="C0027 17">
					<name>C0027</name>
					<duration>1902</duration>
					<rate>
						<ntsc>FALSE</ntsc>
						<timebase>25</timebase>
					</rate>
					<in>1385</in>
					<out>1414</out>
					<start>23267</start>
					<end>23296</end>
					<subframeoffset>0</subframeoffset>
					<masterclipid>C0027 8</masterclipid>
					<logginginfo>
						<scene/>
						<shottake/>
						<lognote/>
						<good>FALSE</good>
					</logginginfo>
					<labels>
						<label2/>
					</labels>
					<comments>
						<mastercomment1/>
						<mastercomment2/>
						<mastercomment3/>
						<mastercomment4/>
					</comments>
					<file id="C0027 9"/>
					<filter>
						<effect>
							<name>Audio Levels</name>
							<effectid>audiolevels</effectid>
							<effectcategory>audiolevels</effectcategory>
							<effecttype>audiolevels</effecttype>
							<mediatype>audio</mediatype>
							<parameter>
								<name>Level</name>
								<parameterid>level</parameterid>
								<valuemin>0</valuemin>
								<valuemax>3.98109</valuemax>
								<value>1</value>
							</parameter>
						</effect>
					</filter>
					<filter>
						<effect>
							<name>Audio Pan</name>
							<effectid>audiopan</effectid>
							<effectcategory>audiopan</effectcategory>
							<effecttype>audiopan</effecttype>
							<mediatype>audio</mediatype>
							<parameter>
								<name>Pan</name>
								<parameterid>pan</parameterid>
								<valuemin>-1</valuemin>
								<valuemax>1</valuemax>
								<value>0</value>
							</parameter>
						</effect>
					</filter>
					<sourcetrack>
						<mediatype>audio</mediatype>
						<trackindex>1</trackindex>
					</sourcetrack>
				</clipitem>
				<clipitem id="C0039 19">
					<name>C0039</name>
					<duration>4436</duration>
					<rate>
						<ntsc>FALSE</ntsc>
						<timebase>25</timebase>
					</rate>
					<in>3311</in>
					<out>3422</out>
					<start>23296</start>
					<end>23407</end>
					<subframeoffset>0</subframeoffset>
					<masterclipid>C0039 7</masterclipid>
					<logginginfo>
						<scene/>
						<shottake/>
						<lognote/>
						<good>FALSE</good>
					</logginginfo>
					<labels>
						<label2/>
					</labels>
					<comments>
						<mastercomment1/>
						<mastercomment2/>
						<mastercomment3/>
						<mastercomment4/>
					</comments>
					<file id="C0039 8"/>
					<filter>
						<effect>
							<name>Audio Levels</name>
							<effectid>audiolevels</effectid>
							<effectcategory>audiolevels</effectcategory>
							<effecttype>audiolevels</effecttype>
							<mediatype>audio</mediatype>
							<parameter>
								<name>Level</name>
								<parameterid>level</parameterid>
								<valuemin>0</valuemin>
								<valuemax>3.98109</valuemax>
								<value>1</value>
							</parameter>
						</effect>
					</filter>
					<filter>
						<effect>
							<name>Audio Pan</name>
							<effectid>audiopan</effectid>
							<effectcategory>audiopan</effectcategory>
							<effecttype>audiopan</effecttype>
							<mediatype>audio</mediatype>
							<parameter>
								<name>Pan</name>
								<parameterid>pan</parameterid>
								<valuemin>-1</valuemin>
								<valuemax>1</valuemax>
								<value>0</value>
							</parameter>
						</effect>
					</filter>
					<sourcetrack>
						<mediatype>audio</mediatype>
						<trackindex>1</trackindex>
					</sourcetrack>
				</clipitem>
				<clipitem id="C0033 9">
					<name>C0033</name>
					<duration>1175</duration>
					<rate>
						<ntsc>FALSE</ntsc>
						<timebase>25</timebase>
					</rate>
					<in>130</in>
					<out>684</out>
					<start>23407</start>
					<end>23961</end>
					<subframeoffset>0</subframeoffset>
					<masterclipid>C0033 1</masterclipid>
					<logginginfo>
						<scene/>
						<shottake/>
						<lognote/>
						<good>FALSE</good>
					</logginginfo>
					<labels>
						<label2/>
					</labels>
					<comments>
						<mastercomment1/>
						<mastercomment2/>
						<mastercomment3/>
						<mastercomment4/>
					</comments>
					<file id="C0033 2"/>
					<filter>
						<effect>
							<name>Audio Levels</name>
							<effectid>audiolevels</effectid>
							<effectcategory>audiolevels</effectcategory>
							<effecttype>audiolevels</effecttype>
							<mediatype>audio</mediatype>
							<parameter>
								<name>Level</name>
								<parameterid>level</parameterid>
								<valuemin>0</valuemin>
								<valuemax>3.98109</valuemax>
								<value>1</value>
							</parameter>
						</effect>
					</filter>
					<filter>
						<effect>
							<name>Audio Pan</name>
							<effectid>audiopan</effectid>
							<effectcategory>audiopan</effectcategory>
							<effecttype>audiopan</effecttype>
							<mediatype>audio</mediatype>
							<parameter>
								<name>Pan</name>
								<parameterid>pan</parameterid>
								<valuemin>-1</valuemin>
								<valuemax>1</valuemax>
								<value>0</value>
							</parameter>
						</effect>
					</filter>
					<sourcetrack>
						<mediatype>audio</mediatype>
						<trackindex>1</trackindex>
					</sourcetrack>
				</clipitem>
				<clipitem id="C0039 12">
					<name>C0039</name>
					<duration>4436</duration>
					<rate>
						<ntsc>FALSE</ntsc>
						<timebase>25</timebase>
					</rate>
					<in>3984</in>
					<out>4092</out>
					<start>23961</start>
					<end>24069</end>
					<subframeoffset>0</subframeoffset>
					<masterclipid>C0039 7</masterclipid>
					<logginginfo>
						<scene/>
						<shottake/>
						<lognote/>
						<good>FALSE</good>
					</logginginfo>
					<labels>
						<label2/>
					</labels>
					<comments>
						<mastercomment1/>
						<mastercomment2/>
						<mastercomment3/>
						<mastercomment4/>
					</comments>
					<file id="C0039 8"/>
					<filter>
						<effect>
							<name>Audio Levels</name>
							<effectid>audiolevels</effectid>
							<effectcategory>audiolevels</effectcategory>
							<effecttype>audiolevels</effecttype>
							<mediatype>audio</mediatype>
							<parameter>
								<name>Level</name>
								<parameterid>level</parameterid>
								<valuemin>0</valuemin>
								<valuemax>3.98109</valuemax>
								<value>1</value>
							</parameter>
						</effect>
					</filter>
					<filter>
						<effect>
							<name>Audio Pan</name>
							<effectid>audiopan</effectid>
							<effectcategory>audiopan</effectcategory>
							<effecttype>audiopan</effecttype>
							<mediatype>audio</mediatype>
							<parameter>
								<name>Pan</name>
								<parameterid>pan</parameterid>
								<valuemin>-1</valuemin>
								<valuemax>1</valuemax>
								<value>0</value>
							</parameter>
						</effect>
					</filter>
					<sourcetrack>
						<mediatype>audio</mediatype>
						<trackindex>1</trackindex>
					</sourcetrack>
					<link>
						<linkclipref>C0039 11</linkclipref>
						<mediatype>video</mediatype>
						<trackindex>1</trackindex>
						<clipindex>170</clipindex>
					</link>
					<link>
						<linkclipref>C0039 12</linkclipref>
						<mediatype>audio</mediatype>
						<trackindex>1</trackindex>
						<clipindex>208</clipindex>
					</link>
					<link>
						<linkclipref>C0039 13</linkclipref>
						<mediatype>audio</mediatype>
						<trackindex>2</trackindex>
						<clipindex>129</clipindex>
					</link>
				</clipitem>
				<clipitem id="C0033 5">
					<name>C0033</name>
					<duration>1175</duration>
					<rate>
						<ntsc>FALSE</ntsc>
						<timebase>25</timebase>
					</rate>
					<in>805</in>
					<out>1041</out>
					<start>24069</start>
					<end>24305</end>
					<subframeoffset>0</subframeoffset>
					<masterclipid>C0033 1</masterclipid>
					<logginginfo>
						<scene/>
						<shottake/>
						<lognote/>
						<good>FALSE</good>
					</logginginfo>
					<labels>
						<label2/>
					</labels>
					<comments>
						<mastercomment1/>
						<mastercomment2/>
						<mastercomment3/>
						<mastercomment4/>
					</comments>
					<file id="C0033 2"/>
					<filter>
						<effect>
							<name>Audio Levels</name>
							<effectid>audiolevels</effectid>
							<effectcategory>audiolevels</effectcategory>
							<effecttype>audiolevels</effecttype>
							<mediatype>audio</mediatype>
							<parameter>
								<name>Level</name>
								<parameterid>level</parameterid>
								<valuemin>0</valuemin>
								<valuemax>3.98109</valuemax>
								<value>1</value>
							</parameter>
						</effect>
					</filter>
					<filter>
						<effect>
							<name>Audio Pan</name>
							<effectid>audiopan</effectid>
							<effectcategory>audiopan</effectcategory>
							<effecttype>audiopan</effecttype>
							<mediatype>audio</mediatype>
							<parameter>
								<name>Pan</name>
								<parameterid>pan</parameterid>
								<valuemin>-1</valuemin>
								<valuemax>1</valuemax>
								<value>0</value>
							</parameter>
						</effect>
					</filter>
					<sourcetrack>
						<mediatype>audio</mediatype>
						<trackindex>1</trackindex>
					</sourcetrack>
					<link>
						<linkclipref>C0033 4</linkclipref>
						<mediatype>video</mediatype>
						<trackindex>1</trackindex>
						<clipindex>171</clipindex>
					</link>
					<link>
						<linkclipref>C0033 5</linkclipref>
						<mediatype>audio</mediatype>
						<trackindex>1</trackindex>
						<clipindex>209</clipindex>
					</link>
					<link>
						<linkclipref>C0033 6</linkclipref>
						<mediatype>audio</mediatype>
						<trackindex>2</trackindex>
						<clipindex>130</clipindex>
					</link>
				</clipitem>
				<clipitem id="C0048 3">
					<name>C0048</name>
					<duration>1806</duration>
					<rate>
						<ntsc>FALSE</ntsc>
						<timebase>25</timebase>
					</rate>
					<in>274</in>
					<out>417</out>
					<start>27496</start>
					<end>27639</end>
					<subframeoffset>0</subframeoffset>
					<masterclipid>C0048 1</masterclipid>
					<logginginfo>
						<scene/>
						<shottake/>
						<lognote/>
						<good>FALSE</good>
					</logginginfo>
					<labels>
						<label2/>
					</labels>
					<comments>
						<mastercomment1/>
						<mastercomment2/>
						<mastercomment3/>
						<mastercomment4/>
					</comments>
					<file id="C0048 2"/>
					<filter>
						<effect>
							<name>Audio Levels</name>
							<effectid>audiolevels</effectid>
							<effectcategory>audiolevels</effectcategory>
							<effecttype>audiolevels</effecttype>
							<mediatype>audio</mediatype>
							<parameter>
								<name>Level</name>
								<parameterid>level</parameterid>
								<valuemin>0</valuemin>
								<valuemax>3.98109</valuemax>
								<value>1</value>
							</parameter>
						</effect>
					</filter>
					<filter>
						<effect>
							<name>Audio Pan</name>
							<effectid>audiopan</effectid>
							<effectcategory>audiopan</effectcategory>
							<effecttype>audiopan</effecttype>
							<mediatype>audio</mediatype>
							<parameter>
								<name>Pan</name>
								<parameterid>pan</parameterid>
								<valuemin>-1</valuemin>
								<valuemax>1</valuemax>
								<value>0</value>
							</parameter>
						</effect>
					</filter>
					<sourcetrack>
						<mediatype>audio</mediatype>
						<trackindex>1</trackindex>
					</sourcetrack>
					<link>
						<linkclipref>C0048 </linkclipref>
						<mediatype>video</mediatype>
						<trackindex>1</trackindex>
						<clipindex>174</clipindex>
					</link>
					<link>
						<linkclipref>C0048 3</linkclipref>
						<mediatype>audio</mediatype>
						<trackindex>1</trackindex>
						<clipindex>210</clipindex>
					</link>
					<link>
						<linkclipref>C0048 4</linkclipref>
						<mediatype>audio</mediatype>
						<trackindex>2</trackindex>
						<clipindex>131</clipindex>
					</link>
				</clipitem>
				<clipitem id="C0046 3">
					<name>C0046</name>
					<duration>2562</duration>
					<rate>
						<ntsc>FALSE</ntsc>
						<timebase>25</timebase>
					</rate>
					<in>1660</in>
					<out>1756</out>
					<start>27639</start>
					<end>27735</end>
					<subframeoffset>0</subframeoffset>
					<masterclipid>C0046 1</masterclipid>
					<logginginfo>
						<scene/>
						<shottake/>
						<lognote/>
						<good>FALSE</good>
					</logginginfo>
					<labels>
						<label2/>
					</labels>
					<comments>
						<mastercomment1/>
						<mastercomment2/>
						<mastercomment3/>
						<mastercomment4/>
					</comments>
					<file id="C0046 2"/>
					<filter>
						<effect>
							<name>Audio Levels</name>
							<effectid>audiolevels</effectid>
							<effectcategory>audiolevels</effectcategory>
							<effecttype>audiolevels</effecttype>
							<mediatype>audio</mediatype>
							<parameter>
								<name>Level</name>
								<parameterid>level</parameterid>
								<valuemin>0</valuemin>
								<valuemax>3.98109</valuemax>
								<value>1</value>
							</parameter>
						</effect>
					</filter>
					<filter>
						<effect>
							<name>Audio Pan</name>
							<effectid>audiopan</effectid>
							<effectcategory>audiopan</effectcategory>
							<effecttype>audiopan</effecttype>
							<mediatype>audio</mediatype>
							<parameter>
								<name>Pan</name>
								<parameterid>pan</parameterid>
								<valuemin>-1</valuemin>
								<valuemax>1</valuemax>
								<value>0</value>
							</parameter>
						</effect>
					</filter>
					<sourcetrack>
						<mediatype>audio</mediatype>
						<trackindex>1</trackindex>
					</sourcetrack>
					<link>
						<linkclipref>C0046 </linkclipref>
						<mediatype>video</mediatype>
						<trackindex>1</trackindex>
						<clipindex>175</clipindex>
					</link>
					<link>
						<linkclipref>C0046 3</linkclipref>
						<mediatype>audio</mediatype>
						<trackindex>1</trackindex>
						<clipindex>211</clipindex>
					</link>
					<link>
						<linkclipref>C0046 4</linkclipref>
						<mediatype>audio</mediatype>
						<trackindex>2</trackindex>
						<clipindex>132</clipindex>
					</link>
				</clipitem>
				<clipitem id="C0050 16">
					<name>C0050</name>
					<duration>2348</duration>
					<rate>
						<ntsc>FALSE</ntsc>
						<timebase>25</timebase>
					</rate>
					<in>477</in>
					<out>535</out>
					<start>27735</start>
					<end>27793</end>
					<subframeoffset>0</subframeoffset>
					<masterclipid>C0050 14</masterclipid>
					<logginginfo>
						<scene/>
						<shottake/>
						<lognote/>
						<good>FALSE</good>
					</logginginfo>
					<labels>
						<label2/>
					</labels>
					<comments>
						<mastercomment1/>
						<mastercomment2/>
						<mastercomment3/>
						<mastercomment4/>
					</comments>
					<file id="C0050 15"/>
					<filter>
						<effect>
							<name>Audio Levels</name>
							<effectid>audiolevels</effectid>
							<effectcategory>audiolevels</effectcategory>
							<effecttype>audiolevels</effecttype>
							<mediatype>audio</mediatype>
							<parameter>
								<name>Level</name>
								<parameterid>level</parameterid>
								<valuemin>0</valuemin>
								<valuemax>3.98109</valuemax>
								<value>1</value>
							</parameter>
						</effect>
					</filter>
					<filter>
						<effect>
							<name>Audio Pan</name>
							<effectid>audiopan</effectid>
							<effectcategory>audiopan</effectcategory>
							<effecttype>audiopan</effecttype>
							<mediatype>audio</mediatype>
							<parameter>
								<name>Pan</name>
								<parameterid>pan</parameterid>
								<valuemin>-1</valuemin>
								<valuemax>1</valuemax>
								<value>0</value>
							</parameter>
						</effect>
					</filter>
					<sourcetrack>
						<mediatype>audio</mediatype>
						<trackindex>1</trackindex>
					</sourcetrack>
					<link>
						<linkclipref>C0050 13</linkclipref>
						<mediatype>video</mediatype>
						<trackindex>1</trackindex>
						<clipindex>176</clipindex>
					</link>
					<link>
						<linkclipref>C0050 16</linkclipref>
						<mediatype>audio</mediatype>
						<trackindex>1</trackindex>
						<clipindex>212</clipindex>
					</link>
					<link>
						<linkclipref>C0050 17</linkclipref>
						<mediatype>audio</mediatype>
						<trackindex>2</trackindex>
						<clipindex>133</clipindex>
					</link>
				</clipitem>
				<clipitem id="C0046 6">
					<name>C0046</name>
					<duration>2562</duration>
					<rate>
						<ntsc>FALSE</ntsc>
						<timebase>25</timebase>
					</rate>
					<in>1806</in>
					<out>1959</out>
					<start>27793</start>
					<end>27946</end>
					<subframeoffset>0</subframeoffset>
					<masterclipid>C0046 1</masterclipid>
					<logginginfo>
						<scene/>
						<shottake/>
						<lognote/>
						<good>FALSE</good>
					</logginginfo>
					<labels>
						<label2/>
					</labels>
					<comments>
						<mastercomment1/>
						<mastercomment2/>
						<mastercomment3/>
						<mastercomment4/>
					</comments>
					<file id="C0046 2"/>
					<filter>
						<effect>
							<name>Audio Levels</name>
							<effectid>audiolevels</effectid>
							<effectcategory>audiolevels</effectcategory>
							<effecttype>audiolevels</effecttype>
							<mediatype>audio</mediatype>
							<parameter>
								<name>Level</name>
								<parameterid>level</parameterid>
								<valuemin>0</valuemin>
								<valuemax>3.98109</valuemax>
								<value>1</value>
							</parameter>
						</effect>
					</filter>
					<filter>
						<effect>
							<name>Audio Pan</name>
							<effectid>audiopan</effectid>
							<effectcategory>audiopan</effectcategory>
							<effecttype>audiopan</effecttype>
							<mediatype>audio</mediatype>
							<parameter>
								<name>Pan</name>
								<parameterid>pan</parameterid>
								<valuemin>-1</valuemin>
								<valuemax>1</valuemax>
								<value>0</value>
							</parameter>
						</effect>
					</filter>
					<sourcetrack>
						<mediatype>audio</mediatype>
						<trackindex>1</trackindex>
					</sourcetrack>
					<link>
						<linkclipref>C0046 5</linkclipref>
						<mediatype>video</mediatype>
						<trackindex>1</trackindex>
						<clipindex>177</clipindex>
					</link>
					<link>
						<linkclipref>C0046 6</linkclipref>
						<mediatype>audio</mediatype>
						<trackindex>1</trackindex>
						<clipindex>213</clipindex>
					</link>
					<link>
						<linkclipref>C0046 7</linkclipref>
						<mediatype>audio</mediatype>
						<trackindex>2</trackindex>
						<clipindex>134</clipindex>
					</link>
				</clipitem>
				<clipitem id="C0050 19">
					<name>C0050</name>
					<duration>2348</duration>
					<rate>
						<ntsc>FALSE</ntsc>
						<timebase>25</timebase>
					</rate>
					<in>670</in>
					<out>922</out>
					<start>27946</start>
					<end>28198</end>
					<subframeoffset>0</subframeoffset>
					<masterclipid>C0050 14</masterclipid>
					<logginginfo>
						<scene/>
						<shottake/>
						<lognote/>
						<good>FALSE</good>
					</logginginfo>
					<labels>
						<label2/>
					</labels>
					<comments>
						<mastercomment1/>
						<mastercomment2/>
						<mastercomment3/>
						<mastercomment4/>
					</comments>
					<file id="C0050 15"/>
					<filter>
						<effect>
							<name>Audio Levels</name>
							<effectid>audiolevels</effectid>
							<effectcategory>audiolevels</effectcategory>
							<effecttype>audiolevels</effecttype>
							<mediatype>audio</mediatype>
							<parameter>
								<name>Level</name>
								<parameterid>level</parameterid>
								<valuemin>0</valuemin>
								<valuemax>3.98109</valuemax>
								<value>1</value>
							</parameter>
						</effect>
					</filter>
					<filter>
						<effect>
							<name>Audio Pan</name>
							<effectid>audiopan</effectid>
							<effectcategory>audiopan</effectcategory>
							<effecttype>audiopan</effecttype>
							<mediatype>audio</mediatype>
							<parameter>
								<name>Pan</name>
								<parameterid>pan</parameterid>
								<valuemin>-1</valuemin>
								<valuemax>1</valuemax>
								<value>0</value>
							</parameter>
						</effect>
					</filter>
					<sourcetrack>
						<mediatype>audio</mediatype>
						<trackindex>1</trackindex>
					</sourcetrack>
					<link>
						<linkclipref>C0050 18</linkclipref>
						<mediatype>video</mediatype>
						<trackindex>1</trackindex>
						<clipindex>178</clipindex>
					</link>
					<link>
						<linkclipref>C0050 19</linkclipref>
						<mediatype>audio</mediatype>
						<trackindex>1</trackindex>
						<clipindex>214</clipindex>
					</link>
					<link>
						<linkclipref>C0050 20</linkclipref>
						<mediatype>audio</mediatype>
						<trackindex>2</trackindex>
						<clipindex>135</clipindex>
					</link>
				</clipitem>
				<clipitem id="C0048 6">
					<name>C0048</name>
					<duration>1806</duration>
					<rate>
						<ntsc>FALSE</ntsc>
						<timebase>25</timebase>
					</rate>
					<in>951</in>
					<out>1009</out>
					<start>28198</start>
					<end>28256</end>
					<subframeoffset>0</subframeoffset>
					<masterclipid>C0048 1</masterclipid>
					<logginginfo>
						<scene/>
						<shottake/>
						<lognote/>
						<good>FALSE</good>
					</logginginfo>
					<labels>
						<label2/>
					</labels>
					<comments>
						<mastercomment1/>
						<mastercomment2/>
						<mastercomment3/>
						<mastercomment4/>
					</comments>
					<file id="C0048 2"/>
					<filter>
						<effect>
							<name>Audio Levels</name>
							<effectid>audiolevels</effectid>
							<effectcategory>audiolevels</effectcategory>
							<effecttype>audiolevels</effecttype>
							<mediatype>audio</mediatype>
							<parameter>
								<name>Level</name>
								<parameterid>level</parameterid>
								<valuemin>0</valuemin>
								<valuemax>3.98109</valuemax>
								<value>1</value>
							</parameter>
						</effect>
					</filter>
					<filter>
						<effect>
							<name>Audio Pan</name>
							<effectid>audiopan</effectid>
							<effectcategory>audiopan</effectcategory>
							<effecttype>audiopan</effecttype>
							<mediatype>audio</mediatype>
							<parameter>
								<name>Pan</name>
								<parameterid>pan</parameterid>
								<valuemin>-1</valuemin>
								<valuemax>1</valuemax>
								<value>0</value>
							</parameter>
						</effect>
					</filter>
					<sourcetrack>
						<mediatype>audio</mediatype>
						<trackindex>1</trackindex>
					</sourcetrack>
					<link>
						<linkclipref>C0048 5</linkclipref>
						<mediatype>video</mediatype>
						<trackindex>1</trackindex>
						<clipindex>179</clipindex>
					</link>
					<link>
						<linkclipref>C0048 6</linkclipref>
						<mediatype>audio</mediatype>
						<trackindex>1</trackindex>
						<clipindex>215</clipindex>
					</link>
					<link>
						<linkclipref>C0048 7</linkclipref>
						<mediatype>audio</mediatype>
						<trackindex>2</trackindex>
						<clipindex>136</clipindex>
					</link>
				</clipitem>
				<clipitem id="C0047 10">
					<name>C0047</name>
					<duration>2661</duration>
					<rate>
						<ntsc>FALSE</ntsc>
						<timebase>25</timebase>
					</rate>
					<in>1156</in>
					<out>1170</out>
					<start>28256</start>
					<end>28270</end>
					<subframeoffset>0</subframeoffset>
					<masterclipid>C0047 4</masterclipid>
					<logginginfo>
						<scene/>
						<shottake/>
						<lognote/>
						<good>FALSE</good>
					</logginginfo>
					<labels>
						<label2/>
					</labels>
					<comments>
						<mastercomment1/>
						<mastercomment2/>
						<mastercomment3/>
						<mastercomment4/>
					</comments>
					<file id="C0047 5"/>
					<filter>
						<effect>
							<name>Audio Levels</name>
							<effectid>audiolevels</effectid>
							<effectcategory>audiolevels</effectcategory>
							<effecttype>audiolevels</effecttype>
							<mediatype>audio</mediatype>
							<parameter>
								<name>Level</name>
								<parameterid>level</parameterid>
								<valuemin>0</valuemin>
								<valuemax>3.98109</valuemax>
								<value>1</value>
							</parameter>
						</effect>
					</filter>
					<filter>
						<effect>
							<name>Audio Pan</name>
							<effectid>audiopan</effectid>
							<effectcategory>audiopan</effectcategory>
							<effecttype>audiopan</effecttype>
							<mediatype>audio</mediatype>
							<parameter>
								<name>Pan</name>
								<parameterid>pan</parameterid>
								<valuemin>-1</valuemin>
								<valuemax>1</valuemax>
								<value>0</value>
							</parameter>
						</effect>
					</filter>
					<sourcetrack>
						<mediatype>audio</mediatype>
						<trackindex>1</trackindex>
					</sourcetrack>
				</clipitem>
				<clipitem id="C0048 11">
					<name>C0048</name>
					<duration>1806</duration>
					<rate>
						<ntsc>FALSE</ntsc>
						<timebase>25</timebase>
					</rate>
					<in>1023</in>
					<out>1078</out>
					<start>28270</start>
					<end>28325</end>
					<subframeoffset>0</subframeoffset>
					<masterclipid>C0048 1</masterclipid>
					<logginginfo>
						<scene/>
						<shottake/>
						<lognote/>
						<good>FALSE</good>
					</logginginfo>
					<labels>
						<label2/>
					</labels>
					<comments>
						<mastercomment1/>
						<mastercomment2/>
						<mastercomment3/>
						<mastercomment4/>
					</comments>
					<file id="C0048 2"/>
					<filter>
						<effect>
							<name>Audio Levels</name>
							<effectid>audiolevels</effectid>
							<effectcategory>audiolevels</effectcategory>
							<effecttype>audiolevels</effecttype>
							<mediatype>audio</mediatype>
							<parameter>
								<name>Level</name>
								<parameterid>level</parameterid>
								<valuemin>0</valuemin>
								<valuemax>3.98109</valuemax>
								<value>1</value>
							</parameter>
						</effect>
					</filter>
					<filter>
						<effect>
							<name>Audio Pan</name>
							<effectid>audiopan</effectid>
							<effectcategory>audiopan</effectcategory>
							<effecttype>audiopan</effecttype>
							<mediatype>audio</mediatype>
							<parameter>
								<name>Pan</name>
								<parameterid>pan</parameterid>
								<valuemin>-1</valuemin>
								<valuemax>1</valuemax>
								<value>0</value>
							</parameter>
						</effect>
					</filter>
					<sourcetrack>
						<mediatype>audio</mediatype>
						<trackindex>1</trackindex>
					</sourcetrack>
				</clipitem>
				<clipitem id="C0047 11">
					<name>C0047</name>
					<duration>2661</duration>
					<rate>
						<ntsc>FALSE</ntsc>
						<timebase>25</timebase>
					</rate>
					<in>1222</in>
					<out>1351</out>
					<start>28325</start>
					<end>28454</end>
					<subframeoffset>0</subframeoffset>
					<masterclipid>C0047 4</masterclipid>
					<logginginfo>
						<scene/>
						<shottake/>
						<lognote/>
						<good>FALSE</good>
					</logginginfo>
					<labels>
						<label2/>
					</labels>
					<comments>
						<mastercomment1/>
						<mastercomment2/>
						<mastercomment3/>
						<mastercomment4/>
					</comments>
					<file id="C0047 5"/>
					<filter>
						<effect>
							<name>Audio Levels</name>
							<effectid>audiolevels</effectid>
							<effectcategory>audiolevels</effectcategory>
							<effecttype>audiolevels</effecttype>
							<mediatype>audio</mediatype>
							<parameter>
								<name>Level</name>
								<parameterid>level</parameterid>
								<valuemin>0</valuemin>
								<valuemax>3.98109</valuemax>
								<value>1</value>
							</parameter>
						</effect>
					</filter>
					<filter>
						<effect>
							<name>Audio Pan</name>
							<effectid>audiopan</effectid>
							<effectcategory>audiopan</effectcategory>
							<effecttype>audiopan</effecttype>
							<mediatype>audio</mediatype>
							<parameter>
								<name>Pan</name>
								<parameterid>pan</parameterid>
								<valuemin>-1</valuemin>
								<valuemax>1</valuemax>
								<value>0</value>
							</parameter>
						</effect>
					</filter>
					<sourcetrack>
						<mediatype>audio</mediatype>
						<trackindex>1</trackindex>
					</sourcetrack>
					<link>
						<linkclipref>C0047 11</linkclipref>
						<mediatype>audio</mediatype>
						<trackindex>1</trackindex>
						<clipindex>218</clipindex>
					</link>
					<link>
						<linkclipref>C0047 12</linkclipref>
						<mediatype>audio</mediatype>
						<trackindex>2</trackindex>
						<clipindex>139</clipindex>
					</link>
				</clipitem>
				<clipitem id="C0056 3">
					<name>C0056</name>
					<duration>1669</duration>
					<rate>
						<ntsc>FALSE</ntsc>
						<timebase>25</timebase>
					</rate>
					<in>1023</in>
					<out>1190</out>
					<start>28454</start>
					<end>28621</end>
					<subframeoffset>0</subframeoffset>
					<masterclipid>C0056 1</masterclipid>
					<logginginfo>
						<scene/>
						<shottake/>
						<lognote/>
						<good>FALSE</good>
					</logginginfo>
					<labels>
						<label2/>
					</labels>
					<comments>
						<mastercomment1/>
						<mastercomment2/>
						<mastercomment3/>
						<mastercomment4/>
					</comments>
					<file id="C0056 2"/>
					<filter>
						<effect>
							<name>Audio Levels</name>
							<effectid>audiolevels</effectid>
							<effectcategory>audiolevels</effectcategory>
							<effecttype>audiolevels</effecttype>
							<mediatype>audio</mediatype>
							<parameter>
								<name>Level</name>
								<parameterid>level</parameterid>
								<valuemin>0</valuemin>
								<valuemax>3.98109</valuemax>
								<value>1</value>
							</parameter>
						</effect>
					</filter>
					<filter>
						<effect>
							<name>Audio Pan</name>
							<effectid>audiopan</effectid>
							<effectcategory>audiopan</effectcategory>
							<effecttype>audiopan</effecttype>
							<mediatype>audio</mediatype>
							<parameter>
								<name>Pan</name>
								<parameterid>pan</parameterid>
								<valuemin>-1</valuemin>
								<valuemax>1</valuemax>
								<value>0</value>
							</parameter>
						</effect>
					</filter>
					<sourcetrack>
						<mediatype>audio</mediatype>
						<trackindex>1</trackindex>
					</sourcetrack>
					<link>
						<linkclipref>C0056 </linkclipref>
						<mediatype>video</mediatype>
						<trackindex>1</trackindex>
						<clipindex>181</clipindex>
					</link>
					<link>
						<linkclipref>C0056 3</linkclipref>
						<mediatype>audio</mediatype>
						<trackindex>1</trackindex>
						<clipindex>219</clipindex>
					</link>
					<link>
						<linkclipref>C0056 4</linkclipref>
						<mediatype>audio</mediatype>
						<trackindex>2</trackindex>
						<clipindex>140</clipindex>
					</link>
				</clipitem>
				<clipitem id="C0048 9">
					<name>C0048</name>
					<duration>1806</duration>
					<rate>
						<ntsc>FALSE</ntsc>
						<timebase>25</timebase>
					</rate>
					<in>1346</in>
					<out>1445</out>
					<start>28621</start>
					<end>28720</end>
					<subframeoffset>0</subframeoffset>
					<masterclipid>C0048 1</masterclipid>
					<logginginfo>
						<scene/>
						<shottake/>
						<lognote/>
						<good>FALSE</good>
					</logginginfo>
					<labels>
						<label2/>
					</labels>
					<comments>
						<mastercomment1/>
						<mastercomment2/>
						<mastercomment3/>
						<mastercomment4/>
					</comments>
					<file id="C0048 2"/>
					<filter>
						<effect>
							<name>Audio Levels</name>
							<effectid>audiolevels</effectid>
							<effectcategory>audiolevels</effectcategory>
							<effecttype>audiolevels</effecttype>
							<mediatype>audio</mediatype>
							<parameter>
								<name>Level</name>
								<parameterid>level</parameterid>
								<valuemin>0</valuemin>
								<valuemax>3.98109</valuemax>
								<value>1.58489</value>
							</parameter>
						</effect>
					</filter>
					<filter>
						<effect>
							<name>Audio Pan</name>
							<effectid>audiopan</effectid>
							<effectcategory>audiopan</effectcategory>
							<effecttype>audiopan</effecttype>
							<mediatype>audio</mediatype>
							<parameter>
								<name>Pan</name>
								<parameterid>pan</parameterid>
								<valuemin>-1</valuemin>
								<valuemax>1</valuemax>
								<value>0</value>
							</parameter>
						</effect>
					</filter>
					<sourcetrack>
						<mediatype>audio</mediatype>
						<trackindex>1</trackindex>
					</sourcetrack>
					<link>
						<linkclipref>C0048 8</linkclipref>
						<mediatype>video</mediatype>
						<trackindex>1</trackindex>
						<clipindex>182</clipindex>
					</link>
					<link>
						<linkclipref>C0048 9</linkclipref>
						<mediatype>audio</mediatype>
						<trackindex>1</trackindex>
						<clipindex>220</clipindex>
					</link>
					<link>
						<linkclipref>C0048 10</linkclipref>
						<mediatype>audio</mediatype>
						<trackindex>2</trackindex>
						<clipindex>141</clipindex>
					</link>
				</clipitem>
				<clipitem id="C0056 5">
					<name>C0056</name>
					<duration>1669</duration>
					<rate>
						<ntsc>FALSE</ntsc>
						<timebase>25</timebase>
					</rate>
					<in>1309</in>
					<out>1344</out>
					<start>28720</start>
					<end>28755</end>
					<subframeoffset>0</subframeoffset>
					<masterclipid>C0056 1</masterclipid>
					<logginginfo>
						<scene/>
						<shottake/>
						<lognote/>
						<good>FALSE</good>
					</logginginfo>
					<labels>
						<label2/>
					</labels>
					<comments>
						<mastercomment1/>
						<mastercomment2/>
						<mastercomment3/>
						<mastercomment4/>
					</comments>
					<file id="C0056 2"/>
					<filter>
						<effect>
							<name>Audio Levels</name>
							<effectid>audiolevels</effectid>
							<effectcategory>audiolevels</effectcategory>
							<effecttype>audiolevels</effecttype>
							<mediatype>audio</mediatype>
							<parameter>
								<name>Level</name>
								<parameterid>level</parameterid>
								<valuemin>0</valuemin>
								<valuemax>3.98109</valuemax>
								<value>2.23872</value>
							</parameter>
						</effect>
					</filter>
					<filter>
						<effect>
							<name>Audio Pan</name>
							<effectid>audiopan</effectid>
							<effectcategory>audiopan</effectcategory>
							<effecttype>audiopan</effecttype>
							<mediatype>audio</mediatype>
							<parameter>
								<name>Pan</name>
								<parameterid>pan</parameterid>
								<valuemin>-1</valuemin>
								<valuemax>1</valuemax>
								<value>0</value>
							</parameter>
						</effect>
					</filter>
					<sourcetrack>
						<mediatype>audio</mediatype>
						<trackindex>1</trackindex>
					</sourcetrack>
				</clipitem>
				<clipitem id="C0047 7">
					<name>C0047</name>
					<duration>2661</duration>
					<rate>
						<ntsc>FALSE</ntsc>
						<timebase>25</timebase>
					</rate>
					<in>1629</in>
					<out>2167</out>
					<start>28755</start>
					<end>29293</end>
					<subframeoffset>0</subframeoffset>
					<masterclipid>C0047 4</masterclipid>
					<logginginfo>
						<scene/>
						<shottake/>
						<lognote/>
						<good>FALSE</good>
					</logginginfo>
					<labels>
						<label2/>
					</labels>
					<comments>
						<mastercomment1/>
						<mastercomment2/>
						<mastercomment3/>
						<mastercomment4/>
					</comments>
					<file id="C0047 5"/>
					<filter>
						<effect>
							<name>Audio Levels</name>
							<effectid>audiolevels</effectid>
							<effectcategory>audiolevels</effectcategory>
							<effecttype>audiolevels</effecttype>
							<mediatype>audio</mediatype>
							<parameter>
								<name>Level</name>
								<parameterid>level</parameterid>
								<valuemin>0</valuemin>
								<valuemax>3.98109</valuemax>
								<keyframe>
									<when>1832.14</when>
									<value>2.23872</value>
								</keyframe>
								<keyframe>
									<when>1857.86</when>
									<value>1.77828</value>
								</keyframe>
								<keyframe>
									<when>2043.14</when>
									<value>1.77828</value>
								</keyframe>
								<keyframe>
									<when>2091.43</when>
									<value>0.630957</value>
								</keyframe>
								<interpolation>
									<name>FCPCurve</name>
								</interpolation>
								<value>1</value>
							</parameter>
						</effect>
					</filter>
					<filter>
						<effect>
							<name>Audio Pan</name>
							<effectid>audiopan</effectid>
							<effectcategory>audiopan</effectcategory>
							<effecttype>audiopan</effecttype>
							<mediatype>audio</mediatype>
							<parameter>
								<name>Pan</name>
								<parameterid>pan</parameterid>
								<valuemin>-1</valuemin>
								<valuemax>1</valuemax>
								<value>0</value>
							</parameter>
						</effect>
					</filter>
					<sourcetrack>
						<mediatype>audio</mediatype>
						<trackindex>1</trackindex>
					</sourcetrack>
					<link>
						<linkclipref>C0047 6</linkclipref>
						<mediatype>video</mediatype>
						<trackindex>1</trackindex>
						<clipindex>183</clipindex>
					</link>
					<link>
						<linkclipref>C0047 7</linkclipref>
						<mediatype>audio</mediatype>
						<trackindex>1</trackindex>
						<clipindex>222</clipindex>
					</link>
					<link>
						<linkclipref>C0047 8</linkclipref>
						<mediatype>audio</mediatype>
						<trackindex>2</trackindex>
						<clipindex>143</clipindex>
					</link>
				</clipitem>
				<clipitem id="C0047 13">
					<name>C0047</name>
					<duration>2661</duration>
					<rate>
						<ntsc>FALSE</ntsc>
						<timebase>25</timebase>
					</rate>
					<in>2182</in>
					<out>2264</out>
					<start>29293</start>
					<end>29375</end>
					<subframeoffset>0</subframeoffset>
					<masterclipid>C0047 4</masterclipid>
					<logginginfo>
						<scene/>
						<shottake/>
						<lognote/>
						<good>FALSE</good>
					</logginginfo>
					<labels>
						<label2/>
					</labels>
					<comments>
						<mastercomment1/>
						<mastercomment2/>
						<mastercomment3/>
						<mastercomment4/>
					</comments>
					<file id="C0047 5"/>
					<filter>
						<effect>
							<name>Audio Levels</name>
							<effectid>audiolevels</effectid>
							<effectcategory>audiolevels</effectcategory>
							<effecttype>audiolevels</effecttype>
							<mediatype>audio</mediatype>
							<parameter>
								<name>Level</name>
								<parameterid>level</parameterid>
								<valuemin>0</valuemin>
								<valuemax>3.98109</valuemax>
								<value>0</value>
							</parameter>
						</effect>
					</filter>
					<filter>
						<effect>
							<name>Audio Pan</name>
							<effectid>audiopan</effectid>
							<effectcategory>audiopan</effectcategory>
							<effecttype>audiopan</effecttype>
							<mediatype>audio</mediatype>
							<parameter>
								<name>Pan</name>
								<parameterid>pan</parameterid>
								<valuemin>-1</valuemin>
								<valuemax>1</valuemax>
								<value>0</value>
							</parameter>
						</effect>
					</filter>
					<sourcetrack>
						<mediatype>audio</mediatype>
						<trackindex>1</trackindex>
					</sourcetrack>
				</clipitem>
				<enabled>TRUE</enabled>
				<locked>FALSE</locked>
				<outputchannelindex>1</outputchannelindex>
			</track>
			<track>
				<clipitem id="C0006 (1)4">
					<name>C0006 (1)</name>
					<duration>1105</duration>
					<rate>
						<ntsc>FALSE</ntsc>
						<timebase>25</timebase>
					</rate>
					<in>116</in>
					<out>456</out>
					<start>843</start>
					<end>1183</end>
					<subframeoffset>0</subframeoffset>
					<masterclipid>C0006 (1)1</masterclipid>
					<logginginfo>
						<scene/>
						<shottake/>
						<lognote/>
						<good>FALSE</good>
					</logginginfo>
					<labels>
						<label2/>
					</labels>
					<comments>
						<mastercomment1/>
						<mastercomment2/>
						<mastercomment3/>
						<mastercomment4/>
					</comments>
					<file id="C0006 (1)2"/>
					<filter>
						<effect>
							<name>Audio Levels</name>
							<effectid>audiolevels</effectid>
							<effectcategory>audiolevels</effectcategory>
							<effecttype>audiolevels</effecttype>
							<mediatype>audio</mediatype>
							<parameter>
								<name>Level</name>
								<parameterid>level</parameterid>
								<valuemin>0</valuemin>
								<valuemax>3.98109</valuemax>
								<value>1</value>
							</parameter>
						</effect>
					</filter>
					<filter>
						<effect>
							<name>Audio Pan</name>
							<effectid>audiopan</effectid>
							<effectcategory>audiopan</effectcategory>
							<effecttype>audiopan</effecttype>
							<mediatype>audio</mediatype>
							<parameter>
								<name>Pan</name>
								<parameterid>pan</parameterid>
								<valuemin>-1</valuemin>
								<valuemax>1</valuemax>
								<value>0</value>
							</parameter>
						</effect>
					</filter>
					<sourcetrack>
						<mediatype>audio</mediatype>
						<trackindex>2</trackindex>
					</sourcetrack>
					<link>
						<linkclipref>C0006 (1)</linkclipref>
						<mediatype>video</mediatype>
						<trackindex>1</trackindex>
						<clipindex>9</clipindex>
					</link>
					<link>
						<linkclipref>C0006 (1)3</linkclipref>
						<mediatype>audio</mediatype>
						<trackindex>1</trackindex>
						<clipindex>2</clipindex>
					</link>
					<link>
						<linkclipref>C0006 (1)4</linkclipref>
						<mediatype>audio</mediatype>
						<trackindex>2</trackindex>
						<clipindex>1</clipindex>
					</link>
				</clipitem>
				<clipitem id="C0008 4">
					<name>C0008</name>
					<duration>1233</duration>
					<rate>
						<ntsc>FALSE</ntsc>
						<timebase>25</timebase>
					</rate>
					<in>755</in>
					<out>814</out>
					<start>1183</start>
					<end>1242</end>
					<subframeoffset>0</subframeoffset>
					<masterclipid>C0008 1</masterclipid>
					<logginginfo>
						<scene/>
						<shottake/>
						<lognote/>
						<good>FALSE</good>
					</logginginfo>
					<labels>
						<label2/>
					</labels>
					<comments>
						<mastercomment1/>
						<mastercomment2/>
						<mastercomment3/>
						<mastercomment4/>
					</comments>
					<file id="C0008 2"/>
					<filter>
						<effect>
							<name>Audio Levels</name>
							<effectid>audiolevels</effectid>
							<effectcategory>audiolevels</effectcategory>
							<effecttype>audiolevels</effecttype>
							<mediatype>audio</mediatype>
							<parameter>
								<name>Level</name>
								<parameterid>level</parameterid>
								<valuemin>0</valuemin>
								<valuemax>3.98109</valuemax>
								<value>1</value>
							</parameter>
						</effect>
					</filter>
					<filter>
						<effect>
							<name>Audio Pan</name>
							<effectid>audiopan</effectid>
							<effectcategory>audiopan</effectcategory>
							<effecttype>audiopan</effecttype>
							<mediatype>audio</mediatype>
							<parameter>
								<name>Pan</name>
								<parameterid>pan</parameterid>
								<valuemin>-1</valuemin>
								<valuemax>1</valuemax>
								<value>0</value>
							</parameter>
						</effect>
					</filter>
					<sourcetrack>
						<mediatype>audio</mediatype>
						<trackindex>2</trackindex>
					</sourcetrack>
					<link>
						<linkclipref>C0008 </linkclipref>
						<mediatype>video</mediatype>
						<trackindex>1</trackindex>
						<clipindex>10</clipindex>
					</link>
					<link>
						<linkclipref>C0008 3</linkclipref>
						<mediatype>audio</mediatype>
						<trackindex>1</trackindex>
						<clipindex>3</clipindex>
					</link>
					<link>
						<linkclipref>C0008 4</linkclipref>
						<mediatype>audio</mediatype>
						<trackindex>2</trackindex>
						<clipindex>2</clipindex>
					</link>
				</clipitem>
				<clipitem id="C0003 4">
					<name>C0003</name>
					<duration>2143</duration>
					<rate>
						<ntsc>FALSE</ntsc>
						<timebase>25</timebase>
					</rate>
					<in>237</in>
					<out>348</out>
					<start>1242</start>
					<end>1353</end>
					<subframeoffset>0</subframeoffset>
					<masterclipid>C0003 1</masterclipid>
					<logginginfo>
						<scene/>
						<shottake/>
						<lognote/>
						<good>FALSE</good>
					</logginginfo>
					<labels>
						<label2/>
					</labels>
					<comments>
						<mastercomment1/>
						<mastercomment2/>
						<mastercomment3/>
						<mastercomment4/>
					</comments>
					<file id="C0003 2"/>
					<filter>
						<effect>
							<name>Audio Levels</name>
							<effectid>audiolevels</effectid>
							<effectcategory>audiolevels</effectcategory>
							<effecttype>audiolevels</effecttype>
							<mediatype>audio</mediatype>
							<parameter>
								<name>Level</name>
								<parameterid>level</parameterid>
								<valuemin>0</valuemin>
								<valuemax>3.98109</valuemax>
								<value>1</value>
							</parameter>
						</effect>
					</filter>
					<filter>
						<effect>
							<name>Audio Pan</name>
							<effectid>audiopan</effectid>
							<effectcategory>audiopan</effectcategory>
							<effecttype>audiopan</effecttype>
							<mediatype>audio</mediatype>
							<parameter>
								<name>Pan</name>
								<parameterid>pan</parameterid>
								<valuemin>-1</valuemin>
								<valuemax>1</valuemax>
								<value>0</value>
							</parameter>
						</effect>
					</filter>
					<sourcetrack>
						<mediatype>audio</mediatype>
						<trackindex>2</trackindex>
					</sourcetrack>
					<link>
						<linkclipref>C0003 </linkclipref>
						<mediatype>video</mediatype>
						<trackindex>1</trackindex>
						<clipindex>11</clipindex>
					</link>
					<link>
						<linkclipref>C0003 3</linkclipref>
						<mediatype>audio</mediatype>
						<trackindex>1</trackindex>
						<clipindex>4</clipindex>
					</link>
					<link>
						<linkclipref>C0003 4</linkclipref>
						<mediatype>audio</mediatype>
						<trackindex>2</trackindex>
						<clipindex>3</clipindex>
					</link>
				</clipitem>
				<clipitem id="C0003 9">
					<name>C0003</name>
					<duration>2143</duration>
					<rate>
						<ntsc>FALSE</ntsc>
						<timebase>25</timebase>
					</rate>
					<in>426</in>
					<out>441</out>
					<start>1353</start>
					<end>1368</end>
					<subframeoffset>0</subframeoffset>
					<masterclipid>C0003 1</masterclipid>
					<logginginfo>
						<scene/>
						<shottake/>
						<lognote/>
						<good>FALSE</good>
					</logginginfo>
					<labels>
						<label2/>
					</labels>
					<comments>
						<mastercomment1/>
						<mastercomment2/>
						<mastercomment3/>
						<mastercomment4/>
					</comments>
					<file id="C0003 2"/>
					<filter>
						<effect>
							<name>Audio Levels</name>
							<effectid>audiolevels</effectid>
							<effectcategory>audiolevels</effectcategory>
							<effecttype>audiolevels</effecttype>
							<mediatype>audio</mediatype>
							<parameter>
								<name>Level</name>
								<parameterid>level</parameterid>
								<valuemin>0</valuemin>
								<valuemax>3.98109</valuemax>
								<value>1</value>
							</parameter>
						</effect>
					</filter>
					<filter>
						<effect>
							<name>Audio Pan</name>
							<effectid>audiopan</effectid>
							<effectcategory>audiopan</effectcategory>
							<effecttype>audiopan</effecttype>
							<mediatype>audio</mediatype>
							<parameter>
								<name>Pan</name>
								<parameterid>pan</parameterid>
								<valuemin>-1</valuemin>
								<valuemax>1</valuemax>
								<value>0</value>
							</parameter>
						</effect>
					</filter>
					<sourcetrack>
						<mediatype>audio</mediatype>
						<trackindex>2</trackindex>
					</sourcetrack>
				</clipitem>
				<clipitem id="C0005 (1)3">
					<name>C0005 (1)</name>
					<duration>1180</duration>
					<rate>
						<ntsc>FALSE</ntsc>
						<timebase>25</timebase>
					</rate>
					<in>766</in>
					<out>774</out>
					<start>1368</start>
					<end>1376</end>
					<subframeoffset>0</subframeoffset>
					<enabled>TRUE</enabled>
					<masterclipid>C0005 (1)1</masterclipid>
					<logginginfo>
						<scene/>
						<shottake/>
						<lognote/>
						<good>FALSE</good>
					</logginginfo>
					<labels>
						<label2/>
					</labels>
					<comments>
						<mastercomment1/>
						<mastercomment2/>
						<mastercomment3/>
						<mastercomment4/>
					</comments>
					<file id="C0005 (1)2"/>
					<filter>
						<effect>
							<name>Audio Levels</name>
							<effectid>audiolevels</effectid>
							<effectcategory>audiolevels</effectcategory>
							<effecttype>audiolevels</effecttype>
							<mediatype>audio</mediatype>
							<parameter>
								<name>Level</name>
								<parameterid>level</parameterid>
								<valuemin>0</valuemin>
								<valuemax>3.98109</valuemax>
								<value>1</value>
							</parameter>
						</effect>
					</filter>
					<filter>
						<effect>
							<name>Audio Pan</name>
							<effectid>audiopan</effectid>
							<effectcategory>audiopan</effectcategory>
							<effecttype>audiopan</effecttype>
							<mediatype>audio</mediatype>
							<parameter>
								<name>Pan</name>
								<parameterid>pan</parameterid>
								<valuemin>-1</valuemin>
								<valuemax>1</valuemax>
								<value>0</value>
							</parameter>
						</effect>
					</filter>
					<sourcetrack>
						<mediatype>audio</mediatype>
						<trackindex>2</trackindex>
					</sourcetrack>
				</clipitem>
				<clipitem id="C0006 (1)8">
					<name>C0006 (1)</name>
					<duration>1105</duration>
					<rate>
						<ntsc>FALSE</ntsc>
						<timebase>25</timebase>
					</rate>
					<in>684</in>
					<out>968</out>
					<start>1376</start>
					<end>1660</end>
					<subframeoffset>0</subframeoffset>
					<masterclipid>C0006 (1)1</masterclipid>
					<logginginfo>
						<scene/>
						<shottake/>
						<lognote/>
						<good>FALSE</good>
					</logginginfo>
					<labels>
						<label2/>
					</labels>
					<comments>
						<mastercomment1/>
						<mastercomment2/>
						<mastercomment3/>
						<mastercomment4/>
					</comments>
					<file id="C0006 (1)2"/>
					<filter>
						<effect>
							<name>Audio Levels</name>
							<effectid>audiolevels</effectid>
							<effectcategory>audiolevels</effectcategory>
							<effecttype>audiolevels</effecttype>
							<mediatype>audio</mediatype>
							<parameter>
								<name>Level</name>
								<parameterid>level</parameterid>
								<valuemin>0</valuemin>
								<valuemax>3.98109</valuemax>
								<value>1</value>
							</parameter>
						</effect>
					</filter>
					<filter>
						<effect>
							<name>Audio Pan</name>
							<effectid>audiopan</effectid>
							<effectcategory>audiopan</effectcategory>
							<effecttype>audiopan</effecttype>
							<mediatype>audio</mediatype>
							<parameter>
								<name>Pan</name>
								<parameterid>pan</parameterid>
								<valuemin>-1</valuemin>
								<valuemax>1</valuemax>
								<value>0</value>
							</parameter>
						</effect>
					</filter>
					<sourcetrack>
						<mediatype>audio</mediatype>
						<trackindex>2</trackindex>
					</sourcetrack>
					<link>
						<linkclipref>C0006 (1)7</linkclipref>
						<mediatype>audio</mediatype>
						<trackindex>1</trackindex>
						<clipindex>7</clipindex>
					</link>
					<link>
						<linkclipref>C0006 (1)8</linkclipref>
						<mediatype>audio</mediatype>
						<trackindex>2</trackindex>
						<clipindex>6</clipindex>
					</link>
				</clipitem>
				<clipitem id="C0008 (1)5">
					<name>C0008 (1)</name>
					<duration>2592</duration>
					<rate>
						<ntsc>FALSE</ntsc>
						<timebase>25</timebase>
					</rate>
					<in>194</in>
					<out>395</out>
					<start>1732</start>
					<end>1933</end>
					<subframeoffset>0</subframeoffset>
					<masterclipid>C0008 (1)1</masterclipid>
					<logginginfo>
						<scene/>
						<shottake/>
						<lognote/>
						<good>FALSE</good>
					</logginginfo>
					<labels>
						<label2/>
					</labels>
					<comments>
						<mastercomment1/>
						<mastercomment2/>
						<mastercomment3/>
						<mastercomment4/>
					</comments>
					<file id="C0008 (1)2"/>
					<filter>
						<effect>
							<name>Audio Levels</name>
							<effectid>audiolevels</effectid>
							<effectcategory>audiolevels</effectcategory>
							<effecttype>audiolevels</effecttype>
							<mediatype>audio</mediatype>
							<parameter>
								<name>Level</name>
								<parameterid>level</parameterid>
								<valuemin>0</valuemin>
								<valuemax>3.98109</valuemax>
								<value>1</value>
							</parameter>
						</effect>
					</filter>
					<filter>
						<effect>
							<name>Audio Pan</name>
							<effectid>audiopan</effectid>
							<effectcategory>audiopan</effectcategory>
							<effecttype>audiopan</effecttype>
							<mediatype>audio</mediatype>
							<parameter>
								<name>Pan</name>
								<parameterid>pan</parameterid>
								<valuemin>-1</valuemin>
								<valuemax>1</valuemax>
								<value>0</value>
							</parameter>
						</effect>
					</filter>
					<sourcetrack>
						<mediatype>audio</mediatype>
						<trackindex>2</trackindex>
					</sourcetrack>
					<link>
						<linkclipref>C0008 (1)4</linkclipref>
						<mediatype>audio</mediatype>
						<trackindex>1</trackindex>
						<clipindex>8</clipindex>
					</link>
					<link>
						<linkclipref>C0008 (1)5</linkclipref>
						<mediatype>audio</mediatype>
						<trackindex>2</trackindex>
						<clipindex>7</clipindex>
					</link>
				</clipitem>
				<clipitem id="C0009 4">
					<name>C0009</name>
					<duration>2574</duration>
					<rate>
						<ntsc>FALSE</ntsc>
						<timebase>25</timebase>
					</rate>
					<in>976</in>
					<out>1036</out>
					<start>1933</start>
					<end>1993</end>
					<subframeoffset>0</subframeoffset>
					<masterclipid>C0009 1</masterclipid>
					<logginginfo>
						<scene/>
						<shottake/>
						<lognote/>
						<good>FALSE</good>
					</logginginfo>
					<labels>
						<label2/>
					</labels>
					<comments>
						<mastercomment1/>
						<mastercomment2/>
						<mastercomment3/>
						<mastercomment4/>
					</comments>
					<file id="C0009 2"/>
					<filter>
						<effect>
							<name>Audio Levels</name>
							<effectid>audiolevels</effectid>
							<effectcategory>audiolevels</effectcategory>
							<effecttype>audiolevels</effecttype>
							<mediatype>audio</mediatype>
							<parameter>
								<name>Level</name>
								<parameterid>level</parameterid>
								<valuemin>0</valuemin>
								<valuemax>3.98109</valuemax>
								<value>1</value>
							</parameter>
						</effect>
					</filter>
					<filter>
						<effect>
							<name>Audio Pan</name>
							<effectid>audiopan</effectid>
							<effectcategory>audiopan</effectcategory>
							<effecttype>audiopan</effecttype>
							<mediatype>audio</mediatype>
							<parameter>
								<name>Pan</name>
								<parameterid>pan</parameterid>
								<valuemin>-1</valuemin>
								<valuemax>1</valuemax>
								<value>0</value>
							</parameter>
						</effect>
					</filter>
					<sourcetrack>
						<mediatype>audio</mediatype>
						<trackindex>2</trackindex>
					</sourcetrack>
					<link>
						<linkclipref>C0009 </linkclipref>
						<mediatype>video</mediatype>
						<trackindex>1</trackindex>
						<clipindex>15</clipindex>
					</link>
					<link>
						<linkclipref>C0009 3</linkclipref>
						<mediatype>audio</mediatype>
						<trackindex>1</trackindex>
						<clipindex>9</clipindex>
					</link>
					<link>
						<linkclipref>C0009 4</linkclipref>
						<mediatype>audio</mediatype>
						<trackindex>2</trackindex>
						<clipindex>8</clipindex>
					</link>
				</clipitem>
				<clipitem id="C0003 7">
					<name>C0003</name>
					<duration>2143</duration>
					<rate>
						<ntsc>FALSE</ntsc>
						<timebase>25</timebase>
					</rate>
					<in>996</in>
					<out>1196</out>
					<start>1993</start>
					<end>2193</end>
					<subframeoffset>0</subframeoffset>
					<masterclipid>C0003 1</masterclipid>
					<logginginfo>
						<scene/>
						<shottake/>
						<lognote/>
						<good>FALSE</good>
					</logginginfo>
					<labels>
						<label2/>
					</labels>
					<comments>
						<mastercomment1/>
						<mastercomment2/>
						<mastercomment3/>
						<mastercomment4/>
					</comments>
					<file id="C0003 2"/>
					<filter>
						<effect>
							<name>Audio Levels</name>
							<effectid>audiolevels</effectid>
							<effectcategory>audiolevels</effectcategory>
							<effecttype>audiolevels</effecttype>
							<mediatype>audio</mediatype>
							<parameter>
								<name>Level</name>
								<parameterid>level</parameterid>
								<valuemin>0</valuemin>
								<valuemax>3.98109</valuemax>
								<value>1</value>
							</parameter>
						</effect>
					</filter>
					<filter>
						<effect>
							<name>Audio Pan</name>
							<effectid>audiopan</effectid>
							<effectcategory>audiopan</effectcategory>
							<effecttype>audiopan</effecttype>
							<mediatype>audio</mediatype>
							<parameter>
								<name>Pan</name>
								<parameterid>pan</parameterid>
								<valuemin>-1</valuemin>
								<valuemax>1</valuemax>
								<value>0</value>
							</parameter>
						</effect>
					</filter>
					<sourcetrack>
						<mediatype>audio</mediatype>
						<trackindex>2</trackindex>
					</sourcetrack>
					<link>
						<linkclipref>C0003 5</linkclipref>
						<mediatype>video</mediatype>
						<trackindex>1</trackindex>
						<clipindex>16</clipindex>
					</link>
					<link>
						<linkclipref>C0003 6</linkclipref>
						<mediatype>audio</mediatype>
						<trackindex>1</trackindex>
						<clipindex>10</clipindex>
					</link>
					<link>
						<linkclipref>C0003 7</linkclipref>
						<mediatype>audio</mediatype>
						<trackindex>2</trackindex>
						<clipindex>9</clipindex>
					</link>
				</clipitem>
				<clipitem id="C0009 7">
					<name>C0009</name>
					<duration>2574</duration>
					<rate>
						<ntsc>FALSE</ntsc>
						<timebase>25</timebase>
					</rate>
					<in>1242</in>
					<out>1312</out>
					<start>2193</start>
					<end>2263</end>
					<subframeoffset>0</subframeoffset>
					<masterclipid>C0009 1</masterclipid>
					<logginginfo>
						<scene/>
						<shottake/>
						<lognote/>
						<good>FALSE</good>
					</logginginfo>
					<labels>
						<label2/>
					</labels>
					<comments>
						<mastercomment1/>
						<mastercomment2/>
						<mastercomment3/>
						<mastercomment4/>
					</comments>
					<file id="C0009 2"/>
					<filter>
						<effect>
							<name>Audio Levels</name>
							<effectid>audiolevels</effectid>
							<effectcategory>audiolevels</effectcategory>
							<effecttype>audiolevels</effecttype>
							<mediatype>audio</mediatype>
							<parameter>
								<name>Level</name>
								<parameterid>level</parameterid>
								<valuemin>0</valuemin>
								<valuemax>3.98109</valuemax>
								<value>1</value>
							</parameter>
						</effect>
					</filter>
					<filter>
						<effect>
							<name>Audio Pan</name>
							<effectid>audiopan</effectid>
							<effectcategory>audiopan</effectcategory>
							<effecttype>audiopan</effecttype>
							<mediatype>audio</mediatype>
							<parameter>
								<name>Pan</name>
								<parameterid>pan</parameterid>
								<valuemin>-1</valuemin>
								<valuemax>1</valuemax>
								<value>0</value>
							</parameter>
						</effect>
					</filter>
					<sourcetrack>
						<mediatype>audio</mediatype>
						<trackindex>2</trackindex>
					</sourcetrack>
					<link>
						<linkclipref>C0009 5</linkclipref>
						<mediatype>video</mediatype>
						<trackindex>1</trackindex>
						<clipindex>17</clipindex>
					</link>
					<link>
						<linkclipref>C0009 6</linkclipref>
						<mediatype>audio</mediatype>
						<trackindex>1</trackindex>
						<clipindex>11</clipindex>
					</link>
					<link>
						<linkclipref>C0009 7</linkclipref>
						<mediatype>audio</mediatype>
						<trackindex>2</trackindex>
						<clipindex>10</clipindex>
					</link>
				</clipitem>
				<clipitem id="C0009 (1)4">
					<name>C0009 (1)</name>
					<duration>2688</duration>
					<rate>
						<ntsc>FALSE</ntsc>
						<timebase>25</timebase>
					</rate>
					<in>626</in>
					<out>788</out>
					<start>2263</start>
					<end>2425</end>
					<subframeoffset>0</subframeoffset>
					<masterclipid>C0009 (1)1</masterclipid>
					<logginginfo>
						<scene/>
						<shottake/>
						<lognote/>
						<good>FALSE</good>
					</logginginfo>
					<labels>
						<label2/>
					</labels>
					<comments>
						<mastercomment1/>
						<mastercomment2/>
						<mastercomment3/>
						<mastercomment4/>
					</comments>
					<file id="C0009 (1)2"/>
					<filter>
						<effect>
							<name>Audio Levels</name>
							<effectid>audiolevels</effectid>
							<effectcategory>audiolevels</effectcategory>
							<effecttype>audiolevels</effecttype>
							<mediatype>audio</mediatype>
							<parameter>
								<name>Level</name>
								<parameterid>level</parameterid>
								<valuemin>0</valuemin>
								<valuemax>3.98109</valuemax>
								<value>1</value>
							</parameter>
						</effect>
					</filter>
					<filter>
						<effect>
							<name>Audio Pan</name>
							<effectid>audiopan</effectid>
							<effectcategory>audiopan</effectcategory>
							<effecttype>audiopan</effecttype>
							<mediatype>audio</mediatype>
							<parameter>
								<name>Pan</name>
								<parameterid>pan</parameterid>
								<valuemin>-1</valuemin>
								<valuemax>1</valuemax>
								<value>0</value>
							</parameter>
						</effect>
					</filter>
					<sourcetrack>
						<mediatype>audio</mediatype>
						<trackindex>2</trackindex>
					</sourcetrack>
					<link>
						<linkclipref>C0009 (1)</linkclipref>
						<mediatype>video</mediatype>
						<trackindex>1</trackindex>
						<clipindex>18</clipindex>
					</link>
					<link>
						<linkclipref>C0009 (1)3</linkclipref>
						<mediatype>audio</mediatype>
						<trackindex>1</trackindex>
						<clipindex>12</clipindex>
					</link>
					<link>
						<linkclipref>C0009 (1)4</linkclipref>
						<mediatype>audio</mediatype>
						<trackindex>2</trackindex>
						<clipindex>11</clipindex>
					</link>
				</clipitem>
				<clipitem id="C0004 7">
					<name>C0004</name>
					<duration>1095</duration>
					<rate>
						<ntsc>FALSE</ntsc>
						<timebase>25</timebase>
					</rate>
					<in>307</in>
					<out>487</out>
					<start>2425</start>
					<end>2605</end>
					<subframeoffset>0</subframeoffset>
					<masterclipid>C0004 1</masterclipid>
					<logginginfo>
						<scene/>
						<shottake/>
						<lognote/>
						<good>FALSE</good>
					</logginginfo>
					<labels>
						<label2/>
					</labels>
					<comments>
						<mastercomment1/>
						<mastercomment2/>
						<mastercomment3/>
						<mastercomment4/>
					</comments>
					<file id="C0004 2"/>
					<filter>
						<effect>
							<name>Audio Levels</name>
							<effectid>audiolevels</effectid>
							<effectcategory>audiolevels</effectcategory>
							<effecttype>audiolevels</effecttype>
							<mediatype>audio</mediatype>
							<parameter>
								<name>Level</name>
								<parameterid>level</parameterid>
								<valuemin>0</valuemin>
								<valuemax>3.98109</valuemax>
								<value>1</value>
							</parameter>
						</effect>
					</filter>
					<filter>
						<effect>
							<name>Audio Pan</name>
							<effectid>audiopan</effectid>
							<effectcategory>audiopan</effectcategory>
							<effecttype>audiopan</effecttype>
							<mediatype>audio</mediatype>
							<parameter>
								<name>Pan</name>
								<parameterid>pan</parameterid>
								<valuemin>-1</valuemin>
								<valuemax>1</valuemax>
								<value>0</value>
							</parameter>
						</effect>
					</filter>
					<sourcetrack>
						<mediatype>audio</mediatype>
						<trackindex>2</trackindex>
					</sourcetrack>
					<link>
						<linkclipref>C0004 6</linkclipref>
						<mediatype>audio</mediatype>
						<trackindex>1</trackindex>
						<clipindex>13</clipindex>
					</link>
					<link>
						<linkclipref>C0004 7</linkclipref>
						<mediatype>audio</mediatype>
						<trackindex>2</trackindex>
						<clipindex>12</clipindex>
					</link>
				</clipitem>
				<clipitem id="C0009 10">
					<name>C0009</name>
					<duration>2574</duration>
					<rate>
						<ntsc>FALSE</ntsc>
						<timebase>25</timebase>
					</rate>
					<in>1708</in>
					<out>1765</out>
					<start>2605</start>
					<end>2662</end>
					<subframeoffset>0</subframeoffset>
					<masterclipid>C0009 1</masterclipid>
					<logginginfo>
						<scene/>
						<shottake/>
						<lognote/>
						<good>FALSE</good>
					</logginginfo>
					<labels>
						<label2/>
					</labels>
					<comments>
						<mastercomment1/>
						<mastercomment2/>
						<mastercomment3/>
						<mastercomment4/>
					</comments>
					<file id="C0009 2"/>
					<filter>
						<effect>
							<name>Audio Levels</name>
							<effectid>audiolevels</effectid>
							<effectcategory>audiolevels</effectcategory>
							<effecttype>audiolevels</effecttype>
							<mediatype>audio</mediatype>
							<parameter>
								<name>Level</name>
								<parameterid>level</parameterid>
								<valuemin>0</valuemin>
								<valuemax>3.98109</valuemax>
								<value>1</value>
							</parameter>
						</effect>
					</filter>
					<filter>
						<effect>
							<name>Audio Pan</name>
							<effectid>audiopan</effectid>
							<effectcategory>audiopan</effectcategory>
							<effecttype>audiopan</effecttype>
							<mediatype>audio</mediatype>
							<parameter>
								<name>Pan</name>
								<parameterid>pan</parameterid>
								<valuemin>-1</valuemin>
								<valuemax>1</valuemax>
								<value>0</value>
							</parameter>
						</effect>
					</filter>
					<sourcetrack>
						<mediatype>audio</mediatype>
						<trackindex>2</trackindex>
					</sourcetrack>
					<link>
						<linkclipref>C0009 8</linkclipref>
						<mediatype>video</mediatype>
						<trackindex>1</trackindex>
						<clipindex>20</clipindex>
					</link>
					<link>
						<linkclipref>C0009 9</linkclipref>
						<mediatype>audio</mediatype>
						<trackindex>1</trackindex>
						<clipindex>14</clipindex>
					</link>
					<link>
						<linkclipref>C0009 10</linkclipref>
						<mediatype>audio</mediatype>
						<trackindex>2</trackindex>
						<clipindex>13</clipindex>
					</link>
				</clipitem>
				<clipitem id="C0004 5">
					<name>C0004</name>
					<duration>1095</duration>
					<rate>
						<ntsc>FALSE</ntsc>
						<timebase>25</timebase>
					</rate>
					<in>550</in>
					<out>765</out>
					<start>2662</start>
					<end>2877</end>
					<subframeoffset>0</subframeoffset>
					<masterclipid>C0004 1</masterclipid>
					<logginginfo>
						<scene/>
						<shottake/>
						<lognote/>
						<good>FALSE</good>
					</logginginfo>
					<labels>
						<label2/>
					</labels>
					<comments>
						<mastercomment1/>
						<mastercomment2/>
						<mastercomment3/>
						<mastercomment4/>
					</comments>
					<file id="C0004 2"/>
					<filter>
						<effect>
							<name>Audio Levels</name>
							<effectid>audiolevels</effectid>
							<effectcategory>audiolevels</effectcategory>
							<effecttype>audiolevels</effecttype>
							<mediatype>audio</mediatype>
							<parameter>
								<name>Level</name>
								<parameterid>level</parameterid>
								<valuemin>0</valuemin>
								<valuemax>3.98109</valuemax>
								<value>1</value>
							</parameter>
						</effect>
					</filter>
					<filter>
						<effect>
							<name>Audio Pan</name>
							<effectid>audiopan</effectid>
							<effectcategory>audiopan</effectcategory>
							<effecttype>audiopan</effecttype>
							<mediatype>audio</mediatype>
							<parameter>
								<name>Pan</name>
								<parameterid>pan</parameterid>
								<valuemin>-1</valuemin>
								<valuemax>1</valuemax>
								<value>0</value>
							</parameter>
						</effect>
					</filter>
					<sourcetrack>
						<mediatype>audio</mediatype>
						<trackindex>2</trackindex>
					</sourcetrack>
					<link>
						<linkclipref>C0004 3</linkclipref>
						<mediatype>video</mediatype>
						<trackindex>1</trackindex>
						<clipindex>21</clipindex>
					</link>
					<link>
						<linkclipref>C0004 4</linkclipref>
						<mediatype>audio</mediatype>
						<trackindex>1</trackindex>
						<clipindex>15</clipindex>
					</link>
					<link>
						<linkclipref>C0004 5</linkclipref>
						<mediatype>audio</mediatype>
						<trackindex>2</trackindex>
						<clipindex>14</clipindex>
					</link>
				</clipitem>
				<clipitem id="C0009 12">
					<name>C0009</name>
					<duration>2574</duration>
					<rate>
						<ntsc>FALSE</ntsc>
						<timebase>25</timebase>
					</rate>
					<in>1992</in>
					<out>2140</out>
					<start>2877</start>
					<end>3025</end>
					<subframeoffset>0</subframeoffset>
					<masterclipid>C0009 1</masterclipid>
					<logginginfo>
						<scene/>
						<shottake/>
						<lognote/>
						<good>FALSE</good>
					</logginginfo>
					<labels>
						<label2/>
					</labels>
					<comments>
						<mastercomment1/>
						<mastercomment2/>
						<mastercomment3/>
						<mastercomment4/>
					</comments>
					<file id="C0009 2"/>
					<filter>
						<effect>
							<name>Audio Levels</name>
							<effectid>audiolevels</effectid>
							<effectcategory>audiolevels</effectcategory>
							<effecttype>audiolevels</effecttype>
							<mediatype>audio</mediatype>
							<parameter>
								<name>Level</name>
								<parameterid>level</parameterid>
								<valuemin>0</valuemin>
								<valuemax>3.98109</valuemax>
								<keyframe>
									<when>1990.64</when>
									<value>0</value>
								</keyframe>
								<keyframe>
									<when>1995.07</when>
									<value>1</value>
								</keyframe>
								<interpolation>
									<name>FCPCurve</name>
								</interpolation>
								<value>1</value>
							</parameter>
						</effect>
					</filter>
					<filter>
						<effect>
							<name>Audio Pan</name>
							<effectid>audiopan</effectid>
							<effectcategory>audiopan</effectcategory>
							<effecttype>audiopan</effecttype>
							<mediatype>audio</mediatype>
							<parameter>
								<name>Pan</name>
								<parameterid>pan</parameterid>
								<valuemin>-1</valuemin>
								<valuemax>1</valuemax>
								<value>0</value>
							</parameter>
						</effect>
					</filter>
					<sourcetrack>
						<mediatype>audio</mediatype>
						<trackindex>2</trackindex>
					</sourcetrack>
					<link>
						<linkclipref>C0009 11</linkclipref>
						<mediatype>video</mediatype>
						<trackindex>1</trackindex>
						<clipindex>22</clipindex>
					</link>
					<link>
						<linkclipref>C0009 12</linkclipref>
						<mediatype>audio</mediatype>
						<trackindex>2</trackindex>
						<clipindex>15</clipindex>
					</link>
				</clipitem>
				<clipitem id="C0009 (1)7">
					<name>C0009 (1)</name>
					<duration>2688</duration>
					<rate>
						<ntsc>FALSE</ntsc>
						<timebase>25</timebase>
					</rate>
					<in>1477</in>
					<out>1622</out>
					<start>3025</start>
					<end>3170</end>
					<subframeoffset>0</subframeoffset>
					<masterclipid>C0009 (1)1</masterclipid>
					<logginginfo>
						<scene/>
						<shottake/>
						<lognote/>
						<good>FALSE</good>
					</logginginfo>
					<labels>
						<label2/>
					</labels>
					<comments>
						<mastercomment1/>
						<mastercomment2/>
						<mastercomment3/>
						<mastercomment4/>
					</comments>
					<file id="C0009 (1)2"/>
					<filter>
						<effect>
							<name>Audio Levels</name>
							<effectid>audiolevels</effectid>
							<effectcategory>audiolevels</effectcategory>
							<effecttype>audiolevels</effecttype>
							<mediatype>audio</mediatype>
							<parameter>
								<name>Level</name>
								<parameterid>level</parameterid>
								<valuemin>0</valuemin>
								<valuemax>3.98109</valuemax>
								<value>1</value>
							</parameter>
						</effect>
					</filter>
					<filter>
						<effect>
							<name>Audio Pan</name>
							<effectid>audiopan</effectid>
							<effectcategory>audiopan</effectcategory>
							<effecttype>audiopan</effecttype>
							<mediatype>audio</mediatype>
							<parameter>
								<name>Pan</name>
								<parameterid>pan</parameterid>
								<valuemin>-1</valuemin>
								<valuemax>1</valuemax>
								<value>0</value>
							</parameter>
						</effect>
					</filter>
					<sourcetrack>
						<mediatype>audio</mediatype>
						<trackindex>2</trackindex>
					</sourcetrack>
					<link>
						<linkclipref>C0009 (1)5</linkclipref>
						<mediatype>video</mediatype>
						<trackindex>1</trackindex>
						<clipindex>23</clipindex>
					</link>
					<link>
						<linkclipref>C0009 (1)6</linkclipref>
						<mediatype>audio</mediatype>
						<trackindex>1</trackindex>
						<clipindex>17</clipindex>
					</link>
					<link>
						<linkclipref>C0009 (1)7</linkclipref>
						<mediatype>audio</mediatype>
						<trackindex>2</trackindex>
						<clipindex>16</clipindex>
					</link>
				</clipitem>
				<clipitem id="C0009 15">
					<name>C0009</name>
					<duration>2574</duration>
					<rate>
						<ntsc>FALSE</ntsc>
						<timebase>25</timebase>
					</rate>
					<in>2327</in>
					<out>2361</out>
					<start>3170</start>
					<end>3204</end>
					<subframeoffset>0</subframeoffset>
					<masterclipid>C0009 1</masterclipid>
					<logginginfo>
						<scene/>
						<shottake/>
						<lognote/>
						<good>FALSE</good>
					</logginginfo>
					<labels>
						<label2/>
					</labels>
					<comments>
						<mastercomment1/>
						<mastercomment2/>
						<mastercomment3/>
						<mastercomment4/>
					</comments>
					<file id="C0009 2"/>
					<filter>
						<effect>
							<name>Audio Levels</name>
							<effectid>audiolevels</effectid>
							<effectcategory>audiolevels</effectcategory>
							<effecttype>audiolevels</effecttype>
							<mediatype>audio</mediatype>
							<parameter>
								<name>Level</name>
								<parameterid>level</parameterid>
								<valuemin>0</valuemin>
								<valuemax>3.98109</valuemax>
								<value>1</value>
							</parameter>
						</effect>
					</filter>
					<filter>
						<effect>
							<name>Audio Pan</name>
							<effectid>audiopan</effectid>
							<effectcategory>audiopan</effectcategory>
							<effecttype>audiopan</effecttype>
							<mediatype>audio</mediatype>
							<parameter>
								<name>Pan</name>
								<parameterid>pan</parameterid>
								<valuemin>-1</valuemin>
								<valuemax>1</valuemax>
								<value>0</value>
							</parameter>
						</effect>
					</filter>
					<sourcetrack>
						<mediatype>audio</mediatype>
						<trackindex>2</trackindex>
					</sourcetrack>
				</clipitem>
				<clipitem id="C0005 3">
					<name>C0005</name>
					<duration>1593</duration>
					<rate>
						<ntsc>FALSE</ntsc>
						<timebase>25</timebase>
					</rate>
					<in>640</in>
					<out>696</out>
					<start>3204</start>
					<end>3260</end>
					<subframeoffset>0</subframeoffset>
					<masterclipid>C0005 1</masterclipid>
					<logginginfo>
						<scene/>
						<shottake/>
						<lognote/>
						<good>FALSE</good>
					</logginginfo>
					<labels>
						<label2/>
					</labels>
					<comments>
						<mastercomment1/>
						<mastercomment2/>
						<mastercomment3/>
						<mastercomment4/>
					</comments>
					<file id="C0005 2"/>
					<filter>
						<effect>
							<name>Audio Levels</name>
							<effectid>audiolevels</effectid>
							<effectcategory>audiolevels</effectcategory>
							<effecttype>audiolevels</effecttype>
							<mediatype>audio</mediatype>
							<parameter>
								<name>Level</name>
								<parameterid>level</parameterid>
								<valuemin>0</valuemin>
								<valuemax>3.98109</valuemax>
								<value>1</value>
							</parameter>
						</effect>
					</filter>
					<filter>
						<effect>
							<name>Audio Pan</name>
							<effectid>audiopan</effectid>
							<effectcategory>audiopan</effectcategory>
							<effecttype>audiopan</effecttype>
							<mediatype>audio</mediatype>
							<parameter>
								<name>Pan</name>
								<parameterid>pan</parameterid>
								<valuemin>-1</valuemin>
								<valuemax>1</valuemax>
								<value>0</value>
							</parameter>
						</effect>
					</filter>
					<sourcetrack>
						<mediatype>audio</mediatype>
						<trackindex>2</trackindex>
					</sourcetrack>
					<link>
						<linkclipref>C0005 </linkclipref>
						<mediatype>video</mediatype>
						<trackindex>1</trackindex>
						<clipindex>24</clipindex>
					</link>
					<link>
						<linkclipref>C0005 3</linkclipref>
						<mediatype>audio</mediatype>
						<trackindex>2</trackindex>
						<clipindex>18</clipindex>
					</link>
				</clipitem>
				<clipitem id="C0011 4">
					<name>C0011</name>
					<duration>1444</duration>
					<rate>
						<ntsc>FALSE</ntsc>
						<timebase>25</timebase>
					</rate>
					<in>568</in>
					<out>796</out>
					<start>3260</start>
					<end>3488</end>
					<subframeoffset>0</subframeoffset>
					<masterclipid>C0011 1</masterclipid>
					<logginginfo>
						<scene/>
						<shottake/>
						<lognote/>
						<good>FALSE</good>
					</logginginfo>
					<labels>
						<label2/>
					</labels>
					<comments>
						<mastercomment1/>
						<mastercomment2/>
						<mastercomment3/>
						<mastercomment4/>
					</comments>
					<file id="C0011 2"/>
					<filter>
						<effect>
							<name>Audio Levels</name>
							<effectid>audiolevels</effectid>
							<effectcategory>audiolevels</effectcategory>
							<effecttype>audiolevels</effecttype>
							<mediatype>audio</mediatype>
							<parameter>
								<name>Level</name>
								<parameterid>level</parameterid>
								<valuemin>0</valuemin>
								<valuemax>3.98109</valuemax>
								<value>1</value>
							</parameter>
						</effect>
					</filter>
					<filter>
						<effect>
							<name>Audio Pan</name>
							<effectid>audiopan</effectid>
							<effectcategory>audiopan</effectcategory>
							<effecttype>audiopan</effecttype>
							<mediatype>audio</mediatype>
							<parameter>
								<name>Pan</name>
								<parameterid>pan</parameterid>
								<valuemin>-1</valuemin>
								<valuemax>1</valuemax>
								<value>0</value>
							</parameter>
						</effect>
					</filter>
					<sourcetrack>
						<mediatype>audio</mediatype>
						<trackindex>2</trackindex>
					</sourcetrack>
					<link>
						<linkclipref>C0011 </linkclipref>
						<mediatype>video</mediatype>
						<trackindex>1</trackindex>
						<clipindex>25</clipindex>
					</link>
					<link>
						<linkclipref>C0011 3</linkclipref>
						<mediatype>audio</mediatype>
						<trackindex>1</trackindex>
						<clipindex>20</clipindex>
					</link>
					<link>
						<linkclipref>C0011 4</linkclipref>
						<mediatype>audio</mediatype>
						<trackindex>2</trackindex>
						<clipindex>19</clipindex>
					</link>
				</clipitem>
				<clipitem id="C0009 (1)10">
					<name>C0009 (1)</name>
					<duration>2688</duration>
					<rate>
						<ntsc>FALSE</ntsc>
						<timebase>25</timebase>
					</rate>
					<in>1889</in>
					<out>1979</out>
					<start>3488</start>
					<end>3578</end>
					<subframeoffset>0</subframeoffset>
					<masterclipid>C0009 (1)1</masterclipid>
					<logginginfo>
						<scene/>
						<shottake/>
						<lognote/>
						<good>FALSE</good>
					</logginginfo>
					<labels>
						<label2/>
					</labels>
					<comments>
						<mastercomment1/>
						<mastercomment2/>
						<mastercomment3/>
						<mastercomment4/>
					</comments>
					<file id="C0009 (1)2"/>
					<filter>
						<effect>
							<name>Audio Levels</name>
							<effectid>audiolevels</effectid>
							<effectcategory>audiolevels</effectcategory>
							<effecttype>audiolevels</effecttype>
							<mediatype>audio</mediatype>
							<parameter>
								<name>Level</name>
								<parameterid>level</parameterid>
								<valuemin>0</valuemin>
								<valuemax>3.98109</valuemax>
								<value>1</value>
							</parameter>
						</effect>
					</filter>
					<filter>
						<effect>
							<name>Audio Pan</name>
							<effectid>audiopan</effectid>
							<effectcategory>audiopan</effectcategory>
							<effecttype>audiopan</effecttype>
							<mediatype>audio</mediatype>
							<parameter>
								<name>Pan</name>
								<parameterid>pan</parameterid>
								<valuemin>-1</valuemin>
								<valuemax>1</valuemax>
								<value>0</value>
							</parameter>
						</effect>
					</filter>
					<sourcetrack>
						<mediatype>audio</mediatype>
						<trackindex>2</trackindex>
					</sourcetrack>
					<link>
						<linkclipref>C0009 (1)8</linkclipref>
						<mediatype>video</mediatype>
						<trackindex>1</trackindex>
						<clipindex>26</clipindex>
					</link>
					<link>
						<linkclipref>C0009 (1)9</linkclipref>
						<mediatype>audio</mediatype>
						<trackindex>1</trackindex>
						<clipindex>21</clipindex>
					</link>
					<link>
						<linkclipref>C0009 (1)10</linkclipref>
						<mediatype>audio</mediatype>
						<trackindex>2</trackindex>
						<clipindex>20</clipindex>
					</link>
				</clipitem>
				<clipitem id="C0011 7">
					<name>C0011</name>
					<duration>1444</duration>
					<rate>
						<ntsc>FALSE</ntsc>
						<timebase>25</timebase>
					</rate>
					<in>836</in>
					<out>877</out>
					<start>3578</start>
					<end>3619</end>
					<subframeoffset>0</subframeoffset>
					<masterclipid>C0011 1</masterclipid>
					<logginginfo>
						<scene/>
						<shottake/>
						<lognote/>
						<good>FALSE</good>
					</logginginfo>
					<labels>
						<label2/>
					</labels>
					<comments>
						<mastercomment1/>
						<mastercomment2/>
						<mastercomment3/>
						<mastercomment4/>
					</comments>
					<file id="C0011 2"/>
					<filter>
						<effect>
							<name>Audio Levels</name>
							<effectid>audiolevels</effectid>
							<effectcategory>audiolevels</effectcategory>
							<effecttype>audiolevels</effecttype>
							<mediatype>audio</mediatype>
							<parameter>
								<name>Level</name>
								<parameterid>level</parameterid>
								<valuemin>0</valuemin>
								<valuemax>3.98109</valuemax>
								<value>1</value>
							</parameter>
						</effect>
					</filter>
					<filter>
						<effect>
							<name>Audio Pan</name>
							<effectid>audiopan</effectid>
							<effectcategory>audiopan</effectcategory>
							<effecttype>audiopan</effecttype>
							<mediatype>audio</mediatype>
							<parameter>
								<name>Pan</name>
								<parameterid>pan</parameterid>
								<valuemin>-1</valuemin>
								<valuemax>1</valuemax>
								<value>0</value>
							</parameter>
						</effect>
					</filter>
					<sourcetrack>
						<mediatype>audio</mediatype>
						<trackindex>2</trackindex>
					</sourcetrack>
					<link>
						<linkclipref>C0011 5</linkclipref>
						<mediatype>video</mediatype>
						<trackindex>1</trackindex>
						<clipindex>27</clipindex>
					</link>
					<link>
						<linkclipref>C0011 6</linkclipref>
						<mediatype>audio</mediatype>
						<trackindex>1</trackindex>
						<clipindex>22</clipindex>
					</link>
					<link>
						<linkclipref>C0011 7</linkclipref>
						<mediatype>audio</mediatype>
						<trackindex>2</trackindex>
						<clipindex>21</clipindex>
					</link>
				</clipitem>
				<clipitem id="C0005 5">
					<name>C0005</name>
					<duration>1593</duration>
					<rate>
						<ntsc>FALSE</ntsc>
						<timebase>25</timebase>
					</rate>
					<in>998</in>
					<out>1129</out>
					<start>3619</start>
					<end>3750</end>
					<masterclipid>C0005 1</masterclipid>
					<logginginfo>
						<scene/>
						<shottake/>
						<lognote/>
						<good>FALSE</good>
					</logginginfo>
					<labels>
						<label2/>
					</labels>
					<comments>
						<mastercomment1/>
						<mastercomment2/>
						<mastercomment3/>
						<mastercomment4/>
					</comments>
					<file id="C0005 2"/>
					<filter>
						<effect>
							<name>Audio Levels</name>
							<effectid>audiolevels</effectid>
							<effectcategory>audiolevels</effectcategory>
							<effecttype>audiolevels</effecttype>
							<mediatype>audio</mediatype>
							<parameter>
								<name>Level</name>
								<parameterid>level</parameterid>
								<valuemin>0</valuemin>
								<valuemax>3.98109</valuemax>
								<value>1</value>
							</parameter>
						</effect>
					</filter>
					<filter>
						<effect>
							<name>Audio Pan</name>
							<effectid>audiopan</effectid>
							<effectcategory>audiopan</effectcategory>
							<effecttype>audiopan</effecttype>
							<mediatype>audio</mediatype>
							<parameter>
								<name>Pan</name>
								<parameterid>pan</parameterid>
								<valuemin>-1</valuemin>
								<valuemax>1</valuemax>
								<value>0</value>
							</parameter>
						</effect>
					</filter>
					<sourcetrack>
						<mediatype>audio</mediatype>
						<trackindex>2</trackindex>
					</sourcetrack>
					<link>
						<linkclipref>C0005 4</linkclipref>
						<mediatype>video</mediatype>
						<trackindex>1</trackindex>
						<clipindex>28</clipindex>
					</link>
					<link>
						<linkclipref>C0005 5</linkclipref>
						<mediatype>audio</mediatype>
						<trackindex>2</trackindex>
						<clipindex>22</clipindex>
					</link>
				</clipitem>
				<clipitem id="C0010 4">
					<name>C0010</name>
					<duration>3012</duration>
					<rate>
						<ntsc>FALSE</ntsc>
						<timebase>25</timebase>
					</rate>
					<in>2561</in>
					<out>2637</out>
					<start>3750</start>
					<end>3826</end>
					<subframeoffset>0</subframeoffset>
					<masterclipid>C0010 1</masterclipid>
					<logginginfo>
						<scene/>
						<shottake/>
						<lognote/>
						<good>FALSE</good>
					</logginginfo>
					<labels>
						<label2/>
					</labels>
					<comments>
						<mastercomment1/>
						<mastercomment2/>
						<mastercomment3/>
						<mastercomment4/>
					</comments>
					<file id="C0010 2"/>
					<filter>
						<effect>
							<name>Audio Levels</name>
							<effectid>audiolevels</effectid>
							<effectcategory>audiolevels</effectcategory>
							<effecttype>audiolevels</effecttype>
							<mediatype>audio</mediatype>
							<parameter>
								<name>Level</name>
								<parameterid>level</parameterid>
								<valuemin>0</valuemin>
								<valuemax>3.98109</valuemax>
								<keyframe>
									<when>2242.43</when>
									<value>0</value>
								</keyframe>
								<keyframe>
									<when>2264.86</when>
									<value>1</value>
								</keyframe>
								<interpolation>
									<name>FCPCurve</name>
								</interpolation>
								<value>1</value>
							</parameter>
						</effect>
					</filter>
					<filter>
						<effect>
							<name>Audio Pan</name>
							<effectid>audiopan</effectid>
							<effectcategory>audiopan</effectcategory>
							<effecttype>audiopan</effecttype>
							<mediatype>audio</mediatype>
							<parameter>
								<name>Pan</name>
								<parameterid>pan</parameterid>
								<valuemin>-1</valuemin>
								<valuemax>1</valuemax>
								<value>0</value>
							</parameter>
						</effect>
					</filter>
					<sourcetrack>
						<mediatype>audio</mediatype>
						<trackindex>2</trackindex>
					</sourcetrack>
					<link>
						<linkclipref>C0010 4</linkclipref>
						<mediatype>audio</mediatype>
						<trackindex>2</trackindex>
						<clipindex>23</clipindex>
					</link>
				</clipitem>
				<clipitem id="SCD086738_PRETTY IN PINK_SONOTON.wav1">
					<name>SCD086738_PRETTY IN PINK_SONOTON.wav</name>
					<duration>801</duration>
					<rate>
						<ntsc>FALSE</ntsc>
						<timebase>25</timebase>
					</rate>
					<in>0</in>
					<out>173</out>
					<start>4073</start>
					<end>-1</end>
					<subframeoffset>0</subframeoffset>
					<logginginfo>
						<scene/>
						<shottake/>
						<lognote/>
						<good>FALSE</good>
					</logginginfo>
					<labels>
						<label2/>
					</labels>
					<comments>
						<mastercomment1/>
						<mastercomment2/>
						<mastercomment3/>
						<mastercomment4/>
					</comments>
					<file id="SCD086738_PRETTY IN PINK_SONOTON"/>
					<filter>
						<effect>
							<name>Audio Levels</name>
							<effectid>audiolevels</effectid>
							<effectcategory>audiolevels</effectcategory>
							<effecttype>audiolevels</effecttype>
							<mediatype>audio</mediatype>
							<parameter>
								<name>Level</name>
								<parameterid>level</parameterid>
								<valuemin>0</valuemin>
								<valuemax>3.98109</valuemax>
								<value>0.158489</value>
							</parameter>
						</effect>
					</filter>
					<filter>
						<effect>
							<name>Audio Pan</name>
							<effectid>audiopan</effectid>
							<effectcategory>audiopan</effectcategory>
							<effecttype>audiopan</effecttype>
							<mediatype>audio</mediatype>
							<parameter>
								<name>Pan</name>
								<parameterid>pan</parameterid>
								<valuemin>-1</valuemin>
								<valuemax>1</valuemax>
								<value>1</value>
							</parameter>
						</effect>
					</filter>
					<sourcetrack>
						<mediatype>audio</mediatype>
						<trackindex>2</trackindex>
					</sourcetrack>
					<link>
						<linkclipref>SCD086738_PRETTY IN PINK_SONOTON.wav</linkclipref>
						<mediatype>audio</mediatype>
						<trackindex>1</trackindex>
						<clipindex>25</clipindex>
						<groupindex>1</groupindex>
					</link>
					<link>
						<linkclipref>SCD086738_PRETTY IN PINK_SONOTON.wav1</linkclipref>
						<mediatype>audio</mediatype>
						<trackindex>2</trackindex>
						<clipindex>24</clipindex>
						<groupindex>1</groupindex>
					</link>
				</clipitem>
				<transitionitem id="1787563752 ">
					<rate>
						<ntsc>FALSE</ntsc>
						<timebase>25</timebase>
					</rate>
					<start>4241</start>
					<end>4246</end>
					<alignment>center</alignment>
					<effect>
						<name>Cross Fade (+3dB)</name>
						<effecttype>transition</effecttype>
						<mediatype>audio</mediatype>
					</effect>
				</transitionitem>
				<clipitem id="SCD086738_PRETTY IN PINK_SONOTON.wav3">
					<name>SCD086738_PRETTY IN PINK_SONOTON.wav</name>
					<duration>801</duration>
					<rate>
						<ntsc>FALSE</ntsc>
						<timebase>25</timebase>
					</rate>
					<in>627</in>
					<out>680</out>
					<start>-1</start>
					<end>-1</end>
					<subframeoffset>0</subframeoffset>
					<logginginfo>
						<scene/>
						<shottake/>
						<lognote/>
						<good>FALSE</good>
					</logginginfo>
					<labels>
						<label2/>
					</labels>
					<comments>
						<mastercomment1/>
						<mastercomment2/>
						<mastercomment3/>
						<mastercomment4/>
					</comments>
					<file id="SCD086738_PRETTY IN PINK_SONOTON"/>
					<filter>
						<effect>
							<name>Audio Levels</name>
							<effectid>audiolevels</effectid>
							<effectcategory>audiolevels</effectcategory>
							<effecttype>audiolevels</effecttype>
							<mediatype>audio</mediatype>
							<parameter>
								<name>Level</name>
								<parameterid>level</parameterid>
								<valuemin>0</valuemin>
								<valuemax>3.98109</valuemax>
								<value>0.177828</value>
							</parameter>
						</effect>
					</filter>
					<filter>
						<effect>
							<name>Audio Pan</name>
							<effectid>audiopan</effectid>
							<effectcategory>audiopan</effectcategory>
							<effecttype>audiopan</effecttype>
							<mediatype>audio</mediatype>
							<parameter>
								<name>Pan</name>
								<parameterid>pan</parameterid>
								<valuemin>-1</valuemin>
								<valuemax>1</valuemax>
								<value>1</value>
							</parameter>
						</effect>
					</filter>
					<sourcetrack>
						<mediatype>audio</mediatype>
						<trackindex>2</trackindex>
					</sourcetrack>
					<link>
						<linkclipref>SCD086738_PRETTY IN PINK_SONOTON.wav2</linkclipref>
						<mediatype>audio</mediatype>
						<trackindex>1</trackindex>
						<clipindex>27</clipindex>
						<groupindex>1</groupindex>
					</link>
					<link>
						<linkclipref>SCD086738_PRETTY IN PINK_SONOTON.wav3</linkclipref>
						<mediatype>audio</mediatype>
						<trackindex>2</trackindex>
						<clipindex>26</clipindex>
						<groupindex>1</groupindex>
					</link>
				</clipitem>
				<transitionitem id="1787555864 ">
					<rate>
						<ntsc>FALSE</ntsc>
						<timebase>25</timebase>
					</rate>
					<start>4289</start>
					<end>4294</end>
					<alignment>center</alignment>
					<effect>
						<name>Cross Fade (+3dB)</name>
						<effecttype>transition</effecttype>
						<mediatype>audio</mediatype>
					</effect>
				</transitionitem>
				<clipitem id="SCD086738_PRETTY IN PINK_SONOTON.wav5">
					<name>SCD086738_PRETTY IN PINK_SONOTON.wav</name>
					<duration>801</duration>
					<rate>
						<ntsc>FALSE</ntsc>
						<timebase>25</timebase>
					</rate>
					<in>706</in>
					<out>794</out>
					<start>-1</start>
					<end>4377</end>
					<subframeoffset>0</subframeoffset>
					<logginginfo>
						<scene/>
						<shottake/>
						<lognote/>
						<good>FALSE</good>
					</logginginfo>
					<labels>
						<label2/>
					</labels>
					<comments>
						<mastercomment1/>
						<mastercomment2/>
						<mastercomment3/>
						<mastercomment4/>
					</comments>
					<file id="SCD086738_PRETTY IN PINK_SONOTON"/>
					<filter>
						<effect>
							<name>Audio Levels</name>
							<effectid>audiolevels</effectid>
							<effectcategory>audiolevels</effectcategory>
							<effecttype>audiolevels</effecttype>
							<mediatype>audio</mediatype>
							<parameter>
								<name>Level</name>
								<parameterid>level</parameterid>
								<valuemin>0</valuemin>
								<valuemax>3.98109</valuemax>
								<value>0.177828</value>
							</parameter>
						</effect>
					</filter>
					<filter>
						<effect>
							<name>Audio Pan</name>
							<effectid>audiopan</effectid>
							<effectcategory>audiopan</effectcategory>
							<effecttype>audiopan</effecttype>
							<mediatype>audio</mediatype>
							<parameter>
								<name>Pan</name>
								<parameterid>pan</parameterid>
								<valuemin>-1</valuemin>
								<valuemax>1</valuemax>
								<value>1</value>
							</parameter>
						</effect>
					</filter>
					<sourcetrack>
						<mediatype>audio</mediatype>
						<trackindex>2</trackindex>
					</sourcetrack>
					<link>
						<linkclipref>SCD086738_PRETTY IN PINK_SONOTON.wav4</linkclipref>
						<mediatype>audio</mediatype>
						<trackindex>1</trackindex>
						<clipindex>29</clipindex>
						<groupindex>1</groupindex>
					</link>
					<link>
						<linkclipref>SCD086738_PRETTY IN PINK_SONOTON.wav5</linkclipref>
						<mediatype>audio</mediatype>
						<trackindex>2</trackindex>
						<clipindex>28</clipindex>
						<groupindex>1</groupindex>
					</link>
				</clipitem>
				<clipitem id="525_0305_01 9">
					<name>525_0305_01</name>
					<duration>3311</duration>
					<rate>
						<ntsc>FALSE</ntsc>
						<timebase>25</timebase>
					</rate>
					<in>389</in>
					<out>435</out>
					<start>5830</start>
					<end>5876</end>
					<subframeoffset>0</subframeoffset>
					<logginginfo>
						<scene/>
						<shottake/>
						<lognote/>
						<good>FALSE</good>
					</logginginfo>
					<labels>
						<label2/>
					</labels>
					<comments>
						<mastercomment1/>
						<mastercomment2/>
						<mastercomment3/>
						<mastercomment4/>
					</comments>
					<file id="525_0305_01 5"/>
					<filter>
						<effect>
							<name>Audio Levels</name>
							<effectid>audiolevels</effectid>
							<effectcategory>audiolevels</effectcategory>
							<effecttype>audiolevels</effecttype>
							<mediatype>audio</mediatype>
							<parameter>
								<name>Level</name>
								<parameterid>level</parameterid>
								<valuemin>0</valuemin>
								<valuemax>3.98109</valuemax>
								<value>1.99526</value>
							</parameter>
						</effect>
					</filter>
					<filter>
						<effect>
							<name>Audio Pan</name>
							<effectid>audiopan</effectid>
							<effectcategory>audiopan</effectcategory>
							<effecttype>audiopan</effecttype>
							<mediatype>audio</mediatype>
							<parameter>
								<name>Pan</name>
								<parameterid>pan</parameterid>
								<valuemin>-1</valuemin>
								<valuemax>1</valuemax>
								<value>0</value>
							</parameter>
						</effect>
					</filter>
					<sourcetrack>
						<mediatype>audio</mediatype>
						<trackindex>1</trackindex>
					</sourcetrack>
				</clipitem>
				<clipitem id="525_0305_01 10">
					<name>525_0305_01</name>
					<duration>3311</duration>
					<rate>
						<ntsc>FALSE</ntsc>
						<timebase>25</timebase>
					</rate>
					<in>818</in>
					<out>903</out>
					<start>5876</start>
					<end>5961</end>
					<subframeoffset>0</subframeoffset>
					<logginginfo>
						<scene/>
						<shottake/>
						<lognote/>
						<good>FALSE</good>
					</logginginfo>
					<labels>
						<label2/>
					</labels>
					<comments>
						<mastercomment1/>
						<mastercomment2/>
						<mastercomment3/>
						<mastercomment4/>
					</comments>
					<file id="525_0305_01 5"/>
					<filter>
						<effect>
							<name>Audio Levels</name>
							<effectid>audiolevels</effectid>
							<effectcategory>audiolevels</effectcategory>
							<effecttype>audiolevels</effecttype>
							<mediatype>audio</mediatype>
							<parameter>
								<name>Level</name>
								<parameterid>level</parameterid>
								<valuemin>0</valuemin>
								<valuemax>3.98109</valuemax>
								<value>1.99526</value>
							</parameter>
						</effect>
					</filter>
					<filter>
						<effect>
							<name>Audio Pan</name>
							<effectid>audiopan</effectid>
							<effectcategory>audiopan</effectcategory>
							<effecttype>audiopan</effecttype>
							<mediatype>audio</mediatype>
							<parameter>
								<name>Pan</name>
								<parameterid>pan</parameterid>
								<valuemin>-1</valuemin>
								<valuemax>1</valuemax>
								<value>0</value>
							</parameter>
						</effect>
					</filter>
					<sourcetrack>
						<mediatype>audio</mediatype>
						<trackindex>1</trackindex>
					</sourcetrack>
				</clipitem>
				<clipitem id="525_0305_01 11">
					<name>525_0305_01</name>
					<duration>3311</duration>
					<rate>
						<ntsc>FALSE</ntsc>
						<timebase>25</timebase>
					</rate>
					<in>818</in>
					<out>838</out>
					<start>5961</start>
					<end>5981</end>
					<subframeoffset>0</subframeoffset>
					<logginginfo>
						<scene/>
						<shottake/>
						<lognote/>
						<good>FALSE</good>
					</logginginfo>
					<labels>
						<label2/>
					</labels>
					<comments>
						<mastercomment1/>
						<mastercomment2/>
						<mastercomment3/>
						<mastercomment4/>
					</comments>
					<file id="525_0305_01 5"/>
					<filter>
						<effect>
							<name>Audio Levels</name>
							<effectid>audiolevels</effectid>
							<effectcategory>audiolevels</effectcategory>
							<effecttype>audiolevels</effecttype>
							<mediatype>audio</mediatype>
							<parameter>
								<name>Level</name>
								<parameterid>level</parameterid>
								<valuemin>0</valuemin>
								<valuemax>3.98109</valuemax>
								<value>1.99526</value>
							</parameter>
						</effect>
					</filter>
					<filter>
						<effect>
							<name>Audio Pan</name>
							<effectid>audiopan</effectid>
							<effectcategory>audiopan</effectcategory>
							<effecttype>audiopan</effecttype>
							<mediatype>audio</mediatype>
							<parameter>
								<name>Pan</name>
								<parameterid>pan</parameterid>
								<valuemin>-1</valuemin>
								<valuemax>1</valuemax>
								<value>0</value>
							</parameter>
						</effect>
					</filter>
					<sourcetrack>
						<mediatype>audio</mediatype>
						<trackindex>1</trackindex>
					</sourcetrack>
				</clipitem>
				<clipitem id="525_0305_01 12">
					<name>525_0305_01</name>
					<duration>3311</duration>
					<rate>
						<ntsc>FALSE</ntsc>
						<timebase>25</timebase>
					</rate>
					<in>540</in>
					<out>643</out>
					<start>5981</start>
					<end>6084</end>
					<subframeoffset>0</subframeoffset>
					<logginginfo>
						<scene/>
						<shottake/>
						<lognote/>
						<good>FALSE</good>
					</logginginfo>
					<labels>
						<label2/>
					</labels>
					<comments>
						<mastercomment1/>
						<mastercomment2/>
						<mastercomment3/>
						<mastercomment4/>
					</comments>
					<file id="525_0305_01 5"/>
					<filter>
						<effect>
							<name>Audio Levels</name>
							<effectid>audiolevels</effectid>
							<effectcategory>audiolevels</effectcategory>
							<effecttype>audiolevels</effecttype>
							<mediatype>audio</mediatype>
							<parameter>
								<name>Level</name>
								<parameterid>level</parameterid>
								<valuemin>0</valuemin>
								<valuemax>3.98109</valuemax>
								<value>2.81838</value>
							</parameter>
						</effect>
					</filter>
					<filter>
						<effect>
							<name>Audio Pan</name>
							<effectid>audiopan</effectid>
							<effectcategory>audiopan</effectcategory>
							<effecttype>audiopan</effecttype>
							<mediatype>audio</mediatype>
							<parameter>
								<name>Pan</name>
								<parameterid>pan</parameterid>
								<valuemin>-1</valuemin>
								<valuemax>1</valuemax>
								<value>0</value>
							</parameter>
						</effect>
					</filter>
					<sourcetrack>
						<mediatype>audio</mediatype>
						<trackindex>1</trackindex>
					</sourcetrack>
				</clipitem>
				<clipitem id="525_0305_01 13">
					<name>525_0305_01</name>
					<duration>3311</duration>
					<rate>
						<ntsc>FALSE</ntsc>
						<timebase>25</timebase>
					</rate>
					<in>804</in>
					<out>853</out>
					<start>6084</start>
					<end>6133</end>
					<subframeoffset>0</subframeoffset>
					<logginginfo>
						<scene/>
						<shottake/>
						<lognote/>
						<good>FALSE</good>
					</logginginfo>
					<labels>
						<label2/>
					</labels>
					<comments>
						<mastercomment1/>
						<mastercomment2/>
						<mastercomment3/>
						<mastercomment4/>
					</comments>
					<file id="525_0305_01 5"/>
					<filter>
						<effect>
							<name>Audio Levels</name>
							<effectid>audiolevels</effectid>
							<effectcategory>audiolevels</effectcategory>
							<effecttype>audiolevels</effecttype>
							<mediatype>audio</mediatype>
							<parameter>
								<name>Level</name>
								<parameterid>level</parameterid>
								<valuemin>0</valuemin>
								<valuemax>3.98109</valuemax>
								<value>2.81838</value>
							</parameter>
						</effect>
					</filter>
					<filter>
						<effect>
							<name>Audio Pan</name>
							<effectid>audiopan</effectid>
							<effectcategory>audiopan</effectcategory>
							<effecttype>audiopan</effecttype>
							<mediatype>audio</mediatype>
							<parameter>
								<name>Pan</name>
								<parameterid>pan</parameterid>
								<valuemin>-1</valuemin>
								<valuemax>1</valuemax>
								<value>0</value>
							</parameter>
						</effect>
					</filter>
					<sourcetrack>
						<mediatype>audio</mediatype>
						<trackindex>1</trackindex>
					</sourcetrack>
				</clipitem>
				<clipitem id="525_0305_01 14">
					<name>525_0305_01</name>
					<duration>3311</duration>
					<rate>
						<ntsc>FALSE</ntsc>
						<timebase>25</timebase>
					</rate>
					<in>692</in>
					<out>751</out>
					<start>6133</start>
					<end>6192</end>
					<subframeoffset>0</subframeoffset>
					<logginginfo>
						<scene/>
						<shottake/>
						<lognote/>
						<good>FALSE</good>
					</logginginfo>
					<labels>
						<label2/>
					</labels>
					<comments>
						<mastercomment1/>
						<mastercomment2/>
						<mastercomment3/>
						<mastercomment4/>
					</comments>
					<file id="525_0305_01 5"/>
					<filter>
						<effect>
							<name>Audio Levels</name>
							<effectid>audiolevels</effectid>
							<effectcategory>audiolevels</effectcategory>
							<effecttype>audiolevels</effecttype>
							<mediatype>audio</mediatype>
							<parameter>
								<name>Level</name>
								<parameterid>level</parameterid>
								<valuemin>0</valuemin>
								<valuemax>3.98109</valuemax>
								<value>2.81838</value>
							</parameter>
						</effect>
					</filter>
					<filter>
						<effect>
							<name>Audio Pan</name>
							<effectid>audiopan</effectid>
							<effectcategory>audiopan</effectcategory>
							<effecttype>audiopan</effecttype>
							<mediatype>audio</mediatype>
							<parameter>
								<name>Pan</name>
								<parameterid>pan</parameterid>
								<valuemin>-1</valuemin>
								<valuemax>1</valuemax>
								<value>0</value>
							</parameter>
						</effect>
					</filter>
					<sourcetrack>
						<mediatype>audio</mediatype>
						<trackindex>1</trackindex>
					</sourcetrack>
				</clipitem>
				<clipitem id="525_0305_01 15">
					<name>525_0305_01</name>
					<duration>3311</duration>
					<rate>
						<ntsc>FALSE</ntsc>
						<timebase>25</timebase>
					</rate>
					<in>1549</in>
					<out>1601</out>
					<start>6192</start>
					<end>6244</end>
					<subframeoffset>0</subframeoffset>
					<logginginfo>
						<scene/>
						<shottake/>
						<lognote/>
						<good>FALSE</good>
					</logginginfo>
					<labels>
						<label2/>
					</labels>
					<comments>
						<mastercomment1/>
						<mastercomment2/>
						<mastercomment3/>
						<mastercomment4/>
					</comments>
					<file id="525_0305_01 5"/>
					<filter>
						<effect>
							<name>Audio Levels</name>
							<effectid>audiolevels</effectid>
							<effectcategory>audiolevels</effectcategory>
							<effecttype>audiolevels</effecttype>
							<mediatype>audio</mediatype>
							<parameter>
								<name>Level</name>
								<parameterid>level</parameterid>
								<valuemin>0</valuemin>
								<valuemax>3.98109</valuemax>
								<value>2.81838</value>
							</parameter>
						</effect>
					</filter>
					<filter>
						<effect>
							<name>Audio Pan</name>
							<effectid>audiopan</effectid>
							<effectcategory>audiopan</effectcategory>
							<effecttype>audiopan</effecttype>
							<mediatype>audio</mediatype>
							<parameter>
								<name>Pan</name>
								<parameterid>pan</parameterid>
								<valuemin>-1</valuemin>
								<valuemax>1</valuemax>
								<value>0</value>
							</parameter>
						</effect>
					</filter>
					<sourcetrack>
						<mediatype>audio</mediatype>
						<trackindex>1</trackindex>
					</sourcetrack>
				</clipitem>
				<clipitem id="525_0305_01 16">
					<name>525_0305_01</name>
					<duration>3311</duration>
					<rate>
						<ntsc>FALSE</ntsc>
						<timebase>25</timebase>
					</rate>
					<in>1540</in>
					<out>1571</out>
					<start>6244</start>
					<end>6275</end>
					<subframeoffset>0</subframeoffset>
					<logginginfo>
						<scene/>
						<shottake/>
						<lognote/>
						<good>FALSE</good>
					</logginginfo>
					<labels>
						<label2/>
					</labels>
					<comments>
						<mastercomment1/>
						<mastercomment2/>
						<mastercomment3/>
						<mastercomment4/>
					</comments>
					<file id="525_0305_01 5"/>
					<filter>
						<effect>
							<name>Audio Levels</name>
							<effectid>audiolevels</effectid>
							<effectcategory>audiolevels</effectcategory>
							<effecttype>audiolevels</effecttype>
							<mediatype>audio</mediatype>
							<parameter>
								<name>Level</name>
								<parameterid>level</parameterid>
								<valuemin>0</valuemin>
								<valuemax>3.98109</valuemax>
								<value>2.81838</value>
							</parameter>
						</effect>
					</filter>
					<filter>
						<effect>
							<name>Audio Pan</name>
							<effectid>audiopan</effectid>
							<effectcategory>audiopan</effectcategory>
							<effecttype>audiopan</effecttype>
							<mediatype>audio</mediatype>
							<parameter>
								<name>Pan</name>
								<parameterid>pan</parameterid>
								<valuemin>-1</valuemin>
								<valuemax>1</valuemax>
								<value>0</value>
							</parameter>
						</effect>
					</filter>
					<sourcetrack>
						<mediatype>audio</mediatype>
						<trackindex>1</trackindex>
					</sourcetrack>
				</clipitem>
				<clipitem id="525_0305_01 17">
					<name>525_0305_01</name>
					<duration>3311</duration>
					<rate>
						<ntsc>FALSE</ntsc>
						<timebase>25</timebase>
					</rate>
					<in>834</in>
					<out>887</out>
					<start>6275</start>
					<end>6328</end>
					<subframeoffset>0</subframeoffset>
					<logginginfo>
						<scene/>
						<shottake/>
						<lognote/>
						<good>FALSE</good>
					</logginginfo>
					<labels>
						<label2/>
					</labels>
					<comments>
						<mastercomment1/>
						<mastercomment2/>
						<mastercomment3/>
						<mastercomment4/>
					</comments>
					<file id="525_0305_01 5"/>
					<filter>
						<effect>
							<name>Audio Levels</name>
							<effectid>audiolevels</effectid>
							<effectcategory>audiolevels</effectcategory>
							<effecttype>audiolevels</effecttype>
							<mediatype>audio</mediatype>
							<parameter>
								<name>Level</name>
								<parameterid>level</parameterid>
								<valuemin>0</valuemin>
								<valuemax>3.98109</valuemax>
								<value>1.41254</value>
							</parameter>
						</effect>
					</filter>
					<filter>
						<effect>
							<name>Audio Pan</name>
							<effectid>audiopan</effectid>
							<effectcategory>audiopan</effectcategory>
							<effecttype>audiopan</effecttype>
							<mediatype>audio</mediatype>
							<parameter>
								<name>Pan</name>
								<parameterid>pan</parameterid>
								<valuemin>-1</valuemin>
								<valuemax>1</valuemax>
								<value>0</value>
							</parameter>
						</effect>
					</filter>
					<sourcetrack>
						<mediatype>audio</mediatype>
						<trackindex>1</trackindex>
					</sourcetrack>
				</clipitem>
				<clipitem id="525_0305_01 18">
					<name>525_0305_01</name>
					<duration>3311</duration>
					<rate>
						<ntsc>FALSE</ntsc>
						<timebase>25</timebase>
					</rate>
					<in>1287</in>
					<out>1318</out>
					<start>6459</start>
					<end>6490</end>
					<subframeoffset>0</subframeoffset>
					<logginginfo>
						<scene/>
						<shottake/>
						<lognote/>
						<good>FALSE</good>
					</logginginfo>
					<labels>
						<label2/>
					</labels>
					<comments>
						<mastercomment1/>
						<mastercomment2/>
						<mastercomment3/>
						<mastercomment4/>
					</comments>
					<file id="525_0305_01 5"/>
					<filter>
						<effect>
							<name>Audio Levels</name>
							<effectid>audiolevels</effectid>
							<effectcategory>audiolevels</effectcategory>
							<effecttype>audiolevels</effecttype>
							<mediatype>audio</mediatype>
							<parameter>
								<name>Level</name>
								<parameterid>level</parameterid>
								<valuemin>0</valuemin>
								<valuemax>3.98109</valuemax>
								<value>1.77828</value>
							</parameter>
						</effect>
					</filter>
					<filter>
						<effect>
							<name>Audio Pan</name>
							<effectid>audiopan</effectid>
							<effectcategory>audiopan</effectcategory>
							<effecttype>audiopan</effecttype>
							<mediatype>audio</mediatype>
							<parameter>
								<name>Pan</name>
								<parameterid>pan</parameterid>
								<valuemin>-1</valuemin>
								<valuemax>1</valuemax>
								<value>0</value>
							</parameter>
						</effect>
					</filter>
					<sourcetrack>
						<mediatype>audio</mediatype>
						<trackindex>1</trackindex>
					</sourcetrack>
				</clipitem>
				<clipitem id="525_0305_01 19">
					<name>525_0305_01</name>
					<duration>3311</duration>
					<rate>
						<ntsc>FALSE</ntsc>
						<timebase>25</timebase>
					</rate>
					<in>1540</in>
					<out>1574</out>
					<start>6490</start>
					<end>6524</end>
					<subframeoffset>0</subframeoffset>
					<logginginfo>
						<scene/>
						<shottake/>
						<lognote/>
						<good>FALSE</good>
					</logginginfo>
					<labels>
						<label2/>
					</labels>
					<comments>
						<mastercomment1/>
						<mastercomment2/>
						<mastercomment3/>
						<mastercomment4/>
					</comments>
					<file id="525_0305_01 5"/>
					<filter>
						<effect>
							<name>Audio Levels</name>
							<effectid>audiolevels</effectid>
							<effectcategory>audiolevels</effectcategory>
							<effecttype>audiolevels</effecttype>
							<mediatype>audio</mediatype>
							<parameter>
								<name>Level</name>
								<parameterid>level</parameterid>
								<valuemin>0</valuemin>
								<valuemax>3.98109</valuemax>
								<value>2.51189</value>
							</parameter>
						</effect>
					</filter>
					<filter>
						<effect>
							<name>Audio Pan</name>
							<effectid>audiopan</effectid>
							<effectcategory>audiopan</effectcategory>
							<effecttype>audiopan</effecttype>
							<mediatype>audio</mediatype>
							<parameter>
								<name>Pan</name>
								<parameterid>pan</parameterid>
								<valuemin>-1</valuemin>
								<valuemax>1</valuemax>
								<value>0</value>
							</parameter>
						</effect>
					</filter>
					<sourcetrack>
						<mediatype>audio</mediatype>
						<trackindex>1</trackindex>
					</sourcetrack>
				</clipitem>
				<clipitem id="525_0287_01 4">
					<name>525_0287_01</name>
					<duration>2106</duration>
					<rate>
						<ntsc>FALSE</ntsc>
						<timebase>25</timebase>
					</rate>
					<in>214</in>
					<out>400</out>
					<start>7815</start>
					<end>8001</end>
					<subframeoffset>0</subframeoffset>
					<logginginfo>
						<scene/>
						<shottake/>
						<lognote/>
						<good>FALSE</good>
					</logginginfo>
					<labels>
						<label2/>
					</labels>
					<comments>
						<mastercomment1/>
						<mastercomment2/>
						<mastercomment3/>
						<mastercomment4/>
					</comments>
					<file id="525_0287_01 3"/>
					<filter>
						<effect>
							<name>Audio Levels</name>
							<effectid>audiolevels</effectid>
							<effectcategory>audiolevels</effectcategory>
							<effecttype>audiolevels</effecttype>
							<mediatype>audio</mediatype>
							<parameter>
								<name>Level</name>
								<parameterid>level</parameterid>
								<valuemin>0</valuemin>
								<valuemax>3.98109</valuemax>
								<value>1</value>
							</parameter>
						</effect>
					</filter>
					<filter>
						<effect>
							<name>Audio Pan</name>
							<effectid>audiopan</effectid>
							<effectcategory>audiopan</effectcategory>
							<effecttype>audiopan</effecttype>
							<mediatype>audio</mediatype>
							<parameter>
								<name>Pan</name>
								<parameterid>pan</parameterid>
								<valuemin>-1</valuemin>
								<valuemax>1</valuemax>
								<value>0</value>
							</parameter>
						</effect>
					</filter>
					<sourcetrack>
						<mediatype>audio</mediatype>
						<trackindex>1</trackindex>
					</sourcetrack>
				</clipitem>
				<clipitem id="C0022 12">
					<name>C0022</name>
					<duration>1039</duration>
					<rate>
						<ntsc>FALSE</ntsc>
						<timebase>25</timebase>
					</rate>
					<in>223</in>
					<out>330</out>
					<start>8052</start>
					<end>8159</end>
					<subframeoffset>0</subframeoffset>
					<masterclipid>C0022 1</masterclipid>
					<logginginfo>
						<scene/>
						<shottake/>
						<lognote/>
						<good>FALSE</good>
					</logginginfo>
					<labels>
						<label2/>
					</labels>
					<comments>
						<mastercomment1/>
						<mastercomment2/>
						<mastercomment3/>
						<mastercomment4/>
					</comments>
					<file id="C0022 2"/>
					<filter>
						<effect>
							<name>Audio Levels</name>
							<effectid>audiolevels</effectid>
							<effectcategory>audiolevels</effectcategory>
							<effecttype>audiolevels</effecttype>
							<mediatype>audio</mediatype>
							<parameter>
								<name>Level</name>
								<parameterid>level</parameterid>
								<valuemin>0</valuemin>
								<valuemax>3.98109</valuemax>
								<value>1</value>
							</parameter>
						</effect>
					</filter>
					<filter>
						<effect>
							<name>Audio Pan</name>
							<effectid>audiopan</effectid>
							<effectcategory>audiopan</effectcategory>
							<effecttype>audiopan</effecttype>
							<mediatype>audio</mediatype>
							<parameter>
								<name>Pan</name>
								<parameterid>pan</parameterid>
								<valuemin>-1</valuemin>
								<valuemax>1</valuemax>
								<value>0</value>
							</parameter>
						</effect>
					</filter>
					<sourcetrack>
						<mediatype>audio</mediatype>
						<trackindex>2</trackindex>
					</sourcetrack>
					<link>
						<linkclipref>C0022 11</linkclipref>
						<mediatype>audio</mediatype>
						<trackindex>1</trackindex>
						<clipindex>83</clipindex>
					</link>
					<link>
						<linkclipref>C0022 12</linkclipref>
						<mediatype>audio</mediatype>
						<trackindex>2</trackindex>
						<clipindex>41</clipindex>
					</link>
				</clipitem>
				<clipitem id="C0020 4">
					<name>C0020</name>
					<duration>1188</duration>
					<rate>
						<ntsc>FALSE</ntsc>
						<timebase>25</timebase>
					</rate>
					<in>491</in>
					<out>675</out>
					<start>8159</start>
					<end>8343</end>
					<subframeoffset>0</subframeoffset>
					<masterclipid>C0020 1</masterclipid>
					<logginginfo>
						<scene/>
						<shottake/>
						<lognote/>
						<good>FALSE</good>
					</logginginfo>
					<labels>
						<label2/>
					</labels>
					<comments>
						<mastercomment1/>
						<mastercomment2/>
						<mastercomment3/>
						<mastercomment4/>
					</comments>
					<file id="C0020 2"/>
					<filter>
						<effect>
							<name>Audio Levels</name>
							<effectid>audiolevels</effectid>
							<effectcategory>audiolevels</effectcategory>
							<effecttype>audiolevels</effecttype>
							<mediatype>audio</mediatype>
							<parameter>
								<name>Level</name>
								<parameterid>level</parameterid>
								<valuemin>0</valuemin>
								<valuemax>3.98109</valuemax>
								<value>1</value>
							</parameter>
						</effect>
					</filter>
					<filter>
						<effect>
							<name>Audio Pan</name>
							<effectid>audiopan</effectid>
							<effectcategory>audiopan</effectcategory>
							<effecttype>audiopan</effecttype>
							<mediatype>audio</mediatype>
							<parameter>
								<name>Pan</name>
								<parameterid>pan</parameterid>
								<valuemin>-1</valuemin>
								<valuemax>1</valuemax>
								<value>0</value>
							</parameter>
						</effect>
					</filter>
					<sourcetrack>
						<mediatype>audio</mediatype>
						<trackindex>2</trackindex>
					</sourcetrack>
					<link>
						<linkclipref>C0020 </linkclipref>
						<mediatype>video</mediatype>
						<trackindex>1</trackindex>
						<clipindex>67</clipindex>
					</link>
					<link>
						<linkclipref>C0020 3</linkclipref>
						<mediatype>audio</mediatype>
						<trackindex>1</trackindex>
						<clipindex>84</clipindex>
					</link>
					<link>
						<linkclipref>C0020 4</linkclipref>
						<mediatype>audio</mediatype>
						<trackindex>2</trackindex>
						<clipindex>42</clipindex>
					</link>
				</clipitem>
				<clipitem id="C0022 5">
					<name>C0022</name>
					<duration>1039</duration>
					<rate>
						<ntsc>FALSE</ntsc>
						<timebase>25</timebase>
					</rate>
					<in>516</in>
					<out>581</out>
					<start>8343</start>
					<end>8408</end>
					<subframeoffset>0</subframeoffset>
					<masterclipid>C0022 1</masterclipid>
					<logginginfo>
						<scene/>
						<shottake/>
						<lognote/>
						<good>FALSE</good>
					</logginginfo>
					<labels>
						<label2/>
					</labels>
					<comments>
						<mastercomment1/>
						<mastercomment2/>
						<mastercomment3/>
						<mastercomment4/>
					</comments>
					<file id="C0022 2"/>
					<filter>
						<effect>
							<name>Audio Levels</name>
							<effectid>audiolevels</effectid>
							<effectcategory>audiolevels</effectcategory>
							<effecttype>audiolevels</effecttype>
							<mediatype>audio</mediatype>
							<parameter>
								<name>Level</name>
								<parameterid>level</parameterid>
								<valuemin>0</valuemin>
								<valuemax>3.98109</valuemax>
								<value>1</value>
							</parameter>
						</effect>
					</filter>
					<filter>
						<effect>
							<name>Audio Pan</name>
							<effectid>audiopan</effectid>
							<effectcategory>audiopan</effectcategory>
							<effecttype>audiopan</effecttype>
							<mediatype>audio</mediatype>
							<parameter>
								<name>Pan</name>
								<parameterid>pan</parameterid>
								<valuemin>-1</valuemin>
								<valuemax>1</valuemax>
								<value>0</value>
							</parameter>
						</effect>
					</filter>
					<sourcetrack>
						<mediatype>audio</mediatype>
						<trackindex>2</trackindex>
					</sourcetrack>
					<link>
						<linkclipref>C0022 3</linkclipref>
						<mediatype>video</mediatype>
						<trackindex>1</trackindex>
						<clipindex>68</clipindex>
					</link>
					<link>
						<linkclipref>C0022 4</linkclipref>
						<mediatype>audio</mediatype>
						<trackindex>1</trackindex>
						<clipindex>85</clipindex>
					</link>
					<link>
						<linkclipref>C0022 5</linkclipref>
						<mediatype>audio</mediatype>
						<trackindex>2</trackindex>
						<clipindex>43</clipindex>
					</link>
				</clipitem>
				<clipitem id="C0020 7">
					<name>C0020</name>
					<duration>1188</duration>
					<rate>
						<ntsc>FALSE</ntsc>
						<timebase>25</timebase>
					</rate>
					<in>746</in>
					<out>941</out>
					<start>8408</start>
					<end>8603</end>
					<subframeoffset>0</subframeoffset>
					<masterclipid>C0020 1</masterclipid>
					<logginginfo>
						<scene/>
						<shottake/>
						<lognote/>
						<good>FALSE</good>
					</logginginfo>
					<labels>
						<label2/>
					</labels>
					<comments>
						<mastercomment1/>
						<mastercomment2/>
						<mastercomment3/>
						<mastercomment4/>
					</comments>
					<file id="C0020 2"/>
					<filter>
						<effect>
							<name>Audio Levels</name>
							<effectid>audiolevels</effectid>
							<effectcategory>audiolevels</effectcategory>
							<effecttype>audiolevels</effecttype>
							<mediatype>audio</mediatype>
							<parameter>
								<name>Level</name>
								<parameterid>level</parameterid>
								<valuemin>0</valuemin>
								<valuemax>3.98109</valuemax>
								<value>1</value>
							</parameter>
						</effect>
					</filter>
					<filter>
						<effect>
							<name>Audio Pan</name>
							<effectid>audiopan</effectid>
							<effectcategory>audiopan</effectcategory>
							<effecttype>audiopan</effecttype>
							<mediatype>audio</mediatype>
							<parameter>
								<name>Pan</name>
								<parameterid>pan</parameterid>
								<valuemin>-1</valuemin>
								<valuemax>1</valuemax>
								<value>0</value>
							</parameter>
						</effect>
					</filter>
					<sourcetrack>
						<mediatype>audio</mediatype>
						<trackindex>2</trackindex>
					</sourcetrack>
					<link>
						<linkclipref>C0020 5</linkclipref>
						<mediatype>video</mediatype>
						<trackindex>1</trackindex>
						<clipindex>69</clipindex>
					</link>
					<link>
						<linkclipref>C0020 6</linkclipref>
						<mediatype>audio</mediatype>
						<trackindex>1</trackindex>
						<clipindex>86</clipindex>
					</link>
					<link>
						<linkclipref>C0020 7</linkclipref>
						<mediatype>audio</mediatype>
						<trackindex>2</trackindex>
						<clipindex>44</clipindex>
					</link>
				</clipitem>
				<clipitem id="C0022 8">
					<name>C0022</name>
					<duration>1039</duration>
					<rate>
						<ntsc>FALSE</ntsc>
						<timebase>25</timebase>
					</rate>
					<in>770</in>
					<out>881</out>
					<start>8603</start>
					<end>8714</end>
					<subframeoffset>0</subframeoffset>
					<masterclipid>C0022 1</masterclipid>
					<logginginfo>
						<scene/>
						<shottake/>
						<lognote/>
						<good>FALSE</good>
					</logginginfo>
					<labels>
						<label2/>
					</labels>
					<comments>
						<mastercomment1/>
						<mastercomment2/>
						<mastercomment3/>
						<mastercomment4/>
					</comments>
					<file id="C0022 2"/>
					<filter>
						<effect>
							<name>Audio Levels</name>
							<effectid>audiolevels</effectid>
							<effectcategory>audiolevels</effectcategory>
							<effecttype>audiolevels</effecttype>
							<mediatype>audio</mediatype>
							<parameter>
								<name>Level</name>
								<parameterid>level</parameterid>
								<valuemin>0</valuemin>
								<valuemax>3.98109</valuemax>
								<value>1</value>
							</parameter>
						</effect>
					</filter>
					<filter>
						<effect>
							<name>Audio Pan</name>
							<effectid>audiopan</effectid>
							<effectcategory>audiopan</effectcategory>
							<effecttype>audiopan</effecttype>
							<mediatype>audio</mediatype>
							<parameter>
								<name>Pan</name>
								<parameterid>pan</parameterid>
								<valuemin>-1</valuemin>
								<valuemax>1</valuemax>
								<value>0</value>
							</parameter>
						</effect>
					</filter>
					<sourcetrack>
						<mediatype>audio</mediatype>
						<trackindex>2</trackindex>
					</sourcetrack>
					<link>
						<linkclipref>C0022 6</linkclipref>
						<mediatype>video</mediatype>
						<trackindex>1</trackindex>
						<clipindex>70</clipindex>
					</link>
					<link>
						<linkclipref>C0022 7</linkclipref>
						<mediatype>audio</mediatype>
						<trackindex>1</trackindex>
						<clipindex>87</clipindex>
					</link>
					<link>
						<linkclipref>C0022 8</linkclipref>
						<mediatype>audio</mediatype>
						<trackindex>2</trackindex>
						<clipindex>45</clipindex>
					</link>
				</clipitem>
				<clipitem id="C0027 4">
					<name>C0027</name>
					<duration>554</duration>
					<rate>
						<ntsc>FALSE</ntsc>
						<timebase>25</timebase>
					</rate>
					<in>168</in>
					<out>473</out>
					<start>8714</start>
					<end>9019</end>
					<masterclipid>C0027 1</masterclipid>
					<logginginfo>
						<scene/>
						<shottake/>
						<lognote/>
						<good>FALSE</good>
					</logginginfo>
					<labels>
						<label2/>
					</labels>
					<comments>
						<mastercomment1/>
						<mastercomment2/>
						<mastercomment3/>
						<mastercomment4/>
					</comments>
					<file id="C0027 2"/>
					<filter>
						<effect>
							<name>Audio Levels</name>
							<effectid>audiolevels</effectid>
							<effectcategory>audiolevels</effectcategory>
							<effecttype>audiolevels</effecttype>
							<mediatype>audio</mediatype>
							<parameter>
								<name>Level</name>
								<parameterid>level</parameterid>
								<valuemin>0</valuemin>
								<valuemax>3.98109</valuemax>
								<value>1</value>
							</parameter>
						</effect>
					</filter>
					<filter>
						<effect>
							<name>Audio Pan</name>
							<effectid>audiopan</effectid>
							<effectcategory>audiopan</effectcategory>
							<effecttype>audiopan</effecttype>
							<mediatype>audio</mediatype>
							<parameter>
								<name>Pan</name>
								<parameterid>pan</parameterid>
								<valuemin>-1</valuemin>
								<valuemax>1</valuemax>
								<value>0</value>
							</parameter>
						</effect>
					</filter>
					<sourcetrack>
						<mediatype>audio</mediatype>
						<trackindex>2</trackindex>
					</sourcetrack>
					<link>
						<linkclipref>C0027 </linkclipref>
						<mediatype>video</mediatype>
						<trackindex>1</trackindex>
						<clipindex>71</clipindex>
					</link>
					<link>
						<linkclipref>C0027 3</linkclipref>
						<mediatype>audio</mediatype>
						<trackindex>1</trackindex>
						<clipindex>88</clipindex>
					</link>
					<link>
						<linkclipref>C0027 4</linkclipref>
						<mediatype>audio</mediatype>
						<trackindex>2</trackindex>
						<clipindex>46</clipindex>
					</link>
				</clipitem>
				<clipitem id="C0030 4">
					<name>C0030</name>
					<duration>1935</duration>
					<rate>
						<ntsc>FALSE</ntsc>
						<timebase>25</timebase>
					</rate>
					<in>423</in>
					<out>483</out>
					<start>9019</start>
					<end>-1</end>
					<subframeoffset>0</subframeoffset>
					<masterclipid>C0030 1</masterclipid>
					<logginginfo>
						<scene/>
						<shottake/>
						<lognote/>
						<good>FALSE</good>
					</logginginfo>
					<labels>
						<label2/>
					</labels>
					<comments>
						<mastercomment1/>
						<mastercomment2/>
						<mastercomment3/>
						<mastercomment4/>
					</comments>
					<file id="C0030 2"/>
					<filter>
						<effect>
							<name>Audio Levels</name>
							<effectid>audiolevels</effectid>
							<effectcategory>audiolevels</effectcategory>
							<effecttype>audiolevels</effecttype>
							<mediatype>audio</mediatype>
							<parameter>
								<name>Level</name>
								<parameterid>level</parameterid>
								<valuemin>0</valuemin>
								<valuemax>3.98109</valuemax>
								<value>3.98107</value>
							</parameter>
						</effect>
					</filter>
					<filter>
						<effect>
							<name>Audio Pan</name>
							<effectid>audiopan</effectid>
							<effectcategory>audiopan</effectcategory>
							<effecttype>audiopan</effecttype>
							<mediatype>audio</mediatype>
							<parameter>
								<name>Pan</name>
								<parameterid>pan</parameterid>
								<valuemin>-1</valuemin>
								<valuemax>1</valuemax>
								<value>0</value>
							</parameter>
						</effect>
					</filter>
					<sourcetrack>
						<mediatype>audio</mediatype>
						<trackindex>2</trackindex>
					</sourcetrack>
					<link>
						<linkclipref>C0030 </linkclipref>
						<mediatype>video</mediatype>
						<trackindex>1</trackindex>
						<clipindex>72</clipindex>
					</link>
					<link>
						<linkclipref>C0030 3</linkclipref>
						<mediatype>audio</mediatype>
						<trackindex>1</trackindex>
						<clipindex>89</clipindex>
					</link>
					<link>
						<linkclipref>C0030 4</linkclipref>
						<mediatype>audio</mediatype>
						<trackindex>2</trackindex>
						<clipindex>47</clipindex>
					</link>
				</clipitem>
				<transitionitem id="19">
					<rate>
						<ntsc>FALSE</ntsc>
						<timebase>25</timebase>
					</rate>
					<start>9065</start>
					<end>9079</end>
					<alignment>center</alignment>
					<effect>
						<name>Cross Fade (+3dB)</name>
						<effecttype>transition</effecttype>
						<mediatype>audio</mediatype>
					</effect>
				</transitionitem>
				<clipitem id="C0032 5">
					<name>C0032</name>
					<duration>1120</duration>
					<rate>
						<ntsc>FALSE</ntsc>
						<timebase>25</timebase>
					</rate>
					<in>160</in>
					<out>233</out>
					<start>-1</start>
					<end>-1</end>
					<subframeoffset>0</subframeoffset>
					<masterclipid>C0032 3</masterclipid>
					<logginginfo>
						<scene/>
						<shottake/>
						<lognote/>
						<good>FALSE</good>
					</logginginfo>
					<labels>
						<label2/>
					</labels>
					<comments>
						<mastercomment1/>
						<mastercomment2/>
						<mastercomment3/>
						<mastercomment4/>
					</comments>
					<file id="C0032 4"/>
					<filter>
						<effect>
							<name>Audio Levels</name>
							<effectid>audiolevels</effectid>
							<effectcategory>audiolevels</effectcategory>
							<effecttype>audiolevels</effecttype>
							<mediatype>audio</mediatype>
							<parameter>
								<name>Level</name>
								<parameterid>level</parameterid>
								<valuemin>0</valuemin>
								<valuemax>3.98109</valuemax>
								<keyframe>
									<when>224.286</when>
									<value>1</value>
								</keyframe>
								<interpolation>
									<name>FCPCurve</name>
								</interpolation>
								<value>1</value>
							</parameter>
						</effect>
					</filter>
					<filter>
						<effect>
							<name>Audio Pan</name>
							<effectid>audiopan</effectid>
							<effectcategory>audiopan</effectcategory>
							<effecttype>audiopan</effecttype>
							<mediatype>audio</mediatype>
							<parameter>
								<name>Pan</name>
								<parameterid>pan</parameterid>
								<valuemin>-1</valuemin>
								<valuemax>1</valuemax>
								<value>0</value>
							</parameter>
						</effect>
					</filter>
					<sourcetrack>
						<mediatype>audio</mediatype>
						<trackindex>2</trackindex>
					</sourcetrack>
					<link>
						<linkclipref>C0032 2</linkclipref>
						<mediatype>audio</mediatype>
						<trackindex>1</trackindex>
						<clipindex>91</clipindex>
					</link>
					<link>
						<linkclipref>C0032 5</linkclipref>
						<mediatype>audio</mediatype>
						<trackindex>2</trackindex>
						<clipindex>49</clipindex>
					</link>
				</clipitem>
				<transitionitem id="20">
					<rate>
						<ntsc>FALSE</ntsc>
						<timebase>25</timebase>
					</rate>
					<start>9129</start>
					<end>9138</end>
					<alignment>start</alignment>
					<effect>
						<name>Cross Fade (+3dB)</name>
						<effecttype>transition</effecttype>
						<mediatype>audio</mediatype>
					</effect>
				</transitionitem>
				<clipitem id="C0029 3">
					<name>C0029</name>
					<duration>1188</duration>
					<rate>
						<ntsc>FALSE</ntsc>
						<timebase>25</timebase>
					</rate>
					<in>579</in>
					<out>611</out>
					<start>-1</start>
					<end>-1</end>
					<subframeoffset>0</subframeoffset>
					<masterclipid>C0029 1</masterclipid>
					<logginginfo>
						<scene/>
						<shottake/>
						<lognote/>
						<good>FALSE</good>
					</logginginfo>
					<labels>
						<label2/>
					</labels>
					<comments>
						<mastercomment1/>
						<mastercomment2/>
						<mastercomment3/>
						<mastercomment4/>
					</comments>
					<file id="C0029 2"/>
					<filter>
						<effect>
							<name>Audio Levels</name>
							<effectid>audiolevels</effectid>
							<effectcategory>audiolevels</effectcategory>
							<effecttype>audiolevels</effecttype>
							<mediatype>audio</mediatype>
							<parameter>
								<name>Level</name>
								<parameterid>level</parameterid>
								<valuemin>0</valuemin>
								<valuemax>3.98109</valuemax>
								<value>3.98107</value>
							</parameter>
						</effect>
					</filter>
					<filter>
						<effect>
							<name>Audio Pan</name>
							<effectid>audiopan</effectid>
							<effectcategory>audiopan</effectcategory>
							<effecttype>audiopan</effecttype>
							<mediatype>audio</mediatype>
							<parameter>
								<name>Pan</name>
								<parameterid>pan</parameterid>
								<valuemin>-1</valuemin>
								<valuemax>1</valuemax>
								<value>0</value>
							</parameter>
						</effect>
					</filter>
					<sourcetrack>
						<mediatype>audio</mediatype>
						<trackindex>2</trackindex>
					</sourcetrack>
				</clipitem>
				<transitionitem id="21">
					<rate>
						<ntsc>FALSE</ntsc>
						<timebase>25</timebase>
					</rate>
					<start>9154</start>
					<end>9161</end>
					<alignment>end</alignment>
					<effect>
						<name>Cross Fade (+3dB)</name>
						<effecttype>transition</effecttype>
						<mediatype>audio</mediatype>
					</effect>
				</transitionitem>
				<clipitem id="C0030 15">
					<name>C0030</name>
					<duration>1935</duration>
					<rate>
						<ntsc>FALSE</ntsc>
						<timebase>25</timebase>
					</rate>
					<in>558</in>
					<out>597</out>
					<start>-1</start>
					<end>9193</end>
					<subframeoffset>0</subframeoffset>
					<masterclipid>C0030 1</masterclipid>
					<logginginfo>
						<scene/>
						<shottake/>
						<lognote/>
						<good>FALSE</good>
					</logginginfo>
					<labels>
						<label2/>
					</labels>
					<comments>
						<mastercomment1/>
						<mastercomment2/>
						<mastercomment3/>
						<mastercomment4/>
					</comments>
					<file id="C0030 2"/>
					<filter>
						<effect>
							<name>Audio Levels</name>
							<effectid>audiolevels</effectid>
							<effectcategory>audiolevels</effectcategory>
							<effecttype>audiolevels</effecttype>
							<mediatype>audio</mediatype>
							<parameter>
								<name>Level</name>
								<parameterid>level</parameterid>
								<valuemin>0</valuemin>
								<valuemax>3.98109</valuemax>
								<keyframe>
									<when>565.143</when>
									<value>3.98107</value>
								</keyframe>
								<interpolation>
									<name>FCPCurve</name>
								</interpolation>
								<value>3.98107</value>
							</parameter>
						</effect>
					</filter>
					<filter>
						<effect>
							<name>Audio Pan</name>
							<effectid>audiopan</effectid>
							<effectcategory>audiopan</effectcategory>
							<effecttype>audiopan</effecttype>
							<mediatype>audio</mediatype>
							<parameter>
								<name>Pan</name>
								<parameterid>pan</parameterid>
								<valuemin>-1</valuemin>
								<valuemax>1</valuemax>
								<value>0</value>
							</parameter>
						</effect>
					</filter>
					<sourcetrack>
						<mediatype>audio</mediatype>
						<trackindex>2</trackindex>
					</sourcetrack>
					<link>
						<linkclipref>C0030 14</linkclipref>
						<mediatype>audio</mediatype>
						<trackindex>1</trackindex>
						<clipindex>94</clipindex>
					</link>
					<link>
						<linkclipref>C0030 15</linkclipref>
						<mediatype>audio</mediatype>
						<trackindex>2</trackindex>
						<clipindex>53</clipindex>
					</link>
				</clipitem>
				<clipitem id="C0041 4">
					<name>C0041</name>
					<duration>1624</duration>
					<rate>
						<ntsc>FALSE</ntsc>
						<timebase>25</timebase>
					</rate>
					<in>80</in>
					<out>283</out>
					<start>9193</start>
					<end>9396</end>
					<subframeoffset>0</subframeoffset>
					<masterclipid>C0041 1</masterclipid>
					<logginginfo>
						<scene/>
						<shottake/>
						<lognote/>
						<good>FALSE</good>
					</logginginfo>
					<labels>
						<label2/>
					</labels>
					<comments>
						<mastercomment1/>
						<mastercomment2/>
						<mastercomment3/>
						<mastercomment4/>
					</comments>
					<file id="C0041 2"/>
					<filter>
						<effect>
							<name>Audio Levels</name>
							<effectid>audiolevels</effectid>
							<effectcategory>audiolevels</effectcategory>
							<effecttype>audiolevels</effecttype>
							<mediatype>audio</mediatype>
							<parameter>
								<name>Level</name>
								<parameterid>level</parameterid>
								<valuemin>0</valuemin>
								<valuemax>3.98109</valuemax>
								<value>1</value>
							</parameter>
						</effect>
					</filter>
					<filter>
						<effect>
							<name>Audio Pan</name>
							<effectid>audiopan</effectid>
							<effectcategory>audiopan</effectcategory>
							<effecttype>audiopan</effecttype>
							<mediatype>audio</mediatype>
							<parameter>
								<name>Pan</name>
								<parameterid>pan</parameterid>
								<valuemin>-1</valuemin>
								<valuemax>1</valuemax>
								<value>0</value>
							</parameter>
						</effect>
					</filter>
					<sourcetrack>
						<mediatype>audio</mediatype>
						<trackindex>2</trackindex>
					</sourcetrack>
					<link>
						<linkclipref>C0041 </linkclipref>
						<mediatype>video</mediatype>
						<trackindex>1</trackindex>
						<clipindex>74</clipindex>
					</link>
					<link>
						<linkclipref>C0041 3</linkclipref>
						<mediatype>audio</mediatype>
						<trackindex>1</trackindex>
						<clipindex>95</clipindex>
					</link>
					<link>
						<linkclipref>C0041 4</linkclipref>
						<mediatype>audio</mediatype>
						<trackindex>2</trackindex>
						<clipindex>54</clipindex>
					</link>
				</clipitem>
				<clipitem id="C0037 4">
					<name>C0037</name>
					<duration>1788</duration>
					<rate>
						<ntsc>FALSE</ntsc>
						<timebase>25</timebase>
					</rate>
					<in>543</in>
					<out>768</out>
					<start>9396</start>
					<end>9621</end>
					<subframeoffset>0</subframeoffset>
					<masterclipid>C0037 1</masterclipid>
					<logginginfo>
						<scene/>
						<shottake/>
						<lognote/>
						<good>FALSE</good>
					</logginginfo>
					<labels>
						<label2/>
					</labels>
					<comments>
						<mastercomment1/>
						<mastercomment2/>
						<mastercomment3/>
						<mastercomment4/>
					</comments>
					<file id="C0037 2"/>
					<filter>
						<effect>
							<name>Audio Levels</name>
							<effectid>audiolevels</effectid>
							<effectcategory>audiolevels</effectcategory>
							<effecttype>audiolevels</effecttype>
							<mediatype>audio</mediatype>
							<parameter>
								<name>Level</name>
								<parameterid>level</parameterid>
								<valuemin>0</valuemin>
								<valuemax>3.98109</valuemax>
								<value>1</value>
							</parameter>
						</effect>
					</filter>
					<filter>
						<effect>
							<name>Audio Pan</name>
							<effectid>audiopan</effectid>
							<effectcategory>audiopan</effectcategory>
							<effecttype>audiopan</effecttype>
							<mediatype>audio</mediatype>
							<parameter>
								<name>Pan</name>
								<parameterid>pan</parameterid>
								<valuemin>-1</valuemin>
								<valuemax>1</valuemax>
								<value>0</value>
							</parameter>
						</effect>
					</filter>
					<sourcetrack>
						<mediatype>audio</mediatype>
						<trackindex>2</trackindex>
					</sourcetrack>
					<link>
						<linkclipref>C0037 </linkclipref>
						<mediatype>video</mediatype>
						<trackindex>1</trackindex>
						<clipindex>75</clipindex>
					</link>
					<link>
						<linkclipref>C0037 3</linkclipref>
						<mediatype>audio</mediatype>
						<trackindex>1</trackindex>
						<clipindex>96</clipindex>
					</link>
					<link>
						<linkclipref>C0037 4</linkclipref>
						<mediatype>audio</mediatype>
						<trackindex>2</trackindex>
						<clipindex>55</clipindex>
					</link>
				</clipitem>
				<clipitem id="C0037 9">
					<name>C0037</name>
					<duration>1788</duration>
					<rate>
						<ntsc>FALSE</ntsc>
						<timebase>25</timebase>
					</rate>
					<in>758</in>
					<out>825</out>
					<start>9621</start>
					<end>9688</end>
					<subframeoffset>0</subframeoffset>
					<masterclipid>C0037 1</masterclipid>
					<logginginfo>
						<scene/>
						<shottake/>
						<lognote/>
						<good>FALSE</good>
					</logginginfo>
					<labels>
						<label2/>
					</labels>
					<comments>
						<mastercomment1/>
						<mastercomment2/>
						<mastercomment3/>
						<mastercomment4/>
					</comments>
					<file id="C0037 2"/>
					<filter>
						<effect>
							<name>Audio Levels</name>
							<effectid>audiolevels</effectid>
							<effectcategory>audiolevels</effectcategory>
							<effecttype>audiolevels</effecttype>
							<mediatype>audio</mediatype>
							<parameter>
								<name>Level</name>
								<parameterid>level</parameterid>
								<valuemin>0</valuemin>
								<valuemax>3.98109</valuemax>
								<value>1</value>
							</parameter>
						</effect>
					</filter>
					<filter>
						<effect>
							<name>Audio Pan</name>
							<effectid>audiopan</effectid>
							<effectcategory>audiopan</effectcategory>
							<effecttype>audiopan</effecttype>
							<mediatype>audio</mediatype>
							<parameter>
								<name>Pan</name>
								<parameterid>pan</parameterid>
								<valuemin>-1</valuemin>
								<valuemax>1</valuemax>
								<value>0</value>
							</parameter>
						</effect>
					</filter>
					<sourcetrack>
						<mediatype>audio</mediatype>
						<trackindex>2</trackindex>
					</sourcetrack>
				</clipitem>
				<clipitem id="C0039 4">
					<name>C0039</name>
					<duration>1581</duration>
					<rate>
						<ntsc>FALSE</ntsc>
						<timebase>25</timebase>
					</rate>
					<in>560</in>
					<out>876</out>
					<start>9688</start>
					<end>10004</end>
					<subframeoffset>0</subframeoffset>
					<masterclipid>C0039 1</masterclipid>
					<logginginfo>
						<scene/>
						<shottake/>
						<lognote/>
						<good>FALSE</good>
					</logginginfo>
					<labels>
						<label2/>
					</labels>
					<comments>
						<mastercomment1/>
						<mastercomment2/>
						<mastercomment3/>
						<mastercomment4/>
					</comments>
					<file id="C0039 2"/>
					<filter>
						<effect>
							<name>Audio Levels</name>
							<effectid>audiolevels</effectid>
							<effectcategory>audiolevels</effectcategory>
							<effecttype>audiolevels</effecttype>
							<mediatype>audio</mediatype>
							<parameter>
								<name>Level</name>
								<parameterid>level</parameterid>
								<valuemin>0</valuemin>
								<valuemax>3.98109</valuemax>
								<keyframe>
									<when>566</when>
									<value>0</value>
								</keyframe>
								<keyframe>
									<when>590.571</when>
									<value>1</value>
								</keyframe>
								<interpolation>
									<name>FCPCurve</name>
								</interpolation>
								<value>1</value>
							</parameter>
						</effect>
					</filter>
					<filter>
						<effect>
							<name>Audio Pan</name>
							<effectid>audiopan</effectid>
							<effectcategory>audiopan</effectcategory>
							<effecttype>audiopan</effecttype>
							<mediatype>audio</mediatype>
							<parameter>
								<name>Pan</name>
								<parameterid>pan</parameterid>
								<valuemin>-1</valuemin>
								<valuemax>1</valuemax>
								<value>0</value>
							</parameter>
						</effect>
					</filter>
					<sourcetrack>
						<mediatype>audio</mediatype>
						<trackindex>2</trackindex>
					</sourcetrack>
					<link>
						<linkclipref>C0039 </linkclipref>
						<mediatype>video</mediatype>
						<trackindex>1</trackindex>
						<clipindex>77</clipindex>
					</link>
					<link>
						<linkclipref>C0039 3</linkclipref>
						<mediatype>audio</mediatype>
						<trackindex>1</trackindex>
						<clipindex>98</clipindex>
					</link>
					<link>
						<linkclipref>C0039 4</linkclipref>
						<mediatype>audio</mediatype>
						<trackindex>2</trackindex>
						<clipindex>57</clipindex>
					</link>
				</clipitem>
				<clipitem id="C0042 6">
					<name>C0042</name>
					<duration>1649</duration>
					<rate>
						<ntsc>FALSE</ntsc>
						<timebase>25</timebase>
					</rate>
					<in>904</in>
					<out>1036</out>
					<start>10004</start>
					<end>10136</end>
					<subframeoffset>0</subframeoffset>
					<masterclipid>C0042 3</masterclipid>
					<logginginfo>
						<scene/>
						<shottake/>
						<lognote/>
						<good>FALSE</good>
					</logginginfo>
					<labels>
						<label2/>
					</labels>
					<comments>
						<mastercomment1/>
						<mastercomment2/>
						<mastercomment3/>
						<mastercomment4/>
					</comments>
					<file id="C0042 4"/>
					<filter>
						<effect>
							<name>Audio Levels</name>
							<effectid>audiolevels</effectid>
							<effectcategory>audiolevels</effectcategory>
							<effecttype>audiolevels</effecttype>
							<mediatype>audio</mediatype>
							<parameter>
								<name>Level</name>
								<parameterid>level</parameterid>
								<valuemin>0</valuemin>
								<valuemax>3.98109</valuemax>
								<value>1</value>
							</parameter>
						</effect>
					</filter>
					<filter>
						<effect>
							<name>Audio Pan</name>
							<effectid>audiopan</effectid>
							<effectcategory>audiopan</effectcategory>
							<effecttype>audiopan</effecttype>
							<mediatype>audio</mediatype>
							<parameter>
								<name>Pan</name>
								<parameterid>pan</parameterid>
								<valuemin>-1</valuemin>
								<valuemax>1</valuemax>
								<value>0</value>
							</parameter>
						</effect>
					</filter>
					<sourcetrack>
						<mediatype>audio</mediatype>
						<trackindex>2</trackindex>
					</sourcetrack>
					<link>
						<linkclipref>C0042 2</linkclipref>
						<mediatype>video</mediatype>
						<trackindex>1</trackindex>
						<clipindex>79</clipindex>
					</link>
					<link>
						<linkclipref>C0042 5</linkclipref>
						<mediatype>audio</mediatype>
						<trackindex>1</trackindex>
						<clipindex>99</clipindex>
					</link>
					<link>
						<linkclipref>C0042 6</linkclipref>
						<mediatype>audio</mediatype>
						<trackindex>2</trackindex>
						<clipindex>58</clipindex>
					</link>
				</clipitem>
				<clipitem id="C0039 15">
					<name>C0039</name>
					<duration>1581</duration>
					<rate>
						<ntsc>FALSE</ntsc>
						<timebase>25</timebase>
					</rate>
					<in>1006</in>
					<out>1475</out>
					<start>10136</start>
					<end>10605</end>
					<subframeoffset>0</subframeoffset>
					<masterclipid>C0039 1</masterclipid>
					<logginginfo>
						<scene/>
						<shottake/>
						<lognote/>
						<good>FALSE</good>
					</logginginfo>
					<labels>
						<label2/>
					</labels>
					<comments>
						<mastercomment1/>
						<mastercomment2/>
						<mastercomment3/>
						<mastercomment4/>
					</comments>
					<file id="C0039 2"/>
					<filter>
						<effect>
							<name>Audio Levels</name>
							<effectid>audiolevels</effectid>
							<effectcategory>audiolevels</effectcategory>
							<effecttype>audiolevels</effecttype>
							<mediatype>audio</mediatype>
							<parameter>
								<name>Level</name>
								<parameterid>level</parameterid>
								<valuemin>0</valuemin>
								<valuemax>3.98109</valuemax>
								<keyframe>
									<when>566</when>
									<value>0</value>
								</keyframe>
								<keyframe>
									<when>590.571</when>
									<value>1</value>
								</keyframe>
								<interpolation>
									<name>FCPCurve</name>
								</interpolation>
								<value>1</value>
							</parameter>
						</effect>
					</filter>
					<filter>
						<effect>
							<name>Audio Pan</name>
							<effectid>audiopan</effectid>
							<effectcategory>audiopan</effectcategory>
							<effecttype>audiopan</effecttype>
							<mediatype>audio</mediatype>
							<parameter>
								<name>Pan</name>
								<parameterid>pan</parameterid>
								<valuemin>-1</valuemin>
								<valuemax>1</valuemax>
								<value>0</value>
							</parameter>
						</effect>
					</filter>
					<sourcetrack>
						<mediatype>audio</mediatype>
						<trackindex>2</trackindex>
					</sourcetrack>
					<link>
						<linkclipref>C0039 14</linkclipref>
						<mediatype>audio</mediatype>
						<trackindex>1</trackindex>
						<clipindex>100</clipindex>
					</link>
					<link>
						<linkclipref>C0039 15</linkclipref>
						<mediatype>audio</mediatype>
						<trackindex>2</trackindex>
						<clipindex>59</clipindex>
					</link>
				</clipitem>
				<clipitem id="XDCAM 20120614_094644_C0027 4">
					<name>XDCAM 20120614_094644_C0027</name>
					<duration>858</duration>
					<rate>
						<ntsc>FALSE</ntsc>
						<timebase>25</timebase>
					</rate>
					<in>501</in>
					<out>783</out>
					<start>10605</start>
					<end>10887</end>
					<subframeoffset>0</subframeoffset>
					<masterclipid>XDCAM 20120614_094644_C0027 1</masterclipid>
					<logginginfo>
						<scene/>
						<shottake/>
						<lognote/>
						<good>FALSE</good>
					</logginginfo>
					<labels>
						<label2/>
					</labels>
					<comments>
						<mastercomment1/>
						<mastercomment2/>
						<mastercomment3/>
						<mastercomment4/>
					</comments>
					<file id="XDCAM 20120614_094644_C0027 2"/>
					<filter>
						<effect>
							<name>Audio Levels</name>
							<effectid>audiolevels</effectid>
							<effectcategory>audiolevels</effectcategory>
							<effecttype>audiolevels</effecttype>
							<mediatype>audio</mediatype>
							<parameter>
								<name>Level</name>
								<parameterid>level</parameterid>
								<valuemin>0</valuemin>
								<valuemax>3.98109</valuemax>
								<value>0</value>
							</parameter>
						</effect>
					</filter>
					<filter>
						<effect>
							<name>Audio Pan</name>
							<effectid>audiopan</effectid>
							<effectcategory>audiopan</effectcategory>
							<effecttype>audiopan</effecttype>
							<mediatype>audio</mediatype>
							<parameter>
								<name>Pan</name>
								<parameterid>pan</parameterid>
								<valuemin>-1</valuemin>
								<valuemax>1</valuemax>
								<value>0</value>
							</parameter>
						</effect>
					</filter>
					<sourcetrack>
						<mediatype>audio</mediatype>
						<trackindex>3</trackindex>
					</sourcetrack>
				</clipitem>
				<clipitem id="XDCAM 20120614_094644_C0028 13">
					<name>XDCAM 20120614_094644_C0028</name>
					<duration>2022</duration>
					<rate>
						<ntsc>FALSE</ntsc>
						<timebase>25</timebase>
					</rate>
					<in>50</in>
					<out>398</out>
					<start>10887</start>
					<end>11235</end>
					<subframeoffset>0</subframeoffset>
					<masterclipid>XDCAM 20120614_094644_C0028 1</masterclipid>
					<logginginfo>
						<scene/>
						<shottake/>
						<lognote/>
						<good>FALSE</good>
					</logginginfo>
					<labels>
						<label2/>
					</labels>
					<comments>
						<mastercomment1/>
						<mastercomment2/>
						<mastercomment3/>
						<mastercomment4/>
					</comments>
					<file id="XDCAM 20120614_094644_C0028 2"/>
					<filter>
						<effect>
							<name>Audio Levels</name>
							<effectid>audiolevels</effectid>
							<effectcategory>audiolevels</effectcategory>
							<effecttype>audiolevels</effecttype>
							<mediatype>audio</mediatype>
							<parameter>
								<name>Level</name>
								<parameterid>level</parameterid>
								<valuemin>0</valuemin>
								<valuemax>3.98109</valuemax>
								<value>0</value>
							</parameter>
						</effect>
					</filter>
					<filter>
						<effect>
							<name>Audio Pan</name>
							<effectid>audiopan</effectid>
							<effectcategory>audiopan</effectcategory>
							<effecttype>audiopan</effecttype>
							<mediatype>audio</mediatype>
							<parameter>
								<name>Pan</name>
								<parameterid>pan</parameterid>
								<valuemin>-1</valuemin>
								<valuemax>1</valuemax>
								<value>0</value>
							</parameter>
						</effect>
					</filter>
					<sourcetrack>
						<mediatype>audio</mediatype>
						<trackindex>3</trackindex>
					</sourcetrack>
				</clipitem>
				<clipitem id="XDCAM 20120614_094644_C0028 14">
					<name>XDCAM 20120614_094644_C0028</name>
					<duration>2022</duration>
					<rate>
						<ntsc>FALSE</ntsc>
						<timebase>25</timebase>
					</rate>
					<in>817</in>
					<out>1003</out>
					<start>11235</start>
					<end>11421</end>
					<subframeoffset>0</subframeoffset>
					<masterclipid>XDCAM 20120614_094644_C0028 1</masterclipid>
					<logginginfo>
						<scene/>
						<shottake/>
						<lognote/>
						<good>FALSE</good>
					</logginginfo>
					<labels>
						<label2/>
					</labels>
					<comments>
						<mastercomment1/>
						<mastercomment2/>
						<mastercomment3/>
						<mastercomment4/>
					</comments>
					<file id="XDCAM 20120614_094644_C0028 2"/>
					<filter>
						<effect>
							<name>Audio Levels</name>
							<effectid>audiolevels</effectid>
							<effectcategory>audiolevels</effectcategory>
							<effecttype>audiolevels</effecttype>
							<mediatype>audio</mediatype>
							<parameter>
								<name>Level</name>
								<parameterid>level</parameterid>
								<valuemin>0</valuemin>
								<valuemax>3.98109</valuemax>
								<value>0</value>
							</parameter>
						</effect>
					</filter>
					<filter>
						<effect>
							<name>Audio Pan</name>
							<effectid>audiopan</effectid>
							<effectcategory>audiopan</effectcategory>
							<effecttype>audiopan</effecttype>
							<mediatype>audio</mediatype>
							<parameter>
								<name>Pan</name>
								<parameterid>pan</parameterid>
								<valuemin>-1</valuemin>
								<valuemax>1</valuemax>
								<value>0</value>
							</parameter>
						</effect>
					</filter>
					<sourcetrack>
						<mediatype>audio</mediatype>
						<trackindex>3</trackindex>
					</sourcetrack>
				</clipitem>
				<clipitem id="XDCAM 20120614_094644_C0028 6">
					<name>XDCAM 20120614_094644_C0028</name>
					<duration>2022</duration>
					<rate>
						<ntsc>FALSE</ntsc>
						<timebase>25</timebase>
					</rate>
					<in>1360</in>
					<out>1702</out>
					<start>11494</start>
					<end>11836</end>
					<subframeoffset>0</subframeoffset>
					<masterclipid>XDCAM 20120614_094644_C0028 1</masterclipid>
					<logginginfo>
						<scene/>
						<shottake/>
						<lognote/>
						<good>FALSE</good>
					</logginginfo>
					<labels>
						<label2/>
					</labels>
					<comments>
						<mastercomment1/>
						<mastercomment2/>
						<mastercomment3/>
						<mastercomment4/>
					</comments>
					<file id="XDCAM 20120614_094644_C0028 2"/>
					<filter>
						<effect>
							<name>Audio Levels</name>
							<effectid>audiolevels</effectid>
							<effectcategory>audiolevels</effectcategory>
							<effecttype>audiolevels</effecttype>
							<mediatype>audio</mediatype>
							<parameter>
								<name>Level</name>
								<parameterid>level</parameterid>
								<valuemin>0</valuemin>
								<valuemax>3.98109</valuemax>
								<value>0</value>
							</parameter>
						</effect>
					</filter>
					<filter>
						<effect>
							<name>Audio Pan</name>
							<effectid>audiopan</effectid>
							<effectcategory>audiopan</effectcategory>
							<effecttype>audiopan</effecttype>
							<mediatype>audio</mediatype>
							<parameter>
								<name>Pan</name>
								<parameterid>pan</parameterid>
								<valuemin>-1</valuemin>
								<valuemax>1</valuemax>
								<value>0</value>
							</parameter>
						</effect>
					</filter>
					<sourcetrack>
						<mediatype>audio</mediatype>
						<trackindex>3</trackindex>
					</sourcetrack>
					<link>
						<linkclipref>XDCAM 20120614_094644_C0028 4</linkclipref>
						<mediatype>video</mediatype>
						<trackindex>1</trackindex>
						<clipindex>88</clipindex>
					</link>
					<link>
						<linkclipref>XDCAM 20120614_094644_C0028 5</linkclipref>
						<mediatype>audio</mediatype>
						<trackindex>1</trackindex>
						<clipindex>106</clipindex>
					</link>
					<link>
						<linkclipref>XDCAM 20120614_094644_C0028 6</linkclipref>
						<mediatype>audio</mediatype>
						<trackindex>2</trackindex>
						<clipindex>63</clipindex>
					</link>
				</clipitem>
				<clipitem id="XDCAM 20120614_094644_C0029 4">
					<name>XDCAM 20120614_094644_C0029</name>
					<duration>580</duration>
					<rate>
						<ntsc>FALSE</ntsc>
						<timebase>25</timebase>
					</rate>
					<in>434</in>
					<out>525</out>
					<start>11836</start>
					<end>11927</end>
					<subframeoffset>0</subframeoffset>
					<masterclipid>XDCAM 20120614_094644_C0029 1</masterclipid>
					<logginginfo>
						<scene/>
						<shottake/>
						<lognote/>
						<good>FALSE</good>
					</logginginfo>
					<labels>
						<label2/>
					</labels>
					<comments>
						<mastercomment1/>
						<mastercomment2/>
						<mastercomment3/>
						<mastercomment4/>
					</comments>
					<file id="XDCAM 20120614_094644_C0029 2"/>
					<filter>
						<effect>
							<name>Audio Levels</name>
							<effectid>audiolevels</effectid>
							<effectcategory>audiolevels</effectcategory>
							<effecttype>audiolevels</effecttype>
							<mediatype>audio</mediatype>
							<parameter>
								<name>Level</name>
								<parameterid>level</parameterid>
								<valuemin>0</valuemin>
								<valuemax>3.98109</valuemax>
								<value>0</value>
							</parameter>
						</effect>
					</filter>
					<filter>
						<effect>
							<name>Audio Pan</name>
							<effectid>audiopan</effectid>
							<effectcategory>audiopan</effectcategory>
							<effecttype>audiopan</effecttype>
							<mediatype>audio</mediatype>
							<parameter>
								<name>Pan</name>
								<parameterid>pan</parameterid>
								<valuemin>-1</valuemin>
								<valuemax>1</valuemax>
								<value>0</value>
							</parameter>
						</effect>
					</filter>
					<sourcetrack>
						<mediatype>audio</mediatype>
						<trackindex>3</trackindex>
					</sourcetrack>
					<link>
						<linkclipref>XDCAM 20120614_094644_C0029 </linkclipref>
						<mediatype>video</mediatype>
						<trackindex>1</trackindex>
						<clipindex>89</clipindex>
					</link>
					<link>
						<linkclipref>XDCAM 20120614_094644_C0029 3</linkclipref>
						<mediatype>audio</mediatype>
						<trackindex>1</trackindex>
						<clipindex>112</clipindex>
					</link>
					<link>
						<linkclipref>XDCAM 20120614_094644_C0029 4</linkclipref>
						<mediatype>audio</mediatype>
						<trackindex>2</trackindex>
						<clipindex>64</clipindex>
					</link>
				</clipitem>
				<clipitem id="C0050 4">
					<name>C0050</name>
					<duration>2566</duration>
					<rate>
						<ntsc>FALSE</ntsc>
						<timebase>25</timebase>
					</rate>
					<in>627</in>
					<out>896</out>
					<start>11934</start>
					<end>-1</end>
					<subframeoffset>0</subframeoffset>
					<masterclipid>C0050 1</masterclipid>
					<logginginfo>
						<scene/>
						<shottake/>
						<lognote/>
						<good>FALSE</good>
					</logginginfo>
					<labels>
						<label2/>
					</labels>
					<comments>
						<mastercomment1/>
						<mastercomment2/>
						<mastercomment3/>
						<mastercomment4/>
					</comments>
					<file id="C0050 2"/>
					<filter>
						<effect>
							<name>Audio Levels</name>
							<effectid>audiolevels</effectid>
							<effectcategory>audiolevels</effectcategory>
							<effecttype>audiolevels</effecttype>
							<mediatype>audio</mediatype>
							<parameter>
								<name>Level</name>
								<parameterid>level</parameterid>
								<valuemin>0</valuemin>
								<valuemax>3.98109</valuemax>
								<value>1</value>
							</parameter>
						</effect>
					</filter>
					<filter>
						<effect>
							<name>Audio Pan</name>
							<effectid>audiopan</effectid>
							<effectcategory>audiopan</effectcategory>
							<effecttype>audiopan</effecttype>
							<mediatype>audio</mediatype>
							<parameter>
								<name>Pan</name>
								<parameterid>pan</parameterid>
								<valuemin>-1</valuemin>
								<valuemax>1</valuemax>
								<value>0</value>
							</parameter>
						</effect>
					</filter>
					<sourcetrack>
						<mediatype>audio</mediatype>
						<trackindex>2</trackindex>
					</sourcetrack>
					<link>
						<linkclipref>C0050 </linkclipref>
						<mediatype>video</mediatype>
						<trackindex>1</trackindex>
						<clipindex>91</clipindex>
					</link>
					<link>
						<linkclipref>C0050 3</linkclipref>
						<mediatype>audio</mediatype>
						<trackindex>1</trackindex>
						<clipindex>113</clipindex>
					</link>
					<link>
						<linkclipref>C0050 4</linkclipref>
						<mediatype>audio</mediatype>
						<trackindex>2</trackindex>
						<clipindex>65</clipindex>
					</link>
				</clipitem>
				<transitionitem id="22">
					<rate>
						<ntsc>FALSE</ntsc>
						<timebase>25</timebase>
					</rate>
					<start>12196</start>
					<end>12203</end>
					<alignment>center</alignment>
					<effect>
						<name>Cross Fade (+3dB)</name>
						<effecttype>transition</effecttype>
						<mediatype>audio</mediatype>
					</effect>
				</transitionitem>
				<clipitem id="C0074 4">
					<name>C0074</name>
					<duration>2288</duration>
					<rate>
						<ntsc>FALSE</ntsc>
						<timebase>25</timebase>
					</rate>
					<in>979</in>
					<out>1090</out>
					<start>-1</start>
					<end>12307</end>
					<subframeoffset>0</subframeoffset>
					<masterclipid>C0074 1</masterclipid>
					<logginginfo>
						<scene/>
						<shottake/>
						<lognote/>
						<good>FALSE</good>
					</logginginfo>
					<labels>
						<label2/>
					</labels>
					<comments>
						<mastercomment1/>
						<mastercomment2/>
						<mastercomment3/>
						<mastercomment4/>
					</comments>
					<file id="C0074 2"/>
					<filter>
						<effect>
							<name>Audio Levels</name>
							<effectid>audiolevels</effectid>
							<effectcategory>audiolevels</effectcategory>
							<effecttype>audiolevels</effecttype>
							<mediatype>audio</mediatype>
							<parameter>
								<name>Level</name>
								<parameterid>level</parameterid>
								<valuemin>0</valuemin>
								<valuemax>3.98109</valuemax>
								<keyframe>
									<when>982</when>
									<value>0</value>
								</keyframe>
								<keyframe>
									<when>1010.57</when>
									<value>1</value>
								</keyframe>
								<keyframe>
									<when>1016.86</when>
									<value>1</value>
								</keyframe>
								<keyframe>
									<when>1029.14</when>
									<value>0.354813</value>
								</keyframe>
								<keyframe>
									<when>1051.43</when>
									<value>0.354813</value>
								</keyframe>
								<keyframe>
									<when>1074.57</when>
									<value>1</value>
								</keyframe>
								<interpolation>
									<name>FCPCurve</name>
								</interpolation>
								<value>1</value>
							</parameter>
						</effect>
					</filter>
					<filter>
						<effect>
							<name>Audio Pan</name>
							<effectid>audiopan</effectid>
							<effectcategory>audiopan</effectcategory>
							<effecttype>audiopan</effecttype>
							<mediatype>audio</mediatype>
							<parameter>
								<name>Pan</name>
								<parameterid>pan</parameterid>
								<valuemin>-1</valuemin>
								<valuemax>1</valuemax>
								<value>0</value>
							</parameter>
						</effect>
					</filter>
					<sourcetrack>
						<mediatype>audio</mediatype>
						<trackindex>2</trackindex>
					</sourcetrack>
					<link>
						<linkclipref>C0074 </linkclipref>
						<mediatype>video</mediatype>
						<trackindex>1</trackindex>
						<clipindex>92</clipindex>
					</link>
					<link>
						<linkclipref>C0074 3</linkclipref>
						<mediatype>audio</mediatype>
						<trackindex>1</trackindex>
						<clipindex>116</clipindex>
					</link>
					<link>
						<linkclipref>C0074 4</linkclipref>
						<mediatype>audio</mediatype>
						<trackindex>2</trackindex>
						<clipindex>67</clipindex>
					</link>
				</clipitem>
				<clipitem id="C0057 4">
					<name>C0057</name>
					<duration>1018</duration>
					<rate>
						<ntsc>FALSE</ntsc>
						<timebase>25</timebase>
					</rate>
					<in>562</in>
					<out>621</out>
					<start>12307</start>
					<end>12366</end>
					<subframeoffset>0</subframeoffset>
					<masterclipid>C0057 1</masterclipid>
					<logginginfo>
						<scene/>
						<shottake/>
						<lognote/>
						<good>FALSE</good>
					</logginginfo>
					<labels>
						<label2/>
					</labels>
					<comments>
						<mastercomment1/>
						<mastercomment2/>
						<mastercomment3/>
						<mastercomment4/>
					</comments>
					<file id="C0057 2"/>
					<filter>
						<effect>
							<name>Audio Levels</name>
							<effectid>audiolevels</effectid>
							<effectcategory>audiolevels</effectcategory>
							<effecttype>audiolevels</effecttype>
							<mediatype>audio</mediatype>
							<parameter>
								<name>Level</name>
								<parameterid>level</parameterid>
								<valuemin>0</valuemin>
								<valuemax>3.98109</valuemax>
								<value>1</value>
							</parameter>
						</effect>
					</filter>
					<filter>
						<effect>
							<name>Audio Pan</name>
							<effectid>audiopan</effectid>
							<effectcategory>audiopan</effectcategory>
							<effecttype>audiopan</effecttype>
							<mediatype>audio</mediatype>
							<parameter>
								<name>Pan</name>
								<parameterid>pan</parameterid>
								<valuemin>-1</valuemin>
								<valuemax>1</valuemax>
								<value>0</value>
							</parameter>
						</effect>
					</filter>
					<sourcetrack>
						<mediatype>audio</mediatype>
						<trackindex>2</trackindex>
					</sourcetrack>
				</clipitem>
				<clipitem id="C0074 10">
					<name>C0074</name>
					<duration>2288</duration>
					<rate>
						<ntsc>FALSE</ntsc>
						<timebase>25</timebase>
					</rate>
					<in>1173</in>
					<out>1276</out>
					<start>12366</start>
					<end>12469</end>
					<subframeoffset>0</subframeoffset>
					<masterclipid>C0074 1</masterclipid>
					<logginginfo>
						<scene/>
						<shottake/>
						<lognote/>
						<good>FALSE</good>
					</logginginfo>
					<labels>
						<label2/>
					</labels>
					<comments>
						<mastercomment1/>
						<mastercomment2/>
						<mastercomment3/>
						<mastercomment4/>
					</comments>
					<file id="C0074 2"/>
					<filter>
						<effect>
							<name>Audio Levels</name>
							<effectid>audiolevels</effectid>
							<effectcategory>audiolevels</effectcategory>
							<effecttype>audiolevels</effecttype>
							<mediatype>audio</mediatype>
							<parameter>
								<name>Level</name>
								<parameterid>level</parameterid>
								<valuemin>0</valuemin>
								<valuemax>3.98109</valuemax>
								<value>1</value>
							</parameter>
						</effect>
					</filter>
					<filter>
						<effect>
							<name>Audio Pan</name>
							<effectid>audiopan</effectid>
							<effectcategory>audiopan</effectcategory>
							<effecttype>audiopan</effecttype>
							<mediatype>audio</mediatype>
							<parameter>
								<name>Pan</name>
								<parameterid>pan</parameterid>
								<valuemin>-1</valuemin>
								<valuemax>1</valuemax>
								<value>0</value>
							</parameter>
						</effect>
					</filter>
					<sourcetrack>
						<mediatype>audio</mediatype>
						<trackindex>2</trackindex>
					</sourcetrack>
				</clipitem>
				<clipitem id="C0057 5">
					<name>C0057</name>
					<duration>1018</duration>
					<rate>
						<ntsc>FALSE</ntsc>
						<timebase>25</timebase>
					</rate>
					<in>477</in>
					<out>497</out>
					<start>12469</start>
					<end>-1</end>
					<subframeoffset>0</subframeoffset>
					<masterclipid>C0057 1</masterclipid>
					<logginginfo>
						<scene/>
						<shottake/>
						<lognote/>
						<good>FALSE</good>
					</logginginfo>
					<labels>
						<label2/>
					</labels>
					<comments>
						<mastercomment1/>
						<mastercomment2/>
						<mastercomment3/>
						<mastercomment4/>
					</comments>
					<file id="C0057 2"/>
					<filter>
						<effect>
							<name>Audio Levels</name>
							<effectid>audiolevels</effectid>
							<effectcategory>audiolevels</effectcategory>
							<effecttype>audiolevels</effecttype>
							<mediatype>audio</mediatype>
							<parameter>
								<name>Level</name>
								<parameterid>level</parameterid>
								<valuemin>0</valuemin>
								<valuemax>3.98109</valuemax>
								<value>1</value>
							</parameter>
						</effect>
					</filter>
					<filter>
						<effect>
							<name>Audio Pan</name>
							<effectid>audiopan</effectid>
							<effectcategory>audiopan</effectcategory>
							<effecttype>audiopan</effecttype>
							<mediatype>audio</mediatype>
							<parameter>
								<name>Pan</name>
								<parameterid>pan</parameterid>
								<valuemin>-1</valuemin>
								<valuemax>1</valuemax>
								<value>0</value>
							</parameter>
						</effect>
					</filter>
					<sourcetrack>
						<mediatype>audio</mediatype>
						<trackindex>2</trackindex>
					</sourcetrack>
				</clipitem>
				<transitionitem id="23">
					<rate>
						<ntsc>FALSE</ntsc>
						<timebase>25</timebase>
					</rate>
					<start>12480</start>
					<end>12489</end>
					<alignment>center</alignment>
					<effect>
						<name>Cross Fade (+3dB)</name>
						<effecttype>transition</effecttype>
						<mediatype>audio</mediatype>
					</effect>
				</transitionitem>
				<clipitem id="C0050 7">
					<name>C0050</name>
					<duration>2566</duration>
					<rate>
						<ntsc>FALSE</ntsc>
						<timebase>25</timebase>
					</rate>
					<in>1254</in>
					<out>1477</out>
					<start>-1</start>
					<end>12703</end>
					<subframeoffset>0</subframeoffset>
					<masterclipid>C0050 1</masterclipid>
					<logginginfo>
						<scene/>
						<shottake/>
						<lognote/>
						<good>FALSE</good>
					</logginginfo>
					<labels>
						<label2/>
					</labels>
					<comments>
						<mastercomment1/>
						<mastercomment2/>
						<mastercomment3/>
						<mastercomment4/>
					</comments>
					<file id="C0050 2"/>
					<filter>
						<effect>
							<name>Audio Levels</name>
							<effectid>audiolevels</effectid>
							<effectcategory>audiolevels</effectcategory>
							<effecttype>audiolevels</effecttype>
							<mediatype>audio</mediatype>
							<parameter>
								<name>Level</name>
								<parameterid>level</parameterid>
								<valuemin>0</valuemin>
								<valuemax>3.98109</valuemax>
								<value>1</value>
							</parameter>
						</effect>
					</filter>
					<filter>
						<effect>
							<name>Audio Pan</name>
							<effectid>audiopan</effectid>
							<effectcategory>audiopan</effectcategory>
							<effecttype>audiopan</effecttype>
							<mediatype>audio</mediatype>
							<parameter>
								<name>Pan</name>
								<parameterid>pan</parameterid>
								<valuemin>-1</valuemin>
								<valuemax>1</valuemax>
								<value>0</value>
							</parameter>
						</effect>
					</filter>
					<sourcetrack>
						<mediatype>audio</mediatype>
						<trackindex>2</trackindex>
					</sourcetrack>
					<link>
						<linkclipref>C0050 5</linkclipref>
						<mediatype>video</mediatype>
						<trackindex>1</trackindex>
						<clipindex>95</clipindex>
					</link>
					<link>
						<linkclipref>C0050 6</linkclipref>
						<mediatype>audio</mediatype>
						<trackindex>1</trackindex>
						<clipindex>119</clipindex>
					</link>
					<link>
						<linkclipref>C0050 7</linkclipref>
						<mediatype>audio</mediatype>
						<trackindex>2</trackindex>
						<clipindex>72</clipindex>
					</link>
				</clipitem>
				<clipitem id="C0075 4">
					<name>C0075</name>
					<duration>1816</duration>
					<rate>
						<ntsc>FALSE</ntsc>
						<timebase>25</timebase>
					</rate>
					<in>493</in>
					<out>607</out>
					<start>12703</start>
					<end>12817</end>
					<subframeoffset>0</subframeoffset>
					<masterclipid>C0075 1</masterclipid>
					<logginginfo>
						<scene/>
						<shottake/>
						<lognote/>
						<good>FALSE</good>
					</logginginfo>
					<labels>
						<label2/>
					</labels>
					<comments>
						<mastercomment1/>
						<mastercomment2/>
						<mastercomment3/>
						<mastercomment4/>
					</comments>
					<file id="C0075 2"/>
					<filter>
						<effect>
							<name>Audio Levels</name>
							<effectid>audiolevels</effectid>
							<effectcategory>audiolevels</effectcategory>
							<effecttype>audiolevels</effecttype>
							<mediatype>audio</mediatype>
							<parameter>
								<name>Level</name>
								<parameterid>level</parameterid>
								<valuemin>0</valuemin>
								<valuemax>3.98109</valuemax>
								<value>1</value>
							</parameter>
						</effect>
					</filter>
					<filter>
						<effect>
							<name>Audio Pan</name>
							<effectid>audiopan</effectid>
							<effectcategory>audiopan</effectcategory>
							<effecttype>audiopan</effecttype>
							<mediatype>audio</mediatype>
							<parameter>
								<name>Pan</name>
								<parameterid>pan</parameterid>
								<valuemin>-1</valuemin>
								<valuemax>1</valuemax>
								<value>0</value>
							</parameter>
						</effect>
					</filter>
					<sourcetrack>
						<mediatype>audio</mediatype>
						<trackindex>2</trackindex>
					</sourcetrack>
					<link>
						<linkclipref>C0075 </linkclipref>
						<mediatype>video</mediatype>
						<trackindex>1</trackindex>
						<clipindex>96</clipindex>
					</link>
					<link>
						<linkclipref>C0075 3</linkclipref>
						<mediatype>audio</mediatype>
						<trackindex>1</trackindex>
						<clipindex>120</clipindex>
					</link>
					<link>
						<linkclipref>C0075 4</linkclipref>
						<mediatype>audio</mediatype>
						<trackindex>2</trackindex>
						<clipindex>73</clipindex>
					</link>
				</clipitem>
				<clipitem id="C0060 4">
					<name>C0060</name>
					<duration>438</duration>
					<rate>
						<ntsc>FALSE</ntsc>
						<timebase>25</timebase>
					</rate>
					<in>142</in>
					<out>301</out>
					<start>12817</start>
					<end>12976</end>
					<subframeoffset>0</subframeoffset>
					<masterclipid>C0060 1</masterclipid>
					<logginginfo>
						<scene/>
						<shottake/>
						<lognote/>
						<good>FALSE</good>
					</logginginfo>
					<labels>
						<label2/>
					</labels>
					<comments>
						<mastercomment1/>
						<mastercomment2/>
						<mastercomment3/>
						<mastercomment4/>
					</comments>
					<file id="C0060 2"/>
					<filter>
						<effect>
							<name>Audio Levels</name>
							<effectid>audiolevels</effectid>
							<effectcategory>audiolevels</effectcategory>
							<effecttype>audiolevels</effecttype>
							<mediatype>audio</mediatype>
							<parameter>
								<name>Level</name>
								<parameterid>level</parameterid>
								<valuemin>0</valuemin>
								<valuemax>3.98109</valuemax>
								<value>1</value>
							</parameter>
						</effect>
					</filter>
					<filter>
						<effect>
							<name>Audio Pan</name>
							<effectid>audiopan</effectid>
							<effectcategory>audiopan</effectcategory>
							<effecttype>audiopan</effecttype>
							<mediatype>audio</mediatype>
							<parameter>
								<name>Pan</name>
								<parameterid>pan</parameterid>
								<valuemin>-1</valuemin>
								<valuemax>1</valuemax>
								<value>0</value>
							</parameter>
						</effect>
					</filter>
					<sourcetrack>
						<mediatype>audio</mediatype>
						<trackindex>2</trackindex>
					</sourcetrack>
					<link>
						<linkclipref>C0060 </linkclipref>
						<mediatype>video</mediatype>
						<trackindex>1</trackindex>
						<clipindex>97</clipindex>
					</link>
					<link>
						<linkclipref>C0060 3</linkclipref>
						<mediatype>audio</mediatype>
						<trackindex>1</trackindex>
						<clipindex>121</clipindex>
					</link>
					<link>
						<linkclipref>C0060 4</linkclipref>
						<mediatype>audio</mediatype>
						<trackindex>2</trackindex>
						<clipindex>74</clipindex>
					</link>
				</clipitem>
				<clipitem id="C0050 10">
					<name>C0050</name>
					<duration>2566</duration>
					<rate>
						<ntsc>FALSE</ntsc>
						<timebase>25</timebase>
					</rate>
					<in>1834</in>
					<out>2103</out>
					<start>12976</start>
					<end>13245</end>
					<subframeoffset>0</subframeoffset>
					<masterclipid>C0050 1</masterclipid>
					<logginginfo>
						<scene/>
						<shottake/>
						<lognote/>
						<good>FALSE</good>
					</logginginfo>
					<labels>
						<label2/>
					</labels>
					<comments>
						<mastercomment1/>
						<mastercomment2/>
						<mastercomment3/>
						<mastercomment4/>
					</comments>
					<file id="C0050 2"/>
					<filter>
						<effect>
							<name>Audio Levels</name>
							<effectid>audiolevels</effectid>
							<effectcategory>audiolevels</effectcategory>
							<effecttype>audiolevels</effecttype>
							<mediatype>audio</mediatype>
							<parameter>
								<name>Level</name>
								<parameterid>level</parameterid>
								<valuemin>0</valuemin>
								<valuemax>3.98109</valuemax>
								<value>1</value>
							</parameter>
						</effect>
					</filter>
					<filter>
						<effect>
							<name>Audio Pan</name>
							<effectid>audiopan</effectid>
							<effectcategory>audiopan</effectcategory>
							<effecttype>audiopan</effecttype>
							<mediatype>audio</mediatype>
							<parameter>
								<name>Pan</name>
								<parameterid>pan</parameterid>
								<valuemin>-1</valuemin>
								<valuemax>1</valuemax>
								<value>0</value>
							</parameter>
						</effect>
					</filter>
					<sourcetrack>
						<mediatype>audio</mediatype>
						<trackindex>2</trackindex>
					</sourcetrack>
					<link>
						<linkclipref>C0050 8</linkclipref>
						<mediatype>video</mediatype>
						<trackindex>1</trackindex>
						<clipindex>98</clipindex>
					</link>
					<link>
						<linkclipref>C0050 9</linkclipref>
						<mediatype>audio</mediatype>
						<trackindex>1</trackindex>
						<clipindex>122</clipindex>
					</link>
					<link>
						<linkclipref>C0050 10</linkclipref>
						<mediatype>audio</mediatype>
						<trackindex>2</trackindex>
						<clipindex>75</clipindex>
					</link>
				</clipitem>
				<clipitem id="C0075 7">
					<name>C0075</name>
					<duration>1816</duration>
					<rate>
						<ntsc>FALSE</ntsc>
						<timebase>25</timebase>
					</rate>
					<in>1363</in>
					<out>1401</out>
					<start>13245</start>
					<end>13283</end>
					<subframeoffset>0</subframeoffset>
					<masterclipid>C0075 1</masterclipid>
					<logginginfo>
						<scene/>
						<shottake/>
						<lognote/>
						<good>FALSE</good>
					</logginginfo>
					<labels>
						<label2/>
					</labels>
					<comments>
						<mastercomment1/>
						<mastercomment2/>
						<mastercomment3/>
						<mastercomment4/>
					</comments>
					<file id="C0075 2"/>
					<filter>
						<effect>
							<name>Audio Levels</name>
							<effectid>audiolevels</effectid>
							<effectcategory>audiolevels</effectcategory>
							<effecttype>audiolevels</effecttype>
							<mediatype>audio</mediatype>
							<parameter>
								<name>Level</name>
								<parameterid>level</parameterid>
								<valuemin>0</valuemin>
								<valuemax>3.98109</valuemax>
								<value>1</value>
							</parameter>
						</effect>
					</filter>
					<filter>
						<effect>
							<name>Audio Pan</name>
							<effectid>audiopan</effectid>
							<effectcategory>audiopan</effectcategory>
							<effecttype>audiopan</effecttype>
							<mediatype>audio</mediatype>
							<parameter>
								<name>Pan</name>
								<parameterid>pan</parameterid>
								<valuemin>-1</valuemin>
								<valuemax>1</valuemax>
								<value>0</value>
							</parameter>
						</effect>
					</filter>
					<sourcetrack>
						<mediatype>audio</mediatype>
						<trackindex>2</trackindex>
					</sourcetrack>
					<link>
						<linkclipref>C0075 5</linkclipref>
						<mediatype>video</mediatype>
						<trackindex>1</trackindex>
						<clipindex>99</clipindex>
					</link>
					<link>
						<linkclipref>C0075 6</linkclipref>
						<mediatype>audio</mediatype>
						<trackindex>1</trackindex>
						<clipindex>123</clipindex>
					</link>
					<link>
						<linkclipref>C0075 7</linkclipref>
						<mediatype>audio</mediatype>
						<trackindex>2</trackindex>
						<clipindex>76</clipindex>
					</link>
				</clipitem>
				<clipitem id="C0075 9">
					<name>C0075</name>
					<duration>1816</duration>
					<rate>
						<ntsc>FALSE</ntsc>
						<timebase>25</timebase>
					</rate>
					<in>1396</in>
					<out>1474</out>
					<start>13283</start>
					<end>13361</end>
					<subframeoffset>0</subframeoffset>
					<masterclipid>C0075 1</masterclipid>
					<logginginfo>
						<scene/>
						<shottake/>
						<lognote/>
						<good>FALSE</good>
					</logginginfo>
					<labels>
						<label2/>
					</labels>
					<comments>
						<mastercomment1/>
						<mastercomment2/>
						<mastercomment3/>
						<mastercomment4/>
					</comments>
					<file id="C0075 2"/>
					<filter>
						<effect>
							<name>Audio Levels</name>
							<effectid>audiolevels</effectid>
							<effectcategory>audiolevels</effectcategory>
							<effecttype>audiolevels</effecttype>
							<mediatype>audio</mediatype>
							<parameter>
								<name>Level</name>
								<parameterid>level</parameterid>
								<valuemin>0</valuemin>
								<valuemax>3.98109</valuemax>
								<value>1</value>
							</parameter>
						</effect>
					</filter>
					<filter>
						<effect>
							<name>Audio Pan</name>
							<effectid>audiopan</effectid>
							<effectcategory>audiopan</effectcategory>
							<effecttype>audiopan</effecttype>
							<mediatype>audio</mediatype>
							<parameter>
								<name>Pan</name>
								<parameterid>pan</parameterid>
								<valuemin>-1</valuemin>
								<valuemax>1</valuemax>
								<value>0</value>
							</parameter>
						</effect>
					</filter>
					<sourcetrack>
						<mediatype>audio</mediatype>
						<trackindex>2</trackindex>
					</sourcetrack>
				</clipitem>
				<clipitem id="C0052 4">
					<name>C0052</name>
					<duration>1699</duration>
					<rate>
						<ntsc>FALSE</ntsc>
						<timebase>25</timebase>
					</rate>
					<in>1002</in>
					<out>1143</out>
					<start>13361</start>
					<end>13502</end>
					<subframeoffset>0</subframeoffset>
					<masterclipid>C0052 1</masterclipid>
					<logginginfo>
						<scene/>
						<shottake/>
						<lognote/>
						<good>FALSE</good>
					</logginginfo>
					<labels>
						<label2/>
					</labels>
					<comments>
						<mastercomment1/>
						<mastercomment2/>
						<mastercomment3/>
						<mastercomment4/>
					</comments>
					<file id="C0052 2"/>
					<filter>
						<effect>
							<name>Audio Levels</name>
							<effectid>audiolevels</effectid>
							<effectcategory>audiolevels</effectcategory>
							<effecttype>audiolevels</effecttype>
							<mediatype>audio</mediatype>
							<parameter>
								<name>Level</name>
								<parameterid>level</parameterid>
								<valuemin>0</valuemin>
								<valuemax>3.98109</valuemax>
								<value>1</value>
							</parameter>
						</effect>
					</filter>
					<filter>
						<effect>
							<name>Audio Pan</name>
							<effectid>audiopan</effectid>
							<effectcategory>audiopan</effectcategory>
							<effecttype>audiopan</effecttype>
							<mediatype>audio</mediatype>
							<parameter>
								<name>Pan</name>
								<parameterid>pan</parameterid>
								<valuemin>-1</valuemin>
								<valuemax>1</valuemax>
								<value>0</value>
							</parameter>
						</effect>
					</filter>
					<sourcetrack>
						<mediatype>audio</mediatype>
						<trackindex>2</trackindex>
					</sourcetrack>
					<link>
						<linkclipref>C0052 </linkclipref>
						<mediatype>video</mediatype>
						<trackindex>1</trackindex>
						<clipindex>100</clipindex>
					</link>
					<link>
						<linkclipref>C0052 3</linkclipref>
						<mediatype>audio</mediatype>
						<trackindex>1</trackindex>
						<clipindex>125</clipindex>
					</link>
					<link>
						<linkclipref>C0052 4</linkclipref>
						<mediatype>audio</mediatype>
						<trackindex>2</trackindex>
						<clipindex>78</clipindex>
					</link>
				</clipitem>
				<clipitem id="C0077 4">
					<name>C0077</name>
					<duration>2591</duration>
					<rate>
						<ntsc>FALSE</ntsc>
						<timebase>25</timebase>
					</rate>
					<in>883</in>
					<out>1083</out>
					<start>13502</start>
					<end>13702</end>
					<subframeoffset>0</subframeoffset>
					<masterclipid>C0077 1</masterclipid>
					<logginginfo>
						<scene/>
						<shottake/>
						<lognote/>
						<good>FALSE</good>
					</logginginfo>
					<labels>
						<label2/>
					</labels>
					<comments>
						<mastercomment1/>
						<mastercomment2/>
						<mastercomment3/>
						<mastercomment4/>
					</comments>
					<file id="C0077 2"/>
					<filter>
						<effect>
							<name>Audio Levels</name>
							<effectid>audiolevels</effectid>
							<effectcategory>audiolevels</effectcategory>
							<effecttype>audiolevels</effecttype>
							<mediatype>audio</mediatype>
							<parameter>
								<name>Level</name>
								<parameterid>level</parameterid>
								<valuemin>0</valuemin>
								<valuemax>3.98109</valuemax>
								<value>1</value>
							</parameter>
						</effect>
					</filter>
					<filter>
						<effect>
							<name>Audio Pan</name>
							<effectid>audiopan</effectid>
							<effectcategory>audiopan</effectcategory>
							<effecttype>audiopan</effecttype>
							<mediatype>audio</mediatype>
							<parameter>
								<name>Pan</name>
								<parameterid>pan</parameterid>
								<valuemin>-1</valuemin>
								<valuemax>1</valuemax>
								<value>0</value>
							</parameter>
						</effect>
					</filter>
					<sourcetrack>
						<mediatype>audio</mediatype>
						<trackindex>2</trackindex>
					</sourcetrack>
					<link>
						<linkclipref>C0077 </linkclipref>
						<mediatype>video</mediatype>
						<trackindex>1</trackindex>
						<clipindex>101</clipindex>
					</link>
					<link>
						<linkclipref>C0077 3</linkclipref>
						<mediatype>audio</mediatype>
						<trackindex>1</trackindex>
						<clipindex>126</clipindex>
					</link>
					<link>
						<linkclipref>C0077 4</linkclipref>
						<mediatype>audio</mediatype>
						<trackindex>2</trackindex>
						<clipindex>79</clipindex>
					</link>
				</clipitem>
				<clipitem id="C0053 4">
					<name>C0053</name>
					<duration>3721</duration>
					<rate>
						<ntsc>FALSE</ntsc>
						<timebase>25</timebase>
					</rate>
					<in>2434</in>
					<out>2562</out>
					<start>13702</start>
					<end>13830</end>
					<subframeoffset>0</subframeoffset>
					<masterclipid>C0053 1</masterclipid>
					<logginginfo>
						<scene/>
						<shottake/>
						<lognote/>
						<good>FALSE</good>
					</logginginfo>
					<labels>
						<label2/>
					</labels>
					<comments>
						<mastercomment1/>
						<mastercomment2/>
						<mastercomment3/>
						<mastercomment4/>
					</comments>
					<file id="C0053 2"/>
					<filter>
						<effect>
							<name>Audio Levels</name>
							<effectid>audiolevels</effectid>
							<effectcategory>audiolevels</effectcategory>
							<effecttype>audiolevels</effecttype>
							<mediatype>audio</mediatype>
							<parameter>
								<name>Level</name>
								<parameterid>level</parameterid>
								<valuemin>0</valuemin>
								<valuemax>3.98109</valuemax>
								<value>1</value>
							</parameter>
						</effect>
					</filter>
					<filter>
						<effect>
							<name>Audio Pan</name>
							<effectid>audiopan</effectid>
							<effectcategory>audiopan</effectcategory>
							<effecttype>audiopan</effecttype>
							<mediatype>audio</mediatype>
							<parameter>
								<name>Pan</name>
								<parameterid>pan</parameterid>
								<valuemin>-1</valuemin>
								<valuemax>1</valuemax>
								<value>0</value>
							</parameter>
						</effect>
					</filter>
					<sourcetrack>
						<mediatype>audio</mediatype>
						<trackindex>2</trackindex>
					</sourcetrack>
					<link>
						<linkclipref>C0053 3</linkclipref>
						<mediatype>audio</mediatype>
						<trackindex>1</trackindex>
						<clipindex>127</clipindex>
					</link>
					<link>
						<linkclipref>C0053 4</linkclipref>
						<mediatype>audio</mediatype>
						<trackindex>2</trackindex>
						<clipindex>80</clipindex>
					</link>
				</clipitem>
				<clipitem id="C0077 10">
					<name>C0077</name>
					<duration>2591</duration>
					<rate>
						<ntsc>FALSE</ntsc>
						<timebase>25</timebase>
					</rate>
					<in>1207</in>
					<out>1254</out>
					<start>13830</start>
					<end>13877</end>
					<subframeoffset>0</subframeoffset>
					<masterclipid>C0077 1</masterclipid>
					<logginginfo>
						<scene/>
						<shottake/>
						<lognote/>
						<good>FALSE</good>
					</logginginfo>
					<labels>
						<label2/>
					</labels>
					<comments>
						<mastercomment1/>
						<mastercomment2/>
						<mastercomment3/>
						<mastercomment4/>
					</comments>
					<file id="C0077 2"/>
					<filter>
						<effect>
							<name>Audio Levels</name>
							<effectid>audiolevels</effectid>
							<effectcategory>audiolevels</effectcategory>
							<effecttype>audiolevels</effecttype>
							<mediatype>audio</mediatype>
							<parameter>
								<name>Level</name>
								<parameterid>level</parameterid>
								<valuemin>0</valuemin>
								<valuemax>3.98109</valuemax>
								<value>1</value>
							</parameter>
						</effect>
					</filter>
					<filter>
						<effect>
							<name>Audio Pan</name>
							<effectid>audiopan</effectid>
							<effectcategory>audiopan</effectcategory>
							<effecttype>audiopan</effecttype>
							<mediatype>audio</mediatype>
							<parameter>
								<name>Pan</name>
								<parameterid>pan</parameterid>
								<valuemin>-1</valuemin>
								<valuemax>1</valuemax>
								<value>0</value>
							</parameter>
						</effect>
					</filter>
					<sourcetrack>
						<mediatype>audio</mediatype>
						<trackindex>2</trackindex>
					</sourcetrack>
				</clipitem>
				<clipitem id="C0065 4">
					<name>C0065</name>
					<duration>3225</duration>
					<rate>
						<ntsc>FALSE</ntsc>
						<timebase>25</timebase>
					</rate>
					<in>2032</in>
					<out>2142</out>
					<start>13877</start>
					<end>13987</end>
					<subframeoffset>0</subframeoffset>
					<masterclipid>C0065 1</masterclipid>
					<logginginfo>
						<scene/>
						<shottake/>
						<lognote/>
						<good>FALSE</good>
					</logginginfo>
					<labels>
						<label2/>
					</labels>
					<comments>
						<mastercomment1/>
						<mastercomment2/>
						<mastercomment3/>
						<mastercomment4/>
					</comments>
					<file id="C0065 2"/>
					<filter>
						<effect>
							<name>Audio Levels</name>
							<effectid>audiolevels</effectid>
							<effectcategory>audiolevels</effectcategory>
							<effecttype>audiolevels</effecttype>
							<mediatype>audio</mediatype>
							<parameter>
								<name>Level</name>
								<parameterid>level</parameterid>
								<valuemin>0</valuemin>
								<valuemax>3.98109</valuemax>
								<keyframe>
									<when>2116.86</when>
									<value>1</value>
								</keyframe>
								<keyframe>
									<when>2138</when>
									<value>0</value>
								</keyframe>
								<interpolation>
									<name>FCPCurve</name>
								</interpolation>
								<value>1</value>
							</parameter>
						</effect>
					</filter>
					<filter>
						<effect>
							<name>Audio Pan</name>
							<effectid>audiopan</effectid>
							<effectcategory>audiopan</effectcategory>
							<effecttype>audiopan</effecttype>
							<mediatype>audio</mediatype>
							<parameter>
								<name>Pan</name>
								<parameterid>pan</parameterid>
								<valuemin>-1</valuemin>
								<valuemax>1</valuemax>
								<value>0</value>
							</parameter>
						</effect>
					</filter>
					<sourcetrack>
						<mediatype>audio</mediatype>
						<trackindex>2</trackindex>
					</sourcetrack>
					<link>
						<linkclipref>C0065 3</linkclipref>
						<mediatype>audio</mediatype>
						<trackindex>1</trackindex>
						<clipindex>129</clipindex>
					</link>
					<link>
						<linkclipref>C0065 4</linkclipref>
						<mediatype>audio</mediatype>
						<trackindex>2</trackindex>
						<clipindex>82</clipindex>
					</link>
				</clipitem>
				<clipitem id="C0080 7">
					<name>C0080</name>
					<duration>962</duration>
					<rate>
						<ntsc>FALSE</ntsc>
						<timebase>25</timebase>
					</rate>
					<in>200</in>
					<out>325</out>
					<start>13987</start>
					<end>14112</end>
					<subframeoffset>0</subframeoffset>
					<masterclipid>C0080 1</masterclipid>
					<logginginfo>
						<scene/>
						<shottake/>
						<lognote/>
						<good>FALSE</good>
					</logginginfo>
					<labels>
						<label2/>
					</labels>
					<comments>
						<mastercomment1/>
						<mastercomment2/>
						<mastercomment3/>
						<mastercomment4/>
					</comments>
					<file id="C0080 2"/>
					<filter>
						<effect>
							<name>Audio Levels</name>
							<effectid>audiolevels</effectid>
							<effectcategory>audiolevels</effectcategory>
							<effecttype>audiolevels</effecttype>
							<mediatype>audio</mediatype>
							<parameter>
								<name>Level</name>
								<parameterid>level</parameterid>
								<valuemin>0</valuemin>
								<valuemax>3.98109</valuemax>
								<value>0</value>
							</parameter>
						</effect>
					</filter>
					<filter>
						<effect>
							<name>Audio Pan</name>
							<effectid>audiopan</effectid>
							<effectcategory>audiopan</effectcategory>
							<effecttype>audiopan</effecttype>
							<mediatype>audio</mediatype>
							<parameter>
								<name>Pan</name>
								<parameterid>pan</parameterid>
								<valuemin>-1</valuemin>
								<valuemax>1</valuemax>
								<value>0</value>
							</parameter>
						</effect>
					</filter>
					<sourcetrack>
						<mediatype>audio</mediatype>
						<trackindex>2</trackindex>
					</sourcetrack>
				</clipitem>
				<clipitem id="C0054 4">
					<name>C0054</name>
					<duration>3304</duration>
					<rate>
						<ntsc>FALSE</ntsc>
						<timebase>25</timebase>
					</rate>
					<in>2534</in>
					<out>2629</out>
					<start>14112</start>
					<end>14207</end>
					<subframeoffset>0</subframeoffset>
					<masterclipid>C0054 1</masterclipid>
					<logginginfo>
						<scene/>
						<shottake/>
						<lognote/>
						<good>FALSE</good>
					</logginginfo>
					<labels>
						<label2/>
					</labels>
					<comments>
						<mastercomment1/>
						<mastercomment2/>
						<mastercomment3/>
						<mastercomment4/>
					</comments>
					<file id="C0054 2"/>
					<filter>
						<effect>
							<name>Audio Levels</name>
							<effectid>audiolevels</effectid>
							<effectcategory>audiolevels</effectcategory>
							<effecttype>audiolevels</effecttype>
							<mediatype>audio</mediatype>
							<parameter>
								<name>Level</name>
								<parameterid>level</parameterid>
								<valuemin>0</valuemin>
								<valuemax>3.98109</valuemax>
								<keyframe>
									<when>2554.71</when>
									<value>0</value>
								</keyframe>
								<keyframe>
									<when>2577.86</when>
									<value>1</value>
								</keyframe>
								<keyframe>
									<when>2585.29</when>
									<value>1</value>
								</keyframe>
								<keyframe>
									<when>2608.71</when>
									<value>0</value>
								</keyframe>
								<interpolation>
									<name>FCPCurve</name>
								</interpolation>
								<value>1</value>
							</parameter>
						</effect>
					</filter>
					<filter>
						<effect>
							<name>Audio Pan</name>
							<effectid>audiopan</effectid>
							<effectcategory>audiopan</effectcategory>
							<effecttype>audiopan</effecttype>
							<mediatype>audio</mediatype>
							<parameter>
								<name>Pan</name>
								<parameterid>pan</parameterid>
								<valuemin>-1</valuemin>
								<valuemax>1</valuemax>
								<value>0</value>
							</parameter>
						</effect>
					</filter>
					<sourcetrack>
						<mediatype>audio</mediatype>
						<trackindex>2</trackindex>
					</sourcetrack>
					<link>
						<linkclipref>C0054 </linkclipref>
						<mediatype>video</mediatype>
						<trackindex>1</trackindex>
						<clipindex>106</clipindex>
					</link>
					<link>
						<linkclipref>C0054 3</linkclipref>
						<mediatype>audio</mediatype>
						<trackindex>1</trackindex>
						<clipindex>132</clipindex>
					</link>
					<link>
						<linkclipref>C0054 4</linkclipref>
						<mediatype>audio</mediatype>
						<trackindex>2</trackindex>
						<clipindex>84</clipindex>
					</link>
				</clipitem>
				<clipitem id="C0080 6">
					<name>C0080</name>
					<duration>962</duration>
					<rate>
						<ntsc>FALSE</ntsc>
						<timebase>25</timebase>
					</rate>
					<in>439</in>
					<out>521</out>
					<start>14207</start>
					<end>14289</end>
					<subframeoffset>0</subframeoffset>
					<masterclipid>C0080 1</masterclipid>
					<logginginfo>
						<scene/>
						<shottake/>
						<lognote/>
						<good>FALSE</good>
					</logginginfo>
					<labels>
						<label2/>
					</labels>
					<comments>
						<mastercomment1/>
						<mastercomment2/>
						<mastercomment3/>
						<mastercomment4/>
					</comments>
					<file id="C0080 2"/>
					<filter>
						<effect>
							<name>Audio Levels</name>
							<effectid>audiolevels</effectid>
							<effectcategory>audiolevels</effectcategory>
							<effecttype>audiolevels</effecttype>
							<mediatype>audio</mediatype>
							<parameter>
								<name>Level</name>
								<parameterid>level</parameterid>
								<valuemin>0</valuemin>
								<valuemax>3.98109</valuemax>
								<value>0</value>
							</parameter>
						</effect>
					</filter>
					<filter>
						<effect>
							<name>Audio Pan</name>
							<effectid>audiopan</effectid>
							<effectcategory>audiopan</effectcategory>
							<effecttype>audiopan</effecttype>
							<mediatype>audio</mediatype>
							<parameter>
								<name>Pan</name>
								<parameterid>pan</parameterid>
								<valuemin>-1</valuemin>
								<valuemax>1</valuemax>
								<value>0</value>
							</parameter>
						</effect>
					</filter>
					<sourcetrack>
						<mediatype>audio</mediatype>
						<trackindex>2</trackindex>
					</sourcetrack>
					<link>
						<linkclipref>C0080 4</linkclipref>
						<mediatype>video</mediatype>
						<trackindex>1</trackindex>
						<clipindex>107</clipindex>
					</link>
					<link>
						<linkclipref>C0080 5</linkclipref>
						<mediatype>audio</mediatype>
						<trackindex>1</trackindex>
						<clipindex>133</clipindex>
					</link>
					<link>
						<linkclipref>C0080 6</linkclipref>
						<mediatype>audio</mediatype>
						<trackindex>2</trackindex>
						<clipindex>85</clipindex>
					</link>
				</clipitem>
				<clipitem id="C0077 9">
					<name>C0077</name>
					<duration>2591</duration>
					<rate>
						<ntsc>FALSE</ntsc>
						<timebase>25</timebase>
					</rate>
					<in>1849</in>
					<out>2062</out>
					<start>14289</start>
					<end>14502</end>
					<subframeoffset>0</subframeoffset>
					<masterclipid>C0077 1</masterclipid>
					<logginginfo>
						<scene/>
						<shottake/>
						<lognote/>
						<good>FALSE</good>
					</logginginfo>
					<labels>
						<label2/>
					</labels>
					<comments>
						<mastercomment1/>
						<mastercomment2/>
						<mastercomment3/>
						<mastercomment4/>
					</comments>
					<file id="C0077 2"/>
					<filter>
						<effect>
							<name>Audio Levels</name>
							<effectid>audiolevels</effectid>
							<effectcategory>audiolevels</effectcategory>
							<effecttype>audiolevels</effecttype>
							<mediatype>audio</mediatype>
							<parameter>
								<name>Level</name>
								<parameterid>level</parameterid>
								<valuemin>0</valuemin>
								<valuemax>3.98109</valuemax>
								<keyframe>
									<when>1907.86</when>
									<value>0</value>
								</keyframe>
								<keyframe>
									<when>1932.43</when>
									<value>1</value>
								</keyframe>
								<interpolation>
									<name>FCPCurve</name>
								</interpolation>
								<value>1</value>
							</parameter>
						</effect>
					</filter>
					<filter>
						<effect>
							<name>Audio Pan</name>
							<effectid>audiopan</effectid>
							<effectcategory>audiopan</effectcategory>
							<effecttype>audiopan</effecttype>
							<mediatype>audio</mediatype>
							<parameter>
								<name>Pan</name>
								<parameterid>pan</parameterid>
								<valuemin>-1</valuemin>
								<valuemax>1</valuemax>
								<value>0</value>
							</parameter>
						</effect>
					</filter>
					<sourcetrack>
						<mediatype>audio</mediatype>
						<trackindex>2</trackindex>
					</sourcetrack>
					<link>
						<linkclipref>C0077 7</linkclipref>
						<mediatype>video</mediatype>
						<trackindex>2</trackindex>
						<clipindex>33</clipindex>
					</link>
					<link>
						<linkclipref>C0077 8</linkclipref>
						<mediatype>audio</mediatype>
						<trackindex>1</trackindex>
						<clipindex>134</clipindex>
					</link>
					<link>
						<linkclipref>C0077 9</linkclipref>
						<mediatype>audio</mediatype>
						<trackindex>2</trackindex>
						<clipindex>86</clipindex>
					</link>
				</clipitem>
				<clipitem id="C0055 4">
					<name>C0055</name>
					<duration>1362</duration>
					<rate>
						<ntsc>FALSE</ntsc>
						<timebase>25</timebase>
					</rate>
					<in>978</in>
					<out>1210</out>
					<start>14502</start>
					<end>-1</end>
					<subframeoffset>0</subframeoffset>
					<masterclipid>C0055 1</masterclipid>
					<logginginfo>
						<scene/>
						<shottake/>
						<lognote/>
						<good>FALSE</good>
					</logginginfo>
					<labels>
						<label2/>
					</labels>
					<comments>
						<mastercomment1/>
						<mastercomment2/>
						<mastercomment3/>
						<mastercomment4/>
					</comments>
					<file id="C0055 2"/>
					<filter>
						<effect>
							<name>Audio Levels</name>
							<effectid>audiolevels</effectid>
							<effectcategory>audiolevels</effectcategory>
							<effecttype>audiolevels</effecttype>
							<mediatype>audio</mediatype>
							<parameter>
								<name>Level</name>
								<parameterid>level</parameterid>
								<valuemin>0</valuemin>
								<valuemax>3.98109</valuemax>
								<keyframe>
									<when>1058.57</when>
									<value>1</value>
								</keyframe>
								<keyframe>
									<when>1065.14</when>
									<value>0.446684</value>
								</keyframe>
								<keyframe>
									<when>1082</when>
									<value>0.446684</value>
								</keyframe>
								<keyframe>
									<when>1105.14</when>
									<value>1</value>
								</keyframe>
								<interpolation>
									<name>FCPCurve</name>
								</interpolation>
								<value>1</value>
							</parameter>
						</effect>
					</filter>
					<filter>
						<effect>
							<name>Audio Pan</name>
							<effectid>audiopan</effectid>
							<effectcategory>audiopan</effectcategory>
							<effecttype>audiopan</effecttype>
							<mediatype>audio</mediatype>
							<parameter>
								<name>Pan</name>
								<parameterid>pan</parameterid>
								<valuemin>-1</valuemin>
								<valuemax>1</valuemax>
								<value>0</value>
							</parameter>
						</effect>
					</filter>
					<sourcetrack>
						<mediatype>audio</mediatype>
						<trackindex>2</trackindex>
					</sourcetrack>
					<link>
						<linkclipref>C0055 </linkclipref>
						<mediatype>video</mediatype>
						<trackindex>1</trackindex>
						<clipindex>108</clipindex>
					</link>
					<link>
						<linkclipref>C0055 3</linkclipref>
						<mediatype>audio</mediatype>
						<trackindex>1</trackindex>
						<clipindex>135</clipindex>
					</link>
					<link>
						<linkclipref>C0055 4</linkclipref>
						<mediatype>audio</mediatype>
						<trackindex>2</trackindex>
						<clipindex>87</clipindex>
					</link>
				</clipitem>
				<transitionitem id="24">
					<rate>
						<ntsc>FALSE</ntsc>
						<timebase>25</timebase>
					</rate>
					<start>14727</start>
					<end>14734</end>
					<alignment>end-black</alignment>
					<effect>
						<name>Cross Fade (+3dB)</name>
						<effecttype>transition</effecttype>
						<mediatype>audio</mediatype>
					</effect>
				</transitionitem>
				<clipitem id="Kråkeklubben Pgm 14 Ny voice Mari.WAV2">
					<name>Kråkeklubben Pgm 14 Ny voice Mari.WAV</name>
					<duration>8963</duration>
					<rate>
						<ntsc>FALSE</ntsc>
						<timebase>25</timebase>
					</rate>
					<in>8613</in>
					<out>8642</out>
					<start>14886</start>
					<end>14915</end>
					<subframeoffset>0</subframeoffset>
					<enabled>TRUE</enabled>
					<masterclipid>Kråkeklubben Pgm 14 Ny voice Mari.WAV1</masterclipid>
					<logginginfo>
						<scene/>
						<shottake/>
						<lognote/>
						<good>FALSE</good>
					</logginginfo>
					<labels>
						<label2/>
					</labels>
					<comments>
						<mastercomment1/>
						<mastercomment2/>
						<mastercomment3/>
						<mastercomment4/>
					</comments>
					<file id="Kråkeklubben Pgm 14 Ny voice Mari"/>
					<filter>
						<effect>
							<name>Audio Levels</name>
							<effectid>audiolevels</effectid>
							<effectcategory>audiolevels</effectcategory>
							<effecttype>audiolevels</effecttype>
							<mediatype>audio</mediatype>
							<parameter>
								<name>Level</name>
								<parameterid>level</parameterid>
								<valuemin>0</valuemin>
								<valuemax>3.98109</valuemax>
								<keyframe>
									<when>5084.85</when>
									<value>2.23872</value>
								</keyframe>
								<interpolation>
									<name>FCPCurve</name>
								</interpolation>
								<value>3.98107</value>
							</parameter>
						</effect>
					</filter>
					<filter>
						<effect>
							<name>Audio Pan</name>
							<effectid>audiopan</effectid>
							<effectcategory>audiopan</effectcategory>
							<effecttype>audiopan</effecttype>
							<mediatype>audio</mediatype>
							<parameter>
								<name>Pan</name>
								<parameterid>pan</parameterid>
								<valuemin>-1</valuemin>
								<valuemax>1</valuemax>
								<value>-0</value>
							</parameter>
						</effect>
					</filter>
					<sourcetrack>
						<mediatype>audio</mediatype>
						<trackindex>2</trackindex>
					</sourcetrack>
					<link>
						<linkclipref>Kråkeklubben Pgm 14 Ny voice Mari.WAV</linkclipref>
						<mediatype>audio</mediatype>
						<trackindex>1</trackindex>
						<clipindex>144</clipindex>
						<groupindex>1</groupindex>
					</link>
					<link>
						<linkclipref>Kråkeklubben Pgm 14 Ny voice Mari.WAV2</linkclipref>
						<mediatype>audio</mediatype>
						<trackindex>2</trackindex>
						<clipindex>89</clipindex>
						<groupindex>1</groupindex>
					</link>
				</clipitem>
				<clipitem id="Kråkeklubben Pgm 14 Ny voice Mari.WAV4">
					<name>Kråkeklubben Pgm 14 Ny voice Mari.WAV</name>
					<duration>8963</duration>
					<rate>
						<ntsc>FALSE</ntsc>
						<timebase>25</timebase>
					</rate>
					<in>8642</in>
					<out>8680</out>
					<start>14920</start>
					<end>14958</end>
					<subframeoffset>0</subframeoffset>
					<masterclipid>Kråkeklubben Pgm 14 Ny voice Mari.WAV1</masterclipid>
					<logginginfo>
						<scene/>
						<shottake/>
						<lognote/>
						<good>FALSE</good>
					</logginginfo>
					<labels>
						<label2/>
					</labels>
					<comments>
						<mastercomment1/>
						<mastercomment2/>
						<mastercomment3/>
						<mastercomment4/>
					</comments>
					<file id="Kråkeklubben Pgm 14 Ny voice Mari"/>
					<filter>
						<effect>
							<name>Audio Levels</name>
							<effectid>audiolevels</effectid>
							<effectcategory>audiolevels</effectcategory>
							<effecttype>audiolevels</effecttype>
							<mediatype>audio</mediatype>
							<parameter>
								<name>Level</name>
								<parameterid>level</parameterid>
								<valuemin>0</valuemin>
								<valuemax>3.98109</valuemax>
								<keyframe>
									<when>5084.85</when>
									<value>2.23872</value>
								</keyframe>
								<interpolation>
									<name>FCPCurve</name>
								</interpolation>
								<value>3.98107</value>
							</parameter>
						</effect>
					</filter>
					<filter>
						<effect>
							<name>Audio Pan</name>
							<effectid>audiopan</effectid>
							<effectcategory>audiopan</effectcategory>
							<effecttype>audiopan</effecttype>
							<mediatype>audio</mediatype>
							<parameter>
								<name>Pan</name>
								<parameterid>pan</parameterid>
								<valuemin>-1</valuemin>
								<valuemax>1</valuemax>
								<value>-0</value>
							</parameter>
						</effect>
					</filter>
					<sourcetrack>
						<mediatype>audio</mediatype>
						<trackindex>2</trackindex>
					</sourcetrack>
					<link>
						<linkclipref>Kråkeklubben Pgm 14 Ny voice Mari.WAV3</linkclipref>
						<mediatype>audio</mediatype>
						<trackindex>1</trackindex>
						<clipindex>145</clipindex>
						<groupindex>1</groupindex>
					</link>
					<link>
						<linkclipref>Kråkeklubben Pgm 14 Ny voice Mari.WAV4</linkclipref>
						<mediatype>audio</mediatype>
						<trackindex>2</trackindex>
						<clipindex>90</clipindex>
						<groupindex>1</groupindex>
					</link>
				</clipitem>
				<clipitem id="C0016 6">
					<name>C0016</name>
					<duration>1537</duration>
					<rate>
						<ntsc>FALSE</ntsc>
						<timebase>25</timebase>
					</rate>
					<in>110</in>
					<out>325</out>
					<start>19331</start>
					<end>19546</end>
					<subframeoffset>0</subframeoffset>
					<masterclipid>C0016 3</masterclipid>
					<logginginfo>
						<scene/>
						<shottake/>
						<lognote/>
						<good>FALSE</good>
					</logginginfo>
					<labels>
						<label2/>
					</labels>
					<comments>
						<mastercomment1/>
						<mastercomment2/>
						<mastercomment3/>
						<mastercomment4/>
					</comments>
					<file id="C0016 4"/>
					<filter>
						<effect>
							<name>Audio Levels</name>
							<effectid>audiolevels</effectid>
							<effectcategory>audiolevels</effectcategory>
							<effecttype>audiolevels</effecttype>
							<mediatype>audio</mediatype>
							<parameter>
								<name>Level</name>
								<parameterid>level</parameterid>
								<valuemin>0</valuemin>
								<valuemax>3.98109</valuemax>
								<value>1</value>
							</parameter>
						</effect>
					</filter>
					<filter>
						<effect>
							<name>Audio Pan</name>
							<effectid>audiopan</effectid>
							<effectcategory>audiopan</effectcategory>
							<effecttype>audiopan</effecttype>
							<mediatype>audio</mediatype>
							<parameter>
								<name>Pan</name>
								<parameterid>pan</parameterid>
								<valuemin>-1</valuemin>
								<valuemax>1</valuemax>
								<value>0</value>
							</parameter>
						</effect>
					</filter>
					<sourcetrack>
						<mediatype>audio</mediatype>
						<trackindex>2</trackindex>
					</sourcetrack>
					<link>
						<linkclipref>C0016 2</linkclipref>
						<mediatype>video</mediatype>
						<trackindex>1</trackindex>
						<clipindex>136</clipindex>
					</link>
					<link>
						<linkclipref>C0016 5</linkclipref>
						<mediatype>audio</mediatype>
						<trackindex>1</trackindex>
						<clipindex>170</clipindex>
					</link>
					<link>
						<linkclipref>C0016 6</linkclipref>
						<mediatype>audio</mediatype>
						<trackindex>2</trackindex>
						<clipindex>91</clipindex>
					</link>
				</clipitem>
				<clipitem id="C0019 4">
					<name>C0019</name>
					<duration>621</duration>
					<rate>
						<ntsc>FALSE</ntsc>
						<timebase>25</timebase>
					</rate>
					<in>207</in>
					<out>276</out>
					<start>19546</start>
					<end>19615</end>
					<subframeoffset>0</subframeoffset>
					<masterclipid>C0019 1</masterclipid>
					<logginginfo>
						<scene/>
						<shottake/>
						<lognote/>
						<good>FALSE</good>
					</logginginfo>
					<labels>
						<label2/>
					</labels>
					<comments>
						<mastercomment1/>
						<mastercomment2/>
						<mastercomment3/>
						<mastercomment4/>
					</comments>
					<file id="C0019 2"/>
					<filter>
						<effect>
							<name>Audio Levels</name>
							<effectid>audiolevels</effectid>
							<effectcategory>audiolevels</effectcategory>
							<effecttype>audiolevels</effecttype>
							<mediatype>audio</mediatype>
							<parameter>
								<name>Level</name>
								<parameterid>level</parameterid>
								<valuemin>0</valuemin>
								<valuemax>3.98109</valuemax>
								<value>1</value>
							</parameter>
						</effect>
					</filter>
					<filter>
						<effect>
							<name>Audio Pan</name>
							<effectid>audiopan</effectid>
							<effectcategory>audiopan</effectcategory>
							<effecttype>audiopan</effecttype>
							<mediatype>audio</mediatype>
							<parameter>
								<name>Pan</name>
								<parameterid>pan</parameterid>
								<valuemin>-1</valuemin>
								<valuemax>1</valuemax>
								<value>0</value>
							</parameter>
						</effect>
					</filter>
					<sourcetrack>
						<mediatype>audio</mediatype>
						<trackindex>2</trackindex>
					</sourcetrack>
					<link>
						<linkclipref>C0019 </linkclipref>
						<mediatype>video</mediatype>
						<trackindex>1</trackindex>
						<clipindex>137</clipindex>
					</link>
					<link>
						<linkclipref>C0019 3</linkclipref>
						<mediatype>audio</mediatype>
						<trackindex>1</trackindex>
						<clipindex>171</clipindex>
					</link>
					<link>
						<linkclipref>C0019 4</linkclipref>
						<mediatype>audio</mediatype>
						<trackindex>2</trackindex>
						<clipindex>92</clipindex>
					</link>
				</clipitem>
				<clipitem id="C0001 4">
					<name>C0001</name>
					<duration>1416</duration>
					<rate>
						<ntsc>FALSE</ntsc>
						<timebase>25</timebase>
					</rate>
					<in>1112</in>
					<out>1267</out>
					<start>19615</start>
					<end>-1</end>
					<subframeoffset>0</subframeoffset>
					<masterclipid>C0001 1</masterclipid>
					<logginginfo>
						<scene/>
						<shottake/>
						<lognote/>
						<good>FALSE</good>
					</logginginfo>
					<labels>
						<label2/>
					</labels>
					<comments>
						<mastercomment1/>
						<mastercomment2/>
						<mastercomment3/>
						<mastercomment4/>
					</comments>
					<file id="C0001 2"/>
					<filter>
						<effect>
							<name>Audio Levels</name>
							<effectid>audiolevels</effectid>
							<effectcategory>audiolevels</effectcategory>
							<effecttype>audiolevels</effecttype>
							<mediatype>audio</mediatype>
							<parameter>
								<name>Level</name>
								<parameterid>level</parameterid>
								<valuemin>0</valuemin>
								<valuemax>3.98109</valuemax>
								<value>1</value>
							</parameter>
						</effect>
					</filter>
					<filter>
						<effect>
							<name>Audio Pan</name>
							<effectid>audiopan</effectid>
							<effectcategory>audiopan</effectcategory>
							<effecttype>audiopan</effecttype>
							<mediatype>audio</mediatype>
							<parameter>
								<name>Pan</name>
								<parameterid>pan</parameterid>
								<valuemin>-1</valuemin>
								<valuemax>1</valuemax>
								<value>0</value>
							</parameter>
						</effect>
					</filter>
					<sourcetrack>
						<mediatype>audio</mediatype>
						<trackindex>2</trackindex>
					</sourcetrack>
					<link>
						<linkclipref>C0001 </linkclipref>
						<mediatype>video</mediatype>
						<trackindex>1</trackindex>
						<clipindex>138</clipindex>
					</link>
					<link>
						<linkclipref>C0001 3</linkclipref>
						<mediatype>audio</mediatype>
						<trackindex>1</trackindex>
						<clipindex>172</clipindex>
					</link>
					<link>
						<linkclipref>C0001 4</linkclipref>
						<mediatype>audio</mediatype>
						<trackindex>2</trackindex>
						<clipindex>93</clipindex>
					</link>
				</clipitem>
				<transitionitem id="1787556272 ">
					<rate>
						<ntsc>FALSE</ntsc>
						<timebase>25</timebase>
					</rate>
					<start>19767</start>
					<end>19770</end>
					<alignment>center</alignment>
					<effect>
						<name>Cross Fade (+3dB)</name>
						<effecttype>transition</effecttype>
						<mediatype>audio</mediatype>
					</effect>
				</transitionitem>
				<clipitem id="C0020 12">
					<name>C0020</name>
					<duration>563</duration>
					<rate>
						<ntsc>FALSE</ntsc>
						<timebase>25</timebase>
					</rate>
					<in>354</in>
					<out>464</out>
					<start>-1</start>
					<end>19877</end>
					<subframeoffset>0</subframeoffset>
					<masterclipid>C0020 9</masterclipid>
					<logginginfo>
						<scene/>
						<shottake/>
						<lognote/>
						<good>FALSE</good>
					</logginginfo>
					<labels>
						<label2/>
					</labels>
					<comments>
						<mastercomment1/>
						<mastercomment2/>
						<mastercomment3/>
						<mastercomment4/>
					</comments>
					<file id="C0020 10"/>
					<filter>
						<effect>
							<name>Audio Levels</name>
							<effectid>audiolevels</effectid>
							<effectcategory>audiolevels</effectcategory>
							<effecttype>audiolevels</effecttype>
							<mediatype>audio</mediatype>
							<parameter>
								<name>Level</name>
								<parameterid>level</parameterid>
								<valuemin>0</valuemin>
								<valuemax>3.98109</valuemax>
								<value>1</value>
							</parameter>
						</effect>
					</filter>
					<filter>
						<effect>
							<name>Audio Pan</name>
							<effectid>audiopan</effectid>
							<effectcategory>audiopan</effectcategory>
							<effecttype>audiopan</effecttype>
							<mediatype>audio</mediatype>
							<parameter>
								<name>Pan</name>
								<parameterid>pan</parameterid>
								<valuemin>-1</valuemin>
								<valuemax>1</valuemax>
								<value>0</value>
							</parameter>
						</effect>
					</filter>
					<sourcetrack>
						<mediatype>audio</mediatype>
						<trackindex>2</trackindex>
					</sourcetrack>
					<link>
						<linkclipref>C0020 8</linkclipref>
						<mediatype>video</mediatype>
						<trackindex>1</trackindex>
						<clipindex>139</clipindex>
					</link>
					<link>
						<linkclipref>C0020 11</linkclipref>
						<mediatype>audio</mediatype>
						<trackindex>1</trackindex>
						<clipindex>174</clipindex>
					</link>
					<link>
						<linkclipref>C0020 12</linkclipref>
						<mediatype>audio</mediatype>
						<trackindex>2</trackindex>
						<clipindex>95</clipindex>
					</link>
				</clipitem>
				<clipitem id="C0016 17">
					<name>C0016</name>
					<duration>1537</duration>
					<rate>
						<ntsc>FALSE</ntsc>
						<timebase>25</timebase>
					</rate>
					<in>663</in>
					<out>728</out>
					<start>19877</start>
					<end>19942</end>
					<subframeoffset>0</subframeoffset>
					<masterclipid>C0016 3</masterclipid>
					<logginginfo>
						<scene/>
						<shottake/>
						<lognote/>
						<good>FALSE</good>
					</logginginfo>
					<labels>
						<label2/>
					</labels>
					<comments>
						<mastercomment1/>
						<mastercomment2/>
						<mastercomment3/>
						<mastercomment4/>
					</comments>
					<file id="C0016 4"/>
					<filter>
						<effect>
							<name>Audio Levels</name>
							<effectid>audiolevels</effectid>
							<effectcategory>audiolevels</effectcategory>
							<effecttype>audiolevels</effecttype>
							<mediatype>audio</mediatype>
							<parameter>
								<name>Level</name>
								<parameterid>level</parameterid>
								<valuemin>0</valuemin>
								<valuemax>3.98109</valuemax>
								<value>1.77828</value>
							</parameter>
						</effect>
					</filter>
					<filter>
						<effect>
							<name>Audio Pan</name>
							<effectid>audiopan</effectid>
							<effectcategory>audiopan</effectcategory>
							<effecttype>audiopan</effecttype>
							<mediatype>audio</mediatype>
							<parameter>
								<name>Pan</name>
								<parameterid>pan</parameterid>
								<valuemin>-1</valuemin>
								<valuemax>1</valuemax>
								<value>0</value>
							</parameter>
						</effect>
					</filter>
					<sourcetrack>
						<mediatype>audio</mediatype>
						<trackindex>2</trackindex>
					</sourcetrack>
				</clipitem>
				<clipitem id="C0023 9">
					<name>C0023</name>
					<duration>1465</duration>
					<rate>
						<ntsc>FALSE</ntsc>
						<timebase>25</timebase>
					</rate>
					<in>505</in>
					<out>549</out>
					<start>19942</start>
					<end>-1</end>
					<subframeoffset>0</subframeoffset>
					<masterclipid>C0023 1</masterclipid>
					<logginginfo>
						<scene/>
						<shottake/>
						<lognote/>
						<good>FALSE</good>
					</logginginfo>
					<labels>
						<label2/>
					</labels>
					<comments>
						<mastercomment1/>
						<mastercomment2/>
						<mastercomment3/>
						<mastercomment4/>
					</comments>
					<file id="C0023 2"/>
					<filter>
						<effect>
							<name>Audio Levels</name>
							<effectid>audiolevels</effectid>
							<effectcategory>audiolevels</effectcategory>
							<effecttype>audiolevels</effecttype>
							<mediatype>audio</mediatype>
							<parameter>
								<name>Level</name>
								<parameterid>level</parameterid>
								<valuemin>0</valuemin>
								<valuemax>3.98109</valuemax>
								<value>1.77828</value>
							</parameter>
						</effect>
					</filter>
					<filter>
						<effect>
							<name>Audio Pan</name>
							<effectid>audiopan</effectid>
							<effectcategory>audiopan</effectcategory>
							<effecttype>audiopan</effecttype>
							<mediatype>audio</mediatype>
							<parameter>
								<name>Pan</name>
								<parameterid>pan</parameterid>
								<valuemin>-1</valuemin>
								<valuemax>1</valuemax>
								<value>0</value>
							</parameter>
						</effect>
					</filter>
					<sourcetrack>
						<mediatype>audio</mediatype>
						<trackindex>2</trackindex>
					</sourcetrack>
					<link>
						<linkclipref>C0023 8</linkclipref>
						<mediatype>audio</mediatype>
						<trackindex>1</trackindex>
						<clipindex>176</clipindex>
					</link>
					<link>
						<linkclipref>C0023 9</linkclipref>
						<mediatype>audio</mediatype>
						<trackindex>2</trackindex>
						<clipindex>97</clipindex>
					</link>
				</clipitem>
				<transitionitem id="1787540020 ">
					<rate>
						<ntsc>FALSE</ntsc>
						<timebase>25</timebase>
					</rate>
					<start>19974</start>
					<end>19986</end>
					<alignment>center</alignment>
					<effect>
						<name>Cross Fade (+3dB)</name>
						<effecttype>transition</effecttype>
						<mediatype>audio</mediatype>
					</effect>
				</transitionitem>
				<clipitem id="C0016 18">
					<name>C0016</name>
					<duration>1537</duration>
					<rate>
						<ntsc>FALSE</ntsc>
						<timebase>25</timebase>
					</rate>
					<in>766</in>
					<out>822</out>
					<start>-1</start>
					<end>20030</end>
					<subframeoffset>0</subframeoffset>
					<masterclipid>C0016 3</masterclipid>
					<logginginfo>
						<scene/>
						<shottake/>
						<lognote/>
						<good>FALSE</good>
					</logginginfo>
					<labels>
						<label2/>
					</labels>
					<comments>
						<mastercomment1/>
						<mastercomment2/>
						<mastercomment3/>
						<mastercomment4/>
					</comments>
					<file id="C0016 4"/>
					<filter>
						<effect>
							<name>Audio Levels</name>
							<effectid>audiolevels</effectid>
							<effectcategory>audiolevels</effectcategory>
							<effecttype>audiolevels</effecttype>
							<mediatype>audio</mediatype>
							<parameter>
								<name>Level</name>
								<parameterid>level</parameterid>
								<valuemin>0</valuemin>
								<valuemax>3.98109</valuemax>
								<value>3.98107</value>
							</parameter>
						</effect>
					</filter>
					<filter>
						<effect>
							<name>Audio Pan</name>
							<effectid>audiopan</effectid>
							<effectcategory>audiopan</effectcategory>
							<effecttype>audiopan</effecttype>
							<mediatype>audio</mediatype>
							<parameter>
								<name>Pan</name>
								<parameterid>pan</parameterid>
								<valuemin>-1</valuemin>
								<valuemax>1</valuemax>
								<value>0</value>
							</parameter>
						</effect>
					</filter>
					<sourcetrack>
						<mediatype>audio</mediatype>
						<trackindex>2</trackindex>
					</sourcetrack>
				</clipitem>
				<clipitem id="C0011 14">
					<name>C0011</name>
					<duration>422</duration>
					<rate>
						<ntsc>FALSE</ntsc>
						<timebase>25</timebase>
					</rate>
					<in>274</in>
					<out>365</out>
					<start>20030</start>
					<end>20121</end>
					<subframeoffset>0</subframeoffset>
					<masterclipid>C0011 9</masterclipid>
					<logginginfo>
						<scene/>
						<shottake/>
						<lognote/>
						<good>FALSE</good>
					</logginginfo>
					<labels>
						<label2/>
					</labels>
					<comments>
						<mastercomment1/>
						<mastercomment2/>
						<mastercomment3/>
						<mastercomment4/>
					</comments>
					<file id="C0011 10"/>
					<filter>
						<effect>
							<name>Audio Levels</name>
							<effectid>audiolevels</effectid>
							<effectcategory>audiolevels</effectcategory>
							<effecttype>audiolevels</effecttype>
							<mediatype>audio</mediatype>
							<parameter>
								<name>Level</name>
								<parameterid>level</parameterid>
								<valuemin>0</valuemin>
								<valuemax>3.98109</valuemax>
								<keyframe>
									<when>318.143</when>
									<value>1.99526</value>
								</keyframe>
								<keyframe>
									<when>346.429</when>
									<value>1</value>
								</keyframe>
								<interpolation>
									<name>FCPCurve</name>
								</interpolation>
								<value>1</value>
							</parameter>
						</effect>
					</filter>
					<filter>
						<effect>
							<name>Audio Pan</name>
							<effectid>audiopan</effectid>
							<effectcategory>audiopan</effectcategory>
							<effecttype>audiopan</effecttype>
							<mediatype>audio</mediatype>
							<parameter>
								<name>Pan</name>
								<parameterid>pan</parameterid>
								<valuemin>-1</valuemin>
								<valuemax>1</valuemax>
								<value>0</value>
							</parameter>
						</effect>
					</filter>
					<sourcetrack>
						<mediatype>audio</mediatype>
						<trackindex>2</trackindex>
					</sourcetrack>
					<link>
						<linkclipref>C0011 12</linkclipref>
						<mediatype>video</mediatype>
						<trackindex>1</trackindex>
						<clipindex>142</clipindex>
					</link>
					<link>
						<linkclipref>C0011 13</linkclipref>
						<mediatype>audio</mediatype>
						<trackindex>1</trackindex>
						<clipindex>178</clipindex>
					</link>
					<link>
						<linkclipref>C0011 14</linkclipref>
						<mediatype>audio</mediatype>
						<trackindex>2</trackindex>
						<clipindex>100</clipindex>
					</link>
				</clipitem>
				<clipitem id="C0008 9">
					<name>C0008</name>
					<duration>1377</duration>
					<rate>
						<ntsc>FALSE</ntsc>
						<timebase>25</timebase>
					</rate>
					<in>762</in>
					<out>853</out>
					<start>20121</start>
					<end>20212</end>
					<subframeoffset>0</subframeoffset>
					<masterclipid>C0008 6</masterclipid>
					<logginginfo>
						<scene/>
						<shottake/>
						<lognote/>
						<good>FALSE</good>
					</logginginfo>
					<labels>
						<label2/>
					</labels>
					<comments>
						<mastercomment1/>
						<mastercomment2/>
						<mastercomment3/>
						<mastercomment4/>
					</comments>
					<file id="C0008 7"/>
					<filter>
						<effect>
							<name>Audio Levels</name>
							<effectid>audiolevels</effectid>
							<effectcategory>audiolevels</effectcategory>
							<effecttype>audiolevels</effecttype>
							<mediatype>audio</mediatype>
							<parameter>
								<name>Level</name>
								<parameterid>level</parameterid>
								<valuemin>0</valuemin>
								<valuemax>3.98109</valuemax>
								<value>1</value>
							</parameter>
						</effect>
					</filter>
					<filter>
						<effect>
							<name>Audio Pan</name>
							<effectid>audiopan</effectid>
							<effectcategory>audiopan</effectcategory>
							<effecttype>audiopan</effecttype>
							<mediatype>audio</mediatype>
							<parameter>
								<name>Pan</name>
								<parameterid>pan</parameterid>
								<valuemin>-1</valuemin>
								<valuemax>1</valuemax>
								<value>0</value>
							</parameter>
						</effect>
					</filter>
					<sourcetrack>
						<mediatype>audio</mediatype>
						<trackindex>2</trackindex>
					</sourcetrack>
					<link>
						<linkclipref>C0008 5</linkclipref>
						<mediatype>video</mediatype>
						<trackindex>1</trackindex>
						<clipindex>143</clipindex>
					</link>
					<link>
						<linkclipref>C0008 8</linkclipref>
						<mediatype>audio</mediatype>
						<trackindex>1</trackindex>
						<clipindex>179</clipindex>
					</link>
					<link>
						<linkclipref>C0008 9</linkclipref>
						<mediatype>audio</mediatype>
						<trackindex>2</trackindex>
						<clipindex>101</clipindex>
					</link>
				</clipitem>
				<clipitem id="C0023 4">
					<name>C0023</name>
					<duration>1465</duration>
					<rate>
						<ntsc>FALSE</ntsc>
						<timebase>25</timebase>
					</rate>
					<in>825</in>
					<out>946</out>
					<start>20212</start>
					<end>20333</end>
					<subframeoffset>0</subframeoffset>
					<masterclipid>C0023 1</masterclipid>
					<logginginfo>
						<scene/>
						<shottake/>
						<lognote/>
						<good>FALSE</good>
					</logginginfo>
					<labels>
						<label2/>
					</labels>
					<comments>
						<mastercomment1/>
						<mastercomment2/>
						<mastercomment3/>
						<mastercomment4/>
					</comments>
					<file id="C0023 2"/>
					<filter>
						<effect>
							<name>Audio Levels</name>
							<effectid>audiolevels</effectid>
							<effectcategory>audiolevels</effectcategory>
							<effecttype>audiolevels</effecttype>
							<mediatype>audio</mediatype>
							<parameter>
								<name>Level</name>
								<parameterid>level</parameterid>
								<valuemin>0</valuemin>
								<valuemax>3.98109</valuemax>
								<value>1</value>
							</parameter>
						</effect>
					</filter>
					<filter>
						<effect>
							<name>Audio Pan</name>
							<effectid>audiopan</effectid>
							<effectcategory>audiopan</effectcategory>
							<effecttype>audiopan</effecttype>
							<mediatype>audio</mediatype>
							<parameter>
								<name>Pan</name>
								<parameterid>pan</parameterid>
								<valuemin>-1</valuemin>
								<valuemax>1</valuemax>
								<value>0</value>
							</parameter>
						</effect>
					</filter>
					<sourcetrack>
						<mediatype>audio</mediatype>
						<trackindex>2</trackindex>
					</sourcetrack>
					<link>
						<linkclipref>C0023 </linkclipref>
						<mediatype>video</mediatype>
						<trackindex>1</trackindex>
						<clipindex>144</clipindex>
					</link>
					<link>
						<linkclipref>C0023 3</linkclipref>
						<mediatype>audio</mediatype>
						<trackindex>1</trackindex>
						<clipindex>180</clipindex>
					</link>
					<link>
						<linkclipref>C0023 4</linkclipref>
						<mediatype>audio</mediatype>
						<trackindex>2</trackindex>
						<clipindex>102</clipindex>
					</link>
				</clipitem>
				<clipitem id="C0016 10">
					<name>C0016</name>
					<duration>1537</duration>
					<rate>
						<ntsc>FALSE</ntsc>
						<timebase>25</timebase>
					</rate>
					<in>1108</in>
					<out>1347</out>
					<start>20333</start>
					<end>-1</end>
					<subframeoffset>0</subframeoffset>
					<masterclipid>C0016 3</masterclipid>
					<logginginfo>
						<scene/>
						<shottake/>
						<lognote/>
						<good>FALSE</good>
					</logginginfo>
					<labels>
						<label2/>
					</labels>
					<comments>
						<mastercomment1/>
						<mastercomment2/>
						<mastercomment3/>
						<mastercomment4/>
					</comments>
					<file id="C0016 4"/>
					<filter>
						<effect>
							<name>Audio Levels</name>
							<effectid>audiolevels</effectid>
							<effectcategory>audiolevels</effectcategory>
							<effecttype>audiolevels</effecttype>
							<mediatype>audio</mediatype>
							<parameter>
								<name>Level</name>
								<parameterid>level</parameterid>
								<valuemin>0</valuemin>
								<valuemax>3.98109</valuemax>
								<value>1</value>
							</parameter>
						</effect>
					</filter>
					<filter>
						<effect>
							<name>Audio Pan</name>
							<effectid>audiopan</effectid>
							<effectcategory>audiopan</effectcategory>
							<effecttype>audiopan</effecttype>
							<mediatype>audio</mediatype>
							<parameter>
								<name>Pan</name>
								<parameterid>pan</parameterid>
								<valuemin>-1</valuemin>
								<valuemax>1</valuemax>
								<value>0</value>
							</parameter>
						</effect>
					</filter>
					<sourcetrack>
						<mediatype>audio</mediatype>
						<trackindex>2</trackindex>
					</sourcetrack>
					<link>
						<linkclipref>C0016 8</linkclipref>
						<mediatype>video</mediatype>
						<trackindex>1</trackindex>
						<clipindex>145</clipindex>
					</link>
					<link>
						<linkclipref>C0016 9</linkclipref>
						<mediatype>audio</mediatype>
						<trackindex>1</trackindex>
						<clipindex>181</clipindex>
					</link>
					<link>
						<linkclipref>C0016 10</linkclipref>
						<mediatype>audio</mediatype>
						<trackindex>2</trackindex>
						<clipindex>103</clipindex>
					</link>
				</clipitem>
				<transitionitem id="1252968616 ">
					<rate>
						<ntsc>FALSE</ntsc>
						<timebase>25</timebase>
					</rate>
					<start>20568</start>
					<end>20572</end>
					<alignment>center</alignment>
					<effect>
						<name>Cross Fade (+3dB)</name>
						<effecttype>transition</effecttype>
						<mediatype>audio</mediatype>
					</effect>
				</transitionitem>
				<clipitem id="C0008 10">
					<name>C0008</name>
					<duration>1377</duration>
					<rate>
						<ntsc>FALSE</ntsc>
						<timebase>25</timebase>
					</rate>
					<in>1002</in>
					<out>1017</out>
					<start>-1</start>
					<end>-1</end>
					<subframeoffset>0</subframeoffset>
					<masterclipid>C0008 6</masterclipid>
					<logginginfo>
						<scene/>
						<shottake/>
						<lognote/>
						<good>FALSE</good>
					</logginginfo>
					<labels>
						<label2/>
					</labels>
					<comments>
						<mastercomment1/>
						<mastercomment2/>
						<mastercomment3/>
						<mastercomment4/>
					</comments>
					<file id="C0008 7"/>
					<filter>
						<effect>
							<name>Audio Levels</name>
							<effectid>audiolevels</effectid>
							<effectcategory>audiolevels</effectcategory>
							<effecttype>audiolevels</effecttype>
							<mediatype>audio</mediatype>
							<parameter>
								<name>Level</name>
								<parameterid>level</parameterid>
								<valuemin>0</valuemin>
								<valuemax>3.98109</valuemax>
								<value>1</value>
							</parameter>
						</effect>
					</filter>
					<filter>
						<effect>
							<name>Audio Pan</name>
							<effectid>audiopan</effectid>
							<effectcategory>audiopan</effectcategory>
							<effecttype>audiopan</effecttype>
							<mediatype>audio</mediatype>
							<parameter>
								<name>Pan</name>
								<parameterid>pan</parameterid>
								<valuemin>-1</valuemin>
								<valuemax>1</valuemax>
								<value>0</value>
							</parameter>
						</effect>
					</filter>
					<sourcetrack>
						<mediatype>audio</mediatype>
						<trackindex>2</trackindex>
					</sourcetrack>
				</clipitem>
				<transitionitem id="1252964196 ">
					<rate>
						<ntsc>FALSE</ntsc>
						<timebase>25</timebase>
					</rate>
					<start>20579</start>
					<end>20583</end>
					<alignment>center</alignment>
					<effect>
						<name>Cross Fade (+3dB)</name>
						<effecttype>transition</effecttype>
						<mediatype>audio</mediatype>
					</effect>
				</transitionitem>
				<clipitem id="C0016 19">
					<name>C0016</name>
					<duration>1537</duration>
					<rate>
						<ntsc>FALSE</ntsc>
						<timebase>25</timebase>
					</rate>
					<in>1446</in>
					<out>1459</out>
					<start>-1</start>
					<end>-1</end>
					<subframeoffset>0</subframeoffset>
					<masterclipid>C0016 3</masterclipid>
					<logginginfo>
						<scene/>
						<shottake/>
						<lognote/>
						<good>FALSE</good>
					</logginginfo>
					<labels>
						<label2/>
					</labels>
					<comments>
						<mastercomment1/>
						<mastercomment2/>
						<mastercomment3/>
						<mastercomment4/>
					</comments>
					<file id="C0016 4"/>
					<filter>
						<effect>
							<name>Audio Levels</name>
							<effectid>audiolevels</effectid>
							<effectcategory>audiolevels</effectcategory>
							<effecttype>audiolevels</effecttype>
							<mediatype>audio</mediatype>
							<parameter>
								<name>Level</name>
								<parameterid>level</parameterid>
								<valuemin>0</valuemin>
								<valuemax>3.98109</valuemax>
								<value>1</value>
							</parameter>
						</effect>
					</filter>
					<filter>
						<effect>
							<name>Audio Pan</name>
							<effectid>audiopan</effectid>
							<effectcategory>audiopan</effectcategory>
							<effecttype>audiopan</effecttype>
							<mediatype>audio</mediatype>
							<parameter>
								<name>Pan</name>
								<parameterid>pan</parameterid>
								<valuemin>-1</valuemin>
								<valuemax>1</valuemax>
								<value>0</value>
							</parameter>
						</effect>
					</filter>
					<sourcetrack>
						<mediatype>audio</mediatype>
						<trackindex>2</trackindex>
					</sourcetrack>
				</clipitem>
				<transitionitem id="1252964808 ">
					<rate>
						<ntsc>FALSE</ntsc>
						<timebase>25</timebase>
					</rate>
					<start>20588</start>
					<end>20592</end>
					<alignment>center</alignment>
					<effect>
						<name>Cross Fade (+3dB)</name>
						<effecttype>transition</effecttype>
						<mediatype>audio</mediatype>
					</effect>
				</transitionitem>
				<clipitem id="C0016 20">
					<name>C0016</name>
					<duration>1537</duration>
					<rate>
						<ntsc>FALSE</ntsc>
						<timebase>25</timebase>
					</rate>
					<in>1363</in>
					<out>1387</out>
					<start>-1</start>
					<end>20612</end>
					<subframeoffset>0</subframeoffset>
					<masterclipid>C0016 3</masterclipid>
					<logginginfo>
						<scene/>
						<shottake/>
						<lognote/>
						<good>FALSE</good>
					</logginginfo>
					<labels>
						<label2/>
					</labels>
					<comments>
						<mastercomment1/>
						<mastercomment2/>
						<mastercomment3/>
						<mastercomment4/>
					</comments>
					<file id="C0016 4"/>
					<filter>
						<effect>
							<name>Audio Levels</name>
							<effectid>audiolevels</effectid>
							<effectcategory>audiolevels</effectcategory>
							<effecttype>audiolevels</effecttype>
							<mediatype>audio</mediatype>
							<parameter>
								<name>Level</name>
								<parameterid>level</parameterid>
								<valuemin>0</valuemin>
								<valuemax>3.98109</valuemax>
								<value>1</value>
							</parameter>
						</effect>
					</filter>
					<filter>
						<effect>
							<name>Audio Pan</name>
							<effectid>audiopan</effectid>
							<effectcategory>audiopan</effectcategory>
							<effecttype>audiopan</effecttype>
							<mediatype>audio</mediatype>
							<parameter>
								<name>Pan</name>
								<parameterid>pan</parameterid>
								<valuemin>-1</valuemin>
								<valuemax>1</valuemax>
								<value>0</value>
							</parameter>
						</effect>
					</filter>
					<sourcetrack>
						<mediatype>audio</mediatype>
						<trackindex>2</trackindex>
					</sourcetrack>
				</clipitem>
				<clipitem id="C0023 7">
					<name>C0023</name>
					<duration>1465</duration>
					<rate>
						<ntsc>FALSE</ntsc>
						<timebase>25</timebase>
					</rate>
					<in>1304</in>
					<out>1344</out>
					<start>20612</start>
					<end>20652</end>
					<subframeoffset>0</subframeoffset>
					<masterclipid>C0023 1</masterclipid>
					<logginginfo>
						<scene/>
						<shottake/>
						<lognote/>
						<good>FALSE</good>
					</logginginfo>
					<labels>
						<label2/>
					</labels>
					<comments>
						<mastercomment1/>
						<mastercomment2/>
						<mastercomment3/>
						<mastercomment4/>
					</comments>
					<file id="C0023 2"/>
					<filter>
						<effect>
							<name>Audio Levels</name>
							<effectid>audiolevels</effectid>
							<effectcategory>audiolevels</effectcategory>
							<effecttype>audiolevels</effecttype>
							<mediatype>audio</mediatype>
							<parameter>
								<name>Level</name>
								<parameterid>level</parameterid>
								<valuemin>0</valuemin>
								<valuemax>3.98109</valuemax>
								<value>1</value>
							</parameter>
						</effect>
					</filter>
					<filter>
						<effect>
							<name>Audio Pan</name>
							<effectid>audiopan</effectid>
							<effectcategory>audiopan</effectcategory>
							<effecttype>audiopan</effecttype>
							<mediatype>audio</mediatype>
							<parameter>
								<name>Pan</name>
								<parameterid>pan</parameterid>
								<valuemin>-1</valuemin>
								<valuemax>1</valuemax>
								<value>0</value>
							</parameter>
						</effect>
					</filter>
					<sourcetrack>
						<mediatype>audio</mediatype>
						<trackindex>2</trackindex>
					</sourcetrack>
					<link>
						<linkclipref>C0023 5</linkclipref>
						<mediatype>video</mediatype>
						<trackindex>1</trackindex>
						<clipindex>147</clipindex>
					</link>
					<link>
						<linkclipref>C0023 6</linkclipref>
						<mediatype>audio</mediatype>
						<trackindex>1</trackindex>
						<clipindex>182</clipindex>
					</link>
					<link>
						<linkclipref>C0023 7</linkclipref>
						<mediatype>audio</mediatype>
						<trackindex>2</trackindex>
						<clipindex>110</clipindex>
					</link>
				</clipitem>
				<clipitem id="C0066 6">
					<name>C0066</name>
					<duration>584</duration>
					<rate>
						<ntsc>FALSE</ntsc>
						<timebase>25</timebase>
					</rate>
					<in>133</in>
					<out>446</out>
					<start>20652</start>
					<end>20965</end>
					<subframeoffset>0</subframeoffset>
					<masterclipid>C0066 1</masterclipid>
					<logginginfo>
						<scene/>
						<shottake/>
						<lognote/>
						<good>FALSE</good>
					</logginginfo>
					<labels>
						<label2/>
					</labels>
					<comments>
						<mastercomment1/>
						<mastercomment2/>
						<mastercomment3/>
						<mastercomment4/>
					</comments>
					<file id="C0066 2"/>
					<filter>
						<effect>
							<name>Audio Levels</name>
							<effectid>audiolevels</effectid>
							<effectcategory>audiolevels</effectcategory>
							<effecttype>audiolevels</effecttype>
							<mediatype>audio</mediatype>
							<parameter>
								<name>Level</name>
								<parameterid>level</parameterid>
								<valuemin>0</valuemin>
								<valuemax>3.98109</valuemax>
								<value>0</value>
							</parameter>
						</effect>
					</filter>
					<filter>
						<effect>
							<name>Audio Pan</name>
							<effectid>audiopan</effectid>
							<effectcategory>audiopan</effectcategory>
							<effecttype>audiopan</effecttype>
							<mediatype>audio</mediatype>
							<parameter>
								<name>Pan</name>
								<parameterid>pan</parameterid>
								<valuemin>-1</valuemin>
								<valuemax>1</valuemax>
								<value>0</value>
							</parameter>
						</effect>
					</filter>
					<sourcetrack>
						<mediatype>audio</mediatype>
						<trackindex>4</trackindex>
					</sourcetrack>
				</clipitem>
				<clipitem id="C0081 ">
					<name>C0081</name>
					<duration>791</duration>
					<rate>
						<ntsc>FALSE</ntsc>
						<timebase>25</timebase>
					</rate>
					<in>92</in>
					<out>140</out>
					<start>20965</start>
					<end>21013</end>
					<subframeoffset>0</subframeoffset>
					<masterclipid>C0081 1</masterclipid>
					<logginginfo>
						<scene/>
						<shottake/>
						<lognote/>
						<good>FALSE</good>
					</logginginfo>
					<labels>
						<label2/>
					</labels>
					<comments>
						<mastercomment1/>
						<mastercomment2/>
						<mastercomment3/>
						<mastercomment4/>
					</comments>
					<file id="C0081 2">
						<name>C0081.mov</name>
						<pathurl>file://localhost/Volumes/Askepott/Prosjekter/DNPR637010_Kra%CC%8Akeklubben_TEM_011212/Video/Mellomstikk/S03E%20D%C3%B8den/DAG%202/C0081.mov</pathurl>
						<rate>
							<timebase>25</timebase>
						</rate>
						<duration>791</duration>
						<timecode>
							<rate>
								<timebase>25</timebase>
							</rate>
							<string>06:20:16:04</string>
							<frame>570404</frame>
							<displayformat>NDF</displayformat>
							<source>source</source>
							<reel>
								<name>XDCAM 20120509_100358</name>
							</reel>
						</timecode>
						<media>
							<video>
								<duration>791</duration>
								<samplecharacteristics>
									<width>1920</width>
									<height>1080</height>
								</samplecharacteristics>
							</video>
							<audio>
								<rate>
									<timebase>48000</timebase>
								</rate>
								<trackcount>1</trackcount>
								<channeldescription>8 Channels</channeldescription>
								<samplecharacteristics>
									<depth>24</depth>
								</samplecharacteristics>
							</audio>
						</media>
					</file>
					<filter>
						<effect>
							<name>Audio Levels</name>
							<effectid>audiolevels</effectid>
							<effectcategory>audiolevels</effectcategory>
							<effecttype>audiolevels</effecttype>
							<mediatype>audio</mediatype>
							<parameter>
								<name>Level</name>
								<parameterid>level</parameterid>
								<valuemin>0</valuemin>
								<valuemax>3.98109</valuemax>
								<value>0</value>
							</parameter>
						</effect>
					</filter>
					<filter>
						<effect>
							<name>Audio Pan</name>
							<effectid>audiopan</effectid>
							<effectcategory>audiopan</effectcategory>
							<effecttype>audiopan</effecttype>
							<mediatype>audio</mediatype>
							<parameter>
								<name>Pan</name>
								<parameterid>pan</parameterid>
								<valuemin>-1</valuemin>
								<valuemax>1</valuemax>
								<value>0</value>
							</parameter>
						</effect>
					</filter>
					<sourcetrack>
						<mediatype>audio</mediatype>
						<trackindex>3</trackindex>
					</sourcetrack>
				</clipitem>
				<clipitem id="C0079 3">
					<name>C0079</name>
					<duration>438</duration>
					<rate>
						<ntsc>FALSE</ntsc>
						<timebase>25</timebase>
					</rate>
					<in>186</in>
					<out>301</out>
					<start>21271</start>
					<end>21386</end>
					<subframeoffset>0</subframeoffset>
					<masterclipid>C0079 1</masterclipid>
					<logginginfo>
						<scene/>
						<shottake/>
						<lognote/>
						<good>FALSE</good>
					</logginginfo>
					<labels>
						<label2/>
					</labels>
					<comments>
						<mastercomment1/>
						<mastercomment2/>
						<mastercomment3/>
						<mastercomment4/>
					</comments>
					<file id="C0079 2"/>
					<filter>
						<effect>
							<name>Audio Levels</name>
							<effectid>audiolevels</effectid>
							<effectcategory>audiolevels</effectcategory>
							<effecttype>audiolevels</effecttype>
							<mediatype>audio</mediatype>
							<parameter>
								<name>Level</name>
								<parameterid>level</parameterid>
								<valuemin>0</valuemin>
								<valuemax>3.98109</valuemax>
								<value>0</value>
							</parameter>
						</effect>
					</filter>
					<filter>
						<effect>
							<name>Audio Pan</name>
							<effectid>audiopan</effectid>
							<effectcategory>audiopan</effectcategory>
							<effecttype>audiopan</effecttype>
							<mediatype>audio</mediatype>
							<parameter>
								<name>Pan</name>
								<parameterid>pan</parameterid>
								<valuemin>-1</valuemin>
								<valuemax>1</valuemax>
								<value>0</value>
							</parameter>
						</effect>
					</filter>
					<sourcetrack>
						<mediatype>audio</mediatype>
						<trackindex>3</trackindex>
					</sourcetrack>
					<link>
						<linkclipref>C0079 </linkclipref>
						<mediatype>video</mediatype>
						<trackindex>1</trackindex>
						<clipindex>152</clipindex>
					</link>
					<link>
						<linkclipref>C0079 3</linkclipref>
						<mediatype>audio</mediatype>
						<trackindex>2</trackindex>
						<clipindex>113</clipindex>
					</link>
				</clipitem>
				<clipitem id="C0030 19">
					<name>C0030</name>
					<duration>3316</duration>
					<rate>
						<ntsc>FALSE</ntsc>
						<timebase>25</timebase>
					</rate>
					<in>234</in>
					<out>383</out>
					<start>21741</start>
					<end>21890</end>
					<subframeoffset>0</subframeoffset>
					<masterclipid>C0030 6</masterclipid>
					<logginginfo>
						<scene/>
						<shottake/>
						<lognote/>
						<good>FALSE</good>
					</logginginfo>
					<labels>
						<label2/>
					</labels>
					<comments>
						<mastercomment1/>
						<mastercomment2/>
						<mastercomment3/>
						<mastercomment4/>
					</comments>
					<file id="C0030 7"/>
					<filter>
						<effect>
							<name>Audio Levels</name>
							<effectid>audiolevels</effectid>
							<effectcategory>audiolevels</effectcategory>
							<effecttype>audiolevels</effecttype>
							<mediatype>audio</mediatype>
							<parameter>
								<name>Level</name>
								<parameterid>level</parameterid>
								<valuemin>0</valuemin>
								<valuemax>3.98109</valuemax>
								<value>1.41254</value>
							</parameter>
						</effect>
					</filter>
					<filter>
						<effect>
							<name>Audio Pan</name>
							<effectid>audiopan</effectid>
							<effectcategory>audiopan</effectcategory>
							<effecttype>audiopan</effecttype>
							<mediatype>audio</mediatype>
							<parameter>
								<name>Pan</name>
								<parameterid>pan</parameterid>
								<valuemin>-1</valuemin>
								<valuemax>1</valuemax>
								<value>0</value>
							</parameter>
						</effect>
					</filter>
					<sourcetrack>
						<mediatype>audio</mediatype>
						<trackindex>2</trackindex>
					</sourcetrack>
				</clipitem>
				<clipitem id="C0038 6">
					<name>C0038</name>
					<duration>1051</duration>
					<rate>
						<ntsc>FALSE</ntsc>
						<timebase>25</timebase>
					</rate>
					<in>736</in>
					<out>819</out>
					<start>21890</start>
					<end>21973</end>
					<subframeoffset>0</subframeoffset>
					<masterclipid>C0038 3</masterclipid>
					<logginginfo>
						<scene/>
						<shottake/>
						<lognote/>
						<good>FALSE</good>
					</logginginfo>
					<labels>
						<label2/>
					</labels>
					<comments>
						<mastercomment1/>
						<mastercomment2/>
						<mastercomment3/>
						<mastercomment4/>
					</comments>
					<file id="C0038 4"/>
					<filter>
						<effect>
							<name>Audio Levels</name>
							<effectid>audiolevels</effectid>
							<effectcategory>audiolevels</effectcategory>
							<effecttype>audiolevels</effecttype>
							<mediatype>audio</mediatype>
							<parameter>
								<name>Level</name>
								<parameterid>level</parameterid>
								<valuemin>0</valuemin>
								<valuemax>3.98109</valuemax>
								<value>1</value>
							</parameter>
						</effect>
					</filter>
					<filter>
						<effect>
							<name>Audio Pan</name>
							<effectid>audiopan</effectid>
							<effectcategory>audiopan</effectcategory>
							<effecttype>audiopan</effecttype>
							<mediatype>audio</mediatype>
							<parameter>
								<name>Pan</name>
								<parameterid>pan</parameterid>
								<valuemin>-1</valuemin>
								<valuemax>1</valuemax>
								<value>0</value>
							</parameter>
						</effect>
					</filter>
					<sourcetrack>
						<mediatype>audio</mediatype>
						<trackindex>2</trackindex>
					</sourcetrack>
					<link>
						<linkclipref>C0038 2</linkclipref>
						<mediatype>video</mediatype>
						<trackindex>1</trackindex>
						<clipindex>156</clipindex>
					</link>
					<link>
						<linkclipref>C0038 5</linkclipref>
						<mediatype>audio</mediatype>
						<trackindex>1</trackindex>
						<clipindex>194</clipindex>
					</link>
					<link>
						<linkclipref>C0038 6</linkclipref>
						<mediatype>audio</mediatype>
						<trackindex>2</trackindex>
						<clipindex>115</clipindex>
					</link>
				</clipitem>
				<clipitem id="C0038 15">
					<name>C0038</name>
					<duration>1051</duration>
					<rate>
						<ntsc>FALSE</ntsc>
						<timebase>25</timebase>
					</rate>
					<in>823</in>
					<out>837</out>
					<start>21973</start>
					<end>21987</end>
					<subframeoffset>0</subframeoffset>
					<masterclipid>C0038 3</masterclipid>
					<logginginfo>
						<scene/>
						<shottake/>
						<lognote/>
						<good>FALSE</good>
					</logginginfo>
					<labels>
						<label2/>
					</labels>
					<comments>
						<mastercomment1/>
						<mastercomment2/>
						<mastercomment3/>
						<mastercomment4/>
					</comments>
					<file id="C0038 4"/>
					<filter>
						<effect>
							<name>Audio Levels</name>
							<effectid>audiolevels</effectid>
							<effectcategory>audiolevels</effectcategory>
							<effecttype>audiolevels</effecttype>
							<mediatype>audio</mediatype>
							<parameter>
								<name>Level</name>
								<parameterid>level</parameterid>
								<valuemin>0</valuemin>
								<valuemax>3.98109</valuemax>
								<value>1</value>
							</parameter>
						</effect>
					</filter>
					<filter>
						<effect>
							<name>Audio Pan</name>
							<effectid>audiopan</effectid>
							<effectcategory>audiopan</effectcategory>
							<effecttype>audiopan</effecttype>
							<mediatype>audio</mediatype>
							<parameter>
								<name>Pan</name>
								<parameterid>pan</parameterid>
								<valuemin>-1</valuemin>
								<valuemax>1</valuemax>
								<value>0</value>
							</parameter>
						</effect>
					</filter>
					<sourcetrack>
						<mediatype>audio</mediatype>
						<trackindex>2</trackindex>
					</sourcetrack>
				</clipitem>
				<clipitem id="C0030 20">
					<name>C0030</name>
					<duration>3316</duration>
					<rate>
						<ntsc>FALSE</ntsc>
						<timebase>25</timebase>
					</rate>
					<in>565</in>
					<out>716</out>
					<start>21987</start>
					<end>22138</end>
					<subframeoffset>0</subframeoffset>
					<masterclipid>C0030 6</masterclipid>
					<logginginfo>
						<scene/>
						<shottake/>
						<lognote/>
						<good>FALSE</good>
					</logginginfo>
					<labels>
						<label2/>
					</labels>
					<comments>
						<mastercomment1/>
						<mastercomment2/>
						<mastercomment3/>
						<mastercomment4/>
					</comments>
					<file id="C0030 7"/>
					<filter>
						<effect>
							<name>Audio Levels</name>
							<effectid>audiolevels</effectid>
							<effectcategory>audiolevels</effectcategory>
							<effecttype>audiolevels</effecttype>
							<mediatype>audio</mediatype>
							<parameter>
								<name>Level</name>
								<parameterid>level</parameterid>
								<valuemin>0</valuemin>
								<valuemax>3.98109</valuemax>
								<keyframe>
									<when>737.286</when>
									<value>1</value>
								</keyframe>
								<keyframe>
									<when>750.429</when>
									<value>0</value>
								</keyframe>
								<interpolation>
									<name>FCPCurve</name>
								</interpolation>
								<value>1</value>
							</parameter>
						</effect>
					</filter>
					<filter>
						<effect>
							<name>Audio Pan</name>
							<effectid>audiopan</effectid>
							<effectcategory>audiopan</effectcategory>
							<effecttype>audiopan</effecttype>
							<mediatype>audio</mediatype>
							<parameter>
								<name>Pan</name>
								<parameterid>pan</parameterid>
								<valuemin>-1</valuemin>
								<valuemax>1</valuemax>
								<value>0</value>
							</parameter>
						</effect>
					</filter>
					<sourcetrack>
						<mediatype>audio</mediatype>
						<trackindex>2</trackindex>
					</sourcetrack>
				</clipitem>
				<clipitem id="C0031 6">
					<name>C0031</name>
					<duration>2614</duration>
					<rate>
						<ntsc>FALSE</ntsc>
						<timebase>25</timebase>
					</rate>
					<in>470</in>
					<out>519</out>
					<start>22138</start>
					<end>22187</end>
					<subframeoffset>0</subframeoffset>
					<masterclipid>C0031 1</masterclipid>
					<logginginfo>
						<scene/>
						<shottake/>
						<lognote/>
						<good>FALSE</good>
					</logginginfo>
					<labels>
						<label2/>
					</labels>
					<comments>
						<mastercomment1/>
						<mastercomment2/>
						<mastercomment3/>
						<mastercomment4/>
					</comments>
					<file id="C0031 2"/>
					<filter>
						<effect>
							<name>Audio Levels</name>
							<effectid>audiolevels</effectid>
							<effectcategory>audiolevels</effectcategory>
							<effecttype>audiolevels</effecttype>
							<mediatype>audio</mediatype>
							<parameter>
								<name>Level</name>
								<parameterid>level</parameterid>
								<valuemin>0</valuemin>
								<valuemax>3.98109</valuemax>
								<value>1</value>
							</parameter>
						</effect>
					</filter>
					<filter>
						<effect>
							<name>Audio Pan</name>
							<effectid>audiopan</effectid>
							<effectcategory>audiopan</effectcategory>
							<effecttype>audiopan</effecttype>
							<mediatype>audio</mediatype>
							<parameter>
								<name>Pan</name>
								<parameterid>pan</parameterid>
								<valuemin>-1</valuemin>
								<valuemax>1</valuemax>
								<value>0</value>
							</parameter>
						</effect>
					</filter>
					<sourcetrack>
						<mediatype>audio</mediatype>
						<trackindex>2</trackindex>
					</sourcetrack>
					<link>
						<linkclipref>C0031 5</linkclipref>
						<mediatype>audio</mediatype>
						<trackindex>1</trackindex>
						<clipindex>197</clipindex>
					</link>
					<link>
						<linkclipref>C0031 6</linkclipref>
						<mediatype>audio</mediatype>
						<trackindex>2</trackindex>
						<clipindex>118</clipindex>
					</link>
				</clipitem>
				<clipitem id="C0031 4">
					<name>C0031</name>
					<duration>2614</duration>
					<rate>
						<ntsc>FALSE</ntsc>
						<timebase>25</timebase>
					</rate>
					<in>534</in>
					<out>767</out>
					<start>22187</start>
					<end>22420</end>
					<subframeoffset>0</subframeoffset>
					<masterclipid>C0031 1</masterclipid>
					<logginginfo>
						<scene/>
						<shottake/>
						<lognote/>
						<good>FALSE</good>
					</logginginfo>
					<labels>
						<label2/>
					</labels>
					<comments>
						<mastercomment1/>
						<mastercomment2/>
						<mastercomment3/>
						<mastercomment4/>
					</comments>
					<file id="C0031 2"/>
					<filter>
						<effect>
							<name>Audio Levels</name>
							<effectid>audiolevels</effectid>
							<effectcategory>audiolevels</effectcategory>
							<effecttype>audiolevels</effecttype>
							<mediatype>audio</mediatype>
							<parameter>
								<name>Level</name>
								<parameterid>level</parameterid>
								<valuemin>0</valuemin>
								<valuemax>3.98109</valuemax>
								<value>1</value>
							</parameter>
						</effect>
					</filter>
					<filter>
						<effect>
							<name>Audio Pan</name>
							<effectid>audiopan</effectid>
							<effectcategory>audiopan</effectcategory>
							<effecttype>audiopan</effecttype>
							<mediatype>audio</mediatype>
							<parameter>
								<name>Pan</name>
								<parameterid>pan</parameterid>
								<valuemin>-1</valuemin>
								<valuemax>1</valuemax>
								<value>0</value>
							</parameter>
						</effect>
					</filter>
					<sourcetrack>
						<mediatype>audio</mediatype>
						<trackindex>2</trackindex>
					</sourcetrack>
					<link>
						<linkclipref>C0031 </linkclipref>
						<mediatype>video</mediatype>
						<trackindex>1</trackindex>
						<clipindex>159</clipindex>
					</link>
					<link>
						<linkclipref>C0031 3</linkclipref>
						<mediatype>audio</mediatype>
						<trackindex>1</trackindex>
						<clipindex>198</clipindex>
					</link>
					<link>
						<linkclipref>C0031 4</linkclipref>
						<mediatype>audio</mediatype>
						<trackindex>2</trackindex>
						<clipindex>119</clipindex>
					</link>
				</clipitem>
				<clipitem id="C0039 17">
					<name>C0039</name>
					<duration>4436</duration>
					<rate>
						<ntsc>FALSE</ntsc>
						<timebase>25</timebase>
					</rate>
					<in>846</in>
					<out>901</out>
					<start>22420</start>
					<end>22475</end>
					<subframeoffset>0</subframeoffset>
					<masterclipid>C0039 7</masterclipid>
					<logginginfo>
						<scene/>
						<shottake/>
						<lognote/>
						<good>FALSE</good>
					</logginginfo>
					<labels>
						<label2/>
					</labels>
					<comments>
						<mastercomment1/>
						<mastercomment2/>
						<mastercomment3/>
						<mastercomment4/>
					</comments>
					<file id="C0039 8"/>
					<filter>
						<effect>
							<name>Audio Levels</name>
							<effectid>audiolevels</effectid>
							<effectcategory>audiolevels</effectcategory>
							<effecttype>audiolevels</effecttype>
							<mediatype>audio</mediatype>
							<parameter>
								<name>Level</name>
								<parameterid>level</parameterid>
								<valuemin>0</valuemin>
								<valuemax>3.98109</valuemax>
								<value>1</value>
							</parameter>
						</effect>
					</filter>
					<filter>
						<effect>
							<name>Audio Pan</name>
							<effectid>audiopan</effectid>
							<effectcategory>audiopan</effectcategory>
							<effecttype>audiopan</effecttype>
							<mediatype>audio</mediatype>
							<parameter>
								<name>Pan</name>
								<parameterid>pan</parameterid>
								<valuemin>-1</valuemin>
								<valuemax>1</valuemax>
								<value>0</value>
							</parameter>
						</effect>
					</filter>
					<sourcetrack>
						<mediatype>audio</mediatype>
						<trackindex>2</trackindex>
					</sourcetrack>
					<link>
						<linkclipref>C0039 16</linkclipref>
						<mediatype>audio</mediatype>
						<trackindex>1</trackindex>
						<clipindex>199</clipindex>
					</link>
					<link>
						<linkclipref>C0039 17</linkclipref>
						<mediatype>audio</mediatype>
						<trackindex>2</trackindex>
						<clipindex>120</clipindex>
					</link>
				</clipitem>
				<clipitem id="C0030 12">
					<name>C0030</name>
					<duration>3316</duration>
					<rate>
						<ntsc>FALSE</ntsc>
						<timebase>25</timebase>
					</rate>
					<in>1844</in>
					<out>2129</out>
					<start>22475</start>
					<end>22760</end>
					<subframeoffset>0</subframeoffset>
					<masterclipid>C0030 6</masterclipid>
					<logginginfo>
						<scene/>
						<shottake/>
						<lognote/>
						<good>FALSE</good>
					</logginginfo>
					<labels>
						<label2/>
					</labels>
					<comments>
						<mastercomment1/>
						<mastercomment2/>
						<mastercomment3/>
						<mastercomment4/>
					</comments>
					<file id="C0030 7"/>
					<filter>
						<effect>
							<name>Audio Levels</name>
							<effectid>audiolevels</effectid>
							<effectcategory>audiolevels</effectcategory>
							<effecttype>audiolevels</effecttype>
							<mediatype>audio</mediatype>
							<parameter>
								<name>Level</name>
								<parameterid>level</parameterid>
								<valuemin>0</valuemin>
								<valuemax>3.98109</valuemax>
								<value>1</value>
							</parameter>
						</effect>
					</filter>
					<filter>
						<effect>
							<name>Audio Pan</name>
							<effectid>audiopan</effectid>
							<effectcategory>audiopan</effectcategory>
							<effecttype>audiopan</effecttype>
							<mediatype>audio</mediatype>
							<parameter>
								<name>Pan</name>
								<parameterid>pan</parameterid>
								<valuemin>-1</valuemin>
								<valuemax>1</valuemax>
								<value>0</value>
							</parameter>
						</effect>
					</filter>
					<sourcetrack>
						<mediatype>audio</mediatype>
						<trackindex>2</trackindex>
					</sourcetrack>
					<link>
						<linkclipref>C0030 10</linkclipref>
						<mediatype>video</mediatype>
						<trackindex>1</trackindex>
						<clipindex>162</clipindex>
					</link>
					<link>
						<linkclipref>C0030 11</linkclipref>
						<mediatype>audio</mediatype>
						<trackindex>1</trackindex>
						<clipindex>200</clipindex>
					</link>
					<link>
						<linkclipref>C0030 12</linkclipref>
						<mediatype>audio</mediatype>
						<trackindex>2</trackindex>
						<clipindex>121</clipindex>
					</link>
				</clipitem>
				<clipitem id="C0039 20">
					<name>C0039</name>
					<duration>4436</duration>
					<rate>
						<ntsc>FALSE</ntsc>
						<timebase>25</timebase>
					</rate>
					<in>2718</in>
					<out>2762</out>
					<start>22760</start>
					<end>22804</end>
					<subframeoffset>0</subframeoffset>
					<masterclipid>C0039 7</masterclipid>
					<logginginfo>
						<scene/>
						<shottake/>
						<lognote/>
						<good>FALSE</good>
					</logginginfo>
					<labels>
						<label2/>
					</labels>
					<comments>
						<mastercomment1/>
						<mastercomment2/>
						<mastercomment3/>
						<mastercomment4/>
					</comments>
					<file id="C0039 8"/>
					<filter>
						<effect>
							<name>Audio Levels</name>
							<effectid>audiolevels</effectid>
							<effectcategory>audiolevels</effectcategory>
							<effecttype>audiolevels</effecttype>
							<mediatype>audio</mediatype>
							<parameter>
								<name>Level</name>
								<parameterid>level</parameterid>
								<valuemin>0</valuemin>
								<valuemax>3.98109</valuemax>
								<value>1</value>
							</parameter>
						</effect>
					</filter>
					<filter>
						<effect>
							<name>Audio Pan</name>
							<effectid>audiopan</effectid>
							<effectcategory>audiopan</effectcategory>
							<effecttype>audiopan</effecttype>
							<mediatype>audio</mediatype>
							<parameter>
								<name>Pan</name>
								<parameterid>pan</parameterid>
								<valuemin>-1</valuemin>
								<valuemax>1</valuemax>
								<value>0</value>
							</parameter>
						</effect>
					</filter>
					<sourcetrack>
						<mediatype>audio</mediatype>
						<trackindex>2</trackindex>
					</sourcetrack>
				</clipitem>
				<clipitem id="C0030 18">
					<name>C0030</name>
					<duration>3316</duration>
					<rate>
						<ntsc>FALSE</ntsc>
						<timebase>25</timebase>
					</rate>
					<in>2236</in>
					<out>2434</out>
					<start>22804</start>
					<end>23002</end>
					<subframeoffset>0</subframeoffset>
					<masterclipid>C0030 6</masterclipid>
					<logginginfo>
						<scene/>
						<shottake/>
						<lognote/>
						<good>FALSE</good>
					</logginginfo>
					<labels>
						<label2/>
					</labels>
					<comments>
						<mastercomment1/>
						<mastercomment2/>
						<mastercomment3/>
						<mastercomment4/>
					</comments>
					<file id="C0030 7"/>
					<filter>
						<effect>
							<name>Audio Levels</name>
							<effectid>audiolevels</effectid>
							<effectcategory>audiolevels</effectcategory>
							<effecttype>audiolevels</effecttype>
							<mediatype>audio</mediatype>
							<parameter>
								<name>Level</name>
								<parameterid>level</parameterid>
								<valuemin>0</valuemin>
								<valuemax>3.98109</valuemax>
								<value>1</value>
							</parameter>
						</effect>
					</filter>
					<filter>
						<effect>
							<name>Audio Pan</name>
							<effectid>audiopan</effectid>
							<effectcategory>audiopan</effectcategory>
							<effecttype>audiopan</effecttype>
							<mediatype>audio</mediatype>
							<parameter>
								<name>Pan</name>
								<parameterid>pan</parameterid>
								<valuemin>-1</valuemin>
								<valuemax>1</valuemax>
								<value>0</value>
							</parameter>
						</effect>
					</filter>
					<sourcetrack>
						<mediatype>audio</mediatype>
						<trackindex>2</trackindex>
					</sourcetrack>
					<link>
						<linkclipref>C0030 17</linkclipref>
						<mediatype>audio</mediatype>
						<trackindex>1</trackindex>
						<clipindex>202</clipindex>
					</link>
					<link>
						<linkclipref>C0030 18</linkclipref>
						<mediatype>audio</mediatype>
						<trackindex>2</trackindex>
						<clipindex>123</clipindex>
					</link>
				</clipitem>
				<clipitem id="C0040 4">
					<name>C0040</name>
					<duration>1190</duration>
					<rate>
						<ntsc>FALSE</ntsc>
						<timebase>25</timebase>
					</rate>
					<in>229</in>
					<out>372</out>
					<start>23002</start>
					<end>23145</end>
					<subframeoffset>0</subframeoffset>
					<masterclipid>C0040 1</masterclipid>
					<logginginfo>
						<scene/>
						<shottake/>
						<lognote/>
						<good>FALSE</good>
					</logginginfo>
					<labels>
						<label2/>
					</labels>
					<comments>
						<mastercomment1/>
						<mastercomment2/>
						<mastercomment3/>
						<mastercomment4/>
					</comments>
					<file id="C0040 2"/>
					<filter>
						<effect>
							<name>Audio Levels</name>
							<effectid>audiolevels</effectid>
							<effectcategory>audiolevels</effectcategory>
							<effecttype>audiolevels</effecttype>
							<mediatype>audio</mediatype>
							<parameter>
								<name>Level</name>
								<parameterid>level</parameterid>
								<valuemin>0</valuemin>
								<valuemax>3.98109</valuemax>
								<value>1</value>
							</parameter>
						</effect>
					</filter>
					<filter>
						<effect>
							<name>Audio Pan</name>
							<effectid>audiopan</effectid>
							<effectcategory>audiopan</effectcategory>
							<effecttype>audiopan</effecttype>
							<mediatype>audio</mediatype>
							<parameter>
								<name>Pan</name>
								<parameterid>pan</parameterid>
								<valuemin>-1</valuemin>
								<valuemax>1</valuemax>
								<value>0</value>
							</parameter>
						</effect>
					</filter>
					<sourcetrack>
						<mediatype>audio</mediatype>
						<trackindex>2</trackindex>
					</sourcetrack>
					<link>
						<linkclipref>C0040 </linkclipref>
						<mediatype>video</mediatype>
						<trackindex>1</trackindex>
						<clipindex>166</clipindex>
					</link>
					<link>
						<linkclipref>C0040 3</linkclipref>
						<mediatype>audio</mediatype>
						<trackindex>1</trackindex>
						<clipindex>203</clipindex>
					</link>
					<link>
						<linkclipref>C0040 4</linkclipref>
						<mediatype>audio</mediatype>
						<trackindex>2</trackindex>
						<clipindex>124</clipindex>
					</link>
				</clipitem>
				<clipitem id="C0027 11">
					<name>C0027</name>
					<duration>1902</duration>
					<rate>
						<ntsc>FALSE</ntsc>
						<timebase>25</timebase>
					</rate>
					<in>1265</in>
					<out>1387</out>
					<start>23145</start>
					<end>23267</end>
					<subframeoffset>0</subframeoffset>
					<masterclipid>C0027 8</masterclipid>
					<logginginfo>
						<scene/>
						<shottake/>
						<lognote/>
						<good>FALSE</good>
					</logginginfo>
					<labels>
						<label2/>
					</labels>
					<comments>
						<mastercomment1/>
						<mastercomment2/>
						<mastercomment3/>
						<mastercomment4/>
					</comments>
					<file id="C0027 9"/>
					<filter>
						<effect>
							<name>Audio Levels</name>
							<effectid>audiolevels</effectid>
							<effectcategory>audiolevels</effectcategory>
							<effecttype>audiolevels</effecttype>
							<mediatype>audio</mediatype>
							<parameter>
								<name>Level</name>
								<parameterid>level</parameterid>
								<valuemin>0</valuemin>
								<valuemax>3.98109</valuemax>
								<value>1</value>
							</parameter>
						</effect>
					</filter>
					<filter>
						<effect>
							<name>Audio Pan</name>
							<effectid>audiopan</effectid>
							<effectcategory>audiopan</effectcategory>
							<effecttype>audiopan</effecttype>
							<mediatype>audio</mediatype>
							<parameter>
								<name>Pan</name>
								<parameterid>pan</parameterid>
								<valuemin>-1</valuemin>
								<valuemax>1</valuemax>
								<value>0</value>
							</parameter>
						</effect>
					</filter>
					<sourcetrack>
						<mediatype>audio</mediatype>
						<trackindex>2</trackindex>
					</sourcetrack>
					<link>
						<linkclipref>C0027 7</linkclipref>
						<mediatype>video</mediatype>
						<trackindex>1</trackindex>
						<clipindex>167</clipindex>
					</link>
					<link>
						<linkclipref>C0027 10</linkclipref>
						<mediatype>audio</mediatype>
						<trackindex>1</trackindex>
						<clipindex>204</clipindex>
					</link>
					<link>
						<linkclipref>C0027 11</linkclipref>
						<mediatype>audio</mediatype>
						<trackindex>2</trackindex>
						<clipindex>125</clipindex>
					</link>
				</clipitem>
				<clipitem id="C0027 18">
					<name>C0027</name>
					<duration>1902</duration>
					<rate>
						<ntsc>FALSE</ntsc>
						<timebase>25</timebase>
					</rate>
					<in>1385</in>
					<out>1421</out>
					<start>23267</start>
					<end>23303</end>
					<subframeoffset>0</subframeoffset>
					<masterclipid>C0027 8</masterclipid>
					<logginginfo>
						<scene/>
						<shottake/>
						<lognote/>
						<good>FALSE</good>
					</logginginfo>
					<labels>
						<label2/>
					</labels>
					<comments>
						<mastercomment1/>
						<mastercomment2/>
						<mastercomment3/>
						<mastercomment4/>
					</comments>
					<file id="C0027 9"/>
					<filter>
						<effect>
							<name>Audio Levels</name>
							<effectid>audiolevels</effectid>
							<effectcategory>audiolevels</effectcategory>
							<effecttype>audiolevels</effecttype>
							<mediatype>audio</mediatype>
							<parameter>
								<name>Level</name>
								<parameterid>level</parameterid>
								<valuemin>0</valuemin>
								<valuemax>3.98109</valuemax>
								<value>1</value>
							</parameter>
						</effect>
					</filter>
					<filter>
						<effect>
							<name>Audio Pan</name>
							<effectid>audiopan</effectid>
							<effectcategory>audiopan</effectcategory>
							<effecttype>audiopan</effecttype>
							<mediatype>audio</mediatype>
							<parameter>
								<name>Pan</name>
								<parameterid>pan</parameterid>
								<valuemin>-1</valuemin>
								<valuemax>1</valuemax>
								<value>0</value>
							</parameter>
						</effect>
					</filter>
					<sourcetrack>
						<mediatype>audio</mediatype>
						<trackindex>2</trackindex>
					</sourcetrack>
				</clipitem>
				<clipitem id="C0039 21">
					<name>C0039</name>
					<duration>4436</duration>
					<rate>
						<ntsc>FALSE</ntsc>
						<timebase>25</timebase>
					</rate>
					<in>3318</in>
					<out>3415</out>
					<start>23303</start>
					<end>23400</end>
					<subframeoffset>0</subframeoffset>
					<masterclipid>C0039 7</masterclipid>
					<logginginfo>
						<scene/>
						<shottake/>
						<lognote/>
						<good>FALSE</good>
					</logginginfo>
					<labels>
						<label2/>
					</labels>
					<comments>
						<mastercomment1/>
						<mastercomment2/>
						<mastercomment3/>
						<mastercomment4/>
					</comments>
					<file id="C0039 8"/>
					<filter>
						<effect>
							<name>Audio Levels</name>
							<effectid>audiolevels</effectid>
							<effectcategory>audiolevels</effectcategory>
							<effecttype>audiolevels</effecttype>
							<mediatype>audio</mediatype>
							<parameter>
								<name>Level</name>
								<parameterid>level</parameterid>
								<valuemin>0</valuemin>
								<valuemax>3.98109</valuemax>
								<value>1</value>
							</parameter>
						</effect>
					</filter>
					<filter>
						<effect>
							<name>Audio Pan</name>
							<effectid>audiopan</effectid>
							<effectcategory>audiopan</effectcategory>
							<effecttype>audiopan</effecttype>
							<mediatype>audio</mediatype>
							<parameter>
								<name>Pan</name>
								<parameterid>pan</parameterid>
								<valuemin>-1</valuemin>
								<valuemax>1</valuemax>
								<value>0</value>
							</parameter>
						</effect>
					</filter>
					<sourcetrack>
						<mediatype>audio</mediatype>
						<trackindex>2</trackindex>
					</sourcetrack>
				</clipitem>
				<clipitem id="C0033 3">
					<name>C0033</name>
					<duration>1175</duration>
					<rate>
						<ntsc>FALSE</ntsc>
						<timebase>25</timebase>
					</rate>
					<in>123</in>
					<out>684</out>
					<start>23400</start>
					<end>23961</end>
					<subframeoffset>0</subframeoffset>
					<masterclipid>C0033 1</masterclipid>
					<logginginfo>
						<scene/>
						<shottake/>
						<lognote/>
						<good>FALSE</good>
					</logginginfo>
					<labels>
						<label2/>
					</labels>
					<comments>
						<mastercomment1/>
						<mastercomment2/>
						<mastercomment3/>
						<mastercomment4/>
					</comments>
					<file id="C0033 2"/>
					<filter>
						<effect>
							<name>Audio Levels</name>
							<effectid>audiolevels</effectid>
							<effectcategory>audiolevels</effectcategory>
							<effecttype>audiolevels</effecttype>
							<mediatype>audio</mediatype>
							<parameter>
								<name>Level</name>
								<parameterid>level</parameterid>
								<valuemin>0</valuemin>
								<valuemax>3.98109</valuemax>
								<value>1</value>
							</parameter>
						</effect>
					</filter>
					<filter>
						<effect>
							<name>Audio Pan</name>
							<effectid>audiopan</effectid>
							<effectcategory>audiopan</effectcategory>
							<effecttype>audiopan</effecttype>
							<mediatype>audio</mediatype>
							<parameter>
								<name>Pan</name>
								<parameterid>pan</parameterid>
								<valuemin>-1</valuemin>
								<valuemax>1</valuemax>
								<value>0</value>
							</parameter>
						</effect>
					</filter>
					<sourcetrack>
						<mediatype>audio</mediatype>
						<trackindex>2</trackindex>
					</sourcetrack>
					<link>
						<linkclipref>C0033 </linkclipref>
						<mediatype>video</mediatype>
						<trackindex>1</trackindex>
						<clipindex>169</clipindex>
					</link>
					<link>
						<linkclipref>C0033 3</linkclipref>
						<mediatype>audio</mediatype>
						<trackindex>2</trackindex>
						<clipindex>128</clipindex>
					</link>
				</clipitem>
				<clipitem id="C0039 13">
					<name>C0039</name>
					<duration>4436</duration>
					<rate>
						<ntsc>FALSE</ntsc>
						<timebase>25</timebase>
					</rate>
					<in>3984</in>
					<out>4085</out>
					<start>23961</start>
					<end>24062</end>
					<subframeoffset>0</subframeoffset>
					<masterclipid>C0039 7</masterclipid>
					<logginginfo>
						<scene/>
						<shottake/>
						<lognote/>
						<good>FALSE</good>
					</logginginfo>
					<labels>
						<label2/>
					</labels>
					<comments>
						<mastercomment1/>
						<mastercomment2/>
						<mastercomment3/>
						<mastercomment4/>
					</comments>
					<file id="C0039 8"/>
					<filter>
						<effect>
							<name>Audio Levels</name>
							<effectid>audiolevels</effectid>
							<effectcategory>audiolevels</effectcategory>
							<effecttype>audiolevels</effecttype>
							<mediatype>audio</mediatype>
							<parameter>
								<name>Level</name>
								<parameterid>level</parameterid>
								<valuemin>0</valuemin>
								<valuemax>3.98109</valuemax>
								<value>1</value>
							</parameter>
						</effect>
					</filter>
					<filter>
						<effect>
							<name>Audio Pan</name>
							<effectid>audiopan</effectid>
							<effectcategory>audiopan</effectcategory>
							<effecttype>audiopan</effecttype>
							<mediatype>audio</mediatype>
							<parameter>
								<name>Pan</name>
								<parameterid>pan</parameterid>
								<valuemin>-1</valuemin>
								<valuemax>1</valuemax>
								<value>0</value>
							</parameter>
						</effect>
					</filter>
					<sourcetrack>
						<mediatype>audio</mediatype>
						<trackindex>2</trackindex>
					</sourcetrack>
					<link>
						<linkclipref>C0039 11</linkclipref>
						<mediatype>video</mediatype>
						<trackindex>1</trackindex>
						<clipindex>170</clipindex>
					</link>
					<link>
						<linkclipref>C0039 12</linkclipref>
						<mediatype>audio</mediatype>
						<trackindex>1</trackindex>
						<clipindex>208</clipindex>
					</link>
					<link>
						<linkclipref>C0039 13</linkclipref>
						<mediatype>audio</mediatype>
						<trackindex>2</trackindex>
						<clipindex>129</clipindex>
					</link>
				</clipitem>
				<clipitem id="C0033 6">
					<name>C0033</name>
					<duration>1175</duration>
					<rate>
						<ntsc>FALSE</ntsc>
						<timebase>25</timebase>
					</rate>
					<in>798</in>
					<out>1041</out>
					<start>24062</start>
					<end>24305</end>
					<subframeoffset>0</subframeoffset>
					<masterclipid>C0033 1</masterclipid>
					<logginginfo>
						<scene/>
						<shottake/>
						<lognote/>
						<good>FALSE</good>
					</logginginfo>
					<labels>
						<label2/>
					</labels>
					<comments>
						<mastercomment1/>
						<mastercomment2/>
						<mastercomment3/>
						<mastercomment4/>
					</comments>
					<file id="C0033 2"/>
					<filter>
						<effect>
							<name>Audio Levels</name>
							<effectid>audiolevels</effectid>
							<effectcategory>audiolevels</effectcategory>
							<effecttype>audiolevels</effecttype>
							<mediatype>audio</mediatype>
							<parameter>
								<name>Level</name>
								<parameterid>level</parameterid>
								<valuemin>0</valuemin>
								<valuemax>3.98109</valuemax>
								<value>1</value>
							</parameter>
						</effect>
					</filter>
					<filter>
						<effect>
							<name>Audio Pan</name>
							<effectid>audiopan</effectid>
							<effectcategory>audiopan</effectcategory>
							<effecttype>audiopan</effecttype>
							<mediatype>audio</mediatype>
							<parameter>
								<name>Pan</name>
								<parameterid>pan</parameterid>
								<valuemin>-1</valuemin>
								<valuemax>1</valuemax>
								<value>0</value>
							</parameter>
						</effect>
					</filter>
					<sourcetrack>
						<mediatype>audio</mediatype>
						<trackindex>2</trackindex>
					</sourcetrack>
					<link>
						<linkclipref>C0033 4</linkclipref>
						<mediatype>video</mediatype>
						<trackindex>1</trackindex>
						<clipindex>171</clipindex>
					</link>
					<link>
						<linkclipref>C0033 5</linkclipref>
						<mediatype>audio</mediatype>
						<trackindex>1</trackindex>
						<clipindex>209</clipindex>
					</link>
					<link>
						<linkclipref>C0033 6</linkclipref>
						<mediatype>audio</mediatype>
						<trackindex>2</trackindex>
						<clipindex>130</clipindex>
					</link>
				</clipitem>
				<clipitem id="C0048 4">
					<name>C0048</name>
					<duration>1806</duration>
					<rate>
						<ntsc>FALSE</ntsc>
						<timebase>25</timebase>
					</rate>
					<in>274</in>
					<out>417</out>
					<start>27496</start>
					<end>27639</end>
					<subframeoffset>0</subframeoffset>
					<masterclipid>C0048 1</masterclipid>
					<logginginfo>
						<scene/>
						<shottake/>
						<lognote/>
						<good>FALSE</good>
					</logginginfo>
					<labels>
						<label2/>
					</labels>
					<comments>
						<mastercomment1/>
						<mastercomment2/>
						<mastercomment3/>
						<mastercomment4/>
					</comments>
					<file id="C0048 2"/>
					<filter>
						<effect>
							<name>Audio Levels</name>
							<effectid>audiolevels</effectid>
							<effectcategory>audiolevels</effectcategory>
							<effecttype>audiolevels</effecttype>
							<mediatype>audio</mediatype>
							<parameter>
								<name>Level</name>
								<parameterid>level</parameterid>
								<valuemin>0</valuemin>
								<valuemax>3.98109</valuemax>
								<value>1</value>
							</parameter>
						</effect>
					</filter>
					<filter>
						<effect>
							<name>Audio Pan</name>
							<effectid>audiopan</effectid>
							<effectcategory>audiopan</effectcategory>
							<effecttype>audiopan</effecttype>
							<mediatype>audio</mediatype>
							<parameter>
								<name>Pan</name>
								<parameterid>pan</parameterid>
								<valuemin>-1</valuemin>
								<valuemax>1</valuemax>
								<value>0</value>
							</parameter>
						</effect>
					</filter>
					<sourcetrack>
						<mediatype>audio</mediatype>
						<trackindex>2</trackindex>
					</sourcetrack>
					<link>
						<linkclipref>C0048 </linkclipref>
						<mediatype>video</mediatype>
						<trackindex>1</trackindex>
						<clipindex>174</clipindex>
					</link>
					<link>
						<linkclipref>C0048 3</linkclipref>
						<mediatype>audio</mediatype>
						<trackindex>1</trackindex>
						<clipindex>210</clipindex>
					</link>
					<link>
						<linkclipref>C0048 4</linkclipref>
						<mediatype>audio</mediatype>
						<trackindex>2</trackindex>
						<clipindex>131</clipindex>
					</link>
				</clipitem>
				<clipitem id="C0046 4">
					<name>C0046</name>
					<duration>2562</duration>
					<rate>
						<ntsc>FALSE</ntsc>
						<timebase>25</timebase>
					</rate>
					<in>1660</in>
					<out>1754</out>
					<start>27639</start>
					<end>27733</end>
					<subframeoffset>0</subframeoffset>
					<masterclipid>C0046 1</masterclipid>
					<logginginfo>
						<scene/>
						<shottake/>
						<lognote/>
						<good>FALSE</good>
					</logginginfo>
					<labels>
						<label2/>
					</labels>
					<comments>
						<mastercomment1/>
						<mastercomment2/>
						<mastercomment3/>
						<mastercomment4/>
					</comments>
					<file id="C0046 2"/>
					<filter>
						<effect>
							<name>Audio Levels</name>
							<effectid>audiolevels</effectid>
							<effectcategory>audiolevels</effectcategory>
							<effecttype>audiolevels</effecttype>
							<mediatype>audio</mediatype>
							<parameter>
								<name>Level</name>
								<parameterid>level</parameterid>
								<valuemin>0</valuemin>
								<valuemax>3.98109</valuemax>
								<value>1</value>
							</parameter>
						</effect>
					</filter>
					<filter>
						<effect>
							<name>Audio Pan</name>
							<effectid>audiopan</effectid>
							<effectcategory>audiopan</effectcategory>
							<effecttype>audiopan</effecttype>
							<mediatype>audio</mediatype>
							<parameter>
								<name>Pan</name>
								<parameterid>pan</parameterid>
								<valuemin>-1</valuemin>
								<valuemax>1</valuemax>
								<value>0</value>
							</parameter>
						</effect>
					</filter>
					<sourcetrack>
						<mediatype>audio</mediatype>
						<trackindex>2</trackindex>
					</sourcetrack>
					<link>
						<linkclipref>C0046 </linkclipref>
						<mediatype>video</mediatype>
						<trackindex>1</trackindex>
						<clipindex>175</clipindex>
					</link>
					<link>
						<linkclipref>C0046 3</linkclipref>
						<mediatype>audio</mediatype>
						<trackindex>1</trackindex>
						<clipindex>211</clipindex>
					</link>
					<link>
						<linkclipref>C0046 4</linkclipref>
						<mediatype>audio</mediatype>
						<trackindex>2</trackindex>
						<clipindex>132</clipindex>
					</link>
				</clipitem>
				<clipitem id="C0050 17">
					<name>C0050</name>
					<duration>2348</duration>
					<rate>
						<ntsc>FALSE</ntsc>
						<timebase>25</timebase>
					</rate>
					<in>475</in>
					<out>535</out>
					<start>27733</start>
					<end>27793</end>
					<subframeoffset>0</subframeoffset>
					<masterclipid>C0050 14</masterclipid>
					<logginginfo>
						<scene/>
						<shottake/>
						<lognote/>
						<good>FALSE</good>
					</logginginfo>
					<labels>
						<label2/>
					</labels>
					<comments>
						<mastercomment1/>
						<mastercomment2/>
						<mastercomment3/>
						<mastercomment4/>
					</comments>
					<file id="C0050 15"/>
					<filter>
						<effect>
							<name>Audio Levels</name>
							<effectid>audiolevels</effectid>
							<effectcategory>audiolevels</effectcategory>
							<effecttype>audiolevels</effecttype>
							<mediatype>audio</mediatype>
							<parameter>
								<name>Level</name>
								<parameterid>level</parameterid>
								<valuemin>0</valuemin>
								<valuemax>3.98109</valuemax>
								<value>1</value>
							</parameter>
						</effect>
					</filter>
					<filter>
						<effect>
							<name>Audio Pan</name>
							<effectid>audiopan</effectid>
							<effectcategory>audiopan</effectcategory>
							<effecttype>audiopan</effecttype>
							<mediatype>audio</mediatype>
							<parameter>
								<name>Pan</name>
								<parameterid>pan</parameterid>
								<valuemin>-1</valuemin>
								<valuemax>1</valuemax>
								<value>0</value>
							</parameter>
						</effect>
					</filter>
					<sourcetrack>
						<mediatype>audio</mediatype>
						<trackindex>2</trackindex>
					</sourcetrack>
					<link>
						<linkclipref>C0050 13</linkclipref>
						<mediatype>video</mediatype>
						<trackindex>1</trackindex>
						<clipindex>176</clipindex>
					</link>
					<link>
						<linkclipref>C0050 16</linkclipref>
						<mediatype>audio</mediatype>
						<trackindex>1</trackindex>
						<clipindex>212</clipindex>
					</link>
					<link>
						<linkclipref>C0050 17</linkclipref>
						<mediatype>audio</mediatype>
						<trackindex>2</trackindex>
						<clipindex>133</clipindex>
					</link>
				</clipitem>
				<clipitem id="C0046 7">
					<name>C0046</name>
					<duration>2562</duration>
					<rate>
						<ntsc>FALSE</ntsc>
						<timebase>25</timebase>
					</rate>
					<in>1806</in>
					<out>1956</out>
					<start>27793</start>
					<end>27943</end>
					<subframeoffset>0</subframeoffset>
					<masterclipid>C0046 1</masterclipid>
					<logginginfo>
						<scene/>
						<shottake/>
						<lognote/>
						<good>FALSE</good>
					</logginginfo>
					<labels>
						<label2/>
					</labels>
					<comments>
						<mastercomment1/>
						<mastercomment2/>
						<mastercomment3/>
						<mastercomment4/>
					</comments>
					<file id="C0046 2"/>
					<filter>
						<effect>
							<name>Audio Levels</name>
							<effectid>audiolevels</effectid>
							<effectcategory>audiolevels</effectcategory>
							<effecttype>audiolevels</effecttype>
							<mediatype>audio</mediatype>
							<parameter>
								<name>Level</name>
								<parameterid>level</parameterid>
								<valuemin>0</valuemin>
								<valuemax>3.98109</valuemax>
								<value>1</value>
							</parameter>
						</effect>
					</filter>
					<filter>
						<effect>
							<name>Audio Pan</name>
							<effectid>audiopan</effectid>
							<effectcategory>audiopan</effectcategory>
							<effecttype>audiopan</effecttype>
							<mediatype>audio</mediatype>
							<parameter>
								<name>Pan</name>
								<parameterid>pan</parameterid>
								<valuemin>-1</valuemin>
								<valuemax>1</valuemax>
								<value>0</value>
							</parameter>
						</effect>
					</filter>
					<sourcetrack>
						<mediatype>audio</mediatype>
						<trackindex>2</trackindex>
					</sourcetrack>
					<link>
						<linkclipref>C0046 5</linkclipref>
						<mediatype>video</mediatype>
						<trackindex>1</trackindex>
						<clipindex>177</clipindex>
					</link>
					<link>
						<linkclipref>C0046 6</linkclipref>
						<mediatype>audio</mediatype>
						<trackindex>1</trackindex>
						<clipindex>213</clipindex>
					</link>
					<link>
						<linkclipref>C0046 7</linkclipref>
						<mediatype>audio</mediatype>
						<trackindex>2</trackindex>
						<clipindex>134</clipindex>
					</link>
				</clipitem>
				<clipitem id="C0050 20">
					<name>C0050</name>
					<duration>2348</duration>
					<rate>
						<ntsc>FALSE</ntsc>
						<timebase>25</timebase>
					</rate>
					<in>667</in>
					<out>922</out>
					<start>27943</start>
					<end>28198</end>
					<subframeoffset>0</subframeoffset>
					<masterclipid>C0050 14</masterclipid>
					<logginginfo>
						<scene/>
						<shottake/>
						<lognote/>
						<good>FALSE</good>
					</logginginfo>
					<labels>
						<label2/>
					</labels>
					<comments>
						<mastercomment1/>
						<mastercomment2/>
						<mastercomment3/>
						<mastercomment4/>
					</comments>
					<file id="C0050 15"/>
					<filter>
						<effect>
							<name>Audio Levels</name>
							<effectid>audiolevels</effectid>
							<effectcategory>audiolevels</effectcategory>
							<effecttype>audiolevels</effecttype>
							<mediatype>audio</mediatype>
							<parameter>
								<name>Level</name>
								<parameterid>level</parameterid>
								<valuemin>0</valuemin>
								<valuemax>3.98109</valuemax>
								<value>1</value>
							</parameter>
						</effect>
					</filter>
					<filter>
						<effect>
							<name>Audio Pan</name>
							<effectid>audiopan</effectid>
							<effectcategory>audiopan</effectcategory>
							<effecttype>audiopan</effecttype>
							<mediatype>audio</mediatype>
							<parameter>
								<name>Pan</name>
								<parameterid>pan</parameterid>
								<valuemin>-1</valuemin>
								<valuemax>1</valuemax>
								<value>0</value>
							</parameter>
						</effect>
					</filter>
					<sourcetrack>
						<mediatype>audio</mediatype>
						<trackindex>2</trackindex>
					</sourcetrack>
					<link>
						<linkclipref>C0050 18</linkclipref>
						<mediatype>video</mediatype>
						<trackindex>1</trackindex>
						<clipindex>178</clipindex>
					</link>
					<link>
						<linkclipref>C0050 19</linkclipref>
						<mediatype>audio</mediatype>
						<trackindex>1</trackindex>
						<clipindex>214</clipindex>
					</link>
					<link>
						<linkclipref>C0050 20</linkclipref>
						<mediatype>audio</mediatype>
						<trackindex>2</trackindex>
						<clipindex>135</clipindex>
					</link>
				</clipitem>
				<clipitem id="C0048 7">
					<name>C0048</name>
					<duration>1806</duration>
					<rate>
						<ntsc>FALSE</ntsc>
						<timebase>25</timebase>
					</rate>
					<in>951</in>
					<out>1009</out>
					<start>28198</start>
					<end>28256</end>
					<subframeoffset>0</subframeoffset>
					<masterclipid>C0048 1</masterclipid>
					<logginginfo>
						<scene/>
						<shottake/>
						<lognote/>
						<good>FALSE</good>
					</logginginfo>
					<labels>
						<label2/>
					</labels>
					<comments>
						<mastercomment1/>
						<mastercomment2/>
						<mastercomment3/>
						<mastercomment4/>
					</comments>
					<file id="C0048 2"/>
					<filter>
						<effect>
							<name>Audio Levels</name>
							<effectid>audiolevels</effectid>
							<effectcategory>audiolevels</effectcategory>
							<effecttype>audiolevels</effecttype>
							<mediatype>audio</mediatype>
							<parameter>
								<name>Level</name>
								<parameterid>level</parameterid>
								<valuemin>0</valuemin>
								<valuemax>3.98109</valuemax>
								<value>1</value>
							</parameter>
						</effect>
					</filter>
					<filter>
						<effect>
							<name>Audio Pan</name>
							<effectid>audiopan</effectid>
							<effectcategory>audiopan</effectcategory>
							<effecttype>audiopan</effecttype>
							<mediatype>audio</mediatype>
							<parameter>
								<name>Pan</name>
								<parameterid>pan</parameterid>
								<valuemin>-1</valuemin>
								<valuemax>1</valuemax>
								<value>0</value>
							</parameter>
						</effect>
					</filter>
					<sourcetrack>
						<mediatype>audio</mediatype>
						<trackindex>2</trackindex>
					</sourcetrack>
					<link>
						<linkclipref>C0048 5</linkclipref>
						<mediatype>video</mediatype>
						<trackindex>1</trackindex>
						<clipindex>179</clipindex>
					</link>
					<link>
						<linkclipref>C0048 6</linkclipref>
						<mediatype>audio</mediatype>
						<trackindex>1</trackindex>
						<clipindex>215</clipindex>
					</link>
					<link>
						<linkclipref>C0048 7</linkclipref>
						<mediatype>audio</mediatype>
						<trackindex>2</trackindex>
						<clipindex>136</clipindex>
					</link>
				</clipitem>
				<clipitem id="C0047 14">
					<name>C0047</name>
					<duration>2661</duration>
					<rate>
						<ntsc>FALSE</ntsc>
						<timebase>25</timebase>
					</rate>
					<in>1156</in>
					<out>1170</out>
					<start>28256</start>
					<end>28270</end>
					<subframeoffset>0</subframeoffset>
					<masterclipid>C0047 4</masterclipid>
					<logginginfo>
						<scene/>
						<shottake/>
						<lognote/>
						<good>FALSE</good>
					</logginginfo>
					<labels>
						<label2/>
					</labels>
					<comments>
						<mastercomment1/>
						<mastercomment2/>
						<mastercomment3/>
						<mastercomment4/>
					</comments>
					<file id="C0047 5"/>
					<filter>
						<effect>
							<name>Audio Levels</name>
							<effectid>audiolevels</effectid>
							<effectcategory>audiolevels</effectcategory>
							<effecttype>audiolevels</effecttype>
							<mediatype>audio</mediatype>
							<parameter>
								<name>Level</name>
								<parameterid>level</parameterid>
								<valuemin>0</valuemin>
								<valuemax>3.98109</valuemax>
								<value>1</value>
							</parameter>
						</effect>
					</filter>
					<filter>
						<effect>
							<name>Audio Pan</name>
							<effectid>audiopan</effectid>
							<effectcategory>audiopan</effectcategory>
							<effecttype>audiopan</effecttype>
							<mediatype>audio</mediatype>
							<parameter>
								<name>Pan</name>
								<parameterid>pan</parameterid>
								<valuemin>-1</valuemin>
								<valuemax>1</valuemax>
								<value>0</value>
							</parameter>
						</effect>
					</filter>
					<sourcetrack>
						<mediatype>audio</mediatype>
						<trackindex>2</trackindex>
					</sourcetrack>
				</clipitem>
				<clipitem id="C0048 12">
					<name>C0048</name>
					<duration>1806</duration>
					<rate>
						<ntsc>FALSE</ntsc>
						<timebase>25</timebase>
					</rate>
					<in>1023</in>
					<out>1078</out>
					<start>28270</start>
					<end>28325</end>
					<subframeoffset>0</subframeoffset>
					<masterclipid>C0048 1</masterclipid>
					<logginginfo>
						<scene/>
						<shottake/>
						<lognote/>
						<good>FALSE</good>
					</logginginfo>
					<labels>
						<label2/>
					</labels>
					<comments>
						<mastercomment1/>
						<mastercomment2/>
						<mastercomment3/>
						<mastercomment4/>
					</comments>
					<file id="C0048 2"/>
					<filter>
						<effect>
							<name>Audio Levels</name>
							<effectid>audiolevels</effectid>
							<effectcategory>audiolevels</effectcategory>
							<effecttype>audiolevels</effecttype>
							<mediatype>audio</mediatype>
							<parameter>
								<name>Level</name>
								<parameterid>level</parameterid>
								<valuemin>0</valuemin>
								<valuemax>3.98109</valuemax>
								<value>1</value>
							</parameter>
						</effect>
					</filter>
					<filter>
						<effect>
							<name>Audio Pan</name>
							<effectid>audiopan</effectid>
							<effectcategory>audiopan</effectcategory>
							<effecttype>audiopan</effecttype>
							<mediatype>audio</mediatype>
							<parameter>
								<name>Pan</name>
								<parameterid>pan</parameterid>
								<valuemin>-1</valuemin>
								<valuemax>1</valuemax>
								<value>0</value>
							</parameter>
						</effect>
					</filter>
					<sourcetrack>
						<mediatype>audio</mediatype>
						<trackindex>2</trackindex>
					</sourcetrack>
				</clipitem>
				<clipitem id="C0047 12">
					<name>C0047</name>
					<duration>2661</duration>
					<rate>
						<ntsc>FALSE</ntsc>
						<timebase>25</timebase>
					</rate>
					<in>1222</in>
					<out>1351</out>
					<start>28325</start>
					<end>28454</end>
					<subframeoffset>0</subframeoffset>
					<masterclipid>C0047 4</masterclipid>
					<logginginfo>
						<scene/>
						<shottake/>
						<lognote/>
						<good>FALSE</good>
					</logginginfo>
					<labels>
						<label2/>
					</labels>
					<comments>
						<mastercomment1/>
						<mastercomment2/>
						<mastercomment3/>
						<mastercomment4/>
					</comments>
					<file id="C0047 5"/>
					<filter>
						<effect>
							<name>Audio Levels</name>
							<effectid>audiolevels</effectid>
							<effectcategory>audiolevels</effectcategory>
							<effecttype>audiolevels</effecttype>
							<mediatype>audio</mediatype>
							<parameter>
								<name>Level</name>
								<parameterid>level</parameterid>
								<valuemin>0</valuemin>
								<valuemax>3.98109</valuemax>
								<value>1</value>
							</parameter>
						</effect>
					</filter>
					<filter>
						<effect>
							<name>Audio Pan</name>
							<effectid>audiopan</effectid>
							<effectcategory>audiopan</effectcategory>
							<effecttype>audiopan</effecttype>
							<mediatype>audio</mediatype>
							<parameter>
								<name>Pan</name>
								<parameterid>pan</parameterid>
								<valuemin>-1</valuemin>
								<valuemax>1</valuemax>
								<value>0</value>
							</parameter>
						</effect>
					</filter>
					<sourcetrack>
						<mediatype>audio</mediatype>
						<trackindex>2</trackindex>
					</sourcetrack>
					<link>
						<linkclipref>C0047 11</linkclipref>
						<mediatype>audio</mediatype>
						<trackindex>1</trackindex>
						<clipindex>218</clipindex>
					</link>
					<link>
						<linkclipref>C0047 12</linkclipref>
						<mediatype>audio</mediatype>
						<trackindex>2</trackindex>
						<clipindex>139</clipindex>
					</link>
				</clipitem>
				<clipitem id="C0056 4">
					<name>C0056</name>
					<duration>1669</duration>
					<rate>
						<ntsc>FALSE</ntsc>
						<timebase>25</timebase>
					</rate>
					<in>1023</in>
					<out>1190</out>
					<start>28454</start>
					<end>28621</end>
					<subframeoffset>0</subframeoffset>
					<masterclipid>C0056 1</masterclipid>
					<logginginfo>
						<scene/>
						<shottake/>
						<lognote/>
						<good>FALSE</good>
					</logginginfo>
					<labels>
						<label2/>
					</labels>
					<comments>
						<mastercomment1/>
						<mastercomment2/>
						<mastercomment3/>
						<mastercomment4/>
					</comments>
					<file id="C0056 2"/>
					<filter>
						<effect>
							<name>Audio Levels</name>
							<effectid>audiolevels</effectid>
							<effectcategory>audiolevels</effectcategory>
							<effecttype>audiolevels</effecttype>
							<mediatype>audio</mediatype>
							<parameter>
								<name>Level</name>
								<parameterid>level</parameterid>
								<valuemin>0</valuemin>
								<valuemax>3.98109</valuemax>
								<value>1</value>
							</parameter>
						</effect>
					</filter>
					<filter>
						<effect>
							<name>Audio Pan</name>
							<effectid>audiopan</effectid>
							<effectcategory>audiopan</effectcategory>
							<effecttype>audiopan</effecttype>
							<mediatype>audio</mediatype>
							<parameter>
								<name>Pan</name>
								<parameterid>pan</parameterid>
								<valuemin>-1</valuemin>
								<valuemax>1</valuemax>
								<value>0</value>
							</parameter>
						</effect>
					</filter>
					<sourcetrack>
						<mediatype>audio</mediatype>
						<trackindex>2</trackindex>
					</sourcetrack>
					<link>
						<linkclipref>C0056 </linkclipref>
						<mediatype>video</mediatype>
						<trackindex>1</trackindex>
						<clipindex>181</clipindex>
					</link>
					<link>
						<linkclipref>C0056 3</linkclipref>
						<mediatype>audio</mediatype>
						<trackindex>1</trackindex>
						<clipindex>219</clipindex>
					</link>
					<link>
						<linkclipref>C0056 4</linkclipref>
						<mediatype>audio</mediatype>
						<trackindex>2</trackindex>
						<clipindex>140</clipindex>
					</link>
				</clipitem>
				<clipitem id="C0048 10">
					<name>C0048</name>
					<duration>1806</duration>
					<rate>
						<ntsc>FALSE</ntsc>
						<timebase>25</timebase>
					</rate>
					<in>1346</in>
					<out>1445</out>
					<start>28621</start>
					<end>28720</end>
					<subframeoffset>0</subframeoffset>
					<masterclipid>C0048 1</masterclipid>
					<logginginfo>
						<scene/>
						<shottake/>
						<lognote/>
						<good>FALSE</good>
					</logginginfo>
					<labels>
						<label2/>
					</labels>
					<comments>
						<mastercomment1/>
						<mastercomment2/>
						<mastercomment3/>
						<mastercomment4/>
					</comments>
					<file id="C0048 2"/>
					<filter>
						<effect>
							<name>Audio Levels</name>
							<effectid>audiolevels</effectid>
							<effectcategory>audiolevels</effectcategory>
							<effecttype>audiolevels</effecttype>
							<mediatype>audio</mediatype>
							<parameter>
								<name>Level</name>
								<parameterid>level</parameterid>
								<valuemin>0</valuemin>
								<valuemax>3.98109</valuemax>
								<value>1</value>
							</parameter>
						</effect>
					</filter>
					<filter>
						<effect>
							<name>Audio Pan</name>
							<effectid>audiopan</effectid>
							<effectcategory>audiopan</effectcategory>
							<effecttype>audiopan</effecttype>
							<mediatype>audio</mediatype>
							<parameter>
								<name>Pan</name>
								<parameterid>pan</parameterid>
								<valuemin>-1</valuemin>
								<valuemax>1</valuemax>
								<value>0</value>
							</parameter>
						</effect>
					</filter>
					<sourcetrack>
						<mediatype>audio</mediatype>
						<trackindex>2</trackindex>
					</sourcetrack>
					<link>
						<linkclipref>C0048 8</linkclipref>
						<mediatype>video</mediatype>
						<trackindex>1</trackindex>
						<clipindex>182</clipindex>
					</link>
					<link>
						<linkclipref>C0048 9</linkclipref>
						<mediatype>audio</mediatype>
						<trackindex>1</trackindex>
						<clipindex>220</clipindex>
					</link>
					<link>
						<linkclipref>C0048 10</linkclipref>
						<mediatype>audio</mediatype>
						<trackindex>2</trackindex>
						<clipindex>141</clipindex>
					</link>
				</clipitem>
				<clipitem id="C0056 6">
					<name>C0056</name>
					<duration>1669</duration>
					<rate>
						<ntsc>FALSE</ntsc>
						<timebase>25</timebase>
					</rate>
					<in>1309</in>
					<out>1344</out>
					<start>28720</start>
					<end>28755</end>
					<subframeoffset>0</subframeoffset>
					<masterclipid>C0056 1</masterclipid>
					<logginginfo>
						<scene/>
						<shottake/>
						<lognote/>
						<good>FALSE</good>
					</logginginfo>
					<labels>
						<label2/>
					</labels>
					<comments>
						<mastercomment1/>
						<mastercomment2/>
						<mastercomment3/>
						<mastercomment4/>
					</comments>
					<file id="C0056 2"/>
					<filter>
						<effect>
							<name>Audio Levels</name>
							<effectid>audiolevels</effectid>
							<effectcategory>audiolevels</effectcategory>
							<effecttype>audiolevels</effecttype>
							<mediatype>audio</mediatype>
							<parameter>
								<name>Level</name>
								<parameterid>level</parameterid>
								<valuemin>0</valuemin>
								<valuemax>3.98109</valuemax>
								<value>1</value>
							</parameter>
						</effect>
					</filter>
					<filter>
						<effect>
							<name>Audio Pan</name>
							<effectid>audiopan</effectid>
							<effectcategory>audiopan</effectcategory>
							<effecttype>audiopan</effecttype>
							<mediatype>audio</mediatype>
							<parameter>
								<name>Pan</name>
								<parameterid>pan</parameterid>
								<valuemin>-1</valuemin>
								<valuemax>1</valuemax>
								<value>0</value>
							</parameter>
						</effect>
					</filter>
					<sourcetrack>
						<mediatype>audio</mediatype>
						<trackindex>2</trackindex>
					</sourcetrack>
				</clipitem>
				<clipitem id="C0047 8">
					<name>C0047</name>
					<duration>2661</duration>
					<rate>
						<ntsc>FALSE</ntsc>
						<timebase>25</timebase>
					</rate>
					<in>1629</in>
					<out>2167</out>
					<start>28755</start>
					<end>29293</end>
					<subframeoffset>0</subframeoffset>
					<masterclipid>C0047 4</masterclipid>
					<logginginfo>
						<scene/>
						<shottake/>
						<lognote/>
						<good>FALSE</good>
					</logginginfo>
					<labels>
						<label2/>
					</labels>
					<comments>
						<mastercomment1/>
						<mastercomment2/>
						<mastercomment3/>
						<mastercomment4/>
					</comments>
					<file id="C0047 5"/>
					<filter>
						<effect>
							<name>Audio Levels</name>
							<effectid>audiolevels</effectid>
							<effectcategory>audiolevels</effectcategory>
							<effecttype>audiolevels</effecttype>
							<mediatype>audio</mediatype>
							<parameter>
								<name>Level</name>
								<parameterid>level</parameterid>
								<valuemin>0</valuemin>
								<valuemax>3.98109</valuemax>
								<keyframe>
									<when>1769.29</when>
									<value>1</value>
								</keyframe>
								<keyframe>
									<when>1794.43</when>
									<value>0.630957</value>
								</keyframe>
								<keyframe>
									<when>1813.14</when>
									<value>0.630957</value>
								</keyframe>
								<keyframe>
									<when>1857.86</when>
									<value>1</value>
								</keyframe>
								<keyframe>
									<when>2022.29</when>
									<value>1</value>
								</keyframe>
								<keyframe>
									<when>2040.57</when>
									<value>0.707946</value>
								</keyframe>
								<keyframe>
									<when>2066</when>
									<value>0.707946</value>
								</keyframe>
								<keyframe>
									<when>2085.43</when>
									<value>0.354813</value>
								</keyframe>
								<interpolation>
									<name>FCPCurve</name>
								</interpolation>
								<value>1</value>
							</parameter>
						</effect>
					</filter>
					<filter>
						<effect>
							<name>Audio Pan</name>
							<effectid>audiopan</effectid>
							<effectcategory>audiopan</effectcategory>
							<effecttype>audiopan</effecttype>
							<mediatype>audio</mediatype>
							<parameter>
								<name>Pan</name>
								<parameterid>pan</parameterid>
								<valuemin>-1</valuemin>
								<valuemax>1</valuemax>
								<value>0</value>
							</parameter>
						</effect>
					</filter>
					<sourcetrack>
						<mediatype>audio</mediatype>
						<trackindex>2</trackindex>
					</sourcetrack>
					<link>
						<linkclipref>C0047 6</linkclipref>
						<mediatype>video</mediatype>
						<trackindex>1</trackindex>
						<clipindex>183</clipindex>
					</link>
					<link>
						<linkclipref>C0047 7</linkclipref>
						<mediatype>audio</mediatype>
						<trackindex>1</trackindex>
						<clipindex>222</clipindex>
					</link>
					<link>
						<linkclipref>C0047 8</linkclipref>
						<mediatype>audio</mediatype>
						<trackindex>2</trackindex>
						<clipindex>143</clipindex>
					</link>
				</clipitem>
				<clipitem id="C0047 15">
					<name>C0047</name>
					<duration>2661</duration>
					<rate>
						<ntsc>FALSE</ntsc>
						<timebase>25</timebase>
					</rate>
					<in>2182</in>
					<out>2264</out>
					<start>29293</start>
					<end>-1</end>
					<subframeoffset>0</subframeoffset>
					<masterclipid>C0047 4</masterclipid>
					<logginginfo>
						<scene/>
						<shottake/>
						<lognote/>
						<good>FALSE</good>
					</logginginfo>
					<labels>
						<label2/>
					</labels>
					<comments>
						<mastercomment1/>
						<mastercomment2/>
						<mastercomment3/>
						<mastercomment4/>
					</comments>
					<file id="C0047 5"/>
					<filter>
						<effect>
							<name>Audio Levels</name>
							<effectid>audiolevels</effectid>
							<effectcategory>audiolevels</effectcategory>
							<effecttype>audiolevels</effecttype>
							<mediatype>audio</mediatype>
							<parameter>
								<name>Level</name>
								<parameterid>level</parameterid>
								<valuemin>0</valuemin>
								<valuemax>3.98109</valuemax>
								<value>0.199526</value>
							</parameter>
						</effect>
					</filter>
					<filter>
						<effect>
							<name>Audio Pan</name>
							<effectid>audiopan</effectid>
							<effectcategory>audiopan</effectcategory>
							<effecttype>audiopan</effecttype>
							<mediatype>audio</mediatype>
							<parameter>
								<name>Pan</name>
								<parameterid>pan</parameterid>
								<valuemin>-1</valuemin>
								<valuemax>1</valuemax>
								<value>0</value>
							</parameter>
						</effect>
					</filter>
					<sourcetrack>
						<mediatype>audio</mediatype>
						<trackindex>2</trackindex>
					</sourcetrack>
				</clipitem>
				<transitionitem id="1252950596 ">
					<rate>
						<ntsc>FALSE</ntsc>
						<timebase>25</timebase>
					</rate>
					<start>29363</start>
					<end>29375</end>
					<alignment>end-black</alignment>
					<effect>
						<name>Cross Fade (+3dB)</name>
						<effecttype>transition</effecttype>
						<mediatype>audio</mediatype>
					</effect>
				</transitionitem>
				<enabled>TRUE</enabled>
				<locked>FALSE</locked>
				<outputchannelindex>2</outputchannelindex>
			</track>
			<track>
				<clipitem id="Kråketeaser sesong 10 ep 1-10.WAV">
					<name>Kråketeaser sesong 10 ep 1-10.WAV</name>
					<duration>10691</duration>
					<rate>
						<ntsc>FALSE</ntsc>
						<timebase>25</timebase>
					</rate>
					<in>7750</in>
					<out>7786</out>
					<start>419</start>
					<end>455</end>
					<subframeoffset>0</subframeoffset>
					<masterclipid>Kråketeaser sesong 10 ep 1-10.WAV1</masterclipid>
					<logginginfo>
						<scene/>
						<shottake/>
						<lognote/>
						<good>FALSE</good>
					</logginginfo>
					<labels>
						<label2/>
					</labels>
					<comments>
						<mastercomment1/>
						<mastercomment2/>
						<mastercomment3/>
						<mastercomment4/>
					</comments>
					<file id="Kråketeaser sesong 10 ep 1-10 ">
						<name>Kråketeaser sesong 10 ep 1-10.WAV</name>
						<pathurl>file://localhost/Volumes/Askepott/Prosjekter/DNPR637010_Kra%CC%8Akeklubben_TEM_011212/Lyd/Mari%20Teaser%20ses%203,%20pgm%201-10/Kra%CC%8Aketeaser%20sesong%2010%20ep%201-10.WAV</pathurl>
						<rate>
							<timebase>25</timebase>
						</rate>
						<duration>10691</duration>
						<media>
							<audio>
								<rate>
									<timebase>48000</timebase>
								</rate>
								<trackcount>2</trackcount>
								<samplecharacteristics>
									<depth>16</depth>
								</samplecharacteristics>
							</audio>
						</media>
					</file>
					<filter>
						<effect>
							<name>Audio Levels</name>
							<effectid>audiolevels</effectid>
							<effectcategory>audiolevels</effectcategory>
							<effecttype>audiolevels</effecttype>
							<mediatype>audio</mediatype>
							<parameter>
								<name>Level</name>
								<parameterid>level</parameterid>
								<valuemin>0</valuemin>
								<valuemax>3.98109</valuemax>
								<value>1</value>
							</parameter>
						</effect>
					</filter>
					<filter>
						<effect>
							<name>Audio Pan</name>
							<effectid>audiopan</effectid>
							<effectcategory>audiopan</effectcategory>
							<effecttype>audiopan</effecttype>
							<mediatype>audio</mediatype>
							<parameter>
								<name>Pan</name>
								<parameterid>pan</parameterid>
								<valuemin>-1</valuemin>
								<valuemax>1</valuemax>
								<value>-1</value>
							</parameter>
						</effect>
					</filter>
					<sourcetrack>
						<mediatype>audio</mediatype>
						<trackindex>1</trackindex>
					</sourcetrack>
					<link>
						<linkclipref>Kråketeaser sesong 10 ep 1-10.WAV</linkclipref>
						<mediatype>audio</mediatype>
						<trackindex>3</trackindex>
						<clipindex>1</clipindex>
						<groupindex>1</groupindex>
					</link>
					<link>
						<linkclipref>Kråketeaser sesong 10 ep 1-10.WAV2</linkclipref>
						<mediatype>audio</mediatype>
						<trackindex>4</trackindex>
						<clipindex>1</clipindex>
						<groupindex>1</groupindex>
					</link>
				</clipitem>
				<clipitem id="Kråketeaser sesong 10 ep 1-10.WAV3">
					<name>Kråketeaser sesong 10 ep 1-10.WAV</name>
					<duration>10691</duration>
					<rate>
						<ntsc>FALSE</ntsc>
						<timebase>25</timebase>
					</rate>
					<in>7790</in>
					<out>7846</out>
					<start>455</start>
					<end>511</end>
					<subframeoffset>0</subframeoffset>
					<masterclipid>Kråketeaser sesong 10 ep 1-10.WAV1</masterclipid>
					<logginginfo>
						<scene/>
						<shottake/>
						<lognote/>
						<good>FALSE</good>
					</logginginfo>
					<labels>
						<label2/>
					</labels>
					<comments>
						<mastercomment1/>
						<mastercomment2/>
						<mastercomment3/>
						<mastercomment4/>
					</comments>
					<file id="Kråketeaser sesong 10 ep 1-10 "/>
					<filter>
						<effect>
							<name>Audio Levels</name>
							<effectid>audiolevels</effectid>
							<effectcategory>audiolevels</effectcategory>
							<effecttype>audiolevels</effecttype>
							<mediatype>audio</mediatype>
							<parameter>
								<name>Level</name>
								<parameterid>level</parameterid>
								<valuemin>0</valuemin>
								<valuemax>3.98109</valuemax>
								<value>1</value>
							</parameter>
						</effect>
					</filter>
					<filter>
						<effect>
							<name>Audio Pan</name>
							<effectid>audiopan</effectid>
							<effectcategory>audiopan</effectcategory>
							<effecttype>audiopan</effecttype>
							<mediatype>audio</mediatype>
							<parameter>
								<name>Pan</name>
								<parameterid>pan</parameterid>
								<valuemin>-1</valuemin>
								<valuemax>1</valuemax>
								<value>-1</value>
							</parameter>
						</effect>
					</filter>
					<sourcetrack>
						<mediatype>audio</mediatype>
						<trackindex>1</trackindex>
					</sourcetrack>
					<link>
						<linkclipref>Kråketeaser sesong 10 ep 1-10.WAV3</linkclipref>
						<mediatype>audio</mediatype>
						<trackindex>3</trackindex>
						<clipindex>2</clipindex>
						<groupindex>1</groupindex>
					</link>
					<link>
						<linkclipref>Kråketeaser sesong 10 ep 1-10.WAV4</linkclipref>
						<mediatype>audio</mediatype>
						<trackindex>4</trackindex>
						<clipindex>2</clipindex>
						<groupindex>1</groupindex>
					</link>
				</clipitem>
				<clipitem id="Kråketeaser sesong 10 ep 1-10.WAV5">
					<name>Kråketeaser sesong 10 ep 1-10.WAV</name>
					<duration>10691</duration>
					<rate>
						<ntsc>FALSE</ntsc>
						<timebase>25</timebase>
					</rate>
					<in>7848</in>
					<out>7871</out>
					<start>511</start>
					<end>534</end>
					<subframeoffset>0</subframeoffset>
					<masterclipid>Kråketeaser sesong 10 ep 1-10.WAV1</masterclipid>
					<logginginfo>
						<scene/>
						<shottake/>
						<lognote/>
						<good>FALSE</good>
					</logginginfo>
					<labels>
						<label2/>
					</labels>
					<comments>
						<mastercomment1/>
						<mastercomment2/>
						<mastercomment3/>
						<mastercomment4/>
					</comments>
					<file id="Kråketeaser sesong 10 ep 1-10 "/>
					<filter>
						<effect>
							<name>Audio Levels</name>
							<effectid>audiolevels</effectid>
							<effectcategory>audiolevels</effectcategory>
							<effecttype>audiolevels</effecttype>
							<mediatype>audio</mediatype>
							<parameter>
								<name>Level</name>
								<parameterid>level</parameterid>
								<valuemin>0</valuemin>
								<valuemax>3.98109</valuemax>
								<value>1</value>
							</parameter>
						</effect>
					</filter>
					<filter>
						<effect>
							<name>Audio Pan</name>
							<effectid>audiopan</effectid>
							<effectcategory>audiopan</effectcategory>
							<effecttype>audiopan</effecttype>
							<mediatype>audio</mediatype>
							<parameter>
								<name>Pan</name>
								<parameterid>pan</parameterid>
								<valuemin>-1</valuemin>
								<valuemax>1</valuemax>
								<value>-1</value>
							</parameter>
						</effect>
					</filter>
					<sourcetrack>
						<mediatype>audio</mediatype>
						<trackindex>1</trackindex>
					</sourcetrack>
					<link>
						<linkclipref>Kråketeaser sesong 10 ep 1-10.WAV5</linkclipref>
						<mediatype>audio</mediatype>
						<trackindex>3</trackindex>
						<clipindex>3</clipindex>
						<groupindex>1</groupindex>
					</link>
					<link>
						<linkclipref>Kråketeaser sesong 10 ep 1-10.WAV6</linkclipref>
						<mediatype>audio</mediatype>
						<trackindex>4</trackindex>
						<clipindex>3</clipindex>
						<groupindex>1</groupindex>
					</link>
				</clipitem>
				<clipitem id="Kråketeaser sesong 10 ep 1-10.WAV7">
					<name>Kråketeaser sesong 10 ep 1-10.WAV</name>
					<duration>10691</duration>
					<rate>
						<ntsc>FALSE</ntsc>
						<timebase>25</timebase>
					</rate>
					<in>7877</in>
					<out>7966</out>
					<start>534</start>
					<end>623</end>
					<subframeoffset>0</subframeoffset>
					<masterclipid>Kråketeaser sesong 10 ep 1-10.WAV1</masterclipid>
					<logginginfo>
						<scene/>
						<shottake/>
						<lognote/>
						<good>FALSE</good>
					</logginginfo>
					<labels>
						<label2/>
					</labels>
					<comments>
						<mastercomment1/>
						<mastercomment2/>
						<mastercomment3/>
						<mastercomment4/>
					</comments>
					<file id="Kråketeaser sesong 10 ep 1-10 "/>
					<filter>
						<effect>
							<name>Audio Levels</name>
							<effectid>audiolevels</effectid>
							<effectcategory>audiolevels</effectcategory>
							<effecttype>audiolevels</effecttype>
							<mediatype>audio</mediatype>
							<parameter>
								<name>Level</name>
								<parameterid>level</parameterid>
								<valuemin>0</valuemin>
								<valuemax>3.98109</valuemax>
								<value>1</value>
							</parameter>
						</effect>
					</filter>
					<filter>
						<effect>
							<name>Audio Pan</name>
							<effectid>audiopan</effectid>
							<effectcategory>audiopan</effectcategory>
							<effecttype>audiopan</effecttype>
							<mediatype>audio</mediatype>
							<parameter>
								<name>Pan</name>
								<parameterid>pan</parameterid>
								<valuemin>-1</valuemin>
								<valuemax>1</valuemax>
								<value>-1</value>
							</parameter>
						</effect>
					</filter>
					<sourcetrack>
						<mediatype>audio</mediatype>
						<trackindex>1</trackindex>
					</sourcetrack>
					<link>
						<linkclipref>Kråketeaser sesong 10 ep 1-10.WAV7</linkclipref>
						<mediatype>audio</mediatype>
						<trackindex>3</trackindex>
						<clipindex>4</clipindex>
						<groupindex>1</groupindex>
					</link>
					<link>
						<linkclipref>Kråketeaser sesong 10 ep 1-10.WAV8</linkclipref>
						<mediatype>audio</mediatype>
						<trackindex>4</trackindex>
						<clipindex>4</clipindex>
						<groupindex>1</groupindex>
					</link>
				</clipitem>
				<clipitem id="Kråketeaser sesong 10 ep 1-10.WAV9">
					<name>Kråketeaser sesong 10 ep 1-10.WAV</name>
					<duration>10691</duration>
					<rate>
						<ntsc>FALSE</ntsc>
						<timebase>25</timebase>
					</rate>
					<in>7970</in>
					<out>8035</out>
					<start>623</start>
					<end>688</end>
					<subframeoffset>0</subframeoffset>
					<masterclipid>Kråketeaser sesong 10 ep 1-10.WAV1</masterclipid>
					<logginginfo>
						<scene/>
						<shottake/>
						<lognote/>
						<good>FALSE</good>
					</logginginfo>
					<labels>
						<label2/>
					</labels>
					<comments>
						<mastercomment1/>
						<mastercomment2/>
						<mastercomment3/>
						<mastercomment4/>
					</comments>
					<file id="Kråketeaser sesong 10 ep 1-10 "/>
					<filter>
						<effect>
							<name>Audio Levels</name>
							<effectid>audiolevels</effectid>
							<effectcategory>audiolevels</effectcategory>
							<effecttype>audiolevels</effecttype>
							<mediatype>audio</mediatype>
							<parameter>
								<name>Level</name>
								<parameterid>level</parameterid>
								<valuemin>0</valuemin>
								<valuemax>3.98109</valuemax>
								<value>1</value>
							</parameter>
						</effect>
					</filter>
					<filter>
						<effect>
							<name>Audio Pan</name>
							<effectid>audiopan</effectid>
							<effectcategory>audiopan</effectcategory>
							<effecttype>audiopan</effecttype>
							<mediatype>audio</mediatype>
							<parameter>
								<name>Pan</name>
								<parameterid>pan</parameterid>
								<valuemin>-1</valuemin>
								<valuemax>1</valuemax>
								<value>-1</value>
							</parameter>
						</effect>
					</filter>
					<sourcetrack>
						<mediatype>audio</mediatype>
						<trackindex>1</trackindex>
					</sourcetrack>
					<link>
						<linkclipref>Kråketeaser sesong 10 ep 1-10.WAV9</linkclipref>
						<mediatype>audio</mediatype>
						<trackindex>3</trackindex>
						<clipindex>5</clipindex>
						<groupindex>1</groupindex>
					</link>
					<link>
						<linkclipref>Kråketeaser sesong 10 ep 1-10.WAV10</linkclipref>
						<mediatype>audio</mediatype>
						<trackindex>4</trackindex>
						<clipindex>5</clipindex>
						<groupindex>1</groupindex>
					</link>
				</clipitem>
				<clipitem id="Kråketeaser sesong 10 ep 1-10.WAV11">
					<name>Kråketeaser sesong 10 ep 1-10.WAV</name>
					<duration>10691</duration>
					<rate>
						<ntsc>FALSE</ntsc>
						<timebase>25</timebase>
					</rate>
					<in>8039</in>
					<out>8069</out>
					<start>688</start>
					<end>718</end>
					<subframeoffset>0</subframeoffset>
					<masterclipid>Kråketeaser sesong 10 ep 1-10.WAV1</masterclipid>
					<logginginfo>
						<scene/>
						<shottake/>
						<lognote/>
						<good>FALSE</good>
					</logginginfo>
					<labels>
						<label2/>
					</labels>
					<comments>
						<mastercomment1/>
						<mastercomment2/>
						<mastercomment3/>
						<mastercomment4/>
					</comments>
					<file id="Kråketeaser sesong 10 ep 1-10 "/>
					<filter>
						<effect>
							<name>Audio Levels</name>
							<effectid>audiolevels</effectid>
							<effectcategory>audiolevels</effectcategory>
							<effecttype>audiolevels</effecttype>
							<mediatype>audio</mediatype>
							<parameter>
								<name>Level</name>
								<parameterid>level</parameterid>
								<valuemin>0</valuemin>
								<valuemax>3.98109</valuemax>
								<value>1</value>
							</parameter>
						</effect>
					</filter>
					<filter>
						<effect>
							<name>Audio Pan</name>
							<effectid>audiopan</effectid>
							<effectcategory>audiopan</effectcategory>
							<effecttype>audiopan</effecttype>
							<mediatype>audio</mediatype>
							<parameter>
								<name>Pan</name>
								<parameterid>pan</parameterid>
								<valuemin>-1</valuemin>
								<valuemax>1</valuemax>
								<value>-1</value>
							</parameter>
						</effect>
					</filter>
					<sourcetrack>
						<mediatype>audio</mediatype>
						<trackindex>1</trackindex>
					</sourcetrack>
					<link>
						<linkclipref>Kråketeaser sesong 10 ep 1-10.WAV11</linkclipref>
						<mediatype>audio</mediatype>
						<trackindex>3</trackindex>
						<clipindex>6</clipindex>
						<groupindex>1</groupindex>
					</link>
					<link>
						<linkclipref>Kråketeaser sesong 10 ep 1-10.WAV12</linkclipref>
						<mediatype>audio</mediatype>
						<trackindex>4</trackindex>
						<clipindex>6</clipindex>
						<groupindex>1</groupindex>
					</link>
				</clipitem>
				<clipitem id="SPACEWHOO…HOOSHBYSI60404904.WAV">
					<name>SPACEWHOO…HOOSHBYSI60404904.WAV</name>
					<duration>127</duration>
					<rate>
						<ntsc>FALSE</ntsc>
						<timebase>25</timebase>
					</rate>
					<in>8</in>
					<out>61</out>
					<start>1637</start>
					<end>1690</end>
					<subframeoffset>0</subframeoffset>
					<enabled>TRUE</enabled>
					<masterclipid>SPACEWHOO…HOOSHBYSI60404904.WAV1</masterclipid>
					<logginginfo>
						<scene/>
						<shottake/>
						<lognote/>
						<good>FALSE</good>
					</logginginfo>
					<labels>
						<label2/>
					</labels>
					<comments>
						<mastercomment1/>
						<mastercomment2/>
						<mastercomment3/>
						<mastercomment4/>
					</comments>
					<file id="SPACEWHOO…HOOSHBYSI60404904 ">
						<name>SPACEWHOO…HOOSHBYSI60404904.WAV</name>
						<pathurl>file://localhost/Volumes/Askepott/Prosjekter/DNPR630012_Dyrevenn_sesong_8_010113/Lydeffekter/Svosj/SPACEWHOO%E2%80%A6HOOSHBYSI60404904.WAV</pathurl>
						<rate>
							<timebase>25</timebase>
						</rate>
						<duration>127</duration>
						<timecode>
							<rate>
								<timebase>25</timebase>
							</rate>
							<string>00:00:00:00</string>
							<frame>0</frame>
							<displayformat>NDF</displayformat>
							<source>source</source>
						</timecode>
						<media>
							<audio>
								<rate>
									<timebase>44100</timebase>
								</rate>
								<trackcount>2</trackcount>
								<samplecharacteristics>
									<depth>16</depth>
								</samplecharacteristics>
							</audio>
						</media>
					</file>
					<filter>
						<effect>
							<name>Audio Levels</name>
							<effectid>audiolevels</effectid>
							<effectcategory>audiolevels</effectcategory>
							<effecttype>audiolevels</effecttype>
							<mediatype>audio</mediatype>
							<parameter>
								<name>Level</name>
								<parameterid>level</parameterid>
								<valuemin>0</valuemin>
								<valuemax>3.98109</valuemax>
								<value>0.251189</value>
							</parameter>
						</effect>
					</filter>
					<filter>
						<effect>
							<name>Audio Pan</name>
							<effectid>audiopan</effectid>
							<effectcategory>audiopan</effectcategory>
							<effecttype>audiopan</effecttype>
							<mediatype>audio</mediatype>
							<parameter>
								<name>Pan</name>
								<parameterid>pan</parameterid>
								<valuemin>-1</valuemin>
								<valuemax>1</valuemax>
								<value>-1</value>
							</parameter>
						</effect>
					</filter>
					<sourcetrack>
						<mediatype>audio</mediatype>
						<trackindex>1</trackindex>
					</sourcetrack>
					<link>
						<linkclipref>SPACEWHOO…HOOSHBYSI60404904.WAV</linkclipref>
						<mediatype>audio</mediatype>
						<trackindex>3</trackindex>
						<clipindex>7</clipindex>
						<groupindex>1</groupindex>
					</link>
					<link>
						<linkclipref>SPACEWHOO…HOOSHBYSI60404904.WAV2</linkclipref>
						<mediatype>audio</mediatype>
						<trackindex>4</trackindex>
						<clipindex>7</clipindex>
						<groupindex>1</groupindex>
					</link>
				</clipitem>
				<clipitem id="SPACEWHOO…HOOSHBYSI60404904.WAV3">
					<name>SPACEWHOO…HOOSHBYSI60404904.WAV</name>
					<duration>127</duration>
					<rate>
						<ntsc>FALSE</ntsc>
						<timebase>25</timebase>
					</rate>
					<in>8</in>
					<out>61</out>
					<start>1718</start>
					<end>1771</end>
					<subframeoffset>0</subframeoffset>
					<enabled>TRUE</enabled>
					<masterclipid>SPACEWHOO…HOOSHBYSI60404904.WAV1</masterclipid>
					<logginginfo>
						<scene/>
						<shottake/>
						<lognote/>
						<good>FALSE</good>
					</logginginfo>
					<labels>
						<label2/>
					</labels>
					<comments>
						<mastercomment1/>
						<mastercomment2/>
						<mastercomment3/>
						<mastercomment4/>
					</comments>
					<file id="SPACEWHOO…HOOSHBYSI60404904 "/>
					<filter>
						<effect>
							<name>Audio Levels</name>
							<effectid>audiolevels</effectid>
							<effectcategory>audiolevels</effectcategory>
							<effecttype>audiolevels</effecttype>
							<mediatype>audio</mediatype>
							<parameter>
								<name>Level</name>
								<parameterid>level</parameterid>
								<valuemin>0</valuemin>
								<valuemax>3.98109</valuemax>
								<value>0.251189</value>
							</parameter>
						</effect>
					</filter>
					<filter>
						<effect>
							<name>Audio Pan</name>
							<effectid>audiopan</effectid>
							<effectcategory>audiopan</effectcategory>
							<effecttype>audiopan</effecttype>
							<mediatype>audio</mediatype>
							<parameter>
								<name>Pan</name>
								<parameterid>pan</parameterid>
								<valuemin>-1</valuemin>
								<valuemax>1</valuemax>
								<value>-1</value>
							</parameter>
						</effect>
					</filter>
					<sourcetrack>
						<mediatype>audio</mediatype>
						<trackindex>1</trackindex>
					</sourcetrack>
					<link>
						<linkclipref>SPACEWHOO…HOOSHBYSI60404904.WAV3</linkclipref>
						<mediatype>audio</mediatype>
						<trackindex>3</trackindex>
						<clipindex>8</clipindex>
						<groupindex>1</groupindex>
					</link>
					<link>
						<linkclipref>SPACEWHOO…HOOSHBYSI60404904.WAV4</linkclipref>
						<mediatype>audio</mediatype>
						<trackindex>4</trackindex>
						<clipindex>8</clipindex>
						<groupindex>1</groupindex>
					</link>
				</clipitem>
				<clipitem id="Cartoon Timpani">
					<name>Cartoon Timpani</name>
					<duration>41</duration>
					<rate>
						<ntsc>FALSE</ntsc>
						<timebase>25</timebase>
					</rate>
					<in>17</in>
					<out>41</out>
					<start>1809</start>
					<end>-1</end>
					<subframeoffset>0</subframeoffset>
					<masterclipid>Cartoon Timpani1</masterclipid>
					<logginginfo>
						<scene/>
						<shottake/>
						<lognote/>
						<good>FALSE</good>
					</logginginfo>
					<labels>
						<label2/>
					</labels>
					<comments>
						<mastercomment1/>
						<mastercomment2/>
						<mastercomment3/>
						<mastercomment4/>
					</comments>
					<file id="Cartoon Timpani2">
						<name>Cartoon Timpani.mov</name>
						<pathurl>file://localhost/Volumes/Askepott/Prosjekter/DNPR637010_Kra%CC%8Akeklubben_TEM_011212/Musikk/Naturlek/Cartoon%20Timpani.mov</pathurl>
						<rate>
							<timebase>25</timebase>
						</rate>
						<duration>41</duration>
						<timecode>
							<rate>
								<timebase>25</timebase>
							</rate>
							<string>00:00:00:00</string>
							<frame>0</frame>
							<displayformat>NDF</displayformat>
							<source>source</source>
						</timecode>
						<media>
							<audio>
								<rate>
									<timebase>48000</timebase>
								</rate>
								<trackcount>1</trackcount>
								<samplecharacteristics>
									<depth>24</depth>
								</samplecharacteristics>
							</audio>
						</media>
					</file>
					<filter>
						<effect>
							<name>Audio Levels</name>
							<effectid>audiolevels</effectid>
							<effectcategory>audiolevels</effectcategory>
							<effecttype>audiolevels</effecttype>
							<mediatype>audio</mediatype>
							<parameter>
								<name>Level</name>
								<parameterid>level</parameterid>
								<valuemin>0</valuemin>
								<valuemax>3.98109</valuemax>
								<keyframe>
									<when>29.8036</when>
									<value>0</value>
								</keyframe>
								<keyframe>
									<when>38.6429</when>
									<value>1</value>
								</keyframe>
								<interpolation>
									<name>FCPCurve</name>
								</interpolation>
								<value>1</value>
							</parameter>
						</effect>
					</filter>
					<filter>
						<effect>
							<name>Audio Pan</name>
							<effectid>audiopan</effectid>
							<effectcategory>audiopan</effectcategory>
							<effecttype>audiopan</effecttype>
							<mediatype>audio</mediatype>
							<parameter>
								<name>Pan</name>
								<parameterid>pan</parameterid>
								<valuemin>-1</valuemin>
								<valuemax>1</valuemax>
								<value>-1</value>
							</parameter>
						</effect>
					</filter>
					<sourcetrack>
						<mediatype>audio</mediatype>
						<trackindex>1</trackindex>
					</sourcetrack>
					<link>
						<linkclipref>Cartoon Timpani</linkclipref>
						<mediatype>audio</mediatype>
						<trackindex>3</trackindex>
						<clipindex>9</clipindex>
						<groupindex>1</groupindex>
					</link>
					<link>
						<linkclipref>Cartoon Timpani3</linkclipref>
						<mediatype>audio</mediatype>
						<trackindex>4</trackindex>
						<clipindex>9</clipindex>
						<groupindex>1</groupindex>
					</link>
					<filter>
						<effect>
							<name>Time Remap</name>
							<effectid>timeremap</effectid>
							<effectcategory>motion</effectcategory>
							<effecttype>motion</effecttype>
							<mediatype>audio</mediatype>
							<parameter>
								<parameterid>variablespeed</parameterid>
								<name>variablespeed</name>
								<valuemin>0</valuemin>
								<valuemax>1</valuemax>
								<value>0</value>
							</parameter>
							<parameter>
								<parameterid>mappedduration</parameterid>
								<name>mappedduration</name>
								<value>
									<timecode>
										<rate>
											<timebase>0</timebase>
										</rate>
										<string>0</string>
										<frame>0</frame>
										<displayformat>NDF</displayformat>
									</timecode>
								</value>
							</parameter>
							<parameter>
								<parameterid>speed</parameterid>
								<name>speed</name>
								<valuemin>-10000</valuemin>
								<valuemax>10000</valuemax>
								<value>100</value>
							</parameter>
							<parameter>
								<parameterid>reverse</parameterid>
								<name>reverse</name>
								<value>TRUE</value>
							</parameter>
							<parameter>
								<parameterid>frameblending</parameterid>
								<name>frameblending</name>
								<value>TRUE</value>
							</parameter>
							<parameter>
								<parameterid>graphdict</parameterid>
								<name>graphdict</name>
								<valuemin>0</valuemin>
								<valuemax>40</valuemax>
								<keyframe>
									<when>0</when>
									<value>42</value>
									<speedkfstart>TRUE</speedkfstart>
									<speedvirtualkf>TRUE</speedvirtualkf>
								</keyframe>
								<keyframe>
									<when>17</when>
									<value>24</value>
									<speedkfin>TRUE</speedkfin>
									<speedvirtualkf>TRUE</speedvirtualkf>
								</keyframe>
								<keyframe>
									<when>41</when>
									<value>1</value>
									<speedkfout>TRUE</speedkfout>
									<speedvirtualkf>TRUE</speedvirtualkf>
								</keyframe>
								<interpolation>
									<name>FCPCurve</name>
								</interpolation>
								<value>23</value>
							</parameter>
						</effect>
					</filter>
				</clipitem>
				<transitionitem id="25">
					<rate>
						<ntsc>FALSE</ntsc>
						<timebase>25</timebase>
					</rate>
					<start>1831</start>
					<end>1833</end>
					<alignment>center</alignment>
					<effect>
						<name>Cross Fade (+3dB)</name>
						<effecttype>transition</effecttype>
						<mediatype>audio</mediatype>
					</effect>
				</transitionitem>
				<clipitem id="Cartoon Timpani4">
					<name>Cartoon Timpani</name>
					<duration>41</duration>
					<rate>
						<ntsc>FALSE</ntsc>
						<timebase>25</timebase>
					</rate>
					<in>0</in>
					<out>41</out>
					<start>-1</start>
					<end>1872</end>
					<subframeoffset>0</subframeoffset>
					<masterclipid>Cartoon Timpani1</masterclipid>
					<logginginfo>
						<scene/>
						<shottake/>
						<lognote/>
						<good>FALSE</good>
					</logginginfo>
					<labels>
						<label2/>
					</labels>
					<comments>
						<mastercomment1/>
						<mastercomment2/>
						<mastercomment3/>
						<mastercomment4/>
					</comments>
					<file id="Cartoon Timpani2"/>
					<filter>
						<effect>
							<name>Audio Levels</name>
							<effectid>audiolevels</effectid>
							<effectcategory>audiolevels</effectcategory>
							<effecttype>audiolevels</effecttype>
							<mediatype>audio</mediatype>
							<parameter>
								<name>Level</name>
								<parameterid>level</parameterid>
								<valuemin>0</valuemin>
								<valuemax>3.98109</valuemax>
								<keyframe>
									<when>9.39286</when>
									<value>1</value>
								</keyframe>
								<keyframe>
									<when>40.1429</when>
									<value>0</value>
								</keyframe>
								<interpolation>
									<name>FCPCurve</name>
								</interpolation>
								<value>1</value>
							</parameter>
						</effect>
					</filter>
					<filter>
						<effect>
							<name>Audio Pan</name>
							<effectid>audiopan</effectid>
							<effectcategory>audiopan</effectcategory>
							<effecttype>audiopan</effecttype>
							<mediatype>audio</mediatype>
							<parameter>
								<name>Pan</name>
								<parameterid>pan</parameterid>
								<valuemin>-1</valuemin>
								<valuemax>1</valuemax>
								<value>-1</value>
							</parameter>
						</effect>
					</filter>
					<sourcetrack>
						<mediatype>audio</mediatype>
						<trackindex>1</trackindex>
					</sourcetrack>
					<link>
						<linkclipref>Cartoon Timpani4</linkclipref>
						<mediatype>audio</mediatype>
						<trackindex>3</trackindex>
						<clipindex>11</clipindex>
						<groupindex>1</groupindex>
					</link>
					<link>
						<linkclipref>Cartoon Timpani5</linkclipref>
						<mediatype>audio</mediatype>
						<trackindex>4</trackindex>
						<clipindex>11</clipindex>
						<groupindex>1</groupindex>
					</link>
				</clipitem>
				<clipitem id="C0010 5">
					<name>C0010</name>
					<duration>3012</duration>
					<rate>
						<ntsc>FALSE</ntsc>
						<timebase>25</timebase>
					</rate>
					<in>2637</in>
					<out>2682</out>
					<start>3826</start>
					<end>-1</end>
					<subframeoffset>0</subframeoffset>
					<masterclipid>C0010 1</masterclipid>
					<logginginfo>
						<scene/>
						<shottake/>
						<lognote/>
						<good>FALSE</good>
					</logginginfo>
					<labels>
						<label2/>
					</labels>
					<comments>
						<mastercomment1/>
						<mastercomment2/>
						<mastercomment3/>
						<mastercomment4/>
					</comments>
					<file id="C0010 2"/>
					<filter>
						<effect>
							<name>Audio Levels</name>
							<effectid>audiolevels</effectid>
							<effectcategory>audiolevels</effectcategory>
							<effecttype>audiolevels</effecttype>
							<mediatype>audio</mediatype>
							<parameter>
								<name>Level</name>
								<parameterid>level</parameterid>
								<valuemin>0</valuemin>
								<valuemax>3.98109</valuemax>
								<value>0</value>
							</parameter>
						</effect>
					</filter>
					<filter>
						<effect>
							<name>Audio Pan</name>
							<effectid>audiopan</effectid>
							<effectcategory>audiopan</effectcategory>
							<effecttype>audiopan</effecttype>
							<mediatype>audio</mediatype>
							<parameter>
								<name>Pan</name>
								<parameterid>pan</parameterid>
								<valuemin>-1</valuemin>
								<valuemax>1</valuemax>
								<value>0</value>
							</parameter>
						</effect>
					</filter>
					<sourcetrack>
						<mediatype>audio</mediatype>
						<trackindex>1</trackindex>
					</sourcetrack>
				</clipitem>
				<transitionitem id="1252939648 ">
					<rate>
						<ntsc>FALSE</ntsc>
						<timebase>25</timebase>
					</rate>
					<start>3859</start>
					<end>3871</end>
					<alignment>start</alignment>
					<effect>
						<name>Cross Fade (+3dB)</name>
						<effecttype>transition</effecttype>
						<mediatype>audio</mediatype>
					</effect>
				</transitionitem>
				<clipitem id="C0010 6">
					<name>C0010</name>
					<duration>3012</duration>
					<rate>
						<ntsc>FALSE</ntsc>
						<timebase>25</timebase>
					</rate>
					<in>2670</in>
					<out>2909</out>
					<start>-1</start>
					<end>-1</end>
					<subframeoffset>0</subframeoffset>
					<masterclipid>C0010 1</masterclipid>
					<logginginfo>
						<scene/>
						<shottake/>
						<lognote/>
						<good>FALSE</good>
					</logginginfo>
					<labels>
						<label2/>
					</labels>
					<comments>
						<mastercomment1/>
						<mastercomment2/>
						<mastercomment3/>
						<mastercomment4/>
					</comments>
					<file id="C0010 2"/>
					<filter>
						<effect>
							<name>Audio Levels</name>
							<effectid>audiolevels</effectid>
							<effectcategory>audiolevels</effectcategory>
							<effecttype>audiolevels</effecttype>
							<mediatype>audio</mediatype>
							<parameter>
								<name>Level</name>
								<parameterid>level</parameterid>
								<valuemin>0</valuemin>
								<valuemax>3.98109</valuemax>
								<value>1</value>
							</parameter>
						</effect>
					</filter>
					<filter>
						<effect>
							<name>Audio Pan</name>
							<effectid>audiopan</effectid>
							<effectcategory>audiopan</effectcategory>
							<effecttype>audiopan</effecttype>
							<mediatype>audio</mediatype>
							<parameter>
								<name>Pan</name>
								<parameterid>pan</parameterid>
								<valuemin>-1</valuemin>
								<valuemax>1</valuemax>
								<value>0</value>
							</parameter>
						</effect>
					</filter>
					<sourcetrack>
						<mediatype>audio</mediatype>
						<trackindex>1</trackindex>
					</sourcetrack>
				</clipitem>
				<transitionitem id="1252938832 ">
					<rate>
						<ntsc>FALSE</ntsc>
						<timebase>25</timebase>
					</rate>
					<start>4073</start>
					<end>4098</end>
					<alignment>start</alignment>
					<effect>
						<name>Cross Fade (+3dB)</name>
						<effecttype>transition</effecttype>
						<mediatype>audio</mediatype>
					</effect>
				</transitionitem>
				<clipitem id="525_0341_01 ">
					<name>525_0341_01</name>
					<duration>7977</duration>
					<rate>
						<ntsc>FALSE</ntsc>
						<timebase>25</timebase>
					</rate>
					<in>5998</in>
					<out>6029</out>
					<start>4113</start>
					<end>4144</end>
					<subframeoffset>0</subframeoffset>
					<logginginfo>
						<scene/>
						<shottake/>
						<lognote/>
						<good>FALSE</good>
					</logginginfo>
					<labels>
						<label2/>
					</labels>
					<comments>
						<mastercomment1/>
						<mastercomment2/>
						<mastercomment3/>
						<mastercomment4/>
					</comments>
					<file id="525_0341_01 1">
						<name>525_0341_01.mov</name>
						<pathurl>file://localhost/Volumes/Askepott/Prosjekter/DNPR637010_Kra%CC%8Akeklubben_TEM_011212/Video/Bes%C3%B8ker%20Dyrebarn/Kylling/525_0341_01.mov</pathurl>
						<rate>
							<timebase>25</timebase>
						</rate>
						<duration>7977</duration>
						<timecode>
							<rate>
								<timebase>25</timebase>
							</rate>
							<string>12:25:38:11</string>
							<frame>1118461</frame>
							<displayformat>NDF</displayformat>
							<source>source</source>
							<reel>
								<name>Untitled</name>
							</reel>
						</timecode>
						<media>
							<video>
								<duration>7977</duration>
								<samplecharacteristics>
									<width>1920</width>
									<height>1080</height>
								</samplecharacteristics>
							</video>
							<audio>
								<rate>
									<timebase>48000</timebase>
								</rate>
								<trackcount>1</trackcount>
								<channeldescription>A1+A2</channeldescription>
								<samplecharacteristics>
									<depth>16</depth>
								</samplecharacteristics>
							</audio>
						</media>
					</file>
					<filter>
						<effect>
							<name>Audio Levels</name>
							<effectid>audiolevels</effectid>
							<effectcategory>audiolevels</effectcategory>
							<effecttype>audiolevels</effecttype>
							<mediatype>audio</mediatype>
							<parameter>
								<name>Level</name>
								<parameterid>level</parameterid>
								<valuemin>0</valuemin>
								<valuemax>3.98109</valuemax>
								<value>1</value>
							</parameter>
						</effect>
					</filter>
					<filter>
						<effect>
							<name>Audio Pan</name>
							<effectid>audiopan</effectid>
							<effectcategory>audiopan</effectcategory>
							<effecttype>audiopan</effecttype>
							<mediatype>audio</mediatype>
							<parameter>
								<name>Pan</name>
								<parameterid>pan</parameterid>
								<valuemin>-1</valuemin>
								<valuemax>1</valuemax>
								<value>0</value>
							</parameter>
						</effect>
					</filter>
					<sourcetrack>
						<mediatype>audio</mediatype>
						<trackindex>1</trackindex>
					</sourcetrack>
				</clipitem>
				<clipitem id="C0011 15">
					<name>C0011</name>
					<duration>14472</duration>
					<rate>
						<ntsc>FALSE</ntsc>
						<timebase>25</timebase>
					</rate>
					<in>5833</in>
					<out>5866</out>
					<start>4144</start>
					<end>4177</end>
					<subframeoffset>0</subframeoffset>
					<logginginfo>
						<scene/>
						<shottake/>
						<lognote/>
						<good>FALSE</good>
					</logginginfo>
					<labels>
						<label2/>
					</labels>
					<comments>
						<mastercomment1/>
						<mastercomment2/>
						<mastercomment3/>
						<mastercomment4/>
					</comments>
					<file id="C0011 16">
						<name>C0011.mov</name>
						<pathurl>file://localhost/Volumes/Askepott/Prosjekter/DNPR637010_Kra%CC%8Akeklubben_TEM_011212/Video/Bes%C3%B8ker%20Dyrebarn/F%C3%B8ll/C0011.mov</pathurl>
						<rate>
							<timebase>25</timebase>
						</rate>
						<duration>14472</duration>
						<timecode>
							<rate>
								<timebase>25</timebase>
							</rate>
							<string>18:14:50:19</string>
							<frame>1642269</frame>
							<displayformat>NDF</displayformat>
							<source>source</source>
							<reel>
								<name>Clip</name>
							</reel>
						</timecode>
						<media>
							<video>
								<duration>14472</duration>
								<samplecharacteristics>
									<width>1920</width>
									<height>1080</height>
								</samplecharacteristics>
							</video>
							<audio>
								<rate>
									<timebase>48000</timebase>
								</rate>
								<trackcount>1</trackcount>
								<channeldescription>8 Channels</channeldescription>
								<samplecharacteristics>
									<depth>24</depth>
								</samplecharacteristics>
							</audio>
						</media>
					</file>
					<filter>
						<effect>
							<name>Audio Levels</name>
							<effectid>audiolevels</effectid>
							<effectcategory>audiolevels</effectcategory>
							<effecttype>audiolevels</effecttype>
							<mediatype>audio</mediatype>
							<parameter>
								<name>Level</name>
								<parameterid>level</parameterid>
								<valuemin>0</valuemin>
								<valuemax>3.98109</valuemax>
								<value>1</value>
							</parameter>
						</effect>
					</filter>
					<filter>
						<effect>
							<name>Audio Pan</name>
							<effectid>audiopan</effectid>
							<effectcategory>audiopan</effectcategory>
							<effecttype>audiopan</effecttype>
							<mediatype>audio</mediatype>
							<parameter>
								<name>Pan</name>
								<parameterid>pan</parameterid>
								<valuemin>-1</valuemin>
								<valuemax>1</valuemax>
								<value>0</value>
							</parameter>
						</effect>
					</filter>
					<sourcetrack>
						<mediatype>audio</mediatype>
						<trackindex>1</trackindex>
					</sourcetrack>
				</clipitem>
				<clipitem id="739_0995 ">
					<name>739_0995</name>
					<duration>4199</duration>
					<rate>
						<ntsc>FALSE</ntsc>
						<timebase>25</timebase>
					</rate>
					<in>1917</in>
					<out>1924</out>
					<start>4177</start>
					<end>4184</end>
					<subframeoffset>0</subframeoffset>
					<logginginfo>
						<scene/>
						<shottake/>
						<lognote/>
						<good>FALSE</good>
					</logginginfo>
					<labels>
						<label2/>
					</labels>
					<comments>
						<mastercomment1/>
						<mastercomment2/>
						<mastercomment3/>
						<mastercomment4/>
					</comments>
					<file id="739_0995 1">
						<name>739_0995.mov</name>
						<pathurl>file://localhost/Volumes/Askepott/Prosjekter/DNPR637010_Kra%CC%8Akeklubben_TEM_011212/Video/Bes%C3%B8ker%20Dyrebarn/Kattunger/739_0995.mov</pathurl>
						<rate>
							<timebase>25</timebase>
						</rate>
						<duration>4199</duration>
						<timecode>
							<rate>
								<timebase>25</timebase>
							</rate>
							<string>01:11:27:12</string>
							<frame>107187</frame>
							<displayformat>NDF</displayformat>
							<source>source</source>
							<reel>
								<name>Untitled</name>
							</reel>
						</timecode>
						<media>
							<video>
								<duration>4199</duration>
								<samplecharacteristics>
									<width>1920</width>
									<height>1080</height>
								</samplecharacteristics>
							</video>
							<audio>
								<rate>
									<timebase>48000</timebase>
								</rate>
								<trackcount>1</trackcount>
								<channeldescription>A1+A2</channeldescription>
								<samplecharacteristics>
									<depth>16</depth>
								</samplecharacteristics>
							</audio>
						</media>
					</file>
					<filter>
						<effect>
							<name>Audio Levels</name>
							<effectid>audiolevels</effectid>
							<effectcategory>audiolevels</effectcategory>
							<effecttype>audiolevels</effecttype>
							<mediatype>audio</mediatype>
							<parameter>
								<name>Level</name>
								<parameterid>level</parameterid>
								<valuemin>0</valuemin>
								<valuemax>3.98109</valuemax>
								<value>3.16228</value>
							</parameter>
						</effect>
					</filter>
					<filter>
						<effect>
							<name>Audio Pan</name>
							<effectid>audiopan</effectid>
							<effectcategory>audiopan</effectcategory>
							<effecttype>audiopan</effecttype>
							<mediatype>audio</mediatype>
							<parameter>
								<name>Pan</name>
								<parameterid>pan</parameterid>
								<valuemin>-1</valuemin>
								<valuemax>1</valuemax>
								<value>0</value>
							</parameter>
						</effect>
					</filter>
					<sourcetrack>
						<mediatype>audio</mediatype>
						<trackindex>1</trackindex>
					</sourcetrack>
				</clipitem>
				<clipitem id="739_0995 2">
					<name>739_0995</name>
					<duration>4199</duration>
					<rate>
						<ntsc>FALSE</ntsc>
						<timebase>25</timebase>
					</rate>
					<in>387</in>
					<out>421</out>
					<start>4184</start>
					<end>4218</end>
					<subframeoffset>0</subframeoffset>
					<logginginfo>
						<scene/>
						<shottake/>
						<lognote/>
						<good>FALSE</good>
					</logginginfo>
					<labels>
						<label2/>
					</labels>
					<comments>
						<mastercomment1/>
						<mastercomment2/>
						<mastercomment3/>
						<mastercomment4/>
					</comments>
					<file id="739_0995 1"/>
					<filter>
						<effect>
							<name>Audio Levels</name>
							<effectid>audiolevels</effectid>
							<effectcategory>audiolevels</effectcategory>
							<effecttype>audiolevels</effecttype>
							<mediatype>audio</mediatype>
							<parameter>
								<name>Level</name>
								<parameterid>level</parameterid>
								<valuemin>0</valuemin>
								<valuemax>3.98109</valuemax>
								<value>1.99526</value>
							</parameter>
						</effect>
					</filter>
					<filter>
						<effect>
							<name>Audio Pan</name>
							<effectid>audiopan</effectid>
							<effectcategory>audiopan</effectcategory>
							<effecttype>audiopan</effecttype>
							<mediatype>audio</mediatype>
							<parameter>
								<name>Pan</name>
								<parameterid>pan</parameterid>
								<valuemin>-1</valuemin>
								<valuemax>1</valuemax>
								<value>0</value>
							</parameter>
						</effect>
					</filter>
					<sourcetrack>
						<mediatype>audio</mediatype>
						<trackindex>1</trackindex>
					</sourcetrack>
				</clipitem>
				<clipitem id="739_0995 3">
					<name>739_0995</name>
					<duration>4199</duration>
					<rate>
						<ntsc>FALSE</ntsc>
						<timebase>25</timebase>
					</rate>
					<in>1958</in>
					<out>1969</out>
					<start>4218</start>
					<end>4229</end>
					<subframeoffset>0</subframeoffset>
					<logginginfo>
						<scene/>
						<shottake/>
						<lognote/>
						<good>FALSE</good>
					</logginginfo>
					<labels>
						<label2/>
					</labels>
					<comments>
						<mastercomment1/>
						<mastercomment2/>
						<mastercomment3/>
						<mastercomment4/>
					</comments>
					<file id="739_0995 1"/>
					<filter>
						<effect>
							<name>Audio Levels</name>
							<effectid>audiolevels</effectid>
							<effectcategory>audiolevels</effectcategory>
							<effecttype>audiolevels</effecttype>
							<mediatype>audio</mediatype>
							<parameter>
								<name>Level</name>
								<parameterid>level</parameterid>
								<valuemin>0</valuemin>
								<valuemax>3.98109</valuemax>
								<value>3.16228</value>
							</parameter>
						</effect>
					</filter>
					<filter>
						<effect>
							<name>Audio Pan</name>
							<effectid>audiopan</effectid>
							<effectcategory>audiopan</effectcategory>
							<effecttype>audiopan</effecttype>
							<mediatype>audio</mediatype>
							<parameter>
								<name>Pan</name>
								<parameterid>pan</parameterid>
								<valuemin>-1</valuemin>
								<valuemax>1</valuemax>
								<value>0</value>
							</parameter>
						</effect>
					</filter>
					<sourcetrack>
						<mediatype>audio</mediatype>
						<trackindex>1</trackindex>
					</sourcetrack>
				</clipitem>
				<clipitem id="bertine på besøk.wav">
					<name>bertine på besøk.wav</name>
					<duration>44</duration>
					<rate>
						<ntsc>FALSE</ntsc>
						<timebase>25</timebase>
					</rate>
					<in>0</in>
					<out>44</out>
					<start>4295</start>
					<end>4339</end>
					<subframeoffset>0</subframeoffset>
					<logginginfo>
						<scene/>
						<shottake/>
						<lognote/>
						<good>FALSE</good>
					</logginginfo>
					<labels>
						<label2/>
					</labels>
					<comments>
						<mastercomment1/>
						<mastercomment2/>
						<mastercomment3/>
						<mastercomment4/>
					</comments>
					<file id="bertine på besøk">
						<name>bertine på besøk.wav</name>
						<pathurl>file://localhost/Volumes/Askepott/Prosjekter/DNPR637010_Kra%CC%8Akeklubben_TEM_011212/Lyd/bertine%20pa%CC%8A%20bes%C3%B8k.wav</pathurl>
						<rate>
							<timebase>25</timebase>
						</rate>
						<duration>44</duration>
						<timecode>
							<rate>
								<timebase>25</timebase>
							</rate>
							<string>00:02:25:06</string>
							<frame>3631</frame>
							<displayformat>NDF</displayformat>
							<source>source</source>
						</timecode>
						<media>
							<audio>
								<rate>
									<timebase>48000</timebase>
								</rate>
								<trackcount>1</trackcount>
								<samplecharacteristics>
									<depth>24</depth>
								</samplecharacteristics>
							</audio>
						</media>
					</file>
					<filter>
						<effect>
							<name>Audio Levels</name>
							<effectid>audiolevels</effectid>
							<effectcategory>audiolevels</effectcategory>
							<effecttype>audiolevels</effecttype>
							<mediatype>audio</mediatype>
							<parameter>
								<name>Level</name>
								<parameterid>level</parameterid>
								<valuemin>0</valuemin>
								<valuemax>3.98109</valuemax>
								<keyframe>
									<when>17.625</when>
									<value>1.99526</value>
								</keyframe>
								<keyframe>
									<when>22.125</when>
									<value>1.12202</value>
								</keyframe>
								<interpolation>
									<name>FCPCurve</name>
								</interpolation>
								<value>1</value>
							</parameter>
						</effect>
					</filter>
					<filter>
						<effect>
							<name>Audio Pan</name>
							<effectid>audiopan</effectid>
							<effectcategory>audiopan</effectcategory>
							<effecttype>audiopan</effecttype>
							<mediatype>audio</mediatype>
							<parameter>
								<name>Pan</name>
								<parameterid>pan</parameterid>
								<valuemin>-1</valuemin>
								<valuemax>1</valuemax>
								<value>0</value>
							</parameter>
						</effect>
					</filter>
					<sourcetrack>
						<mediatype>audio</mediatype>
						<trackindex>1</trackindex>
					</sourcetrack>
				</clipitem>
				<clipitem id="525_0298_01 40">
					<name>525_0298_01</name>
					<duration>15673</duration>
					<rate>
						<ntsc>FALSE</ntsc>
						<timebase>25</timebase>
					</rate>
					<in>693</in>
					<out>755</out>
					<start>5207</start>
					<end>5269</end>
					<subframeoffset>0</subframeoffset>
					<logginginfo>
						<scene/>
						<shottake/>
						<lognote/>
						<good>FALSE</good>
					</logginginfo>
					<labels>
						<label2/>
					</labels>
					<comments>
						<mastercomment1/>
						<mastercomment2/>
						<mastercomment3/>
						<mastercomment4/>
					</comments>
					<file id="525_0298_01 22"/>
					<filter>
						<effect>
							<name>Audio Levels</name>
							<effectid>audiolevels</effectid>
							<effectcategory>audiolevels</effectcategory>
							<effecttype>audiolevels</effecttype>
							<mediatype>audio</mediatype>
							<parameter>
								<name>Level</name>
								<parameterid>level</parameterid>
								<valuemin>0</valuemin>
								<valuemax>3.98109</valuemax>
								<value>2.81838</value>
							</parameter>
						</effect>
					</filter>
					<filter>
						<effect>
							<name>Audio Pan</name>
							<effectid>audiopan</effectid>
							<effectcategory>audiopan</effectcategory>
							<effecttype>audiopan</effecttype>
							<mediatype>audio</mediatype>
							<parameter>
								<name>Pan</name>
								<parameterid>pan</parameterid>
								<valuemin>-1</valuemin>
								<valuemax>1</valuemax>
								<value>0</value>
							</parameter>
						</effect>
					</filter>
					<sourcetrack>
						<mediatype>audio</mediatype>
						<trackindex>1</trackindex>
					</sourcetrack>
				</clipitem>
				<clipitem id="525_0298_01 41">
					<name>525_0298_01</name>
					<duration>15673</duration>
					<rate>
						<ntsc>FALSE</ntsc>
						<timebase>25</timebase>
					</rate>
					<in>802</in>
					<out>849</out>
					<start>5269</start>
					<end>5316</end>
					<subframeoffset>0</subframeoffset>
					<logginginfo>
						<scene/>
						<shottake/>
						<lognote/>
						<good>FALSE</good>
					</logginginfo>
					<labels>
						<label2/>
					</labels>
					<comments>
						<mastercomment1/>
						<mastercomment2/>
						<mastercomment3/>
						<mastercomment4/>
					</comments>
					<file id="525_0298_01 22"/>
					<filter>
						<effect>
							<name>Audio Levels</name>
							<effectid>audiolevels</effectid>
							<effectcategory>audiolevels</effectcategory>
							<effecttype>audiolevels</effecttype>
							<mediatype>audio</mediatype>
							<parameter>
								<name>Level</name>
								<parameterid>level</parameterid>
								<valuemin>0</valuemin>
								<valuemax>3.98109</valuemax>
								<value>2.81838</value>
							</parameter>
						</effect>
					</filter>
					<filter>
						<effect>
							<name>Audio Pan</name>
							<effectid>audiopan</effectid>
							<effectcategory>audiopan</effectcategory>
							<effecttype>audiopan</effecttype>
							<mediatype>audio</mediatype>
							<parameter>
								<name>Pan</name>
								<parameterid>pan</parameterid>
								<valuemin>-1</valuemin>
								<valuemax>1</valuemax>
								<value>0</value>
							</parameter>
						</effect>
					</filter>
					<sourcetrack>
						<mediatype>audio</mediatype>
						<trackindex>1</trackindex>
					</sourcetrack>
				</clipitem>
				<clipitem id="AUXMP_SCD086720_RIDE ACROSS THE COUNTRY A.wav">
					<name>AUXMP_SCD086720_RIDE ACROSS THE COUNTRY A.wav</name>
					<duration>2963</duration>
					<rate>
						<ntsc>FALSE</ntsc>
						<timebase>25</timebase>
					</rate>
					<in>0</in>
					<out>1022</out>
					<start>5719</start>
					<end>6741</end>
					<subframeoffset>0</subframeoffset>
					<logginginfo>
						<scene/>
						<shottake/>
						<lognote/>
						<good>FALSE</good>
					</logginginfo>
					<labels>
						<label2/>
					</labels>
					<comments>
						<mastercomment1/>
						<mastercomment2/>
						<mastercomment3/>
						<mastercomment4/>
					</comments>
					<file id="AUXMP_SCD086720_RIDE ACROSS THE COUNTRY A">
						<name>AUXMP_SCD086720_RIDE ACROSS THE COUNTRY A.wav</name>
						<pathurl>file://localhost/Volumes/Askepott/Prosjekter/DNPR637010_Kra%CC%8Akeklubben_TEM_011212/Musikk/Arkiv/AUXMP_SCD086720_RIDE%20ACROSS%20THE%20COUNTRY%20A.wav</pathurl>
						<rate>
							<timebase>25</timebase>
						</rate>
						<duration>2963</duration>
						<timecode>
							<rate>
								<timebase>25</timebase>
							</rate>
							<string>00:39:38:06</string>
							<frame>59456</frame>
							<displayformat>NDF</displayformat>
							<source>source</source>
						</timecode>
						<media>
							<audio>
								<rate>
									<timebase>48000</timebase>
								</rate>
								<trackcount>2</trackcount>
								<samplecharacteristics>
									<depth>24</depth>
								</samplecharacteristics>
							</audio>
						</media>
					</file>
					<filter>
						<effect>
							<name>Audio Levels</name>
							<effectid>audiolevels</effectid>
							<effectcategory>audiolevels</effectcategory>
							<effecttype>audiolevels</effecttype>
							<mediatype>audio</mediatype>
							<parameter>
								<name>Level</name>
								<parameterid>level</parameterid>
								<valuemin>0</valuemin>
								<valuemax>3.98109</valuemax>
								<keyframe>
									<when>990.759</when>
									<value>0.0446684</value>
								</keyframe>
								<keyframe>
									<when>1022</when>
									<value>0</value>
								</keyframe>
								<keyframe>
									<when>1049.29</when>
									<value>0.0446684</value>
								</keyframe>
								<keyframe>
									<when>1107</when>
									<value>0</value>
								</keyframe>
								<keyframe>
									<when>1468.5</when>
									<value>0.0446684</value>
								</keyframe>
								<keyframe>
									<when>1596.55</when>
									<value>0</value>
								</keyframe>
								<interpolation>
									<name>FCPCurve</name>
								</interpolation>
								<value>1</value>
							</parameter>
						</effect>
					</filter>
					<filter>
						<effect>
							<name>Audio Pan</name>
							<effectid>audiopan</effectid>
							<effectcategory>audiopan</effectcategory>
							<effecttype>audiopan</effecttype>
							<mediatype>audio</mediatype>
							<parameter>
								<name>Pan</name>
								<parameterid>pan</parameterid>
								<valuemin>-1</valuemin>
								<valuemax>1</valuemax>
								<value>-1</value>
							</parameter>
						</effect>
					</filter>
					<sourcetrack>
						<mediatype>audio</mediatype>
						<trackindex>1</trackindex>
					</sourcetrack>
					<link>
						<linkclipref>AUXMP_SCD086720_RIDE ACROSS THE COUNTRY A.wav</linkclipref>
						<mediatype>audio</mediatype>
						<trackindex>3</trackindex>
						<clipindex>24</clipindex>
						<groupindex>1</groupindex>
					</link>
					<link>
						<linkclipref>AUXMP_SCD086720_RIDE ACROSS THE COUNTRY A.wav1</linkclipref>
						<mediatype>audio</mediatype>
						<trackindex>4</trackindex>
						<clipindex>21</clipindex>
						<groupindex>1</groupindex>
					</link>
				</clipitem>
				<clipitem id="SCD078112.wav">
					<name>SCD078112.wav</name>
					<duration>2817</duration>
					<rate>
						<ntsc>FALSE</ntsc>
						<timebase>25</timebase>
					</rate>
					<in>2414</in>
					<out>2817</out>
					<start>7643</start>
					<end>8046</end>
					<subframeoffset>0</subframeoffset>
					<logginginfo>
						<scene/>
						<shottake/>
						<lognote/>
						<good>FALSE</good>
					</logginginfo>
					<labels>
						<label2/>
					</labels>
					<comments>
						<mastercomment1/>
						<mastercomment2/>
						<mastercomment3/>
						<mastercomment4/>
					</comments>
					<file id="SCD078112 ">
						<name>SCD078112.wav</name>
						<pathurl>file://localhost/Volumes/Askepott/Prosjekter/DNPR637010_Kra%CC%8Akeklubben_TEM_011212/Musikk/Arkiv/SCD078112.wav</pathurl>
						<rate>
							<timebase>25</timebase>
						</rate>
						<duration>2817</duration>
						<timecode>
							<rate>
								<timebase>25</timebase>
							</rate>
							<string>00:24:58:14</string>
							<frame>37464</frame>
							<displayformat>NDF</displayformat>
							<source>source</source>
						</timecode>
						<media>
							<audio>
								<rate>
									<timebase>48000</timebase>
								</rate>
								<trackcount>2</trackcount>
								<samplecharacteristics>
									<depth>16</depth>
								</samplecharacteristics>
							</audio>
						</media>
					</file>
					<filter>
						<effect>
							<name>Audio Levels</name>
							<effectid>audiolevels</effectid>
							<effectcategory>audiolevels</effectcategory>
							<effecttype>audiolevels</effecttype>
							<mediatype>audio</mediatype>
							<parameter>
								<name>Level</name>
								<parameterid>level</parameterid>
								<valuemin>0</valuemin>
								<valuemax>3.98109</valuemax>
								<keyframe>
									<when>2460.57</when>
									<value>0</value>
								</keyframe>
								<keyframe>
									<when>2507.39</when>
									<value>0.141254</value>
								</keyframe>
								<interpolation>
									<name>FCPCurve</name>
								</interpolation>
								<value>1</value>
							</parameter>
						</effect>
					</filter>
					<filter>
						<effect>
							<name>Audio Pan</name>
							<effectid>audiopan</effectid>
							<effectcategory>audiopan</effectcategory>
							<effecttype>audiopan</effecttype>
							<mediatype>audio</mediatype>
							<parameter>
								<name>Pan</name>
								<parameterid>pan</parameterid>
								<valuemin>-1</valuemin>
								<valuemax>1</valuemax>
								<value>-1</value>
							</parameter>
						</effect>
					</filter>
					<sourcetrack>
						<mediatype>audio</mediatype>
						<trackindex>1</trackindex>
					</sourcetrack>
					<link>
						<linkclipref>SCD078112.wav</linkclipref>
						<mediatype>audio</mediatype>
						<trackindex>3</trackindex>
						<clipindex>25</clipindex>
						<groupindex>1</groupindex>
					</link>
					<link>
						<linkclipref>SCD078112.wav1</linkclipref>
						<mediatype>audio</mediatype>
						<trackindex>4</trackindex>
						<clipindex>22</clipindex>
						<groupindex>1</groupindex>
					</link>
				</clipitem>
				<clipitem id="SCDV016851_LET-S GO 1_SONOTON.wav">
					<name>SCDV016851_LET-S GO 1_SONOTON.wav</name>
					<duration>502</duration>
					<rate>
						<ntsc>FALSE</ntsc>
						<timebase>25</timebase>
					</rate>
					<in>0</in>
					<out>212</out>
					<start>8671</start>
					<end>-1</end>
					<subframeoffset>0</subframeoffset>
					<masterclipid>SCDV016851_LET-S GO 1_SONOTON.wav1</masterclipid>
					<logginginfo>
						<scene/>
						<shottake/>
						<lognote/>
						<good>FALSE</good>
					</logginginfo>
					<labels>
						<label2/>
					</labels>
					<comments>
						<mastercomment1/>
						<mastercomment2/>
						<mastercomment3/>
						<mastercomment4/>
					</comments>
					<file id="SCDV016851_LET-S GO 1_SONOTON">
						<name>SCDV016851_LET-S GO 1_SONOTON.wav</name>
						<pathurl>file://localhost/Volumes/Askepott/Prosjekter/DNPR637010_Kra%CC%8Akeklubben_TEM_011212/Musikk/Mellomstikk/S03E02/SCDV016851_LET-S%20GO%201_SONOTON.wav</pathurl>
						<rate>
							<timebase>25</timebase>
						</rate>
						<duration>502</duration>
						<timecode>
							<rate>
								<timebase>25</timebase>
							</rate>
							<string>00:38:38:21</string>
							<frame>57971</frame>
							<displayformat>NDF</displayformat>
							<source>source</source>
						</timecode>
						<media>
							<audio>
								<rate>
									<timebase>48000</timebase>
								</rate>
								<trackcount>2</trackcount>
								<samplecharacteristics>
									<depth>16</depth>
								</samplecharacteristics>
							</audio>
						</media>
					</file>
					<filter>
						<effect>
							<name>Audio Levels</name>
							<effectid>audiolevels</effectid>
							<effectcategory>audiolevels</effectcategory>
							<effecttype>audiolevels</effecttype>
							<mediatype>audio</mediatype>
							<parameter>
								<name>Level</name>
								<parameterid>level</parameterid>
								<valuemin>0</valuemin>
								<valuemax>3.98109</valuemax>
								<keyframe>
									<when>108.857</when>
									<value>0.0223872</value>
								</keyframe>
								<keyframe>
									<when>128.286</when>
									<value>0.0141254</value>
								</keyframe>
								<interpolation>
									<name>FCPCurve</name>
								</interpolation>
								<value>0.0223872</value>
							</parameter>
						</effect>
					</filter>
					<filter>
						<effect>
							<name>Audio Pan</name>
							<effectid>audiopan</effectid>
							<effectcategory>audiopan</effectcategory>
							<effecttype>audiopan</effecttype>
							<mediatype>audio</mediatype>
							<parameter>
								<name>Pan</name>
								<parameterid>pan</parameterid>
								<valuemin>-1</valuemin>
								<valuemax>1</valuemax>
								<value>-1</value>
							</parameter>
						</effect>
					</filter>
					<sourcetrack>
						<mediatype>audio</mediatype>
						<trackindex>1</trackindex>
					</sourcetrack>
					<link>
						<linkclipref>SCDV016851_LET-S GO 1_SONOTON.wav</linkclipref>
						<mediatype>audio</mediatype>
						<trackindex>3</trackindex>
						<clipindex>26</clipindex>
						<groupindex>1</groupindex>
					</link>
					<link>
						<linkclipref>SCDV016851_LET-S GO 1_SONOTON.wav2</linkclipref>
						<mediatype>audio</mediatype>
						<trackindex>4</trackindex>
						<clipindex>23</clipindex>
						<groupindex>1</groupindex>
					</link>
				</clipitem>
				<transitionitem id="1252962020 ">
					<rate>
						<ntsc>FALSE</ntsc>
						<timebase>25</timebase>
					</rate>
					<start>8874</start>
					<end>8883</end>
					<alignment>start</alignment>
					<effect>
						<name>Cross Fade (+3dB)</name>
						<effecttype>transition</effecttype>
						<mediatype>audio</mediatype>
					</effect>
				</transitionitem>
				<clipitem id="SCDV016851_LET-S GO 1_SONOTON.wav3">
					<name>SCDV016851_LET-S GO 1_SONOTON.wav</name>
					<duration>502</duration>
					<rate>
						<ntsc>FALSE</ntsc>
						<timebase>25</timebase>
					</rate>
					<in>4</in>
					<out>502</out>
					<start>-1</start>
					<end>9372</end>
					<subframeoffset>0</subframeoffset>
					<masterclipid>SCDV016851_LET-S GO 1_SONOTON.wav1</masterclipid>
					<logginginfo>
						<scene/>
						<shottake/>
						<lognote/>
						<good>FALSE</good>
					</logginginfo>
					<labels>
						<label2/>
					</labels>
					<comments>
						<mastercomment1/>
						<mastercomment2/>
						<mastercomment3/>
						<mastercomment4/>
					</comments>
					<file id="SCDV016851_LET-S GO 1_SONOTON"/>
					<filter>
						<effect>
							<name>Audio Levels</name>
							<effectid>audiolevels</effectid>
							<effectcategory>audiolevels</effectcategory>
							<effecttype>audiolevels</effecttype>
							<mediatype>audio</mediatype>
							<parameter>
								<name>Level</name>
								<parameterid>level</parameterid>
								<valuemin>0</valuemin>
								<valuemax>3.98109</valuemax>
								<keyframe>
									<when>81.2857</when>
									<value>0.0141254</value>
								</keyframe>
								<keyframe>
									<when>111</when>
									<value>0.0398107</value>
								</keyframe>
								<keyframe>
									<when>196.714</when>
									<value>0.0398107</value>
								</keyframe>
								<keyframe>
									<when>218.429</when>
									<value>0.0223872</value>
								</keyframe>
								<interpolation>
									<name>FCPCurve</name>
								</interpolation>
								<value>0.0223872</value>
							</parameter>
						</effect>
					</filter>
					<filter>
						<effect>
							<name>Audio Pan</name>
							<effectid>audiopan</effectid>
							<effectcategory>audiopan</effectcategory>
							<effecttype>audiopan</effecttype>
							<mediatype>audio</mediatype>
							<parameter>
								<name>Pan</name>
								<parameterid>pan</parameterid>
								<valuemin>-1</valuemin>
								<valuemax>1</valuemax>
								<value>-1</value>
							</parameter>
						</effect>
					</filter>
					<sourcetrack>
						<mediatype>audio</mediatype>
						<trackindex>1</trackindex>
					</sourcetrack>
					<link>
						<linkclipref>SCDV016851_LET-S GO 1_SONOTON.wav3</linkclipref>
						<mediatype>audio</mediatype>
						<trackindex>3</trackindex>
						<clipindex>28</clipindex>
						<groupindex>1</groupindex>
					</link>
					<link>
						<linkclipref>SCDV016851_LET-S GO 1_SONOTON.wav4</linkclipref>
						<mediatype>audio</mediatype>
						<trackindex>4</trackindex>
						<clipindex>25</clipindex>
						<groupindex>1</groupindex>
					</link>
				</clipitem>
				<clipitem id="WHOOSHLARG…WHOOSHBYFS105302.WAV">
					<name>WHOOSHLARG…WHOOSHBYFS105302.WAV</name>
					<duration>183</duration>
					<rate>
						<ntsc>FALSE</ntsc>
						<timebase>25</timebase>
					</rate>
					<in>0</in>
					<out>82</out>
					<start>10571</start>
					<end>10653</end>
					<subframeoffset>0</subframeoffset>
					<masterclipid>WHOOSHLARG…WHOOSHBYFS105302.WAV1</masterclipid>
					<logginginfo>
						<scene/>
						<shottake/>
						<lognote/>
						<good>FALSE</good>
					</logginginfo>
					<labels>
						<label2/>
					</labels>
					<comments>
						<mastercomment1/>
						<mastercomment2/>
						<mastercomment3/>
						<mastercomment4/>
					</comments>
					<file id="WHOOSHLARG…WHOOSHBYFS105302 ">
						<name>WHOOSHLARG…WHOOSHBYFS105302.WAV</name>
						<pathurl>file://localhost/Volumes/Askepott/Prosjekter/DNPR637010_Kra%CC%8Akeklubben_TEM_011212/Lydeffekter/WHOOSHLARG%E2%80%A6WHOOSHBYFS105302.WAV</pathurl>
						<rate>
							<timebase>25</timebase>
						</rate>
						<duration>92</duration>
						<timecode>
							<rate>
								<timebase>25</timebase>
							</rate>
							<string>00:00:00:00</string>
							<frame>0</frame>
							<displayformat>NDF</displayformat>
							<source>source</source>
						</timecode>
						<media>
							<audio>
								<rate>
									<timebase>44100</timebase>
								</rate>
								<trackcount>2</trackcount>
								<samplecharacteristics>
									<depth>16</depth>
								</samplecharacteristics>
							</audio>
						</media>
					</file>
					<filter>
						<effect>
							<name>Audio Levels</name>
							<effectid>audiolevels</effectid>
							<effectcategory>audiolevels</effectcategory>
							<effecttype>audiolevels</effecttype>
							<mediatype>audio</mediatype>
							<parameter>
								<name>Level</name>
								<parameterid>level</parameterid>
								<valuemin>0</valuemin>
								<valuemax>3.98109</valuemax>
								<value>0.251189</value>
							</parameter>
						</effect>
					</filter>
					<filter>
						<effect>
							<name>Audio Pan</name>
							<effectid>audiopan</effectid>
							<effectcategory>audiopan</effectcategory>
							<effecttype>audiopan</effecttype>
							<mediatype>audio</mediatype>
							<parameter>
								<name>Pan</name>
								<parameterid>pan</parameterid>
								<valuemin>-1</valuemin>
								<valuemax>1</valuemax>
								<value>-1</value>
							</parameter>
						</effect>
					</filter>
					<sourcetrack>
						<mediatype>audio</mediatype>
						<trackindex>1</trackindex>
					</sourcetrack>
					<link>
						<linkclipref>WHOOSHLARG…WHOOSHBYFS105302.WAV</linkclipref>
						<mediatype>audio</mediatype>
						<trackindex>3</trackindex>
						<clipindex>29</clipindex>
						<groupindex>1</groupindex>
					</link>
					<link>
						<linkclipref>WHOOSHLARG…WHOOSHBYFS105302.WAV2</linkclipref>
						<mediatype>audio</mediatype>
						<trackindex>4</trackindex>
						<clipindex>26</clipindex>
						<groupindex>1</groupindex>
					</link>
					<filter>
						<effect>
							<name>Time Remap</name>
							<effectid>timeremap</effectid>
							<effectcategory>motion</effectcategory>
							<effecttype>motion</effecttype>
							<mediatype>audio</mediatype>
							<parameter>
								<parameterid>variablespeed</parameterid>
								<name>variablespeed</name>
								<valuemin>0</valuemin>
								<valuemax>1</valuemax>
								<value>0</value>
							</parameter>
							<parameter>
								<parameterid>mappedduration</parameterid>
								<name>mappedduration</name>
								<value>
									<timecode>
										<rate>
											<timebase>0</timebase>
										</rate>
										<string>0</string>
										<frame>0</frame>
										<displayformat>NDF</displayformat>
									</timecode>
								</value>
							</parameter>
							<parameter>
								<parameterid>speed</parameterid>
								<name>speed</name>
								<valuemin>-10000</valuemin>
								<valuemax>10000</valuemax>
								<value>50</value>
							</parameter>
							<parameter>
								<parameterid>reverse</parameterid>
								<name>reverse</name>
								<value>FALSE</value>
							</parameter>
							<parameter>
								<parameterid>frameblending</parameterid>
								<name>frameblending</name>
								<value>TRUE</value>
							</parameter>
							<parameter>
								<parameterid>graphdict</parameterid>
								<name>graphdict</name>
								<valuemin>0</valuemin>
								<valuemax>91</valuemax>
								<keyframe>
									<when>0</when>
									<value>0.4999</value>
									<speedkfin>TRUE</speedkfin>
								</keyframe>
								<keyframe>
									<when>82</when>
									<value>41.4999</value>
									<speedkfout>TRUE</speedkfout>
									<speedvirtualkf>TRUE</speedvirtualkf>
								</keyframe>
								<keyframe>
									<when>183</when>
									<value>92.4999</value>
									<speedkfend>TRUE</speedkfend>
									<speedvirtualkf>TRUE</speedvirtualkf>
								</keyframe>
								<interpolation>
									<name>FCPCurve</name>
								</interpolation>
								<value>0.4999</value>
							</parameter>
						</effect>
					</filter>
				</clipitem>
				<clipitem id=" SWOOSH slow_1-2.aif">
					<name> SWOOSH slow_1-2.aif</name>
					<duration>221</duration>
					<rate>
						<ntsc>FALSE</ntsc>
						<timebase>25</timebase>
					</rate>
					<in>5</in>
					<out>46</out>
					<start>10871</start>
					<end>10912</end>
					<subframeoffset>0</subframeoffset>
					<masterclipid> SWOOSH slow_1-2.aif1</masterclipid>
					<logginginfo>
						<scene/>
						<shottake/>
						<lognote/>
						<good>FALSE</good>
					</logginginfo>
					<labels>
						<label2/>
					</labels>
					<comments>
						<mastercomment1/>
						<mastercomment2/>
						<mastercomment3/>
						<mastercomment4/>
					</comments>
					<file id=" SWOOSH slow_1-2 ">
						<name> SWOOSH slow_1-2.aif</name>
						<pathurl>file://localhost/Volumes/Askepott/Prosjekter/DNPR637010_Kra%CC%8Akeklubben_TEM_011212/Lydeffekter/%20SWOOSH%20slow_1-2.aif</pathurl>
						<rate>
							<timebase>25</timebase>
						</rate>
						<duration>154</duration>
						<media>
							<audio>
								<rate>
									<timebase>48000</timebase>
								</rate>
								<trackcount>2</trackcount>
								<samplecharacteristics>
									<depth>16</depth>
								</samplecharacteristics>
							</audio>
						</media>
					</file>
					<filter>
						<effect>
							<name>Audio Levels</name>
							<effectid>audiolevels</effectid>
							<effectcategory>audiolevels</effectcategory>
							<effecttype>audiolevels</effecttype>
							<mediatype>audio</mediatype>
							<parameter>
								<name>Level</name>
								<parameterid>level</parameterid>
								<valuemin>0</valuemin>
								<valuemax>3.98109</valuemax>
								<value>1</value>
							</parameter>
						</effect>
					</filter>
					<filter>
						<effect>
							<name>Audio Pan</name>
							<effectid>audiopan</effectid>
							<effectcategory>audiopan</effectcategory>
							<effecttype>audiopan</effecttype>
							<mediatype>audio</mediatype>
							<parameter>
								<name>Pan</name>
								<parameterid>pan</parameterid>
								<valuemin>-1</valuemin>
								<valuemax>1</valuemax>
								<value>-1</value>
							</parameter>
						</effect>
					</filter>
					<sourcetrack>
						<mediatype>audio</mediatype>
						<trackindex>1</trackindex>
					</sourcetrack>
					<link>
						<linkclipref> SWOOSH slow_1-2.aif</linkclipref>
						<mediatype>audio</mediatype>
						<trackindex>3</trackindex>
						<clipindex>30</clipindex>
						<groupindex>1</groupindex>
					</link>
					<link>
						<linkclipref> SWOOSH slow_1-2.aif2</linkclipref>
						<mediatype>audio</mediatype>
						<trackindex>4</trackindex>
						<clipindex>27</clipindex>
						<groupindex>1</groupindex>
					</link>
					<filter>
						<effect>
							<name>Time Remap</name>
							<effectid>timeremap</effectid>
							<effectcategory>motion</effectcategory>
							<effecttype>motion</effecttype>
							<mediatype>audio</mediatype>
							<parameter>
								<parameterid>variablespeed</parameterid>
								<name>variablespeed</name>
								<valuemin>0</valuemin>
								<valuemax>1</valuemax>
								<value>0</value>
							</parameter>
							<parameter>
								<parameterid>mappedduration</parameterid>
								<name>mappedduration</name>
								<value>
									<timecode>
										<rate>
											<timebase>0</timebase>
										</rate>
										<string>0</string>
										<frame>0</frame>
										<displayformat>NDF</displayformat>
									</timecode>
								</value>
							</parameter>
							<parameter>
								<parameterid>speed</parameterid>
								<name>speed</name>
								<valuemin>-10000</valuemin>
								<valuemax>10000</valuemax>
								<value>69</value>
							</parameter>
							<parameter>
								<parameterid>reverse</parameterid>
								<name>reverse</name>
								<value>FALSE</value>
							</parameter>
							<parameter>
								<parameterid>frameblending</parameterid>
								<name>frameblending</name>
								<value>TRUE</value>
							</parameter>
							<parameter>
								<parameterid>graphdict</parameterid>
								<name>graphdict</name>
								<valuemin>0</valuemin>
								<valuemax>153</valuemax>
								<keyframe>
									<when>0</when>
									<value>0.5227</value>
									<speedkfstart>TRUE</speedkfstart>
									<speedvirtualkf>TRUE</speedvirtualkf>
								</keyframe>
								<keyframe>
									<when>5</when>
									<value>3.99997</value>
									<speedkfin>TRUE</speedkfin>
									<speedvirtualkf>TRUE</speedvirtualkf>
								</keyframe>
								<keyframe>
									<when>46</when>
									<value>32.5136</value>
									<speedkfout>TRUE</speedkfout>
									<speedvirtualkf>TRUE</speedvirtualkf>
								</keyframe>
								<keyframe>
									<when>221</when>
									<value>154.523</value>
									<speedkfend>TRUE</speedkfend>
									<speedvirtualkf>TRUE</speedvirtualkf>
								</keyframe>
								<interpolation>
									<name>FCPCurve</name>
								</interpolation>
								<value>3.99997</value>
							</parameter>
						</effect>
					</filter>
				</clipitem>
				<clipitem id="WHOOSHLARG…WHOOSHBYFS105302.WAV3">
					<name>WHOOSHLARG…WHOOSHBYFS105302.WAV</name>
					<duration>454</duration>
					<rate>
						<ntsc>FALSE</ntsc>
						<timebase>25</timebase>
					</rate>
					<in>40</in>
					<out>110</out>
					<start>11196</start>
					<end>11266</end>
					<subframeoffset>0</subframeoffset>
					<masterclipid>WHOOSHLARG…WHOOSHBYFS105302.WAV1</masterclipid>
					<logginginfo>
						<scene/>
						<shottake/>
						<lognote/>
						<good>FALSE</good>
					</logginginfo>
					<labels>
						<label2/>
					</labels>
					<comments>
						<mastercomment1/>
						<mastercomment2/>
						<mastercomment3/>
						<mastercomment4/>
					</comments>
					<file id="WHOOSHLARG…WHOOSHBYFS105302 "/>
					<filter>
						<effect>
							<name>Audio Levels</name>
							<effectid>audiolevels</effectid>
							<effectcategory>audiolevels</effectcategory>
							<effecttype>audiolevels</effecttype>
							<mediatype>audio</mediatype>
							<parameter>
								<name>Level</name>
								<parameterid>level</parameterid>
								<valuemin>0</valuemin>
								<valuemax>3.98109</valuemax>
								<value>0.316228</value>
							</parameter>
						</effect>
					</filter>
					<filter>
						<effect>
							<name>Audio Pan</name>
							<effectid>audiopan</effectid>
							<effectcategory>audiopan</effectcategory>
							<effecttype>audiopan</effecttype>
							<mediatype>audio</mediatype>
							<parameter>
								<name>Pan</name>
								<parameterid>pan</parameterid>
								<valuemin>-1</valuemin>
								<valuemax>1</valuemax>
								<value>-1</value>
							</parameter>
						</effect>
					</filter>
					<sourcetrack>
						<mediatype>audio</mediatype>
						<trackindex>1</trackindex>
					</sourcetrack>
					<link>
						<linkclipref>WHOOSHLARG…WHOOSHBYFS105302.WAV3</linkclipref>
						<mediatype>audio</mediatype>
						<trackindex>3</trackindex>
						<clipindex>31</clipindex>
						<groupindex>1</groupindex>
					</link>
					<link>
						<linkclipref>WHOOSHLARG…WHOOSHBYFS105302.WAV4</linkclipref>
						<mediatype>audio</mediatype>
						<trackindex>4</trackindex>
						<clipindex>28</clipindex>
						<groupindex>1</groupindex>
					</link>
					<filter>
						<effect>
							<name>Time Remap</name>
							<effectid>timeremap</effectid>
							<effectcategory>motion</effectcategory>
							<effecttype>motion</effecttype>
							<mediatype>audio</mediatype>
							<parameter>
								<parameterid>variablespeed</parameterid>
								<name>variablespeed</name>
								<valuemin>0</valuemin>
								<valuemax>1</valuemax>
								<value>0</value>
							</parameter>
							<parameter>
								<parameterid>mappedduration</parameterid>
								<name>mappedduration</name>
								<value>
									<timecode>
										<rate>
											<timebase>0</timebase>
										</rate>
										<string>0</string>
										<frame>0</frame>
										<displayformat>NDF</displayformat>
									</timecode>
								</value>
							</parameter>
							<parameter>
								<parameterid>speed</parameterid>
								<name>speed</name>
								<valuemin>-10000</valuemin>
								<valuemax>10000</valuemax>
								<value>20</value>
							</parameter>
							<parameter>
								<parameterid>reverse</parameterid>
								<name>reverse</name>
								<value>FALSE</value>
							</parameter>
							<parameter>
								<parameterid>frameblending</parameterid>
								<name>frameblending</name>
								<value>TRUE</value>
							</parameter>
							<parameter>
								<parameterid>graphdict</parameterid>
								<name>graphdict</name>
								<valuemin>0</valuemin>
								<valuemax>91</valuemax>
								<keyframe>
									<when>0</when>
									<value>0.0981</value>
									<speedkfstart>TRUE</speedkfstart>
									<speedvirtualkf>TRUE</speedvirtualkf>
								</keyframe>
								<keyframe>
									<when>40</when>
									<value>8.13342</value>
									<speedkfin>TRUE</speedkfin>
									<speedvirtualkf>TRUE</speedvirtualkf>
								</keyframe>
								<keyframe>
									<when>110</when>
									<value>22.1952</value>
									<speedkfout>TRUE</speedkfout>
									<speedvirtualkf>TRUE</speedvirtualkf>
								</keyframe>
								<keyframe>
									<when>454</when>
									<value>92.0981</value>
									<speedkfend>TRUE</speedkfend>
									<speedvirtualkf>TRUE</speedvirtualkf>
								</keyframe>
								<interpolation>
									<name>FCPCurve</name>
								</interpolation>
								<value>8.13342</value>
							</parameter>
						</effect>
					</filter>
				</clipitem>
				<transitionitem id="26">
					<rate>
						<ntsc>FALSE</ntsc>
						<timebase>25</timebase>
					</rate>
					<start>11421</start>
					<end>11434</end>
					<alignment>start-black</alignment>
					<effect>
						<name>Cross Fade (+3dB)</name>
						<effecttype>transition</effecttype>
						<mediatype>audio</mediatype>
					</effect>
				</transitionitem>
				<clipitem id="XDCAM 20120614_094644_C0030 3">
					<name>XDCAM 20120614_094644_C0030</name>
					<duration>422</duration>
					<rate>
						<ntsc>FALSE</ntsc>
						<timebase>25</timebase>
					</rate>
					<in>297</in>
					<out>370</out>
					<start>-1</start>
					<end>-1</end>
					<subframeoffset>0</subframeoffset>
					<masterclipid>XDCAM 20120614_094644_C0030 1</masterclipid>
					<logginginfo>
						<scene/>
						<shottake/>
						<lognote/>
						<good>FALSE</good>
					</logginginfo>
					<labels>
						<label2/>
					</labels>
					<comments>
						<mastercomment1/>
						<mastercomment2/>
						<mastercomment3/>
						<mastercomment4/>
					</comments>
					<file id="XDCAM 20120614_094644_C0030 2"/>
					<filter>
						<effect>
							<name>Audio Levels</name>
							<effectid>audiolevels</effectid>
							<effectcategory>audiolevels</effectcategory>
							<effecttype>audiolevels</effecttype>
							<mediatype>audio</mediatype>
							<parameter>
								<name>Level</name>
								<parameterid>level</parameterid>
								<valuemin>0</valuemin>
								<valuemax>3.98109</valuemax>
								<keyframe>
									<when>342.857</when>
									<value>2.23872</value>
								</keyframe>
								<keyframe>
									<when>351.714</when>
									<value>1.58489</value>
								</keyframe>
								<interpolation>
									<name>FCPCurve</name>
								</interpolation>
								<value>1.99526</value>
							</parameter>
						</effect>
					</filter>
					<filter>
						<effect>
							<name>Audio Pan</name>
							<effectid>audiopan</effectid>
							<effectcategory>audiopan</effectcategory>
							<effecttype>audiopan</effecttype>
							<mediatype>audio</mediatype>
							<parameter>
								<name>Pan</name>
								<parameterid>pan</parameterid>
								<valuemin>-1</valuemin>
								<valuemax>1</valuemax>
								<value>0</value>
							</parameter>
						</effect>
					</filter>
					<sourcetrack>
						<mediatype>audio</mediatype>
						<trackindex>2</trackindex>
					</sourcetrack>
				</clipitem>
				<transitionitem id="27">
					<rate>
						<ntsc>FALSE</ntsc>
						<timebase>25</timebase>
					</rate>
					<start>11484</start>
					<end>11494</end>
					<alignment>end-black</alignment>
					<effect>
						<name>Cross Fade (+3dB)</name>
						<effecttype>transition</effecttype>
						<mediatype>audio</mediatype>
					</effect>
				</transitionitem>
				<clipitem id="XDCAM 20120614_094644_C0028 15">
					<name>XDCAM 20120614_094644_C0028</name>
					<duration>2022</duration>
					<rate>
						<ntsc>FALSE</ntsc>
						<timebase>25</timebase>
					</rate>
					<in>1734</in>
					<out>1741</out>
					<start>11613</start>
					<end>11620</end>
					<subframeoffset>0</subframeoffset>
					<masterclipid>XDCAM 20120614_094644_C0028 1</masterclipid>
					<logginginfo>
						<scene/>
						<shottake/>
						<lognote/>
						<good>FALSE</good>
					</logginginfo>
					<labels>
						<label2/>
					</labels>
					<comments>
						<mastercomment1/>
						<mastercomment2/>
						<mastercomment3/>
						<mastercomment4/>
					</comments>
					<file id="XDCAM 20120614_094644_C0028 2"/>
					<filter>
						<effect>
							<name>Audio Levels</name>
							<effectid>audiolevels</effectid>
							<effectcategory>audiolevels</effectcategory>
							<effecttype>audiolevels</effecttype>
							<mediatype>audio</mediatype>
							<parameter>
								<name>Level</name>
								<parameterid>level</parameterid>
								<valuemin>0</valuemin>
								<valuemax>3.98109</valuemax>
								<value>1.99526</value>
							</parameter>
						</effect>
					</filter>
					<filter>
						<effect>
							<name>Audio Pan</name>
							<effectid>audiopan</effectid>
							<effectcategory>audiopan</effectcategory>
							<effecttype>audiopan</effecttype>
							<mediatype>audio</mediatype>
							<parameter>
								<name>Pan</name>
								<parameterid>pan</parameterid>
								<valuemin>-1</valuemin>
								<valuemax>1</valuemax>
								<value>0</value>
							</parameter>
						</effect>
					</filter>
					<sourcetrack>
						<mediatype>audio</mediatype>
						<trackindex>2</trackindex>
					</sourcetrack>
				</clipitem>
				<clipitem id="XDCAM 20120614_094644_C0028 16">
					<name>XDCAM 20120614_094644_C0028</name>
					<duration>2554</duration>
					<rate>
						<ntsc>FALSE</ntsc>
						<timebase>25</timebase>
					</rate>
					<in>2175</in>
					<out>2197</out>
					<start>11783</start>
					<end>11805</end>
					<subframeoffset>0</subframeoffset>
					<masterclipid>XDCAM 20120614_094644_C0028 1</masterclipid>
					<logginginfo>
						<scene/>
						<shottake/>
						<lognote/>
						<good>FALSE</good>
					</logginginfo>
					<labels>
						<label2/>
					</labels>
					<comments>
						<mastercomment1/>
						<mastercomment2/>
						<mastercomment3/>
						<mastercomment4/>
					</comments>
					<file id="XDCAM 20120614_094644_C0028 2"/>
					<filter>
						<effect>
							<name>Audio Levels</name>
							<effectid>audiolevels</effectid>
							<effectcategory>audiolevels</effectcategory>
							<effecttype>audiolevels</effecttype>
							<mediatype>audio</mediatype>
							<parameter>
								<name>Level</name>
								<parameterid>level</parameterid>
								<valuemin>0</valuemin>
								<valuemax>3.98109</valuemax>
								<value>1</value>
							</parameter>
						</effect>
					</filter>
					<filter>
						<effect>
							<name>Audio Pan</name>
							<effectid>audiopan</effectid>
							<effectcategory>audiopan</effectcategory>
							<effecttype>audiopan</effecttype>
							<mediatype>audio</mediatype>
							<parameter>
								<name>Pan</name>
								<parameterid>pan</parameterid>
								<valuemin>-1</valuemin>
								<valuemax>1</valuemax>
								<value>0</value>
							</parameter>
						</effect>
					</filter>
					<sourcetrack>
						<mediatype>audio</mediatype>
						<trackindex>2</trackindex>
					</sourcetrack>
					<filter>
						<effect>
							<name>Time Remap</name>
							<effectid>timeremap</effectid>
							<effectcategory>motion</effectcategory>
							<effecttype>motion</effecttype>
							<mediatype>audio</mediatype>
							<parameter>
								<parameterid>variablespeed</parameterid>
								<name>variablespeed</name>
								<valuemin>0</valuemin>
								<valuemax>1</valuemax>
								<value>0</value>
							</parameter>
							<parameter>
								<parameterid>mappedduration</parameterid>
								<name>mappedduration</name>
								<value>
									<timecode>
										<rate>
											<timebase>0</timebase>
										</rate>
										<string>0</string>
										<frame>0</frame>
										<displayformat>NDF</displayformat>
									</timecode>
								</value>
							</parameter>
							<parameter>
								<parameterid>speed</parameterid>
								<name>speed</name>
								<valuemin>-10000</valuemin>
								<valuemax>10000</valuemax>
								<value>79</value>
							</parameter>
							<parameter>
								<parameterid>reverse</parameterid>
								<name>reverse</name>
								<value>FALSE</value>
							</parameter>
							<parameter>
								<parameterid>frameblending</parameterid>
								<name>frameblending</name>
								<value>TRUE</value>
							</parameter>
							<parameter>
								<parameterid>graphdict</parameterid>
								<name>graphdict</name>
								<valuemin>0</valuemin>
								<valuemax>2021</valuemax>
								<keyframe>
									<when>0</when>
									<value>0.6063</value>
									<speedkfstart>TRUE</speedkfstart>
									<speedvirtualkf>TRUE</speedvirtualkf>
								</keyframe>
								<keyframe>
									<when>2175</when>
									<value>1722.37</value>
									<speedkfin>TRUE</speedkfin>
									<speedvirtualkf>TRUE</speedvirtualkf>
								</keyframe>
								<keyframe>
									<when>2197</when>
									<value>1739.79</value>
									<speedkfout>TRUE</speedkfout>
									<speedvirtualkf>TRUE</speedvirtualkf>
								</keyframe>
								<keyframe>
									<when>2554</when>
									<value>2022.61</value>
									<speedkfend>TRUE</speedkfend>
									<speedvirtualkf>TRUE</speedvirtualkf>
								</keyframe>
								<interpolation>
									<name>FCPCurve</name>
								</interpolation>
								<value>1722.37</value>
							</parameter>
						</effect>
					</filter>
				</clipitem>
				<clipitem id="WHOOSHLARG…WHOOSHBYFS105302.WAV5">
					<name>WHOOSHLARG…WHOOSHBYFS105302.WAV</name>
					<duration>454</duration>
					<rate>
						<ntsc>FALSE</ntsc>
						<timebase>25</timebase>
					</rate>
					<in>40</in>
					<out>110</out>
					<start>11894</start>
					<end>11964</end>
					<subframeoffset>0</subframeoffset>
					<masterclipid>WHOOSHLARG…WHOOSHBYFS105302.WAV1</masterclipid>
					<logginginfo>
						<scene/>
						<shottake/>
						<lognote/>
						<good>FALSE</good>
					</logginginfo>
					<labels>
						<label2/>
					</labels>
					<comments>
						<mastercomment1/>
						<mastercomment2/>
						<mastercomment3/>
						<mastercomment4/>
					</comments>
					<file id="WHOOSHLARG…WHOOSHBYFS105302 "/>
					<filter>
						<effect>
							<name>Audio Levels</name>
							<effectid>audiolevels</effectid>
							<effectcategory>audiolevels</effectcategory>
							<effecttype>audiolevels</effecttype>
							<mediatype>audio</mediatype>
							<parameter>
								<name>Level</name>
								<parameterid>level</parameterid>
								<valuemin>0</valuemin>
								<valuemax>3.98109</valuemax>
								<value>0.446684</value>
							</parameter>
						</effect>
					</filter>
					<filter>
						<effect>
							<name>Audio Pan</name>
							<effectid>audiopan</effectid>
							<effectcategory>audiopan</effectcategory>
							<effecttype>audiopan</effecttype>
							<mediatype>audio</mediatype>
							<parameter>
								<name>Pan</name>
								<parameterid>pan</parameterid>
								<valuemin>-1</valuemin>
								<valuemax>1</valuemax>
								<value>-1</value>
							</parameter>
						</effect>
					</filter>
					<sourcetrack>
						<mediatype>audio</mediatype>
						<trackindex>1</trackindex>
					</sourcetrack>
					<link>
						<linkclipref>WHOOSHLARG…WHOOSHBYFS105302.WAV5</linkclipref>
						<mediatype>audio</mediatype>
						<trackindex>3</trackindex>
						<clipindex>37</clipindex>
						<groupindex>1</groupindex>
					</link>
					<link>
						<linkclipref>WHOOSHLARG…WHOOSHBYFS105302.WAV6</linkclipref>
						<mediatype>audio</mediatype>
						<trackindex>4</trackindex>
						<clipindex>30</clipindex>
						<groupindex>1</groupindex>
					</link>
					<filter>
						<effect>
							<name>Time Remap</name>
							<effectid>timeremap</effectid>
							<effectcategory>motion</effectcategory>
							<effecttype>motion</effecttype>
							<mediatype>audio</mediatype>
							<parameter>
								<parameterid>variablespeed</parameterid>
								<name>variablespeed</name>
								<valuemin>0</valuemin>
								<valuemax>1</valuemax>
								<value>0</value>
							</parameter>
							<parameter>
								<parameterid>mappedduration</parameterid>
								<name>mappedduration</name>
								<value>
									<timecode>
										<rate>
											<timebase>0</timebase>
										</rate>
										<string>0</string>
										<frame>0</frame>
										<displayformat>NDF</displayformat>
									</timecode>
								</value>
							</parameter>
							<parameter>
								<parameterid>speed</parameterid>
								<name>speed</name>
								<valuemin>-10000</valuemin>
								<valuemax>10000</valuemax>
								<value>20</value>
							</parameter>
							<parameter>
								<parameterid>reverse</parameterid>
								<name>reverse</name>
								<value>FALSE</value>
							</parameter>
							<parameter>
								<parameterid>frameblending</parameterid>
								<name>frameblending</name>
								<value>TRUE</value>
							</parameter>
							<parameter>
								<parameterid>graphdict</parameterid>
								<name>graphdict</name>
								<valuemin>0</valuemin>
								<valuemax>91</valuemax>
								<keyframe>
									<when>0</when>
									<value>0.0981</value>
									<speedkfstart>TRUE</speedkfstart>
									<speedvirtualkf>TRUE</speedvirtualkf>
								</keyframe>
								<keyframe>
									<when>40</when>
									<value>8.13342</value>
									<speedkfin>TRUE</speedkfin>
									<speedvirtualkf>TRUE</speedvirtualkf>
								</keyframe>
								<keyframe>
									<when>110</when>
									<value>22.1952</value>
									<speedkfout>TRUE</speedkfout>
									<speedvirtualkf>TRUE</speedvirtualkf>
								</keyframe>
								<keyframe>
									<when>454</when>
									<value>92.0981</value>
									<speedkfend>TRUE</speedkfend>
									<speedvirtualkf>TRUE</speedvirtualkf>
								</keyframe>
								<interpolation>
									<name>FCPCurve</name>
								</interpolation>
								<value>8.13342</value>
							</parameter>
						</effect>
					</filter>
				</clipitem>
				<clipitem id="SCD074302_MICROSCOPIC_SONOTON.wav">
					<name>SCD074302_MICROSCOPIC_SONOTON.wav</name>
					<duration>3084</duration>
					<rate>
						<ntsc>FALSE</ntsc>
						<timebase>25</timebase>
					</rate>
					<in>0</in>
					<out>1696</out>
					<start>14973</start>
					<end>16669</end>
					<masterclipid>SCD074302_MICROSCOPIC_SONOTON.wav1</masterclipid>
					<logginginfo>
						<scene/>
						<shottake/>
						<lognote/>
						<good>FALSE</good>
					</logginginfo>
					<labels>
						<label2/>
					</labels>
					<comments>
						<mastercomment1/>
						<mastercomment2/>
						<mastercomment3/>
						<mastercomment4/>
					</comments>
					<file id="SCD074302_MICROSCOPIC_SONOTON">
						<name>SCD074302_MICROSCOPIC_SONOTON.wav</name>
						<pathurl>file://localhost/Volumes/Askepott/Prosjekter/DNPR637010_Kra%CC%8Akeklubben_TEM_011212/Musikk/Tords%20garasje/SLOW/SCD074302_MICROSCOPIC_SONOTON.wav</pathurl>
						<rate>
							<timebase>25</timebase>
						</rate>
						<duration>3084</duration>
						<media>
							<audio>
								<rate>
									<timebase>48000</timebase>
								</rate>
								<trackcount>2</trackcount>
								<samplecharacteristics>
									<depth>16</depth>
								</samplecharacteristics>
							</audio>
						</media>
					</file>
					<filter>
						<effect>
							<name>Audio Levels</name>
							<effectid>audiolevels</effectid>
							<effectcategory>audiolevels</effectcategory>
							<effecttype>audiolevels</effecttype>
							<mediatype>audio</mediatype>
							<parameter>
								<name>Level</name>
								<parameterid>level</parameterid>
								<valuemin>0</valuemin>
								<valuemax>3.98109</valuemax>
								<keyframe>
									<when>0</when>
									<value>0.354813</value>
								</keyframe>
								<keyframe>
									<when>80.6696</when>
									<value>0.158489</value>
								</keyframe>
								<keyframe>
									<when>260.625</when>
									<value>0.0354813</value>
								</keyframe>
								<keyframe>
									<when>593.232</when>
									<value>0.0354813</value>
								</keyframe>
								<keyframe>
									<when>660.25</when>
									<value>0.158489</value>
								</keyframe>
								<keyframe>
									<when>866.268</when>
									<value>0.158489</value>
								</keyframe>
								<keyframe>
									<when>951.902</when>
									<value>0.0630957</value>
								</keyframe>
								<keyframe>
									<when>1108.28</when>
									<value>0.0630957</value>
								</keyframe>
								<keyframe>
									<when>1191.43</when>
									<value>0.0177828</value>
								</keyframe>
								<keyframe>
									<when>1412.34</when>
									<value>0</value>
								</keyframe>
								<interpolation>
									<name>FCPCurve</name>
								</interpolation>
								<value>1</value>
							</parameter>
						</effect>
					</filter>
					<filter>
						<effect>
							<name>Audio Pan</name>
							<effectid>audiopan</effectid>
							<effectcategory>audiopan</effectcategory>
							<effecttype>audiopan</effecttype>
							<mediatype>audio</mediatype>
							<parameter>
								<name>Pan</name>
								<parameterid>pan</parameterid>
								<valuemin>-1</valuemin>
								<valuemax>1</valuemax>
								<value>-1</value>
							</parameter>
						</effect>
					</filter>
					<sourcetrack>
						<mediatype>audio</mediatype>
						<trackindex>1</trackindex>
					</sourcetrack>
					<link>
						<linkclipref>SCD074302_MICROSCOPIC_SONOTON.wav</linkclipref>
						<mediatype>audio</mediatype>
						<trackindex>3</trackindex>
						<clipindex>38</clipindex>
						<groupindex>1</groupindex>
					</link>
					<link>
						<linkclipref>SCD074302_MICROSCOPIC_SONOTON.wav2</linkclipref>
						<mediatype>audio</mediatype>
						<trackindex>4</trackindex>
						<clipindex>31</clipindex>
						<groupindex>1</groupindex>
					</link>
				</clipitem>
				<clipitem id="FWM005515_SEQUENTIAL SCIENCE_SONOTON.wav">
					<name>FWM005515_SEQUENTIAL SCIENCE_SONOTON.wav</name>
					<duration>3143</duration>
					<rate>
						<ntsc>FALSE</ntsc>
						<timebase>25</timebase>
					</rate>
					<in>0</in>
					<out>525</out>
					<start>17778</start>
					<end>-1</end>
					<masterclipid>FWM005515_SEQUENTIAL SCIENCE_SONOTON.wav1</masterclipid>
					<logginginfo>
						<scene/>
						<shottake/>
						<lognote/>
						<good>FALSE</good>
					</logginginfo>
					<labels>
						<label2/>
					</labels>
					<comments>
						<mastercomment1/>
						<mastercomment2/>
						<mastercomment3/>
						<mastercomment4/>
					</comments>
					<file id="FWM005515_SEQUENTIAL SCIENCE_SONOTON">
						<name>FWM005515_SEQUENTIAL SCIENCE_SONOTON.wav</name>
						<pathurl>file://localhost/Volumes/Askepott/Prosjekter/DNPR637010_Kra%CC%8Akeklubben_TEM_011212/Musikk/Tords%20garasje/SLOW/FWM005515_SEQUENTIAL%20SCIENCE_SONOTON.wav</pathurl>
						<rate>
							<timebase>25</timebase>
						</rate>
						<duration>3143</duration>
						<timecode>
							<rate>
								<timebase>25</timebase>
							</rate>
							<string>00:00:04:12</string>
							<frame>112</frame>
							<displayformat>NDF</displayformat>
							<source>source</source>
						</timecode>
						<media>
							<audio>
								<rate>
									<timebase>48000</timebase>
								</rate>
								<trackcount>2</trackcount>
								<samplecharacteristics>
									<depth>16</depth>
								</samplecharacteristics>
							</audio>
						</media>
					</file>
					<filter>
						<effect>
							<name>Audio Levels</name>
							<effectid>audiolevels</effectid>
							<effectcategory>audiolevels</effectcategory>
							<effecttype>audiolevels</effecttype>
							<mediatype>audio</mediatype>
							<parameter>
								<name>Level</name>
								<parameterid>level</parameterid>
								<valuemin>0</valuemin>
								<valuemax>3.98109</valuemax>
								<keyframe>
									<when>92.75</when>
									<value>0.446686</value>
								</keyframe>
								<keyframe>
									<when>149.188</when>
									<value>1.12202</value>
								</keyframe>
								<interpolation>
									<name>FCPCurve</name>
								</interpolation>
								<value>1</value>
							</parameter>
						</effect>
					</filter>
					<filter>
						<effect>
							<name>Audio Pan</name>
							<effectid>audiopan</effectid>
							<effectcategory>audiopan</effectcategory>
							<effecttype>audiopan</effecttype>
							<mediatype>audio</mediatype>
							<parameter>
								<name>Pan</name>
								<parameterid>pan</parameterid>
								<valuemin>-1</valuemin>
								<valuemax>1</valuemax>
								<value>-1</value>
							</parameter>
						</effect>
					</filter>
					<sourcetrack>
						<mediatype>audio</mediatype>
						<trackindex>1</trackindex>
					</sourcetrack>
					<link>
						<linkclipref>FWM005515_SEQUENTIAL SCIENCE_SONOTON.wav</linkclipref>
						<mediatype>audio</mediatype>
						<trackindex>3</trackindex>
						<clipindex>39</clipindex>
						<groupindex>1</groupindex>
					</link>
					<link>
						<linkclipref>FWM005515_SEQUENTIAL SCIENCE_SONOTON.wav2</linkclipref>
						<mediatype>audio</mediatype>
						<trackindex>4</trackindex>
						<clipindex>32</clipindex>
						<groupindex>1</groupindex>
					</link>
				</clipitem>
				<transitionitem id="1253946392 ">
					<rate>
						<ntsc>FALSE</ntsc>
						<timebase>25</timebase>
					</rate>
					<start>18234</start>
					<end>18303</end>
					<alignment>center</alignment>
					<effect>
						<name>Cross Fade (+3dB)</name>
						<effecttype>transition</effecttype>
						<mediatype>audio</mediatype>
					</effect>
				</transitionitem>
				<clipitem id="FWM005515_SEQUENTIAL SCIENCE_SONOTON.wav3">
					<name>FWM005515_SEQUENTIAL SCIENCE_SONOTON.wav</name>
					<duration>3143</duration>
					<rate>
						<ntsc>FALSE</ntsc>
						<timebase>25</timebase>
					</rate>
					<in>2135</in>
					<out>2521</out>
					<start>-1</start>
					<end>18620</end>
					<masterclipid>FWM005515_SEQUENTIAL SCIENCE_SONOTON.wav4</masterclipid>
					<logginginfo>
						<scene/>
						<shottake/>
						<lognote/>
						<good>FALSE</good>
					</logginginfo>
					<labels>
						<label2/>
					</labels>
					<comments>
						<mastercomment1/>
						<mastercomment2/>
						<mastercomment3/>
						<mastercomment4/>
					</comments>
					<file id="FWM005515_SEQUENTIAL SCIENCE_SONOTON"/>
					<filter>
						<effect>
							<name>Audio Levels</name>
							<effectid>audiolevels</effectid>
							<effectcategory>audiolevels</effectcategory>
							<effecttype>audiolevels</effecttype>
							<mediatype>audio</mediatype>
							<parameter>
								<name>Level</name>
								<parameterid>level</parameterid>
								<valuemin>0</valuemin>
								<valuemax>3.98109</valuemax>
								<keyframe>
									<when>92.75</when>
									<value>0.112202</value>
								</keyframe>
								<keyframe>
									<when>149.188</when>
									<value>1.00001</value>
								</keyframe>
								<keyframe>
									<when>2459.46</when>
									<value>1.00001</value>
								</keyframe>
								<keyframe>
									<when>2574.38</when>
									<value>0.199527</value>
								</keyframe>
								<interpolation>
									<name>FCPCurve</name>
								</interpolation>
								<value>1</value>
							</parameter>
						</effect>
					</filter>
					<filter>
						<effect>
							<name>Audio Pan</name>
							<effectid>audiopan</effectid>
							<effectcategory>audiopan</effectcategory>
							<effecttype>audiopan</effecttype>
							<mediatype>audio</mediatype>
							<parameter>
								<name>Pan</name>
								<parameterid>pan</parameterid>
								<valuemin>-1</valuemin>
								<valuemax>1</valuemax>
								<value>-1</value>
							</parameter>
						</effect>
					</filter>
					<sourcetrack>
						<mediatype>audio</mediatype>
						<trackindex>1</trackindex>
					</sourcetrack>
					<link>
						<linkclipref>FWM005515_SEQUENTIAL SCIENCE_SONOTON.wav3</linkclipref>
						<mediatype>audio</mediatype>
						<trackindex>3</trackindex>
						<clipindex>41</clipindex>
						<groupindex>1</groupindex>
					</link>
					<link>
						<linkclipref>FWM005515_SEQUENTIAL SCIENCE_SONOTON.wav5</linkclipref>
						<mediatype>audio</mediatype>
						<trackindex>4</trackindex>
						<clipindex>34</clipindex>
						<groupindex>1</groupindex>
					</link>
				</clipitem>
				<clipitem id="FWM005515_SEQUENTIAL SCIENCE_SONOTON.wav6">
					<name>FWM005515_SEQUENTIAL SCIENCE_SONOTON.wav</name>
					<duration>3143</duration>
					<rate>
						<ntsc>FALSE</ntsc>
						<timebase>25</timebase>
					</rate>
					<in>2521</in>
					<out>2779</out>
					<start>18620</start>
					<end>-1</end>
					<masterclipid>FWM005515_SEQUENTIAL SCIENCE_SONOTON.wav7</masterclipid>
					<logginginfo>
						<scene/>
						<shottake/>
						<lognote/>
						<good>FALSE</good>
					</logginginfo>
					<labels>
						<label2/>
					</labels>
					<comments>
						<mastercomment1/>
						<mastercomment2/>
						<mastercomment3/>
						<mastercomment4/>
					</comments>
					<file id="FWM005515_SEQUENTIAL SCIENCE_SONOTON"/>
					<filter>
						<effect>
							<name>Audio Levels</name>
							<effectid>audiolevels</effectid>
							<effectcategory>audiolevels</effectcategory>
							<effecttype>audiolevels</effecttype>
							<mediatype>audio</mediatype>
							<parameter>
								<name>Level</name>
								<parameterid>level</parameterid>
								<valuemin>0</valuemin>
								<valuemax>3.98109</valuemax>
								<keyframe>
									<when>92.75</when>
									<value>0.112202</value>
								</keyframe>
								<keyframe>
									<when>149.188</when>
									<value>0.251189</value>
								</keyframe>
								<keyframe>
									<when>2459.46</when>
									<value>1.00001</value>
								</keyframe>
								<keyframe>
									<when>2574.38</when>
									<value>0.199527</value>
								</keyframe>
								<interpolation>
									<name>FCPCurve</name>
								</interpolation>
								<value>1</value>
							</parameter>
						</effect>
					</filter>
					<filter>
						<effect>
							<name>Audio Pan</name>
							<effectid>audiopan</effectid>
							<effectcategory>audiopan</effectcategory>
							<effecttype>audiopan</effecttype>
							<mediatype>audio</mediatype>
							<parameter>
								<name>Pan</name>
								<parameterid>pan</parameterid>
								<valuemin>-1</valuemin>
								<valuemax>1</valuemax>
								<value>-1</value>
							</parameter>
						</effect>
					</filter>
					<sourcetrack>
						<mediatype>audio</mediatype>
						<trackindex>1</trackindex>
					</sourcetrack>
					<link>
						<linkclipref>FWM005515_SEQUENTIAL SCIENCE_SONOTON.wav6</linkclipref>
						<mediatype>audio</mediatype>
						<trackindex>3</trackindex>
						<clipindex>42</clipindex>
						<groupindex>1</groupindex>
					</link>
					<link>
						<linkclipref>FWM005515_SEQUENTIAL SCIENCE_SONOTON.wav8</linkclipref>
						<mediatype>audio</mediatype>
						<trackindex>4</trackindex>
						<clipindex>35</clipindex>
						<groupindex>1</groupindex>
					</link>
				</clipitem>
				<transitionitem id="1253944488 ">
					<rate>
						<ntsc>FALSE</ntsc>
						<timebase>25</timebase>
					</rate>
					<start>18853</start>
					<end>18878</end>
					<alignment>center</alignment>
					<effect>
						<name>Cross Fade (+3dB)</name>
						<effecttype>transition</effecttype>
						<mediatype>audio</mediatype>
					</effect>
				</transitionitem>
				<clipitem id="FWM005515_SEQUENTIAL SCIENCE_SONOTON.wav9">
					<name>FWM005515_SEQUENTIAL SCIENCE_SONOTON.wav</name>
					<duration>3143</duration>
					<rate>
						<ntsc>FALSE</ntsc>
						<timebase>25</timebase>
					</rate>
					<in>2556</in>
					<out>2742</out>
					<start>-1</start>
					<end>-1</end>
					<masterclipid>FWM005515_SEQUENTIAL SCIENCE_SONOTON.wav10</masterclipid>
					<logginginfo>
						<scene/>
						<shottake/>
						<lognote/>
						<good>FALSE</good>
					</logginginfo>
					<labels>
						<label2/>
					</labels>
					<comments>
						<mastercomment1/>
						<mastercomment2/>
						<mastercomment3/>
						<mastercomment4/>
					</comments>
					<file id="FWM005515_SEQUENTIAL SCIENCE_SONOTON"/>
					<filter>
						<effect>
							<name>Audio Levels</name>
							<effectid>audiolevels</effectid>
							<effectcategory>audiolevels</effectcategory>
							<effecttype>audiolevels</effecttype>
							<mediatype>audio</mediatype>
							<parameter>
								<name>Level</name>
								<parameterid>level</parameterid>
								<valuemin>0</valuemin>
								<valuemax>3.98109</valuemax>
								<keyframe>
									<when>92.75</when>
									<value>0.112202</value>
								</keyframe>
								<keyframe>
									<when>149.188</when>
									<value>0.251189</value>
								</keyframe>
								<keyframe>
									<when>2459.46</when>
									<value>0.251189</value>
								</keyframe>
								<keyframe>
									<when>2544.7</when>
									<value>0.25119</value>
								</keyframe>
								<keyframe>
									<when>2574.38</when>
									<value>0.25119</value>
								</keyframe>
								<interpolation>
									<name>FCPCurve</name>
								</interpolation>
								<value>1</value>
							</parameter>
						</effect>
					</filter>
					<filter>
						<effect>
							<name>Audio Pan</name>
							<effectid>audiopan</effectid>
							<effectcategory>audiopan</effectcategory>
							<effecttype>audiopan</effecttype>
							<mediatype>audio</mediatype>
							<parameter>
								<name>Pan</name>
								<parameterid>pan</parameterid>
								<valuemin>-1</valuemin>
								<valuemax>1</valuemax>
								<value>-1</value>
							</parameter>
						</effect>
					</filter>
					<sourcetrack>
						<mediatype>audio</mediatype>
						<trackindex>1</trackindex>
					</sourcetrack>
					<link>
						<linkclipref>FWM005515_SEQUENTIAL SCIENCE_SONOTON.wav9</linkclipref>
						<mediatype>audio</mediatype>
						<trackindex>3</trackindex>
						<clipindex>44</clipindex>
						<groupindex>1</groupindex>
					</link>
					<link>
						<linkclipref>FWM005515_SEQUENTIAL SCIENCE_SONOTON.wav11</linkclipref>
						<mediatype>audio</mediatype>
						<trackindex>4</trackindex>
						<clipindex>37</clipindex>
						<groupindex>1</groupindex>
					</link>
				</clipitem>
				<transitionitem id="1253943264 ">
					<rate>
						<ntsc>FALSE</ntsc>
						<timebase>25</timebase>
					</rate>
					<start>19014</start>
					<end>19039</end>
					<alignment>center</alignment>
					<effect>
						<name>Cross Fade (+3dB)</name>
						<effecttype>transition</effecttype>
						<mediatype>audio</mediatype>
					</effect>
				</transitionitem>
				<clipitem id="FWM005515_SEQUENTIAL SCIENCE_SONOTON.wav12">
					<name>FWM005515_SEQUENTIAL SCIENCE_SONOTON.wav</name>
					<duration>3143</duration>
					<rate>
						<ntsc>FALSE</ntsc>
						<timebase>25</timebase>
					</rate>
					<in>2746</in>
					<out>3143</out>
					<start>-1</start>
					<end>19411</end>
					<masterclipid>FWM005515_SEQUENTIAL SCIENCE_SONOTON.wav13</masterclipid>
					<logginginfo>
						<scene/>
						<shottake/>
						<lognote/>
						<good>FALSE</good>
					</logginginfo>
					<labels>
						<label2/>
					</labels>
					<comments>
						<mastercomment1/>
						<mastercomment2/>
						<mastercomment3/>
						<mastercomment4/>
					</comments>
					<file id="FWM005515_SEQUENTIAL SCIENCE_SONOTON"/>
					<filter>
						<effect>
							<name>Audio Levels</name>
							<effectid>audiolevels</effectid>
							<effectcategory>audiolevels</effectcategory>
							<effecttype>audiolevels</effecttype>
							<mediatype>audio</mediatype>
							<parameter>
								<name>Level</name>
								<parameterid>level</parameterid>
								<valuemin>0</valuemin>
								<valuemax>3.98109</valuemax>
								<keyframe>
									<when>92.75</when>
									<value>0.112202</value>
								</keyframe>
								<keyframe>
									<when>149.188</when>
									<value>0.251189</value>
								</keyframe>
								<keyframe>
									<when>2459.46</when>
									<value>0.251189</value>
								</keyframe>
								<keyframe>
									<when>2574.38</when>
									<value>0.199527</value>
								</keyframe>
								<keyframe>
									<when>2876.25</when>
									<value>0.354815</value>
								</keyframe>
								<keyframe>
									<when>2982</when>
									<value>1.12202</value>
								</keyframe>
								<interpolation>
									<name>FCPCurve</name>
								</interpolation>
								<value>1</value>
							</parameter>
						</effect>
					</filter>
					<filter>
						<effect>
							<name>Audio Pan</name>
							<effectid>audiopan</effectid>
							<effectcategory>audiopan</effectcategory>
							<effecttype>audiopan</effecttype>
							<mediatype>audio</mediatype>
							<parameter>
								<name>Pan</name>
								<parameterid>pan</parameterid>
								<valuemin>-1</valuemin>
								<valuemax>1</valuemax>
								<value>-1</value>
							</parameter>
						</effect>
					</filter>
					<sourcetrack>
						<mediatype>audio</mediatype>
						<trackindex>1</trackindex>
					</sourcetrack>
					<link>
						<linkclipref>FWM005515_SEQUENTIAL SCIENCE_SONOTON.wav12</linkclipref>
						<mediatype>audio</mediatype>
						<trackindex>3</trackindex>
						<clipindex>46</clipindex>
						<groupindex>1</groupindex>
					</link>
					<link>
						<linkclipref>FWM005515_SEQUENTIAL SCIENCE_SONOTON.wav14</linkclipref>
						<mediatype>audio</mediatype>
						<trackindex>4</trackindex>
						<clipindex>39</clipindex>
						<groupindex>1</groupindex>
					</link>
				</clipitem>
				<transitionitem id="1253941904 ">
					<rate>
						<ntsc>FALSE</ntsc>
						<timebase>25</timebase>
					</rate>
					<start>19577</start>
					<end>19677</end>
					<alignment>start-black</alignment>
					<effect>
						<name>Cross Fade (+3dB)</name>
						<effecttype>transition</effecttype>
						<mediatype>audio</mediatype>
					</effect>
				</transitionitem>
				<clipitem id="AUXMP_SCDV016849_LAS VEGAS WEDDING.wav">
					<name>AUXMP_SCDV016849_LAS VEGAS WEDDING.wav</name>
					<duration>1887</duration>
					<rate>
						<ntsc>FALSE</ntsc>
						<timebase>25</timebase>
					</rate>
					<in>0</in>
					<out>1041</out>
					<start>-1</start>
					<end>20618</end>
					<subframeoffset>0</subframeoffset>
					<masterclipid>AUXMP_SCDV016849_LAS VEGAS WEDDING.wav1</masterclipid>
					<logginginfo>
						<scene/>
						<shottake/>
						<lognote/>
						<good>FALSE</good>
					</logginginfo>
					<labels>
						<label2/>
					</labels>
					<comments>
						<mastercomment1/>
						<mastercomment2/>
						<mastercomment3/>
						<mastercomment4/>
					</comments>
					<file id="AUXMP_SCDV016849_LAS VEGAS WEDDING">
						<name>AUXMP_SCDV016849_LAS VEGAS WEDDING.wav</name>
						<pathurl>file://localhost/Volumes/Askepott/Prosjekter/DNPR637010_Kra%CC%8Akeklubben_TEM_011212/Musikk/Mellomstikk/S03E08/AUXMP_SCDV016849_LAS%20VEGAS%20WEDDING.wav</pathurl>
						<rate>
							<timebase>25</timebase>
						</rate>
						<duration>1887</duration>
						<timecode>
							<rate>
								<timebase>25</timebase>
							</rate>
							<string>00:36:35:22</string>
							<frame>54897</frame>
							<displayformat>NDF</displayformat>
							<source>source</source>
						</timecode>
						<media>
							<audio>
								<rate>
									<timebase>48000</timebase>
								</rate>
								<trackcount>2</trackcount>
								<samplecharacteristics>
									<depth>16</depth>
								</samplecharacteristics>
							</audio>
						</media>
					</file>
					<filter>
						<effect>
							<name>Audio Levels</name>
							<effectid>audiolevels</effectid>
							<effectcategory>audiolevels</effectcategory>
							<effecttype>audiolevels</effecttype>
							<mediatype>audio</mediatype>
							<parameter>
								<name>Level</name>
								<parameterid>level</parameterid>
								<valuemin>0</valuemin>
								<valuemax>3.98109</valuemax>
								<keyframe>
									<when>801.714</when>
									<value>0.0199526</value>
								</keyframe>
								<keyframe>
									<when>1002.86</when>
									<value>0</value>
								</keyframe>
								<interpolation>
									<name>FCPCurve</name>
								</interpolation>
								<value>0.00891251</value>
							</parameter>
						</effect>
					</filter>
					<filter>
						<effect>
							<name>Audio Pan</name>
							<effectid>audiopan</effectid>
							<effectcategory>audiopan</effectcategory>
							<effecttype>audiopan</effecttype>
							<mediatype>audio</mediatype>
							<parameter>
								<name>Pan</name>
								<parameterid>pan</parameterid>
								<valuemin>-1</valuemin>
								<valuemax>1</valuemax>
								<value>-1</value>
							</parameter>
						</effect>
					</filter>
					<sourcetrack>
						<mediatype>audio</mediatype>
						<trackindex>1</trackindex>
					</sourcetrack>
					<link>
						<linkclipref>AUXMP_SCDV016849_LAS VEGAS WEDDING.wav</linkclipref>
						<mediatype>audio</mediatype>
						<trackindex>3</trackindex>
						<clipindex>48</clipindex>
						<groupindex>1</groupindex>
					</link>
					<link>
						<linkclipref>AUXMP_SCDV016849_LAS VEGAS WEDDING.wav2</linkclipref>
						<mediatype>audio</mediatype>
						<trackindex>4</trackindex>
						<clipindex>41</clipindex>
						<groupindex>1</groupindex>
					</link>
				</clipitem>
				<clipitem id="AUXMP_SCDV016849_LAS VEGAS WEDDING.wav3">
					<name>AUXMP_SCDV016849_LAS VEGAS WEDDING.wav</name>
					<duration>1887</duration>
					<rate>
						<ntsc>FALSE</ntsc>
						<timebase>25</timebase>
					</rate>
					<in>0</in>
					<out>1793</out>
					<start>21970</start>
					<end>23763</end>
					<subframeoffset>0</subframeoffset>
					<masterclipid>AUXMP_SCDV016849_LAS VEGAS WEDDING.wav1</masterclipid>
					<logginginfo>
						<scene/>
						<shottake/>
						<lognote/>
						<good>FALSE</good>
					</logginginfo>
					<labels>
						<label2/>
					</labels>
					<comments>
						<mastercomment1/>
						<mastercomment2/>
						<mastercomment3/>
						<mastercomment4/>
					</comments>
					<file id="AUXMP_SCDV016849_LAS VEGAS WEDDING"/>
					<filter>
						<effect>
							<name>Audio Levels</name>
							<effectid>audiolevels</effectid>
							<effectcategory>audiolevels</effectcategory>
							<effecttype>audiolevels</effecttype>
							<mediatype>audio</mediatype>
							<parameter>
								<name>Level</name>
								<parameterid>level</parameterid>
								<valuemin>0</valuemin>
								<valuemax>3.98109</valuemax>
								<keyframe>
									<when>55.8571</when>
									<value>0</value>
								</keyframe>
								<keyframe>
									<when>130.143</when>
									<value>0.0354813</value>
								</keyframe>
								<keyframe>
									<when>1616.71</when>
									<value>0.0354813</value>
								</keyframe>
								<keyframe>
									<when>1757.86</when>
									<value>0</value>
								</keyframe>
								<interpolation>
									<name>FCPCurve</name>
								</interpolation>
								<value>0.112202</value>
							</parameter>
						</effect>
					</filter>
					<filter>
						<effect>
							<name>Audio Pan</name>
							<effectid>audiopan</effectid>
							<effectcategory>audiopan</effectcategory>
							<effecttype>audiopan</effecttype>
							<mediatype>audio</mediatype>
							<parameter>
								<name>Pan</name>
								<parameterid>pan</parameterid>
								<valuemin>-1</valuemin>
								<valuemax>1</valuemax>
								<value>-1</value>
							</parameter>
						</effect>
					</filter>
					<sourcetrack>
						<mediatype>audio</mediatype>
						<trackindex>1</trackindex>
					</sourcetrack>
					<link>
						<linkclipref>AUXMP_SCDV016849_LAS VEGAS WEDDING.wav3</linkclipref>
						<mediatype>audio</mediatype>
						<trackindex>3</trackindex>
						<clipindex>49</clipindex>
						<groupindex>1</groupindex>
					</link>
					<link>
						<linkclipref>AUXMP_SCDV016849_LAS VEGAS WEDDING.wav4</linkclipref>
						<mediatype>audio</mediatype>
						<trackindex>4</trackindex>
						<clipindex>42</clipindex>
						<groupindex>1</groupindex>
					</link>
				</clipitem>
				<clipitem id="Meitemark-sangen3">
					<name>Meitemark-sangen</name>
					<duration>3263</duration>
					<rate>
						<ntsc>FALSE</ntsc>
						<timebase>25</timebase>
					</rate>
					<in>13</in>
					<out>87</out>
					<start>24309</start>
					<end>24383</end>
					<subframeoffset>0</subframeoffset>
					<masterclipid>Meitemark-sangen1</masterclipid>
					<logginginfo>
						<scene/>
						<shottake/>
						<lognote/>
						<good>FALSE</good>
					</logginginfo>
					<labels>
						<label2/>
					</labels>
					<comments>
						<mastercomment1/>
						<mastercomment2/>
						<mastercomment3/>
						<mastercomment4/>
					</comments>
					<file id="Meitemark-sangen2"/>
					<filter>
						<effect>
							<name>Audio Levels</name>
							<effectid>audiolevels</effectid>
							<effectcategory>audiolevels</effectcategory>
							<effecttype>audiolevels</effecttype>
							<mediatype>audio</mediatype>
							<parameter>
								<name>Level</name>
								<parameterid>level</parameterid>
								<valuemin>0</valuemin>
								<valuemax>3.98109</valuemax>
								<keyframe>
									<when>14.1429</when>
									<value>0.501187</value>
								</keyframe>
								<keyframe>
									<when>51.8571</when>
									<value>1</value>
								</keyframe>
								<interpolation>
									<name>FCPCurve</name>
								</interpolation>
								<value>1</value>
							</parameter>
						</effect>
					</filter>
					<filter>
						<effect>
							<name>Audio Pan</name>
							<effectid>audiopan</effectid>
							<effectcategory>audiopan</effectcategory>
							<effecttype>audiopan</effecttype>
							<mediatype>audio</mediatype>
							<parameter>
								<name>Pan</name>
								<parameterid>pan</parameterid>
								<valuemin>-1</valuemin>
								<valuemax>1</valuemax>
								<value>-1</value>
							</parameter>
						</effect>
					</filter>
					<sourcetrack>
						<mediatype>audio</mediatype>
						<trackindex>1</trackindex>
					</sourcetrack>
					<link>
						<linkclipref>Meitemark-sangen</linkclipref>
						<mediatype>video</mediatype>
						<trackindex>1</trackindex>
						<clipindex>173</clipindex>
					</link>
					<link>
						<linkclipref>Meitemark-sangen3</linkclipref>
						<mediatype>audio</mediatype>
						<trackindex>3</trackindex>
						<clipindex>50</clipindex>
						<groupindex>1</groupindex>
					</link>
					<link>
						<linkclipref>Meitemark-sangen4</linkclipref>
						<mediatype>audio</mediatype>
						<trackindex>4</trackindex>
						<clipindex>43</clipindex>
						<groupindex>1</groupindex>
					</link>
				</clipitem>
				<clipitem id="DNPR63700911AA.mxf">
					<name>DNPR63700911AA.mxf</name>
					<duration>31443</duration>
					<rate>
						<ntsc>FALSE</ntsc>
						<timebase>25</timebase>
					</rate>
					<in>24713</in>
					<out>27768</out>
					<start>24383</start>
					<end>27438</end>
					<subframeoffset>0</subframeoffset>
					<masterclipid>DNPR63700911AA.mxf1</masterclipid>
					<logginginfo>
						<scene/>
						<shottake/>
						<lognote/>
						<good>FALSE</good>
					</logginginfo>
					<labels>
						<label2/>
					</labels>
					<comments>
						<mastercomment1/>
						<mastercomment2/>
						<mastercomment3/>
						<mastercomment4/>
					</comments>
					<file id="DNPR63700911AA">
						<name>DNPR63700911AA.mxf</name>
						<pathurl>file://localhost/Volumes/omfs/clip.dir/MXF/1080i/DNPR63700911AA.mxf</pathurl>
						<rate>
							<timebase>25</timebase>
						</rate>
						<duration>31443</duration>
						<timecode>
							<rate>
								<timebase>25</timebase>
							</rate>
							<string>00:00:00:00</string>
							<frame>0</frame>
							<displayformat>NDF</displayformat>
							<source>source</source>
						</timecode>
						<media>
							<video>
								<duration>31443</duration>
								<samplecharacteristics>
									<width>1920</width>
									<height>1080</height>
								</samplecharacteristics>
							</video>
							<audio>
								<rate>
									<timebase>48000</timebase>
								</rate>
								<trackcount>1</trackcount>
								<samplecharacteristics>
									<depth>24</depth>
								</samplecharacteristics>
							</audio>
						</media>
					</file>
					<filter>
						<effect>
							<name>Audio Levels</name>
							<effectid>audiolevels</effectid>
							<effectcategory>audiolevels</effectcategory>
							<effecttype>audiolevels</effecttype>
							<mediatype>audio</mediatype>
							<parameter>
								<name>Level</name>
								<parameterid>level</parameterid>
								<valuemin>0</valuemin>
								<valuemax>3.98109</valuemax>
								<value>1</value>
							</parameter>
						</effect>
					</filter>
					<filter>
						<effect>
							<name>Audio Pan</name>
							<effectid>audiopan</effectid>
							<effectcategory>audiopan</effectcategory>
							<effecttype>audiopan</effecttype>
							<mediatype>audio</mediatype>
							<parameter>
								<name>Pan</name>
								<parameterid>pan</parameterid>
								<valuemin>-1</valuemin>
								<valuemax>1</valuemax>
								<value>-1</value>
							</parameter>
						</effect>
					</filter>
					<sourcetrack>
						<mediatype>audio</mediatype>
						<trackindex>1</trackindex>
					</sourcetrack>
					<link>
						<linkclipref>DNPR63700911AA.mxf</linkclipref>
						<mediatype>audio</mediatype>
						<trackindex>3</trackindex>
						<clipindex>51</clipindex>
						<groupindex>1</groupindex>
					</link>
					<link>
						<linkclipref>DNPR63700911AA.mxf2</linkclipref>
						<mediatype>audio</mediatype>
						<trackindex>4</trackindex>
						<clipindex>44</clipindex>
						<groupindex>1</groupindex>
					</link>
				</clipitem>
				<clipitem id="Meitemark-sangen5">
					<name>Meitemark-sangen</name>
					<duration>3263</duration>
					<rate>
						<ntsc>FALSE</ntsc>
						<timebase>25</timebase>
					</rate>
					<in>3142</in>
					<out>3243</out>
					<start>27438</start>
					<end>27539</end>
					<subframeoffset>0</subframeoffset>
					<masterclipid>Meitemark-sangen1</masterclipid>
					<logginginfo>
						<scene/>
						<shottake/>
						<lognote/>
						<good>FALSE</good>
					</logginginfo>
					<labels>
						<label2/>
					</labels>
					<comments>
						<mastercomment1/>
						<mastercomment2/>
						<mastercomment3/>
						<mastercomment4/>
					</comments>
					<file id="Meitemark-sangen2"/>
					<filter>
						<effect>
							<name>Audio Levels</name>
							<effectid>audiolevels</effectid>
							<effectcategory>audiolevels</effectcategory>
							<effecttype>audiolevels</effecttype>
							<mediatype>audio</mediatype>
							<parameter>
								<name>Level</name>
								<parameterid>level</parameterid>
								<valuemin>0</valuemin>
								<valuemax>3.98109</valuemax>
								<keyframe>
									<when>14.1429</when>
									<value>0.501187</value>
								</keyframe>
								<keyframe>
									<when>51.8571</when>
									<value>1</value>
								</keyframe>
								<interpolation>
									<name>FCPCurve</name>
								</interpolation>
								<value>1</value>
							</parameter>
						</effect>
					</filter>
					<filter>
						<effect>
							<name>Audio Pan</name>
							<effectid>audiopan</effectid>
							<effectcategory>audiopan</effectcategory>
							<effecttype>audiopan</effecttype>
							<mediatype>audio</mediatype>
							<parameter>
								<name>Pan</name>
								<parameterid>pan</parameterid>
								<valuemin>-1</valuemin>
								<valuemax>1</valuemax>
								<value>-1</value>
							</parameter>
						</effect>
					</filter>
					<sourcetrack>
						<mediatype>audio</mediatype>
						<trackindex>1</trackindex>
					</sourcetrack>
					<link>
						<linkclipref>Meitemark-sangen5</linkclipref>
						<mediatype>audio</mediatype>
						<trackindex>3</trackindex>
						<clipindex>52</clipindex>
						<groupindex>1</groupindex>
					</link>
					<link>
						<linkclipref>Meitemark-sangen6</linkclipref>
						<mediatype>audio</mediatype>
						<trackindex>4</trackindex>
						<clipindex>45</clipindex>
						<groupindex>1</groupindex>
					</link>
				</clipitem>
				<clipitem id="SCD048720 rulletekst 1.wav">
					<name>SCD048720 rulletekst 1.wav</name>
					<duration>2137</duration>
					<rate>
						<ntsc>FALSE</ntsc>
						<timebase>25</timebase>
					</rate>
					<in>0</in>
					<out>527</out>
					<start>28953</start>
					<end>29480</end>
					<subframeoffset>0</subframeoffset>
					<enabled>TRUE</enabled>
					<masterclipid>SCD048720 rulletekst 1.wav1</masterclipid>
					<logginginfo>
						<scene/>
						<shottake/>
						<lognote/>
						<good>FALSE</good>
					</logginginfo>
					<labels>
						<label2/>
					</labels>
					<comments>
						<mastercomment1>Swingende vispetakt</mastercomment1>
						<mastercomment2/>
						<mastercomment3/>
						<mastercomment4/>
					</comments>
					<file id="SCD048720 ">
						<name>SCD048720.wav</name>
						<pathurl>file://localhost/Volumes/Askepott/Prosjekter/DNPR637010_Kra%CC%8Akeklubben_TEM_011212/Musikk/Naturlek/SCD048720.wav</pathurl>
						<rate>
							<timebase>25</timebase>
						</rate>
						<duration>2137</duration>
						<media>
							<audio>
								<rate>
									<timebase>48000</timebase>
								</rate>
								<trackcount>2</trackcount>
								<samplecharacteristics>
									<depth>16</depth>
								</samplecharacteristics>
							</audio>
						</media>
					</file>
					<filter>
						<effect>
							<name>Audio Levels</name>
							<effectid>audiolevels</effectid>
							<effectcategory>audiolevels</effectcategory>
							<effecttype>audiolevels</effecttype>
							<mediatype>audio</mediatype>
							<parameter>
								<name>Level</name>
								<parameterid>level</parameterid>
								<valuemin>0</valuemin>
								<valuemax>3.98109</valuemax>
								<keyframe>
									<when>408.429</when>
									<value>0.141254</value>
								</keyframe>
								<keyframe>
									<when>525.857</when>
									<value>0</value>
								</keyframe>
								<keyframe>
									<when>776.857</when>
									<value>0</value>
								</keyframe>
								<keyframe>
									<when>820.857</when>
									<value>0.141254</value>
								</keyframe>
								<keyframe>
									<when>922.571</when>
									<value>0</value>
								</keyframe>
								<interpolation>
									<name>FCPCurve</name>
								</interpolation>
								<value>0.0307218</value>
							</parameter>
						</effect>
					</filter>
					<filter>
						<effect>
							<name>Audio Pan</name>
							<effectid>audiopan</effectid>
							<effectcategory>audiopan</effectcategory>
							<effecttype>audiopan</effecttype>
							<mediatype>audio</mediatype>
							<parameter>
								<name>Pan</name>
								<parameterid>pan</parameterid>
								<valuemin>-1</valuemin>
								<valuemax>1</valuemax>
								<value>-1</value>
							</parameter>
						</effect>
					</filter>
					<sourcetrack>
						<mediatype>audio</mediatype>
						<trackindex>1</trackindex>
					</sourcetrack>
					<link>
						<linkclipref>SCD048720 rulletekst 1.wav</linkclipref>
						<mediatype>audio</mediatype>
						<trackindex>3</trackindex>
						<clipindex>53</clipindex>
						<groupindex>1</groupindex>
					</link>
					<link>
						<linkclipref>SCD048720 rulletekst 1.wav2</linkclipref>
						<mediatype>audio</mediatype>
						<trackindex>4</trackindex>
						<clipindex>46</clipindex>
						<groupindex>1</groupindex>
					</link>
				</clipitem>
				<enabled>TRUE</enabled>
				<locked>FALSE</locked>
				<outputchannelindex>1</outputchannelindex>
			</track>
			<track>
				<clipitem id="Kråketeaser sesong 10 ep 1-10.WAV2">
					<name>Kråketeaser sesong 10 ep 1-10.WAV</name>
					<duration>10691</duration>
					<rate>
						<ntsc>FALSE</ntsc>
						<timebase>25</timebase>
					</rate>
					<in>7750</in>
					<out>7786</out>
					<start>419</start>
					<end>455</end>
					<subframeoffset>0</subframeoffset>
					<masterclipid>Kråketeaser sesong 10 ep 1-10.WAV1</masterclipid>
					<logginginfo>
						<scene/>
						<shottake/>
						<lognote/>
						<good>FALSE</good>
					</logginginfo>
					<labels>
						<label2/>
					</labels>
					<comments>
						<mastercomment1/>
						<mastercomment2/>
						<mastercomment3/>
						<mastercomment4/>
					</comments>
					<file id="Kråketeaser sesong 10 ep 1-10 "/>
					<filter>
						<effect>
							<name>Audio Levels</name>
							<effectid>audiolevels</effectid>
							<effectcategory>audiolevels</effectcategory>
							<effecttype>audiolevels</effecttype>
							<mediatype>audio</mediatype>
							<parameter>
								<name>Level</name>
								<parameterid>level</parameterid>
								<valuemin>0</valuemin>
								<valuemax>3.98109</valuemax>
								<value>1</value>
							</parameter>
						</effect>
					</filter>
					<filter>
						<effect>
							<name>Audio Pan</name>
							<effectid>audiopan</effectid>
							<effectcategory>audiopan</effectcategory>
							<effecttype>audiopan</effecttype>
							<mediatype>audio</mediatype>
							<parameter>
								<name>Pan</name>
								<parameterid>pan</parameterid>
								<valuemin>-1</valuemin>
								<valuemax>1</valuemax>
								<value>1</value>
							</parameter>
						</effect>
					</filter>
					<sourcetrack>
						<mediatype>audio</mediatype>
						<trackindex>2</trackindex>
					</sourcetrack>
					<link>
						<linkclipref>Kråketeaser sesong 10 ep 1-10.WAV</linkclipref>
						<mediatype>audio</mediatype>
						<trackindex>3</trackindex>
						<clipindex>1</clipindex>
						<groupindex>1</groupindex>
					</link>
					<link>
						<linkclipref>Kråketeaser sesong 10 ep 1-10.WAV2</linkclipref>
						<mediatype>audio</mediatype>
						<trackindex>4</trackindex>
						<clipindex>1</clipindex>
						<groupindex>1</groupindex>
					</link>
				</clipitem>
				<clipitem id="Kråketeaser sesong 10 ep 1-10.WAV4">
					<name>Kråketeaser sesong 10 ep 1-10.WAV</name>
					<duration>10691</duration>
					<rate>
						<ntsc>FALSE</ntsc>
						<timebase>25</timebase>
					</rate>
					<in>7790</in>
					<out>7846</out>
					<start>455</start>
					<end>511</end>
					<subframeoffset>0</subframeoffset>
					<masterclipid>Kråketeaser sesong 10 ep 1-10.WAV1</masterclipid>
					<logginginfo>
						<scene/>
						<shottake/>
						<lognote/>
						<good>FALSE</good>
					</logginginfo>
					<labels>
						<label2/>
					</labels>
					<comments>
						<mastercomment1/>
						<mastercomment2/>
						<mastercomment3/>
						<mastercomment4/>
					</comments>
					<file id="Kråketeaser sesong 10 ep 1-10 "/>
					<filter>
						<effect>
							<name>Audio Levels</name>
							<effectid>audiolevels</effectid>
							<effectcategory>audiolevels</effectcategory>
							<effecttype>audiolevels</effecttype>
							<mediatype>audio</mediatype>
							<parameter>
								<name>Level</name>
								<parameterid>level</parameterid>
								<valuemin>0</valuemin>
								<valuemax>3.98109</valuemax>
								<value>1</value>
							</parameter>
						</effect>
					</filter>
					<filter>
						<effect>
							<name>Audio Pan</name>
							<effectid>audiopan</effectid>
							<effectcategory>audiopan</effectcategory>
							<effecttype>audiopan</effecttype>
							<mediatype>audio</mediatype>
							<parameter>
								<name>Pan</name>
								<parameterid>pan</parameterid>
								<valuemin>-1</valuemin>
								<valuemax>1</valuemax>
								<value>1</value>
							</parameter>
						</effect>
					</filter>
					<sourcetrack>
						<mediatype>audio</mediatype>
						<trackindex>2</trackindex>
					</sourcetrack>
					<link>
						<linkclipref>Kråketeaser sesong 10 ep 1-10.WAV3</linkclipref>
						<mediatype>audio</mediatype>
						<trackindex>3</trackindex>
						<clipindex>2</clipindex>
						<groupindex>1</groupindex>
					</link>
					<link>
						<linkclipref>Kråketeaser sesong 10 ep 1-10.WAV4</linkclipref>
						<mediatype>audio</mediatype>
						<trackindex>4</trackindex>
						<clipindex>2</clipindex>
						<groupindex>1</groupindex>
					</link>
				</clipitem>
				<clipitem id="Kråketeaser sesong 10 ep 1-10.WAV6">
					<name>Kråketeaser sesong 10 ep 1-10.WAV</name>
					<duration>10691</duration>
					<rate>
						<ntsc>FALSE</ntsc>
						<timebase>25</timebase>
					</rate>
					<in>7848</in>
					<out>7871</out>
					<start>511</start>
					<end>534</end>
					<subframeoffset>0</subframeoffset>
					<masterclipid>Kråketeaser sesong 10 ep 1-10.WAV1</masterclipid>
					<logginginfo>
						<scene/>
						<shottake/>
						<lognote/>
						<good>FALSE</good>
					</logginginfo>
					<labels>
						<label2/>
					</labels>
					<comments>
						<mastercomment1/>
						<mastercomment2/>
						<mastercomment3/>
						<mastercomment4/>
					</comments>
					<file id="Kråketeaser sesong 10 ep 1-10 "/>
					<filter>
						<effect>
							<name>Audio Levels</name>
							<effectid>audiolevels</effectid>
							<effectcategory>audiolevels</effectcategory>
							<effecttype>audiolevels</effecttype>
							<mediatype>audio</mediatype>
							<parameter>
								<name>Level</name>
								<parameterid>level</parameterid>
								<valuemin>0</valuemin>
								<valuemax>3.98109</valuemax>
								<value>1</value>
							</parameter>
						</effect>
					</filter>
					<filter>
						<effect>
							<name>Audio Pan</name>
							<effectid>audiopan</effectid>
							<effectcategory>audiopan</effectcategory>
							<effecttype>audiopan</effecttype>
							<mediatype>audio</mediatype>
							<parameter>
								<name>Pan</name>
								<parameterid>pan</parameterid>
								<valuemin>-1</valuemin>
								<valuemax>1</valuemax>
								<value>1</value>
							</parameter>
						</effect>
					</filter>
					<sourcetrack>
						<mediatype>audio</mediatype>
						<trackindex>2</trackindex>
					</sourcetrack>
					<link>
						<linkclipref>Kråketeaser sesong 10 ep 1-10.WAV5</linkclipref>
						<mediatype>audio</mediatype>
						<trackindex>3</trackindex>
						<clipindex>3</clipindex>
						<groupindex>1</groupindex>
					</link>
					<link>
						<linkclipref>Kråketeaser sesong 10 ep 1-10.WAV6</linkclipref>
						<mediatype>audio</mediatype>
						<trackindex>4</trackindex>
						<clipindex>3</clipindex>
						<groupindex>1</groupindex>
					</link>
				</clipitem>
				<clipitem id="Kråketeaser sesong 10 ep 1-10.WAV8">
					<name>Kråketeaser sesong 10 ep 1-10.WAV</name>
					<duration>10691</duration>
					<rate>
						<ntsc>FALSE</ntsc>
						<timebase>25</timebase>
					</rate>
					<in>7877</in>
					<out>7966</out>
					<start>534</start>
					<end>623</end>
					<subframeoffset>0</subframeoffset>
					<masterclipid>Kråketeaser sesong 10 ep 1-10.WAV1</masterclipid>
					<logginginfo>
						<scene/>
						<shottake/>
						<lognote/>
						<good>FALSE</good>
					</logginginfo>
					<labels>
						<label2/>
					</labels>
					<comments>
						<mastercomment1/>
						<mastercomment2/>
						<mastercomment3/>
						<mastercomment4/>
					</comments>
					<file id="Kråketeaser sesong 10 ep 1-10 "/>
					<filter>
						<effect>
							<name>Audio Levels</name>
							<effectid>audiolevels</effectid>
							<effectcategory>audiolevels</effectcategory>
							<effecttype>audiolevels</effecttype>
							<mediatype>audio</mediatype>
							<parameter>
								<name>Level</name>
								<parameterid>level</parameterid>
								<valuemin>0</valuemin>
								<valuemax>3.98109</valuemax>
								<value>1</value>
							</parameter>
						</effect>
					</filter>
					<filter>
						<effect>
							<name>Audio Pan</name>
							<effectid>audiopan</effectid>
							<effectcategory>audiopan</effectcategory>
							<effecttype>audiopan</effecttype>
							<mediatype>audio</mediatype>
							<parameter>
								<name>Pan</name>
								<parameterid>pan</parameterid>
								<valuemin>-1</valuemin>
								<valuemax>1</valuemax>
								<value>1</value>
							</parameter>
						</effect>
					</filter>
					<sourcetrack>
						<mediatype>audio</mediatype>
						<trackindex>2</trackindex>
					</sourcetrack>
					<link>
						<linkclipref>Kråketeaser sesong 10 ep 1-10.WAV7</linkclipref>
						<mediatype>audio</mediatype>
						<trackindex>3</trackindex>
						<clipindex>4</clipindex>
						<groupindex>1</groupindex>
					</link>
					<link>
						<linkclipref>Kråketeaser sesong 10 ep 1-10.WAV8</linkclipref>
						<mediatype>audio</mediatype>
						<trackindex>4</trackindex>
						<clipindex>4</clipindex>
						<groupindex>1</groupindex>
					</link>
				</clipitem>
				<clipitem id="Kråketeaser sesong 10 ep 1-10.WAV10">
					<name>Kråketeaser sesong 10 ep 1-10.WAV</name>
					<duration>10691</duration>
					<rate>
						<ntsc>FALSE</ntsc>
						<timebase>25</timebase>
					</rate>
					<in>7970</in>
					<out>8035</out>
					<start>623</start>
					<end>688</end>
					<subframeoffset>0</subframeoffset>
					<masterclipid>Kråketeaser sesong 10 ep 1-10.WAV1</masterclipid>
					<logginginfo>
						<scene/>
						<shottake/>
						<lognote/>
						<good>FALSE</good>
					</logginginfo>
					<labels>
						<label2/>
					</labels>
					<comments>
						<mastercomment1/>
						<mastercomment2/>
						<mastercomment3/>
						<mastercomment4/>
					</comments>
					<file id="Kråketeaser sesong 10 ep 1-10 "/>
					<filter>
						<effect>
							<name>Audio Levels</name>
							<effectid>audiolevels</effectid>
							<effectcategory>audiolevels</effectcategory>
							<effecttype>audiolevels</effecttype>
							<mediatype>audio</mediatype>
							<parameter>
								<name>Level</name>
								<parameterid>level</parameterid>
								<valuemin>0</valuemin>
								<valuemax>3.98109</valuemax>
								<value>1</value>
							</parameter>
						</effect>
					</filter>
					<filter>
						<effect>
							<name>Audio Pan</name>
							<effectid>audiopan</effectid>
							<effectcategory>audiopan</effectcategory>
							<effecttype>audiopan</effecttype>
							<mediatype>audio</mediatype>
							<parameter>
								<name>Pan</name>
								<parameterid>pan</parameterid>
								<valuemin>-1</valuemin>
								<valuemax>1</valuemax>
								<value>1</value>
							</parameter>
						</effect>
					</filter>
					<sourcetrack>
						<mediatype>audio</mediatype>
						<trackindex>2</trackindex>
					</sourcetrack>
					<link>
						<linkclipref>Kråketeaser sesong 10 ep 1-10.WAV9</linkclipref>
						<mediatype>audio</mediatype>
						<trackindex>3</trackindex>
						<clipindex>5</clipindex>
						<groupindex>1</groupindex>
					</link>
					<link>
						<linkclipref>Kråketeaser sesong 10 ep 1-10.WAV10</linkclipref>
						<mediatype>audio</mediatype>
						<trackindex>4</trackindex>
						<clipindex>5</clipindex>
						<groupindex>1</groupindex>
					</link>
				</clipitem>
				<clipitem id="Kråketeaser sesong 10 ep 1-10.WAV12">
					<name>Kråketeaser sesong 10 ep 1-10.WAV</name>
					<duration>10691</duration>
					<rate>
						<ntsc>FALSE</ntsc>
						<timebase>25</timebase>
					</rate>
					<in>8039</in>
					<out>8069</out>
					<start>688</start>
					<end>718</end>
					<subframeoffset>0</subframeoffset>
					<masterclipid>Kråketeaser sesong 10 ep 1-10.WAV1</masterclipid>
					<logginginfo>
						<scene/>
						<shottake/>
						<lognote/>
						<good>FALSE</good>
					</logginginfo>
					<labels>
						<label2/>
					</labels>
					<comments>
						<mastercomment1/>
						<mastercomment2/>
						<mastercomment3/>
						<mastercomment4/>
					</comments>
					<file id="Kråketeaser sesong 10 ep 1-10 "/>
					<filter>
						<effect>
							<name>Audio Levels</name>
							<effectid>audiolevels</effectid>
							<effectcategory>audiolevels</effectcategory>
							<effecttype>audiolevels</effecttype>
							<mediatype>audio</mediatype>
							<parameter>
								<name>Level</name>
								<parameterid>level</parameterid>
								<valuemin>0</valuemin>
								<valuemax>3.98109</valuemax>
								<value>1</value>
							</parameter>
						</effect>
					</filter>
					<filter>
						<effect>
							<name>Audio Pan</name>
							<effectid>audiopan</effectid>
							<effectcategory>audiopan</effectcategory>
							<effecttype>audiopan</effecttype>
							<mediatype>audio</mediatype>
							<parameter>
								<name>Pan</name>
								<parameterid>pan</parameterid>
								<valuemin>-1</valuemin>
								<valuemax>1</valuemax>
								<value>1</value>
							</parameter>
						</effect>
					</filter>
					<sourcetrack>
						<mediatype>audio</mediatype>
						<trackindex>2</trackindex>
					</sourcetrack>
					<link>
						<linkclipref>Kråketeaser sesong 10 ep 1-10.WAV11</linkclipref>
						<mediatype>audio</mediatype>
						<trackindex>3</trackindex>
						<clipindex>6</clipindex>
						<groupindex>1</groupindex>
					</link>
					<link>
						<linkclipref>Kråketeaser sesong 10 ep 1-10.WAV12</linkclipref>
						<mediatype>audio</mediatype>
						<trackindex>4</trackindex>
						<clipindex>6</clipindex>
						<groupindex>1</groupindex>
					</link>
				</clipitem>
				<clipitem id="SPACEWHOO…HOOSHBYSI60404904.WAV2">
					<name>SPACEWHOO…HOOSHBYSI60404904.WAV</name>
					<duration>127</duration>
					<rate>
						<ntsc>FALSE</ntsc>
						<timebase>25</timebase>
					</rate>
					<in>8</in>
					<out>61</out>
					<start>1637</start>
					<end>1690</end>
					<subframeoffset>0</subframeoffset>
					<enabled>TRUE</enabled>
					<masterclipid>SPACEWHOO…HOOSHBYSI60404904.WAV1</masterclipid>
					<logginginfo>
						<scene/>
						<shottake/>
						<lognote/>
						<good>FALSE</good>
					</logginginfo>
					<labels>
						<label2/>
					</labels>
					<comments>
						<mastercomment1/>
						<mastercomment2/>
						<mastercomment3/>
						<mastercomment4/>
					</comments>
					<file id="SPACEWHOO…HOOSHBYSI60404904 "/>
					<filter>
						<effect>
							<name>Audio Levels</name>
							<effectid>audiolevels</effectid>
							<effectcategory>audiolevels</effectcategory>
							<effecttype>audiolevels</effecttype>
							<mediatype>audio</mediatype>
							<parameter>
								<name>Level</name>
								<parameterid>level</parameterid>
								<valuemin>0</valuemin>
								<valuemax>3.98109</valuemax>
								<value>0.251189</value>
							</parameter>
						</effect>
					</filter>
					<filter>
						<effect>
							<name>Audio Pan</name>
							<effectid>audiopan</effectid>
							<effectcategory>audiopan</effectcategory>
							<effecttype>audiopan</effecttype>
							<mediatype>audio</mediatype>
							<parameter>
								<name>Pan</name>
								<parameterid>pan</parameterid>
								<valuemin>-1</valuemin>
								<valuemax>1</valuemax>
								<value>1</value>
							</parameter>
						</effect>
					</filter>
					<sourcetrack>
						<mediatype>audio</mediatype>
						<trackindex>2</trackindex>
					</sourcetrack>
					<link>
						<linkclipref>SPACEWHOO…HOOSHBYSI60404904.WAV</linkclipref>
						<mediatype>audio</mediatype>
						<trackindex>3</trackindex>
						<clipindex>7</clipindex>
						<groupindex>1</groupindex>
					</link>
					<link>
						<linkclipref>SPACEWHOO…HOOSHBYSI60404904.WAV2</linkclipref>
						<mediatype>audio</mediatype>
						<trackindex>4</trackindex>
						<clipindex>7</clipindex>
						<groupindex>1</groupindex>
					</link>
				</clipitem>
				<clipitem id="SPACEWHOO…HOOSHBYSI60404904.WAV4">
					<name>SPACEWHOO…HOOSHBYSI60404904.WAV</name>
					<duration>127</duration>
					<rate>
						<ntsc>FALSE</ntsc>
						<timebase>25</timebase>
					</rate>
					<in>8</in>
					<out>61</out>
					<start>1718</start>
					<end>1771</end>
					<subframeoffset>0</subframeoffset>
					<enabled>TRUE</enabled>
					<masterclipid>SPACEWHOO…HOOSHBYSI60404904.WAV1</masterclipid>
					<logginginfo>
						<scene/>
						<shottake/>
						<lognote/>
						<good>FALSE</good>
					</logginginfo>
					<labels>
						<label2/>
					</labels>
					<comments>
						<mastercomment1/>
						<mastercomment2/>
						<mastercomment3/>
						<mastercomment4/>
					</comments>
					<file id="SPACEWHOO…HOOSHBYSI60404904 "/>
					<filter>
						<effect>
							<name>Audio Levels</name>
							<effectid>audiolevels</effectid>
							<effectcategory>audiolevels</effectcategory>
							<effecttype>audiolevels</effecttype>
							<mediatype>audio</mediatype>
							<parameter>
								<name>Level</name>
								<parameterid>level</parameterid>
								<valuemin>0</valuemin>
								<valuemax>3.98109</valuemax>
								<value>0.251189</value>
							</parameter>
						</effect>
					</filter>
					<filter>
						<effect>
							<name>Audio Pan</name>
							<effectid>audiopan</effectid>
							<effectcategory>audiopan</effectcategory>
							<effecttype>audiopan</effecttype>
							<mediatype>audio</mediatype>
							<parameter>
								<name>Pan</name>
								<parameterid>pan</parameterid>
								<valuemin>-1</valuemin>
								<valuemax>1</valuemax>
								<value>1</value>
							</parameter>
						</effect>
					</filter>
					<sourcetrack>
						<mediatype>audio</mediatype>
						<trackindex>2</trackindex>
					</sourcetrack>
					<link>
						<linkclipref>SPACEWHOO…HOOSHBYSI60404904.WAV3</linkclipref>
						<mediatype>audio</mediatype>
						<trackindex>3</trackindex>
						<clipindex>8</clipindex>
						<groupindex>1</groupindex>
					</link>
					<link>
						<linkclipref>SPACEWHOO…HOOSHBYSI60404904.WAV4</linkclipref>
						<mediatype>audio</mediatype>
						<trackindex>4</trackindex>
						<clipindex>8</clipindex>
						<groupindex>1</groupindex>
					</link>
				</clipitem>
				<clipitem id="Cartoon Timpani3">
					<name>Cartoon Timpani</name>
					<duration>41</duration>
					<rate>
						<ntsc>FALSE</ntsc>
						<timebase>25</timebase>
					</rate>
					<in>17</in>
					<out>41</out>
					<start>1809</start>
					<end>-1</end>
					<subframeoffset>0</subframeoffset>
					<masterclipid>Cartoon Timpani1</masterclipid>
					<logginginfo>
						<scene/>
						<shottake/>
						<lognote/>
						<good>FALSE</good>
					</logginginfo>
					<labels>
						<label2/>
					</labels>
					<comments>
						<mastercomment1/>
						<mastercomment2/>
						<mastercomment3/>
						<mastercomment4/>
					</comments>
					<file id="Cartoon Timpani2"/>
					<filter>
						<effect>
							<name>Audio Levels</name>
							<effectid>audiolevels</effectid>
							<effectcategory>audiolevels</effectcategory>
							<effecttype>audiolevels</effecttype>
							<mediatype>audio</mediatype>
							<parameter>
								<name>Level</name>
								<parameterid>level</parameterid>
								<valuemin>0</valuemin>
								<valuemax>3.98109</valuemax>
								<keyframe>
									<when>29.8036</when>
									<value>0</value>
								</keyframe>
								<keyframe>
									<when>38.6429</when>
									<value>1</value>
								</keyframe>
								<interpolation>
									<name>FCPCurve</name>
								</interpolation>
								<value>1</value>
							</parameter>
						</effect>
					</filter>
					<filter>
						<effect>
							<name>Audio Pan</name>
							<effectid>audiopan</effectid>
							<effectcategory>audiopan</effectcategory>
							<effecttype>audiopan</effecttype>
							<mediatype>audio</mediatype>
							<parameter>
								<name>Pan</name>
								<parameterid>pan</parameterid>
								<valuemin>-1</valuemin>
								<valuemax>1</valuemax>
								<value>1</value>
							</parameter>
						</effect>
					</filter>
					<sourcetrack>
						<mediatype>audio</mediatype>
						<trackindex>2</trackindex>
					</sourcetrack>
					<link>
						<linkclipref>Cartoon Timpani</linkclipref>
						<mediatype>audio</mediatype>
						<trackindex>3</trackindex>
						<clipindex>9</clipindex>
						<groupindex>1</groupindex>
					</link>
					<link>
						<linkclipref>Cartoon Timpani3</linkclipref>
						<mediatype>audio</mediatype>
						<trackindex>4</trackindex>
						<clipindex>9</clipindex>
						<groupindex>1</groupindex>
					</link>
					<filter>
						<effect>
							<name>Time Remap</name>
							<effectid>timeremap</effectid>
							<effectcategory>motion</effectcategory>
							<effecttype>motion</effecttype>
							<mediatype>audio</mediatype>
							<parameter>
								<parameterid>variablespeed</parameterid>
								<name>variablespeed</name>
								<valuemin>0</valuemin>
								<valuemax>1</valuemax>
								<value>0</value>
							</parameter>
							<parameter>
								<parameterid>mappedduration</parameterid>
								<name>mappedduration</name>
								<value>
									<timecode>
										<rate>
											<timebase>0</timebase>
										</rate>
										<string>0</string>
										<frame>0</frame>
										<displayformat>NDF</displayformat>
									</timecode>
								</value>
							</parameter>
							<parameter>
								<parameterid>speed</parameterid>
								<name>speed</name>
								<valuemin>-10000</valuemin>
								<valuemax>10000</valuemax>
								<value>100</value>
							</parameter>
							<parameter>
								<parameterid>reverse</parameterid>
								<name>reverse</name>
								<value>TRUE</value>
							</parameter>
							<parameter>
								<parameterid>frameblending</parameterid>
								<name>frameblending</name>
								<value>TRUE</value>
							</parameter>
							<parameter>
								<parameterid>graphdict</parameterid>
								<name>graphdict</name>
								<valuemin>0</valuemin>
								<valuemax>40</valuemax>
								<keyframe>
									<when>0</when>
									<value>42</value>
									<speedkfstart>TRUE</speedkfstart>
									<speedvirtualkf>TRUE</speedvirtualkf>
								</keyframe>
								<keyframe>
									<when>17</when>
									<value>24</value>
									<speedkfin>TRUE</speedkfin>
									<speedvirtualkf>TRUE</speedvirtualkf>
								</keyframe>
								<keyframe>
									<when>41</when>
									<value>1</value>
									<speedkfout>TRUE</speedkfout>
									<speedvirtualkf>TRUE</speedvirtualkf>
								</keyframe>
								<interpolation>
									<name>FCPCurve</name>
								</interpolation>
								<value>23</value>
							</parameter>
						</effect>
					</filter>
				</clipitem>
				<transitionitem id="28">
					<rate>
						<ntsc>FALSE</ntsc>
						<timebase>25</timebase>
					</rate>
					<start>1831</start>
					<end>1833</end>
					<alignment>center</alignment>
					<effect>
						<name>Cross Fade (+3dB)</name>
						<effecttype>transition</effecttype>
						<mediatype>audio</mediatype>
					</effect>
				</transitionitem>
				<clipitem id="Cartoon Timpani5">
					<name>Cartoon Timpani</name>
					<duration>41</duration>
					<rate>
						<ntsc>FALSE</ntsc>
						<timebase>25</timebase>
					</rate>
					<in>0</in>
					<out>41</out>
					<start>-1</start>
					<end>1872</end>
					<subframeoffset>0</subframeoffset>
					<masterclipid>Cartoon Timpani1</masterclipid>
					<logginginfo>
						<scene/>
						<shottake/>
						<lognote/>
						<good>FALSE</good>
					</logginginfo>
					<labels>
						<label2/>
					</labels>
					<comments>
						<mastercomment1/>
						<mastercomment2/>
						<mastercomment3/>
						<mastercomment4/>
					</comments>
					<file id="Cartoon Timpani2"/>
					<filter>
						<effect>
							<name>Audio Levels</name>
							<effectid>audiolevels</effectid>
							<effectcategory>audiolevels</effectcategory>
							<effecttype>audiolevels</effecttype>
							<mediatype>audio</mediatype>
							<parameter>
								<name>Level</name>
								<parameterid>level</parameterid>
								<valuemin>0</valuemin>
								<valuemax>3.98109</valuemax>
								<keyframe>
									<when>9.39286</when>
									<value>1</value>
								</keyframe>
								<keyframe>
									<when>40.1429</when>
									<value>0</value>
								</keyframe>
								<interpolation>
									<name>FCPCurve</name>
								</interpolation>
								<value>1</value>
							</parameter>
						</effect>
					</filter>
					<filter>
						<effect>
							<name>Audio Pan</name>
							<effectid>audiopan</effectid>
							<effectcategory>audiopan</effectcategory>
							<effecttype>audiopan</effecttype>
							<mediatype>audio</mediatype>
							<parameter>
								<name>Pan</name>
								<parameterid>pan</parameterid>
								<valuemin>-1</valuemin>
								<valuemax>1</valuemax>
								<value>1</value>
							</parameter>
						</effect>
					</filter>
					<sourcetrack>
						<mediatype>audio</mediatype>
						<trackindex>2</trackindex>
					</sourcetrack>
					<link>
						<linkclipref>Cartoon Timpani4</linkclipref>
						<mediatype>audio</mediatype>
						<trackindex>3</trackindex>
						<clipindex>11</clipindex>
						<groupindex>1</groupindex>
					</link>
					<link>
						<linkclipref>Cartoon Timpani5</linkclipref>
						<mediatype>audio</mediatype>
						<trackindex>4</trackindex>
						<clipindex>11</clipindex>
						<groupindex>1</groupindex>
					</link>
				</clipitem>
				<clipitem id="C0010 7">
					<name>C0010</name>
					<duration>3012</duration>
					<rate>
						<ntsc>FALSE</ntsc>
						<timebase>25</timebase>
					</rate>
					<in>2637</in>
					<out>2692</out>
					<start>3826</start>
					<end>-1</end>
					<subframeoffset>0</subframeoffset>
					<masterclipid>C0010 1</masterclipid>
					<logginginfo>
						<scene/>
						<shottake/>
						<lognote/>
						<good>FALSE</good>
					</logginginfo>
					<labels>
						<label2/>
					</labels>
					<comments>
						<mastercomment1/>
						<mastercomment2/>
						<mastercomment3/>
						<mastercomment4/>
					</comments>
					<file id="C0010 2"/>
					<filter>
						<effect>
							<name>Audio Levels</name>
							<effectid>audiolevels</effectid>
							<effectcategory>audiolevels</effectcategory>
							<effecttype>audiolevels</effecttype>
							<mediatype>audio</mediatype>
							<parameter>
								<name>Level</name>
								<parameterid>level</parameterid>
								<valuemin>0</valuemin>
								<valuemax>3.98109</valuemax>
								<keyframe>
									<when>2242.43</when>
									<value>0</value>
								</keyframe>
								<keyframe>
									<when>2264.86</when>
									<value>0</value>
								</keyframe>
								<interpolation>
									<name>FCPCurve</name>
								</interpolation>
								<value>1</value>
							</parameter>
						</effect>
					</filter>
					<filter>
						<effect>
							<name>Audio Pan</name>
							<effectid>audiopan</effectid>
							<effectcategory>audiopan</effectcategory>
							<effecttype>audiopan</effecttype>
							<mediatype>audio</mediatype>
							<parameter>
								<name>Pan</name>
								<parameterid>pan</parameterid>
								<valuemin>-1</valuemin>
								<valuemax>1</valuemax>
								<value>0</value>
							</parameter>
						</effect>
					</filter>
					<sourcetrack>
						<mediatype>audio</mediatype>
						<trackindex>2</trackindex>
					</sourcetrack>
				</clipitem>
				<transitionitem id="1253933948 ">
					<rate>
						<ntsc>FALSE</ntsc>
						<timebase>25</timebase>
					</rate>
					<start>3869</start>
					<end>3881</end>
					<alignment>start</alignment>
					<effect>
						<name>Cross Fade (+3dB)</name>
						<effecttype>transition</effecttype>
						<mediatype>audio</mediatype>
					</effect>
				</transitionitem>
				<clipitem id="C0010 8">
					<name>C0010</name>
					<duration>3012</duration>
					<rate>
						<ntsc>FALSE</ntsc>
						<timebase>25</timebase>
					</rate>
					<in>2680</in>
					<out>2909</out>
					<start>-1</start>
					<end>-1</end>
					<subframeoffset>0</subframeoffset>
					<masterclipid>C0010 1</masterclipid>
					<logginginfo>
						<scene/>
						<shottake/>
						<lognote/>
						<good>FALSE</good>
					</logginginfo>
					<labels>
						<label2/>
					</labels>
					<comments>
						<mastercomment1/>
						<mastercomment2/>
						<mastercomment3/>
						<mastercomment4/>
					</comments>
					<file id="C0010 2"/>
					<filter>
						<effect>
							<name>Audio Levels</name>
							<effectid>audiolevels</effectid>
							<effectcategory>audiolevels</effectcategory>
							<effecttype>audiolevels</effecttype>
							<mediatype>audio</mediatype>
							<parameter>
								<name>Level</name>
								<parameterid>level</parameterid>
								<valuemin>0</valuemin>
								<valuemax>3.98109</valuemax>
								<keyframe>
									<when>2242.43</when>
									<value>0</value>
								</keyframe>
								<keyframe>
									<when>2264.86</when>
									<value>1</value>
								</keyframe>
								<interpolation>
									<name>FCPCurve</name>
								</interpolation>
								<value>1</value>
							</parameter>
						</effect>
					</filter>
					<filter>
						<effect>
							<name>Audio Pan</name>
							<effectid>audiopan</effectid>
							<effectcategory>audiopan</effectcategory>
							<effecttype>audiopan</effecttype>
							<mediatype>audio</mediatype>
							<parameter>
								<name>Pan</name>
								<parameterid>pan</parameterid>
								<valuemin>-1</valuemin>
								<valuemax>1</valuemax>
								<value>0</value>
							</parameter>
						</effect>
					</filter>
					<sourcetrack>
						<mediatype>audio</mediatype>
						<trackindex>2</trackindex>
					</sourcetrack>
				</clipitem>
				<transitionitem id="1253933472 ">
					<rate>
						<ntsc>FALSE</ntsc>
						<timebase>25</timebase>
					</rate>
					<start>4073</start>
					<end>4098</end>
					<alignment>start</alignment>
					<effect>
						<name>Cross Fade (+3dB)</name>
						<effecttype>transition</effecttype>
						<mediatype>audio</mediatype>
					</effect>
				</transitionitem>
				<clipitem id="525_0341_01 2">
					<name>525_0341_01</name>
					<duration>7977</duration>
					<rate>
						<ntsc>FALSE</ntsc>
						<timebase>25</timebase>
					</rate>
					<in>5998</in>
					<out>6029</out>
					<start>4113</start>
					<end>4144</end>
					<subframeoffset>0</subframeoffset>
					<logginginfo>
						<scene/>
						<shottake/>
						<lognote/>
						<good>FALSE</good>
					</logginginfo>
					<labels>
						<label2/>
					</labels>
					<comments>
						<mastercomment1/>
						<mastercomment2/>
						<mastercomment3/>
						<mastercomment4/>
					</comments>
					<file id="525_0341_01 1"/>
					<filter>
						<effect>
							<name>Audio Levels</name>
							<effectid>audiolevels</effectid>
							<effectcategory>audiolevels</effectcategory>
							<effecttype>audiolevels</effecttype>
							<mediatype>audio</mediatype>
							<parameter>
								<name>Level</name>
								<parameterid>level</parameterid>
								<valuemin>0</valuemin>
								<valuemax>3.98109</valuemax>
								<value>1</value>
							</parameter>
						</effect>
					</filter>
					<filter>
						<effect>
							<name>Audio Pan</name>
							<effectid>audiopan</effectid>
							<effectcategory>audiopan</effectcategory>
							<effecttype>audiopan</effecttype>
							<mediatype>audio</mediatype>
							<parameter>
								<name>Pan</name>
								<parameterid>pan</parameterid>
								<valuemin>-1</valuemin>
								<valuemax>1</valuemax>
								<value>0</value>
							</parameter>
						</effect>
					</filter>
					<sourcetrack>
						<mediatype>audio</mediatype>
						<trackindex>2</trackindex>
					</sourcetrack>
				</clipitem>
				<clipitem id="C0011 17">
					<name>C0011</name>
					<duration>14472</duration>
					<rate>
						<ntsc>FALSE</ntsc>
						<timebase>25</timebase>
					</rate>
					<in>5833</in>
					<out>5866</out>
					<start>4144</start>
					<end>4177</end>
					<subframeoffset>0</subframeoffset>
					<logginginfo>
						<scene/>
						<shottake/>
						<lognote/>
						<good>FALSE</good>
					</logginginfo>
					<labels>
						<label2/>
					</labels>
					<comments>
						<mastercomment1/>
						<mastercomment2/>
						<mastercomment3/>
						<mastercomment4/>
					</comments>
					<file id="C0011 16"/>
					<filter>
						<effect>
							<name>Audio Levels</name>
							<effectid>audiolevels</effectid>
							<effectcategory>audiolevels</effectcategory>
							<effecttype>audiolevels</effecttype>
							<mediatype>audio</mediatype>
							<parameter>
								<name>Level</name>
								<parameterid>level</parameterid>
								<valuemin>0</valuemin>
								<valuemax>3.98109</valuemax>
								<value>1</value>
							</parameter>
						</effect>
					</filter>
					<filter>
						<effect>
							<name>Audio Pan</name>
							<effectid>audiopan</effectid>
							<effectcategory>audiopan</effectcategory>
							<effecttype>audiopan</effecttype>
							<mediatype>audio</mediatype>
							<parameter>
								<name>Pan</name>
								<parameterid>pan</parameterid>
								<valuemin>-1</valuemin>
								<valuemax>1</valuemax>
								<value>0</value>
							</parameter>
						</effect>
					</filter>
					<sourcetrack>
						<mediatype>audio</mediatype>
						<trackindex>2</trackindex>
					</sourcetrack>
				</clipitem>
				<clipitem id="739_0995 4">
					<name>739_0995</name>
					<duration>4199</duration>
					<rate>
						<ntsc>FALSE</ntsc>
						<timebase>25</timebase>
					</rate>
					<in>1917</in>
					<out>1924</out>
					<start>4177</start>
					<end>4184</end>
					<subframeoffset>0</subframeoffset>
					<logginginfo>
						<scene/>
						<shottake/>
						<lognote/>
						<good>FALSE</good>
					</logginginfo>
					<labels>
						<label2/>
					</labels>
					<comments>
						<mastercomment1/>
						<mastercomment2/>
						<mastercomment3/>
						<mastercomment4/>
					</comments>
					<file id="739_0995 1"/>
					<filter>
						<effect>
							<name>Audio Levels</name>
							<effectid>audiolevels</effectid>
							<effectcategory>audiolevels</effectcategory>
							<effecttype>audiolevels</effecttype>
							<mediatype>audio</mediatype>
							<parameter>
								<name>Level</name>
								<parameterid>level</parameterid>
								<valuemin>0</valuemin>
								<valuemax>3.98109</valuemax>
								<value>1</value>
							</parameter>
						</effect>
					</filter>
					<filter>
						<effect>
							<name>Audio Pan</name>
							<effectid>audiopan</effectid>
							<effectcategory>audiopan</effectcategory>
							<effecttype>audiopan</effecttype>
							<mediatype>audio</mediatype>
							<parameter>
								<name>Pan</name>
								<parameterid>pan</parameterid>
								<valuemin>-1</valuemin>
								<valuemax>1</valuemax>
								<value>0</value>
							</parameter>
						</effect>
					</filter>
					<sourcetrack>
						<mediatype>audio</mediatype>
						<trackindex>2</trackindex>
					</sourcetrack>
				</clipitem>
				<clipitem id="739_0995 5">
					<name>739_0995</name>
					<duration>4199</duration>
					<rate>
						<ntsc>FALSE</ntsc>
						<timebase>25</timebase>
					</rate>
					<in>387</in>
					<out>421</out>
					<start>4184</start>
					<end>4218</end>
					<subframeoffset>0</subframeoffset>
					<logginginfo>
						<scene/>
						<shottake/>
						<lognote/>
						<good>FALSE</good>
					</logginginfo>
					<labels>
						<label2/>
					</labels>
					<comments>
						<mastercomment1/>
						<mastercomment2/>
						<mastercomment3/>
						<mastercomment4/>
					</comments>
					<file id="739_0995 1"/>
					<filter>
						<effect>
							<name>Audio Levels</name>
							<effectid>audiolevels</effectid>
							<effectcategory>audiolevels</effectcategory>
							<effecttype>audiolevels</effecttype>
							<mediatype>audio</mediatype>
							<parameter>
								<name>Level</name>
								<parameterid>level</parameterid>
								<valuemin>0</valuemin>
								<valuemax>3.98109</valuemax>
								<value>1</value>
							</parameter>
						</effect>
					</filter>
					<filter>
						<effect>
							<name>Audio Pan</name>
							<effectid>audiopan</effectid>
							<effectcategory>audiopan</effectcategory>
							<effecttype>audiopan</effecttype>
							<mediatype>audio</mediatype>
							<parameter>
								<name>Pan</name>
								<parameterid>pan</parameterid>
								<valuemin>-1</valuemin>
								<valuemax>1</valuemax>
								<value>0</value>
							</parameter>
						</effect>
					</filter>
					<sourcetrack>
						<mediatype>audio</mediatype>
						<trackindex>2</trackindex>
					</sourcetrack>
				</clipitem>
				<clipitem id="739_0995 6">
					<name>739_0995</name>
					<duration>4199</duration>
					<rate>
						<ntsc>FALSE</ntsc>
						<timebase>25</timebase>
					</rate>
					<in>1958</in>
					<out>1969</out>
					<start>4218</start>
					<end>4229</end>
					<subframeoffset>0</subframeoffset>
					<logginginfo>
						<scene/>
						<shottake/>
						<lognote/>
						<good>FALSE</good>
					</logginginfo>
					<labels>
						<label2/>
					</labels>
					<comments>
						<mastercomment1/>
						<mastercomment2/>
						<mastercomment3/>
						<mastercomment4/>
					</comments>
					<file id="739_0995 1"/>
					<filter>
						<effect>
							<name>Audio Levels</name>
							<effectid>audiolevels</effectid>
							<effectcategory>audiolevels</effectcategory>
							<effecttype>audiolevels</effecttype>
							<mediatype>audio</mediatype>
							<parameter>
								<name>Level</name>
								<parameterid>level</parameterid>
								<valuemin>0</valuemin>
								<valuemax>3.98109</valuemax>
								<value>1</value>
							</parameter>
						</effect>
					</filter>
					<filter>
						<effect>
							<name>Audio Pan</name>
							<effectid>audiopan</effectid>
							<effectcategory>audiopan</effectcategory>
							<effecttype>audiopan</effecttype>
							<mediatype>audio</mediatype>
							<parameter>
								<name>Pan</name>
								<parameterid>pan</parameterid>
								<valuemin>-1</valuemin>
								<valuemax>1</valuemax>
								<value>0</value>
							</parameter>
						</effect>
					</filter>
					<sourcetrack>
						<mediatype>audio</mediatype>
						<trackindex>2</trackindex>
					</sourcetrack>
				</clipitem>
				<clipitem id="AUXMP_SCD086720_RIDE ACROSS THE COUNTRY A.wav1">
					<name>AUXMP_SCD086720_RIDE ACROSS THE COUNTRY A.wav</name>
					<duration>2963</duration>
					<rate>
						<ntsc>FALSE</ntsc>
						<timebase>25</timebase>
					</rate>
					<in>0</in>
					<out>1022</out>
					<start>5719</start>
					<end>6741</end>
					<subframeoffset>0</subframeoffset>
					<logginginfo>
						<scene/>
						<shottake/>
						<lognote/>
						<good>FALSE</good>
					</logginginfo>
					<labels>
						<label2/>
					</labels>
					<comments>
						<mastercomment1/>
						<mastercomment2/>
						<mastercomment3/>
						<mastercomment4/>
					</comments>
					<file id="AUXMP_SCD086720_RIDE ACROSS THE COUNTRY A"/>
					<filter>
						<effect>
							<name>Audio Levels</name>
							<effectid>audiolevels</effectid>
							<effectcategory>audiolevels</effectcategory>
							<effecttype>audiolevels</effecttype>
							<mediatype>audio</mediatype>
							<parameter>
								<name>Level</name>
								<parameterid>level</parameterid>
								<valuemin>0</valuemin>
								<valuemax>3.98109</valuemax>
								<keyframe>
									<when>990.759</when>
									<value>0.0446684</value>
								</keyframe>
								<keyframe>
									<when>1022</when>
									<value>0</value>
								</keyframe>
								<keyframe>
									<when>1049.29</when>
									<value>0.0446684</value>
								</keyframe>
								<keyframe>
									<when>1107</when>
									<value>0</value>
								</keyframe>
								<keyframe>
									<when>1468.5</when>
									<value>0.0446684</value>
								</keyframe>
								<keyframe>
									<when>1596.55</when>
									<value>0</value>
								</keyframe>
								<interpolation>
									<name>FCPCurve</name>
								</interpolation>
								<value>1</value>
							</parameter>
						</effect>
					</filter>
					<filter>
						<effect>
							<name>Audio Pan</name>
							<effectid>audiopan</effectid>
							<effectcategory>audiopan</effectcategory>
							<effecttype>audiopan</effecttype>
							<mediatype>audio</mediatype>
							<parameter>
								<name>Pan</name>
								<parameterid>pan</parameterid>
								<valuemin>-1</valuemin>
								<valuemax>1</valuemax>
								<value>1</value>
							</parameter>
						</effect>
					</filter>
					<sourcetrack>
						<mediatype>audio</mediatype>
						<trackindex>2</trackindex>
					</sourcetrack>
					<link>
						<linkclipref>AUXMP_SCD086720_RIDE ACROSS THE COUNTRY A.wav</linkclipref>
						<mediatype>audio</mediatype>
						<trackindex>3</trackindex>
						<clipindex>24</clipindex>
						<groupindex>1</groupindex>
					</link>
					<link>
						<linkclipref>AUXMP_SCD086720_RIDE ACROSS THE COUNTRY A.wav1</linkclipref>
						<mediatype>audio</mediatype>
						<trackindex>4</trackindex>
						<clipindex>21</clipindex>
						<groupindex>1</groupindex>
					</link>
				</clipitem>
				<clipitem id="SCD078112.wav1">
					<name>SCD078112.wav</name>
					<duration>2817</duration>
					<rate>
						<ntsc>FALSE</ntsc>
						<timebase>25</timebase>
					</rate>
					<in>2414</in>
					<out>2817</out>
					<start>7643</start>
					<end>8046</end>
					<subframeoffset>0</subframeoffset>
					<logginginfo>
						<scene/>
						<shottake/>
						<lognote/>
						<good>FALSE</good>
					</logginginfo>
					<labels>
						<label2/>
					</labels>
					<comments>
						<mastercomment1/>
						<mastercomment2/>
						<mastercomment3/>
						<mastercomment4/>
					</comments>
					<file id="SCD078112 "/>
					<filter>
						<effect>
							<name>Audio Levels</name>
							<effectid>audiolevels</effectid>
							<effectcategory>audiolevels</effectcategory>
							<effecttype>audiolevels</effecttype>
							<mediatype>audio</mediatype>
							<parameter>
								<name>Level</name>
								<parameterid>level</parameterid>
								<valuemin>0</valuemin>
								<valuemax>3.98109</valuemax>
								<keyframe>
									<when>2460.57</when>
									<value>0</value>
								</keyframe>
								<keyframe>
									<when>2507.39</when>
									<value>0.141254</value>
								</keyframe>
								<interpolation>
									<name>FCPCurve</name>
								</interpolation>
								<value>1</value>
							</parameter>
						</effect>
					</filter>
					<filter>
						<effect>
							<name>Audio Pan</name>
							<effectid>audiopan</effectid>
							<effectcategory>audiopan</effectcategory>
							<effecttype>audiopan</effecttype>
							<mediatype>audio</mediatype>
							<parameter>
								<name>Pan</name>
								<parameterid>pan</parameterid>
								<valuemin>-1</valuemin>
								<valuemax>1</valuemax>
								<value>1</value>
							</parameter>
						</effect>
					</filter>
					<sourcetrack>
						<mediatype>audio</mediatype>
						<trackindex>2</trackindex>
					</sourcetrack>
					<link>
						<linkclipref>SCD078112.wav</linkclipref>
						<mediatype>audio</mediatype>
						<trackindex>3</trackindex>
						<clipindex>25</clipindex>
						<groupindex>1</groupindex>
					</link>
					<link>
						<linkclipref>SCD078112.wav1</linkclipref>
						<mediatype>audio</mediatype>
						<trackindex>4</trackindex>
						<clipindex>22</clipindex>
						<groupindex>1</groupindex>
					</link>
				</clipitem>
				<clipitem id="SCDV016851_LET-S GO 1_SONOTON.wav2">
					<name>SCDV016851_LET-S GO 1_SONOTON.wav</name>
					<duration>502</duration>
					<rate>
						<ntsc>FALSE</ntsc>
						<timebase>25</timebase>
					</rate>
					<in>0</in>
					<out>212</out>
					<start>8671</start>
					<end>-1</end>
					<subframeoffset>0</subframeoffset>
					<masterclipid>SCDV016851_LET-S GO 1_SONOTON.wav1</masterclipid>
					<logginginfo>
						<scene/>
						<shottake/>
						<lognote/>
						<good>FALSE</good>
					</logginginfo>
					<labels>
						<label2/>
					</labels>
					<comments>
						<mastercomment1/>
						<mastercomment2/>
						<mastercomment3/>
						<mastercomment4/>
					</comments>
					<file id="SCDV016851_LET-S GO 1_SONOTON"/>
					<filter>
						<effect>
							<name>Audio Levels</name>
							<effectid>audiolevels</effectid>
							<effectcategory>audiolevels</effectcategory>
							<effecttype>audiolevels</effecttype>
							<mediatype>audio</mediatype>
							<parameter>
								<name>Level</name>
								<parameterid>level</parameterid>
								<valuemin>0</valuemin>
								<valuemax>3.98109</valuemax>
								<keyframe>
									<when>108.857</when>
									<value>0.0223872</value>
								</keyframe>
								<keyframe>
									<when>128.286</when>
									<value>0.0141254</value>
								</keyframe>
								<interpolation>
									<name>FCPCurve</name>
								</interpolation>
								<value>0.0223872</value>
							</parameter>
						</effect>
					</filter>
					<filter>
						<effect>
							<name>Audio Pan</name>
							<effectid>audiopan</effectid>
							<effectcategory>audiopan</effectcategory>
							<effecttype>audiopan</effecttype>
							<mediatype>audio</mediatype>
							<parameter>
								<name>Pan</name>
								<parameterid>pan</parameterid>
								<valuemin>-1</valuemin>
								<valuemax>1</valuemax>
								<value>1</value>
							</parameter>
						</effect>
					</filter>
					<sourcetrack>
						<mediatype>audio</mediatype>
						<trackindex>2</trackindex>
					</sourcetrack>
					<link>
						<linkclipref>SCDV016851_LET-S GO 1_SONOTON.wav</linkclipref>
						<mediatype>audio</mediatype>
						<trackindex>3</trackindex>
						<clipindex>26</clipindex>
						<groupindex>1</groupindex>
					</link>
					<link>
						<linkclipref>SCDV016851_LET-S GO 1_SONOTON.wav2</linkclipref>
						<mediatype>audio</mediatype>
						<trackindex>4</trackindex>
						<clipindex>23</clipindex>
						<groupindex>1</groupindex>
					</link>
				</clipitem>
				<transitionitem id="1253929868 ">
					<rate>
						<ntsc>FALSE</ntsc>
						<timebase>25</timebase>
					</rate>
					<start>8874</start>
					<end>8883</end>
					<alignment>start</alignment>
					<effect>
						<name>Cross Fade (+3dB)</name>
						<effecttype>transition</effecttype>
						<mediatype>audio</mediatype>
					</effect>
				</transitionitem>
				<clipitem id="SCDV016851_LET-S GO 1_SONOTON.wav4">
					<name>SCDV016851_LET-S GO 1_SONOTON.wav</name>
					<duration>502</duration>
					<rate>
						<ntsc>FALSE</ntsc>
						<timebase>25</timebase>
					</rate>
					<in>4</in>
					<out>502</out>
					<start>-1</start>
					<end>9372</end>
					<subframeoffset>0</subframeoffset>
					<masterclipid>SCDV016851_LET-S GO 1_SONOTON.wav1</masterclipid>
					<logginginfo>
						<scene/>
						<shottake/>
						<lognote/>
						<good>FALSE</good>
					</logginginfo>
					<labels>
						<label2/>
					</labels>
					<comments>
						<mastercomment1/>
						<mastercomment2/>
						<mastercomment3/>
						<mastercomment4/>
					</comments>
					<file id="SCDV016851_LET-S GO 1_SONOTON"/>
					<filter>
						<effect>
							<name>Audio Levels</name>
							<effectid>audiolevels</effectid>
							<effectcategory>audiolevels</effectcategory>
							<effecttype>audiolevels</effecttype>
							<mediatype>audio</mediatype>
							<parameter>
								<name>Level</name>
								<parameterid>level</parameterid>
								<valuemin>0</valuemin>
								<valuemax>3.98109</valuemax>
								<keyframe>
									<when>81.2857</when>
									<value>0.0141254</value>
								</keyframe>
								<keyframe>
									<when>111</when>
									<value>0.0398107</value>
								</keyframe>
								<keyframe>
									<when>196.714</when>
									<value>0.0398107</value>
								</keyframe>
								<keyframe>
									<when>218.429</when>
									<value>0.0223872</value>
								</keyframe>
								<interpolation>
									<name>FCPCurve</name>
								</interpolation>
								<value>0.0223872</value>
							</parameter>
						</effect>
					</filter>
					<filter>
						<effect>
							<name>Audio Pan</name>
							<effectid>audiopan</effectid>
							<effectcategory>audiopan</effectcategory>
							<effecttype>audiopan</effecttype>
							<mediatype>audio</mediatype>
							<parameter>
								<name>Pan</name>
								<parameterid>pan</parameterid>
								<valuemin>-1</valuemin>
								<valuemax>1</valuemax>
								<value>1</value>
							</parameter>
						</effect>
					</filter>
					<sourcetrack>
						<mediatype>audio</mediatype>
						<trackindex>2</trackindex>
					</sourcetrack>
					<link>
						<linkclipref>SCDV016851_LET-S GO 1_SONOTON.wav3</linkclipref>
						<mediatype>audio</mediatype>
						<trackindex>3</trackindex>
						<clipindex>28</clipindex>
						<groupindex>1</groupindex>
					</link>
					<link>
						<linkclipref>SCDV016851_LET-S GO 1_SONOTON.wav4</linkclipref>
						<mediatype>audio</mediatype>
						<trackindex>4</trackindex>
						<clipindex>25</clipindex>
						<groupindex>1</groupindex>
					</link>
				</clipitem>
				<clipitem id="WHOOSHLARG…WHOOSHBYFS105302.WAV2">
					<name>WHOOSHLARG…WHOOSHBYFS105302.WAV</name>
					<duration>183</duration>
					<rate>
						<ntsc>FALSE</ntsc>
						<timebase>25</timebase>
					</rate>
					<in>0</in>
					<out>82</out>
					<start>10571</start>
					<end>10653</end>
					<subframeoffset>0</subframeoffset>
					<masterclipid>WHOOSHLARG…WHOOSHBYFS105302.WAV1</masterclipid>
					<logginginfo>
						<scene/>
						<shottake/>
						<lognote/>
						<good>FALSE</good>
					</logginginfo>
					<labels>
						<label2/>
					</labels>
					<comments>
						<mastercomment1/>
						<mastercomment2/>
						<mastercomment3/>
						<mastercomment4/>
					</comments>
					<file id="WHOOSHLARG…WHOOSHBYFS105302 "/>
					<filter>
						<effect>
							<name>Audio Levels</name>
							<effectid>audiolevels</effectid>
							<effectcategory>audiolevels</effectcategory>
							<effecttype>audiolevels</effecttype>
							<mediatype>audio</mediatype>
							<parameter>
								<name>Level</name>
								<parameterid>level</parameterid>
								<valuemin>0</valuemin>
								<valuemax>3.98109</valuemax>
								<value>0.251189</value>
							</parameter>
						</effect>
					</filter>
					<filter>
						<effect>
							<name>Audio Pan</name>
							<effectid>audiopan</effectid>
							<effectcategory>audiopan</effectcategory>
							<effecttype>audiopan</effecttype>
							<mediatype>audio</mediatype>
							<parameter>
								<name>Pan</name>
								<parameterid>pan</parameterid>
								<valuemin>-1</valuemin>
								<valuemax>1</valuemax>
								<value>1</value>
							</parameter>
						</effect>
					</filter>
					<sourcetrack>
						<mediatype>audio</mediatype>
						<trackindex>2</trackindex>
					</sourcetrack>
					<link>
						<linkclipref>WHOOSHLARG…WHOOSHBYFS105302.WAV</linkclipref>
						<mediatype>audio</mediatype>
						<trackindex>3</trackindex>
						<clipindex>29</clipindex>
						<groupindex>1</groupindex>
					</link>
					<link>
						<linkclipref>WHOOSHLARG…WHOOSHBYFS105302.WAV2</linkclipref>
						<mediatype>audio</mediatype>
						<trackindex>4</trackindex>
						<clipindex>26</clipindex>
						<groupindex>1</groupindex>
					</link>
					<filter>
						<effect>
							<name>Time Remap</name>
							<effectid>timeremap</effectid>
							<effectcategory>motion</effectcategory>
							<effecttype>motion</effecttype>
							<mediatype>audio</mediatype>
							<parameter>
								<parameterid>variablespeed</parameterid>
								<name>variablespeed</name>
								<valuemin>0</valuemin>
								<valuemax>1</valuemax>
								<value>0</value>
							</parameter>
							<parameter>
								<parameterid>mappedduration</parameterid>
								<name>mappedduration</name>
								<value>
									<timecode>
										<rate>
											<timebase>0</timebase>
										</rate>
										<string>0</string>
										<frame>0</frame>
										<displayformat>NDF</displayformat>
									</timecode>
								</value>
							</parameter>
							<parameter>
								<parameterid>speed</parameterid>
								<name>speed</name>
								<valuemin>-10000</valuemin>
								<valuemax>10000</valuemax>
								<value>50</value>
							</parameter>
							<parameter>
								<parameterid>reverse</parameterid>
								<name>reverse</name>
								<value>FALSE</value>
							</parameter>
							<parameter>
								<parameterid>frameblending</parameterid>
								<name>frameblending</name>
								<value>TRUE</value>
							</parameter>
							<parameter>
								<parameterid>graphdict</parameterid>
								<name>graphdict</name>
								<valuemin>0</valuemin>
								<valuemax>91</valuemax>
								<keyframe>
									<when>0</when>
									<value>0.4999</value>
									<speedkfin>TRUE</speedkfin>
								</keyframe>
								<keyframe>
									<when>82</when>
									<value>41.4999</value>
									<speedkfout>TRUE</speedkfout>
									<speedvirtualkf>TRUE</speedvirtualkf>
								</keyframe>
								<keyframe>
									<when>183</when>
									<value>92.4999</value>
									<speedkfend>TRUE</speedkfend>
									<speedvirtualkf>TRUE</speedvirtualkf>
								</keyframe>
								<interpolation>
									<name>FCPCurve</name>
								</interpolation>
								<value>0.4999</value>
							</parameter>
						</effect>
					</filter>
				</clipitem>
				<clipitem id=" SWOOSH slow_1-2.aif2">
					<name> SWOOSH slow_1-2.aif</name>
					<duration>221</duration>
					<rate>
						<ntsc>FALSE</ntsc>
						<timebase>25</timebase>
					</rate>
					<in>5</in>
					<out>46</out>
					<start>10871</start>
					<end>10912</end>
					<subframeoffset>0</subframeoffset>
					<masterclipid> SWOOSH slow_1-2.aif1</masterclipid>
					<logginginfo>
						<scene/>
						<shottake/>
						<lognote/>
						<good>FALSE</good>
					</logginginfo>
					<labels>
						<label2/>
					</labels>
					<comments>
						<mastercomment1/>
						<mastercomment2/>
						<mastercomment3/>
						<mastercomment4/>
					</comments>
					<file id=" SWOOSH slow_1-2 "/>
					<filter>
						<effect>
							<name>Audio Levels</name>
							<effectid>audiolevels</effectid>
							<effectcategory>audiolevels</effectcategory>
							<effecttype>audiolevels</effecttype>
							<mediatype>audio</mediatype>
							<parameter>
								<name>Level</name>
								<parameterid>level</parameterid>
								<valuemin>0</valuemin>
								<valuemax>3.98109</valuemax>
								<value>1</value>
							</parameter>
						</effect>
					</filter>
					<filter>
						<effect>
							<name>Audio Pan</name>
							<effectid>audiopan</effectid>
							<effectcategory>audiopan</effectcategory>
							<effecttype>audiopan</effecttype>
							<mediatype>audio</mediatype>
							<parameter>
								<name>Pan</name>
								<parameterid>pan</parameterid>
								<valuemin>-1</valuemin>
								<valuemax>1</valuemax>
								<value>1</value>
							</parameter>
						</effect>
					</filter>
					<sourcetrack>
						<mediatype>audio</mediatype>
						<trackindex>2</trackindex>
					</sourcetrack>
					<link>
						<linkclipref> SWOOSH slow_1-2.aif</linkclipref>
						<mediatype>audio</mediatype>
						<trackindex>3</trackindex>
						<clipindex>30</clipindex>
						<groupindex>1</groupindex>
					</link>
					<link>
						<linkclipref> SWOOSH slow_1-2.aif2</linkclipref>
						<mediatype>audio</mediatype>
						<trackindex>4</trackindex>
						<clipindex>27</clipindex>
						<groupindex>1</groupindex>
					</link>
					<filter>
						<effect>
							<name>Time Remap</name>
							<effectid>timeremap</effectid>
							<effectcategory>motion</effectcategory>
							<effecttype>motion</effecttype>
							<mediatype>audio</mediatype>
							<parameter>
								<parameterid>variablespeed</parameterid>
								<name>variablespeed</name>
								<valuemin>0</valuemin>
								<valuemax>1</valuemax>
								<value>0</value>
							</parameter>
							<parameter>
								<parameterid>mappedduration</parameterid>
								<name>mappedduration</name>
								<value>
									<timecode>
										<rate>
											<timebase>0</timebase>
										</rate>
										<string>0</string>
										<frame>0</frame>
										<displayformat>NDF</displayformat>
									</timecode>
								</value>
							</parameter>
							<parameter>
								<parameterid>speed</parameterid>
								<name>speed</name>
								<valuemin>-10000</valuemin>
								<valuemax>10000</valuemax>
								<value>69</value>
							</parameter>
							<parameter>
								<parameterid>reverse</parameterid>
								<name>reverse</name>
								<value>FALSE</value>
							</parameter>
							<parameter>
								<parameterid>frameblending</parameterid>
								<name>frameblending</name>
								<value>TRUE</value>
							</parameter>
							<parameter>
								<parameterid>graphdict</parameterid>
								<name>graphdict</name>
								<valuemin>0</valuemin>
								<valuemax>153</valuemax>
								<keyframe>
									<when>0</when>
									<value>0.5227</value>
									<speedkfstart>TRUE</speedkfstart>
									<speedvirtualkf>TRUE</speedvirtualkf>
								</keyframe>
								<keyframe>
									<when>5</when>
									<value>3.99997</value>
									<speedkfin>TRUE</speedkfin>
									<speedvirtualkf>TRUE</speedvirtualkf>
								</keyframe>
								<keyframe>
									<when>46</when>
									<value>32.5136</value>
									<speedkfout>TRUE</speedkfout>
									<speedvirtualkf>TRUE</speedvirtualkf>
								</keyframe>
								<keyframe>
									<when>221</when>
									<value>154.523</value>
									<speedkfend>TRUE</speedkfend>
									<speedvirtualkf>TRUE</speedvirtualkf>
								</keyframe>
								<interpolation>
									<name>FCPCurve</name>
								</interpolation>
								<value>3.99997</value>
							</parameter>
						</effect>
					</filter>
				</clipitem>
				<clipitem id="WHOOSHLARG…WHOOSHBYFS105302.WAV4">
					<name>WHOOSHLARG…WHOOSHBYFS105302.WAV</name>
					<duration>454</duration>
					<rate>
						<ntsc>FALSE</ntsc>
						<timebase>25</timebase>
					</rate>
					<in>40</in>
					<out>110</out>
					<start>11196</start>
					<end>11266</end>
					<subframeoffset>0</subframeoffset>
					<masterclipid>WHOOSHLARG…WHOOSHBYFS105302.WAV1</masterclipid>
					<logginginfo>
						<scene/>
						<shottake/>
						<lognote/>
						<good>FALSE</good>
					</logginginfo>
					<labels>
						<label2/>
					</labels>
					<comments>
						<mastercomment1/>
						<mastercomment2/>
						<mastercomment3/>
						<mastercomment4/>
					</comments>
					<file id="WHOOSHLARG…WHOOSHBYFS105302 "/>
					<filter>
						<effect>
							<name>Audio Levels</name>
							<effectid>audiolevels</effectid>
							<effectcategory>audiolevels</effectcategory>
							<effecttype>audiolevels</effecttype>
							<mediatype>audio</mediatype>
							<parameter>
								<name>Level</name>
								<parameterid>level</parameterid>
								<valuemin>0</valuemin>
								<valuemax>3.98109</valuemax>
								<value>0.316228</value>
							</parameter>
						</effect>
					</filter>
					<filter>
						<effect>
							<name>Audio Pan</name>
							<effectid>audiopan</effectid>
							<effectcategory>audiopan</effectcategory>
							<effecttype>audiopan</effecttype>
							<mediatype>audio</mediatype>
							<parameter>
								<name>Pan</name>
								<parameterid>pan</parameterid>
								<valuemin>-1</valuemin>
								<valuemax>1</valuemax>
								<value>1</value>
							</parameter>
						</effect>
					</filter>
					<sourcetrack>
						<mediatype>audio</mediatype>
						<trackindex>2</trackindex>
					</sourcetrack>
					<link>
						<linkclipref>WHOOSHLARG…WHOOSHBYFS105302.WAV3</linkclipref>
						<mediatype>audio</mediatype>
						<trackindex>3</trackindex>
						<clipindex>31</clipindex>
						<groupindex>1</groupindex>
					</link>
					<link>
						<linkclipref>WHOOSHLARG…WHOOSHBYFS105302.WAV4</linkclipref>
						<mediatype>audio</mediatype>
						<trackindex>4</trackindex>
						<clipindex>28</clipindex>
						<groupindex>1</groupindex>
					</link>
					<filter>
						<effect>
							<name>Time Remap</name>
							<effectid>timeremap</effectid>
							<effectcategory>motion</effectcategory>
							<effecttype>motion</effecttype>
							<mediatype>audio</mediatype>
							<parameter>
								<parameterid>variablespeed</parameterid>
								<name>variablespeed</name>
								<valuemin>0</valuemin>
								<valuemax>1</valuemax>
								<value>0</value>
							</parameter>
							<parameter>
								<parameterid>mappedduration</parameterid>
								<name>mappedduration</name>
								<value>
									<timecode>
										<rate>
											<timebase>0</timebase>
										</rate>
										<string>0</string>
										<frame>0</frame>
										<displayformat>NDF</displayformat>
									</timecode>
								</value>
							</parameter>
							<parameter>
								<parameterid>speed</parameterid>
								<name>speed</name>
								<valuemin>-10000</valuemin>
								<valuemax>10000</valuemax>
								<value>20</value>
							</parameter>
							<parameter>
								<parameterid>reverse</parameterid>
								<name>reverse</name>
								<value>FALSE</value>
							</parameter>
							<parameter>
								<parameterid>frameblending</parameterid>
								<name>frameblending</name>
								<value>TRUE</value>
							</parameter>
							<parameter>
								<parameterid>graphdict</parameterid>
								<name>graphdict</name>
								<valuemin>0</valuemin>
								<valuemax>91</valuemax>
								<keyframe>
									<when>0</when>
									<value>0.0981</value>
									<speedkfstart>TRUE</speedkfstart>
									<speedvirtualkf>TRUE</speedvirtualkf>
								</keyframe>
								<keyframe>
									<when>40</when>
									<value>8.13342</value>
									<speedkfin>TRUE</speedkfin>
									<speedvirtualkf>TRUE</speedvirtualkf>
								</keyframe>
								<keyframe>
									<when>110</when>
									<value>22.1952</value>
									<speedkfout>TRUE</speedkfout>
									<speedvirtualkf>TRUE</speedvirtualkf>
								</keyframe>
								<keyframe>
									<when>454</when>
									<value>92.0981</value>
									<speedkfend>TRUE</speedkfend>
									<speedvirtualkf>TRUE</speedvirtualkf>
								</keyframe>
								<interpolation>
									<name>FCPCurve</name>
								</interpolation>
								<value>8.13342</value>
							</parameter>
						</effect>
					</filter>
				</clipitem>
				<clipitem id="XDCAM 20120614_094644_C0030 4">
					<name>XDCAM 20120614_094644_C0030</name>
					<duration>422</duration>
					<rate>
						<ntsc>FALSE</ntsc>
						<timebase>25</timebase>
					</rate>
					<in>297</in>
					<out>370</out>
					<start>11421</start>
					<end>11494</end>
					<subframeoffset>0</subframeoffset>
					<masterclipid>XDCAM 20120614_094644_C0030 1</masterclipid>
					<logginginfo>
						<scene/>
						<shottake/>
						<lognote/>
						<good>FALSE</good>
					</logginginfo>
					<labels>
						<label2/>
					</labels>
					<comments>
						<mastercomment1/>
						<mastercomment2/>
						<mastercomment3/>
						<mastercomment4/>
					</comments>
					<file id="XDCAM 20120614_094644_C0030 2"/>
					<filter>
						<effect>
							<name>Audio Levels</name>
							<effectid>audiolevels</effectid>
							<effectcategory>audiolevels</effectcategory>
							<effecttype>audiolevels</effecttype>
							<mediatype>audio</mediatype>
							<parameter>
								<name>Level</name>
								<parameterid>level</parameterid>
								<valuemin>0</valuemin>
								<valuemax>3.98109</valuemax>
								<value>0</value>
							</parameter>
						</effect>
					</filter>
					<filter>
						<effect>
							<name>Audio Pan</name>
							<effectid>audiopan</effectid>
							<effectcategory>audiopan</effectcategory>
							<effecttype>audiopan</effecttype>
							<mediatype>audio</mediatype>
							<parameter>
								<name>Pan</name>
								<parameterid>pan</parameterid>
								<valuemin>-1</valuemin>
								<valuemax>1</valuemax>
								<value>0</value>
							</parameter>
						</effect>
					</filter>
					<sourcetrack>
						<mediatype>audio</mediatype>
						<trackindex>3</trackindex>
					</sourcetrack>
				</clipitem>
				<clipitem id="WHOOSHLARG…WHOOSHBYFS105302.WAV6">
					<name>WHOOSHLARG…WHOOSHBYFS105302.WAV</name>
					<duration>454</duration>
					<rate>
						<ntsc>FALSE</ntsc>
						<timebase>25</timebase>
					</rate>
					<in>40</in>
					<out>110</out>
					<start>11894</start>
					<end>11964</end>
					<subframeoffset>0</subframeoffset>
					<masterclipid>WHOOSHLARG…WHOOSHBYFS105302.WAV1</masterclipid>
					<logginginfo>
						<scene/>
						<shottake/>
						<lognote/>
						<good>FALSE</good>
					</logginginfo>
					<labels>
						<label2/>
					</labels>
					<comments>
						<mastercomment1/>
						<mastercomment2/>
						<mastercomment3/>
						<mastercomment4/>
					</comments>
					<file id="WHOOSHLARG…WHOOSHBYFS105302 "/>
					<filter>
						<effect>
							<name>Audio Levels</name>
							<effectid>audiolevels</effectid>
							<effectcategory>audiolevels</effectcategory>
							<effecttype>audiolevels</effecttype>
							<mediatype>audio</mediatype>
							<parameter>
								<name>Level</name>
								<parameterid>level</parameterid>
								<valuemin>0</valuemin>
								<valuemax>3.98109</valuemax>
								<value>0.446684</value>
							</parameter>
						</effect>
					</filter>
					<filter>
						<effect>
							<name>Audio Pan</name>
							<effectid>audiopan</effectid>
							<effectcategory>audiopan</effectcategory>
							<effecttype>audiopan</effecttype>
							<mediatype>audio</mediatype>
							<parameter>
								<name>Pan</name>
								<parameterid>pan</parameterid>
								<valuemin>-1</valuemin>
								<valuemax>1</valuemax>
								<value>1</value>
							</parameter>
						</effect>
					</filter>
					<sourcetrack>
						<mediatype>audio</mediatype>
						<trackindex>2</trackindex>
					</sourcetrack>
					<link>
						<linkclipref>WHOOSHLARG…WHOOSHBYFS105302.WAV5</linkclipref>
						<mediatype>audio</mediatype>
						<trackindex>3</trackindex>
						<clipindex>37</clipindex>
						<groupindex>1</groupindex>
					</link>
					<link>
						<linkclipref>WHOOSHLARG…WHOOSHBYFS105302.WAV6</linkclipref>
						<mediatype>audio</mediatype>
						<trackindex>4</trackindex>
						<clipindex>30</clipindex>
						<groupindex>1</groupindex>
					</link>
					<filter>
						<effect>
							<name>Time Remap</name>
							<effectid>timeremap</effectid>
							<effectcategory>motion</effectcategory>
							<effecttype>motion</effecttype>
							<mediatype>audio</mediatype>
							<parameter>
								<parameterid>variablespeed</parameterid>
								<name>variablespeed</name>
								<valuemin>0</valuemin>
								<valuemax>1</valuemax>
								<value>0</value>
							</parameter>
							<parameter>
								<parameterid>mappedduration</parameterid>
								<name>mappedduration</name>
								<value>
									<timecode>
										<rate>
											<timebase>0</timebase>
										</rate>
										<string>0</string>
										<frame>0</frame>
										<displayformat>NDF</displayformat>
									</timecode>
								</value>
							</parameter>
							<parameter>
								<parameterid>speed</parameterid>
								<name>speed</name>
								<valuemin>-10000</valuemin>
								<valuemax>10000</valuemax>
								<value>20</value>
							</parameter>
							<parameter>
								<parameterid>reverse</parameterid>
								<name>reverse</name>
								<value>FALSE</value>
							</parameter>
							<parameter>
								<parameterid>frameblending</parameterid>
								<name>frameblending</name>
								<value>TRUE</value>
							</parameter>
							<parameter>
								<parameterid>graphdict</parameterid>
								<name>graphdict</name>
								<valuemin>0</valuemin>
								<valuemax>91</valuemax>
								<keyframe>
									<when>0</when>
									<value>0.0981</value>
									<speedkfstart>TRUE</speedkfstart>
									<speedvirtualkf>TRUE</speedvirtualkf>
								</keyframe>
								<keyframe>
									<when>40</when>
									<value>8.13342</value>
									<speedkfin>TRUE</speedkfin>
									<speedvirtualkf>TRUE</speedvirtualkf>
								</keyframe>
								<keyframe>
									<when>110</when>
									<value>22.1952</value>
									<speedkfout>TRUE</speedkfout>
									<speedvirtualkf>TRUE</speedvirtualkf>
								</keyframe>
								<keyframe>
									<when>454</when>
									<value>92.0981</value>
									<speedkfend>TRUE</speedkfend>
									<speedvirtualkf>TRUE</speedvirtualkf>
								</keyframe>
								<interpolation>
									<name>FCPCurve</name>
								</interpolation>
								<value>8.13342</value>
							</parameter>
						</effect>
					</filter>
				</clipitem>
				<clipitem id="SCD074302_MICROSCOPIC_SONOTON.wav2">
					<name>SCD074302_MICROSCOPIC_SONOTON.wav</name>
					<duration>3084</duration>
					<rate>
						<ntsc>FALSE</ntsc>
						<timebase>25</timebase>
					</rate>
					<in>0</in>
					<out>1696</out>
					<start>14973</start>
					<end>16669</end>
					<masterclipid>SCD074302_MICROSCOPIC_SONOTON.wav3</masterclipid>
					<logginginfo>
						<scene/>
						<shottake/>
						<lognote/>
						<good>FALSE</good>
					</logginginfo>
					<labels>
						<label2/>
					</labels>
					<comments>
						<mastercomment1/>
						<mastercomment2/>
						<mastercomment3/>
						<mastercomment4/>
					</comments>
					<file id="SCD074302_MICROSCOPIC_SONOTON"/>
					<filter>
						<effect>
							<name>Audio Levels</name>
							<effectid>audiolevels</effectid>
							<effectcategory>audiolevels</effectcategory>
							<effecttype>audiolevels</effecttype>
							<mediatype>audio</mediatype>
							<parameter>
								<name>Level</name>
								<parameterid>level</parameterid>
								<valuemin>0</valuemin>
								<valuemax>3.98109</valuemax>
								<keyframe>
									<when>0</when>
									<value>0.354813</value>
								</keyframe>
								<keyframe>
									<when>80.6696</when>
									<value>0.158489</value>
								</keyframe>
								<keyframe>
									<when>260.625</when>
									<value>0.0354813</value>
								</keyframe>
								<keyframe>
									<when>593.232</when>
									<value>0.0354813</value>
								</keyframe>
								<keyframe>
									<when>660.25</when>
									<value>0.158489</value>
								</keyframe>
								<keyframe>
									<when>866.268</when>
									<value>0.158489</value>
								</keyframe>
								<keyframe>
									<when>951.902</when>
									<value>0.0630957</value>
								</keyframe>
								<keyframe>
									<when>1108.28</when>
									<value>0.0630957</value>
								</keyframe>
								<keyframe>
									<when>1191.43</when>
									<value>0.0177828</value>
								</keyframe>
								<keyframe>
									<when>1412.34</when>
									<value>0</value>
								</keyframe>
								<interpolation>
									<name>FCPCurve</name>
								</interpolation>
								<value>1</value>
							</parameter>
						</effect>
					</filter>
					<filter>
						<effect>
							<name>Audio Pan</name>
							<effectid>audiopan</effectid>
							<effectcategory>audiopan</effectcategory>
							<effecttype>audiopan</effecttype>
							<mediatype>audio</mediatype>
							<parameter>
								<name>Pan</name>
								<parameterid>pan</parameterid>
								<valuemin>-1</valuemin>
								<valuemax>1</valuemax>
								<value>1</value>
							</parameter>
						</effect>
					</filter>
					<sourcetrack>
						<mediatype>audio</mediatype>
						<trackindex>2</trackindex>
					</sourcetrack>
					<link>
						<linkclipref>SCD074302_MICROSCOPIC_SONOTON.wav</linkclipref>
						<mediatype>audio</mediatype>
						<trackindex>3</trackindex>
						<clipindex>38</clipindex>
						<groupindex>1</groupindex>
					</link>
					<link>
						<linkclipref>SCD074302_MICROSCOPIC_SONOTON.wav2</linkclipref>
						<mediatype>audio</mediatype>
						<trackindex>4</trackindex>
						<clipindex>31</clipindex>
						<groupindex>1</groupindex>
					</link>
				</clipitem>
				<clipitem id="FWM005515_SEQUENTIAL SCIENCE_SONOTON.wav2">
					<name>FWM005515_SEQUENTIAL SCIENCE_SONOTON.wav</name>
					<duration>3143</duration>
					<rate>
						<ntsc>FALSE</ntsc>
						<timebase>25</timebase>
					</rate>
					<in>0</in>
					<out>525</out>
					<start>17778</start>
					<end>-1</end>
					<masterclipid>FWM005515_SEQUENTIAL SCIENCE_SONOTON.wav15</masterclipid>
					<logginginfo>
						<scene/>
						<shottake/>
						<lognote/>
						<good>FALSE</good>
					</logginginfo>
					<labels>
						<label2/>
					</labels>
					<comments>
						<mastercomment1/>
						<mastercomment2/>
						<mastercomment3/>
						<mastercomment4/>
					</comments>
					<file id="FWM005515_SEQUENTIAL SCIENCE_SONOTON"/>
					<filter>
						<effect>
							<name>Audio Levels</name>
							<effectid>audiolevels</effectid>
							<effectcategory>audiolevels</effectcategory>
							<effecttype>audiolevels</effecttype>
							<mediatype>audio</mediatype>
							<parameter>
								<name>Level</name>
								<parameterid>level</parameterid>
								<valuemin>0</valuemin>
								<valuemax>3.98109</valuemax>
								<keyframe>
									<when>92.75</when>
									<value>0.446686</value>
								</keyframe>
								<keyframe>
									<when>149.188</when>
									<value>1.12202</value>
								</keyframe>
								<interpolation>
									<name>FCPCurve</name>
								</interpolation>
								<value>1</value>
							</parameter>
						</effect>
					</filter>
					<filter>
						<effect>
							<name>Audio Pan</name>
							<effectid>audiopan</effectid>
							<effectcategory>audiopan</effectcategory>
							<effecttype>audiopan</effecttype>
							<mediatype>audio</mediatype>
							<parameter>
								<name>Pan</name>
								<parameterid>pan</parameterid>
								<valuemin>-1</valuemin>
								<valuemax>1</valuemax>
								<value>1</value>
							</parameter>
						</effect>
					</filter>
					<sourcetrack>
						<mediatype>audio</mediatype>
						<trackindex>2</trackindex>
					</sourcetrack>
					<link>
						<linkclipref>FWM005515_SEQUENTIAL SCIENCE_SONOTON.wav</linkclipref>
						<mediatype>audio</mediatype>
						<trackindex>3</trackindex>
						<clipindex>39</clipindex>
						<groupindex>1</groupindex>
					</link>
					<link>
						<linkclipref>FWM005515_SEQUENTIAL SCIENCE_SONOTON.wav2</linkclipref>
						<mediatype>audio</mediatype>
						<trackindex>4</trackindex>
						<clipindex>32</clipindex>
						<groupindex>1</groupindex>
					</link>
				</clipitem>
				<transitionitem id="1253927080 ">
					<rate>
						<ntsc>FALSE</ntsc>
						<timebase>25</timebase>
					</rate>
					<start>18234</start>
					<end>18303</end>
					<alignment>center</alignment>
					<effect>
						<name>Cross Fade (+3dB)</name>
						<effecttype>transition</effecttype>
						<mediatype>audio</mediatype>
					</effect>
				</transitionitem>
				<clipitem id="FWM005515_SEQUENTIAL SCIENCE_SONOTON.wav5">
					<name>FWM005515_SEQUENTIAL SCIENCE_SONOTON.wav</name>
					<duration>3143</duration>
					<rate>
						<ntsc>FALSE</ntsc>
						<timebase>25</timebase>
					</rate>
					<in>2135</in>
					<out>2521</out>
					<start>-1</start>
					<end>18620</end>
					<masterclipid>FWM005515_SEQUENTIAL SCIENCE_SONOTON.wav16</masterclipid>
					<logginginfo>
						<scene/>
						<shottake/>
						<lognote/>
						<good>FALSE</good>
					</logginginfo>
					<labels>
						<label2/>
					</labels>
					<comments>
						<mastercomment1/>
						<mastercomment2/>
						<mastercomment3/>
						<mastercomment4/>
					</comments>
					<file id="FWM005515_SEQUENTIAL SCIENCE_SONOTON"/>
					<filter>
						<effect>
							<name>Audio Levels</name>
							<effectid>audiolevels</effectid>
							<effectcategory>audiolevels</effectcategory>
							<effecttype>audiolevels</effecttype>
							<mediatype>audio</mediatype>
							<parameter>
								<name>Level</name>
								<parameterid>level</parameterid>
								<valuemin>0</valuemin>
								<valuemax>3.98109</valuemax>
								<keyframe>
									<when>92.75</when>
									<value>0.112202</value>
								</keyframe>
								<keyframe>
									<when>149.188</when>
									<value>1.00001</value>
								</keyframe>
								<keyframe>
									<when>2459.46</when>
									<value>1.00001</value>
								</keyframe>
								<keyframe>
									<when>2574.38</when>
									<value>0.199527</value>
								</keyframe>
								<interpolation>
									<name>FCPCurve</name>
								</interpolation>
								<value>1</value>
							</parameter>
						</effect>
					</filter>
					<filter>
						<effect>
							<name>Audio Pan</name>
							<effectid>audiopan</effectid>
							<effectcategory>audiopan</effectcategory>
							<effecttype>audiopan</effecttype>
							<mediatype>audio</mediatype>
							<parameter>
								<name>Pan</name>
								<parameterid>pan</parameterid>
								<valuemin>-1</valuemin>
								<valuemax>1</valuemax>
								<value>1</value>
							</parameter>
						</effect>
					</filter>
					<sourcetrack>
						<mediatype>audio</mediatype>
						<trackindex>2</trackindex>
					</sourcetrack>
					<link>
						<linkclipref>FWM005515_SEQUENTIAL SCIENCE_SONOTON.wav3</linkclipref>
						<mediatype>audio</mediatype>
						<trackindex>3</trackindex>
						<clipindex>41</clipindex>
						<groupindex>1</groupindex>
					</link>
					<link>
						<linkclipref>FWM005515_SEQUENTIAL SCIENCE_SONOTON.wav5</linkclipref>
						<mediatype>audio</mediatype>
						<trackindex>4</trackindex>
						<clipindex>34</clipindex>
						<groupindex>1</groupindex>
					</link>
				</clipitem>
				<clipitem id="FWM005515_SEQUENTIAL SCIENCE_SONOTON.wav8">
					<name>FWM005515_SEQUENTIAL SCIENCE_SONOTON.wav</name>
					<duration>3143</duration>
					<rate>
						<ntsc>FALSE</ntsc>
						<timebase>25</timebase>
					</rate>
					<in>2521</in>
					<out>2779</out>
					<start>18620</start>
					<end>-1</end>
					<masterclipid>FWM005515_SEQUENTIAL SCIENCE_SONOTON.wav17</masterclipid>
					<logginginfo>
						<scene/>
						<shottake/>
						<lognote/>
						<good>FALSE</good>
					</logginginfo>
					<labels>
						<label2/>
					</labels>
					<comments>
						<mastercomment1/>
						<mastercomment2/>
						<mastercomment3/>
						<mastercomment4/>
					</comments>
					<file id="FWM005515_SEQUENTIAL SCIENCE_SONOTON"/>
					<filter>
						<effect>
							<name>Audio Levels</name>
							<effectid>audiolevels</effectid>
							<effectcategory>audiolevels</effectcategory>
							<effecttype>audiolevels</effecttype>
							<mediatype>audio</mediatype>
							<parameter>
								<name>Level</name>
								<parameterid>level</parameterid>
								<valuemin>0</valuemin>
								<valuemax>3.98109</valuemax>
								<keyframe>
									<when>92.75</when>
									<value>0.112202</value>
								</keyframe>
								<keyframe>
									<when>149.188</when>
									<value>0.251189</value>
								</keyframe>
								<keyframe>
									<when>2459.46</when>
									<value>1.00001</value>
								</keyframe>
								<keyframe>
									<when>2574.38</when>
									<value>0.199527</value>
								</keyframe>
								<interpolation>
									<name>FCPCurve</name>
								</interpolation>
								<value>1</value>
							</parameter>
						</effect>
					</filter>
					<filter>
						<effect>
							<name>Audio Pan</name>
							<effectid>audiopan</effectid>
							<effectcategory>audiopan</effectcategory>
							<effecttype>audiopan</effecttype>
							<mediatype>audio</mediatype>
							<parameter>
								<name>Pan</name>
								<parameterid>pan</parameterid>
								<valuemin>-1</valuemin>
								<valuemax>1</valuemax>
								<value>1</value>
							</parameter>
						</effect>
					</filter>
					<sourcetrack>
						<mediatype>audio</mediatype>
						<trackindex>2</trackindex>
					</sourcetrack>
					<link>
						<linkclipref>FWM005515_SEQUENTIAL SCIENCE_SONOTON.wav6</linkclipref>
						<mediatype>audio</mediatype>
						<trackindex>3</trackindex>
						<clipindex>42</clipindex>
						<groupindex>1</groupindex>
					</link>
					<link>
						<linkclipref>FWM005515_SEQUENTIAL SCIENCE_SONOTON.wav8</linkclipref>
						<mediatype>audio</mediatype>
						<trackindex>4</trackindex>
						<clipindex>35</clipindex>
						<groupindex>1</groupindex>
					</link>
				</clipitem>
				<transitionitem id="1253925040 ">
					<rate>
						<ntsc>FALSE</ntsc>
						<timebase>25</timebase>
					</rate>
					<start>18853</start>
					<end>18878</end>
					<alignment>center</alignment>
					<effect>
						<name>Cross Fade (+3dB)</name>
						<effecttype>transition</effecttype>
						<mediatype>audio</mediatype>
					</effect>
				</transitionitem>
				<clipitem id="FWM005515_SEQUENTIAL SCIENCE_SONOTON.wav11">
					<name>FWM005515_SEQUENTIAL SCIENCE_SONOTON.wav</name>
					<duration>3143</duration>
					<rate>
						<ntsc>FALSE</ntsc>
						<timebase>25</timebase>
					</rate>
					<in>2556</in>
					<out>2742</out>
					<start>-1</start>
					<end>-1</end>
					<masterclipid>FWM005515_SEQUENTIAL SCIENCE_SONOTON.wav18</masterclipid>
					<logginginfo>
						<scene/>
						<shottake/>
						<lognote/>
						<good>FALSE</good>
					</logginginfo>
					<labels>
						<label2/>
					</labels>
					<comments>
						<mastercomment1/>
						<mastercomment2/>
						<mastercomment3/>
						<mastercomment4/>
					</comments>
					<file id="FWM005515_SEQUENTIAL SCIENCE_SONOTON"/>
					<filter>
						<effect>
							<name>Audio Levels</name>
							<effectid>audiolevels</effectid>
							<effectcategory>audiolevels</effectcategory>
							<effecttype>audiolevels</effecttype>
							<mediatype>audio</mediatype>
							<parameter>
								<name>Level</name>
								<parameterid>level</parameterid>
								<valuemin>0</valuemin>
								<valuemax>3.98109</valuemax>
								<keyframe>
									<when>92.75</when>
									<value>0.112202</value>
								</keyframe>
								<keyframe>
									<when>149.188</when>
									<value>0.251189</value>
								</keyframe>
								<keyframe>
									<when>2459.46</when>
									<value>0.251189</value>
								</keyframe>
								<keyframe>
									<when>2544.7</when>
									<value>0.25119</value>
								</keyframe>
								<keyframe>
									<when>2574.38</when>
									<value>0.25119</value>
								</keyframe>
								<interpolation>
									<name>FCPCurve</name>
								</interpolation>
								<value>1</value>
							</parameter>
						</effect>
					</filter>
					<filter>
						<effect>
							<name>Audio Pan</name>
							<effectid>audiopan</effectid>
							<effectcategory>audiopan</effectcategory>
							<effecttype>audiopan</effecttype>
							<mediatype>audio</mediatype>
							<parameter>
								<name>Pan</name>
								<parameterid>pan</parameterid>
								<valuemin>-1</valuemin>
								<valuemax>1</valuemax>
								<value>1</value>
							</parameter>
						</effect>
					</filter>
					<sourcetrack>
						<mediatype>audio</mediatype>
						<trackindex>2</trackindex>
					</sourcetrack>
					<link>
						<linkclipref>FWM005515_SEQUENTIAL SCIENCE_SONOTON.wav9</linkclipref>
						<mediatype>audio</mediatype>
						<trackindex>3</trackindex>
						<clipindex>44</clipindex>
						<groupindex>1</groupindex>
					</link>
					<link>
						<linkclipref>FWM005515_SEQUENTIAL SCIENCE_SONOTON.wav11</linkclipref>
						<mediatype>audio</mediatype>
						<trackindex>4</trackindex>
						<clipindex>37</clipindex>
						<groupindex>1</groupindex>
					</link>
				</clipitem>
				<transitionitem id="1253925584 ">
					<rate>
						<ntsc>FALSE</ntsc>
						<timebase>25</timebase>
					</rate>
					<start>19014</start>
					<end>19039</end>
					<alignment>center</alignment>
					<effect>
						<name>Cross Fade (+3dB)</name>
						<effecttype>transition</effecttype>
						<mediatype>audio</mediatype>
					</effect>
				</transitionitem>
				<clipitem id="FWM005515_SEQUENTIAL SCIENCE_SONOTON.wav14">
					<name>FWM005515_SEQUENTIAL SCIENCE_SONOTON.wav</name>
					<duration>3143</duration>
					<rate>
						<ntsc>FALSE</ntsc>
						<timebase>25</timebase>
					</rate>
					<in>2746</in>
					<out>3143</out>
					<start>-1</start>
					<end>19411</end>
					<masterclipid>FWM005515_SEQUENTIAL SCIENCE_SONOTON.wav19</masterclipid>
					<logginginfo>
						<scene/>
						<shottake/>
						<lognote/>
						<good>FALSE</good>
					</logginginfo>
					<labels>
						<label2/>
					</labels>
					<comments>
						<mastercomment1/>
						<mastercomment2/>
						<mastercomment3/>
						<mastercomment4/>
					</comments>
					<file id="FWM005515_SEQUENTIAL SCIENCE_SONOTON"/>
					<filter>
						<effect>
							<name>Audio Levels</name>
							<effectid>audiolevels</effectid>
							<effectcategory>audiolevels</effectcategory>
							<effecttype>audiolevels</effecttype>
							<mediatype>audio</mediatype>
							<parameter>
								<name>Level</name>
								<parameterid>level</parameterid>
								<valuemin>0</valuemin>
								<valuemax>3.98109</valuemax>
								<keyframe>
									<when>92.75</when>
									<value>0.112202</value>
								</keyframe>
								<keyframe>
									<when>149.188</when>
									<value>0.251189</value>
								</keyframe>
								<keyframe>
									<when>2459.46</when>
									<value>0.251189</value>
								</keyframe>
								<keyframe>
									<when>2574.38</when>
									<value>0.199527</value>
								</keyframe>
								<keyframe>
									<when>2876.25</when>
									<value>0.354815</value>
								</keyframe>
								<keyframe>
									<when>2982</when>
									<value>1.12202</value>
								</keyframe>
								<interpolation>
									<name>FCPCurve</name>
								</interpolation>
								<value>1</value>
							</parameter>
						</effect>
					</filter>
					<filter>
						<effect>
							<name>Audio Pan</name>
							<effectid>audiopan</effectid>
							<effectcategory>audiopan</effectcategory>
							<effecttype>audiopan</effecttype>
							<mediatype>audio</mediatype>
							<parameter>
								<name>Pan</name>
								<parameterid>pan</parameterid>
								<valuemin>-1</valuemin>
								<valuemax>1</valuemax>
								<value>1</value>
							</parameter>
						</effect>
					</filter>
					<sourcetrack>
						<mediatype>audio</mediatype>
						<trackindex>2</trackindex>
					</sourcetrack>
					<link>
						<linkclipref>FWM005515_SEQUENTIAL SCIENCE_SONOTON.wav12</linkclipref>
						<mediatype>audio</mediatype>
						<trackindex>3</trackindex>
						<clipindex>46</clipindex>
						<groupindex>1</groupindex>
					</link>
					<link>
						<linkclipref>FWM005515_SEQUENTIAL SCIENCE_SONOTON.wav14</linkclipref>
						<mediatype>audio</mediatype>
						<trackindex>4</trackindex>
						<clipindex>39</clipindex>
						<groupindex>1</groupindex>
					</link>
				</clipitem>
				<transitionitem id="1253924156 ">
					<rate>
						<ntsc>FALSE</ntsc>
						<timebase>25</timebase>
					</rate>
					<start>19577</start>
					<end>19677</end>
					<alignment>start-black</alignment>
					<effect>
						<name>Cross Fade (+3dB)</name>
						<effecttype>transition</effecttype>
						<mediatype>audio</mediatype>
					</effect>
				</transitionitem>
				<clipitem id="AUXMP_SCDV016849_LAS VEGAS WEDDING.wav2">
					<name>AUXMP_SCDV016849_LAS VEGAS WEDDING.wav</name>
					<duration>1887</duration>
					<rate>
						<ntsc>FALSE</ntsc>
						<timebase>25</timebase>
					</rate>
					<in>0</in>
					<out>1041</out>
					<start>-1</start>
					<end>20618</end>
					<subframeoffset>0</subframeoffset>
					<masterclipid>AUXMP_SCDV016849_LAS VEGAS WEDDING.wav1</masterclipid>
					<logginginfo>
						<scene/>
						<shottake/>
						<lognote/>
						<good>FALSE</good>
					</logginginfo>
					<labels>
						<label2/>
					</labels>
					<comments>
						<mastercomment1/>
						<mastercomment2/>
						<mastercomment3/>
						<mastercomment4/>
					</comments>
					<file id="AUXMP_SCDV016849_LAS VEGAS WEDDING"/>
					<filter>
						<effect>
							<name>Audio Levels</name>
							<effectid>audiolevels</effectid>
							<effectcategory>audiolevels</effectcategory>
							<effecttype>audiolevels</effecttype>
							<mediatype>audio</mediatype>
							<parameter>
								<name>Level</name>
								<parameterid>level</parameterid>
								<valuemin>0</valuemin>
								<valuemax>3.98109</valuemax>
								<keyframe>
									<when>801.714</when>
									<value>0.0199526</value>
								</keyframe>
								<keyframe>
									<when>1002.86</when>
									<value>0</value>
								</keyframe>
								<interpolation>
									<name>FCPCurve</name>
								</interpolation>
								<value>0.00891251</value>
							</parameter>
						</effect>
					</filter>
					<filter>
						<effect>
							<name>Audio Pan</name>
							<effectid>audiopan</effectid>
							<effectcategory>audiopan</effectcategory>
							<effecttype>audiopan</effecttype>
							<mediatype>audio</mediatype>
							<parameter>
								<name>Pan</name>
								<parameterid>pan</parameterid>
								<valuemin>-1</valuemin>
								<valuemax>1</valuemax>
								<value>1</value>
							</parameter>
						</effect>
					</filter>
					<sourcetrack>
						<mediatype>audio</mediatype>
						<trackindex>2</trackindex>
					</sourcetrack>
					<link>
						<linkclipref>AUXMP_SCDV016849_LAS VEGAS WEDDING.wav</linkclipref>
						<mediatype>audio</mediatype>
						<trackindex>3</trackindex>
						<clipindex>48</clipindex>
						<groupindex>1</groupindex>
					</link>
					<link>
						<linkclipref>AUXMP_SCDV016849_LAS VEGAS WEDDING.wav2</linkclipref>
						<mediatype>audio</mediatype>
						<trackindex>4</trackindex>
						<clipindex>41</clipindex>
						<groupindex>1</groupindex>
					</link>
				</clipitem>
				<clipitem id="AUXMP_SCDV016849_LAS VEGAS WEDDING.wav4">
					<name>AUXMP_SCDV016849_LAS VEGAS WEDDING.wav</name>
					<duration>1887</duration>
					<rate>
						<ntsc>FALSE</ntsc>
						<timebase>25</timebase>
					</rate>
					<in>0</in>
					<out>1793</out>
					<start>21970</start>
					<end>23763</end>
					<subframeoffset>0</subframeoffset>
					<masterclipid>AUXMP_SCDV016849_LAS VEGAS WEDDING.wav1</masterclipid>
					<logginginfo>
						<scene/>
						<shottake/>
						<lognote/>
						<good>FALSE</good>
					</logginginfo>
					<labels>
						<label2/>
					</labels>
					<comments>
						<mastercomment1/>
						<mastercomment2/>
						<mastercomment3/>
						<mastercomment4/>
					</comments>
					<file id="AUXMP_SCDV016849_LAS VEGAS WEDDING"/>
					<filter>
						<effect>
							<name>Audio Levels</name>
							<effectid>audiolevels</effectid>
							<effectcategory>audiolevels</effectcategory>
							<effecttype>audiolevels</effecttype>
							<mediatype>audio</mediatype>
							<parameter>
								<name>Level</name>
								<parameterid>level</parameterid>
								<valuemin>0</valuemin>
								<valuemax>3.98109</valuemax>
								<keyframe>
									<when>55.8571</when>
									<value>0</value>
								</keyframe>
								<keyframe>
									<when>130.143</when>
									<value>0.0354813</value>
								</keyframe>
								<keyframe>
									<when>1616.71</when>
									<value>0.0354813</value>
								</keyframe>
								<keyframe>
									<when>1757.86</when>
									<value>0</value>
								</keyframe>
								<interpolation>
									<name>FCPCurve</name>
								</interpolation>
								<value>0.112202</value>
							</parameter>
						</effect>
					</filter>
					<filter>
						<effect>
							<name>Audio Pan</name>
							<effectid>audiopan</effectid>
							<effectcategory>audiopan</effectcategory>
							<effecttype>audiopan</effecttype>
							<mediatype>audio</mediatype>
							<parameter>
								<name>Pan</name>
								<parameterid>pan</parameterid>
								<valuemin>-1</valuemin>
								<valuemax>1</valuemax>
								<value>1</value>
							</parameter>
						</effect>
					</filter>
					<sourcetrack>
						<mediatype>audio</mediatype>
						<trackindex>2</trackindex>
					</sourcetrack>
					<link>
						<linkclipref>AUXMP_SCDV016849_LAS VEGAS WEDDING.wav3</linkclipref>
						<mediatype>audio</mediatype>
						<trackindex>3</trackindex>
						<clipindex>49</clipindex>
						<groupindex>1</groupindex>
					</link>
					<link>
						<linkclipref>AUXMP_SCDV016849_LAS VEGAS WEDDING.wav4</linkclipref>
						<mediatype>audio</mediatype>
						<trackindex>4</trackindex>
						<clipindex>42</clipindex>
						<groupindex>1</groupindex>
					</link>
				</clipitem>
				<clipitem id="Meitemark-sangen4">
					<name>Meitemark-sangen</name>
					<duration>3263</duration>
					<rate>
						<ntsc>FALSE</ntsc>
						<timebase>25</timebase>
					</rate>
					<in>13</in>
					<out>87</out>
					<start>24309</start>
					<end>24383</end>
					<subframeoffset>0</subframeoffset>
					<masterclipid>Meitemark-sangen1</masterclipid>
					<logginginfo>
						<scene/>
						<shottake/>
						<lognote/>
						<good>FALSE</good>
					</logginginfo>
					<labels>
						<label2/>
					</labels>
					<comments>
						<mastercomment1/>
						<mastercomment2/>
						<mastercomment3/>
						<mastercomment4/>
					</comments>
					<file id="Meitemark-sangen2"/>
					<filter>
						<effect>
							<name>Audio Levels</name>
							<effectid>audiolevels</effectid>
							<effectcategory>audiolevels</effectcategory>
							<effecttype>audiolevels</effecttype>
							<mediatype>audio</mediatype>
							<parameter>
								<name>Level</name>
								<parameterid>level</parameterid>
								<valuemin>0</valuemin>
								<valuemax>3.98109</valuemax>
								<keyframe>
									<when>14.1429</when>
									<value>0.501187</value>
								</keyframe>
								<keyframe>
									<when>51.8571</when>
									<value>1</value>
								</keyframe>
								<interpolation>
									<name>FCPCurve</name>
								</interpolation>
								<value>1</value>
							</parameter>
						</effect>
					</filter>
					<filter>
						<effect>
							<name>Audio Pan</name>
							<effectid>audiopan</effectid>
							<effectcategory>audiopan</effectcategory>
							<effecttype>audiopan</effecttype>
							<mediatype>audio</mediatype>
							<parameter>
								<name>Pan</name>
								<parameterid>pan</parameterid>
								<valuemin>-1</valuemin>
								<valuemax>1</valuemax>
								<value>1</value>
							</parameter>
						</effect>
					</filter>
					<sourcetrack>
						<mediatype>audio</mediatype>
						<trackindex>2</trackindex>
					</sourcetrack>
					<link>
						<linkclipref>Meitemark-sangen</linkclipref>
						<mediatype>video</mediatype>
						<trackindex>1</trackindex>
						<clipindex>173</clipindex>
					</link>
					<link>
						<linkclipref>Meitemark-sangen3</linkclipref>
						<mediatype>audio</mediatype>
						<trackindex>3</trackindex>
						<clipindex>50</clipindex>
						<groupindex>1</groupindex>
					</link>
					<link>
						<linkclipref>Meitemark-sangen4</linkclipref>
						<mediatype>audio</mediatype>
						<trackindex>4</trackindex>
						<clipindex>43</clipindex>
						<groupindex>1</groupindex>
					</link>
				</clipitem>
				<clipitem id="DNPR63700911AA.mxf2">
					<name>DNPR63700911AA.mxf</name>
					<duration>31443</duration>
					<rate>
						<ntsc>FALSE</ntsc>
						<timebase>25</timebase>
					</rate>
					<in>24713</in>
					<out>27768</out>
					<start>24383</start>
					<end>27438</end>
					<subframeoffset>0</subframeoffset>
					<masterclipid>DNPR63700911AA.mxf1</masterclipid>
					<logginginfo>
						<scene/>
						<shottake/>
						<lognote/>
						<good>FALSE</good>
					</logginginfo>
					<labels>
						<label2/>
					</labels>
					<comments>
						<mastercomment1/>
						<mastercomment2/>
						<mastercomment3/>
						<mastercomment4/>
					</comments>
					<file id="DNPR63700911AA"/>
					<filter>
						<effect>
							<name>Audio Levels</name>
							<effectid>audiolevels</effectid>
							<effectcategory>audiolevels</effectcategory>
							<effecttype>audiolevels</effecttype>
							<mediatype>audio</mediatype>
							<parameter>
								<name>Level</name>
								<parameterid>level</parameterid>
								<valuemin>0</valuemin>
								<valuemax>3.98109</valuemax>
								<value>1</value>
							</parameter>
						</effect>
					</filter>
					<filter>
						<effect>
							<name>Audio Pan</name>
							<effectid>audiopan</effectid>
							<effectcategory>audiopan</effectcategory>
							<effecttype>audiopan</effecttype>
							<mediatype>audio</mediatype>
							<parameter>
								<name>Pan</name>
								<parameterid>pan</parameterid>
								<valuemin>-1</valuemin>
								<valuemax>1</valuemax>
								<value>1</value>
							</parameter>
						</effect>
					</filter>
					<sourcetrack>
						<mediatype>audio</mediatype>
						<trackindex>2</trackindex>
					</sourcetrack>
					<link>
						<linkclipref>DNPR63700911AA.mxf</linkclipref>
						<mediatype>audio</mediatype>
						<trackindex>3</trackindex>
						<clipindex>51</clipindex>
						<groupindex>1</groupindex>
					</link>
					<link>
						<linkclipref>DNPR63700911AA.mxf2</linkclipref>
						<mediatype>audio</mediatype>
						<trackindex>4</trackindex>
						<clipindex>44</clipindex>
						<groupindex>1</groupindex>
					</link>
				</clipitem>
				<clipitem id="Meitemark-sangen6">
					<name>Meitemark-sangen</name>
					<duration>3263</duration>
					<rate>
						<ntsc>FALSE</ntsc>
						<timebase>25</timebase>
					</rate>
					<in>3142</in>
					<out>3243</out>
					<start>27438</start>
					<end>27539</end>
					<subframeoffset>0</subframeoffset>
					<masterclipid>Meitemark-sangen1</masterclipid>
					<logginginfo>
						<scene/>
						<shottake/>
						<lognote/>
						<good>FALSE</good>
					</logginginfo>
					<labels>
						<label2/>
					</labels>
					<comments>
						<mastercomment1/>
						<mastercomment2/>
						<mastercomment3/>
						<mastercomment4/>
					</comments>
					<file id="Meitemark-sangen2"/>
					<filter>
						<effect>
							<name>Audio Levels</name>
							<effectid>audiolevels</effectid>
							<effectcategory>audiolevels</effectcategory>
							<effecttype>audiolevels</effecttype>
							<mediatype>audio</mediatype>
							<parameter>
								<name>Level</name>
								<parameterid>level</parameterid>
								<valuemin>0</valuemin>
								<valuemax>3.98109</valuemax>
								<keyframe>
									<when>14.1429</when>
									<value>0.501187</value>
								</keyframe>
								<keyframe>
									<when>51.8571</when>
									<value>1</value>
								</keyframe>
								<interpolation>
									<name>FCPCurve</name>
								</interpolation>
								<value>1</value>
							</parameter>
						</effect>
					</filter>
					<filter>
						<effect>
							<name>Audio Pan</name>
							<effectid>audiopan</effectid>
							<effectcategory>audiopan</effectcategory>
							<effecttype>audiopan</effecttype>
							<mediatype>audio</mediatype>
							<parameter>
								<name>Pan</name>
								<parameterid>pan</parameterid>
								<valuemin>-1</valuemin>
								<valuemax>1</valuemax>
								<value>1</value>
							</parameter>
						</effect>
					</filter>
					<sourcetrack>
						<mediatype>audio</mediatype>
						<trackindex>2</trackindex>
					</sourcetrack>
					<link>
						<linkclipref>Meitemark-sangen5</linkclipref>
						<mediatype>audio</mediatype>
						<trackindex>3</trackindex>
						<clipindex>52</clipindex>
						<groupindex>1</groupindex>
					</link>
					<link>
						<linkclipref>Meitemark-sangen6</linkclipref>
						<mediatype>audio</mediatype>
						<trackindex>4</trackindex>
						<clipindex>45</clipindex>
						<groupindex>1</groupindex>
					</link>
				</clipitem>
				<clipitem id="SCD048720 rulletekst 1.wav2">
					<name>SCD048720 rulletekst 1.wav</name>
					<duration>2137</duration>
					<rate>
						<ntsc>FALSE</ntsc>
						<timebase>25</timebase>
					</rate>
					<in>0</in>
					<out>527</out>
					<start>28953</start>
					<end>29480</end>
					<subframeoffset>0</subframeoffset>
					<enabled>TRUE</enabled>
					<masterclipid>SCD048720 rulletekst 1.wav1</masterclipid>
					<logginginfo>
						<scene/>
						<shottake/>
						<lognote/>
						<good>FALSE</good>
					</logginginfo>
					<labels>
						<label2/>
					</labels>
					<comments>
						<mastercomment1>Swingende vispetakt</mastercomment1>
						<mastercomment2/>
						<mastercomment3/>
						<mastercomment4/>
					</comments>
					<file id="SCD048720 "/>
					<filter>
						<effect>
							<name>Audio Levels</name>
							<effectid>audiolevels</effectid>
							<effectcategory>audiolevels</effectcategory>
							<effecttype>audiolevels</effecttype>
							<mediatype>audio</mediatype>
							<parameter>
								<name>Level</name>
								<parameterid>level</parameterid>
								<valuemin>0</valuemin>
								<valuemax>3.98109</valuemax>
								<keyframe>
									<when>408.429</when>
									<value>0.141254</value>
								</keyframe>
								<keyframe>
									<when>525.857</when>
									<value>0</value>
								</keyframe>
								<keyframe>
									<when>776.857</when>
									<value>0</value>
								</keyframe>
								<keyframe>
									<when>820.857</when>
									<value>0.141254</value>
								</keyframe>
								<keyframe>
									<when>922.571</when>
									<value>0</value>
								</keyframe>
								<interpolation>
									<name>FCPCurve</name>
								</interpolation>
								<value>0.0307218</value>
							</parameter>
						</effect>
					</filter>
					<filter>
						<effect>
							<name>Audio Pan</name>
							<effectid>audiopan</effectid>
							<effectcategory>audiopan</effectcategory>
							<effecttype>audiopan</effecttype>
							<mediatype>audio</mediatype>
							<parameter>
								<name>Pan</name>
								<parameterid>pan</parameterid>
								<valuemin>-1</valuemin>
								<valuemax>1</valuemax>
								<value>1</value>
							</parameter>
						</effect>
					</filter>
					<sourcetrack>
						<mediatype>audio</mediatype>
						<trackindex>2</trackindex>
					</sourcetrack>
					<link>
						<linkclipref>SCD048720 rulletekst 1.wav</linkclipref>
						<mediatype>audio</mediatype>
						<trackindex>3</trackindex>
						<clipindex>53</clipindex>
						<groupindex>1</groupindex>
					</link>
					<link>
						<linkclipref>SCD048720 rulletekst 1.wav2</linkclipref>
						<mediatype>audio</mediatype>
						<trackindex>4</trackindex>
						<clipindex>46</clipindex>
						<groupindex>1</groupindex>
					</link>
				</clipitem>
				<enabled>TRUE</enabled>
				<locked>FALSE</locked>
				<outputchannelindex>2</outputchannelindex>
			</track>
			<track>
				<clipitem id="Vignett Ny miks m Christer.wav">
					<name>Vignett Ny miks m Christer.wav</name>
					<duration>904</duration>
					<rate>
						<ntsc>FALSE</ntsc>
						<timebase>25</timebase>
					</rate>
					<in>0</in>
					<out>904</out>
					<start>2</start>
					<end>906</end>
					<enabled>TRUE</enabled>
					<masterclipid>Vignett Ny miks m Christer.wav1</masterclipid>
					<logginginfo>
						<scene/>
						<shottake/>
						<lognote/>
						<good>FALSE</good>
					</logginginfo>
					<labels>
						<label2/>
					</labels>
					<comments>
						<mastercomment1/>
						<mastercomment2/>
						<mastercomment3/>
						<mastercomment4/>
					</comments>
					<file id="Vignett Ny miks m Christer">
						<name>Vignett Ny miks m Christer.wav</name>
						<pathurl>file://localhost/Volumes/Askepott/Prosjekter/DNPR637010_Kra%CC%8Akeklubben_TEM_011212/Grafikk/VIGNETT/Vignett%20Ny%20miks%20m%20Christer.wav</pathurl>
						<rate>
							<timebase>25</timebase>
						</rate>
						<duration>904</duration>
						<timecode>
							<rate>
								<timebase>25</timebase>
							</rate>
							<string>00:07:20:06</string>
							<frame>11006</frame>
							<displayformat>NDF</displayformat>
							<source>source</source>
						</timecode>
						<media>
							<audio>
								<rate>
									<timebase>48000</timebase>
								</rate>
								<trackcount>2</trackcount>
								<samplecharacteristics>
									<depth>24</depth>
								</samplecharacteristics>
							</audio>
						</media>
					</file>
					<filter>
						<effect>
							<name>Audio Levels</name>
							<effectid>audiolevels</effectid>
							<effectcategory>audiolevels</effectcategory>
							<effecttype>audiolevels</effecttype>
							<mediatype>audio</mediatype>
							<parameter>
								<name>Level</name>
								<parameterid>level</parameterid>
								<valuemin>0</valuemin>
								<valuemax>3.98109</valuemax>
								<keyframe>
									<when>391.143</when>
									<value>1</value>
								</keyframe>
								<keyframe>
									<when>724.929</when>
									<value>1</value>
								</keyframe>
								<interpolation>
									<name>FCPCurve</name>
								</interpolation>
								<value>1</value>
							</parameter>
						</effect>
					</filter>
					<filter>
						<effect>
							<name>Audio Pan</name>
							<effectid>audiopan</effectid>
							<effectcategory>audiopan</effectcategory>
							<effecttype>audiopan</effecttype>
							<mediatype>audio</mediatype>
							<parameter>
								<name>Pan</name>
								<parameterid>pan</parameterid>
								<valuemin>-1</valuemin>
								<valuemax>1</valuemax>
								<value>-1</value>
							</parameter>
						</effect>
					</filter>
					<sourcetrack>
						<mediatype>audio</mediatype>
						<trackindex>1</trackindex>
					</sourcetrack>
					<link>
						<linkclipref>Vignett Ny miks m Christer.wav</linkclipref>
						<mediatype>audio</mediatype>
						<trackindex>5</trackindex>
						<clipindex>1</clipindex>
						<groupindex>1</groupindex>
					</link>
					<link>
						<linkclipref>Vignett Ny miks m Christer.wav2</linkclipref>
						<mediatype>audio</mediatype>
						<trackindex>6</trackindex>
						<clipindex>1</clipindex>
						<groupindex>1</groupindex>
					</link>
				</clipitem>
				<clipitem id="StarsIn…tronicDIGIFXJ027401.WAV">
					<name>StarsIn…tronicDIGIFXJ027401.WAV</name>
					<duration>822</duration>
					<rate>
						<ntsc>FALSE</ntsc>
						<timebase>25</timebase>
					</rate>
					<in>16</in>
					<out>112</out>
					<start>1651</start>
					<end>-1</end>
					<subframeoffset>0</subframeoffset>
					<masterclipid>StarsIn…tronicDIGIFXJ027401.WAV1</masterclipid>
					<logginginfo>
						<scene/>
						<shottake/>
						<lognote/>
						<good>FALSE</good>
					</logginginfo>
					<labels>
						<label2/>
					</labels>
					<comments>
						<mastercomment1/>
						<mastercomment2/>
						<mastercomment3/>
						<mastercomment4/>
					</comments>
					<file id="StarsIn…tronicDIGIFXJ027401 ">
						<name>StarsIn…tronicDIGIFXJ027401.WAV</name>
						<pathurl>file://localhost/Volumes/Askepott/Prosjekter/DNPR630012_Dyrevenn_sesong_8_010113/Lydeffekter/Natur/StarsIn%E2%80%A6tronicDIGIFXJ027401.WAV</pathurl>
						<rate>
							<timebase>25</timebase>
						</rate>
						<duration>822</duration>
						<timecode>
							<rate>
								<timebase>25</timebase>
							</rate>
							<string>00:00:00:00</string>
							<frame>0</frame>
							<displayformat>NDF</displayformat>
							<source>source</source>
						</timecode>
						<media>
							<audio>
								<rate>
									<timebase>44100</timebase>
								</rate>
								<trackcount>2</trackcount>
								<samplecharacteristics>
									<depth>16</depth>
								</samplecharacteristics>
							</audio>
						</media>
					</file>
					<filter>
						<effect>
							<name>Audio Levels</name>
							<effectid>audiolevels</effectid>
							<effectcategory>audiolevels</effectcategory>
							<effecttype>audiolevels</effecttype>
							<mediatype>audio</mediatype>
							<parameter>
								<name>Level</name>
								<parameterid>level</parameterid>
								<valuemin>0</valuemin>
								<valuemax>3.98109</valuemax>
								<keyframe>
									<when>16.7143</when>
									<value>0</value>
								</keyframe>
								<keyframe>
									<when>34</when>
									<value>0.251189</value>
								</keyframe>
								<interpolation>
									<name>FCPCurve</name>
								</interpolation>
								<value>0.0630957</value>
							</parameter>
						</effect>
					</filter>
					<filter>
						<effect>
							<name>Audio Pan</name>
							<effectid>audiopan</effectid>
							<effectcategory>audiopan</effectcategory>
							<effecttype>audiopan</effecttype>
							<mediatype>audio</mediatype>
							<parameter>
								<name>Pan</name>
								<parameterid>pan</parameterid>
								<valuemin>-1</valuemin>
								<valuemax>1</valuemax>
								<value>-1</value>
							</parameter>
						</effect>
					</filter>
					<sourcetrack>
						<mediatype>audio</mediatype>
						<trackindex>1</trackindex>
					</sourcetrack>
					<link>
						<linkclipref>StarsIn…tronicDIGIFXJ027401.WAV</linkclipref>
						<mediatype>audio</mediatype>
						<trackindex>5</trackindex>
						<clipindex>2</clipindex>
						<groupindex>1</groupindex>
					</link>
					<link>
						<linkclipref>StarsIn…tronicDIGIFXJ027401.WAV2</linkclipref>
						<mediatype>audio</mediatype>
						<trackindex>6</trackindex>
						<clipindex>2</clipindex>
						<groupindex>1</groupindex>
					</link>
				</clipitem>
				<transitionitem id="29">
					<rate>
						<ntsc>FALSE</ntsc>
						<timebase>25</timebase>
					</rate>
					<start>1722</start>
					<end>1747</end>
					<alignment>center</alignment>
					<effect>
						<name>Cross Fade (+3dB)</name>
						<effecttype>transition</effecttype>
						<mediatype>audio</mediatype>
					</effect>
				</transitionitem>
				<clipitem id="Gong-DeepDIGIFXJ013601.WAV">
					<name>Gong-DeepDIGIFXJ013601.WAV</name>
					<duration>1049</duration>
					<rate>
						<ntsc>FALSE</ntsc>
						<timebase>25</timebase>
					</rate>
					<in>7</in>
					<out>145</out>
					<start>-1</start>
					<end>1860</end>
					<subframeoffset>0</subframeoffset>
					<masterclipid>Gong-DeepDIGIFXJ013601.WAV1</masterclipid>
					<logginginfo>
						<scene/>
						<shottake/>
						<lognote/>
						<good>FALSE</good>
					</logginginfo>
					<labels>
						<label2/>
					</labels>
					<comments>
						<mastercomment1/>
						<mastercomment2/>
						<mastercomment3/>
						<mastercomment4/>
					</comments>
					<file id="Gong-DeepDIGIFXJ013601 ">
						<name>Gong-DeepDIGIFXJ013601.WAV</name>
						<pathurl>file://localhost/Volumes/Askepott/Prosjekter/DNPR630012_Dyrevenn_sesong_8_010113/Lydeffekter/Korte%20lyder/Gong-DeepDIGIFXJ013601.WAV</pathurl>
						<rate>
							<timebase>25</timebase>
						</rate>
						<duration>1049</duration>
						<timecode>
							<rate>
								<timebase>25</timebase>
							</rate>
							<string>00:00:00:00</string>
							<frame>0</frame>
							<displayformat>NDF</displayformat>
							<source>source</source>
						</timecode>
						<media>
							<audio>
								<rate>
									<timebase>44100</timebase>
								</rate>
								<trackcount>2</trackcount>
								<samplecharacteristics>
									<depth>16</depth>
								</samplecharacteristics>
							</audio>
						</media>
					</file>
					<filter>
						<effect>
							<name>Audio Levels</name>
							<effectid>audiolevels</effectid>
							<effectcategory>audiolevels</effectcategory>
							<effecttype>audiolevels</effecttype>
							<mediatype>audio</mediatype>
							<parameter>
								<name>Level</name>
								<parameterid>level</parameterid>
								<valuemin>0</valuemin>
								<valuemax>3.98109</valuemax>
								<keyframe>
									<when>69.5714</when>
									<value>0.158489</value>
								</keyframe>
								<keyframe>
									<when>129.857</when>
									<value>0</value>
								</keyframe>
								<interpolation>
									<name>FCPCurve</name>
								</interpolation>
								<value>1</value>
							</parameter>
						</effect>
					</filter>
					<filter>
						<effect>
							<name>Audio Pan</name>
							<effectid>audiopan</effectid>
							<effectcategory>audiopan</effectcategory>
							<effecttype>audiopan</effecttype>
							<mediatype>audio</mediatype>
							<parameter>
								<name>Pan</name>
								<parameterid>pan</parameterid>
								<valuemin>-1</valuemin>
								<valuemax>1</valuemax>
								<value>-1</value>
							</parameter>
						</effect>
					</filter>
					<sourcetrack>
						<mediatype>audio</mediatype>
						<trackindex>1</trackindex>
					</sourcetrack>
					<link>
						<linkclipref>Gong-DeepDIGIFXJ013601.WAV</linkclipref>
						<mediatype>audio</mediatype>
						<trackindex>5</trackindex>
						<clipindex>4</clipindex>
						<groupindex>1</groupindex>
					</link>
					<link>
						<linkclipref>Gong-DeepDIGIFXJ013601.WAV2</linkclipref>
						<mediatype>audio</mediatype>
						<trackindex>6</trackindex>
						<clipindex>4</clipindex>
						<groupindex>1</groupindex>
					</link>
				</clipitem>
				<clipitem id="XYLOPHONE…NEIDEA!SI10204102.WAV">
					<name>XYLOPHONE…NEIDEA!SI10204102.WAV</name>
					<duration>76</duration>
					<rate>
						<ntsc>FALSE</ntsc>
						<timebase>25</timebase>
					</rate>
					<in>0</in>
					<out>76</out>
					<start>3817</start>
					<end>3893</end>
					<masterclipid>XYLOPHONE…NEIDEA!SI10204102.WAV1</masterclipid>
					<logginginfo>
						<scene/>
						<shottake/>
						<lognote/>
						<good>FALSE</good>
					</logginginfo>
					<labels>
						<label2/>
					</labels>
					<comments>
						<mastercomment1/>
						<mastercomment2/>
						<mastercomment3/>
						<mastercomment4/>
					</comments>
					<file id="XYLOPHONE…NEIDEA!SI10204102 ">
						<name>XYLOPHONE…NEIDEA!SI10204102.WAV</name>
						<pathurl>file://localhost/Volumes/Askepott/Prosjekter/DNPR630012_Dyrevenn_sesong_8_010113/Lydeffekter/Korte%20lyder/XYLOPHONE%E2%80%A6NEIDEA!SI10204102.WAV</pathurl>
						<rate>
							<timebase>25</timebase>
						</rate>
						<duration>76</duration>
						<timecode>
							<rate>
								<timebase>25</timebase>
							</rate>
							<string>00:00:00:00</string>
							<frame>0</frame>
							<displayformat>NDF</displayformat>
							<source>source</source>
						</timecode>
						<media>
							<audio>
								<rate>
									<timebase>44100</timebase>
								</rate>
								<trackcount>2</trackcount>
								<samplecharacteristics>
									<depth>16</depth>
								</samplecharacteristics>
							</audio>
						</media>
					</file>
					<filter>
						<effect>
							<name>Audio Levels</name>
							<effectid>audiolevels</effectid>
							<effectcategory>audiolevels</effectcategory>
							<effecttype>audiolevels</effecttype>
							<mediatype>audio</mediatype>
							<parameter>
								<name>Level</name>
								<parameterid>level</parameterid>
								<valuemin>0</valuemin>
								<valuemax>3.98109</valuemax>
								<value>0.501187</value>
							</parameter>
						</effect>
					</filter>
					<filter>
						<effect>
							<name>Audio Pan</name>
							<effectid>audiopan</effectid>
							<effectcategory>audiopan</effectcategory>
							<effecttype>audiopan</effecttype>
							<mediatype>audio</mediatype>
							<parameter>
								<name>Pan</name>
								<parameterid>pan</parameterid>
								<valuemin>-1</valuemin>
								<valuemax>1</valuemax>
								<value>-1</value>
							</parameter>
						</effect>
					</filter>
					<sourcetrack>
						<mediatype>audio</mediatype>
						<trackindex>1</trackindex>
					</sourcetrack>
					<link>
						<linkclipref>XYLOPHONE…NEIDEA!SI10204102.WAV</linkclipref>
						<mediatype>audio</mediatype>
						<trackindex>5</trackindex>
						<clipindex>5</clipindex>
						<groupindex>1</groupindex>
					</link>
					<link>
						<linkclipref>XYLOPHONE…NEIDEA!SI10204102.WAV2</linkclipref>
						<mediatype>audio</mediatype>
						<trackindex>6</trackindex>
						<clipindex>5</clipindex>
						<groupindex>1</groupindex>
					</link>
				</clipitem>
				<clipitem id="SCD078112.wav2">
					<name>SCD078112.wav</name>
					<duration>2817</duration>
					<rate>
						<ntsc>FALSE</ntsc>
						<timebase>25</timebase>
					</rate>
					<in>16</in>
					<out>1427</out>
					<start>4320</start>
					<end>5731</end>
					<subframeoffset>0</subframeoffset>
					<logginginfo>
						<scene/>
						<shottake/>
						<lognote/>
						<good>FALSE</good>
					</logginginfo>
					<labels>
						<label2/>
					</labels>
					<comments>
						<mastercomment1/>
						<mastercomment2/>
						<mastercomment3/>
						<mastercomment4/>
					</comments>
					<file id="SCD078112 "/>
					<filter>
						<effect>
							<name>Audio Levels</name>
							<effectid>audiolevels</effectid>
							<effectcategory>audiolevels</effectcategory>
							<effecttype>audiolevels</effecttype>
							<mediatype>audio</mediatype>
							<parameter>
								<name>Level</name>
								<parameterid>level</parameterid>
								<valuemin>0</valuemin>
								<valuemax>3.98109</valuemax>
								<keyframe>
									<when>126.607</when>
									<value>0.199526</value>
								</keyframe>
								<keyframe>
									<when>172</when>
									<value>0.112202</value>
								</keyframe>
								<keyframe>
									<when>691.857</when>
									<value>0.112202</value>
								</keyframe>
								<keyframe>
									<when>705.429</when>
									<value>0.0630957</value>
								</keyframe>
								<keyframe>
									<when>1400.12</when>
									<value>0.0630957</value>
								</keyframe>
								<keyframe>
									<when>1426.07</when>
									<value>0</value>
								</keyframe>
								<keyframe>
									<when>1522.43</when>
									<value>0</value>
								</keyframe>
								<interpolation>
									<name>FCPCurve</name>
								</interpolation>
								<value>1</value>
							</parameter>
						</effect>
					</filter>
					<filter>
						<effect>
							<name>Audio Pan</name>
							<effectid>audiopan</effectid>
							<effectcategory>audiopan</effectcategory>
							<effecttype>audiopan</effecttype>
							<mediatype>audio</mediatype>
							<parameter>
								<name>Pan</name>
								<parameterid>pan</parameterid>
								<valuemin>-1</valuemin>
								<valuemax>1</valuemax>
								<value>-1</value>
							</parameter>
						</effect>
					</filter>
					<sourcetrack>
						<mediatype>audio</mediatype>
						<trackindex>1</trackindex>
					</sourcetrack>
					<link>
						<linkclipref>SCD078112.wav2</linkclipref>
						<mediatype>audio</mediatype>
						<trackindex>5</trackindex>
						<clipindex>6</clipindex>
						<groupindex>1</groupindex>
					</link>
					<link>
						<linkclipref>SCD078112.wav3</linkclipref>
						<mediatype>audio</mediatype>
						<trackindex>6</trackindex>
						<clipindex>6</clipindex>
						<groupindex>1</groupindex>
					</link>
				</clipitem>
				<clipitem id="SCD078101.wav">
					<name>SCD078101.wav</name>
					<duration>4576</duration>
					<rate>
						<ntsc>FALSE</ntsc>
						<timebase>25</timebase>
					</rate>
					<in>1</in>
					<out>1012</out>
					<start>6732</start>
					<end>7743</end>
					<subframeoffset>0</subframeoffset>
					<masterclipid>SCD078101.wav1</masterclipid>
					<logginginfo>
						<scene/>
						<shottake/>
						<lognote/>
						<good>FALSE</good>
					</logginginfo>
					<labels>
						<label2/>
					</labels>
					<comments>
						<mastercomment1/>
						<mastercomment2/>
						<mastercomment3/>
						<mastercomment4/>
					</comments>
					<file id="SCD078101 ">
						<name>SCD078101.wav</name>
						<pathurl>file://localhost/Volumes/Askepott/Prosjekter/DNPR637010_Kra%CC%8Akeklubben_TEM_011212/Musikk/Arkiv/SCD078101.wav</pathurl>
						<rate>
							<timebase>25</timebase>
						</rate>
						<duration>4576</duration>
						<timecode>
							<rate>
								<timebase>25</timebase>
							</rate>
							<string>00:03:00:00</string>
							<frame>4500</frame>
							<displayformat>NDF</displayformat>
							<source>source</source>
						</timecode>
						<media>
							<audio>
								<rate>
									<timebase>48000</timebase>
								</rate>
								<trackcount>2</trackcount>
								<samplecharacteristics>
									<depth>16</depth>
								</samplecharacteristics>
							</audio>
						</media>
					</file>
					<filter>
						<effect>
							<name>Audio Levels</name>
							<effectid>audiolevels</effectid>
							<effectcategory>audiolevels</effectcategory>
							<effecttype>audiolevels</effecttype>
							<mediatype>audio</mediatype>
							<parameter>
								<name>Level</name>
								<parameterid>level</parameterid>
								<valuemin>0</valuemin>
								<valuemax>3.98109</valuemax>
								<keyframe>
									<when>959.438</when>
									<value>0.0501187</value>
								</keyframe>
								<keyframe>
									<when>1011.69</when>
									<value>0</value>
								</keyframe>
								<interpolation>
									<name>FCPCurve</name>
								</interpolation>
								<value>1</value>
							</parameter>
						</effect>
					</filter>
					<filter>
						<effect>
							<name>Audio Pan</name>
							<effectid>audiopan</effectid>
							<effectcategory>audiopan</effectcategory>
							<effecttype>audiopan</effecttype>
							<mediatype>audio</mediatype>
							<parameter>
								<name>Pan</name>
								<parameterid>pan</parameterid>
								<valuemin>-1</valuemin>
								<valuemax>1</valuemax>
								<value>-1</value>
							</parameter>
						</effect>
					</filter>
					<sourcetrack>
						<mediatype>audio</mediatype>
						<trackindex>1</trackindex>
					</sourcetrack>
					<link>
						<linkclipref>SCD078101.wav</linkclipref>
						<mediatype>audio</mediatype>
						<trackindex>5</trackindex>
						<clipindex>7</clipindex>
						<groupindex>1</groupindex>
					</link>
					<link>
						<linkclipref>SCD078101.wav2</linkclipref>
						<mediatype>audio</mediatype>
						<trackindex>6</trackindex>
						<clipindex>7</clipindex>
						<groupindex>1</groupindex>
					</link>
				</clipitem>
				<clipitem id="BlomsterWipe start 5 frames før første bilde.wav">
					<name>BlomsterWipe start 5 frames før første bilde.wav</name>
					<duration>73</duration>
					<rate>
						<ntsc>FALSE</ntsc>
						<timebase>25</timebase>
					</rate>
					<in>0</in>
					<out>73</out>
					<start>8004</start>
					<end>8077</end>
					<subframeoffset>0</subframeoffset>
					<masterclipid>BlomsterWipe start 5 frames før første bilde.wav1</masterclipid>
					<logginginfo>
						<scene/>
						<shottake/>
						<lognote/>
						<good>FALSE</good>
					</logginginfo>
					<labels>
						<label2/>
					</labels>
					<comments>
						<mastercomment1/>
						<mastercomment2/>
						<mastercomment3/>
						<mastercomment4/>
					</comments>
					<file id="BlomsterWipe start 5 frames før første bilde">
						<name>BlomsterWipe start 5 frames før første bilde.wav</name>
						<pathurl>file://localhost/Volumes/Askepott/Prosjekter/DNPR637010_Kra%CC%8Akeklubben_TEM_011212/Lyd/NISSE%20Vignetter%20m%20wipes%20og%20Div%20grafikk/BlomsterWipe%20start%205%20frames%20f%C3%B8r%20f%C3%B8rste%20bilde.wav</pathurl>
						<rate>
							<timebase>25</timebase>
						</rate>
						<duration>73</duration>
						<timecode>
							<rate>
								<timebase>25</timebase>
							</rate>
							<string>00:01:03:14</string>
							<frame>1589</frame>
							<displayformat>NDF</displayformat>
							<source>source</source>
						</timecode>
						<media>
							<audio>
								<rate>
									<timebase>48000</timebase>
								</rate>
								<trackcount>2</trackcount>
								<samplecharacteristics>
									<depth>24</depth>
								</samplecharacteristics>
							</audio>
						</media>
					</file>
					<filter>
						<effect>
							<name>Audio Levels</name>
							<effectid>audiolevels</effectid>
							<effectcategory>audiolevels</effectcategory>
							<effecttype>audiolevels</effecttype>
							<mediatype>audio</mediatype>
							<parameter>
								<name>Level</name>
								<parameterid>level</parameterid>
								<valuemin>0</valuemin>
								<valuemax>3.98109</valuemax>
								<value>1</value>
							</parameter>
						</effect>
					</filter>
					<filter>
						<effect>
							<name>Audio Pan</name>
							<effectid>audiopan</effectid>
							<effectcategory>audiopan</effectcategory>
							<effecttype>audiopan</effecttype>
							<mediatype>audio</mediatype>
							<parameter>
								<name>Pan</name>
								<parameterid>pan</parameterid>
								<valuemin>-1</valuemin>
								<valuemax>1</valuemax>
								<value>-1</value>
							</parameter>
						</effect>
					</filter>
					<sourcetrack>
						<mediatype>audio</mediatype>
						<trackindex>1</trackindex>
					</sourcetrack>
					<link>
						<linkclipref>BlomsterWipe start 5 frames før første bilde.wav</linkclipref>
						<mediatype>audio</mediatype>
						<trackindex>5</trackindex>
						<clipindex>8</clipindex>
						<groupindex>1</groupindex>
					</link>
					<link>
						<linkclipref>BlomsterWipe start 5 frames før første bilde.wav2</linkclipref>
						<mediatype>audio</mediatype>
						<trackindex>6</trackindex>
						<clipindex>8</clipindex>
						<groupindex>1</groupindex>
					</link>
				</clipitem>
				<clipitem id="SCD078019 ">
					<name>SCD078019</name>
					<duration>3133</duration>
					<rate>
						<ntsc>FALSE</ntsc>
						<timebase>25</timebase>
					</rate>
					<in>0</in>
					<out>1177</out>
					<start>10595</start>
					<end>11772</end>
					<subframeoffset>0</subframeoffset>
					<masterclipid>SCD078019 1</masterclipid>
					<logginginfo>
						<scene/>
						<shottake/>
						<lognote/>
						<good>FALSE</good>
					</logginginfo>
					<labels>
						<label2/>
					</labels>
					<comments>
						<mastercomment1/>
						<mastercomment2/>
						<mastercomment3/>
						<mastercomment4/>
					</comments>
					<file id="SCD078019 2">
						<name>SCD078019.wav</name>
						<pathurl>file://localhost/Volumes/Askepott/Prosjekter/DNPR637010_Kra%CC%8Akeklubben_TEM_011212/Musikk/Underlag/SCD078019.wav</pathurl>
						<rate>
							<timebase>25</timebase>
						</rate>
						<duration>3133</duration>
						<timecode>
							<rate>
								<timebase>25</timebase>
							</rate>
							<string>00:45:04:15</string>
							<frame>67615</frame>
							<displayformat>NDF</displayformat>
							<source>source</source>
						</timecode>
						<media>
							<audio>
								<rate>
									<timebase>48000</timebase>
								</rate>
								<trackcount>2</trackcount>
								<samplecharacteristics>
									<depth>16</depth>
								</samplecharacteristics>
							</audio>
						</media>
					</file>
					<filter>
						<effect>
							<name>Audio Levels</name>
							<effectid>audiolevels</effectid>
							<effectcategory>audiolevels</effectcategory>
							<effecttype>audiolevels</effecttype>
							<mediatype>audio</mediatype>
							<parameter>
								<name>Level</name>
								<parameterid>level</parameterid>
								<valuemin>0</valuemin>
								<valuemax>3.98109</valuemax>
								<keyframe>
									<when>0.142857</when>
									<value>0</value>
								</keyframe>
								<keyframe>
									<when>11</when>
									<value>0.1</value>
								</keyframe>
								<keyframe>
									<when>1740.14</when>
									<value>0.1</value>
								</keyframe>
								<interpolation>
									<name>FCPCurve</name>
								</interpolation>
								<value>0.199526</value>
							</parameter>
						</effect>
					</filter>
					<filter>
						<effect>
							<name>Audio Pan</name>
							<effectid>audiopan</effectid>
							<effectcategory>audiopan</effectcategory>
							<effecttype>audiopan</effecttype>
							<mediatype>audio</mediatype>
							<parameter>
								<name>Pan</name>
								<parameterid>pan</parameterid>
								<valuemin>-1</valuemin>
								<valuemax>1</valuemax>
								<value>-0.99</value>
							</parameter>
						</effect>
					</filter>
					<sourcetrack>
						<mediatype>audio</mediatype>
						<trackindex>1</trackindex>
					</sourcetrack>
					<link>
						<linkclipref>SCD078019 </linkclipref>
						<mediatype>audio</mediatype>
						<trackindex>5</trackindex>
						<clipindex>9</clipindex>
						<groupindex>1</groupindex>
					</link>
					<link>
						<linkclipref>SCD078019 3</linkclipref>
						<mediatype>audio</mediatype>
						<trackindex>6</trackindex>
						<clipindex>9</clipindex>
						<groupindex>1</groupindex>
					</link>
				</clipitem>
				<clipitem id="SCD078019 4">
					<name>SCD078019</name>
					<duration>3133</duration>
					<rate>
						<ntsc>FALSE</ntsc>
						<timebase>25</timebase>
					</rate>
					<in>2843</in>
					<out>3133</out>
					<start>11772</start>
					<end>12062</end>
					<subframeoffset>0</subframeoffset>
					<masterclipid>SCD078019 1</masterclipid>
					<logginginfo>
						<scene/>
						<shottake/>
						<lognote/>
						<good>FALSE</good>
					</logginginfo>
					<labels>
						<label2/>
					</labels>
					<comments>
						<mastercomment1/>
						<mastercomment2/>
						<mastercomment3/>
						<mastercomment4/>
					</comments>
					<file id="SCD078019 2"/>
					<filter>
						<effect>
							<name>Audio Levels</name>
							<effectid>audiolevels</effectid>
							<effectcategory>audiolevels</effectcategory>
							<effecttype>audiolevels</effecttype>
							<mediatype>audio</mediatype>
							<parameter>
								<name>Level</name>
								<parameterid>level</parameterid>
								<valuemin>0</valuemin>
								<valuemax>3.98109</valuemax>
								<keyframe>
									<when>0.142857</when>
									<value>0</value>
								</keyframe>
								<keyframe>
									<when>11</when>
									<value>0.398107</value>
								</keyframe>
								<keyframe>
									<when>1740.14</when>
									<value>0.1</value>
								</keyframe>
								<interpolation>
									<name>FCPCurve</name>
								</interpolation>
								<value>0.199526</value>
							</parameter>
						</effect>
					</filter>
					<filter>
						<effect>
							<name>Audio Pan</name>
							<effectid>audiopan</effectid>
							<effectcategory>audiopan</effectcategory>
							<effecttype>audiopan</effecttype>
							<mediatype>audio</mediatype>
							<parameter>
								<name>Pan</name>
								<parameterid>pan</parameterid>
								<valuemin>-1</valuemin>
								<valuemax>1</valuemax>
								<value>-0.99</value>
							</parameter>
						</effect>
					</filter>
					<sourcetrack>
						<mediatype>audio</mediatype>
						<trackindex>1</trackindex>
					</sourcetrack>
					<link>
						<linkclipref>SCD078019 4</linkclipref>
						<mediatype>audio</mediatype>
						<trackindex>5</trackindex>
						<clipindex>10</clipindex>
						<groupindex>1</groupindex>
					</link>
					<link>
						<linkclipref>SCD078019 5</linkclipref>
						<mediatype>audio</mediatype>
						<trackindex>6</trackindex>
						<clipindex>10</clipindex>
						<groupindex>1</groupindex>
					</link>
				</clipitem>
				<clipitem id="SCD083314.wav">
					<name>SCD083314.wav</name>
					<duration>2741</duration>
					<rate>
						<ntsc>FALSE</ntsc>
						<timebase>25</timebase>
					</rate>
					<in>135</in>
					<out>348</out>
					<start>14755</start>
					<end>-1</end>
					<subframeoffset>0</subframeoffset>
					<masterclipid>SCD083314.wav1</masterclipid>
					<logginginfo>
						<scene/>
						<shottake/>
						<lognote/>
						<good>FALSE</good>
					</logginginfo>
					<labels>
						<label2/>
					</labels>
					<comments>
						<mastercomment1/>
						<mastercomment2/>
						<mastercomment3/>
						<mastercomment4/>
					</comments>
					<file id="SCD083314 ">
						<name>SCD083314.wav</name>
						<pathurl>file://localhost/Volumes/Askepott/Prosjekter/DNPR637010_Kra%CC%8Akeklubben_TEM_011212/Musikk/Naturlek/Eventyrskog/SCD083314.wav</pathurl>
						<rate>
							<timebase>25</timebase>
						</rate>
						<duration>2741</duration>
						<timecode>
							<rate>
								<timebase>25</timebase>
							</rate>
							<string>00:40:28:01</string>
							<frame>60701</frame>
							<displayformat>NDF</displayformat>
							<source>source</source>
						</timecode>
						<media>
							<audio>
								<rate>
									<timebase>48000</timebase>
								</rate>
								<trackcount>2</trackcount>
								<samplecharacteristics>
									<depth>16</depth>
								</samplecharacteristics>
							</audio>
						</media>
					</file>
					<filter>
						<effect>
							<name>Audio Levels</name>
							<effectid>audiolevels</effectid>
							<effectcategory>audiolevels</effectcategory>
							<effecttype>audiolevels</effecttype>
							<mediatype>audio</mediatype>
							<parameter>
								<name>Level</name>
								<parameterid>level</parameterid>
								<valuemin>0</valuemin>
								<valuemax>3.98109</valuemax>
								<keyframe>
									<when>140.857</when>
									<value>0</value>
								</keyframe>
								<keyframe>
									<when>154.857</when>
									<value>0.562341</value>
								</keyframe>
								<interpolation>
									<name>FCPCurve</name>
								</interpolation>
								<value>1</value>
							</parameter>
						</effect>
					</filter>
					<filter>
						<effect>
							<name>Audio Pan</name>
							<effectid>audiopan</effectid>
							<effectcategory>audiopan</effectcategory>
							<effecttype>audiopan</effecttype>
							<mediatype>audio</mediatype>
							<parameter>
								<name>Pan</name>
								<parameterid>pan</parameterid>
								<valuemin>-1</valuemin>
								<valuemax>1</valuemax>
								<value>-1</value>
							</parameter>
						</effect>
					</filter>
					<sourcetrack>
						<mediatype>audio</mediatype>
						<trackindex>1</trackindex>
					</sourcetrack>
					<link>
						<linkclipref>SCD083314.wav</linkclipref>
						<mediatype>audio</mediatype>
						<trackindex>5</trackindex>
						<clipindex>11</clipindex>
						<groupindex>1</groupindex>
					</link>
					<link>
						<linkclipref>SCD083314.wav2</linkclipref>
						<mediatype>audio</mediatype>
						<trackindex>6</trackindex>
						<clipindex>11</clipindex>
						<groupindex>1</groupindex>
					</link>
				</clipitem>
				<transitionitem id="30">
					<rate>
						<ntsc>FALSE</ntsc>
						<timebase>25</timebase>
					</rate>
					<start>14942</start>
					<end>14968</end>
					<alignment>start</alignment>
					<effect>
						<name>Cross Fade (+3dB)</name>
						<effecttype>transition</effecttype>
						<mediatype>audio</mediatype>
					</effect>
				</transitionitem>
				<clipitem id="SCD083314.wav3">
					<name>SCD083314.wav</name>
					<duration>2741</duration>
					<rate>
						<ntsc>FALSE</ntsc>
						<timebase>25</timebase>
					</rate>
					<in>2624</in>
					<out>2721</out>
					<start>-1</start>
					<end>15039</end>
					<subframeoffset>0</subframeoffset>
					<masterclipid>SCD083314.wav1</masterclipid>
					<logginginfo>
						<scene/>
						<shottake/>
						<lognote/>
						<good>FALSE</good>
					</logginginfo>
					<labels>
						<label2/>
					</labels>
					<comments>
						<mastercomment1/>
						<mastercomment2/>
						<mastercomment3/>
						<mastercomment4/>
					</comments>
					<file id="SCD083314 "/>
					<filter>
						<effect>
							<name>Audio Levels</name>
							<effectid>audiolevels</effectid>
							<effectcategory>audiolevels</effectcategory>
							<effecttype>audiolevels</effecttype>
							<mediatype>audio</mediatype>
							<parameter>
								<name>Level</name>
								<parameterid>level</parameterid>
								<valuemin>0</valuemin>
								<valuemax>3.98109</valuemax>
								<value>0.562341</value>
							</parameter>
						</effect>
					</filter>
					<filter>
						<effect>
							<name>Audio Pan</name>
							<effectid>audiopan</effectid>
							<effectcategory>audiopan</effectcategory>
							<effecttype>audiopan</effecttype>
							<mediatype>audio</mediatype>
							<parameter>
								<name>Pan</name>
								<parameterid>pan</parameterid>
								<valuemin>-1</valuemin>
								<valuemax>1</valuemax>
								<value>-1</value>
							</parameter>
						</effect>
					</filter>
					<sourcetrack>
						<mediatype>audio</mediatype>
						<trackindex>1</trackindex>
					</sourcetrack>
					<link>
						<linkclipref>SCD083314.wav3</linkclipref>
						<mediatype>audio</mediatype>
						<trackindex>5</trackindex>
						<clipindex>13</clipindex>
						<groupindex>1</groupindex>
					</link>
					<link>
						<linkclipref>SCD083314.wav4</linkclipref>
						<mediatype>audio</mediatype>
						<trackindex>6</trackindex>
						<clipindex>13</clipindex>
						<groupindex>1</groupindex>
					</link>
				</clipitem>
				<transitionitem id="1253914296 ">
					<rate>
						<ntsc>FALSE</ntsc>
						<timebase>25</timebase>
					</rate>
					<start>16812</start>
					<end>16887</end>
					<alignment>start-black</alignment>
					<effect>
						<name>Cross Fade (+3dB)</name>
						<effecttype>transition</effecttype>
						<mediatype>audio</mediatype>
					</effect>
				</transitionitem>
				<clipitem id="SCD074302_MICROSCOPIC_SONOTON.wav4">
					<name>SCD074302_MICROSCOPIC_SONOTON.wav</name>
					<duration>3084</duration>
					<rate>
						<ntsc>FALSE</ntsc>
						<timebase>25</timebase>
					</rate>
					<in>1304</in>
					<out>3080</out>
					<start>-1</start>
					<end>18588</end>
					<subframeoffset>0</subframeoffset>
					<masterclipid>SCD074302_MICROSCOPIC_SONOTON.wav5</masterclipid>
					<logginginfo>
						<scene/>
						<shottake/>
						<lognote/>
						<good>FALSE</good>
					</logginginfo>
					<labels>
						<label2/>
					</labels>
					<comments>
						<mastercomment1/>
						<mastercomment2/>
						<mastercomment3/>
						<mastercomment4/>
					</comments>
					<file id="SCD074302_MICROSCOPIC_SONOTON"/>
					<filter>
						<effect>
							<name>Audio Levels</name>
							<effectid>audiolevels</effectid>
							<effectcategory>audiolevels</effectcategory>
							<effecttype>audiolevels</effecttype>
							<mediatype>audio</mediatype>
							<parameter>
								<name>Level</name>
								<parameterid>level</parameterid>
								<valuemin>0</valuemin>
								<valuemax>3.98109</valuemax>
								<keyframe>
									<when>1387.52</when>
									<value>0.199526</value>
								</keyframe>
								<keyframe>
									<when>1422.27</when>
									<value>0.398107</value>
								</keyframe>
								<keyframe>
									<when>1800.79</when>
									<value>0.398107</value>
								</keyframe>
								<keyframe>
									<when>1844.23</when>
									<value>0.141254</value>
								</keyframe>
								<keyframe>
									<when>1942.28</when>
									<value>0.112202</value>
								</keyframe>
								<keyframe>
									<when>2063.9</when>
									<value>0.316228</value>
								</keyframe>
								<keyframe>
									<when>2148.29</when>
									<value>0.251189</value>
								</keyframe>
								<keyframe>
									<when>2236.41</when>
									<value>0.0354813</value>
								</keyframe>
								<keyframe>
									<when>2392.04</when>
									<value>0</value>
								</keyframe>
								<interpolation>
									<name>FCPCurve</name>
								</interpolation>
								<value>1</value>
							</parameter>
						</effect>
					</filter>
					<filter>
						<effect>
							<name>Audio Pan</name>
							<effectid>audiopan</effectid>
							<effectcategory>audiopan</effectcategory>
							<effecttype>audiopan</effecttype>
							<mediatype>audio</mediatype>
							<parameter>
								<name>Pan</name>
								<parameterid>pan</parameterid>
								<valuemin>-1</valuemin>
								<valuemax>1</valuemax>
								<value>-1</value>
							</parameter>
						</effect>
					</filter>
					<sourcetrack>
						<mediatype>audio</mediatype>
						<trackindex>1</trackindex>
					</sourcetrack>
					<link>
						<linkclipref>SCD074302_MICROSCOPIC_SONOTON.wav4</linkclipref>
						<mediatype>audio</mediatype>
						<trackindex>5</trackindex>
						<clipindex>15</clipindex>
						<groupindex>1</groupindex>
					</link>
					<link>
						<linkclipref>SCD074302_MICROSCOPIC_SONOTON.wav6</linkclipref>
						<mediatype>audio</mediatype>
						<trackindex>6</trackindex>
						<clipindex>15</clipindex>
						<groupindex>1</groupindex>
					</link>
				</clipitem>
				<clipitem id="SteinWipe Start på første frame.wav">
					<name>SteinWipe Start på første frame.wav</name>
					<duration>31</duration>
					<rate>
						<ntsc>FALSE</ntsc>
						<timebase>25</timebase>
					</rate>
					<in>0</in>
					<out>31</out>
					<start>19315</start>
					<end>19346</end>
					<masterclipid>SteinWipe Start på første frame.wav1</masterclipid>
					<logginginfo>
						<scene/>
						<shottake/>
						<lognote/>
						<good>FALSE</good>
					</logginginfo>
					<labels>
						<label2/>
					</labels>
					<comments>
						<mastercomment1/>
						<mastercomment2/>
						<mastercomment3/>
						<mastercomment4/>
					</comments>
					<file id="SteinWipe Start på første frame">
						<name>SteinWipe Start på første frame.wav</name>
						<pathurl>file://localhost/Volumes/Askepott/Prosjekter/DNPR637010_Kra%CC%8Akeklubben_TEM_011212/Lydeffekter/SteinWipe%20Start%20pa%CC%8A%20f%C3%B8rste%20frame.wav</pathurl>
						<rate>
							<timebase>25</timebase>
						</rate>
						<duration>31</duration>
						<timecode>
							<rate>
								<timebase>25</timebase>
							</rate>
							<string>00:01:02:22</string>
							<frame>1572</frame>
							<displayformat>NDF</displayformat>
							<source>source</source>
						</timecode>
						<media>
							<audio>
								<rate>
									<timebase>48000</timebase>
								</rate>
								<trackcount>2</trackcount>
								<samplecharacteristics>
									<depth>24</depth>
								</samplecharacteristics>
							</audio>
						</media>
					</file>
					<filter>
						<effect>
							<name>Audio Levels</name>
							<effectid>audiolevels</effectid>
							<effectcategory>audiolevels</effectcategory>
							<effecttype>audiolevels</effecttype>
							<mediatype>audio</mediatype>
							<parameter>
								<name>Level</name>
								<parameterid>level</parameterid>
								<valuemin>0</valuemin>
								<valuemax>3.98109</valuemax>
								<value>1</value>
							</parameter>
						</effect>
					</filter>
					<filter>
						<effect>
							<name>Audio Pan</name>
							<effectid>audiopan</effectid>
							<effectcategory>audiopan</effectcategory>
							<effecttype>audiopan</effecttype>
							<mediatype>audio</mediatype>
							<parameter>
								<name>Pan</name>
								<parameterid>pan</parameterid>
								<valuemin>-1</valuemin>
								<valuemax>1</valuemax>
								<value>-1</value>
							</parameter>
						</effect>
					</filter>
					<sourcetrack>
						<mediatype>audio</mediatype>
						<trackindex>1</trackindex>
					</sourcetrack>
					<link>
						<linkclipref>SteinWipe Start på første frame.wav</linkclipref>
						<mediatype>audio</mediatype>
						<trackindex>5</trackindex>
						<clipindex>16</clipindex>
						<groupindex>1</groupindex>
					</link>
					<link>
						<linkclipref>SteinWipe Start på første frame.wav2</linkclipref>
						<mediatype>audio</mediatype>
						<trackindex>6</trackindex>
						<clipindex>16</clipindex>
						<groupindex>1</groupindex>
					</link>
				</clipitem>
				<clipitem id="AUXMP_SCD043646_SPRING BREAK.wav">
					<name>AUXMP_SCD043646_SPRING BREAK.wav</name>
					<duration>1601</duration>
					<rate>
						<ntsc>FALSE</ntsc>
						<timebase>25</timebase>
					</rate>
					<in>0</in>
					<out>883</out>
					<start>20618</start>
					<end>21501</end>
					<masterclipid>AUXMP_SCD043646_SPRING BREAK.wav1</masterclipid>
					<logginginfo>
						<scene/>
						<shottake/>
						<lognote/>
						<good>FALSE</good>
					</logginginfo>
					<labels>
						<label2/>
					</labels>
					<comments>
						<mastercomment1/>
						<mastercomment2/>
						<mastercomment3/>
						<mastercomment4/>
					</comments>
					<file id="AUXMP_SCD043646_SPRING BREAK">
						<name>AUXMP_SCD043646_SPRING BREAK.wav</name>
						<pathurl>file://localhost/Volumes/Askepott/Prosjekter/DNPR637010_Kra%CC%8Akeklubben_TEM_011212/Musikk/Mellomstikk/S03E08/AUXMP_SCD043646_SPRING%20BREAK.wav</pathurl>
						<rate>
							<timebase>25</timebase>
						</rate>
						<duration>1601</duration>
						<media>
							<audio>
								<rate>
									<timebase>48000</timebase>
								</rate>
								<trackcount>2</trackcount>
								<samplecharacteristics>
									<depth>16</depth>
								</samplecharacteristics>
							</audio>
						</media>
					</file>
					<filter>
						<effect>
							<name>Audio Levels</name>
							<effectid>audiolevels</effectid>
							<effectcategory>audiolevels</effectcategory>
							<effecttype>audiolevels</effecttype>
							<mediatype>audio</mediatype>
							<parameter>
								<name>Level</name>
								<parameterid>level</parameterid>
								<valuemin>0</valuemin>
								<valuemax>3.98109</valuemax>
								<keyframe>
									<when>41.4286</when>
									<value>0.794328</value>
								</keyframe>
								<keyframe>
									<when>84.5714</when>
									<value>0.354813</value>
								</keyframe>
								<interpolation>
									<name>FCPCurve</name>
								</interpolation>
								<value>0.112202</value>
							</parameter>
						</effect>
					</filter>
					<filter>
						<effect>
							<name>Audio Pan</name>
							<effectid>audiopan</effectid>
							<effectcategory>audiopan</effectcategory>
							<effecttype>audiopan</effecttype>
							<mediatype>audio</mediatype>
							<parameter>
								<name>Pan</name>
								<parameterid>pan</parameterid>
								<valuemin>-1</valuemin>
								<valuemax>1</valuemax>
								<value>-1</value>
							</parameter>
						</effect>
					</filter>
					<sourcetrack>
						<mediatype>audio</mediatype>
						<trackindex>1</trackindex>
					</sourcetrack>
					<link>
						<linkclipref>AUXMP_SCD043646_SPRING BREAK.wav</linkclipref>
						<mediatype>audio</mediatype>
						<trackindex>5</trackindex>
						<clipindex>17</clipindex>
						<groupindex>1</groupindex>
					</link>
					<link>
						<linkclipref>AUXMP_SCD043646_SPRING BREAK.wav2</linkclipref>
						<mediatype>audio</mediatype>
						<trackindex>6</trackindex>
						<clipindex>17</clipindex>
						<groupindex>1</groupindex>
					</link>
				</clipitem>
				<clipitem id="AUXMP_SCD043646_SPRING BREAK.wav3">
					<name>AUXMP_SCD043646_SPRING BREAK.wav</name>
					<duration>1601</duration>
					<rate>
						<ntsc>FALSE</ntsc>
						<timebase>25</timebase>
					</rate>
					<in>1112</in>
					<out>1601</out>
					<start>21501</start>
					<end>21990</end>
					<masterclipid>AUXMP_SCD043646_SPRING BREAK.wav1</masterclipid>
					<logginginfo>
						<scene/>
						<shottake/>
						<lognote/>
						<good>FALSE</good>
					</logginginfo>
					<labels>
						<label2/>
					</labels>
					<comments>
						<mastercomment1/>
						<mastercomment2/>
						<mastercomment3/>
						<mastercomment4/>
					</comments>
					<file id="AUXMP_SCD043646_SPRING BREAK"/>
					<filter>
						<effect>
							<name>Audio Levels</name>
							<effectid>audiolevels</effectid>
							<effectcategory>audiolevels</effectcategory>
							<effecttype>audiolevels</effecttype>
							<mediatype>audio</mediatype>
							<parameter>
								<name>Level</name>
								<parameterid>level</parameterid>
								<valuemin>0</valuemin>
								<valuemax>3.98109</valuemax>
								<keyframe>
									<when>41.4286</when>
									<value>0.112202</value>
								</keyframe>
								<keyframe>
									<when>84.5714</when>
									<value>0.354813</value>
								</keyframe>
								<interpolation>
									<name>FCPCurve</name>
								</interpolation>
								<value>0.112202</value>
							</parameter>
						</effect>
					</filter>
					<filter>
						<effect>
							<name>Audio Pan</name>
							<effectid>audiopan</effectid>
							<effectcategory>audiopan</effectcategory>
							<effecttype>audiopan</effecttype>
							<mediatype>audio</mediatype>
							<parameter>
								<name>Pan</name>
								<parameterid>pan</parameterid>
								<valuemin>-1</valuemin>
								<valuemax>1</valuemax>
								<value>-1</value>
							</parameter>
						</effect>
					</filter>
					<sourcetrack>
						<mediatype>audio</mediatype>
						<trackindex>1</trackindex>
					</sourcetrack>
					<link>
						<linkclipref>AUXMP_SCD043646_SPRING BREAK.wav3</linkclipref>
						<mediatype>audio</mediatype>
						<trackindex>5</trackindex>
						<clipindex>18</clipindex>
						<groupindex>1</groupindex>
					</link>
					<link>
						<linkclipref>AUXMP_SCD043646_SPRING BREAK.wav4</linkclipref>
						<mediatype>audio</mediatype>
						<trackindex>6</trackindex>
						<clipindex>18</clipindex>
						<groupindex>1</groupindex>
					</link>
				</clipitem>
				<clipitem id="WHOOSHLARG…WHOOSHBYFS105302.WAV7">
					<name>WHOOSHLARG…WHOOSHBYFS105302.WAV</name>
					<duration>183</duration>
					<rate>
						<ntsc>FALSE</ntsc>
						<timebase>25</timebase>
					</rate>
					<in>0</in>
					<out>82</out>
					<start>24276</start>
					<end>24358</end>
					<subframeoffset>0</subframeoffset>
					<masterclipid>WHOOSHLARG…WHOOSHBYFS105302.WAV1</masterclipid>
					<logginginfo>
						<scene/>
						<shottake/>
						<lognote/>
						<good>FALSE</good>
					</logginginfo>
					<labels>
						<label2/>
					</labels>
					<comments>
						<mastercomment1/>
						<mastercomment2/>
						<mastercomment3/>
						<mastercomment4/>
					</comments>
					<file id="WHOOSHLARG…WHOOSHBYFS105302 "/>
					<filter>
						<effect>
							<name>Audio Levels</name>
							<effectid>audiolevels</effectid>
							<effectcategory>audiolevels</effectcategory>
							<effecttype>audiolevels</effecttype>
							<mediatype>audio</mediatype>
							<parameter>
								<name>Level</name>
								<parameterid>level</parameterid>
								<valuemin>0</valuemin>
								<valuemax>3.98109</valuemax>
								<value>0.251189</value>
							</parameter>
						</effect>
					</filter>
					<filter>
						<effect>
							<name>Audio Pan</name>
							<effectid>audiopan</effectid>
							<effectcategory>audiopan</effectcategory>
							<effecttype>audiopan</effecttype>
							<mediatype>audio</mediatype>
							<parameter>
								<name>Pan</name>
								<parameterid>pan</parameterid>
								<valuemin>-1</valuemin>
								<valuemax>1</valuemax>
								<value>-1</value>
							</parameter>
						</effect>
					</filter>
					<sourcetrack>
						<mediatype>audio</mediatype>
						<trackindex>1</trackindex>
					</sourcetrack>
					<link>
						<linkclipref>WHOOSHLARG…WHOOSHBYFS105302.WAV7</linkclipref>
						<mediatype>audio</mediatype>
						<trackindex>5</trackindex>
						<clipindex>19</clipindex>
						<groupindex>1</groupindex>
					</link>
					<link>
						<linkclipref>WHOOSHLARG…WHOOSHBYFS105302.WAV8</linkclipref>
						<mediatype>audio</mediatype>
						<trackindex>6</trackindex>
						<clipindex>19</clipindex>
						<groupindex>1</groupindex>
					</link>
					<filter>
						<effect>
							<name>Time Remap</name>
							<effectid>timeremap</effectid>
							<effectcategory>motion</effectcategory>
							<effecttype>motion</effecttype>
							<mediatype>audio</mediatype>
							<parameter>
								<parameterid>variablespeed</parameterid>
								<name>variablespeed</name>
								<valuemin>0</valuemin>
								<valuemax>1</valuemax>
								<value>0</value>
							</parameter>
							<parameter>
								<parameterid>mappedduration</parameterid>
								<name>mappedduration</name>
								<value>
									<timecode>
										<rate>
											<timebase>0</timebase>
										</rate>
										<string>0</string>
										<frame>0</frame>
										<displayformat>NDF</displayformat>
									</timecode>
								</value>
							</parameter>
							<parameter>
								<parameterid>speed</parameterid>
								<name>speed</name>
								<valuemin>-10000</valuemin>
								<valuemax>10000</valuemax>
								<value>50</value>
							</parameter>
							<parameter>
								<parameterid>reverse</parameterid>
								<name>reverse</name>
								<value>FALSE</value>
							</parameter>
							<parameter>
								<parameterid>frameblending</parameterid>
								<name>frameblending</name>
								<value>TRUE</value>
							</parameter>
							<parameter>
								<parameterid>graphdict</parameterid>
								<name>graphdict</name>
								<valuemin>0</valuemin>
								<valuemax>91</valuemax>
								<keyframe>
									<when>0</when>
									<value>0.4999</value>
									<speedkfin>TRUE</speedkfin>
								</keyframe>
								<keyframe>
									<when>82</when>
									<value>41.4999</value>
									<speedkfout>TRUE</speedkfout>
									<speedvirtualkf>TRUE</speedvirtualkf>
								</keyframe>
								<keyframe>
									<when>183</when>
									<value>92.4999</value>
									<speedkfend>TRUE</speedkfend>
									<speedvirtualkf>TRUE</speedvirtualkf>
								</keyframe>
								<interpolation>
									<name>FCPCurve</name>
								</interpolation>
								<value>0.4999</value>
							</parameter>
						</effect>
					</filter>
				</clipitem>
				<clipitem id="SteinWipe Start på første frame.wav3">
					<name>SteinWipe Start på første frame.wav</name>
					<duration>31</duration>
					<rate>
						<ntsc>FALSE</ntsc>
						<timebase>25</timebase>
					</rate>
					<in>0</in>
					<out>31</out>
					<start>27480</start>
					<end>27511</end>
					<masterclipid>SteinWipe Start på første frame.wav1</masterclipid>
					<logginginfo>
						<scene/>
						<shottake/>
						<lognote/>
						<good>FALSE</good>
					</logginginfo>
					<labels>
						<label2/>
					</labels>
					<comments>
						<mastercomment1/>
						<mastercomment2/>
						<mastercomment3/>
						<mastercomment4/>
					</comments>
					<file id="SteinWipe Start på første frame"/>
					<filter>
						<effect>
							<name>Audio Levels</name>
							<effectid>audiolevels</effectid>
							<effectcategory>audiolevels</effectcategory>
							<effecttype>audiolevels</effecttype>
							<mediatype>audio</mediatype>
							<parameter>
								<name>Level</name>
								<parameterid>level</parameterid>
								<valuemin>0</valuemin>
								<valuemax>3.98109</valuemax>
								<value>1</value>
							</parameter>
						</effect>
					</filter>
					<filter>
						<effect>
							<name>Audio Pan</name>
							<effectid>audiopan</effectid>
							<effectcategory>audiopan</effectcategory>
							<effecttype>audiopan</effecttype>
							<mediatype>audio</mediatype>
							<parameter>
								<name>Pan</name>
								<parameterid>pan</parameterid>
								<valuemin>-1</valuemin>
								<valuemax>1</valuemax>
								<value>-1</value>
							</parameter>
						</effect>
					</filter>
					<sourcetrack>
						<mediatype>audio</mediatype>
						<trackindex>1</trackindex>
					</sourcetrack>
					<link>
						<linkclipref>SteinWipe Start på første frame.wav3</linkclipref>
						<mediatype>audio</mediatype>
						<trackindex>5</trackindex>
						<clipindex>20</clipindex>
						<groupindex>1</groupindex>
					</link>
					<link>
						<linkclipref>SteinWipe Start på første frame.wav4</linkclipref>
						<mediatype>audio</mediatype>
						<trackindex>6</trackindex>
						<clipindex>20</clipindex>
						<groupindex>1</groupindex>
					</link>
				</clipitem>
				<enabled>TRUE</enabled>
				<locked>FALSE</locked>
				<outputchannelindex>1</outputchannelindex>
			</track>
			<track>
				<clipitem id="Vignett Ny miks m Christer.wav2">
					<name>Vignett Ny miks m Christer.wav</name>
					<duration>904</duration>
					<rate>
						<ntsc>FALSE</ntsc>
						<timebase>25</timebase>
					</rate>
					<in>0</in>
					<out>904</out>
					<start>2</start>
					<end>906</end>
					<enabled>TRUE</enabled>
					<masterclipid>Vignett Ny miks m Christer.wav1</masterclipid>
					<logginginfo>
						<scene/>
						<shottake/>
						<lognote/>
						<good>FALSE</good>
					</logginginfo>
					<labels>
						<label2/>
					</labels>
					<comments>
						<mastercomment1/>
						<mastercomment2/>
						<mastercomment3/>
						<mastercomment4/>
					</comments>
					<file id="Vignett Ny miks m Christer"/>
					<filter>
						<effect>
							<name>Audio Levels</name>
							<effectid>audiolevels</effectid>
							<effectcategory>audiolevels</effectcategory>
							<effecttype>audiolevels</effecttype>
							<mediatype>audio</mediatype>
							<parameter>
								<name>Level</name>
								<parameterid>level</parameterid>
								<valuemin>0</valuemin>
								<valuemax>3.98109</valuemax>
								<keyframe>
									<when>391.143</when>
									<value>1</value>
								</keyframe>
								<keyframe>
									<when>724.929</when>
									<value>1</value>
								</keyframe>
								<interpolation>
									<name>FCPCurve</name>
								</interpolation>
								<value>1</value>
							</parameter>
						</effect>
					</filter>
					<filter>
						<effect>
							<name>Audio Pan</name>
							<effectid>audiopan</effectid>
							<effectcategory>audiopan</effectcategory>
							<effecttype>audiopan</effecttype>
							<mediatype>audio</mediatype>
							<parameter>
								<name>Pan</name>
								<parameterid>pan</parameterid>
								<valuemin>-1</valuemin>
								<valuemax>1</valuemax>
								<value>1</value>
							</parameter>
						</effect>
					</filter>
					<sourcetrack>
						<mediatype>audio</mediatype>
						<trackindex>2</trackindex>
					</sourcetrack>
					<link>
						<linkclipref>Vignett Ny miks m Christer.wav</linkclipref>
						<mediatype>audio</mediatype>
						<trackindex>5</trackindex>
						<clipindex>1</clipindex>
						<groupindex>1</groupindex>
					</link>
					<link>
						<linkclipref>Vignett Ny miks m Christer.wav2</linkclipref>
						<mediatype>audio</mediatype>
						<trackindex>6</trackindex>
						<clipindex>1</clipindex>
						<groupindex>1</groupindex>
					</link>
				</clipitem>
				<clipitem id="StarsIn…tronicDIGIFXJ027401.WAV2">
					<name>StarsIn…tronicDIGIFXJ027401.WAV</name>
					<duration>822</duration>
					<rate>
						<ntsc>FALSE</ntsc>
						<timebase>25</timebase>
					</rate>
					<in>16</in>
					<out>112</out>
					<start>1651</start>
					<end>-1</end>
					<subframeoffset>0</subframeoffset>
					<masterclipid>StarsIn…tronicDIGIFXJ027401.WAV3</masterclipid>
					<logginginfo>
						<scene/>
						<shottake/>
						<lognote/>
						<good>FALSE</good>
					</logginginfo>
					<labels>
						<label2/>
					</labels>
					<comments>
						<mastercomment1/>
						<mastercomment2/>
						<mastercomment3/>
						<mastercomment4/>
					</comments>
					<file id="StarsIn…tronicDIGIFXJ027401 "/>
					<filter>
						<effect>
							<name>Audio Levels</name>
							<effectid>audiolevels</effectid>
							<effectcategory>audiolevels</effectcategory>
							<effecttype>audiolevels</effecttype>
							<mediatype>audio</mediatype>
							<parameter>
								<name>Level</name>
								<parameterid>level</parameterid>
								<valuemin>0</valuemin>
								<valuemax>3.98109</valuemax>
								<keyframe>
									<when>16.7143</when>
									<value>0</value>
								</keyframe>
								<keyframe>
									<when>34</when>
									<value>0.251189</value>
								</keyframe>
								<interpolation>
									<name>FCPCurve</name>
								</interpolation>
								<value>0.0630957</value>
							</parameter>
						</effect>
					</filter>
					<filter>
						<effect>
							<name>Audio Pan</name>
							<effectid>audiopan</effectid>
							<effectcategory>audiopan</effectcategory>
							<effecttype>audiopan</effecttype>
							<mediatype>audio</mediatype>
							<parameter>
								<name>Pan</name>
								<parameterid>pan</parameterid>
								<valuemin>-1</valuemin>
								<valuemax>1</valuemax>
								<value>1</value>
							</parameter>
						</effect>
					</filter>
					<sourcetrack>
						<mediatype>audio</mediatype>
						<trackindex>2</trackindex>
					</sourcetrack>
					<link>
						<linkclipref>StarsIn…tronicDIGIFXJ027401.WAV</linkclipref>
						<mediatype>audio</mediatype>
						<trackindex>5</trackindex>
						<clipindex>2</clipindex>
						<groupindex>1</groupindex>
					</link>
					<link>
						<linkclipref>StarsIn…tronicDIGIFXJ027401.WAV2</linkclipref>
						<mediatype>audio</mediatype>
						<trackindex>6</trackindex>
						<clipindex>2</clipindex>
						<groupindex>1</groupindex>
					</link>
				</clipitem>
				<transitionitem id="31">
					<rate>
						<ntsc>FALSE</ntsc>
						<timebase>25</timebase>
					</rate>
					<start>1722</start>
					<end>1747</end>
					<alignment>center</alignment>
					<effect>
						<name>Cross Fade (+3dB)</name>
						<effecttype>transition</effecttype>
						<mediatype>audio</mediatype>
					</effect>
				</transitionitem>
				<clipitem id="Gong-DeepDIGIFXJ013601.WAV2">
					<name>Gong-DeepDIGIFXJ013601.WAV</name>
					<duration>1049</duration>
					<rate>
						<ntsc>FALSE</ntsc>
						<timebase>25</timebase>
					</rate>
					<in>7</in>
					<out>145</out>
					<start>-1</start>
					<end>1860</end>
					<subframeoffset>0</subframeoffset>
					<masterclipid>Gong-DeepDIGIFXJ013601.WAV3</masterclipid>
					<logginginfo>
						<scene/>
						<shottake/>
						<lognote/>
						<good>FALSE</good>
					</logginginfo>
					<labels>
						<label2/>
					</labels>
					<comments>
						<mastercomment1/>
						<mastercomment2/>
						<mastercomment3/>
						<mastercomment4/>
					</comments>
					<file id="Gong-DeepDIGIFXJ013601 "/>
					<filter>
						<effect>
							<name>Audio Levels</name>
							<effectid>audiolevels</effectid>
							<effectcategory>audiolevels</effectcategory>
							<effecttype>audiolevels</effecttype>
							<mediatype>audio</mediatype>
							<parameter>
								<name>Level</name>
								<parameterid>level</parameterid>
								<valuemin>0</valuemin>
								<valuemax>3.98109</valuemax>
								<keyframe>
									<when>69.5714</when>
									<value>0.158489</value>
								</keyframe>
								<keyframe>
									<when>129.857</when>
									<value>0</value>
								</keyframe>
								<interpolation>
									<name>FCPCurve</name>
								</interpolation>
								<value>1</value>
							</parameter>
						</effect>
					</filter>
					<filter>
						<effect>
							<name>Audio Pan</name>
							<effectid>audiopan</effectid>
							<effectcategory>audiopan</effectcategory>
							<effecttype>audiopan</effecttype>
							<mediatype>audio</mediatype>
							<parameter>
								<name>Pan</name>
								<parameterid>pan</parameterid>
								<valuemin>-1</valuemin>
								<valuemax>1</valuemax>
								<value>1</value>
							</parameter>
						</effect>
					</filter>
					<sourcetrack>
						<mediatype>audio</mediatype>
						<trackindex>2</trackindex>
					</sourcetrack>
					<link>
						<linkclipref>Gong-DeepDIGIFXJ013601.WAV</linkclipref>
						<mediatype>audio</mediatype>
						<trackindex>5</trackindex>
						<clipindex>4</clipindex>
						<groupindex>1</groupindex>
					</link>
					<link>
						<linkclipref>Gong-DeepDIGIFXJ013601.WAV2</linkclipref>
						<mediatype>audio</mediatype>
						<trackindex>6</trackindex>
						<clipindex>4</clipindex>
						<groupindex>1</groupindex>
					</link>
				</clipitem>
				<clipitem id="XYLOPHONE…NEIDEA!SI10204102.WAV2">
					<name>XYLOPHONE…NEIDEA!SI10204102.WAV</name>
					<duration>76</duration>
					<rate>
						<ntsc>FALSE</ntsc>
						<timebase>25</timebase>
					</rate>
					<in>0</in>
					<out>76</out>
					<start>3817</start>
					<end>3893</end>
					<masterclipid>XYLOPHONE…NEIDEA!SI10204102.WAV1</masterclipid>
					<logginginfo>
						<scene/>
						<shottake/>
						<lognote/>
						<good>FALSE</good>
					</logginginfo>
					<labels>
						<label2/>
					</labels>
					<comments>
						<mastercomment1/>
						<mastercomment2/>
						<mastercomment3/>
						<mastercomment4/>
					</comments>
					<file id="XYLOPHONE…NEIDEA!SI10204102 "/>
					<filter>
						<effect>
							<name>Audio Levels</name>
							<effectid>audiolevels</effectid>
							<effectcategory>audiolevels</effectcategory>
							<effecttype>audiolevels</effecttype>
							<mediatype>audio</mediatype>
							<parameter>
								<name>Level</name>
								<parameterid>level</parameterid>
								<valuemin>0</valuemin>
								<valuemax>3.98109</valuemax>
								<value>0.501187</value>
							</parameter>
						</effect>
					</filter>
					<filter>
						<effect>
							<name>Audio Pan</name>
							<effectid>audiopan</effectid>
							<effectcategory>audiopan</effectcategory>
							<effecttype>audiopan</effecttype>
							<mediatype>audio</mediatype>
							<parameter>
								<name>Pan</name>
								<parameterid>pan</parameterid>
								<valuemin>-1</valuemin>
								<valuemax>1</valuemax>
								<value>1</value>
							</parameter>
						</effect>
					</filter>
					<sourcetrack>
						<mediatype>audio</mediatype>
						<trackindex>2</trackindex>
					</sourcetrack>
					<link>
						<linkclipref>XYLOPHONE…NEIDEA!SI10204102.WAV</linkclipref>
						<mediatype>audio</mediatype>
						<trackindex>5</trackindex>
						<clipindex>5</clipindex>
						<groupindex>1</groupindex>
					</link>
					<link>
						<linkclipref>XYLOPHONE…NEIDEA!SI10204102.WAV2</linkclipref>
						<mediatype>audio</mediatype>
						<trackindex>6</trackindex>
						<clipindex>5</clipindex>
						<groupindex>1</groupindex>
					</link>
				</clipitem>
				<clipitem id="SCD078112.wav3">
					<name>SCD078112.wav</name>
					<duration>2817</duration>
					<rate>
						<ntsc>FALSE</ntsc>
						<timebase>25</timebase>
					</rate>
					<in>16</in>
					<out>1427</out>
					<start>4320</start>
					<end>5731</end>
					<subframeoffset>0</subframeoffset>
					<logginginfo>
						<scene/>
						<shottake/>
						<lognote/>
						<good>FALSE</good>
					</logginginfo>
					<labels>
						<label2/>
					</labels>
					<comments>
						<mastercomment1/>
						<mastercomment2/>
						<mastercomment3/>
						<mastercomment4/>
					</comments>
					<file id="SCD078112 "/>
					<filter>
						<effect>
							<name>Audio Levels</name>
							<effectid>audiolevels</effectid>
							<effectcategory>audiolevels</effectcategory>
							<effecttype>audiolevels</effecttype>
							<mediatype>audio</mediatype>
							<parameter>
								<name>Level</name>
								<parameterid>level</parameterid>
								<valuemin>0</valuemin>
								<valuemax>3.98109</valuemax>
								<keyframe>
									<when>126.607</when>
									<value>0.199526</value>
								</keyframe>
								<keyframe>
									<when>172</when>
									<value>0.112202</value>
								</keyframe>
								<keyframe>
									<when>691.857</when>
									<value>0.112202</value>
								</keyframe>
								<keyframe>
									<when>705.429</when>
									<value>0.0630957</value>
								</keyframe>
								<keyframe>
									<when>1400.12</when>
									<value>0.0630957</value>
								</keyframe>
								<keyframe>
									<when>1426.07</when>
									<value>0</value>
								</keyframe>
								<keyframe>
									<when>1522.43</when>
									<value>0</value>
								</keyframe>
								<interpolation>
									<name>FCPCurve</name>
								</interpolation>
								<value>1</value>
							</parameter>
						</effect>
					</filter>
					<filter>
						<effect>
							<name>Audio Pan</name>
							<effectid>audiopan</effectid>
							<effectcategory>audiopan</effectcategory>
							<effecttype>audiopan</effecttype>
							<mediatype>audio</mediatype>
							<parameter>
								<name>Pan</name>
								<parameterid>pan</parameterid>
								<valuemin>-1</valuemin>
								<valuemax>1</valuemax>
								<value>1</value>
							</parameter>
						</effect>
					</filter>
					<sourcetrack>
						<mediatype>audio</mediatype>
						<trackindex>2</trackindex>
					</sourcetrack>
					<link>
						<linkclipref>SCD078112.wav2</linkclipref>
						<mediatype>audio</mediatype>
						<trackindex>5</trackindex>
						<clipindex>6</clipindex>
						<groupindex>1</groupindex>
					</link>
					<link>
						<linkclipref>SCD078112.wav3</linkclipref>
						<mediatype>audio</mediatype>
						<trackindex>6</trackindex>
						<clipindex>6</clipindex>
						<groupindex>1</groupindex>
					</link>
				</clipitem>
				<clipitem id="SCD078101.wav2">
					<name>SCD078101.wav</name>
					<duration>4576</duration>
					<rate>
						<ntsc>FALSE</ntsc>
						<timebase>25</timebase>
					</rate>
					<in>1</in>
					<out>1012</out>
					<start>6732</start>
					<end>7743</end>
					<subframeoffset>0</subframeoffset>
					<masterclipid>SCD078101.wav3</masterclipid>
					<logginginfo>
						<scene/>
						<shottake/>
						<lognote/>
						<good>FALSE</good>
					</logginginfo>
					<labels>
						<label2/>
					</labels>
					<comments>
						<mastercomment1/>
						<mastercomment2/>
						<mastercomment3/>
						<mastercomment4/>
					</comments>
					<file id="SCD078101 "/>
					<filter>
						<effect>
							<name>Audio Levels</name>
							<effectid>audiolevels</effectid>
							<effectcategory>audiolevels</effectcategory>
							<effecttype>audiolevels</effecttype>
							<mediatype>audio</mediatype>
							<parameter>
								<name>Level</name>
								<parameterid>level</parameterid>
								<valuemin>0</valuemin>
								<valuemax>3.98109</valuemax>
								<keyframe>
									<when>959.438</when>
									<value>0.0501187</value>
								</keyframe>
								<keyframe>
									<when>1011.69</when>
									<value>0</value>
								</keyframe>
								<interpolation>
									<name>FCPCurve</name>
								</interpolation>
								<value>1</value>
							</parameter>
						</effect>
					</filter>
					<filter>
						<effect>
							<name>Audio Pan</name>
							<effectid>audiopan</effectid>
							<effectcategory>audiopan</effectcategory>
							<effecttype>audiopan</effecttype>
							<mediatype>audio</mediatype>
							<parameter>
								<name>Pan</name>
								<parameterid>pan</parameterid>
								<valuemin>-1</valuemin>
								<valuemax>1</valuemax>
								<value>1</value>
							</parameter>
						</effect>
					</filter>
					<sourcetrack>
						<mediatype>audio</mediatype>
						<trackindex>2</trackindex>
					</sourcetrack>
					<link>
						<linkclipref>SCD078101.wav</linkclipref>
						<mediatype>audio</mediatype>
						<trackindex>5</trackindex>
						<clipindex>7</clipindex>
						<groupindex>1</groupindex>
					</link>
					<link>
						<linkclipref>SCD078101.wav2</linkclipref>
						<mediatype>audio</mediatype>
						<trackindex>6</trackindex>
						<clipindex>7</clipindex>
						<groupindex>1</groupindex>
					</link>
				</clipitem>
				<clipitem id="BlomsterWipe start 5 frames før første bilde.wav2">
					<name>BlomsterWipe start 5 frames før første bilde.wav</name>
					<duration>73</duration>
					<rate>
						<ntsc>FALSE</ntsc>
						<timebase>25</timebase>
					</rate>
					<in>0</in>
					<out>73</out>
					<start>8004</start>
					<end>8077</end>
					<subframeoffset>0</subframeoffset>
					<masterclipid>BlomsterWipe start 5 frames før første bilde.wav1</masterclipid>
					<logginginfo>
						<scene/>
						<shottake/>
						<lognote/>
						<good>FALSE</good>
					</logginginfo>
					<labels>
						<label2/>
					</labels>
					<comments>
						<mastercomment1/>
						<mastercomment2/>
						<mastercomment3/>
						<mastercomment4/>
					</comments>
					<file id="BlomsterWipe start 5 frames før første bilde"/>
					<filter>
						<effect>
							<name>Audio Levels</name>
							<effectid>audiolevels</effectid>
							<effectcategory>audiolevels</effectcategory>
							<effecttype>audiolevels</effecttype>
							<mediatype>audio</mediatype>
							<parameter>
								<name>Level</name>
								<parameterid>level</parameterid>
								<valuemin>0</valuemin>
								<valuemax>3.98109</valuemax>
								<value>1</value>
							</parameter>
						</effect>
					</filter>
					<filter>
						<effect>
							<name>Audio Pan</name>
							<effectid>audiopan</effectid>
							<effectcategory>audiopan</effectcategory>
							<effecttype>audiopan</effecttype>
							<mediatype>audio</mediatype>
							<parameter>
								<name>Pan</name>
								<parameterid>pan</parameterid>
								<valuemin>-1</valuemin>
								<valuemax>1</valuemax>
								<value>1</value>
							</parameter>
						</effect>
					</filter>
					<sourcetrack>
						<mediatype>audio</mediatype>
						<trackindex>2</trackindex>
					</sourcetrack>
					<link>
						<linkclipref>BlomsterWipe start 5 frames før første bilde.wav</linkclipref>
						<mediatype>audio</mediatype>
						<trackindex>5</trackindex>
						<clipindex>8</clipindex>
						<groupindex>1</groupindex>
					</link>
					<link>
						<linkclipref>BlomsterWipe start 5 frames før første bilde.wav2</linkclipref>
						<mediatype>audio</mediatype>
						<trackindex>6</trackindex>
						<clipindex>8</clipindex>
						<groupindex>1</groupindex>
					</link>
				</clipitem>
				<clipitem id="SCD078019 3">
					<name>SCD078019</name>
					<duration>3133</duration>
					<rate>
						<ntsc>FALSE</ntsc>
						<timebase>25</timebase>
					</rate>
					<in>0</in>
					<out>1177</out>
					<start>10595</start>
					<end>11772</end>
					<subframeoffset>0</subframeoffset>
					<masterclipid>SCD078019 1</masterclipid>
					<logginginfo>
						<scene/>
						<shottake/>
						<lognote/>
						<good>FALSE</good>
					</logginginfo>
					<labels>
						<label2/>
					</labels>
					<comments>
						<mastercomment1/>
						<mastercomment2/>
						<mastercomment3/>
						<mastercomment4/>
					</comments>
					<file id="SCD078019 2"/>
					<filter>
						<effect>
							<name>Audio Levels</name>
							<effectid>audiolevels</effectid>
							<effectcategory>audiolevels</effectcategory>
							<effecttype>audiolevels</effecttype>
							<mediatype>audio</mediatype>
							<parameter>
								<name>Level</name>
								<parameterid>level</parameterid>
								<valuemin>0</valuemin>
								<valuemax>3.98109</valuemax>
								<keyframe>
									<when>0.142857</when>
									<value>0</value>
								</keyframe>
								<keyframe>
									<when>11</when>
									<value>0.1</value>
								</keyframe>
								<keyframe>
									<when>1740.14</when>
									<value>0.1</value>
								</keyframe>
								<interpolation>
									<name>FCPCurve</name>
								</interpolation>
								<value>0.199526</value>
							</parameter>
						</effect>
					</filter>
					<filter>
						<effect>
							<name>Audio Pan</name>
							<effectid>audiopan</effectid>
							<effectcategory>audiopan</effectcategory>
							<effecttype>audiopan</effecttype>
							<mediatype>audio</mediatype>
							<parameter>
								<name>Pan</name>
								<parameterid>pan</parameterid>
								<valuemin>-1</valuemin>
								<valuemax>1</valuemax>
								<value>0.99</value>
							</parameter>
						</effect>
					</filter>
					<sourcetrack>
						<mediatype>audio</mediatype>
						<trackindex>2</trackindex>
					</sourcetrack>
					<link>
						<linkclipref>SCD078019 </linkclipref>
						<mediatype>audio</mediatype>
						<trackindex>5</trackindex>
						<clipindex>9</clipindex>
						<groupindex>1</groupindex>
					</link>
					<link>
						<linkclipref>SCD078019 3</linkclipref>
						<mediatype>audio</mediatype>
						<trackindex>6</trackindex>
						<clipindex>9</clipindex>
						<groupindex>1</groupindex>
					</link>
				</clipitem>
				<clipitem id="SCD078019 5">
					<name>SCD078019</name>
					<duration>3133</duration>
					<rate>
						<ntsc>FALSE</ntsc>
						<timebase>25</timebase>
					</rate>
					<in>2843</in>
					<out>3133</out>
					<start>11772</start>
					<end>12062</end>
					<subframeoffset>0</subframeoffset>
					<masterclipid>SCD078019 1</masterclipid>
					<logginginfo>
						<scene/>
						<shottake/>
						<lognote/>
						<good>FALSE</good>
					</logginginfo>
					<labels>
						<label2/>
					</labels>
					<comments>
						<mastercomment1/>
						<mastercomment2/>
						<mastercomment3/>
						<mastercomment4/>
					</comments>
					<file id="SCD078019 2"/>
					<filter>
						<effect>
							<name>Audio Levels</name>
							<effectid>audiolevels</effectid>
							<effectcategory>audiolevels</effectcategory>
							<effecttype>audiolevels</effecttype>
							<mediatype>audio</mediatype>
							<parameter>
								<name>Level</name>
								<parameterid>level</parameterid>
								<valuemin>0</valuemin>
								<valuemax>3.98109</valuemax>
								<keyframe>
									<when>0.142857</when>
									<value>0</value>
								</keyframe>
								<keyframe>
									<when>11</when>
									<value>0.398107</value>
								</keyframe>
								<keyframe>
									<when>1740.14</when>
									<value>0.1</value>
								</keyframe>
								<interpolation>
									<name>FCPCurve</name>
								</interpolation>
								<value>0.199526</value>
							</parameter>
						</effect>
					</filter>
					<filter>
						<effect>
							<name>Audio Pan</name>
							<effectid>audiopan</effectid>
							<effectcategory>audiopan</effectcategory>
							<effecttype>audiopan</effecttype>
							<mediatype>audio</mediatype>
							<parameter>
								<name>Pan</name>
								<parameterid>pan</parameterid>
								<valuemin>-1</valuemin>
								<valuemax>1</valuemax>
								<value>0.99</value>
							</parameter>
						</effect>
					</filter>
					<sourcetrack>
						<mediatype>audio</mediatype>
						<trackindex>2</trackindex>
					</sourcetrack>
					<link>
						<linkclipref>SCD078019 4</linkclipref>
						<mediatype>audio</mediatype>
						<trackindex>5</trackindex>
						<clipindex>10</clipindex>
						<groupindex>1</groupindex>
					</link>
					<link>
						<linkclipref>SCD078019 5</linkclipref>
						<mediatype>audio</mediatype>
						<trackindex>6</trackindex>
						<clipindex>10</clipindex>
						<groupindex>1</groupindex>
					</link>
				</clipitem>
				<clipitem id="SCD083314.wav2">
					<name>SCD083314.wav</name>
					<duration>2741</duration>
					<rate>
						<ntsc>FALSE</ntsc>
						<timebase>25</timebase>
					</rate>
					<in>135</in>
					<out>348</out>
					<start>14755</start>
					<end>-1</end>
					<subframeoffset>0</subframeoffset>
					<masterclipid>SCD083314.wav1</masterclipid>
					<logginginfo>
						<scene/>
						<shottake/>
						<lognote/>
						<good>FALSE</good>
					</logginginfo>
					<labels>
						<label2/>
					</labels>
					<comments>
						<mastercomment1/>
						<mastercomment2/>
						<mastercomment3/>
						<mastercomment4/>
					</comments>
					<file id="SCD083314 "/>
					<filter>
						<effect>
							<name>Audio Levels</name>
							<effectid>audiolevels</effectid>
							<effectcategory>audiolevels</effectcategory>
							<effecttype>audiolevels</effecttype>
							<mediatype>audio</mediatype>
							<parameter>
								<name>Level</name>
								<parameterid>level</parameterid>
								<valuemin>0</valuemin>
								<valuemax>3.98109</valuemax>
								<keyframe>
									<when>140.857</when>
									<value>0</value>
								</keyframe>
								<keyframe>
									<when>154.857</when>
									<value>0.562341</value>
								</keyframe>
								<interpolation>
									<name>FCPCurve</name>
								</interpolation>
								<value>1</value>
							</parameter>
						</effect>
					</filter>
					<filter>
						<effect>
							<name>Audio Pan</name>
							<effectid>audiopan</effectid>
							<effectcategory>audiopan</effectcategory>
							<effecttype>audiopan</effecttype>
							<mediatype>audio</mediatype>
							<parameter>
								<name>Pan</name>
								<parameterid>pan</parameterid>
								<valuemin>-1</valuemin>
								<valuemax>1</valuemax>
								<value>1</value>
							</parameter>
						</effect>
					</filter>
					<sourcetrack>
						<mediatype>audio</mediatype>
						<trackindex>2</trackindex>
					</sourcetrack>
					<link>
						<linkclipref>SCD083314.wav</linkclipref>
						<mediatype>audio</mediatype>
						<trackindex>5</trackindex>
						<clipindex>11</clipindex>
						<groupindex>1</groupindex>
					</link>
					<link>
						<linkclipref>SCD083314.wav2</linkclipref>
						<mediatype>audio</mediatype>
						<trackindex>6</trackindex>
						<clipindex>11</clipindex>
						<groupindex>1</groupindex>
					</link>
				</clipitem>
				<transitionitem id="32">
					<rate>
						<ntsc>FALSE</ntsc>
						<timebase>25</timebase>
					</rate>
					<start>14942</start>
					<end>14968</end>
					<alignment>start</alignment>
					<effect>
						<name>Cross Fade (+3dB)</name>
						<effecttype>transition</effecttype>
						<mediatype>audio</mediatype>
					</effect>
				</transitionitem>
				<clipitem id="SCD083314.wav4">
					<name>SCD083314.wav</name>
					<duration>2741</duration>
					<rate>
						<ntsc>FALSE</ntsc>
						<timebase>25</timebase>
					</rate>
					<in>2624</in>
					<out>2721</out>
					<start>-1</start>
					<end>15039</end>
					<subframeoffset>0</subframeoffset>
					<masterclipid>SCD083314.wav1</masterclipid>
					<logginginfo>
						<scene/>
						<shottake/>
						<lognote/>
						<good>FALSE</good>
					</logginginfo>
					<labels>
						<label2/>
					</labels>
					<comments>
						<mastercomment1/>
						<mastercomment2/>
						<mastercomment3/>
						<mastercomment4/>
					</comments>
					<file id="SCD083314 "/>
					<filter>
						<effect>
							<name>Audio Levels</name>
							<effectid>audiolevels</effectid>
							<effectcategory>audiolevels</effectcategory>
							<effecttype>audiolevels</effecttype>
							<mediatype>audio</mediatype>
							<parameter>
								<name>Level</name>
								<parameterid>level</parameterid>
								<valuemin>0</valuemin>
								<valuemax>3.98109</valuemax>
								<value>0.562341</value>
							</parameter>
						</effect>
					</filter>
					<filter>
						<effect>
							<name>Audio Pan</name>
							<effectid>audiopan</effectid>
							<effectcategory>audiopan</effectcategory>
							<effecttype>audiopan</effecttype>
							<mediatype>audio</mediatype>
							<parameter>
								<name>Pan</name>
								<parameterid>pan</parameterid>
								<valuemin>-1</valuemin>
								<valuemax>1</valuemax>
								<value>1</value>
							</parameter>
						</effect>
					</filter>
					<sourcetrack>
						<mediatype>audio</mediatype>
						<trackindex>2</trackindex>
					</sourcetrack>
					<link>
						<linkclipref>SCD083314.wav3</linkclipref>
						<mediatype>audio</mediatype>
						<trackindex>5</trackindex>
						<clipindex>13</clipindex>
						<groupindex>1</groupindex>
					</link>
					<link>
						<linkclipref>SCD083314.wav4</linkclipref>
						<mediatype>audio</mediatype>
						<trackindex>6</trackindex>
						<clipindex>13</clipindex>
						<groupindex>1</groupindex>
					</link>
				</clipitem>
				<transitionitem id="63750520 ">
					<rate>
						<ntsc>FALSE</ntsc>
						<timebase>25</timebase>
					</rate>
					<start>16812</start>
					<end>16887</end>
					<alignment>start-black</alignment>
					<effect>
						<name>Cross Fade (+3dB)</name>
						<effecttype>transition</effecttype>
						<mediatype>audio</mediatype>
					</effect>
				</transitionitem>
				<clipitem id="SCD074302_MICROSCOPIC_SONOTON.wav6">
					<name>SCD074302_MICROSCOPIC_SONOTON.wav</name>
					<duration>3084</duration>
					<rate>
						<ntsc>FALSE</ntsc>
						<timebase>25</timebase>
					</rate>
					<in>1304</in>
					<out>3080</out>
					<start>-1</start>
					<end>18588</end>
					<subframeoffset>0</subframeoffset>
					<masterclipid>SCD074302_MICROSCOPIC_SONOTON.wav7</masterclipid>
					<logginginfo>
						<scene/>
						<shottake/>
						<lognote/>
						<good>FALSE</good>
					</logginginfo>
					<labels>
						<label2/>
					</labels>
					<comments>
						<mastercomment1/>
						<mastercomment2/>
						<mastercomment3/>
						<mastercomment4/>
					</comments>
					<file id="SCD074302_MICROSCOPIC_SONOTON"/>
					<filter>
						<effect>
							<name>Audio Levels</name>
							<effectid>audiolevels</effectid>
							<effectcategory>audiolevels</effectcategory>
							<effecttype>audiolevels</effecttype>
							<mediatype>audio</mediatype>
							<parameter>
								<name>Level</name>
								<parameterid>level</parameterid>
								<valuemin>0</valuemin>
								<valuemax>3.98109</valuemax>
								<keyframe>
									<when>1387.52</when>
									<value>0.199526</value>
								</keyframe>
								<keyframe>
									<when>1422.27</when>
									<value>0.398107</value>
								</keyframe>
								<keyframe>
									<when>1800.79</when>
									<value>0.398107</value>
								</keyframe>
								<keyframe>
									<when>1844.23</when>
									<value>0.141254</value>
								</keyframe>
								<keyframe>
									<when>1942.28</when>
									<value>0.112202</value>
								</keyframe>
								<keyframe>
									<when>2063.9</when>
									<value>0.316228</value>
								</keyframe>
								<keyframe>
									<when>2148.29</when>
									<value>0.251189</value>
								</keyframe>
								<keyframe>
									<when>2236.41</when>
									<value>0.0354813</value>
								</keyframe>
								<keyframe>
									<when>2392.04</when>
									<value>0</value>
								</keyframe>
								<interpolation>
									<name>FCPCurve</name>
								</interpolation>
								<value>1</value>
							</parameter>
						</effect>
					</filter>
					<filter>
						<effect>
							<name>Audio Pan</name>
							<effectid>audiopan</effectid>
							<effectcategory>audiopan</effectcategory>
							<effecttype>audiopan</effecttype>
							<mediatype>audio</mediatype>
							<parameter>
								<name>Pan</name>
								<parameterid>pan</parameterid>
								<valuemin>-1</valuemin>
								<valuemax>1</valuemax>
								<value>1</value>
							</parameter>
						</effect>
					</filter>
					<sourcetrack>
						<mediatype>audio</mediatype>
						<trackindex>2</trackindex>
					</sourcetrack>
					<link>
						<linkclipref>SCD074302_MICROSCOPIC_SONOTON.wav4</linkclipref>
						<mediatype>audio</mediatype>
						<trackindex>5</trackindex>
						<clipindex>15</clipindex>
						<groupindex>1</groupindex>
					</link>
					<link>
						<linkclipref>SCD074302_MICROSCOPIC_SONOTON.wav6</linkclipref>
						<mediatype>audio</mediatype>
						<trackindex>6</trackindex>
						<clipindex>15</clipindex>
						<groupindex>1</groupindex>
					</link>
				</clipitem>
				<clipitem id="SteinWipe Start på første frame.wav2">
					<name>SteinWipe Start på første frame.wav</name>
					<duration>31</duration>
					<rate>
						<ntsc>FALSE</ntsc>
						<timebase>25</timebase>
					</rate>
					<in>0</in>
					<out>31</out>
					<start>19315</start>
					<end>19346</end>
					<masterclipid>SteinWipe Start på første frame.wav1</masterclipid>
					<logginginfo>
						<scene/>
						<shottake/>
						<lognote/>
						<good>FALSE</good>
					</logginginfo>
					<labels>
						<label2/>
					</labels>
					<comments>
						<mastercomment1/>
						<mastercomment2/>
						<mastercomment3/>
						<mastercomment4/>
					</comments>
					<file id="SteinWipe Start på første frame"/>
					<filter>
						<effect>
							<name>Audio Levels</name>
							<effectid>audiolevels</effectid>
							<effectcategory>audiolevels</effectcategory>
							<effecttype>audiolevels</effecttype>
							<mediatype>audio</mediatype>
							<parameter>
								<name>Level</name>
								<parameterid>level</parameterid>
								<valuemin>0</valuemin>
								<valuemax>3.98109</valuemax>
								<value>1</value>
							</parameter>
						</effect>
					</filter>
					<filter>
						<effect>
							<name>Audio Pan</name>
							<effectid>audiopan</effectid>
							<effectcategory>audiopan</effectcategory>
							<effecttype>audiopan</effecttype>
							<mediatype>audio</mediatype>
							<parameter>
								<name>Pan</name>
								<parameterid>pan</parameterid>
								<valuemin>-1</valuemin>
								<valuemax>1</valuemax>
								<value>1</value>
							</parameter>
						</effect>
					</filter>
					<sourcetrack>
						<mediatype>audio</mediatype>
						<trackindex>2</trackindex>
					</sourcetrack>
					<link>
						<linkclipref>SteinWipe Start på første frame.wav</linkclipref>
						<mediatype>audio</mediatype>
						<trackindex>5</trackindex>
						<clipindex>16</clipindex>
						<groupindex>1</groupindex>
					</link>
					<link>
						<linkclipref>SteinWipe Start på første frame.wav2</linkclipref>
						<mediatype>audio</mediatype>
						<trackindex>6</trackindex>
						<clipindex>16</clipindex>
						<groupindex>1</groupindex>
					</link>
				</clipitem>
				<clipitem id="AUXMP_SCD043646_SPRING BREAK.wav2">
					<name>AUXMP_SCD043646_SPRING BREAK.wav</name>
					<duration>1601</duration>
					<rate>
						<ntsc>FALSE</ntsc>
						<timebase>25</timebase>
					</rate>
					<in>0</in>
					<out>883</out>
					<start>20618</start>
					<end>21501</end>
					<masterclipid>AUXMP_SCD043646_SPRING BREAK.wav1</masterclipid>
					<logginginfo>
						<scene/>
						<shottake/>
						<lognote/>
						<good>FALSE</good>
					</logginginfo>
					<labels>
						<label2/>
					</labels>
					<comments>
						<mastercomment1/>
						<mastercomment2/>
						<mastercomment3/>
						<mastercomment4/>
					</comments>
					<file id="AUXMP_SCD043646_SPRING BREAK"/>
					<filter>
						<effect>
							<name>Audio Levels</name>
							<effectid>audiolevels</effectid>
							<effectcategory>audiolevels</effectcategory>
							<effecttype>audiolevels</effecttype>
							<mediatype>audio</mediatype>
							<parameter>
								<name>Level</name>
								<parameterid>level</parameterid>
								<valuemin>0</valuemin>
								<valuemax>3.98109</valuemax>
								<keyframe>
									<when>41.4286</when>
									<value>0.794328</value>
								</keyframe>
								<keyframe>
									<when>84.5714</when>
									<value>0.354813</value>
								</keyframe>
								<interpolation>
									<name>FCPCurve</name>
								</interpolation>
								<value>0.112202</value>
							</parameter>
						</effect>
					</filter>
					<filter>
						<effect>
							<name>Audio Pan</name>
							<effectid>audiopan</effectid>
							<effectcategory>audiopan</effectcategory>
							<effecttype>audiopan</effecttype>
							<mediatype>audio</mediatype>
							<parameter>
								<name>Pan</name>
								<parameterid>pan</parameterid>
								<valuemin>-1</valuemin>
								<valuemax>1</valuemax>
								<value>1</value>
							</parameter>
						</effect>
					</filter>
					<sourcetrack>
						<mediatype>audio</mediatype>
						<trackindex>2</trackindex>
					</sourcetrack>
					<link>
						<linkclipref>AUXMP_SCD043646_SPRING BREAK.wav</linkclipref>
						<mediatype>audio</mediatype>
						<trackindex>5</trackindex>
						<clipindex>17</clipindex>
						<groupindex>1</groupindex>
					</link>
					<link>
						<linkclipref>AUXMP_SCD043646_SPRING BREAK.wav2</linkclipref>
						<mediatype>audio</mediatype>
						<trackindex>6</trackindex>
						<clipindex>17</clipindex>
						<groupindex>1</groupindex>
					</link>
				</clipitem>
				<clipitem id="AUXMP_SCD043646_SPRING BREAK.wav4">
					<name>AUXMP_SCD043646_SPRING BREAK.wav</name>
					<duration>1601</duration>
					<rate>
						<ntsc>FALSE</ntsc>
						<timebase>25</timebase>
					</rate>
					<in>1112</in>
					<out>1601</out>
					<start>21501</start>
					<end>21990</end>
					<masterclipid>AUXMP_SCD043646_SPRING BREAK.wav1</masterclipid>
					<logginginfo>
						<scene/>
						<shottake/>
						<lognote/>
						<good>FALSE</good>
					</logginginfo>
					<labels>
						<label2/>
					</labels>
					<comments>
						<mastercomment1/>
						<mastercomment2/>
						<mastercomment3/>
						<mastercomment4/>
					</comments>
					<file id="AUXMP_SCD043646_SPRING BREAK"/>
					<filter>
						<effect>
							<name>Audio Levels</name>
							<effectid>audiolevels</effectid>
							<effectcategory>audiolevels</effectcategory>
							<effecttype>audiolevels</effecttype>
							<mediatype>audio</mediatype>
							<parameter>
								<name>Level</name>
								<parameterid>level</parameterid>
								<valuemin>0</valuemin>
								<valuemax>3.98109</valuemax>
								<keyframe>
									<when>41.4286</when>
									<value>0.112202</value>
								</keyframe>
								<keyframe>
									<when>84.5714</when>
									<value>0.354813</value>
								</keyframe>
								<interpolation>
									<name>FCPCurve</name>
								</interpolation>
								<value>0.112202</value>
							</parameter>
						</effect>
					</filter>
					<filter>
						<effect>
							<name>Audio Pan</name>
							<effectid>audiopan</effectid>
							<effectcategory>audiopan</effectcategory>
							<effecttype>audiopan</effecttype>
							<mediatype>audio</mediatype>
							<parameter>
								<name>Pan</name>
								<parameterid>pan</parameterid>
								<valuemin>-1</valuemin>
								<valuemax>1</valuemax>
								<value>1</value>
							</parameter>
						</effect>
					</filter>
					<sourcetrack>
						<mediatype>audio</mediatype>
						<trackindex>2</trackindex>
					</sourcetrack>
					<link>
						<linkclipref>AUXMP_SCD043646_SPRING BREAK.wav3</linkclipref>
						<mediatype>audio</mediatype>
						<trackindex>5</trackindex>
						<clipindex>18</clipindex>
						<groupindex>1</groupindex>
					</link>
					<link>
						<linkclipref>AUXMP_SCD043646_SPRING BREAK.wav4</linkclipref>
						<mediatype>audio</mediatype>
						<trackindex>6</trackindex>
						<clipindex>18</clipindex>
						<groupindex>1</groupindex>
					</link>
				</clipitem>
				<clipitem id="WHOOSHLARG…WHOOSHBYFS105302.WAV8">
					<name>WHOOSHLARG…WHOOSHBYFS105302.WAV</name>
					<duration>183</duration>
					<rate>
						<ntsc>FALSE</ntsc>
						<timebase>25</timebase>
					</rate>
					<in>0</in>
					<out>82</out>
					<start>24276</start>
					<end>24358</end>
					<subframeoffset>0</subframeoffset>
					<masterclipid>WHOOSHLARG…WHOOSHBYFS105302.WAV1</masterclipid>
					<logginginfo>
						<scene/>
						<shottake/>
						<lognote/>
						<good>FALSE</good>
					</logginginfo>
					<labels>
						<label2/>
					</labels>
					<comments>
						<mastercomment1/>
						<mastercomment2/>
						<mastercomment3/>
						<mastercomment4/>
					</comments>
					<file id="WHOOSHLARG…WHOOSHBYFS105302 "/>
					<filter>
						<effect>
							<name>Audio Levels</name>
							<effectid>audiolevels</effectid>
							<effectcategory>audiolevels</effectcategory>
							<effecttype>audiolevels</effecttype>
							<mediatype>audio</mediatype>
							<parameter>
								<name>Level</name>
								<parameterid>level</parameterid>
								<valuemin>0</valuemin>
								<valuemax>3.98109</valuemax>
								<value>0.251189</value>
							</parameter>
						</effect>
					</filter>
					<filter>
						<effect>
							<name>Audio Pan</name>
							<effectid>audiopan</effectid>
							<effectcategory>audiopan</effectcategory>
							<effecttype>audiopan</effecttype>
							<mediatype>audio</mediatype>
							<parameter>
								<name>Pan</name>
								<parameterid>pan</parameterid>
								<valuemin>-1</valuemin>
								<valuemax>1</valuemax>
								<value>1</value>
							</parameter>
						</effect>
					</filter>
					<sourcetrack>
						<mediatype>audio</mediatype>
						<trackindex>2</trackindex>
					</sourcetrack>
					<link>
						<linkclipref>WHOOSHLARG…WHOOSHBYFS105302.WAV7</linkclipref>
						<mediatype>audio</mediatype>
						<trackindex>5</trackindex>
						<clipindex>19</clipindex>
						<groupindex>1</groupindex>
					</link>
					<link>
						<linkclipref>WHOOSHLARG…WHOOSHBYFS105302.WAV8</linkclipref>
						<mediatype>audio</mediatype>
						<trackindex>6</trackindex>
						<clipindex>19</clipindex>
						<groupindex>1</groupindex>
					</link>
					<filter>
						<effect>
							<name>Time Remap</name>
							<effectid>timeremap</effectid>
							<effectcategory>motion</effectcategory>
							<effecttype>motion</effecttype>
							<mediatype>audio</mediatype>
							<parameter>
								<parameterid>variablespeed</parameterid>
								<name>variablespeed</name>
								<valuemin>0</valuemin>
								<valuemax>1</valuemax>
								<value>0</value>
							</parameter>
							<parameter>
								<parameterid>mappedduration</parameterid>
								<name>mappedduration</name>
								<value>
									<timecode>
										<rate>
											<timebase>0</timebase>
										</rate>
										<string>0</string>
										<frame>0</frame>
										<displayformat>NDF</displayformat>
									</timecode>
								</value>
							</parameter>
							<parameter>
								<parameterid>speed</parameterid>
								<name>speed</name>
								<valuemin>-10000</valuemin>
								<valuemax>10000</valuemax>
								<value>50</value>
							</parameter>
							<parameter>
								<parameterid>reverse</parameterid>
								<name>reverse</name>
								<value>FALSE</value>
							</parameter>
							<parameter>
								<parameterid>frameblending</parameterid>
								<name>frameblending</name>
								<value>TRUE</value>
							</parameter>
							<parameter>
								<parameterid>graphdict</parameterid>
								<name>graphdict</name>
								<valuemin>0</valuemin>
								<valuemax>91</valuemax>
								<keyframe>
									<when>0</when>
									<value>0.4999</value>
									<speedkfin>TRUE</speedkfin>
								</keyframe>
								<keyframe>
									<when>82</when>
									<value>41.4999</value>
									<speedkfout>TRUE</speedkfout>
									<speedvirtualkf>TRUE</speedvirtualkf>
								</keyframe>
								<keyframe>
									<when>183</when>
									<value>92.4999</value>
									<speedkfend>TRUE</speedkfend>
									<speedvirtualkf>TRUE</speedvirtualkf>
								</keyframe>
								<interpolation>
									<name>FCPCurve</name>
								</interpolation>
								<value>0.4999</value>
							</parameter>
						</effect>
					</filter>
				</clipitem>
				<clipitem id="SteinWipe Start på første frame.wav4">
					<name>SteinWipe Start på første frame.wav</name>
					<duration>31</duration>
					<rate>
						<ntsc>FALSE</ntsc>
						<timebase>25</timebase>
					</rate>
					<in>0</in>
					<out>31</out>
					<start>27480</start>
					<end>27511</end>
					<masterclipid>SteinWipe Start på første frame.wav1</masterclipid>
					<logginginfo>
						<scene/>
						<shottake/>
						<lognote/>
						<good>FALSE</good>
					</logginginfo>
					<labels>
						<label2/>
					</labels>
					<comments>
						<mastercomment1/>
						<mastercomment2/>
						<mastercomment3/>
						<mastercomment4/>
					</comments>
					<file id="SteinWipe Start på første frame"/>
					<filter>
						<effect>
							<name>Audio Levels</name>
							<effectid>audiolevels</effectid>
							<effectcategory>audiolevels</effectcategory>
							<effecttype>audiolevels</effecttype>
							<mediatype>audio</mediatype>
							<parameter>
								<name>Level</name>
								<parameterid>level</parameterid>
								<valuemin>0</valuemin>
								<valuemax>3.98109</valuemax>
								<value>1</value>
							</parameter>
						</effect>
					</filter>
					<filter>
						<effect>
							<name>Audio Pan</name>
							<effectid>audiopan</effectid>
							<effectcategory>audiopan</effectcategory>
							<effecttype>audiopan</effecttype>
							<mediatype>audio</mediatype>
							<parameter>
								<name>Pan</name>
								<parameterid>pan</parameterid>
								<valuemin>-1</valuemin>
								<valuemax>1</valuemax>
								<value>1</value>
							</parameter>
						</effect>
					</filter>
					<sourcetrack>
						<mediatype>audio</mediatype>
						<trackindex>2</trackindex>
					</sourcetrack>
					<link>
						<linkclipref>SteinWipe Start på første frame.wav3</linkclipref>
						<mediatype>audio</mediatype>
						<trackindex>5</trackindex>
						<clipindex>20</clipindex>
						<groupindex>1</groupindex>
					</link>
					<link>
						<linkclipref>SteinWipe Start på første frame.wav4</linkclipref>
						<mediatype>audio</mediatype>
						<trackindex>6</trackindex>
						<clipindex>20</clipindex>
						<groupindex>1</groupindex>
					</link>
				</clipitem>
				<enabled>TRUE</enabled>
				<locked>FALSE</locked>
				<outputchannelindex>2</outputchannelindex>
			</track>
			<track>
				<clipitem id="SPACEWHOO…HOOSHBYSI60404904.WAV5">
					<name>SPACEWHOO…HOOSHBYSI60404904.WAV</name>
					<duration>127</duration>
					<rate>
						<ntsc>FALSE</ntsc>
						<timebase>25</timebase>
					</rate>
					<in>8</in>
					<out>61</out>
					<start>512</start>
					<end>565</end>
					<subframeoffset>0</subframeoffset>
					<masterclipid>SPACEWHOO…HOOSHBYSI60404904.WAV1</masterclipid>
					<logginginfo>
						<scene/>
						<shottake/>
						<lognote/>
						<good>FALSE</good>
					</logginginfo>
					<labels>
						<label2/>
					</labels>
					<comments>
						<mastercomment1/>
						<mastercomment2/>
						<mastercomment3/>
						<mastercomment4/>
					</comments>
					<file id="SPACEWHOO…HOOSHBYSI60404904 "/>
					<filter>
						<effect>
							<name>Audio Levels</name>
							<effectid>audiolevels</effectid>
							<effectcategory>audiolevels</effectcategory>
							<effecttype>audiolevels</effecttype>
							<mediatype>audio</mediatype>
							<parameter>
								<name>Level</name>
								<parameterid>level</parameterid>
								<valuemin>0</valuemin>
								<valuemax>3.98109</valuemax>
								<value>0.446684</value>
							</parameter>
						</effect>
					</filter>
					<filter>
						<effect>
							<name>Audio Pan</name>
							<effectid>audiopan</effectid>
							<effectcategory>audiopan</effectcategory>
							<effecttype>audiopan</effecttype>
							<mediatype>audio</mediatype>
							<parameter>
								<name>Pan</name>
								<parameterid>pan</parameterid>
								<valuemin>-1</valuemin>
								<valuemax>1</valuemax>
								<value>-1</value>
							</parameter>
						</effect>
					</filter>
					<sourcetrack>
						<mediatype>audio</mediatype>
						<trackindex>1</trackindex>
					</sourcetrack>
					<link>
						<linkclipref>SPACEWHOO…HOOSHBYSI60404904.WAV5</linkclipref>
						<mediatype>audio</mediatype>
						<trackindex>7</trackindex>
						<clipindex>1</clipindex>
						<groupindex>1</groupindex>
					</link>
					<link>
						<linkclipref>SPACEWHOO…HOOSHBYSI60404904.WAV6</linkclipref>
						<mediatype>audio</mediatype>
						<trackindex>8</trackindex>
						<clipindex>1</clipindex>
						<groupindex>1</groupindex>
					</link>
				</clipitem>
				<clipitem id="SPACEWHOO…HOOSHBYSI60404904.WAV7">
					<name>SPACEWHOO…HOOSHBYSI60404904.WAV</name>
					<duration>127</duration>
					<rate>
						<ntsc>FALSE</ntsc>
						<timebase>25</timebase>
					</rate>
					<in>8</in>
					<out>61</out>
					<start>602</start>
					<end>655</end>
					<subframeoffset>0</subframeoffset>
					<masterclipid>SPACEWHOO…HOOSHBYSI60404904.WAV1</masterclipid>
					<logginginfo>
						<scene/>
						<shottake/>
						<lognote/>
						<good>FALSE</good>
					</logginginfo>
					<labels>
						<label2/>
					</labels>
					<comments>
						<mastercomment1/>
						<mastercomment2/>
						<mastercomment3/>
						<mastercomment4/>
					</comments>
					<file id="SPACEWHOO…HOOSHBYSI60404904 "/>
					<filter>
						<effect>
							<name>Audio Levels</name>
							<effectid>audiolevels</effectid>
							<effectcategory>audiolevels</effectcategory>
							<effecttype>audiolevels</effecttype>
							<mediatype>audio</mediatype>
							<parameter>
								<name>Level</name>
								<parameterid>level</parameterid>
								<valuemin>0</valuemin>
								<valuemax>3.98109</valuemax>
								<value>0.630957</value>
							</parameter>
						</effect>
					</filter>
					<filter>
						<effect>
							<name>Audio Pan</name>
							<effectid>audiopan</effectid>
							<effectcategory>audiopan</effectcategory>
							<effecttype>audiopan</effecttype>
							<mediatype>audio</mediatype>
							<parameter>
								<name>Pan</name>
								<parameterid>pan</parameterid>
								<valuemin>-1</valuemin>
								<valuemax>1</valuemax>
								<value>-1</value>
							</parameter>
						</effect>
					</filter>
					<sourcetrack>
						<mediatype>audio</mediatype>
						<trackindex>1</trackindex>
					</sourcetrack>
					<link>
						<linkclipref>SPACEWHOO…HOOSHBYSI60404904.WAV7</linkclipref>
						<mediatype>audio</mediatype>
						<trackindex>7</trackindex>
						<clipindex>2</clipindex>
						<groupindex>1</groupindex>
					</link>
					<link>
						<linkclipref>SPACEWHOO…HOOSHBYSI60404904.WAV8</linkclipref>
						<mediatype>audio</mediatype>
						<trackindex>8</trackindex>
						<clipindex>2</clipindex>
						<groupindex>1</groupindex>
					</link>
				</clipitem>
				<clipitem id="SPACEWHOO…HOOSHBYSI60404904.WAV9">
					<name>SPACEWHOO…HOOSHBYSI60404904.WAV</name>
					<duration>127</duration>
					<rate>
						<ntsc>FALSE</ntsc>
						<timebase>25</timebase>
					</rate>
					<in>8</in>
					<out>61</out>
					<start>701</start>
					<end>754</end>
					<subframeoffset>0</subframeoffset>
					<masterclipid>SPACEWHOO…HOOSHBYSI60404904.WAV1</masterclipid>
					<logginginfo>
						<scene/>
						<shottake/>
						<lognote/>
						<good>FALSE</good>
					</logginginfo>
					<labels>
						<label2/>
					</labels>
					<comments>
						<mastercomment1/>
						<mastercomment2/>
						<mastercomment3/>
						<mastercomment4/>
					</comments>
					<file id="SPACEWHOO…HOOSHBYSI60404904 "/>
					<filter>
						<effect>
							<name>Audio Levels</name>
							<effectid>audiolevels</effectid>
							<effectcategory>audiolevels</effectcategory>
							<effecttype>audiolevels</effecttype>
							<mediatype>audio</mediatype>
							<parameter>
								<name>Level</name>
								<parameterid>level</parameterid>
								<valuemin>0</valuemin>
								<valuemax>3.98109</valuemax>
								<value>0.446684</value>
							</parameter>
						</effect>
					</filter>
					<filter>
						<effect>
							<name>Audio Pan</name>
							<effectid>audiopan</effectid>
							<effectcategory>audiopan</effectcategory>
							<effecttype>audiopan</effecttype>
							<mediatype>audio</mediatype>
							<parameter>
								<name>Pan</name>
								<parameterid>pan</parameterid>
								<valuemin>-1</valuemin>
								<valuemax>1</valuemax>
								<value>-1</value>
							</parameter>
						</effect>
					</filter>
					<sourcetrack>
						<mediatype>audio</mediatype>
						<trackindex>1</trackindex>
					</sourcetrack>
					<link>
						<linkclipref>SPACEWHOO…HOOSHBYSI60404904.WAV9</linkclipref>
						<mediatype>audio</mediatype>
						<trackindex>7</trackindex>
						<clipindex>3</clipindex>
						<groupindex>1</groupindex>
					</link>
					<link>
						<linkclipref>SPACEWHOO…HOOSHBYSI60404904.WAV10</linkclipref>
						<mediatype>audio</mediatype>
						<trackindex>8</trackindex>
						<clipindex>3</clipindex>
						<groupindex>1</groupindex>
					</link>
				</clipitem>
				<clipitem id="SteinWipe Start på første frame.wav5">
					<name>SteinWipe Start på første frame.wav</name>
					<duration>31</duration>
					<rate>
						<ntsc>FALSE</ntsc>
						<timebase>25</timebase>
					</rate>
					<in>0</in>
					<out>31</out>
					<start>837</start>
					<end>868</end>
					<masterclipid>SteinWipe Start på første frame.wav1</masterclipid>
					<logginginfo>
						<scene/>
						<shottake/>
						<lognote/>
						<good>FALSE</good>
					</logginginfo>
					<labels>
						<label2/>
					</labels>
					<comments>
						<mastercomment1/>
						<mastercomment2/>
						<mastercomment3/>
						<mastercomment4/>
					</comments>
					<file id="SteinWipe Start på første frame"/>
					<filter>
						<effect>
							<name>Audio Levels</name>
							<effectid>audiolevels</effectid>
							<effectcategory>audiolevels</effectcategory>
							<effecttype>audiolevels</effecttype>
							<mediatype>audio</mediatype>
							<parameter>
								<name>Level</name>
								<parameterid>level</parameterid>
								<valuemin>0</valuemin>
								<valuemax>3.98109</valuemax>
								<value>1</value>
							</parameter>
						</effect>
					</filter>
					<filter>
						<effect>
							<name>Audio Pan</name>
							<effectid>audiopan</effectid>
							<effectcategory>audiopan</effectcategory>
							<effecttype>audiopan</effecttype>
							<mediatype>audio</mediatype>
							<parameter>
								<name>Pan</name>
								<parameterid>pan</parameterid>
								<valuemin>-1</valuemin>
								<valuemax>1</valuemax>
								<value>-1</value>
							</parameter>
						</effect>
					</filter>
					<sourcetrack>
						<mediatype>audio</mediatype>
						<trackindex>1</trackindex>
					</sourcetrack>
					<link>
						<linkclipref>SteinWipe Start på første frame.wav5</linkclipref>
						<mediatype>audio</mediatype>
						<trackindex>7</trackindex>
						<clipindex>4</clipindex>
						<groupindex>1</groupindex>
					</link>
					<link>
						<linkclipref>SteinWipe Start på første frame.wav6</linkclipref>
						<mediatype>audio</mediatype>
						<trackindex>8</trackindex>
						<clipindex>4</clipindex>
						<groupindex>1</groupindex>
					</link>
				</clipitem>
				<transitionitem id="33">
					<rate>
						<ntsc>FALSE</ntsc>
						<timebase>25</timebase>
					</rate>
					<start>3813</start>
					<end>3828</end>
					<alignment>start-black</alignment>
					<effect>
						<name>Cross Fade (+3dB)</name>
						<effecttype>transition</effecttype>
						<mediatype>audio</mediatype>
					</effect>
				</transitionitem>
				<clipitem id="525_0260_01_060a2b340101010501010d4313000000075a8173796005cf08004602022f05f5 ">
					<name>525_0260_01_060a2b340101010501010d4313000000075a8173796005cf08004602022f05f5</name>
					<duration>1878</duration>
					<rate>
						<ntsc>FALSE</ntsc>
						<timebase>25</timebase>
					</rate>
					<in>371</in>
					<out>457</out>
					<start>-1</start>
					<end>-1</end>
					<subframeoffset>0</subframeoffset>
					<masterclipid>525_0260_01_060a2b340101010501010d4313000000075a8173796005cf08004602022f05f5 1</masterclipid>
					<logginginfo>
						<scene/>
						<shottake/>
						<lognote/>
						<good>FALSE</good>
					</logginginfo>
					<labels>
						<label2/>
					</labels>
					<comments>
						<mastercomment1/>
						<mastercomment2/>
						<mastercomment3/>
						<mastercomment4/>
					</comments>
					<file id="525_0260_01_060a2b340101010501010d4313000000075a8173796005cf08004602022f05f5 2">
						<name>525_0260_01_060a2b340101010501010d4313000000075a8173796005cf08004602022f05f5.mov</name>
						<pathurl>file://localhost/Volumes/Askepott/Prosjekter/DNPR637010_Kra%CC%8Akeklubben_TEM_011212/Video/Bes%C3%B8ker%20Dyrebarn/Test/525_0260_01_060a2b340101010501010d4313000000075a8173796005cf08004602022f05f5.mov</pathurl>
						<rate>
							<timebase>25</timebase>
						</rate>
						<duration>1878</duration>
						<timecode>
							<rate>
								<timebase>25</timebase>
							</rate>
							<string>10:20:59:21</string>
							<frame>931496</frame>
							<displayformat>NDF</displayformat>
							<source>source</source>
							<reel>
								<name>Untitled</name>
							</reel>
						</timecode>
						<media>
							<video>
								<duration>1878</duration>
								<samplecharacteristics>
									<width>1920</width>
									<height>1080</height>
								</samplecharacteristics>
							</video>
							<audio>
								<rate>
									<timebase>48000</timebase>
								</rate>
								<trackcount>1</trackcount>
								<channeldescription>A1+A2</channeldescription>
								<samplecharacteristics>
									<depth>16</depth>
								</samplecharacteristics>
							</audio>
						</media>
					</file>
					<filter>
						<effect>
							<name>Audio Levels</name>
							<effectid>audiolevels</effectid>
							<effectcategory>audiolevels</effectcategory>
							<effecttype>audiolevels</effecttype>
							<mediatype>audio</mediatype>
							<parameter>
								<name>Level</name>
								<parameterid>level</parameterid>
								<valuemin>0</valuemin>
								<valuemax>3.98109</valuemax>
								<value>0.891251</value>
							</parameter>
						</effect>
					</filter>
					<filter>
						<effect>
							<name>Audio Pan</name>
							<effectid>audiopan</effectid>
							<effectcategory>audiopan</effectcategory>
							<effecttype>audiopan</effecttype>
							<mediatype>audio</mediatype>
							<parameter>
								<name>Pan</name>
								<parameterid>pan</parameterid>
								<valuemin>-1</valuemin>
								<valuemax>1</valuemax>
								<value>0</value>
							</parameter>
						</effect>
					</filter>
					<sourcetrack>
						<mediatype>audio</mediatype>
						<trackindex>1</trackindex>
					</sourcetrack>
				</clipitem>
				<transitionitem id="34">
					<rate>
						<ntsc>FALSE</ntsc>
						<timebase>25</timebase>
					</rate>
					<start>3884</start>
					<end>3899</end>
					<alignment>end-black</alignment>
					<effect>
						<name>Cross Fade (+3dB)</name>
						<effecttype>transition</effecttype>
						<mediatype>audio</mediatype>
					</effect>
				</transitionitem>
				<clipitem id="Tords Garasje Vignett Bare Effektlyder.wav">
					<name>Tords Garasje Vignett Bare Effektlyder.wav</name>
					<duration>304</duration>
					<rate>
						<ntsc>FALSE</ntsc>
						<timebase>25</timebase>
					</rate>
					<in>0</in>
					<out>257</out>
					<start>14756</start>
					<end>15013</end>
					<subframeoffset>0</subframeoffset>
					<enabled>TRUE</enabled>
					<masterclipid>Tords Garasje Vignett Bare Effektlyder.wav1</masterclipid>
					<logginginfo>
						<scene/>
						<shottake/>
						<lognote/>
						<good>FALSE</good>
					</logginginfo>
					<labels>
						<label2/>
					</labels>
					<comments>
						<mastercomment1/>
						<mastercomment2/>
						<mastercomment3/>
						<mastercomment4/>
					</comments>
					<file id="Tords Garasje Vignett Bare Effektlyder">
						<name>Tords Garasje Vignett Bare Effektlyder.wav</name>
						<pathurl>file://localhost/Volumes/Askepott/Prosjekter/DNPR637010_Kra%CC%8Akeklubben_TEM_011212/Lyd/Nedmiks%20Alle/Vignetter%20og%20Bumpere%20Diverse/Tords%20Garasje%20Vignett%20Bare%20Effektlyder.wav</pathurl>
						<rate>
							<timebase>25</timebase>
						</rate>
						<duration>304</duration>
						<timecode>
							<rate>
								<timebase>25</timebase>
							</rate>
							<string>00:00:51:06</string>
							<frame>1281</frame>
							<displayformat>NDF</displayformat>
							<source>source</source>
						</timecode>
						<media>
							<audio>
								<rate>
									<timebase>48000</timebase>
								</rate>
								<trackcount>2</trackcount>
								<samplecharacteristics>
									<depth>24</depth>
								</samplecharacteristics>
							</audio>
						</media>
					</file>
					<filter>
						<effect>
							<name>Audio Levels</name>
							<effectid>audiolevels</effectid>
							<effectcategory>audiolevels</effectcategory>
							<effecttype>audiolevels</effecttype>
							<mediatype>audio</mediatype>
							<parameter>
								<name>Level</name>
								<parameterid>level</parameterid>
								<valuemin>0</valuemin>
								<valuemax>3.98109</valuemax>
								<value>0.562341</value>
							</parameter>
						</effect>
					</filter>
					<filter>
						<effect>
							<name>Audio Pan</name>
							<effectid>audiopan</effectid>
							<effectcategory>audiopan</effectcategory>
							<effecttype>audiopan</effecttype>
							<mediatype>audio</mediatype>
							<parameter>
								<name>Pan</name>
								<parameterid>pan</parameterid>
								<valuemin>-1</valuemin>
								<valuemax>1</valuemax>
								<value>-1</value>
							</parameter>
						</effect>
					</filter>
					<sourcetrack>
						<mediatype>audio</mediatype>
						<trackindex>1</trackindex>
					</sourcetrack>
					<link>
						<linkclipref>Tords Garasje Vignett Bare Effektlyder.wav</linkclipref>
						<mediatype>audio</mediatype>
						<trackindex>7</trackindex>
						<clipindex>8</clipindex>
						<groupindex>1</groupindex>
					</link>
					<link>
						<linkclipref>Tords Garasje Vignett Bare Effektlyder.wav2</linkclipref>
						<mediatype>audio</mediatype>
						<trackindex>8</trackindex>
						<clipindex>5</clipindex>
						<groupindex>1</groupindex>
					</link>
				</clipitem>
				<enabled>TRUE</enabled>
				<locked>FALSE</locked>
				<outputchannelindex>1</outputchannelindex>
			</track>
			<track>
				<clipitem id="SPACEWHOO…HOOSHBYSI60404904.WAV6">
					<name>SPACEWHOO…HOOSHBYSI60404904.WAV</name>
					<duration>127</duration>
					<rate>
						<ntsc>FALSE</ntsc>
						<timebase>25</timebase>
					</rate>
					<in>8</in>
					<out>61</out>
					<start>512</start>
					<end>565</end>
					<subframeoffset>0</subframeoffset>
					<masterclipid>SPACEWHOO…HOOSHBYSI60404904.WAV1</masterclipid>
					<logginginfo>
						<scene/>
						<shottake/>
						<lognote/>
						<good>FALSE</good>
					</logginginfo>
					<labels>
						<label2/>
					</labels>
					<comments>
						<mastercomment1/>
						<mastercomment2/>
						<mastercomment3/>
						<mastercomment4/>
					</comments>
					<file id="SPACEWHOO…HOOSHBYSI60404904 "/>
					<filter>
						<effect>
							<name>Audio Levels</name>
							<effectid>audiolevels</effectid>
							<effectcategory>audiolevels</effectcategory>
							<effecttype>audiolevels</effecttype>
							<mediatype>audio</mediatype>
							<parameter>
								<name>Level</name>
								<parameterid>level</parameterid>
								<valuemin>0</valuemin>
								<valuemax>3.98109</valuemax>
								<value>0.446684</value>
							</parameter>
						</effect>
					</filter>
					<filter>
						<effect>
							<name>Audio Pan</name>
							<effectid>audiopan</effectid>
							<effectcategory>audiopan</effectcategory>
							<effecttype>audiopan</effecttype>
							<mediatype>audio</mediatype>
							<parameter>
								<name>Pan</name>
								<parameterid>pan</parameterid>
								<valuemin>-1</valuemin>
								<valuemax>1</valuemax>
								<value>1</value>
							</parameter>
						</effect>
					</filter>
					<sourcetrack>
						<mediatype>audio</mediatype>
						<trackindex>2</trackindex>
					</sourcetrack>
					<link>
						<linkclipref>SPACEWHOO…HOOSHBYSI60404904.WAV5</linkclipref>
						<mediatype>audio</mediatype>
						<trackindex>7</trackindex>
						<clipindex>1</clipindex>
						<groupindex>1</groupindex>
					</link>
					<link>
						<linkclipref>SPACEWHOO…HOOSHBYSI60404904.WAV6</linkclipref>
						<mediatype>audio</mediatype>
						<trackindex>8</trackindex>
						<clipindex>1</clipindex>
						<groupindex>1</groupindex>
					</link>
				</clipitem>
				<clipitem id="SPACEWHOO…HOOSHBYSI60404904.WAV8">
					<name>SPACEWHOO…HOOSHBYSI60404904.WAV</name>
					<duration>127</duration>
					<rate>
						<ntsc>FALSE</ntsc>
						<timebase>25</timebase>
					</rate>
					<in>8</in>
					<out>61</out>
					<start>602</start>
					<end>655</end>
					<subframeoffset>0</subframeoffset>
					<masterclipid>SPACEWHOO…HOOSHBYSI60404904.WAV1</masterclipid>
					<logginginfo>
						<scene/>
						<shottake/>
						<lognote/>
						<good>FALSE</good>
					</logginginfo>
					<labels>
						<label2/>
					</labels>
					<comments>
						<mastercomment1/>
						<mastercomment2/>
						<mastercomment3/>
						<mastercomment4/>
					</comments>
					<file id="SPACEWHOO…HOOSHBYSI60404904 "/>
					<filter>
						<effect>
							<name>Audio Levels</name>
							<effectid>audiolevels</effectid>
							<effectcategory>audiolevels</effectcategory>
							<effecttype>audiolevels</effecttype>
							<mediatype>audio</mediatype>
							<parameter>
								<name>Level</name>
								<parameterid>level</parameterid>
								<valuemin>0</valuemin>
								<valuemax>3.98109</valuemax>
								<value>0.630957</value>
							</parameter>
						</effect>
					</filter>
					<filter>
						<effect>
							<name>Audio Pan</name>
							<effectid>audiopan</effectid>
							<effectcategory>audiopan</effectcategory>
							<effecttype>audiopan</effecttype>
							<mediatype>audio</mediatype>
							<parameter>
								<name>Pan</name>
								<parameterid>pan</parameterid>
								<valuemin>-1</valuemin>
								<valuemax>1</valuemax>
								<value>1</value>
							</parameter>
						</effect>
					</filter>
					<sourcetrack>
						<mediatype>audio</mediatype>
						<trackindex>2</trackindex>
					</sourcetrack>
					<link>
						<linkclipref>SPACEWHOO…HOOSHBYSI60404904.WAV7</linkclipref>
						<mediatype>audio</mediatype>
						<trackindex>7</trackindex>
						<clipindex>2</clipindex>
						<groupindex>1</groupindex>
					</link>
					<link>
						<linkclipref>SPACEWHOO…HOOSHBYSI60404904.WAV8</linkclipref>
						<mediatype>audio</mediatype>
						<trackindex>8</trackindex>
						<clipindex>2</clipindex>
						<groupindex>1</groupindex>
					</link>
				</clipitem>
				<clipitem id="SPACEWHOO…HOOSHBYSI60404904.WAV10">
					<name>SPACEWHOO…HOOSHBYSI60404904.WAV</name>
					<duration>127</duration>
					<rate>
						<ntsc>FALSE</ntsc>
						<timebase>25</timebase>
					</rate>
					<in>8</in>
					<out>61</out>
					<start>701</start>
					<end>754</end>
					<subframeoffset>0</subframeoffset>
					<masterclipid>SPACEWHOO…HOOSHBYSI60404904.WAV1</masterclipid>
					<logginginfo>
						<scene/>
						<shottake/>
						<lognote/>
						<good>FALSE</good>
					</logginginfo>
					<labels>
						<label2/>
					</labels>
					<comments>
						<mastercomment1/>
						<mastercomment2/>
						<mastercomment3/>
						<mastercomment4/>
					</comments>
					<file id="SPACEWHOO…HOOSHBYSI60404904 "/>
					<filter>
						<effect>
							<name>Audio Levels</name>
							<effectid>audiolevels</effectid>
							<effectcategory>audiolevels</effectcategory>
							<effecttype>audiolevels</effecttype>
							<mediatype>audio</mediatype>
							<parameter>
								<name>Level</name>
								<parameterid>level</parameterid>
								<valuemin>0</valuemin>
								<valuemax>3.98109</valuemax>
								<value>0.446684</value>
							</parameter>
						</effect>
					</filter>
					<filter>
						<effect>
							<name>Audio Pan</name>
							<effectid>audiopan</effectid>
							<effectcategory>audiopan</effectcategory>
							<effecttype>audiopan</effecttype>
							<mediatype>audio</mediatype>
							<parameter>
								<name>Pan</name>
								<parameterid>pan</parameterid>
								<valuemin>-1</valuemin>
								<valuemax>1</valuemax>
								<value>1</value>
							</parameter>
						</effect>
					</filter>
					<sourcetrack>
						<mediatype>audio</mediatype>
						<trackindex>2</trackindex>
					</sourcetrack>
					<link>
						<linkclipref>SPACEWHOO…HOOSHBYSI60404904.WAV9</linkclipref>
						<mediatype>audio</mediatype>
						<trackindex>7</trackindex>
						<clipindex>3</clipindex>
						<groupindex>1</groupindex>
					</link>
					<link>
						<linkclipref>SPACEWHOO…HOOSHBYSI60404904.WAV10</linkclipref>
						<mediatype>audio</mediatype>
						<trackindex>8</trackindex>
						<clipindex>3</clipindex>
						<groupindex>1</groupindex>
					</link>
				</clipitem>
				<clipitem id="SteinWipe Start på første frame.wav6">
					<name>SteinWipe Start på første frame.wav</name>
					<duration>31</duration>
					<rate>
						<ntsc>FALSE</ntsc>
						<timebase>25</timebase>
					</rate>
					<in>0</in>
					<out>31</out>
					<start>837</start>
					<end>868</end>
					<masterclipid>SteinWipe Start på første frame.wav1</masterclipid>
					<logginginfo>
						<scene/>
						<shottake/>
						<lognote/>
						<good>FALSE</good>
					</logginginfo>
					<labels>
						<label2/>
					</labels>
					<comments>
						<mastercomment1/>
						<mastercomment2/>
						<mastercomment3/>
						<mastercomment4/>
					</comments>
					<file id="SteinWipe Start på første frame"/>
					<filter>
						<effect>
							<name>Audio Levels</name>
							<effectid>audiolevels</effectid>
							<effectcategory>audiolevels</effectcategory>
							<effecttype>audiolevels</effecttype>
							<mediatype>audio</mediatype>
							<parameter>
								<name>Level</name>
								<parameterid>level</parameterid>
								<valuemin>0</valuemin>
								<valuemax>3.98109</valuemax>
								<value>1</value>
							</parameter>
						</effect>
					</filter>
					<filter>
						<effect>
							<name>Audio Pan</name>
							<effectid>audiopan</effectid>
							<effectcategory>audiopan</effectcategory>
							<effecttype>audiopan</effecttype>
							<mediatype>audio</mediatype>
							<parameter>
								<name>Pan</name>
								<parameterid>pan</parameterid>
								<valuemin>-1</valuemin>
								<valuemax>1</valuemax>
								<value>1</value>
							</parameter>
						</effect>
					</filter>
					<sourcetrack>
						<mediatype>audio</mediatype>
						<trackindex>2</trackindex>
					</sourcetrack>
					<link>
						<linkclipref>SteinWipe Start på første frame.wav5</linkclipref>
						<mediatype>audio</mediatype>
						<trackindex>7</trackindex>
						<clipindex>4</clipindex>
						<groupindex>1</groupindex>
					</link>
					<link>
						<linkclipref>SteinWipe Start på første frame.wav6</linkclipref>
						<mediatype>audio</mediatype>
						<trackindex>8</trackindex>
						<clipindex>4</clipindex>
						<groupindex>1</groupindex>
					</link>
				</clipitem>
				<clipitem id="Tords Garasje Vignett Bare Effektlyder.wav2">
					<name>Tords Garasje Vignett Bare Effektlyder.wav</name>
					<duration>304</duration>
					<rate>
						<ntsc>FALSE</ntsc>
						<timebase>25</timebase>
					</rate>
					<in>0</in>
					<out>257</out>
					<start>14756</start>
					<end>15013</end>
					<subframeoffset>0</subframeoffset>
					<enabled>TRUE</enabled>
					<masterclipid>Tords Garasje Vignett Bare Effektlyder.wav1</masterclipid>
					<logginginfo>
						<scene/>
						<shottake/>
						<lognote/>
						<good>FALSE</good>
					</logginginfo>
					<labels>
						<label2/>
					</labels>
					<comments>
						<mastercomment1/>
						<mastercomment2/>
						<mastercomment3/>
						<mastercomment4/>
					</comments>
					<file id="Tords Garasje Vignett Bare Effektlyder"/>
					<filter>
						<effect>
							<name>Audio Levels</name>
							<effectid>audiolevels</effectid>
							<effectcategory>audiolevels</effectcategory>
							<effecttype>audiolevels</effecttype>
							<mediatype>audio</mediatype>
							<parameter>
								<name>Level</name>
								<parameterid>level</parameterid>
								<valuemin>0</valuemin>
								<valuemax>3.98109</valuemax>
								<value>0.562341</value>
							</parameter>
						</effect>
					</filter>
					<filter>
						<effect>
							<name>Audio Pan</name>
							<effectid>audiopan</effectid>
							<effectcategory>audiopan</effectcategory>
							<effecttype>audiopan</effecttype>
							<mediatype>audio</mediatype>
							<parameter>
								<name>Pan</name>
								<parameterid>pan</parameterid>
								<valuemin>-1</valuemin>
								<valuemax>1</valuemax>
								<value>1</value>
							</parameter>
						</effect>
					</filter>
					<sourcetrack>
						<mediatype>audio</mediatype>
						<trackindex>2</trackindex>
					</sourcetrack>
					<link>
						<linkclipref>Tords Garasje Vignett Bare Effektlyder.wav</linkclipref>
						<mediatype>audio</mediatype>
						<trackindex>7</trackindex>
						<clipindex>8</clipindex>
						<groupindex>1</groupindex>
					</link>
					<link>
						<linkclipref>Tords Garasje Vignett Bare Effektlyder.wav2</linkclipref>
						<mediatype>audio</mediatype>
						<trackindex>8</trackindex>
						<clipindex>5</clipindex>
						<groupindex>1</groupindex>
					</link>
				</clipitem>
				<enabled>TRUE</enabled>
				<locked>FALSE</locked>
				<outputchannelindex>2</outputchannelindex>
			</track>
			<track>
				<clipitem id="WHOOSHLARG…WHOOSHBYFS105302.WAV9">
					<name>WHOOSHLARG…WHOOSHBYFS105302.WAV</name>
					<duration>454</duration>
					<rate>
						<ntsc>FALSE</ntsc>
						<timebase>25</timebase>
					</rate>
					<in>2</in>
					<out>135</out>
					<start>14892</start>
					<end>15025</end>
					<subframeoffset>0</subframeoffset>
					<enabled>TRUE</enabled>
					<masterclipid>WHOOSHLARG…WHOOSHBYFS105302.WAV1</masterclipid>
					<logginginfo>
						<scene/>
						<shottake/>
						<lognote/>
						<good>FALSE</good>
					</logginginfo>
					<labels>
						<label2/>
					</labels>
					<comments>
						<mastercomment1/>
						<mastercomment2/>
						<mastercomment3/>
						<mastercomment4/>
					</comments>
					<file id="WHOOSHLARG…WHOOSHBYFS105302 "/>
					<filter>
						<effect>
							<name>Audio Levels</name>
							<effectid>audiolevels</effectid>
							<effectcategory>audiolevels</effectcategory>
							<effecttype>audiolevels</effecttype>
							<mediatype>audio</mediatype>
							<parameter>
								<name>Level</name>
								<parameterid>level</parameterid>
								<valuemin>0</valuemin>
								<valuemax>3.98109</valuemax>
								<keyframe>
									<when>84</when>
									<value>0.794328</value>
								</keyframe>
								<interpolation>
									<name>FCPCurve</name>
								</interpolation>
								<value>0.281838</value>
							</parameter>
						</effect>
					</filter>
					<filter>
						<effect>
							<name>Audio Pan</name>
							<effectid>audiopan</effectid>
							<effectcategory>audiopan</effectcategory>
							<effecttype>audiopan</effecttype>
							<mediatype>audio</mediatype>
							<parameter>
								<name>Pan</name>
								<parameterid>pan</parameterid>
								<valuemin>-1</valuemin>
								<valuemax>1</valuemax>
								<value>-1</value>
							</parameter>
						</effect>
					</filter>
					<sourcetrack>
						<mediatype>audio</mediatype>
						<trackindex>1</trackindex>
					</sourcetrack>
					<link>
						<linkclipref>WHOOSHLARG…WHOOSHBYFS105302.WAV9</linkclipref>
						<mediatype>audio</mediatype>
						<trackindex>9</trackindex>
						<clipindex>1</clipindex>
						<groupindex>1</groupindex>
					</link>
					<link>
						<linkclipref>WHOOSHLARG…WHOOSHBYFS105302.WAV10</linkclipref>
						<mediatype>audio</mediatype>
						<trackindex>10</trackindex>
						<clipindex>1</clipindex>
						<groupindex>1</groupindex>
					</link>
					<filter>
						<effect>
							<name>Time Remap</name>
							<effectid>timeremap</effectid>
							<effectcategory>motion</effectcategory>
							<effecttype>motion</effecttype>
							<mediatype>audio</mediatype>
							<parameter>
								<parameterid>variablespeed</parameterid>
								<name>variablespeed</name>
								<valuemin>0</valuemin>
								<valuemax>1</valuemax>
								<value>0</value>
							</parameter>
							<parameter>
								<parameterid>mappedduration</parameterid>
								<name>mappedduration</name>
								<value>
									<timecode>
										<rate>
											<timebase>0</timebase>
										</rate>
										<string>0</string>
										<frame>0</frame>
										<displayformat>NDF</displayformat>
									</timecode>
								</value>
							</parameter>
							<parameter>
								<parameterid>speed</parameterid>
								<name>speed</name>
								<valuemin>-10000</valuemin>
								<valuemax>10000</valuemax>
								<value>20</value>
							</parameter>
							<parameter>
								<parameterid>reverse</parameterid>
								<name>reverse</name>
								<value>FALSE</value>
							</parameter>
							<parameter>
								<parameterid>frameblending</parameterid>
								<name>frameblending</name>
								<value>TRUE</value>
							</parameter>
							<parameter>
								<parameterid>graphdict</parameterid>
								<name>graphdict</name>
								<valuemin>0</valuemin>
								<valuemax>91</valuemax>
								<keyframe>
									<when>0</when>
									<value>0.0981</value>
									<speedkfstart>TRUE</speedkfstart>
									<speedvirtualkf>TRUE</speedvirtualkf>
								</keyframe>
								<keyframe>
									<when>2</when>
									<value>0.499866</value>
									<speedkfin>TRUE</speedkfin>
									<speedvirtualkf>TRUE</speedvirtualkf>
								</keyframe>
								<keyframe>
									<when>135</when>
									<value>27.2173</value>
									<speedkfout>TRUE</speedkfout>
									<speedvirtualkf>TRUE</speedvirtualkf>
								</keyframe>
								<keyframe>
									<when>454</when>
									<value>92.0981</value>
									<speedkfend>TRUE</speedkfend>
									<speedvirtualkf>TRUE</speedvirtualkf>
								</keyframe>
								<interpolation>
									<name>FCPCurve</name>
								</interpolation>
								<value>0.499866</value>
							</parameter>
						</effect>
					</filter>
				</clipitem>
				<enabled>TRUE</enabled>
				<locked>FALSE</locked>
				<outputchannelindex>1</outputchannelindex>
			</track>
			<track>
				<clipitem id="WHOOSHLARG…WHOOSHBYFS105302.WAV10">
					<name>WHOOSHLARG…WHOOSHBYFS105302.WAV</name>
					<duration>454</duration>
					<rate>
						<ntsc>FALSE</ntsc>
						<timebase>25</timebase>
					</rate>
					<in>2</in>
					<out>135</out>
					<start>14892</start>
					<end>15025</end>
					<subframeoffset>0</subframeoffset>
					<enabled>TRUE</enabled>
					<masterclipid>WHOOSHLARG…WHOOSHBYFS105302.WAV1</masterclipid>
					<logginginfo>
						<scene/>
						<shottake/>
						<lognote/>
						<good>FALSE</good>
					</logginginfo>
					<labels>
						<label2/>
					</labels>
					<comments>
						<mastercomment1/>
						<mastercomment2/>
						<mastercomment3/>
						<mastercomment4/>
					</comments>
					<file id="WHOOSHLARG…WHOOSHBYFS105302 "/>
					<filter>
						<effect>
							<name>Audio Levels</name>
							<effectid>audiolevels</effectid>
							<effectcategory>audiolevels</effectcategory>
							<effecttype>audiolevels</effecttype>
							<mediatype>audio</mediatype>
							<parameter>
								<name>Level</name>
								<parameterid>level</parameterid>
								<valuemin>0</valuemin>
								<valuemax>3.98109</valuemax>
								<keyframe>
									<when>84</when>
									<value>0.794328</value>
								</keyframe>
								<interpolation>
									<name>FCPCurve</name>
								</interpolation>
								<value>0.281838</value>
							</parameter>
						</effect>
					</filter>
					<filter>
						<effect>
							<name>Audio Pan</name>
							<effectid>audiopan</effectid>
							<effectcategory>audiopan</effectcategory>
							<effecttype>audiopan</effecttype>
							<mediatype>audio</mediatype>
							<parameter>
								<name>Pan</name>
								<parameterid>pan</parameterid>
								<valuemin>-1</valuemin>
								<valuemax>1</valuemax>
								<value>1</value>
							</parameter>
						</effect>
					</filter>
					<sourcetrack>
						<mediatype>audio</mediatype>
						<trackindex>2</trackindex>
					</sourcetrack>
					<link>
						<linkclipref>WHOOSHLARG…WHOOSHBYFS105302.WAV9</linkclipref>
						<mediatype>audio</mediatype>
						<trackindex>9</trackindex>
						<clipindex>1</clipindex>
						<groupindex>1</groupindex>
					</link>
					<link>
						<linkclipref>WHOOSHLARG…WHOOSHBYFS105302.WAV10</linkclipref>
						<mediatype>audio</mediatype>
						<trackindex>10</trackindex>
						<clipindex>1</clipindex>
						<groupindex>1</groupindex>
					</link>
					<filter>
						<effect>
							<name>Time Remap</name>
							<effectid>timeremap</effectid>
							<effectcategory>motion</effectcategory>
							<effecttype>motion</effecttype>
							<mediatype>audio</mediatype>
							<parameter>
								<parameterid>variablespeed</parameterid>
								<name>variablespeed</name>
								<valuemin>0</valuemin>
								<valuemax>1</valuemax>
								<value>0</value>
							</parameter>
							<parameter>
								<parameterid>mappedduration</parameterid>
								<name>mappedduration</name>
								<value>
									<timecode>
										<rate>
											<timebase>0</timebase>
										</rate>
										<string>0</string>
										<frame>0</frame>
										<displayformat>NDF</displayformat>
									</timecode>
								</value>
							</parameter>
							<parameter>
								<parameterid>speed</parameterid>
								<name>speed</name>
								<valuemin>-10000</valuemin>
								<valuemax>10000</valuemax>
								<value>20</value>
							</parameter>
							<parameter>
								<parameterid>reverse</parameterid>
								<name>reverse</name>
								<value>FALSE</value>
							</parameter>
							<parameter>
								<parameterid>frameblending</parameterid>
								<name>frameblending</name>
								<value>TRUE</value>
							</parameter>
							<parameter>
								<parameterid>graphdict</parameterid>
								<name>graphdict</name>
								<valuemin>0</valuemin>
								<valuemax>91</valuemax>
								<keyframe>
									<when>0</when>
									<value>0.0981</value>
									<speedkfstart>TRUE</speedkfstart>
									<speedvirtualkf>TRUE</speedvirtualkf>
								</keyframe>
								<keyframe>
									<when>2</when>
									<value>0.499866</value>
									<speedkfin>TRUE</speedkfin>
									<speedvirtualkf>TRUE</speedvirtualkf>
								</keyframe>
								<keyframe>
									<when>135</when>
									<value>27.2173</value>
									<speedkfout>TRUE</speedkfout>
									<speedvirtualkf>TRUE</speedvirtualkf>
								</keyframe>
								<keyframe>
									<when>454</when>
									<value>92.0981</value>
									<speedkfend>TRUE</speedkfend>
									<speedvirtualkf>TRUE</speedvirtualkf>
								</keyframe>
								<interpolation>
									<name>FCPCurve</name>
								</interpolation>
								<value>0.499866</value>
							</parameter>
						</effect>
					</filter>
				</clipitem>
				<enabled>TRUE</enabled>
				<locked>FALSE</locked>
				<outputchannelindex>2</outputchannelindex>
			</track>
		</audio>
	</media>
	<ismasterclip>FALSE</ismasterclip>
	<labels>
		<label>Best Take</label>
	</labels>
</sequence>
</xmeml>


