<?xml version="1.0" encoding="UTF-8"?>
<!DOCTYPE xmeml>
<xmeml version="4">
	<sequence id="sequence-51" TL.SQAudioVisibleBase="0" TL.SQVideoVisibleBase="0" TL.SQVisibleBaseTime="0" TL.SQAVDividerPosition="0.238461539149" TL.SQHideShyTracks="0" TL.SQHeaderWidth="184" Monitor.ProgramZoomOut="156433213440000" Monitor.ProgramZoomIn="135847756800000" TL.SQTimePerPixel="0.85623435541884152" AM.TrackVScrollPosition="0" AM.TrackScrollPosition="0" MZ.EditLine="156433213440000" MZ.Sequence.PreviewFrameSizeHeight="1080" MZ.Sequence.PreviewFrameSizeWidth="1920" MZ.Sequence.AudioTimeDisplayFormat="200" MZ.Sequence.PreviewRenderingClassID="1297106761" MZ.Sequence.PreviewRenderingPresetCodec="1297107278" MZ.Sequence.PreviewRenderingPresetPath="EncoderPresets/SequencePreview/bcb27263-0b7a-406f-bda9-3d3796f18c3a/I-Frame Only MPEG.epr" MZ.Sequence.PreviewUseMaxRenderQuality="false" MZ.Sequence.PreviewUseMaxBitDepth="false" MZ.Sequence.EditingModeGUID="bcb27263-0b7a-406f-bda9-3d3796f18c3a" MZ.Sequence.VideoTimeDisplayFormat="101" MZ.WorkOutPoint="156433213440000" MZ.WorkInPoint="0" explodedTracks="true">
		<uuid>768028ac-f730-4970-a6e8-e4bc630d1f39</uuid>
		<duration>15396</duration>
		<rate>
			<timebase>25</timebase>
			<ntsc>FALSE</ntsc>
		</rate>
		<name>tomat master v4</name>
		<media>
			<video>
				<format>
					<samplecharacteristics>
						<rate>
							<timebase>25</timebase>
							<ntsc>FALSE</ntsc>
						</rate>
						<codec>
							<name>Apple ProRes 422</name>
							<appspecificdata>
								<appname>Final Cut Pro</appname>
								<appmanufacturer>Apple Inc.</appmanufacturer>
								<appversion>7.0</appversion>
								<data>
									<qtcodec>
										<codecname>Apple ProRes 422</codecname>
										<codectypename>Apple ProRes 422</codectypename>
										<codectypecode>apcn</codectypecode>
										<codecvendorcode>appl</codecvendorcode>
										<spatialquality>1024</spatialquality>
										<temporalquality>0</temporalquality>
										<keyframerate>0</keyframerate>
										<datarate>0</datarate>
									</qtcodec>
								</data>
							</appspecificdata>
						</codec>
						<width>1920</width>
						<height>1080</height>
						<anamorphic>FALSE</anamorphic>
						<pixelaspectratio>square</pixelaspectratio>
						<fielddominance>upper</fielddominance>
						<colordepth>24</colordepth>
					</samplecharacteristics>
				</format>
				<track TL.SQTrackShy="0" TL.SQTrackExpandedHeight="30" TL.SQTrackExpanded="1" MZ.TrackTargeted="1">
					<clipitem id="clipitem-967" frameBlend="FALSE">
						<masterclipid>masterclip-257</masterclipid>
						<name>Valget er ditt.mov</name>
						<enabled>TRUE</enabled>
						<duration>1977</duration>
						<rate>
							<timebase>25</timebase>
							<ntsc>FALSE</ntsc>
						</rate>
						<start>0</start>
						<end>80</end>
						<in>1547</in>
						<out>1627</out>
						<pproTicksIn>15718510080000</pproTicksIn>
						<pproTicksOut>16531361280000</pproTicksOut>
						<alphatype>none</alphatype>
						<pixelaspectratio>square</pixelaspectratio>
						<anamorphic>FALSE</anamorphic>
						<file id="file-247">
							<name>Valget er ditt.mov</name>
							<pathurl>file://localhost/Volumes/Brakka/AdobeLager/Katta/Katta-16xxxx-Klimabloffen-Chris/02-Video/youtube/Valget%20er%20ditt.mov</pathurl>
							<rate>
								<timebase>25</timebase>
								<ntsc>FALSE</ntsc>
							</rate>
							<duration>1977</duration>
							<timecode>
								<rate>
									<timebase>25</timebase>
									<ntsc>FALSE</ntsc>
								</rate>
								<string>00:00:00:00</string>
								<frame>0</frame>
								<displayformat>NDF</displayformat>
								<reel>
									<name></name>
								</reel>
							</timecode>
							<media>
								<video>
									<samplecharacteristics>
										<rate>
											<timebase>25</timebase>
											<ntsc>FALSE</ntsc>
										</rate>
										<width>1920</width>
										<height>1080</height>
										<anamorphic>FALSE</anamorphic>
										<pixelaspectratio>square</pixelaspectratio>
										<fielddominance>lower</fielddominance>
									</samplecharacteristics>
								</video>
								<audio>
									<samplecharacteristics>
										<depth>16</depth>
										<samplerate>48000</samplerate>
									</samplecharacteristics>
									<channelcount>2</channelcount>
								</audio>
							</media>
						</file>
						<link>
							<linkclipref>clipitem-967</linkclipref>
							<mediatype>video</mediatype>
							<trackindex>1</trackindex>
							<clipindex>1</clipindex>
						</link>
						<link>
							<linkclipref>clipitem-1406</linkclipref>
							<mediatype>audio</mediatype>
							<trackindex>5</trackindex>
							<clipindex>1</clipindex>
							<groupindex>1</groupindex>
						</link>
						<link>
							<linkclipref>clipitem-1411</linkclipref>
							<mediatype>audio</mediatype>
							<trackindex>6</trackindex>
							<clipindex>1</clipindex>
							<groupindex>1</groupindex>
						</link>
						<logginginfo>
							<description></description>
							<scene></scene>
							<shottake></shottake>
							<lognote></lognote>
						</logginginfo>
						<labels>
							<label2>Iris</label2>
						</labels>
					</clipitem>
					<clipitem id="clipitem-968" frameBlend="FALSE">
						<masterclipid>masterclip-258</masterclipid>
						<name>Tenk nytt! Lag mer gr_nnsaker til middagen..mov</name>
						<enabled>TRUE</enabled>
						<duration>1274</duration>
						<rate>
							<timebase>25</timebase>
							<ntsc>FALSE</ntsc>
						</rate>
						<start>80</start>
						<end>257</end>
						<in>984</in>
						<out>1161</out>
						<pproTicksIn>9998069760000</pproTicksIn>
						<pproTicksOut>11796503040000</pproTicksOut>
						<alphatype>none</alphatype>
						<pixelaspectratio>square</pixelaspectratio>
						<anamorphic>FALSE</anamorphic>
						<file id="file-248">
							<name>Tenk nytt! Lag mer gr_nnsaker til middagen..mov</name>
							<pathurl>file://localhost/Volumes/Brakka/AdobeLager/Katta/Katta-16xxxx-Klimabloffen-Chris/02-Video/youtube/Tenk%20nytt!%20Lag%20mer%20gr_nnsaker%20til%20middagen..mov</pathurl>
							<rate>
								<timebase>25</timebase>
								<ntsc>FALSE</ntsc>
							</rate>
							<duration>1274</duration>
							<timecode>
								<rate>
									<timebase>25</timebase>
									<ntsc>FALSE</ntsc>
								</rate>
								<string>00:00:00:00</string>
								<frame>0</frame>
								<displayformat>NDF</displayformat>
								<reel>
									<name></name>
								</reel>
							</timecode>
							<media>
								<video>
									<samplecharacteristics>
										<rate>
											<timebase>25</timebase>
											<ntsc>FALSE</ntsc>
										</rate>
										<width>1280</width>
										<height>720</height>
										<anamorphic>FALSE</anamorphic>
										<pixelaspectratio>square</pixelaspectratio>
										<fielddominance>lower</fielddominance>
									</samplecharacteristics>
								</video>
								<audio>
									<samplecharacteristics>
										<depth>16</depth>
										<samplerate>48000</samplerate>
									</samplecharacteristics>
									<channelcount>2</channelcount>
								</audio>
							</media>
						</file>
						<link>
							<linkclipref>clipitem-968</linkclipref>
							<mediatype>video</mediatype>
							<trackindex>1</trackindex>
							<clipindex>2</clipindex>
						</link>
						<link>
							<linkclipref>clipitem-1407</linkclipref>
							<mediatype>audio</mediatype>
							<trackindex>5</trackindex>
							<clipindex>2</clipindex>
							<groupindex>1</groupindex>
						</link>
						<link>
							<linkclipref>clipitem-1412</linkclipref>
							<mediatype>audio</mediatype>
							<trackindex>6</trackindex>
							<clipindex>2</clipindex>
							<groupindex>1</groupindex>
						</link>
						<logginginfo>
							<description></description>
							<scene></scene>
							<shottake></shottake>
							<lognote></lognote>
						</logginginfo>
						<labels>
							<label2>Iris</label2>
						</labels>
					</clipitem>
					<clipitem id="clipitem-969" frameBlend="FALSE">
						<masterclipid>masterclip-259</masterclipid>
						<name>Hvor kommer str_mmen v_r fra_ Telinet Energi gir deg svaret.mov</name>
						<enabled>TRUE</enabled>
						<duration>5064</duration>
						<rate>
							<timebase>25</timebase>
							<ntsc>FALSE</ntsc>
						</rate>
						<start>257</start>
						<end>371</end>
						<in>2228</in>
						<out>2342</out>
						<pproTicksIn>22637905920000</pproTicksIn>
						<pproTicksOut>23796218880000</pproTicksOut>
						<alphatype>none</alphatype>
						<pixelaspectratio>square</pixelaspectratio>
						<anamorphic>FALSE</anamorphic>
						<file id="file-249">
							<name>Hvor kommer str_mmen v_r fra_ Telinet Energi gir deg svaret.mov</name>
							<pathurl>file://localhost/Volumes/Brakka/AdobeLager/Katta/Katta-16xxxx-Klimabloffen-Chris/02-Video/youtube/Hvor%20kommer%20str_mmen%20v_r%20fra_%20Telinet%20Energi%20gir%20deg%20svaret.mov</pathurl>
							<rate>
								<timebase>25</timebase>
								<ntsc>FALSE</ntsc>
							</rate>
							<duration>5064</duration>
							<timecode>
								<rate>
									<timebase>25</timebase>
									<ntsc>FALSE</ntsc>
								</rate>
								<string>00:00:00:00</string>
								<frame>0</frame>
								<displayformat>NDF</displayformat>
								<reel>
									<name></name>
								</reel>
							</timecode>
							<media>
								<video>
									<samplecharacteristics>
										<rate>
											<timebase>25</timebase>
											<ntsc>FALSE</ntsc>
										</rate>
										<width>1280</width>
										<height>720</height>
										<anamorphic>FALSE</anamorphic>
										<pixelaspectratio>square</pixelaspectratio>
										<fielddominance>lower</fielddominance>
									</samplecharacteristics>
								</video>
								<audio>
									<samplecharacteristics>
										<depth>16</depth>
										<samplerate>48000</samplerate>
									</samplecharacteristics>
									<channelcount>2</channelcount>
								</audio>
							</media>
						</file>
						<link>
							<linkclipref>clipitem-969</linkclipref>
							<mediatype>video</mediatype>
							<trackindex>1</trackindex>
							<clipindex>3</clipindex>
						</link>
						<link>
							<linkclipref>clipitem-1409</linkclipref>
							<mediatype>audio</mediatype>
							<trackindex>5</trackindex>
							<clipindex>4</clipindex>
							<groupindex>1</groupindex>
						</link>
						<link>
							<linkclipref>clipitem-1414</linkclipref>
							<mediatype>audio</mediatype>
							<trackindex>6</trackindex>
							<clipindex>4</clipindex>
							<groupindex>1</groupindex>
						</link>
						<logginginfo>
							<description></description>
							<scene></scene>
							<shottake></shottake>
							<lognote></lognote>
						</logginginfo>
						<labels>
							<label2>Iris</label2>
						</labels>
					</clipitem>
					<clipitem id="clipitem-970" frameBlend="FALSE">
						<masterclipid>masterclip-260</masterclipid>
						<name>AA3151</name>
						<enabled>TRUE</enabled>
						<duration>3864</duration>
						<rate>
							<timebase>25</timebase>
							<ntsc>FALSE</ntsc>
						</rate>
						<start>371</start>
						<end>431</end>
						<in>3602</in>
						<out>3662</out>
						<pproTicksIn>36598625280000</pproTicksIn>
						<pproTicksOut>37208263680000</pproTicksOut>
						<alphatype>none</alphatype>
						<pixelaspectratio>square</pixelaspectratio>
						<anamorphic>FALSE</anamorphic>
						<file id="file-250">
							<name>AA3151</name>
							<pathurl>file://localhost/Volumes/Brakka/AdobeLager/Katta/Katta-16xxxx-Klimabloffen-Chris/02-Video/Felles/Dora%201/CONTENTS/CLIPS001/AA3151/AA315101.MXF</pathurl>
							<rate>
								<timebase>25</timebase>
								<ntsc>FALSE</ntsc>
							</rate>
							<duration>3864</duration>
							<timecode>
								<rate>
									<timebase>25</timebase>
									<ntsc>FALSE</ntsc>
								</rate>
								<string>00:51:28:20</string>
								<frame>77220</frame>
								<displayformat>NDF</displayformat>
								<reel>
									<name></name>
								</reel>
							</timecode>
							<media>
								<video>
									<samplecharacteristics>
										<rate>
											<timebase>25</timebase>
											<ntsc>FALSE</ntsc>
										</rate>
										<width>1920</width>
										<height>1080</height>
										<anamorphic>FALSE</anamorphic>
										<pixelaspectratio>square</pixelaspectratio>
										<fielddominance>none</fielddominance>
									</samplecharacteristics>
								</video>
								<audio>
									<samplecharacteristics>
										<depth>16</depth>
										<samplerate>48000</samplerate>
									</samplecharacteristics>
									<channelcount>1</channelcount>
									<layout>stereo</layout>
									<audiochannel>
										<sourcechannel>1</sourcechannel>
										<channellabel>left</channellabel>
									</audiochannel>
								</audio>
								<audio>
									<samplecharacteristics>
										<depth>16</depth>
										<samplerate>48000</samplerate>
									</samplecharacteristics>
									<channelcount>1</channelcount>
									<layout>stereo</layout>
									<audiochannel>
										<sourcechannel>2</sourcechannel>
										<channellabel>right</channellabel>
									</audiochannel>
								</audio>
							</media>
						</file>
						<link>
							<linkclipref>clipitem-970</linkclipref>
							<mediatype>video</mediatype>
							<trackindex>1</trackindex>
							<clipindex>4</clipindex>
						</link>
						<link>
							<linkclipref>clipitem-1187</linkclipref>
							<mediatype>audio</mediatype>
							<trackindex>1</trackindex>
							<clipindex>2</clipindex>
						</link>
						<logginginfo>
							<description></description>
							<scene></scene>
							<shottake>AA3151</shottake>
							<lognote></lognote>
						</logginginfo>
						<labels>
							<label2>Iris</label2>
						</labels>
					</clipitem>
					<clipitem id="clipitem-971" frameBlend="FALSE">
						<masterclipid>masterclip-260</masterclipid>
						<name>AA3151</name>
						<enabled>TRUE</enabled>
						<duration>3864</duration>
						<rate>
							<timebase>25</timebase>
							<ntsc>FALSE</ntsc>
						</rate>
						<start>431</start>
						<end>516</end>
						<in>3662</in>
						<out>3747</out>
						<pproTicksIn>37208263680000</pproTicksIn>
						<pproTicksOut>38071918080000</pproTicksOut>
						<alphatype>none</alphatype>
						<file id="file-250"/>
						<link>
							<linkclipref>clipitem-971</linkclipref>
							<mediatype>video</mediatype>
							<trackindex>1</trackindex>
							<clipindex>5</clipindex>
						</link>
						<link>
							<linkclipref>clipitem-1188</linkclipref>
							<mediatype>audio</mediatype>
							<trackindex>1</trackindex>
							<clipindex>3</clipindex>
						</link>
						<logginginfo>
							<description></description>
							<scene></scene>
							<shottake>AA3151</shottake>
							<lognote></lognote>
						</logginginfo>
						<labels>
							<label2>Iris</label2>
						</labels>
					</clipitem>
					<clipitem id="clipitem-972" frameBlend="FALSE">
						<masterclipid>masterclip-261</masterclipid>
						<name>AA3129</name>
						<enabled>TRUE</enabled>
						<duration>528</duration>
						<rate>
							<timebase>25</timebase>
							<ntsc>FALSE</ntsc>
						</rate>
						<start>516</start>
						<end>557</end>
						<in>117</in>
						<out>158</out>
						<pproTicksIn>1188794880000</pproTicksIn>
						<pproTicksOut>1605381120000</pproTicksOut>
						<alphatype>none</alphatype>
						<pixelaspectratio>square</pixelaspectratio>
						<anamorphic>FALSE</anamorphic>
						<file id="file-251">
							<name>AA3129</name>
							<pathurl>file://localhost/Volumes/Brakka/AdobeLager/Katta/Katta-16xxxx-Klimabloffen-Chris/02-Video/Felles/Dora%201/CONTENTS/CLIPS001/AA3129/AA312901.MXF</pathurl>
							<rate>
								<timebase>25</timebase>
								<ntsc>FALSE</ntsc>
							</rate>
							<duration>528</duration>
							<timecode>
								<rate>
									<timebase>25</timebase>
									<ntsc>FALSE</ntsc>
								</rate>
								<string>00:34:57:15</string>
								<frame>52440</frame>
								<displayformat>NDF</displayformat>
								<reel>
									<name></name>
								</reel>
							</timecode>
							<media>
								<video>
									<samplecharacteristics>
										<rate>
											<timebase>25</timebase>
											<ntsc>FALSE</ntsc>
										</rate>
										<width>1920</width>
										<height>1080</height>
										<anamorphic>FALSE</anamorphic>
										<pixelaspectratio>square</pixelaspectratio>
										<fielddominance>none</fielddominance>
									</samplecharacteristics>
								</video>
								<audio>
									<samplecharacteristics>
										<depth>16</depth>
										<samplerate>48000</samplerate>
									</samplecharacteristics>
									<channelcount>1</channelcount>
									<layout>stereo</layout>
									<audiochannel>
										<sourcechannel>1</sourcechannel>
										<channellabel>left</channellabel>
									</audiochannel>
								</audio>
								<audio>
									<samplecharacteristics>
										<depth>16</depth>
										<samplerate>48000</samplerate>
									</samplecharacteristics>
									<channelcount>1</channelcount>
									<layout>stereo</layout>
									<audiochannel>
										<sourcechannel>2</sourcechannel>
										<channellabel>right</channellabel>
									</audiochannel>
								</audio>
							</media>
						</file>
						<logginginfo>
							<description></description>
							<scene></scene>
							<shottake>AA3129</shottake>
							<lognote></lognote>
						</logginginfo>
						<labels>
							<label2>Iris</label2>
						</labels>
					</clipitem>
					<clipitem id="clipitem-973" frameBlend="FALSE">
						<masterclipid>masterclip-262</masterclipid>
						<name>AA0114</name>
						<enabled>TRUE</enabled>
						<duration>2352</duration>
						<rate>
							<timebase>25</timebase>
							<ntsc>FALSE</ntsc>
						</rate>
						<start>557</start>
						<end>643</end>
						<in>410</in>
						<out>496</out>
						<pproTicksIn>4165862400000</pproTicksIn>
						<pproTicksOut>5039677440000</pproTicksOut>
						<alphatype>none</alphatype>
						<pixelaspectratio>square</pixelaspectratio>
						<anamorphic>FALSE</anamorphic>
						<file id="file-252">
							<name>AA0114</name>
							<pathurl>file://localhost/Volumes/Brakka/AdobeLager/Katta/Katta-16xxxx-Klimabloffen-Chris/02-Video/Tomat/5%20i%20butikk/CONTENTS/CLIPS001/AA0114/AA011401.MXF</pathurl>
							<rate>
								<timebase>25</timebase>
								<ntsc>FALSE</ntsc>
							</rate>
							<duration>2352</duration>
							<timecode>
								<rate>
									<timebase>25</timebase>
									<ntsc>FALSE</ntsc>
								</rate>
								<string>03:36:43:02</string>
								<frame>325077</frame>
								<displayformat>NDF</displayformat>
								<reel>
									<name></name>
								</reel>
							</timecode>
							<media>
								<video>
									<samplecharacteristics>
										<rate>
											<timebase>25</timebase>
											<ntsc>FALSE</ntsc>
										</rate>
										<width>1920</width>
										<height>1080</height>
										<anamorphic>FALSE</anamorphic>
										<pixelaspectratio>square</pixelaspectratio>
										<fielddominance>upper</fielddominance>
									</samplecharacteristics>
								</video>
								<audio>
									<samplecharacteristics>
										<depth>16</depth>
										<samplerate>48000</samplerate>
									</samplecharacteristics>
									<channelcount>1</channelcount>
									<layout>stereo</layout>
									<audiochannel>
										<sourcechannel>1</sourcechannel>
										<channellabel>left</channellabel>
									</audiochannel>
								</audio>
								<audio>
									<samplecharacteristics>
										<depth>16</depth>
										<samplerate>48000</samplerate>
									</samplecharacteristics>
									<channelcount>1</channelcount>
									<layout>stereo</layout>
									<audiochannel>
										<sourcechannel>2</sourcechannel>
										<channellabel>right</channellabel>
									</audiochannel>
								</audio>
							</media>
						</file>
						<link>
							<linkclipref>clipitem-973</linkclipref>
							<mediatype>video</mediatype>
							<trackindex>1</trackindex>
							<clipindex>7</clipindex>
						</link>
						<link>
							<linkclipref>clipitem-1353</linkclipref>
							<mediatype>audio</mediatype>
							<trackindex>3</trackindex>
							<clipindex>1</clipindex>
						</link>
						<link>
							<linkclipref>clipitem-1385</linkclipref>
							<mediatype>audio</mediatype>
							<trackindex>4</trackindex>
							<clipindex>1</clipindex>
						</link>
						<logginginfo>
							<description></description>
							<scene></scene>
							<shottake>AA0114</shottake>
							<lognote></lognote>
						</logginginfo>
						<labels>
							<label2>Iris</label2>
						</labels>
					</clipitem>
					<clipitem id="clipitem-974" frameBlend="FALSE">
						<masterclipid>masterclip-262</masterclipid>
						<name>AA0114</name>
						<enabled>TRUE</enabled>
						<duration>2352</duration>
						<rate>
							<timebase>25</timebase>
							<ntsc>FALSE</ntsc>
						</rate>
						<start>643</start>
						<end>720</end>
						<in>1212</in>
						<out>1289</out>
						<pproTicksIn>12314695680000</pproTicksIn>
						<pproTicksOut>13097064960000</pproTicksOut>
						<alphatype>none</alphatype>
						<file id="file-252"/>
						<link>
							<linkclipref>clipitem-974</linkclipref>
							<mediatype>video</mediatype>
							<trackindex>1</trackindex>
							<clipindex>8</clipindex>
						</link>
						<link>
							<linkclipref>clipitem-1354</linkclipref>
							<mediatype>audio</mediatype>
							<trackindex>3</trackindex>
							<clipindex>2</clipindex>
						</link>
						<link>
							<linkclipref>clipitem-1386</linkclipref>
							<mediatype>audio</mediatype>
							<trackindex>4</trackindex>
							<clipindex>2</clipindex>
						</link>
						<logginginfo>
							<description></description>
							<scene></scene>
							<shottake>AA0114</shottake>
							<lognote></lognote>
						</logginginfo>
						<labels>
							<label2>Iris</label2>
						</labels>
					</clipitem>
					<clipitem id="clipitem-975" frameBlend="FALSE">
						<masterclipid>masterclip-263</masterclipid>
						<name>AA0115</name>
						<enabled>TRUE</enabled>
						<duration>3432</duration>
						<rate>
							<timebase>25</timebase>
							<ntsc>FALSE</ntsc>
						</rate>
						<start>720</start>
						<end>743</end>
						<in>161</in>
						<out>184</out>
						<pproTicksIn>1635863040000</pproTicksIn>
						<pproTicksOut>1869557760000</pproTicksOut>
						<alphatype>none</alphatype>
						<pixelaspectratio>square</pixelaspectratio>
						<anamorphic>FALSE</anamorphic>
						<file id="file-253">
							<name>AA0115</name>
							<pathurl>file://localhost/Volumes/Brakka/AdobeLager/Katta/Katta-16xxxx-Klimabloffen-Chris/02-Video/Tomat/5%20i%20butikk/CONTENTS/CLIPS001/AA0115/AA011501.MXF</pathurl>
							<rate>
								<timebase>25</timebase>
								<ntsc>FALSE</ntsc>
							</rate>
							<duration>3432</duration>
							<timecode>
								<rate>
									<timebase>25</timebase>
									<ntsc>FALSE</ntsc>
								</rate>
								<string>03:40:29:18</string>
								<frame>330743</frame>
								<displayformat>NDF</displayformat>
								<reel>
									<name></name>
								</reel>
							</timecode>
							<media>
								<video>
									<samplecharacteristics>
										<rate>
											<timebase>25</timebase>
											<ntsc>FALSE</ntsc>
										</rate>
										<width>1920</width>
										<height>1080</height>
										<anamorphic>FALSE</anamorphic>
										<pixelaspectratio>square</pixelaspectratio>
										<fielddominance>upper</fielddominance>
									</samplecharacteristics>
								</video>
								<audio>
									<samplecharacteristics>
										<depth>16</depth>
										<samplerate>48000</samplerate>
									</samplecharacteristics>
									<channelcount>1</channelcount>
									<layout>stereo</layout>
									<audiochannel>
										<sourcechannel>1</sourcechannel>
										<channellabel>left</channellabel>
									</audiochannel>
								</audio>
								<audio>
									<samplecharacteristics>
										<depth>16</depth>
										<samplerate>48000</samplerate>
									</samplecharacteristics>
									<channelcount>1</channelcount>
									<layout>stereo</layout>
									<audiochannel>
										<sourcechannel>2</sourcechannel>
										<channellabel>right</channellabel>
									</audiochannel>
								</audio>
							</media>
						</file>
						<link>
							<linkclipref>clipitem-975</linkclipref>
							<mediatype>video</mediatype>
							<trackindex>1</trackindex>
							<clipindex>9</clipindex>
						</link>
						<link>
							<linkclipref>clipitem-1189</linkclipref>
							<mediatype>audio</mediatype>
							<trackindex>1</trackindex>
							<clipindex>4</clipindex>
						</link>
						<link>
							<linkclipref>clipitem-1291</linkclipref>
							<mediatype>audio</mediatype>
							<trackindex>2</trackindex>
							<clipindex>1</clipindex>
						</link>
						<logginginfo>
							<description></description>
							<scene></scene>
							<shottake>AA0115</shottake>
							<lognote></lognote>
						</logginginfo>
						<labels>
							<label2>Iris</label2>
						</labels>
					</clipitem>
					<clipitem id="clipitem-976" frameBlend="FALSE">
						<masterclipid>masterclip-263</masterclipid>
						<name>AA0115</name>
						<enabled>TRUE</enabled>
						<duration>3432</duration>
						<rate>
							<timebase>25</timebase>
							<ntsc>FALSE</ntsc>
						</rate>
						<start>743</start>
						<end>856</end>
						<in>225</in>
						<out>338</out>
						<pproTicksIn>2286144000000</pproTicksIn>
						<pproTicksOut>3434296320000</pproTicksOut>
						<alphatype>none</alphatype>
						<file id="file-253"/>
						<link>
							<linkclipref>clipitem-976</linkclipref>
							<mediatype>video</mediatype>
							<trackindex>1</trackindex>
							<clipindex>10</clipindex>
						</link>
						<link>
							<linkclipref>clipitem-1190</linkclipref>
							<mediatype>audio</mediatype>
							<trackindex>1</trackindex>
							<clipindex>5</clipindex>
						</link>
						<link>
							<linkclipref>clipitem-1292</linkclipref>
							<mediatype>audio</mediatype>
							<trackindex>2</trackindex>
							<clipindex>2</clipindex>
						</link>
						<logginginfo>
							<description></description>
							<scene></scene>
							<shottake>AA0115</shottake>
							<lognote></lognote>
						</logginginfo>
						<labels>
							<label2>Iris</label2>
						</labels>
					</clipitem>
					<clipitem id="clipitem-977" frameBlend="FALSE">
						<masterclipid>masterclip-264</masterclipid>
						<name>AA0137</name>
						<enabled>TRUE</enabled>
						<duration>6756</duration>
						<rate>
							<timebase>25</timebase>
							<ntsc>FALSE</ntsc>
						</rate>
						<start>856</start>
						<end>889</end>
						<in>1519</in>
						<out>1552</out>
						<pproTicksIn>15434012160000</pproTicksIn>
						<pproTicksOut>15769313280000</pproTicksOut>
						<alphatype>none</alphatype>
						<pixelaspectratio>square</pixelaspectratio>
						<anamorphic>FALSE</anamorphic>
						<file id="file-254">
							<name>AA0137</name>
							<pathurl>file://localhost/Volumes/Brakka/AdobeLager/Katta/Katta-16xxxx-Klimabloffen-Chris/02-Video/Tomat/5%20i%20butikk/CONTENTS/CLIPS001/AA0137/AA013701.MXF</pathurl>
							<rate>
								<timebase>25</timebase>
								<ntsc>FALSE</ntsc>
							</rate>
							<duration>6756</duration>
							<timecode>
								<rate>
									<timebase>25</timebase>
									<ntsc>FALSE</ntsc>
								</rate>
								<string>04:28:33:13</string>
								<frame>402838</frame>
								<displayformat>NDF</displayformat>
								<reel>
									<name></name>
								</reel>
							</timecode>
							<media>
								<video>
									<samplecharacteristics>
										<rate>
											<timebase>25</timebase>
											<ntsc>FALSE</ntsc>
										</rate>
										<width>1920</width>
										<height>1080</height>
										<anamorphic>FALSE</anamorphic>
										<pixelaspectratio>square</pixelaspectratio>
										<fielddominance>upper</fielddominance>
									</samplecharacteristics>
								</video>
								<audio>
									<samplecharacteristics>
										<depth>16</depth>
										<samplerate>48000</samplerate>
									</samplecharacteristics>
									<channelcount>1</channelcount>
									<layout>stereo</layout>
									<audiochannel>
										<sourcechannel>1</sourcechannel>
										<channellabel>left</channellabel>
									</audiochannel>
								</audio>
								<audio>
									<samplecharacteristics>
										<depth>16</depth>
										<samplerate>48000</samplerate>
									</samplecharacteristics>
									<channelcount>1</channelcount>
									<layout>stereo</layout>
									<audiochannel>
										<sourcechannel>2</sourcechannel>
										<channellabel>right</channellabel>
									</audiochannel>
								</audio>
							</media>
						</file>
						<link>
							<linkclipref>clipitem-977</linkclipref>
							<mediatype>video</mediatype>
							<trackindex>1</trackindex>
							<clipindex>11</clipindex>
						</link>
						<link>
							<linkclipref>clipitem-1191</linkclipref>
							<mediatype>audio</mediatype>
							<trackindex>1</trackindex>
							<clipindex>6</clipindex>
						</link>
						<logginginfo>
							<description></description>
							<scene></scene>
							<shottake>AA0137</shottake>
							<lognote></lognote>
						</logginginfo>
						<labels>
							<label2>Iris</label2>
						</labels>
					</clipitem>
					<clipitem id="clipitem-978" frameBlend="FALSE">
						<masterclipid>masterclip-265</masterclipid>
						<name>AA0138</name>
						<enabled>TRUE</enabled>
						<duration>1608</duration>
						<rate>
							<timebase>25</timebase>
							<ntsc>FALSE</ntsc>
						</rate>
						<start>889</start>
						<end>948</end>
						<in>347</in>
						<out>406</out>
						<pproTicksIn>3525742080000</pproTicksIn>
						<pproTicksOut>4125219840000</pproTicksOut>
						<alphatype>none</alphatype>
						<pixelaspectratio>square</pixelaspectratio>
						<anamorphic>FALSE</anamorphic>
						<file id="file-255">
							<name>AA0138</name>
							<pathurl>file://localhost/Volumes/Brakka/AdobeLager/Katta/Katta-16xxxx-Klimabloffen-Chris/02-Video/Tomat/5%20i%20butikk/CONTENTS/CLIPS001/AA0138/AA013801.MXF</pathurl>
							<rate>
								<timebase>25</timebase>
								<ntsc>FALSE</ntsc>
							</rate>
							<duration>1608</duration>
							<timecode>
								<rate>
									<timebase>25</timebase>
									<ntsc>FALSE</ntsc>
								</rate>
								<string>04:33:35:08</string>
								<frame>410383</frame>
								<displayformat>NDF</displayformat>
								<reel>
									<name></name>
								</reel>
							</timecode>
							<media>
								<video>
									<samplecharacteristics>
										<rate>
											<timebase>25</timebase>
											<ntsc>FALSE</ntsc>
										</rate>
										<width>1920</width>
										<height>1080</height>
										<anamorphic>FALSE</anamorphic>
										<pixelaspectratio>square</pixelaspectratio>
										<fielddominance>upper</fielddominance>
									</samplecharacteristics>
								</video>
								<audio>
									<samplecharacteristics>
										<depth>16</depth>
										<samplerate>48000</samplerate>
									</samplecharacteristics>
									<channelcount>1</channelcount>
									<layout>stereo</layout>
									<audiochannel>
										<sourcechannel>1</sourcechannel>
										<channellabel>left</channellabel>
									</audiochannel>
								</audio>
								<audio>
									<samplecharacteristics>
										<depth>16</depth>
										<samplerate>48000</samplerate>
									</samplecharacteristics>
									<channelcount>1</channelcount>
									<layout>stereo</layout>
									<audiochannel>
										<sourcechannel>2</sourcechannel>
										<channellabel>right</channellabel>
									</audiochannel>
								</audio>
							</media>
						</file>
						<logginginfo>
							<description></description>
							<scene></scene>
							<shottake>AA0138</shottake>
							<lognote></lognote>
						</logginginfo>
						<labels>
							<label2>Iris</label2>
						</labels>
					</clipitem>
					<clipitem id="clipitem-979" frameBlend="FALSE">
						<masterclipid>masterclip-264</masterclipid>
						<name>AA0137</name>
						<enabled>TRUE</enabled>
						<duration>6756</duration>
						<rate>
							<timebase>25</timebase>
							<ntsc>FALSE</ntsc>
						</rate>
						<start>948</start>
						<end>989</end>
						<in>1611</in>
						<out>1652</out>
						<pproTicksIn>16368791040000</pproTicksIn>
						<pproTicksOut>16785377280000</pproTicksOut>
						<alphatype>none</alphatype>
						<file id="file-254"/>
						<logginginfo>
							<description></description>
							<scene></scene>
							<shottake>AA0137</shottake>
							<lognote></lognote>
						</logginginfo>
						<labels>
							<label2>Iris</label2>
						</labels>
					</clipitem>
					<clipitem id="clipitem-980" frameBlend="FALSE">
						<masterclipid>masterclip-266</masterclipid>
						<name>AA0139</name>
						<enabled>TRUE</enabled>
						<duration>4284</duration>
						<rate>
							<timebase>25</timebase>
							<ntsc>FALSE</ntsc>
						</rate>
						<start>989</start>
						<end>1007</end>
						<in>402</in>
						<out>420</out>
						<pproTicksIn>4084577280000</pproTicksIn>
						<pproTicksOut>4267468800000</pproTicksOut>
						<alphatype>none</alphatype>
						<pixelaspectratio>square</pixelaspectratio>
						<anamorphic>FALSE</anamorphic>
						<file id="file-256">
							<name>AA0139</name>
							<pathurl>file://localhost/Volumes/Brakka/AdobeLager/Katta/Katta-16xxxx-Klimabloffen-Chris/02-Video/Tomat/5%20i%20butikk/CONTENTS/CLIPS001/AA0139/AA013901.MXF</pathurl>
							<rate>
								<timebase>25</timebase>
								<ntsc>FALSE</ntsc>
							</rate>
							<duration>4284</duration>
							<timecode>
								<rate>
									<timebase>25</timebase>
									<ntsc>FALSE</ntsc>
								</rate>
								<string>04:35:54:03</string>
								<frame>413853</frame>
								<displayformat>NDF</displayformat>
								<reel>
									<name></name>
								</reel>
							</timecode>
							<media>
								<video>
									<samplecharacteristics>
										<rate>
											<timebase>25</timebase>
											<ntsc>FALSE</ntsc>
										</rate>
										<width>1920</width>
										<height>1080</height>
										<anamorphic>FALSE</anamorphic>
										<pixelaspectratio>square</pixelaspectratio>
										<fielddominance>upper</fielddominance>
									</samplecharacteristics>
								</video>
								<audio>
									<samplecharacteristics>
										<depth>16</depth>
										<samplerate>48000</samplerate>
									</samplecharacteristics>
									<channelcount>1</channelcount>
									<layout>stereo</layout>
									<audiochannel>
										<sourcechannel>1</sourcechannel>
										<channellabel>left</channellabel>
									</audiochannel>
								</audio>
								<audio>
									<samplecharacteristics>
										<depth>16</depth>
										<samplerate>48000</samplerate>
									</samplecharacteristics>
									<channelcount>1</channelcount>
									<layout>stereo</layout>
									<audiochannel>
										<sourcechannel>2</sourcechannel>
										<channellabel>right</channellabel>
									</audiochannel>
								</audio>
							</media>
						</file>
						<link>
							<linkclipref>clipitem-980</linkclipref>
							<mediatype>video</mediatype>
							<trackindex>1</trackindex>
							<clipindex>14</clipindex>
						</link>
						<link>
							<linkclipref>clipitem-1192</linkclipref>
							<mediatype>audio</mediatype>
							<trackindex>1</trackindex>
							<clipindex>7</clipindex>
						</link>
						<logginginfo>
							<description></description>
							<scene></scene>
							<shottake>AA0139</shottake>
							<lognote></lognote>
						</logginginfo>
						<labels>
							<label2>Iris</label2>
						</labels>
					</clipitem>
					<clipitem id="clipitem-981" frameBlend="FALSE">
						<masterclipid>masterclip-265</masterclipid>
						<name>AA0138</name>
						<enabled>TRUE</enabled>
						<duration>1608</duration>
						<rate>
							<timebase>25</timebase>
							<ntsc>FALSE</ntsc>
						</rate>
						<start>1007</start>
						<end>1040</end>
						<in>1058</in>
						<out>1091</out>
						<pproTicksIn>10749957120000</pproTicksIn>
						<pproTicksOut>11085258240000</pproTicksOut>
						<alphatype>none</alphatype>
						<file id="file-255"/>
						<logginginfo>
							<description></description>
							<scene></scene>
							<shottake>AA0138</shottake>
							<lognote></lognote>
						</logginginfo>
						<labels>
							<label2>Iris</label2>
						</labels>
					</clipitem>
					<clipitem id="clipitem-982" frameBlend="FALSE">
						<masterclipid>masterclip-263</masterclipid>
						<name>AA0115</name>
						<enabled>TRUE</enabled>
						<duration>3432</duration>
						<rate>
							<timebase>25</timebase>
							<ntsc>FALSE</ntsc>
						</rate>
						<start>1040</start>
						<end>1072</end>
						<in>939</in>
						<out>971</out>
						<pproTicksIn>9540840960000</pproTicksIn>
						<pproTicksOut>9865981440000</pproTicksOut>
						<alphatype>none</alphatype>
						<file id="file-253"/>
						<link>
							<linkclipref>clipitem-982</linkclipref>
							<mediatype>video</mediatype>
							<trackindex>1</trackindex>
							<clipindex>16</clipindex>
						</link>
						<link>
							<linkclipref>clipitem-1193</linkclipref>
							<mediatype>audio</mediatype>
							<trackindex>1</trackindex>
							<clipindex>8</clipindex>
						</link>
						<logginginfo>
							<description></description>
							<scene></scene>
							<shottake>AA0115</shottake>
							<lognote></lognote>
						</logginginfo>
						<labels>
							<label2>Iris</label2>
						</labels>
					</clipitem>
					<clipitem id="clipitem-983" frameBlend="FALSE">
						<masterclipid>masterclip-267</masterclipid>
						<name>AA0113</name>
						<enabled>TRUE</enabled>
						<duration>6996</duration>
						<rate>
							<timebase>25</timebase>
							<ntsc>FALSE</ntsc>
						</rate>
						<start>1072</start>
						<end>1188</end>
						<in>3710</in>
						<out>3826</out>
						<pproTicksIn>37695974400000</pproTicksIn>
						<pproTicksOut>38874608640000</pproTicksOut>
						<alphatype>none</alphatype>
						<pixelaspectratio>square</pixelaspectratio>
						<anamorphic>FALSE</anamorphic>
						<file id="file-257">
							<name>AA0113</name>
							<pathurl>file://localhost/Volumes/Brakka/AdobeLager/Katta/Katta-16xxxx-Klimabloffen-Chris/02-Video/Tomat/5%20i%20butikk/CONTENTS/CLIPS001/AA0113/AA011301.MXF</pathurl>
							<rate>
								<timebase>25</timebase>
								<ntsc>FALSE</ntsc>
							</rate>
							<duration>6996</duration>
							<timecode>
								<rate>
									<timebase>25</timebase>
									<ntsc>FALSE</ntsc>
								</rate>
								<string>03:32:00:10</string>
								<frame>318010</frame>
								<displayformat>NDF</displayformat>
								<reel>
									<name></name>
								</reel>
							</timecode>
							<media>
								<video>
									<samplecharacteristics>
										<rate>
											<timebase>25</timebase>
											<ntsc>FALSE</ntsc>
										</rate>
										<width>1920</width>
										<height>1080</height>
										<anamorphic>FALSE</anamorphic>
										<pixelaspectratio>square</pixelaspectratio>
										<fielddominance>upper</fielddominance>
									</samplecharacteristics>
								</video>
								<audio>
									<samplecharacteristics>
										<depth>16</depth>
										<samplerate>48000</samplerate>
									</samplecharacteristics>
									<channelcount>1</channelcount>
									<layout>stereo</layout>
									<audiochannel>
										<sourcechannel>1</sourcechannel>
										<channellabel>left</channellabel>
									</audiochannel>
								</audio>
								<audio>
									<samplecharacteristics>
										<depth>16</depth>
										<samplerate>48000</samplerate>
									</samplecharacteristics>
									<channelcount>1</channelcount>
									<layout>stereo</layout>
									<audiochannel>
										<sourcechannel>2</sourcechannel>
										<channellabel>right</channellabel>
									</audiochannel>
								</audio>
							</media>
						</file>
						<link>
							<linkclipref>clipitem-983</linkclipref>
							<mediatype>video</mediatype>
							<trackindex>1</trackindex>
							<clipindex>17</clipindex>
						</link>
						<link>
							<linkclipref>clipitem-1194</linkclipref>
							<mediatype>audio</mediatype>
							<trackindex>1</trackindex>
							<clipindex>9</clipindex>
						</link>
						<logginginfo>
							<description></description>
							<scene></scene>
							<shottake>AA0113</shottake>
							<lognote></lognote>
						</logginginfo>
						<labels>
							<label2>Iris</label2>
						</labels>
					</clipitem>
					<clipitem id="clipitem-984" frameBlend="FALSE">
						<masterclipid>masterclip-268</masterclipid>
						<name>SC-RO1840-CF-020812-RO_p0.mxf</name>
						<enabled>TRUE</enabled>
						<duration>3342</duration>
						<rate>
							<timebase>25</timebase>
							<ntsc>FALSE</ntsc>
						</rate>
						<start>1188</start>
						<end>1276</end>
						<in>131</in>
						<out>219</out>
						<pproTicksIn>1331043840000</pproTicksIn>
						<pproTicksOut>2225180160000</pproTicksOut>
						<alphatype>none</alphatype>
						<pixelaspectratio>PAL-601</pixelaspectratio>
						<anamorphic>FALSE</anamorphic>
						<file id="file-258">
							<name>SC-RO1840-CF-020812-RO_p0.mxf</name>
							<pathurl>file://localhost/Volumes/Brakka/AdobeLager/Katta/Katta-16xxxx-Klimabloffen-Chris/02-Video/Tomat/arkiv/SC-RO1840-CF-020812-RO_p0.mxf</pathurl>
							<rate>
								<timebase>25</timebase>
								<ntsc>FALSE</ntsc>
							</rate>
							<duration>3342</duration>
							<timecode>
								<rate>
									<timebase>25</timebase>
									<ntsc>FALSE</ntsc>
								</rate>
								<string>18:49:49:20</string>
								<frame>1694745</frame>
								<displayformat>NDF</displayformat>
								<reel>
									<name></name>
								</reel>
							</timecode>
							<media>
								<video>
									<samplecharacteristics>
										<rate>
											<timebase>25</timebase>
											<ntsc>FALSE</ntsc>
										</rate>
										<width>720</width>
										<height>576</height>
										<anamorphic>FALSE</anamorphic>
										<pixelaspectratio>PAL-601</pixelaspectratio>
										<fielddominance>upper</fielddominance>
									</samplecharacteristics>
								</video>
								<audio>
									<samplecharacteristics>
										<depth>16</depth>
										<samplerate>48000</samplerate>
									</samplecharacteristics>
									<channelcount>1</channelcount>
									<layout>mono</layout>
									<audiochannel>
										<sourcechannel>1</sourcechannel>
										<channellabel>discrete</channellabel>
									</audiochannel>
								</audio>
								<audio>
									<samplecharacteristics>
										<depth>16</depth>
										<samplerate>48000</samplerate>
									</samplecharacteristics>
									<channelcount>1</channelcount>
									<layout>mono</layout>
									<audiochannel>
										<sourcechannel>2</sourcechannel>
										<channellabel>discrete</channellabel>
									</audiochannel>
								</audio>
								<audio>
									<samplecharacteristics>
										<depth>16</depth>
										<samplerate>48000</samplerate>
									</samplecharacteristics>
									<channelcount>1</channelcount>
									<layout>mono</layout>
									<audiochannel>
										<sourcechannel>3</sourcechannel>
										<channellabel>discrete</channellabel>
									</audiochannel>
								</audio>
								<audio>
									<samplecharacteristics>
										<depth>16</depth>
										<samplerate>48000</samplerate>
									</samplecharacteristics>
									<channelcount>1</channelcount>
									<layout>mono</layout>
									<audiochannel>
										<sourcechannel>4</sourcechannel>
										<channellabel>discrete</channellabel>
									</audiochannel>
								</audio>
								<audio>
									<samplecharacteristics>
										<depth>16</depth>
										<samplerate>48000</samplerate>
									</samplecharacteristics>
									<channelcount>1</channelcount>
									<layout>mono</layout>
									<audiochannel>
										<sourcechannel>5</sourcechannel>
										<channellabel>discrete</channellabel>
									</audiochannel>
								</audio>
								<audio>
									<samplecharacteristics>
										<depth>16</depth>
										<samplerate>48000</samplerate>
									</samplecharacteristics>
									<channelcount>1</channelcount>
									<layout>mono</layout>
									<audiochannel>
										<sourcechannel>6</sourcechannel>
										<channellabel>discrete</channellabel>
									</audiochannel>
								</audio>
								<audio>
									<samplecharacteristics>
										<depth>16</depth>
										<samplerate>48000</samplerate>
									</samplecharacteristics>
									<channelcount>1</channelcount>
									<layout>mono</layout>
									<audiochannel>
										<sourcechannel>7</sourcechannel>
										<channellabel>discrete</channellabel>
									</audiochannel>
								</audio>
								<audio>
									<samplecharacteristics>
										<depth>16</depth>
										<samplerate>48000</samplerate>
									</samplecharacteristics>
									<channelcount>1</channelcount>
									<layout>mono</layout>
									<audiochannel>
										<sourcechannel>8</sourcechannel>
										<channellabel>discrete</channellabel>
									</audiochannel>
								</audio>
							</media>
						</file>
							<filter>
								<effect>
									<name>Basic Motion</name>
									<effectid>basic</effectid>
									<effectcategory>motion</effectcategory>
									<effecttype>motion</effecttype>
									<mediatype>video</mediatype>
									<parameter authoringApp="PremierePro">
										<parameterid>scale</parameterid>
										<name>Scale</name>
										<valuemin>0</valuemin>
										<valuemax>1000</valuemax>
										<value>131</value>
									</parameter>
									<parameter authoringApp="PremierePro">
										<parameterid>rotation</parameterid>
										<name>Rotation</name>
										<valuemin>-8640</valuemin>
										<valuemax>8640</valuemax>
										<value>0</value>
									</parameter>
									<parameter authoringApp="PremierePro">
										<parameterid>center</parameterid>
										<name>Center</name>
										<value>
											<horiz>0</horiz>
											<vert>0</vert>
										</value>
									</parameter>
									<parameter authoringApp="PremierePro">
										<parameterid>centerOffset</parameterid>
										<name>Anchor Point</name>
										<value>
											<horiz>0</horiz>
											<vert>0</vert>
										</value>
									</parameter>
								</effect>
							</filter>
							<filter>
								<effect>
									<name>Distort</name>
									<effectid>deformation</effectid>
									<effectcategory>motion</effectcategory>
									<effecttype>motion</effecttype>
									<mediatype>video</mediatype>
									<parameter authoringApp="PremierePro">
										<parameterid>aspect</parameterid>
										<name>Aspect</name>
										<valuemin>-10000</valuemin>
										<valuemax>10000</valuemax>
										<value>-43.3162</value>
									</parameter>
								</effect>
							</filter>
						<link>
							<linkclipref>clipitem-984</linkclipref>
							<mediatype>video</mediatype>
							<trackindex>1</trackindex>
							<clipindex>18</clipindex>
						</link>
						<link>
							<linkclipref>clipitem-1195</linkclipref>
							<mediatype>audio</mediatype>
							<trackindex>1</trackindex>
							<clipindex>10</clipindex>
						</link>
						<link>
							<linkclipref>clipitem-1293</linkclipref>
							<mediatype>audio</mediatype>
							<trackindex>2</trackindex>
							<clipindex>3</clipindex>
						</link>
						<logginginfo>
							<description></description>
							<scene></scene>
							<shottake></shottake>
							<lognote></lognote>
						</logginginfo>
						<labels>
							<label2>Iris</label2>
						</labels>
					</clipitem>
					<clipitem id="clipitem-985" frameBlend="FALSE">
						<masterclipid>masterclip-269</masterclipid>
						<name>SC-DKMR99091615AA_p0.mxf</name>
						<enabled>TRUE</enabled>
						<duration>3492</duration>
						<rate>
							<timebase>25</timebase>
							<ntsc>FALSE</ntsc>
						</rate>
						<start>1276</start>
						<end>1315</end>
						<in>89</in>
						<out>128</out>
						<pproTicksIn>904296960000</pproTicksIn>
						<pproTicksOut>1300561920000</pproTicksOut>
						<alphatype>none</alphatype>
						<pixelaspectratio>square</pixelaspectratio>
						<anamorphic>FALSE</anamorphic>
						<file id="file-259">
							<name>SC-DKMR99091615AA_p0.mxf</name>
							<pathurl>file://localhost/Volumes/Brakka/AdobeLager/Katta/Katta-16xxxx-Klimabloffen-Chris/02-Video/Tomat/arkiv/SC-DKMR99091615AA_p0.mxf</pathurl>
							<rate>
								<timebase>25</timebase>
								<ntsc>FALSE</ntsc>
							</rate>
							<duration>3492</duration>
							<timecode>
								<rate>
									<timebase>25</timebase>
									<ntsc>FALSE</ntsc>
								</rate>
								<string>18:54:27:00</string>
								<frame>1701675</frame>
								<displayformat>NDF</displayformat>
								<reel>
									<name></name>
								</reel>
							</timecode>
							<media>
								<video>
									<samplecharacteristics>
										<rate>
											<timebase>25</timebase>
											<ntsc>FALSE</ntsc>
										</rate>
										<width>1920</width>
										<height>1080</height>
										<anamorphic>FALSE</anamorphic>
										<pixelaspectratio>square</pixelaspectratio>
										<fielddominance>upper</fielddominance>
									</samplecharacteristics>
								</video>
								<audio>
									<samplecharacteristics>
										<depth>16</depth>
										<samplerate>48000</samplerate>
									</samplecharacteristics>
									<channelcount>1</channelcount>
									<layout>mono</layout>
									<audiochannel>
										<sourcechannel>1</sourcechannel>
										<channellabel>discrete</channellabel>
									</audiochannel>
								</audio>
								<audio>
									<samplecharacteristics>
										<depth>16</depth>
										<samplerate>48000</samplerate>
									</samplecharacteristics>
									<channelcount>1</channelcount>
									<layout>mono</layout>
									<audiochannel>
										<sourcechannel>2</sourcechannel>
										<channellabel>discrete</channellabel>
									</audiochannel>
								</audio>
								<audio>
									<samplecharacteristics>
										<depth>16</depth>
										<samplerate>48000</samplerate>
									</samplecharacteristics>
									<channelcount>1</channelcount>
									<layout>mono</layout>
									<audiochannel>
										<sourcechannel>3</sourcechannel>
										<channellabel>discrete</channellabel>
									</audiochannel>
								</audio>
								<audio>
									<samplecharacteristics>
										<depth>16</depth>
										<samplerate>48000</samplerate>
									</samplecharacteristics>
									<channelcount>1</channelcount>
									<layout>mono</layout>
									<audiochannel>
										<sourcechannel>4</sourcechannel>
										<channellabel>discrete</channellabel>
									</audiochannel>
								</audio>
								<audio>
									<samplecharacteristics>
										<depth>16</depth>
										<samplerate>48000</samplerate>
									</samplecharacteristics>
									<channelcount>1</channelcount>
									<layout>mono</layout>
									<audiochannel>
										<sourcechannel>5</sourcechannel>
										<channellabel>discrete</channellabel>
									</audiochannel>
								</audio>
								<audio>
									<samplecharacteristics>
										<depth>16</depth>
										<samplerate>48000</samplerate>
									</samplecharacteristics>
									<channelcount>1</channelcount>
									<layout>mono</layout>
									<audiochannel>
										<sourcechannel>6</sourcechannel>
										<channellabel>discrete</channellabel>
									</audiochannel>
								</audio>
								<audio>
									<samplecharacteristics>
										<depth>16</depth>
										<samplerate>48000</samplerate>
									</samplecharacteristics>
									<channelcount>1</channelcount>
									<layout>mono</layout>
									<audiochannel>
										<sourcechannel>7</sourcechannel>
										<channellabel>discrete</channellabel>
									</audiochannel>
								</audio>
								<audio>
									<samplecharacteristics>
										<depth>16</depth>
										<samplerate>48000</samplerate>
									</samplecharacteristics>
									<channelcount>1</channelcount>
									<layout>mono</layout>
									<audiochannel>
										<sourcechannel>8</sourcechannel>
										<channellabel>discrete</channellabel>
									</audiochannel>
								</audio>
							</media>
						</file>
						<link>
							<linkclipref>clipitem-985</linkclipref>
							<mediatype>video</mediatype>
							<trackindex>1</trackindex>
							<clipindex>19</clipindex>
						</link>
						<link>
							<linkclipref>clipitem-1196</linkclipref>
							<mediatype>audio</mediatype>
							<trackindex>1</trackindex>
							<clipindex>11</clipindex>
						</link>
						<link>
							<linkclipref>clipitem-1294</linkclipref>
							<mediatype>audio</mediatype>
							<trackindex>2</trackindex>
							<clipindex>4</clipindex>
						</link>
						<logginginfo>
							<description></description>
							<scene></scene>
							<shottake></shottake>
							<lognote></lognote>
						</logginginfo>
						<labels>
							<label2>Iris</label2>
						</labels>
					</clipitem>
					<clipitem id="clipitem-986" frameBlend="FALSE">
						<masterclipid>masterclip-270</masterclipid>
						<name>SC-DKNO99010215AA_p0.mxf</name>
						<enabled>TRUE</enabled>
						<duration>4003</duration>
						<rate>
							<timebase>25</timebase>
							<ntsc>FALSE</ntsc>
						</rate>
						<start>1315</start>
						<end>1338</end>
						<in>339</in>
						<out>362</out>
						<pproTicksIn>3444456960000</pproTicksIn>
						<pproTicksOut>3678151680000</pproTicksOut>
						<alphatype>none</alphatype>
						<pixelaspectratio>PAL-601</pixelaspectratio>
						<anamorphic>FALSE</anamorphic>
						<file id="file-260">
							<name>SC-DKNO99010215AA_p0.mxf</name>
							<pathurl>file://localhost/Volumes/Brakka/AdobeLager/Katta/Katta-16xxxx-Klimabloffen-Chris/02-Video/Tomat/arkiv/SC-DKNO99010215AA_p0.mxf</pathurl>
							<rate>
								<timebase>25</timebase>
								<ntsc>FALSE</ntsc>
							</rate>
							<duration>4003</duration>
							<timecode>
								<rate>
									<timebase>25</timebase>
									<ntsc>FALSE</ntsc>
								</rate>
								<string>18:45:30:15</string>
								<frame>1688265</frame>
								<displayformat>NDF</displayformat>
								<reel>
									<name></name>
								</reel>
							</timecode>
							<media>
								<video>
									<samplecharacteristics>
										<rate>
											<timebase>25</timebase>
											<ntsc>FALSE</ntsc>
										</rate>
										<width>720</width>
										<height>576</height>
										<anamorphic>FALSE</anamorphic>
										<pixelaspectratio>PAL-601</pixelaspectratio>
										<fielddominance>upper</fielddominance>
									</samplecharacteristics>
								</video>
								<audio>
									<samplecharacteristics>
										<depth>16</depth>
										<samplerate>48000</samplerate>
									</samplecharacteristics>
									<channelcount>1</channelcount>
									<layout>mono</layout>
									<audiochannel>
										<sourcechannel>1</sourcechannel>
										<channellabel>discrete</channellabel>
									</audiochannel>
								</audio>
								<audio>
									<samplecharacteristics>
										<depth>16</depth>
										<samplerate>48000</samplerate>
									</samplecharacteristics>
									<channelcount>1</channelcount>
									<layout>mono</layout>
									<audiochannel>
										<sourcechannel>2</sourcechannel>
										<channellabel>discrete</channellabel>
									</audiochannel>
								</audio>
								<audio>
									<samplecharacteristics>
										<depth>16</depth>
										<samplerate>48000</samplerate>
									</samplecharacteristics>
									<channelcount>1</channelcount>
									<layout>mono</layout>
									<audiochannel>
										<sourcechannel>3</sourcechannel>
										<channellabel>discrete</channellabel>
									</audiochannel>
								</audio>
								<audio>
									<samplecharacteristics>
										<depth>16</depth>
										<samplerate>48000</samplerate>
									</samplecharacteristics>
									<channelcount>1</channelcount>
									<layout>mono</layout>
									<audiochannel>
										<sourcechannel>4</sourcechannel>
										<channellabel>discrete</channellabel>
									</audiochannel>
								</audio>
								<audio>
									<samplecharacteristics>
										<depth>16</depth>
										<samplerate>48000</samplerate>
									</samplecharacteristics>
									<channelcount>1</channelcount>
									<layout>mono</layout>
									<audiochannel>
										<sourcechannel>5</sourcechannel>
										<channellabel>discrete</channellabel>
									</audiochannel>
								</audio>
								<audio>
									<samplecharacteristics>
										<depth>16</depth>
										<samplerate>48000</samplerate>
									</samplecharacteristics>
									<channelcount>1</channelcount>
									<layout>mono</layout>
									<audiochannel>
										<sourcechannel>6</sourcechannel>
										<channellabel>discrete</channellabel>
									</audiochannel>
								</audio>
								<audio>
									<samplecharacteristics>
										<depth>16</depth>
										<samplerate>48000</samplerate>
									</samplecharacteristics>
									<channelcount>1</channelcount>
									<layout>mono</layout>
									<audiochannel>
										<sourcechannel>7</sourcechannel>
										<channellabel>discrete</channellabel>
									</audiochannel>
								</audio>
								<audio>
									<samplecharacteristics>
										<depth>16</depth>
										<samplerate>48000</samplerate>
									</samplecharacteristics>
									<channelcount>1</channelcount>
									<layout>mono</layout>
									<audiochannel>
										<sourcechannel>8</sourcechannel>
										<channellabel>discrete</channellabel>
									</audiochannel>
								</audio>
							</media>
						</file>
							<filter>
								<effect>
									<name>Basic Motion</name>
									<effectid>basic</effectid>
									<effectcategory>motion</effectcategory>
									<effecttype>motion</effecttype>
									<mediatype>video</mediatype>
									<parameter authoringApp="PremierePro">
										<parameterid>scale</parameterid>
										<name>Scale</name>
										<valuemin>0</valuemin>
										<valuemax>1000</valuemax>
										<value>131</value>
									</parameter>
									<parameter authoringApp="PremierePro">
										<parameterid>rotation</parameterid>
										<name>Rotation</name>
										<valuemin>-8640</valuemin>
										<valuemax>8640</valuemax>
										<value>0</value>
									</parameter>
									<parameter authoringApp="PremierePro">
										<parameterid>center</parameterid>
										<name>Center</name>
										<value>
											<horiz>0</horiz>
											<vert>0</vert>
										</value>
									</parameter>
									<parameter authoringApp="PremierePro">
										<parameterid>centerOffset</parameterid>
										<name>Anchor Point</name>
										<value>
											<horiz>0</horiz>
											<vert>0</vert>
										</value>
									</parameter>
								</effect>
							</filter>
							<filter>
								<effect>
									<name>Distort</name>
									<effectid>deformation</effectid>
									<effectcategory>motion</effectcategory>
									<effecttype>motion</effecttype>
									<mediatype>video</mediatype>
									<parameter authoringApp="PremierePro">
										<parameterid>aspect</parameterid>
										<name>Aspect</name>
										<valuemin>-10000</valuemin>
										<valuemax>10000</valuemax>
										<value>-43.3162</value>
									</parameter>
								</effect>
							</filter>
						<link>
							<linkclipref>clipitem-986</linkclipref>
							<mediatype>video</mediatype>
							<trackindex>1</trackindex>
							<clipindex>20</clipindex>
						</link>
						<link>
							<linkclipref>clipitem-1197</linkclipref>
							<mediatype>audio</mediatype>
							<trackindex>1</trackindex>
							<clipindex>12</clipindex>
						</link>
						<link>
							<linkclipref>clipitem-1295</linkclipref>
							<mediatype>audio</mediatype>
							<trackindex>2</trackindex>
							<clipindex>5</clipindex>
						</link>
						<logginginfo>
							<description></description>
							<scene></scene>
							<shottake></shottake>
							<lognote></lognote>
						</logginginfo>
						<labels>
							<label2>Iris</label2>
						</labels>
					</clipitem>
					<clipitem id="clipitem-987" frameBlend="FALSE">
						<masterclipid>masterclip-270</masterclipid>
						<name>SC-DKNO99010215AA_p0.mxf</name>
						<enabled>TRUE</enabled>
						<duration>4003</duration>
						<rate>
							<timebase>25</timebase>
							<ntsc>FALSE</ntsc>
						</rate>
						<start>1338</start>
						<end>1352</end>
						<in>1028</in>
						<out>1042</out>
						<pproTicksIn>10445137920000</pproTicksIn>
						<pproTicksOut>10587386880000</pproTicksOut>
						<alphatype>none</alphatype>
						<file id="file-260"/>
							<filter>
								<effect>
									<name>Basic Motion</name>
									<effectid>basic</effectid>
									<effectcategory>motion</effectcategory>
									<effecttype>motion</effecttype>
									<mediatype>video</mediatype>
									<parameter authoringApp="PremierePro">
										<parameterid>scale</parameterid>
										<name>Scale</name>
										<valuemin>0</valuemin>
										<valuemax>1000</valuemax>
										<value>131</value>
									</parameter>
									<parameter authoringApp="PremierePro">
										<parameterid>rotation</parameterid>
										<name>Rotation</name>
										<valuemin>-8640</valuemin>
										<valuemax>8640</valuemax>
										<value>0</value>
									</parameter>
									<parameter authoringApp="PremierePro">
										<parameterid>center</parameterid>
										<name>Center</name>
										<value>
											<horiz>0</horiz>
											<vert>0</vert>
										</value>
									</parameter>
									<parameter authoringApp="PremierePro">
										<parameterid>centerOffset</parameterid>
										<name>Anchor Point</name>
										<value>
											<horiz>0</horiz>
											<vert>0</vert>
										</value>
									</parameter>
								</effect>
							</filter>
							<filter>
								<effect>
									<name>Distort</name>
									<effectid>deformation</effectid>
									<effectcategory>motion</effectcategory>
									<effecttype>motion</effecttype>
									<mediatype>video</mediatype>
									<parameter authoringApp="PremierePro">
										<parameterid>aspect</parameterid>
										<name>Aspect</name>
										<valuemin>-10000</valuemin>
										<valuemax>10000</valuemax>
										<value>-43.3162</value>
									</parameter>
								</effect>
							</filter>
						<link>
							<linkclipref>clipitem-987</linkclipref>
							<mediatype>video</mediatype>
							<trackindex>1</trackindex>
							<clipindex>21</clipindex>
						</link>
						<link>
							<linkclipref>clipitem-1198</linkclipref>
							<mediatype>audio</mediatype>
							<trackindex>1</trackindex>
							<clipindex>13</clipindex>
						</link>
						<link>
							<linkclipref>clipitem-1296</linkclipref>
							<mediatype>audio</mediatype>
							<trackindex>2</trackindex>
							<clipindex>6</clipindex>
						</link>
						<logginginfo>
							<description></description>
							<scene></scene>
							<shottake></shottake>
							<lognote></lognote>
						</logginginfo>
						<labels>
							<label2>Iris</label2>
						</labels>
					</clipitem>
					<clipitem id="clipitem-988" frameBlend="FALSE">
						<masterclipid>masterclip-268</masterclipid>
						<name>SC-RO1840-CF-020812-RO_p0.mxf</name>
						<enabled>TRUE</enabled>
						<duration>3342</duration>
						<rate>
							<timebase>25</timebase>
							<ntsc>FALSE</ntsc>
						</rate>
						<start>1352</start>
						<end>1369</end>
						<in>2060</in>
						<out>2077</out>
						<pproTicksIn>20930918400000</pproTicksIn>
						<pproTicksOut>21103649280000</pproTicksOut>
						<alphatype>none</alphatype>
						<file id="file-258"/>
							<filter>
								<effect>
									<name>Basic Motion</name>
									<effectid>basic</effectid>
									<effectcategory>motion</effectcategory>
									<effecttype>motion</effecttype>
									<mediatype>video</mediatype>
									<parameter authoringApp="PremierePro">
										<parameterid>scale</parameterid>
										<name>Scale</name>
										<valuemin>0</valuemin>
										<valuemax>1000</valuemax>
										<value>131</value>
									</parameter>
									<parameter authoringApp="PremierePro">
										<parameterid>rotation</parameterid>
										<name>Rotation</name>
										<valuemin>-8640</valuemin>
										<valuemax>8640</valuemax>
										<value>0</value>
									</parameter>
									<parameter authoringApp="PremierePro">
										<parameterid>center</parameterid>
										<name>Center</name>
										<value>
											<horiz>0</horiz>
											<vert>0</vert>
										</value>
									</parameter>
									<parameter authoringApp="PremierePro">
										<parameterid>centerOffset</parameterid>
										<name>Anchor Point</name>
										<value>
											<horiz>0</horiz>
											<vert>0</vert>
										</value>
									</parameter>
								</effect>
							</filter>
							<filter>
								<effect>
									<name>Distort</name>
									<effectid>deformation</effectid>
									<effectcategory>motion</effectcategory>
									<effecttype>motion</effecttype>
									<mediatype>video</mediatype>
									<parameter authoringApp="PremierePro">
										<parameterid>aspect</parameterid>
										<name>Aspect</name>
										<valuemin>-10000</valuemin>
										<valuemax>10000</valuemax>
										<value>-43.3162</value>
									</parameter>
								</effect>
							</filter>
						<link>
							<linkclipref>clipitem-988</linkclipref>
							<mediatype>video</mediatype>
							<trackindex>1</trackindex>
							<clipindex>22</clipindex>
						</link>
						<link>
							<linkclipref>clipitem-1199</linkclipref>
							<mediatype>audio</mediatype>
							<trackindex>1</trackindex>
							<clipindex>14</clipindex>
						</link>
						<link>
							<linkclipref>clipitem-1297</linkclipref>
							<mediatype>audio</mediatype>
							<trackindex>2</trackindex>
							<clipindex>7</clipindex>
						</link>
						<logginginfo>
							<description></description>
							<scene></scene>
							<shottake></shottake>
							<lognote></lognote>
						</logginginfo>
						<labels>
							<label2>Iris</label2>
						</labels>
					</clipitem>
					<clipitem id="clipitem-989" frameBlend="FALSE">
						<masterclipid>masterclip-270</masterclipid>
						<name>SC-DKNO99010215AA_p0.mxf</name>
						<enabled>TRUE</enabled>
						<duration>4003</duration>
						<rate>
							<timebase>25</timebase>
							<ntsc>FALSE</ntsc>
						</rate>
						<start>1369</start>
						<end>1386</end>
						<in>1175</in>
						<out>1192</out>
						<pproTicksIn>11938752000000</pproTicksIn>
						<pproTicksOut>12111482880000</pproTicksOut>
						<alphatype>none</alphatype>
						<file id="file-260"/>
							<filter>
								<effect>
									<name>Basic Motion</name>
									<effectid>basic</effectid>
									<effectcategory>motion</effectcategory>
									<effecttype>motion</effecttype>
									<mediatype>video</mediatype>
									<parameter authoringApp="PremierePro">
										<parameterid>scale</parameterid>
										<name>Scale</name>
										<valuemin>0</valuemin>
										<valuemax>1000</valuemax>
										<value>131</value>
									</parameter>
									<parameter authoringApp="PremierePro">
										<parameterid>rotation</parameterid>
										<name>Rotation</name>
										<valuemin>-8640</valuemin>
										<valuemax>8640</valuemax>
										<value>0</value>
									</parameter>
									<parameter authoringApp="PremierePro">
										<parameterid>center</parameterid>
										<name>Center</name>
										<value>
											<horiz>0</horiz>
											<vert>0</vert>
										</value>
									</parameter>
									<parameter authoringApp="PremierePro">
										<parameterid>centerOffset</parameterid>
										<name>Anchor Point</name>
										<value>
											<horiz>0</horiz>
											<vert>0</vert>
										</value>
									</parameter>
								</effect>
							</filter>
							<filter>
								<effect>
									<name>Distort</name>
									<effectid>deformation</effectid>
									<effectcategory>motion</effectcategory>
									<effecttype>motion</effecttype>
									<mediatype>video</mediatype>
									<parameter authoringApp="PremierePro">
										<parameterid>aspect</parameterid>
										<name>Aspect</name>
										<valuemin>-10000</valuemin>
										<valuemax>10000</valuemax>
										<value>-43.3162</value>
									</parameter>
								</effect>
							</filter>
						<link>
							<linkclipref>clipitem-989</linkclipref>
							<mediatype>video</mediatype>
							<trackindex>1</trackindex>
							<clipindex>23</clipindex>
						</link>
						<link>
							<linkclipref>clipitem-1200</linkclipref>
							<mediatype>audio</mediatype>
							<trackindex>1</trackindex>
							<clipindex>15</clipindex>
						</link>
						<link>
							<linkclipref>clipitem-1298</linkclipref>
							<mediatype>audio</mediatype>
							<trackindex>2</trackindex>
							<clipindex>8</clipindex>
						</link>
						<logginginfo>
							<description></description>
							<scene></scene>
							<shottake></shottake>
							<lognote></lognote>
						</logginginfo>
						<labels>
							<label2>Iris</label2>
						</labels>
					</clipitem>
					<clipitem id="clipitem-990" frameBlend="FALSE">
						<masterclipid>masterclip-269</masterclipid>
						<name>SC-DKMR99091615AA_p0.mxf</name>
						<enabled>TRUE</enabled>
						<duration>3492</duration>
						<rate>
							<timebase>25</timebase>
							<ntsc>FALSE</ntsc>
						</rate>
						<start>1386</start>
						<end>1514</end>
						<in>2485</in>
						<out>2613</out>
						<pproTicksIn>25249190400000</pproTicksIn>
						<pproTicksOut>26549752320000</pproTicksOut>
						<alphatype>none</alphatype>
						<file id="file-259"/>
						<link>
							<linkclipref>clipitem-990</linkclipref>
							<mediatype>video</mediatype>
							<trackindex>1</trackindex>
							<clipindex>24</clipindex>
						</link>
						<link>
							<linkclipref>clipitem-1355</linkclipref>
							<mediatype>audio</mediatype>
							<trackindex>3</trackindex>
							<clipindex>3</clipindex>
						</link>
						<link>
							<linkclipref>clipitem-1387</linkclipref>
							<mediatype>audio</mediatype>
							<trackindex>4</trackindex>
							<clipindex>3</clipindex>
						</link>
						<logginginfo>
							<description></description>
							<scene></scene>
							<shottake></shottake>
							<lognote></lognote>
						</logginginfo>
						<labels>
							<label2>Iris</label2>
						</labels>
					</clipitem>
					<clipitem id="clipitem-991" frameBlend="FALSE">
						<masterclipid>masterclip-271</masterclipid>
						<name>AA0135</name>
						<enabled>TRUE</enabled>
						<duration>1836</duration>
						<rate>
							<timebase>25</timebase>
							<ntsc>FALSE</ntsc>
						</rate>
						<start>1514</start>
						<end>1605</end>
						<in>1528</in>
						<out>1619</out>
						<pproTicksIn>15525457920000</pproTicksIn>
						<pproTicksOut>16450076160000</pproTicksOut>
						<alphatype>none</alphatype>
						<pixelaspectratio>square</pixelaspectratio>
						<anamorphic>FALSE</anamorphic>
						<file id="file-261">
							<name>AA0135</name>
							<pathurl>file://localhost/Volumes/Brakka/AdobeLager/Katta/Katta-16xxxx-Klimabloffen-Chris/02-Video/Tomat/5%20i%20butikk/CONTENTS/CLIPS001/AA0135/AA013501.MXF</pathurl>
							<rate>
								<timebase>25</timebase>
								<ntsc>FALSE</ntsc>
							</rate>
							<duration>1836</duration>
							<timecode>
								<rate>
									<timebase>25</timebase>
									<ntsc>FALSE</ntsc>
								</rate>
								<string>04:24:17:11</string>
								<frame>396436</frame>
								<displayformat>NDF</displayformat>
								<reel>
									<name></name>
								</reel>
							</timecode>
							<media>
								<video>
									<samplecharacteristics>
										<rate>
											<timebase>25</timebase>
											<ntsc>FALSE</ntsc>
										</rate>
										<width>1920</width>
										<height>1080</height>
										<anamorphic>FALSE</anamorphic>
										<pixelaspectratio>square</pixelaspectratio>
										<fielddominance>upper</fielddominance>
									</samplecharacteristics>
								</video>
								<audio>
									<samplecharacteristics>
										<depth>16</depth>
										<samplerate>48000</samplerate>
									</samplecharacteristics>
									<channelcount>1</channelcount>
									<layout>stereo</layout>
									<audiochannel>
										<sourcechannel>1</sourcechannel>
										<channellabel>left</channellabel>
									</audiochannel>
								</audio>
								<audio>
									<samplecharacteristics>
										<depth>16</depth>
										<samplerate>48000</samplerate>
									</samplecharacteristics>
									<channelcount>1</channelcount>
									<layout>stereo</layout>
									<audiochannel>
										<sourcechannel>2</sourcechannel>
										<channellabel>right</channellabel>
									</audiochannel>
								</audio>
							</media>
						</file>
						<link>
							<linkclipref>clipitem-991</linkclipref>
							<mediatype>video</mediatype>
							<trackindex>1</trackindex>
							<clipindex>25</clipindex>
						</link>
						<link>
							<linkclipref>clipitem-1356</linkclipref>
							<mediatype>audio</mediatype>
							<trackindex>3</trackindex>
							<clipindex>4</clipindex>
						</link>
						<link>
							<linkclipref>clipitem-1388</linkclipref>
							<mediatype>audio</mediatype>
							<trackindex>4</trackindex>
							<clipindex>4</clipindex>
						</link>
						<logginginfo>
							<description></description>
							<scene></scene>
							<shottake>AA0135</shottake>
							<lognote></lognote>
						</logginginfo>
						<labels>
							<label2>Iris</label2>
						</labels>
					</clipitem>
					<clipitem id="clipitem-992" frameBlend="FALSE">
						<masterclipid>masterclip-272</masterclipid>
						<name>AA3112</name>
						<enabled>TRUE</enabled>
						<duration>1500</duration>
						<rate>
							<timebase>25</timebase>
							<ntsc>FALSE</ntsc>
						</rate>
						<start>1605</start>
						<end>1771</end>
						<in>893</in>
						<out>1059</out>
						<pproTicksIn>9073451520000</pproTicksIn>
						<pproTicksOut>10760117760000</pproTicksOut>
						<alphatype>none</alphatype>
						<pixelaspectratio>square</pixelaspectratio>
						<anamorphic>FALSE</anamorphic>
						<file id="file-262">
							<name>AA3112</name>
							<pathurl>file://localhost/Volumes/Brakka/AdobeLager/Katta/Katta-16xxxx-Klimabloffen-Chris/02-Video/Felles/Dora%201/CONTENTS/CLIPS001/AA3112/AA311201.MXF</pathurl>
							<rate>
								<timebase>25</timebase>
								<ntsc>FALSE</ntsc>
							</rate>
							<duration>1500</duration>
							<timecode>
								<rate>
									<timebase>25</timebase>
									<ntsc>FALSE</ntsc>
								</rate>
								<string>00:00:50:22</string>
								<frame>1272</frame>
								<displayformat>NDF</displayformat>
								<reel>
									<name></name>
								</reel>
							</timecode>
							<media>
								<video>
									<samplecharacteristics>
										<rate>
											<timebase>25</timebase>
											<ntsc>FALSE</ntsc>
										</rate>
										<width>1920</width>
										<height>1080</height>
										<anamorphic>FALSE</anamorphic>
										<pixelaspectratio>square</pixelaspectratio>
										<fielddominance>none</fielddominance>
									</samplecharacteristics>
								</video>
								<audio>
									<samplecharacteristics>
										<depth>16</depth>
										<samplerate>48000</samplerate>
									</samplecharacteristics>
									<channelcount>1</channelcount>
									<layout>stereo</layout>
									<audiochannel>
										<sourcechannel>1</sourcechannel>
										<channellabel>left</channellabel>
									</audiochannel>
								</audio>
								<audio>
									<samplecharacteristics>
										<depth>16</depth>
										<samplerate>48000</samplerate>
									</samplecharacteristics>
									<channelcount>1</channelcount>
									<layout>stereo</layout>
									<audiochannel>
										<sourcechannel>2</sourcechannel>
										<channellabel>right</channellabel>
									</audiochannel>
								</audio>
							</media>
						</file>
						<logginginfo>
							<description></description>
							<scene></scene>
							<shottake>AA3112</shottake>
							<lognote></lognote>
						</logginginfo>
						<labels>
							<label2>Iris</label2>
						</labels>
					</clipitem>
					<clipitem id="clipitem-993" frameBlend="FALSE">
						<masterclipid>masterclip-273</masterclipid>
						<name>AA3123</name>
						<enabled>TRUE</enabled>
						<duration>8676</duration>
						<rate>
							<timebase>25</timebase>
							<ntsc>FALSE</ntsc>
						</rate>
						<start>1771</start>
						<end>1833</end>
						<in>2524</in>
						<out>2586</out>
						<pproTicksIn>25645455360000</pproTicksIn>
						<pproTicksOut>26275415040000</pproTicksOut>
						<alphatype>none</alphatype>
						<pixelaspectratio>square</pixelaspectratio>
						<anamorphic>FALSE</anamorphic>
						<file id="file-263">
							<name>AA3123</name>
							<pathurl>file://localhost/Volumes/Brakka/AdobeLager/Katta/Katta-16xxxx-Klimabloffen-Chris/02-Video/Felles/Dora%201/CONTENTS/CLIPS001/AA3123/AA312301.MXF</pathurl>
							<rate>
								<timebase>25</timebase>
								<ntsc>FALSE</ntsc>
							</rate>
							<duration>8676</duration>
							<timecode>
								<rate>
									<timebase>25</timebase>
									<ntsc>FALSE</ntsc>
								</rate>
								<string>00:21:39:09</string>
								<frame>32484</frame>
								<displayformat>NDF</displayformat>
								<reel>
									<name></name>
								</reel>
							</timecode>
							<media>
								<video>
									<samplecharacteristics>
										<rate>
											<timebase>25</timebase>
											<ntsc>FALSE</ntsc>
										</rate>
										<width>1920</width>
										<height>1080</height>
										<anamorphic>FALSE</anamorphic>
										<pixelaspectratio>square</pixelaspectratio>
										<fielddominance>none</fielddominance>
									</samplecharacteristics>
								</video>
								<audio>
									<samplecharacteristics>
										<depth>16</depth>
										<samplerate>48000</samplerate>
									</samplecharacteristics>
									<channelcount>1</channelcount>
									<layout>stereo</layout>
									<audiochannel>
										<sourcechannel>1</sourcechannel>
										<channellabel>left</channellabel>
									</audiochannel>
								</audio>
								<audio>
									<samplecharacteristics>
										<depth>16</depth>
										<samplerate>48000</samplerate>
									</samplecharacteristics>
									<channelcount>1</channelcount>
									<layout>stereo</layout>
									<audiochannel>
										<sourcechannel>2</sourcechannel>
										<channellabel>right</channellabel>
									</audiochannel>
								</audio>
							</media>
						</file>
						<logginginfo>
							<description></description>
							<scene></scene>
							<shottake>AA3123</shottake>
							<lognote></lognote>
						</logginginfo>
						<labels>
							<label2>Iris</label2>
						</labels>
					</clipitem>
					<clipitem id="clipitem-994" frameBlend="FALSE">
						<masterclipid>masterclip-272</masterclipid>
						<name>AA3112</name>
						<enabled>TRUE</enabled>
						<duration>1500</duration>
						<rate>
							<timebase>25</timebase>
							<ntsc>FALSE</ntsc>
						</rate>
						<start>1833</start>
						<end>1976</end>
						<in>1111</in>
						<out>1254</out>
						<pproTicksIn>11288471040000</pproTicksIn>
						<pproTicksOut>12741442560000</pproTicksOut>
						<alphatype>none</alphatype>
						<file id="file-262"/>
						<logginginfo>
							<description></description>
							<scene></scene>
							<shottake>AA3112</shottake>
							<lognote></lognote>
						</logginginfo>
						<labels>
							<label2>Iris</label2>
						</labels>
					</clipitem>
					<clipitem id="clipitem-995" frameBlend="FALSE">
						<masterclipid>masterclip-274</masterclipid>
						<name>AA3130</name>
						<enabled>TRUE</enabled>
						<duration>780</duration>
						<rate>
							<timebase>25</timebase>
							<ntsc>FALSE</ntsc>
						</rate>
						<start>1976</start>
						<end>2072</end>
						<in>316</in>
						<out>412</out>
						<pproTicksIn>3210762240000</pproTicksIn>
						<pproTicksOut>4186183680000</pproTicksOut>
						<alphatype>none</alphatype>
						<pixelaspectratio>square</pixelaspectratio>
						<anamorphic>FALSE</anamorphic>
						<file id="file-264">
							<name>AA3130</name>
							<pathurl>file://localhost/Volumes/Brakka/AdobeLager/Katta/Katta-16xxxx-Klimabloffen-Chris/02-Video/Felles/Dora%201/CONTENTS/CLIPS001/AA3130/AA313001.MXF</pathurl>
							<rate>
								<timebase>25</timebase>
								<ntsc>FALSE</ntsc>
							</rate>
							<duration>780</duration>
							<timecode>
								<rate>
									<timebase>25</timebase>
									<ntsc>FALSE</ntsc>
								</rate>
								<string>00:35:18:18</string>
								<frame>52968</frame>
								<displayformat>NDF</displayformat>
								<reel>
									<name></name>
								</reel>
							</timecode>
							<media>
								<video>
									<samplecharacteristics>
										<rate>
											<timebase>25</timebase>
											<ntsc>FALSE</ntsc>
										</rate>
										<width>1920</width>
										<height>1080</height>
										<anamorphic>FALSE</anamorphic>
										<pixelaspectratio>square</pixelaspectratio>
										<fielddominance>none</fielddominance>
									</samplecharacteristics>
								</video>
								<audio>
									<samplecharacteristics>
										<depth>16</depth>
										<samplerate>48000</samplerate>
									</samplecharacteristics>
									<channelcount>1</channelcount>
									<layout>stereo</layout>
									<audiochannel>
										<sourcechannel>1</sourcechannel>
										<channellabel>left</channellabel>
									</audiochannel>
								</audio>
								<audio>
									<samplecharacteristics>
										<depth>16</depth>
										<samplerate>48000</samplerate>
									</samplecharacteristics>
									<channelcount>1</channelcount>
									<layout>stereo</layout>
									<audiochannel>
										<sourcechannel>2</sourcechannel>
										<channellabel>right</channellabel>
									</audiochannel>
								</audio>
							</media>
						</file>
						<logginginfo>
							<description></description>
							<scene></scene>
							<shottake>AA3130</shottake>
							<lognote></lognote>
						</logginginfo>
						<labels>
							<label2>Iris</label2>
						</labels>
					</clipitem>
					<clipitem id="clipitem-996" frameBlend="FALSE">
						<masterclipid>masterclip-275</masterclipid>
						<name>AA3114</name>
						<enabled>TRUE</enabled>
						<duration>1884</duration>
						<rate>
							<timebase>25</timebase>
							<ntsc>FALSE</ntsc>
						</rate>
						<start>2072</start>
						<end>2285</end>
						<in>415</in>
						<out>628</out>
						<pproTicksIn>4216665600000</pproTicksIn>
						<pproTicksOut>6380881920000</pproTicksOut>
						<alphatype>none</alphatype>
						<pixelaspectratio>square</pixelaspectratio>
						<anamorphic>FALSE</anamorphic>
						<file id="file-265">
							<name>AA3114</name>
							<pathurl>file://localhost/Volumes/Brakka/AdobeLager/Katta/Katta-16xxxx-Klimabloffen-Chris/02-Video/Felles/Dora%201/CONTENTS/CLIPS001/AA3114/AA311401.MXF</pathurl>
							<rate>
								<timebase>25</timebase>
								<ntsc>FALSE</ntsc>
							</rate>
							<duration>1884</duration>
							<timecode>
								<rate>
									<timebase>25</timebase>
									<ntsc>FALSE</ntsc>
								</rate>
								<string>00:03:32:16</string>
								<frame>5316</frame>
								<displayformat>NDF</displayformat>
								<reel>
									<name></name>
								</reel>
							</timecode>
							<media>
								<video>
									<samplecharacteristics>
										<rate>
											<timebase>25</timebase>
											<ntsc>FALSE</ntsc>
										</rate>
										<width>1920</width>
										<height>1080</height>
										<anamorphic>FALSE</anamorphic>
										<pixelaspectratio>square</pixelaspectratio>
										<fielddominance>none</fielddominance>
									</samplecharacteristics>
								</video>
								<audio>
									<samplecharacteristics>
										<depth>16</depth>
										<samplerate>48000</samplerate>
									</samplecharacteristics>
									<channelcount>1</channelcount>
									<layout>stereo</layout>
									<audiochannel>
										<sourcechannel>1</sourcechannel>
										<channellabel>left</channellabel>
									</audiochannel>
								</audio>
								<audio>
									<samplecharacteristics>
										<depth>16</depth>
										<samplerate>48000</samplerate>
									</samplecharacteristics>
									<channelcount>1</channelcount>
									<layout>stereo</layout>
									<audiochannel>
										<sourcechannel>2</sourcechannel>
										<channellabel>right</channellabel>
									</audiochannel>
								</audio>
							</media>
						</file>
						<logginginfo>
							<description></description>
							<scene></scene>
							<shottake>AA3114</shottake>
							<lognote></lognote>
						</logginginfo>
						<labels>
							<label2>Iris</label2>
						</labels>
					</clipitem>
					<clipitem id="clipitem-997" frameBlend="FALSE">
						<masterclipid>masterclip-273</masterclipid>
						<name>AA3123</name>
						<enabled>TRUE</enabled>
						<duration>8676</duration>
						<rate>
							<timebase>25</timebase>
							<ntsc>FALSE</ntsc>
						</rate>
						<start>2285</start>
						<end>2362</end>
						<in>5238</in>
						<out>5315</out>
						<pproTicksIn>53221432320000</pproTicksIn>
						<pproTicksOut>54003801600000</pproTicksOut>
						<alphatype>none</alphatype>
						<file id="file-263"/>
						<logginginfo>
							<description></description>
							<scene></scene>
							<shottake>AA3123</shottake>
							<lognote></lognote>
						</logginginfo>
						<labels>
							<label2>Iris</label2>
						</labels>
					</clipitem>
					<clipitem id="clipitem-998" frameBlend="FALSE">
						<masterclipid>masterclip-276</masterclipid>
						<name>AA3126</name>
						<enabled>TRUE</enabled>
						<duration>3192</duration>
						<rate>
							<timebase>25</timebase>
							<ntsc>FALSE</ntsc>
						</rate>
						<start>2362</start>
						<end>2536</end>
						<in>121</in>
						<out>295</out>
						<pproTicksIn>1229437440000</pproTicksIn>
						<pproTicksOut>2997388800000</pproTicksOut>
						<alphatype>none</alphatype>
						<pixelaspectratio>square</pixelaspectratio>
						<anamorphic>FALSE</anamorphic>
						<file id="file-266">
							<name>AA3126</name>
							<pathurl>file://localhost/Volumes/Brakka/AdobeLager/Katta/Katta-16xxxx-Klimabloffen-Chris/02-Video/Felles/Dora%201/CONTENTS/CLIPS001/AA3126/AA312601.MXF</pathurl>
							<rate>
								<timebase>25</timebase>
								<ntsc>FALSE</ntsc>
							</rate>
							<duration>3192</duration>
							<timecode>
								<rate>
									<timebase>25</timebase>
									<ntsc>FALSE</ntsc>
								</rate>
								<string>00:30:24:24</string>
								<frame>45624</frame>
								<displayformat>NDF</displayformat>
								<reel>
									<name></name>
								</reel>
							</timecode>
							<media>
								<video>
									<samplecharacteristics>
										<rate>
											<timebase>25</timebase>
											<ntsc>FALSE</ntsc>
										</rate>
										<width>1920</width>
										<height>1080</height>
										<anamorphic>FALSE</anamorphic>
										<pixelaspectratio>square</pixelaspectratio>
										<fielddominance>none</fielddominance>
									</samplecharacteristics>
								</video>
								<audio>
									<samplecharacteristics>
										<depth>16</depth>
										<samplerate>48000</samplerate>
									</samplecharacteristics>
									<channelcount>1</channelcount>
									<layout>stereo</layout>
									<audiochannel>
										<sourcechannel>1</sourcechannel>
										<channellabel>left</channellabel>
									</audiochannel>
								</audio>
								<audio>
									<samplecharacteristics>
										<depth>16</depth>
										<samplerate>48000</samplerate>
									</samplecharacteristics>
									<channelcount>1</channelcount>
									<layout>stereo</layout>
									<audiochannel>
										<sourcechannel>2</sourcechannel>
										<channellabel>right</channellabel>
									</audiochannel>
								</audio>
							</media>
						</file>
						<logginginfo>
							<description></description>
							<scene></scene>
							<shottake>AA3126</shottake>
							<lognote></lognote>
						</logginginfo>
						<labels>
							<label2>Iris</label2>
						</labels>
					</clipitem>
					<clipitem id="clipitem-999" frameBlend="FALSE">
						<masterclipid>masterclip-277</masterclipid>
						<name>AA3127</name>
						<enabled>TRUE</enabled>
						<duration>3192</duration>
						<rate>
							<timebase>25</timebase>
							<ntsc>FALSE</ntsc>
						</rate>
						<start>2536</start>
						<end>2642</end>
						<in>1783</in>
						<out>1889</out>
						<pproTicksIn>18116421120000</pproTicksIn>
						<pproTicksOut>19193448960000</pproTicksOut>
						<alphatype>none</alphatype>
						<pixelaspectratio>square</pixelaspectratio>
						<anamorphic>FALSE</anamorphic>
						<file id="file-267">
							<name>AA3127</name>
							<pathurl>file://localhost/Volumes/Brakka/AdobeLager/Katta/Katta-16xxxx-Klimabloffen-Chris/02-Video/Felles/Dora%201/CONTENTS/CLIPS001/AA3127/AA312701.MXF</pathurl>
							<rate>
								<timebase>25</timebase>
								<ntsc>FALSE</ntsc>
							</rate>
							<duration>3192</duration>
							<timecode>
								<rate>
									<timebase>25</timebase>
									<ntsc>FALSE</ntsc>
								</rate>
								<string>00:32:32:16</string>
								<frame>48816</frame>
								<displayformat>NDF</displayformat>
								<reel>
									<name></name>
								</reel>
							</timecode>
							<media>
								<video>
									<samplecharacteristics>
										<rate>
											<timebase>25</timebase>
											<ntsc>FALSE</ntsc>
										</rate>
										<width>1920</width>
										<height>1080</height>
										<anamorphic>FALSE</anamorphic>
										<pixelaspectratio>square</pixelaspectratio>
										<fielddominance>none</fielddominance>
									</samplecharacteristics>
								</video>
								<audio>
									<samplecharacteristics>
										<depth>16</depth>
										<samplerate>48000</samplerate>
									</samplecharacteristics>
									<channelcount>1</channelcount>
									<layout>stereo</layout>
									<audiochannel>
										<sourcechannel>1</sourcechannel>
										<channellabel>left</channellabel>
									</audiochannel>
								</audio>
								<audio>
									<samplecharacteristics>
										<depth>16</depth>
										<samplerate>48000</samplerate>
									</samplecharacteristics>
									<channelcount>1</channelcount>
									<layout>stereo</layout>
									<audiochannel>
										<sourcechannel>2</sourcechannel>
										<channellabel>right</channellabel>
									</audiochannel>
								</audio>
							</media>
						</file>
						<logginginfo>
							<description></description>
							<scene></scene>
							<shottake>AA3127</shottake>
							<lognote></lognote>
						</logginginfo>
						<labels>
							<label2>Iris</label2>
						</labels>
					</clipitem>
					<clipitem id="clipitem-1000" frameBlend="FALSE">
						<masterclipid>masterclip-278</masterclipid>
						<name>AA3124</name>
						<enabled>TRUE</enabled>
						<duration>1596</duration>
						<rate>
							<timebase>25</timebase>
							<ntsc>FALSE</ntsc>
						</rate>
						<start>2642</start>
						<end>2693</end>
						<in>558</in>
						<out>609</out>
						<pproTicksIn>5669637120000</pproTicksIn>
						<pproTicksOut>6187829760000</pproTicksOut>
						<alphatype>none</alphatype>
						<pixelaspectratio>square</pixelaspectratio>
						<anamorphic>FALSE</anamorphic>
						<file id="file-268">
							<name>AA3124</name>
							<pathurl>file://localhost/Volumes/Brakka/AdobeLager/Katta/Katta-16xxxx-Klimabloffen-Chris/02-Video/Felles/Dora%201/CONTENTS/CLIPS001/AA3124/AA312401.MXF</pathurl>
							<rate>
								<timebase>25</timebase>
								<ntsc>FALSE</ntsc>
							</rate>
							<duration>1596</duration>
							<timecode>
								<rate>
									<timebase>25</timebase>
									<ntsc>FALSE</ntsc>
								</rate>
								<string>00:27:26:10</string>
								<frame>41160</frame>
								<displayformat>NDF</displayformat>
								<reel>
									<name></name>
								</reel>
							</timecode>
							<media>
								<video>
									<samplecharacteristics>
										<rate>
											<timebase>25</timebase>
											<ntsc>FALSE</ntsc>
										</rate>
										<width>1920</width>
										<height>1080</height>
										<anamorphic>FALSE</anamorphic>
										<pixelaspectratio>square</pixelaspectratio>
										<fielddominance>none</fielddominance>
									</samplecharacteristics>
								</video>
								<audio>
									<samplecharacteristics>
										<depth>16</depth>
										<samplerate>48000</samplerate>
									</samplecharacteristics>
									<channelcount>1</channelcount>
									<layout>stereo</layout>
									<audiochannel>
										<sourcechannel>1</sourcechannel>
										<channellabel>left</channellabel>
									</audiochannel>
								</audio>
								<audio>
									<samplecharacteristics>
										<depth>16</depth>
										<samplerate>48000</samplerate>
									</samplecharacteristics>
									<channelcount>1</channelcount>
									<layout>stereo</layout>
									<audiochannel>
										<sourcechannel>2</sourcechannel>
										<channellabel>right</channellabel>
									</audiochannel>
								</audio>
							</media>
						</file>
						<logginginfo>
							<description></description>
							<scene></scene>
							<shottake>AA3124</shottake>
							<lognote></lognote>
						</logginginfo>
						<labels>
							<label2>Iris</label2>
						</labels>
					</clipitem>
					<clipitem id="clipitem-1001" frameBlend="FALSE">
						<masterclipid>masterclip-273</masterclipid>
						<name>AA3123</name>
						<enabled>TRUE</enabled>
						<duration>8676</duration>
						<rate>
							<timebase>25</timebase>
							<ntsc>FALSE</ntsc>
						</rate>
						<start>2693</start>
						<end>2889</end>
						<in>8120</in>
						<out>8316</out>
						<pproTicksIn>82504396800000</pproTicksIn>
						<pproTicksOut>84495882240000</pproTicksOut>
						<alphatype>none</alphatype>
						<file id="file-263"/>
						<logginginfo>
							<description></description>
							<scene></scene>
							<shottake>AA3123</shottake>
							<lognote></lognote>
						</logginginfo>
						<labels>
							<label2>Iris</label2>
						</labels>
					</clipitem>
					<clipitem id="clipitem-1002" frameBlend="FALSE">
						<masterclipid>masterclip-278</masterclipid>
						<name>AA3124</name>
						<enabled>TRUE</enabled>
						<duration>1596</duration>
						<rate>
							<timebase>25</timebase>
							<ntsc>FALSE</ntsc>
						</rate>
						<start>2889</start>
						<end>3020</end>
						<in>1321</in>
						<out>1452</out>
						<pproTicksIn>13422205440000</pproTicksIn>
						<pproTicksOut>14753249280000</pproTicksOut>
						<alphatype>none</alphatype>
						<file id="file-268"/>
						<logginginfo>
							<description></description>
							<scene></scene>
							<shottake>AA3124</shottake>
							<lognote></lognote>
						</logginginfo>
						<labels>
							<label2>Iris</label2>
						</labels>
					</clipitem>
					<clipitem id="clipitem-1003" frameBlend="FALSE">
						<masterclipid>masterclip-279</masterclipid>
						<name>AA3160</name>
						<enabled>TRUE</enabled>
						<duration>408</duration>
						<rate>
							<timebase>25</timebase>
							<ntsc>FALSE</ntsc>
						</rate>
						<start>3020</start>
						<end>3078</end>
						<in>213</in>
						<out>271</out>
						<pproTicksIn>2164216320000</pproTicksIn>
						<pproTicksOut>2753533440000</pproTicksOut>
						<alphatype>none</alphatype>
						<pixelaspectratio>square</pixelaspectratio>
						<anamorphic>FALSE</anamorphic>
						<file id="file-269">
							<name>AA3160</name>
							<pathurl>file://localhost/Volumes/Brakka/AdobeLager/Katta/Katta-16xxxx-Klimabloffen-Chris/02-Video/Tomat/restaurant/C300%20restaurant/CONTENTS/CLIPS001/AA3160/AA316001.MXF</pathurl>
							<rate>
								<timebase>25</timebase>
								<ntsc>FALSE</ntsc>
							</rate>
							<duration>408</duration>
							<timecode>
								<rate>
									<timebase>25</timebase>
									<ntsc>FALSE</ntsc>
								</rate>
								<string>20:25:55:13</string>
								<frame>1838888</frame>
								<displayformat>NDF</displayformat>
								<reel>
									<name></name>
								</reel>
							</timecode>
							<media>
								<video>
									<samplecharacteristics>
										<rate>
											<timebase>25</timebase>
											<ntsc>FALSE</ntsc>
										</rate>
										<width>1920</width>
										<height>1080</height>
										<anamorphic>FALSE</anamorphic>
										<pixelaspectratio>square</pixelaspectratio>
										<fielddominance>none</fielddominance>
									</samplecharacteristics>
								</video>
								<audio>
									<samplecharacteristics>
										<depth>16</depth>
										<samplerate>48000</samplerate>
									</samplecharacteristics>
									<channelcount>1</channelcount>
									<layout>stereo</layout>
									<audiochannel>
										<sourcechannel>1</sourcechannel>
										<channellabel>left</channellabel>
									</audiochannel>
								</audio>
								<audio>
									<samplecharacteristics>
										<depth>16</depth>
										<samplerate>48000</samplerate>
									</samplecharacteristics>
									<channelcount>1</channelcount>
									<layout>stereo</layout>
									<audiochannel>
										<sourcechannel>2</sourcechannel>
										<channellabel>right</channellabel>
									</audiochannel>
								</audio>
							</media>
						</file>
						<link>
							<linkclipref>clipitem-1003</linkclipref>
							<mediatype>video</mediatype>
							<trackindex>1</trackindex>
							<clipindex>37</clipindex>
						</link>
						<link>
							<linkclipref>clipitem-1357</linkclipref>
							<mediatype>audio</mediatype>
							<trackindex>3</trackindex>
							<clipindex>5</clipindex>
						</link>
						<logginginfo>
							<description></description>
							<scene></scene>
							<shottake>AA3160</shottake>
							<lognote></lognote>
						</logginginfo>
						<labels>
							<label2>Iris</label2>
						</labels>
					</clipitem>
					<clipitem id="clipitem-1004" frameBlend="FALSE">
						<masterclipid>masterclip-280</masterclipid>
						<name>AA3162</name>
						<enabled>TRUE</enabled>
						<duration>540</duration>
						<rate>
							<timebase>25</timebase>
							<ntsc>FALSE</ntsc>
						</rate>
						<start>3078</start>
						<end>3240</end>
						<in>142</in>
						<out>304</out>
						<pproTicksIn>1442810880000</pproTicksIn>
						<pproTicksOut>3088834560000</pproTicksOut>
						<alphatype>none</alphatype>
						<pixelaspectratio>square</pixelaspectratio>
						<anamorphic>FALSE</anamorphic>
						<file id="file-270">
							<name>AA3162</name>
							<pathurl>file://localhost/Volumes/Brakka/AdobeLager/Katta/Katta-16xxxx-Klimabloffen-Chris/02-Video/Tomat/restaurant/C300%20restaurant/CONTENTS/CLIPS001/AA3162/AA316201.MXF</pathurl>
							<rate>
								<timebase>25</timebase>
								<ntsc>FALSE</ntsc>
							</rate>
							<duration>540</duration>
							<timecode>
								<rate>
									<timebase>25</timebase>
									<ntsc>FALSE</ntsc>
								</rate>
								<string>20:28:03:17</string>
								<frame>1842092</frame>
								<displayformat>NDF</displayformat>
								<reel>
									<name></name>
								</reel>
							</timecode>
							<media>
								<video>
									<samplecharacteristics>
										<rate>
											<timebase>25</timebase>
											<ntsc>FALSE</ntsc>
										</rate>
										<width>1920</width>
										<height>1080</height>
										<anamorphic>FALSE</anamorphic>
										<pixelaspectratio>square</pixelaspectratio>
										<fielddominance>none</fielddominance>
									</samplecharacteristics>
								</video>
								<audio>
									<samplecharacteristics>
										<depth>16</depth>
										<samplerate>48000</samplerate>
									</samplecharacteristics>
									<channelcount>1</channelcount>
									<layout>stereo</layout>
									<audiochannel>
										<sourcechannel>1</sourcechannel>
										<channellabel>left</channellabel>
									</audiochannel>
								</audio>
								<audio>
									<samplecharacteristics>
										<depth>16</depth>
										<samplerate>48000</samplerate>
									</samplecharacteristics>
									<channelcount>1</channelcount>
									<layout>stereo</layout>
									<audiochannel>
										<sourcechannel>2</sourcechannel>
										<channellabel>right</channellabel>
									</audiochannel>
								</audio>
							</media>
						</file>
						<link>
							<linkclipref>clipitem-1004</linkclipref>
							<mediatype>video</mediatype>
							<trackindex>1</trackindex>
							<clipindex>38</clipindex>
						</link>
						<link>
							<linkclipref>clipitem-1204</linkclipref>
							<mediatype>audio</mediatype>
							<trackindex>1</trackindex>
							<clipindex>19</clipindex>
						</link>
						<logginginfo>
							<description></description>
							<scene></scene>
							<shottake>AA3162</shottake>
							<lognote></lognote>
						</logginginfo>
						<labels>
							<label2>Iris</label2>
						</labels>
					</clipitem>
					<clipitem id="clipitem-1005" frameBlend="FALSE">
						<masterclipid>masterclip-281</masterclipid>
						<name>AA3220</name>
						<enabled>TRUE</enabled>
						<duration>7764</duration>
						<rate>
							<timebase>25</timebase>
							<ntsc>FALSE</ntsc>
						</rate>
						<start>3240</start>
						<end>3266</end>
						<in>6093</in>
						<out>6119</out>
						<pproTicksIn>61908779520000</pproTicksIn>
						<pproTicksOut>62172956160000</pproTicksOut>
						<alphatype>none</alphatype>
						<pixelaspectratio>square</pixelaspectratio>
						<anamorphic>FALSE</anamorphic>
						<file id="file-271">
							<name>AA3220</name>
							<pathurl>file://localhost/Volumes/Brakka/AdobeLager/Katta/Katta-16xxxx-Klimabloffen-Chris/02-Video/Tomat/restaurant/C300%20restaurant/CONTENTS/CLIPS001/AA3220/AA322001.MXF</pathurl>
							<rate>
								<timebase>25</timebase>
								<ntsc>FALSE</ntsc>
							</rate>
							<duration>7764</duration>
							<timecode>
								<rate>
									<timebase>25</timebase>
									<ntsc>FALSE</ntsc>
								</rate>
								<string>23:56:50:11</string>
								<frame>2155261</frame>
								<displayformat>NDF</displayformat>
								<reel>
									<name></name>
								</reel>
							</timecode>
							<media>
								<video>
									<samplecharacteristics>
										<rate>
											<timebase>25</timebase>
											<ntsc>FALSE</ntsc>
										</rate>
										<width>1920</width>
										<height>1080</height>
										<anamorphic>FALSE</anamorphic>
										<pixelaspectratio>square</pixelaspectratio>
										<fielddominance>none</fielddominance>
									</samplecharacteristics>
								</video>
								<audio>
									<samplecharacteristics>
										<depth>16</depth>
										<samplerate>48000</samplerate>
									</samplecharacteristics>
									<channelcount>1</channelcount>
									<layout>stereo</layout>
									<audiochannel>
										<sourcechannel>1</sourcechannel>
										<channellabel>left</channellabel>
									</audiochannel>
								</audio>
								<audio>
									<samplecharacteristics>
										<depth>16</depth>
										<samplerate>48000</samplerate>
									</samplecharacteristics>
									<channelcount>1</channelcount>
									<layout>stereo</layout>
									<audiochannel>
										<sourcechannel>2</sourcechannel>
										<channellabel>right</channellabel>
									</audiochannel>
								</audio>
							</media>
						</file>
						<link>
							<linkclipref>clipitem-1005</linkclipref>
							<mediatype>video</mediatype>
							<trackindex>1</trackindex>
							<clipindex>39</clipindex>
						</link>
						<link>
							<linkclipref>clipitem-1358</linkclipref>
							<mediatype>audio</mediatype>
							<trackindex>3</trackindex>
							<clipindex>6</clipindex>
						</link>
						<logginginfo>
							<description></description>
							<scene></scene>
							<shottake>AA3220</shottake>
							<lognote></lognote>
						</logginginfo>
						<labels>
							<label2>Iris</label2>
						</labels>
					</clipitem>
					<clipitem id="clipitem-1006" frameBlend="FALSE">
						<masterclipid>masterclip-281</masterclipid>
						<name>AA3220</name>
						<enabled>TRUE</enabled>
						<duration>7764</duration>
						<rate>
							<timebase>25</timebase>
							<ntsc>FALSE</ntsc>
						</rate>
						<start>3266</start>
						<end>3297</end>
						<in>2138</in>
						<out>2169</out>
						<pproTicksIn>21723448320000</pproTicksIn>
						<pproTicksOut>22038428160000</pproTicksOut>
						<alphatype>none</alphatype>
						<file id="file-271"/>
						<link>
							<linkclipref>clipitem-1006</linkclipref>
							<mediatype>video</mediatype>
							<trackindex>1</trackindex>
							<clipindex>40</clipindex>
						</link>
						<link>
							<linkclipref>clipitem-1359</linkclipref>
							<mediatype>audio</mediatype>
							<trackindex>3</trackindex>
							<clipindex>7</clipindex>
						</link>
						<logginginfo>
							<description></description>
							<scene></scene>
							<shottake>AA3220</shottake>
							<lognote></lognote>
						</logginginfo>
						<labels>
							<label2>Iris</label2>
						</labels>
					</clipitem>
					<clipitem id="clipitem-1007" frameBlend="FALSE">
						<masterclipid>masterclip-281</masterclipid>
						<name>AA3220</name>
						<enabled>TRUE</enabled>
						<duration>7764</duration>
						<rate>
							<timebase>25</timebase>
							<ntsc>FALSE</ntsc>
						</rate>
						<start>3297</start>
						<end>3341</end>
						<in>4000</in>
						<out>4044</out>
						<pproTicksIn>40642560000000</pproTicksIn>
						<pproTicksOut>41089628160000</pproTicksOut>
						<alphatype>none</alphatype>
						<file id="file-271"/>
						<link>
							<linkclipref>clipitem-1007</linkclipref>
							<mediatype>video</mediatype>
							<trackindex>1</trackindex>
							<clipindex>41</clipindex>
						</link>
						<link>
							<linkclipref>clipitem-1360</linkclipref>
							<mediatype>audio</mediatype>
							<trackindex>3</trackindex>
							<clipindex>8</clipindex>
						</link>
						<logginginfo>
							<description></description>
							<scene></scene>
							<shottake>AA3220</shottake>
							<lognote></lognote>
						</logginginfo>
						<labels>
							<label2>Iris</label2>
						</labels>
					</clipitem>
					<clipitem id="clipitem-1008" frameBlend="FALSE">
						<masterclipid>masterclip-282</masterclipid>
						<name>AA3184</name>
						<enabled>TRUE</enabled>
						<duration>1440</duration>
						<rate>
							<timebase>25</timebase>
							<ntsc>FALSE</ntsc>
						</rate>
						<start>3341</start>
						<end>3370</end>
						<in>739</in>
						<out>768</out>
						<pproTicksIn>7508712960000</pproTicksIn>
						<pproTicksOut>7803371520000</pproTicksOut>
						<alphatype>none</alphatype>
						<pixelaspectratio>square</pixelaspectratio>
						<anamorphic>FALSE</anamorphic>
						<file id="file-272">
							<name>AA3184</name>
							<pathurl>file://localhost/Volumes/Brakka/AdobeLager/Katta/Katta-16xxxx-Klimabloffen-Chris/02-Video/Tomat/restaurant/C300%20restaurant/CONTENTS/CLIPS001/AA3184/AA318401.MXF</pathurl>
							<rate>
								<timebase>25</timebase>
								<ntsc>FALSE</ntsc>
							</rate>
							<duration>1440</duration>
							<timecode>
								<rate>
									<timebase>25</timebase>
									<ntsc>FALSE</ntsc>
								</rate>
								<string>21:26:14:04</string>
								<frame>1929354</frame>
								<displayformat>NDF</displayformat>
								<reel>
									<name></name>
								</reel>
							</timecode>
							<media>
								<video>
									<samplecharacteristics>
										<rate>
											<timebase>25</timebase>
											<ntsc>FALSE</ntsc>
										</rate>
										<width>1920</width>
										<height>1080</height>
										<anamorphic>FALSE</anamorphic>
										<pixelaspectratio>square</pixelaspectratio>
										<fielddominance>none</fielddominance>
									</samplecharacteristics>
								</video>
								<audio>
									<samplecharacteristics>
										<depth>16</depth>
										<samplerate>48000</samplerate>
									</samplecharacteristics>
									<channelcount>1</channelcount>
									<layout>stereo</layout>
									<audiochannel>
										<sourcechannel>1</sourcechannel>
										<channellabel>left</channellabel>
									</audiochannel>
								</audio>
								<audio>
									<samplecharacteristics>
										<depth>16</depth>
										<samplerate>48000</samplerate>
									</samplecharacteristics>
									<channelcount>1</channelcount>
									<layout>stereo</layout>
									<audiochannel>
										<sourcechannel>2</sourcechannel>
										<channellabel>right</channellabel>
									</audiochannel>
								</audio>
							</media>
						</file>
						<link>
							<linkclipref>clipitem-1008</linkclipref>
							<mediatype>video</mediatype>
							<trackindex>1</trackindex>
							<clipindex>42</clipindex>
						</link>
						<link>
							<linkclipref>clipitem-1361</linkclipref>
							<mediatype>audio</mediatype>
							<trackindex>3</trackindex>
							<clipindex>9</clipindex>
						</link>
						<link>
							<linkclipref>clipitem-1389</linkclipref>
							<mediatype>audio</mediatype>
							<trackindex>4</trackindex>
							<clipindex>5</clipindex>
						</link>
						<logginginfo>
							<description></description>
							<scene></scene>
							<shottake>AA3184</shottake>
							<lognote></lognote>
						</logginginfo>
						<labels>
							<label2>Iris</label2>
						</labels>
					</clipitem>
					<clipitem id="clipitem-1009" frameBlend="FALSE">
						<masterclipid>masterclip-283</masterclipid>
						<name>AA3185</name>
						<enabled>TRUE</enabled>
						<duration>3528</duration>
						<rate>
							<timebase>25</timebase>
							<ntsc>FALSE</ntsc>
						</rate>
						<start>3370</start>
						<end>3402</end>
						<in>1736</in>
						<out>1768</out>
						<pproTicksIn>17638871040000</pproTicksIn>
						<pproTicksOut>17964011520000</pproTicksOut>
						<alphatype>none</alphatype>
						<pixelaspectratio>square</pixelaspectratio>
						<anamorphic>FALSE</anamorphic>
						<file id="file-273">
							<name>AA3185</name>
							<pathurl>file://localhost/Volumes/Brakka/AdobeLager/Katta/Katta-16xxxx-Klimabloffen-Chris/02-Video/Tomat/restaurant/C300%20restaurant/CONTENTS/CLIPS001/AA3185/AA318501.MXF</pathurl>
							<rate>
								<timebase>25</timebase>
								<ntsc>FALSE</ntsc>
							</rate>
							<duration>3528</duration>
							<timecode>
								<rate>
									<timebase>25</timebase>
									<ntsc>FALSE</ntsc>
								</rate>
								<string>21:30:14:02</string>
								<frame>1935352</frame>
								<displayformat>NDF</displayformat>
								<reel>
									<name></name>
								</reel>
							</timecode>
							<media>
								<video>
									<samplecharacteristics>
										<rate>
											<timebase>25</timebase>
											<ntsc>FALSE</ntsc>
										</rate>
										<width>1920</width>
										<height>1080</height>
										<anamorphic>FALSE</anamorphic>
										<pixelaspectratio>square</pixelaspectratio>
										<fielddominance>none</fielddominance>
									</samplecharacteristics>
								</video>
								<audio>
									<samplecharacteristics>
										<depth>16</depth>
										<samplerate>48000</samplerate>
									</samplecharacteristics>
									<channelcount>1</channelcount>
									<layout>stereo</layout>
									<audiochannel>
										<sourcechannel>1</sourcechannel>
										<channellabel>left</channellabel>
									</audiochannel>
								</audio>
								<audio>
									<samplecharacteristics>
										<depth>16</depth>
										<samplerate>48000</samplerate>
									</samplecharacteristics>
									<channelcount>1</channelcount>
									<layout>stereo</layout>
									<audiochannel>
										<sourcechannel>2</sourcechannel>
										<channellabel>right</channellabel>
									</audiochannel>
								</audio>
							</media>
						</file>
						<link>
							<linkclipref>clipitem-1009</linkclipref>
							<mediatype>video</mediatype>
							<trackindex>1</trackindex>
							<clipindex>43</clipindex>
						</link>
						<link>
							<linkclipref>clipitem-1362</linkclipref>
							<mediatype>audio</mediatype>
							<trackindex>3</trackindex>
							<clipindex>10</clipindex>
						</link>
						<link>
							<linkclipref>clipitem-1390</linkclipref>
							<mediatype>audio</mediatype>
							<trackindex>4</trackindex>
							<clipindex>6</clipindex>
						</link>
						<logginginfo>
							<description></description>
							<scene></scene>
							<shottake>AA3185</shottake>
							<lognote></lognote>
						</logginginfo>
						<labels>
							<label2>Iris</label2>
						</labels>
					</clipitem>
					<clipitem id="clipitem-1010" frameBlend="FALSE">
						<masterclipid>masterclip-284</masterclipid>
						<name>AA3164</name>
						<enabled>TRUE</enabled>
						<duration>10272</duration>
						<rate>
							<timebase>25</timebase>
							<ntsc>FALSE</ntsc>
						</rate>
						<start>3402</start>
						<end>3425</end>
						<in>82</in>
						<out>105</out>
						<pproTicksIn>833172480000</pproTicksIn>
						<pproTicksOut>1066867200000</pproTicksOut>
						<alphatype>none</alphatype>
						<pixelaspectratio>square</pixelaspectratio>
						<anamorphic>FALSE</anamorphic>
						<file id="file-274">
							<name>AA3164</name>
							<pathurl>file://localhost/Volumes/Brakka/AdobeLager/Katta/Katta-16xxxx-Klimabloffen-Chris/02-Video/Tomat/restaurant/C300%20restaurant/CONTENTS/CLIPS001/AA3164/AA316401.MXF</pathurl>
							<rate>
								<timebase>25</timebase>
								<ntsc>FALSE</ntsc>
							</rate>
							<duration>10272</duration>
							<timecode>
								<rate>
									<timebase>25</timebase>
									<ntsc>FALSE</ntsc>
								</rate>
								<string>20:37:39:17</string>
								<frame>1856492</frame>
								<displayformat>NDF</displayformat>
								<reel>
									<name></name>
								</reel>
							</timecode>
							<media>
								<video>
									<samplecharacteristics>
										<rate>
											<timebase>25</timebase>
											<ntsc>FALSE</ntsc>
										</rate>
										<width>1920</width>
										<height>1080</height>
										<anamorphic>FALSE</anamorphic>
										<pixelaspectratio>square</pixelaspectratio>
										<fielddominance>none</fielddominance>
									</samplecharacteristics>
								</video>
								<audio>
									<samplecharacteristics>
										<depth>16</depth>
										<samplerate>48000</samplerate>
									</samplecharacteristics>
									<channelcount>1</channelcount>
									<layout>stereo</layout>
									<audiochannel>
										<sourcechannel>1</sourcechannel>
										<channellabel>left</channellabel>
									</audiochannel>
								</audio>
								<audio>
									<samplecharacteristics>
										<depth>16</depth>
										<samplerate>48000</samplerate>
									</samplecharacteristics>
									<channelcount>1</channelcount>
									<layout>stereo</layout>
									<audiochannel>
										<sourcechannel>2</sourcechannel>
										<channellabel>right</channellabel>
									</audiochannel>
								</audio>
							</media>
						</file>
						<link>
							<linkclipref>clipitem-1010</linkclipref>
							<mediatype>video</mediatype>
							<trackindex>1</trackindex>
							<clipindex>44</clipindex>
						</link>
						<link>
							<linkclipref>clipitem-1363</linkclipref>
							<mediatype>audio</mediatype>
							<trackindex>3</trackindex>
							<clipindex>11</clipindex>
						</link>
						<link>
							<linkclipref>clipitem-1391</linkclipref>
							<mediatype>audio</mediatype>
							<trackindex>4</trackindex>
							<clipindex>7</clipindex>
						</link>
						<logginginfo>
							<description></description>
							<scene></scene>
							<shottake>AA3164</shottake>
							<lognote></lognote>
						</logginginfo>
						<labels>
							<label2>Iris</label2>
						</labels>
					</clipitem>
					<clipitem id="clipitem-1011" frameBlend="FALSE">
						<masterclipid>masterclip-285</masterclipid>
						<name>AA3163</name>
						<enabled>TRUE</enabled>
						<duration>1104</duration>
						<rate>
							<timebase>25</timebase>
							<ntsc>FALSE</ntsc>
						</rate>
						<start>3425</start>
						<end>3513</end>
						<in>103</in>
						<out>191</out>
						<pproTicksIn>1046545920000</pproTicksIn>
						<pproTicksOut>1940682240000</pproTicksOut>
						<alphatype>none</alphatype>
						<pixelaspectratio>square</pixelaspectratio>
						<anamorphic>FALSE</anamorphic>
						<file id="file-275">
							<name>AA3163</name>
							<pathurl>file://localhost/Volumes/Brakka/AdobeLager/Katta/Katta-16xxxx-Klimabloffen-Chris/02-Video/Tomat/restaurant/C300%20restaurant/CONTENTS/CLIPS001/AA3163/AA316301.MXF</pathurl>
							<rate>
								<timebase>25</timebase>
								<ntsc>FALSE</ntsc>
							</rate>
							<duration>1104</duration>
							<timecode>
								<rate>
									<timebase>25</timebase>
									<ntsc>FALSE</ntsc>
								</rate>
								<string>20:33:22:13</string>
								<frame>1850063</frame>
								<displayformat>NDF</displayformat>
								<reel>
									<name></name>
								</reel>
							</timecode>
							<media>
								<video>
									<samplecharacteristics>
										<rate>
											<timebase>25</timebase>
											<ntsc>FALSE</ntsc>
										</rate>
										<width>1920</width>
										<height>1080</height>
										<anamorphic>FALSE</anamorphic>
										<pixelaspectratio>square</pixelaspectratio>
										<fielddominance>none</fielddominance>
									</samplecharacteristics>
								</video>
								<audio>
									<samplecharacteristics>
										<depth>16</depth>
										<samplerate>48000</samplerate>
									</samplecharacteristics>
									<channelcount>1</channelcount>
									<layout>stereo</layout>
									<audiochannel>
										<sourcechannel>1</sourcechannel>
										<channellabel>left</channellabel>
									</audiochannel>
								</audio>
								<audio>
									<samplecharacteristics>
										<depth>16</depth>
										<samplerate>48000</samplerate>
									</samplecharacteristics>
									<channelcount>1</channelcount>
									<layout>stereo</layout>
									<audiochannel>
										<sourcechannel>2</sourcechannel>
										<channellabel>right</channellabel>
									</audiochannel>
								</audio>
							</media>
						</file>
						<logginginfo>
							<description></description>
							<scene></scene>
							<shottake>AA3163</shottake>
							<lognote></lognote>
						</logginginfo>
						<labels>
							<label2>Iris</label2>
						</labels>
					</clipitem>
					<clipitem id="clipitem-1012" frameBlend="FALSE">
						<masterclipid>masterclip-284</masterclipid>
						<name>AA3164</name>
						<enabled>TRUE</enabled>
						<duration>10272</duration>
						<rate>
							<timebase>25</timebase>
							<ntsc>FALSE</ntsc>
						</rate>
						<start>3513</start>
						<end>3547</end>
						<in>6385</in>
						<out>6419</out>
						<pproTicksIn>64875686400000</pproTicksIn>
						<pproTicksOut>65221148160000</pproTicksOut>
						<alphatype>none</alphatype>
						<file id="file-274"/>
						<link>
							<linkclipref>clipitem-1012</linkclipref>
							<mediatype>video</mediatype>
							<trackindex>1</trackindex>
							<clipindex>46</clipindex>
						</link>
						<link>
							<linkclipref>clipitem-1205</linkclipref>
							<mediatype>audio</mediatype>
							<trackindex>1</trackindex>
							<clipindex>20</clipindex>
						</link>
						<link>
							<linkclipref>clipitem-1301</linkclipref>
							<mediatype>audio</mediatype>
							<trackindex>2</trackindex>
							<clipindex>11</clipindex>
						</link>
						<logginginfo>
							<description></description>
							<scene></scene>
							<shottake>AA3164</shottake>
							<lognote></lognote>
						</logginginfo>
						<labels>
							<label2>Iris</label2>
						</labels>
					</clipitem>
					<clipitem id="clipitem-1013" frameBlend="FALSE">
						<masterclipid>masterclip-284</masterclipid>
						<name>AA3164</name>
						<enabled>TRUE</enabled>
						<duration>10272</duration>
						<rate>
							<timebase>25</timebase>
							<ntsc>FALSE</ntsc>
						</rate>
						<start>3547</start>
						<end>3589</end>
						<in>3122</in>
						<out>3164</out>
						<pproTicksIn>31721518080000</pproTicksIn>
						<pproTicksOut>32148264960000</pproTicksOut>
						<alphatype>none</alphatype>
						<file id="file-274"/>
						<logginginfo>
							<description></description>
							<scene></scene>
							<shottake>AA3164</shottake>
							<lognote></lognote>
						</logginginfo>
						<labels>
							<label2>Iris</label2>
						</labels>
					</clipitem>
					<clipitem id="clipitem-1014" frameBlend="FALSE">
						<masterclipid>masterclip-284</masterclipid>
						<name>AA3164</name>
						<enabled>TRUE</enabled>
						<duration>10272</duration>
						<rate>
							<timebase>25</timebase>
							<ntsc>FALSE</ntsc>
						</rate>
						<start>3589</start>
						<end>3626</end>
						<in>7761</in>
						<out>7798</out>
						<pproTicksIn>78856727040000</pproTicksIn>
						<pproTicksOut>79232670720000</pproTicksOut>
						<alphatype>none</alphatype>
						<file id="file-274"/>
						<link>
							<linkclipref>clipitem-1014</linkclipref>
							<mediatype>video</mediatype>
							<trackindex>1</trackindex>
							<clipindex>48</clipindex>
						</link>
						<link>
							<linkclipref>clipitem-1206</linkclipref>
							<mediatype>audio</mediatype>
							<trackindex>1</trackindex>
							<clipindex>21</clipindex>
						</link>
						<link>
							<linkclipref>clipitem-1302</linkclipref>
							<mediatype>audio</mediatype>
							<trackindex>2</trackindex>
							<clipindex>12</clipindex>
						</link>
						<logginginfo>
							<description></description>
							<scene></scene>
							<shottake>AA3164</shottake>
							<lognote></lognote>
						</logginginfo>
						<labels>
							<label2>Iris</label2>
						</labels>
					</clipitem>
					<clipitem id="clipitem-1015" frameBlend="FALSE">
						<masterclipid>masterclip-286</masterclipid>
						<name>AA3169</name>
						<enabled>TRUE</enabled>
						<duration>336</duration>
						<rate>
							<timebase>25</timebase>
							<ntsc>FALSE</ntsc>
						</rate>
						<start>3626</start>
						<end>3668</end>
						<in>246</in>
						<out>288</out>
						<pproTicksIn>2499517440000</pproTicksIn>
						<pproTicksOut>2926264320000</pproTicksOut>
						<alphatype>none</alphatype>
						<pixelaspectratio>square</pixelaspectratio>
						<anamorphic>FALSE</anamorphic>
						<file id="file-276">
							<name>AA3169</name>
							<pathurl>file://localhost/Volumes/Brakka/AdobeLager/Katta/Katta-16xxxx-Klimabloffen-Chris/02-Video/Tomat/restaurant/C300%20restaurant/CONTENTS/CLIPS001/AA3169/AA316901.MXF</pathurl>
							<rate>
								<timebase>25</timebase>
								<ntsc>FALSE</ntsc>
							</rate>
							<duration>336</duration>
							<timecode>
								<rate>
									<timebase>25</timebase>
									<ntsc>FALSE</ntsc>
								</rate>
								<string>20:52:05:11</string>
								<frame>1878136</frame>
								<displayformat>NDF</displayformat>
								<reel>
									<name></name>
								</reel>
							</timecode>
							<media>
								<video>
									<samplecharacteristics>
										<rate>
											<timebase>25</timebase>
											<ntsc>FALSE</ntsc>
										</rate>
										<width>1920</width>
										<height>1080</height>
										<anamorphic>FALSE</anamorphic>
										<pixelaspectratio>square</pixelaspectratio>
										<fielddominance>none</fielddominance>
									</samplecharacteristics>
								</video>
								<audio>
									<samplecharacteristics>
										<depth>16</depth>
										<samplerate>48000</samplerate>
									</samplecharacteristics>
									<channelcount>1</channelcount>
									<layout>stereo</layout>
									<audiochannel>
										<sourcechannel>1</sourcechannel>
										<channellabel>left</channellabel>
									</audiochannel>
								</audio>
								<audio>
									<samplecharacteristics>
										<depth>16</depth>
										<samplerate>48000</samplerate>
									</samplecharacteristics>
									<channelcount>1</channelcount>
									<layout>stereo</layout>
									<audiochannel>
										<sourcechannel>2</sourcechannel>
										<channellabel>right</channellabel>
									</audiochannel>
								</audio>
							</media>
						</file>
						<link>
							<linkclipref>clipitem-1015</linkclipref>
							<mediatype>video</mediatype>
							<trackindex>1</trackindex>
							<clipindex>49</clipindex>
						</link>
						<link>
							<linkclipref>clipitem-1207</linkclipref>
							<mediatype>audio</mediatype>
							<trackindex>1</trackindex>
							<clipindex>22</clipindex>
						</link>
						<link>
							<linkclipref>clipitem-1303</linkclipref>
							<mediatype>audio</mediatype>
							<trackindex>2</trackindex>
							<clipindex>13</clipindex>
						</link>
						<logginginfo>
							<description></description>
							<scene></scene>
							<shottake>AA3169</shottake>
							<lognote></lognote>
						</logginginfo>
						<labels>
							<label2>Iris</label2>
						</labels>
					</clipitem>
					<clipitem id="clipitem-1016" frameBlend="FALSE">
						<masterclipid>masterclip-287</masterclipid>
						<name>AA3167</name>
						<enabled>TRUE</enabled>
						<duration>1068</duration>
						<rate>
							<timebase>25</timebase>
							<ntsc>FALSE</ntsc>
						</rate>
						<start>3668</start>
						<end>3698</end>
						<in>782</in>
						<out>812</out>
						<pproTicksIn>7945620480000</pproTicksIn>
						<pproTicksOut>8250439680000</pproTicksOut>
						<alphatype>none</alphatype>
						<pixelaspectratio>square</pixelaspectratio>
						<anamorphic>FALSE</anamorphic>
						<file id="file-277">
							<name>AA3167</name>
							<pathurl>file://localhost/Volumes/Brakka/AdobeLager/Katta/Katta-16xxxx-Klimabloffen-Chris/02-Video/Tomat/restaurant/C300%20restaurant/CONTENTS/CLIPS001/AA3167/AA316701.MXF</pathurl>
							<rate>
								<timebase>25</timebase>
								<ntsc>FALSE</ntsc>
							</rate>
							<duration>1068</duration>
							<timecode>
								<rate>
									<timebase>25</timebase>
									<ntsc>FALSE</ntsc>
								</rate>
								<string>20:50:40:19</string>
								<frame>1876019</frame>
								<displayformat>NDF</displayformat>
								<reel>
									<name></name>
								</reel>
							</timecode>
							<media>
								<video>
									<samplecharacteristics>
										<rate>
											<timebase>25</timebase>
											<ntsc>FALSE</ntsc>
										</rate>
										<width>1920</width>
										<height>1080</height>
										<anamorphic>FALSE</anamorphic>
										<pixelaspectratio>square</pixelaspectratio>
										<fielddominance>none</fielddominance>
									</samplecharacteristics>
								</video>
								<audio>
									<samplecharacteristics>
										<depth>16</depth>
										<samplerate>48000</samplerate>
									</samplecharacteristics>
									<channelcount>1</channelcount>
									<layout>stereo</layout>
									<audiochannel>
										<sourcechannel>1</sourcechannel>
										<channellabel>left</channellabel>
									</audiochannel>
								</audio>
								<audio>
									<samplecharacteristics>
										<depth>16</depth>
										<samplerate>48000</samplerate>
									</samplecharacteristics>
									<channelcount>1</channelcount>
									<layout>stereo</layout>
									<audiochannel>
										<sourcechannel>2</sourcechannel>
										<channellabel>right</channellabel>
									</audiochannel>
								</audio>
							</media>
						</file>
						<link>
							<linkclipref>clipitem-1016</linkclipref>
							<mediatype>video</mediatype>
							<trackindex>1</trackindex>
							<clipindex>50</clipindex>
						</link>
						<link>
							<linkclipref>clipitem-1364</linkclipref>
							<mediatype>audio</mediatype>
							<trackindex>3</trackindex>
							<clipindex>12</clipindex>
						</link>
						<link>
							<linkclipref>clipitem-1392</linkclipref>
							<mediatype>audio</mediatype>
							<trackindex>4</trackindex>
							<clipindex>8</clipindex>
						</link>
						<logginginfo>
							<description></description>
							<scene></scene>
							<shottake>AA3167</shottake>
							<lognote></lognote>
						</logginginfo>
						<labels>
							<label2>Iris</label2>
						</labels>
					</clipitem>
					<clipitem id="clipitem-1017" frameBlend="FALSE">
						<masterclipid>masterclip-288</masterclipid>
						<name>AA3165</name>
						<enabled>TRUE</enabled>
						<duration>7188</duration>
						<rate>
							<timebase>25</timebase>
							<ntsc>FALSE</ntsc>
						</rate>
						<start>3698</start>
						<end>3831</end>
						<in>6581</in>
						<out>6714</out>
						<pproTicksIn>66867171840000</pproTicksIn>
						<pproTicksOut>68218536960000</pproTicksOut>
						<alphatype>none</alphatype>
						<pixelaspectratio>square</pixelaspectratio>
						<anamorphic>FALSE</anamorphic>
						<file id="file-278">
							<name>AA3165</name>
							<pathurl>file://localhost/Volumes/Brakka/AdobeLager/Katta/Katta-16xxxx-Klimabloffen-Chris/02-Video/Tomat/restaurant/C300%20restaurant/CONTENTS/CLIPS001/AA3165/AA316501.MXF</pathurl>
							<rate>
								<timebase>25</timebase>
								<ntsc>FALSE</ntsc>
							</rate>
							<duration>7188</duration>
							<timecode>
								<rate>
									<timebase>25</timebase>
									<ntsc>FALSE</ntsc>
								</rate>
								<string>20:45:12:18</string>
								<frame>1867818</frame>
								<displayformat>NDF</displayformat>
								<reel>
									<name></name>
								</reel>
							</timecode>
							<media>
								<video>
									<samplecharacteristics>
										<rate>
											<timebase>25</timebase>
											<ntsc>FALSE</ntsc>
										</rate>
										<width>1920</width>
										<height>1080</height>
										<anamorphic>FALSE</anamorphic>
										<pixelaspectratio>square</pixelaspectratio>
										<fielddominance>none</fielddominance>
									</samplecharacteristics>
								</video>
								<audio>
									<samplecharacteristics>
										<depth>16</depth>
										<samplerate>48000</samplerate>
									</samplecharacteristics>
									<channelcount>1</channelcount>
									<layout>stereo</layout>
									<audiochannel>
										<sourcechannel>1</sourcechannel>
										<channellabel>left</channellabel>
									</audiochannel>
								</audio>
								<audio>
									<samplecharacteristics>
										<depth>16</depth>
										<samplerate>48000</samplerate>
									</samplecharacteristics>
									<channelcount>1</channelcount>
									<layout>stereo</layout>
									<audiochannel>
										<sourcechannel>2</sourcechannel>
										<channellabel>right</channellabel>
									</audiochannel>
								</audio>
							</media>
						</file>
						<logginginfo>
							<description></description>
							<scene></scene>
							<shottake>AA3165</shottake>
							<lognote></lognote>
						</logginginfo>
						<labels>
							<label2>Iris</label2>
						</labels>
					</clipitem>
					<clipitem id="clipitem-1018" frameBlend="FALSE">
						<masterclipid>masterclip-289</masterclipid>
						<name>AA3166</name>
						<enabled>TRUE</enabled>
						<duration>324</duration>
						<rate>
							<timebase>25</timebase>
							<ntsc>FALSE</ntsc>
						</rate>
						<start>3831</start>
						<end>3892</end>
						<in>215</in>
						<out>276</out>
						<pproTicksIn>2184537600000</pproTicksIn>
						<pproTicksOut>2804336640000</pproTicksOut>
						<alphatype>none</alphatype>
						<pixelaspectratio>square</pixelaspectratio>
						<anamorphic>FALSE</anamorphic>
						<file id="file-279">
							<name>AA3166</name>
							<pathurl>file://localhost/Volumes/Brakka/AdobeLager/Katta/Katta-16xxxx-Klimabloffen-Chris/02-Video/Tomat/restaurant/C300%20restaurant/CONTENTS/CLIPS001/AA3166/AA316601.MXF</pathurl>
							<rate>
								<timebase>25</timebase>
								<ntsc>FALSE</ntsc>
							</rate>
							<duration>324</duration>
							<timecode>
								<rate>
									<timebase>25</timebase>
									<ntsc>FALSE</ntsc>
								</rate>
								<string>20:50:10:11</string>
								<frame>1875261</frame>
								<displayformat>NDF</displayformat>
								<reel>
									<name></name>
								</reel>
							</timecode>
							<media>
								<video>
									<samplecharacteristics>
										<rate>
											<timebase>25</timebase>
											<ntsc>FALSE</ntsc>
										</rate>
										<width>1920</width>
										<height>1080</height>
										<anamorphic>FALSE</anamorphic>
										<pixelaspectratio>square</pixelaspectratio>
										<fielddominance>none</fielddominance>
									</samplecharacteristics>
								</video>
								<audio>
									<samplecharacteristics>
										<depth>16</depth>
										<samplerate>48000</samplerate>
									</samplecharacteristics>
									<channelcount>1</channelcount>
									<layout>stereo</layout>
									<audiochannel>
										<sourcechannel>1</sourcechannel>
										<channellabel>left</channellabel>
									</audiochannel>
								</audio>
								<audio>
									<samplecharacteristics>
										<depth>16</depth>
										<samplerate>48000</samplerate>
									</samplecharacteristics>
									<channelcount>1</channelcount>
									<layout>stereo</layout>
									<audiochannel>
										<sourcechannel>2</sourcechannel>
										<channellabel>right</channellabel>
									</audiochannel>
								</audio>
							</media>
						</file>
						<logginginfo>
							<description></description>
							<scene></scene>
							<shottake>AA3166</shottake>
							<lognote></lognote>
						</logginginfo>
						<labels>
							<label2>Iris</label2>
						</labels>
					</clipitem>
					<clipitem id="clipitem-1019" frameBlend="FALSE">
						<masterclipid>masterclip-290</masterclipid>
						<name>AA3170</name>
						<enabled>TRUE</enabled>
						<duration>360</duration>
						<rate>
							<timebase>25</timebase>
							<ntsc>FALSE</ntsc>
						</rate>
						<start>3892</start>
						<end>3920</end>
						<in>240</in>
						<out>268</out>
						<pproTicksIn>2438553600000</pproTicksIn>
						<pproTicksOut>2723051520000</pproTicksOut>
						<alphatype>none</alphatype>
						<pixelaspectratio>square</pixelaspectratio>
						<anamorphic>FALSE</anamorphic>
						<file id="file-280">
							<name>AA3170</name>
							<pathurl>file://localhost/Volumes/Brakka/AdobeLager/Katta/Katta-16xxxx-Klimabloffen-Chris/02-Video/Tomat/restaurant/C300%20restaurant/CONTENTS/CLIPS001/AA3170/AA317001.MXF</pathurl>
							<rate>
								<timebase>25</timebase>
								<ntsc>FALSE</ntsc>
							</rate>
							<duration>360</duration>
							<timecode>
								<rate>
									<timebase>25</timebase>
									<ntsc>FALSE</ntsc>
								</rate>
								<string>20:53:00:01</string>
								<frame>1879501</frame>
								<displayformat>NDF</displayformat>
								<reel>
									<name></name>
								</reel>
							</timecode>
							<media>
								<video>
									<samplecharacteristics>
										<rate>
											<timebase>25</timebase>
											<ntsc>FALSE</ntsc>
										</rate>
										<width>1920</width>
										<height>1080</height>
										<anamorphic>FALSE</anamorphic>
										<pixelaspectratio>square</pixelaspectratio>
										<fielddominance>none</fielddominance>
									</samplecharacteristics>
								</video>
								<audio>
									<samplecharacteristics>
										<depth>16</depth>
										<samplerate>48000</samplerate>
									</samplecharacteristics>
									<channelcount>1</channelcount>
									<layout>stereo</layout>
									<audiochannel>
										<sourcechannel>1</sourcechannel>
										<channellabel>left</channellabel>
									</audiochannel>
								</audio>
								<audio>
									<samplecharacteristics>
										<depth>16</depth>
										<samplerate>48000</samplerate>
									</samplecharacteristics>
									<channelcount>1</channelcount>
									<layout>stereo</layout>
									<audiochannel>
										<sourcechannel>2</sourcechannel>
										<channellabel>right</channellabel>
									</audiochannel>
								</audio>
							</media>
						</file>
						<link>
							<linkclipref>clipitem-1019</linkclipref>
							<mediatype>video</mediatype>
							<trackindex>1</trackindex>
							<clipindex>53</clipindex>
						</link>
						<link>
							<linkclipref>clipitem-1209</linkclipref>
							<mediatype>audio</mediatype>
							<trackindex>1</trackindex>
							<clipindex>24</clipindex>
						</link>
						<link>
							<linkclipref>clipitem-1305</linkclipref>
							<mediatype>audio</mediatype>
							<trackindex>2</trackindex>
							<clipindex>15</clipindex>
						</link>
						<logginginfo>
							<description></description>
							<scene></scene>
							<shottake>AA3170</shottake>
							<lognote></lognote>
						</logginginfo>
						<labels>
							<label2>Iris</label2>
						</labels>
					</clipitem>
					<clipitem id="clipitem-1020" frameBlend="FALSE">
						<masterclipid>masterclip-291</masterclipid>
						<name>AA3171</name>
						<enabled>TRUE</enabled>
						<duration>768</duration>
						<rate>
							<timebase>25</timebase>
							<ntsc>FALSE</ntsc>
						</rate>
						<start>3920</start>
						<end>3955</end>
						<in>196</in>
						<out>231</out>
						<pproTicksIn>1991485440000</pproTicksIn>
						<pproTicksOut>2347107840000</pproTicksOut>
						<alphatype>none</alphatype>
						<pixelaspectratio>square</pixelaspectratio>
						<anamorphic>FALSE</anamorphic>
						<file id="file-281">
							<name>AA3171</name>
							<pathurl>file://localhost/Volumes/Brakka/AdobeLager/Katta/Katta-16xxxx-Klimabloffen-Chris/02-Video/Tomat/restaurant/C300%20restaurant/CONTENTS/CLIPS001/AA3171/AA317101.MXF</pathurl>
							<rate>
								<timebase>25</timebase>
								<ntsc>FALSE</ntsc>
							</rate>
							<duration>768</duration>
							<timecode>
								<rate>
									<timebase>25</timebase>
									<ntsc>FALSE</ntsc>
								</rate>
								<string>20:54:18:01</string>
								<frame>1881451</frame>
								<displayformat>NDF</displayformat>
								<reel>
									<name></name>
								</reel>
							</timecode>
							<media>
								<video>
									<samplecharacteristics>
										<rate>
											<timebase>25</timebase>
											<ntsc>FALSE</ntsc>
										</rate>
										<width>1920</width>
										<height>1080</height>
										<anamorphic>FALSE</anamorphic>
										<pixelaspectratio>square</pixelaspectratio>
										<fielddominance>none</fielddominance>
									</samplecharacteristics>
								</video>
								<audio>
									<samplecharacteristics>
										<depth>16</depth>
										<samplerate>48000</samplerate>
									</samplecharacteristics>
									<channelcount>1</channelcount>
									<layout>stereo</layout>
									<audiochannel>
										<sourcechannel>1</sourcechannel>
										<channellabel>left</channellabel>
									</audiochannel>
								</audio>
								<audio>
									<samplecharacteristics>
										<depth>16</depth>
										<samplerate>48000</samplerate>
									</samplecharacteristics>
									<channelcount>1</channelcount>
									<layout>stereo</layout>
									<audiochannel>
										<sourcechannel>2</sourcechannel>
										<channellabel>right</channellabel>
									</audiochannel>
								</audio>
							</media>
						</file>
						<link>
							<linkclipref>clipitem-1020</linkclipref>
							<mediatype>video</mediatype>
							<trackindex>1</trackindex>
							<clipindex>54</clipindex>
						</link>
						<link>
							<linkclipref>clipitem-1210</linkclipref>
							<mediatype>audio</mediatype>
							<trackindex>1</trackindex>
							<clipindex>25</clipindex>
						</link>
						<link>
							<linkclipref>clipitem-1306</linkclipref>
							<mediatype>audio</mediatype>
							<trackindex>2</trackindex>
							<clipindex>16</clipindex>
						</link>
						<logginginfo>
							<description></description>
							<scene></scene>
							<shottake>AA3171</shottake>
							<lognote></lognote>
						</logginginfo>
						<labels>
							<label2>Iris</label2>
						</labels>
					</clipitem>
					<clipitem id="clipitem-1021" frameBlend="FALSE">
						<masterclipid>masterclip-292</masterclipid>
						<name>AA3182</name>
						<enabled>TRUE</enabled>
						<duration>408</duration>
						<rate>
							<timebase>25</timebase>
							<ntsc>FALSE</ntsc>
						</rate>
						<start>3955</start>
						<end>4080</end>
						<in>54</in>
						<out>179</out>
						<pproTicksIn>548674560000</pproTicksIn>
						<pproTicksOut>1818754560000</pproTicksOut>
						<alphatype>none</alphatype>
						<pixelaspectratio>square</pixelaspectratio>
						<anamorphic>FALSE</anamorphic>
						<file id="file-282">
							<name>AA3182</name>
							<pathurl>file://localhost/Volumes/Brakka/AdobeLager/Katta/Katta-16xxxx-Klimabloffen-Chris/02-Video/Tomat/restaurant/C300%20restaurant/CONTENTS/CLIPS001/AA3182/AA318201.MXF</pathurl>
							<rate>
								<timebase>25</timebase>
								<ntsc>FALSE</ntsc>
							</rate>
							<duration>408</duration>
							<timecode>
								<rate>
									<timebase>25</timebase>
									<ntsc>FALSE</ntsc>
								</rate>
								<string>21:23:40:08</string>
								<frame>1925508</frame>
								<displayformat>NDF</displayformat>
								<reel>
									<name></name>
								</reel>
							</timecode>
							<media>
								<video>
									<samplecharacteristics>
										<rate>
											<timebase>25</timebase>
											<ntsc>FALSE</ntsc>
										</rate>
										<width>1920</width>
										<height>1080</height>
										<anamorphic>FALSE</anamorphic>
										<pixelaspectratio>square</pixelaspectratio>
										<fielddominance>none</fielddominance>
									</samplecharacteristics>
								</video>
								<audio>
									<samplecharacteristics>
										<depth>16</depth>
										<samplerate>48000</samplerate>
									</samplecharacteristics>
									<channelcount>1</channelcount>
									<layout>stereo</layout>
									<audiochannel>
										<sourcechannel>1</sourcechannel>
										<channellabel>left</channellabel>
									</audiochannel>
								</audio>
								<audio>
									<samplecharacteristics>
										<depth>16</depth>
										<samplerate>48000</samplerate>
									</samplecharacteristics>
									<channelcount>1</channelcount>
									<layout>stereo</layout>
									<audiochannel>
										<sourcechannel>2</sourcechannel>
										<channellabel>right</channellabel>
									</audiochannel>
								</audio>
							</media>
						</file>
						<link>
							<linkclipref>clipitem-1021</linkclipref>
							<mediatype>video</mediatype>
							<trackindex>1</trackindex>
							<clipindex>55</clipindex>
						</link>
						<link>
							<linkclipref>clipitem-1211</linkclipref>
							<mediatype>audio</mediatype>
							<trackindex>1</trackindex>
							<clipindex>26</clipindex>
						</link>
						<link>
							<linkclipref>clipitem-1307</linkclipref>
							<mediatype>audio</mediatype>
							<trackindex>2</trackindex>
							<clipindex>17</clipindex>
						</link>
						<logginginfo>
							<description></description>
							<scene></scene>
							<shottake>AA3182</shottake>
							<lognote></lognote>
						</logginginfo>
						<labels>
							<label2>Iris</label2>
						</labels>
					</clipitem>
					<clipitem id="clipitem-1022" frameBlend="FALSE">
						<masterclipid>masterclip-293</masterclipid>
						<name>AA3172</name>
						<enabled>TRUE</enabled>
						<duration>15228</duration>
						<rate>
							<timebase>25</timebase>
							<ntsc>FALSE</ntsc>
						</rate>
						<start>4080</start>
						<end>4153</end>
						<in>510</in>
						<out>583</out>
						<pproTicksIn>5181926400000</pproTicksIn>
						<pproTicksOut>5923653120000</pproTicksOut>
						<alphatype>none</alphatype>
						<pixelaspectratio>square</pixelaspectratio>
						<anamorphic>FALSE</anamorphic>
						<file id="file-283">
							<name>AA3172</name>
							<pathurl>file://localhost/Volumes/Brakka/AdobeLager/Katta/Katta-16xxxx-Klimabloffen-Chris/02-Video/Tomat/restaurant/C300%20restaurant/CONTENTS/CLIPS001/AA3172/AA317201.MXF</pathurl>
							<rate>
								<timebase>25</timebase>
								<ntsc>FALSE</ntsc>
							</rate>
							<duration>15228</duration>
							<timecode>
								<rate>
									<timebase>25</timebase>
									<ntsc>FALSE</ntsc>
								</rate>
								<string>21:08:34:09</string>
								<frame>1902859</frame>
								<displayformat>NDF</displayformat>
								<reel>
									<name></name>
								</reel>
							</timecode>
							<media>
								<video>
									<samplecharacteristics>
										<rate>
											<timebase>25</timebase>
											<ntsc>FALSE</ntsc>
										</rate>
										<width>1920</width>
										<height>1080</height>
										<anamorphic>FALSE</anamorphic>
										<pixelaspectratio>square</pixelaspectratio>
										<fielddominance>none</fielddominance>
									</samplecharacteristics>
								</video>
								<audio>
									<samplecharacteristics>
										<depth>16</depth>
										<samplerate>48000</samplerate>
									</samplecharacteristics>
									<channelcount>1</channelcount>
									<layout>stereo</layout>
									<audiochannel>
										<sourcechannel>1</sourcechannel>
										<channellabel>left</channellabel>
									</audiochannel>
								</audio>
								<audio>
									<samplecharacteristics>
										<depth>16</depth>
										<samplerate>48000</samplerate>
									</samplecharacteristics>
									<channelcount>1</channelcount>
									<layout>stereo</layout>
									<audiochannel>
										<sourcechannel>2</sourcechannel>
										<channellabel>right</channellabel>
									</audiochannel>
								</audio>
							</media>
						</file>
						<link>
							<linkclipref>clipitem-1022</linkclipref>
							<mediatype>video</mediatype>
							<trackindex>1</trackindex>
							<clipindex>56</clipindex>
						</link>
						<link>
							<linkclipref>clipitem-1212</linkclipref>
							<mediatype>audio</mediatype>
							<trackindex>1</trackindex>
							<clipindex>27</clipindex>
						</link>
						<link>
							<linkclipref>clipitem-1308</linkclipref>
							<mediatype>audio</mediatype>
							<trackindex>2</trackindex>
							<clipindex>18</clipindex>
						</link>
						<logginginfo>
							<description></description>
							<scene></scene>
							<shottake>AA3172</shottake>
							<lognote></lognote>
						</logginginfo>
						<labels>
							<label2>Iris</label2>
						</labels>
					</clipitem>
					<clipitem id="clipitem-1023" frameBlend="FALSE">
						<masterclipid>masterclip-294</masterclipid>
						<name>AA3173</name>
						<enabled>TRUE</enabled>
						<duration>132</duration>
						<rate>
							<timebase>25</timebase>
							<ntsc>FALSE</ntsc>
						</rate>
						<start>4153</start>
						<end>4186</end>
						<in>40</in>
						<out>73</out>
						<pproTicksIn>406425600000</pproTicksIn>
						<pproTicksOut>741726720000</pproTicksOut>
						<alphatype>none</alphatype>
						<pixelaspectratio>square</pixelaspectratio>
						<anamorphic>FALSE</anamorphic>
						<file id="file-284">
							<name>AA3173</name>
							<pathurl>file://localhost/Volumes/Brakka/AdobeLager/Katta/Katta-16xxxx-Klimabloffen-Chris/02-Video/Tomat/restaurant/C300%20restaurant/CONTENTS/CLIPS001/AA3173/AA317301.MXF</pathurl>
							<rate>
								<timebase>25</timebase>
								<ntsc>FALSE</ntsc>
							</rate>
							<duration>132</duration>
							<timecode>
								<rate>
									<timebase>25</timebase>
									<ntsc>FALSE</ntsc>
								</rate>
								<string>21:20:52:13</string>
								<frame>1921313</frame>
								<displayformat>NDF</displayformat>
								<reel>
									<name></name>
								</reel>
							</timecode>
							<media>
								<video>
									<samplecharacteristics>
										<rate>
											<timebase>25</timebase>
											<ntsc>FALSE</ntsc>
										</rate>
										<width>1920</width>
										<height>1080</height>
										<anamorphic>FALSE</anamorphic>
										<pixelaspectratio>square</pixelaspectratio>
										<fielddominance>none</fielddominance>
									</samplecharacteristics>
								</video>
								<audio>
									<samplecharacteristics>
										<depth>16</depth>
										<samplerate>48000</samplerate>
									</samplecharacteristics>
									<channelcount>1</channelcount>
									<layout>stereo</layout>
									<audiochannel>
										<sourcechannel>1</sourcechannel>
										<channellabel>left</channellabel>
									</audiochannel>
								</audio>
								<audio>
									<samplecharacteristics>
										<depth>16</depth>
										<samplerate>48000</samplerate>
									</samplecharacteristics>
									<channelcount>1</channelcount>
									<layout>stereo</layout>
									<audiochannel>
										<sourcechannel>2</sourcechannel>
										<channellabel>right</channellabel>
									</audiochannel>
								</audio>
							</media>
						</file>
						<logginginfo>
							<description></description>
							<scene></scene>
							<shottake>AA3173</shottake>
							<lognote></lognote>
						</logginginfo>
						<labels>
							<label2>Iris</label2>
						</labels>
					</clipitem>
					<clipitem id="clipitem-1024" frameBlend="FALSE">
						<masterclipid>masterclip-295</masterclipid>
						<name>AA3179</name>
						<enabled>TRUE</enabled>
						<duration>156</duration>
						<rate>
							<timebase>25</timebase>
							<ntsc>FALSE</ntsc>
						</rate>
						<start>4186</start>
						<end>4233</end>
						<in>78</in>
						<out>125</out>
						<pproTicksIn>792529920000</pproTicksIn>
						<pproTicksOut>1270080000000</pproTicksOut>
						<alphatype>none</alphatype>
						<pixelaspectratio>square</pixelaspectratio>
						<anamorphic>FALSE</anamorphic>
						<file id="file-285">
							<name>AA3179</name>
							<pathurl>file://localhost/Volumes/Brakka/AdobeLager/Katta/Katta-16xxxx-Klimabloffen-Chris/02-Video/Tomat/restaurant/C300%20restaurant/CONTENTS/CLIPS001/AA3179/AA317901.MXF</pathurl>
							<rate>
								<timebase>25</timebase>
								<ntsc>FALSE</ntsc>
							</rate>
							<duration>156</duration>
							<timecode>
								<rate>
									<timebase>25</timebase>
									<ntsc>FALSE</ntsc>
								</rate>
								<string>21:22:23:22</string>
								<frame>1923597</frame>
								<displayformat>NDF</displayformat>
								<reel>
									<name></name>
								</reel>
							</timecode>
							<media>
								<video>
									<samplecharacteristics>
										<rate>
											<timebase>25</timebase>
											<ntsc>FALSE</ntsc>
										</rate>
										<width>1920</width>
										<height>1080</height>
										<anamorphic>FALSE</anamorphic>
										<pixelaspectratio>square</pixelaspectratio>
										<fielddominance>none</fielddominance>
									</samplecharacteristics>
								</video>
								<audio>
									<samplecharacteristics>
										<depth>16</depth>
										<samplerate>48000</samplerate>
									</samplecharacteristics>
									<channelcount>1</channelcount>
									<layout>stereo</layout>
									<audiochannel>
										<sourcechannel>1</sourcechannel>
										<channellabel>left</channellabel>
									</audiochannel>
								</audio>
								<audio>
									<samplecharacteristics>
										<depth>16</depth>
										<samplerate>48000</samplerate>
									</samplecharacteristics>
									<channelcount>1</channelcount>
									<layout>stereo</layout>
									<audiochannel>
										<sourcechannel>2</sourcechannel>
										<channellabel>right</channellabel>
									</audiochannel>
								</audio>
							</media>
						</file>
						<logginginfo>
							<description></description>
							<scene></scene>
							<shottake>AA3179</shottake>
							<lognote></lognote>
						</logginginfo>
						<labels>
							<label2>Iris</label2>
						</labels>
					</clipitem>
					<clipitem id="clipitem-1025" frameBlend="FALSE">
						<masterclipid>masterclip-293</masterclipid>
						<name>AA3172</name>
						<enabled>TRUE</enabled>
						<duration>15228</duration>
						<rate>
							<timebase>25</timebase>
							<ntsc>FALSE</ntsc>
						</rate>
						<start>4233</start>
						<end>4295</end>
						<in>1056</in>
						<out>1118</out>
						<pproTicksIn>10729635840000</pproTicksIn>
						<pproTicksOut>11359595520000</pproTicksOut>
						<alphatype>none</alphatype>
						<file id="file-283"/>
						<link>
							<linkclipref>clipitem-1025</linkclipref>
							<mediatype>video</mediatype>
							<trackindex>1</trackindex>
							<clipindex>59</clipindex>
						</link>
						<link>
							<linkclipref>clipitem-1213</linkclipref>
							<mediatype>audio</mediatype>
							<trackindex>1</trackindex>
							<clipindex>28</clipindex>
						</link>
						<link>
							<linkclipref>clipitem-1309</linkclipref>
							<mediatype>audio</mediatype>
							<trackindex>2</trackindex>
							<clipindex>19</clipindex>
						</link>
						<logginginfo>
							<description></description>
							<scene></scene>
							<shottake>AA3172</shottake>
							<lognote></lognote>
						</logginginfo>
						<labels>
							<label2>Iris</label2>
						</labels>
					</clipitem>
					<clipitem id="clipitem-1026" frameBlend="FALSE">
						<masterclipid>masterclip-296</masterclipid>
						<name>AA3174</name>
						<enabled>TRUE</enabled>
						<duration>144</duration>
						<rate>
							<timebase>25</timebase>
							<ntsc>FALSE</ntsc>
						</rate>
						<start>4295</start>
						<end>4325</end>
						<in>95</in>
						<out>125</out>
						<pproTicksIn>965260800000</pproTicksIn>
						<pproTicksOut>1270080000000</pproTicksOut>
						<alphatype>none</alphatype>
						<pixelaspectratio>square</pixelaspectratio>
						<anamorphic>FALSE</anamorphic>
						<file id="file-286">
							<name>AA3174</name>
							<pathurl>file://localhost/Volumes/Brakka/AdobeLager/Katta/Katta-16xxxx-Klimabloffen-Chris/02-Video/Tomat/restaurant/C300%20restaurant/CONTENTS/CLIPS001/AA3174/AA317401.MXF</pathurl>
							<rate>
								<timebase>25</timebase>
								<ntsc>FALSE</ntsc>
							</rate>
							<duration>144</duration>
							<timecode>
								<rate>
									<timebase>25</timebase>
									<ntsc>FALSE</ntsc>
								</rate>
								<string>21:21:07:21</string>
								<frame>1921696</frame>
								<displayformat>NDF</displayformat>
								<reel>
									<name></name>
								</reel>
							</timecode>
							<media>
								<video>
									<samplecharacteristics>
										<rate>
											<timebase>25</timebase>
											<ntsc>FALSE</ntsc>
										</rate>
										<width>1920</width>
										<height>1080</height>
										<anamorphic>FALSE</anamorphic>
										<pixelaspectratio>square</pixelaspectratio>
										<fielddominance>none</fielddominance>
									</samplecharacteristics>
								</video>
								<audio>
									<samplecharacteristics>
										<depth>16</depth>
										<samplerate>48000</samplerate>
									</samplecharacteristics>
									<channelcount>1</channelcount>
									<layout>stereo</layout>
									<audiochannel>
										<sourcechannel>1</sourcechannel>
										<channellabel>left</channellabel>
									</audiochannel>
								</audio>
								<audio>
									<samplecharacteristics>
										<depth>16</depth>
										<samplerate>48000</samplerate>
									</samplecharacteristics>
									<channelcount>1</channelcount>
									<layout>stereo</layout>
									<audiochannel>
										<sourcechannel>2</sourcechannel>
										<channellabel>right</channellabel>
									</audiochannel>
								</audio>
							</media>
						</file>
						<logginginfo>
							<description></description>
							<scene></scene>
							<shottake>AA3174</shottake>
							<lognote></lognote>
						</logginginfo>
						<labels>
							<label2>Iris</label2>
						</labels>
					</clipitem>
					<clipitem id="clipitem-1027" frameBlend="FALSE">
						<masterclipid>masterclip-297</masterclipid>
						<name>AA3181</name>
						<enabled>TRUE</enabled>
						<duration>156</duration>
						<rate>
							<timebase>25</timebase>
							<ntsc>FALSE</ntsc>
						</rate>
						<start>4325</start>
						<end>4373</end>
						<in>81</in>
						<out>129</out>
						<pproTicksIn>823011840000</pproTicksIn>
						<pproTicksOut>1310722560000</pproTicksOut>
						<alphatype>none</alphatype>
						<pixelaspectratio>square</pixelaspectratio>
						<anamorphic>FALSE</anamorphic>
						<file id="file-287">
							<name>AA3181</name>
							<pathurl>file://localhost/Volumes/Brakka/AdobeLager/Katta/Katta-16xxxx-Klimabloffen-Chris/02-Video/Tomat/restaurant/C300%20restaurant/CONTENTS/CLIPS001/AA3181/AA318101.MXF</pathurl>
							<rate>
								<timebase>25</timebase>
								<ntsc>FALSE</ntsc>
							</rate>
							<duration>156</duration>
							<timecode>
								<rate>
									<timebase>25</timebase>
									<ntsc>FALSE</ntsc>
								</rate>
								<string>21:23:25:12</string>
								<frame>1925137</frame>
								<displayformat>NDF</displayformat>
								<reel>
									<name></name>
								</reel>
							</timecode>
							<media>
								<video>
									<samplecharacteristics>
										<rate>
											<timebase>25</timebase>
											<ntsc>FALSE</ntsc>
										</rate>
										<width>1920</width>
										<height>1080</height>
										<anamorphic>FALSE</anamorphic>
										<pixelaspectratio>square</pixelaspectratio>
										<fielddominance>none</fielddominance>
									</samplecharacteristics>
								</video>
								<audio>
									<samplecharacteristics>
										<depth>16</depth>
										<samplerate>48000</samplerate>
									</samplecharacteristics>
									<channelcount>1</channelcount>
									<layout>stereo</layout>
									<audiochannel>
										<sourcechannel>1</sourcechannel>
										<channellabel>left</channellabel>
									</audiochannel>
								</audio>
								<audio>
									<samplecharacteristics>
										<depth>16</depth>
										<samplerate>48000</samplerate>
									</samplecharacteristics>
									<channelcount>1</channelcount>
									<layout>stereo</layout>
									<audiochannel>
										<sourcechannel>2</sourcechannel>
										<channellabel>right</channellabel>
									</audiochannel>
								</audio>
							</media>
						</file>
						<logginginfo>
							<description></description>
							<scene></scene>
							<shottake>AA3181</shottake>
							<lognote></lognote>
						</logginginfo>
						<labels>
							<label2>Iris</label2>
						</labels>
					</clipitem>
					<clipitem id="clipitem-1028" frameBlend="FALSE">
						<masterclipid>masterclip-293</masterclipid>
						<name>AA3172</name>
						<enabled>TRUE</enabled>
						<duration>15228</duration>
						<rate>
							<timebase>25</timebase>
							<ntsc>FALSE</ntsc>
						</rate>
						<start>4373</start>
						<end>4434</end>
						<in>8995</in>
						<out>9056</out>
						<pproTicksIn>91394956800000</pproTicksIn>
						<pproTicksOut>92014755840000</pproTicksOut>
						<alphatype>none</alphatype>
						<file id="file-283"/>
						<link>
							<linkclipref>clipitem-1028</linkclipref>
							<mediatype>video</mediatype>
							<trackindex>1</trackindex>
							<clipindex>62</clipindex>
						</link>
						<link>
							<linkclipref>clipitem-1214</linkclipref>
							<mediatype>audio</mediatype>
							<trackindex>1</trackindex>
							<clipindex>29</clipindex>
						</link>
						<link>
							<linkclipref>clipitem-1310</linkclipref>
							<mediatype>audio</mediatype>
							<trackindex>2</trackindex>
							<clipindex>20</clipindex>
						</link>
						<logginginfo>
							<description></description>
							<scene></scene>
							<shottake>AA3172</shottake>
							<lognote></lognote>
						</logginginfo>
						<labels>
							<label2>Iris</label2>
						</labels>
					</clipitem>
					<clipitem id="clipitem-1029" frameBlend="FALSE">
						<masterclipid>masterclip-298</masterclipid>
						<name>AA3178</name>
						<enabled>TRUE</enabled>
						<duration>324</duration>
						<rate>
							<timebase>25</timebase>
							<ntsc>FALSE</ntsc>
						</rate>
						<start>4434</start>
						<end>4491</end>
						<in>182</in>
						<out>239</out>
						<pproTicksIn>1849236480000</pproTicksIn>
						<pproTicksOut>2428392960000</pproTicksOut>
						<alphatype>none</alphatype>
						<pixelaspectratio>square</pixelaspectratio>
						<anamorphic>FALSE</anamorphic>
						<file id="file-288">
							<name>AA3178</name>
							<pathurl>file://localhost/Volumes/Brakka/AdobeLager/Katta/Katta-16xxxx-Klimabloffen-Chris/02-Video/Tomat/restaurant/C300%20restaurant/CONTENTS/CLIPS001/AA3178/AA317801.MXF</pathurl>
							<rate>
								<timebase>25</timebase>
								<ntsc>FALSE</ntsc>
							</rate>
							<duration>324</duration>
							<timecode>
								<rate>
									<timebase>25</timebase>
									<ntsc>FALSE</ntsc>
								</rate>
								<string>21:22:03:15</string>
								<frame>1923090</frame>
								<displayformat>NDF</displayformat>
								<reel>
									<name></name>
								</reel>
							</timecode>
							<media>
								<video>
									<samplecharacteristics>
										<rate>
											<timebase>25</timebase>
											<ntsc>FALSE</ntsc>
										</rate>
										<width>1920</width>
										<height>1080</height>
										<anamorphic>FALSE</anamorphic>
										<pixelaspectratio>square</pixelaspectratio>
										<fielddominance>none</fielddominance>
									</samplecharacteristics>
								</video>
								<audio>
									<samplecharacteristics>
										<depth>16</depth>
										<samplerate>48000</samplerate>
									</samplecharacteristics>
									<channelcount>1</channelcount>
									<layout>stereo</layout>
									<audiochannel>
										<sourcechannel>1</sourcechannel>
										<channellabel>left</channellabel>
									</audiochannel>
								</audio>
								<audio>
									<samplecharacteristics>
										<depth>16</depth>
										<samplerate>48000</samplerate>
									</samplecharacteristics>
									<channelcount>1</channelcount>
									<layout>stereo</layout>
									<audiochannel>
										<sourcechannel>2</sourcechannel>
										<channellabel>right</channellabel>
									</audiochannel>
								</audio>
							</media>
						</file>
						<logginginfo>
							<description></description>
							<scene></scene>
							<shottake>AA3178</shottake>
							<lognote></lognote>
						</logginginfo>
						<labels>
							<label2>Iris</label2>
						</labels>
					</clipitem>
					<clipitem id="clipitem-1030" frameBlend="FALSE">
						<masterclipid>masterclip-293</masterclipid>
						<name>AA3172</name>
						<enabled>TRUE</enabled>
						<duration>15228</duration>
						<rate>
							<timebase>25</timebase>
							<ntsc>FALSE</ntsc>
						</rate>
						<start>4491</start>
						<end>4539</end>
						<in>10427</in>
						<out>10475</out>
						<pproTicksIn>105944993280000</pproTicksIn>
						<pproTicksOut>106432704000000</pproTicksOut>
						<alphatype>none</alphatype>
						<file id="file-283"/>
						<link>
							<linkclipref>clipitem-1030</linkclipref>
							<mediatype>video</mediatype>
							<trackindex>1</trackindex>
							<clipindex>64</clipindex>
						</link>
						<link>
							<linkclipref>clipitem-1215</linkclipref>
							<mediatype>audio</mediatype>
							<trackindex>1</trackindex>
							<clipindex>30</clipindex>
						</link>
						<link>
							<linkclipref>clipitem-1311</linkclipref>
							<mediatype>audio</mediatype>
							<trackindex>2</trackindex>
							<clipindex>21</clipindex>
						</link>
						<logginginfo>
							<description></description>
							<scene></scene>
							<shottake>AA3172</shottake>
							<lognote></lognote>
						</logginginfo>
						<labels>
							<label2>Iris</label2>
						</labels>
					</clipitem>
					<clipitem id="clipitem-1031" frameBlend="FALSE">
						<masterclipid>masterclip-299</masterclipid>
						<name>AA3187</name>
						<enabled>TRUE</enabled>
						<duration>264</duration>
						<rate>
							<timebase>25</timebase>
							<ntsc>FALSE</ntsc>
						</rate>
						<start>4539</start>
						<end>4569</end>
						<in>217</in>
						<out>247</out>
						<pproTicksIn>2204858880000</pproTicksIn>
						<pproTicksOut>2509678080000</pproTicksOut>
						<alphatype>none</alphatype>
						<pixelaspectratio>square</pixelaspectratio>
						<anamorphic>FALSE</anamorphic>
						<file id="file-289">
							<name>AA3187</name>
							<pathurl>file://localhost/Volumes/Brakka/AdobeLager/Katta/Katta-16xxxx-Klimabloffen-Chris/02-Video/Tomat/restaurant/C300%20restaurant/CONTENTS/CLIPS001/AA3187/AA318701.MXF</pathurl>
							<rate>
								<timebase>25</timebase>
								<ntsc>FALSE</ntsc>
							</rate>
							<duration>264</duration>
							<timecode>
								<rate>
									<timebase>25</timebase>
									<ntsc>FALSE</ntsc>
								</rate>
								<string>21:34:02:17</string>
								<frame>1941067</frame>
								<displayformat>NDF</displayformat>
								<reel>
									<name></name>
								</reel>
							</timecode>
							<media>
								<video>
									<samplecharacteristics>
										<rate>
											<timebase>25</timebase>
											<ntsc>FALSE</ntsc>
										</rate>
										<width>1920</width>
										<height>1080</height>
										<anamorphic>FALSE</anamorphic>
										<pixelaspectratio>square</pixelaspectratio>
										<fielddominance>none</fielddominance>
									</samplecharacteristics>
								</video>
								<audio>
									<samplecharacteristics>
										<depth>16</depth>
										<samplerate>48000</samplerate>
									</samplecharacteristics>
									<channelcount>1</channelcount>
									<layout>stereo</layout>
									<audiochannel>
										<sourcechannel>1</sourcechannel>
										<channellabel>left</channellabel>
									</audiochannel>
								</audio>
								<audio>
									<samplecharacteristics>
										<depth>16</depth>
										<samplerate>48000</samplerate>
									</samplecharacteristics>
									<channelcount>1</channelcount>
									<layout>stereo</layout>
									<audiochannel>
										<sourcechannel>2</sourcechannel>
										<channellabel>right</channellabel>
									</audiochannel>
								</audio>
							</media>
						</file>
						<link>
							<linkclipref>clipitem-1031</linkclipref>
							<mediatype>video</mediatype>
							<trackindex>1</trackindex>
							<clipindex>65</clipindex>
						</link>
						<link>
							<linkclipref>clipitem-1216</linkclipref>
							<mediatype>audio</mediatype>
							<trackindex>1</trackindex>
							<clipindex>31</clipindex>
						</link>
						<logginginfo>
							<description></description>
							<scene></scene>
							<shottake>AA3187</shottake>
							<lognote></lognote>
						</logginginfo>
						<labels>
							<label2>Iris</label2>
						</labels>
					</clipitem>
					<clipitem id="clipitem-1032" frameBlend="FALSE">
						<masterclipid>masterclip-283</masterclipid>
						<name>AA3185</name>
						<enabled>TRUE</enabled>
						<duration>3528</duration>
						<rate>
							<timebase>25</timebase>
							<ntsc>FALSE</ntsc>
						</rate>
						<start>4569</start>
						<end>4607</end>
						<in>2323</in>
						<out>2361</out>
						<pproTicksIn>23603166720000</pproTicksIn>
						<pproTicksOut>23989271040000</pproTicksOut>
						<alphatype>none</alphatype>
						<file id="file-273"/>
						<link>
							<linkclipref>clipitem-1032</linkclipref>
							<mediatype>video</mediatype>
							<trackindex>1</trackindex>
							<clipindex>66</clipindex>
						</link>
						<link>
							<linkclipref>clipitem-1365</linkclipref>
							<mediatype>audio</mediatype>
							<trackindex>3</trackindex>
							<clipindex>13</clipindex>
						</link>
						<logginginfo>
							<description></description>
							<scene></scene>
							<shottake>AA3185</shottake>
							<lognote></lognote>
						</logginginfo>
						<labels>
							<label2>Iris</label2>
						</labels>
					</clipitem>
					<clipitem id="clipitem-1033" frameBlend="FALSE">
						<masterclipid>masterclip-282</masterclipid>
						<name>AA3184</name>
						<enabled>TRUE</enabled>
						<duration>1440</duration>
						<rate>
							<timebase>25</timebase>
							<ntsc>FALSE</ntsc>
						</rate>
						<start>4607</start>
						<end>4643</end>
						<in>561</in>
						<out>597</out>
						<pproTicksIn>5700119040000</pproTicksIn>
						<pproTicksOut>6065902080000</pproTicksOut>
						<alphatype>none</alphatype>
						<file id="file-272"/>
						<link>
							<linkclipref>clipitem-1033</linkclipref>
							<mediatype>video</mediatype>
							<trackindex>1</trackindex>
							<clipindex>67</clipindex>
						</link>
						<link>
							<linkclipref>clipitem-1366</linkclipref>
							<mediatype>audio</mediatype>
							<trackindex>3</trackindex>
							<clipindex>14</clipindex>
						</link>
						<logginginfo>
							<description></description>
							<scene></scene>
							<shottake>AA3184</shottake>
							<lognote></lognote>
						</logginginfo>
						<labels>
							<label2>Iris</label2>
						</labels>
					</clipitem>
					<clipitem id="clipitem-1034" frameBlend="FALSE">
						<masterclipid>masterclip-283</masterclipid>
						<name>AA3185</name>
						<enabled>TRUE</enabled>
						<duration>3528</duration>
						<rate>
							<timebase>25</timebase>
							<ntsc>FALSE</ntsc>
						</rate>
						<start>4643</start>
						<end>4678</end>
						<in>673</in>
						<out>708</out>
						<pproTicksIn>6838110720000</pproTicksIn>
						<pproTicksOut>7193733120000</pproTicksOut>
						<alphatype>none</alphatype>
						<file id="file-273"/>
						<link>
							<linkclipref>clipitem-1034</linkclipref>
							<mediatype>video</mediatype>
							<trackindex>1</trackindex>
							<clipindex>68</clipindex>
						</link>
						<link>
							<linkclipref>clipitem-1367</linkclipref>
							<mediatype>audio</mediatype>
							<trackindex>3</trackindex>
							<clipindex>15</clipindex>
						</link>
						<logginginfo>
							<description></description>
							<scene></scene>
							<shottake>AA3185</shottake>
							<lognote></lognote>
						</logginginfo>
						<labels>
							<label2>Iris</label2>
						</labels>
					</clipitem>
					<clipitem id="clipitem-1035" frameBlend="FALSE">
						<masterclipid>masterclip-283</masterclipid>
						<name>AA3185</name>
						<enabled>TRUE</enabled>
						<duration>3528</duration>
						<rate>
							<timebase>25</timebase>
							<ntsc>FALSE</ntsc>
						</rate>
						<start>4678</start>
						<end>4691</end>
						<in>980</in>
						<out>993</out>
						<pproTicksIn>9957427200000</pproTicksIn>
						<pproTicksOut>10089515520000</pproTicksOut>
						<alphatype>none</alphatype>
						<file id="file-273"/>
						<link>
							<linkclipref>clipitem-1035</linkclipref>
							<mediatype>video</mediatype>
							<trackindex>1</trackindex>
							<clipindex>69</clipindex>
						</link>
						<link>
							<linkclipref>clipitem-1368</linkclipref>
							<mediatype>audio</mediatype>
							<trackindex>3</trackindex>
							<clipindex>16</clipindex>
						</link>
						<logginginfo>
							<description></description>
							<scene></scene>
							<shottake>AA3185</shottake>
							<lognote></lognote>
						</logginginfo>
						<labels>
							<label2>Iris</label2>
						</labels>
					</clipitem>
					<clipitem id="clipitem-1036" frameBlend="FALSE">
						<masterclipid>masterclip-300</masterclipid>
						<name>AA3183</name>
						<enabled>TRUE</enabled>
						<duration>252</duration>
						<rate>
							<timebase>25</timebase>
							<ntsc>FALSE</ntsc>
						</rate>
						<start>4691</start>
						<end>4720</end>
						<in>141</in>
						<out>170</out>
						<pproTicksIn>1432650240000</pproTicksIn>
						<pproTicksOut>1727308800000</pproTicksOut>
						<alphatype>none</alphatype>
						<pixelaspectratio>square</pixelaspectratio>
						<anamorphic>FALSE</anamorphic>
						<file id="file-290">
							<name>AA3183</name>
							<pathurl>file://localhost/Volumes/Brakka/AdobeLager/Katta/Katta-16xxxx-Klimabloffen-Chris/02-Video/Tomat/restaurant/C300%20restaurant/CONTENTS/CLIPS001/AA3183/AA318301.MXF</pathurl>
							<rate>
								<timebase>25</timebase>
								<ntsc>FALSE</ntsc>
							</rate>
							<duration>252</duration>
							<timecode>
								<rate>
									<timebase>25</timebase>
									<ntsc>FALSE</ntsc>
								</rate>
								<string>21:25:32:11</string>
								<frame>1928311</frame>
								<displayformat>NDF</displayformat>
								<reel>
									<name></name>
								</reel>
							</timecode>
							<media>
								<video>
									<samplecharacteristics>
										<rate>
											<timebase>25</timebase>
											<ntsc>FALSE</ntsc>
										</rate>
										<width>1920</width>
										<height>1080</height>
										<anamorphic>FALSE</anamorphic>
										<pixelaspectratio>square</pixelaspectratio>
										<fielddominance>none</fielddominance>
									</samplecharacteristics>
								</video>
								<audio>
									<samplecharacteristics>
										<depth>16</depth>
										<samplerate>48000</samplerate>
									</samplecharacteristics>
									<channelcount>1</channelcount>
									<layout>stereo</layout>
									<audiochannel>
										<sourcechannel>1</sourcechannel>
										<channellabel>left</channellabel>
									</audiochannel>
								</audio>
								<audio>
									<samplecharacteristics>
										<depth>16</depth>
										<samplerate>48000</samplerate>
									</samplecharacteristics>
									<channelcount>1</channelcount>
									<layout>stereo</layout>
									<audiochannel>
										<sourcechannel>2</sourcechannel>
										<channellabel>right</channellabel>
									</audiochannel>
								</audio>
							</media>
						</file>
						<link>
							<linkclipref>clipitem-1036</linkclipref>
							<mediatype>video</mediatype>
							<trackindex>1</trackindex>
							<clipindex>70</clipindex>
						</link>
						<link>
							<linkclipref>clipitem-1369</linkclipref>
							<mediatype>audio</mediatype>
							<trackindex>3</trackindex>
							<clipindex>17</clipindex>
						</link>
						<logginginfo>
							<description></description>
							<scene></scene>
							<shottake>AA3183</shottake>
							<lognote></lognote>
						</logginginfo>
						<labels>
							<label2>Iris</label2>
						</labels>
					</clipitem>
					<clipitem id="clipitem-1037" frameBlend="FALSE">
						<masterclipid>masterclip-301</masterclipid>
						<name>AA3188</name>
						<enabled>TRUE</enabled>
						<duration>216</duration>
						<rate>
							<timebase>25</timebase>
							<ntsc>FALSE</ntsc>
						</rate>
						<start>4720</start>
						<end>4788</end>
						<in>102</in>
						<out>170</out>
						<pproTicksIn>1036385280000</pproTicksIn>
						<pproTicksOut>1727308800000</pproTicksOut>
						<alphatype>none</alphatype>
						<pixelaspectratio>square</pixelaspectratio>
						<anamorphic>FALSE</anamorphic>
						<file id="file-291">
							<name>AA3188</name>
							<pathurl>file://localhost/Volumes/Brakka/AdobeLager/Katta/Katta-16xxxx-Klimabloffen-Chris/02-Video/Tomat/restaurant/C300%20restaurant/CONTENTS/CLIPS001/AA3188/AA318801.MXF</pathurl>
							<rate>
								<timebase>25</timebase>
								<ntsc>FALSE</ntsc>
							</rate>
							<duration>216</duration>
							<timecode>
								<rate>
									<timebase>25</timebase>
									<ntsc>FALSE</ntsc>
								</rate>
								<string>21:35:32:09</string>
								<frame>1943309</frame>
								<displayformat>NDF</displayformat>
								<reel>
									<name></name>
								</reel>
							</timecode>
							<media>
								<video>
									<samplecharacteristics>
										<rate>
											<timebase>25</timebase>
											<ntsc>FALSE</ntsc>
										</rate>
										<width>1920</width>
										<height>1080</height>
										<anamorphic>FALSE</anamorphic>
										<pixelaspectratio>square</pixelaspectratio>
										<fielddominance>none</fielddominance>
									</samplecharacteristics>
								</video>
								<audio>
									<samplecharacteristics>
										<depth>16</depth>
										<samplerate>48000</samplerate>
									</samplecharacteristics>
									<channelcount>1</channelcount>
									<layout>stereo</layout>
									<audiochannel>
										<sourcechannel>1</sourcechannel>
										<channellabel>left</channellabel>
									</audiochannel>
								</audio>
								<audio>
									<samplecharacteristics>
										<depth>16</depth>
										<samplerate>48000</samplerate>
									</samplecharacteristics>
									<channelcount>1</channelcount>
									<layout>stereo</layout>
									<audiochannel>
										<sourcechannel>2</sourcechannel>
										<channellabel>right</channellabel>
									</audiochannel>
								</audio>
							</media>
						</file>
						<link>
							<linkclipref>clipitem-1037</linkclipref>
							<mediatype>video</mediatype>
							<trackindex>1</trackindex>
							<clipindex>71</clipindex>
						</link>
						<link>
							<linkclipref>clipitem-1370</linkclipref>
							<mediatype>audio</mediatype>
							<trackindex>3</trackindex>
							<clipindex>18</clipindex>
						</link>
						<logginginfo>
							<description></description>
							<scene></scene>
							<shottake>AA3188</shottake>
							<lognote></lognote>
						</logginginfo>
						<labels>
							<label2>Iris</label2>
						</labels>
					</clipitem>
					<clipitem id="clipitem-1038" frameBlend="FALSE">
						<masterclipid>masterclip-302</masterclipid>
						<name>N42A0919.MOV</name>
						<enabled>TRUE</enabled>
						<duration>96</duration>
						<rate>
							<timebase>25</timebase>
							<ntsc>FALSE</ntsc>
						</rate>
						<start>4788</start>
						<end>4857</end>
						<in>27</in>
						<out>96</out>
						<pproTicksIn>28552870956521</pproTicksIn>
						<pproTicksOut>98915302956521</pproTicksOut>
						<alphatype>black</alphatype>
						<pixelaspectratio>square</pixelaspectratio>
						<anamorphic>FALSE</anamorphic>
						<file id="file-292">
							<name>N42A0919.MOV</name>
							<pathurl>file://localhost/Volumes/Brakka/AdobeLager/Katta/Katta-16xxxx-Klimabloffen-Chris/02-Video/Tomat/restaurant/5d%20restaurant/DCIM/100EOS5D/N42A0919.MOV</pathurl>
							<rate>
								<timebase>25</timebase>
								<ntsc>FALSE</ntsc>
							</rate>
							<duration>9731</duration>
							<timecode>
								<rate>
									<timebase>25</timebase>
									<ntsc>FALSE</ntsc>
								</rate>
								<string>12:41:19:19</string>
								<frame>1141994</frame>
								<displayformat>NDF</displayformat>
								<reel>
									<name></name>
								</reel>
							</timecode>
							<media>
								<video>
									<samplecharacteristics>
										<rate>
											<timebase>25</timebase>
											<ntsc>FALSE</ntsc>
										</rate>
										<width>1920</width>
										<height>1080</height>
										<anamorphic>FALSE</anamorphic>
										<pixelaspectratio>square</pixelaspectratio>
										<fielddominance>none</fielddominance>
									</samplecharacteristics>
								</video>
								<audio>
									<samplecharacteristics>
										<depth>16</depth>
										<samplerate>48000</samplerate>
									</samplecharacteristics>
									<channelcount>1</channelcount>
									<layout>stereo</layout>
									<audiochannel>
										<sourcechannel>1</sourcechannel>
										<channellabel>left</channellabel>
									</audiochannel>
								</audio>
								<audio>
									<samplecharacteristics>
										<depth>16</depth>
										<samplerate>48000</samplerate>
									</samplecharacteristics>
									<channelcount>1</channelcount>
									<layout>stereo</layout>
									<audiochannel>
										<sourcechannel>2</sourcechannel>
										<channellabel>right</channellabel>
									</audiochannel>
								</audio>
							</media>
						</file>
							<filter>
								<effect>
									<name>Time Remap</name>
									<effectid>timeremap</effectid>
									<effectcategory>motion</effectcategory>
									<effecttype>motion</effecttype>
									<mediatype>video</mediatype>
									<parameter authoringApp="PremierePro">
										<parameterid>variablespeed</parameterid>
										<name>variablespeed</name>
										<valuemin>0</valuemin>
										<valuemax>1</valuemax>
										<value>0</value>
									</parameter>
									<parameter authoringApp="PremierePro">
										<parameterid>mappedduration</parameterid>
										<name>mappedduration</name>
										<value>
											<timecode>
												<rate>
													<timebase>0</timebase>
												</rate>
												<string>0</string>
												<frame>0</frame>
												<displayformat>NDF</displayformat>
											</timecode>
										</value>
									</parameter>
									<parameter authoringApp="PremierePro">
										<parameterid>speed</parameterid>
										<name>speed</name>
										<valuemin>-100000</valuemin>
										<valuemax>100000</valuemax>
										<value>10036.2</value>
									</parameter>
									<parameter authoringApp="PremierePro">
										<parameterid>reverse</parameterid>
										<name>reverse</name>
										<value>FALSE</value>
									</parameter>
									<parameter authoringApp="PremierePro">
										<parameterid>frameblending</parameterid>
										<name>frameblending</name>
										<value>FALSE</value>
									</parameter>
								</effect>
							</filter>
						<logginginfo>
							<description></description>
							<scene></scene>
							<shottake></shottake>
							<lognote></lognote>
						</logginginfo>
						<labels>
							<label2>Iris</label2>
						</labels>
					</clipitem>
					<clipitem id="clipitem-1039" frameBlend="FALSE">
						<masterclipid>masterclip-303</masterclipid>
						<name>N42A0920.MOV</name>
						<enabled>TRUE</enabled>
						<duration>99</duration>
						<rate>
							<timebase>25</timebase>
							<ntsc>FALSE</ntsc>
						</rate>
						<start>4857</start>
						<end>4870</end>
						<in>68</in>
						<out>81</out>
						<pproTicksIn>3788116025806</pproTicksIn>
						<pproTicksOut>4501819045161</pproTicksOut>
						<alphatype>black</alphatype>
						<pixelaspectratio>square</pixelaspectratio>
						<anamorphic>FALSE</anamorphic>
						<file id="file-293">
							<name>N42A0920.MOV</name>
							<pathurl>file://localhost/Volumes/Brakka/AdobeLager/Katta/Katta-16xxxx-Klimabloffen-Chris/02-Video/Tomat/restaurant/5d%20restaurant/DCIM/100EOS5D/N42A0920.MOV</pathurl>
							<rate>
								<timebase>25</timebase>
								<ntsc>FALSE</ntsc>
							</rate>
							<duration>536</duration>
							<timecode>
								<rate>
									<timebase>25</timebase>
									<ntsc>FALSE</ntsc>
								</rate>
								<string>12:47:49:00</string>
								<frame>1151725</frame>
								<displayformat>NDF</displayformat>
								<reel>
									<name></name>
								</reel>
							</timecode>
							<media>
								<video>
									<samplecharacteristics>
										<rate>
											<timebase>25</timebase>
											<ntsc>FALSE</ntsc>
										</rate>
										<width>1920</width>
										<height>1080</height>
										<anamorphic>FALSE</anamorphic>
										<pixelaspectratio>square</pixelaspectratio>
										<fielddominance>none</fielddominance>
									</samplecharacteristics>
								</video>
								<audio>
									<samplecharacteristics>
										<depth>16</depth>
										<samplerate>48000</samplerate>
									</samplecharacteristics>
									<channelcount>1</channelcount>
									<layout>stereo</layout>
									<audiochannel>
										<sourcechannel>1</sourcechannel>
										<channellabel>left</channellabel>
									</audiochannel>
								</audio>
								<audio>
									<samplecharacteristics>
										<depth>16</depth>
										<samplerate>48000</samplerate>
									</samplecharacteristics>
									<channelcount>1</channelcount>
									<layout>stereo</layout>
									<audiochannel>
										<sourcechannel>2</sourcechannel>
										<channellabel>right</channellabel>
									</audiochannel>
								</audio>
							</media>
						</file>
							<filter>
								<effect>
									<name>Time Remap</name>
									<effectid>timeremap</effectid>
									<effectcategory>motion</effectcategory>
									<effecttype>motion</effecttype>
									<mediatype>video</mediatype>
									<parameter authoringApp="PremierePro">
										<parameterid>variablespeed</parameterid>
										<name>variablespeed</name>
										<valuemin>0</valuemin>
										<valuemax>1</valuemax>
										<value>0</value>
									</parameter>
									<parameter authoringApp="PremierePro">
										<parameterid>mappedduration</parameterid>
										<name>mappedduration</name>
										<value>
											<timecode>
												<rate>
													<timebase>0</timebase>
												</rate>
												<string>0</string>
												<frame>0</frame>
												<displayformat>NDF</displayformat>
											</timecode>
										</value>
									</parameter>
									<parameter authoringApp="PremierePro">
										<parameterid>speed</parameterid>
										<name>speed</name>
										<valuemin>-100000</valuemin>
										<valuemax>100000</valuemax>
										<value>540.323</value>
									</parameter>
									<parameter authoringApp="PremierePro">
										<parameterid>reverse</parameterid>
										<name>reverse</name>
										<value>FALSE</value>
									</parameter>
									<parameter authoringApp="PremierePro">
										<parameterid>frameblending</parameterid>
										<name>frameblending</name>
										<value>FALSE</value>
									</parameter>
								</effect>
							</filter>
						<logginginfo>
							<description></description>
							<scene></scene>
							<shottake></shottake>
							<lognote></lognote>
						</logginginfo>
						<labels>
							<label2>Iris</label2>
						</labels>
					</clipitem>
					<clipitem id="clipitem-1040" frameBlend="FALSE">
						<masterclipid>masterclip-304</masterclipid>
						<name>AA3193</name>
						<enabled>TRUE</enabled>
						<duration>1536</duration>
						<rate>
							<timebase>25</timebase>
							<ntsc>FALSE</ntsc>
						</rate>
						<start>4870</start>
						<end>4913</end>
						<in>149</in>
						<out>192</out>
						<pproTicksIn>1513935360000</pproTicksIn>
						<pproTicksOut>1950842880000</pproTicksOut>
						<alphatype>none</alphatype>
						<pixelaspectratio>square</pixelaspectratio>
						<anamorphic>FALSE</anamorphic>
						<file id="file-294">
							<name>AA3193</name>
							<pathurl>file://localhost/Volumes/Brakka/AdobeLager/Katta/Katta-16xxxx-Klimabloffen-Chris/02-Video/Tomat/restaurant/C300%20restaurant/CONTENTS/CLIPS001/AA3193/AA319301.MXF</pathurl>
							<rate>
								<timebase>25</timebase>
								<ntsc>FALSE</ntsc>
							</rate>
							<duration>1536</duration>
							<timecode>
								<rate>
									<timebase>25</timebase>
									<ntsc>FALSE</ntsc>
								</rate>
								<string>22:01:15:12</string>
								<frame>1981887</frame>
								<displayformat>NDF</displayformat>
								<reel>
									<name></name>
								</reel>
							</timecode>
							<media>
								<video>
									<samplecharacteristics>
										<rate>
											<timebase>25</timebase>
											<ntsc>FALSE</ntsc>
										</rate>
										<width>1920</width>
										<height>1080</height>
										<anamorphic>FALSE</anamorphic>
										<pixelaspectratio>square</pixelaspectratio>
										<fielddominance>none</fielddominance>
									</samplecharacteristics>
								</video>
								<audio>
									<samplecharacteristics>
										<depth>16</depth>
										<samplerate>48000</samplerate>
									</samplecharacteristics>
									<channelcount>1</channelcount>
									<layout>stereo</layout>
									<audiochannel>
										<sourcechannel>1</sourcechannel>
										<channellabel>left</channellabel>
									</audiochannel>
								</audio>
								<audio>
									<samplecharacteristics>
										<depth>16</depth>
										<samplerate>48000</samplerate>
									</samplecharacteristics>
									<channelcount>1</channelcount>
									<layout>stereo</layout>
									<audiochannel>
										<sourcechannel>2</sourcechannel>
										<channellabel>right</channellabel>
									</audiochannel>
								</audio>
							</media>
						</file>
						<link>
							<linkclipref>clipitem-1040</linkclipref>
							<mediatype>video</mediatype>
							<trackindex>1</trackindex>
							<clipindex>74</clipindex>
						</link>
						<link>
							<linkclipref>clipitem-1393</linkclipref>
							<mediatype>audio</mediatype>
							<trackindex>4</trackindex>
							<clipindex>9</clipindex>
						</link>
						<logginginfo>
							<description></description>
							<scene></scene>
							<shottake>AA3193</shottake>
							<lognote></lognote>
						</logginginfo>
						<labels>
							<label2>Iris</label2>
						</labels>
					</clipitem>
					<clipitem id="clipitem-1041" frameBlend="FALSE">
						<masterclipid>masterclip-305</masterclipid>
						<name>AA3194</name>
						<enabled>TRUE</enabled>
						<duration>59868</duration>
						<rate>
							<timebase>25</timebase>
							<ntsc>FALSE</ntsc>
						</rate>
						<start>4913</start>
						<end>4957</end>
						<in>8148</in>
						<out>8192</out>
						<pproTicksIn>82788894720000</pproTicksIn>
						<pproTicksOut>83235962880000</pproTicksOut>
						<alphatype>none</alphatype>
						<pixelaspectratio>square</pixelaspectratio>
						<anamorphic>FALSE</anamorphic>
						<file id="file-295">
							<name>AA3194</name>
							<pathurl>file://localhost/Volumes/Brakka/AdobeLager/Katta/Katta-16xxxx-Klimabloffen-Chris/02-Video/Tomat/restaurant/C300%20restaurant/CONTENTS/CLIPS001/AA3194/AA319401.MXF</pathurl>
							<rate>
								<timebase>25</timebase>
								<ntsc>FALSE</ntsc>
							</rate>
							<duration>59868</duration>
							<timecode>
								<rate>
									<timebase>25</timebase>
									<ntsc>FALSE</ntsc>
								</rate>
								<string>22:02:18:15</string>
								<frame>1983465</frame>
								<displayformat>NDF</displayformat>
								<reel>
									<name></name>
								</reel>
							</timecode>
							<media>
								<video>
									<samplecharacteristics>
										<rate>
											<timebase>25</timebase>
											<ntsc>FALSE</ntsc>
										</rate>
										<width>1920</width>
										<height>1080</height>
										<anamorphic>FALSE</anamorphic>
										<pixelaspectratio>square</pixelaspectratio>
										<fielddominance>none</fielddominance>
									</samplecharacteristics>
								</video>
								<audio>
									<samplecharacteristics>
										<depth>16</depth>
										<samplerate>48000</samplerate>
									</samplecharacteristics>
									<channelcount>1</channelcount>
									<layout>stereo</layout>
									<audiochannel>
										<sourcechannel>1</sourcechannel>
										<channellabel>left</channellabel>
									</audiochannel>
								</audio>
								<audio>
									<samplecharacteristics>
										<depth>16</depth>
										<samplerate>48000</samplerate>
									</samplecharacteristics>
									<channelcount>1</channelcount>
									<layout>stereo</layout>
									<audiochannel>
										<sourcechannel>2</sourcechannel>
										<channellabel>right</channellabel>
									</audiochannel>
								</audio>
							</media>
						</file>
						<link>
							<linkclipref>clipitem-1041</linkclipref>
							<mediatype>video</mediatype>
							<trackindex>1</trackindex>
							<clipindex>75</clipindex>
						</link>
						<link>
							<linkclipref>clipitem-1371</linkclipref>
							<mediatype>audio</mediatype>
							<trackindex>3</trackindex>
							<clipindex>19</clipindex>
						</link>
						<link>
							<linkclipref>clipitem-1394</linkclipref>
							<mediatype>audio</mediatype>
							<trackindex>4</trackindex>
							<clipindex>10</clipindex>
						</link>
						<logginginfo>
							<description></description>
							<scene></scene>
							<shottake>AA3194</shottake>
							<lognote></lognote>
						</logginginfo>
						<labels>
							<label2>Iris</label2>
						</labels>
					</clipitem>
					<clipitem id="clipitem-1042" frameBlend="FALSE">
						<masterclipid>masterclip-306</masterclipid>
						<name>N42A0921.MOV</name>
						<enabled>TRUE</enabled>
						<duration>14375</duration>
						<rate>
							<timebase>25</timebase>
							<ntsc>FALSE</ntsc>
						</rate>
						<start>4957</start>
						<end>4995</end>
						<in>10328</in>
						<out>10366</out>
						<pproTicksIn>104939089920000</pproTicksIn>
						<pproTicksOut>105325194240000</pproTicksOut>
						<alphatype>black</alphatype>
						<pixelaspectratio>square</pixelaspectratio>
						<anamorphic>FALSE</anamorphic>
						<file id="file-296">
							<name>N42A0921.MOV</name>
							<pathurl>file://localhost/Volumes/Brakka/AdobeLager/Katta/Katta-16xxxx-Klimabloffen-Chris/02-Video/Tomat/restaurant/5d%20restaurant/DCIM/100EOS5D/N42A0921.MOV</pathurl>
							<rate>
								<timebase>25</timebase>
								<ntsc>FALSE</ntsc>
							</rate>
							<duration>14375</duration>
							<timecode>
								<rate>
									<timebase>25</timebase>
									<ntsc>FALSE</ntsc>
								</rate>
								<string>12:48:10:11</string>
								<frame>1152261</frame>
								<displayformat>NDF</displayformat>
								<reel>
									<name></name>
								</reel>
							</timecode>
							<media>
								<video>
									<samplecharacteristics>
										<rate>
											<timebase>25</timebase>
											<ntsc>FALSE</ntsc>
										</rate>
										<width>1920</width>
										<height>1080</height>
										<anamorphic>FALSE</anamorphic>
										<pixelaspectratio>square</pixelaspectratio>
										<fielddominance>none</fielddominance>
									</samplecharacteristics>
								</video>
								<audio>
									<samplecharacteristics>
										<depth>16</depth>
										<samplerate>48000</samplerate>
									</samplecharacteristics>
									<channelcount>1</channelcount>
									<layout>stereo</layout>
									<audiochannel>
										<sourcechannel>1</sourcechannel>
										<channellabel>left</channellabel>
									</audiochannel>
								</audio>
								<audio>
									<samplecharacteristics>
										<depth>16</depth>
										<samplerate>48000</samplerate>
									</samplecharacteristics>
									<channelcount>1</channelcount>
									<layout>stereo</layout>
									<audiochannel>
										<sourcechannel>2</sourcechannel>
										<channellabel>right</channellabel>
									</audiochannel>
								</audio>
							</media>
						</file>
						<logginginfo>
							<description></description>
							<scene></scene>
							<shottake></shottake>
							<lognote></lognote>
						</logginginfo>
						<labels>
							<label2>Iris</label2>
						</labels>
					</clipitem>
					<clipitem id="clipitem-1043" frameBlend="FALSE">
						<masterclipid>masterclip-305</masterclipid>
						<name>AA3194</name>
						<enabled>TRUE</enabled>
						<duration>59868</duration>
						<rate>
							<timebase>25</timebase>
							<ntsc>FALSE</ntsc>
						</rate>
						<start>4995</start>
						<end>5061</end>
						<in>6488</in>
						<out>6554</out>
						<pproTicksIn>65922232320000</pproTicksIn>
						<pproTicksOut>66592834560000</pproTicksOut>
						<alphatype>none</alphatype>
						<file id="file-295"/>
						<logginginfo>
							<description></description>
							<scene></scene>
							<shottake>AA3194</shottake>
							<lognote></lognote>
						</logginginfo>
						<labels>
							<label2>Iris</label2>
						</labels>
					</clipitem>
					<clipitem id="clipitem-1044" frameBlend="FALSE">
						<masterclipid>masterclip-307</masterclipid>
						<name>N42A0927.MOVMulticam</name>
						<enabled>TRUE</enabled>
						<duration>28012</duration>
						<rate>
							<timebase>25</timebase>
							<ntsc>FALSE</ntsc>
						</rate>
						<start>5061</start>
						<end>5410</end>
						<in>4136</in>
						<out>4485</out>
						<pproTicksIn>42024407040000</pproTicksIn>
						<pproTicksOut>45570470400000</pproTicksOut>
						<sequence id="sequence-55">
							<rate>
								<timebase>25</timebase>
								<ntsc>FALSE</ntsc>
							</rate>
							<name>N42A0927.MOVMulticam-4</name>
							<media>
								<video>
									<format>
										<samplecharacteristics>
											<rate>
												<timebase>25</timebase>
												<ntsc>FALSE</ntsc>
											</rate>
											<codec>
												<name>Apple ProRes 422</name>
												<appspecificdata>
													<appname>Final Cut Pro</appname>
													<appmanufacturer>Apple Inc.</appmanufacturer>
													<appversion>7.0</appversion>
													<data>
														<qtcodec>
															<codecname>Apple ProRes 422</codecname>
															<codectypename>Apple ProRes 422</codectypename>
															<codectypecode>apcn</codectypecode>
															<codecvendorcode>appl</codecvendorcode>
															<spatialquality>1024</spatialquality>
															<temporalquality>0</temporalquality>
															<keyframerate>0</keyframerate>
															<datarate>0</datarate>
														</qtcodec>
													</data>
												</appspecificdata>
											</codec>
											<width>1920</width>
											<height>1080</height>
											<anamorphic>FALSE</anamorphic>
											<pixelaspectratio>square</pixelaspectratio>
											<fielddominance>none</fielddominance>
											<colordepth>24</colordepth>
										</samplecharacteristics>
									</format>
									<track>
										<clipitem id="clipitem-1052" frameBlend="FALSE">
											<masterclipid>masterclip-311</masterclipid>
											<name>AA3204</name>
											<enabled>TRUE</enabled>
											<duration>24168</duration>
											<rate>
												<timebase>25</timebase>
												<ntsc>FALSE</ntsc>
											</rate>
											<start>3462</start>
											<end>27630</end>
											<in>0</in>
											<out>24168</out>
											<pproTicksIn>0</pproTicksIn>
											<pproTicksOut>245562347520000</pproTicksOut>
											<alphatype>none</alphatype>
											<pixelaspectratio>square</pixelaspectratio>
											<anamorphic>FALSE</anamorphic>
											<file id="file-300">
												<name>AA3204</name>
												<pathurl>file://localhost/Volumes/Brakka/AdobeLager/Katta/Katta-16xxxx-Klimabloffen-Chris/02-Video/Tomat/restaurant/C300%20restaurant/CONTENTS/CLIPS001/AA3204/AA320401.MXF</pathurl>
												<rate>
													<timebase>25</timebase>
													<ntsc>FALSE</ntsc>
												</rate>
												<duration>24168</duration>
												<timecode>
													<rate>
														<timebase>25</timebase>
														<ntsc>FALSE</ntsc>
													</rate>
													<string>23:12:12:18</string>
													<frame>2088318</frame>
													<displayformat>NDF</displayformat>
													<reel>
														<name></name>
													</reel>
												</timecode>
												<media>
													<video>
														<samplecharacteristics>
															<rate>
																<timebase>25</timebase>
																<ntsc>FALSE</ntsc>
															</rate>
															<width>1920</width>
															<height>1080</height>
															<anamorphic>FALSE</anamorphic>
															<pixelaspectratio>square</pixelaspectratio>
															<fielddominance>none</fielddominance>
														</samplecharacteristics>
													</video>
													<audio>
														<samplecharacteristics>
															<depth>16</depth>
															<samplerate>48000</samplerate>
														</samplecharacteristics>
														<channelcount>1</channelcount>
														<layout>stereo</layout>
														<audiochannel>
															<sourcechannel>1</sourcechannel>
															<channellabel>left</channellabel>
														</audiochannel>
													</audio>
													<audio>
														<samplecharacteristics>
															<depth>16</depth>
															<samplerate>48000</samplerate>
														</samplecharacteristics>
														<channelcount>1</channelcount>
														<layout>stereo</layout>
														<audiochannel>
															<sourcechannel>2</sourcechannel>
															<channellabel>right</channellabel>
														</audiochannel>
													</audio>
												</media>
											</file>
											<logginginfo>
												<description></description>
												<scene></scene>
												<shottake>AA3204</shottake>
												<lognote></lognote>
											</logginginfo>
											<labels>
												<label2>Iris</label2>
											</labels>
										</clipitem>
										<enabled>TRUE</enabled>
										<locked>FALSE</locked>
									</track>
								</video>
								<audio>
									<numOutputChannels>8</numOutputChannels>
									<format>
										<samplecharacteristics>
											<depth>16</depth>
											<samplerate>48000</samplerate>
										</samplecharacteristics>
									</format>
									<outputs>
										<group>
											<index>1</index>
											<numchannels>1</numchannels>
											<downmix>0</downmix>
											<channel>
												<index>1</index>
											</channel>
										</group>
										<group>
											<index>2</index>
											<numchannels>1</numchannels>
											<downmix>0</downmix>
											<channel>
												<index>2</index>
											</channel>
										</group>
										<group>
											<index>3</index>
											<numchannels>1</numchannels>
											<downmix>0</downmix>
											<channel>
												<index>3</index>
											</channel>
										</group>
										<group>
											<index>4</index>
											<numchannels>1</numchannels>
											<downmix>0</downmix>
											<channel>
												<index>4</index>
											</channel>
										</group>
										<group>
											<index>5</index>
											<numchannels>1</numchannels>
											<downmix>0</downmix>
											<channel>
												<index>5</index>
											</channel>
										</group>
										<group>
											<index>6</index>
											<numchannels>1</numchannels>
											<downmix>0</downmix>
											<channel>
												<index>6</index>
											</channel>
										</group>
										<group>
											<index>7</index>
											<numchannels>1</numchannels>
											<downmix>0</downmix>
											<channel>
												<index>7</index>
											</channel>
										</group>
										<group>
											<index>8</index>
											<numchannels>1</numchannels>
											<downmix>0</downmix>
											<channel>
												<index>8</index>
											</channel>
										</group>
									</outputs>
									<track TL.SQTrackExpandedHeight="25" TL.SQTrackExpanded="0" MZ.TrackTargeted="1" PannerIsInverted="true" PannerName="Balance" currentExplodedTrackIndex="0" totalExplodedTrackCount="1" premiereTrackType="Stereo">
										<clipitem id="clipitem-1051" frameBlend="FALSE" premiereChannelType="mono">
											<masterclipid>masterclip-309</masterclipid>
											<name>N42A0928.MOV</name>
											<enabled>TRUE</enabled>
											<duration>11462</duration>
											<rate>
												<timebase>25</timebase>
												<ntsc>FALSE</ntsc>
											</rate>
											<start>16550</start>
											<end>28012</end>
											<in>0</in>
											<out>11462</out>
											<pproTicksIn>0</pproTicksIn>
											<pproTicksOut>116461255680000</pproTicksOut>
											<file id="file-298"/>
											<sourcetrack>
												<mediatype>audio</mediatype>
												<trackindex>2</trackindex>
											</sourcetrack>
											<logginginfo>
												<description></description>
												<scene></scene>
												<shottake></shottake>
												<lognote></lognote>
											</logginginfo>
											<labels>
												<label2>Iris</label2>
											</labels>
										</clipitem>
										<enabled>TRUE</enabled>
										<locked>FALSE</locked>
										<outputchannelindex>3</outputchannelindex>
									</track>
								</audio>
							</media>
							<timecode>
								<rate>
									<timebase>25</timebase>
									<ntsc>FALSE</ntsc>
								</rate>
								<string>00:00:00:00</string>
								<frame>0</frame>
								<displayformat>NDF</displayformat>
							</timecode>
						</sequence>
						<labels>
							<label2>Forest</label2>
						</labels>
					</clipitem>
					<clipitem id="clipitem-1053" frameBlend="FALSE">
						<masterclipid>masterclip-307</masterclipid>
						<name>N42A0927.MOVMulticam</name>
						<enabled>TRUE</enabled>
						<duration>28012</duration>
						<rate>
							<timebase>25</timebase>
							<ntsc>FALSE</ntsc>
						</rate>
						<start>5410</start>
						<end>5495</end>
						<in>4828</in>
						<out>4913</out>
						<pproTicksIn>49055569920000</pproTicksIn>
						<pproTicksOut>49919224320000</pproTicksOut>
						<sequence id="sequence-55"/>
						<labels>
							<label2>Forest</label2>
						</labels>
					</clipitem>
					<clipitem id="clipitem-1054" frameBlend="FALSE">
						<masterclipid>masterclip-307</masterclipid>
						<name>N42A0927.MOVMulticam</name>
						<enabled>TRUE</enabled>
						<duration>28012</duration>
						<rate>
							<timebase>25</timebase>
							<ntsc>FALSE</ntsc>
						</rate>
						<start>5495</start>
						<end>5551</end>
						<in>4900</in>
						<out>4956</out>
						<pproTicksIn>49787136000000</pproTicksIn>
						<pproTicksOut>50356131840000</pproTicksOut>
						<sequence id="sequence-52">
							<rate>
								<timebase>25</timebase>
								<ntsc>FALSE</ntsc>
							</rate>
							<name>N42A0927.MOVMulticam-1</name>
							<media>
								<video>
									<format>
										<samplecharacteristics>
											<rate>
												<timebase>25</timebase>
												<ntsc>FALSE</ntsc>
											</rate>
											<codec>
												<name>Apple ProRes 422</name>
												<appspecificdata>
													<appname>Final Cut Pro</appname>
													<appmanufacturer>Apple Inc.</appmanufacturer>
													<appversion>7.0</appversion>
													<data>
														<qtcodec>
															<codecname>Apple ProRes 422</codecname>
															<codectypename>Apple ProRes 422</codectypename>
															<codectypecode>apcn</codectypecode>
															<codecvendorcode>appl</codecvendorcode>
															<spatialquality>1024</spatialquality>
															<temporalquality>0</temporalquality>
															<keyframerate>0</keyframerate>
															<datarate>0</datarate>
														</qtcodec>
													</data>
												</appspecificdata>
											</codec>
											<width>1920</width>
											<height>1080</height>
											<anamorphic>FALSE</anamorphic>
											<pixelaspectratio>square</pixelaspectratio>
											<fielddominance>none</fielddominance>
											<colordepth>24</colordepth>
										</samplecharacteristics>
									</format>
									<track>
										<clipitem id="clipitem-1046" frameBlend="FALSE">
											<masterclipid>masterclip-308</masterclipid>
											<name>N42A0927.MOV</name>
											<enabled>TRUE</enabled>
											<duration>16550</duration>
											<rate>
												<timebase>25</timebase>
												<ntsc>FALSE</ntsc>
											</rate>
											<start>0</start>
											<end>16550</end>
											<in>0</in>
											<out>16550</out>
											<pproTicksIn>0</pproTicksIn>
											<pproTicksOut>168158592000000</pproTicksOut>
											<alphatype>black</alphatype>
											<file id="file-297"/>
											<logginginfo>
												<description></description>
												<scene></scene>
												<shottake></shottake>
												<lognote></lognote>
											</logginginfo>
											<labels>
												<label2>Iris</label2>
											</labels>
										</clipitem>
										<enabled>TRUE</enabled>
										<locked>FALSE</locked>
									</track>
								</video>
								<audio>
									<numOutputChannels>8</numOutputChannels>
									<format>
										<samplecharacteristics>
											<depth>16</depth>
											<samplerate>48000</samplerate>
										</samplecharacteristics>
									</format>
									<outputs>
										<group>
											<index>1</index>
											<numchannels>1</numchannels>
											<downmix>0</downmix>
											<channel>
												<index>1</index>
											</channel>
										</group>
										<group>
											<index>2</index>
											<numchannels>1</numchannels>
											<downmix>0</downmix>
											<channel>
												<index>2</index>
											</channel>
										</group>
										<group>
											<index>3</index>
											<numchannels>1</numchannels>
											<downmix>0</downmix>
											<channel>
												<index>3</index>
											</channel>
										</group>
										<group>
											<index>4</index>
											<numchannels>1</numchannels>
											<downmix>0</downmix>
											<channel>
												<index>4</index>
											</channel>
										</group>
										<group>
											<index>5</index>
											<numchannels>1</numchannels>
											<downmix>0</downmix>
											<channel>
												<index>5</index>
											</channel>
										</group>
										<group>
											<index>6</index>
											<numchannels>1</numchannels>
											<downmix>0</downmix>
											<channel>
												<index>6</index>
											</channel>
										</group>
										<group>
											<index>7</index>
											<numchannels>1</numchannels>
											<downmix>0</downmix>
											<channel>
												<index>7</index>
											</channel>
										</group>
										<group>
											<index>8</index>
											<numchannels>1</numchannels>
											<downmix>0</downmix>
											<channel>
												<index>8</index>
											</channel>
										</group>
									</outputs>
									<track TL.SQTrackExpandedHeight="25" TL.SQTrackExpanded="0" MZ.TrackTargeted="1" PannerCurrentValue="0" PannerIsInverted="true" PannerStartKeyframe="-91445760000000000,0.,0,0,0,0,0,0" PannerName="Balance" currentExplodedTrackIndex="0" totalExplodedTrackCount="1" premiereTrackType="Stereo">
										<clipitem id="clipitem-1045" frameBlend="FALSE" premiereChannelType="mono">
											<masterclipid>masterclip-308</masterclipid>
											<name>N42A0927.MOV</name>
											<enabled>TRUE</enabled>
											<duration>16550</duration>
											<rate>
												<timebase>25</timebase>
												<ntsc>FALSE</ntsc>
											</rate>
											<start>0</start>
											<end>16550</end>
											<in>0</in>
											<out>16550</out>
											<pproTicksIn>0</pproTicksIn>
											<pproTicksOut>168158592000000</pproTicksOut>
											<pixelaspectratio>square</pixelaspectratio>
											<anamorphic>FALSE</anamorphic>
											<file id="file-297">
												<name>N42A0927.MOV</name>
												<pathurl>file://localhost/Volumes/Brakka/AdobeLager/Katta/Katta-16xxxx-Klimabloffen-Chris/02-Video/Tomat/restaurant/5d%20restaurant/DCIM/100EOS5D/N42A0927.MOV</pathurl>
												<rate>
													<timebase>25</timebase>
													<ntsc>FALSE</ntsc>
												</rate>
												<duration>16550</duration>
												<timecode>
													<rate>
														<timebase>25</timebase>
														<ntsc>FALSE</ntsc>
													</rate>
													<string>13:24:02:21</string>
													<frame>1206071</frame>
													<displayformat>NDF</displayformat>
													<reel>
														<name></name>
													</reel>
												</timecode>
												<media>
													<video>
														<samplecharacteristics>
															<rate>
																<timebase>25</timebase>
																<ntsc>FALSE</ntsc>
															</rate>
															<width>1920</width>
															<height>1080</height>
															<anamorphic>FALSE</anamorphic>
															<pixelaspectratio>square</pixelaspectratio>
															<fielddominance>none</fielddominance>
														</samplecharacteristics>
													</video>
													<audio>
														<samplecharacteristics>
															<depth>16</depth>
															<samplerate>48000</samplerate>
														</samplecharacteristics>
														<channelcount>1</channelcount>
														<layout>stereo</layout>
														<audiochannel>
															<sourcechannel>1</sourcechannel>
															<channellabel>left</channellabel>
														</audiochannel>
													</audio>
													<audio>
														<samplecharacteristics>
															<depth>16</depth>
															<samplerate>48000</samplerate>
														</samplecharacteristics>
														<channelcount>1</channelcount>
														<layout>stereo</layout>
														<audiochannel>
															<sourcechannel>2</sourcechannel>
															<channellabel>right</channellabel>
														</audiochannel>
													</audio>
												</media>
											</file>
											<sourcetrack>
												<mediatype>audio</mediatype>
												<trackindex>1</trackindex>
											</sourcetrack>
											<logginginfo>
												<description></description>
												<scene></scene>
												<shottake></shottake>
												<lognote></lognote>
											</logginginfo>
											<labels>
												<label2>Iris</label2>
											</labels>
										</clipitem>
										<enabled>TRUE</enabled>
										<locked>FALSE</locked>
										<outputchannelindex>1</outputchannelindex>
									</track>
								</audio>
							</media>
							<timecode>
								<rate>
									<timebase>25</timebase>
									<ntsc>FALSE</ntsc>
								</rate>
								<string>00:00:00:00</string>
								<frame>0</frame>
								<displayformat>NDF</displayformat>
							</timecode>
						</sequence>
						<labels>
							<label2>Forest</label2>
						</labels>
					</clipitem>
					<clipitem id="clipitem-1055" frameBlend="FALSE">
						<masterclipid>masterclip-307</masterclipid>
						<name>N42A0927.MOVMulticam</name>
						<enabled>TRUE</enabled>
						<duration>28012</duration>
						<rate>
							<timebase>25</timebase>
							<ntsc>FALSE</ntsc>
						</rate>
						<start>5551</start>
						<end>5576</end>
						<in>5181</in>
						<out>5206</out>
						<pproTicksIn>52642275840000</pproTicksIn>
						<pproTicksOut>52896291840000</pproTicksOut>
						<sequence id="sequence-55"/>
						<labels>
							<label2>Forest</label2>
						</labels>
					</clipitem>
					<clipitem id="clipitem-1056" frameBlend="FALSE">
						<masterclipid>masterclip-312</masterclipid>
						<name>N42A0922.MOV</name>
						<enabled>TRUE</enabled>
						<duration>13750</duration>
						<rate>
							<timebase>25</timebase>
							<ntsc>FALSE</ntsc>
						</rate>
						<start>5576</start>
						<end>5611</end>
						<in>9720</in>
						<out>9755</out>
						<pproTicksIn>98761420800000</pproTicksIn>
						<pproTicksOut>99117043200000</pproTicksOut>
						<alphatype>black</alphatype>
						<pixelaspectratio>square</pixelaspectratio>
						<anamorphic>FALSE</anamorphic>
						<file id="file-301">
							<name>N42A0922.MOV</name>
							<pathurl>file://localhost/Volumes/Brakka/AdobeLager/Katta/Katta-16xxxx-Klimabloffen-Chris/02-Video/Tomat/restaurant/5d%20restaurant/DCIM/100EOS5D/N42A0922.MOV</pathurl>
							<rate>
								<timebase>25</timebase>
								<ntsc>FALSE</ntsc>
							</rate>
							<duration>13750</duration>
							<timecode>
								<rate>
									<timebase>25</timebase>
									<ntsc>FALSE</ntsc>
								</rate>
								<string>12:57:45:11</string>
								<frame>1166636</frame>
								<displayformat>NDF</displayformat>
								<reel>
									<name></name>
								</reel>
							</timecode>
							<media>
								<video>
									<samplecharacteristics>
										<rate>
											<timebase>25</timebase>
											<ntsc>FALSE</ntsc>
										</rate>
										<width>1920</width>
										<height>1080</height>
										<anamorphic>FALSE</anamorphic>
										<pixelaspectratio>square</pixelaspectratio>
										<fielddominance>none</fielddominance>
									</samplecharacteristics>
								</video>
								<audio>
									<samplecharacteristics>
										<depth>16</depth>
										<samplerate>48000</samplerate>
									</samplecharacteristics>
									<channelcount>1</channelcount>
									<layout>stereo</layout>
									<audiochannel>
										<sourcechannel>1</sourcechannel>
										<channellabel>left</channellabel>
									</audiochannel>
								</audio>
								<audio>
									<samplecharacteristics>
										<depth>16</depth>
										<samplerate>48000</samplerate>
									</samplecharacteristics>
									<channelcount>1</channelcount>
									<layout>stereo</layout>
									<audiochannel>
										<sourcechannel>2</sourcechannel>
										<channellabel>right</channellabel>
									</audiochannel>
								</audio>
							</media>
						</file>
						<logginginfo>
							<description></description>
							<scene></scene>
							<shottake></shottake>
							<lognote></lognote>
						</logginginfo>
						<labels>
							<label2>Iris</label2>
						</labels>
					</clipitem>
					<clipitem id="clipitem-1057" frameBlend="FALSE">
						<masterclipid>masterclip-307</masterclipid>
						<name>N42A0927.MOVMulticam</name>
						<enabled>TRUE</enabled>
						<duration>28012</duration>
						<rate>
							<timebase>25</timebase>
							<ntsc>FALSE</ntsc>
						</rate>
						<start>5611</start>
						<end>5684</end>
						<in>5300</in>
						<out>5373</out>
						<pproTicksIn>53851392000000</pproTicksIn>
						<pproTicksOut>54593118720000</pproTicksOut>
						<sequence id="sequence-55"/>
						<labels>
							<label2>Forest</label2>
						</labels>
					</clipitem>
					<clipitem id="clipitem-1058" frameBlend="FALSE">
						<masterclipid>masterclip-305</masterclipid>
						<name>AA3194</name>
						<enabled>TRUE</enabled>
						<duration>59868</duration>
						<rate>
							<timebase>25</timebase>
							<ntsc>FALSE</ntsc>
						</rate>
						<start>5684</start>
						<end>5709</end>
						<in>20422</in>
						<out>20447</out>
						<pproTicksIn>207500590080000</pproTicksIn>
						<pproTicksOut>207754606080000</pproTicksOut>
						<alphatype>none</alphatype>
						<file id="file-295"/>
						<logginginfo>
							<description></description>
							<scene></scene>
							<shottake>AA3194</shottake>
							<lognote></lognote>
						</logginginfo>
						<labels>
							<label2>Iris</label2>
						</labels>
					</clipitem>
					<clipitem id="clipitem-1059" frameBlend="FALSE">
						<masterclipid>masterclip-307</masterclipid>
						<name>N42A0927.MOVMulticam</name>
						<enabled>TRUE</enabled>
						<duration>28012</duration>
						<rate>
							<timebase>25</timebase>
							<ntsc>FALSE</ntsc>
						</rate>
						<start>5709</start>
						<end>5897</end>
						<in>5558</in>
						<out>5746</out>
						<pproTicksIn>56472837120000</pproTicksIn>
						<pproTicksOut>58383037440000</pproTicksOut>
						<sequence id="sequence-55"/>
						<labels>
							<label2>Forest</label2>
						</labels>
					</clipitem>
					<clipitem id="clipitem-1060" frameBlend="FALSE">
						<masterclipid>masterclip-307</masterclipid>
						<name>N42A0927.MOVMulticam</name>
						<enabled>TRUE</enabled>
						<duration>28012</duration>
						<rate>
							<timebase>25</timebase>
							<ntsc>FALSE</ntsc>
						</rate>
						<start>5897</start>
						<end>5925</end>
						<in>5782</in>
						<out>5810</out>
						<pproTicksIn>58748820480000</pproTicksIn>
						<pproTicksOut>59033318400000</pproTicksOut>
						<sequence id="sequence-52"/>
						<labels>
							<label2>Forest</label2>
						</labels>
					</clipitem>
					<clipitem id="clipitem-1061" frameBlend="FALSE">
						<masterclipid>masterclip-307</masterclipid>
						<name>N42A0927.MOVMulticam</name>
						<enabled>TRUE</enabled>
						<duration>28012</duration>
						<rate>
							<timebase>25</timebase>
							<ntsc>FALSE</ntsc>
						</rate>
						<start>5925</start>
						<end>6013</end>
						<in>5832</in>
						<out>5920</out>
						<pproTicksIn>59256852480000</pproTicksIn>
						<pproTicksOut>60150988800000</pproTicksOut>
						<sequence id="sequence-55"/>
						<labels>
							<label2>Forest</label2>
						</labels>
					</clipitem>
					<clipitem id="clipitem-1062" frameBlend="FALSE">
						<masterclipid>masterclip-307</masterclipid>
						<name>N42A0927.MOVMulticam</name>
						<enabled>TRUE</enabled>
						<duration>28012</duration>
						<rate>
							<timebase>25</timebase>
							<ntsc>FALSE</ntsc>
						</rate>
						<start>6013</start>
						<end>6047</end>
						<in>5936</in>
						<out>5970</out>
						<pproTicksIn>60313559040000</pproTicksIn>
						<pproTicksOut>60659020800000</pproTicksOut>
						<sequence id="sequence-52"/>
						<labels>
							<label2>Forest</label2>
						</labels>
					</clipitem>
					<clipitem id="clipitem-1063" frameBlend="FALSE">
						<masterclipid>masterclip-313</masterclipid>
						<name>AA3213</name>
						<enabled>TRUE</enabled>
						<duration>120</duration>
						<rate>
							<timebase>25</timebase>
							<ntsc>FALSE</ntsc>
						</rate>
						<start>6047</start>
						<end>6075</end>
						<in>40</in>
						<out>68</out>
						<pproTicksIn>406425600000</pproTicksIn>
						<pproTicksOut>690923520000</pproTicksOut>
						<alphatype>none</alphatype>
						<pixelaspectratio>square</pixelaspectratio>
						<anamorphic>FALSE</anamorphic>
						<file id="file-302">
							<name>AA3213</name>
							<pathurl>file://localhost/Volumes/Brakka/AdobeLager/Katta/Katta-16xxxx-Klimabloffen-Chris/02-Video/Tomat/restaurant/C300%20restaurant/CONTENTS/CLIPS001/AA3213/AA321301.MXF</pathurl>
							<rate>
								<timebase>25</timebase>
								<ntsc>FALSE</ntsc>
							</rate>
							<duration>120</duration>
							<timecode>
								<rate>
									<timebase>25</timebase>
									<ntsc>FALSE</ntsc>
								</rate>
								<string>23:32:54:12</string>
								<frame>2119362</frame>
								<displayformat>NDF</displayformat>
								<reel>
									<name></name>
								</reel>
							</timecode>
							<media>
								<video>
									<samplecharacteristics>
										<rate>
											<timebase>25</timebase>
											<ntsc>FALSE</ntsc>
										</rate>
										<width>1920</width>
										<height>1080</height>
										<anamorphic>FALSE</anamorphic>
										<pixelaspectratio>square</pixelaspectratio>
										<fielddominance>none</fielddominance>
									</samplecharacteristics>
								</video>
								<audio>
									<samplecharacteristics>
										<depth>16</depth>
										<samplerate>48000</samplerate>
									</samplecharacteristics>
									<channelcount>1</channelcount>
									<layout>stereo</layout>
									<audiochannel>
										<sourcechannel>1</sourcechannel>
										<channellabel>left</channellabel>
									</audiochannel>
								</audio>
								<audio>
									<samplecharacteristics>
										<depth>16</depth>
										<samplerate>48000</samplerate>
									</samplecharacteristics>
									<channelcount>1</channelcount>
									<layout>stereo</layout>
									<audiochannel>
										<sourcechannel>2</sourcechannel>
										<channellabel>right</channellabel>
									</audiochannel>
								</audio>
							</media>
						</file>
						<logginginfo>
							<description></description>
							<scene></scene>
							<shottake>AA3213</shottake>
							<lognote></lognote>
						</logginginfo>
						<labels>
							<label2>Iris</label2>
						</labels>
					</clipitem>
					<clipitem id="clipitem-1064" frameBlend="FALSE">
						<masterclipid>masterclip-314</masterclipid>
						<name>AA3195</name>
						<enabled>TRUE</enabled>
						<duration>8064</duration>
						<rate>
							<timebase>25</timebase>
							<ntsc>FALSE</ntsc>
						</rate>
						<start>6075</start>
						<end>6114</end>
						<in>4006</in>
						<out>4045</out>
						<pproTicksIn>40703523840000</pproTicksIn>
						<pproTicksOut>41099788800000</pproTicksOut>
						<alphatype>none</alphatype>
						<pixelaspectratio>square</pixelaspectratio>
						<anamorphic>FALSE</anamorphic>
						<file id="file-303">
							<name>AA3195</name>
							<pathurl>file://localhost/Volumes/Brakka/AdobeLager/Katta/Katta-16xxxx-Klimabloffen-Chris/02-Video/Tomat/restaurant/C300%20restaurant/CONTENTS/CLIPS001/AA3195/AA319501.MXF</pathurl>
							<rate>
								<timebase>25</timebase>
								<ntsc>FALSE</ntsc>
							</rate>
							<duration>8064</duration>
							<timecode>
								<rate>
									<timebase>25</timebase>
									<ntsc>FALSE</ntsc>
								</rate>
								<string>22:45:03:24</string>
								<frame>2047599</frame>
								<displayformat>NDF</displayformat>
								<reel>
									<name></name>
								</reel>
							</timecode>
							<media>
								<video>
									<samplecharacteristics>
										<rate>
											<timebase>25</timebase>
											<ntsc>FALSE</ntsc>
										</rate>
										<width>1920</width>
										<height>1080</height>
										<anamorphic>FALSE</anamorphic>
										<pixelaspectratio>square</pixelaspectratio>
										<fielddominance>none</fielddominance>
									</samplecharacteristics>
								</video>
								<audio>
									<samplecharacteristics>
										<depth>16</depth>
										<samplerate>48000</samplerate>
									</samplecharacteristics>
									<channelcount>1</channelcount>
									<layout>stereo</layout>
									<audiochannel>
										<sourcechannel>1</sourcechannel>
										<channellabel>left</channellabel>
									</audiochannel>
								</audio>
								<audio>
									<samplecharacteristics>
										<depth>16</depth>
										<samplerate>48000</samplerate>
									</samplecharacteristics>
									<channelcount>1</channelcount>
									<layout>stereo</layout>
									<audiochannel>
										<sourcechannel>2</sourcechannel>
										<channellabel>right</channellabel>
									</audiochannel>
								</audio>
							</media>
						</file>
						<logginginfo>
							<description></description>
							<scene></scene>
							<shottake>AA3195</shottake>
							<lognote></lognote>
						</logginginfo>
						<labels>
							<label2>Iris</label2>
						</labels>
					</clipitem>
					<clipitem id="clipitem-1065" frameBlend="FALSE">
						<masterclipid>masterclip-307</masterclipid>
						<name>N42A0927.MOVMulticam</name>
						<enabled>TRUE</enabled>
						<duration>28012</duration>
						<rate>
							<timebase>25</timebase>
							<ntsc>FALSE</ntsc>
						</rate>
						<start>6114</start>
						<end>6295</end>
						<in>7160</in>
						<out>7341</out>
						<pproTicksIn>72750182400000</pproTicksIn>
						<pproTicksOut>74589258240000</pproTicksOut>
						<sequence id="sequence-55"/>
						<labels>
							<label2>Forest</label2>
						</labels>
					</clipitem>
					<clipitem id="clipitem-1066" frameBlend="FALSE">
						<masterclipid>masterclip-315</masterclipid>
						<name>AA3198</name>
						<enabled>TRUE</enabled>
						<duration>240</duration>
						<rate>
							<timebase>25</timebase>
							<ntsc>FALSE</ntsc>
						</rate>
						<start>6295</start>
						<end>6415</end>
						<in>60</in>
						<out>180</out>
						<pproTicksIn>609638400000</pproTicksIn>
						<pproTicksOut>1828915200000</pproTicksOut>
						<alphatype>none</alphatype>
						<pixelaspectratio>square</pixelaspectratio>
						<anamorphic>FALSE</anamorphic>
						<file id="file-304">
							<name>AA3198</name>
							<pathurl>file://localhost/Volumes/Brakka/AdobeLager/Katta/Katta-16xxxx-Klimabloffen-Chris/02-Video/Tomat/restaurant/C300%20restaurant/CONTENTS/CLIPS001/AA3198/AA319801.MXF</pathurl>
							<rate>
								<timebase>25</timebase>
								<ntsc>FALSE</ntsc>
							</rate>
							<duration>240</duration>
							<timecode>
								<rate>
									<timebase>25</timebase>
									<ntsc>FALSE</ntsc>
								</rate>
								<string>22:52:43:01</string>
								<frame>2059076</frame>
								<displayformat>NDF</displayformat>
								<reel>
									<name></name>
								</reel>
							</timecode>
							<media>
								<video>
									<samplecharacteristics>
										<rate>
											<timebase>25</timebase>
											<ntsc>FALSE</ntsc>
										</rate>
										<width>1920</width>
										<height>1080</height>
										<anamorphic>FALSE</anamorphic>
										<pixelaspectratio>square</pixelaspectratio>
										<fielddominance>none</fielddominance>
									</samplecharacteristics>
								</video>
								<audio>
									<samplecharacteristics>
										<depth>16</depth>
										<samplerate>48000</samplerate>
									</samplecharacteristics>
									<channelcount>1</channelcount>
									<layout>stereo</layout>
									<audiochannel>
										<sourcechannel>1</sourcechannel>
										<channellabel>left</channellabel>
									</audiochannel>
								</audio>
								<audio>
									<samplecharacteristics>
										<depth>16</depth>
										<samplerate>48000</samplerate>
									</samplecharacteristics>
									<channelcount>1</channelcount>
									<layout>stereo</layout>
									<audiochannel>
										<sourcechannel>2</sourcechannel>
										<channellabel>right</channellabel>
									</audiochannel>
								</audio>
							</media>
						</file>
						<logginginfo>
							<description></description>
							<scene></scene>
							<shottake>AA3198</shottake>
							<lognote></lognote>
						</logginginfo>
						<labels>
							<label2>Iris</label2>
						</labels>
					</clipitem>
					<clipitem id="clipitem-1067" frameBlend="FALSE">
						<masterclipid>masterclip-307</masterclipid>
						<name>N42A0927.MOVMulticam</name>
						<enabled>TRUE</enabled>
						<duration>28012</duration>
						<rate>
							<timebase>25</timebase>
							<ntsc>FALSE</ntsc>
						</rate>
						<start>6415</start>
						<end>6481</end>
						<in>8715</in>
						<out>8781</out>
						<pproTicksIn>88549977600000</pproTicksIn>
						<pproTicksOut>89220579840000</pproTicksOut>
						<sequence id="sequence-52"/>
						<labels>
							<label2>Forest</label2>
						</labels>
					</clipitem>
					<clipitem id="clipitem-1068" frameBlend="FALSE">
						<masterclipid>masterclip-307</masterclipid>
						<name>N42A0927.MOVMulticam</name>
						<enabled>TRUE</enabled>
						<duration>28012</duration>
						<rate>
							<timebase>25</timebase>
							<ntsc>FALSE</ntsc>
						</rate>
						<start>6481</start>
						<end>6824</end>
						<in>8781</in>
						<out>9124</out>
						<pproTicksIn>89220579840000</pproTicksIn>
						<pproTicksOut>92705679360000</pproTicksOut>
						<sequence id="sequence-55"/>
						<labels>
							<label2>Forest</label2>
						</labels>
					</clipitem>
					<clipitem id="clipitem-1069" frameBlend="FALSE">
						<masterclipid>masterclip-316</masterclipid>
						<name>N42A0924.MOVMulticam</name>
						<enabled>TRUE</enabled>
						<duration>63746</duration>
						<rate>
							<timebase>25</timebase>
							<ntsc>FALSE</ntsc>
						</rate>
						<start>6824</start>
						<end>6881</end>
						<in>34973</in>
						<out>35030</out>
						<pproTicksIn>355348062720000</pproTicksIn>
						<pproTicksOut>355927219200000</pproTicksOut>
						<labels>
							<label2>Forest</label2>
						</labels>
					</clipitem>
					<clipitem id="clipitem-1078" frameBlend="FALSE">
						<masterclipid>masterclip-319</masterclipid>
						<name>AA3210</name>
						<enabled>TRUE</enabled>
						<duration>336</duration>
						<rate>
							<timebase>25</timebase>
							<ntsc>FALSE</ntsc>
						</rate>
						<start>6881</start>
						<end>6933</end>
						<in>220</in>
						<out>272</out>
						<pproTicksIn>1117670400000</pproTicksIn>
						<pproTicksOut>1381847040000</pproTicksOut>
						<alphatype>none</alphatype>
						<pixelaspectratio>square</pixelaspectratio>
						<anamorphic>FALSE</anamorphic>
						<file id="file-307">
							<name>AA3210</name>
							<pathurl>file://localhost/Volumes/Brakka/AdobeLager/Katta/Katta-16xxxx-Klimabloffen-Chris/02-Video/Tomat/restaurant/C300%20restaurant/CONTENTS/CLIPS001/AA3210/AA321001.MXF</pathurl>
							<rate>
								<timebase>25</timebase>
								<ntsc>FALSE</ntsc>
							</rate>
							<duration>168</duration>
							<timecode>
								<rate>
									<timebase>25</timebase>
									<ntsc>FALSE</ntsc>
								</rate>
								<string>23:31:26:22</string>
								<frame>2117172</frame>
								<displayformat>NDF</displayformat>
								<reel>
									<name></name>
								</reel>
							</timecode>
							<media>
								<video>
									<samplecharacteristics>
										<rate>
											<timebase>25</timebase>
											<ntsc>FALSE</ntsc>
										</rate>
										<width>1920</width>
										<height>1080</height>
										<anamorphic>FALSE</anamorphic>
										<pixelaspectratio>square</pixelaspectratio>
										<fielddominance>none</fielddominance>
									</samplecharacteristics>
								</video>
								<audio>
									<samplecharacteristics>
										<depth>16</depth>
										<samplerate>48000</samplerate>
									</samplecharacteristics>
									<channelcount>1</channelcount>
									<layout>stereo</layout>
									<audiochannel>
										<sourcechannel>1</sourcechannel>
										<channellabel>left</channellabel>
									</audiochannel>
								</audio>
								<audio>
									<samplecharacteristics>
										<depth>16</depth>
										<samplerate>48000</samplerate>
									</samplecharacteristics>
									<channelcount>1</channelcount>
									<layout>stereo</layout>
									<audiochannel>
										<sourcechannel>2</sourcechannel>
										<channellabel>right</channellabel>
									</audiochannel>
								</audio>
							</media>
						</file>
							<filter>
								<effect>
									<name>Time Remap</name>
									<effectid>timeremap</effectid>
									<effectcategory>motion</effectcategory>
									<effecttype>motion</effecttype>
									<mediatype>video</mediatype>
									<parameter authoringApp="PremierePro">
										<parameterid>variablespeed</parameterid>
										<name>variablespeed</name>
										<valuemin>0</valuemin>
										<valuemax>1</valuemax>
										<value>0</value>
									</parameter>
									<parameter authoringApp="PremierePro">
										<parameterid>mappedduration</parameterid>
										<name>mappedduration</name>
										<value>
											<timecode>
												<rate>
													<timebase>0</timebase>
												</rate>
												<string>0</string>
												<frame>0</frame>
												<displayformat>NDF</displayformat>
											</timecode>
										</value>
									</parameter>
									<parameter authoringApp="PremierePro">
										<parameterid>speed</parameterid>
										<name>speed</name>
										<valuemin>-100000</valuemin>
										<valuemax>100000</valuemax>
										<value>50</value>
									</parameter>
									<parameter authoringApp="PremierePro">
										<parameterid>reverse</parameterid>
										<name>reverse</name>
										<value>FALSE</value>
									</parameter>
									<parameter authoringApp="PremierePro">
										<parameterid>frameblending</parameterid>
										<name>frameblending</name>
										<value>FALSE</value>
									</parameter>
								</effect>
							</filter>
						<logginginfo>
							<description></description>
							<scene></scene>
							<shottake>AA3210</shottake>
							<lognote></lognote>
						</logginginfo>
						<labels>
							<label2>Iris</label2>
						</labels>
					</clipitem>
					<clipitem id="clipitem-1079" frameBlend="FALSE">
						<masterclipid>masterclip-307</masterclipid>
						<name>N42A0927.MOVMulticam</name>
						<enabled>TRUE</enabled>
						<duration>28012</duration>
						<rate>
							<timebase>25</timebase>
							<ntsc>FALSE</ntsc>
						</rate>
						<start>6933</start>
						<end>7007</end>
						<in>9247</in>
						<out>9321</out>
						<pproTicksIn>93955438080000</pproTicksIn>
						<pproTicksOut>94707325440000</pproTicksOut>
						<sequence id="sequence-55"/>
						<labels>
							<label2>Forest</label2>
						</labels>
					</clipitem>
					<clipitem id="clipitem-1080" frameBlend="FALSE">
						<masterclipid>masterclip-319</masterclipid>
						<name>AA3210</name>
						<enabled>TRUE</enabled>
						<duration>168</duration>
						<rate>
							<timebase>25</timebase>
							<ntsc>FALSE</ntsc>
						</rate>
						<start>7007</start>
						<end>7098</end>
						<in>57</in>
						<out>148</out>
						<pproTicksIn>579156480000</pproTicksIn>
						<pproTicksOut>1503774720000</pproTicksOut>
						<alphatype>none</alphatype>
						<file id="file-307"/>
						<logginginfo>
							<description></description>
							<scene></scene>
							<shottake>AA3210</shottake>
							<lognote></lognote>
						</logginginfo>
						<labels>
							<label2>Iris</label2>
						</labels>
					</clipitem>
					<clipitem id="clipitem-1081" frameBlend="FALSE">
						<masterclipid>masterclip-320</masterclipid>
						<name>AA3138</name>
						<enabled>TRUE</enabled>
						<duration>360</duration>
						<rate>
							<timebase>25</timebase>
							<ntsc>FALSE</ntsc>
						</rate>
						<start>7098</start>
						<end>7367</end>
						<in>91</in>
						<out>360</out>
						<pproTicksIn>924618240000</pproTicksIn>
						<pproTicksOut>3657830400000</pproTicksOut>
						<alphatype>none</alphatype>
						<pixelaspectratio>square</pixelaspectratio>
						<anamorphic>FALSE</anamorphic>
						<file id="file-308">
							<name>AA3138</name>
							<pathurl>file://localhost/Volumes/Brakka/AdobeLager/Katta/Katta-16xxxx-Klimabloffen-Chris/02-Video/Felles/Dora%201/CONTENTS/CLIPS001/AA3138/AA313801.MXF</pathurl>
							<rate>
								<timebase>25</timebase>
								<ntsc>FALSE</ntsc>
							</rate>
							<duration>360</duration>
							<timecode>
								<rate>
									<timebase>25</timebase>
									<ntsc>FALSE</ntsc>
								</rate>
								<string>00:38:04:08</string>
								<frame>57108</frame>
								<displayformat>NDF</displayformat>
								<reel>
									<name></name>
								</reel>
							</timecode>
							<media>
								<video>
									<samplecharacteristics>
										<rate>
											<timebase>25</timebase>
											<ntsc>FALSE</ntsc>
										</rate>
										<width>1920</width>
										<height>1080</height>
										<anamorphic>FALSE</anamorphic>
										<pixelaspectratio>square</pixelaspectratio>
										<fielddominance>none</fielddominance>
									</samplecharacteristics>
								</video>
								<audio>
									<samplecharacteristics>
										<depth>16</depth>
										<samplerate>48000</samplerate>
									</samplecharacteristics>
									<channelcount>1</channelcount>
									<layout>stereo</layout>
									<audiochannel>
										<sourcechannel>1</sourcechannel>
										<channellabel>left</channellabel>
									</audiochannel>
								</audio>
								<audio>
									<samplecharacteristics>
										<depth>16</depth>
										<samplerate>48000</samplerate>
									</samplecharacteristics>
									<channelcount>1</channelcount>
									<layout>stereo</layout>
									<audiochannel>
										<sourcechannel>2</sourcechannel>
										<channellabel>right</channellabel>
									</audiochannel>
								</audio>
							</media>
						</file>
						<logginginfo>
							<description></description>
							<scene></scene>
							<shottake>AA3138</shottake>
							<lognote></lognote>
						</logginginfo>
						<labels>
							<label2>Iris</label2>
						</labels>
					</clipitem>
					<clipitem id="clipitem-1082" frameBlend="FALSE">
						<masterclipid>masterclip-321</masterclipid>
						<name>AA3109</name>
						<enabled>TRUE</enabled>
						<duration>5808</duration>
						<rate>
							<timebase>25</timebase>
							<ntsc>FALSE</ntsc>
						</rate>
						<start>7367</start>
						<end>7394</end>
						<in>5195</in>
						<out>5222</out>
						<pproTicksIn>52784524800000</pproTicksIn>
						<pproTicksOut>53058862080000</pproTicksOut>
						<alphatype>none</alphatype>
						<pixelaspectratio>square</pixelaspectratio>
						<anamorphic>FALSE</anamorphic>
						<file id="file-309">
							<name>AA3109</name>
							<pathurl>file://localhost/Volumes/Brakka/AdobeLager/Katta/Katta-16xxxx-Klimabloffen-Chris/02-Video/Tomat/gr%c3%b8nnsaksbonde/CONTENTS/CLIPS001/AA3109/AA310901.MXF</pathurl>
							<rate>
								<timebase>25</timebase>
								<ntsc>FALSE</ntsc>
							</rate>
							<duration>5808</duration>
							<timecode>
								<rate>
									<timebase>25</timebase>
									<ntsc>FALSE</ntsc>
								</rate>
								<string>02:13:02:01</string>
								<frame>199551</frame>
								<displayformat>NDF</displayformat>
								<reel>
									<name></name>
								</reel>
							</timecode>
							<media>
								<video>
									<samplecharacteristics>
										<rate>
											<timebase>25</timebase>
											<ntsc>FALSE</ntsc>
										</rate>
										<width>1920</width>
										<height>1080</height>
										<anamorphic>FALSE</anamorphic>
										<pixelaspectratio>square</pixelaspectratio>
										<fielddominance>upper</fielddominance>
									</samplecharacteristics>
								</video>
								<audio>
									<samplecharacteristics>
										<depth>16</depth>
										<samplerate>48000</samplerate>
									</samplecharacteristics>
									<channelcount>1</channelcount>
									<layout>stereo</layout>
									<audiochannel>
										<sourcechannel>1</sourcechannel>
										<channellabel>left</channellabel>
									</audiochannel>
								</audio>
								<audio>
									<samplecharacteristics>
										<depth>16</depth>
										<samplerate>48000</samplerate>
									</samplecharacteristics>
									<channelcount>1</channelcount>
									<layout>stereo</layout>
									<audiochannel>
										<sourcechannel>2</sourcechannel>
										<channellabel>right</channellabel>
									</audiochannel>
								</audio>
							</media>
						</file>
						<link>
							<linkclipref>clipitem-1082</linkclipref>
							<mediatype>video</mediatype>
							<trackindex>1</trackindex>
							<clipindex>100</clipindex>
						</link>
						<link>
							<linkclipref>clipitem-1373</linkclipref>
							<mediatype>audio</mediatype>
							<trackindex>3</trackindex>
							<clipindex>21</clipindex>
						</link>
						<link>
							<linkclipref>clipitem-1396</linkclipref>
							<mediatype>audio</mediatype>
							<trackindex>4</trackindex>
							<clipindex>12</clipindex>
						</link>
						<logginginfo>
							<description></description>
							<scene></scene>
							<shottake>AA3109</shottake>
							<lognote></lognote>
						</logginginfo>
						<labels>
							<label2>Iris</label2>
						</labels>
					</clipitem>
					<clipitem id="clipitem-1083" frameBlend="FALSE">
						<masterclipid>masterclip-322</masterclipid>
						<name>AA3117</name>
						<enabled>TRUE</enabled>
						<duration>4392</duration>
						<rate>
							<timebase>25</timebase>
							<ntsc>FALSE</ntsc>
						</rate>
						<start>7394</start>
						<end>7735</end>
						<in>2826</in>
						<out>3167</out>
						<pproTicksIn>28713968640000</pproTicksIn>
						<pproTicksOut>32178746880000</pproTicksOut>
						<alphatype>none</alphatype>
						<pixelaspectratio>square</pixelaspectratio>
						<anamorphic>FALSE</anamorphic>
						<file id="file-310">
							<name>AA3117</name>
							<pathurl>file://localhost/Volumes/Brakka/AdobeLager/Katta/Katta-16xxxx-Klimabloffen-Chris/02-Video/Tomat/gr%c3%b8nnsaksbonde/CONTENTS/CLIPS001/AA3117/AA311701.MXF</pathurl>
							<rate>
								<timebase>25</timebase>
								<ntsc>FALSE</ntsc>
							</rate>
							<duration>4392</duration>
							<timecode>
								<rate>
									<timebase>25</timebase>
									<ntsc>FALSE</ntsc>
								</rate>
								<string>02:36:14:23</string>
								<frame>234373</frame>
								<displayformat>NDF</displayformat>
								<reel>
									<name></name>
								</reel>
							</timecode>
							<media>
								<video>
									<samplecharacteristics>
										<rate>
											<timebase>25</timebase>
											<ntsc>FALSE</ntsc>
										</rate>
										<width>1920</width>
										<height>1080</height>
										<anamorphic>FALSE</anamorphic>
										<pixelaspectratio>square</pixelaspectratio>
										<fielddominance>upper</fielddominance>
									</samplecharacteristics>
								</video>
								<audio>
									<samplecharacteristics>
										<depth>16</depth>
										<samplerate>48000</samplerate>
									</samplecharacteristics>
									<channelcount>1</channelcount>
									<layout>stereo</layout>
									<audiochannel>
										<sourcechannel>1</sourcechannel>
										<channellabel>left</channellabel>
									</audiochannel>
								</audio>
								<audio>
									<samplecharacteristics>
										<depth>16</depth>
										<samplerate>48000</samplerate>
									</samplecharacteristics>
									<channelcount>1</channelcount>
									<layout>stereo</layout>
									<audiochannel>
										<sourcechannel>2</sourcechannel>
										<channellabel>right</channellabel>
									</audiochannel>
								</audio>
							</media>
						</file>
						<link>
							<linkclipref>clipitem-1083</linkclipref>
							<mediatype>video</mediatype>
							<trackindex>1</trackindex>
							<clipindex>101</clipindex>
						</link>
						<link>
							<linkclipref>clipitem-1246</linkclipref>
							<mediatype>audio</mediatype>
							<trackindex>1</trackindex>
							<clipindex>49</clipindex>
						</link>
						<logginginfo>
							<description></description>
							<scene></scene>
							<shottake>AA3117</shottake>
							<lognote></lognote>
						</logginginfo>
						<labels>
							<label2>Iris</label2>
						</labels>
					</clipitem>
					<clipitem id="clipitem-1084" frameBlend="FALSE">
						<masterclipid>masterclip-323</masterclipid>
						<name>AA3114</name>
						<enabled>TRUE</enabled>
						<duration>1752</duration>
						<rate>
							<timebase>25</timebase>
							<ntsc>FALSE</ntsc>
						</rate>
						<start>7735</start>
						<end>7854</end>
						<in>1447</in>
						<out>1566</out>
						<pproTicksIn>14702446080000</pproTicksIn>
						<pproTicksOut>15911562240000</pproTicksOut>
						<alphatype>none</alphatype>
						<pixelaspectratio>square</pixelaspectratio>
						<anamorphic>FALSE</anamorphic>
						<file id="file-311">
							<name>AA3114</name>
							<pathurl>file://localhost/Volumes/Brakka/AdobeLager/Katta/Katta-16xxxx-Klimabloffen-Chris/02-Video/Tomat/gr%c3%b8nnsaksbonde/CONTENTS/CLIPS001/AA3114/AA311401.MXF</pathurl>
							<rate>
								<timebase>25</timebase>
								<ntsc>FALSE</ntsc>
							</rate>
							<duration>1752</duration>
							<timecode>
								<rate>
									<timebase>25</timebase>
									<ntsc>FALSE</ntsc>
								</rate>
								<string>02:24:45:24</string>
								<frame>217149</frame>
								<displayformat>NDF</displayformat>
								<reel>
									<name></name>
								</reel>
							</timecode>
							<media>
								<video>
									<samplecharacteristics>
										<rate>
											<timebase>25</timebase>
											<ntsc>FALSE</ntsc>
										</rate>
										<width>1920</width>
										<height>1080</height>
										<anamorphic>FALSE</anamorphic>
										<pixelaspectratio>square</pixelaspectratio>
										<fielddominance>upper</fielddominance>
									</samplecharacteristics>
								</video>
								<audio>
									<samplecharacteristics>
										<depth>16</depth>
										<samplerate>48000</samplerate>
									</samplecharacteristics>
									<channelcount>1</channelcount>
									<layout>stereo</layout>
									<audiochannel>
										<sourcechannel>1</sourcechannel>
										<channellabel>left</channellabel>
									</audiochannel>
								</audio>
								<audio>
									<samplecharacteristics>
										<depth>16</depth>
										<samplerate>48000</samplerate>
									</samplecharacteristics>
									<channelcount>1</channelcount>
									<layout>stereo</layout>
									<audiochannel>
										<sourcechannel>2</sourcechannel>
										<channellabel>right</channellabel>
									</audiochannel>
								</audio>
							</media>
						</file>
						<link>
							<linkclipref>clipitem-1084</linkclipref>
							<mediatype>video</mediatype>
							<trackindex>1</trackindex>
							<clipindex>102</clipindex>
						</link>
						<link>
							<linkclipref>clipitem-1397</linkclipref>
							<mediatype>audio</mediatype>
							<trackindex>4</trackindex>
							<clipindex>13</clipindex>
						</link>
						<logginginfo>
							<description></description>
							<scene></scene>
							<shottake>AA3114</shottake>
							<lognote></lognote>
						</logginginfo>
						<labels>
							<label2>Iris</label2>
						</labels>
					</clipitem>
					<clipitem id="clipitem-1085" frameBlend="FALSE">
						<masterclipid>masterclip-324</masterclipid>
						<name>AA3120</name>
						<enabled>TRUE</enabled>
						<duration>18096</duration>
						<rate>
							<timebase>25</timebase>
							<ntsc>FALSE</ntsc>
						</rate>
						<start>7854</start>
						<end>7998</end>
						<in>4947</in>
						<out>5091</out>
						<pproTicksIn>50264686080000</pproTicksIn>
						<pproTicksOut>51727818240000</pproTicksOut>
						<alphatype>none</alphatype>
						<pixelaspectratio>square</pixelaspectratio>
						<anamorphic>FALSE</anamorphic>
						<file id="file-312">
							<name>AA3120</name>
							<pathurl>file://localhost/Volumes/Brakka/AdobeLager/Katta/Katta-16xxxx-Klimabloffen-Chris/02-Video/Tomat/gr%c3%b8nnsaksbonde/CONTENTS/CLIPS001/AA3120/AA312001.MXF</pathurl>
							<rate>
								<timebase>25</timebase>
								<ntsc>FALSE</ntsc>
							</rate>
							<duration>18096</duration>
							<timecode>
								<rate>
									<timebase>25</timebase>
									<ntsc>FALSE</ntsc>
								</rate>
								<string>02:44:04:21</string>
								<frame>246121</frame>
								<displayformat>NDF</displayformat>
								<reel>
									<name></name>
								</reel>
							</timecode>
							<media>
								<video>
									<samplecharacteristics>
										<rate>
											<timebase>25</timebase>
											<ntsc>FALSE</ntsc>
										</rate>
										<width>1920</width>
										<height>1080</height>
										<anamorphic>FALSE</anamorphic>
										<pixelaspectratio>square</pixelaspectratio>
										<fielddominance>upper</fielddominance>
									</samplecharacteristics>
								</video>
								<audio>
									<samplecharacteristics>
										<depth>16</depth>
										<samplerate>48000</samplerate>
									</samplecharacteristics>
									<channelcount>1</channelcount>
									<layout>stereo</layout>
									<audiochannel>
										<sourcechannel>1</sourcechannel>
										<channellabel>left</channellabel>
									</audiochannel>
								</audio>
								<audio>
									<samplecharacteristics>
										<depth>16</depth>
										<samplerate>48000</samplerate>
									</samplecharacteristics>
									<channelcount>1</channelcount>
									<layout>stereo</layout>
									<audiochannel>
										<sourcechannel>2</sourcechannel>
										<channellabel>right</channellabel>
									</audiochannel>
								</audio>
							</media>
						</file>
							<marker>
								<comment>følger dere med på strømprisene så dere vet når dere skal svitsje over på propan&#13;ja</comment>
								<name></name>
								<in>6525</in>
								<out>-1</out>
							</marker>
							<marker>
								<comment>april</comment>
								<name></name>
								<in>1180</in>
								<out>-1</out>
							</marker>
							<marker>
								<comment>i natt er det strøm, der er på dagtid det er dyrt med strøm</comment>
								<name></name>
								<in>7252</in>
								<out>-1</out>
							</marker>
							<marker>
								<comment>så strømregningen deres er ganske stor&#13;en stor del av slyumpen går til energi</comment>
								<name></name>
								<in>14044</in>
								<out>-1</out>
							</marker>
							<marker>
								<comment>og den norske strømmen er jo heller ikke klimanøytral, vi utveksler jo med danmark og sverige</comment>
								<name></name>
								<in>14390</in>
								<out>-1</out>
							</marker>
							<marker>
								<comment>sola står for modningen, men vi har varme</comment>
								<name></name>
								<in>3262</in>
								<out>-1</out>
							</marker>
							<marker>
								<comment></comment>
								<name>Wow</name>
								<in>672</in>
								<out>-1</out>
							</marker>
							<marker>
								<comment>prøver å finne ut hvorfor utslippene fra norske tomater blir så høye</comment>
								<name></name>
								<in>1756</in>
								<out>-1</out>
							</marker>
							<marker>
								<comment>70 prosetn 30 prosent</comment>
								<name></name>
								<in>11752</in>
								<out>-1</out>
							</marker>
							<marker>
								<comment>mål om å bli mer klimavennlig?&#13;ja, det er derfor vi skal byte t den, men vi må ha backup</comment>
								<name></name>
								<in>12253</in>
								<out>-1</out>
							</marker>
							<marker>
								<comment>om natta når det er 15 minus, holder det ikke</comment>
								<name></name>
								<in>4748</in>
								<out>-1</out>
							</marker>
							<marker>
								<comment>når får v idise, det begynner å komme i april</comment>
								<name></name>
								<in>15175</in>
								<out>-1</out>
							</marker>
							<marker>
								<comment>i dag er det ikke billigere, i dag er strømmen dyr</comment>
								<name></name>
								<in>5536</in>
								<out>-1</out>
							</marker>
							<marker>
								<comment>så ahr vi propanbrener</comment>
								<name></name>
								<in>3681</in>
								<out>-1</out>
							</marker>
							<marker>
								<comment>varmen produserer innni her?&#13;det er en ovn og det er en ovn</comment>
								<name></name>
								<in>5893</in>
								<out>-1</out>
							</marker>
							<marker>
								<comment>i åære har får vi 10 prosent lys og 90 prosent varme</comment>
								<name></name>
								<in>4490</in>
								<out>-1</out>
							</marker>
							<marker>
								<comment>Vi skal ha dobbelt så mye co2. og det må dere ta fra gass? vi kan kjøpe det, men det er dumt når vi først lager det</comment>
								<name></name>
								<in>9185</in>
								<out>-1</out>
							</marker>
							<marker>
								<comment>det går med mye lys&#13;ja, det går mye nå</comment>
								<name></name>
								<in>2878</in>
								<out>-1</out>
							</marker>
							<marker>
								<comment>her er gass,propanbrenneren og her er elkjelen</comment>
								<name></name>
								<in>5042</in>
								<out>-1</out>
							</marker>
						<link>
							<linkclipref>clipitem-1085</linkclipref>
							<mediatype>video</mediatype>
							<trackindex>1</trackindex>
							<clipindex>103</clipindex>
						</link>
						<link>
							<linkclipref>clipitem-1247</linkclipref>
							<mediatype>audio</mediatype>
							<trackindex>1</trackindex>
							<clipindex>50</clipindex>
						</link>
						<link>
							<linkclipref>clipitem-1329</linkclipref>
							<mediatype>audio</mediatype>
							<trackindex>2</trackindex>
							<clipindex>39</clipindex>
						</link>
						<logginginfo>
							<description></description>
							<scene></scene>
							<shottake>AA3120</shottake>
							<lognote></lognote>
						</logginginfo>
						<labels>
							<label2>Iris</label2>
						</labels>
					</clipitem>
					<clipitem id="clipitem-1086" frameBlend="FALSE">
						<masterclipid>masterclip-324</masterclipid>
						<name>AA3120</name>
						<enabled>TRUE</enabled>
						<duration>18096</duration>
						<rate>
							<timebase>25</timebase>
							<ntsc>FALSE</ntsc>
						</rate>
						<start>7998</start>
						<end>8058</end>
						<in>5842</in>
						<out>5902</out>
						<pproTicksIn>59358458880000</pproTicksIn>
						<pproTicksOut>59968097280000</pproTicksOut>
						<alphatype>none</alphatype>
						<file id="file-312"/>
							<marker>
								<comment>følger dere med på strømprisene så dere vet når dere skal svitsje over på propan&#13;ja</comment>
								<name></name>
								<in>6525</in>
								<out>-1</out>
							</marker>
							<marker>
								<comment>april</comment>
								<name></name>
								<in>1180</in>
								<out>-1</out>
							</marker>
							<marker>
								<comment>i natt er det strøm, der er på dagtid det er dyrt med strøm</comment>
								<name></name>
								<in>7252</in>
								<out>-1</out>
							</marker>
							<marker>
								<comment>så strømregningen deres er ganske stor&#13;en stor del av slyumpen går til energi</comment>
								<name></name>
								<in>14044</in>
								<out>-1</out>
							</marker>
							<marker>
								<comment>og den norske strømmen er jo heller ikke klimanøytral, vi utveksler jo med danmark og sverige</comment>
								<name></name>
								<in>14390</in>
								<out>-1</out>
							</marker>
							<marker>
								<comment>sola står for modningen, men vi har varme</comment>
								<name></name>
								<in>3262</in>
								<out>-1</out>
							</marker>
							<marker>
								<comment></comment>
								<name>Wow</name>
								<in>672</in>
								<out>-1</out>
							</marker>
							<marker>
								<comment>prøver å finne ut hvorfor utslippene fra norske tomater blir så høye</comment>
								<name></name>
								<in>1756</in>
								<out>-1</out>
							</marker>
							<marker>
								<comment>70 prosetn 30 prosent</comment>
								<name></name>
								<in>11752</in>
								<out>-1</out>
							</marker>
							<marker>
								<comment>mål om å bli mer klimavennlig?&#13;ja, det er derfor vi skal byte t den, men vi må ha backup</comment>
								<name></name>
								<in>12253</in>
								<out>-1</out>
							</marker>
							<marker>
								<comment>om natta når det er 15 minus, holder det ikke</comment>
								<name></name>
								<in>4748</in>
								<out>-1</out>
							</marker>
							<marker>
								<comment>når får v idise, det begynner å komme i april</comment>
								<name></name>
								<in>15175</in>
								<out>-1</out>
							</marker>
							<marker>
								<comment>i dag er det ikke billigere, i dag er strømmen dyr</comment>
								<name></name>
								<in>5536</in>
								<out>-1</out>
							</marker>
							<marker>
								<comment>så ahr vi propanbrener</comment>
								<name></name>
								<in>3681</in>
								<out>-1</out>
							</marker>
							<marker>
								<comment>varmen produserer innni her?&#13;det er en ovn og det er en ovn</comment>
								<name></name>
								<in>5893</in>
								<out>-1</out>
							</marker>
							<marker>
								<comment>i åære har får vi 10 prosent lys og 90 prosent varme</comment>
								<name></name>
								<in>4490</in>
								<out>-1</out>
							</marker>
							<marker>
								<comment>Vi skal ha dobbelt så mye co2. og det må dere ta fra gass? vi kan kjøpe det, men det er dumt når vi først lager det</comment>
								<name></name>
								<in>9185</in>
								<out>-1</out>
							</marker>
							<marker>
								<comment>det går med mye lys&#13;ja, det går mye nå</comment>
								<name></name>
								<in>2878</in>
								<out>-1</out>
							</marker>
							<marker>
								<comment>her er gass,propanbrenneren og her er elkjelen</comment>
								<name></name>
								<in>5042</in>
								<out>-1</out>
							</marker>
						<logginginfo>
							<description></description>
							<scene></scene>
							<shottake>AA3120</shottake>
							<lognote></lognote>
						</logginginfo>
						<labels>
							<label2>Iris</label2>
						</labels>
					</clipitem>
					<clipitem id="clipitem-1087" frameBlend="FALSE">
						<masterclipid>masterclip-324</masterclipid>
						<name>AA3120</name>
						<enabled>TRUE</enabled>
						<duration>18096</duration>
						<rate>
							<timebase>25</timebase>
							<ntsc>FALSE</ntsc>
						</rate>
						<start>8058</start>
						<end>8251</end>
						<in>6514</in>
						<out>6707</out>
						<pproTicksIn>66186408960000</pproTicksIn>
						<pproTicksOut>68147412480000</pproTicksOut>
						<alphatype>none</alphatype>
						<file id="file-312"/>
							<marker>
								<comment>følger dere med på strømprisene så dere vet når dere skal svitsje over på propan&#13;ja</comment>
								<name></name>
								<in>6525</in>
								<out>-1</out>
							</marker>
							<marker>
								<comment>april</comment>
								<name></name>
								<in>1180</in>
								<out>-1</out>
							</marker>
							<marker>
								<comment>i natt er det strøm, der er på dagtid det er dyrt med strøm</comment>
								<name></name>
								<in>7252</in>
								<out>-1</out>
							</marker>
							<marker>
								<comment>så strømregningen deres er ganske stor&#13;en stor del av slyumpen går til energi</comment>
								<name></name>
								<in>14044</in>
								<out>-1</out>
							</marker>
							<marker>
								<comment>og den norske strømmen er jo heller ikke klimanøytral, vi utveksler jo med danmark og sverige</comment>
								<name></name>
								<in>14390</in>
								<out>-1</out>
							</marker>
							<marker>
								<comment>sola står for modningen, men vi har varme</comment>
								<name></name>
								<in>3262</in>
								<out>-1</out>
							</marker>
							<marker>
								<comment></comment>
								<name>Wow</name>
								<in>672</in>
								<out>-1</out>
							</marker>
							<marker>
								<comment>prøver å finne ut hvorfor utslippene fra norske tomater blir så høye</comment>
								<name></name>
								<in>1756</in>
								<out>-1</out>
							</marker>
							<marker>
								<comment>70 prosetn 30 prosent</comment>
								<name></name>
								<in>11752</in>
								<out>-1</out>
							</marker>
							<marker>
								<comment>mål om å bli mer klimavennlig?&#13;ja, det er derfor vi skal byte t den, men vi må ha backup</comment>
								<name></name>
								<in>12253</in>
								<out>-1</out>
							</marker>
							<marker>
								<comment>om natta når det er 15 minus, holder det ikke</comment>
								<name></name>
								<in>4748</in>
								<out>-1</out>
							</marker>
							<marker>
								<comment>når får v idise, det begynner å komme i april</comment>
								<name></name>
								<in>15175</in>
								<out>-1</out>
							</marker>
							<marker>
								<comment>i dag er det ikke billigere, i dag er strømmen dyr</comment>
								<name></name>
								<in>5536</in>
								<out>-1</out>
							</marker>
							<marker>
								<comment>så ahr vi propanbrener</comment>
								<name></name>
								<in>3681</in>
								<out>-1</out>
							</marker>
							<marker>
								<comment>varmen produserer innni her?&#13;det er en ovn og det er en ovn</comment>
								<name></name>
								<in>5893</in>
								<out>-1</out>
							</marker>
							<marker>
								<comment>i åære har får vi 10 prosent lys og 90 prosent varme</comment>
								<name></name>
								<in>4490</in>
								<out>-1</out>
							</marker>
							<marker>
								<comment>Vi skal ha dobbelt så mye co2. og det må dere ta fra gass? vi kan kjøpe det, men det er dumt når vi først lager det</comment>
								<name></name>
								<in>9185</in>
								<out>-1</out>
							</marker>
							<marker>
								<comment>det går med mye lys&#13;ja, det går mye nå</comment>
								<name></name>
								<in>2878</in>
								<out>-1</out>
							</marker>
							<marker>
								<comment>her er gass,propanbrenneren og her er elkjelen</comment>
								<name></name>
								<in>5042</in>
								<out>-1</out>
							</marker>
						<link>
							<linkclipref>clipitem-1087</linkclipref>
							<mediatype>video</mediatype>
							<trackindex>1</trackindex>
							<clipindex>105</clipindex>
						</link>
						<link>
							<linkclipref>clipitem-1248</linkclipref>
							<mediatype>audio</mediatype>
							<trackindex>1</trackindex>
							<clipindex>51</clipindex>
						</link>
						<link>
							<linkclipref>clipitem-1330</linkclipref>
							<mediatype>audio</mediatype>
							<trackindex>2</trackindex>
							<clipindex>40</clipindex>
						</link>
						<logginginfo>
							<description></description>
							<scene></scene>
							<shottake>AA3120</shottake>
							<lognote></lognote>
						</logginginfo>
						<labels>
							<label2>Iris</label2>
						</labels>
					</clipitem>
					<clipitem id="clipitem-1088" frameBlend="FALSE">
						<masterclipid>masterclip-325</masterclipid>
						<name>AA3127</name>
						<enabled>TRUE</enabled>
						<duration>1464</duration>
						<rate>
							<timebase>25</timebase>
							<ntsc>FALSE</ntsc>
						</rate>
						<start>8251</start>
						<end>8334</end>
						<in>1077</in>
						<out>1160</out>
						<pproTicksIn>10943009280000</pproTicksIn>
						<pproTicksOut>11786342400000</pproTicksOut>
						<alphatype>none</alphatype>
						<pixelaspectratio>square</pixelaspectratio>
						<anamorphic>FALSE</anamorphic>
						<file id="file-313">
							<name>AA3127</name>
							<pathurl>file://localhost/Volumes/Brakka/AdobeLager/Katta/Katta-16xxxx-Klimabloffen-Chris/02-Video/Tomat/gr%c3%b8nnsaksbonde/CONTENTS/CLIPS001/AA3127/AA312701.MXF</pathurl>
							<rate>
								<timebase>25</timebase>
								<ntsc>FALSE</ntsc>
							</rate>
							<duration>1464</duration>
							<timecode>
								<rate>
									<timebase>25</timebase>
									<ntsc>FALSE</ntsc>
								</rate>
								<string>03:44:22:05</string>
								<frame>336555</frame>
								<displayformat>NDF</displayformat>
								<reel>
									<name></name>
								</reel>
							</timecode>
							<media>
								<video>
									<samplecharacteristics>
										<rate>
											<timebase>25</timebase>
											<ntsc>FALSE</ntsc>
										</rate>
										<width>1920</width>
										<height>1080</height>
										<anamorphic>FALSE</anamorphic>
										<pixelaspectratio>square</pixelaspectratio>
										<fielddominance>upper</fielddominance>
									</samplecharacteristics>
								</video>
								<audio>
									<samplecharacteristics>
										<depth>16</depth>
										<samplerate>48000</samplerate>
									</samplecharacteristics>
									<channelcount>1</channelcount>
									<layout>stereo</layout>
									<audiochannel>
										<sourcechannel>1</sourcechannel>
										<channellabel>left</channellabel>
									</audiochannel>
								</audio>
								<audio>
									<samplecharacteristics>
										<depth>16</depth>
										<samplerate>48000</samplerate>
									</samplecharacteristics>
									<channelcount>1</channelcount>
									<layout>stereo</layout>
									<audiochannel>
										<sourcechannel>2</sourcechannel>
										<channellabel>right</channellabel>
									</audiochannel>
								</audio>
							</media>
						</file>
						<logginginfo>
							<description></description>
							<scene></scene>
							<shottake>AA3127</shottake>
							<lognote></lognote>
						</logginginfo>
						<labels>
							<label2>Iris</label2>
						</labels>
					</clipitem>
					<clipitem id="clipitem-1089" frameBlend="FALSE">
						<masterclipid>masterclip-326</masterclipid>
						<name>AA3121</name>
						<enabled>TRUE</enabled>
						<duration>30672</duration>
						<rate>
							<timebase>25</timebase>
							<ntsc>FALSE</ntsc>
						</rate>
						<start>8334</start>
						<end>8430</end>
						<in>7543</in>
						<out>7639</out>
						<pproTicksIn>76641707520000</pproTicksIn>
						<pproTicksOut>77617128960000</pproTicksOut>
						<alphatype>none</alphatype>
						<pixelaspectratio>square</pixelaspectratio>
						<anamorphic>FALSE</anamorphic>
						<file id="file-314">
							<name>AA3121</name>
							<pathurl>file://localhost/Volumes/Brakka/AdobeLager/Katta/Katta-16xxxx-Klimabloffen-Chris/02-Video/Tomat/gr%c3%b8nnsaksbonde/CONTENTS/CLIPS001/AA3121/AA312101.MXF</pathurl>
							<rate>
								<timebase>25</timebase>
								<ntsc>FALSE</ntsc>
							</rate>
							<duration>30672</duration>
							<timecode>
								<rate>
									<timebase>25</timebase>
									<ntsc>FALSE</ntsc>
								</rate>
								<string>02:56:52:23</string>
								<frame>265323</frame>
								<displayformat>NDF</displayformat>
								<reel>
									<name></name>
								</reel>
							</timecode>
							<media>
								<video>
									<samplecharacteristics>
										<rate>
											<timebase>25</timebase>
											<ntsc>FALSE</ntsc>
										</rate>
										<width>1920</width>
										<height>1080</height>
										<anamorphic>FALSE</anamorphic>
										<pixelaspectratio>square</pixelaspectratio>
										<fielddominance>upper</fielddominance>
									</samplecharacteristics>
								</video>
								<audio>
									<samplecharacteristics>
										<depth>16</depth>
										<samplerate>48000</samplerate>
									</samplecharacteristics>
									<channelcount>1</channelcount>
									<layout>stereo</layout>
									<audiochannel>
										<sourcechannel>1</sourcechannel>
										<channellabel>left</channellabel>
									</audiochannel>
								</audio>
								<audio>
									<samplecharacteristics>
										<depth>16</depth>
										<samplerate>48000</samplerate>
									</samplecharacteristics>
									<channelcount>1</channelcount>
									<layout>stereo</layout>
									<audiochannel>
										<sourcechannel>2</sourcechannel>
										<channellabel>right</channellabel>
									</audiochannel>
								</audio>
							</media>
						</file>
							<marker>
								<comment>hva kan du jør for  få ned utslippene?&#13;jeg gjør det jeg kan jeg, vi må ha energi</comment>
								<name></name>
								<in>24984</in>
								<out>-1</out>
							</marker>
							<marker>
								<comment>er står det grad,er er det antall garder den leverer ut?</comment>
								<name></name>
								<in>9067</in>
								<out>-1</out>
							</marker>
							<marker>
								<comment>da hadde vi kommet i gang 2 måneder seinere kanskje</comment>
								<name></name>
								<in>10792</in>
								<out>-1</out>
							</marker>
							<marker>
								<comment>klima eller økonoi?&#13;det viktigste er at vi skal få ting til å gå rundt&#13;men når skjer det da?</comment>
								<name></name>
								<in>18590</in>
								<out>-1</out>
							</marker>
							<marker>
								<comment>de greiene du klarer å spare penger på, da er d mer miljøvennlig</comment>
								<name></name>
								<in>3995</in>
								<out>-1</out>
							</marker>
							<marker>
								<comment>hva hadde skjedd hvis dere skull bare dyrke med natrulig sollys?&#13;DA må vi vente med å så, vnete på sola</comment>
								<name></name>
								<in>10417</in>
								<out>-1</out>
							</marker>
							<marker>
								<comment>jeg få ikke til å bruke mindre</comment>
								<name></name>
								<in>25788</in>
								<out>-1</out>
							</marker>
							<marker>
								<comment>vi kjøper ullkraft fra damark, kankjs elurere med gasskraft i norge</comment>
								<name></name>
								<in>25318</in>
								<out>-1</out>
							</marker>
							<marker>
								<comment>det er dyrere med nyttedyr enne sprøyting men det er lettere</comment>
								<name></name>
								<in>22539</in>
								<out>-1</out>
							</marker>
							<marker>
								<comment>jeg tar de tallene med en klype salt</comment>
								<name></name>
								<in>24377</in>
								<out>-1</out>
							</marker>
							<marker>
								<comment>mulig det er noe mer som gå an, jeg er usikker</comment>
								<name></name>
								<in>26037</in>
								<out>-1</out>
							</marker>
							<marker>
								<comment>må man bruke torv?&#13;nei du kan stappe sokkene dine oppi om du vil</comment>
								<name></name>
								<in>17369</in>
								<out>-1</out>
							</marker>
							<marker>
								<comment>men det blir dyrt</comment>
								<name></name>
								<in>17768</in>
								<out>-1</out>
							</marker>
							<marker>
								<comment>varmepmpe lønner seg fort, vurderte å ta fra havet, men vi er for små, hadde vi vært 10 ganger større, hadde vi vurdert det</comment>
								<name></name>
								<in>28786</in>
								<out>-1</out>
							</marker>
						<logginginfo>
							<description></description>
							<scene></scene>
							<shottake>AA3121</shottake>
							<lognote></lognote>
						</logginginfo>
						<labels>
							<label2>Iris</label2>
						</labels>
					</clipitem>
					<clipitem id="clipitem-1090" frameBlend="FALSE">
						<masterclipid>masterclip-327</masterclipid>
						<name>drivhus-frosta-210116r-nt.mxf</name>
						<enabled>TRUE</enabled>
						<duration>12581</duration>
						<rate>
							<timebase>25</timebase>
							<ntsc>FALSE</ntsc>
						</rate>
						<start>8430</start>
						<end>8584</end>
						<in>7822</in>
						<out>7976</out>
						<pproTicksIn>79476526080000</pproTicksIn>
						<pproTicksOut>81041264640000</pproTicksOut>
						<alphatype>none</alphatype>
						<pixelaspectratio>square</pixelaspectratio>
						<anamorphic>FALSE</anamorphic>
						<file id="file-315">
							<name>drivhus-frosta-210116r-nt.mxf</name>
							<pathurl>file://localhost/Volumes/Brakka/AdobeLager/Katta/Katta-16xxxx-Klimabloffen-Chris/02-Video/Tomat/drivhus%20drone/drivhus-frosta-210116r-nt.mxf</pathurl>
							<rate>
								<timebase>25</timebase>
								<ntsc>FALSE</ntsc>
							</rate>
							<duration>12581</duration>
							<timecode>
								<rate>
									<timebase>25</timebase>
									<ntsc>FALSE</ntsc>
								</rate>
								<string>00:00:00:00</string>
								<frame>0</frame>
								<displayformat>NDF</displayformat>
								<reel>
									<name></name>
								</reel>
							</timecode>
							<media>
								<video>
									<samplecharacteristics>
										<rate>
											<timebase>25</timebase>
											<ntsc>FALSE</ntsc>
										</rate>
										<width>1920</width>
										<height>1080</height>
										<anamorphic>FALSE</anamorphic>
										<pixelaspectratio>square</pixelaspectratio>
										<fielddominance>upper</fielddominance>
									</samplecharacteristics>
								</video>
								<audio>
									<samplecharacteristics>
										<depth>16</depth>
										<samplerate>48000</samplerate>
									</samplecharacteristics>
									<channelcount>1</channelcount>
									<layout>mono</layout>
									<audiochannel>
										<sourcechannel>1</sourcechannel>
										<channellabel>discrete</channellabel>
									</audiochannel>
								</audio>
								<audio>
									<samplecharacteristics>
										<depth>16</depth>
										<samplerate>48000</samplerate>
									</samplecharacteristics>
									<channelcount>1</channelcount>
									<layout>mono</layout>
									<audiochannel>
										<sourcechannel>2</sourcechannel>
										<channellabel>discrete</channellabel>
									</audiochannel>
								</audio>
								<audio>
									<samplecharacteristics>
										<depth>16</depth>
										<samplerate>48000</samplerate>
									</samplecharacteristics>
									<channelcount>1</channelcount>
									<layout>mono</layout>
									<audiochannel>
										<sourcechannel>3</sourcechannel>
										<channellabel>discrete</channellabel>
									</audiochannel>
								</audio>
								<audio>
									<samplecharacteristics>
										<depth>16</depth>
										<samplerate>48000</samplerate>
									</samplecharacteristics>
									<channelcount>1</channelcount>
									<layout>mono</layout>
									<audiochannel>
										<sourcechannel>4</sourcechannel>
										<channellabel>discrete</channellabel>
									</audiochannel>
								</audio>
								<audio>
									<samplecharacteristics>
										<depth>16</depth>
										<samplerate>48000</samplerate>
									</samplecharacteristics>
									<channelcount>1</channelcount>
									<layout>mono</layout>
									<audiochannel>
										<sourcechannel>5</sourcechannel>
										<channellabel>discrete</channellabel>
									</audiochannel>
								</audio>
								<audio>
									<samplecharacteristics>
										<depth>16</depth>
										<samplerate>48000</samplerate>
									</samplecharacteristics>
									<channelcount>1</channelcount>
									<layout>mono</layout>
									<audiochannel>
										<sourcechannel>6</sourcechannel>
										<channellabel>discrete</channellabel>
									</audiochannel>
								</audio>
								<audio>
									<samplecharacteristics>
										<depth>16</depth>
										<samplerate>48000</samplerate>
									</samplecharacteristics>
									<channelcount>1</channelcount>
									<layout>mono</layout>
									<audiochannel>
										<sourcechannel>7</sourcechannel>
										<channellabel>discrete</channellabel>
									</audiochannel>
								</audio>
								<audio>
									<samplecharacteristics>
										<depth>16</depth>
										<samplerate>48000</samplerate>
									</samplecharacteristics>
									<channelcount>1</channelcount>
									<layout>mono</layout>
									<audiochannel>
										<sourcechannel>8</sourcechannel>
										<channellabel>discrete</channellabel>
									</audiochannel>
								</audio>
							</media>
						</file>
						<logginginfo>
							<description></description>
							<scene></scene>
							<shottake></shottake>
							<lognote></lognote>
						</logginginfo>
						<labels>
							<label2>Iris</label2>
						</labels>
					</clipitem>
					<clipitem id="clipitem-1091" frameBlend="FALSE">
						<masterclipid>masterclip-328</masterclipid>
						<name>AA3136</name>
						<enabled>TRUE</enabled>
						<duration>12924</duration>
						<rate>
							<timebase>25</timebase>
							<ntsc>FALSE</ntsc>
						</rate>
						<start>8584</start>
						<end>8649</end>
						<in>9123</in>
						<out>9188</out>
						<pproTicksIn>92695518720000</pproTicksIn>
						<pproTicksOut>93355960320000</pproTicksOut>
						<alphatype>none</alphatype>
						<pixelaspectratio>square</pixelaspectratio>
						<anamorphic>FALSE</anamorphic>
						<file id="file-316">
							<name>AA3136</name>
							<pathurl>file://localhost/Volumes/Brakka/AdobeLager/Katta/Katta-16xxxx-Klimabloffen-Chris/02-Video/Tomat/gr%c3%b8nnsaksbonde/CONTENTS/CLIPS001/AA3136/AA313601.MXF</pathurl>
							<rate>
								<timebase>25</timebase>
								<ntsc>FALSE</ntsc>
							</rate>
							<duration>12924</duration>
							<timecode>
								<rate>
									<timebase>25</timebase>
									<ntsc>FALSE</ntsc>
								</rate>
								<string>04:20:40:07</string>
								<frame>391007</frame>
								<displayformat>NDF</displayformat>
								<reel>
									<name></name>
								</reel>
							</timecode>
							<media>
								<video>
									<samplecharacteristics>
										<rate>
											<timebase>25</timebase>
											<ntsc>FALSE</ntsc>
										</rate>
										<width>1920</width>
										<height>1080</height>
										<anamorphic>FALSE</anamorphic>
										<pixelaspectratio>square</pixelaspectratio>
										<fielddominance>upper</fielddominance>
									</samplecharacteristics>
								</video>
								<audio>
									<samplecharacteristics>
										<depth>16</depth>
										<samplerate>48000</samplerate>
									</samplecharacteristics>
									<channelcount>1</channelcount>
									<layout>stereo</layout>
									<audiochannel>
										<sourcechannel>1</sourcechannel>
										<channellabel>left</channellabel>
									</audiochannel>
								</audio>
								<audio>
									<samplecharacteristics>
										<depth>16</depth>
										<samplerate>48000</samplerate>
									</samplecharacteristics>
									<channelcount>1</channelcount>
									<layout>stereo</layout>
									<audiochannel>
										<sourcechannel>2</sourcechannel>
										<channellabel>right</channellabel>
									</audiochannel>
								</audio>
							</media>
						</file>
						<link>
							<linkclipref>clipitem-1091</linkclipref>
							<mediatype>video</mediatype>
							<trackindex>1</trackindex>
							<clipindex>109</clipindex>
						</link>
						<link>
							<linkclipref>clipitem-1374</linkclipref>
							<mediatype>audio</mediatype>
							<trackindex>3</trackindex>
							<clipindex>22</clipindex>
						</link>
						<logginginfo>
							<description></description>
							<scene></scene>
							<shottake>AA3136</shottake>
							<lognote></lognote>
						</logginginfo>
						<labels>
							<label2>Iris</label2>
						</labels>
					</clipitem>
					<clipitem id="clipitem-1092" frameBlend="FALSE">
						<masterclipid>masterclip-328</masterclipid>
						<name>AA3136</name>
						<enabled>TRUE</enabled>
						<duration>12924</duration>
						<rate>
							<timebase>25</timebase>
							<ntsc>FALSE</ntsc>
						</rate>
						<start>8649</start>
						<end>8697</end>
						<in>12408</in>
						<out>12456</out>
						<pproTicksIn>126073221120000</pproTicksIn>
						<pproTicksOut>126560931840000</pproTicksOut>
						<alphatype>none</alphatype>
						<file id="file-316"/>
						<link>
							<linkclipref>clipitem-1092</linkclipref>
							<mediatype>video</mediatype>
							<trackindex>1</trackindex>
							<clipindex>110</clipindex>
						</link>
						<link>
							<linkclipref>clipitem-1375</linkclipref>
							<mediatype>audio</mediatype>
							<trackindex>3</trackindex>
							<clipindex>23</clipindex>
						</link>
						<logginginfo>
							<description></description>
							<scene></scene>
							<shottake>AA3136</shottake>
							<lognote></lognote>
						</logginginfo>
						<labels>
							<label2>Iris</label2>
						</labels>
					</clipitem>
					<clipitem id="clipitem-1093" frameBlend="FALSE">
						<masterclipid>masterclip-329</masterclipid>
						<name>AA3129</name>
						<enabled>TRUE</enabled>
						<duration>4884</duration>
						<rate>
							<timebase>25</timebase>
							<ntsc>FALSE</ntsc>
						</rate>
						<start>8697</start>
						<end>8802</end>
						<in>3938</in>
						<out>4043</out>
						<pproTicksIn>40012600320000</pproTicksIn>
						<pproTicksOut>41079467520000</pproTicksOut>
						<alphatype>none</alphatype>
						<pixelaspectratio>square</pixelaspectratio>
						<anamorphic>FALSE</anamorphic>
						<file id="file-317">
							<name>AA3129</name>
							<pathurl>file://localhost/Volumes/Brakka/AdobeLager/Katta/Katta-16xxxx-Klimabloffen-Chris/02-Video/Tomat/gr%c3%b8nnsaksbonde/CONTENTS/CLIPS001/AA3129/AA312901.MXF</pathurl>
							<rate>
								<timebase>25</timebase>
								<ntsc>FALSE</ntsc>
							</rate>
							<duration>4884</duration>
							<timecode>
								<rate>
									<timebase>25</timebase>
									<ntsc>FALSE</ntsc>
								</rate>
								<string>03:48:37:07</string>
								<frame>342932</frame>
								<displayformat>NDF</displayformat>
								<reel>
									<name></name>
								</reel>
							</timecode>
							<media>
								<video>
									<samplecharacteristics>
										<rate>
											<timebase>25</timebase>
											<ntsc>FALSE</ntsc>
										</rate>
										<width>1920</width>
										<height>1080</height>
										<anamorphic>FALSE</anamorphic>
										<pixelaspectratio>square</pixelaspectratio>
										<fielddominance>upper</fielddominance>
									</samplecharacteristics>
								</video>
								<audio>
									<samplecharacteristics>
										<depth>16</depth>
										<samplerate>48000</samplerate>
									</samplecharacteristics>
									<channelcount>1</channelcount>
									<layout>stereo</layout>
									<audiochannel>
										<sourcechannel>1</sourcechannel>
										<channellabel>left</channellabel>
									</audiochannel>
								</audio>
								<audio>
									<samplecharacteristics>
										<depth>16</depth>
										<samplerate>48000</samplerate>
									</samplecharacteristics>
									<channelcount>1</channelcount>
									<layout>stereo</layout>
									<audiochannel>
										<sourcechannel>2</sourcechannel>
										<channellabel>right</channellabel>
									</audiochannel>
								</audio>
							</media>
						</file>
						<logginginfo>
							<description></description>
							<scene></scene>
							<shottake>AA3129</shottake>
							<lognote></lognote>
						</logginginfo>
						<labels>
							<label2>Iris</label2>
						</labels>
					</clipitem>
					<clipitem id="clipitem-1094" frameBlend="FALSE">
						<masterclipid>masterclip-326</masterclipid>
						<name>AA3121</name>
						<enabled>TRUE</enabled>
						<duration>30672</duration>
						<rate>
							<timebase>25</timebase>
							<ntsc>FALSE</ntsc>
						</rate>
						<start>8802</start>
						<end>8952</end>
						<in>28094</in>
						<out>28244</out>
						<pproTicksIn>285453020160000</pproTicksIn>
						<pproTicksOut>286977116160000</pproTicksOut>
						<alphatype>none</alphatype>
						<file id="file-314"/>
							<marker>
								<comment>hva kan du jør for  få ned utslippene?&#13;jeg gjør det jeg kan jeg, vi må ha energi</comment>
								<name></name>
								<in>24984</in>
								<out>-1</out>
							</marker>
							<marker>
								<comment>er står det grad,er er det antall garder den leverer ut?</comment>
								<name></name>
								<in>9067</in>
								<out>-1</out>
							</marker>
							<marker>
								<comment>da hadde vi kommet i gang 2 måneder seinere kanskje</comment>
								<name></name>
								<in>10792</in>
								<out>-1</out>
							</marker>
							<marker>
								<comment>klima eller økonoi?&#13;det viktigste er at vi skal få ting til å gå rundt&#13;men når skjer det da?</comment>
								<name></name>
								<in>18590</in>
								<out>-1</out>
							</marker>
							<marker>
								<comment>de greiene du klarer å spare penger på, da er d mer miljøvennlig</comment>
								<name></name>
								<in>3995</in>
								<out>-1</out>
							</marker>
							<marker>
								<comment>hva hadde skjedd hvis dere skull bare dyrke med natrulig sollys?&#13;DA må vi vente med å så, vnete på sola</comment>
								<name></name>
								<in>10417</in>
								<out>-1</out>
							</marker>
							<marker>
								<comment>jeg få ikke til å bruke mindre</comment>
								<name></name>
								<in>25788</in>
								<out>-1</out>
							</marker>
							<marker>
								<comment>vi kjøper ullkraft fra damark, kankjs elurere med gasskraft i norge</comment>
								<name></name>
								<in>25318</in>
								<out>-1</out>
							</marker>
							<marker>
								<comment>det er dyrere med nyttedyr enne sprøyting men det er lettere</comment>
								<name></name>
								<in>22539</in>
								<out>-1</out>
							</marker>
							<marker>
								<comment>jeg tar de tallene med en klype salt</comment>
								<name></name>
								<in>24377</in>
								<out>-1</out>
							</marker>
							<marker>
								<comment>mulig det er noe mer som gå an, jeg er usikker</comment>
								<name></name>
								<in>26037</in>
								<out>-1</out>
							</marker>
							<marker>
								<comment>må man bruke torv?&#13;nei du kan stappe sokkene dine oppi om du vil</comment>
								<name></name>
								<in>17369</in>
								<out>-1</out>
							</marker>
							<marker>
								<comment>men det blir dyrt</comment>
								<name></name>
								<in>17768</in>
								<out>-1</out>
							</marker>
							<marker>
								<comment>varmepmpe lønner seg fort, vurderte å ta fra havet, men vi er for små, hadde vi vært 10 ganger større, hadde vi vurdert det</comment>
								<name></name>
								<in>28786</in>
								<out>-1</out>
							</marker>
						<link>
							<linkclipref>clipitem-1094</linkclipref>
							<mediatype>video</mediatype>
							<trackindex>1</trackindex>
							<clipindex>112</clipindex>
						</link>
						<link>
							<linkclipref>clipitem-1249</linkclipref>
							<mediatype>audio</mediatype>
							<trackindex>1</trackindex>
							<clipindex>52</clipindex>
						</link>
						<link>
							<linkclipref>clipitem-1331</linkclipref>
							<mediatype>audio</mediatype>
							<trackindex>2</trackindex>
							<clipindex>41</clipindex>
						</link>
						<logginginfo>
							<description></description>
							<scene></scene>
							<shottake>AA3121</shottake>
							<lognote></lognote>
						</logginginfo>
						<labels>
							<label2>Iris</label2>
						</labels>
					</clipitem>
					<clipitem id="clipitem-1095" frameBlend="FALSE">
						<masterclipid>masterclip-330</masterclipid>
						<name>AA3140</name>
						<enabled>TRUE</enabled>
						<duration>960</duration>
						<rate>
							<timebase>25</timebase>
							<ntsc>FALSE</ntsc>
						</rate>
						<start>8952</start>
						<end>9053</end>
						<in>659</in>
						<out>760</out>
						<pproTicksIn>6695861760000</pproTicksIn>
						<pproTicksOut>7722086400000</pproTicksOut>
						<alphatype>none</alphatype>
						<pixelaspectratio>square</pixelaspectratio>
						<anamorphic>FALSE</anamorphic>
						<file id="file-318">
							<name>AA3140</name>
							<pathurl>file://localhost/Volumes/Brakka/AdobeLager/Katta/Katta-16xxxx-Klimabloffen-Chris/02-Video/Tomat/gr%c3%b8nnsaksbonde/CONTENTS/CLIPS001/AA3140/AA314001.MXF</pathurl>
							<rate>
								<timebase>25</timebase>
								<ntsc>FALSE</ntsc>
							</rate>
							<duration>960</duration>
							<timecode>
								<rate>
									<timebase>25</timebase>
									<ntsc>FALSE</ntsc>
								</rate>
								<string>04:52:06:01</string>
								<frame>438151</frame>
								<displayformat>NDF</displayformat>
								<reel>
									<name></name>
								</reel>
							</timecode>
							<media>
								<video>
									<samplecharacteristics>
										<rate>
											<timebase>25</timebase>
											<ntsc>FALSE</ntsc>
										</rate>
										<width>1920</width>
										<height>1080</height>
										<anamorphic>FALSE</anamorphic>
										<pixelaspectratio>square</pixelaspectratio>
										<fielddominance>upper</fielddominance>
									</samplecharacteristics>
								</video>
								<audio>
									<samplecharacteristics>
										<depth>16</depth>
										<samplerate>48000</samplerate>
									</samplecharacteristics>
									<channelcount>1</channelcount>
									<layout>stereo</layout>
									<audiochannel>
										<sourcechannel>1</sourcechannel>
										<channellabel>left</channellabel>
									</audiochannel>
								</audio>
								<audio>
									<samplecharacteristics>
										<depth>16</depth>
										<samplerate>48000</samplerate>
									</samplecharacteristics>
									<channelcount>1</channelcount>
									<layout>stereo</layout>
									<audiochannel>
										<sourcechannel>2</sourcechannel>
										<channellabel>right</channellabel>
									</audiochannel>
								</audio>
							</media>
						</file>
						<logginginfo>
							<description></description>
							<scene></scene>
							<shottake>AA3140</shottake>
							<lognote></lognote>
						</logginginfo>
						<labels>
							<label2>Iris</label2>
						</labels>
					</clipitem>
					<clipitem id="clipitem-1096" frameBlend="FALSE">
						<masterclipid>masterclip-328</masterclipid>
						<name>AA3136</name>
						<enabled>TRUE</enabled>
						<duration>12924</duration>
						<rate>
							<timebase>25</timebase>
							<ntsc>FALSE</ntsc>
						</rate>
						<start>9053</start>
						<end>9159</end>
						<in>3011</in>
						<out>3117</out>
						<pproTicksIn>30593687040000</pproTicksIn>
						<pproTicksOut>31670714880000</pproTicksOut>
						<alphatype>none</alphatype>
						<file id="file-316"/>
						<link>
							<linkclipref>clipitem-1096</linkclipref>
							<mediatype>video</mediatype>
							<trackindex>1</trackindex>
							<clipindex>114</clipindex>
						</link>
						<link>
							<linkclipref>clipitem-1376</linkclipref>
							<mediatype>audio</mediatype>
							<trackindex>3</trackindex>
							<clipindex>24</clipindex>
						</link>
						<link>
							<linkclipref>clipitem-1398</linkclipref>
							<mediatype>audio</mediatype>
							<trackindex>4</trackindex>
							<clipindex>14</clipindex>
						</link>
						<logginginfo>
							<description></description>
							<scene></scene>
							<shottake>AA3136</shottake>
							<lognote></lognote>
						</logginginfo>
						<labels>
							<label2>Iris</label2>
						</labels>
					</clipitem>
					<clipitem id="clipitem-1097" frameBlend="FALSE">
						<masterclipid>masterclip-327</masterclipid>
						<name>drivhus-frosta-210116r-nt.mxf</name>
						<enabled>TRUE</enabled>
						<duration>12581</duration>
						<rate>
							<timebase>25</timebase>
							<ntsc>FALSE</ntsc>
						</rate>
						<start>9159</start>
						<end>9383</end>
						<in>2043</in>
						<out>2267</out>
						<pproTicksIn>20758187520000</pproTicksIn>
						<pproTicksOut>23034170880000</pproTicksOut>
						<alphatype>none</alphatype>
						<file id="file-315"/>
						<logginginfo>
							<description></description>
							<scene></scene>
							<shottake></shottake>
							<lognote></lognote>
						</logginginfo>
						<labels>
							<label2>Iris</label2>
						</labels>
					</clipitem>
					<clipitem id="clipitem-1098" frameBlend="FALSE">
						<masterclipid>masterclip-331</masterclipid>
						<name>AA3109</name>
						<enabled>TRUE</enabled>
						<duration>408</duration>
						<rate>
							<timebase>25</timebase>
							<ntsc>FALSE</ntsc>
						</rate>
						<start>9383</start>
						<end>9471</end>
						<in>254</in>
						<out>342</out>
						<pproTicksIn>2580802560000</pproTicksIn>
						<pproTicksOut>3474938880000</pproTicksOut>
						<alphatype>none</alphatype>
						<pixelaspectratio>square</pixelaspectratio>
						<anamorphic>FALSE</anamorphic>
						<file id="file-319">
							<name>AA3109</name>
							<pathurl>file://localhost/Volumes/Brakka/AdobeLager/Katta/Katta-16xxxx-Klimabloffen-Chris/02-Video/Felles/Oslo%20C300%201/CONTENTS/CLIPS001/AA3109/AA310901.MXF</pathurl>
							<rate>
								<timebase>25</timebase>
								<ntsc>FALSE</ntsc>
							</rate>
							<duration>408</duration>
							<timecode>
								<rate>
									<timebase>25</timebase>
									<ntsc>FALSE</ntsc>
								</rate>
								<string>23:41:22:13</string>
								<frame>2132063</frame>
								<displayformat>NDF</displayformat>
								<reel>
									<name></name>
								</reel>
							</timecode>
							<media>
								<video>
									<samplecharacteristics>
										<rate>
											<timebase>25</timebase>
											<ntsc>FALSE</ntsc>
										</rate>
										<width>1920</width>
										<height>1080</height>
										<anamorphic>FALSE</anamorphic>
										<pixelaspectratio>square</pixelaspectratio>
										<fielddominance>upper</fielddominance>
									</samplecharacteristics>
								</video>
								<audio>
									<samplecharacteristics>
										<depth>16</depth>
										<samplerate>48000</samplerate>
									</samplecharacteristics>
									<channelcount>1</channelcount>
									<layout>stereo</layout>
									<audiochannel>
										<sourcechannel>1</sourcechannel>
										<channellabel>left</channellabel>
									</audiochannel>
								</audio>
								<audio>
									<samplecharacteristics>
										<depth>16</depth>
										<samplerate>48000</samplerate>
									</samplecharacteristics>
									<channelcount>1</channelcount>
									<layout>stereo</layout>
									<audiochannel>
										<sourcechannel>2</sourcechannel>
										<channellabel>right</channellabel>
									</audiochannel>
								</audio>
							</media>
						</file>
						<link>
							<linkclipref>clipitem-1098</linkclipref>
							<mediatype>video</mediatype>
							<trackindex>1</trackindex>
							<clipindex>116</clipindex>
						</link>
						<link>
							<linkclipref>clipitem-1377</linkclipref>
							<mediatype>audio</mediatype>
							<trackindex>3</trackindex>
							<clipindex>25</clipindex>
						</link>
						<link>
							<linkclipref>clipitem-1399</linkclipref>
							<mediatype>audio</mediatype>
							<trackindex>4</trackindex>
							<clipindex>15</clipindex>
						</link>
						<logginginfo>
							<description></description>
							<scene></scene>
							<shottake>AA3109</shottake>
							<lognote></lognote>
						</logginginfo>
						<labels>
							<label2>Iris</label2>
						</labels>
					</clipitem>
					<clipitem id="clipitem-1099" frameBlend="FALSE">
						<masterclipid>masterclip-332</masterclipid>
						<name>AA3112Multicam</name>
						<enabled>TRUE</enabled>
						<duration>19380</duration>
						<rate>
							<timebase>25</timebase>
							<ntsc>FALSE</ntsc>
						</rate>
						<start>9471</start>
						<end>9604</end>
						<in>3702</in>
						<out>3835</out>
						<pproTicksIn>37614689280000</pproTicksIn>
						<pproTicksOut>38966054400000</pproTicksOut>
						<sequence id="sequence-61">
							<rate>
								<timebase>25</timebase>
								<ntsc>FALSE</ntsc>
							</rate>
							<name>AA3112Multicam-2</name>
							<media>
								<video>
									<format>
										<samplecharacteristics>
											<rate>
												<timebase>25</timebase>
												<ntsc>FALSE</ntsc>
											</rate>
											<codec>
												<name>Apple ProRes 422</name>
												<appspecificdata>
													<appname>Final Cut Pro</appname>
													<appmanufacturer>Apple Inc.</appmanufacturer>
													<appversion>7.0</appversion>
													<data>
														<qtcodec>
															<codecname>Apple ProRes 422</codecname>
															<codectypename>Apple ProRes 422</codectypename>
															<codectypecode>apcn</codectypecode>
															<codecvendorcode>appl</codecvendorcode>
															<spatialquality>1024</spatialquality>
															<temporalquality>0</temporalquality>
															<keyframerate>0</keyframerate>
															<datarate>0</datarate>
														</qtcodec>
													</data>
												</appspecificdata>
											</codec>
											<width>1920</width>
											<height>1080</height>
											<anamorphic>FALSE</anamorphic>
											<pixelaspectratio>square</pixelaspectratio>
											<fielddominance>upper</fielddominance>
											<colordepth>24</colordepth>
										</samplecharacteristics>
									</format>
									<track>
										<clipitem id="clipitem-1103" frameBlend="FALSE">
											<masterclipid>masterclip-334</masterclipid>
											<name>MVI_4734.MOV</name>
											<enabled>TRUE</enabled>
											<duration>18661</duration>
											<rate>
												<timebase>25</timebase>
												<ntsc>FALSE</ntsc>
											</rate>
											<start>0</start>
											<end>18661</end>
											<in>0</in>
											<out>18661</out>
											<pproTicksIn>0</pproTicksIn>
											<pproTicksOut>189607703040000</pproTicksOut>
											<alphatype>black</alphatype>
											<pixelaspectratio>square</pixelaspectratio>
											<anamorphic>FALSE</anamorphic>
											<file id="file-321">
												<name>MVI_4734.MOV</name>
												<pathurl>file://localhost/Volumes/Brakka/AdobeLager/Katta/Katta-16xxxx-Klimabloffen-Chris/02-Video/Felles/Oslo%205D/DCIM/100EOS5D/MVI_4734.MOV</pathurl>
												<rate>
													<timebase>25</timebase>
													<ntsc>FALSE</ntsc>
												</rate>
												<duration>18661</duration>
												<timecode>
													<rate>
														<timebase>25</timebase>
														<ntsc>FALSE</ntsc>
													</rate>
													<string>00:00:00:00</string>
													<frame>0</frame>
													<displayformat>NDF</displayformat>
													<reel>
														<name></name>
													</reel>
												</timecode>
												<media>
													<video>
														<samplecharacteristics>
															<rate>
																<timebase>25</timebase>
																<ntsc>FALSE</ntsc>
															</rate>
															<width>1920</width>
															<height>1080</height>
															<anamorphic>FALSE</anamorphic>
															<pixelaspectratio>square</pixelaspectratio>
															<fielddominance>none</fielddominance>
														</samplecharacteristics>
													</video>
													<audio>
														<samplecharacteristics>
															<depth>16</depth>
															<samplerate>48000</samplerate>
														</samplecharacteristics>
														<channelcount>1</channelcount>
														<layout>stereo</layout>
														<audiochannel>
															<sourcechannel>1</sourcechannel>
															<channellabel>left</channellabel>
														</audiochannel>
													</audio>
													<audio>
														<samplecharacteristics>
															<depth>16</depth>
															<samplerate>48000</samplerate>
														</samplecharacteristics>
														<channelcount>1</channelcount>
														<layout>stereo</layout>
														<audiochannel>
															<sourcechannel>2</sourcechannel>
															<channellabel>right</channellabel>
														</audiochannel>
													</audio>
												</media>
											</file>
											<logginginfo>
												<description></description>
												<scene></scene>
												<shottake></shottake>
												<lognote></lognote>
											</logginginfo>
											<labels>
												<label2>Iris</label2>
											</labels>
										</clipitem>
										<enabled>TRUE</enabled>
										<locked>FALSE</locked>
									</track>
								</video>
								<audio>
									<numOutputChannels>4</numOutputChannels>
									<format>
										<samplecharacteristics>
											<depth>16</depth>
											<samplerate>48000</samplerate>
										</samplecharacteristics>
									</format>
									<outputs>
										<group>
											<index>1</index>
											<numchannels>1</numchannels>
											<downmix>0</downmix>
											<channel>
												<index>1</index>
											</channel>
										</group>
										<group>
											<index>2</index>
											<numchannels>1</numchannels>
											<downmix>0</downmix>
											<channel>
												<index>2</index>
											</channel>
										</group>
										<group>
											<index>3</index>
											<numchannels>1</numchannels>
											<downmix>0</downmix>
											<channel>
												<index>3</index>
											</channel>
										</group>
										<group>
											<index>4</index>
											<numchannels>1</numchannels>
											<downmix>0</downmix>
											<channel>
												<index>4</index>
											</channel>
										</group>
									</outputs>
									<track TL.SQTrackExpandedHeight="25" TL.SQTrackExpanded="0" MZ.TrackTargeted="1" PannerIsInverted="true" PannerName="Balance" currentExplodedTrackIndex="0" totalExplodedTrackCount="1" premiereTrackType="Stereo">
										<clipitem id="clipitem-1102" frameBlend="FALSE" premiereChannelType="mono">
											<masterclipid>masterclip-333</masterclipid>
											<name>AA3112</name>
											<enabled>TRUE</enabled>
											<duration>17748</duration>
											<rate>
												<timebase>25</timebase>
												<ntsc>FALSE</ntsc>
											</rate>
											<start>1632</start>
											<end>19380</end>
											<in>0</in>
											<out>17748</out>
											<pproTicksIn>0</pproTicksIn>
											<pproTicksOut>180331038720000</pproTicksOut>
											<file id="file-320"/>
											<sourcetrack>
												<mediatype>audio</mediatype>
												<trackindex>2</trackindex>
											</sourcetrack>
											<logginginfo>
												<description></description>
												<scene></scene>
												<shottake>AA3112</shottake>
												<lognote></lognote>
											</logginginfo>
											<labels>
												<label2>Iris</label2>
											</labels>
										</clipitem>
										<enabled>TRUE</enabled>
										<locked>FALSE</locked>
										<outputchannelindex>1</outputchannelindex>
									</track>
								</audio>
							</media>
							<timecode>
								<rate>
									<timebase>25</timebase>
									<ntsc>FALSE</ntsc>
								</rate>
								<string>00:00:00:00</string>
								<frame>0</frame>
								<displayformat>NDF</displayformat>
							</timecode>
						</sequence>
						<link>
							<linkclipref>clipitem-1099</linkclipref>
							<mediatype>video</mediatype>
							<trackindex>1</trackindex>
							<clipindex>117</clipindex>
						</link>
						<link>
							<linkclipref>clipitem-1250</linkclipref>
							<mediatype>audio</mediatype>
							<trackindex>1</trackindex>
							<clipindex>53</clipindex>
						</link>
						<link>
							<linkclipref>clipitem-1332</linkclipref>
							<mediatype>audio</mediatype>
							<trackindex>2</trackindex>
							<clipindex>42</clipindex>
						</link>
						<labels>
							<label2>Forest</label2>
						</labels>
					</clipitem>
					<clipitem id="clipitem-1106" frameBlend="FALSE">
						<masterclipid>masterclip-332</masterclipid>
						<name>AA3112Multicam</name>
						<enabled>TRUE</enabled>
						<duration>19380</duration>
						<rate>
							<timebase>25</timebase>
							<ntsc>FALSE</ntsc>
						</rate>
						<start>9604</start>
						<end>9715</end>
						<in>7068</in>
						<out>7179</out>
						<pproTicksIn>71815403520000</pproTicksIn>
						<pproTicksOut>72943234560000</pproTicksOut>
						<sequence id="sequence-60">
							<rate>
								<timebase>25</timebase>
								<ntsc>FALSE</ntsc>
							</rate>
							<name>AA3112Multicam-1</name>
							<media>
								<video>
									<format>
										<samplecharacteristics>
											<rate>
												<timebase>25</timebase>
												<ntsc>FALSE</ntsc>
											</rate>
											<codec>
												<name>Apple ProRes 422</name>
												<appspecificdata>
													<appname>Final Cut Pro</appname>
													<appmanufacturer>Apple Inc.</appmanufacturer>
													<appversion>7.0</appversion>
													<data>
														<qtcodec>
															<codecname>Apple ProRes 422</codecname>
															<codectypename>Apple ProRes 422</codectypename>
															<codectypecode>apcn</codectypecode>
															<codecvendorcode>appl</codecvendorcode>
															<spatialquality>1024</spatialquality>
															<temporalquality>0</temporalquality>
															<keyframerate>0</keyframerate>
															<datarate>0</datarate>
														</qtcodec>
													</data>
												</appspecificdata>
											</codec>
											<width>1920</width>
											<height>1080</height>
											<anamorphic>FALSE</anamorphic>
											<pixelaspectratio>square</pixelaspectratio>
											<fielddominance>upper</fielddominance>
											<colordepth>24</colordepth>
										</samplecharacteristics>
									</format>
									<track TL.SQTrackExpandedHeight="25" TL.SQTrackExpanded="0" MZ.TrackTargeted="0">
										<clipitem id="clipitem-1101" frameBlend="FALSE">
											<masterclipid>masterclip-333</masterclipid>
											<name>AA3112</name>
											<enabled>TRUE</enabled>
											<duration>17748</duration>
											<rate>
												<timebase>25</timebase>
												<ntsc>FALSE</ntsc>
											</rate>
											<start>1632</start>
											<end>19380</end>
											<in>0</in>
											<out>17748</out>
											<pproTicksIn>0</pproTicksIn>
											<pproTicksOut>180331038720000</pproTicksOut>
											<alphatype>none</alphatype>
											<file id="file-320"/>
											<logginginfo>
												<description></description>
												<scene></scene>
												<shottake>AA3112</shottake>
												<lognote></lognote>
											</logginginfo>
											<labels>
												<label2>Iris</label2>
											</labels>
										</clipitem>
										<enabled>TRUE</enabled>
										<locked>FALSE</locked>
									</track>
								</video>
								<audio>
									<numOutputChannels>4</numOutputChannels>
									<format>
										<samplecharacteristics>
											<depth>16</depth>
											<samplerate>48000</samplerate>
										</samplecharacteristics>
									</format>
									<outputs>
										<group>
											<index>1</index>
											<numchannels>1</numchannels>
											<downmix>0</downmix>
											<channel>
												<index>1</index>
											</channel>
										</group>
										<group>
											<index>2</index>
											<numchannels>1</numchannels>
											<downmix>0</downmix>
											<channel>
												<index>2</index>
											</channel>
										</group>
										<group>
											<index>3</index>
											<numchannels>1</numchannels>
											<downmix>0</downmix>
											<channel>
												<index>3</index>
											</channel>
										</group>
										<group>
											<index>4</index>
											<numchannels>1</numchannels>
											<downmix>0</downmix>
											<channel>
												<index>4</index>
											</channel>
										</group>
									</outputs>
									<track TL.SQTrackExpandedHeight="25" TL.SQTrackExpanded="0" MZ.TrackTargeted="1" PannerCurrentValue="0" PannerIsInverted="true" PannerStartKeyframe="-91445760000000000,0.,0,0,0,0,0,0" PannerName="Balance" currentExplodedTrackIndex="0" totalExplodedTrackCount="1" premiereTrackType="Stereo">
										<clipitem id="clipitem-1100" frameBlend="FALSE" premiereChannelType="mono">
											<masterclipid>masterclip-333</masterclipid>
											<name>AA3112</name>
											<enabled>TRUE</enabled>
											<duration>17748</duration>
											<rate>
												<timebase>25</timebase>
												<ntsc>FALSE</ntsc>
											</rate>
											<start>1632</start>
											<end>19380</end>
											<in>0</in>
											<out>17748</out>
											<pproTicksIn>0</pproTicksIn>
											<pproTicksOut>180331038720000</pproTicksOut>
											<pixelaspectratio>square</pixelaspectratio>
											<anamorphic>FALSE</anamorphic>
											<file id="file-320">
												<name>AA3112</name>
												<pathurl>file://localhost/Volumes/Brakka/AdobeLager/Katta/Katta-16xxxx-Klimabloffen-Chris/02-Video/Felles/Oslo%20C300%201/CONTENTS/CLIPS001/AA3112/AA311201.MXF</pathurl>
												<rate>
													<timebase>25</timebase>
													<ntsc>FALSE</ntsc>
												</rate>
												<duration>17748</duration>
												<timecode>
													<rate>
														<timebase>25</timebase>
														<ntsc>FALSE</ntsc>
													</rate>
													<string>00:05:40:22</string>
													<frame>8522</frame>
													<displayformat>NDF</displayformat>
													<reel>
														<name></name>
													</reel>
												</timecode>
												<media>
													<video>
														<samplecharacteristics>
															<rate>
																<timebase>25</timebase>
																<ntsc>FALSE</ntsc>
															</rate>
															<width>1920</width>
															<height>1080</height>
															<anamorphic>FALSE</anamorphic>
															<pixelaspectratio>square</pixelaspectratio>
															<fielddominance>upper</fielddominance>
														</samplecharacteristics>
													</video>
													<audio>
														<samplecharacteristics>
															<depth>16</depth>
															<samplerate>48000</samplerate>
														</samplecharacteristics>
														<channelcount>1</channelcount>
														<layout>stereo</layout>
														<audiochannel>
															<sourcechannel>1</sourcechannel>
															<channellabel>left</channellabel>
														</audiochannel>
													</audio>
													<audio>
														<samplecharacteristics>
															<depth>16</depth>
															<samplerate>48000</samplerate>
														</samplecharacteristics>
														<channelcount>1</channelcount>
														<layout>stereo</layout>
														<audiochannel>
															<sourcechannel>2</sourcechannel>
															<channellabel>right</channellabel>
														</audiochannel>
													</audio>
												</media>
											</file>
											<sourcetrack>
												<mediatype>audio</mediatype>
												<trackindex>1</trackindex>
											</sourcetrack>
											<logginginfo>
												<description></description>
												<scene></scene>
												<shottake>AA3112</shottake>
												<lognote></lognote>
											</logginginfo>
											<labels>
												<label2>Iris</label2>
											</labels>
										</clipitem>
										<enabled>TRUE</enabled>
										<locked>FALSE</locked>
										<outputchannelindex>1</outputchannelindex>
									</track>
								</audio>
							</media>
							<timecode>
								<rate>
									<timebase>25</timebase>
									<ntsc>FALSE</ntsc>
								</rate>
								<string>00:00:00:00</string>
								<frame>0</frame>
								<displayformat>NDF</displayformat>
							</timecode>
						</sequence>
						<link>
							<linkclipref>clipitem-1106</linkclipref>
							<mediatype>video</mediatype>
							<trackindex>1</trackindex>
							<clipindex>118</clipindex>
						</link>
						<link>
							<linkclipref>clipitem-1257</linkclipref>
							<mediatype>audio</mediatype>
							<trackindex>1</trackindex>
							<clipindex>54</clipindex>
						</link>
						<link>
							<linkclipref>clipitem-1333</linkclipref>
							<mediatype>audio</mediatype>
							<trackindex>2</trackindex>
							<clipindex>43</clipindex>
						</link>
						<labels>
							<label2>Forest</label2>
						</labels>
					</clipitem>
					<clipitem id="clipitem-1107" frameBlend="FALSE">
						<masterclipid>masterclip-332</masterclipid>
						<name>AA3112Multicam</name>
						<enabled>TRUE</enabled>
						<duration>19380</duration>
						<rate>
							<timebase>25</timebase>
							<ntsc>FALSE</ntsc>
						</rate>
						<start>9715</start>
						<end>9792</end>
						<in>7906</in>
						<out>7983</out>
						<pproTicksIn>80330019840000</pproTicksIn>
						<pproTicksOut>81112389120000</pproTicksOut>
						<sequence id="sequence-60"/>
						<link>
							<linkclipref>clipitem-1107</linkclipref>
							<mediatype>video</mediatype>
							<trackindex>1</trackindex>
							<clipindex>119</clipindex>
						</link>
						<link>
							<linkclipref>clipitem-1258</linkclipref>
							<mediatype>audio</mediatype>
							<trackindex>1</trackindex>
							<clipindex>55</clipindex>
						</link>
						<link>
							<linkclipref>clipitem-1334</linkclipref>
							<mediatype>audio</mediatype>
							<trackindex>2</trackindex>
							<clipindex>44</clipindex>
						</link>
						<labels>
							<label2>Forest</label2>
						</labels>
					</clipitem>
					<clipitem id="clipitem-1108" frameBlend="FALSE">
						<masterclipid>masterclip-332</masterclipid>
						<name>AA3112Multicam</name>
						<enabled>TRUE</enabled>
						<duration>19380</duration>
						<rate>
							<timebase>25</timebase>
							<ntsc>FALSE</ntsc>
						</rate>
						<start>9792</start>
						<end>9863</end>
						<in>7983</in>
						<out>8054</out>
						<pproTicksIn>81112389120000</pproTicksIn>
						<pproTicksOut>81833794560000</pproTicksOut>
						<sequence id="sequence-61"/>
						<link>
							<linkclipref>clipitem-1108</linkclipref>
							<mediatype>video</mediatype>
							<trackindex>1</trackindex>
							<clipindex>120</clipindex>
						</link>
						<link>
							<linkclipref>clipitem-1259</linkclipref>
							<mediatype>audio</mediatype>
							<trackindex>1</trackindex>
							<clipindex>56</clipindex>
						</link>
						<link>
							<linkclipref>clipitem-1335</linkclipref>
							<mediatype>audio</mediatype>
							<trackindex>2</trackindex>
							<clipindex>45</clipindex>
						</link>
						<labels>
							<label2>Forest</label2>
						</labels>
					</clipitem>
					<clipitem id="clipitem-1109" frameBlend="FALSE">
						<masterclipid>masterclip-332</masterclipid>
						<name>AA3112Multicam</name>
						<enabled>TRUE</enabled>
						<duration>19380</duration>
						<rate>
							<timebase>25</timebase>
							<ntsc>FALSE</ntsc>
						</rate>
						<start>9863</start>
						<end>9910</end>
						<in>8307</in>
						<out>8354</out>
						<pproTicksIn>84404436480000</pproTicksIn>
						<pproTicksOut>84881986560000</pproTicksOut>
						<sequence id="sequence-60"/>
						<link>
							<linkclipref>clipitem-1109</linkclipref>
							<mediatype>video</mediatype>
							<trackindex>1</trackindex>
							<clipindex>121</clipindex>
						</link>
						<link>
							<linkclipref>clipitem-1260</linkclipref>
							<mediatype>audio</mediatype>
							<trackindex>1</trackindex>
							<clipindex>57</clipindex>
						</link>
						<link>
							<linkclipref>clipitem-1336</linkclipref>
							<mediatype>audio</mediatype>
							<trackindex>2</trackindex>
							<clipindex>46</clipindex>
						</link>
						<labels>
							<label2>Forest</label2>
						</labels>
					</clipitem>
					<clipitem id="clipitem-1110" frameBlend="FALSE">
						<masterclipid>masterclip-332</masterclipid>
						<name>AA3112Multicam</name>
						<enabled>TRUE</enabled>
						<duration>19380</duration>
						<rate>
							<timebase>25</timebase>
							<ntsc>FALSE</ntsc>
						</rate>
						<start>9910</start>
						<end>9932</end>
						<in>8600</in>
						<out>8622</out>
						<pproTicksIn>87381504000000</pproTicksIn>
						<pproTicksOut>87605038080000</pproTicksOut>
						<sequence id="sequence-61"/>
						<link>
							<linkclipref>clipitem-1110</linkclipref>
							<mediatype>video</mediatype>
							<trackindex>1</trackindex>
							<clipindex>122</clipindex>
						</link>
						<link>
							<linkclipref>clipitem-1261</linkclipref>
							<mediatype>audio</mediatype>
							<trackindex>1</trackindex>
							<clipindex>58</clipindex>
						</link>
						<link>
							<linkclipref>clipitem-1337</linkclipref>
							<mediatype>audio</mediatype>
							<trackindex>2</trackindex>
							<clipindex>47</clipindex>
						</link>
						<labels>
							<label2>Forest</label2>
						</labels>
					</clipitem>
					<clipitem id="clipitem-1111" frameBlend="FALSE">
						<masterclipid>masterclip-332</masterclipid>
						<name>AA3112Multicam</name>
						<enabled>TRUE</enabled>
						<duration>19380</duration>
						<rate>
							<timebase>25</timebase>
							<ntsc>FALSE</ntsc>
						</rate>
						<start>9932</start>
						<end>9964</end>
						<in>8630</in>
						<out>8662</out>
						<pproTicksIn>87686323200000</pproTicksIn>
						<pproTicksOut>88011463680000</pproTicksOut>
						<sequence id="sequence-61"/>
						<link>
							<linkclipref>clipitem-1111</linkclipref>
							<mediatype>video</mediatype>
							<trackindex>1</trackindex>
							<clipindex>123</clipindex>
						</link>
						<link>
							<linkclipref>clipitem-1262</linkclipref>
							<mediatype>audio</mediatype>
							<trackindex>1</trackindex>
							<clipindex>60</clipindex>
						</link>
						<link>
							<linkclipref>clipitem-1338</linkclipref>
							<mediatype>audio</mediatype>
							<trackindex>2</trackindex>
							<clipindex>49</clipindex>
						</link>
						<labels>
							<label2>Forest</label2>
						</labels>
					</clipitem>
					<clipitem id="clipitem-1112" frameBlend="FALSE">
						<masterclipid>masterclip-335</masterclipid>
						<name>AA3154</name>
						<enabled>TRUE</enabled>
						<duration>2508</duration>
						<rate>
							<timebase>25</timebase>
							<ntsc>FALSE</ntsc>
						</rate>
						<start>9964</start>
						<end>10078</end>
						<in>2038</in>
						<out>2152</out>
						<pproTicksIn>20707384320000</pproTicksIn>
						<pproTicksOut>21865697280000</pproTicksOut>
						<alphatype>none</alphatype>
						<pixelaspectratio>square</pixelaspectratio>
						<anamorphic>FALSE</anamorphic>
						<file id="file-322">
							<name>AA3154</name>
							<pathurl>file://localhost/Volumes/Brakka/AdobeLager/Katta/Katta-16xxxx-Klimabloffen-Chris/02-Video/Felles/Oslo%20C300%202/CONTENTS/CLIPS001/AA3154/AA315401.MXF</pathurl>
							<rate>
								<timebase>25</timebase>
								<ntsc>FALSE</ntsc>
							</rate>
							<duration>2508</duration>
							<timecode>
								<rate>
									<timebase>25</timebase>
									<ntsc>FALSE</ntsc>
								</rate>
								<string>00:07:43:17</string>
								<frame>11592</frame>
								<displayformat>NDF</displayformat>
								<reel>
									<name></name>
								</reel>
							</timecode>
							<media>
								<video>
									<samplecharacteristics>
										<rate>
											<timebase>25</timebase>
											<ntsc>FALSE</ntsc>
										</rate>
										<width>1920</width>
										<height>1080</height>
										<anamorphic>FALSE</anamorphic>
										<pixelaspectratio>square</pixelaspectratio>
										<fielddominance>upper</fielddominance>
									</samplecharacteristics>
								</video>
								<audio>
									<samplecharacteristics>
										<depth>16</depth>
										<samplerate>48000</samplerate>
									</samplecharacteristics>
									<channelcount>1</channelcount>
									<layout>stereo</layout>
									<audiochannel>
										<sourcechannel>1</sourcechannel>
										<channellabel>left</channellabel>
									</audiochannel>
								</audio>
								<audio>
									<samplecharacteristics>
										<depth>16</depth>
										<samplerate>48000</samplerate>
									</samplecharacteristics>
									<channelcount>1</channelcount>
									<layout>stereo</layout>
									<audiochannel>
										<sourcechannel>2</sourcechannel>
										<channellabel>right</channellabel>
									</audiochannel>
								</audio>
							</media>
						</file>
						<link>
							<linkclipref>clipitem-1112</linkclipref>
							<mediatype>video</mediatype>
							<trackindex>1</trackindex>
							<clipindex>124</clipindex>
						</link>
						<link>
							<linkclipref>clipitem-1263</linkclipref>
							<mediatype>audio</mediatype>
							<trackindex>1</trackindex>
							<clipindex>61</clipindex>
						</link>
						<logginginfo>
							<description></description>
							<scene></scene>
							<shottake>AA3154</shottake>
							<lognote></lognote>
						</logginginfo>
						<labels>
							<label2>Iris</label2>
						</labels>
					</clipitem>
					<clipitem id="clipitem-1113" frameBlend="FALSE">
						<masterclipid>masterclip-335</masterclipid>
						<name>AA3154</name>
						<enabled>TRUE</enabled>
						<duration>2508</duration>
						<rate>
							<timebase>25</timebase>
							<ntsc>FALSE</ntsc>
						</rate>
						<start>10078</start>
						<end>10139</end>
						<in>1031</in>
						<out>1092</out>
						<pproTicksIn>10475619840000</pproTicksIn>
						<pproTicksOut>11095418880000</pproTicksOut>
						<alphatype>none</alphatype>
						<file id="file-322"/>
						<logginginfo>
							<description></description>
							<scene></scene>
							<shottake>AA3154</shottake>
							<lognote></lognote>
						</logginginfo>
						<labels>
							<label2>Iris</label2>
						</labels>
					</clipitem>
					<clipitem id="clipitem-1114" frameBlend="FALSE">
						<masterclipid>masterclip-335</masterclipid>
						<name>AA3154</name>
						<enabled>TRUE</enabled>
						<duration>2508</duration>
						<rate>
							<timebase>25</timebase>
							<ntsc>FALSE</ntsc>
						</rate>
						<start>10139</start>
						<end>10236</end>
						<in>2213</in>
						<out>2310</out>
						<pproTicksIn>22485496320000</pproTicksIn>
						<pproTicksOut>23471078400000</pproTicksOut>
						<alphatype>none</alphatype>
						<file id="file-322"/>
						<logginginfo>
							<description></description>
							<scene></scene>
							<shottake>AA3154</shottake>
							<lognote></lognote>
						</logginginfo>
						<labels>
							<label2>Iris</label2>
						</labels>
					</clipitem>
					<clipitem id="clipitem-1115" frameBlend="FALSE">
						<masterclipid>masterclip-336</masterclipid>
						<name>AA3155</name>
						<enabled>TRUE</enabled>
						<duration>5124</duration>
						<rate>
							<timebase>25</timebase>
							<ntsc>FALSE</ntsc>
						</rate>
						<start>10236</start>
						<end>10424</end>
						<in>874</in>
						<out>1062</out>
						<pproTicksIn>8880399360000</pproTicksIn>
						<pproTicksOut>10790599680000</pproTicksOut>
						<alphatype>none</alphatype>
						<pixelaspectratio>square</pixelaspectratio>
						<anamorphic>FALSE</anamorphic>
						<file id="file-323">
							<name>AA3155</name>
							<pathurl>file://localhost/Volumes/Brakka/AdobeLager/Katta/Katta-16xxxx-Klimabloffen-Chris/02-Video/Felles/Oslo%20C300%202/CONTENTS/CLIPS001/AA3155/AA315501.MXF</pathurl>
							<rate>
								<timebase>25</timebase>
								<ntsc>FALSE</ntsc>
							</rate>
							<duration>5124</duration>
							<timecode>
								<rate>
									<timebase>25</timebase>
									<ntsc>FALSE</ntsc>
								</rate>
								<string>00:12:16:17</string>
								<frame>18417</frame>
								<displayformat>NDF</displayformat>
								<reel>
									<name></name>
								</reel>
							</timecode>
							<media>
								<video>
									<samplecharacteristics>
										<rate>
											<timebase>25</timebase>
											<ntsc>FALSE</ntsc>
										</rate>
										<width>1920</width>
										<height>1080</height>
										<anamorphic>FALSE</anamorphic>
										<pixelaspectratio>square</pixelaspectratio>
										<fielddominance>upper</fielddominance>
									</samplecharacteristics>
								</video>
								<audio>
									<samplecharacteristics>
										<depth>16</depth>
										<samplerate>48000</samplerate>
									</samplecharacteristics>
									<channelcount>1</channelcount>
									<layout>stereo</layout>
									<audiochannel>
										<sourcechannel>1</sourcechannel>
										<channellabel>left</channellabel>
									</audiochannel>
								</audio>
								<audio>
									<samplecharacteristics>
										<depth>16</depth>
										<samplerate>48000</samplerate>
									</samplecharacteristics>
									<channelcount>1</channelcount>
									<layout>stereo</layout>
									<audiochannel>
										<sourcechannel>2</sourcechannel>
										<channellabel>right</channellabel>
									</audiochannel>
								</audio>
							</media>
						</file>
						<link>
							<linkclipref>clipitem-1115</linkclipref>
							<mediatype>video</mediatype>
							<trackindex>1</trackindex>
							<clipindex>127</clipindex>
						</link>
						<link>
							<linkclipref>clipitem-1264</linkclipref>
							<mediatype>audio</mediatype>
							<trackindex>1</trackindex>
							<clipindex>62</clipindex>
						</link>
						<logginginfo>
							<description></description>
							<scene></scene>
							<shottake>AA3155</shottake>
							<lognote></lognote>
						</logginginfo>
						<labels>
							<label2>Iris</label2>
						</labels>
					</clipitem>
					<clipitem id="clipitem-1116" frameBlend="FALSE">
						<masterclipid>masterclip-336</masterclipid>
						<name>AA3155</name>
						<enabled>TRUE</enabled>
						<duration>5124</duration>
						<rate>
							<timebase>25</timebase>
							<ntsc>FALSE</ntsc>
						</rate>
						<start>10424</start>
						<end>10482</end>
						<in>1446</in>
						<out>1504</out>
						<pproTicksIn>14692285440000</pproTicksIn>
						<pproTicksOut>15281602560000</pproTicksOut>
						<alphatype>none</alphatype>
						<file id="file-323"/>
						<link>
							<linkclipref>clipitem-1116</linkclipref>
							<mediatype>video</mediatype>
							<trackindex>1</trackindex>
							<clipindex>128</clipindex>
						</link>
						<link>
							<linkclipref>clipitem-1339</linkclipref>
							<mediatype>audio</mediatype>
							<trackindex>2</trackindex>
							<clipindex>50</clipindex>
						</link>
						<logginginfo>
							<description></description>
							<scene></scene>
							<shottake>AA3155</shottake>
							<lognote></lognote>
						</logginginfo>
						<labels>
							<label2>Iris</label2>
						</labels>
					</clipitem>
					<clipitem id="clipitem-1117" frameBlend="FALSE">
						<masterclipid>masterclip-337</masterclipid>
						<name>AA3156</name>
						<enabled>TRUE</enabled>
						<duration>19440</duration>
						<rate>
							<timebase>25</timebase>
							<ntsc>FALSE</ntsc>
						</rate>
						<start>10482</start>
						<end>10563</end>
						<in>6241</in>
						<out>6322</out>
						<pproTicksIn>63412554240000</pproTicksIn>
						<pproTicksOut>64235566080000</pproTicksOut>
						<alphatype>none</alphatype>
						<pixelaspectratio>square</pixelaspectratio>
						<anamorphic>FALSE</anamorphic>
						<file id="file-324">
							<name>AA3156</name>
							<pathurl>file://localhost/Volumes/Brakka/AdobeLager/Katta/Katta-16xxxx-Klimabloffen-Chris/02-Video/Felles/Oslo%20C300%202/CONTENTS/CLIPS001/AA3156/AA315601.MXF</pathurl>
							<rate>
								<timebase>25</timebase>
								<ntsc>FALSE</ntsc>
							</rate>
							<duration>19440</duration>
							<timecode>
								<rate>
									<timebase>25</timebase>
									<ntsc>FALSE</ntsc>
								</rate>
								<string>00:17:54:23</string>
								<frame>26873</frame>
								<displayformat>NDF</displayformat>
								<reel>
									<name></name>
								</reel>
							</timecode>
							<media>
								<video>
									<samplecharacteristics>
										<rate>
											<timebase>25</timebase>
											<ntsc>FALSE</ntsc>
										</rate>
										<width>1920</width>
										<height>1080</height>
										<anamorphic>FALSE</anamorphic>
										<pixelaspectratio>square</pixelaspectratio>
										<fielddominance>upper</fielddominance>
									</samplecharacteristics>
								</video>
								<audio>
									<samplecharacteristics>
										<depth>16</depth>
										<samplerate>48000</samplerate>
									</samplecharacteristics>
									<channelcount>1</channelcount>
									<layout>stereo</layout>
									<audiochannel>
										<sourcechannel>1</sourcechannel>
										<channellabel>left</channellabel>
									</audiochannel>
								</audio>
								<audio>
									<samplecharacteristics>
										<depth>16</depth>
										<samplerate>48000</samplerate>
									</samplecharacteristics>
									<channelcount>1</channelcount>
									<layout>stereo</layout>
									<audiochannel>
										<sourcechannel>2</sourcechannel>
										<channellabel>right</channellabel>
									</audiochannel>
								</audio>
							</media>
						</file>
							<marker>
								<comment>det er mye foksu på miljøavtrykket og da er det bra at det kommer opp, vi må bare være enige om fakta</comment>
								<name></name>
								<in>6676</in>
								<out>-1</out>
							</marker>
							<marker>
								<comment>variert meny, men er det viktig at den er norsk?&#13;jeg syns jo det</comment>
								<name></name>
								<in>5081</in>
								<out>-1</out>
							</marker>
							<marker>
								<comment>erupeisk mix er meningsløst, da er det jo bra å skru på gasskjelen</comment>
								<name></name>
								<in>10447</in>
								<out>-1</out>
							</marker>
							<marker>
								<comment>vi må ta den diskusjonen og har gjort ganske mye</comment>
								<name></name>
								<in>7232</in>
								<out>-1</out>
							</marker>
							<marker>
								<comment>er det viktig å ha tomater selv?&#13;ikke energimessig</comment>
								<name></name>
								<in>4501</in>
								<out>-1</out>
							</marker>
							<marker>
								<comment>Dette er det noske konsumet, men nå siste jeg en. Ja da må vi ta opp en</comment>
								<name></name>
								<in>3232</in>
								<out>-1</out>
							</marker>
							<marker>
								<comment>en tredejdel norsk forsningsgrad</comment>
								<name></name>
								<in>3792</in>
								<out>-1</out>
							</marker>
							<marker>
								<comment>DA jeg snakket med deg første gang, sa du at du hadde ventet på at noen som meg skulle ringe?&#13;</comment>
								<name></name>
								<in>6484</in>
								<out>-1</out>
							</marker>
						<link>
							<linkclipref>clipitem-1117</linkclipref>
							<mediatype>video</mediatype>
							<trackindex>1</trackindex>
							<clipindex>129</clipindex>
						</link>
						<link>
							<linkclipref>clipitem-1266</linkclipref>
							<mediatype>audio</mediatype>
							<trackindex>1</trackindex>
							<clipindex>64</clipindex>
						</link>
						<link>
							<linkclipref>clipitem-1341</linkclipref>
							<mediatype>audio</mediatype>
							<trackindex>2</trackindex>
							<clipindex>52</clipindex>
						</link>
						<logginginfo>
							<description></description>
							<scene></scene>
							<shottake>AA3156</shottake>
							<lognote></lognote>
						</logginginfo>
						<labels>
							<label2>Iris</label2>
						</labels>
					</clipitem>
					<clipitem id="clipitem-1118" frameBlend="FALSE">
						<masterclipid>masterclip-337</masterclipid>
						<name>AA3156</name>
						<enabled>TRUE</enabled>
						<duration>19440</duration>
						<rate>
							<timebase>25</timebase>
							<ntsc>FALSE</ntsc>
						</rate>
						<start>10563</start>
						<end>10676</end>
						<in>12531</in>
						<out>12644</out>
						<pproTicksIn>127322979840000</pproTicksIn>
						<pproTicksOut>128471132160000</pproTicksOut>
						<alphatype>none</alphatype>
						<file id="file-324"/>
							<marker>
								<comment>det er mye foksu på miljøavtrykket og da er det bra at det kommer opp, vi må bare være enige om fakta</comment>
								<name></name>
								<in>6676</in>
								<out>-1</out>
							</marker>
							<marker>
								<comment>variert meny, men er det viktig at den er norsk?&#13;jeg syns jo det</comment>
								<name></name>
								<in>5081</in>
								<out>-1</out>
							</marker>
							<marker>
								<comment>erupeisk mix er meningsløst, da er det jo bra å skru på gasskjelen</comment>
								<name></name>
								<in>10447</in>
								<out>-1</out>
							</marker>
							<marker>
								<comment>vi må ta den diskusjonen og har gjort ganske mye</comment>
								<name></name>
								<in>7232</in>
								<out>-1</out>
							</marker>
							<marker>
								<comment>er det viktig å ha tomater selv?&#13;ikke energimessig</comment>
								<name></name>
								<in>4501</in>
								<out>-1</out>
							</marker>
							<marker>
								<comment>Dette er det noske konsumet, men nå siste jeg en. Ja da må vi ta opp en</comment>
								<name></name>
								<in>3232</in>
								<out>-1</out>
							</marker>
							<marker>
								<comment>en tredejdel norsk forsningsgrad</comment>
								<name></name>
								<in>3792</in>
								<out>-1</out>
							</marker>
							<marker>
								<comment>DA jeg snakket med deg første gang, sa du at du hadde ventet på at noen som meg skulle ringe?&#13;</comment>
								<name></name>
								<in>6484</in>
								<out>-1</out>
							</marker>
						<logginginfo>
							<description></description>
							<scene></scene>
							<shottake>AA3156</shottake>
							<lognote></lognote>
						</logginginfo>
						<labels>
							<label2>Iris</label2>
						</labels>
					</clipitem>
					<clipitem id="clipitem-1119" frameBlend="FALSE">
						<masterclipid>masterclip-337</masterclipid>
						<name>AA3156</name>
						<enabled>TRUE</enabled>
						<duration>19440</duration>
						<rate>
							<timebase>25</timebase>
							<ntsc>FALSE</ntsc>
						</rate>
						<start>10676</start>
						<end>10974</end>
						<in>6470</in>
						<out>6768</out>
						<pproTicksIn>65739340800000</pproTicksIn>
						<pproTicksOut>68767211520000</pproTicksOut>
						<alphatype>none</alphatype>
						<file id="file-324"/>
							<marker>
								<comment>det er mye foksu på miljøavtrykket og da er det bra at det kommer opp, vi må bare være enige om fakta</comment>
								<name></name>
								<in>6676</in>
								<out>-1</out>
							</marker>
							<marker>
								<comment>variert meny, men er det viktig at den er norsk?&#13;jeg syns jo det</comment>
								<name></name>
								<in>5081</in>
								<out>-1</out>
							</marker>
							<marker>
								<comment>erupeisk mix er meningsløst, da er det jo bra å skru på gasskjelen</comment>
								<name></name>
								<in>10447</in>
								<out>-1</out>
							</marker>
							<marker>
								<comment>vi må ta den diskusjonen og har gjort ganske mye</comment>
								<name></name>
								<in>7232</in>
								<out>-1</out>
							</marker>
							<marker>
								<comment>er det viktig å ha tomater selv?&#13;ikke energimessig</comment>
								<name></name>
								<in>4501</in>
								<out>-1</out>
							</marker>
							<marker>
								<comment>Dette er det noske konsumet, men nå siste jeg en. Ja da må vi ta opp en</comment>
								<name></name>
								<in>3232</in>
								<out>-1</out>
							</marker>
							<marker>
								<comment>en tredejdel norsk forsningsgrad</comment>
								<name></name>
								<in>3792</in>
								<out>-1</out>
							</marker>
							<marker>
								<comment>DA jeg snakket med deg første gang, sa du at du hadde ventet på at noen som meg skulle ringe?&#13;</comment>
								<name></name>
								<in>6484</in>
								<out>-1</out>
							</marker>
						<link>
							<linkclipref>clipitem-1119</linkclipref>
							<mediatype>video</mediatype>
							<trackindex>1</trackindex>
							<clipindex>131</clipindex>
						</link>
						<link>
							<linkclipref>clipitem-1267</linkclipref>
							<mediatype>audio</mediatype>
							<trackindex>1</trackindex>
							<clipindex>65</clipindex>
						</link>
						<link>
							<linkclipref>clipitem-1342</linkclipref>
							<mediatype>audio</mediatype>
							<trackindex>2</trackindex>
							<clipindex>53</clipindex>
						</link>
						<logginginfo>
							<description></description>
							<scene></scene>
							<shottake>AA3156</shottake>
							<lognote></lognote>
						</logginginfo>
						<labels>
							<label2>Iris</label2>
						</labels>
					</clipitem>
					<clipitem id="clipitem-1120" frameBlend="FALSE">
						<masterclipid>masterclip-337</masterclipid>
						<name>AA3156</name>
						<enabled>TRUE</enabled>
						<duration>19440</duration>
						<rate>
							<timebase>25</timebase>
							<ntsc>FALSE</ntsc>
						</rate>
						<start>10974</start>
						<end>11083</end>
						<in>7627</in>
						<out>7736</out>
						<pproTicksIn>77495201280000</pproTicksIn>
						<pproTicksOut>78602711040000</pproTicksOut>
						<alphatype>none</alphatype>
						<file id="file-324"/>
							<marker>
								<comment>det er mye foksu på miljøavtrykket og da er det bra at det kommer opp, vi må bare være enige om fakta</comment>
								<name></name>
								<in>6676</in>
								<out>-1</out>
							</marker>
							<marker>
								<comment>variert meny, men er det viktig at den er norsk?&#13;jeg syns jo det</comment>
								<name></name>
								<in>5081</in>
								<out>-1</out>
							</marker>
							<marker>
								<comment>erupeisk mix er meningsløst, da er det jo bra å skru på gasskjelen</comment>
								<name></name>
								<in>10447</in>
								<out>-1</out>
							</marker>
							<marker>
								<comment>vi må ta den diskusjonen og har gjort ganske mye</comment>
								<name></name>
								<in>7232</in>
								<out>-1</out>
							</marker>
							<marker>
								<comment>er det viktig å ha tomater selv?&#13;ikke energimessig</comment>
								<name></name>
								<in>4501</in>
								<out>-1</out>
							</marker>
							<marker>
								<comment>Dette er det noske konsumet, men nå siste jeg en. Ja da må vi ta opp en</comment>
								<name></name>
								<in>3232</in>
								<out>-1</out>
							</marker>
							<marker>
								<comment>en tredejdel norsk forsningsgrad</comment>
								<name></name>
								<in>3792</in>
								<out>-1</out>
							</marker>
							<marker>
								<comment>DA jeg snakket med deg første gang, sa du at du hadde ventet på at noen som meg skulle ringe?&#13;</comment>
								<name></name>
								<in>6484</in>
								<out>-1</out>
							</marker>
						<logginginfo>
							<description></description>
							<scene></scene>
							<shottake>AA3156</shottake>
							<lognote></lognote>
						</logginginfo>
						<labels>
							<label2>Iris</label2>
						</labels>
					</clipitem>
					<clipitem id="clipitem-1121" frameBlend="FALSE">
						<masterclipid>masterclip-337</masterclipid>
						<name>AA3156</name>
						<enabled>TRUE</enabled>
						<duration>19440</duration>
						<rate>
							<timebase>25</timebase>
							<ntsc>FALSE</ntsc>
						</rate>
						<start>11083</start>
						<end>11134</end>
						<in>8158</in>
						<out>8209</out>
						<pproTicksIn>82890501120000</pproTicksIn>
						<pproTicksOut>83408693760000</pproTicksOut>
						<alphatype>none</alphatype>
						<file id="file-324"/>
							<marker>
								<comment>det er mye foksu på miljøavtrykket og da er det bra at det kommer opp, vi må bare være enige om fakta</comment>
								<name></name>
								<in>6676</in>
								<out>-1</out>
							</marker>
							<marker>
								<comment>variert meny, men er det viktig at den er norsk?&#13;jeg syns jo det</comment>
								<name></name>
								<in>5081</in>
								<out>-1</out>
							</marker>
							<marker>
								<comment>erupeisk mix er meningsløst, da er det jo bra å skru på gasskjelen</comment>
								<name></name>
								<in>10447</in>
								<out>-1</out>
							</marker>
							<marker>
								<comment>vi må ta den diskusjonen og har gjort ganske mye</comment>
								<name></name>
								<in>7232</in>
								<out>-1</out>
							</marker>
							<marker>
								<comment>er det viktig å ha tomater selv?&#13;ikke energimessig</comment>
								<name></name>
								<in>4501</in>
								<out>-1</out>
							</marker>
							<marker>
								<comment>Dette er det noske konsumet, men nå siste jeg en. Ja da må vi ta opp en</comment>
								<name></name>
								<in>3232</in>
								<out>-1</out>
							</marker>
							<marker>
								<comment>en tredejdel norsk forsningsgrad</comment>
								<name></name>
								<in>3792</in>
								<out>-1</out>
							</marker>
							<marker>
								<comment>DA jeg snakket med deg første gang, sa du at du hadde ventet på at noen som meg skulle ringe?&#13;</comment>
								<name></name>
								<in>6484</in>
								<out>-1</out>
							</marker>
						<link>
							<linkclipref>clipitem-1121</linkclipref>
							<mediatype>video</mediatype>
							<trackindex>1</trackindex>
							<clipindex>133</clipindex>
						</link>
						<link>
							<linkclipref>clipitem-1379</linkclipref>
							<mediatype>audio</mediatype>
							<trackindex>3</trackindex>
							<clipindex>27</clipindex>
						</link>
						<link>
							<linkclipref>clipitem-1400</linkclipref>
							<mediatype>audio</mediatype>
							<trackindex>4</trackindex>
							<clipindex>16</clipindex>
						</link>
						<logginginfo>
							<description></description>
							<scene></scene>
							<shottake>AA3156</shottake>
							<lognote></lognote>
						</logginginfo>
						<labels>
							<label2>Iris</label2>
						</labels>
					</clipitem>
					<clipitem id="clipitem-1122" frameBlend="FALSE">
						<masterclipid>masterclip-337</masterclipid>
						<name>AA3156</name>
						<enabled>TRUE</enabled>
						<duration>19440</duration>
						<rate>
							<timebase>25</timebase>
							<ntsc>FALSE</ntsc>
						</rate>
						<start>11134</start>
						<end>11204</end>
						<in>17214</in>
						<out>17284</out>
						<pproTicksIn>174905256960000</pproTicksIn>
						<pproTicksOut>175616501760000</pproTicksOut>
						<alphatype>none</alphatype>
						<file id="file-324"/>
							<marker>
								<comment>det er mye foksu på miljøavtrykket og da er det bra at det kommer opp, vi må bare være enige om fakta</comment>
								<name></name>
								<in>6676</in>
								<out>-1</out>
							</marker>
							<marker>
								<comment>variert meny, men er det viktig at den er norsk?&#13;jeg syns jo det</comment>
								<name></name>
								<in>5081</in>
								<out>-1</out>
							</marker>
							<marker>
								<comment>erupeisk mix er meningsløst, da er det jo bra å skru på gasskjelen</comment>
								<name></name>
								<in>10447</in>
								<out>-1</out>
							</marker>
							<marker>
								<comment>vi må ta den diskusjonen og har gjort ganske mye</comment>
								<name></name>
								<in>7232</in>
								<out>-1</out>
							</marker>
							<marker>
								<comment>er det viktig å ha tomater selv?&#13;ikke energimessig</comment>
								<name></name>
								<in>4501</in>
								<out>-1</out>
							</marker>
							<marker>
								<comment>Dette er det noske konsumet, men nå siste jeg en. Ja da må vi ta opp en</comment>
								<name></name>
								<in>3232</in>
								<out>-1</out>
							</marker>
							<marker>
								<comment>en tredejdel norsk forsningsgrad</comment>
								<name></name>
								<in>3792</in>
								<out>-1</out>
							</marker>
							<marker>
								<comment>DA jeg snakket med deg første gang, sa du at du hadde ventet på at noen som meg skulle ringe?&#13;</comment>
								<name></name>
								<in>6484</in>
								<out>-1</out>
							</marker>
						<link>
							<linkclipref>clipitem-1122</linkclipref>
							<mediatype>video</mediatype>
							<trackindex>1</trackindex>
							<clipindex>134</clipindex>
						</link>
						<link>
							<linkclipref>clipitem-1380</linkclipref>
							<mediatype>audio</mediatype>
							<trackindex>3</trackindex>
							<clipindex>28</clipindex>
						</link>
						<link>
							<linkclipref>clipitem-1401</linkclipref>
							<mediatype>audio</mediatype>
							<trackindex>4</trackindex>
							<clipindex>17</clipindex>
						</link>
						<logginginfo>
							<description></description>
							<scene></scene>
							<shottake>AA3156</shottake>
							<lognote></lognote>
						</logginginfo>
						<labels>
							<label2>Iris</label2>
						</labels>
					</clipitem>
					<clipitem id="clipitem-1123" frameBlend="FALSE">
						<masterclipid>masterclip-327</masterclipid>
						<name>drivhus-frosta-210116r-nt.mxf</name>
						<enabled>TRUE</enabled>
						<duration>12581</duration>
						<rate>
							<timebase>25</timebase>
							<ntsc>FALSE</ntsc>
						</rate>
						<start>11204</start>
						<end>11290</end>
						<in>6189</in>
						<out>6275</out>
						<pproTicksIn>62884200960000</pproTicksIn>
						<pproTicksOut>63758016000000</pproTicksOut>
						<alphatype>none</alphatype>
						<file id="file-315"/>
						<logginginfo>
							<description></description>
							<scene></scene>
							<shottake></shottake>
							<lognote></lognote>
						</logginginfo>
						<labels>
							<label2>Iris</label2>
						</labels>
					</clipitem>
					<clipitem id="clipitem-1124" frameBlend="FALSE">
						<masterclipid>masterclip-327</masterclipid>
						<name>drivhus-frosta-210116r-nt.mxf</name>
						<enabled>TRUE</enabled>
						<duration>12581</duration>
						<rate>
							<timebase>25</timebase>
							<ntsc>FALSE</ntsc>
						</rate>
						<start>11290</start>
						<end>11344</end>
						<in>7013</in>
						<out>7067</out>
						<pproTicksIn>71256568320000</pproTicksIn>
						<pproTicksOut>71805242880000</pproTicksOut>
						<alphatype>none</alphatype>
						<file id="file-315"/>
						<logginginfo>
							<description></description>
							<scene></scene>
							<shottake></shottake>
							<lognote></lognote>
						</logginginfo>
						<labels>
							<label2>Iris</label2>
						</labels>
					</clipitem>
					<clipitem id="clipitem-1125" frameBlend="FALSE">
						<masterclipid>masterclip-338</masterclipid>
						<name>AA3122</name>
						<enabled>TRUE</enabled>
						<duration>6696</duration>
						<rate>
							<timebase>25</timebase>
							<ntsc>FALSE</ntsc>
						</rate>
						<start>11344</start>
						<end>11453</end>
						<in>4416</in>
						<out>4525</out>
						<pproTicksIn>22434693120000</pproTicksIn>
						<pproTicksOut>22988448000000</pproTicksOut>
						<alphatype>none</alphatype>
						<pixelaspectratio>square</pixelaspectratio>
						<anamorphic>FALSE</anamorphic>
						<file id="file-325">
							<name>AA3122</name>
							<pathurl>file://localhost/Volumes/Brakka/AdobeLager/Katta/Katta-16xxxx-Klimabloffen-Chris/02-Video/Tomat/gr%c3%b8nnsaksbonde/CONTENTS/CLIPS001/AA3122/AA312201.MXF</pathurl>
							<rate>
								<timebase>25</timebase>
								<ntsc>FALSE</ntsc>
							</rate>
							<duration>3348</duration>
							<timecode>
								<rate>
									<timebase>25</timebase>
									<ntsc>FALSE</ntsc>
								</rate>
								<string>03:30:19:03</string>
								<frame>315478</frame>
								<displayformat>NDF</displayformat>
								<reel>
									<name></name>
								</reel>
							</timecode>
							<media>
								<video>
									<samplecharacteristics>
										<rate>
											<timebase>25</timebase>
											<ntsc>FALSE</ntsc>
										</rate>
										<width>1920</width>
										<height>1080</height>
										<anamorphic>FALSE</anamorphic>
										<pixelaspectratio>square</pixelaspectratio>
										<fielddominance>upper</fielddominance>
									</samplecharacteristics>
								</video>
								<audio>
									<samplecharacteristics>
										<depth>16</depth>
										<samplerate>48000</samplerate>
									</samplecharacteristics>
									<channelcount>1</channelcount>
									<layout>stereo</layout>
									<audiochannel>
										<sourcechannel>1</sourcechannel>
										<channellabel>left</channellabel>
									</audiochannel>
								</audio>
								<audio>
									<samplecharacteristics>
										<depth>16</depth>
										<samplerate>48000</samplerate>
									</samplecharacteristics>
									<channelcount>1</channelcount>
									<layout>stereo</layout>
									<audiochannel>
										<sourcechannel>2</sourcechannel>
										<channellabel>right</channellabel>
									</audiochannel>
								</audio>
							</media>
						</file>
							<filter>
								<effect>
									<name>Time Remap</name>
									<effectid>timeremap</effectid>
									<effectcategory>motion</effectcategory>
									<effecttype>motion</effecttype>
									<mediatype>video</mediatype>
									<parameter authoringApp="PremierePro">
										<parameterid>variablespeed</parameterid>
										<name>variablespeed</name>
										<valuemin>0</valuemin>
										<valuemax>1</valuemax>
										<value>0</value>
									</parameter>
									<parameter authoringApp="PremierePro">
										<parameterid>mappedduration</parameterid>
										<name>mappedduration</name>
										<value>
											<timecode>
												<rate>
													<timebase>0</timebase>
												</rate>
												<string>0</string>
												<frame>0</frame>
												<displayformat>NDF</displayformat>
											</timecode>
										</value>
									</parameter>
									<parameter authoringApp="PremierePro">
										<parameterid>speed</parameterid>
										<name>speed</name>
										<valuemin>-100000</valuemin>
										<valuemax>100000</valuemax>
										<value>50</value>
									</parameter>
									<parameter authoringApp="PremierePro">
										<parameterid>reverse</parameterid>
										<name>reverse</name>
										<value>FALSE</value>
									</parameter>
									<parameter authoringApp="PremierePro">
										<parameterid>frameblending</parameterid>
										<name>frameblending</name>
										<value>FALSE</value>
									</parameter>
								</effect>
							</filter>
						<logginginfo>
							<description></description>
							<scene></scene>
							<shottake>AA3122</shottake>
							<lognote></lognote>
						</logginginfo>
						<labels>
							<label2>Iris</label2>
						</labels>
					</clipitem>
					<clipitem id="clipitem-1126" frameBlend="FALSE">
						<masterclipid>masterclip-339</masterclipid>
						<name>AA3124</name>
						<enabled>TRUE</enabled>
						<duration>552</duration>
						<rate>
							<timebase>25</timebase>
							<ntsc>FALSE</ntsc>
						</rate>
						<start>11453</start>
						<end>11568</end>
						<in>358</in>
						<out>473</out>
						<pproTicksIn>3637509120000</pproTicksIn>
						<pproTicksOut>4805982720000</pproTicksOut>
						<alphatype>none</alphatype>
						<pixelaspectratio>square</pixelaspectratio>
						<anamorphic>FALSE</anamorphic>
						<file id="file-326">
							<name>AA3124</name>
							<pathurl>file://localhost/Volumes/Brakka/AdobeLager/Katta/Katta-16xxxx-Klimabloffen-Chris/02-Video/Tomat/gr%c3%b8nnsaksbonde/CONTENTS/CLIPS001/AA3124/AA312401.MXF</pathurl>
							<rate>
								<timebase>25</timebase>
								<ntsc>FALSE</ntsc>
							</rate>
							<duration>552</duration>
							<timecode>
								<rate>
									<timebase>25</timebase>
									<ntsc>FALSE</ntsc>
								</rate>
								<string>03:36:22:15</string>
								<frame>324565</frame>
								<displayformat>NDF</displayformat>
								<reel>
									<name></name>
								</reel>
							</timecode>
							<media>
								<video>
									<samplecharacteristics>
										<rate>
											<timebase>25</timebase>
											<ntsc>FALSE</ntsc>
										</rate>
										<width>1920</width>
										<height>1080</height>
										<anamorphic>FALSE</anamorphic>
										<pixelaspectratio>square</pixelaspectratio>
										<fielddominance>upper</fielddominance>
									</samplecharacteristics>
								</video>
								<audio>
									<samplecharacteristics>
										<depth>16</depth>
										<samplerate>48000</samplerate>
									</samplecharacteristics>
									<channelcount>1</channelcount>
									<layout>stereo</layout>
									<audiochannel>
										<sourcechannel>1</sourcechannel>
										<channellabel>left</channellabel>
									</audiochannel>
								</audio>
								<audio>
									<samplecharacteristics>
										<depth>16</depth>
										<samplerate>48000</samplerate>
									</samplecharacteristics>
									<channelcount>1</channelcount>
									<layout>stereo</layout>
									<audiochannel>
										<sourcechannel>2</sourcechannel>
										<channellabel>right</channellabel>
									</audiochannel>
								</audio>
							</media>
						</file>
						<logginginfo>
							<description></description>
							<scene></scene>
							<shottake>AA3124</shottake>
							<lognote></lognote>
						</logginginfo>
						<labels>
							<label2>Iris</label2>
						</labels>
					</clipitem>
					<clipitem id="clipitem-1127" frameBlend="FALSE">
						<masterclipid>masterclip-340</masterclipid>
						<name>MVI_4745.MOVMulticam</name>
						<enabled>TRUE</enabled>
						<duration>34319</duration>
						<rate>
							<timebase>25</timebase>
							<ntsc>FALSE</ntsc>
						</rate>
						<start>11568</start>
						<end>12113</end>
						<in>22668</in>
						<out>23213</out>
						<pproTicksIn>230321387520000</pproTicksIn>
						<pproTicksOut>235858936320000</pproTicksOut>
						<sequence id="sequence-65">
							<rate>
								<timebase>25</timebase>
								<ntsc>FALSE</ntsc>
							</rate>
							<name>MVI_4745.MOVMulticam-2</name>
							<media>
								<video>
									<format>
										<samplecharacteristics>
											<rate>
												<timebase>25</timebase>
												<ntsc>FALSE</ntsc>
											</rate>
											<codec>
												<name>Apple ProRes 422</name>
												<appspecificdata>
													<appname>Final Cut Pro</appname>
													<appmanufacturer>Apple Inc.</appmanufacturer>
													<appversion>7.0</appversion>
													<data>
														<qtcodec>
															<codecname>Apple ProRes 422</codecname>
															<codectypename>Apple ProRes 422</codectypename>
															<codectypecode>apcn</codectypecode>
															<codecvendorcode>appl</codecvendorcode>
															<spatialquality>1024</spatialquality>
															<temporalquality>0</temporalquality>
															<keyframerate>0</keyframerate>
															<datarate>0</datarate>
														</qtcodec>
													</data>
												</appspecificdata>
											</codec>
											<width>1920</width>
											<height>1080</height>
											<anamorphic>FALSE</anamorphic>
											<pixelaspectratio>square</pixelaspectratio>
											<fielddominance>none</fielddominance>
											<colordepth>24</colordepth>
										</samplecharacteristics>
									</format>
									<track TL.SQTrackShy="0" TL.SQTrackExpandedHeight="25" TL.SQTrackExpanded="0" MZ.TrackTargeted="0">
										<clipitem id="clipitem-1131" frameBlend="FALSE">
											<masterclipid>masterclip-342</masterclipid>
											<name>AA3157</name>
											<enabled>TRUE</enabled>
											<duration>33696</duration>
											<rate>
												<timebase>25</timebase>
												<ntsc>FALSE</ntsc>
											</rate>
											<start>623</start>
											<end>34319</end>
											<in>0</in>
											<out>33696</out>
											<pproTicksIn>0</pproTicksIn>
											<pproTicksOut>342372925440000</pproTicksOut>
											<alphatype>none</alphatype>
											<pixelaspectratio>square</pixelaspectratio>
											<anamorphic>FALSE</anamorphic>
											<file id="file-328">
												<name>AA3157</name>
												<pathurl>file://localhost/Volumes/Brakka/AdobeLager/Katta/Katta-16xxxx-Klimabloffen-Chris/02-Video/Felles/Oslo%20C300%202/CONTENTS/CLIPS001/AA3157/AA315701.MXF</pathurl>
												<rate>
													<timebase>25</timebase>
													<ntsc>FALSE</ntsc>
												</rate>
												<duration>33696</duration>
												<timecode>
													<rate>
														<timebase>25</timebase>
														<ntsc>FALSE</ntsc>
													</rate>
													<string>00:40:31:03</string>
													<frame>60778</frame>
													<displayformat>NDF</displayformat>
													<reel>
														<name></name>
													</reel>
												</timecode>
												<media>
													<video>
														<samplecharacteristics>
															<rate>
																<timebase>25</timebase>
																<ntsc>FALSE</ntsc>
															</rate>
															<width>1920</width>
															<height>1080</height>
															<anamorphic>FALSE</anamorphic>
															<pixelaspectratio>square</pixelaspectratio>
															<fielddominance>upper</fielddominance>
														</samplecharacteristics>
													</video>
													<audio>
														<samplecharacteristics>
															<depth>16</depth>
															<samplerate>48000</samplerate>
														</samplecharacteristics>
														<channelcount>1</channelcount>
														<layout>stereo</layout>
														<audiochannel>
															<sourcechannel>1</sourcechannel>
															<channellabel>left</channellabel>
														</audiochannel>
													</audio>
													<audio>
														<samplecharacteristics>
															<depth>16</depth>
															<samplerate>48000</samplerate>
														</samplecharacteristics>
														<channelcount>1</channelcount>
														<layout>stereo</layout>
														<audiochannel>
															<sourcechannel>2</sourcechannel>
															<channellabel>right</channellabel>
														</audiochannel>
													</audio>
												</media>
											</file>
											<logginginfo>
												<description></description>
												<scene></scene>
												<shottake>AA3157</shottake>
												<lognote></lognote>
											</logginginfo>
											<labels>
												<label2>Iris</label2>
											</labels>
										</clipitem>
										<enabled>TRUE</enabled>
										<locked>FALSE</locked>
									</track>
								</video>
								<audio>
									<numOutputChannels>4</numOutputChannels>
									<format>
										<samplecharacteristics>
											<depth>16</depth>
											<samplerate>48000</samplerate>
										</samplecharacteristics>
									</format>
									<outputs>
										<group>
											<index>1</index>
											<numchannels>1</numchannels>
											<downmix>0</downmix>
											<channel>
												<index>1</index>
											</channel>
										</group>
										<group>
											<index>2</index>
											<numchannels>1</numchannels>
											<downmix>0</downmix>
											<channel>
												<index>2</index>
											</channel>
										</group>
										<group>
											<index>3</index>
											<numchannels>1</numchannels>
											<downmix>0</downmix>
											<channel>
												<index>3</index>
											</channel>
										</group>
										<group>
											<index>4</index>
											<numchannels>1</numchannels>
											<downmix>0</downmix>
											<channel>
												<index>4</index>
											</channel>
										</group>
									</outputs>
									<track TL.SQTrackAudioKeyframeStyle="0" TL.SQTrackShy="0" TL.SQTrackExpandedHeight="25" TL.SQTrackExpanded="0" MZ.TrackTargeted="1" PannerIsInverted="true" PannerName="Balance" currentExplodedTrackIndex="0" totalExplodedTrackCount="1" premiereTrackType="Stereo">
										<clipitem id="clipitem-1130" frameBlend="FALSE" premiereChannelType="mono">
											<masterclipid>masterclip-341</masterclipid>
											<name>MVI_4745.MOV</name>
											<enabled>TRUE</enabled>
											<duration>18144</duration>
											<rate>
												<timebase>25</timebase>
												<ntsc>FALSE</ntsc>
											</rate>
											<start>0</start>
											<end>18144</end>
											<in>0</in>
											<out>18144</out>
											<pproTicksIn>0</pproTicksIn>
											<pproTicksOut>184354652160000</pproTicksOut>
											<file id="file-327"/>
											<sourcetrack>
												<mediatype>audio</mediatype>
												<trackindex>2</trackindex>
											</sourcetrack>
											<logginginfo>
												<description></description>
												<scene></scene>
												<shottake></shottake>
												<lognote></lognote>
											</logginginfo>
											<labels>
												<label2>Iris</label2>
											</labels>
										</clipitem>
										<enabled>TRUE</enabled>
										<locked>FALSE</locked>
										<outputchannelindex>1</outputchannelindex>
									</track>
								</audio>
							</media>
							<timecode>
								<rate>
									<timebase>25</timebase>
									<ntsc>FALSE</ntsc>
								</rate>
								<string>00:00:00:00</string>
								<frame>0</frame>
								<displayformat>NDF</displayformat>
							</timecode>
						</sequence>
						<labels>
							<label2>Forest</label2>
						</labels>
					</clipitem>
					<clipitem id="clipitem-1134" frameBlend="FALSE">
						<masterclipid>masterclip-340</masterclipid>
						<name>MVI_4745.MOVMulticam</name>
						<enabled>TRUE</enabled>
						<duration>34319</duration>
						<rate>
							<timebase>25</timebase>
							<ntsc>FALSE</ntsc>
						</rate>
						<start>12113</start>
						<end>12201</end>
						<in>32272</in>
						<out>32360</out>
						<pproTicksIn>327904174080000</pproTicksIn>
						<pproTicksOut>328798310400000</pproTicksOut>
						<sequence id="sequence-65"/>
						<labels>
							<label2>Forest</label2>
						</labels>
					</clipitem>
					<clipitem id="clipitem-1135" frameBlend="FALSE">
						<masterclipid>masterclip-340</masterclipid>
						<name>MVI_4745.MOVMulticam</name>
						<enabled>TRUE</enabled>
						<duration>34319</duration>
						<rate>
							<timebase>25</timebase>
							<ntsc>FALSE</ntsc>
						</rate>
						<start>12201</start>
						<end>12768</end>
						<in>24846</in>
						<out>25413</out>
						<pproTicksIn>252451261440000</pproTicksIn>
						<pproTicksOut>258212344320000</pproTicksOut>
						<sequence id="sequence-65"/>
						<labels>
							<label2>Forest</label2>
						</labels>
					</clipitem>
					<clipitem id="clipitem-1136" frameBlend="FALSE">
						<masterclipid>masterclip-343</masterclipid>
						<name>Tenk nytt! Lag mer gr_nnsaker til middagen..mov</name>
						<enabled>TRUE</enabled>
						<duration>1274</duration>
						<rate>
							<timebase>25</timebase>
							<ntsc>FALSE</ntsc>
						</rate>
						<start>12768</start>
						<end>13175</end>
						<in>16</in>
						<out>423</out>
						<pproTicksIn>162570240000</pproTicksIn>
						<pproTicksOut>4297950720000</pproTicksOut>
						<alphatype>none</alphatype>
						<pixelaspectratio>square</pixelaspectratio>
						<anamorphic>FALSE</anamorphic>
						<file id="file-329">
							<name>Tenk nytt! Lag mer gr_nnsaker til middagen..mov</name>
							<pathurl>file://localhost/Volumes/Brakka/AdobeLager/Katta/Katta-16xxxx-Klimabloffen-Chris/02-Video/youtube/Tenk%20nytt!%20Lag%20mer%20gr_nnsaker%20til%20middagen..mov</pathurl>
							<rate>
								<timebase>25</timebase>
								<ntsc>FALSE</ntsc>
							</rate>
							<duration>1274</duration>
							<timecode>
								<rate>
									<timebase>25</timebase>
									<ntsc>FALSE</ntsc>
								</rate>
								<string>00:00:00:00</string>
								<frame>0</frame>
								<displayformat>NDF</displayformat>
								<reel>
									<name></name>
								</reel>
							</timecode>
							<media>
								<video>
									<samplecharacteristics>
										<rate>
											<timebase>25</timebase>
											<ntsc>FALSE</ntsc>
										</rate>
										<width>1280</width>
										<height>720</height>
										<anamorphic>FALSE</anamorphic>
										<pixelaspectratio>square</pixelaspectratio>
										<fielddominance>lower</fielddominance>
									</samplecharacteristics>
								</video>
								<audio>
									<samplecharacteristics>
										<depth>16</depth>
										<samplerate>48000</samplerate>
									</samplecharacteristics>
									<channelcount>2</channelcount>
								</audio>
							</media>
						</file>
						<link>
							<linkclipref>clipitem-1136</linkclipref>
							<mediatype>video</mediatype>
							<trackindex>1</trackindex>
							<clipindex>142</clipindex>
						</link>
						<link>
							<linkclipref>clipitem-1410</linkclipref>
							<mediatype>audio</mediatype>
							<trackindex>5</trackindex>
							<clipindex>5</clipindex>
							<groupindex>1</groupindex>
						</link>
						<link>
							<linkclipref>clipitem-1415</linkclipref>
							<mediatype>audio</mediatype>
							<trackindex>6</trackindex>
							<clipindex>5</clipindex>
							<groupindex>1</groupindex>
						</link>
						<logginginfo>
							<description></description>
							<scene></scene>
							<shottake></shottake>
							<lognote></lognote>
						</logginginfo>
						<labels>
							<label2>Iris</label2>
						</labels>
					</clipitem>
					<clipitem id="clipitem-1137" frameBlend="FALSE">
						<masterclipid>masterclip-307</masterclipid>
						<name>N42A0927.MOVMulticam</name>
						<enabled>TRUE</enabled>
						<duration>28012</duration>
						<rate>
							<timebase>25</timebase>
							<ntsc>FALSE</ntsc>
						</rate>
						<start>13175</start>
						<end>13299</end>
						<in>15615</in>
						<out>15739</out>
						<pproTicksIn>158658393600000</pproTicksIn>
						<pproTicksOut>159918312960000</pproTicksOut>
						<sequence id="sequence-55"/>
						<labels>
							<label2>Forest</label2>
						</labels>
					</clipitem>
					<clipitem id="clipitem-1138" frameBlend="FALSE">
						<masterclipid>masterclip-307</masterclipid>
						<name>N42A0927.MOVMulticam</name>
						<enabled>TRUE</enabled>
						<duration>28012</duration>
						<rate>
							<timebase>25</timebase>
							<ntsc>FALSE</ntsc>
						</rate>
						<start>13299</start>
						<end>13436</end>
						<in>15855</in>
						<out>15992</out>
						<pproTicksIn>161096947200000</pproTicksIn>
						<pproTicksOut>162488954880000</pproTicksOut>
						<sequence id="sequence-55"/>
						<labels>
							<label2>Forest</label2>
						</labels>
					</clipitem>
					<clipitem id="clipitem-1139" frameBlend="FALSE">
						<masterclipid>masterclip-307</masterclipid>
						<name>N42A0927.MOVMulticam</name>
						<enabled>TRUE</enabled>
						<duration>28012</duration>
						<rate>
							<timebase>25</timebase>
							<ntsc>FALSE</ntsc>
						</rate>
						<start>13436</start>
						<end>13476</end>
						<in>15992</in>
						<out>16032</out>
						<pproTicksIn>162488954880000</pproTicksIn>
						<pproTicksOut>162895380480000</pproTicksOut>
						<sequence id="sequence-52"/>
						<labels>
							<label2>Forest</label2>
						</labels>
					</clipitem>
					<clipitem id="clipitem-1140" frameBlend="FALSE">
						<masterclipid>masterclip-344</masterclipid>
						<name>AA3212</name>
						<enabled>TRUE</enabled>
						<duration>504</duration>
						<rate>
							<timebase>25</timebase>
							<ntsc>FALSE</ntsc>
						</rate>
						<start>13476</start>
						<end>13539</end>
						<in>73</in>
						<out>136</out>
						<pproTicksIn>741726720000</pproTicksIn>
						<pproTicksOut>1381847040000</pproTicksOut>
						<alphatype>none</alphatype>
						<pixelaspectratio>square</pixelaspectratio>
						<anamorphic>FALSE</anamorphic>
						<file id="file-330">
							<name>AA3212</name>
							<pathurl>file://localhost/Volumes/Brakka/AdobeLager/Katta/Katta-16xxxx-Klimabloffen-Chris/02-Video/Tomat/restaurant/C300%20restaurant/CONTENTS/CLIPS001/AA3212/AA321201.MXF</pathurl>
							<rate>
								<timebase>25</timebase>
								<ntsc>FALSE</ntsc>
							</rate>
							<duration>504</duration>
							<timecode>
								<rate>
									<timebase>25</timebase>
									<ntsc>FALSE</ntsc>
								</rate>
								<string>23:31:49:22</string>
								<frame>2117747</frame>
								<displayformat>NDF</displayformat>
								<reel>
									<name></name>
								</reel>
							</timecode>
							<media>
								<video>
									<samplecharacteristics>
										<rate>
											<timebase>25</timebase>
											<ntsc>FALSE</ntsc>
										</rate>
										<width>1920</width>
										<height>1080</height>
										<anamorphic>FALSE</anamorphic>
										<pixelaspectratio>square</pixelaspectratio>
										<fielddominance>none</fielddominance>
									</samplecharacteristics>
								</video>
								<audio>
									<samplecharacteristics>
										<depth>16</depth>
										<samplerate>48000</samplerate>
									</samplecharacteristics>
									<channelcount>1</channelcount>
									<layout>stereo</layout>
									<audiochannel>
										<sourcechannel>1</sourcechannel>
										<channellabel>left</channellabel>
									</audiochannel>
								</audio>
								<audio>
									<samplecharacteristics>
										<depth>16</depth>
										<samplerate>48000</samplerate>
									</samplecharacteristics>
									<channelcount>1</channelcount>
									<layout>stereo</layout>
									<audiochannel>
										<sourcechannel>2</sourcechannel>
										<channellabel>right</channellabel>
									</audiochannel>
								</audio>
							</media>
						</file>
						<logginginfo>
							<description></description>
							<scene></scene>
							<shottake>AA3212</shottake>
							<lognote></lognote>
						</logginginfo>
						<labels>
							<label2>Iris</label2>
						</labels>
					</clipitem>
					<clipitem id="clipitem-1141" frameBlend="FALSE">
						<masterclipid>masterclip-305</masterclipid>
						<name>AA3194</name>
						<enabled>TRUE</enabled>
						<duration>59868</duration>
						<rate>
							<timebase>25</timebase>
							<ntsc>FALSE</ntsc>
						</rate>
						<start>13539</start>
						<end>13578</end>
						<in>6548</in>
						<out>6587</out>
						<pproTicksIn>66531870720000</pproTicksIn>
						<pproTicksOut>66928135680000</pproTicksOut>
						<alphatype>none</alphatype>
						<file id="file-295"/>
						<logginginfo>
							<description></description>
							<scene></scene>
							<shottake>AA3194</shottake>
							<lognote></lognote>
						</logginginfo>
						<labels>
							<label2>Iris</label2>
						</labels>
					</clipitem>
					<clipitem id="clipitem-1142" frameBlend="FALSE">
						<masterclipid>masterclip-345</masterclipid>
						<name>N42A0925.MOVMulticam</name>
						<enabled>TRUE</enabled>
						<duration>8736</duration>
						<rate>
							<timebase>25</timebase>
							<ntsc>FALSE</ntsc>
						</rate>
						<start>13578</start>
						<end>13605</end>
						<in>3499</in>
						<out>3526</out>
						<pproTicksIn>35552079360000</pproTicksIn>
						<pproTicksOut>35826416640000</pproTicksOut>
						<sequence id="sequence-68">
							<rate>
								<timebase>25</timebase>
								<ntsc>FALSE</ntsc>
							</rate>
							<name>N42A0925.MOVMulticam-1</name>
							<media>
								<video>
									<format>
										<samplecharacteristics>
											<rate>
												<timebase>25</timebase>
												<ntsc>FALSE</ntsc>
											</rate>
											<codec>
												<name>Apple ProRes 422</name>
												<appspecificdata>
													<appname>Final Cut Pro</appname>
													<appmanufacturer>Apple Inc.</appmanufacturer>
													<appversion>7.0</appversion>
													<data>
														<qtcodec>
															<codecname>Apple ProRes 422</codecname>
															<codectypename>Apple ProRes 422</codectypename>
															<codectypecode>apcn</codectypecode>
															<codecvendorcode>appl</codecvendorcode>
															<spatialquality>1024</spatialquality>
															<temporalquality>0</temporalquality>
															<keyframerate>0</keyframerate>
															<datarate>0</datarate>
														</qtcodec>
													</data>
												</appspecificdata>
											</codec>
											<width>1920</width>
											<height>1080</height>
											<anamorphic>FALSE</anamorphic>
											<pixelaspectratio>square</pixelaspectratio>
											<fielddominance>none</fielddominance>
											<colordepth>24</colordepth>
										</samplecharacteristics>
									</format>
									<track TL.SQTrackExpandedHeight="25" TL.SQTrackExpanded="0" MZ.TrackTargeted="0">
										<clipitem id="clipitem-1144" frameBlend="FALSE">
											<masterclipid>masterclip-346</masterclipid>
											<name>N42A0925.MOV</name>
											<enabled>TRUE</enabled>
											<duration>8736</duration>
											<rate>
												<timebase>25</timebase>
												<ntsc>FALSE</ntsc>
											</rate>
											<start>0</start>
											<end>8736</end>
											<in>0</in>
											<out>8736</out>
											<pproTicksIn>0</pproTicksIn>
											<pproTicksOut>88763351040000</pproTicksOut>
											<alphatype>black</alphatype>
											<file id="file-331"/>
											<logginginfo>
												<description></description>
												<scene></scene>
												<shottake></shottake>
												<lognote></lognote>
											</logginginfo>
											<labels>
												<label2>Iris</label2>
											</labels>
										</clipitem>
										<enabled>TRUE</enabled>
										<locked>FALSE</locked>
									</track>
								</video>
								<audio>
									<numOutputChannels>4</numOutputChannels>
									<format>
										<samplecharacteristics>
											<depth>16</depth>
											<samplerate>48000</samplerate>
										</samplecharacteristics>
									</format>
									<outputs>
										<group>
											<index>1</index>
											<numchannels>1</numchannels>
											<downmix>0</downmix>
											<channel>
												<index>1</index>
											</channel>
										</group>
										<group>
											<index>2</index>
											<numchannels>1</numchannels>
											<downmix>0</downmix>
											<channel>
												<index>2</index>
											</channel>
										</group>
										<group>
											<index>3</index>
											<numchannels>1</numchannels>
											<downmix>0</downmix>
											<channel>
												<index>3</index>
											</channel>
										</group>
										<group>
											<index>4</index>
											<numchannels>1</numchannels>
											<downmix>0</downmix>
											<channel>
												<index>4</index>
											</channel>
										</group>
									</outputs>
									<track TL.SQTrackExpandedHeight="25" TL.SQTrackExpanded="0" MZ.TrackTargeted="1" PannerCurrentValue="0" PannerIsInverted="true" PannerStartKeyframe="-91445760000000000,0.,0,0,0,0,0,0" PannerName="Balance" currentExplodedTrackIndex="0" totalExplodedTrackCount="1" premiereTrackType="Stereo">
										<clipitem id="clipitem-1143" frameBlend="FALSE" premiereChannelType="mono">
											<masterclipid>masterclip-346</masterclipid>
											<name>N42A0925.MOV</name>
											<enabled>TRUE</enabled>
											<duration>8736</duration>
											<rate>
												<timebase>25</timebase>
												<ntsc>FALSE</ntsc>
											</rate>
											<start>0</start>
											<end>8736</end>
											<in>0</in>
											<out>8736</out>
											<pproTicksIn>0</pproTicksIn>
											<pproTicksOut>88763351040000</pproTicksOut>
											<pixelaspectratio>square</pixelaspectratio>
											<anamorphic>FALSE</anamorphic>
											<file id="file-331">
												<name>N42A0925.MOV</name>
												<pathurl>file://localhost/Volumes/Brakka/AdobeLager/Katta/Katta-16xxxx-Klimabloffen-Chris/02-Video/Tomat/restaurant/5d%20restaurant/DCIM/100EOS5D/N42A0925.MOV</pathurl>
												<rate>
													<timebase>25</timebase>
													<ntsc>FALSE</ntsc>
												</rate>
												<duration>8736</duration>
												<timecode>
													<rate>
														<timebase>25</timebase>
														<ntsc>FALSE</ntsc>
													</rate>
													<string>13:18:09:13</string>
													<frame>1197238</frame>
													<displayformat>NDF</displayformat>
													<reel>
														<name></name>
													</reel>
												</timecode>
												<media>
													<video>
														<samplecharacteristics>
															<rate>
																<timebase>25</timebase>
																<ntsc>FALSE</ntsc>
															</rate>
															<width>1920</width>
															<height>1080</height>
															<anamorphic>FALSE</anamorphic>
															<pixelaspectratio>square</pixelaspectratio>
															<fielddominance>none</fielddominance>
														</samplecharacteristics>
													</video>
													<audio>
														<samplecharacteristics>
															<depth>16</depth>
															<samplerate>48000</samplerate>
														</samplecharacteristics>
														<channelcount>1</channelcount>
														<layout>stereo</layout>
														<audiochannel>
															<sourcechannel>1</sourcechannel>
															<channellabel>left</channellabel>
														</audiochannel>
													</audio>
													<audio>
														<samplecharacteristics>
															<depth>16</depth>
															<samplerate>48000</samplerate>
														</samplecharacteristics>
														<channelcount>1</channelcount>
														<layout>stereo</layout>
														<audiochannel>
															<sourcechannel>2</sourcechannel>
															<channellabel>right</channellabel>
														</audiochannel>
													</audio>
												</media>
											</file>
											<sourcetrack>
												<mediatype>audio</mediatype>
												<trackindex>1</trackindex>
											</sourcetrack>
											<logginginfo>
												<description></description>
												<scene></scene>
												<shottake></shottake>
												<lognote></lognote>
											</logginginfo>
											<labels>
												<label2>Iris</label2>
											</labels>
										</clipitem>
										<enabled>TRUE</enabled>
										<locked>FALSE</locked>
										<outputchannelindex>1</outputchannelindex>
									</track>
								</audio>
							</media>
							<timecode>
								<rate>
									<timebase>25</timebase>
									<ntsc>FALSE</ntsc>
								</rate>
								<string>00:00:00:00</string>
								<frame>0</frame>
								<displayformat>NDF</displayformat>
							</timecode>
								<marker>
									<comment></comment>
									<name></name>
									<in>575</in>
									<out>-1</out>
								</marker>
						</sequence>
						<link>
							<linkclipref>clipitem-1142</linkclipref>
							<mediatype>video</mediatype>
							<trackindex>1</trackindex>
							<clipindex>148</clipindex>
						</link>
						<link>
							<linkclipref>clipitem-1384</linkclipref>
							<mediatype>audio</mediatype>
							<trackindex>3</trackindex>
							<clipindex>32</clipindex>
						</link>
						<link>
							<linkclipref>clipitem-1405</linkclipref>
							<mediatype>audio</mediatype>
							<trackindex>4</trackindex>
							<clipindex>21</clipindex>
						</link>
						<labels>
							<label2>Forest</label2>
						</labels>
					</clipitem>
					<clipitem id="clipitem-1149" frameBlend="FALSE">
						<masterclipid>masterclip-307</masterclipid>
						<name>N42A0927.MOVMulticam</name>
						<enabled>TRUE</enabled>
						<duration>28012</duration>
						<rate>
							<timebase>25</timebase>
							<ntsc>FALSE</ntsc>
						</rate>
						<start>13605</start>
						<end>13637</end>
						<in>19288</in>
						<out>19320</out>
						<pproTicksIn>195978424320000</pproTicksIn>
						<pproTicksOut>196303564800000</pproTicksOut>
						<sequence id="sequence-53">
							<rate>
								<timebase>25</timebase>
								<ntsc>FALSE</ntsc>
							</rate>
							<name>N42A0927.MOVMulticam-2</name>
							<media>
								<video>
									<format>
										<samplecharacteristics>
											<rate>
												<timebase>25</timebase>
												<ntsc>FALSE</ntsc>
											</rate>
											<codec>
												<name>Apple ProRes 422</name>
												<appspecificdata>
													<appname>Final Cut Pro</appname>
													<appmanufacturer>Apple Inc.</appmanufacturer>
													<appversion>7.0</appversion>
													<data>
														<qtcodec>
															<codecname>Apple ProRes 422</codecname>
															<codectypename>Apple ProRes 422</codectypename>
															<codectypecode>apcn</codectypecode>
															<codecvendorcode>appl</codecvendorcode>
															<spatialquality>1024</spatialquality>
															<temporalquality>0</temporalquality>
															<keyframerate>0</keyframerate>
															<datarate>0</datarate>
														</qtcodec>
													</data>
												</appspecificdata>
											</codec>
											<width>1920</width>
											<height>1080</height>
											<anamorphic>FALSE</anamorphic>
											<pixelaspectratio>square</pixelaspectratio>
											<fielddominance>none</fielddominance>
											<colordepth>24</colordepth>
										</samplecharacteristics>
									</format>
									<track>
										<clipitem id="clipitem-1048" frameBlend="FALSE">
											<masterclipid>masterclip-309</masterclipid>
											<name>N42A0928.MOV</name>
											<enabled>TRUE</enabled>
											<duration>11462</duration>
											<rate>
												<timebase>25</timebase>
												<ntsc>FALSE</ntsc>
											</rate>
											<start>16550</start>
											<end>28012</end>
											<in>0</in>
											<out>11462</out>
											<pproTicksIn>0</pproTicksIn>
											<pproTicksOut>116461255680000</pproTicksOut>
											<alphatype>black</alphatype>
											<pixelaspectratio>square</pixelaspectratio>
											<anamorphic>FALSE</anamorphic>
											<file id="file-298">
												<name>N42A0928.MOV</name>
												<pathurl>file://localhost/Volumes/Brakka/AdobeLager/Katta/Katta-16xxxx-Klimabloffen-Chris/02-Video/Tomat/restaurant/5d%20restaurant/DCIM/100EOS5D/N42A0928.MOV</pathurl>
												<rate>
													<timebase>25</timebase>
													<ntsc>FALSE</ntsc>
												</rate>
												<duration>11462</duration>
												<timecode>
													<rate>
														<timebase>25</timebase>
														<ntsc>FALSE</ntsc>
													</rate>
													<string>13:35:04:21</string>
													<frame>1222621</frame>
													<displayformat>NDF</displayformat>
													<reel>
														<name></name>
													</reel>
												</timecode>
												<media>
													<video>
														<samplecharacteristics>
															<rate>
																<timebase>25</timebase>
																<ntsc>FALSE</ntsc>
															</rate>
															<width>1920</width>
															<height>1080</height>
															<anamorphic>FALSE</anamorphic>
															<pixelaspectratio>square</pixelaspectratio>
															<fielddominance>none</fielddominance>
														</samplecharacteristics>
													</video>
													<audio>
														<samplecharacteristics>
															<depth>16</depth>
															<samplerate>48000</samplerate>
														</samplecharacteristics>
														<channelcount>1</channelcount>
														<layout>stereo</layout>
														<audiochannel>
															<sourcechannel>1</sourcechannel>
															<channellabel>left</channellabel>
														</audiochannel>
													</audio>
													<audio>
														<samplecharacteristics>
															<depth>16</depth>
															<samplerate>48000</samplerate>
														</samplecharacteristics>
														<channelcount>1</channelcount>
														<layout>stereo</layout>
														<audiochannel>
															<sourcechannel>2</sourcechannel>
															<channellabel>right</channellabel>
														</audiochannel>
													</audio>
												</media>
											</file>
											<logginginfo>
												<description></description>
												<scene></scene>
												<shottake></shottake>
												<lognote></lognote>
											</logginginfo>
											<labels>
												<label2>Iris</label2>
											</labels>
										</clipitem>
										<enabled>TRUE</enabled>
										<locked>FALSE</locked>
									</track>
								</video>
								<audio>
									<numOutputChannels>8</numOutputChannels>
									<format>
										<samplecharacteristics>
											<depth>16</depth>
											<samplerate>48000</samplerate>
										</samplecharacteristics>
									</format>
									<outputs>
										<group>
											<index>1</index>
											<numchannels>1</numchannels>
											<downmix>0</downmix>
											<channel>
												<index>1</index>
											</channel>
										</group>
										<group>
											<index>2</index>
											<numchannels>1</numchannels>
											<downmix>0</downmix>
											<channel>
												<index>2</index>
											</channel>
										</group>
										<group>
											<index>3</index>
											<numchannels>1</numchannels>
											<downmix>0</downmix>
											<channel>
												<index>3</index>
											</channel>
										</group>
										<group>
											<index>4</index>
											<numchannels>1</numchannels>
											<downmix>0</downmix>
											<channel>
												<index>4</index>
											</channel>
										</group>
										<group>
											<index>5</index>
											<numchannels>1</numchannels>
											<downmix>0</downmix>
											<channel>
												<index>5</index>
											</channel>
										</group>
										<group>
											<index>6</index>
											<numchannels>1</numchannels>
											<downmix>0</downmix>
											<channel>
												<index>6</index>
											</channel>
										</group>
										<group>
											<index>7</index>
											<numchannels>1</numchannels>
											<downmix>0</downmix>
											<channel>
												<index>7</index>
											</channel>
										</group>
										<group>
											<index>8</index>
											<numchannels>1</numchannels>
											<downmix>0</downmix>
											<channel>
												<index>8</index>
											</channel>
										</group>
									</outputs>
									<track TL.SQTrackExpandedHeight="25" TL.SQTrackExpanded="0" MZ.TrackTargeted="1" PannerIsInverted="true" PannerName="Balance" currentExplodedTrackIndex="0" totalExplodedTrackCount="1" premiereTrackType="Stereo">
										<clipitem id="clipitem-1047" frameBlend="FALSE" premiereChannelType="mono">
											<masterclipid>masterclip-308</masterclipid>
											<name>N42A0927.MOV</name>
											<enabled>TRUE</enabled>
											<duration>16550</duration>
											<rate>
												<timebase>25</timebase>
												<ntsc>FALSE</ntsc>
											</rate>
											<start>0</start>
											<end>16550</end>
											<in>0</in>
											<out>16550</out>
											<pproTicksIn>0</pproTicksIn>
											<pproTicksOut>168158592000000</pproTicksOut>
											<file id="file-297"/>
											<sourcetrack>
												<mediatype>audio</mediatype>
												<trackindex>2</trackindex>
											</sourcetrack>
											<logginginfo>
												<description></description>
												<scene></scene>
												<shottake></shottake>
												<lognote></lognote>
											</logginginfo>
											<labels>
												<label2>Iris</label2>
											</labels>
										</clipitem>
										<enabled>TRUE</enabled>
										<locked>FALSE</locked>
										<outputchannelindex>1</outputchannelindex>
									</track>
								</audio>
							</media>
							<timecode>
								<rate>
									<timebase>25</timebase>
									<ntsc>FALSE</ntsc>
								</rate>
								<string>00:00:00:00</string>
								<frame>0</frame>
								<displayformat>NDF</displayformat>
							</timecode>
						</sequence>
						<labels>
							<label2>Forest</label2>
						</labels>
					</clipitem>
					<clipitem id="clipitem-1150" frameBlend="FALSE">
						<masterclipid>masterclip-345</masterclipid>
						<name>N42A0925.MOVMulticam</name>
						<enabled>TRUE</enabled>
						<duration>8736</duration>
						<rate>
							<timebase>25</timebase>
							<ntsc>FALSE</ntsc>
						</rate>
						<start>13637</start>
						<end>13651</end>
						<in>3591</in>
						<out>3605</out>
						<pproTicksIn>36486858240000</pproTicksIn>
						<pproTicksOut>36629107200000</pproTicksOut>
						<sequence id="sequence-68"/>
						<link>
							<linkclipref>clipitem-1150</linkclipref>
							<mediatype>video</mediatype>
							<trackindex>1</trackindex>
							<clipindex>150</clipindex>
						</link>
						<link>
							<linkclipref>clipitem-1276</linkclipref>
							<mediatype>audio</mediatype>
							<trackindex>1</trackindex>
							<clipindex>68</clipindex>
						</link>
						<link>
							<linkclipref>clipitem-1345</linkclipref>
							<mediatype>audio</mediatype>
							<trackindex>2</trackindex>
							<clipindex>56</clipindex>
						</link>
						<labels>
							<label2>Forest</label2>
						</labels>
					</clipitem>
					<clipitem id="clipitem-1151" frameBlend="FALSE">
						<masterclipid>masterclip-345</masterclipid>
						<name>N42A0925.MOVMulticam</name>
						<enabled>TRUE</enabled>
						<duration>8736</duration>
						<rate>
							<timebase>25</timebase>
							<ntsc>FALSE</ntsc>
						</rate>
						<start>13651</start>
						<end>13779</end>
						<in>3605</in>
						<out>3733</out>
						<pproTicksIn>36629107200000</pproTicksIn>
						<pproTicksOut>37929669120000</pproTicksOut>
						<sequence id="sequence-69">
							<rate>
								<timebase>25</timebase>
								<ntsc>FALSE</ntsc>
							</rate>
							<name>N42A0925.MOVMulticam-2</name>
							<media>
								<video>
									<format>
										<samplecharacteristics>
											<rate>
												<timebase>25</timebase>
												<ntsc>FALSE</ntsc>
											</rate>
											<codec>
												<name>Apple ProRes 422</name>
												<appspecificdata>
													<appname>Final Cut Pro</appname>
													<appmanufacturer>Apple Inc.</appmanufacturer>
													<appversion>7.0</appversion>
													<data>
														<qtcodec>
															<codecname>Apple ProRes 422</codecname>
															<codectypename>Apple ProRes 422</codectypename>
															<codectypecode>apcn</codectypecode>
															<codecvendorcode>appl</codecvendorcode>
															<spatialquality>1024</spatialquality>
															<temporalquality>0</temporalquality>
															<keyframerate>0</keyframerate>
															<datarate>0</datarate>
														</qtcodec>
													</data>
												</appspecificdata>
											</codec>
											<width>1920</width>
											<height>1080</height>
											<anamorphic>FALSE</anamorphic>
											<pixelaspectratio>square</pixelaspectratio>
											<fielddominance>none</fielddominance>
											<colordepth>24</colordepth>
										</samplecharacteristics>
									</format>
									<track>
										<clipitem id="clipitem-1146" frameBlend="FALSE">
											<masterclipid>masterclip-314</masterclipid>
											<name>AA3195</name>
											<enabled>TRUE</enabled>
											<duration>8064</duration>
											<rate>
												<timebase>25</timebase>
												<ntsc>FALSE</ntsc>
											</rate>
											<start>328</start>
											<end>8392</end>
											<in>0</in>
											<out>8064</out>
											<pproTicksIn>0</pproTicksIn>
											<pproTicksOut>81935400960000</pproTicksOut>
											<alphatype>none</alphatype>
											<file id="file-303"/>
											<logginginfo>
												<description></description>
												<scene></scene>
												<shottake>AA3195</shottake>
												<lognote></lognote>
											</logginginfo>
											<labels>
												<label2>Iris</label2>
											</labels>
										</clipitem>
										<enabled>TRUE</enabled>
										<locked>FALSE</locked>
									</track>
								</video>
								<audio>
									<numOutputChannels>4</numOutputChannels>
									<format>
										<samplecharacteristics>
											<depth>16</depth>
											<samplerate>48000</samplerate>
										</samplecharacteristics>
									</format>
									<outputs>
										<group>
											<index>1</index>
											<numchannels>1</numchannels>
											<downmix>0</downmix>
											<channel>
												<index>1</index>
											</channel>
										</group>
										<group>
											<index>2</index>
											<numchannels>1</numchannels>
											<downmix>0</downmix>
											<channel>
												<index>2</index>
											</channel>
										</group>
										<group>
											<index>3</index>
											<numchannels>1</numchannels>
											<downmix>0</downmix>
											<channel>
												<index>3</index>
											</channel>
										</group>
										<group>
											<index>4</index>
											<numchannels>1</numchannels>
											<downmix>0</downmix>
											<channel>
												<index>4</index>
											</channel>
										</group>
									</outputs>
									<track TL.SQTrackExpandedHeight="25" TL.SQTrackExpanded="0" MZ.TrackTargeted="1" PannerIsInverted="true" PannerName="Balance" currentExplodedTrackIndex="0" totalExplodedTrackCount="1" premiereTrackType="Stereo">
										<clipitem id="clipitem-1145" frameBlend="FALSE" premiereChannelType="mono">
											<masterclipid>masterclip-346</masterclipid>
											<name>N42A0925.MOV</name>
											<enabled>TRUE</enabled>
											<duration>8736</duration>
											<rate>
												<timebase>25</timebase>
												<ntsc>FALSE</ntsc>
											</rate>
											<start>0</start>
											<end>8736</end>
											<in>0</in>
											<out>8736</out>
											<pproTicksIn>0</pproTicksIn>
											<pproTicksOut>88763351040000</pproTicksOut>
											<file id="file-331"/>
											<sourcetrack>
												<mediatype>audio</mediatype>
												<trackindex>2</trackindex>
											</sourcetrack>
											<logginginfo>
												<description></description>
												<scene></scene>
												<shottake></shottake>
												<lognote></lognote>
											</logginginfo>
											<labels>
												<label2>Iris</label2>
											</labels>
										</clipitem>
										<enabled>TRUE</enabled>
										<locked>FALSE</locked>
										<outputchannelindex>1</outputchannelindex>
									</track>
								</audio>
							</media>
							<timecode>
								<rate>
									<timebase>25</timebase>
									<ntsc>FALSE</ntsc>
								</rate>
								<string>00:00:00:00</string>
								<frame>0</frame>
								<displayformat>NDF</displayformat>
							</timecode>
								<marker>
									<comment></comment>
									<name></name>
									<in>575</in>
									<out>-1</out>
								</marker>
						</sequence>
						<labels>
							<label2>Forest</label2>
						</labels>
					</clipitem>
					<clipitem id="clipitem-1152" frameBlend="FALSE">
						<masterclipid>masterclip-344</masterclipid>
						<name>AA3212</name>
						<enabled>TRUE</enabled>
						<duration>504</duration>
						<rate>
							<timebase>25</timebase>
							<ntsc>FALSE</ntsc>
						</rate>
						<start>13779</start>
						<end>13854</end>
						<in>162</in>
						<out>237</out>
						<pproTicksIn>1646023680000</pproTicksIn>
						<pproTicksOut>2408071680000</pproTicksOut>
						<alphatype>none</alphatype>
						<file id="file-330"/>
							<filter>
								<effect>
									<name>Basic Motion</name>
									<effectid>basic</effectid>
									<effectcategory>motion</effectcategory>
									<effecttype>motion</effecttype>
									<mediatype>video</mediatype>
									<parameter authoringApp="PremierePro">
										<parameterid>scale</parameterid>
										<name>Scale</name>
										<valuemin>0</valuemin>
										<valuemax>1000</valuemax>
										<value>102</value>
									</parameter>
									<parameter authoringApp="PremierePro">
										<parameterid>rotation</parameterid>
										<name>Rotation</name>
										<valuemin>-8640</valuemin>
										<valuemax>8640</valuemax>
										<value>0</value>
									</parameter>
									<parameter authoringApp="PremierePro">
										<parameterid>center</parameterid>
										<name>Center</name>
										<value>
											<horiz>0</horiz>
											<vert>0</vert>
										</value>
									</parameter>
									<parameter authoringApp="PremierePro">
										<parameterid>centerOffset</parameterid>
										<name>Anchor Point</name>
										<value>
											<horiz>0</horiz>
											<vert>0</vert>
										</value>
									</parameter>
								</effect>
							</filter>
							<filter>
								<effect>
									<name>Time Remap</name>
									<effectid>timeremap</effectid>
									<effectcategory>motion</effectcategory>
									<effecttype>motion</effecttype>
									<mediatype>video</mediatype>
									<parameter authoringApp="PremierePro">
										<parameterid>variablespeed</parameterid>
										<name>variablespeed</name>
										<valuemin>0</valuemin>
										<valuemax>1</valuemax>
										<value>0</value>
									</parameter>
									<parameter authoringApp="PremierePro">
										<parameterid>mappedduration</parameterid>
										<name>mappedduration</name>
										<value>
											<timecode>
												<rate>
													<timebase>0</timebase>
												</rate>
												<string>0</string>
												<frame>0</frame>
												<displayformat>NDF</displayformat>
											</timecode>
										</value>
									</parameter>
									<parameter authoringApp="PremierePro">
										<parameterid>speed</parameterid>
										<name>speed</name>
										<valuemin>-100000</valuemin>
										<valuemax>100000</valuemax>
										<value>100</value>
									</parameter>
									<parameter authoringApp="PremierePro">
										<parameterid>reverse</parameterid>
										<name>reverse</name>
										<value>TRUE</value>
									</parameter>
									<parameter authoringApp="PremierePro">
										<parameterid>frameblending</parameterid>
										<name>frameblending</name>
										<value>FALSE</value>
									</parameter>
									<parameter authoringApp="PremierePro">
										<parameterid>graphdict</parameterid>
										<name>graphdict</name>
										<valuemin>0</valuemin>
										<valuemax>504</valuemax>
										<value>0</value>
										<keyframe>
											<when>0</when>
											<value>505</value>
											<speedvirtualkf>TRUE</speedvirtualkf>
											<origvalue>504</origvalue>
											<speedkfstart>TRUE</speedkfstart>
										</keyframe>
										<keyframe>
											<when>162</when>
											<value>342</value>
											<speedvirtualkf>TRUE</speedvirtualkf>
											<origvalue>342</origvalue>
											<speedkfin>TRUE</speedkfin>
										</keyframe>
										<keyframe>
											<when>237</when>
											<value>267</value>
											<speedvirtualkf>TRUE</speedvirtualkf>
											<origvalue>267</origvalue>
											<speedkfout>TRUE</speedkfout>
										</keyframe>
										<keyframe>
											<when>504</when>
											<value>0</value>
											<speedvirtualkf>TRUE</speedvirtualkf>
											<origvalue>0</origvalue>
											<speedkfend>TRUE</speedkfend>
										</keyframe>
										<interpolation>
											<name>FCPCurve</name>
										</interpolation>
									</parameter>
								</effect>
							</filter>
						<logginginfo>
							<description></description>
							<scene></scene>
							<shottake>AA3212</shottake>
							<lognote></lognote>
						</logginginfo>
						<labels>
							<label2>Iris</label2>
						</labels>
					</clipitem>
					<clipitem id="clipitem-1153" frameBlend="FALSE">
						<masterclipid>masterclip-344</masterclipid>
						<name>AA3212</name>
						<enabled>TRUE</enabled>
						<duration>504</duration>
						<rate>
							<timebase>25</timebase>
							<ntsc>FALSE</ntsc>
						</rate>
						<start>13854</start>
						<end>13918</end>
						<in>296</in>
						<out>360</out>
						<pproTicksIn>3007549440000</pproTicksIn>
						<pproTicksOut>3657830400000</pproTicksOut>
						<alphatype>none</alphatype>
						<file id="file-330"/>
							<filter>
								<effect>
									<name>Basic Motion</name>
									<effectid>basic</effectid>
									<effectcategory>motion</effectcategory>
									<effecttype>motion</effecttype>
									<mediatype>video</mediatype>
									<parameter authoringApp="PremierePro">
										<parameterid>scale</parameterid>
										<name>Scale</name>
										<valuemin>0</valuemin>
										<valuemax>1000</valuemax>
										<value>102</value>
									</parameter>
									<parameter authoringApp="PremierePro">
										<parameterid>rotation</parameterid>
										<name>Rotation</name>
										<valuemin>-8640</valuemin>
										<valuemax>8640</valuemax>
										<value>0</value>
									</parameter>
									<parameter authoringApp="PremierePro">
										<parameterid>center</parameterid>
										<name>Center</name>
										<value>
											<horiz>-0.00885418</horiz>
											<vert>-0.0074074</vert>
										</value>
									</parameter>
									<parameter authoringApp="PremierePro">
										<parameterid>centerOffset</parameterid>
										<name>Anchor Point</name>
										<value>
											<horiz>0</horiz>
											<vert>0</vert>
										</value>
									</parameter>
								</effect>
							</filter>
							<filter>
								<effect>
									<name>Time Remap</name>
									<effectid>timeremap</effectid>
									<effectcategory>motion</effectcategory>
									<effecttype>motion</effecttype>
									<mediatype>video</mediatype>
									<parameter authoringApp="PremierePro">
										<parameterid>variablespeed</parameterid>
										<name>variablespeed</name>
										<valuemin>0</valuemin>
										<valuemax>1</valuemax>
										<value>0</value>
									</parameter>
									<parameter authoringApp="PremierePro">
										<parameterid>mappedduration</parameterid>
										<name>mappedduration</name>
										<value>
											<timecode>
												<rate>
													<timebase>0</timebase>
												</rate>
												<string>0</string>
												<frame>0</frame>
												<displayformat>NDF</displayformat>
											</timecode>
										</value>
									</parameter>
									<parameter authoringApp="PremierePro">
										<parameterid>speed</parameterid>
										<name>speed</name>
										<valuemin>-100000</valuemin>
										<valuemax>100000</valuemax>
										<value>100</value>
									</parameter>
									<parameter authoringApp="PremierePro">
										<parameterid>reverse</parameterid>
										<name>reverse</name>
										<value>TRUE</value>
									</parameter>
									<parameter authoringApp="PremierePro">
										<parameterid>frameblending</parameterid>
										<name>frameblending</name>
										<value>FALSE</value>
									</parameter>
									<parameter authoringApp="PremierePro">
										<parameterid>graphdict</parameterid>
										<name>graphdict</name>
										<valuemin>0</valuemin>
										<valuemax>504</valuemax>
										<value>0</value>
										<keyframe>
											<when>0</when>
											<value>505</value>
											<speedvirtualkf>TRUE</speedvirtualkf>
											<origvalue>504</origvalue>
											<speedkfstart>TRUE</speedkfstart>
										</keyframe>
										<keyframe>
											<when>296</when>
											<value>208</value>
											<speedvirtualkf>TRUE</speedvirtualkf>
											<origvalue>208</origvalue>
											<speedkfin>TRUE</speedkfin>
										</keyframe>
										<keyframe>
											<when>360</when>
											<value>144</value>
											<speedvirtualkf>TRUE</speedvirtualkf>
											<origvalue>144</origvalue>
											<speedkfout>TRUE</speedkfout>
										</keyframe>
										<keyframe>
											<when>504</when>
											<value>0</value>
											<speedvirtualkf>TRUE</speedvirtualkf>
											<origvalue>0</origvalue>
											<speedkfend>TRUE</speedkfend>
										</keyframe>
										<interpolation>
											<name>FCPCurve</name>
										</interpolation>
									</parameter>
								</effect>
							</filter>
						<logginginfo>
							<description></description>
							<scene></scene>
							<shottake>AA3212</shottake>
							<lognote></lognote>
						</logginginfo>
						<labels>
							<label2>Iris</label2>
						</labels>
					</clipitem>
					<clipitem id="clipitem-1154" frameBlend="FALSE">
						<masterclipid>masterclip-345</masterclipid>
						<name>N42A0925.MOVMulticam</name>
						<enabled>TRUE</enabled>
						<duration>8736</duration>
						<rate>
							<timebase>25</timebase>
							<ntsc>FALSE</ntsc>
						</rate>
						<start>13918</start>
						<end>13953</end>
						<in>8028</in>
						<out>8063</out>
						<pproTicksIn>81569617920000</pproTicksIn>
						<pproTicksOut>81925240320000</pproTicksOut>
						<sequence id="sequence-69"/>
						<link>
							<linkclipref>clipitem-1154</linkclipref>
							<mediatype>video</mediatype>
							<trackindex>1</trackindex>
							<clipindex>154</clipindex>
						</link>
						<link>
							<linkclipref>clipitem-1284</linkclipref>
							<mediatype>audio</mediatype>
							<trackindex>1</trackindex>
							<clipindex>70</clipindex>
						</link>
						<link>
							<linkclipref>clipitem-1347</linkclipref>
							<mediatype>audio</mediatype>
							<trackindex>2</trackindex>
							<clipindex>58</clipindex>
						</link>
						<labels>
							<label2>Forest</label2>
						</labels>
					</clipitem>
					<clipitem id="clipitem-1155" frameBlend="FALSE">
						<masterclipid>masterclip-311</masterclipid>
						<name>AA3204</name>
						<enabled>TRUE</enabled>
						<duration>24168</duration>
						<rate>
							<timebase>25</timebase>
							<ntsc>FALSE</ntsc>
						</rate>
						<start>13953</start>
						<end>13993</end>
						<in>16759</in>
						<out>16799</out>
						<pproTicksIn>170282165760000</pproTicksIn>
						<pproTicksOut>170688591360000</pproTicksOut>
						<alphatype>none</alphatype>
						<file id="file-300"/>
						<logginginfo>
							<description></description>
							<scene></scene>
							<shottake>AA3204</shottake>
							<lognote></lognote>
						</logginginfo>
						<labels>
							<label2>Iris</label2>
						</labels>
					</clipitem>
					<clipitem id="clipitem-1156" frameBlend="FALSE">
						<masterclipid>masterclip-307</masterclipid>
						<name>N42A0927.MOVMulticam</name>
						<enabled>TRUE</enabled>
						<duration>28012</duration>
						<rate>
							<timebase>25</timebase>
							<ntsc>FALSE</ntsc>
						</rate>
						<start>13993</start>
						<end>13994</end>
						<in>20996</in>
						<out>20997</out>
						<pproTicksIn>213332797440000</pproTicksIn>
						<pproTicksOut>213342958080000</pproTicksOut>
						<sequence id="sequence-53"/>
							<filter>
								<effect>
									<name>Basic Motion</name>
									<effectid>basic</effectid>
									<effectcategory>motion</effectcategory>
									<effecttype>motion</effecttype>
									<mediatype>video</mediatype>
									<parameter authoringApp="PremierePro">
										<parameterid>scale</parameterid>
										<name>Scale</name>
										<valuemin>0</valuemin>
										<valuemax>1000</valuemax>
										<value>116</value>
									</parameter>
									<parameter authoringApp="PremierePro">
										<parameterid>rotation</parameterid>
										<name>Rotation</name>
										<valuemin>-8640</valuemin>
										<valuemax>8640</valuemax>
										<value>0</value>
									</parameter>
									<parameter authoringApp="PremierePro">
										<parameterid>center</parameterid>
										<name>Center</name>
										<value>
											<horiz>-0.5</horiz>
											<vert>-0.5</vert>
										</value>
									</parameter>
									<parameter authoringApp="PremierePro">
										<parameterid>centerOffset</parameterid>
										<name>Anchor Point</name>
										<value>
											<horiz>0</horiz>
											<vert>0</vert>
										</value>
									</parameter>
								</effect>
							</filter>
						<labels>
							<label2>Forest</label2>
						</labels>
					</clipitem>
					<clipitem id="clipitem-1157" frameBlend="FALSE">
						<masterclipid>masterclip-347</masterclipid>
						<name>AA3219</name>
						<enabled>TRUE</enabled>
						<duration>528</duration>
						<rate>
							<timebase>25</timebase>
							<ntsc>FALSE</ntsc>
						</rate>
						<start>13994</start>
						<end>14026</end>
						<in>394</in>
						<out>426</out>
						<pproTicksIn>4003292160000</pproTicksIn>
						<pproTicksOut>4328432640000</pproTicksOut>
						<alphatype>none</alphatype>
						<pixelaspectratio>square</pixelaspectratio>
						<anamorphic>FALSE</anamorphic>
						<file id="file-332">
							<name>AA3219</name>
							<pathurl>file://localhost/Volumes/Brakka/AdobeLager/Katta/Katta-16xxxx-Klimabloffen-Chris/02-Video/Tomat/restaurant/C300%20restaurant/CONTENTS/CLIPS001/AA3219/AA321901.MXF</pathurl>
							<rate>
								<timebase>25</timebase>
								<ntsc>FALSE</ntsc>
							</rate>
							<duration>528</duration>
							<timecode>
								<rate>
									<timebase>25</timebase>
									<ntsc>FALSE</ntsc>
								</rate>
								<string>23:37:39:17</string>
								<frame>2126492</frame>
								<displayformat>NDF</displayformat>
								<reel>
									<name></name>
								</reel>
							</timecode>
							<media>
								<video>
									<samplecharacteristics>
										<rate>
											<timebase>25</timebase>
											<ntsc>FALSE</ntsc>
										</rate>
										<width>1920</width>
										<height>1080</height>
										<anamorphic>FALSE</anamorphic>
										<pixelaspectratio>square</pixelaspectratio>
										<fielddominance>none</fielddominance>
									</samplecharacteristics>
								</video>
								<audio>
									<samplecharacteristics>
										<depth>16</depth>
										<samplerate>48000</samplerate>
									</samplecharacteristics>
									<channelcount>1</channelcount>
									<layout>stereo</layout>
									<audiochannel>
										<sourcechannel>1</sourcechannel>
										<channellabel>left</channellabel>
									</audiochannel>
								</audio>
								<audio>
									<samplecharacteristics>
										<depth>16</depth>
										<samplerate>48000</samplerate>
									</samplecharacteristics>
									<channelcount>1</channelcount>
									<layout>stereo</layout>
									<audiochannel>
										<sourcechannel>2</sourcechannel>
										<channellabel>right</channellabel>
									</audiochannel>
								</audio>
							</media>
						</file>
						<logginginfo>
							<description></description>
							<scene></scene>
							<shottake>AA3219</shottake>
							<lognote></lognote>
						</logginginfo>
						<labels>
							<label2>Iris</label2>
						</labels>
					</clipitem>
					<clipitem id="clipitem-1158" frameBlend="FALSE">
						<masterclipid>masterclip-307</masterclipid>
						<name>N42A0927.MOVMulticam</name>
						<enabled>TRUE</enabled>
						<duration>28012</duration>
						<rate>
							<timebase>25</timebase>
							<ntsc>FALSE</ntsc>
						</rate>
						<start>14026</start>
						<end>14079</end>
						<in>21029</in>
						<out>21082</out>
						<pproTicksIn>213668098560000</pproTicksIn>
						<pproTicksOut>214206612480000</pproTicksOut>
						<sequence id="sequence-53"/>
							<filter>
								<effect>
									<name>Basic Motion</name>
									<effectid>basic</effectid>
									<effectcategory>motion</effectcategory>
									<effecttype>motion</effecttype>
									<mediatype>video</mediatype>
									<parameter authoringApp="PremierePro">
										<parameterid>scale</parameterid>
										<name>Scale</name>
										<valuemin>0</valuemin>
										<valuemax>1000</valuemax>
										<value>116</value>
									</parameter>
									<parameter authoringApp="PremierePro">
										<parameterid>rotation</parameterid>
										<name>Rotation</name>
										<valuemin>-8640</valuemin>
										<valuemax>8640</valuemax>
										<value>0</value>
									</parameter>
									<parameter authoringApp="PremierePro">
										<parameterid>center</parameterid>
										<name>Center</name>
										<value>
											<horiz>-0.5</horiz>
											<vert>-0.5</vert>
										</value>
									</parameter>
									<parameter authoringApp="PremierePro">
										<parameterid>centerOffset</parameterid>
										<name>Anchor Point</name>
										<value>
											<horiz>0</horiz>
											<vert>0</vert>
										</value>
									</parameter>
								</effect>
							</filter>
						<labels>
							<label2>Forest</label2>
						</labels>
					</clipitem>
					<clipitem id="clipitem-1159" frameBlend="FALSE">
						<masterclipid>masterclip-348</masterclipid>
						<name>AA3217</name>
						<enabled>TRUE</enabled>
						<duration>168</duration>
						<rate>
							<timebase>25</timebase>
							<ntsc>FALSE</ntsc>
						</rate>
						<start>14079</start>
						<end>14116</end>
						<in>63</in>
						<out>100</out>
						<pproTicksIn>640120320000</pproTicksIn>
						<pproTicksOut>1016064000000</pproTicksOut>
						<alphatype>none</alphatype>
						<pixelaspectratio>square</pixelaspectratio>
						<anamorphic>FALSE</anamorphic>
						<file id="file-333">
							<name>AA3217</name>
							<pathurl>file://localhost/Volumes/Brakka/AdobeLager/Katta/Katta-16xxxx-Klimabloffen-Chris/02-Video/Tomat/restaurant/C300%20restaurant/CONTENTS/CLIPS001/AA3217/AA321701.MXF</pathurl>
							<rate>
								<timebase>25</timebase>
								<ntsc>FALSE</ntsc>
							</rate>
							<duration>168</duration>
							<timecode>
								<rate>
									<timebase>25</timebase>
									<ntsc>FALSE</ntsc>
								</rate>
								<string>23:33:37:03</string>
								<frame>2120428</frame>
								<displayformat>NDF</displayformat>
								<reel>
									<name></name>
								</reel>
							</timecode>
							<media>
								<video>
									<samplecharacteristics>
										<rate>
											<timebase>25</timebase>
											<ntsc>FALSE</ntsc>
										</rate>
										<width>1920</width>
										<height>1080</height>
										<anamorphic>FALSE</anamorphic>
										<pixelaspectratio>square</pixelaspectratio>
										<fielddominance>none</fielddominance>
									</samplecharacteristics>
								</video>
								<audio>
									<samplecharacteristics>
										<depth>16</depth>
										<samplerate>48000</samplerate>
									</samplecharacteristics>
									<channelcount>1</channelcount>
									<layout>stereo</layout>
									<audiochannel>
										<sourcechannel>1</sourcechannel>
										<channellabel>left</channellabel>
									</audiochannel>
								</audio>
								<audio>
									<samplecharacteristics>
										<depth>16</depth>
										<samplerate>48000</samplerate>
									</samplecharacteristics>
									<channelcount>1</channelcount>
									<layout>stereo</layout>
									<audiochannel>
										<sourcechannel>2</sourcechannel>
										<channellabel>right</channellabel>
									</audiochannel>
								</audio>
							</media>
						</file>
						<logginginfo>
							<description></description>
							<scene></scene>
							<shottake>AA3217</shottake>
							<lognote></lognote>
						</logginginfo>
						<labels>
							<label2>Iris</label2>
						</labels>
					</clipitem>
					<clipitem id="clipitem-1160" frameBlend="FALSE">
						<masterclipid>masterclip-345</masterclipid>
						<name>N42A0925.MOVMulticam</name>
						<enabled>TRUE</enabled>
						<duration>8736</duration>
						<rate>
							<timebase>25</timebase>
							<ntsc>FALSE</ntsc>
						</rate>
						<start>14116</start>
						<end>14142</end>
						<in>6956</in>
						<out>6982</out>
						<pproTicksIn>70677411840000</pproTicksIn>
						<pproTicksOut>70941588480000</pproTicksOut>
						<sequence id="sequence-69"/>
						<labels>
							<label2>Forest</label2>
						</labels>
					</clipitem>
					<clipitem id="clipitem-1161" frameBlend="FALSE">
						<masterclipid>masterclip-349</masterclipid>
						<name>AA3218</name>
						<enabled>TRUE</enabled>
						<duration>564</duration>
						<rate>
							<timebase>25</timebase>
							<ntsc>FALSE</ntsc>
						</rate>
						<start>14142</start>
						<end>14202</end>
						<in>223</in>
						<out>283</out>
						<pproTicksIn>2265822720000</pproTicksIn>
						<pproTicksOut>2875461120000</pproTicksOut>
						<alphatype>none</alphatype>
						<pixelaspectratio>square</pixelaspectratio>
						<anamorphic>FALSE</anamorphic>
						<file id="file-334">
							<name>AA3218</name>
							<pathurl>file://localhost/Volumes/Brakka/AdobeLager/Katta/Katta-16xxxx-Klimabloffen-Chris/02-Video/Tomat/restaurant/C300%20restaurant/CONTENTS/CLIPS001/AA3218/AA321801.MXF</pathurl>
							<rate>
								<timebase>25</timebase>
								<ntsc>FALSE</ntsc>
							</rate>
							<duration>564</duration>
							<timecode>
								<rate>
									<timebase>25</timebase>
									<ntsc>FALSE</ntsc>
								</rate>
								<string>23:37:11:18</string>
								<frame>2125793</frame>
								<displayformat>NDF</displayformat>
								<reel>
									<name></name>
								</reel>
							</timecode>
							<media>
								<video>
									<samplecharacteristics>
										<rate>
											<timebase>25</timebase>
											<ntsc>FALSE</ntsc>
										</rate>
										<width>1920</width>
										<height>1080</height>
										<anamorphic>FALSE</anamorphic>
										<pixelaspectratio>square</pixelaspectratio>
										<fielddominance>none</fielddominance>
									</samplecharacteristics>
								</video>
								<audio>
									<samplecharacteristics>
										<depth>16</depth>
										<samplerate>48000</samplerate>
									</samplecharacteristics>
									<channelcount>1</channelcount>
									<layout>stereo</layout>
									<audiochannel>
										<sourcechannel>1</sourcechannel>
										<channellabel>left</channellabel>
									</audiochannel>
								</audio>
								<audio>
									<samplecharacteristics>
										<depth>16</depth>
										<samplerate>48000</samplerate>
									</samplecharacteristics>
									<channelcount>1</channelcount>
									<layout>stereo</layout>
									<audiochannel>
										<sourcechannel>2</sourcechannel>
										<channellabel>right</channellabel>
									</audiochannel>
								</audio>
							</media>
						</file>
						<logginginfo>
							<description></description>
							<scene></scene>
							<shottake>AA3218</shottake>
							<lognote></lognote>
						</logginginfo>
						<labels>
							<label2>Iris</label2>
						</labels>
					</clipitem>
					<clipitem id="clipitem-1162" frameBlend="FALSE">
						<masterclipid>masterclip-307</masterclipid>
						<name>N42A0927.MOVMulticam</name>
						<enabled>TRUE</enabled>
						<duration>28012</duration>
						<rate>
							<timebase>25</timebase>
							<ntsc>FALSE</ntsc>
						</rate>
						<start>14202</start>
						<end>14335</end>
						<in>21568</in>
						<out>21701</out>
						<pproTicksIn>219144683520000</pproTicksIn>
						<pproTicksOut>220496048640000</pproTicksOut>
						<sequence id="sequence-55"/>
						<labels>
							<label2>Forest</label2>
						</labels>
					</clipitem>
					<clipitem id="clipitem-1163" frameBlend="FALSE">
						<masterclipid>masterclip-316</masterclipid>
						<name>N42A0924.MOVMulticam</name>
						<enabled>TRUE</enabled>
						<duration>63746</duration>
						<rate>
							<timebase>25</timebase>
							<ntsc>FALSE</ntsc>
						</rate>
						<start>14335</start>
						<end>14380</end>
						<in>39021</in>
						<out>39066</out>
						<pproTicksIn>396478333440000</pproTicksIn>
						<pproTicksOut>396935562240000</pproTicksOut>
						<labels>
							<label2>Forest</label2>
						</labels>
					</clipitem>
					<clipitem id="clipitem-1164" frameBlend="FALSE">
						<masterclipid>masterclip-307</masterclipid>
						<name>N42A0927.MOVMulticam</name>
						<enabled>TRUE</enabled>
						<duration>28012</duration>
						<rate>
							<timebase>25</timebase>
							<ntsc>FALSE</ntsc>
						</rate>
						<start>14380</start>
						<end>14455</end>
						<in>21776</in>
						<out>21851</out>
						<pproTicksIn>221258096640000</pproTicksIn>
						<pproTicksOut>222020144640000</pproTicksOut>
						<sequence id="sequence-55"/>
						<labels>
							<label2>Forest</label2>
						</labels>
					</clipitem>
					<clipitem id="clipitem-1165" frameBlend="FALSE">
						<masterclipid>masterclip-350</masterclipid>
						<name>AA3215</name>
						<enabled>TRUE</enabled>
						<duration>192</duration>
						<rate>
							<timebase>25</timebase>
							<ntsc>FALSE</ntsc>
						</rate>
						<start>14455</start>
						<end>14493</end>
						<in>75</in>
						<out>113</out>
						<pproTicksIn>762048000000</pproTicksIn>
						<pproTicksOut>1148152320000</pproTicksOut>
						<alphatype>none</alphatype>
						<pixelaspectratio>square</pixelaspectratio>
						<anamorphic>FALSE</anamorphic>
						<file id="file-335">
							<name>AA3215</name>
							<pathurl>file://localhost/Volumes/Brakka/AdobeLager/Katta/Katta-16xxxx-Klimabloffen-Chris/02-Video/Tomat/restaurant/C300%20restaurant/CONTENTS/CLIPS001/AA3215/AA321501.MXF</pathurl>
							<rate>
								<timebase>25</timebase>
								<ntsc>FALSE</ntsc>
							</rate>
							<duration>192</duration>
							<timecode>
								<rate>
									<timebase>25</timebase>
									<ntsc>FALSE</ntsc>
								</rate>
								<string>23:33:18:08</string>
								<frame>2119958</frame>
								<displayformat>NDF</displayformat>
								<reel>
									<name></name>
								</reel>
							</timecode>
							<media>
								<video>
									<samplecharacteristics>
										<rate>
											<timebase>25</timebase>
											<ntsc>FALSE</ntsc>
										</rate>
										<width>1920</width>
										<height>1080</height>
										<anamorphic>FALSE</anamorphic>
										<pixelaspectratio>square</pixelaspectratio>
										<fielddominance>none</fielddominance>
									</samplecharacteristics>
								</video>
								<audio>
									<samplecharacteristics>
										<depth>16</depth>
										<samplerate>48000</samplerate>
									</samplecharacteristics>
									<channelcount>1</channelcount>
									<layout>stereo</layout>
									<audiochannel>
										<sourcechannel>1</sourcechannel>
										<channellabel>left</channellabel>
									</audiochannel>
								</audio>
								<audio>
									<samplecharacteristics>
										<depth>16</depth>
										<samplerate>48000</samplerate>
									</samplecharacteristics>
									<channelcount>1</channelcount>
									<layout>stereo</layout>
									<audiochannel>
										<sourcechannel>2</sourcechannel>
										<channellabel>right</channellabel>
									</audiochannel>
								</audio>
							</media>
						</file>
						<logginginfo>
							<description></description>
							<scene></scene>
							<shottake>AA3215</shottake>
							<lognote></lognote>
						</logginginfo>
						<labels>
							<label2>Iris</label2>
						</labels>
					</clipitem>
					<clipitem id="clipitem-1166" frameBlend="FALSE">
						<masterclipid>masterclip-348</masterclipid>
						<name>AA3217</name>
						<enabled>TRUE</enabled>
						<duration>168</duration>
						<rate>
							<timebase>25</timebase>
							<ntsc>FALSE</ntsc>
						</rate>
						<start>14493</start>
						<end>14534</end>
						<in>126</in>
						<out>167</out>
						<pproTicksIn>1280240640000</pproTicksIn>
						<pproTicksOut>1696826880000</pproTicksOut>
						<alphatype>none</alphatype>
						<file id="file-333"/>
						<logginginfo>
							<description></description>
							<scene></scene>
							<shottake>AA3217</shottake>
							<lognote></lognote>
						</logginginfo>
						<labels>
							<label2>Iris</label2>
						</labels>
					</clipitem>
					<clipitem id="clipitem-1167" frameBlend="FALSE">
						<masterclipid>masterclip-307</masterclipid>
						<name>N42A0927.MOVMulticam</name>
						<enabled>TRUE</enabled>
						<duration>28012</duration>
						<rate>
							<timebase>25</timebase>
							<ntsc>FALSE</ntsc>
						</rate>
						<start>14534</start>
						<end>14568</end>
						<in>21930</in>
						<out>21964</out>
						<pproTicksIn>222822835200000</pproTicksIn>
						<pproTicksOut>223168296960000</pproTicksOut>
						<sequence id="sequence-55"/>
						<labels>
							<label2>Forest</label2>
						</labels>
					</clipitem>
					<clipitem id="clipitem-1168" frameBlend="FALSE">
						<masterclipid>masterclip-351</masterclipid>
						<name>AA3206</name>
						<enabled>TRUE</enabled>
						<duration>228</duration>
						<rate>
							<timebase>25</timebase>
							<ntsc>FALSE</ntsc>
						</rate>
						<start>14568</start>
						<end>14620</end>
						<in>132</in>
						<out>184</out>
						<pproTicksIn>1341204480000</pproTicksIn>
						<pproTicksOut>1869557760000</pproTicksOut>
						<alphatype>none</alphatype>
						<pixelaspectratio>square</pixelaspectratio>
						<anamorphic>FALSE</anamorphic>
						<file id="file-336">
							<name>AA3206</name>
							<pathurl>file://localhost/Volumes/Brakka/AdobeLager/Katta/Katta-16xxxx-Klimabloffen-Chris/02-Video/Tomat/restaurant/C300%20restaurant/CONTENTS/CLIPS001/AA3206/AA320601.MXF</pathurl>
							<rate>
								<timebase>25</timebase>
								<ntsc>FALSE</ntsc>
							</rate>
							<duration>228</duration>
							<timecode>
								<rate>
									<timebase>25</timebase>
									<ntsc>FALSE</ntsc>
								</rate>
								<string>23:29:52:05</string>
								<frame>2114805</frame>
								<displayformat>NDF</displayformat>
								<reel>
									<name></name>
								</reel>
							</timecode>
							<media>
								<video>
									<samplecharacteristics>
										<rate>
											<timebase>25</timebase>
											<ntsc>FALSE</ntsc>
										</rate>
										<width>1920</width>
										<height>1080</height>
										<anamorphic>FALSE</anamorphic>
										<pixelaspectratio>square</pixelaspectratio>
										<fielddominance>none</fielddominance>
									</samplecharacteristics>
								</video>
								<audio>
									<samplecharacteristics>
										<depth>16</depth>
										<samplerate>48000</samplerate>
									</samplecharacteristics>
									<channelcount>1</channelcount>
									<layout>stereo</layout>
									<audiochannel>
										<sourcechannel>1</sourcechannel>
										<channellabel>left</channellabel>
									</audiochannel>
								</audio>
								<audio>
									<samplecharacteristics>
										<depth>16</depth>
										<samplerate>48000</samplerate>
									</samplecharacteristics>
									<channelcount>1</channelcount>
									<layout>stereo</layout>
									<audiochannel>
										<sourcechannel>2</sourcechannel>
										<channellabel>right</channellabel>
									</audiochannel>
								</audio>
							</media>
						</file>
						<link>
							<linkclipref>clipitem-1168</linkclipref>
							<mediatype>video</mediatype>
							<trackindex>1</trackindex>
							<clipindex>168</clipindex>
						</link>
						<link>
							<linkclipref>clipitem-1287</linkclipref>
							<mediatype>audio</mediatype>
							<trackindex>1</trackindex>
							<clipindex>73</clipindex>
						</link>
						<link>
							<linkclipref>clipitem-1350</linkclipref>
							<mediatype>audio</mediatype>
							<trackindex>2</trackindex>
							<clipindex>61</clipindex>
						</link>
						<logginginfo>
							<description></description>
							<scene></scene>
							<shottake>AA3206</shottake>
							<lognote></lognote>
						</logginginfo>
						<labels>
							<label2>Iris</label2>
						</labels>
					</clipitem>
					<clipitem id="clipitem-1169" frameBlend="FALSE">
						<masterclipid>masterclip-352</masterclipid>
						<name>AA3196</name>
						<enabled>TRUE</enabled>
						<duration>516</duration>
						<rate>
							<timebase>25</timebase>
							<ntsc>FALSE</ntsc>
						</rate>
						<start>14620</start>
						<end>14644</end>
						<in>0</in>
						<out>24</out>
						<pproTicksIn>0</pproTicksIn>
						<pproTicksOut>243855360000</pproTicksOut>
						<alphatype>none</alphatype>
						<pixelaspectratio>square</pixelaspectratio>
						<anamorphic>FALSE</anamorphic>
						<file id="file-337">
							<name>AA3196</name>
							<pathurl>file://localhost/Volumes/Brakka/AdobeLager/Katta/Katta-16xxxx-Klimabloffen-Chris/02-Video/Tomat/restaurant/C300%20restaurant/CONTENTS/CLIPS001/AA3196/AA319601.MXF</pathurl>
							<rate>
								<timebase>25</timebase>
								<ntsc>FALSE</ntsc>
							</rate>
							<duration>516</duration>
							<timecode>
								<rate>
									<timebase>25</timebase>
									<ntsc>FALSE</ntsc>
								</rate>
								<string>22:51:35:02</string>
								<frame>2057377</frame>
								<displayformat>NDF</displayformat>
								<reel>
									<name></name>
								</reel>
							</timecode>
							<media>
								<video>
									<samplecharacteristics>
										<rate>
											<timebase>25</timebase>
											<ntsc>FALSE</ntsc>
										</rate>
										<width>1920</width>
										<height>1080</height>
										<anamorphic>FALSE</anamorphic>
										<pixelaspectratio>square</pixelaspectratio>
										<fielddominance>none</fielddominance>
									</samplecharacteristics>
								</video>
								<audio>
									<samplecharacteristics>
										<depth>16</depth>
										<samplerate>48000</samplerate>
									</samplecharacteristics>
									<channelcount>1</channelcount>
									<layout>stereo</layout>
									<audiochannel>
										<sourcechannel>1</sourcechannel>
										<channellabel>left</channellabel>
									</audiochannel>
								</audio>
								<audio>
									<samplecharacteristics>
										<depth>16</depth>
										<samplerate>48000</samplerate>
									</samplecharacteristics>
									<channelcount>1</channelcount>
									<layout>stereo</layout>
									<audiochannel>
										<sourcechannel>2</sourcechannel>
										<channellabel>right</channellabel>
									</audiochannel>
								</audio>
							</media>
						</file>
						<logginginfo>
							<description></description>
							<scene></scene>
							<shottake>AA3196</shottake>
							<lognote></lognote>
						</logginginfo>
						<labels>
							<label2>Iris</label2>
						</labels>
					</clipitem>
					<clipitem id="clipitem-1170" frameBlend="FALSE">
						<masterclipid>masterclip-347</masterclipid>
						<name>AA3219</name>
						<enabled>TRUE</enabled>
						<duration>528</duration>
						<rate>
							<timebase>25</timebase>
							<ntsc>FALSE</ntsc>
						</rate>
						<start>14644</start>
						<end>14676</end>
						<in>349</in>
						<out>381</out>
						<pproTicksIn>3546063360000</pproTicksIn>
						<pproTicksOut>3871203840000</pproTicksOut>
						<alphatype>none</alphatype>
						<file id="file-332"/>
						<logginginfo>
							<description></description>
							<scene></scene>
							<shottake>AA3219</shottake>
							<lognote></lognote>
						</logginginfo>
						<labels>
							<label2>Iris</label2>
						</labels>
					</clipitem>
					<clipitem id="clipitem-1171" frameBlend="FALSE">
						<masterclipid>masterclip-345</masterclipid>
						<name>N42A0925.MOVMulticam</name>
						<enabled>TRUE</enabled>
						<duration>8736</duration>
						<rate>
							<timebase>25</timebase>
							<ntsc>FALSE</ntsc>
						</rate>
						<start>14676</start>
						<end>14774</end>
						<in>7776</in>
						<out>7874</out>
						<pproTicksIn>79009136640000</pproTicksIn>
						<pproTicksOut>80004879360000</pproTicksOut>
						<sequence id="sequence-69"/>
						<link>
							<linkclipref>clipitem-1171</linkclipref>
							<mediatype>video</mediatype>
							<trackindex>1</trackindex>
							<clipindex>171</clipindex>
						</link>
						<link>
							<linkclipref>clipitem-1288</linkclipref>
							<mediatype>audio</mediatype>
							<trackindex>1</trackindex>
							<clipindex>74</clipindex>
						</link>
						<link>
							<linkclipref>clipitem-1351</linkclipref>
							<mediatype>audio</mediatype>
							<trackindex>2</trackindex>
							<clipindex>62</clipindex>
						</link>
						<labels>
							<label2>Forest</label2>
						</labels>
					</clipitem>
					<clipitem id="clipitem-1172" frameBlend="FALSE">
						<masterclipid>masterclip-345</masterclipid>
						<name>N42A0925.MOVMulticam</name>
						<enabled>TRUE</enabled>
						<duration>8736</duration>
						<rate>
							<timebase>25</timebase>
							<ntsc>FALSE</ntsc>
						</rate>
						<start>14774</start>
						<end>14802</end>
						<in>7874</in>
						<out>7902</out>
						<pproTicksIn>80004879360000</pproTicksIn>
						<pproTicksOut>80289377280000</pproTicksOut>
						<sequence id="sequence-68"/>
						<labels>
							<label2>Forest</label2>
						</labels>
					</clipitem>
					<clipitem id="clipitem-1173" frameBlend="FALSE">
						<masterclipid>masterclip-353</masterclipid>
						<name>AA3121</name>
						<enabled>TRUE</enabled>
						<duration>3000</duration>
						<rate>
							<timebase>25</timebase>
							<ntsc>FALSE</ntsc>
						</rate>
						<start>14802</start>
						<end>14886</end>
						<in>897</in>
						<out>981</out>
						<pproTicksIn>9114094080000</pproTicksIn>
						<pproTicksOut>9967587840000</pproTicksOut>
						<alphatype>none</alphatype>
						<pixelaspectratio>square</pixelaspectratio>
						<anamorphic>FALSE</anamorphic>
						<file id="file-338">
							<name>AA3121</name>
							<pathurl>file://localhost/Volumes/Brakka/AdobeLager/Katta/Katta-16xxxx-Klimabloffen-Chris/02-Video/Felles/Dora%201/CONTENTS/CLIPS001/AA3121/AA312101.MXF</pathurl>
							<rate>
								<timebase>25</timebase>
								<ntsc>FALSE</ntsc>
							</rate>
							<duration>3000</duration>
							<timecode>
								<rate>
									<timebase>25</timebase>
									<ntsc>FALSE</ntsc>
								</rate>
								<string>00:19:14:10</string>
								<frame>28860</frame>
								<displayformat>NDF</displayformat>
								<reel>
									<name></name>
								</reel>
							</timecode>
							<media>
								<video>
									<samplecharacteristics>
										<rate>
											<timebase>25</timebase>
											<ntsc>FALSE</ntsc>
										</rate>
										<width>1920</width>
										<height>1080</height>
										<anamorphic>FALSE</anamorphic>
										<pixelaspectratio>square</pixelaspectratio>
										<fielddominance>none</fielddominance>
									</samplecharacteristics>
								</video>
								<audio>
									<samplecharacteristics>
										<depth>16</depth>
										<samplerate>48000</samplerate>
									</samplecharacteristics>
									<channelcount>1</channelcount>
									<layout>stereo</layout>
									<audiochannel>
										<sourcechannel>1</sourcechannel>
										<channellabel>left</channellabel>
									</audiochannel>
								</audio>
								<audio>
									<samplecharacteristics>
										<depth>16</depth>
										<samplerate>48000</samplerate>
									</samplecharacteristics>
									<channelcount>1</channelcount>
									<layout>stereo</layout>
									<audiochannel>
										<sourcechannel>2</sourcechannel>
										<channellabel>right</channellabel>
									</audiochannel>
								</audio>
							</media>
						</file>
						<link>
							<linkclipref>clipitem-1173</linkclipref>
							<mediatype>video</mediatype>
							<trackindex>1</trackindex>
							<clipindex>173</clipindex>
						</link>
						<link>
							<linkclipref>clipitem-1289</linkclipref>
							<mediatype>audio</mediatype>
							<trackindex>1</trackindex>
							<clipindex>75</clipindex>
						</link>
						<logginginfo>
							<description></description>
							<scene></scene>
							<shottake>AA3121</shottake>
							<lognote></lognote>
						</logginginfo>
						<labels>
							<label2>Iris</label2>
						</labels>
					</clipitem>
					<clipitem id="clipitem-1174" frameBlend="FALSE">
						<masterclipid>masterclip-354</masterclipid>
						<name>AA3125</name>
						<enabled>TRUE</enabled>
						<duration>2868</duration>
						<rate>
							<timebase>25</timebase>
							<ntsc>FALSE</ntsc>
						</rate>
						<start>14886</start>
						<end>15229</end>
						<in>2207</in>
						<out>2550</out>
						<pproTicksIn>22424532480000</pproTicksIn>
						<pproTicksOut>25909632000000</pproTicksOut>
						<alphatype>none</alphatype>
						<pixelaspectratio>square</pixelaspectratio>
						<anamorphic>FALSE</anamorphic>
						<file id="file-339">
							<name>AA3125</name>
							<pathurl>file://localhost/Volumes/Brakka/AdobeLager/Katta/Katta-16xxxx-Klimabloffen-Chris/02-Video/Felles/Dora%201/CONTENTS/CLIPS001/AA3125/AA312501.MXF</pathurl>
							<rate>
								<timebase>25</timebase>
								<ntsc>FALSE</ntsc>
							</rate>
							<duration>2868</duration>
							<timecode>
								<rate>
									<timebase>25</timebase>
									<ntsc>FALSE</ntsc>
								</rate>
								<string>00:28:30:06</string>
								<frame>42756</frame>
								<displayformat>NDF</displayformat>
								<reel>
									<name></name>
								</reel>
							</timecode>
							<media>
								<video>
									<samplecharacteristics>
										<rate>
											<timebase>25</timebase>
											<ntsc>FALSE</ntsc>
										</rate>
										<width>1920</width>
										<height>1080</height>
										<anamorphic>FALSE</anamorphic>
										<pixelaspectratio>square</pixelaspectratio>
										<fielddominance>none</fielddominance>
									</samplecharacteristics>
								</video>
								<audio>
									<samplecharacteristics>
										<depth>16</depth>
										<samplerate>48000</samplerate>
									</samplecharacteristics>
									<channelcount>1</channelcount>
									<layout>stereo</layout>
									<audiochannel>
										<sourcechannel>1</sourcechannel>
										<channellabel>left</channellabel>
									</audiochannel>
								</audio>
								<audio>
									<samplecharacteristics>
										<depth>16</depth>
										<samplerate>48000</samplerate>
									</samplecharacteristics>
									<channelcount>1</channelcount>
									<layout>stereo</layout>
									<audiochannel>
										<sourcechannel>2</sourcechannel>
										<channellabel>right</channellabel>
									</audiochannel>
								</audio>
							</media>
						</file>
						<logginginfo>
							<description></description>
							<scene></scene>
							<shottake>AA3125</shottake>
							<lognote></lognote>
						</logginginfo>
						<labels>
							<label2>Iris</label2>
						</labels>
					</clipitem>
					<clipitem id="clipitem-1175" frameBlend="FALSE">
						<masterclipid>masterclip-355</masterclipid>
						<name>AA3138</name>
						<enabled>TRUE</enabled>
						<duration>2112</duration>
						<rate>
							<timebase>25</timebase>
							<ntsc>FALSE</ntsc>
						</rate>
						<start>15229</start>
						<end>15396</end>
						<in>1768</in>
						<out>1935</out>
						<pproTicksIn>17964011520000</pproTicksIn>
						<pproTicksOut>19660838400000</pproTicksOut>
						<alphatype>none</alphatype>
						<pixelaspectratio>square</pixelaspectratio>
						<anamorphic>FALSE</anamorphic>
						<file id="file-340">
							<name>AA3138</name>
							<pathurl>file://localhost/Volumes/Brakka/AdobeLager/Katta/Katta-16xxxx-Klimabloffen-Chris/02-Video/Tomat/gr%c3%b8nnsaksbonde/CONTENTS/CLIPS001/AA3138/AA313801.MXF</pathurl>
							<rate>
								<timebase>25</timebase>
								<ntsc>FALSE</ntsc>
							</rate>
							<duration>2112</duration>
							<timecode>
								<rate>
									<timebase>25</timebase>
									<ntsc>FALSE</ntsc>
								</rate>
								<string>04:45:36:17</string>
								<frame>428417</frame>
								<displayformat>NDF</displayformat>
								<reel>
									<name></name>
								</reel>
							</timecode>
							<media>
								<video>
									<samplecharacteristics>
										<rate>
											<timebase>25</timebase>
											<ntsc>FALSE</ntsc>
										</rate>
										<width>1920</width>
										<height>1080</height>
										<anamorphic>FALSE</anamorphic>
										<pixelaspectratio>square</pixelaspectratio>
										<fielddominance>upper</fielddominance>
									</samplecharacteristics>
								</video>
								<audio>
									<samplecharacteristics>
										<depth>16</depth>
										<samplerate>48000</samplerate>
									</samplecharacteristics>
									<channelcount>1</channelcount>
									<layout>stereo</layout>
									<audiochannel>
										<sourcechannel>1</sourcechannel>
										<channellabel>left</channellabel>
									</audiochannel>
								</audio>
								<audio>
									<samplecharacteristics>
										<depth>16</depth>
										<samplerate>48000</samplerate>
									</samplecharacteristics>
									<channelcount>1</channelcount>
									<layout>stereo</layout>
									<audiochannel>
										<sourcechannel>2</sourcechannel>
										<channellabel>right</channellabel>
									</audiochannel>
								</audio>
							</media>
						</file>
						<logginginfo>
							<description></description>
							<scene></scene>
							<shottake>AA3138</shottake>
							<lognote></lognote>
						</logginginfo>
						<labels>
							<label2>Iris</label2>
						</labels>
					</clipitem>
					<enabled>TRUE</enabled>
					<locked>FALSE</locked>
				</track>
				<track TL.SQTrackShy="0" TL.SQTrackExpandedHeight="30" TL.SQTrackExpanded="1" MZ.TrackTargeted="1">
					<clipitem id="clipitem-1176" frameBlend="FALSE">
						<masterclipid>masterclip-276</masterclipid>
						<name>AA3126</name>
						<enabled>TRUE</enabled>
						<duration>3192</duration>
						<rate>
							<timebase>25</timebase>
							<ntsc>FALSE</ntsc>
						</rate>
						<start>2362</start>
						<end>2480</end>
						<in>2851</in>
						<out>2969</out>
						<pproTicksIn>28967984640000</pproTicksIn>
						<pproTicksOut>30166940160000</pproTicksOut>
						<alphatype>none</alphatype>
						<file id="file-266"/>
							<filter>
								<effect>
									<name>Crop</name>
									<effectid>crop</effectid>
									<effectcategory>motion</effectcategory>
									<effecttype>motion</effecttype>
									<mediatype>video</mediatype>
									<parameter authoringApp="PremierePro">
										<parameterid>left</parameterid>
										<name>left</name>
										<valuemin>0</valuemin>
										<valuemax>100</valuemax>
										<value>0</value>
									</parameter>
									<parameter authoringApp="PremierePro">
										<parameterid>right</parameterid>
										<name>right</name>
										<valuemin>0</valuemin>
										<valuemax>100</valuemax>
										<value>30.8824</value>
									</parameter>
									<parameter authoringApp="PremierePro">
										<parameterid>top</parameterid>
										<name>top</name>
										<valuemin>0</valuemin>
										<valuemax>100</valuemax>
										<value>0</value>
									</parameter>
									<parameter authoringApp="PremierePro">
										<parameterid>bottom</parameterid>
										<name>bottom</name>
										<valuemin>0</valuemin>
										<valuemax>100</valuemax>
										<value>0</value>
									</parameter>
								</effect>
							</filter>
						<logginginfo>
							<description></description>
							<scene></scene>
							<shottake>AA3126</shottake>
							<lognote></lognote>
						</logginginfo>
						<labels>
							<label2>Iris</label2>
						</labels>
					</clipitem>
					<enabled>TRUE</enabled>
					<locked>FALSE</locked>
				</track>
				<track TL.SQTrackShy="0" TL.SQTrackExpandedHeight="30" TL.SQTrackExpanded="1" MZ.TrackTargeted="1">
					<enabled>TRUE</enabled>
					<locked>FALSE</locked>
				</track>
				<track TL.SQTrackShy="0" TL.SQTrackExpandedHeight="30" TL.SQTrackExpanded="1" MZ.TrackTargeted="1">
					<clipitem id="clipitem-1177" frameBlend="FALSE">
						<masterclipid>masterclip-356</masterclipid>
						<name>chris</name>
						<enabled>TRUE</enabled>
						<duration>150</duration>
						<rate>
							<timebase>25</timebase>
							<ntsc>FALSE</ntsc>
						</rate>
						<start>371</start>
						<end>-1</end>
						<in>0</in>
						<out>145</out>
						<pproTicksIn>0</pproTicksIn>
						<pproTicksOut>1473292800000</pproTicksOut>
						<alphatype>straight</alphatype>
						<pixelaspectratio>square</pixelaspectratio>
						<anamorphic>FALSE</anamorphic>
						<file id="file-341">
							<name>super oppe/KattaSuper.aep</name>
							<pathurl>file://localhost/Volumes/Brakka/TekniskDrift/PostHaste/Templates/Adobe/Katta-mal.pht/Files/09-Super/KattaSuper.aep</pathurl>
							<rate>
								<timebase>25</timebase>
								<ntsc>FALSE</ntsc>
							</rate>
							<duration>150</duration>
							<timecode>
								<rate>
									<timebase>25</timebase>
									<ntsc>FALSE</ntsc>
								</rate>
								<string>00:00:00:00</string>
								<frame>0</frame>
								<displayformat>NDF</displayformat>
								<reel>
									<name></name>
								</reel>
							</timecode>
							<media>
								<video>
									<samplecharacteristics>
										<rate>
											<timebase>25</timebase>
											<ntsc>FALSE</ntsc>
										</rate>
										<width>1920</width>
										<height>1080</height>
										<anamorphic>FALSE</anamorphic>
										<pixelaspectratio>square</pixelaspectratio>
										<fielddominance>lower</fielddominance>
									</samplecharacteristics>
								</video>
							</media>
						</file>
						<logginginfo>
							<description></description>
							<scene></scene>
							<shottake></shottake>
							<lognote></lognote>
						</logginginfo>
						<labels>
							<label2>Rose</label2>
						</labels>
					</clipitem>
					<transitionitem>
						<start>504</start>
						<end>516</end>
						<alignment>end-black</alignment>
						<cutPoint>12</cutPoint>
						<rate>
							<timebase>25</timebase>
							<ntsc>FALSE</ntsc>
						</rate>
						<effect>
							<name>Cross Dissolve</name>
							<effectid>Cross Dissolve</effectid>
							<effectcategory>Dissolve</effectcategory>
							<effecttype>transition</effecttype>
							<mediatype>video</mediatype>
							<wipecode>0</wipecode>
							<wipeaccuracy>100</wipeaccuracy>
							<startratio>0</startratio>
							<endratio>1</endratio>
							<reverse>FALSE</reverse>
						</effect>
					</transitionitem>
					<clipitem id="clipitem-1178" frameBlend="FALSE">
						<masterclipid>masterclip-357</masterclipid>
						<name>Klimabløffen</name>
						<enabled>TRUE</enabled>
						<duration>1080000</duration>
						<rate>
							<timebase>25</timebase>
							<ntsc>FALSE</ntsc>
						</rate>
						<start>516</start>
						<end>557</end>
						<in>89985</in>
						<out>90026</out>
						<pproTicksIn>914305190400000</pproTicksIn>
						<pproTicksOut>914721776640000</pproTicksOut>
						<alphatype>straight</alphatype>
						<pixelaspectratio>square</pixelaspectratio>
						<anamorphic>FALSE</anamorphic>
						<file id="file-342">
							<name>Klimabløffen</name>
							<mediaSource>Slug</mediaSource>
							<rate>
								<timebase>30</timebase>
								<ntsc>TRUE</ntsc>
							</rate>
							<timecode>
								<rate>
									<timebase>30</timebase>
									<ntsc>TRUE</ntsc>
								</rate>
								<string>00;00;00;00</string>
								<frame>0</frame>
								<displayformat>DF</displayformat>
								<reel>
									<name></name>
								</reel>
							</timecode>
							<media>
								<video>
									<samplecharacteristics>
										<rate>
											<timebase>30</timebase>
											<ntsc>TRUE</ntsc>
										</rate>
										<width>1920</width>
										<height>1080</height>
										<anamorphic>FALSE</anamorphic>
										<pixelaspectratio>square</pixelaspectratio>
										<fielddominance>none</fielddominance>
									</samplecharacteristics>
								</video>
							</media>
						</file>
						<logginginfo>
							<description></description>
							<scene></scene>
							<shottake></shottake>
							<lognote></lognote>
						</logginginfo>
						<labels>
							<label2>Lavender</label2>
						</labels>
					</clipitem>
					<clipitem id="clipitem-1179" frameBlend="FALSE">
						<masterclipid>masterclip-358</masterclipid>
						<name>Kortreist</name>
						<enabled>TRUE</enabled>
						<duration>1080000</duration>
						<rate>
							<timebase>25</timebase>
							<ntsc>FALSE</ntsc>
						</rate>
						<start>643</start>
						<end>720</end>
						<in>90003</in>
						<out>90080</out>
						<pproTicksIn>914488081920000</pproTicksIn>
						<pproTicksOut>915270451200000</pproTicksOut>
						<alphatype>straight</alphatype>
						<pixelaspectratio>square</pixelaspectratio>
						<anamorphic>FALSE</anamorphic>
						<file id="file-343">
							<name>Kortreist</name>
							<mediaSource>Slug</mediaSource>
							<rate>
								<timebase>30</timebase>
								<ntsc>TRUE</ntsc>
							</rate>
							<timecode>
								<rate>
									<timebase>30</timebase>
									<ntsc>TRUE</ntsc>
								</rate>
								<string>00;00;00;00</string>
								<frame>0</frame>
								<displayformat>DF</displayformat>
								<reel>
									<name></name>
								</reel>
							</timecode>
							<media>
								<video>
									<samplecharacteristics>
										<rate>
											<timebase>30</timebase>
											<ntsc>TRUE</ntsc>
										</rate>
										<width>1920</width>
										<height>1080</height>
										<anamorphic>FALSE</anamorphic>
										<pixelaspectratio>square</pixelaspectratio>
										<fielddominance>none</fielddominance>
									</samplecharacteristics>
								</video>
							</media>
						</file>
						<logginginfo>
							<description></description>
							<scene></scene>
							<shottake></shottake>
							<lognote></lognote>
						</logginginfo>
						<labels>
							<label2>Lavender</label2>
						</labels>
					</clipitem>
					<clipitem id="clipitem-1180" frameBlend="FALSE">
						<masterclipid>masterclip-359</masterclipid>
						<name>togradersmaalet alpha.mov</name>
						<enabled>TRUE</enabled>
						<duration>1650</duration>
						<rate>
							<timebase>25</timebase>
							<ntsc>FALSE</ntsc>
						</rate>
						<start>1605</start>
						<end>3042</end>
						<in>213</in>
						<out>1650</out>
						<pproTicksIn>2164216320000</pproTicksIn>
						<pproTicksOut>16765056000000</pproTicksOut>
						<alphatype>straight</alphatype>
						<pixelaspectratio>square</pixelaspectratio>
						<anamorphic>FALSE</anamorphic>
						<file id="file-344">
							<name>togradersmaalet alpha.mov</name>
							<pathurl>file://localhost/Volumes/Brakka/AdobeLager/Katta/Katta-16xxxx-Klimabloffen-Chris/04-Grafikk/togradersmaalet%20alpha.mov</pathurl>
							<rate>
								<timebase>25</timebase>
								<ntsc>FALSE</ntsc>
							</rate>
							<duration>1650</duration>
							<timecode>
								<rate>
									<timebase>25</timebase>
									<ntsc>FALSE</ntsc>
								</rate>
								<string>00:00:00:00</string>
								<frame>0</frame>
								<displayformat>NDF</displayformat>
								<reel>
									<name></name>
								</reel>
							</timecode>
							<media>
								<video>
									<samplecharacteristics>
										<rate>
											<timebase>25</timebase>
											<ntsc>FALSE</ntsc>
										</rate>
										<width>1920</width>
										<height>1080</height>
										<anamorphic>FALSE</anamorphic>
										<pixelaspectratio>square</pixelaspectratio>
										<fielddominance>upper</fielddominance>
									</samplecharacteristics>
								</video>
								<audio>
									<samplecharacteristics>
										<depth>16</depth>
										<samplerate>48000</samplerate>
									</samplecharacteristics>
									<channelcount>2</channelcount>
								</audio>
							</media>
						</file>
						<logginginfo>
							<description></description>
							<scene></scene>
							<shottake></shottake>
							<lognote></lognote>
						</logginginfo>
						<labels>
							<label2>Iris</label2>
						</labels>
					</clipitem>
					<clipitem id="clipitem-1181" frameBlend="FALSE">
						<masterclipid>masterclip-360</masterclipid>
						<name>Roard</name>
						<enabled>TRUE</enabled>
						<duration>150</duration>
						<rate>
							<timebase>25</timebase>
							<ntsc>FALSE</ntsc>
						</rate>
						<start>3698</start>
						<end>-1</end>
						<in>0</in>
						<out>133</out>
						<pproTicksIn>0</pproTicksIn>
						<pproTicksOut>1351365120000</pproTicksOut>
						<alphatype>straight</alphatype>
						<pixelaspectratio>square</pixelaspectratio>
						<anamorphic>FALSE</anamorphic>
						<file id="file-345">
							<name>super oppe/KattaSuper.aep</name>
							<pathurl>file://localhost/Volumes/Brakka/TekniskDrift/PostHaste/Templates/Adobe/Katta-mal.pht/Files/09-Super/KattaSuper.aep</pathurl>
							<rate>
								<timebase>25</timebase>
								<ntsc>FALSE</ntsc>
							</rate>
							<duration>150</duration>
							<timecode>
								<rate>
									<timebase>25</timebase>
									<ntsc>FALSE</ntsc>
								</rate>
								<string>00:00:00:00</string>
								<frame>0</frame>
								<displayformat>NDF</displayformat>
								<reel>
									<name></name>
								</reel>
							</timecode>
							<media>
								<video>
									<samplecharacteristics>
										<rate>
											<timebase>25</timebase>
											<ntsc>FALSE</ntsc>
										</rate>
										<width>1920</width>
										<height>1080</height>
										<anamorphic>FALSE</anamorphic>
										<pixelaspectratio>square</pixelaspectratio>
										<fielddominance>lower</fielddominance>
									</samplecharacteristics>
								</video>
							</media>
						</file>
						<logginginfo>
							<description></description>
							<scene></scene>
							<shottake></shottake>
							<lognote></lognote>
						</logginginfo>
						<labels>
							<label2>Rose</label2>
						</labels>
					</clipitem>
					<transitionitem>
						<start>3819</start>
						<end>3831</end>
						<alignment>end-black</alignment>
						<cutPoint>12</cutPoint>
						<rate>
							<timebase>25</timebase>
							<ntsc>FALSE</ntsc>
						</rate>
						<effect>
							<name>Cross Dissolve</name>
							<effectid>Cross Dissolve</effectid>
							<effectcategory>Dissolve</effectcategory>
							<effecttype>transition</effecttype>
							<mediatype>video</mediatype>
							<wipecode>0</wipecode>
							<wipeaccuracy>100</wipeaccuracy>
							<startratio>0</startratio>
							<endratio>1</endratio>
							<reverse>FALSE</reverse>
						</effect>
					</transitionitem>
					<clipitem id="clipitem-1182" frameBlend="FALSE">
						<masterclipid>masterclip-361</masterclipid>
						<name>christian</name>
						<enabled>TRUE</enabled>
						<duration>150</duration>
						<rate>
							<timebase>25</timebase>
							<ntsc>FALSE</ntsc>
						</rate>
						<start>5061</start>
						<end>-1</end>
						<in>0</in>
						<out>150</out>
						<pproTicksIn>0</pproTicksIn>
						<pproTicksOut>1524096000000</pproTicksOut>
						<alphatype>straight</alphatype>
						<pixelaspectratio>square</pixelaspectratio>
						<anamorphic>FALSE</anamorphic>
						<file id="file-346">
							<name>super oppe/KattaSuper.aep</name>
							<pathurl>file://localhost/Volumes/Brakka/TekniskDrift/PostHaste/Templates/Adobe/Katta-mal.pht/Files/09-Super/KattaSuper.aep</pathurl>
							<rate>
								<timebase>25</timebase>
								<ntsc>FALSE</ntsc>
							</rate>
							<duration>150</duration>
							<timecode>
								<rate>
									<timebase>25</timebase>
									<ntsc>FALSE</ntsc>
								</rate>
								<string>00:00:00:00</string>
								<frame>0</frame>
								<displayformat>NDF</displayformat>
								<reel>
									<name></name>
								</reel>
							</timecode>
							<media>
								<video>
									<samplecharacteristics>
										<rate>
											<timebase>25</timebase>
											<ntsc>FALSE</ntsc>
										</rate>
										<width>1920</width>
										<height>1080</height>
										<anamorphic>FALSE</anamorphic>
										<pixelaspectratio>square</pixelaspectratio>
										<fielddominance>lower</fielddominance>
									</samplecharacteristics>
								</video>
							</media>
						</file>
						<logginginfo>
							<description></description>
							<scene></scene>
							<shottake></shottake>
							<lognote></lognote>
						</logginginfo>
						<labels>
							<label2>Rose</label2>
						</labels>
					</clipitem>
					<transitionitem>
						<start>5199</start>
						<end>5211</end>
						<alignment>end-black</alignment>
						<cutPoint>12</cutPoint>
						<rate>
							<timebase>25</timebase>
							<ntsc>FALSE</ntsc>
						</rate>
						<effect>
							<name>Cross Dissolve</name>
							<effectid>Cross Dissolve</effectid>
							<effectcategory>Dissolve</effectcategory>
							<effecttype>transition</effecttype>
							<mediatype>video</mediatype>
							<wipecode>0</wipecode>
							<wipeaccuracy>100</wipeaccuracy>
							<startratio>0</startratio>
							<endratio>1</endratio>
							<reverse>FALSE</reverse>
						</effect>
					</transitionitem>
					<clipitem id="clipitem-1183" frameBlend="FALSE">
						<masterclipid>masterclip-362</masterclipid>
						<name>bjørn</name>
						<enabled>TRUE</enabled>
						<duration>150</duration>
						<rate>
							<timebase>25</timebase>
							<ntsc>FALSE</ntsc>
						</rate>
						<start>8802</start>
						<end>-1</end>
						<in>0</in>
						<out>150</out>
						<pproTicksIn>0</pproTicksIn>
						<pproTicksOut>1524096000000</pproTicksOut>
						<alphatype>straight</alphatype>
						<pixelaspectratio>square</pixelaspectratio>
						<anamorphic>FALSE</anamorphic>
						<file id="file-347">
							<name>super oppe/KattaSuper.aep</name>
							<pathurl>file://localhost/Volumes/Brakka/TekniskDrift/PostHaste/Templates/Adobe/Katta-mal.pht/Files/09-Super/KattaSuper.aep</pathurl>
							<rate>
								<timebase>25</timebase>
								<ntsc>FALSE</ntsc>
							</rate>
							<duration>150</duration>
							<timecode>
								<rate>
									<timebase>25</timebase>
									<ntsc>FALSE</ntsc>
								</rate>
								<string>00:00:00:00</string>
								<frame>0</frame>
								<displayformat>NDF</displayformat>
								<reel>
									<name></name>
								</reel>
							</timecode>
							<media>
								<video>
									<samplecharacteristics>
										<rate>
											<timebase>25</timebase>
											<ntsc>FALSE</ntsc>
										</rate>
										<width>1920</width>
										<height>1080</height>
										<anamorphic>FALSE</anamorphic>
										<pixelaspectratio>square</pixelaspectratio>
										<fielddominance>lower</fielddominance>
									</samplecharacteristics>
								</video>
							</media>
						</file>
						<logginginfo>
							<description></description>
							<scene></scene>
							<shottake></shottake>
							<lognote></lognote>
						</logginginfo>
						<labels>
							<label2>Rose</label2>
						</labels>
					</clipitem>
					<transitionitem>
						<start>8940</start>
						<end>8952</end>
						<alignment>end-black</alignment>
						<cutPoint>12</cutPoint>
						<rate>
							<timebase>25</timebase>
							<ntsc>FALSE</ntsc>
						</rate>
						<effect>
							<name>Cross Dissolve</name>
							<effectid>Cross Dissolve</effectid>
							<effectcategory>Dissolve</effectcategory>
							<effecttype>transition</effecttype>
							<mediatype>video</mediatype>
							<wipecode>0</wipecode>
							<wipeaccuracy>100</wipeaccuracy>
							<startratio>0</startratio>
							<endratio>1</endratio>
							<reverse>FALSE</reverse>
						</effect>
					</transitionitem>
					<clipitem id="clipitem-1184" frameBlend="FALSE">
						<masterclipid>masterclip-363</masterclipid>
						<name>haakon</name>
						<enabled>TRUE</enabled>
						<duration>150</duration>
						<rate>
							<timebase>25</timebase>
							<ntsc>FALSE</ntsc>
						</rate>
						<start>9471</start>
						<end>-1</end>
						<in>0</in>
						<out>133</out>
						<pproTicksIn>0</pproTicksIn>
						<pproTicksOut>1351365120000</pproTicksOut>
						<alphatype>straight</alphatype>
						<pixelaspectratio>square</pixelaspectratio>
						<anamorphic>FALSE</anamorphic>
						<file id="file-348">
							<name>super oppe/KattaSuper.aep</name>
							<pathurl>file://localhost/Volumes/Brakka/TekniskDrift/PostHaste/Templates/Adobe/Katta-mal.pht/Files/09-Super/KattaSuper.aep</pathurl>
							<rate>
								<timebase>25</timebase>
								<ntsc>FALSE</ntsc>
							</rate>
							<duration>150</duration>
							<timecode>
								<rate>
									<timebase>25</timebase>
									<ntsc>FALSE</ntsc>
								</rate>
								<string>00:00:00:00</string>
								<frame>0</frame>
								<displayformat>NDF</displayformat>
								<reel>
									<name></name>
								</reel>
							</timecode>
							<media>
								<video>
									<samplecharacteristics>
										<rate>
											<timebase>25</timebase>
											<ntsc>FALSE</ntsc>
										</rate>
										<width>1920</width>
										<height>1080</height>
										<anamorphic>FALSE</anamorphic>
										<pixelaspectratio>square</pixelaspectratio>
										<fielddominance>lower</fielddominance>
									</samplecharacteristics>
								</video>
							</media>
						</file>
						<logginginfo>
							<description></description>
							<scene></scene>
							<shottake></shottake>
							<lognote></lognote>
						</logginginfo>
						<labels>
							<label2>Rose</label2>
						</labels>
					</clipitem>
					<transitionitem>
						<start>9592</start>
						<end>9604</end>
						<alignment>end-black</alignment>
						<cutPoint>12</cutPoint>
						<rate>
							<timebase>25</timebase>
							<ntsc>FALSE</ntsc>
						</rate>
						<effect>
							<name>Cross Dissolve</name>
							<effectid>Cross Dissolve</effectid>
							<effectcategory>Dissolve</effectcategory>
							<effecttype>transition</effecttype>
							<mediatype>video</mediatype>
							<wipecode>0</wipecode>
							<wipeaccuracy>100</wipeaccuracy>
							<startratio>0</startratio>
							<endratio>1</endratio>
							<reverse>FALSE</reverse>
						</effect>
					</transitionitem>
					<clipitem id="clipitem-1185" frameBlend="FALSE">
						<masterclipid>masterclip-364</masterclipid>
						<name>anders</name>
						<enabled>TRUE</enabled>
						<duration>150</duration>
						<rate>
							<timebase>25</timebase>
							<ntsc>FALSE</ntsc>
						</rate>
						<start>10676</start>
						<end>-1</end>
						<in>0</in>
						<out>150</out>
						<pproTicksIn>0</pproTicksIn>
						<pproTicksOut>1524096000000</pproTicksOut>
						<alphatype>straight</alphatype>
						<pixelaspectratio>square</pixelaspectratio>
						<anamorphic>FALSE</anamorphic>
						<file id="file-349">
							<name>super oppe/KattaSuper.aep</name>
							<pathurl>file://localhost/Volumes/Brakka/TekniskDrift/PostHaste/Templates/Adobe/Katta-mal.pht/Files/09-Super/KattaSuper.aep</pathurl>
							<rate>
								<timebase>25</timebase>
								<ntsc>FALSE</ntsc>
							</rate>
							<duration>150</duration>
							<timecode>
								<rate>
									<timebase>25</timebase>
									<ntsc>FALSE</ntsc>
								</rate>
								<string>00:00:00:00</string>
								<frame>0</frame>
								<displayformat>NDF</displayformat>
								<reel>
									<name></name>
								</reel>
							</timecode>
							<media>
								<video>
									<samplecharacteristics>
										<rate>
											<timebase>25</timebase>
											<ntsc>FALSE</ntsc>
										</rate>
										<width>1920</width>
										<height>1080</height>
										<anamorphic>FALSE</anamorphic>
										<pixelaspectratio>square</pixelaspectratio>
										<fielddominance>lower</fielddominance>
									</samplecharacteristics>
								</video>
							</media>
						</file>
						<logginginfo>
							<description></description>
							<scene></scene>
							<shottake></shottake>
							<lognote></lognote>
						</logginginfo>
						<labels>
							<label2>Rose</label2>
						</labels>
					</clipitem>
					<transitionitem>
						<start>10813</start>
						<end>10826</end>
						<alignment>end-black</alignment>
						<cutPoint>13</cutPoint>
						<rate>
							<timebase>25</timebase>
							<ntsc>FALSE</ntsc>
						</rate>
						<effect>
							<name>Cross Dissolve</name>
							<effectid>Cross Dissolve</effectid>
							<effectcategory>Dissolve</effectcategory>
							<effecttype>transition</effecttype>
							<mediatype>video</mediatype>
							<wipecode>0</wipecode>
							<wipeaccuracy>100</wipeaccuracy>
							<startratio>0</startratio>
							<endratio>1</endratio>
							<reverse>FALSE</reverse>
						</effect>
					</transitionitem>
					<enabled>TRUE</enabled>
					<locked>FALSE</locked>
				</track>
			</video>
			<audio>
				<numOutputChannels>4</numOutputChannels>
				<format>
					<samplecharacteristics>
						<depth>16</depth>
						<samplerate>48000</samplerate>
					</samplecharacteristics>
				</format>
				<outputs>
					<group>
						<index>1</index>
						<numchannels>1</numchannels>
						<downmix>0</downmix>
						<channel>
							<index>1</index>
						</channel>
					</group>
					<group>
						<index>2</index>
						<numchannels>1</numchannels>
						<downmix>0</downmix>
						<channel>
							<index>2</index>
						</channel>
					</group>
					<group>
						<index>3</index>
						<numchannels>1</numchannels>
						<downmix>0</downmix>
						<channel>
							<index>3</index>
						</channel>
					</group>
					<group>
						<index>4</index>
						<numchannels>1</numchannels>
						<downmix>0</downmix>
						<channel>
							<index>4</index>
						</channel>
					</group>
				</outputs>
				<track monotrack="TRUE" TL.SQTrackAudioKeyframeStyle="0" TL.SQTrackShy="0" TL.SQTrackExpandedHeight="58" TL.SQTrackExpanded="1" MZ.TrackTargeted="1" MZ.TrackName="sync 1 mono" PannerCurrentValue="0.5" PannerIsInverted="true" PannerStartKeyframe="-91445760000000000,0.5,0,0,0,0,0,0" PannerName="Pan" currentExplodedTrackIndex="0" totalExplodedTrackCount="1" premiereTrackType="Mono">
					<clipitem id="clipitem-1186" frameBlend="FALSE" premiereChannelType="mono">
						<masterclipid>masterclip-260</masterclipid>
						<name>AA3151</name>
						<enabled>TRUE</enabled>
						<duration>3864</duration>
						<rate>
							<timebase>25</timebase>
							<ntsc>FALSE</ntsc>
						</rate>
						<start>129</start>
						<end>280</end>
						<in>3437</in>
						<out>3588</out>
						<pproTicksIn>34922119680000</pproTicksIn>
						<pproTicksOut>36456376320000</pproTicksOut>
						<file id="file-250"/>
						<sourcetrack>
							<mediatype>audio</mediatype>
							<trackindex>2</trackindex>
						</sourcetrack>
						<logginginfo>
							<description></description>
							<scene></scene>
							<shottake>AA3151</shottake>
							<lognote></lognote>
						</logginginfo>
						<labels>
							<label2>Iris</label2>
						</labels>
					</clipitem>
					<clipitem id="clipitem-1187" frameBlend="FALSE" premiereChannelType="mono">
						<masterclipid>masterclip-260</masterclipid>
						<name>AA3151</name>
						<enabled>TRUE</enabled>
						<duration>3864</duration>
						<rate>
							<timebase>25</timebase>
							<ntsc>FALSE</ntsc>
						</rate>
						<start>357</start>
						<end>431</end>
						<in>3588</in>
						<out>3662</out>
						<pproTicksIn>36456376320000</pproTicksIn>
						<pproTicksOut>37208263680000</pproTicksOut>
						<file id="file-250"/>
						<sourcetrack>
							<mediatype>audio</mediatype>
							<trackindex>2</trackindex>
						</sourcetrack>
						<link>
							<linkclipref>clipitem-970</linkclipref>
							<mediatype>video</mediatype>
							<trackindex>1</trackindex>
							<clipindex>4</clipindex>
						</link>
						<link>
							<linkclipref>clipitem-1187</linkclipref>
							<mediatype>audio</mediatype>
							<trackindex>1</trackindex>
							<clipindex>2</clipindex>
						</link>
						<logginginfo>
							<description></description>
							<scene></scene>
							<shottake>AA3151</shottake>
							<lognote></lognote>
						</logginginfo>
						<labels>
							<label2>Iris</label2>
						</labels>
					</clipitem>
					<clipitem id="clipitem-1188" frameBlend="FALSE" premiereChannelType="mono">
						<masterclipid>masterclip-260</masterclipid>
						<name>AA3151</name>
						<enabled>TRUE</enabled>
						<duration>3864</duration>
						<rate>
							<timebase>25</timebase>
							<ntsc>FALSE</ntsc>
						</rate>
						<start>431</start>
						<end>516</end>
						<in>3662</in>
						<out>3747</out>
						<pproTicksIn>37208263680000</pproTicksIn>
						<pproTicksOut>38071918080000</pproTicksOut>
						<file id="file-250"/>
						<sourcetrack>
							<mediatype>audio</mediatype>
							<trackindex>2</trackindex>
						</sourcetrack>
						<link>
							<linkclipref>clipitem-971</linkclipref>
							<mediatype>video</mediatype>
							<trackindex>1</trackindex>
							<clipindex>5</clipindex>
						</link>
						<link>
							<linkclipref>clipitem-1188</linkclipref>
							<mediatype>audio</mediatype>
							<trackindex>1</trackindex>
							<clipindex>3</clipindex>
						</link>
						<logginginfo>
							<description></description>
							<scene></scene>
							<shottake>AA3151</shottake>
							<lognote></lognote>
						</logginginfo>
						<labels>
							<label2>Iris</label2>
						</labels>
					</clipitem>
					<clipitem id="clipitem-1189" frameBlend="FALSE" premiereChannelType="mono">
						<masterclipid>masterclip-263</masterclipid>
						<name>AA0115</name>
						<enabled>TRUE</enabled>
						<duration>3432</duration>
						<rate>
							<timebase>25</timebase>
							<ntsc>FALSE</ntsc>
						</rate>
						<start>720</start>
						<end>753</end>
						<in>161</in>
						<out>194</out>
						<pproTicksIn>1635863040000</pproTicksIn>
						<pproTicksOut>1971164160000</pproTicksOut>
						<file id="file-253"/>
						<sourcetrack>
							<mediatype>audio</mediatype>
							<trackindex>1</trackindex>
						</sourcetrack>
						<link>
							<linkclipref>clipitem-975</linkclipref>
							<mediatype>video</mediatype>
							<trackindex>1</trackindex>
							<clipindex>9</clipindex>
						</link>
						<link>
							<linkclipref>clipitem-1189</linkclipref>
							<mediatype>audio</mediatype>
							<trackindex>1</trackindex>
							<clipindex>4</clipindex>
						</link>
						<link>
							<linkclipref>clipitem-1291</linkclipref>
							<mediatype>audio</mediatype>
							<trackindex>2</trackindex>
							<clipindex>1</clipindex>
						</link>
						<logginginfo>
							<description></description>
							<scene></scene>
							<shottake>AA0115</shottake>
							<lognote></lognote>
						</logginginfo>
						<labels>
							<label2>Iris</label2>
						</labels>
					</clipitem>
					<clipitem id="clipitem-1190" frameBlend="FALSE" premiereChannelType="mono">
						<masterclipid>masterclip-263</masterclipid>
						<name>AA0115</name>
						<enabled>TRUE</enabled>
						<duration>3432</duration>
						<rate>
							<timebase>25</timebase>
							<ntsc>FALSE</ntsc>
						</rate>
						<start>753</start>
						<end>855</end>
						<in>235</in>
						<out>337</out>
						<pproTicksIn>2387750400000</pproTicksIn>
						<pproTicksOut>3424135680000</pproTicksOut>
						<file id="file-253"/>
						<sourcetrack>
							<mediatype>audio</mediatype>
							<trackindex>1</trackindex>
						</sourcetrack>
						<link>
							<linkclipref>clipitem-976</linkclipref>
							<mediatype>video</mediatype>
							<trackindex>1</trackindex>
							<clipindex>10</clipindex>
						</link>
						<link>
							<linkclipref>clipitem-1190</linkclipref>
							<mediatype>audio</mediatype>
							<trackindex>1</trackindex>
							<clipindex>5</clipindex>
						</link>
						<link>
							<linkclipref>clipitem-1292</linkclipref>
							<mediatype>audio</mediatype>
							<trackindex>2</trackindex>
							<clipindex>2</clipindex>
						</link>
						<logginginfo>
							<description></description>
							<scene></scene>
							<shottake>AA0115</shottake>
							<lognote></lognote>
						</logginginfo>
						<labels>
							<label2>Iris</label2>
						</labels>
					</clipitem>
					<clipitem id="clipitem-1191" frameBlend="FALSE" premiereChannelType="mono">
						<masterclipid>masterclip-264</masterclipid>
						<name>AA0137</name>
						<enabled>TRUE</enabled>
						<duration>6756</duration>
						<rate>
							<timebase>25</timebase>
							<ntsc>FALSE</ntsc>
						</rate>
						<start>855</start>
						<end>989</end>
						<in>1518</in>
						<out>1652</out>
						<pproTicksIn>15423851520000</pproTicksIn>
						<pproTicksOut>16785377280000</pproTicksOut>
						<file id="file-254"/>
						<sourcetrack>
							<mediatype>audio</mediatype>
							<trackindex>2</trackindex>
						</sourcetrack>
						<link>
							<linkclipref>clipitem-977</linkclipref>
							<mediatype>video</mediatype>
							<trackindex>1</trackindex>
							<clipindex>11</clipindex>
						</link>
						<link>
							<linkclipref>clipitem-1191</linkclipref>
							<mediatype>audio</mediatype>
							<trackindex>1</trackindex>
							<clipindex>6</clipindex>
						</link>
						<logginginfo>
							<description></description>
							<scene></scene>
							<shottake>AA0137</shottake>
							<lognote></lognote>
						</logginginfo>
						<labels>
							<label2>Iris</label2>
						</labels>
					</clipitem>
					<clipitem id="clipitem-1192" frameBlend="FALSE" premiereChannelType="mono">
						<masterclipid>masterclip-266</masterclipid>
						<name>AA0139</name>
						<enabled>TRUE</enabled>
						<duration>4284</duration>
						<rate>
							<timebase>25</timebase>
							<ntsc>FALSE</ntsc>
						</rate>
						<start>989</start>
						<end>1013</end>
						<in>402</in>
						<out>426</out>
						<pproTicksIn>4084577280000</pproTicksIn>
						<pproTicksOut>4328432640000</pproTicksOut>
						<file id="file-256"/>
						<sourcetrack>
							<mediatype>audio</mediatype>
							<trackindex>2</trackindex>
						</sourcetrack>
						<link>
							<linkclipref>clipitem-980</linkclipref>
							<mediatype>video</mediatype>
							<trackindex>1</trackindex>
							<clipindex>14</clipindex>
						</link>
						<link>
							<linkclipref>clipitem-1192</linkclipref>
							<mediatype>audio</mediatype>
							<trackindex>1</trackindex>
							<clipindex>7</clipindex>
						</link>
						<logginginfo>
							<description></description>
							<scene></scene>
							<shottake>AA0139</shottake>
							<lognote></lognote>
						</logginginfo>
						<labels>
							<label2>Iris</label2>
						</labels>
					</clipitem>
					<clipitem id="clipitem-1193" frameBlend="FALSE" premiereChannelType="mono">
						<masterclipid>masterclip-263</masterclipid>
						<name>AA0115</name>
						<enabled>TRUE</enabled>
						<duration>3432</duration>
						<rate>
							<timebase>25</timebase>
							<ntsc>FALSE</ntsc>
						</rate>
						<start>1013</start>
						<end>1072</end>
						<in>912</in>
						<out>971</out>
						<pproTicksIn>9266503680000</pproTicksIn>
						<pproTicksOut>9865981440000</pproTicksOut>
						<file id="file-253"/>
						<sourcetrack>
							<mediatype>audio</mediatype>
							<trackindex>2</trackindex>
						</sourcetrack>
							<filter>
								<effect>
									<name>Gain</name>
									<effectid>{61756678, 4761696e, 4b657947}</effectid>
									<effecttype>filter</effecttype>
									<mediatype>audio</mediatype>
									<parameter authoringApp="PremierePro">
										<parameterid>Gain(dB)</parameterid>
										<name>Gain(dB)</name>
										<valuemin>-96</valuemin>
										<valuemax>96</valuemax>
										<value>12.7053</value>
									</parameter>
								</effect>
							</filter>
							<filter>
								<effect>
									<name>Audio Levels</name>
									<effectid>audiolevels</effectid>
									<effectcategory>audiolevels</effectcategory>
									<effecttype>audiolevels</effecttype>
									<mediatype>audio</mediatype>
									<parameter authoringApp="PremierePro">
										<parameterid>level</parameterid>
										<name>Level</name>
										<valuemin>0</valuemin>
										<valuemax>3.98109</valuemax>
										<value>0.999999</value>
									</parameter>
								</effect>
							</filter>
						<link>
							<linkclipref>clipitem-982</linkclipref>
							<mediatype>video</mediatype>
							<trackindex>1</trackindex>
							<clipindex>16</clipindex>
						</link>
						<link>
							<linkclipref>clipitem-1193</linkclipref>
							<mediatype>audio</mediatype>
							<trackindex>1</trackindex>
							<clipindex>8</clipindex>
						</link>
						<logginginfo>
							<description></description>
							<scene></scene>
							<shottake>AA0115</shottake>
							<lognote></lognote>
						</logginginfo>
						<labels>
							<label2>Iris</label2>
						</labels>
					</clipitem>
					<clipitem id="clipitem-1194" frameBlend="FALSE" premiereChannelType="mono">
						<masterclipid>masterclip-267</masterclipid>
						<name>AA0113</name>
						<enabled>TRUE</enabled>
						<duration>6996</duration>
						<rate>
							<timebase>25</timebase>
							<ntsc>FALSE</ntsc>
						</rate>
						<start>1072</start>
						<end>1188</end>
						<in>3710</in>
						<out>3826</out>
						<pproTicksIn>37695974400000</pproTicksIn>
						<pproTicksOut>38874608640000</pproTicksOut>
						<file id="file-257"/>
						<sourcetrack>
							<mediatype>audio</mediatype>
							<trackindex>2</trackindex>
						</sourcetrack>
							<filter>
								<effect>
									<name>Gain</name>
									<effectid>{61756678, 4761696e, 4b657947}</effectid>
									<effecttype>filter</effecttype>
									<mediatype>audio</mediatype>
									<parameter authoringApp="PremierePro">
										<parameterid>Gain(dB)</parameterid>
										<name>Gain(dB)</name>
										<valuemin>-96</valuemin>
										<valuemax>96</valuemax>
										<value>12.7053</value>
									</parameter>
								</effect>
							</filter>
							<filter>
								<effect>
									<name>Audio Levels</name>
									<effectid>audiolevels</effectid>
									<effectcategory>audiolevels</effectcategory>
									<effecttype>audiolevels</effecttype>
									<mediatype>audio</mediatype>
									<parameter authoringApp="PremierePro">
										<parameterid>level</parameterid>
										<name>Level</name>
										<valuemin>0</valuemin>
										<valuemax>3.98109</valuemax>
										<value>0.999999</value>
									</parameter>
								</effect>
							</filter>
						<link>
							<linkclipref>clipitem-983</linkclipref>
							<mediatype>video</mediatype>
							<trackindex>1</trackindex>
							<clipindex>17</clipindex>
						</link>
						<link>
							<linkclipref>clipitem-1194</linkclipref>
							<mediatype>audio</mediatype>
							<trackindex>1</trackindex>
							<clipindex>9</clipindex>
						</link>
						<logginginfo>
							<description></description>
							<scene></scene>
							<shottake>AA0113</shottake>
							<lognote></lognote>
						</logginginfo>
						<labels>
							<label2>Iris</label2>
						</labels>
					</clipitem>
					<clipitem id="clipitem-1195" frameBlend="FALSE" premiereChannelType="mono">
						<masterclipid>masterclip-268</masterclipid>
						<name>SC-RO1840-CF-020812-RO_p0.mxf</name>
						<enabled>TRUE</enabled>
						<duration>3342</duration>
						<rate>
							<timebase>25</timebase>
							<ntsc>FALSE</ntsc>
						</rate>
						<start>1188</start>
						<end>1276</end>
						<in>131</in>
						<out>219</out>
						<pproTicksIn>1331043840000</pproTicksIn>
						<pproTicksOut>2225180160000</pproTicksOut>
						<file id="file-258"/>
						<sourcetrack>
							<mediatype>audio</mediatype>
							<trackindex>1</trackindex>
						</sourcetrack>
						<link>
							<linkclipref>clipitem-984</linkclipref>
							<mediatype>video</mediatype>
							<trackindex>1</trackindex>
							<clipindex>18</clipindex>
						</link>
						<link>
							<linkclipref>clipitem-1195</linkclipref>
							<mediatype>audio</mediatype>
							<trackindex>1</trackindex>
							<clipindex>10</clipindex>
						</link>
						<link>
							<linkclipref>clipitem-1293</linkclipref>
							<mediatype>audio</mediatype>
							<trackindex>2</trackindex>
							<clipindex>3</clipindex>
						</link>
						<logginginfo>
							<description></description>
							<scene></scene>
							<shottake></shottake>
							<lognote></lognote>
						</logginginfo>
						<labels>
							<label2>Iris</label2>
						</labels>
					</clipitem>
					<clipitem id="clipitem-1196" frameBlend="FALSE" premiereChannelType="mono">
						<masterclipid>masterclip-269</masterclipid>
						<name>SC-DKMR99091615AA_p0.mxf</name>
						<enabled>TRUE</enabled>
						<duration>3492</duration>
						<rate>
							<timebase>25</timebase>
							<ntsc>FALSE</ntsc>
						</rate>
						<start>1276</start>
						<end>1315</end>
						<in>89</in>
						<out>128</out>
						<pproTicksIn>904296960000</pproTicksIn>
						<pproTicksOut>1300561920000</pproTicksOut>
						<file id="file-259"/>
						<sourcetrack>
							<mediatype>audio</mediatype>
							<trackindex>1</trackindex>
						</sourcetrack>
						<link>
							<linkclipref>clipitem-985</linkclipref>
							<mediatype>video</mediatype>
							<trackindex>1</trackindex>
							<clipindex>19</clipindex>
						</link>
						<link>
							<linkclipref>clipitem-1196</linkclipref>
							<mediatype>audio</mediatype>
							<trackindex>1</trackindex>
							<clipindex>11</clipindex>
						</link>
						<link>
							<linkclipref>clipitem-1294</linkclipref>
							<mediatype>audio</mediatype>
							<trackindex>2</trackindex>
							<clipindex>4</clipindex>
						</link>
						<logginginfo>
							<description></description>
							<scene></scene>
							<shottake></shottake>
							<lognote></lognote>
						</logginginfo>
						<labels>
							<label2>Iris</label2>
						</labels>
					</clipitem>
					<clipitem id="clipitem-1197" frameBlend="FALSE" premiereChannelType="mono">
						<masterclipid>masterclip-270</masterclipid>
						<name>SC-DKNO99010215AA_p0.mxf</name>
						<enabled>TRUE</enabled>
						<duration>4003</duration>
						<rate>
							<timebase>25</timebase>
							<ntsc>FALSE</ntsc>
						</rate>
						<start>1315</start>
						<end>1338</end>
						<in>339</in>
						<out>362</out>
						<pproTicksIn>3444456960000</pproTicksIn>
						<pproTicksOut>3678151680000</pproTicksOut>
						<file id="file-260"/>
						<sourcetrack>
							<mediatype>audio</mediatype>
							<trackindex>1</trackindex>
						</sourcetrack>
						<link>
							<linkclipref>clipitem-986</linkclipref>
							<mediatype>video</mediatype>
							<trackindex>1</trackindex>
							<clipindex>20</clipindex>
						</link>
						<link>
							<linkclipref>clipitem-1197</linkclipref>
							<mediatype>audio</mediatype>
							<trackindex>1</trackindex>
							<clipindex>12</clipindex>
						</link>
						<link>
							<linkclipref>clipitem-1295</linkclipref>
							<mediatype>audio</mediatype>
							<trackindex>2</trackindex>
							<clipindex>5</clipindex>
						</link>
						<logginginfo>
							<description></description>
							<scene></scene>
							<shottake></shottake>
							<lognote></lognote>
						</logginginfo>
						<labels>
							<label2>Iris</label2>
						</labels>
					</clipitem>
					<clipitem id="clipitem-1198" frameBlend="FALSE" premiereChannelType="mono">
						<masterclipid>masterclip-270</masterclipid>
						<name>SC-DKNO99010215AA_p0.mxf</name>
						<enabled>TRUE</enabled>
						<duration>4003</duration>
						<rate>
							<timebase>25</timebase>
							<ntsc>FALSE</ntsc>
						</rate>
						<start>1338</start>
						<end>1352</end>
						<in>1028</in>
						<out>1042</out>
						<pproTicksIn>10445137920000</pproTicksIn>
						<pproTicksOut>10587386880000</pproTicksOut>
						<file id="file-260"/>
						<sourcetrack>
							<mediatype>audio</mediatype>
							<trackindex>1</trackindex>
						</sourcetrack>
						<link>
							<linkclipref>clipitem-987</linkclipref>
							<mediatype>video</mediatype>
							<trackindex>1</trackindex>
							<clipindex>21</clipindex>
						</link>
						<link>
							<linkclipref>clipitem-1198</linkclipref>
							<mediatype>audio</mediatype>
							<trackindex>1</trackindex>
							<clipindex>13</clipindex>
						</link>
						<link>
							<linkclipref>clipitem-1296</linkclipref>
							<mediatype>audio</mediatype>
							<trackindex>2</trackindex>
							<clipindex>6</clipindex>
						</link>
						<logginginfo>
							<description></description>
							<scene></scene>
							<shottake></shottake>
							<lognote></lognote>
						</logginginfo>
						<labels>
							<label2>Iris</label2>
						</labels>
					</clipitem>
					<clipitem id="clipitem-1199" frameBlend="FALSE" premiereChannelType="mono">
						<masterclipid>masterclip-268</masterclipid>
						<name>SC-RO1840-CF-020812-RO_p0.mxf</name>
						<enabled>TRUE</enabled>
						<duration>3342</duration>
						<rate>
							<timebase>25</timebase>
							<ntsc>FALSE</ntsc>
						</rate>
						<start>1352</start>
						<end>1368</end>
						<in>2060</in>
						<out>2076</out>
						<pproTicksIn>20930918400000</pproTicksIn>
						<pproTicksOut>21093488640000</pproTicksOut>
						<file id="file-258"/>
						<sourcetrack>
							<mediatype>audio</mediatype>
							<trackindex>1</trackindex>
						</sourcetrack>
						<link>
							<linkclipref>clipitem-988</linkclipref>
							<mediatype>video</mediatype>
							<trackindex>1</trackindex>
							<clipindex>22</clipindex>
						</link>
						<link>
							<linkclipref>clipitem-1199</linkclipref>
							<mediatype>audio</mediatype>
							<trackindex>1</trackindex>
							<clipindex>14</clipindex>
						</link>
						<link>
							<linkclipref>clipitem-1297</linkclipref>
							<mediatype>audio</mediatype>
							<trackindex>2</trackindex>
							<clipindex>7</clipindex>
						</link>
						<logginginfo>
							<description></description>
							<scene></scene>
							<shottake></shottake>
							<lognote></lognote>
						</logginginfo>
						<labels>
							<label2>Iris</label2>
						</labels>
					</clipitem>
					<clipitem id="clipitem-1200" frameBlend="FALSE" premiereChannelType="mono">
						<masterclipid>masterclip-270</masterclipid>
						<name>SC-DKNO99010215AA_p0.mxf</name>
						<enabled>TRUE</enabled>
						<duration>4003</duration>
						<rate>
							<timebase>25</timebase>
							<ntsc>FALSE</ntsc>
						</rate>
						<start>1368</start>
						<end>1386</end>
						<in>1174</in>
						<out>1192</out>
						<pproTicksIn>11928591360000</pproTicksIn>
						<pproTicksOut>12111482880000</pproTicksOut>
						<file id="file-260"/>
						<sourcetrack>
							<mediatype>audio</mediatype>
							<trackindex>1</trackindex>
						</sourcetrack>
						<link>
							<linkclipref>clipitem-989</linkclipref>
							<mediatype>video</mediatype>
							<trackindex>1</trackindex>
							<clipindex>23</clipindex>
						</link>
						<link>
							<linkclipref>clipitem-1200</linkclipref>
							<mediatype>audio</mediatype>
							<trackindex>1</trackindex>
							<clipindex>15</clipindex>
						</link>
						<link>
							<linkclipref>clipitem-1298</linkclipref>
							<mediatype>audio</mediatype>
							<trackindex>2</trackindex>
							<clipindex>8</clipindex>
						</link>
						<logginginfo>
							<description></description>
							<scene></scene>
							<shottake></shottake>
							<lognote></lognote>
						</logginginfo>
						<labels>
							<label2>Iris</label2>
						</labels>
					</clipitem>
					<clipitem id="clipitem-1201" frameBlend="FALSE" premiereChannelType="mono">
						<masterclipid>masterclip-365</masterclipid>
						<name>murvegg SYNK 2.mov</name>
						<enabled>TRUE</enabled>
						<duration>1647</duration>
						<rate>
							<timebase>25</timebase>
							<ntsc>FALSE</ntsc>
						</rate>
						<start>1605</start>
						<end>1848</end>
						<in>213</in>
						<out>456</out>
						<pproTicksIn>2164216320000</pproTicksIn>
						<pproTicksOut>4633251840000</pproTicksOut>
						<pixelaspectratio>square</pixelaspectratio>
						<anamorphic>FALSE</anamorphic>
						<file id="file-350">
							<name>murvegg SYNK 2.mov</name>
							<pathurl>file://localhost/Volumes/Brakka/AdobeLager/Katta/Katta-16xxxx-Klimabloffen-Chris/04-Grafikk/murvegg%20SYNK%202.mov</pathurl>
							<rate>
								<timebase>25</timebase>
								<ntsc>FALSE</ntsc>
							</rate>
							<duration>1647</duration>
							<timecode>
								<rate>
									<timebase>25</timebase>
									<ntsc>FALSE</ntsc>
								</rate>
								<string>00:00:00:00</string>
								<frame>0</frame>
								<displayformat>NDF</displayformat>
								<reel>
									<name></name>
								</reel>
							</timecode>
							<media>
								<video>
									<samplecharacteristics>
										<rate>
											<timebase>25</timebase>
											<ntsc>FALSE</ntsc>
										</rate>
										<width>1920</width>
										<height>1080</height>
										<anamorphic>FALSE</anamorphic>
										<pixelaspectratio>square</pixelaspectratio>
										<fielddominance>upper</fielddominance>
									</samplecharacteristics>
								</video>
								<audio>
									<samplecharacteristics>
										<depth>16</depth>
										<samplerate>48000</samplerate>
									</samplecharacteristics>
									<channelcount>1</channelcount>
									<layout>stereo</layout>
									<audiochannel>
										<sourcechannel>1</sourcechannel>
										<channellabel>left</channellabel>
									</audiochannel>
								</audio>
								<audio>
									<samplecharacteristics>
										<depth>16</depth>
										<samplerate>48000</samplerate>
									</samplecharacteristics>
									<channelcount>1</channelcount>
									<layout>stereo</layout>
									<audiochannel>
										<sourcechannel>2</sourcechannel>
										<channellabel>right</channellabel>
									</audiochannel>
								</audio>
							</media>
						</file>
						<sourcetrack>
							<mediatype>audio</mediatype>
							<trackindex>1</trackindex>
						</sourcetrack>
						<logginginfo>
							<description></description>
							<scene></scene>
							<shottake></shottake>
							<lognote></lognote>
						</logginginfo>
						<labels>
							<label2>Iris</label2>
						</labels>
					</clipitem>
					<clipitem id="clipitem-1202" frameBlend="FALSE" premiereChannelType="mono">
						<masterclipid>masterclip-366</masterclipid>
						<name>AA3252</name>
						<enabled>TRUE</enabled>
						<duration>2556</duration>
						<rate>
							<timebase>25</timebase>
							<ntsc>FALSE</ntsc>
						</rate>
						<start>1848</start>
						<end>1875</end>
						<in>2319</in>
						<out>2346</out>
						<pproTicksIn>23562524160000</pproTicksIn>
						<pproTicksOut>23836861440000</pproTicksOut>
						<pixelaspectratio>square</pixelaspectratio>
						<anamorphic>FALSE</anamorphic>
						<file id="file-351">
							<name>AA3252</name>
							<pathurl>file://localhost/Volumes/Brakka/AdobeLager/Katta/Katta-16xxxx-Klimabloffen-Chris/03-Lyd/CONTENTS/CLIPS001/AA3252/AA325201.MXF</pathurl>
							<rate>
								<timebase>25</timebase>
								<ntsc>FALSE</ntsc>
							</rate>
							<duration>2556</duration>
							<timecode>
								<rate>
									<timebase>25</timebase>
									<ntsc>FALSE</ntsc>
								</rate>
								<string>01:15:28:20</string>
								<frame>113220</frame>
								<displayformat>NDF</displayformat>
								<reel>
									<name></name>
								</reel>
							</timecode>
							<media>
								<video>
									<samplecharacteristics>
										<rate>
											<timebase>25</timebase>
											<ntsc>FALSE</ntsc>
										</rate>
										<width>1920</width>
										<height>1080</height>
										<anamorphic>FALSE</anamorphic>
										<pixelaspectratio>square</pixelaspectratio>
										<fielddominance>none</fielddominance>
									</samplecharacteristics>
								</video>
								<audio>
									<samplecharacteristics>
										<depth>16</depth>
										<samplerate>48000</samplerate>
									</samplecharacteristics>
									<channelcount>1</channelcount>
									<layout>stereo</layout>
									<audiochannel>
										<sourcechannel>1</sourcechannel>
										<channellabel>left</channellabel>
									</audiochannel>
								</audio>
								<audio>
									<samplecharacteristics>
										<depth>16</depth>
										<samplerate>48000</samplerate>
									</samplecharacteristics>
									<channelcount>1</channelcount>
									<layout>stereo</layout>
									<audiochannel>
										<sourcechannel>2</sourcechannel>
										<channellabel>right</channellabel>
									</audiochannel>
								</audio>
							</media>
						</file>
						<sourcetrack>
							<mediatype>audio</mediatype>
							<trackindex>1</trackindex>
						</sourcetrack>
							<filter>
								<effect>
									<name>Audio Levels</name>
									<effectid>audiolevels</effectid>
									<effectcategory>audiolevels</effectcategory>
									<effecttype>audiolevels</effecttype>
									<mediatype>audio</mediatype>
									<parameter authoringApp="PremierePro">
										<parameterid>level</parameterid>
										<name>Level</name>
										<valuemin>0</valuemin>
										<valuemax>3.98109</valuemax>
										<value>0.706268</value>
									</parameter>
								</effect>
							</filter>
						<logginginfo>
							<description></description>
							<scene></scene>
							<shottake>AA3252</shottake>
							<lognote></lognote>
						</logginginfo>
						<labels>
							<label2>Iris</label2>
						</labels>
					</clipitem>
					<clipitem id="clipitem-1203" frameBlend="FALSE" premiereChannelType="mono">
						<masterclipid>masterclip-365</masterclipid>
						<name>murvegg SYNK 2.mov</name>
						<enabled>TRUE</enabled>
						<duration>1647</duration>
						<rate>
							<timebase>25</timebase>
							<ntsc>FALSE</ntsc>
						</rate>
						<start>1875</start>
						<end>3028</end>
						<in>483</in>
						<out>1636</out>
						<pproTicksIn>4907589120000</pproTicksIn>
						<pproTicksOut>16622807040000</pproTicksOut>
						<file id="file-350"/>
						<sourcetrack>
							<mediatype>audio</mediatype>
							<trackindex>1</trackindex>
						</sourcetrack>
						<logginginfo>
							<description></description>
							<scene></scene>
							<shottake></shottake>
							<lognote></lognote>
						</logginginfo>
						<labels>
							<label2>Iris</label2>
						</labels>
					</clipitem>
					<clipitem id="clipitem-1204" frameBlend="FALSE" premiereChannelType="mono">
						<masterclipid>masterclip-280</masterclipid>
						<name>AA3162</name>
						<enabled>TRUE</enabled>
						<duration>540</duration>
						<rate>
							<timebase>25</timebase>
							<ntsc>FALSE</ntsc>
						</rate>
						<start>3057</start>
						<end>3240</end>
						<in>121</in>
						<out>304</out>
						<pproTicksIn>1229437440000</pproTicksIn>
						<pproTicksOut>3088834560000</pproTicksOut>
						<file id="file-270"/>
						<sourcetrack>
							<mediatype>audio</mediatype>
							<trackindex>1</trackindex>
						</sourcetrack>
						<link>
							<linkclipref>clipitem-1004</linkclipref>
							<mediatype>video</mediatype>
							<trackindex>1</trackindex>
							<clipindex>38</clipindex>
						</link>
						<link>
							<linkclipref>clipitem-1204</linkclipref>
							<mediatype>audio</mediatype>
							<trackindex>1</trackindex>
							<clipindex>19</clipindex>
						</link>
						<logginginfo>
							<description></description>
							<scene></scene>
							<shottake>AA3162</shottake>
							<lognote></lognote>
						</logginginfo>
						<labels>
							<label2>Iris</label2>
						</labels>
					</clipitem>
					<clipitem id="clipitem-1205" frameBlend="FALSE" premiereChannelType="mono">
						<masterclipid>masterclip-284</masterclipid>
						<name>AA3164</name>
						<enabled>TRUE</enabled>
						<duration>10272</duration>
						<rate>
							<timebase>25</timebase>
							<ntsc>FALSE</ntsc>
						</rate>
						<start>3513</start>
						<end>3554</end>
						<in>6385</in>
						<out>6426</out>
						<pproTicksIn>64875686400000</pproTicksIn>
						<pproTicksOut>65292272640000</pproTicksOut>
						<file id="file-274"/>
						<sourcetrack>
							<mediatype>audio</mediatype>
							<trackindex>1</trackindex>
						</sourcetrack>
						<link>
							<linkclipref>clipitem-1012</linkclipref>
							<mediatype>video</mediatype>
							<trackindex>1</trackindex>
							<clipindex>46</clipindex>
						</link>
						<link>
							<linkclipref>clipitem-1205</linkclipref>
							<mediatype>audio</mediatype>
							<trackindex>1</trackindex>
							<clipindex>20</clipindex>
						</link>
						<link>
							<linkclipref>clipitem-1301</linkclipref>
							<mediatype>audio</mediatype>
							<trackindex>2</trackindex>
							<clipindex>11</clipindex>
						</link>
						<logginginfo>
							<description></description>
							<scene></scene>
							<shottake>AA3164</shottake>
							<lognote></lognote>
						</logginginfo>
						<labels>
							<label2>Iris</label2>
						</labels>
					</clipitem>
					<clipitem id="clipitem-1206" frameBlend="FALSE" premiereChannelType="mono">
						<masterclipid>masterclip-284</masterclipid>
						<name>AA3164</name>
						<enabled>TRUE</enabled>
						<duration>10272</duration>
						<rate>
							<timebase>25</timebase>
							<ntsc>FALSE</ntsc>
						</rate>
						<start>3589</start>
						<end>3626</end>
						<in>7761</in>
						<out>7798</out>
						<pproTicksIn>78856727040000</pproTicksIn>
						<pproTicksOut>79232670720000</pproTicksOut>
						<file id="file-274"/>
						<sourcetrack>
							<mediatype>audio</mediatype>
							<trackindex>1</trackindex>
						</sourcetrack>
							<filter>
								<effect>
									<name>Audio Levels</name>
									<effectid>audiolevels</effectid>
									<effectcategory>audiolevels</effectcategory>
									<effecttype>audiolevels</effecttype>
									<mediatype>audio</mediatype>
									<parameter authoringApp="PremierePro">
										<parameterid>level</parameterid>
										<name>Level</name>
										<valuemin>0</valuemin>
										<valuemax>3.98109</valuemax>
										<value>0.325208</value>
									</parameter>
								</effect>
							</filter>
						<link>
							<linkclipref>clipitem-1014</linkclipref>
							<mediatype>video</mediatype>
							<trackindex>1</trackindex>
							<clipindex>48</clipindex>
						</link>
						<link>
							<linkclipref>clipitem-1206</linkclipref>
							<mediatype>audio</mediatype>
							<trackindex>1</trackindex>
							<clipindex>21</clipindex>
						</link>
						<link>
							<linkclipref>clipitem-1302</linkclipref>
							<mediatype>audio</mediatype>
							<trackindex>2</trackindex>
							<clipindex>12</clipindex>
						</link>
						<logginginfo>
							<description></description>
							<scene></scene>
							<shottake>AA3164</shottake>
							<lognote></lognote>
						</logginginfo>
						<labels>
							<label2>Iris</label2>
						</labels>
					</clipitem>
					<clipitem id="clipitem-1207" frameBlend="FALSE" premiereChannelType="mono">
						<masterclipid>masterclip-286</masterclipid>
						<name>AA3169</name>
						<enabled>TRUE</enabled>
						<duration>336</duration>
						<rate>
							<timebase>25</timebase>
							<ntsc>FALSE</ntsc>
						</rate>
						<start>3626</start>
						<end>3668</end>
						<in>246</in>
						<out>288</out>
						<pproTicksIn>2499517440000</pproTicksIn>
						<pproTicksOut>2926264320000</pproTicksOut>
						<file id="file-276"/>
						<sourcetrack>
							<mediatype>audio</mediatype>
							<trackindex>1</trackindex>
						</sourcetrack>
						<link>
							<linkclipref>clipitem-1015</linkclipref>
							<mediatype>video</mediatype>
							<trackindex>1</trackindex>
							<clipindex>49</clipindex>
						</link>
						<link>
							<linkclipref>clipitem-1207</linkclipref>
							<mediatype>audio</mediatype>
							<trackindex>1</trackindex>
							<clipindex>22</clipindex>
						</link>
						<link>
							<linkclipref>clipitem-1303</linkclipref>
							<mediatype>audio</mediatype>
							<trackindex>2</trackindex>
							<clipindex>13</clipindex>
						</link>
						<logginginfo>
							<description></description>
							<scene></scene>
							<shottake>AA3169</shottake>
							<lognote></lognote>
						</logginginfo>
						<labels>
							<label2>Iris</label2>
						</labels>
					</clipitem>
					<clipitem id="clipitem-1208" frameBlend="FALSE" premiereChannelType="mono">
						<masterclipid>masterclip-288</masterclipid>
						<name>AA3165</name>
						<enabled>TRUE</enabled>
						<duration>7188</duration>
						<rate>
							<timebase>25</timebase>
							<ntsc>FALSE</ntsc>
						</rate>
						<start>3684</start>
						<end>3855</end>
						<in>6567</in>
						<out>6738</out>
						<pproTicksIn>66724922880000</pproTicksIn>
						<pproTicksOut>68462392320000</pproTicksOut>
						<file id="file-278"/>
						<sourcetrack>
							<mediatype>audio</mediatype>
							<trackindex>1</trackindex>
						</sourcetrack>
						<logginginfo>
							<description></description>
							<scene></scene>
							<shottake>AA3165</shottake>
							<lognote></lognote>
						</logginginfo>
						<labels>
							<label2>Iris</label2>
						</labels>
					</clipitem>
					<clipitem id="clipitem-1209" frameBlend="FALSE" premiereChannelType="mono">
						<masterclipid>masterclip-290</masterclipid>
						<name>AA3170</name>
						<enabled>TRUE</enabled>
						<duration>360</duration>
						<rate>
							<timebase>25</timebase>
							<ntsc>FALSE</ntsc>
						</rate>
						<start>3892</start>
						<end>3920</end>
						<in>240</in>
						<out>268</out>
						<pproTicksIn>2438553600000</pproTicksIn>
						<pproTicksOut>2723051520000</pproTicksOut>
						<file id="file-280"/>
						<sourcetrack>
							<mediatype>audio</mediatype>
							<trackindex>1</trackindex>
						</sourcetrack>
							<filter>
								<effect>
									<name>Audio Levels</name>
									<effectid>audiolevels</effectid>
									<effectcategory>audiolevels</effectcategory>
									<effecttype>audiolevels</effecttype>
									<mediatype>audio</mediatype>
									<parameter authoringApp="PremierePro">
										<parameterid>level</parameterid>
										<name>Level</name>
										<valuemin>0</valuemin>
										<valuemax>3.98109</valuemax>
										<value>0.237531</value>
									</parameter>
								</effect>
							</filter>
						<link>
							<linkclipref>clipitem-1019</linkclipref>
							<mediatype>video</mediatype>
							<trackindex>1</trackindex>
							<clipindex>53</clipindex>
						</link>
						<link>
							<linkclipref>clipitem-1209</linkclipref>
							<mediatype>audio</mediatype>
							<trackindex>1</trackindex>
							<clipindex>24</clipindex>
						</link>
						<link>
							<linkclipref>clipitem-1305</linkclipref>
							<mediatype>audio</mediatype>
							<trackindex>2</trackindex>
							<clipindex>15</clipindex>
						</link>
						<logginginfo>
							<description></description>
							<scene></scene>
							<shottake>AA3170</shottake>
							<lognote></lognote>
						</logginginfo>
						<labels>
							<label2>Iris</label2>
						</labels>
					</clipitem>
					<clipitem id="clipitem-1210" frameBlend="FALSE" premiereChannelType="mono">
						<masterclipid>masterclip-291</masterclipid>
						<name>AA3171</name>
						<enabled>TRUE</enabled>
						<duration>768</duration>
						<rate>
							<timebase>25</timebase>
							<ntsc>FALSE</ntsc>
						</rate>
						<start>3920</start>
						<end>3955</end>
						<in>196</in>
						<out>231</out>
						<pproTicksIn>1991485440000</pproTicksIn>
						<pproTicksOut>2347107840000</pproTicksOut>
						<file id="file-281"/>
						<sourcetrack>
							<mediatype>audio</mediatype>
							<trackindex>1</trackindex>
						</sourcetrack>
							<filter>
								<effect>
									<name>Audio Levels</name>
									<effectid>audiolevels</effectid>
									<effectcategory>audiolevels</effectcategory>
									<effecttype>audiolevels</effecttype>
									<mediatype>audio</mediatype>
									<parameter authoringApp="PremierePro">
										<parameterid>level</parameterid>
										<name>Level</name>
										<valuemin>0</valuemin>
										<valuemax>3.98109</valuemax>
										<value>0.213416</value>
									</parameter>
								</effect>
							</filter>
						<link>
							<linkclipref>clipitem-1020</linkclipref>
							<mediatype>video</mediatype>
							<trackindex>1</trackindex>
							<clipindex>54</clipindex>
						</link>
						<link>
							<linkclipref>clipitem-1210</linkclipref>
							<mediatype>audio</mediatype>
							<trackindex>1</trackindex>
							<clipindex>25</clipindex>
						</link>
						<link>
							<linkclipref>clipitem-1306</linkclipref>
							<mediatype>audio</mediatype>
							<trackindex>2</trackindex>
							<clipindex>16</clipindex>
						</link>
						<logginginfo>
							<description></description>
							<scene></scene>
							<shottake>AA3171</shottake>
							<lognote></lognote>
						</logginginfo>
						<labels>
							<label2>Iris</label2>
						</labels>
					</clipitem>
					<clipitem id="clipitem-1211" frameBlend="FALSE" premiereChannelType="mono">
						<masterclipid>masterclip-292</masterclipid>
						<name>AA3182</name>
						<enabled>TRUE</enabled>
						<duration>408</duration>
						<rate>
							<timebase>25</timebase>
							<ntsc>FALSE</ntsc>
						</rate>
						<start>3955</start>
						<end>4016</end>
						<in>54</in>
						<out>115</out>
						<pproTicksIn>548674560000</pproTicksIn>
						<pproTicksOut>1168473600000</pproTicksOut>
						<file id="file-282"/>
						<sourcetrack>
							<mediatype>audio</mediatype>
							<trackindex>1</trackindex>
						</sourcetrack>
						<link>
							<linkclipref>clipitem-1021</linkclipref>
							<mediatype>video</mediatype>
							<trackindex>1</trackindex>
							<clipindex>55</clipindex>
						</link>
						<link>
							<linkclipref>clipitem-1211</linkclipref>
							<mediatype>audio</mediatype>
							<trackindex>1</trackindex>
							<clipindex>26</clipindex>
						</link>
						<link>
							<linkclipref>clipitem-1307</linkclipref>
							<mediatype>audio</mediatype>
							<trackindex>2</trackindex>
							<clipindex>17</clipindex>
						</link>
						<logginginfo>
							<description></description>
							<scene></scene>
							<shottake>AA3182</shottake>
							<lognote></lognote>
						</logginginfo>
						<labels>
							<label2>Iris</label2>
						</labels>
					</clipitem>
					<clipitem id="clipitem-1212" frameBlend="FALSE" premiereChannelType="mono">
						<masterclipid>masterclip-293</masterclipid>
						<name>AA3172</name>
						<enabled>TRUE</enabled>
						<duration>15228</duration>
						<rate>
							<timebase>25</timebase>
							<ntsc>FALSE</ntsc>
						</rate>
						<start>4016</start>
						<end>4159</end>
						<in>446</in>
						<out>589</out>
						<pproTicksIn>4531645440000</pproTicksIn>
						<pproTicksOut>5984616960000</pproTicksOut>
						<file id="file-283"/>
						<sourcetrack>
							<mediatype>audio</mediatype>
							<trackindex>1</trackindex>
						</sourcetrack>
							<filter>
								<effect>
									<name>Audio Levels</name>
									<effectid>audiolevels</effectid>
									<effectcategory>audiolevels</effectcategory>
									<effecttype>audiolevels</effecttype>
									<mediatype>audio</mediatype>
									<parameter authoringApp="PremierePro">
										<parameterid>level</parameterid>
										<name>Level</name>
										<valuemin>0</valuemin>
										<valuemax>3.98109</valuemax>
										<value>9.9763e-07</value>
									</parameter>
								</effect>
							</filter>
						<link>
							<linkclipref>clipitem-1022</linkclipref>
							<mediatype>video</mediatype>
							<trackindex>1</trackindex>
							<clipindex>56</clipindex>
						</link>
						<link>
							<linkclipref>clipitem-1212</linkclipref>
							<mediatype>audio</mediatype>
							<trackindex>1</trackindex>
							<clipindex>27</clipindex>
						</link>
						<link>
							<linkclipref>clipitem-1308</linkclipref>
							<mediatype>audio</mediatype>
							<trackindex>2</trackindex>
							<clipindex>18</clipindex>
						</link>
						<logginginfo>
							<description></description>
							<scene></scene>
							<shottake>AA3172</shottake>
							<lognote></lognote>
						</logginginfo>
						<labels>
							<label2>Iris</label2>
						</labels>
					</clipitem>
					<clipitem id="clipitem-1213" frameBlend="FALSE" premiereChannelType="mono">
						<masterclipid>masterclip-293</masterclipid>
						<name>AA3172</name>
						<enabled>TRUE</enabled>
						<duration>15228</duration>
						<rate>
							<timebase>25</timebase>
							<ntsc>FALSE</ntsc>
						</rate>
						<start>4159</start>
						<end>4325</end>
						<in>982</in>
						<out>1148</out>
						<pproTicksIn>9977748480000</pproTicksIn>
						<pproTicksOut>11664414720000</pproTicksOut>
						<file id="file-283"/>
						<sourcetrack>
							<mediatype>audio</mediatype>
							<trackindex>1</trackindex>
						</sourcetrack>
							<filter>
								<effect>
									<name>Audio Levels</name>
									<effectid>audiolevels</effectid>
									<effectcategory>audiolevels</effectcategory>
									<effecttype>audiolevels</effecttype>
									<mediatype>audio</mediatype>
									<parameter authoringApp="PremierePro">
										<parameterid>level</parameterid>
										<name>Level</name>
										<valuemin>0</valuemin>
										<valuemax>3.98109</valuemax>
										<value>9.9763e-07</value>
									</parameter>
								</effect>
							</filter>
						<link>
							<linkclipref>clipitem-1025</linkclipref>
							<mediatype>video</mediatype>
							<trackindex>1</trackindex>
							<clipindex>59</clipindex>
						</link>
						<link>
							<linkclipref>clipitem-1213</linkclipref>
							<mediatype>audio</mediatype>
							<trackindex>1</trackindex>
							<clipindex>28</clipindex>
						</link>
						<link>
							<linkclipref>clipitem-1309</linkclipref>
							<mediatype>audio</mediatype>
							<trackindex>2</trackindex>
							<clipindex>19</clipindex>
						</link>
						<logginginfo>
							<description></description>
							<scene></scene>
							<shottake>AA3172</shottake>
							<lognote></lognote>
						</logginginfo>
						<labels>
							<label2>Iris</label2>
						</labels>
					</clipitem>
					<clipitem id="clipitem-1214" frameBlend="FALSE" premiereChannelType="mono">
						<masterclipid>masterclip-293</masterclipid>
						<name>AA3172</name>
						<enabled>TRUE</enabled>
						<duration>15228</duration>
						<rate>
							<timebase>25</timebase>
							<ntsc>FALSE</ntsc>
						</rate>
						<start>4325</start>
						<end>4434</end>
						<in>8947</in>
						<out>9056</out>
						<pproTicksIn>90907246080000</pproTicksIn>
						<pproTicksOut>92014755840000</pproTicksOut>
						<file id="file-283"/>
						<sourcetrack>
							<mediatype>audio</mediatype>
							<trackindex>1</trackindex>
						</sourcetrack>
							<filter>
								<effect>
									<name>Audio Levels</name>
									<effectid>audiolevels</effectid>
									<effectcategory>audiolevels</effectcategory>
									<effecttype>audiolevels</effecttype>
									<mediatype>audio</mediatype>
									<parameter authoringApp="PremierePro">
										<parameterid>level</parameterid>
										<name>Level</name>
										<valuemin>0</valuemin>
										<valuemax>3.98109</valuemax>
										<value>9.9763e-07</value>
									</parameter>
								</effect>
							</filter>
						<link>
							<linkclipref>clipitem-1028</linkclipref>
							<mediatype>video</mediatype>
							<trackindex>1</trackindex>
							<clipindex>62</clipindex>
						</link>
						<link>
							<linkclipref>clipitem-1214</linkclipref>
							<mediatype>audio</mediatype>
							<trackindex>1</trackindex>
							<clipindex>29</clipindex>
						</link>
						<link>
							<linkclipref>clipitem-1310</linkclipref>
							<mediatype>audio</mediatype>
							<trackindex>2</trackindex>
							<clipindex>20</clipindex>
						</link>
						<logginginfo>
							<description></description>
							<scene></scene>
							<shottake>AA3172</shottake>
							<lognote></lognote>
						</logginginfo>
						<labels>
							<label2>Iris</label2>
						</labels>
					</clipitem>
					<clipitem id="clipitem-1215" frameBlend="FALSE" premiereChannelType="mono">
						<masterclipid>masterclip-293</masterclipid>
						<name>AA3172</name>
						<enabled>TRUE</enabled>
						<duration>15228</duration>
						<rate>
							<timebase>25</timebase>
							<ntsc>FALSE</ntsc>
						</rate>
						<start>4434</start>
						<end>4539</end>
						<in>10370</in>
						<out>10475</out>
						<pproTicksIn>105365836800000</pproTicksIn>
						<pproTicksOut>106432704000000</pproTicksOut>
						<file id="file-283"/>
						<sourcetrack>
							<mediatype>audio</mediatype>
							<trackindex>1</trackindex>
						</sourcetrack>
							<filter>
								<effect>
									<name>Audio Levels</name>
									<effectid>audiolevels</effectid>
									<effectcategory>audiolevels</effectcategory>
									<effecttype>audiolevels</effecttype>
									<mediatype>audio</mediatype>
									<parameter authoringApp="PremierePro">
										<parameterid>level</parameterid>
										<name>Level</name>
										<valuemin>0</valuemin>
										<valuemax>3.98109</valuemax>
										<value>0.8575</value>
									</parameter>
								</effect>
							</filter>
						<link>
							<linkclipref>clipitem-1030</linkclipref>
							<mediatype>video</mediatype>
							<trackindex>1</trackindex>
							<clipindex>64</clipindex>
						</link>
						<link>
							<linkclipref>clipitem-1215</linkclipref>
							<mediatype>audio</mediatype>
							<trackindex>1</trackindex>
							<clipindex>30</clipindex>
						</link>
						<link>
							<linkclipref>clipitem-1311</linkclipref>
							<mediatype>audio</mediatype>
							<trackindex>2</trackindex>
							<clipindex>21</clipindex>
						</link>
						<logginginfo>
							<description></description>
							<scene></scene>
							<shottake>AA3172</shottake>
							<lognote></lognote>
						</logginginfo>
						<labels>
							<label2>Iris</label2>
						</labels>
					</clipitem>
					<clipitem id="clipitem-1216" frameBlend="FALSE" premiereChannelType="mono">
						<masterclipid>masterclip-299</masterclipid>
						<name>AA3187</name>
						<enabled>TRUE</enabled>
						<duration>264</duration>
						<rate>
							<timebase>25</timebase>
							<ntsc>FALSE</ntsc>
						</rate>
						<start>4539</start>
						<end>4569</end>
						<in>217</in>
						<out>247</out>
						<pproTicksIn>2204858880000</pproTicksIn>
						<pproTicksOut>2509678080000</pproTicksOut>
						<file id="file-289"/>
						<sourcetrack>
							<mediatype>audio</mediatype>
							<trackindex>1</trackindex>
						</sourcetrack>
						<link>
							<linkclipref>clipitem-1031</linkclipref>
							<mediatype>video</mediatype>
							<trackindex>1</trackindex>
							<clipindex>65</clipindex>
						</link>
						<link>
							<linkclipref>clipitem-1216</linkclipref>
							<mediatype>audio</mediatype>
							<trackindex>1</trackindex>
							<clipindex>31</clipindex>
						</link>
						<logginginfo>
							<description></description>
							<scene></scene>
							<shottake>AA3187</shottake>
							<lognote></lognote>
						</logginginfo>
						<labels>
							<label2>Iris</label2>
						</labels>
					</clipitem>
					<clipitem id="clipitem-1217" frameBlend="FALSE" premiereChannelType="mono">
						<masterclipid>masterclip-305</masterclipid>
						<name>AA3194</name>
						<enabled>TRUE</enabled>
						<duration>59868</duration>
						<rate>
							<timebase>25</timebase>
							<ntsc>FALSE</ntsc>
						</rate>
						<start>4995</start>
						<end>5061</end>
						<in>9990</in>
						<out>10056</out>
						<pproTicksIn>101504793600000</pproTicksIn>
						<pproTicksOut>102175395840000</pproTicksOut>
						<file id="file-295"/>
						<sourcetrack>
							<mediatype>audio</mediatype>
							<trackindex>1</trackindex>
						</sourcetrack>
						<logginginfo>
							<description></description>
							<scene></scene>
							<shottake>AA3194</shottake>
							<lognote></lognote>
						</logginginfo>
						<labels>
							<label2>Iris</label2>
						</labels>
					</clipitem>
					<clipitem id="clipitem-1218" frameBlend="FALSE" premiereChannelType="mono">
						<masterclipid>masterclip-307</masterclipid>
						<name>N42A0927.MOVMulticam</name>
						<enabled>TRUE</enabled>
						<duration>28012</duration>
						<rate>
							<timebase>25</timebase>
							<ntsc>FALSE</ntsc>
						</rate>
						<start>5061</start>
						<end>5529</end>
						<in>4136</in>
						<out>4604</out>
						<pproTicksIn>42024407040000</pproTicksIn>
						<pproTicksOut>46779586560000</pproTicksOut>
						<sequence id="sequence-72" MZ.Sequence.PreviewFrameSizeHeight="1080" MZ.Sequence.PreviewFrameSizeWidth="1920" MZ.Sequence.AudioTimeDisplayFormat="200" MZ.Sequence.PreviewRenderingClassID="1297106761" MZ.Sequence.PreviewRenderingPresetCodec="1297107278" MZ.Sequence.PreviewRenderingPresetPath="EncoderPresets/SequencePreview/cc7991f5-c236-4db1-957e-2c71f924e81c/I-Frame Only MPEG.epr" MZ.Sequence.PreviewUseMaxRenderQuality="false" MZ.Sequence.PreviewUseMaxBitDepth="false" MZ.Sequence.EditingModeGUID="cc7991f5-c236-4db1-957e-2c71f924e81c" MZ.Sequence.VideoTimeDisplayFormat="101" MZ.WorkOutPoint="15240960000000" MZ.WorkInPoint="0">
							<duration>16550</duration>
							<rate>
								<timebase>25</timebase>
								<ntsc>FALSE</ntsc>
							</rate>
							<name>N42A0927.MOVMulticam</name>
							<media>
								<video>
									<format>
										<samplecharacteristics>
											<rate>
												<timebase>25</timebase>
												<ntsc>FALSE</ntsc>
											</rate>
											<codec>
												<name>Apple ProRes 422</name>
												<appspecificdata>
													<appname>Final Cut Pro</appname>
													<appmanufacturer>Apple Inc.</appmanufacturer>
													<appversion>7.0</appversion>
													<data>
														<qtcodec>
															<codecname>Apple ProRes 422</codecname>
															<codectypename>Apple ProRes 422</codectypename>
															<codectypecode>apcn</codectypecode>
															<codecvendorcode>appl</codecvendorcode>
															<spatialquality>1024</spatialquality>
															<temporalquality>0</temporalquality>
															<keyframerate>0</keyframerate>
															<datarate>0</datarate>
														</qtcodec>
													</data>
												</appspecificdata>
											</codec>
											<width>1920</width>
											<height>1080</height>
											<anamorphic>FALSE</anamorphic>
											<pixelaspectratio>square</pixelaspectratio>
											<fielddominance>none</fielddominance>
											<colordepth>24</colordepth>
										</samplecharacteristics>
									</format>
									<track>
										<clipitem id="clipitem-1219" frameBlend="FALSE">
											<masterclipid>masterclip-308</masterclipid>
											<name>N42A0927.MOV</name>
											<enabled>TRUE</enabled>
											<duration>16550</duration>
											<rate>
												<timebase>25</timebase>
												<ntsc>FALSE</ntsc>
											</rate>
											<start>0</start>
											<end>16550</end>
											<in>0</in>
											<out>16550</out>
											<pproTicksIn>0</pproTicksIn>
											<pproTicksOut>168158592000000</pproTicksOut>
											<alphatype>black</alphatype>
											<file id="file-297"/>
											<link>
												<linkclipref>clipitem-1219</linkclipref>
												<mediatype>video</mediatype>
												<trackindex>1</trackindex>
												<clipindex>1</clipindex>
											</link>
											<link>
												<linkclipref>clipitem-1223</linkclipref>
												<mediatype>audio</mediatype>
												<trackindex>1</trackindex>
												<clipindex>1</clipindex>
												<groupindex>1</groupindex>
											</link>
											<link>
												<linkclipref>clipitem-1224</linkclipref>
												<mediatype>audio</mediatype>
												<trackindex>2</trackindex>
												<clipindex>1</clipindex>
												<groupindex>1</groupindex>
											</link>
											<logginginfo>
												<description></description>
												<scene></scene>
												<shottake></shottake>
												<lognote></lognote>
											</logginginfo>
											<labels>
												<label2>Iris</label2>
											</labels>
										</clipitem>
										<enabled>TRUE</enabled>
										<locked>FALSE</locked>
									</track>
									<track>
										<clipitem id="clipitem-1220" frameBlend="FALSE">
											<masterclipid>masterclip-309</masterclipid>
											<name>N42A0928.MOV</name>
											<enabled>TRUE</enabled>
											<duration>11462</duration>
											<rate>
												<timebase>25</timebase>
												<ntsc>FALSE</ntsc>
											</rate>
											<start>16550</start>
											<end>28012</end>
											<in>0</in>
											<out>11462</out>
											<pproTicksIn>0</pproTicksIn>
											<pproTicksOut>116461255680000</pproTicksOut>
											<alphatype>black</alphatype>
											<file id="file-298"/>
											<link>
												<linkclipref>clipitem-1220</linkclipref>
												<mediatype>video</mediatype>
												<trackindex>2</trackindex>
												<clipindex>1</clipindex>
											</link>
											<link>
												<linkclipref>clipitem-1225</linkclipref>
												<mediatype>audio</mediatype>
												<trackindex>3</trackindex>
												<clipindex>1</clipindex>
												<groupindex>1</groupindex>
											</link>
											<link>
												<linkclipref>clipitem-1226</linkclipref>
												<mediatype>audio</mediatype>
												<trackindex>4</trackindex>
												<clipindex>1</clipindex>
												<groupindex>1</groupindex>
											</link>
											<logginginfo>
												<description></description>
												<scene></scene>
												<shottake></shottake>
												<lognote></lognote>
											</logginginfo>
											<labels>
												<label2>Iris</label2>
											</labels>
										</clipitem>
										<enabled>TRUE</enabled>
										<locked>FALSE</locked>
									</track>
									<track>
										<clipitem id="clipitem-1221" frameBlend="FALSE">
											<masterclipid>masterclip-310</masterclipid>
											<name>AA3203</name>
											<enabled>TRUE</enabled>
											<duration>2052</duration>
											<rate>
												<timebase>25</timebase>
												<ntsc>FALSE</ntsc>
											</rate>
											<start>681</start>
											<end>2733</end>
											<in>0</in>
											<out>2052</out>
											<pproTicksIn>0</pproTicksIn>
											<pproTicksOut>20849633280000</pproTicksOut>
											<alphatype>none</alphatype>
											<file id="file-299"/>
											<link>
												<linkclipref>clipitem-1221</linkclipref>
												<mediatype>video</mediatype>
												<trackindex>3</trackindex>
												<clipindex>1</clipindex>
											</link>
											<link>
												<linkclipref>clipitem-1227</linkclipref>
												<mediatype>audio</mediatype>
												<trackindex>5</trackindex>
												<clipindex>1</clipindex>
												<groupindex>1</groupindex>
											</link>
											<link>
												<linkclipref>clipitem-1228</linkclipref>
												<mediatype>audio</mediatype>
												<trackindex>6</trackindex>
												<clipindex>1</clipindex>
												<groupindex>1</groupindex>
											</link>
											<logginginfo>
												<description></description>
												<scene></scene>
												<shottake>AA3203</shottake>
												<lognote></lognote>
											</logginginfo>
											<labels>
												<label2>Iris</label2>
											</labels>
										</clipitem>
										<enabled>TRUE</enabled>
										<locked>FALSE</locked>
									</track>
									<track>
										<clipitem id="clipitem-1222" frameBlend="FALSE">
											<masterclipid>masterclip-311</masterclipid>
											<name>AA3204</name>
											<enabled>TRUE</enabled>
											<duration>24168</duration>
											<rate>
												<timebase>25</timebase>
												<ntsc>FALSE</ntsc>
											</rate>
											<start>3462</start>
											<end>27630</end>
											<in>0</in>
											<out>24168</out>
											<pproTicksIn>0</pproTicksIn>
											<pproTicksOut>245562347520000</pproTicksOut>
											<alphatype>none</alphatype>
											<file id="file-300"/>
											<link>
												<linkclipref>clipitem-1222</linkclipref>
												<mediatype>video</mediatype>
												<trackindex>4</trackindex>
												<clipindex>1</clipindex>
											</link>
											<link>
												<linkclipref>clipitem-1229</linkclipref>
												<mediatype>audio</mediatype>
												<trackindex>7</trackindex>
												<clipindex>1</clipindex>
												<groupindex>1</groupindex>
											</link>
											<link>
												<linkclipref>clipitem-1230</linkclipref>
												<mediatype>audio</mediatype>
												<trackindex>8</trackindex>
												<clipindex>1</clipindex>
												<groupindex>1</groupindex>
											</link>
											<logginginfo>
												<description></description>
												<scene></scene>
												<shottake>AA3204</shottake>
												<lognote></lognote>
											</logginginfo>
											<labels>
												<label2>Iris</label2>
											</labels>
										</clipitem>
										<enabled>TRUE</enabled>
										<locked>FALSE</locked>
									</track>
								</video>
								<audio>
									<numOutputChannels>8</numOutputChannels>
									<format>
										<samplecharacteristics>
											<depth>16</depth>
											<samplerate>48000</samplerate>
										</samplecharacteristics>
									</format>
									<outputs>
										<group>
											<index>1</index>
											<numchannels>1</numchannels>
											<downmix>0</downmix>
											<channel>
												<index>1</index>
											</channel>
										</group>
										<group>
											<index>2</index>
											<numchannels>1</numchannels>
											<downmix>0</downmix>
											<channel>
												<index>2</index>
											</channel>
										</group>
										<group>
											<index>3</index>
											<numchannels>1</numchannels>
											<downmix>0</downmix>
											<channel>
												<index>3</index>
											</channel>
										</group>
										<group>
											<index>4</index>
											<numchannels>1</numchannels>
											<downmix>0</downmix>
											<channel>
												<index>4</index>
											</channel>
										</group>
										<group>
											<index>5</index>
											<numchannels>1</numchannels>
											<downmix>0</downmix>
											<channel>
												<index>5</index>
											</channel>
										</group>
										<group>
											<index>6</index>
											<numchannels>1</numchannels>
											<downmix>0</downmix>
											<channel>
												<index>6</index>
											</channel>
										</group>
										<group>
											<index>7</index>
											<numchannels>1</numchannels>
											<downmix>0</downmix>
											<channel>
												<index>7</index>
											</channel>
										</group>
										<group>
											<index>8</index>
											<numchannels>1</numchannels>
											<downmix>0</downmix>
											<channel>
												<index>8</index>
											</channel>
										</group>
									</outputs>
									<track TL.SQTrackExpandedHeight="25" TL.SQTrackExpanded="0" MZ.TrackTargeted="1" PannerCurrentValue="0" PannerIsInverted="true" PannerStartKeyframe="-91445760000000000,0.,0,0,0,0,0,0" PannerName="Balance" currentExplodedTrackIndex="0" totalExplodedTrackCount="1" premiereTrackType="Stereo">
										<clipitem id="clipitem-1223" frameBlend="FALSE" premiereChannelType="mono">
											<masterclipid>masterclip-308</masterclipid>
											<name>N42A0927.MOV</name>
											<enabled>TRUE</enabled>
											<duration>16550</duration>
											<rate>
												<timebase>25</timebase>
												<ntsc>FALSE</ntsc>
											</rate>
											<start>0</start>
											<end>16550</end>
											<in>0</in>
											<out>16550</out>
											<pproTicksIn>0</pproTicksIn>
											<pproTicksOut>168158592000000</pproTicksOut>
											<file id="file-297"/>
											<sourcetrack>
												<mediatype>audio</mediatype>
												<trackindex>1</trackindex>
											</sourcetrack>
											<link>
												<linkclipref>clipitem-1219</linkclipref>
												<mediatype>video</mediatype>
												<trackindex>1</trackindex>
												<clipindex>1</clipindex>
											</link>
											<link>
												<linkclipref>clipitem-1223</linkclipref>
												<mediatype>audio</mediatype>
												<trackindex>1</trackindex>
												<clipindex>1</clipindex>
												<groupindex>1</groupindex>
											</link>
											<link>
												<linkclipref>clipitem-1224</linkclipref>
												<mediatype>audio</mediatype>
												<trackindex>2</trackindex>
												<clipindex>1</clipindex>
												<groupindex>1</groupindex>
											</link>
											<logginginfo>
												<description></description>
												<scene></scene>
												<shottake></shottake>
												<lognote></lognote>
											</logginginfo>
											<labels>
												<label2>Iris</label2>
											</labels>
										</clipitem>
										<enabled>TRUE</enabled>
										<locked>FALSE</locked>
										<outputchannelindex>1</outputchannelindex>
									</track>
									<track TL.SQTrackExpandedHeight="25" TL.SQTrackExpanded="0" MZ.TrackTargeted="1" PannerIsInverted="true" PannerName="Balance" currentExplodedTrackIndex="0" totalExplodedTrackCount="1" premiereTrackType="Stereo">
										<clipitem id="clipitem-1224" frameBlend="FALSE" premiereChannelType="mono">
											<masterclipid>masterclip-308</masterclipid>
											<name>N42A0927.MOV</name>
											<enabled>TRUE</enabled>
											<duration>16550</duration>
											<rate>
												<timebase>25</timebase>
												<ntsc>FALSE</ntsc>
											</rate>
											<start>0</start>
											<end>16550</end>
											<in>0</in>
											<out>16550</out>
											<pproTicksIn>0</pproTicksIn>
											<pproTicksOut>168158592000000</pproTicksOut>
											<file id="file-297"/>
											<sourcetrack>
												<mediatype>audio</mediatype>
												<trackindex>2</trackindex>
											</sourcetrack>
											<link>
												<linkclipref>clipitem-1219</linkclipref>
												<mediatype>video</mediatype>
												<trackindex>1</trackindex>
												<clipindex>1</clipindex>
											</link>
											<link>
												<linkclipref>clipitem-1223</linkclipref>
												<mediatype>audio</mediatype>
												<trackindex>1</trackindex>
												<clipindex>1</clipindex>
												<groupindex>1</groupindex>
											</link>
											<link>
												<linkclipref>clipitem-1224</linkclipref>
												<mediatype>audio</mediatype>
												<trackindex>2</trackindex>
												<clipindex>1</clipindex>
												<groupindex>1</groupindex>
											</link>
											<logginginfo>
												<description></description>
												<scene></scene>
												<shottake></shottake>
												<lognote></lognote>
											</logginginfo>
											<labels>
												<label2>Iris</label2>
											</labels>
										</clipitem>
										<enabled>TRUE</enabled>
										<locked>FALSE</locked>
										<outputchannelindex>2</outputchannelindex>
									</track>
									<track TL.SQTrackExpandedHeight="25" TL.SQTrackExpanded="0" MZ.TrackTargeted="1" PannerCurrentValue="0" PannerIsInverted="true" PannerStartKeyframe="-91445760000000000,0.,0,0,0,0,0,0" PannerName="Balance" currentExplodedTrackIndex="0" totalExplodedTrackCount="1" premiereTrackType="Stereo">
										<clipitem id="clipitem-1225" frameBlend="FALSE" premiereChannelType="mono">
											<masterclipid>masterclip-309</masterclipid>
											<name>N42A0928.MOV</name>
											<enabled>TRUE</enabled>
											<duration>11462</duration>
											<rate>
												<timebase>25</timebase>
												<ntsc>FALSE</ntsc>
											</rate>
											<start>16550</start>
											<end>28012</end>
											<in>0</in>
											<out>11462</out>
											<pproTicksIn>0</pproTicksIn>
											<pproTicksOut>116461255680000</pproTicksOut>
											<file id="file-298"/>
											<sourcetrack>
												<mediatype>audio</mediatype>
												<trackindex>1</trackindex>
											</sourcetrack>
											<link>
												<linkclipref>clipitem-1220</linkclipref>
												<mediatype>video</mediatype>
												<trackindex>2</trackindex>
												<clipindex>1</clipindex>
											</link>
											<link>
												<linkclipref>clipitem-1225</linkclipref>
												<mediatype>audio</mediatype>
												<trackindex>3</trackindex>
												<clipindex>1</clipindex>
												<groupindex>1</groupindex>
											</link>
											<link>
												<linkclipref>clipitem-1226</linkclipref>
												<mediatype>audio</mediatype>
												<trackindex>4</trackindex>
												<clipindex>1</clipindex>
												<groupindex>1</groupindex>
											</link>
											<logginginfo>
												<description></description>
												<scene></scene>
												<shottake></shottake>
												<lognote></lognote>
											</logginginfo>
											<labels>
												<label2>Iris</label2>
											</labels>
										</clipitem>
										<enabled>TRUE</enabled>
										<locked>FALSE</locked>
										<outputchannelindex>3</outputchannelindex>
									</track>
									<track TL.SQTrackExpandedHeight="25" TL.SQTrackExpanded="0" MZ.TrackTargeted="1" PannerIsInverted="true" PannerName="Balance" currentExplodedTrackIndex="0" totalExplodedTrackCount="1" premiereTrackType="Stereo">
										<clipitem id="clipitem-1226" frameBlend="FALSE" premiereChannelType="mono">
											<masterclipid>masterclip-309</masterclipid>
											<name>N42A0928.MOV</name>
											<enabled>TRUE</enabled>
											<duration>11462</duration>
											<rate>
												<timebase>25</timebase>
												<ntsc>FALSE</ntsc>
											</rate>
											<start>16550</start>
											<end>28012</end>
											<in>0</in>
											<out>11462</out>
											<pproTicksIn>0</pproTicksIn>
											<pproTicksOut>116461255680000</pproTicksOut>
											<file id="file-298"/>
											<sourcetrack>
												<mediatype>audio</mediatype>
												<trackindex>2</trackindex>
											</sourcetrack>
											<link>
												<linkclipref>clipitem-1220</linkclipref>
												<mediatype>video</mediatype>
												<trackindex>2</trackindex>
												<clipindex>1</clipindex>
											</link>
											<link>
												<linkclipref>clipitem-1225</linkclipref>
												<mediatype>audio</mediatype>
												<trackindex>3</trackindex>
												<clipindex>1</clipindex>
												<groupindex>1</groupindex>
											</link>
											<link>
												<linkclipref>clipitem-1226</linkclipref>
												<mediatype>audio</mediatype>
												<trackindex>4</trackindex>
												<clipindex>1</clipindex>
												<groupindex>1</groupindex>
											</link>
											<logginginfo>
												<description></description>
												<scene></scene>
												<shottake></shottake>
												<lognote></lognote>
											</logginginfo>
											<labels>
												<label2>Iris</label2>
											</labels>
										</clipitem>
										<enabled>TRUE</enabled>
										<locked>FALSE</locked>
										<outputchannelindex>4</outputchannelindex>
									</track>
									<track PannerCurrentValue="0" PannerIsInverted="true" PannerStartKeyframe="-91445760000000000,0.,0,0,0,0,0,0" PannerName="Balance" currentExplodedTrackIndex="0" totalExplodedTrackCount="1" premiereTrackType="Stereo">
										<clipitem id="clipitem-1227" frameBlend="FALSE" premiereChannelType="mono">
											<masterclipid>masterclip-310</masterclipid>
											<name>AA3203</name>
											<enabled>TRUE</enabled>
											<duration>2052</duration>
											<rate>
												<timebase>25</timebase>
												<ntsc>FALSE</ntsc>
											</rate>
											<start>681</start>
											<end>2733</end>
											<in>0</in>
											<out>2052</out>
											<pproTicksIn>0</pproTicksIn>
											<pproTicksOut>20849633280000</pproTicksOut>
											<file id="file-299"/>
											<sourcetrack>
												<mediatype>audio</mediatype>
												<trackindex>1</trackindex>
											</sourcetrack>
											<link>
												<linkclipref>clipitem-1221</linkclipref>
												<mediatype>video</mediatype>
												<trackindex>3</trackindex>
												<clipindex>1</clipindex>
											</link>
											<link>
												<linkclipref>clipitem-1227</linkclipref>
												<mediatype>audio</mediatype>
												<trackindex>5</trackindex>
												<clipindex>1</clipindex>
												<groupindex>1</groupindex>
											</link>
											<link>
												<linkclipref>clipitem-1228</linkclipref>
												<mediatype>audio</mediatype>
												<trackindex>6</trackindex>
												<clipindex>1</clipindex>
												<groupindex>1</groupindex>
											</link>
											<logginginfo>
												<description></description>
												<scene></scene>
												<shottake>AA3203</shottake>
												<lognote></lognote>
											</logginginfo>
											<labels>
												<label2>Iris</label2>
											</labels>
										</clipitem>
										<enabled>TRUE</enabled>
										<locked>FALSE</locked>
										<outputchannelindex>5</outputchannelindex>
									</track>
									<track PannerIsInverted="true" PannerName="Balance" currentExplodedTrackIndex="0" totalExplodedTrackCount="1" premiereTrackType="Stereo">
										<clipitem id="clipitem-1228" frameBlend="FALSE" premiereChannelType="mono">
											<masterclipid>masterclip-310</masterclipid>
											<name>AA3203</name>
											<enabled>TRUE</enabled>
											<duration>2052</duration>
											<rate>
												<timebase>25</timebase>
												<ntsc>FALSE</ntsc>
											</rate>
											<start>681</start>
											<end>2733</end>
											<in>0</in>
											<out>2052</out>
											<pproTicksIn>0</pproTicksIn>
											<pproTicksOut>20849633280000</pproTicksOut>
											<file id="file-299"/>
											<sourcetrack>
												<mediatype>audio</mediatype>
												<trackindex>2</trackindex>
											</sourcetrack>
											<link>
												<linkclipref>clipitem-1221</linkclipref>
												<mediatype>video</mediatype>
												<trackindex>3</trackindex>
												<clipindex>1</clipindex>
											</link>
											<link>
												<linkclipref>clipitem-1227</linkclipref>
												<mediatype>audio</mediatype>
												<trackindex>5</trackindex>
												<clipindex>1</clipindex>
												<groupindex>1</groupindex>
											</link>
											<link>
												<linkclipref>clipitem-1228</linkclipref>
												<mediatype>audio</mediatype>
												<trackindex>6</trackindex>
												<clipindex>1</clipindex>
												<groupindex>1</groupindex>
											</link>
											<logginginfo>
												<description></description>
												<scene></scene>
												<shottake>AA3203</shottake>
												<lognote></lognote>
											</logginginfo>
											<labels>
												<label2>Iris</label2>
											</labels>
										</clipitem>
										<enabled>TRUE</enabled>
										<locked>FALSE</locked>
										<outputchannelindex>6</outputchannelindex>
									</track>
									<track PannerCurrentValue="0" PannerIsInverted="true" PannerStartKeyframe="-91445760000000000,0.,0,0,0,0,0,0" PannerName="Balance" currentExplodedTrackIndex="0" totalExplodedTrackCount="1" premiereTrackType="Stereo">
										<clipitem id="clipitem-1229" frameBlend="FALSE" premiereChannelType="mono">
											<masterclipid>masterclip-311</masterclipid>
											<name>AA3204</name>
											<enabled>TRUE</enabled>
											<duration>24168</duration>
											<rate>
												<timebase>25</timebase>
												<ntsc>FALSE</ntsc>
											</rate>
											<start>3462</start>
											<end>27630</end>
											<in>0</in>
											<out>24168</out>
											<pproTicksIn>0</pproTicksIn>
											<pproTicksOut>245562347520000</pproTicksOut>
											<file id="file-300"/>
											<sourcetrack>
												<mediatype>audio</mediatype>
												<trackindex>1</trackindex>
											</sourcetrack>
											<link>
												<linkclipref>clipitem-1222</linkclipref>
												<mediatype>video</mediatype>
												<trackindex>4</trackindex>
												<clipindex>1</clipindex>
											</link>
											<link>
												<linkclipref>clipitem-1229</linkclipref>
												<mediatype>audio</mediatype>
												<trackindex>7</trackindex>
												<clipindex>1</clipindex>
												<groupindex>1</groupindex>
											</link>
											<link>
												<linkclipref>clipitem-1230</linkclipref>
												<mediatype>audio</mediatype>
												<trackindex>8</trackindex>
												<clipindex>1</clipindex>
												<groupindex>1</groupindex>
											</link>
											<logginginfo>
												<description></description>
												<scene></scene>
												<shottake>AA3204</shottake>
												<lognote></lognote>
											</logginginfo>
											<labels>
												<label2>Iris</label2>
											</labels>
										</clipitem>
										<enabled>TRUE</enabled>
										<locked>FALSE</locked>
										<outputchannelindex>7</outputchannelindex>
									</track>
									<track PannerIsInverted="true" PannerName="Balance" currentExplodedTrackIndex="0" totalExplodedTrackCount="1" premiereTrackType="Stereo">
										<clipitem id="clipitem-1230" frameBlend="FALSE" premiereChannelType="mono">
											<masterclipid>masterclip-311</masterclipid>
											<name>AA3204</name>
											<enabled>TRUE</enabled>
											<duration>24168</duration>
											<rate>
												<timebase>25</timebase>
												<ntsc>FALSE</ntsc>
											</rate>
											<start>3462</start>
											<end>27630</end>
											<in>0</in>
											<out>24168</out>
											<pproTicksIn>0</pproTicksIn>
											<pproTicksOut>245562347520000</pproTicksOut>
											<file id="file-300"/>
											<sourcetrack>
												<mediatype>audio</mediatype>
												<trackindex>2</trackindex>
											</sourcetrack>
											<link>
												<linkclipref>clipitem-1222</linkclipref>
												<mediatype>video</mediatype>
												<trackindex>4</trackindex>
												<clipindex>1</clipindex>
											</link>
											<link>
												<linkclipref>clipitem-1229</linkclipref>
												<mediatype>audio</mediatype>
												<trackindex>7</trackindex>
												<clipindex>1</clipindex>
												<groupindex>1</groupindex>
											</link>
											<link>
												<linkclipref>clipitem-1230</linkclipref>
												<mediatype>audio</mediatype>
												<trackindex>8</trackindex>
												<clipindex>1</clipindex>
												<groupindex>1</groupindex>
											</link>
											<logginginfo>
												<description></description>
												<scene></scene>
												<shottake>AA3204</shottake>
												<lognote></lognote>
											</logginginfo>
											<labels>
												<label2>Iris</label2>
											</labels>
										</clipitem>
										<enabled>TRUE</enabled>
										<locked>FALSE</locked>
										<outputchannelindex>8</outputchannelindex>
									</track>
								</audio>
							</media>
							<timecode>
								<rate>
									<timebase>25</timebase>
									<ntsc>FALSE</ntsc>
								</rate>
								<string>00:00:00:00</string>
								<frame>0</frame>
								<displayformat>NDF</displayformat>
							</timecode>
						</sequence>
						<labels>
							<label2>Forest</label2>
						</labels>
					</clipitem>
					<clipitem id="clipitem-1231" frameBlend="FALSE" premiereChannelType="mono">
						<masterclipid>masterclip-307</masterclipid>
						<name>N42A0927.MOVMulticam</name>
						<enabled>TRUE</enabled>
						<duration>28012</duration>
						<rate>
							<timebase>25</timebase>
							<ntsc>FALSE</ntsc>
						</rate>
						<start>5529</start>
						<end>5551</end>
						<in>4626</in>
						<out>4648</out>
						<pproTicksIn>47003120640000</pproTicksIn>
						<pproTicksOut>47226654720000</pproTicksOut>
						<sequence id="sequence-72"/>
						<labels>
							<label2>Forest</label2>
						</labels>
					</clipitem>
					<clipitem id="clipitem-1232" frameBlend="FALSE" premiereChannelType="mono">
						<masterclipid>masterclip-307</masterclipid>
						<name>N42A0927.MOVMulticam</name>
						<enabled>TRUE</enabled>
						<duration>28012</duration>
						<rate>
							<timebase>25</timebase>
							<ntsc>FALSE</ntsc>
						</rate>
						<start>5551</start>
						<end>5576</end>
						<in>5181</in>
						<out>5206</out>
						<pproTicksIn>52642275840000</pproTicksIn>
						<pproTicksOut>52896291840000</pproTicksOut>
						<sequence id="sequence-72"/>
						<labels>
							<label2>Forest</label2>
						</labels>
					</clipitem>
					<clipitem id="clipitem-1233" frameBlend="FALSE" premiereChannelType="mono">
						<masterclipid>masterclip-307</masterclipid>
						<name>N42A0927.MOVMulticam</name>
						<enabled>TRUE</enabled>
						<duration>28012</duration>
						<rate>
							<timebase>25</timebase>
							<ntsc>FALSE</ntsc>
						</rate>
						<start>5576</start>
						<end>5607</end>
						<in>5222</in>
						<out>5253</out>
						<pproTicksIn>53058862080000</pproTicksIn>
						<pproTicksOut>53373841920000</pproTicksOut>
						<sequence id="sequence-72"/>
						<labels>
							<label2>Forest</label2>
						</labels>
					</clipitem>
					<clipitem id="clipitem-1234" frameBlend="FALSE" premiereChannelType="mono">
						<masterclipid>masterclip-307</masterclipid>
						<name>N42A0927.MOVMulticam</name>
						<enabled>TRUE</enabled>
						<duration>28012</duration>
						<rate>
							<timebase>25</timebase>
							<ntsc>FALSE</ntsc>
						</rate>
						<start>5607</start>
						<end>5644</end>
						<in>5296</in>
						<out>5333</out>
						<pproTicksIn>53810749440000</pproTicksIn>
						<pproTicksOut>54186693120000</pproTicksOut>
						<sequence id="sequence-72"/>
						<labels>
							<label2>Forest</label2>
						</labels>
					</clipitem>
					<clipitem id="clipitem-1235" frameBlend="FALSE" premiereChannelType="mono">
						<masterclipid>masterclip-307</masterclipid>
						<name>N42A0927.MOVMulticam</name>
						<enabled>TRUE</enabled>
						<duration>28012</duration>
						<rate>
							<timebase>25</timebase>
							<ntsc>FALSE</ntsc>
						</rate>
						<start>5644</start>
						<end>5684</end>
						<in>5365</in>
						<out>5405</out>
						<pproTicksIn>54511833600000</pproTicksIn>
						<pproTicksOut>54918259200000</pproTicksOut>
						<sequence id="sequence-72"/>
						<labels>
							<label2>Forest</label2>
						</labels>
					</clipitem>
					<clipitem id="clipitem-1236" frameBlend="FALSE" premiereChannelType="mono">
						<masterclipid>masterclip-307</masterclipid>
						<name>N42A0927.MOVMulticam</name>
						<enabled>TRUE</enabled>
						<duration>28012</duration>
						<rate>
							<timebase>25</timebase>
							<ntsc>FALSE</ntsc>
						</rate>
						<start>5684</start>
						<end>5708</end>
						<in>5449</in>
						<out>5473</out>
						<pproTicksIn>55365327360000</pproTicksIn>
						<pproTicksOut>55609182720000</pproTicksOut>
						<sequence id="sequence-72"/>
						<labels>
							<label2>Forest</label2>
						</labels>
					</clipitem>
					<clipitem id="clipitem-1237" frameBlend="FALSE" premiereChannelType="mono">
						<masterclipid>masterclip-307</masterclipid>
						<name>N42A0927.MOVMulticam</name>
						<enabled>TRUE</enabled>
						<duration>28012</duration>
						<rate>
							<timebase>25</timebase>
							<ntsc>FALSE</ntsc>
						</rate>
						<start>5708</start>
						<end>5892</end>
						<in>5557</in>
						<out>5741</out>
						<pproTicksIn>56462676480000</pproTicksIn>
						<pproTicksOut>58332234240000</pproTicksOut>
						<sequence id="sequence-72"/>
						<labels>
							<label2>Forest</label2>
						</labels>
					</clipitem>
					<clipitem id="clipitem-1238" frameBlend="FALSE" premiereChannelType="mono">
						<masterclipid>masterclip-307</masterclipid>
						<name>N42A0927.MOVMulticam</name>
						<enabled>TRUE</enabled>
						<duration>28012</duration>
						<rate>
							<timebase>25</timebase>
							<ntsc>FALSE</ntsc>
						</rate>
						<start>5892</start>
						<end>5925</end>
						<in>5782</in>
						<out>5815</out>
						<pproTicksIn>58748820480000</pproTicksIn>
						<pproTicksOut>59084121600000</pproTicksOut>
						<sequence id="sequence-72"/>
						<labels>
							<label2>Forest</label2>
						</labels>
					</clipitem>
					<clipitem id="clipitem-1239" frameBlend="FALSE" premiereChannelType="mono">
						<masterclipid>masterclip-307</masterclipid>
						<name>N42A0927.MOVMulticam</name>
						<enabled>TRUE</enabled>
						<duration>28012</duration>
						<rate>
							<timebase>25</timebase>
							<ntsc>FALSE</ntsc>
						</rate>
						<start>5925</start>
						<end>5997</end>
						<in>5837</in>
						<out>5909</out>
						<pproTicksIn>59307655680000</pproTicksIn>
						<pproTicksOut>60039221760000</pproTicksOut>
						<sequence id="sequence-72"/>
						<labels>
							<label2>Forest</label2>
						</labels>
					</clipitem>
					<clipitem id="clipitem-1240" frameBlend="FALSE" premiereChannelType="mono">
						<masterclipid>masterclip-307</masterclipid>
						<name>N42A0927.MOVMulticam</name>
						<enabled>TRUE</enabled>
						<duration>28012</duration>
						<rate>
							<timebase>25</timebase>
							<ntsc>FALSE</ntsc>
						</rate>
						<start>5997</start>
						<end>6070</end>
						<in>5925</in>
						<out>5998</out>
						<pproTicksIn>60201792000000</pproTicksIn>
						<pproTicksOut>60943518720000</pproTicksOut>
						<sequence id="sequence-72"/>
						<labels>
							<label2>Forest</label2>
						</labels>
					</clipitem>
					<clipitem id="clipitem-1241" frameBlend="FALSE" premiereChannelType="mono">
						<masterclipid>masterclip-307</masterclipid>
						<name>N42A0927.MOVMulticam</name>
						<enabled>TRUE</enabled>
						<duration>28012</duration>
						<rate>
							<timebase>25</timebase>
							<ntsc>FALSE</ntsc>
						</rate>
						<start>6075</start>
						<end>6355</end>
						<in>7121</in>
						<out>7401</out>
						<pproTicksIn>72353917440000</pproTicksIn>
						<pproTicksOut>75198896640000</pproTicksOut>
						<sequence id="sequence-72"/>
						<labels>
							<label2>Forest</label2>
						</labels>
					</clipitem>
					<clipitem id="clipitem-1242" frameBlend="FALSE" premiereChannelType="mono">
						<masterclipid>masterclip-307</masterclipid>
						<name>N42A0927.MOVMulticam</name>
						<enabled>TRUE</enabled>
						<duration>28012</duration>
						<rate>
							<timebase>25</timebase>
							<ntsc>FALSE</ntsc>
						</rate>
						<start>6355</start>
						<end>6379</end>
						<in>7419</in>
						<out>7443</out>
						<pproTicksIn>75381788160000</pproTicksIn>
						<pproTicksOut>75625643520000</pproTicksOut>
						<sequence id="sequence-72"/>
						<labels>
							<label2>Forest</label2>
						</labels>
					</clipitem>
					<clipitem id="clipitem-1243" frameBlend="FALSE" premiereChannelType="mono">
						<masterclipid>masterclip-307</masterclipid>
						<name>N42A0927.MOVMulticam</name>
						<enabled>TRUE</enabled>
						<duration>28012</duration>
						<rate>
							<timebase>25</timebase>
							<ntsc>FALSE</ntsc>
						</rate>
						<start>6379</start>
						<end>6400</end>
						<in>7469</in>
						<out>7490</out>
						<pproTicksIn>75889820160000</pproTicksIn>
						<pproTicksOut>76103193600000</pproTicksOut>
						<sequence id="sequence-72"/>
						<labels>
							<label2>Forest</label2>
						</labels>
					</clipitem>
					<clipitem id="clipitem-1244" frameBlend="FALSE" premiereChannelType="mono">
						<masterclipid>masterclip-307</masterclipid>
						<name>N42A0927.MOVMulticam</name>
						<enabled>TRUE</enabled>
						<duration>28012</duration>
						<rate>
							<timebase>25</timebase>
							<ntsc>FALSE</ntsc>
						</rate>
						<start>6400</start>
						<end>6846</end>
						<in>8700</in>
						<out>9146</out>
						<pproTicksIn>88397568000000</pproTicksIn>
						<pproTicksOut>92929213440000</pproTicksOut>
						<sequence id="sequence-72"/>
						<labels>
							<label2>Forest</label2>
						</labels>
					</clipitem>
					<clipitem id="clipitem-1245" frameBlend="FALSE" premiereChannelType="mono">
						<masterclipid>masterclip-307</masterclipid>
						<name>N42A0927.MOVMulticam</name>
						<enabled>TRUE</enabled>
						<duration>28012</duration>
						<rate>
							<timebase>25</timebase>
							<ntsc>FALSE</ntsc>
						</rate>
						<start>6846</start>
						<end>7007</end>
						<in>9160</in>
						<out>9321</out>
						<pproTicksIn>93071462400000</pproTicksIn>
						<pproTicksOut>94707325440000</pproTicksOut>
						<sequence id="sequence-72"/>
						<labels>
							<label2>Forest</label2>
						</labels>
					</clipitem>
					<clipitem id="clipitem-1246" frameBlend="FALSE" premiereChannelType="mono">
						<masterclipid>masterclip-322</masterclipid>
						<name>AA3117</name>
						<enabled>TRUE</enabled>
						<duration>4392</duration>
						<rate>
							<timebase>25</timebase>
							<ntsc>FALSE</ntsc>
						</rate>
						<start>7394</start>
						<end>7794</end>
						<in>2826</in>
						<out>3226</out>
						<pproTicksIn>28713968640000</pproTicksIn>
						<pproTicksOut>32778224640000</pproTicksOut>
						<file id="file-310"/>
						<sourcetrack>
							<mediatype>audio</mediatype>
							<trackindex>1</trackindex>
						</sourcetrack>
						<link>
							<linkclipref>clipitem-1083</linkclipref>
							<mediatype>video</mediatype>
							<trackindex>1</trackindex>
							<clipindex>101</clipindex>
						</link>
						<link>
							<linkclipref>clipitem-1246</linkclipref>
							<mediatype>audio</mediatype>
							<trackindex>1</trackindex>
							<clipindex>49</clipindex>
						</link>
						<logginginfo>
							<description></description>
							<scene></scene>
							<shottake>AA3117</shottake>
							<lognote></lognote>
						</logginginfo>
						<labels>
							<label2>Iris</label2>
						</labels>
					</clipitem>
					<clipitem id="clipitem-1247" frameBlend="FALSE" premiereChannelType="mono">
						<masterclipid>masterclip-324</masterclipid>
						<name>AA3120</name>
						<enabled>TRUE</enabled>
						<duration>18096</duration>
						<rate>
							<timebase>25</timebase>
							<ntsc>FALSE</ntsc>
						</rate>
						<start>7854</start>
						<end>7998</end>
						<in>4947</in>
						<out>5091</out>
						<pproTicksIn>50264686080000</pproTicksIn>
						<pproTicksOut>51727818240000</pproTicksOut>
						<file id="file-312"/>
						<sourcetrack>
							<mediatype>audio</mediatype>
							<trackindex>1</trackindex>
						</sourcetrack>
							<marker>
								<comment>følger dere med på strømprisene så dere vet når dere skal svitsje over på propan&#13;ja</comment>
								<name></name>
								<in>6525</in>
								<out>-1</out>
							</marker>
							<marker>
								<comment>april</comment>
								<name></name>
								<in>1180</in>
								<out>-1</out>
							</marker>
							<marker>
								<comment>i natt er det strøm, der er på dagtid det er dyrt med strøm</comment>
								<name></name>
								<in>7252</in>
								<out>-1</out>
							</marker>
							<marker>
								<comment>så strømregningen deres er ganske stor&#13;en stor del av slyumpen går til energi</comment>
								<name></name>
								<in>14044</in>
								<out>-1</out>
							</marker>
							<marker>
								<comment>og den norske strømmen er jo heller ikke klimanøytral, vi utveksler jo med danmark og sverige</comment>
								<name></name>
								<in>14390</in>
								<out>-1</out>
							</marker>
							<marker>
								<comment>sola står for modningen, men vi har varme</comment>
								<name></name>
								<in>3262</in>
								<out>-1</out>
							</marker>
							<marker>
								<comment></comment>
								<name>Wow</name>
								<in>672</in>
								<out>-1</out>
							</marker>
							<marker>
								<comment>prøver å finne ut hvorfor utslippene fra norske tomater blir så høye</comment>
								<name></name>
								<in>1756</in>
								<out>-1</out>
							</marker>
							<marker>
								<comment>70 prosetn 30 prosent</comment>
								<name></name>
								<in>11752</in>
								<out>-1</out>
							</marker>
							<marker>
								<comment>mål om å bli mer klimavennlig?&#13;ja, det er derfor vi skal byte t den, men vi må ha backup</comment>
								<name></name>
								<in>12253</in>
								<out>-1</out>
							</marker>
							<marker>
								<comment>om natta når det er 15 minus, holder det ikke</comment>
								<name></name>
								<in>4748</in>
								<out>-1</out>
							</marker>
							<marker>
								<comment>når får v idise, det begynner å komme i april</comment>
								<name></name>
								<in>15175</in>
								<out>-1</out>
							</marker>
							<marker>
								<comment>i dag er det ikke billigere, i dag er strømmen dyr</comment>
								<name></name>
								<in>5536</in>
								<out>-1</out>
							</marker>
							<marker>
								<comment>så ahr vi propanbrener</comment>
								<name></name>
								<in>3681</in>
								<out>-1</out>
							</marker>
							<marker>
								<comment>varmen produserer innni her?&#13;det er en ovn og det er en ovn</comment>
								<name></name>
								<in>5893</in>
								<out>-1</out>
							</marker>
							<marker>
								<comment>i åære har får vi 10 prosent lys og 90 prosent varme</comment>
								<name></name>
								<in>4490</in>
								<out>-1</out>
							</marker>
							<marker>
								<comment>Vi skal ha dobbelt så mye co2. og det må dere ta fra gass? vi kan kjøpe det, men det er dumt når vi først lager det</comment>
								<name></name>
								<in>9185</in>
								<out>-1</out>
							</marker>
							<marker>
								<comment>det går med mye lys&#13;ja, det går mye nå</comment>
								<name></name>
								<in>2878</in>
								<out>-1</out>
							</marker>
							<marker>
								<comment>her er gass,propanbrenneren og her er elkjelen</comment>
								<name></name>
								<in>5042</in>
								<out>-1</out>
							</marker>
						<link>
							<linkclipref>clipitem-1085</linkclipref>
							<mediatype>video</mediatype>
							<trackindex>1</trackindex>
							<clipindex>103</clipindex>
						</link>
						<link>
							<linkclipref>clipitem-1247</linkclipref>
							<mediatype>audio</mediatype>
							<trackindex>1</trackindex>
							<clipindex>50</clipindex>
						</link>
						<link>
							<linkclipref>clipitem-1329</linkclipref>
							<mediatype>audio</mediatype>
							<trackindex>2</trackindex>
							<clipindex>39</clipindex>
						</link>
						<logginginfo>
							<description></description>
							<scene></scene>
							<shottake>AA3120</shottake>
							<lognote></lognote>
						</logginginfo>
						<labels>
							<label2>Iris</label2>
						</labels>
					</clipitem>
					<clipitem id="clipitem-1248" frameBlend="FALSE" premiereChannelType="mono">
						<masterclipid>masterclip-324</masterclipid>
						<name>AA3120</name>
						<enabled>TRUE</enabled>
						<duration>18096</duration>
						<rate>
							<timebase>25</timebase>
							<ntsc>FALSE</ntsc>
						</rate>
						<start>7998</start>
						<end>8255</end>
						<in>6454</in>
						<out>6711</out>
						<pproTicksIn>65576770560000</pproTicksIn>
						<pproTicksOut>68188055040000</pproTicksOut>
						<file id="file-312"/>
						<sourcetrack>
							<mediatype>audio</mediatype>
							<trackindex>1</trackindex>
						</sourcetrack>
							<marker>
								<comment>følger dere med på strømprisene så dere vet når dere skal svitsje over på propan&#13;ja</comment>
								<name></name>
								<in>6525</in>
								<out>-1</out>
							</marker>
							<marker>
								<comment>april</comment>
								<name></name>
								<in>1180</in>
								<out>-1</out>
							</marker>
							<marker>
								<comment>i natt er det strøm, der er på dagtid det er dyrt med strøm</comment>
								<name></name>
								<in>7252</in>
								<out>-1</out>
							</marker>
							<marker>
								<comment>så strømregningen deres er ganske stor&#13;en stor del av slyumpen går til energi</comment>
								<name></name>
								<in>14044</in>
								<out>-1</out>
							</marker>
							<marker>
								<comment>og den norske strømmen er jo heller ikke klimanøytral, vi utveksler jo med danmark og sverige</comment>
								<name></name>
								<in>14390</in>
								<out>-1</out>
							</marker>
							<marker>
								<comment>sola står for modningen, men vi har varme</comment>
								<name></name>
								<in>3262</in>
								<out>-1</out>
							</marker>
							<marker>
								<comment></comment>
								<name>Wow</name>
								<in>672</in>
								<out>-1</out>
							</marker>
							<marker>
								<comment>prøver å finne ut hvorfor utslippene fra norske tomater blir så høye</comment>
								<name></name>
								<in>1756</in>
								<out>-1</out>
							</marker>
							<marker>
								<comment>70 prosetn 30 prosent</comment>
								<name></name>
								<in>11752</in>
								<out>-1</out>
							</marker>
							<marker>
								<comment>mål om å bli mer klimavennlig?&#13;ja, det er derfor vi skal byte t den, men vi må ha backup</comment>
								<name></name>
								<in>12253</in>
								<out>-1</out>
							</marker>
							<marker>
								<comment>om natta når det er 15 minus, holder det ikke</comment>
								<name></name>
								<in>4748</in>
								<out>-1</out>
							</marker>
							<marker>
								<comment>når får v idise, det begynner å komme i april</comment>
								<name></name>
								<in>15175</in>
								<out>-1</out>
							</marker>
							<marker>
								<comment>i dag er det ikke billigere, i dag er strømmen dyr</comment>
								<name></name>
								<in>5536</in>
								<out>-1</out>
							</marker>
							<marker>
								<comment>så ahr vi propanbrener</comment>
								<name></name>
								<in>3681</in>
								<out>-1</out>
							</marker>
							<marker>
								<comment>varmen produserer innni her?&#13;det er en ovn og det er en ovn</comment>
								<name></name>
								<in>5893</in>
								<out>-1</out>
							</marker>
							<marker>
								<comment>i åære har får vi 10 prosent lys og 90 prosent varme</comment>
								<name></name>
								<in>4490</in>
								<out>-1</out>
							</marker>
							<marker>
								<comment>Vi skal ha dobbelt så mye co2. og det må dere ta fra gass? vi kan kjøpe det, men det er dumt når vi først lager det</comment>
								<name></name>
								<in>9185</in>
								<out>-1</out>
							</marker>
							<marker>
								<comment>det går med mye lys&#13;ja, det går mye nå</comment>
								<name></name>
								<in>2878</in>
								<out>-1</out>
							</marker>
							<marker>
								<comment>her er gass,propanbrenneren og her er elkjelen</comment>
								<name></name>
								<in>5042</in>
								<out>-1</out>
							</marker>
						<link>
							<linkclipref>clipitem-1087</linkclipref>
							<mediatype>video</mediatype>
							<trackindex>1</trackindex>
							<clipindex>105</clipindex>
						</link>
						<link>
							<linkclipref>clipitem-1248</linkclipref>
							<mediatype>audio</mediatype>
							<trackindex>1</trackindex>
							<clipindex>51</clipindex>
						</link>
						<link>
							<linkclipref>clipitem-1330</linkclipref>
							<mediatype>audio</mediatype>
							<trackindex>2</trackindex>
							<clipindex>40</clipindex>
						</link>
						<logginginfo>
							<description></description>
							<scene></scene>
							<shottake>AA3120</shottake>
							<lognote></lognote>
						</logginginfo>
						<labels>
							<label2>Iris</label2>
						</labels>
					</clipitem>
					<clipitem id="clipitem-1249" frameBlend="FALSE" premiereChannelType="mono">
						<masterclipid>masterclip-326</masterclipid>
						<name>AA3121</name>
						<enabled>TRUE</enabled>
						<duration>30672</duration>
						<rate>
							<timebase>25</timebase>
							<ntsc>FALSE</ntsc>
						</rate>
						<start>8700</start>
						<end>8952</end>
						<in>27992</in>
						<out>28244</out>
						<pproTicksIn>284416634880000</pproTicksIn>
						<pproTicksOut>286977116160000</pproTicksOut>
						<file id="file-314"/>
						<sourcetrack>
							<mediatype>audio</mediatype>
							<trackindex>1</trackindex>
						</sourcetrack>
							<marker>
								<comment>hva kan du jør for  få ned utslippene?&#13;jeg gjør det jeg kan jeg, vi må ha energi</comment>
								<name></name>
								<in>24984</in>
								<out>-1</out>
							</marker>
							<marker>
								<comment>er står det grad,er er det antall garder den leverer ut?</comment>
								<name></name>
								<in>9067</in>
								<out>-1</out>
							</marker>
							<marker>
								<comment>da hadde vi kommet i gang 2 måneder seinere kanskje</comment>
								<name></name>
								<in>10792</in>
								<out>-1</out>
							</marker>
							<marker>
								<comment>klima eller økonoi?&#13;det viktigste er at vi skal få ting til å gå rundt&#13;men når skjer det da?</comment>
								<name></name>
								<in>18590</in>
								<out>-1</out>
							</marker>
							<marker>
								<comment>de greiene du klarer å spare penger på, da er d mer miljøvennlig</comment>
								<name></name>
								<in>3995</in>
								<out>-1</out>
							</marker>
							<marker>
								<comment>hva hadde skjedd hvis dere skull bare dyrke med natrulig sollys?&#13;DA må vi vente med å så, vnete på sola</comment>
								<name></name>
								<in>10417</in>
								<out>-1</out>
							</marker>
							<marker>
								<comment>jeg få ikke til å bruke mindre</comment>
								<name></name>
								<in>25788</in>
								<out>-1</out>
							</marker>
							<marker>
								<comment>vi kjøper ullkraft fra damark, kankjs elurere med gasskraft i norge</comment>
								<name></name>
								<in>25318</in>
								<out>-1</out>
							</marker>
							<marker>
								<comment>det er dyrere med nyttedyr enne sprøyting men det er lettere</comment>
								<name></name>
								<in>22539</in>
								<out>-1</out>
							</marker>
							<marker>
								<comment>jeg tar de tallene med en klype salt</comment>
								<name></name>
								<in>24377</in>
								<out>-1</out>
							</marker>
							<marker>
								<comment>mulig det er noe mer som gå an, jeg er usikker</comment>
								<name></name>
								<in>26037</in>
								<out>-1</out>
							</marker>
							<marker>
								<comment>må man bruke torv?&#13;nei du kan stappe sokkene dine oppi om du vil</comment>
								<name></name>
								<in>17369</in>
								<out>-1</out>
							</marker>
							<marker>
								<comment>men det blir dyrt</comment>
								<name></name>
								<in>17768</in>
								<out>-1</out>
							</marker>
							<marker>
								<comment>varmepmpe lønner seg fort, vurderte å ta fra havet, men vi er for små, hadde vi vært 10 ganger større, hadde vi vurdert det</comment>
								<name></name>
								<in>28786</in>
								<out>-1</out>
							</marker>
						<link>
							<linkclipref>clipitem-1094</linkclipref>
							<mediatype>video</mediatype>
							<trackindex>1</trackindex>
							<clipindex>112</clipindex>
						</link>
						<link>
							<linkclipref>clipitem-1249</linkclipref>
							<mediatype>audio</mediatype>
							<trackindex>1</trackindex>
							<clipindex>52</clipindex>
						</link>
						<link>
							<linkclipref>clipitem-1331</linkclipref>
							<mediatype>audio</mediatype>
							<trackindex>2</trackindex>
							<clipindex>41</clipindex>
						</link>
						<logginginfo>
							<description></description>
							<scene></scene>
							<shottake>AA3121</shottake>
							<lognote></lognote>
						</logginginfo>
						<labels>
							<label2>Iris</label2>
						</labels>
					</clipitem>
					<clipitem id="clipitem-1250" frameBlend="FALSE" premiereChannelType="mono">
						<masterclipid>masterclip-332</masterclipid>
						<name>AA3112Multicam</name>
						<enabled>TRUE</enabled>
						<duration>19380</duration>
						<rate>
							<timebase>25</timebase>
							<ntsc>FALSE</ntsc>
						</rate>
						<start>9413</start>
						<end>9590</end>
						<in>3644</in>
						<out>3821</out>
						<pproTicksIn>37025372160000</pproTicksIn>
						<pproTicksOut>38823805440000</pproTicksOut>
						<sequence id="sequence-73" MZ.Sequence.PreviewFrameSizeHeight="1080" MZ.Sequence.PreviewFrameSizeWidth="1920" MZ.Sequence.AudioTimeDisplayFormat="200" MZ.Sequence.PreviewRenderingClassID="1297106761" MZ.Sequence.PreviewRenderingPresetCodec="1297107278" MZ.Sequence.PreviewRenderingPresetPath="EncoderPresets/SequencePreview/795454d9-d3c2-429d-9474-923ab13b7018/I-Frame Only MPEG.epr" MZ.Sequence.PreviewUseMaxRenderQuality="false" MZ.Sequence.PreviewUseMaxBitDepth="false" MZ.Sequence.EditingModeGUID="795454d9-d3c2-429d-9474-923ab13b7018" MZ.Sequence.VideoTimeDisplayFormat="101" MZ.WorkOutPoint="15240960000000" MZ.WorkInPoint="0">
							<duration>19380</duration>
							<rate>
								<timebase>25</timebase>
								<ntsc>FALSE</ntsc>
							</rate>
							<name>AA3112Multicam</name>
							<media>
								<video>
									<format>
										<samplecharacteristics>
											<rate>
												<timebase>25</timebase>
												<ntsc>FALSE</ntsc>
											</rate>
											<codec>
												<name>Apple ProRes 422</name>
												<appspecificdata>
													<appname>Final Cut Pro</appname>
													<appmanufacturer>Apple Inc.</appmanufacturer>
													<appversion>7.0</appversion>
													<data>
														<qtcodec>
															<codecname>Apple ProRes 422</codecname>
															<codectypename>Apple ProRes 422</codectypename>
															<codectypecode>apcn</codectypecode>
															<codecvendorcode>appl</codecvendorcode>
															<spatialquality>1024</spatialquality>
															<temporalquality>0</temporalquality>
															<keyframerate>0</keyframerate>
															<datarate>0</datarate>
														</qtcodec>
													</data>
												</appspecificdata>
											</codec>
											<width>1920</width>
											<height>1080</height>
											<anamorphic>FALSE</anamorphic>
											<pixelaspectratio>square</pixelaspectratio>
											<fielddominance>upper</fielddominance>
											<colordepth>24</colordepth>
										</samplecharacteristics>
									</format>
									<track TL.SQTrackExpandedHeight="25" TL.SQTrackExpanded="0" MZ.TrackTargeted="0">
										<clipitem id="clipitem-1251" frameBlend="FALSE">
											<masterclipid>masterclip-333</masterclipid>
											<name>AA3112</name>
											<enabled>TRUE</enabled>
											<duration>17748</duration>
											<rate>
												<timebase>25</timebase>
												<ntsc>FALSE</ntsc>
											</rate>
											<start>1632</start>
											<end>19380</end>
											<in>0</in>
											<out>17748</out>
											<pproTicksIn>0</pproTicksIn>
											<pproTicksOut>180331038720000</pproTicksOut>
											<alphatype>none</alphatype>
											<file id="file-320"/>
											<link>
												<linkclipref>clipitem-1251</linkclipref>
												<mediatype>video</mediatype>
												<trackindex>1</trackindex>
												<clipindex>1</clipindex>
											</link>
											<link>
												<linkclipref>clipitem-1253</linkclipref>
												<mediatype>audio</mediatype>
												<trackindex>1</trackindex>
												<clipindex>1</clipindex>
												<groupindex>1</groupindex>
											</link>
											<link>
												<linkclipref>clipitem-1254</linkclipref>
												<mediatype>audio</mediatype>
												<trackindex>2</trackindex>
												<clipindex>1</clipindex>
												<groupindex>1</groupindex>
											</link>
											<logginginfo>
												<description></description>
												<scene></scene>
												<shottake>AA3112</shottake>
												<lognote></lognote>
											</logginginfo>
											<labels>
												<label2>Iris</label2>
											</labels>
										</clipitem>
										<enabled>TRUE</enabled>
										<locked>FALSE</locked>
									</track>
									<track>
										<clipitem id="clipitem-1252" frameBlend="FALSE">
											<masterclipid>masterclip-334</masterclipid>
											<name>MVI_4734.MOV</name>
											<enabled>TRUE</enabled>
											<duration>18661</duration>
											<rate>
												<timebase>25</timebase>
												<ntsc>FALSE</ntsc>
											</rate>
											<start>0</start>
											<end>18661</end>
											<in>0</in>
											<out>18661</out>
											<pproTicksIn>0</pproTicksIn>
											<pproTicksOut>189607703040000</pproTicksOut>
											<alphatype>black</alphatype>
											<file id="file-321"/>
											<link>
												<linkclipref>clipitem-1252</linkclipref>
												<mediatype>video</mediatype>
												<trackindex>2</trackindex>
												<clipindex>1</clipindex>
											</link>
											<link>
												<linkclipref>clipitem-1255</linkclipref>
												<mediatype>audio</mediatype>
												<trackindex>3</trackindex>
												<clipindex>1</clipindex>
												<groupindex>1</groupindex>
											</link>
											<link>
												<linkclipref>clipitem-1256</linkclipref>
												<mediatype>audio</mediatype>
												<trackindex>4</trackindex>
												<clipindex>1</clipindex>
												<groupindex>1</groupindex>
											</link>
											<logginginfo>
												<description></description>
												<scene></scene>
												<shottake></shottake>
												<lognote></lognote>
											</logginginfo>
											<labels>
												<label2>Iris</label2>
											</labels>
										</clipitem>
										<enabled>TRUE</enabled>
										<locked>FALSE</locked>
									</track>
								</video>
								<audio>
									<numOutputChannels>4</numOutputChannels>
									<format>
										<samplecharacteristics>
											<depth>16</depth>
											<samplerate>48000</samplerate>
										</samplecharacteristics>
									</format>
									<outputs>
										<group>
											<index>1</index>
											<numchannels>1</numchannels>
											<downmix>0</downmix>
											<channel>
												<index>1</index>
											</channel>
										</group>
										<group>
											<index>2</index>
											<numchannels>1</numchannels>
											<downmix>0</downmix>
											<channel>
												<index>2</index>
											</channel>
										</group>
										<group>
											<index>3</index>
											<numchannels>1</numchannels>
											<downmix>0</downmix>
											<channel>
												<index>3</index>
											</channel>
										</group>
										<group>
											<index>4</index>
											<numchannels>1</numchannels>
											<downmix>0</downmix>
											<channel>
												<index>4</index>
											</channel>
										</group>
									</outputs>
									<track TL.SQTrackExpandedHeight="25" TL.SQTrackExpanded="0" MZ.TrackTargeted="1" PannerCurrentValue="0" PannerIsInverted="true" PannerStartKeyframe="-91445760000000000,0.,0,0,0,0,0,0" PannerName="Balance" currentExplodedTrackIndex="0" totalExplodedTrackCount="1" premiereTrackType="Stereo">
										<clipitem id="clipitem-1253" frameBlend="FALSE" premiereChannelType="mono">
											<masterclipid>masterclip-333</masterclipid>
											<name>AA3112</name>
											<enabled>TRUE</enabled>
											<duration>17748</duration>
											<rate>
												<timebase>25</timebase>
												<ntsc>FALSE</ntsc>
											</rate>
											<start>1632</start>
											<end>19380</end>
											<in>0</in>
											<out>17748</out>
											<pproTicksIn>0</pproTicksIn>
											<pproTicksOut>180331038720000</pproTicksOut>
											<file id="file-320"/>
											<sourcetrack>
												<mediatype>audio</mediatype>
												<trackindex>1</trackindex>
											</sourcetrack>
											<link>
												<linkclipref>clipitem-1251</linkclipref>
												<mediatype>video</mediatype>
												<trackindex>1</trackindex>
												<clipindex>1</clipindex>
											</link>
											<link>
												<linkclipref>clipitem-1253</linkclipref>
												<mediatype>audio</mediatype>
												<trackindex>1</trackindex>
												<clipindex>1</clipindex>
												<groupindex>1</groupindex>
											</link>
											<link>
												<linkclipref>clipitem-1254</linkclipref>
												<mediatype>audio</mediatype>
												<trackindex>2</trackindex>
												<clipindex>1</clipindex>
												<groupindex>1</groupindex>
											</link>
											<logginginfo>
												<description></description>
												<scene></scene>
												<shottake>AA3112</shottake>
												<lognote></lognote>
											</logginginfo>
											<labels>
												<label2>Iris</label2>
											</labels>
										</clipitem>
										<enabled>TRUE</enabled>
										<locked>FALSE</locked>
										<outputchannelindex>1</outputchannelindex>
									</track>
									<track TL.SQTrackExpandedHeight="25" TL.SQTrackExpanded="0" MZ.TrackTargeted="1" PannerIsInverted="true" PannerName="Balance" currentExplodedTrackIndex="0" totalExplodedTrackCount="1" premiereTrackType="Stereo">
										<clipitem id="clipitem-1254" frameBlend="FALSE" premiereChannelType="mono">
											<masterclipid>masterclip-333</masterclipid>
											<name>AA3112</name>
											<enabled>TRUE</enabled>
											<duration>17748</duration>
											<rate>
												<timebase>25</timebase>
												<ntsc>FALSE</ntsc>
											</rate>
											<start>1632</start>
											<end>19380</end>
											<in>0</in>
											<out>17748</out>
											<pproTicksIn>0</pproTicksIn>
											<pproTicksOut>180331038720000</pproTicksOut>
											<file id="file-320"/>
											<sourcetrack>
												<mediatype>audio</mediatype>
												<trackindex>2</trackindex>
											</sourcetrack>
											<link>
												<linkclipref>clipitem-1251</linkclipref>
												<mediatype>video</mediatype>
												<trackindex>1</trackindex>
												<clipindex>1</clipindex>
											</link>
											<link>
												<linkclipref>clipitem-1253</linkclipref>
												<mediatype>audio</mediatype>
												<trackindex>1</trackindex>
												<clipindex>1</clipindex>
												<groupindex>1</groupindex>
											</link>
											<link>
												<linkclipref>clipitem-1254</linkclipref>
												<mediatype>audio</mediatype>
												<trackindex>2</trackindex>
												<clipindex>1</clipindex>
												<groupindex>1</groupindex>
											</link>
											<logginginfo>
												<description></description>
												<scene></scene>
												<shottake>AA3112</shottake>
												<lognote></lognote>
											</logginginfo>
											<labels>
												<label2>Iris</label2>
											</labels>
										</clipitem>
										<enabled>TRUE</enabled>
										<locked>FALSE</locked>
										<outputchannelindex>2</outputchannelindex>
									</track>
									<track TL.SQTrackExpandedHeight="25" TL.SQTrackExpanded="0" MZ.TrackTargeted="1" PannerCurrentValue="0" PannerIsInverted="true" PannerStartKeyframe="-91445760000000000,0.,0,0,0,0,0,0" PannerName="Balance" currentExplodedTrackIndex="0" totalExplodedTrackCount="1" premiereTrackType="Stereo">
										<clipitem id="clipitem-1255" frameBlend="FALSE" premiereChannelType="mono">
											<masterclipid>masterclip-334</masterclipid>
											<name>MVI_4734.MOV</name>
											<enabled>TRUE</enabled>
											<duration>18661</duration>
											<rate>
												<timebase>25</timebase>
												<ntsc>FALSE</ntsc>
											</rate>
											<start>0</start>
											<end>18661</end>
											<in>0</in>
											<out>18661</out>
											<pproTicksIn>0</pproTicksIn>
											<pproTicksOut>189607703040000</pproTicksOut>
											<file id="file-321"/>
											<sourcetrack>
												<mediatype>audio</mediatype>
												<trackindex>1</trackindex>
											</sourcetrack>
											<link>
												<linkclipref>clipitem-1252</linkclipref>
												<mediatype>video</mediatype>
												<trackindex>2</trackindex>
												<clipindex>1</clipindex>
											</link>
											<link>
												<linkclipref>clipitem-1255</linkclipref>
												<mediatype>audio</mediatype>
												<trackindex>3</trackindex>
												<clipindex>1</clipindex>
												<groupindex>1</groupindex>
											</link>
											<link>
												<linkclipref>clipitem-1256</linkclipref>
												<mediatype>audio</mediatype>
												<trackindex>4</trackindex>
												<clipindex>1</clipindex>
												<groupindex>1</groupindex>
											</link>
											<logginginfo>
												<description></description>
												<scene></scene>
												<shottake></shottake>
												<lognote></lognote>
											</logginginfo>
											<labels>
												<label2>Iris</label2>
											</labels>
										</clipitem>
										<enabled>TRUE</enabled>
										<locked>FALSE</locked>
										<outputchannelindex>3</outputchannelindex>
									</track>
									<track TL.SQTrackExpandedHeight="25" TL.SQTrackExpanded="0" MZ.TrackTargeted="1" PannerIsInverted="true" PannerName="Balance" currentExplodedTrackIndex="0" totalExplodedTrackCount="1" premiereTrackType="Stereo">
										<clipitem id="clipitem-1256" frameBlend="FALSE" premiereChannelType="mono">
											<masterclipid>masterclip-334</masterclipid>
											<name>MVI_4734.MOV</name>
											<enabled>TRUE</enabled>
											<duration>18661</duration>
											<rate>
												<timebase>25</timebase>
												<ntsc>FALSE</ntsc>
											</rate>
											<start>0</start>
											<end>18661</end>
											<in>0</in>
											<out>18661</out>
											<pproTicksIn>0</pproTicksIn>
											<pproTicksOut>189607703040000</pproTicksOut>
											<file id="file-321"/>
											<sourcetrack>
												<mediatype>audio</mediatype>
												<trackindex>2</trackindex>
											</sourcetrack>
											<link>
												<linkclipref>clipitem-1252</linkclipref>
												<mediatype>video</mediatype>
												<trackindex>2</trackindex>
												<clipindex>1</clipindex>
											</link>
											<link>
												<linkclipref>clipitem-1255</linkclipref>
												<mediatype>audio</mediatype>
												<trackindex>3</trackindex>
												<clipindex>1</clipindex>
												<groupindex>1</groupindex>
											</link>
											<link>
												<linkclipref>clipitem-1256</linkclipref>
												<mediatype>audio</mediatype>
												<trackindex>4</trackindex>
												<clipindex>1</clipindex>
												<groupindex>1</groupindex>
											</link>
											<logginginfo>
												<description></description>
												<scene></scene>
												<shottake></shottake>
												<lognote></lognote>
											</logginginfo>
											<labels>
												<label2>Iris</label2>
											</labels>
										</clipitem>
										<enabled>TRUE</enabled>
										<locked>FALSE</locked>
										<outputchannelindex>4</outputchannelindex>
									</track>
								</audio>
							</media>
							<timecode>
								<rate>
									<timebase>25</timebase>
									<ntsc>FALSE</ntsc>
								</rate>
								<string>00:00:00:00</string>
								<frame>0</frame>
								<displayformat>NDF</displayformat>
							</timecode>
						</sequence>
						<link>
							<linkclipref>clipitem-1099</linkclipref>
							<mediatype>video</mediatype>
							<trackindex>1</trackindex>
							<clipindex>117</clipindex>
						</link>
						<link>
							<linkclipref>clipitem-1250</linkclipref>
							<mediatype>audio</mediatype>
							<trackindex>1</trackindex>
							<clipindex>53</clipindex>
						</link>
						<link>
							<linkclipref>clipitem-1332</linkclipref>
							<mediatype>audio</mediatype>
							<trackindex>2</trackindex>
							<clipindex>42</clipindex>
						</link>
						<labels>
							<label2>Forest</label2>
						</labels>
					</clipitem>
					<clipitem id="clipitem-1257" frameBlend="FALSE" premiereChannelType="mono">
						<masterclipid>masterclip-332</masterclipid>
						<name>AA3112Multicam</name>
						<enabled>TRUE</enabled>
						<duration>19380</duration>
						<rate>
							<timebase>25</timebase>
							<ntsc>FALSE</ntsc>
						</rate>
						<start>9590</start>
						<end>9715</end>
						<in>7054</in>
						<out>7179</out>
						<pproTicksIn>71673154560000</pproTicksIn>
						<pproTicksOut>72943234560000</pproTicksOut>
						<sequence id="sequence-73"/>
						<link>
							<linkclipref>clipitem-1106</linkclipref>
							<mediatype>video</mediatype>
							<trackindex>1</trackindex>
							<clipindex>118</clipindex>
						</link>
						<link>
							<linkclipref>clipitem-1257</linkclipref>
							<mediatype>audio</mediatype>
							<trackindex>1</trackindex>
							<clipindex>54</clipindex>
						</link>
						<link>
							<linkclipref>clipitem-1333</linkclipref>
							<mediatype>audio</mediatype>
							<trackindex>2</trackindex>
							<clipindex>43</clipindex>
						</link>
						<labels>
							<label2>Forest</label2>
						</labels>
					</clipitem>
					<clipitem id="clipitem-1258" frameBlend="FALSE" premiereChannelType="mono">
						<masterclipid>masterclip-332</masterclipid>
						<name>AA3112Multicam</name>
						<enabled>TRUE</enabled>
						<duration>19380</duration>
						<rate>
							<timebase>25</timebase>
							<ntsc>FALSE</ntsc>
						</rate>
						<start>9715</start>
						<end>9792</end>
						<in>7906</in>
						<out>7983</out>
						<pproTicksIn>80330019840000</pproTicksIn>
						<pproTicksOut>81112389120000</pproTicksOut>
						<sequence id="sequence-73"/>
						<link>
							<linkclipref>clipitem-1107</linkclipref>
							<mediatype>video</mediatype>
							<trackindex>1</trackindex>
							<clipindex>119</clipindex>
						</link>
						<link>
							<linkclipref>clipitem-1258</linkclipref>
							<mediatype>audio</mediatype>
							<trackindex>1</trackindex>
							<clipindex>55</clipindex>
						</link>
						<link>
							<linkclipref>clipitem-1334</linkclipref>
							<mediatype>audio</mediatype>
							<trackindex>2</trackindex>
							<clipindex>44</clipindex>
						</link>
						<labels>
							<label2>Forest</label2>
						</labels>
					</clipitem>
					<clipitem id="clipitem-1259" frameBlend="FALSE" premiereChannelType="mono">
						<masterclipid>masterclip-332</masterclipid>
						<name>AA3112Multicam</name>
						<enabled>TRUE</enabled>
						<duration>19380</duration>
						<rate>
							<timebase>25</timebase>
							<ntsc>FALSE</ntsc>
						</rate>
						<start>9792</start>
						<end>9863</end>
						<in>7983</in>
						<out>8054</out>
						<pproTicksIn>81112389120000</pproTicksIn>
						<pproTicksOut>81833794560000</pproTicksOut>
						<sequence id="sequence-73"/>
						<link>
							<linkclipref>clipitem-1108</linkclipref>
							<mediatype>video</mediatype>
							<trackindex>1</trackindex>
							<clipindex>120</clipindex>
						</link>
						<link>
							<linkclipref>clipitem-1259</linkclipref>
							<mediatype>audio</mediatype>
							<trackindex>1</trackindex>
							<clipindex>56</clipindex>
						</link>
						<link>
							<linkclipref>clipitem-1335</linkclipref>
							<mediatype>audio</mediatype>
							<trackindex>2</trackindex>
							<clipindex>45</clipindex>
						</link>
						<labels>
							<label2>Forest</label2>
						</labels>
					</clipitem>
					<clipitem id="clipitem-1260" frameBlend="FALSE" premiereChannelType="mono">
						<masterclipid>masterclip-332</masterclipid>
						<name>AA3112Multicam</name>
						<enabled>TRUE</enabled>
						<duration>19380</duration>
						<rate>
							<timebase>25</timebase>
							<ntsc>FALSE</ntsc>
						</rate>
						<start>9863</start>
						<end>9910</end>
						<in>8307</in>
						<out>8354</out>
						<pproTicksIn>84404436480000</pproTicksIn>
						<pproTicksOut>84881986560000</pproTicksOut>
						<sequence id="sequence-73"/>
						<link>
							<linkclipref>clipitem-1109</linkclipref>
							<mediatype>video</mediatype>
							<trackindex>1</trackindex>
							<clipindex>121</clipindex>
						</link>
						<link>
							<linkclipref>clipitem-1260</linkclipref>
							<mediatype>audio</mediatype>
							<trackindex>1</trackindex>
							<clipindex>57</clipindex>
						</link>
						<link>
							<linkclipref>clipitem-1336</linkclipref>
							<mediatype>audio</mediatype>
							<trackindex>2</trackindex>
							<clipindex>46</clipindex>
						</link>
						<labels>
							<label2>Forest</label2>
						</labels>
					</clipitem>
					<clipitem id="clipitem-1261" frameBlend="FALSE" premiereChannelType="mono">
						<masterclipid>masterclip-332</masterclipid>
						<name>AA3112Multicam</name>
						<enabled>TRUE</enabled>
						<duration>19380</duration>
						<rate>
							<timebase>25</timebase>
							<ntsc>FALSE</ntsc>
						</rate>
						<start>9910</start>
						<end>-1</end>
						<in>8600</in>
						<out>8623</out>
						<pproTicksIn>87381504000000</pproTicksIn>
						<pproTicksOut>87615198720000</pproTicksOut>
						<sequence id="sequence-73"/>
						<link>
							<linkclipref>clipitem-1110</linkclipref>
							<mediatype>video</mediatype>
							<trackindex>1</trackindex>
							<clipindex>122</clipindex>
						</link>
						<link>
							<linkclipref>clipitem-1261</linkclipref>
							<mediatype>audio</mediatype>
							<trackindex>1</trackindex>
							<clipindex>58</clipindex>
						</link>
						<link>
							<linkclipref>clipitem-1337</linkclipref>
							<mediatype>audio</mediatype>
							<trackindex>2</trackindex>
							<clipindex>47</clipindex>
						</link>
						<labels>
							<label2>Forest</label2>
						</labels>
					</clipitem>
					<transitionitem>
						<start>9931</start>
						<end>9933</end>
						<alignment>center</alignment>
						<cutPoint>0</cutPoint>
						<rate>
							<timebase>25</timebase>
							<ntsc>FALSE</ntsc>
						</rate>
						<effect>
							<name>Cross Fade (+3dB)</name>
							<effectid>KGAudioTransCrossFade3dB</effectid>
							<effecttype>transition</effecttype>
							<mediatype>audio</mediatype>
							<wipecode>0</wipecode>
							<wipeaccuracy>100</wipeaccuracy>
							<startratio>0</startratio>
							<endratio>1</endratio>
							<reverse>FALSE</reverse>
						</effect>
					</transitionitem>
					<clipitem id="clipitem-1262" frameBlend="FALSE" premiereChannelType="mono">
						<masterclipid>masterclip-332</masterclipid>
						<name>AA3112Multicam</name>
						<enabled>TRUE</enabled>
						<duration>19380</duration>
						<rate>
							<timebase>25</timebase>
							<ntsc>FALSE</ntsc>
						</rate>
						<start>-1</start>
						<end>9964</end>
						<in>8629</in>
						<out>8662</out>
						<pproTicksIn>87676162560000</pproTicksIn>
						<pproTicksOut>88011463680000</pproTicksOut>
						<sequence id="sequence-73"/>
						<link>
							<linkclipref>clipitem-1111</linkclipref>
							<mediatype>video</mediatype>
							<trackindex>1</trackindex>
							<clipindex>123</clipindex>
						</link>
						<link>
							<linkclipref>clipitem-1262</linkclipref>
							<mediatype>audio</mediatype>
							<trackindex>1</trackindex>
							<clipindex>60</clipindex>
						</link>
						<link>
							<linkclipref>clipitem-1338</linkclipref>
							<mediatype>audio</mediatype>
							<trackindex>2</trackindex>
							<clipindex>49</clipindex>
						</link>
						<labels>
							<label2>Forest</label2>
						</labels>
					</clipitem>
					<clipitem id="clipitem-1263" frameBlend="FALSE" premiereChannelType="mono">
						<masterclipid>masterclip-335</masterclipid>
						<name>AA3154</name>
						<enabled>TRUE</enabled>
						<duration>2508</duration>
						<rate>
							<timebase>25</timebase>
							<ntsc>FALSE</ntsc>
						</rate>
						<start>9964</start>
						<end>10236</end>
						<in>2038</in>
						<out>2310</out>
						<pproTicksIn>20707384320000</pproTicksIn>
						<pproTicksOut>23471078400000</pproTicksOut>
						<file id="file-322"/>
						<sourcetrack>
							<mediatype>audio</mediatype>
							<trackindex>1</trackindex>
						</sourcetrack>
						<link>
							<linkclipref>clipitem-1112</linkclipref>
							<mediatype>video</mediatype>
							<trackindex>1</trackindex>
							<clipindex>124</clipindex>
						</link>
						<link>
							<linkclipref>clipitem-1263</linkclipref>
							<mediatype>audio</mediatype>
							<trackindex>1</trackindex>
							<clipindex>61</clipindex>
						</link>
						<logginginfo>
							<description></description>
							<scene></scene>
							<shottake>AA3154</shottake>
							<lognote></lognote>
						</logginginfo>
						<labels>
							<label2>Iris</label2>
						</labels>
					</clipitem>
					<clipitem id="clipitem-1264" frameBlend="FALSE" premiereChannelType="mono">
						<masterclipid>masterclip-336</masterclipid>
						<name>AA3155</name>
						<enabled>TRUE</enabled>
						<duration>5124</duration>
						<rate>
							<timebase>25</timebase>
							<ntsc>FALSE</ntsc>
						</rate>
						<start>10236</start>
						<end>10316</end>
						<in>874</in>
						<out>954</out>
						<pproTicksIn>8880399360000</pproTicksIn>
						<pproTicksOut>9693250560000</pproTicksOut>
						<file id="file-323"/>
						<sourcetrack>
							<mediatype>audio</mediatype>
							<trackindex>1</trackindex>
						</sourcetrack>
							<filter>
								<effect>
									<name>Gain</name>
									<effectid>{61756678, 4761696e, 4b657947}</effectid>
									<effecttype>filter</effecttype>
									<mediatype>audio</mediatype>
									<parameter authoringApp="PremierePro">
										<parameterid>Gain(dB)</parameterid>
										<name>Gain(dB)</name>
										<valuemin>-96</valuemin>
										<valuemax>96</valuemax>
										<value>9.21317</value>
									</parameter>
								</effect>
							</filter>
						<link>
							<linkclipref>clipitem-1115</linkclipref>
							<mediatype>video</mediatype>
							<trackindex>1</trackindex>
							<clipindex>127</clipindex>
						</link>
						<link>
							<linkclipref>clipitem-1264</linkclipref>
							<mediatype>audio</mediatype>
							<trackindex>1</trackindex>
							<clipindex>62</clipindex>
						</link>
						<logginginfo>
							<description></description>
							<scene></scene>
							<shottake>AA3155</shottake>
							<lognote></lognote>
						</logginginfo>
						<labels>
							<label2>Iris</label2>
						</labels>
					</clipitem>
					<clipitem id="clipitem-1265" frameBlend="FALSE" premiereChannelType="mono">
						<masterclipid>masterclip-336</masterclipid>
						<name>AA3155</name>
						<enabled>TRUE</enabled>
						<duration>5124</duration>
						<rate>
							<timebase>25</timebase>
							<ntsc>FALSE</ntsc>
						</rate>
						<start>10482</start>
						<end>10523</end>
						<in>1670</in>
						<out>1711</out>
						<pproTicksIn>16968268800000</pproTicksIn>
						<pproTicksOut>17384855040000</pproTicksOut>
						<file id="file-323"/>
						<sourcetrack>
							<mediatype>audio</mediatype>
							<trackindex>1</trackindex>
						</sourcetrack>
						<link>
							<linkclipref>clipitem-1265</linkclipref>
							<mediatype>audio</mediatype>
							<trackindex>1</trackindex>
							<clipindex>63</clipindex>
						</link>
						<link>
							<linkclipref>clipitem-1340</linkclipref>
							<mediatype>audio</mediatype>
							<trackindex>2</trackindex>
							<clipindex>51</clipindex>
						</link>
						<logginginfo>
							<description></description>
							<scene></scene>
							<shottake>AA3155</shottake>
							<lognote></lognote>
						</logginginfo>
						<labels>
							<label2>Iris</label2>
						</labels>
					</clipitem>
					<clipitem id="clipitem-1266" frameBlend="FALSE" premiereChannelType="mono">
						<masterclipid>masterclip-337</masterclipid>
						<name>AA3156</name>
						<enabled>TRUE</enabled>
						<duration>19440</duration>
						<rate>
							<timebase>25</timebase>
							<ntsc>FALSE</ntsc>
						</rate>
						<start>10523</start>
						<end>10644</end>
						<in>6282</in>
						<out>6403</out>
						<pproTicksIn>63829140480000</pproTicksIn>
						<pproTicksOut>65058577920000</pproTicksOut>
						<file id="file-324"/>
						<sourcetrack>
							<mediatype>audio</mediatype>
							<trackindex>1</trackindex>
						</sourcetrack>
							<marker>
								<comment>det er mye foksu på miljøavtrykket og da er det bra at det kommer opp, vi må bare være enige om fakta</comment>
								<name></name>
								<in>6676</in>
								<out>-1</out>
							</marker>
							<marker>
								<comment>variert meny, men er det viktig at den er norsk?&#13;jeg syns jo det</comment>
								<name></name>
								<in>5081</in>
								<out>-1</out>
							</marker>
							<marker>
								<comment>erupeisk mix er meningsløst, da er det jo bra å skru på gasskjelen</comment>
								<name></name>
								<in>10447</in>
								<out>-1</out>
							</marker>
							<marker>
								<comment>vi må ta den diskusjonen og har gjort ganske mye</comment>
								<name></name>
								<in>7232</in>
								<out>-1</out>
							</marker>
							<marker>
								<comment>er det viktig å ha tomater selv?&#13;ikke energimessig</comment>
								<name></name>
								<in>4501</in>
								<out>-1</out>
							</marker>
							<marker>
								<comment>Dette er det noske konsumet, men nå siste jeg en. Ja da må vi ta opp en</comment>
								<name></name>
								<in>3232</in>
								<out>-1</out>
							</marker>
							<marker>
								<comment>en tredejdel norsk forsningsgrad</comment>
								<name></name>
								<in>3792</in>
								<out>-1</out>
							</marker>
							<marker>
								<comment>DA jeg snakket med deg første gang, sa du at du hadde ventet på at noen som meg skulle ringe?&#13;</comment>
								<name></name>
								<in>6484</in>
								<out>-1</out>
							</marker>
						<link>
							<linkclipref>clipitem-1117</linkclipref>
							<mediatype>video</mediatype>
							<trackindex>1</trackindex>
							<clipindex>129</clipindex>
						</link>
						<link>
							<linkclipref>clipitem-1266</linkclipref>
							<mediatype>audio</mediatype>
							<trackindex>1</trackindex>
							<clipindex>64</clipindex>
						</link>
						<link>
							<linkclipref>clipitem-1341</linkclipref>
							<mediatype>audio</mediatype>
							<trackindex>2</trackindex>
							<clipindex>52</clipindex>
						</link>
						<logginginfo>
							<description></description>
							<scene></scene>
							<shottake>AA3156</shottake>
							<lognote></lognote>
						</logginginfo>
						<labels>
							<label2>Iris</label2>
						</labels>
					</clipitem>
					<clipitem id="clipitem-1267" frameBlend="FALSE" premiereChannelType="mono">
						<masterclipid>masterclip-337</masterclipid>
						<name>AA3156</name>
						<enabled>TRUE</enabled>
						<duration>19440</duration>
						<rate>
							<timebase>25</timebase>
							<ntsc>FALSE</ntsc>
						</rate>
						<start>10644</start>
						<end>10988</end>
						<in>6438</in>
						<out>6782</out>
						<pproTicksIn>65414200320000</pproTicksIn>
						<pproTicksOut>68909460480000</pproTicksOut>
						<file id="file-324"/>
						<sourcetrack>
							<mediatype>audio</mediatype>
							<trackindex>1</trackindex>
						</sourcetrack>
							<marker>
								<comment>det er mye foksu på miljøavtrykket og da er det bra at det kommer opp, vi må bare være enige om fakta</comment>
								<name></name>
								<in>6676</in>
								<out>-1</out>
							</marker>
							<marker>
								<comment>variert meny, men er det viktig at den er norsk?&#13;jeg syns jo det</comment>
								<name></name>
								<in>5081</in>
								<out>-1</out>
							</marker>
							<marker>
								<comment>erupeisk mix er meningsløst, da er det jo bra å skru på gasskjelen</comment>
								<name></name>
								<in>10447</in>
								<out>-1</out>
							</marker>
							<marker>
								<comment>vi må ta den diskusjonen og har gjort ganske mye</comment>
								<name></name>
								<in>7232</in>
								<out>-1</out>
							</marker>
							<marker>
								<comment>er det viktig å ha tomater selv?&#13;ikke energimessig</comment>
								<name></name>
								<in>4501</in>
								<out>-1</out>
							</marker>
							<marker>
								<comment>Dette er det noske konsumet, men nå siste jeg en. Ja da må vi ta opp en</comment>
								<name></name>
								<in>3232</in>
								<out>-1</out>
							</marker>
							<marker>
								<comment>en tredejdel norsk forsningsgrad</comment>
								<name></name>
								<in>3792</in>
								<out>-1</out>
							</marker>
							<marker>
								<comment>DA jeg snakket med deg første gang, sa du at du hadde ventet på at noen som meg skulle ringe?&#13;</comment>
								<name></name>
								<in>6484</in>
								<out>-1</out>
							</marker>
						<link>
							<linkclipref>clipitem-1119</linkclipref>
							<mediatype>video</mediatype>
							<trackindex>1</trackindex>
							<clipindex>131</clipindex>
						</link>
						<link>
							<linkclipref>clipitem-1267</linkclipref>
							<mediatype>audio</mediatype>
							<trackindex>1</trackindex>
							<clipindex>65</clipindex>
						</link>
						<link>
							<linkclipref>clipitem-1342</linkclipref>
							<mediatype>audio</mediatype>
							<trackindex>2</trackindex>
							<clipindex>53</clipindex>
						</link>
						<logginginfo>
							<description></description>
							<scene></scene>
							<shottake>AA3156</shottake>
							<lognote></lognote>
						</logginginfo>
						<labels>
							<label2>Iris</label2>
						</labels>
					</clipitem>
					<clipitem id="clipitem-1268" frameBlend="FALSE" premiereChannelType="mono">
						<masterclipid>masterclip-340</masterclipid>
						<name>MVI_4745.MOVMulticam</name>
						<enabled>TRUE</enabled>
						<duration>34319</duration>
						<rate>
							<timebase>25</timebase>
							<ntsc>FALSE</ntsc>
						</rate>
						<start>11548</start>
						<end>12192</end>
						<in>22648</in>
						<out>23292</out>
						<pproTicksIn>230118174720000</pproTicksIn>
						<pproTicksOut>236661626880000</pproTicksOut>
						<sequence id="sequence-74" TL.SQAudioVisibleBase="0" TL.SQVideoVisibleBase="0" TL.SQVisibleBaseTime="0" TL.SQAVDividerPosition="0.5" TL.SQHideShyTracks="0" TL.SQHeaderWidth="184" Monitor.ProgramZoomOut="348703004160000" Monitor.ProgramZoomIn="0" TL.SQTimePerPixel="0.20000000000000001" AM.TrackVScrollPosition="0" AM.TrackScrollPosition="0" MZ.EditLine="23156098560000" MZ.Sequence.PreviewFrameSizeHeight="1080" MZ.Sequence.PreviewFrameSizeWidth="1920" MZ.Sequence.AudioTimeDisplayFormat="200" MZ.Sequence.PreviewRenderingClassID="1297106761" MZ.Sequence.PreviewRenderingPresetCodec="1297107278" MZ.Sequence.PreviewRenderingPresetPath="EncoderPresets/SequencePreview/cc7991f5-c236-4db1-957e-2c71f924e81c/I-Frame Only MPEG.epr" MZ.Sequence.PreviewUseMaxRenderQuality="false" MZ.Sequence.PreviewUseMaxBitDepth="false" MZ.Sequence.EditingModeGUID="cc7991f5-c236-4db1-957e-2c71f924e81c" MZ.Sequence.VideoTimeDisplayFormat="101" MZ.WorkOutPoint="15240960000000" MZ.WorkInPoint="0">
							<duration>18144</duration>
							<rate>
								<timebase>25</timebase>
								<ntsc>FALSE</ntsc>
							</rate>
							<name>MVI_4745.MOVMulticam</name>
							<media>
								<video>
									<format>
										<samplecharacteristics>
											<rate>
												<timebase>25</timebase>
												<ntsc>FALSE</ntsc>
											</rate>
											<codec>
												<name>Apple ProRes 422</name>
												<appspecificdata>
													<appname>Final Cut Pro</appname>
													<appmanufacturer>Apple Inc.</appmanufacturer>
													<appversion>7.0</appversion>
													<data>
														<qtcodec>
															<codecname>Apple ProRes 422</codecname>
															<codectypename>Apple ProRes 422</codectypename>
															<codectypecode>apcn</codectypecode>
															<codecvendorcode>appl</codecvendorcode>
															<spatialquality>1024</spatialquality>
															<temporalquality>0</temporalquality>
															<keyframerate>0</keyframerate>
															<datarate>0</datarate>
														</qtcodec>
													</data>
												</appspecificdata>
											</codec>
											<width>1920</width>
											<height>1080</height>
											<anamorphic>FALSE</anamorphic>
											<pixelaspectratio>square</pixelaspectratio>
											<fielddominance>none</fielddominance>
											<colordepth>24</colordepth>
										</samplecharacteristics>
									</format>
									<track TL.SQTrackShy="0" TL.SQTrackExpandedHeight="25" TL.SQTrackExpanded="0" MZ.TrackTargeted="0">
										<clipitem id="clipitem-1269" frameBlend="FALSE">
											<masterclipid>masterclip-341</masterclipid>
											<name>MVI_4745.MOV</name>
											<enabled>TRUE</enabled>
											<duration>18144</duration>
											<rate>
												<timebase>25</timebase>
												<ntsc>FALSE</ntsc>
											</rate>
											<start>0</start>
											<end>18144</end>
											<in>0</in>
											<out>18144</out>
											<pproTicksIn>0</pproTicksIn>
											<pproTicksOut>184354652160000</pproTicksOut>
											<alphatype>black</alphatype>
											<file id="file-327"/>
											<link>
												<linkclipref>clipitem-1269</linkclipref>
												<mediatype>video</mediatype>
												<trackindex>1</trackindex>
												<clipindex>1</clipindex>
											</link>
											<link>
												<linkclipref>clipitem-1271</linkclipref>
												<mediatype>audio</mediatype>
												<trackindex>1</trackindex>
												<clipindex>1</clipindex>
												<groupindex>1</groupindex>
											</link>
											<link>
												<linkclipref>clipitem-1272</linkclipref>
												<mediatype>audio</mediatype>
												<trackindex>2</trackindex>
												<clipindex>1</clipindex>
												<groupindex>1</groupindex>
											</link>
											<logginginfo>
												<description></description>
												<scene></scene>
												<shottake></shottake>
												<lognote></lognote>
											</logginginfo>
											<labels>
												<label2>Iris</label2>
											</labels>
										</clipitem>
										<enabled>TRUE</enabled>
										<locked>FALSE</locked>
									</track>
									<track TL.SQTrackShy="0" TL.SQTrackExpandedHeight="25" TL.SQTrackExpanded="0" MZ.TrackTargeted="0">
										<clipitem id="clipitem-1270" frameBlend="FALSE">
											<masterclipid>masterclip-342</masterclipid>
											<name>AA3157</name>
											<enabled>TRUE</enabled>
											<duration>33696</duration>
											<rate>
												<timebase>25</timebase>
												<ntsc>FALSE</ntsc>
											</rate>
											<start>623</start>
											<end>34319</end>
											<in>0</in>
											<out>33696</out>
											<pproTicksIn>0</pproTicksIn>
											<pproTicksOut>342372925440000</pproTicksOut>
											<alphatype>none</alphatype>
											<file id="file-328"/>
											<link>
												<linkclipref>clipitem-1270</linkclipref>
												<mediatype>video</mediatype>
												<trackindex>2</trackindex>
												<clipindex>1</clipindex>
											</link>
											<link>
												<linkclipref>clipitem-1273</linkclipref>
												<mediatype>audio</mediatype>
												<trackindex>3</trackindex>
												<clipindex>1</clipindex>
												<groupindex>1</groupindex>
											</link>
											<link>
												<linkclipref>clipitem-1274</linkclipref>
												<mediatype>audio</mediatype>
												<trackindex>4</trackindex>
												<clipindex>1</clipindex>
												<groupindex>1</groupindex>
											</link>
											<logginginfo>
												<description></description>
												<scene></scene>
												<shottake>AA3157</shottake>
												<lognote></lognote>
											</logginginfo>
											<labels>
												<label2>Iris</label2>
											</labels>
										</clipitem>
										<enabled>TRUE</enabled>
										<locked>FALSE</locked>
									</track>
								</video>
								<audio>
									<numOutputChannels>4</numOutputChannels>
									<format>
										<samplecharacteristics>
											<depth>16</depth>
											<samplerate>48000</samplerate>
										</samplecharacteristics>
									</format>
									<outputs>
										<group>
											<index>1</index>
											<numchannels>1</numchannels>
											<downmix>0</downmix>
											<channel>
												<index>1</index>
											</channel>
										</group>
										<group>
											<index>2</index>
											<numchannels>1</numchannels>
											<downmix>0</downmix>
											<channel>
												<index>2</index>
											</channel>
										</group>
										<group>
											<index>3</index>
											<numchannels>1</numchannels>
											<downmix>0</downmix>
											<channel>
												<index>3</index>
											</channel>
										</group>
										<group>
											<index>4</index>
											<numchannels>1</numchannels>
											<downmix>0</downmix>
											<channel>
												<index>4</index>
											</channel>
										</group>
									</outputs>
									<track TL.SQTrackAudioKeyframeStyle="0" TL.SQTrackShy="0" TL.SQTrackExpandedHeight="25" TL.SQTrackExpanded="0" MZ.TrackTargeted="1" PannerCurrentValue="0" PannerIsInverted="true" PannerStartKeyframe="-91445760000000000,0.,0,0,0,0,0,0" PannerName="Balance" currentExplodedTrackIndex="0" totalExplodedTrackCount="1" premiereTrackType="Stereo">
										<clipitem id="clipitem-1271" frameBlend="FALSE" premiereChannelType="mono">
											<masterclipid>masterclip-341</masterclipid>
											<name>MVI_4745.MOV</name>
											<enabled>TRUE</enabled>
											<duration>18144</duration>
											<rate>
												<timebase>25</timebase>
												<ntsc>FALSE</ntsc>
											</rate>
											<start>0</start>
											<end>18144</end>
											<in>0</in>
											<out>18144</out>
											<pproTicksIn>0</pproTicksIn>
											<pproTicksOut>184354652160000</pproTicksOut>
											<file id="file-327"/>
											<sourcetrack>
												<mediatype>audio</mediatype>
												<trackindex>1</trackindex>
											</sourcetrack>
											<link>
												<linkclipref>clipitem-1269</linkclipref>
												<mediatype>video</mediatype>
												<trackindex>1</trackindex>
												<clipindex>1</clipindex>
											</link>
											<link>
												<linkclipref>clipitem-1271</linkclipref>
												<mediatype>audio</mediatype>
												<trackindex>1</trackindex>
												<clipindex>1</clipindex>
												<groupindex>1</groupindex>
											</link>
											<link>
												<linkclipref>clipitem-1272</linkclipref>
												<mediatype>audio</mediatype>
												<trackindex>2</trackindex>
												<clipindex>1</clipindex>
												<groupindex>1</groupindex>
											</link>
											<logginginfo>
												<description></description>
												<scene></scene>
												<shottake></shottake>
												<lognote></lognote>
											</logginginfo>
											<labels>
												<label2>Iris</label2>
											</labels>
										</clipitem>
										<enabled>TRUE</enabled>
										<locked>FALSE</locked>
										<outputchannelindex>1</outputchannelindex>
									</track>
									<track TL.SQTrackAudioKeyframeStyle="0" TL.SQTrackShy="0" TL.SQTrackExpandedHeight="25" TL.SQTrackExpanded="0" MZ.TrackTargeted="1" PannerIsInverted="true" PannerName="Balance" currentExplodedTrackIndex="0" totalExplodedTrackCount="1" premiereTrackType="Stereo">
										<clipitem id="clipitem-1272" frameBlend="FALSE" premiereChannelType="mono">
											<masterclipid>masterclip-341</masterclipid>
											<name>MVI_4745.MOV</name>
											<enabled>TRUE</enabled>
											<duration>18144</duration>
											<rate>
												<timebase>25</timebase>
												<ntsc>FALSE</ntsc>
											</rate>
											<start>0</start>
											<end>18144</end>
											<in>0</in>
											<out>18144</out>
											<pproTicksIn>0</pproTicksIn>
											<pproTicksOut>184354652160000</pproTicksOut>
											<file id="file-327"/>
											<sourcetrack>
												<mediatype>audio</mediatype>
												<trackindex>2</trackindex>
											</sourcetrack>
											<link>
												<linkclipref>clipitem-1269</linkclipref>
												<mediatype>video</mediatype>
												<trackindex>1</trackindex>
												<clipindex>1</clipindex>
											</link>
											<link>
												<linkclipref>clipitem-1271</linkclipref>
												<mediatype>audio</mediatype>
												<trackindex>1</trackindex>
												<clipindex>1</clipindex>
												<groupindex>1</groupindex>
											</link>
											<link>
												<linkclipref>clipitem-1272</linkclipref>
												<mediatype>audio</mediatype>
												<trackindex>2</trackindex>
												<clipindex>1</clipindex>
												<groupindex>1</groupindex>
											</link>
											<logginginfo>
												<description></description>
												<scene></scene>
												<shottake></shottake>
												<lognote></lognote>
											</logginginfo>
											<labels>
												<label2>Iris</label2>
											</labels>
										</clipitem>
										<enabled>TRUE</enabled>
										<locked>FALSE</locked>
										<outputchannelindex>2</outputchannelindex>
									</track>
									<track TL.SQTrackAudioKeyframeStyle="0" TL.SQTrackShy="0" TL.SQTrackExpandedHeight="25" TL.SQTrackExpanded="0" MZ.TrackTargeted="1" PannerCurrentValue="0" PannerIsInverted="true" PannerStartKeyframe="-91445760000000000,0.,0,0,0,0,0,0" PannerName="Balance" currentExplodedTrackIndex="0" totalExplodedTrackCount="1" premiereTrackType="Stereo">
										<clipitem id="clipitem-1273" frameBlend="FALSE" premiereChannelType="mono">
											<masterclipid>masterclip-342</masterclipid>
											<name>AA3157</name>
											<enabled>TRUE</enabled>
											<duration>33696</duration>
											<rate>
												<timebase>25</timebase>
												<ntsc>FALSE</ntsc>
											</rate>
											<start>623</start>
											<end>34319</end>
											<in>0</in>
											<out>33696</out>
											<pproTicksIn>0</pproTicksIn>
											<pproTicksOut>342372925440000</pproTicksOut>
											<file id="file-328"/>
											<sourcetrack>
												<mediatype>audio</mediatype>
												<trackindex>1</trackindex>
											</sourcetrack>
											<link>
												<linkclipref>clipitem-1270</linkclipref>
												<mediatype>video</mediatype>
												<trackindex>2</trackindex>
												<clipindex>1</clipindex>
											</link>
											<link>
												<linkclipref>clipitem-1273</linkclipref>
												<mediatype>audio</mediatype>
												<trackindex>3</trackindex>
												<clipindex>1</clipindex>
												<groupindex>1</groupindex>
											</link>
											<link>
												<linkclipref>clipitem-1274</linkclipref>
												<mediatype>audio</mediatype>
												<trackindex>4</trackindex>
												<clipindex>1</clipindex>
												<groupindex>1</groupindex>
											</link>
											<logginginfo>
												<description></description>
												<scene></scene>
												<shottake>AA3157</shottake>
												<lognote></lognote>
											</logginginfo>
											<labels>
												<label2>Iris</label2>
											</labels>
										</clipitem>
										<enabled>TRUE</enabled>
										<locked>FALSE</locked>
										<outputchannelindex>3</outputchannelindex>
									</track>
									<track TL.SQTrackAudioKeyframeStyle="0" TL.SQTrackShy="0" TL.SQTrackExpandedHeight="25" TL.SQTrackExpanded="0" MZ.TrackTargeted="1" PannerIsInverted="true" PannerName="Balance" currentExplodedTrackIndex="0" totalExplodedTrackCount="1" premiereTrackType="Stereo">
										<clipitem id="clipitem-1274" frameBlend="FALSE" premiereChannelType="mono">
											<masterclipid>masterclip-342</masterclipid>
											<name>AA3157</name>
											<enabled>TRUE</enabled>
											<duration>33696</duration>
											<rate>
												<timebase>25</timebase>
												<ntsc>FALSE</ntsc>
											</rate>
											<start>623</start>
											<end>34319</end>
											<in>0</in>
											<out>33696</out>
											<pproTicksIn>0</pproTicksIn>
											<pproTicksOut>342372925440000</pproTicksOut>
											<file id="file-328"/>
											<sourcetrack>
												<mediatype>audio</mediatype>
												<trackindex>2</trackindex>
											</sourcetrack>
											<link>
												<linkclipref>clipitem-1270</linkclipref>
												<mediatype>video</mediatype>
												<trackindex>2</trackindex>
												<clipindex>1</clipindex>
											</link>
											<link>
												<linkclipref>clipitem-1273</linkclipref>
												<mediatype>audio</mediatype>
												<trackindex>3</trackindex>
												<clipindex>1</clipindex>
												<groupindex>1</groupindex>
											</link>
											<link>
												<linkclipref>clipitem-1274</linkclipref>
												<mediatype>audio</mediatype>
												<trackindex>4</trackindex>
												<clipindex>1</clipindex>
												<groupindex>1</groupindex>
											</link>
											<logginginfo>
												<description></description>
												<scene></scene>
												<shottake>AA3157</shottake>
												<lognote></lognote>
											</logginginfo>
											<labels>
												<label2>Iris</label2>
											</labels>
										</clipitem>
										<enabled>TRUE</enabled>
										<locked>FALSE</locked>
										<outputchannelindex>4</outputchannelindex>
									</track>
								</audio>
							</media>
							<timecode>
								<rate>
									<timebase>25</timebase>
									<ntsc>FALSE</ntsc>
								</rate>
								<string>00:00:00:00</string>
								<frame>0</frame>
								<displayformat>NDF</displayformat>
							</timecode>
						</sequence>
						<link>
							<linkclipref>clipitem-1268</linkclipref>
							<mediatype>audio</mediatype>
							<trackindex>1</trackindex>
							<clipindex>66</clipindex>
						</link>
						<link>
							<linkclipref>clipitem-1343</linkclipref>
							<mediatype>audio</mediatype>
							<trackindex>2</trackindex>
							<clipindex>54</clipindex>
						</link>
						<labels>
							<label2>Forest</label2>
						</labels>
					</clipitem>
					<clipitem id="clipitem-1275" frameBlend="FALSE" premiereChannelType="mono">
						<masterclipid>masterclip-340</masterclipid>
						<name>MVI_4745.MOVMulticam</name>
						<enabled>TRUE</enabled>
						<duration>34319</duration>
						<rate>
							<timebase>25</timebase>
							<ntsc>FALSE</ntsc>
						</rate>
						<start>12192</start>
						<end>12768</end>
						<in>24837</in>
						<out>25413</out>
						<pproTicksIn>252359815680000</pproTicksIn>
						<pproTicksOut>258212344320000</pproTicksOut>
						<sequence id="sequence-74"/>
						<link>
							<linkclipref>clipitem-1275</linkclipref>
							<mediatype>audio</mediatype>
							<trackindex>1</trackindex>
							<clipindex>67</clipindex>
						</link>
						<link>
							<linkclipref>clipitem-1344</linkclipref>
							<mediatype>audio</mediatype>
							<trackindex>2</trackindex>
							<clipindex>55</clipindex>
						</link>
						<labels>
							<label2>Forest</label2>
						</labels>
					</clipitem>
					<clipitem id="clipitem-1276" frameBlend="FALSE" premiereChannelType="mono">
						<masterclipid>masterclip-345</masterclipid>
						<name>N42A0925.MOVMulticam</name>
						<enabled>TRUE</enabled>
						<duration>8736</duration>
						<rate>
							<timebase>25</timebase>
							<ntsc>FALSE</ntsc>
						</rate>
						<start>13632</start>
						<end>13841</end>
						<in>3586</in>
						<out>3795</out>
						<pproTicksIn>36436055040000</pproTicksIn>
						<pproTicksOut>38559628800000</pproTicksOut>
						<sequence id="sequence-75" MZ.Sequence.PreviewFrameSizeHeight="1080" MZ.Sequence.PreviewFrameSizeWidth="1920" MZ.Sequence.AudioTimeDisplayFormat="200" MZ.Sequence.PreviewRenderingClassID="1297106761" MZ.Sequence.PreviewRenderingPresetCodec="1297107278" MZ.Sequence.PreviewRenderingPresetPath="EncoderPresets/SequencePreview/cc7991f5-c236-4db1-957e-2c71f924e81c/I-Frame Only MPEG.epr" MZ.Sequence.PreviewUseMaxRenderQuality="false" MZ.Sequence.PreviewUseMaxBitDepth="false" MZ.Sequence.EditingModeGUID="cc7991f5-c236-4db1-957e-2c71f924e81c" MZ.Sequence.VideoTimeDisplayFormat="101" MZ.WorkOutPoint="15240960000000" MZ.WorkInPoint="0">
							<duration>8736</duration>
							<rate>
								<timebase>25</timebase>
								<ntsc>FALSE</ntsc>
							</rate>
							<name>N42A0925.MOVMulticam</name>
							<media>
								<video>
									<format>
										<samplecharacteristics>
											<rate>
												<timebase>25</timebase>
												<ntsc>FALSE</ntsc>
											</rate>
											<codec>
												<name>Apple ProRes 422</name>
												<appspecificdata>
													<appname>Final Cut Pro</appname>
													<appmanufacturer>Apple Inc.</appmanufacturer>
													<appversion>7.0</appversion>
													<data>
														<qtcodec>
															<codecname>Apple ProRes 422</codecname>
															<codectypename>Apple ProRes 422</codectypename>
															<codectypecode>apcn</codectypecode>
															<codecvendorcode>appl</codecvendorcode>
															<spatialquality>1024</spatialquality>
															<temporalquality>0</temporalquality>
															<keyframerate>0</keyframerate>
															<datarate>0</datarate>
														</qtcodec>
													</data>
												</appspecificdata>
											</codec>
											<width>1920</width>
											<height>1080</height>
											<anamorphic>FALSE</anamorphic>
											<pixelaspectratio>square</pixelaspectratio>
											<fielddominance>none</fielddominance>
											<colordepth>24</colordepth>
										</samplecharacteristics>
									</format>
									<track TL.SQTrackExpandedHeight="25" TL.SQTrackExpanded="0" MZ.TrackTargeted="0">
										<clipitem id="clipitem-1277" frameBlend="FALSE">
											<masterclipid>masterclip-346</masterclipid>
											<name>N42A0925.MOV</name>
											<enabled>TRUE</enabled>
											<duration>8736</duration>
											<rate>
												<timebase>25</timebase>
												<ntsc>FALSE</ntsc>
											</rate>
											<start>0</start>
											<end>8736</end>
											<in>0</in>
											<out>8736</out>
											<pproTicksIn>0</pproTicksIn>
											<pproTicksOut>88763351040000</pproTicksOut>
											<alphatype>black</alphatype>
											<file id="file-331"/>
											<link>
												<linkclipref>clipitem-1277</linkclipref>
												<mediatype>video</mediatype>
												<trackindex>1</trackindex>
												<clipindex>1</clipindex>
											</link>
											<link>
												<linkclipref>clipitem-1279</linkclipref>
												<mediatype>audio</mediatype>
												<trackindex>1</trackindex>
												<clipindex>1</clipindex>
												<groupindex>1</groupindex>
											</link>
											<link>
												<linkclipref>clipitem-1280</linkclipref>
												<mediatype>audio</mediatype>
												<trackindex>2</trackindex>
												<clipindex>1</clipindex>
												<groupindex>1</groupindex>
											</link>
											<logginginfo>
												<description></description>
												<scene></scene>
												<shottake></shottake>
												<lognote></lognote>
											</logginginfo>
											<labels>
												<label2>Iris</label2>
											</labels>
										</clipitem>
										<enabled>TRUE</enabled>
										<locked>FALSE</locked>
									</track>
									<track>
										<clipitem id="clipitem-1278" frameBlend="FALSE">
											<masterclipid>masterclip-314</masterclipid>
											<name>AA3195</name>
											<enabled>TRUE</enabled>
											<duration>8064</duration>
											<rate>
												<timebase>25</timebase>
												<ntsc>FALSE</ntsc>
											</rate>
											<start>328</start>
											<end>8392</end>
											<in>0</in>
											<out>8064</out>
											<pproTicksIn>0</pproTicksIn>
											<pproTicksOut>81935400960000</pproTicksOut>
											<alphatype>none</alphatype>
											<file id="file-303"/>
											<link>
												<linkclipref>clipitem-1278</linkclipref>
												<mediatype>video</mediatype>
												<trackindex>2</trackindex>
												<clipindex>1</clipindex>
											</link>
											<link>
												<linkclipref>clipitem-1281</linkclipref>
												<mediatype>audio</mediatype>
												<trackindex>3</trackindex>
												<clipindex>1</clipindex>
												<groupindex>1</groupindex>
											</link>
											<link>
												<linkclipref>clipitem-1282</linkclipref>
												<mediatype>audio</mediatype>
												<trackindex>4</trackindex>
												<clipindex>1</clipindex>
												<groupindex>1</groupindex>
											</link>
											<logginginfo>
												<description></description>
												<scene></scene>
												<shottake>AA3195</shottake>
												<lognote></lognote>
											</logginginfo>
											<labels>
												<label2>Iris</label2>
											</labels>
										</clipitem>
										<enabled>TRUE</enabled>
										<locked>FALSE</locked>
									</track>
								</video>
								<audio>
									<numOutputChannels>4</numOutputChannels>
									<format>
										<samplecharacteristics>
											<depth>16</depth>
											<samplerate>48000</samplerate>
										</samplecharacteristics>
									</format>
									<outputs>
										<group>
											<index>1</index>
											<numchannels>1</numchannels>
											<downmix>0</downmix>
											<channel>
												<index>1</index>
											</channel>
										</group>
										<group>
											<index>2</index>
											<numchannels>1</numchannels>
											<downmix>0</downmix>
											<channel>
												<index>2</index>
											</channel>
										</group>
										<group>
											<index>3</index>
											<numchannels>1</numchannels>
											<downmix>0</downmix>
											<channel>
												<index>3</index>
											</channel>
										</group>
										<group>
											<index>4</index>
											<numchannels>1</numchannels>
											<downmix>0</downmix>
											<channel>
												<index>4</index>
											</channel>
										</group>
									</outputs>
									<track TL.SQTrackExpandedHeight="25" TL.SQTrackExpanded="0" MZ.TrackTargeted="1" PannerCurrentValue="0" PannerIsInverted="true" PannerStartKeyframe="-91445760000000000,0.,0,0,0,0,0,0" PannerName="Balance" currentExplodedTrackIndex="0" totalExplodedTrackCount="1" premiereTrackType="Stereo">
										<clipitem id="clipitem-1279" frameBlend="FALSE" premiereChannelType="mono">
											<masterclipid>masterclip-346</masterclipid>
											<name>N42A0925.MOV</name>
											<enabled>TRUE</enabled>
											<duration>8736</duration>
											<rate>
												<timebase>25</timebase>
												<ntsc>FALSE</ntsc>
											</rate>
											<start>0</start>
											<end>8736</end>
											<in>0</in>
											<out>8736</out>
											<pproTicksIn>0</pproTicksIn>
											<pproTicksOut>88763351040000</pproTicksOut>
											<file id="file-331"/>
											<sourcetrack>
												<mediatype>audio</mediatype>
												<trackindex>1</trackindex>
											</sourcetrack>
											<link>
												<linkclipref>clipitem-1277</linkclipref>
												<mediatype>video</mediatype>
												<trackindex>1</trackindex>
												<clipindex>1</clipindex>
											</link>
											<link>
												<linkclipref>clipitem-1279</linkclipref>
												<mediatype>audio</mediatype>
												<trackindex>1</trackindex>
												<clipindex>1</clipindex>
												<groupindex>1</groupindex>
											</link>
											<link>
												<linkclipref>clipitem-1280</linkclipref>
												<mediatype>audio</mediatype>
												<trackindex>2</trackindex>
												<clipindex>1</clipindex>
												<groupindex>1</groupindex>
											</link>
											<logginginfo>
												<description></description>
												<scene></scene>
												<shottake></shottake>
												<lognote></lognote>
											</logginginfo>
											<labels>
												<label2>Iris</label2>
											</labels>
										</clipitem>
										<enabled>TRUE</enabled>
										<locked>FALSE</locked>
										<outputchannelindex>1</outputchannelindex>
									</track>
									<track TL.SQTrackExpandedHeight="25" TL.SQTrackExpanded="0" MZ.TrackTargeted="1" PannerIsInverted="true" PannerName="Balance" currentExplodedTrackIndex="0" totalExplodedTrackCount="1" premiereTrackType="Stereo">
										<clipitem id="clipitem-1280" frameBlend="FALSE" premiereChannelType="mono">
											<masterclipid>masterclip-346</masterclipid>
											<name>N42A0925.MOV</name>
											<enabled>TRUE</enabled>
											<duration>8736</duration>
											<rate>
												<timebase>25</timebase>
												<ntsc>FALSE</ntsc>
											</rate>
											<start>0</start>
											<end>8736</end>
											<in>0</in>
											<out>8736</out>
											<pproTicksIn>0</pproTicksIn>
											<pproTicksOut>88763351040000</pproTicksOut>
											<file id="file-331"/>
											<sourcetrack>
												<mediatype>audio</mediatype>
												<trackindex>2</trackindex>
											</sourcetrack>
											<link>
												<linkclipref>clipitem-1277</linkclipref>
												<mediatype>video</mediatype>
												<trackindex>1</trackindex>
												<clipindex>1</clipindex>
											</link>
											<link>
												<linkclipref>clipitem-1279</linkclipref>
												<mediatype>audio</mediatype>
												<trackindex>1</trackindex>
												<clipindex>1</clipindex>
												<groupindex>1</groupindex>
											</link>
											<link>
												<linkclipref>clipitem-1280</linkclipref>
												<mediatype>audio</mediatype>
												<trackindex>2</trackindex>
												<clipindex>1</clipindex>
												<groupindex>1</groupindex>
											</link>
											<logginginfo>
												<description></description>
												<scene></scene>
												<shottake></shottake>
												<lognote></lognote>
											</logginginfo>
											<labels>
												<label2>Iris</label2>
											</labels>
										</clipitem>
										<enabled>TRUE</enabled>
										<locked>FALSE</locked>
										<outputchannelindex>2</outputchannelindex>
									</track>
									<track TL.SQTrackExpandedHeight="25" TL.SQTrackExpanded="0" MZ.TrackTargeted="1" PannerCurrentValue="0" PannerIsInverted="true" PannerStartKeyframe="-91445760000000000,0.,0,0,0,0,0,0" PannerName="Balance" currentExplodedTrackIndex="0" totalExplodedTrackCount="1" premiereTrackType="Stereo">
										<clipitem id="clipitem-1281" frameBlend="FALSE" premiereChannelType="mono">
											<masterclipid>masterclip-314</masterclipid>
											<name>AA3195</name>
											<enabled>TRUE</enabled>
											<duration>8064</duration>
											<rate>
												<timebase>25</timebase>
												<ntsc>FALSE</ntsc>
											</rate>
											<start>328</start>
											<end>8392</end>
											<in>0</in>
											<out>8064</out>
											<pproTicksIn>0</pproTicksIn>
											<pproTicksOut>81935400960000</pproTicksOut>
											<file id="file-303"/>
											<sourcetrack>
												<mediatype>audio</mediatype>
												<trackindex>1</trackindex>
											</sourcetrack>
											<link>
												<linkclipref>clipitem-1278</linkclipref>
												<mediatype>video</mediatype>
												<trackindex>2</trackindex>
												<clipindex>1</clipindex>
											</link>
											<link>
												<linkclipref>clipitem-1281</linkclipref>
												<mediatype>audio</mediatype>
												<trackindex>3</trackindex>
												<clipindex>1</clipindex>
												<groupindex>1</groupindex>
											</link>
											<link>
												<linkclipref>clipitem-1282</linkclipref>
												<mediatype>audio</mediatype>
												<trackindex>4</trackindex>
												<clipindex>1</clipindex>
												<groupindex>1</groupindex>
											</link>
											<logginginfo>
												<description></description>
												<scene></scene>
												<shottake>AA3195</shottake>
												<lognote></lognote>
											</logginginfo>
											<labels>
												<label2>Iris</label2>
											</labels>
										</clipitem>
										<enabled>TRUE</enabled>
										<locked>FALSE</locked>
										<outputchannelindex>3</outputchannelindex>
									</track>
									<track TL.SQTrackExpandedHeight="25" TL.SQTrackExpanded="0" MZ.TrackTargeted="1" PannerIsInverted="true" PannerName="Balance" currentExplodedTrackIndex="0" totalExplodedTrackCount="1" premiereTrackType="Stereo">
										<clipitem id="clipitem-1282" frameBlend="FALSE" premiereChannelType="mono">
											<masterclipid>masterclip-314</masterclipid>
											<name>AA3195</name>
											<enabled>TRUE</enabled>
											<duration>8064</duration>
											<rate>
												<timebase>25</timebase>
												<ntsc>FALSE</ntsc>
											</rate>
											<start>328</start>
											<end>8392</end>
											<in>0</in>
											<out>8064</out>
											<pproTicksIn>0</pproTicksIn>
											<pproTicksOut>81935400960000</pproTicksOut>
											<file id="file-303"/>
											<sourcetrack>
												<mediatype>audio</mediatype>
												<trackindex>2</trackindex>
											</sourcetrack>
											<link>
												<linkclipref>clipitem-1278</linkclipref>
												<mediatype>video</mediatype>
												<trackindex>2</trackindex>
												<clipindex>1</clipindex>
											</link>
											<link>
												<linkclipref>clipitem-1281</linkclipref>
												<mediatype>audio</mediatype>
												<trackindex>3</trackindex>
												<clipindex>1</clipindex>
												<groupindex>1</groupindex>
											</link>
											<link>
												<linkclipref>clipitem-1282</linkclipref>
												<mediatype>audio</mediatype>
												<trackindex>4</trackindex>
												<clipindex>1</clipindex>
												<groupindex>1</groupindex>
											</link>
											<logginginfo>
												<description></description>
												<scene></scene>
												<shottake>AA3195</shottake>
												<lognote></lognote>
											</logginginfo>
											<labels>
												<label2>Iris</label2>
											</labels>
										</clipitem>
										<enabled>TRUE</enabled>
										<locked>FALSE</locked>
										<outputchannelindex>4</outputchannelindex>
									</track>
								</audio>
							</media>
							<timecode>
								<rate>
									<timebase>25</timebase>
									<ntsc>FALSE</ntsc>
								</rate>
								<string>00:00:00:00</string>
								<frame>0</frame>
								<displayformat>NDF</displayformat>
							</timecode>
								<marker>
									<comment></comment>
									<name></name>
									<in>575</in>
									<out>-1</out>
								</marker>
						</sequence>
						<link>
							<linkclipref>clipitem-1150</linkclipref>
							<mediatype>video</mediatype>
							<trackindex>1</trackindex>
							<clipindex>150</clipindex>
						</link>
						<link>
							<linkclipref>clipitem-1276</linkclipref>
							<mediatype>audio</mediatype>
							<trackindex>1</trackindex>
							<clipindex>68</clipindex>
						</link>
						<link>
							<linkclipref>clipitem-1345</linkclipref>
							<mediatype>audio</mediatype>
							<trackindex>2</trackindex>
							<clipindex>56</clipindex>
						</link>
						<labels>
							<label2>Forest</label2>
						</labels>
					</clipitem>
					<clipitem id="clipitem-1283" frameBlend="FALSE" premiereChannelType="mono">
						<masterclipid>masterclip-345</masterclipid>
						<name>N42A0925.MOVMulticam</name>
						<enabled>TRUE</enabled>
						<duration>8736</duration>
						<rate>
							<timebase>25</timebase>
							<ntsc>FALSE</ntsc>
						</rate>
						<start>13841</start>
						<end>13898</end>
						<in>7951</in>
						<out>8008</out>
						<pproTicksIn>80787248640000</pproTicksIn>
						<pproTicksOut>81366405120000</pproTicksOut>
						<sequence id="sequence-75"/>
						<link>
							<linkclipref>clipitem-1283</linkclipref>
							<mediatype>audio</mediatype>
							<trackindex>1</trackindex>
							<clipindex>69</clipindex>
						</link>
						<link>
							<linkclipref>clipitem-1346</linkclipref>
							<mediatype>audio</mediatype>
							<trackindex>2</trackindex>
							<clipindex>57</clipindex>
						</link>
						<labels>
							<label2>Forest</label2>
						</labels>
					</clipitem>
					<clipitem id="clipitem-1284" frameBlend="FALSE" premiereChannelType="mono">
						<masterclipid>masterclip-345</masterclipid>
						<name>N42A0925.MOVMulticam</name>
						<enabled>TRUE</enabled>
						<duration>8736</duration>
						<rate>
							<timebase>25</timebase>
							<ntsc>FALSE</ntsc>
						</rate>
						<start>13898</start>
						<end>13973</end>
						<in>8008</in>
						<out>8083</out>
						<pproTicksIn>81366405120000</pproTicksIn>
						<pproTicksOut>82128453120000</pproTicksOut>
						<sequence id="sequence-75"/>
						<link>
							<linkclipref>clipitem-1154</linkclipref>
							<mediatype>video</mediatype>
							<trackindex>1</trackindex>
							<clipindex>154</clipindex>
						</link>
						<link>
							<linkclipref>clipitem-1284</linkclipref>
							<mediatype>audio</mediatype>
							<trackindex>1</trackindex>
							<clipindex>70</clipindex>
						</link>
						<link>
							<linkclipref>clipitem-1347</linkclipref>
							<mediatype>audio</mediatype>
							<trackindex>2</trackindex>
							<clipindex>58</clipindex>
						</link>
						<labels>
							<label2>Forest</label2>
						</labels>
					</clipitem>
					<clipitem id="clipitem-1285" frameBlend="FALSE" premiereChannelType="mono">
						<masterclipid>masterclip-307</masterclipid>
						<name>N42A0927.MOVMulticam</name>
						<enabled>TRUE</enabled>
						<duration>28012</duration>
						<rate>
							<timebase>25</timebase>
							<ntsc>FALSE</ntsc>
						</rate>
						<start>14180</start>
						<end>14355</end>
						<in>21546</in>
						<out>21721</out>
						<pproTicksIn>218921149440000</pproTicksIn>
						<pproTicksOut>220699261440000</pproTicksOut>
						<sequence id="sequence-72"/>
						<link>
							<linkclipref>clipitem-1285</linkclipref>
							<mediatype>audio</mediatype>
							<trackindex>1</trackindex>
							<clipindex>71</clipindex>
						</link>
						<link>
							<linkclipref>clipitem-1348</linkclipref>
							<mediatype>audio</mediatype>
							<trackindex>2</trackindex>
							<clipindex>59</clipindex>
						</link>
						<labels>
							<label2>Forest</label2>
						</labels>
					</clipitem>
					<clipitem id="clipitem-1286" frameBlend="FALSE" premiereChannelType="mono">
						<masterclipid>masterclip-307</masterclipid>
						<name>N42A0927.MOVMulticam</name>
						<enabled>TRUE</enabled>
						<duration>28012</duration>
						<rate>
							<timebase>25</timebase>
							<ntsc>FALSE</ntsc>
						</rate>
						<start>14355</start>
						<end>14539</end>
						<in>21751</in>
						<out>21935</out>
						<pproTicksIn>221004080640000</pproTicksIn>
						<pproTicksOut>222873638400000</pproTicksOut>
						<sequence id="sequence-72"/>
						<link>
							<linkclipref>clipitem-1286</linkclipref>
							<mediatype>audio</mediatype>
							<trackindex>1</trackindex>
							<clipindex>72</clipindex>
						</link>
						<link>
							<linkclipref>clipitem-1349</linkclipref>
							<mediatype>audio</mediatype>
							<trackindex>2</trackindex>
							<clipindex>60</clipindex>
						</link>
						<labels>
							<label2>Forest</label2>
						</labels>
					</clipitem>
					<clipitem id="clipitem-1287" frameBlend="FALSE" premiereChannelType="mono">
						<masterclipid>masterclip-351</masterclipid>
						<name>AA3206</name>
						<enabled>TRUE</enabled>
						<duration>228</duration>
						<rate>
							<timebase>25</timebase>
							<ntsc>FALSE</ntsc>
						</rate>
						<start>14568</start>
						<end>14620</end>
						<in>132</in>
						<out>184</out>
						<pproTicksIn>1341204480000</pproTicksIn>
						<pproTicksOut>1869557760000</pproTicksOut>
						<file id="file-336"/>
						<sourcetrack>
							<mediatype>audio</mediatype>
							<trackindex>1</trackindex>
						</sourcetrack>
							<filter>
								<effect>
									<name>Audio Levels</name>
									<effectid>audiolevels</effectid>
									<effectcategory>audiolevels</effectcategory>
									<effecttype>audiolevels</effecttype>
									<mediatype>audio</mediatype>
									<parameter authoringApp="PremierePro">
										<parameterid>level</parameterid>
										<name>Level</name>
										<valuemin>0</valuemin>
										<valuemax>3.98109</valuemax>
										<value>0.190025</value>
									</parameter>
								</effect>
							</filter>
						<link>
							<linkclipref>clipitem-1168</linkclipref>
							<mediatype>video</mediatype>
							<trackindex>1</trackindex>
							<clipindex>168</clipindex>
						</link>
						<link>
							<linkclipref>clipitem-1287</linkclipref>
							<mediatype>audio</mediatype>
							<trackindex>1</trackindex>
							<clipindex>73</clipindex>
						</link>
						<link>
							<linkclipref>clipitem-1350</linkclipref>
							<mediatype>audio</mediatype>
							<trackindex>2</trackindex>
							<clipindex>61</clipindex>
						</link>
						<logginginfo>
							<description></description>
							<scene></scene>
							<shottake>AA3206</shottake>
							<lognote></lognote>
						</logginginfo>
						<labels>
							<label2>Iris</label2>
						</labels>
					</clipitem>
					<clipitem id="clipitem-1288" frameBlend="FALSE" premiereChannelType="mono">
						<masterclipid>masterclip-345</masterclipid>
						<name>N42A0925.MOVMulticam</name>
						<enabled>TRUE</enabled>
						<duration>8736</duration>
						<rate>
							<timebase>25</timebase>
							<ntsc>FALSE</ntsc>
						</rate>
						<start>14661</start>
						<end>14802</end>
						<in>7761</in>
						<out>7902</out>
						<pproTicksIn>78856727040000</pproTicksIn>
						<pproTicksOut>80289377280000</pproTicksOut>
						<sequence id="sequence-75"/>
							<filter>
								<effect>
									<name>Gain</name>
									<effectid>{61756678, 4761696e, 4b657947}</effectid>
									<effecttype>filter</effecttype>
									<mediatype>audio</mediatype>
									<parameter authoringApp="PremierePro">
										<parameterid>Gain(dB)</parameterid>
										<name>Gain(dB)</name>
										<valuemin>-96</valuemin>
										<valuemax>96</valuemax>
										<value>5</value>
									</parameter>
								</effect>
							</filter>
							<filter>
								<effect>
									<name>Audio Levels</name>
									<effectid>audiolevels</effectid>
									<effectcategory>audiolevels</effectcategory>
									<effecttype>audiolevels</effecttype>
									<mediatype>audio</mediatype>
									<parameter authoringApp="PremierePro">
										<parameterid>level</parameterid>
										<name>Level</name>
										<valuemin>0</valuemin>
										<valuemax>3.98109</valuemax>
										<value>0.99763</value>
									</parameter>
								</effect>
							</filter>
						<link>
							<linkclipref>clipitem-1171</linkclipref>
							<mediatype>video</mediatype>
							<trackindex>1</trackindex>
							<clipindex>171</clipindex>
						</link>
						<link>
							<linkclipref>clipitem-1288</linkclipref>
							<mediatype>audio</mediatype>
							<trackindex>1</trackindex>
							<clipindex>74</clipindex>
						</link>
						<link>
							<linkclipref>clipitem-1351</linkclipref>
							<mediatype>audio</mediatype>
							<trackindex>2</trackindex>
							<clipindex>62</clipindex>
						</link>
						<labels>
							<label2>Forest</label2>
						</labels>
					</clipitem>
					<clipitem id="clipitem-1289" frameBlend="FALSE" premiereChannelType="mono">
						<masterclipid>masterclip-353</masterclipid>
						<name>AA3121</name>
						<enabled>TRUE</enabled>
						<duration>3000</duration>
						<rate>
							<timebase>25</timebase>
							<ntsc>FALSE</ntsc>
						</rate>
						<start>14802</start>
						<end>14886</end>
						<in>897</in>
						<out>981</out>
						<pproTicksIn>9114094080000</pproTicksIn>
						<pproTicksOut>9967587840000</pproTicksOut>
						<file id="file-338"/>
						<sourcetrack>
							<mediatype>audio</mediatype>
							<trackindex>2</trackindex>
						</sourcetrack>
							<filter>
								<effect>
									<name>Audio Levels</name>
									<effectid>audiolevels</effectid>
									<effectcategory>audiolevels</effectcategory>
									<effecttype>audiolevels</effecttype>
									<mediatype>audio</mediatype>
									<parameter authoringApp="PremierePro">
										<parameterid>level</parameterid>
										<name>Level</name>
										<valuemin>0</valuemin>
										<valuemax>3.98109</valuemax>
										<value>0.99763</value>
									</parameter>
								</effect>
							</filter>
						<link>
							<linkclipref>clipitem-1173</linkclipref>
							<mediatype>video</mediatype>
							<trackindex>1</trackindex>
							<clipindex>173</clipindex>
						</link>
						<link>
							<linkclipref>clipitem-1289</linkclipref>
							<mediatype>audio</mediatype>
							<trackindex>1</trackindex>
							<clipindex>75</clipindex>
						</link>
						<logginginfo>
							<description></description>
							<scene></scene>
							<shottake>AA3121</shottake>
							<lognote></lognote>
						</logginginfo>
						<labels>
							<label2>Iris</label2>
						</labels>
					</clipitem>
					<clipitem id="clipitem-1290" frameBlend="FALSE" premiereChannelType="mono">
						<masterclipid>masterclip-354</masterclipid>
						<name>AA3125</name>
						<enabled>TRUE</enabled>
						<duration>2868</duration>
						<rate>
							<timebase>25</timebase>
							<ntsc>FALSE</ntsc>
						</rate>
						<start>14886</start>
						<end>15275</end>
						<in>2207</in>
						<out>2596</out>
						<pproTicksIn>22424532480000</pproTicksIn>
						<pproTicksOut>26377021440000</pproTicksOut>
						<file id="file-339"/>
						<sourcetrack>
							<mediatype>audio</mediatype>
							<trackindex>2</trackindex>
						</sourcetrack>
							<filter>
								<effect>
									<name>Audio Levels</name>
									<effectid>audiolevels</effectid>
									<effectcategory>audiolevels</effectcategory>
									<effecttype>audiolevels</effecttype>
									<mediatype>audio</mediatype>
									<parameter authoringApp="PremierePro">
										<parameterid>level</parameterid>
										<name>Level</name>
										<valuemin>0</valuemin>
										<valuemax>3.98109</valuemax>
										<value>0.99763</value>
									</parameter>
								</effect>
							</filter>
						<logginginfo>
							<description></description>
							<scene></scene>
							<shottake>AA3125</shottake>
							<lognote></lognote>
						</logginginfo>
						<labels>
							<label2>Iris</label2>
						</labels>
					</clipitem>
					<enabled>TRUE</enabled>
					<locked>FALSE</locked>
					<outputchannelindex>1</outputchannelindex>
				</track>
				<track monotrack="TRUE" TL.SQTrackAudioKeyframeStyle="0" TL.SQTrackShy="0" TL.SQTrackExpandedHeight="58" TL.SQTrackExpanded="1" MZ.TrackTargeted="1" MZ.TrackName="sync 2 mono" PannerCurrentValue="0.5" PannerIsInverted="true" PannerStartKeyframe="-91445760000000000,0.5,0,0,0,0,0,0" PannerName="Pan" currentExplodedTrackIndex="0" totalExplodedTrackCount="1" premiereTrackType="Mono">
					<clipitem id="clipitem-1291" frameBlend="FALSE" premiereChannelType="mono">
						<masterclipid>masterclip-263</masterclipid>
						<name>AA0115</name>
						<enabled>TRUE</enabled>
						<duration>3432</duration>
						<rate>
							<timebase>25</timebase>
							<ntsc>FALSE</ntsc>
						</rate>
						<start>705</start>
						<end>753</end>
						<in>146</in>
						<out>194</out>
						<pproTicksIn>1483453440000</pproTicksIn>
						<pproTicksOut>1971164160000</pproTicksOut>
						<file id="file-253"/>
						<sourcetrack>
							<mediatype>audio</mediatype>
							<trackindex>2</trackindex>
						</sourcetrack>
						<link>
							<linkclipref>clipitem-975</linkclipref>
							<mediatype>video</mediatype>
							<trackindex>1</trackindex>
							<clipindex>9</clipindex>
						</link>
						<link>
							<linkclipref>clipitem-1189</linkclipref>
							<mediatype>audio</mediatype>
							<trackindex>1</trackindex>
							<clipindex>4</clipindex>
						</link>
						<link>
							<linkclipref>clipitem-1291</linkclipref>
							<mediatype>audio</mediatype>
							<trackindex>2</trackindex>
							<clipindex>1</clipindex>
						</link>
						<logginginfo>
							<description></description>
							<scene></scene>
							<shottake>AA0115</shottake>
							<lognote></lognote>
						</logginginfo>
						<labels>
							<label2>Iris</label2>
						</labels>
					</clipitem>
					<clipitem id="clipitem-1292" frameBlend="FALSE" premiereChannelType="mono">
						<masterclipid>masterclip-263</masterclipid>
						<name>AA0115</name>
						<enabled>TRUE</enabled>
						<duration>3432</duration>
						<rate>
							<timebase>25</timebase>
							<ntsc>FALSE</ntsc>
						</rate>
						<start>753</start>
						<end>855</end>
						<in>235</in>
						<out>337</out>
						<pproTicksIn>2387750400000</pproTicksIn>
						<pproTicksOut>3424135680000</pproTicksOut>
						<file id="file-253"/>
						<sourcetrack>
							<mediatype>audio</mediatype>
							<trackindex>2</trackindex>
						</sourcetrack>
						<link>
							<linkclipref>clipitem-976</linkclipref>
							<mediatype>video</mediatype>
							<trackindex>1</trackindex>
							<clipindex>10</clipindex>
						</link>
						<link>
							<linkclipref>clipitem-1190</linkclipref>
							<mediatype>audio</mediatype>
							<trackindex>1</trackindex>
							<clipindex>5</clipindex>
						</link>
						<link>
							<linkclipref>clipitem-1292</linkclipref>
							<mediatype>audio</mediatype>
							<trackindex>2</trackindex>
							<clipindex>2</clipindex>
						</link>
						<logginginfo>
							<description></description>
							<scene></scene>
							<shottake>AA0115</shottake>
							<lognote></lognote>
						</logginginfo>
						<labels>
							<label2>Iris</label2>
						</labels>
					</clipitem>
					<clipitem id="clipitem-1293" frameBlend="FALSE" premiereChannelType="mono">
						<masterclipid>masterclip-268</masterclipid>
						<name>SC-RO1840-CF-020812-RO_p0.mxf</name>
						<enabled>TRUE</enabled>
						<duration>3342</duration>
						<rate>
							<timebase>25</timebase>
							<ntsc>FALSE</ntsc>
						</rate>
						<start>1188</start>
						<end>1276</end>
						<in>131</in>
						<out>219</out>
						<pproTicksIn>1331043840000</pproTicksIn>
						<pproTicksOut>2225180160000</pproTicksOut>
						<file id="file-258"/>
						<sourcetrack>
							<mediatype>audio</mediatype>
							<trackindex>2</trackindex>
						</sourcetrack>
						<link>
							<linkclipref>clipitem-984</linkclipref>
							<mediatype>video</mediatype>
							<trackindex>1</trackindex>
							<clipindex>18</clipindex>
						</link>
						<link>
							<linkclipref>clipitem-1195</linkclipref>
							<mediatype>audio</mediatype>
							<trackindex>1</trackindex>
							<clipindex>10</clipindex>
						</link>
						<link>
							<linkclipref>clipitem-1293</linkclipref>
							<mediatype>audio</mediatype>
							<trackindex>2</trackindex>
							<clipindex>3</clipindex>
						</link>
						<logginginfo>
							<description></description>
							<scene></scene>
							<shottake></shottake>
							<lognote></lognote>
						</logginginfo>
						<labels>
							<label2>Iris</label2>
						</labels>
					</clipitem>
					<clipitem id="clipitem-1294" frameBlend="FALSE" premiereChannelType="mono">
						<masterclipid>masterclip-269</masterclipid>
						<name>SC-DKMR99091615AA_p0.mxf</name>
						<enabled>TRUE</enabled>
						<duration>3492</duration>
						<rate>
							<timebase>25</timebase>
							<ntsc>FALSE</ntsc>
						</rate>
						<start>1276</start>
						<end>1315</end>
						<in>89</in>
						<out>128</out>
						<pproTicksIn>904296960000</pproTicksIn>
						<pproTicksOut>1300561920000</pproTicksOut>
						<file id="file-259"/>
						<sourcetrack>
							<mediatype>audio</mediatype>
							<trackindex>2</trackindex>
						</sourcetrack>
						<link>
							<linkclipref>clipitem-985</linkclipref>
							<mediatype>video</mediatype>
							<trackindex>1</trackindex>
							<clipindex>19</clipindex>
						</link>
						<link>
							<linkclipref>clipitem-1196</linkclipref>
							<mediatype>audio</mediatype>
							<trackindex>1</trackindex>
							<clipindex>11</clipindex>
						</link>
						<link>
							<linkclipref>clipitem-1294</linkclipref>
							<mediatype>audio</mediatype>
							<trackindex>2</trackindex>
							<clipindex>4</clipindex>
						</link>
						<logginginfo>
							<description></description>
							<scene></scene>
							<shottake></shottake>
							<lognote></lognote>
						</logginginfo>
						<labels>
							<label2>Iris</label2>
						</labels>
					</clipitem>
					<clipitem id="clipitem-1295" frameBlend="FALSE" premiereChannelType="mono">
						<masterclipid>masterclip-270</masterclipid>
						<name>SC-DKNO99010215AA_p0.mxf</name>
						<enabled>TRUE</enabled>
						<duration>4003</duration>
						<rate>
							<timebase>25</timebase>
							<ntsc>FALSE</ntsc>
						</rate>
						<start>1315</start>
						<end>1338</end>
						<in>339</in>
						<out>362</out>
						<pproTicksIn>3444456960000</pproTicksIn>
						<pproTicksOut>3678151680000</pproTicksOut>
						<file id="file-260"/>
						<sourcetrack>
							<mediatype>audio</mediatype>
							<trackindex>2</trackindex>
						</sourcetrack>
						<link>
							<linkclipref>clipitem-986</linkclipref>
							<mediatype>video</mediatype>
							<trackindex>1</trackindex>
							<clipindex>20</clipindex>
						</link>
						<link>
							<linkclipref>clipitem-1197</linkclipref>
							<mediatype>audio</mediatype>
							<trackindex>1</trackindex>
							<clipindex>12</clipindex>
						</link>
						<link>
							<linkclipref>clipitem-1295</linkclipref>
							<mediatype>audio</mediatype>
							<trackindex>2</trackindex>
							<clipindex>5</clipindex>
						</link>
						<logginginfo>
							<description></description>
							<scene></scene>
							<shottake></shottake>
							<lognote></lognote>
						</logginginfo>
						<labels>
							<label2>Iris</label2>
						</labels>
					</clipitem>
					<clipitem id="clipitem-1296" frameBlend="FALSE" premiereChannelType="mono">
						<masterclipid>masterclip-270</masterclipid>
						<name>SC-DKNO99010215AA_p0.mxf</name>
						<enabled>TRUE</enabled>
						<duration>4003</duration>
						<rate>
							<timebase>25</timebase>
							<ntsc>FALSE</ntsc>
						</rate>
						<start>1338</start>
						<end>1352</end>
						<in>1028</in>
						<out>1042</out>
						<pproTicksIn>10445137920000</pproTicksIn>
						<pproTicksOut>10587386880000</pproTicksOut>
						<file id="file-260"/>
						<sourcetrack>
							<mediatype>audio</mediatype>
							<trackindex>2</trackindex>
						</sourcetrack>
						<link>
							<linkclipref>clipitem-987</linkclipref>
							<mediatype>video</mediatype>
							<trackindex>1</trackindex>
							<clipindex>21</clipindex>
						</link>
						<link>
							<linkclipref>clipitem-1198</linkclipref>
							<mediatype>audio</mediatype>
							<trackindex>1</trackindex>
							<clipindex>13</clipindex>
						</link>
						<link>
							<linkclipref>clipitem-1296</linkclipref>
							<mediatype>audio</mediatype>
							<trackindex>2</trackindex>
							<clipindex>6</clipindex>
						</link>
						<logginginfo>
							<description></description>
							<scene></scene>
							<shottake></shottake>
							<lognote></lognote>
						</logginginfo>
						<labels>
							<label2>Iris</label2>
						</labels>
					</clipitem>
					<clipitem id="clipitem-1297" frameBlend="FALSE" premiereChannelType="mono">
						<masterclipid>masterclip-268</masterclipid>
						<name>SC-RO1840-CF-020812-RO_p0.mxf</name>
						<enabled>TRUE</enabled>
						<duration>3342</duration>
						<rate>
							<timebase>25</timebase>
							<ntsc>FALSE</ntsc>
						</rate>
						<start>1352</start>
						<end>1368</end>
						<in>2060</in>
						<out>2076</out>
						<pproTicksIn>20930918400000</pproTicksIn>
						<pproTicksOut>21093488640000</pproTicksOut>
						<file id="file-258"/>
						<sourcetrack>
							<mediatype>audio</mediatype>
							<trackindex>2</trackindex>
						</sourcetrack>
						<link>
							<linkclipref>clipitem-988</linkclipref>
							<mediatype>video</mediatype>
							<trackindex>1</trackindex>
							<clipindex>22</clipindex>
						</link>
						<link>
							<linkclipref>clipitem-1199</linkclipref>
							<mediatype>audio</mediatype>
							<trackindex>1</trackindex>
							<clipindex>14</clipindex>
						</link>
						<link>
							<linkclipref>clipitem-1297</linkclipref>
							<mediatype>audio</mediatype>
							<trackindex>2</trackindex>
							<clipindex>7</clipindex>
						</link>
						<logginginfo>
							<description></description>
							<scene></scene>
							<shottake></shottake>
							<lognote></lognote>
						</logginginfo>
						<labels>
							<label2>Iris</label2>
						</labels>
					</clipitem>
					<clipitem id="clipitem-1298" frameBlend="FALSE" premiereChannelType="mono">
						<masterclipid>masterclip-270</masterclipid>
						<name>SC-DKNO99010215AA_p0.mxf</name>
						<enabled>TRUE</enabled>
						<duration>4003</duration>
						<rate>
							<timebase>25</timebase>
							<ntsc>FALSE</ntsc>
						</rate>
						<start>1368</start>
						<end>1386</end>
						<in>1174</in>
						<out>1192</out>
						<pproTicksIn>11928591360000</pproTicksIn>
						<pproTicksOut>12111482880000</pproTicksOut>
						<file id="file-260"/>
						<sourcetrack>
							<mediatype>audio</mediatype>
							<trackindex>2</trackindex>
						</sourcetrack>
						<link>
							<linkclipref>clipitem-989</linkclipref>
							<mediatype>video</mediatype>
							<trackindex>1</trackindex>
							<clipindex>23</clipindex>
						</link>
						<link>
							<linkclipref>clipitem-1200</linkclipref>
							<mediatype>audio</mediatype>
							<trackindex>1</trackindex>
							<clipindex>15</clipindex>
						</link>
						<link>
							<linkclipref>clipitem-1298</linkclipref>
							<mediatype>audio</mediatype>
							<trackindex>2</trackindex>
							<clipindex>8</clipindex>
						</link>
						<logginginfo>
							<description></description>
							<scene></scene>
							<shottake></shottake>
							<lognote></lognote>
						</logginginfo>
						<labels>
							<label2>Iris</label2>
						</labels>
					</clipitem>
					<clipitem id="clipitem-1299" frameBlend="FALSE" premiereChannelType="mono">
						<masterclipid>masterclip-365</masterclipid>
						<name>murvegg SYNK 2.mov</name>
						<enabled>TRUE</enabled>
						<duration>1647</duration>
						<rate>
							<timebase>25</timebase>
							<ntsc>FALSE</ntsc>
						</rate>
						<start>1848</start>
						<end>1862</end>
						<in>548</in>
						<out>562</out>
						<pproTicksIn>5568030720000</pproTicksIn>
						<pproTicksOut>5710279680000</pproTicksOut>
						<file id="file-350"/>
						<sourcetrack>
							<mediatype>audio</mediatype>
							<trackindex>1</trackindex>
						</sourcetrack>
						<logginginfo>
							<description></description>
							<scene></scene>
							<shottake></shottake>
							<lognote></lognote>
						</logginginfo>
						<labels>
							<label2>Iris</label2>
						</labels>
					</clipitem>
					<clipitem id="clipitem-1300" frameBlend="FALSE" premiereChannelType="mono">
						<masterclipid>masterclip-365</masterclipid>
						<name>murvegg SYNK 2.mov</name>
						<enabled>TRUE</enabled>
						<duration>1647</duration>
						<rate>
							<timebase>25</timebase>
							<ntsc>FALSE</ntsc>
						</rate>
						<start>1862</start>
						<end>1876</end>
						<in>548</in>
						<out>562</out>
						<pproTicksIn>5568030720000</pproTicksIn>
						<pproTicksOut>5710279680000</pproTicksOut>
						<file id="file-350"/>
						<sourcetrack>
							<mediatype>audio</mediatype>
							<trackindex>1</trackindex>
						</sourcetrack>
						<logginginfo>
							<description></description>
							<scene></scene>
							<shottake></shottake>
							<lognote></lognote>
						</logginginfo>
						<labels>
							<label2>Iris</label2>
						</labels>
					</clipitem>
					<clipitem id="clipitem-1301" frameBlend="FALSE" premiereChannelType="mono">
						<masterclipid>masterclip-284</masterclipid>
						<name>AA3164</name>
						<enabled>TRUE</enabled>
						<duration>10272</duration>
						<rate>
							<timebase>25</timebase>
							<ntsc>FALSE</ntsc>
						</rate>
						<start>3513</start>
						<end>3554</end>
						<in>6385</in>
						<out>6426</out>
						<pproTicksIn>64875686400000</pproTicksIn>
						<pproTicksOut>65292272640000</pproTicksOut>
						<file id="file-274"/>
						<sourcetrack>
							<mediatype>audio</mediatype>
							<trackindex>2</trackindex>
						</sourcetrack>
						<link>
							<linkclipref>clipitem-1012</linkclipref>
							<mediatype>video</mediatype>
							<trackindex>1</trackindex>
							<clipindex>46</clipindex>
						</link>
						<link>
							<linkclipref>clipitem-1205</linkclipref>
							<mediatype>audio</mediatype>
							<trackindex>1</trackindex>
							<clipindex>20</clipindex>
						</link>
						<link>
							<linkclipref>clipitem-1301</linkclipref>
							<mediatype>audio</mediatype>
							<trackindex>2</trackindex>
							<clipindex>11</clipindex>
						</link>
						<logginginfo>
							<description></description>
							<scene></scene>
							<shottake>AA3164</shottake>
							<lognote></lognote>
						</logginginfo>
						<labels>
							<label2>Iris</label2>
						</labels>
					</clipitem>
					<clipitem id="clipitem-1302" frameBlend="FALSE" premiereChannelType="mono">
						<masterclipid>masterclip-284</masterclipid>
						<name>AA3164</name>
						<enabled>TRUE</enabled>
						<duration>10272</duration>
						<rate>
							<timebase>25</timebase>
							<ntsc>FALSE</ntsc>
						</rate>
						<start>3589</start>
						<end>3626</end>
						<in>7761</in>
						<out>7798</out>
						<pproTicksIn>78856727040000</pproTicksIn>
						<pproTicksOut>79232670720000</pproTicksOut>
						<file id="file-274"/>
						<sourcetrack>
							<mediatype>audio</mediatype>
							<trackindex>2</trackindex>
						</sourcetrack>
							<filter>
								<effect>
									<name>Audio Levels</name>
									<effectid>audiolevels</effectid>
									<effectcategory>audiolevels</effectcategory>
									<effecttype>audiolevels</effecttype>
									<mediatype>audio</mediatype>
									<parameter authoringApp="PremierePro">
										<parameterid>level</parameterid>
										<name>Level</name>
										<valuemin>0</valuemin>
										<valuemax>3.98109</valuemax>
										<value>0.226321</value>
									</parameter>
								</effect>
							</filter>
						<link>
							<linkclipref>clipitem-1014</linkclipref>
							<mediatype>video</mediatype>
							<trackindex>1</trackindex>
							<clipindex>48</clipindex>
						</link>
						<link>
							<linkclipref>clipitem-1206</linkclipref>
							<mediatype>audio</mediatype>
							<trackindex>1</trackindex>
							<clipindex>21</clipindex>
						</link>
						<link>
							<linkclipref>clipitem-1302</linkclipref>
							<mediatype>audio</mediatype>
							<trackindex>2</trackindex>
							<clipindex>12</clipindex>
						</link>
						<logginginfo>
							<description></description>
							<scene></scene>
							<shottake>AA3164</shottake>
							<lognote></lognote>
						</logginginfo>
						<labels>
							<label2>Iris</label2>
						</labels>
					</clipitem>
					<clipitem id="clipitem-1303" frameBlend="FALSE" premiereChannelType="mono">
						<masterclipid>masterclip-286</masterclipid>
						<name>AA3169</name>
						<enabled>TRUE</enabled>
						<duration>336</duration>
						<rate>
							<timebase>25</timebase>
							<ntsc>FALSE</ntsc>
						</rate>
						<start>3626</start>
						<end>3668</end>
						<in>246</in>
						<out>288</out>
						<pproTicksIn>2499517440000</pproTicksIn>
						<pproTicksOut>2926264320000</pproTicksOut>
						<file id="file-276"/>
						<sourcetrack>
							<mediatype>audio</mediatype>
							<trackindex>2</trackindex>
						</sourcetrack>
						<link>
							<linkclipref>clipitem-1015</linkclipref>
							<mediatype>video</mediatype>
							<trackindex>1</trackindex>
							<clipindex>49</clipindex>
						</link>
						<link>
							<linkclipref>clipitem-1207</linkclipref>
							<mediatype>audio</mediatype>
							<trackindex>1</trackindex>
							<clipindex>22</clipindex>
						</link>
						<link>
							<linkclipref>clipitem-1303</linkclipref>
							<mediatype>audio</mediatype>
							<trackindex>2</trackindex>
							<clipindex>13</clipindex>
						</link>
						<logginginfo>
							<description></description>
							<scene></scene>
							<shottake>AA3169</shottake>
							<lognote></lognote>
						</logginginfo>
						<labels>
							<label2>Iris</label2>
						</labels>
					</clipitem>
					<clipitem id="clipitem-1304" frameBlend="FALSE" premiereChannelType="mono">
						<masterclipid>masterclip-288</masterclipid>
						<name>AA3165</name>
						<enabled>TRUE</enabled>
						<duration>7188</duration>
						<rate>
							<timebase>25</timebase>
							<ntsc>FALSE</ntsc>
						</rate>
						<start>3684</start>
						<end>3855</end>
						<in>6567</in>
						<out>6738</out>
						<pproTicksIn>66724922880000</pproTicksIn>
						<pproTicksOut>68462392320000</pproTicksOut>
						<file id="file-278"/>
						<sourcetrack>
							<mediatype>audio</mediatype>
							<trackindex>2</trackindex>
						</sourcetrack>
						<logginginfo>
							<description></description>
							<scene></scene>
							<shottake>AA3165</shottake>
							<lognote></lognote>
						</logginginfo>
						<labels>
							<label2>Iris</label2>
						</labels>
					</clipitem>
					<clipitem id="clipitem-1305" frameBlend="FALSE" premiereChannelType="mono">
						<masterclipid>masterclip-290</masterclipid>
						<name>AA3170</name>
						<enabled>TRUE</enabled>
						<duration>360</duration>
						<rate>
							<timebase>25</timebase>
							<ntsc>FALSE</ntsc>
						</rate>
						<start>3892</start>
						<end>3920</end>
						<in>240</in>
						<out>268</out>
						<pproTicksIn>2438553600000</pproTicksIn>
						<pproTicksOut>2723051520000</pproTicksOut>
						<file id="file-280"/>
						<sourcetrack>
							<mediatype>audio</mediatype>
							<trackindex>2</trackindex>
						</sourcetrack>
							<filter>
								<effect>
									<name>Audio Levels</name>
									<effectid>audiolevels</effectid>
									<effectcategory>audiolevels</effectcategory>
									<effecttype>audiolevels</effecttype>
									<mediatype>audio</mediatype>
									<parameter authoringApp="PremierePro">
										<parameterid>level</parameterid>
										<name>Level</name>
										<valuemin>0</valuemin>
										<valuemax>3.98109</valuemax>
										<value>0.0475062</value>
									</parameter>
								</effect>
							</filter>
						<link>
							<linkclipref>clipitem-1019</linkclipref>
							<mediatype>video</mediatype>
							<trackindex>1</trackindex>
							<clipindex>53</clipindex>
						</link>
						<link>
							<linkclipref>clipitem-1209</linkclipref>
							<mediatype>audio</mediatype>
							<trackindex>1</trackindex>
							<clipindex>24</clipindex>
						</link>
						<link>
							<linkclipref>clipitem-1305</linkclipref>
							<mediatype>audio</mediatype>
							<trackindex>2</trackindex>
							<clipindex>15</clipindex>
						</link>
						<logginginfo>
							<description></description>
							<scene></scene>
							<shottake>AA3170</shottake>
							<lognote></lognote>
						</logginginfo>
						<labels>
							<label2>Iris</label2>
						</labels>
					</clipitem>
					<clipitem id="clipitem-1306" frameBlend="FALSE" premiereChannelType="mono">
						<masterclipid>masterclip-291</masterclipid>
						<name>AA3171</name>
						<enabled>TRUE</enabled>
						<duration>768</duration>
						<rate>
							<timebase>25</timebase>
							<ntsc>FALSE</ntsc>
						</rate>
						<start>3920</start>
						<end>3955</end>
						<in>196</in>
						<out>231</out>
						<pproTicksIn>1991485440000</pproTicksIn>
						<pproTicksOut>2347107840000</pproTicksOut>
						<file id="file-281"/>
						<sourcetrack>
							<mediatype>audio</mediatype>
							<trackindex>2</trackindex>
						</sourcetrack>
							<filter>
								<effect>
									<name>Audio Levels</name>
									<effectid>audiolevels</effectid>
									<effectcategory>audiolevels</effectcategory>
									<effecttype>audiolevels</effecttype>
									<mediatype>audio</mediatype>
									<parameter authoringApp="PremierePro">
										<parameterid>level</parameterid>
										<name>Level</name>
										<valuemin>0</valuemin>
										<valuemax>3.98109</valuemax>
										<value>0.056118</value>
									</parameter>
								</effect>
							</filter>
						<link>
							<linkclipref>clipitem-1020</linkclipref>
							<mediatype>video</mediatype>
							<trackindex>1</trackindex>
							<clipindex>54</clipindex>
						</link>
						<link>
							<linkclipref>clipitem-1210</linkclipref>
							<mediatype>audio</mediatype>
							<trackindex>1</trackindex>
							<clipindex>25</clipindex>
						</link>
						<link>
							<linkclipref>clipitem-1306</linkclipref>
							<mediatype>audio</mediatype>
							<trackindex>2</trackindex>
							<clipindex>16</clipindex>
						</link>
						<logginginfo>
							<description></description>
							<scene></scene>
							<shottake>AA3171</shottake>
							<lognote></lognote>
						</logginginfo>
						<labels>
							<label2>Iris</label2>
						</labels>
					</clipitem>
					<clipitem id="clipitem-1307" frameBlend="FALSE" premiereChannelType="mono">
						<masterclipid>masterclip-292</masterclipid>
						<name>AA3182</name>
						<enabled>TRUE</enabled>
						<duration>408</duration>
						<rate>
							<timebase>25</timebase>
							<ntsc>FALSE</ntsc>
						</rate>
						<start>3955</start>
						<end>4016</end>
						<in>54</in>
						<out>115</out>
						<pproTicksIn>548674560000</pproTicksIn>
						<pproTicksOut>1168473600000</pproTicksOut>
						<file id="file-282"/>
						<sourcetrack>
							<mediatype>audio</mediatype>
							<trackindex>2</trackindex>
						</sourcetrack>
						<link>
							<linkclipref>clipitem-1021</linkclipref>
							<mediatype>video</mediatype>
							<trackindex>1</trackindex>
							<clipindex>55</clipindex>
						</link>
						<link>
							<linkclipref>clipitem-1211</linkclipref>
							<mediatype>audio</mediatype>
							<trackindex>1</trackindex>
							<clipindex>26</clipindex>
						</link>
						<link>
							<linkclipref>clipitem-1307</linkclipref>
							<mediatype>audio</mediatype>
							<trackindex>2</trackindex>
							<clipindex>17</clipindex>
						</link>
						<logginginfo>
							<description></description>
							<scene></scene>
							<shottake>AA3182</shottake>
							<lognote></lognote>
						</logginginfo>
						<labels>
							<label2>Iris</label2>
						</labels>
					</clipitem>
					<clipitem id="clipitem-1308" frameBlend="FALSE" premiereChannelType="mono">
						<masterclipid>masterclip-293</masterclipid>
						<name>AA3172</name>
						<enabled>TRUE</enabled>
						<duration>15228</duration>
						<rate>
							<timebase>25</timebase>
							<ntsc>FALSE</ntsc>
						</rate>
						<start>4016</start>
						<end>4159</end>
						<in>446</in>
						<out>589</out>
						<pproTicksIn>4531645440000</pproTicksIn>
						<pproTicksOut>5984616960000</pproTicksOut>
						<file id="file-283"/>
						<sourcetrack>
							<mediatype>audio</mediatype>
							<trackindex>2</trackindex>
						</sourcetrack>
						<link>
							<linkclipref>clipitem-1022</linkclipref>
							<mediatype>video</mediatype>
							<trackindex>1</trackindex>
							<clipindex>56</clipindex>
						</link>
						<link>
							<linkclipref>clipitem-1212</linkclipref>
							<mediatype>audio</mediatype>
							<trackindex>1</trackindex>
							<clipindex>27</clipindex>
						</link>
						<link>
							<linkclipref>clipitem-1308</linkclipref>
							<mediatype>audio</mediatype>
							<trackindex>2</trackindex>
							<clipindex>18</clipindex>
						</link>
						<logginginfo>
							<description></description>
							<scene></scene>
							<shottake>AA3172</shottake>
							<lognote></lognote>
						</logginginfo>
						<labels>
							<label2>Iris</label2>
						</labels>
					</clipitem>
					<clipitem id="clipitem-1309" frameBlend="FALSE" premiereChannelType="mono">
						<masterclipid>masterclip-293</masterclipid>
						<name>AA3172</name>
						<enabled>TRUE</enabled>
						<duration>15228</duration>
						<rate>
							<timebase>25</timebase>
							<ntsc>FALSE</ntsc>
						</rate>
						<start>4159</start>
						<end>4325</end>
						<in>982</in>
						<out>1148</out>
						<pproTicksIn>9977748480000</pproTicksIn>
						<pproTicksOut>11664414720000</pproTicksOut>
						<file id="file-283"/>
						<sourcetrack>
							<mediatype>audio</mediatype>
							<trackindex>2</trackindex>
						</sourcetrack>
						<link>
							<linkclipref>clipitem-1025</linkclipref>
							<mediatype>video</mediatype>
							<trackindex>1</trackindex>
							<clipindex>59</clipindex>
						</link>
						<link>
							<linkclipref>clipitem-1213</linkclipref>
							<mediatype>audio</mediatype>
							<trackindex>1</trackindex>
							<clipindex>28</clipindex>
						</link>
						<link>
							<linkclipref>clipitem-1309</linkclipref>
							<mediatype>audio</mediatype>
							<trackindex>2</trackindex>
							<clipindex>19</clipindex>
						</link>
						<logginginfo>
							<description></description>
							<scene></scene>
							<shottake>AA3172</shottake>
							<lognote></lognote>
						</logginginfo>
						<labels>
							<label2>Iris</label2>
						</labels>
					</clipitem>
					<clipitem id="clipitem-1310" frameBlend="FALSE" premiereChannelType="mono">
						<masterclipid>masterclip-293</masterclipid>
						<name>AA3172</name>
						<enabled>TRUE</enabled>
						<duration>15228</duration>
						<rate>
							<timebase>25</timebase>
							<ntsc>FALSE</ntsc>
						</rate>
						<start>4325</start>
						<end>4434</end>
						<in>8947</in>
						<out>9056</out>
						<pproTicksIn>90907246080000</pproTicksIn>
						<pproTicksOut>92014755840000</pproTicksOut>
						<file id="file-283"/>
						<sourcetrack>
							<mediatype>audio</mediatype>
							<trackindex>2</trackindex>
						</sourcetrack>
						<link>
							<linkclipref>clipitem-1028</linkclipref>
							<mediatype>video</mediatype>
							<trackindex>1</trackindex>
							<clipindex>62</clipindex>
						</link>
						<link>
							<linkclipref>clipitem-1214</linkclipref>
							<mediatype>audio</mediatype>
							<trackindex>1</trackindex>
							<clipindex>29</clipindex>
						</link>
						<link>
							<linkclipref>clipitem-1310</linkclipref>
							<mediatype>audio</mediatype>
							<trackindex>2</trackindex>
							<clipindex>20</clipindex>
						</link>
						<logginginfo>
							<description></description>
							<scene></scene>
							<shottake>AA3172</shottake>
							<lognote></lognote>
						</logginginfo>
						<labels>
							<label2>Iris</label2>
						</labels>
					</clipitem>
					<clipitem id="clipitem-1311" frameBlend="FALSE" premiereChannelType="mono">
						<masterclipid>masterclip-293</masterclipid>
						<name>AA3172</name>
						<enabled>TRUE</enabled>
						<duration>15228</duration>
						<rate>
							<timebase>25</timebase>
							<ntsc>FALSE</ntsc>
						</rate>
						<start>4434</start>
						<end>4539</end>
						<in>10370</in>
						<out>10475</out>
						<pproTicksIn>105365836800000</pproTicksIn>
						<pproTicksOut>106432704000000</pproTicksOut>
						<file id="file-283"/>
						<sourcetrack>
							<mediatype>audio</mediatype>
							<trackindex>2</trackindex>
						</sourcetrack>
							<filter>
								<effect>
									<name>Audio Levels</name>
									<effectid>audiolevels</effectid>
									<effectcategory>audiolevels</effectcategory>
									<effecttype>audiolevels</effecttype>
									<mediatype>audio</mediatype>
									<parameter authoringApp="PremierePro">
										<parameterid>level</parameterid>
										<name>Level</name>
										<valuemin>0</valuemin>
										<valuemax>3.98109</valuemax>
										<value>0.142519</value>
										<keyframe>
											<when>10417</when>
											<value>0.142519</value>
										</keyframe>
										<keyframe>
											<when>10439</when>
											<value>0.99763</value>
										</keyframe>
									</parameter>
								</effect>
							</filter>
						<link>
							<linkclipref>clipitem-1030</linkclipref>
							<mediatype>video</mediatype>
							<trackindex>1</trackindex>
							<clipindex>64</clipindex>
						</link>
						<link>
							<linkclipref>clipitem-1215</linkclipref>
							<mediatype>audio</mediatype>
							<trackindex>1</trackindex>
							<clipindex>30</clipindex>
						</link>
						<link>
							<linkclipref>clipitem-1311</linkclipref>
							<mediatype>audio</mediatype>
							<trackindex>2</trackindex>
							<clipindex>21</clipindex>
						</link>
						<logginginfo>
							<description></description>
							<scene></scene>
							<shottake>AA3172</shottake>
							<lognote></lognote>
						</logginginfo>
						<labels>
							<label2>Iris</label2>
						</labels>
					</clipitem>
					<clipitem id="clipitem-1312" frameBlend="FALSE" premiereChannelType="mono">
						<masterclipid>masterclip-305</masterclipid>
						<name>AA3194</name>
						<enabled>TRUE</enabled>
						<duration>59868</duration>
						<rate>
							<timebase>25</timebase>
							<ntsc>FALSE</ntsc>
						</rate>
						<start>4995</start>
						<end>5061</end>
						<in>9990</in>
						<out>10056</out>
						<pproTicksIn>101504793600000</pproTicksIn>
						<pproTicksOut>102175395840000</pproTicksOut>
						<file id="file-295"/>
						<sourcetrack>
							<mediatype>audio</mediatype>
							<trackindex>2</trackindex>
						</sourcetrack>
						<logginginfo>
							<description></description>
							<scene></scene>
							<shottake>AA3194</shottake>
							<lognote></lognote>
						</logginginfo>
						<labels>
							<label2>Iris</label2>
						</labels>
					</clipitem>
					<clipitem id="clipitem-1313" frameBlend="FALSE" premiereChannelType="mono">
						<masterclipid>masterclip-307</masterclipid>
						<name>N42A0927.MOVMulticam</name>
						<enabled>TRUE</enabled>
						<duration>28012</duration>
						<rate>
							<timebase>25</timebase>
							<ntsc>FALSE</ntsc>
						</rate>
						<start>5061</start>
						<end>5529</end>
						<in>4136</in>
						<out>4604</out>
						<pproTicksIn>42024407040000</pproTicksIn>
						<pproTicksOut>46779586560000</pproTicksOut>
						<sequence id="sequence-72"/>
						<labels>
							<label2>Forest</label2>
						</labels>
					</clipitem>
					<clipitem id="clipitem-1314" frameBlend="FALSE" premiereChannelType="mono">
						<masterclipid>masterclip-307</masterclipid>
						<name>N42A0927.MOVMulticam</name>
						<enabled>TRUE</enabled>
						<duration>28012</duration>
						<rate>
							<timebase>25</timebase>
							<ntsc>FALSE</ntsc>
						</rate>
						<start>5529</start>
						<end>5551</end>
						<in>4626</in>
						<out>4648</out>
						<pproTicksIn>47003120640000</pproTicksIn>
						<pproTicksOut>47226654720000</pproTicksOut>
						<sequence id="sequence-72"/>
						<labels>
							<label2>Forest</label2>
						</labels>
					</clipitem>
					<clipitem id="clipitem-1315" frameBlend="FALSE" premiereChannelType="mono">
						<masterclipid>masterclip-307</masterclipid>
						<name>N42A0927.MOVMulticam</name>
						<enabled>TRUE</enabled>
						<duration>28012</duration>
						<rate>
							<timebase>25</timebase>
							<ntsc>FALSE</ntsc>
						</rate>
						<start>5551</start>
						<end>5576</end>
						<in>5181</in>
						<out>5206</out>
						<pproTicksIn>52642275840000</pproTicksIn>
						<pproTicksOut>52896291840000</pproTicksOut>
						<sequence id="sequence-72"/>
						<labels>
							<label2>Forest</label2>
						</labels>
					</clipitem>
					<clipitem id="clipitem-1316" frameBlend="FALSE" premiereChannelType="mono">
						<masterclipid>masterclip-307</masterclipid>
						<name>N42A0927.MOVMulticam</name>
						<enabled>TRUE</enabled>
						<duration>28012</duration>
						<rate>
							<timebase>25</timebase>
							<ntsc>FALSE</ntsc>
						</rate>
						<start>5576</start>
						<end>5607</end>
						<in>5222</in>
						<out>5253</out>
						<pproTicksIn>53058862080000</pproTicksIn>
						<pproTicksOut>53373841920000</pproTicksOut>
						<sequence id="sequence-72"/>
						<labels>
							<label2>Forest</label2>
						</labels>
					</clipitem>
					<clipitem id="clipitem-1317" frameBlend="FALSE" premiereChannelType="mono">
						<masterclipid>masterclip-307</masterclipid>
						<name>N42A0927.MOVMulticam</name>
						<enabled>TRUE</enabled>
						<duration>28012</duration>
						<rate>
							<timebase>25</timebase>
							<ntsc>FALSE</ntsc>
						</rate>
						<start>5607</start>
						<end>5644</end>
						<in>5296</in>
						<out>5333</out>
						<pproTicksIn>53810749440000</pproTicksIn>
						<pproTicksOut>54186693120000</pproTicksOut>
						<sequence id="sequence-72"/>
						<labels>
							<label2>Forest</label2>
						</labels>
					</clipitem>
					<clipitem id="clipitem-1318" frameBlend="FALSE" premiereChannelType="mono">
						<masterclipid>masterclip-307</masterclipid>
						<name>N42A0927.MOVMulticam</name>
						<enabled>TRUE</enabled>
						<duration>28012</duration>
						<rate>
							<timebase>25</timebase>
							<ntsc>FALSE</ntsc>
						</rate>
						<start>5644</start>
						<end>5684</end>
						<in>5365</in>
						<out>5405</out>
						<pproTicksIn>54511833600000</pproTicksIn>
						<pproTicksOut>54918259200000</pproTicksOut>
						<sequence id="sequence-72"/>
						<labels>
							<label2>Forest</label2>
						</labels>
					</clipitem>
					<clipitem id="clipitem-1319" frameBlend="FALSE" premiereChannelType="mono">
						<masterclipid>masterclip-307</masterclipid>
						<name>N42A0927.MOVMulticam</name>
						<enabled>TRUE</enabled>
						<duration>28012</duration>
						<rate>
							<timebase>25</timebase>
							<ntsc>FALSE</ntsc>
						</rate>
						<start>5684</start>
						<end>5708</end>
						<in>5449</in>
						<out>5473</out>
						<pproTicksIn>55365327360000</pproTicksIn>
						<pproTicksOut>55609182720000</pproTicksOut>
						<sequence id="sequence-72"/>
						<labels>
							<label2>Forest</label2>
						</labels>
					</clipitem>
					<clipitem id="clipitem-1320" frameBlend="FALSE" premiereChannelType="mono">
						<masterclipid>masterclip-307</masterclipid>
						<name>N42A0927.MOVMulticam</name>
						<enabled>TRUE</enabled>
						<duration>28012</duration>
						<rate>
							<timebase>25</timebase>
							<ntsc>FALSE</ntsc>
						</rate>
						<start>5708</start>
						<end>5892</end>
						<in>5557</in>
						<out>5741</out>
						<pproTicksIn>56462676480000</pproTicksIn>
						<pproTicksOut>58332234240000</pproTicksOut>
						<sequence id="sequence-72"/>
						<labels>
							<label2>Forest</label2>
						</labels>
					</clipitem>
					<clipitem id="clipitem-1321" frameBlend="FALSE" premiereChannelType="mono">
						<masterclipid>masterclip-307</masterclipid>
						<name>N42A0927.MOVMulticam</name>
						<enabled>TRUE</enabled>
						<duration>28012</duration>
						<rate>
							<timebase>25</timebase>
							<ntsc>FALSE</ntsc>
						</rate>
						<start>5892</start>
						<end>5925</end>
						<in>5782</in>
						<out>5815</out>
						<pproTicksIn>58748820480000</pproTicksIn>
						<pproTicksOut>59084121600000</pproTicksOut>
						<sequence id="sequence-72"/>
						<labels>
							<label2>Forest</label2>
						</labels>
					</clipitem>
					<clipitem id="clipitem-1322" frameBlend="FALSE" premiereChannelType="mono">
						<masterclipid>masterclip-307</masterclipid>
						<name>N42A0927.MOVMulticam</name>
						<enabled>TRUE</enabled>
						<duration>28012</duration>
						<rate>
							<timebase>25</timebase>
							<ntsc>FALSE</ntsc>
						</rate>
						<start>5925</start>
						<end>5997</end>
						<in>5837</in>
						<out>5909</out>
						<pproTicksIn>59307655680000</pproTicksIn>
						<pproTicksOut>60039221760000</pproTicksOut>
						<sequence id="sequence-72"/>
						<labels>
							<label2>Forest</label2>
						</labels>
					</clipitem>
					<clipitem id="clipitem-1323" frameBlend="FALSE" premiereChannelType="mono">
						<masterclipid>masterclip-307</masterclipid>
						<name>N42A0927.MOVMulticam</name>
						<enabled>TRUE</enabled>
						<duration>28012</duration>
						<rate>
							<timebase>25</timebase>
							<ntsc>FALSE</ntsc>
						</rate>
						<start>5997</start>
						<end>6070</end>
						<in>5925</in>
						<out>5998</out>
						<pproTicksIn>60201792000000</pproTicksIn>
						<pproTicksOut>60943518720000</pproTicksOut>
						<sequence id="sequence-72"/>
						<labels>
							<label2>Forest</label2>
						</labels>
					</clipitem>
					<clipitem id="clipitem-1324" frameBlend="FALSE" premiereChannelType="mono">
						<masterclipid>masterclip-307</masterclipid>
						<name>N42A0927.MOVMulticam</name>
						<enabled>TRUE</enabled>
						<duration>28012</duration>
						<rate>
							<timebase>25</timebase>
							<ntsc>FALSE</ntsc>
						</rate>
						<start>6075</start>
						<end>6355</end>
						<in>7121</in>
						<out>7401</out>
						<pproTicksIn>72353917440000</pproTicksIn>
						<pproTicksOut>75198896640000</pproTicksOut>
						<sequence id="sequence-72"/>
						<labels>
							<label2>Forest</label2>
						</labels>
					</clipitem>
					<clipitem id="clipitem-1325" frameBlend="FALSE" premiereChannelType="mono">
						<masterclipid>masterclip-307</masterclipid>
						<name>N42A0927.MOVMulticam</name>
						<enabled>TRUE</enabled>
						<duration>28012</duration>
						<rate>
							<timebase>25</timebase>
							<ntsc>FALSE</ntsc>
						</rate>
						<start>6355</start>
						<end>6379</end>
						<in>7419</in>
						<out>7443</out>
						<pproTicksIn>75381788160000</pproTicksIn>
						<pproTicksOut>75625643520000</pproTicksOut>
						<sequence id="sequence-72"/>
						<labels>
							<label2>Forest</label2>
						</labels>
					</clipitem>
					<clipitem id="clipitem-1326" frameBlend="FALSE" premiereChannelType="mono">
						<masterclipid>masterclip-307</masterclipid>
						<name>N42A0927.MOVMulticam</name>
						<enabled>TRUE</enabled>
						<duration>28012</duration>
						<rate>
							<timebase>25</timebase>
							<ntsc>FALSE</ntsc>
						</rate>
						<start>6379</start>
						<end>6400</end>
						<in>7469</in>
						<out>7490</out>
						<pproTicksIn>75889820160000</pproTicksIn>
						<pproTicksOut>76103193600000</pproTicksOut>
						<sequence id="sequence-72"/>
						<labels>
							<label2>Forest</label2>
						</labels>
					</clipitem>
					<clipitem id="clipitem-1327" frameBlend="FALSE" premiereChannelType="mono">
						<masterclipid>masterclip-307</masterclipid>
						<name>N42A0927.MOVMulticam</name>
						<enabled>TRUE</enabled>
						<duration>28012</duration>
						<rate>
							<timebase>25</timebase>
							<ntsc>FALSE</ntsc>
						</rate>
						<start>6400</start>
						<end>6846</end>
						<in>8700</in>
						<out>9146</out>
						<pproTicksIn>88397568000000</pproTicksIn>
						<pproTicksOut>92929213440000</pproTicksOut>
						<sequence id="sequence-72"/>
						<labels>
							<label2>Forest</label2>
						</labels>
					</clipitem>
					<clipitem id="clipitem-1328" frameBlend="FALSE" premiereChannelType="mono">
						<masterclipid>masterclip-307</masterclipid>
						<name>N42A0927.MOVMulticam</name>
						<enabled>TRUE</enabled>
						<duration>28012</duration>
						<rate>
							<timebase>25</timebase>
							<ntsc>FALSE</ntsc>
						</rate>
						<start>6846</start>
						<end>7007</end>
						<in>9160</in>
						<out>9321</out>
						<pproTicksIn>93071462400000</pproTicksIn>
						<pproTicksOut>94707325440000</pproTicksOut>
						<sequence id="sequence-72"/>
						<labels>
							<label2>Forest</label2>
						</labels>
					</clipitem>
					<clipitem id="clipitem-1329" frameBlend="FALSE" premiereChannelType="mono">
						<masterclipid>masterclip-324</masterclipid>
						<name>AA3120</name>
						<enabled>TRUE</enabled>
						<duration>18096</duration>
						<rate>
							<timebase>25</timebase>
							<ntsc>FALSE</ntsc>
						</rate>
						<start>7854</start>
						<end>7998</end>
						<in>4947</in>
						<out>5091</out>
						<pproTicksIn>50264686080000</pproTicksIn>
						<pproTicksOut>51727818240000</pproTicksOut>
						<file id="file-312"/>
						<sourcetrack>
							<mediatype>audio</mediatype>
							<trackindex>2</trackindex>
						</sourcetrack>
							<marker>
								<comment>følger dere med på strømprisene så dere vet når dere skal svitsje over på propan&#13;ja</comment>
								<name></name>
								<in>6525</in>
								<out>-1</out>
							</marker>
							<marker>
								<comment>april</comment>
								<name></name>
								<in>1180</in>
								<out>-1</out>
							</marker>
							<marker>
								<comment>i natt er det strøm, der er på dagtid det er dyrt med strøm</comment>
								<name></name>
								<in>7252</in>
								<out>-1</out>
							</marker>
							<marker>
								<comment>så strømregningen deres er ganske stor&#13;en stor del av slyumpen går til energi</comment>
								<name></name>
								<in>14044</in>
								<out>-1</out>
							</marker>
							<marker>
								<comment>og den norske strømmen er jo heller ikke klimanøytral, vi utveksler jo med danmark og sverige</comment>
								<name></name>
								<in>14390</in>
								<out>-1</out>
							</marker>
							<marker>
								<comment>sola står for modningen, men vi har varme</comment>
								<name></name>
								<in>3262</in>
								<out>-1</out>
							</marker>
							<marker>
								<comment></comment>
								<name>Wow</name>
								<in>672</in>
								<out>-1</out>
							</marker>
							<marker>
								<comment>prøver å finne ut hvorfor utslippene fra norske tomater blir så høye</comment>
								<name></name>
								<in>1756</in>
								<out>-1</out>
							</marker>
							<marker>
								<comment>70 prosetn 30 prosent</comment>
								<name></name>
								<in>11752</in>
								<out>-1</out>
							</marker>
							<marker>
								<comment>mål om å bli mer klimavennlig?&#13;ja, det er derfor vi skal byte t den, men vi må ha backup</comment>
								<name></name>
								<in>12253</in>
								<out>-1</out>
							</marker>
							<marker>
								<comment>om natta når det er 15 minus, holder det ikke</comment>
								<name></name>
								<in>4748</in>
								<out>-1</out>
							</marker>
							<marker>
								<comment>når får v idise, det begynner å komme i april</comment>
								<name></name>
								<in>15175</in>
								<out>-1</out>
							</marker>
							<marker>
								<comment>i dag er det ikke billigere, i dag er strømmen dyr</comment>
								<name></name>
								<in>5536</in>
								<out>-1</out>
							</marker>
							<marker>
								<comment>så ahr vi propanbrener</comment>
								<name></name>
								<in>3681</in>
								<out>-1</out>
							</marker>
							<marker>
								<comment>varmen produserer innni her?&#13;det er en ovn og det er en ovn</comment>
								<name></name>
								<in>5893</in>
								<out>-1</out>
							</marker>
							<marker>
								<comment>i åære har får vi 10 prosent lys og 90 prosent varme</comment>
								<name></name>
								<in>4490</in>
								<out>-1</out>
							</marker>
							<marker>
								<comment>Vi skal ha dobbelt så mye co2. og det må dere ta fra gass? vi kan kjøpe det, men det er dumt når vi først lager det</comment>
								<name></name>
								<in>9185</in>
								<out>-1</out>
							</marker>
							<marker>
								<comment>det går med mye lys&#13;ja, det går mye nå</comment>
								<name></name>
								<in>2878</in>
								<out>-1</out>
							</marker>
							<marker>
								<comment>her er gass,propanbrenneren og her er elkjelen</comment>
								<name></name>
								<in>5042</in>
								<out>-1</out>
							</marker>
						<link>
							<linkclipref>clipitem-1085</linkclipref>
							<mediatype>video</mediatype>
							<trackindex>1</trackindex>
							<clipindex>103</clipindex>
						</link>
						<link>
							<linkclipref>clipitem-1247</linkclipref>
							<mediatype>audio</mediatype>
							<trackindex>1</trackindex>
							<clipindex>50</clipindex>
						</link>
						<link>
							<linkclipref>clipitem-1329</linkclipref>
							<mediatype>audio</mediatype>
							<trackindex>2</trackindex>
							<clipindex>39</clipindex>
						</link>
						<logginginfo>
							<description></description>
							<scene></scene>
							<shottake>AA3120</shottake>
							<lognote></lognote>
						</logginginfo>
						<labels>
							<label2>Iris</label2>
						</labels>
					</clipitem>
					<clipitem id="clipitem-1330" frameBlend="FALSE" premiereChannelType="mono">
						<masterclipid>masterclip-324</masterclipid>
						<name>AA3120</name>
						<enabled>TRUE</enabled>
						<duration>18096</duration>
						<rate>
							<timebase>25</timebase>
							<ntsc>FALSE</ntsc>
						</rate>
						<start>7998</start>
						<end>8255</end>
						<in>6454</in>
						<out>6711</out>
						<pproTicksIn>65576770560000</pproTicksIn>
						<pproTicksOut>68188055040000</pproTicksOut>
						<file id="file-312"/>
						<sourcetrack>
							<mediatype>audio</mediatype>
							<trackindex>2</trackindex>
						</sourcetrack>
							<marker>
								<comment>følger dere med på strømprisene så dere vet når dere skal svitsje over på propan&#13;ja</comment>
								<name></name>
								<in>6525</in>
								<out>-1</out>
							</marker>
							<marker>
								<comment>april</comment>
								<name></name>
								<in>1180</in>
								<out>-1</out>
							</marker>
							<marker>
								<comment>i natt er det strøm, der er på dagtid det er dyrt med strøm</comment>
								<name></name>
								<in>7252</in>
								<out>-1</out>
							</marker>
							<marker>
								<comment>så strømregningen deres er ganske stor&#13;en stor del av slyumpen går til energi</comment>
								<name></name>
								<in>14044</in>
								<out>-1</out>
							</marker>
							<marker>
								<comment>og den norske strømmen er jo heller ikke klimanøytral, vi utveksler jo med danmark og sverige</comment>
								<name></name>
								<in>14390</in>
								<out>-1</out>
							</marker>
							<marker>
								<comment>sola står for modningen, men vi har varme</comment>
								<name></name>
								<in>3262</in>
								<out>-1</out>
							</marker>
							<marker>
								<comment></comment>
								<name>Wow</name>
								<in>672</in>
								<out>-1</out>
							</marker>
							<marker>
								<comment>prøver å finne ut hvorfor utslippene fra norske tomater blir så høye</comment>
								<name></name>
								<in>1756</in>
								<out>-1</out>
							</marker>
							<marker>
								<comment>70 prosetn 30 prosent</comment>
								<name></name>
								<in>11752</in>
								<out>-1</out>
							</marker>
							<marker>
								<comment>mål om å bli mer klimavennlig?&#13;ja, det er derfor vi skal byte t den, men vi må ha backup</comment>
								<name></name>
								<in>12253</in>
								<out>-1</out>
							</marker>
							<marker>
								<comment>om natta når det er 15 minus, holder det ikke</comment>
								<name></name>
								<in>4748</in>
								<out>-1</out>
							</marker>
							<marker>
								<comment>når får v idise, det begynner å komme i april</comment>
								<name></name>
								<in>15175</in>
								<out>-1</out>
							</marker>
							<marker>
								<comment>i dag er det ikke billigere, i dag er strømmen dyr</comment>
								<name></name>
								<in>5536</in>
								<out>-1</out>
							</marker>
							<marker>
								<comment>så ahr vi propanbrener</comment>
								<name></name>
								<in>3681</in>
								<out>-1</out>
							</marker>
							<marker>
								<comment>varmen produserer innni her?&#13;det er en ovn og det er en ovn</comment>
								<name></name>
								<in>5893</in>
								<out>-1</out>
							</marker>
							<marker>
								<comment>i åære har får vi 10 prosent lys og 90 prosent varme</comment>
								<name></name>
								<in>4490</in>
								<out>-1</out>
							</marker>
							<marker>
								<comment>Vi skal ha dobbelt så mye co2. og det må dere ta fra gass? vi kan kjøpe det, men det er dumt når vi først lager det</comment>
								<name></name>
								<in>9185</in>
								<out>-1</out>
							</marker>
							<marker>
								<comment>det går med mye lys&#13;ja, det går mye nå</comment>
								<name></name>
								<in>2878</in>
								<out>-1</out>
							</marker>
							<marker>
								<comment>her er gass,propanbrenneren og her er elkjelen</comment>
								<name></name>
								<in>5042</in>
								<out>-1</out>
							</marker>
						<link>
							<linkclipref>clipitem-1087</linkclipref>
							<mediatype>video</mediatype>
							<trackindex>1</trackindex>
							<clipindex>105</clipindex>
						</link>
						<link>
							<linkclipref>clipitem-1248</linkclipref>
							<mediatype>audio</mediatype>
							<trackindex>1</trackindex>
							<clipindex>51</clipindex>
						</link>
						<link>
							<linkclipref>clipitem-1330</linkclipref>
							<mediatype>audio</mediatype>
							<trackindex>2</trackindex>
							<clipindex>40</clipindex>
						</link>
						<logginginfo>
							<description></description>
							<scene></scene>
							<shottake>AA3120</shottake>
							<lognote></lognote>
						</logginginfo>
						<labels>
							<label2>Iris</label2>
						</labels>
					</clipitem>
					<clipitem id="clipitem-1331" frameBlend="FALSE" premiereChannelType="mono">
						<masterclipid>masterclip-326</masterclipid>
						<name>AA3121</name>
						<enabled>TRUE</enabled>
						<duration>30672</duration>
						<rate>
							<timebase>25</timebase>
							<ntsc>FALSE</ntsc>
						</rate>
						<start>8700</start>
						<end>8952</end>
						<in>27992</in>
						<out>28244</out>
						<pproTicksIn>284416634880000</pproTicksIn>
						<pproTicksOut>286977116160000</pproTicksOut>
						<file id="file-314"/>
						<sourcetrack>
							<mediatype>audio</mediatype>
							<trackindex>2</trackindex>
						</sourcetrack>
							<marker>
								<comment>hva kan du jør for  få ned utslippene?&#13;jeg gjør det jeg kan jeg, vi må ha energi</comment>
								<name></name>
								<in>24984</in>
								<out>-1</out>
							</marker>
							<marker>
								<comment>er står det grad,er er det antall garder den leverer ut?</comment>
								<name></name>
								<in>9067</in>
								<out>-1</out>
							</marker>
							<marker>
								<comment>da hadde vi kommet i gang 2 måneder seinere kanskje</comment>
								<name></name>
								<in>10792</in>
								<out>-1</out>
							</marker>
							<marker>
								<comment>klima eller økonoi?&#13;det viktigste er at vi skal få ting til å gå rundt&#13;men når skjer det da?</comment>
								<name></name>
								<in>18590</in>
								<out>-1</out>
							</marker>
							<marker>
								<comment>de greiene du klarer å spare penger på, da er d mer miljøvennlig</comment>
								<name></name>
								<in>3995</in>
								<out>-1</out>
							</marker>
							<marker>
								<comment>hva hadde skjedd hvis dere skull bare dyrke med natrulig sollys?&#13;DA må vi vente med å så, vnete på sola</comment>
								<name></name>
								<in>10417</in>
								<out>-1</out>
							</marker>
							<marker>
								<comment>jeg få ikke til å bruke mindre</comment>
								<name></name>
								<in>25788</in>
								<out>-1</out>
							</marker>
							<marker>
								<comment>vi kjøper ullkraft fra damark, kankjs elurere med gasskraft i norge</comment>
								<name></name>
								<in>25318</in>
								<out>-1</out>
							</marker>
							<marker>
								<comment>det er dyrere med nyttedyr enne sprøyting men det er lettere</comment>
								<name></name>
								<in>22539</in>
								<out>-1</out>
							</marker>
							<marker>
								<comment>jeg tar de tallene med en klype salt</comment>
								<name></name>
								<in>24377</in>
								<out>-1</out>
							</marker>
							<marker>
								<comment>mulig det er noe mer som gå an, jeg er usikker</comment>
								<name></name>
								<in>26037</in>
								<out>-1</out>
							</marker>
							<marker>
								<comment>må man bruke torv?&#13;nei du kan stappe sokkene dine oppi om du vil</comment>
								<name></name>
								<in>17369</in>
								<out>-1</out>
							</marker>
							<marker>
								<comment>men det blir dyrt</comment>
								<name></name>
								<in>17768</in>
								<out>-1</out>
							</marker>
							<marker>
								<comment>varmepmpe lønner seg fort, vurderte å ta fra havet, men vi er for små, hadde vi vært 10 ganger større, hadde vi vurdert det</comment>
								<name></name>
								<in>28786</in>
								<out>-1</out>
							</marker>
						<link>
							<linkclipref>clipitem-1094</linkclipref>
							<mediatype>video</mediatype>
							<trackindex>1</trackindex>
							<clipindex>112</clipindex>
						</link>
						<link>
							<linkclipref>clipitem-1249</linkclipref>
							<mediatype>audio</mediatype>
							<trackindex>1</trackindex>
							<clipindex>52</clipindex>
						</link>
						<link>
							<linkclipref>clipitem-1331</linkclipref>
							<mediatype>audio</mediatype>
							<trackindex>2</trackindex>
							<clipindex>41</clipindex>
						</link>
						<logginginfo>
							<description></description>
							<scene></scene>
							<shottake>AA3121</shottake>
							<lognote></lognote>
						</logginginfo>
						<labels>
							<label2>Iris</label2>
						</labels>
					</clipitem>
					<clipitem id="clipitem-1332" frameBlend="FALSE" premiereChannelType="mono">
						<masterclipid>masterclip-332</masterclipid>
						<name>AA3112Multicam</name>
						<enabled>TRUE</enabled>
						<duration>19380</duration>
						<rate>
							<timebase>25</timebase>
							<ntsc>FALSE</ntsc>
						</rate>
						<start>9413</start>
						<end>9590</end>
						<in>3644</in>
						<out>3821</out>
						<pproTicksIn>37025372160000</pproTicksIn>
						<pproTicksOut>38823805440000</pproTicksOut>
						<sequence id="sequence-73"/>
						<link>
							<linkclipref>clipitem-1099</linkclipref>
							<mediatype>video</mediatype>
							<trackindex>1</trackindex>
							<clipindex>117</clipindex>
						</link>
						<link>
							<linkclipref>clipitem-1250</linkclipref>
							<mediatype>audio</mediatype>
							<trackindex>1</trackindex>
							<clipindex>53</clipindex>
						</link>
						<link>
							<linkclipref>clipitem-1332</linkclipref>
							<mediatype>audio</mediatype>
							<trackindex>2</trackindex>
							<clipindex>42</clipindex>
						</link>
						<labels>
							<label2>Forest</label2>
						</labels>
					</clipitem>
					<clipitem id="clipitem-1333" frameBlend="FALSE" premiereChannelType="mono">
						<masterclipid>masterclip-332</masterclipid>
						<name>AA3112Multicam</name>
						<enabled>TRUE</enabled>
						<duration>19380</duration>
						<rate>
							<timebase>25</timebase>
							<ntsc>FALSE</ntsc>
						</rate>
						<start>9590</start>
						<end>9715</end>
						<in>7054</in>
						<out>7179</out>
						<pproTicksIn>71673154560000</pproTicksIn>
						<pproTicksOut>72943234560000</pproTicksOut>
						<sequence id="sequence-73"/>
						<link>
							<linkclipref>clipitem-1106</linkclipref>
							<mediatype>video</mediatype>
							<trackindex>1</trackindex>
							<clipindex>118</clipindex>
						</link>
						<link>
							<linkclipref>clipitem-1257</linkclipref>
							<mediatype>audio</mediatype>
							<trackindex>1</trackindex>
							<clipindex>54</clipindex>
						</link>
						<link>
							<linkclipref>clipitem-1333</linkclipref>
							<mediatype>audio</mediatype>
							<trackindex>2</trackindex>
							<clipindex>43</clipindex>
						</link>
						<labels>
							<label2>Forest</label2>
						</labels>
					</clipitem>
					<clipitem id="clipitem-1334" frameBlend="FALSE" premiereChannelType="mono">
						<masterclipid>masterclip-332</masterclipid>
						<name>AA3112Multicam</name>
						<enabled>TRUE</enabled>
						<duration>19380</duration>
						<rate>
							<timebase>25</timebase>
							<ntsc>FALSE</ntsc>
						</rate>
						<start>9715</start>
						<end>9792</end>
						<in>7906</in>
						<out>7983</out>
						<pproTicksIn>80330019840000</pproTicksIn>
						<pproTicksOut>81112389120000</pproTicksOut>
						<sequence id="sequence-73"/>
						<link>
							<linkclipref>clipitem-1107</linkclipref>
							<mediatype>video</mediatype>
							<trackindex>1</trackindex>
							<clipindex>119</clipindex>
						</link>
						<link>
							<linkclipref>clipitem-1258</linkclipref>
							<mediatype>audio</mediatype>
							<trackindex>1</trackindex>
							<clipindex>55</clipindex>
						</link>
						<link>
							<linkclipref>clipitem-1334</linkclipref>
							<mediatype>audio</mediatype>
							<trackindex>2</trackindex>
							<clipindex>44</clipindex>
						</link>
						<labels>
							<label2>Forest</label2>
						</labels>
					</clipitem>
					<clipitem id="clipitem-1335" frameBlend="FALSE" premiereChannelType="mono">
						<masterclipid>masterclip-332</masterclipid>
						<name>AA3112Multicam</name>
						<enabled>TRUE</enabled>
						<duration>19380</duration>
						<rate>
							<timebase>25</timebase>
							<ntsc>FALSE</ntsc>
						</rate>
						<start>9792</start>
						<end>9863</end>
						<in>7983</in>
						<out>8054</out>
						<pproTicksIn>81112389120000</pproTicksIn>
						<pproTicksOut>81833794560000</pproTicksOut>
						<sequence id="sequence-73"/>
						<link>
							<linkclipref>clipitem-1108</linkclipref>
							<mediatype>video</mediatype>
							<trackindex>1</trackindex>
							<clipindex>120</clipindex>
						</link>
						<link>
							<linkclipref>clipitem-1259</linkclipref>
							<mediatype>audio</mediatype>
							<trackindex>1</trackindex>
							<clipindex>56</clipindex>
						</link>
						<link>
							<linkclipref>clipitem-1335</linkclipref>
							<mediatype>audio</mediatype>
							<trackindex>2</trackindex>
							<clipindex>45</clipindex>
						</link>
						<labels>
							<label2>Forest</label2>
						</labels>
					</clipitem>
					<clipitem id="clipitem-1336" frameBlend="FALSE" premiereChannelType="mono">
						<masterclipid>masterclip-332</masterclipid>
						<name>AA3112Multicam</name>
						<enabled>TRUE</enabled>
						<duration>19380</duration>
						<rate>
							<timebase>25</timebase>
							<ntsc>FALSE</ntsc>
						</rate>
						<start>9863</start>
						<end>9910</end>
						<in>8307</in>
						<out>8354</out>
						<pproTicksIn>84404436480000</pproTicksIn>
						<pproTicksOut>84881986560000</pproTicksOut>
						<sequence id="sequence-73"/>
						<link>
							<linkclipref>clipitem-1109</linkclipref>
							<mediatype>video</mediatype>
							<trackindex>1</trackindex>
							<clipindex>121</clipindex>
						</link>
						<link>
							<linkclipref>clipitem-1260</linkclipref>
							<mediatype>audio</mediatype>
							<trackindex>1</trackindex>
							<clipindex>57</clipindex>
						</link>
						<link>
							<linkclipref>clipitem-1336</linkclipref>
							<mediatype>audio</mediatype>
							<trackindex>2</trackindex>
							<clipindex>46</clipindex>
						</link>
						<labels>
							<label2>Forest</label2>
						</labels>
					</clipitem>
					<clipitem id="clipitem-1337" frameBlend="FALSE" premiereChannelType="mono">
						<masterclipid>masterclip-332</masterclipid>
						<name>AA3112Multicam</name>
						<enabled>TRUE</enabled>
						<duration>19380</duration>
						<rate>
							<timebase>25</timebase>
							<ntsc>FALSE</ntsc>
						</rate>
						<start>9910</start>
						<end>-1</end>
						<in>8600</in>
						<out>8623</out>
						<pproTicksIn>87381504000000</pproTicksIn>
						<pproTicksOut>87615198720000</pproTicksOut>
						<sequence id="sequence-73"/>
						<link>
							<linkclipref>clipitem-1110</linkclipref>
							<mediatype>video</mediatype>
							<trackindex>1</trackindex>
							<clipindex>122</clipindex>
						</link>
						<link>
							<linkclipref>clipitem-1261</linkclipref>
							<mediatype>audio</mediatype>
							<trackindex>1</trackindex>
							<clipindex>58</clipindex>
						</link>
						<link>
							<linkclipref>clipitem-1337</linkclipref>
							<mediatype>audio</mediatype>
							<trackindex>2</trackindex>
							<clipindex>47</clipindex>
						</link>
						<labels>
							<label2>Forest</label2>
						</labels>
					</clipitem>
					<transitionitem>
						<start>9931</start>
						<end>9933</end>
						<alignment>center</alignment>
						<cutPoint>0</cutPoint>
						<rate>
							<timebase>25</timebase>
							<ntsc>FALSE</ntsc>
						</rate>
						<effect>
							<name>Cross Fade (+3dB)</name>
							<effectid>KGAudioTransCrossFade3dB</effectid>
							<effecttype>transition</effecttype>
							<mediatype>audio</mediatype>
							<wipecode>0</wipecode>
							<wipeaccuracy>100</wipeaccuracy>
							<startratio>0</startratio>
							<endratio>1</endratio>
							<reverse>FALSE</reverse>
						</effect>
					</transitionitem>
					<clipitem id="clipitem-1338" frameBlend="FALSE" premiereChannelType="mono">
						<masterclipid>masterclip-332</masterclipid>
						<name>AA3112Multicam</name>
						<enabled>TRUE</enabled>
						<duration>19380</duration>
						<rate>
							<timebase>25</timebase>
							<ntsc>FALSE</ntsc>
						</rate>
						<start>-1</start>
						<end>9964</end>
						<in>8629</in>
						<out>8662</out>
						<pproTicksIn>87676162560000</pproTicksIn>
						<pproTicksOut>88011463680000</pproTicksOut>
						<sequence id="sequence-73"/>
						<link>
							<linkclipref>clipitem-1111</linkclipref>
							<mediatype>video</mediatype>
							<trackindex>1</trackindex>
							<clipindex>123</clipindex>
						</link>
						<link>
							<linkclipref>clipitem-1262</linkclipref>
							<mediatype>audio</mediatype>
							<trackindex>1</trackindex>
							<clipindex>60</clipindex>
						</link>
						<link>
							<linkclipref>clipitem-1338</linkclipref>
							<mediatype>audio</mediatype>
							<trackindex>2</trackindex>
							<clipindex>49</clipindex>
						</link>
						<labels>
							<label2>Forest</label2>
						</labels>
					</clipitem>
					<clipitem id="clipitem-1339" frameBlend="FALSE" premiereChannelType="mono">
						<masterclipid>masterclip-336</masterclipid>
						<name>AA3155</name>
						<enabled>TRUE</enabled>
						<duration>5124</duration>
						<rate>
							<timebase>25</timebase>
							<ntsc>FALSE</ntsc>
						</rate>
						<start>10424</start>
						<end>10482</end>
						<in>1446</in>
						<out>1504</out>
						<pproTicksIn>14692285440000</pproTicksIn>
						<pproTicksOut>15281602560000</pproTicksOut>
						<file id="file-323"/>
						<sourcetrack>
							<mediatype>audio</mediatype>
							<trackindex>1</trackindex>
						</sourcetrack>
						<link>
							<linkclipref>clipitem-1116</linkclipref>
							<mediatype>video</mediatype>
							<trackindex>1</trackindex>
							<clipindex>128</clipindex>
						</link>
						<link>
							<linkclipref>clipitem-1339</linkclipref>
							<mediatype>audio</mediatype>
							<trackindex>2</trackindex>
							<clipindex>50</clipindex>
						</link>
						<logginginfo>
							<description></description>
							<scene></scene>
							<shottake>AA3155</shottake>
							<lognote></lognote>
						</logginginfo>
						<labels>
							<label2>Iris</label2>
						</labels>
					</clipitem>
					<clipitem id="clipitem-1340" frameBlend="FALSE" premiereChannelType="mono">
						<masterclipid>masterclip-336</masterclipid>
						<name>AA3155</name>
						<enabled>TRUE</enabled>
						<duration>5124</duration>
						<rate>
							<timebase>25</timebase>
							<ntsc>FALSE</ntsc>
						</rate>
						<start>10482</start>
						<end>10523</end>
						<in>1670</in>
						<out>1711</out>
						<pproTicksIn>16968268800000</pproTicksIn>
						<pproTicksOut>17384855040000</pproTicksOut>
						<file id="file-323"/>
						<sourcetrack>
							<mediatype>audio</mediatype>
							<trackindex>2</trackindex>
						</sourcetrack>
						<link>
							<linkclipref>clipitem-1265</linkclipref>
							<mediatype>audio</mediatype>
							<trackindex>1</trackindex>
							<clipindex>63</clipindex>
						</link>
						<link>
							<linkclipref>clipitem-1340</linkclipref>
							<mediatype>audio</mediatype>
							<trackindex>2</trackindex>
							<clipindex>51</clipindex>
						</link>
						<logginginfo>
							<description></description>
							<scene></scene>
							<shottake>AA3155</shottake>
							<lognote></lognote>
						</logginginfo>
						<labels>
							<label2>Iris</label2>
						</labels>
					</clipitem>
					<clipitem id="clipitem-1341" frameBlend="FALSE" premiereChannelType="mono">
						<masterclipid>masterclip-337</masterclipid>
						<name>AA3156</name>
						<enabled>TRUE</enabled>
						<duration>19440</duration>
						<rate>
							<timebase>25</timebase>
							<ntsc>FALSE</ntsc>
						</rate>
						<start>10523</start>
						<end>10644</end>
						<in>6282</in>
						<out>6403</out>
						<pproTicksIn>63829140480000</pproTicksIn>
						<pproTicksOut>65058577920000</pproTicksOut>
						<file id="file-324"/>
						<sourcetrack>
							<mediatype>audio</mediatype>
							<trackindex>2</trackindex>
						</sourcetrack>
							<marker>
								<comment>det er mye foksu på miljøavtrykket og da er det bra at det kommer opp, vi må bare være enige om fakta</comment>
								<name></name>
								<in>6676</in>
								<out>-1</out>
							</marker>
							<marker>
								<comment>variert meny, men er det viktig at den er norsk?&#13;jeg syns jo det</comment>
								<name></name>
								<in>5081</in>
								<out>-1</out>
							</marker>
							<marker>
								<comment>erupeisk mix er meningsløst, da er det jo bra å skru på gasskjelen</comment>
								<name></name>
								<in>10447</in>
								<out>-1</out>
							</marker>
							<marker>
								<comment>vi må ta den diskusjonen og har gjort ganske mye</comment>
								<name></name>
								<in>7232</in>
								<out>-1</out>
							</marker>
							<marker>
								<comment>er det viktig å ha tomater selv?&#13;ikke energimessig</comment>
								<name></name>
								<in>4501</in>
								<out>-1</out>
							</marker>
							<marker>
								<comment>Dette er det noske konsumet, men nå siste jeg en. Ja da må vi ta opp en</comment>
								<name></name>
								<in>3232</in>
								<out>-1</out>
							</marker>
							<marker>
								<comment>en tredejdel norsk forsningsgrad</comment>
								<name></name>
								<in>3792</in>
								<out>-1</out>
							</marker>
							<marker>
								<comment>DA jeg snakket med deg første gang, sa du at du hadde ventet på at noen som meg skulle ringe?&#13;</comment>
								<name></name>
								<in>6484</in>
								<out>-1</out>
							</marker>
						<link>
							<linkclipref>clipitem-1117</linkclipref>
							<mediatype>video</mediatype>
							<trackindex>1</trackindex>
							<clipindex>129</clipindex>
						</link>
						<link>
							<linkclipref>clipitem-1266</linkclipref>
							<mediatype>audio</mediatype>
							<trackindex>1</trackindex>
							<clipindex>64</clipindex>
						</link>
						<link>
							<linkclipref>clipitem-1341</linkclipref>
							<mediatype>audio</mediatype>
							<trackindex>2</trackindex>
							<clipindex>52</clipindex>
						</link>
						<logginginfo>
							<description></description>
							<scene></scene>
							<shottake>AA3156</shottake>
							<lognote></lognote>
						</logginginfo>
						<labels>
							<label2>Iris</label2>
						</labels>
					</clipitem>
					<clipitem id="clipitem-1342" frameBlend="FALSE" premiereChannelType="mono">
						<masterclipid>masterclip-337</masterclipid>
						<name>AA3156</name>
						<enabled>TRUE</enabled>
						<duration>19440</duration>
						<rate>
							<timebase>25</timebase>
							<ntsc>FALSE</ntsc>
						</rate>
						<start>10644</start>
						<end>10988</end>
						<in>6438</in>
						<out>6782</out>
						<pproTicksIn>65414200320000</pproTicksIn>
						<pproTicksOut>68909460480000</pproTicksOut>
						<file id="file-324"/>
						<sourcetrack>
							<mediatype>audio</mediatype>
							<trackindex>2</trackindex>
						</sourcetrack>
							<marker>
								<comment>det er mye foksu på miljøavtrykket og da er det bra at det kommer opp, vi må bare være enige om fakta</comment>
								<name></name>
								<in>6676</in>
								<out>-1</out>
							</marker>
							<marker>
								<comment>variert meny, men er det viktig at den er norsk?&#13;jeg syns jo det</comment>
								<name></name>
								<in>5081</in>
								<out>-1</out>
							</marker>
							<marker>
								<comment>erupeisk mix er meningsløst, da er det jo bra å skru på gasskjelen</comment>
								<name></name>
								<in>10447</in>
								<out>-1</out>
							</marker>
							<marker>
								<comment>vi må ta den diskusjonen og har gjort ganske mye</comment>
								<name></name>
								<in>7232</in>
								<out>-1</out>
							</marker>
							<marker>
								<comment>er det viktig å ha tomater selv?&#13;ikke energimessig</comment>
								<name></name>
								<in>4501</in>
								<out>-1</out>
							</marker>
							<marker>
								<comment>Dette er det noske konsumet, men nå siste jeg en. Ja da må vi ta opp en</comment>
								<name></name>
								<in>3232</in>
								<out>-1</out>
							</marker>
							<marker>
								<comment>en tredejdel norsk forsningsgrad</comment>
								<name></name>
								<in>3792</in>
								<out>-1</out>
							</marker>
							<marker>
								<comment>DA jeg snakket med deg første gang, sa du at du hadde ventet på at noen som meg skulle ringe?&#13;</comment>
								<name></name>
								<in>6484</in>
								<out>-1</out>
							</marker>
						<link>
							<linkclipref>clipitem-1119</linkclipref>
							<mediatype>video</mediatype>
							<trackindex>1</trackindex>
							<clipindex>131</clipindex>
						</link>
						<link>
							<linkclipref>clipitem-1267</linkclipref>
							<mediatype>audio</mediatype>
							<trackindex>1</trackindex>
							<clipindex>65</clipindex>
						</link>
						<link>
							<linkclipref>clipitem-1342</linkclipref>
							<mediatype>audio</mediatype>
							<trackindex>2</trackindex>
							<clipindex>53</clipindex>
						</link>
						<logginginfo>
							<description></description>
							<scene></scene>
							<shottake>AA3156</shottake>
							<lognote></lognote>
						</logginginfo>
						<labels>
							<label2>Iris</label2>
						</labels>
					</clipitem>
					<clipitem id="clipitem-1343" frameBlend="FALSE" premiereChannelType="mono">
						<masterclipid>masterclip-340</masterclipid>
						<name>MVI_4745.MOVMulticam</name>
						<enabled>TRUE</enabled>
						<duration>34319</duration>
						<rate>
							<timebase>25</timebase>
							<ntsc>FALSE</ntsc>
						</rate>
						<start>11548</start>
						<end>12192</end>
						<in>22648</in>
						<out>23292</out>
						<pproTicksIn>230118174720000</pproTicksIn>
						<pproTicksOut>236661626880000</pproTicksOut>
						<sequence id="sequence-74"/>
						<link>
							<linkclipref>clipitem-1268</linkclipref>
							<mediatype>audio</mediatype>
							<trackindex>1</trackindex>
							<clipindex>66</clipindex>
						</link>
						<link>
							<linkclipref>clipitem-1343</linkclipref>
							<mediatype>audio</mediatype>
							<trackindex>2</trackindex>
							<clipindex>54</clipindex>
						</link>
						<labels>
							<label2>Forest</label2>
						</labels>
					</clipitem>
					<clipitem id="clipitem-1344" frameBlend="FALSE" premiereChannelType="mono">
						<masterclipid>masterclip-340</masterclipid>
						<name>MVI_4745.MOVMulticam</name>
						<enabled>TRUE</enabled>
						<duration>34319</duration>
						<rate>
							<timebase>25</timebase>
							<ntsc>FALSE</ntsc>
						</rate>
						<start>12192</start>
						<end>12768</end>
						<in>24837</in>
						<out>25413</out>
						<pproTicksIn>252359815680000</pproTicksIn>
						<pproTicksOut>258212344320000</pproTicksOut>
						<sequence id="sequence-74"/>
						<link>
							<linkclipref>clipitem-1275</linkclipref>
							<mediatype>audio</mediatype>
							<trackindex>1</trackindex>
							<clipindex>67</clipindex>
						</link>
						<link>
							<linkclipref>clipitem-1344</linkclipref>
							<mediatype>audio</mediatype>
							<trackindex>2</trackindex>
							<clipindex>55</clipindex>
						</link>
						<labels>
							<label2>Forest</label2>
						</labels>
					</clipitem>
					<clipitem id="clipitem-1345" frameBlend="FALSE" premiereChannelType="mono">
						<masterclipid>masterclip-345</masterclipid>
						<name>N42A0925.MOVMulticam</name>
						<enabled>TRUE</enabled>
						<duration>8736</duration>
						<rate>
							<timebase>25</timebase>
							<ntsc>FALSE</ntsc>
						</rate>
						<start>13632</start>
						<end>13841</end>
						<in>3586</in>
						<out>3795</out>
						<pproTicksIn>36436055040000</pproTicksIn>
						<pproTicksOut>38559628800000</pproTicksOut>
						<sequence id="sequence-75"/>
						<link>
							<linkclipref>clipitem-1150</linkclipref>
							<mediatype>video</mediatype>
							<trackindex>1</trackindex>
							<clipindex>150</clipindex>
						</link>
						<link>
							<linkclipref>clipitem-1276</linkclipref>
							<mediatype>audio</mediatype>
							<trackindex>1</trackindex>
							<clipindex>68</clipindex>
						</link>
						<link>
							<linkclipref>clipitem-1345</linkclipref>
							<mediatype>audio</mediatype>
							<trackindex>2</trackindex>
							<clipindex>56</clipindex>
						</link>
						<labels>
							<label2>Forest</label2>
						</labels>
					</clipitem>
					<clipitem id="clipitem-1346" frameBlend="FALSE" premiereChannelType="mono">
						<masterclipid>masterclip-345</masterclipid>
						<name>N42A0925.MOVMulticam</name>
						<enabled>TRUE</enabled>
						<duration>8736</duration>
						<rate>
							<timebase>25</timebase>
							<ntsc>FALSE</ntsc>
						</rate>
						<start>13841</start>
						<end>13898</end>
						<in>7951</in>
						<out>8008</out>
						<pproTicksIn>80787248640000</pproTicksIn>
						<pproTicksOut>81366405120000</pproTicksOut>
						<sequence id="sequence-75"/>
						<link>
							<linkclipref>clipitem-1283</linkclipref>
							<mediatype>audio</mediatype>
							<trackindex>1</trackindex>
							<clipindex>69</clipindex>
						</link>
						<link>
							<linkclipref>clipitem-1346</linkclipref>
							<mediatype>audio</mediatype>
							<trackindex>2</trackindex>
							<clipindex>57</clipindex>
						</link>
						<labels>
							<label2>Forest</label2>
						</labels>
					</clipitem>
					<clipitem id="clipitem-1347" frameBlend="FALSE" premiereChannelType="mono">
						<masterclipid>masterclip-345</masterclipid>
						<name>N42A0925.MOVMulticam</name>
						<enabled>TRUE</enabled>
						<duration>8736</duration>
						<rate>
							<timebase>25</timebase>
							<ntsc>FALSE</ntsc>
						</rate>
						<start>13898</start>
						<end>13973</end>
						<in>8008</in>
						<out>8083</out>
						<pproTicksIn>81366405120000</pproTicksIn>
						<pproTicksOut>82128453120000</pproTicksOut>
						<sequence id="sequence-75"/>
						<link>
							<linkclipref>clipitem-1154</linkclipref>
							<mediatype>video</mediatype>
							<trackindex>1</trackindex>
							<clipindex>154</clipindex>
						</link>
						<link>
							<linkclipref>clipitem-1284</linkclipref>
							<mediatype>audio</mediatype>
							<trackindex>1</trackindex>
							<clipindex>70</clipindex>
						</link>
						<link>
							<linkclipref>clipitem-1347</linkclipref>
							<mediatype>audio</mediatype>
							<trackindex>2</trackindex>
							<clipindex>58</clipindex>
						</link>
						<labels>
							<label2>Forest</label2>
						</labels>
					</clipitem>
					<clipitem id="clipitem-1348" frameBlend="FALSE" premiereChannelType="mono">
						<masterclipid>masterclip-307</masterclipid>
						<name>N42A0927.MOVMulticam</name>
						<enabled>TRUE</enabled>
						<duration>28012</duration>
						<rate>
							<timebase>25</timebase>
							<ntsc>FALSE</ntsc>
						</rate>
						<start>14180</start>
						<end>14355</end>
						<in>21546</in>
						<out>21721</out>
						<pproTicksIn>218921149440000</pproTicksIn>
						<pproTicksOut>220699261440000</pproTicksOut>
						<sequence id="sequence-72"/>
						<link>
							<linkclipref>clipitem-1285</linkclipref>
							<mediatype>audio</mediatype>
							<trackindex>1</trackindex>
							<clipindex>71</clipindex>
						</link>
						<link>
							<linkclipref>clipitem-1348</linkclipref>
							<mediatype>audio</mediatype>
							<trackindex>2</trackindex>
							<clipindex>59</clipindex>
						</link>
						<labels>
							<label2>Forest</label2>
						</labels>
					</clipitem>
					<clipitem id="clipitem-1349" frameBlend="FALSE" premiereChannelType="mono">
						<masterclipid>masterclip-307</masterclipid>
						<name>N42A0927.MOVMulticam</name>
						<enabled>TRUE</enabled>
						<duration>28012</duration>
						<rate>
							<timebase>25</timebase>
							<ntsc>FALSE</ntsc>
						</rate>
						<start>14355</start>
						<end>14539</end>
						<in>21751</in>
						<out>21935</out>
						<pproTicksIn>221004080640000</pproTicksIn>
						<pproTicksOut>222873638400000</pproTicksOut>
						<sequence id="sequence-72"/>
						<link>
							<linkclipref>clipitem-1286</linkclipref>
							<mediatype>audio</mediatype>
							<trackindex>1</trackindex>
							<clipindex>72</clipindex>
						</link>
						<link>
							<linkclipref>clipitem-1349</linkclipref>
							<mediatype>audio</mediatype>
							<trackindex>2</trackindex>
							<clipindex>60</clipindex>
						</link>
						<labels>
							<label2>Forest</label2>
						</labels>
					</clipitem>
					<clipitem id="clipitem-1350" frameBlend="FALSE" premiereChannelType="mono">
						<masterclipid>masterclip-351</masterclipid>
						<name>AA3206</name>
						<enabled>TRUE</enabled>
						<duration>228</duration>
						<rate>
							<timebase>25</timebase>
							<ntsc>FALSE</ntsc>
						</rate>
						<start>14568</start>
						<end>14620</end>
						<in>132</in>
						<out>184</out>
						<pproTicksIn>1341204480000</pproTicksIn>
						<pproTicksOut>1869557760000</pproTicksOut>
						<file id="file-336"/>
						<sourcetrack>
							<mediatype>audio</mediatype>
							<trackindex>2</trackindex>
						</sourcetrack>
							<filter>
								<effect>
									<name>Audio Levels</name>
									<effectid>audiolevels</effectid>
									<effectcategory>audiolevels</effectcategory>
									<effecttype>audiolevels</effecttype>
									<mediatype>audio</mediatype>
									<parameter authoringApp="PremierePro">
										<parameterid>level</parameterid>
										<name>Level</name>
										<valuemin>0</valuemin>
										<valuemax>3.98109</valuemax>
										<value>0.38005</value>
									</parameter>
								</effect>
							</filter>
						<link>
							<linkclipref>clipitem-1168</linkclipref>
							<mediatype>video</mediatype>
							<trackindex>1</trackindex>
							<clipindex>168</clipindex>
						</link>
						<link>
							<linkclipref>clipitem-1287</linkclipref>
							<mediatype>audio</mediatype>
							<trackindex>1</trackindex>
							<clipindex>73</clipindex>
						</link>
						<link>
							<linkclipref>clipitem-1350</linkclipref>
							<mediatype>audio</mediatype>
							<trackindex>2</trackindex>
							<clipindex>61</clipindex>
						</link>
						<logginginfo>
							<description></description>
							<scene></scene>
							<shottake>AA3206</shottake>
							<lognote></lognote>
						</logginginfo>
						<labels>
							<label2>Iris</label2>
						</labels>
					</clipitem>
					<clipitem id="clipitem-1351" frameBlend="FALSE" premiereChannelType="mono">
						<masterclipid>masterclip-345</masterclipid>
						<name>N42A0925.MOVMulticam</name>
						<enabled>TRUE</enabled>
						<duration>8736</duration>
						<rate>
							<timebase>25</timebase>
							<ntsc>FALSE</ntsc>
						</rate>
						<start>14661</start>
						<end>14802</end>
						<in>7761</in>
						<out>7902</out>
						<pproTicksIn>78856727040000</pproTicksIn>
						<pproTicksOut>80289377280000</pproTicksOut>
						<sequence id="sequence-75"/>
							<filter>
								<effect>
									<name>Audio Levels</name>
									<effectid>audiolevels</effectid>
									<effectcategory>audiolevels</effectcategory>
									<effecttype>audiolevels</effecttype>
									<mediatype>audio</mediatype>
									<parameter authoringApp="PremierePro">
										<parameterid>level</parameterid>
										<name>Level</name>
										<valuemin>0</valuemin>
										<valuemax>3.98109</valuemax>
										<value>0.99763</value>
									</parameter>
								</effect>
							</filter>
						<link>
							<linkclipref>clipitem-1171</linkclipref>
							<mediatype>video</mediatype>
							<trackindex>1</trackindex>
							<clipindex>171</clipindex>
						</link>
						<link>
							<linkclipref>clipitem-1288</linkclipref>
							<mediatype>audio</mediatype>
							<trackindex>1</trackindex>
							<clipindex>74</clipindex>
						</link>
						<link>
							<linkclipref>clipitem-1351</linkclipref>
							<mediatype>audio</mediatype>
							<trackindex>2</trackindex>
							<clipindex>62</clipindex>
						</link>
						<labels>
							<label2>Forest</label2>
						</labels>
					</clipitem>
					<clipitem id="clipitem-1352" frameBlend="FALSE" premiereChannelType="mono">
						<masterclipid>masterclip-345</masterclipid>
						<name>N42A0925.MOVMulticam</name>
						<enabled>TRUE</enabled>
						<duration>8736</duration>
						<rate>
							<timebase>25</timebase>
							<ntsc>FALSE</ntsc>
						</rate>
						<start>14802</start>
						<end>14803</end>
						<in>7912</in>
						<out>7913</out>
						<pproTicksIn>80390983680000</pproTicksIn>
						<pproTicksOut>80401144320000</pproTicksOut>
						<sequence id="sequence-75"/>
							<filter>
								<effect>
									<name>Audio Levels</name>
									<effectid>audiolevels</effectid>
									<effectcategory>audiolevels</effectcategory>
									<effecttype>audiolevels</effecttype>
									<mediatype>audio</mediatype>
									<parameter authoringApp="PremierePro">
										<parameterid>level</parameterid>
										<name>Level</name>
										<valuemin>0</valuemin>
										<valuemax>3.98109</valuemax>
										<value>0.99763</value>
									</parameter>
								</effect>
							</filter>
						<labels>
							<label2>Forest</label2>
						</labels>
					</clipitem>
					<enabled>TRUE</enabled>
					<locked>FALSE</locked>
					<filter>
						<effect>
							<name>Audio Levels</name>
							<effectid>audiolevels</effectid>
							<effectcategory>audiolevels</effectcategory>
							<effecttype>audiolevels</effecttype>
							<mediatype>audio</mediatype>
							<parameter authoringApp="PremierePro">
								<parameterid>level</parameterid>
								<name>Level</name>
								<valuemin>0</valuemin>
								<valuemax>3.98109</valuemax>
								<value>1.9198</value>
							</parameter>
						</effect>
					</filter>
					<outputchannelindex>2</outputchannelindex>
				</track>
				<track monotrack="TRUE" TL.SQTrackAudioKeyframeStyle="0" TL.SQTrackShy="0" TL.SQTrackExpandedHeight="58" TL.SQTrackExpanded="1" MZ.TrackTargeted="1" MZ.TrackName="sync 3 mono" PannerCurrentValue="0.5" PannerIsInverted="true" PannerStartKeyframe="-91445760000000000,0.5,0,0,0,0,0,0" PannerName="Pan" currentExplodedTrackIndex="0" totalExplodedTrackCount="1" premiereTrackType="Mono">
					<clipitem id="clipitem-1353" frameBlend="FALSE" premiereChannelType="mono">
						<masterclipid>masterclip-262</masterclipid>
						<name>AA0114</name>
						<enabled>TRUE</enabled>
						<duration>2352</duration>
						<rate>
							<timebase>25</timebase>
							<ntsc>FALSE</ntsc>
						</rate>
						<start>557</start>
						<end>643</end>
						<in>410</in>
						<out>496</out>
						<pproTicksIn>4165862400000</pproTicksIn>
						<pproTicksOut>5039677440000</pproTicksOut>
						<file id="file-252"/>
						<sourcetrack>
							<mediatype>audio</mediatype>
							<trackindex>1</trackindex>
						</sourcetrack>
						<link>
							<linkclipref>clipitem-973</linkclipref>
							<mediatype>video</mediatype>
							<trackindex>1</trackindex>
							<clipindex>7</clipindex>
						</link>
						<link>
							<linkclipref>clipitem-1353</linkclipref>
							<mediatype>audio</mediatype>
							<trackindex>3</trackindex>
							<clipindex>1</clipindex>
						</link>
						<link>
							<linkclipref>clipitem-1385</linkclipref>
							<mediatype>audio</mediatype>
							<trackindex>4</trackindex>
							<clipindex>1</clipindex>
						</link>
						<logginginfo>
							<description></description>
							<scene></scene>
							<shottake>AA0114</shottake>
							<lognote></lognote>
						</logginginfo>
						<labels>
							<label2>Iris</label2>
						</labels>
					</clipitem>
					<clipitem id="clipitem-1354" frameBlend="FALSE" premiereChannelType="mono">
						<masterclipid>masterclip-262</masterclipid>
						<name>AA0114</name>
						<enabled>TRUE</enabled>
						<duration>2352</duration>
						<rate>
							<timebase>25</timebase>
							<ntsc>FALSE</ntsc>
						</rate>
						<start>643</start>
						<end>720</end>
						<in>1212</in>
						<out>1289</out>
						<pproTicksIn>12314695680000</pproTicksIn>
						<pproTicksOut>13097064960000</pproTicksOut>
						<file id="file-252"/>
						<sourcetrack>
							<mediatype>audio</mediatype>
							<trackindex>1</trackindex>
						</sourcetrack>
						<link>
							<linkclipref>clipitem-974</linkclipref>
							<mediatype>video</mediatype>
							<trackindex>1</trackindex>
							<clipindex>8</clipindex>
						</link>
						<link>
							<linkclipref>clipitem-1354</linkclipref>
							<mediatype>audio</mediatype>
							<trackindex>3</trackindex>
							<clipindex>2</clipindex>
						</link>
						<link>
							<linkclipref>clipitem-1386</linkclipref>
							<mediatype>audio</mediatype>
							<trackindex>4</trackindex>
							<clipindex>2</clipindex>
						</link>
						<logginginfo>
							<description></description>
							<scene></scene>
							<shottake>AA0114</shottake>
							<lognote></lognote>
						</logginginfo>
						<labels>
							<label2>Iris</label2>
						</labels>
					</clipitem>
					<clipitem id="clipitem-1355" frameBlend="FALSE" premiereChannelType="mono">
						<masterclipid>masterclip-269</masterclipid>
						<name>SC-DKMR99091615AA_p0.mxf</name>
						<enabled>TRUE</enabled>
						<duration>3492</duration>
						<rate>
							<timebase>25</timebase>
							<ntsc>FALSE</ntsc>
						</rate>
						<start>1386</start>
						<end>1514</end>
						<in>2485</in>
						<out>2613</out>
						<pproTicksIn>25249190400000</pproTicksIn>
						<pproTicksOut>26549752320000</pproTicksOut>
						<file id="file-259"/>
						<sourcetrack>
							<mediatype>audio</mediatype>
							<trackindex>3</trackindex>
						</sourcetrack>
							<filter>
								<effect>
									<name>Audio Levels</name>
									<effectid>audiolevels</effectid>
									<effectcategory>audiolevels</effectcategory>
									<effecttype>audiolevels</effecttype>
									<mediatype>audio</mediatype>
									<parameter authoringApp="PremierePro">
										<parameterid>level</parameterid>
										<name>Level</name>
										<valuemin>0</valuemin>
										<valuemax>3.98109</valuemax>
										<value>0.889139</value>
									</parameter>
								</effect>
							</filter>
						<link>
							<linkclipref>clipitem-990</linkclipref>
							<mediatype>video</mediatype>
							<trackindex>1</trackindex>
							<clipindex>24</clipindex>
						</link>
						<link>
							<linkclipref>clipitem-1355</linkclipref>
							<mediatype>audio</mediatype>
							<trackindex>3</trackindex>
							<clipindex>3</clipindex>
						</link>
						<link>
							<linkclipref>clipitem-1387</linkclipref>
							<mediatype>audio</mediatype>
							<trackindex>4</trackindex>
							<clipindex>3</clipindex>
						</link>
						<logginginfo>
							<description></description>
							<scene></scene>
							<shottake></shottake>
							<lognote></lognote>
						</logginginfo>
						<labels>
							<label2>Iris</label2>
						</labels>
					</clipitem>
					<clipitem id="clipitem-1356" frameBlend="FALSE" premiereChannelType="mono">
						<masterclipid>masterclip-271</masterclipid>
						<name>AA0135</name>
						<enabled>TRUE</enabled>
						<duration>1836</duration>
						<rate>
							<timebase>25</timebase>
							<ntsc>FALSE</ntsc>
						</rate>
						<start>1514</start>
						<end>1605</end>
						<in>1492</in>
						<out>1583</out>
						<pproTicksIn>15159674880000</pproTicksIn>
						<pproTicksOut>16084293120000</pproTicksOut>
						<file id="file-261"/>
						<sourcetrack>
							<mediatype>audio</mediatype>
							<trackindex>1</trackindex>
						</sourcetrack>
							<filter>
								<effect>
									<name>Audio Levels</name>
									<effectid>audiolevels</effectid>
									<effectcategory>audiolevels</effectcategory>
									<effecttype>audiolevels</effecttype>
									<mediatype>audio</mediatype>
									<parameter authoringApp="PremierePro">
										<parameterid>level</parameterid>
										<name>Level</name>
										<valuemin>0</valuemin>
										<valuemax>3.98109</valuemax>
										<value>0</value>
									</parameter>
								</effect>
							</filter>
						<link>
							<linkclipref>clipitem-991</linkclipref>
							<mediatype>video</mediatype>
							<trackindex>1</trackindex>
							<clipindex>25</clipindex>
						</link>
						<link>
							<linkclipref>clipitem-1356</linkclipref>
							<mediatype>audio</mediatype>
							<trackindex>3</trackindex>
							<clipindex>4</clipindex>
						</link>
						<link>
							<linkclipref>clipitem-1388</linkclipref>
							<mediatype>audio</mediatype>
							<trackindex>4</trackindex>
							<clipindex>4</clipindex>
						</link>
						<logginginfo>
							<description></description>
							<scene></scene>
							<shottake>AA0135</shottake>
							<lognote></lognote>
						</logginginfo>
						<labels>
							<label2>Iris</label2>
						</labels>
					</clipitem>
					<clipitem id="clipitem-1357" frameBlend="FALSE" premiereChannelType="mono">
						<masterclipid>masterclip-279</masterclipid>
						<name>AA3160</name>
						<enabled>TRUE</enabled>
						<duration>408</duration>
						<rate>
							<timebase>25</timebase>
							<ntsc>FALSE</ntsc>
						</rate>
						<start>3020</start>
						<end>3078</end>
						<in>213</in>
						<out>271</out>
						<pproTicksIn>2164216320000</pproTicksIn>
						<pproTicksOut>2753533440000</pproTicksOut>
						<file id="file-269"/>
						<sourcetrack>
							<mediatype>audio</mediatype>
							<trackindex>1</trackindex>
						</sourcetrack>
						<link>
							<linkclipref>clipitem-1003</linkclipref>
							<mediatype>video</mediatype>
							<trackindex>1</trackindex>
							<clipindex>37</clipindex>
						</link>
						<link>
							<linkclipref>clipitem-1357</linkclipref>
							<mediatype>audio</mediatype>
							<trackindex>3</trackindex>
							<clipindex>5</clipindex>
						</link>
						<logginginfo>
							<description></description>
							<scene></scene>
							<shottake>AA3160</shottake>
							<lognote></lognote>
						</logginginfo>
						<labels>
							<label2>Iris</label2>
						</labels>
					</clipitem>
					<clipitem id="clipitem-1358" frameBlend="FALSE" premiereChannelType="mono">
						<masterclipid>masterclip-281</masterclipid>
						<name>AA3220</name>
						<enabled>TRUE</enabled>
						<duration>7764</duration>
						<rate>
							<timebase>25</timebase>
							<ntsc>FALSE</ntsc>
						</rate>
						<start>3240</start>
						<end>3266</end>
						<in>6093</in>
						<out>6119</out>
						<pproTicksIn>61908779520000</pproTicksIn>
						<pproTicksOut>62172956160000</pproTicksOut>
						<file id="file-271"/>
						<sourcetrack>
							<mediatype>audio</mediatype>
							<trackindex>1</trackindex>
						</sourcetrack>
						<link>
							<linkclipref>clipitem-1005</linkclipref>
							<mediatype>video</mediatype>
							<trackindex>1</trackindex>
							<clipindex>39</clipindex>
						</link>
						<link>
							<linkclipref>clipitem-1358</linkclipref>
							<mediatype>audio</mediatype>
							<trackindex>3</trackindex>
							<clipindex>6</clipindex>
						</link>
						<logginginfo>
							<description></description>
							<scene></scene>
							<shottake>AA3220</shottake>
							<lognote></lognote>
						</logginginfo>
						<labels>
							<label2>Iris</label2>
						</labels>
					</clipitem>
					<clipitem id="clipitem-1359" frameBlend="FALSE" premiereChannelType="mono">
						<masterclipid>masterclip-281</masterclipid>
						<name>AA3220</name>
						<enabled>TRUE</enabled>
						<duration>7764</duration>
						<rate>
							<timebase>25</timebase>
							<ntsc>FALSE</ntsc>
						</rate>
						<start>3266</start>
						<end>3297</end>
						<in>2138</in>
						<out>2169</out>
						<pproTicksIn>21723448320000</pproTicksIn>
						<pproTicksOut>22038428160000</pproTicksOut>
						<file id="file-271"/>
						<sourcetrack>
							<mediatype>audio</mediatype>
							<trackindex>1</trackindex>
						</sourcetrack>
						<link>
							<linkclipref>clipitem-1006</linkclipref>
							<mediatype>video</mediatype>
							<trackindex>1</trackindex>
							<clipindex>40</clipindex>
						</link>
						<link>
							<linkclipref>clipitem-1359</linkclipref>
							<mediatype>audio</mediatype>
							<trackindex>3</trackindex>
							<clipindex>7</clipindex>
						</link>
						<logginginfo>
							<description></description>
							<scene></scene>
							<shottake>AA3220</shottake>
							<lognote></lognote>
						</logginginfo>
						<labels>
							<label2>Iris</label2>
						</labels>
					</clipitem>
					<clipitem id="clipitem-1360" frameBlend="FALSE" premiereChannelType="mono">
						<masterclipid>masterclip-281</masterclipid>
						<name>AA3220</name>
						<enabled>TRUE</enabled>
						<duration>7764</duration>
						<rate>
							<timebase>25</timebase>
							<ntsc>FALSE</ntsc>
						</rate>
						<start>3297</start>
						<end>3341</end>
						<in>4000</in>
						<out>4044</out>
						<pproTicksIn>40642560000000</pproTicksIn>
						<pproTicksOut>41089628160000</pproTicksOut>
						<file id="file-271"/>
						<sourcetrack>
							<mediatype>audio</mediatype>
							<trackindex>1</trackindex>
						</sourcetrack>
						<link>
							<linkclipref>clipitem-1007</linkclipref>
							<mediatype>video</mediatype>
							<trackindex>1</trackindex>
							<clipindex>41</clipindex>
						</link>
						<link>
							<linkclipref>clipitem-1360</linkclipref>
							<mediatype>audio</mediatype>
							<trackindex>3</trackindex>
							<clipindex>8</clipindex>
						</link>
						<logginginfo>
							<description></description>
							<scene></scene>
							<shottake>AA3220</shottake>
							<lognote></lognote>
						</logginginfo>
						<labels>
							<label2>Iris</label2>
						</labels>
					</clipitem>
					<clipitem id="clipitem-1361" frameBlend="FALSE" premiereChannelType="mono">
						<masterclipid>masterclip-282</masterclipid>
						<name>AA3184</name>
						<enabled>TRUE</enabled>
						<duration>1440</duration>
						<rate>
							<timebase>25</timebase>
							<ntsc>FALSE</ntsc>
						</rate>
						<start>3341</start>
						<end>3370</end>
						<in>739</in>
						<out>768</out>
						<pproTicksIn>7508712960000</pproTicksIn>
						<pproTicksOut>7803371520000</pproTicksOut>
						<file id="file-272"/>
						<sourcetrack>
							<mediatype>audio</mediatype>
							<trackindex>1</trackindex>
						</sourcetrack>
						<link>
							<linkclipref>clipitem-1008</linkclipref>
							<mediatype>video</mediatype>
							<trackindex>1</trackindex>
							<clipindex>42</clipindex>
						</link>
						<link>
							<linkclipref>clipitem-1361</linkclipref>
							<mediatype>audio</mediatype>
							<trackindex>3</trackindex>
							<clipindex>9</clipindex>
						</link>
						<link>
							<linkclipref>clipitem-1389</linkclipref>
							<mediatype>audio</mediatype>
							<trackindex>4</trackindex>
							<clipindex>5</clipindex>
						</link>
						<logginginfo>
							<description></description>
							<scene></scene>
							<shottake>AA3184</shottake>
							<lognote></lognote>
						</logginginfo>
						<labels>
							<label2>Iris</label2>
						</labels>
					</clipitem>
					<clipitem id="clipitem-1362" frameBlend="FALSE" premiereChannelType="mono">
						<masterclipid>masterclip-283</masterclipid>
						<name>AA3185</name>
						<enabled>TRUE</enabled>
						<duration>3528</duration>
						<rate>
							<timebase>25</timebase>
							<ntsc>FALSE</ntsc>
						</rate>
						<start>3370</start>
						<end>3402</end>
						<in>1736</in>
						<out>1768</out>
						<pproTicksIn>17638871040000</pproTicksIn>
						<pproTicksOut>17964011520000</pproTicksOut>
						<file id="file-273"/>
						<sourcetrack>
							<mediatype>audio</mediatype>
							<trackindex>1</trackindex>
						</sourcetrack>
						<link>
							<linkclipref>clipitem-1009</linkclipref>
							<mediatype>video</mediatype>
							<trackindex>1</trackindex>
							<clipindex>43</clipindex>
						</link>
						<link>
							<linkclipref>clipitem-1362</linkclipref>
							<mediatype>audio</mediatype>
							<trackindex>3</trackindex>
							<clipindex>10</clipindex>
						</link>
						<link>
							<linkclipref>clipitem-1390</linkclipref>
							<mediatype>audio</mediatype>
							<trackindex>4</trackindex>
							<clipindex>6</clipindex>
						</link>
						<logginginfo>
							<description></description>
							<scene></scene>
							<shottake>AA3185</shottake>
							<lognote></lognote>
						</logginginfo>
						<labels>
							<label2>Iris</label2>
						</labels>
					</clipitem>
					<clipitem id="clipitem-1363" frameBlend="FALSE" premiereChannelType="mono">
						<masterclipid>masterclip-284</masterclipid>
						<name>AA3164</name>
						<enabled>TRUE</enabled>
						<duration>10272</duration>
						<rate>
							<timebase>25</timebase>
							<ntsc>FALSE</ntsc>
						</rate>
						<start>3402</start>
						<end>3427</end>
						<in>82</in>
						<out>107</out>
						<pproTicksIn>833172480000</pproTicksIn>
						<pproTicksOut>1087188480000</pproTicksOut>
						<file id="file-274"/>
						<sourcetrack>
							<mediatype>audio</mediatype>
							<trackindex>1</trackindex>
						</sourcetrack>
						<link>
							<linkclipref>clipitem-1010</linkclipref>
							<mediatype>video</mediatype>
							<trackindex>1</trackindex>
							<clipindex>44</clipindex>
						</link>
						<link>
							<linkclipref>clipitem-1363</linkclipref>
							<mediatype>audio</mediatype>
							<trackindex>3</trackindex>
							<clipindex>11</clipindex>
						</link>
						<link>
							<linkclipref>clipitem-1391</linkclipref>
							<mediatype>audio</mediatype>
							<trackindex>4</trackindex>
							<clipindex>7</clipindex>
						</link>
						<logginginfo>
							<description></description>
							<scene></scene>
							<shottake>AA3164</shottake>
							<lognote></lognote>
						</logginginfo>
						<labels>
							<label2>Iris</label2>
						</labels>
					</clipitem>
					<clipitem id="clipitem-1364" frameBlend="FALSE" premiereChannelType="mono">
						<masterclipid>masterclip-287</masterclipid>
						<name>AA3167</name>
						<enabled>TRUE</enabled>
						<duration>1068</duration>
						<rate>
							<timebase>25</timebase>
							<ntsc>FALSE</ntsc>
						</rate>
						<start>3668</start>
						<end>3698</end>
						<in>782</in>
						<out>812</out>
						<pproTicksIn>7945620480000</pproTicksIn>
						<pproTicksOut>8250439680000</pproTicksOut>
						<file id="file-277"/>
						<sourcetrack>
							<mediatype>audio</mediatype>
							<trackindex>1</trackindex>
						</sourcetrack>
							<filter>
								<effect>
									<name>Audio Levels</name>
									<effectid>audiolevels</effectid>
									<effectcategory>audiolevels</effectcategory>
									<effecttype>audiolevels</effecttype>
									<mediatype>audio</mediatype>
									<parameter authoringApp="PremierePro">
										<parameterid>level</parameterid>
										<name>Level</name>
										<valuemin>0</valuemin>
										<valuemax>3.98109</valuemax>
										<value>0.509287</value>
									</parameter>
								</effect>
							</filter>
						<link>
							<linkclipref>clipitem-1016</linkclipref>
							<mediatype>video</mediatype>
							<trackindex>1</trackindex>
							<clipindex>50</clipindex>
						</link>
						<link>
							<linkclipref>clipitem-1364</linkclipref>
							<mediatype>audio</mediatype>
							<trackindex>3</trackindex>
							<clipindex>12</clipindex>
						</link>
						<link>
							<linkclipref>clipitem-1392</linkclipref>
							<mediatype>audio</mediatype>
							<trackindex>4</trackindex>
							<clipindex>8</clipindex>
						</link>
						<logginginfo>
							<description></description>
							<scene></scene>
							<shottake>AA3167</shottake>
							<lognote></lognote>
						</logginginfo>
						<labels>
							<label2>Iris</label2>
						</labels>
					</clipitem>
					<clipitem id="clipitem-1365" frameBlend="FALSE" premiereChannelType="mono">
						<masterclipid>masterclip-283</masterclipid>
						<name>AA3185</name>
						<enabled>TRUE</enabled>
						<duration>3528</duration>
						<rate>
							<timebase>25</timebase>
							<ntsc>FALSE</ntsc>
						</rate>
						<start>4569</start>
						<end>4607</end>
						<in>2323</in>
						<out>2361</out>
						<pproTicksIn>23603166720000</pproTicksIn>
						<pproTicksOut>23989271040000</pproTicksOut>
						<file id="file-273"/>
						<sourcetrack>
							<mediatype>audio</mediatype>
							<trackindex>1</trackindex>
						</sourcetrack>
						<link>
							<linkclipref>clipitem-1032</linkclipref>
							<mediatype>video</mediatype>
							<trackindex>1</trackindex>
							<clipindex>66</clipindex>
						</link>
						<link>
							<linkclipref>clipitem-1365</linkclipref>
							<mediatype>audio</mediatype>
							<trackindex>3</trackindex>
							<clipindex>13</clipindex>
						</link>
						<logginginfo>
							<description></description>
							<scene></scene>
							<shottake>AA3185</shottake>
							<lognote></lognote>
						</logginginfo>
						<labels>
							<label2>Iris</label2>
						</labels>
					</clipitem>
					<clipitem id="clipitem-1366" frameBlend="FALSE" premiereChannelType="mono">
						<masterclipid>masterclip-282</masterclipid>
						<name>AA3184</name>
						<enabled>TRUE</enabled>
						<duration>1440</duration>
						<rate>
							<timebase>25</timebase>
							<ntsc>FALSE</ntsc>
						</rate>
						<start>4607</start>
						<end>4643</end>
						<in>561</in>
						<out>597</out>
						<pproTicksIn>5700119040000</pproTicksIn>
						<pproTicksOut>6065902080000</pproTicksOut>
						<file id="file-272"/>
						<sourcetrack>
							<mediatype>audio</mediatype>
							<trackindex>1</trackindex>
						</sourcetrack>
						<link>
							<linkclipref>clipitem-1033</linkclipref>
							<mediatype>video</mediatype>
							<trackindex>1</trackindex>
							<clipindex>67</clipindex>
						</link>
						<link>
							<linkclipref>clipitem-1366</linkclipref>
							<mediatype>audio</mediatype>
							<trackindex>3</trackindex>
							<clipindex>14</clipindex>
						</link>
						<logginginfo>
							<description></description>
							<scene></scene>
							<shottake>AA3184</shottake>
							<lognote></lognote>
						</logginginfo>
						<labels>
							<label2>Iris</label2>
						</labels>
					</clipitem>
					<clipitem id="clipitem-1367" frameBlend="FALSE" premiereChannelType="mono">
						<masterclipid>masterclip-283</masterclipid>
						<name>AA3185</name>
						<enabled>TRUE</enabled>
						<duration>3528</duration>
						<rate>
							<timebase>25</timebase>
							<ntsc>FALSE</ntsc>
						</rate>
						<start>4643</start>
						<end>4678</end>
						<in>673</in>
						<out>708</out>
						<pproTicksIn>6838110720000</pproTicksIn>
						<pproTicksOut>7193733120000</pproTicksOut>
						<file id="file-273"/>
						<sourcetrack>
							<mediatype>audio</mediatype>
							<trackindex>1</trackindex>
						</sourcetrack>
						<link>
							<linkclipref>clipitem-1034</linkclipref>
							<mediatype>video</mediatype>
							<trackindex>1</trackindex>
							<clipindex>68</clipindex>
						</link>
						<link>
							<linkclipref>clipitem-1367</linkclipref>
							<mediatype>audio</mediatype>
							<trackindex>3</trackindex>
							<clipindex>15</clipindex>
						</link>
						<logginginfo>
							<description></description>
							<scene></scene>
							<shottake>AA3185</shottake>
							<lognote></lognote>
						</logginginfo>
						<labels>
							<label2>Iris</label2>
						</labels>
					</clipitem>
					<clipitem id="clipitem-1368" frameBlend="FALSE" premiereChannelType="mono">
						<masterclipid>masterclip-283</masterclipid>
						<name>AA3185</name>
						<enabled>TRUE</enabled>
						<duration>3528</duration>
						<rate>
							<timebase>25</timebase>
							<ntsc>FALSE</ntsc>
						</rate>
						<start>4678</start>
						<end>4691</end>
						<in>980</in>
						<out>993</out>
						<pproTicksIn>9957427200000</pproTicksIn>
						<pproTicksOut>10089515520000</pproTicksOut>
						<file id="file-273"/>
						<sourcetrack>
							<mediatype>audio</mediatype>
							<trackindex>1</trackindex>
						</sourcetrack>
						<link>
							<linkclipref>clipitem-1035</linkclipref>
							<mediatype>video</mediatype>
							<trackindex>1</trackindex>
							<clipindex>69</clipindex>
						</link>
						<link>
							<linkclipref>clipitem-1368</linkclipref>
							<mediatype>audio</mediatype>
							<trackindex>3</trackindex>
							<clipindex>16</clipindex>
						</link>
						<logginginfo>
							<description></description>
							<scene></scene>
							<shottake>AA3185</shottake>
							<lognote></lognote>
						</logginginfo>
						<labels>
							<label2>Iris</label2>
						</labels>
					</clipitem>
					<clipitem id="clipitem-1369" frameBlend="FALSE" premiereChannelType="mono">
						<masterclipid>masterclip-300</masterclipid>
						<name>AA3183</name>
						<enabled>TRUE</enabled>
						<duration>252</duration>
						<rate>
							<timebase>25</timebase>
							<ntsc>FALSE</ntsc>
						</rate>
						<start>4691</start>
						<end>4720</end>
						<in>141</in>
						<out>170</out>
						<pproTicksIn>1432650240000</pproTicksIn>
						<pproTicksOut>1727308800000</pproTicksOut>
						<file id="file-290"/>
						<sourcetrack>
							<mediatype>audio</mediatype>
							<trackindex>1</trackindex>
						</sourcetrack>
						<link>
							<linkclipref>clipitem-1036</linkclipref>
							<mediatype>video</mediatype>
							<trackindex>1</trackindex>
							<clipindex>70</clipindex>
						</link>
						<link>
							<linkclipref>clipitem-1369</linkclipref>
							<mediatype>audio</mediatype>
							<trackindex>3</trackindex>
							<clipindex>17</clipindex>
						</link>
						<logginginfo>
							<description></description>
							<scene></scene>
							<shottake>AA3183</shottake>
							<lognote></lognote>
						</logginginfo>
						<labels>
							<label2>Iris</label2>
						</labels>
					</clipitem>
					<clipitem id="clipitem-1370" frameBlend="FALSE" premiereChannelType="mono">
						<masterclipid>masterclip-301</masterclipid>
						<name>AA3188</name>
						<enabled>TRUE</enabled>
						<duration>216</duration>
						<rate>
							<timebase>25</timebase>
							<ntsc>FALSE</ntsc>
						</rate>
						<start>4720</start>
						<end>4788</end>
						<in>102</in>
						<out>170</out>
						<pproTicksIn>1036385280000</pproTicksIn>
						<pproTicksOut>1727308800000</pproTicksOut>
						<file id="file-291"/>
						<sourcetrack>
							<mediatype>audio</mediatype>
							<trackindex>1</trackindex>
						</sourcetrack>
						<link>
							<linkclipref>clipitem-1037</linkclipref>
							<mediatype>video</mediatype>
							<trackindex>1</trackindex>
							<clipindex>71</clipindex>
						</link>
						<link>
							<linkclipref>clipitem-1370</linkclipref>
							<mediatype>audio</mediatype>
							<trackindex>3</trackindex>
							<clipindex>18</clipindex>
						</link>
						<logginginfo>
							<description></description>
							<scene></scene>
							<shottake>AA3188</shottake>
							<lognote></lognote>
						</logginginfo>
						<labels>
							<label2>Iris</label2>
						</labels>
					</clipitem>
					<clipitem id="clipitem-1371" frameBlend="FALSE" premiereChannelType="mono">
						<masterclipid>masterclip-305</masterclipid>
						<name>AA3194</name>
						<enabled>TRUE</enabled>
						<duration>59868</duration>
						<rate>
							<timebase>25</timebase>
							<ntsc>FALSE</ntsc>
						</rate>
						<start>4913</start>
						<end>4957</end>
						<in>8148</in>
						<out>8192</out>
						<pproTicksIn>82788894720000</pproTicksIn>
						<pproTicksOut>83235962880000</pproTicksOut>
						<file id="file-295"/>
						<sourcetrack>
							<mediatype>audio</mediatype>
							<trackindex>1</trackindex>
						</sourcetrack>
						<link>
							<linkclipref>clipitem-1041</linkclipref>
							<mediatype>video</mediatype>
							<trackindex>1</trackindex>
							<clipindex>75</clipindex>
						</link>
						<link>
							<linkclipref>clipitem-1371</linkclipref>
							<mediatype>audio</mediatype>
							<trackindex>3</trackindex>
							<clipindex>19</clipindex>
						</link>
						<link>
							<linkclipref>clipitem-1394</linkclipref>
							<mediatype>audio</mediatype>
							<trackindex>4</trackindex>
							<clipindex>10</clipindex>
						</link>
						<logginginfo>
							<description></description>
							<scene></scene>
							<shottake>AA3194</shottake>
							<lognote></lognote>
						</logginginfo>
						<labels>
							<label2>Iris</label2>
						</labels>
					</clipitem>
					<clipitem id="clipitem-1372" frameBlend="FALSE" premiereChannelType="mono">
						<masterclipid>masterclip-305</masterclipid>
						<name>AA3194</name>
						<enabled>TRUE</enabled>
						<duration>59868</duration>
						<rate>
							<timebase>25</timebase>
							<ntsc>FALSE</ntsc>
						</rate>
						<start>4957</start>
						<end>5061</end>
						<in>6450</in>
						<out>6554</out>
						<pproTicksIn>65536128000000</pproTicksIn>
						<pproTicksOut>66592834560000</pproTicksOut>
						<file id="file-295"/>
						<sourcetrack>
							<mediatype>audio</mediatype>
							<trackindex>1</trackindex>
						</sourcetrack>
						<logginginfo>
							<description></description>
							<scene></scene>
							<shottake>AA3194</shottake>
							<lognote></lognote>
						</logginginfo>
						<labels>
							<label2>Iris</label2>
						</labels>
					</clipitem>
					<clipitem id="clipitem-1373" frameBlend="FALSE" premiereChannelType="mono">
						<masterclipid>masterclip-321</masterclipid>
						<name>AA3109</name>
						<enabled>TRUE</enabled>
						<duration>5808</duration>
						<rate>
							<timebase>25</timebase>
							<ntsc>FALSE</ntsc>
						</rate>
						<start>7336</start>
						<end>7411</end>
						<in>5164</in>
						<out>5239</out>
						<pproTicksIn>52469544960000</pproTicksIn>
						<pproTicksOut>53231592960000</pproTicksOut>
						<file id="file-309"/>
						<sourcetrack>
							<mediatype>audio</mediatype>
							<trackindex>1</trackindex>
						</sourcetrack>
						<link>
							<linkclipref>clipitem-1082</linkclipref>
							<mediatype>video</mediatype>
							<trackindex>1</trackindex>
							<clipindex>100</clipindex>
						</link>
						<link>
							<linkclipref>clipitem-1373</linkclipref>
							<mediatype>audio</mediatype>
							<trackindex>3</trackindex>
							<clipindex>21</clipindex>
						</link>
						<link>
							<linkclipref>clipitem-1396</linkclipref>
							<mediatype>audio</mediatype>
							<trackindex>4</trackindex>
							<clipindex>12</clipindex>
						</link>
						<logginginfo>
							<description></description>
							<scene></scene>
							<shottake>AA3109</shottake>
							<lognote></lognote>
						</logginginfo>
						<labels>
							<label2>Iris</label2>
						</labels>
					</clipitem>
					<clipitem id="clipitem-1374" frameBlend="FALSE" premiereChannelType="mono">
						<masterclipid>masterclip-328</masterclipid>
						<name>AA3136</name>
						<enabled>TRUE</enabled>
						<duration>12924</duration>
						<rate>
							<timebase>25</timebase>
							<ntsc>FALSE</ntsc>
						</rate>
						<start>8584</start>
						<end>8649</end>
						<in>9123</in>
						<out>9188</out>
						<pproTicksIn>92695518720000</pproTicksIn>
						<pproTicksOut>93355960320000</pproTicksOut>
						<file id="file-316"/>
						<sourcetrack>
							<mediatype>audio</mediatype>
							<trackindex>1</trackindex>
						</sourcetrack>
						<link>
							<linkclipref>clipitem-1091</linkclipref>
							<mediatype>video</mediatype>
							<trackindex>1</trackindex>
							<clipindex>109</clipindex>
						</link>
						<link>
							<linkclipref>clipitem-1374</linkclipref>
							<mediatype>audio</mediatype>
							<trackindex>3</trackindex>
							<clipindex>22</clipindex>
						</link>
						<logginginfo>
							<description></description>
							<scene></scene>
							<shottake>AA3136</shottake>
							<lognote></lognote>
						</logginginfo>
						<labels>
							<label2>Iris</label2>
						</labels>
					</clipitem>
					<clipitem id="clipitem-1375" frameBlend="FALSE" premiereChannelType="mono">
						<masterclipid>masterclip-328</masterclipid>
						<name>AA3136</name>
						<enabled>TRUE</enabled>
						<duration>12924</duration>
						<rate>
							<timebase>25</timebase>
							<ntsc>FALSE</ntsc>
						</rate>
						<start>8649</start>
						<end>8700</end>
						<in>12408</in>
						<out>12459</out>
						<pproTicksIn>126073221120000</pproTicksIn>
						<pproTicksOut>126591413760000</pproTicksOut>
						<file id="file-316"/>
						<sourcetrack>
							<mediatype>audio</mediatype>
							<trackindex>1</trackindex>
						</sourcetrack>
						<link>
							<linkclipref>clipitem-1092</linkclipref>
							<mediatype>video</mediatype>
							<trackindex>1</trackindex>
							<clipindex>110</clipindex>
						</link>
						<link>
							<linkclipref>clipitem-1375</linkclipref>
							<mediatype>audio</mediatype>
							<trackindex>3</trackindex>
							<clipindex>23</clipindex>
						</link>
						<logginginfo>
							<description></description>
							<scene></scene>
							<shottake>AA3136</shottake>
							<lognote></lognote>
						</logginginfo>
						<labels>
							<label2>Iris</label2>
						</labels>
					</clipitem>
					<clipitem id="clipitem-1376" frameBlend="FALSE" premiereChannelType="mono">
						<masterclipid>masterclip-328</masterclipid>
						<name>AA3136</name>
						<enabled>TRUE</enabled>
						<duration>12924</duration>
						<rate>
							<timebase>25</timebase>
							<ntsc>FALSE</ntsc>
						</rate>
						<start>9026</start>
						<end>9105</end>
						<in>3034</in>
						<out>3113</out>
						<pproTicksIn>30827381760000</pproTicksIn>
						<pproTicksOut>31630072320000</pproTicksOut>
						<file id="file-316"/>
						<sourcetrack>
							<mediatype>audio</mediatype>
							<trackindex>1</trackindex>
						</sourcetrack>
						<link>
							<linkclipref>clipitem-1096</linkclipref>
							<mediatype>video</mediatype>
							<trackindex>1</trackindex>
							<clipindex>114</clipindex>
						</link>
						<link>
							<linkclipref>clipitem-1376</linkclipref>
							<mediatype>audio</mediatype>
							<trackindex>3</trackindex>
							<clipindex>24</clipindex>
						</link>
						<link>
							<linkclipref>clipitem-1398</linkclipref>
							<mediatype>audio</mediatype>
							<trackindex>4</trackindex>
							<clipindex>14</clipindex>
						</link>
						<logginginfo>
							<description></description>
							<scene></scene>
							<shottake>AA3136</shottake>
							<lognote></lognote>
						</logginginfo>
						<labels>
							<label2>Iris</label2>
						</labels>
					</clipitem>
					<clipitem id="clipitem-1377" frameBlend="FALSE" premiereChannelType="mono">
						<masterclipid>masterclip-331</masterclipid>
						<name>AA3109</name>
						<enabled>TRUE</enabled>
						<duration>408</duration>
						<rate>
							<timebase>25</timebase>
							<ntsc>FALSE</ntsc>
						</rate>
						<start>9362</start>
						<end>9413</end>
						<in>233</in>
						<out>284</out>
						<pproTicksIn>2367429120000</pproTicksIn>
						<pproTicksOut>2885621760000</pproTicksOut>
						<file id="file-319"/>
						<sourcetrack>
							<mediatype>audio</mediatype>
							<trackindex>1</trackindex>
						</sourcetrack>
						<link>
							<linkclipref>clipitem-1098</linkclipref>
							<mediatype>video</mediatype>
							<trackindex>1</trackindex>
							<clipindex>116</clipindex>
						</link>
						<link>
							<linkclipref>clipitem-1377</linkclipref>
							<mediatype>audio</mediatype>
							<trackindex>3</trackindex>
							<clipindex>25</clipindex>
						</link>
						<link>
							<linkclipref>clipitem-1399</linkclipref>
							<mediatype>audio</mediatype>
							<trackindex>4</trackindex>
							<clipindex>15</clipindex>
						</link>
						<logginginfo>
							<description></description>
							<scene></scene>
							<shottake>AA3109</shottake>
							<lognote></lognote>
						</logginginfo>
						<labels>
							<label2>Iris</label2>
						</labels>
					</clipitem>
					<clipitem id="clipitem-1378" frameBlend="FALSE" premiereChannelType="mono">
						<masterclipid>masterclip-336</masterclipid>
						<name>AA3155</name>
						<enabled>TRUE</enabled>
						<duration>5124</duration>
						<rate>
							<timebase>25</timebase>
							<ntsc>FALSE</ntsc>
						</rate>
						<start>10316</start>
						<end>10424</end>
						<in>954</in>
						<out>1062</out>
						<pproTicksIn>9693250560000</pproTicksIn>
						<pproTicksOut>10790599680000</pproTicksOut>
						<file id="file-323"/>
						<sourcetrack>
							<mediatype>audio</mediatype>
							<trackindex>1</trackindex>
						</sourcetrack>
							<filter>
								<effect>
									<name>Gain</name>
									<effectid>{61756678, 4761696e, 4b657947}</effectid>
									<effecttype>filter</effecttype>
									<mediatype>audio</mediatype>
									<parameter authoringApp="PremierePro">
										<parameterid>Gain(dB)</parameterid>
										<name>Gain(dB)</name>
										<valuemin>-96</valuemin>
										<valuemax>96</valuemax>
										<value>9.21317</value>
									</parameter>
								</effect>
							</filter>
							<filter>
								<effect>
									<name>Audio Levels</name>
									<effectid>audiolevels</effectid>
									<effectcategory>audiolevels</effectcategory>
									<effecttype>audiolevels</effecttype>
									<mediatype>audio</mediatype>
									<parameter authoringApp="PremierePro">
										<parameterid>level</parameterid>
										<name>Level</name>
										<valuemin>0</valuemin>
										<valuemax>3.98109</valuemax>
										<value>0.285037</value>
									</parameter>
								</effect>
							</filter>
						<logginginfo>
							<description></description>
							<scene></scene>
							<shottake>AA3155</shottake>
							<lognote></lognote>
						</logginginfo>
						<labels>
							<label2>Iris</label2>
						</labels>
					</clipitem>
					<clipitem id="clipitem-1379" frameBlend="FALSE" premiereChannelType="mono">
						<masterclipid>masterclip-337</masterclipid>
						<name>AA3156</name>
						<enabled>TRUE</enabled>
						<duration>19440</duration>
						<rate>
							<timebase>25</timebase>
							<ntsc>FALSE</ntsc>
						</rate>
						<start>10988</start>
						<end>11134</end>
						<in>8063</in>
						<out>8209</out>
						<pproTicksIn>81925240320000</pproTicksIn>
						<pproTicksOut>83408693760000</pproTicksOut>
						<file id="file-324"/>
						<sourcetrack>
							<mediatype>audio</mediatype>
							<trackindex>1</trackindex>
						</sourcetrack>
							<filter>
								<effect>
									<name>Audio Levels</name>
									<effectid>audiolevels</effectid>
									<effectcategory>audiolevels</effectcategory>
									<effecttype>audiolevels</effecttype>
									<mediatype>audio</mediatype>
									<parameter authoringApp="PremierePro">
										<parameterid>level</parameterid>
										<name>Level</name>
										<valuemin>0</valuemin>
										<valuemax>3.98109</valuemax>
										<value>0.23289</value>
									</parameter>
								</effect>
							</filter>
							<marker>
								<comment>det er mye foksu på miljøavtrykket og da er det bra at det kommer opp, vi må bare være enige om fakta</comment>
								<name></name>
								<in>6676</in>
								<out>-1</out>
							</marker>
							<marker>
								<comment>variert meny, men er det viktig at den er norsk?&#13;jeg syns jo det</comment>
								<name></name>
								<in>5081</in>
								<out>-1</out>
							</marker>
							<marker>
								<comment>erupeisk mix er meningsløst, da er det jo bra å skru på gasskjelen</comment>
								<name></name>
								<in>10447</in>
								<out>-1</out>
							</marker>
							<marker>
								<comment>vi må ta den diskusjonen og har gjort ganske mye</comment>
								<name></name>
								<in>7232</in>
								<out>-1</out>
							</marker>
							<marker>
								<comment>er det viktig å ha tomater selv?&#13;ikke energimessig</comment>
								<name></name>
								<in>4501</in>
								<out>-1</out>
							</marker>
							<marker>
								<comment>Dette er det noske konsumet, men nå siste jeg en. Ja da må vi ta opp en</comment>
								<name></name>
								<in>3232</in>
								<out>-1</out>
							</marker>
							<marker>
								<comment>en tredejdel norsk forsningsgrad</comment>
								<name></name>
								<in>3792</in>
								<out>-1</out>
							</marker>
							<marker>
								<comment>DA jeg snakket med deg første gang, sa du at du hadde ventet på at noen som meg skulle ringe?&#13;</comment>
								<name></name>
								<in>6484</in>
								<out>-1</out>
							</marker>
						<link>
							<linkclipref>clipitem-1121</linkclipref>
							<mediatype>video</mediatype>
							<trackindex>1</trackindex>
							<clipindex>133</clipindex>
						</link>
						<link>
							<linkclipref>clipitem-1379</linkclipref>
							<mediatype>audio</mediatype>
							<trackindex>3</trackindex>
							<clipindex>27</clipindex>
						</link>
						<link>
							<linkclipref>clipitem-1400</linkclipref>
							<mediatype>audio</mediatype>
							<trackindex>4</trackindex>
							<clipindex>16</clipindex>
						</link>
						<logginginfo>
							<description></description>
							<scene></scene>
							<shottake>AA3156</shottake>
							<lognote></lognote>
						</logginginfo>
						<labels>
							<label2>Iris</label2>
						</labels>
					</clipitem>
					<clipitem id="clipitem-1380" frameBlend="FALSE" premiereChannelType="mono">
						<masterclipid>masterclip-337</masterclipid>
						<name>AA3156</name>
						<enabled>TRUE</enabled>
						<duration>19440</duration>
						<rate>
							<timebase>25</timebase>
							<ntsc>FALSE</ntsc>
						</rate>
						<start>11134</start>
						<end>11232</end>
						<in>17214</in>
						<out>17312</out>
						<pproTicksIn>174905256960000</pproTicksIn>
						<pproTicksOut>175900999680000</pproTicksOut>
						<file id="file-324"/>
						<sourcetrack>
							<mediatype>audio</mediatype>
							<trackindex>1</trackindex>
						</sourcetrack>
							<filter>
								<effect>
									<name>Audio Levels</name>
									<effectid>audiolevels</effectid>
									<effectcategory>audiolevels</effectcategory>
									<effecttype>audiolevels</effecttype>
									<mediatype>audio</mediatype>
									<parameter authoringApp="PremierePro">
										<parameterid>level</parameterid>
										<name>Level</name>
										<valuemin>0</valuemin>
										<valuemax>3.98109</valuemax>
										<value>0.207081</value>
									</parameter>
								</effect>
							</filter>
							<marker>
								<comment>det er mye foksu på miljøavtrykket og da er det bra at det kommer opp, vi må bare være enige om fakta</comment>
								<name></name>
								<in>6676</in>
								<out>-1</out>
							</marker>
							<marker>
								<comment>variert meny, men er det viktig at den er norsk?&#13;jeg syns jo det</comment>
								<name></name>
								<in>5081</in>
								<out>-1</out>
							</marker>
							<marker>
								<comment>erupeisk mix er meningsløst, da er det jo bra å skru på gasskjelen</comment>
								<name></name>
								<in>10447</in>
								<out>-1</out>
							</marker>
							<marker>
								<comment>vi må ta den diskusjonen og har gjort ganske mye</comment>
								<name></name>
								<in>7232</in>
								<out>-1</out>
							</marker>
							<marker>
								<comment>er det viktig å ha tomater selv?&#13;ikke energimessig</comment>
								<name></name>
								<in>4501</in>
								<out>-1</out>
							</marker>
							<marker>
								<comment>Dette er det noske konsumet, men nå siste jeg en. Ja da må vi ta opp en</comment>
								<name></name>
								<in>3232</in>
								<out>-1</out>
							</marker>
							<marker>
								<comment>en tredejdel norsk forsningsgrad</comment>
								<name></name>
								<in>3792</in>
								<out>-1</out>
							</marker>
							<marker>
								<comment>DA jeg snakket med deg første gang, sa du at du hadde ventet på at noen som meg skulle ringe?&#13;</comment>
								<name></name>
								<in>6484</in>
								<out>-1</out>
							</marker>
						<link>
							<linkclipref>clipitem-1122</linkclipref>
							<mediatype>video</mediatype>
							<trackindex>1</trackindex>
							<clipindex>134</clipindex>
						</link>
						<link>
							<linkclipref>clipitem-1380</linkclipref>
							<mediatype>audio</mediatype>
							<trackindex>3</trackindex>
							<clipindex>28</clipindex>
						</link>
						<link>
							<linkclipref>clipitem-1401</linkclipref>
							<mediatype>audio</mediatype>
							<trackindex>4</trackindex>
							<clipindex>17</clipindex>
						</link>
						<logginginfo>
							<description></description>
							<scene></scene>
							<shottake>AA3156</shottake>
							<lognote></lognote>
						</logginginfo>
						<labels>
							<label2>Iris</label2>
						</labels>
					</clipitem>
					<clipitem id="clipitem-1381" frameBlend="FALSE" premiereChannelType="mono">
						<masterclipid>masterclip-307</masterclipid>
						<name>N42A0927.MOVMulticam</name>
						<enabled>TRUE</enabled>
						<duration>28012</duration>
						<rate>
							<timebase>25</timebase>
							<ntsc>FALSE</ntsc>
						</rate>
						<start>13175</start>
						<end>13299</end>
						<in>15615</in>
						<out>15739</out>
						<pproTicksIn>158658393600000</pproTicksIn>
						<pproTicksOut>159918312960000</pproTicksOut>
						<sequence id="sequence-72"/>
						<labels>
							<label2>Forest</label2>
						</labels>
					</clipitem>
					<clipitem id="clipitem-1382" frameBlend="FALSE" premiereChannelType="mono">
						<masterclipid>masterclip-307</masterclipid>
						<name>N42A0927.MOVMulticam</name>
						<enabled>TRUE</enabled>
						<duration>28012</duration>
						<rate>
							<timebase>25</timebase>
							<ntsc>FALSE</ntsc>
						</rate>
						<start>13299</start>
						<end>13476</end>
						<in>15855</in>
						<out>16032</out>
						<pproTicksIn>161096947200000</pproTicksIn>
						<pproTicksOut>162895380480000</pproTicksOut>
						<sequence id="sequence-72"/>
						<labels>
							<label2>Forest</label2>
						</labels>
					</clipitem>
					<clipitem id="clipitem-1383" frameBlend="FALSE" premiereChannelType="mono">
						<masterclipid>masterclip-367</masterclipid>
						<name>AA3199</name>
						<enabled>TRUE</enabled>
						<duration>348</duration>
						<rate>
							<timebase>25</timebase>
							<ntsc>FALSE</ntsc>
						</rate>
						<start>13476</start>
						<end>13577</end>
						<in>36</in>
						<out>137</out>
						<pproTicksIn>365783040000</pproTicksIn>
						<pproTicksOut>1392007680000</pproTicksOut>
						<pixelaspectratio>square</pixelaspectratio>
						<anamorphic>FALSE</anamorphic>
						<file id="file-352">
							<name>AA3199</name>
							<pathurl>file://localhost/Volumes/Brakka/AdobeLager/Katta/Katta-16xxxx-Klimabloffen-Chris/02-Video/Tomat/restaurant/C300%20restaurant/CONTENTS/CLIPS001/AA3199/AA319901.MXF</pathurl>
							<rate>
								<timebase>25</timebase>
								<ntsc>FALSE</ntsc>
							</rate>
							<duration>348</duration>
							<timecode>
								<rate>
									<timebase>25</timebase>
									<ntsc>FALSE</ntsc>
								</rate>
								<string>22:52:59:08</string>
								<frame>2059483</frame>
								<displayformat>NDF</displayformat>
								<reel>
									<name></name>
								</reel>
							</timecode>
							<media>
								<video>
									<samplecharacteristics>
										<rate>
											<timebase>25</timebase>
											<ntsc>FALSE</ntsc>
										</rate>
										<width>1920</width>
										<height>1080</height>
										<anamorphic>FALSE</anamorphic>
										<pixelaspectratio>square</pixelaspectratio>
										<fielddominance>none</fielddominance>
									</samplecharacteristics>
								</video>
								<audio>
									<samplecharacteristics>
										<depth>16</depth>
										<samplerate>48000</samplerate>
									</samplecharacteristics>
									<channelcount>1</channelcount>
									<layout>stereo</layout>
									<audiochannel>
										<sourcechannel>1</sourcechannel>
										<channellabel>left</channellabel>
									</audiochannel>
								</audio>
								<audio>
									<samplecharacteristics>
										<depth>16</depth>
										<samplerate>48000</samplerate>
									</samplecharacteristics>
									<channelcount>1</channelcount>
									<layout>stereo</layout>
									<audiochannel>
										<sourcechannel>2</sourcechannel>
										<channellabel>right</channellabel>
									</audiochannel>
								</audio>
							</media>
						</file>
						<sourcetrack>
							<mediatype>audio</mediatype>
							<trackindex>1</trackindex>
						</sourcetrack>
						<link>
							<linkclipref>clipitem-1383</linkclipref>
							<mediatype>audio</mediatype>
							<trackindex>3</trackindex>
							<clipindex>31</clipindex>
						</link>
						<link>
							<linkclipref>clipitem-1404</linkclipref>
							<mediatype>audio</mediatype>
							<trackindex>4</trackindex>
							<clipindex>20</clipindex>
						</link>
						<logginginfo>
							<description></description>
							<scene></scene>
							<shottake>AA3199</shottake>
							<lognote></lognote>
						</logginginfo>
						<labels>
							<label2>Iris</label2>
						</labels>
					</clipitem>
					<clipitem id="clipitem-1384" frameBlend="FALSE" premiereChannelType="mono">
						<masterclipid>masterclip-345</masterclipid>
						<name>N42A0925.MOVMulticam</name>
						<enabled>TRUE</enabled>
						<duration>8736</duration>
						<rate>
							<timebase>25</timebase>
							<ntsc>FALSE</ntsc>
						</rate>
						<start>13577</start>
						<end>13632</end>
						<in>3498</in>
						<out>3553</out>
						<pproTicksIn>35541918720000</pproTicksIn>
						<pproTicksOut>36100753920000</pproTicksOut>
						<sequence id="sequence-75"/>
						<link>
							<linkclipref>clipitem-1142</linkclipref>
							<mediatype>video</mediatype>
							<trackindex>1</trackindex>
							<clipindex>148</clipindex>
						</link>
						<link>
							<linkclipref>clipitem-1384</linkclipref>
							<mediatype>audio</mediatype>
							<trackindex>3</trackindex>
							<clipindex>32</clipindex>
						</link>
						<link>
							<linkclipref>clipitem-1405</linkclipref>
							<mediatype>audio</mediatype>
							<trackindex>4</trackindex>
							<clipindex>21</clipindex>
						</link>
						<labels>
							<label2>Forest</label2>
						</labels>
					</clipitem>
					<enabled>TRUE</enabled>
					<locked>FALSE</locked>
					<outputchannelindex>1</outputchannelindex>
				</track>
				<track monotrack="TRUE" TL.SQTrackAudioKeyframeStyle="0" TL.SQTrackShy="0" TL.SQTrackExpandedHeight="58" TL.SQTrackExpanded="1" MZ.TrackTargeted="1" MZ.TrackName="sync 4 mono" PannerCurrentValue="0.5" PannerIsInverted="true" PannerStartKeyframe="-91445760000000000,0.5,0,0,0,0,0,0" PannerName="Pan" currentExplodedTrackIndex="0" totalExplodedTrackCount="1" premiereTrackType="Mono">
					<clipitem id="clipitem-1385" frameBlend="FALSE" premiereChannelType="mono">
						<masterclipid>masterclip-262</masterclipid>
						<name>AA0114</name>
						<enabled>TRUE</enabled>
						<duration>2352</duration>
						<rate>
							<timebase>25</timebase>
							<ntsc>FALSE</ntsc>
						</rate>
						<start>557</start>
						<end>643</end>
						<in>410</in>
						<out>496</out>
						<pproTicksIn>4165862400000</pproTicksIn>
						<pproTicksOut>5039677440000</pproTicksOut>
						<file id="file-252"/>
						<sourcetrack>
							<mediatype>audio</mediatype>
							<trackindex>2</trackindex>
						</sourcetrack>
						<link>
							<linkclipref>clipitem-973</linkclipref>
							<mediatype>video</mediatype>
							<trackindex>1</trackindex>
							<clipindex>7</clipindex>
						</link>
						<link>
							<linkclipref>clipitem-1353</linkclipref>
							<mediatype>audio</mediatype>
							<trackindex>3</trackindex>
							<clipindex>1</clipindex>
						</link>
						<link>
							<linkclipref>clipitem-1385</linkclipref>
							<mediatype>audio</mediatype>
							<trackindex>4</trackindex>
							<clipindex>1</clipindex>
						</link>
						<logginginfo>
							<description></description>
							<scene></scene>
							<shottake>AA0114</shottake>
							<lognote></lognote>
						</logginginfo>
						<labels>
							<label2>Iris</label2>
						</labels>
					</clipitem>
					<clipitem id="clipitem-1386" frameBlend="FALSE" premiereChannelType="mono">
						<masterclipid>masterclip-262</masterclipid>
						<name>AA0114</name>
						<enabled>TRUE</enabled>
						<duration>2352</duration>
						<rate>
							<timebase>25</timebase>
							<ntsc>FALSE</ntsc>
						</rate>
						<start>643</start>
						<end>720</end>
						<in>1212</in>
						<out>1289</out>
						<pproTicksIn>12314695680000</pproTicksIn>
						<pproTicksOut>13097064960000</pproTicksOut>
						<file id="file-252"/>
						<sourcetrack>
							<mediatype>audio</mediatype>
							<trackindex>2</trackindex>
						</sourcetrack>
						<link>
							<linkclipref>clipitem-974</linkclipref>
							<mediatype>video</mediatype>
							<trackindex>1</trackindex>
							<clipindex>8</clipindex>
						</link>
						<link>
							<linkclipref>clipitem-1354</linkclipref>
							<mediatype>audio</mediatype>
							<trackindex>3</trackindex>
							<clipindex>2</clipindex>
						</link>
						<link>
							<linkclipref>clipitem-1386</linkclipref>
							<mediatype>audio</mediatype>
							<trackindex>4</trackindex>
							<clipindex>2</clipindex>
						</link>
						<logginginfo>
							<description></description>
							<scene></scene>
							<shottake>AA0114</shottake>
							<lognote></lognote>
						</logginginfo>
						<labels>
							<label2>Iris</label2>
						</labels>
					</clipitem>
					<clipitem id="clipitem-1387" frameBlend="FALSE" premiereChannelType="mono">
						<masterclipid>masterclip-269</masterclipid>
						<name>SC-DKMR99091615AA_p0.mxf</name>
						<enabled>TRUE</enabled>
						<duration>3492</duration>
						<rate>
							<timebase>25</timebase>
							<ntsc>FALSE</ntsc>
						</rate>
						<start>1371</start>
						<end>1514</end>
						<in>2470</in>
						<out>2613</out>
						<pproTicksIn>25096780800000</pproTicksIn>
						<pproTicksOut>26549752320000</pproTicksOut>
						<file id="file-259"/>
						<sourcetrack>
							<mediatype>audio</mediatype>
							<trackindex>4</trackindex>
						</sourcetrack>
							<filter>
								<effect>
									<name>Audio Levels</name>
									<effectid>audiolevels</effectid>
									<effectcategory>audiolevels</effectcategory>
									<effecttype>audiolevels</effecttype>
									<mediatype>audio</mediatype>
									<parameter authoringApp="PremierePro">
										<parameterid>level</parameterid>
										<name>Level</name>
										<valuemin>0</valuemin>
										<valuemax>3.98109</valuemax>
										<value>0.889139</value>
									</parameter>
								</effect>
							</filter>
						<link>
							<linkclipref>clipitem-990</linkclipref>
							<mediatype>video</mediatype>
							<trackindex>1</trackindex>
							<clipindex>24</clipindex>
						</link>
						<link>
							<linkclipref>clipitem-1355</linkclipref>
							<mediatype>audio</mediatype>
							<trackindex>3</trackindex>
							<clipindex>3</clipindex>
						</link>
						<link>
							<linkclipref>clipitem-1387</linkclipref>
							<mediatype>audio</mediatype>
							<trackindex>4</trackindex>
							<clipindex>3</clipindex>
						</link>
						<logginginfo>
							<description></description>
							<scene></scene>
							<shottake></shottake>
							<lognote></lognote>
						</logginginfo>
						<labels>
							<label2>Iris</label2>
						</labels>
					</clipitem>
					<clipitem id="clipitem-1388" frameBlend="FALSE" premiereChannelType="mono">
						<masterclipid>masterclip-271</masterclipid>
						<name>AA0135</name>
						<enabled>TRUE</enabled>
						<duration>1836</duration>
						<rate>
							<timebase>25</timebase>
							<ntsc>FALSE</ntsc>
						</rate>
						<start>1514</start>
						<end>1605</end>
						<in>1492</in>
						<out>1583</out>
						<pproTicksIn>15159674880000</pproTicksIn>
						<pproTicksOut>16084293120000</pproTicksOut>
						<file id="file-261"/>
						<sourcetrack>
							<mediatype>audio</mediatype>
							<trackindex>2</trackindex>
						</sourcetrack>
							<filter>
								<effect>
									<name>Audio Levels</name>
									<effectid>audiolevels</effectid>
									<effectcategory>audiolevels</effectcategory>
									<effecttype>audiolevels</effecttype>
									<mediatype>audio</mediatype>
									<parameter authoringApp="PremierePro">
										<parameterid>level</parameterid>
										<name>Level</name>
										<valuemin>0</valuemin>
										<valuemax>3.98109</valuemax>
										<value>0.889139</value>
									</parameter>
								</effect>
							</filter>
						<link>
							<linkclipref>clipitem-991</linkclipref>
							<mediatype>video</mediatype>
							<trackindex>1</trackindex>
							<clipindex>25</clipindex>
						</link>
						<link>
							<linkclipref>clipitem-1356</linkclipref>
							<mediatype>audio</mediatype>
							<trackindex>3</trackindex>
							<clipindex>4</clipindex>
						</link>
						<link>
							<linkclipref>clipitem-1388</linkclipref>
							<mediatype>audio</mediatype>
							<trackindex>4</trackindex>
							<clipindex>4</clipindex>
						</link>
						<logginginfo>
							<description></description>
							<scene></scene>
							<shottake>AA0135</shottake>
							<lognote></lognote>
						</logginginfo>
						<labels>
							<label2>Iris</label2>
						</labels>
					</clipitem>
					<clipitem id="clipitem-1389" frameBlend="FALSE" premiereChannelType="mono">
						<masterclipid>masterclip-282</masterclipid>
						<name>AA3184</name>
						<enabled>TRUE</enabled>
						<duration>1440</duration>
						<rate>
							<timebase>25</timebase>
							<ntsc>FALSE</ntsc>
						</rate>
						<start>3341</start>
						<end>3370</end>
						<in>739</in>
						<out>768</out>
						<pproTicksIn>7508712960000</pproTicksIn>
						<pproTicksOut>7803371520000</pproTicksOut>
						<file id="file-272"/>
						<sourcetrack>
							<mediatype>audio</mediatype>
							<trackindex>2</trackindex>
						</sourcetrack>
						<link>
							<linkclipref>clipitem-1008</linkclipref>
							<mediatype>video</mediatype>
							<trackindex>1</trackindex>
							<clipindex>42</clipindex>
						</link>
						<link>
							<linkclipref>clipitem-1361</linkclipref>
							<mediatype>audio</mediatype>
							<trackindex>3</trackindex>
							<clipindex>9</clipindex>
						</link>
						<link>
							<linkclipref>clipitem-1389</linkclipref>
							<mediatype>audio</mediatype>
							<trackindex>4</trackindex>
							<clipindex>5</clipindex>
						</link>
						<logginginfo>
							<description></description>
							<scene></scene>
							<shottake>AA3184</shottake>
							<lognote></lognote>
						</logginginfo>
						<labels>
							<label2>Iris</label2>
						</labels>
					</clipitem>
					<clipitem id="clipitem-1390" frameBlend="FALSE" premiereChannelType="mono">
						<masterclipid>masterclip-283</masterclipid>
						<name>AA3185</name>
						<enabled>TRUE</enabled>
						<duration>3528</duration>
						<rate>
							<timebase>25</timebase>
							<ntsc>FALSE</ntsc>
						</rate>
						<start>3370</start>
						<end>3402</end>
						<in>1736</in>
						<out>1768</out>
						<pproTicksIn>17638871040000</pproTicksIn>
						<pproTicksOut>17964011520000</pproTicksOut>
						<file id="file-273"/>
						<sourcetrack>
							<mediatype>audio</mediatype>
							<trackindex>2</trackindex>
						</sourcetrack>
						<link>
							<linkclipref>clipitem-1009</linkclipref>
							<mediatype>video</mediatype>
							<trackindex>1</trackindex>
							<clipindex>43</clipindex>
						</link>
						<link>
							<linkclipref>clipitem-1362</linkclipref>
							<mediatype>audio</mediatype>
							<trackindex>3</trackindex>
							<clipindex>10</clipindex>
						</link>
						<link>
							<linkclipref>clipitem-1390</linkclipref>
							<mediatype>audio</mediatype>
							<trackindex>4</trackindex>
							<clipindex>6</clipindex>
						</link>
						<logginginfo>
							<description></description>
							<scene></scene>
							<shottake>AA3185</shottake>
							<lognote></lognote>
						</logginginfo>
						<labels>
							<label2>Iris</label2>
						</labels>
					</clipitem>
					<clipitem id="clipitem-1391" frameBlend="FALSE" premiereChannelType="mono">
						<masterclipid>masterclip-284</masterclipid>
						<name>AA3164</name>
						<enabled>TRUE</enabled>
						<duration>10272</duration>
						<rate>
							<timebase>25</timebase>
							<ntsc>FALSE</ntsc>
						</rate>
						<start>3402</start>
						<end>3427</end>
						<in>82</in>
						<out>107</out>
						<pproTicksIn>833172480000</pproTicksIn>
						<pproTicksOut>1087188480000</pproTicksOut>
						<file id="file-274"/>
						<sourcetrack>
							<mediatype>audio</mediatype>
							<trackindex>2</trackindex>
						</sourcetrack>
						<link>
							<linkclipref>clipitem-1010</linkclipref>
							<mediatype>video</mediatype>
							<trackindex>1</trackindex>
							<clipindex>44</clipindex>
						</link>
						<link>
							<linkclipref>clipitem-1363</linkclipref>
							<mediatype>audio</mediatype>
							<trackindex>3</trackindex>
							<clipindex>11</clipindex>
						</link>
						<link>
							<linkclipref>clipitem-1391</linkclipref>
							<mediatype>audio</mediatype>
							<trackindex>4</trackindex>
							<clipindex>7</clipindex>
						</link>
						<logginginfo>
							<description></description>
							<scene></scene>
							<shottake>AA3164</shottake>
							<lognote></lognote>
						</logginginfo>
						<labels>
							<label2>Iris</label2>
						</labels>
					</clipitem>
					<clipitem id="clipitem-1392" frameBlend="FALSE" premiereChannelType="mono">
						<masterclipid>masterclip-287</masterclipid>
						<name>AA3167</name>
						<enabled>TRUE</enabled>
						<duration>1068</duration>
						<rate>
							<timebase>25</timebase>
							<ntsc>FALSE</ntsc>
						</rate>
						<start>3668</start>
						<end>3698</end>
						<in>782</in>
						<out>812</out>
						<pproTicksIn>7945620480000</pproTicksIn>
						<pproTicksOut>8250439680000</pproTicksOut>
						<file id="file-277"/>
						<sourcetrack>
							<mediatype>audio</mediatype>
							<trackindex>2</trackindex>
						</sourcetrack>
							<filter>
								<effect>
									<name>Audio Levels</name>
									<effectid>audiolevels</effectid>
									<effectcategory>audiolevels</effectcategory>
									<effecttype>audiolevels</effecttype>
									<mediatype>audio</mediatype>
									<parameter authoringApp="PremierePro">
										<parameterid>level</parameterid>
										<name>Level</name>
										<valuemin>0</valuemin>
										<valuemax>3.98109</valuemax>
										<value>0.396401</value>
									</parameter>
								</effect>
							</filter>
						<link>
							<linkclipref>clipitem-1016</linkclipref>
							<mediatype>video</mediatype>
							<trackindex>1</trackindex>
							<clipindex>50</clipindex>
						</link>
						<link>
							<linkclipref>clipitem-1364</linkclipref>
							<mediatype>audio</mediatype>
							<trackindex>3</trackindex>
							<clipindex>12</clipindex>
						</link>
						<link>
							<linkclipref>clipitem-1392</linkclipref>
							<mediatype>audio</mediatype>
							<trackindex>4</trackindex>
							<clipindex>8</clipindex>
						</link>
						<logginginfo>
							<description></description>
							<scene></scene>
							<shottake>AA3167</shottake>
							<lognote></lognote>
						</logginginfo>
						<labels>
							<label2>Iris</label2>
						</labels>
					</clipitem>
					<clipitem id="clipitem-1393" frameBlend="FALSE" premiereChannelType="mono">
						<masterclipid>masterclip-304</masterclipid>
						<name>AA3193</name>
						<enabled>TRUE</enabled>
						<duration>1536</duration>
						<rate>
							<timebase>25</timebase>
							<ntsc>FALSE</ntsc>
						</rate>
						<start>4870</start>
						<end>4913</end>
						<in>149</in>
						<out>192</out>
						<pproTicksIn>1513935360000</pproTicksIn>
						<pproTicksOut>1950842880000</pproTicksOut>
						<file id="file-294"/>
						<sourcetrack>
							<mediatype>audio</mediatype>
							<trackindex>2</trackindex>
						</sourcetrack>
						<link>
							<linkclipref>clipitem-1040</linkclipref>
							<mediatype>video</mediatype>
							<trackindex>1</trackindex>
							<clipindex>74</clipindex>
						</link>
						<link>
							<linkclipref>clipitem-1393</linkclipref>
							<mediatype>audio</mediatype>
							<trackindex>4</trackindex>
							<clipindex>9</clipindex>
						</link>
						<logginginfo>
							<description></description>
							<scene></scene>
							<shottake>AA3193</shottake>
							<lognote></lognote>
						</logginginfo>
						<labels>
							<label2>Iris</label2>
						</labels>
					</clipitem>
					<clipitem id="clipitem-1394" frameBlend="FALSE" premiereChannelType="mono">
						<masterclipid>masterclip-305</masterclipid>
						<name>AA3194</name>
						<enabled>TRUE</enabled>
						<duration>59868</duration>
						<rate>
							<timebase>25</timebase>
							<ntsc>FALSE</ntsc>
						</rate>
						<start>4913</start>
						<end>4957</end>
						<in>8148</in>
						<out>8192</out>
						<pproTicksIn>82788894720000</pproTicksIn>
						<pproTicksOut>83235962880000</pproTicksOut>
						<file id="file-295"/>
						<sourcetrack>
							<mediatype>audio</mediatype>
							<trackindex>2</trackindex>
						</sourcetrack>
						<link>
							<linkclipref>clipitem-1041</linkclipref>
							<mediatype>video</mediatype>
							<trackindex>1</trackindex>
							<clipindex>75</clipindex>
						</link>
						<link>
							<linkclipref>clipitem-1371</linkclipref>
							<mediatype>audio</mediatype>
							<trackindex>3</trackindex>
							<clipindex>19</clipindex>
						</link>
						<link>
							<linkclipref>clipitem-1394</linkclipref>
							<mediatype>audio</mediatype>
							<trackindex>4</trackindex>
							<clipindex>10</clipindex>
						</link>
						<logginginfo>
							<description></description>
							<scene></scene>
							<shottake>AA3194</shottake>
							<lognote></lognote>
						</logginginfo>
						<labels>
							<label2>Iris</label2>
						</labels>
					</clipitem>
					<clipitem id="clipitem-1395" frameBlend="FALSE" premiereChannelType="mono">
						<masterclipid>masterclip-305</masterclipid>
						<name>AA3194</name>
						<enabled>TRUE</enabled>
						<duration>59868</duration>
						<rate>
							<timebase>25</timebase>
							<ntsc>FALSE</ntsc>
						</rate>
						<start>4957</start>
						<end>5061</end>
						<in>6450</in>
						<out>6554</out>
						<pproTicksIn>65536128000000</pproTicksIn>
						<pproTicksOut>66592834560000</pproTicksOut>
						<file id="file-295"/>
						<sourcetrack>
							<mediatype>audio</mediatype>
							<trackindex>2</trackindex>
						</sourcetrack>
						<logginginfo>
							<description></description>
							<scene></scene>
							<shottake>AA3194</shottake>
							<lognote></lognote>
						</logginginfo>
						<labels>
							<label2>Iris</label2>
						</labels>
					</clipitem>
					<clipitem id="clipitem-1396" frameBlend="FALSE" premiereChannelType="mono">
						<masterclipid>masterclip-321</masterclipid>
						<name>AA3109</name>
						<enabled>TRUE</enabled>
						<duration>5808</duration>
						<rate>
							<timebase>25</timebase>
							<ntsc>FALSE</ntsc>
						</rate>
						<start>7336</start>
						<end>7411</end>
						<in>5164</in>
						<out>5239</out>
						<pproTicksIn>52469544960000</pproTicksIn>
						<pproTicksOut>53231592960000</pproTicksOut>
						<file id="file-309"/>
						<sourcetrack>
							<mediatype>audio</mediatype>
							<trackindex>2</trackindex>
						</sourcetrack>
						<link>
							<linkclipref>clipitem-1082</linkclipref>
							<mediatype>video</mediatype>
							<trackindex>1</trackindex>
							<clipindex>100</clipindex>
						</link>
						<link>
							<linkclipref>clipitem-1373</linkclipref>
							<mediatype>audio</mediatype>
							<trackindex>3</trackindex>
							<clipindex>21</clipindex>
						</link>
						<link>
							<linkclipref>clipitem-1396</linkclipref>
							<mediatype>audio</mediatype>
							<trackindex>4</trackindex>
							<clipindex>12</clipindex>
						</link>
						<logginginfo>
							<description></description>
							<scene></scene>
							<shottake>AA3109</shottake>
							<lognote></lognote>
						</logginginfo>
						<labels>
							<label2>Iris</label2>
						</labels>
					</clipitem>
					<clipitem id="clipitem-1397" frameBlend="FALSE" premiereChannelType="mono">
						<masterclipid>masterclip-323</masterclipid>
						<name>AA3114</name>
						<enabled>TRUE</enabled>
						<duration>1752</duration>
						<rate>
							<timebase>25</timebase>
							<ntsc>FALSE</ntsc>
						</rate>
						<start>7746</start>
						<end>7865</end>
						<in>1447</in>
						<out>1566</out>
						<pproTicksIn>14702446080000</pproTicksIn>
						<pproTicksOut>15911562240000</pproTicksOut>
						<file id="file-311"/>
						<sourcetrack>
							<mediatype>audio</mediatype>
							<trackindex>2</trackindex>
						</sourcetrack>
							<filter>
								<effect>
									<name>Audio Levels</name>
									<effectid>audiolevels</effectid>
									<effectcategory>audiolevels</effectcategory>
									<effecttype>audiolevels</effecttype>
									<mediatype>audio</mediatype>
									<parameter authoringApp="PremierePro">
										<parameterid>level</parameterid>
										<name>Level</name>
										<valuemin>0</valuemin>
										<valuemax>3.98109</valuemax>
										<value>0.388204</value>
									</parameter>
								</effect>
							</filter>
						<link>
							<linkclipref>clipitem-1084</linkclipref>
							<mediatype>video</mediatype>
							<trackindex>1</trackindex>
							<clipindex>102</clipindex>
						</link>
						<link>
							<linkclipref>clipitem-1397</linkclipref>
							<mediatype>audio</mediatype>
							<trackindex>4</trackindex>
							<clipindex>13</clipindex>
						</link>
						<logginginfo>
							<description></description>
							<scene></scene>
							<shottake>AA3114</shottake>
							<lognote></lognote>
						</logginginfo>
						<labels>
							<label2>Iris</label2>
						</labels>
					</clipitem>
					<clipitem id="clipitem-1398" frameBlend="FALSE" premiereChannelType="mono">
						<masterclipid>masterclip-328</masterclipid>
						<name>AA3136</name>
						<enabled>TRUE</enabled>
						<duration>12924</duration>
						<rate>
							<timebase>25</timebase>
							<ntsc>FALSE</ntsc>
						</rate>
						<start>9026</start>
						<end>9105</end>
						<in>3034</in>
						<out>3113</out>
						<pproTicksIn>30827381760000</pproTicksIn>
						<pproTicksOut>31630072320000</pproTicksOut>
						<file id="file-316"/>
						<sourcetrack>
							<mediatype>audio</mediatype>
							<trackindex>2</trackindex>
						</sourcetrack>
						<link>
							<linkclipref>clipitem-1096</linkclipref>
							<mediatype>video</mediatype>
							<trackindex>1</trackindex>
							<clipindex>114</clipindex>
						</link>
						<link>
							<linkclipref>clipitem-1376</linkclipref>
							<mediatype>audio</mediatype>
							<trackindex>3</trackindex>
							<clipindex>24</clipindex>
						</link>
						<link>
							<linkclipref>clipitem-1398</linkclipref>
							<mediatype>audio</mediatype>
							<trackindex>4</trackindex>
							<clipindex>14</clipindex>
						</link>
						<logginginfo>
							<description></description>
							<scene></scene>
							<shottake>AA3136</shottake>
							<lognote></lognote>
						</logginginfo>
						<labels>
							<label2>Iris</label2>
						</labels>
					</clipitem>
					<clipitem id="clipitem-1399" frameBlend="FALSE" premiereChannelType="mono">
						<masterclipid>masterclip-331</masterclipid>
						<name>AA3109</name>
						<enabled>TRUE</enabled>
						<duration>408</duration>
						<rate>
							<timebase>25</timebase>
							<ntsc>FALSE</ntsc>
						</rate>
						<start>9362</start>
						<end>9413</end>
						<in>233</in>
						<out>284</out>
						<pproTicksIn>2367429120000</pproTicksIn>
						<pproTicksOut>2885621760000</pproTicksOut>
						<file id="file-319"/>
						<sourcetrack>
							<mediatype>audio</mediatype>
							<trackindex>2</trackindex>
						</sourcetrack>
						<link>
							<linkclipref>clipitem-1098</linkclipref>
							<mediatype>video</mediatype>
							<trackindex>1</trackindex>
							<clipindex>116</clipindex>
						</link>
						<link>
							<linkclipref>clipitem-1377</linkclipref>
							<mediatype>audio</mediatype>
							<trackindex>3</trackindex>
							<clipindex>25</clipindex>
						</link>
						<link>
							<linkclipref>clipitem-1399</linkclipref>
							<mediatype>audio</mediatype>
							<trackindex>4</trackindex>
							<clipindex>15</clipindex>
						</link>
						<logginginfo>
							<description></description>
							<scene></scene>
							<shottake>AA3109</shottake>
							<lognote></lognote>
						</logginginfo>
						<labels>
							<label2>Iris</label2>
						</labels>
					</clipitem>
					<clipitem id="clipitem-1400" frameBlend="FALSE" premiereChannelType="mono">
						<masterclipid>masterclip-337</masterclipid>
						<name>AA3156</name>
						<enabled>TRUE</enabled>
						<duration>19440</duration>
						<rate>
							<timebase>25</timebase>
							<ntsc>FALSE</ntsc>
						</rate>
						<start>10988</start>
						<end>11134</end>
						<in>8063</in>
						<out>8209</out>
						<pproTicksIn>81925240320000</pproTicksIn>
						<pproTicksOut>83408693760000</pproTicksOut>
						<file id="file-324"/>
						<sourcetrack>
							<mediatype>audio</mediatype>
							<trackindex>2</trackindex>
						</sourcetrack>
							<filter>
								<effect>
									<name>Audio Levels</name>
									<effectid>audiolevels</effectid>
									<effectcategory>audiolevels</effectcategory>
									<effecttype>audiolevels</effecttype>
									<mediatype>audio</mediatype>
									<parameter authoringApp="PremierePro">
										<parameterid>level</parameterid>
										<name>Level</name>
										<valuemin>0</valuemin>
										<valuemax>3.98109</valuemax>
										<value>0.219829</value>
									</parameter>
								</effect>
							</filter>
							<marker>
								<comment>det er mye foksu på miljøavtrykket og da er det bra at det kommer opp, vi må bare være enige om fakta</comment>
								<name></name>
								<in>6676</in>
								<out>-1</out>
							</marker>
							<marker>
								<comment>variert meny, men er det viktig at den er norsk?&#13;jeg syns jo det</comment>
								<name></name>
								<in>5081</in>
								<out>-1</out>
							</marker>
							<marker>
								<comment>erupeisk mix er meningsløst, da er det jo bra å skru på gasskjelen</comment>
								<name></name>
								<in>10447</in>
								<out>-1</out>
							</marker>
							<marker>
								<comment>vi må ta den diskusjonen og har gjort ganske mye</comment>
								<name></name>
								<in>7232</in>
								<out>-1</out>
							</marker>
							<marker>
								<comment>er det viktig å ha tomater selv?&#13;ikke energimessig</comment>
								<name></name>
								<in>4501</in>
								<out>-1</out>
							</marker>
							<marker>
								<comment>Dette er det noske konsumet, men nå siste jeg en. Ja da må vi ta opp en</comment>
								<name></name>
								<in>3232</in>
								<out>-1</out>
							</marker>
							<marker>
								<comment>en tredejdel norsk forsningsgrad</comment>
								<name></name>
								<in>3792</in>
								<out>-1</out>
							</marker>
							<marker>
								<comment>DA jeg snakket med deg første gang, sa du at du hadde ventet på at noen som meg skulle ringe?&#13;</comment>
								<name></name>
								<in>6484</in>
								<out>-1</out>
							</marker>
						<link>
							<linkclipref>clipitem-1121</linkclipref>
							<mediatype>video</mediatype>
							<trackindex>1</trackindex>
							<clipindex>133</clipindex>
						</link>
						<link>
							<linkclipref>clipitem-1379</linkclipref>
							<mediatype>audio</mediatype>
							<trackindex>3</trackindex>
							<clipindex>27</clipindex>
						</link>
						<link>
							<linkclipref>clipitem-1400</linkclipref>
							<mediatype>audio</mediatype>
							<trackindex>4</trackindex>
							<clipindex>16</clipindex>
						</link>
						<logginginfo>
							<description></description>
							<scene></scene>
							<shottake>AA3156</shottake>
							<lognote></lognote>
						</logginginfo>
						<labels>
							<label2>Iris</label2>
						</labels>
					</clipitem>
					<clipitem id="clipitem-1401" frameBlend="FALSE" premiereChannelType="mono">
						<masterclipid>masterclip-337</masterclipid>
						<name>AA3156</name>
						<enabled>TRUE</enabled>
						<duration>19440</duration>
						<rate>
							<timebase>25</timebase>
							<ntsc>FALSE</ntsc>
						</rate>
						<start>11134</start>
						<end>11232</end>
						<in>17214</in>
						<out>17312</out>
						<pproTicksIn>174905256960000</pproTicksIn>
						<pproTicksOut>175900999680000</pproTicksOut>
						<file id="file-324"/>
						<sourcetrack>
							<mediatype>audio</mediatype>
							<trackindex>2</trackindex>
						</sourcetrack>
							<filter>
								<effect>
									<name>Audio Levels</name>
									<effectid>audiolevels</effectid>
									<effectcategory>audiolevels</effectcategory>
									<effecttype>audiolevels</effecttype>
									<mediatype>audio</mediatype>
									<parameter authoringApp="PremierePro">
										<parameterid>level</parameterid>
										<name>Level</name>
										<valuemin>0</valuemin>
										<valuemax>3.98109</valuemax>
										<value>0.182538</value>
									</parameter>
								</effect>
							</filter>
							<marker>
								<comment>det er mye foksu på miljøavtrykket og da er det bra at det kommer opp, vi må bare være enige om fakta</comment>
								<name></name>
								<in>6676</in>
								<out>-1</out>
							</marker>
							<marker>
								<comment>variert meny, men er det viktig at den er norsk?&#13;jeg syns jo det</comment>
								<name></name>
								<in>5081</in>
								<out>-1</out>
							</marker>
							<marker>
								<comment>erupeisk mix er meningsløst, da er det jo bra å skru på gasskjelen</comment>
								<name></name>
								<in>10447</in>
								<out>-1</out>
							</marker>
							<marker>
								<comment>vi må ta den diskusjonen og har gjort ganske mye</comment>
								<name></name>
								<in>7232</in>
								<out>-1</out>
							</marker>
							<marker>
								<comment>er det viktig å ha tomater selv?&#13;ikke energimessig</comment>
								<name></name>
								<in>4501</in>
								<out>-1</out>
							</marker>
							<marker>
								<comment>Dette er det noske konsumet, men nå siste jeg en. Ja da må vi ta opp en</comment>
								<name></name>
								<in>3232</in>
								<out>-1</out>
							</marker>
							<marker>
								<comment>en tredejdel norsk forsningsgrad</comment>
								<name></name>
								<in>3792</in>
								<out>-1</out>
							</marker>
							<marker>
								<comment>DA jeg snakket med deg første gang, sa du at du hadde ventet på at noen som meg skulle ringe?&#13;</comment>
								<name></name>
								<in>6484</in>
								<out>-1</out>
							</marker>
						<link>
							<linkclipref>clipitem-1122</linkclipref>
							<mediatype>video</mediatype>
							<trackindex>1</trackindex>
							<clipindex>134</clipindex>
						</link>
						<link>
							<linkclipref>clipitem-1380</linkclipref>
							<mediatype>audio</mediatype>
							<trackindex>3</trackindex>
							<clipindex>28</clipindex>
						</link>
						<link>
							<linkclipref>clipitem-1401</linkclipref>
							<mediatype>audio</mediatype>
							<trackindex>4</trackindex>
							<clipindex>17</clipindex>
						</link>
						<logginginfo>
							<description></description>
							<scene></scene>
							<shottake>AA3156</shottake>
							<lognote></lognote>
						</logginginfo>
						<labels>
							<label2>Iris</label2>
						</labels>
					</clipitem>
					<clipitem id="clipitem-1402" frameBlend="FALSE" premiereChannelType="mono">
						<masterclipid>masterclip-307</masterclipid>
						<name>N42A0927.MOVMulticam</name>
						<enabled>TRUE</enabled>
						<duration>28012</duration>
						<rate>
							<timebase>25</timebase>
							<ntsc>FALSE</ntsc>
						</rate>
						<start>13175</start>
						<end>13299</end>
						<in>15615</in>
						<out>15739</out>
						<pproTicksIn>158658393600000</pproTicksIn>
						<pproTicksOut>159918312960000</pproTicksOut>
						<sequence id="sequence-72"/>
						<labels>
							<label2>Forest</label2>
						</labels>
					</clipitem>
					<clipitem id="clipitem-1403" frameBlend="FALSE" premiereChannelType="mono">
						<masterclipid>masterclip-307</masterclipid>
						<name>N42A0927.MOVMulticam</name>
						<enabled>TRUE</enabled>
						<duration>28012</duration>
						<rate>
							<timebase>25</timebase>
							<ntsc>FALSE</ntsc>
						</rate>
						<start>13299</start>
						<end>13476</end>
						<in>15855</in>
						<out>16032</out>
						<pproTicksIn>161096947200000</pproTicksIn>
						<pproTicksOut>162895380480000</pproTicksOut>
						<sequence id="sequence-72"/>
						<labels>
							<label2>Forest</label2>
						</labels>
					</clipitem>
					<clipitem id="clipitem-1404" frameBlend="FALSE" premiereChannelType="mono">
						<masterclipid>masterclip-367</masterclipid>
						<name>AA3199</name>
						<enabled>TRUE</enabled>
						<duration>348</duration>
						<rate>
							<timebase>25</timebase>
							<ntsc>FALSE</ntsc>
						</rate>
						<start>13476</start>
						<end>13577</end>
						<in>36</in>
						<out>137</out>
						<pproTicksIn>365783040000</pproTicksIn>
						<pproTicksOut>1392007680000</pproTicksOut>
						<file id="file-352"/>
						<sourcetrack>
							<mediatype>audio</mediatype>
							<trackindex>2</trackindex>
						</sourcetrack>
						<link>
							<linkclipref>clipitem-1383</linkclipref>
							<mediatype>audio</mediatype>
							<trackindex>3</trackindex>
							<clipindex>31</clipindex>
						</link>
						<link>
							<linkclipref>clipitem-1404</linkclipref>
							<mediatype>audio</mediatype>
							<trackindex>4</trackindex>
							<clipindex>20</clipindex>
						</link>
						<logginginfo>
							<description></description>
							<scene></scene>
							<shottake>AA3199</shottake>
							<lognote></lognote>
						</logginginfo>
						<labels>
							<label2>Iris</label2>
						</labels>
					</clipitem>
					<clipitem id="clipitem-1405" frameBlend="FALSE" premiereChannelType="mono">
						<masterclipid>masterclip-345</masterclipid>
						<name>N42A0925.MOVMulticam</name>
						<enabled>TRUE</enabled>
						<duration>8736</duration>
						<rate>
							<timebase>25</timebase>
							<ntsc>FALSE</ntsc>
						</rate>
						<start>13577</start>
						<end>13632</end>
						<in>3498</in>
						<out>3553</out>
						<pproTicksIn>35541918720000</pproTicksIn>
						<pproTicksOut>36100753920000</pproTicksOut>
						<sequence id="sequence-75"/>
						<link>
							<linkclipref>clipitem-1142</linkclipref>
							<mediatype>video</mediatype>
							<trackindex>1</trackindex>
							<clipindex>148</clipindex>
						</link>
						<link>
							<linkclipref>clipitem-1384</linkclipref>
							<mediatype>audio</mediatype>
							<trackindex>3</trackindex>
							<clipindex>32</clipindex>
						</link>
						<link>
							<linkclipref>clipitem-1405</linkclipref>
							<mediatype>audio</mediatype>
							<trackindex>4</trackindex>
							<clipindex>21</clipindex>
						</link>
						<labels>
							<label2>Forest</label2>
						</labels>
					</clipitem>
					<enabled>TRUE</enabled>
					<locked>FALSE</locked>
					<outputchannelindex>2</outputchannelindex>
				</track>
				<track TL.SQTrackAudioKeyframeStyle="0" TL.SQTrackShy="0" TL.SQTrackExpandedHeight="58" TL.SQTrackExpanded="1" MZ.TrackTargeted="1" MZ.TrackName="Kontentum stereo" PannerCurrentValue="0.5" PannerIsInverted="true" PannerStartKeyframe="-91445760000000000,0.5,0,0,0,0,0,0" PannerName="Balance" currentExplodedTrackIndex="0" totalExplodedTrackCount="2" premiereTrackType="Stereo">
					<clipitem id="clipitem-1406" frameBlend="FALSE" premiereChannelType="stereo">
						<masterclipid>masterclip-257</masterclipid>
						<name>Valget er ditt.mov</name>
						<enabled>TRUE</enabled>
						<duration>1977</duration>
						<rate>
							<timebase>25</timebase>
							<ntsc>FALSE</ntsc>
						</rate>
						<start>0</start>
						<end>80</end>
						<in>1547</in>
						<out>1627</out>
						<pproTicksIn>15718510080000</pproTicksIn>
						<pproTicksOut>16531361280000</pproTicksOut>
						<file id="file-247"/>
						<sourcetrack>
							<mediatype>audio</mediatype>
							<trackindex>1</trackindex>
						</sourcetrack>
						<link>
							<linkclipref>clipitem-967</linkclipref>
							<mediatype>video</mediatype>
							<trackindex>1</trackindex>
							<clipindex>1</clipindex>
						</link>
						<link>
							<linkclipref>clipitem-1406</linkclipref>
							<mediatype>audio</mediatype>
							<trackindex>5</trackindex>
							<clipindex>1</clipindex>
							<groupindex>1</groupindex>
						</link>
						<link>
							<linkclipref>clipitem-1411</linkclipref>
							<mediatype>audio</mediatype>
							<trackindex>6</trackindex>
							<clipindex>1</clipindex>
							<groupindex>1</groupindex>
						</link>
						<logginginfo>
							<description></description>
							<scene></scene>
							<shottake></shottake>
							<lognote></lognote>
						</logginginfo>
						<labels>
							<label2>Iris</label2>
						</labels>
					</clipitem>
					<clipitem id="clipitem-1407" frameBlend="FALSE" premiereChannelType="stereo">
						<masterclipid>masterclip-258</masterclipid>
						<name>Tenk nytt! Lag mer gr_nnsaker til middagen..mov</name>
						<enabled>TRUE</enabled>
						<duration>1274</duration>
						<rate>
							<timebase>25</timebase>
							<ntsc>FALSE</ntsc>
						</rate>
						<start>80</start>
						<end>133</end>
						<in>984</in>
						<out>1037</out>
						<pproTicksIn>9998069760000</pproTicksIn>
						<pproTicksOut>10536583680000</pproTicksOut>
						<file id="file-248"/>
						<sourcetrack>
							<mediatype>audio</mediatype>
							<trackindex>1</trackindex>
						</sourcetrack>
							<filter>
								<effect>
									<name>Audio Levels</name>
									<effectid>audiolevels</effectid>
									<effectcategory>audiolevels</effectcategory>
									<effecttype>audiolevels</effecttype>
									<mediatype>audio</mediatype>
									<parameter authoringApp="PremierePro">
										<parameterid>level</parameterid>
										<name>Level</name>
										<valuemin>0</valuemin>
										<valuemax>3.98109</valuemax>
										<value>0.44575</value>
									</parameter>
								</effect>
							</filter>
						<link>
							<linkclipref>clipitem-968</linkclipref>
							<mediatype>video</mediatype>
							<trackindex>1</trackindex>
							<clipindex>2</clipindex>
						</link>
						<link>
							<linkclipref>clipitem-1407</linkclipref>
							<mediatype>audio</mediatype>
							<trackindex>5</trackindex>
							<clipindex>2</clipindex>
							<groupindex>1</groupindex>
						</link>
						<link>
							<linkclipref>clipitem-1412</linkclipref>
							<mediatype>audio</mediatype>
							<trackindex>6</trackindex>
							<clipindex>2</clipindex>
							<groupindex>1</groupindex>
						</link>
						<logginginfo>
							<description></description>
							<scene></scene>
							<shottake></shottake>
							<lognote></lognote>
						</logginginfo>
						<labels>
							<label2>Iris</label2>
						</labels>
					</clipitem>
					<clipitem id="clipitem-1408" frameBlend="FALSE" premiereChannelType="stereo">
						<masterclipid>masterclip-258</masterclipid>
						<name>Tenk nytt! Lag mer gr_nnsaker til middagen..mov</name>
						<enabled>TRUE</enabled>
						<duration>1274</duration>
						<rate>
							<timebase>25</timebase>
							<ntsc>FALSE</ntsc>
						</rate>
						<start>133</start>
						<end>243</end>
						<in>1037</in>
						<out>1147</out>
						<pproTicksIn>10536583680000</pproTicksIn>
						<pproTicksOut>11654254080000</pproTicksOut>
						<file id="file-248"/>
						<sourcetrack>
							<mediatype>audio</mediatype>
							<trackindex>1</trackindex>
						</sourcetrack>
							<filter>
								<effect>
									<name>Audio Levels</name>
									<effectid>audiolevels</effectid>
									<effectcategory>audiolevels</effectcategory>
									<effecttype>audiolevels</effecttype>
									<mediatype>audio</mediatype>
									<parameter authoringApp="PremierePro">
										<parameterid>level</parameterid>
										<name>Level</name>
										<valuemin>0</valuemin>
										<valuemax>3.98109</valuemax>
										<value>0.113206</value>
									</parameter>
								</effect>
							</filter>
						<link>
							<linkclipref>clipitem-1408</linkclipref>
							<mediatype>audio</mediatype>
							<trackindex>5</trackindex>
							<clipindex>3</clipindex>
							<groupindex>1</groupindex>
						</link>
						<link>
							<linkclipref>clipitem-1413</linkclipref>
							<mediatype>audio</mediatype>
							<trackindex>6</trackindex>
							<clipindex>3</clipindex>
							<groupindex>1</groupindex>
						</link>
						<logginginfo>
							<description></description>
							<scene></scene>
							<shottake></shottake>
							<lognote></lognote>
						</logginginfo>
						<labels>
							<label2>Iris</label2>
						</labels>
					</clipitem>
					<clipitem id="clipitem-1409" frameBlend="FALSE" premiereChannelType="stereo">
						<masterclipid>masterclip-259</masterclipid>
						<name>Hvor kommer str_mmen v_r fra_ Telinet Energi gir deg svaret.mov</name>
						<enabled>TRUE</enabled>
						<duration>5064</duration>
						<rate>
							<timebase>25</timebase>
							<ntsc>FALSE</ntsc>
						</rate>
						<start>271</start>
						<end>371</end>
						<in>2309</in>
						<out>2409</out>
						<pproTicksIn>23460917760000</pproTicksIn>
						<pproTicksOut>24476981760000</pproTicksOut>
						<file id="file-249"/>
						<sourcetrack>
							<mediatype>audio</mediatype>
							<trackindex>1</trackindex>
						</sourcetrack>
						<link>
							<linkclipref>clipitem-969</linkclipref>
							<mediatype>video</mediatype>
							<trackindex>1</trackindex>
							<clipindex>3</clipindex>
						</link>
						<link>
							<linkclipref>clipitem-1409</linkclipref>
							<mediatype>audio</mediatype>
							<trackindex>5</trackindex>
							<clipindex>4</clipindex>
							<groupindex>1</groupindex>
						</link>
						<link>
							<linkclipref>clipitem-1414</linkclipref>
							<mediatype>audio</mediatype>
							<trackindex>6</trackindex>
							<clipindex>4</clipindex>
							<groupindex>1</groupindex>
						</link>
						<logginginfo>
							<description></description>
							<scene></scene>
							<shottake></shottake>
							<lognote></lognote>
						</logginginfo>
						<labels>
							<label2>Iris</label2>
						</labels>
					</clipitem>
					<clipitem id="clipitem-1410" frameBlend="FALSE" premiereChannelType="stereo">
						<masterclipid>masterclip-343</masterclipid>
						<name>Tenk nytt! Lag mer gr_nnsaker til middagen..mov</name>
						<enabled>TRUE</enabled>
						<duration>1274</duration>
						<rate>
							<timebase>25</timebase>
							<ntsc>FALSE</ntsc>
						</rate>
						<start>12768</start>
						<end>13175</end>
						<in>16</in>
						<out>423</out>
						<pproTicksIn>162570240000</pproTicksIn>
						<pproTicksOut>4297950720000</pproTicksOut>
						<file id="file-329"/>
						<sourcetrack>
							<mediatype>audio</mediatype>
							<trackindex>1</trackindex>
						</sourcetrack>
							<filter>
								<effect>
									<name>Audio Levels</name>
									<effectid>audiolevels</effectid>
									<effectcategory>audiolevels</effectcategory>
									<effecttype>audiolevels</effecttype>
									<mediatype>audio</mediatype>
									<parameter authoringApp="PremierePro">
										<parameterid>level</parameterid>
										<name>Level</name>
										<valuemin>0</valuemin>
										<valuemax>3.98109</valuemax>
										<value>1.04514</value>
										<keyframe>
											<when>185</when>
											<value>1.04514</value>
										</keyframe>
										<keyframe>
											<when>194</when>
											<value>0.190025</value>
										</keyframe>
									</parameter>
								</effect>
							</filter>
						<link>
							<linkclipref>clipitem-1136</linkclipref>
							<mediatype>video</mediatype>
							<trackindex>1</trackindex>
							<clipindex>142</clipindex>
						</link>
						<link>
							<linkclipref>clipitem-1410</linkclipref>
							<mediatype>audio</mediatype>
							<trackindex>5</trackindex>
							<clipindex>5</clipindex>
							<groupindex>1</groupindex>
						</link>
						<link>
							<linkclipref>clipitem-1415</linkclipref>
							<mediatype>audio</mediatype>
							<trackindex>6</trackindex>
							<clipindex>5</clipindex>
							<groupindex>1</groupindex>
						</link>
						<logginginfo>
							<description></description>
							<scene></scene>
							<shottake></shottake>
							<lognote></lognote>
						</logginginfo>
						<labels>
							<label2>Iris</label2>
						</labels>
					</clipitem>
					<enabled>TRUE</enabled>
					<locked>FALSE</locked>
					<outputchannelindex>1</outputchannelindex>
				</track>
				<track TL.SQTrackAudioKeyframeStyle="0" TL.SQTrackShy="0" TL.SQTrackExpandedHeight="58" TL.SQTrackExpanded="1" MZ.TrackTargeted="1" MZ.TrackName="Kontentum stereo" PannerCurrentValue="0.5" PannerIsInverted="true" PannerStartKeyframe="-91445760000000000,0.5,0,0,0,0,0,0" PannerName="Balance" currentExplodedTrackIndex="1" totalExplodedTrackCount="2" premiereTrackType="Stereo">
					<clipitem id="clipitem-1411" frameBlend="FALSE" premiereChannelType="stereo">
						<masterclipid>masterclip-257</masterclipid>
						<name>Valget er ditt.mov</name>
						<enabled>TRUE</enabled>
						<duration>1977</duration>
						<rate>
							<timebase>25</timebase>
							<ntsc>FALSE</ntsc>
						</rate>
						<start>0</start>
						<end>80</end>
						<in>1547</in>
						<out>1627</out>
						<pproTicksIn>15718510080000</pproTicksIn>
						<pproTicksOut>16531361280000</pproTicksOut>
						<file id="file-247"/>
						<sourcetrack>
							<mediatype>audio</mediatype>
							<trackindex>2</trackindex>
						</sourcetrack>
						<link>
							<linkclipref>clipitem-967</linkclipref>
							<mediatype>video</mediatype>
							<trackindex>1</trackindex>
							<clipindex>1</clipindex>
						</link>
						<link>
							<linkclipref>clipitem-1406</linkclipref>
							<mediatype>audio</mediatype>
							<trackindex>5</trackindex>
							<clipindex>1</clipindex>
							<groupindex>1</groupindex>
						</link>
						<link>
							<linkclipref>clipitem-1411</linkclipref>
							<mediatype>audio</mediatype>
							<trackindex>6</trackindex>
							<clipindex>1</clipindex>
							<groupindex>1</groupindex>
						</link>
						<logginginfo>
							<description></description>
							<scene></scene>
							<shottake></shottake>
							<lognote></lognote>
						</logginginfo>
						<labels>
							<label2>Iris</label2>
						</labels>
					</clipitem>
					<clipitem id="clipitem-1412" frameBlend="FALSE" premiereChannelType="stereo">
						<masterclipid>masterclip-258</masterclipid>
						<name>Tenk nytt! Lag mer gr_nnsaker til middagen..mov</name>
						<enabled>TRUE</enabled>
						<duration>1274</duration>
						<rate>
							<timebase>25</timebase>
							<ntsc>FALSE</ntsc>
						</rate>
						<start>80</start>
						<end>133</end>
						<in>984</in>
						<out>1037</out>
						<pproTicksIn>9998069760000</pproTicksIn>
						<pproTicksOut>10536583680000</pproTicksOut>
						<file id="file-248"/>
						<sourcetrack>
							<mediatype>audio</mediatype>
							<trackindex>2</trackindex>
						</sourcetrack>
							<filter>
								<effect>
									<name>Audio Levels</name>
									<effectid>audiolevels</effectid>
									<effectcategory>audiolevels</effectcategory>
									<effecttype>audiolevels</effecttype>
									<mediatype>audio</mediatype>
									<parameter authoringApp="PremierePro">
										<parameterid>level</parameterid>
										<name>Level</name>
										<valuemin>0</valuemin>
										<valuemax>3.98109</valuemax>
										<value>0.44575</value>
									</parameter>
								</effect>
							</filter>
						<link>
							<linkclipref>clipitem-968</linkclipref>
							<mediatype>video</mediatype>
							<trackindex>1</trackindex>
							<clipindex>2</clipindex>
						</link>
						<link>
							<linkclipref>clipitem-1407</linkclipref>
							<mediatype>audio</mediatype>
							<trackindex>5</trackindex>
							<clipindex>2</clipindex>
							<groupindex>1</groupindex>
						</link>
						<link>
							<linkclipref>clipitem-1412</linkclipref>
							<mediatype>audio</mediatype>
							<trackindex>6</trackindex>
							<clipindex>2</clipindex>
							<groupindex>1</groupindex>
						</link>
						<logginginfo>
							<description></description>
							<scene></scene>
							<shottake></shottake>
							<lognote></lognote>
						</logginginfo>
						<labels>
							<label2>Iris</label2>
						</labels>
					</clipitem>
					<clipitem id="clipitem-1413" frameBlend="FALSE" premiereChannelType="stereo">
						<masterclipid>masterclip-258</masterclipid>
						<name>Tenk nytt! Lag mer gr_nnsaker til middagen..mov</name>
						<enabled>TRUE</enabled>
						<duration>1274</duration>
						<rate>
							<timebase>25</timebase>
							<ntsc>FALSE</ntsc>
						</rate>
						<start>133</start>
						<end>243</end>
						<in>1037</in>
						<out>1147</out>
						<pproTicksIn>10536583680000</pproTicksIn>
						<pproTicksOut>11654254080000</pproTicksOut>
						<file id="file-248"/>
						<sourcetrack>
							<mediatype>audio</mediatype>
							<trackindex>2</trackindex>
						</sourcetrack>
							<filter>
								<effect>
									<name>Audio Levels</name>
									<effectid>audiolevels</effectid>
									<effectcategory>audiolevels</effectcategory>
									<effecttype>audiolevels</effecttype>
									<mediatype>audio</mediatype>
									<parameter authoringApp="PremierePro">
										<parameterid>level</parameterid>
										<name>Level</name>
										<valuemin>0</valuemin>
										<valuemax>3.98109</valuemax>
										<value>0.113206</value>
									</parameter>
								</effect>
							</filter>
						<link>
							<linkclipref>clipitem-1408</linkclipref>
							<mediatype>audio</mediatype>
							<trackindex>5</trackindex>
							<clipindex>3</clipindex>
							<groupindex>1</groupindex>
						</link>
						<link>
							<linkclipref>clipitem-1413</linkclipref>
							<mediatype>audio</mediatype>
							<trackindex>6</trackindex>
							<clipindex>3</clipindex>
							<groupindex>1</groupindex>
						</link>
						<logginginfo>
							<description></description>
							<scene></scene>
							<shottake></shottake>
							<lognote></lognote>
						</logginginfo>
						<labels>
							<label2>Iris</label2>
						</labels>
					</clipitem>
					<clipitem id="clipitem-1414" frameBlend="FALSE" premiereChannelType="stereo">
						<masterclipid>masterclip-259</masterclipid>
						<name>Hvor kommer str_mmen v_r fra_ Telinet Energi gir deg svaret.mov</name>
						<enabled>TRUE</enabled>
						<duration>5064</duration>
						<rate>
							<timebase>25</timebase>
							<ntsc>FALSE</ntsc>
						</rate>
						<start>271</start>
						<end>371</end>
						<in>2309</in>
						<out>2409</out>
						<pproTicksIn>23460917760000</pproTicksIn>
						<pproTicksOut>24476981760000</pproTicksOut>
						<file id="file-249"/>
						<sourcetrack>
							<mediatype>audio</mediatype>
							<trackindex>2</trackindex>
						</sourcetrack>
						<link>
							<linkclipref>clipitem-969</linkclipref>
							<mediatype>video</mediatype>
							<trackindex>1</trackindex>
							<clipindex>3</clipindex>
						</link>
						<link>
							<linkclipref>clipitem-1409</linkclipref>
							<mediatype>audio</mediatype>
							<trackindex>5</trackindex>
							<clipindex>4</clipindex>
							<groupindex>1</groupindex>
						</link>
						<link>
							<linkclipref>clipitem-1414</linkclipref>
							<mediatype>audio</mediatype>
							<trackindex>6</trackindex>
							<clipindex>4</clipindex>
							<groupindex>1</groupindex>
						</link>
						<logginginfo>
							<description></description>
							<scene></scene>
							<shottake></shottake>
							<lognote></lognote>
						</logginginfo>
						<labels>
							<label2>Iris</label2>
						</labels>
					</clipitem>
					<clipitem id="clipitem-1415" frameBlend="FALSE" premiereChannelType="stereo">
						<masterclipid>masterclip-343</masterclipid>
						<name>Tenk nytt! Lag mer gr_nnsaker til middagen..mov</name>
						<enabled>TRUE</enabled>
						<duration>1274</duration>
						<rate>
							<timebase>25</timebase>
							<ntsc>FALSE</ntsc>
						</rate>
						<start>12768</start>
						<end>13175</end>
						<in>16</in>
						<out>423</out>
						<pproTicksIn>162570240000</pproTicksIn>
						<pproTicksOut>4297950720000</pproTicksOut>
						<file id="file-329"/>
						<sourcetrack>
							<mediatype>audio</mediatype>
							<trackindex>2</trackindex>
						</sourcetrack>
							<filter>
								<effect>
									<name>Audio Levels</name>
									<effectid>audiolevels</effectid>
									<effectcategory>audiolevels</effectcategory>
									<effecttype>audiolevels</effecttype>
									<mediatype>audio</mediatype>
									<parameter authoringApp="PremierePro">
										<parameterid>level</parameterid>
										<name>Level</name>
										<valuemin>0</valuemin>
										<valuemax>3.98109</valuemax>
										<value>1.04514</value>
										<keyframe>
											<when>185</when>
											<value>1.04514</value>
										</keyframe>
										<keyframe>
											<when>194</when>
											<value>0.190025</value>
										</keyframe>
									</parameter>
								</effect>
							</filter>
						<link>
							<linkclipref>clipitem-1136</linkclipref>
							<mediatype>video</mediatype>
							<trackindex>1</trackindex>
							<clipindex>142</clipindex>
						</link>
						<link>
							<linkclipref>clipitem-1410</linkclipref>
							<mediatype>audio</mediatype>
							<trackindex>5</trackindex>
							<clipindex>5</clipindex>
							<groupindex>1</groupindex>
						</link>
						<link>
							<linkclipref>clipitem-1415</linkclipref>
							<mediatype>audio</mediatype>
							<trackindex>6</trackindex>
							<clipindex>5</clipindex>
							<groupindex>1</groupindex>
						</link>
						<logginginfo>
							<description></description>
							<scene></scene>
							<shottake></shottake>
							<lognote></lognote>
						</logginginfo>
						<labels>
							<label2>Iris</label2>
						</labels>
					</clipitem>
					<enabled>TRUE</enabled>
					<locked>FALSE</locked>
					<outputchannelindex>2</outputchannelindex>
				</track>
				<track TL.SQTrackAudioKeyframeStyle="0" TL.SQTrackShy="0" TL.SQTrackExpandedHeight="58" TL.SQTrackExpanded="1" MZ.TrackTargeted="1" MZ.TrackName="Musikk 1 stereo" PannerCurrentValue="0.5" PannerIsInverted="true" PannerStartKeyframe="-91445760000000000,0.5,0,0,0,0,0,0" PannerName="Balance" currentExplodedTrackIndex="0" totalExplodedTrackCount="2" premiereTrackType="Stereo">
					<clipitem id="clipitem-1416" frameBlend="FALSE" premiereChannelType="stereo">
						<masterclipid>masterclip-368</masterclipid>
						<name>AUXMP_SCDV052430_ALL_SUCCEEDS_C.wav</name>
						<enabled>TRUE</enabled>
						<duration>4656</duration>
						<rate>
							<timebase>25</timebase>
							<ntsc>FALSE</ntsc>
						</rate>
						<start>547</start>
						<end>-1</end>
						<in>0</in>
						<out>652</out>
						<pproTicksIn>0</pproTicksIn>
						<pproTicksOut>6624737280000</pproTicksOut>
						<file id="file-353">
							<name>AUXMP_SCDV052430_ALL_SUCCEEDS_C.wav</name>
							<pathurl>file://localhost/Volumes/Brakka/AdobeLager/Katta/Katta-16xxxx-Klimabloffen-Chris/03-Lyd/Musikk/AUXMP_SCDV052430_ALL_SUCCEEDS_C.wav</pathurl>
							<rate>
								<timebase>30</timebase>
								<ntsc>TRUE</ntsc>
							</rate>
							<duration>5581</duration>
							<timecode>
								<rate>
									<timebase>30</timebase>
									<ntsc>TRUE</ntsc>
								</rate>
								<string>01;06;08;16</string>
								<frame>118936</frame>
								<displayformat>DF</displayformat>
								<reel>
									<name></name>
								</reel>
							</timecode>
							<media>
								<audio>
									<samplecharacteristics>
										<depth>16</depth>
										<samplerate>48000</samplerate>
									</samplecharacteristics>
									<channelcount>2</channelcount>
								</audio>
							</media>
						</file>
						<sourcetrack>
							<mediatype>audio</mediatype>
							<trackindex>1</trackindex>
						</sourcetrack>
							<filter>
								<effect>
									<name>Audio Levels</name>
									<effectid>audiolevels</effectid>
									<effectcategory>audiolevels</effectcategory>
									<effecttype>audiolevels</effecttype>
									<mediatype>audio</mediatype>
									<parameter authoringApp="PremierePro">
										<parameterid>level</parameterid>
										<name>Level</name>
										<valuemin>0</valuemin>
										<valuemax>3.98109</valuemax>
										<value>0.293123</value>
									</parameter>
								</effect>
							</filter>
							<marker>
								<comment></comment>
								<name></name>
								<in>40</in>
								<out>-1</out>
							</marker>
						<link>
							<linkclipref>clipitem-1416</linkclipref>
							<mediatype>audio</mediatype>
							<trackindex>7</trackindex>
							<clipindex>1</clipindex>
							<groupindex>1</groupindex>
						</link>
						<link>
							<linkclipref>clipitem-1420</linkclipref>
							<mediatype>audio</mediatype>
							<trackindex>8</trackindex>
							<clipindex>1</clipindex>
							<groupindex>1</groupindex>
						</link>
						<logginginfo>
							<description></description>
							<scene></scene>
							<shottake></shottake>
							<lognote></lognote>
						</logginginfo>
						<labels>
							<label2>Caribbean</label2>
						</labels>
					</clipitem>
					<transitionitem>
						<start>1186</start>
						<end>1199</end>
						<alignment>end-black</alignment>
						<cutPoint>13</cutPoint>
						<rate>
							<timebase>25</timebase>
							<ntsc>FALSE</ntsc>
						</rate>
						<effect>
							<name>Cross Fade (+3dB)</name>
							<effectid>KGAudioTransCrossFade3dB</effectid>
							<effecttype>transition</effecttype>
							<mediatype>audio</mediatype>
							<wipecode>0</wipecode>
							<wipeaccuracy>100</wipeaccuracy>
							<startratio>0</startratio>
							<endratio>1</endratio>
							<reverse>FALSE</reverse>
						</effect>
					</transitionitem>
					<clipitem id="clipitem-1417" frameBlend="FALSE" premiereChannelType="stereo">
						<masterclipid>masterclip-369</masterclipid>
						<name>AUXMP_BBX020604_FRESH_BEATS.wav</name>
						<enabled>TRUE</enabled>
						<duration>4187</duration>
						<rate>
							<timebase>25</timebase>
							<ntsc>FALSE</ntsc>
						</rate>
						<start>4539</start>
						<end>-1</end>
						<in>0</in>
						<out>477</out>
						<pproTicksIn>0</pproTicksIn>
						<pproTicksOut>4846625280000</pproTicksOut>
						<file id="file-354">
							<name>AUXMP_BBX020604_FRESH_BEATS.wav</name>
							<pathurl>file://localhost/Volumes/Brakka/AdobeLager/Katta/Katta-16xxxx-Klimabloffen-Chris/03-Lyd/Musikk/AUXMP_BBX020604_FRESH_BEATS.wav</pathurl>
							<rate>
								<timebase>30</timebase>
								<ntsc>TRUE</ntsc>
							</rate>
							<duration>5019</duration>
							<timecode>
								<rate>
									<timebase>30</timebase>
									<ntsc>TRUE</ntsc>
								</rate>
								<string>00;00;00;00</string>
								<frame>0</frame>
								<displayformat>DF</displayformat>
								<reel>
									<name></name>
								</reel>
							</timecode>
							<media>
								<audio>
									<samplecharacteristics>
										<depth>16</depth>
										<samplerate>48000</samplerate>
									</samplecharacteristics>
									<channelcount>2</channelcount>
								</audio>
							</media>
						</file>
						<sourcetrack>
							<mediatype>audio</mediatype>
							<trackindex>1</trackindex>
						</sourcetrack>
							<filter>
								<effect>
									<name>Audio Levels</name>
									<effectid>audiolevels</effectid>
									<effectcategory>audiolevels</effectcategory>
									<effecttype>audiolevels</effecttype>
									<mediatype>audio</mediatype>
									<parameter authoringApp="PremierePro">
										<parameterid>level</parameterid>
										<name>Level</name>
										<valuemin>0</valuemin>
										<valuemax>3.98109</valuemax>
										<value>0.200826</value>
									</parameter>
								</effect>
							</filter>
						<link>
							<linkclipref>clipitem-1417</linkclipref>
							<mediatype>audio</mediatype>
							<trackindex>7</trackindex>
							<clipindex>3</clipindex>
							<groupindex>1</groupindex>
						</link>
						<link>
							<linkclipref>clipitem-1421</linkclipref>
							<mediatype>audio</mediatype>
							<trackindex>8</trackindex>
							<clipindex>3</clipindex>
							<groupindex>1</groupindex>
						</link>
						<logginginfo>
							<description></description>
							<scene></scene>
							<shottake></shottake>
							<lognote></lognote>
						</logginginfo>
						<labels>
							<label2>Caribbean</label2>
						</labels>
					</clipitem>
					<transitionitem>
						<start>4892</start>
						<end>5016</end>
						<alignment>end-black</alignment>
						<cutPoint>124</cutPoint>
						<rate>
							<timebase>25</timebase>
							<ntsc>FALSE</ntsc>
						</rate>
						<effect>
							<name>Cross Fade (+3dB)</name>
							<effectid>KGAudioTransCrossFade3dB</effectid>
							<effecttype>transition</effecttype>
							<mediatype>audio</mediatype>
							<wipecode>0</wipecode>
							<wipeaccuracy>100</wipeaccuracy>
							<startratio>0</startratio>
							<endratio>1</endratio>
							<reverse>FALSE</reverse>
						</effect>
					</transitionitem>
					<clipitem id="clipitem-1418" frameBlend="FALSE" premiereChannelType="stereo">
						<masterclipid>masterclip-370</masterclipid>
						<name>AUXMP_SCDV031230_READING_THE_PAST_B.wav</name>
						<enabled>TRUE</enabled>
						<duration>2690</duration>
						<rate>
							<timebase>25</timebase>
							<ntsc>FALSE</ntsc>
						</rate>
						<start>6991</start>
						<end>-1</end>
						<in>0</in>
						<out>2195</out>
						<pproTicksIn>0</pproTicksIn>
						<pproTicksOut>22302604800000</pproTicksOut>
						<file id="file-355">
							<name>AUXMP_SCDV031230_READING_THE_PAST_B.wav</name>
							<pathurl>file://localhost/Volumes/Brakka/AdobeLager/Katta/Katta-16xxxx-Klimabloffen-Chris/03-Lyd/Musikk/AUXMP_SCDV031230_READING_THE_PAST_B.wav</pathurl>
							<rate>
								<timebase>30</timebase>
								<ntsc>TRUE</ntsc>
							</rate>
							<duration>3224</duration>
							<timecode>
								<rate>
									<timebase>30</timebase>
									<ntsc>TRUE</ntsc>
								</rate>
								<string>01;09;02;29</string>
								<frame>124163</frame>
								<displayformat>DF</displayformat>
								<reel>
									<name></name>
								</reel>
							</timecode>
							<media>
								<audio>
									<samplecharacteristics>
										<depth>16</depth>
										<samplerate>48000</samplerate>
									</samplecharacteristics>
									<channelcount>2</channelcount>
								</audio>
							</media>
						</file>
						<sourcetrack>
							<mediatype>audio</mediatype>
							<trackindex>1</trackindex>
						</sourcetrack>
							<filter>
								<effect>
									<name>Audio Levels</name>
									<effectid>audiolevels</effectid>
									<effectcategory>audiolevels</effectcategory>
									<effecttype>audiolevels</effecttype>
									<mediatype>audio</mediatype>
									<parameter authoringApp="PremierePro">
										<parameterid>level</parameterid>
										<name>Level</name>
										<valuemin>0</valuemin>
										<valuemax>3.98109</valuemax>
										<value>0.239537</value>
									</parameter>
								</effect>
							</filter>
						<link>
							<linkclipref>clipitem-1418</linkclipref>
							<mediatype>audio</mediatype>
							<trackindex>7</trackindex>
							<clipindex>5</clipindex>
							<groupindex>1</groupindex>
						</link>
						<link>
							<linkclipref>clipitem-1422</linkclipref>
							<mediatype>audio</mediatype>
							<trackindex>8</trackindex>
							<clipindex>5</clipindex>
							<groupindex>1</groupindex>
						</link>
						<logginginfo>
							<description></description>
							<scene></scene>
							<shottake></shottake>
							<lognote></lognote>
						</logginginfo>
						<labels>
							<label2>Cerulean</label2>
						</labels>
					</clipitem>
					<transitionitem>
						<start>9173</start>
						<end>9186</end>
						<alignment>end-black</alignment>
						<cutPoint>13</cutPoint>
						<rate>
							<timebase>25</timebase>
							<ntsc>FALSE</ntsc>
						</rate>
						<effect>
							<name>Cross Fade (+3dB)</name>
							<effectid>KGAudioTransCrossFade3dB</effectid>
							<effecttype>transition</effecttype>
							<mediatype>audio</mediatype>
							<wipecode>0</wipecode>
							<wipeaccuracy>100</wipeaccuracy>
							<startratio>0</startratio>
							<endratio>1</endratio>
							<reverse>FALSE</reverse>
						</effect>
					</transitionitem>
					<transitionitem>
						<start>14748</start>
						<end>14848</end>
						<alignment>start-black</alignment>
						<cutPoint>0</cutPoint>
						<rate>
							<timebase>25</timebase>
							<ntsc>FALSE</ntsc>
						</rate>
						<effect>
							<name>Cross Fade (+3dB)</name>
							<effectid>KGAudioTransCrossFade3dB</effectid>
							<effecttype>transition</effecttype>
							<mediatype>audio</mediatype>
							<wipecode>0</wipecode>
							<wipeaccuracy>100</wipeaccuracy>
							<startratio>0</startratio>
							<endratio>1</endratio>
							<reverse>FALSE</reverse>
						</effect>
					</transitionitem>
					<clipitem id="clipitem-1419" frameBlend="FALSE" premiereChannelType="stereo">
						<masterclipid>masterclip-368</masterclipid>
						<name>AUXMP_SCDV052430_ALL_SUCCEEDS_C.wav</name>
						<enabled>TRUE</enabled>
						<duration>4656</duration>
						<rate>
							<timebase>25</timebase>
							<ntsc>FALSE</ntsc>
						</rate>
						<start>-1</start>
						<end>-1</end>
						<in>3928</in>
						<out>4513</out>
						<pproTicksIn>39910993920000</pproTicksIn>
						<pproTicksOut>45854968320000</pproTicksOut>
						<file id="file-353"/>
						<sourcetrack>
							<mediatype>audio</mediatype>
							<trackindex>1</trackindex>
						</sourcetrack>
							<filter>
								<effect>
									<name>Audio Levels</name>
									<effectid>audiolevels</effectid>
									<effectcategory>audiolevels</effectcategory>
									<effecttype>audiolevels</effecttype>
									<mediatype>audio</mediatype>
									<parameter authoringApp="PremierePro">
										<parameterid>level</parameterid>
										<name>Level</name>
										<valuemin>0</valuemin>
										<valuemax>3.98109</valuemax>
										<value>0.0299744</value>
									</parameter>
								</effect>
							</filter>
							<marker>
								<comment></comment>
								<name></name>
								<in>40</in>
								<out>-1</out>
							</marker>
						<link>
							<linkclipref>clipitem-1419</linkclipref>
							<mediatype>audio</mediatype>
							<trackindex>7</trackindex>
							<clipindex>8</clipindex>
							<groupindex>1</groupindex>
						</link>
						<link>
							<linkclipref>clipitem-1423</linkclipref>
							<mediatype>audio</mediatype>
							<trackindex>8</trackindex>
							<clipindex>8</clipindex>
							<groupindex>1</groupindex>
						</link>
						<logginginfo>
							<description></description>
							<scene></scene>
							<shottake></shottake>
							<lognote></lognote>
						</logginginfo>
						<labels>
							<label2>Caribbean</label2>
						</labels>
					</clipitem>
					<transitionitem>
						<start>15320</start>
						<end>15333</end>
						<alignment>end-black</alignment>
						<cutPoint>13</cutPoint>
						<rate>
							<timebase>25</timebase>
							<ntsc>FALSE</ntsc>
						</rate>
						<effect>
							<name>Cross Fade (+3dB)</name>
							<effectid>KGAudioTransCrossFade3dB</effectid>
							<effecttype>transition</effecttype>
							<mediatype>audio</mediatype>
							<wipecode>0</wipecode>
							<wipeaccuracy>100</wipeaccuracy>
							<startratio>0</startratio>
							<endratio>1</endratio>
							<reverse>FALSE</reverse>
						</effect>
					</transitionitem>
					<enabled>TRUE</enabled>
					<locked>FALSE</locked>
					<outputchannelindex>1</outputchannelindex>
				</track>
				<track TL.SQTrackAudioKeyframeStyle="0" TL.SQTrackShy="0" TL.SQTrackExpandedHeight="58" TL.SQTrackExpanded="1" MZ.TrackTargeted="1" MZ.TrackName="Musikk 1 stereo" PannerCurrentValue="0.5" PannerIsInverted="true" PannerStartKeyframe="-91445760000000000,0.5,0,0,0,0,0,0" PannerName="Balance" currentExplodedTrackIndex="1" totalExplodedTrackCount="2" premiereTrackType="Stereo">
					<clipitem id="clipitem-1420" frameBlend="FALSE" premiereChannelType="stereo">
						<masterclipid>masterclip-368</masterclipid>
						<name>AUXMP_SCDV052430_ALL_SUCCEEDS_C.wav</name>
						<enabled>TRUE</enabled>
						<duration>4656</duration>
						<rate>
							<timebase>25</timebase>
							<ntsc>FALSE</ntsc>
						</rate>
						<start>547</start>
						<end>-1</end>
						<in>0</in>
						<out>652</out>
						<pproTicksIn>0</pproTicksIn>
						<pproTicksOut>6624737280000</pproTicksOut>
						<file id="file-353"/>
						<sourcetrack>
							<mediatype>audio</mediatype>
							<trackindex>2</trackindex>
						</sourcetrack>
							<filter>
								<effect>
									<name>Audio Levels</name>
									<effectid>audiolevels</effectid>
									<effectcategory>audiolevels</effectcategory>
									<effecttype>audiolevels</effecttype>
									<mediatype>audio</mediatype>
									<parameter authoringApp="PremierePro">
										<parameterid>level</parameterid>
										<name>Level</name>
										<valuemin>0</valuemin>
										<valuemax>3.98109</valuemax>
										<value>0.293123</value>
									</parameter>
								</effect>
							</filter>
							<marker>
								<comment></comment>
								<name></name>
								<in>40</in>
								<out>-1</out>
							</marker>
						<link>
							<linkclipref>clipitem-1416</linkclipref>
							<mediatype>audio</mediatype>
							<trackindex>7</trackindex>
							<clipindex>1</clipindex>
							<groupindex>1</groupindex>
						</link>
						<link>
							<linkclipref>clipitem-1420</linkclipref>
							<mediatype>audio</mediatype>
							<trackindex>8</trackindex>
							<clipindex>1</clipindex>
							<groupindex>1</groupindex>
						</link>
						<logginginfo>
							<description></description>
							<scene></scene>
							<shottake></shottake>
							<lognote></lognote>
						</logginginfo>
						<labels>
							<label2>Caribbean</label2>
						</labels>
					</clipitem>
					<transitionitem>
						<start>1186</start>
						<end>1199</end>
						<alignment>end-black</alignment>
						<cutPoint>13</cutPoint>
						<rate>
							<timebase>25</timebase>
							<ntsc>FALSE</ntsc>
						</rate>
						<effect>
							<name>Cross Fade (+3dB)</name>
							<effectid>KGAudioTransCrossFade3dB</effectid>
							<effecttype>transition</effecttype>
							<mediatype>audio</mediatype>
							<wipecode>0</wipecode>
							<wipeaccuracy>100</wipeaccuracy>
							<startratio>0</startratio>
							<endratio>1</endratio>
							<reverse>FALSE</reverse>
						</effect>
					</transitionitem>
					<clipitem id="clipitem-1421" frameBlend="FALSE" premiereChannelType="stereo">
						<masterclipid>masterclip-369</masterclipid>
						<name>AUXMP_BBX020604_FRESH_BEATS.wav</name>
						<enabled>TRUE</enabled>
						<duration>4187</duration>
						<rate>
							<timebase>25</timebase>
							<ntsc>FALSE</ntsc>
						</rate>
						<start>4539</start>
						<end>-1</end>
						<in>0</in>
						<out>477</out>
						<pproTicksIn>0</pproTicksIn>
						<pproTicksOut>4846625280000</pproTicksOut>
						<file id="file-354"/>
						<sourcetrack>
							<mediatype>audio</mediatype>
							<trackindex>2</trackindex>
						</sourcetrack>
							<filter>
								<effect>
									<name>Audio Levels</name>
									<effectid>audiolevels</effectid>
									<effectcategory>audiolevels</effectcategory>
									<effecttype>audiolevels</effecttype>
									<mediatype>audio</mediatype>
									<parameter authoringApp="PremierePro">
										<parameterid>level</parameterid>
										<name>Level</name>
										<valuemin>0</valuemin>
										<valuemax>3.98109</valuemax>
										<value>0.200826</value>
									</parameter>
								</effect>
							</filter>
						<link>
							<linkclipref>clipitem-1417</linkclipref>
							<mediatype>audio</mediatype>
							<trackindex>7</trackindex>
							<clipindex>3</clipindex>
							<groupindex>1</groupindex>
						</link>
						<link>
							<linkclipref>clipitem-1421</linkclipref>
							<mediatype>audio</mediatype>
							<trackindex>8</trackindex>
							<clipindex>3</clipindex>
							<groupindex>1</groupindex>
						</link>
						<logginginfo>
							<description></description>
							<scene></scene>
							<shottake></shottake>
							<lognote></lognote>
						</logginginfo>
						<labels>
							<label2>Caribbean</label2>
						</labels>
					</clipitem>
					<transitionitem>
						<start>4892</start>
						<end>5016</end>
						<alignment>end-black</alignment>
						<cutPoint>124</cutPoint>
						<rate>
							<timebase>25</timebase>
							<ntsc>FALSE</ntsc>
						</rate>
						<effect>
							<name>Cross Fade (+3dB)</name>
							<effectid>KGAudioTransCrossFade3dB</effectid>
							<effecttype>transition</effecttype>
							<mediatype>audio</mediatype>
							<wipecode>0</wipecode>
							<wipeaccuracy>100</wipeaccuracy>
							<startratio>0</startratio>
							<endratio>1</endratio>
							<reverse>FALSE</reverse>
						</effect>
					</transitionitem>
					<clipitem id="clipitem-1422" frameBlend="FALSE" premiereChannelType="stereo">
						<masterclipid>masterclip-370</masterclipid>
						<name>AUXMP_SCDV031230_READING_THE_PAST_B.wav</name>
						<enabled>TRUE</enabled>
						<duration>2690</duration>
						<rate>
							<timebase>25</timebase>
							<ntsc>FALSE</ntsc>
						</rate>
						<start>6991</start>
						<end>-1</end>
						<in>0</in>
						<out>2195</out>
						<pproTicksIn>0</pproTicksIn>
						<pproTicksOut>22302604800000</pproTicksOut>
						<file id="file-355"/>
						<sourcetrack>
							<mediatype>audio</mediatype>
							<trackindex>2</trackindex>
						</sourcetrack>
							<filter>
								<effect>
									<name>Audio Levels</name>
									<effectid>audiolevels</effectid>
									<effectcategory>audiolevels</effectcategory>
									<effecttype>audiolevels</effecttype>
									<mediatype>audio</mediatype>
									<parameter authoringApp="PremierePro">
										<parameterid>level</parameterid>
										<name>Level</name>
										<valuemin>0</valuemin>
										<valuemax>3.98109</valuemax>
										<value>0.239537</value>
									</parameter>
								</effect>
							</filter>
						<link>
							<linkclipref>clipitem-1418</linkclipref>
							<mediatype>audio</mediatype>
							<trackindex>7</trackindex>
							<clipindex>5</clipindex>
							<groupindex>1</groupindex>
						</link>
						<link>
							<linkclipref>clipitem-1422</linkclipref>
							<mediatype>audio</mediatype>
							<trackindex>8</trackindex>
							<clipindex>5</clipindex>
							<groupindex>1</groupindex>
						</link>
						<logginginfo>
							<description></description>
							<scene></scene>
							<shottake></shottake>
							<lognote></lognote>
						</logginginfo>
						<labels>
							<label2>Cerulean</label2>
						</labels>
					</clipitem>
					<transitionitem>
						<start>9173</start>
						<end>9186</end>
						<alignment>end-black</alignment>
						<cutPoint>13</cutPoint>
						<rate>
							<timebase>25</timebase>
							<ntsc>FALSE</ntsc>
						</rate>
						<effect>
							<name>Cross Fade (+3dB)</name>
							<effectid>KGAudioTransCrossFade3dB</effectid>
							<effecttype>transition</effecttype>
							<mediatype>audio</mediatype>
							<wipecode>0</wipecode>
							<wipeaccuracy>100</wipeaccuracy>
							<startratio>0</startratio>
							<endratio>1</endratio>
							<reverse>FALSE</reverse>
						</effect>
					</transitionitem>
					<transitionitem>
						<start>14748</start>
						<end>14848</end>
						<alignment>start-black</alignment>
						<cutPoint>0</cutPoint>
						<rate>
							<timebase>25</timebase>
							<ntsc>FALSE</ntsc>
						</rate>
						<effect>
							<name>Cross Fade (+3dB)</name>
							<effectid>KGAudioTransCrossFade3dB</effectid>
							<effecttype>transition</effecttype>
							<mediatype>audio</mediatype>
							<wipecode>0</wipecode>
							<wipeaccuracy>100</wipeaccuracy>
							<startratio>0</startratio>
							<endratio>1</endratio>
							<reverse>FALSE</reverse>
						</effect>
					</transitionitem>
					<clipitem id="clipitem-1423" frameBlend="FALSE" premiereChannelType="stereo">
						<masterclipid>masterclip-368</masterclipid>
						<name>AUXMP_SCDV052430_ALL_SUCCEEDS_C.wav</name>
						<enabled>TRUE</enabled>
						<duration>4656</duration>
						<rate>
							<timebase>25</timebase>
							<ntsc>FALSE</ntsc>
						</rate>
						<start>-1</start>
						<end>-1</end>
						<in>3928</in>
						<out>4513</out>
						<pproTicksIn>39910993920000</pproTicksIn>
						<pproTicksOut>45854968320000</pproTicksOut>
						<file id="file-353"/>
						<sourcetrack>
							<mediatype>audio</mediatype>
							<trackindex>2</trackindex>
						</sourcetrack>
							<filter>
								<effect>
									<name>Audio Levels</name>
									<effectid>audiolevels</effectid>
									<effectcategory>audiolevels</effectcategory>
									<effecttype>audiolevels</effecttype>
									<mediatype>audio</mediatype>
									<parameter authoringApp="PremierePro">
										<parameterid>level</parameterid>
										<name>Level</name>
										<valuemin>0</valuemin>
										<valuemax>3.98109</valuemax>
										<value>0.0299744</value>
									</parameter>
								</effect>
							</filter>
							<marker>
								<comment></comment>
								<name></name>
								<in>40</in>
								<out>-1</out>
							</marker>
						<link>
							<linkclipref>clipitem-1419</linkclipref>
							<mediatype>audio</mediatype>
							<trackindex>7</trackindex>
							<clipindex>8</clipindex>
							<groupindex>1</groupindex>
						</link>
						<link>
							<linkclipref>clipitem-1423</linkclipref>
							<mediatype>audio</mediatype>
							<trackindex>8</trackindex>
							<clipindex>8</clipindex>
							<groupindex>1</groupindex>
						</link>
						<logginginfo>
							<description></description>
							<scene></scene>
							<shottake></shottake>
							<lognote></lognote>
						</logginginfo>
						<labels>
							<label2>Caribbean</label2>
						</labels>
					</clipitem>
					<transitionitem>
						<start>15320</start>
						<end>15333</end>
						<alignment>end-black</alignment>
						<cutPoint>13</cutPoint>
						<rate>
							<timebase>25</timebase>
							<ntsc>FALSE</ntsc>
						</rate>
						<effect>
							<name>Cross Fade (+3dB)</name>
							<effectid>KGAudioTransCrossFade3dB</effectid>
							<effecttype>transition</effecttype>
							<mediatype>audio</mediatype>
							<wipecode>0</wipecode>
							<wipeaccuracy>100</wipeaccuracy>
							<startratio>0</startratio>
							<endratio>1</endratio>
							<reverse>FALSE</reverse>
						</effect>
					</transitionitem>
					<enabled>TRUE</enabled>
					<locked>FALSE</locked>
					<outputchannelindex>2</outputchannelindex>
				</track>
				<track TL.SQTrackAudioKeyframeStyle="0" TL.SQTrackShy="0" TL.SQTrackExpandedHeight="58" TL.SQTrackExpanded="1" MZ.TrackTargeted="1" MZ.TrackName="Musikk 2 stereo" PannerCurrentValue="0.5" PannerIsInverted="true" PannerStartKeyframe="-91445760000000000,0.5,0,0,0,0,0,0" PannerName="Balance" currentExplodedTrackIndex="0" totalExplodedTrackCount="2" premiereTrackType="Stereo">
					<clipitem id="clipitem-1424" frameBlend="FALSE" premiereChannelType="stereo">
						<masterclipid>masterclip-371</masterclipid>
						<name>AUXMP_RSM014152_GO_AGENTS_GO.wav</name>
						<enabled>TRUE</enabled>
						<duration>440</duration>
						<rate>
							<timebase>25</timebase>
							<ntsc>FALSE</ntsc>
						</rate>
						<start>237</start>
						<end>587</end>
						<in>11</in>
						<out>361</out>
						<pproTicksIn>111767040000</pproTicksIn>
						<pproTicksOut>3667991040000</pproTicksOut>
						<file id="file-356">
							<name>AUXMP_RSM014152_GO_AGENTS_GO.wav</name>
							<pathurl>file://localhost/Volumes/Brakka/AdobeLager/Katta/Katta-16xxxx-Klimabloffen-Chris/03-Lyd/Musikk/AUXMP_RSM014152_GO_AGENTS_GO.wav</pathurl>
							<rate>
								<timebase>30</timebase>
								<ntsc>TRUE</ntsc>
							</rate>
							<duration>527</duration>
							<timecode>
								<rate>
									<timebase>30</timebase>
									<ntsc>TRUE</ntsc>
								</rate>
								<string>00;00;00;00</string>
								<frame>0</frame>
								<displayformat>DF</displayformat>
								<reel>
									<name></name>
								</reel>
							</timecode>
							<media>
								<audio>
									<samplecharacteristics>
										<depth>16</depth>
										<samplerate>44100</samplerate>
									</samplecharacteristics>
									<channelcount>2</channelcount>
								</audio>
							</media>
						</file>
						<sourcetrack>
							<mediatype>audio</mediatype>
							<trackindex>1</trackindex>
						</sourcetrack>
							<filter>
								<effect>
									<name>Audio Levels</name>
									<effectid>audiolevels</effectid>
									<effectcategory>audiolevels</effectcategory>
									<effecttype>audiolevels</effecttype>
									<mediatype>audio</mediatype>
									<parameter authoringApp="PremierePro">
										<parameterid>level</parameterid>
										<name>Level</name>
										<valuemin>0</valuemin>
										<valuemax>3.98109</valuemax>
										<value>0.17082</value>
									</parameter>
								</effect>
							</filter>
						<link>
							<linkclipref>clipitem-1424</linkclipref>
							<mediatype>audio</mediatype>
							<trackindex>9</trackindex>
							<clipindex>1</clipindex>
							<groupindex>1</groupindex>
						</link>
						<link>
							<linkclipref>clipitem-1429</linkclipref>
							<mediatype>audio</mediatype>
							<trackindex>10</trackindex>
							<clipindex>1</clipindex>
							<groupindex>1</groupindex>
						</link>
						<logginginfo>
							<description></description>
							<scene></scene>
							<shottake></shottake>
							<lognote></lognote>
						</logginginfo>
						<labels>
							<label2>Caribbean</label2>
						</labels>
					</clipitem>
					<clipitem id="clipitem-1425" frameBlend="FALSE" premiereChannelType="stereo">
						<masterclipid>masterclip-368</masterclipid>
						<name>AUXMP_SCDV052430_ALL_SUCCEEDS_C.wav</name>
						<enabled>TRUE</enabled>
						<duration>4656</duration>
						<rate>
							<timebase>25</timebase>
							<ntsc>FALSE</ntsc>
						</rate>
						<start>3008</start>
						<end>-1</end>
						<in>1026</in>
						<out>2120</out>
						<pproTicksIn>10424816640000</pproTicksIn>
						<pproTicksOut>21540556800000</pproTicksOut>
						<file id="file-353"/>
						<sourcetrack>
							<mediatype>audio</mediatype>
							<trackindex>1</trackindex>
						</sourcetrack>
							<filter>
								<effect>
									<name>Audio Levels</name>
									<effectid>audiolevels</effectid>
									<effectcategory>audiolevels</effectcategory>
									<effecttype>audiolevels</effecttype>
									<mediatype>audio</mediatype>
									<parameter authoringApp="PremierePro">
										<parameterid>level</parameterid>
										<name>Level</name>
										<valuemin>0</valuemin>
										<valuemax>3.98109</valuemax>
										<value>0.161183</value>
										<keyframe>
											<when>1022</when>
											<value>0.0605807</value>
										</keyframe>
										<keyframe>
											<when>1051</when>
											<value>0</value>
										</keyframe>
										<keyframe>
											<when>1262</when>
											<value>0</value>
										</keyframe>
										<keyframe>
											<when>1285</when>
											<value>0.161183</value>
										</keyframe>
										<keyframe>
											<when>1692</when>
											<value>0.161183</value>
										</keyframe>
										<keyframe>
											<when>1702</when>
											<value>0</value>
										</keyframe>
										<keyframe>
											<when>1876</when>
											<value>0</value>
										</keyframe>
										<keyframe>
											<when>1892</when>
											<value>0.161183</value>
										</keyframe>
									</parameter>
								</effect>
							</filter>
							<marker>
								<comment></comment>
								<name></name>
								<in>40</in>
								<out>-1</out>
							</marker>
						<link>
							<linkclipref>clipitem-1425</linkclipref>
							<mediatype>audio</mediatype>
							<trackindex>9</trackindex>
							<clipindex>2</clipindex>
							<groupindex>1</groupindex>
						</link>
						<link>
							<linkclipref>clipitem-1430</linkclipref>
							<mediatype>audio</mediatype>
							<trackindex>10</trackindex>
							<clipindex>2</clipindex>
							<groupindex>1</groupindex>
						</link>
						<logginginfo>
							<description></description>
							<scene></scene>
							<shottake></shottake>
							<lognote></lognote>
						</logginginfo>
						<labels>
							<label2>Caribbean</label2>
						</labels>
					</clipitem>
					<transitionitem>
						<start>4012</start>
						<end>4102</end>
						<alignment>end-black</alignment>
						<cutPoint>90</cutPoint>
						<rate>
							<timebase>25</timebase>
							<ntsc>FALSE</ntsc>
						</rate>
						<effect>
							<name>Cross Fade (+3dB)</name>
							<effectid>KGAudioTransCrossFade3dB</effectid>
							<effecttype>transition</effecttype>
							<mediatype>audio</mediatype>
							<wipecode>0</wipecode>
							<wipeaccuracy>100</wipeaccuracy>
							<startratio>0</startratio>
							<endratio>1</endratio>
							<reverse>FALSE</reverse>
						</effect>
					</transitionitem>
					<clipitem id="clipitem-1426" frameBlend="FALSE" premiereChannelType="stereo">
						<masterclipid>masterclip-372</masterclipid>
						<name>AUXMP_RSM016315_POINTS_UNKNOWN.wav</name>
						<enabled>TRUE</enabled>
						<duration>3405</duration>
						<rate>
							<timebase>25</timebase>
							<ntsc>FALSE</ntsc>
						</rate>
						<start>9162</start>
						<end>-1</end>
						<in>5</in>
						<out>369</out>
						<pproTicksIn>50803200000</pproTicksIn>
						<pproTicksOut>3749276160000</pproTicksOut>
						<file id="file-357">
							<name>AUXMP_RSM016315_POINTS_UNKNOWN.wav</name>
							<pathurl>file://localhost/Volumes/Brakka/AdobeLager/Katta/Katta-16xxxx-Klimabloffen-Chris/03-Lyd/Musikk/AUXMP_RSM016315_POINTS_UNKNOWN.wav</pathurl>
							<rate>
								<timebase>30</timebase>
								<ntsc>TRUE</ntsc>
							</rate>
							<duration>4081</duration>
							<timecode>
								<rate>
									<timebase>30</timebase>
									<ntsc>TRUE</ntsc>
								</rate>
								<string>00;00;00;00</string>
								<frame>0</frame>
								<displayformat>DF</displayformat>
								<reel>
									<name></name>
								</reel>
							</timecode>
							<media>
								<audio>
									<samplecharacteristics>
										<depth>16</depth>
										<samplerate>48000</samplerate>
									</samplecharacteristics>
									<channelcount>2</channelcount>
								</audio>
							</media>
						</file>
						<sourcetrack>
							<mediatype>audio</mediatype>
							<trackindex>1</trackindex>
						</sourcetrack>
							<filter>
								<effect>
									<name>Audio Levels</name>
									<effectid>audiolevels</effectid>
									<effectcategory>audiolevels</effectcategory>
									<effecttype>audiolevels</effecttype>
									<mediatype>audio</mediatype>
									<parameter authoringApp="PremierePro">
										<parameterid>level</parameterid>
										<name>Level</name>
										<valuemin>0</valuemin>
										<valuemax>3.98109</valuemax>
										<value>0.219829</value>
									</parameter>
								</effect>
							</filter>
						<link>
							<linkclipref>clipitem-1426</linkclipref>
							<mediatype>audio</mediatype>
							<trackindex>9</trackindex>
							<clipindex>4</clipindex>
							<groupindex>1</groupindex>
						</link>
						<link>
							<linkclipref>clipitem-1431</linkclipref>
							<mediatype>audio</mediatype>
							<trackindex>10</trackindex>
							<clipindex>4</clipindex>
							<groupindex>1</groupindex>
						</link>
						<logginginfo>
							<description></description>
							<scene></scene>
							<shottake></shottake>
							<lognote>Chilling and lonely</lognote>
						</logginginfo>
						<labels>
							<label2>Cerulean</label2>
						</labels>
					</clipitem>
					<transitionitem>
						<start>9404</start>
						<end>9526</end>
						<alignment>end-black</alignment>
						<cutPoint>122</cutPoint>
						<rate>
							<timebase>25</timebase>
							<ntsc>FALSE</ntsc>
						</rate>
						<effect>
							<name>Cross Fade (+3dB)</name>
							<effectid>KGAudioTransCrossFade3dB</effectid>
							<effecttype>transition</effecttype>
							<mediatype>audio</mediatype>
							<wipecode>0</wipecode>
							<wipeaccuracy>100</wipeaccuracy>
							<startratio>0</startratio>
							<endratio>1</endratio>
							<reverse>FALSE</reverse>
						</effect>
					</transitionitem>
					<clipitem id="clipitem-1427" frameBlend="FALSE" premiereChannelType="stereo">
						<masterclipid>masterclip-372</masterclipid>
						<name>AUXMP_RSM016315_POINTS_UNKNOWN.wav</name>
						<enabled>TRUE</enabled>
						<duration>3405</duration>
						<rate>
							<timebase>25</timebase>
							<ntsc>FALSE</ntsc>
						</rate>
						<start>9964</start>
						<end>-1</end>
						<in>5</in>
						<out>604</out>
						<pproTicksIn>50803200000</pproTicksIn>
						<pproTicksOut>6137026560000</pproTicksOut>
						<file id="file-357"/>
						<sourcetrack>
							<mediatype>audio</mediatype>
							<trackindex>1</trackindex>
						</sourcetrack>
							<filter>
								<effect>
									<name>Audio Levels</name>
									<effectid>audiolevels</effectid>
									<effectcategory>audiolevels</effectcategory>
									<effecttype>audiolevels</effecttype>
									<mediatype>audio</mediatype>
									<parameter authoringApp="PremierePro">
										<parameterid>level</parameterid>
										<name>Level</name>
										<valuemin>0</valuemin>
										<valuemax>3.98109</valuemax>
										<value>0.219829</value>
									</parameter>
								</effect>
							</filter>
						<link>
							<linkclipref>clipitem-1427</linkclipref>
							<mediatype>audio</mediatype>
							<trackindex>9</trackindex>
							<clipindex>6</clipindex>
							<groupindex>1</groupindex>
						</link>
						<link>
							<linkclipref>clipitem-1432</linkclipref>
							<mediatype>audio</mediatype>
							<trackindex>10</trackindex>
							<clipindex>6</clipindex>
							<groupindex>1</groupindex>
						</link>
						<logginginfo>
							<description></description>
							<scene></scene>
							<shottake></shottake>
							<lognote>Chilling and lonely</lognote>
						</logginginfo>
						<labels>
							<label2>Cerulean</label2>
						</labels>
					</clipitem>
					<transitionitem>
						<start>10445</start>
						<end>10563</end>
						<alignment>end-black</alignment>
						<cutPoint>118</cutPoint>
						<rate>
							<timebase>25</timebase>
							<ntsc>FALSE</ntsc>
						</rate>
						<effect>
							<name>Cross Fade (+3dB)</name>
							<effectid>KGAudioTransCrossFade3dB</effectid>
							<effecttype>transition</effecttype>
							<mediatype>audio</mediatype>
							<wipecode>0</wipecode>
							<wipeaccuracy>100</wipeaccuracy>
							<startratio>0</startratio>
							<endratio>1</endratio>
							<reverse>FALSE</reverse>
						</effect>
					</transitionitem>
					<clipitem id="clipitem-1428" frameBlend="FALSE" premiereChannelType="stereo">
						<masterclipid>masterclip-372</masterclipid>
						<name>AUXMP_RSM016315_POINTS_UNKNOWN.wav</name>
						<enabled>TRUE</enabled>
						<duration>3405</duration>
						<rate>
							<timebase>25</timebase>
							<ntsc>FALSE</ntsc>
						</rate>
						<start>10982</start>
						<end>-1</end>
						<in>798</in>
						<out>1477</out>
						<pproTicksIn>8108190720000</pproTicksIn>
						<pproTicksOut>15007265280000</pproTicksOut>
						<file id="file-357"/>
						<sourcetrack>
							<mediatype>audio</mediatype>
							<trackindex>1</trackindex>
						</sourcetrack>
							<filter>
								<effect>
									<name>Audio Levels</name>
									<effectid>audiolevels</effectid>
									<effectcategory>audiolevels</effectcategory>
									<effecttype>audiolevels</effecttype>
									<mediatype>audio</mediatype>
									<parameter authoringApp="PremierePro">
										<parameterid>level</parameterid>
										<name>Level</name>
										<valuemin>0</valuemin>
										<valuemax>3.98109</valuemax>
										<value>0.239795</value>
									</parameter>
								</effect>
							</filter>
						<link>
							<linkclipref>clipitem-1428</linkclipref>
							<mediatype>audio</mediatype>
							<trackindex>9</trackindex>
							<clipindex>8</clipindex>
							<groupindex>1</groupindex>
						</link>
						<link>
							<linkclipref>clipitem-1433</linkclipref>
							<mediatype>audio</mediatype>
							<trackindex>10</trackindex>
							<clipindex>8</clipindex>
							<groupindex>1</groupindex>
						</link>
						<logginginfo>
							<description></description>
							<scene></scene>
							<shottake></shottake>
							<lognote>Chilling and lonely</lognote>
						</logginginfo>
						<labels>
							<label2>Cerulean</label2>
						</labels>
					</clipitem>
					<transitionitem>
						<start>11319</start>
						<end>11661</end>
						<alignment>end-black</alignment>
						<cutPoint>342</cutPoint>
						<rate>
							<timebase>25</timebase>
							<ntsc>FALSE</ntsc>
						</rate>
						<effect>
							<name>Cross Fade (+3dB)</name>
							<effectid>KGAudioTransCrossFade3dB</effectid>
							<effecttype>transition</effecttype>
							<mediatype>audio</mediatype>
							<wipecode>0</wipecode>
							<wipeaccuracy>100</wipeaccuracy>
							<startratio>0</startratio>
							<endratio>1</endratio>
							<reverse>FALSE</reverse>
						</effect>
					</transitionitem>
					<enabled>TRUE</enabled>
					<locked>FALSE</locked>
					<outputchannelindex>1</outputchannelindex>
				</track>
				<track TL.SQTrackAudioKeyframeStyle="0" TL.SQTrackShy="0" TL.SQTrackExpandedHeight="58" TL.SQTrackExpanded="1" MZ.TrackTargeted="1" MZ.TrackName="Musikk 2 stereo" PannerCurrentValue="0.5" PannerIsInverted="true" PannerStartKeyframe="-91445760000000000,0.5,0,0,0,0,0,0" PannerName="Balance" currentExplodedTrackIndex="1" totalExplodedTrackCount="2" premiereTrackType="Stereo">
					<clipitem id="clipitem-1429" frameBlend="FALSE" premiereChannelType="stereo">
						<masterclipid>masterclip-371</masterclipid>
						<name>AUXMP_RSM014152_GO_AGENTS_GO.wav</name>
						<enabled>TRUE</enabled>
						<duration>440</duration>
						<rate>
							<timebase>25</timebase>
							<ntsc>FALSE</ntsc>
						</rate>
						<start>237</start>
						<end>587</end>
						<in>11</in>
						<out>361</out>
						<pproTicksIn>111767040000</pproTicksIn>
						<pproTicksOut>3667991040000</pproTicksOut>
						<file id="file-356"/>
						<sourcetrack>
							<mediatype>audio</mediatype>
							<trackindex>2</trackindex>
						</sourcetrack>
							<filter>
								<effect>
									<name>Audio Levels</name>
									<effectid>audiolevels</effectid>
									<effectcategory>audiolevels</effectcategory>
									<effecttype>audiolevels</effecttype>
									<mediatype>audio</mediatype>
									<parameter authoringApp="PremierePro">
										<parameterid>level</parameterid>
										<name>Level</name>
										<valuemin>0</valuemin>
										<valuemax>3.98109</valuemax>
										<value>0.17082</value>
									</parameter>
								</effect>
							</filter>
						<link>
							<linkclipref>clipitem-1424</linkclipref>
							<mediatype>audio</mediatype>
							<trackindex>9</trackindex>
							<clipindex>1</clipindex>
							<groupindex>1</groupindex>
						</link>
						<link>
							<linkclipref>clipitem-1429</linkclipref>
							<mediatype>audio</mediatype>
							<trackindex>10</trackindex>
							<clipindex>1</clipindex>
							<groupindex>1</groupindex>
						</link>
						<logginginfo>
							<description></description>
							<scene></scene>
							<shottake></shottake>
							<lognote></lognote>
						</logginginfo>
						<labels>
							<label2>Caribbean</label2>
						</labels>
					</clipitem>
					<clipitem id="clipitem-1430" frameBlend="FALSE" premiereChannelType="stereo">
						<masterclipid>masterclip-368</masterclipid>
						<name>AUXMP_SCDV052430_ALL_SUCCEEDS_C.wav</name>
						<enabled>TRUE</enabled>
						<duration>4656</duration>
						<rate>
							<timebase>25</timebase>
							<ntsc>FALSE</ntsc>
						</rate>
						<start>3008</start>
						<end>-1</end>
						<in>1026</in>
						<out>2120</out>
						<pproTicksIn>10424816640000</pproTicksIn>
						<pproTicksOut>21540556800000</pproTicksOut>
						<file id="file-353"/>
						<sourcetrack>
							<mediatype>audio</mediatype>
							<trackindex>2</trackindex>
						</sourcetrack>
							<filter>
								<effect>
									<name>Audio Levels</name>
									<effectid>audiolevels</effectid>
									<effectcategory>audiolevels</effectcategory>
									<effecttype>audiolevels</effecttype>
									<mediatype>audio</mediatype>
									<parameter authoringApp="PremierePro">
										<parameterid>level</parameterid>
										<name>Level</name>
										<valuemin>0</valuemin>
										<valuemax>3.98109</valuemax>
										<value>0.161183</value>
										<keyframe>
											<when>1022</when>
											<value>0.0605807</value>
										</keyframe>
										<keyframe>
											<when>1051</when>
											<value>0</value>
										</keyframe>
										<keyframe>
											<when>1262</when>
											<value>0</value>
										</keyframe>
										<keyframe>
											<when>1285</when>
											<value>0.161183</value>
										</keyframe>
										<keyframe>
											<when>1692</when>
											<value>0.161183</value>
										</keyframe>
										<keyframe>
											<when>1702</when>
											<value>0</value>
										</keyframe>
										<keyframe>
											<when>1876</when>
											<value>0</value>
										</keyframe>
										<keyframe>
											<when>1892</when>
											<value>0.161183</value>
										</keyframe>
									</parameter>
								</effect>
							</filter>
							<marker>
								<comment></comment>
								<name></name>
								<in>40</in>
								<out>-1</out>
							</marker>
						<link>
							<linkclipref>clipitem-1425</linkclipref>
							<mediatype>audio</mediatype>
							<trackindex>9</trackindex>
							<clipindex>2</clipindex>
							<groupindex>1</groupindex>
						</link>
						<link>
							<linkclipref>clipitem-1430</linkclipref>
							<mediatype>audio</mediatype>
							<trackindex>10</trackindex>
							<clipindex>2</clipindex>
							<groupindex>1</groupindex>
						</link>
						<logginginfo>
							<description></description>
							<scene></scene>
							<shottake></shottake>
							<lognote></lognote>
						</logginginfo>
						<labels>
							<label2>Caribbean</label2>
						</labels>
					</clipitem>
					<transitionitem>
						<start>4012</start>
						<end>4102</end>
						<alignment>end-black</alignment>
						<cutPoint>90</cutPoint>
						<rate>
							<timebase>25</timebase>
							<ntsc>FALSE</ntsc>
						</rate>
						<effect>
							<name>Cross Fade (+3dB)</name>
							<effectid>KGAudioTransCrossFade3dB</effectid>
							<effecttype>transition</effecttype>
							<mediatype>audio</mediatype>
							<wipecode>0</wipecode>
							<wipeaccuracy>100</wipeaccuracy>
							<startratio>0</startratio>
							<endratio>1</endratio>
							<reverse>FALSE</reverse>
						</effect>
					</transitionitem>
					<clipitem id="clipitem-1431" frameBlend="FALSE" premiereChannelType="stereo">
						<masterclipid>masterclip-372</masterclipid>
						<name>AUXMP_RSM016315_POINTS_UNKNOWN.wav</name>
						<enabled>TRUE</enabled>
						<duration>3405</duration>
						<rate>
							<timebase>25</timebase>
							<ntsc>FALSE</ntsc>
						</rate>
						<start>9162</start>
						<end>-1</end>
						<in>5</in>
						<out>369</out>
						<pproTicksIn>50803200000</pproTicksIn>
						<pproTicksOut>3749276160000</pproTicksOut>
						<file id="file-357"/>
						<sourcetrack>
							<mediatype>audio</mediatype>
							<trackindex>2</trackindex>
						</sourcetrack>
							<filter>
								<effect>
									<name>Audio Levels</name>
									<effectid>audiolevels</effectid>
									<effectcategory>audiolevels</effectcategory>
									<effecttype>audiolevels</effecttype>
									<mediatype>audio</mediatype>
									<parameter authoringApp="PremierePro">
										<parameterid>level</parameterid>
										<name>Level</name>
										<valuemin>0</valuemin>
										<valuemax>3.98109</valuemax>
										<value>0.219829</value>
									</parameter>
								</effect>
							</filter>
						<link>
							<linkclipref>clipitem-1426</linkclipref>
							<mediatype>audio</mediatype>
							<trackindex>9</trackindex>
							<clipindex>4</clipindex>
							<groupindex>1</groupindex>
						</link>
						<link>
							<linkclipref>clipitem-1431</linkclipref>
							<mediatype>audio</mediatype>
							<trackindex>10</trackindex>
							<clipindex>4</clipindex>
							<groupindex>1</groupindex>
						</link>
						<logginginfo>
							<description></description>
							<scene></scene>
							<shottake></shottake>
							<lognote>Chilling and lonely</lognote>
						</logginginfo>
						<labels>
							<label2>Cerulean</label2>
						</labels>
					</clipitem>
					<transitionitem>
						<start>9404</start>
						<end>9526</end>
						<alignment>end-black</alignment>
						<cutPoint>122</cutPoint>
						<rate>
							<timebase>25</timebase>
							<ntsc>FALSE</ntsc>
						</rate>
						<effect>
							<name>Cross Fade (+3dB)</name>
							<effectid>KGAudioTransCrossFade3dB</effectid>
							<effecttype>transition</effecttype>
							<mediatype>audio</mediatype>
							<wipecode>0</wipecode>
							<wipeaccuracy>100</wipeaccuracy>
							<startratio>0</startratio>
							<endratio>1</endratio>
							<reverse>FALSE</reverse>
						</effect>
					</transitionitem>
					<clipitem id="clipitem-1432" frameBlend="FALSE" premiereChannelType="stereo">
						<masterclipid>masterclip-372</masterclipid>
						<name>AUXMP_RSM016315_POINTS_UNKNOWN.wav</name>
						<enabled>TRUE</enabled>
						<duration>3405</duration>
						<rate>
							<timebase>25</timebase>
							<ntsc>FALSE</ntsc>
						</rate>
						<start>9964</start>
						<end>-1</end>
						<in>5</in>
						<out>604</out>
						<pproTicksIn>50803200000</pproTicksIn>
						<pproTicksOut>6137026560000</pproTicksOut>
						<file id="file-357"/>
						<sourcetrack>
							<mediatype>audio</mediatype>
							<trackindex>2</trackindex>
						</sourcetrack>
							<filter>
								<effect>
									<name>Audio Levels</name>
									<effectid>audiolevels</effectid>
									<effectcategory>audiolevels</effectcategory>
									<effecttype>audiolevels</effecttype>
									<mediatype>audio</mediatype>
									<parameter authoringApp="PremierePro">
										<parameterid>level</parameterid>
										<name>Level</name>
										<valuemin>0</valuemin>
										<valuemax>3.98109</valuemax>
										<value>0.219829</value>
									</parameter>
								</effect>
							</filter>
						<link>
							<linkclipref>clipitem-1427</linkclipref>
							<mediatype>audio</mediatype>
							<trackindex>9</trackindex>
							<clipindex>6</clipindex>
							<groupindex>1</groupindex>
						</link>
						<link>
							<linkclipref>clipitem-1432</linkclipref>
							<mediatype>audio</mediatype>
							<trackindex>10</trackindex>
							<clipindex>6</clipindex>
							<groupindex>1</groupindex>
						</link>
						<logginginfo>
							<description></description>
							<scene></scene>
							<shottake></shottake>
							<lognote>Chilling and lonely</lognote>
						</logginginfo>
						<labels>
							<label2>Cerulean</label2>
						</labels>
					</clipitem>
					<transitionitem>
						<start>10445</start>
						<end>10563</end>
						<alignment>end-black</alignment>
						<cutPoint>118</cutPoint>
						<rate>
							<timebase>25</timebase>
							<ntsc>FALSE</ntsc>
						</rate>
						<effect>
							<name>Cross Fade (+3dB)</name>
							<effectid>KGAudioTransCrossFade3dB</effectid>
							<effecttype>transition</effecttype>
							<mediatype>audio</mediatype>
							<wipecode>0</wipecode>
							<wipeaccuracy>100</wipeaccuracy>
							<startratio>0</startratio>
							<endratio>1</endratio>
							<reverse>FALSE</reverse>
						</effect>
					</transitionitem>
					<clipitem id="clipitem-1433" frameBlend="FALSE" premiereChannelType="stereo">
						<masterclipid>masterclip-372</masterclipid>
						<name>AUXMP_RSM016315_POINTS_UNKNOWN.wav</name>
						<enabled>TRUE</enabled>
						<duration>3405</duration>
						<rate>
							<timebase>25</timebase>
							<ntsc>FALSE</ntsc>
						</rate>
						<start>10982</start>
						<end>-1</end>
						<in>798</in>
						<out>1477</out>
						<pproTicksIn>8108190720000</pproTicksIn>
						<pproTicksOut>15007265280000</pproTicksOut>
						<file id="file-357"/>
						<sourcetrack>
							<mediatype>audio</mediatype>
							<trackindex>2</trackindex>
						</sourcetrack>
							<filter>
								<effect>
									<name>Audio Levels</name>
									<effectid>audiolevels</effectid>
									<effectcategory>audiolevels</effectcategory>
									<effecttype>audiolevels</effecttype>
									<mediatype>audio</mediatype>
									<parameter authoringApp="PremierePro">
										<parameterid>level</parameterid>
										<name>Level</name>
										<valuemin>0</valuemin>
										<valuemax>3.98109</valuemax>
										<value>0.239795</value>
									</parameter>
								</effect>
							</filter>
						<link>
							<linkclipref>clipitem-1428</linkclipref>
							<mediatype>audio</mediatype>
							<trackindex>9</trackindex>
							<clipindex>8</clipindex>
							<groupindex>1</groupindex>
						</link>
						<link>
							<linkclipref>clipitem-1433</linkclipref>
							<mediatype>audio</mediatype>
							<trackindex>10</trackindex>
							<clipindex>8</clipindex>
							<groupindex>1</groupindex>
						</link>
						<logginginfo>
							<description></description>
							<scene></scene>
							<shottake></shottake>
							<lognote>Chilling and lonely</lognote>
						</logginginfo>
						<labels>
							<label2>Cerulean</label2>
						</labels>
					</clipitem>
					<transitionitem>
						<start>11319</start>
						<end>11661</end>
						<alignment>end-black</alignment>
						<cutPoint>342</cutPoint>
						<rate>
							<timebase>25</timebase>
							<ntsc>FALSE</ntsc>
						</rate>
						<effect>
							<name>Cross Fade (+3dB)</name>
							<effectid>KGAudioTransCrossFade3dB</effectid>
							<effecttype>transition</effecttype>
							<mediatype>audio</mediatype>
							<wipecode>0</wipecode>
							<wipeaccuracy>100</wipeaccuracy>
							<startratio>0</startratio>
							<endratio>1</endratio>
							<reverse>FALSE</reverse>
						</effect>
					</transitionitem>
					<enabled>TRUE</enabled>
					<locked>FALSE</locked>
					<outputchannelindex>2</outputchannelindex>
				</track>
				<track TL.SQTrackAudioKeyframeStyle="0" TL.SQTrackShy="0" TL.SQTrackExpandedHeight="58" TL.SQTrackExpanded="1" MZ.TrackTargeted="1" MZ.TrackName="Vignett stereo" PannerCurrentValue="0.5" PannerIsInverted="true" PannerStartKeyframe="-91445760000000000,0.5,0,0,0,0,0,0" PannerName="Balance" currentExplodedTrackIndex="0" totalExplodedTrackCount="2" premiereTrackType="Stereo">
					<enabled>TRUE</enabled>
					<locked>FALSE</locked>
					<outputchannelindex>1</outputchannelindex>
				</track>
				<track TL.SQTrackAudioKeyframeStyle="0" TL.SQTrackShy="0" TL.SQTrackExpandedHeight="58" TL.SQTrackExpanded="1" MZ.TrackTargeted="1" MZ.TrackName="Vignett stereo" PannerCurrentValue="0.5" PannerIsInverted="true" PannerStartKeyframe="-91445760000000000,0.5,0,0,0,0,0,0" PannerName="Balance" currentExplodedTrackIndex="1" totalExplodedTrackCount="2" premiereTrackType="Stereo">
					<enabled>TRUE</enabled>
					<locked>FALSE</locked>
					<outputchannelindex>2</outputchannelindex>
				</track>
				<track monotrack="TRUE" TL.SQTrackAudioKeyframeStyle="0" TL.SQTrackShy="0" TL.SQTrackExpandedHeight="58" TL.SQTrackExpanded="1" MZ.TrackTargeted="1" MZ.TrackName="Kom mono" PannerCurrentValue="0.5" PannerIsInverted="true" PannerStartKeyframe="-91445760000000000,0.5,0,0,0,0,0,0" PannerName="Pan" currentExplodedTrackIndex="0" totalExplodedTrackCount="1" premiereTrackType="Mono">
					<clipitem id="clipitem-1434" frameBlend="FALSE" premiereChannelType="mono">
						<masterclipid>masterclip-373</masterclipid>
						<name>Kom mono_866.wav</name>
						<enabled>TRUE</enabled>
						<duration>326</duration>
						<rate>
							<timebase>25</timebase>
							<ntsc>FALSE</ntsc>
						</rate>
						<start>1322</start>
						<end>1646</end>
						<in>2</in>
						<out>327</out>
						<pproTicksIn>20321280000</pproTicksIn>
						<pproTicksOut>3322529280000</pproTicksOut>
						<file id="file-358">
							<name>Kom mono_866.wav</name>
							<pathurl>file://localhost/Volumes/Brakka/AdobeLager/DefaultCaptureScratch/Kom%20mono_866.wav</pathurl>
							<rate>
								<timebase>30</timebase>
								<ntsc>TRUE</ntsc>
							</rate>
							<duration>391</duration>
							<timecode>
								<rate>
									<timebase>30</timebase>
									<ntsc>TRUE</ntsc>
								</rate>
								<string>00;00;00;00</string>
								<frame>0</frame>
								<displayformat>DF</displayformat>
								<reel>
									<name></name>
								</reel>
							</timecode>
							<media>
								<audio>
									<samplecharacteristics>
										<depth>16</depth>
										<samplerate>48000</samplerate>
									</samplecharacteristics>
									<channelcount>1</channelcount>
									<layout>mono</layout>
									<audiochannel>
										<sourcechannel>1</sourcechannel>
										<channellabel>discrete</channellabel>
									</audiochannel>
								</audio>
							</media>
						</file>
						<sourcetrack>
							<mediatype>audio</mediatype>
							<trackindex>1</trackindex>
						</sourcetrack>
							<filter>
								<effect>
									<name>Gain</name>
									<effectid>{61756678, 4761696e, 4b657947}</effectid>
									<effecttype>filter</effecttype>
									<mediatype>audio</mediatype>
									<parameter authoringApp="PremierePro">
										<parameterid>Gain(dB)</parameterid>
										<name>Gain(dB)</name>
										<valuemin>-96</valuemin>
										<valuemax>96</valuemax>
										<value>13.3822</value>
									</parameter>
								</effect>
							</filter>
						<logginginfo>
							<description></description>
							<scene></scene>
							<shottake></shottake>
							<lognote></lognote>
						</logginginfo>
						<labels>
							<label2>Caribbean</label2>
						</labels>
					</clipitem>
					<clipitem id="clipitem-1435" frameBlend="FALSE" premiereChannelType="mono">
						<masterclipid>masterclip-374</masterclipid>
						<name>Kom mono_867.wav</name>
						<enabled>TRUE</enabled>
						<duration>1097</duration>
						<rate>
							<timebase>25</timebase>
							<ntsc>FALSE</ntsc>
						</rate>
						<start>3192</start>
						<end>3528</end>
						<in>2</in>
						<out>338</out>
						<pproTicksIn>20321280000</pproTicksIn>
						<pproTicksOut>3434296320000</pproTicksOut>
						<file id="file-359">
							<name>Kom mono_867.wav</name>
							<pathurl>file://localhost/Volumes/Brakka/AdobeLager/DefaultCaptureScratch/Kom%20mono_867.wav</pathurl>
							<rate>
								<timebase>30</timebase>
								<ntsc>TRUE</ntsc>
							</rate>
							<duration>1315</duration>
							<timecode>
								<rate>
									<timebase>30</timebase>
									<ntsc>TRUE</ntsc>
								</rate>
								<string>00;00;00;00</string>
								<frame>0</frame>
								<displayformat>DF</displayformat>
								<reel>
									<name></name>
								</reel>
							</timecode>
							<media>
								<audio>
									<samplecharacteristics>
										<depth>16</depth>
										<samplerate>48000</samplerate>
									</samplecharacteristics>
									<channelcount>1</channelcount>
									<layout>mono</layout>
									<audiochannel>
										<sourcechannel>1</sourcechannel>
										<channellabel>discrete</channellabel>
									</audiochannel>
								</audio>
							</media>
						</file>
						<sourcetrack>
							<mediatype>audio</mediatype>
							<trackindex>1</trackindex>
						</sourcetrack>
							<filter>
								<effect>
									<name>Gain</name>
									<effectid>{61756678, 4761696e, 4b657947}</effectid>
									<effecttype>filter</effecttype>
									<mediatype>audio</mediatype>
									<parameter authoringApp="PremierePro">
										<parameterid>Gain(dB)</parameterid>
										<name>Gain(dB)</name>
										<valuemin>-96</valuemin>
										<valuemax>96</valuemax>
										<value>13.3822</value>
									</parameter>
								</effect>
							</filter>
						<logginginfo>
							<description></description>
							<scene></scene>
							<shottake></shottake>
							<lognote></lognote>
						</logginginfo>
						<labels>
							<label2>Caribbean</label2>
						</labels>
					</clipitem>
					<clipitem id="clipitem-1436" frameBlend="FALSE" premiereChannelType="mono">
						<masterclipid>masterclip-374</masterclipid>
						<name>Kom mono_867.wav</name>
						<enabled>TRUE</enabled>
						<duration>1097</duration>
						<rate>
							<timebase>25</timebase>
							<ntsc>FALSE</ntsc>
						</rate>
						<start>3540</start>
						<end>3708</end>
						<in>357</in>
						<out>525</out>
						<pproTicksIn>3627348480000</pproTicksIn>
						<pproTicksOut>5334336000000</pproTicksOut>
						<file id="file-359"/>
						<sourcetrack>
							<mediatype>audio</mediatype>
							<trackindex>1</trackindex>
						</sourcetrack>
							<filter>
								<effect>
									<name>Gain</name>
									<effectid>{61756678, 4761696e, 4b657947}</effectid>
									<effecttype>filter</effecttype>
									<mediatype>audio</mediatype>
									<parameter authoringApp="PremierePro">
										<parameterid>Gain(dB)</parameterid>
										<name>Gain(dB)</name>
										<valuemin>-96</valuemin>
										<valuemax>96</valuemax>
										<value>13.3822</value>
									</parameter>
								</effect>
							</filter>
							<filter>
								<effect>
									<name>Audio Levels</name>
									<effectid>audiolevels</effectid>
									<effectcategory>audiolevels</effectcategory>
									<effecttype>audiolevels</effecttype>
									<mediatype>audio</mediatype>
									<parameter authoringApp="PremierePro">
										<parameterid>level</parameterid>
										<name>Level</name>
										<valuemin>0</valuemin>
										<valuemax>3.98109</valuemax>
										<value>0.889139</value>
									</parameter>
								</effect>
							</filter>
						<logginginfo>
							<description></description>
							<scene></scene>
							<shottake></shottake>
							<lognote></lognote>
						</logginginfo>
						<labels>
							<label2>Caribbean</label2>
						</labels>
					</clipitem>
					<clipitem id="clipitem-1437" frameBlend="FALSE" premiereChannelType="mono">
						<masterclipid>masterclip-374</masterclipid>
						<name>Kom mono_867.wav</name>
						<enabled>TRUE</enabled>
						<duration>1097</duration>
						<rate>
							<timebase>25</timebase>
							<ntsc>FALSE</ntsc>
						</rate>
						<start>3723</start>
						<end>3992</end>
						<in>525</in>
						<out>794</out>
						<pproTicksIn>5334336000000</pproTicksIn>
						<pproTicksOut>8067548160000</pproTicksOut>
						<file id="file-359"/>
						<sourcetrack>
							<mediatype>audio</mediatype>
							<trackindex>1</trackindex>
						</sourcetrack>
							<filter>
								<effect>
									<name>Gain</name>
									<effectid>{61756678, 4761696e, 4b657947}</effectid>
									<effecttype>filter</effecttype>
									<mediatype>audio</mediatype>
									<parameter authoringApp="PremierePro">
										<parameterid>Gain(dB)</parameterid>
										<name>Gain(dB)</name>
										<valuemin>-96</valuemin>
										<valuemax>96</valuemax>
										<value>13.3822</value>
									</parameter>
								</effect>
							</filter>
						<logginginfo>
							<description></description>
							<scene></scene>
							<shottake></shottake>
							<lognote></lognote>
						</logginginfo>
						<labels>
							<label2>Caribbean</label2>
						</labels>
					</clipitem>
					<clipitem id="clipitem-1438" frameBlend="FALSE" premiereChannelType="mono">
						<masterclipid>masterclip-375</masterclipid>
						<name>Kom mono_868.wav</name>
						<enabled>TRUE</enabled>
						<duration>595</duration>
						<rate>
							<timebase>25</timebase>
							<ntsc>FALSE</ntsc>
						</rate>
						<start>4557</start>
						<end>4877</end>
						<in>81</in>
						<out>401</out>
						<pproTicksIn>823011840000</pproTicksIn>
						<pproTicksOut>4074416640000</pproTicksOut>
						<file id="file-360">
							<name>Kom mono_868.wav</name>
							<pathurl>file://localhost/Volumes/Brakka/AdobeLager/DefaultCaptureScratch/Kom%20mono_868.wav</pathurl>
							<rate>
								<timebase>30</timebase>
								<ntsc>TRUE</ntsc>
							</rate>
							<duration>713</duration>
							<timecode>
								<rate>
									<timebase>30</timebase>
									<ntsc>TRUE</ntsc>
								</rate>
								<string>00;00;00;00</string>
								<frame>0</frame>
								<displayformat>DF</displayformat>
								<reel>
									<name></name>
								</reel>
							</timecode>
							<media>
								<audio>
									<samplecharacteristics>
										<depth>16</depth>
										<samplerate>48000</samplerate>
									</samplecharacteristics>
									<channelcount>1</channelcount>
									<layout>mono</layout>
									<audiochannel>
										<sourcechannel>1</sourcechannel>
										<channellabel>discrete</channellabel>
									</audiochannel>
								</audio>
							</media>
						</file>
						<sourcetrack>
							<mediatype>audio</mediatype>
							<trackindex>1</trackindex>
						</sourcetrack>
							<filter>
								<effect>
									<name>Gain</name>
									<effectid>{61756678, 4761696e, 4b657947}</effectid>
									<effecttype>filter</effecttype>
									<mediatype>audio</mediatype>
									<parameter authoringApp="PremierePro">
										<parameterid>Gain(dB)</parameterid>
										<name>Gain(dB)</name>
										<valuemin>-96</valuemin>
										<valuemax>96</valuemax>
										<value>13.3822</value>
									</parameter>
								</effect>
							</filter>
						<logginginfo>
							<description></description>
							<scene></scene>
							<shottake></shottake>
							<lognote></lognote>
						</logginginfo>
						<labels>
							<label2>Caribbean</label2>
						</labels>
					</clipitem>
					<clipitem id="clipitem-1439" frameBlend="FALSE" premiereChannelType="mono">
						<masterclipid>masterclip-376</masterclipid>
						<name>Kom mono_878.wav</name>
						<enabled>TRUE</enabled>
						<duration>569</duration>
						<rate>
							<timebase>25</timebase>
							<ntsc>FALSE</ntsc>
						</rate>
						<start>6859</start>
						<end>7427</end>
						<in>2</in>
						<out>570</out>
						<pproTicksIn>20321280000</pproTicksIn>
						<pproTicksOut>5791564800000</pproTicksOut>
						<file id="file-361">
							<name>Kom mono_878.wav</name>
							<pathurl>file://localhost/Volumes/Brakka/AdobeLager/DefaultCaptureScratch/Kom%20mono_878.wav</pathurl>
							<rate>
								<timebase>30</timebase>
								<ntsc>TRUE</ntsc>
							</rate>
							<duration>682</duration>
							<timecode>
								<rate>
									<timebase>30</timebase>
									<ntsc>TRUE</ntsc>
								</rate>
								<string>00;00;00;00</string>
								<frame>0</frame>
								<displayformat>DF</displayformat>
								<reel>
									<name></name>
								</reel>
							</timecode>
							<media>
								<audio>
									<samplecharacteristics>
										<depth>16</depth>
										<samplerate>48000</samplerate>
									</samplecharacteristics>
									<channelcount>1</channelcount>
									<layout>mono</layout>
									<audiochannel>
										<sourcechannel>1</sourcechannel>
										<channellabel>discrete</channellabel>
									</audiochannel>
								</audio>
							</media>
						</file>
						<sourcetrack>
							<mediatype>audio</mediatype>
							<trackindex>1</trackindex>
						</sourcetrack>
							<filter>
								<effect>
									<name>Gain</name>
									<effectid>{61756678, 4761696e, 4b657947}</effectid>
									<effecttype>filter</effecttype>
									<mediatype>audio</mediatype>
									<parameter authoringApp="PremierePro">
										<parameterid>Gain(dB)</parameterid>
										<name>Gain(dB)</name>
										<valuemin>-96</valuemin>
										<valuemax>96</valuemax>
										<value>13.3822</value>
									</parameter>
								</effect>
							</filter>
						<logginginfo>
							<description></description>
							<scene></scene>
							<shottake></shottake>
							<lognote></lognote>
						</logginginfo>
						<labels>
							<label2>Caribbean</label2>
						</labels>
					</clipitem>
					<clipitem id="clipitem-1440" frameBlend="FALSE" premiereChannelType="mono">
						<masterclipid>masterclip-377</masterclipid>
						<name>Kom mono_880.wav</name>
						<enabled>TRUE</enabled>
						<duration>707</duration>
						<rate>
							<timebase>25</timebase>
							<ntsc>FALSE</ntsc>
						</rate>
						<start>7670</start>
						<end>7847</end>
						<in>202</in>
						<out>379</out>
						<pproTicksIn>2052449280000</pproTicksIn>
						<pproTicksOut>3850882560000</pproTicksOut>
						<file id="file-362">
							<name>Kom mono_880.wav</name>
							<pathurl>file://localhost/Volumes/Brakka/AdobeLager/DefaultCaptureScratch/Kom%20mono_880.wav</pathurl>
							<rate>
								<timebase>30</timebase>
								<ntsc>TRUE</ntsc>
							</rate>
							<duration>847</duration>
							<timecode>
								<rate>
									<timebase>30</timebase>
									<ntsc>TRUE</ntsc>
								</rate>
								<string>00;00;00;00</string>
								<frame>0</frame>
								<displayformat>DF</displayformat>
								<reel>
									<name></name>
								</reel>
							</timecode>
							<media>
								<audio>
									<samplecharacteristics>
										<depth>16</depth>
										<samplerate>48000</samplerate>
									</samplecharacteristics>
									<channelcount>1</channelcount>
									<layout>mono</layout>
									<audiochannel>
										<sourcechannel>1</sourcechannel>
										<channellabel>discrete</channellabel>
									</audiochannel>
								</audio>
							</media>
						</file>
						<sourcetrack>
							<mediatype>audio</mediatype>
							<trackindex>1</trackindex>
						</sourcetrack>
							<filter>
								<effect>
									<name>Gain</name>
									<effectid>{61756678, 4761696e, 4b657947}</effectid>
									<effecttype>filter</effecttype>
									<mediatype>audio</mediatype>
									<parameter authoringApp="PremierePro">
										<parameterid>Gain(dB)</parameterid>
										<name>Gain(dB)</name>
										<valuemin>-96</valuemin>
										<valuemax>96</valuemax>
										<value>13.3822</value>
									</parameter>
								</effect>
							</filter>
						<logginginfo>
							<description></description>
							<scene></scene>
							<shottake></shottake>
							<lognote></lognote>
						</logginginfo>
						<labels>
							<label2>Caribbean</label2>
						</labels>
					</clipitem>
					<clipitem id="clipitem-1441" frameBlend="FALSE" premiereChannelType="mono">
						<masterclipid>masterclip-378</masterclipid>
						<name>Kom mono_879.wav</name>
						<enabled>TRUE</enabled>
						<duration>1346</duration>
						<rate>
							<timebase>25</timebase>
							<ntsc>FALSE</ntsc>
						</rate>
						<start>8206</start>
						<end>8794</end>
						<in>758</in>
						<out>1346</out>
						<pproTicksIn>7701765120000</pproTicksIn>
						<pproTicksOut>13676221440000</pproTicksOut>
						<file id="file-363">
							<name>Kom mono_879.wav</name>
							<pathurl>file://localhost/Volumes/Brakka/AdobeLager/DefaultCaptureScratch/Kom%20mono_879.wav</pathurl>
							<rate>
								<timebase>30</timebase>
								<ntsc>TRUE</ntsc>
							</rate>
							<duration>1613</duration>
							<timecode>
								<rate>
									<timebase>30</timebase>
									<ntsc>TRUE</ntsc>
								</rate>
								<string>00;00;00;00</string>
								<frame>0</frame>
								<displayformat>DF</displayformat>
								<reel>
									<name></name>
								</reel>
							</timecode>
							<media>
								<audio>
									<samplecharacteristics>
										<depth>16</depth>
										<samplerate>48000</samplerate>
									</samplecharacteristics>
									<channelcount>1</channelcount>
									<layout>mono</layout>
									<audiochannel>
										<sourcechannel>1</sourcechannel>
										<channellabel>discrete</channellabel>
									</audiochannel>
								</audio>
							</media>
						</file>
						<sourcetrack>
							<mediatype>audio</mediatype>
							<trackindex>1</trackindex>
						</sourcetrack>
							<filter>
								<effect>
									<name>Gain</name>
									<effectid>{61756678, 4761696e, 4b657947}</effectid>
									<effecttype>filter</effecttype>
									<mediatype>audio</mediatype>
									<parameter authoringApp="PremierePro">
										<parameterid>Gain(dB)</parameterid>
										<name>Gain(dB)</name>
										<valuemin>-96</valuemin>
										<valuemax>96</valuemax>
										<value>13.3822</value>
									</parameter>
								</effect>
							</filter>
						<logginginfo>
							<description></description>
							<scene></scene>
							<shottake></shottake>
							<lognote></lognote>
						</logginginfo>
						<labels>
							<label2>Caribbean</label2>
						</labels>
					</clipitem>
					<clipitem id="clipitem-1442" frameBlend="FALSE" premiereChannelType="mono">
						<masterclipid>masterclip-379</masterclipid>
						<name>Kom mono_881.wav</name>
						<enabled>TRUE</enabled>
						<duration>553</duration>
						<rate>
							<timebase>25</timebase>
							<ntsc>FALSE</ntsc>
						</rate>
						<start>8912</start>
						<end>9464</end>
						<in>2</in>
						<out>554</out>
						<pproTicksIn>20321280000</pproTicksIn>
						<pproTicksOut>5628994560000</pproTicksOut>
						<file id="file-364">
							<name>Kom mono_881.wav</name>
							<pathurl>file://localhost/Volumes/Brakka/AdobeLager/DefaultCaptureScratch/Kom%20mono_881.wav</pathurl>
							<rate>
								<timebase>30</timebase>
								<ntsc>TRUE</ntsc>
							</rate>
							<duration>663</duration>
							<timecode>
								<rate>
									<timebase>30</timebase>
									<ntsc>TRUE</ntsc>
								</rate>
								<string>00;00;00;00</string>
								<frame>0</frame>
								<displayformat>DF</displayformat>
								<reel>
									<name></name>
								</reel>
							</timecode>
							<media>
								<audio>
									<samplecharacteristics>
										<depth>16</depth>
										<samplerate>48000</samplerate>
									</samplecharacteristics>
									<channelcount>1</channelcount>
									<layout>mono</layout>
									<audiochannel>
										<sourcechannel>1</sourcechannel>
										<channellabel>discrete</channellabel>
									</audiochannel>
								</audio>
							</media>
						</file>
						<sourcetrack>
							<mediatype>audio</mediatype>
							<trackindex>1</trackindex>
						</sourcetrack>
							<filter>
								<effect>
									<name>Gain</name>
									<effectid>{61756678, 4761696e, 4b657947}</effectid>
									<effecttype>filter</effecttype>
									<mediatype>audio</mediatype>
									<parameter authoringApp="PremierePro">
										<parameterid>Gain(dB)</parameterid>
										<name>Gain(dB)</name>
										<valuemin>-96</valuemin>
										<valuemax>96</valuemax>
										<value>13.3822</value>
									</parameter>
								</effect>
							</filter>
						<logginginfo>
							<description></description>
							<scene></scene>
							<shottake></shottake>
							<lognote></lognote>
						</logginginfo>
						<labels>
							<label2>Caribbean</label2>
						</labels>
					</clipitem>
					<clipitem id="clipitem-1443" frameBlend="FALSE" premiereChannelType="mono">
						<masterclipid>masterclip-380</masterclipid>
						<name>Kom mono_883.wav</name>
						<enabled>TRUE</enabled>
						<duration>1448</duration>
						<rate>
							<timebase>25</timebase>
							<ntsc>FALSE</ntsc>
						</rate>
						<start>10298</start>
						<end>10424</end>
						<in>121</in>
						<out>247</out>
						<pproTicksIn>1229437440000</pproTicksIn>
						<pproTicksOut>2509678080000</pproTicksOut>
						<file id="file-365">
							<name>Kom mono_883.wav</name>
							<pathurl>file://localhost/Volumes/Brakka/AdobeLager/DefaultCaptureScratch/Kom%20mono_883.wav</pathurl>
							<rate>
								<timebase>30</timebase>
								<ntsc>TRUE</ntsc>
							</rate>
							<duration>1736</duration>
							<timecode>
								<rate>
									<timebase>30</timebase>
									<ntsc>TRUE</ntsc>
								</rate>
								<string>00;00;00;00</string>
								<frame>0</frame>
								<displayformat>DF</displayformat>
								<reel>
									<name></name>
								</reel>
							</timecode>
							<media>
								<audio>
									<samplecharacteristics>
										<depth>16</depth>
										<samplerate>48000</samplerate>
									</samplecharacteristics>
									<channelcount>1</channelcount>
									<layout>mono</layout>
									<audiochannel>
										<sourcechannel>1</sourcechannel>
										<channellabel>discrete</channellabel>
									</audiochannel>
								</audio>
							</media>
						</file>
						<sourcetrack>
							<mediatype>audio</mediatype>
							<trackindex>1</trackindex>
						</sourcetrack>
							<filter>
								<effect>
									<name>Gain</name>
									<effectid>{61756678, 4761696e, 4b657947}</effectid>
									<effecttype>filter</effecttype>
									<mediatype>audio</mediatype>
									<parameter authoringApp="PremierePro">
										<parameterid>Gain(dB)</parameterid>
										<name>Gain(dB)</name>
										<valuemin>-96</valuemin>
										<valuemax>96</valuemax>
										<value>13.3822</value>
									</parameter>
								</effect>
							</filter>
						<logginginfo>
							<description></description>
							<scene></scene>
							<shottake></shottake>
							<lognote></lognote>
						</logginginfo>
						<labels>
							<label2>Caribbean</label2>
						</labels>
					</clipitem>
					<clipitem id="clipitem-1444" frameBlend="FALSE" premiereChannelType="mono">
						<masterclipid>masterclip-380</masterclipid>
						<name>Kom mono_883.wav</name>
						<enabled>TRUE</enabled>
						<duration>1448</duration>
						<rate>
							<timebase>25</timebase>
							<ntsc>FALSE</ntsc>
						</rate>
						<start>10424</start>
						<end>10438</end>
						<in>275</in>
						<out>289</out>
						<pproTicksIn>2794176000000</pproTicksIn>
						<pproTicksOut>2936424960000</pproTicksOut>
						<file id="file-365"/>
						<sourcetrack>
							<mediatype>audio</mediatype>
							<trackindex>1</trackindex>
						</sourcetrack>
							<filter>
								<effect>
									<name>Gain</name>
									<effectid>{61756678, 4761696e, 4b657947}</effectid>
									<effecttype>filter</effecttype>
									<mediatype>audio</mediatype>
									<parameter authoringApp="PremierePro">
										<parameterid>Gain(dB)</parameterid>
										<name>Gain(dB)</name>
										<valuemin>-96</valuemin>
										<valuemax>96</valuemax>
										<value>13.3822</value>
									</parameter>
								</effect>
							</filter>
						<logginginfo>
							<description></description>
							<scene></scene>
							<shottake></shottake>
							<lognote></lognote>
						</logginginfo>
						<labels>
							<label2>Caribbean</label2>
						</labels>
					</clipitem>
					<clipitem id="clipitem-1445" frameBlend="FALSE" premiereChannelType="mono">
						<masterclipid>masterclip-381</masterclipid>
						<name>Kom mono_884.wav</name>
						<enabled>TRUE</enabled>
						<duration>568</duration>
						<rate>
							<timebase>25</timebase>
							<ntsc>FALSE</ntsc>
						</rate>
						<start>10920</start>
						<end>11406</end>
						<in>2</in>
						<out>488</out>
						<pproTicksIn>20321280000</pproTicksIn>
						<pproTicksOut>4958392320000</pproTicksOut>
						<file id="file-366">
							<name>Kom mono_884.wav</name>
							<pathurl>file://localhost/Volumes/Brakka/AdobeLager/DefaultCaptureScratch/Kom%20mono_884.wav</pathurl>
							<rate>
								<timebase>30</timebase>
								<ntsc>TRUE</ntsc>
							</rate>
							<duration>681</duration>
							<timecode>
								<rate>
									<timebase>30</timebase>
									<ntsc>TRUE</ntsc>
								</rate>
								<string>00;00;00;00</string>
								<frame>0</frame>
								<displayformat>DF</displayformat>
								<reel>
									<name></name>
								</reel>
							</timecode>
							<media>
								<audio>
									<samplecharacteristics>
										<depth>16</depth>
										<samplerate>48000</samplerate>
									</samplecharacteristics>
									<channelcount>1</channelcount>
									<layout>mono</layout>
									<audiochannel>
										<sourcechannel>1</sourcechannel>
										<channellabel>discrete</channellabel>
									</audiochannel>
								</audio>
							</media>
						</file>
						<sourcetrack>
							<mediatype>audio</mediatype>
							<trackindex>1</trackindex>
						</sourcetrack>
							<filter>
								<effect>
									<name>Gain</name>
									<effectid>{61756678, 4761696e, 4b657947}</effectid>
									<effecttype>filter</effecttype>
									<mediatype>audio</mediatype>
									<parameter authoringApp="PremierePro">
										<parameterid>Gain(dB)</parameterid>
										<name>Gain(dB)</name>
										<valuemin>-96</valuemin>
										<valuemax>96</valuemax>
										<value>13.3822</value>
									</parameter>
								</effect>
							</filter>
						<logginginfo>
							<description></description>
							<scene></scene>
							<shottake></shottake>
							<lognote></lognote>
						</logginginfo>
						<labels>
							<label2>Caribbean</label2>
						</labels>
					</clipitem>
					<clipitem id="clipitem-1446" frameBlend="FALSE" premiereChannelType="mono">
						<masterclipid>masterclip-382</masterclipid>
						<name>Kom mono_886.wav</name>
						<enabled>TRUE</enabled>
						<duration>175</duration>
						<rate>
							<timebase>25</timebase>
							<ntsc>FALSE</ntsc>
						</rate>
						<start>11406</start>
						<end>11579</end>
						<in>2</in>
						<out>175</out>
						<pproTicksIn>20321280000</pproTicksIn>
						<pproTicksOut>1778112000000</pproTicksOut>
						<file id="file-367">
							<name>Kom mono_886.wav</name>
							<pathurl>file://localhost/Volumes/Brakka/AdobeLager/DefaultCaptureScratch/Kom%20mono_886.wav</pathurl>
							<rate>
								<timebase>30</timebase>
								<ntsc>TRUE</ntsc>
							</rate>
							<duration>209</duration>
							<timecode>
								<rate>
									<timebase>30</timebase>
									<ntsc>TRUE</ntsc>
								</rate>
								<string>00;00;00;00</string>
								<frame>0</frame>
								<displayformat>DF</displayformat>
								<reel>
									<name></name>
								</reel>
							</timecode>
							<media>
								<audio>
									<samplecharacteristics>
										<depth>16</depth>
										<samplerate>48000</samplerate>
									</samplecharacteristics>
									<channelcount>1</channelcount>
									<layout>mono</layout>
									<audiochannel>
										<sourcechannel>1</sourcechannel>
										<channellabel>discrete</channellabel>
									</audiochannel>
								</audio>
							</media>
						</file>
						<sourcetrack>
							<mediatype>audio</mediatype>
							<trackindex>1</trackindex>
						</sourcetrack>
							<filter>
								<effect>
									<name>Gain</name>
									<effectid>{61756678, 4761696e, 4b657947}</effectid>
									<effecttype>filter</effecttype>
									<mediatype>audio</mediatype>
									<parameter authoringApp="PremierePro">
										<parameterid>Gain(dB)</parameterid>
										<name>Gain(dB)</name>
										<valuemin>-96</valuemin>
										<valuemax>96</valuemax>
										<value>13.3822</value>
									</parameter>
								</effect>
							</filter>
						<logginginfo>
							<description></description>
							<scene></scene>
							<shottake></shottake>
							<lognote></lognote>
						</logginginfo>
						<labels>
							<label2>Caribbean</label2>
						</labels>
					</clipitem>
					<clipitem id="clipitem-1447" frameBlend="FALSE" premiereChannelType="mono">
						<masterclipid>masterclip-383</masterclipid>
						<name>Kom mono_888.wav</name>
						<enabled>TRUE</enabled>
						<duration>1116</duration>
						<rate>
							<timebase>25</timebase>
							<ntsc>FALSE</ntsc>
						</rate>
						<start>12928</start>
						<end>13599</end>
						<in>122</in>
						<out>793</out>
						<pproTicksIn>1239598080000</pproTicksIn>
						<pproTicksOut>8057387520000</pproTicksOut>
						<file id="file-368">
							<name>Kom mono_888.wav</name>
							<pathurl>file://localhost/Volumes/Brakka/AdobeLager/DefaultCaptureScratch/Kom%20mono_888.wav</pathurl>
							<rate>
								<timebase>30</timebase>
								<ntsc>TRUE</ntsc>
							</rate>
							<duration>1338</duration>
							<timecode>
								<rate>
									<timebase>30</timebase>
									<ntsc>TRUE</ntsc>
								</rate>
								<string>00;00;00;00</string>
								<frame>0</frame>
								<displayformat>DF</displayformat>
								<reel>
									<name></name>
								</reel>
							</timecode>
							<media>
								<audio>
									<samplecharacteristics>
										<depth>16</depth>
										<samplerate>48000</samplerate>
									</samplecharacteristics>
									<channelcount>1</channelcount>
									<layout>mono</layout>
									<audiochannel>
										<sourcechannel>1</sourcechannel>
										<channellabel>discrete</channellabel>
									</audiochannel>
								</audio>
							</media>
						</file>
						<sourcetrack>
							<mediatype>audio</mediatype>
							<trackindex>1</trackindex>
						</sourcetrack>
							<filter>
								<effect>
									<name>Gain</name>
									<effectid>{61756678, 4761696e, 4b657947}</effectid>
									<effecttype>filter</effecttype>
									<mediatype>audio</mediatype>
									<parameter authoringApp="PremierePro">
										<parameterid>Gain(dB)</parameterid>
										<name>Gain(dB)</name>
										<valuemin>-96</valuemin>
										<valuemax>96</valuemax>
										<value>13.3822</value>
									</parameter>
								</effect>
							</filter>
						<logginginfo>
							<description></description>
							<scene></scene>
							<shottake></shottake>
							<lognote></lognote>
						</logginginfo>
						<labels>
							<label2>Caribbean</label2>
						</labels>
					</clipitem>
					<clipitem id="clipitem-1448" frameBlend="FALSE" premiereChannelType="mono">
						<masterclipid>masterclip-384</masterclipid>
						<name>Kom mono_892.wav</name>
						<enabled>TRUE</enabled>
						<duration>494</duration>
						<rate>
							<timebase>25</timebase>
							<ntsc>FALSE</ntsc>
						</rate>
						<start>13847</start>
						<end>14180</end>
						<in>0</in>
						<out>333</out>
						<pproTicksIn>0</pproTicksIn>
						<pproTicksOut>3383493120000</pproTicksOut>
						<file id="file-369">
							<name>Kom mono_892.wav</name>
							<pathurl>file://localhost/Volumes/Brakka/AdobeLager/DefaultCaptureScratch/Kom%20mono_892.wav</pathurl>
							<rate>
								<timebase>30</timebase>
								<ntsc>TRUE</ntsc>
							</rate>
							<duration>592</duration>
							<timecode>
								<rate>
									<timebase>30</timebase>
									<ntsc>TRUE</ntsc>
								</rate>
								<string>00;00;00;00</string>
								<frame>0</frame>
								<displayformat>DF</displayformat>
								<reel>
									<name></name>
								</reel>
							</timecode>
							<media>
								<audio>
									<samplecharacteristics>
										<depth>16</depth>
										<samplerate>48000</samplerate>
									</samplecharacteristics>
									<channelcount>1</channelcount>
									<layout>mono</layout>
									<audiochannel>
										<sourcechannel>1</sourcechannel>
										<channellabel>discrete</channellabel>
									</audiochannel>
								</audio>
							</media>
						</file>
						<sourcetrack>
							<mediatype>audio</mediatype>
							<trackindex>1</trackindex>
						</sourcetrack>
							<filter>
								<effect>
									<name>Gain</name>
									<effectid>{61756678, 4761696e, 4b657947}</effectid>
									<effecttype>filter</effecttype>
									<mediatype>audio</mediatype>
									<parameter authoringApp="PremierePro">
										<parameterid>Gain(dB)</parameterid>
										<name>Gain(dB)</name>
										<valuemin>-96</valuemin>
										<valuemax>96</valuemax>
										<value>13.3822</value>
									</parameter>
								</effect>
							</filter>
						<logginginfo>
							<description></description>
							<scene></scene>
							<shottake></shottake>
							<lognote></lognote>
						</logginginfo>
						<labels>
							<label2>Caribbean</label2>
						</labels>
					</clipitem>
					<clipitem id="clipitem-1449" frameBlend="FALSE" premiereChannelType="mono">
						<masterclipid>masterclip-384</masterclipid>
						<name>Kom mono_892.wav</name>
						<enabled>TRUE</enabled>
						<duration>494</duration>
						<rate>
							<timebase>25</timebase>
							<ntsc>FALSE</ntsc>
						</rate>
						<start>14538</start>
						<end>14699</end>
						<in>333</in>
						<out>494</out>
						<pproTicksIn>3383493120000</pproTicksIn>
						<pproTicksOut>5019356160000</pproTicksOut>
						<file id="file-369"/>
						<sourcetrack>
							<mediatype>audio</mediatype>
							<trackindex>1</trackindex>
						</sourcetrack>
							<filter>
								<effect>
									<name>Gain</name>
									<effectid>{61756678, 4761696e, 4b657947}</effectid>
									<effecttype>filter</effecttype>
									<mediatype>audio</mediatype>
									<parameter authoringApp="PremierePro">
										<parameterid>Gain(dB)</parameterid>
										<name>Gain(dB)</name>
										<valuemin>-96</valuemin>
										<valuemax>96</valuemax>
										<value>13.3822</value>
									</parameter>
								</effect>
							</filter>
						<logginginfo>
							<description></description>
							<scene></scene>
							<shottake></shottake>
							<lognote></lognote>
						</logginginfo>
						<labels>
							<label2>Caribbean</label2>
						</labels>
					</clipitem>
					<enabled>TRUE</enabled>
					<locked>FALSE</locked>
					<outputchannelindex>1</outputchannelindex>
				</track>
			</audio>
		</media>
		<timecode>
			<rate>
				<timebase>25</timebase>
				<ntsc>FALSE</ntsc>
			</rate>
			<string>00:00:00:00</string>
			<frame>0</frame>
			<displayformat>NDF</displayformat>
		</timecode>
			<marker>
				<comment></comment>
				<name></name>
				<in>12056</in>
				<out>-1</out>
			</marker>
		<labels>
			<label2>Forest</label2>
		</labels>
	</sequence>
</xmeml>
